<?xml version="1.0" encoding="UTF-8" standalone="no"?>
<svg xmlns:dc="http://purl.org/dc/elements/1.1/" xmlns:cc="http://creativecommons.org/ns#" xmlns:rdf="http://www.w3.org/1999/02/22-rdf-syntax-ns#" xmlns:svg="http://www.w3.org/2000/svg" xmlns="http://www.w3.org/2000/svg" xmlns:sodipodi="http://sodipodi.sourceforge.net/DTD/sodipodi-0.dtd" xmlns:inkscape="http://www.inkscape.org/namespaces/inkscape" inkscape:version="1.0 (4035a4f, 2020-05-01)" sodipodi:docname="svg_render_AD-lowcontrast-pp.svg" id="svg208" viewBox="0 0 45.0 380.0" height="380.0" width="45.0" version="1.1">
  <metadata id="metadata214">
    <rdf:RDF>
      <cc:Work rdf:about="">
        <dc:format>image/svg+xml</dc:format>
        <dc:type rdf:resource="http://purl.org/dc/dcmitype/StillImage"/>
      </cc:Work>
    </rdf:RDF>
  </metadata>
  <defs id="defs212"/>
  <sodipodi:namedview inkscape:current-layer="svg208" inkscape:window-maximized="0" inkscape:window-y="23" inkscape:window-x="0" inkscape:cy="190" inkscape:cx="22.5" inkscape:zoom="1.7605263" showgrid="false" id="namedview210" inkscape:window-height="480" inkscape:window-width="689" inkscape:pageshadow="2" inkscape:pageopacity="0" guidetolerance="10" gridtolerance="10" objecttolerance="10" borderopacity="1" bordercolor="#666666" pagecolor="#ffffff"/>
  
  <path class="module-background background-fill" d="M 0,0 H 45 V 380 H 0 Z" style="fill:#333333" id="rect4"/>
  <path class="module-border-inner" d="M 1,1 H 44 V 379 H 1 V 1" style="fill:none;stroke:#191919;stroke-width:0.5" id="polyline6"/>
  <path class="module-border-middle" d="m 0.5,0.5 h 44 v 379 H 0.5 V 0.5" style="fill:none;stroke:#111111;stroke-width:0.8" id="polyline8"/>
  <path class="module-border-outer" d="M 0,0 H 45 V 380 H 0 V 0" style="fill:none;stroke:#000000;stroke-width:1" id="polyline10"/>
  <g class="title" style="font-weight:normal;font-size:9.33333px;font-family:Comfortaa, sans-serif;letter-spacing:2.5px;fill:#b3b3b3" id="text12" transform="rotate(-90)" aria-label="AD">
    <path id="path444" style="font-weight:normal;font-size:9.33333px;font-family:Comfortaa, sans-serif;letter-spacing:2.5px;fill:#b3b3b3" d="m -369.59734,12.486667 q 0.0373,0.06533 0.0373,0.149333 0,0.149333 -0.112,0.261333 Q -369.77467,13 -369.924,13 q -0.24267,0 -0.34534,-0.224 l -0.62533,-1.511999 h -3.612 L -375.132,12.776 q -0.0747,0.224 -0.336,0.224 -0.15867,0 -0.26133,-0.102667 -0.0933,-0.112 -0.0933,-0.261333 0,-0.09333 0.028,-0.158666 l 2.744,-6.5146649 q 0.10267,-0.252 0.35467,-0.252 0.252,0 0.34533,0.252 z m -1.54933,-1.848 -1.54933,-3.7426649 -1.54933,3.7426649 z"/>
    <path id="path446" style="font-weight:normal;font-size:9.33333px;font-family:Comfortaa, sans-serif;letter-spacing:2.5px;fill:#b3b3b3" d="m -365.64017,13 q -0.15867,0 -0.26133,-0.102667 -0.10267,-0.102666 -0.10267,-0.261333 V 6.074669 q 0,-0.1586666 0.10267,-0.2613332 0.10266,-0.1026667 0.26133,-0.1026667 h 1.68 q 1.05467,0 1.88533,0.4666666 0.83067,0.4666665 1.288,1.2973328 0.46667,0.8213331 0.46667,1.8759994 0,1.0546661 -0.46667,1.8853331 -0.45733,0.830666 -1.288,1.297332 Q -362.9055,13 -363.96017,13 Z m 1.68,-0.653333 q 0.84933,0 1.512,-0.382667 0.66267,-0.392 1.036,-1.073333 0.37333,-0.681333 0.37333,-1.5399991 0,-0.8586664 -0.37333,-1.5399995 -0.37333,-0.6813331 -1.036,-1.0639996 -0.66267,-0.3826665 -1.512,-0.3826665 h -1.316 v 5.9826647 z"/>
  </g>
  <g transform="rotate(-90,200.5,175.5)" id="g18">
    <g class="brand" style="font-weight:bold;font-size:9.33333px;font-family:Audiowide, sans-serif;letter-spacing:2px;fill:#b3b3b3" id="text14" aria-label="BGA">
      <path id="path436" style="font-weight:bold;font-size:9.33333px;font-family:Audiowide, sans-serif;letter-spacing:2px;fill:#b3b3b3" d="m 7.209633,-1.4355464 q 0,0.2187499 -0.077474,0.4694009 -0.072917,0.25065095 -0.2460936,0.46484359 Q 6.7174456,-0.28710928 6.4440082,-0.14127599 6.1705708,0 5.7740866,0 H 1.2760412 Q 1.1484371,0 1.0390621,-0.0455729 0.92968718,-0.0911458 0.84765596,-0.16861973 0.77018203,-0.25065096 0.72460913,-0.36002592 0.67903623,-0.46940088 0.67903623,-0.597005 v -5.341144 q 0,-0.1230469 0.0455729,-0.2324218 0.0455729,-0.109375 0.12304683,-0.1914062 0.0820312,-0.082031 0.19140614,-0.1276041 0.109375,-0.045573 0.2369791,-0.045573 h 3.9648424 q 0.21875,0 0.4694009,0.077474 0.250651,0.077474 0.4648436,0.250651 0.2187499,0.1686197 0.3600259,0.4420571 0.1458333,0.2734374 0.1458333,0.6699217 v 0.2233072 q 0,0.314453 -0.1048177,0.6790362 -0.1048176,0.3600259 -0.3372394,0.6835935 0.2005207,0.1230468 0.3736978,0.2962239 0.1777343,0.173177 0.3098957,0.4010415 0.1321614,0.2278645 0.2096353,0.5149738 0.077474,0.2871093 0.077474,0.6334633 z M 6.0247375,-1.6634109 q 0,-0.2324218 -0.072917,-0.4147134 Q 5.8789042,-2.2649732 5.7467428,-2.3971346 5.6145814,-2.529296 5.4277325,-2.5976554 5.2408836,-2.670572 5.0084618,-2.670572 h -2.670572 v -1.19401 h 2.1373691 q 0.2324218,0 0.4192707,-0.068359 0.1868489,-0.072917 0.3190103,-0.205078 0.1321614,-0.1321614 0.2005208,-0.314453 0.072917,-0.1868489 0.072917,-0.4192707 v -0.2233072 q 0,-0.2552083 -0.2460937,-0.2552083 H 1.8639317 v 4.1653632 h 3.9101549 q 0.031901,0 0.077474,-0.00456 0.045573,-0.00456 0.082031,-0.027344 0.036458,-0.022786 0.063802,-0.077474 0.027344,-0.054687 0.027344,-0.1503906 z"/>
      <path id="path438" style="font-weight:bold;font-size:9.33333px;font-family:Audiowide, sans-serif;letter-spacing:2px;fill:#b3b3b3" d="m 16.683589,-0.597005 q 0,0.12760412 -0.04557,0.23697908 -0.04557,0.10937496 -0.127605,0.19140619 -0.07747,0.07747393 -0.186849,0.12304683 Q 16.214189,0 16.086584,0 h -4.274738 q -0.164062,0 -0.355468,-0.03645832 -0.186849,-0.04101561 -0.373698,-0.12304683 -0.182292,-0.0820312 -0.350911,-0.20963535 -0.16862,-0.13216141 -0.300782,-0.31445302 -0.127604,-0.18684889 -0.205078,-0.42838528 -0.07747,-0.2460937 -0.07747,-0.5514321 v -3.2083322 q 0,-0.1640625 0.03646,-0.3509114 0.04101,-0.1914062 0.123047,-0.3736978 0.08203,-0.1868489 0.214192,-0.3554686 0.132162,-0.1686197 0.314453,-0.2962238 0.186849,-0.1321615 0.428385,-0.2096354 0.241537,-0.077474 0.546875,-0.077474 h 4.817056 v 1.1848954 h -4.817056 q -0.232422,0 -0.355468,0.1230468 -0.123047,0.1230469 -0.123047,0.3645832 v 3.1992177 q 0,0.2278645 0.123047,0.3554686 0.127604,0.1230469 0.355468,0.1230469 h 3.686848 V -2.670572 h -3.153645 v -1.19401 h 3.741535 q 0.127605,0 0.236979,0.05013 0.109375,0.045573 0.186849,0.1276041 0.08203,0.082031 0.127605,0.1914062 0.04557,0.1048177 0.04557,0.2278645 z"/>
      <path id="path440" style="font-weight:bold;font-size:9.33333px;font-family:Audiowide, sans-serif;letter-spacing:2px;fill:#b3b3b3" d="M 26.339836,0 H 25.154941 V -1.6041661 H 20.989578 V 0 h -1.184896 v -3.267577 q 0,-0.7154946 0.246094,-1.3170569 0.246094,-0.6015623 0.683593,-1.0345048 0.4375,-0.4329426 1.034505,-0.6744789 0.597005,-0.2415364 1.303385,-0.2415364 h 2.670572 q 0.123047,0 0.232422,0.045573 0.109375,0.045573 0.191406,0.1276041 0.08203,0.082031 0.127604,0.1914062 0.04557,0.1093749 0.04557,0.2324218 z m -5.350258,-2.7890616 h 4.165363 v -2.561197 h -2.082682 q -0.05469,0 -0.232422,0.018229 -0.173177,0.013672 -0.405598,0.077474 -0.227865,0.063802 -0.483073,0.1959635 -0.255208,0.1321614 -0.469401,0.3645832 -0.214193,0.2324218 -0.355469,0.5833331 -0.136718,0.3463541 -0.136718,0.8430987 z"/>
    </g>
    <path class="background-fill" d="M 0,0 H 3 V 3 H 0 Z" style="fill:#333333" transform="translate(11.5,-5)" id="rect16"/>
  </g>
  <g style="font-weight:bold;font-size:8px;font-family:Roboto, sans-serif;letter-spacing:1.5px;fill:#b3b3b3" id="text22" aria-label="ATTACK">
    <path id="path423" style="font-weight:bold;font-size:8px;font-family:Roboto, sans-serif;letter-spacing:1.5px;fill:#b3b3b3" d="M 7.21875,23.828125 H 5.1640625 L 4.7734375,25 H 3.5273438 L 5.6445312,19.3125 H 6.7304687 L 8.859375,25 H 7.6132812 Z M 5.4804687,22.878906 h 1.421875 L 6.1875,20.75 Z"/>
    <path id="path425" style="font-weight:bold;font-size:8px;font-family:Roboto, sans-serif;letter-spacing:1.5px;fill:#b3b3b3" d="M 14.710938,20.261719 H 12.96875 V 25 h -1.171875 v -4.738281 h -1.71875 V 19.3125 h 4.632813 z"/>
    <path id="path427" style="font-weight:bold;font-size:8px;font-family:Roboto, sans-serif;letter-spacing:1.5px;fill:#b3b3b3" d="M 21.226562,20.261719 H 19.484375 V 25 H 18.3125 V 20.261719 H 16.59375 V 19.3125 h 4.632812 z"/>
    <path id="path429" style="font-weight:bold;font-size:8px;font-family:Roboto, sans-serif;letter-spacing:1.5px;fill:#b3b3b3" d="M 26.140625,23.828125 H 24.085937 L 23.695312,25 h -1.246093 l 2.117187,-5.6875 h 1.085938 L 27.78125,25 h -1.246094 z m -1.738281,-0.949219 h 1.421875 L 25.109375,20.75 Z"/>
    <path id="path431" style="font-weight:bold;font-size:8px;font-family:Roboto, sans-serif;letter-spacing:1.5px;fill:#b3b3b3" d="m 34.207031,23.105469 q -0.06641,0.917968 -0.679687,1.445312 -0.609375,0.527344 -1.609375,0.527344 -1.09375,0 -1.722657,-0.734375 -0.625,-0.738281 -0.625,-2.023438 v -0.347656 q 0,-0.820312 0.289063,-1.445312 0.289062,-0.625 0.824219,-0.957032 0.539062,-0.335937 1.25,-0.335937 0.984375,0 1.585937,0.527344 0.601563,0.527343 0.695313,1.480468 H 33.042969 Q 33,20.691406 32.734375,20.445312 q -0.261719,-0.25 -0.800781,-0.25 -0.585938,0 -0.878907,0.421875 -0.289062,0.417969 -0.296875,1.300782 v 0.429687 q 0,0.921875 0.277344,1.347656 0.28125,0.425782 0.882813,0.425782 0.542968,0 0.808593,-0.246094 0.269532,-0.25 0.308594,-0.769531 z"/>
    <path id="path433" style="font-weight:bold;font-size:8px;font-family:Roboto, sans-serif;letter-spacing:1.5px;fill:#b3b3b3" d="M 38.257812,22.71875 37.648437,23.375 V 25 h -1.171875 v -5.6875 h 1.171875 v 2.578125 l 0.515625,-0.707031 1.449219,-1.871094 h 1.441406 L 39.035156,21.839844 41.113281,25 H 39.71875 Z"/>
  </g>
  <g transform="translate(0,25)" id="g24"/>
  <g transform="translate(0,25)" id="g82">
    <g transform="translate(22.5,22.5)" id="g80">
      <g transform="rotate(120,-8.5,4.9074773)" id="g30">
        <g transform="rotate(-120,1.5,-0.8660254)" id="g28">
          <g style="font-weight:bold;font-size:8.66667px;font-family:Roboto, sans-serif;fill:#b3b3b3" id="text26" transform="translate(-2.8,3.3)" aria-label="0">
            <path id="path405" style="font-weight:bold;font-size:8.66667px;font-family:Roboto, sans-serif;fill:#b3b3b3" d="m 4.5660824,-2.547527 q 0,1.2779953 -0.5289715,1.95507887 -0.5289716,0.67708358 -1.5488287,0.67708358 -1.0071619,0 -1.54036519,-0.66438827 Q 0.41471369,-1.2441411 0.40201838,-2.4840504 v -1.134115 q 0,-1.2906906 0.53320332,-1.9593106 0.5374351,-0.66862 1.5445969,-0.66862 1.0071618,0 1.5403652,0.6643882 0.5332033,0.6601565 0.5458986,1.9000658 z M 3.3431002,-3.7916681 q 0,-0.7659508 -0.2115886,-1.1129561 -0.2073569,-0.3512371 -0.651693,-0.3512371 -0.4316408,0 -0.6389976,0.33431 -0.2031251,0.3300783 -0.2158204,1.0367843 v 1.4980474 q 0,0.7532555 0.2031251,1.1214197 0.2073568,0.36393238 0.6601565,0.36393238 0.4485678,0 0.6474611,-0.35123708 0.1988933,-0.3512371 0.2073569,-1.0748702 z"/>
          </g>
        </g>
      </g>
      <g transform="rotate(-172.92,-8.5,-0.52583884)" id="g34">
        <path d="M 0,0 H 1.5" style="stroke:#b3b3b3;stroke-width:0.7" id="polyline32"/>
      </g>
      <g transform="rotate(-145.13,-8.5,-2.6694419)" id="g40">
        <g transform="rotate(145.13,1.5,0.47107798)" id="g38">
          <g style="font-weight:bold;font-size:8.66667px;font-family:Roboto, sans-serif;fill:#b3b3b3" id="text36" transform="translate(-2.8,3.3)" aria-label="1">
            <path id="path409" style="font-weight:bold;font-size:8.66667px;font-family:Roboto, sans-serif;fill:#b3b3b3" d="M 3.3896497,0 H 2.1666675 V -4.7141944 L 0.70670599,-4.2613948 V -5.2558613 L 3.2584647,-6.1699241 h 0.131185 z"/>
          </g>
        </g>
      </g>
      <g transform="rotate(-105.84,-8.5,-6.4238366)" id="g44">
        <path d="M 0,0 H 3" style="stroke:#b3b3b3;stroke-width:0.7" id="polyline42"/>
      </g>
      <g transform="rotate(-75.68,-8.5,-10.942351)" id="g48">
        <path d="M 0,0 H 3" style="stroke:#b3b3b3;stroke-width:0.7" id="polyline46"/>
      </g>
      <g transform="rotate(-50.26,-8.5,-18.120852)" id="g52">
        <path d="M 0,0 H 3" style="stroke:#b3b3b3;stroke-width:0.7" id="polyline50"/>
      </g>
      <g transform="rotate(-27.87,-8.5,-34.257154)" id="g58">
        <g transform="rotate(27.87,1.5,6.0453801)" id="g56">
          <g style="font-weight:bold;font-size:8.66667px;font-family:Roboto, sans-serif;fill:#b3b3b3" id="text54" transform="translate(-2.8,3.3)" aria-label="5">
            <path id="path415" style="font-weight:bold;font-size:8.66667px;font-family:Roboto, sans-serif;fill:#b3b3b3" d="M 0.60091168,-3.029949 0.95638056,-6.1614606 H 4.4095068 v 1.0198572 H 1.9593106 l -0.1523438,1.3245447 q 0.4358726,-0.2327475 0.9267582,-0.2327475 0.8802086,0 1.3795578,0.5458987 0.4993491,0.5458986 0.4993491,1.5276698 0,0.5966799 -0.2539063,1.07063841 -0.2496746,0.46972673 -0.7194013,0.73209662 -0.4697268,0.25813812 -1.1087244,0.25813812 -0.558594,0 -1.0367842,-0.22428394 Q 1.0156254,-0.3681642 0.7363284,-0.77864612 0.46126319,-1.189128 0.4443361,-1.7138678 H 1.654623 q 0.038086,0.3850913 0.2666017,0.6009117 0.2327474,0.21158858 0.6051434,0.21158858 0.4147137,0 0.6389976,-0.29622408 0.224284,-0.3004558 0.224284,-0.8463545 0,-0.5247397 -0.2581381,-0.8040367 -0.2581382,-0.279297 -0.7320967,-0.279297 -0.4358725,0 -0.7067059,0.2285157 L 1.5742193,-2.788738 Z"/>
          </g>
        </g>
      </g>
      <g transform="rotate(-7.62,-8.5,-127.63677)" id="g62">
        <path d="M 0,0 H 3" style="stroke:#b3b3b3;stroke-width:0.7" id="polyline60"/>
      </g>
      <g transform="rotate(11,-8.5,88.275875)" id="g66">
        <path d="M 0,0 H 3" style="stroke:#b3b3b3;stroke-width:0.7" id="polyline64"/>
      </g>
      <g transform="rotate(28.33,-8.5,33.678168)" id="g70">
        <path d="M 0,0 H 3" style="stroke:#b3b3b3;stroke-width:0.7" id="polyline68"/>
      </g>
      <g transform="rotate(44.6,-8.5,20.725142)" id="g74">
        <path d="M 0,0 H 3" style="stroke:#b3b3b3;stroke-width:0.7" id="polyline72"/>
      </g>
      <g transform="rotate(60,-8.5,14.722432)" id="g78">
        <path d="M 0,0 H 3" style="stroke:#b3b3b3;stroke-width:0.7" id="polyline76"/>
      </g>
    </g>
  </g>
  <g transform="translate(20.8,65)" id="g84"/>
  <g style="font-weight:bold;font-size:8px;font-family:Roboto, sans-serif;letter-spacing:2px;fill:#b3b3b3" id="text88" aria-label="DECAY">
    <path id="path394" style="font-weight:bold;font-size:8px;font-family:Roboto, sans-serif;letter-spacing:2px;fill:#b3b3b3" d="m 6.5078125,82 v -5.6875 h 1.75 q 0.75,0 1.3398438,0.339844 0.5937497,0.335937 0.9257817,0.960937 0.332031,0.621094 0.332031,1.414063 v 0.261718 q 0,0.792969 -0.328125,1.410157 Q 10.203125,81.316406 9.609375,81.65625 9.015625,81.996094 8.2695313,82 Z m 1.171875,-4.738281 v 3.796875 h 0.5664063 q 0.6875,0 1.0507812,-0.449219 0.3632813,-0.449219 0.3710938,-1.285156 v -0.300782 q 0,-0.867187 -0.359375,-1.3125 -0.359375,-0.449218 -1.0507813,-0.449218 z"/>
    <path id="path396" style="font-weight:bold;font-size:8px;font-family:Roboto, sans-serif;letter-spacing:2px;fill:#b3b3b3" d="m 17.132812,79.535156 h -2.249999 v 1.523438 h 2.640624 V 82 h -3.812499 v -5.6875 h 3.804687 v 0.949219 h -2.632812 v 1.355468 h 2.249999 z"/>
    <path id="path398" style="font-weight:bold;font-size:8px;font-family:Roboto, sans-serif;letter-spacing:2px;fill:#b3b3b3" d="m 24.675781,80.105469 q -0.06641,0.917968 -0.679687,1.445312 -0.609375,0.527344 -1.609375,0.527344 -1.09375,0 -1.722657,-0.734375 -0.625,-0.738281 -0.625,-2.023438 v -0.347656 q 0,-0.820312 0.289063,-1.445312 0.289062,-0.625 0.824219,-0.957032 0.539062,-0.335937 1.25,-0.335937 0.984375,0 1.585937,0.527344 0.601563,0.527343 0.695313,1.480468 h -1.171875 q -0.04297,-0.550781 -0.308594,-0.796875 -0.261719,-0.25 -0.800781,-0.25 -0.585938,0 -0.878907,0.421875 -0.289062,0.417969 -0.296875,1.300782 v 0.429687 q 0,0.921875 0.277344,1.347656 0.28125,0.425782 0.882813,0.425782 0.542968,0 0.808593,-0.246094 0.269532,-0.25 0.308594,-0.769531 z"/>
    <path id="path400" style="font-weight:bold;font-size:8px;font-family:Roboto, sans-serif;letter-spacing:2px;fill:#b3b3b3" d="M 30.65625,80.828125 H 28.601562 L 28.210937,82 h -1.246093 l 2.117187,-5.6875 h 1.085938 L 32.296875,82 h -1.246094 z m -1.738281,-0.949219 h 1.421875 L 29.625,77.75 Z"/>
    <path id="path402" style="font-weight:bold;font-size:8px;font-family:Roboto, sans-serif;letter-spacing:2px;fill:#b3b3b3" d="m 36.21875,78.875 1.183594,-2.5625 h 1.28125 l -1.867188,3.625 V 82 H 35.625 v -2.0625 l -1.867188,-3.625 h 1.285157 z"/>
  </g>
  <g transform="translate(0,82)" id="g90"/>
  <g transform="translate(0,82)" id="g148">
    <g transform="translate(22.5,22.5)" id="g146">
      <g transform="rotate(120,-8.5,4.9074773)" id="g96">
        <g transform="rotate(-120,1.5,-0.8660254)" id="g94">
          <g style="font-weight:bold;font-size:8.66667px;font-family:Roboto, sans-serif;fill:#b3b3b3" id="text92" transform="translate(-2.8,3.3)" aria-label="0">
            <path id="path376" style="font-weight:bold;font-size:8.66667px;font-family:Roboto, sans-serif;fill:#b3b3b3" d="m 4.5660824,-2.547527 q 0,1.2779953 -0.5289715,1.95507887 -0.5289716,0.67708358 -1.5488287,0.67708358 -1.0071619,0 -1.54036519,-0.66438827 Q 0.41471369,-1.2441411 0.40201838,-2.4840504 v -1.134115 q 0,-1.2906906 0.53320332,-1.9593106 0.5374351,-0.66862 1.5445969,-0.66862 1.0071618,0 1.5403652,0.6643882 0.5332033,0.6601565 0.5458986,1.9000658 z M 3.3431002,-3.7916681 q 0,-0.7659508 -0.2115886,-1.1129561 -0.2073569,-0.3512371 -0.651693,-0.3512371 -0.4316408,0 -0.6389976,0.33431 -0.2031251,0.3300783 -0.2158204,1.0367843 v 1.4980474 q 0,0.7532555 0.2031251,1.1214197 0.2073568,0.36393238 0.6601565,0.36393238 0.4485678,0 0.6474611,-0.35123708 0.1988933,-0.3512371 0.2073569,-1.0748702 z"/>
          </g>
        </g>
      </g>
      <g transform="rotate(-172.92,-8.5,-0.52583884)" id="g100">
        <path d="M 0,0 H 1.5" style="stroke:#b3b3b3;stroke-width:0.7" id="polyline98"/>
      </g>
      <g transform="rotate(-145.13,-8.5,-2.6694419)" id="g106">
        <g transform="rotate(145.13,1.5,0.47107798)" id="g104">
          <g style="font-weight:bold;font-size:8.66667px;font-family:Roboto, sans-serif;fill:#b3b3b3" id="text102" transform="translate(-2.8,3.3)" aria-label="1">
            <path id="path380" style="font-weight:bold;font-size:8.66667px;font-family:Roboto, sans-serif;fill:#b3b3b3" d="M 3.3896497,0 H 2.1666675 V -4.7141944 L 0.70670599,-4.2613948 V -5.2558613 L 3.2584647,-6.1699241 h 0.131185 z"/>
          </g>
        </g>
      </g>
      <g transform="rotate(-105.84,-8.5,-6.4238366)" id="g110">
        <path d="M 0,0 H 3" style="stroke:#b3b3b3;stroke-width:0.7" id="polyline108"/>
      </g>
      <g transform="rotate(-75.68,-8.5,-10.942351)" id="g114">
        <path d="M 0,0 H 3" style="stroke:#b3b3b3;stroke-width:0.7" id="polyline112"/>
      </g>
      <g transform="rotate(-50.26,-8.5,-18.120852)" id="g118">
        <path d="M 0,0 H 3" style="stroke:#b3b3b3;stroke-width:0.7" id="polyline116"/>
      </g>
      <g transform="rotate(-27.87,-8.5,-34.257154)" id="g124">
        <g transform="rotate(27.87,1.5,6.0453801)" id="g122">
          <g style="font-weight:bold;font-size:8.66667px;font-family:Roboto, sans-serif;fill:#b3b3b3" id="text120" transform="translate(-2.8,3.3)" aria-label="5">
            <path id="path386" style="font-weight:bold;font-size:8.66667px;font-family:Roboto, sans-serif;fill:#b3b3b3" d="M 0.60091168,-3.029949 0.95638056,-6.1614606 H 4.4095068 v 1.0198572 H 1.9593106 l -0.1523438,1.3245447 q 0.4358726,-0.2327475 0.9267582,-0.2327475 0.8802086,0 1.3795578,0.5458987 0.4993491,0.5458986 0.4993491,1.5276698 0,0.5966799 -0.2539063,1.07063841 -0.2496746,0.46972673 -0.7194013,0.73209662 -0.4697268,0.25813812 -1.1087244,0.25813812 -0.558594,0 -1.0367842,-0.22428394 Q 1.0156254,-0.3681642 0.7363284,-0.77864612 0.46126319,-1.189128 0.4443361,-1.7138678 H 1.654623 q 0.038086,0.3850913 0.2666017,0.6009117 0.2327474,0.21158858 0.6051434,0.21158858 0.4147137,0 0.6389976,-0.29622408 0.224284,-0.3004558 0.224284,-0.8463545 0,-0.5247397 -0.2581381,-0.8040367 -0.2581382,-0.279297 -0.7320967,-0.279297 -0.4358725,0 -0.7067059,0.2285157 L 1.5742193,-2.788738 Z"/>
          </g>
        </g>
      </g>
      <g transform="rotate(-7.62,-8.5,-127.63677)" id="g128">
        <path d="M 0,0 H 3" style="stroke:#b3b3b3;stroke-width:0.7" id="polyline126"/>
      </g>
      <g transform="rotate(11,-8.5,88.275875)" id="g132">
        <path d="M 0,0 H 3" style="stroke:#b3b3b3;stroke-width:0.7" id="polyline130"/>
      </g>
      <g transform="rotate(28.33,-8.5,33.678168)" id="g136">
        <path d="M 0,0 H 3" style="stroke:#b3b3b3;stroke-width:0.7" id="polyline134"/>
      </g>
      <g transform="rotate(44.6,-8.5,20.725142)" id="g140">
        <path d="M 0,0 H 3" style="stroke:#b3b3b3;stroke-width:0.7" id="polyline138"/>
      </g>
      <g transform="rotate(60,-8.5,14.722432)" id="g144">
        <path d="M 0,0 H 3" style="stroke:#b3b3b3;stroke-width:0.7" id="polyline142"/>
      </g>
    </g>
  </g>
  <g transform="translate(20.8,122)" id="g150"/>
  <g transform="translate(2.5,132.5)" id="g158">
    <g style="font-weight:bold;font-size:6.66667px;font-family:Roboto, sans-serif;letter-spacing:0.5px;fill:#b3b3b3" id="text154" transform="translate(0,6)" aria-label="RT">
      <path id="path371" style="font-weight:bold;font-size:6.66667px;font-family:Roboto, sans-serif;letter-spacing:0.5px;fill:#b3b3b3" d="M 2.1777354,-1.7350269 H 1.3997403 V 0 H 0.42317729 V -4.7395856 H 2.1842458 q 0.8398442,0 1.2955736,0.3743491 0.4557294,0.3743492 0.4557294,1.0579433 0,0.4850262 -0.2115887,0.8105472 -0.2083334,0.3222658 -0.6347659,0.5143232 l 1.0253911,1.93684986 V 0 H 3.0664077 Z M 1.3997403,-2.5260429 H 2.187501 q 0.3678388,0 0.5696618,-0.1855469 0.201823,-0.1888022 0.201823,-0.5175784 0,-0.3352866 -0.1920574,-0.527344 Q 2.5781262,-3.9485696 2.1842458,-3.9485696 H 1.3997403 Z"/>
      <path id="path373" style="font-weight:bold;font-size:6.66667px;font-family:Roboto, sans-serif;letter-spacing:0.5px;fill:#b3b3b3" d="M 8.5924517,-3.9485696 H 7.1406281 V 0 H 6.1640652 V -3.9485696 H 4.7317728 v -0.791016 h 3.8606789 z"/>
    </g>
    <g transform="translate(9.5,-1)" id="g156"/>
  </g>
  <g transform="translate(23.5,132.5)" id="g164">
    <g style="font-weight:bold;font-size:6.66667px;font-family:Roboto, sans-serif;letter-spacing:0.5px;fill:#b3b3b3" id="text160" transform="translate(0.3,6)" aria-label="LP">
      <path id="path366" style="font-weight:bold;font-size:6.66667px;font-family:Roboto, sans-serif;letter-spacing:0.5px;fill:#b3b3b3" d="M 1.3997403,-0.78450558 H 3.4733089 V 0 H 0.42317729 V -4.7395856 H 1.3997403 Z"/>
      <path id="path368" style="font-weight:bold;font-size:6.66667px;font-family:Roboto, sans-serif;letter-spacing:0.5px;fill:#b3b3b3" d="M 5.5065127,-1.6699227 V 0 h -0.976563 v -4.7395856 h 1.8489592 q 0.5338544,0 0.9375005,0.1953126 0.4069012,0.1953126 0.6250003,0.5566409 0.218099,0.3580731 0.218099,0.8170577 0,0.6966149 -0.4785158,1.1002609 -0.4752607,0.4003908 -1.31836,0.4003908 z m 0,-0.791016 h 0.8723962 q 0.38737,0 0.589193,-0.1822917 0.2050782,-0.1822918 0.2050782,-0.5208336 0,-0.3483075 -0.2050782,-0.5631513 Q 6.7630237,-3.9420592 6.4016954,-3.9485696 H 5.5065127 Z"/>
    </g>
    <g transform="translate(9.5,-1)" id="g162"/>
  </g>
  <g style="font-weight:bold;font-size:6.66667px;font-family:Roboto, sans-serif;letter-spacing:1.5px;fill:#b3b3b3" id="text168" aria-label="LIN">
    <path id="path359" style="font-weight:bold;font-size:6.66667px;font-family:Roboto, sans-serif;letter-spacing:1.5px;fill:#b3b3b3" d="m 11.39974,152.21549 h 2.073569 V 153 h -3.050132 v -4.73959 h 0.976563 z"/>
    <path id="path361" style="font-weight:bold;font-size:6.66667px;font-family:Roboto, sans-serif;letter-spacing:1.5px;fill:#b3b3b3" d="m 16.568362,153 h -0.976563 v -4.73959 h 0.976563 z"/>
    <path id="path363" style="font-weight:bold;font-size:6.66667px;font-family:Roboto, sans-serif;letter-spacing:1.5px;fill:#b3b3b3" d="m 22.824224,153 h -0.976563 l -1.901043,-3.11849 V 153 h -0.976563 v -4.73959 h 0.976563 l 1.904298,3.12501 v -3.12501 h 0.973308 z"/>
  </g>
  <g transform="translate(26,146)" id="g170"/>
  <g class="io-group" transform="translate(5.5,160.5)" id="g190">
    <path class="input-background-filler" d="M 0,0 H 34 V 10 H 0 Z" style="fill:#b3b3b3" transform="translate(0,98)" id="rect174"/>
    <path class="input-background" d="m 5,0 h 24 c 2.77,0 5,2.23 5,5 v 98 c 0,2.77 -2.23,5 -5,5 H 5 c -2.77,0 -5,-2.23 -5,-5 V 5 C 0,2.23 2.23,0 5,0 Z" style="fill:#b3b3b3" id="rect176"/>
    <g transform="translate(5,3)" id="g178"/>
    <g class="input-label" style="font-weight:bold;font-size:6.66667px;font-family:Roboto, sans-serif;letter-spacing:2px;fill:#666666" id="text180" transform="translate(6.5,35)" aria-label="TRIG">
      <path id="path326" style="font-weight:bold;font-size:6.66667px;font-family:Roboto, sans-serif;letter-spacing:2px;fill:#666666" d="M 3.9908873,-3.9485696 H 2.5390637 V 0 H 1.5625007 V -3.9485696 H 0.1302084 v -0.791016 h 3.8606789 z"/>
      <path id="path328" style="font-weight:bold;font-size:6.66667px;font-family:Roboto, sans-serif;letter-spacing:2px;fill:#666666" d="M 8.3053413,-1.7350269 H 7.5273462 V 0 h -0.976563 v -4.7395856 h 1.7610685 q 0.8398442,0 1.2955736,0.3743491 0.4557297,0.3743492 0.4557297,1.0579433 0,0.4850262 -0.211589,0.8105472 -0.2083334,0.3222658 -0.6347659,0.5143232 l 1.0253909,1.93684986 V 0 H 9.1940136 Z M 7.5273462,-2.5260429 H 8.315107 q 0.3678387,0 0.5696617,-0.1855469 0.201823,-0.1888022 0.201823,-0.5175784 0,-0.3352866 -0.1920574,-0.527344 Q 8.7057321,-3.9485696 8.3118517,-3.9485696 H 7.5273462 Z"/>
      <path id="path330" style="font-weight:bold;font-size:6.66667px;font-family:Roboto, sans-serif;letter-spacing:2px;fill:#666666" d="m 13.847009,0 h -0.976563 v -4.7395856 h 0.976563 z"/>
      <path id="path332" style="font-weight:bold;font-size:6.66667px;font-family:Roboto, sans-serif;letter-spacing:2px;fill:#666666" d="m 20.498704,-0.59895862 q -0.263672,0.31575536 -0.745443,0.49153669 -0.481771,0.17252613 -1.067709,0.17252613 -0.615234,0 -1.080729,-0.26692721 -0.46224,-0.27018242 -0.716146,-0.78125038 -0.250652,-0.51106791 -0.257162,-1.20117241 v -0.3222658 q 0,-0.7096358 0.23763,-1.2272141 0.240886,-0.5208336 0.690105,-0.7942713 0.452474,-0.2766928 1.057943,-0.2766928 0.843099,0 1.31836,0.403646 0.475261,0.4003909 0.563151,1.1686204 h -0.950521 q -0.0651,-0.4069013 -0.289714,-0.5957034 -0.221354,-0.1888022 -0.611979,-0.1888022 -0.498047,0 -0.758464,0.3743491 -0.260417,0.3743492 -0.263672,1.1132818 v 0.3027345 q 0,0.7454431 0.283203,1.1263027 0.283204,0.38085952 0.830079,0.38085952 0.55013,0 0.784505,-0.23437512 v -0.8170577 h -0.888672 v -0.7194014 h 1.865235 z"/>
    </g>
    <g transform="translate(5,38)" id="g182"/>
    <g class="input-label" style="font-weight:bold;font-size:6.66667px;font-family:Roboto, sans-serif;letter-spacing:1px;fill:#666666" id="text184" transform="translate(2,70)" aria-label="ATTACK">
      <path id="path335" style="font-weight:bold;font-size:6.66667px;font-family:Roboto, sans-serif;letter-spacing:1px;fill:#666666" d="M 3.0989598,-0.97656297 H 1.3867194 L 1.0611984,0 H 0.02278647 L 1.7871102,-4.7395856 H 2.6920586 L 4.466148,0 H 3.427736 Z M 1.6503914,-1.767579 H 2.8352878 L 2.2395844,-3.5416684 Z"/>
      <path id="path337" style="font-weight:bold;font-size:6.66667px;font-family:Roboto, sans-serif;letter-spacing:1px;fill:#666666" d="M 9.0924517,-3.9485696 H 7.6406281 V 0 H 6.6640652 V -3.9485696 H 5.2317728 v -0.791016 h 3.8606789 z"/>
      <path id="path339" style="font-weight:bold;font-size:6.66667px;font-family:Roboto, sans-serif;letter-spacing:1px;fill:#666666" d="M 14.272141,-3.9485696 H 12.820318 V 0 h -0.976563 v -3.9485696 h -1.432293 v -0.791016 h 3.860679 z"/>
      <path id="path341" style="font-weight:bold;font-size:6.66667px;font-family:Roboto, sans-serif;letter-spacing:1px;fill:#666666" d="m 18.117194,-0.97656297 h -1.71224 L 16.079433,0 h -1.038412 l 1.764323,-4.7395856 h 0.904949 L 19.484382,0 H 18.44597 Z M 16.668626,-1.767579 h 1.184896 l -0.595703,-1.7740894 z"/>
      <path id="path343" style="font-weight:bold;font-size:6.66667px;font-family:Roboto, sans-serif;letter-spacing:1px;fill:#666666" d="m 24.589202,-1.5787768 q -0.05534,0.76497433 -0.566406,1.20442766 -0.507813,0.43945334 -1.341147,0.43945334 -0.911458,0 -1.435547,-0.61197946 Q 20.725268,-1.1621099 20.725268,-2.233074 v -0.2897137 q 0,-0.683594 0.240886,-1.2044276 0.240885,-0.5208336 0.686849,-0.7975264 0.449219,-0.2799481 1.041667,-0.2799481 0.820313,0 1.321615,0.4394533 0.501303,0.4394534 0.579428,1.2337246 H 23.61915 q -0.03581,-0.4589846 -0.257162,-0.6640628 -0.218099,-0.2083335 -0.667318,-0.2083335 -0.488281,0 -0.732422,0.3515627 -0.240886,0.3483075 -0.247396,1.0839849 v 0.3580731 q 0,0.7682295 0.23112,1.1230474 0.234375,0.35481788 0.735677,0.35481788 0.452474,0 0.673829,-0.20507823 0.224609,-0.20833345 0.257161,-0.64127635 z"/>
      <path id="path345" style="font-weight:bold;font-size:6.66667px;font-family:Roboto, sans-serif;letter-spacing:1px;fill:#666666" d="m 27.714854,-1.9010426 -0.507813,0.5468753 V 0 h -0.976563 v -4.7395856 h 0.976563 v 2.1484385 l 0.429688,-0.589193 1.207682,-1.5592455 h 1.201173 L 28.36264,-2.6334648 30.094412,0 h -1.16211 z"/>
    </g>
    <g transform="translate(5,73)" id="g186"/>
    <g class="input-label" style="font-weight:bold;font-size:6.66667px;font-family:Roboto, sans-serif;letter-spacing:2px;fill:#666666" id="text188" transform="translate(2.5,105)" aria-label="DECAY">
      <path id="path348" style="font-weight:bold;font-size:6.66667px;font-family:Roboto, sans-serif;letter-spacing:2px;fill:#666666" d="M 0.42317729,0 V -4.7395856 H 1.8815113 q 0.6250003,0 1.116537,0.2832033 0.4947919,0.279948 0.7714847,0.8007816 0.2766929,0.5175784 0.2766929,1.178386 v 0.218099 q 0,0.6608076 -0.2734376,1.1751308 Q 3.5026058,-0.56966173 3.0078139,-0.28645847 2.513022,-0.00325521 1.8912769,0 Z M 1.3997403,-3.9485696 v 3.16406402 h 0.4720054 q 0.5729169,0 0.8756514,-0.37434912 0.3027346,-0.3743492 0.309245,-1.0709641 v -0.2506511 q 0,-0.7226566 -0.2994793,-1.0937506 -0.2994793,-0.3743491 -0.8756515,-0.3743491 z"/>
      <path id="path350" style="font-weight:bold;font-size:6.66667px;font-family:Roboto, sans-serif;letter-spacing:2px;fill:#666666" d="M 9.6106806,-2.0540374 H 7.7356797 v 1.26953182 H 9.9362015 V 0 H 6.7591167 v -4.7395856 h 3.1705744 v 0.791016 H 7.7356797 v 1.1295578 h 1.8750009 z"/>
      <path id="path352" style="font-weight:bold;font-size:6.66667px;font-family:Roboto, sans-serif;letter-spacing:2px;fill:#666666" d="m 16.229823,-1.5787768 q -0.05534,0.76497433 -0.566406,1.20442766 -0.507813,0.43945334 -1.341146,0.43945334 -0.911459,0 -1.435548,-0.61197946 Q 12.365889,-1.1621099 12.365889,-2.233074 v -0.2897137 q 0,-0.683594 0.240886,-1.2044276 0.240885,-0.5208336 0.686849,-0.7975264 0.449219,-0.2799481 1.041667,-0.2799481 0.820313,0 1.321616,0.4394533 0.501302,0.4394534 0.579427,1.2337246 h -0.976563 q -0.03581,-0.4589846 -0.257162,-0.6640628 -0.218099,-0.2083335 -0.667318,-0.2083335 -0.488281,0 -0.732422,0.3515627 -0.240885,0.3483075 -0.247396,1.0839849 v 0.3580731 q 0,0.7682295 0.23112,1.1230474 0.234375,0.35481788 0.735678,0.35481788 0.452474,0 0.673828,-0.20507823 0.224609,-0.20833345 0.257162,-0.64127635 z"/>
      <path id="path354" style="font-weight:bold;font-size:6.66667px;font-family:Roboto, sans-serif;letter-spacing:2px;fill:#666666" d="M 21.546882,-0.97656297 H 19.834641 L 19.50912,0 h -1.038412 l 1.764324,-4.7395856 H 21.13998 L 22.91407,0 H 21.875658 Z M 20.098313,-1.767579 h 1.184897 l -0.595704,-1.7740894 z"/>
      <path id="path356" style="font-weight:bold;font-size:6.66667px;font-family:Roboto, sans-serif;letter-spacing:2px;fill:#666666" d="m 26.515634,-2.6041679 0.986329,-2.1354177 h 1.067709 l -1.555991,3.0208348 V 0 h -0.992839 v -1.7187508 l -1.55599,-3.0208348 h 1.070964 z"/>
    </g>
  </g>
  <g class="io-group" transform="translate(5.5,271.5)" id="g204">
    <path class="output-background-filler" d="M 0,0 H 34 V 10 H 0 Z" style="fill:#888888" transform="translate(0,-3)" id="rect192"/>
    <path class="output-background" d="m 5,0 h 24 c 2.77,0 5,2.23 5,5 v 60 c 0,2.77 -2.23,5 -5,5 H 5 C 2.23,70 0,67.77 0,65 V 5 C 0,2.23 2.23,0 5,0 Z" style="fill:#888888" id="rect194"/>
    <g transform="translate(5)" id="g196"/>
    <g class="output-label" style="font-weight:bold;font-size:6.66667px;font-family:Roboto, sans-serif;letter-spacing:2px;fill:#cccccc" id="text198" transform="translate(8.5,32)" aria-label="ENV">
      <path id="path310" style="font-weight:bold;font-size:6.66667px;font-family:Roboto, sans-serif;letter-spacing:2px;fill:#cccccc" d="M 3.2747411,-2.0540374 H 1.3997403 v 1.26953182 H 3.6002621 V 0 H 0.42317729 V -4.7395856 H 3.5937517 v 0.791016 H 1.3997403 v 1.1295578 h 1.8750008 z"/>
      <path id="path312" style="font-weight:bold;font-size:6.66667px;font-family:Roboto, sans-serif;letter-spacing:2px;fill:#cccccc" d="M 10.027348,0 H 9.0507847 L 7.1497422,-3.1184911 V 0 h -0.976563 v -4.7395856 h 0.976563 l 1.9042977,3.1250015 v -3.1250015 h 0.9733081 z"/>
      <path id="path314" style="font-weight:bold;font-size:6.66667px;font-family:Roboto, sans-serif;letter-spacing:2px;fill:#cccccc" d="m 14.638026,-1.1751308 1.074219,-3.5644548 h 1.08724 L 15.149094,0 h -1.018881 l -1.643881,-4.7395856 h 1.083985 z"/>
    </g>
    <g transform="translate(5,35)" id="g200"/>
    <g class="output-label" style="font-weight:bold;font-size:6.66667px;font-family:Roboto, sans-serif;letter-spacing:2px;fill:#cccccc" id="text202" transform="translate(8.5,67)" aria-label="EOC">
      <path id="path317" style="font-weight:bold;font-size:6.66667px;font-family:Roboto, sans-serif;letter-spacing:2px;fill:#cccccc" d="M 3.2747411,-2.0540374 H 1.3997403 v 1.26953182 H 3.6002621 V 0 H 0.42317729 V -4.7395856 H 3.5937517 v 0.791016 H 1.3997403 v 1.1295578 h 1.8750008 z"/>
      <path id="path319" style="font-weight:bold;font-size:6.66667px;font-family:Roboto, sans-serif;letter-spacing:2px;fill:#cccccc" d="m 10.06641,-2.2623709 q 0,0.6998702 -0.2473957,1.2272142 -0.247396,0.52734396 -0.7096358,0.81380243 -0.4589846,0.28645847 -1.054688,0.28645847 -0.589193,0 -1.0514328,-0.28320326 Q 6.5410179,-0.50130232 6.2871115,-1.0253911 6.0332052,-1.5527351 6.02995,-2.2363292 v -0.2343751 q 0,-0.6998701 0.2506511,-1.2304693 0.2539064,-0.5338545 0.712891,-0.8170577 0.4622398,-0.2864585 1.054688,-0.2864585 0.5924482,0 1.0514328,0.2864585 0.4622398,0.2832032 0.7128909,0.8170577 0.2539062,0.5305992 0.2539062,1.2272141 z M 9.0768264,-2.4772147 q 0,-0.7454431 -0.2669272,-1.1328131 -0.2669272,-0.3873699 -0.7617191,-0.3873699 -0.4915367,0 -0.7584639,0.3841147 -0.2669272,0.3808596 -0.2701824,1.1197922 v 0.2311199 q 0,0.7259118 0.2669272,1.1263026 0.2669272,0.40039087 0.7682295,0.40039087 0.4915367,0 0.7552087,-0.38411477 0.263672,-0.38737 0.2669272,-1.1263026 z"/>
      <path id="path321" style="font-weight:bold;font-size:6.66667px;font-family:Roboto, sans-serif;letter-spacing:2px;fill:#cccccc" d="m 16.503261,-1.5787768 q -0.05534,0.76497433 -0.566407,1.20442766 -0.507812,0.43945334 -1.341146,0.43945334 -0.911459,0 -1.435548,-0.61197946 Q 12.639327,-1.1621099 12.639327,-2.233074 v -0.2897137 q 0,-0.683594 0.240885,-1.2044276 0.240886,-0.5208336 0.68685,-0.7975264 0.449219,-0.2799481 1.041667,-0.2799481 0.820313,0 1.321615,0.4394533 0.501302,0.4394534 0.579427,1.2337246 h -0.976563 q -0.03581,-0.4589846 -0.257161,-0.6640628 -0.218099,-0.2083335 -0.667318,-0.2083335 -0.488282,0 -0.732422,0.3515627 -0.240886,0.3483075 -0.247396,1.0839849 v 0.3580731 q 0,0.7682295 0.23112,1.1230474 0.234375,0.35481788 0.735677,0.35481788 0.452474,0 0.673828,-0.20507823 0.22461,-0.20833345 0.257162,-0.64127635 z"/>
    </g>
  </g>
</svg>
