<?xml version="1.0" encoding="UTF-8" standalone="no"?>
<svg xmlns:dc="http://purl.org/dc/elements/1.1/" xmlns:cc="http://creativecommons.org/ns#" xmlns:rdf="http://www.w3.org/1999/02/22-rdf-syntax-ns#" xmlns:svg="http://www.w3.org/2000/svg" xmlns="http://www.w3.org/2000/svg" xmlns:sodipodi="http://sodipodi.sourceforge.net/DTD/sodipodi-0.dtd" xmlns:inkscape="http://www.inkscape.org/namespaces/inkscape" inkscape:version="1.0 (4035a4f, 2020-05-01)" sodipodi:docname="svg_render_AddrSeq-lowcontrast-pp.svg" id="svg1677" viewBox="0 0 90.0 380.0" height="380.0" width="90.0" version="1.1">
  <metadata id="metadata1683">
    <rdf:RDF>
      <cc:Work rdf:about="">
        <dc:format>image/svg+xml</dc:format>
        <dc:type rdf:resource="http://purl.org/dc/dcmitype/StillImage"/>
      </cc:Work>
    </rdf:RDF>
  </metadata>
  <defs id="defs1681"/>
  <sodipodi:namedview inkscape:current-layer="svg1677" inkscape:window-maximized="0" inkscape:window-y="23" inkscape:window-x="0" inkscape:cy="190" inkscape:cx="45" inkscape:zoom="1.7605263" showgrid="false" id="namedview1679" inkscape:window-height="480" inkscape:window-width="689" inkscape:pageshadow="2" inkscape:pageopacity="0" guidetolerance="10" gridtolerance="10" objecttolerance="10" borderopacity="1" bordercolor="#666666" pagecolor="#ffffff"/>
  
  <path class="module-background background-fill" d="M 0,0 H 90 V 380 H 0 Z" style="fill:#333333" id="rect1149"/>
  <path class="module-border-inner" d="M 1,1 H 89 V 379 H 1 V 1" style="fill:none;stroke:#191919;stroke-width:0.5" id="polyline1151"/>
  <path class="module-border-middle" d="m 0.5,0.5 h 89 v 379 H 0.5 V 0.5" style="fill:none;stroke:#111111;stroke-width:0.8" id="polyline1153"/>
  <path class="module-border-outer" d="M 0,0 H 90 V 380 H 0 V 0" style="fill:none;stroke:#000000;stroke-width:1" id="polyline1155"/>
  <g class="title" style="font-weight:normal;font-size:12px;font-family:Comfortaa, sans-serif;letter-spacing:0.5px;text-anchor:end;fill:#b3b3b3" id="text1157" transform="translate(85.0 17)" aria-label="ADDR-SEQ">
    <path id="path2271" style="font-weight:normal;font-size:12px;font-family:Comfortaa, sans-serif;letter-spacing:0.5px;text-anchor:end;fill:#b3b3b3" d="m -61.572687,-0.66 q 0.048,0.084 0.048,0.192 0,0.192 -0.144,0.336 -0.132,0.132 -0.324001,0.132 -0.311999,0 -0.443999,-0.288 l -0.804,-1.944 h -4.644 l -0.804,1.944 Q -68.784688,0 -69.120688,0 q -0.203999,0 -0.335999,-0.132 -0.120001,-0.144 -0.120001,-0.336 0,-0.12 0.036,-0.204 l 3.528001,-8.376 q 0.132,-0.324 0.456,-0.324 0.324,0 0.444,0.324 z m -1.992,-2.376 -1.992,-4.812 -1.992,4.812 z"/>
    <path id="path2273" style="font-weight:normal;font-size:12px;font-family:Comfortaa, sans-serif;letter-spacing:0.5px;text-anchor:end;fill:#b3b3b3" d="m -59.199187,0 q -0.204001,0 -0.336,-0.132 -0.132,-0.132 -0.132,-0.336 v -8.436 q 0,-0.204 0.132,-0.336 0.131999,-0.132 0.336,-0.132 h 2.16 q 1.355999,0 2.424,0.6 1.068,0.6 1.656,1.668 0.599999,1.056 0.599999,2.412 0,1.356 -0.599999,2.424 -0.588,1.068 -1.656,1.668 -1.068001,0.6 -2.424,0.6 z m 2.16,-0.84 q 1.092,0 1.943999,-0.492 0.852001,-0.504 1.332001,-1.38 0.48,-0.876 0.48,-1.98 0,-1.104 -0.48,-1.98 -0.48,-0.876 -1.332001,-1.368 -0.851999,-0.492 -1.943999,-0.492 h -1.692 v 7.692 z"/>
    <path id="path2275" style="font-weight:normal;font-size:12px;font-family:Comfortaa, sans-serif;letter-spacing:0.5px;text-anchor:end;fill:#b3b3b3" d="m -49.464812,0 q -0.204001,0 -0.336,-0.132 -0.132,-0.132 -0.132,-0.336 v -8.436 q 0,-0.204 0.132,-0.336 0.131999,-0.132 0.336,-0.132 h 2.16 q 1.355999,0 2.424,0.6 1.068,0.6 1.656,1.668 0.599999,1.056 0.599999,2.412 0,1.356 -0.599999,2.424 -0.588,1.068 -1.656,1.668 -1.068001,0.6 -2.424,0.6 z m 2.16,-0.84 q 1.092,0 1.943999,-0.492 0.852001,-0.504 1.332001,-1.38 0.48,-0.876 0.48,-1.98 0,-1.104 -0.48,-1.98 -0.48,-0.876 -1.332001,-1.368 -0.851999,-0.492 -1.943999,-0.492 h -1.692 v 7.692 z"/>
    <path id="path2277" style="font-weight:normal;font-size:12px;font-family:Comfortaa, sans-serif;letter-spacing:0.5px;text-anchor:end;fill:#b3b3b3" d="m -34.342438,-0.72 q 0.108001,0.18 0.108001,0.324 0,0.18 -0.132001,0.288 -0.132,0.108 -0.348,0.108 -0.143999,0 -0.239999,-0.06 -0.096,-0.06 -0.168001,-0.18 l -2.159999,-3.432 h -0.204 -1.776 v 3.204 q 0,0.204 -0.132001,0.336 Q -39.526437,0 -39.730437,0 q -0.204001,0 -0.336,-0.132 -0.132,-0.132 -0.132,-0.336 v -8.436 q 0,-0.204 0.132,-0.336 0.131999,-0.132 0.336,-0.132 h 2.244 q 0.875999,0 1.56,0.372 0.684,0.36 1.068,1.02 0.396,0.66 0.396,1.5 0,0.924 -0.504,1.62 -0.492001,0.696 -1.344,0.996 z m -3.143999,-3.852 q 0.6,0 1.08,-0.24 0.492,-0.252 0.755999,-0.684 0.276001,-0.432 0.276001,-0.984 0,-0.576 -0.276001,-1.032 -0.263999,-0.456 -0.744,-0.708 -0.479999,-0.252 -1.091999,-0.252 h -1.776 v 3.9 z"/>
    <path id="path2279" style="font-weight:normal;font-size:12px;font-family:Comfortaa, sans-serif;letter-spacing:0.5px;text-anchor:end;fill:#b3b3b3" d="m -32.580187,-2.82 q -0.192,0 -0.324,-0.132 -0.132,-0.132 -0.132,-0.324 0,-0.204 0.12,-0.336 0.131999,-0.132 0.336,-0.132 h 2.82 q 0.204,0 0.336,0.132 0.132,0.132 0.132,0.336 0,0.192 -0.132,0.324 -0.132,0.132 -0.336,0.132 z"/>
    <path id="path2281" style="font-weight:normal;font-size:12px;font-family:Comfortaa, sans-serif;letter-spacing:0.5px;text-anchor:end;fill:#b3b3b3" d="m -24.224688,0.12 q -1.139999,0 -2.027999,-0.48 -0.876,-0.492 -1.26,-1.32 -0.048,-0.084 -0.048,-0.192 0,-0.168 0.12,-0.276 0.131999,-0.12 0.348,-0.12 0.144,0 0.264,0.084 0.132,0.072 0.192,0.216 0.276,0.54 0.911999,0.876 0.648001,0.324 1.5,0.324 0.984001,0 1.584001,-0.468 0.6,-0.48 0.6,-1.332 0,-0.756 -0.564,-1.272 -0.552,-0.516 -1.668,-0.66 -1.392,-0.168 -2.196001,-0.864 -0.791999,-0.708 -0.791999,-1.728 0,-0.72 0.384,-1.26 0.395999,-0.552 1.08,-0.84 0.696,-0.3 1.571999,-0.3 0.948,0 1.668001,0.42 0.72,0.42 1.128,1.092 0.084,0.132 0.084,0.288 0,0.228 -0.216,0.36 -0.096,0.048 -0.216001,0.048 -0.131999,0 -0.251999,-0.06 -0.108,-0.072 -0.18,-0.192 -0.672,-1.056 -2.028,-1.068 -0.972,0 -1.536,0.408 -0.564,0.408 -0.564,1.164 0,1.404 2.268,1.704 1.488,0.216 2.22,0.912 0.732,0.696 0.732,1.836 0,0.84 -0.408,1.452 -0.408,0.612 -1.116,0.936 -0.708,0.312 -1.584001,0.312 z"/>
    <path id="path2283" style="font-weight:normal;font-size:12px;font-family:Comfortaa, sans-serif;letter-spacing:0.5px;text-anchor:end;fill:#b3b3b3" d="m -18.191375,0 q -0.192,0 -0.336,-0.132 -0.132,-0.144 -0.132,-0.336 v -8.436 q 0,-0.204 0.132,-0.336 0.144,-0.132 0.336,-0.132 h 5.628 q 0.204,0 0.336,0.132 0.132,0.132 0.132,0.324 0,0.192 -0.132,0.324 -0.132,0.12 -0.336,0.12 h -5.16 v 3.312 h 3.756 q 0.204,0 0.336,0.132 0.132,0.132 0.132,0.324 0,0.192 -0.144,0.324 -0.132,0.132 -0.324,0.132 h -3.756 V -0.9 h 5.16 q 0.204,0 0.336,0.132 0.132,0.12 0.132,0.312 0,0.192 -0.132,0.324 -0.132,0.132 -0.336,0.132 z"/>
    <path id="path2285" style="font-weight:normal;font-size:12px;font-family:Comfortaa, sans-serif;letter-spacing:0.5px;text-anchor:end;fill:#b3b3b3" d="m -1.3545,-0.78 q 0.132,0.132 0.132,0.312 0,0.192 -0.132,0.324 Q -1.4985,0 -1.6785,0 q -0.18,0 -0.324,-0.144 l -0.636,-0.636 q -0.6,0.432 -1.344,0.672 -0.732,0.228 -1.548,0.228 -1.368,0 -2.46,-0.624 -1.092,-0.624 -1.716,-1.716 -0.612,-1.104 -0.612,-2.472 0,-1.368 0.612,-2.46 0.624,-1.092 1.716,-1.716 1.092,-0.624 2.46,-0.624 1.356,0 2.448,0.624 1.104,0.624 1.716,1.716 0.624,1.092 0.624,2.46 0,0.972 -0.324,1.824 -0.312,0.84 -0.9,1.476 z m -4.176,0.012 q 1.272,0 2.22,-0.672 l -1.284,-1.284 q -0.144,-0.144 -0.144,-0.324 0,-0.18 0.144,-0.324 0.132,-0.132 0.312,-0.132 0.192,0 0.324,0.132 l 1.332,1.332 q 0.456,-0.528 0.708,-1.212 0.252,-0.684 0.252,-1.44 0,-1.092 -0.504,-1.98 -0.504,-0.9 -1.392,-1.416 -0.876,-0.516 -1.968,-0.516 -1.104,0 -1.992,0.516 -0.876,0.516 -1.38,1.416 -0.504,0.888 -0.504,1.98 0,1.104 0.504,2.004 0.504,0.888 1.38,1.404 0.888,0.516 1.992,0.516 z"/>
  </g>
  <g class="brand" style="font-weight:bold;font-size:8.66667px;font-family:Audiowide, sans-serif;letter-spacing:2px;fill:#b3b3b3" id="text1159" aria-label="BOGAUDIO">
    <path id="path2254" style="font-weight:bold;font-size:8.66667px;font-family:Audiowide, sans-serif;letter-spacing:2px;fill:#b3b3b3" d="m 12.194664,372.66699 q 0,0.20313 -0.07194,0.43587 -0.06771,0.23275 -0.228516,0.43165 -0.156576,0.19889 -0.410482,0.33431 Q 11.22982,374 10.861656,374 H 6.6848963 q -0.1184897,0 -0.2200522,-0.0423 -0.1015625,-0.0423 -0.1777344,-0.11426 -0.07194,-0.0762 -0.1142579,-0.17773 -0.042318,-0.10156 -0.042318,-0.22005 V 368.486 q 0,-0.11426 0.042318,-0.21582 0.042318,-0.10156 0.1142579,-0.17773 0.076172,-0.0762 0.1777344,-0.11849 0.1015625,-0.0423 0.2200522,-0.0423 h 3.6816417 q 0.203125,0 0.435873,0.0719 0.232747,0.0719 0.431641,0.23275 0.203125,0.15657 0.33431,0.41048 0.135416,0.2539 0.135416,0.62207 v 0.20736 q 0,0.29199 -0.09733,0.63053 -0.09733,0.33431 -0.313152,0.63477 0.186198,0.11425 0.347006,0.27506 0.165039,0.16081 0.28776,0.3724 0.122722,0.21159 0.194662,0.47819 0.07194,0.2666 0.07194,0.58821 z m -1.100261,-0.21159 q 0,-0.21582 -0.06771,-0.38509 -0.06771,-0.1735 -0.19043,-0.29622 -0.122721,-0.12272 -0.296224,-0.1862 -0.173503,-0.0677 -0.389323,-0.0677 H 7.6708992 v -1.10872 h 1.9847013 q 0.2158204,0 0.3893235,-0.0635 0.173502,-0.0677 0.296224,-0.19043 0.122721,-0.12272 0.186198,-0.29199 0.06771,-0.1735 0.06771,-0.38932 v -0.20736 q 0,-0.23698 -0.228516,-0.23698 H 7.2307949 v 3.86784 h 3.6308611 q 0.02962,0 0.07194,-0.004 0.04232,-0.004 0.07617,-0.0254 0.03385,-0.0212 0.05924,-0.0719 0.02539,-0.0508 0.02539,-0.13965 z"/>
    <path id="path2256" style="font-weight:bold;font-size:8.66667px;font-family:Audiowide, sans-serif;letter-spacing:2px;fill:#b3b3b3" d="m 21.515629,371.54557 q 0,0.55436 -0.190429,1.01986 -0.19043,0.46549 -0.528972,0.80404 -0.338542,0.33854 -0.804037,0.52897 -0.461263,0.1862 -1.007161,0.1862 h -1.489584 q -0.545899,0 -1.011394,-0.1862 -0.465495,-0.19043 -0.804037,-0.52897 -0.338541,-0.33855 -0.533203,-0.80404 -0.19043,-0.4655 -0.19043,-1.01986 v -1.1595 q 0,-0.55013 0.19043,-1.01563 0.194662,-0.46973 0.533203,-0.80404 0.338542,-0.33854 0.804037,-0.52897 0.465495,-0.19043 1.011394,-0.19043 h 1.489584 q 0.545898,0 1.007161,0.19043 0.465495,0.19043 0.804037,0.52897 0.338542,0.33431 0.528972,0.80404 0.190429,0.4655 0.190429,1.01563 z m -1.10026,-1.1595 q 0,-0.32585 -0.105795,-0.58822 -0.101562,-0.2666 -0.291992,-0.4528 -0.186198,-0.19043 -0.4528,-0.29199 -0.262369,-0.1058 -0.579752,-0.1058 h -1.489584 q -0.321615,0 -0.588217,0.1058 -0.26237,0.10156 -0.452799,0.29199 -0.19043,0.1862 -0.296224,0.4528 -0.101563,0.26237 -0.101563,0.58822 v 1.1595 q 0,0.32585 0.101563,0.59245 0.105794,0.26237 0.296224,0.4528 0.190429,0.1862 0.452799,0.29199 0.266602,0.10156 0.588217,0.10156 h 1.48112 q 0.321615,0 0.583985,-0.10156 0.266601,-0.10579 0.457031,-0.29199 0.19043,-0.19043 0.291992,-0.4528 0.105795,-0.2666 0.105795,-0.59245 z"/>
    <path id="path2258" style="font-weight:bold;font-size:8.66667px;font-family:Audiowide, sans-serif;letter-spacing:2px;fill:#b3b3b3" d="m 30.599618,373.44564 q 0,0.11849 -0.04232,0.22005 -0.04232,0.10156 -0.11849,0.17773 -0.07194,0.0719 -0.173502,0.11426 Q 30.163745,374 30.045255,374 h -3.969402 q -0.152344,0 -0.330078,-0.0338 -0.173503,-0.0381 -0.347006,-0.11426 -0.169271,-0.0762 -0.325846,-0.19466 -0.156576,-0.12272 -0.279297,-0.292 -0.11849,-0.1735 -0.19043,-0.39778 -0.07194,-0.22852 -0.07194,-0.51205 v -2.97916 q 0,-0.15235 0.03385,-0.32585 0.03809,-0.17774 0.114258,-0.34701 0.07617,-0.1735 0.198893,-0.33007 0.122722,-0.15658 0.291993,-0.27507 0.173502,-0.12272 0.397786,-0.19466 0.224284,-0.0719 0.507813,-0.0719 h 4.472983 v 1.10026 h -4.472983 q -0.215821,0 -0.330078,0.11426 -0.114258,0.11425 -0.114258,0.33854 v 2.9707 q 0,0.21159 0.114258,0.33008 0.118489,0.11426 0.330078,0.11426 h 3.423504 v -1.37956 H 26.57097 v -1.10872 h 3.474285 q 0.11849,0 0.220053,0.0466 0.101562,0.0423 0.173502,0.11849 0.07617,0.0762 0.11849,0.17773 0.04232,0.0973 0.04232,0.21159 z"/>
    <path id="path2260" style="font-weight:bold;font-size:8.66667px;font-family:Audiowide, sans-serif;letter-spacing:2px;fill:#b3b3b3" d="m 39.708996,374 h -1.100261 v -1.48958 h -3.86784 V 374 h -1.100261 v -3.03418 q 0,-0.66439 0.228516,-1.22298 0.228516,-0.5586 0.634766,-0.96062 0.40625,-0.40201 0.960612,-0.6263 0.554362,-0.22428 1.210287,-0.22428 h 2.479819 q 0.114257,0 0.21582,0.0423 0.101562,0.0423 0.177734,0.11849 0.07617,0.0762 0.11849,0.17773 0.04232,0.10156 0.04232,0.21582 z m -4.968101,-2.58984 h 3.86784 v -2.37826 h -1.93392 q -0.05078,0 -0.21582,0.0169 -0.160808,0.0127 -0.376628,0.0719 -0.211589,0.0592 -0.448568,0.18196 -0.236979,0.12272 -0.435873,0.33854 -0.198893,0.21582 -0.330078,0.54167 -0.126953,0.32162 -0.126953,0.78288 z"/>
    <path id="path2262" style="font-weight:bold;font-size:8.66667px;font-family:Audiowide, sans-serif;letter-spacing:2px;fill:#b3b3b3" d="m 48.928399,373.44564 q 0,0.11849 -0.04232,0.22005 -0.04232,0.10156 -0.11849,0.17773 -0.07617,0.0719 -0.177735,0.11426 Q 48.488295,374 48.374037,374 h -2.479819 q -0.351237,0 -0.710937,-0.0762 -0.359701,-0.0762 -0.698243,-0.23275 -0.33431,-0.16081 -0.630534,-0.40625 -0.296224,-0.24544 -0.520508,-0.57975 -0.220052,-0.33854 -0.347005,-0.77018 -0.126953,-0.43588 -0.126953,-0.96908 v -3.03418 h 1.10026 v 3.03418 q 0,0.46549 0.126954,0.78711 0.131185,0.32161 0.330078,0.53743 0.198893,0.21582 0.435872,0.33855 0.23698,0.12272 0.448568,0.18196 0.215821,0.0592 0.376628,0.0762 0.165039,0.0127 0.21582,0.0127 h 1.93392 v -4.9681 h 1.100261 z"/>
    <path id="path2264" style="font-weight:bold;font-size:8.66667px;font-family:Audiowide, sans-serif;letter-spacing:2px;fill:#b3b3b3" d="m 58.266292,371.46094 q 0,0.55436 -0.194661,1.01985 -0.19043,0.4655 -0.528972,0.80404 -0.338541,0.33431 -0.804036,0.52474 Q 56.273128,374 55.727229,374 h -2.970704 q -0.11849,0 -0.220052,-0.0423 -0.101563,-0.0423 -0.177735,-0.11426 -0.07194,-0.0762 -0.114258,-0.17773 -0.04232,-0.10156 -0.04232,-0.22005 V 368.486 q 0,-0.11426 0.04232,-0.21582 0.04232,-0.10156 0.114258,-0.17773 0.07617,-0.0762 0.177735,-0.11849 0.101562,-0.0423 0.220052,-0.0423 h 2.970704 q 0.545899,0 1.011394,0.19043 0.465495,0.19043 0.804036,0.52897 0.338542,0.33431 0.528972,0.80404 0.194661,0.46549 0.194661,1.01562 z m -1.10026,-0.99024 q 0,-0.32161 -0.105795,-0.58821 -0.101562,-0.26661 -0.291992,-0.4528 -0.19043,-0.19043 -0.457031,-0.292 -0.26237,-0.10579 -0.583985,-0.10579 h -2.424806 v 3.86784 h 2.424806 q 0.321615,0 0.583985,-0.10156 0.266601,-0.1058 0.457031,-0.292 0.19043,-0.19043 0.291992,-0.4528 0.105795,-0.2666 0.105795,-0.59244 z"/>
    <path id="path2266" style="font-weight:bold;font-size:8.66667px;font-family:Audiowide, sans-serif;letter-spacing:2px;fill:#b3b3b3" d="M 62.462581,374 H 61.36232 v -6.06836 h 1.100261 z"/>
    <path id="path2268" style="font-weight:bold;font-size:8.66667px;font-family:Audiowide, sans-serif;letter-spacing:2px;fill:#b3b3b3" d="m 72.126322,371.54557 q 0,0.55436 -0.190429,1.01986 -0.19043,0.46549 -0.528972,0.80404 -0.338542,0.33854 -0.804037,0.52897 -0.461263,0.1862 -1.007161,0.1862 h -1.489584 q -0.545899,0 -1.011394,-0.1862 -0.465495,-0.19043 -0.804037,-0.52897 -0.338541,-0.33855 -0.533203,-0.80404 -0.19043,-0.4655 -0.19043,-1.01986 v -1.1595 q 0,-0.55013 0.19043,-1.01563 0.194662,-0.46973 0.533203,-0.80404 0.338542,-0.33854 0.804037,-0.52897 0.465495,-0.19043 1.011394,-0.19043 h 1.489584 q 0.545898,0 1.007161,0.19043 0.465495,0.19043 0.804037,0.52897 0.338542,0.33431 0.528972,0.80404 0.190429,0.4655 0.190429,1.01563 z m -1.10026,-1.1595 q 0,-0.32585 -0.105795,-0.58822 -0.101562,-0.2666 -0.291992,-0.4528 -0.186198,-0.19043 -0.4528,-0.29199 -0.26237,-0.1058 -0.579752,-0.1058 h -1.489584 q -0.321615,0 -0.588217,0.1058 -0.26237,0.10156 -0.452799,0.29199 -0.19043,0.1862 -0.296224,0.4528 -0.101563,0.26237 -0.101563,0.58822 v 1.1595 q 0,0.32585 0.101563,0.59245 0.105794,0.26237 0.296224,0.4528 0.190429,0.1862 0.452799,0.29199 0.266602,0.10156 0.588217,0.10156 h 1.48112 q 0.321615,0 0.583985,-0.10156 0.266601,-0.10579 0.457031,-0.29199 0.19043,-0.19043 0.291992,-0.4528 0.105795,-0.2666 0.105795,-0.59245 z"/>
  </g>
  <path class="background-fill" d="M 26.5,370 H 28 v 2 h -1.5 z" style="fill:#333333" id="rect1161"/>
  <path class="input-background" d="m 11.5,32 h 24 c 2.77,0 5,2.23 5,5 v 29 c 0,2.77 -2.23,5 -5,5 h -24 c -2.77,0 -5,-2.23 -5,-5 V 37 c 0,-2.77 2.23,-5 5,-5 z" style="fill:#b3b3b3" id="rect1165"/>
  <path class="input-background-filler" d="m 6.5,62 h 34 v 10 h -34 z" style="fill:#b3b3b3" id="rect1167"/>
  <g transform="translate(11.5,35)" id="g1169"/>
  <g class="input-label" style="font-weight:bold;font-size:6.66667px;font-family:Roboto, sans-serif;letter-spacing:1px;fill:#666666" id="text1171" aria-label="CLOCK">
    <path id="path2240" style="font-weight:bold;font-size:6.66667px;font-family:Roboto, sans-serif;letter-spacing:1px;fill:#666666" d="m 14.643882,65.421223 q -0.05534,0.764975 -0.566406,1.204428 -0.507813,0.439453 -1.341147,0.439453 -0.911459,0 -1.435547,-0.611979 -0.520834,-0.615235 -0.520834,-1.686199 v -0.289714 q 0,-0.683594 0.240886,-1.204427 0.240885,-0.520834 0.686849,-0.797527 0.449219,-0.279948 1.041667,-0.279948 0.820313,0 1.321615,0.439454 0.501303,0.439453 0.579428,1.233724 H 13.67383 q -0.03581,-0.458985 -0.257162,-0.664063 -0.218099,-0.208333 -0.667318,-0.208333 -0.488281,0 -0.732422,0.351563 -0.240886,0.348307 -0.247396,1.083984 v 0.358073 q 0,0.76823 0.23112,1.123048 0.234375,0.354818 0.735677,0.354818 0.452474,0 0.673829,-0.205078 0.224609,-0.208334 0.257161,-0.641277 z"/>
    <path id="path2242" style="font-weight:bold;font-size:6.66667px;font-family:Roboto, sans-serif;letter-spacing:1px;fill:#666666" d="M 17.261722,66.215494 H 19.33529 V 67 h -3.050131 v -4.739586 h 0.976563 z"/>
    <path id="path2244" style="font-weight:bold;font-size:6.66667px;font-family:Roboto, sans-serif;letter-spacing:1px;fill:#666666" d="m 24.576829,64.737629 q 0,0.69987 -0.247396,1.227214 -0.247396,0.527344 -0.709636,0.813803 -0.458984,0.286458 -1.054688,0.286458 -0.589193,0 -1.051432,-0.283203 -0.46224,-0.283203 -0.716147,-0.807292 -0.253906,-0.527344 -0.257161,-1.210938 v -0.234375 q 0,-0.69987 0.250651,-1.23047 0.253906,-0.533854 0.712891,-0.817057 0.46224,-0.286459 1.054688,-0.286459 0.592448,0 1.051433,0.286459 0.46224,0.283203 0.712891,0.817057 0.253906,0.5306 0.253906,1.227214 z m -0.989584,-0.214844 q 0,-0.745443 -0.266927,-1.132813 -0.266927,-0.38737 -0.761719,-0.38737 -0.491537,0 -0.758464,0.384115 -0.266927,0.38086 -0.270182,1.119792 v 0.23112 q 0,0.725912 0.266927,1.126303 0.266927,0.400391 0.768229,0.400391 0.491537,0 0.755209,-0.384115 0.263672,-0.38737 0.266927,-1.126303 z"/>
    <path id="path2246" style="font-weight:bold;font-size:6.66667px;font-family:Roboto, sans-serif;letter-spacing:1px;fill:#666666" d="m 30.01368,65.421223 q -0.05534,0.764975 -0.566407,1.204428 -0.507812,0.439453 -1.341146,0.439453 -0.911459,0 -1.435548,-0.611979 -0.520833,-0.615235 -0.520833,-1.686199 v -0.289714 q 0,-0.683594 0.240885,-1.204427 0.240886,-0.520834 0.68685,-0.797527 0.449219,-0.279948 1.041667,-0.279948 0.820313,0 1.321615,0.439454 0.501302,0.439453 0.579427,1.233724 h -0.976563 q -0.03581,-0.458985 -0.257161,-0.664063 -0.218099,-0.208333 -0.667318,-0.208333 -0.488282,0 -0.732422,0.351563 -0.240886,0.348307 -0.247396,1.083984 v 0.358073 q 0,0.76823 0.231119,1.123048 0.234376,0.354818 0.735678,0.354818 0.452474,0 0.673828,-0.205078 0.22461,-0.208334 0.257162,-0.641277 z"/>
    <path id="path2248" style="font-weight:bold;font-size:6.66667px;font-family:Roboto, sans-serif;letter-spacing:1px;fill:#666666" d="m 33.139332,65.098957 -0.507813,0.546876 V 67 h -0.976563 v -4.739586 h 0.976563 v 2.148439 l 0.429688,-0.589193 1.207683,-1.559246 h 1.201172 L 33.787119,64.366535 35.518891,67 h -1.16211 z"/>
  </g>
  <path class="input-background" d="m 11.5,69 h 24 c 2.77,0 5,2.23 5,5 v 29 c 0,2.77 -2.23,5 -5,5 h -24 c -2.77,0 -5,-2.23 -5,-5 V 74 c 0,-2.77 2.23,-5 5,-5 z" style="fill:#b3b3b3" id="rect1175"/>
  <g transform="translate(11.5,72)" id="g1177"/>
  <g class="input-label" style="font-weight:bold;font-size:6.66667px;font-family:Roboto, sans-serif;letter-spacing:1px;fill:#666666" id="text1179" aria-label="RESET">
    <path id="path2228" style="font-weight:bold;font-size:6.66667px;font-family:Roboto, sans-serif;letter-spacing:1px;fill:#666666" d="M 13.677735,102.26497 H 12.89974 V 104 h -0.976563 v -4.739586 h 1.761069 q 0.839844,0 1.295573,0.37435 0.45573,0.374346 0.45573,1.057946 0,0.48502 -0.211589,0.81054 -0.208333,0.32227 -0.634766,0.51433 l 1.025391,1.93685 V 104 h -1.048177 z m -0.777995,-0.79101 h 0.787761 q 0.367839,0 0.569662,-0.18555 0.201823,-0.1888 0.201823,-0.51758 0,-0.33528 -0.192058,-0.52734 -0.188802,-0.19206 -0.582682,-0.19206 H 12.89974 Z"/>
    <path id="path2230" style="font-weight:bold;font-size:6.66667px;font-family:Roboto, sans-serif;letter-spacing:1px;fill:#666666" d="m 20.032556,101.94596 h -1.875001 v 1.26953 h 2.200522 V 104 h -3.177085 v -4.739586 h 3.170574 v 0.791016 h -2.194011 v 1.12956 h 1.875001 z"/>
    <path id="path2232" style="font-weight:bold;font-size:6.66667px;font-family:Roboto, sans-serif;letter-spacing:1px;fill:#666666" d="m 24.388677,102.75651 q 0,-0.27669 -0.195313,-0.42318 -0.195312,-0.14974 -0.703125,-0.3125 -0.507813,-0.16601 -0.804037,-0.32552 -0.807292,-0.4362 -0.807292,-1.17513 0,-0.38411 0.214844,-0.683593 0.218099,-0.302735 0.621745,-0.472006 0.406901,-0.169271 0.911459,-0.169271 0.507813,0 0.904948,0.185547 0.397136,0.182292 0.615235,0.517579 0.221354,0.335284 0.221354,0.761714 h -0.976563 q 0,-0.32552 -0.205078,-0.50455 -0.205078,-0.182295 -0.576172,-0.182295 -0.358073,0 -0.556641,0.152995 -0.198568,0.14974 -0.198568,0.39714 0,0.23112 0.23112,0.38737 0.234375,0.15625 0.686849,0.29296 0.833334,0.25066 1.214194,0.62175 0.380859,0.37109 0.380859,0.92448 0,0.61523 -0.465495,0.9668 -0.465495,0.3483 -1.253256,0.3483 -0.546875,0 -0.996094,-0.19856 -0.449219,-0.20183 -0.686849,-0.55013 -0.234375,-0.34831 -0.234375,-0.8073 h 0.979818 q 0,0.78451 0.9375,0.78451 0.348308,0 0.54362,-0.13997 0.195313,-0.14323 0.195313,-0.39714 z"/>
    <path id="path2234" style="font-weight:bold;font-size:6.66667px;font-family:Roboto, sans-serif;letter-spacing:1px;fill:#666666" d="m 29.884122,101.94596 h -1.875001 v 1.26953 h 2.200522 V 104 h -3.177085 v -4.739586 h 3.170574 v 0.791016 h -2.194011 v 1.12956 h 1.875001 z"/>
    <path id="path2236" style="font-weight:bold;font-size:6.66667px;font-family:Roboto, sans-serif;letter-spacing:1px;fill:#666666" d="M 35.415373,100.05143 H 33.96355 V 104 h -0.976563 v -3.94857 h -1.432292 v -0.791016 h 3.860678 z"/>
  </g>
  <g style="font-weight:bold;font-size:8px;font-family:Roboto, sans-serif;letter-spacing:1.5px;fill:#b3b3b3" id="text1183" aria-label="STEPS">
    <path id="path2217" style="font-weight:bold;font-size:8px;font-family:Roboto, sans-serif;letter-spacing:1.5px;fill:#b3b3b3" d="m 11.957031,119.50781 q 0,-0.33203 -0.234375,-0.50781 -0.234375,-0.17969 -0.84375,-0.375 -0.609375,-0.19922 -0.9648435,-0.39062 -0.96875,-0.52344 -0.96875,-1.41016 0,-0.46094 0.2578125,-0.82031 0.2617188,-0.36328 0.7460938,-0.56641 0.4882812,-0.20312 1.0937502,-0.20312 0.609375,0 1.085937,0.22265 0.476563,0.21875 0.738282,0.6211 0.265625,0.40234 0.265625,0.91406 h -1.171875 q 0,-0.39063 -0.246094,-0.60547 -0.246094,-0.21875 -0.691406,-0.21875 -0.429688,0 -0.667969,0.18359 -0.238281,0.17969 -0.238281,0.47657 0,0.27734 0.277343,0.46484 0.28125,0.1875 0.824219,0.35156 1,0.30078 1.457031,0.7461 0.457032,0.44531 0.457032,1.10937 0,0.73828 -0.558594,1.16016 -0.558594,0.41797 -1.503906,0.41797 -0.65625,0 -1.195313,-0.23829 -0.5390625,-0.24218 -0.8242187,-0.66015 -0.28125,-0.41797 -0.28125,-0.96875 h 1.1757812 q 0,0.9414 1.1250005,0.9414 0.417968,0 0.652343,-0.16796 0.234375,-0.17188 0.234375,-0.47657 z"/>
    <path id="path2219" style="font-weight:bold;font-size:8px;font-family:Roboto, sans-serif;letter-spacing:1.5px;fill:#b3b3b3" d="M 19.710937,116.26172 H 17.96875 V 121 h -1.171875 v -4.73828 h -1.71875 v -0.94922 h 4.632812 z"/>
    <path id="path2221" style="font-weight:bold;font-size:8px;font-family:Roboto, sans-serif;letter-spacing:1.5px;fill:#b3b3b3" d="m 25.304687,118.53516 h -2.25 v 1.52343 h 2.640625 V 121 h -3.8125 v -5.6875 H 25.6875 v 0.94922 h -2.632813 v 1.35547 h 2.25 z"/>
    <path id="path2223" style="font-weight:bold;font-size:8px;font-family:Roboto, sans-serif;letter-spacing:1.5px;fill:#b3b3b3" d="M 29.054687,118.99609 V 121 h -1.171875 v -5.6875 h 2.21875 q 0.640625,0 1.125,0.23438 0.488282,0.23437 0.75,0.66796 0.261719,0.42969 0.261719,0.98047 0,0.83594 -0.574219,1.32032 -0.570312,0.48046 -1.582031,0.48046 z m 0,-0.94921 h 1.046875 q 0.464844,0 0.707032,-0.21875 0.246093,-0.21875 0.246093,-0.625 0,-0.41797 -0.246093,-0.67579 -0.246094,-0.25781 -0.679688,-0.26562 h -1.074219 z"/>
    <path id="path2225" style="font-weight:bold;font-size:8px;font-family:Roboto, sans-serif;letter-spacing:1.5px;fill:#b3b3b3" d="m 37.488281,119.50781 q 0,-0.33203 -0.234375,-0.50781 -0.234375,-0.17969 -0.84375,-0.375 -0.609375,-0.19922 -0.964844,-0.39062 -0.96875,-0.52344 -0.96875,-1.41016 0,-0.46094 0.257813,-0.82031 0.261719,-0.36328 0.746094,-0.56641 0.488281,-0.20312 1.09375,-0.20312 0.609375,0 1.085937,0.22265 0.476563,0.21875 0.738281,0.6211 0.265625,0.40234 0.265625,0.91406 h -1.171875 q 0,-0.39063 -0.246093,-0.60547 Q 37,116.16797 36.554687,116.16797 q -0.429687,0 -0.667968,0.18359 -0.238282,0.17969 -0.238282,0.47657 0,0.27734 0.277344,0.46484 0.28125,0.1875 0.824219,0.35156 1,0.30078 1.457031,0.7461 0.457031,0.44531 0.457031,1.10937 0,0.73828 -0.558593,1.16016 -0.558594,0.41797 -1.503907,0.41797 -0.65625,0 -1.195312,-0.23829 -0.539063,-0.24218 -0.824219,-0.66015 -0.28125,-0.41797 -0.28125,-0.96875 h 1.175781 q 0,0.9414 1.125,0.9414 0.417969,0 0.652344,-0.16796 0.234375,-0.17188 0.234375,-0.47657 z"/>
  </g>
  <g transform="translate(15.5,131.5)" id="g1185"/>
  <g transform="translate(3.5,120)" id="g1205">
    <g transform="translate(20,20)" id="g1203">
      <g style="font-weight:bold;font-size:6.66667px;font-family:Roboto, sans-serif;fill:#b3b3b3" id="text1187" transform="translate(-8.5,13.25833)" aria-label="1">
        <path id="path2193" style="font-weight:bold;font-size:6.66667px;font-family:Roboto, sans-serif;fill:#b3b3b3" d="M 2.6074231,0 H 1.6666675 V -3.6263038 L 0.54362005,-3.2779964 V -4.0429707 L 2.5065116,-4.746096 h 0.1009115 z"/>
      </g>
      <g style="font-weight:bold;font-size:6.66667px;font-family:Roboto, sans-serif;fill:#b3b3b3" id="text1189" transform="translate(-14.425309,5.8225242)" aria-label="2">
        <path id="path2196" style="font-weight:bold;font-size:6.66667px;font-family:Roboto, sans-serif;fill:#b3b3b3" d="M 3.5709652,0 H 0.32226578 V -0.64453156 L 1.8554696,-2.2786469 q 0.3157554,-0.3450523 0.465495,-0.6022138 0.1529949,-0.2571616 0.1529949,-0.4882815 0,-0.3157554 -0.1595053,-0.4947919 -0.1595053,-0.1822918 -0.4557294,-0.1822918 -0.3190105,0 -0.5045575,0.2213543 -0.1822917,0.218099 -0.1822917,0.5761721 H 0.22786469 q 0,-0.4329429 0.20507822,-0.791016 0.20833344,-0.3580731 0.58593779,-0.5598961 0.3776043,-0.2050782 0.8561202,-0.2050782 0.7324222,0 1.1360682,0.3515627 0.4069013,0.3515626 0.4069013,0.992839 0,0.3515627 -0.1822918,0.7161462 -0.1822917,0.3645835 -0.6250003,0.8496097 l -1.0774744,1.1360683 h 2.0377613 z"/>
      </g>
      <g style="font-weight:bold;font-size:6.66667px;font-family:Roboto, sans-serif;fill:#b3b3b3" id="text1191" transform="translate(-13.714001,-3.6375681)" aria-label="3">
        <path id="path2199" style="font-weight:bold;font-size:6.66667px;font-family:Roboto, sans-serif;fill:#b3b3b3" d="m 1.2792975,-2.7864597 h 0.5013023 q 0.3580731,0 0.5305992,-0.1790365 0.1725261,-0.1790365 0.1725261,-0.4752606 0,-0.2864585 -0.1725261,-0.4459638 -0.1692709,-0.1595053 -0.4687502,-0.1595053 -0.2701824,0 -0.4524742,0.1497397 -0.1822917,0.1464844 -0.1822917,0.3841147 H 0.26692721 q 0,-0.3710939 0.1985678,-0.6640628 0.20182302,-0.2962241 0.55989609,-0.4622398 0.3613283,-0.1660157 0.7942712,-0.1660157 0.7519535,0 1.178386,0.3613283 0.4264325,0.3580731 0.4264325,0.9895838 0,0.325521 -0.1985678,0.5989586 -0.1985678,0.2734377 -0.5208336,0.4199221 0.4003908,0.1432292 0.5957034,0.4296877 0.1985678,0.2864585 0.1985678,0.6770837 0,0.63151068 -0.4622398,1.01237024 -0.4589846,0.38085956 -1.2174485,0.38085956 -0.7096357,0 -1.1621099,-0.37434914 Q 0.20833343,-0.68359408 0.20833343,-1.2988287 H 1.1490891 q 0,0.2669272 0.1985678,0.43619808 0.201823,0.16927091 0.4947919,0.16927091 0.3352866,0 0.5240888,-0.17578133 0.1920574,-0.17903656 0.1920574,-0.47200546 0,-0.7096357 -0.7812504,-0.7096357 H 1.2792975 Z"/>
      </g>
      <g style="font-weight:bold;font-size:6.66667px;font-family:Roboto, sans-serif;fill:#b3b3b3" id="text1193" transform="translate(-6.7433982,-10.103726)" aria-label="4">
        <path id="path2202" style="font-weight:bold;font-size:6.66667px;font-family:Roboto, sans-serif;fill:#b3b3b3" d="m 3.1054702,-1.783855 h 0.5371097 v 0.7584639 H 3.1054702 V 0 H 2.1647146 V -1.0253911 H 0.22135427 L 0.17903654,-1.6178393 2.1549489,-4.7395856 h 0.9505213 z m -1.9889332,0 h 1.0481776 v -1.6731779 l -0.061849,0.1074219 z"/>
      </g>
      <g style="font-weight:bold;font-size:6.66667px;font-family:Roboto, sans-serif;fill:#b3b3b3" id="text1195" transform="translate(2.7433982,-10.103726)" aria-label="5">
        <path id="path2205" style="font-weight:bold;font-size:6.66667px;font-family:Roboto, sans-serif;fill:#b3b3b3" d="M 0.4622398,-2.3307303 0.73567743,-4.7395856 H 3.3919287 V -3.95508 H 1.5071622 l -0.1171876,1.0188807 q 0.3352866,-0.1790366 0.712891,-0.1790366 0.6770836,0 1.0611984,0.4199221 0.3841148,0.4199221 0.3841148,1.1751308 0,0.4589846 -0.1953126,0.82356808 -0.1920574,0.3613283 -0.5533857,0.56315131 -0.3613283,0.19856781 -0.852865,0.19856781 -0.4296877,0 -0.7975264,-0.17252613 Q 0.78125037,-0.28320326 0.56640652,-0.59895862 0.35481788,-0.91471398 0.34179704,-1.31836 H 1.2727871 q 0.029297,0.2962241 0.2050782,0.4622398 0.1790365,0.16276049 0.465495,0.16276049 0.3190106,0 0.4915367,-0.22786469 0.1725261,-0.2311199 0.1725261,-0.651042 0,-0.403646 -0.1985678,-0.6184899 -0.1985678,-0.2148438 -0.5631513,-0.2148438 -0.3352866,0 -0.54362,0.1757813 l -0.091146,0.084636 z"/>
      </g>
      <g style="font-weight:bold;font-size:6.66667px;font-family:Roboto, sans-serif;fill:#b3b3b3" id="text1197" transform="translate(9.7140013,-3.6375681)" aria-label="6">
        <path id="path2208" style="font-weight:bold;font-size:6.66667px;font-family:Roboto, sans-serif;fill:#b3b3b3" d="m 2.8743503,-4.7884137 v 0.7747399 h -0.091146 q -0.6380212,0.00977 -1.0286464,0.3320314 -0.3873699,0.3222658 -0.465495,0.8951827 0.3776044,-0.3841147 0.9537765,-0.3841147 0.6184899,0 0.9830734,0.4427085 0.3645835,0.4427086 0.3645835,1.1653652 0,0.4622398 -0.201823,0.8365889 Q 3.1901057,-0.35156267 2.822267,-0.14322923 2.4576835,0.0651042 1.9954437,0.0651042 q -0.7486983,0 -1.21093812,-0.52083358 Q 0.32552099,-0.97656297 0.32552099,-1.845704 v -0.3385418 q 0,-0.7714848 0.28971368,-1.3606778 0.29296889,-0.5924482 0.83658893,-0.9147139 0.5468753,-0.325521 1.2662767,-0.3287762 z m -0.9179692,2.373048 q -0.2278647,0 -0.4134116,0.1204427 -0.185547,0.1171876 -0.2734376,0.3125002 v 0.2864584 q 0,0.4720055 0.1855469,0.73893269 0.185547,0.263672 0.5208336,0.263672 0.3027345,0 0.4882815,-0.23763032 0.1888022,-0.24088557 0.1888022,-0.62174507 0,-0.38737 -0.1888022,-0.6250003 -0.1888022,-0.2376303 -0.5078128,-0.2376303 z"/>
      </g>
      <g style="font-weight:bold;font-size:6.66667px;font-family:Roboto, sans-serif;fill:#b3b3b3" id="text1199" transform="translate(10.425309,5.8225242)" aria-label="7">
        <path id="path2211" style="font-weight:bold;font-size:6.66667px;font-family:Roboto, sans-serif;fill:#b3b3b3" d="M 3.5449236,-4.2122416 1.7122404,0 H 0.71940138 L 2.5553398,-3.9778665 h -2.356772 v -0.7617191 h 3.3463558 z"/>
      </g>
      <g style="font-weight:bold;font-size:6.66667px;font-family:Roboto, sans-serif;fill:#b3b3b3" id="text1201" transform="translate(4.5,13.25833)" aria-label="8">
        <path id="path2214" style="font-weight:bold;font-size:6.66667px;font-family:Roboto, sans-serif;fill:#b3b3b3" d="m 3.41146,-3.4798194 q 0,0.3450523 -0.1725262,0.6119795 -0.1725261,0.2669272 -0.4752606,0.4264325 0.3450522,0.1660157 0.5468753,0.4589846 0.201823,0.2897137 0.201823,0.6835941 0,0.63151067 -0.4296877,0.99934939 -0.4296877,0.36458351 -1.1686204,0.36458351 -0.7389326,0 -1.17187555,-0.36783872 -0.43294291,-0.36783872 -0.43294291,-0.99609418 0,-0.3938804 0.20182301,-0.6868493 Q 0.71289096,-2.2786469 1.054688,-2.4414074 0.75195348,-2.6009127 0.57942736,-2.8678399 0.41015645,-3.1347671 0.41015645,-3.4798194 q 0,-0.605469 0.40364602,-0.9635421 0.40364603,-0.3613283 1.09700573,-0.3613283 0.6901045,0 1.0937505,0.3580731 0.4069013,0.3548179 0.4069013,0.9667973 z m -0.8430994,2.1126312 q 0,-0.3092449 -0.1790365,-0.4947919 Q 2.2102875,-2.047527 1.907553,-2.047527 q -0.2994793,0 -0.4785159,0.1855469 -0.1790365,0.1822918 -0.1790365,0.4947919 0,0.3027346 0.1757813,0.48828153 0.1757814,0.18554696 0.4882815,0.18554696 0.3059897,0 0.4785159,-0.17903654 0.1757813,-0.17903655 0.1757813,-0.49479195 z m -0.097656,-2.0670582 q 0,-0.2766929 -0.1464844,-0.4427086 -0.1464845,-0.1692709 -0.4134117,-0.1692709 -0.263672,0 -0.4101564,0.1627605 -0.1464845,0.1627605 -0.1464845,0.449219 0,0.2832032 0.1464845,0.4557294 0.1464844,0.1725261 0.4134116,0.1725261 0.2669272,0 0.4101565,-0.1725261 0.1464844,-0.1725262 0.1464844,-0.4557294 z"/>
      </g>
    </g>
  </g>
  <g style="font-weight:bold;font-size:6.66667px;font-family:Roboto, sans-serif;letter-spacing:2px;fill:#b3b3b3" id="text1209" aria-label="FWD">
    <path id="path2186" style="font-weight:bold;font-size:6.66667px;font-family:Roboto, sans-serif;letter-spacing:2px;fill:#b3b3b3" d="M 17.974741,163.06315 H 16.09974 V 165 h -0.976563 v -4.73959 h 3.085939 v 0.79102 H 16.09974 v 1.22396 h 1.875001 z"/>
    <path id="path2188" style="font-weight:bold;font-size:6.66667px;font-family:Roboto, sans-serif;letter-spacing:2px;fill:#b3b3b3" d="m 24.473441,163.63281 0.638021,-3.3724 H 26.08477 L 25.033337,165 H 24.050264 L 23.278779,161.82943 22.507294,165 h -0.983073 l -1.051433,-4.73959 h 0.973308 l 0.641276,3.36589 0.781251,-3.36589 h 0.826823 z"/>
    <path id="path2190" style="font-weight:bold;font-size:6.66667px;font-family:Roboto, sans-serif;letter-spacing:2px;fill:#b3b3b3" d="m 28.615368,165 v -4.73959 h 1.458334 q 0.625001,0 1.116537,0.28321 0.494792,0.27995 0.771485,0.80078 0.276693,0.51758 0.276693,1.17839 v 0.21809 q 0,0.66081 -0.273438,1.17514 -0.270182,0.51432 -0.764974,0.79752 -0.494792,0.2832 -1.116537,0.28646 z m 0.976563,-3.94857 v 3.16406 h 0.472006 q 0.572917,0 0.875651,-0.37434 0.302735,-0.37435 0.309245,-1.07097 v -0.25065 q 0,-0.72266 -0.299479,-1.09375 -0.299479,-0.37435 -0.875652,-0.37435 z"/>
  </g>
  <g transform="translate(16.5,168)" id="g1211"/>
  <g style="font-weight:bold;font-size:6.66667px;font-family:Roboto, sans-serif;letter-spacing:2px;fill:#b3b3b3" id="text1213" aria-label="REV">
    <path id="path2179" style="font-weight:bold;font-size:6.66667px;font-family:Roboto, sans-serif;letter-spacing:2px;fill:#b3b3b3" d="M 17.377735,198.26497 H 16.59974 V 200 h -0.976563 v -4.73959 h 1.761069 q 0.839844,0 1.295573,0.37435 0.45573,0.37435 0.45573,1.05795 0,0.48502 -0.211589,0.81054 -0.208334,0.32227 -0.634766,0.51433 l 1.025391,1.93685 V 200 h -1.048177 z m -0.777995,-0.79101 h 0.787761 q 0.367839,0 0.569662,-0.18555 0.201823,-0.1888 0.201823,-0.51758 0,-0.33528 -0.192058,-0.52734 -0.188802,-0.19206 -0.582682,-0.19206 H 16.59974 Z"/>
    <path id="path2181" style="font-weight:bold;font-size:6.66667px;font-family:Roboto, sans-serif;letter-spacing:2px;fill:#b3b3b3" d="m 24.732555,197.94596 h -1.875001 v 1.26953 h 2.200522 V 200 h -3.177084 v -4.73959 h 3.170574 v 0.79102 h -2.194012 v 1.12956 h 1.875001 z"/>
    <path id="path2183" style="font-weight:bold;font-size:6.66667px;font-family:Roboto, sans-serif;letter-spacing:2px;fill:#b3b3b3" d="m 29.382296,198.82487 1.07422,-3.56446 h 1.08724 L 29.893364,200 h -1.01888 l -1.643881,-4.73959 h 1.083984 z"/>
  </g>
  <g style="font-weight:bold;font-size:8px;font-family:Roboto, sans-serif;letter-spacing:1.5px;fill:#b3b3b3" id="text1217" aria-label="SELECT">
    <path id="path2166" style="font-weight:bold;font-size:8px;font-family:Roboto, sans-serif;letter-spacing:1.5px;fill:#b3b3b3" d="m 8.9570313,218.50781 q 0,-0.33203 -0.234375,-0.50781 -0.234375,-0.17969 -0.8437501,-0.375 -0.609375,-0.19922 -0.9648437,-0.39063 -0.96875,-0.52343 -0.96875,-1.41015 0,-0.46094 0.2578125,-0.82031 0.2617187,-0.36329 0.7460937,-0.56641 0.4882813,-0.20313 1.0937501,-0.20313 0.609375,0 1.0859375,0.22266 0.4765625,0.21875 0.7382812,0.62109 0.2656255,0.40235 0.2656255,0.91407 H 8.9609375 q 0,-0.39063 -0.2460937,-0.60547 -0.2460938,-0.21875 -0.6914063,-0.21875 -0.4296875,0 -0.6679688,0.18359 -0.2382812,0.17969 -0.2382812,0.47656 0,0.27735 0.2773437,0.46485 0.28125,0.1875 0.8242188,0.35156 1,0.30078 1.4570313,0.74609 0.4570317,0.44532 0.4570317,1.10938 0,0.73828 -0.5585942,1.16016 -0.5585938,0.41796 -1.5039063,0.41796 -0.65625,0 -1.1953125,-0.23828 -0.5390625,-0.24218 -0.8242188,-0.66015 -0.28125,-0.41797 -0.28125,-0.96875 h 1.1757813 q 0,0.9414 1.125,0.9414 0.4179688,0 0.6523438,-0.16797 0.234375,-0.17187 0.234375,-0.47656 z"/>
    <path id="path2168" style="font-weight:bold;font-size:8px;font-family:Roboto, sans-serif;letter-spacing:1.5px;fill:#b3b3b3" d="m 15.851563,217.53516 h -2.25 v 1.52343 h 2.640624 V 220 h -3.812499 v -5.6875 h 3.804687 v 0.94922 h -2.632812 v 1.35547 h 2.25 z"/>
    <path id="path2170" style="font-weight:bold;font-size:8px;font-family:Roboto, sans-serif;letter-spacing:1.5px;fill:#b3b3b3" d="m 19.601562,219.05859 h 2.488282 V 220 h -3.660157 v -5.6875 h 1.171875 z"/>
    <path id="path2172" style="font-weight:bold;font-size:8px;font-family:Roboto, sans-serif;letter-spacing:1.5px;fill:#b3b3b3" d="m 27.679687,217.53516 h -2.25 v 1.52343 h 2.640625 V 220 h -3.8125 v -5.6875 H 28.0625 v 0.94922 h -2.632813 v 1.35547 h 2.25 z"/>
    <path id="path2174" style="font-weight:bold;font-size:8px;font-family:Roboto, sans-serif;letter-spacing:1.5px;fill:#b3b3b3" d="m 34.722656,218.10547 q -0.06641,0.91797 -0.679687,1.44531 -0.609375,0.52734 -1.609375,0.52734 -1.09375,0 -1.722657,-0.73437 -0.625,-0.73828 -0.625,-2.02344 v -0.34765 q 0,-0.82032 0.289063,-1.44532 0.289062,-0.625 0.824219,-0.95703 0.539062,-0.33594 1.25,-0.33594 0.984375,0 1.585937,0.52735 0.601563,0.52734 0.695313,1.48047 h -1.171875 q -0.04297,-0.55078 -0.308594,-0.79688 -0.261719,-0.25 -0.800781,-0.25 -0.585938,0 -0.878907,0.42188 -0.289062,0.41797 -0.296875,1.30078 v 0.42969 q 0,0.92187 0.277344,1.34765 0.28125,0.42578 0.882813,0.42578 0.542968,0 0.808593,-0.24609 0.269532,-0.25 0.308594,-0.76953 z"/>
    <path id="path2176" style="font-weight:bold;font-size:8px;font-family:Roboto, sans-serif;letter-spacing:1.5px;fill:#b3b3b3" d="M 41.164062,215.26172 H 39.421875 V 220 H 38.25 v -4.73828 h -1.71875 v -0.94922 h 4.632812 z"/>
  </g>
  <g transform="translate(1,222)" id="g1219"/>
  <g transform="translate(1,222)" id="g1239">
    <g transform="translate(22.5,22.5)" id="g1237">
      <g style="font-weight:bold;font-size:6.66667px;font-family:Roboto, sans-serif;fill:#b3b3b3" id="text1221" transform="translate(-11.5,18.454483)" aria-label="1">
        <path id="path2142" style="font-weight:bold;font-size:6.66667px;font-family:Roboto, sans-serif;fill:#b3b3b3" d="M 2.6074231,0 H 1.6666675 V -3.6263038 L 0.54362005,-3.2779964 V -4.0429707 L 2.5065116,-4.746096 h 0.1009115 z"/>
      </g>
      <g style="font-weight:bold;font-size:6.66667px;font-family:Roboto, sans-serif;fill:#b3b3b3" id="text1223" transform="translate(-20.160067,7.5867662)" aria-label="2">
        <path id="path2145" style="font-weight:bold;font-size:6.66667px;font-family:Roboto, sans-serif;fill:#b3b3b3" d="M 3.5709652,0 H 0.32226578 V -0.64453156 L 1.8554696,-2.2786469 q 0.3157554,-0.3450523 0.465495,-0.6022138 0.1529949,-0.2571616 0.1529949,-0.4882815 0,-0.3157554 -0.1595053,-0.4947919 -0.1595053,-0.1822918 -0.4557294,-0.1822918 -0.3190105,0 -0.5045575,0.2213543 -0.1822917,0.218099 -0.1822917,0.5761721 H 0.22786469 q 0,-0.4329429 0.20507822,-0.791016 0.20833344,-0.3580731 0.58593779,-0.5598961 0.3776043,-0.2050782 0.8561202,-0.2050782 0.7324222,0 1.1360682,0.3515627 0.4069013,0.3515626 0.4069013,0.992839 0,0.3515627 -0.1822918,0.7161462 -0.1822917,0.3645835 -0.6250003,0.8496097 l -1.0774744,1.1360683 h 2.0377613 z"/>
      </g>
      <g style="font-weight:bold;font-size:6.66667px;font-family:Roboto, sans-serif;fill:#b3b3b3" id="text1225" transform="translate(-19.120463,-6.2395226)" aria-label="3">
        <path id="path2148" style="font-weight:bold;font-size:6.66667px;font-family:Roboto, sans-serif;fill:#b3b3b3" d="m 1.2792975,-2.7864597 h 0.5013023 q 0.3580731,0 0.5305992,-0.1790365 0.1725261,-0.1790365 0.1725261,-0.4752606 0,-0.2864585 -0.1725261,-0.4459638 -0.1692709,-0.1595053 -0.4687502,-0.1595053 -0.2701824,0 -0.4524742,0.1497397 -0.1822917,0.1464844 -0.1822917,0.3841147 H 0.26692721 q 0,-0.3710939 0.1985678,-0.6640628 0.20182302,-0.2962241 0.55989609,-0.4622398 0.3613283,-0.1660157 0.7942712,-0.1660157 0.7519535,0 1.178386,0.3613283 0.4264325,0.3580731 0.4264325,0.9895838 0,0.325521 -0.1985678,0.5989586 -0.1985678,0.2734377 -0.5208336,0.4199221 0.4003908,0.1432292 0.5957034,0.4296877 0.1985678,0.2864585 0.1985678,0.6770837 0,0.63151068 -0.4622398,1.01237024 -0.4589846,0.38085956 -1.2174485,0.38085956 -0.7096357,0 -1.1621099,-0.37434914 Q 0.20833343,-0.68359408 0.20833343,-1.2988287 H 1.1490891 q 0,0.2669272 0.1985678,0.43619808 0.201823,0.16927091 0.4947919,0.16927091 0.3352866,0 0.5240888,-0.17578133 0.1920574,-0.17903656 0.1920574,-0.47200546 0,-0.7096357 -0.7812504,-0.7096357 H 1.2792975 Z"/>
      </g>
      <g style="font-weight:bold;font-size:6.66667px;font-family:Roboto, sans-serif;fill:#b3b3b3" id="text1227" transform="translate(-8.9326589,-15.690061)" aria-label="4">
        <path id="path2151" style="font-weight:bold;font-size:6.66667px;font-family:Roboto, sans-serif;fill:#b3b3b3" d="m 3.1054702,-1.783855 h 0.5371097 v 0.7584639 H 3.1054702 V 0 H 2.1647146 V -1.0253911 H 0.22135427 L 0.17903654,-1.6178393 2.1549489,-4.7395856 h 0.9505213 z m -1.9889332,0 h 1.0481776 v -1.6731779 l -0.061849,0.1074219 z"/>
      </g>
      <g style="font-weight:bold;font-size:6.66667px;font-family:Roboto, sans-serif;fill:#b3b3b3" id="text1229" transform="translate(4.9326589,-15.690061)" aria-label="5">
        <path id="path2154" style="font-weight:bold;font-size:6.66667px;font-family:Roboto, sans-serif;fill:#b3b3b3" d="M 0.4622398,-2.3307303 0.73567743,-4.7395856 H 3.3919287 V -3.95508 H 1.5071622 l -0.1171876,1.0188807 q 0.3352866,-0.1790366 0.712891,-0.1790366 0.6770836,0 1.0611984,0.4199221 0.3841148,0.4199221 0.3841148,1.1751308 0,0.4589846 -0.1953126,0.82356808 -0.1920574,0.3613283 -0.5533857,0.56315131 -0.3613283,0.19856781 -0.852865,0.19856781 -0.4296877,0 -0.7975264,-0.17252613 Q 0.78125037,-0.28320326 0.56640652,-0.59895862 0.35481788,-0.91471398 0.34179704,-1.31836 H 1.2727871 q 0.029297,0.2962241 0.2050782,0.4622398 0.1790365,0.16276049 0.465495,0.16276049 0.3190106,0 0.4915367,-0.22786469 0.1725261,-0.2311199 0.1725261,-0.651042 0,-0.403646 -0.1985678,-0.6184899 -0.1985678,-0.2148438 -0.5631513,-0.2148438 -0.3352866,0 -0.54362,0.1757813 l -0.091146,0.084636 z"/>
      </g>
      <g style="font-weight:bold;font-size:6.66667px;font-family:Roboto, sans-serif;fill:#b3b3b3" id="text1231" transform="translate(15.120463,-6.2395226)" aria-label="6">
        <path id="path2157" style="font-weight:bold;font-size:6.66667px;font-family:Roboto, sans-serif;fill:#b3b3b3" d="m 2.8743503,-4.7884137 v 0.7747399 h -0.091146 q -0.6380212,0.00977 -1.0286464,0.3320314 -0.3873699,0.3222658 -0.465495,0.8951827 0.3776044,-0.3841147 0.9537765,-0.3841147 0.6184899,0 0.9830734,0.4427085 0.3645835,0.4427086 0.3645835,1.1653652 0,0.4622398 -0.201823,0.8365889 Q 3.1901057,-0.35156267 2.822267,-0.14322923 2.4576835,0.0651042 1.9954437,0.0651042 q -0.7486983,0 -1.21093812,-0.52083358 Q 0.32552099,-0.97656297 0.32552099,-1.845704 v -0.3385418 q 0,-0.7714848 0.28971368,-1.3606778 0.29296889,-0.5924482 0.83658893,-0.9147139 0.5468753,-0.325521 1.2662767,-0.3287762 z m -0.9179692,2.373048 q -0.2278647,0 -0.4134116,0.1204427 -0.185547,0.1171876 -0.2734376,0.3125002 v 0.2864584 q 0,0.4720055 0.1855469,0.73893269 0.185547,0.263672 0.5208336,0.263672 0.3027345,0 0.4882815,-0.23763032 0.1888022,-0.24088557 0.1888022,-0.62174507 0,-0.38737 -0.1888022,-0.6250003 -0.1888022,-0.2376303 -0.5078128,-0.2376303 z"/>
      </g>
      <g style="font-weight:bold;font-size:6.66667px;font-family:Roboto, sans-serif;fill:#b3b3b3" id="text1233" transform="translate(16.160067,7.5867662)" aria-label="7">
        <path id="path2160" style="font-weight:bold;font-size:6.66667px;font-family:Roboto, sans-serif;fill:#b3b3b3" d="M 3.5449236,-4.2122416 1.7122404,0 H 0.71940138 L 2.5553398,-3.9778665 h -2.356772 v -0.7617191 h 3.3463558 z"/>
      </g>
      <g style="font-weight:bold;font-size:6.66667px;font-family:Roboto, sans-serif;fill:#b3b3b3" id="text1235" transform="translate(7.5,18.454483)" aria-label="8">
        <path id="path2163" style="font-weight:bold;font-size:6.66667px;font-family:Roboto, sans-serif;fill:#b3b3b3" d="m 3.41146,-3.4798194 q 0,0.3450523 -0.1725262,0.6119795 -0.1725261,0.2669272 -0.4752606,0.4264325 0.3450522,0.1660157 0.5468753,0.4589846 0.201823,0.2897137 0.201823,0.6835941 0,0.63151067 -0.4296877,0.99934939 -0.4296877,0.36458351 -1.1686204,0.36458351 -0.7389326,0 -1.17187555,-0.36783872 -0.43294291,-0.36783872 -0.43294291,-0.99609418 0,-0.3938804 0.20182301,-0.6868493 Q 0.71289096,-2.2786469 1.054688,-2.4414074 0.75195348,-2.6009127 0.57942736,-2.8678399 0.41015645,-3.1347671 0.41015645,-3.4798194 q 0,-0.605469 0.40364602,-0.9635421 0.40364603,-0.3613283 1.09700573,-0.3613283 0.6901045,0 1.0937505,0.3580731 0.4069013,0.3548179 0.4069013,0.9667973 z m -0.8430994,2.1126312 q 0,-0.3092449 -0.1790365,-0.4947919 Q 2.2102875,-2.047527 1.907553,-2.047527 q -0.2994793,0 -0.4785159,0.1855469 -0.1790365,0.1822918 -0.1790365,0.4947919 0,0.3027346 0.1757813,0.48828153 0.1757814,0.18554696 0.4882815,0.18554696 0.3059897,0 0.4785159,-0.17903654 0.1757813,-0.17903655 0.1757813,-0.49479195 z m -0.097656,-2.0670582 q 0,-0.2766929 -0.1464844,-0.4427086 -0.1464845,-0.1692709 -0.4134117,-0.1692709 -0.263672,0 -0.4101564,0.1627605 -0.1464845,0.1627605 -0.1464845,0.449219 0,0.2832032 0.1464845,0.4557294 0.1464844,0.1725261 0.4134116,0.1725261 0.2669272,0 0.4101565,-0.1725261 0.1464844,-0.1725262 0.1464844,-0.4557294 z"/>
      </g>
    </g>
  </g>
  <g class="io-group" transform="translate(6.5,267)" id="g1247">
    <path class="input-background" d="m 5,0 h 24 c 2.77,0 5,2.23 5,5 v 29 c 0,2.77 -2.23,5 -5,5 H 5 C 2.23,39 0,36.77 0,34 V 5 C 0,2.23 2.23,0 5,0 Z" style="fill:#b3b3b3" id="rect1241"/>
    <g transform="translate(5,3)" id="g1243"/>
    <g class="input-label" style="font-weight:bold;font-size:6.66667px;font-family:Roboto, sans-serif;letter-spacing:2px;fill:#666666" id="text1245" transform="translate(11.5,35)" aria-label="CV">
      <path id="path2137" style="font-weight:bold;font-size:6.66667px;font-family:Roboto, sans-serif;letter-spacing:2px;fill:#666666" d="M 4.1438822,-1.5787768 Q 4.0885436,-0.81380247 3.5774757,-0.37434914 3.0696629,0.0651042 2.2363292,0.0651042 q -0.9114588,0 -1.43554757,-0.61197946 Q 0.27994805,-1.1621099 0.27994805,-2.233074 v -0.2897137 q 0,-0.683594 0.24088553,-1.2044276 0.24088553,-0.5208336 0.68684932,-0.7975264 0.4492189,-0.2799481 1.0416671,-0.2799481 0.8203129,0 1.3216152,0.4394533 0.5013024,0.4394534 0.5794274,1.2337246 H 3.1738296 Q 3.1380223,-3.5904965 2.9166681,-3.7955747 2.698569,-4.0039082 2.24935,-4.0039082 q -0.4882815,0 -0.7324222,0.3515627 -0.2408855,0.3483075 -0.2473959,1.0839849 v 0.3580731 q 0,0.7682295 0.2311199,1.1230474 0.2343751,0.35481788 0.7356774,0.35481788 0.4524742,0 0.6738284,-0.20507823 0.2246095,-0.20833345 0.2571616,-0.64127635 z"/>
      <path id="path2139" style="font-weight:bold;font-size:6.66667px;font-family:Roboto, sans-serif;letter-spacing:2px;fill:#666666" d="M 8.5364616,-1.1751308 9.6106809,-4.7395856 H 10.697921 L 9.0475295,0 H 8.0286489 l -1.643881,-4.7395856 h 1.0839849 z"/>
    </g>
  </g>
  <path class="output-background" d="m 11.5,321 h 24 c 2.77,0 5,2.23 5,5 v 29 c 0,2.77 -2.23,5 -5,5 h -24 c -2.77,0 -5,-2.23 -5,-5 v -29 c 0,-2.77 2.23,-5 5,-5 z" style="fill:#888888" id="rect1251"/>
  <g transform="translate(11.5,324)" id="g1253"/>
  <g class="output-label" style="font-weight:bold;font-size:6.66667px;font-family:Roboto, sans-serif;letter-spacing:2px;fill:#cccccc" id="text1255" aria-label="OUT">
    <path id="path2128" style="font-weight:bold;font-size:6.66667px;font-family:Roboto, sans-serif;letter-spacing:2px;fill:#cccccc" d="m 18.816408,353.73763 q 0,0.69987 -0.247396,1.22721 -0.247396,0.52735 -0.709635,0.81381 -0.458985,0.28645 -1.054688,0.28645 -0.589193,0 -1.051433,-0.2832 -0.46224,-0.2832 -0.716146,-0.80729 -0.253907,-0.52735 -0.257162,-1.21094 v -0.23437 q 0,-0.69987 0.250651,-1.23047 0.253907,-0.53386 0.712891,-0.81706 0.46224,-0.28646 1.054688,-0.28646 0.592448,0 1.051433,0.28646 0.46224,0.2832 0.712891,0.81706 0.253906,0.5306 0.253906,1.22721 z m -0.989583,-0.21484 q 0,-0.74545 -0.266928,-1.13282 -0.266927,-0.38737 -0.761719,-0.38737 -0.491537,0 -0.758464,0.38412 -0.266927,0.38086 -0.270182,1.11979 v 0.23112 q 0,0.72591 0.266927,1.1263 0.266927,0.40039 0.76823,0.40039 0.491536,0 0.755208,-0.38411 0.263672,-0.38737 0.266928,-1.1263 z"/>
    <path id="path2130" style="font-weight:bold;font-size:6.66667px;font-family:Roboto, sans-serif;letter-spacing:2px;fill:#cccccc" d="m 25.119796,351.26041 v 3.12175 q 0,0.778 -0.488282,1.23047 -0.485026,0.45247 -1.328125,0.45247 -0.830079,0 -1.31836,-0.43945 -0.488282,-0.43945 -0.498047,-1.20768 v -3.15756 h 0.976563 v 3.12826 q 0,0.4655 0.221354,0.68034 0.224609,0.21159 0.61849,0.21159 0.823568,0 0.836589,-0.86589 v -3.1543 z"/>
    <path id="path2132" style="font-weight:bold;font-size:6.66667px;font-family:Roboto, sans-serif;letter-spacing:2px;fill:#cccccc" d="M 31.488288,352.05143 H 30.036464 V 356 h -0.976563 v -3.94857 h -1.432292 v -0.79102 h 3.860679 z"/>
  </g>
  <g transform="translate(58.5,36)" id="g1259"/>
  <g transform="translate(46.5,24)" id="g1305">
    <g transform="translate(20,20)" id="g1303">
      <path d="M 0,0 H 4" style="stroke:#b3b3b3;stroke-width:1" transform="rotate(120,-5,2.8867513)" id="polyline1261"/>
      <path d="M 0,0 H 2.5" style="stroke:#b3b3b3;stroke-width:0.7" transform="rotate(135,-5,2.0710678)" id="polyline1263"/>
      <path d="M 0,0 H 2.5" style="stroke:#b3b3b3;stroke-width:0.7" transform="rotate(150,-5,1.339746)" id="polyline1265"/>
      <path d="M 0,0 H 2.5" style="stroke:#b3b3b3;stroke-width:0.7" transform="rotate(165,-5,0.65826249)" id="polyline1267"/>
      <path d="M 0,0 H 2.5" style="stroke:#b3b3b3;stroke-width:0.7" transform="rotate(180,-5,0)" id="polyline1269"/>
      <path d="M 0,0 H 4" style="stroke:#b3b3b3;stroke-width:1" transform="rotate(-165,-5,-0.65826249)" id="polyline1271"/>
      <path d="M 0,0 H 2.5" style="stroke:#b3b3b3;stroke-width:0.7" transform="rotate(-150,-5,-1.339746)" id="polyline1273"/>
      <path d="M 0,0 H 2.5" style="stroke:#b3b3b3;stroke-width:0.7" transform="rotate(-135,-5,-2.0710678)" id="polyline1275"/>
      <path d="M 0,0 H 2.5" style="stroke:#b3b3b3;stroke-width:0.7" transform="rotate(-120,-5,-2.8867513)" id="polyline1277"/>
      <path d="M 0,0 H 2.5" style="stroke:#b3b3b3;stroke-width:0.7" transform="rotate(-105,-5,-3.8366349)" id="polyline1279"/>
      <path d="M 0,0 H 5" style="stroke:#b3b3b3;stroke-width:1" transform="rotate(-90,-5,-5)" id="polyline1281"/>
      <path d="M 0,0 H 2.5" style="stroke:#b3b3b3;stroke-width:0.7" transform="rotate(-75,-5,-6.5161269)" id="polyline1283"/>
      <path d="M 0,0 H 2.5" style="stroke:#b3b3b3;stroke-width:0.7" transform="rotate(-60,-5,-8.660254)" id="polyline1285"/>
      <path d="M 0,0 H 2.5" style="stroke:#b3b3b3;stroke-width:0.7" transform="rotate(-45,-5,-12.071068)" id="polyline1287"/>
      <path d="M 0,0 H 2.5" style="stroke:#b3b3b3;stroke-width:0.7" transform="rotate(-30,-5,-18.660254)" id="polyline1289"/>
      <path d="M 0,0 H 4" style="stroke:#b3b3b3;stroke-width:1" transform="rotate(-15,-5,-37.978771)" id="polyline1291"/>
      <path d="M 0,0 H 2.5" style="stroke:#b3b3b3;stroke-width:0.7" transform="translate(10)" id="polyline1293"/>
      <path d="M 0,0 H 2.5" style="stroke:#b3b3b3;stroke-width:0.7" transform="rotate(15,-5,37.978771)" id="polyline1295"/>
      <path d="M 0,0 H 2.5" style="stroke:#b3b3b3;stroke-width:0.7" transform="rotate(30,-5,18.660254)" id="polyline1297"/>
      <path d="M 0,0 H 2.5" style="stroke:#b3b3b3;stroke-width:0.7" transform="rotate(45,-5,12.071068)" id="polyline1299"/>
      <path d="M 0,0 H 4" style="stroke:#b3b3b3;stroke-width:1" transform="rotate(60,-5,8.660254)" id="polyline1301"/>
    </g>
  </g>
  <g style="font-weight:bold;font-size:6.66667px;font-family:Roboto, sans-serif;letter-spacing:2px;fill:#b3b3b3" id="text1307" aria-label="1">
    <path id="path2104" style="font-weight:bold;font-size:6.66667px;font-family:Roboto, sans-serif;letter-spacing:2px;fill:#b3b3b3" d="m 63.107423,64 h -0.940756 v -3.626304 l -1.123047,0.348308 v -0.764975 l 1.962892,-0.703125 h 0.100911 z"/>
  </g>
  <g transform="translate(66.5,58.5)" id="g1309"/>
  <g transform="translate(58.5,77.3)" id="g1311"/>
  <g transform="translate(46.5,65.3)" id="g1357">
    <g transform="translate(20,20)" id="g1355">
      <path d="M 0,0 H 4" style="stroke:#b3b3b3;stroke-width:1" transform="rotate(120,-5,2.8867513)" id="polyline1313"/>
      <path d="M 0,0 H 2.5" style="stroke:#b3b3b3;stroke-width:0.7" transform="rotate(135,-5,2.0710678)" id="polyline1315"/>
      <path d="M 0,0 H 2.5" style="stroke:#b3b3b3;stroke-width:0.7" transform="rotate(150,-5,1.339746)" id="polyline1317"/>
      <path d="M 0,0 H 2.5" style="stroke:#b3b3b3;stroke-width:0.7" transform="rotate(165,-5,0.65826249)" id="polyline1319"/>
      <path d="M 0,0 H 2.5" style="stroke:#b3b3b3;stroke-width:0.7" transform="rotate(180,-5,0)" id="polyline1321"/>
      <path d="M 0,0 H 4" style="stroke:#b3b3b3;stroke-width:1" transform="rotate(-165,-5,-0.65826249)" id="polyline1323"/>
      <path d="M 0,0 H 2.5" style="stroke:#b3b3b3;stroke-width:0.7" transform="rotate(-150,-5,-1.339746)" id="polyline1325"/>
      <path d="M 0,0 H 2.5" style="stroke:#b3b3b3;stroke-width:0.7" transform="rotate(-135,-5,-2.0710678)" id="polyline1327"/>
      <path d="M 0,0 H 2.5" style="stroke:#b3b3b3;stroke-width:0.7" transform="rotate(-120,-5,-2.8867513)" id="polyline1329"/>
      <path d="M 0,0 H 2.5" style="stroke:#b3b3b3;stroke-width:0.7" transform="rotate(-105,-5,-3.8366349)" id="polyline1331"/>
      <path d="M 0,0 H 5" style="stroke:#b3b3b3;stroke-width:1" transform="rotate(-90,-5,-5)" id="polyline1333"/>
      <path d="M 0,0 H 2.5" style="stroke:#b3b3b3;stroke-width:0.7" transform="rotate(-75,-5,-6.5161269)" id="polyline1335"/>
      <path d="M 0,0 H 2.5" style="stroke:#b3b3b3;stroke-width:0.7" transform="rotate(-60,-5,-8.660254)" id="polyline1337"/>
      <path d="M 0,0 H 2.5" style="stroke:#b3b3b3;stroke-width:0.7" transform="rotate(-45,-5,-12.071068)" id="polyline1339"/>
      <path d="M 0,0 H 2.5" style="stroke:#b3b3b3;stroke-width:0.7" transform="rotate(-30,-5,-18.660254)" id="polyline1341"/>
      <path d="M 0,0 H 4" style="stroke:#b3b3b3;stroke-width:1" transform="rotate(-15,-5,-37.978771)" id="polyline1343"/>
      <path d="M 0,0 H 2.5" style="stroke:#b3b3b3;stroke-width:0.7" transform="translate(10)" id="polyline1345"/>
      <path d="M 0,0 H 2.5" style="stroke:#b3b3b3;stroke-width:0.7" transform="rotate(15,-5,37.978771)" id="polyline1347"/>
      <path d="M 0,0 H 2.5" style="stroke:#b3b3b3;stroke-width:0.7" transform="rotate(30,-5,18.660254)" id="polyline1349"/>
      <path d="M 0,0 H 2.5" style="stroke:#b3b3b3;stroke-width:0.7" transform="rotate(45,-5,12.071068)" id="polyline1351"/>
      <path d="M 0,0 H 4" style="stroke:#b3b3b3;stroke-width:1" transform="rotate(60,-5,8.660254)" id="polyline1353"/>
    </g>
  </g>
  <g style="font-weight:bold;font-size:6.66667px;font-family:Roboto, sans-serif;letter-spacing:2px;fill:#b3b3b3" id="text1359" aria-label="2">
    <path id="path2080" style="font-weight:bold;font-size:6.66667px;font-family:Roboto, sans-serif;letter-spacing:2px;fill:#b3b3b3" d="m 64.070965,105.3 h -3.248699 v -0.64453 l 1.533204,-1.63411 q 0.315755,-0.34506 0.465495,-0.60222 0.152995,-0.25716 0.152995,-0.48828 0,-0.31575 -0.159506,-0.49479 -0.159505,-0.18229 -0.455729,-0.18229 -0.319011,0 -0.504558,0.22135 -0.182291,0.2181 -0.182291,0.57617 h -0.944011 q 0,-0.43294 0.205078,-0.79101 0.208333,-0.35808 0.585938,-0.5599 0.377604,-0.20508 0.85612,-0.20508 0.732422,0 1.136068,0.35157 0.406901,0.35156 0.406901,0.99283 0,0.35157 -0.182291,0.71615 -0.182292,0.36458 -0.625001,0.84961 l -1.077474,1.13607 h 2.037761 z"/>
  </g>
  <g transform="translate(66.5,99.8)" id="g1361"/>
  <g transform="translate(58.5,118.6)" id="g1363"/>
  <g transform="translate(46.5,106.6)" id="g1409">
    <g transform="translate(20,20)" id="g1407">
      <path d="M 0,0 H 4" style="stroke:#b3b3b3;stroke-width:1" transform="rotate(120,-5,2.8867513)" id="polyline1365"/>
      <path d="M 0,0 H 2.5" style="stroke:#b3b3b3;stroke-width:0.7" transform="rotate(135,-5,2.0710678)" id="polyline1367"/>
      <path d="M 0,0 H 2.5" style="stroke:#b3b3b3;stroke-width:0.7" transform="rotate(150,-5,1.339746)" id="polyline1369"/>
      <path d="M 0,0 H 2.5" style="stroke:#b3b3b3;stroke-width:0.7" transform="rotate(165,-5,0.65826249)" id="polyline1371"/>
      <path d="M 0,0 H 2.5" style="stroke:#b3b3b3;stroke-width:0.7" transform="rotate(180,-5,0)" id="polyline1373"/>
      <path d="M 0,0 H 4" style="stroke:#b3b3b3;stroke-width:1" transform="rotate(-165,-5,-0.65826249)" id="polyline1375"/>
      <path d="M 0,0 H 2.5" style="stroke:#b3b3b3;stroke-width:0.7" transform="rotate(-150,-5,-1.339746)" id="polyline1377"/>
      <path d="M 0,0 H 2.5" style="stroke:#b3b3b3;stroke-width:0.7" transform="rotate(-135,-5,-2.0710678)" id="polyline1379"/>
      <path d="M 0,0 H 2.5" style="stroke:#b3b3b3;stroke-width:0.7" transform="rotate(-120,-5,-2.8867513)" id="polyline1381"/>
      <path d="M 0,0 H 2.5" style="stroke:#b3b3b3;stroke-width:0.7" transform="rotate(-105,-5,-3.8366349)" id="polyline1383"/>
      <path d="M 0,0 H 5" style="stroke:#b3b3b3;stroke-width:1" transform="rotate(-90,-5,-5)" id="polyline1385"/>
      <path d="M 0,0 H 2.5" style="stroke:#b3b3b3;stroke-width:0.7" transform="rotate(-75,-5,-6.5161269)" id="polyline1387"/>
      <path d="M 0,0 H 2.5" style="stroke:#b3b3b3;stroke-width:0.7" transform="rotate(-60,-5,-8.660254)" id="polyline1389"/>
      <path d="M 0,0 H 2.5" style="stroke:#b3b3b3;stroke-width:0.7" transform="rotate(-45,-5,-12.071068)" id="polyline1391"/>
      <path d="M 0,0 H 2.5" style="stroke:#b3b3b3;stroke-width:0.7" transform="rotate(-30,-5,-18.660254)" id="polyline1393"/>
      <path d="M 0,0 H 4" style="stroke:#b3b3b3;stroke-width:1" transform="rotate(-15,-5,-37.978771)" id="polyline1395"/>
      <path d="M 0,0 H 2.5" style="stroke:#b3b3b3;stroke-width:0.7" transform="translate(10)" id="polyline1397"/>
      <path d="M 0,0 H 2.5" style="stroke:#b3b3b3;stroke-width:0.7" transform="rotate(15,-5,37.978771)" id="polyline1399"/>
      <path d="M 0,0 H 2.5" style="stroke:#b3b3b3;stroke-width:0.7" transform="rotate(30,-5,18.660254)" id="polyline1401"/>
      <path d="M 0,0 H 2.5" style="stroke:#b3b3b3;stroke-width:0.7" transform="rotate(45,-5,12.071068)" id="polyline1403"/>
      <path d="M 0,0 H 4" style="stroke:#b3b3b3;stroke-width:1" transform="rotate(60,-5,8.660254)" id="polyline1405"/>
    </g>
  </g>
  <g style="font-weight:bold;font-size:6.66667px;font-family:Roboto, sans-serif;letter-spacing:2px;fill:#b3b3b3" id="text1411" aria-label="3">
    <path id="path2056" style="font-weight:bold;font-size:6.66667px;font-family:Roboto, sans-serif;letter-spacing:2px;fill:#b3b3b3" d="M 61.779297,143.81355 H 62.2806 q 0.358073,0 0.530599,-0.17904 0.172526,-0.17904 0.172526,-0.47526 0,-0.28646 -0.172526,-0.44596 -0.169271,-0.15951 -0.46875,-0.15951 -0.270183,0 -0.452474,0.14974 -0.182292,0.14648 -0.182292,0.38411 h -0.940756 q 0,-0.37109 0.198568,-0.66406 0.201823,-0.29622 0.559896,-0.46224 0.361328,-0.16601 0.794271,-0.16601 0.751954,0 1.178386,0.36132 0.426433,0.35808 0.426433,0.98959 0,0.32552 -0.198568,0.59896 -0.198568,0.27343 -0.520834,0.41992 0.400391,0.14323 0.595704,0.42969 0.198568,0.28646 0.198568,0.67708 0,0.63151 -0.46224,1.01237 -0.458985,0.38086 -1.217449,0.38086 -0.709635,0 -1.16211,-0.37435 -0.449219,-0.37435 -0.449219,-0.98958 h 0.940756 q 0,0.26692 0.198568,0.4362 0.201823,0.16927 0.494792,0.16927 0.335286,0 0.524089,-0.17578 0.192057,-0.17904 0.192057,-0.47201 0,-0.70964 -0.78125,-0.70964 h -0.498048 z"/>
  </g>
  <g transform="translate(66.5,141.1)" id="g1413"/>
  <g transform="translate(58.5,159.9)" id="g1415"/>
  <g transform="translate(46.5,147.9)" id="g1461">
    <g transform="translate(20,20)" id="g1459">
      <path d="M 0,0 H 4" style="stroke:#b3b3b3;stroke-width:1" transform="rotate(120,-5,2.8867513)" id="polyline1417"/>
      <path d="M 0,0 H 2.5" style="stroke:#b3b3b3;stroke-width:0.7" transform="rotate(135,-5,2.0710678)" id="polyline1419"/>
      <path d="M 0,0 H 2.5" style="stroke:#b3b3b3;stroke-width:0.7" transform="rotate(150,-5,1.339746)" id="polyline1421"/>
      <path d="M 0,0 H 2.5" style="stroke:#b3b3b3;stroke-width:0.7" transform="rotate(165,-5,0.65826249)" id="polyline1423"/>
      <path d="M 0,0 H 2.5" style="stroke:#b3b3b3;stroke-width:0.7" transform="rotate(180,-5,0)" id="polyline1425"/>
      <path d="M 0,0 H 4" style="stroke:#b3b3b3;stroke-width:1" transform="rotate(-165,-5,-0.65826249)" id="polyline1427"/>
      <path d="M 0,0 H 2.5" style="stroke:#b3b3b3;stroke-width:0.7" transform="rotate(-150,-5,-1.339746)" id="polyline1429"/>
      <path d="M 0,0 H 2.5" style="stroke:#b3b3b3;stroke-width:0.7" transform="rotate(-135,-5,-2.0710678)" id="polyline1431"/>
      <path d="M 0,0 H 2.5" style="stroke:#b3b3b3;stroke-width:0.7" transform="rotate(-120,-5,-2.8867513)" id="polyline1433"/>
      <path d="M 0,0 H 2.5" style="stroke:#b3b3b3;stroke-width:0.7" transform="rotate(-105,-5,-3.8366349)" id="polyline1435"/>
      <path d="M 0,0 H 5" style="stroke:#b3b3b3;stroke-width:1" transform="rotate(-90,-5,-5)" id="polyline1437"/>
      <path d="M 0,0 H 2.5" style="stroke:#b3b3b3;stroke-width:0.7" transform="rotate(-75,-5,-6.5161269)" id="polyline1439"/>
      <path d="M 0,0 H 2.5" style="stroke:#b3b3b3;stroke-width:0.7" transform="rotate(-60,-5,-8.660254)" id="polyline1441"/>
      <path d="M 0,0 H 2.5" style="stroke:#b3b3b3;stroke-width:0.7" transform="rotate(-45,-5,-12.071068)" id="polyline1443"/>
      <path d="M 0,0 H 2.5" style="stroke:#b3b3b3;stroke-width:0.7" transform="rotate(-30,-5,-18.660254)" id="polyline1445"/>
      <path d="M 0,0 H 4" style="stroke:#b3b3b3;stroke-width:1" transform="rotate(-15,-5,-37.978771)" id="polyline1447"/>
      <path d="M 0,0 H 2.5" style="stroke:#b3b3b3;stroke-width:0.7" transform="translate(10)" id="polyline1449"/>
      <path d="M 0,0 H 2.5" style="stroke:#b3b3b3;stroke-width:0.7" transform="rotate(15,-5,37.978771)" id="polyline1451"/>
      <path d="M 0,0 H 2.5" style="stroke:#b3b3b3;stroke-width:0.7" transform="rotate(30,-5,18.660254)" id="polyline1453"/>
      <path d="M 0,0 H 2.5" style="stroke:#b3b3b3;stroke-width:0.7" transform="rotate(45,-5,12.071068)" id="polyline1455"/>
      <path d="M 0,0 H 4" style="stroke:#b3b3b3;stroke-width:1" transform="rotate(60,-5,8.660254)" id="polyline1457"/>
    </g>
  </g>
  <g style="font-weight:bold;font-size:6.66667px;font-family:Roboto, sans-serif;letter-spacing:2px;fill:#b3b3b3" id="text1463" aria-label="4">
    <path id="path2032" style="font-weight:bold;font-size:6.66667px;font-family:Roboto, sans-serif;letter-spacing:2px;fill:#b3b3b3" d="m 63.60547,186.11614 h 0.53711 v 0.75846 h -0.53711 v 1.02539 h -0.940755 v -1.02539 h -1.943361 l -0.04232,-0.59245 1.975912,-3.12174 h 0.950521 z m -1.988933,0 h 1.048178 v -1.67318 l -0.06185,0.10742 z"/>
  </g>
  <g transform="translate(66.5,182.4)" id="g1465"/>
  <g transform="translate(58.5,201.1)" id="g1467"/>
  <g transform="translate(46.5,189.1)" id="g1513">
    <g transform="translate(20,20)" id="g1511">
      <path d="M 0,0 H 4" style="stroke:#b3b3b3;stroke-width:1" transform="rotate(120,-5,2.8867513)" id="polyline1469"/>
      <path d="M 0,0 H 2.5" style="stroke:#b3b3b3;stroke-width:0.7" transform="rotate(135,-5,2.0710678)" id="polyline1471"/>
      <path d="M 0,0 H 2.5" style="stroke:#b3b3b3;stroke-width:0.7" transform="rotate(150,-5,1.339746)" id="polyline1473"/>
      <path d="M 0,0 H 2.5" style="stroke:#b3b3b3;stroke-width:0.7" transform="rotate(165,-5,0.65826249)" id="polyline1475"/>
      <path d="M 0,0 H 2.5" style="stroke:#b3b3b3;stroke-width:0.7" transform="rotate(180,-5,0)" id="polyline1477"/>
      <path d="M 0,0 H 4" style="stroke:#b3b3b3;stroke-width:1" transform="rotate(-165,-5,-0.65826249)" id="polyline1479"/>
      <path d="M 0,0 H 2.5" style="stroke:#b3b3b3;stroke-width:0.7" transform="rotate(-150,-5,-1.339746)" id="polyline1481"/>
      <path d="M 0,0 H 2.5" style="stroke:#b3b3b3;stroke-width:0.7" transform="rotate(-135,-5,-2.0710678)" id="polyline1483"/>
      <path d="M 0,0 H 2.5" style="stroke:#b3b3b3;stroke-width:0.7" transform="rotate(-120,-5,-2.8867513)" id="polyline1485"/>
      <path d="M 0,0 H 2.5" style="stroke:#b3b3b3;stroke-width:0.7" transform="rotate(-105,-5,-3.8366349)" id="polyline1487"/>
      <path d="M 0,0 H 5" style="stroke:#b3b3b3;stroke-width:1" transform="rotate(-90,-5,-5)" id="polyline1489"/>
      <path d="M 0,0 H 2.5" style="stroke:#b3b3b3;stroke-width:0.7" transform="rotate(-75,-5,-6.5161269)" id="polyline1491"/>
      <path d="M 0,0 H 2.5" style="stroke:#b3b3b3;stroke-width:0.7" transform="rotate(-60,-5,-8.660254)" id="polyline1493"/>
      <path d="M 0,0 H 2.5" style="stroke:#b3b3b3;stroke-width:0.7" transform="rotate(-45,-5,-12.071068)" id="polyline1495"/>
      <path d="M 0,0 H 2.5" style="stroke:#b3b3b3;stroke-width:0.7" transform="rotate(-30,-5,-18.660254)" id="polyline1497"/>
      <path d="M 0,0 H 4" style="stroke:#b3b3b3;stroke-width:1" transform="rotate(-15,-5,-37.978771)" id="polyline1499"/>
      <path d="M 0,0 H 2.5" style="stroke:#b3b3b3;stroke-width:0.7" transform="translate(10)" id="polyline1501"/>
      <path d="M 0,0 H 2.5" style="stroke:#b3b3b3;stroke-width:0.7" transform="rotate(15,-5,37.978771)" id="polyline1503"/>
      <path d="M 0,0 H 2.5" style="stroke:#b3b3b3;stroke-width:0.7" transform="rotate(30,-5,18.660254)" id="polyline1505"/>
      <path d="M 0,0 H 2.5" style="stroke:#b3b3b3;stroke-width:0.7" transform="rotate(45,-5,12.071068)" id="polyline1507"/>
      <path d="M 0,0 H 4" style="stroke:#b3b3b3;stroke-width:1" transform="rotate(60,-5,8.660254)" id="polyline1509"/>
    </g>
  </g>
  <g style="font-weight:bold;font-size:6.66667px;font-family:Roboto, sans-serif;letter-spacing:2px;fill:#b3b3b3" id="text1515" aria-label="5">
    <path id="path2008" style="font-weight:bold;font-size:6.66667px;font-family:Roboto, sans-serif;letter-spacing:2px;fill:#b3b3b3" d="m 60.96224,226.76928 0.273437,-2.40886 h 2.656252 v 0.78451 h -1.884767 l -0.117187,1.01888 q 0.335286,-0.17904 0.712891,-0.17904 0.677083,0 1.061198,0.41992 0.384115,0.41992 0.384115,1.17513 0,0.45899 -0.195313,0.82357 -0.192057,0.36133 -0.553385,0.56315 -0.361329,0.19857 -0.852865,0.19857 -0.429688,0 -0.797527,-0.17253 -0.367839,-0.17578 -0.582682,-0.49153 -0.211589,-0.31576 -0.22461,-0.7194 h 0.93099 q 0.0293,0.29622 0.205078,0.46224 0.179037,0.16276 0.465495,0.16276 0.319011,0 0.491537,-0.22787 0.172526,-0.23112 0.172526,-0.65104 0,-0.40365 -0.198568,-0.61849 -0.198567,-0.21484 -0.563151,-0.21484 -0.335287,0 -0.54362,0.17578 l -0.09115,0.0846 z"/>
  </g>
  <g transform="translate(66.5,223.6)" id="g1517"/>
  <g transform="translate(58.5,242.4)" id="g1519"/>
  <g transform="translate(46.5,230.4)" id="g1565">
    <g transform="translate(20,20)" id="g1563">
      <path d="M 0,0 H 4" style="stroke:#b3b3b3;stroke-width:1" transform="rotate(120,-5,2.8867513)" id="polyline1521"/>
      <path d="M 0,0 H 2.5" style="stroke:#b3b3b3;stroke-width:0.7" transform="rotate(135,-5,2.0710678)" id="polyline1523"/>
      <path d="M 0,0 H 2.5" style="stroke:#b3b3b3;stroke-width:0.7" transform="rotate(150,-5,1.339746)" id="polyline1525"/>
      <path d="M 0,0 H 2.5" style="stroke:#b3b3b3;stroke-width:0.7" transform="rotate(165,-5,0.65826249)" id="polyline1527"/>
      <path d="M 0,0 H 2.5" style="stroke:#b3b3b3;stroke-width:0.7" transform="rotate(180,-5,0)" id="polyline1529"/>
      <path d="M 0,0 H 4" style="stroke:#b3b3b3;stroke-width:1" transform="rotate(-165,-5,-0.65826249)" id="polyline1531"/>
      <path d="M 0,0 H 2.5" style="stroke:#b3b3b3;stroke-width:0.7" transform="rotate(-150,-5,-1.339746)" id="polyline1533"/>
      <path d="M 0,0 H 2.5" style="stroke:#b3b3b3;stroke-width:0.7" transform="rotate(-135,-5,-2.0710678)" id="polyline1535"/>
      <path d="M 0,0 H 2.5" style="stroke:#b3b3b3;stroke-width:0.7" transform="rotate(-120,-5,-2.8867513)" id="polyline1537"/>
      <path d="M 0,0 H 2.5" style="stroke:#b3b3b3;stroke-width:0.7" transform="rotate(-105,-5,-3.8366349)" id="polyline1539"/>
      <path d="M 0,0 H 5" style="stroke:#b3b3b3;stroke-width:1" transform="rotate(-90,-5,-5)" id="polyline1541"/>
      <path d="M 0,0 H 2.5" style="stroke:#b3b3b3;stroke-width:0.7" transform="rotate(-75,-5,-6.5161269)" id="polyline1543"/>
      <path d="M 0,0 H 2.5" style="stroke:#b3b3b3;stroke-width:0.7" transform="rotate(-60,-5,-8.660254)" id="polyline1545"/>
      <path d="M 0,0 H 2.5" style="stroke:#b3b3b3;stroke-width:0.7" transform="rotate(-45,-5,-12.071068)" id="polyline1547"/>
      <path d="M 0,0 H 2.5" style="stroke:#b3b3b3;stroke-width:0.7" transform="rotate(-30,-5,-18.660254)" id="polyline1549"/>
      <path d="M 0,0 H 4" style="stroke:#b3b3b3;stroke-width:1" transform="rotate(-15,-5,-37.978771)" id="polyline1551"/>
      <path d="M 0,0 H 2.5" style="stroke:#b3b3b3;stroke-width:0.7" transform="translate(10)" id="polyline1553"/>
      <path d="M 0,0 H 2.5" style="stroke:#b3b3b3;stroke-width:0.7" transform="rotate(15,-5,37.978771)" id="polyline1555"/>
      <path d="M 0,0 H 2.5" style="stroke:#b3b3b3;stroke-width:0.7" transform="rotate(30,-5,18.660254)" id="polyline1557"/>
      <path d="M 0,0 H 2.5" style="stroke:#b3b3b3;stroke-width:0.7" transform="rotate(45,-5,12.071068)" id="polyline1559"/>
      <path d="M 0,0 H 4" style="stroke:#b3b3b3;stroke-width:1" transform="rotate(60,-5,8.660254)" id="polyline1561"/>
    </g>
  </g>
  <g style="font-weight:bold;font-size:6.66667px;font-family:Roboto, sans-serif;letter-spacing:2px;fill:#b3b3b3" id="text1567" aria-label="6">
    <path id="path1984" style="font-weight:bold;font-size:6.66667px;font-family:Roboto, sans-serif;letter-spacing:2px;fill:#b3b3b3" d="m 63.37435,265.61158 v 0.77474 h -0.09115 q -0.638021,0.01 -1.028646,0.33203 -0.38737,0.32227 -0.465495,0.89518 0.377604,-0.38411 0.953777,-0.38411 0.618489,0 0.983073,0.44271 0.364584,0.44271 0.364584,1.16536 0,0.46224 -0.201824,0.83659 -0.198567,0.37435 -0.566406,0.58268 -0.364584,0.20834 -0.826823,0.20834 -0.748699,0 -1.210938,-0.52084 -0.458985,-0.52083 -0.458985,-1.38997 v -0.33854 q 0,-0.77149 0.289714,-1.36068 0.292969,-0.59245 0.836589,-0.91471 0.546875,-0.32552 1.266276,-0.32878 z m -0.917969,2.37305 q -0.227865,0 -0.413412,0.12044 -0.185546,0.11719 -0.273437,0.3125 v 0.28646 q 0,0.472 0.185547,0.73893 0.185547,0.26367 0.520833,0.26367 0.302735,0 0.488282,-0.23763 0.188802,-0.24088 0.188802,-0.62174 0,-0.38737 -0.188802,-0.625 -0.188802,-0.23763 -0.507813,-0.23763 z"/>
  </g>
  <g transform="translate(66.5,264.9)" id="g1569"/>
  <g transform="translate(58.5,283.7)" id="g1571"/>
  <g transform="translate(46.5,271.7)" id="g1617">
    <g transform="translate(20,20)" id="g1615">
      <path d="M 0,0 H 4" style="stroke:#b3b3b3;stroke-width:1" transform="rotate(120,-5,2.8867513)" id="polyline1573"/>
      <path d="M 0,0 H 2.5" style="stroke:#b3b3b3;stroke-width:0.7" transform="rotate(135,-5,2.0710678)" id="polyline1575"/>
      <path d="M 0,0 H 2.5" style="stroke:#b3b3b3;stroke-width:0.7" transform="rotate(150,-5,1.339746)" id="polyline1577"/>
      <path d="M 0,0 H 2.5" style="stroke:#b3b3b3;stroke-width:0.7" transform="rotate(165,-5,0.65826249)" id="polyline1579"/>
      <path d="M 0,0 H 2.5" style="stroke:#b3b3b3;stroke-width:0.7" transform="rotate(180,-5,0)" id="polyline1581"/>
      <path d="M 0,0 H 4" style="stroke:#b3b3b3;stroke-width:1" transform="rotate(-165,-5,-0.65826249)" id="polyline1583"/>
      <path d="M 0,0 H 2.5" style="stroke:#b3b3b3;stroke-width:0.7" transform="rotate(-150,-5,-1.339746)" id="polyline1585"/>
      <path d="M 0,0 H 2.5" style="stroke:#b3b3b3;stroke-width:0.7" transform="rotate(-135,-5,-2.0710678)" id="polyline1587"/>
      <path d="M 0,0 H 2.5" style="stroke:#b3b3b3;stroke-width:0.7" transform="rotate(-120,-5,-2.8867513)" id="polyline1589"/>
      <path d="M 0,0 H 2.5" style="stroke:#b3b3b3;stroke-width:0.7" transform="rotate(-105,-5,-3.8366349)" id="polyline1591"/>
      <path d="M 0,0 H 5" style="stroke:#b3b3b3;stroke-width:1" transform="rotate(-90,-5,-5)" id="polyline1593"/>
      <path d="M 0,0 H 2.5" style="stroke:#b3b3b3;stroke-width:0.7" transform="rotate(-75,-5,-6.5161269)" id="polyline1595"/>
      <path d="M 0,0 H 2.5" style="stroke:#b3b3b3;stroke-width:0.7" transform="rotate(-60,-5,-8.660254)" id="polyline1597"/>
      <path d="M 0,0 H 2.5" style="stroke:#b3b3b3;stroke-width:0.7" transform="rotate(-45,-5,-12.071068)" id="polyline1599"/>
      <path d="M 0,0 H 2.5" style="stroke:#b3b3b3;stroke-width:0.7" transform="rotate(-30,-5,-18.660254)" id="polyline1601"/>
      <path d="M 0,0 H 4" style="stroke:#b3b3b3;stroke-width:1" transform="rotate(-15,-5,-37.978771)" id="polyline1603"/>
      <path d="M 0,0 H 2.5" style="stroke:#b3b3b3;stroke-width:0.7" transform="translate(10)" id="polyline1605"/>
      <path d="M 0,0 H 2.5" style="stroke:#b3b3b3;stroke-width:0.7" transform="rotate(15,-5,37.978771)" id="polyline1607"/>
      <path d="M 0,0 H 2.5" style="stroke:#b3b3b3;stroke-width:0.7" transform="rotate(30,-5,18.660254)" id="polyline1609"/>
      <path d="M 0,0 H 2.5" style="stroke:#b3b3b3;stroke-width:0.7" transform="rotate(45,-5,12.071068)" id="polyline1611"/>
      <path d="M 0,0 H 4" style="stroke:#b3b3b3;stroke-width:1" transform="rotate(60,-5,8.660254)" id="polyline1613"/>
    </g>
  </g>
  <g style="font-weight:bold;font-size:6.66667px;font-family:Roboto, sans-serif;letter-spacing:2px;fill:#b3b3b3" id="text1619" aria-label="7">
    <path id="path1960" style="font-weight:bold;font-size:6.66667px;font-family:Roboto, sans-serif;letter-spacing:2px;fill:#b3b3b3" d="m 64.044924,307.48777 -1.832684,4.21224 h -0.992839 l 1.835939,-3.97786 h -2.356772 v -0.76172 h 3.346356 z"/>
  </g>
  <g transform="translate(66.5,306.2)" id="g1621"/>
  <g transform="translate(58.5,325)" id="g1623"/>
  <g transform="translate(46.5,313)" id="g1669">
    <g transform="translate(20,20)" id="g1667">
      <path d="M 0,0 H 4" style="stroke:#b3b3b3;stroke-width:1" transform="rotate(120,-5,2.8867513)" id="polyline1625"/>
      <path d="M 0,0 H 2.5" style="stroke:#b3b3b3;stroke-width:0.7" transform="rotate(135,-5,2.0710678)" id="polyline1627"/>
      <path d="M 0,0 H 2.5" style="stroke:#b3b3b3;stroke-width:0.7" transform="rotate(150,-5,1.339746)" id="polyline1629"/>
      <path d="M 0,0 H 2.5" style="stroke:#b3b3b3;stroke-width:0.7" transform="rotate(165,-5,0.65826249)" id="polyline1631"/>
      <path d="M 0,0 H 2.5" style="stroke:#b3b3b3;stroke-width:0.7" transform="rotate(180,-5,0)" id="polyline1633"/>
      <path d="M 0,0 H 4" style="stroke:#b3b3b3;stroke-width:1" transform="rotate(-165,-5,-0.65826249)" id="polyline1635"/>
      <path d="M 0,0 H 2.5" style="stroke:#b3b3b3;stroke-width:0.7" transform="rotate(-150,-5,-1.339746)" id="polyline1637"/>
      <path d="M 0,0 H 2.5" style="stroke:#b3b3b3;stroke-width:0.7" transform="rotate(-135,-5,-2.0710678)" id="polyline1639"/>
      <path d="M 0,0 H 2.5" style="stroke:#b3b3b3;stroke-width:0.7" transform="rotate(-120,-5,-2.8867513)" id="polyline1641"/>
      <path d="M 0,0 H 2.5" style="stroke:#b3b3b3;stroke-width:0.7" transform="rotate(-105,-5,-3.8366349)" id="polyline1643"/>
      <path d="M 0,0 H 5" style="stroke:#b3b3b3;stroke-width:1" transform="rotate(-90,-5,-5)" id="polyline1645"/>
      <path d="M 0,0 H 2.5" style="stroke:#b3b3b3;stroke-width:0.7" transform="rotate(-75,-5,-6.5161269)" id="polyline1647"/>
      <path d="M 0,0 H 2.5" style="stroke:#b3b3b3;stroke-width:0.7" transform="rotate(-60,-5,-8.660254)" id="polyline1649"/>
      <path d="M 0,0 H 2.5" style="stroke:#b3b3b3;stroke-width:0.7" transform="rotate(-45,-5,-12.071068)" id="polyline1651"/>
      <path d="M 0,0 H 2.5" style="stroke:#b3b3b3;stroke-width:0.7" transform="rotate(-30,-5,-18.660254)" id="polyline1653"/>
      <path d="M 0,0 H 4" style="stroke:#b3b3b3;stroke-width:1" transform="rotate(-15,-5,-37.978771)" id="polyline1655"/>
      <path d="M 0,0 H 2.5" style="stroke:#b3b3b3;stroke-width:0.7" transform="translate(10)" id="polyline1657"/>
      <path d="M 0,0 H 2.5" style="stroke:#b3b3b3;stroke-width:0.7" transform="rotate(15,-5,37.978771)" id="polyline1659"/>
      <path d="M 0,0 H 2.5" style="stroke:#b3b3b3;stroke-width:0.7" transform="rotate(30,-5,18.660254)" id="polyline1661"/>
      <path d="M 0,0 H 2.5" style="stroke:#b3b3b3;stroke-width:0.7" transform="rotate(45,-5,12.071068)" id="polyline1663"/>
      <path d="M 0,0 H 4" style="stroke:#b3b3b3;stroke-width:1" transform="rotate(60,-5,8.660254)" id="polyline1665"/>
    </g>
  </g>
  <g style="font-weight:bold;font-size:6.66667px;font-family:Roboto, sans-serif;letter-spacing:2px;fill:#b3b3b3" id="text1671" aria-label="8">
    <path id="path1936" style="font-weight:bold;font-size:6.66667px;font-family:Roboto, sans-serif;letter-spacing:2px;fill:#b3b3b3" d="m 63.91146,349.52018 q 0,0.34505 -0.172526,0.61198 -0.172526,0.26693 -0.475261,0.42643 0.345052,0.16602 0.546875,0.45899 0.201823,0.28971 0.201823,0.68359 0,0.63151 -0.429687,0.99935 -0.429688,0.36458 -1.168621,0.36458 -0.738932,0 -1.171875,-0.36783 -0.432943,-0.36784 -0.432943,-0.9961 0,-0.39388 0.201823,-0.68685 0.201823,-0.29297 0.54362,-0.45573 -0.302735,-0.1595 -0.475261,-0.42643 -0.169271,-0.26693 -0.169271,-0.61198 0,-0.60547 0.403646,-0.96354 0.403646,-0.36133 1.097006,-0.36133 0.690105,0 1.093751,0.35807 0.406901,0.35482 0.406901,0.9668 z m -0.843099,2.11263 q 0,-0.30924 -0.179037,-0.49479 -0.179036,-0.18555 -0.481771,-0.18555 -0.299479,0 -0.478516,0.18555 -0.179036,0.18229 -0.179036,0.49479 0,0.30274 0.175781,0.48828 0.175781,0.18555 0.488281,0.18555 0.30599,0 0.478516,-0.17904 0.175782,-0.17903 0.175782,-0.49479 z m -0.09766,-2.06706 q 0,-0.27669 -0.146484,-0.4427 -0.146485,-0.16928 -0.413412,-0.16928 -0.263672,0 -0.410156,0.16276 -0.146485,0.16277 -0.146485,0.44922 0,0.28321 0.146485,0.45573 0.146484,0.17253 0.413411,0.17253 0.266928,0 0.410157,-0.17253 0.146484,-0.17252 0.146484,-0.45573 z"/>
  </g>
  <g transform="translate(66.5,347.5)" id="g1673"/>
</svg>
