<?xml version="1.0" encoding="UTF-8" standalone="no"?>
<svg xmlns:dc="http://purl.org/dc/elements/1.1/" xmlns:cc="http://creativecommons.org/ns#" xmlns:rdf="http://www.w3.org/1999/02/22-rdf-syntax-ns#" xmlns:svg="http://www.w3.org/2000/svg" xmlns="http://www.w3.org/2000/svg" xmlns:sodipodi="http://sodipodi.sourceforge.net/DTD/sodipodi-0.dtd" xmlns:inkscape="http://www.inkscape.org/namespaces/inkscape" inkscape:version="1.0 (4035a4f, 2020-05-01)" sodipodi:docname="svg_render_AMRM-pp.svg" id="svg1159" viewBox="0 0 90 380" height="380" width="90" version="1.1">
  <metadata id="metadata1163">
    <rdf:RDF>
      <cc:Work rdf:about="">
        <dc:format>image/svg+xml</dc:format>
        <dc:type rdf:resource="http://purl.org/dc/dcmitype/StillImage"/>
      </cc:Work>
    </rdf:RDF>
  </metadata>
  <sodipodi:namedview inkscape:current-layer="svg1159" inkscape:window-maximized="0" inkscape:window-y="23" inkscape:window-x="0" inkscape:cy="190" inkscape:cx="45" inkscape:zoom="1.7605263" showgrid="false" id="namedview1161" inkscape:window-height="480" inkscape:window-width="689" inkscape:pageshadow="2" inkscape:pageopacity="0" guidetolerance="10" gridtolerance="10" objecttolerance="10" borderopacity="1" bordercolor="#666666" pagecolor="#ffffff"/>
  
  <defs id="defs1087">
    <symbol viewBox="0 0 90px 90px" id="dial-rectify-amrm">
      <g id="g1059" transform="translate(45 45)">
        <text id="text1037" transform="rotate(-240) translate(29 0) rotate(240) translate(-4 3)" font-size="6.0pt">0</text>
        <polyline id="polyline1039" transform="rotate(-210) translate(26 0)" stroke-width="0.3" points="0,0 3.5,0"/>
        <polyline id="polyline1041" transform="rotate(-180) translate(26 0)" stroke-width="0.3" points="0,0 3.5,0"/>
        <polyline id="polyline1043" transform="rotate(-150) translate(26 0)" stroke-width="0.3" points="0,0 3.5,0"/>
        <polyline id="polyline1045" transform="rotate(-120) translate(26 0)" stroke-width="0.3" points="0,0 3.5,0"/>
        <polyline id="polyline1047" transform="rotate(-90) translate(26 0)" stroke-width="0.3" points="0,0 3.5,0"/>
        <polyline id="polyline1049" transform="rotate(-60) translate(26 0)" stroke-width="0.3" points="0,0 3.5,0"/>
        <polyline id="polyline1051" transform="rotate(-30) translate(26 0)" stroke-width="0.3" points="0,0 3.5,0"/>
        <polyline id="polyline1053" transform="rotate(0) translate(26 0)" stroke-width="0.3" points="0,0 3.5,0"/>
        <polyline id="polyline1055" transform="rotate(30) translate(26 0)" stroke-width="0.3" points="0,0 3.5,0"/>
        <polyline id="polyline1057" transform="rotate(60) translate(26 0)" stroke-width="1.5" points="0,0 5.5,0"/>
      </g>
    </symbol>
    <symbol viewBox="0 0 90px 90px" id="dial-drywet-amrm">
      <g id="g1084" transform="translate(45 45)">
        <text id="text1062" transform="rotate(-240) translate(29 0) rotate(240) translate(-4 3)" font-size="6.0pt">D</text>
        <polyline id="polyline1064" transform="rotate(-210) translate(26 0)" stroke-width="0.3" points="0,0 3.5,0"/>
        <polyline id="polyline1066" transform="rotate(-180) translate(26 0)" stroke-width="0.3" points="0,0 3.5,0"/>
        <polyline id="polyline1068" transform="rotate(-150) translate(26 0)" stroke-width="0.3" points="0,0 3.5,0"/>
        <polyline id="polyline1070" transform="rotate(-120) translate(26 0)" stroke-width="0.3" points="0,0 3.5,0"/>
        <polyline id="polyline1072" transform="rotate(-90) translate(26 0)" stroke-width="1.5" points="0,0 5.5,0"/>
        <polyline id="polyline1074" transform="rotate(-60) translate(26 0)" stroke-width="0.3" points="0,0 3.5,0"/>
        <polyline id="polyline1076" transform="rotate(-30) translate(26 0)" stroke-width="0.3" points="0,0 3.5,0"/>
        <polyline id="polyline1078" transform="rotate(0) translate(26 0)" stroke-width="0.3" points="0,0 3.5,0"/>
        <polyline id="polyline1080" transform="rotate(30) translate(26 0)" stroke-width="0.3" points="0,0 3.5,0"/>
        <text id="text1082" transform="rotate(60) translate(29 0) rotate(-60) translate(-1 3)" font-size="6.0pt">W</text>
      </g>
    </symbol>
  </defs>
  <path class="module-background background-fill" d="M 0,0 H 90 V 380 H 0 Z" style="fill:#dddddd" id="rect1089"/>
  <path class="module-border-inner" d="M 1,1 H 89 V 379 H 1 V 1" style="fill:none;stroke:#e4e4e4;stroke-width:0.5" id="polyline1091"/>
  <path class="module-border-middle" d="m 0.5,0.5 h 89 v 379 H 0.5 V 0.5" style="fill:none;stroke:#ebebeb;stroke-width:0.8" id="polyline1093"/>
  <path class="module-border-outer" d="M 0,0 H 90 V 380 H 0 V 0" style="fill:none;stroke:#f2f2f2;stroke-width:1" id="polyline1095"/>
  <g class="title" style="font-weight:normal;font-size:12px;font-family:Comfortaa, sans-serif;letter-spacing:3px;text-anchor:end;fill:#333333" id="text1097" transform="translate(83.0 17)" aria-label="AM/RM">
    <path id="path1369" style="font-weight:normal;font-size:12px;font-family:Comfortaa, sans-serif;letter-spacing:3px;text-anchor:end;fill:#333333" d="m -48.768,-0.66 q 0.048,0.084 0.048,0.192 0,0.192 -0.144,0.336 Q -48.996,0 -49.188,0 -49.5,0 -49.632,-0.288 l -0.804,-1.944 h -4.644 l -0.804,1.944 Q -55.98,0 -56.316,0 q -0.204,0 -0.336,-0.132 -0.12,-0.144 -0.12,-0.336 0,-0.12 0.036,-0.204 l 3.528,-8.376 q 0.132,-0.324 0.456,-0.324 0.324,0 0.444,0.324 z m -1.992,-2.376 -1.992,-4.812 -1.992,4.812 z"/>
    <path id="path1371" style="font-weight:normal;font-size:12px;font-family:Comfortaa, sans-serif;letter-spacing:3px;text-anchor:end;fill:#333333" d="m -35.4465,-9.372 q 0.192,0 0.324,0.132 0.132,0.132 0.132,0.336 v 8.436 q 0,0.192 -0.132,0.336 -0.132,0.132 -0.324,0.132 -0.204,0 -0.348,-0.132 -0.132,-0.144 -0.132,-0.336 V -7.26 l -3.336,6.816 q -0.144,0.228 -0.408,0.228 -0.3,0 -0.432,-0.288 l -3.324,-6.648 v 6.684 q 0,0.192 -0.132,0.336 -0.132,0.132 -0.336,0.132 -0.192,0 -0.336,-0.132 -0.132,-0.144 -0.132,-0.336 v -8.436 q 0,-0.204 0.132,-0.336 0.144,-0.132 0.336,-0.132 0.276,0 0.42,0.24 l 3.84,7.632 3.768,-7.632 q 0.144,-0.24 0.42,-0.24 z"/>
    <path id="path1373" style="font-weight:normal;font-size:12px;font-family:Comfortaa, sans-serif;letter-spacing:3px;text-anchor:end;fill:#333333" d="m -26.524875,-9.12 q 0.06,-0.132 0.168,-0.204 0.12,-0.072 0.264,-0.072 0.204,0 0.324,0.144 0.132,0.132 0.132,0.324 0,0.096 -0.036,0.192 l -3.768,9.408 q -0.096,0.264 -0.432,0.264 -0.192,0 -0.324,-0.132 -0.132,-0.132 -0.132,-0.324 0,-0.096 0.036,-0.204 z"/>
    <path id="path1375" style="font-weight:normal;font-size:12px;font-family:Comfortaa, sans-serif;letter-spacing:3px;text-anchor:end;fill:#333333" d="m -15.115875,-0.72 q 0.108,0.18 0.108,0.324 0,0.18 -0.132,0.288 -0.132,0.108 -0.348,0.108 -0.144,0 -0.24,-0.06 -0.096,-0.06 -0.168,-0.18 l -2.16,-3.432 h -0.204 -1.776 v 3.204 q 0,0.204 -0.132,0.336 -0.132,0.132 -0.336,0.132 -0.204,0 -0.336,-0.132 -0.132,-0.132 -0.132,-0.336 v -8.436 q 0,-0.204 0.132,-0.336 0.132,-0.132 0.336,-0.132 h 2.244 q 0.876,0 1.56,0.372 0.684,0.36 1.068,1.02 0.396,0.66 0.396,1.5 0,0.924 -0.504,1.62 -0.492,0.696 -1.344,0.996 z m -3.144,-3.852 q 0.6,0 1.08,-0.24 0.492,-0.252 0.756,-0.684 0.276,-0.432 0.276,-0.984 0,-0.576 -0.276,-1.032 -0.264,-0.456 -0.744,-0.708 -0.48,-0.252 -1.092,-0.252 h -1.776 v 3.9 z"/>
    <path id="path1377" style="font-weight:normal;font-size:12px;font-family:Comfortaa, sans-serif;letter-spacing:3px;text-anchor:end;fill:#333333" d="m -1.649625,-9.372 q 0.192,0 0.324,0.132 0.132,0.132 0.132,0.336 v 8.436 q 0,0.192 -0.132,0.336 -0.132,0.132 -0.324,0.132 -0.204,0 -0.348,-0.132 -0.132,-0.144 -0.132,-0.336 V -7.26 l -3.336,6.816 q -0.144,0.228 -0.408,0.228 -0.3,0 -0.432,-0.288 l -3.324,-6.648 v 6.684 q 0,0.192 -0.132,0.336 -0.132,0.132 -0.336,0.132 -0.192,0 -0.336,-0.132 -0.132,-0.144 -0.132,-0.336 v -8.436 q 0,-0.204 0.132,-0.336 0.144,-0.132 0.336,-0.132 0.276,0 0.42,0.24 l 3.84,7.632 3.768,-7.632 q 0.144,-0.24 0.42,-0.24 z"/>
  </g>
  <g class="brand" style="font-weight:bold;font-size:8.66667px;font-family:Audiowide, sans-serif;letter-spacing:2px;fill:#333333" id="text1099" aria-label="BOGAUDIO">
    <path id="path1352" style="font-weight:bold;font-size:8.66667px;font-family:Audiowide, sans-serif;letter-spacing:2px;fill:#333333" d="m 12.194664,372.66699 q 0,0.20313 -0.07194,0.43587 -0.06771,0.23275 -0.228516,0.43165 -0.156576,0.19889 -0.410482,0.33431 Q 11.22982,374 10.861656,374 H 6.6848963 q -0.1184897,0 -0.2200522,-0.0423 -0.1015625,-0.0423 -0.1777344,-0.11426 -0.07194,-0.0762 -0.1142579,-0.17773 -0.042318,-0.10156 -0.042318,-0.22005 V 368.486 q 0,-0.11426 0.042318,-0.21582 0.042318,-0.10156 0.1142579,-0.17773 0.076172,-0.0762 0.1777344,-0.11849 0.1015625,-0.0423 0.2200522,-0.0423 h 3.6816417 q 0.203125,0 0.435873,0.0719 0.232747,0.0719 0.431641,0.23275 0.203125,0.15657 0.33431,0.41048 0.135416,0.2539 0.135416,0.62207 v 0.20736 q 0,0.29199 -0.09733,0.63053 -0.09733,0.33431 -0.313152,0.63477 0.186198,0.11425 0.347006,0.27506 0.165039,0.16081 0.28776,0.3724 0.122722,0.21159 0.194662,0.47819 0.07194,0.2666 0.07194,0.58821 z m -1.100261,-0.21159 q 0,-0.21582 -0.06771,-0.38509 -0.06771,-0.1735 -0.19043,-0.29622 -0.122721,-0.12272 -0.296224,-0.1862 -0.173503,-0.0677 -0.389323,-0.0677 H 7.6708992 v -1.10872 h 1.9847013 q 0.2158204,0 0.3893235,-0.0635 0.173502,-0.0677 0.296224,-0.19043 0.122721,-0.12272 0.186198,-0.29199 0.06771,-0.1735 0.06771,-0.38932 v -0.20736 q 0,-0.23698 -0.228516,-0.23698 H 7.2307949 v 3.86784 h 3.6308611 q 0.02962,0 0.07194,-0.004 0.04232,-0.004 0.07617,-0.0254 0.03385,-0.0212 0.05924,-0.0719 0.02539,-0.0508 0.02539,-0.13965 z"/>
    <path id="path1354" style="font-weight:bold;font-size:8.66667px;font-family:Audiowide, sans-serif;letter-spacing:2px;fill:#333333" d="m 21.515629,371.54557 q 0,0.55436 -0.190429,1.01986 -0.19043,0.46549 -0.528972,0.80404 -0.338542,0.33854 -0.804037,0.52897 -0.461263,0.1862 -1.007161,0.1862 h -1.489584 q -0.545899,0 -1.011394,-0.1862 -0.465495,-0.19043 -0.804037,-0.52897 -0.338541,-0.33855 -0.533203,-0.80404 -0.19043,-0.4655 -0.19043,-1.01986 v -1.1595 q 0,-0.55013 0.19043,-1.01563 0.194662,-0.46973 0.533203,-0.80404 0.338542,-0.33854 0.804037,-0.52897 0.465495,-0.19043 1.011394,-0.19043 h 1.489584 q 0.545898,0 1.007161,0.19043 0.465495,0.19043 0.804037,0.52897 0.338542,0.33431 0.528972,0.80404 0.190429,0.4655 0.190429,1.01563 z m -1.10026,-1.1595 q 0,-0.32585 -0.105795,-0.58822 -0.101562,-0.2666 -0.291992,-0.4528 -0.186198,-0.19043 -0.4528,-0.29199 -0.262369,-0.1058 -0.579752,-0.1058 h -1.489584 q -0.321615,0 -0.588217,0.1058 -0.26237,0.10156 -0.452799,0.29199 -0.19043,0.1862 -0.296224,0.4528 -0.101563,0.26237 -0.101563,0.58822 v 1.1595 q 0,0.32585 0.101563,0.59245 0.105794,0.26237 0.296224,0.4528 0.190429,0.1862 0.452799,0.29199 0.266602,0.10156 0.588217,0.10156 h 1.48112 q 0.321615,0 0.583985,-0.10156 0.266601,-0.10579 0.457031,-0.29199 0.19043,-0.19043 0.291992,-0.4528 0.105795,-0.2666 0.105795,-0.59245 z"/>
    <path id="path1356" style="font-weight:bold;font-size:8.66667px;font-family:Audiowide, sans-serif;letter-spacing:2px;fill:#333333" d="m 30.599618,373.44564 q 0,0.11849 -0.04232,0.22005 -0.04232,0.10156 -0.11849,0.17773 -0.07194,0.0719 -0.173502,0.11426 Q 30.163745,374 30.045255,374 h -3.969402 q -0.152344,0 -0.330078,-0.0338 -0.173503,-0.0381 -0.347006,-0.11426 -0.169271,-0.0762 -0.325846,-0.19466 -0.156576,-0.12272 -0.279297,-0.292 -0.11849,-0.1735 -0.19043,-0.39778 -0.07194,-0.22852 -0.07194,-0.51205 v -2.97916 q 0,-0.15235 0.03385,-0.32585 0.03809,-0.17774 0.114258,-0.34701 0.07617,-0.1735 0.198893,-0.33007 0.122722,-0.15658 0.291993,-0.27507 0.173502,-0.12272 0.397786,-0.19466 0.224284,-0.0719 0.507813,-0.0719 h 4.472983 v 1.10026 h -4.472983 q -0.215821,0 -0.330078,0.11426 -0.114258,0.11425 -0.114258,0.33854 v 2.9707 q 0,0.21159 0.114258,0.33008 0.118489,0.11426 0.330078,0.11426 h 3.423504 v -1.37956 H 26.57097 v -1.10872 h 3.474285 q 0.11849,0 0.220053,0.0466 0.101562,0.0423 0.173502,0.11849 0.07617,0.0762 0.11849,0.17773 0.04232,0.0973 0.04232,0.21159 z"/>
    <path id="path1358" style="font-weight:bold;font-size:8.66667px;font-family:Audiowide, sans-serif;letter-spacing:2px;fill:#333333" d="m 39.708996,374 h -1.100261 v -1.48958 h -3.86784 V 374 h -1.100261 v -3.03418 q 0,-0.66439 0.228516,-1.22298 0.228516,-0.5586 0.634766,-0.96062 0.40625,-0.40201 0.960612,-0.6263 0.554362,-0.22428 1.210287,-0.22428 h 2.479819 q 0.114257,0 0.21582,0.0423 0.101562,0.0423 0.177734,0.11849 0.07617,0.0762 0.11849,0.17773 0.04232,0.10156 0.04232,0.21582 z m -4.968101,-2.58984 h 3.86784 v -2.37826 h -1.93392 q -0.05078,0 -0.21582,0.0169 -0.160808,0.0127 -0.376628,0.0719 -0.211589,0.0592 -0.448568,0.18196 -0.236979,0.12272 -0.435873,0.33854 -0.198893,0.21582 -0.330078,0.54167 -0.126953,0.32162 -0.126953,0.78288 z"/>
    <path id="path1360" style="font-weight:bold;font-size:8.66667px;font-family:Audiowide, sans-serif;letter-spacing:2px;fill:#333333" d="m 48.928399,373.44564 q 0,0.11849 -0.04232,0.22005 -0.04232,0.10156 -0.11849,0.17773 -0.07617,0.0719 -0.177735,0.11426 Q 48.488295,374 48.374037,374 h -2.479819 q -0.351237,0 -0.710937,-0.0762 -0.359701,-0.0762 -0.698243,-0.23275 -0.33431,-0.16081 -0.630534,-0.40625 -0.296224,-0.24544 -0.520508,-0.57975 -0.220052,-0.33854 -0.347005,-0.77018 -0.126953,-0.43588 -0.126953,-0.96908 v -3.03418 h 1.10026 v 3.03418 q 0,0.46549 0.126954,0.78711 0.131185,0.32161 0.330078,0.53743 0.198893,0.21582 0.435872,0.33855 0.23698,0.12272 0.448568,0.18196 0.215821,0.0592 0.376628,0.0762 0.165039,0.0127 0.21582,0.0127 h 1.93392 v -4.9681 h 1.100261 z"/>
    <path id="path1362" style="font-weight:bold;font-size:8.66667px;font-family:Audiowide, sans-serif;letter-spacing:2px;fill:#333333" d="m 58.266292,371.46094 q 0,0.55436 -0.194661,1.01985 -0.19043,0.4655 -0.528972,0.80404 -0.338541,0.33431 -0.804036,0.52474 Q 56.273128,374 55.727229,374 h -2.970704 q -0.11849,0 -0.220052,-0.0423 -0.101563,-0.0423 -0.177735,-0.11426 -0.07194,-0.0762 -0.114258,-0.17773 -0.04232,-0.10156 -0.04232,-0.22005 V 368.486 q 0,-0.11426 0.04232,-0.21582 0.04232,-0.10156 0.114258,-0.17773 0.07617,-0.0762 0.177735,-0.11849 0.101562,-0.0423 0.220052,-0.0423 h 2.970704 q 0.545899,0 1.011394,0.19043 0.465495,0.19043 0.804036,0.52897 0.338542,0.33431 0.528972,0.80404 0.194661,0.46549 0.194661,1.01562 z m -1.10026,-0.99024 q 0,-0.32161 -0.105795,-0.58821 -0.101562,-0.26661 -0.291992,-0.4528 -0.19043,-0.19043 -0.457031,-0.292 -0.26237,-0.10579 -0.583985,-0.10579 h -2.424806 v 3.86784 h 2.424806 q 0.321615,0 0.583985,-0.10156 0.266601,-0.1058 0.457031,-0.292 0.19043,-0.19043 0.291992,-0.4528 0.105795,-0.2666 0.105795,-0.59244 z"/>
    <path id="path1364" style="font-weight:bold;font-size:8.66667px;font-family:Audiowide, sans-serif;letter-spacing:2px;fill:#333333" d="M 62.462581,374 H 61.36232 v -6.06836 h 1.100261 z"/>
    <path id="path1366" style="font-weight:bold;font-size:8.66667px;font-family:Audiowide, sans-serif;letter-spacing:2px;fill:#333333" d="m 72.126322,371.54557 q 0,0.55436 -0.190429,1.01986 -0.19043,0.46549 -0.528972,0.80404 -0.338542,0.33854 -0.804037,0.52897 -0.461263,0.1862 -1.007161,0.1862 h -1.489584 q -0.545899,0 -1.011394,-0.1862 -0.465495,-0.19043 -0.804037,-0.52897 -0.338541,-0.33855 -0.533203,-0.80404 -0.19043,-0.4655 -0.19043,-1.01986 v -1.1595 q 0,-0.55013 0.19043,-1.01563 0.194662,-0.46973 0.533203,-0.80404 0.338542,-0.33854 0.804037,-0.52897 0.465495,-0.19043 1.011394,-0.19043 h 1.489584 q 0.545898,0 1.007161,0.19043 0.465495,0.19043 0.804037,0.52897 0.338542,0.33431 0.528972,0.80404 0.190429,0.4655 0.190429,1.01563 z m -1.10026,-1.1595 q 0,-0.32585 -0.105795,-0.58822 -0.101562,-0.2666 -0.291992,-0.4528 -0.186198,-0.19043 -0.4528,-0.29199 -0.26237,-0.1058 -0.579752,-0.1058 h -1.489584 q -0.321615,0 -0.588217,0.1058 -0.26237,0.10156 -0.452799,0.29199 -0.19043,0.1862 -0.296224,0.4528 -0.101563,0.26237 -0.101563,0.58822 v 1.1595 q 0,0.32585 0.101563,0.59245 0.105794,0.26237 0.296224,0.4528 0.190429,0.1862 0.452799,0.29199 0.266602,0.10156 0.588217,0.10156 h 1.48112 q 0.321615,0 0.583985,-0.10156 0.266601,-0.10579 0.457031,-0.29199 0.19043,-0.19043 0.291992,-0.4528 0.105795,-0.2666 0.105795,-0.59245 z"/>
  </g>
  <path d="M 26.5,370 H 28 v 2 h -1.5 z" style="fill:#dddddd" id="rect1101"/>
  <g style="font-weight:bold;font-size:10.6667px;font-family:Roboto, sans-serif;letter-spacing:2px;fill:#333333" id="text1105" aria-label="RECTIFY">
    <path id="path1336" style="font-weight:bold;font-size:10.6667px;font-family:Roboto, sans-serif;letter-spacing:2px;fill:#333333" d="M 21.484386,46.22395 H 20.23959 V 49 h -1.562505 v -7.583357 h 2.817718 q 1.343754,0 2.072923,0.59896 0.729169,0.59896 0.729169,1.692714 0,0.776044 -0.338543,1.296879 -0.333334,0.515626 -1.015628,0.822919 l 1.64063,3.098968 V 49 H 22.906265 Z M 20.23959,44.958321 h 1.260421 q 0.588544,0 0.911461,-0.296876 0.322918,-0.302085 0.322918,-0.828128 0,-0.53646 -0.307293,-0.843753 -0.302084,-0.307292 -0.932294,-0.307292 H 20.23959 Z"/>
    <path id="path1338" style="font-weight:bold;font-size:10.6667px;font-family:Roboto, sans-serif;letter-spacing:2px;fill:#333333" d="m 32.052121,45.713531 h -3.00001 v 2.031257 h 3.520845 V 49 h -5.08335 v -7.583357 h 5.072933 v 1.265629 h -3.510428 v 1.807297 h 3.00001 z"/>
    <path id="path1340" style="font-weight:bold;font-size:10.6667px;font-family:Roboto, sans-serif;letter-spacing:2px;fill:#333333" d="m 41.442769,46.47395 q -0.08854,1.223963 -0.906253,1.92709 -0.812502,0.703127 -2.14584,0.703127 -1.458338,0 -2.296882,-0.97917 -0.833336,-0.984378 -0.833336,-2.697925 v -0.463543 q 0,-1.093754 0.385418,-1.92709 0.385418,-0.833335 1.098962,-1.276045 0.718752,-0.447918 1.666672,-0.447918 1.312504,0 2.11459,0.703127 0.802086,0.703127 0.927086,1.973965 h -1.562505 q -0.05729,-0.734378 -0.41146,-1.062504 -0.348959,-0.333334 -1.067711,-0.333334 -0.781253,0 -1.171879,0.562502 -0.385418,0.557293 -0.395835,1.73438 v 0.572918 q 0,1.229171 0.369793,1.796881 0.375001,0.56771 1.177087,0.56771 0.723961,0 1.078129,-0.328126 0.359376,-0.333334 0.411459,-1.026045 z"/>
    <path id="path1342" style="font-weight:bold;font-size:10.6667px;font-family:Roboto, sans-serif;letter-spacing:2px;fill:#333333" d="M 50.031332,42.682272 H 47.708408 V 49 h -1.562505 v -6.317728 h -2.291674 v -1.265629 h 6.177103 z"/>
    <path id="path1344" style="font-weight:bold;font-size:10.6667px;font-family:Roboto, sans-serif;letter-spacing:2px;fill:#333333" d="m 54.588633,49 h -1.562505 v -7.583357 h 1.562505 z"/>
    <path id="path1346" style="font-weight:bold;font-size:10.6667px;font-family:Roboto, sans-serif;letter-spacing:2px;fill:#333333" d="M 62.593859,45.901032 H 59.59385 V 49 h -1.562505 v -7.583357 h 4.937516 v 1.265629 H 59.59385 v 1.958339 h 3.000009 z"/>
    <path id="path1348" style="font-weight:bold;font-size:10.6667px;font-family:Roboto, sans-serif;letter-spacing:2px;fill:#333333" d="m 68.50012,44.83332 1.57813,-3.416677 h 1.708338 l -2.489591,4.833348 V 49 h -1.588546 v -2.750009 l -2.489592,-4.833348 h 1.713547 z"/>
  </g>
  <g transform="translate(0,44)" id="g1107"/>
  <g transform="translate(0,44)" id="use1109">
    <g transform="translate(45,45)" id="g1213">
      <g style="font-weight:bold;font-size:8px;font-family:Roboto, sans-serif;fill:#333333" id="text1191" transform="translate(-18.5,28.114737)" aria-label="0">
        <path id="path1323" style="font-weight:bold;font-size:8px;font-family:Roboto, sans-serif;fill:#333333" d="m 4.2148437,-2.3515625 q 0,1.1796875 -0.4882812,1.8046875 -0.4882812,0.625 -1.4296875,0.625 -0.9296875,0 -1.421875,-0.61328125 Q 0.3828125,-1.1484375 0.37109375,-2.2929688 v -1.046875 q 0,-1.1914062 0.4921875,-1.8085937 Q 1.359375,-5.765625 2.2890625,-5.765625 q 0.9296875,0 1.421875,0.6132813 0.4921875,0.609375 0.5039062,1.7539062 z M 3.0859375,-3.5 q 0,-0.7070312 -0.1953125,-1.0273437 -0.1914062,-0.3242188 -0.6015625,-0.3242188 -0.3984375,0 -0.5898438,0.3085938 Q 1.5117187,-4.2382812 1.5,-3.5859375 v 1.3828125 q 0,0.6953125 0.1875,1.0351563 0.1914062,0.33593745 0.609375,0.33593745 0.4140625,0 0.5976563,-0.32421875 0.1835937,-0.3242187 0.1914062,-0.9921875 z"/>
      </g>
      <path d="M 0,0 H 3.5" style="stroke:#333333;stroke-width:0.3" transform="rotate(150,-13,3.4833395)" id="polyline1193"/>
      <path d="M 0,0 H 3.5" style="stroke:#333333;stroke-width:0.3" transform="rotate(180,-13,0)" id="polyline1195"/>
      <path d="M 0,0 H 3.5" style="stroke:#333333;stroke-width:0.3" transform="rotate(-150,-13,-3.4833395)" id="polyline1197"/>
      <path d="M 0,0 H 3.5" style="stroke:#333333;stroke-width:0.3" transform="rotate(-120,-13,-7.5055535)" id="polyline1199"/>
      <path d="M 0,0 H 3.5" style="stroke:#333333;stroke-width:0.3" transform="rotate(-90,-13,-13)" id="polyline1201"/>
      <path d="M 0,0 H 3.5" style="stroke:#333333;stroke-width:0.3" transform="rotate(-60,-13,-22.51666)" id="polyline1203"/>
      <path d="M 0,0 H 3.5" style="stroke:#333333;stroke-width:0.3" transform="rotate(-30,-13,-48.51666)" id="polyline1205"/>
      <path d="M 0,0 H 3.5" style="stroke:#333333;stroke-width:0.3" transform="translate(26)" id="polyline1207"/>
      <path d="M 0,0 H 3.5" style="stroke:#333333;stroke-width:0.3" transform="rotate(30,-13,48.51666)" id="polyline1209"/>
      <path d="M 0,0 H 5.5" style="stroke:#333333;stroke-width:1.5" transform="rotate(60,-13,22.51666)" id="polyline1211"/>
    </g>
  </g>
  <g style="font-weight:bold;font-size:10.6667px;font-family:Roboto, sans-serif;letter-spacing:2px;fill:#333333" id="text1113" aria-label="DRY/WET">
    <path id="path1308" style="font-weight:bold;font-size:10.6667px;font-family:Roboto, sans-serif;letter-spacing:2px;fill:#333333" d="m 16.177085,148 v -7.58336 h 2.333341 q 1.000003,0 1.786464,0.45313 0.791669,0.44792 1.234379,1.28125 0.44271,0.82813 0.44271,1.88543 v 0.34896 q 0,1.05729 -0.437502,1.88021 -0.432293,0.82292 -1.223962,1.27605 -0.791669,0.45312 -1.786464,0.45833 z m 1.562505,-6.31773 v 5.06252 h 0.755211 q 0.91667,0 1.401046,-0.59896 0.484377,-0.59896 0.494793,-1.71355 v -0.40104 q 0,-1.15626 -0.479168,-1.75001 -0.479168,-0.59896 -1.401046,-0.59896 z"/>
    <path id="path1310" style="font-weight:bold;font-size:10.6667px;font-family:Roboto, sans-serif;letter-spacing:2px;fill:#333333" d="M 27.921908,145.22395 H 26.677112 V 148 h -1.562505 v -7.58336 h 2.817718 q 1.343754,0 2.072923,0.59896 0.729169,0.59896 0.729169,1.69272 0,0.77604 -0.338543,1.29688 -0.333334,0.51562 -1.015628,0.82291 l 1.64063,3.09897 V 148 h -1.677089 z m -1.244796,-1.26563 h 1.260421 q 0.588544,0 0.911461,-0.29688 0.322918,-0.30208 0.322918,-0.82812 0,-0.53646 -0.307293,-0.84376 -0.302084,-0.30729 -0.932294,-0.30729 h -1.255213 z"/>
    <path id="path1312" style="font-weight:bold;font-size:10.6667px;font-family:Roboto, sans-serif;letter-spacing:2px;fill:#333333" d="m 36.291719,143.83332 1.57813,-3.41668 h 1.708339 l -2.489591,4.83335 V 148 H 35.50005 v -2.75001 l -2.489591,-4.83335 h 1.713547 z"/>
    <path id="path1314" style="font-weight:bold;font-size:10.6667px;font-family:Roboto, sans-serif;letter-spacing:2px;fill:#333333" d="M 42.656316,148.65104 H 41.53652 l 2.791676,-8.2344 h 1.119795 z"/>
    <path id="path1316" style="font-weight:bold;font-size:10.6667px;font-family:Roboto, sans-serif;letter-spacing:2px;fill:#333333" d="m 54.166762,145.81249 1.020837,-5.39585 h 1.557297 L 55.062599,148 H 53.489677 L 52.255298,142.92707 51.020919,148 h -1.572921 l -1.682297,-7.58336 h 1.557296 l 1.026045,5.38544 1.250004,-5.38544 h 1.322921 z"/>
    <path id="path1318" style="font-weight:bold;font-size:10.6667px;font-family:Roboto, sans-serif;letter-spacing:2px;fill:#333333" d="m 64.156371,144.71353 h -3.00001 v 2.03126 h 3.520845 V 148 h -5.08335 v -7.58336 h 5.072933 v 1.26563 h -3.510428 v 1.8073 h 3.00001 z"/>
    <path id="path1320" style="font-weight:bold;font-size:10.6667px;font-family:Roboto, sans-serif;letter-spacing:2px;fill:#333333" d="M 73.406395,141.68227 H 71.083471 V 148 h -1.562505 v -6.31773 h -2.291674 v -1.26563 h 6.177103 z"/>
  </g>
  <g transform="translate(0,143)" id="g1115"/>
  <g transform="translate(0,143)" id="use1117">
    <g transform="translate(45,45)" id="g1239">
      <g style="font-weight:bold;font-size:8px;font-family:Roboto, sans-serif;fill:#333333" id="text1217" transform="translate(-18.5,28.114737)" aria-label="D">
        <path id="path1293" style="font-weight:bold;font-size:8px;font-family:Roboto, sans-serif;fill:#333333" d="m 0.5078125,0 v -5.6875 h 1.75 q 0.75,0 1.3398438,0.3398438 0.5937499,0.3359375 0.9257812,0.9609375 0.3320312,0.6210937 0.3320312,1.4140624 v 0.2617188 q 0,0.7929688 -0.328125,1.4101563 Q 4.203125,-0.68359375 3.609375,-0.34375 3.015625,-0.00390625 2.2695313,0 Z m 1.171875,-4.7382812 v 3.79687495 h 0.5664063 q 0.6875,0 1.0507812,-0.44921875 0.3632813,-0.4492187 0.3710938,-1.2851563 v -0.3007812 q 0,-0.8671875 -0.359375,-1.3125 -0.359375,-0.4492187 -1.0507813,-0.4492187 z"/>
      </g>
      <path d="M 0,0 H 3.5" style="stroke:#333333;stroke-width:0.3" transform="rotate(150,-13,3.4833395)" id="polyline1219"/>
      <path d="M 0,0 H 3.5" style="stroke:#333333;stroke-width:0.3" transform="rotate(180,-13,0)" id="polyline1221"/>
      <path d="M 0,0 H 3.5" style="stroke:#333333;stroke-width:0.3" transform="rotate(-150,-13,-3.4833395)" id="polyline1223"/>
      <path d="M 0,0 H 3.5" style="stroke:#333333;stroke-width:0.3" transform="rotate(-120,-13,-7.5055535)" id="polyline1225"/>
      <path d="M 0,0 H 5.5" style="stroke:#333333;stroke-width:1.5" transform="rotate(-90,-13,-13)" id="polyline1227"/>
      <path d="M 0,0 H 3.5" style="stroke:#333333;stroke-width:0.3" transform="rotate(-60,-13,-22.51666)" id="polyline1229"/>
      <path d="M 0,0 H 3.5" style="stroke:#333333;stroke-width:0.3" transform="rotate(-30,-13,-48.51666)" id="polyline1231"/>
      <path d="M 0,0 H 3.5" style="stroke:#333333;stroke-width:0.3" transform="translate(26)" id="polyline1233"/>
      <path d="M 0,0 H 3.5" style="stroke:#333333;stroke-width:0.3" transform="rotate(30,-13,48.51666)" id="polyline1235"/>
      <g style="font-weight:bold;font-size:8px;font-family:Roboto, sans-serif;fill:#333333" id="text1237" transform="translate(13.5,28.114737)" aria-label="W">
        <path id="path1305" style="font-weight:bold;font-size:8px;font-family:Roboto, sans-serif;fill:#333333" d="M 4.9375,-1.640625 5.703125,-5.6875 H 6.8710937 L 5.609375,0 H 4.4296875 L 3.5039063,-3.8046875 2.578125,0 H 1.3984375 L 0.13671875,-5.6875 H 1.3046875 l 0.7695313,4.0390625 0.9375,-4.0390625 h 0.9921874 z"/>
      </g>
    </g>
  </g>
  <g transform="translate(11,240)" id="g1141">
    <path d="M 0,0 H 68 V 10 H 0 Z" style="fill:#fafafa" transform="translate(0,66)" id="rect1121"/>
    <path d="m 5,0 h 58 c 2.77,0 5,2.23 5,5 v 63 c 0,2.77 -2.23,5 -5,5 H 5 C 2.23,73 0,70.77 0,68 V 5 C 0,2.23 2.23,0 5,0 Z" style="fill:#fafafa" id="rect1123"/>
    <g transform="translate(5,4)" id="g1125"/>
    <g style="font-weight:bold;font-size:6.66667px;font-family:Roboto, sans-serif;letter-spacing:2px;fill:#333333" id="text1127" transform="translate(7.5,36)" aria-label="MOD">
      <path id="path1263" style="font-weight:bold;font-size:6.66667px;font-family:Roboto, sans-serif;letter-spacing:2px;fill:#333333" d="m 1.6992196,-4.7395856 1.2174485,3.4375016 1.210938,-3.4375016 H 5.4101588 V 0 H 4.4303407 V -1.2955735 L 4.527997,-3.5319027 3.2486995,0 H 2.5781262 l -1.2760422,-3.5286475 0.097656,2.233074 V 0 H 0.42317729 v -4.7395856 z"/>
      <path id="path1265" style="font-weight:bold;font-size:6.66667px;font-family:Roboto, sans-serif;letter-spacing:2px;fill:#333333" d="m 12.162765,-2.2623709 q 0,0.6998702 -0.247396,1.2272142 -0.247396,0.52734396 -0.709636,0.81380243 -0.458984,0.28645847 -1.054688,0.28645847 -0.5891925,0 -1.0514323,-0.28320326 Q 8.6373729,-0.50130232 8.3834665,-1.0253911 8.1295601,-1.5527351 8.1263049,-2.2363292 v -0.2343751 q 0,-0.6998701 0.2506512,-1.2304693 0.2539064,-0.5338545 0.7128909,-0.8170577 0.4622398,-0.2864585 1.054688,-0.2864585 0.592448,0 1.051433,0.2864585 0.46224,0.2832032 0.712891,0.8170577 0.253906,0.5305992 0.253906,1.2272141 z m -0.989584,-0.2148438 q 0,-0.7454431 -0.266927,-1.1328131 -0.266927,-0.3873699 -0.761719,-0.3873699 -0.4915366,0 -0.7584639,0.3841147 -0.2669272,0.3808596 -0.2701824,1.1197922 v 0.2311199 q 0,0.7259118 0.2669272,1.1263026 0.2669272,0.40039087 0.7682291,0.40039087 0.491537,0 0.755209,-0.38411477 0.263672,-0.38737 0.266927,-1.1263026 z"/>
      <path id="path1267" style="font-weight:bold;font-size:6.66667px;font-family:Roboto, sans-serif;letter-spacing:2px;fill:#333333" d="m 14.878912,0 v -4.7395856 h 1.458334 q 0.625,0 1.116537,0.2832033 0.494791,0.279948 0.771484,0.8007816 0.276693,0.5175784 0.276693,1.178386 v 0.218099 q 0,0.6608076 -0.273437,1.1751308 -0.270183,0.51432317 -0.764975,0.79752643 Q 16.968756,-0.00325521 16.347011,0 Z m 0.976563,-3.9485696 v 3.16406402 h 0.472005 q 0.572917,0 0.875651,-0.37434912 0.302735,-0.3743492 0.309245,-1.0709641 v -0.2506511 q 0,-0.7226566 -0.299479,-1.0937506 -0.299479,-0.3743491 -0.875651,-0.3743491 z"/>
    </g>
    <g transform="translate(39,4)" id="g1129"/>
    <g style="font-weight:bold;font-size:6.66667px;font-family:Roboto, sans-serif;letter-spacing:2px;fill:#333333" id="text1131" transform="translate(42.5,36)" aria-label="CAR">
      <path id="path1270" style="font-weight:bold;font-size:6.66667px;font-family:Roboto, sans-serif;letter-spacing:2px;fill:#333333" d="M 4.1438822,-1.5787768 Q 4.0885436,-0.81380247 3.5774757,-0.37434914 3.0696629,0.0651042 2.2363292,0.0651042 q -0.9114588,0 -1.43554757,-0.61197946 Q 0.27994805,-1.1621099 0.27994805,-2.233074 v -0.2897137 q 0,-0.683594 0.24088553,-1.2044276 0.24088553,-0.5208336 0.68684932,-0.7975264 0.4492189,-0.2799481 1.0416671,-0.2799481 0.8203129,0 1.3216152,0.4394533 0.5013024,0.4394534 0.5794274,1.2337246 H 3.1738296 Q 3.1380223,-3.5904965 2.9166681,-3.7955747 2.698569,-4.0039082 2.24935,-4.0039082 q -0.4882815,0 -0.7324222,0.3515627 -0.2408855,0.3483075 -0.2473959,1.0839849 v 0.3580731 q 0,0.7682295 0.2311199,1.1230474 0.2343751,0.35481788 0.7356774,0.35481788 0.4524742,0 0.6738284,-0.20507823 0.2246095,-0.20833345 0.2571616,-0.64127635 z"/>
      <path id="path1272" style="font-weight:bold;font-size:6.66667px;font-family:Roboto, sans-serif;letter-spacing:2px;fill:#333333" d="M 9.4609412,-0.97656297 H 7.7487008 L 7.4231798,0 H 6.3847679 L 8.1490916,-4.7395856 H 9.05404 L 10.828129,0 H 9.7897174 Z M 8.0123728,-1.767579 H 9.1972692 L 8.6015658,-3.5416684 Z"/>
      <path id="path1274" style="font-weight:bold;font-size:6.66667px;font-family:Roboto, sans-serif;letter-spacing:2px;fill:#333333" d="M 15.031906,-1.7350269 H 14.253911 V 0 h -0.976563 v -4.7395856 h 1.761069 q 0.839844,0 1.295573,0.3743491 0.45573,0.3743492 0.45573,1.0579433 0,0.4850262 -0.211589,0.8105472 -0.208334,0.3222658 -0.634766,0.5143232 l 1.025391,1.93684986 V 0 h -1.048177 z m -0.777995,-0.791016 h 0.787761 q 0.367839,0 0.569662,-0.1855469 0.201823,-0.1888022 0.201823,-0.5175784 0,-0.3352866 -0.192058,-0.527344 -0.188802,-0.1920574 -0.582682,-0.1920574 h -0.784506 z"/>
    </g>
    <g transform="translate(5,40)" id="g1133"/>
    <g style="font-weight:bold;font-size:6.66667px;font-family:Roboto, sans-serif;letter-spacing:2px;fill:#333333" id="text1135" transform="translate(5.5,72)" aria-label="RECT">
      <path id="path1277" style="font-weight:bold;font-size:6.66667px;font-family:Roboto, sans-serif;letter-spacing:2px;fill:#333333" d="M 2.1777354,-1.7350269 H 1.3997403 V 0 H 0.42317729 V -4.7395856 H 2.1842458 q 0.8398442,0 1.2955736,0.3743491 0.4557294,0.3743492 0.4557294,1.0579433 0,0.4850262 -0.2115887,0.8105472 -0.2083334,0.3222658 -0.6347659,0.5143232 l 1.0253911,1.93684986 V 0 H 3.0664077 Z M 1.3997403,-2.5260429 H 2.187501 q 0.3678388,0 0.5696618,-0.1855469 0.201823,-0.1888022 0.201823,-0.5175784 0,-0.3352866 -0.1920574,-0.527344 Q 2.5781262,-3.9485696 2.1842458,-3.9485696 H 1.3997403 Z"/>
      <path id="path1279" style="font-weight:bold;font-size:6.66667px;font-family:Roboto, sans-serif;letter-spacing:2px;fill:#333333" d="M 9.5325556,-2.0540374 H 7.6575547 v 1.26953182 H 9.8580765 V 0 H 6.6809917 v -4.7395856 h 3.1705744 v 0.791016 H 7.6575547 v 1.1295578 h 1.8750009 z"/>
      <path id="path1281" style="font-weight:bold;font-size:6.66667px;font-family:Roboto, sans-serif;letter-spacing:2px;fill:#333333" d="m 16.151698,-1.5787768 q -0.05534,0.76497433 -0.566406,1.20442766 -0.507813,0.43945334 -1.341146,0.43945334 -0.911459,0 -1.435548,-0.61197946 Q 12.287764,-1.1621099 12.287764,-2.233074 v -0.2897137 q 0,-0.683594 0.240886,-1.2044276 0.240885,-0.5208336 0.686849,-0.7975264 0.449219,-0.2799481 1.041667,-0.2799481 0.820313,0 1.321616,0.4394533 0.501302,0.4394534 0.579427,1.2337246 h -0.976563 q -0.03581,-0.4589846 -0.257162,-0.6640628 -0.218099,-0.2083335 -0.667318,-0.2083335 -0.488281,0 -0.732422,0.3515627 -0.240885,0.3483075 -0.247396,1.0839849 v 0.3580731 q 0,0.7682295 0.23112,1.1230474 0.234375,0.35481788 0.735678,0.35481788 0.452474,0 0.673828,-0.20507823 0.224609,-0.20833345 0.257162,-0.64127635 z"/>
      <path id="path1283" style="font-weight:bold;font-size:6.66667px;font-family:Roboto, sans-serif;letter-spacing:2px;fill:#333333" d="M 22.26954,-3.9485696 H 20.817716 V 0 h -0.976563 v -3.9485696 h -1.432292 v -0.791016 h 3.860679 z"/>
    </g>
    <g transform="translate(39,40)" id="g1137"/>
    <g style="font-weight:bold;font-size:6.66667px;font-family:Roboto, sans-serif;letter-spacing:2px;fill:#333333" id="text1139" transform="translate(42,72)" aria-label="D/W">
      <path id="path1286" style="font-weight:bold;font-size:6.66667px;font-family:Roboto, sans-serif;letter-spacing:2px;fill:#333333" d="M 0.42317729,0 V -4.7395856 H 1.8815113 q 0.6250003,0 1.116537,0.2832033 0.4947919,0.279948 0.7714847,0.8007816 0.2766929,0.5175784 0.2766929,1.178386 v 0.218099 q 0,0.6608076 -0.2734376,1.1751308 Q 3.5026058,-0.56966173 3.0078139,-0.28645847 2.513022,-0.00325521 1.8912769,0 Z M 1.3997403,-3.9485696 v 3.16406402 h 0.4720054 q 0.5729169,0 0.8756514,-0.37434912 0.3027346,-0.3743492 0.309245,-1.0709641 v -0.2506511 q 0,-0.7226566 -0.2994793,-1.0937506 -0.2994793,-0.3743491 -0.8756515,-0.3743491 z"/>
      <path id="path1288" style="font-weight:bold;font-size:6.66667px;font-family:Roboto, sans-serif;letter-spacing:2px;fill:#333333" d="M 6.9934918,0.40690124 H 6.2936217 L 8.0384142,-4.7395856 h 0.6998701 z"/>
      <path id="path1290" style="font-weight:bold;font-size:6.66667px;font-family:Roboto, sans-serif;letter-spacing:2px;fill:#333333" d="m 14.937505,-1.3671882 0.638021,-3.3723974 h 0.973308 L 15.497401,0 H 14.514328 L 13.742843,-3.1705744 12.971358,0 h -0.983073 l -1.051433,-4.7395856 h 0.973308 l 0.641276,3.365887 0.781251,-3.365887 h 0.826823 z"/>
    </g>
  </g>
  <g transform="translate(11,319)" id="g1155">
    <path d="M 0,0 H 68 V 10 H 0 Z" style="fill:#bbbbbb" transform="translate(0,-3)" id="rect1143"/>
    <path d="m 5,0 h 58 c 2.77,0 5,2.23 5,5 v 27 c 0,2.77 -2.23,5 -5,5 H 5 C 2.23,37 0,34.77 0,32 V 5 C 0,2.23 2.23,0 5,0 Z" style="fill:#bbbbbb" id="rect1145"/>
    <g transform="translate(5,1)" id="g1147"/>
    <g style="font-weight:bold;font-size:6.66667px;font-family:Roboto, sans-serif;letter-spacing:2px;fill:#333333" id="text1149" transform="translate(5.5,33)" aria-label="RECT">
      <path id="path1245" style="font-weight:bold;font-size:6.66667px;font-family:Roboto, sans-serif;letter-spacing:2px;fill:#333333" d="M 2.1777354,-1.7350269 H 1.3997403 V 0 H 0.42317729 V -4.7395856 H 2.1842458 q 0.8398442,0 1.2955736,0.3743491 0.4557294,0.3743492 0.4557294,1.0579433 0,0.4850262 -0.2115887,0.8105472 -0.2083334,0.3222658 -0.6347659,0.5143232 l 1.0253911,1.93684986 V 0 H 3.0664077 Z M 1.3997403,-2.5260429 H 2.187501 q 0.3678388,0 0.5696618,-0.1855469 0.201823,-0.1888022 0.201823,-0.5175784 0,-0.3352866 -0.1920574,-0.527344 Q 2.5781262,-3.9485696 2.1842458,-3.9485696 H 1.3997403 Z"/>
      <path id="path1247" style="font-weight:bold;font-size:6.66667px;font-family:Roboto, sans-serif;letter-spacing:2px;fill:#333333" d="M 9.5325556,-2.0540374 H 7.6575547 v 1.26953182 H 9.8580765 V 0 H 6.6809917 v -4.7395856 h 3.1705744 v 0.791016 H 7.6575547 v 1.1295578 h 1.8750009 z"/>
      <path id="path1249" style="font-weight:bold;font-size:6.66667px;font-family:Roboto, sans-serif;letter-spacing:2px;fill:#333333" d="m 16.151698,-1.5787768 q -0.05534,0.76497433 -0.566406,1.20442766 -0.507813,0.43945334 -1.341146,0.43945334 -0.911459,0 -1.435548,-0.61197946 Q 12.287764,-1.1621099 12.287764,-2.233074 v -0.2897137 q 0,-0.683594 0.240886,-1.2044276 0.240885,-0.5208336 0.686849,-0.7975264 0.449219,-0.2799481 1.041667,-0.2799481 0.820313,0 1.321616,0.4394533 0.501302,0.4394534 0.579427,1.2337246 h -0.976563 q -0.03581,-0.4589846 -0.257162,-0.6640628 -0.218099,-0.2083335 -0.667318,-0.2083335 -0.488281,0 -0.732422,0.3515627 -0.240885,0.3483075 -0.247396,1.0839849 v 0.3580731 q 0,0.7682295 0.23112,1.1230474 0.234375,0.35481788 0.735678,0.35481788 0.452474,0 0.673828,-0.20507823 0.224609,-0.20833345 0.257162,-0.64127635 z"/>
      <path id="path1251" style="font-weight:bold;font-size:6.66667px;font-family:Roboto, sans-serif;letter-spacing:2px;fill:#333333" d="M 22.26954,-3.9485696 H 20.817716 V 0 h -0.976563 v -3.9485696 h -1.432292 v -0.791016 h 3.860679 z"/>
    </g>
    <g transform="translate(39,1)" id="g1151"/>
    <g style="font-weight:bold;font-size:6.66667px;font-family:Roboto, sans-serif;letter-spacing:2px;fill:#333333" id="text1153" transform="translate(42.5,33)" aria-label="OUT">
      <path id="path1254" style="font-weight:bold;font-size:6.66667px;font-family:Roboto, sans-serif;letter-spacing:2px;fill:#333333" d="m 4.3164083,-2.2623709 q 0,0.6998702 -0.2473959,1.2272142 -0.247396,0.52734396 -0.7096358,0.81380243 -0.4589846,0.28645847 -1.054688,0.28645847 -0.589193,0 -1.0514328,-0.28320326 Q 0.791016,-0.50130232 0.53710963,-1.0253911 0.28320326,-1.5527351 0.27994805,-2.2363292 v -0.2343751 q 0,-0.6998701 0.25065116,-1.2304693 0.25390637,-0.5338545 0.71289099,-0.8170577 0.4622398,-0.2864585 1.054688,-0.2864585 0.5924482,0 1.0514328,0.2864585 0.4622398,0.2832032 0.7128909,0.8170577 0.2539064,0.5305992 0.2539064,1.2272141 z M 3.3268245,-2.4772147 q 0,-0.7454431 -0.2669272,-1.1328131 -0.2669272,-0.3873699 -0.7617191,-0.3873699 -0.4915367,0 -0.7584639,0.3841147 -0.2669272,0.3808596 -0.2701824,1.1197922 v 0.2311199 q 0,0.7259118 0.2669272,1.1263026 0.2669272,0.40039087 0.7682295,0.40039087 0.4915367,0 0.7552087,-0.38411477 0.263672,-0.38737 0.2669272,-1.1263026 z"/>
      <path id="path1256" style="font-weight:bold;font-size:6.66667px;font-family:Roboto, sans-serif;letter-spacing:2px;fill:#333333" d="m 10.619796,-4.7395856 v 3.1217463 q 0,0.77799515 -0.488282,1.23046932 -0.4850258,0.45247418 -1.3281252,0.45247418 -0.8300785,0 -1.31836,-0.43945334 Q 6.9967474,-0.81380247 6.9869817,-1.582032 v -3.1575536 h 0.976563 v 3.1282567 q 0,0.465495 0.2213543,0.68033887 0.2246095,0.21158865 0.6184898,0.21158865 0.8235681,0 0.836589,-0.86588582 v -3.1542984 z"/>
      <path id="path1258" style="font-weight:bold;font-size:6.66667px;font-family:Roboto, sans-serif;letter-spacing:2px;fill:#333333" d="M 16.988288,-3.9485696 H 15.536464 V 0 h -0.976563 v -3.9485696 h -1.432292 v -0.791016 h 3.860679 z"/>
    </g>
  </g>
</svg>
