<?xml version="1.0" encoding="UTF-8" standalone="no"?>
<svg xmlns:dc="http://purl.org/dc/elements/1.1/" xmlns:cc="http://creativecommons.org/ns#" xmlns:rdf="http://www.w3.org/1999/02/22-rdf-syntax-ns#" xmlns:svg="http://www.w3.org/2000/svg" xmlns="http://www.w3.org/2000/svg" xmlns:sodipodi="http://sodipodi.sourceforge.net/DTD/sodipodi-0.dtd" xmlns:inkscape="http://www.inkscape.org/namespaces/inkscape" inkscape:version="1.0 (4035a4f, 2020-05-01)" sodipodi:docname="svg_render_tmp.svg" id="svg228" viewBox="0 0 300 380" height="380" width="300" version="1.1">
  <metadata id="metadata232">
    <rdf:RDF>
      <cc:Work rdf:about="">
        <dc:format>image/svg+xml</dc:format>
        <dc:type rdf:resource="http://purl.org/dc/dcmitype/StillImage"/>
      </cc:Work>
    </rdf:RDF>
  </metadata>
  <sodipodi:namedview inkscape:current-layer="svg228" inkscape:window-maximized="0" inkscape:window-y="23" inkscape:window-x="0" inkscape:cy="190" inkscape:cx="150" inkscape:zoom="1.7605263" showgrid="false" id="namedview230" inkscape:window-height="480" inkscape:window-width="689" inkscape:pageshadow="2" inkscape:pageopacity="0" guidetolerance="10" gridtolerance="10" objecttolerance="10" borderopacity="1" bordercolor="#666666" pagecolor="#ffffff"/>
  
  <defs id="defs104">
    <symbol viewBox="0 0 38px 38px" id="knob38">
      <g id="g10" transform="translate(19 19)">
        <polyline id="polyline4" stroke="#00f" stroke-width="1" points="-5,0 5,0"/>
        <polyline id="polyline6" stroke="#00f" stroke-width="1" points="0,-5 0,5"/>
        <circle id="circle8" fill="none" stroke="#00f" stroke-width="1" r="18.5" cy="0" cx="0"/>
      </g>
    </symbol>
    <symbol viewBox="0 0 9px 9px" id="button-small">
      <g id="g15" transform="translate(4.5 4.5)">
        <circle id="circle13" fill="#f00" stroke="#00f" stroke-width="1" r="4"/>
      </g>
    </symbol>
    <symbol viewBox="0 0 24px 24px" id="input">
      <g id="g22" transform="translate(12 12)">
        <circle id="circle18" fill="#0f0" stroke="#0f0" stroke-width="1" r="5" cy="0" cx="0"/>
        <circle id="circle20" fill="none" stroke="#0f0" stroke-width="3" r="10.5" cy="0" cx="0"/>
      </g>
    </symbol>
    <symbol viewBox="0 0 24px 24px" id="output">
      <g id="g29" transform="translate(12 12)">
        <circle id="circle25" fill="#f00" stroke="#f00" stroke-width="1" r="5" cy="0" cx="0"/>
        <circle id="circle27" fill="none" stroke="#f00" stroke-width="3" r="10.5" cy="0" cx="0"/>
      </g>
    </symbol>
    <symbol viewBox="0 0 6.4px 6.4px" id="light-small">
      <rect id="rect32" fill="#0f0" height="6.4" width="6.4"/>
    </symbol>
    <symbol viewBox="0 0 280px 230px" id="display-analyzer">
      <rect id="rect35" fill="#222" height="230" width="280" cy="0" cx="0"/>
    </symbol>
    <symbol viewBox="0 0 100px 100px" id="dial-range-analyzer">
      <g id="g50" transform="translate(50.5 50.5)">
        <path id="path38" transform="rotate(15)" fill="none" stroke-linecap="round" stroke-width="0.5" stroke="#333" d="M 0 -32 A 32 32 0 0 1 32 0"/>
        <path id="path40" transform="rotate(50)" fill="none" stroke-linecap="round" stroke-width="0.5" stroke="#333" d="M 0 -32 A 32 32 0 0 1 32 0"/>
        <path id="path42" transform="rotate(-15)" fill="none" stroke-linecap="round" stroke-width="0.5" stroke="#333" d="M 0 -32 A 32 32 0 0 0 -32 0"/>
        <path id="path44" transform="rotate(-50)" fill="none" stroke-linecap="round" stroke-width="0.5" stroke="#333" d="M 0 -32 A 32 32 0 0 0 -32 0"/>
        <g id="g48" transform="rotate(-90) translate(29 0)">
          <polyline id="polyline46" stroke="#333" stroke-width="1.5" points="0,0 6,0"/>
        </g>
      </g>
    </symbol>
    <symbol viewBox="0 0 100px 100px" id="dial-smooth-analyzer">
      <g id="g101" transform="translate(50.5 50.5)">
        <g id="g57" transform="rotate(-240) translate(31 0)">
          <g id="g55" transform="translate(2 0) rotate(240)">
            <text id="text53" transform="translate(-4 4)" font-size="7pt">0</text>
          </g>
        </g>
        <g id="g61" transform="rotate(-210) translate(30 0)">
          <polyline id="polyline59" stroke="#333" stroke-width="0.5" points="0,0 4,0"/>
        </g>
        <g id="g65" transform="rotate(-180) translate(30 0)">
          <polyline id="polyline63" stroke="#333" stroke-width="0.5" points="0,0 4,0"/>
        </g>
        <g id="g69" transform="rotate(-150) translate(30 0)">
          <polyline id="polyline67" stroke="#333" stroke-width="0.5" points="0,0 5,0"/>
        </g>
        <g id="g73" transform="rotate(-120) translate(30 0)">
          <polyline id="polyline71" stroke="#333" stroke-width="0.5" points="0,0 4,0"/>
        </g>
        <g id="g77" transform="rotate(-90) translate(30 0)">
          <polyline id="polyline75" stroke="#333" stroke-width="0.5" points="0,0 4,0"/>
        </g>
        <g id="g81" transform="rotate(-60) translate(30 0)">
          <polyline id="polyline79" stroke="#333" stroke-width="0.5" points="0,0 4,0"/>
        </g>
        <g id="g85" transform="rotate(-30) translate(30 0)">
          <polyline id="polyline83" stroke="#333" stroke-width="0.5" points="0,0 4,0"/>
        </g>
        <g id="g89" transform="rotate(0) translate(30 0)">
          <polyline id="polyline87" stroke="#333" stroke-width="0.5" points="0,0 4,0"/>
        </g>
        <g id="g93" transform="rotate(30) translate(30 0)">
          <polyline id="polyline91" stroke="#333" stroke-width="0.5" points="0,0 4,0"/>
        </g>
        <g id="g99" transform="rotate(60) translate(31 0)">
          <g id="g97" transform="translate(2 0) rotate(-60)">
            <text id="text95" transform="translate(-6 4.3)" font-size="7pt">500ms</text>
          </g>
        </g>
      </g>
    </symbol>
  </defs>
  <path d="M 0,0 H 300 V 380 H 0 Z" style="fill:#dddddd" id="rect106"/>
  <path d="M 1,1 H 299 V 379 H 1 V 1" style="fill:none;stroke:#e4e4e4;stroke-width:0.5" id="polyline108"/>
  <path d="m 0.5,0.5 h 299 v 379 H 0.5 V 0.5" style="fill:none;stroke:#ebebeb;stroke-width:0.8" id="polyline110"/>
  <path d="M 0,0 H 300 V 380 H 0 V 0" style="fill:none;stroke:#f2f2f2;stroke-width:1" id="polyline112"/>
  <g class="title" style="font-weight:normal;font-size:16px;font-family:Comfortaa, sans-serif;letter-spacing:4px;fill:#333333" id="text114" aria-label="ANALYZER">
    <path id="path512" style="font-weight:normal;font-size:16px;font-family:Comfortaa, sans-serif;letter-spacing:4px;fill:#333333" d="m 103.476,18.12 q 0.064,0.112 0.064,0.256 0,0.256 -0.192,0.448 Q 103.172,19 102.916,19 102.5,19 102.324,18.616 l -1.072,-2.592 H 95.06 l -1.072,2.592 Q 93.86,19 93.412,19 q -0.272,0 -0.448,-0.176 -0.16,-0.192 -0.16,-0.448 0,-0.16 0.048,-0.272 L 97.556,6.936 q 0.176,-0.432 0.608,-0.432 0.432,0 0.592,0.432 z m -2.656,-3.168 -2.656,-6.416 -2.656,6.416 z"/>
    <path id="path514" style="font-weight:normal;font-size:16px;font-family:Comfortaa, sans-serif;letter-spacing:4px;fill:#333333" d="m 109.974,19 q -0.272,0 -0.448,-0.176 -0.176,-0.176 -0.176,-0.448 V 7.128 q 0,-0.272 0.176,-0.448 0.176,-0.176 0.448,-0.176 0.288,0 0.48,0.224 l 7.648,10.048 V 7.128 q 0,-0.272 0.176,-0.448 0.192,-0.176 0.448,-0.176 0.272,0 0.448,0.176 0.176,0.176 0.176,0.448 v 11.248 q 0,0.256 -0.176,0.448 -0.176,0.176 -0.448,0.176 -0.32,0 -0.464,-0.208 L 110.598,8.744 v 9.632 q 0,0.256 -0.176,0.448 Q 110.246,19 109.974,19 Z"/>
    <path id="path516" style="font-weight:normal;font-size:16px;font-family:Comfortaa, sans-serif;letter-spacing:4px;fill:#333333" d="m 135.9135,18.12 q 0.064,0.112 0.064,0.256 0,0.256 -0.192,0.448 -0.176,0.176 -0.432,0.176 -0.416,0 -0.592,-0.384 l -1.072,-2.592 h -6.192 l -1.072,2.592 q -0.128,0.384 -0.576,0.384 -0.272,0 -0.448,-0.176 -0.16,-0.192 -0.16,-0.448 0,-0.16 0.048,-0.272 l 4.704,-11.168 q 0.176,-0.432 0.608,-0.432 0.432,0 0.592,0.432 z m -2.656,-3.168 -2.656,-6.416 -2.656,6.416 z"/>
    <path id="path518" style="font-weight:normal;font-size:16px;font-family:Comfortaa, sans-serif;letter-spacing:4px;fill:#333333" d="m 142.4115,19 q -0.256,0 -0.448,-0.176 -0.176,-0.192 -0.176,-0.448 V 7.128 q 0,-0.256 0.176,-0.432 0.192,-0.192 0.448,-0.192 0.272,0 0.448,0.176 0.176,0.176 0.176,0.448 v 10.688 h 6.256 q 0.272,0 0.448,0.176 0.176,0.16 0.176,0.416 0,0.256 -0.176,0.432 -0.176,0.16 -0.448,0.16 z"/>
    <path id="path520" style="font-weight:normal;font-size:16px;font-family:Comfortaa, sans-serif;letter-spacing:4px;fill:#333333" d="m 161.96275,6.504 q 0.24,0 0.384,0.176 0.16,0.16 0.16,0.4 0,0.224 -0.112,0.4 l -4.368,6.896 v 4 q 0,0.256 -0.176,0.448 -0.176,0.176 -0.448,0.176 -0.256,0 -0.448,-0.176 -0.176,-0.192 -0.176,-0.448 v -4 l -4.352,-6.896 q -0.128,-0.208 -0.128,-0.4 0,-0.24 0.176,-0.4 0.176,-0.176 0.432,-0.176 0.176,0 0.288,0.08 0.128,0.064 0.24,0.224 l 3.984,6.416 3.968,-6.384 q 0.128,-0.176 0.256,-0.256 0.128,-0.08 0.32,-0.08 z"/>
    <path id="path522" style="font-weight:normal;font-size:16px;font-family:Comfortaa, sans-serif;letter-spacing:4px;fill:#333333" d="m 168.00175,19 q -0.272,0 -0.448,-0.192 -0.176,-0.192 -0.176,-0.432 0,-0.24 0.128,-0.384 l 8.272,-10.368 h -7.712 q -0.288,0 -0.448,-0.144 -0.16,-0.144 -0.16,-0.4 0,-0.24 0.176,-0.4 0.176,-0.176 0.448,-0.176 h 8.672 q 0.288,0 0.448,0.192 0.176,0.192 0.176,0.448 0,0.208 -0.112,0.336 l -8.304,10.4 h 7.792 q 0.272,0 0.448,0.16 0.176,0.144 0.176,0.4 0,0.24 -0.176,0.4 -0.176,0.16 -0.448,0.16 z"/>
    <path id="path524" style="font-weight:normal;font-size:16px;font-family:Comfortaa, sans-serif;letter-spacing:4px;fill:#333333" d="m 184.4115,19 q -0.256,0 -0.448,-0.176 -0.176,-0.192 -0.176,-0.448 V 7.128 q 0,-0.272 0.176,-0.448 0.192,-0.176 0.448,-0.176 h 7.504 q 0.272,0 0.448,0.176 0.176,0.176 0.176,0.432 0,0.256 -0.176,0.432 -0.176,0.16 -0.448,0.16 h -6.88 v 4.416 h 5.008 q 0.272,0 0.448,0.176 0.176,0.176 0.176,0.432 0,0.256 -0.192,0.432 -0.176,0.176 -0.432,0.176 h -5.008 V 17.8 h 6.88 q 0.272,0 0.448,0.176 0.176,0.16 0.176,0.416 0,0.256 -0.176,0.432 -0.176,0.176 -0.448,0.176 z"/>
    <path id="path526" style="font-weight:normal;font-size:16px;font-family:Comfortaa, sans-serif;letter-spacing:4px;fill:#333333" d="m 206.658,18.04 q 0.144,0.24 0.144,0.432 0,0.24 -0.176,0.384 Q 206.45,19 206.162,19 q -0.192,0 -0.32,-0.08 -0.128,-0.08 -0.224,-0.24 l -2.88,-4.576 h -0.272 -2.368 v 4.272 q 0,0.272 -0.176,0.448 -0.176,0.176 -0.448,0.176 -0.272,0 -0.448,-0.176 -0.176,-0.176 -0.176,-0.448 V 7.128 q 0,-0.272 0.176,-0.448 0.176,-0.176 0.448,-0.176 h 2.992 q 1.168,0 2.08,0.496 0.912,0.48 1.424,1.36 0.528,0.88 0.528,2 0,1.232 -0.672,2.16 -0.656,0.928 -1.792,1.328 z m -4.192,-5.136 q 0.8,0 1.44,-0.32 0.656,-0.336 1.008,-0.912 0.368,-0.576 0.368,-1.312 0,-0.768 -0.368,-1.376 -0.352,-0.608 -0.992,-0.944 -0.64,-0.336 -1.456,-0.336 h -2.368 v 5.2 z"/>
  </g>
  <g class="brand" style="font-weight:bold;font-size:10.6667px;font-family:Audiowide, sans-serif;letter-spacing:2px;fill:#333333" id="text116" aria-label="BOGAUDIO">
    <path id="path495" style="font-weight:bold;font-size:10.6667px;font-family:Audiowide, sans-serif;letter-spacing:2px;fill:#333333" d="m 118.23961,372.35937 q 0,0.25 -0.0885,0.53646 -0.0833,0.28646 -0.28125,0.53125 -0.19271,0.24479 -0.50521,0.41146 Q 117.05211,374 116.59898,374 h -5.14064 q -0.14584,0 -0.27084,-0.0521 -0.125,-0.0521 -0.21875,-0.14063 -0.0885,-0.0937 -0.14062,-0.21875 -0.0521,-0.125 -0.0521,-0.27083 v -6.10419 q 0,-0.14063 0.0521,-0.26563 0.0521,-0.125 0.14062,-0.21875 0.0937,-0.0937 0.21875,-0.14583 0.125,-0.0521 0.27084,-0.0521 h 4.53126 q 0.25,0 0.53646,0.0885 0.28646,0.0885 0.53125,0.28646 0.25,0.19271 0.41146,0.50521 0.16667,0.3125 0.16667,0.76562 v 0.25521 q 0,0.35938 -0.11979,0.77605 -0.11979,0.41146 -0.38542,0.78125 0.22917,0.14063 0.42709,0.33854 0.20312,0.19792 0.35416,0.45834 0.15105,0.26042 0.23959,0.58854 0.0885,0.32813 0.0885,0.72396 z m -1.35417,-0.26042 q 0,-0.26562 -0.0833,-0.47396 -0.0833,-0.21354 -0.23437,-0.36458 -0.15104,-0.15104 -0.36459,-0.22917 -0.21354,-0.0833 -0.47916,-0.0833 h -3.0521 v -1.36459 h 2.44272 q 0.26563,0 0.47917,-0.0781 0.21354,-0.0833 0.36458,-0.23437 0.15104,-0.15104 0.22917,-0.35938 0.0833,-0.21354 0.0833,-0.47917 v -0.25521 q 0,-0.29166 -0.28125,-0.29166 h -3.85938 v 4.76043 h 4.46876 q 0.0365,0 0.0885,-0.005 0.0521,-0.005 0.0937,-0.0312 0.0417,-0.026 0.0729,-0.0885 0.0312,-0.0625 0.0312,-0.17188 z"/>
    <path id="path497" style="font-weight:bold;font-size:10.6667px;font-family:Audiowide, sans-serif;letter-spacing:2px;fill:#333333" d="m 129.25005,370.97916 q 0,0.68229 -0.23437,1.25521 -0.23438,0.57292 -0.65104,0.98959 -0.41667,0.41666 -0.98959,0.65104 -0.56771,0.22917 -1.23959,0.22917 h -1.83334 q -0.67187,0 -1.24479,-0.22917 -0.57292,-0.23438 -0.98959,-0.65104 -0.41667,-0.41667 -0.65625,-0.98959 -0.23438,-0.57292 -0.23438,-1.25521 v -1.42709 q 0,-0.67709 0.23438,-1.25 0.23958,-0.57813 0.65625,-0.98959 0.41667,-0.41667 0.98959,-0.65104 0.57292,-0.23438 1.24479,-0.23438 h 1.83334 q 0.67188,0 1.23959,0.23438 0.57292,0.23437 0.98959,0.65104 0.41666,0.41146 0.65104,0.98959 0.23437,0.57291 0.23437,1.25 z m -1.35417,-1.42709 q 0,-0.40104 -0.1302,-0.72396 -0.12501,-0.32813 -0.35938,-0.55729 -0.22917,-0.23438 -0.55729,-0.35938 -0.32292,-0.13021 -0.71355,-0.13021 h -1.83334 q -0.39583,0 -0.72396,0.13021 -0.32292,0.125 -0.55729,0.35938 -0.23438,0.22916 -0.36459,0.55729 -0.125,0.32292 -0.125,0.72396 v 1.42709 q 0,0.40104 0.125,0.72917 0.13021,0.32291 0.36459,0.55729 0.23437,0.22917 0.55729,0.35938 0.32813,0.125 0.72396,0.125 h 1.82293 q 0.39583,0 0.71875,-0.125 0.32812,-0.13021 0.5625,-0.35938 0.23437,-0.23438 0.35938,-0.55729 0.1302,-0.32813 0.1302,-0.72917 z"/>
    <path id="path499" style="font-weight:bold;font-size:10.6667px;font-family:Audiowide, sans-serif;letter-spacing:2px;fill:#333333" d="m 139.96883,373.31771 q 0,0.14583 -0.0521,0.27083 -0.0521,0.125 -0.14583,0.21875 -0.0885,0.0885 -0.21355,0.14063 -0.125,0.0521 -0.27083,0.0521 h -4.88543 q -0.1875,0 -0.40625,-0.0417 -0.21355,-0.0469 -0.42709,-0.14062 -0.20833,-0.0937 -0.40104,-0.23959 -0.19271,-0.15104 -0.34375,-0.35937 -0.14584,-0.21354 -0.23438,-0.48959 -0.0885,-0.28125 -0.0885,-0.63021 v -3.66668 q 0,-0.1875 0.0417,-0.40104 0.0469,-0.21875 0.14062,-0.42708 0.0937,-0.21355 0.24479,-0.40625 0.15105,-0.19271 0.35938,-0.33855 0.21354,-0.15104 0.48959,-0.23958 0.27604,-0.0885 0.625,-0.0885 h 5.50522 v 1.35417 h -5.50522 q -0.26563,0 -0.40625,0.14062 -0.14063,0.14063 -0.14063,0.41667 v 3.65626 q 0,0.26042 0.14063,0.40625 0.14583,0.14063 0.40625,0.14063 h 4.21355 v -1.69792 h -3.60418 v -1.36459 h 4.27606 q 0.14583,0 0.27083,0.0573 0.125,0.0521 0.21355,0.14584 0.0937,0.0937 0.14583,0.21875 0.0521,0.11979 0.0521,0.26041 z"/>
    <path id="path501" style="font-weight:bold;font-size:10.6667px;font-family:Audiowide, sans-serif;letter-spacing:2px;fill:#333333" d="m 150.71886,374 h -1.35417 v -1.83334 h -4.76043 V 374 h -1.35417 v -3.73439 q 0,-0.81771 0.28125,-1.50521 0.28125,-0.6875 0.78125,-1.1823 0.5,-0.49479 1.1823,-0.77083 0.68229,-0.27604 1.48958,-0.27604 h 3.0521 q 0.14062,0 0.26562,0.0521 0.125,0.0521 0.21875,0.14583 0.0937,0.0937 0.14584,0.21875 0.0521,0.125 0.0521,0.26563 z m -6.1146,-3.18751 h 4.76043 v -2.92709 h -2.38022 q -0.0625,0 -0.26562,0.0208 -0.19792,0.0156 -0.46354,0.0885 -0.26042,0.0729 -0.55209,0.22396 -0.29167,0.15104 -0.53646,0.41667 -0.24479,0.26563 -0.40625,0.66667 -0.15625,0.39583 -0.15625,0.96354 z"/>
    <path id="path503" style="font-weight:bold;font-size:10.6667px;font-family:Audiowide, sans-serif;letter-spacing:2px;fill:#333333" d="m 161.60431,373.31771 q 0,0.14583 -0.0521,0.27083 -0.0521,0.125 -0.14583,0.21875 -0.0937,0.0885 -0.21875,0.14063 -0.125,0.0521 -0.26563,0.0521 h -3.05209 q -0.43229,0 -0.875,-0.0937 -0.44271,-0.0937 -0.85938,-0.28646 -0.41146,-0.19792 -0.77604,-0.5 -0.36459,-0.30209 -0.64063,-0.71355 -0.27084,-0.41666 -0.42709,-0.94791 -0.15625,-0.53646 -0.15625,-1.19272 v -3.73438 h 1.35417 v 3.73438 q 0,0.57292 0.15625,0.96876 0.16146,0.39583 0.40626,0.66146 0.24479,0.26562 0.53646,0.41666 0.29166,0.15105 0.55208,0.22396 0.26563,0.0729 0.46354,0.0937 0.20313,0.0156 0.26563,0.0156 h 2.38022 v -6.1146 h 1.35417 z"/>
    <path id="path505" style="font-weight:bold;font-size:10.6667px;font-family:Audiowide, sans-serif;letter-spacing:2px;fill:#333333" d="m 172.63558,370.87499 q 0,0.68229 -0.23958,1.25521 -0.23438,0.57292 -0.65105,0.98959 -0.41666,0.41146 -0.98958,0.64583 Q 170.18245,374 169.51057,374 h -3.65626 q -0.14583,0 -0.27083,-0.0521 -0.125,-0.0521 -0.21875,-0.14063 -0.0885,-0.0937 -0.14063,-0.21875 -0.0521,-0.125 -0.0521,-0.27083 v -6.10419 q 0,-0.14063 0.0521,-0.26563 0.0521,-0.125 0.14063,-0.21875 0.0937,-0.0937 0.21875,-0.14583 0.125,-0.0521 0.27083,-0.0521 h 3.65626 q 0.67188,0 1.2448,0.23437 0.57292,0.23438 0.98958,0.65105 0.41667,0.41146 0.65105,0.98958 0.23958,0.57292 0.23958,1.25001 z m -1.35417,-1.21875 q 0,-0.39584 -0.13021,-0.72396 -0.125,-0.32813 -0.35937,-0.5573 -0.23438,-0.23437 -0.56251,-0.35937 -0.32291,-0.13021 -0.71875,-0.13021 h -2.98438 v 4.76043 h 2.98438 q 0.39584,0 0.71875,-0.125 0.32813,-0.13021 0.56251,-0.35938 0.23437,-0.23437 0.35937,-0.55729 0.13021,-0.32813 0.13021,-0.72917 z"/>
    <path id="path507" style="font-weight:bold;font-size:10.6667px;font-family:Audiowide, sans-serif;letter-spacing:2px;fill:#333333" d="m 177.33872,374 h -1.35417 v -7.46877 h 1.35417 z"/>
    <path id="path509" style="font-weight:bold;font-size:10.6667px;font-family:Audiowide, sans-serif;letter-spacing:2px;fill:#333333" d="m 188.77104,370.97916 q 0,0.68229 -0.23438,1.25521 -0.23437,0.57292 -0.65104,0.98959 -0.41667,0.41666 -0.98959,0.65104 -0.56771,0.22917 -1.23958,0.22917 h -1.83334 q -0.67188,0 -1.2448,-0.22917 -0.57292,-0.23438 -0.98959,-0.65104 -0.41666,-0.41667 -0.65625,-0.98959 -0.23437,-0.57292 -0.23437,-1.25521 v -1.42709 q 0,-0.67709 0.23437,-1.25 0.23959,-0.57813 0.65625,-0.98959 0.41667,-0.41667 0.98959,-0.65104 0.57292,-0.23438 1.2448,-0.23438 h 1.83334 q 0.67187,0 1.23958,0.23438 0.57292,0.23437 0.98959,0.65104 0.41667,0.41146 0.65104,0.98959 0.23438,0.57291 0.23438,1.25 z m -1.35417,-1.42709 q 0,-0.40104 -0.13021,-0.72396 -0.125,-0.32813 -0.35938,-0.55729 -0.22916,-0.23438 -0.55729,-0.35938 -0.32292,-0.13021 -0.71354,-0.13021 h -1.83334 q -0.39584,0 -0.72396,0.13021 -0.32292,0.125 -0.5573,0.35938 -0.23437,0.22916 -0.36458,0.55729 -0.125,0.32292 -0.125,0.72396 v 1.42709 q 0,0.40104 0.125,0.72917 0.13021,0.32291 0.36458,0.55729 0.23438,0.22917 0.5573,0.35938 0.32812,0.125 0.72396,0.125 h 1.82292 q 0.39583,0 0.71875,-0.125 0.32813,-0.13021 0.5625,-0.35938 0.23438,-0.23438 0.35938,-0.55729 0.13021,-0.32813 0.13021,-0.72917 z"/>
  </g>
  <path d="m 134,369 h 3 v 3 h -3 z" style="fill:#dddddd" id="rect118"/>
  <!-- <polyline points="0,0 0,380" stroke="#0f0" stroke-width="1" fill="none" transform="translate(10 0)" /> -->
  <!-- <polyline points="0,0 0,380" stroke="#0f0" stroke-width="1" fill="none" transform="translate(82.5 0)" /> -->
  <!-- <polyline points="0,0 0,380" stroke="#0f0" stroke-width="1" fill="none" transform="translate(155 0)" /> -->
  <!-- <polyline points="0,0 0,380" stroke="#0f0" stroke-width="1" fill="none" transform="translate(227 0)" /> -->
  <!-- <polyline points="0,0 0,380" stroke="#0f0" stroke-width="1" fill="none" transform="translate(290 0)" /> -->
  <!-- <polyline points="0,0 0,380" stroke="#f00" stroke-width="1" fill="none" transform="translate(150 0)" /> -->
  <g transform="translate(10,320)" id="g134">
    <path d="m 5,0 h 52 c 2.77,0 5,2.23 5,5 v 30 c 0,2.77 -2.23,5 -5,5 H 5 C 2.23,40 0,37.77 0,35 V 5 C 0,2.23 2.23,0 5,0 Z" style="fill:#fafafa" id="rect124"/>
    <path d="m 5,0 h 13 c 2.77,0 5,2.23 5,5 v 30 c 0,2.77 -2.23,5 -5,5 H 5 C 2.23,40 0,37.77 0,35 V 5 C 0,2.23 2.23,0 5,0 Z" style="fill:#bbbbbb" transform="translate(40)" id="rect126"/>
    <path d="M 0,0 H 20 V 40 H 0 Z" style="fill:#bbbbbb" transform="translate(31)" id="rect128"/>
    <g style="font-weight:bold;font-size:8px;font-family:Roboto, sans-serif;letter-spacing:2px;fill:#333333" id="text130" transform="translate(10.5,36)" aria-label="IN">
      <path id="path587" style="font-weight:bold;font-size:8px;font-family:Roboto, sans-serif;letter-spacing:2px;fill:#333333" d="M 1.7539062,0 H 0.58203125 V -5.6875 H 1.7539062 Z"/>
      <path id="path589" style="font-weight:bold;font-size:8px;font-family:Roboto, sans-serif;letter-spacing:2px;fill:#333333" d="m 9.4609375,0 h -1.171875 l -2.28125,-3.7421875 V 0 h -1.171875 v -5.6875 h 1.171875 l 2.2851563,3.75 v -3.75 h 1.1679687 z"/>
    </g>
    <g style="font-weight:bold;font-size:8px;font-family:Roboto, sans-serif;letter-spacing:2px;fill:#333333" id="text132" transform="translate(33.5,36)" aria-label="THRU">
      <path id="path592" style="font-weight:bold;font-size:8px;font-family:Roboto, sans-serif;letter-spacing:2px;fill:#333333" d="M 4.7890625,-4.7382812 H 3.046875 V 0 H 1.875 V -4.7382812 H 0.15625 V -5.6875 h 4.6328125 z"/>
      <path id="path594" style="font-weight:bold;font-size:8px;font-family:Roboto, sans-serif;letter-spacing:2px;fill:#333333" d="M 12.089844,0 H 10.917969 V -2.4375 H 8.6328125 V 0 h -1.171875 v -5.6875 h 1.171875 v 2.3046875 H 10.917969 V -5.6875 h 1.171875 z"/>
      <path id="path596" style="font-weight:bold;font-size:8px;font-family:Roboto, sans-serif;letter-spacing:2px;fill:#333333" d="M 17.222656,-2.0820313 H 16.289062 V 0 h -1.171874 v -5.6875 h 2.113281 q 1.007812,0 1.554687,0.4492188 0.546875,0.4492187 0.546875,1.2695312 0,0.5820312 -0.253906,0.9726562 -0.25,0.3867188 -0.761719,0.6171875 l 1.230469,2.3242188 V 0 H 18.289062 Z M 16.289062,-3.03125 h 0.945313 q 0.441406,0 0.683594,-0.2226563 0.242187,-0.2265625 0.242187,-0.6210937 0,-0.4023437 -0.230469,-0.6328125 -0.226562,-0.2304687 -0.699218,-0.2304687 h -0.941407 z"/>
      <path id="path598" style="font-weight:bold;font-size:8px;font-family:Roboto, sans-serif;letter-spacing:2px;fill:#333333" d="m 26.53125,-5.6875 v 3.7460938 q 0,0.9335937 -0.585938,1.47656245 -0.582031,0.54296875 -1.59375,0.54296875 -0.996093,0 -1.582031,-0.52734375 Q 22.183594,-0.9765625 22.171875,-1.8984375 V -5.6875 h 1.171875 v 3.7539063 q 0,0.5585937 0.265625,0.8164062 0.269531,0.25390625 0.742187,0.25390625 0.988282,0 1.003907,-1.03906245 V -5.6875 Z"/>
    </g>
  </g>
  <g transform="translate(82.5,320)" id="g146">
    <path d="m 5,0 h 52 c 2.77,0 5,2.23 5,5 v 30 c 0,2.77 -2.23,5 -5,5 H 5 C 2.23,40 0,37.77 0,35 V 5 C 0,2.23 2.23,0 5,0 Z" style="fill:#fafafa" id="rect136"/>
    <path d="m 5,0 h 13 c 2.77,0 5,2.23 5,5 v 30 c 0,2.77 -2.23,5 -5,5 H 5 C 2.23,40 0,37.77 0,35 V 5 C 0,2.23 2.23,0 5,0 Z" style="fill:#bbbbbb" transform="translate(40)" id="rect138"/>
    <path d="M 0,0 H 20 V 40 H 0 Z" style="fill:#bbbbbb" transform="translate(31)" id="rect140"/>
    <g style="font-weight:bold;font-size:8px;font-family:Roboto, sans-serif;letter-spacing:2px;fill:#333333" id="text142" transform="translate(10.5,36)" aria-label="IN">
      <path id="path570" style="font-weight:bold;font-size:8px;font-family:Roboto, sans-serif;letter-spacing:2px;fill:#333333" d="M 1.7539062,0 H 0.58203125 V -5.6875 H 1.7539062 Z"/>
      <path id="path572" style="font-weight:bold;font-size:8px;font-family:Roboto, sans-serif;letter-spacing:2px;fill:#333333" d="m 9.4609375,0 h -1.171875 l -2.28125,-3.7421875 V 0 h -1.171875 v -5.6875 h 1.171875 l 2.2851563,3.75 v -3.75 h 1.1679687 z"/>
    </g>
    <g style="font-weight:bold;font-size:8px;font-family:Roboto, sans-serif;letter-spacing:2px;fill:#333333" id="text144" transform="translate(33.5,36)" aria-label="THRU">
      <path id="path575" style="font-weight:bold;font-size:8px;font-family:Roboto, sans-serif;letter-spacing:2px;fill:#333333" d="M 4.7890625,-4.7382812 H 3.046875 V 0 H 1.875 V -4.7382812 H 0.15625 V -5.6875 h 4.6328125 z"/>
      <path id="path577" style="font-weight:bold;font-size:8px;font-family:Roboto, sans-serif;letter-spacing:2px;fill:#333333" d="M 12.089844,0 H 10.917969 V -2.4375 H 8.6328125 V 0 h -1.171875 v -5.6875 h 1.171875 v 2.3046875 H 10.917969 V -5.6875 h 1.171875 z"/>
      <path id="path579" style="font-weight:bold;font-size:8px;font-family:Roboto, sans-serif;letter-spacing:2px;fill:#333333" d="M 17.222656,-2.0820313 H 16.289062 V 0 h -1.171874 v -5.6875 h 2.113281 q 1.007812,0 1.554687,0.4492188 0.546875,0.4492187 0.546875,1.2695312 0,0.5820312 -0.253906,0.9726562 -0.25,0.3867188 -0.761719,0.6171875 l 1.230469,2.3242188 V 0 H 18.289062 Z M 16.289062,-3.03125 h 0.945313 q 0.441406,0 0.683594,-0.2226563 0.242187,-0.2265625 0.242187,-0.6210937 0,-0.4023437 -0.230469,-0.6328125 -0.226562,-0.2304687 -0.699218,-0.2304687 h -0.941407 z"/>
      <path id="path581" style="font-weight:bold;font-size:8px;font-family:Roboto, sans-serif;letter-spacing:2px;fill:#333333" d="m 26.53125,-5.6875 v 3.7460938 q 0,0.9335937 -0.585938,1.47656245 -0.582031,0.54296875 -1.59375,0.54296875 -0.996093,0 -1.582031,-0.52734375 Q 22.183594,-0.9765625 22.171875,-1.8984375 V -5.6875 h 1.171875 v 3.7539063 q 0,0.5585937 0.265625,0.8164062 0.269531,0.25390625 0.742187,0.25390625 0.988282,0 1.003907,-1.03906245 V -5.6875 Z"/>
    </g>
  </g>
  <g transform="translate(155,320)" id="g158">
    <path d="m 5,0 h 52 c 2.77,0 5,2.23 5,5 v 30 c 0,2.77 -2.23,5 -5,5 H 5 C 2.23,40 0,37.77 0,35 V 5 C 0,2.23 2.23,0 5,0 Z" style="fill:#fafafa" id="rect148"/>
    <path d="m 5,0 h 13 c 2.77,0 5,2.23 5,5 v 30 c 0,2.77 -2.23,5 -5,5 H 5 C 2.23,40 0,37.77 0,35 V 5 C 0,2.23 2.23,0 5,0 Z" style="fill:#bbbbbb" transform="translate(40)" id="rect150"/>
    <path d="M 0,0 H 20 V 40 H 0 Z" style="fill:#bbbbbb" transform="translate(31)" id="rect152"/>
    <g style="font-weight:bold;font-size:8px;font-family:Roboto, sans-serif;letter-spacing:2px;fill:#333333" id="text154" transform="translate(10.5,36)" aria-label="IN">
      <path id="path553" style="font-weight:bold;font-size:8px;font-family:Roboto, sans-serif;letter-spacing:2px;fill:#333333" d="M 1.7539062,0 H 0.58203125 V -5.6875 H 1.7539062 Z"/>
      <path id="path555" style="font-weight:bold;font-size:8px;font-family:Roboto, sans-serif;letter-spacing:2px;fill:#333333" d="m 9.4609375,0 h -1.171875 l -2.28125,-3.7421875 V 0 h -1.171875 v -5.6875 h 1.171875 l 2.2851563,3.75 v -3.75 h 1.1679687 z"/>
    </g>
    <g style="font-weight:bold;font-size:8px;font-family:Roboto, sans-serif;letter-spacing:2px;fill:#333333" id="text156" transform="translate(33.5,36)" aria-label="THRU">
      <path id="path558" style="font-weight:bold;font-size:8px;font-family:Roboto, sans-serif;letter-spacing:2px;fill:#333333" d="M 4.7890625,-4.7382812 H 3.046875 V 0 H 1.875 V -4.7382812 H 0.15625 V -5.6875 h 4.6328125 z"/>
      <path id="path560" style="font-weight:bold;font-size:8px;font-family:Roboto, sans-serif;letter-spacing:2px;fill:#333333" d="M 12.089844,0 H 10.917969 V -2.4375 H 8.6328125 V 0 h -1.171875 v -5.6875 h 1.171875 v 2.3046875 H 10.917969 V -5.6875 h 1.171875 z"/>
      <path id="path562" style="font-weight:bold;font-size:8px;font-family:Roboto, sans-serif;letter-spacing:2px;fill:#333333" d="M 17.222656,-2.0820313 H 16.289062 V 0 h -1.171874 v -5.6875 h 2.113281 q 1.007812,0 1.554687,0.4492188 0.546875,0.4492187 0.546875,1.2695312 0,0.5820312 -0.253906,0.9726562 -0.25,0.3867188 -0.761719,0.6171875 l 1.230469,2.3242188 V 0 H 18.289062 Z M 16.289062,-3.03125 h 0.945313 q 0.441406,0 0.683594,-0.2226563 0.242187,-0.2265625 0.242187,-0.6210937 0,-0.4023437 -0.230469,-0.6328125 -0.226562,-0.2304687 -0.699218,-0.2304687 h -0.941407 z"/>
      <path id="path564" style="font-weight:bold;font-size:8px;font-family:Roboto, sans-serif;letter-spacing:2px;fill:#333333" d="m 26.53125,-5.6875 v 3.7460938 q 0,0.9335937 -0.585938,1.47656245 -0.582031,0.54296875 -1.59375,0.54296875 -0.996093,0 -1.582031,-0.52734375 Q 22.183594,-0.9765625 22.171875,-1.8984375 V -5.6875 h 1.171875 v 3.7539063 q 0,0.5585937 0.265625,0.8164062 0.269531,0.25390625 0.742187,0.25390625 0.988282,0 1.003907,-1.03906245 V -5.6875 Z"/>
    </g>
  </g>
  <g transform="translate(227,320)" id="g170">
    <path d="m 5,0 h 52 c 2.77,0 5,2.23 5,5 v 30 c 0,2.77 -2.23,5 -5,5 H 5 C 2.23,40 0,37.77 0,35 V 5 C 0,2.23 2.23,0 5,0 Z" style="fill:#fafafa" id="rect160"/>
    <path d="m 5,0 h 13 c 2.77,0 5,2.23 5,5 v 30 c 0,2.77 -2.23,5 -5,5 H 5 C 2.23,40 0,37.77 0,35 V 5 C 0,2.23 2.23,0 5,0 Z" style="fill:#bbbbbb" transform="translate(40)" id="rect162"/>
    <path d="M 0,0 H 20 V 40 H 0 Z" style="fill:#bbbbbb" transform="translate(31)" id="rect164"/>
    <g style="font-weight:bold;font-size:8px;font-family:Roboto, sans-serif;letter-spacing:2px;fill:#333333" id="text166" transform="translate(10.5,36)" aria-label="IN">
      <path id="path536" style="font-weight:bold;font-size:8px;font-family:Roboto, sans-serif;letter-spacing:2px;fill:#333333" d="M 1.7539062,0 H 0.58203125 V -5.6875 H 1.7539062 Z"/>
      <path id="path538" style="font-weight:bold;font-size:8px;font-family:Roboto, sans-serif;letter-spacing:2px;fill:#333333" d="m 9.4609375,0 h -1.171875 l -2.28125,-3.7421875 V 0 h -1.171875 v -5.6875 h 1.171875 l 2.2851563,3.75 v -3.75 h 1.1679687 z"/>
    </g>
    <g style="font-weight:bold;font-size:8px;font-family:Roboto, sans-serif;letter-spacing:2px;fill:#333333" id="text168" transform="translate(33.5,36)" aria-label="THRU">
      <path id="path541" style="font-weight:bold;font-size:8px;font-family:Roboto, sans-serif;letter-spacing:2px;fill:#333333" d="M 4.7890625,-4.7382812 H 3.046875 V 0 H 1.875 V -4.7382812 H 0.15625 V -5.6875 h 4.6328125 z"/>
      <path id="path543" style="font-weight:bold;font-size:8px;font-family:Roboto, sans-serif;letter-spacing:2px;fill:#333333" d="M 12.089844,0 H 10.917969 V -2.4375 H 8.6328125 V 0 h -1.171875 v -5.6875 h 1.171875 v 2.3046875 H 10.917969 V -5.6875 h 1.171875 z"/>
      <path id="path545" style="font-weight:bold;font-size:8px;font-family:Roboto, sans-serif;letter-spacing:2px;fill:#333333" d="M 17.222656,-2.0820313 H 16.289062 V 0 h -1.171874 v -5.6875 h 2.113281 q 1.007812,0 1.554687,0.4492188 0.546875,0.4492187 0.546875,1.2695312 0,0.5820312 -0.253906,0.9726562 -0.25,0.3867188 -0.761719,0.6171875 l 1.230469,2.3242188 V 0 H 18.289062 Z M 16.289062,-3.03125 h 0.945313 q 0.441406,0 0.683594,-0.2226563 0.242187,-0.2265625 0.242187,-0.6210937 0,-0.4023437 -0.230469,-0.6328125 -0.226562,-0.2304687 -0.699218,-0.2304687 h -0.941407 z"/>
      <path id="path547" style="font-weight:bold;font-size:8px;font-family:Roboto, sans-serif;letter-spacing:2px;fill:#333333" d="m 26.53125,-5.6875 v 3.7460938 q 0,0.9335937 -0.585938,1.47656245 -0.582031,0.54296875 -1.59375,0.54296875 -0.996093,0 -1.582031,-0.52734375 Q 22.183594,-0.9765625 22.171875,-1.8984375 V -5.6875 h 1.171875 v 3.7539063 q 0,0.5585937 0.265625,0.8164062 0.269531,0.25390625 0.742187,0.25390625 0.988282,0 1.003907,-1.03906245 V -5.6875 Z"/>
    </g>
  </g>
  <g transform="translate(30,271)" id="g176">
    <g style="font-weight:bold;font-size:9.33333px;font-family:Roboto, sans-serif;letter-spacing:2px;fill:#333333" id="text174" transform="rotate(-90,13.5,24.5)" aria-label="RANGE">
      <path id="path483" style="font-weight:bold;font-size:9.33333px;font-family:Roboto, sans-serif;letter-spacing:2px;fill:#333333" d="M 3.0488271,-2.4290356 H 1.9596347 V 0 H 0.59244771 V -6.6354144 H 3.0579417 q 1.1757808,0 1.8138014,0.5240884 0.6380206,0.5240883 0.6380206,1.4811192 0,0.6790363 -0.2962238,1.1347653 -0.2916666,0.4511717 -0.8886716,0.7200518 l 1.4355464,2.71158764 V 0 H 4.2929673 Z M 1.9596347,-3.5364571 H 3.062499 q 0.5149737,0 0.7975257,-0.2597656 0.282552,-0.2643228 0.282552,-0.7246091 0,-0.4694009 -0.2688801,-0.738281 -0.2643228,-0.2688801 -0.8157549,-0.2688801 h -1.098307 z"/>
      <path id="path485" style="font-weight:bold;font-size:9.33333px;font-family:Roboto, sans-serif;letter-spacing:2px;fill:#333333" d="M 12.299476,-1.367187 H 9.9023412 L 9.4466122,0 H 7.9928366 l 2.4700514,-6.6354144 h 1.266927 L 14.213538,0 h -1.453776 z m -2.027994,-1.1074215 h 1.658853 l -0.833984,-2.4837231 z"/>
      <path id="path487" style="font-weight:bold;font-size:9.33333px;font-family:Roboto, sans-serif;letter-spacing:2px;fill:#333333" d="M 22.238275,0 H 20.871088 L 18.209631,-4.3658839 V 0 h -1.367187 v -6.6354144 h 1.367187 l 2.666015,4.3749985 v -4.3749985 h 1.362629 z"/>
      <path id="path489" style="font-weight:bold;font-size:9.33333px;font-family:Roboto, sans-serif;letter-spacing:2px;fill:#333333" d="m 30.691399,-0.83854138 q -0.36914,0.44205714 -1.043619,0.68815081 -0.674479,0.24153637 -1.494791,0.24153637 -0.861328,0 -1.513021,-0.37369779 -0.647135,-0.37825508 -1.002604,-1.09374961 -0.350911,-0.7154946 -0.360025,-1.6816401 v -0.4511717 q 0,-0.9934892 0.332682,-1.7180984 0.337239,-0.7291664 0.966145,-1.1119787 0.633464,-0.3873697 1.481119,-0.3873697 1.180339,0 1.845703,0.565104 0.665364,0.5605466 0.788411,1.6360671 H 29.36067 q -0.09114,-0.5696612 -0.405598,-0.8339841 -0.309896,-0.2643228 -0.856771,-0.2643228 -0.697265,0 -1.061848,0.5240884 -0.364584,0.5240883 -0.369141,1.5585932 v 0.423828 q 0,1.0436194 0.396484,1.5768223 0.396484,0.533203 1.162109,0.533203 0.770182,0 1.098307,-0.3281249 v -1.1438798 h -1.24414 v -1.0071611 h 2.611327 z"/>
      <path id="path491" style="font-weight:bold;font-size:9.33333px;font-family:Roboto, sans-serif;letter-spacing:2px;fill:#333333" d="m 37.795564,-2.8756501 h -2.624999 v 1.7773432 h 3.080728 V 0 h -4.447915 v -6.6354144 h 4.4388 v 1.1074215 h -3.071613 v 1.5813797 h 2.624999 z"/>
    </g>
  </g>
  <g transform="translate(103,271)" id="g180">
    <g style="font-weight:bold;font-size:9.33333px;font-family:Roboto, sans-serif;letter-spacing:2px;fill:#333333" id="text178" transform="rotate(-90,16.5,27.5)" aria-label="SMOOTH">
      <path id="path470" style="font-weight:bold;font-size:9.33333px;font-family:Roboto, sans-serif;letter-spacing:2px;fill:#333333" d="m 4.0332018,-1.7408848 q 0,-0.3873697 -0.2734375,-0.5924477 Q 3.4863269,-2.5429679 2.7753897,-2.7708324 2.0644524,-3.0032542 1.649739,-3.2265614 0.51953107,-3.8372383 0.51953107,-4.8717431 q 0,-0.5377603 0.30078115,-0.957031 0.30533848,-0.4238279 0.87044238,-0.660807 0.5696613,-0.2369791 1.2760413,-0.2369791 0.7109372,0 1.2669266,0.2597655 0.5559894,0.2552083 0.8613278,0.7246092 0.3098958,0.4694008 0.3098958,1.0664058 H 4.037759 q 0,-0.455729 -0.2871092,-0.7063799 -0.2871093,-0.2552083 -0.8066404,-0.2552083 -0.5013019,0 -0.7792966,0.2141927 -0.2779947,0.2096353 -0.2779947,0.5559894 0,0.3235676 0.3235676,0.5423175 0.3281249,0.2187499 0.9615882,0.4101561 1.1666663,0.3509113 1.6998692,0.8704424 0.533203,0.5195311 0.533203,1.2942704 0,0.86132783 -0.6516925,1.35351516 -0.6516925,0.48763004 -1.7545567,0.48763004 -0.7656247,0 -1.3945308,-0.27799469 Q 0.97526008,-0.46940088 0.64257791,-0.95703092 0.31445302,-1.444661 0.31445302,-2.0872389 H 1.6861973 q 0,1.09830695 1.3124996,1.09830695 0.48763,0 0.7610674,-0.19596345 0.2734375,-0.2005208 0.2734375,-0.5559894 z"/>
      <path id="path472" style="font-weight:bold;font-size:9.33333px;font-family:Roboto, sans-serif;letter-spacing:2px;fill:#333333" d="m 10.121091,-6.6354144 1.704427,4.8124984 1.695311,-4.8124984 h 1.795573 V 0 H 13.944657 V -1.8138015 L 14.081376,-4.9446598 12.290361,0 h -0.938802 l -1.7864574,-4.9401025 0.1367187,3.126301 V 0 h -1.367187 v -6.6354144 z"/>
      <path id="path474" style="font-weight:bold;font-size:9.33333px;font-family:Roboto, sans-serif;letter-spacing:2px;fill:#333333" d="m 23.970045,-3.1673166 q 0,0.9798173 -0.346354,1.7180983 -0.346354,0.73828104 -0.993489,1.13932257 -0.642578,0.40104153 -1.476562,0.40104153 -0.82487,0 -1.472005,-0.39648424 -0.647135,-0.39648424 -1.002604,-1.13020796 -0.355469,-0.738281 -0.360026,-1.6953119 v -0.3281249 q 0,-0.9798174 0.350912,-1.7226557 0.355468,-0.7473955 0.998046,-1.1438798 0.647135,-0.4010415 1.476562,-0.4010415 0.829427,0 1.472005,0.4010415 0.647135,0.3964843 0.998046,1.1438798 0.355469,0.7428383 0.355469,1.7180984 z m -1.385416,-0.3007812 q 0,-1.0436194 -0.373698,-1.5859369 -0.373698,-0.5423176 -1.066406,-0.5423176 -0.688151,0 -1.061849,0.5377603 -0.373697,0.5332029 -0.378255,1.5677078 v 0.3235676 q 0,1.0162757 0.373698,1.5768224 0.373698,0.5605466 1.075521,0.5605466 0.68815,0 1.057291,-0.5377602 0.36914,-0.5423175 0.373698,-1.5768224 z"/>
      <path id="path476" style="font-weight:bold;font-size:9.33333px;font-family:Roboto, sans-serif;letter-spacing:2px;fill:#333333" d="m 32.423168,-3.1673166 q 0,0.9798173 -0.346354,1.7180983 -0.346354,0.73828104 -0.993489,1.13932257 -0.642578,0.40104153 -1.476562,0.40104153 -0.82487,0 -1.472005,-0.39648424 -0.647135,-0.39648424 -1.002604,-1.13020796 -0.355468,-0.738281 -0.360026,-1.6953119 v -0.3281249 q 0,-0.9798174 0.350912,-1.7226557 0.355468,-0.7473955 0.998046,-1.1438798 0.647135,-0.4010415 1.476562,-0.4010415 0.829427,0 1.472005,0.4010415 0.647135,0.3964843 0.998046,1.1438798 0.355469,0.7428383 0.355469,1.7180984 z m -1.385416,-0.3007812 q 0,-1.0436194 -0.373698,-1.5859369 -0.373698,-0.5423176 -1.066406,-0.5423176 -0.688151,0 -1.061848,0.5377603 -0.373698,0.5332029 -0.378256,1.5677078 v 0.3235676 q 0,1.0162757 0.373698,1.5768224 0.373698,0.5605466 1.075521,0.5605466 0.688151,0 1.057291,-0.5377602 0.369141,-0.5423175 0.373698,-1.5768224 z"/>
      <path id="path478" style="font-weight:bold;font-size:9.33333px;font-family:Roboto, sans-serif;letter-spacing:2px;fill:#333333" d="M 40.03775,-5.5279929 H 38.005198 V 0 h -1.367187 v -5.5279929 h -2.005207 v -1.1074215 h 5.404946 z"/>
      <path id="path480" style="font-weight:bold;font-size:9.33333px;font-family:Roboto, sans-serif;letter-spacing:2px;fill:#333333" d="M 48.221993,0 H 46.854806 V -2.843749 H 44.188791 V 0 h -1.367187 v -6.6354144 h 1.367187 v 2.6888012 h 2.666015 v -2.6888012 h 1.367187 z"/>
    </g>
  </g>
  <g transform="translate(175,271)" id="g200">
    <g transform="translate(-5,-5)" id="g196">
      <g transform="translate(0,1)" id="g184">
        <g style="font-weight:bold;font-size:8px;font-family:Roboto, sans-serif;letter-spacing:2px;fill:#333333" id="text182" transform="translate(9,6.1)" aria-label="ULTRA">
          <path id="path426" style="font-weight:bold;font-size:8px;font-family:Roboto, sans-serif;letter-spacing:2px;fill:#333333" d="m 4.8125,-5.6875 v 3.7460938 q 0,0.9335937 -0.5859375,1.47656245 -0.5820312,0.54296875 -1.59375,0.54296875 -0.9960938,0 -1.5820313,-0.52734375 Q 0.46484375,-0.9765625 0.453125,-1.8984375 V -5.6875 H 1.625 v 3.7539063 q 0,0.5585937 0.265625,0.8164062 0.2695313,0.25390625 0.7421875,0.25390625 0.9882813,0 1.0039063,-1.03906245 V -5.6875 Z"/>
          <path id="path428" style="font-weight:bold;font-size:8px;font-family:Roboto, sans-serif;letter-spacing:2px;fill:#333333" d="M 8.9453125,-0.94140625 H 11.433594 V 0 H 7.7734375 v -5.6875 h 1.171875 z"/>
          <path id="path430" style="font-weight:bold;font-size:8px;font-family:Roboto, sans-serif;letter-spacing:2px;fill:#333333" d="M 17.585937,-4.7382812 H 15.84375 V 0 h -1.171875 v -4.7382812 h -1.71875 V -5.6875 h 4.632812 z"/>
          <path id="path432" style="font-weight:bold;font-size:8px;font-family:Roboto, sans-serif;letter-spacing:2px;fill:#333333" d="M 22.363281,-2.0820313 H 21.429687 V 0 h -1.171875 v -5.6875 h 2.113282 q 1.007812,0 1.554687,0.4492188 0.546875,0.4492187 0.546875,1.2695312 0,0.5820312 -0.253906,0.9726562 -0.25,0.3867188 -0.761719,0.6171875 L 24.6875,-0.0546875 V 0 H 23.429687 Z M 21.429687,-3.03125 H 22.375 q 0.441406,0 0.683594,-0.2226563 0.242187,-0.2265625 0.242187,-0.6210937 0,-0.4023437 -0.230469,-0.6328125 -0.226562,-0.2304687 -0.699218,-0.2304687 h -0.941407 z"/>
          <path id="path434" style="font-weight:bold;font-size:8px;font-family:Roboto, sans-serif;letter-spacing:2px;fill:#333333" d="M 30.578125,-1.171875 H 28.523437 L 28.132812,0 h -1.246093 l 2.117187,-5.6875 h 1.085938 L 32.21875,0 h -1.246094 z m -1.738281,-0.9492188 h 1.421875 L 29.546875,-4.25 Z"/>
        </g>
      </g>
      <g transform="translate(0,15)" id="g188">
        <g style="font-weight:bold;font-size:8px;font-family:Roboto, sans-serif;letter-spacing:2px;fill:#333333" id="text186" transform="translate(9,6.1)" aria-label="HIGH">
          <path id="path437" style="font-weight:bold;font-size:8px;font-family:Roboto, sans-serif;letter-spacing:2px;fill:#333333" d="M 5.1367187,0 H 3.9648438 V -2.4375 H 1.6796875 V 0 h -1.171875 v -5.6875 h 1.171875 v 2.3046875 H 3.9648438 V -5.6875 h 1.1718749 z"/>
          <path id="path439" style="font-weight:bold;font-size:8px;font-family:Roboto, sans-serif;letter-spacing:2px;fill:#333333" d="m 9.4101563,0 h -1.171875 v -5.6875 h 1.171875 z"/>
          <path id="path441" style="font-weight:bold;font-size:8px;font-family:Roboto, sans-serif;letter-spacing:2px;fill:#333333" d="m 16.992187,-0.71875 q -0.316406,0.37890625 -0.894531,0.58984375 -0.578125,0.20703125 -1.28125,0.20703125 -0.738281,0 -1.296875,-0.3203125 -0.554687,-0.32421875 -0.859375,-0.9375 -0.300781,-0.6132812 -0.308593,-1.4414063 v -0.3867187 q 0,-0.8515625 0.285156,-1.4726562 0.289062,-0.625 0.828125,-0.953125 0.542969,-0.3320313 1.269531,-0.3320313 1.011719,0 1.582031,0.484375 0.570313,0.4804688 0.675781,1.4023437 h -1.140624 q -0.07813,-0.4882812 -0.347657,-0.7148437 -0.265625,-0.2265625 -0.734375,-0.2265625 -0.597656,0 -0.910156,0.4492188 -0.3125,0.4492187 -0.316406,1.3359374 v 0.3632813 q 0,0.8945313 0.339844,1.3515625 0.339843,0.45703125 0.996093,0.45703125 0.660157,0 0.941407,-0.28124995 V -2.125 h -1.066407 v -0.8632813 h 2.238281 z"/>
          <path id="path443" style="font-weight:bold;font-size:8px;font-family:Roboto, sans-serif;letter-spacing:2px;fill:#333333" d="M 24.574219,0 H 23.402344 V -2.4375 H 21.117187 V 0 h -1.171875 v -5.6875 h 1.171875 v 2.3046875 h 2.285157 V -5.6875 h 1.171875 z"/>
        </g>
      </g>
      <g transform="translate(0,29)" id="g192">
        <g style="font-weight:bold;font-size:8px;font-family:Roboto, sans-serif;letter-spacing:2px;fill:#333333" id="text190" transform="translate(9,6.1)" aria-label="GOOD">
          <path id="path446" style="font-weight:bold;font-size:8px;font-family:Roboto, sans-serif;letter-spacing:2px;fill:#333333" d="M 5.0078125,-0.71875 Q 4.6914062,-0.33984375 4.1132812,-0.12890625 3.5351563,0.078125 2.8320313,0.078125 2.09375,0.078125 1.5351562,-0.2421875 0.98046875,-0.56640625 0.67578125,-1.1796875 0.375,-1.7929687 0.3671875,-2.6210938 v -0.3867187 q 0,-0.8515625 0.28515625,-1.4726562 0.2890625,-0.625 0.82812495,-0.953125 Q 2.0234375,-5.765625 2.75,-5.765625 q 1.0117188,0 1.5820312,0.484375 0.5703125,0.4804688 0.6757813,1.4023437 H 3.8671875 Q 3.7890625,-4.3671875 3.5195313,-4.59375 3.2539063,-4.8203125 2.7851563,-4.8203125 2.1875,-4.8203125 1.875,-4.3710937 1.5625,-3.921875 1.5585937,-3.0351563 v 0.3632813 q 0,0.8945313 0.3398438,1.3515625 0.3398438,0.45703125 0.9960938,0.45703125 0.6601562,0 0.9414062,-0.28124995 V -2.125 H 2.7695313 v -0.8632813 h 2.2382812 z"/>
          <path id="path448" style="font-weight:bold;font-size:8px;font-family:Roboto, sans-serif;letter-spacing:2px;fill:#333333" d="m 12.632813,-2.7148438 q 0,0.8398438 -0.296875,1.4726563 -0.296875,0.6328125 -0.851563,0.9765625 -0.550781,0.34375 -1.265625,0.34375 -0.7070312,0 -1.2617187,-0.33984375 Q 8.4023438,-0.6015625 8.0976563,-1.2304687 7.7929687,-1.8632812 7.7890625,-2.6835938 v -0.28125 q 0,-0.8398437 0.3007813,-1.4765624 0.3046875,-0.640625 0.8554687,-0.9804688 0.5546875,-0.34375 1.2656255,-0.34375 0.710937,0 1.261718,0.34375 0.554688,0.3398438 0.855469,0.9804688 0.304688,0.6367187 0.304688,1.4726562 z m -1.1875,-0.2578125 q 0,-0.8945312 -0.320313,-1.3593749 -0.320312,-0.4648438 -0.914062,-0.4648438 -0.5898442,0 -0.9101567,0.4609375 -0.3203125,0.4570312 -0.3242188,1.34375 v 0.2773437 q 0,0.8710938 0.3203125,1.3515626 0.3203125,0.4804687 0.921875,0.4804687 0.589844,0 0.90625,-0.4609375 0.316406,-0.4648437 0.320313,-1.3515625 z"/>
          <path id="path450" style="font-weight:bold;font-size:8px;font-family:Roboto, sans-serif;letter-spacing:2px;fill:#333333" d="m 20.164062,-2.7148438 q 0,0.8398438 -0.296875,1.4726563 -0.296875,0.6328125 -0.851562,0.9765625 -0.550781,0.34375 -1.265625,0.34375 -0.707031,0 -1.261719,-0.33984375 -0.554687,-0.33984375 -0.859375,-0.96874995 -0.304687,-0.6328125 -0.308593,-1.4531251 v -0.28125 q 0,-0.8398437 0.300781,-1.4765624 0.304687,-0.640625 0.855468,-0.9804688 0.554688,-0.34375 1.265625,-0.34375 0.710938,0 1.261719,0.34375 0.554688,0.3398438 0.855469,0.9804688 0.304687,0.6367187 0.304687,1.4726562 z m -1.1875,-0.2578125 q 0,-0.8945312 -0.320312,-1.3593749 -0.320313,-0.4648438 -0.914063,-0.4648438 -0.589843,0 -0.910156,0.4609375 -0.320312,0.4570312 -0.324219,1.34375 v 0.2773437 q 0,0.8710938 0.320313,1.3515626 0.320312,0.4804687 0.921875,0.4804687 0.589844,0 0.90625,-0.4609375 0.316406,-0.4648437 0.320312,-1.3515625 z"/>
          <path id="path452" style="font-weight:bold;font-size:8px;font-family:Roboto, sans-serif;letter-spacing:2px;fill:#333333" d="m 23.023437,0 v -5.6875 h 1.75 q 0.75,0 1.339844,0.3398438 0.59375,0.3359375 0.925781,0.9609375 0.332032,0.6210937 0.332032,1.4140624 v 0.2617188 q 0,0.7929688 -0.328125,1.4101563 Q 26.71875,-0.68359375 26.125,-0.34375 25.53125,-0.00390625 24.785156,0 Z m 1.171875,-4.7382812 v 3.79687495 h 0.566407 q 0.6875,0 1.050781,-0.44921875 0.363281,-0.4492187 0.371094,-1.2851563 v -0.3007812 q 0,-0.8671875 -0.359375,-1.3125 -0.359375,-0.4492187 -1.050782,-0.4492187 z"/>
        </g>
      </g>
      <g transform="translate(9,40)" id="g194"/>
    </g>
    <g style="font-weight:bold;font-size:9.33333px;font-family:Roboto, sans-serif;letter-spacing:2px;fill:#333333" id="text198" transform="rotate(-90,17,28)" aria-label="QUALITY">
      <path id="path455" style="font-weight:bold;font-size:9.33333px;font-family:Roboto, sans-serif;letter-spacing:2px;fill:#333333" d="m 6.0338521,-3.1673166 q 0,0.9296872 -0.3007811,1.617838 -0.3007812,0.68359348 -0.8339841,1.09830688 L 6.0019511,0.4147134 5.1315087,1.1848954 3.7187487,0.05013019 Q 3.4772124,0.0911458 3.2174468,0.0911458 q -0.8248695,0 -1.4720047,-0.39648424 Q 1.0983069,-0.70182268 0.74283829,-1.4355464 0.38736966,-2.1738274 0.38281237,-3.1308583 v -0.3281249 q 0,-0.9798174 0.35091134,-1.7226557 0.35546859,-0.7473955 0.99804649,-1.1438798 0.6471352,-0.4010415 1.476562,-0.4010415 0.8294268,0 1.4720047,0.4010415 0.6471352,0.3964843 0.9980466,1.1438798 0.3554686,0.7428383 0.3554686,1.7180984 z M 4.6484359,-3.4680978 q 0,-1.0436194 -0.3736978,-1.5859369 -0.3736978,-0.5423176 -1.0664059,-0.5423176 -0.6881508,0 -1.0618486,0.5377603 -0.3736977,0.5332029 -0.378255,1.5677078 v 0.3235676 q 0,1.0162757 0.3736978,1.5768224 0.3736977,0.5605466 1.0755204,0.5605466 0.6881508,0 1.0572913,-0.5377602 0.3691405,-0.5423175 0.3736978,-1.5768224 z"/>
      <path id="path457" style="font-weight:bold;font-size:9.33333px;font-family:Roboto, sans-serif;letter-spacing:2px;fill:#333333" d="m 14.067705,-6.6354144 v 4.3704412 q 0,1.0891924 -0.683594,1.72265568 -0.679036,0.63346332 -1.859374,0.63346332 -1.162109,0 -1.8457029,-0.61523416 Q 8.9954406,-1.1393225 8.9817687,-2.214843 v -4.4205714 h 1.3671873 v 4.3795558 q 0,0.6516925 0.309896,0.9524736 0.314453,0.2962239 0.865885,0.2962239 1.152994,0 1.171223,-1.2122392 v -4.4160141 z"/>
      <path id="path459" style="font-weight:bold;font-size:9.33333px;font-family:Roboto, sans-serif;letter-spacing:2px;fill:#333333" d="M 20.843743,-1.367187 H 18.446609 L 17.99088,0 h -1.453776 l 2.470052,-6.6354144 h 1.266926 L 22.757805,0 H 21.30403 Z m -2.027994,-1.1074215 h 1.658854 l -0.833984,-2.4837231 z"/>
      <path id="path461" style="font-weight:bold;font-size:9.33333px;font-family:Roboto, sans-serif;letter-spacing:2px;fill:#333333" d="m 26.753899,-1.0983069 h 2.902993 V 0 h -4.27018 v -6.6354144 h 1.367187 z"/>
      <path id="path463" style="font-weight:bold;font-size:9.33333px;font-family:Roboto, sans-serif;letter-spacing:2px;fill:#333333" d="m 33.889966,0 h -1.367187 v -6.6354144 h 1.367187 z"/>
      <path id="path465" style="font-weight:bold;font-size:9.33333px;font-family:Roboto, sans-serif;letter-spacing:2px;fill:#333333" d="M 42.019519,-5.5279929 H 39.986968 V 0 h -1.367187 v -5.5279929 h -2.005208 v -1.1074215 h 5.404946 z"/>
      <path id="path467" style="font-weight:bold;font-size:9.33333px;font-family:Roboto, sans-serif;letter-spacing:2px;fill:#333333" d="m 47.164051,-3.6458321 1.380859,-2.9895823 h 1.494791 l -2.178384,4.2291652 V 0 h -1.389974 v -2.4062492 l -2.178384,-4.2291652 h 1.499348 z"/>
    </g>
  </g>
  <g transform="translate(247,271)" id="g220">
    <g transform="translate(-6,-5)" id="g216">
      <g transform="translate(0,1)" id="g204">
        <g style="font-weight:bold;font-size:8px;font-family:Roboto, sans-serif;letter-spacing:2px;fill:#333333" id="text202" transform="translate(9,6.1)" aria-label="NONE">
          <path id="path376" style="font-weight:bold;font-size:8px;font-family:Roboto, sans-serif;letter-spacing:2px;fill:#333333" d="m 5.1328125,0 h -1.171875 l -2.28125,-3.7421875 V 0 h -1.171875 v -5.6875 h 1.171875 l 2.2851563,3.75 v -3.75 h 1.1679687 z"/>
          <path id="path378" style="font-weight:bold;font-size:8px;font-family:Roboto, sans-serif;letter-spacing:2px;fill:#333333" d="m 12.835938,-2.7148438 q 0,0.8398438 -0.296875,1.4726563 -0.296875,0.6328125 -0.851563,0.9765625 -0.550781,0.34375 -1.265625,0.34375 -0.7070312,0 -1.2617187,-0.33984375 Q 8.6054688,-0.6015625 8.3007813,-1.2304687 7.9960937,-1.8632812 7.9921875,-2.6835938 v -0.28125 q 0,-0.8398437 0.3007813,-1.4765624 0.3046875,-0.640625 0.8554687,-0.9804688 0.5546875,-0.34375 1.2656255,-0.34375 0.710937,0 1.261718,0.34375 0.554688,0.3398438 0.855469,0.9804688 0.304688,0.6367187 0.304688,1.4726562 z m -1.1875,-0.2578125 q 0,-0.8945312 -0.320313,-1.3593749 -0.320312,-0.4648438 -0.914062,-0.4648438 -0.5898442,0 -0.9101567,0.4609375 -0.3203125,0.4570312 -0.3242188,1.34375 v 0.2773437 q 0,0.8710938 0.3203125,1.3515626 0.3203125,0.4804687 0.921875,0.4804687 0.589844,0 0.90625,-0.4609375 0.316406,-0.4648437 0.320313,-1.3515625 z"/>
          <path id="path380" style="font-weight:bold;font-size:8px;font-family:Roboto, sans-serif;letter-spacing:2px;fill:#333333" d="m 20.320312,0 h -1.171875 l -2.28125,-3.7421875 V 0 h -1.171874 v -5.6875 h 1.171874 l 2.285157,3.75 v -3.75 h 1.167968 z"/>
          <path id="path382" style="font-weight:bold;font-size:8px;font-family:Roboto, sans-serif;letter-spacing:2px;fill:#333333" d="m 26.773437,-2.4648438 h -2.25 v 1.52343755 h 2.640625 V 0 h -3.8125 v -5.6875 h 3.804688 v 0.9492188 h -2.632813 v 1.3554687 h 2.25 z"/>
        </g>
      </g>
      <g transform="translate(0,15)" id="g208">
        <g style="font-weight:bold;font-size:8px;font-family:Roboto, sans-serif;letter-spacing:0.5px;fill:#333333" id="text206" transform="translate(9,6.1)" aria-label="HAMMING">
          <path id="path385" style="font-weight:bold;font-size:8px;font-family:Roboto, sans-serif;letter-spacing:0.5px;fill:#333333" d="M 5.1367187,0 H 3.9648438 V -2.4375 H 1.6796875 V 0 h -1.171875 v -5.6875 h 1.171875 v 2.3046875 H 3.9648438 V -5.6875 h 1.1718749 z"/>
          <path id="path387" style="font-weight:bold;font-size:8px;font-family:Roboto, sans-serif;letter-spacing:0.5px;fill:#333333" d="M 9.953125,-1.171875 H 7.8984375 L 7.5078125,0 H 6.2617187 L 8.3789063,-5.6875 H 9.4648438 L 11.59375,0 H 10.347656 Z M 8.2148438,-2.1210938 h 1.421875 L 8.921875,-4.25 Z"/>
          <path id="path389" style="font-weight:bold;font-size:8px;font-family:Roboto, sans-serif;letter-spacing:0.5px;fill:#333333" d="m 14.164063,-5.6875 1.460937,4.125 1.453125,-4.125 h 1.539062 V 0 H 17.441406 V -1.5546875 L 17.558594,-4.2382812 16.023437,0 H 15.21875 l -1.53125,-4.234375 0.117188,2.6796875 V 0 h -1.171875 v -5.6875 z"/>
          <path id="path391" style="font-weight:bold;font-size:8px;font-family:Roboto, sans-serif;letter-spacing:0.5px;fill:#333333" d="m 21.679687,-5.6875 1.460938,4.125 1.453125,-4.125 h 1.539062 V 0 H 24.957031 V -1.5546875 L 25.074219,-4.2382812 23.539062,0 h -0.804687 l -1.53125,-4.234375 0.117187,2.6796875 V 0 h -1.171875 v -5.6875 z"/>
          <path id="path393" style="font-weight:bold;font-size:8px;font-family:Roboto, sans-serif;letter-spacing:0.5px;fill:#333333" d="m 28.910156,0 h -1.171875 v -5.6875 h 1.171875 z"/>
          <path id="path395" style="font-weight:bold;font-size:8px;font-family:Roboto, sans-serif;letter-spacing:0.5px;fill:#333333" d="m 35.117187,0 h -1.171875 l -2.28125,-3.7421875 V 0 h -1.171875 v -5.6875 h 1.171875 l 2.285157,3.75 v -3.75 h 1.167968 z"/>
          <path id="path397" style="font-weight:bold;font-size:8px;font-family:Roboto, sans-serif;letter-spacing:0.5px;fill:#333333" d="m 41.148437,-0.71875 q -0.316406,0.37890625 -0.894531,0.58984375 -0.578125,0.20703125 -1.28125,0.20703125 -0.738281,0 -1.296875,-0.3203125 -0.554687,-0.32421875 -0.859375,-0.9375 -0.300781,-0.6132812 -0.308594,-1.4414063 v -0.3867187 q 0,-0.8515625 0.285157,-1.4726562 0.289062,-0.625 0.828125,-0.953125 0.542968,-0.3320313 1.269531,-0.3320313 1.011719,0 1.582031,0.484375 0.570313,0.4804688 0.675781,1.4023437 h -1.140625 q -0.07813,-0.4882812 -0.347656,-0.7148437 -0.265625,-0.2265625 -0.734375,-0.2265625 -0.597656,0 -0.910156,0.4492188 -0.3125,0.4492187 -0.316406,1.3359374 v 0.3632813 q 0,0.8945313 0.339843,1.3515625 0.339844,0.45703125 0.996094,0.45703125 0.660156,0 0.941406,-0.28124995 V -2.125 h -1.066406 v -0.8632813 h 2.238281 z"/>
        </g>
      </g>
      <g transform="translate(0,29)" id="g212">
        <g style="font-weight:bold;font-size:8px;font-family:Roboto, sans-serif;letter-spacing:1px;fill:#333333" id="text210" transform="translate(9,6.1)" aria-label="KAISER">
          <path id="path400" style="font-weight:bold;font-size:8px;font-family:Roboto, sans-serif;letter-spacing:1px;fill:#333333" d="M 2.2890625,-2.28125 1.6796875,-1.625 V 0 h -1.171875 v -5.6875 h 1.171875 v 2.578125 L 2.1953125,-3.8164063 3.6445313,-5.6875 H 5.0859375 L 3.0664063,-3.1601563 5.1445312,0 H 3.75 Z"/>
          <path id="path402" style="font-weight:bold;font-size:8px;font-family:Roboto, sans-serif;letter-spacing:1px;fill:#333333" d="M 9.796875,-1.171875 H 7.7421875 L 7.3515625,0 H 6.1054687 L 8.2226563,-5.6875 H 9.3085938 L 11.4375,0 H 10.191406 Z M 8.0585938,-2.1210938 h 1.421875 L 8.765625,-4.25 Z"/>
          <path id="path404" style="font-weight:bold;font-size:8px;font-family:Roboto, sans-serif;letter-spacing:1px;fill:#333333" d="m 14.222656,0 h -1.171875 v -5.6875 h 1.171875 z"/>
          <path id="path406" style="font-weight:bold;font-size:8px;font-family:Roboto, sans-serif;letter-spacing:1px;fill:#333333" d="m 19.253906,-1.4921875 q 0,-0.3320312 -0.234375,-0.5078125 -0.234375,-0.1796875 -0.84375,-0.375 -0.609375,-0.1992188 -0.964844,-0.390625 -0.96875,-0.5234375 -0.96875,-1.4101562 0,-0.4609375 0.257813,-0.8203125 0.261719,-0.3632813 0.746094,-0.5664063 0.488281,-0.203125 1.09375,-0.203125 0.609375,0 1.085937,0.2226563 0.476563,0.21875 0.738281,0.6210937 0.265625,0.4023438 0.265625,0.9140625 h -1.171875 q 0,-0.390625 -0.246093,-0.6054687 -0.246094,-0.21875 -0.691407,-0.21875 -0.429687,0 -0.667968,0.1835937 -0.238282,0.1796875 -0.238282,0.4765625 0,0.2773437 0.277344,0.4648437 0.28125,0.1875 0.824219,0.3515625 1,0.3007813 1.457031,0.7460938 0.457031,0.4453125 0.457031,1.109375 0,0.73828125 -0.558593,1.16015625 Q 19.3125,0.078125 18.367187,0.078125 q -0.65625,0 -1.195312,-0.23828125 -0.539063,-0.2421875 -0.824219,-0.66015625 -0.28125,-0.4179687 -0.28125,-0.96875 h 1.175781 q 0,0.94140625 1.125,0.94140625 0.417969,0 0.652344,-0.16796875 0.234375,-0.171875 0.234375,-0.4765625 z"/>
          <path id="path408" style="font-weight:bold;font-size:8px;font-family:Roboto, sans-serif;letter-spacing:1px;fill:#333333" d="m 25.648437,-2.4648438 h -2.25 v 1.52343755 h 2.640625 V 0 h -3.8125 v -5.6875 h 3.804688 v 0.9492188 h -2.632813 v 1.3554687 h 2.25 z"/>
          <path id="path410" style="font-weight:bold;font-size:8px;font-family:Roboto, sans-serif;letter-spacing:1px;fill:#333333" d="M 29.832031,-2.0820313 H 28.898437 V 0 h -1.171875 v -5.6875 h 2.113282 q 1.007812,0 1.554687,0.4492188 0.546875,0.4492187 0.546875,1.2695312 0,0.5820312 -0.253906,0.9726562 -0.25,0.3867188 -0.761719,0.6171875 l 1.230469,2.3242188 V 0 H 30.898437 Z M 28.898437,-3.03125 h 0.945313 q 0.441406,0 0.683594,-0.2226563 0.242187,-0.2265625 0.242187,-0.6210937 0,-0.4023437 -0.230469,-0.6328125 -0.226562,-0.2304687 -0.699218,-0.2304687 h -0.941407 z"/>
        </g>
      </g>
      <g transform="translate(9,40)" id="g214"/>
    </g>
    <g style="font-weight:bold;font-size:9.33333px;font-family:Roboto, sans-serif;letter-spacing:2px;fill:#333333" id="text218" transform="rotate(-90,16.25,27.25)" aria-label="WINDOW">
      <path id="path413" style="font-weight:bold;font-size:9.33333px;font-family:Roboto, sans-serif;letter-spacing:2px;fill:#333333" d="M 5.7604147,-1.9140618 6.6536436,-6.6354144 H 8.0162733 L 6.5442686,0 H 5.167967 L 4.0878892,-4.4388006 3.0078115,0 H 1.6315099 L 0.15950515,-6.6354144 H 1.5221349 l 0.8977862,4.712238 1.0937496,-4.712238 h 1.1575517 z"/>
      <path id="path415" style="font-weight:bold;font-size:9.33333px;font-family:Roboto, sans-serif;letter-spacing:2px;fill:#333333" d="M 12.212887,0 H 10.8457 v -6.6354144 h 1.367187 z"/>
      <path id="path417" style="font-weight:bold;font-size:9.33333px;font-family:Roboto, sans-serif;letter-spacing:2px;fill:#333333" d="M 20.871088,0 H 19.503901 L 16.842443,-4.3658839 V 0 h -1.367187 v -6.6354144 h 1.367187 l 2.666015,4.3749985 v -4.3749985 h 1.36263 z"/>
      <path id="path419" style="font-weight:bold;font-size:9.33333px;font-family:Roboto, sans-serif;letter-spacing:2px;fill:#333333" d="m 24.074213,0 v -6.6354144 h 2.041666 q 0.875,0 1.563151,0.3964842 0.692708,0.391927 1.080078,1.1210934 0.387369,0.7246091 0.387369,1.649739 v 0.3053385 q 0,0.9251299 -0.382812,1.6451817 -0.378255,0.72005183 -1.070963,1.11653607 Q 26.999994,-0.00455729 26.129551,0 Z M 25.4414,-5.5279929 v 4.429686 h 0.660808 q 0.802083,0 1.225911,-0.5240884 0.423828,-0.5240883 0.432942,-1.4993484 v -0.3509114 q 0,-1.0117184 -0.419271,-1.5312494 -0.41927,-0.5240884 -1.225911,-0.5240884 z"/>
      <path id="path421" style="font-weight:bold;font-size:9.33333px;font-family:Roboto, sans-serif;letter-spacing:2px;fill:#333333" d="m 37.595043,-3.1673166 q 0,0.9798173 -0.346354,1.7180983 -0.346354,0.73828104 -0.993489,1.13932257 -0.642578,0.40104153 -1.476562,0.40104153 -0.82487,0 -1.472005,-0.39648424 -0.647135,-0.39648424 -1.002604,-1.13020796 -0.355468,-0.738281 -0.360026,-1.6953119 v -0.3281249 q 0,-0.9798174 0.350912,-1.7226557 0.355468,-0.7473955 0.998046,-1.1438798 0.647135,-0.4010415 1.476562,-0.4010415 0.829427,0 1.472005,0.4010415 0.647135,0.3964843 0.998046,1.1438798 0.355469,0.7428383 0.355469,1.7180984 z m -1.385416,-0.3007812 q 0,-1.0436194 -0.373698,-1.5859369 -0.373698,-0.5423176 -1.066406,-0.5423176 -0.688151,0 -1.061848,0.5377603 -0.373698,0.5332029 -0.378256,1.5677078 v 0.3235676 q 0,1.0162757 0.373698,1.5768224 0.373698,0.5605466 1.075521,0.5605466 0.688151,0 1.057291,-0.5377602 0.369141,-0.5423175 0.373698,-1.5768224 z"/>
      <path id="path423" style="font-weight:bold;font-size:9.33333px;font-family:Roboto, sans-serif;letter-spacing:2px;fill:#333333" d="m 45.765614,-1.9140618 0.893229,-4.7213526 h 1.36263 L 46.549468,0 H 45.173166 L 44.093089,-4.4388006 43.013011,0 h -1.376302 l -1.472004,-6.6354144 h 1.362629 l 0.897786,4.712238 1.09375,-4.712238 h 1.157552 z"/>
    </g>
  </g>
  <g transform="matrix(0.75,0,0,0.75,11.3,252)" id="use224">
    <g transform="translate(50.5,50.5)" id="g296">
      <path d="M 0,-32 A 32,32 0 0 1 32,0" stroke="#333333" stroke-width="0.5" stroke-linecap="round" fill="none" transform="rotate(15)" id="path284"/>
      <path d="M 0,-32 A 32,32 0 0 1 32,0" stroke="#333333" stroke-width="0.5" stroke-linecap="round" fill="none" transform="rotate(50)" id="path286"/>
      <path d="M 0,-32 A 32,32 0 0 0 -32,0" stroke="#333333" stroke-width="0.5" stroke-linecap="round" fill="none" transform="rotate(-15)" id="path288"/>
      <path d="M 0,-32 A 32,32 0 0 0 -32,0" stroke="#333333" stroke-width="0.5" stroke-linecap="round" fill="none" transform="rotate(-50)" id="path290"/>
      <g transform="rotate(-90,-14.5,-14.5)" id="g294">
        <path d="M 0,0 H 6" style="stroke:#333333;stroke-width:1.5" id="polyline292"/>
      </g>
    </g>
  </g>
  <g transform="matrix(0.75,0,0,0.75,84.3,252)" id="use226">
    <g transform="translate(50.5,50.5)" id="g348">
      <g transform="rotate(120,-15.5,8.9489292)" id="g304">
        <g transform="rotate(-120,1,-0.57735027)" id="g302">
          <g style="font-weight:bold;font-size:9.33333px;font-family:Roboto, sans-serif;fill:#333333" id="text300" transform="translate(-4,4)" aria-label="0">
            <path id="path352" style="font-weight:bold;font-size:9.33333px;font-family:Roboto, sans-serif;fill:#333333" d="m 4.917316,-2.7434886 q 0,1.3763016 -0.5696612,2.10546798 -0.5696613,0.72916642 -1.6679682,0.72916642 -1.0846351,0 -1.6588536,-0.71549455 Q 0.44661443,-1.3398433 0.43294256,-2.6751293 V -3.896483 q 0,-1.3899735 0.57421854,-2.1100254 0.5787759,-0.7200518 1.6634109,-0.7200518 1.0846351,0 1.6588536,0.7154945 0.5742186,0.7109373 0.5878904,2.0462233 z M 3.6002592,-4.0833319 q 0,-0.8248696 -0.2278645,-1.1985673 -0.2233072,-0.3782551 -0.7018227,-0.3782551 -0.4648436,0 -0.6881508,0.3600259 -0.2187499,0.3554686 -0.2324218,1.1165361 v 1.6132807 q 0,0.8111976 0.2187499,1.2076819 0.2233072,0.39192691 0.7109373,0.39192691 0.4830727,0 0.6972654,-0.37825511 0.2141926,-0.3782551 0.2233072,-1.1575517 z"/>
          </g>
        </g>
      </g>
      <g transform="rotate(150,-15,4.0192379)" id="g308">
        <path d="M 0,0 H 4" style="stroke:#333333;stroke-width:0.5" id="polyline306"/>
      </g>
      <g transform="rotate(180,-15,0)" id="g312">
        <path d="M 0,0 H 4" style="stroke:#333333;stroke-width:0.5" id="polyline310"/>
      </g>
      <g transform="rotate(-150,-15,-4.0192379)" id="g316">
        <path d="M 0,0 H 5" style="stroke:#333333;stroke-width:0.5" id="polyline314"/>
      </g>
      <g transform="rotate(-120,-15,-8.660254)" id="g320">
        <path d="M 0,0 H 4" style="stroke:#333333;stroke-width:0.5" id="polyline318"/>
      </g>
      <g transform="rotate(-90,-15,-15)" id="g324">
        <path d="M 0,0 H 4" style="stroke:#333333;stroke-width:0.5" id="polyline322"/>
      </g>
      <g transform="rotate(-60,-15,-25.980762)" id="g328">
        <path d="M 0,0 H 4" style="stroke:#333333;stroke-width:0.5" id="polyline326"/>
      </g>
      <g transform="rotate(-30,-15,-55.980762)" id="g332">
        <path d="M 0,0 H 4" style="stroke:#333333;stroke-width:0.5" id="polyline330"/>
      </g>
      <g transform="translate(30)" id="g336">
        <path d="M 0,0 H 4" style="stroke:#333333;stroke-width:0.5" id="polyline334"/>
      </g>
      <g transform="rotate(30,-15,55.980762)" id="g340">
        <path d="M 0,0 H 4" style="stroke:#333333;stroke-width:0.5" id="polyline338"/>
      </g>
      <g transform="rotate(60,-15.5,26.846788)" id="g346">
        <g transform="rotate(-60,1,-1.7320508)" id="g344">
          <g style="font-weight:bold;font-size:9.33333px;font-family:Roboto, sans-serif;fill:#333333" id="text342" transform="translate(-6,4.3)" aria-label="500ms">
            <path id="path364" style="font-weight:bold;font-size:9.33333px;font-family:Roboto, sans-serif;fill:#333333" d="m 0.6471352,-3.2630197 0.3828124,-3.3723947 h 3.7187487 v 1.0983069 h -2.638671 l -0.1640624,1.4264318 q 0.4694009,-0.2506509 0.9980465,-0.2506509 0.9479164,0 1.4856766,0.5878904 0.5377602,0.5878904 0.5377602,1.6451817 0,0.6425779 -0.2734374,1.15299442 -0.2688801,0.5058592 -0.7747393,0.78841119 -0.5058592,0.27799469 -1.19401,0.27799469 -0.6015623,0 -1.1165361,-0.24153637 Q 1.0937496,-0.39648424 0.79296848,-0.83854138 0.49674462,-1.2805985 0.47851546,-1.8457025 H 1.7819004 q 0.041016,0.4147134 0.2871093,0.6471352 0.250651,0.22786451 0.6516925,0.22786451 0.4466144,0 0.6881508,-0.31901031 0.2415364,-0.3235676 0.2415364,-0.911458 0,-0.565104 -0.2779947,-0.8658851 Q 3.0944,-3.3678374 2.5839835,-3.3678374 q -0.4694009,0 -0.7610675,0.2460937 l -0.1276041,0.1184895 z"/>
            <path id="path366" style="font-weight:bold;font-size:9.33333px;font-family:Roboto, sans-serif;fill:#333333" d="m 10.276689,-2.7434886 q 0,1.3763016 -0.5696611,2.10546798 -0.5696613,0.72916642 -1.6679682,0.72916642 -1.0846351,0 -1.6588536,-0.71549455 Q 5.8059875,-1.3398433 5.7923157,-2.6751293 V -3.896483 q 0,-1.3899735 0.5742185,-2.1100254 0.5787759,-0.7200518 1.6634109,-0.7200518 1.084635,0 1.6588536,0.7154945 0.5742183,0.7109373 0.5878903,2.0462233 z M 8.9596323,-4.0833319 q 0,-0.8248696 -0.2278645,-1.1985673 -0.2233072,-0.3782551 -0.7018227,-0.3782551 -0.4648436,0 -0.6881508,0.3600259 -0.2187499,0.3554686 -0.2324218,1.1165361 v 1.6132807 q 0,0.8111976 0.2187499,1.2076819 0.2233072,0.39192691 0.7109373,0.39192691 0.4830727,0 0.6972654,-0.37825511 0.2141926,-0.3782551 0.2233072,-1.1575517 z"/>
            <path id="path368" style="font-weight:bold;font-size:9.33333px;font-family:Roboto, sans-serif;fill:#333333" d="m 15.636062,-2.7434886 q 0,1.3763016 -0.569661,2.10546798 -0.569661,0.72916642 -1.667968,0.72916642 -1.084635,0 -1.658854,-0.71549455 -0.574218,-0.71549455 -0.58789,-2.05078055 V -3.896483 q 0,-1.3899735 0.574218,-2.1100254 0.578776,-0.7200518 1.663411,-0.7200518 1.084635,0 1.658854,0.7154945 0.574218,0.7109373 0.58789,2.0462233 z m -1.317057,-1.3398433 q 0,-0.8248696 -0.227864,-1.1985673 -0.223307,-0.3782551 -0.701823,-0.3782551 -0.464843,0 -0.688151,0.3600259 -0.21875,0.3554686 -0.232421,1.1165361 v 1.6132807 q 0,0.8111976 0.21875,1.2076819 0.223307,0.39192691 0.710937,0.39192691 0.483073,0 0.697265,-0.37825511 0.214193,-0.3782551 0.223307,-1.1575517 z"/>
            <path id="path370" style="font-weight:bold;font-size:9.33333px;font-family:Roboto, sans-serif;fill:#333333" d="m 17.819004,-4.9309879 0.04102,0.5514321 q 0.524088,-0.6425779 1.417317,-0.6425779 0.952474,0 1.307942,0.7519529 0.519531,-0.7519529 1.481119,-0.7519529 0.802084,0 1.19401,0.4694009 0.391927,0.4648436 0.391927,1.4036453 V 0 h -1.321614 v -3.1445302 q 0,-0.4192707 -0.164062,-0.6106769 -0.164063,-0.1959634 -0.578776,-0.1959634 -0.592448,0 -0.820312,0.5651039 L 20.772128,0 h -1.317057 v -3.1399729 q 0,-0.4283853 -0.168619,-0.6197914 -0.16862,-0.1914062 -0.574219,-0.1914062 -0.560547,0 -0.811198,0.4648436 V 0 h -1.317057 v -4.9309879 z"/>
            <path id="path372" style="font-weight:bold;font-size:9.33333px;font-family:Roboto, sans-serif;fill:#333333" d="m 27.330068,-1.3626297 q 0,-0.2415364 -0.241536,-0.3782551 -0.236979,-0.141276 -0.765625,-0.250651 -1.759114,-0.3691405 -1.759114,-1.4947911 0,-0.6562498 0.542318,-1.0937497 0.546874,-0.4420571 1.426431,-0.4420571 0.938802,0 1.499349,0.4420571 0.565104,0.4420572 0.565104,1.1484371 h -1.317057 q 0,-0.2825519 -0.182292,-0.4648435 -0.182291,-0.1868489 -0.569661,-0.1868489 -0.332682,0 -0.514974,0.1503905 -0.182291,0.1503906 -0.182291,0.3828124 0,0.2187499 0.205078,0.3554686 0.209635,0.1321614 0.701822,0.2324218 0.492188,0.095703 0.829427,0.21875 1.04362,0.3828123 1.04362,1.3261714 0,0.67447891 -0.578776,1.0937496 -0.578776,0.4147134 -1.494791,0.4147134 -0.619792,0 -1.102865,-0.21874992 Q 24.95572,-0.35091134 24.682283,-0.73372371 24.408845,-1.1210934 24.408845,-1.5677078 h 1.248698 q 0.01823,0.3509113 0.259765,0.5377602 0.241537,0.18684893 0.647135,0.18684893 0.378255,0 0.569662,-0.14127599 0.195963,-0.14583324 0.195963,-0.37825504 z"/>
          </g>
        </g>
      </g>
    </g>
  </g>
</svg>
