<?xml version="1.0" encoding="UTF-8" standalone="no"?>
<svg
   xmlns:dc="http://purl.org/dc/elements/1.1/"
   xmlns:cc="http://creativecommons.org/ns#"
   xmlns:rdf="http://www.w3.org/1999/02/22-rdf-syntax-ns#"
   xmlns:svg="http://www.w3.org/2000/svg"
   xmlns="http://www.w3.org/2000/svg"
   xmlns:sodipodi="http://sodipodi.sourceforge.net/DTD/sodipodi-0.dtd"
   xmlns:inkscape="http://www.inkscape.org/namespaces/inkscape"
   version="1.1"
   width="300"
   height="380"
   viewBox="0 0 300 380"
   id="svg170"
   sodipodi:docname="svg_render_tmp.svg"
   inkscape:version="0.92.2 5c3e80d, 2017-08-06">
  <metadata
     id="metadata174">
    <rdf:RDF>
      <cc:Work
         rdf:about="">
        <dc:format>image/svg+xml</dc:format>
        <dc:type
           rdf:resource="http://purl.org/dc/dcmitype/StillImage" />
      </cc:Work>
    </rdf:RDF>
  </metadata>
  <sodipodi:namedview
     pagecolor="#ffffff"
     bordercolor="#666666"
     borderopacity="1"
     objecttolerance="10"
     gridtolerance="10"
     guidetolerance="10"
     inkscape:pageopacity="0"
     inkscape:pageshadow="2"
     inkscape:window-width="468"
     inkscape:window-height="413"
     id="namedview172"
     showgrid="false"
     inkscape:zoom="0.62105263"
     inkscape:cx="150"
     inkscape:cy="190"
     inkscape:window-x="0"
     inkscape:window-y="0"
     inkscape:window-maximized="0"
     inkscape:current-layer="svg170" />
  <style
     id="style2">
    text {
      fill: #333;
      font-family: 'Roboto', sans-serif;
      font-weight: bold;
    }
    text.title {
      font-family: 'Comfortaa', sans-serif;
      font-weight: normal;
    }
    text.brand {
      font-family: 'Audiowide', sans-serif;
      font-weight: bold;
    }
  </style>
  <defs
     id="defs94">
    <symbol
       id="display"
       viewBox="0 0 280px 230px">
      <rect
         cx="0"
         cy="0"
         width="280"
         height="230"
         fill="#222"
         id="rect4" />
    </symbol>
    <symbol
       id="knob"
       viewBox="0 0 100px 100px">
      <g
         transform="translate(50.5 50.5)"
         id="g13">
        <polyline
           points="-20,0 20,0"
           stroke-width="1"
           stroke="#00f"
           id="polyline7" />
        <polyline
           points="0,-20 0,20"
           stroke-width="1"
           stroke="#00f"
           id="polyline9" />
        <circle
           cx="0"
           cy="0"
           r="49.8"
           stroke-width="1"
           stroke="#00f"
           fill="none"
           id="circle11" />
      </g>
    </symbol>
    <symbol
       id="knobguide"
       viewBox="0 0 100px 100px">
      <g
         transform="translate(50.5 50.5)"
         id="g64">
        <g
           transform="rotate(-240) translate(30 0)"
           id="g20">
          <g
             transform="translate(2 0) rotate(240)"
             id="g18">
            <text
               font-size="7pt"
               transform="translate(-2.8 3.3)"
               id="text16">0</text>
          </g>
        </g>
        <g
           transform="rotate(-210) translate(30 0)"
           id="g24">
          <polyline
             points="0,0 4,0"
             stroke-width="0.5"
             stroke="#333"
             id="polyline22" />
        </g>
        <g
           transform="rotate(-180) translate(30 0)"
           id="g28">
          <polyline
             points="0,0 4,0"
             stroke-width="0.5"
             stroke="#333"
             id="polyline26" />
        </g>
        <g
           transform="rotate(-150) translate(30 0)"
           id="g32">
          <polyline
             points="0,0 5,0"
             stroke-width="0.5"
             stroke="#333"
             id="polyline30" />
        </g>
        <g
           transform="rotate(-120) translate(30 0)"
           id="g36">
          <polyline
             points="0,0 4,0"
             stroke-width="0.5"
             stroke="#333"
             id="polyline34" />
        </g>
        <g
           transform="rotate(-90) translate(30 0)"
           id="g40">
          <polyline
             points="0,0 4,0"
             stroke-width="0.5"
             stroke="#333"
             id="polyline38" />
        </g>
        <g
           transform="rotate(-60) translate(30 0)"
           id="g44">
          <polyline
             points="0,0 4,0"
             stroke-width="0.5"
             stroke="#333"
             id="polyline42" />
        </g>
        <g
           transform="rotate(-30) translate(30 0)"
           id="g48">
          <polyline
             points="0,0 4,0"
             stroke-width="0.5"
             stroke="#333"
             id="polyline46" />
        </g>
        <g
           transform="rotate(0) translate(30 0)"
           id="g52">
          <polyline
             points="0,0 4,0"
             stroke-width="0.5"
             stroke="#333"
             id="polyline50" />
        </g>
        <g
           transform="rotate(30) translate(30 0)"
           id="g56">
          <polyline
             points="0,0 4,0"
             stroke-width="0.5"
             stroke="#333"
             id="polyline54" />
        </g>
        <g
           transform="rotate(60) translate(30 0)"
           id="g62">
          <g
             transform="translate(2 0) rotate(-60)"
             id="g60">
            <text
               font-size="7pt"
               transform="translate(-5.3 3.3)"
               id="text58">10</text>
          </g>
        </g>
      </g>
    </symbol>
    <symbol
       id="button"
       viewBox="0 0 100px 100px">
      <g
         transform="translate(50.5 50.5)"
         id="g69">
        <circle
           cx="0"
           cy="0"
           r="49.8"
           stroke-width="1"
           stroke="#00f"
           fill="#f00"
           id="circle67" />
      </g>
    </symbol>
    <symbol
       id="switch"
       viewBox="0 0 70px 100px">
      <polyline
         points="1,1 69,1 69,99 1,99 1,1"
         stroke="#000"
         stroke-width="3"
         fill="none"
         id="polyline72" />
      <rect
         x="0"
         y="0"
         width="70px"
         height="50px"
         stroke-width="0"
         fill="#000"
         id="rect74" />
    </symbol>
    <symbol
       id="input"
       viewBox="0 0 24px 24px">
      <g
         transform="translate(12 12)"
         id="g81">
        <circle
           cx="0"
           cy="0"
           r="5"
           stroke-width="1"
           stroke="#0f0"
           fill="#0f0"
           id="circle77" />
        <circle
           cx="0"
           cy="0"
           r="10.5"
           stroke-width="3"
           stroke="#0f0"
           fill="none"
           id="circle79" />
      </g>
    </symbol>
    <symbol
       id="output"
       viewBox="0 0 24px 24px">
      <g
         transform="translate(12 12)"
         id="g88">
        <circle
           cx="0"
           cy="0"
           r="5"
           stroke-width="1"
           stroke="#f00"
           fill="#f00"
           id="circle84" />
        <circle
           cx="0"
           cy="0"
           r="10.5"
           stroke-width="3"
           stroke="#f00"
           fill="none"
           id="circle86" />
      </g>
    </symbol>
    <symbol
       id="light"
       viewBox="0 0 1.1px 1.1px">
      <rect
         width="3.2"
         height="3.2"
         fill="#0f0"
         id="rect91" />
    </symbol>
  </defs>
  <path
     style="fill:#dddddd"
     d="M 0,0 H 300 V 380 H 0 Z"
     id="rect96" />
  <path
     style="fill:none;stroke:#e4e4e4;stroke-width:0.5"
     d="M 1,1 H 299 V 379 H 1 V 1"
     id="polyline98" />
  <path
     style="fill:none;stroke:#ebebeb;stroke-width:0.80000001"
     d="m 0.5,0.5 h 299 v 379 H 0.5 V 0.5"
     id="polyline100" />
  <path
     style="fill:none;stroke:#f2f2f2;stroke-width:1"
     d="M 0,0 H 300 V 380 H 0 V 0"
     id="polyline102" />
  <g
     aria-label="ANALYZER"
     style="font-weight:normal;font-size:16px;font-family:Comfortaa, sans-serif;letter-spacing:4px;fill:#333333"
     id="text104">
    <path
       d="m 97.96875,8.890625 -2.140625,5.804688 h 4.289065 z M 97.078125,7.3359375 h 1.789062 L 103.3125,19 h -1.64062 l -1.0625,-2.992188 H 95.351562 L 94.289062,19 H 92.625 Z"
       style="font-weight:normal;font-size:16px;font-family:Comfortaa, sans-serif;letter-spacing:4px;fill:#333333"
       id="path378" />
    <path
       d="m 109.00781,7.3359375 h 2.125 l 5.17188,9.7578125 V 7.3359375 h 1.53125 V 19 h -2.125 L 110.53906,9.2421875 V 19 h -1.53125 z"
       style="font-weight:normal;font-size:16px;font-family:Comfortaa, sans-serif;letter-spacing:4px;fill:#333333"
       id="path380" />
    <path
       d="m 128.875,8.890625 -2.14062,5.804688 h 4.28906 z m -0.89062,-1.5546875 h 1.78906 L 134.21875,19 h -1.64063 l -1.0625,-2.992188 h -5.25781 L 125.19531,19 h -1.66406 z"
       style="font-weight:normal;font-size:16px;font-family:Comfortaa, sans-serif;letter-spacing:4px;fill:#333333"
       id="path382" />
    <path
       d="m 139.91406,7.3359375 h 1.57813 V 17.671875 h 5.67968 V 19 h -7.25781 z"
       style="font-weight:normal;font-size:16px;font-family:Comfortaa, sans-serif;letter-spacing:4px;fill:#333333"
       id="path384" />
    <path
       d="m 149.09375,7.3359375 h 1.69531 l 3.23438,4.7968755 3.21093,-4.7968755 h 1.69532 l -4.125,6.1093755 V 19 h -1.58594 v -5.554687 z"
       style="font-weight:normal;font-size:16px;font-family:Comfortaa, sans-serif;letter-spacing:4px;fill:#333333"
       id="path386" />
    <path
       d="m 163.80469,7.3359375 h 9.16406 v 1.203125 l -7.375,9.1328125 h 7.55469 V 19 H 163.625 V 17.796875 L 171,8.6640625 h -7.19531 z"
       style="font-weight:normal;font-size:16px;font-family:Comfortaa, sans-serif;letter-spacing:4px;fill:#333333"
       id="path388" />
    <path
       d="m 179.44531,7.3359375 h 7.375 v 1.328125 h -5.79687 v 3.4531255 h 5.55468 v 1.328125 h -5.55468 v 4.226562 h 5.9375 V 19 h -7.51563 z"
       style="font-weight:normal;font-size:16px;font-family:Comfortaa, sans-serif;letter-spacing:4px;fill:#333333"
       id="path390" />
    <path
       d="m 199.10156,13.53125 q 0.50781,0.171875 0.98438,0.734375 0.48437,0.5625 0.96875,1.546875 L 202.65625,19 h -1.69531 l -1.49219,-2.992188 q -0.57813,-1.171874 -1.125,-1.554687 -0.53906,-0.382812 -1.47656,-0.382812 h -1.71875 V 19 h -1.57813 V 7.3359375 h 3.5625 q 2,0 2.98438,0.8359375 0.98437,0.8359375 0.98437,2.523438 0,1.101562 -0.51562,1.828125 -0.50782,0.726562 -1.48438,1.007812 z m -3.95312,-4.8984375 v 4.1406255 h 1.98437 q 1.14063,0 1.71875,-0.523438 0.58594,-0.53125 0.58594,-1.554687 0,-1.023438 -0.58594,-1.539063 -0.57812,-0.5234375 -1.71875,-0.5234375 z"
       style="font-weight:normal;font-size:16px;font-family:Comfortaa, sans-serif;letter-spacing:4px;fill:#333333"
       id="path392" />
  </g>
  <g
     aria-label="BOGAUDIO"
     style="font-weight:bold;font-size:10.66666698px;font-family:Audiowide, sans-serif;letter-spacing:2px;fill:#333333"
     id="text106">
    <path
       d="m 116.59375,369.23437 q 0.47396,0 0.71875,-0.20833 0.24479,-0.20833 0.24479,-0.61458 0,-0.40104 -0.24479,-0.60938 -0.24479,-0.21354 -0.71875,-0.21354 h -1.10937 v 1.64583 z m 0.0677,3.40105 q 0.60417,0 0.90625,-0.25521 0.30729,-0.25521 0.30729,-0.77084 0,-0.5052 -0.30208,-0.7552 -0.30209,-0.25521 -0.91146,-0.25521 h -1.17708 v 2.03646 z m 1.86458,-2.79688 q 0.64584,0.1875 1,0.69271 0.35417,0.50521 0.35417,1.23958 0,1.125 -0.76042,1.67709 Q 118.35938,374 116.80729,374 h -3.32812 v -7.77604 h 3.01041 q 1.6198,0 2.34375,0.48958 0.72917,0.48958 0.72917,1.56771 0,0.56771 -0.26562,0.96875 -0.26563,0.39583 -0.77084,0.58854 z"
       style="font-weight:bold;font-size:10.66666698px;font-family:Audiowide, sans-serif;letter-spacing:2px;fill:#333333"
       id="path395" />
    <path
       d="m 127.15625,367.53646 q -0.91667,0 -1.42187,0.67708 -0.50521,0.67708 -0.50521,1.90625 0,1.22396 0.50521,1.90104 0.5052,0.67709 1.42187,0.67709 0.92188,0 1.42708,-0.67709 0.50521,-0.67708 0.50521,-1.90104 0,-1.22917 -0.50521,-1.90625 -0.5052,-0.67708 -1.42708,-0.67708 z m 0,-1.45313 q 1.875,0 2.9375,1.07292 1.0625,1.07292 1.0625,2.96354 0,1.88542 -1.0625,2.95833 -1.0625,1.07292 -2.9375,1.07292 -1.86979,0 -2.9375,-1.07292 -1.0625,-1.07291 -1.0625,-2.95833 0,-1.89062 1.0625,-2.96354 1.06771,-1.07292 2.9375,-1.07292 z"
       style="font-weight:bold;font-size:10.66666698px;font-family:Audiowide, sans-serif;letter-spacing:2px;fill:#333333"
       id="path397" />
    <path
       d="m 141.65625,373.42187 q -0.75,0.36459 -1.55729,0.54688 -0.80729,0.18229 -1.66667,0.18229 -1.94271,0 -3.07812,-1.08333 -1.13542,-1.08854 -1.13542,-2.94792 0,-1.88021 1.15625,-2.95833 1.15625,-1.07813 3.16667,-1.07813 0.77604,0 1.48437,0.14584 0.71354,0.14583 1.34375,0.43229 v 1.60937 q -0.65104,-0.36979 -1.29687,-0.55208 -0.64063,-0.18229 -1.28646,-0.18229 -1.19792,0 -1.84896,0.67187 -0.64583,0.66667 -0.64583,1.91146 0,1.23438 0.625,1.90625 0.625,0.67188 1.77604,0.67188 0.3125,0 0.57812,-0.0365 0.27084,-0.0417 0.48438,-0.125 v -1.51042 h -1.22396 v -1.34375 h 3.125 z"
       style="font-weight:bold;font-size:10.66666698px;font-family:Audiowide, sans-serif;letter-spacing:2px;fill:#333333"
       id="path399" />
    <path
       d="M 150.13542,372.58333 H 147 L 146.50521,374 h -2.01563 l 2.88021,-7.77604 h 2.39063 L 152.64063,374 H 150.625 Z M 147.5,371.14062 h 2.13021 l -1.0625,-3.09375 z"
       style="font-weight:bold;font-size:10.66666698px;font-family:Audiowide, sans-serif;letter-spacing:2px;fill:#333333"
       id="path401" />
    <path
       d="m 155.33333,366.22396 h 2.00521 v 4.66146 q 0,0.96354 0.3125,1.3802 0.31771,0.41146 1.03125,0.41146 0.71875,0 1.03125,-0.41146 0.31771,-0.41666 0.31771,-1.3802 v -4.66146 h 2.00521 v 4.66146 q 0,1.65104 -0.82813,2.45833 -0.82812,0.80729 -2.52604,0.80729 -1.69271,0 -2.52083,-0.80729 -0.82813,-0.80729 -0.82813,-2.45833 z"
       style="font-weight:bold;font-size:10.66666698px;font-family:Audiowide, sans-serif;letter-spacing:2px;fill:#333333"
       id="path403" />
    <path
       d="m 168.00521,367.73958 v 4.74479 h 0.71875 q 1.22917,0 1.875,-0.60937 0.65104,-0.60938 0.65104,-1.77083 0,-1.15625 -0.64583,-1.76042 -0.64583,-0.60417 -1.88021,-0.60417 z M 166,366.22396 h 2.11459 q 1.77083,0 2.63541,0.25521 0.86979,0.25 1.48959,0.85416 0.54687,0.52604 0.8125,1.21354 0.26562,0.6875 0.26562,1.5573 0,0.8802 -0.26562,1.57291 -0.26563,0.6875 -0.8125,1.21354 -0.625,0.60417 -1.5,0.85938 -0.875,0.25 -2.625,0.25 H 166 Z"
       style="font-weight:bold;font-size:10.66666698px;font-family:Audiowide, sans-serif;letter-spacing:2px;fill:#333333"
       id="path405" />
    <path
       d="m 176.85417,366.22396 h 2.00521 V 374 h -2.00521 z"
       style="font-weight:bold;font-size:10.66666698px;font-family:Audiowide, sans-serif;letter-spacing:2px;fill:#333333"
       id="path407" />
    <path
       d="m 186.38541,367.53646 q -0.91666,0 -1.42187,0.67708 -0.50521,0.67708 -0.50521,1.90625 0,1.22396 0.50521,1.90104 0.50521,0.67709 1.42187,0.67709 0.92188,0 1.42709,-0.67709 0.50521,-0.67708 0.50521,-1.90104 0,-1.22917 -0.50521,-1.90625 -0.50521,-0.67708 -1.42709,-0.67708 z m 0,-1.45313 q 1.875,0 2.9375,1.07292 1.0625,1.07292 1.0625,2.96354 0,1.88542 -1.0625,2.95833 -1.0625,1.07292 -2.9375,1.07292 -1.86979,0 -2.9375,-1.07292 -1.0625,-1.07291 -1.0625,-2.95833 0,-1.89062 1.0625,-2.96354 1.06771,-1.07292 2.9375,-1.07292 z"
       style="font-weight:bold;font-size:10.66666698px;font-family:Audiowide, sans-serif;letter-spacing:2px;fill:#333333"
       id="path409" />
  </g>
  <path
     style="fill:#dddddd"
     d="m 136.5,369 h 3 v 3 h -3 z"
     id="rect108" />
  <g
     aria-label="CH A"
     transform="rotate(-90)"
     style="font-weight:bold;font-size:10.66666698px;font-family:Roboto, sans-serif;letter-spacing:2px;fill:#333333"
     id="text114">
    <path
       d="m -299.35417,18.572917 q -0.55208,0.286458 -1.15104,0.432291 -0.59896,0.145834 -1.25,0.145834 -1.94271,0 -3.07812,-1.083334 -1.13542,-1.088541 -1.13542,-2.947916 0,-1.864584 1.13542,-2.947917 1.13541,-1.088542 3.07812,-1.088542 0.65104,0 1.25,0.145833 0.59896,0.145834 1.15104,0.432292 v 1.609375 q -0.55729,-0.380208 -1.09895,-0.557292 -0.54167,-0.177083 -1.14063,-0.177083 -1.07292,0 -1.6875,0.6875 -0.61458,0.6875 -0.61458,1.895834 0,1.203125 0.61458,1.890625 0.61458,0.6875 1.6875,0.6875 0.59896,0 1.14063,-0.177084 0.54166,-0.177083 1.09895,-0.557291 z"
       style="font-weight:bold;font-size:10.66666698px;font-family:Roboto, sans-serif;letter-spacing:2px;fill:#333333"
       id="path413" />
    <path
       d="m -295.6875,11.223958 h 2.00521 V 14.1875 h 2.95833 v -2.963542 h 2.00521 V 19 h -2.00521 v -3.296875 h -2.95833 V 19 h -2.00521 z"
       style="font-weight:bold;font-size:10.66666698px;font-family:Roboto, sans-serif;letter-spacing:2px;fill:#333333"
       id="path415" />
    <path
       d="m -274.32292,17.583333 h -3.13541 L -277.95312,19 h -2.01563 l 2.88021,-7.776042 h 2.39062 L -271.81771,19 h -2.01562 z m -2.63541,-1.442708 h 2.13021 l -1.0625,-3.09375 z"
       style="font-weight:bold;font-size:10.66666698px;font-family:Roboto, sans-serif;letter-spacing:2px;fill:#333333"
       id="path417" />
  </g>
  <g
     id="g126"
     transform="translate(25,270)">
    <path
       style="fill:#fafafa"
       d="m 5,0 h 48 c 2.77,0 5,2.23 5,5 v 30 c 0,2.77 -2.23,5 -5,5 H 5 C 2.23,40 0,37.77 0,35 V 5 C 0,2.23 2.23,0 5,0 Z"
       id="rect116" />
    <path
       transform="translate(38)"
       style="fill:#bbbbbb"
       d="m 5,0 h 10 c 2.77,0 5,2.23 5,5 v 30 c 0,2.77 -2.23,5 -5,5 H 5 C 2.23,40 0,37.77 0,35 V 5 C 0,2.23 2.23,0 5,0 Z"
       id="rect118" />
    <path
       transform="translate(29)"
       style="fill:#bbbbbb"
       d="M 0,0 H 20 V 40 H 0 Z"
       id="rect120" />
    <g
       aria-label="IN"
       transform="translate(10,36)"
       style="font-weight:bold;font-size:8px;font-family:Roboto, sans-serif;letter-spacing:2px;fill:#333333"
       id="text122">
      <path
         d="M 0.734375,-5.8320312 H 2.2382813 V 0 H 0.734375 Z"
         style="font-weight:bold;font-size:8px;font-family:Roboto, sans-serif;letter-spacing:2px;fill:#333333"
         id="path423" />
      <path
         d="m 5.71875,-5.8320312 h 1.6796875 l 2.1210938,4 v -4 H 10.945313 V 0 H 9.265625 L 7.1445312,-4 V 0 H 5.71875 Z"
         style="font-weight:bold;font-size:8px;font-family:Roboto, sans-serif;letter-spacing:2px;fill:#333333"
         id="path425" />
    </g>
    <g
       aria-label="OUT"
       transform="translate(33,36)"
       style="font-weight:bold;font-size:8px;font-family:Roboto, sans-serif;letter-spacing:2px;fill:#333333"
       id="text124">
      <path
         d="m 3.3984375,-4.8476562 q -0.6875,0 -1.0664062,0.5078125 -0.3789063,0.5078124 -0.3789063,1.4296874 0,0.9179688 0.3789063,1.4257813 0.3789062,0.5078125 1.0664062,0.5078125 0.6914062,0 1.0703125,-0.5078125 0.3789062,-0.5078125 0.3789062,-1.4257813 0,-0.921875 -0.3789062,-1.4296874 -0.3789063,-0.5078125 -1.0703125,-0.5078125 z m 0,-1.0898438 q 1.40625,0 2.203125,0.8046875 0.796875,0.8046875 0.796875,2.2226562 0,1.4140626 -0.796875,2.21875005 -0.796875,0.8046875 -2.203125,0.8046875 -1.4023438,0 -2.203125,-0.8046875 -0.796875,-0.80468745 -0.796875,-2.21875005 0,-1.4179687 0.796875,-2.2226562 Q 1.9960937,-5.9375 3.3984375,-5.9375 Z"
         style="font-weight:bold;font-size:8px;font-family:Roboto, sans-serif;letter-spacing:2px;fill:#333333"
         id="path428" />
      <path
         d="m 9.53125,-5.8320312 h 1.503906 v 3.4960937 q 0,0.7226563 0.234375,1.0351563 0.238282,0.3085937 0.773438,0.3085937 0.539062,0 0.773437,-0.3085937 0.238282,-0.3125 0.238282,-1.0351563 v -3.4960937 h 1.503906 v 3.4960937 q 0,1.2382813 -0.621094,1.84375 -0.621094,0.60546875 -1.894531,0.60546875 -1.269531,0 -1.890625,-0.60546875 -0.621094,-0.6054687 -0.621094,-1.84375 z"
         style="font-weight:bold;font-size:8px;font-family:Roboto, sans-serif;letter-spacing:2px;fill:#333333"
         id="path430" />
      <path
         d="m 17.335937,-5.8320312 h 5.375 v 1.1367187 H 20.777344 V 0 h -1.503907 v -4.6953125 h -1.9375 z"
         style="font-weight:bold;font-size:8px;font-family:Roboto, sans-serif;letter-spacing:2px;fill:#333333"
         id="path432" />
    </g>
  </g>
  <!-- <polyline points="10,0 10,380" stroke="#0f0" stroke-width="1" /> -->
  <!-- <polyline points="290,0 290,380" stroke="#0f0" stroke-width="1" /> -->
  <!-- <polyline points="0,315.5 300,315.5" stroke="#0f0" stroke-width="1" /> -->
  <g
     aria-label="CH B"
     transform="rotate(-90)"
     style="font-weight:bold;font-size:10.66666698px;font-family:Roboto, sans-serif;letter-spacing:2px;fill:#333333"
     id="text130">
    <path
       d="m -349.35417,18.572917 q -0.55208,0.286458 -1.15104,0.432291 -0.59896,0.145834 -1.25,0.145834 -1.94271,0 -3.07812,-1.083334 -1.13542,-1.088541 -1.13542,-2.947916 0,-1.864584 1.13542,-2.947917 1.13541,-1.088542 3.07812,-1.088542 0.65104,0 1.25,0.145833 0.59896,0.145834 1.15104,0.432292 v 1.609375 q -0.55729,-0.380208 -1.09895,-0.557292 -0.54167,-0.177083 -1.14063,-0.177083 -1.07292,0 -1.6875,0.6875 -0.61458,0.6875 -0.61458,1.895834 0,1.203125 0.61458,1.890625 0.61458,0.6875 1.6875,0.6875 0.59896,0 1.14063,-0.177084 0.54166,-0.177083 1.09895,-0.557291 z"
       style="font-weight:bold;font-size:10.66666698px;font-family:Roboto, sans-serif;letter-spacing:2px;fill:#333333"
       id="path305" />
    <path
       d="m -345.6875,11.223958 h 2.00521 V 14.1875 h 2.95833 v -2.963542 h 2.00521 V 19 h -2.00521 v -3.296875 h -2.95833 V 19 h -2.00521 z"
       style="font-weight:bold;font-size:10.66666698px;font-family:Roboto, sans-serif;letter-spacing:2px;fill:#333333"
       id="path307" />
    <path
       d="m -325.92708,14.234375 q 0.47396,0 0.71875,-0.208333 0.24479,-0.208334 0.24479,-0.614584 0,-0.401042 -0.24479,-0.609375 -0.24479,-0.213542 -0.71875,-0.213542 h -1.10938 v 1.645834 z m 0.0677,3.401042 q 0.60416,0 0.90625,-0.255209 0.30729,-0.255208 0.30729,-0.770833 0,-0.505208 -0.30209,-0.755208 -0.30208,-0.255209 -0.91145,-0.255209 h -1.17709 v 2.036459 z m 1.86458,-2.796875 q 0.64583,0.1875 1,0.692708 0.35417,0.505208 0.35417,1.239583 0,1.125 -0.76042,1.677084 Q -324.16146,19 -325.71354,19 h -3.32813 v -7.776042 h 3.01042 q 1.61979,0 2.34375,0.489583 0.72917,0.489584 0.72917,1.567709 0,0.567708 -0.26563,0.96875 -0.26562,0.395833 -0.77083,0.588542 z"
       style="font-weight:bold;font-size:10.66666698px;font-family:Roboto, sans-serif;letter-spacing:2px;fill:#333333"
       id="path309" />
  </g>
  <g
     id="g142"
     transform="translate(25,320)">
    <path
       style="fill:#fafafa"
       d="m 5,0 h 48 c 2.77,0 5,2.23 5,5 v 30 c 0,2.77 -2.23,5 -5,5 H 5 C 2.23,40 0,37.77 0,35 V 5 C 0,2.23 2.23,0 5,0 Z"
       id="rect132" />
    <path
       transform="translate(38)"
       style="fill:#bbbbbb"
       d="m 5,0 h 10 c 2.77,0 5,2.23 5,5 v 30 c 0,2.77 -2.23,5 -5,5 H 5 C 2.23,40 0,37.77 0,35 V 5 C 0,2.23 2.23,0 5,0 Z"
       id="rect134" />
    <path
       transform="translate(29)"
       style="fill:#bbbbbb"
       d="M 0,0 H 20 V 40 H 0 Z"
       id="rect136" />
    <g
       aria-label="IN"
       transform="translate(10,36)"
       style="font-weight:bold;font-size:8px;font-family:Roboto, sans-serif;letter-spacing:2px;fill:#333333"
       id="text138">
      <path
         d="M 0.734375,-5.8320312 H 2.2382813 V 0 H 0.734375 Z"
         style="font-weight:bold;font-size:8px;font-family:Roboto, sans-serif;letter-spacing:2px;fill:#333333"
         id="path315" />
      <path
         d="m 5.71875,-5.8320312 h 1.6796875 l 2.1210938,4 v -4 H 10.945313 V 0 H 9.265625 L 7.1445312,-4 V 0 H 5.71875 Z"
         style="font-weight:bold;font-size:8px;font-family:Roboto, sans-serif;letter-spacing:2px;fill:#333333"
         id="path317" />
    </g>
    <g
       aria-label="OUT"
       transform="translate(33,36)"
       style="font-weight:bold;font-size:8px;font-family:Roboto, sans-serif;letter-spacing:2px;fill:#333333"
       id="text140">
      <path
         d="m 3.3984375,-4.8476562 q -0.6875,0 -1.0664062,0.5078125 -0.3789063,0.5078124 -0.3789063,1.4296874 0,0.9179688 0.3789063,1.4257813 0.3789062,0.5078125 1.0664062,0.5078125 0.6914062,0 1.0703125,-0.5078125 0.3789062,-0.5078125 0.3789062,-1.4257813 0,-0.921875 -0.3789062,-1.4296874 -0.3789063,-0.5078125 -1.0703125,-0.5078125 z m 0,-1.0898438 q 1.40625,0 2.203125,0.8046875 0.796875,0.8046875 0.796875,2.2226562 0,1.4140626 -0.796875,2.21875005 -0.796875,0.8046875 -2.203125,0.8046875 -1.4023438,0 -2.203125,-0.8046875 -0.796875,-0.80468745 -0.796875,-2.21875005 0,-1.4179687 0.796875,-2.2226562 Q 1.9960937,-5.9375 3.3984375,-5.9375 Z"
         style="font-weight:bold;font-size:8px;font-family:Roboto, sans-serif;letter-spacing:2px;fill:#333333"
         id="path320" />
      <path
         d="m 9.53125,-5.8320312 h 1.503906 v 3.4960937 q 0,0.7226563 0.234375,1.0351563 0.238282,0.3085937 0.773438,0.3085937 0.539062,0 0.773437,-0.3085937 0.238282,-0.3125 0.238282,-1.0351563 v -3.4960937 h 1.503906 v 3.4960937 q 0,1.2382813 -0.621094,1.84375 -0.621094,0.60546875 -1.894531,0.60546875 -1.269531,0 -1.890625,-0.60546875 -0.621094,-0.6054687 -0.621094,-1.84375 z"
         style="font-weight:bold;font-size:8px;font-family:Roboto, sans-serif;letter-spacing:2px;fill:#333333"
         id="path322" />
      <path
         d="m 17.335937,-5.8320312 h 5.375 v 1.1367187 H 20.777344 V 0 h -1.503907 v -4.6953125 h -1.9375 z"
         style="font-weight:bold;font-size:8px;font-family:Roboto, sans-serif;letter-spacing:2px;fill:#333333"
         id="path324" />
    </g>
  </g>
  <g
     id="g148"
     transform="translate(100,303.5)">
    <g
       aria-label="RANGE"
       transform="translate(-2,-12)"
       style="font-weight:bold;font-size:10.66666698px;font-family:Roboto, sans-serif;letter-spacing:2px;fill:#333333"
       id="text146">
      <path
         d="m 3.8281251,-4.3281251 q 0.6302084,0 0.9010417,-0.234375 0.2760417,-0.234375 0.2760417,-0.7708334 0,-0.53125 -0.2760417,-0.7604167 -0.2708333,-0.2291667 -0.9010417,-0.2291667 h -0.84375 v 1.9947918 z m -0.84375,1.3854167 V 0 H 0.9791667 v -7.7760419 h 3.0625001 q 1.5364584,0 2.2500001,0.515625 0.71875,0.515625 0.71875,1.6302084 0,0.7708334 -0.375,1.265625 -0.3697917,0.4947917 -1.1197917,0.7291667 0.4114583,0.09375 0.734375,0.4270834 0.328125,0.328125 0.6614583,1 L 8.0000002,0 H 5.8645835 L 4.9166668,-1.9322917 Q 4.6302085,-2.5156251 4.3333335,-2.7291667 4.0416668,-2.9427084 3.5520834,-2.9427084 Z"
         style="font-weight:bold;font-size:10.66666698px;font-family:Roboto, sans-serif;letter-spacing:2px;fill:#333333"
         id="path327" />
      <path
         d="M 15.906251,-1.4166667 H 12.770834 L 12.276042,0 h -2.015625 l 2.880209,-7.7760419 h 2.390625 L 18.411459,0 h -2.015625 z m -2.635417,-1.4427084 h 2.130208 l -1.0625,-3.0937501 z"
         style="font-weight:bold;font-size:10.66666698px;font-family:Roboto, sans-serif;letter-spacing:2px;fill:#333333"
         id="path329" />
      <path
         d="m 21.437501,-7.7760419 h 2.239583 l 2.828125,5.3333335 v -5.3333335 h 1.901042 V 0 H 26.166667 L 23.338542,-5.3333335 V 0 h -1.901041 z"
         style="font-weight:bold;font-size:10.66666698px;font-family:Roboto, sans-serif;letter-spacing:2px;fill:#333333"
         id="path331" />
      <path
         d="m 39.364584,-0.57812502 q -0.75,0.36458335 -1.557292,0.54687502 -0.807291,0.18229167 -1.666666,0.18229167 -1.942709,0 -3.078125,-1.08333336 -1.135417,-1.08854171 -1.135417,-2.94791671 0,-1.8802084 1.15625,-2.9583335 1.15625,-1.078125 3.166667,-1.078125 0.776041,0 1.484375,0.1458333 0.713542,0.1458334 1.34375,0.4322917 v 1.6093751 q -0.651042,-0.3697917 -1.296875,-0.5520834 -0.640625,-0.1822917 -1.286459,-0.1822917 -1.197916,0 -1.848958,0.6718751 -0.645833,0.6666666 -0.645833,1.9114584 0,1.234375 0.625,1.90625 0.625,0.671875 1.776041,0.671875 0.3125,0 0.578125,-0.036458 0.270834,-0.041667 0.484375,-0.125 v -1.5104167 h -1.223958 v -1.3437501 h 3.125 z"
         style="font-weight:bold;font-size:10.66666698px;font-family:Roboto, sans-serif;letter-spacing:2px;fill:#333333"
         id="path333" />
      <path
         d="m 43.125003,-7.7760419 h 5.411458 v 1.515625 h -3.40625 v 1.4479168 h 3.203125 v 1.515625 h -3.203125 v 1.7812501 h 3.520833 V 0 h -5.526041 z"
         style="font-weight:bold;font-size:10.66666698px;font-family:Roboto, sans-serif;letter-spacing:2px;fill:#333333"
         id="path335" />
    </g>
  </g>
  <g
     id="g152"
     transform="translate(164,303.5)">
    <g
       aria-label="SMOOTH"
       transform="translate(-10,-12)"
       style="font-weight:bold;font-size:10.66666698px;font-family:Roboto, sans-serif;letter-spacing:2px;fill:#333333"
       id="text150">
      <path
         d="m 6.3906252,-7.5312502 v 1.6458334 q -0.640625,-0.2864584 -1.25,-0.4322917 -0.6093751,-0.1458334 -1.1510417,-0.1458334 -0.7187501,0 -1.0625001,0.1979167 -0.34375,0.1979167 -0.34375,0.6145834 0,0.3125 0.2291667,0.4895833 0.234375,0.171875 0.84375,0.296875 l 0.8541667,0.171875 q 1.296875,0.2604167 1.8437501,0.7916667 0.546875,0.53125 0.546875,1.5104167 0,1.2864584 -0.7656251,1.91666675 -0.7604166,0.62500002 -2.328125,0.62500002 -0.7395834,0 -1.4843751,-0.140625 Q 1.578125,-0.13020834 0.83333336,-0.40625001 V -2.0989584 Q 1.578125,-1.7031251 2.2708334,-1.5 q 0.6979167,0.1979166 1.34375,0.1979166 0.6562501,0 1.0052084,-0.21875 0.3489583,-0.21875 0.3489583,-0.625 0,-0.3645833 -0.2395833,-0.5625 -0.234375,-0.1979167 -0.9427084,-0.3541667 l -0.7760416,-0.171875 q -1.1666667,-0.25 -1.7083334,-0.796875 -0.53645838,-0.546875 -0.53645838,-1.4739584 0,-1.1614584 0.74999998,-1.7864584 0.7500001,-0.625 2.1562501,-0.625 0.640625,0 1.3177084,0.098958 0.6770833,0.09375 1.4010417,0.2864584 z"
         style="font-weight:bold;font-size:10.66666698px;font-family:Roboto, sans-serif;letter-spacing:2px;fill:#333333"
         id="path338" />
      <path
         d="m 10.666667,-7.7760419 h 2.552083 l 1.770833,4.1614585 1.781251,-4.1614585 h 2.546875 V 0 h -1.895834 v -5.6875002 l -1.791666,4.1927085 H 14.359375 L 12.567708,-5.6875002 V 0 h -1.901041 z"
         style="font-weight:bold;font-size:10.66666698px;font-family:Roboto, sans-serif;letter-spacing:2px;fill:#333333"
         id="path340" />
      <path
         d="m 26.84375,-6.4635419 q -0.916667,0 -1.421875,0.6770834 -0.505208,0.6770833 -0.505208,1.9062501 0,1.2239583 0.505208,1.9010417 0.505208,0.6770833 1.421875,0.6770833 0.921875,0 1.427084,-0.6770833 0.505208,-0.6770834 0.505208,-1.9010417 0,-1.2291668 -0.505208,-1.9062501 -0.505209,-0.6770834 -1.427084,-0.6770834 z m 0,-1.453125 q 1.875,0 2.9375,1.0729167 1.0625,1.0729167 1.0625,2.9635418 0,1.8854167 -1.0625,2.95833337 -1.0625,1.0729167 -2.9375,1.0729167 -1.869792,0 -2.9375,-1.0729167 -1.0625,-1.07291667 -1.0625,-2.95833337 0,-1.8906251 1.0625,-2.9635418 1.067708,-1.0729167 2.9375,-1.0729167 z"
         style="font-weight:bold;font-size:10.66666698px;font-family:Roboto, sans-serif;letter-spacing:2px;fill:#333333"
         id="path342" />
      <path
         d="m 37.90625,-6.4635419 q -0.916667,0 -1.421875,0.6770834 -0.505208,0.6770833 -0.505208,1.9062501 0,1.2239583 0.505208,1.9010417 0.505208,0.6770833 1.421875,0.6770833 0.921875,0 1.427084,-0.6770833 0.505208,-0.6770834 0.505208,-1.9010417 0,-1.2291668 -0.505208,-1.9062501 -0.505209,-0.6770834 -1.427084,-0.6770834 z m 0,-1.453125 q 1.875,0 2.9375,1.0729167 1.0625,1.0729167 1.0625,2.9635418 0,1.8854167 -1.0625,2.95833337 -1.0625,1.0729167 -2.9375,1.0729167 -1.869792,0 -2.9375,-1.0729167 -1.0625,-1.07291667 -1.0625,-2.95833337 0,-1.8906251 1.0625,-2.9635418 1.067708,-1.0729167 2.9375,-1.0729167 z"
         style="font-weight:bold;font-size:10.66666698px;font-family:Roboto, sans-serif;letter-spacing:2px;fill:#333333"
         id="path344" />
      <path
         d="m 44.489583,-7.7760419 h 7.166667 v 1.515625 H 49.078125 V 0 h -2.005208 v -6.2604169 h -2.583334 z"
         style="font-weight:bold;font-size:10.66666698px;font-family:Roboto, sans-serif;letter-spacing:2px;fill:#333333"
         id="path346" />
      <path
         d="m 54.687499,-7.7760419 h 2.005208 v 2.9635418 h 2.958334 v -2.9635418 h 2.005208 V 0 H 59.651041 V -3.2968751 H 56.692707 V 0 h -2.005208 z"
         style="font-weight:bold;font-size:10.66666698px;font-family:Roboto, sans-serif;letter-spacing:2px;fill:#333333"
         id="path348" />
    </g>
  </g>
  <g
     id="g154"
     transform="translate(232,301.5)">
    <!-- <text font-size="5pt" letter-spacing="2px" transform="translate(-8 26.5) rotate(270)">TYPE</text> -->
    <!-- <text font-size="5pt" letter-spacing="2px" transform="translate(-4 0)">LINE</text> -->
    <!--  -->
    <!-- <text font-size="5pt" letter-spacing="2px" transform="translate(-1.5 34)">BAR</text> -->
  </g>
  <g
     id="g162"
     transform="translate(273,301.5)">
    <g
       aria-label="POWER"
       transform="rotate(-90,11.25,19.25)"
       style="font-weight:bold;font-size:6.66666651px;font-family:Roboto, sans-serif;letter-spacing:2px;fill:#333333"
       id="text156">
      <path
         d="M 0.61197915,-4.8600259 H 2.6920572 q 0.9277344,0 1.422526,0.4134114 0.4980469,0.4101563 0.4980469,1.171875 0,0.7649739 -0.4980469,1.1783854 -0.4947916,0.4101562 -1.422526,0.4101562 H 1.8652343 V 0 H 0.61197915 Z m 1.25325515,0.9082031 v 1.3574218 h 0.6933594 q 0.3645833,0 0.563151,-0.1757812 0.1985677,-0.1790365 0.1985677,-0.5045573 0,-0.3255208 -0.1985677,-0.5013021 -0.1985677,-0.1757812 -0.563151,-0.1757812 z"
         style="font-weight:bold;font-size:6.66666651px;font-family:Roboto, sans-serif;letter-spacing:2px;fill:#333333"
         id="path351" />
      <path
         d="m 9.7148437,-4.0397134 q -0.5729167,0 -0.8886719,0.423177 -0.3157552,0.4231771 -0.3157552,1.1914062 0,0.764974 0.3157552,1.1881511 0.3157552,0.42317704 0.8886719,0.42317704 0.5761723,0 0.8919273,-0.42317704 0.315755,-0.4231771 0.315755,-1.1881511 0,-0.7682291 -0.315755,-1.1914062 -0.315755,-0.423177 -0.8919273,-0.423177 z m 0,-0.9082031 q 1.1718753,0 1.8359373,0.6705729 0.664063,0.6705729 0.664063,1.8522134 0,1.1783854 -0.664063,1.84895834 -0.664062,0.6705729 -1.8359373,0.6705729 -1.1686198,0 -1.8359375,-0.6705729 -0.6640625,-0.67057294 -0.6640625,-1.84895834 0,-1.1816405 0.6640625,-1.8522134 0.6673177,-0.6705729 1.8359375,-0.6705729 z"
         style="font-weight:bold;font-size:6.66666651px;font-family:Roboto, sans-serif;letter-spacing:2px;fill:#333333"
         id="path353" />
      <path
         d="m 14.745443,-4.8600259 h 1.201172 l 0.839843,3.5319009 0.833334,-3.5319009 h 1.207682 l 0.833333,3.5319009 0.839844,-3.5319009 h 1.191406 L 20.546224,0 H 19.100911 L 18.21875,-3.6946614 17.346354,0 h -1.445312 z"
         style="font-weight:bold;font-size:6.66666651px;font-family:Roboto, sans-serif;letter-spacing:2px;fill:#333333"
         id="path355" />
      <path
         d="m 24.515624,-4.8600259 h 3.382161 v 0.9472656 h -2.128906 v 0.9049479 h 2.001953 v 0.9472656 h -2.001953 v 1.1132812 H 27.9694 V 0 h -3.453776 z"
         style="font-weight:bold;font-size:6.66666651px;font-family:Roboto, sans-serif;letter-spacing:2px;fill:#333333"
         id="path357" />
      <path
         d="m 32.853516,-2.7050781 q 0.39388,0 0.563151,-0.1464843 0.172526,-0.1464844 0.172526,-0.4817709 0,-0.3320312 -0.172526,-0.4752604 -0.169271,-0.1432291 -0.563151,-0.1432291 h -0.527344 v 1.2467447 z m -0.527344,0.8658854 V 0 h -1.253255 v -4.8600259 h 1.914062 q 0.960287,0 1.40625,0.3222656 0.449219,0.3222656 0.449219,1.0188802 0,0.4817708 -0.234375,0.7910156 -0.23112,0.3092448 -0.69987,0.4557291 0.257161,0.058594 0.458984,0.2669271 0.205079,0.2050781 0.413412,0.625 L 35.460937,0 H 34.126302 L 33.533854,-1.2076823 Q 33.354818,-1.5722656 33.169271,-1.7057291 32.986979,-1.8391927 32.68099,-1.8391927 Z"
         style="font-weight:bold;font-size:6.66666651px;font-family:Roboto, sans-serif;letter-spacing:2px;fill:#333333"
         id="path359" />
    </g>
    <g
       aria-label="ON"
       transform="translate(1)"
       style="font-weight:bold;font-size:6.66666651px;font-family:Roboto, sans-serif;letter-spacing:2px;fill:#333333"
       id="text158">
      <path
         d="m 2.8320312,-4.0397134 q -0.5729167,0 -0.8886719,0.423177 -0.3157552,0.4231771 -0.3157552,1.1914062 0,0.764974 0.3157552,1.1881511 0.3157552,0.42317704 0.8886719,0.42317704 0.5761718,0 0.891927,-0.42317704 0.3157552,-0.4231771 0.3157552,-1.1881511 0,-0.7682291 -0.3157552,-1.1914062 -0.3157552,-0.423177 -0.891927,-0.423177 z m 0,-0.9082031 q 1.171875,0 1.8359374,0.6705729 0.6640625,0.6705729 0.6640625,1.8522134 0,1.1783854 -0.6640625,1.84895834 -0.6640624,0.6705729 -1.8359374,0.6705729 -1.1686198,0 -1.83593747,-0.6705729 -0.66406249,-0.67057294 -0.66406249,-1.84895834 0,-1.1816405 0.66406249,-1.8522134 0.66731767,-0.6705729 1.83593747,-0.6705729 z"
         style="font-weight:bold;font-size:6.66666651px;font-family:Roboto, sans-serif;letter-spacing:2px;fill:#333333"
         id="path362" />
      <path
         d="m 8.2760417,-4.8600259 h 1.3997395 l 1.7675778,3.3333332 V -4.8600259 H 12.63151 V 0 H 11.231771 L 9.4641927,-3.3333333 V 0 h -1.188151 z"
         style="font-weight:bold;font-size:6.66666651px;font-family:Roboto, sans-serif;letter-spacing:2px;fill:#333333"
         id="path364" />
    </g>
    <g
       aria-label="OFF"
       transform="translate(-1,34)"
       style="font-weight:bold;font-size:6.66666651px;font-family:Roboto, sans-serif;letter-spacing:2px;fill:#333333"
       id="text160">
      <path
         d="m 2.8320312,-4.0397134 q -0.5729167,0 -0.8886719,0.423177 -0.3157552,0.4231771 -0.3157552,1.1914062 0,0.764974 0.3157552,1.1881511 0.3157552,0.42317704 0.8886719,0.42317704 0.5761718,0 0.891927,-0.42317704 0.3157552,-0.4231771 0.3157552,-1.1881511 0,-0.7682291 -0.3157552,-1.1914062 -0.3157552,-0.423177 -0.891927,-0.423177 z m 0,-0.9082031 q 1.171875,0 1.8359374,0.6705729 0.6640625,0.6705729 0.6640625,1.8522134 0,1.1783854 -0.6640625,1.84895834 -0.6640624,0.6705729 -1.8359374,0.6705729 -1.1686198,0 -1.83593747,-0.6705729 -0.66406249,-0.67057294 -0.66406249,-1.84895834 0,-1.1816405 0.66406249,-1.8522134 0.66731767,-0.6705729 1.83593747,-0.6705729 z"
         style="font-weight:bold;font-size:6.66666651px;font-family:Roboto, sans-serif;letter-spacing:2px;fill:#333333"
         id="path367" />
      <path
         d="m 8.2760417,-4.8600259 h 3.3821613 v 0.9472656 H 9.5292968 v 0.9049479 H 11.53125 v 0.9472656 H 9.5292968 V 0 H 8.2760417 Z"
         style="font-weight:bold;font-size:6.66666651px;font-family:Roboto, sans-serif;letter-spacing:2px;fill:#333333"
         id="path369" />
      <path
         d="m 14.833333,-4.8600259 h 3.382161 v 0.9472656 h -2.128906 v 0.9049479 h 2.001953 v 0.9472656 H 16.086588 V 0 h -1.253255 z"
         style="font-weight:bold;font-size:6.66666651px;font-family:Roboto, sans-serif;letter-spacing:2px;fill:#333333"
         id="path371" />
    </g>
  </g>
  <g
     id="use166"
     transform="matrix(0.75,0,0,0.75,81.5,285)">
    <g
       id="g301"
       transform="translate(50.5,50.5)">
      <g
         id="g257"
         transform="rotate(120,-15,8.660254)">
        <g
           id="g255"
           transform="rotate(-120,1,-0.57735027)">
          <g
             aria-label="0"
             transform="translate(-2.8,3.3)"
             style="font-weight:bold;font-size:9.33333302px;font-family:Roboto, sans-serif;fill:#333333"
             id="text253">
            <path
               d="m 4.2929686,-3.4088541 q 0,-1.2760416 -0.2415364,-1.7955728 -0.2369792,-0.5240885 -0.8020834,-0.5240885 -0.5651041,0 -0.8066405,0.5240885 -0.2415365,0.5195312 -0.2415365,1.7955728 0,1.2897135 0.2415365,1.8183594 0.2415364,0.5286458 0.8066405,0.5286458 0.5605469,0 0.8020834,-0.5286458 0.2415364,-0.5286459 0.2415364,-1.8183594 z m 1.7545572,0.013672 q 0,1.6907552 -0.7291666,2.61132806 -0.7291666,0.91601559 -2.0690104,0.91601559 -1.3444009,0 -2.0735676,-0.91601559 Q 0.44661457,-1.704427 0.44661457,-3.3951822 q 0,-1.6953124 0.72916663,-2.611328 0.7291667,-0.9205729 2.0735676,-0.9205729 1.3398438,0 2.0690104,0.9205729 0.7291666,0.9160156 0.7291666,2.611328 z"
               style="font-weight:bold;font-size:9.33333302px;font-family:Roboto, sans-serif;fill:#333333"
               id="path435" />
          </g>
        </g>
      </g>
      <g
         id="g261"
         transform="rotate(150,-15,4.0192379)">
        <path
           style="stroke:#333333;stroke-width:0.5"
           d="M 0,0 H 4"
           id="polyline259" />
      </g>
      <g
         id="g265"
         transform="rotate(-180,-15,0)">
        <path
           style="stroke:#333333;stroke-width:0.5"
           d="M 0,0 H 4"
           id="polyline263" />
      </g>
      <g
         id="g269"
         transform="rotate(-150,-15,-4.0192379)">
        <path
           style="stroke:#333333;stroke-width:0.5"
           d="M 0,0 H 5"
           id="polyline267" />
      </g>
      <g
         id="g273"
         transform="rotate(-120,-15,-8.660254)">
        <path
           style="stroke:#333333;stroke-width:0.5"
           d="M 0,0 H 4"
           id="polyline271" />
      </g>
      <g
         id="g277"
         transform="rotate(-90,-15,-15)">
        <path
           style="stroke:#333333;stroke-width:0.5"
           d="M 0,0 H 4"
           id="polyline275" />
      </g>
      <g
         id="g281"
         transform="rotate(-60,-15,-25.980762)">
        <path
           style="stroke:#333333;stroke-width:0.5"
           d="M 0,0 H 4"
           id="polyline279" />
      </g>
      <g
         id="g285"
         transform="rotate(-30,-15,-55.980762)">
        <path
           style="stroke:#333333;stroke-width:0.5"
           d="M 0,0 H 4"
           id="polyline283" />
      </g>
      <g
         id="g289"
         transform="translate(30)">
        <path
           style="stroke:#333333;stroke-width:0.5"
           d="M 0,0 H 4"
           id="polyline287" />
      </g>
      <g
         id="g293"
         transform="rotate(30,-15,55.980762)">
        <path
           style="stroke:#333333;stroke-width:0.5"
           d="M 0,0 H 4"
           id="polyline291" />
      </g>
      <g
         id="g299"
         transform="rotate(60,-15,25.980762)">
        <g
           id="g297"
           transform="rotate(-60,1,-1.7320508)">
          <g
             aria-label="10"
             transform="translate(-5.3,3.3)"
             style="font-weight:bold;font-size:9.33333302px;font-family:Roboto, sans-serif;fill:#333333"
             id="text295">
            <path
               d="m 1.09375,-1.2122395 h 1.5494791 v -4.3977864 l -1.5904948,0.328125 v -1.1940103 l 1.5813802,-0.328125 h 1.6679687 v 5.5917967 H 5.8515623 V 0 H 1.09375 Z"
               style="font-weight:bold;font-size:9.33333302px;font-family:Roboto, sans-serif;fill:#333333"
               id="path447" />
            <path
               d="m 10.782552,-3.4088541 q 0,-1.2760416 -0.241537,-1.7955728 -0.236979,-0.5240885 -0.8020831,-0.5240885 -0.5651042,0 -0.8066406,0.5240885 -0.2415365,0.5195312 -0.2415365,1.7955728 0,1.2897135 0.2415365,1.8183594 0.2415364,0.5286458 0.8066406,0.5286458 0.5605471,0 0.8020831,-0.5286458 0.241537,-0.5286459 0.241537,-1.8183594 z m 1.754557,0.013672 q 0,1.6907552 -0.729167,2.61132806 -0.729166,0.91601559 -2.0690101,0.91601559 -1.344401,0 -2.0735677,-0.91601559 Q 6.9361976,-1.704427 6.9361976,-3.3951822 q 0,-1.6953124 0.7291666,-2.611328 0.7291667,-0.9205729 2.0735677,-0.9205729 1.3398441,0 2.0690101,0.9205729 0.729167,0.9160156 0.729167,2.611328 z"
               style="font-weight:bold;font-size:9.33333302px;font-family:Roboto, sans-serif;fill:#333333"
               id="path449" />
          </g>
        </g>
      </g>
    </g>
  </g>
  <g
     id="use168"
     transform="matrix(0.75,0,0,0.75,145,285)">
    <g
       id="g249"
       transform="translate(50.5,50.5)">
      <g
         id="g205"
         transform="rotate(120,-15,8.660254)">
        <g
           id="g203"
           transform="rotate(-120,1,-0.57735027)">
          <g
             aria-label="0"
             transform="translate(-2.8,3.3)"
             style="font-weight:bold;font-size:9.33333302px;font-family:Roboto, sans-serif;fill:#333333"
             id="text201">
            <path
               d="m 4.2929686,-3.4088541 q 0,-1.2760416 -0.2415364,-1.7955728 -0.2369792,-0.5240885 -0.8020834,-0.5240885 -0.5651041,0 -0.8066405,0.5240885 -0.2415365,0.5195312 -0.2415365,1.7955728 0,1.2897135 0.2415365,1.8183594 0.2415364,0.5286458 0.8066405,0.5286458 0.5605469,0 0.8020834,-0.5286458 0.2415364,-0.5286459 0.2415364,-1.8183594 z m 1.7545572,0.013672 q 0,1.6907552 -0.7291666,2.61132806 -0.7291666,0.91601559 -2.0690104,0.91601559 -1.3444009,0 -2.0735676,-0.91601559 Q 0.44661457,-1.704427 0.44661457,-3.3951822 q 0,-1.6953124 0.72916663,-2.611328 0.7291667,-0.9205729 2.0735676,-0.9205729 1.3398438,0 2.0690104,0.9205729 0.7291666,0.9160156 0.7291666,2.611328 z"
               style="font-weight:bold;font-size:9.33333302px;font-family:Roboto, sans-serif;fill:#333333"
               id="path452" />
          </g>
        </g>
      </g>
      <g
         id="g209"
         transform="rotate(150,-15,4.0192379)">
        <path
           style="stroke:#333333;stroke-width:0.5"
           d="M 0,0 H 4"
           id="polyline207" />
      </g>
      <g
         id="g213"
         transform="rotate(-180,-15,0)">
        <path
           style="stroke:#333333;stroke-width:0.5"
           d="M 0,0 H 4"
           id="polyline211" />
      </g>
      <g
         id="g217"
         transform="rotate(-150,-15,-4.0192379)">
        <path
           style="stroke:#333333;stroke-width:0.5"
           d="M 0,0 H 5"
           id="polyline215" />
      </g>
      <g
         id="g221"
         transform="rotate(-120,-15,-8.660254)">
        <path
           style="stroke:#333333;stroke-width:0.5"
           d="M 0,0 H 4"
           id="polyline219" />
      </g>
      <g
         id="g225"
         transform="rotate(-90,-15,-15)">
        <path
           style="stroke:#333333;stroke-width:0.5"
           d="M 0,0 H 4"
           id="polyline223" />
      </g>
      <g
         id="g229"
         transform="rotate(-60,-15,-25.980762)">
        <path
           style="stroke:#333333;stroke-width:0.5"
           d="M 0,0 H 4"
           id="polyline227" />
      </g>
      <g
         id="g233"
         transform="rotate(-30,-15,-55.980762)">
        <path
           style="stroke:#333333;stroke-width:0.5"
           d="M 0,0 H 4"
           id="polyline231" />
      </g>
      <g
         id="g237"
         transform="translate(30)">
        <path
           style="stroke:#333333;stroke-width:0.5"
           d="M 0,0 H 4"
           id="polyline235" />
      </g>
      <g
         id="g241"
         transform="rotate(30,-15,55.980762)">
        <path
           style="stroke:#333333;stroke-width:0.5"
           d="M 0,0 H 4"
           id="polyline239" />
      </g>
      <g
         id="g247"
         transform="rotate(60,-15,25.980762)">
        <g
           id="g245"
           transform="rotate(-60,1,-1.7320508)">
          <g
             aria-label="10"
             transform="translate(-5.3,3.3)"
             style="font-weight:bold;font-size:9.33333302px;font-family:Roboto, sans-serif;fill:#333333"
             id="text243">
            <path
               d="m 1.09375,-1.2122395 h 1.5494791 v -4.3977864 l -1.5904948,0.328125 v -1.1940103 l 1.5813802,-0.328125 h 1.6679687 v 5.5917967 H 5.8515623 V 0 H 1.09375 Z"
               style="font-weight:bold;font-size:9.33333302px;font-family:Roboto, sans-serif;fill:#333333"
               id="path464" />
            <path
               d="m 10.782552,-3.4088541 q 0,-1.2760416 -0.241537,-1.7955728 -0.236979,-0.5240885 -0.8020831,-0.5240885 -0.5651042,0 -0.8066406,0.5240885 -0.2415365,0.5195312 -0.2415365,1.7955728 0,1.2897135 0.2415365,1.8183594 0.2415364,0.5286458 0.8066406,0.5286458 0.5605471,0 0.8020831,-0.5286458 0.241537,-0.5286459 0.241537,-1.8183594 z m 1.754557,0.013672 q 0,1.6907552 -0.729167,2.61132806 -0.729166,0.91601559 -2.0690101,0.91601559 -1.344401,0 -2.0735677,-0.91601559 Q 6.9361976,-1.704427 6.9361976,-3.3951822 q 0,-1.6953124 0.7291666,-2.611328 0.7291667,-0.9205729 2.0735677,-0.9205729 1.3398441,0 2.0690101,0.9205729 0.729167,0.9160156 0.729167,2.611328 z"
               style="font-weight:bold;font-size:9.33333302px;font-family:Roboto, sans-serif;fill:#333333"
               id="path466" />
          </g>
        </g>
      </g>
    </g>
  </g>
</svg>
