<?xml version="1.0" encoding="UTF-8" standalone="no"?>
<svg
   xmlns:dc="http://purl.org/dc/elements/1.1/"
   xmlns:cc="http://creativecommons.org/ns#"
   xmlns:rdf="http://www.w3.org/1999/02/22-rdf-syntax-ns#"
   xmlns:svg="http://www.w3.org/2000/svg"
   xmlns="http://www.w3.org/2000/svg"
   xmlns:sodipodi="http://sodipodi.sourceforge.net/DTD/sodipodi-0.dtd"
   xmlns:inkscape="http://www.inkscape.org/namespaces/inkscape"
   version="1.1"
   width="300"
   height="380"
   viewBox="0 0 300 380"
   id="svg166"
   sodipodi:docname="svg_render_tmp.svg"
   inkscape:version="0.92.2 5c3e80d, 2017-08-06">
  <metadata
     id="metadata170">
    <rdf:RDF>
      <cc:Work
         rdf:about="">
        <dc:format>image/svg+xml</dc:format>
        <dc:type
           rdf:resource="http://purl.org/dc/dcmitype/StillImage" />
      </cc:Work>
    </rdf:RDF>
  </metadata>
  <sodipodi:namedview
     pagecolor="#ffffff"
     bordercolor="#666666"
     borderopacity="1"
     objecttolerance="10"
     gridtolerance="10"
     guidetolerance="10"
     inkscape:pageopacity="0"
     inkscape:pageshadow="2"
     inkscape:window-width="468"
     inkscape:window-height="449"
     id="namedview168"
     showgrid="false"
     inkscape:zoom="0.62105263"
     inkscape:cx="150"
     inkscape:cy="190"
     inkscape:window-x="0"
     inkscape:window-y="0"
     inkscape:window-maximized="0"
     inkscape:current-layer="svg166" />
  <style
     id="style2">
    text {
      fill: #333;
      font-family: 'Roboto', sans-serif;
      font-weight: bold;
    }
    text.title {
      font-family: 'Comfortaa', sans-serif;
      font-weight: normal;
    }
    text.brand {
      font-family: 'Audiowide', sans-serif;
      font-weight: bold;
    }
  </style>
  <defs
     id="defs94">
    <symbol
       id="display"
       viewBox="0 0 280px 230px">
      <rect
         cx="0"
         cy="0"
         width="280"
         height="230"
         fill="#222"
         id="rect4" />
    </symbol>
    <symbol
       id="knob"
       viewBox="0 0 100px 100px">
      <g
         transform="translate(50.5 50.5)"
         id="g13">
        <polyline
           points="-20,0 20,0"
           stroke-width="1"
           stroke="#00f"
           id="polyline7" />
        <polyline
           points="0,-20 0,20"
           stroke-width="1"
           stroke="#00f"
           id="polyline9" />
        <circle
           cx="0"
           cy="0"
           r="49.8"
           stroke-width="1"
           stroke="#00f"
           fill="none"
           id="circle11" />
      </g>
    </symbol>
    <symbol
       id="knobguide"
       viewBox="0 0 100px 100px">
      <g
         transform="translate(50.5 50.5)"
         id="g64">
        <g
           transform="rotate(-240) translate(30 0)"
           id="g20">
          <g
             transform="translate(2 0) rotate(240)"
             id="g18">
            <text
               font-size="7pt"
               transform="translate(-2.8 3.3)"
               id="text16">0</text>
          </g>
        </g>
        <g
           transform="rotate(-210) translate(30 0)"
           id="g24">
          <polyline
             points="0,0 4,0"
             stroke-width="0.5"
             stroke="#333"
             id="polyline22" />
        </g>
        <g
           transform="rotate(-180) translate(30 0)"
           id="g28">
          <polyline
             points="0,0 4,0"
             stroke-width="0.5"
             stroke="#333"
             id="polyline26" />
        </g>
        <g
           transform="rotate(-150) translate(30 0)"
           id="g32">
          <polyline
             points="0,0 5,0"
             stroke-width="0.5"
             stroke="#333"
             id="polyline30" />
        </g>
        <g
           transform="rotate(-120) translate(30 0)"
           id="g36">
          <polyline
             points="0,0 4,0"
             stroke-width="0.5"
             stroke="#333"
             id="polyline34" />
        </g>
        <g
           transform="rotate(-90) translate(30 0)"
           id="g40">
          <polyline
             points="0,0 4,0"
             stroke-width="0.5"
             stroke="#333"
             id="polyline38" />
        </g>
        <g
           transform="rotate(-60) translate(30 0)"
           id="g44">
          <polyline
             points="0,0 4,0"
             stroke-width="0.5"
             stroke="#333"
             id="polyline42" />
        </g>
        <g
           transform="rotate(-30) translate(30 0)"
           id="g48">
          <polyline
             points="0,0 4,0"
             stroke-width="0.5"
             stroke="#333"
             id="polyline46" />
        </g>
        <g
           transform="rotate(0) translate(30 0)"
           id="g52">
          <polyline
             points="0,0 4,0"
             stroke-width="0.5"
             stroke="#333"
             id="polyline50" />
        </g>
        <g
           transform="rotate(30) translate(30 0)"
           id="g56">
          <polyline
             points="0,0 4,0"
             stroke-width="0.5"
             stroke="#333"
             id="polyline54" />
        </g>
        <g
           transform="rotate(60) translate(30 0)"
           id="g62">
          <g
             transform="translate(2 0) rotate(-60)"
             id="g60">
            <text
               font-size="7pt"
               transform="translate(-5.3 3.3)"
               id="text58">10</text>
          </g>
        </g>
      </g>
    </symbol>
    <symbol
       id="button"
       viewBox="0 0 100px 100px">
      <g
         transform="translate(50.5 50.5)"
         id="g69">
        <circle
           cx="0"
           cy="0"
           r="49.8"
           stroke-width="1"
           stroke="#00f"
           fill="#f00"
           id="circle67" />
      </g>
    </symbol>
    <symbol
       id="switch"
       viewBox="0 0 70px 100px">
      <polyline
         points="1,1 69,1 69,99 1,99 1,1"
         stroke="#000"
         stroke-width="3"
         fill="none"
         id="polyline72" />
      <rect
         x="0"
         y="0"
         width="70px"
         height="50px"
         stroke-width="0"
         fill="#000"
         id="rect74" />
    </symbol>
    <symbol
       id="input"
       viewBox="0 0 24px 24px">
      <g
         transform="translate(12 12)"
         id="g81">
        <circle
           cx="0"
           cy="0"
           r="5"
           stroke-width="1"
           stroke="#0f0"
           fill="#0f0"
           id="circle77" />
        <circle
           cx="0"
           cy="0"
           r="10.5"
           stroke-width="3"
           stroke="#0f0"
           fill="none"
           id="circle79" />
      </g>
    </symbol>
    <symbol
       id="output"
       viewBox="0 0 24px 24px">
      <g
         transform="translate(12 12)"
         id="g88">
        <circle
           cx="0"
           cy="0"
           r="5"
           stroke-width="1"
           stroke="#f00"
           fill="#f00"
           id="circle84" />
        <circle
           cx="0"
           cy="0"
           r="10.5"
           stroke-width="3"
           stroke="#f00"
           fill="none"
           id="circle86" />
      </g>
    </symbol>
    <symbol
       id="light"
       viewBox="0 0 1.1px 1.1px">
      <rect
         width="3.2"
         height="3.2"
         fill="#0f0"
         id="rect91" />
    </symbol>
  </defs>
  <path
     style="fill:#dddddd"
     d="M 0,0 H 300 V 380 H 0 Z"
     id="rect96" />
  <path
     style="fill:none;stroke:#e4e4e4;stroke-width:0.5"
     d="M 1,1 H 299 V 379 H 1 V 1"
     id="polyline98" />
  <path
     style="fill:none;stroke:#ebebeb;stroke-width:0.80000001"
     d="m 0.5,0.5 h 299 v 379 H 0.5 V 0.5"
     id="polyline100" />
  <path
     style="fill:none;stroke:#f2f2f2;stroke-width:1"
     d="M 0,0 H 300 V 380 H 0 V 0"
     id="polyline102" />
  <g
     aria-label="ANALYZER"
     style="font-weight:normal;font-size:16px;font-family:Comfortaa, sans-serif;letter-spacing:4px;fill:#333333"
     id="text104">
    <path
       d="m 103.476,18.12 q 0.064,0.112 0.064,0.256 0,0.256 -0.192,0.448 Q 103.172,19 102.916,19 102.5,19 102.324,18.616 l -1.072,-2.592 H 95.06 l -1.072,2.592 Q 93.86,19 93.412,19 q -0.272,0 -0.448,-0.176 -0.16,-0.192 -0.16,-0.448 0,-0.16 0.048,-0.272 L 97.556,6.936 q 0.176,-0.432 0.608,-0.432 0.432,0 0.592,0.432 z m -2.656,-3.168 -2.656,-6.416 -2.656,6.416 z"
       style="font-weight:normal;font-size:16px;font-family:Comfortaa, sans-serif;letter-spacing:4px;fill:#333333"
       id="path308" />
    <path
       d="m 109.974,19 q -0.272,0 -0.448,-0.176 -0.176,-0.176 -0.176,-0.448 V 7.128 q 0,-0.272 0.176,-0.448 0.176,-0.176 0.448,-0.176 0.288,0 0.48,0.224 l 7.648,10.048 V 7.128 q 0,-0.272 0.176,-0.448 0.192,-0.176 0.448,-0.176 0.272,0 0.448,0.176 0.176,0.176 0.176,0.448 v 11.248 q 0,0.256 -0.176,0.448 -0.176,0.176 -0.448,0.176 -0.32,0 -0.464,-0.208 L 110.598,8.744 v 9.632 q 0,0.256 -0.176,0.448 Q 110.246,19 109.974,19 Z"
       style="font-weight:normal;font-size:16px;font-family:Comfortaa, sans-serif;letter-spacing:4px;fill:#333333"
       id="path310" />
    <path
       d="m 135.9135,18.12 q 0.064,0.112 0.064,0.256 0,0.256 -0.192,0.448 -0.176,0.176 -0.432,0.176 -0.416,0 -0.592,-0.384 l -1.072,-2.592 h -6.192 l -1.072,2.592 q -0.128,0.384 -0.576,0.384 -0.272,0 -0.448,-0.176 -0.16,-0.192 -0.16,-0.448 0,-0.16 0.048,-0.272 l 4.704,-11.168 q 0.176,-0.432 0.608,-0.432 0.432,0 0.592,0.432 z m -2.656,-3.168 -2.656,-6.416 -2.656,6.416 z"
       style="font-weight:normal;font-size:16px;font-family:Comfortaa, sans-serif;letter-spacing:4px;fill:#333333"
       id="path312" />
    <path
       d="m 142.4115,19 q -0.256,0 -0.448,-0.176 -0.176,-0.192 -0.176,-0.448 V 7.128 q 0,-0.256 0.176,-0.432 0.192,-0.192 0.448,-0.192 0.272,0 0.448,0.176 0.176,0.176 0.176,0.448 v 10.688 h 6.256 q 0.272,0 0.448,0.176 0.176,0.16 0.176,0.416 0,0.256 -0.176,0.432 -0.176,0.16 -0.448,0.16 z"
       style="font-weight:normal;font-size:16px;font-family:Comfortaa, sans-serif;letter-spacing:4px;fill:#333333"
       id="path314" />
    <path
       d="m 161.96275,6.504 q 0.24,0 0.384,0.176 0.16,0.16 0.16,0.4 0,0.224 -0.112,0.4 l -4.368,6.896 v 4 q 0,0.256 -0.176,0.448 -0.176,0.176 -0.448,0.176 -0.256,0 -0.448,-0.176 -0.176,-0.192 -0.176,-0.448 v -4 l -4.352,-6.896 q -0.128,-0.208 -0.128,-0.4 0,-0.24 0.176,-0.4 0.176,-0.176 0.432,-0.176 0.176,0 0.288,0.08 0.128,0.064 0.24,0.224 l 3.984,6.416 3.968,-6.384 q 0.128,-0.176 0.256,-0.256 0.128,-0.08 0.32,-0.08 z"
       style="font-weight:normal;font-size:16px;font-family:Comfortaa, sans-serif;letter-spacing:4px;fill:#333333"
       id="path316" />
    <path
       d="m 168.00175,19 q -0.272,0 -0.448,-0.192 -0.176,-0.192 -0.176,-0.432 0,-0.24 0.128,-0.384 l 8.272,-10.368 h -7.712 q -0.288,0 -0.448,-0.144 -0.16,-0.144 -0.16,-0.4 0,-0.24 0.176,-0.4 0.176,-0.176 0.448,-0.176 h 8.672 q 0.288,0 0.448,0.192 0.176,0.192 0.176,0.448 0,0.208 -0.112,0.336 l -8.304,10.4 h 7.792 q 0.272,0 0.448,0.16 0.176,0.144 0.176,0.4 0,0.24 -0.176,0.4 -0.176,0.16 -0.448,0.16 z"
       style="font-weight:normal;font-size:16px;font-family:Comfortaa, sans-serif;letter-spacing:4px;fill:#333333"
       id="path318" />
    <path
       d="m 184.4115,19 q -0.256,0 -0.448,-0.176 -0.176,-0.192 -0.176,-0.448 V 7.128 q 0,-0.272 0.176,-0.448 0.192,-0.176 0.448,-0.176 h 7.504 q 0.272,0 0.448,0.176 0.176,0.176 0.176,0.432 0,0.256 -0.176,0.432 -0.176,0.16 -0.448,0.16 h -6.88 v 4.416 h 5.008 q 0.272,0 0.448,0.176 0.176,0.176 0.176,0.432 0,0.256 -0.192,0.432 -0.176,0.176 -0.432,0.176 h -5.008 V 17.8 h 6.88 q 0.272,0 0.448,0.176 0.176,0.16 0.176,0.416 0,0.256 -0.176,0.432 -0.176,0.176 -0.448,0.176 z"
       style="font-weight:normal;font-size:16px;font-family:Comfortaa, sans-serif;letter-spacing:4px;fill:#333333"
       id="path320" />
    <path
       d="m 206.658,18.04 q 0.144,0.24 0.144,0.432 0,0.24 -0.176,0.384 Q 206.45,19 206.162,19 q -0.192,0 -0.32,-0.08 -0.128,-0.08 -0.224,-0.24 l -2.88,-4.576 h -0.272 -2.368 v 4.272 q 0,0.272 -0.176,0.448 -0.176,0.176 -0.448,0.176 -0.272,0 -0.448,-0.176 -0.176,-0.176 -0.176,-0.448 V 7.128 q 0,-0.272 0.176,-0.448 0.176,-0.176 0.448,-0.176 h 2.992 q 1.168,0 2.08,0.496 0.912,0.48 1.424,1.36 0.528,0.88 0.528,2 0,1.232 -0.672,2.16 -0.656,0.928 -1.792,1.328 z m -4.192,-5.136 q 0.8,0 1.44,-0.32 0.656,-0.336 1.008,-0.912 0.368,-0.576 0.368,-1.312 0,-0.768 -0.368,-1.376 -0.352,-0.608 -0.992,-0.944 -0.64,-0.336 -1.456,-0.336 h -2.368 v 5.2 z"
       style="font-weight:normal;font-size:16px;font-family:Comfortaa, sans-serif;letter-spacing:4px;fill:#333333"
       id="path322" />
  </g>
  <g
     aria-label="BOGAUDIO"
     style="font-weight:bold;font-size:10.66666698px;font-family:Audiowide, sans-serif;letter-spacing:2px;fill:#333333"
     id="text106">
    <path
       d="m 120.73958,372.35937 q 0,0.25 -0.0885,0.53646 -0.0833,0.28646 -0.28125,0.53125 -0.19271,0.24479 -0.50521,0.41146 Q 119.55208,374 119.09896,374 h -5.14063 q -0.14583,0 -0.27083,-0.0521 -0.125,-0.0521 -0.21875,-0.14063 -0.0885,-0.0937 -0.14062,-0.21875 -0.0521,-0.125 -0.0521,-0.27083 v -6.10417 q 0,-0.14062 0.0521,-0.26562 0.0521,-0.125 0.14062,-0.21875 0.0937,-0.0937 0.21875,-0.14584 0.125,-0.0521 0.27083,-0.0521 h 4.53125 q 0.25,0 0.53646,0.0885 0.28646,0.0885 0.53125,0.28646 0.25,0.19271 0.41146,0.50521 0.16667,0.3125 0.16667,0.76562 v 0.25521 q 0,0.35938 -0.11979,0.77604 -0.1198,0.41146 -0.38542,0.78125 0.22917,0.14063 0.42708,0.33854 0.20313,0.19792 0.35417,0.45834 0.15104,0.26041 0.23958,0.58854 0.0885,0.32812 0.0885,0.72396 z m -1.35416,-0.26041 q 0,-0.26563 -0.0833,-0.47396 -0.0833,-0.21354 -0.23437,-0.36458 -0.15104,-0.15105 -0.36458,-0.22917 -0.21355,-0.0833 -0.47917,-0.0833 h -3.05208 v -1.36459 h 2.4427 q 0.26563,0 0.47917,-0.0781 0.21354,-0.0833 0.36458,-0.23438 0.15105,-0.15104 0.22917,-0.35937 0.0833,-0.21354 0.0833,-0.47917 v -0.25521 q 0,-0.29166 -0.28125,-0.29166 h -3.85937 v 4.76041 h 4.46875 q 0.0365,0 0.0885,-0.005 0.0521,-0.005 0.0937,-0.0312 0.0417,-0.026 0.0729,-0.0885 0.0312,-0.0625 0.0312,-0.17187 z"
       style="font-weight:bold;font-size:10.66666698px;font-family:Audiowide, sans-serif;letter-spacing:2px;fill:#333333"
       id="path325" />
    <path
       d="m 131.75,370.97917 q 0,0.68229 -0.23437,1.2552 -0.23438,0.57292 -0.65105,0.98959 -0.41666,0.41666 -0.98958,0.65104 -0.56771,0.22917 -1.23958,0.22917 h -1.83334 q -0.67187,0 -1.24479,-0.22917 -0.57291,-0.23438 -0.98958,-0.65104 -0.41667,-0.41667 -0.65625,-0.98959 -0.23438,-0.57291 -0.23438,-1.2552 v -1.42709 q 0,-0.67708 0.23438,-1.25 0.23958,-0.57812 0.65625,-0.98958 0.41667,-0.41667 0.98958,-0.65104 0.57292,-0.23438 1.24479,-0.23438 h 1.83334 q 0.67187,0 1.23958,0.23438 0.57292,0.23437 0.98958,0.65104 0.41667,0.41146 0.65105,0.98958 0.23437,0.57292 0.23437,1.25 z m -1.35417,-1.42709 q 0,-0.40104 -0.1302,-0.72396 -0.125,-0.32812 -0.35938,-0.55729 -0.22917,-0.23437 -0.55729,-0.35937 -0.32292,-0.13021 -0.71354,-0.13021 h -1.83334 q -0.39583,0 -0.72395,0.13021 -0.32292,0.125 -0.5573,0.35937 -0.23437,0.22917 -0.36458,0.55729 -0.125,0.32292 -0.125,0.72396 v 1.42709 q 0,0.40104 0.125,0.72916 0.13021,0.32292 0.36458,0.55729 0.23438,0.22917 0.5573,0.35938 0.32812,0.125 0.72395,0.125 h 1.82292 q 0.39583,0 0.71875,-0.125 0.32813,-0.13021 0.5625,-0.35938 0.23438,-0.23437 0.35938,-0.55729 0.1302,-0.32812 0.1302,-0.72916 z"
       style="font-weight:bold;font-size:10.66666698px;font-family:Audiowide, sans-serif;letter-spacing:2px;fill:#333333"
       id="path327" />
    <path
       d="m 142.46875,373.31771 q 0,0.14583 -0.0521,0.27083 -0.0521,0.125 -0.14584,0.21875 -0.0885,0.0885 -0.21354,0.14063 -0.125,0.0521 -0.27083,0.0521 h -4.88542 q -0.1875,0 -0.40625,-0.0417 -0.21354,-0.0469 -0.42708,-0.14062 -0.20833,-0.0937 -0.40104,-0.23959 -0.19271,-0.15104 -0.34375,-0.35937 -0.14584,-0.21354 -0.23438,-0.48958 Q 135,372.44792 135,372.09896 v -3.66667 q 0,-0.1875 0.0417,-0.40104 0.0469,-0.21875 0.14062,-0.42708 0.0937,-0.21355 0.24479,-0.40625 0.15105,-0.19271 0.35938,-0.33855 0.21354,-0.15104 0.48958,-0.23958 0.27604,-0.0885 0.625,-0.0885 h 5.50521 v 1.35417 h -5.50521 q -0.26562,0 -0.40625,0.14062 -0.14062,0.14063 -0.14062,0.41667 v 3.65625 q 0,0.26041 0.14062,0.40625 0.14584,0.14062 0.40625,0.14062 h 4.21354 v -1.69791 h -3.60416 v -1.36459 h 4.27604 q 0.14583,0 0.27083,0.0573 0.125,0.0521 0.21354,0.14584 0.0937,0.0937 0.14584,0.21875 0.0521,0.11979 0.0521,0.26041 z"
       style="font-weight:bold;font-size:10.66666698px;font-family:Audiowide, sans-serif;letter-spacing:2px;fill:#333333"
       id="path329" />
    <path
       d="m 153.21875,374 h -1.35417 v -1.83333 h -4.76041 V 374 H 145.75 v -3.73438 q 0,-0.8177 0.28125,-1.5052 0.28125,-0.6875 0.78125,-1.1823 0.5,-0.49479 1.18229,-0.77083 0.68229,-0.27604 1.48959,-0.27604 h 3.05208 q 0.14062,0 0.26562,0.0521 0.125,0.0521 0.21875,0.14584 0.0937,0.0937 0.14584,0.21875 0.0521,0.125 0.0521,0.26562 z m -6.11458,-3.1875 h 4.76041 v -2.92708 h -2.3802 q -0.0625,0 -0.26563,0.0208 -0.19792,0.0156 -0.46354,0.0885 -0.26042,0.0729 -0.55208,0.22396 -0.29167,0.15104 -0.53646,0.41667 -0.24479,0.26562 -0.40625,0.66666 -0.15625,0.39584 -0.15625,0.96354 z"
       style="font-weight:bold;font-size:10.66666698px;font-family:Audiowide, sans-serif;letter-spacing:2px;fill:#333333"
       id="path331" />
    <path
       d="m 164.10417,373.31771 q 0,0.14583 -0.0521,0.27083 -0.0521,0.125 -0.14583,0.21875 -0.0937,0.0885 -0.21875,0.14063 Q 163.5625,374 163.42188,374 h -3.05209 q -0.43229,0 -0.875,-0.0937 -0.44271,-0.0937 -0.85937,-0.28646 -0.41146,-0.19792 -0.77604,-0.5 -0.36459,-0.30208 -0.64063,-0.71354 -0.27083,-0.41667 -0.42708,-0.94792 -0.15625,-0.53646 -0.15625,-1.19271 v -3.73437 h 1.35416 v 3.73437 q 0,0.57292 0.15625,0.96875 0.16146,0.39584 0.40625,0.66146 0.2448,0.26563 0.53646,0.41667 0.29167,0.15104 0.55209,0.22396 0.26562,0.0729 0.46354,0.0937 0.20312,0.0156 0.26562,0.0156 H 162.75 v -6.11458 h 1.35417 z"
       style="font-weight:bold;font-size:10.66666698px;font-family:Audiowide, sans-serif;letter-spacing:2px;fill:#333333"
       id="path333" />
    <path
       d="m 175.13542,370.875 q 0,0.68229 -0.23958,1.25521 -0.23438,0.57291 -0.65105,0.98958 -0.41666,0.41146 -0.98958,0.64583 Q 172.68229,374 172.01042,374 h -3.65625 q -0.14583,0 -0.27083,-0.0521 -0.125,-0.0521 -0.21875,-0.14063 -0.0885,-0.0937 -0.14063,-0.21875 -0.0521,-0.125 -0.0521,-0.27083 v -6.10417 q 0,-0.14062 0.0521,-0.26562 0.0521,-0.125 0.14063,-0.21875 0.0937,-0.0937 0.21875,-0.14584 0.125,-0.0521 0.27083,-0.0521 h 3.65625 q 0.67187,0 1.24479,0.23437 0.57292,0.23438 0.98958,0.65105 0.41667,0.41145 0.65105,0.98958 0.23958,0.57292 0.23958,1.25 z m -1.35417,-1.21875 q 0,-0.39583 -0.13021,-0.72396 -0.125,-0.32812 -0.35937,-0.55729 -0.23438,-0.23438 -0.5625,-0.35938 -0.32292,-0.1302 -0.71875,-0.1302 h -2.98438 v 4.76041 h 2.98438 q 0.39583,0 0.71875,-0.125 0.32812,-0.13021 0.5625,-0.35937 0.23437,-0.23438 0.35937,-0.55729 0.13021,-0.32813 0.13021,-0.72917 z"
       style="font-weight:bold;font-size:10.66666698px;font-family:Audiowide, sans-serif;letter-spacing:2px;fill:#333333"
       id="path335" />
    <path
       d="m 179.83854,374 h -1.35416 v -7.46875 h 1.35416 z"
       style="font-weight:bold;font-size:10.66666698px;font-family:Audiowide, sans-serif;letter-spacing:2px;fill:#333333"
       id="path337" />
    <path
       d="m 191.27084,370.97917 q 0,0.68229 -0.23438,1.2552 -0.23437,0.57292 -0.65104,0.98959 -0.41667,0.41666 -0.98958,0.65104 -0.56771,0.22917 -1.23959,0.22917 h -1.83333 q -0.67188,0 -1.24479,-0.22917 -0.57292,-0.23438 -0.98959,-0.65104 -0.41666,-0.41667 -0.65625,-0.98959 -0.23437,-0.57291 -0.23437,-1.2552 v -1.42709 q 0,-0.67708 0.23437,-1.25 0.23959,-0.57812 0.65625,-0.98958 0.41667,-0.41667 0.98959,-0.65104 0.57291,-0.23438 1.24479,-0.23438 h 1.83333 q 0.67188,0 1.23959,0.23438 0.57291,0.23437 0.98958,0.65104 0.41667,0.41146 0.65104,0.98958 0.23438,0.57292 0.23438,1.25 z m -1.35417,-1.42709 q 0,-0.40104 -0.13021,-0.72396 -0.125,-0.32812 -0.35937,-0.55729 -0.22917,-0.23437 -0.5573,-0.35937 -0.32291,-0.13021 -0.71354,-0.13021 h -1.83333 q -0.39583,0 -0.72396,0.13021 -0.32292,0.125 -0.55729,0.35937 -0.23438,0.22917 -0.36458,0.55729 -0.125,0.32292 -0.125,0.72396 v 1.42709 q 0,0.40104 0.125,0.72916 0.1302,0.32292 0.36458,0.55729 0.23437,0.22917 0.55729,0.35938 0.32813,0.125 0.72396,0.125 h 1.82292 q 0.39583,0 0.71875,-0.125 0.32812,-0.13021 0.5625,-0.35938 0.23437,-0.23437 0.35937,-0.55729 0.13021,-0.32812 0.13021,-0.72916 z"
       style="font-weight:bold;font-size:10.66666698px;font-family:Audiowide, sans-serif;letter-spacing:2px;fill:#333333"
       id="path339" />
  </g>
  <path
     style="fill:#dddddd"
     d="m 136.5,369 h 3 v 3 h -3 z"
     id="rect108" />
  <g
     aria-label="CH A"
     transform="rotate(-90)"
     style="font-weight:bold;font-size:10.66666698px;font-family:Roboto, sans-serif;letter-spacing:2px;fill:#333333"
     id="text114">
    <path
       d="m -299.86979,16.473958 q -0.0885,1.223959 -0.90625,1.927084 -0.8125,0.703125 -2.14583,0.703125 -1.45834,0 -2.29688,-0.979167 -0.83333,-0.984375 -0.83333,-2.697917 v -0.463541 q 0,-1.09375 0.38541,-1.927084 0.38542,-0.833333 1.09896,-1.276042 0.71875,-0.447916 1.66667,-0.447916 1.3125,0 2.11458,0.703125 0.80209,0.703125 0.92709,1.973958 h -1.5625 q -0.0573,-0.734375 -0.41146,-1.0625 -0.34896,-0.333333 -1.06771,-0.333333 -0.78125,0 -1.17188,0.5625 -0.38541,0.557292 -0.39583,1.734375 v 0.572917 q 0,1.229166 0.36979,1.796875 0.375,0.567708 1.17709,0.567708 0.72395,0 1.07812,-0.328125 0.35938,-0.333333 0.41146,-1.026042 z"
       style="font-weight:bold;font-size:10.66666698px;font-family:Roboto, sans-serif;letter-spacing:2px;fill:#333333"
       id="path343" />
    <path
       d="m -290.67187,19 h -1.5625 v -3.25 h -3.04688 V 19 h -1.5625 v -7.583334 h 1.5625 v 3.072917 h 3.04688 v -3.072917 h 1.5625 z"
       style="font-weight:bold;font-size:10.66666698px;font-family:Roboto, sans-serif;letter-spacing:2px;fill:#333333"
       id="path345" />
    <path
       d="m -278.35417,17.4375 h -2.73958 L -281.61458,19 h -1.66146 l 2.82292,-7.583334 h 1.44791 L -276.16667,19 h -1.66145 z m -2.3177,-1.265625 h 1.89583 l -0.95313,-2.838542 z"
       style="font-weight:bold;font-size:10.66666698px;font-family:Roboto, sans-serif;letter-spacing:2px;fill:#333333"
       id="path347" />
  </g>
  <g
     id="g126"
     transform="translate(25,270)">
    <path
       style="fill:#fafafa"
       d="m 5,0 h 48 c 2.77,0 5,2.23 5,5 v 30 c 0,2.77 -2.23,5 -5,5 H 5 C 2.23,40 0,37.77 0,35 V 5 C 0,2.23 2.23,0 5,0 Z"
       id="rect116" />
    <path
       transform="translate(38)"
       style="fill:#bbbbbb"
       d="m 5,0 h 10 c 2.77,0 5,2.23 5,5 v 30 c 0,2.77 -2.23,5 -5,5 H 5 C 2.23,40 0,37.77 0,35 V 5 C 0,2.23 2.23,0 5,0 Z"
       id="rect118" />
    <path
       transform="translate(29)"
       style="fill:#bbbbbb"
       d="M 0,0 H 20 V 40 H 0 Z"
       id="rect120" />
    <g
       aria-label="IN"
       transform="translate(10,36)"
       style="font-weight:bold;font-size:8px;font-family:Roboto, sans-serif;letter-spacing:2px;fill:#333333"
       id="text122">
      <path
         d="M 1.7539062,0 H 0.58203125 V -5.6875 H 1.7539062 Z"
         style="font-weight:bold;font-size:8px;font-family:Roboto, sans-serif;letter-spacing:2px;fill:#333333"
         id="path353" />
      <path
         d="m 9.4609375,0 h -1.171875 l -2.28125,-3.7421875 V 0 h -1.171875 v -5.6875 h 1.171875 l 2.2851563,3.75 v -3.75 h 1.1679687 z"
         style="font-weight:bold;font-size:8px;font-family:Roboto, sans-serif;letter-spacing:2px;fill:#333333"
         id="path355" />
    </g>
    <g
       aria-label="OUT"
       transform="translate(33,36)"
       style="font-weight:bold;font-size:8px;font-family:Roboto, sans-serif;letter-spacing:2px;fill:#333333"
       id="text124">
      <path
         d="m 5.1796875,-2.7148438 q 0,0.8398438 -0.296875,1.4726563 -0.296875,0.6328125 -0.8515625,0.9765625 -0.5507812,0.34375 -1.265625,0.34375 -0.7070312,0 -1.2617188,-0.33984375 Q 0.94921875,-0.6015625 0.64453125,-1.2304687 0.33984375,-1.8632812 0.3359375,-2.6835938 v -0.28125 q 0,-0.8398437 0.30078125,-1.4765624 0.3046875,-0.640625 0.85546875,-0.9804688 0.5546875,-0.34375 1.265625,-0.34375 0.7109375,0 1.2617187,0.34375 0.5546875,0.3398438 0.8554688,0.9804688 0.3046875,0.6367187 0.3046875,1.4726562 z m -1.1875,-0.2578125 q 0,-0.8945312 -0.3203125,-1.3593749 -0.3203125,-0.4648438 -0.9140625,-0.4648438 -0.5898437,0 -0.9101563,0.4609375 -0.3203125,0.4570312 -0.3242187,1.34375 v 0.2773437 q 0,0.8710938 0.3203125,1.3515626 0.3203125,0.4804687 0.921875,0.4804687 0.5898438,0 0.90625,-0.4609375 0.3164063,-0.4648437 0.3203125,-1.3515625 z"
         style="font-weight:bold;font-size:8px;font-family:Roboto, sans-serif;letter-spacing:2px;fill:#333333"
         id="path358" />
      <path
         d="m 12.34375,-5.6875 v 3.7460938 q 0,0.9335937 -0.585937,1.47656245 -0.582032,0.54296875 -1.59375,0.54296875 -0.9960942,0 -1.5820317,-0.52734375 Q 7.9960937,-0.9765625 7.984375,-1.8984375 V -5.6875 H 9.15625 v 3.7539063 q 0,0.5585937 0.265625,0.8164062 0.2695313,0.25390625 0.742188,0.25390625 0.988281,0 1.003906,-1.03906245 V -5.6875 Z"
         style="font-weight:bold;font-size:8px;font-family:Roboto, sans-serif;letter-spacing:2px;fill:#333333"
         id="path360" />
      <path
         d="M 19.585937,-4.7382812 H 17.84375 V 0 h -1.171875 v -4.7382812 h -1.71875 V -5.6875 h 4.632812 z"
         style="font-weight:bold;font-size:8px;font-family:Roboto, sans-serif;letter-spacing:2px;fill:#333333"
         id="path362" />
    </g>
  </g>
  <!-- <polyline points="10,0 10,380" stroke="#0f0" stroke-width="1" /> -->
  <!-- <polyline points="290,0 290,380" stroke="#0f0" stroke-width="1" /> -->
  <!-- <polyline points="0,315.5 300,315.5" stroke="#0f0" stroke-width="1" /> -->
  <g
     aria-label="CH B"
     transform="rotate(-90)"
     style="font-weight:bold;font-size:10.66666698px;font-family:Roboto, sans-serif;letter-spacing:2px;fill:#333333"
     id="text130">
    <path
       d="m -349.86979,16.473958 q -0.0885,1.223959 -0.90625,1.927084 -0.8125,0.703125 -2.14583,0.703125 -1.45834,0 -2.29688,-0.979167 -0.83333,-0.984375 -0.83333,-2.697917 v -0.463541 q 0,-1.09375 0.38541,-1.927084 0.38542,-0.833333 1.09896,-1.276042 0.71875,-0.447916 1.66667,-0.447916 1.3125,0 2.11458,0.703125 0.80209,0.703125 0.92709,1.973958 h -1.5625 q -0.0573,-0.734375 -0.41146,-1.0625 -0.34896,-0.333333 -1.06771,-0.333333 -0.78125,0 -1.17188,0.5625 -0.38541,0.557292 -0.39583,1.734375 v 0.572917 q 0,1.229166 0.36979,1.796875 0.375,0.567708 1.17709,0.567708 0.72395,0 1.07812,-0.328125 0.35938,-0.333333 0.41146,-1.026042 z"
       style="font-weight:bold;font-size:10.66666698px;font-family:Roboto, sans-serif;letter-spacing:2px;fill:#333333"
       id="path248" />
    <path
       d="m -340.67187,19 h -1.5625 v -3.25 h -3.04688 V 19 h -1.5625 v -7.583334 h 1.5625 v 3.072917 h 3.04688 v -3.072917 h 1.5625 z"
       style="font-weight:bold;font-size:10.66666698px;font-family:Roboto, sans-serif;letter-spacing:2px;fill:#333333"
       id="path250" />
    <path
       d="m -332.63542,19 v -7.583334 h 2.65625 q 1.38021,0 2.09375,0.53125 0.71355,0.526042 0.71355,1.546876 0,0.557291 -0.28646,0.984375 -0.28646,0.421875 -0.79688,0.619791 0.58334,0.145834 0.91667,0.588542 0.33854,0.442708 0.33854,1.083333 0,1.09375 -0.69792,1.65625 -0.69791,0.5625 -1.98958,0.572917 z m 1.5625,-3.302083 v 2.046875 h 1.33855 q 0.55208,0 0.85937,-0.260417 0.3125,-0.265625 0.3125,-0.729167 0,-1.041666 -1.07812,-1.057291 z m 0,-1.104167 h 1.15625 q 1.1823,-0.02083 1.1823,-0.942708 0,-0.515626 -0.30209,-0.739584 -0.29687,-0.229167 -0.94271,-0.229167 h -1.09375 z"
       style="font-weight:bold;font-size:10.66666698px;font-family:Roboto, sans-serif;letter-spacing:2px;fill:#333333"
       id="path252" />
  </g>
  <g
     id="g142"
     transform="translate(25,320)">
    <path
       style="fill:#fafafa"
       d="m 5,0 h 48 c 2.77,0 5,2.23 5,5 v 30 c 0,2.77 -2.23,5 -5,5 H 5 C 2.23,40 0,37.77 0,35 V 5 C 0,2.23 2.23,0 5,0 Z"
       id="rect132" />
    <path
       transform="translate(38)"
       style="fill:#bbbbbb"
       d="m 5,0 h 10 c 2.77,0 5,2.23 5,5 v 30 c 0,2.77 -2.23,5 -5,5 H 5 C 2.23,40 0,37.77 0,35 V 5 C 0,2.23 2.23,0 5,0 Z"
       id="rect134" />
    <path
       transform="translate(29)"
       style="fill:#bbbbbb"
       d="M 0,0 H 20 V 40 H 0 Z"
       id="rect136" />
    <g
       aria-label="IN"
       transform="translate(10,36)"
       style="font-weight:bold;font-size:8px;font-family:Roboto, sans-serif;letter-spacing:2px;fill:#333333"
       id="text138">
      <path
         d="M 1.7539062,0 H 0.58203125 V -5.6875 H 1.7539062 Z"
         style="font-weight:bold;font-size:8px;font-family:Roboto, sans-serif;letter-spacing:2px;fill:#333333"
         id="path258" />
      <path
         d="m 9.4609375,0 h -1.171875 l -2.28125,-3.7421875 V 0 h -1.171875 v -5.6875 h 1.171875 l 2.2851563,3.75 v -3.75 h 1.1679687 z"
         style="font-weight:bold;font-size:8px;font-family:Roboto, sans-serif;letter-spacing:2px;fill:#333333"
         id="path260" />
    </g>
    <g
       aria-label="OUT"
       transform="translate(33,36)"
       style="font-weight:bold;font-size:8px;font-family:Roboto, sans-serif;letter-spacing:2px;fill:#333333"
       id="text140">
      <path
         d="m 5.1796875,-2.7148438 q 0,0.8398438 -0.296875,1.4726563 -0.296875,0.6328125 -0.8515625,0.9765625 -0.5507812,0.34375 -1.265625,0.34375 -0.7070312,0 -1.2617188,-0.33984375 Q 0.94921875,-0.6015625 0.64453125,-1.2304687 0.33984375,-1.8632812 0.3359375,-2.6835938 v -0.28125 q 0,-0.8398437 0.30078125,-1.4765624 0.3046875,-0.640625 0.85546875,-0.9804688 0.5546875,-0.34375 1.265625,-0.34375 0.7109375,0 1.2617187,0.34375 0.5546875,0.3398438 0.8554688,0.9804688 0.3046875,0.6367187 0.3046875,1.4726562 z m -1.1875,-0.2578125 q 0,-0.8945312 -0.3203125,-1.3593749 -0.3203125,-0.4648438 -0.9140625,-0.4648438 -0.5898437,0 -0.9101563,0.4609375 -0.3203125,0.4570312 -0.3242187,1.34375 v 0.2773437 q 0,0.8710938 0.3203125,1.3515626 0.3203125,0.4804687 0.921875,0.4804687 0.5898438,0 0.90625,-0.4609375 0.3164063,-0.4648437 0.3203125,-1.3515625 z"
         style="font-weight:bold;font-size:8px;font-family:Roboto, sans-serif;letter-spacing:2px;fill:#333333"
         id="path263" />
      <path
         d="m 12.34375,-5.6875 v 3.7460938 q 0,0.9335937 -0.585937,1.47656245 -0.582032,0.54296875 -1.59375,0.54296875 -0.9960942,0 -1.5820317,-0.52734375 Q 7.9960937,-0.9765625 7.984375,-1.8984375 V -5.6875 H 9.15625 v 3.7539063 q 0,0.5585937 0.265625,0.8164062 0.2695313,0.25390625 0.742188,0.25390625 0.988281,0 1.003906,-1.03906245 V -5.6875 Z"
         style="font-weight:bold;font-size:8px;font-family:Roboto, sans-serif;letter-spacing:2px;fill:#333333"
         id="path265" />
      <path
         d="M 19.585937,-4.7382812 H 17.84375 V 0 h -1.171875 v -4.7382812 h -1.71875 V -5.6875 h 4.632812 z"
         style="font-weight:bold;font-size:8px;font-family:Roboto, sans-serif;letter-spacing:2px;fill:#333333"
         id="path267" />
    </g>
  </g>
  <g
     id="g148"
     transform="translate(100,303.5)">
    <g
       aria-label="RANGE"
       transform="translate(-2,-12)"
       style="font-weight:bold;font-size:10.66666698px;font-family:Roboto, sans-serif;letter-spacing:2px;fill:#333333"
       id="text146">
      <path
         d="M 3.4843751,-2.7760417 H 2.2395834 V 0 H 0.67708335 V -7.5833336 H 3.4947918 q 1.34375,0 2.0729167,0.5989584 0.7291667,0.5989583 0.7291667,1.6927084 0,0.7760417 -0.3385417,1.296875 -0.3333333,0.515625 -1.015625,0.8229167 l 1.640625,3.09895843 V 0 H 4.9062501 Z M 2.2395834,-4.0416668 h 1.2604167 q 0.5885417,0 0.9114584,-0.296875 0.3229166,-0.3020833 0.3229166,-0.828125 0,-0.5364584 -0.3072916,-0.84375 Q 4.1250001,-6.3177085 3.4947918,-6.3177085 H 2.2395834 Z"
         style="font-weight:bold;font-size:10.66666698px;font-family:Roboto, sans-serif;letter-spacing:2px;fill:#333333"
         id="path270" />
      <path
         d="M 13.770833,-1.5625 H 11.03125 L 10.510417,0 H 8.8489583 l 2.8229167,-7.5833336 h 1.447917 L 15.958334,0 h -1.661459 z m -2.317708,-1.2656251 h 1.895833 l -0.953125,-2.8385417 z"
         style="font-weight:bold;font-size:10.66666698px;font-family:Roboto, sans-serif;letter-spacing:2px;fill:#333333"
         id="path272" />
      <path
         d="m 24.84375,0 h -1.5625 L 20.239583,-4.9895835 V 0 h -1.5625 v -7.5833336 h 1.5625 l 3.046875,5.0000002 v -5.0000002 h 1.557292 z"
         style="font-weight:bold;font-size:10.66666698px;font-family:Roboto, sans-serif;letter-spacing:2px;fill:#333333"
         id="path274" />
      <path
         d="m 34.218751,-0.95833336 q -0.421875,0.50520835 -1.192708,0.78645835 -0.770833,0.27604168 -1.708333,0.27604168 -0.984375,0 -1.729167,-0.42708335 Q 28.84896,-0.75520836 28.44271,-1.5729167 28.041668,-2.3906251 28.031251,-3.4947918 v -0.515625 q 0,-1.1354167 0.380209,-1.9635417 0.385416,-0.8333334 1.104166,-1.2708334 0.723959,-0.4427083 1.692709,-0.4427083 1.348958,0 2.109375,0.6458333 0.760416,0.640625 0.901041,1.8697917 h -1.520833 q -0.104167,-0.6510416 -0.463542,-0.953125 -0.354166,-0.3020833 -0.979166,-0.3020833 -0.796875,0 -1.213542,0.5989583 -0.416667,0.5989584 -0.421875,1.7812501 v 0.484375 q 0,1.1927084 0.453125,1.8020834 0.453125,0.609375 1.328125,0.609375 0.880208,0 1.255208,-0.375 v -1.3072917 h -1.421875 v -1.1510417 h 2.984375 z"
         style="font-weight:bold;font-size:10.66666698px;font-family:Roboto, sans-serif;letter-spacing:2px;fill:#333333"
         id="path276" />
      <path
         d="m 42.052083,-3.2864584 h -3 v 2.03125 h 3.520834 V 0 H 37.489583 V -7.5833336 H 42.5625 v 1.2656251 h -3.510417 v 1.8072917 h 3 z"
         style="font-weight:bold;font-size:10.66666698px;font-family:Roboto, sans-serif;letter-spacing:2px;fill:#333333"
         id="path278" />
    </g>
  </g>
  <g
     id="g150"
     transform="translate(164,303.5)">
    <!--  -->
    <!-- <text font-size="8pt" letter-spacing="2px" transform="translate(-10 -12)">SMOOTH</text> -->
  </g>
  <g
     id="g152"
     transform="translate(232,301.5)">
    <!-- <text font-size="5pt" letter-spacing="2px" transform="translate(-8 26.5) rotate(270)">TYPE</text> -->
    <!-- <text font-size="5pt" letter-spacing="2px" transform="translate(-4 0)">LINE</text> -->
    <!--  -->
    <!-- <text font-size="5pt" letter-spacing="2px" transform="translate(-1.5 34)">BAR</text> -->
  </g>
  <g
     id="g160"
     transform="translate(273,301.5)">
    <g
       aria-label="POWER"
       transform="rotate(-90,11.25,19.25)"
       style="font-weight:bold;font-size:6.66666651px;font-family:Roboto, sans-serif;letter-spacing:2px;fill:#333333"
       id="text154">
      <path
         d="M 1.3997395,-1.6699218 V 0 H 0.42317707 V -4.7395832 H 2.2721354 q 0.5338541,0 0.9374999,0.1953125 0.4069011,0.1953125 0.625,0.5566406 0.218099,0.3580729 0.218099,0.8170573 0,0.6966145 -0.4785156,1.1002603 -0.4752604,0.4003907 -1.3183594,0.4003907 z m 0,-0.7910156 h 0.8723959 q 0.3873697,0 0.5891927,-0.1822917 0.2050781,-0.1822917 0.2050781,-0.5208333 0,-0.3483073 -0.2050781,-0.5631511 Q 2.6562499,-3.9420572 2.2949218,-3.9485676 H 1.3997395 Z"
         style="font-weight:bold;font-size:6.66666651px;font-family:Roboto, sans-serif;letter-spacing:2px;fill:#333333"
         id="path281" />
      <path
         d="m 10.613281,-2.2623697 q 0,0.6998697 -0.247396,1.2272135 -0.247396,0.52734371 -0.7096351,0.81380204 -0.4589843,0.28645833 -1.0546875,0.28645833 -0.5891926,0 -1.0514322,-0.28320312 Q 7.0878906,-0.50130207 6.8339844,-1.0253906 6.5800781,-1.5527343 6.5768229,-2.2363281 v -0.234375 q 0,-0.6998697 0.250651,-1.2304687 0.2539063,-0.5338541 0.7128907,-0.8170573 0.4622395,-0.2864583 1.0546874,-0.2864583 0.5924479,0 1.0514323,0.2864583 0.4622397,0.2832032 0.7128907,0.8170573 0.253906,0.530599 0.253906,1.2272135 z M 9.6236978,-2.4772135 q 0,-0.7454427 -0.266927,-1.1328125 -0.2669271,-0.3873697 -0.7617188,-0.3873697 -0.4915364,0 -0.7584635,0.3841145 -0.2669271,0.3808594 -0.2701823,1.1197917 v 0.2311198 q 0,0.7259114 0.2669271,1.126302 0.2669271,0.40039063 0.7682291,0.40039063 0.4915365,0 0.7552084,-0.38411453 0.2636718,-0.3873698 0.266927,-1.1263021 z"
         style="font-weight:bold;font-size:6.66666651px;font-family:Roboto, sans-serif;letter-spacing:2px;fill:#333333"
         id="path283" />
      <path
         d="m 17.020833,-1.3671875 0.638021,-3.3723957 h 0.973307 L 17.580729,0 H 16.597656 L 15.826172,-3.1705728 15.054687,0 h -0.983072 l -1.051433,-4.7395832 h 0.973308 l 0.641276,3.3658853 0.78125,-3.3658853 h 0.826822 z"
         style="font-weight:bold;font-size:6.66666651px;font-family:Roboto, sans-serif;letter-spacing:2px;fill:#333333"
         id="path285" />
      <path
         d="m 24.014322,-2.0540364 h -1.875 v 1.26953121 h 2.20052 V 0 h -3.177083 v -4.7395832 h 3.170573 v 0.7910156 h -2.19401 v 1.1295573 h 1.875 z"
         style="font-weight:bold;font-size:6.66666651px;font-family:Roboto, sans-serif;letter-spacing:2px;fill:#333333"
         id="path287" />
      <path
         d="M 28.667316,-1.735026 H 27.889322 V 0 h -0.976563 v -4.7395832 h 1.761068 q 0.839844,0 1.295573,0.3743489 0.455729,0.374349 0.455729,1.0579427 0,0.485026 -0.211589,0.8105469 -0.208333,0.3222656 -0.634765,0.5143229 l 1.02539,1.93684888 V 0 h -1.048177 z m -0.777994,-0.7910156 h 0.78776 q 0.367839,0 0.569661,-0.1855469 0.201823,-0.1888021 0.201823,-0.5175781 0,-0.3352864 -0.192057,-0.5273437 -0.188802,-0.1920573 -0.582682,-0.1920573 h -0.784505 z"
         style="font-weight:bold;font-size:6.66666651px;font-family:Roboto, sans-serif;letter-spacing:2px;fill:#333333"
         id="path289" />
    </g>
    <g
       aria-label="ON"
       transform="translate(1)"
       style="font-weight:bold;font-size:6.66666651px;font-family:Roboto, sans-serif;letter-spacing:2px;fill:#333333"
       id="text156">
      <path
         d="m 4.3164061,-2.2623697 q 0,0.6998697 -0.2473958,1.2272135 -0.2473958,0.52734371 -0.7096354,0.81380204 -0.4589843,0.28645833 -1.0546875,0.28645833 -0.5891926,0 -1.0514322,-0.28320312 Q 0.79101561,-0.50130207 0.53710936,-1.0253906 0.28320312,-1.5527343 0.27994791,-2.2363281 v -0.234375 q 0,-0.6998697 0.25065104,-1.2304687 0.25390624,-0.5338541 0.71289065,-0.8170573 0.4622395,-0.2864583 1.0546874,-0.2864583 0.5924479,0 1.0514323,0.2864583 0.4622396,0.2832032 0.7128906,0.8170573 0.2539062,0.530599 0.2539062,1.2272135 z M 3.3268228,-2.4772135 q 0,-0.7454427 -0.266927,-1.1328125 -0.2669271,-0.3873697 -0.7617188,-0.3873697 -0.4915364,0 -0.7584635,0.3841145 -0.2669271,0.3808594 -0.2701823,1.1197917 v 0.2311198 q 0,0.7259114 0.2669271,1.126302 0.2669271,0.40039063 0.7682291,0.40039063 0.4915365,0 0.7552084,-0.38411453 0.2636718,-0.3873698 0.266927,-1.1263021 z"
         style="font-weight:bold;font-size:6.66666651px;font-family:Roboto, sans-serif;letter-spacing:2px;fill:#333333"
         id="path292" />
      <path
         d="M 10.886719,0 H 9.9101562 L 8.0091145,-3.1184895 V 0 H 7.0325521 v -4.7395832 h 0.9765624 l 1.9042969,3.1249999 v -3.1249999 h 0.9733076 z"
         style="font-weight:bold;font-size:6.66666651px;font-family:Roboto, sans-serif;letter-spacing:2px;fill:#333333"
         id="path294" />
    </g>
    <g
       aria-label="OFF"
       transform="translate(-1,34)"
       style="font-weight:bold;font-size:6.66666651px;font-family:Roboto, sans-serif;letter-spacing:2px;fill:#333333"
       id="text158">
      <path
         d="m 4.3164061,-2.2623697 q 0,0.6998697 -0.2473958,1.2272135 -0.2473958,0.52734371 -0.7096354,0.81380204 -0.4589843,0.28645833 -1.0546875,0.28645833 -0.5891926,0 -1.0514322,-0.28320312 Q 0.79101561,-0.50130207 0.53710936,-1.0253906 0.28320312,-1.5527343 0.27994791,-2.2363281 v -0.234375 q 0,-0.6998697 0.25065104,-1.2304687 0.25390624,-0.5338541 0.71289065,-0.8170573 0.4622395,-0.2864583 1.0546874,-0.2864583 0.5924479,0 1.0514323,0.2864583 0.4622396,0.2832032 0.7128906,0.8170573 0.2539062,0.530599 0.2539062,1.2272135 z M 3.3268228,-2.4772135 q 0,-0.7454427 -0.266927,-1.1328125 -0.2669271,-0.3873697 -0.7617188,-0.3873697 -0.4915364,0 -0.7584635,0.3841145 -0.2669271,0.3808594 -0.2701823,1.1197917 v 0.2311198 q 0,0.7259114 0.2669271,1.126302 0.2669271,0.40039063 0.7682291,0.40039063 0.4915365,0 0.7552084,-0.38411453 0.2636718,-0.3873698 0.266927,-1.1263021 z"
         style="font-weight:bold;font-size:6.66666651px;font-family:Roboto, sans-serif;letter-spacing:2px;fill:#333333"
         id="path297" />
      <path
         d="m 9.8841145,-1.9368489 h -1.875 V 0 H 7.0325521 v -4.7395832 h 3.0859369 v 0.7910156 H 8.0091145 v 1.2239583 h 1.875 z"
         style="font-weight:bold;font-size:6.66666651px;font-family:Roboto, sans-serif;letter-spacing:2px;fill:#333333"
         id="path299" />
      <path
         d="m 15.542968,-1.9368489 h -1.875 V 0 h -0.976562 v -4.7395832 h 3.085937 v 0.7910156 h -2.109375 v 1.2239583 h 1.875 z"
         style="font-weight:bold;font-size:6.66666651px;font-family:Roboto, sans-serif;letter-spacing:2px;fill:#333333"
         id="path301" />
    </g>
  </g>
  <g
     id="use164"
     transform="matrix(0.75,0,0,0.75,81.5,285)">
    <g
       id="g244"
       transform="translate(50.5,50.5)">
      <g
         id="g200"
         transform="rotate(120,-15,8.660254)">
        <g
           id="g198"
           transform="rotate(-120,1,-0.57735027)">
          <g
             aria-label="0"
             transform="translate(-2.8,3.3)"
             style="font-weight:bold;font-size:9.33333302px;font-family:Roboto, sans-serif;fill:#333333"
             id="text196">
            <path
               d="m 4.9173175,-2.7434895 q 0,1.376302 -0.5696614,2.10546869 -0.5696614,0.72916664 -1.6679687,0.72916664 -1.0846354,0 -1.6588541,-0.71549477 Q 0.44661457,-1.3398437 0.43294269,-2.6751301 v -1.2213541 q 0,-1.389974 0.57421871,-2.110026 0.578776,-0.7200521 1.6634114,-0.7200521 1.0846354,0 1.6588541,0.7154948 0.5742188,0.7109375 0.5878906,2.0462239 z M 3.6002603,-4.0833332 q 0,-0.8248698 -0.2278646,-1.1985677 -0.2233073,-0.3782552 -0.7018229,-0.3782552 -0.4648437,0 -0.688151,0.3600261 -0.21875,0.3554687 -0.2324219,1.1165364 v 1.6132812 q 0,0.8111979 0.21875,1.2076822 0.2233073,0.39192711 0.7109375,0.39192711 0.4830729,0 0.6972656,-0.37825521 0.2141927,-0.3782552 0.2233073,-1.157552 z"
               style="font-weight:bold;font-size:9.33333302px;font-family:Roboto, sans-serif;fill:#333333"
               id="path365" />
          </g>
        </g>
      </g>
      <g
         id="g204"
         transform="rotate(150,-15,4.0192379)">
        <path
           style="stroke:#333333;stroke-width:0.5"
           d="M 0,0 H 4"
           id="polyline202" />
      </g>
      <g
         id="g208"
         transform="rotate(-180,-15,0)">
        <path
           style="stroke:#333333;stroke-width:0.5"
           d="M 0,0 H 4"
           id="polyline206" />
      </g>
      <g
         id="g212"
         transform="rotate(-150,-15,-4.0192379)">
        <path
           style="stroke:#333333;stroke-width:0.5"
           d="M 0,0 H 5"
           id="polyline210" />
      </g>
      <g
         id="g216"
         transform="rotate(-120,-15,-8.660254)">
        <path
           style="stroke:#333333;stroke-width:0.5"
           d="M 0,0 H 4"
           id="polyline214" />
      </g>
      <g
         id="g220"
         transform="rotate(-90,-15,-15)">
        <path
           style="stroke:#333333;stroke-width:0.5"
           d="M 0,0 H 4"
           id="polyline218" />
      </g>
      <g
         id="g224"
         transform="rotate(-60,-15,-25.980762)">
        <path
           style="stroke:#333333;stroke-width:0.5"
           d="M 0,0 H 4"
           id="polyline222" />
      </g>
      <g
         id="g228"
         transform="rotate(-30,-15,-55.980762)">
        <path
           style="stroke:#333333;stroke-width:0.5"
           d="M 0,0 H 4"
           id="polyline226" />
      </g>
      <g
         id="g232"
         transform="translate(30)">
        <path
           style="stroke:#333333;stroke-width:0.5"
           d="M 0,0 H 4"
           id="polyline230" />
      </g>
      <g
         id="g236"
         transform="rotate(30,-15,55.980762)">
        <path
           style="stroke:#333333;stroke-width:0.5"
           d="M 0,0 H 4"
           id="polyline234" />
      </g>
      <g
         id="g242"
         transform="rotate(60,-15,25.980762)">
        <g
           id="g240"
           transform="rotate(-60,1,-1.7320508)">
          <g
             aria-label="10"
             transform="translate(-5.3,3.3)"
             style="font-weight:bold;font-size:9.33333302px;font-family:Roboto, sans-serif;fill:#333333"
             id="text238">
            <path
               d="M 3.6503905,0 H 2.3333333 V -5.0768227 L 0.76106768,-4.5891926 V -5.6601561 L 3.5091145,-6.644531 h 0.141276 z"
               style="font-weight:bold;font-size:9.33333302px;font-family:Roboto, sans-serif;fill:#333333"
               id="path377" />
            <path
               d="m 10.276693,-2.7434895 q 0,1.376302 -0.5696619,2.10546869 -0.5696614,0.72916664 -1.6679687,0.72916664 -1.0846354,0 -1.6588541,-0.71549477 Q 5.8059896,-1.3398437 5.7923177,-2.6751301 v -1.2213541 q 0,-1.389974 0.5742187,-2.110026 0.578776,-0.7200521 1.6634114,-0.7200521 1.0846354,0 1.6588541,0.7154948 0.5742191,0.7109375 0.5878911,2.0462239 z M 8.9596353,-4.0833332 q 0,-0.8248698 -0.2278646,-1.1985677 -0.2233073,-0.3782552 -0.7018229,-0.3782552 -0.4648437,0 -0.688151,0.3600261 -0.21875,0.3554687 -0.2324219,1.1165364 v 1.6132812 q 0,0.8111979 0.21875,1.2076822 0.2233073,0.39192711 0.7109375,0.39192711 0.4830729,0 0.6972656,-0.37825521 0.2141927,-0.3782552 0.2233073,-1.157552 z"
               style="font-weight:bold;font-size:9.33333302px;font-family:Roboto, sans-serif;fill:#333333"
               id="path379" />
          </g>
        </g>
      </g>
    </g>
  </g>
  <!-- <use xlink:href="#knobguide" transform=" translate(145 285) scale(0.75)" /> -->
</svg>
