<?xml version="1.0" encoding="UTF-8" standalone="no"?>
<svg xmlns:dc="http://purl.org/dc/elements/1.1/" xmlns:cc="http://creativecommons.org/ns#" xmlns:rdf="http://www.w3.org/1999/02/22-rdf-syntax-ns#" xmlns:svg="http://www.w3.org/2000/svg" xmlns="http://www.w3.org/2000/svg" xmlns:sodipodi="http://sodipodi.sourceforge.net/DTD/sodipodi-0.dtd" xmlns:inkscape="http://www.inkscape.org/namespaces/inkscape" inkscape:version="1.0 (4035a4f, 2020-05-01)" sodipodi:docname="svg_render_Arp-pp.svg" id="svg5156" viewBox="0 0 45 380" height="380" width="45" version="1.1">
  <metadata id="metadata5162">
    <rdf:RDF>
      <cc:Work rdf:about="">
        <dc:format>image/svg+xml</dc:format>
        <dc:type rdf:resource="http://purl.org/dc/dcmitype/StillImage"/>
      </cc:Work>
    </rdf:RDF>
  </metadata>
  <defs id="defs5160"/>
  <sodipodi:namedview inkscape:current-layer="svg5156" inkscape:window-maximized="0" inkscape:window-y="23" inkscape:window-x="0" inkscape:cy="190" inkscape:cx="22.5" inkscape:zoom="1.7605263" showgrid="false" id="namedview5158" inkscape:window-height="480" inkscape:window-width="689" inkscape:pageshadow="2" inkscape:pageopacity="0" guidetolerance="10" gridtolerance="10" objecttolerance="10" borderopacity="1" bordercolor="#666666" pagecolor="#ffffff"/>
  
  <path d="M 0,0 H 45 V 380 H 0 Z" style="fill:#dddddd" id="rect5022"/>
  <path d="M 1,1 H 44 V 379 H 1 V 1" style="fill:none;stroke:#e4e4e4;stroke-width:0.5" id="polyline5024"/>
  <path d="m 0.5,0.5 h 44 v 379 H 0.5 V 0.5" style="fill:none;stroke:#ebebeb;stroke-width:0.8" id="polyline5026"/>
  <path d="M 0,0 H 45 V 380 H 0 V 0" style="fill:none;stroke:#f2f2f2;stroke-width:1" id="polyline5028"/>
  <g class="title" style="font-weight:normal;font-size:9.33333px;font-family:Comfortaa, sans-serif;letter-spacing:2.5px;fill:#333333" id="text5030" transform="rotate(-90)" aria-label="ARP">
    <path id="path5315" style="font-weight:normal;font-size:9.33333px;font-family:Comfortaa, sans-serif;letter-spacing:2.5px;fill:#333333" d="m -369.59734,12.486667 q 0.0373,0.06533 0.0373,0.149333 0,0.149333 -0.112,0.261333 Q -369.77467,13 -369.924,13 q -0.24267,0 -0.34534,-0.224 l -0.62533,-1.511999 h -3.612 L -375.132,12.776 q -0.0747,0.224 -0.336,0.224 -0.15867,0 -0.26133,-0.102667 -0.0933,-0.112 -0.0933,-0.261333 0,-0.09333 0.028,-0.158666 l 2.744,-6.5146649 q 0.10267,-0.252 0.35467,-0.252 0.252,0 0.34533,0.252 z m -1.54933,-1.848 -1.54933,-3.7426649 -1.54933,3.7426649 z"/>
    <path id="path5317" style="font-weight:normal;font-size:9.33333px;font-family:Comfortaa, sans-serif;letter-spacing:2.5px;fill:#333333" d="m -361.4495,12.44 q 0.084,0.14 0.084,0.252 0,0.14 -0.10267,0.224 -0.10267,0.084 -0.27067,0.084 -0.112,0 -0.18666,-0.04667 -0.0747,-0.04667 -0.13067,-0.14 l -1.68,-2.669332 h -0.15867 -1.38133 V 12.636 q 0,0.158667 -0.10267,0.261333 Q -365.4815,13 -365.64017,13 q -0.15867,0 -0.26133,-0.102667 -0.10267,-0.102666 -0.10267,-0.261333 V 6.074669 q 0,-0.1586666 0.10267,-0.2613332 0.10266,-0.1026667 0.26133,-0.1026667 h 1.74533 q 0.68134,0 1.21334,0.2893333 0.532,0.2799999 0.83066,0.793333 0.308,0.5133332 0.308,1.1666663 0,0.7186664 -0.392,1.2599996 -0.38266,0.5413331 -1.04533,0.7746664 z m -2.44534,-2.9959988 q 0.46667,0 0.84,-0.1866666 0.38267,-0.1959999 0.588,-0.5319998 0.21467,-0.3359999 0.21467,-0.7653331 0,-0.4479998 -0.21467,-0.8026664 -0.20533,-0.3546665 -0.57866,-0.5506665 -0.37334,-0.1959999 -0.84934,-0.1959999 h -1.38133 v 3.0333323 z"/>
    <path id="path5319" style="font-weight:normal;font-size:9.33333px;font-family:Comfortaa, sans-serif;letter-spacing:2.5px;fill:#333333" d="m -357.37975,13 q -0.15867,0 -0.26134,-0.102667 -0.10266,-0.102666 -0.10266,-0.261333 V 6.074669 q 0,-0.1586666 0.10266,-0.2613332 0.10267,-0.1026667 0.26134,-0.1026667 h 1.86666 q 0.68133,0 1.21333,0.3079999 0.54134,0.2986666 0.84,0.8399998 0.29867,0.5319998 0.29867,1.2226662 0,0.6813331 -0.29867,1.2133329 -0.29866,0.5319998 -0.84,0.8306661 -0.532,0.298667 -1.21333,0.298667 h -1.50267 V 12.636 q 0,0.158667 -0.10266,0.261333 Q -357.22109,13 -357.37975,13 Z m 1.86666,-3.2759989 q 0.476,0 0.84933,-0.2053332 0.37334,-0.2146666 0.57867,-0.5879998 0.21467,-0.3733333 0.21467,-0.8493331 0,-0.4853332 -0.21467,-0.8586664 -0.20533,-0.3826665 -0.57867,-0.5973331 -0.37333,-0.2146666 -0.84933,-0.2146666 h -1.50267 v 3.3133322 z"/>
  </g>
  <g transform="rotate(-90,200.5,175.5)" id="g5036">
    <g class="brand" style="font-weight:bold;font-size:9.33333px;font-family:Audiowide, sans-serif;letter-spacing:2px;fill:#333333" id="text5032" aria-label="BGA">
      <path id="path5307" style="font-weight:bold;font-size:9.33333px;font-family:Audiowide, sans-serif;letter-spacing:2px;fill:#333333" d="m 7.209633,-1.4355464 q 0,0.2187499 -0.077474,0.4694009 -0.072917,0.25065095 -0.2460936,0.46484359 Q 6.7174456,-0.28710928 6.4440082,-0.14127599 6.1705708,0 5.7740866,0 H 1.2760412 Q 1.1484371,0 1.0390621,-0.0455729 0.92968718,-0.0911458 0.84765596,-0.16861973 0.77018203,-0.25065096 0.72460913,-0.36002592 0.67903623,-0.46940088 0.67903623,-0.597005 v -5.341144 q 0,-0.1230469 0.0455729,-0.2324218 0.0455729,-0.109375 0.12304683,-0.1914062 0.0820312,-0.082031 0.19140614,-0.1276041 0.109375,-0.045573 0.2369791,-0.045573 h 3.9648424 q 0.21875,0 0.4694009,0.077474 0.250651,0.077474 0.4648436,0.250651 0.2187499,0.1686197 0.3600259,0.4420571 0.1458333,0.2734374 0.1458333,0.6699217 v 0.2233072 q 0,0.314453 -0.1048177,0.6790362 -0.1048176,0.3600259 -0.3372394,0.6835935 0.2005207,0.1230468 0.3736978,0.2962239 0.1777343,0.173177 0.3098957,0.4010415 0.1321614,0.2278645 0.2096353,0.5149738 0.077474,0.2871093 0.077474,0.6334633 z M 6.0247375,-1.6634109 q 0,-0.2324218 -0.072917,-0.4147134 Q 5.8789042,-2.2649732 5.7467428,-2.3971346 5.6145814,-2.529296 5.4277325,-2.5976554 5.2408836,-2.670572 5.0084618,-2.670572 h -2.670572 v -1.19401 h 2.1373691 q 0.2324218,0 0.4192707,-0.068359 0.1868489,-0.072917 0.3190103,-0.205078 0.1321614,-0.1321614 0.2005208,-0.314453 0.072917,-0.1868489 0.072917,-0.4192707 v -0.2233072 q 0,-0.2552083 -0.2460937,-0.2552083 H 1.8639317 v 4.1653632 h 3.9101549 q 0.031901,0 0.077474,-0.00456 0.045573,-0.00456 0.082031,-0.027344 0.036458,-0.022786 0.063802,-0.077474 0.027344,-0.054687 0.027344,-0.1503906 z"/>
      <path id="path5309" style="font-weight:bold;font-size:9.33333px;font-family:Audiowide, sans-serif;letter-spacing:2px;fill:#333333" d="m 16.683589,-0.597005 q 0,0.12760412 -0.04557,0.23697908 -0.04557,0.10937496 -0.127605,0.19140619 -0.07747,0.07747393 -0.186849,0.12304683 Q 16.214189,0 16.086584,0 h -4.274738 q -0.164062,0 -0.355468,-0.03645832 -0.186849,-0.04101561 -0.373698,-0.12304683 -0.182292,-0.0820312 -0.350911,-0.20963535 -0.16862,-0.13216141 -0.300782,-0.31445302 -0.127604,-0.18684889 -0.205078,-0.42838528 -0.07747,-0.2460937 -0.07747,-0.5514321 v -3.2083322 q 0,-0.1640625 0.03646,-0.3509114 0.04101,-0.1914062 0.123047,-0.3736978 0.08203,-0.1868489 0.214192,-0.3554686 0.132162,-0.1686197 0.314453,-0.2962238 0.186849,-0.1321615 0.428385,-0.2096354 0.241537,-0.077474 0.546875,-0.077474 h 4.817056 v 1.1848954 h -4.817056 q -0.232422,0 -0.355468,0.1230468 -0.123047,0.1230469 -0.123047,0.3645832 v 3.1992177 q 0,0.2278645 0.123047,0.3554686 0.127604,0.1230469 0.355468,0.1230469 h 3.686848 V -2.670572 h -3.153645 v -1.19401 h 3.741535 q 0.127605,0 0.236979,0.05013 0.109375,0.045573 0.186849,0.1276041 0.08203,0.082031 0.127605,0.1914062 0.04557,0.1048177 0.04557,0.2278645 z"/>
      <path id="path5311" style="font-weight:bold;font-size:9.33333px;font-family:Audiowide, sans-serif;letter-spacing:2px;fill:#333333" d="M 26.339836,0 H 25.154941 V -1.6041661 H 20.989578 V 0 h -1.184896 v -3.267577 q 0,-0.7154946 0.246094,-1.3170569 0.246094,-0.6015623 0.683593,-1.0345048 0.4375,-0.4329426 1.034505,-0.6744789 0.597005,-0.2415364 1.303385,-0.2415364 h 2.670572 q 0.123047,0 0.232422,0.045573 0.109375,0.045573 0.191406,0.1276041 0.08203,0.082031 0.127604,0.1914062 0.04557,0.1093749 0.04557,0.2324218 z m -5.350258,-2.7890616 h 4.165363 v -2.561197 h -2.082682 q -0.05469,0 -0.232422,0.018229 -0.173177,0.013672 -0.405598,0.077474 -0.227865,0.063802 -0.483073,0.1959635 -0.255208,0.1321614 -0.469401,0.3645832 -0.214193,0.2324218 -0.355469,0.5833331 -0.136718,0.3463541 -0.136718,0.8430987 z"/>
    </g>
    <path d="M 0,0 H 3 V 3 H 0 Z" style="fill:#dddddd" transform="translate(11.5,-5)" id="rect5034"/>
  </g>
  <!-- <polyline points="0,0 0,380" stroke="#0f0" stroke-width="1" fill="none" transform="translate(22.5 0)" /> -->
  <!-- <polyline points="0,0 0,380" stroke="#f00" stroke-width="1" fill="none" transform="translate(3 0)" /> -->
  <!-- <polyline points="0,0 0,380" stroke="#0f0" stroke-width="1" fill="none" transform="translate(42 0)" /> -->
  <!-- <rect width="20" height="24" fill="#0f0" transform="translate(0 0)" /> -->
  <g style="font-weight:bold;font-size:8px;font-family:Roboto, sans-serif;letter-spacing:2px;fill:#333333" id="text5040" aria-label="MODE">
    <path id="path5361" style="font-weight:bold;font-size:8px;font-family:Roboto, sans-serif;letter-spacing:2px;fill:#333333" d="m 10.039063,18.3125 1.460937,4.125 1.453125,-4.125 h 1.539063 V 24 H 13.316406 V 22.445312 L 13.433594,19.761719 11.898438,24 H 11.09375 L 9.5625,19.765625 9.6796875,22.445312 V 24 h -1.171875 v -5.6875 z"/>
    <path id="path5363" style="font-weight:bold;font-size:8px;font-family:Roboto, sans-serif;letter-spacing:2px;fill:#333333" d="m 22.195312,21.285156 q 0,0.839844 -0.296875,1.472656 -0.296875,0.632813 -0.851562,0.976563 -0.550781,0.34375 -1.265625,0.34375 -0.707031,0 -1.261719,-0.339844 -0.554687,-0.339844 -0.859375,-0.96875 -0.304687,-0.632812 -0.308594,-1.453125 v -0.28125 q 0,-0.839844 0.300782,-1.476562 0.304687,-0.640625 0.855468,-0.980469 0.554688,-0.34375 1.265625,-0.34375 0.710938,0 1.261719,0.34375 0.554688,0.339844 0.855469,0.980469 0.304687,0.636718 0.304687,1.472656 z m -1.1875,-0.257812 q 0,-0.894532 -0.320312,-1.359375 -0.320313,-0.464844 -0.914063,-0.464844 -0.589843,0 -0.910156,0.460937 -0.320312,0.457032 -0.324219,1.34375 v 0.277344 q 0,0.871094 0.320313,1.351563 0.320312,0.480468 0.921875,0.480468 0.589844,0 0.90625,-0.460937 0.316406,-0.464844 0.320312,-1.351563 z"/>
    <path id="path5365" style="font-weight:bold;font-size:8px;font-family:Roboto, sans-serif;letter-spacing:2px;fill:#333333" d="m 25.054687,24 v -5.6875 h 1.75 q 0.75,0 1.339844,0.339844 0.59375,0.335937 0.925781,0.960937 0.332032,0.621094 0.332032,1.414063 v 0.261718 q 0,0.792969 -0.328125,1.410157 Q 28.75,23.316406 28.15625,23.65625 27.5625,23.996094 26.816406,24 Z m 1.171875,-4.738281 v 3.796875 h 0.566407 q 0.6875,0 1.050781,-0.449219 0.363281,-0.449219 0.371094,-1.285156 v -0.300782 q 0,-0.867187 -0.359375,-1.3125 -0.359375,-0.449218 -1.050782,-0.449218 z"/>
    <path id="path5367" style="font-weight:bold;font-size:8px;font-family:Roboto, sans-serif;letter-spacing:2px;fill:#333333" d="m 35.679687,21.535156 h -2.25 v 1.523438 h 2.640625 V 24 h -3.8125 V 18.3125 H 36.0625 v 0.949219 h -2.632813 v 1.355468 h 2.25 z"/>
  </g>
  <g transform="translate(3,28)" id="g5046">
    <g id="g5042"/>
    <g style="font-weight:bold;font-size:6.66667px;font-family:Roboto, sans-serif;letter-spacing:1px;fill:#333333" id="text5044" transform="translate(8,5.7)" aria-label="UP">
      <path id="path5356" style="font-weight:bold;font-size:6.66667px;font-family:Roboto, sans-serif;letter-spacing:1px;fill:#333333" d="m 4.0104186,-4.7395856 v 3.1217463 q 0,0.77799515 -0.4882815,1.23046932 -0.4850263,0.45247418 -1.3281256,0.45247418 -0.8300786,0 -1.31836004,-0.43945334 Q 0.38736998,-0.81380247 0.37760435,-1.582032 V -4.7395856 H 1.3541673 v 3.1282567 q 0,0.465495 0.2213543,0.68033887 0.2246095,0.21158865 0.6184899,0.21158865 0.8235681,0 0.8365889,-0.86588582 v -3.1542984 z"/>
      <path id="path5358" style="font-weight:bold;font-size:6.66667px;font-family:Roboto, sans-serif;letter-spacing:1px;fill:#333333" d="M 6.7877632,-1.6699227 V 0 h -0.976563 v -4.7395856 h 1.8489592 q 0.5338544,0 0.9375004,0.1953126 0.4069013,0.1953126 0.6250003,0.5566409 0.2180991,0.3580731 0.2180991,0.8170577 0,0.6966149 -0.4785158,1.1002609 -0.4752607,0.4003908 -1.31836,0.4003908 z m 0,-0.791016 h 0.8723962 q 0.38737,0 0.589193,-0.1822917 0.2050782,-0.1822918 0.2050782,-0.5208336 0,-0.3483075 -0.2050782,-0.5631513 Q 8.0442742,-3.9420592 7.6829459,-3.9485696 H 6.7877632 Z"/>
    </g>
  </g>
  <g transform="translate(24,28)" id="g5052">
    <g id="g5048"/>
    <g style="font-weight:bold;font-size:6.66667px;font-family:Roboto, sans-serif;letter-spacing:1px;fill:#333333" id="text5050" transform="translate(8,5.7)" aria-label="DN">
      <path id="path5351" style="font-weight:bold;font-size:6.66667px;font-family:Roboto, sans-serif;letter-spacing:1px;fill:#333333" d="M 0.42317729,0 V -4.7395856 H 1.8815113 q 0.6250003,0 1.116537,0.2832033 0.4947919,0.279948 0.7714847,0.8007816 0.2766929,0.5175784 0.2766929,1.178386 v 0.218099 q 0,0.6608076 -0.2734376,1.1751308 Q 3.5026058,-0.56966173 3.0078139,-0.28645847 2.513022,-0.00325521 1.8912769,0 Z M 1.3997403,-3.9485696 v 3.16406402 h 0.4720054 q 0.5729169,0 0.8756514,-0.37434912 0.3027346,-0.3743492 0.309245,-1.0709641 v -0.2506511 q 0,-0.7226566 -0.2994793,-1.0937506 -0.2994793,-0.3743491 -0.8756515,-0.3743491 z"/>
      <path id="path5353" style="font-weight:bold;font-size:6.66667px;font-family:Roboto, sans-serif;letter-spacing:1px;fill:#333333" d="M 9.6132852,0 H 8.6367222 L 6.7356797,-3.1184911 V 0 h -0.976563 v -4.7395856 h 0.976563 l 1.9042977,3.1250015 v -3.1250015 h 0.9733078 z"/>
    </g>
  </g>
  <g transform="translate(3,38)" id="g5058">
    <g id="g5054"/>
    <g style="font-weight:bold;font-size:6.66667px;font-family:Roboto, sans-serif;letter-spacing:1px;fill:#333333" id="text5056" transform="translate(8,5.7)" aria-label="PD">
      <path id="path5346" style="font-weight:bold;font-size:6.66667px;font-family:Roboto, sans-serif;letter-spacing:1px;fill:#333333" d="M 1.3997403,-1.6699227 V 0 H 0.42317729 V -4.7395856 H 2.2721365 q 0.5338544,0 0.9375004,0.1953126 0.4069013,0.1953126 0.6250003,0.5566409 0.2180991,0.3580731 0.2180991,0.8170577 0,0.6966149 -0.4785158,1.1002609 -0.4752607,0.4003908 -1.31836,0.4003908 z m 0,-0.791016 h 0.8723962 q 0.38737,0 0.589193,-0.1822917 0.2050782,-0.1822918 0.2050782,-0.5208336 0,-0.3483075 -0.2050782,-0.5631513 Q 2.6562513,-3.9420592 2.294923,-3.9485696 H 1.3997403 Z"/>
      <path id="path5348" style="font-weight:bold;font-size:6.66667px;font-family:Roboto, sans-serif;letter-spacing:1px;fill:#333333" d="m 5.7200542,0 v -4.7395856 h 1.458334 q 0.6250003,0 1.116537,0.2832033 0.4947919,0.279948 0.7714848,0.8007816 0.2766928,0.5175784 0.2766928,1.178386 v 0.218099 q 0,0.6608076 -0.2734376,1.1751308 Q 8.7994827,-0.56966173 8.3046908,-0.28645847 7.8098989,-0.00325521 7.1881539,0 Z m 0.976563,-3.9485696 v 3.16406402 h 0.4720054 q 0.5729169,0 0.8756515,-0.37434912 0.3027345,-0.3743492 0.3092449,-1.0709641 v -0.2506511 q 0,-0.7226566 -0.2994793,-1.0937506 -0.2994793,-0.3743491 -0.8756515,-0.3743491 z"/>
    </g>
  </g>
  <g transform="translate(24,38)" id="g5064">
    <g id="g5060"/>
    <g style="font-weight:bold;font-size:6.66667px;font-family:Roboto, sans-serif;letter-spacing:1px;fill:#333333" id="text5062" transform="translate(8,5.7)" aria-label="PR">
      <path id="path5341" style="font-weight:bold;font-size:6.66667px;font-family:Roboto, sans-serif;letter-spacing:1px;fill:#333333" d="M 1.3997403,-1.6699227 V 0 H 0.42317729 V -4.7395856 H 2.2721365 q 0.5338544,0 0.9375004,0.1953126 0.4069013,0.1953126 0.6250003,0.5566409 0.2180991,0.3580731 0.2180991,0.8170577 0,0.6966149 -0.4785158,1.1002609 -0.4752607,0.4003908 -1.31836,0.4003908 z m 0,-0.791016 h 0.8723962 q 0.38737,0 0.589193,-0.1822917 0.2050782,-0.1822918 0.2050782,-0.5208336 0,-0.3483075 -0.2050782,-0.5631513 Q 2.6562513,-3.9420592 2.294923,-3.9485696 H 1.3997403 Z"/>
      <path id="path5343" style="font-weight:bold;font-size:6.66667px;font-family:Roboto, sans-serif;letter-spacing:1px;fill:#333333" d="M 7.4746123,-1.7350269 H 6.6966172 V 0 h -0.976563 v -4.7395856 h 1.7610685 q 0.8398442,0 1.2955736,0.3743491 0.4557294,0.3743492 0.4557294,1.0579433 0,0.4850262 -0.2115887,0.8105472 -0.2083334,0.3222658 -0.6347659,0.5143232 l 1.0253911,1.93684986 V 0 H 8.3632846 Z M 6.6966172,-2.5260429 H 7.484378 q 0.3678387,0 0.5696617,-0.1855469 0.201823,-0.1888022 0.201823,-0.5175784 0,-0.3352866 -0.1920574,-0.527344 Q 7.8750031,-3.9485696 7.4811227,-3.9485696 H 6.6966172 Z"/>
    </g>
  </g>
  <g transform="translate(3,48)" id="g5070">
    <g id="g5066"/>
    <g style="font-weight:bold;font-size:6.66667px;font-family:Roboto, sans-serif;letter-spacing:1px;fill:#333333" id="text5068" transform="translate(8,5.7)" aria-label="IO">
      <path id="path5336" style="font-weight:bold;font-size:6.66667px;font-family:Roboto, sans-serif;letter-spacing:1px;fill:#333333" d="M 1.4615892,0 H 0.48502627 V -4.7395856 H 1.4615892 Z"/>
      <path id="path5338" style="font-weight:bold;font-size:6.66667px;font-family:Roboto, sans-serif;letter-spacing:1px;fill:#333333" d="m 7.2565133,-2.2623709 q 0,0.6998702 -0.247396,1.2272142 -0.2473959,0.52734396 -0.7096357,0.81380243 -0.4589846,0.28645847 -1.054688,0.28645847 -0.589193,0 -1.0514328,-0.28320326 Q 3.731121,-0.50130232 3.4772146,-1.0253911 3.2233082,-1.5527351 3.220053,-2.2363292 v -0.2343751 q 0,-0.6998701 0.2506512,-1.2304693 0.2539063,-0.5338545 0.7128909,-0.8170577 0.4622398,-0.2864585 1.054688,-0.2864585 0.5924482,0 1.0514328,0.2864585 0.4622398,0.2832032 0.712891,0.8170577 0.2539064,0.5305992 0.2539064,1.2272141 z M 6.2669295,-2.4772147 q 0,-0.7454431 -0.2669272,-1.1328131 -0.2669273,-0.3873699 -0.7617192,-0.3873699 -0.4915367,0 -0.7584639,0.3841147 -0.2669272,0.3808596 -0.2701824,1.1197922 v 0.2311199 q 0,0.7259118 0.2669272,1.1263026 0.2669272,0.40039087 0.7682296,0.40039087 0.4915367,0 0.7552087,-0.38411477 0.263672,-0.38737 0.2669272,-1.1263026 z"/>
    </g>
  </g>
  <g transform="translate(24,48)" id="g5076">
    <g id="g5072"/>
    <g style="font-weight:bold;font-size:6.66667px;font-family:Roboto, sans-serif;letter-spacing:1px;fill:#333333" id="text5074" transform="translate(8,5.7)" aria-label="RD">
      <path id="path5331" style="font-weight:bold;font-size:6.66667px;font-family:Roboto, sans-serif;letter-spacing:1px;fill:#333333" d="M 2.1777354,-1.7350269 H 1.3997403 V 0 H 0.42317729 V -4.7395856 H 2.1842458 q 0.8398442,0 1.2955736,0.3743491 0.4557294,0.3743492 0.4557294,1.0579433 0,0.4850262 -0.2115887,0.8105472 -0.2083334,0.3222658 -0.6347659,0.5143232 l 1.0253911,1.93684986 V 0 H 3.0664077 Z M 1.3997403,-2.5260429 H 2.187501 q 0.3678388,0 0.5696618,-0.1855469 0.201823,-0.1888022 0.201823,-0.5175784 0,-0.3352866 -0.1920574,-0.527344 Q 2.5781262,-3.9485696 2.1842458,-3.9485696 H 1.3997403 Z"/>
      <path id="path5333" style="font-weight:bold;font-size:6.66667px;font-family:Roboto, sans-serif;letter-spacing:1px;fill:#333333" d="m 5.6809917,0 v -4.7395856 h 1.458334 q 0.6250003,0 1.116537,0.2832033 0.4947919,0.279948 0.7714848,0.8007816 0.2766928,0.5175784 0.2766928,1.178386 v 0.218099 q 0,0.6608076 -0.2734376,1.1751308 Q 8.7604202,-0.56966173 8.2656283,-0.28645847 7.7708364,-0.00325521 7.1490914,0 Z m 0.976563,-3.9485696 v 3.16406402 h 0.4720054 q 0.5729169,0 0.8756515,-0.37434912 0.3027345,-0.3743492 0.3092449,-1.0709641 v -0.2506511 q 0,-0.7226566 -0.2994793,-1.0937506 -0.2994793,-0.3743491 -0.8756515,-0.3743491 z"/>
    </g>
  </g>
  <g transform="translate(3,58)" id="g5082">
    <g id="g5078"/>
    <g style="font-weight:bold;font-size:6.66667px;font-family:Roboto, sans-serif;letter-spacing:1px;fill:#333333" id="text5080" transform="translate(8,5.7)" aria-label="SH">
      <path id="path5326" style="font-weight:bold;font-size:6.66667px;font-family:Roboto, sans-serif;letter-spacing:1px;fill:#333333" d="m 2.8808607,-1.2434902 q 0,-0.2766928 -0.1953125,-0.4231773 Q 2.4902356,-1.8164071 1.9824228,-1.9791676 1.4746101,-2.1451833 1.178386,-2.3046886 0.37109393,-2.7408867 0.37109393,-3.4798194 q 0,-0.3841147 0.21484385,-0.683594 0.21809906,-0.3027346 0.62174512,-0.4720055 0.4069012,-0.1692709 0.9114587,-0.1692709 0.5078128,0 0.9049484,0.185547 0.3971356,0.1822917 0.6152347,0.5175783 0.2213542,0.3352867 0.2213542,0.7617192 H 2.884116 q 0,-0.325521 -0.2050783,-0.5045576 -0.2050782,-0.1822917 -0.5761721,-0.1822917 -0.3580731,0 -0.5566409,0.1529948 -0.1985678,0.1497397 -0.1985678,0.3971356 0,0.2311199 0.2311199,0.38737 0.2343751,0.1562501 0.6868493,0.2929689 0.8333337,0.2506512 1.2141933,0.6217451 0.3808595,0.3710939 0.3808595,0.9244796 0,0.61523467 -0.465495,0.96679734 -0.465495,0.34830746 -1.2532558,0.34830746 -0.5468753,0 -0.9960942,-0.19856781 Q 0.69661492,-0.33528662 0.45898459,-0.68359408 0.22460948,-1.0319015 0.22460948,-1.4908861 H 1.2044277 q 0,0.78450555 0.9375004,0.78450555 0.3483075,0 0.5436201,-0.13997402 0.1953125,-0.14322924 0.1953125,-0.39713563 z"/>
      <path id="path5328" style="font-weight:bold;font-size:6.66667px;font-family:Roboto, sans-serif;letter-spacing:1px;fill:#333333" d="M 9.3821654,0 H 8.4056024 V -2.031251 H 6.5013047 V 0 h -0.976563 v -4.7395856 h 0.976563 v 1.9205738 h 1.9042977 v -1.9205738 h 0.976563 z"/>
    </g>
  </g>
  <g transform="translate(24,57)" id="g5084"/>
  <g style="font-weight:bold;font-size:8px;font-family:Roboto, sans-serif;letter-spacing:1.5px;fill:#333333" id="text5088" aria-label="GATE">
    <path id="path5298" style="font-weight:bold;font-size:8px;font-family:Roboto, sans-serif;letter-spacing:1.5px;fill:#333333" d="m 15.007813,77.78125 q -0.316407,0.378906 -0.894532,0.589844 -0.578125,0.207031 -1.28125,0.207031 -0.738281,0 -1.296875,-0.320313 -0.554687,-0.324218 -0.859375,-0.9375 Q 10.375,76.707031 10.367188,75.878906 v -0.386719 q 0,-0.851562 0.285156,-1.472656 0.289062,-0.625 0.828125,-0.953125 0.542969,-0.332031 1.269531,-0.332031 1.011719,0 1.582031,0.484375 0.570313,0.480469 0.675782,1.402344 h -1.140625 q -0.07813,-0.488282 -0.347657,-0.714844 -0.265625,-0.226563 -0.734375,-0.226563 -0.597656,0 -0.910156,0.449219 -0.3125,0.449219 -0.316406,1.335938 v 0.363281 q 0,0.894531 0.339844,1.351562 0.339843,0.457032 0.996093,0.457032 0.660157,0 0.941407,-0.28125 V 76.375 h -1.066407 v -0.863281 h 2.238282 z"/>
    <path id="path5300" style="font-weight:bold;font-size:8px;font-family:Roboto, sans-serif;letter-spacing:1.5px;fill:#333333" d="M 20.671875,77.328125 H 18.617187 L 18.226562,78.5 h -1.246093 l 2.117187,-5.6875 h 1.085938 L 22.3125,78.5 h -1.246094 z m -1.738281,-0.949219 h 1.421875 L 19.640625,74.25 Z"/>
    <path id="path5302" style="font-weight:bold;font-size:8px;font-family:Roboto, sans-serif;letter-spacing:1.5px;fill:#333333" d="M 28.164062,73.761719 H 26.421875 V 78.5 H 25.25 V 73.761719 H 23.53125 V 72.8125 h 4.632812 z"/>
    <path id="path5304" style="font-weight:bold;font-size:8px;font-family:Roboto, sans-serif;letter-spacing:1.5px;fill:#333333" d="m 33.757812,76.035156 h -2.25 v 1.523438 h 2.640625 V 78.5 h -3.8125 v -5.6875 h 3.804688 v 0.949219 h -2.632813 v 1.355468 h 2.25 z"/>
  </g>
  <g transform="translate(14.5,87.5)" id="g5090"/>
  <g transform="translate(2.5,75.5)" id="g5108">
    <svg version="1.1" id="svg5106" width="100%" height="100%">
      <g transform="translate(20,20)" id="g5104">
        <g transform="rotate(120,-5,2.8867513)" id="g5094">
          <path d="M 0,0 H 4" style="stroke:#333333;stroke-width:1" id="polyline5092"/>
        </g>
        <path d="M 0,-12.5 A 12.5,12.5 0 0 1 12.5,0" stroke="#333333" stroke-width="0.5" stroke-linecap="round" fill="none" id="path5096"/>
        <path d="M 0,-12.5 A 12.5,12.5 0 0 1 12.5,0" stroke="#333333" stroke-width="0.5" stroke-linecap="round" fill="none" transform="rotate(43)" id="path5098"/>
        <path d="M 0,-12.5 A 12.5,12.5 0 0 0 -12.5,0" stroke="#333333" stroke-width="0.5" stroke-linecap="round" fill="none" id="path5100"/>
        <path d="M 0,-12.5 A 12.5,12.5 0 0 0 -12.5,0" stroke="#333333" stroke-width="0.5" stroke-linecap="round" fill="none" transform="rotate(-43)" id="path5102"/>
      </g>
    </svg>
  </g>
  <g style="font-weight:bold;font-size:6.66667px;font-family:Roboto, sans-serif;letter-spacing:1px;fill:#333333" id="text5112" aria-label="HOLD">
    <path id="path5288" style="font-weight:bold;font-size:6.66667px;font-family:Roboto, sans-serif;letter-spacing:1px;fill:#333333" d="M 10.280601,121 H 9.304038 v -2.03125 H 7.3997403 V 121 h -0.976563 v -4.73959 h 0.976563 v 1.92058 H 9.304038 v -1.92058 h 0.976563 z"/>
    <path id="path5290" style="font-weight:bold;font-size:6.66667px;font-family:Roboto, sans-serif;letter-spacing:1px;fill:#333333" d="m 16.029952,118.73763 q 0,0.69987 -0.247396,1.22721 -0.247396,0.52735 -0.709636,0.81381 -0.458984,0.28645 -1.054688,0.28645 -0.589192,0 -1.051432,-0.2832 -0.46224,-0.2832 -0.716146,-0.80729 -0.253907,-0.52735 -0.257162,-1.21094 v -0.23437 q 0,-0.69987 0.250651,-1.23047 0.253906,-0.53386 0.712891,-0.81706 0.46224,-0.28646 1.054688,-0.28646 0.592448,0 1.051433,0.28646 0.46224,0.2832 0.712891,0.81706 0.253906,0.5306 0.253906,1.22721 z m -0.989584,-0.21484 q 0,-0.74545 -0.266927,-1.13282 -0.266927,-0.38737 -0.761719,-0.38737 -0.491537,0 -0.758464,0.38412 -0.266927,0.38086 -0.270182,1.11979 v 0.23112 q 0,0.72591 0.266927,1.1263 0.266927,0.40039 0.768229,0.40039 0.491537,0 0.755209,-0.38411 0.263672,-0.38737 0.266927,-1.1263 z"/>
    <path id="path5292" style="font-weight:bold;font-size:6.66667px;font-family:Roboto, sans-serif;letter-spacing:1px;fill:#333333" d="m 18.722662,120.21549 h 2.073569 V 121 h -3.050132 v -4.73959 h 0.976563 z"/>
    <path id="path5294" style="font-weight:bold;font-size:6.66667px;font-family:Roboto, sans-serif;letter-spacing:1px;fill:#333333" d="m 22.352871,121 v -4.73959 h 1.458334 q 0.625001,0 1.116537,0.28321 0.494792,0.27995 0.771485,0.80078 0.276693,0.51758 0.276693,1.17839 v 0.21809 q 0,0.66081 -0.273438,1.17514 -0.270182,0.51432 -0.764974,0.79752 -0.494792,0.2832 -1.116537,0.28646 z m 0.976563,-3.94857 v 3.16406 h 0.472006 q 0.572917,0 0.875651,-0.37434 0.302735,-0.37435 0.309245,-1.07097 v -0.25065 q 0,-0.72266 -0.299479,-1.09375 -0.299479,-0.37435 -0.875652,-0.37435 z"/>
  </g>
  <g transform="translate(29,114)" id="g5114"/>
  <g transform="translate(5.5,129)" id="g5138">
    <path d="m 5,0 h 24 c 2.77,0 5,2.23 5,5 v 133 c 0,2.77 -2.23,5 -5,5 H 5 c -2.77,0 -5,-2.23 -5,-5 V 5 C 0,2.23 2.23,0 5,0 Z" style="fill:#fafafa" id="rect5118"/>
    <path d="M 0,0 H 34 V 10 H 0 Z" style="fill:#fafafa" transform="translate(0,133)" id="rect5120"/>
    <g transform="translate(5,3)" id="g5122"/>
    <g style="font-weight:bold;font-size:6.66667px;font-family:Roboto, sans-serif;letter-spacing:2px;fill:#333333" id="text5124" transform="translate(2.3,35)" aria-label="CLOCK">
      <path id="path5246" style="font-weight:bold;font-size:6.66667px;font-family:Roboto, sans-serif;letter-spacing:2px;fill:#333333" d="M 4.1438822,-1.5787768 Q 4.0885436,-0.81380247 3.5774757,-0.37434914 3.0696629,0.0651042 2.2363292,0.0651042 q -0.9114588,0 -1.43554757,-0.61197946 Q 0.27994805,-1.1621099 0.27994805,-2.233074 v -0.2897137 q 0,-0.683594 0.24088553,-1.2044276 0.24088553,-0.5208336 0.68684932,-0.7975264 0.4492189,-0.2799481 1.0416671,-0.2799481 0.8203129,0 1.3216152,0.4394533 0.5013024,0.4394534 0.5794274,1.2337246 H 3.1738296 Q 3.1380223,-3.5904965 2.9166681,-3.7955747 2.698569,-4.0039082 2.24935,-4.0039082 q -0.4882815,0 -0.7324222,0.3515627 -0.2408855,0.3483075 -0.2473959,1.0839849 v 0.3580731 q 0,0.7682295 0.2311199,1.1230474 0.2343751,0.35481788 0.7356774,0.35481788 0.4524742,0 0.6738284,-0.20507823 0.2246095,-0.20833345 0.2571616,-0.64127635 z"/>
      <path id="path5248" style="font-weight:bold;font-size:6.66667px;font-family:Roboto, sans-serif;letter-spacing:2px;fill:#333333" d="M 7.7617216,-0.78450558 H 9.8352903 V 0 H 6.7851587 v -4.7395856 h 0.9765629 z"/>
      <path id="path5250" style="font-weight:bold;font-size:6.66667px;font-family:Roboto, sans-serif;letter-spacing:2px;fill:#333333" d="m 16.076829,-2.2623709 q 0,0.6998702 -0.247396,1.2272142 -0.247396,0.52734396 -0.709636,0.81380243 -0.458984,0.28645847 -1.054688,0.28645847 -0.589193,0 -1.051432,-0.28320326 -0.46224,-0.28320326 -0.716147,-0.80729204 -0.253906,-0.527344 -0.257161,-1.2109381 v -0.2343751 q 0,-0.6998701 0.250651,-1.2304693 0.253906,-0.5338545 0.712891,-0.8170577 0.46224,-0.2864585 1.054688,-0.2864585 0.592448,0 1.051433,0.2864585 0.46224,0.2832032 0.712891,0.8170577 0.253906,0.5305992 0.253906,1.2272141 z m -0.989584,-0.2148438 q 0,-0.7454431 -0.266927,-1.1328131 -0.266927,-0.3873699 -0.761719,-0.3873699 -0.491537,0 -0.758464,0.3841147 -0.266927,0.3808596 -0.270182,1.1197922 v 0.2311199 q 0,0.7259118 0.266927,1.1263026 0.266927,0.40039087 0.768229,0.40039087 0.491537,0 0.755209,-0.38411477 0.263672,-0.38737 0.266927,-1.1263026 z"/>
      <path id="path5252" style="font-weight:bold;font-size:6.66667px;font-family:Roboto, sans-serif;letter-spacing:2px;fill:#333333" d="m 22.513681,-1.5787768 q -0.05534,0.76497433 -0.566407,1.20442766 -0.507812,0.43945334 -1.341146,0.43945334 -0.911459,0 -1.435548,-0.61197946 Q 18.649747,-1.1621099 18.649747,-2.233074 v -0.2897137 q 0,-0.683594 0.240885,-1.2044276 0.240886,-0.5208336 0.68685,-0.7975264 0.449218,-0.2799481 1.041667,-0.2799481 0.820313,0 1.321615,0.4394533 0.501302,0.4394534 0.579427,1.2337246 h -0.976563 q -0.03581,-0.4589846 -0.257161,-0.6640628 -0.218099,-0.2083335 -0.667318,-0.2083335 -0.488282,0 -0.732423,0.3515627 -0.240885,0.3483075 -0.247395,1.0839849 v 0.3580731 q 0,0.7682295 0.231119,1.1230474 0.234376,0.35481788 0.735678,0.35481788 0.452474,0 0.673828,-0.20507823 0.22461,-0.20833345 0.257162,-0.64127635 z"/>
      <path id="path5254" style="font-weight:bold;font-size:6.66667px;font-family:Roboto, sans-serif;letter-spacing:2px;fill:#333333" d="m 26.639332,-1.9010426 -0.507813,0.5468753 V 0 h -0.976563 v -4.7395856 h 0.976563 v 2.1484385 l 0.429688,-0.589193 1.207683,-1.5592455 h 1.201172 L 27.287119,-2.6334648 29.018891,0 h -1.16211 z"/>
    </g>
    <g transform="translate(5,38)" id="g5126"/>
    <g style="font-weight:bold;font-size:6.66667px;font-family:Roboto, sans-serif;letter-spacing:2px;fill:#333333" id="text5128" transform="translate(2.3,70)" aria-label="RESET">
      <path id="path5257" style="font-weight:bold;font-size:6.66667px;font-family:Roboto, sans-serif;letter-spacing:2px;fill:#333333" d="M 2.1777354,-1.7350269 H 1.3997403 V 0 H 0.42317729 V -4.7395856 H 2.1842458 q 0.8398442,0 1.2955736,0.3743491 0.4557294,0.3743492 0.4557294,1.0579433 0,0.4850262 -0.2115887,0.8105472 -0.2083334,0.3222658 -0.6347659,0.5143232 l 1.0253911,1.93684986 V 0 H 3.0664077 Z M 1.3997403,-2.5260429 H 2.187501 q 0.3678388,0 0.5696618,-0.1855469 0.201823,-0.1888022 0.201823,-0.5175784 0,-0.3352866 -0.1920574,-0.527344 Q 2.5781262,-3.9485696 2.1842458,-3.9485696 H 1.3997403 Z"/>
      <path id="path5259" style="font-weight:bold;font-size:6.66667px;font-family:Roboto, sans-serif;letter-spacing:2px;fill:#333333" d="M 9.5325556,-2.0540374 H 7.6575547 v 1.26953182 H 9.8580765 V 0 H 6.6809917 v -4.7395856 h 3.1705744 v 0.791016 H 7.6575547 v 1.1295578 h 1.8750009 z"/>
      <path id="path5261" style="font-weight:bold;font-size:6.66667px;font-family:Roboto, sans-serif;letter-spacing:2px;fill:#333333" d="m 14.888677,-1.2434902 q 0,-0.2766928 -0.195313,-0.4231773 -0.195312,-0.1497396 -0.703125,-0.3125001 -0.507813,-0.1660157 -0.804037,-0.325521 -0.807292,-0.4361981 -0.807292,-1.1751308 0,-0.3841147 0.214844,-0.683594 0.218099,-0.3027346 0.621745,-0.4720055 0.406901,-0.1692709 0.911459,-0.1692709 0.507813,0 0.904948,0.185547 0.397136,0.1822917 0.615235,0.5175783 0.221354,0.3352867 0.221354,0.7617192 h -0.976563 q 0,-0.325521 -0.205078,-0.5045576 -0.205078,-0.1822917 -0.576172,-0.1822917 -0.358073,0 -0.556641,0.1529948 -0.198568,0.1497397 -0.198568,0.3971356 0,0.2311199 0.23112,0.38737 0.234375,0.1562501 0.686849,0.2929689 0.833334,0.2506512 1.214194,0.6217451 0.380859,0.3710939 0.380859,0.9244796 0,0.61523467 -0.465495,0.96679734 -0.465495,0.34830746 -1.253256,0.34830746 -0.546875,0 -0.996094,-0.19856781 -0.449219,-0.20182301 -0.686849,-0.55013047 -0.234375,-0.34830742 -0.234375,-0.80729202 h 0.979818 q 0,0.78450555 0.9375,0.78450555 0.348308,0 0.54362,-0.13997402 0.195313,-0.14322924 0.195313,-0.39713563 z"/>
      <path id="path5263" style="font-weight:bold;font-size:6.66667px;font-family:Roboto, sans-serif;letter-spacing:2px;fill:#333333" d="m 21.384122,-2.0540374 h -1.875001 v 1.26953182 h 2.200522 V 0 h -3.177085 v -4.7395856 h 3.170574 v 0.791016 h -2.194011 v 1.1295578 h 1.875001 z"/>
      <path id="path5265" style="font-weight:bold;font-size:6.66667px;font-family:Roboto, sans-serif;letter-spacing:2px;fill:#333333" d="M 27.915373,-3.9485696 H 26.46355 V 0 h -0.976563 v -3.9485696 h -1.432292 v -0.791016 h 3.860678 z"/>
    </g>
    <g transform="translate(5,73)" id="g5130"/>
    <g style="font-weight:bold;font-size:6.66667px;font-family:Roboto, sans-serif;letter-spacing:2px;fill:#333333" id="text5132" transform="translate(3,105)" aria-label="V/OCT">
      <path id="path5268" style="font-weight:bold;font-size:6.66667px;font-family:Roboto, sans-serif;letter-spacing:2px;fill:#333333" d="M 2.1744802,-1.1751308 3.2486995,-4.7395856 H 4.3359396 L 2.6855482,0 H 1.6666675 L 0.02278647,-4.7395856 H 1.1067714 Z"/>
      <path id="path5270" style="font-weight:bold;font-size:6.66667px;font-family:Roboto, sans-serif;letter-spacing:2px;fill:#333333" d="M 7.0195338,0.40690124 H 6.3196637 L 8.0644562,-4.7395856 h 0.6998701 z"/>
      <path id="path5272" style="font-weight:bold;font-size:6.66667px;font-family:Roboto, sans-serif;letter-spacing:2px;fill:#333333" d="m 15.16537,-2.2623709 q 0,0.6998702 -0.247396,1.2272142 -0.247396,0.52734396 -0.709636,0.81380243 -0.458984,0.28645847 -1.054688,0.28645847 -0.589193,0 -1.051432,-0.28320326 -0.46224,-0.28320326 -0.716147,-0.80729204 -0.253906,-0.527344 -0.257161,-1.2109381 v -0.2343751 q 0,-0.6998701 0.250651,-1.2304693 0.253906,-0.5338545 0.712891,-0.8170577 0.46224,-0.2864585 1.054688,-0.2864585 0.592448,0 1.051433,0.2864585 0.46224,0.2832032 0.712891,0.8170577 0.253906,0.5305992 0.253906,1.2272141 z m -0.989584,-0.2148438 q 0,-0.7454431 -0.266927,-1.1328131 -0.266927,-0.3873699 -0.761719,-0.3873699 -0.491537,0 -0.758464,0.3841147 -0.266927,0.3808596 -0.270182,1.1197922 v 0.2311199 q 0,0.7259118 0.266927,1.1263026 0.266927,0.40039087 0.768229,0.40039087 0.491537,0 0.755209,-0.38411477 0.263672,-0.38737 0.266927,-1.1263026 z"/>
      <path id="path5274" style="font-weight:bold;font-size:6.66667px;font-family:Roboto, sans-serif;letter-spacing:2px;fill:#333333" d="m 21.602222,-1.5787768 q -0.05534,0.76497433 -0.566407,1.20442766 -0.507812,0.43945334 -1.341146,0.43945334 -0.911459,0 -1.435548,-0.61197946 Q 17.738288,-1.1621099 17.738288,-2.233074 v -0.2897137 q 0,-0.683594 0.240885,-1.2044276 0.240886,-0.5208336 0.68685,-0.7975264 0.449219,-0.2799481 1.041667,-0.2799481 0.820313,0 1.321615,0.4394533 0.501302,0.4394534 0.579427,1.2337246 h -0.976563 q -0.03581,-0.4589846 -0.257161,-0.6640628 -0.218099,-0.2083335 -0.667318,-0.2083335 -0.488282,0 -0.732423,0.3515627 -0.240885,0.3483075 -0.247395,1.0839849 v 0.3580731 q 0,0.7682295 0.231119,1.1230474 0.234376,0.35481788 0.735678,0.35481788 0.452474,0 0.673828,-0.20507823 0.22461,-0.20833345 0.257162,-0.64127635 z"/>
      <path id="path5276" style="font-weight:bold;font-size:6.66667px;font-family:Roboto, sans-serif;letter-spacing:2px;fill:#333333" d="M 27.720063,-3.9485696 H 26.268239 V 0 h -0.976563 v -3.9485696 h -1.432292 v -0.791016 h 3.860679 z"/>
    </g>
    <g transform="translate(5,108)" id="g5134"/>
    <g style="font-weight:bold;font-size:6.66667px;font-family:Roboto, sans-serif;letter-spacing:2px;fill:#333333" id="text5136" transform="translate(5.5,140)" aria-label="GATE">
      <path id="path5279" style="font-weight:bold;font-size:6.66667px;font-family:Roboto, sans-serif;letter-spacing:2px;fill:#333333" d="M 4.1731791,-0.59895862 Q 3.9095071,-0.28320326 3.427736,-0.10742193 2.9459649,0.0651042 2.3600272,0.0651042 q -0.6152347,0 -1.0807297,-0.26692721 Q 0.81705768,-0.47200543 0.56315131,-0.98307339 0.31250015,-1.4941413 0.30598973,-2.1842458 v -0.3222658 q 0,-0.7096358 0.23763032,-1.2272141 0.24088553,-0.5208336 0.69010445,-0.7942713 0.4524742,-0.2766928 1.0579433,-0.2766928 0.8430993,0 1.31836,0.403646 0.4752606,0.4003909 0.5631513,1.1686204 H 3.2226578 Q 3.1575536,-3.6393247 2.9329441,-3.8281268 2.7115898,-4.016929 2.3209646,-4.016929 q -0.4980471,0 -0.7584639,0.3743491 -0.2604167,0.3743492 -0.263672,1.1132818 v 0.3027345 q 0,0.7454431 0.2832033,1.1263027 0.2832033,0.38085952 0.8300785,0.38085952 0.5501305,0 0.7845056,-0.23437512 V -1.7708342 H 2.3079438 v -0.7194014 h 1.8652353 z"/>
      <path id="path5281" style="font-weight:bold;font-size:6.66667px;font-family:Roboto, sans-serif;letter-spacing:2px;fill:#333333" d="M 9.6432327,-0.97656297 H 7.9309923 L 7.6054713,0 H 6.5670594 L 8.3313831,-4.7395856 H 9.2363315 L 11.010421,0 H 9.9720089 Z M 8.1946643,-1.767579 H 9.3795607 L 8.7838573,-3.5416684 Z"/>
      <path id="path5283" style="font-weight:bold;font-size:6.66667px;font-family:Roboto, sans-serif;letter-spacing:2px;fill:#333333" d="M 16.636725,-3.9485696 H 15.184901 V 0 h -0.976562 v -3.9485696 h -1.432293 v -0.791016 h 3.860679 z"/>
      <path id="path5285" style="font-weight:bold;font-size:6.66667px;font-family:Roboto, sans-serif;letter-spacing:2px;fill:#333333" d="m 22.048184,-2.0540374 h -1.875001 v 1.26953182 h 2.200522 V 0 h -3.177084 v -4.7395856 h 3.170574 v 0.791016 h -2.194012 v 1.1295578 h 1.875001 z"/>
    </g>
  </g>
  <g transform="translate(5.5,275)" id="g5152">
    <path d="M 0,0 H 34 V 10 H 0 Z" style="fill:#bbbbbb" transform="translate(0,-3)" id="rect5140"/>
    <path d="m 5,0 h 24 c 2.77,0 5,2.23 5,5 v 60 c 0,2.77 -2.23,5 -5,5 H 5 C 2.23,70 0,67.77 0,65 V 5 C 0,2.23 2.23,0 5,0 Z" style="fill:#bbbbbb" id="rect5142"/>
    <g transform="translate(5)" id="g5144"/>
    <g style="font-weight:bold;font-size:6.66667px;font-family:Roboto, sans-serif;letter-spacing:2px;fill:#333333" id="text5146" transform="translate(3,32)" aria-label="V/OCT">
      <path id="path5224" style="font-weight:bold;font-size:6.66667px;font-family:Roboto, sans-serif;letter-spacing:2px;fill:#333333" d="M 2.1744802,-1.1751308 3.2486995,-4.7395856 H 4.3359396 L 2.6855482,0 H 1.6666675 L 0.02278647,-4.7395856 H 1.1067714 Z"/>
      <path id="path5226" style="font-weight:bold;font-size:6.66667px;font-family:Roboto, sans-serif;letter-spacing:2px;fill:#333333" d="M 7.0195338,0.40690124 H 6.3196637 L 8.0644562,-4.7395856 h 0.6998701 z"/>
      <path id="path5228" style="font-weight:bold;font-size:6.66667px;font-family:Roboto, sans-serif;letter-spacing:2px;fill:#333333" d="m 15.16537,-2.2623709 q 0,0.6998702 -0.247396,1.2272142 -0.247396,0.52734396 -0.709636,0.81380243 -0.458984,0.28645847 -1.054688,0.28645847 -0.589193,0 -1.051432,-0.28320326 -0.46224,-0.28320326 -0.716147,-0.80729204 -0.253906,-0.527344 -0.257161,-1.2109381 v -0.2343751 q 0,-0.6998701 0.250651,-1.2304693 0.253906,-0.5338545 0.712891,-0.8170577 0.46224,-0.2864585 1.054688,-0.2864585 0.592448,0 1.051433,0.2864585 0.46224,0.2832032 0.712891,0.8170577 0.253906,0.5305992 0.253906,1.2272141 z m -0.989584,-0.2148438 q 0,-0.7454431 -0.266927,-1.1328131 -0.266927,-0.3873699 -0.761719,-0.3873699 -0.491537,0 -0.758464,0.3841147 -0.266927,0.3808596 -0.270182,1.1197922 v 0.2311199 q 0,0.7259118 0.266927,1.1263026 0.266927,0.40039087 0.768229,0.40039087 0.491537,0 0.755209,-0.38411477 0.263672,-0.38737 0.266927,-1.1263026 z"/>
      <path id="path5230" style="font-weight:bold;font-size:6.66667px;font-family:Roboto, sans-serif;letter-spacing:2px;fill:#333333" d="m 21.602222,-1.5787768 q -0.05534,0.76497433 -0.566407,1.20442766 -0.507812,0.43945334 -1.341146,0.43945334 -0.911459,0 -1.435548,-0.61197946 Q 17.738288,-1.1621099 17.738288,-2.233074 v -0.2897137 q 0,-0.683594 0.240885,-1.2044276 0.240886,-0.5208336 0.68685,-0.7975264 0.449219,-0.2799481 1.041667,-0.2799481 0.820313,0 1.321615,0.4394533 0.501302,0.4394534 0.579427,1.2337246 h -0.976563 q -0.03581,-0.4589846 -0.257161,-0.6640628 -0.218099,-0.2083335 -0.667318,-0.2083335 -0.488282,0 -0.732423,0.3515627 -0.240885,0.3483075 -0.247395,1.0839849 v 0.3580731 q 0,0.7682295 0.231119,1.1230474 0.234376,0.35481788 0.735678,0.35481788 0.452474,0 0.673828,-0.20507823 0.22461,-0.20833345 0.257162,-0.64127635 z"/>
      <path id="path5232" style="font-weight:bold;font-size:6.66667px;font-family:Roboto, sans-serif;letter-spacing:2px;fill:#333333" d="M 27.720063,-3.9485696 H 26.268239 V 0 h -0.976563 v -3.9485696 h -1.432292 v -0.791016 h 3.860679 z"/>
    </g>
    <g transform="translate(5,35)" id="g5148"/>
    <g style="font-weight:bold;font-size:6.66667px;font-family:Roboto, sans-serif;letter-spacing:2px;fill:#333333" id="text5150" transform="translate(5.5,67)" aria-label="GATE">
      <path id="path5235" style="font-weight:bold;font-size:6.66667px;font-family:Roboto, sans-serif;letter-spacing:2px;fill:#333333" d="M 4.1731791,-0.59895862 Q 3.9095071,-0.28320326 3.427736,-0.10742193 2.9459649,0.0651042 2.3600272,0.0651042 q -0.6152347,0 -1.0807297,-0.26692721 Q 0.81705768,-0.47200543 0.56315131,-0.98307339 0.31250015,-1.4941413 0.30598973,-2.1842458 v -0.3222658 q 0,-0.7096358 0.23763032,-1.2272141 0.24088553,-0.5208336 0.69010445,-0.7942713 0.4524742,-0.2766928 1.0579433,-0.2766928 0.8430993,0 1.31836,0.403646 0.4752606,0.4003909 0.5631513,1.1686204 H 3.2226578 Q 3.1575536,-3.6393247 2.9329441,-3.8281268 2.7115898,-4.016929 2.3209646,-4.016929 q -0.4980471,0 -0.7584639,0.3743491 -0.2604167,0.3743492 -0.263672,1.1132818 v 0.3027345 q 0,0.7454431 0.2832033,1.1263027 0.2832033,0.38085952 0.8300785,0.38085952 0.5501305,0 0.7845056,-0.23437512 V -1.7708342 H 2.3079438 v -0.7194014 h 1.8652353 z"/>
      <path id="path5237" style="font-weight:bold;font-size:6.66667px;font-family:Roboto, sans-serif;letter-spacing:2px;fill:#333333" d="M 9.6432327,-0.97656297 H 7.9309923 L 7.6054713,0 H 6.5670594 L 8.3313831,-4.7395856 H 9.2363315 L 11.010421,0 H 9.9720089 Z M 8.1946643,-1.767579 H 9.3795607 L 8.7838573,-3.5416684 Z"/>
      <path id="path5239" style="font-weight:bold;font-size:6.66667px;font-family:Roboto, sans-serif;letter-spacing:2px;fill:#333333" d="M 16.636725,-3.9485696 H 15.184901 V 0 h -0.976562 v -3.9485696 h -1.432293 v -0.791016 h 3.860679 z"/>
      <path id="path5241" style="font-weight:bold;font-size:6.66667px;font-family:Roboto, sans-serif;letter-spacing:2px;fill:#333333" d="m 22.048184,-2.0540374 h -1.875001 v 1.26953182 h 2.200522 V 0 h -3.177084 v -4.7395856 h 3.170574 v 0.791016 h -2.194012 v 1.1295578 h 1.875001 z"/>
    </g>
  </g>
</svg>
