<?xml version="1.0" encoding="UTF-8" standalone="no"?>
<svg xmlns:dc="http://purl.org/dc/elements/1.1/" xmlns:cc="http://creativecommons.org/ns#" xmlns:rdf="http://www.w3.org/1999/02/22-rdf-syntax-ns#" xmlns:svg="http://www.w3.org/2000/svg" xmlns="http://www.w3.org/2000/svg" xmlns:sodipodi="http://sodipodi.sourceforge.net/DTD/sodipodi-0.dtd" xmlns:inkscape="http://www.inkscape.org/namespaces/inkscape" inkscape:version="1.0 (4035a4f, 2020-05-01)" sodipodi:docname="svg_render_ASR-pp.svg" id="svg1601" viewBox="0 0 45 380" height="380" width="45" version="1.1">
  <metadata id="metadata1607">
    <rdf:RDF>
      <cc:Work rdf:about="">
        <dc:format>image/svg+xml</dc:format>
        <dc:type rdf:resource="http://purl.org/dc/dcmitype/StillImage"/>
      </cc:Work>
    </rdf:RDF>
  </metadata>
  <defs id="defs1605"/>
  <sodipodi:namedview inkscape:current-layer="svg1601" inkscape:window-maximized="0" inkscape:window-y="23" inkscape:window-x="0" inkscape:cy="190" inkscape:cx="22.5" inkscape:zoom="1.7605263" showgrid="false" id="namedview1603" inkscape:window-height="480" inkscape:window-width="689" inkscape:pageshadow="2" inkscape:pageopacity="0" guidetolerance="10" gridtolerance="10" objecttolerance="10" borderopacity="1" bordercolor="#666666" pagecolor="#ffffff"/>
  
  <path d="M 0,0 H 45 V 380 H 0 Z" style="fill:#dddddd" id="rect1401"/>
  <path d="M 1,1 H 44 V 379 H 1 V 1" style="fill:none;stroke:#e4e4e4;stroke-width:0.5" id="polyline1403"/>
  <path d="m 0.5,0.5 h 44 v 379 H 0.5 V 0.5" style="fill:none;stroke:#ebebeb;stroke-width:0.8" id="polyline1405"/>
  <path d="M 0,0 H 45 V 380 H 0 V 0" style="fill:none;stroke:#f2f2f2;stroke-width:1" id="polyline1407"/>
  <!-- <polyline points="22.5,0 22.5,380" stroke-width="0.5" stroke="#0f0" /> -->
  <!-- <polyline points="13,0 13,380" stroke-width="0.5" stroke="#0f0" /> -->
  <!-- <polyline points="32,0 32,380" stroke-width="0.5" stroke="#0f0" /> -->
  <!-- <rect width="45" height="10" fill="#0f0" transform="translate(0 68)" /> -->
  <!-- <rect width="45" height="10" fill="#0f0" transform="translate(0 127)" /> -->
  <!-- <rect width="45" height="10" fill="#0f0" transform="translate(0 177)" /> -->
  <g class="title" style="font-weight:normal;font-size:9.33333px;font-family:Comfortaa, sans-serif;letter-spacing:2.5px;fill:#333333" id="text1409" transform="rotate(-90)" aria-label="ASR">
    <path id="path1826" style="font-weight:normal;font-size:9.33333px;font-family:Comfortaa, sans-serif;letter-spacing:2.5px;fill:#333333" d="m -369.59734,12.486667 q 0.0373,0.06533 0.0373,0.149333 0,0.149333 -0.112,0.261333 Q -369.77467,13 -369.924,13 q -0.24267,0 -0.34534,-0.224 l -0.62533,-1.511999 h -3.612 L -375.132,12.776 q -0.0747,0.224 -0.336,0.224 -0.15867,0 -0.26133,-0.102667 -0.0933,-0.112 -0.0933,-0.261333 0,-0.09333 0.028,-0.158666 l 2.744,-6.5146649 q 0.10267,-0.252 0.35467,-0.252 0.252,0 0.34533,0.252 z m -1.54933,-1.848 -1.54933,-3.7426649 -1.54933,3.7426649 z"/>
    <path id="path1828" style="font-weight:normal;font-size:9.33333px;font-family:Comfortaa, sans-serif;letter-spacing:2.5px;fill:#333333" d="m -363.76417,13.093333 q -0.88667,0 -1.57733,-0.373333 -0.68134,-0.382666 -0.98,-1.026666 -0.0373,-0.06533 -0.0373,-0.149334 0,-0.130666 0.0933,-0.214666 0.10266,-0.09333 0.27066,-0.09333 0.112,0 0.20534,0.06533 0.10266,0.056 0.14933,0.168 0.21467,0.42 0.70933,0.681333 0.504,0.252 1.16667,0.252 0.76533,0 1.232,-0.364 0.46667,-0.373333 0.46667,-1.036 0,-0.587999 -0.43867,-0.989333 -0.42933,-0.4013328 -1.29733,-0.5133328 -1.08267,-0.1306666 -1.708,-0.6719998 -0.616,-0.5506665 -0.616,-1.3439995 0,-0.5599998 0.29866,-0.9799997 0.308,-0.4293332 0.84,-0.6533331 0.54134,-0.2333333 1.22267,-0.2333333 0.73733,0 1.29733,0.3266666 0.56,0.3266666 0.87734,0.849333 0.0653,0.1026667 0.0653,0.224 0,0.1773332 -0.168,0.2799999 -0.0747,0.037333 -0.168,0.037333 -0.10267,0 -0.196,-0.046667 -0.084,-0.056 -0.14,-0.1493332 -0.52267,-0.8213331 -1.57733,-0.8306664 -0.756,0 -1.19467,0.3173332 -0.43867,0.3173332 -0.43867,0.905333 0,1.0919997 1.764,1.3253329 1.15734,0.168 1.72667,0.7093331 0.56933,0.5413335 0.56933,1.4279995 0,0.653333 -0.31733,1.129333 -0.31733,0.476 -0.868,0.728 -0.55067,0.242666 -1.232,0.242666 z"/>
    <path id="path1830" style="font-weight:normal;font-size:9.33333px;font-family:Comfortaa, sans-serif;letter-spacing:2.5px;fill:#333333" d="m -352.76982,12.44 q 0.084,0.14 0.084,0.252 0,0.14 -0.10266,0.224 -0.10267,0.084 -0.27067,0.084 -0.112,0 -0.18667,-0.04667 -0.0747,-0.04667 -0.13066,-0.14 l -1.68,-2.669332 h -0.15867 -1.38133 V 12.636 q 0,0.158667 -0.10267,0.261333 Q -356.80182,13 -356.96048,13 q -0.15867,0 -0.26134,-0.102667 -0.10266,-0.102666 -0.10266,-0.261333 V 6.074669 q 0,-0.1586666 0.10266,-0.2613332 0.10267,-0.1026667 0.26134,-0.1026667 h 1.74533 q 0.68133,0 1.21333,0.2893333 0.532,0.2799999 0.83067,0.793333 0.308,0.5133332 0.308,1.1666663 0,0.7186664 -0.392,1.2599996 -0.38267,0.5413331 -1.04533,0.7746664 z m -2.44533,-2.9959988 q 0.46667,0 0.84,-0.1866666 0.38267,-0.1959999 0.588,-0.5319998 0.21467,-0.3359999 0.21467,-0.7653331 0,-0.4479998 -0.21467,-0.8026664 -0.20533,-0.3546665 -0.57867,-0.5506665 -0.37333,-0.1959999 -0.84933,-0.1959999 h -1.38133 v 3.0333323 z"/>
  </g>
  <g transform="rotate(-90,200.5,175.5)" id="g1415">
    <g class="brand" style="font-weight:bold;font-size:9.33333px;font-family:Audiowide, sans-serif;letter-spacing:2px;fill:#333333" id="text1411" aria-label="BGA">
      <path id="path1818" style="font-weight:bold;font-size:9.33333px;font-family:Audiowide, sans-serif;letter-spacing:2px;fill:#333333" d="m 7.209633,-1.4355464 q 0,0.2187499 -0.077474,0.4694009 -0.072917,0.25065095 -0.2460936,0.46484359 Q 6.7174456,-0.28710928 6.4440082,-0.14127599 6.1705708,0 5.7740866,0 H 1.2760412 Q 1.1484371,0 1.0390621,-0.0455729 0.92968718,-0.0911458 0.84765596,-0.16861973 0.77018203,-0.25065096 0.72460913,-0.36002592 0.67903623,-0.46940088 0.67903623,-0.597005 v -5.341144 q 0,-0.1230469 0.0455729,-0.2324218 0.0455729,-0.109375 0.12304683,-0.1914062 0.0820312,-0.082031 0.19140614,-0.1276041 0.109375,-0.045573 0.2369791,-0.045573 h 3.9648424 q 0.21875,0 0.4694009,0.077474 0.250651,0.077474 0.4648436,0.250651 0.2187499,0.1686197 0.3600259,0.4420571 0.1458333,0.2734374 0.1458333,0.6699217 v 0.2233072 q 0,0.314453 -0.1048177,0.6790362 -0.1048176,0.3600259 -0.3372394,0.6835935 0.2005207,0.1230468 0.3736978,0.2962239 0.1777343,0.173177 0.3098957,0.4010415 0.1321614,0.2278645 0.2096353,0.5149738 0.077474,0.2871093 0.077474,0.6334633 z M 6.0247375,-1.6634109 q 0,-0.2324218 -0.072917,-0.4147134 Q 5.8789042,-2.2649732 5.7467428,-2.3971346 5.6145814,-2.529296 5.4277325,-2.5976554 5.2408836,-2.670572 5.0084618,-2.670572 h -2.670572 v -1.19401 h 2.1373691 q 0.2324218,0 0.4192707,-0.068359 0.1868489,-0.072917 0.3190103,-0.205078 0.1321614,-0.1321614 0.2005208,-0.314453 0.072917,-0.1868489 0.072917,-0.4192707 v -0.2233072 q 0,-0.2552083 -0.2460937,-0.2552083 H 1.8639317 v 4.1653632 h 3.9101549 q 0.031901,0 0.077474,-0.00456 0.045573,-0.00456 0.082031,-0.027344 0.036458,-0.022786 0.063802,-0.077474 0.027344,-0.054687 0.027344,-0.1503906 z"/>
      <path id="path1820" style="font-weight:bold;font-size:9.33333px;font-family:Audiowide, sans-serif;letter-spacing:2px;fill:#333333" d="m 16.683589,-0.597005 q 0,0.12760412 -0.04557,0.23697908 -0.04557,0.10937496 -0.127605,0.19140619 -0.07747,0.07747393 -0.186849,0.12304683 Q 16.214189,0 16.086584,0 h -4.274738 q -0.164062,0 -0.355468,-0.03645832 -0.186849,-0.04101561 -0.373698,-0.12304683 -0.182292,-0.0820312 -0.350911,-0.20963535 -0.16862,-0.13216141 -0.300782,-0.31445302 -0.127604,-0.18684889 -0.205078,-0.42838528 -0.07747,-0.2460937 -0.07747,-0.5514321 v -3.2083322 q 0,-0.1640625 0.03646,-0.3509114 0.04101,-0.1914062 0.123047,-0.3736978 0.08203,-0.1868489 0.214192,-0.3554686 0.132162,-0.1686197 0.314453,-0.2962238 0.186849,-0.1321615 0.428385,-0.2096354 0.241537,-0.077474 0.546875,-0.077474 h 4.817056 v 1.1848954 h -4.817056 q -0.232422,0 -0.355468,0.1230468 -0.123047,0.1230469 -0.123047,0.3645832 v 3.1992177 q 0,0.2278645 0.123047,0.3554686 0.127604,0.1230469 0.355468,0.1230469 h 3.686848 V -2.670572 h -3.153645 v -1.19401 h 3.741535 q 0.127605,0 0.236979,0.05013 0.109375,0.045573 0.186849,0.1276041 0.08203,0.082031 0.127605,0.1914062 0.04557,0.1048177 0.04557,0.2278645 z"/>
      <path id="path1822" style="font-weight:bold;font-size:9.33333px;font-family:Audiowide, sans-serif;letter-spacing:2px;fill:#333333" d="M 26.339836,0 H 25.154941 V -1.6041661 H 20.989578 V 0 h -1.184896 v -3.267577 q 0,-0.7154946 0.246094,-1.3170569 0.246094,-0.6015623 0.683593,-1.0345048 0.4375,-0.4329426 1.034505,-0.6744789 0.597005,-0.2415364 1.303385,-0.2415364 h 2.670572 q 0.123047,0 0.232422,0.045573 0.109375,0.045573 0.191406,0.1276041 0.08203,0.082031 0.127604,0.1914062 0.04557,0.1093749 0.04557,0.2324218 z m -5.350258,-2.7890616 h 4.165363 v -2.561197 h -2.082682 q -0.05469,0 -0.232422,0.018229 -0.173177,0.013672 -0.405598,0.077474 -0.227865,0.063802 -0.483073,0.1959635 -0.255208,0.1321614 -0.469401,0.3645832 -0.214193,0.2324218 -0.355469,0.5833331 -0.136718,0.3463541 -0.136718,0.8430987 z"/>
    </g>
    <path d="M 0,0 H 3 V 3 H 0 Z" style="fill:#dddddd" transform="translate(11.5,-5)" id="rect1413"/>
  </g>
  <g style="font-weight:bold;font-size:8px;font-family:Roboto, sans-serif;letter-spacing:1.5px;fill:#333333" id="text1419" aria-label="ATTACK">
    <path id="path1801" style="font-weight:bold;font-size:8px;font-family:Roboto, sans-serif;letter-spacing:1.5px;fill:#333333" d="M 7.21875,23.828125 H 5.1640625 L 4.7734375,25 H 3.5273438 L 5.6445312,19.3125 H 6.7304687 L 8.859375,25 H 7.6132812 Z M 5.4804687,22.878906 h 1.421875 L 6.1875,20.75 Z"/>
    <path id="path1803" style="font-weight:bold;font-size:8px;font-family:Roboto, sans-serif;letter-spacing:1.5px;fill:#333333" d="M 14.710938,20.261719 H 12.96875 V 25 h -1.171875 v -4.738281 h -1.71875 V 19.3125 h 4.632813 z"/>
    <path id="path1805" style="font-weight:bold;font-size:8px;font-family:Roboto, sans-serif;letter-spacing:1.5px;fill:#333333" d="M 21.226562,20.261719 H 19.484375 V 25 H 18.3125 V 20.261719 H 16.59375 V 19.3125 h 4.632812 z"/>
    <path id="path1807" style="font-weight:bold;font-size:8px;font-family:Roboto, sans-serif;letter-spacing:1.5px;fill:#333333" d="M 26.140625,23.828125 H 24.085937 L 23.695312,25 h -1.246093 l 2.117187,-5.6875 h 1.085938 L 27.78125,25 h -1.246094 z m -1.738281,-0.949219 h 1.421875 L 25.109375,20.75 Z"/>
    <path id="path1809" style="font-weight:bold;font-size:8px;font-family:Roboto, sans-serif;letter-spacing:1.5px;fill:#333333" d="m 34.207031,23.105469 q -0.06641,0.917968 -0.679687,1.445312 -0.609375,0.527344 -1.609375,0.527344 -1.09375,0 -1.722657,-0.734375 -0.625,-0.738281 -0.625,-2.023438 v -0.347656 q 0,-0.820312 0.289063,-1.445312 0.289062,-0.625 0.824219,-0.957032 0.539062,-0.335937 1.25,-0.335937 0.984375,0 1.585937,0.527344 0.601563,0.527343 0.695313,1.480468 H 33.042969 Q 33,20.691406 32.734375,20.445312 q -0.261719,-0.25 -0.800781,-0.25 -0.585938,0 -0.878907,0.421875 -0.289062,0.417969 -0.296875,1.300782 v 0.429687 q 0,0.921875 0.277344,1.347656 0.28125,0.425782 0.882813,0.425782 0.542968,0 0.808593,-0.246094 0.269532,-0.25 0.308594,-0.769531 z"/>
    <path id="path1811" style="font-weight:bold;font-size:8px;font-family:Roboto, sans-serif;letter-spacing:1.5px;fill:#333333" d="M 38.257812,22.71875 37.648437,23.375 V 25 h -1.171875 v -5.6875 h 1.171875 v 2.578125 l 0.515625,-0.707031 1.449219,-1.871094 h 1.441406 L 39.035156,21.839844 41.113281,25 H 39.71875 Z"/>
  </g>
  <g transform="translate(0,25)" id="g1421"/>
  <g transform="translate(0,25)" id="g1481">
    <svg version="1.1" id="svg1479" width="100%" height="100%">
      <g transform="translate(22.5,22.5)" id="g1477">
        <g transform="rotate(120,-8.5,4.9074773)" id="g1427">
          <g transform="rotate(-120,1.5,-0.8660254)" id="g1425">
            <g style="font-weight:bold;font-size:8.66667px;font-family:Roboto, sans-serif;fill:#333333" id="text1423" transform="translate(-2.8,3.3)" aria-label="0">
              <path id="path1783" style="font-weight:bold;font-size:8.66667px;font-family:Roboto, sans-serif;fill:#333333" d="m 4.5660824,-2.547527 q 0,1.2779953 -0.5289715,1.95507887 -0.5289716,0.67708358 -1.5488287,0.67708358 -1.0071619,0 -1.54036519,-0.66438827 Q 0.41471369,-1.2441411 0.40201838,-2.4840504 v -1.134115 q 0,-1.2906906 0.53320332,-1.9593106 0.5374351,-0.66862 1.5445969,-0.66862 1.0071618,0 1.5403652,0.6643882 0.5332033,0.6601565 0.5458986,1.9000658 z M 3.3431002,-3.7916681 q 0,-0.7659508 -0.2115886,-1.1129561 -0.2073569,-0.3512371 -0.651693,-0.3512371 -0.4316408,0 -0.6389976,0.33431 -0.2031251,0.3300783 -0.2158204,1.0367843 v 1.4980474 q 0,0.7532555 0.2031251,1.1214197 0.2073568,0.36393238 0.6601565,0.36393238 0.4485678,0 0.6474611,-0.35123708 0.1988933,-0.3512371 0.2073569,-1.0748702 z"/>
            </g>
          </g>
        </g>
        <g transform="rotate(-172.92,-8.5,-0.52583884)" id="g1431">
          <path d="M 0,0 H 1.5" style="stroke:#333333;stroke-width:0.3" id="polyline1429"/>
        </g>
        <g transform="rotate(-145.13,-8.5,-2.6694419)" id="g1437">
          <g transform="rotate(145.13,1.5,0.47107798)" id="g1435">
            <g style="font-weight:bold;font-size:8.66667px;font-family:Roboto, sans-serif;fill:#333333" id="text1433" transform="translate(-2.8,3.3)" aria-label="1">
              <path id="path1787" style="font-weight:bold;font-size:8.66667px;font-family:Roboto, sans-serif;fill:#333333" d="M 3.3896497,0 H 2.1666675 V -4.7141944 L 0.70670599,-4.2613948 V -5.2558613 L 3.2584647,-6.1699241 h 0.131185 z"/>
            </g>
          </g>
        </g>
        <g transform="rotate(-105.84,-8.5,-6.4238366)" id="g1441">
          <path d="M 0,0 H 3" style="stroke:#333333;stroke-width:0.3" id="polyline1439"/>
        </g>
        <g transform="rotate(-75.68,-8.5,-10.942351)" id="g1445">
          <path d="M 0,0 H 3" style="stroke:#333333;stroke-width:0.3" id="polyline1443"/>
        </g>
        <g transform="rotate(-50.26,-8.5,-18.120852)" id="g1449">
          <path d="M 0,0 H 3" style="stroke:#333333;stroke-width:0.3" id="polyline1447"/>
        </g>
        <g transform="rotate(-27.87,-8.5,-34.257154)" id="g1455">
          <g transform="rotate(27.87,1.5,6.0453801)" id="g1453">
            <g style="font-weight:bold;font-size:8.66667px;font-family:Roboto, sans-serif;fill:#333333" id="text1451" transform="translate(-2.8,3.3)" aria-label="5">
              <path id="path1793" style="font-weight:bold;font-size:8.66667px;font-family:Roboto, sans-serif;fill:#333333" d="M 0.60091168,-3.029949 0.95638056,-6.1614606 H 4.4095068 v 1.0198572 H 1.9593106 l -0.1523438,1.3245447 q 0.4358726,-0.2327475 0.9267582,-0.2327475 0.8802086,0 1.3795578,0.5458987 0.4993491,0.5458986 0.4993491,1.5276698 0,0.5966799 -0.2539063,1.07063841 -0.2496746,0.46972673 -0.7194013,0.73209662 -0.4697268,0.25813812 -1.1087244,0.25813812 -0.558594,0 -1.0367842,-0.22428394 Q 1.0156254,-0.3681642 0.7363284,-0.77864612 0.46126319,-1.189128 0.4443361,-1.7138678 H 1.654623 q 0.038086,0.3850913 0.2666017,0.6009117 0.2327474,0.21158858 0.6051434,0.21158858 0.4147137,0 0.6389976,-0.29622408 0.224284,-0.3004558 0.224284,-0.8463545 0,-0.5247397 -0.2581381,-0.8040367 -0.2581382,-0.279297 -0.7320967,-0.279297 -0.4358725,0 -0.7067059,0.2285157 L 1.5742193,-2.788738 Z"/>
            </g>
          </g>
        </g>
        <g transform="rotate(-7.62,-8.5,-127.63677)" id="g1459">
          <path d="M 0,0 H 3" style="stroke:#333333;stroke-width:0.3" id="polyline1457"/>
        </g>
        <g transform="rotate(11,-8.5,88.275875)" id="g1463">
          <path d="M 0,0 H 3" style="stroke:#333333;stroke-width:0.3" id="polyline1461"/>
        </g>
        <g transform="rotate(28.33,-8.5,33.678168)" id="g1467">
          <path d="M 0,0 H 3" style="stroke:#333333;stroke-width:0.3" id="polyline1465"/>
        </g>
        <g transform="rotate(44.6,-8.5,20.725142)" id="g1471">
          <path d="M 0,0 H 3" style="stroke:#333333;stroke-width:0.3" id="polyline1469"/>
        </g>
        <g transform="rotate(60,-8.5,14.722432)" id="g1475">
          <path d="M 0,0 H 3" style="stroke:#333333;stroke-width:0.3" id="polyline1473"/>
        </g>
      </g>
    </svg>
  </g>
  <g transform="translate(20.8,65)" id="g1483"/>
  <g style="font-weight:bold;font-size:8px;font-family:Roboto, sans-serif;letter-spacing:1px;fill:#333333" id="text1487" aria-label="RELEASE">
    <path id="path1768" style="font-weight:bold;font-size:8px;font-family:Roboto, sans-serif;letter-spacing:1px;fill:#333333" d="M 5.1132812,79.917969 H 4.1796875 V 82 h -1.171875 v -5.6875 h 2.1132812 q 1.0078125,0 1.5546875,0.449219 0.546875,0.449218 0.546875,1.269531 0,0.582031 -0.2539062,0.972656 -0.25,0.386719 -0.7617188,0.617188 L 7.4375,81.945312 V 82 H 6.1796875 Z M 4.1796875,78.96875 H 5.125 q 0.4414062,0 0.6835937,-0.222656 0.2421875,-0.226563 0.2421875,-0.621094 0,-0.402344 -0.2304687,-0.632813 Q 5.59375,77.261719 5.1210937,77.261719 H 4.1796875 Z"/>
    <path id="path1770" style="font-weight:bold;font-size:8px;font-family:Roboto, sans-serif;letter-spacing:1px;fill:#333333" d="m 12.539063,79.535156 h -2.25 v 1.523438 h 2.640625 V 82 H 9.1171875 v -5.6875 h 3.8046875 v 0.949219 h -2.632812 v 1.355468 h 2.25 z"/>
    <path id="path1772" style="font-weight:bold;font-size:8px;font-family:Roboto, sans-serif;letter-spacing:1px;fill:#333333" d="m 15.789063,81.058594 h 2.488281 V 82 h -3.660156 v -5.6875 h 1.171875 z"/>
    <path id="path1774" style="font-weight:bold;font-size:8px;font-family:Roboto, sans-serif;letter-spacing:1px;fill:#333333" d="m 23.367187,79.535156 h -2.25 v 1.523438 h 2.640625 V 82 h -3.8125 V 76.3125 H 23.75 v 0.949219 h -2.632813 v 1.355468 h 2.25 z"/>
    <path id="path1776" style="font-weight:bold;font-size:8px;font-family:Roboto, sans-serif;letter-spacing:1px;fill:#333333" d="M 28.65625,80.828125 H 26.601562 L 26.210937,82 h -1.246093 l 2.117187,-5.6875 h 1.085938 L 30.296875,82 h -1.246094 z m -1.738281,-0.949219 h 1.421875 L 27.625,77.75 Z"/>
    <path id="path1778" style="font-weight:bold;font-size:8px;font-family:Roboto, sans-serif;letter-spacing:1px;fill:#333333" d="m 34.785156,80.507812 q 0,-0.332031 -0.234375,-0.507812 -0.234375,-0.179688 -0.84375,-0.375 -0.609375,-0.199219 -0.964844,-0.390625 -0.96875,-0.523438 -0.96875,-1.410156 0,-0.460938 0.257813,-0.820313 0.261719,-0.363281 0.746094,-0.566406 0.488281,-0.203125 1.09375,-0.203125 0.609375,0 1.085937,0.222656 0.476563,0.21875 0.738281,0.621094 0.265625,0.402344 0.265625,0.914062 h -1.171875 q 0,-0.390625 -0.246093,-0.605468 -0.246094,-0.21875 -0.691407,-0.21875 -0.429687,0 -0.667968,0.183593 -0.238282,0.179688 -0.238282,0.476563 0,0.277344 0.277344,0.464844 0.28125,0.1875 0.824219,0.351562 1,0.300781 1.457031,0.746094 0.457031,0.445312 0.457031,1.109375 0,0.738281 -0.558593,1.160156 -0.558594,0.417969 -1.503907,0.417969 -0.65625,0 -1.195312,-0.238281 -0.539063,-0.242188 -0.824219,-0.660157 -0.28125,-0.417968 -0.28125,-0.96875 h 1.175781 q 0,0.941407 1.125,0.941407 0.417969,0 0.652344,-0.167969 0.234375,-0.171875 0.234375,-0.476563 z"/>
    <path id="path1780" style="font-weight:bold;font-size:8px;font-family:Roboto, sans-serif;letter-spacing:1px;fill:#333333" d="m 41.179687,79.535156 h -2.25 v 1.523438 h 2.640625 V 82 h -3.8125 V 76.3125 H 41.5625 v 0.949219 h -2.632813 v 1.355468 h 2.25 z"/>
  </g>
  <g transform="translate(0,82)" id="g1489"/>
  <g transform="translate(0,82)" id="g1549">
    <svg version="1.1" id="svg1547" width="100%" height="100%">
      <g transform="translate(22.5,22.5)" id="g1545">
        <g transform="rotate(120,-8.5,4.9074773)" id="g1495">
          <g transform="rotate(-120,1.5,-0.8660254)" id="g1493">
            <g style="font-weight:bold;font-size:8.66667px;font-family:Roboto, sans-serif;fill:#333333" id="text1491" transform="translate(-2.8,3.3)" aria-label="0">
              <path id="path1750" style="font-weight:bold;font-size:8.66667px;font-family:Roboto, sans-serif;fill:#333333" d="m 4.5660824,-2.547527 q 0,1.2779953 -0.5289715,1.95507887 -0.5289716,0.67708358 -1.5488287,0.67708358 -1.0071619,0 -1.54036519,-0.66438827 Q 0.41471369,-1.2441411 0.40201838,-2.4840504 v -1.134115 q 0,-1.2906906 0.53320332,-1.9593106 0.5374351,-0.66862 1.5445969,-0.66862 1.0071618,0 1.5403652,0.6643882 0.5332033,0.6601565 0.5458986,1.9000658 z M 3.3431002,-3.7916681 q 0,-0.7659508 -0.2115886,-1.1129561 -0.2073569,-0.3512371 -0.651693,-0.3512371 -0.4316408,0 -0.6389976,0.33431 -0.2031251,0.3300783 -0.2158204,1.0367843 v 1.4980474 q 0,0.7532555 0.2031251,1.1214197 0.2073568,0.36393238 0.6601565,0.36393238 0.4485678,0 0.6474611,-0.35123708 0.1988933,-0.3512371 0.2073569,-1.0748702 z"/>
            </g>
          </g>
        </g>
        <g transform="rotate(-172.92,-8.5,-0.52583884)" id="g1499">
          <path d="M 0,0 H 1.5" style="stroke:#333333;stroke-width:0.3" id="polyline1497"/>
        </g>
        <g transform="rotate(-145.13,-8.5,-2.6694419)" id="g1505">
          <g transform="rotate(145.13,1.5,0.47107798)" id="g1503">
            <g style="font-weight:bold;font-size:8.66667px;font-family:Roboto, sans-serif;fill:#333333" id="text1501" transform="translate(-2.8,3.3)" aria-label="1">
              <path id="path1754" style="font-weight:bold;font-size:8.66667px;font-family:Roboto, sans-serif;fill:#333333" d="M 3.3896497,0 H 2.1666675 V -4.7141944 L 0.70670599,-4.2613948 V -5.2558613 L 3.2584647,-6.1699241 h 0.131185 z"/>
            </g>
          </g>
        </g>
        <g transform="rotate(-105.84,-8.5,-6.4238366)" id="g1509">
          <path d="M 0,0 H 3" style="stroke:#333333;stroke-width:0.3" id="polyline1507"/>
        </g>
        <g transform="rotate(-75.68,-8.5,-10.942351)" id="g1513">
          <path d="M 0,0 H 3" style="stroke:#333333;stroke-width:0.3" id="polyline1511"/>
        </g>
        <g transform="rotate(-50.26,-8.5,-18.120852)" id="g1517">
          <path d="M 0,0 H 3" style="stroke:#333333;stroke-width:0.3" id="polyline1515"/>
        </g>
        <g transform="rotate(-27.87,-8.5,-34.257154)" id="g1523">
          <g transform="rotate(27.87,1.5,6.0453801)" id="g1521">
            <g style="font-weight:bold;font-size:8.66667px;font-family:Roboto, sans-serif;fill:#333333" id="text1519" transform="translate(-2.8,3.3)" aria-label="5">
              <path id="path1760" style="font-weight:bold;font-size:8.66667px;font-family:Roboto, sans-serif;fill:#333333" d="M 0.60091168,-3.029949 0.95638056,-6.1614606 H 4.4095068 v 1.0198572 H 1.9593106 l -0.1523438,1.3245447 q 0.4358726,-0.2327475 0.9267582,-0.2327475 0.8802086,0 1.3795578,0.5458987 0.4993491,0.5458986 0.4993491,1.5276698 0,0.5966799 -0.2539063,1.07063841 -0.2496746,0.46972673 -0.7194013,0.73209662 -0.4697268,0.25813812 -1.1087244,0.25813812 -0.558594,0 -1.0367842,-0.22428394 Q 1.0156254,-0.3681642 0.7363284,-0.77864612 0.46126319,-1.189128 0.4443361,-1.7138678 H 1.654623 q 0.038086,0.3850913 0.2666017,0.6009117 0.2327474,0.21158858 0.6051434,0.21158858 0.4147137,0 0.6389976,-0.29622408 0.224284,-0.3004558 0.224284,-0.8463545 0,-0.5247397 -0.2581381,-0.8040367 -0.2581382,-0.279297 -0.7320967,-0.279297 -0.4358725,0 -0.7067059,0.2285157 L 1.5742193,-2.788738 Z"/>
            </g>
          </g>
        </g>
        <g transform="rotate(-7.62,-8.5,-127.63677)" id="g1527">
          <path d="M 0,0 H 3" style="stroke:#333333;stroke-width:0.3" id="polyline1525"/>
        </g>
        <g transform="rotate(11,-8.5,88.275875)" id="g1531">
          <path d="M 0,0 H 3" style="stroke:#333333;stroke-width:0.3" id="polyline1529"/>
        </g>
        <g transform="rotate(28.33,-8.5,33.678168)" id="g1535">
          <path d="M 0,0 H 3" style="stroke:#333333;stroke-width:0.3" id="polyline1533"/>
        </g>
        <g transform="rotate(44.6,-8.5,20.725142)" id="g1539">
          <path d="M 0,0 H 3" style="stroke:#333333;stroke-width:0.3" id="polyline1537"/>
        </g>
        <g transform="rotate(60,-8.5,14.722432)" id="g1543">
          <path d="M 0,0 H 3" style="stroke:#333333;stroke-width:0.3" id="polyline1541"/>
        </g>
      </g>
    </svg>
  </g>
  <g transform="translate(20.8,122)" id="g1551"/>
  <g style="font-weight:bold;font-size:8px;font-family:Roboto, sans-serif;letter-spacing:1px;fill:#333333" id="text1555" aria-label="S">
    <path id="path1747" style="font-weight:bold;font-size:8px;font-family:Roboto, sans-serif;letter-spacing:1px;fill:#333333" d="m 13.957031,139.50781 q 0,-0.33203 -0.234375,-0.50781 -0.234375,-0.17969 -0.84375,-0.375 -0.609375,-0.19922 -0.964843,-0.39063 -0.96875,-0.52343 -0.96875,-1.41015 0,-0.46094 0.257812,-0.82031 0.261719,-0.36329 0.746094,-0.56641 0.488281,-0.20313 1.09375,-0.20313 0.609375,0 1.085937,0.22266 0.476563,0.21875 0.738282,0.62109 0.265625,0.40235 0.265625,0.91407 h -1.171875 q 0,-0.39063 -0.246094,-0.60547 -0.246094,-0.21875 -0.691406,-0.21875 -0.429688,0 -0.667969,0.18359 -0.238281,0.17969 -0.238281,0.47656 0,0.27735 0.277343,0.46485 0.28125,0.1875 0.824219,0.35156 1,0.30078 1.457031,0.74609 0.457032,0.44532 0.457032,1.10938 0,0.73828 -0.558594,1.16016 -0.558594,0.41796 -1.503906,0.41796 -0.65625,0 -1.195313,-0.23828 -0.539062,-0.24218 -0.824219,-0.66015 -0.28125,-0.41797 -0.28125,-0.96875 h 1.175782 q 0,0.9414 1.125,0.9414 0.417968,0 0.652343,-0.16797 0.234375,-0.17187 0.234375,-0.47656 z"/>
  </g>
  <g transform="translate(18,130)" id="g1557"/>
  <g style="font-weight:bold;font-size:6.66667px;font-family:Roboto, sans-serif;letter-spacing:1.5px;fill:#333333" id="text1561" aria-label="LIN">
    <path id="path1740" style="font-weight:bold;font-size:6.66667px;font-family:Roboto, sans-serif;letter-spacing:1.5px;fill:#333333" d="m 11.39974,156.21549 h 2.073569 V 157 h -3.050132 v -4.73959 h 0.976563 z"/>
    <path id="path1742" style="font-weight:bold;font-size:6.66667px;font-family:Roboto, sans-serif;letter-spacing:1.5px;fill:#333333" d="m 16.568362,157 h -0.976563 v -4.73959 h 0.976563 z"/>
    <path id="path1744" style="font-weight:bold;font-size:6.66667px;font-family:Roboto, sans-serif;letter-spacing:1.5px;fill:#333333" d="m 22.824224,157 h -0.976563 l -1.901043,-3.11849 V 157 h -0.976563 v -4.73959 h 0.976563 l 1.904298,3.12501 v -3.12501 h 0.973308 z"/>
  </g>
  <g transform="translate(26,150)" id="g1563"/>
  <g transform="translate(5.5,162)" id="g1583">
    <path d="M 0,0 H 34 V 10 H 0 Z" style="fill:#fafafa" transform="translate(0,98)" id="rect1567"/>
    <path d="m 5,0 h 24 c 2.77,0 5,2.23 5,5 v 98 c 0,2.77 -2.23,5 -5,5 H 5 c -2.77,0 -5,-2.23 -5,-5 V 5 C 0,2.23 2.23,0 5,0 Z" style="fill:#fafafa" id="rect1569"/>
    <g transform="translate(5,3)" id="g1571"/>
    <g style="font-weight:bold;font-size:6.66667px;font-family:Roboto, sans-serif;letter-spacing:2px;fill:#333333" id="text1573" transform="translate(6.5,35)" aria-label="TRIG">
      <path id="path1717" style="font-weight:bold;font-size:6.66667px;font-family:Roboto, sans-serif;letter-spacing:2px;fill:#333333" d="M 3.9908873,-3.9485696 H 2.5390637 V 0 H 1.5625007 V -3.9485696 H 0.1302084 v -0.791016 h 3.8606789 z"/>
      <path id="path1719" style="font-weight:bold;font-size:6.66667px;font-family:Roboto, sans-serif;letter-spacing:2px;fill:#333333" d="M 8.3053413,-1.7350269 H 7.5273462 V 0 h -0.976563 v -4.7395856 h 1.7610685 q 0.8398442,0 1.2955736,0.3743491 0.4557297,0.3743492 0.4557297,1.0579433 0,0.4850262 -0.211589,0.8105472 -0.2083334,0.3222658 -0.6347659,0.5143232 l 1.0253909,1.93684986 V 0 H 9.1940136 Z M 7.5273462,-2.5260429 H 8.315107 q 0.3678387,0 0.5696617,-0.1855469 0.201823,-0.1888022 0.201823,-0.5175784 0,-0.3352866 -0.1920574,-0.527344 Q 8.7057321,-3.9485696 8.3118517,-3.9485696 H 7.5273462 Z"/>
      <path id="path1721" style="font-weight:bold;font-size:6.66667px;font-family:Roboto, sans-serif;letter-spacing:2px;fill:#333333" d="m 13.847009,0 h -0.976563 v -4.7395856 h 0.976563 z"/>
      <path id="path1723" style="font-weight:bold;font-size:6.66667px;font-family:Roboto, sans-serif;letter-spacing:2px;fill:#333333" d="m 20.498704,-0.59895862 q -0.263672,0.31575536 -0.745443,0.49153669 -0.481771,0.17252613 -1.067709,0.17252613 -0.615234,0 -1.080729,-0.26692721 -0.46224,-0.27018242 -0.716146,-0.78125038 -0.250652,-0.51106791 -0.257162,-1.20117241 v -0.3222658 q 0,-0.7096358 0.23763,-1.2272141 0.240886,-0.5208336 0.690105,-0.7942713 0.452474,-0.2766928 1.057943,-0.2766928 0.843099,0 1.31836,0.403646 0.475261,0.4003909 0.563151,1.1686204 h -0.950521 q -0.0651,-0.4069013 -0.289714,-0.5957034 -0.221354,-0.1888022 -0.611979,-0.1888022 -0.498047,0 -0.758464,0.3743491 -0.260417,0.3743492 -0.263672,1.1132818 v 0.3027345 q 0,0.7454431 0.283203,1.1263027 0.283204,0.38085952 0.830079,0.38085952 0.55013,0 0.784505,-0.23437512 v -0.8170577 h -0.888672 v -0.7194014 h 1.865235 z"/>
    </g>
    <g transform="translate(5,38)" id="g1575"/>
    <g style="font-weight:bold;font-size:6.66667px;font-family:Roboto, sans-serif;letter-spacing:2px;fill:#333333" id="text1577" transform="translate(9,70)" aria-label="ATT">
      <path id="path1726" style="font-weight:bold;font-size:6.66667px;font-family:Roboto, sans-serif;letter-spacing:2px;fill:#333333" d="M 3.0989598,-0.97656297 H 1.3867194 L 1.0611984,0 H 0.02278647 L 1.7871102,-4.7395856 H 2.6920586 L 4.466148,0 H 3.427736 Z M 1.6503914,-1.767579 H 2.8352878 L 2.2395844,-3.5416684 Z"/>
      <path id="path1728" style="font-weight:bold;font-size:6.66667px;font-family:Roboto, sans-serif;letter-spacing:2px;fill:#333333" d="M 10.092452,-3.9485696 H 8.6406281 V 0 H 7.6640652 V -3.9485696 H 6.2317728 v -0.791016 h 3.8606792 z"/>
      <path id="path1730" style="font-weight:bold;font-size:6.66667px;font-family:Roboto, sans-serif;letter-spacing:2px;fill:#333333" d="M 16.272141,-3.9485696 H 14.820318 V 0 h -0.976563 v -3.9485696 h -1.432293 v -0.791016 h 3.860679 z"/>
    </g>
    <g transform="translate(5,73)" id="g1579"/>
    <g style="font-weight:bold;font-size:6.66667px;font-family:Roboto, sans-serif;letter-spacing:2px;fill:#333333" id="text1581" transform="translate(9,105)" aria-label="REL">
      <path id="path1733" style="font-weight:bold;font-size:6.66667px;font-family:Roboto, sans-serif;letter-spacing:2px;fill:#333333" d="M 2.1777354,-1.7350269 H 1.3997403 V 0 H 0.42317729 V -4.7395856 H 2.1842458 q 0.8398442,0 1.2955736,0.3743491 0.4557294,0.3743492 0.4557294,1.0579433 0,0.4850262 -0.2115887,0.8105472 -0.2083334,0.3222658 -0.6347659,0.5143232 l 1.0253911,1.93684986 V 0 H 3.0664077 Z M 1.3997403,-2.5260429 H 2.187501 q 0.3678388,0 0.5696618,-0.1855469 0.201823,-0.1888022 0.201823,-0.5175784 0,-0.3352866 -0.1920574,-0.527344 Q 2.5781262,-3.9485696 2.1842458,-3.9485696 H 1.3997403 Z"/>
      <path id="path1735" style="font-weight:bold;font-size:6.66667px;font-family:Roboto, sans-serif;letter-spacing:2px;fill:#333333" d="M 9.5325556,-2.0540374 H 7.6575547 v 1.26953182 H 9.8580765 V 0 H 6.6809917 v -4.7395856 h 3.1705744 v 0.791016 H 7.6575547 v 1.1295578 h 1.8750009 z"/>
      <path id="path1737" style="font-weight:bold;font-size:6.66667px;font-family:Roboto, sans-serif;letter-spacing:2px;fill:#333333" d="m 13.407557,-0.78450558 h 2.073568 V 0 h -3.050131 v -4.7395856 h 0.976563 z"/>
    </g>
  </g>
  <g transform="translate(5.5,273)" id="g1597">
    <path d="M 0,0 H 34 V 10 H 0 Z" style="fill:#bbbbbb" transform="translate(0,-3)" id="rect1585"/>
    <path d="m 5,0 h 24 c 2.77,0 5,2.23 5,5 v 60 c 0,2.77 -2.23,5 -5,5 H 5 C 2.23,70 0,67.77 0,65 V 5 C 0,2.23 2.23,0 5,0 Z" style="fill:#bbbbbb" id="rect1587"/>
    <g transform="translate(5)" id="g1589"/>
    <g style="font-weight:bold;font-size:6.66667px;font-family:Roboto, sans-serif;letter-spacing:2px;fill:#333333" id="text1591" transform="translate(8.5,32)" aria-label="ENV">
      <path id="path1701" style="font-weight:bold;font-size:6.66667px;font-family:Roboto, sans-serif;letter-spacing:2px;fill:#333333" d="M 3.2747411,-2.0540374 H 1.3997403 v 1.26953182 H 3.6002621 V 0 H 0.42317729 V -4.7395856 H 3.5937517 v 0.791016 H 1.3997403 v 1.1295578 h 1.8750008 z"/>
      <path id="path1703" style="font-weight:bold;font-size:6.66667px;font-family:Roboto, sans-serif;letter-spacing:2px;fill:#333333" d="M 10.027348,0 H 9.0507847 L 7.1497422,-3.1184911 V 0 h -0.976563 v -4.7395856 h 0.976563 l 1.9042977,3.1250015 v -3.1250015 h 0.9733081 z"/>
      <path id="path1705" style="font-weight:bold;font-size:6.66667px;font-family:Roboto, sans-serif;letter-spacing:2px;fill:#333333" d="m 14.638026,-1.1751308 1.074219,-3.5644548 h 1.08724 L 15.149094,0 h -1.018881 l -1.643881,-4.7395856 h 1.083985 z"/>
    </g>
    <g transform="translate(5,35)" id="g1593"/>
    <g style="font-weight:bold;font-size:6.66667px;font-family:Roboto, sans-serif;letter-spacing:2px;fill:#333333" id="text1595" transform="translate(8.5,67)" aria-label="EOC">
      <path id="path1708" style="font-weight:bold;font-size:6.66667px;font-family:Roboto, sans-serif;letter-spacing:2px;fill:#333333" d="M 3.2747411,-2.0540374 H 1.3997403 v 1.26953182 H 3.6002621 V 0 H 0.42317729 V -4.7395856 H 3.5937517 v 0.791016 H 1.3997403 v 1.1295578 h 1.8750008 z"/>
      <path id="path1710" style="font-weight:bold;font-size:6.66667px;font-family:Roboto, sans-serif;letter-spacing:2px;fill:#333333" d="m 10.06641,-2.2623709 q 0,0.6998702 -0.2473957,1.2272142 -0.247396,0.52734396 -0.7096358,0.81380243 -0.4589846,0.28645847 -1.054688,0.28645847 -0.589193,0 -1.0514328,-0.28320326 Q 6.5410179,-0.50130232 6.2871115,-1.0253911 6.0332052,-1.5527351 6.02995,-2.2363292 v -0.2343751 q 0,-0.6998701 0.2506511,-1.2304693 0.2539064,-0.5338545 0.712891,-0.8170577 0.4622398,-0.2864585 1.054688,-0.2864585 0.5924482,0 1.0514328,0.2864585 0.4622398,0.2832032 0.7128909,0.8170577 0.2539062,0.5305992 0.2539062,1.2272141 z M 9.0768264,-2.4772147 q 0,-0.7454431 -0.2669272,-1.1328131 -0.2669272,-0.3873699 -0.7617191,-0.3873699 -0.4915367,0 -0.7584639,0.3841147 -0.2669272,0.3808596 -0.2701824,1.1197922 v 0.2311199 q 0,0.7259118 0.2669272,1.1263026 0.2669272,0.40039087 0.7682295,0.40039087 0.4915367,0 0.7552087,-0.38411477 0.263672,-0.38737 0.2669272,-1.1263026 z"/>
      <path id="path1712" style="font-weight:bold;font-size:6.66667px;font-family:Roboto, sans-serif;letter-spacing:2px;fill:#333333" d="m 16.503261,-1.5787768 q -0.05534,0.76497433 -0.566407,1.20442766 -0.507812,0.43945334 -1.341146,0.43945334 -0.911459,0 -1.435548,-0.61197946 Q 12.639327,-1.1621099 12.639327,-2.233074 v -0.2897137 q 0,-0.683594 0.240885,-1.2044276 0.240886,-0.5208336 0.68685,-0.7975264 0.449219,-0.2799481 1.041667,-0.2799481 0.820313,0 1.321615,0.4394533 0.501302,0.4394534 0.579427,1.2337246 h -0.976563 q -0.03581,-0.4589846 -0.257161,-0.6640628 -0.218099,-0.2083335 -0.667318,-0.2083335 -0.488282,0 -0.732422,0.3515627 -0.240886,0.3483075 -0.247396,1.0839849 v 0.3580731 q 0,0.7682295 0.23112,1.1230474 0.234375,0.35481788 0.735677,0.35481788 0.452474,0 0.673828,-0.20507823 0.22461,-0.20833345 0.257162,-0.64127635 z"/>
    </g>
  </g>
</svg>
