<?xml version="1.0" encoding="UTF-8" standalone="no"?>
<svg xmlns:dc="http://purl.org/dc/elements/1.1/" xmlns:cc="http://creativecommons.org/ns#" xmlns:rdf="http://www.w3.org/1999/02/22-rdf-syntax-ns#" xmlns:svg="http://www.w3.org/2000/svg" xmlns="http://www.w3.org/2000/svg" xmlns:sodipodi="http://sodipodi.sourceforge.net/DTD/sodipodi-0.dtd" xmlns:inkscape="http://www.inkscape.org/namespaces/inkscape" inkscape:version="1.0 (4035a4f, 2020-05-01)" sodipodi:docname="svg_render_Bool-pp.svg" id="svg5894" viewBox="0 0 45 380" height="380" width="45" version="1.1">
  <metadata id="metadata5900">
    <rdf:RDF>
      <cc:Work rdf:about="">
        <dc:format>image/svg+xml</dc:format>
        <dc:type rdf:resource="http://purl.org/dc/dcmitype/StillImage"/>
      </cc:Work>
    </rdf:RDF>
  </metadata>
  <defs id="defs5898"/>
  <sodipodi:namedview inkscape:current-layer="svg5894" inkscape:window-maximized="0" inkscape:window-y="23" inkscape:window-x="0" inkscape:cy="190" inkscape:cx="22.5" inkscape:zoom="1.7605263" showgrid="false" id="namedview5896" inkscape:window-height="480" inkscape:window-width="689" inkscape:pageshadow="2" inkscape:pageopacity="0" guidetolerance="10" gridtolerance="10" objecttolerance="10" borderopacity="1" bordercolor="#666666" pagecolor="#ffffff"/>
  
  <svg version="1.1" id="svg5824" width="100%" height="100%">
    <path class="module-background background-fill" d="M 0,0 H 45 V 380 H 0 Z" style="fill:#dddddd" id="rect5822"/>
  </svg>
  <svg version="1.1" id="svg5832" width="100%" height="100%">
    <path class="module-border-inner" d="M 1,1 H 44 V 379 H 1 V 1" style="fill:none;stroke:#e4e4e4;stroke-width:0.5" id="polyline5826"/>
    <path class="module-border-middle" d="m 0.5,0.5 h 44 v 379 H 0.5 V 0.5" style="fill:none;stroke:#ebebeb;stroke-width:0.8" id="polyline5828"/>
    <path class="module-border-outer" d="M 0,0 H 45 V 380 H 0 V 0" style="fill:none;stroke:#f2f2f2;stroke-width:1" id="polyline5830"/>
  </svg>
  <g transform="rotate(-90,194.5,181.5)" id="g5842">
    <g class="title" style="font-weight:normal;font-size:9.33333px;font-family:Comfortaa, sans-serif;letter-spacing:2.5px;fill:#333333" id="text5834" aria-label="BOOL">
      <path id="path5968" style="font-weight:normal;font-size:9.33333px;font-family:Comfortaa, sans-serif;letter-spacing:2.5px;fill:#333333" d="M 1.3439995,0 Q 1.1573329,0 1.045333,-0.0933333 0.93333302,-0.19599993 0.93333302,-0.36399988 V -6.925331 q 0,-0.1586666 0.10266658,-0.2613332 0.1026667,-0.1026667 0.2613333,-0.1026667 h 2.2679992 q 0.5599998,0 1.0079997,0.2426666 0.4573332,0.2333333 0.7186664,0.6533331 0.2706666,0.4199999 0.2706666,0.9426664 0,0.4946665 -0.2706666,0.8866664 -0.2613332,0.3919998 -0.7093331,0.6066664 0.6439998,0.1773333 1.017333,0.6439998 0.3733332,0.4573332 0.3733332,1.1573329 0,0.6253332 -0.2893332,1.1199997 Q 5.3946648,-0.55066648 4.8813317,-0.27066657 4.3773318,0 3.7239987,0 Z m 2.2213326,-4.2466652 q 0.5693332,0 0.9239997,-0.3173332 0.3639999,-0.3266666 0.3639999,-0.8866664 0,-0.5413332 -0.3546666,-0.8399997 -0.3546665,-0.2986666 -0.933333,-0.2986666 H 1.6613328 v 2.3426659 z m 0.1586666,3.54666544 q 0.6813331,0 1.101333,-0.39199984 0.4293332,-0.4013332 0.4293332,-1.0639997 0,-0.6346664 -0.4293332,-1.0079996 -0.4199999,-0.3826666 -1.101333,-0.3826666 H 1.6613328 v 2.84666574 z"/>
      <path id="path5970" style="font-weight:normal;font-size:9.33333px;font-family:Comfortaa, sans-serif;letter-spacing:2.5px;fill:#333333" d="m 13.109954,0.0933333 q -1.063999,0 -1.913332,-0.48533317 -0.849333,-0.48533316 -1.3346666,-1.33466623 -0.4759998,-0.8586664 -0.4759998,-1.922666 0,-1.0639996 0.4759998,-1.9133327 0.4853336,-0.849333 1.3346666,-1.3346662 0.849333,-0.4853332 1.913332,-0.4853332 1.054667,0 1.904,0.4853332 0.858666,0.4853332 1.334666,1.3346662 0.485333,0.8493331 0.485333,1.9133327 0,1.0639996 -0.485333,1.922666 -0.476,0.84933307 -1.334666,1.33466623 -0.849333,0.48533317 -1.904,0.48533317 z m 0,-0.69066643 q 0.849333,0 1.530666,-0.4013332 0.690667,-0.40133317 1.082667,-1.09199967 0.392,-0.6999997 0.392,-1.5586661 0,-0.849333 -0.392,-1.5399995 -0.392,-0.6999997 -1.082667,-1.1013329 -0.681333,-0.4013332 -1.530666,-0.4013332 -0.858666,0 -1.549332,0.4013332 -0.681334,0.4013332 -1.073333,1.1013329 -0.392,0.6906665 -0.392,1.5399995 0,0.8586664 0.392,1.5586661 0.391999,0.6906665 1.073333,1.09199967 0.690666,0.4013332 1.549332,0.4013332 z"/>
      <path id="path5972" style="font-weight:normal;font-size:9.33333px;font-family:Comfortaa, sans-serif;letter-spacing:2.5px;fill:#333333" d="m 24.031827,0.0933333 q -1.063999,0 -1.913332,-0.48533317 -0.849333,-0.48533316 -1.334666,-1.33466623 -0.476,-0.8586664 -0.476,-1.922666 0,-1.0639996 0.476,-1.9133327 0.485333,-0.849333 1.334666,-1.3346662 0.849333,-0.4853332 1.913332,-0.4853332 1.054667,0 1.904,0.4853332 0.858666,0.4853332 1.334666,1.3346662 0.485333,0.8493331 0.485333,1.9133327 0,1.0639996 -0.485333,1.922666 -0.476,0.84933307 -1.334666,1.33466623 -0.849333,0.48533317 -1.904,0.48533317 z m 0,-0.69066643 q 0.849333,0 1.530667,-0.4013332 0.690666,-0.40133317 1.082666,-1.09199967 0.392,-0.6999997 0.392,-1.5586661 0,-0.849333 -0.392,-1.5399995 -0.392,-0.6999997 -1.082666,-1.1013329 -0.681334,-0.4013332 -1.530667,-0.4013332 -0.858666,0 -1.549332,0.4013332 -0.681333,0.4013332 -1.073333,1.1013329 -0.392,0.6906665 -0.392,1.5399995 0,0.8586664 0.392,1.5586661 0.392,0.6906665 1.073333,1.09199967 0.690666,0.4013332 1.549332,0.4013332 z"/>
      <path id="path5974" style="font-weight:normal;font-size:9.33333px;font-family:Comfortaa, sans-serif;letter-spacing:2.5px;fill:#333333" d="M 32.130659,0 Q 31.981326,0 31.869326,-0.10266663 31.766659,-0.21466659 31.766659,-0.36399988 V -6.925331 q 0,-0.1493333 0.102667,-0.2519999 0.112,-0.112 0.261333,-0.112 0.158667,0 0.261333,0.1026667 0.102667,0.1026666 0.102667,0.2613332 v 6.23466457 h 3.649332 q 0.158667,0 0.261333,0.10266663 0.102667,0.0933333 0.102667,0.24266658 0,0.14933329 -0.102667,0.25199992 Q 36.302658,0 36.143991,0 Z"/>
    </g>
    <g transform="translate(0,12)" id="g5840">
      <g class="brand" style="font-weight:bold;font-size:9.33333px;font-family:Audiowide, sans-serif;letter-spacing:2px;fill:#333333" id="text5836" aria-label="BGA">
        <path id="path5977" style="font-weight:bold;font-size:9.33333px;font-family:Audiowide, sans-serif;letter-spacing:2px;fill:#333333" d="m 7.209633,-1.4355464 q 0,0.2187499 -0.077474,0.4694009 -0.072917,0.25065095 -0.2460936,0.46484359 Q 6.7174456,-0.28710928 6.4440082,-0.14127599 6.1705708,0 5.7740866,0 H 1.2760412 Q 1.1484371,0 1.0390621,-0.0455729 0.92968718,-0.0911458 0.84765596,-0.16861973 0.77018203,-0.25065096 0.72460913,-0.36002592 0.67903623,-0.46940088 0.67903623,-0.597005 v -5.341144 q 0,-0.1230469 0.0455729,-0.2324218 0.0455729,-0.109375 0.12304683,-0.1914062 0.0820312,-0.082031 0.19140614,-0.1276041 0.109375,-0.045573 0.2369791,-0.045573 h 3.9648424 q 0.21875,0 0.4694009,0.077474 0.250651,0.077474 0.4648436,0.250651 0.2187499,0.1686197 0.3600259,0.4420571 0.1458333,0.2734374 0.1458333,0.6699217 v 0.2233072 q 0,0.314453 -0.1048177,0.6790362 -0.1048176,0.3600259 -0.3372394,0.6835935 0.2005207,0.1230468 0.3736978,0.2962239 0.1777343,0.173177 0.3098957,0.4010415 0.1321614,0.2278645 0.2096353,0.5149738 0.077474,0.2871093 0.077474,0.6334633 z M 6.0247375,-1.6634109 q 0,-0.2324218 -0.072917,-0.4147134 Q 5.8789042,-2.2649732 5.7467428,-2.3971346 5.6145814,-2.529296 5.4277325,-2.5976554 5.2408836,-2.670572 5.0084618,-2.670572 h -2.670572 v -1.19401 h 2.1373691 q 0.2324218,0 0.4192707,-0.068359 0.1868489,-0.072917 0.3190103,-0.205078 0.1321614,-0.1321614 0.2005208,-0.314453 0.072917,-0.1868489 0.072917,-0.4192707 v -0.2233072 q 0,-0.2552083 -0.2460937,-0.2552083 H 1.8639317 v 4.1653632 h 3.9101549 q 0.031901,0 0.077474,-0.00456 0.045573,-0.00456 0.082031,-0.027344 0.036458,-0.022786 0.063802,-0.077474 0.027344,-0.054687 0.027344,-0.1503906 z"/>
        <path id="path5979" style="font-weight:bold;font-size:9.33333px;font-family:Audiowide, sans-serif;letter-spacing:2px;fill:#333333" d="m 16.683589,-0.597005 q 0,0.12760412 -0.04557,0.23697908 -0.04557,0.10937496 -0.127605,0.19140619 -0.07747,0.07747393 -0.186849,0.12304683 Q 16.214189,0 16.086584,0 h -4.274738 q -0.164062,0 -0.355468,-0.03645832 -0.186849,-0.04101561 -0.373698,-0.12304683 -0.182292,-0.0820312 -0.350911,-0.20963535 -0.16862,-0.13216141 -0.300782,-0.31445302 -0.127604,-0.18684889 -0.205078,-0.42838528 -0.07747,-0.2460937 -0.07747,-0.5514321 v -3.2083322 q 0,-0.1640625 0.03646,-0.3509114 0.04101,-0.1914062 0.123047,-0.3736978 0.08203,-0.1868489 0.214192,-0.3554686 0.132162,-0.1686197 0.314453,-0.2962238 0.186849,-0.1321615 0.428385,-0.2096354 0.241537,-0.077474 0.546875,-0.077474 h 4.817056 v 1.1848954 h -4.817056 q -0.232422,0 -0.355468,0.1230468 -0.123047,0.1230469 -0.123047,0.3645832 v 3.1992177 q 0,0.2278645 0.123047,0.3554686 0.127604,0.1230469 0.355468,0.1230469 h 3.686848 V -2.670572 h -3.153645 v -1.19401 h 3.741535 q 0.127605,0 0.236979,0.05013 0.109375,0.045573 0.186849,0.1276041 0.08203,0.082031 0.127605,0.1914062 0.04557,0.1048177 0.04557,0.2278645 z"/>
        <path id="path5981" style="font-weight:bold;font-size:9.33333px;font-family:Audiowide, sans-serif;letter-spacing:2px;fill:#333333" d="M 26.339836,0 H 25.154941 V -1.6041661 H 20.989578 V 0 h -1.184896 v -3.267577 q 0,-0.7154946 0.246094,-1.3170569 0.246094,-0.6015623 0.683593,-1.0345048 0.4375,-0.4329426 1.034505,-0.6744789 0.597005,-0.2415364 1.303385,-0.2415364 h 2.670572 q 0.123047,0 0.232422,0.045573 0.109375,0.045573 0.191406,0.1276041 0.08203,0.082031 0.127604,0.1914062 0.04557,0.1093749 0.04557,0.2324218 z m -5.350258,-2.7890616 h 4.165363 v -2.561197 h -2.082682 q -0.05469,0 -0.232422,0.018229 -0.173177,0.013672 -0.405598,0.077474 -0.227865,0.063802 -0.483073,0.1959635 -0.255208,0.1321614 -0.469401,0.3645832 -0.214193,0.2324218 -0.355469,0.5833331 -0.136718,0.3463541 -0.136718,0.8430987 z"/>
      </g>
      <path d="M 0,0 H 3 V 3 H 0 Z" style="fill:#dddddd" transform="translate(11.5,-5)" id="rect5838"/>
    </g>
  </g>
  <path d="m 10.5,18 h 24 c 2.77,0 5,2.23 5,5 v 53.5 c 0,2.77 -2.23,5 -5,5 h -24 c -2.77,0 -5,-2.23 -5,-5 V 23 c 0,-2.77 2.23,-5 5,-5 z" style="fill:#fafafa" id="rect5846"/>
  <path d="m 5.5,71.5 h 34 v 10 h -34 z" style="fill:#fafafa" id="rect5848"/>
  <g transform="translate(10.5,23)" id="g5850"/>
  <g transform="translate(10.5,53)" id="g5852"/>
  <path d="m 10.5,82 h 24 c 2.77,0 5,2.23 5,5 v 113 c 0,2.77 -2.23,5 -5,5 h -24 c -2.77,0 -5,-2.23 -5,-5 V 87 c 0,-2.77 2.23,-5 5,-5 z" style="fill:#bbbbbb" id="rect5856"/>
  <path d="m 5.5,82 h 34 v 10 h -34 z" style="fill:#bbbbbb" id="rect5858"/>
  <g transform="translate(10.5,86)" id="g5860"/>
  <g style="font-weight:bold;font-size:6.66667px;font-family:Roboto, sans-serif;letter-spacing:2px;fill:#333333" id="text5862" aria-label="AND">
    <path id="path5957" style="font-weight:bold;font-size:6.66667px;font-family:Roboto, sans-serif;letter-spacing:2px;fill:#333333" d="M 16.89896,118.02344 H 15.18672 L 14.861199,119 h -1.038412 l 1.764323,-4.73959 h 0.904949 L 18.266148,119 h -1.038412 z m -1.448568,-0.79102 h 1.184896 l -0.595703,-1.77409 z"/>
    <path id="path5959" style="font-weight:bold;font-size:6.66667px;font-family:Roboto, sans-serif;letter-spacing:2px;fill:#333333" d="M 24.569535,119 H 23.592972 L 21.69193,115.88151 V 119 h -0.976563 v -4.73959 h 0.976563 l 1.904298,3.12501 v -3.12501 h 0.973307 z"/>
    <path id="path5961" style="font-weight:bold;font-size:6.66667px;font-family:Roboto, sans-serif;letter-spacing:2px;fill:#333333" d="m 27.428911,119 v -4.73959 h 1.458334 q 0.625,0 1.116537,0.28321 0.494792,0.27995 0.771485,0.80078 0.276692,0.51758 0.276692,1.17839 v 0.21809 q 0,0.66081 -0.273437,1.17514 -0.270183,0.51432 -0.764975,0.79752 -0.494791,0.2832 -1.116537,0.28646 z m 0.976563,-3.94857 v 3.16406 h 0.472005 q 0.572917,0 0.875652,-0.37434 0.302734,-0.37435 0.309245,-1.07097 v -0.25065 q 0,-0.72266 -0.29948,-1.09375 -0.299479,-0.37435 -0.875651,-0.37435 z"/>
  </g>
  <g transform="translate(10.5,126)" id="g5864"/>
  <g style="font-weight:bold;font-size:6.66667px;font-family:Roboto, sans-serif;letter-spacing:2px;fill:#333333" id="text5866" aria-label="OR">
    <path id="path5952" style="font-weight:bold;font-size:6.66667px;font-family:Roboto, sans-serif;letter-spacing:2px;fill:#333333" d="m 21.316408,156.73763 q 0,0.69987 -0.247396,1.22721 -0.247396,0.52735 -0.709635,0.81381 -0.458985,0.28645 -1.054688,0.28645 -0.589193,0 -1.051433,-0.2832 -0.46224,-0.2832 -0.716146,-0.80729 -0.253907,-0.52735 -0.257162,-1.21094 v -0.23437 q 0,-0.69987 0.250651,-1.23047 0.253907,-0.53386 0.712891,-0.81706 0.46224,-0.28646 1.054688,-0.28646 0.592448,0 1.051433,0.28646 0.46224,0.2832 0.712891,0.81706 0.253906,0.5306 0.253906,1.22721 z m -0.989583,-0.21484 q 0,-0.74545 -0.266928,-1.13282 -0.266927,-0.38737 -0.761719,-0.38737 -0.491537,0 -0.758464,0.38412 -0.266927,0.38086 -0.270182,1.11979 v 0.23112 q 0,0.72591 0.266927,1.1263 0.266927,0.40039 0.76823,0.40039 0.491536,0 0.755208,-0.38411 0.263672,-0.38737 0.266928,-1.1263 z"/>
    <path id="path5954" style="font-weight:bold;font-size:6.66667px;font-family:Roboto, sans-serif;letter-spacing:2px;fill:#333333" d="M 25.787113,157.26497 H 25.009118 V 159 h -0.976563 v -4.73959 h 1.761068 q 0.839844,0 1.295574,0.37435 0.455729,0.37435 0.455729,1.05795 0,0.48502 -0.211589,0.81054 -0.208333,0.32227 -0.634765,0.51433 l 1.025391,1.93685 V 159 h -1.048178 z m -0.777995,-0.79101 h 0.78776 q 0.367839,0 0.569662,-0.18555 0.201823,-0.1888 0.201823,-0.51758 0,-0.33528 -0.192057,-0.52734 -0.188802,-0.19206 -0.582683,-0.19206 h -0.784505 z"/>
  </g>
  <g transform="translate(10.5,166)" id="g5868"/>
  <g style="font-weight:bold;font-size:6.66667px;font-family:Roboto, sans-serif;letter-spacing:2px;fill:#333333" id="text5870" aria-label="XOR">
    <path id="path5945" style="font-weight:bold;font-size:6.66667px;font-family:Roboto, sans-serif;letter-spacing:2px;fill:#333333" d="m 16.119142,195.89453 0.888672,-1.63412 h 1.123047 L 16.750652,196.61068 18.166669,199 H 17.0306 L 16.119142,197.33984 15.207683,199 h -1.136068 l 1.416016,-2.38932 -1.380209,-2.35027 h 1.123047 z"/>
    <path id="path5947" style="font-weight:bold;font-size:6.66667px;font-family:Roboto, sans-serif;letter-spacing:2px;fill:#333333" d="m 24.470056,196.73763 q 0,0.69987 -0.247396,1.22721 -0.247396,0.52735 -0.709635,0.81381 -0.458985,0.28645 -1.054689,0.28645 -0.589192,0 -1.051432,-0.2832 -0.46224,-0.2832 -0.716146,-0.80729 -0.253907,-0.52735 -0.257162,-1.21094 v -0.23437 q 0,-0.69987 0.250651,-1.23047 0.253906,-0.53386 0.712891,-0.81706 0.46224,-0.28646 1.054688,-0.28646 0.592448,0 1.051433,0.28646 0.46224,0.2832 0.712891,0.81706 0.253906,0.5306 0.253906,1.22721 z m -0.989584,-0.21484 q 0,-0.74545 -0.266927,-1.13282 -0.266927,-0.38737 -0.761719,-0.38737 -0.491537,0 -0.758464,0.38412 -0.266927,0.38086 -0.270182,1.11979 v 0.23112 q 0,0.72591 0.266927,1.1263 0.266927,0.40039 0.768229,0.40039 0.491537,0 0.755209,-0.38411 0.263672,-0.38737 0.266927,-1.1263 z"/>
    <path id="path5949" style="font-weight:bold;font-size:6.66667px;font-family:Roboto, sans-serif;letter-spacing:2px;fill:#333333" d="M 28.940761,197.26497 H 28.162766 V 199 h -0.976563 v -4.73959 h 1.761068 q 0.839844,0 1.295574,0.37435 0.455729,0.37435 0.455729,1.05795 0,0.48502 -0.211589,0.81054 -0.208333,0.32227 -0.634766,0.51433 l 1.025392,1.93685 V 199 h -1.048178 z m -0.777995,-0.79101 h 0.78776 q 0.367839,0 0.569662,-0.18555 0.201823,-0.1888 0.201823,-0.51758 0,-0.33528 -0.192057,-0.52734 -0.188802,-0.19206 -0.582683,-0.19206 h -0.784505 z"/>
  </g>
  <g transform="translate(5.5,217)" id="g5880">
    <path d="M 0,0 H 34 V 10 H 0 Z" style="fill:#fafafa" transform="translate(0,22)" id="rect5874"/>
    <path d="m 5,0 h 24 c 2.77,0 5,2.23 5,5 v 22 c 0,2.77 -2.23,5 -5,5 H 5 C 2.23,32 0,29.77 0,27 V 5 C 0,2.23 2.23,0 5,0 Z" style="fill:#fafafa" id="rect5876"/>
    <g transform="translate(5,4)" id="g5878"/>
  </g>
  <g transform="translate(5.5,252)" id="g5890">
    <path d="M 0,0 H 34 V 10 H 0 Z" style="fill:#bbbbbb" transform="translate(0,-3)" id="rect5882"/>
    <path d="m 5,0 h 24 c 2.77,0 5,2.23 5,5 v 29 c 0,2.77 -2.23,5 -5,5 H 5 C 2.23,39 0,36.77 0,34 V 5 C 0,2.23 2.23,0 5,0 Z" style="fill:#bbbbbb" id="rect5884"/>
    <g transform="translate(5,2)" id="g5886"/>
    <g style="font-weight:bold;font-size:6.66667px;font-family:Roboto, sans-serif;letter-spacing:2px;fill:#333333" id="text5888" transform="translate(8.3,34)" aria-label="NOT">
      <path id="path5936" style="font-weight:bold;font-size:6.66667px;font-family:Roboto, sans-serif;letter-spacing:2px;fill:#333333" d="M 4.2773458,0 H 3.3007828 L 1.3997403,-3.1184911 V 0 H 0.42317729 V -4.7395856 H 1.3997403 l 1.9042977,3.1250015 v -3.1250015 h 0.9733078 z"/>
      <path id="path5938" style="font-weight:bold;font-size:6.66667px;font-family:Roboto, sans-serif;letter-spacing:2px;fill:#333333" d="m 11.029952,-2.2623709 q 0,0.6998702 -0.247396,1.2272142 -0.247396,0.52734396 -0.709636,0.81380243 -0.4589841,0.28645847 -1.0546875,0.28645847 -0.589193,0 -1.0514328,-0.28320326 Q 7.5045599,-0.50130232 7.2506535,-1.0253911 6.9967472,-1.5527351 6.9934919,-2.2363292 v -0.2343751 q 0,-0.6998701 0.2506512,-1.2304693 0.2539064,-0.5338545 0.712891,-0.8170577 0.4622398,-0.2864585 1.054688,-0.2864585 0.5924482,0 1.0514329,0.2864585 0.46224,0.2832032 0.712891,0.8170577 0.253906,0.5305992 0.253906,1.2272141 z m -0.989584,-0.2148438 q 0,-0.7454431 -0.2669268,-1.1328131 -0.2669272,-0.3873699 -0.7617191,-0.3873699 -0.4915367,0 -0.7584639,0.3841147 -0.2669272,0.3808596 -0.2701825,1.1197922 v 0.2311199 q 0,0.7259118 0.2669273,1.1263026 0.2669272,0.40039087 0.7682295,0.40039087 0.4915367,0 0.7552087,-0.38411477 0.2636718,-0.38737 0.2669268,-1.1263026 z"/>
      <path id="path5940" style="font-weight:bold;font-size:6.66667px;font-family:Roboto, sans-serif;letter-spacing:2px;fill:#333333" d="M 17.040371,-3.9485696 H 15.588547 V 0 h -0.976563 v -3.9485696 h -1.432292 v -0.791016 h 3.860679 z"/>
    </g>
  </g>
</svg>
