<?xml version="1.0" encoding="UTF-8" standalone="no"?>
<svg xmlns:dc="http://purl.org/dc/elements/1.1/" xmlns:cc="http://creativecommons.org/ns#" xmlns:rdf="http://www.w3.org/1999/02/22-rdf-syntax-ns#" xmlns:svg="http://www.w3.org/2000/svg" xmlns="http://www.w3.org/2000/svg" xmlns:sodipodi="http://sodipodi.sourceforge.net/DTD/sodipodi-0.dtd" xmlns:inkscape="http://www.inkscape.org/namespaces/inkscape" inkscape:version="1.0 (4035a4f, 2020-05-01)" sodipodi:docname="svg_render_Clpr-pp.svg" id="svg6262" viewBox="0 0 90 380" height="380" width="90" version="1.1">
  <metadata id="metadata6266">
    <rdf:RDF>
      <cc:Work rdf:about="">
        <dc:format>image/svg+xml</dc:format>
        <dc:type rdf:resource="http://purl.org/dc/dcmitype/StillImage"/>
      </cc:Work>
    </rdf:RDF>
  </metadata>
  <sodipodi:namedview inkscape:current-layer="svg6262" inkscape:window-maximized="0" inkscape:window-y="23" inkscape:window-x="0" inkscape:cy="190" inkscape:cx="45" inkscape:zoom="1.7605263" showgrid="false" id="namedview6264" inkscape:window-height="480" inkscape:window-width="689" inkscape:pageshadow="2" inkscape:pageopacity="0" guidetolerance="10" gridtolerance="10" objecttolerance="10" borderopacity="1" bordercolor="#666666" pagecolor="#ffffff"/>
  
  <defs id="defs6198">
    <symbol viewBox="0 0 38px 38px" id="knob38">
      <g id="g6126" transform="translate(19 19)">
        <polyline id="polyline6120" stroke="#00f" stroke-width="1" points="-5,0 5,0"/>
        <polyline id="polyline6122" stroke="#00f" stroke-width="1" points="0,-5 0,5"/>
        <circle id="circle6124" fill="none" stroke="#00f" stroke-width="1" r="18.5" cy="0" cx="0"/>
      </g>
    </symbol>
    <symbol viewBox="0 0 70px 70px" id="dial-threshold">
      <g id="g6153" transform="translate(35 35)">
        <text id="text6129" transform="rotate(-240) translate(25 0) rotate(240) translate(-10 2.5)" font-size="6.0pt">-24</text>
        <polyline id="polyline6131" transform="rotate(-210) translate(21 0)" stroke="#333" stroke-width="0.3" points="0,0 3,0"/>
        <text id="text6133" transform="rotate(-180) translate(25 0) rotate(180) translate(-10 2.5)" font-size="6.0pt">-18</text>
        <polyline id="polyline6135" transform="rotate(-150) translate(21 0)" stroke="#333" stroke-width="0.3" points="0,0 3,0"/>
        <text id="text6137" transform="rotate(-120) translate(25 0) rotate(120) translate(-10 2.5)" font-size="6.0pt">-12</text>
        <polyline id="polyline6139" transform="rotate(-90) translate(21 0)" stroke="#333" stroke-width="0.3" points="0,0 3,0"/>
        <text id="text6141" transform="rotate(-60) translate(25 0) rotate(60) translate(-2.3 2.5)" font-size="6.0pt">-6</text>
        <polyline id="polyline6143" transform="rotate(-30) translate(21 0)" stroke="#333" stroke-width="0.3" points="0,0 3,0"/>
        <text id="text6145" transform="rotate(0) translate(25 0) rotate(0) translate(-2.3 2.5)" font-size="6.0pt">0</text>
        <polyline id="polyline6147" transform="rotate(30) translate(21 0)" stroke="#333" stroke-width="0.3" points="0,0 3,0"/>
        <text id="text6149" transform="rotate(60) translate(25 0) rotate(-60) translate(-2.3 2.5)" font-size="6.0pt">6</text>
        <text id="text6151" transform="rotate(90) translate(29 0) rotate(-90) translate(-4.7 2.2)" font-size="6.0pt">dB</text>
      </g>
    </symbol>
    <symbol viewBox="0 0 70px 70px" id="dial-outputgain">
      <g id="g6176" transform="translate(35 35)">
        <text id="text6156" transform="rotate(-240) translate(25 0) rotate(240) translate(-4 2.5)" font-size="6.0pt">0</text>
        <polyline id="polyline6158" transform="rotate(-202.5) translate(21 0)" stroke="#333" stroke-width="0.3" points="0,0 3,0"/>
        <text id="text6160" transform="rotate(-165) translate(25 0) rotate(165) translate(-3.5 2.5)" font-size="6.0pt">6</text>
        <polyline id="polyline6162" transform="rotate(-127.5) translate(21 0)" stroke="#333" stroke-width="0.3" points="0,0 3,0"/>
        <text id="text6164" transform="rotate(-90) translate(25 0) rotate(90) translate(-5 2.5)" font-size="6.0pt">12</text>
        <polyline id="polyline6166" transform="rotate(-52.5) translate(21 0)" stroke="#333" stroke-width="0.3" points="0,0 3,0"/>
        <text id="text6168" transform="rotate(-15) translate(25 0) rotate(15) translate(-2 2.5)" font-size="6.0pt">18</text>
        <polyline id="polyline6170" transform="rotate(22.5) translate(21 0)" stroke="#333" stroke-width="0.3" points="0,0 3,0"/>
        <text id="text6172" transform="rotate(60) translate(25 0) rotate(-60) translate(-1 2.5)" font-size="6.0pt">24</text>
        <text id="text6174" transform="rotate(90) translate(29 0) rotate(-90) translate(-4.7 2.2)" font-size="6.0pt">dB</text>
      </g>
    </symbol>
    <symbol viewBox="0 0 14px 24px" id="switch">
      <rect id="rect6179" fill="#ddd" stroke="#000" stroke-width="1" height="24px" width="14px"/>
      <rect id="rect6181" fill="#000" stroke-width="0" height="12px" width="14px"/>
    </symbol>
    <symbol viewBox="0 0 24px 24px" id="input">
      <g id="g6188" transform="translate(12 12)">
        <circle id="circle6184" fill="#0f0" stroke="#0f0" stroke-width="1" r="5" cy="0" cx="0"/>
        <circle id="circle6186" fill="none" stroke="#0f0" stroke-width="3" r="10.5" cy="0" cx="0"/>
      </g>
    </symbol>
    <symbol viewBox="0 0 24px 24px" id="output">
      <g id="g6195" transform="translate(12 12)">
        <circle id="circle6191" fill="#f00" stroke="#f00" stroke-width="1" r="5" cy="0" cx="0"/>
        <circle id="circle6193" fill="none" stroke="#f00" stroke-width="3" r="10.5" cy="0" cx="0"/>
      </g>
    </symbol>
  </defs>
  <path d="M 0,0 H 90 V 380 H 0 Z" style="fill:#dddddd" id="rect6200"/>
  <path d="M 1,1 H 89 V 379 H 1 V 1" style="fill:none;stroke:#e4e4e4;stroke-width:0.5" id="polyline6202"/>
  <path d="m 0.5,0.5 h 89 v 379 H 0.5 V 0.5" style="fill:none;stroke:#ebebeb;stroke-width:0.8" id="polyline6204"/>
  <path d="M 0,0 H 90 V 380 H 0 V 0" style="fill:none;stroke:#f2f2f2;stroke-width:1" id="polyline6206"/>
  <g class="title" style="font-weight:normal;font-size:12px;font-family:Comfortaa, sans-serif;letter-spacing:3px;fill:#333333" id="text6208" aria-label="CLPR">
    <path id="path6463" style="font-weight:normal;font-size:12px;font-family:Comfortaa, sans-serif;letter-spacing:3px;fill:#333333" d="m 43.412,17.12 q -1.272,0 -2.34,-0.648 -1.068,-0.648 -1.704,-1.752 -0.624,-1.104 -0.624,-2.412 0,-1.296 0.624,-2.4 0.624,-1.104 1.692,-1.752 1.068,-0.648 2.352,-0.648 0.864,0 1.572,0.252 0.708,0.252 1.368,0.804 0.132,0.096 0.132,0.276 0,0.096 -0.048,0.18 -0.048,0.072 -0.132,0.108 -0.024,0.084 -0.108,0.132 -0.084,0.048 -0.18,0.048 -0.18,0 -0.3,-0.108 -0.468,-0.42 -1.02,-0.612 -0.552,-0.192 -1.284,-0.192 -1.008,0 -1.872,0.54 -0.864,0.528 -1.38,1.428 -0.504,0.9 -0.504,1.944 0,1.068 0.504,1.968 0.504,0.9 1.368,1.428 0.864,0.528 1.884,0.528 1.308,0 2.364,-0.84 0.132,-0.096 0.264,-0.096 0.18,0 0.312,0.132 0.132,0.12 0.132,0.324 0,0.192 -0.132,0.336 -1.128,1.032 -2.94,1.032 z"/>
    <path id="path6465" style="font-weight:normal;font-size:12px;font-family:Comfortaa, sans-serif;letter-spacing:3px;fill:#333333" d="m 51.925812,17 q -0.192,0 -0.336,-0.132 -0.131999,-0.144 -0.131999,-0.336 V 8.096 q 0,-0.192 0.131999,-0.324 0.144,-0.144 0.336,-0.144 0.204,0 0.336,0.132 0.132001,0.132 0.132001,0.336 v 8.016 h 4.692 q 0.203999,0 0.336,0.132 0.131999,0.12 0.131999,0.312 0,0.192 -0.131999,0.324 -0.132001,0.12 -0.336,0.12 z"/>
    <path id="path6467" style="font-weight:normal;font-size:12px;font-family:Comfortaa, sans-serif;letter-spacing:3px;fill:#333333" d="m 62.519562,17 q -0.204,0 -0.336,-0.132 -0.131999,-0.132 -0.131999,-0.336 V 8.096 q 0,-0.204 0.131999,-0.336 0.132,-0.132 0.336,-0.132 h 2.4 q 0.876001,0 1.56,0.396 0.696,0.384 1.08,1.08 0.384,0.684 0.384,1.572 0,0.876 -0.384,1.56 -0.384,0.684 -1.08,1.068 -0.683999,0.384 -1.56,0.384 h -1.931999 v 2.844 q 0,0.204 -0.132001,0.336 -0.132,0.132 -0.336,0.132 z m 2.4,-4.212 q 0.612001,0 1.092,-0.264 0.48,-0.276 0.744,-0.756 0.276001,-0.48 0.276001,-1.092 0,-0.624 -0.276001,-1.104 -0.264,-0.492 -0.744,-0.768 -0.479999,-0.276 -1.092,-0.276 h -1.931999 v 4.26 z"/>
    <path id="path6469" style="font-weight:normal;font-size:12px;font-family:Comfortaa, sans-serif;letter-spacing:3px;fill:#333333" d="m 78.2435,16.28 q 0.108,0.18 0.108,0.324 0,0.18 -0.132,0.288 -0.132,0.108 -0.348,0.108 -0.144,0 -0.24,-0.06 -0.096,-0.06 -0.168,-0.18 l -2.16,-3.432 h -0.204 -1.776 v 3.204 q 0,0.204 -0.132,0.336 -0.132,0.132 -0.336,0.132 -0.204,0 -0.336,-0.132 -0.132,-0.132 -0.132,-0.336 V 8.096 q 0,-0.204 0.132,-0.336 0.132,-0.132 0.336,-0.132 h 2.244 q 0.876,0 1.56,0.372 0.684,0.36 1.068,1.02 0.396,0.66 0.396,1.5 0,0.924 -0.504,1.62 -0.492,0.696 -1.344,0.996 z m -3.144,-3.852 q 0.6,0 1.08,-0.24 0.492,-0.252 0.756,-0.684 0.276,-0.432 0.276,-0.984 0,-0.576 -0.276,-1.032 -0.264,-0.456 -0.744,-0.708 -0.48,-0.252 -1.092,-0.252 h -1.776 v 3.9 z"/>
  </g>
  <g class="brand" style="font-weight:bold;font-size:8.66667px;font-family:Audiowide, sans-serif;letter-spacing:2px;fill:#333333" id="text6210" aria-label="BOGAUDIO">
    <path id="path6446" style="font-weight:bold;font-size:8.66667px;font-family:Audiowide, sans-serif;letter-spacing:2px;fill:#333333" d="m 12.194664,372.66699 q 0,0.20313 -0.07194,0.43587 -0.06771,0.23275 -0.228516,0.43165 -0.156576,0.19889 -0.410482,0.33431 Q 11.22982,374 10.861656,374 H 6.6848963 q -0.1184897,0 -0.2200522,-0.0423 -0.1015625,-0.0423 -0.1777344,-0.11426 -0.07194,-0.0762 -0.1142579,-0.17773 -0.042318,-0.10156 -0.042318,-0.22005 V 368.486 q 0,-0.11426 0.042318,-0.21582 0.042318,-0.10156 0.1142579,-0.17773 0.076172,-0.0762 0.1777344,-0.11849 0.1015625,-0.0423 0.2200522,-0.0423 h 3.6816417 q 0.203125,0 0.435873,0.0719 0.232747,0.0719 0.431641,0.23275 0.203125,0.15657 0.33431,0.41048 0.135416,0.2539 0.135416,0.62207 v 0.20736 q 0,0.29199 -0.09733,0.63053 -0.09733,0.33431 -0.313152,0.63477 0.186198,0.11425 0.347006,0.27506 0.165039,0.16081 0.28776,0.3724 0.122722,0.21159 0.194662,0.47819 0.07194,0.2666 0.07194,0.58821 z m -1.100261,-0.21159 q 0,-0.21582 -0.06771,-0.38509 -0.06771,-0.1735 -0.19043,-0.29622 -0.122721,-0.12272 -0.296224,-0.1862 -0.173503,-0.0677 -0.389323,-0.0677 H 7.6708992 v -1.10872 h 1.9847013 q 0.2158204,0 0.3893235,-0.0635 0.173502,-0.0677 0.296224,-0.19043 0.122721,-0.12272 0.186198,-0.29199 0.06771,-0.1735 0.06771,-0.38932 v -0.20736 q 0,-0.23698 -0.228516,-0.23698 H 7.2307949 v 3.86784 h 3.6308611 q 0.02962,0 0.07194,-0.004 0.04232,-0.004 0.07617,-0.0254 0.03385,-0.0212 0.05924,-0.0719 0.02539,-0.0508 0.02539,-0.13965 z"/>
    <path id="path6448" style="font-weight:bold;font-size:8.66667px;font-family:Audiowide, sans-serif;letter-spacing:2px;fill:#333333" d="m 21.515629,371.54557 q 0,0.55436 -0.190429,1.01986 -0.19043,0.46549 -0.528972,0.80404 -0.338542,0.33854 -0.804037,0.52897 -0.461263,0.1862 -1.007161,0.1862 h -1.489584 q -0.545899,0 -1.011394,-0.1862 -0.465495,-0.19043 -0.804037,-0.52897 -0.338541,-0.33855 -0.533203,-0.80404 -0.19043,-0.4655 -0.19043,-1.01986 v -1.1595 q 0,-0.55013 0.19043,-1.01563 0.194662,-0.46973 0.533203,-0.80404 0.338542,-0.33854 0.804037,-0.52897 0.465495,-0.19043 1.011394,-0.19043 h 1.489584 q 0.545898,0 1.007161,0.19043 0.465495,0.19043 0.804037,0.52897 0.338542,0.33431 0.528972,0.80404 0.190429,0.4655 0.190429,1.01563 z m -1.10026,-1.1595 q 0,-0.32585 -0.105795,-0.58822 -0.101562,-0.2666 -0.291992,-0.4528 -0.186198,-0.19043 -0.4528,-0.29199 -0.262369,-0.1058 -0.579752,-0.1058 h -1.489584 q -0.321615,0 -0.588217,0.1058 -0.26237,0.10156 -0.452799,0.29199 -0.19043,0.1862 -0.296224,0.4528 -0.101563,0.26237 -0.101563,0.58822 v 1.1595 q 0,0.32585 0.101563,0.59245 0.105794,0.26237 0.296224,0.4528 0.190429,0.1862 0.452799,0.29199 0.266602,0.10156 0.588217,0.10156 h 1.48112 q 0.321615,0 0.583985,-0.10156 0.266601,-0.10579 0.457031,-0.29199 0.19043,-0.19043 0.291992,-0.4528 0.105795,-0.2666 0.105795,-0.59245 z"/>
    <path id="path6450" style="font-weight:bold;font-size:8.66667px;font-family:Audiowide, sans-serif;letter-spacing:2px;fill:#333333" d="m 30.599618,373.44564 q 0,0.11849 -0.04232,0.22005 -0.04232,0.10156 -0.11849,0.17773 -0.07194,0.0719 -0.173502,0.11426 Q 30.163745,374 30.045255,374 h -3.969402 q -0.152344,0 -0.330078,-0.0338 -0.173503,-0.0381 -0.347006,-0.11426 -0.169271,-0.0762 -0.325846,-0.19466 -0.156576,-0.12272 -0.279297,-0.292 -0.11849,-0.1735 -0.19043,-0.39778 -0.07194,-0.22852 -0.07194,-0.51205 v -2.97916 q 0,-0.15235 0.03385,-0.32585 0.03809,-0.17774 0.114258,-0.34701 0.07617,-0.1735 0.198893,-0.33007 0.122722,-0.15658 0.291993,-0.27507 0.173502,-0.12272 0.397786,-0.19466 0.224284,-0.0719 0.507813,-0.0719 h 4.472983 v 1.10026 h -4.472983 q -0.215821,0 -0.330078,0.11426 -0.114258,0.11425 -0.114258,0.33854 v 2.9707 q 0,0.21159 0.114258,0.33008 0.118489,0.11426 0.330078,0.11426 h 3.423504 v -1.37956 H 26.57097 v -1.10872 h 3.474285 q 0.11849,0 0.220053,0.0466 0.101562,0.0423 0.173502,0.11849 0.07617,0.0762 0.11849,0.17773 0.04232,0.0973 0.04232,0.21159 z"/>
    <path id="path6452" style="font-weight:bold;font-size:8.66667px;font-family:Audiowide, sans-serif;letter-spacing:2px;fill:#333333" d="m 39.708996,374 h -1.100261 v -1.48958 h -3.86784 V 374 h -1.100261 v -3.03418 q 0,-0.66439 0.228516,-1.22298 0.228516,-0.5586 0.634766,-0.96062 0.40625,-0.40201 0.960612,-0.6263 0.554362,-0.22428 1.210287,-0.22428 h 2.479819 q 0.114257,0 0.21582,0.0423 0.101562,0.0423 0.177734,0.11849 0.07617,0.0762 0.11849,0.17773 0.04232,0.10156 0.04232,0.21582 z m -4.968101,-2.58984 h 3.86784 v -2.37826 h -1.93392 q -0.05078,0 -0.21582,0.0169 -0.160808,0.0127 -0.376628,0.0719 -0.211589,0.0592 -0.448568,0.18196 -0.236979,0.12272 -0.435873,0.33854 -0.198893,0.21582 -0.330078,0.54167 -0.126953,0.32162 -0.126953,0.78288 z"/>
    <path id="path6454" style="font-weight:bold;font-size:8.66667px;font-family:Audiowide, sans-serif;letter-spacing:2px;fill:#333333" d="m 48.928399,373.44564 q 0,0.11849 -0.04232,0.22005 -0.04232,0.10156 -0.11849,0.17773 -0.07617,0.0719 -0.177735,0.11426 Q 48.488295,374 48.374037,374 h -2.479819 q -0.351237,0 -0.710937,-0.0762 -0.359701,-0.0762 -0.698243,-0.23275 -0.33431,-0.16081 -0.630534,-0.40625 -0.296224,-0.24544 -0.520508,-0.57975 -0.220052,-0.33854 -0.347005,-0.77018 -0.126953,-0.43588 -0.126953,-0.96908 v -3.03418 h 1.10026 v 3.03418 q 0,0.46549 0.126954,0.78711 0.131185,0.32161 0.330078,0.53743 0.198893,0.21582 0.435872,0.33855 0.23698,0.12272 0.448568,0.18196 0.215821,0.0592 0.376628,0.0762 0.165039,0.0127 0.21582,0.0127 h 1.93392 v -4.9681 h 1.100261 z"/>
    <path id="path6456" style="font-weight:bold;font-size:8.66667px;font-family:Audiowide, sans-serif;letter-spacing:2px;fill:#333333" d="m 58.266292,371.46094 q 0,0.55436 -0.194661,1.01985 -0.19043,0.4655 -0.528972,0.80404 -0.338541,0.33431 -0.804036,0.52474 Q 56.273128,374 55.727229,374 h -2.970704 q -0.11849,0 -0.220052,-0.0423 -0.101563,-0.0423 -0.177735,-0.11426 -0.07194,-0.0762 -0.114258,-0.17773 -0.04232,-0.10156 -0.04232,-0.22005 V 368.486 q 0,-0.11426 0.04232,-0.21582 0.04232,-0.10156 0.114258,-0.17773 0.07617,-0.0762 0.177735,-0.11849 0.101562,-0.0423 0.220052,-0.0423 h 2.970704 q 0.545899,0 1.011394,0.19043 0.465495,0.19043 0.804036,0.52897 0.338542,0.33431 0.528972,0.80404 0.194661,0.46549 0.194661,1.01562 z m -1.10026,-0.99024 q 0,-0.32161 -0.105795,-0.58821 -0.101562,-0.26661 -0.291992,-0.4528 -0.19043,-0.19043 -0.457031,-0.292 -0.26237,-0.10579 -0.583985,-0.10579 h -2.424806 v 3.86784 h 2.424806 q 0.321615,0 0.583985,-0.10156 0.266601,-0.1058 0.457031,-0.292 0.19043,-0.19043 0.291992,-0.4528 0.105795,-0.2666 0.105795,-0.59244 z"/>
    <path id="path6458" style="font-weight:bold;font-size:8.66667px;font-family:Audiowide, sans-serif;letter-spacing:2px;fill:#333333" d="M 62.462581,374 H 61.36232 v -6.06836 h 1.100261 z"/>
    <path id="path6460" style="font-weight:bold;font-size:8.66667px;font-family:Audiowide, sans-serif;letter-spacing:2px;fill:#333333" d="m 72.126322,371.54557 q 0,0.55436 -0.190429,1.01986 -0.19043,0.46549 -0.528972,0.80404 -0.338542,0.33854 -0.804037,0.52897 -0.461263,0.1862 -1.007161,0.1862 h -1.489584 q -0.545899,0 -1.011394,-0.1862 -0.465495,-0.19043 -0.804037,-0.52897 -0.338541,-0.33855 -0.533203,-0.80404 -0.19043,-0.4655 -0.19043,-1.01986 v -1.1595 q 0,-0.55013 0.19043,-1.01563 0.194662,-0.46973 0.533203,-0.80404 0.338542,-0.33854 0.804037,-0.52897 0.465495,-0.19043 1.011394,-0.19043 h 1.489584 q 0.545898,0 1.007161,0.19043 0.465495,0.19043 0.804037,0.52897 0.338542,0.33431 0.528972,0.80404 0.190429,0.4655 0.190429,1.01563 z m -1.10026,-1.1595 q 0,-0.32585 -0.105795,-0.58822 -0.101562,-0.2666 -0.291992,-0.4528 -0.186198,-0.19043 -0.4528,-0.29199 -0.26237,-0.1058 -0.579752,-0.1058 h -1.489584 q -0.321615,0 -0.588217,0.1058 -0.26237,0.10156 -0.452799,0.29199 -0.19043,0.1862 -0.296224,0.4528 -0.101563,0.26237 -0.101563,0.58822 v 1.1595 q 0,0.32585 0.101563,0.59245 0.105794,0.26237 0.296224,0.4528 0.190429,0.1862 0.452799,0.29199 0.266602,0.10156 0.588217,0.10156 h 1.48112 q 0.321615,0 0.583985,-0.10156 0.266601,-0.10579 0.457031,-0.29199 0.19043,-0.19043 0.291992,-0.4528 0.105795,-0.2666 0.105795,-0.59245 z"/>
  </g>
  <path d="M 26.5,370 H 28 v 2 h -1.5 z" style="fill:#dddddd" id="rect6212"/>
  <!-- <polyline points="0,0 0,380" stroke="#0f0" stroke-width="1" fill="none" transform="translate(45 0)" /> -->
  <!-- <rect width="90" height="15" fill="#0f0" transform="translate(0 18)" /> -->
  <!-- <rect width="90" height="15" fill="#0f0" transform="translate(0 102)" /> -->
  <!-- <rect width="90" height="7" fill="#0f0" transform="translate(0 185)" /> -->
  <!-- <rect width="90" height="7" fill="#0f0" transform="translate(0 232)" /> -->
  <g style="font-weight:bold;font-size:10.6667px;font-family:Roboto, sans-serif;letter-spacing:2px;fill:#333333" id="text6216" aria-label="THRESHOLD">
    <path id="path6518" style="font-weight:bold;font-size:10.6667px;font-family:Roboto, sans-serif;letter-spacing:2px;fill:#333333" d="M 14.385437,33.682272 H 12.062513 V 40 H 10.500008 V 33.682272 H 8.208334 v -1.265629 h 6.177103 z"/>
    <path id="path6520" style="font-weight:bold;font-size:10.6667px;font-family:Roboto, sans-serif;letter-spacing:2px;fill:#333333" d="M 23.453167,40 H 21.890662 V 36.74999 H 18.843777 V 40 h -1.562505 v -7.583357 h 1.562505 v 3.072926 h 3.046885 v -3.072926 h 1.562505 z"/>
    <path id="path6522" style="font-weight:bold;font-size:10.6667px;font-family:Roboto, sans-serif;letter-spacing:2px;fill:#333333" d="M 29.630264,37.22395 H 28.385468 V 40 h -1.562505 v -7.583357 h 2.817718 q 1.343754,0 2.072923,0.59896 0.729169,0.59896 0.729169,1.692714 0,0.776044 -0.338543,1.296879 -0.333334,0.515626 -1.015628,0.822919 l 1.64063,3.098968 V 40 h -1.677089 z m -1.244796,-1.265629 h 1.260421 q 0.588543,0 0.911461,-0.296876 0.322918,-0.302085 0.322918,-0.828128 0,-0.53646 -0.307293,-0.843753 -0.302084,-0.307292 -0.932294,-0.307292 h -1.255213 z"/>
    <path id="path6524" style="font-weight:bold;font-size:10.6667px;font-family:Roboto, sans-serif;letter-spacing:2px;fill:#333333" d="m 40.197999,36.713531 h -3.00001 v 2.031257 h 3.520845 V 40 h -5.08335 v -7.583357 h 5.072933 v 1.265629 h -3.510428 v 1.807297 h 3.00001 z"/>
    <path id="path6526" style="font-weight:bold;font-size:10.6667px;font-family:Roboto, sans-serif;letter-spacing:2px;fill:#333333" d="m 47.567809,38.01041 q 0,-0.442709 -0.312501,-0.677085 -0.312501,-0.239584 -1.125003,-0.500002 -0.812503,-0.265626 -1.286463,-0.520835 -1.29167,-0.697919 -1.29167,-1.880214 0,-0.614585 0.343751,-1.093753 0.348959,-0.484377 0.994795,-0.755211 0.651043,-0.270834 1.458338,-0.270834 0.812502,0 1.447921,0.296876 0.635418,0.291667 0.984378,0.828127 0.354168,0.53646 0.354168,1.218754 h -1.562505 q 0,-0.520835 -0.328126,-0.807294 -0.328126,-0.291668 -0.921878,-0.291668 -0.572919,0 -0.890628,0.244793 -0.317709,0.239584 -0.317709,0.635418 0,0.369793 0.369792,0.619794 0.375002,0.250001 1.098962,0.468752 1.333338,0.401042 1.942715,0.994794 0.609377,0.593752 0.609377,1.479172 0,0.984378 -0.744794,1.54688 -0.744794,0.557293 -2.005215,0.557293 -0.875003,0 -1.593755,-0.317709 -0.718752,-0.322918 -1.098962,-0.880211 -0.375001,-0.557294 -0.375001,-1.291671 h 1.567713 q 0,1.255212 1.500005,1.255212 0.557293,0 0.869794,-0.223959 0.312501,-0.229167 0.312501,-0.635419 z"/>
    <path id="path6528" style="font-weight:bold;font-size:10.6667px;font-family:Roboto, sans-serif;letter-spacing:2px;fill:#333333" d="M 58.369919,40 H 56.807414 V 36.74999 H 53.760529 V 40 h -1.562505 v -7.583357 h 1.562505 v 3.072926 h 3.046885 v -3.072926 h 1.562505 z"/>
    <path id="path6530" style="font-weight:bold;font-size:10.6667px;font-family:Roboto, sans-serif;letter-spacing:2px;fill:#333333" d="m 67.968902,36.380197 q 0,1.119795 -0.395835,1.963548 -0.395835,0.843752 -1.13542,1.302087 -0.734378,0.458335 -1.687506,0.458335 -0.942711,0 -1.682297,-0.453126 -0.739585,-0.453127 -1.145837,-1.291671 -0.406251,-0.843753 -0.411459,-1.937506 v -0.375001 q 0,-1.119796 0.401043,-1.968757 0.406251,-0.854169 1.140628,-1.307296 0.739586,-0.458334 1.687506,-0.458334 0.947919,0 1.682297,0.458334 0.739585,0.453127 1.140628,1.307296 0.406252,0.848961 0.406252,1.963548 z m -1.583339,-0.343751 q 0,-1.192712 -0.427085,-1.812506 -0.427084,-0.619794 -1.218753,-0.619794 -0.786461,0 -1.213546,0.614586 -0.427085,0.609377 -0.432293,1.791672 v 0.369793 q 0,1.161462 0.427085,1.802089 0.427084,0.640627 1.22917,0.640627 0.786461,0 1.208337,-0.614585 0.421877,-0.619794 0.427085,-1.802089 z"/>
    <path id="path6532" style="font-weight:bold;font-size:10.6667px;font-family:Roboto, sans-serif;letter-spacing:2px;fill:#333333" d="m 72.677243,38.744788 h 3.317719 V 40 h -4.880224 v -7.583357 h 1.562505 z"/>
    <path id="path6534" style="font-weight:bold;font-size:10.6667px;font-family:Roboto, sans-serif;letter-spacing:2px;fill:#333333" d="m 78.885589,40 v -7.583357 h 2.333341 q 1.000003,0 1.786464,0.453126 0.791669,0.447918 1.234379,1.281254 0.44271,0.828128 0.44271,1.885423 v 0.348959 q 0,1.057295 -0.437502,1.880215 -0.432293,0.822919 -1.223962,1.276045 Q 82.22935,39.994792 81.234555,40 Z m 1.562505,-6.317728 v 5.062516 h 0.755211 q 0.916669,0 1.401046,-0.598961 0.484376,-0.59896 0.494793,-1.713547 v -0.401043 q 0,-1.156253 -0.479168,-1.750005 -0.479168,-0.59896 -1.401046,-0.59896 z"/>
  </g>
  <g transform="translate(10,36)" id="use6218">
    <g transform="translate(35,35)" id="g6313">
      <g style="font-weight:bold;font-size:8px;font-family:Roboto, sans-serif;fill:#333333" id="text6289" transform="translate(-22.5,24.150635)" aria-label="-24">
        <path id="path6476" style="font-weight:bold;font-size:8px;font-family:Roboto, sans-serif;fill:#333333" d="M 2.6289063,-1.9804687 H 0.4296875 V -2.890625 h 2.1992188 z"/>
        <path id="path6478" style="font-weight:bold;font-size:8px;font-family:Roboto, sans-serif;fill:#333333" d="M 7.3945312,0 H 3.4960938 V -0.7734375 L 5.3359375,-2.734375 Q 5.7148437,-3.1484375 5.8945312,-3.4570313 6.078125,-3.765625 6.078125,-4.0429687 q 0,-0.3789063 -0.1914063,-0.59375 -0.1914062,-0.21875 -0.546875,-0.21875 -0.3828125,0 -0.6054687,0.265625 -0.21875,0.2617187 -0.21875,0.6914062 H 3.3828125 q 0,-0.5195312 0.2460938,-0.9492187 0.25,-0.4296875 0.7031249,-0.671875 0.453125,-0.2460938 1.0273438,-0.2460938 0.8789062,0 1.3632812,0.421875 0.4882813,0.421875 0.4882813,1.1914063 0,0.4218749 -0.21875,0.8593749 -0.21875,0.4375 -0.75,1.0195313 l -1.2929688,1.36328125 h 2.4453125 z"/>
        <path id="path6480" style="font-weight:bold;font-size:8px;font-family:Roboto, sans-serif;fill:#333333" d="m 11.429688,-2.140625 h 0.644531 v 0.9101563 H 11.429688 V 0 H 10.300781 V -1.2304687 H 7.96875 L 7.9179687,-1.9414062 10.289063,-5.6875 h 1.140625 z m -2.3867192,0 h 1.2578122 v -2.0078125 l -0.07422,0.1289063 z"/>
      </g>
      <path d="M 0,0 H 3" style="stroke:#333333;stroke-width:0.3" transform="rotate(150,-10.5,2.8134665)" id="polyline6291"/>
      <g style="font-weight:bold;font-size:8px;font-family:Roboto, sans-serif;fill:#333333" id="text6293" transform="translate(-35,2.5)" aria-label="-18">
        <path id="path6484" style="font-weight:bold;font-size:8px;font-family:Roboto, sans-serif;fill:#333333" d="M 2.6289063,-1.9804687 H 0.4296875 V -2.890625 h 2.1992188 z"/>
        <path id="path6486" style="font-weight:bold;font-size:8px;font-family:Roboto, sans-serif;fill:#333333" d="M 6.2382812,0 H 5.109375 v -4.3515625 l -1.3476562,0.4179687 v -0.9179687 l 2.3554687,-0.84375 h 0.1210937 z"/>
        <path id="path6488" style="font-weight:bold;font-size:8px;font-family:Roboto, sans-serif;fill:#333333" d="m 11.796875,-4.1757812 q 0,0.4140624 -0.207031,0.7343749 -0.207031,0.3203125 -0.570313,0.5117188 0.414063,0.1992187 0.65625,0.5507812 0.242188,0.3476563 0.242188,0.8203126 0,0.75781245 -0.515625,1.1992187 -0.515625,0.4375 -1.402344,0.4375 -0.8867187,0 -1.40625,-0.44140625 -0.5195312,-0.44140625 -0.5195312,-1.19531245 0,-0.4726563 0.2421875,-0.8242188 0.2421875,-0.3515625 0.6523437,-0.546875 -0.3632812,-0.1914063 -0.5703125,-0.5117188 -0.203125,-0.3203125 -0.203125,-0.7343749 0,-0.7265625 0.484375,-1.15625 0.484375,-0.4335938 1.3164063,-0.4335938 0.8281252,0 1.3125002,0.4296875 0.488281,0.4257813 0.488281,1.1601563 z m -1.011719,2.5351562 q 0,-0.3710938 -0.214843,-0.59375 -0.214844,-0.2226563 -0.5781255,-0.2226563 -0.359375,0 -0.5742187,0.2226563 -0.2148438,0.21875 -0.2148438,0.59375 0,0.3632813 0.2109375,0.5859375 Q 9.625,-0.83203125 10,-0.83203125 q 0.367188,0 0.574219,-0.21484375 0.210937,-0.2148437 0.210937,-0.59375 z m -0.117187,-2.4804687 q 0,-0.3320313 -0.175781,-0.53125 -0.175782,-0.203125 -0.4960942,-0.203125 -0.3164063,0 -0.4921875,0.1953125 -0.1757813,0.1953125 -0.1757813,0.5390625 0,0.3398437 0.1757813,0.5468749 Q 9.6796875,-3.3671875 10,-3.3671875 q 0.320313,0 0.492188,-0.2070313 0.175781,-0.2070312 0.175781,-0.5468749 z"/>
      </g>
      <path d="M 0,0 H 3" style="stroke:#333333;stroke-width:0.3" transform="rotate(-150,-10.5,-2.8134665)" id="polyline6295"/>
      <g style="font-weight:bold;font-size:8px;font-family:Roboto, sans-serif;fill:#333333" id="text6297" transform="translate(-22.5,-19.150635)" aria-label="-12">
        <path id="path6492" style="font-weight:bold;font-size:8px;font-family:Roboto, sans-serif;fill:#333333" d="M 2.6289063,-1.9804687 H 0.4296875 V -2.890625 h 2.1992188 z"/>
        <path id="path6494" style="font-weight:bold;font-size:8px;font-family:Roboto, sans-serif;fill:#333333" d="M 6.2382812,0 H 5.109375 v -4.3515625 l -1.3476562,0.4179687 v -0.9179687 l 2.3554687,-0.84375 h 0.1210937 z"/>
        <path id="path6496" style="font-weight:bold;font-size:8px;font-family:Roboto, sans-serif;fill:#333333" d="M 11.988281,0 H 8.0898438 V -0.7734375 L 9.9296875,-2.734375 q 0.3789065,-0.4140625 0.5585935,-0.7226563 0.183594,-0.3085937 0.183594,-0.5859374 0,-0.3789063 -0.191406,-0.59375 -0.191406,-0.21875 -0.5468752,-0.21875 -0.3828125,0 -0.6054688,0.265625 -0.21875,0.2617187 -0.21875,0.6914062 H 7.9765625 q 0,-0.5195312 0.2460938,-0.9492187 0.25,-0.4296875 0.703125,-0.671875 0.453125,-0.2460938 1.0273437,-0.2460938 0.878906,0 1.363281,0.421875 0.488282,0.421875 0.488282,1.1914063 0,0.4218749 -0.21875,0.8593749 -0.21875,0.4375 -0.75,1.0195313 l -1.2929692,1.36328125 h 2.4453122 z"/>
      </g>
      <path d="M 0,0 H 3" style="stroke:#333333;stroke-width:0.3" transform="rotate(-90,-10.5,-10.5)" id="polyline6299"/>
      <g style="font-weight:bold;font-size:8px;font-family:Roboto, sans-serif;fill:#333333" id="text6301" transform="translate(10.2,-19.150635)" aria-label="-6">
        <path id="path6500" style="font-weight:bold;font-size:8px;font-family:Roboto, sans-serif;fill:#333333" d="M 2.6289063,-1.9804687 H 0.4296875 V -2.890625 h 2.1992188 z"/>
        <path id="path6502" style="font-weight:bold;font-size:8px;font-family:Roboto, sans-serif;fill:#333333" d="m 6.5585937,-5.7460937 v 0.9296875 h -0.109375 q -0.765625,0.011719 -1.234375,0.3984375 Q 4.75,-4.03125 4.65625,-3.34375 q 0.453125,-0.4609375 1.1445312,-0.4609375 0.7421875,0 1.1796875,0.53125 0.4375,0.53125 0.4375,1.3984375 0,0.5546875 -0.2421875,1.00390625 Q 6.9375,-0.421875 6.4960937,-0.171875 q -0.4375,0.25 -0.9921875,0.25 -0.8984375,0 -1.453125,-0.625 Q 3.5,-1.171875 3.5,-2.2148438 v -0.40625 q 0,-0.9257812 0.3476563,-1.6328124 0.3515624,-0.7109375 1.0039062,-1.0976563 0.65625,-0.390625 1.5195312,-0.3945312 z m -1.1015625,2.8476562 q -0.2734375,0 -0.4960937,0.1445312 -0.2226563,0.140625 -0.328125,0.375 v 0.34375 q 0,0.5664063 0.2226562,0.8867188 0.2226563,0.31640625 0.625,0.31640625 0.3632813,0 0.5859375,-0.28515625 0.2265625,-0.2890625 0.2265625,-0.7460937 0,-0.4648438 -0.2265625,-0.7500001 -0.2265625,-0.2851562 -0.609375,-0.2851562 z"/>
      </g>
      <path d="M 0,0 H 3" style="stroke:#333333;stroke-width:0.3" transform="rotate(-30,-10.5,-39.186533)" id="polyline6303"/>
      <g style="font-weight:bold;font-size:8px;font-family:Roboto, sans-serif;fill:#333333" id="text6305" transform="translate(22.7,2.5)" aria-label="0">
        <path id="path6506" style="font-weight:bold;font-size:8px;font-family:Roboto, sans-serif;fill:#333333" d="m 4.2148437,-2.3515625 q 0,1.1796875 -0.4882812,1.8046875 -0.4882812,0.625 -1.4296875,0.625 -0.9296875,0 -1.421875,-0.61328125 Q 0.3828125,-1.1484375 0.37109375,-2.2929688 v -1.046875 q 0,-1.1914062 0.4921875,-1.8085937 Q 1.359375,-5.765625 2.2890625,-5.765625 q 0.9296875,0 1.421875,0.6132813 0.4921875,0.609375 0.5039062,1.7539062 z M 3.0859375,-3.5 q 0,-0.7070312 -0.1953125,-1.0273437 -0.1914062,-0.3242188 -0.6015625,-0.3242188 -0.3984375,0 -0.5898438,0.3085938 Q 1.5117187,-4.2382812 1.5,-3.5859375 v 1.3828125 q 0,0.6953125 0.1875,1.0351563 0.1914062,0.33593745 0.609375,0.33593745 0.4140625,0 0.5976563,-0.32421875 0.1835937,-0.3242187 0.1914062,-0.9921875 z"/>
      </g>
      <path d="M 0,0 H 3" style="stroke:#333333;stroke-width:0.3" transform="rotate(30,-10.5,39.186533)" id="polyline6307"/>
      <g style="font-weight:bold;font-size:8px;font-family:Roboto, sans-serif;fill:#333333" id="text6309" transform="translate(10.2,24.150635)" aria-label="6">
        <path id="path6510" style="font-weight:bold;font-size:8px;font-family:Roboto, sans-serif;fill:#333333" d="m 3.4492188,-5.7460937 v 0.9296875 h -0.109375 q -0.765625,0.011719 -1.234375,0.3984375 Q 1.640625,-4.03125 1.546875,-3.34375 2,-3.8046875 2.6914063,-3.8046875 q 0.7421875,0 1.1796875,0.53125 0.4374999,0.53125 0.4374999,1.3984375 0,0.5546875 -0.2421875,1.00390625 Q 3.828125,-0.421875 3.3867188,-0.171875 q -0.4375,0.25 -0.9921875,0.25 -0.8984376,0 -1.45312505,-0.625 Q 0.390625,-1.171875 0.390625,-2.2148438 v -0.40625 q 0,-0.9257812 0.34765625,-1.6328124 0.35156245,-0.7109375 1.00390625,-1.0976563 0.65625,-0.390625 1.5195313,-0.3945312 z m -1.1015625,2.8476562 q -0.2734375,0 -0.4960938,0.1445312 -0.2226563,0.140625 -0.328125,0.375 v 0.34375 q 0,0.5664063 0.2226562,0.8867188 0.2226563,0.31640625 0.6250001,0.31640625 0.3632812,0 0.5859375,-0.28515625 0.2265625,-0.2890625 0.2265625,-0.7460937 0,-0.4648438 -0.2265625,-0.7500001 -0.2265625,-0.2851562 -0.609375,-0.2851562 z"/>
      </g>
      <g style="font-weight:bold;font-size:8px;font-family:Roboto, sans-serif;fill:#333333" id="text6311" transform="translate(-4.7,31.2)" aria-label="dB">
        <path id="path6513" style="font-weight:bold;font-size:8px;font-family:Roboto, sans-serif;fill:#333333" d="m 0.2578125,-2.1445313 q 0,-0.9882812 0.44140625,-1.5742187 0.44531245,-0.5859375 1.21484375,-0.5859375 0.6171875,0 1.0195313,0.4609375 V -6 H 4.0664062 V 0 H 3.046875 L 2.9921875,-0.44921875 Q 2.5703125,0.078125 1.90625,0.078125 q -0.7460938,0 -1.19921875,-0.5859375 Q 0.2578125,-1.0976562 0.2578125,-2.1445313 Z M 1.3867187,-2.0625 q 0,0.59375 0.2070313,0.9101563 0.2070312,0.3164062 0.6015625,0.3164062 0.5234375,0 0.7382813,-0.4414062 V -2.9453125 Q 2.7226563,-3.3867188 2.203125,-3.3867188 q -0.8164063,0 -0.8164063,1.3242188 z"/>
        <path id="path6515" style="font-weight:bold;font-size:8px;font-family:Roboto, sans-serif;fill:#333333" d="M 5.0234375,0 V -5.6875 H 7.015625 q 1.0351563,0 1.5703125,0.3984375 0.5351563,0.3945313 0.5351563,1.1601563 0,0.4179687 -0.2148438,0.7382812 -0.2148437,0.3164062 -0.5976562,0.4648437 0.4375,0.109375 0.6875,0.4414063 Q 9.25,-2.1523438 9.25,-1.671875 9.25,-0.8515625 8.7265625,-0.4296875 8.203125,-0.0078125 7.234375,0 Z m 1.171875,-2.4765625 v 1.53515625 h 1.0039062 q 0.4140625,0 0.6445313,-0.19531245 0.234375,-0.1992188 0.234375,-0.546875 0,-0.7812501 -0.8085938,-0.7929688 z m 0,-0.828125 H 7.0625 q 0.8867187,-0.015625 0.8867187,-0.7070312 0,-0.3867188 -0.2265625,-0.5546875 Q 7.5,-4.7382812 7.015625,-4.7382812 H 6.1953125 Z"/>
      </g>
    </g>
  </g>
  <g style="font-weight:bold;font-size:10.6667px;font-family:Roboto, sans-serif;letter-spacing:2px;fill:#333333" id="text6222" aria-label="OUT GAIN">
    <path id="path6430" style="font-weight:bold;font-size:10.6667px;font-family:Roboto, sans-serif;letter-spacing:2px;fill:#333333" d="m 22.406272,118.3802 q 0,1.11979 -0.395835,1.96354 -0.395834,0.84376 -1.13542,1.30209 -0.734377,0.45834 -1.687505,0.45834 -0.942712,0 -1.682297,-0.45313 -0.739586,-0.45313 -1.145837,-1.29167 -0.406252,-0.84375 -0.41146,-1.93751 v -0.375 q 0,-1.11979 0.401043,-1.96875 0.406251,-0.85417 1.140629,-1.3073 0.739585,-0.45833 1.687505,-0.45833 0.94792,0 1.682297,0.45833 0.739586,0.45313 1.140629,1.3073 0.406251,0.84896 0.406251,1.96354 z m -1.583339,-0.34375 q 0,-1.19272 -0.427084,-1.81251 -0.427085,-0.61979 -1.218754,-0.61979 -0.786461,0 -1.213546,0.61458 -0.427084,0.60938 -0.432293,1.79167 v 0.3698 q 0,1.16146 0.427085,1.80209 0.427085,0.64062 1.229171,0.64062 0.78646,0 1.208337,-0.61458 0.421876,-0.6198 0.427084,-1.80209 z"/>
    <path id="path6432" style="font-weight:bold;font-size:10.6667px;font-family:Roboto, sans-serif;letter-spacing:2px;fill:#333333" d="m 31.29171,114.41664 v 4.99481 q 0,1.2448 -0.781253,1.96876 -0.776044,0.72396 -2.125006,0.72396 -1.32813,0 -2.109382,-0.70313 -0.781252,-0.70313 -0.796878,-1.9323 v -5.0521 h 1.562505 v 5.00523 q 0,0.74479 0.354168,1.08854 0.359376,0.33854 0.989587,0.33854 1.317712,0 1.338546,-1.38542 v -5.04689 z"/>
    <path id="path6434" style="font-weight:bold;font-size:10.6667px;font-family:Roboto, sans-serif;letter-spacing:2px;fill:#333333" d="M 40.281315,115.68227 H 37.958391 V 122 h -1.562505 v -6.31773 h -2.291674 v -1.26563 h 6.177103 z"/>
    <path id="path6436" style="font-weight:bold;font-size:10.6667px;font-family:Roboto, sans-serif;letter-spacing:2px;fill:#333333" d="m 53.531345,121.04166 q -0.421876,0.50521 -1.192712,0.78646 -0.770836,0.27605 -1.708339,0.27605 -0.984378,0 -1.729172,-0.42709 -0.739586,-0.43229 -1.145837,-1.25 -0.401043,-0.81771 -0.41146,-1.92188 v -0.51563 q 0,-1.13542 0.38021,-1.96355 0.385418,-0.83333 1.10417,-1.27083 0.723961,-0.44271 1.692714,-0.44271 1.348962,0 2.109381,0.64583 0.760419,0.64063 0.901045,1.8698 h -1.520838 q -0.104167,-0.65105 -0.463543,-0.95313 -0.354168,-0.30208 -0.97917,-0.30208 -0.796878,0 -1.213546,0.59896 -0.416668,0.59896 -0.421876,1.78125 v 0.48438 q 0,1.19271 0.453126,1.80209 0.453127,0.60937 1.32813,0.60937 0.880211,0 1.255212,-0.375 v -1.30729 h -1.42188 v -1.15105 h 2.984385 z"/>
    <path id="path6438" style="font-weight:bold;font-size:10.6667px;font-family:Roboto, sans-serif;letter-spacing:2px;fill:#333333" d="M 61.083444,120.4375 H 58.343852 L 57.823017,122 h -1.661463 l 2.822925,-7.58336 h 1.447922 L 63.270951,122 h -1.661463 z m -2.317715,-1.26563 h 1.895839 l -0.953128,-2.83855 z"/>
    <path id="path6440" style="font-weight:bold;font-size:10.6667px;font-family:Roboto, sans-serif;letter-spacing:2px;fill:#333333" d="m 67.651167,122 h -1.562505 v -7.58336 h 1.562505 z"/>
    <path id="path6442" style="font-weight:bold;font-size:10.6667px;font-family:Roboto, sans-serif;letter-spacing:2px;fill:#333333" d="m 77.260569,122 h -1.562505 l -3.041676,-4.9896 V 122 h -1.562505 v -7.58336 h 1.562505 l 3.046885,5.00002 v -5.00002 h 1.557296 z"/>
  </g>
  <g transform="translate(10,118)" id="use6224">
    <g transform="translate(35,35)" id="g6337">
      <g style="font-weight:bold;font-size:8px;font-family:Roboto, sans-serif;fill:#333333" id="text6317" transform="translate(-16.5,24.150635)" aria-label="0">
        <path id="path6400" style="font-weight:bold;font-size:8px;font-family:Roboto, sans-serif;fill:#333333" d="m 4.2148437,-2.3515625 q 0,1.1796875 -0.4882812,1.8046875 -0.4882812,0.625 -1.4296875,0.625 -0.9296875,0 -1.421875,-0.61328125 Q 0.3828125,-1.1484375 0.37109375,-2.2929688 v -1.046875 q 0,-1.1914062 0.4921875,-1.8085937 Q 1.359375,-5.765625 2.2890625,-5.765625 q 0.9296875,0 1.421875,0.6132813 0.4921875,0.609375 0.5039062,1.7539062 z M 3.0859375,-3.5 q 0,-0.7070312 -0.1953125,-1.0273437 -0.1914062,-0.3242188 -0.6015625,-0.3242188 -0.3984375,0 -0.5898438,0.3085938 Q 1.5117187,-4.2382812 1.5,-3.5859375 v 1.3828125 q 0,0.6953125 0.1875,1.0351563 0.1914062,0.33593745 0.609375,0.33593745 0.4140625,0 0.5976563,-0.32421875 0.1835937,-0.3242187 0.1914062,-0.9921875 z"/>
      </g>
      <path d="M 0,0 H 3" style="stroke:#333333;stroke-width:0.3" transform="rotate(157.5,-10.5,2.0885799)" id="polyline6319"/>
      <g style="font-weight:bold;font-size:8px;font-family:Roboto, sans-serif;fill:#333333" id="text6321" transform="translate(-27.648146,-3.9704761)" aria-label="6">
        <path id="path6404" style="font-weight:bold;font-size:8px;font-family:Roboto, sans-serif;fill:#333333" d="m 3.4492188,-5.7460937 v 0.9296875 h -0.109375 q -0.765625,0.011719 -1.234375,0.3984375 Q 1.640625,-4.03125 1.546875,-3.34375 2,-3.8046875 2.6914063,-3.8046875 q 0.7421875,0 1.1796875,0.53125 0.4374999,0.53125 0.4374999,1.3984375 0,0.5546875 -0.2421875,1.00390625 Q 3.828125,-0.421875 3.3867188,-0.171875 q -0.4375,0.25 -0.9921875,0.25 -0.8984376,0 -1.45312505,-0.625 Q 0.390625,-1.171875 0.390625,-2.2148438 v -0.40625 q 0,-0.9257812 0.34765625,-1.6328124 0.35156245,-0.7109375 1.00390625,-1.0976563 0.65625,-0.390625 1.5195313,-0.3945312 z m -1.1015625,2.8476562 q -0.2734375,0 -0.4960938,0.1445312 -0.2226563,0.140625 -0.328125,0.375 v 0.34375 q 0,0.5664063 0.2226562,0.8867188 0.2226563,0.31640625 0.6250001,0.31640625 0.3632812,0 0.5859375,-0.28515625 0.2265625,-0.2890625 0.2265625,-0.7460937 0,-0.4648438 -0.2265625,-0.7500001 -0.2265625,-0.2851562 -0.609375,-0.2851562 z"/>
      </g>
      <path d="M 0,0 H 3" style="stroke:#333333;stroke-width:0.3" transform="rotate(-127.5,-10.5,-5.178027)" id="polyline6323"/>
      <g style="font-weight:bold;font-size:8px;font-family:Roboto, sans-serif;fill:#333333" id="text6325" transform="translate(-5,-22.5)" aria-label="12">
        <path id="path6408" style="font-weight:bold;font-size:8px;font-family:Roboto, sans-serif;fill:#333333" d="M 3.1289063,0 H 2 v -4.3515625 l -1.34765625,0.4179687 v -0.9179687 l 2.35546875,-0.84375 h 0.1210938 z"/>
        <path id="path6410" style="font-weight:bold;font-size:8px;font-family:Roboto, sans-serif;fill:#333333" d="M 8.8789063,0 H 4.9804687 V -0.7734375 L 6.8203125,-2.734375 Q 7.1992187,-3.1484375 7.3789062,-3.4570313 7.5625,-3.765625 7.5625,-4.0429687 q 0,-0.3789063 -0.1914063,-0.59375 -0.1914062,-0.21875 -0.546875,-0.21875 -0.3828125,0 -0.6054687,0.265625 Q 6,-4.328125 6,-3.8984375 H 4.8671875 q 0,-0.5195312 0.2460937,-0.9492187 0.25,-0.4296875 0.703125,-0.671875 0.453125,-0.2460938 1.0273438,-0.2460938 0.8789062,0 1.3632813,0.421875 0.4882812,0.421875 0.4882812,1.1914063 0,0.4218749 -0.21875,0.8593749 -0.21875,0.4375 -0.75,1.0195313 l -1.2929688,1.36328125 h 2.4453126 z"/>
      </g>
      <path d="M 0,0 H 3" style="stroke:#333333;stroke-width:0.3" transform="rotate(-52.5,-10.5,-21.291894)" id="polyline6327"/>
      <g style="font-weight:bold;font-size:8px;font-family:Roboto, sans-serif;fill:#333333" id="text6329" transform="translate(22.148146,-3.9704761)" aria-label="18">
        <path id="path6414" style="font-weight:bold;font-size:8px;font-family:Roboto, sans-serif;fill:#333333" d="M 3.1289063,0 H 2 v -4.3515625 l -1.34765625,0.4179687 v -0.9179687 l 2.35546875,-0.84375 h 0.1210938 z"/>
        <path id="path6416" style="font-weight:bold;font-size:8px;font-family:Roboto, sans-serif;fill:#333333" d="m 8.6875,-4.1757812 q 0,0.4140624 -0.2070312,0.7343749 -0.2070313,0.3203125 -0.5703126,0.5117188 0.4140626,0.1992187 0.6562501,0.5507812 0.2421875,0.3476563 0.2421875,0.8203126 0,0.75781245 -0.515625,1.1992187 -0.5156251,0.4375 -1.4023438,0.4375 -0.8867188,0 -1.40625,-0.44140625 -0.5195313,-0.44140625 -0.5195313,-1.19531245 0,-0.4726563 0.2421875,-0.8242188 0.2421875,-0.3515625 0.6523438,-0.546875 -0.3632813,-0.1914063 -0.5703125,-0.5117188 -0.203125,-0.3203125 -0.203125,-0.7343749 0,-0.7265625 0.484375,-1.15625 0.484375,-0.4335938 1.3164062,-0.4335938 0.828125,0 1.3125001,0.4296875 Q 8.6875,-4.9101562 8.6875,-4.1757812 Z M 7.6757812,-1.640625 q 0,-0.3710938 -0.2148437,-0.59375 -0.2148438,-0.2226563 -0.578125,-0.2226563 -0.359375,0 -0.5742188,0.2226563 -0.2148437,0.21875 -0.2148437,0.59375 0,0.3632813 0.2109375,0.5859375 0.2109375,0.22265625 0.5859375,0.22265625 0.3671875,0 0.5742187,-0.21484375 0.2109375,-0.2148437 0.2109375,-0.59375 z M 7.5585937,-4.1210937 q 0,-0.3320313 -0.1757812,-0.53125 -0.1757813,-0.203125 -0.4960938,-0.203125 -0.3164062,0 -0.4921875,0.1953125 -0.1757812,0.1953125 -0.1757812,0.5390625 0,0.3398437 0.1757812,0.5468749 0.1757813,0.2070313 0.4960938,0.2070313 0.3203125,0 0.4921875,-0.2070313 0.1757812,-0.2070312 0.1757812,-0.5468749 z"/>
      </g>
      <path d="M 0,0 H 3" style="stroke:#333333;stroke-width:0.3" transform="rotate(22.5,-10.5,52.787065)" id="polyline6331"/>
      <g style="font-weight:bold;font-size:8px;font-family:Roboto, sans-serif;fill:#333333" id="text6333" transform="translate(11.5,24.150635)" aria-label="24">
        <path id="path6420" style="font-weight:bold;font-size:8px;font-family:Roboto, sans-serif;fill:#333333" d="M 4.2851562,0 H 0.38671875 V -0.7734375 L 2.2265625,-2.734375 Q 2.6054688,-3.1484375 2.7851563,-3.4570313 2.96875,-3.765625 2.96875,-4.0429687 q 0,-0.3789063 -0.1914062,-0.59375 -0.1914063,-0.21875 -0.546875,-0.21875 -0.3828126,0 -0.6054688,0.265625 -0.21875,0.2617187 -0.21875,0.6914062 H 0.2734375 q 0,-0.5195312 0.24609375,-0.9492187 0.25,-0.4296875 0.70312495,-0.671875 Q 1.6757812,-5.765625 2.25,-5.765625 q 0.8789063,0 1.3632813,0.421875 0.4882812,0.421875 0.4882812,1.1914063 0,0.4218749 -0.21875,0.8593749 -0.21875,0.4375 -0.75,1.0195313 l -1.2929688,1.36328125 h 2.4453125 z"/>
        <path id="path6422" style="font-weight:bold;font-size:8px;font-family:Roboto, sans-serif;fill:#333333" d="m 8.3203125,-2.140625 h 0.6445313 v 0.9101563 H 8.3203125 V 0 H 7.1914062 V -1.2304687 H 4.859375 L 4.8085937,-1.9414062 7.1796875,-5.6875 h 1.140625 z m -2.3867188,0 h 1.2578125 v -2.0078125 l -0.074219,0.1289063 z"/>
      </g>
      <g style="font-weight:bold;font-size:8px;font-family:Roboto, sans-serif;fill:#333333" id="text6335" transform="translate(-4.7,31.2)" aria-label="dB">
        <path id="path6425" style="font-weight:bold;font-size:8px;font-family:Roboto, sans-serif;fill:#333333" d="m 0.2578125,-2.1445313 q 0,-0.9882812 0.44140625,-1.5742187 0.44531245,-0.5859375 1.21484375,-0.5859375 0.6171875,0 1.0195313,0.4609375 V -6 H 4.0664062 V 0 H 3.046875 L 2.9921875,-0.44921875 Q 2.5703125,0.078125 1.90625,0.078125 q -0.7460938,0 -1.19921875,-0.5859375 Q 0.2578125,-1.0976562 0.2578125,-2.1445313 Z M 1.3867187,-2.0625 q 0,0.59375 0.2070313,0.9101563 0.2070312,0.3164062 0.6015625,0.3164062 0.5234375,0 0.7382813,-0.4414062 V -2.9453125 Q 2.7226563,-3.3867188 2.203125,-3.3867188 q -0.8164063,0 -0.8164063,1.3242188 z"/>
        <path id="path6427" style="font-weight:bold;font-size:8px;font-family:Roboto, sans-serif;fill:#333333" d="M 5.0234375,0 V -5.6875 H 7.015625 q 1.0351563,0 1.5703125,0.3984375 0.5351563,0.3945313 0.5351563,1.1601563 0,0.4179687 -0.2148438,0.7382812 -0.2148437,0.3164062 -0.5976562,0.4648437 0.4375,0.109375 0.6875,0.4414063 Q 9.25,-2.1523438 9.25,-1.671875 9.25,-0.8515625 8.7265625,-0.4296875 8.203125,-0.0078125 7.234375,0 Z m 1.171875,-2.4765625 v 1.53515625 h 1.0039062 q 0.4140625,0 0.6445313,-0.19531245 0.234375,-0.1992188 0.234375,-0.546875 0,-0.7812501 -0.8085938,-0.7929688 z m 0,-0.828125 H 7.0625 q 0.8867187,-0.015625 0.8867187,-0.7070312 0,-0.3867188 -0.2265625,-0.5546875 Q 7.5,-4.7382812 7.015625,-4.7382812 H 6.1953125 Z"/>
      </g>
    </g>
  </g>
  <g style="font-weight:bold;font-size:6.66667px;font-family:Roboto, sans-serif;letter-spacing:2px;fill:#333333" id="text6228" transform="rotate(-90)" aria-label="KNEE">
    <path id="path6391" style="font-weight:bold;font-size:6.66667px;font-family:Roboto, sans-serif;letter-spacing:2px;fill:#333333" d="m -221.59245,30.098957 -0.50781,0.546876 V 32 h -0.97656 v -4.739586 h 0.97656 v 2.148439 l 0.42969,-0.589193 1.20768,-1.559246 h 1.20117 l -1.68294,2.106121 L -219.21289,32 h -1.16211 z"/>
    <path id="path6393" style="font-weight:bold;font-size:6.66667px;font-family:Roboto, sans-serif;letter-spacing:2px;fill:#333333" d="m -212.99088,32 h -0.97656 l -1.90105,-3.118491 V 32 h -0.97656 v -4.739586 h 0.97656 l 1.9043,3.125002 v -3.125002 h 0.97331 z"/>
    <path id="path6395" style="font-weight:bold;font-size:6.66667px;font-family:Roboto, sans-serif;letter-spacing:2px;fill:#333333" d="m -207.27994,29.945963 h -1.875 v 1.269531 h 2.20052 V 32 h -3.17709 v -4.739586 h 3.17058 v 0.791016 h -2.19401 v 1.129558 h 1.875 z"/>
    <path id="path6397" style="font-weight:bold;font-size:6.66667px;font-family:Roboto, sans-serif;letter-spacing:2px;fill:#333333" d="m -201.52994,29.945963 h -1.875 v 1.269531 h 2.20052 V 32 h -3.17708 v -4.739586 h 3.17057 v 0.791016 h -2.19401 v 1.129558 h 1.875 z"/>
  </g>
  <g style="font-weight:bold;font-size:6.66667px;font-family:Roboto, sans-serif;letter-spacing:2px;fill:#333333" id="text6230" aria-label="SOFT">
    <path id="path6382" style="font-weight:bold;font-size:6.66667px;font-family:Roboto, sans-serif;letter-spacing:2px;fill:#333333" d="m 38.880861,195.75651 q 0,-0.27669 -0.195313,-0.42318 -0.195312,-0.14974 -0.703125,-0.3125 -0.507813,-0.16601 -0.804037,-0.32552 -0.807292,-0.4362 -0.807292,-1.17513 0,-0.38411 0.214844,-0.68359 0.218099,-0.30274 0.621745,-0.47201 0.406901,-0.16927 0.911459,-0.16927 0.507812,0 0.904948,0.18555 0.397136,0.18229 0.615235,0.51758 0.221354,0.33528 0.221354,0.76171 h -0.976563 q 0,-0.32552 -0.205078,-0.50455 -0.205078,-0.18229 -0.576172,-0.18229 -0.358074,0 -0.556641,0.15299 -0.198568,0.14974 -0.198568,0.39714 0,0.23112 0.23112,0.38737 0.234375,0.15625 0.686849,0.29296 0.833334,0.25066 1.214193,0.62175 0.38086,0.37109 0.38086,0.92448 0,0.61523 -0.465495,0.9668 -0.465495,0.3483 -1.253256,0.3483 -0.546875,0 -0.996094,-0.19856 -0.449219,-0.20183 -0.686849,-0.55013 -0.234376,-0.34831 -0.234376,-0.8073 h 0.979819 q 0,0.78451 0.9375,0.78451 0.348308,0 0.54362,-0.13997 0.195313,-0.14323 0.195313,-0.39714 z"/>
    <path id="path6384" style="font-weight:bold;font-size:6.66667px;font-family:Roboto, sans-serif;letter-spacing:2px;fill:#333333" d="m 46.417973,194.73763 q 0,0.69987 -0.247396,1.22721 -0.247396,0.52735 -0.709636,0.81381 -0.458985,0.28645 -1.054688,0.28645 -0.589193,0 -1.051433,-0.2832 -0.46224,-0.2832 -0.716146,-0.80729 -0.253906,-0.52735 -0.257162,-1.21094 v -0.23437 q 0,-0.69987 0.250652,-1.23047 0.253906,-0.53386 0.712891,-0.81706 0.462239,-0.28646 1.054688,-0.28646 0.592448,0 1.051432,0.28646 0.46224,0.2832 0.712891,0.81706 0.253907,0.5306 0.253907,1.22721 z m -0.989584,-0.21484 q 0,-0.74545 -0.266927,-1.13282 -0.266928,-0.38737 -0.761719,-0.38737 -0.491537,0 -0.758464,0.38412 -0.266928,0.38086 -0.270183,1.11979 v 0.23112 q 0,0.72591 0.266927,1.1263 0.266928,0.40039 0.76823,0.40039 0.491537,0 0.755209,-0.38411 0.263672,-0.38737 0.266927,-1.1263 z"/>
    <path id="path6386" style="font-weight:bold;font-size:6.66667px;font-family:Roboto, sans-serif;letter-spacing:2px;fill:#333333" d="m 51.985682,195.06315 h -1.875 V 197 h -0.976563 v -4.73959 h 3.085939 v 0.79102 h -2.109376 v 1.22396 h 1.875 z"/>
    <path id="path6388" style="font-weight:bold;font-size:6.66667px;font-family:Roboto, sans-serif;letter-spacing:2px;fill:#333333" d="M 58.42579,193.05143 H 56.973966 V 197 h -0.976563 v -3.94857 h -1.432292 v -0.79102 h 3.860679 z"/>
  </g>
  <g style="font-weight:bold;font-size:6.66667px;font-family:Roboto, sans-serif;letter-spacing:2px;fill:#333333" id="text6232" aria-label="HARD">
    <path id="path6373" style="font-weight:bold;font-size:6.66667px;font-family:Roboto, sans-serif;letter-spacing:2px;fill:#333333" d="m 39.280601,232 h -0.976563 v -2.03125 H 36.39974 V 232 h -0.976563 v -4.73959 h 0.976563 v 1.92058 h 1.904298 v -1.92058 h 0.976563 z"/>
    <path id="path6375" style="font-weight:bold;font-size:6.66667px;font-family:Roboto, sans-serif;letter-spacing:2px;fill:#333333" d="M 44.877608,231.02344 H 43.165367 L 42.839846,232 h -1.038412 l 1.764324,-4.73959 h 0.904948 L 46.244796,232 h -1.038412 z m -1.448569,-0.79102 h 1.184897 l -0.595704,-1.77409 z"/>
    <path id="path6377" style="font-weight:bold;font-size:6.66667px;font-family:Roboto, sans-serif;letter-spacing:2px;fill:#333333" d="M 50.448573,230.26497 H 49.670578 V 232 h -0.976563 v -4.73959 h 1.761069 q 0.839844,0 1.295573,0.37435 0.45573,0.37435 0.45573,1.05795 0,0.48502 -0.211589,0.81054 -0.208334,0.32227 -0.634766,0.51433 l 1.025391,1.93685 V 232 h -1.048178 z m -0.777995,-0.79101 h 0.787761 q 0.367839,0 0.569662,-0.18555 0.201823,-0.1888 0.201823,-0.51758 0,-0.33528 -0.192058,-0.52734 -0.188802,-0.19206 -0.582682,-0.19206 h -0.784506 z"/>
    <path id="path6379" style="font-weight:bold;font-size:6.66667px;font-family:Roboto, sans-serif;letter-spacing:2px;fill:#333333" d="m 54.951829,232 v -4.73959 h 1.458335 q 0.625,0 1.116536,0.28321 0.494792,0.27995 0.771485,0.80078 0.276693,0.51758 0.276693,1.17839 v 0.21809 q 0,0.66081 -0.273438,1.17514 -0.270182,0.51432 -0.764974,0.79752 -0.494792,0.2832 -1.116537,0.28646 z m 0.976563,-3.94857 v 3.16406 h 0.472006 q 0.572917,0 0.875651,-0.37434 0.302735,-0.37435 0.309245,-1.07097 v -0.25065 q 0,-0.72266 -0.299479,-1.09375 -0.299479,-0.37435 -0.875651,-0.37435 z"/>
  </g>
  <g transform="translate(11,240)" id="g6248">
    <path d="M 0,0 H 68 V 10 H 0 Z" style="fill:#fafafa" transform="translate(0,66)" id="rect6236"/>
    <path d="m 5,0 h 58 c 2.77,0 5,2.23 5,5 v 63 c 0,2.77 -2.23,5 -5,5 H 5 C 2.23,73 0,70.77 0,68 V 5 C 0,2.23 2.23,0 5,0 Z" style="fill:#fafafa" id="rect6238"/>
    <g style="font-weight:bold;font-size:6.66667px;font-family:Roboto, sans-serif;letter-spacing:2px;fill:#333333" id="text6240" transform="translate(15.5,36)" aria-label="L">
      <path id="path6351" style="font-weight:bold;font-size:6.66667px;font-family:Roboto, sans-serif;letter-spacing:2px;fill:#333333" d="M 1.3997403,-0.78450558 H 3.4733089 V 0 H 0.42317729 V -4.7395856 H 1.3997403 Z"/>
    </g>
    <g style="font-weight:bold;font-size:6.66667px;font-family:Roboto, sans-serif;letter-spacing:2px;fill:#333333" id="text6242" transform="translate(49,36)" aria-label="R">
      <path id="path6354" style="font-weight:bold;font-size:6.66667px;font-family:Roboto, sans-serif;letter-spacing:2px;fill:#333333" d="M 2.1777354,-1.7350269 H 1.3997403 V 0 H 0.42317729 V -4.7395856 H 2.1842458 q 0.8398442,0 1.2955736,0.3743491 0.4557294,0.3743492 0.4557294,1.0579433 0,0.4850262 -0.2115887,0.8105472 -0.2083334,0.3222658 -0.6347659,0.5143232 l 1.0253911,1.93684986 V 0 H 3.0664077 Z M 1.3997403,-2.5260429 H 2.187501 q 0.3678388,0 0.5696618,-0.1855469 0.201823,-0.1888022 0.201823,-0.5175784 0,-0.3352866 -0.1920574,-0.527344 Q 2.5781262,-3.9485696 2.1842458,-3.9485696 H 1.3997403 Z"/>
    </g>
    <g style="font-weight:bold;font-size:6.66667px;font-family:Roboto, sans-serif;letter-spacing:2px;fill:#333333" id="text6244" transform="translate(5.5,72)" aria-label="TRSH">
      <path id="path6357" style="font-weight:bold;font-size:6.66667px;font-family:Roboto, sans-serif;letter-spacing:2px;fill:#333333" d="M 3.9908873,-3.9485696 H 2.5390637 V 0 H 1.5625007 V -3.9485696 H 0.1302084 v -0.791016 h 3.8606789 z"/>
      <path id="path6359" style="font-weight:bold;font-size:6.66667px;font-family:Roboto, sans-serif;letter-spacing:2px;fill:#333333" d="M 8.3053413,-1.7350269 H 7.5273462 V 0 h -0.976563 v -4.7395856 h 1.7610685 q 0.8398442,0 1.2955736,0.3743491 0.4557297,0.3743492 0.4557297,1.0579433 0,0.4850262 -0.211589,0.8105472 -0.2083334,0.3222658 -0.6347659,0.5143232 l 1.0253909,1.93684986 V 0 H 9.1940136 Z M 7.5273462,-2.5260429 H 8.315107 q 0.3678387,0 0.5696617,-0.1855469 0.201823,-0.1888022 0.201823,-0.5175784 0,-0.3352866 -0.1920574,-0.527344 Q 8.7057321,-3.9485696 8.3118517,-3.9485696 H 7.5273462 Z"/>
      <path id="path6361" style="font-weight:bold;font-size:6.66667px;font-family:Roboto, sans-serif;letter-spacing:2px;fill:#333333" d="m 15.266281,-1.2434902 q 0,-0.2766928 -0.195313,-0.4231773 -0.195313,-0.1497396 -0.703125,-0.3125001 -0.507813,-0.1660157 -0.804037,-0.325521 -0.807292,-0.4361981 -0.807292,-1.1751308 0,-0.3841147 0.214844,-0.683594 0.218099,-0.3027346 0.621745,-0.4720055 0.406901,-0.1692709 0.911458,-0.1692709 0.507813,0 0.904949,0.185547 0.397135,0.1822917 0.615234,0.5175783 0.221355,0.3352867 0.221355,0.7617192 h -0.976563 q 0,-0.325521 -0.205078,-0.5045576 -0.205079,-0.1822917 -0.576173,-0.1822917 -0.358073,0 -0.55664,0.1529948 -0.198568,0.1497397 -0.198568,0.3971356 0,0.2311199 0.23112,0.38737 0.234375,0.1562501 0.686849,0.2929689 0.833334,0.2506512 1.214193,0.6217451 0.38086,0.3710939 0.38086,0.9244796 0,0.61523467 -0.465495,0.96679734 -0.465495,0.34830746 -1.253256,0.34830746 -0.546875,0 -0.996094,-0.19856781 -0.449219,-0.20182301 -0.68685,-0.55013047 -0.234375,-0.34830742 -0.234375,-0.80729202 h 0.979819 q 0,0.78450555 0.9375,0.78450555 0.348307,0 0.54362,-0.13997402 0.195313,-0.14322924 0.195313,-0.39713563 z"/>
      <path id="path6363" style="font-weight:bold;font-size:6.66667px;font-family:Roboto, sans-serif;letter-spacing:2px;fill:#333333" d="M 22.767585,0 H 21.791022 V -2.031251 H 19.886725 V 0 h -0.976563 v -4.7395856 h 0.976563 v 1.9205738 h 1.904297 v -1.9205738 h 0.976563 z"/>
    </g>
    <g style="font-weight:bold;font-size:6.66667px;font-family:Roboto, sans-serif;letter-spacing:2px;fill:#333333" id="text6246" transform="translate(42,72)" aria-label="OGN">
      <path id="path6366" style="font-weight:bold;font-size:6.66667px;font-family:Roboto, sans-serif;letter-spacing:2px;fill:#333333" d="m 4.3164083,-2.2623709 q 0,0.6998702 -0.2473959,1.2272142 -0.247396,0.52734396 -0.7096358,0.81380243 -0.4589846,0.28645847 -1.054688,0.28645847 -0.589193,0 -1.0514328,-0.28320326 Q 0.791016,-0.50130232 0.53710963,-1.0253911 0.28320326,-1.5527351 0.27994805,-2.2363292 v -0.2343751 q 0,-0.6998701 0.25065116,-1.2304693 0.25390637,-0.5338545 0.71289099,-0.8170577 0.4622398,-0.2864585 1.054688,-0.2864585 0.5924482,0 1.0514328,0.2864585 0.4622398,0.2832032 0.7128909,0.8170577 0.2539064,0.5305992 0.2539064,1.2272141 z M 3.3268245,-2.4772147 q 0,-0.7454431 -0.2669272,-1.1328131 -0.2669272,-0.3873699 -0.7617191,-0.3873699 -0.4915367,0 -0.7584639,0.3841147 -0.2669272,0.3808596 -0.2701824,1.1197922 v 0.2311199 q 0,0.7259118 0.2669272,1.1263026 0.2669272,0.40039087 0.7682295,0.40039087 0.4915367,0 0.7552087,-0.38411477 0.263672,-0.38737 0.2669272,-1.1263026 z"/>
      <path id="path6368" style="font-weight:bold;font-size:6.66667px;font-family:Roboto, sans-serif;letter-spacing:2px;fill:#333333" d="m 10.782556,-0.59895862 q -0.263672,0.31575536 -0.745443,0.49153669 -0.4817707,0.17252613 -1.0677084,0.17252613 -0.6152347,0 -1.0807297,-0.26692721 Q 7.4264351,-0.47200543 7.1725287,-0.98307339 6.9218775,-1.4941413 6.9153671,-2.1842458 v -0.3222658 q 0,-0.7096358 0.2376303,-1.2272141 0.2408856,-0.5208336 0.6901045,-0.7942713 0.4524742,-0.2766928 1.0579432,-0.2766928 0.8430994,0 1.3183599,0.403646 0.475261,0.4003909 0.563151,1.1686204 H 9.8320352 Q 9.766931,-3.6393247 9.5423215,-3.8281268 9.3209672,-4.016929 8.930342,-4.016929 q -0.4980471,0 -0.7584639,0.3743491 -0.2604168,0.3743492 -0.263672,1.1132818 v 0.3027345 q 0,0.7454431 0.2832033,1.1263027 0.2832032,0.38085952 0.8300785,0.38085952 0.5501305,0 0.7845056,-0.23437512 V -1.7708342 H 8.9173212 v -0.7194014 h 1.8652348 z"/>
      <path id="path6370" style="font-weight:bold;font-size:6.66667px;font-family:Roboto, sans-serif;letter-spacing:2px;fill:#333333" d="M 17.430996,0 H 16.454433 L 14.553391,-3.1184911 V 0 h -0.976563 v -4.7395856 h 0.976563 l 1.904297,3.1250015 v -3.1250015 h 0.973308 z"/>
    </g>
  </g>
  <g transform="translate(11,319)" id="g6258">
    <path d="M 0,0 H 68 V 10 H 0 Z" style="fill:#bbbbbb" transform="translate(0,-3)" id="rect6250"/>
    <path d="m 5,0 h 58 c 2.77,0 5,2.23 5,5 v 27 c 0,2.77 -2.23,5 -5,5 H 5 C 2.23,37 0,34.77 0,32 V 5 C 0,2.23 2.23,0 5,0 Z" style="fill:#bbbbbb" id="rect6252"/>
    <g style="font-weight:bold;font-size:6.66667px;font-family:Roboto, sans-serif;letter-spacing:2px;fill:#333333" id="text6254" transform="translate(15.5,33)" aria-label="L">
      <path id="path6343" style="font-weight:bold;font-size:6.66667px;font-family:Roboto, sans-serif;letter-spacing:2px;fill:#333333" d="M 1.3997403,-0.78450558 H 3.4733089 V 0 H 0.42317729 V -4.7395856 H 1.3997403 Z"/>
    </g>
    <g style="font-weight:bold;font-size:6.66667px;font-family:Roboto, sans-serif;letter-spacing:2px;fill:#333333" id="text6256" transform="translate(49,33)" aria-label="R">
      <path id="path6346" style="font-weight:bold;font-size:6.66667px;font-family:Roboto, sans-serif;letter-spacing:2px;fill:#333333" d="M 2.1777354,-1.7350269 H 1.3997403 V 0 H 0.42317729 V -4.7395856 H 2.1842458 q 0.8398442,0 1.2955736,0.3743491 0.4557294,0.3743492 0.4557294,1.0579433 0,0.4850262 -0.2115887,0.8105472 -0.2083334,0.3222658 -0.6347659,0.5143232 l 1.0253911,1.93684986 V 0 H 3.0664077 Z M 1.3997403,-2.5260429 H 2.187501 q 0.3678388,0 0.5696618,-0.1855469 0.201823,-0.1888022 0.201823,-0.5175784 0,-0.3352866 -0.1920574,-0.527344 Q 2.5781262,-3.9485696 2.1842458,-3.9485696 H 1.3997403 Z"/>
    </g>
  </g>
</svg>
