<?xml version="1.0" encoding="UTF-8" standalone="no"?>
<svg xmlns:dc="http://purl.org/dc/elements/1.1/" xmlns:cc="http://creativecommons.org/ns#" xmlns:rdf="http://www.w3.org/1999/02/22-rdf-syntax-ns#" xmlns:svg="http://www.w3.org/2000/svg" xmlns="http://www.w3.org/2000/svg" xmlns:sodipodi="http://sodipodi.sourceforge.net/DTD/sodipodi-0.dtd" xmlns:inkscape="http://www.inkscape.org/namespaces/inkscape" inkscape:version="1.0 (4035a4f, 2020-05-01)" sodipodi:docname="svg_render_Cmp-pp.svg" id="svg6775" viewBox="0 0 90 380" height="380" width="90" version="1.1">
  <metadata id="metadata6779">
    <rdf:RDF>
      <cc:Work rdf:about="">
        <dc:format>image/svg+xml</dc:format>
        <dc:type rdf:resource="http://purl.org/dc/dcmitype/StillImage"/>
      </cc:Work>
    </rdf:RDF>
  </metadata>
  <sodipodi:namedview inkscape:current-layer="svg6775" inkscape:window-maximized="0" inkscape:window-y="23" inkscape:window-x="0" inkscape:cy="190" inkscape:cx="45" inkscape:zoom="1.7605263" showgrid="false" id="namedview6777" inkscape:window-height="480" inkscape:window-width="689" inkscape:pageshadow="2" inkscape:pageopacity="0" guidetolerance="10" gridtolerance="10" objecttolerance="10" borderopacity="1" bordercolor="#666666" pagecolor="#ffffff"/>
  
  <defs id="defs6679">
    <symbol viewBox="0 0 45px 45px" id="knob29">
      <g id="g6545" transform="translate(22.5 22.5)">
        <polyline id="polyline6539" stroke="#00f" stroke-width="1" points="-5,0 5,0"/>
        <polyline id="polyline6541" stroke="#00f" stroke-width="1" points="0,-5 0,5"/>
        <circle id="circle6543" fill="none" stroke="#00f" stroke-width="1" r="14" cy="0" cx="0"/>
      </g>
    </symbol>
    <symbol viewBox="0 0 16px 16px" id="knob16">
      <g id="g6554" transform="translate(8 8)">
        <polyline id="polyline6548" stroke="#00f" stroke-width="1" points="-3,0 3,0"/>
        <polyline id="polyline6550" stroke="#00f" stroke-width="1" points="0,-3 0,3"/>
        <circle id="circle6552" fill="none" stroke="#00f" stroke-width="1" r="7.5"/>
      </g>
    </symbol>
    <symbol viewBox="0 0 45px 45px" id="dial-window">
      <g id="g6579" transform="translate(22.5 22.5)">
        <text id="text6557" transform="rotate(-240) translate(20 0) rotate(240) translate(-1.9 2.2)" font-size="5.0pt">0</text>
        <polyline id="polyline6559" transform="rotate(-210) translate(17 0)" stroke="#333" stroke-width="0.3" points="0,0 2.5,0"/>
        <polyline id="polyline6561" transform="rotate(-180) translate(17 0)" stroke="#333" stroke-width="0.3" points="0,0 2.5,0"/>
        <polyline id="polyline6563" transform="rotate(-150) translate(17 0)" stroke="#333" stroke-width="0.3" points="0,0 2.5,0"/>
        <polyline id="polyline6565" transform="rotate(-120) translate(17 0)" stroke="#333" stroke-width="0.3" points="0,0 2.5,0"/>
        <polyline id="polyline6567" transform="rotate(-90) translate(17 0)" stroke="#333" stroke-width="1" points="0,0 3.5,0"/>
        <polyline id="polyline6569" transform="rotate(-60) translate(17 0)" stroke="#333" stroke-width="0.3" points="0,0 2.5,0"/>
        <polyline id="polyline6571" transform="rotate(-30) translate(17 0)" stroke="#333" stroke-width="0.3" points="0,0 2.5,0"/>
        <polyline id="polyline6573" transform="rotate(0) translate(17 0)" stroke="#333" stroke-width="0.3" points="0,0 2.5,0"/>
        <polyline id="polyline6575" transform="rotate(30) translate(17 0)" stroke="#333" stroke-width="0.3" points="0,0 2.5,0"/>
        <text id="text6577" transform="rotate(60) translate(20 0) rotate(-60) translate(-4 2.2)" font-size="5.0pt">10</text>
      </g>
    </symbol>
    <symbol viewBox="0 0 24px 24px" id="input">
      <g id="g6586" transform="translate(12 12)">
        <circle id="circle6582" fill="#0f0" stroke="#0f0" stroke-width="1" r="5" cy="0" cx="0"/>
        <circle id="circle6584" fill="none" stroke="#0f0" stroke-width="3" r="10.5" cy="0" cx="0"/>
      </g>
    </symbol>
    <symbol viewBox="0 0 24px 24px" id="output">
      <g id="g6593" transform="translate(12 12)">
        <circle id="circle6589" fill="#f00" stroke="#f00" stroke-width="1" r="5" cy="0" cx="0"/>
        <circle id="circle6591" fill="none" stroke="#f00" stroke-width="3" r="10.5" cy="0" cx="0"/>
      </g>
    </symbol>
    <symbol viewBox="0 0 90px 45px" id="dial-voltage-cmp">
      <!-- <rect width="90" height="45" fill="#f003" transform="translate(0 0)" /> -->
      <g id="g6604" transform="translate(8 22.5)">
        <text id="text6596" transform="rotate(-22.5) translate(14 0) rotate(22.5) translate(-1 2.6)" font-size="5.0pt">0-10V</text>
        <polyline id="polyline6598" transform="rotate(-22.5) translate(9.5 0)" stroke="#333" stroke-width="1" points="0,0 2,0"/>
        <text id="text6600" transform="rotate(22.5) translate(14 0) rotate(-22.5) translate(-1 2.0)" font-size="5.0pt">+/-5V</text>
        <polyline id="polyline6602" transform="rotate(22.5) translate(9.5 0)" stroke="#333" stroke-width="1" points="0,0 2,0"/>
      </g>
    </symbol>
    <symbol viewBox="0 0 45px 45px" id="dial-offset-cmp">
      <g id="g6649" transform="translate(22.5 22.5)">
        <text id="text6607" transform="rotate(-240) translate(21 0) rotate(240) translate(-5 2.2)" font-size="5.0pt">-10</text>
        <polyline id="polyline6609" transform="rotate(-225) translate(17 0)" stroke="#333" stroke-width="0.3" points="0,0 2.5,0"/>
        <polyline id="polyline6611" transform="rotate(-210) translate(17 0)" stroke="#333" stroke-width="0.3" points="0,0 2.5,0"/>
        <polyline id="polyline6613" transform="rotate(-195) translate(17 0)" stroke="#333" stroke-width="0.3" points="0,0 2.5,0"/>
        <polyline id="polyline6615" transform="rotate(-180) translate(17 0)" stroke="#333" stroke-width="0.3" points="0,0 2.5,0"/>
        <polyline id="polyline6617" transform="rotate(-165) translate(17 0)" stroke="#333" stroke-width="1" points="0,0 3.5,0"/>
        <polyline id="polyline6619" transform="rotate(-150) translate(17 0)" stroke="#333" stroke-width="0.3" points="0,0 2.5,0"/>
        <polyline id="polyline6621" transform="rotate(-135) translate(17 0)" stroke="#333" stroke-width="0.3" points="0,0 2.5,0"/>
        <polyline id="polyline6623" transform="rotate(-120) translate(17 0)" stroke="#333" stroke-width="0.3" points="0,0 2.5,0"/>
        <polyline id="polyline6625" transform="rotate(-105) translate(17 0)" stroke="#333" stroke-width="0.3" points="0,0 2.5,0"/>
        <text id="text6627" transform="rotate(-90) translate(19 0) rotate(90) translate(-1.9 2.2)" font-size="5.0pt">0</text>
        <polyline id="polyline6629" transform="rotate(-75) translate(17 0)" stroke="#333" stroke-width="0.3" points="0,0 2.5,0"/>
        <polyline id="polyline6631" transform="rotate(-60) translate(17 0)" stroke="#333" stroke-width="0.3" points="0,0 2.5,0"/>
        <polyline id="polyline6633" transform="rotate(-45) translate(17 0)" stroke="#333" stroke-width="0.3" points="0,0 2.5,0"/>
        <polyline id="polyline6635" transform="rotate(-30) translate(17 0)" stroke="#333" stroke-width="0.3" points="0,0 2.5,0"/>
        <polyline id="polyline6637" transform="rotate(-15) translate(17 0)" stroke="#333" stroke-width="1" points="0,0 3.5,0"/>
        <polyline id="polyline6639" transform="rotate(0) translate(17 0)" stroke="#333" stroke-width="0.3" points="0,0 2.5,0"/>
        <polyline id="polyline6641" transform="rotate(15) translate(17 0)" stroke="#333" stroke-width="0.3" points="0,0 2.5,0"/>
        <polyline id="polyline6643" transform="rotate(30) translate(17 0)" stroke="#333" stroke-width="0.3" points="0,0 2.5,0"/>
        <polyline id="polyline6645" transform="rotate(45) translate(17 0)" stroke="#333" stroke-width="0.3" points="0,0 2.5,0"/>
        <text id="text6647" transform="rotate(60) translate(21 0) rotate(-60) translate(-4 2.2)" font-size="5.0pt">10</text>
      </g>
    </symbol>
    <symbol viewBox="0 0 45px 45px" id="dial-lag-cmp">
      <g id="g6676" transform="translate(22.5 22.5)">
        <text id="text6652" transform="rotate(-240) translate(20 0) rotate(240) translate(-1.9 2.2)" font-size="5.0pt">0</text>
        <polyline id="polyline6654" transform="rotate(-210) translate(17 0)" stroke="#333" stroke-width="0.3" points="0,0 2.5,0"/>
        <text id="text6656" transform="rotate(-145.13) translate(20.5 0) rotate(145.13) translate(-4.7 2.2)" font-size="5.0pt">0.1</text>
        <polyline id="polyline6658" transform="rotate(-105.84) translate(17 0)" stroke="#333" stroke-width="0.3" points="0,0 2.5,0"/>
        <polyline id="polyline6660" transform="rotate(-75.86) translate(17 0)" stroke="#333" stroke-width="0.3" points="0,0 2.5,0"/>
        <polyline id="polyline6662" transform="rotate(-50.26) translate(17 0)" stroke="#333" stroke-width="0.3" points="0,0 2.5,0"/>
        <polyline id="polyline6664" transform="rotate(-27.87) translate(17 0)" stroke="#333" stroke-width="1" points="0,0 3.5,0"/>
        <polyline id="polyline6666" transform="rotate(-7.62) translate(17 0)" stroke="#333" stroke-width="0.3" points="0,0 2.5,0"/>
        <polyline id="polyline6668" transform="rotate(11) translate(17 0)" stroke="#333" stroke-width="0.3" points="0,0 2.5,0"/>
        <polyline id="polyline6670" transform="rotate(28.33) translate(17 0)" stroke="#333" stroke-width="0.3" points="0,0 2.5,0"/>
        <polyline id="polyline6672" transform="rotate(44.6) translate(17 0)" stroke="#333" stroke-width="0.3" points="0,0 2.5,0"/>
        <text id="text6674" transform="rotate(60) translate(20 0) rotate(-60) translate(-1.8 2.2)" font-size="5.0pt">1</text>
      </g>
    </symbol>
  </defs>
  <path d="M 0,0 H 90 V 380 H 0 Z" style="fill:#dddddd" id="rect6681"/>
  <path d="M 1,1 H 89 V 379 H 1 V 1" style="fill:none;stroke:#e4e4e4;stroke-width:0.5" id="polyline6683"/>
  <path d="m 0.5,0.5 h 89 v 379 H 0.5 V 0.5" style="fill:none;stroke:#ebebeb;stroke-width:0.8" id="polyline6685"/>
  <path d="M 0,0 H 90 V 380 H 0 V 0" style="fill:none;stroke:#f2f2f2;stroke-width:1" id="polyline6687"/>
  <g class="title" style="font-weight:normal;font-size:12px;font-family:Comfortaa, sans-serif;letter-spacing:3px;fill:#333333" id="text6689" aria-label="CMP">
    <path id="path7173" style="font-weight:normal;font-size:12px;font-family:Comfortaa, sans-serif;letter-spacing:3px;fill:#333333" d="m 50.412,17.12 q -1.272,0 -2.34,-0.648 -1.068,-0.648 -1.704,-1.752 -0.624,-1.104 -0.624,-2.412 0,-1.296 0.624,-2.4 0.624,-1.104 1.692,-1.752 1.068,-0.648 2.352,-0.648 0.864,0 1.572,0.252 0.708,0.252 1.368,0.804 0.132,0.096 0.132,0.276 0,0.096 -0.048,0.18 -0.048,0.072 -0.132,0.108 -0.024,0.084 -0.108,0.132 -0.084,0.048 -0.18,0.048 -0.18,0 -0.3,-0.108 -0.468,-0.42 -1.02,-0.612 -0.552,-0.192 -1.284,-0.192 -1.008,0 -1.872,0.54 -0.864,0.528 -1.38,1.428 -0.504,0.9 -0.504,1.944 0,1.068 0.504,1.968 0.504,0.9 1.368,1.428 0.864,0.528 1.884,0.528 1.308,0 2.364,-0.84 0.132,-0.096 0.264,-0.096 0.18,0 0.312,0.132 0.132,0.12 0.132,0.324 0,0.192 -0.132,0.336 -1.128,1.032 -2.94,1.032 z"/>
    <path id="path7175" style="font-weight:normal;font-size:12px;font-family:Comfortaa, sans-serif;letter-spacing:3px;fill:#333333" d="m 67.373812,7.628 q 0.192,0 0.324,0.132 0.132001,0.132 0.132001,0.336 v 8.436 q 0,0.192 -0.132001,0.336 -0.132,0.132 -0.324,0.132 -0.203999,0 -0.348,-0.132 -0.132,-0.144 -0.132,-0.336 V 9.74 l -3.336,6.816 q -0.144,0.228 -0.408,0.228 -0.3,0 -0.432,-0.288 L 59.393813,9.848 v 6.684 q 0,0.192 -0.132001,0.336 -0.132,0.132 -0.336,0.132 -0.192,0 -0.336,-0.132 -0.131999,-0.144 -0.131999,-0.336 V 8.096 q 0,-0.204 0.131999,-0.336 0.144,-0.132 0.336,-0.132 0.276001,0 0.42,0.24 l 3.84,7.632 3.768,-7.632 q 0.144001,-0.24 0.42,-0.24 z"/>
    <path id="path7177" style="font-weight:normal;font-size:12px;font-family:Comfortaa, sans-serif;letter-spacing:3px;fill:#333333" d="m 73.691438,17 q -0.204001,0 -0.336001,-0.132 -0.131999,-0.132 -0.131999,-0.336 V 8.096 q 0,-0.204 0.131999,-0.336 0.132,-0.132 0.336001,-0.132 h 2.399999 q 0.876001,0 1.56,0.396 0.696,0.384 1.08,1.08 0.384,0.684 0.384,1.572 0,0.876 -0.384,1.56 -0.384,0.684 -1.08,1.068 -0.683999,0.384 -1.56,0.384 h -1.932 v 2.844 q 0,0.204 -0.131999,0.336 Q 73.895437,17 73.691438,17 Z m 2.399999,-4.212 q 0.612001,0 1.092,-0.264 0.48,-0.276 0.744,-0.756 0.276001,-0.48 0.276001,-1.092 0,-0.624 -0.276001,-1.104 -0.264,-0.492 -0.744,-0.768 -0.479999,-0.276 -1.092,-0.276 h -1.932 v 4.26 z"/>
  </g>
  <g class="brand" style="font-weight:bold;font-size:8.66667px;font-family:Audiowide, sans-serif;letter-spacing:2px;fill:#333333" id="text6691" aria-label="BOGAUDIO">
    <path id="path7156" style="font-weight:bold;font-size:8.66667px;font-family:Audiowide, sans-serif;letter-spacing:2px;fill:#333333" d="m 12.194664,372.66699 q 0,0.20313 -0.07194,0.43587 -0.06771,0.23275 -0.228516,0.43165 -0.156576,0.19889 -0.410482,0.33431 Q 11.22982,374 10.861656,374 H 6.6848963 q -0.1184897,0 -0.2200522,-0.0423 -0.1015625,-0.0423 -0.1777344,-0.11426 -0.07194,-0.0762 -0.1142579,-0.17773 -0.042318,-0.10156 -0.042318,-0.22005 V 368.486 q 0,-0.11426 0.042318,-0.21582 0.042318,-0.10156 0.1142579,-0.17773 0.076172,-0.0762 0.1777344,-0.11849 0.1015625,-0.0423 0.2200522,-0.0423 h 3.6816417 q 0.203125,0 0.435873,0.0719 0.232747,0.0719 0.431641,0.23275 0.203125,0.15657 0.33431,0.41048 0.135416,0.2539 0.135416,0.62207 v 0.20736 q 0,0.29199 -0.09733,0.63053 -0.09733,0.33431 -0.313152,0.63477 0.186198,0.11425 0.347006,0.27506 0.165039,0.16081 0.28776,0.3724 0.122722,0.21159 0.194662,0.47819 0.07194,0.2666 0.07194,0.58821 z m -1.100261,-0.21159 q 0,-0.21582 -0.06771,-0.38509 -0.06771,-0.1735 -0.19043,-0.29622 -0.122721,-0.12272 -0.296224,-0.1862 -0.173503,-0.0677 -0.389323,-0.0677 H 7.6708992 v -1.10872 h 1.9847013 q 0.2158204,0 0.3893235,-0.0635 0.173502,-0.0677 0.296224,-0.19043 0.122721,-0.12272 0.186198,-0.29199 0.06771,-0.1735 0.06771,-0.38932 v -0.20736 q 0,-0.23698 -0.228516,-0.23698 H 7.2307949 v 3.86784 h 3.6308611 q 0.02962,0 0.07194,-0.004 0.04232,-0.004 0.07617,-0.0254 0.03385,-0.0212 0.05924,-0.0719 0.02539,-0.0508 0.02539,-0.13965 z"/>
    <path id="path7158" style="font-weight:bold;font-size:8.66667px;font-family:Audiowide, sans-serif;letter-spacing:2px;fill:#333333" d="m 21.515629,371.54557 q 0,0.55436 -0.190429,1.01986 -0.19043,0.46549 -0.528972,0.80404 -0.338542,0.33854 -0.804037,0.52897 -0.461263,0.1862 -1.007161,0.1862 h -1.489584 q -0.545899,0 -1.011394,-0.1862 -0.465495,-0.19043 -0.804037,-0.52897 -0.338541,-0.33855 -0.533203,-0.80404 -0.19043,-0.4655 -0.19043,-1.01986 v -1.1595 q 0,-0.55013 0.19043,-1.01563 0.194662,-0.46973 0.533203,-0.80404 0.338542,-0.33854 0.804037,-0.52897 0.465495,-0.19043 1.011394,-0.19043 h 1.489584 q 0.545898,0 1.007161,0.19043 0.465495,0.19043 0.804037,0.52897 0.338542,0.33431 0.528972,0.80404 0.190429,0.4655 0.190429,1.01563 z m -1.10026,-1.1595 q 0,-0.32585 -0.105795,-0.58822 -0.101562,-0.2666 -0.291992,-0.4528 -0.186198,-0.19043 -0.4528,-0.29199 -0.262369,-0.1058 -0.579752,-0.1058 h -1.489584 q -0.321615,0 -0.588217,0.1058 -0.26237,0.10156 -0.452799,0.29199 -0.19043,0.1862 -0.296224,0.4528 -0.101563,0.26237 -0.101563,0.58822 v 1.1595 q 0,0.32585 0.101563,0.59245 0.105794,0.26237 0.296224,0.4528 0.190429,0.1862 0.452799,0.29199 0.266602,0.10156 0.588217,0.10156 h 1.48112 q 0.321615,0 0.583985,-0.10156 0.266601,-0.10579 0.457031,-0.29199 0.19043,-0.19043 0.291992,-0.4528 0.105795,-0.2666 0.105795,-0.59245 z"/>
    <path id="path7160" style="font-weight:bold;font-size:8.66667px;font-family:Audiowide, sans-serif;letter-spacing:2px;fill:#333333" d="m 30.599618,373.44564 q 0,0.11849 -0.04232,0.22005 -0.04232,0.10156 -0.11849,0.17773 -0.07194,0.0719 -0.173502,0.11426 Q 30.163745,374 30.045255,374 h -3.969402 q -0.152344,0 -0.330078,-0.0338 -0.173503,-0.0381 -0.347006,-0.11426 -0.169271,-0.0762 -0.325846,-0.19466 -0.156576,-0.12272 -0.279297,-0.292 -0.11849,-0.1735 -0.19043,-0.39778 -0.07194,-0.22852 -0.07194,-0.51205 v -2.97916 q 0,-0.15235 0.03385,-0.32585 0.03809,-0.17774 0.114258,-0.34701 0.07617,-0.1735 0.198893,-0.33007 0.122722,-0.15658 0.291993,-0.27507 0.173502,-0.12272 0.397786,-0.19466 0.224284,-0.0719 0.507813,-0.0719 h 4.472983 v 1.10026 h -4.472983 q -0.215821,0 -0.330078,0.11426 -0.114258,0.11425 -0.114258,0.33854 v 2.9707 q 0,0.21159 0.114258,0.33008 0.118489,0.11426 0.330078,0.11426 h 3.423504 v -1.37956 H 26.57097 v -1.10872 h 3.474285 q 0.11849,0 0.220053,0.0466 0.101562,0.0423 0.173502,0.11849 0.07617,0.0762 0.11849,0.17773 0.04232,0.0973 0.04232,0.21159 z"/>
    <path id="path7162" style="font-weight:bold;font-size:8.66667px;font-family:Audiowide, sans-serif;letter-spacing:2px;fill:#333333" d="m 39.708996,374 h -1.100261 v -1.48958 h -3.86784 V 374 h -1.100261 v -3.03418 q 0,-0.66439 0.228516,-1.22298 0.228516,-0.5586 0.634766,-0.96062 0.40625,-0.40201 0.960612,-0.6263 0.554362,-0.22428 1.210287,-0.22428 h 2.479819 q 0.114257,0 0.21582,0.0423 0.101562,0.0423 0.177734,0.11849 0.07617,0.0762 0.11849,0.17773 0.04232,0.10156 0.04232,0.21582 z m -4.968101,-2.58984 h 3.86784 v -2.37826 h -1.93392 q -0.05078,0 -0.21582,0.0169 -0.160808,0.0127 -0.376628,0.0719 -0.211589,0.0592 -0.448568,0.18196 -0.236979,0.12272 -0.435873,0.33854 -0.198893,0.21582 -0.330078,0.54167 -0.126953,0.32162 -0.126953,0.78288 z"/>
    <path id="path7164" style="font-weight:bold;font-size:8.66667px;font-family:Audiowide, sans-serif;letter-spacing:2px;fill:#333333" d="m 48.928399,373.44564 q 0,0.11849 -0.04232,0.22005 -0.04232,0.10156 -0.11849,0.17773 -0.07617,0.0719 -0.177735,0.11426 Q 48.488295,374 48.374037,374 h -2.479819 q -0.351237,0 -0.710937,-0.0762 -0.359701,-0.0762 -0.698243,-0.23275 -0.33431,-0.16081 -0.630534,-0.40625 -0.296224,-0.24544 -0.520508,-0.57975 -0.220052,-0.33854 -0.347005,-0.77018 -0.126953,-0.43588 -0.126953,-0.96908 v -3.03418 h 1.10026 v 3.03418 q 0,0.46549 0.126954,0.78711 0.131185,0.32161 0.330078,0.53743 0.198893,0.21582 0.435872,0.33855 0.23698,0.12272 0.448568,0.18196 0.215821,0.0592 0.376628,0.0762 0.165039,0.0127 0.21582,0.0127 h 1.93392 v -4.9681 h 1.100261 z"/>
    <path id="path7166" style="font-weight:bold;font-size:8.66667px;font-family:Audiowide, sans-serif;letter-spacing:2px;fill:#333333" d="m 58.266292,371.46094 q 0,0.55436 -0.194661,1.01985 -0.19043,0.4655 -0.528972,0.80404 -0.338541,0.33431 -0.804036,0.52474 Q 56.273128,374 55.727229,374 h -2.970704 q -0.11849,0 -0.220052,-0.0423 -0.101563,-0.0423 -0.177735,-0.11426 -0.07194,-0.0762 -0.114258,-0.17773 -0.04232,-0.10156 -0.04232,-0.22005 V 368.486 q 0,-0.11426 0.04232,-0.21582 0.04232,-0.10156 0.114258,-0.17773 0.07617,-0.0762 0.177735,-0.11849 0.101562,-0.0423 0.220052,-0.0423 h 2.970704 q 0.545899,0 1.011394,0.19043 0.465495,0.19043 0.804036,0.52897 0.338542,0.33431 0.528972,0.80404 0.194661,0.46549 0.194661,1.01562 z m -1.10026,-0.99024 q 0,-0.32161 -0.105795,-0.58821 -0.101562,-0.26661 -0.291992,-0.4528 -0.19043,-0.19043 -0.457031,-0.292 -0.26237,-0.10579 -0.583985,-0.10579 h -2.424806 v 3.86784 h 2.424806 q 0.321615,0 0.583985,-0.10156 0.266601,-0.1058 0.457031,-0.292 0.19043,-0.19043 0.291992,-0.4528 0.105795,-0.2666 0.105795,-0.59244 z"/>
    <path id="path7168" style="font-weight:bold;font-size:8.66667px;font-family:Audiowide, sans-serif;letter-spacing:2px;fill:#333333" d="M 62.462581,374 H 61.36232 v -6.06836 h 1.100261 z"/>
    <path id="path7170" style="font-weight:bold;font-size:8.66667px;font-family:Audiowide, sans-serif;letter-spacing:2px;fill:#333333" d="m 72.126322,371.54557 q 0,0.55436 -0.190429,1.01986 -0.19043,0.46549 -0.528972,0.80404 -0.338542,0.33854 -0.804037,0.52897 -0.461263,0.1862 -1.007161,0.1862 h -1.489584 q -0.545899,0 -1.011394,-0.1862 -0.465495,-0.19043 -0.804037,-0.52897 -0.338541,-0.33855 -0.533203,-0.80404 -0.19043,-0.4655 -0.19043,-1.01986 v -1.1595 q 0,-0.55013 0.19043,-1.01563 0.194662,-0.46973 0.533203,-0.80404 0.338542,-0.33854 0.804037,-0.52897 0.465495,-0.19043 1.011394,-0.19043 h 1.489584 q 0.545898,0 1.007161,0.19043 0.465495,0.19043 0.804037,0.52897 0.338542,0.33431 0.528972,0.80404 0.190429,0.4655 0.190429,1.01563 z m -1.10026,-1.1595 q 0,-0.32585 -0.105795,-0.58822 -0.101562,-0.2666 -0.291992,-0.4528 -0.186198,-0.19043 -0.4528,-0.29199 -0.26237,-0.1058 -0.579752,-0.1058 h -1.489584 q -0.321615,0 -0.588217,0.1058 -0.26237,0.10156 -0.452799,0.29199 -0.19043,0.1862 -0.296224,0.4528 -0.101563,0.26237 -0.101563,0.58822 v 1.1595 q 0,0.32585 0.101563,0.59245 0.105794,0.26237 0.296224,0.4528 0.190429,0.1862 0.452799,0.29199 0.266602,0.10156 0.588217,0.10156 h 1.48112 q 0.321615,0 0.583985,-0.10156 0.266601,-0.10579 0.457031,-0.29199 0.19043,-0.19043 0.291992,-0.4528 0.105795,-0.2666 0.105795,-0.59245 z"/>
  </g>
  <path d="M 26.5,370 H 28 v 2 h -1.5 z" style="fill:#dddddd" id="rect6693"/>
  <!-- <rect width="90" height="12" fill="#0f0" transform="translate(0 122)" /> -->
  <!-- <rect width="90" height="12" fill="#0f0" transform="translate(0 228)" /> -->
  <!-- <rect width="90" height="12" fill="#0f0" transform="translate(0 267)" /> -->
  <g style="font-weight:bold;font-size:8px;font-family:Roboto, sans-serif;letter-spacing:1px;fill:#333333" id="text6697" aria-label="A">
    <path id="path7223" style="font-weight:bold;font-size:8px;font-family:Roboto, sans-serif;letter-spacing:1px;fill:#333333" d="M 23.71875,33.828125 H 21.664062 L 21.273437,35 h -1.246093 l 2.117187,-5.6875 h 1.085938 L 25.359375,35 h -1.246094 z m -1.738281,-0.949219 h 1.421875 L 22.6875,30.75 Z"/>
  </g>
  <g transform="translate(0,38)" id="use6699">
    <g transform="translate(22.5,22.5)" id="g6858">
      <g style="font-weight:bold;font-size:6.66667px;font-family:Roboto, sans-serif;fill:#333333" id="text6816" transform="translate(-15.5,20.386533)" aria-label="-10">
        <path id="path7190" style="font-weight:bold;font-size:6.66667px;font-family:Roboto, sans-serif;fill:#333333" d="M 2.1907563,-1.6503914 H 0.35807309 V -2.4088553 H 2.1907563 Z"/>
        <path id="path7192" style="font-weight:bold;font-size:6.66667px;font-family:Roboto, sans-serif;fill:#333333" d="M 5.1985703,0 H 4.2578146 V -3.6263038 L 3.1347672,-3.2779964 V -4.0429707 L 5.0976588,-4.746096 h 0.1009115 z"/>
        <path id="path7194" style="font-weight:bold;font-size:6.66667px;font-family:Roboto, sans-serif;fill:#333333" d="m 9.9316458,-1.9596364 q 0,0.98307343 -0.4069012,1.50390702 -0.4069013,0.52083358 -1.1914069,0.52083358 -0.7747399,0 -1.1848964,-0.51106795 -0.4101564,-0.51106796 -0.419922,-1.46484445 v -0.8723963 q 0,-0.992839 0.4101564,-1.5071621 0.4134117,-0.5143232 1.1881516,-0.5143232 0.77474,0 1.1848964,0.511068 0.4101565,0.5078127 0.4199221,1.4615892 z M 8.9908901,-2.9166681 q 0,-0.5891929 -0.1627605,-0.8561202 -0.1595052,-0.2701824 -0.5013023,-0.2701824 -0.3320314,0 -0.4915367,0.2571616 -0.15625,0.2539064 -0.1660157,0.7975264 v 1.1523443 q 0,0.5794274 0.1562501,0.86263064 0.1595053,0.27994805 0.5078127,0.27994805 0.3450523,0 0.4980472,-0.27018242 0.1529948,-0.27018237 0.1595052,-0.82682327 z"/>
      </g>
      <path d="M 0,0 H 2.5" style="stroke:#333333;stroke-width:0.3" transform="rotate(135,-8.5,3.5208153)" id="polyline6818"/>
      <path d="M 0,0 H 2.5" style="stroke:#333333;stroke-width:0.3" transform="rotate(150,-8.5,2.2775681)" id="polyline6820"/>
      <path d="M 0,0 H 2.5" style="stroke:#333333;stroke-width:0.3" transform="rotate(165,-8.5,1.1190462)" id="polyline6822"/>
      <path d="M 0,0 H 2.5" style="stroke:#333333;stroke-width:0.3" transform="rotate(180,-8.5,0)" id="polyline6824"/>
      <path d="M 0,0 H 3.5" style="stroke:#333333;stroke-width:1" transform="rotate(-165,-8.5,-1.1190462)" id="polyline6826"/>
      <path d="M 0,0 H 2.5" style="stroke:#333333;stroke-width:0.3" transform="rotate(-150,-8.5,-2.2775681)" id="polyline6828"/>
      <path d="M 0,0 H 2.5" style="stroke:#333333;stroke-width:0.3" transform="rotate(-135,-8.5,-3.5208153)" id="polyline6830"/>
      <path d="M 0,0 H 2.5" style="stroke:#333333;stroke-width:0.3" transform="rotate(-120,-8.5,-4.9074773)" id="polyline6832"/>
      <path d="M 0,0 H 2.5" style="stroke:#333333;stroke-width:0.3" transform="rotate(-105,-8.5,-6.5222794)" id="polyline6834"/>
      <g style="font-weight:bold;font-size:6.66667px;font-family:Roboto, sans-serif;fill:#333333" id="text6836" transform="translate(-1.9,-16.8)" aria-label="0">
        <path id="path7206" style="font-weight:bold;font-size:6.66667px;font-family:Roboto, sans-serif;fill:#333333" d="m 3.5123715,-1.9596364 q 0,0.98307343 -0.4069013,1.50390702 Q 2.698569,0.0651042 1.9140634,0.0651042 q -0.7747399,0 -1.18489639,-0.51106795 Q 0.31901057,-0.95703171 0.30924494,-1.9108082 v -0.8723963 q 0,-0.992839 0.41015644,-1.5071621 0.41341162,-0.5143232 1.18815162,-0.5143232 0.7747399,0 1.1848964,0.511068 0.4101564,0.5078127 0.4199221,1.4615892 z M 2.5716158,-2.9166681 q 0,-0.5891929 -0.1627605,-0.8561202 Q 2.24935,-4.0429707 1.907553,-4.0429707 q -0.3320314,0 -0.4915367,0.2571616 -0.1562501,0.2539064 -0.1660157,0.7975264 v 1.1523443 q 0,0.5794274 0.1562501,0.86263064 0.1595053,0.27994805 0.5078127,0.27994805 0.3450523,0 0.4980471,-0.27018242 0.1529949,-0.27018237 0.1595053,-0.82682327 z"/>
      </g>
      <path d="M 0,0 H 2.5" style="stroke:#333333;stroke-width:0.3" transform="rotate(-75,-8.5,-11.077416)" id="polyline6838"/>
      <path d="M 0,0 H 2.5" style="stroke:#333333;stroke-width:0.3" transform="rotate(-60,-8.5,-14.722432)" id="polyline6840"/>
      <path d="M 0,0 H 2.5" style="stroke:#333333;stroke-width:0.3" transform="rotate(-45,-8.5,-20.520815)" id="polyline6842"/>
      <path d="M 0,0 H 2.5" style="stroke:#333333;stroke-width:0.3" transform="rotate(-30,-8.5,-31.722432)" id="polyline6844"/>
      <path d="M 0,0 H 3.5" style="stroke:#333333;stroke-width:1" transform="rotate(-15,-8.5,-64.56391)" id="polyline6846"/>
      <path d="M 0,0 H 2.5" style="stroke:#333333;stroke-width:0.3" transform="translate(17)" id="polyline6848"/>
      <path d="M 0,0 H 2.5" style="stroke:#333333;stroke-width:0.3" transform="rotate(15,-8.5,64.56391)" id="polyline6850"/>
      <path d="M 0,0 H 2.5" style="stroke:#333333;stroke-width:0.3" transform="rotate(30,-8.5,31.722432)" id="polyline6852"/>
      <path d="M 0,0 H 2.5" style="stroke:#333333;stroke-width:0.3" transform="rotate(45,-8.5,20.520815)" id="polyline6854"/>
      <g style="font-weight:bold;font-size:6.66667px;font-family:Roboto, sans-serif;fill:#333333" id="text6856" transform="translate(6.5,20.386533)" aria-label="10">
        <path id="path7218" style="font-weight:bold;font-size:6.66667px;font-family:Roboto, sans-serif;fill:#333333" d="M 2.6074231,0 H 1.6666675 V -3.6263038 L 0.54362005,-3.2779964 V -4.0429707 L 2.5065116,-4.746096 h 0.1009115 z"/>
        <path id="path7220" style="font-weight:bold;font-size:6.66667px;font-family:Roboto, sans-serif;fill:#333333" d="m 7.3404984,-1.9596364 q 0,0.98307343 -0.4069013,1.50390702 -0.4069012,0.52083358 -1.1914068,0.52083358 -0.7747399,0 -1.1848964,-0.51106795 Q 4.1471375,-0.95703171 4.1373718,-1.9108082 v -0.8723963 q 0,-0.992839 0.4101565,-1.5071621 0.4134116,-0.5143232 1.1881516,-0.5143232 0.77474,0 1.1848964,0.511068 0.4101564,0.5078127 0.4199221,1.4615892 z M 6.3997427,-2.9166681 q 0,-0.5891929 -0.1627605,-0.8561202 -0.1595053,-0.2701824 -0.5013023,-0.2701824 -0.3320314,0 -0.4915367,0.2571616 -0.1562501,0.2539064 -0.1660157,0.7975264 v 1.1523443 q 0,0.5794274 0.1562501,0.86263064 0.1595053,0.27994805 0.5078127,0.27994805 0.3450523,0 0.4980471,-0.27018242 0.1529949,-0.27018237 0.1595053,-0.82682327 z"/>
      </g>
    </g>
  </g>
  <g transform="translate(5.5,84)" id="g6705">
    <path d="m 5,0 h 24 c 2.77,0 5,2.23 5,5 v 28 c 0,2.77 -2.23,5 -5,5 H 5 C 2.23,38 0,35.77 0,33 V 5 C 0,2.23 2.23,0 5,0 Z" style="fill:#fafafa" id="rect6701"/>
    <g style="font-weight:bold;font-size:6.66667px;font-family:Roboto, sans-serif;letter-spacing:2px;fill:#333333" id="text6703" transform="translate(13,35)" aria-label="IN">
      <path id="path7185" style="font-weight:bold;font-size:6.66667px;font-family:Roboto, sans-serif;letter-spacing:2px;fill:#333333" d="M 1.4615892,0 H 0.48502627 V -4.7395856 H 1.4615892 Z"/>
      <path id="path7187" style="font-weight:bold;font-size:6.66667px;font-family:Roboto, sans-serif;letter-spacing:2px;fill:#333333" d="M 8.2174508,0 H 7.2408878 L 5.3398452,-3.1184911 V 0 h -0.976563 v -4.7395856 h 0.976563 l 1.9042978,3.1250015 v -3.1250015 h 0.9733078 z"/>
    </g>
  </g>
  <g style="font-weight:bold;font-size:8px;font-family:Roboto, sans-serif;letter-spacing:1px;fill:#333333" id="text6709" aria-label="B">
    <path id="path7152" style="font-weight:bold;font-size:8px;font-family:Roboto, sans-serif;letter-spacing:1px;fill:#333333" d="M 65.507812,35 V 29.3125 H 67.5 q 1.035156,0 1.570312,0.398437 0.535157,0.394532 0.535157,1.160157 0,0.417968 -0.214844,0.738281 -0.214844,0.316406 -0.597656,0.464844 0.4375,0.109375 0.6875,0.441406 0.253906,0.332031 0.253906,0.8125 0,0.820312 -0.523438,1.242187 Q 68.6875,34.992187 67.71875,35 Z m 1.171875,-2.476563 v 1.535157 h 1.003907 q 0.414062,0 0.644531,-0.195313 0.234375,-0.199219 0.234375,-0.546875 0,-0.78125 -0.808594,-0.792969 z m 0,-0.828125 h 0.867188 q 0.886719,-0.01563 0.886719,-0.707031 0,-0.386719 -0.226563,-0.554687 Q 67.984375,30.261719 67.5,30.261719 h -0.820313 z"/>
  </g>
  <g transform="translate(45,38)" id="use6711">
    <g transform="translate(22.5,22.5)" id="g6904">
      <g style="font-weight:bold;font-size:6.66667px;font-family:Roboto, sans-serif;fill:#333333" id="text6862" transform="translate(-15.5,20.386533)" aria-label="-10">
        <path id="path7119" style="font-weight:bold;font-size:6.66667px;font-family:Roboto, sans-serif;fill:#333333" d="M 2.1907563,-1.6503914 H 0.35807309 V -2.4088553 H 2.1907563 Z"/>
        <path id="path7121" style="font-weight:bold;font-size:6.66667px;font-family:Roboto, sans-serif;fill:#333333" d="M 5.1985703,0 H 4.2578146 V -3.6263038 L 3.1347672,-3.2779964 V -4.0429707 L 5.0976588,-4.746096 h 0.1009115 z"/>
        <path id="path7123" style="font-weight:bold;font-size:6.66667px;font-family:Roboto, sans-serif;fill:#333333" d="m 9.9316458,-1.9596364 q 0,0.98307343 -0.4069012,1.50390702 -0.4069013,0.52083358 -1.1914069,0.52083358 -0.7747399,0 -1.1848964,-0.51106795 -0.4101564,-0.51106796 -0.419922,-1.46484445 v -0.8723963 q 0,-0.992839 0.4101564,-1.5071621 0.4134117,-0.5143232 1.1881516,-0.5143232 0.77474,0 1.1848964,0.511068 0.4101565,0.5078127 0.4199221,1.4615892 z M 8.9908901,-2.9166681 q 0,-0.5891929 -0.1627605,-0.8561202 -0.1595052,-0.2701824 -0.5013023,-0.2701824 -0.3320314,0 -0.4915367,0.2571616 -0.15625,0.2539064 -0.1660157,0.7975264 v 1.1523443 q 0,0.5794274 0.1562501,0.86263064 0.1595053,0.27994805 0.5078127,0.27994805 0.3450523,0 0.4980472,-0.27018242 0.1529948,-0.27018237 0.1595052,-0.82682327 z"/>
      </g>
      <path d="M 0,0 H 2.5" style="stroke:#333333;stroke-width:0.3" transform="rotate(135,-8.5,3.5208153)" id="polyline6864"/>
      <path d="M 0,0 H 2.5" style="stroke:#333333;stroke-width:0.3" transform="rotate(150,-8.5,2.2775681)" id="polyline6866"/>
      <path d="M 0,0 H 2.5" style="stroke:#333333;stroke-width:0.3" transform="rotate(165,-8.5,1.1190462)" id="polyline6868"/>
      <path d="M 0,0 H 2.5" style="stroke:#333333;stroke-width:0.3" transform="rotate(180,-8.5,0)" id="polyline6870"/>
      <path d="M 0,0 H 3.5" style="stroke:#333333;stroke-width:1" transform="rotate(-165,-8.5,-1.1190462)" id="polyline6872"/>
      <path d="M 0,0 H 2.5" style="stroke:#333333;stroke-width:0.3" transform="rotate(-150,-8.5,-2.2775681)" id="polyline6874"/>
      <path d="M 0,0 H 2.5" style="stroke:#333333;stroke-width:0.3" transform="rotate(-135,-8.5,-3.5208153)" id="polyline6876"/>
      <path d="M 0,0 H 2.5" style="stroke:#333333;stroke-width:0.3" transform="rotate(-120,-8.5,-4.9074773)" id="polyline6878"/>
      <path d="M 0,0 H 2.5" style="stroke:#333333;stroke-width:0.3" transform="rotate(-105,-8.5,-6.5222794)" id="polyline6880"/>
      <g style="font-weight:bold;font-size:6.66667px;font-family:Roboto, sans-serif;fill:#333333" id="text6882" transform="translate(-1.9,-16.8)" aria-label="0">
        <path id="path7135" style="font-weight:bold;font-size:6.66667px;font-family:Roboto, sans-serif;fill:#333333" d="m 3.5123715,-1.9596364 q 0,0.98307343 -0.4069013,1.50390702 Q 2.698569,0.0651042 1.9140634,0.0651042 q -0.7747399,0 -1.18489639,-0.51106795 Q 0.31901057,-0.95703171 0.30924494,-1.9108082 v -0.8723963 q 0,-0.992839 0.41015644,-1.5071621 0.41341162,-0.5143232 1.18815162,-0.5143232 0.7747399,0 1.1848964,0.511068 0.4101564,0.5078127 0.4199221,1.4615892 z M 2.5716158,-2.9166681 q 0,-0.5891929 -0.1627605,-0.8561202 Q 2.24935,-4.0429707 1.907553,-4.0429707 q -0.3320314,0 -0.4915367,0.2571616 -0.1562501,0.2539064 -0.1660157,0.7975264 v 1.1523443 q 0,0.5794274 0.1562501,0.86263064 0.1595053,0.27994805 0.5078127,0.27994805 0.3450523,0 0.4980471,-0.27018242 0.1529949,-0.27018237 0.1595053,-0.82682327 z"/>
      </g>
      <path d="M 0,0 H 2.5" style="stroke:#333333;stroke-width:0.3" transform="rotate(-75,-8.5,-11.077416)" id="polyline6884"/>
      <path d="M 0,0 H 2.5" style="stroke:#333333;stroke-width:0.3" transform="rotate(-60,-8.5,-14.722432)" id="polyline6886"/>
      <path d="M 0,0 H 2.5" style="stroke:#333333;stroke-width:0.3" transform="rotate(-45,-8.5,-20.520815)" id="polyline6888"/>
      <path d="M 0,0 H 2.5" style="stroke:#333333;stroke-width:0.3" transform="rotate(-30,-8.5,-31.722432)" id="polyline6890"/>
      <path d="M 0,0 H 3.5" style="stroke:#333333;stroke-width:1" transform="rotate(-15,-8.5,-64.56391)" id="polyline6892"/>
      <path d="M 0,0 H 2.5" style="stroke:#333333;stroke-width:0.3" transform="translate(17)" id="polyline6894"/>
      <path d="M 0,0 H 2.5" style="stroke:#333333;stroke-width:0.3" transform="rotate(15,-8.5,64.56391)" id="polyline6896"/>
      <path d="M 0,0 H 2.5" style="stroke:#333333;stroke-width:0.3" transform="rotate(30,-8.5,31.722432)" id="polyline6898"/>
      <path d="M 0,0 H 2.5" style="stroke:#333333;stroke-width:0.3" transform="rotate(45,-8.5,20.520815)" id="polyline6900"/>
      <g style="font-weight:bold;font-size:6.66667px;font-family:Roboto, sans-serif;fill:#333333" id="text6902" transform="translate(6.5,20.386533)" aria-label="10">
        <path id="path7147" style="font-weight:bold;font-size:6.66667px;font-family:Roboto, sans-serif;fill:#333333" d="M 2.6074231,0 H 1.6666675 V -3.6263038 L 0.54362005,-3.2779964 V -4.0429707 L 2.5065116,-4.746096 h 0.1009115 z"/>
        <path id="path7149" style="font-weight:bold;font-size:6.66667px;font-family:Roboto, sans-serif;fill:#333333" d="m 7.3404984,-1.9596364 q 0,0.98307343 -0.4069013,1.50390702 -0.4069012,0.52083358 -1.1914068,0.52083358 -0.7747399,0 -1.1848964,-0.51106795 Q 4.1471375,-0.95703171 4.1373718,-1.9108082 v -0.8723963 q 0,-0.992839 0.4101565,-1.5071621 0.4134116,-0.5143232 1.1881516,-0.5143232 0.77474,0 1.1848964,0.511068 0.4101564,0.5078127 0.4199221,1.4615892 z M 6.3997427,-2.9166681 q 0,-0.5891929 -0.1627605,-0.8561202 -0.1595053,-0.2701824 -0.5013023,-0.2701824 -0.3320314,0 -0.4915367,0.2571616 -0.1562501,0.2539064 -0.1660157,0.7975264 v 1.1523443 q 0,0.5794274 0.1562501,0.86263064 0.1595053,0.27994805 0.5078127,0.27994805 0.3450523,0 0.4980471,-0.27018242 0.1529949,-0.27018237 0.1595053,-0.82682327 z"/>
      </g>
    </g>
  </g>
  <g transform="translate(50.5,84)" id="g6717">
    <path d="m 5,0 h 24 c 2.77,0 5,2.23 5,5 v 28 c 0,2.77 -2.23,5 -5,5 H 5 C 2.23,38 0,35.77 0,33 V 5 C 0,2.23 2.23,0 5,0 Z" style="fill:#fafafa" id="rect6713"/>
    <g style="font-weight:bold;font-size:6.66667px;font-family:Roboto, sans-serif;letter-spacing:2px;fill:#333333" id="text6715" transform="translate(13,35)" aria-label="IN">
      <path id="path7114" style="font-weight:bold;font-size:6.66667px;font-family:Roboto, sans-serif;letter-spacing:2px;fill:#333333" d="M 1.4615892,0 H 0.48502627 V -4.7395856 H 1.4615892 Z"/>
      <path id="path7116" style="font-weight:bold;font-size:6.66667px;font-family:Roboto, sans-serif;letter-spacing:2px;fill:#333333" d="M 8.2174508,0 H 7.2408878 L 5.3398452,-3.1184911 V 0 h -0.976563 v -4.7395856 h 0.976563 l 1.9042978,3.1250015 v -3.1250015 h 0.9733078 z"/>
    </g>
  </g>
  <g style="font-weight:bold;font-size:8px;font-family:Roboto, sans-serif;letter-spacing:1px;fill:#333333" id="text6721" aria-label="WINDOW">
    <path id="path7100" style="font-weight:bold;font-size:8px;font-family:Roboto, sans-serif;letter-spacing:1px;fill:#333333" d="m 8.4375,138.35937 0.765625,-4.04687 h 1.167969 L 9.109375,140 H 7.9296875 L 7.0039062,136.19531 6.078125,140 H 4.8984375 l -1.2617187,-5.6875 h 1.1679687 l 0.7695312,4.03906 0.9375,-4.03906 h 0.9921875 z"/>
    <path id="path7102" style="font-weight:bold;font-size:8px;font-family:Roboto, sans-serif;letter-spacing:1px;fill:#333333" d="m 13.253906,140 h -1.171875 v -5.6875 h 1.171875 z"/>
    <path id="path7104" style="font-weight:bold;font-size:8px;font-family:Roboto, sans-serif;letter-spacing:1px;fill:#333333" d="m 19.960937,140 h -1.171875 l -2.28125,-3.74219 V 140 h -1.171874 v -5.6875 h 1.171874 l 2.285157,3.75 v -3.75 h 1.167968 z"/>
    <path id="path7106" style="font-weight:bold;font-size:8px;font-family:Roboto, sans-serif;letter-spacing:1px;fill:#333333" d="m 21.992187,140 v -5.6875 h 1.75 q 0.75,0 1.339844,0.33984 0.59375,0.33594 0.925781,0.96094 0.332032,0.62109 0.332032,1.41406 v 0.26172 q 0,0.79297 -0.328125,1.41016 -0.324219,0.61719 -0.917969,0.95703 Q 24.5,139.99609 23.753906,140 Z m 1.171875,-4.73828 v 3.79687 h 0.566407 q 0.6875,0 1.050781,-0.44922 0.363281,-0.44921 0.371094,-1.28515 v -0.30078 q 0,-0.86719 -0.359375,-1.3125 -0.359375,-0.44922 -1.050782,-0.44922 z"/>
    <path id="path7108" style="font-weight:bold;font-size:8px;font-family:Roboto, sans-serif;letter-spacing:1px;fill:#333333" d="m 32.867187,137.28516 q 0,0.83984 -0.296875,1.47265 -0.296875,0.63281 -0.851562,0.97656 -0.550781,0.34375 -1.265625,0.34375 -0.707031,0 -1.261719,-0.33984 -0.554687,-0.33984 -0.859375,-0.96875 -0.304687,-0.63281 -0.308594,-1.45312 v -0.28125 q 0,-0.83985 0.300782,-1.47657 0.304687,-0.64062 0.855468,-0.98047 0.554688,-0.34375 1.265625,-0.34375 0.710938,0 1.261719,0.34375 0.554688,0.33985 0.855469,0.98047 0.304687,0.63672 0.304687,1.47266 z m -1.1875,-0.25782 q 0,-0.89453 -0.320312,-1.35937 -0.320313,-0.46485 -0.914063,-0.46485 -0.589843,0 -0.910156,0.46094 -0.320312,0.45703 -0.324219,1.34375 v 0.27735 q 0,0.87109 0.320313,1.35156 0.320312,0.48047 0.921875,0.48047 0.589844,0 0.90625,-0.46094 0.316406,-0.46484 0.320312,-1.35156 z"/>
    <path id="path7110" style="font-weight:bold;font-size:8px;font-family:Roboto, sans-serif;letter-spacing:1px;fill:#333333" d="m 39.15625,138.35937 0.765625,-4.04687 h 1.167969 L 39.828125,140 H 38.648437 L 37.722656,136.19531 36.796875,140 h -1.179688 l -1.261718,-5.6875 h 1.167968 l 0.769532,4.03906 0.9375,-4.03906 h 0.992187 z"/>
  </g>
  <g transform="translate(0,143)" id="use6723">
    <g transform="translate(22.5,22.5)" id="g6930">
      <g style="font-weight:bold;font-size:6.66667px;font-family:Roboto, sans-serif;fill:#333333" id="text6908" transform="translate(-11.9,19.520508)" aria-label="0">
        <path id="path7083" style="font-weight:bold;font-size:6.66667px;font-family:Roboto, sans-serif;fill:#333333" d="m 3.5123715,-1.9596364 q 0,0.98307343 -0.4069013,1.50390702 Q 2.698569,0.0651042 1.9140634,0.0651042 q -0.7747399,0 -1.18489639,-0.51106795 Q 0.31901057,-0.95703171 0.30924494,-1.9108082 v -0.8723963 q 0,-0.992839 0.41015644,-1.5071621 0.41341162,-0.5143232 1.18815162,-0.5143232 0.7747399,0 1.1848964,0.511068 0.4101564,0.5078127 0.4199221,1.4615892 z M 2.5716158,-2.9166681 q 0,-0.5891929 -0.1627605,-0.8561202 Q 2.24935,-4.0429707 1.907553,-4.0429707 q -0.3320314,0 -0.4915367,0.2571616 -0.1562501,0.2539064 -0.1660157,0.7975264 v 1.1523443 q 0,0.5794274 0.1562501,0.86263064 0.1595053,0.27994805 0.5078127,0.27994805 0.3450523,0 0.4980471,-0.27018242 0.1529949,-0.27018237 0.1595053,-0.82682327 z"/>
      </g>
      <path d="M 0,0 H 2.5" style="stroke:#333333;stroke-width:0.3" transform="rotate(150,-8.5,2.2775681)" id="polyline6910"/>
      <path d="M 0,0 H 2.5" style="stroke:#333333;stroke-width:0.3" transform="rotate(180,-8.5,0)" id="polyline6912"/>
      <path d="M 0,0 H 2.5" style="stroke:#333333;stroke-width:0.3" transform="rotate(-150,-8.5,-2.2775681)" id="polyline6914"/>
      <path d="M 0,0 H 2.5" style="stroke:#333333;stroke-width:0.3" transform="rotate(-120,-8.5,-4.9074773)" id="polyline6916"/>
      <path d="M 0,0 H 3.5" style="stroke:#333333;stroke-width:1" transform="rotate(-90,-8.5,-8.5)" id="polyline6918"/>
      <path d="M 0,0 H 2.5" style="stroke:#333333;stroke-width:0.3" transform="rotate(-60,-8.5,-14.722432)" id="polyline6920"/>
      <path d="M 0,0 H 2.5" style="stroke:#333333;stroke-width:0.3" transform="rotate(-30,-8.5,-31.722432)" id="polyline6922"/>
      <path d="M 0,0 H 2.5" style="stroke:#333333;stroke-width:0.3" transform="translate(17)" id="polyline6924"/>
      <path d="M 0,0 H 2.5" style="stroke:#333333;stroke-width:0.3" transform="rotate(30,-8.5,31.722432)" id="polyline6926"/>
      <g style="font-weight:bold;font-size:6.66667px;font-family:Roboto, sans-serif;fill:#333333" id="text6928" transform="translate(6,19.520508)" aria-label="10">
        <path id="path7095" style="font-weight:bold;font-size:6.66667px;font-family:Roboto, sans-serif;fill:#333333" d="M 2.6074231,0 H 1.6666675 V -3.6263038 L 0.54362005,-3.2779964 V -4.0429707 L 2.5065116,-4.746096 h 0.1009115 z"/>
        <path id="path7097" style="font-weight:bold;font-size:6.66667px;font-family:Roboto, sans-serif;fill:#333333" d="m 7.3404984,-1.9596364 q 0,0.98307343 -0.4069013,1.50390702 -0.4069012,0.52083358 -1.1914068,0.52083358 -0.7747399,0 -1.1848964,-0.51106795 Q 4.1471375,-0.95703171 4.1373718,-1.9108082 v -0.8723963 q 0,-0.992839 0.4101565,-1.5071621 0.4134116,-0.5143232 1.1881516,-0.5143232 0.77474,0 1.1848964,0.511068 0.4101564,0.5078127 0.4199221,1.4615892 z M 6.3997427,-2.9166681 q 0,-0.5891929 -0.1627605,-0.8561202 -0.1595053,-0.2701824 -0.5013023,-0.2701824 -0.3320314,0 -0.4915367,0.2571616 -0.1562501,0.2539064 -0.1660157,0.7975264 v 1.1523443 q 0,0.5794274 0.1562501,0.86263064 0.1595053,0.27994805 0.5078127,0.27994805 0.3450523,0 0.4980471,-0.27018242 0.1529949,-0.27018237 0.1595053,-0.82682327 z"/>
      </g>
    </g>
  </g>
  <g transform="translate(5.5,189)" id="g6729">
    <path d="m 5,0 h 24 c 2.77,0 5,2.23 5,5 v 28 c 0,2.77 -2.23,5 -5,5 H 5 C 2.23,38 0,35.77 0,33 V 5 C 0,2.23 2.23,0 5,0 Z" style="fill:#fafafa" id="rect6725"/>
    <g style="font-weight:bold;font-size:6.66667px;font-family:Roboto, sans-serif;letter-spacing:2px;fill:#333333" id="text6727" transform="translate(11,35)" aria-label="CV">
      <path id="path7078" style="font-weight:bold;font-size:6.66667px;font-family:Roboto, sans-serif;letter-spacing:2px;fill:#333333" d="M 4.1438822,-1.5787768 Q 4.0885436,-0.81380247 3.5774757,-0.37434914 3.0696629,0.0651042 2.2363292,0.0651042 q -0.9114588,0 -1.43554757,-0.61197946 Q 0.27994805,-1.1621099 0.27994805,-2.233074 v -0.2897137 q 0,-0.683594 0.24088553,-1.2044276 0.24088553,-0.5208336 0.68684932,-0.7975264 0.4492189,-0.2799481 1.0416671,-0.2799481 0.8203129,0 1.3216152,0.4394533 0.5013024,0.4394534 0.5794274,1.2337246 H 3.1738296 Q 3.1380223,-3.5904965 2.9166681,-3.7955747 2.698569,-4.0039082 2.24935,-4.0039082 q -0.4882815,0 -0.7324222,0.3515627 -0.2408855,0.3483075 -0.2473959,1.0839849 v 0.3580731 q 0,0.7682295 0.2311199,1.1230474 0.2343751,0.35481788 0.7356774,0.35481788 0.4524742,0 0.6738284,-0.20507823 0.2246095,-0.20833345 0.2571616,-0.64127635 z"/>
      <path id="path7080" style="font-weight:bold;font-size:6.66667px;font-family:Roboto, sans-serif;letter-spacing:2px;fill:#333333" d="M 8.5364616,-1.1751308 9.6106809,-4.7395856 H 10.697921 L 9.0475295,0 H 8.0286489 l -1.643881,-4.7395856 h 1.0839849 z"/>
    </g>
  </g>
  <g style="font-weight:bold;font-size:8px;font-family:Roboto, sans-serif;letter-spacing:1px;fill:#333333" id="text6733" aria-label="LAG">
    <path id="path7070" style="font-weight:bold;font-size:8px;font-family:Roboto, sans-serif;letter-spacing:1px;fill:#333333" d="m 60.679687,139.05859 h 2.488282 V 140 h -3.660157 v -5.6875 h 1.171875 z"/>
    <path id="path7072" style="font-weight:bold;font-size:8px;font-family:Roboto, sans-serif;letter-spacing:1px;fill:#333333" d="M 68.125,138.82812 H 66.070312 L 65.679687,140 h -1.246093 l 2.117187,-5.6875 h 1.085938 L 69.765625,140 h -1.246094 z m -1.738281,-0.94921 h 1.421875 L 67.09375,135.75 Z"/>
    <path id="path7074" style="font-weight:bold;font-size:8px;font-family:Roboto, sans-serif;letter-spacing:1px;fill:#333333" d="m 75.726562,139.28125 q -0.316406,0.37891 -0.894531,0.58984 -0.578125,0.20703 -1.28125,0.20703 -0.738281,0 -1.296875,-0.32031 -0.554687,-0.32422 -0.859375,-0.9375 -0.300781,-0.61328 -0.308594,-1.4414 v -0.38672 q 0,-0.85157 0.285157,-1.47266 0.289062,-0.625 0.828125,-0.95312 0.542968,-0.33204 1.269531,-0.33204 1.011719,0 1.582031,0.48438 0.570313,0.48047 0.675781,1.40234 h -1.140625 q -0.07813,-0.48828 -0.347656,-0.71484 -0.265625,-0.22656 -0.734375,-0.22656 -0.597656,0 -0.910156,0.44922 -0.3125,0.44921 -0.316406,1.33593 v 0.36328 q 0,0.89454 0.339843,1.35157 0.339844,0.45703 0.996094,0.45703 0.660156,0 0.941406,-0.28125 V 137.875 h -1.066406 v -0.86328 h 2.238281 z"/>
  </g>
  <g transform="translate(45,143)" id="use6735">
    <g transform="translate(22.5,22.5)" id="g6958">
      <g style="font-weight:bold;font-size:6.66667px;font-family:Roboto, sans-serif;fill:#333333" id="text6934" transform="translate(-11.9,19.520508)" aria-label="0">
        <path id="path7048" style="font-weight:bold;font-size:6.66667px;font-family:Roboto, sans-serif;fill:#333333" d="m 3.5123715,-1.9596364 q 0,0.98307343 -0.4069013,1.50390702 Q 2.698569,0.0651042 1.9140634,0.0651042 q -0.7747399,0 -1.18489639,-0.51106795 Q 0.31901057,-0.95703171 0.30924494,-1.9108082 v -0.8723963 q 0,-0.992839 0.41015644,-1.5071621 0.41341162,-0.5143232 1.18815162,-0.5143232 0.7747399,0 1.1848964,0.511068 0.4101564,0.5078127 0.4199221,1.4615892 z M 2.5716158,-2.9166681 q 0,-0.5891929 -0.1627605,-0.8561202 Q 2.24935,-4.0429707 1.907553,-4.0429707 q -0.3320314,0 -0.4915367,0.2571616 -0.1562501,0.2539064 -0.1660157,0.7975264 v 1.1523443 q 0,0.5794274 0.1562501,0.86263064 0.1595053,0.27994805 0.5078127,0.27994805 0.3450523,0 0.4980471,-0.27018242 0.1529949,-0.27018237 0.1595053,-0.82682327 z"/>
      </g>
      <path d="M 0,0 H 2.5" style="stroke:#333333;stroke-width:0.3" transform="rotate(150,-8.5,2.2775681)" id="polyline6936"/>
      <g style="font-weight:bold;font-size:6.66667px;font-family:Roboto, sans-serif;fill:#333333" id="text6938" transform="translate(-21.519252,-9.5201855)" aria-label="0.1">
        <path id="path7052" style="font-weight:bold;font-size:6.66667px;font-family:Roboto, sans-serif;fill:#333333" d="m 3.5123715,-1.9596364 q 0,0.98307343 -0.4069013,1.50390702 Q 2.698569,0.0651042 1.9140634,0.0651042 q -0.7747399,0 -1.18489639,-0.51106795 Q 0.31901057,-0.95703171 0.30924494,-1.9108082 v -0.8723963 q 0,-0.992839 0.41015644,-1.5071621 0.41341162,-0.5143232 1.18815162,-0.5143232 0.7747399,0 1.1848964,0.511068 0.4101564,0.5078127 0.4199221,1.4615892 z M 2.5716158,-2.9166681 q 0,-0.5891929 -0.1627605,-0.8561202 Q 2.24935,-4.0429707 1.907553,-4.0429707 q -0.3320314,0 -0.4915367,0.2571616 -0.1562501,0.2539064 -0.1660157,0.7975264 v 1.1523443 q 0,0.5794274 0.1562501,0.86263064 0.1595053,0.27994805 0.5078127,0.27994805 0.3450523,0 0.4980471,-0.27018242 0.1529949,-0.27018237 0.1595053,-0.82682327 z"/>
        <path id="path7054" style="font-weight:bold;font-size:6.66667px;font-family:Roboto, sans-serif;fill:#333333" d="m 4.2382834,-0.4622398 q 0,-0.22460949 0.1497396,-0.36458351 0.1529949,-0.13997403 0.3808596,-0.13997403 0.2311199,0 0.3808595,0.13997403 0.1529949,0.13997402 0.1529949,0.36458351 0,0.22135427 -0.1497397,0.36132829 -0.1497396,0.13671882 -0.3841147,0.13671882 -0.2311199,0 -0.3808596,-0.13671882 Q 4.2382834,-0.24088553 4.2382834,-0.4622398 Z"/>
        <path id="path7056" style="font-weight:bold;font-size:6.66667px;font-family:Roboto, sans-serif;fill:#333333" d="M 8.375655,0 H 7.4348993 V -3.6263038 L 6.3118519,-3.2779964 V -4.0429707 L 8.2747435,-4.746096 H 8.375655 Z"/>
      </g>
      <path d="M 0,0 H 2.5" style="stroke:#333333;stroke-width:0.3" transform="rotate(-105.84,-8.5,-6.4238366)" id="polyline6940"/>
      <path d="M 0,0 H 2.5" style="stroke:#333333;stroke-width:0.3" transform="rotate(-75.86,-8.5,-10.906944)" id="polyline6942"/>
      <path d="M 0,0 H 2.5" style="stroke:#333333;stroke-width:0.3" transform="rotate(-50.26,-8.5,-18.120852)" id="polyline6944"/>
      <path d="M 0,0 H 3.5" style="stroke:#333333;stroke-width:1" transform="rotate(-27.87,-8.5,-34.257154)" id="polyline6946"/>
      <path d="M 0,0 H 2.5" style="stroke:#333333;stroke-width:0.3" transform="rotate(-7.62,-8.5,-127.63677)" id="polyline6948"/>
      <path d="M 0,0 H 2.5" style="stroke:#333333;stroke-width:0.3" transform="rotate(11,-8.5,88.275875)" id="polyline6950"/>
      <path d="M 0,0 H 2.5" style="stroke:#333333;stroke-width:0.3" transform="rotate(28.33,-8.5,33.678168)" id="polyline6952"/>
      <path d="M 0,0 H 2.5" style="stroke:#333333;stroke-width:0.3" transform="rotate(44.6,-8.5,20.725142)" id="polyline6954"/>
      <g style="font-weight:bold;font-size:6.66667px;font-family:Roboto, sans-serif;fill:#333333" id="text6956" transform="translate(8.2,19.520508)" aria-label="1">
        <path id="path7067" style="font-weight:bold;font-size:6.66667px;font-family:Roboto, sans-serif;fill:#333333" d="M 2.6074231,0 H 1.6666675 V -3.6263038 L 0.54362005,-3.2779964 V -4.0429707 L 2.5065116,-4.746096 h 0.1009115 z"/>
      </g>
    </g>
  </g>
  <g transform="translate(50.5,189)" id="g6741">
    <path d="m 5,0 h 24 c 2.77,0 5,2.23 5,5 v 28 c 0,2.77 -2.23,5 -5,5 H 5 C 2.23,38 0,35.77 0,33 V 5 C 0,2.23 2.23,0 5,0 Z" style="fill:#fafafa" id="rect6737"/>
    <g style="font-weight:bold;font-size:6.66667px;font-family:Roboto, sans-serif;letter-spacing:2px;fill:#333333" id="text6739" transform="translate(11,35)" aria-label="CV">
      <path id="path7043" style="font-weight:bold;font-size:6.66667px;font-family:Roboto, sans-serif;letter-spacing:2px;fill:#333333" d="M 4.1438822,-1.5787768 Q 4.0885436,-0.81380247 3.5774757,-0.37434914 3.0696629,0.0651042 2.2363292,0.0651042 q -0.9114588,0 -1.43554757,-0.61197946 Q 0.27994805,-1.1621099 0.27994805,-2.233074 v -0.2897137 q 0,-0.683594 0.24088553,-1.2044276 0.24088553,-0.5208336 0.68684932,-0.7975264 0.4492189,-0.2799481 1.0416671,-0.2799481 0.8203129,0 1.3216152,0.4394533 0.5013024,0.4394534 0.5794274,1.2337246 H 3.1738296 Q 3.1380223,-3.5904965 2.9166681,-3.7955747 2.698569,-4.0039082 2.24935,-4.0039082 q -0.4882815,0 -0.7324222,0.3515627 -0.2408855,0.3483075 -0.2473959,1.0839849 v 0.3580731 q 0,0.7682295 0.2311199,1.1230474 0.2343751,0.35481788 0.7356774,0.35481788 0.4524742,0 0.6738284,-0.20507823 0.2246095,-0.20833345 0.2571616,-0.64127635 z"/>
      <path id="path7045" style="font-weight:bold;font-size:6.66667px;font-family:Roboto, sans-serif;letter-spacing:2px;fill:#333333" d="M 8.5364616,-1.1751308 9.6106809,-4.7395856 H 10.697921 L 9.0475295,0 H 8.0286489 l -1.643881,-4.7395856 h 1.0839849 z"/>
    </g>
  </g>
  <g style="font-weight:bold;font-size:8px;font-family:Roboto, sans-serif;letter-spacing:1px;fill:#333333" id="text6745" aria-label="OUTPUT">
    <path id="path7029" style="font-weight:bold;font-size:8px;font-family:Roboto, sans-serif;letter-spacing:1px;fill:#333333" d="m 31.679687,243.28516 q 0,0.83984 -0.296875,1.47265 -0.296875,0.63281 -0.851562,0.97656 -0.550781,0.34375 -1.265625,0.34375 -0.707031,0 -1.261719,-0.33984 -0.554687,-0.33984 -0.859375,-0.96875 -0.304687,-0.63281 -0.308594,-1.45312 v -0.28125 q 0,-0.83985 0.300782,-1.47657 0.304687,-0.64062 0.855468,-0.98047 0.554688,-0.34375 1.265625,-0.34375 0.710938,0 1.261719,0.34375 0.554688,0.33985 0.855469,0.98047 0.304687,0.63672 0.304687,1.47266 z m -1.1875,-0.25782 q 0,-0.89453 -0.320312,-1.35937 -0.320313,-0.46485 -0.914063,-0.46485 -0.589843,0 -0.910156,0.46094 -0.320312,0.45703 -0.324219,1.34375 v 0.27735 q 0,0.87109 0.320313,1.35156 0.320312,0.48047 0.921875,0.48047 0.589844,0 0.90625,-0.46094 0.316406,-0.46484 0.320312,-1.35156 z"/>
    <path id="path7031" style="font-weight:bold;font-size:8px;font-family:Roboto, sans-serif;letter-spacing:1px;fill:#333333" d="m 37.84375,240.3125 v 3.74609 q 0,0.9336 -0.585938,1.47657 -0.582031,0.54296 -1.59375,0.54296 -0.996093,0 -1.582031,-0.52734 -0.585937,-0.52734 -0.597656,-1.44922 v -3.78906 h 1.171875 v 3.75391 q 0,0.55859 0.265625,0.8164 0.269531,0.25391 0.742187,0.25391 0.988282,0 1.003907,-1.03906 v -3.78516 z"/>
    <path id="path7033" style="font-weight:bold;font-size:8px;font-family:Roboto, sans-serif;letter-spacing:1px;fill:#333333" d="M 44.085937,241.26172 H 42.34375 V 246 h -1.171875 v -4.73828 h -1.71875 v -0.94922 h 4.632812 z"/>
    <path id="path7035" style="font-weight:bold;font-size:8px;font-family:Roboto, sans-serif;letter-spacing:1px;fill:#333333" d="M 46.929687,243.99609 V 246 h -1.171875 v -5.6875 h 2.21875 q 0.640625,0 1.125,0.23437 0.488282,0.23438 0.75,0.66797 0.261719,0.42969 0.261719,0.98047 0,0.83594 -0.574219,1.32031 -0.570312,0.48047 -1.582031,0.48047 z m 0,-0.94922 h 1.046875 q 0.464844,0 0.707032,-0.21875 0.246093,-0.21875 0.246093,-0.625 0,-0.41796 -0.246093,-0.67578 -0.246094,-0.25781 -0.679688,-0.26562 h -1.074219 z"/>
    <path id="path7037" style="font-weight:bold;font-size:8px;font-family:Roboto, sans-serif;letter-spacing:1px;fill:#333333" d="m 56.21875,240.3125 v 3.74609 q 0,0.9336 -0.585938,1.47657 -0.582031,0.54296 -1.59375,0.54296 -0.996093,0 -1.582031,-0.52734 -0.585937,-0.52734 -0.597656,-1.44922 v -3.78906 h 1.171875 v 3.75391 q 0,0.55859 0.265625,0.8164 0.269531,0.25391 0.742187,0.25391 0.988282,0 1.003907,-1.03906 v -3.78516 z"/>
    <path id="path7039" style="font-weight:bold;font-size:8px;font-family:Roboto, sans-serif;letter-spacing:1px;fill:#333333" d="M 62.460937,241.26172 H 60.71875 V 246 h -1.171875 v -4.73828 h -1.71875 v -0.94922 h 4.632812 z"/>
  </g>
  <g transform="translate(25.5,236.5)" id="use6747">
    <!-- <rect width="90" height="45" fill="#f003" transform="translate(0 0)" /> -->
    <g transform="translate(8,22.5)" id="g6970">
      <g style="font-weight:bold;font-size:6.66667px;font-family:Roboto, sans-serif;fill:#333333" id="text6962" transform="translate(11.934313,-2.7575681)" aria-label="0-10V">
        <path id="path7005" style="font-weight:bold;font-size:6.66667px;font-family:Roboto, sans-serif;fill:#333333" d="m 3.5123715,-1.9596364 q 0,0.98307343 -0.4069013,1.50390702 Q 2.698569,0.0651042 1.9140634,0.0651042 q -0.7747399,0 -1.18489639,-0.51106795 Q 0.31901057,-0.95703171 0.30924494,-1.9108082 v -0.8723963 q 0,-0.992839 0.41015644,-1.5071621 0.41341162,-0.5143232 1.18815162,-0.5143232 0.7747399,0 1.1848964,0.511068 0.4101564,0.5078127 0.4199221,1.4615892 z M 2.5716158,-2.9166681 q 0,-0.5891929 -0.1627605,-0.8561202 Q 2.24935,-4.0429707 1.907553,-4.0429707 q -0.3320314,0 -0.4915367,0.2571616 -0.1562501,0.2539064 -0.1660157,0.7975264 v 1.1523443 q 0,0.5794274 0.1562501,0.86263064 0.1595053,0.27994805 0.5078127,0.27994805 0.3450523,0 0.4980471,-0.27018242 0.1529949,-0.27018237 0.1595053,-0.82682327 z"/>
        <path id="path7007" style="font-weight:bold;font-size:6.66667px;font-family:Roboto, sans-serif;fill:#333333" d="M 6.0188832,-1.6503914 H 4.1862 v -0.7584639 h 1.8326832 z"/>
        <path id="path7009" style="font-weight:bold;font-size:6.66667px;font-family:Roboto, sans-serif;fill:#333333" d="M 9.0266974,0 H 8.0859418 V -3.6263038 L 6.9628944,-3.2779964 V -4.0429707 L 8.9257859,-4.746096 h 0.1009115 z"/>
        <path id="path7011" style="font-weight:bold;font-size:6.66667px;font-family:Roboto, sans-serif;fill:#333333" d="m 13.759773,-1.9596364 q 0,0.98307343 -0.406902,1.50390702 -0.406901,0.52083358 -1.191406,0.52083358 -0.77474,0 -1.184897,-0.51106795 -0.410156,-0.51106796 -0.419922,-1.46484445 v -0.8723963 q 0,-0.992839 0.410157,-1.5071621 0.413411,-0.5143232 1.188151,-0.5143232 0.77474,0 1.184897,0.511068 0.410156,0.5078127 0.419922,1.4615892 z m -0.940756,-0.9570317 q 0,-0.5891929 -0.16276,-0.8561202 -0.159506,-0.2701824 -0.501303,-0.2701824 -0.332031,0 -0.491536,0.2571616 -0.156251,0.2539064 -0.166016,0.7975264 v 1.1523443 q 0,0.5794274 0.15625,0.86263064 0.159505,0.27994805 0.507813,0.27994805 0.345052,0 0.498047,-0.27018242 0.152995,-0.27018237 0.159505,-0.82682327 z"/>
        <path id="path7013" style="font-weight:bold;font-size:6.66667px;font-family:Roboto, sans-serif;fill:#333333" d="m 16.250008,-1.1751308 1.07422,-3.5644548 h 1.08724 L 16.761076,0 h -1.01888 L 14.098315,-4.7395856 H 15.1823 Z"/>
      </g>
      <path d="M 0,0 H 2" style="stroke:#333333;stroke-width:1" transform="rotate(-22.5,-4.75,-23.879863)" id="polyline6964"/>
      <g style="font-weight:bold;font-size:6.66667px;font-family:Roboto, sans-serif;fill:#333333" id="text6966" transform="translate(11.934313,7.3575681)" aria-label="+/-5V">
        <path id="path7017" style="font-weight:bold;font-size:6.66667px;font-family:Roboto, sans-serif;fill:#333333" d="m 2.2591157,-2.6529961 h 1.1751307 v 0.8496098 H 2.2591157 v 1.32812566 H 1.3639329 V -1.8033863 H 0.18554696 V -2.6529961 H 1.3639329 v -1.272787 h 0.8951828 z"/>
        <path id="path7019" style="font-weight:bold;font-size:6.66667px;font-family:Roboto, sans-serif;fill:#333333" d="M 4.3033876,0.40690124 H 3.6035174 L 5.3483099,-4.7395856 h 0.6998702 z"/>
        <path id="path7021" style="font-weight:bold;font-size:6.66667px;font-family:Roboto, sans-serif;fill:#333333" d="M 8.3235716,-1.6503914 H 6.4908884 v -0.7584639 h 1.8326832 z"/>
        <path id="path7023" style="font-weight:bold;font-size:6.66667px;font-family:Roboto, sans-serif;fill:#333333" d="M 9.1862026,-2.3307303 9.4596402,-4.7395856 H 12.115891 V -3.95508 h -1.884766 l -0.117188,1.0188807 q 0.335287,-0.1790366 0.712891,-0.1790366 0.677084,0 1.061199,0.4199221 0.384115,0.4199221 0.384115,1.1751308 0,0.4589846 -0.195313,0.82356808 -0.192057,0.3613283 -0.553386,0.56315131 -0.361328,0.19856781 -0.852865,0.19856781 -0.429687,0 -0.7975261,-0.17252613 Q 9.5052132,-0.28320326 9.2903693,-0.59895862 9.0787807,-0.91471398 9.0657598,-1.31836 h 0.93099 q 0.029297,0.2962241 0.2050782,0.4622398 0.179037,0.16276049 0.465495,0.16276049 0.319011,0 0.491537,-0.22786469 0.172526,-0.2311199 0.172526,-0.651042 0,-0.403646 -0.198568,-0.6184899 -0.198568,-0.2148438 -0.563151,-0.2148438 -0.335287,0 -0.54362,0.1757813 l -0.091146,0.084636 z"/>
        <path id="path7025" style="font-weight:bold;font-size:6.66667px;font-family:Roboto, sans-serif;fill:#333333" d="m 14.72657,-1.1751308 1.074219,-3.5644548 h 1.08724 L 15.237638,0 h -1.018881 l -1.643881,-4.7395856 h 1.083985 z"/>
      </g>
      <path d="M 0,0 H 2" style="stroke:#333333;stroke-width:1" transform="rotate(22.5,-4.75,23.879863)" id="polyline6968"/>
    </g>
  </g>
  <path d="m 16,279 h 58 c 2.77,0 5,2.23 5,5 v 67 c 0,2.77 -2.23,5 -5,5 H 16 c -2.77,0 -5,-2.23 -5,-5 v -67 c 0,-2.77 2.23,-5 5,-5 z" style="fill:#bbbbbb" id="rect6751"/>
  <g transform="translate(20,315.5)" id="g6759">
    <g style="font-weight:bold;font-size:6.66667px;font-family:Roboto, sans-serif;fill:#333333" id="text6753" aria-label="A">
      <path id="path6995" style="font-weight:bold;font-size:6.66667px;font-family:Roboto, sans-serif;fill:#333333" d="M 3.0989598,-0.97656297 H 1.3867194 L 1.0611984,0 H 0.02278647 L 1.7871102,-4.7395856 H 2.6920586 L 4.466148,0 H 3.427736 Z M 1.6503914,-1.767579 H 2.8352878 L 2.2395844,-3.5416684 Z"/>
    </g>
    <g style="font-weight:normal;font-size:10.6667px;font-family:Roboto, sans-serif;fill:#333333" id="text6755" transform="translate(6,0.5)" aria-label="">
      <path id="path6998" style="font-weight:normal;font-size:10.6667px;font-family:Roboto, sans-serif;fill:#333333" d="M 4.1406381,-3.6458449 0.69791887,-4.8593904 v -0.8906278 l 4.44793073,1.770839 v 0.6822938 l -4.44793073,1.7812556 v -0.9010445 z m 0.9010445,3.64063655 H 0.69271052 V -0.79166917 H 5.0416826 Z"/>
    </g>
    <g style="font-weight:bold;font-size:6.66667px;font-family:Roboto, sans-serif;fill:#333333" id="text6757" transform="translate(13)" aria-label="B">
      <path id="path7001" style="font-weight:bold;font-size:6.66667px;font-family:Roboto, sans-serif;fill:#333333" d="M 0.42317729,0 V -4.7395856 H 2.0833343 q 0.8626306,0 1.3085944,0.3320314 0.4459638,0.3287762 0.4459638,0.9667974 0,0.3483074 -0.1790366,0.6152346 -0.1790365,0.263672 -0.4980471,0.38737 0.3645835,0.091146 0.5729169,0.3678387 0.2115887,0.2766929 0.2115887,0.6770837 0,0.68359404 -0.4361981,1.03515671 Q 3.0729181,-0.00651042 2.2656261,0 Z M 1.3997403,-2.0638031 v 1.27929752 h 0.8365889 q 0.3450522,0 0.5371096,-0.1627605 0.1953126,-0.16601572 0.1953126,-0.45572942 0,-0.6510419 -0.6738284,-0.6608076 z m 0,-0.6901045 h 0.7226565 q 0.7389327,-0.013021 0.7389327,-0.589193 0,-0.3222657 -0.1888022,-0.4622398 -0.1855469,-0.1432292 -0.589193,-0.1432292 h -0.683594 z"/>
    </g>
  </g>
  <g transform="translate(54,315.5)" id="g6767">
    <g style="font-weight:bold;font-size:6.66667px;font-family:Roboto, sans-serif;fill:#333333" id="text6761" aria-label="A">
      <path id="path6986" style="font-weight:bold;font-size:6.66667px;font-family:Roboto, sans-serif;fill:#333333" d="M 3.0989598,-0.97656297 H 1.3867194 L 1.0611984,0 H 0.02278647 L 1.7871102,-4.7395856 H 2.6920586 L 4.466148,0 H 3.427736 Z M 1.6503914,-1.767579 H 2.8352878 L 2.2395844,-3.5416684 Z"/>
    </g>
    <g style="font-weight:normal;font-size:10.6667px;font-family:Roboto, sans-serif;fill:#333333" id="text6763" transform="translate(6,1)" aria-label="&lt;">
      <path id="path6989" style="font-weight:normal;font-size:10.6667px;font-family:Roboto, sans-serif;fill:#333333" d="m 1.3750043,-3.3541773 3.260427,1.3177125 v 1.0208366 L 0.37500118,-2.9895928 v -0.760419 L 4.6354313,-5.7187681 v 1.0208366 z"/>
    </g>
    <g style="font-weight:bold;font-size:6.66667px;font-family:Roboto, sans-serif;fill:#333333" id="text6765" transform="translate(13)" aria-label="B">
      <path id="path6992" style="font-weight:bold;font-size:6.66667px;font-family:Roboto, sans-serif;fill:#333333" d="M 0.42317729,0 V -4.7395856 H 2.0833343 q 0.8626306,0 1.3085944,0.3320314 0.4459638,0.3287762 0.4459638,0.9667974 0,0.3483074 -0.1790366,0.6152346 -0.1790365,0.263672 -0.4980471,0.38737 0.3645835,0.091146 0.5729169,0.3678387 0.2115887,0.2766929 0.2115887,0.6770837 0,0.68359404 -0.4361981,1.03515671 Q 3.0729181,-0.00651042 2.2656261,0 Z M 1.3997403,-2.0638031 v 1.27929752 h 0.8365889 q 0.3450522,0 0.5371096,-0.1627605 0.1953126,-0.16601572 0.1953126,-0.45572942 0,-0.6510419 -0.6738284,-0.6608076 z m 0,-0.6901045 h 0.7226565 q 0.7389327,-0.013021 0.7389327,-0.589193 0,-0.3222657 -0.1888022,-0.4622398 -0.1855469,-0.1432292 -0.589193,-0.1432292 h -0.683594 z"/>
    </g>
  </g>
  <g style="font-weight:bold;font-size:6.66667px;font-family:Roboto, sans-serif;letter-spacing:2px;fill:#333333" id="text6769" aria-label="EQ">
    <path id="path6981" style="font-weight:bold;font-size:6.66667px;font-family:Roboto, sans-serif;letter-spacing:2px;fill:#333333" d="M 26.274741,348.94596 H 24.39974 v 1.26953 h 2.200522 V 351 h -3.177085 v -4.73959 h 3.170575 v 0.79102 H 24.39974 v 1.12956 h 1.875001 z"/>
    <path id="path6983" style="font-weight:bold;font-size:6.66667px;font-family:Roboto, sans-serif;letter-spacing:2px;fill:#333333" d="m 33.0599,348.73763 q 0,0.66406 -0.214844,1.1556 -0.214844,0.48828 -0.595703,0.7845 l 0.78776,0.61849 -0.621745,0.55013 -1.009115,-0.81054 q -0.172526,0.0293 -0.358073,0.0293 -0.589193,0 -1.051433,-0.2832 -0.46224,-0.2832 -0.716146,-0.80729 -0.253906,-0.52735 -0.257161,-1.21094 v -0.23437 q 0,-0.69987 0.250651,-1.23047 0.253906,-0.53386 0.712891,-0.81706 0.462239,-0.28646 1.054688,-0.28646 0.592448,0 1.051432,0.28646 0.46224,0.2832 0.712891,0.81706 0.253907,0.5306 0.253907,1.22721 z m -0.989584,-0.21484 q 0,-0.74545 -0.266927,-1.13282 -0.266927,-0.38737 -0.761719,-0.38737 -0.491537,0 -0.758464,0.38412 -0.266927,0.38086 -0.270183,1.11979 v 0.23112 q 0,0.72591 0.266928,1.1263 0.266927,0.40039 0.768229,0.40039 0.491537,0 0.755209,-0.38411 0.263672,-0.38737 0.266927,-1.1263 z"/>
  </g>
  <g style="font-weight:bold;font-size:6.66667px;font-family:Roboto, sans-serif;letter-spacing:2px;fill:#333333" id="text6771" aria-label="NOT">
    <path id="path6974" style="font-weight:bold;font-size:6.66667px;font-family:Roboto, sans-serif;letter-spacing:2px;fill:#333333" d="M 57.277346,351 H 56.300783 L 54.39974,347.88151 V 351 h -0.976563 v -4.73959 h 0.976563 l 1.904298,3.12501 v -3.12501 h 0.973308 z"/>
    <path id="path6976" style="font-weight:bold;font-size:6.66667px;font-family:Roboto, sans-serif;letter-spacing:2px;fill:#333333" d="m 64.029952,348.73763 q 0,0.69987 -0.247396,1.22721 -0.247396,0.52735 -0.709636,0.81381 -0.458984,0.28645 -1.054688,0.28645 -0.589192,0 -1.051432,-0.2832 -0.46224,-0.2832 -0.716146,-0.80729 -0.253907,-0.52735 -0.257162,-1.21094 v -0.23437 q 0,-0.69987 0.250651,-1.23047 0.253906,-0.53386 0.712891,-0.81706 0.46224,-0.28646 1.054688,-0.28646 0.592448,0 1.051433,0.28646 0.46224,0.2832 0.712891,0.81706 0.253906,0.5306 0.253906,1.22721 z m -0.989584,-0.21484 q 0,-0.74545 -0.266927,-1.13282 -0.266927,-0.38737 -0.761719,-0.38737 -0.491537,0 -0.758464,0.38412 -0.266927,0.38086 -0.270182,1.11979 v 0.23112 q 0,0.72591 0.266927,1.1263 0.266927,0.40039 0.768229,0.40039 0.491537,0 0.755209,-0.38411 0.263672,-0.38737 0.266927,-1.1263 z"/>
    <path id="path6978" style="font-weight:bold;font-size:6.66667px;font-family:Roboto, sans-serif;letter-spacing:2px;fill:#333333" d="M 70.040371,347.05143 H 68.588547 V 351 h -0.976563 v -3.94857 h -1.432292 v -0.79102 h 3.860679 z"/>
  </g>
</svg>
