<?xml version="1.0" encoding="UTF-8" standalone="no"?>
<svg xmlns:dc="http://purl.org/dc/elements/1.1/" xmlns:cc="http://creativecommons.org/ns#" xmlns:rdf="http://www.w3.org/1999/02/22-rdf-syntax-ns#" xmlns:svg="http://www.w3.org/2000/svg" xmlns="http://www.w3.org/2000/svg" xmlns:sodipodi="http://sodipodi.sourceforge.net/DTD/sodipodi-0.dtd" xmlns:inkscape="http://www.inkscape.org/namespaces/inkscape" inkscape:version="1.0 (4035a4f, 2020-05-01)" sodipodi:docname="svg_render_CmpDist-pp.svg" id="svg7571" viewBox="0 0 150 380" height="380" width="150" version="1.1">
  <metadata id="metadata7575">
    <rdf:RDF>
      <cc:Work rdf:about="">
        <dc:format>image/svg+xml</dc:format>
        <dc:type rdf:resource="http://purl.org/dc/dcmitype/StillImage"/>
      </cc:Work>
    </rdf:RDF>
  </metadata>
  <sodipodi:namedview inkscape:current-layer="svg7571" inkscape:window-maximized="0" inkscape:window-y="23" inkscape:window-x="0" inkscape:cy="190" inkscape:cx="75" inkscape:zoom="1.7605263" showgrid="false" id="namedview7573" inkscape:window-height="480" inkscape:window-width="689" inkscape:pageshadow="2" inkscape:pageopacity="0" guidetolerance="10" gridtolerance="10" objecttolerance="10" borderopacity="1" bordercolor="#666666" pagecolor="#ffffff"/>
  
  <defs id="defs7335">
    <symbol viewBox="0 0 45px 45px" id="dial-attenuverter-cmpdist">
      <g id="g7307" transform="translate(22.5 22.5)">
        <text id="text7265" transform="rotate(-240) translate(20 0) rotate(240) translate(-1.2 2.2)" font-size="7pt">-</text>
        <polyline id="polyline7267" transform="rotate(-225) translate(17 0)" stroke="#333" stroke-width="0.3" points="0,0 2.5,0"/>
        <polyline id="polyline7269" transform="rotate(-210) translate(17 0)" stroke="#333" stroke-width="0.3" points="0,0 2.5,0"/>
        <polyline id="polyline7271" transform="rotate(-195) translate(17 0)" stroke="#333" stroke-width="0.3" points="0,0 2.5,0"/>
        <polyline id="polyline7273" transform="rotate(-180) translate(17 0)" stroke="#333" stroke-width="0.3" points="0,0 2.5,0"/>
        <polyline id="polyline7275" transform="rotate(-165) translate(17 0)" stroke="#333" stroke-width="1" points="0,0 3.5,0"/>
        <polyline id="polyline7277" transform="rotate(-150) translate(17 0)" stroke="#333" stroke-width="0.3" points="0,0 2.5,0"/>
        <polyline id="polyline7279" transform="rotate(-135) translate(17 0)" stroke="#333" stroke-width="0.3" points="0,0 2.5,0"/>
        <polyline id="polyline7281" transform="rotate(-120) translate(17 0)" stroke="#333" stroke-width="0.3" points="0,0 2.5,0"/>
        <polyline id="polyline7283" transform="rotate(-105) translate(17 0)" stroke="#333" stroke-width="0.3" points="0,0 2.5,0"/>
        <text id="text7285" transform="rotate(-90) translate(20 0) rotate(90) translate(-1.9 3)" font-size="5pt">0</text>
        <polyline id="polyline7287" transform="rotate(-75) translate(17 0)" stroke="#333" stroke-width="0.3" points="0,0 2.5,0"/>
        <polyline id="polyline7289" transform="rotate(-60) translate(17 0)" stroke="#333" stroke-width="0.3" points="0,0 2.5,0"/>
        <polyline id="polyline7291" transform="rotate(-45) translate(17 0)" stroke="#333" stroke-width="0.3" points="0,0 2.5,0"/>
        <polyline id="polyline7293" transform="rotate(-30) translate(17 0)" stroke="#333" stroke-width="0.3" points="0,0 2.5,0"/>
        <polyline id="polyline7295" transform="rotate(-15) translate(17 0)" stroke="#333" stroke-width="1" points="0,0 3.5,0"/>
        <polyline id="polyline7297" transform="rotate(0) translate(17 0)" stroke="#333" stroke-width="0.3" points="0,0 2.5,0"/>
        <polyline id="polyline7299" transform="rotate(15) translate(17 0)" stroke="#333" stroke-width="0.3" points="0,0 2.5,0"/>
        <polyline id="polyline7301" transform="rotate(30) translate(17 0)" stroke="#333" stroke-width="0.3" points="0,0 2.5,0"/>
        <polyline id="polyline7303" transform="rotate(45) translate(17 0)" stroke="#333" stroke-width="0.3" points="0,0 2.5,0"/>
        <text id="text7305" transform="rotate(60) translate(20 0) rotate(-60) translate(-2 2)" font-size="5pt">+</text>
      </g>
    </symbol>
    <symbol viewBox="0 0 45px 45px" id="dial-drywet-cmpdist">
      <g id="g7332" transform="translate(22.5 22.5)">
        <text id="text7310" transform="rotate(-240) translate(20 0) rotate(240) translate(-2.5 3)" font-size="5pt">D</text>
        <polyline id="polyline7312" transform="rotate(-210) translate(17 0)" stroke="#333" stroke-width="0.3" points="0,0 2.5,0"/>
        <polyline id="polyline7314" transform="rotate(-180) translate(17 0)" stroke="#333" stroke-width="0.3" points="0,0 2.5,0"/>
        <polyline id="polyline7316" transform="rotate(-150) translate(17 0)" stroke="#333" stroke-width="0.3" points="0,0 2.5,0"/>
        <polyline id="polyline7318" transform="rotate(-120) translate(17 0)" stroke="#333" stroke-width="0.3" points="0,0 2.5,0"/>
        <polyline id="polyline7320" transform="rotate(-90) translate(17 0)" stroke="#333" stroke-width="1" points="0,0 4.5,0"/>
        <polyline id="polyline7322" transform="rotate(-60) translate(17 0)" stroke="#333" stroke-width="0.3" points="0,0 2.5,0"/>
        <polyline id="polyline7324" transform="rotate(-30) translate(17 0)" stroke="#333" stroke-width="0.3" points="0,0 2.5,0"/>
        <polyline id="polyline7326" transform="rotate(0) translate(17 0)" stroke="#333" stroke-width="0.3" points="0,0 2.5,0"/>
        <polyline id="polyline7328" transform="rotate(30) translate(17 0)" stroke="#333" stroke-width="0.3" points="0,0 2.5,0"/>
        <text id="text7330" transform="rotate(60) translate(20 0) rotate(-60) translate(-2 3)" font-size="5pt">W</text>
      </g>
    </symbol>
  </defs>
  <path d="M 0,0 H 150 V 380 H 0 Z" style="fill:#dddddd" id="rect7337"/>
  <path d="M 1,1 H 149 V 379 H 1 V 1" style="fill:none;stroke:#e4e4e4;stroke-width:0.5" id="polyline7339"/>
  <path d="m 0.5,0.5 h 149 v 379 H 0.5 V 0.5" style="fill:none;stroke:#ebebeb;stroke-width:0.8" id="polyline7341"/>
  <path d="M 0,0 H 150 V 380 H 0 V 0" style="fill:none;stroke:#f2f2f2;stroke-width:1" id="polyline7343"/>
  <!-- <rect width="30" height="20" fill="#0f0" transform="translate(0 0)" /> -->
  <!-- <rect width="30" height="20" fill="#0f0" transform="translate(120 0)" /> -->
  <g class="title" style="font-weight:normal;font-size:16px;font-family:Comfortaa, sans-serif;letter-spacing:3.5px;fill:#333333" id="text7345" aria-label="CMPDIST">
    <path id="path8245" style="font-weight:normal;font-size:16px;font-family:Comfortaa, sans-serif;letter-spacing:3.5px;fill:#333333" d="m 33.216,19.16 q -1.696,0 -3.12,-0.864 -1.424,-0.864 -2.272,-2.336 -0.832,-1.472 -0.832,-3.216 0,-1.728 0.832,-3.2 0.832,-1.472 2.256,-2.336 1.424,-0.864 3.136,-0.864 1.152,0 2.096,0.336 0.944,0.336 1.824,1.072 0.176,0.128 0.176,0.368 0,0.128 -0.064,0.24 -0.064,0.096 -0.176,0.144 -0.032,0.112 -0.144,0.176 -0.112,0.064 -0.24,0.064 -0.24,0 -0.4,-0.144 -0.624,-0.56 -1.36,-0.816 -0.736,-0.256 -1.712,-0.256 -1.344,0 -2.496,0.72 -1.152,0.704 -1.84,1.904 -0.672,1.2 -0.672,2.592 0,1.424 0.672,2.624 0.672,1.2 1.824,1.904 1.152,0.704 2.512,0.704 1.744,0 3.152,-1.12 0.176,-0.128 0.352,-0.128 0.24,0 0.416,0.176 0.176,0.16 0.176,0.432 0,0.256 -0.176,0.448 -1.504,1.376 -3.92,1.376 z"/>
    <path id="path8247" style="font-weight:normal;font-size:16px;font-family:Comfortaa, sans-serif;letter-spacing:3.5px;fill:#333333" d="m 55.33175,6.504 q 0.256,0 0.432,0.176 0.176,0.176 0.176,0.448 v 11.248 q 0,0.256 -0.176,0.448 -0.176,0.176 -0.432,0.176 -0.272,0 -0.464,-0.176 -0.176,-0.192 -0.176,-0.448 V 9.32 l -4.448,9.088 q -0.192,0.304 -0.544,0.304 -0.4,0 -0.576,-0.384 l -4.432,-8.864 v 8.912 q 0,0.256 -0.176,0.448 -0.176,0.176 -0.448,0.176 -0.256,0 -0.448,-0.176 -0.176,-0.192 -0.176,-0.448 V 7.128 q 0,-0.272 0.176,-0.448 0.192,-0.176 0.448,-0.176 0.368,0 0.56,0.32 l 5.12,10.176 5.024,-10.176 q 0.192,-0.32 0.56,-0.32 z"/>
    <path id="path8249" style="font-weight:normal;font-size:16px;font-family:Comfortaa, sans-serif;letter-spacing:3.5px;fill:#333333" d="m 63.25525,19 q -0.272,0 -0.448,-0.176 -0.176,-0.176 -0.176,-0.448 V 7.128 q 0,-0.272 0.176,-0.448 0.176,-0.176 0.448,-0.176 h 3.2 q 1.168,0 2.08,0.528 0.928,0.512 1.44,1.44 0.512,0.912 0.512,2.096 0,1.168 -0.512,2.08 -0.512,0.912 -1.44,1.424 -0.912,0.512 -2.08,0.512 h -2.576 v 3.792 q 0,0.272 -0.176,0.448 -0.176,0.176 -0.448,0.176 z m 3.2,-5.616 q 0.816,0 1.456,-0.352 0.64,-0.368 0.992,-1.008 0.368,-0.64 0.368,-1.456 0,-0.832 -0.368,-1.472 -0.352,-0.656 -0.992,-1.024 -0.64,-0.368 -1.456,-0.368 h -2.576 v 5.68 z"/>
    <path id="path8251" style="font-weight:normal;font-size:16px;font-family:Comfortaa, sans-serif;letter-spacing:3.5px;fill:#333333" d="m 76.5365,19 q -0.272,0 -0.448,-0.176 -0.176,-0.176 -0.176,-0.448 V 7.128 q 0,-0.272 0.176,-0.448 0.176,-0.176 0.448,-0.176 h 2.88 q 1.808,0 3.232,0.8 1.424,0.8 2.208,2.224 0.8,1.408 0.8,3.216 0,1.808 -0.8,3.232 -0.784,1.424 -2.208,2.224 -1.424,0.8 -3.232,0.8 z m 2.88,-1.12 q 1.456,0 2.592,-0.656 1.136,-0.672 1.776,-1.84 0.64,-1.168 0.64,-2.64 0,-1.472 -0.64,-2.64 -0.64,-1.168 -1.776,-1.824 -1.136,-0.656 -2.592,-0.656 h -2.256 V 17.88 Z"/>
    <path id="path8253" style="font-weight:normal;font-size:16px;font-family:Comfortaa, sans-serif;letter-spacing:3.5px;fill:#333333" d="m 92.349,19 q -0.256,0 -0.448,-0.176 -0.176,-0.192 -0.176,-0.448 V 7.128 q 0,-0.272 0.176,-0.448 0.192,-0.176 0.448,-0.176 0.272,0 0.448,0.176 0.176,0.176 0.176,0.448 v 11.248 q 0,0.256 -0.176,0.448 Q 92.621,19 92.349,19 Z"/>
    <path id="path8255" style="font-weight:normal;font-size:16px;font-family:Comfortaa, sans-serif;letter-spacing:3.5px;fill:#333333" d="m 103.5025,19.16 q -1.52,0 -2.704,-0.64 -1.168,-0.656 -1.68,-1.76 -0.064,-0.112 -0.064,-0.256 0,-0.224 0.16,-0.368 0.176,-0.16 0.464,-0.16 0.192,0 0.352,0.112 0.176,0.096 0.256,0.288 0.368,0.72 1.216,1.168 0.864,0.432 2,0.432 1.312,0 2.112,-0.624 0.8,-0.64 0.8,-1.776 0,-1.008 -0.752,-1.696 -0.736,-0.688 -2.224,-0.88 -1.856,-0.224 -2.928,-1.152 -1.056,-0.944 -1.056,-2.304 0,-0.96 0.512,-1.68 0.528,-0.736 1.44,-1.12 0.928,-0.4 2.096,-0.4 1.264,0 2.224,0.56 0.96,0.56 1.504,1.456 0.112,0.176 0.112,0.384 0,0.304 -0.288,0.48 -0.128,0.064 -0.288,0.064 -0.176,0 -0.336,-0.08 -0.144,-0.096 -0.24,-0.256 -0.896,-1.408 -2.704,-1.424 -1.296,0 -2.048,0.544 -0.752,0.544 -0.752,1.552 0,1.872 3.024,2.272 1.984,0.288 2.96,1.216 0.976,0.928 0.976,2.448 0,1.12 -0.544,1.936 -0.544,0.816 -1.488,1.248 -0.944,0.416 -2.112,0.416 z"/>
    <path id="path8257" style="font-weight:normal;font-size:16px;font-family:Comfortaa, sans-serif;letter-spacing:3.5px;fill:#333333" d="m 121.19525,6.504 q 0.256,0 0.416,0.16 0.16,0.16 0.16,0.416 0,0.24 -0.16,0.4 -0.16,0.16 -0.416,0.16 h -3.808 v 10.736 q 0,0.256 -0.176,0.448 -0.176,0.176 -0.448,0.176 -0.256,0 -0.448,-0.176 -0.176,-0.192 -0.176,-0.448 V 7.64 h -3.792 q -0.256,0 -0.416,-0.16 -0.16,-0.16 -0.16,-0.4 0,-0.256 0.16,-0.416 0.16,-0.16 0.416,-0.16 z"/>
  </g>
  <g class="brand" style="font-weight:bold;font-size:10.6667px;font-family:Audiowide, sans-serif;letter-spacing:2px;fill:#333333" id="text7347" aria-label="BOGAUDIO">
    <path id="path8228" style="font-weight:bold;font-size:10.6667px;font-family:Audiowide, sans-serif;letter-spacing:2px;fill:#333333" d="m 43.739609,372.35937 q 0,0.25 -0.08854,0.53646 -0.08333,0.28646 -0.28125,0.53125 -0.192709,0.24479 -0.50521,0.41146 Q 42.552106,374 42.098979,374 h -5.140641 q -0.145834,0 -0.270834,-0.0521 -0.125001,-0.0521 -0.218751,-0.14063 -0.08854,-0.0937 -0.140625,-0.21875 -0.05208,-0.125 -0.05208,-0.27083 v -6.10419 q 0,-0.14063 0.05208,-0.26563 0.05208,-0.125 0.140625,-0.21875 0.09375,-0.0937 0.218751,-0.14583 0.125,-0.0521 0.270834,-0.0521 h 4.531264 q 0.250001,0 0.53646,0.0885 0.28646,0.0885 0.531252,0.28646 0.250001,0.19271 0.41146,0.50521 0.166667,0.3125 0.166667,0.76562 v 0.25521 q 0,0.35938 -0.119792,0.77605 -0.119792,0.41146 -0.385418,0.78125 0.229167,0.14063 0.427085,0.33854 0.203125,0.19792 0.354167,0.45834 0.151042,0.26042 0.239584,0.58854 0.08854,0.32813 0.08854,0.72396 z m -1.354171,-0.26042 q 0,-0.26562 -0.08333,-0.47396 -0.08333,-0.21354 -0.234376,-0.36458 -0.151042,-0.15104 -0.364584,-0.22917 -0.213543,-0.0833 -0.479169,-0.0833 h -3.052093 v -1.36459 h 2.442716 q 0.265626,0 0.479169,-0.0781 0.213542,-0.0833 0.364584,-0.23437 0.151042,-0.15104 0.229168,-0.35938 0.08333,-0.21354 0.08333,-0.47917 v -0.25521 q 0,-0.29166 -0.281251,-0.29166 h -3.859387 v 4.76043 h 4.468764 q 0.03646,0 0.08854,-0.005 0.05208,-0.005 0.09375,-0.0312 0.04167,-0.026 0.07292,-0.0885 0.03125,-0.0625 0.03125,-0.17188 z"/>
    <path id="path8230" style="font-weight:bold;font-size:10.6667px;font-family:Audiowide, sans-serif;letter-spacing:2px;fill:#333333" d="m 54.750055,370.97916 q 0,0.68229 -0.234376,1.25521 -0.234376,0.57292 -0.651044,0.98959 -0.416668,0.41666 -0.989586,0.65104 -0.56771,0.22917 -1.239587,0.22917 h -1.833339 q -0.671878,0 -1.244796,-0.22917 -0.572918,-0.23438 -0.989586,-0.65104 -0.416668,-0.41667 -0.656253,-0.98959 -0.234375,-0.57292 -0.234375,-1.25521 v -1.42709 q 0,-0.67709 0.234375,-1.25 0.239585,-0.57813 0.656253,-0.98959 0.416668,-0.41667 0.989586,-0.65104 0.572918,-0.23438 1.244796,-0.23438 h 1.833339 q 0.671877,0 1.239587,0.23438 0.572918,0.23437 0.989586,0.65104 0.416668,0.41146 0.651044,0.98959 0.234376,0.57291 0.234376,1.25 z m -1.354171,-1.42709 q 0,-0.40104 -0.130209,-0.72396 -0.125,-0.32813 -0.359376,-0.55729 -0.229167,-0.23438 -0.557293,-0.35938 -0.322918,-0.13021 -0.713544,-0.13021 h -1.833339 q -0.395835,0 -0.723961,0.13021 -0.322918,0.125 -0.557293,0.35938 -0.234376,0.22916 -0.364585,0.55729 -0.125,0.32292 -0.125,0.72396 v 1.42709 q 0,0.40104 0.125,0.72917 0.130209,0.32291 0.364585,0.55729 0.234375,0.22917 0.557293,0.35938 0.328126,0.125 0.723961,0.125 h 1.822922 q 0.395835,0 0.718752,-0.125 0.328126,-0.13021 0.562502,-0.35938 0.234376,-0.23438 0.359376,-0.55729 0.130209,-0.32813 0.130209,-0.72917 z"/>
    <path id="path8232" style="font-weight:bold;font-size:10.6667px;font-family:Audiowide, sans-serif;letter-spacing:2px;fill:#333333" d="m 65.468833,373.31771 q 0,0.14583 -0.05208,0.27083 -0.05208,0.125 -0.145833,0.21875 -0.08854,0.0885 -0.213543,0.14063 Q 64.932373,374 64.786539,374 h -4.885432 q -0.187501,0 -0.406251,-0.0417 -0.213543,-0.0469 -0.427085,-0.14062 -0.208334,-0.0937 -0.401043,-0.23959 -0.192709,-0.15104 -0.343751,-0.35937 -0.145834,-0.21354 -0.234376,-0.48959 -0.08854,-0.28125 -0.08854,-0.63021 v -3.66668 q 0,-0.1875 0.04167,-0.40104 0.04687,-0.21875 0.140626,-0.42708 0.09375,-0.21355 0.244792,-0.40625 0.151042,-0.19271 0.359376,-0.33855 0.213543,-0.15104 0.489585,-0.23958 0.276043,-0.0885 0.625002,-0.0885 h 5.505226 v 1.35417 h -5.505226 q -0.265626,0 -0.406251,0.14062 -0.140626,0.14063 -0.140626,0.41667 v 3.65626 q 0,0.26042 0.140626,0.40625 0.145834,0.14063 0.406251,0.14063 h 4.213555 v -1.69792 h -3.604178 v -1.36459 h 4.276055 q 0.145834,0 0.270834,0.0573 0.125001,0.0521 0.213543,0.14584 0.09375,0.0937 0.145833,0.21875 0.05208,0.11979 0.05208,0.26041 z"/>
    <path id="path8234" style="font-weight:bold;font-size:10.6667px;font-family:Audiowide, sans-serif;letter-spacing:2px;fill:#333333" d="M 76.218861,374 H 74.86469 v -1.83334 H 70.104258 V 374 h -1.354171 v -3.73439 q 0,-0.81771 0.281251,-1.50521 0.281251,-0.6875 0.781253,-1.1823 0.500001,-0.49479 1.182295,-0.77083 0.682294,-0.27604 1.489588,-0.27604 h 3.052093 q 0.140625,0 0.265626,0.0521 0.125,0.0521 0.218751,0.14583 0.09375,0.0937 0.145833,0.21875 0.05208,0.125 0.05208,0.26563 z m -6.114603,-3.18751 h 4.760432 v -2.92709 h -2.380216 q -0.0625,0 -0.265626,0.0208 -0.197917,0.0156 -0.463543,0.0885 -0.260417,0.0729 -0.552085,0.22396 -0.291668,0.15104 -0.53646,0.41667 -0.244792,0.26563 -0.406251,0.66667 -0.156251,0.39583 -0.156251,0.96354 z"/>
    <path id="path8236" style="font-weight:bold;font-size:10.6667px;font-family:Audiowide, sans-serif;letter-spacing:2px;fill:#333333" d="m 87.104307,373.31771 q 0,0.14583 -0.05208,0.27083 -0.05208,0.125 -0.145834,0.21875 -0.09375,0.0885 -0.21875,0.14063 Q 86.562638,374 86.422013,374 H 83.36992 q -0.432293,0 -0.875003,-0.0937 -0.44271,-0.0937 -0.859378,-0.28646 -0.411459,-0.19792 -0.776044,-0.5 -0.364584,-0.30209 -0.640627,-0.71355 -0.270834,-0.41666 -0.427084,-0.94791 -0.156251,-0.53646 -0.156251,-1.19272 v -3.73438 h 1.354171 v 3.73438 q 0,0.57292 0.156251,0.96876 0.161458,0.39583 0.406251,0.66146 0.244792,0.26562 0.53646,0.41666 0.291667,0.15105 0.552085,0.22396 0.265626,0.0729 0.463543,0.0937 0.203126,0.0156 0.265626,0.0156 h 2.380216 v -6.1146 h 1.354171 z"/>
    <path id="path8238" style="font-weight:bold;font-size:10.6667px;font-family:Audiowide, sans-serif;letter-spacing:2px;fill:#333333" d="m 98.135583,370.87499 q 0,0.68229 -0.239585,1.25521 -0.234375,0.57292 -0.651043,0.98959 -0.416668,0.41146 -0.989587,0.64583 Q 95.68245,374 95.010573,374 h -3.656262 q -0.145834,0 -0.270834,-0.0521 -0.125,-0.0521 -0.218751,-0.14063 -0.08854,-0.0937 -0.140625,-0.21875 -0.05208,-0.125 -0.05208,-0.27083 v -6.10419 q 0,-0.14063 0.05208,-0.26563 0.05208,-0.125 0.140625,-0.21875 0.09375,-0.0937 0.218751,-0.14583 0.125,-0.0521 0.270834,-0.0521 h 3.656262 q 0.671877,0 1.244795,0.23437 0.572919,0.23438 0.989587,0.65105 0.416668,0.41146 0.651043,0.98958 0.239585,0.57292 0.239585,1.25001 z m -1.354171,-1.21875 q 0,-0.39584 -0.130209,-0.72396 -0.125001,-0.32813 -0.359376,-0.5573 -0.234376,-0.23437 -0.562502,-0.35937 -0.322918,-0.13021 -0.718752,-0.13021 h -2.984385 v 4.76043 h 2.984385 q 0.395834,0 0.718752,-0.125 0.328126,-0.13021 0.562502,-0.35938 0.234375,-0.23437 0.359376,-0.55729 0.130209,-0.32813 0.130209,-0.72917 z"/>
    <path id="path8240" style="font-weight:bold;font-size:10.6667px;font-family:Audiowide, sans-serif;letter-spacing:2px;fill:#333333" d="m 102.83872,374 h -1.35417 v -7.46877 h 1.35417 z"/>
    <path id="path8242" style="font-weight:bold;font-size:10.6667px;font-family:Audiowide, sans-serif;letter-spacing:2px;fill:#333333" d="m 114.27104,370.97916 q 0,0.68229 -0.23438,1.25521 -0.23437,0.57292 -0.65104,0.98959 -0.41667,0.41666 -0.98959,0.65104 -0.56771,0.22917 -1.23958,0.22917 h -1.83334 q -0.67188,0 -1.2448,-0.22917 -0.57292,-0.23438 -0.98959,-0.65104 -0.41666,-0.41667 -0.65625,-0.98959 -0.23437,-0.57292 -0.23437,-1.25521 v -1.42709 q 0,-0.67709 0.23437,-1.25 0.23959,-0.57813 0.65625,-0.98959 0.41667,-0.41667 0.98959,-0.65104 0.57292,-0.23438 1.2448,-0.23438 h 1.83334 q 0.67187,0 1.23958,0.23438 0.57292,0.23437 0.98959,0.65104 0.41667,0.41146 0.65104,0.98959 0.23438,0.57291 0.23438,1.25 z m -1.35417,-1.42709 q 0,-0.40104 -0.13021,-0.72396 -0.125,-0.32813 -0.35938,-0.55729 -0.22916,-0.23438 -0.55729,-0.35938 -0.32292,-0.13021 -0.71354,-0.13021 h -1.83334 q -0.39584,0 -0.72396,0.13021 -0.32292,0.125 -0.5573,0.35938 -0.23437,0.22916 -0.36458,0.55729 -0.125,0.32292 -0.125,0.72396 v 1.42709 q 0,0.40104 0.125,0.72917 0.13021,0.32291 0.36458,0.55729 0.23438,0.22917 0.5573,0.35938 0.32812,0.125 0.72396,0.125 h 1.82292 q 0.39583,0 0.71875,-0.125 0.32813,-0.13021 0.5625,-0.35938 0.23438,-0.23438 0.35938,-0.55729 0.13021,-0.32813 0.13021,-0.72917 z"/>
  </g>
  <path d="m 59.5,369 h 3 v 3 h -3 z" style="fill:#dddddd" id="rect7349"/>
  <!-- <rect width="150" height="14" fill="#0f0" transform="translate(0 80)" /> -->
  <!-- <rect width="150" height="14" fill="#0f0" transform="translate(0 145)" /> -->
  <!-- <rect width="150" height="14" fill="#0f0" transform="translate(0 211)" /> -->
  <g style="font-weight:bold;font-size:8px;font-family:Roboto, sans-serif;letter-spacing:1px;fill:#333333" id="text7353" aria-label="A SCALE">
    <path id="path8321" style="font-weight:bold;font-size:8px;font-family:Roboto, sans-serif;letter-spacing:1px;fill:#333333" d="M 13.21875,33.828125 H 11.164063 L 10.773438,35 H 9.5273438 l 2.1171872,-5.6875 h 1.085938 L 14.859375,35 h -1.246094 z m -1.738281,-0.949219 h 1.421875 L 12.1875,30.75 Z"/>
    <path id="path8323" style="font-weight:bold;font-size:8px;font-family:Roboto, sans-serif;letter-spacing:1px;fill:#333333" d="m 22.347656,33.507812 q 0,-0.332031 -0.234375,-0.507812 -0.234375,-0.179688 -0.84375,-0.375 -0.609375,-0.199219 -0.964844,-0.390625 -0.96875,-0.523438 -0.96875,-1.410156 0,-0.460938 0.257813,-0.820313 0.261719,-0.363281 0.746094,-0.566406 0.488281,-0.203125 1.09375,-0.203125 0.609375,0 1.085937,0.222656 0.476563,0.21875 0.738281,0.621094 0.265625,0.402344 0.265625,0.914062 h -1.171875 q 0,-0.390625 -0.246093,-0.605468 -0.246094,-0.21875 -0.691407,-0.21875 -0.429687,0 -0.667968,0.183593 -0.238282,0.179688 -0.238282,0.476563 0,0.277344 0.277344,0.464844 0.28125,0.1875 0.824219,0.351562 1,0.300781 1.457031,0.746094 0.457031,0.445312 0.457031,1.109375 0,0.738281 -0.558593,1.160156 -0.558594,0.417969 -1.503907,0.417969 -0.65625,0 -1.195312,-0.238281 -0.539063,-0.242188 -0.824219,-0.660157 -0.28125,-0.417968 -0.28125,-0.96875 h 1.175781 q 0,0.941407 1.125,0.941407 0.417969,0 0.652344,-0.167969 0.234375,-0.171875 0.234375,-0.476563 z"/>
    <path id="path8325" style="font-weight:bold;font-size:8px;font-family:Roboto, sans-serif;letter-spacing:1px;fill:#333333" d="m 29.785156,33.105469 q -0.06641,0.917968 -0.679687,1.445312 -0.609375,0.527344 -1.609375,0.527344 -1.09375,0 -1.722657,-0.734375 -0.625,-0.738281 -0.625,-2.023438 v -0.347656 q 0,-0.820312 0.289063,-1.445312 0.289062,-0.625 0.824219,-0.957032 0.539062,-0.335937 1.25,-0.335937 0.984375,0 1.585937,0.527344 0.601563,0.527343 0.695313,1.480468 h -1.171875 q -0.04297,-0.550781 -0.308594,-0.796875 -0.261719,-0.25 -0.800781,-0.25 -0.585938,0 -0.878907,0.421875 -0.289062,0.417969 -0.296875,1.300782 v 0.429687 q 0,0.921875 0.277344,1.347656 0.28125,0.425782 0.882813,0.425782 0.542968,0 0.808593,-0.246094 0.269532,-0.25 0.308594,-0.769531 z"/>
    <path id="path8327" style="font-weight:bold;font-size:8px;font-family:Roboto, sans-serif;letter-spacing:1px;fill:#333333" d="M 34.765625,33.828125 H 32.710937 L 32.320312,35 h -1.246093 l 2.117187,-5.6875 h 1.085938 L 36.40625,35 h -1.246094 z m -1.738281,-0.949219 h 1.421875 L 33.734375,30.75 Z"/>
    <path id="path8329" style="font-weight:bold;font-size:8px;font-family:Roboto, sans-serif;letter-spacing:1px;fill:#333333" d="m 39.117187,34.058594 h 2.488282 V 35 h -3.660157 v -5.6875 h 1.171875 z"/>
    <path id="path8331" style="font-weight:bold;font-size:8px;font-family:Roboto, sans-serif;letter-spacing:1px;fill:#333333" d="m 46.695312,32.535156 h -2.25 v 1.523438 h 2.640625 V 35 h -3.8125 v -5.6875 h 3.804688 v 0.949219 h -2.632813 v 1.355468 h 2.25 z"/>
  </g>
  <g transform="translate(6,38)" id="g7355"/>
  <g transform="translate(6,38)" id="use7357">
    <g transform="translate(22.5,22.5)" id="g7720">
      <g style="font-weight:bold;font-size:9.33333px;font-family:Roboto, sans-serif;fill:#333333" id="text7678" transform="translate(-11.2,19.520508)" aria-label="-">
        <path id="path8294" style="font-weight:bold;font-size:9.33333px;font-family:Roboto, sans-serif;fill:#333333" d="M 3.0670562,-2.3105461 H 0.50130191 V -3.3723947 H 3.0670562 Z"/>
      </g>
      <path d="M 0,0 H 2.5" style="stroke:#333333;stroke-width:0.3" transform="rotate(135,-8.5,3.5208153)" id="polyline7680"/>
      <path d="M 0,0 H 2.5" style="stroke:#333333;stroke-width:0.3" transform="rotate(150,-8.5,2.2775681)" id="polyline7682"/>
      <path d="M 0,0 H 2.5" style="stroke:#333333;stroke-width:0.3" transform="rotate(165,-8.5,1.1190462)" id="polyline7684"/>
      <path d="M 0,0 H 2.5" style="stroke:#333333;stroke-width:0.3" transform="rotate(180,-8.5,0)" id="polyline7686"/>
      <path d="M 0,0 H 3.5" style="stroke:#333333;stroke-width:1" transform="rotate(-165,-8.5,-1.1190462)" id="polyline7688"/>
      <path d="M 0,0 H 2.5" style="stroke:#333333;stroke-width:0.3" transform="rotate(-150,-8.5,-2.2775681)" id="polyline7690"/>
      <path d="M 0,0 H 2.5" style="stroke:#333333;stroke-width:0.3" transform="rotate(-135,-8.5,-3.5208153)" id="polyline7692"/>
      <path d="M 0,0 H 2.5" style="stroke:#333333;stroke-width:0.3" transform="rotate(-120,-8.5,-4.9074773)" id="polyline7694"/>
      <path d="M 0,0 H 2.5" style="stroke:#333333;stroke-width:0.3" transform="rotate(-105,-8.5,-6.5222794)" id="polyline7696"/>
      <g style="font-weight:bold;font-size:6.66667px;font-family:Roboto, sans-serif;fill:#333333" id="text7698" transform="translate(-1.9,-17)" aria-label="0">
        <path id="path8306" style="font-weight:bold;font-size:6.66667px;font-family:Roboto, sans-serif;fill:#333333" d="m 3.5123715,-1.9596364 q 0,0.98307343 -0.4069013,1.50390702 Q 2.698569,0.0651042 1.9140634,0.0651042 q -0.7747399,0 -1.18489639,-0.51106795 Q 0.31901057,-0.95703171 0.30924494,-1.9108082 v -0.8723963 q 0,-0.992839 0.41015644,-1.5071621 0.41341162,-0.5143232 1.18815162,-0.5143232 0.7747399,0 1.1848964,0.511068 0.4101564,0.5078127 0.4199221,1.4615892 z M 2.5716158,-2.9166681 q 0,-0.5891929 -0.1627605,-0.8561202 Q 2.24935,-4.0429707 1.907553,-4.0429707 q -0.3320314,0 -0.4915367,0.2571616 -0.1562501,0.2539064 -0.1660157,0.7975264 v 1.1523443 q 0,0.5794274 0.1562501,0.86263064 0.1595053,0.27994805 0.5078127,0.27994805 0.3450523,0 0.4980471,-0.27018242 0.1529949,-0.27018237 0.1595053,-0.82682327 z"/>
      </g>
      <path d="M 0,0 H 2.5" style="stroke:#333333;stroke-width:0.3" transform="rotate(-75,-8.5,-11.077416)" id="polyline7700"/>
      <path d="M 0,0 H 2.5" style="stroke:#333333;stroke-width:0.3" transform="rotate(-60,-8.5,-14.722432)" id="polyline7702"/>
      <path d="M 0,0 H 2.5" style="stroke:#333333;stroke-width:0.3" transform="rotate(-45,-8.5,-20.520815)" id="polyline7704"/>
      <path d="M 0,0 H 2.5" style="stroke:#333333;stroke-width:0.3" transform="rotate(-30,-8.5,-31.722432)" id="polyline7706"/>
      <path d="M 0,0 H 3.5" style="stroke:#333333;stroke-width:1" transform="rotate(-15,-8.5,-64.56391)" id="polyline7708"/>
      <path d="M 0,0 H 2.5" style="stroke:#333333;stroke-width:0.3" transform="translate(17)" id="polyline7710"/>
      <path d="M 0,0 H 2.5" style="stroke:#333333;stroke-width:0.3" transform="rotate(15,-8.5,64.56391)" id="polyline7712"/>
      <path d="M 0,0 H 2.5" style="stroke:#333333;stroke-width:0.3" transform="rotate(30,-8.5,31.722432)" id="polyline7714"/>
      <path d="M 0,0 H 2.5" style="stroke:#333333;stroke-width:0.3" transform="rotate(45,-8.5,20.520815)" id="polyline7716"/>
      <g style="font-weight:bold;font-size:6.66667px;font-family:Roboto, sans-serif;fill:#333333" id="text7718" transform="translate(8,19.320508)" aria-label="+">
        <path id="path8318" style="font-weight:bold;font-size:6.66667px;font-family:Roboto, sans-serif;fill:#333333" d="m 2.2591157,-2.6529961 h 1.1751307 v 0.8496098 H 2.2591157 v 1.32812566 H 1.3639329 V -1.8033863 H 0.18554696 V -2.6529961 H 1.3639329 v -1.272787 h 0.8951828 z"/>
      </g>
    </g>
  </g>
  <g style="font-weight:bold;font-size:8px;font-family:Roboto, sans-serif;letter-spacing:1px;fill:#333333" id="text7361" aria-label="WINDOW">
    <path id="path8214" style="font-weight:bold;font-size:8px;font-family:Roboto, sans-serif;letter-spacing:1px;fill:#333333" d="M 61.4375,33.359375 62.203125,29.3125 h 1.167969 L 62.109375,35 H 60.929687 L 60.003906,31.195312 59.078125,35 h -1.179688 l -1.261718,-5.6875 h 1.167968 l 0.769532,4.039062 0.9375,-4.039062 h 0.992187 z"/>
    <path id="path8216" style="font-weight:bold;font-size:8px;font-family:Roboto, sans-serif;letter-spacing:1px;fill:#333333" d="m 66.253906,35 h -1.171875 v -5.6875 h 1.171875 z"/>
    <path id="path8218" style="font-weight:bold;font-size:8px;font-family:Roboto, sans-serif;letter-spacing:1px;fill:#333333" d="m 72.960937,35 h -1.171875 l -2.28125,-3.742188 V 35 h -1.171875 v -5.6875 h 1.171875 l 2.285157,3.75 v -3.75 h 1.167968 z"/>
    <path id="path8220" style="font-weight:bold;font-size:8px;font-family:Roboto, sans-serif;letter-spacing:1px;fill:#333333" d="m 74.992187,35 v -5.6875 h 1.75 q 0.75,0 1.339844,0.339844 0.59375,0.335937 0.925781,0.960937 0.332032,0.621094 0.332032,1.414063 v 0.261718 q 0,0.792969 -0.328125,1.410157 Q 78.6875,34.316406 78.09375,34.65625 77.5,34.996094 76.753906,35 Z m 1.171875,-4.738281 v 3.796875 h 0.566407 q 0.6875,0 1.050781,-0.449219 0.363281,-0.449219 0.371094,-1.285156 v -0.300782 q 0,-0.867187 -0.359375,-1.3125 -0.359375,-0.449218 -1.050782,-0.449218 z"/>
    <path id="path8222" style="font-weight:bold;font-size:8px;font-family:Roboto, sans-serif;letter-spacing:1px;fill:#333333" d="m 85.867187,32.285156 q 0,0.839844 -0.296875,1.472656 -0.296875,0.632813 -0.851562,0.976563 -0.550781,0.34375 -1.265625,0.34375 -0.707031,0 -1.261719,-0.339844 -0.554687,-0.339844 -0.859375,-0.96875 -0.304687,-0.632812 -0.308594,-1.453125 v -0.28125 q 0,-0.839844 0.300782,-1.476562 0.304687,-0.640625 0.855468,-0.980469 0.554688,-0.34375 1.265625,-0.34375 0.710938,0 1.261719,0.34375 0.554688,0.339844 0.855469,0.980469 0.304687,0.636718 0.304687,1.472656 z m -1.1875,-0.257812 q 0,-0.894532 -0.320312,-1.359375 -0.320313,-0.464844 -0.914063,-0.464844 -0.589843,0 -0.910156,0.460937 -0.320312,0.457032 -0.324219,1.34375 v 0.277344 q 0,0.871094 0.320313,1.351563 0.320312,0.480468 0.921875,0.480468 0.589844,0 0.90625,-0.460937 0.316406,-0.464844 0.320312,-1.351563 z"/>
    <path id="path8224" style="font-weight:bold;font-size:8px;font-family:Roboto, sans-serif;letter-spacing:1px;fill:#333333" d="M 92.15625,33.359375 92.921875,29.3125 h 1.167969 L 92.828125,35 H 91.648437 L 90.722656,31.195312 89.796875,35 h -1.179688 l -1.261718,-5.6875 h 1.167968 l 0.769532,4.039062 0.9375,-4.039062 h 0.992187 z"/>
  </g>
  <g transform="translate(52.5,38)" id="g7363"/>
  <g transform="translate(52.5,38)" id="g7391">
    <svg version="1.1" id="svg7389" width="100%" height="100%">
      <g transform="translate(22.5,22.5)" id="g7387">
        <g style="font-weight:bold;font-size:6.66667px;font-family:Roboto, sans-serif;fill:#333333" id="text7365" transform="translate(-11.9,19.520508)" aria-label="0">
          <path id="path8197" style="font-weight:bold;font-size:6.66667px;font-family:Roboto, sans-serif;fill:#333333" d="m 3.5123715,-1.9596364 q 0,0.98307343 -0.4069013,1.50390702 Q 2.698569,0.0651042 1.9140634,0.0651042 q -0.7747399,0 -1.18489639,-0.51106795 Q 0.31901057,-0.95703171 0.30924494,-1.9108082 v -0.8723963 q 0,-0.992839 0.41015644,-1.5071621 0.41341162,-0.5143232 1.18815162,-0.5143232 0.7747399,0 1.1848964,0.511068 0.4101564,0.5078127 0.4199221,1.4615892 z M 2.5716158,-2.9166681 q 0,-0.5891929 -0.1627605,-0.8561202 Q 2.24935,-4.0429707 1.907553,-4.0429707 q -0.3320314,0 -0.4915367,0.2571616 -0.1562501,0.2539064 -0.1660157,0.7975264 v 1.1523443 q 0,0.5794274 0.1562501,0.86263064 0.1595053,0.27994805 0.5078127,0.27994805 0.3450523,0 0.4980471,-0.27018242 0.1529949,-0.27018237 0.1595053,-0.82682327 z"/>
        </g>
        <path d="M 0,0 H 2.5" style="stroke:#333333;stroke-width:0.3" transform="rotate(150,-8.5,2.2775681)" id="polyline7367"/>
        <path d="M 0,0 H 2.5" style="stroke:#333333;stroke-width:0.3" transform="rotate(180,-8.5,0)" id="polyline7369"/>
        <path d="M 0,0 H 2.5" style="stroke:#333333;stroke-width:0.3" transform="rotate(-150,-8.5,-2.2775681)" id="polyline7371"/>
        <path d="M 0,0 H 2.5" style="stroke:#333333;stroke-width:0.3" transform="rotate(-120,-8.5,-4.9074773)" id="polyline7373"/>
        <path d="M 0,0 H 3.5" style="stroke:#333333;stroke-width:1" transform="rotate(-90,-8.5,-8.5)" id="polyline7375"/>
        <path d="M 0,0 H 2.5" style="stroke:#333333;stroke-width:0.3" transform="rotate(-60,-8.5,-14.722432)" id="polyline7377"/>
        <path d="M 0,0 H 2.5" style="stroke:#333333;stroke-width:0.3" transform="rotate(-30,-8.5,-31.722432)" id="polyline7379"/>
        <path d="M 0,0 H 2.5" style="stroke:#333333;stroke-width:0.3" transform="translate(17)" id="polyline7381"/>
        <path d="M 0,0 H 2.5" style="stroke:#333333;stroke-width:0.3" transform="rotate(30,-8.5,31.722432)" id="polyline7383"/>
        <g style="font-weight:bold;font-size:6.66667px;font-family:Roboto, sans-serif;fill:#333333" id="text7385" transform="translate(6,19.520508)" aria-label="10">
          <path id="path8209" style="font-weight:bold;font-size:6.66667px;font-family:Roboto, sans-serif;fill:#333333" d="M 2.6074231,0 H 1.6666675 V -3.6263038 L 0.54362005,-3.2779964 V -4.0429707 L 2.5065116,-4.746096 h 0.1009115 z"/>
          <path id="path8211" style="font-weight:bold;font-size:6.66667px;font-family:Roboto, sans-serif;fill:#333333" d="m 7.3404984,-1.9596364 q 0,0.98307343 -0.4069013,1.50390702 -0.4069012,0.52083358 -1.1914068,0.52083358 -0.7747399,0 -1.1848964,-0.51106795 Q 4.1471375,-0.95703171 4.1373718,-1.9108082 v -0.8723963 q 0,-0.992839 0.4101565,-1.5071621 0.4134116,-0.5143232 1.1881516,-0.5143232 0.77474,0 1.1848964,0.511068 0.4101564,0.5078127 0.4199221,1.4615892 z M 6.3997427,-2.9166681 q 0,-0.5891929 -0.1627605,-0.8561202 -0.1595053,-0.2701824 -0.5013023,-0.2701824 -0.3320314,0 -0.4915367,0.2571616 -0.1562501,0.2539064 -0.1660157,0.7975264 v 1.1523443 q 0,0.5794274 0.1562501,0.86263064 0.1595053,0.27994805 0.5078127,0.27994805 0.3450523,0 0.4980471,-0.27018242 0.1529949,-0.27018237 0.1595053,-0.82682327 z"/>
        </g>
      </g>
    </svg>
  </g>
  <g style="font-weight:bold;font-size:8px;font-family:Roboto, sans-serif;letter-spacing:1px;fill:#333333" id="text7395" aria-label="B SCALE">
    <path id="path8184" style="font-weight:bold;font-size:8px;font-family:Roboto, sans-serif;letter-spacing:1px;fill:#333333" d="M 103.00781,35 V 29.3125 H 105 q 1.03516,0 1.57031,0.398437 0.53516,0.394532 0.53516,1.160157 0,0.417968 -0.21484,0.738281 -0.21485,0.316406 -0.59766,0.464844 0.4375,0.109375 0.6875,0.441406 0.25391,0.332031 0.25391,0.8125 0,0.820312 -0.52344,1.242187 Q 106.1875,34.992187 105.21875,35 Z m 1.17188,-2.476563 v 1.535157 h 1.0039 q 0.41407,0 0.64454,-0.195313 0.23437,-0.199219 0.23437,-0.546875 0,-0.78125 -0.80859,-0.792969 z m 0,-0.828125 h 0.86719 q 0.88671,-0.01563 0.88671,-0.707031 0,-0.386719 -0.22656,-0.554687 Q 105.48438,30.261719 105,30.261719 h -0.82031 z"/>
    <path id="path8186" style="font-weight:bold;font-size:8px;font-family:Roboto, sans-serif;letter-spacing:1px;fill:#333333" d="m 115.06641,33.507812 q 0,-0.332031 -0.23438,-0.507812 -0.23437,-0.179688 -0.84375,-0.375 -0.60937,-0.199219 -0.96484,-0.390625 -0.96875,-0.523438 -0.96875,-1.410156 0,-0.460938 0.25781,-0.820313 0.26172,-0.363281 0.74609,-0.566406 0.48829,-0.203125 1.09375,-0.203125 0.60938,0 1.08594,0.222656 0.47656,0.21875 0.73828,0.621094 0.26563,0.402344 0.26563,0.914062 h -1.17188 q 0,-0.390625 -0.24609,-0.605468 -0.24609,-0.21875 -0.69141,-0.21875 -0.42968,0 -0.66797,0.183593 -0.23828,0.179688 -0.23828,0.476563 0,0.277344 0.27735,0.464844 0.28125,0.1875 0.82422,0.351562 1,0.300781 1.45703,0.746094 0.45703,0.445312 0.45703,1.109375 0,0.738281 -0.5586,1.160156 -0.55859,0.417969 -1.5039,0.417969 -0.65625,0 -1.19531,-0.238281 -0.53907,-0.242188 -0.82422,-0.660157 -0.28125,-0.417968 -0.28125,-0.96875 h 1.17578 q 0,0.941407 1.125,0.941407 0.41797,0 0.65234,-0.167969 0.23438,-0.171875 0.23438,-0.476563 z"/>
    <path id="path8188" style="font-weight:bold;font-size:8px;font-family:Roboto, sans-serif;letter-spacing:1px;fill:#333333" d="m 122.50391,33.105469 q -0.0664,0.917968 -0.67969,1.445312 -0.60938,0.527344 -1.60938,0.527344 -1.09375,0 -1.72265,-0.734375 -0.625,-0.738281 -0.625,-2.023438 v -0.347656 q 0,-0.820312 0.28906,-1.445312 0.28906,-0.625 0.82422,-0.957032 0.53906,-0.335937 1.25,-0.335937 0.98437,0 1.58594,0.527344 0.60156,0.527343 0.69531,1.480468 h -1.17188 q -0.043,-0.550781 -0.30859,-0.796875 -0.26172,-0.25 -0.80078,-0.25 -0.58594,0 -0.87891,0.421875 -0.28906,0.417969 -0.29687,1.300782 v 0.429687 q 0,0.921875 0.27734,1.347656 0.28125,0.425782 0.88281,0.425782 0.54297,0 0.8086,-0.246094 0.26953,-0.25 0.30859,-0.769531 z"/>
    <path id="path8190" style="font-weight:bold;font-size:8px;font-family:Roboto, sans-serif;letter-spacing:1px;fill:#333333" d="m 127.48438,33.828125 h -2.05469 L 125.03906,35 h -1.24609 l 2.11719,-5.6875 h 1.08593 L 129.125,35 h -1.24609 z m -1.73829,-0.949219 h 1.42188 L 126.45313,30.75 Z"/>
    <path id="path8192" style="font-weight:bold;font-size:8px;font-family:Roboto, sans-serif;letter-spacing:1px;fill:#333333" d="m 131.83594,34.058594 h 2.48828 V 35 h -3.66016 v -5.6875 h 1.17188 z"/>
    <path id="path8194" style="font-weight:bold;font-size:8px;font-family:Roboto, sans-serif;letter-spacing:1px;fill:#333333" d="m 139.41406,32.535156 h -2.25 v 1.523438 h 2.64063 V 35 h -3.8125 v -5.6875 h 3.80468 v 0.949219 h -2.63281 v 1.355468 h 2.25 z"/>
  </g>
  <g transform="translate(99,38)" id="g7397"/>
  <g transform="translate(99,38)" id="use7399">
    <g transform="translate(22.5,22.5)" id="g7792">
      <g style="font-weight:bold;font-size:9.33333px;font-family:Roboto, sans-serif;fill:#333333" id="text7750" transform="translate(-11.2,19.520508)" aria-label="-">
        <path id="path8157" style="font-weight:bold;font-size:9.33333px;font-family:Roboto, sans-serif;fill:#333333" d="M 3.0670562,-2.3105461 H 0.50130191 V -3.3723947 H 3.0670562 Z"/>
      </g>
      <path d="M 0,0 H 2.5" style="stroke:#333333;stroke-width:0.3" transform="rotate(135,-8.5,3.5208153)" id="polyline7752"/>
      <path d="M 0,0 H 2.5" style="stroke:#333333;stroke-width:0.3" transform="rotate(150,-8.5,2.2775681)" id="polyline7754"/>
      <path d="M 0,0 H 2.5" style="stroke:#333333;stroke-width:0.3" transform="rotate(165,-8.5,1.1190462)" id="polyline7756"/>
      <path d="M 0,0 H 2.5" style="stroke:#333333;stroke-width:0.3" transform="rotate(180,-8.5,0)" id="polyline7758"/>
      <path d="M 0,0 H 3.5" style="stroke:#333333;stroke-width:1" transform="rotate(-165,-8.5,-1.1190462)" id="polyline7760"/>
      <path d="M 0,0 H 2.5" style="stroke:#333333;stroke-width:0.3" transform="rotate(-150,-8.5,-2.2775681)" id="polyline7762"/>
      <path d="M 0,0 H 2.5" style="stroke:#333333;stroke-width:0.3" transform="rotate(-135,-8.5,-3.5208153)" id="polyline7764"/>
      <path d="M 0,0 H 2.5" style="stroke:#333333;stroke-width:0.3" transform="rotate(-120,-8.5,-4.9074773)" id="polyline7766"/>
      <path d="M 0,0 H 2.5" style="stroke:#333333;stroke-width:0.3" transform="rotate(-105,-8.5,-6.5222794)" id="polyline7768"/>
      <g style="font-weight:bold;font-size:6.66667px;font-family:Roboto, sans-serif;fill:#333333" id="text7770" transform="translate(-1.9,-17)" aria-label="0">
        <path id="path8169" style="font-weight:bold;font-size:6.66667px;font-family:Roboto, sans-serif;fill:#333333" d="m 3.5123715,-1.9596364 q 0,0.98307343 -0.4069013,1.50390702 Q 2.698569,0.0651042 1.9140634,0.0651042 q -0.7747399,0 -1.18489639,-0.51106795 Q 0.31901057,-0.95703171 0.30924494,-1.9108082 v -0.8723963 q 0,-0.992839 0.41015644,-1.5071621 0.41341162,-0.5143232 1.18815162,-0.5143232 0.7747399,0 1.1848964,0.511068 0.4101564,0.5078127 0.4199221,1.4615892 z M 2.5716158,-2.9166681 q 0,-0.5891929 -0.1627605,-0.8561202 Q 2.24935,-4.0429707 1.907553,-4.0429707 q -0.3320314,0 -0.4915367,0.2571616 -0.1562501,0.2539064 -0.1660157,0.7975264 v 1.1523443 q 0,0.5794274 0.1562501,0.86263064 0.1595053,0.27994805 0.5078127,0.27994805 0.3450523,0 0.4980471,-0.27018242 0.1529949,-0.27018237 0.1595053,-0.82682327 z"/>
      </g>
      <path d="M 0,0 H 2.5" style="stroke:#333333;stroke-width:0.3" transform="rotate(-75,-8.5,-11.077416)" id="polyline7772"/>
      <path d="M 0,0 H 2.5" style="stroke:#333333;stroke-width:0.3" transform="rotate(-60,-8.5,-14.722432)" id="polyline7774"/>
      <path d="M 0,0 H 2.5" style="stroke:#333333;stroke-width:0.3" transform="rotate(-45,-8.5,-20.520815)" id="polyline7776"/>
      <path d="M 0,0 H 2.5" style="stroke:#333333;stroke-width:0.3" transform="rotate(-30,-8.5,-31.722432)" id="polyline7778"/>
      <path d="M 0,0 H 3.5" style="stroke:#333333;stroke-width:1" transform="rotate(-15,-8.5,-64.56391)" id="polyline7780"/>
      <path d="M 0,0 H 2.5" style="stroke:#333333;stroke-width:0.3" transform="translate(17)" id="polyline7782"/>
      <path d="M 0,0 H 2.5" style="stroke:#333333;stroke-width:0.3" transform="rotate(15,-8.5,64.56391)" id="polyline7784"/>
      <path d="M 0,0 H 2.5" style="stroke:#333333;stroke-width:0.3" transform="rotate(30,-8.5,31.722432)" id="polyline7786"/>
      <path d="M 0,0 H 2.5" style="stroke:#333333;stroke-width:0.3" transform="rotate(45,-8.5,20.520815)" id="polyline7788"/>
      <g style="font-weight:bold;font-size:6.66667px;font-family:Roboto, sans-serif;fill:#333333" id="text7790" transform="translate(8,19.320508)" aria-label="+">
        <path id="path8181" style="font-weight:bold;font-size:6.66667px;font-family:Roboto, sans-serif;fill:#333333" d="m 2.2591157,-2.6529961 h 1.1751307 v 0.8496098 H 2.2591157 v 1.32812566 H 1.3639329 V -1.8033863 H 0.18554696 V -2.6529961 H 1.3639329 v -1.272787 h 0.8951828 z"/>
      </g>
    </g>
  </g>
  <g style="font-weight:bold;font-size:8px;font-family:Roboto, sans-serif;letter-spacing:1px;fill:#333333" id="text7403" aria-label="GT MIX">
    <path id="path8146" style="font-weight:bold;font-size:8px;font-family:Roboto, sans-serif;letter-spacing:1px;fill:#333333" d="m 17.507812,99.28125 q -0.316406,0.378906 -0.894531,0.589844 -0.578125,0.207036 -1.28125,0.207036 -0.738281,0 -1.296875,-0.320318 -0.554687,-0.324218 -0.859375,-0.9375 Q 12.875,98.207031 12.867188,97.378906 v -0.386719 q 0,-0.851562 0.285156,-1.472656 0.289062,-0.625 0.828125,-0.953125 0.542969,-0.332031 1.269531,-0.332031 1.011719,0 1.582031,0.484375 0.570313,0.480469 0.675781,1.402344 h -1.140625 q -0.07813,-0.488282 -0.347656,-0.714844 -0.265625,-0.226563 -0.734375,-0.226563 -0.597656,0 -0.910156,0.449219 -0.3125,0.449219 -0.316406,1.335938 v 0.363281 q 0,0.894531 0.339844,1.351562 0.339843,0.457032 0.996093,0.457032 0.660156,0 0.941406,-0.28125 V 97.875 h -1.066406 v -0.863281 h 2.238281 z"/>
    <path id="path8148" style="font-weight:bold;font-size:8px;font-family:Roboto, sans-serif;letter-spacing:1px;fill:#333333" d="M 23.742187,95.261719 H 22 V 100 h -1.171875 v -4.738281 h -1.71875 V 94.3125 h 4.632812 z"/>
    <path id="path8150" style="font-weight:bold;font-size:8px;font-family:Roboto, sans-serif;letter-spacing:1px;fill:#333333" d="m 29.710937,94.3125 1.460938,4.125 1.453125,-4.125 h 1.539062 V 100 H 32.988281 V 98.445312 L 33.105469,95.761719 31.570312,100 h -0.804687 l -1.53125,-4.234375 0.117187,2.679687 V 100 h -1.171875 v -5.6875 z"/>
    <path id="path8152" style="font-weight:bold;font-size:8px;font-family:Roboto, sans-serif;letter-spacing:1px;fill:#333333" d="m 37.441406,100 h -1.171875 v -5.6875 h 1.171875 z"/>
    <path id="path8154" style="font-weight:bold;font-size:8px;font-family:Roboto, sans-serif;letter-spacing:1px;fill:#333333" d="M 41.621094,96.273437 42.6875,94.3125 h 1.347656 L 42.378906,97.132812 44.078125,100 H 42.714844 L 41.621094,98.007812 40.527344,100 h -1.363282 l 1.699219,-2.867188 -1.65625,-2.820312 h 1.347656 z"/>
  </g>
  <g transform="translate(6,103)" id="g7405"/>
  <g transform="translate(6,103)" id="use7407">
    <g transform="translate(22.5,22.5)" id="g7838">
      <g style="font-weight:bold;font-size:9.33333px;font-family:Roboto, sans-serif;fill:#333333" id="text7796" transform="translate(-11.2,19.520508)" aria-label="-">
        <path id="path8119" style="font-weight:bold;font-size:9.33333px;font-family:Roboto, sans-serif;fill:#333333" d="M 3.0670562,-2.3105461 H 0.50130191 V -3.3723947 H 3.0670562 Z"/>
      </g>
      <path d="M 0,0 H 2.5" style="stroke:#333333;stroke-width:0.3" transform="rotate(135,-8.5,3.5208153)" id="polyline7798"/>
      <path d="M 0,0 H 2.5" style="stroke:#333333;stroke-width:0.3" transform="rotate(150,-8.5,2.2775681)" id="polyline7800"/>
      <path d="M 0,0 H 2.5" style="stroke:#333333;stroke-width:0.3" transform="rotate(165,-8.5,1.1190462)" id="polyline7802"/>
      <path d="M 0,0 H 2.5" style="stroke:#333333;stroke-width:0.3" transform="rotate(180,-8.5,0)" id="polyline7804"/>
      <path d="M 0,0 H 3.5" style="stroke:#333333;stroke-width:1" transform="rotate(-165,-8.5,-1.1190462)" id="polyline7806"/>
      <path d="M 0,0 H 2.5" style="stroke:#333333;stroke-width:0.3" transform="rotate(-150,-8.5,-2.2775681)" id="polyline7808"/>
      <path d="M 0,0 H 2.5" style="stroke:#333333;stroke-width:0.3" transform="rotate(-135,-8.5,-3.5208153)" id="polyline7810"/>
      <path d="M 0,0 H 2.5" style="stroke:#333333;stroke-width:0.3" transform="rotate(-120,-8.5,-4.9074773)" id="polyline7812"/>
      <path d="M 0,0 H 2.5" style="stroke:#333333;stroke-width:0.3" transform="rotate(-105,-8.5,-6.5222794)" id="polyline7814"/>
      <g style="font-weight:bold;font-size:6.66667px;font-family:Roboto, sans-serif;fill:#333333" id="text7816" transform="translate(-1.9,-17)" aria-label="0">
        <path id="path8131" style="font-weight:bold;font-size:6.66667px;font-family:Roboto, sans-serif;fill:#333333" d="m 3.5123715,-1.9596364 q 0,0.98307343 -0.4069013,1.50390702 Q 2.698569,0.0651042 1.9140634,0.0651042 q -0.7747399,0 -1.18489639,-0.51106795 Q 0.31901057,-0.95703171 0.30924494,-1.9108082 v -0.8723963 q 0,-0.992839 0.41015644,-1.5071621 0.41341162,-0.5143232 1.18815162,-0.5143232 0.7747399,0 1.1848964,0.511068 0.4101564,0.5078127 0.4199221,1.4615892 z M 2.5716158,-2.9166681 q 0,-0.5891929 -0.1627605,-0.8561202 Q 2.24935,-4.0429707 1.907553,-4.0429707 q -0.3320314,0 -0.4915367,0.2571616 -0.1562501,0.2539064 -0.1660157,0.7975264 v 1.1523443 q 0,0.5794274 0.1562501,0.86263064 0.1595053,0.27994805 0.5078127,0.27994805 0.3450523,0 0.4980471,-0.27018242 0.1529949,-0.27018237 0.1595053,-0.82682327 z"/>
      </g>
      <path d="M 0,0 H 2.5" style="stroke:#333333;stroke-width:0.3" transform="rotate(-75,-8.5,-11.077416)" id="polyline7818"/>
      <path d="M 0,0 H 2.5" style="stroke:#333333;stroke-width:0.3" transform="rotate(-60,-8.5,-14.722432)" id="polyline7820"/>
      <path d="M 0,0 H 2.5" style="stroke:#333333;stroke-width:0.3" transform="rotate(-45,-8.5,-20.520815)" id="polyline7822"/>
      <path d="M 0,0 H 2.5" style="stroke:#333333;stroke-width:0.3" transform="rotate(-30,-8.5,-31.722432)" id="polyline7824"/>
      <path d="M 0,0 H 3.5" style="stroke:#333333;stroke-width:1" transform="rotate(-15,-8.5,-64.56391)" id="polyline7826"/>
      <path d="M 0,0 H 2.5" style="stroke:#333333;stroke-width:0.3" transform="translate(17)" id="polyline7828"/>
      <path d="M 0,0 H 2.5" style="stroke:#333333;stroke-width:0.3" transform="rotate(15,-8.5,64.56391)" id="polyline7830"/>
      <path d="M 0,0 H 2.5" style="stroke:#333333;stroke-width:0.3" transform="rotate(30,-8.5,31.722432)" id="polyline7832"/>
      <path d="M 0,0 H 2.5" style="stroke:#333333;stroke-width:0.3" transform="rotate(45,-8.5,20.520815)" id="polyline7834"/>
      <g style="font-weight:bold;font-size:6.66667px;font-family:Roboto, sans-serif;fill:#333333" id="text7836" transform="translate(8,19.320508)" aria-label="+">
        <path id="path8143" style="font-weight:bold;font-size:6.66667px;font-family:Roboto, sans-serif;fill:#333333" d="m 2.2591157,-2.6529961 h 1.1751307 v 0.8496098 H 2.2591157 v 1.32812566 H 1.3639329 V -1.8033863 H 0.18554696 V -2.6529961 H 1.3639329 v -1.272787 h 0.8951828 z"/>
      </g>
    </g>
  </g>
  <g style="font-weight:bold;font-size:8px;font-family:Roboto, sans-serif;letter-spacing:1px;fill:#333333" id="text7411" aria-label="EQ MIX">
    <path id="path8108" style="font-weight:bold;font-size:8px;font-family:Roboto, sans-serif;letter-spacing:1px;fill:#333333" d="m 62.929687,97.535156 h -2.25 v 1.523438 h 2.640625 V 100 h -3.8125 V 94.3125 H 63.3125 v 0.949219 h -2.632813 v 1.355468 h 2.25 z"/>
    <path id="path8110" style="font-weight:bold;font-size:8px;font-family:Roboto, sans-serif;letter-spacing:1px;fill:#333333" d="m 69.671875,97.285156 q 0,0.796875 -0.257813,1.386719 -0.257812,0.585937 -0.714843,0.941406 l 0.945312,0.742189 -0.746094,0.66016 -1.210937,-0.97266 q -0.207031,0.0352 -0.429688,0.0352 -0.707031,0 -1.261718,-0.339849 -0.554688,-0.339844 -0.859375,-0.96875 -0.304688,-0.632812 -0.308594,-1.453125 v -0.28125 q 0,-0.839844 0.300781,-1.476562 0.304688,-0.640625 0.855469,-0.980469 0.554687,-0.34375 1.265625,-0.34375 0.710937,0 1.261719,0.34375 0.554687,0.339844 0.855468,0.980469 0.304688,0.636718 0.304688,1.472656 z m -1.1875,-0.257812 q 0,-0.894532 -0.320313,-1.359375 Q 67.84375,95.203125 67.25,95.203125 q -0.589844,0 -0.910156,0.460937 -0.320313,0.457032 -0.324219,1.34375 v 0.277344 q 0,0.871094 0.320312,1.351563 0.320313,0.480468 0.921875,0.480468 0.589844,0 0.90625,-0.460937 0.316407,-0.464844 0.320313,-1.351563 z"/>
    <path id="path8112" style="font-weight:bold;font-size:8px;font-family:Roboto, sans-serif;letter-spacing:1px;fill:#333333" d="m 76.070312,94.3125 1.460938,4.125 1.453125,-4.125 h 1.539062 V 100 H 79.347656 V 98.445312 L 79.464844,95.761719 77.929687,100 H 77.125 l -1.53125,-4.234375 0.117187,2.679687 V 100 h -1.171875 v -5.6875 z"/>
    <path id="path8114" style="font-weight:bold;font-size:8px;font-family:Roboto, sans-serif;letter-spacing:1px;fill:#333333" d="m 83.800781,100 h -1.171875 v -5.6875 h 1.171875 z"/>
    <path id="path8116" style="font-weight:bold;font-size:8px;font-family:Roboto, sans-serif;letter-spacing:1px;fill:#333333" d="M 87.980469,96.273437 89.046875,94.3125 h 1.347656 L 88.738281,97.132812 90.4375,100 H 89.074219 L 87.980469,98.007812 86.886719,100 h -1.363282 l 1.699219,-2.867188 -1.65625,-2.820312 h 1.347656 z"/>
  </g>
  <g transform="translate(52.5,103)" id="g7413"/>
  <g transform="translate(52.5,103)" id="use7415">
    <g transform="translate(22.5,22.5)" id="g7884">
      <g style="font-weight:bold;font-size:9.33333px;font-family:Roboto, sans-serif;fill:#333333" id="text7842" transform="translate(-11.2,19.520508)" aria-label="-">
        <path id="path8081" style="font-weight:bold;font-size:9.33333px;font-family:Roboto, sans-serif;fill:#333333" d="M 3.0670562,-2.3105461 H 0.50130191 V -3.3723947 H 3.0670562 Z"/>
      </g>
      <path d="M 0,0 H 2.5" style="stroke:#333333;stroke-width:0.3" transform="rotate(135,-8.5,3.5208153)" id="polyline7844"/>
      <path d="M 0,0 H 2.5" style="stroke:#333333;stroke-width:0.3" transform="rotate(150,-8.5,2.2775681)" id="polyline7846"/>
      <path d="M 0,0 H 2.5" style="stroke:#333333;stroke-width:0.3" transform="rotate(165,-8.5,1.1190462)" id="polyline7848"/>
      <path d="M 0,0 H 2.5" style="stroke:#333333;stroke-width:0.3" transform="rotate(180,-8.5,0)" id="polyline7850"/>
      <path d="M 0,0 H 3.5" style="stroke:#333333;stroke-width:1" transform="rotate(-165,-8.5,-1.1190462)" id="polyline7852"/>
      <path d="M 0,0 H 2.5" style="stroke:#333333;stroke-width:0.3" transform="rotate(-150,-8.5,-2.2775681)" id="polyline7854"/>
      <path d="M 0,0 H 2.5" style="stroke:#333333;stroke-width:0.3" transform="rotate(-135,-8.5,-3.5208153)" id="polyline7856"/>
      <path d="M 0,0 H 2.5" style="stroke:#333333;stroke-width:0.3" transform="rotate(-120,-8.5,-4.9074773)" id="polyline7858"/>
      <path d="M 0,0 H 2.5" style="stroke:#333333;stroke-width:0.3" transform="rotate(-105,-8.5,-6.5222794)" id="polyline7860"/>
      <g style="font-weight:bold;font-size:6.66667px;font-family:Roboto, sans-serif;fill:#333333" id="text7862" transform="translate(-1.9,-17)" aria-label="0">
        <path id="path8093" style="font-weight:bold;font-size:6.66667px;font-family:Roboto, sans-serif;fill:#333333" d="m 3.5123715,-1.9596364 q 0,0.98307343 -0.4069013,1.50390702 Q 2.698569,0.0651042 1.9140634,0.0651042 q -0.7747399,0 -1.18489639,-0.51106795 Q 0.31901057,-0.95703171 0.30924494,-1.9108082 v -0.8723963 q 0,-0.992839 0.41015644,-1.5071621 0.41341162,-0.5143232 1.18815162,-0.5143232 0.7747399,0 1.1848964,0.511068 0.4101564,0.5078127 0.4199221,1.4615892 z M 2.5716158,-2.9166681 q 0,-0.5891929 -0.1627605,-0.8561202 Q 2.24935,-4.0429707 1.907553,-4.0429707 q -0.3320314,0 -0.4915367,0.2571616 -0.1562501,0.2539064 -0.1660157,0.7975264 v 1.1523443 q 0,0.5794274 0.1562501,0.86263064 0.1595053,0.27994805 0.5078127,0.27994805 0.3450523,0 0.4980471,-0.27018242 0.1529949,-0.27018237 0.1595053,-0.82682327 z"/>
      </g>
      <path d="M 0,0 H 2.5" style="stroke:#333333;stroke-width:0.3" transform="rotate(-75,-8.5,-11.077416)" id="polyline7864"/>
      <path d="M 0,0 H 2.5" style="stroke:#333333;stroke-width:0.3" transform="rotate(-60,-8.5,-14.722432)" id="polyline7866"/>
      <path d="M 0,0 H 2.5" style="stroke:#333333;stroke-width:0.3" transform="rotate(-45,-8.5,-20.520815)" id="polyline7868"/>
      <path d="M 0,0 H 2.5" style="stroke:#333333;stroke-width:0.3" transform="rotate(-30,-8.5,-31.722432)" id="polyline7870"/>
      <path d="M 0,0 H 3.5" style="stroke:#333333;stroke-width:1" transform="rotate(-15,-8.5,-64.56391)" id="polyline7872"/>
      <path d="M 0,0 H 2.5" style="stroke:#333333;stroke-width:0.3" transform="translate(17)" id="polyline7874"/>
      <path d="M 0,0 H 2.5" style="stroke:#333333;stroke-width:0.3" transform="rotate(15,-8.5,64.56391)" id="polyline7876"/>
      <path d="M 0,0 H 2.5" style="stroke:#333333;stroke-width:0.3" transform="rotate(30,-8.5,31.722432)" id="polyline7878"/>
      <path d="M 0,0 H 2.5" style="stroke:#333333;stroke-width:0.3" transform="rotate(45,-8.5,20.520815)" id="polyline7880"/>
      <g style="font-weight:bold;font-size:6.66667px;font-family:Roboto, sans-serif;fill:#333333" id="text7882" transform="translate(8,19.320508)" aria-label="+">
        <path id="path8105" style="font-weight:bold;font-size:6.66667px;font-family:Roboto, sans-serif;fill:#333333" d="m 2.2591157,-2.6529961 h 1.1751307 v 0.8496098 H 2.2591157 v 1.32812566 H 1.3639329 V -1.8033863 H 0.18554696 V -2.6529961 H 1.3639329 v -1.272787 h 0.8951828 z"/>
      </g>
    </g>
  </g>
  <g style="font-weight:bold;font-size:8px;font-family:Roboto, sans-serif;letter-spacing:1px;fill:#333333" id="text7419" aria-label="LT MIX">
    <path id="path8070" style="font-weight:bold;font-size:8px;font-family:Roboto, sans-serif;letter-spacing:1px;fill:#333333" d="m 107.67969,99.058594 h 2.48828 V 100 h -3.66016 v -5.6875 h 1.17188 z"/>
    <path id="path8072" style="font-weight:bold;font-size:8px;font-family:Roboto, sans-serif;letter-spacing:1px;fill:#333333" d="m 115.32031,95.261719 h -1.74218 V 100 h -1.17188 V 95.261719 H 110.6875 V 94.3125 h 4.63281 z"/>
    <path id="path8074" style="font-weight:bold;font-size:8px;font-family:Roboto, sans-serif;letter-spacing:1px;fill:#333333" d="m 121.28906,94.3125 1.46094,4.125 1.45313,-4.125 h 1.53906 V 100 h -1.17578 V 98.445312 L 124.68359,95.761719 123.14844,100 h -0.80469 l -1.53125,-4.234375 0.11719,2.679687 V 100 h -1.17188 v -5.6875 z"/>
    <path id="path8076" style="font-weight:bold;font-size:8px;font-family:Roboto, sans-serif;letter-spacing:1px;fill:#333333" d="m 129.01953,100 h -1.17187 v -5.6875 h 1.17187 z"/>
    <path id="path8078" style="font-weight:bold;font-size:8px;font-family:Roboto, sans-serif;letter-spacing:1px;fill:#333333" d="m 133.19922,96.273437 1.0664,-1.960937 h 1.34766 L 133.95703,97.132812 135.65625,100 h -1.36328 L 133.19922,98.007812 132.10547,100 h -1.36328 l 1.69922,-2.867188 -1.65625,-2.820312 h 1.34765 z"/>
  </g>
  <g transform="translate(99,103)" id="g7421"/>
  <g transform="translate(99,103)" id="use7423">
    <g transform="translate(22.5,22.5)" id="g7930">
      <g style="font-weight:bold;font-size:9.33333px;font-family:Roboto, sans-serif;fill:#333333" id="text7888" transform="translate(-11.2,19.520508)" aria-label="-">
        <path id="path8043" style="font-weight:bold;font-size:9.33333px;font-family:Roboto, sans-serif;fill:#333333" d="M 3.0670562,-2.3105461 H 0.50130191 V -3.3723947 H 3.0670562 Z"/>
      </g>
      <path d="M 0,0 H 2.5" style="stroke:#333333;stroke-width:0.3" transform="rotate(135,-8.5,3.5208153)" id="polyline7890"/>
      <path d="M 0,0 H 2.5" style="stroke:#333333;stroke-width:0.3" transform="rotate(150,-8.5,2.2775681)" id="polyline7892"/>
      <path d="M 0,0 H 2.5" style="stroke:#333333;stroke-width:0.3" transform="rotate(165,-8.5,1.1190462)" id="polyline7894"/>
      <path d="M 0,0 H 2.5" style="stroke:#333333;stroke-width:0.3" transform="rotate(180,-8.5,0)" id="polyline7896"/>
      <path d="M 0,0 H 3.5" style="stroke:#333333;stroke-width:1" transform="rotate(-165,-8.5,-1.1190462)" id="polyline7898"/>
      <path d="M 0,0 H 2.5" style="stroke:#333333;stroke-width:0.3" transform="rotate(-150,-8.5,-2.2775681)" id="polyline7900"/>
      <path d="M 0,0 H 2.5" style="stroke:#333333;stroke-width:0.3" transform="rotate(-135,-8.5,-3.5208153)" id="polyline7902"/>
      <path d="M 0,0 H 2.5" style="stroke:#333333;stroke-width:0.3" transform="rotate(-120,-8.5,-4.9074773)" id="polyline7904"/>
      <path d="M 0,0 H 2.5" style="stroke:#333333;stroke-width:0.3" transform="rotate(-105,-8.5,-6.5222794)" id="polyline7906"/>
      <g style="font-weight:bold;font-size:6.66667px;font-family:Roboto, sans-serif;fill:#333333" id="text7908" transform="translate(-1.9,-17)" aria-label="0">
        <path id="path8055" style="font-weight:bold;font-size:6.66667px;font-family:Roboto, sans-serif;fill:#333333" d="m 3.5123715,-1.9596364 q 0,0.98307343 -0.4069013,1.50390702 Q 2.698569,0.0651042 1.9140634,0.0651042 q -0.7747399,0 -1.18489639,-0.51106795 Q 0.31901057,-0.95703171 0.30924494,-1.9108082 v -0.8723963 q 0,-0.992839 0.41015644,-1.5071621 0.41341162,-0.5143232 1.18815162,-0.5143232 0.7747399,0 1.1848964,0.511068 0.4101564,0.5078127 0.4199221,1.4615892 z M 2.5716158,-2.9166681 q 0,-0.5891929 -0.1627605,-0.8561202 Q 2.24935,-4.0429707 1.907553,-4.0429707 q -0.3320314,0 -0.4915367,0.2571616 -0.1562501,0.2539064 -0.1660157,0.7975264 v 1.1523443 q 0,0.5794274 0.1562501,0.86263064 0.1595053,0.27994805 0.5078127,0.27994805 0.3450523,0 0.4980471,-0.27018242 0.1529949,-0.27018237 0.1595053,-0.82682327 z"/>
      </g>
      <path d="M 0,0 H 2.5" style="stroke:#333333;stroke-width:0.3" transform="rotate(-75,-8.5,-11.077416)" id="polyline7910"/>
      <path d="M 0,0 H 2.5" style="stroke:#333333;stroke-width:0.3" transform="rotate(-60,-8.5,-14.722432)" id="polyline7912"/>
      <path d="M 0,0 H 2.5" style="stroke:#333333;stroke-width:0.3" transform="rotate(-45,-8.5,-20.520815)" id="polyline7914"/>
      <path d="M 0,0 H 2.5" style="stroke:#333333;stroke-width:0.3" transform="rotate(-30,-8.5,-31.722432)" id="polyline7916"/>
      <path d="M 0,0 H 3.5" style="stroke:#333333;stroke-width:1" transform="rotate(-15,-8.5,-64.56391)" id="polyline7918"/>
      <path d="M 0,0 H 2.5" style="stroke:#333333;stroke-width:0.3" transform="translate(17)" id="polyline7920"/>
      <path d="M 0,0 H 2.5" style="stroke:#333333;stroke-width:0.3" transform="rotate(15,-8.5,64.56391)" id="polyline7922"/>
      <path d="M 0,0 H 2.5" style="stroke:#333333;stroke-width:0.3" transform="rotate(30,-8.5,31.722432)" id="polyline7924"/>
      <path d="M 0,0 H 2.5" style="stroke:#333333;stroke-width:0.3" transform="rotate(45,-8.5,20.520815)" id="polyline7926"/>
      <g style="font-weight:bold;font-size:6.66667px;font-family:Roboto, sans-serif;fill:#333333" id="text7928" transform="translate(8,19.320508)" aria-label="+">
        <path id="path8067" style="font-weight:bold;font-size:6.66667px;font-family:Roboto, sans-serif;fill:#333333" d="m 2.2591157,-2.6529961 h 1.1751307 v 0.8496098 H 2.2591157 v 1.32812566 H 1.3639329 V -1.8033863 H 0.18554696 V -2.6529961 H 1.3639329 v -1.272787 h 0.8951828 z"/>
      </g>
    </g>
  </g>
  <!-- <polyline points="0,0 0,350" stroke="#0f0" stroke-width="1" fill="none" transform="translate(28.5 0)" /> -->
  <!-- <polyline points="0,0 0,350" stroke="#0f0" stroke-width="1" fill="none" transform="translate(121.5 0)" /> -->
  <!-- <polyline points="0,0 150,0" stroke="#0f0" stroke-width="1" fill="none" transform="translate(0 190.5)" /> -->
  <g style="font-weight:bold;font-size:8px;font-family:Roboto, sans-serif;letter-spacing:1px;fill:#333333" id="text7427" aria-label="DRY/WET">
    <path id="path8279" style="font-weight:bold;font-size:8px;font-family:Roboto, sans-serif;letter-spacing:1px;fill:#333333" d="m 55.507812,165 v -5.6875 h 1.75 q 0.75,0 1.339844,0.33984 0.59375,0.33594 0.925781,0.96094 0.332032,0.62109 0.332032,1.41406 v 0.26172 q 0,0.79297 -0.328125,1.41016 -0.324219,0.61719 -0.917969,0.95703 -0.59375,0.33984 -1.339844,0.34375 z m 1.171875,-4.73828 v 3.79687 h 0.566407 q 0.6875,0 1.050781,-0.44922 0.363281,-0.44921 0.371094,-1.28515 v -0.30078 q 0,-0.86719 -0.359375,-1.3125 -0.359375,-0.44922 -1.050782,-0.44922 z"/>
    <path id="path8281" style="font-weight:bold;font-size:8px;font-family:Roboto, sans-serif;letter-spacing:1px;fill:#333333" d="M 63.816406,162.91797 H 62.882812 V 165 h -1.171875 v -5.6875 h 2.113282 q 1.007812,0 1.554687,0.44922 0.546875,0.44922 0.546875,1.26953 0,0.58203 -0.253906,0.97266 -0.25,0.38671 -0.761719,0.61718 l 1.230469,2.32422 V 165 h -1.257813 z m -0.933594,-0.94922 h 0.945313 q 0.441406,0 0.683594,-0.22266 0.242187,-0.22656 0.242187,-0.62109 0,-0.40234 -0.230469,-0.63281 -0.226562,-0.23047 -0.699218,-0.23047 h -0.941407 z"/>
    <path id="path8283" style="font-weight:bold;font-size:8px;font-family:Roboto, sans-serif;letter-spacing:1px;fill:#333333" d="m 69.59375,161.875 1.183594,-2.5625 h 1.28125 l -1.867188,3.625 V 165 H 69 v -2.0625 l -1.867188,-3.625 h 1.285157 z"/>
    <path id="path8285" style="font-weight:bold;font-size:8px;font-family:Roboto, sans-serif;letter-spacing:1px;fill:#333333" d="m 73.867187,165.48828 h -0.839843 l 2.09375,-6.17578 h 0.839843 z"/>
    <path id="path8287" style="font-weight:bold;font-size:8px;font-family:Roboto, sans-serif;letter-spacing:1px;fill:#333333" d="m 82,163.35937 0.765625,-4.04687 h 1.167969 L 82.671875,165 H 81.492187 L 80.566406,161.19531 79.640625,165 h -1.179688 l -1.261718,-5.6875 h 1.167968 l 0.769532,4.03906 0.9375,-4.03906 h 0.992187 z"/>
    <path id="path8289" style="font-weight:bold;font-size:8px;font-family:Roboto, sans-serif;letter-spacing:1px;fill:#333333" d="m 88.992187,162.53516 h -2.25 v 1.52343 h 2.640625 V 165 h -3.8125 v -5.6875 H 89.375 v 0.94922 h -2.632813 v 1.35547 h 2.25 z"/>
    <path id="path8291" style="font-weight:bold;font-size:8px;font-family:Roboto, sans-serif;letter-spacing:1px;fill:#333333" d="M 95.429687,160.26172 H 93.6875 V 165 h -1.171875 v -4.73828 h -1.71875 v -0.94922 h 4.632812 z"/>
  </g>
  <g transform="translate(52.5,168)" id="g7429"/>
  <g transform="translate(52.5,168)" id="use7431">
    <g transform="translate(22.5,22.5)" id="g7746">
      <g style="font-weight:bold;font-size:6.66667px;font-family:Roboto, sans-serif;fill:#333333" id="text7724" transform="translate(-12.5,20.320508)" aria-label="D">
        <path id="path8264" style="font-weight:bold;font-size:6.66667px;font-family:Roboto, sans-serif;fill:#333333" d="M 0.42317729,0 V -4.7395856 H 1.8815113 q 0.6250003,0 1.116537,0.2832033 0.4947919,0.279948 0.7714847,0.8007816 0.2766929,0.5175784 0.2766929,1.178386 v 0.218099 q 0,0.6608076 -0.2734376,1.1751308 Q 3.5026058,-0.56966173 3.0078139,-0.28645847 2.513022,-0.00325521 1.8912769,0 Z M 1.3997403,-3.9485696 v 3.16406402 h 0.4720054 q 0.5729169,0 0.8756514,-0.37434912 0.3027346,-0.3743492 0.309245,-1.0709641 v -0.2506511 q 0,-0.7226566 -0.2994793,-1.0937506 -0.2994793,-0.3743491 -0.8756515,-0.3743491 z"/>
      </g>
      <path d="M 0,0 H 2.5" style="stroke:#333333;stroke-width:0.3" transform="rotate(150,-8.5,2.2775681)" id="polyline7726"/>
      <path d="M 0,0 H 2.5" style="stroke:#333333;stroke-width:0.3" transform="rotate(180,-8.5,0)" id="polyline7728"/>
      <path d="M 0,0 H 2.5" style="stroke:#333333;stroke-width:0.3" transform="rotate(-150,-8.5,-2.2775681)" id="polyline7730"/>
      <path d="M 0,0 H 2.5" style="stroke:#333333;stroke-width:0.3" transform="rotate(-120,-8.5,-4.9074773)" id="polyline7732"/>
      <path d="M 0,0 H 4.5" style="stroke:#333333;stroke-width:1" transform="rotate(-90,-8.5,-8.5)" id="polyline7734"/>
      <path d="M 0,0 H 2.5" style="stroke:#333333;stroke-width:0.3" transform="rotate(-60,-8.5,-14.722432)" id="polyline7736"/>
      <path d="M 0,0 H 2.5" style="stroke:#333333;stroke-width:0.3" transform="rotate(-30,-8.5,-31.722432)" id="polyline7738"/>
      <path d="M 0,0 H 2.5" style="stroke:#333333;stroke-width:0.3" transform="translate(17)" id="polyline7740"/>
      <path d="M 0,0 H 2.5" style="stroke:#333333;stroke-width:0.3" transform="rotate(30,-8.5,31.722432)" id="polyline7742"/>
      <g style="font-weight:bold;font-size:6.66667px;font-family:Roboto, sans-serif;fill:#333333" id="text7744" transform="translate(8,20.320508)" aria-label="W">
        <path id="path8276" style="font-weight:bold;font-size:6.66667px;font-family:Roboto, sans-serif;fill:#333333" d="M 4.1145853,-1.3671882 4.7526064,-4.7395856 H 5.7259142 L 4.6744814,0 H 3.691408 L 2.9199233,-3.1705744 2.1484385,0 H 1.1653651 L 0.11393235,-4.7395856 H 1.0872401 l 0.6412763,3.365887 0.7812504,-3.365887 h 0.8268233 z"/>
      </g>
    </g>
  </g>
  <g style="font-weight:bold;font-size:8px;font-family:Roboto, sans-serif;letter-spacing:1px;fill:#333333" id="text7435" aria-label="A DRY">
    <path id="path8034" style="font-weight:bold;font-size:8px;font-family:Roboto, sans-serif;letter-spacing:1px;fill:#333333" d="M 18.21875,172.32812 H 16.164062 L 15.773438,173.5 h -1.246094 l 2.117187,-5.6875 h 1.085938 l 2.128906,5.6875 h -1.246094 z m -1.738281,-0.94921 h 1.421875 L 17.1875,169.25 Z"/>
    <path id="path8036" style="font-weight:bold;font-size:8px;font-family:Roboto, sans-serif;letter-spacing:1px;fill:#333333" d="m 24.398437,173.5 v -5.6875 h 1.75 q 0.75,0 1.339844,0.33984 0.59375,0.33594 0.925781,0.96094 0.332032,0.62109 0.332032,1.41406 v 0.26172 q 0,0.79297 -0.328125,1.41016 -0.324219,0.61719 -0.917969,0.95703 -0.59375,0.33984 -1.339844,0.34375 z m 1.171875,-4.73828 v 3.79687 h 0.566407 q 0.6875,0 1.050781,-0.44922 0.363281,-0.44921 0.371094,-1.28515 v -0.30078 q 0,-0.86719 -0.359375,-1.3125 -0.359375,-0.44922 -1.050782,-0.44922 z"/>
    <path id="path8038" style="font-weight:bold;font-size:8px;font-family:Roboto, sans-serif;letter-spacing:1px;fill:#333333" d="M 32.707031,171.41797 H 31.773437 V 173.5 h -1.171875 v -5.6875 h 2.113282 q 1.007812,0 1.554687,0.44922 0.546875,0.44922 0.546875,1.26953 0,0.58203 -0.253906,0.97266 -0.25,0.38671 -0.761719,0.61718 l 1.230469,2.32422 V 173.5 h -1.257813 z m -0.933594,-0.94922 h 0.945313 q 0.441406,0 0.683594,-0.22266 0.242187,-0.22656 0.242187,-0.62109 0,-0.40234 -0.230469,-0.63281 -0.226562,-0.23047 -0.699218,-0.23047 h -0.941407 z"/>
    <path id="path8040" style="font-weight:bold;font-size:8px;font-family:Roboto, sans-serif;letter-spacing:1px;fill:#333333" d="m 38.484375,170.375 1.183594,-2.5625 h 1.28125 l -1.867188,3.625 V 173.5 h -1.191406 v -2.0625 l -1.867188,-3.625 h 1.285157 z"/>
  </g>
  <g transform="translate(20.5,182.5)" id="g7437"/>
  <g transform="translate(8,170.5)" id="g7455">
    <svg version="1.1" id="svg7453" width="100%" height="100%">
      <g transform="translate(20,20)" id="g7451">
        <g transform="rotate(120,-5,2.8867513)" id="g7441">
          <path d="M 0,0 H 4" style="stroke:#333333;stroke-width:1" id="polyline7439"/>
        </g>
        <path d="M 0,-12.5 A 12.5,12.5 0 0 1 12.5,0" stroke="#333333" stroke-width="0.5" stroke-linecap="round" fill="none" id="path7443"/>
        <path d="M 0,-12.5 A 12.5,12.5 0 0 1 12.5,0" stroke="#333333" stroke-width="0.5" stroke-linecap="round" fill="none" transform="rotate(43)" id="path7445"/>
        <path d="M 0,-12.5 A 12.5,12.5 0 0 0 -12.5,0" stroke="#333333" stroke-width="0.5" stroke-linecap="round" fill="none" id="path7447"/>
        <path d="M 0,-12.5 A 12.5,12.5 0 0 0 -12.5,0" stroke="#333333" stroke-width="0.5" stroke-linecap="round" fill="none" transform="rotate(-43)" id="path7449"/>
      </g>
    </svg>
  </g>
  <g style="font-weight:bold;font-size:8px;font-family:Roboto, sans-serif;letter-spacing:1px;fill:#333333" id="text7459" aria-label="B DRY">
    <path id="path8024" style="font-weight:bold;font-size:8px;font-family:Roboto, sans-serif;letter-spacing:1px;fill:#333333" d="m 108.00781,173.5 v -5.6875 H 110 q 1.03516,0 1.57031,0.39844 0.53516,0.39453 0.53516,1.16015 0,0.41797 -0.21484,0.73828 -0.21485,0.31641 -0.59766,0.46485 0.4375,0.10937 0.6875,0.4414 0.25391,0.33204 0.25391,0.8125 0,0.82032 -0.52344,1.24219 -0.52344,0.42188 -1.49219,0.42969 z m 1.17188,-2.47656 v 1.53515 h 1.0039 q 0.41407,0 0.64454,-0.19531 0.23437,-0.19922 0.23437,-0.54687 0,-0.78125 -0.80859,-0.79297 z m 0,-0.82813 h 0.86719 q 0.88671,-0.0156 0.88671,-0.70703 0,-0.38672 -0.22656,-0.55469 -0.22265,-0.17187 -0.70703,-0.17187 h -0.82031 z"/>
    <path id="path8026" style="font-weight:bold;font-size:8px;font-family:Roboto, sans-serif;letter-spacing:1px;fill:#333333" d="m 117.11719,173.5 v -5.6875 h 1.75 q 0.75,0 1.33984,0.33984 0.59375,0.33594 0.92578,0.96094 0.33203,0.62109 0.33203,1.41406 v 0.26172 q 0,0.79297 -0.32812,1.41016 -0.32422,0.61719 -0.91797,0.95703 -0.59375,0.33984 -1.33984,0.34375 z m 1.17187,-4.73828 v 3.79687 h 0.56641 q 0.6875,0 1.05078,-0.44922 0.36328,-0.44921 0.37109,-1.28515 v -0.30078 q 0,-0.86719 -0.35937,-1.3125 -0.35938,-0.44922 -1.05078,-0.44922 z"/>
    <path id="path8028" style="font-weight:bold;font-size:8px;font-family:Roboto, sans-serif;letter-spacing:1px;fill:#333333" d="m 125.42578,171.41797 h -0.93359 V 173.5 h -1.17188 v -5.6875 h 2.11328 q 1.00782,0 1.55469,0.44922 0.54688,0.44922 0.54688,1.26953 0,0.58203 -0.25391,0.97266 -0.25,0.38671 -0.76172,0.61718 l 1.23047,2.32422 V 173.5 h -1.25781 z m -0.93359,-0.94922 h 0.94531 q 0.44141,0 0.68359,-0.22266 0.24219,-0.22656 0.24219,-0.62109 0,-0.40234 -0.23047,-0.63281 -0.22656,-0.23047 -0.69922,-0.23047 h -0.9414 z"/>
    <path id="path8030" style="font-weight:bold;font-size:8px;font-family:Roboto, sans-serif;letter-spacing:1px;fill:#333333" d="m 131.20312,170.375 1.1836,-2.5625 h 1.28125 l -1.86719,3.625 V 173.5 h -1.19141 v -2.0625 l -1.86718,-3.625 h 1.28515 z"/>
  </g>
  <g transform="translate(113.5,182.5)" id="g7461"/>
  <g transform="translate(101,170.5)" id="g7479">
    <svg version="1.1" id="svg7477" width="100%" height="100%">
      <g transform="translate(20,20)" id="g7475">
        <g transform="rotate(120,-5,2.8867513)" id="g7465">
          <path d="M 0,0 H 4" style="stroke:#333333;stroke-width:1" id="polyline7463"/>
        </g>
        <path d="M 0,-12.5 A 12.5,12.5 0 0 1 12.5,0" stroke="#333333" stroke-width="0.5" stroke-linecap="round" fill="none" id="path7467"/>
        <path d="M 0,-12.5 A 12.5,12.5 0 0 1 12.5,0" stroke="#333333" stroke-width="0.5" stroke-linecap="round" fill="none" transform="rotate(43)" id="path7469"/>
        <path d="M 0,-12.5 A 12.5,12.5 0 0 0 -12.5,0" stroke="#333333" stroke-width="0.5" stroke-linecap="round" fill="none" id="path7471"/>
        <path d="M 0,-12.5 A 12.5,12.5 0 0 0 -12.5,0" stroke="#333333" stroke-width="0.5" stroke-linecap="round" fill="none" transform="rotate(-43)" id="path7473"/>
      </g>
    </svg>
  </g>
  <path d="m 15,225 h 120 c 2.77,0 5,2.23 5,5 v 125 c 0,2.77 -2.23,5 -5,5 H 15 c -2.77,0 -5,-2.23 -5,-5 V 230 c 0,-2.77 2.23,-5 5,-5 z" style="fill:#fafafa" id="rect7483"/>
  <path d="m 80,269 h 55 c 2.77,0 5,2.23 5,5 v 81 c 0,2.77 -2.23,5 -5,5 H 80 c -2.77,0 -5,-2.23 -5,-5 v -81 c 0,-2.77 2.23,-5 5,-5 z" style="fill:#bbbbbb" id="rect7485"/>
  <path d="m 75,269 h 10 v 8 H 75 Z" style="fill:#bbbbbb" id="rect7487"/>
  <path d="m 130,269 h 10 v 8 h -10 z" style="fill:#bbbbbb" id="rect7489"/>
  <path d="m 75,352 h 10 v 8 H 75 Z" style="fill:#bbbbbb" id="rect7491"/>
  <g transform="translate(12,225)" id="g7497">
    <g transform="translate(3,5)" id="g7493"/>
    <g style="font-weight:bold;font-size:8px;font-family:Roboto, sans-serif;letter-spacing:1px;fill:#333333" id="text7495" transform="translate(5,40)" aria-label="GTM">
      <path id="path8011" style="font-weight:bold;font-size:8px;font-family:Roboto, sans-serif;letter-spacing:1px;fill:#333333" d="M 5.0078125,-0.71875 Q 4.6914062,-0.33984375 4.1132812,-0.12890625 3.5351563,0.078125 2.8320313,0.078125 2.09375,0.078125 1.5351562,-0.2421875 0.98046875,-0.56640625 0.67578125,-1.1796875 0.375,-1.7929687 0.3671875,-2.6210938 v -0.3867187 q 0,-0.8515625 0.28515625,-1.4726562 0.2890625,-0.625 0.82812495,-0.953125 Q 2.0234375,-5.765625 2.75,-5.765625 q 1.0117188,0 1.5820312,0.484375 0.5703125,0.4804688 0.6757813,1.4023437 H 3.8671875 Q 3.7890625,-4.3671875 3.5195313,-4.59375 3.2539063,-4.8203125 2.7851563,-4.8203125 2.1875,-4.8203125 1.875,-4.3710937 1.5625,-3.921875 1.5585937,-3.0351563 v 0.3632813 q 0,0.8945313 0.3398438,1.3515625 0.3398438,0.45703125 0.9960938,0.45703125 0.6601562,0 0.9414062,-0.28124995 V -2.125 H 2.7695313 v -0.8632813 h 2.2382812 z"/>
      <path id="path8013" style="font-weight:bold;font-size:8px;font-family:Roboto, sans-serif;letter-spacing:1px;fill:#333333" d="M 11.242188,-4.7382812 H 9.5 V 0 H 8.328125 V -4.7382812 H 6.609375 V -5.6875 h 4.632813 z"/>
      <path id="path8015" style="font-weight:bold;font-size:8px;font-family:Roboto, sans-serif;letter-spacing:1px;fill:#333333" d="m 14.445313,-5.6875 1.460937,4.125 1.453125,-4.125 h 1.539062 V 0 H 17.722656 V -1.5546875 L 17.839844,-4.2382812 16.304687,0 H 15.5 l -1.53125,-4.234375 0.117188,2.6796875 V 0 h -1.171875 v -5.6875 z"/>
    </g>
  </g>
  <g transform="translate(44,225)" id="g7503">
    <g transform="translate(3,5)" id="g7499"/>
    <g style="font-weight:bold;font-size:8px;font-family:Roboto, sans-serif;letter-spacing:1px;fill:#333333" id="text7501" transform="translate(6,40)" aria-label="LTM">
      <path id="path8004" style="font-weight:bold;font-size:8px;font-family:Roboto, sans-serif;letter-spacing:1px;fill:#333333" d="M 1.6796875,-0.94140625 H 4.1679687 V 0 H 0.5078125 v -5.6875 h 1.171875 z"/>
      <path id="path8006" style="font-weight:bold;font-size:8px;font-family:Roboto, sans-serif;letter-spacing:1px;fill:#333333" d="M 9.3203125,-4.7382812 H 7.578125 V 0 H 6.40625 V -4.7382812 H 4.6875 V -5.6875 h 4.6328125 z"/>
      <path id="path8008" style="font-weight:bold;font-size:8px;font-family:Roboto, sans-serif;letter-spacing:1px;fill:#333333" d="m 12.523438,-5.6875 1.460937,4.125 1.453125,-4.125 h 1.539062 V 0 H 15.800781 V -1.5546875 L 15.917969,-4.2382812 14.382813,0 h -0.804688 l -1.53125,-4.234375 0.117188,2.6796875 V 0 h -1.171875 v -5.6875 z"/>
    </g>
  </g>
  <g transform="translate(76,225)" id="g7509">
    <g transform="translate(3,5)" id="g7505"/>
    <g style="font-weight:bold;font-size:8px;font-family:Roboto, sans-serif;letter-spacing:0.5px;fill:#333333" id="text7507" transform="translate(1.5,40)" aria-label="WNDW">
      <path id="path7995" style="font-weight:bold;font-size:8px;font-family:Roboto, sans-serif;letter-spacing:0.5px;fill:#333333" d="M 4.9375,-1.640625 5.703125,-5.6875 H 6.8710937 L 5.609375,0 H 4.4296875 L 3.5039063,-3.8046875 2.578125,0 H 1.3984375 L 0.13671875,-5.6875 H 1.3046875 l 0.7695313,4.0390625 0.9375,-4.0390625 h 0.9921874 z"/>
      <path id="path7997" style="font-weight:bold;font-size:8px;font-family:Roboto, sans-serif;letter-spacing:0.5px;fill:#333333" d="M 12.632813,0 H 11.460938 L 9.1796875,-3.7421875 V 0 h -1.171875 v -5.6875 h 1.171875 l 2.2851565,3.75 v -3.75 h 1.167969 z"/>
      <path id="path7999" style="font-weight:bold;font-size:8px;font-family:Roboto, sans-serif;letter-spacing:0.5px;fill:#333333" d="m 14.164063,0 v -5.6875 h 1.75 q 0.749999,0 1.339843,0.3398438 0.59375,0.3359375 0.925781,0.9609375 0.332032,0.6210937 0.332032,1.4140624 v 0.2617188 q 0,0.7929688 -0.328125,1.4101563 Q 17.859375,-0.68359375 17.265625,-0.34375 16.671875,-0.00390625 15.925781,0 Z m 1.171875,-4.7382812 v 3.79687495 h 0.566406 q 0.6875,0 1.050781,-0.44921875 0.363281,-0.4492187 0.371094,-1.2851563 v -0.3007812 q 0,-0.8671875 -0.359375,-1.3125 -0.359375,-0.4492187 -1.050781,-0.4492187 z"/>
      <path id="path8001" style="font-weight:bold;font-size:8px;font-family:Roboto, sans-serif;letter-spacing:0.5px;fill:#333333" d="M 24.296875,-1.640625 25.0625,-5.6875 h 1.167969 L 24.96875,0 H 23.789062 L 22.863281,-3.8046875 21.9375,0 h -1.179688 l -1.261718,-5.6875 h 1.167968 l 0.769532,4.0390625 0.9375,-4.0390625 h 0.992187 z"/>
    </g>
  </g>
  <g transform="translate(108,225)" id="g7515">
    <g transform="translate(3,5)" id="g7511"/>
    <g style="font-weight:bold;font-size:8px;font-family:Roboto, sans-serif;letter-spacing:1px;fill:#333333" id="text7513" transform="translate(6,40)" aria-label="D/W">
      <path id="path7988" style="font-weight:bold;font-size:8px;font-family:Roboto, sans-serif;letter-spacing:1px;fill:#333333" d="m 0.5078125,0 v -5.6875 h 1.75 q 0.75,0 1.3398438,0.3398438 0.5937499,0.3359375 0.9257812,0.9609375 0.3320312,0.6210937 0.3320312,1.4140624 v 0.2617188 q 0,0.7929688 -0.328125,1.4101563 Q 4.203125,-0.68359375 3.609375,-0.34375 3.015625,-0.00390625 2.2695313,0 Z m 1.171875,-4.7382812 v 3.79687495 h 0.5664063 q 0.6875,0 1.0507812,-0.44921875 0.3632813,-0.4492187 0.3710938,-1.2851563 v -0.3007812 q 0,-0.8671875 -0.359375,-1.3125 -0.359375,-0.4492187 -1.0507813,-0.4492187 z"/>
      <path id="path7990" style="font-weight:bold;font-size:8px;font-family:Roboto, sans-serif;letter-spacing:1px;fill:#333333" d="M 6.9921875,0.48828125 H 6.1523437 L 8.2460938,-5.6875 h 0.8398437 z"/>
      <path id="path7992" style="font-weight:bold;font-size:8px;font-family:Roboto, sans-serif;letter-spacing:1px;fill:#333333" d="M 15.125,-1.640625 15.890625,-5.6875 h 1.167969 L 15.796875,0 H 14.617188 L 13.691406,-3.8046875 12.765625,0 h -1.179687 l -1.261719,-5.6875 h 1.167969 l 0.769531,4.0390625 0.9375,-4.0390625 h 0.992187 z"/>
    </g>
  </g>
  <g transform="translate(0,269)" id="g7567">
    <g transform="translate(12)" id="g7521">
      <g transform="translate(3,5)" id="g7517"/>
      <g style="font-weight:bold;font-size:8px;font-family:Roboto, sans-serif;letter-spacing:1px;fill:#333333" id="text7519" transform="translate(5,40)" aria-label="A IN">
        <path id="path7934" style="font-weight:bold;font-size:8px;font-family:Roboto, sans-serif;letter-spacing:1px;fill:#333333" d="M 3.71875,-1.171875 H 1.6640625 L 1.2734375,0 H 0.02734375 L 2.1445313,-5.6875 H 3.2304688 L 5.359375,0 H 4.1132812 Z M 1.9804687,-2.1210938 H 3.4023438 L 2.6875,-4.25 Z"/>
        <path id="path7936" style="font-weight:bold;font-size:8px;font-family:Roboto, sans-serif;letter-spacing:1px;fill:#333333" d="M 11.144531,0 H 9.9726563 v -5.6875 h 1.1718747 z"/>
        <path id="path7938" style="font-weight:bold;font-size:8px;font-family:Roboto, sans-serif;letter-spacing:1px;fill:#333333" d="M 17.851562,0 H 16.679687 L 14.398438,-3.7421875 V 0 h -1.171875 v -5.6875 h 1.171875 l 2.285156,3.75 v -3.75 h 1.167968 z"/>
      </g>
    </g>
    <g transform="translate(44)" id="g7527">
      <g transform="translate(3,5)" id="g7523"/>
      <g style="font-weight:bold;font-size:8px;font-family:Roboto, sans-serif;letter-spacing:1px;fill:#333333" id="text7525" transform="translate(1.5,40)" aria-label="A SCL">
        <path id="path7941" style="font-weight:bold;font-size:8px;font-family:Roboto, sans-serif;letter-spacing:1px;fill:#333333" d="M 3.71875,-1.171875 H 1.6640625 L 1.2734375,0 H 0.02734375 L 2.1445313,-5.6875 H 3.2304688 L 5.359375,0 H 4.1132812 Z M 1.9804687,-2.1210938 H 3.4023438 L 2.6875,-4.25 Z"/>
        <path id="path7943" style="font-weight:bold;font-size:8px;font-family:Roboto, sans-serif;letter-spacing:1px;fill:#333333" d="m 12.847656,-1.4921875 q 0,-0.3320312 -0.234375,-0.5078125 -0.234375,-0.1796875 -0.84375,-0.375 -0.609375,-0.1992188 -0.964843,-0.390625 -0.9687505,-0.5234375 -0.9687505,-1.4101562 0,-0.4609375 0.2578125,-0.8203125 0.261719,-0.3632813 0.746094,-0.5664063 0.488281,-0.203125 1.09375,-0.203125 0.609375,0 1.085937,0.2226563 0.476563,0.21875 0.738282,0.6210937 0.265625,0.4023438 0.265625,0.9140625 h -1.171875 q 0,-0.390625 -0.246094,-0.6054687 -0.246094,-0.21875 -0.691406,-0.21875 -0.429688,0 -0.667969,0.1835937 -0.238281,0.1796875 -0.238281,0.4765625 0,0.2773437 0.277343,0.4648437 0.28125,0.1875 0.824219,0.3515625 1,0.3007813 1.457031,0.7460938 0.457032,0.4453125 0.457032,1.109375 0,0.73828125 -0.558594,1.16015625 Q 12.90625,0.078125 11.960938,0.078125 q -0.65625,0 -1.195313,-0.23828125 -0.539062,-0.2421875 -0.8242187,-0.66015625 -0.28125,-0.4179687 -0.28125,-0.96875 h 1.1757817 q 0,0.94140625 1.125,0.94140625 0.417968,0 0.652343,-0.16796875 0.234375,-0.171875 0.234375,-0.4765625 z"/>
        <path id="path7945" style="font-weight:bold;font-size:8px;font-family:Roboto, sans-serif;letter-spacing:1px;fill:#333333" d="m 20.285156,-1.8945312 q -0.06641,0.9179687 -0.679687,1.44531245 -0.609375,0.52734375 -1.609375,0.52734375 -1.09375,0 -1.722657,-0.734375 -0.624999,-0.7382812 -0.624999,-2.0234375 v -0.3476563 q 0,-0.8203125 0.289062,-1.4453124 0.289062,-0.625 0.824219,-0.9570313 0.539062,-0.3359375 1.25,-0.3359375 0.984375,0 1.585937,0.5273438 0.601563,0.5273437 0.695313,1.4804687 h -1.171875 q -0.04297,-0.5507812 -0.308594,-0.796875 -0.261719,-0.25 -0.800781,-0.25 -0.585938,0 -0.878907,0.421875 -0.289062,0.4179687 -0.296875,1.3007812 v 0.4296875 q 0,0.9218751 0.277344,1.3476563 0.28125,0.42578125 0.882813,0.42578125 0.542968,0 0.808593,-0.24609375 0.269532,-0.25 0.308594,-0.7695312 z"/>
        <path id="path7947" style="font-weight:bold;font-size:8px;font-family:Roboto, sans-serif;letter-spacing:1px;fill:#333333" d="m 23.226562,-0.94140625 h 2.488282 V 0 h -3.660157 v -5.6875 h 1.171875 z"/>
      </g>
    </g>
    <g transform="translate(76)" id="g7533">
      <g transform="translate(3,5)" id="g7529"/>
      <g style="font-weight:bold;font-size:8px;font-family:Roboto, sans-serif;letter-spacing:2px;fill:#333333" id="text7531" transform="translate(8,40)" aria-label="GT">
        <path id="path7950" style="font-weight:bold;font-size:8px;font-family:Roboto, sans-serif;letter-spacing:2px;fill:#333333" d="M 5.0078125,-0.71875 Q 4.6914062,-0.33984375 4.1132812,-0.12890625 3.5351563,0.078125 2.8320313,0.078125 2.09375,0.078125 1.5351562,-0.2421875 0.98046875,-0.56640625 0.67578125,-1.1796875 0.375,-1.7929687 0.3671875,-2.6210938 v -0.3867187 q 0,-0.8515625 0.28515625,-1.4726562 0.2890625,-0.625 0.82812495,-0.953125 Q 2.0234375,-5.765625 2.75,-5.765625 q 1.0117188,0 1.5820312,0.484375 0.5703125,0.4804688 0.6757813,1.4023437 H 3.8671875 Q 3.7890625,-4.3671875 3.5195313,-4.59375 3.2539063,-4.8203125 2.7851563,-4.8203125 2.1875,-4.8203125 1.875,-4.3710937 1.5625,-3.921875 1.5585937,-3.0351563 v 0.3632813 q 0,0.8945313 0.3398438,1.3515625 0.3398438,0.45703125 0.9960938,0.45703125 0.6601562,0 0.9414062,-0.28124995 V -2.125 H 2.7695313 v -0.8632813 h 2.2382812 z"/>
        <path id="path7952" style="font-weight:bold;font-size:8px;font-family:Roboto, sans-serif;letter-spacing:2px;fill:#333333" d="M 12.242188,-4.7382812 H 10.5 V 0 H 9.328125 V -4.7382812 H 7.609375 V -5.6875 h 4.632813 z"/>
      </g>
    </g>
    <g transform="translate(108)" id="g7539">
      <g transform="translate(3,5)" id="g7535"/>
      <g style="font-weight:bold;font-size:8px;font-family:Roboto, sans-serif;letter-spacing:2px;fill:#333333" id="text7537" transform="translate(9.5,40)" aria-label="LT">
        <path id="path7955" style="font-weight:bold;font-size:8px;font-family:Roboto, sans-serif;letter-spacing:2px;fill:#333333" d="M 1.6796875,-0.94140625 H 4.1679687 V 0 H 0.5078125 v -5.6875 h 1.171875 z"/>
        <path id="path7957" style="font-weight:bold;font-size:8px;font-family:Roboto, sans-serif;letter-spacing:2px;fill:#333333" d="M 10.320313,-4.7382812 H 8.578125 V 0 H 7.40625 V -4.7382812 H 5.6875 V -5.6875 h 4.632813 z"/>
      </g>
    </g>
    <g transform="translate(10,44)" id="g7565">
      <g transform="translate(2)" id="g7545">
        <g transform="translate(3,5)" id="g7541"/>
        <g style="font-weight:bold;font-size:8px;font-family:Roboto, sans-serif;letter-spacing:1px;fill:#333333" id="text7543" transform="translate(5,40)" aria-label="B IN">
          <path id="path7960" style="font-weight:bold;font-size:8px;font-family:Roboto, sans-serif;letter-spacing:1px;fill:#333333" d="M 0.5078125,0 V -5.6875 H 2.5 q 1.0351563,0 1.5703125,0.3984375 0.5351562,0.3945313 0.5351562,1.1601563 0,0.4179687 -0.2148437,0.7382812 -0.2148438,0.3164062 -0.5976562,0.4648437 0.4374999,0.109375 0.6874999,0.4414063 0.2539063,0.3320312 0.2539063,0.8125 0,0.8203125 -0.5234375,1.2421875 Q 3.6875,-0.0078125 2.71875,0 Z m 1.171875,-2.4765625 v 1.53515625 h 1.0039063 q 0.4140625,0 0.6445312,-0.19531245 0.234375,-0.1992188 0.234375,-0.546875 0,-0.7812501 -0.8085937,-0.7929688 z m 0,-0.828125 H 2.546875 q 0.8867188,-0.015625 0.8867188,-0.7070312 0,-0.3867188 -0.2265625,-0.5546875 Q 2.984375,-4.7382812 2.5,-4.7382812 H 1.6796875 Z"/>
          <path id="path7962" style="font-weight:bold;font-size:8px;font-family:Roboto, sans-serif;letter-spacing:1px;fill:#333333" d="M 10.863281,0 H 9.6914063 v -5.6875 h 1.1718747 z"/>
          <path id="path7964" style="font-weight:bold;font-size:8px;font-family:Roboto, sans-serif;letter-spacing:1px;fill:#333333" d="M 17.570312,0 H 16.398437 L 14.117188,-3.7421875 V 0 h -1.171875 v -5.6875 h 1.171875 l 2.285156,3.75 v -3.75 h 1.167968 z"/>
        </g>
      </g>
      <g transform="translate(34)" id="g7551">
        <g transform="translate(3,5)" id="g7547"/>
        <g style="font-weight:bold;font-size:8px;font-family:Roboto, sans-serif;letter-spacing:1px;fill:#333333" id="text7549" transform="translate(1.5,40)" aria-label="B SCL">
          <path id="path7967" style="font-weight:bold;font-size:8px;font-family:Roboto, sans-serif;letter-spacing:1px;fill:#333333" d="M 0.5078125,0 V -5.6875 H 2.5 q 1.0351563,0 1.5703125,0.3984375 0.5351562,0.3945313 0.5351562,1.1601563 0,0.4179687 -0.2148437,0.7382812 -0.2148438,0.3164062 -0.5976562,0.4648437 0.4374999,0.109375 0.6874999,0.4414063 0.2539063,0.3320312 0.2539063,0.8125 0,0.8203125 -0.5234375,1.2421875 Q 3.6875,-0.0078125 2.71875,0 Z m 1.171875,-2.4765625 v 1.53515625 h 1.0039063 q 0.4140625,0 0.6445312,-0.19531245 0.234375,-0.1992188 0.234375,-0.546875 0,-0.7812501 -0.8085937,-0.7929688 z m 0,-0.828125 H 2.546875 q 0.8867188,-0.015625 0.8867188,-0.7070312 0,-0.3867188 -0.2265625,-0.5546875 Q 2.984375,-4.7382812 2.5,-4.7382812 H 1.6796875 Z"/>
          <path id="path7969" style="font-weight:bold;font-size:8px;font-family:Roboto, sans-serif;letter-spacing:1px;fill:#333333" d="m 12.566406,-1.4921875 q 0,-0.3320312 -0.234375,-0.5078125 -0.234375,-0.1796875 -0.84375,-0.375 -0.609375,-0.1992188 -0.964843,-0.390625 -0.9687505,-0.5234375 -0.9687505,-1.4101562 0,-0.4609375 0.2578125,-0.8203125 0.261719,-0.3632813 0.746094,-0.5664063 0.488281,-0.203125 1.09375,-0.203125 0.609375,0 1.085937,0.2226563 0.476563,0.21875 0.738282,0.6210937 0.265625,0.4023438 0.265625,0.9140625 h -1.171875 q 0,-0.390625 -0.246094,-0.6054687 -0.246094,-0.21875 -0.691406,-0.21875 -0.429688,0 -0.667969,0.1835937 -0.238281,0.1796875 -0.238281,0.4765625 0,0.2773437 0.277343,0.4648437 0.28125,0.1875 0.824219,0.3515625 1,0.3007813 1.457031,0.7460938 0.457032,0.4453125 0.457032,1.109375 0,0.73828125 -0.558594,1.16015625 Q 12.625,0.078125 11.679688,0.078125 q -0.65625,0 -1.195313,-0.23828125 -0.5390625,-0.2421875 -0.8242187,-0.66015625 -0.28125,-0.4179687 -0.28125,-0.96875 h 1.1757817 q 0,0.94140625 1.125,0.94140625 0.417968,0 0.652343,-0.16796875 0.234375,-0.171875 0.234375,-0.4765625 z"/>
          <path id="path7971" style="font-weight:bold;font-size:8px;font-family:Roboto, sans-serif;letter-spacing:1px;fill:#333333" d="M 20.003906,-1.8945312 Q 19.9375,-0.9765625 19.324219,-0.44921875 18.714844,0.078125 17.714844,0.078125 q -1.09375,0 -1.722656,-0.734375 -0.625,-0.7382812 -0.625,-2.0234375 v -0.3476563 q 0,-0.8203125 0.289062,-1.4453124 0.289063,-0.625 0.824219,-0.9570313 0.539062,-0.3359375 1.25,-0.3359375 0.984375,0 1.585937,0.5273438 0.601563,0.5273437 0.695313,1.4804687 h -1.171875 q -0.04297,-0.5507812 -0.308594,-0.796875 -0.261719,-0.25 -0.800781,-0.25 -0.585938,0 -0.878907,0.421875 -0.289062,0.4179687 -0.296875,1.3007812 v 0.4296875 q 0,0.9218751 0.277344,1.3476563 0.28125,0.42578125 0.882813,0.42578125 0.542968,0 0.808593,-0.24609375 0.269532,-0.25 0.308594,-0.7695312 z"/>
          <path id="path7973" style="font-weight:bold;font-size:8px;font-family:Roboto, sans-serif;letter-spacing:1px;fill:#333333" d="m 22.945312,-0.94140625 h 2.488282 V 0 h -3.660157 v -5.6875 h 1.171875 z"/>
        </g>
      </g>
      <g transform="translate(66)" id="g7557">
        <g transform="translate(3,5)" id="g7553"/>
        <g style="font-weight:bold;font-size:8px;font-family:Roboto, sans-serif;letter-spacing:2px;fill:#333333" id="text7555" transform="translate(9,40)" aria-label="EQ">
          <path id="path7976" style="font-weight:bold;font-size:8px;font-family:Roboto, sans-serif;letter-spacing:2px;fill:#333333" d="m 3.9296875,-2.4648438 h -2.25 v 1.52343755 h 2.640625 V 0 h -3.8125 V -5.6875 H 4.3125 v 0.9492188 H 1.6796875 v 1.3554687 h 2.25 z"/>
          <path id="path7978" style="font-weight:bold;font-size:8px;font-family:Roboto, sans-serif;letter-spacing:2px;fill:#333333" d="m 11.671875,-2.7148438 q 0,0.7968751 -0.257812,1.3867188 -0.257813,0.5859375 -0.714844,0.94140625 L 11.644531,0.35546875 10.898438,1.015625 9.6875,0.04296875 Q 9.4804688,0.078125 9.2578125,0.078125 q -0.7070312,0 -1.2617188,-0.33984375 Q 7.4414062,-0.6015625 7.1367187,-1.2304687 6.8320312,-1.8632812 6.828125,-2.6835938 v -0.28125 q 0,-0.8398437 0.3007812,-1.4765624 0.3046875,-0.640625 0.8554688,-0.9804688 0.5546875,-0.34375 1.265625,-0.34375 0.7109375,0 1.261719,0.34375 0.554687,0.3398438 0.855469,0.9804688 0.304687,0.6367187 0.304687,1.4726562 z m -1.1875,-0.2578125 q 0,-0.8945312 -0.320312,-1.3593749 Q 9.84375,-4.796875 9.25,-4.796875 q -0.5898437,0 -0.9101562,0.4609375 -0.3203125,0.4570312 -0.3242188,1.34375 v 0.2773437 q 0,0.8710938 0.3203125,1.3515626 0.3203125,0.4804687 0.921875,0.4804687 0.5898438,0 0.9062505,-0.4609375 0.316406,-0.4648437 0.320312,-1.3515625 z"/>
        </g>
      </g>
      <g transform="translate(98)" id="g7563">
        <g transform="translate(3,5)" id="g7559"/>
        <g style="font-weight:bold;font-size:8px;font-family:Roboto, sans-serif;letter-spacing:2px;fill:#333333" id="text7561" transform="translate(6,40)" aria-label="MIX">
          <path id="path7981" style="font-weight:bold;font-size:8px;font-family:Roboto, sans-serif;letter-spacing:2px;fill:#333333" d="M 2.0390625,-5.6875 3.5,-1.5625 4.953125,-5.6875 H 6.4921875 V 0 H 5.3164062 V -1.5546875 L 5.4335937,-4.2382812 3.8984375,0 H 3.09375 L 1.5625,-4.234375 1.6796875,-1.5546875 V 0 h -1.171875 v -5.6875 z"/>
          <path id="path7983" style="font-weight:bold;font-size:8px;font-family:Roboto, sans-serif;letter-spacing:2px;fill:#333333" d="M 10.769531,0 H 9.5976563 v -5.6875 h 1.1718747 z"/>
          <path id="path7985" style="font-weight:bold;font-size:8px;font-family:Roboto, sans-serif;letter-spacing:2px;fill:#333333" d="M 15.949219,-3.7265625 17.015625,-5.6875 h 1.347656 L 16.707031,-2.8671875 18.40625,0 H 17.042969 L 15.949219,-1.9921875 14.855469,0 H 13.492188 L 15.191406,-2.8671875 13.535156,-5.6875 h 1.347657 z"/>
        </g>
      </g>
    </g>
  </g>
</svg>
