<?xml version="1.0" encoding="UTF-8" standalone="no"?>
<svg xmlns:dc="http://purl.org/dc/elements/1.1/" xmlns:cc="http://creativecommons.org/ns#" xmlns:rdf="http://www.w3.org/1999/02/22-rdf-syntax-ns#" xmlns:svg="http://www.w3.org/2000/svg" xmlns="http://www.w3.org/2000/svg" xmlns:sodipodi="http://sodipodi.sourceforge.net/DTD/sodipodi-0.dtd" xmlns:inkscape="http://www.inkscape.org/namespaces/inkscape" inkscape:version="1.0 (4035a4f, 2020-05-01)" sodipodi:docname="svg_render_CmpDist-pp.svg" id="svg7769" viewBox="0 0 150 380" height="380" width="150" version="1.1">
  <metadata id="metadata7773">
    <rdf:RDF>
      <cc:Work rdf:about="">
        <dc:format>image/svg+xml</dc:format>
        <dc:type rdf:resource="http://purl.org/dc/dcmitype/StillImage"/>
      </cc:Work>
    </rdf:RDF>
  </metadata>
  <sodipodi:namedview inkscape:current-layer="svg7769" inkscape:window-maximized="0" inkscape:window-y="23" inkscape:window-x="0" inkscape:cy="190" inkscape:cx="75" inkscape:zoom="1.7605263" showgrid="false" id="namedview7771" inkscape:window-height="480" inkscape:window-width="689" inkscape:pageshadow="2" inkscape:pageopacity="0" guidetolerance="10" gridtolerance="10" objecttolerance="10" borderopacity="1" bordercolor="#666666" pagecolor="#ffffff"/>
  
  <defs id="defs7527">
    <symbol viewBox="0 0 45px 45px" id="dial-attenuverter-cmpdist">
      <g id="g7499" transform="translate(22.5 22.5)">
        <text id="text7457" transform="rotate(-240) translate(20 0) rotate(240) translate(-1.2 2.2)" font-size="7pt">-</text>
        <polyline id="polyline7459" transform="rotate(-225) translate(17 0)" stroke="#333" stroke-width="0.3" points="0,0 2.5,0"/>
        <polyline id="polyline7461" transform="rotate(-210) translate(17 0)" stroke="#333" stroke-width="0.3" points="0,0 2.5,0"/>
        <polyline id="polyline7463" transform="rotate(-195) translate(17 0)" stroke="#333" stroke-width="0.3" points="0,0 2.5,0"/>
        <polyline id="polyline7465" transform="rotate(-180) translate(17 0)" stroke="#333" stroke-width="0.3" points="0,0 2.5,0"/>
        <polyline id="polyline7467" transform="rotate(-165) translate(17 0)" stroke="#333" stroke-width="1" points="0,0 3.5,0"/>
        <polyline id="polyline7469" transform="rotate(-150) translate(17 0)" stroke="#333" stroke-width="0.3" points="0,0 2.5,0"/>
        <polyline id="polyline7471" transform="rotate(-135) translate(17 0)" stroke="#333" stroke-width="0.3" points="0,0 2.5,0"/>
        <polyline id="polyline7473" transform="rotate(-120) translate(17 0)" stroke="#333" stroke-width="0.3" points="0,0 2.5,0"/>
        <polyline id="polyline7475" transform="rotate(-105) translate(17 0)" stroke="#333" stroke-width="0.3" points="0,0 2.5,0"/>
        <text id="text7477" transform="rotate(-90) translate(20 0) rotate(90) translate(-1.9 3)" font-size="5pt">0</text>
        <polyline id="polyline7479" transform="rotate(-75) translate(17 0)" stroke="#333" stroke-width="0.3" points="0,0 2.5,0"/>
        <polyline id="polyline7481" transform="rotate(-60) translate(17 0)" stroke="#333" stroke-width="0.3" points="0,0 2.5,0"/>
        <polyline id="polyline7483" transform="rotate(-45) translate(17 0)" stroke="#333" stroke-width="0.3" points="0,0 2.5,0"/>
        <polyline id="polyline7485" transform="rotate(-30) translate(17 0)" stroke="#333" stroke-width="0.3" points="0,0 2.5,0"/>
        <polyline id="polyline7487" transform="rotate(-15) translate(17 0)" stroke="#333" stroke-width="1" points="0,0 3.5,0"/>
        <polyline id="polyline7489" transform="rotate(0) translate(17 0)" stroke="#333" stroke-width="0.3" points="0,0 2.5,0"/>
        <polyline id="polyline7491" transform="rotate(15) translate(17 0)" stroke="#333" stroke-width="0.3" points="0,0 2.5,0"/>
        <polyline id="polyline7493" transform="rotate(30) translate(17 0)" stroke="#333" stroke-width="0.3" points="0,0 2.5,0"/>
        <polyline id="polyline7495" transform="rotate(45) translate(17 0)" stroke="#333" stroke-width="0.3" points="0,0 2.5,0"/>
        <text id="text7497" transform="rotate(60) translate(20 0) rotate(-60) translate(-2 2)" font-size="5pt">+</text>
      </g>
    </symbol>
    <symbol viewBox="0 0 45px 45px" id="dial-drywet-cmpdist">
      <g id="g7524" transform="translate(22.5 22.5)">
        <text id="text7502" transform="rotate(-240) translate(20 0) rotate(240) translate(-2.5 3)" font-size="5pt">D</text>
        <polyline id="polyline7504" transform="rotate(-210) translate(17 0)" stroke="#333" stroke-width="0.3" points="0,0 2.5,0"/>
        <polyline id="polyline7506" transform="rotate(-180) translate(17 0)" stroke="#333" stroke-width="0.3" points="0,0 2.5,0"/>
        <polyline id="polyline7508" transform="rotate(-150) translate(17 0)" stroke="#333" stroke-width="0.3" points="0,0 2.5,0"/>
        <polyline id="polyline7510" transform="rotate(-120) translate(17 0)" stroke="#333" stroke-width="0.3" points="0,0 2.5,0"/>
        <polyline id="polyline7512" transform="rotate(-90) translate(17 0)" stroke="#333" stroke-width="1" points="0,0 4.5,0"/>
        <polyline id="polyline7514" transform="rotate(-60) translate(17 0)" stroke="#333" stroke-width="0.3" points="0,0 2.5,0"/>
        <polyline id="polyline7516" transform="rotate(-30) translate(17 0)" stroke="#333" stroke-width="0.3" points="0,0 2.5,0"/>
        <polyline id="polyline7518" transform="rotate(0) translate(17 0)" stroke="#333" stroke-width="0.3" points="0,0 2.5,0"/>
        <polyline id="polyline7520" transform="rotate(30) translate(17 0)" stroke="#333" stroke-width="0.3" points="0,0 2.5,0"/>
        <text id="text7522" transform="rotate(60) translate(20 0) rotate(-60) translate(-2 3)" font-size="5pt">W</text>
      </g>
    </symbol>
  </defs>
  <svg version="1.1" id="svg7531" width="100%" height="100%">
    <path class="module-background background-fill" d="M 0,0 H 150 V 380 H 0 Z" style="fill:#dddddd" id="rect7529"/>
  </svg>
  <svg version="1.1" id="svg7539" width="100%" height="100%">
    <path class="module-border-inner" d="M 1,1 H 149 V 379 H 1 V 1" style="fill:none;stroke:#e4e4e4;stroke-width:0.5" id="polyline7533"/>
    <path class="module-border-middle" d="m 0.5,0.5 h 149 v 379 H 0.5 V 0.5" style="fill:none;stroke:#ebebeb;stroke-width:0.8" id="polyline7535"/>
    <path class="module-border-outer" d="M 0,0 H 150 V 380 H 0 V 0" style="fill:none;stroke:#f2f2f2;stroke-width:1" id="polyline7537"/>
  </svg>
  <g class="title" style="font-weight:normal;font-size:16px;font-family:Comfortaa, sans-serif;letter-spacing:4px;text-anchor:middle;fill:#333333" id="text7541" aria-label="CMPDIST">
    <path id="path8521" style="font-weight:normal;font-size:16px;font-family:Comfortaa, sans-serif;letter-spacing:4px;text-anchor:middle;fill:#333333" d="m 32.716,19.16 q -1.696,0 -3.12,-0.864 -1.424,-0.864 -2.272,-2.336 -0.832,-1.472 -0.832,-3.216 0,-1.728 0.832,-3.2 0.832,-1.472 2.256,-2.336 1.424,-0.864 3.136,-0.864 1.152,0 2.096,0.336 0.944,0.336 1.824,1.072 0.176,0.128 0.176,0.368 0,0.128 -0.064,0.24 -0.064,0.096 -0.176,0.144 -0.032,0.112 -0.144,0.176 -0.112,0.064 -0.24,0.064 -0.24,0 -0.4,-0.144 -0.624,-0.56 -1.36,-0.816 -0.736,-0.256 -1.712,-0.256 -1.344,0 -2.496,0.72 -1.152,0.704 -1.84,1.904 -0.672,1.2 -0.672,2.592 0,1.424 0.672,2.624 0.672,1.2 1.824,1.904 1.152,0.704 2.512,0.704 1.744,0 3.152,-1.12 0.176,-0.128 0.352,-0.128 0.24,0 0.416,0.176 0.176,0.16 0.176,0.432 0,0.256 -0.176,0.448 -1.504,1.376 -3.92,1.376 z"/>
    <path id="path8523" style="font-weight:normal;font-size:16px;font-family:Comfortaa, sans-serif;letter-spacing:4px;text-anchor:middle;fill:#333333" d="m 55.33175,6.504 q 0.256,0 0.432,0.176 0.176,0.176 0.176,0.448 v 11.248 q 0,0.256 -0.176,0.448 -0.176,0.176 -0.432,0.176 -0.272,0 -0.464,-0.176 -0.176,-0.192 -0.176,-0.448 V 9.32 l -4.448,9.088 q -0.192,0.304 -0.544,0.304 -0.4,0 -0.576,-0.384 l -4.432,-8.864 v 8.912 q 0,0.256 -0.176,0.448 -0.176,0.176 -0.448,0.176 -0.256,0 -0.448,-0.176 -0.176,-0.192 -0.176,-0.448 V 7.128 q 0,-0.272 0.176,-0.448 0.192,-0.176 0.448,-0.176 0.368,0 0.56,0.32 l 5.12,10.176 5.024,-10.176 q 0.192,-0.32 0.56,-0.32 z"/>
    <path id="path8525" style="font-weight:normal;font-size:16px;font-family:Comfortaa, sans-serif;letter-spacing:4px;text-anchor:middle;fill:#333333" d="m 63.75525,19 q -0.272,0 -0.448,-0.176 -0.176,-0.176 -0.176,-0.448 V 7.128 q 0,-0.272 0.176,-0.448 0.176,-0.176 0.448,-0.176 h 3.2 q 1.168,0 2.08,0.528 0.928,0.512 1.44,1.44 0.512,0.912 0.512,2.096 0,1.168 -0.512,2.08 -0.512,0.912 -1.44,1.424 -0.912,0.512 -2.08,0.512 h -2.576 v 3.792 q 0,0.272 -0.176,0.448 -0.176,0.176 -0.448,0.176 z m 3.2,-5.616 q 0.816,0 1.456,-0.352 0.64,-0.368 0.992,-1.008 0.368,-0.64 0.368,-1.456 0,-0.832 -0.368,-1.472 -0.352,-0.656 -0.992,-1.024 -0.64,-0.368 -1.456,-0.368 h -2.576 v 5.68 z"/>
    <path id="path8527" style="font-weight:normal;font-size:16px;font-family:Comfortaa, sans-serif;letter-spacing:4px;text-anchor:middle;fill:#333333" d="m 77.5365,19 q -0.272,0 -0.448,-0.176 -0.176,-0.176 -0.176,-0.448 V 7.128 q 0,-0.272 0.176,-0.448 0.176,-0.176 0.448,-0.176 h 2.88 q 1.808,0 3.232,0.8 1.424,0.8 2.208,2.224 0.8,1.408 0.8,3.216 0,1.808 -0.8,3.232 -0.784,1.424 -2.208,2.224 -1.424,0.8 -3.232,0.8 z m 2.88,-1.12 q 1.456,0 2.592,-0.656 1.136,-0.672 1.776,-1.84 0.64,-1.168 0.64,-2.64 0,-1.472 -0.64,-2.64 -0.64,-1.168 -1.776,-1.824 -1.136,-0.656 -2.592,-0.656 h -2.256 V 17.88 Z"/>
    <path id="path8529" style="font-weight:normal;font-size:16px;font-family:Comfortaa, sans-serif;letter-spacing:4px;text-anchor:middle;fill:#333333" d="m 93.849,19 q -0.256,0 -0.448,-0.176 -0.176,-0.192 -0.176,-0.448 V 7.128 q 0,-0.272 0.176,-0.448 0.192,-0.176 0.448,-0.176 0.272,0 0.448,0.176 0.176,0.176 0.176,0.448 v 11.248 q 0,0.256 -0.176,0.448 Q 94.121,19 93.849,19 Z"/>
    <path id="path8531" style="font-weight:normal;font-size:16px;font-family:Comfortaa, sans-serif;letter-spacing:4px;text-anchor:middle;fill:#333333" d="m 105.5025,19.16 q -1.52,0 -2.704,-0.64 -1.168,-0.656 -1.68,-1.76 -0.064,-0.112 -0.064,-0.256 0,-0.224 0.16,-0.368 0.176,-0.16 0.464,-0.16 0.192,0 0.352,0.112 0.176,0.096 0.256,0.288 0.368,0.72 1.216,1.168 0.864,0.432 2,0.432 1.312,0 2.112,-0.624 0.8,-0.64 0.8,-1.776 0,-1.008 -0.752,-1.696 -0.736,-0.688 -2.224,-0.88 -1.856,-0.224 -2.928,-1.152 -1.056,-0.944 -1.056,-2.304 0,-0.96 0.512,-1.68 0.528,-0.736 1.44,-1.12 0.928,-0.4 2.096,-0.4 1.264,0 2.224,0.56 0.96,0.56 1.504,1.456 0.112,0.176 0.112,0.384 0,0.304 -0.288,0.48 -0.128,0.064 -0.288,0.064 -0.176,0 -0.336,-0.08 -0.144,-0.096 -0.24,-0.256 -0.896,-1.408 -2.704,-1.424 -1.296,0 -2.048,0.544 -0.752,0.544 -0.752,1.552 0,1.872 3.024,2.272 1.984,0.288 2.96,1.216 0.976,0.928 0.976,2.448 0,1.12 -0.544,1.936 -0.544,0.816 -1.488,1.248 -0.944,0.416 -2.112,0.416 z"/>
    <path id="path8533" style="font-weight:normal;font-size:16px;font-family:Comfortaa, sans-serif;letter-spacing:4px;text-anchor:middle;fill:#333333" d="m 123.69525,6.504 q 0.256,0 0.416,0.16 0.16,0.16 0.16,0.416 0,0.24 -0.16,0.4 -0.16,0.16 -0.416,0.16 h -3.808 v 10.736 q 0,0.256 -0.176,0.448 -0.176,0.176 -0.448,0.176 -0.256,0 -0.448,-0.176 -0.176,-0.192 -0.176,-0.448 V 7.64 h -3.792 q -0.256,0 -0.416,-0.16 -0.16,-0.16 -0.16,-0.4 0,-0.256 0.16,-0.416 0.16,-0.16 0.416,-0.16 z"/>
  </g>
  <g transform="translate(0,374)" id="g7547">
    <g class="brand" style="font-weight:bold;font-size:10.6667px;font-family:Audiowide, sans-serif;letter-spacing:2px;text-anchor:middle;fill:#333333" id="text7543" transform="translate(75)" aria-label="BOGAUDIO">
      <path id="path8503" style="font-weight:bold;font-size:10.6667px;font-family:Audiowide, sans-serif;letter-spacing:2px;text-anchor:middle;fill:#333333" d="m -31.42716,-1.6406302 q 0,0.2500008 -0.08854,0.53646 -0.08333,0.28645928 -0.281251,0.53125172 -0.192709,0.24479244 -0.50521,0.41145964 Q -32.614664,0 -33.067791,0 h -5.140641 q -0.145834,0 -0.270834,-0.0520835 -0.125001,-0.0520835 -0.218751,-0.14062544 -0.08854,-0.0937503 -0.140625,-0.21875069 -0.05208,-0.1250004 -0.05208,-0.27083419 V -6.7864798 q 0,-0.1406254 0.05208,-0.2656258 0.05208,-0.1250004 0.140625,-0.2187507 0.09375,-0.09375 0.218751,-0.1458338 0.125,-0.052083 0.270834,-0.052083 h 4.531264 q 0.250001,0 0.53646,0.088542 0.28646,0.088542 0.531252,0.2864592 0.250001,0.1927089 0.41146,0.5052099 0.166667,0.312501 0.166667,0.7656274 v 0.2552092 q 0,0.3593761 -0.119792,0.7760441 -0.119792,0.4114596 -0.385418,0.7812525 0.229167,0.1406254 0.427085,0.3385427 0.203125,0.1979173 0.354167,0.4583348 0.151043,0.2604175 0.239585,0.5885435 0.08854,0.328126 0.08854,0.7239606 z m -1.354171,-0.2604175 q 0,-0.2656258 -0.08333,-0.4739598 -0.08333,-0.2135423 -0.234376,-0.3645845 -0.151042,-0.1510421 -0.364584,-0.2291674 -0.213543,-0.083334 -0.479168,-0.083334 h -3.052093 v -1.3645876 h 2.442716 q 0.265625,0 0.479168,-0.078125 0.213542,-0.083334 0.364584,-0.2343757 0.151042,-0.1510422 0.229168,-0.3593761 0.08333,-0.2135424 0.08333,-0.4791682 v -0.2552092 q 0,-0.2916675 -0.281251,-0.2916675 h -3.859387 v 4.7604317 h 4.468764 q 0.03646,0 0.08854,-0.00521 0.05208,-0.00521 0.09375,-0.03125 0.04167,-0.026042 0.07292,-0.088542 0.03125,-0.0625 0.03125,-0.1718756 z"/>
      <path id="path8505" style="font-weight:bold;font-size:10.6667px;font-family:Audiowide, sans-serif;letter-spacing:2px;text-anchor:middle;fill:#333333" d="m -20.416715,-3.0208429 q 0,0.6822938 -0.234376,1.2552123 -0.234375,0.5729185 -0.651043,0.98958648 -0.416668,0.41666798 -0.989587,0.65104373 -0.56771,0.22916739 -1.239587,0.22916739 h -1.833339 q -0.671877,0 -1.244796,-0.22916739 -0.572918,-0.23437575 -0.989586,-0.65104373 -0.416668,-0.41666798 -0.656252,-0.98958648 -0.234376,-0.5729185 -0.234376,-1.2552123 v -1.4270878 q 0,-0.6770855 0.234376,-1.250004 0.239584,-0.5781268 0.656252,-0.9895864 0.416668,-0.416668 0.989586,-0.6510437 0.572919,-0.2343758 1.244796,-0.2343758 h 1.833339 q 0.671877,0 1.239587,0.2343758 0.572919,0.2343757 0.989587,0.6510437 0.416668,0.4114596 0.651043,0.9895864 0.234376,0.5729185 0.234376,1.250004 z m -1.354171,-1.4270878 q 0,-0.401043 -0.130209,-0.7239606 -0.125,-0.3281261 -0.359376,-0.5572935 -0.229167,-0.2343757 -0.557293,-0.3593761 -0.322918,-0.1302087 -0.713544,-0.1302087 h -1.833339 q -0.395835,0 -0.723961,0.1302087 -0.322918,0.1250004 -0.557293,0.3593761 -0.234376,0.2291674 -0.364585,0.5572935 -0.125,0.3229176 -0.125,0.7239606 v 1.4270878 q 0,0.401043 0.125,0.729169 0.130209,0.3229177 0.364585,0.5572934 0.234375,0.2291674 0.557293,0.3593762 0.328126,0.1250004 0.723961,0.1250004 h 1.822922 q 0.395835,0 0.718752,-0.1250004 0.328126,-0.1302088 0.562502,-0.3593762 0.234376,-0.2343757 0.359376,-0.5572934 0.130209,-0.328126 0.130209,-0.729169 z"/>
      <path id="path8507" style="font-weight:bold;font-size:10.6667px;font-family:Audiowide, sans-serif;letter-spacing:2px;text-anchor:middle;fill:#333333" d="m -9.6979369,-0.68229382 q 0,0.14583379 -0.052084,0.27083419 -0.052084,0.12500039 -0.1458338,0.21875069 -0.088542,0.0885419 -0.2135428,0.14062544 Q -10.234397,0 -10.380231,0 h -4.885432 q -0.1875,0 -0.406251,-0.0416668 -0.213542,-0.04687515 -0.427085,-0.14062544 -0.208334,-0.0937503 -0.401043,-0.23958409 -0.192709,-0.15104215 -0.343751,-0.35937614 -0.145834,-0.21354234 -0.234376,-0.48958483 -0.08854,-0.2812509 -0.08854,-0.6302104 v -3.6666782 q 0,-0.1875006 0.04167,-0.401043 0.04687,-0.2187506 0.140626,-0.4270846 0.09375,-0.2135424 0.244792,-0.4062513 0.151042,-0.192709 0.359376,-0.3385428 0.213543,-0.1510421 0.489585,-0.239584 0.276043,-0.088542 0.625002,-0.088542 h 5.5052259 v 1.354171 h -5.5052259 q -0.265626,0 -0.406251,0.1406254 -0.140626,0.1406254 -0.140626,0.416668 v 3.6562615 q 0,0.2604175 0.140626,0.4062513 0.145834,0.1406255 0.406251,0.1406255 h 4.213555 V -3.052093 h -3.604178 v -1.3645876 h 4.276055 q 0.145834,0 0.270834,0.057292 0.1250009,0.052083 0.2135428,0.1458338 0.09375,0.09375 0.1458338,0.2187507 0.052084,0.1197921 0.052084,0.2604175 z"/>
      <path id="path8509" style="font-weight:bold;font-size:10.6667px;font-family:Audiowide, sans-serif;letter-spacing:2px;text-anchor:middle;fill:#333333" d="M 1.052091,0 H -0.30207998 V -1.8333391 H -5.0625117 V 0 h -1.3541709 v -3.7343868 q 0,-0.8177109 0.2812509,-1.5052131 0.2812508,-0.6875022 0.7812524,-1.1822954 0.5000016,-0.4947932 1.1822954,-0.7708358 0.6822939,-0.2760425 1.4895881,-0.2760425 h 3.05209295 q 0.14062544,0 0.26562583,0.052083 0.1250004,0.052084 0.2187507,0.1458338 0.0937503,0.09375 0.14583382,0.2187507 0.052084,0.1250004 0.052084,0.2656258 z m -6.1146027,-3.1875101 h 4.76043172 V -6.1146026 H -2.6822958 q -0.0625,0 -0.2656259,0.020833 -0.1979173,0.015625 -0.4635431,0.088542 -0.2604175,0.072917 -0.5520851,0.223959 -0.2916676,0.1510422 -0.53646,0.416668 -0.2447924,0.2656259 -0.4062513,0.6666688 -0.1562505,0.3958346 -0.1562505,0.9635447 z"/>
      <path id="path8511" style="font-weight:bold;font-size:10.6667px;font-family:Audiowide, sans-serif;letter-spacing:2px;text-anchor:middle;fill:#333333" d="m 11.937537,-0.68229382 q 0,0.14583379 -0.05208,0.27083419 -0.05208,0.12500039 -0.145833,0.21875069 -0.09375,0.0885419 -0.218751,0.14062544 Q 11.395868,0 11.255243,0 H 8.20315 Q 7.770857,0 7.3281473,-0.0937503 6.8854376,-0.18750059 6.4687696,-0.38020953 6.0573099,-0.57812683 5.6927255,-0.88021111 5.328141,-1.1822954 5.0520984,-1.593755 4.7812642,-2.010423 4.6250137,-2.5416747 4.4687633,-3.0781347 4.4687633,-3.7343868 v -3.7343868 h 1.3541709 v 3.7343868 q 0,0.5729185 0.1562505,0.9687531 0.1614588,0.3958345 0.4062513,0.6614604 0.2447924,0.2656258 0.53646,0.416668 0.2916676,0.1510421 0.5520851,0.223959 0.2656258,0.072917 0.4635431,0.09375 0.2031257,0.015625 0.2656258,0.015625 h 2.380216 v -6.1146027 h 1.354171 z"/>
      <path id="path8513" style="font-weight:bold;font-size:10.6667px;font-family:Audiowide, sans-serif;letter-spacing:2px;text-anchor:middle;fill:#333333" d="m 22.968813,-3.1250099 q 0,0.6822939 -0.239584,1.2552123 -0.234376,0.5729185 -0.651044,0.98958649 -0.416668,0.41145963 -0.989587,0.64583537 Q 20.51568,0 19.843803,0 h -3.656262 q -0.145834,0 -0.270834,-0.0520835 -0.125,-0.0520835 -0.218751,-0.14062544 -0.08854,-0.0937503 -0.140625,-0.21875069 -0.05208,-0.1250004 -0.05208,-0.27083419 V -6.7864798 q 0,-0.1406254 0.05208,-0.2656258 0.05208,-0.1250004 0.140625,-0.2187507 0.09375,-0.09375 0.218751,-0.1458338 0.125,-0.052083 0.270834,-0.052083 h 3.656262 q 0.671877,0 1.244795,0.2343757 0.572919,0.2343758 0.989587,0.6510438 0.416668,0.4114596 0.651044,0.9895864 0.239584,0.5729185 0.239584,1.250004 z m -1.354171,-1.2187538 q 0,-0.3958346 -0.130209,-0.7239606 -0.125,-0.3281261 -0.359376,-0.5572935 -0.234376,-0.2343757 -0.562502,-0.3593761 -0.322918,-0.1302087 -0.718752,-0.1302087 h -2.984385 v 4.7604317 h 2.984385 q 0.395834,0 0.718752,-0.1250004 0.328126,-0.1302088 0.562502,-0.3593762 0.234376,-0.2343757 0.359376,-0.5572934 0.130209,-0.328126 0.130209,-0.729169 z"/>
      <path id="path8515" style="font-weight:bold;font-size:10.6667px;font-family:Audiowide, sans-serif;letter-spacing:2px;text-anchor:middle;fill:#333333" d="m 27.671946,0 h -1.35417 v -7.4687736 h 1.35417 z"/>
      <path id="path8517" style="font-weight:bold;font-size:10.6667px;font-family:Audiowide, sans-serif;letter-spacing:2px;text-anchor:middle;fill:#333333" d="m 39.104269,-3.0208429 q 0,0.6822938 -0.234376,1.2552123 -0.234376,0.5729185 -0.651044,0.98958648 -0.416668,0.41666798 -0.989586,0.65104373 Q 36.661553,0.104167 35.989676,0.104167 h -1.83334 q -0.671877,0 -1.244795,-0.22916739 -0.572919,-0.23437575 -0.989587,-0.65104373 -0.416668,-0.41666798 -0.656252,-0.98958648 -0.234375,-0.5729185 -0.234375,-1.2552123 v -1.4270878 q 0,-0.6770855 0.234375,-1.250004 0.239584,-0.5781268 0.656252,-0.9895864 0.416668,-0.416668 0.989587,-0.6510437 0.572918,-0.2343758 1.244795,-0.2343758 h 1.83334 q 0.671877,0 1.239587,0.2343758 0.572918,0.2343757 0.989586,0.6510437 0.416668,0.4114596 0.651044,0.9895864 0.234376,0.5729185 0.234376,1.250004 z m -1.354171,-1.4270878 q 0,-0.401043 -0.130209,-0.7239606 -0.125,-0.3281261 -0.359376,-0.5572935 -0.229167,-0.2343757 -0.557294,-0.3593761 -0.322917,-0.1302087 -0.713543,-0.1302087 h -1.83334 q -0.395834,0 -0.72396,0.1302087 -0.322918,0.1250004 -0.557294,0.3593761 -0.234375,0.2291674 -0.364584,0.5572935 -0.125,0.3229176 -0.125,0.7239606 v 1.4270878 q 0,0.401043 0.125,0.729169 0.130209,0.3229177 0.364584,0.5572934 0.234376,0.2291674 0.557294,0.3593762 0.328126,0.1250004 0.72396,0.1250004 h 1.822923 q 0.395834,0 0.718752,-0.1250004 0.328126,-0.1302088 0.562502,-0.3593762 0.234376,-0.2343757 0.359376,-0.5572934 0.130209,-0.328126 0.130209,-0.729169 z"/>
    </g>
    <path class="background-fill" d="M 0,0 H 3 V 3 H 0 Z" style="fill:#dddddd" transform="translate(59.5,-5)" id="rect7545"/>
  </g>
  <g style="font-weight:bold;font-size:8px;font-family:Roboto, sans-serif;letter-spacing:1px;fill:#333333" id="text7551" aria-label="A SCALE">
    <path id="path8490" style="font-weight:bold;font-size:8px;font-family:Roboto, sans-serif;letter-spacing:1px;fill:#333333" d="M 13.21875,33.828125 H 11.164063 L 10.773438,35 H 9.5273438 l 2.1171872,-5.6875 h 1.085938 L 14.859375,35 h -1.246094 z m -1.738281,-0.949219 h 1.421875 L 12.1875,30.75 Z"/>
    <path id="path8492" style="font-weight:bold;font-size:8px;font-family:Roboto, sans-serif;letter-spacing:1px;fill:#333333" d="m 22.347656,33.507812 q 0,-0.332031 -0.234375,-0.507812 -0.234375,-0.179688 -0.84375,-0.375 -0.609375,-0.199219 -0.964844,-0.390625 -0.96875,-0.523438 -0.96875,-1.410156 0,-0.460938 0.257813,-0.820313 0.261719,-0.363281 0.746094,-0.566406 0.488281,-0.203125 1.09375,-0.203125 0.609375,0 1.085937,0.222656 0.476563,0.21875 0.738281,0.621094 0.265625,0.402344 0.265625,0.914062 h -1.171875 q 0,-0.390625 -0.246093,-0.605468 -0.246094,-0.21875 -0.691407,-0.21875 -0.429687,0 -0.667968,0.183593 -0.238282,0.179688 -0.238282,0.476563 0,0.277344 0.277344,0.464844 0.28125,0.1875 0.824219,0.351562 1,0.300781 1.457031,0.746094 0.457031,0.445312 0.457031,1.109375 0,0.738281 -0.558593,1.160156 -0.558594,0.417969 -1.503907,0.417969 -0.65625,0 -1.195312,-0.238281 -0.539063,-0.242188 -0.824219,-0.660157 -0.28125,-0.417968 -0.28125,-0.96875 h 1.175781 q 0,0.941407 1.125,0.941407 0.417969,0 0.652344,-0.167969 0.234375,-0.171875 0.234375,-0.476563 z"/>
    <path id="path8494" style="font-weight:bold;font-size:8px;font-family:Roboto, sans-serif;letter-spacing:1px;fill:#333333" d="m 29.785156,33.105469 q -0.06641,0.917968 -0.679687,1.445312 -0.609375,0.527344 -1.609375,0.527344 -1.09375,0 -1.722657,-0.734375 -0.625,-0.738281 -0.625,-2.023438 v -0.347656 q 0,-0.820312 0.289063,-1.445312 0.289062,-0.625 0.824219,-0.957032 0.539062,-0.335937 1.25,-0.335937 0.984375,0 1.585937,0.527344 0.601563,0.527343 0.695313,1.480468 h -1.171875 q -0.04297,-0.550781 -0.308594,-0.796875 -0.261719,-0.25 -0.800781,-0.25 -0.585938,0 -0.878907,0.421875 -0.289062,0.417969 -0.296875,1.300782 v 0.429687 q 0,0.921875 0.277344,1.347656 0.28125,0.425782 0.882813,0.425782 0.542968,0 0.808593,-0.246094 0.269532,-0.25 0.308594,-0.769531 z"/>
    <path id="path8496" style="font-weight:bold;font-size:8px;font-family:Roboto, sans-serif;letter-spacing:1px;fill:#333333" d="M 34.765625,33.828125 H 32.710937 L 32.320312,35 h -1.246093 l 2.117187,-5.6875 h 1.085938 L 36.40625,35 h -1.246094 z m -1.738281,-0.949219 h 1.421875 L 33.734375,30.75 Z"/>
    <path id="path8498" style="font-weight:bold;font-size:8px;font-family:Roboto, sans-serif;letter-spacing:1px;fill:#333333" d="m 39.117187,34.058594 h 2.488282 V 35 h -3.660157 v -5.6875 h 1.171875 z"/>
    <path id="path8500" style="font-weight:bold;font-size:8px;font-family:Roboto, sans-serif;letter-spacing:1px;fill:#333333" d="m 46.695312,32.535156 h -2.25 v 1.523438 h 2.640625 V 35 h -3.8125 v -5.6875 h 3.804688 v 0.949219 h -2.632813 v 1.355468 h 2.25 z"/>
  </g>
  <g transform="translate(6,38)" id="g7553"/>
  <g transform="translate(6,38)" id="use7555">
    <g transform="translate(22.5,22.5)" id="g7926">
      <g style="font-weight:bold;font-size:9.33333px;font-family:Roboto, sans-serif;fill:#333333" id="text7884" transform="translate(-11.2,19.520508)" aria-label="-">
        <path id="path8463" style="font-weight:bold;font-size:9.33333px;font-family:Roboto, sans-serif;fill:#333333" d="M 3.0670562,-2.3105461 H 0.50130191 V -3.3723947 H 3.0670562 Z"/>
      </g>
      <path d="M 0,0 H 2.5" style="stroke:#333333;stroke-width:0.3" transform="rotate(135,-8.5,3.5208153)" id="polyline7886"/>
      <path d="M 0,0 H 2.5" style="stroke:#333333;stroke-width:0.3" transform="rotate(150,-8.5,2.2775681)" id="polyline7888"/>
      <path d="M 0,0 H 2.5" style="stroke:#333333;stroke-width:0.3" transform="rotate(165,-8.5,1.1190462)" id="polyline7890"/>
      <path d="M 0,0 H 2.5" style="stroke:#333333;stroke-width:0.3" transform="rotate(180,-8.5,0)" id="polyline7892"/>
      <path d="M 0,0 H 3.5" style="stroke:#333333;stroke-width:1" transform="rotate(-165,-8.5,-1.1190462)" id="polyline7894"/>
      <path d="M 0,0 H 2.5" style="stroke:#333333;stroke-width:0.3" transform="rotate(-150,-8.5,-2.2775681)" id="polyline7896"/>
      <path d="M 0,0 H 2.5" style="stroke:#333333;stroke-width:0.3" transform="rotate(-135,-8.5,-3.5208153)" id="polyline7898"/>
      <path d="M 0,0 H 2.5" style="stroke:#333333;stroke-width:0.3" transform="rotate(-120,-8.5,-4.9074773)" id="polyline7900"/>
      <path d="M 0,0 H 2.5" style="stroke:#333333;stroke-width:0.3" transform="rotate(-105,-8.5,-6.5222794)" id="polyline7902"/>
      <g style="font-weight:bold;font-size:6.66667px;font-family:Roboto, sans-serif;fill:#333333" id="text7904" transform="translate(-1.9,-17)" aria-label="0">
        <path id="path8475" style="font-weight:bold;font-size:6.66667px;font-family:Roboto, sans-serif;fill:#333333" d="m 3.5123715,-1.9596364 q 0,0.98307343 -0.4069013,1.50390702 Q 2.698569,0.0651042 1.9140634,0.0651042 q -0.7747399,0 -1.18489639,-0.51106795 Q 0.31901057,-0.95703171 0.30924494,-1.9108082 v -0.8723963 q 0,-0.992839 0.41015644,-1.5071621 0.41341162,-0.5143232 1.18815162,-0.5143232 0.7747399,0 1.1848964,0.511068 0.4101564,0.5078127 0.4199221,1.4615892 z M 2.5716158,-2.9166681 q 0,-0.5891929 -0.1627605,-0.8561202 Q 2.24935,-4.0429707 1.907553,-4.0429707 q -0.3320314,0 -0.4915367,0.2571616 -0.1562501,0.2539064 -0.1660157,0.7975264 v 1.1523443 q 0,0.5794274 0.1562501,0.86263064 0.1595053,0.27994805 0.5078127,0.27994805 0.3450523,0 0.4980471,-0.27018242 0.1529949,-0.27018237 0.1595053,-0.82682327 z"/>
      </g>
      <path d="M 0,0 H 2.5" style="stroke:#333333;stroke-width:0.3" transform="rotate(-75,-8.5,-11.077416)" id="polyline7906"/>
      <path d="M 0,0 H 2.5" style="stroke:#333333;stroke-width:0.3" transform="rotate(-60,-8.5,-14.722432)" id="polyline7908"/>
      <path d="M 0,0 H 2.5" style="stroke:#333333;stroke-width:0.3" transform="rotate(-45,-8.5,-20.520815)" id="polyline7910"/>
      <path d="M 0,0 H 2.5" style="stroke:#333333;stroke-width:0.3" transform="rotate(-30,-8.5,-31.722432)" id="polyline7912"/>
      <path d="M 0,0 H 3.5" style="stroke:#333333;stroke-width:1" transform="rotate(-15,-8.5,-64.56391)" id="polyline7914"/>
      <path d="M 0,0 H 2.5" style="stroke:#333333;stroke-width:0.3" transform="translate(17)" id="polyline7916"/>
      <path d="M 0,0 H 2.5" style="stroke:#333333;stroke-width:0.3" transform="rotate(15,-8.5,64.56391)" id="polyline7918"/>
      <path d="M 0,0 H 2.5" style="stroke:#333333;stroke-width:0.3" transform="rotate(30,-8.5,31.722432)" id="polyline7920"/>
      <path d="M 0,0 H 2.5" style="stroke:#333333;stroke-width:0.3" transform="rotate(45,-8.5,20.520815)" id="polyline7922"/>
      <g style="font-weight:bold;font-size:6.66667px;font-family:Roboto, sans-serif;fill:#333333" id="text7924" transform="translate(8,19.320508)" aria-label="+">
        <path id="path8487" style="font-weight:bold;font-size:6.66667px;font-family:Roboto, sans-serif;fill:#333333" d="m 2.2591157,-2.6529961 h 1.1751307 v 0.8496098 H 2.2591157 v 1.32812566 H 1.3639329 V -1.8033863 H 0.18554696 V -2.6529961 H 1.3639329 v -1.272787 h 0.8951828 z"/>
      </g>
    </g>
  </g>
  <g style="font-weight:bold;font-size:8px;font-family:Roboto, sans-serif;letter-spacing:1px;fill:#333333" id="text7559" aria-label="WINDOW">
    <path id="path8450" style="font-weight:bold;font-size:8px;font-family:Roboto, sans-serif;letter-spacing:1px;fill:#333333" d="M 61.4375,33.359375 62.203125,29.3125 h 1.167969 L 62.109375,35 H 60.929687 L 60.003906,31.195312 59.078125,35 h -1.179688 l -1.261718,-5.6875 h 1.167968 l 0.769532,4.039062 0.9375,-4.039062 h 0.992187 z"/>
    <path id="path8452" style="font-weight:bold;font-size:8px;font-family:Roboto, sans-serif;letter-spacing:1px;fill:#333333" d="m 66.253906,35 h -1.171875 v -5.6875 h 1.171875 z"/>
    <path id="path8454" style="font-weight:bold;font-size:8px;font-family:Roboto, sans-serif;letter-spacing:1px;fill:#333333" d="m 72.960937,35 h -1.171875 l -2.28125,-3.742188 V 35 h -1.171875 v -5.6875 h 1.171875 l 2.285157,3.75 v -3.75 h 1.167968 z"/>
    <path id="path8456" style="font-weight:bold;font-size:8px;font-family:Roboto, sans-serif;letter-spacing:1px;fill:#333333" d="m 74.992187,35 v -5.6875 h 1.75 q 0.75,0 1.339844,0.339844 0.59375,0.335937 0.925781,0.960937 0.332032,0.621094 0.332032,1.414063 v 0.261718 q 0,0.792969 -0.328125,1.410157 Q 78.6875,34.316406 78.09375,34.65625 77.5,34.996094 76.753906,35 Z m 1.171875,-4.738281 v 3.796875 h 0.566407 q 0.6875,0 1.050781,-0.449219 0.363281,-0.449219 0.371094,-1.285156 v -0.300782 q 0,-0.867187 -0.359375,-1.3125 -0.359375,-0.449218 -1.050782,-0.449218 z"/>
    <path id="path8458" style="font-weight:bold;font-size:8px;font-family:Roboto, sans-serif;letter-spacing:1px;fill:#333333" d="m 85.867187,32.285156 q 0,0.839844 -0.296875,1.472656 -0.296875,0.632813 -0.851562,0.976563 -0.550781,0.34375 -1.265625,0.34375 -0.707031,0 -1.261719,-0.339844 -0.554687,-0.339844 -0.859375,-0.96875 -0.304687,-0.632812 -0.308594,-1.453125 v -0.28125 q 0,-0.839844 0.300782,-1.476562 0.304687,-0.640625 0.855468,-0.980469 0.554688,-0.34375 1.265625,-0.34375 0.710938,0 1.261719,0.34375 0.554688,0.339844 0.855469,0.980469 0.304687,0.636718 0.304687,1.472656 z m -1.1875,-0.257812 q 0,-0.894532 -0.320312,-1.359375 -0.320313,-0.464844 -0.914063,-0.464844 -0.589843,0 -0.910156,0.460937 -0.320312,0.457032 -0.324219,1.34375 v 0.277344 q 0,0.871094 0.320313,1.351563 0.320312,0.480468 0.921875,0.480468 0.589844,0 0.90625,-0.460937 0.316406,-0.464844 0.320312,-1.351563 z"/>
    <path id="path8460" style="font-weight:bold;font-size:8px;font-family:Roboto, sans-serif;letter-spacing:1px;fill:#333333" d="M 92.15625,33.359375 92.921875,29.3125 h 1.167969 L 92.828125,35 H 91.648437 L 90.722656,31.195312 89.796875,35 h -1.179688 l -1.261718,-5.6875 h 1.167968 l 0.769532,4.039062 0.9375,-4.039062 h 0.992187 z"/>
  </g>
  <g transform="translate(52.5,38)" id="g7561"/>
  <g transform="translate(52.5,38)" id="g7589">
    <svg version="1.1" id="svg7587" width="100%" height="100%">
      <g transform="translate(22.5,22.5)" id="g7585">
        <g style="font-weight:bold;font-size:6.66667px;font-family:Roboto, sans-serif;fill:#333333" id="text7563" transform="translate(-11.9,19.520508)" aria-label="0">
          <path id="path8433" style="font-weight:bold;font-size:6.66667px;font-family:Roboto, sans-serif;fill:#333333" d="m 3.5123715,-1.9596364 q 0,0.98307343 -0.4069013,1.50390702 Q 2.698569,0.0651042 1.9140634,0.0651042 q -0.7747399,0 -1.18489639,-0.51106795 Q 0.31901057,-0.95703171 0.30924494,-1.9108082 v -0.8723963 q 0,-0.992839 0.41015644,-1.5071621 0.41341162,-0.5143232 1.18815162,-0.5143232 0.7747399,0 1.1848964,0.511068 0.4101564,0.5078127 0.4199221,1.4615892 z M 2.5716158,-2.9166681 q 0,-0.5891929 -0.1627605,-0.8561202 Q 2.24935,-4.0429707 1.907553,-4.0429707 q -0.3320314,0 -0.4915367,0.2571616 -0.1562501,0.2539064 -0.1660157,0.7975264 v 1.1523443 q 0,0.5794274 0.1562501,0.86263064 0.1595053,0.27994805 0.5078127,0.27994805 0.3450523,0 0.4980471,-0.27018242 0.1529949,-0.27018237 0.1595053,-0.82682327 z"/>
        </g>
        <path d="M 0,0 H 2.5" style="stroke:#333333;stroke-width:0.3" transform="rotate(150,-8.5,2.2775681)" id="polyline7565"/>
        <path d="M 0,0 H 2.5" style="stroke:#333333;stroke-width:0.3" transform="rotate(180,-8.5,0)" id="polyline7567"/>
        <path d="M 0,0 H 2.5" style="stroke:#333333;stroke-width:0.3" transform="rotate(-150,-8.5,-2.2775681)" id="polyline7569"/>
        <path d="M 0,0 H 2.5" style="stroke:#333333;stroke-width:0.3" transform="rotate(-120,-8.5,-4.9074773)" id="polyline7571"/>
        <path d="M 0,0 H 3.5" style="stroke:#333333;stroke-width:1" transform="rotate(-90,-8.5,-8.5)" id="polyline7573"/>
        <path d="M 0,0 H 2.5" style="stroke:#333333;stroke-width:0.3" transform="rotate(-60,-8.5,-14.722432)" id="polyline7575"/>
        <path d="M 0,0 H 2.5" style="stroke:#333333;stroke-width:0.3" transform="rotate(-30,-8.5,-31.722432)" id="polyline7577"/>
        <path d="M 0,0 H 2.5" style="stroke:#333333;stroke-width:0.3" transform="translate(17)" id="polyline7579"/>
        <path d="M 0,0 H 2.5" style="stroke:#333333;stroke-width:0.3" transform="rotate(30,-8.5,31.722432)" id="polyline7581"/>
        <g style="font-weight:bold;font-size:6.66667px;font-family:Roboto, sans-serif;fill:#333333" id="text7583" transform="translate(6,19.520508)" aria-label="10">
          <path id="path8445" style="font-weight:bold;font-size:6.66667px;font-family:Roboto, sans-serif;fill:#333333" d="M 2.6074231,0 H 1.6666675 V -3.6263038 L 0.54362005,-3.2779964 V -4.0429707 L 2.5065116,-4.746096 h 0.1009115 z"/>
          <path id="path8447" style="font-weight:bold;font-size:6.66667px;font-family:Roboto, sans-serif;fill:#333333" d="m 7.3404984,-1.9596364 q 0,0.98307343 -0.4069013,1.50390702 -0.4069012,0.52083358 -1.1914068,0.52083358 -0.7747399,0 -1.1848964,-0.51106795 Q 4.1471375,-0.95703171 4.1373718,-1.9108082 v -0.8723963 q 0,-0.992839 0.4101565,-1.5071621 0.4134116,-0.5143232 1.1881516,-0.5143232 0.77474,0 1.1848964,0.511068 0.4101564,0.5078127 0.4199221,1.4615892 z M 6.3997427,-2.9166681 q 0,-0.5891929 -0.1627605,-0.8561202 -0.1595053,-0.2701824 -0.5013023,-0.2701824 -0.3320314,0 -0.4915367,0.2571616 -0.1562501,0.2539064 -0.1660157,0.7975264 v 1.1523443 q 0,0.5794274 0.1562501,0.86263064 0.1595053,0.27994805 0.5078127,0.27994805 0.3450523,0 0.4980471,-0.27018242 0.1529949,-0.27018237 0.1595053,-0.82682327 z"/>
        </g>
      </g>
    </svg>
  </g>
  <g style="font-weight:bold;font-size:8px;font-family:Roboto, sans-serif;letter-spacing:1px;fill:#333333" id="text7593" aria-label="B SCALE">
    <path id="path8420" style="font-weight:bold;font-size:8px;font-family:Roboto, sans-serif;letter-spacing:1px;fill:#333333" d="M 103.00781,35 V 29.3125 H 105 q 1.03516,0 1.57031,0.398437 0.53516,0.394532 0.53516,1.160157 0,0.417968 -0.21484,0.738281 -0.21485,0.316406 -0.59766,0.464844 0.4375,0.109375 0.6875,0.441406 0.25391,0.332031 0.25391,0.8125 0,0.820312 -0.52344,1.242187 Q 106.1875,34.992187 105.21875,35 Z m 1.17188,-2.476563 v 1.535157 h 1.0039 q 0.41407,0 0.64454,-0.195313 0.23437,-0.199219 0.23437,-0.546875 0,-0.78125 -0.80859,-0.792969 z m 0,-0.828125 h 0.86719 q 0.88671,-0.01563 0.88671,-0.707031 0,-0.386719 -0.22656,-0.554687 Q 105.48438,30.261719 105,30.261719 h -0.82031 z"/>
    <path id="path8422" style="font-weight:bold;font-size:8px;font-family:Roboto, sans-serif;letter-spacing:1px;fill:#333333" d="m 115.06641,33.507812 q 0,-0.332031 -0.23438,-0.507812 -0.23437,-0.179688 -0.84375,-0.375 -0.60937,-0.199219 -0.96484,-0.390625 -0.96875,-0.523438 -0.96875,-1.410156 0,-0.460938 0.25781,-0.820313 0.26172,-0.363281 0.74609,-0.566406 0.48829,-0.203125 1.09375,-0.203125 0.60938,0 1.08594,0.222656 0.47656,0.21875 0.73828,0.621094 0.26563,0.402344 0.26563,0.914062 h -1.17188 q 0,-0.390625 -0.24609,-0.605468 -0.24609,-0.21875 -0.69141,-0.21875 -0.42968,0 -0.66797,0.183593 -0.23828,0.179688 -0.23828,0.476563 0,0.277344 0.27735,0.464844 0.28125,0.1875 0.82422,0.351562 1,0.300781 1.45703,0.746094 0.45703,0.445312 0.45703,1.109375 0,0.738281 -0.5586,1.160156 -0.55859,0.417969 -1.5039,0.417969 -0.65625,0 -1.19531,-0.238281 -0.53907,-0.242188 -0.82422,-0.660157 -0.28125,-0.417968 -0.28125,-0.96875 h 1.17578 q 0,0.941407 1.125,0.941407 0.41797,0 0.65234,-0.167969 0.23438,-0.171875 0.23438,-0.476563 z"/>
    <path id="path8424" style="font-weight:bold;font-size:8px;font-family:Roboto, sans-serif;letter-spacing:1px;fill:#333333" d="m 122.50391,33.105469 q -0.0664,0.917968 -0.67969,1.445312 -0.60938,0.527344 -1.60938,0.527344 -1.09375,0 -1.72265,-0.734375 -0.625,-0.738281 -0.625,-2.023438 v -0.347656 q 0,-0.820312 0.28906,-1.445312 0.28906,-0.625 0.82422,-0.957032 0.53906,-0.335937 1.25,-0.335937 0.98437,0 1.58594,0.527344 0.60156,0.527343 0.69531,1.480468 h -1.17188 q -0.043,-0.550781 -0.30859,-0.796875 -0.26172,-0.25 -0.80078,-0.25 -0.58594,0 -0.87891,0.421875 -0.28906,0.417969 -0.29687,1.300782 v 0.429687 q 0,0.921875 0.27734,1.347656 0.28125,0.425782 0.88281,0.425782 0.54297,0 0.8086,-0.246094 0.26953,-0.25 0.30859,-0.769531 z"/>
    <path id="path8426" style="font-weight:bold;font-size:8px;font-family:Roboto, sans-serif;letter-spacing:1px;fill:#333333" d="m 127.48438,33.828125 h -2.05469 L 125.03906,35 h -1.24609 l 2.11719,-5.6875 h 1.08593 L 129.125,35 h -1.24609 z m -1.73829,-0.949219 h 1.42188 L 126.45313,30.75 Z"/>
    <path id="path8428" style="font-weight:bold;font-size:8px;font-family:Roboto, sans-serif;letter-spacing:1px;fill:#333333" d="m 131.83594,34.058594 h 2.48828 V 35 h -3.66016 v -5.6875 h 1.17188 z"/>
    <path id="path8430" style="font-weight:bold;font-size:8px;font-family:Roboto, sans-serif;letter-spacing:1px;fill:#333333" d="m 139.41406,32.535156 h -2.25 v 1.523438 h 2.64063 V 35 h -3.8125 v -5.6875 h 3.80468 v 0.949219 h -2.63281 v 1.355468 h 2.25 z"/>
  </g>
  <g transform="translate(99,38)" id="g7595"/>
  <g transform="translate(99,38)" id="use7597">
    <g transform="translate(22.5,22.5)" id="g7972">
      <g style="font-weight:bold;font-size:9.33333px;font-family:Roboto, sans-serif;fill:#333333" id="text7930" transform="translate(-11.2,19.520508)" aria-label="-">
        <path id="path8393" style="font-weight:bold;font-size:9.33333px;font-family:Roboto, sans-serif;fill:#333333" d="M 3.0670562,-2.3105461 H 0.50130191 V -3.3723947 H 3.0670562 Z"/>
      </g>
      <path d="M 0,0 H 2.5" style="stroke:#333333;stroke-width:0.3" transform="rotate(135,-8.5,3.5208153)" id="polyline7932"/>
      <path d="M 0,0 H 2.5" style="stroke:#333333;stroke-width:0.3" transform="rotate(150,-8.5,2.2775681)" id="polyline7934"/>
      <path d="M 0,0 H 2.5" style="stroke:#333333;stroke-width:0.3" transform="rotate(165,-8.5,1.1190462)" id="polyline7936"/>
      <path d="M 0,0 H 2.5" style="stroke:#333333;stroke-width:0.3" transform="rotate(180,-8.5,0)" id="polyline7938"/>
      <path d="M 0,0 H 3.5" style="stroke:#333333;stroke-width:1" transform="rotate(-165,-8.5,-1.1190462)" id="polyline7940"/>
      <path d="M 0,0 H 2.5" style="stroke:#333333;stroke-width:0.3" transform="rotate(-150,-8.5,-2.2775681)" id="polyline7942"/>
      <path d="M 0,0 H 2.5" style="stroke:#333333;stroke-width:0.3" transform="rotate(-135,-8.5,-3.5208153)" id="polyline7944"/>
      <path d="M 0,0 H 2.5" style="stroke:#333333;stroke-width:0.3" transform="rotate(-120,-8.5,-4.9074773)" id="polyline7946"/>
      <path d="M 0,0 H 2.5" style="stroke:#333333;stroke-width:0.3" transform="rotate(-105,-8.5,-6.5222794)" id="polyline7948"/>
      <g style="font-weight:bold;font-size:6.66667px;font-family:Roboto, sans-serif;fill:#333333" id="text7950" transform="translate(-1.9,-17)" aria-label="0">
        <path id="path8405" style="font-weight:bold;font-size:6.66667px;font-family:Roboto, sans-serif;fill:#333333" d="m 3.5123715,-1.9596364 q 0,0.98307343 -0.4069013,1.50390702 Q 2.698569,0.0651042 1.9140634,0.0651042 q -0.7747399,0 -1.18489639,-0.51106795 Q 0.31901057,-0.95703171 0.30924494,-1.9108082 v -0.8723963 q 0,-0.992839 0.41015644,-1.5071621 0.41341162,-0.5143232 1.18815162,-0.5143232 0.7747399,0 1.1848964,0.511068 0.4101564,0.5078127 0.4199221,1.4615892 z M 2.5716158,-2.9166681 q 0,-0.5891929 -0.1627605,-0.8561202 Q 2.24935,-4.0429707 1.907553,-4.0429707 q -0.3320314,0 -0.4915367,0.2571616 -0.1562501,0.2539064 -0.1660157,0.7975264 v 1.1523443 q 0,0.5794274 0.1562501,0.86263064 0.1595053,0.27994805 0.5078127,0.27994805 0.3450523,0 0.4980471,-0.27018242 0.1529949,-0.27018237 0.1595053,-0.82682327 z"/>
      </g>
      <path d="M 0,0 H 2.5" style="stroke:#333333;stroke-width:0.3" transform="rotate(-75,-8.5,-11.077416)" id="polyline7952"/>
      <path d="M 0,0 H 2.5" style="stroke:#333333;stroke-width:0.3" transform="rotate(-60,-8.5,-14.722432)" id="polyline7954"/>
      <path d="M 0,0 H 2.5" style="stroke:#333333;stroke-width:0.3" transform="rotate(-45,-8.5,-20.520815)" id="polyline7956"/>
      <path d="M 0,0 H 2.5" style="stroke:#333333;stroke-width:0.3" transform="rotate(-30,-8.5,-31.722432)" id="polyline7958"/>
      <path d="M 0,0 H 3.5" style="stroke:#333333;stroke-width:1" transform="rotate(-15,-8.5,-64.56391)" id="polyline7960"/>
      <path d="M 0,0 H 2.5" style="stroke:#333333;stroke-width:0.3" transform="translate(17)" id="polyline7962"/>
      <path d="M 0,0 H 2.5" style="stroke:#333333;stroke-width:0.3" transform="rotate(15,-8.5,64.56391)" id="polyline7964"/>
      <path d="M 0,0 H 2.5" style="stroke:#333333;stroke-width:0.3" transform="rotate(30,-8.5,31.722432)" id="polyline7966"/>
      <path d="M 0,0 H 2.5" style="stroke:#333333;stroke-width:0.3" transform="rotate(45,-8.5,20.520815)" id="polyline7968"/>
      <g style="font-weight:bold;font-size:6.66667px;font-family:Roboto, sans-serif;fill:#333333" id="text7970" transform="translate(8,19.320508)" aria-label="+">
        <path id="path8417" style="font-weight:bold;font-size:6.66667px;font-family:Roboto, sans-serif;fill:#333333" d="m 2.2591157,-2.6529961 h 1.1751307 v 0.8496098 H 2.2591157 v 1.32812566 H 1.3639329 V -1.8033863 H 0.18554696 V -2.6529961 H 1.3639329 v -1.272787 h 0.8951828 z"/>
      </g>
    </g>
  </g>
  <g style="font-weight:bold;font-size:8px;font-family:Roboto, sans-serif;letter-spacing:1px;fill:#333333" id="text7601" aria-label="GT MIX">
    <path id="path8382" style="font-weight:bold;font-size:8px;font-family:Roboto, sans-serif;letter-spacing:1px;fill:#333333" d="m 17.507812,99.28125 q -0.316406,0.378906 -0.894531,0.589844 -0.578125,0.207036 -1.28125,0.207036 -0.738281,0 -1.296875,-0.320318 -0.554687,-0.324218 -0.859375,-0.9375 Q 12.875,98.207031 12.867188,97.378906 v -0.386719 q 0,-0.851562 0.285156,-1.472656 0.289062,-0.625 0.828125,-0.953125 0.542969,-0.332031 1.269531,-0.332031 1.011719,0 1.582031,0.484375 0.570313,0.480469 0.675781,1.402344 h -1.140625 q -0.07813,-0.488282 -0.347656,-0.714844 -0.265625,-0.226563 -0.734375,-0.226563 -0.597656,0 -0.910156,0.449219 -0.3125,0.449219 -0.316406,1.335938 v 0.363281 q 0,0.894531 0.339844,1.351562 0.339843,0.457032 0.996093,0.457032 0.660156,0 0.941406,-0.28125 V 97.875 h -1.066406 v -0.863281 h 2.238281 z"/>
    <path id="path8384" style="font-weight:bold;font-size:8px;font-family:Roboto, sans-serif;letter-spacing:1px;fill:#333333" d="M 23.742187,95.261719 H 22 V 100 h -1.171875 v -4.738281 h -1.71875 V 94.3125 h 4.632812 z"/>
    <path id="path8386" style="font-weight:bold;font-size:8px;font-family:Roboto, sans-serif;letter-spacing:1px;fill:#333333" d="m 29.710937,94.3125 1.460938,4.125 1.453125,-4.125 h 1.539062 V 100 H 32.988281 V 98.445312 L 33.105469,95.761719 31.570312,100 h -0.804687 l -1.53125,-4.234375 0.117187,2.679687 V 100 h -1.171875 v -5.6875 z"/>
    <path id="path8388" style="font-weight:bold;font-size:8px;font-family:Roboto, sans-serif;letter-spacing:1px;fill:#333333" d="m 37.441406,100 h -1.171875 v -5.6875 h 1.171875 z"/>
    <path id="path8390" style="font-weight:bold;font-size:8px;font-family:Roboto, sans-serif;letter-spacing:1px;fill:#333333" d="M 41.621094,96.273437 42.6875,94.3125 h 1.347656 L 42.378906,97.132812 44.078125,100 H 42.714844 L 41.621094,98.007812 40.527344,100 h -1.363282 l 1.699219,-2.867188 -1.65625,-2.820312 h 1.347656 z"/>
  </g>
  <g transform="translate(6,103)" id="g7603"/>
  <g transform="translate(6,103)" id="use7605">
    <g transform="translate(22.5,22.5)" id="g8018">
      <g style="font-weight:bold;font-size:9.33333px;font-family:Roboto, sans-serif;fill:#333333" id="text7976" transform="translate(-11.2,19.520508)" aria-label="-">
        <path id="path8355" style="font-weight:bold;font-size:9.33333px;font-family:Roboto, sans-serif;fill:#333333" d="M 3.0670562,-2.3105461 H 0.50130191 V -3.3723947 H 3.0670562 Z"/>
      </g>
      <path d="M 0,0 H 2.5" style="stroke:#333333;stroke-width:0.3" transform="rotate(135,-8.5,3.5208153)" id="polyline7978"/>
      <path d="M 0,0 H 2.5" style="stroke:#333333;stroke-width:0.3" transform="rotate(150,-8.5,2.2775681)" id="polyline7980"/>
      <path d="M 0,0 H 2.5" style="stroke:#333333;stroke-width:0.3" transform="rotate(165,-8.5,1.1190462)" id="polyline7982"/>
      <path d="M 0,0 H 2.5" style="stroke:#333333;stroke-width:0.3" transform="rotate(180,-8.5,0)" id="polyline7984"/>
      <path d="M 0,0 H 3.5" style="stroke:#333333;stroke-width:1" transform="rotate(-165,-8.5,-1.1190462)" id="polyline7986"/>
      <path d="M 0,0 H 2.5" style="stroke:#333333;stroke-width:0.3" transform="rotate(-150,-8.5,-2.2775681)" id="polyline7988"/>
      <path d="M 0,0 H 2.5" style="stroke:#333333;stroke-width:0.3" transform="rotate(-135,-8.5,-3.5208153)" id="polyline7990"/>
      <path d="M 0,0 H 2.5" style="stroke:#333333;stroke-width:0.3" transform="rotate(-120,-8.5,-4.9074773)" id="polyline7992"/>
      <path d="M 0,0 H 2.5" style="stroke:#333333;stroke-width:0.3" transform="rotate(-105,-8.5,-6.5222794)" id="polyline7994"/>
      <g style="font-weight:bold;font-size:6.66667px;font-family:Roboto, sans-serif;fill:#333333" id="text7996" transform="translate(-1.9,-17)" aria-label="0">
        <path id="path8367" style="font-weight:bold;font-size:6.66667px;font-family:Roboto, sans-serif;fill:#333333" d="m 3.5123715,-1.9596364 q 0,0.98307343 -0.4069013,1.50390702 Q 2.698569,0.0651042 1.9140634,0.0651042 q -0.7747399,0 -1.18489639,-0.51106795 Q 0.31901057,-0.95703171 0.30924494,-1.9108082 v -0.8723963 q 0,-0.992839 0.41015644,-1.5071621 0.41341162,-0.5143232 1.18815162,-0.5143232 0.7747399,0 1.1848964,0.511068 0.4101564,0.5078127 0.4199221,1.4615892 z M 2.5716158,-2.9166681 q 0,-0.5891929 -0.1627605,-0.8561202 Q 2.24935,-4.0429707 1.907553,-4.0429707 q -0.3320314,0 -0.4915367,0.2571616 -0.1562501,0.2539064 -0.1660157,0.7975264 v 1.1523443 q 0,0.5794274 0.1562501,0.86263064 0.1595053,0.27994805 0.5078127,0.27994805 0.3450523,0 0.4980471,-0.27018242 0.1529949,-0.27018237 0.1595053,-0.82682327 z"/>
      </g>
      <path d="M 0,0 H 2.5" style="stroke:#333333;stroke-width:0.3" transform="rotate(-75,-8.5,-11.077416)" id="polyline7998"/>
      <path d="M 0,0 H 2.5" style="stroke:#333333;stroke-width:0.3" transform="rotate(-60,-8.5,-14.722432)" id="polyline8000"/>
      <path d="M 0,0 H 2.5" style="stroke:#333333;stroke-width:0.3" transform="rotate(-45,-8.5,-20.520815)" id="polyline8002"/>
      <path d="M 0,0 H 2.5" style="stroke:#333333;stroke-width:0.3" transform="rotate(-30,-8.5,-31.722432)" id="polyline8004"/>
      <path d="M 0,0 H 3.5" style="stroke:#333333;stroke-width:1" transform="rotate(-15,-8.5,-64.56391)" id="polyline8006"/>
      <path d="M 0,0 H 2.5" style="stroke:#333333;stroke-width:0.3" transform="translate(17)" id="polyline8008"/>
      <path d="M 0,0 H 2.5" style="stroke:#333333;stroke-width:0.3" transform="rotate(15,-8.5,64.56391)" id="polyline8010"/>
      <path d="M 0,0 H 2.5" style="stroke:#333333;stroke-width:0.3" transform="rotate(30,-8.5,31.722432)" id="polyline8012"/>
      <path d="M 0,0 H 2.5" style="stroke:#333333;stroke-width:0.3" transform="rotate(45,-8.5,20.520815)" id="polyline8014"/>
      <g style="font-weight:bold;font-size:6.66667px;font-family:Roboto, sans-serif;fill:#333333" id="text8016" transform="translate(8,19.320508)" aria-label="+">
        <path id="path8379" style="font-weight:bold;font-size:6.66667px;font-family:Roboto, sans-serif;fill:#333333" d="m 2.2591157,-2.6529961 h 1.1751307 v 0.8496098 H 2.2591157 v 1.32812566 H 1.3639329 V -1.8033863 H 0.18554696 V -2.6529961 H 1.3639329 v -1.272787 h 0.8951828 z"/>
      </g>
    </g>
  </g>
  <g style="font-weight:bold;font-size:8px;font-family:Roboto, sans-serif;letter-spacing:1px;fill:#333333" id="text7609" aria-label="EQ MIX">
    <path id="path8344" style="font-weight:bold;font-size:8px;font-family:Roboto, sans-serif;letter-spacing:1px;fill:#333333" d="m 62.929687,97.535156 h -2.25 v 1.523438 h 2.640625 V 100 h -3.8125 V 94.3125 H 63.3125 v 0.949219 h -2.632813 v 1.355468 h 2.25 z"/>
    <path id="path8346" style="font-weight:bold;font-size:8px;font-family:Roboto, sans-serif;letter-spacing:1px;fill:#333333" d="m 69.671875,97.285156 q 0,0.796875 -0.257813,1.386719 -0.257812,0.585937 -0.714843,0.941406 l 0.945312,0.742189 -0.746094,0.66016 -1.210937,-0.97266 q -0.207031,0.0352 -0.429688,0.0352 -0.707031,0 -1.261718,-0.339849 -0.554688,-0.339844 -0.859375,-0.96875 -0.304688,-0.632812 -0.308594,-1.453125 v -0.28125 q 0,-0.839844 0.300781,-1.476562 0.304688,-0.640625 0.855469,-0.980469 0.554687,-0.34375 1.265625,-0.34375 0.710937,0 1.261719,0.34375 0.554687,0.339844 0.855468,0.980469 0.304688,0.636718 0.304688,1.472656 z m -1.1875,-0.257812 q 0,-0.894532 -0.320313,-1.359375 Q 67.84375,95.203125 67.25,95.203125 q -0.589844,0 -0.910156,0.460937 -0.320313,0.457032 -0.324219,1.34375 v 0.277344 q 0,0.871094 0.320312,1.351563 0.320313,0.480468 0.921875,0.480468 0.589844,0 0.90625,-0.460937 0.316407,-0.464844 0.320313,-1.351563 z"/>
    <path id="path8348" style="font-weight:bold;font-size:8px;font-family:Roboto, sans-serif;letter-spacing:1px;fill:#333333" d="m 76.070312,94.3125 1.460938,4.125 1.453125,-4.125 h 1.539062 V 100 H 79.347656 V 98.445312 L 79.464844,95.761719 77.929687,100 H 77.125 l -1.53125,-4.234375 0.117187,2.679687 V 100 h -1.171875 v -5.6875 z"/>
    <path id="path8350" style="font-weight:bold;font-size:8px;font-family:Roboto, sans-serif;letter-spacing:1px;fill:#333333" d="m 83.800781,100 h -1.171875 v -5.6875 h 1.171875 z"/>
    <path id="path8352" style="font-weight:bold;font-size:8px;font-family:Roboto, sans-serif;letter-spacing:1px;fill:#333333" d="M 87.980469,96.273437 89.046875,94.3125 h 1.347656 L 88.738281,97.132812 90.4375,100 H 89.074219 L 87.980469,98.007812 86.886719,100 h -1.363282 l 1.699219,-2.867188 -1.65625,-2.820312 h 1.347656 z"/>
  </g>
  <g transform="translate(52.5,103)" id="g7611"/>
  <g transform="translate(52.5,103)" id="use7613">
    <g transform="translate(22.5,22.5)" id="g8064">
      <g style="font-weight:bold;font-size:9.33333px;font-family:Roboto, sans-serif;fill:#333333" id="text8022" transform="translate(-11.2,19.520508)" aria-label="-">
        <path id="path8317" style="font-weight:bold;font-size:9.33333px;font-family:Roboto, sans-serif;fill:#333333" d="M 3.0670562,-2.3105461 H 0.50130191 V -3.3723947 H 3.0670562 Z"/>
      </g>
      <path d="M 0,0 H 2.5" style="stroke:#333333;stroke-width:0.3" transform="rotate(135,-8.5,3.5208153)" id="polyline8024"/>
      <path d="M 0,0 H 2.5" style="stroke:#333333;stroke-width:0.3" transform="rotate(150,-8.5,2.2775681)" id="polyline8026"/>
      <path d="M 0,0 H 2.5" style="stroke:#333333;stroke-width:0.3" transform="rotate(165,-8.5,1.1190462)" id="polyline8028"/>
      <path d="M 0,0 H 2.5" style="stroke:#333333;stroke-width:0.3" transform="rotate(180,-8.5,0)" id="polyline8030"/>
      <path d="M 0,0 H 3.5" style="stroke:#333333;stroke-width:1" transform="rotate(-165,-8.5,-1.1190462)" id="polyline8032"/>
      <path d="M 0,0 H 2.5" style="stroke:#333333;stroke-width:0.3" transform="rotate(-150,-8.5,-2.2775681)" id="polyline8034"/>
      <path d="M 0,0 H 2.5" style="stroke:#333333;stroke-width:0.3" transform="rotate(-135,-8.5,-3.5208153)" id="polyline8036"/>
      <path d="M 0,0 H 2.5" style="stroke:#333333;stroke-width:0.3" transform="rotate(-120,-8.5,-4.9074773)" id="polyline8038"/>
      <path d="M 0,0 H 2.5" style="stroke:#333333;stroke-width:0.3" transform="rotate(-105,-8.5,-6.5222794)" id="polyline8040"/>
      <g style="font-weight:bold;font-size:6.66667px;font-family:Roboto, sans-serif;fill:#333333" id="text8042" transform="translate(-1.9,-17)" aria-label="0">
        <path id="path8329" style="font-weight:bold;font-size:6.66667px;font-family:Roboto, sans-serif;fill:#333333" d="m 3.5123715,-1.9596364 q 0,0.98307343 -0.4069013,1.50390702 Q 2.698569,0.0651042 1.9140634,0.0651042 q -0.7747399,0 -1.18489639,-0.51106795 Q 0.31901057,-0.95703171 0.30924494,-1.9108082 v -0.8723963 q 0,-0.992839 0.41015644,-1.5071621 0.41341162,-0.5143232 1.18815162,-0.5143232 0.7747399,0 1.1848964,0.511068 0.4101564,0.5078127 0.4199221,1.4615892 z M 2.5716158,-2.9166681 q 0,-0.5891929 -0.1627605,-0.8561202 Q 2.24935,-4.0429707 1.907553,-4.0429707 q -0.3320314,0 -0.4915367,0.2571616 -0.1562501,0.2539064 -0.1660157,0.7975264 v 1.1523443 q 0,0.5794274 0.1562501,0.86263064 0.1595053,0.27994805 0.5078127,0.27994805 0.3450523,0 0.4980471,-0.27018242 0.1529949,-0.27018237 0.1595053,-0.82682327 z"/>
      </g>
      <path d="M 0,0 H 2.5" style="stroke:#333333;stroke-width:0.3" transform="rotate(-75,-8.5,-11.077416)" id="polyline8044"/>
      <path d="M 0,0 H 2.5" style="stroke:#333333;stroke-width:0.3" transform="rotate(-60,-8.5,-14.722432)" id="polyline8046"/>
      <path d="M 0,0 H 2.5" style="stroke:#333333;stroke-width:0.3" transform="rotate(-45,-8.5,-20.520815)" id="polyline8048"/>
      <path d="M 0,0 H 2.5" style="stroke:#333333;stroke-width:0.3" transform="rotate(-30,-8.5,-31.722432)" id="polyline8050"/>
      <path d="M 0,0 H 3.5" style="stroke:#333333;stroke-width:1" transform="rotate(-15,-8.5,-64.56391)" id="polyline8052"/>
      <path d="M 0,0 H 2.5" style="stroke:#333333;stroke-width:0.3" transform="translate(17)" id="polyline8054"/>
      <path d="M 0,0 H 2.5" style="stroke:#333333;stroke-width:0.3" transform="rotate(15,-8.5,64.56391)" id="polyline8056"/>
      <path d="M 0,0 H 2.5" style="stroke:#333333;stroke-width:0.3" transform="rotate(30,-8.5,31.722432)" id="polyline8058"/>
      <path d="M 0,0 H 2.5" style="stroke:#333333;stroke-width:0.3" transform="rotate(45,-8.5,20.520815)" id="polyline8060"/>
      <g style="font-weight:bold;font-size:6.66667px;font-family:Roboto, sans-serif;fill:#333333" id="text8062" transform="translate(8,19.320508)" aria-label="+">
        <path id="path8341" style="font-weight:bold;font-size:6.66667px;font-family:Roboto, sans-serif;fill:#333333" d="m 2.2591157,-2.6529961 h 1.1751307 v 0.8496098 H 2.2591157 v 1.32812566 H 1.3639329 V -1.8033863 H 0.18554696 V -2.6529961 H 1.3639329 v -1.272787 h 0.8951828 z"/>
      </g>
    </g>
  </g>
  <g style="font-weight:bold;font-size:8px;font-family:Roboto, sans-serif;letter-spacing:1px;fill:#333333" id="text7617" aria-label="LT MIX">
    <path id="path8306" style="font-weight:bold;font-size:8px;font-family:Roboto, sans-serif;letter-spacing:1px;fill:#333333" d="m 107.67969,99.058594 h 2.48828 V 100 h -3.66016 v -5.6875 h 1.17188 z"/>
    <path id="path8308" style="font-weight:bold;font-size:8px;font-family:Roboto, sans-serif;letter-spacing:1px;fill:#333333" d="m 115.32031,95.261719 h -1.74218 V 100 h -1.17188 V 95.261719 H 110.6875 V 94.3125 h 4.63281 z"/>
    <path id="path8310" style="font-weight:bold;font-size:8px;font-family:Roboto, sans-serif;letter-spacing:1px;fill:#333333" d="m 121.28906,94.3125 1.46094,4.125 1.45313,-4.125 h 1.53906 V 100 h -1.17578 V 98.445312 L 124.68359,95.761719 123.14844,100 h -0.80469 l -1.53125,-4.234375 0.11719,2.679687 V 100 h -1.17188 v -5.6875 z"/>
    <path id="path8312" style="font-weight:bold;font-size:8px;font-family:Roboto, sans-serif;letter-spacing:1px;fill:#333333" d="m 129.01953,100 h -1.17187 v -5.6875 h 1.17187 z"/>
    <path id="path8314" style="font-weight:bold;font-size:8px;font-family:Roboto, sans-serif;letter-spacing:1px;fill:#333333" d="m 133.19922,96.273437 1.0664,-1.960937 h 1.34766 L 133.95703,97.132812 135.65625,100 h -1.36328 L 133.19922,98.007812 132.10547,100 h -1.36328 l 1.69922,-2.867188 -1.65625,-2.820312 h 1.34765 z"/>
  </g>
  <g transform="translate(99,103)" id="g7619"/>
  <g transform="translate(99,103)" id="use7621">
    <g transform="translate(22.5,22.5)" id="g8110">
      <g style="font-weight:bold;font-size:9.33333px;font-family:Roboto, sans-serif;fill:#333333" id="text8068" transform="translate(-11.2,19.520508)" aria-label="-">
        <path id="path8279" style="font-weight:bold;font-size:9.33333px;font-family:Roboto, sans-serif;fill:#333333" d="M 3.0670562,-2.3105461 H 0.50130191 V -3.3723947 H 3.0670562 Z"/>
      </g>
      <path d="M 0,0 H 2.5" style="stroke:#333333;stroke-width:0.3" transform="rotate(135,-8.5,3.5208153)" id="polyline8070"/>
      <path d="M 0,0 H 2.5" style="stroke:#333333;stroke-width:0.3" transform="rotate(150,-8.5,2.2775681)" id="polyline8072"/>
      <path d="M 0,0 H 2.5" style="stroke:#333333;stroke-width:0.3" transform="rotate(165,-8.5,1.1190462)" id="polyline8074"/>
      <path d="M 0,0 H 2.5" style="stroke:#333333;stroke-width:0.3" transform="rotate(180,-8.5,0)" id="polyline8076"/>
      <path d="M 0,0 H 3.5" style="stroke:#333333;stroke-width:1" transform="rotate(-165,-8.5,-1.1190462)" id="polyline8078"/>
      <path d="M 0,0 H 2.5" style="stroke:#333333;stroke-width:0.3" transform="rotate(-150,-8.5,-2.2775681)" id="polyline8080"/>
      <path d="M 0,0 H 2.5" style="stroke:#333333;stroke-width:0.3" transform="rotate(-135,-8.5,-3.5208153)" id="polyline8082"/>
      <path d="M 0,0 H 2.5" style="stroke:#333333;stroke-width:0.3" transform="rotate(-120,-8.5,-4.9074773)" id="polyline8084"/>
      <path d="M 0,0 H 2.5" style="stroke:#333333;stroke-width:0.3" transform="rotate(-105,-8.5,-6.5222794)" id="polyline8086"/>
      <g style="font-weight:bold;font-size:6.66667px;font-family:Roboto, sans-serif;fill:#333333" id="text8088" transform="translate(-1.9,-17)" aria-label="0">
        <path id="path8291" style="font-weight:bold;font-size:6.66667px;font-family:Roboto, sans-serif;fill:#333333" d="m 3.5123715,-1.9596364 q 0,0.98307343 -0.4069013,1.50390702 Q 2.698569,0.0651042 1.9140634,0.0651042 q -0.7747399,0 -1.18489639,-0.51106795 Q 0.31901057,-0.95703171 0.30924494,-1.9108082 v -0.8723963 q 0,-0.992839 0.41015644,-1.5071621 0.41341162,-0.5143232 1.18815162,-0.5143232 0.7747399,0 1.1848964,0.511068 0.4101564,0.5078127 0.4199221,1.4615892 z M 2.5716158,-2.9166681 q 0,-0.5891929 -0.1627605,-0.8561202 Q 2.24935,-4.0429707 1.907553,-4.0429707 q -0.3320314,0 -0.4915367,0.2571616 -0.1562501,0.2539064 -0.1660157,0.7975264 v 1.1523443 q 0,0.5794274 0.1562501,0.86263064 0.1595053,0.27994805 0.5078127,0.27994805 0.3450523,0 0.4980471,-0.27018242 0.1529949,-0.27018237 0.1595053,-0.82682327 z"/>
      </g>
      <path d="M 0,0 H 2.5" style="stroke:#333333;stroke-width:0.3" transform="rotate(-75,-8.5,-11.077416)" id="polyline8090"/>
      <path d="M 0,0 H 2.5" style="stroke:#333333;stroke-width:0.3" transform="rotate(-60,-8.5,-14.722432)" id="polyline8092"/>
      <path d="M 0,0 H 2.5" style="stroke:#333333;stroke-width:0.3" transform="rotate(-45,-8.5,-20.520815)" id="polyline8094"/>
      <path d="M 0,0 H 2.5" style="stroke:#333333;stroke-width:0.3" transform="rotate(-30,-8.5,-31.722432)" id="polyline8096"/>
      <path d="M 0,0 H 3.5" style="stroke:#333333;stroke-width:1" transform="rotate(-15,-8.5,-64.56391)" id="polyline8098"/>
      <path d="M 0,0 H 2.5" style="stroke:#333333;stroke-width:0.3" transform="translate(17)" id="polyline8100"/>
      <path d="M 0,0 H 2.5" style="stroke:#333333;stroke-width:0.3" transform="rotate(15,-8.5,64.56391)" id="polyline8102"/>
      <path d="M 0,0 H 2.5" style="stroke:#333333;stroke-width:0.3" transform="rotate(30,-8.5,31.722432)" id="polyline8104"/>
      <path d="M 0,0 H 2.5" style="stroke:#333333;stroke-width:0.3" transform="rotate(45,-8.5,20.520815)" id="polyline8106"/>
      <g style="font-weight:bold;font-size:6.66667px;font-family:Roboto, sans-serif;fill:#333333" id="text8108" transform="translate(8,19.320508)" aria-label="+">
        <path id="path8303" style="font-weight:bold;font-size:6.66667px;font-family:Roboto, sans-serif;fill:#333333" d="m 2.2591157,-2.6529961 h 1.1751307 v 0.8496098 H 2.2591157 v 1.32812566 H 1.3639329 V -1.8033863 H 0.18554696 V -2.6529961 H 1.3639329 v -1.272787 h 0.8951828 z"/>
      </g>
    </g>
  </g>
  <g style="font-weight:bold;font-size:8px;font-family:Roboto, sans-serif;letter-spacing:1px;fill:#333333" id="text7625" aria-label="DRY/WET">
    <path id="path8264" style="font-weight:bold;font-size:8px;font-family:Roboto, sans-serif;letter-spacing:1px;fill:#333333" d="m 55.507812,165 v -5.6875 h 1.75 q 0.75,0 1.339844,0.33984 0.59375,0.33594 0.925781,0.96094 0.332032,0.62109 0.332032,1.41406 v 0.26172 q 0,0.79297 -0.328125,1.41016 -0.324219,0.61719 -0.917969,0.95703 -0.59375,0.33984 -1.339844,0.34375 z m 1.171875,-4.73828 v 3.79687 h 0.566407 q 0.6875,0 1.050781,-0.44922 0.363281,-0.44921 0.371094,-1.28515 v -0.30078 q 0,-0.86719 -0.359375,-1.3125 -0.359375,-0.44922 -1.050782,-0.44922 z"/>
    <path id="path8266" style="font-weight:bold;font-size:8px;font-family:Roboto, sans-serif;letter-spacing:1px;fill:#333333" d="M 63.816406,162.91797 H 62.882812 V 165 h -1.171875 v -5.6875 h 2.113282 q 1.007812,0 1.554687,0.44922 0.546875,0.44922 0.546875,1.26953 0,0.58203 -0.253906,0.97266 -0.25,0.38671 -0.761719,0.61718 l 1.230469,2.32422 V 165 h -1.257813 z m -0.933594,-0.94922 h 0.945313 q 0.441406,0 0.683594,-0.22266 0.242187,-0.22656 0.242187,-0.62109 0,-0.40234 -0.230469,-0.63281 -0.226562,-0.23047 -0.699218,-0.23047 h -0.941407 z"/>
    <path id="path8268" style="font-weight:bold;font-size:8px;font-family:Roboto, sans-serif;letter-spacing:1px;fill:#333333" d="m 69.59375,161.875 1.183594,-2.5625 h 1.28125 l -1.867188,3.625 V 165 H 69 v -2.0625 l -1.867188,-3.625 h 1.285157 z"/>
    <path id="path8270" style="font-weight:bold;font-size:8px;font-family:Roboto, sans-serif;letter-spacing:1px;fill:#333333" d="m 73.867187,165.48828 h -0.839843 l 2.09375,-6.17578 h 0.839843 z"/>
    <path id="path8272" style="font-weight:bold;font-size:8px;font-family:Roboto, sans-serif;letter-spacing:1px;fill:#333333" d="m 82,163.35937 0.765625,-4.04687 h 1.167969 L 82.671875,165 H 81.492187 L 80.566406,161.19531 79.640625,165 h -1.179688 l -1.261718,-5.6875 h 1.167968 l 0.769532,4.03906 0.9375,-4.03906 h 0.992187 z"/>
    <path id="path8274" style="font-weight:bold;font-size:8px;font-family:Roboto, sans-serif;letter-spacing:1px;fill:#333333" d="m 88.992187,162.53516 h -2.25 v 1.52343 h 2.640625 V 165 h -3.8125 v -5.6875 H 89.375 v 0.94922 h -2.632813 v 1.35547 h 2.25 z"/>
    <path id="path8276" style="font-weight:bold;font-size:8px;font-family:Roboto, sans-serif;letter-spacing:1px;fill:#333333" d="M 95.429687,160.26172 H 93.6875 V 165 h -1.171875 v -4.73828 h -1.71875 v -0.94922 h 4.632812 z"/>
  </g>
  <g transform="translate(52.5,168)" id="g7627"/>
  <g transform="translate(52.5,168)" id="use7629">
    <g transform="translate(22.5,22.5)" id="g8136">
      <g style="font-weight:bold;font-size:6.66667px;font-family:Roboto, sans-serif;fill:#333333" id="text8114" transform="translate(-12.5,20.320508)" aria-label="D">
        <path id="path8249" style="font-weight:bold;font-size:6.66667px;font-family:Roboto, sans-serif;fill:#333333" d="M 0.42317729,0 V -4.7395856 H 1.8815113 q 0.6250003,0 1.116537,0.2832033 0.4947919,0.279948 0.7714847,0.8007816 0.2766929,0.5175784 0.2766929,1.178386 v 0.218099 q 0,0.6608076 -0.2734376,1.1751308 Q 3.5026058,-0.56966173 3.0078139,-0.28645847 2.513022,-0.00325521 1.8912769,0 Z M 1.3997403,-3.9485696 v 3.16406402 h 0.4720054 q 0.5729169,0 0.8756514,-0.37434912 0.3027346,-0.3743492 0.309245,-1.0709641 v -0.2506511 q 0,-0.7226566 -0.2994793,-1.0937506 -0.2994793,-0.3743491 -0.8756515,-0.3743491 z"/>
      </g>
      <path d="M 0,0 H 2.5" style="stroke:#333333;stroke-width:0.3" transform="rotate(150,-8.5,2.2775681)" id="polyline8116"/>
      <path d="M 0,0 H 2.5" style="stroke:#333333;stroke-width:0.3" transform="rotate(180,-8.5,0)" id="polyline8118"/>
      <path d="M 0,0 H 2.5" style="stroke:#333333;stroke-width:0.3" transform="rotate(-150,-8.5,-2.2775681)" id="polyline8120"/>
      <path d="M 0,0 H 2.5" style="stroke:#333333;stroke-width:0.3" transform="rotate(-120,-8.5,-4.9074773)" id="polyline8122"/>
      <path d="M 0,0 H 4.5" style="stroke:#333333;stroke-width:1" transform="rotate(-90,-8.5,-8.5)" id="polyline8124"/>
      <path d="M 0,0 H 2.5" style="stroke:#333333;stroke-width:0.3" transform="rotate(-60,-8.5,-14.722432)" id="polyline8126"/>
      <path d="M 0,0 H 2.5" style="stroke:#333333;stroke-width:0.3" transform="rotate(-30,-8.5,-31.722432)" id="polyline8128"/>
      <path d="M 0,0 H 2.5" style="stroke:#333333;stroke-width:0.3" transform="translate(17)" id="polyline8130"/>
      <path d="M 0,0 H 2.5" style="stroke:#333333;stroke-width:0.3" transform="rotate(30,-8.5,31.722432)" id="polyline8132"/>
      <g style="font-weight:bold;font-size:6.66667px;font-family:Roboto, sans-serif;fill:#333333" id="text8134" transform="translate(8,20.320508)" aria-label="W">
        <path id="path8261" style="font-weight:bold;font-size:6.66667px;font-family:Roboto, sans-serif;fill:#333333" d="M 4.1145853,-1.3671882 4.7526064,-4.7395856 H 5.7259142 L 4.6744814,0 H 3.691408 L 2.9199233,-3.1705744 2.1484385,0 H 1.1653651 L 0.11393235,-4.7395856 H 1.0872401 l 0.6412763,3.365887 0.7812504,-3.365887 h 0.8268233 z"/>
      </g>
    </g>
  </g>
  <g style="font-weight:bold;font-size:8px;font-family:Roboto, sans-serif;letter-spacing:1px;fill:#333333" id="text7633" aria-label="A DRY">
    <path id="path8240" style="font-weight:bold;font-size:8px;font-family:Roboto, sans-serif;letter-spacing:1px;fill:#333333" d="M 18.21875,172.32812 H 16.164062 L 15.773438,173.5 h -1.246094 l 2.117187,-5.6875 h 1.085938 l 2.128906,5.6875 h -1.246094 z m -1.738281,-0.94921 h 1.421875 L 17.1875,169.25 Z"/>
    <path id="path8242" style="font-weight:bold;font-size:8px;font-family:Roboto, sans-serif;letter-spacing:1px;fill:#333333" d="m 24.398437,173.5 v -5.6875 h 1.75 q 0.75,0 1.339844,0.33984 0.59375,0.33594 0.925781,0.96094 0.332032,0.62109 0.332032,1.41406 v 0.26172 q 0,0.79297 -0.328125,1.41016 -0.324219,0.61719 -0.917969,0.95703 -0.59375,0.33984 -1.339844,0.34375 z m 1.171875,-4.73828 v 3.79687 h 0.566407 q 0.6875,0 1.050781,-0.44922 0.363281,-0.44921 0.371094,-1.28515 v -0.30078 q 0,-0.86719 -0.359375,-1.3125 -0.359375,-0.44922 -1.050782,-0.44922 z"/>
    <path id="path8244" style="font-weight:bold;font-size:8px;font-family:Roboto, sans-serif;letter-spacing:1px;fill:#333333" d="M 32.707031,171.41797 H 31.773437 V 173.5 h -1.171875 v -5.6875 h 2.113282 q 1.007812,0 1.554687,0.44922 0.546875,0.44922 0.546875,1.26953 0,0.58203 -0.253906,0.97266 -0.25,0.38671 -0.761719,0.61718 l 1.230469,2.32422 V 173.5 h -1.257813 z m -0.933594,-0.94922 h 0.945313 q 0.441406,0 0.683594,-0.22266 0.242187,-0.22656 0.242187,-0.62109 0,-0.40234 -0.230469,-0.63281 -0.226562,-0.23047 -0.699218,-0.23047 h -0.941407 z"/>
    <path id="path8246" style="font-weight:bold;font-size:8px;font-family:Roboto, sans-serif;letter-spacing:1px;fill:#333333" d="m 38.484375,170.375 1.183594,-2.5625 h 1.28125 l -1.867188,3.625 V 173.5 h -1.191406 v -2.0625 l -1.867188,-3.625 h 1.285157 z"/>
  </g>
  <g transform="translate(20.5,182.5)" id="g7635"/>
  <g transform="translate(8,170.5)" id="g7653">
    <svg version="1.1" id="svg7651" width="100%" height="100%">
      <g transform="translate(20,20)" id="g7649">
        <g transform="rotate(120,-5,2.8867513)" id="g7639">
          <path d="M 0,0 H 4" style="stroke:#333333;stroke-width:1" id="polyline7637"/>
        </g>
        <path d="M 0,-12.5 A 12.5,12.5 0 0 1 12.5,0" stroke="#333333" stroke-width="0.5" stroke-linecap="round" fill="none" id="path7641"/>
        <path d="M 0,-12.5 A 12.5,12.5 0 0 1 12.5,0" stroke="#333333" stroke-width="0.5" stroke-linecap="round" fill="none" transform="rotate(43)" id="path7643"/>
        <path d="M 0,-12.5 A 12.5,12.5 0 0 0 -12.5,0" stroke="#333333" stroke-width="0.5" stroke-linecap="round" fill="none" id="path7645"/>
        <path d="M 0,-12.5 A 12.5,12.5 0 0 0 -12.5,0" stroke="#333333" stroke-width="0.5" stroke-linecap="round" fill="none" transform="rotate(-43)" id="path7647"/>
      </g>
    </svg>
  </g>
  <g style="font-weight:bold;font-size:8px;font-family:Roboto, sans-serif;letter-spacing:1px;fill:#333333" id="text7657" aria-label="B DRY">
    <path id="path8230" style="font-weight:bold;font-size:8px;font-family:Roboto, sans-serif;letter-spacing:1px;fill:#333333" d="m 108.00781,173.5 v -5.6875 H 110 q 1.03516,0 1.57031,0.39844 0.53516,0.39453 0.53516,1.16015 0,0.41797 -0.21484,0.73828 -0.21485,0.31641 -0.59766,0.46485 0.4375,0.10937 0.6875,0.4414 0.25391,0.33204 0.25391,0.8125 0,0.82032 -0.52344,1.24219 -0.52344,0.42188 -1.49219,0.42969 z m 1.17188,-2.47656 v 1.53515 h 1.0039 q 0.41407,0 0.64454,-0.19531 0.23437,-0.19922 0.23437,-0.54687 0,-0.78125 -0.80859,-0.79297 z m 0,-0.82813 h 0.86719 q 0.88671,-0.0156 0.88671,-0.70703 0,-0.38672 -0.22656,-0.55469 -0.22265,-0.17187 -0.70703,-0.17187 h -0.82031 z"/>
    <path id="path8232" style="font-weight:bold;font-size:8px;font-family:Roboto, sans-serif;letter-spacing:1px;fill:#333333" d="m 117.11719,173.5 v -5.6875 h 1.75 q 0.75,0 1.33984,0.33984 0.59375,0.33594 0.92578,0.96094 0.33203,0.62109 0.33203,1.41406 v 0.26172 q 0,0.79297 -0.32812,1.41016 -0.32422,0.61719 -0.91797,0.95703 -0.59375,0.33984 -1.33984,0.34375 z m 1.17187,-4.73828 v 3.79687 h 0.56641 q 0.6875,0 1.05078,-0.44922 0.36328,-0.44921 0.37109,-1.28515 v -0.30078 q 0,-0.86719 -0.35937,-1.3125 -0.35938,-0.44922 -1.05078,-0.44922 z"/>
    <path id="path8234" style="font-weight:bold;font-size:8px;font-family:Roboto, sans-serif;letter-spacing:1px;fill:#333333" d="m 125.42578,171.41797 h -0.93359 V 173.5 h -1.17188 v -5.6875 h 2.11328 q 1.00782,0 1.55469,0.44922 0.54688,0.44922 0.54688,1.26953 0,0.58203 -0.25391,0.97266 -0.25,0.38671 -0.76172,0.61718 l 1.23047,2.32422 V 173.5 h -1.25781 z m -0.93359,-0.94922 h 0.94531 q 0.44141,0 0.68359,-0.22266 0.24219,-0.22656 0.24219,-0.62109 0,-0.40234 -0.23047,-0.63281 -0.22656,-0.23047 -0.69922,-0.23047 h -0.9414 z"/>
    <path id="path8236" style="font-weight:bold;font-size:8px;font-family:Roboto, sans-serif;letter-spacing:1px;fill:#333333" d="m 131.20312,170.375 1.1836,-2.5625 h 1.28125 l -1.86719,3.625 V 173.5 h -1.19141 v -2.0625 l -1.86718,-3.625 h 1.28515 z"/>
  </g>
  <g transform="translate(113.5,182.5)" id="g7659"/>
  <g transform="translate(101,170.5)" id="g7677">
    <svg version="1.1" id="svg7675" width="100%" height="100%">
      <g transform="translate(20,20)" id="g7673">
        <g transform="rotate(120,-5,2.8867513)" id="g7663">
          <path d="M 0,0 H 4" style="stroke:#333333;stroke-width:1" id="polyline7661"/>
        </g>
        <path d="M 0,-12.5 A 12.5,12.5 0 0 1 12.5,0" stroke="#333333" stroke-width="0.5" stroke-linecap="round" fill="none" id="path7665"/>
        <path d="M 0,-12.5 A 12.5,12.5 0 0 1 12.5,0" stroke="#333333" stroke-width="0.5" stroke-linecap="round" fill="none" transform="rotate(43)" id="path7667"/>
        <path d="M 0,-12.5 A 12.5,12.5 0 0 0 -12.5,0" stroke="#333333" stroke-width="0.5" stroke-linecap="round" fill="none" id="path7669"/>
        <path d="M 0,-12.5 A 12.5,12.5 0 0 0 -12.5,0" stroke="#333333" stroke-width="0.5" stroke-linecap="round" fill="none" transform="rotate(-43)" id="path7671"/>
      </g>
    </svg>
  </g>
  <path d="m 15,225 h 120 c 2.77,0 5,2.23 5,5 v 125 c 0,2.77 -2.23,5 -5,5 H 15 c -2.77,0 -5,-2.23 -5,-5 V 230 c 0,-2.77 2.23,-5 5,-5 z" style="fill:#fafafa" id="rect7681"/>
  <path d="m 80,269 h 55 c 2.77,0 5,2.23 5,5 v 81 c 0,2.77 -2.23,5 -5,5 H 80 c -2.77,0 -5,-2.23 -5,-5 v -81 c 0,-2.77 2.23,-5 5,-5 z" style="fill:#bbbbbb" id="rect7683"/>
  <path d="m 75,269 h 10 v 8 H 75 Z" style="fill:#bbbbbb" id="rect7685"/>
  <path d="m 130,269 h 10 v 8 h -10 z" style="fill:#bbbbbb" id="rect7687"/>
  <path d="m 75,352 h 10 v 8 H 75 Z" style="fill:#bbbbbb" id="rect7689"/>
  <g transform="translate(12,225)" id="g7695">
    <g transform="translate(3,5)" id="g7691"/>
    <g style="font-weight:bold;font-size:8px;font-family:Roboto, sans-serif;letter-spacing:1px;fill:#333333" id="text7693" transform="translate(5,40)" aria-label="GTM">
      <path id="path8217" style="font-weight:bold;font-size:8px;font-family:Roboto, sans-serif;letter-spacing:1px;fill:#333333" d="M 5.0078125,-0.71875 Q 4.6914062,-0.33984375 4.1132812,-0.12890625 3.5351563,0.078125 2.8320313,0.078125 2.09375,0.078125 1.5351562,-0.2421875 0.98046875,-0.56640625 0.67578125,-1.1796875 0.375,-1.7929687 0.3671875,-2.6210938 v -0.3867187 q 0,-0.8515625 0.28515625,-1.4726562 0.2890625,-0.625 0.82812495,-0.953125 Q 2.0234375,-5.765625 2.75,-5.765625 q 1.0117188,0 1.5820312,0.484375 0.5703125,0.4804688 0.6757813,1.4023437 H 3.8671875 Q 3.7890625,-4.3671875 3.5195313,-4.59375 3.2539063,-4.8203125 2.7851563,-4.8203125 2.1875,-4.8203125 1.875,-4.3710937 1.5625,-3.921875 1.5585937,-3.0351563 v 0.3632813 q 0,0.8945313 0.3398438,1.3515625 0.3398438,0.45703125 0.9960938,0.45703125 0.6601562,0 0.9414062,-0.28124995 V -2.125 H 2.7695313 v -0.8632813 h 2.2382812 z"/>
      <path id="path8219" style="font-weight:bold;font-size:8px;font-family:Roboto, sans-serif;letter-spacing:1px;fill:#333333" d="M 11.242188,-4.7382812 H 9.5 V 0 H 8.328125 V -4.7382812 H 6.609375 V -5.6875 h 4.632813 z"/>
      <path id="path8221" style="font-weight:bold;font-size:8px;font-family:Roboto, sans-serif;letter-spacing:1px;fill:#333333" d="m 14.445313,-5.6875 1.460937,4.125 1.453125,-4.125 h 1.539062 V 0 H 17.722656 V -1.5546875 L 17.839844,-4.2382812 16.304687,0 H 15.5 l -1.53125,-4.234375 0.117188,2.6796875 V 0 h -1.171875 v -5.6875 z"/>
    </g>
  </g>
  <g transform="translate(44,225)" id="g7701">
    <g transform="translate(3,5)" id="g7697"/>
    <g style="font-weight:bold;font-size:8px;font-family:Roboto, sans-serif;letter-spacing:1px;fill:#333333" id="text7699" transform="translate(6,40)" aria-label="LTM">
      <path id="path8210" style="font-weight:bold;font-size:8px;font-family:Roboto, sans-serif;letter-spacing:1px;fill:#333333" d="M 1.6796875,-0.94140625 H 4.1679687 V 0 H 0.5078125 v -5.6875 h 1.171875 z"/>
      <path id="path8212" style="font-weight:bold;font-size:8px;font-family:Roboto, sans-serif;letter-spacing:1px;fill:#333333" d="M 9.3203125,-4.7382812 H 7.578125 V 0 H 6.40625 V -4.7382812 H 4.6875 V -5.6875 h 4.6328125 z"/>
      <path id="path8214" style="font-weight:bold;font-size:8px;font-family:Roboto, sans-serif;letter-spacing:1px;fill:#333333" d="m 12.523438,-5.6875 1.460937,4.125 1.453125,-4.125 h 1.539062 V 0 H 15.800781 V -1.5546875 L 15.917969,-4.2382812 14.382813,0 h -0.804688 l -1.53125,-4.234375 0.117188,2.6796875 V 0 h -1.171875 v -5.6875 z"/>
    </g>
  </g>
  <g transform="translate(76,225)" id="g7707">
    <g transform="translate(3,5)" id="g7703"/>
    <g style="font-weight:bold;font-size:8px;font-family:Roboto, sans-serif;letter-spacing:0.5px;fill:#333333" id="text7705" transform="translate(1.5,40)" aria-label="WNDW">
      <path id="path8201" style="font-weight:bold;font-size:8px;font-family:Roboto, sans-serif;letter-spacing:0.5px;fill:#333333" d="M 4.9375,-1.640625 5.703125,-5.6875 H 6.8710937 L 5.609375,0 H 4.4296875 L 3.5039063,-3.8046875 2.578125,0 H 1.3984375 L 0.13671875,-5.6875 H 1.3046875 l 0.7695313,4.0390625 0.9375,-4.0390625 h 0.9921874 z"/>
      <path id="path8203" style="font-weight:bold;font-size:8px;font-family:Roboto, sans-serif;letter-spacing:0.5px;fill:#333333" d="M 12.632813,0 H 11.460938 L 9.1796875,-3.7421875 V 0 h -1.171875 v -5.6875 h 1.171875 l 2.2851565,3.75 v -3.75 h 1.167969 z"/>
      <path id="path8205" style="font-weight:bold;font-size:8px;font-family:Roboto, sans-serif;letter-spacing:0.5px;fill:#333333" d="m 14.164063,0 v -5.6875 h 1.75 q 0.749999,0 1.339843,0.3398438 0.59375,0.3359375 0.925781,0.9609375 0.332032,0.6210937 0.332032,1.4140624 v 0.2617188 q 0,0.7929688 -0.328125,1.4101563 Q 17.859375,-0.68359375 17.265625,-0.34375 16.671875,-0.00390625 15.925781,0 Z m 1.171875,-4.7382812 v 3.79687495 h 0.566406 q 0.6875,0 1.050781,-0.44921875 0.363281,-0.4492187 0.371094,-1.2851563 v -0.3007812 q 0,-0.8671875 -0.359375,-1.3125 -0.359375,-0.4492187 -1.050781,-0.4492187 z"/>
      <path id="path8207" style="font-weight:bold;font-size:8px;font-family:Roboto, sans-serif;letter-spacing:0.5px;fill:#333333" d="M 24.296875,-1.640625 25.0625,-5.6875 h 1.167969 L 24.96875,0 H 23.789062 L 22.863281,-3.8046875 21.9375,0 h -1.179688 l -1.261718,-5.6875 h 1.167968 l 0.769532,4.0390625 0.9375,-4.0390625 h 0.992187 z"/>
    </g>
  </g>
  <g transform="translate(108,225)" id="g7713">
    <g transform="translate(3,5)" id="g7709"/>
    <g style="font-weight:bold;font-size:8px;font-family:Roboto, sans-serif;letter-spacing:1px;fill:#333333" id="text7711" transform="translate(6,40)" aria-label="D/W">
      <path id="path8194" style="font-weight:bold;font-size:8px;font-family:Roboto, sans-serif;letter-spacing:1px;fill:#333333" d="m 0.5078125,0 v -5.6875 h 1.75 q 0.75,0 1.3398438,0.3398438 0.5937499,0.3359375 0.9257812,0.9609375 0.3320312,0.6210937 0.3320312,1.4140624 v 0.2617188 q 0,0.7929688 -0.328125,1.4101563 Q 4.203125,-0.68359375 3.609375,-0.34375 3.015625,-0.00390625 2.2695313,0 Z m 1.171875,-4.7382812 v 3.79687495 h 0.5664063 q 0.6875,0 1.0507812,-0.44921875 0.3632813,-0.4492187 0.3710938,-1.2851563 v -0.3007812 q 0,-0.8671875 -0.359375,-1.3125 -0.359375,-0.4492187 -1.0507813,-0.4492187 z"/>
      <path id="path8196" style="font-weight:bold;font-size:8px;font-family:Roboto, sans-serif;letter-spacing:1px;fill:#333333" d="M 6.9921875,0.48828125 H 6.1523437 L 8.2460938,-5.6875 h 0.8398437 z"/>
      <path id="path8198" style="font-weight:bold;font-size:8px;font-family:Roboto, sans-serif;letter-spacing:1px;fill:#333333" d="M 15.125,-1.640625 15.890625,-5.6875 h 1.167969 L 15.796875,0 H 14.617188 L 13.691406,-3.8046875 12.765625,0 h -1.179687 l -1.261719,-5.6875 h 1.167969 l 0.769531,4.0390625 0.9375,-4.0390625 h 0.992187 z"/>
    </g>
  </g>
  <g transform="translate(0,269)" id="g7765">
    <g transform="translate(12)" id="g7719">
      <g transform="translate(3,5)" id="g7715"/>
      <g style="font-weight:bold;font-size:8px;font-family:Roboto, sans-serif;letter-spacing:1px;fill:#333333" id="text7717" transform="translate(5,40)" aria-label="A IN">
        <path id="path8140" style="font-weight:bold;font-size:8px;font-family:Roboto, sans-serif;letter-spacing:1px;fill:#333333" d="M 3.71875,-1.171875 H 1.6640625 L 1.2734375,0 H 0.02734375 L 2.1445313,-5.6875 H 3.2304688 L 5.359375,0 H 4.1132812 Z M 1.9804687,-2.1210938 H 3.4023438 L 2.6875,-4.25 Z"/>
        <path id="path8142" style="font-weight:bold;font-size:8px;font-family:Roboto, sans-serif;letter-spacing:1px;fill:#333333" d="M 11.144531,0 H 9.9726563 v -5.6875 h 1.1718747 z"/>
        <path id="path8144" style="font-weight:bold;font-size:8px;font-family:Roboto, sans-serif;letter-spacing:1px;fill:#333333" d="M 17.851562,0 H 16.679687 L 14.398438,-3.7421875 V 0 h -1.171875 v -5.6875 h 1.171875 l 2.285156,3.75 v -3.75 h 1.167968 z"/>
      </g>
    </g>
    <g transform="translate(44)" id="g7725">
      <g transform="translate(3,5)" id="g7721"/>
      <g style="font-weight:bold;font-size:8px;font-family:Roboto, sans-serif;letter-spacing:1px;fill:#333333" id="text7723" transform="translate(1.5,40)" aria-label="A SCL">
        <path id="path8147" style="font-weight:bold;font-size:8px;font-family:Roboto, sans-serif;letter-spacing:1px;fill:#333333" d="M 3.71875,-1.171875 H 1.6640625 L 1.2734375,0 H 0.02734375 L 2.1445313,-5.6875 H 3.2304688 L 5.359375,0 H 4.1132812 Z M 1.9804687,-2.1210938 H 3.4023438 L 2.6875,-4.25 Z"/>
        <path id="path8149" style="font-weight:bold;font-size:8px;font-family:Roboto, sans-serif;letter-spacing:1px;fill:#333333" d="m 12.847656,-1.4921875 q 0,-0.3320312 -0.234375,-0.5078125 -0.234375,-0.1796875 -0.84375,-0.375 -0.609375,-0.1992188 -0.964843,-0.390625 -0.9687505,-0.5234375 -0.9687505,-1.4101562 0,-0.4609375 0.2578125,-0.8203125 0.261719,-0.3632813 0.746094,-0.5664063 0.488281,-0.203125 1.09375,-0.203125 0.609375,0 1.085937,0.2226563 0.476563,0.21875 0.738282,0.6210937 0.265625,0.4023438 0.265625,0.9140625 h -1.171875 q 0,-0.390625 -0.246094,-0.6054687 -0.246094,-0.21875 -0.691406,-0.21875 -0.429688,0 -0.667969,0.1835937 -0.238281,0.1796875 -0.238281,0.4765625 0,0.2773437 0.277343,0.4648437 0.28125,0.1875 0.824219,0.3515625 1,0.3007813 1.457031,0.7460938 0.457032,0.4453125 0.457032,1.109375 0,0.73828125 -0.558594,1.16015625 Q 12.90625,0.078125 11.960938,0.078125 q -0.65625,0 -1.195313,-0.23828125 -0.539062,-0.2421875 -0.8242187,-0.66015625 -0.28125,-0.4179687 -0.28125,-0.96875 h 1.1757817 q 0,0.94140625 1.125,0.94140625 0.417968,0 0.652343,-0.16796875 0.234375,-0.171875 0.234375,-0.4765625 z"/>
        <path id="path8151" style="font-weight:bold;font-size:8px;font-family:Roboto, sans-serif;letter-spacing:1px;fill:#333333" d="m 20.285156,-1.8945312 q -0.06641,0.9179687 -0.679687,1.44531245 -0.609375,0.52734375 -1.609375,0.52734375 -1.09375,0 -1.722657,-0.734375 -0.624999,-0.7382812 -0.624999,-2.0234375 v -0.3476563 q 0,-0.8203125 0.289062,-1.4453124 0.289062,-0.625 0.824219,-0.9570313 0.539062,-0.3359375 1.25,-0.3359375 0.984375,0 1.585937,0.5273438 0.601563,0.5273437 0.695313,1.4804687 h -1.171875 q -0.04297,-0.5507812 -0.308594,-0.796875 -0.261719,-0.25 -0.800781,-0.25 -0.585938,0 -0.878907,0.421875 -0.289062,0.4179687 -0.296875,1.3007812 v 0.4296875 q 0,0.9218751 0.277344,1.3476563 0.28125,0.42578125 0.882813,0.42578125 0.542968,0 0.808593,-0.24609375 0.269532,-0.25 0.308594,-0.7695312 z"/>
        <path id="path8153" style="font-weight:bold;font-size:8px;font-family:Roboto, sans-serif;letter-spacing:1px;fill:#333333" d="m 23.226562,-0.94140625 h 2.488282 V 0 h -3.660157 v -5.6875 h 1.171875 z"/>
      </g>
    </g>
    <g transform="translate(76)" id="g7731">
      <g transform="translate(3,5)" id="g7727"/>
      <g style="font-weight:bold;font-size:8px;font-family:Roboto, sans-serif;letter-spacing:2px;fill:#333333" id="text7729" transform="translate(8,40)" aria-label="GT">
        <path id="path8156" style="font-weight:bold;font-size:8px;font-family:Roboto, sans-serif;letter-spacing:2px;fill:#333333" d="M 5.0078125,-0.71875 Q 4.6914062,-0.33984375 4.1132812,-0.12890625 3.5351563,0.078125 2.8320313,0.078125 2.09375,0.078125 1.5351562,-0.2421875 0.98046875,-0.56640625 0.67578125,-1.1796875 0.375,-1.7929687 0.3671875,-2.6210938 v -0.3867187 q 0,-0.8515625 0.28515625,-1.4726562 0.2890625,-0.625 0.82812495,-0.953125 Q 2.0234375,-5.765625 2.75,-5.765625 q 1.0117188,0 1.5820312,0.484375 0.5703125,0.4804688 0.6757813,1.4023437 H 3.8671875 Q 3.7890625,-4.3671875 3.5195313,-4.59375 3.2539063,-4.8203125 2.7851563,-4.8203125 2.1875,-4.8203125 1.875,-4.3710937 1.5625,-3.921875 1.5585937,-3.0351563 v 0.3632813 q 0,0.8945313 0.3398438,1.3515625 0.3398438,0.45703125 0.9960938,0.45703125 0.6601562,0 0.9414062,-0.28124995 V -2.125 H 2.7695313 v -0.8632813 h 2.2382812 z"/>
        <path id="path8158" style="font-weight:bold;font-size:8px;font-family:Roboto, sans-serif;letter-spacing:2px;fill:#333333" d="M 12.242188,-4.7382812 H 10.5 V 0 H 9.328125 V -4.7382812 H 7.609375 V -5.6875 h 4.632813 z"/>
      </g>
    </g>
    <g transform="translate(108)" id="g7737">
      <g transform="translate(3,5)" id="g7733"/>
      <g style="font-weight:bold;font-size:8px;font-family:Roboto, sans-serif;letter-spacing:2px;fill:#333333" id="text7735" transform="translate(9.5,40)" aria-label="LT">
        <path id="path8161" style="font-weight:bold;font-size:8px;font-family:Roboto, sans-serif;letter-spacing:2px;fill:#333333" d="M 1.6796875,-0.94140625 H 4.1679687 V 0 H 0.5078125 v -5.6875 h 1.171875 z"/>
        <path id="path8163" style="font-weight:bold;font-size:8px;font-family:Roboto, sans-serif;letter-spacing:2px;fill:#333333" d="M 10.320313,-4.7382812 H 8.578125 V 0 H 7.40625 V -4.7382812 H 5.6875 V -5.6875 h 4.632813 z"/>
      </g>
    </g>
    <g transform="translate(10,44)" id="g7763">
      <g transform="translate(2)" id="g7743">
        <g transform="translate(3,5)" id="g7739"/>
        <g style="font-weight:bold;font-size:8px;font-family:Roboto, sans-serif;letter-spacing:1px;fill:#333333" id="text7741" transform="translate(5,40)" aria-label="B IN">
          <path id="path8166" style="font-weight:bold;font-size:8px;font-family:Roboto, sans-serif;letter-spacing:1px;fill:#333333" d="M 0.5078125,0 V -5.6875 H 2.5 q 1.0351563,0 1.5703125,0.3984375 0.5351562,0.3945313 0.5351562,1.1601563 0,0.4179687 -0.2148437,0.7382812 -0.2148438,0.3164062 -0.5976562,0.4648437 0.4374999,0.109375 0.6874999,0.4414063 0.2539063,0.3320312 0.2539063,0.8125 0,0.8203125 -0.5234375,1.2421875 Q 3.6875,-0.0078125 2.71875,0 Z m 1.171875,-2.4765625 v 1.53515625 h 1.0039063 q 0.4140625,0 0.6445312,-0.19531245 0.234375,-0.1992188 0.234375,-0.546875 0,-0.7812501 -0.8085937,-0.7929688 z m 0,-0.828125 H 2.546875 q 0.8867188,-0.015625 0.8867188,-0.7070312 0,-0.3867188 -0.2265625,-0.5546875 Q 2.984375,-4.7382812 2.5,-4.7382812 H 1.6796875 Z"/>
          <path id="path8168" style="font-weight:bold;font-size:8px;font-family:Roboto, sans-serif;letter-spacing:1px;fill:#333333" d="M 10.863281,0 H 9.6914063 v -5.6875 h 1.1718747 z"/>
          <path id="path8170" style="font-weight:bold;font-size:8px;font-family:Roboto, sans-serif;letter-spacing:1px;fill:#333333" d="M 17.570312,0 H 16.398437 L 14.117188,-3.7421875 V 0 h -1.171875 v -5.6875 h 1.171875 l 2.285156,3.75 v -3.75 h 1.167968 z"/>
        </g>
      </g>
      <g transform="translate(34)" id="g7749">
        <g transform="translate(3,5)" id="g7745"/>
        <g style="font-weight:bold;font-size:8px;font-family:Roboto, sans-serif;letter-spacing:1px;fill:#333333" id="text7747" transform="translate(1.5,40)" aria-label="B SCL">
          <path id="path8173" style="font-weight:bold;font-size:8px;font-family:Roboto, sans-serif;letter-spacing:1px;fill:#333333" d="M 0.5078125,0 V -5.6875 H 2.5 q 1.0351563,0 1.5703125,0.3984375 0.5351562,0.3945313 0.5351562,1.1601563 0,0.4179687 -0.2148437,0.7382812 -0.2148438,0.3164062 -0.5976562,0.4648437 0.4374999,0.109375 0.6874999,0.4414063 0.2539063,0.3320312 0.2539063,0.8125 0,0.8203125 -0.5234375,1.2421875 Q 3.6875,-0.0078125 2.71875,0 Z m 1.171875,-2.4765625 v 1.53515625 h 1.0039063 q 0.4140625,0 0.6445312,-0.19531245 0.234375,-0.1992188 0.234375,-0.546875 0,-0.7812501 -0.8085937,-0.7929688 z m 0,-0.828125 H 2.546875 q 0.8867188,-0.015625 0.8867188,-0.7070312 0,-0.3867188 -0.2265625,-0.5546875 Q 2.984375,-4.7382812 2.5,-4.7382812 H 1.6796875 Z"/>
          <path id="path8175" style="font-weight:bold;font-size:8px;font-family:Roboto, sans-serif;letter-spacing:1px;fill:#333333" d="m 12.566406,-1.4921875 q 0,-0.3320312 -0.234375,-0.5078125 -0.234375,-0.1796875 -0.84375,-0.375 -0.609375,-0.1992188 -0.964843,-0.390625 -0.9687505,-0.5234375 -0.9687505,-1.4101562 0,-0.4609375 0.2578125,-0.8203125 0.261719,-0.3632813 0.746094,-0.5664063 0.488281,-0.203125 1.09375,-0.203125 0.609375,0 1.085937,0.2226563 0.476563,0.21875 0.738282,0.6210937 0.265625,0.4023438 0.265625,0.9140625 h -1.171875 q 0,-0.390625 -0.246094,-0.6054687 -0.246094,-0.21875 -0.691406,-0.21875 -0.429688,0 -0.667969,0.1835937 -0.238281,0.1796875 -0.238281,0.4765625 0,0.2773437 0.277343,0.4648437 0.28125,0.1875 0.824219,0.3515625 1,0.3007813 1.457031,0.7460938 0.457032,0.4453125 0.457032,1.109375 0,0.73828125 -0.558594,1.16015625 Q 12.625,0.078125 11.679688,0.078125 q -0.65625,0 -1.195313,-0.23828125 -0.5390625,-0.2421875 -0.8242187,-0.66015625 -0.28125,-0.4179687 -0.28125,-0.96875 h 1.1757817 q 0,0.94140625 1.125,0.94140625 0.417968,0 0.652343,-0.16796875 0.234375,-0.171875 0.234375,-0.4765625 z"/>
          <path id="path8177" style="font-weight:bold;font-size:8px;font-family:Roboto, sans-serif;letter-spacing:1px;fill:#333333" d="M 20.003906,-1.8945312 Q 19.9375,-0.9765625 19.324219,-0.44921875 18.714844,0.078125 17.714844,0.078125 q -1.09375,0 -1.722656,-0.734375 -0.625,-0.7382812 -0.625,-2.0234375 v -0.3476563 q 0,-0.8203125 0.289062,-1.4453124 0.289063,-0.625 0.824219,-0.9570313 0.539062,-0.3359375 1.25,-0.3359375 0.984375,0 1.585937,0.5273438 0.601563,0.5273437 0.695313,1.4804687 h -1.171875 q -0.04297,-0.5507812 -0.308594,-0.796875 -0.261719,-0.25 -0.800781,-0.25 -0.585938,0 -0.878907,0.421875 -0.289062,0.4179687 -0.296875,1.3007812 v 0.4296875 q 0,0.9218751 0.277344,1.3476563 0.28125,0.42578125 0.882813,0.42578125 0.542968,0 0.808593,-0.24609375 0.269532,-0.25 0.308594,-0.7695312 z"/>
          <path id="path8179" style="font-weight:bold;font-size:8px;font-family:Roboto, sans-serif;letter-spacing:1px;fill:#333333" d="m 22.945312,-0.94140625 h 2.488282 V 0 h -3.660157 v -5.6875 h 1.171875 z"/>
        </g>
      </g>
      <g transform="translate(66)" id="g7755">
        <g transform="translate(3,5)" id="g7751"/>
        <g style="font-weight:bold;font-size:8px;font-family:Roboto, sans-serif;letter-spacing:2px;fill:#333333" id="text7753" transform="translate(9,40)" aria-label="EQ">
          <path id="path8182" style="font-weight:bold;font-size:8px;font-family:Roboto, sans-serif;letter-spacing:2px;fill:#333333" d="m 3.9296875,-2.4648438 h -2.25 v 1.52343755 h 2.640625 V 0 h -3.8125 V -5.6875 H 4.3125 v 0.9492188 H 1.6796875 v 1.3554687 h 2.25 z"/>
          <path id="path8184" style="font-weight:bold;font-size:8px;font-family:Roboto, sans-serif;letter-spacing:2px;fill:#333333" d="m 11.671875,-2.7148438 q 0,0.7968751 -0.257812,1.3867188 -0.257813,0.5859375 -0.714844,0.94140625 L 11.644531,0.35546875 10.898438,1.015625 9.6875,0.04296875 Q 9.4804688,0.078125 9.2578125,0.078125 q -0.7070312,0 -1.2617188,-0.33984375 Q 7.4414062,-0.6015625 7.1367187,-1.2304687 6.8320312,-1.8632812 6.828125,-2.6835938 v -0.28125 q 0,-0.8398437 0.3007812,-1.4765624 0.3046875,-0.640625 0.8554688,-0.9804688 0.5546875,-0.34375 1.265625,-0.34375 0.7109375,0 1.261719,0.34375 0.554687,0.3398438 0.855469,0.9804688 0.304687,0.6367187 0.304687,1.4726562 z m -1.1875,-0.2578125 q 0,-0.8945312 -0.320312,-1.3593749 Q 9.84375,-4.796875 9.25,-4.796875 q -0.5898437,0 -0.9101562,0.4609375 -0.3203125,0.4570312 -0.3242188,1.34375 v 0.2773437 q 0,0.8710938 0.3203125,1.3515626 0.3203125,0.4804687 0.921875,0.4804687 0.5898438,0 0.9062505,-0.4609375 0.316406,-0.4648437 0.320312,-1.3515625 z"/>
        </g>
      </g>
      <g transform="translate(98)" id="g7761">
        <g transform="translate(3,5)" id="g7757"/>
        <g style="font-weight:bold;font-size:8px;font-family:Roboto, sans-serif;letter-spacing:2px;fill:#333333" id="text7759" transform="translate(6,40)" aria-label="MIX">
          <path id="path8187" style="font-weight:bold;font-size:8px;font-family:Roboto, sans-serif;letter-spacing:2px;fill:#333333" d="M 2.0390625,-5.6875 3.5,-1.5625 4.953125,-5.6875 H 6.4921875 V 0 H 5.3164062 V -1.5546875 L 5.4335937,-4.2382812 3.8984375,0 H 3.09375 L 1.5625,-4.234375 1.6796875,-1.5546875 V 0 h -1.171875 v -5.6875 z"/>
          <path id="path8189" style="font-weight:bold;font-size:8px;font-family:Roboto, sans-serif;letter-spacing:2px;fill:#333333" d="M 10.769531,0 H 9.5976563 v -5.6875 h 1.1718747 z"/>
          <path id="path8191" style="font-weight:bold;font-size:8px;font-family:Roboto, sans-serif;letter-spacing:2px;fill:#333333" d="M 15.949219,-3.7265625 17.015625,-5.6875 h 1.347656 L 16.707031,-2.8671875 18.40625,0 H 17.042969 L 15.949219,-1.9921875 14.855469,0 H 13.492188 L 15.191406,-2.8671875 13.535156,-5.6875 h 1.347657 z"/>
        </g>
      </g>
    </g>
  </g>
</svg>
