<?xml version="1.0" encoding="UTF-8" standalone="no"?>
<svg xmlns:dc="http://purl.org/dc/elements/1.1/" xmlns:cc="http://creativecommons.org/ns#" xmlns:rdf="http://www.w3.org/1999/02/22-rdf-syntax-ns#" xmlns:svg="http://www.w3.org/2000/svg" xmlns="http://www.w3.org/2000/svg" xmlns:sodipodi="http://sodipodi.sourceforge.net/DTD/sodipodi-0.dtd" xmlns:inkscape="http://www.inkscape.org/namespaces/inkscape" inkscape:version="1.0 (4035a4f, 2020-05-01)" sodipodi:docname="svg_render_DGate-pp.svg" id="svg11289" viewBox="0 0 45 380" height="380" width="45" version="1.1">
  <metadata id="metadata11295">
    <rdf:RDF>
      <cc:Work rdf:about="">
        <dc:format>image/svg+xml</dc:format>
        <dc:type rdf:resource="http://purl.org/dc/dcmitype/StillImage"/>
      </cc:Work>
    </rdf:RDF>
  </metadata>
  <defs id="defs11293"/>
  <sodipodi:namedview inkscape:current-layer="svg11289" inkscape:window-maximized="0" inkscape:window-y="23" inkscape:window-x="0" inkscape:cy="190" inkscape:cx="22.5" inkscape:zoom="1.7605263" showgrid="false" id="namedview11291" inkscape:window-height="480" inkscape:window-width="689" inkscape:pageshadow="2" inkscape:pageopacity="0" guidetolerance="10" gridtolerance="10" objecttolerance="10" borderopacity="1" bordercolor="#666666" pagecolor="#ffffff"/>
  
  <svg version="1.1" id="svg11091" width="100%" height="100%">
    <path class="module-background background-fill" d="M 0,0 H 45 V 380 H 0 Z" style="fill:#dddddd" id="rect11089"/>
  </svg>
  <svg version="1.1" id="svg11099" width="100%" height="100%">
    <path class="module-border-inner" d="M 1,1 H 44 V 379 H 1 V 1" style="fill:none;stroke:#e4e4e4;stroke-width:0.5" id="polyline11093"/>
    <path class="module-border-middle" d="m 0.5,0.5 h 44 v 379 H 0.5 V 0.5" style="fill:none;stroke:#ebebeb;stroke-width:0.8" id="polyline11095"/>
    <path class="module-border-outer" d="M 0,0 H 45 V 380 H 0 V 0" style="fill:none;stroke:#f2f2f2;stroke-width:1" id="polyline11097"/>
  </svg>
  <g transform="rotate(-90,194.5,181.5)" id="g11109">
    <g class="title" style="font-weight:normal;font-size:9.33333px;font-family:Comfortaa, sans-serif;letter-spacing:2.5px;fill:#333333" id="text11101" aria-label="DGATE">
      <path id="path11495" style="font-weight:normal;font-size:9.33333px;font-family:Comfortaa, sans-serif;letter-spacing:2.5px;fill:#333333" d="M 1.2973329,0 Q 1.1386663,0 1.0359996,-0.10266663 0.93333302,-0.20533326 0.93333302,-0.36399988 V -6.925331 q 0,-0.1586666 0.10266658,-0.2613332 0.1026667,-0.1026667 0.2613333,-0.1026667 h 1.6799994 q 1.0546663,0 1.8853327,0.4666666 0.8306664,0.4666665 1.2879996,1.2973328 0.4666665,0.8213331 0.4666665,1.8759994 0,1.0546663 -0.4666665,1.8853327 Q 5.6933314,-0.93333302 4.862665,-0.46666651 4.0319986,0 2.9773323,0 Z m 1.6799994,-0.65333311 q 0.8493331,0 1.5119995,-0.38266649 0.6626664,-0.3919999 1.0359997,-1.073333 0.3733332,-0.6813331 0.3733332,-1.5399995 0,-0.8586664 -0.3733332,-1.5399995 Q 5.1519982,-5.8706647 4.4893318,-6.2533312 3.8266654,-6.6359977 2.9773323,-6.6359977 H 1.6613328 v 5.98266459 z"/>
      <path id="path11497" style="font-weight:normal;font-size:9.33333px;font-family:Comfortaa, sans-serif;letter-spacing:2.5px;fill:#333333" d="m 15.734663,-3.6399988 q 0.158666,0 0.261333,0.1026667 0.102667,0.093333 0.102667,0.2519999 v 2.31466586 q 0,0.15866662 -0.102667,0.26133325 -0.868,0.80266639 -2.286666,0.80266639 -0.989333,0 -1.819999,-0.50399983 -0.830667,-0.50399983 -1.325333,-1.36266617 -0.485333,-0.8586664 -0.485333,-1.8759994 0,-1.0079996 0.485333,-1.866666 0.485333,-0.8586664 1.315999,-1.3626662 0.830667,-0.5039999 1.829333,-0.5039999 0.672,0 1.222666,0.196 0.550667,0.1959999 1.064,0.6253331 0.102667,0.074667 0.102667,0.2146666 0,0.074667 -0.03733,0.1399999 -0.03733,0.056 -0.102666,0.084 -0.01867,0.065333 -0.084,0.112 -0.06533,0.037333 -0.14,0.037333 -0.130667,0 -0.233334,-0.093333 -0.363999,-0.3266666 -0.793333,-0.4759998 -0.429333,-0.1493333 -0.998666,-0.1493333 -0.784,0 -1.456,0.4199998 -0.671999,0.4106666 -1.073332,1.1106663 -0.392,0.6999998 -0.392,1.5119995 0,0.8306664 0.392,1.5306662 0.391999,0.6999997 1.063999,1.1106662 0.672,0.41066657 1.465333,0.41066657 0.905333,0 1.679999,-0.53199977 V -2.995999 H 13.93333 q -0.158667,0 -0.261333,-0.093333 -0.102667,-0.093333 -0.102667,-0.2333332 0,-0.14 0.102667,-0.224 0.102666,-0.093333 0.261333,-0.093333 z"/>
      <path id="path11499" style="font-weight:normal;font-size:9.33333px;font-family:Comfortaa, sans-serif;letter-spacing:2.5px;fill:#333333" d="m 25.60318,-0.51333316 q 0.03733,0.0653333 0.03733,0.14933328 0,0.14933329 -0.112,0.26133325 Q 25.425847,0 25.276514,0 25.033847,0 24.93118,-0.22399992 L 24.305847,-1.7359994 h -3.611998 l -0.625334,1.51199948 Q 19.993849,0 19.732516,0 q -0.158667,0 -0.261334,-0.10266663 -0.09333,-0.11199996 -0.09333,-0.26133325 0,-0.0933333 0.028,-0.15866661 l 2.743999,-6.51466441 q 0.102667,-0.252 0.354667,-0.252 0.252,0 0.345333,0.252 z m -1.549333,-1.84799934 -1.549332,-3.7426654 -1.549333,3.7426654 z"/>
      <path id="path11501" style="font-weight:normal;font-size:9.33333px;font-family:Comfortaa, sans-serif;letter-spacing:2.5px;fill:#333333" d="m 33.152949,-7.2893309 q 0.149333,0 0.242666,0.093333 0.09333,0.093333 0.09333,0.2426665 0,0.14 -0.09333,0.2333333 -0.09333,0.093333 -0.242666,0.093333 h -2.221333 v 6.26266452 q 0,0.14933329 -0.102666,0.26133325 Q 30.726283,0 30.567616,0 30.418283,0 30.306283,-0.10266663 30.203616,-0.21466659 30.203616,-0.36399988 V -6.6266644 h -2.211999 q -0.149333,0 -0.242666,-0.093333 -0.09333,-0.093333 -0.09333,-0.2333333 0,-0.1493332 0.09333,-0.2426665 0.09333,-0.093333 0.242666,-0.093333 z"/>
      <path id="path11503" style="font-weight:normal;font-size:9.33333px;font-family:Comfortaa, sans-serif;letter-spacing:2.5px;fill:#333333" d="M 37.41972,0 Q 37.270387,0 37.158387,-0.10266663 37.05572,-0.21466659 37.05572,-0.36399988 V -6.925331 q 0,-0.1586666 0.102667,-0.2613332 0.112,-0.1026667 0.261333,-0.1026667 h 4.377332 q 0.158666,0 0.261333,0.1026667 0.102667,0.1026666 0.102667,0.2519999 0,0.1493333 -0.102667,0.2519999 -0.102667,0.093333 -0.261333,0.093333 H 37.78372 v 2.5759991 h 2.921332 q 0.158667,0 0.261333,0.1026667 0.102667,0.1026666 0.102667,0.2519999 0,0.1493333 -0.112,0.2519999 -0.102667,0.1026666 -0.252,0.1026666 H 37.78372 v 2.60399914 h 4.013332 q 0.158666,0 0.261333,0.10266663 0.102667,0.0933333 0.102667,0.24266658 0,0.14933329 -0.102667,0.25199992 Q 41.955718,0 41.797052,0 Z"/>
    </g>
    <g transform="translate(0,12)" id="g11107">
      <g class="brand" style="font-weight:bold;font-size:9.33333px;font-family:Audiowide, sans-serif;letter-spacing:2px;fill:#333333" id="text11103" aria-label="BGA">
        <path id="path11506" style="font-weight:bold;font-size:9.33333px;font-family:Audiowide, sans-serif;letter-spacing:2px;fill:#333333" d="m 7.209633,-1.4355464 q 0,0.2187499 -0.077474,0.4694009 -0.072917,0.25065095 -0.2460936,0.46484359 Q 6.7174456,-0.28710928 6.4440082,-0.14127599 6.1705708,0 5.7740866,0 H 1.2760412 Q 1.1484371,0 1.0390621,-0.0455729 0.92968718,-0.0911458 0.84765596,-0.16861973 0.77018203,-0.25065096 0.72460913,-0.36002592 0.67903623,-0.46940088 0.67903623,-0.597005 v -5.341144 q 0,-0.1230469 0.0455729,-0.2324218 0.0455729,-0.109375 0.12304683,-0.1914062 0.0820312,-0.082031 0.19140614,-0.1276041 0.109375,-0.045573 0.2369791,-0.045573 h 3.9648424 q 0.21875,0 0.4694009,0.077474 0.250651,0.077474 0.4648436,0.250651 0.2187499,0.1686197 0.3600259,0.4420571 0.1458333,0.2734374 0.1458333,0.6699217 v 0.2233072 q 0,0.314453 -0.1048177,0.6790362 -0.1048176,0.3600259 -0.3372394,0.6835935 0.2005207,0.1230468 0.3736978,0.2962239 0.1777343,0.173177 0.3098957,0.4010415 0.1321614,0.2278645 0.2096353,0.5149738 0.077474,0.2871093 0.077474,0.6334633 z M 6.0247375,-1.6634109 q 0,-0.2324218 -0.072917,-0.4147134 Q 5.8789042,-2.2649732 5.7467428,-2.3971346 5.6145814,-2.529296 5.4277325,-2.5976554 5.2408836,-2.670572 5.0084618,-2.670572 h -2.670572 v -1.19401 h 2.1373691 q 0.2324218,0 0.4192707,-0.068359 0.1868489,-0.072917 0.3190103,-0.205078 0.1321614,-0.1321614 0.2005208,-0.314453 0.072917,-0.1868489 0.072917,-0.4192707 v -0.2233072 q 0,-0.2552083 -0.2460937,-0.2552083 H 1.8639317 v 4.1653632 h 3.9101549 q 0.031901,0 0.077474,-0.00456 0.045573,-0.00456 0.082031,-0.027344 0.036458,-0.022786 0.063802,-0.077474 0.027344,-0.054687 0.027344,-0.1503906 z"/>
        <path id="path11508" style="font-weight:bold;font-size:9.33333px;font-family:Audiowide, sans-serif;letter-spacing:2px;fill:#333333" d="m 16.683589,-0.597005 q 0,0.12760412 -0.04557,0.23697908 -0.04557,0.10937496 -0.127605,0.19140619 -0.07747,0.07747393 -0.186849,0.12304683 Q 16.214189,0 16.086584,0 h -4.274738 q -0.164062,0 -0.355468,-0.03645832 -0.186849,-0.04101561 -0.373698,-0.12304683 -0.182292,-0.0820312 -0.350911,-0.20963535 -0.16862,-0.13216141 -0.300782,-0.31445302 -0.127604,-0.18684889 -0.205078,-0.42838528 -0.07747,-0.2460937 -0.07747,-0.5514321 v -3.2083322 q 0,-0.1640625 0.03646,-0.3509114 0.04101,-0.1914062 0.123047,-0.3736978 0.08203,-0.1868489 0.214192,-0.3554686 0.132162,-0.1686197 0.314453,-0.2962238 0.186849,-0.1321615 0.428385,-0.2096354 0.241537,-0.077474 0.546875,-0.077474 h 4.817056 v 1.1848954 h -4.817056 q -0.232422,0 -0.355468,0.1230468 -0.123047,0.1230469 -0.123047,0.3645832 v 3.1992177 q 0,0.2278645 0.123047,0.3554686 0.127604,0.1230469 0.355468,0.1230469 h 3.686848 V -2.670572 h -3.153645 v -1.19401 h 3.741535 q 0.127605,0 0.236979,0.05013 0.109375,0.045573 0.186849,0.1276041 0.08203,0.082031 0.127605,0.1914062 0.04557,0.1048177 0.04557,0.2278645 z"/>
        <path id="path11510" style="font-weight:bold;font-size:9.33333px;font-family:Audiowide, sans-serif;letter-spacing:2px;fill:#333333" d="M 26.339836,0 H 25.154941 V -1.6041661 H 20.989578 V 0 h -1.184896 v -3.267577 q 0,-0.7154946 0.246094,-1.3170569 0.246094,-0.6015623 0.683593,-1.0345048 0.4375,-0.4329426 1.034505,-0.6744789 0.597005,-0.2415364 1.303385,-0.2415364 h 2.670572 q 0.123047,0 0.232422,0.045573 0.109375,0.045573 0.191406,0.1276041 0.08203,0.082031 0.127604,0.1914062 0.04557,0.1093749 0.04557,0.2324218 z m -5.350258,-2.7890616 h 4.165363 v -2.561197 h -2.082682 q -0.05469,0 -0.232422,0.018229 -0.173177,0.013672 -0.405598,0.077474 -0.227865,0.063802 -0.483073,0.1959635 -0.255208,0.1321614 -0.469401,0.3645832 -0.214193,0.2324218 -0.355469,0.5833331 -0.136718,0.3463541 -0.136718,0.8430987 z"/>
      </g>
      <path d="M 0,0 H 3 V 3 H 0 Z" style="fill:#dddddd" transform="translate(11.5,-5)" id="rect11105"/>
    </g>
  </g>
  <g style="font-weight:bold;font-size:8px;font-family:Roboto, sans-serif;letter-spacing:2px;fill:#333333" id="text11113" aria-label="DELAY">
    <path id="path11484" style="font-weight:bold;font-size:8px;font-family:Roboto, sans-serif;letter-spacing:2px;fill:#333333" d="m 7.0078125,25 v -5.6875 h 1.75 q 0.75,0 1.3398435,0.339844 0.59375,0.335937 0.925782,0.960937 0.332031,0.621094 0.332031,1.414063 v 0.261718 q 0,0.792969 -0.328125,1.410157 -0.324219,0.617187 -0.917969,0.957031 Q 9.515625,24.996094 8.7695313,25 Z m 1.171875,-4.738281 v 3.796875 h 0.5664063 q 0.6875,0 1.0507812,-0.449219 0.363281,-0.449219 0.371094,-1.285156 v -0.300782 q 0,-0.867187 -0.3593752,-1.3125 -0.359375,-0.449218 -1.0507813,-0.449218 z"/>
    <path id="path11486" style="font-weight:bold;font-size:8px;font-family:Roboto, sans-serif;letter-spacing:2px;fill:#333333" d="m 17.632812,22.535156 h -2.249999 v 1.523438 h 2.640624 V 25 h -3.812499 v -5.6875 h 3.804687 v 0.949219 h -2.632812 v 1.355468 h 2.249999 z"/>
    <path id="path11488" style="font-weight:bold;font-size:8px;font-family:Roboto, sans-serif;letter-spacing:2px;fill:#333333" d="m 21.882812,24.058594 h 2.488282 V 25 h -3.660157 v -5.6875 h 1.171875 z"/>
    <path id="path11490" style="font-weight:bold;font-size:8px;font-family:Roboto, sans-serif;letter-spacing:2px;fill:#333333" d="M 30.328125,23.828125 H 28.273437 L 27.882812,25 h -1.246093 l 2.117187,-5.6875 h 1.085938 L 31.96875,25 h -1.246094 z m -1.738281,-0.949219 h 1.421875 L 29.296875,20.75 Z"/>
    <path id="path11492" style="font-weight:bold;font-size:8px;font-family:Roboto, sans-serif;letter-spacing:2px;fill:#333333" d="m 35.890625,21.875 1.183594,-2.5625 h 1.28125 l -1.867188,3.625 V 25 h -1.191406 v -2.0625 l -1.867188,-3.625 h 1.285157 z"/>
  </g>
  <g transform="translate(0,25)" id="g11115"/>
  <g transform="translate(0,25)" id="g11175">
    <svg version="1.1" id="svg11173" width="100%" height="100%">
      <g transform="translate(22.5,22.5)" id="g11171">
        <g transform="rotate(120,-8.5,4.9074773)" id="g11121">
          <g transform="rotate(-120,1.5,-0.8660254)" id="g11119">
            <g style="font-weight:bold;font-size:8.66667px;font-family:Roboto, sans-serif;fill:#333333" id="text11117" transform="translate(-2.8,3.3)" aria-label="0">
              <path id="path11466" style="font-weight:bold;font-size:8.66667px;font-family:Roboto, sans-serif;fill:#333333" d="m 4.5660824,-2.547527 q 0,1.2779953 -0.5289715,1.95507887 -0.5289716,0.67708358 -1.5488287,0.67708358 -1.0071619,0 -1.54036519,-0.66438827 Q 0.41471369,-1.2441411 0.40201838,-2.4840504 v -1.134115 q 0,-1.2906906 0.53320332,-1.9593106 0.5374351,-0.66862 1.5445969,-0.66862 1.0071618,0 1.5403652,0.6643882 0.5332033,0.6601565 0.5458986,1.9000658 z M 3.3431002,-3.7916681 q 0,-0.7659508 -0.2115886,-1.1129561 -0.2073569,-0.3512371 -0.651693,-0.3512371 -0.4316408,0 -0.6389976,0.33431 -0.2031251,0.3300783 -0.2158204,1.0367843 v 1.4980474 q 0,0.7532555 0.2031251,1.1214197 0.2073568,0.36393238 0.6601565,0.36393238 0.4485678,0 0.6474611,-0.35123708 0.1988933,-0.3512371 0.2073569,-1.0748702 z"/>
            </g>
          </g>
        </g>
        <g transform="rotate(-172.92,-8.5,-0.52583884)" id="g11125">
          <path d="M 0,0 H 1.5" style="stroke:#333333;stroke-width:0.3" id="polyline11123"/>
        </g>
        <g transform="rotate(-145.13,-8.5,-2.6694419)" id="g11131">
          <g transform="rotate(145.13,1.5,0.47107798)" id="g11129">
            <g style="font-weight:bold;font-size:8.66667px;font-family:Roboto, sans-serif;fill:#333333" id="text11127" transform="translate(-2.8,3.3)" aria-label="1">
              <path id="path11470" style="font-weight:bold;font-size:8.66667px;font-family:Roboto, sans-serif;fill:#333333" d="M 3.3896497,0 H 2.1666675 V -4.7141944 L 0.70670599,-4.2613948 V -5.2558613 L 3.2584647,-6.1699241 h 0.131185 z"/>
            </g>
          </g>
        </g>
        <g transform="rotate(-105.84,-8.5,-6.4238366)" id="g11135">
          <path d="M 0,0 H 3" style="stroke:#333333;stroke-width:0.3" id="polyline11133"/>
        </g>
        <g transform="rotate(-75.68,-8.5,-10.942351)" id="g11139">
          <path d="M 0,0 H 3" style="stroke:#333333;stroke-width:0.3" id="polyline11137"/>
        </g>
        <g transform="rotate(-50.26,-8.5,-18.120852)" id="g11143">
          <path d="M 0,0 H 3" style="stroke:#333333;stroke-width:0.3" id="polyline11141"/>
        </g>
        <g transform="rotate(-27.87,-8.5,-34.257154)" id="g11149">
          <g transform="rotate(27.87,1.5,6.0453801)" id="g11147">
            <g style="font-weight:bold;font-size:8.66667px;font-family:Roboto, sans-serif;fill:#333333" id="text11145" transform="translate(-2.8,3.3)" aria-label="5">
              <path id="path11476" style="font-weight:bold;font-size:8.66667px;font-family:Roboto, sans-serif;fill:#333333" d="M 0.60091168,-3.029949 0.95638056,-6.1614606 H 4.4095068 v 1.0198572 H 1.9593106 l -0.1523438,1.3245447 q 0.4358726,-0.2327475 0.9267582,-0.2327475 0.8802086,0 1.3795578,0.5458987 0.4993491,0.5458986 0.4993491,1.5276698 0,0.5966799 -0.2539063,1.07063841 -0.2496746,0.46972673 -0.7194013,0.73209662 -0.4697268,0.25813812 -1.1087244,0.25813812 -0.558594,0 -1.0367842,-0.22428394 Q 1.0156254,-0.3681642 0.7363284,-0.77864612 0.46126319,-1.189128 0.4443361,-1.7138678 H 1.654623 q 0.038086,0.3850913 0.2666017,0.6009117 0.2327474,0.21158858 0.6051434,0.21158858 0.4147137,0 0.6389976,-0.29622408 0.224284,-0.3004558 0.224284,-0.8463545 0,-0.5247397 -0.2581381,-0.8040367 -0.2581382,-0.279297 -0.7320967,-0.279297 -0.4358725,0 -0.7067059,0.2285157 L 1.5742193,-2.788738 Z"/>
            </g>
          </g>
        </g>
        <g transform="rotate(-7.62,-8.5,-127.63677)" id="g11153">
          <path d="M 0,0 H 3" style="stroke:#333333;stroke-width:0.3" id="polyline11151"/>
        </g>
        <g transform="rotate(11,-8.5,88.275875)" id="g11157">
          <path d="M 0,0 H 3" style="stroke:#333333;stroke-width:0.3" id="polyline11155"/>
        </g>
        <g transform="rotate(28.33,-8.5,33.678168)" id="g11161">
          <path d="M 0,0 H 3" style="stroke:#333333;stroke-width:0.3" id="polyline11159"/>
        </g>
        <g transform="rotate(44.6,-8.5,20.725142)" id="g11165">
          <path d="M 0,0 H 3" style="stroke:#333333;stroke-width:0.3" id="polyline11163"/>
        </g>
        <g transform="rotate(60,-8.5,14.722432)" id="g11169">
          <path d="M 0,0 H 3" style="stroke:#333333;stroke-width:0.3" id="polyline11167"/>
        </g>
      </g>
    </svg>
  </g>
  <g transform="translate(20.8,65)" id="g11177"/>
  <g style="font-weight:bold;font-size:8px;font-family:Roboto, sans-serif;letter-spacing:2px;fill:#333333" id="text11181" aria-label="GATE">
    <path id="path11457" style="font-weight:bold;font-size:8px;font-family:Roboto, sans-serif;letter-spacing:2px;fill:#333333" d="m 13.507813,83.28125 q -0.316407,0.378906 -0.894532,0.589844 -0.578125,0.207031 -1.28125,0.207031 -0.738281,0 -1.296875,-0.320313 Q 9.4804688,83.433594 9.1757813,82.820312 8.875,82.207031 8.8671875,81.378906 v -0.386719 q 0,-0.851562 0.2851563,-1.472656 0.2890625,-0.625 0.828125,-0.953125 0.5429692,-0.332031 1.2695312,-0.332031 1.011719,0 1.582031,0.484375 0.570313,0.480469 0.675782,1.402344 h -1.140625 q -0.07813,-0.488282 -0.347657,-0.714844 -0.265625,-0.226563 -0.734375,-0.226563 -0.597656,0 -0.910156,0.449219 -0.3125,0.449219 -0.316406,1.335938 v 0.363281 q 0,0.894531 0.339844,1.351562 0.339843,0.457032 0.996093,0.457032 0.660157,0 0.941407,-0.28125 V 81.875 h -1.066407 v -0.863281 h 2.238282 z"/>
    <path id="path11459" style="font-weight:bold;font-size:8px;font-family:Roboto, sans-serif;letter-spacing:2px;fill:#333333" d="M 19.671875,82.828125 H 17.617187 L 17.226562,84 h -1.246093 l 2.117187,-5.6875 h 1.085938 L 21.3125,84 h -1.246094 z m -1.738281,-0.949219 h 1.421875 L 18.640625,79.75 Z"/>
    <path id="path11461" style="font-weight:bold;font-size:8px;font-family:Roboto, sans-serif;letter-spacing:2px;fill:#333333" d="M 27.664062,79.261719 H 25.921875 V 84 H 24.75 V 79.261719 H 23.03125 V 78.3125 h 4.632812 z"/>
    <path id="path11463" style="font-weight:bold;font-size:8px;font-family:Roboto, sans-serif;letter-spacing:2px;fill:#333333" d="m 33.757812,81.535156 h -2.25 v 1.523438 h 2.640625 V 84 h -3.8125 v -5.6875 h 3.804688 v 0.949219 h -2.632813 v 1.355468 h 2.25 z"/>
  </g>
  <g transform="translate(0,84)" id="g11183"/>
  <g transform="translate(0,84)" id="g11243">
    <svg version="1.1" id="svg11241" width="100%" height="100%">
      <g transform="translate(22.5,22.5)" id="g11239">
        <g transform="rotate(120,-8.5,4.9074773)" id="g11189">
          <g transform="rotate(-120,1.5,-0.8660254)" id="g11187">
            <g style="font-weight:bold;font-size:8.66667px;font-family:Roboto, sans-serif;fill:#333333" id="text11185" transform="translate(-2.8,3.3)" aria-label="0">
              <path id="path11439" style="font-weight:bold;font-size:8.66667px;font-family:Roboto, sans-serif;fill:#333333" d="m 4.5660824,-2.547527 q 0,1.2779953 -0.5289715,1.95507887 -0.5289716,0.67708358 -1.5488287,0.67708358 -1.0071619,0 -1.54036519,-0.66438827 Q 0.41471369,-1.2441411 0.40201838,-2.4840504 v -1.134115 q 0,-1.2906906 0.53320332,-1.9593106 0.5374351,-0.66862 1.5445969,-0.66862 1.0071618,0 1.5403652,0.6643882 0.5332033,0.6601565 0.5458986,1.9000658 z M 3.3431002,-3.7916681 q 0,-0.7659508 -0.2115886,-1.1129561 -0.2073569,-0.3512371 -0.651693,-0.3512371 -0.4316408,0 -0.6389976,0.33431 -0.2031251,0.3300783 -0.2158204,1.0367843 v 1.4980474 q 0,0.7532555 0.2031251,1.1214197 0.2073568,0.36393238 0.6601565,0.36393238 0.4485678,0 0.6474611,-0.35123708 0.1988933,-0.3512371 0.2073569,-1.0748702 z"/>
            </g>
          </g>
        </g>
        <g transform="rotate(-172.92,-8.5,-0.52583884)" id="g11193">
          <path d="M 0,0 H 1.5" style="stroke:#333333;stroke-width:0.3" id="polyline11191"/>
        </g>
        <g transform="rotate(-145.13,-8.5,-2.6694419)" id="g11199">
          <g transform="rotate(145.13,1.5,0.47107798)" id="g11197">
            <g style="font-weight:bold;font-size:8.66667px;font-family:Roboto, sans-serif;fill:#333333" id="text11195" transform="translate(-2.8,3.3)" aria-label="1">
              <path id="path11443" style="font-weight:bold;font-size:8.66667px;font-family:Roboto, sans-serif;fill:#333333" d="M 3.3896497,0 H 2.1666675 V -4.7141944 L 0.70670599,-4.2613948 V -5.2558613 L 3.2584647,-6.1699241 h 0.131185 z"/>
            </g>
          </g>
        </g>
        <g transform="rotate(-105.84,-8.5,-6.4238366)" id="g11203">
          <path d="M 0,0 H 3" style="stroke:#333333;stroke-width:0.3" id="polyline11201"/>
        </g>
        <g transform="rotate(-75.68,-8.5,-10.942351)" id="g11207">
          <path d="M 0,0 H 3" style="stroke:#333333;stroke-width:0.3" id="polyline11205"/>
        </g>
        <g transform="rotate(-50.26,-8.5,-18.120852)" id="g11211">
          <path d="M 0,0 H 3" style="stroke:#333333;stroke-width:0.3" id="polyline11209"/>
        </g>
        <g transform="rotate(-27.87,-8.5,-34.257154)" id="g11217">
          <g transform="rotate(27.87,1.5,6.0453801)" id="g11215">
            <g style="font-weight:bold;font-size:8.66667px;font-family:Roboto, sans-serif;fill:#333333" id="text11213" transform="translate(-2.8,3.3)" aria-label="5">
              <path id="path11449" style="font-weight:bold;font-size:8.66667px;font-family:Roboto, sans-serif;fill:#333333" d="M 0.60091168,-3.029949 0.95638056,-6.1614606 H 4.4095068 v 1.0198572 H 1.9593106 l -0.1523438,1.3245447 q 0.4358726,-0.2327475 0.9267582,-0.2327475 0.8802086,0 1.3795578,0.5458987 0.4993491,0.5458986 0.4993491,1.5276698 0,0.5966799 -0.2539063,1.07063841 -0.2496746,0.46972673 -0.7194013,0.73209662 -0.4697268,0.25813812 -1.1087244,0.25813812 -0.558594,0 -1.0367842,-0.22428394 Q 1.0156254,-0.3681642 0.7363284,-0.77864612 0.46126319,-1.189128 0.4443361,-1.7138678 H 1.654623 q 0.038086,0.3850913 0.2666017,0.6009117 0.2327474,0.21158858 0.6051434,0.21158858 0.4147137,0 0.6389976,-0.29622408 0.224284,-0.3004558 0.224284,-0.8463545 0,-0.5247397 -0.2581381,-0.8040367 -0.2581382,-0.279297 -0.7320967,-0.279297 -0.4358725,0 -0.7067059,0.2285157 L 1.5742193,-2.788738 Z"/>
            </g>
          </g>
        </g>
        <g transform="rotate(-7.62,-8.5,-127.63677)" id="g11221">
          <path d="M 0,0 H 3" style="stroke:#333333;stroke-width:0.3" id="polyline11219"/>
        </g>
        <g transform="rotate(11,-8.5,88.275875)" id="g11225">
          <path d="M 0,0 H 3" style="stroke:#333333;stroke-width:0.3" id="polyline11223"/>
        </g>
        <g transform="rotate(28.33,-8.5,33.678168)" id="g11229">
          <path d="M 0,0 H 3" style="stroke:#333333;stroke-width:0.3" id="polyline11227"/>
        </g>
        <g transform="rotate(44.6,-8.5,20.725142)" id="g11233">
          <path d="M 0,0 H 3" style="stroke:#333333;stroke-width:0.3" id="polyline11231"/>
        </g>
        <g transform="rotate(60,-8.5,14.722432)" id="g11237">
          <path d="M 0,0 H 3" style="stroke:#333333;stroke-width:0.3" id="polyline11235"/>
        </g>
      </g>
    </svg>
  </g>
  <g transform="translate(20.8,124)" id="g11245"/>
  <g style="font-weight:bold;font-size:6.66667px;font-family:Roboto, sans-serif;letter-spacing:2px;fill:#333333" id="text11249" aria-label="STOP">
    <path id="path11430" style="font-weight:bold;font-size:6.66667px;font-family:Roboto, sans-serif;letter-spacing:2px;fill:#333333" d="m 13.880861,140.75651 q 0,-0.27669 -0.195313,-0.42318 -0.195312,-0.14974 -0.703125,-0.3125 -0.507813,-0.16601 -0.804037,-0.32552 -0.807292,-0.4362 -0.807292,-1.17513 0,-0.38411 0.214844,-0.68359 0.218099,-0.30274 0.621745,-0.47201 0.406901,-0.16927 0.911459,-0.16927 0.507812,0 0.904948,0.18555 0.397136,0.18229 0.615235,0.51758 0.221354,0.33528 0.221354,0.76171 h -0.976563 q 0,-0.32552 -0.205078,-0.50455 -0.205078,-0.18229 -0.576172,-0.18229 -0.358074,0 -0.556641,0.15299 -0.198568,0.14974 -0.198568,0.39714 0,0.23112 0.23112,0.38737 0.234375,0.15625 0.686849,0.29296 0.833334,0.25066 1.214193,0.62175 0.38086,0.37109 0.38086,0.92448 0,0.61523 -0.465495,0.9668 -0.465495,0.3483 -1.253256,0.3483 -0.546875,0 -0.996094,-0.19856 -0.449219,-0.20183 -0.686849,-0.55013 -0.234376,-0.34831 -0.234376,-0.8073 h 0.979819 q 0,0.78451 0.9375,0.78451 0.348308,0 0.54362,-0.13997 0.195313,-0.14323 0.195313,-0.39714 z"/>
    <path id="path11432" style="font-weight:bold;font-size:6.66667px;font-family:Roboto, sans-serif;letter-spacing:2px;fill:#333333" d="M 21.092452,138.05143 H 19.640628 V 142 h -0.976563 v -3.94857 h -1.432292 v -0.79102 h 3.860679 z"/>
    <path id="path11434" style="font-weight:bold;font-size:6.66667px;font-family:Roboto, sans-serif;letter-spacing:2px;fill:#333333" d="m 27.454434,139.73763 q 0,0.69987 -0.247396,1.22721 -0.247396,0.52735 -0.709636,0.81381 -0.458985,0.28645 -1.054688,0.28645 -0.589193,0 -1.051433,-0.2832 -0.46224,-0.2832 -0.716146,-0.80729 -0.253906,-0.52735 -0.257162,-1.21094 v -0.23437 q 0,-0.69987 0.250651,-1.23047 0.253907,-0.53386 0.712891,-0.81706 0.46224,-0.28646 1.054688,-0.28646 0.592449,0 1.051433,0.28646 0.46224,0.2832 0.712891,0.81706 0.253907,0.5306 0.253907,1.22721 z m -0.989584,-0.21484 q 0,-0.74545 -0.266927,-1.13282 -0.266928,-0.38737 -0.76172,-0.38737 -0.491536,0 -0.758463,0.38412 -0.266928,0.38086 -0.270183,1.11979 v 0.23112 q 0,0.72591 0.266927,1.1263 0.266928,0.40039 0.76823,0.40039 0.491537,0 0.755209,-0.38411 0.263672,-0.38737 0.266927,-1.1263 z"/>
    <path id="path11436" style="font-weight:bold;font-size:6.66667px;font-family:Roboto, sans-serif;letter-spacing:2px;fill:#333333" d="M 31.147142,140.33008 V 142 h -0.976563 v -4.73959 h 1.84896 q 0.533854,0 0.9375,0.19532 0.406901,0.19531 0.625,0.55664 0.218099,0.35807 0.218099,0.81706 0,0.69661 -0.478515,1.10026 -0.475261,0.40039 -1.31836,0.40039 z m 0,-0.79102 h 0.872397 q 0.38737,0 0.589193,-0.18229 0.205078,-0.18229 0.205078,-0.52083 0,-0.34831 -0.205078,-0.56316 -0.205079,-0.21484 -0.566407,-0.22135 h -0.895183 z"/>
  </g>
  <g transform="translate(15.5,145)" id="g11251"/>
  <g style="font-weight:bold;font-size:6.66667px;font-family:Roboto, sans-serif;letter-spacing:2px;fill:#333333" id="text11253" aria-label="LOOP">
    <path id="path11421" style="font-weight:bold;font-size:6.66667px;font-family:Roboto, sans-serif;letter-spacing:2px;fill:#333333" d="m 12.89974,176.21549 h 2.073569 V 177 h -3.050132 v -4.73959 h 0.976563 z"/>
    <path id="path11423" style="font-weight:bold;font-size:6.66667px;font-family:Roboto, sans-serif;letter-spacing:2px;fill:#333333" d="m 21.214848,174.73763 q 0,0.69987 -0.247396,1.22721 -0.247396,0.52735 -0.709636,0.81381 -0.458985,0.28645 -1.054688,0.28645 -0.589193,0 -1.051433,-0.2832 -0.46224,-0.2832 -0.716146,-0.80729 -0.253906,-0.52735 -0.257162,-1.21094 v -0.23437 q 0,-0.69987 0.250652,-1.23047 0.253906,-0.53386 0.712891,-0.81706 0.462239,-0.28646 1.054688,-0.28646 0.592448,0 1.051432,0.28646 0.46224,0.2832 0.712891,0.81706 0.253907,0.5306 0.253907,1.22721 z m -0.989584,-0.21484 q 0,-0.74545 -0.266927,-1.13282 -0.266928,-0.38737 -0.761719,-0.38737 -0.491537,0 -0.758464,0.38412 -0.266928,0.38086 -0.270183,1.11979 v 0.23112 q 0,0.72591 0.266927,1.1263 0.266928,0.40039 0.76823,0.40039 0.491537,0 0.755209,-0.38411 0.263672,-0.38737 0.266927,-1.1263 z"/>
    <path id="path11425" style="font-weight:bold;font-size:6.66667px;font-family:Roboto, sans-serif;letter-spacing:2px;fill:#333333" d="m 27.824225,174.73763 q 0,0.69987 -0.247396,1.22721 -0.247396,0.52735 -0.709636,0.81381 -0.458985,0.28645 -1.054688,0.28645 -0.589193,0 -1.051433,-0.2832 -0.46224,-0.2832 -0.716146,-0.80729 -0.253906,-0.52735 -0.257162,-1.21094 v -0.23437 q 0,-0.69987 0.250652,-1.23047 0.253906,-0.53386 0.71289,-0.81706 0.46224,-0.28646 1.054688,-0.28646 0.592449,0 1.051433,0.28646 0.46224,0.2832 0.712891,0.81706 0.253907,0.5306 0.253907,1.22721 z m -0.989584,-0.21484 q 0,-0.74545 -0.266927,-1.13282 -0.266928,-0.38737 -0.76172,-0.38737 -0.491536,0 -0.758463,0.38412 -0.266928,0.38086 -0.270183,1.11979 v 0.23112 q 0,0.72591 0.266927,1.1263 0.266928,0.40039 0.76823,0.40039 0.491537,0 0.755209,-0.38411 0.263672,-0.38737 0.266927,-1.1263 z"/>
    <path id="path11427" style="font-weight:bold;font-size:6.66667px;font-family:Roboto, sans-serif;letter-spacing:2px;fill:#333333" d="M 31.516933,175.33008 V 177 h -0.976562 v -4.73959 h 1.848959 q 0.533854,0 0.9375,0.19532 0.406901,0.19531 0.625,0.55664 0.2181,0.35807 0.2181,0.81706 0,0.69661 -0.478516,1.10026 -0.475261,0.40039 -1.31836,0.40039 z m 0,-0.79102 h 0.872397 q 0.38737,0 0.589193,-0.18229 0.205078,-0.18229 0.205078,-0.52083 0,-0.34831 -0.205078,-0.56316 -0.205079,-0.21484 -0.566407,-0.22135 h -0.895183 z"/>
  </g>
  <g transform="translate(5.5,187)" id="g11267">
    <path d="M 0,0 H 34 V 10 H 0 Z" style="fill:#fafafa" transform="translate(0,58)" id="rect11257"/>
    <path d="m 5,0 h 24 c 2.77,0 5,2.23 5,5 v 52 c 0,2.77 -2.23,5 -5,5 H 5 C 2.23,62 0,59.77 0,57 V 5 C 0,2.23 2.23,0 5,0 Z" style="fill:#fafafa" id="rect11259"/>
    <g transform="translate(8,4)" id="g11261"/>
    <g transform="translate(5,26)" id="g11263"/>
    <g style="font-weight:bold;font-size:6.66667px;font-family:Roboto, sans-serif;letter-spacing:2px;fill:#333333" id="text11265" transform="translate(6.6,58)" aria-label="TRIG">
      <path id="path11412" style="font-weight:bold;font-size:6.66667px;font-family:Roboto, sans-serif;letter-spacing:2px;fill:#333333" d="M 3.9908873,-3.9485696 H 2.5390637 V 0 H 1.5625007 V -3.9485696 H 0.1302084 v -0.791016 h 3.8606789 z"/>
      <path id="path11414" style="font-weight:bold;font-size:6.66667px;font-family:Roboto, sans-serif;letter-spacing:2px;fill:#333333" d="M 8.3053413,-1.7350269 H 7.5273462 V 0 h -0.976563 v -4.7395856 h 1.7610685 q 0.8398442,0 1.2955736,0.3743491 0.4557297,0.3743492 0.4557297,1.0579433 0,0.4850262 -0.211589,0.8105472 -0.2083334,0.3222658 -0.6347659,0.5143232 l 1.0253909,1.93684986 V 0 H 9.1940136 Z M 7.5273462,-2.5260429 H 8.315107 q 0.3678387,0 0.5696617,-0.1855469 0.201823,-0.1888022 0.201823,-0.5175784 0,-0.3352866 -0.1920574,-0.527344 Q 8.7057321,-3.9485696 8.3118517,-3.9485696 H 7.5273462 Z"/>
      <path id="path11416" style="font-weight:bold;font-size:6.66667px;font-family:Roboto, sans-serif;letter-spacing:2px;fill:#333333" d="m 13.847009,0 h -0.976563 v -4.7395856 h 0.976563 z"/>
      <path id="path11418" style="font-weight:bold;font-size:6.66667px;font-family:Roboto, sans-serif;letter-spacing:2px;fill:#333333" d="m 20.498704,-0.59895862 q -0.263672,0.31575536 -0.745443,0.49153669 -0.481771,0.17252613 -1.067709,0.17252613 -0.615234,0 -1.080729,-0.26692721 -0.46224,-0.27018242 -0.716146,-0.78125038 -0.250652,-0.51106791 -0.257162,-1.20117241 v -0.3222658 q 0,-0.7096358 0.23763,-1.2272141 0.240886,-0.5208336 0.690105,-0.7942713 0.452474,-0.2766928 1.057943,-0.2766928 0.843099,0 1.31836,0.403646 0.475261,0.4003909 0.563151,1.1686204 h -0.950521 q -0.0651,-0.4069013 -0.289714,-0.5957034 -0.221354,-0.1888022 -0.611979,-0.1888022 -0.498047,0 -0.758464,0.3743491 -0.260417,0.3743492 -0.263672,1.1132818 v 0.3027345 q 0,0.7454431 0.283203,1.1263027 0.283204,0.38085952 0.830079,0.38085952 0.55013,0 0.784505,-0.23437512 v -0.8170577 h -0.888672 v -0.7194014 h 1.865235 z"/>
    </g>
  </g>
  <g transform="translate(0,249)" id="g11285">
    <path d="m 5,0 h 24 c 2.77,0 5,2.23 5,5 v 64 c 0,2.77 -2.23,5 -5,5 H 5 C 2.23,74 0,71.77 0,69 V 5 C 0,2.23 2.23,0 5,0 Z" style="fill:#bbbbbb" transform="translate(5.5)" id="rect11269"/>
    <path d="M 0,0 H 34 V 10 H 0 Z" style="fill:#bbbbbb" transform="translate(5.5)" id="rect11271"/>
    <g transform="translate(5.5)" id="g11277">
      <g transform="translate(5,3)" id="g11273"/>
      <g style="font-weight:bold;font-size:6.66667px;font-family:Roboto, sans-serif;letter-spacing:2px;fill:#333333" id="text11275" transform="translate(5.5,35)" aria-label="GATE">
        <path id="path11394" style="font-weight:bold;font-size:6.66667px;font-family:Roboto, sans-serif;letter-spacing:2px;fill:#333333" d="M 4.1731791,-0.59895862 Q 3.9095071,-0.28320326 3.427736,-0.10742193 2.9459649,0.0651042 2.3600272,0.0651042 q -0.6152347,0 -1.0807297,-0.26692721 Q 0.81705768,-0.47200543 0.56315131,-0.98307339 0.31250015,-1.4941413 0.30598973,-2.1842458 v -0.3222658 q 0,-0.7096358 0.23763032,-1.2272141 0.24088553,-0.5208336 0.69010445,-0.7942713 0.4524742,-0.2766928 1.0579433,-0.2766928 0.8430993,0 1.31836,0.403646 0.4752606,0.4003909 0.5631513,1.1686204 H 3.2226578 Q 3.1575536,-3.6393247 2.9329441,-3.8281268 2.7115898,-4.016929 2.3209646,-4.016929 q -0.4980471,0 -0.7584639,0.3743491 -0.2604167,0.3743492 -0.263672,1.1132818 v 0.3027345 q 0,0.7454431 0.2832033,1.1263027 0.2832033,0.38085952 0.8300785,0.38085952 0.5501305,0 0.7845056,-0.23437512 V -1.7708342 H 2.3079438 v -0.7194014 h 1.8652353 z"/>
        <path id="path11396" style="font-weight:bold;font-size:6.66667px;font-family:Roboto, sans-serif;letter-spacing:2px;fill:#333333" d="M 9.6432327,-0.97656297 H 7.9309923 L 7.6054713,0 H 6.5670594 L 8.3313831,-4.7395856 H 9.2363315 L 11.010421,0 H 9.9720089 Z M 8.1946643,-1.767579 H 9.3795607 L 8.7838573,-3.5416684 Z"/>
        <path id="path11398" style="font-weight:bold;font-size:6.66667px;font-family:Roboto, sans-serif;letter-spacing:2px;fill:#333333" d="M 16.636725,-3.9485696 H 15.184901 V 0 h -0.976562 v -3.9485696 h -1.432293 v -0.791016 h 3.860679 z"/>
        <path id="path11400" style="font-weight:bold;font-size:6.66667px;font-family:Roboto, sans-serif;letter-spacing:2px;fill:#333333" d="m 22.048184,-2.0540374 h -1.875001 v 1.26953182 h 2.200522 V 0 h -3.177084 v -4.7395856 h 3.170574 v 0.791016 h -2.194012 v 1.1295578 h 1.875001 z"/>
      </g>
    </g>
    <g transform="translate(5.5,38)" id="g11283">
      <g transform="translate(5)" id="g11279"/>
      <g style="font-weight:bold;font-size:6.66667px;font-family:Roboto, sans-serif;letter-spacing:2px;fill:#333333" id="text11281" transform="translate(8.5,32)" aria-label="END">
        <path id="path11403" style="font-weight:bold;font-size:6.66667px;font-family:Roboto, sans-serif;letter-spacing:2px;fill:#333333" d="M 3.2747411,-2.0540374 H 1.3997403 v 1.26953182 H 3.6002621 V 0 H 0.42317729 V -4.7395856 H 3.5937517 v 0.791016 H 1.3997403 v 1.1295578 h 1.8750008 z"/>
        <path id="path11405" style="font-weight:bold;font-size:6.66667px;font-family:Roboto, sans-serif;letter-spacing:2px;fill:#333333" d="M 10.027348,0 H 9.0507847 L 7.1497422,-3.1184911 V 0 h -0.976563 v -4.7395856 h 0.976563 l 1.9042977,3.1250015 v -3.1250015 h 0.9733081 z"/>
        <path id="path11407" style="font-weight:bold;font-size:6.66667px;font-family:Roboto, sans-serif;letter-spacing:2px;fill:#333333" d="m 12.886723,0 v -4.7395856 h 1.458334 q 0.625,0 1.116537,0.2832033 0.494792,0.279948 0.771485,0.8007816 0.276693,0.5175784 0.276693,1.178386 v 0.218099 q 0,0.6608076 -0.273438,1.1751308 -0.270182,0.51432317 -0.764974,0.79752643 Q 14.976568,-0.00325521 14.354823,0 Z m 0.976563,-3.9485696 v 3.16406402 h 0.472005 q 0.572917,0 0.875652,-0.37434912 0.302734,-0.3743492 0.309245,-1.0709641 v -0.2506511 q 0,-0.7226566 -0.299479,-1.0937506 -0.29948,-0.3743491 -0.875652,-0.3743491 z"/>
      </g>
    </g>
  </g>
</svg>
