<?xml version="1.0" encoding="UTF-8" standalone="no"?>
<svg xmlns:dc="http://purl.org/dc/elements/1.1/" xmlns:cc="http://creativecommons.org/ns#" xmlns:rdf="http://www.w3.org/1999/02/22-rdf-syntax-ns#" xmlns:svg="http://www.w3.org/2000/svg" xmlns="http://www.w3.org/2000/svg" xmlns:sodipodi="http://sodipodi.sourceforge.net/DTD/sodipodi-0.dtd" xmlns:inkscape="http://www.inkscape.org/namespaces/inkscape" inkscape:version="1.0 (4035a4f, 2020-05-01)" sodipodi:docname="svg_render_EightFO-dark-pp.svg" id="svg576" viewBox="0 0 255.0 380.0" height="380.0" width="255.0" version="1.1">
  <metadata id="metadata582">
    <rdf:RDF>
      <cc:Work rdf:about="">
        <dc:format>image/svg+xml</dc:format>
        <dc:type rdf:resource="http://purl.org/dc/dcmitype/StillImage"/>
      </cc:Work>
    </rdf:RDF>
  </metadata>
  <defs id="defs580"/>
  <sodipodi:namedview inkscape:current-layer="svg576" inkscape:window-maximized="0" inkscape:window-y="23" inkscape:window-x="0" inkscape:cy="190" inkscape:cx="127.5" inkscape:zoom="1.7605263" showgrid="false" id="namedview578" inkscape:window-height="480" inkscape:window-width="689" inkscape:pageshadow="2" inkscape:pageopacity="0" guidetolerance="10" gridtolerance="10" objecttolerance="10" borderopacity="1" bordercolor="#666666" pagecolor="#ffffff"/>
  
  <path class="module-background background-fill" d="M 0,0 H 255 V 380 H 0 Z" style="fill:#111111" id="rect4"/>
  <path class="module-border-inner" d="M 1,1 H 254 V 379 H 1 V 1" style="fill:none;stroke:#191919;stroke-width:0.5" id="polyline6"/>
  <path class="module-border-middle" d="m 0.5,0.5 h 254 v 379 H 0.5 V 0.5" style="fill:none;stroke:#111111;stroke-width:0.8" id="polyline8"/>
  <path class="module-border-outer" d="M 0,0 H 255 V 380 H 0 V 0" style="fill:none;stroke:#000000;stroke-width:1" id="polyline10"/>
  <g class="title" style="font-weight:normal;font-size:16px;font-family:Comfortaa, sans-serif;letter-spacing:4px;text-anchor:middle;fill:#eeeeee" id="text12" transform="translate(127.5 19)" aria-label="8FO">
    <path id="path1153" style="font-weight:normal;font-size:16px;font-family:Comfortaa, sans-serif;letter-spacing:4px;text-anchor:middle;fill:#eeeeee" d="m -14.549,-7.008 q 0.88,0.464 1.392,1.312 0.512,0.832 0.512,1.888 0,1.088 -0.496,1.968 -0.48,0.88 -1.344,1.392 -0.848,0.512 -1.888,0.512 -1.056,0 -1.92,-0.496 -0.848,-0.512 -1.344,-1.376 -0.48,-0.88 -0.48,-1.952 0,-1.072 0.512,-1.92 0.528,-0.864 1.408,-1.328 -0.592,-0.416 -0.928,-1.056 -0.336,-0.656 -0.336,-1.44 0,-0.848 0.4,-1.536 0.416,-0.704 1.12,-1.088 0.72,-0.4 1.6,-0.4 0.864,0 1.552,0.4 0.704,0.384 1.088,1.072 0.4,0.672 0.4,1.52 0,0.784 -0.336,1.456 -0.336,0.656 -0.912,1.072 z m -3.728,-2.48 q 0,0.832 0.544,1.408 0.544,0.56 1.36,0.56 0.816,0 1.344,-0.576 0.544,-0.592 0.544,-1.456 0,-0.784 -0.544,-1.312 -0.544,-0.528 -1.344,-0.528 -0.816,0 -1.36,0.544 -0.544,0.544 -0.544,1.36 z m 4.384,5.696 q 0,-0.72 -0.336,-1.296 -0.32,-0.576 -0.896,-0.912 -0.56,-0.336 -1.248,-0.336 -0.704,0 -1.28,0.352 -0.576,0.336 -0.896,0.928 -0.32,0.592 -0.32,1.328 0,0.736 0.32,1.36 0.336,0.608 0.896,0.96 0.576,0.352 1.28,0.352 0.704,0 1.264,-0.352 0.576,-0.368 0.896,-0.992 0.32,-0.64 0.32,-1.392 z"/>
    <path id="path1155" style="font-weight:normal;font-size:16px;font-family:Comfortaa, sans-serif;letter-spacing:4px;text-anchor:middle;fill:#eeeeee" d="m -6.393,0 q -0.256,0 -0.448,-0.176 -0.176,-0.192 -0.176,-0.448 v -11.248 q 0,-0.272 0.176,-0.448 0.192,-0.176 0.448,-0.176 h 7.504 q 0.272,0 0.448,0.176 0.176,0.176 0.176,0.432 0,0.256 -0.176,0.432 -0.176,0.16 -0.448,0.16 h -6.88 v 4.416 h 5.008 q 0.272,0 0.448,0.176 0.176,0.16 0.176,0.432 0,0.256 -0.176,0.432 -0.176,0.176 -0.448,0.176 h -5.008 v 5.04 q 0,0.256 -0.176,0.448 Q -6.121,0 -6.393,0 Z"/>
    <path id="path1157" style="font-weight:normal;font-size:16px;font-family:Comfortaa, sans-serif;letter-spacing:4px;text-anchor:middle;fill:#eeeeee" d="m 13.751,0.16 q -1.824,0 -3.28,-0.832 Q 9.015,-1.504 8.183,-2.96 7.367,-4.432 7.367,-6.256 q 0,-1.824 0.816,-3.28 0.832,-1.456 2.288,-2.288 1.456,-0.832 3.28,-0.832 1.808,0 3.264,0.832 1.472,0.832 2.288,2.288 0.832,1.456 0.832,3.28 0,1.824 -0.832,3.296 -0.816,1.456 -2.288,2.288 -1.456,0.832 -3.264,0.832 z m 0,-1.184 q 1.456,0 2.624,-0.688 1.184,-0.688 1.856,-1.872 0.672,-1.2 0.672,-2.672 0,-1.456 -0.672,-2.64 -0.672,-1.2 -1.856,-1.888 -1.168,-0.688 -2.624,-0.688 -1.472,0 -2.656,0.688 -1.168,0.688 -1.84,1.888 -0.672,1.184 -0.672,2.64 0,1.472 0.672,2.672 0.672,1.184 1.84,1.872 1.184,0.688 2.656,0.688 z"/>
  </g>
  <g class="brand" style="font-weight:bold;font-size:10.6667px;font-family:Audiowide, sans-serif;letter-spacing:2px;text-anchor:middle;fill:#eeeeee" id="text14" aria-label="BOGAUDIO">
    <path id="path1136" style="font-weight:bold;font-size:10.6667px;font-family:Audiowide, sans-serif;letter-spacing:2px;text-anchor:middle;fill:#eeeeee" d="m 96.07284,372.35937 q 0,0.25 -0.08854,0.53646 -0.08333,0.28646 -0.281251,0.53125 -0.192709,0.24479 -0.50521,0.41146 Q 94.885336,374 94.432209,374 h -5.140641 q -0.145834,0 -0.270834,-0.0521 -0.125001,-0.0521 -0.218751,-0.14063 -0.08854,-0.0937 -0.140625,-0.21875 -0.05208,-0.125 -0.05208,-0.27083 v -6.10419 q 0,-0.14063 0.05208,-0.26563 0.05208,-0.125 0.140625,-0.21875 0.09375,-0.0937 0.218751,-0.14583 0.125,-0.0521 0.270834,-0.0521 h 4.531264 q 0.250001,0 0.53646,0.0885 0.28646,0.0885 0.531252,0.28646 0.250001,0.19271 0.41146,0.50521 0.166667,0.3125 0.166667,0.76562 v 0.25521 q 0,0.35938 -0.119792,0.77605 -0.119792,0.41146 -0.385418,0.78125 0.229167,0.14063 0.427085,0.33854 0.203125,0.19792 0.354167,0.45834 0.151043,0.26042 0.239585,0.58854 0.08854,0.32813 0.08854,0.72396 z m -1.354171,-0.26042 q 0,-0.26562 -0.08333,-0.47396 -0.08333,-0.21354 -0.234376,-0.36458 -0.151042,-0.15104 -0.364584,-0.22917 -0.213543,-0.0833 -0.479168,-0.0833 h -3.052093 v -1.36459 h 2.442716 q 0.265625,0 0.479168,-0.0781 0.213542,-0.0833 0.364584,-0.23437 0.151042,-0.15104 0.229168,-0.35938 0.08333,-0.21354 0.08333,-0.47917 v -0.25521 q 0,-0.29166 -0.281251,-0.29166 h -3.859387 v 4.76043 h 4.468764 q 0.03646,0 0.08854,-0.005 0.05208,-0.005 0.09375,-0.0312 0.04167,-0.026 0.07292,-0.0885 0.03125,-0.0625 0.03125,-0.17188 z"/>
    <path id="path1138" style="font-weight:bold;font-size:10.6667px;font-family:Audiowide, sans-serif;letter-spacing:2px;text-anchor:middle;fill:#eeeeee" d="m 107.08329,370.97916 q 0,0.68229 -0.23438,1.25521 -0.23438,0.57292 -0.65104,0.98959 -0.41667,0.41666 -0.98959,0.65104 -0.56771,0.22917 -1.23959,0.22917 h -1.83334 q -0.67187,0 -1.24479,-0.22917 -0.57292,-0.23438 -0.989589,-0.65104 -0.416668,-0.41667 -0.656252,-0.98959 -0.234376,-0.57292 -0.234376,-1.25521 v -1.42709 q 0,-0.67709 0.234376,-1.25 0.239584,-0.57813 0.656252,-0.98959 0.416669,-0.41667 0.989589,-0.65104 0.57292,-0.23438 1.24479,-0.23438 h 1.83334 q 0.67188,0 1.23959,0.23438 0.57292,0.23437 0.98959,0.65104 0.41666,0.41146 0.65104,0.98959 0.23438,0.57291 0.23438,1.25 z m -1.35418,-1.42709 q 0,-0.40104 -0.1302,-0.72396 -0.12501,-0.32813 -0.35938,-0.55729 -0.22917,-0.23438 -0.55729,-0.35938 -0.32292,-0.13021 -0.71355,-0.13021 h -1.83334 q -0.39583,0 -0.72396,0.13021 -0.32292,0.125 -0.55729,0.35938 -0.23438,0.22916 -0.36459,0.55729 -0.125,0.32292 -0.125,0.72396 v 1.42709 q 0,0.40104 0.125,0.72917 0.13021,0.32291 0.36459,0.55729 0.23437,0.22917 0.55729,0.35938 0.32813,0.125 0.72396,0.125 h 1.82293 q 0.39583,0 0.71875,-0.125 0.32812,-0.13021 0.5625,-0.35938 0.23437,-0.23438 0.35938,-0.55729 0.1302,-0.32813 0.1302,-0.72917 z"/>
    <path id="path1140" style="font-weight:bold;font-size:10.6667px;font-family:Audiowide, sans-serif;letter-spacing:2px;text-anchor:middle;fill:#eeeeee" d="m 117.80206,373.31771 q 0,0.14583 -0.0521,0.27083 -0.0521,0.125 -0.14583,0.21875 -0.0885,0.0885 -0.21355,0.14063 Q 117.2656,374 117.11977,374 h -4.88543 q -0.1875,0 -0.40625,-0.0417 -0.21355,-0.0469 -0.42709,-0.14062 -0.20833,-0.0937 -0.40104,-0.23959 -0.19271,-0.15104 -0.34375,-0.35937 -0.14584,-0.21354 -0.23438,-0.48959 -0.0885,-0.28125 -0.0885,-0.63021 v -3.66668 q 0,-0.1875 0.0417,-0.40104 0.0469,-0.21875 0.14062,-0.42708 0.0937,-0.21355 0.24479,-0.40625 0.15105,-0.19271 0.35938,-0.33855 0.21354,-0.15104 0.48959,-0.23958 0.27604,-0.0885 0.625,-0.0885 h 5.50522 v 1.35417 h -5.50522 q -0.26563,0 -0.40625,0.14062 -0.14063,0.14063 -0.14063,0.41667 v 3.65626 q 0,0.26042 0.14063,0.40625 0.14583,0.14063 0.40625,0.14063 h 4.21355 v -1.69792 h -3.60418 v -1.36459 h 4.27606 q 0.14583,0 0.27083,0.0573 0.125,0.0521 0.21355,0.14584 0.0937,0.0937 0.14583,0.21875 0.0521,0.11979 0.0521,0.26041 z"/>
    <path id="path1142" style="font-weight:bold;font-size:10.6667px;font-family:Audiowide, sans-serif;letter-spacing:2px;text-anchor:middle;fill:#eeeeee" d="m 128.55209,374 h -1.35417 v -1.83334 h -4.76043 V 374 h -1.35417 v -3.73439 q 0,-0.81771 0.28125,-1.50521 0.28125,-0.6875 0.78125,-1.1823 0.5,-0.49479 1.1823,-0.77083 0.68229,-0.27604 1.48958,-0.27604 h 3.0521 q 0.14062,0 0.26562,0.0521 0.125,0.0521 0.21875,0.14583 0.0937,0.0937 0.14584,0.21875 0.0521,0.125 0.0521,0.26563 z m -6.1146,-3.18751 h 4.76043 v -2.92709 h -2.38022 q -0.0625,0 -0.26562,0.0208 -0.19792,0.0156 -0.46354,0.0885 -0.26042,0.0729 -0.55209,0.22396 -0.29167,0.15104 -0.53646,0.41667 -0.24479,0.26563 -0.40625,0.66667 -0.15625,0.39583 -0.15625,0.96354 z"/>
    <path id="path1144" style="font-weight:bold;font-size:10.6667px;font-family:Audiowide, sans-serif;letter-spacing:2px;text-anchor:middle;fill:#eeeeee" d="m 139.43754,373.31771 q 0,0.14583 -0.0521,0.27083 -0.0521,0.125 -0.14583,0.21875 -0.0937,0.0885 -0.21875,0.14063 -0.125,0.0521 -0.26563,0.0521 h -3.05209 q -0.43229,0 -0.875,-0.0937 -0.44271,-0.0937 -0.85938,-0.28646 -0.41146,-0.19792 -0.77604,-0.5 -0.36459,-0.30209 -0.64063,-0.71355 -0.27084,-0.41666 -0.42709,-0.94791 -0.15625,-0.53646 -0.15625,-1.19272 v -3.73438 h 1.35417 v 3.73438 q 0,0.57292 0.15625,0.96876 0.16146,0.39583 0.40626,0.66146 0.24479,0.26562 0.53646,0.41666 0.29166,0.15105 0.55208,0.22396 0.26563,0.0729 0.46354,0.0937 0.20313,0.0156 0.26563,0.0156 h 2.38022 v -6.1146 h 1.35417 z"/>
    <path id="path1146" style="font-weight:bold;font-size:10.6667px;font-family:Audiowide, sans-serif;letter-spacing:2px;text-anchor:middle;fill:#eeeeee" d="m 150.46881,370.87499 q 0,0.68229 -0.23958,1.25521 -0.23438,0.57292 -0.65105,0.98959 -0.41666,0.41146 -0.98958,0.64583 Q 148.01568,374 147.3438,374 h -3.65626 q -0.14583,0 -0.27083,-0.0521 -0.125,-0.0521 -0.21875,-0.14063 -0.0885,-0.0937 -0.14063,-0.21875 -0.0521,-0.125 -0.0521,-0.27083 v -6.10419 q 0,-0.14063 0.0521,-0.26563 0.0521,-0.125 0.14063,-0.21875 0.0937,-0.0937 0.21875,-0.14583 0.125,-0.0521 0.27083,-0.0521 h 3.65626 q 0.67188,0 1.2448,0.23437 0.57292,0.23438 0.98958,0.65105 0.41667,0.41146 0.65105,0.98958 0.23958,0.57292 0.23958,1.25001 z m -1.35417,-1.21875 q 0,-0.39584 -0.13021,-0.72396 -0.125,-0.32813 -0.35937,-0.5573 -0.23438,-0.23437 -0.5625,-0.35937 -0.32292,-0.13021 -0.71876,-0.13021 h -2.98438 v 4.76043 h 2.98438 q 0.39584,0 0.71876,-0.125 0.32812,-0.13021 0.5625,-0.35938 0.23437,-0.23437 0.35937,-0.55729 0.13021,-0.32813 0.13021,-0.72917 z"/>
    <path id="path1148" style="font-weight:bold;font-size:10.6667px;font-family:Audiowide, sans-serif;letter-spacing:2px;text-anchor:middle;fill:#eeeeee" d="m 155.17195,374 h -1.35417 v -7.46877 h 1.35417 z"/>
    <path id="path1150" style="font-weight:bold;font-size:10.6667px;font-family:Audiowide, sans-serif;letter-spacing:2px;text-anchor:middle;fill:#eeeeee" d="m 166.60427,370.97916 q 0,0.68229 -0.23438,1.25521 -0.23437,0.57292 -0.65104,0.98959 -0.41667,0.41666 -0.98959,0.65104 -0.56771,0.22917 -1.23958,0.22917 h -1.83334 q -0.67188,0 -1.2448,-0.22917 -0.57292,-0.23438 -0.98959,-0.65104 -0.41666,-0.41667 -0.65625,-0.98959 -0.23437,-0.57292 -0.23437,-1.25521 v -1.42709 q 0,-0.67709 0.23437,-1.25 0.23959,-0.57813 0.65625,-0.98959 0.41667,-0.41667 0.98959,-0.65104 0.57292,-0.23438 1.2448,-0.23438 h 1.83334 q 0.67187,0 1.23958,0.23438 0.57292,0.23437 0.98959,0.65104 0.41667,0.41146 0.65104,0.98959 0.23438,0.57291 0.23438,1.25 z m -1.35417,-1.42709 q 0,-0.40104 -0.13021,-0.72396 -0.125,-0.32813 -0.35938,-0.55729 -0.22916,-0.23438 -0.55729,-0.35938 -0.32292,-0.13021 -0.71354,-0.13021 h -1.83334 q -0.39584,0 -0.72396,0.13021 -0.32292,0.125 -0.5573,0.35938 -0.23437,0.22916 -0.36458,0.55729 -0.125,0.32292 -0.125,0.72396 v 1.42709 q 0,0.40104 0.125,0.72917 0.13021,0.32291 0.36458,0.55729 0.23438,0.22917 0.5573,0.35938 0.32812,0.125 0.72396,0.125 h 1.82292 q 0.39583,0 0.71875,-0.125 0.32813,-0.13021 0.5625,-0.35938 0.23438,-0.23438 0.35938,-0.55729 0.13021,-0.32813 0.13021,-0.72917 z"/>
  </g>
  <path class="background-fill" d="m 112,369 h 3 v 3 h -3 z" style="fill:#111111" id="rect16"/>
  <g transform="translate(40,45)" id="g20"/>
  <g transform="translate(74,79)" id="g90">
    <g transform="rotate(134.92,-17,7.0555391)" id="g28">
      <path d="M 0,0 H 5" style="stroke:#cccccc;stroke-width:1" transform="translate(3)" id="polyline24"/>
      <g style="font-weight:bold;font-size:9.33333px;font-family:Roboto, sans-serif;fill:#eeeeee" id="text26" transform="rotate(-134.92,12.976305,-2.4763055)" aria-label="0.1">
        <path id="path1070" style="font-weight:bold;font-size:9.33333px;font-family:Roboto, sans-serif;fill:#eeeeee" d="m 4.917316,-2.7434886 q 0,1.3763016 -0.5696612,2.10546798 -0.5696613,0.72916642 -1.6679682,0.72916642 -1.0846351,0 -1.6588536,-0.71549455 Q 0.44661443,-1.3398433 0.43294256,-2.6751293 V -3.896483 q 0,-1.3899735 0.57421854,-2.1100254 0.5787759,-0.7200518 1.6634109,-0.7200518 1.0846351,0 1.6588536,0.7154945 0.5742186,0.7109373 0.5878904,2.0462233 z M 3.6002592,-4.0833319 q 0,-0.8248696 -0.2278645,-1.1985673 -0.2233072,-0.3782551 -0.7018227,-0.3782551 -0.4648436,0 -0.6881508,0.3600259 -0.2187499,0.3554686 -0.2324218,1.1165361 v 1.6132807 q 0,0.8111976 0.2187499,1.2076819 0.2233072,0.39192691 0.7109373,0.39192691 0.4830727,0 0.6972654,-0.37825511 0.2141926,-0.3782551 0.2233072,-1.1575517 z"/>
        <path id="path1072" style="font-weight:bold;font-size:9.33333px;font-family:Roboto, sans-serif;fill:#eeeeee" d="m 5.9335916,-0.6471352 q 0,-0.31445301 0.2096354,-0.5104165 0.2141926,-0.1959635 0.5332029,-0.1959635 0.3235676,0 0.533203,0.1959635 0.2141926,0.19596349 0.2141926,0.5104165 0,0.30989573 -0.2096353,0.50585921 -0.2096354,0.19140618 -0.5377603,0.19140618 -0.3235676,0 -0.5332029,-0.19140618 Q 5.9335916,-0.33723947 5.9335916,-0.6471352 Z"/>
        <path id="path1074" style="font-weight:bold;font-size:9.33333px;font-family:Roboto, sans-serif;fill:#eeeeee" d="M 11.725907,0 H 10.40885 V -5.0768212 L 8.8365851,-4.5891911 V -5.6601543 L 11.584631,-6.644529 h 0.141276 z"/>
      </g>
    </g>
    <g transform="rotate(-171.49,-17,-1.26481)" id="g34">
      <path d="M 0,0 H 5" style="stroke:#cccccc;stroke-width:1" transform="translate(3)" id="polyline30"/>
      <g style="font-weight:bold;font-size:9.33333px;font-family:Roboto, sans-serif;fill:#eeeeee" id="text32" transform="rotate(171.49,12.369799,-1.6383991)" aria-label="0.5">
        <path id="path1078" style="font-weight:bold;font-size:9.33333px;font-family:Roboto, sans-serif;fill:#eeeeee" d="m 4.917316,-2.7434886 q 0,1.3763016 -0.5696612,2.10546798 -0.5696613,0.72916642 -1.6679682,0.72916642 -1.0846351,0 -1.6588536,-0.71549455 Q 0.44661443,-1.3398433 0.43294256,-2.6751293 V -3.896483 q 0,-1.3899735 0.57421854,-2.1100254 0.5787759,-0.7200518 1.6634109,-0.7200518 1.0846351,0 1.6588536,0.7154945 0.5742186,0.7109373 0.5878904,2.0462233 z M 3.6002592,-4.0833319 q 0,-0.8248696 -0.2278645,-1.1985673 -0.2233072,-0.3782551 -0.7018227,-0.3782551 -0.4648436,0 -0.6881508,0.3600259 -0.2187499,0.3554686 -0.2324218,1.1165361 v 1.6132807 q 0,0.8111976 0.2187499,1.2076819 0.2233072,0.39192691 0.7109373,0.39192691 0.4830727,0 0.6972654,-0.37825511 0.2141926,-0.3782551 0.2233072,-1.1575517 z"/>
        <path id="path1080" style="font-weight:bold;font-size:9.33333px;font-family:Roboto, sans-serif;fill:#eeeeee" d="m 5.9335916,-0.6471352 q 0,-0.31445301 0.2096354,-0.5104165 0.2141926,-0.1959635 0.5332029,-0.1959635 0.3235676,0 0.533203,0.1959635 0.2141926,0.19596349 0.2141926,0.5104165 0,0.30989573 -0.2096353,0.50585921 -0.2096354,0.19140618 -0.5377603,0.19140618 -0.3235676,0 -0.5332029,-0.19140618 Q 5.9335916,-0.33723947 5.9335916,-0.6471352 Z"/>
        <path id="path1082" style="font-weight:bold;font-size:9.33333px;font-family:Roboto, sans-serif;fill:#eeeeee" d="m 8.7226529,-3.2630197 0.3828123,-3.3723947 h 3.7187488 v 1.0983069 h -2.638671 l -0.164062,1.4264318 q 0.4694,-0.2506509 0.998046,-0.2506509 0.947916,0 1.485677,0.5878904 0.53776,0.5878904 0.53776,1.6451817 0,0.6425779 -0.273438,1.15299442 -0.26888,0.5058592 -0.774739,0.78841119 -0.505859,0.27799469 -1.19401,0.27799469 -0.601562,0 -1.1165359,-0.24153637 Q 9.1692673,-0.39648424 8.8684861,-0.83854138 8.5722623,-1.2805985 8.5540331,-1.8457025 h 1.303385 q 0.041016,0.4147134 0.2871089,0.6471352 0.250651,0.22786451 0.651693,0.22786451 0.446614,0 0.688151,-0.31901031 0.241536,-0.3235676 0.241536,-0.911458 0,-0.565104 -0.277995,-0.8658851 -0.277994,-0.3007812 -0.788411,-0.3007812 -0.469401,0 -0.7610673,0.2460937 l -0.1276041,0.1184895 z"/>
      </g>
    </g>
    <g transform="rotate(-71.76,-17,-23.501846)" id="g40">
      <path d="M 0,0 H 5" style="stroke:#cccccc;stroke-width:1" transform="translate(3)" id="polyline36"/>
      <g style="font-weight:bold;font-size:9.33333px;font-family:Roboto, sans-serif;fill:#eeeeee" id="text38" transform="rotate(71.76,5.5806923,6.5447692)" aria-label="10">
        <path id="path1086" style="font-weight:bold;font-size:9.33333px;font-family:Roboto, sans-serif;fill:#eeeeee" d="M 3.6503894,0 H 2.3333325 V -5.0768212 L 0.76106745,-4.5891911 V -5.6601543 L 3.5091134,-6.644529 h 0.141276 z"/>
        <path id="path1088" style="font-weight:bold;font-size:9.33333px;font-family:Roboto, sans-serif;fill:#eeeeee" d="m 10.276689,-2.7434886 q 0,1.3763016 -0.5696611,2.10546798 -0.5696613,0.72916642 -1.6679682,0.72916642 -1.0846351,0 -1.6588536,-0.71549455 Q 5.8059875,-1.3398433 5.7923157,-2.6751293 V -3.896483 q 0,-1.3899735 0.5742185,-2.1100254 0.5787759,-0.7200518 1.6634109,-0.7200518 1.084635,0 1.6588536,0.7154945 0.5742183,0.7109373 0.5878903,2.0462233 z M 8.9596323,-4.0833319 q 0,-0.8248696 -0.2278645,-1.1985673 -0.2233072,-0.3782551 -0.7018227,-0.3782551 -0.4648436,0 -0.6881508,0.3600259 -0.2187499,0.3554686 -0.2324218,1.1165361 v 1.6132807 q 0,0.8111976 0.2187499,1.2076819 0.2233072,0.39192691 0.7109373,0.39192691 0.4830727,0 0.6972654,-0.37825511 0.2141926,-0.3782551 0.2233072,-1.1575517 z"/>
      </g>
    </g>
    <g transform="rotate(-124.62,-17,-8.921415)" id="g46">
      <path d="M 0,0 H 5" style="stroke:#cccccc;stroke-width:1" transform="translate(3)" id="polyline42"/>
      <g style="font-weight:bold;font-size:9.33333px;font-family:Roboto, sans-serif;letter-spacing:1px;fill:#eeeeee" id="text44" transform="rotate(124.62,11.081619,-0.70042177)" aria-label="0V">
        <path id="path1092" style="font-weight:bold;font-size:9.33333px;font-family:Roboto, sans-serif;letter-spacing:1px;fill:#eeeeee" d="m 4.917316,-2.7434886 q 0,1.3763016 -0.5696612,2.10546798 -0.5696613,0.72916642 -1.6679682,0.72916642 -1.0846351,0 -1.6588536,-0.71549455 Q 0.44661443,-1.3398433 0.43294256,-2.6751293 V -3.896483 q 0,-1.3899735 0.57421854,-2.1100254 0.5787759,-0.7200518 1.6634109,-0.7200518 1.0846351,0 1.6588536,0.7154945 0.5742186,0.7109373 0.5878904,2.0462233 z M 3.6002592,-4.0833319 q 0,-0.8248696 -0.2278645,-1.1985673 -0.2233072,-0.3782551 -0.7018227,-0.3782551 -0.4648436,0 -0.6881508,0.3600259 -0.2187499,0.3554686 -0.2324218,1.1165361 v 1.6132807 q 0,0.8111976 0.2187499,1.2076819 0.2233072,0.39192691 0.7109373,0.39192691 0.4830727,0 0.6972654,-0.37825511 0.2141926,-0.3782551 0.2233072,-1.1575517 z"/>
        <path id="path1094" style="font-weight:bold;font-size:9.33333px;font-family:Roboto, sans-serif;letter-spacing:1px;fill:#eeeeee" d="m 9.4036429,-1.6451817 1.5039061,-4.9902327 h 1.522135 L 10.119137,0 H 8.6927056 L 6.3912741,-6.6354144 h 1.5175776 z"/>
      </g>
    </g>
    <g transform="rotate(-18.17,-17,-106.31276)" id="g52">
      <path d="M 0,0 H 5" style="stroke:#cccccc;stroke-width:1" transform="translate(3)" id="polyline48"/>
      <g style="font-weight:bold;font-size:9.33333px;font-family:Roboto, sans-serif;fill:#eeeeee" id="text50" transform="rotate(18.17,-2.9439608,35.772151)" aria-label="50">
        <path id="path1098" style="font-weight:bold;font-size:9.33333px;font-family:Roboto, sans-serif;fill:#eeeeee" d="m 0.6471352,-3.2630197 0.3828124,-3.3723947 h 3.7187487 v 1.0983069 h -2.638671 l -0.1640624,1.4264318 q 0.4694009,-0.2506509 0.9980465,-0.2506509 0.9479164,0 1.4856766,0.5878904 0.5377602,0.5878904 0.5377602,1.6451817 0,0.6425779 -0.2734374,1.15299442 -0.2688801,0.5058592 -0.7747393,0.78841119 -0.5058592,0.27799469 -1.19401,0.27799469 -0.6015623,0 -1.1165361,-0.24153637 Q 1.0937496,-0.39648424 0.79296848,-0.83854138 0.49674462,-1.2805985 0.47851546,-1.8457025 H 1.7819004 q 0.041016,0.4147134 0.2871093,0.6471352 0.250651,0.22786451 0.6516925,0.22786451 0.4466144,0 0.6881508,-0.31901031 0.2415364,-0.3235676 0.2415364,-0.911458 0,-0.565104 -0.2779947,-0.8658851 Q 3.0944,-3.3678374 2.5839835,-3.3678374 q -0.4694009,0 -0.7610675,0.2460937 l -0.1276041,0.1184895 z"/>
        <path id="path1100" style="font-weight:bold;font-size:9.33333px;font-family:Roboto, sans-serif;fill:#eeeeee" d="m 10.276689,-2.7434886 q 0,1.3763016 -0.5696611,2.10546798 -0.5696613,0.72916642 -1.6679682,0.72916642 -1.0846351,0 -1.6588536,-0.71549455 Q 5.8059875,-1.3398433 5.7923157,-2.6751293 V -3.896483 q 0,-1.3899735 0.5742185,-2.1100254 0.5787759,-0.7200518 1.6634109,-0.7200518 1.084635,0 1.6588536,0.7154945 0.5742183,0.7109373 0.5878903,2.0462233 z M 8.9596323,-4.0833319 q 0,-0.8248696 -0.2278645,-1.1985673 -0.2233072,-0.3782551 -0.7018227,-0.3782551 -0.4648436,0 -0.6881508,0.3600259 -0.2187499,0.3554686 -0.2324218,1.1165361 v 1.6132807 q 0,0.8111976 0.2187499,1.2076819 0.2233072,0.39192691 0.7109373,0.39192691 0.4830727,0 0.6972654,-0.37825511 0.2141926,-0.3782551 0.2233072,-1.1575517 z"/>
      </g>
    </g>
    <g transform="rotate(27.98,-17,68.234008)" id="g58">
      <path d="M 0,0 H 5" style="stroke:#cccccc;stroke-width:1" transform="translate(3)" id="polyline54"/>
      <g style="font-weight:bold;font-size:9.33333px;font-family:Roboto, sans-serif;fill:#eeeeee" id="text56" transform="rotate(-27.98,15.024089,-25.832591)" aria-label="200">
        <path id="path1104" style="font-weight:bold;font-size:9.33333px;font-family:Roboto, sans-serif;fill:#eeeeee" d="M 4.9993473,0 H 0.45117172 V -0.90234344 L 2.5976554,-3.1901031 q 0.4420571,-0.4830727 0.6516925,-0.8430987 0.2141926,-0.3600259 0.2141926,-0.6835935 0,-0.4420571 -0.2233072,-0.6927081 -0.2233072,-0.2552082 -0.6380206,-0.2552082 -0.4466145,0 -0.70638,0.3098957 -0.2552083,0.3053385 -0.2552083,0.8066404 H 0.31901031 q 0,-0.6061196 0.28710928,-1.1074215 0.29166656,-0.5013019 0.82031221,-0.7838539 0.5286457,-0.2871093 1.1985673,-0.2871093 1.0253903,0 1.5904943,0.4921873 0.5696612,0.4921874 0.5696612,1.3899735 0,0.4921873 -0.2552082,1.0026038 -0.2552083,0.5104165 -0.8749997,1.1894528 l -1.5084631,1.5904942 h 2.8528637 z"/>
        <path id="path1106" style="font-weight:bold;font-size:9.33333px;font-family:Roboto, sans-serif;fill:#eeeeee" d="m 10.276689,-2.7434886 q 0,1.3763016 -0.5696611,2.10546798 -0.5696613,0.72916642 -1.6679682,0.72916642 -1.0846351,0 -1.6588536,-0.71549455 Q 5.8059875,-1.3398433 5.7923157,-2.6751293 V -3.896483 q 0,-1.3899735 0.5742185,-2.1100254 0.5787759,-0.7200518 1.6634109,-0.7200518 1.084635,0 1.6588536,0.7154945 0.5742183,0.7109373 0.5878903,2.0462233 z M 8.9596323,-4.0833319 q 0,-0.8248696 -0.2278645,-1.1985673 -0.2233072,-0.3782551 -0.7018227,-0.3782551 -0.4648436,0 -0.6881508,0.3600259 -0.2187499,0.3554686 -0.2324218,1.1165361 v 1.6132807 q 0,0.8111976 0.2187499,1.2076819 0.2233072,0.39192691 0.7109373,0.39192691 0.4830727,0 0.6972654,-0.37825511 0.2141926,-0.3782551 0.2233072,-1.1575517 z"/>
        <path id="path1108" style="font-weight:bold;font-size:9.33333px;font-family:Roboto, sans-serif;fill:#eeeeee" d="m 15.636062,-2.7434886 q 0,1.3763016 -0.569661,2.10546798 -0.569661,0.72916642 -1.667968,0.72916642 -1.084635,0 -1.658854,-0.71549455 -0.574218,-0.71549455 -0.58789,-2.05078055 V -3.896483 q 0,-1.3899735 0.574218,-2.1100254 0.578776,-0.7200518 1.663411,-0.7200518 1.084635,0 1.658854,0.7154945 0.574218,0.7109373 0.58789,2.0462233 z m -1.317057,-1.3398433 q 0,-0.8248696 -0.227864,-1.1985673 -0.223307,-0.3782551 -0.701823,-0.3782551 -0.464843,0 -0.688151,0.3600259 -0.21875,0.3554686 -0.232421,1.1165361 v 1.6132807 q 0,0.8111976 0.21875,1.2076819 0.223307,0.39192691 0.710937,0.39192691 0.483073,0 0.697265,-0.37825511 0.214193,-0.3782551 0.223307,-1.1575517 z"/>
      </g>
    </g>
    <g transform="rotate(51.05,-17,35.601256)" id="g64">
      <path d="M 0,0 H 5" style="stroke:#cccccc;stroke-width:1" transform="translate(3)" id="polyline60"/>
      <g style="font-weight:bold;font-size:9.33333px;font-family:Roboto, sans-serif;fill:#eeeeee" id="text62" transform="rotate(-51.05,11.664835,-14.315149)" aria-label="400HZ">
        <path id="path1112" style="font-weight:bold;font-size:9.33333px;font-family:Roboto, sans-serif;fill:#eeeeee" d="m 4.3476548,-2.497395 h 0.7519528 v 1.0618486 H 4.3476548 V 0 H 3.0305979 V -1.4355464 H 0.30989573 L 0.25065096,-2.2649732 3.0169261,-6.6354144 h 1.3307287 z m -2.7845043,0 h 1.4674474 v -2.3424471 l -0.086588,0.1503906 z"/>
        <path id="path1114" style="font-weight:bold;font-size:9.33333px;font-family:Roboto, sans-serif;fill:#eeeeee" d="m 10.276689,-2.7434886 q 0,1.3763016 -0.5696611,2.10546798 -0.5696613,0.72916642 -1.6679682,0.72916642 -1.0846351,0 -1.6588536,-0.71549455 Q 5.8059875,-1.3398433 5.7923157,-2.6751293 V -3.896483 q 0,-1.3899735 0.5742185,-2.1100254 0.5787759,-0.7200518 1.6634109,-0.7200518 1.084635,0 1.6588536,0.7154945 0.5742183,0.7109373 0.5878903,2.0462233 z M 8.9596323,-4.0833319 q 0,-0.8248696 -0.2278645,-1.1985673 -0.2233072,-0.3782551 -0.7018227,-0.3782551 -0.4648436,0 -0.6881508,0.3600259 -0.2187499,0.3554686 -0.2324218,1.1165361 v 1.6132807 q 0,0.8111976 0.2187499,1.2076819 0.2233072,0.39192691 0.7109373,0.39192691 0.4830727,0 0.6972654,-0.37825511 0.2141926,-0.3782551 0.2233072,-1.1575517 z"/>
        <path id="path1116" style="font-weight:bold;font-size:9.33333px;font-family:Roboto, sans-serif;fill:#eeeeee" d="m 15.636062,-2.7434886 q 0,1.3763016 -0.569661,2.10546798 -0.569661,0.72916642 -1.667968,0.72916642 -1.084635,0 -1.658854,-0.71549455 -0.574218,-0.71549455 -0.58789,-2.05078055 V -3.896483 q 0,-1.3899735 0.574218,-2.1100254 0.578776,-0.7200518 1.663411,-0.7200518 1.084635,0 1.658854,0.7154945 0.574218,0.7109373 0.58789,2.0462233 z m -1.317057,-1.3398433 q 0,-0.8248696 -0.227864,-1.1985673 -0.223307,-0.3782551 -0.701823,-0.3782551 -0.464843,0 -0.688151,0.3600259 -0.21875,0.3554686 -0.232421,1.1165361 v 1.6132807 q 0,0.8111976 0.21875,1.2076819 0.223307,0.39192691 0.710937,0.39192691 0.483073,0 0.697265,-0.37825511 0.214193,-0.3782551 0.223307,-1.1575517 z"/>
        <path id="path1118" style="font-weight:bold;font-size:9.33333px;font-family:Roboto, sans-serif;fill:#eeeeee" d="M 22.070956,0 H 20.703769 V -2.843749 H 18.037754 V 0 h -1.367187 v -6.6354144 h 1.367187 v 2.6888012 h 2.666015 v -2.6888012 h 1.367187 z"/>
        <path id="path1120" style="font-weight:bold;font-size:9.33333px;font-family:Roboto, sans-serif;fill:#eeeeee" d="m 24.71874,-1.0983069 h 3.345051 V 0 h -5.054034 v -0.80208306 l 3.281248,-4.72590984 h -3.276691 v -1.1074215 h 4.976561 v 0.7838539 z"/>
      </g>
    </g>
    <path d="M 0,0 H 3" style="stroke:#cccccc;stroke-width:0.7" transform="rotate(120,-18.5,10.68098)" id="polyline66"/>
    <path d="M 0,0 H 3" style="stroke:#cccccc;stroke-width:0.7" transform="rotate(143.08,-18.5,6.1756554)" id="polyline68"/>
    <path d="M 0,0 H 3" style="stroke:#cccccc;stroke-width:0.7" transform="rotate(166.15,-18.5,2.2469368)" id="polyline70"/>
    <path d="M 0,0 H 3" style="stroke:#cccccc;stroke-width:0.7" transform="rotate(-147.69,-18.5,-5.3589942)" id="polyline72"/>
    <path d="M 0,0 H 3" style="stroke:#cccccc;stroke-width:0.7" transform="rotate(-101.54,-18.5,-15.104369)" id="polyline74"/>
    <path d="M 0,0 H 3" style="stroke:#cccccc;stroke-width:0.7" transform="rotate(-78.46,-18.5,-22.659008)" id="polyline76"/>
    <path d="M 0,0 H 3" style="stroke:#cccccc;stroke-width:0.7" transform="rotate(-55.38,-18.5,-35.252255)" id="polyline78"/>
    <path d="M 0,0 H 3" style="stroke:#cccccc;stroke-width:0.7" transform="rotate(-32.31,-18.5,-63.864596)" id="polyline80"/>
    <path d="M 0,0 H 3" style="stroke:#cccccc;stroke-width:0.7" transform="rotate(-9.23,-18.5,-229.1828)" id="polyline82"/>
    <path d="M 0,0 H 3" style="stroke:#cccccc;stroke-width:0.7" transform="rotate(13.85,-18.5,152.31848)" id="polyline84"/>
    <path d="M 0,0 H 3" style="stroke:#cccccc;stroke-width:0.7" transform="rotate(36.92,-18.5,55.419219)" id="polyline86"/>
    <path d="M 0,0 H 3" style="stroke:#cccccc;stroke-width:0.7" transform="rotate(60,-18.5,32.04294)" id="polyline88"/>
  </g>
  <g style="font-weight:bold;font-size:8px;font-family:Roboto, sans-serif;letter-spacing:1px;fill:#eeeeee" id="text94" transform="translate(34 130)" aria-label="0V = C-3 = 2.04HZ">
    <path id="path1042" style="font-weight:bold;font-size:8px;font-family:Roboto, sans-serif;letter-spacing:1px;fill:#eeeeee" d="m 4.2148437,-2.3515625 q 0,1.1796875 -0.4882812,1.8046875 -0.4882812,0.625 -1.4296875,0.625 -0.9296875,0 -1.421875,-0.61328125 Q 0.3828125,-1.1484375 0.37109375,-2.2929688 v -1.046875 q 0,-1.1914062 0.4921875,-1.8085937 Q 1.359375,-5.765625 2.2890625,-5.765625 q 0.9296875,0 1.421875,0.6132813 0.4921875,0.609375 0.5039062,1.7539062 z M 3.0859375,-3.5 q 0,-0.7070312 -0.1953125,-1.0273437 -0.1914062,-0.3242188 -0.6015625,-0.3242188 -0.3984375,0 -0.5898438,0.3085938 Q 1.5117187,-4.2382812 1.5,-3.5859375 v 1.3828125 q 0,0.6953125 0.1875,1.0351563 0.1914062,0.33593745 0.609375,0.33593745 0.4140625,0 0.5976563,-0.32421875 0.1835937,-0.3242187 0.1914062,-0.9921875 z"/>
    <path id="path1044" style="font-weight:bold;font-size:8px;font-family:Roboto, sans-serif;letter-spacing:1px;fill:#eeeeee" d="M 8.203125,-1.4101562 9.4921875,-5.6875 H 10.796875 L 8.8164063,0 H 7.59375 L 5.6210937,-5.6875 H 6.921875 Z"/>
    <path id="path1046" style="font-weight:bold;font-size:8px;font-family:Roboto, sans-serif;letter-spacing:1px;fill:#eeeeee" d="m 18.851562,-2.9140625 h -3.492187 v -0.921875 h 3.492187 z m 0,1.6914063 h -3.492187 v -0.9218751 h 3.492187 z"/>
    <path id="path1048" style="font-weight:bold;font-size:8px;font-family:Roboto, sans-serif;letter-spacing:1px;fill:#eeeeee" d="M 28.378906,-1.8945312 Q 28.3125,-0.9765625 27.699219,-0.44921875 27.089844,0.078125 26.089844,0.078125 q -1.09375,0 -1.722657,-0.734375 -0.625,-0.7382812 -0.625,-2.0234375 v -0.3476563 q 0,-0.8203125 0.289063,-1.4453124 0.289062,-0.625 0.824219,-0.9570313 0.539062,-0.3359375 1.25,-0.3359375 0.984375,0 1.585937,0.5273438 0.601563,0.5273437 0.695313,1.4804687 h -1.171875 q -0.04297,-0.5507812 -0.308594,-0.796875 -0.261719,-0.25 -0.800781,-0.25 -0.585938,0 -0.878907,0.421875 -0.289062,0.4179687 -0.296875,1.3007812 v 0.4296875 q 0,0.9218751 0.277344,1.3476563 0.28125,0.42578125 0.882813,0.42578125 0.542968,0 0.808593,-0.24609375 0.269532,-0.25 0.308594,-0.7695312 z"/>
    <path id="path1050" style="font-weight:bold;font-size:8px;font-family:Roboto, sans-serif;letter-spacing:1px;fill:#eeeeee" d="M 32.269531,-1.9804687 H 30.070312 V -2.890625 h 2.199219 z"/>
    <path id="path1052" style="font-weight:bold;font-size:8px;font-family:Roboto, sans-serif;letter-spacing:1px;fill:#eeeeee" d="m 35.285156,-3.34375 h 0.601563 q 0.429687,0 0.636718,-0.2148438 0.207032,-0.2148437 0.207032,-0.5703124 0,-0.34375 -0.207032,-0.5351563 -0.203125,-0.1914062 -0.5625,-0.1914062 -0.324218,0 -0.542968,0.1796875 -0.21875,0.1757812 -0.21875,0.4609375 h -1.128907 q 0,-0.4453125 0.238282,-0.796875 0.242187,-0.3554688 0.671875,-0.5546875 0.433593,-0.1992188 0.953125,-0.1992188 0.902343,0 1.414062,0.4335938 0.511719,0.4296875 0.511719,1.1875 0,0.3906249 -0.238281,0.7187499 -0.238282,0.328125 -0.625,0.5039063 0.480468,0.171875 0.714843,0.515625 0.238282,0.34375 0.238282,0.8125 0,0.7578125 -0.554688,1.21484375 Q 36.84375,0.078125 35.933594,0.078125 q -0.851563,0 -1.394532,-0.44921875 Q 34,-0.8203125 34,-1.5585937 h 1.128906 q 0,0.3203125 0.238281,0.5234375 0.242188,0.20312495 0.59375,0.20312495 0.402344,0 0.628907,-0.21093745 0.230468,-0.2148438 0.230468,-0.5664063 0,-0.8515625 -0.9375,-0.8515625 h -0.597656 z"/>
    <path id="path1054" style="font-weight:bold;font-size:8px;font-family:Roboto, sans-serif;letter-spacing:1px;fill:#eeeeee" d="M 46.367187,-2.9140625 H 42.875 v -0.921875 h 3.492187 z m 0,1.6914063 H 42.875 v -0.9218751 h 3.492187 z"/>
    <path id="path1056" style="font-weight:bold;font-size:8px;font-family:Roboto, sans-serif;letter-spacing:1px;fill:#eeeeee" d="m 55.207031,0 h -3.898437 v -0.7734375 l 1.839843,-1.9609375 q 0.378907,-0.4140625 0.558594,-0.7226563 0.183594,-0.3085937 0.183594,-0.5859374 0,-0.3789063 -0.191406,-0.59375 -0.191407,-0.21875 -0.546875,-0.21875 -0.382813,0 -0.605469,0.265625 -0.21875,0.2617187 -0.21875,0.6914062 h -1.132813 q 0,-0.5195312 0.246094,-0.9492187 0.25,-0.4296875 0.703125,-0.671875 0.453125,-0.2460938 1.027344,-0.2460938 0.878906,0 1.363281,0.421875 0.488281,0.421875 0.488281,1.1914063 0,0.4218749 -0.21875,0.8593749 -0.21875,0.4375 -0.75,1.0195313 l -1.292968,1.36328125 h 2.445312 z"/>
    <path id="path1058" style="font-weight:bold;font-size:8px;font-family:Roboto, sans-serif;letter-spacing:1px;fill:#eeeeee" d="m 57.007812,-0.5546875 q 0,-0.26953125 0.179688,-0.4375 0.183594,-0.1679687 0.457031,-0.1679687 0.277344,0 0.457031,0.1679687 0.183594,0.16796875 0.183594,0.4375 0,0.265625 -0.179687,0.43359375 -0.179688,0.1640625 -0.460938,0.1640625 -0.277344,0 -0.457031,-0.1640625 -0.179688,-0.16796875 -0.179688,-0.43359375 z"/>
    <path id="path1060" style="font-weight:bold;font-size:8px;font-family:Roboto, sans-serif;letter-spacing:1px;fill:#eeeeee" d="m 64.058594,-2.3515625 q 0,1.1796875 -0.488282,1.8046875 -0.488281,0.625 -1.429687,0.625 -0.929688,0 -1.421875,-0.61328125 -0.492188,-0.61328125 -0.503906,-1.75781255 v -1.046875 q 0,-1.1914062 0.492187,-1.8085937 0.496094,-0.6171875 1.425781,-0.6171875 0.929688,0 1.421875,0.6132813 0.492188,0.609375 0.503907,1.7539062 z M 62.929687,-3.5 q 0,-0.7070312 -0.195312,-1.0273437 -0.191406,-0.3242188 -0.601563,-0.3242188 -0.398437,0 -0.589843,0.3085938 -0.1875,0.3046875 -0.199219,0.9570312 v 1.3828125 q 0,0.6953125 0.1875,1.0351563 0.191406,0.33593745 0.609375,0.33593745 0.414062,0 0.597656,-0.32421875 0.183594,-0.3242187 0.191406,-0.9921875 z"/>
    <path id="path1062" style="font-weight:bold;font-size:8px;font-family:Roboto, sans-serif;letter-spacing:1px;fill:#eeeeee" d="m 69.164062,-2.140625 h 0.644532 v 0.9101563 H 69.164062 V 0 H 68.035156 V -1.2304687 H 65.703125 L 65.652344,-1.9414062 68.023437,-5.6875 h 1.140625 z m -2.386718,0 h 1.257812 v -2.0078125 l -0.07422,0.1289063 z"/>
    <path id="path1064" style="font-weight:bold;font-size:8px;font-family:Roboto, sans-serif;letter-spacing:1px;fill:#eeeeee" d="M 76.167969,0 H 74.996094 V -2.4375 H 72.710937 V 0 h -1.171875 v -5.6875 h 1.171875 v 2.3046875 h 2.285157 V -5.6875 h 1.171875 z"/>
    <path id="path1066" style="font-weight:bold;font-size:8px;font-family:Roboto, sans-serif;letter-spacing:1px;fill:#eeeeee" d="m 79.4375,-0.94140625 h 2.867187 V 0 h -4.332031 v -0.6875 l 2.8125,-4.0507812 H 77.976562 V -5.6875 h 4.265625 v 0.671875 z"/>
  </g>
  <g style="font-weight:bold;font-size:8px;font-family:Roboto, sans-serif;letter-spacing:2px;fill:#eeeeee" id="text96" aria-label="SLOW">
    <path id="path1033" style="font-weight:bold;font-size:8px;font-family:Roboto, sans-serif;letter-spacing:2px;fill:#eeeeee" d="m 22.457031,145.60782 q 0,-0.33203 -0.234375,-0.50781 -0.234375,-0.17969 -0.84375,-0.375 -0.609375,-0.19922 -0.964844,-0.39063 -0.96875,-0.52344 -0.96875,-1.41016 0,-0.46093 0.257813,-0.82031 0.261719,-0.36328 0.746094,-0.5664 0.488281,-0.20313 1.09375,-0.20313 0.609375,0 1.085937,0.22266 0.476563,0.21875 0.738281,0.62109 0.265625,0.40234 0.265625,0.91406 h -1.171875 q 0,-0.39062 -0.246093,-0.60547 -0.246094,-0.21875 -0.691407,-0.21875 -0.429687,0 -0.667968,0.1836 -0.238282,0.17969 -0.238282,0.47656 0,0.27734 0.277344,0.46484 0.28125,0.1875 0.824219,0.35157 1,0.30078 1.457031,0.74609 0.457031,0.44531 0.457031,1.10938 0,0.73828 -0.558593,1.16015 -0.558594,0.41797 -1.503907,0.41797 -0.65625,0 -1.195312,-0.23828 -0.539063,-0.24219 -0.824219,-0.66016 -0.28125,-0.41797 -0.28125,-0.96875 h 1.175781 q 0,0.94141 1.125,0.94141 0.417969,0 0.652344,-0.16797 0.234375,-0.17187 0.234375,-0.47656 z"/>
    <path id="path1035" style="font-weight:bold;font-size:8px;font-family:Roboto, sans-serif;letter-spacing:2px;fill:#eeeeee" d="m 27.601562,146.1586 h 2.488282 v 0.94141 h -3.660157 v -5.6875 h 1.171875 z"/>
    <path id="path1037" style="font-weight:bold;font-size:8px;font-family:Roboto, sans-serif;letter-spacing:2px;fill:#eeeeee" d="m 37.179687,144.38516 q 0,0.83985 -0.296875,1.47266 -0.296875,0.63281 -0.851562,0.97656 -0.550781,0.34375 -1.265625,0.34375 -0.707031,0 -1.261719,-0.33984 -0.554687,-0.33985 -0.859375,-0.96875 -0.304687,-0.63282 -0.308594,-1.45313 v -0.28125 q 0,-0.83984 0.300782,-1.47656 0.304687,-0.64063 0.855468,-0.98047 0.554688,-0.34375 1.265625,-0.34375 0.710938,0 1.261719,0.34375 0.554688,0.33984 0.855469,0.98047 0.304687,0.63672 0.304687,1.47266 z m -1.1875,-0.25781 q 0,-0.89453 -0.320312,-1.35938 -0.320313,-0.46484 -0.914063,-0.46484 -0.589843,0 -0.910156,0.46094 -0.320312,0.45703 -0.324219,1.34375 v 0.27734 q 0,0.8711 0.320313,1.35156 0.320312,0.48047 0.921875,0.48047 0.589844,0 0.90625,-0.46093 0.316406,-0.46485 0.320312,-1.35157 z"/>
    <path id="path1039" style="font-weight:bold;font-size:8px;font-family:Roboto, sans-serif;letter-spacing:2px;fill:#eeeeee" d="m 44.46875,145.45938 0.765625,-4.04687 h 1.167969 l -1.261719,5.6875 h -1.179688 l -0.925781,-3.80469 -0.925781,3.80469 h -1.179688 l -1.261718,-5.6875 h 1.167968 l 0.769532,4.03906 0.9375,-4.03906 h 0.992187 z"/>
  </g>
  <g transform="translate(50,139.7)" id="g98"/>
  <g transform="translate(20,178)" id="g102"/>
  <g transform="translate(8,151)" id="g144">
    <g transform="translate(20,35)" id="g116">
      <path d="M 0,0 H 5" style="stroke:#cccccc;stroke-width:1" transform="rotate(-90,-5.5,-5.5)" id="polyline104"/>
      <path d="M 0,0 H 5" style="stroke:#cccccc;stroke-width:1" transform="rotate(-54,-5.5,-10.794358)" id="polyline106"/>
      <path d="M 0,0 H 5" style="stroke:#cccccc;stroke-width:1" transform="rotate(-18,-5.5,-34.725633)" id="polyline108"/>
      <path d="M 0,0 H 5" style="stroke:#cccccc;stroke-width:1" transform="rotate(18,-5.5,34.725633)" id="polyline110"/>
      <path d="M 0,0 H 5" style="stroke:#cccccc;stroke-width:1" transform="rotate(54,-5.5,10.794358)" id="polyline112"/>
      <path d="M 0,0 H 5" style="stroke:#cccccc;stroke-width:1" transform="rotate(90,-5.5,5.5)" id="polyline114"/>
    </g>
    <g transform="translate(13,8)" id="g120">
      <path d="M 0,8 12,0 v 8" style="fill:none;stroke:#cccccc;stroke-width:1" id="polyline118"/>
    </g>
    <g transform="translate(30,11)" id="g124">
      <path d="M 0,8 V 0 l 12,8" style="fill:none;stroke:#cccccc;stroke-width:1" id="polyline122"/>
    </g>
    <g transform="translate(38,24)" id="g130">
      <path d="M 0,4 A 3,4.5 0 0 1 6,4" stroke-width="1" stroke="#ccc" fill="none" id="path126"/>
      <path d="m 6,4 a 3,4.5 0 0 0 6,0" stroke-width="1" stroke="#ccc" fill="none" id="path128"/>
    </g>
    <g transform="translate(38,38)" id="g134">
      <path d="M 0,4 3,0 9,8 12,4" style="fill:none;stroke:#cccccc;stroke-width:1" id="polyline132"/>
    </g>
    <g transform="translate(30,51)" id="g138">
      <path d="M 0,4 V 0 h 6 v 8 h 6 V 4" style="fill:none;stroke:#cccccc;stroke-width:1" id="polyline136"/>
    </g>
    <g transform="translate(13,54)" id="g142">
      <path d="M 0,0 V 5 H 12 V 8" style="fill:none;stroke:#cccccc;stroke-width:1" id="polyline140"/>
    </g>
  </g>
  <g style="font-weight:bold;font-size:10.6667px;font-family:Roboto, sans-serif;letter-spacing:2px;fill:#eeeeee" id="text148" transform="rotate(-90)" aria-label="S/PW">
    <path id="path1013" style="font-weight:bold;font-size:10.6667px;font-family:Roboto, sans-serif;letter-spacing:2px;fill:#eeeeee" d="m -168.39061,86.01041 q 0,-0.442709 -0.3125,-0.677085 -0.3125,-0.239584 -1.125,-0.500002 -0.81251,-0.265626 -1.28647,-0.520835 -1.29167,-0.697919 -1.29167,-1.880214 0,-0.614585 0.34375,-1.093753 0.34896,-0.484377 0.9948,-0.755211 0.65104,-0.270834 1.45834,-0.270834 0.8125,0 1.44792,0.296876 0.63542,0.291667 0.98438,0.828127 0.35416,0.53646 0.35416,1.218754 h -1.5625 q 0,-0.520835 -0.32813,-0.807294 -0.32812,-0.291668 -0.92188,-0.291668 -0.57291,0 -0.89062,0.244793 -0.31771,0.239584 -0.31771,0.635418 0,0.369793 0.36979,0.619794 0.375,0.250001 1.09896,0.468752 1.33334,0.401042 1.94272,0.994794 0.60937,0.593752 0.60937,1.479172 0,0.984378 -0.74479,1.54688 -0.7448,0.557293 -2.00522,0.557293 -0.875,0 -1.59375,-0.317709 -0.71875,-0.322918 -1.09896,-0.880211 -0.375,-0.557294 -0.375,-1.291671 h 1.56771 q 0,1.255212 1.5,1.255212 0.5573,0 0.8698,-0.223959 0.3125,-0.229167 0.3125,-0.635419 z"/>
    <path id="path1015" style="font-weight:bold;font-size:10.6667px;font-family:Roboto, sans-serif;letter-spacing:2px;fill:#eeeeee" d="m -163.38539,88.651044 h -1.1198 l 2.79168,-8.234401 h 1.11979 z"/>
    <path id="path1017" style="font-weight:bold;font-size:10.6667px;font-family:Roboto, sans-serif;letter-spacing:2px;fill:#eeeeee" d="M -156.21871,85.328117 V 88 h -1.56251 v -7.583357 h 2.95835 q 0.85417,0 1.5,0.312501 0.65105,0.312501 1.00001,0.890628 0.34895,0.572918 0.34895,1.307295 0,1.114587 -0.76562,1.760423 -0.76042,0.640627 -2.10938,0.640627 z m 0,-1.265629 h 1.39584 q 0.61979,0 0.94271,-0.291668 0.32812,-0.291668 0.32812,-0.833336 0,-0.557293 -0.32812,-0.901045 -0.32813,-0.343751 -0.90625,-0.354167 h -1.4323 z"/>
    <path id="path1019" style="font-weight:bold;font-size:10.6667px;font-family:Roboto, sans-serif;letter-spacing:2px;fill:#eeeeee" d="m -142.99992,85.812493 1.02083,-5.39585 h 1.5573 L -142.10409,88 h -1.57292 L -144.91139,82.927067 -146.14577,88 h -1.57292 l -1.6823,-7.583357 h 1.5573 l 1.02605,5.385433 1.25,-5.385433 h 1.32292 z"/>
  </g>
  <g transform="translate(100,143)" id="g150"/>
  <g transform="translate(90.5,133.4)" id="g198">
    <g transform="translate(22.5,22.5)" id="g196">
      <g transform="rotate(120,-7.5,4.330127)" id="g154">
        <g style="font-weight:bold;font-size:12px;font-family:Roboto, sans-serif;fill:#eeeeee" id="text152" transform="rotate(-120,3.6392305,-2.0309401)" aria-label="-">
          <path id="path996" style="font-weight:bold;font-size:12px;font-family:Roboto, sans-serif;fill:#eeeeee" d="M 3.9433594,-2.9707031 H 0.64453125 V -4.3359375 H 3.9433594 Z"/>
        </g>
      </g>
      <g transform="rotate(150,-7.5,2.0096189)" id="g158">
        <path d="M 0,0 H 2.5" style="stroke:#cccccc;stroke-width:0.7" id="polyline156"/>
      </g>
      <g transform="rotate(180,-7.5,0)" id="g162">
        <path d="M 0,0 H 2.5" style="stroke:#cccccc;stroke-width:0.7" id="polyline160"/>
      </g>
      <g transform="rotate(-150,-7.5,-2.0096189)" id="g166">
        <path d="M 0,0 H 2.5" style="stroke:#cccccc;stroke-width:0.7" id="polyline164"/>
      </g>
      <g transform="rotate(-120,-7.5,-4.330127)" id="g170">
        <path d="M 0,0 H 2.5" style="stroke:#cccccc;stroke-width:0.7" id="polyline168"/>
      </g>
      <g transform="rotate(-90,-7.5,-7.5)" id="g174">
        <g style="font-weight:bold;font-size:6.66667px;font-family:Roboto, sans-serif;fill:#eeeeee" id="text172" transform="rotate(90,1,-1)" aria-label="0">
          <path id="path1003" style="font-weight:bold;font-size:6.66667px;font-family:Roboto, sans-serif;fill:#eeeeee" d="m 3.5123715,-1.9596364 q 0,0.98307343 -0.4069013,1.50390702 Q 2.698569,0.0651042 1.9140634,0.0651042 q -0.7747399,0 -1.18489639,-0.51106795 Q 0.31901057,-0.95703171 0.30924494,-1.9108082 v -0.8723963 q 0,-0.992839 0.41015644,-1.5071621 0.41341162,-0.5143232 1.18815162,-0.5143232 0.7747399,0 1.1848964,0.511068 0.4101564,0.5078127 0.4199221,1.4615892 z M 2.5716158,-2.9166681 q 0,-0.5891929 -0.1627605,-0.8561202 Q 2.24935,-4.0429707 1.907553,-4.0429707 q -0.3320314,0 -0.4915367,0.2571616 -0.1562501,0.2539064 -0.1660157,0.7975264 v 1.1523443 q 0,0.5794274 0.1562501,0.86263064 0.1595053,0.27994805 0.5078127,0.27994805 0.3450523,0 0.4980471,-0.27018242 0.1529949,-0.27018237 0.1595053,-0.82682327 z"/>
        </g>
      </g>
      <g transform="rotate(-60,-7.5,-12.990381)" id="g178">
        <path d="M 0,0 H 2.5" style="stroke:#cccccc;stroke-width:0.7" id="polyline176"/>
      </g>
      <g transform="rotate(-30,-7.5,-27.990381)" id="g182">
        <path d="M 0,0 H 2.5" style="stroke:#cccccc;stroke-width:0.7" id="polyline180"/>
      </g>
      <g transform="translate(15)" id="g186">
        <path d="M 0,0 H 2.5" style="stroke:#cccccc;stroke-width:0.7" id="polyline184"/>
      </g>
      <g transform="rotate(30,-7.5,27.990381)" id="g190">
        <path d="M 0,0 H 2.5" style="stroke:#cccccc;stroke-width:0.7" id="polyline188"/>
      </g>
      <g transform="rotate(60,-7.5,12.990381)" id="g194">
        <g style="font-weight:bold;font-size:6.66667px;font-family:Roboto, sans-serif;fill:#eeeeee" id="text192" transform="rotate(-60,4.2320508,-1.8660254)" aria-label="+">
          <path id="path1010" style="font-weight:bold;font-size:6.66667px;font-family:Roboto, sans-serif;fill:#eeeeee" d="m 2.2591157,-2.6529961 h 1.1751307 v 0.8496098 H 2.2591157 v 1.32812566 H 1.3639329 V -1.8033863 H 0.18554696 V -2.6529961 H 1.3639329 v -1.272787 h 0.8951828 z"/>
        </g>
      </g>
    </g>
  </g>
  <g style="font-weight:bold;font-size:10.6667px;font-family:Roboto, sans-serif;letter-spacing:2px;fill:#eeeeee" id="text202" transform="rotate(-90)" aria-label="SM">
    <path id="path991" style="font-weight:bold;font-size:10.6667px;font-family:Roboto, sans-serif;letter-spacing:2px;fill:#eeeeee" d="m -208.39061,86.01041 q 0,-0.442709 -0.3125,-0.677085 -0.3125,-0.239584 -1.125,-0.500002 -0.81251,-0.265626 -1.28647,-0.520835 -1.29167,-0.697919 -1.29167,-1.880214 0,-0.614585 0.34375,-1.093753 0.34896,-0.484377 0.9948,-0.755211 0.65104,-0.270834 1.45834,-0.270834 0.8125,0 1.44792,0.296876 0.63542,0.291667 0.98438,0.828127 0.35416,0.53646 0.35416,1.218754 h -1.5625 q 0,-0.520835 -0.32813,-0.807294 -0.32812,-0.291668 -0.92188,-0.291668 -0.57291,0 -0.89062,0.244793 -0.31771,0.239584 -0.31771,0.635418 0,0.369793 0.36979,0.619794 0.375,0.250001 1.09896,0.468752 1.33334,0.401042 1.94272,0.994794 0.60937,0.593752 0.60937,1.479172 0,0.984378 -0.74479,1.54688 -0.7448,0.557293 -2.00522,0.557293 -0.875,0 -1.59375,-0.317709 -0.71875,-0.322918 -1.09896,-0.880211 -0.375,-0.557294 -0.375,-1.291671 h 1.56771 q 0,1.255212 1.5,1.255212 0.5573,0 0.8698,-0.223959 0.3125,-0.229167 0.3125,-0.635419 z"/>
    <path id="path993" style="font-weight:bold;font-size:10.6667px;font-family:Roboto, sans-serif;letter-spacing:2px;fill:#eeeeee" d="m -201.71872,80.416643 1.94792,5.500017 1.93751,-5.500017 h 2.05209 V 88 h -1.56771 V 85.927077 L -197.19266,82.34894 -199.23955,88 h -1.07292 l -2.04167,-5.645851 0.15625,3.572928 V 88 h -1.5625 v -7.583357 z"/>
  </g>
  <g transform="translate(100,190)" id="g204"/>
  <g transform="translate(90.5,180.4)" id="g230">
    <g transform="translate(22.5,22.5)" id="g228">
      <g style="font-weight:bold;font-size:6.66667px;font-family:Roboto, sans-serif;fill:#eeeeee" id="text206" transform="translate(-11,17.588457)" aria-label="0">
        <path id="path978" style="font-weight:bold;font-size:6.66667px;font-family:Roboto, sans-serif;fill:#eeeeee" d="m 3.5123715,-1.9596364 q 0,0.98307343 -0.4069013,1.50390702 Q 2.698569,0.0651042 1.9140634,0.0651042 q -0.7747399,0 -1.18489639,-0.51106795 Q 0.31901057,-0.95703171 0.30924494,-1.9108082 v -0.8723963 q 0,-0.992839 0.41015644,-1.5071621 0.41341162,-0.5143232 1.18815162,-0.5143232 0.7747399,0 1.1848964,0.511068 0.4101564,0.5078127 0.4199221,1.4615892 z M 2.5716158,-2.9166681 q 0,-0.5891929 -0.1627605,-0.8561202 Q 2.24935,-4.0429707 1.907553,-4.0429707 q -0.3320314,0 -0.4915367,0.2571616 -0.1562501,0.2539064 -0.1660157,0.7975264 v 1.1523443 q 0,0.5794274 0.1562501,0.86263064 0.1595053,0.27994805 0.5078127,0.27994805 0.3450523,0 0.4980471,-0.27018242 0.1529949,-0.27018237 0.1595053,-0.82682327 z"/>
      </g>
      <path d="M 0,0 H 2.5" style="stroke:#cccccc;stroke-width:0.7" transform="rotate(150,-7.5,2.0096189)" id="polyline208"/>
      <path d="M 0,0 H 2.5" style="stroke:#cccccc;stroke-width:0.7" transform="rotate(180,-7.5,0)" id="polyline210"/>
      <path d="M 0,0 H 2.5" style="stroke:#cccccc;stroke-width:0.7" transform="rotate(-150,-7.5,-2.0096189)" id="polyline212"/>
      <path d="M 0,0 H 2.5" style="stroke:#cccccc;stroke-width:0.7" transform="rotate(-120,-7.5,-4.330127)" id="polyline214"/>
      <path d="M 0,0 H 2.5" style="stroke:#cccccc;stroke-width:0.7" transform="rotate(-90,-7.5,-7.5)" id="polyline216"/>
      <path d="M 0,0 H 2.5" style="stroke:#cccccc;stroke-width:0.7" transform="rotate(-60,-7.5,-12.990381)" id="polyline218"/>
      <path d="M 0,0 H 2.5" style="stroke:#cccccc;stroke-width:0.7" transform="rotate(-30,-7.5,-27.990381)" id="polyline220"/>
      <path d="M 0,0 H 2.5" style="stroke:#cccccc;stroke-width:0.7" transform="translate(15)" id="polyline222"/>
      <path d="M 0,0 H 2.5" style="stroke:#cccccc;stroke-width:0.7" transform="rotate(30,-7.5,27.990381)" id="polyline224"/>
      <path d="M 0,0 H 3.5" style="stroke:#cccccc;stroke-width:1" transform="rotate(60,-7.5,12.990381)" id="polyline226"/>
    </g>
  </g>
  <g transform="translate(20,235)" id="g238">
    <g style="font-weight:bold;font-size:10.6667px;font-family:Roboto, sans-serif;letter-spacing:1px;fill:#eeeeee" id="text234" transform="rotate(-90,21.25,13.25)" aria-label="OFFSET">
      <path id="path965" style="font-weight:bold;font-size:10.6667px;font-family:Roboto, sans-serif;letter-spacing:1px;fill:#eeeeee" d="m 6.9062718,-3.6198031 q 0,1.1197952 -0.3958346,1.9635479 Q 6.1146026,-0.81250257 5.375017,-0.35416779 4.6406397,0.104167 3.6875116,0.104167 q -0.9427113,0 -1.6822969,-0.45312644 Q 1.265629,-0.80208587 0.85937771,-1.6406302 0.45312643,-2.4843828 0.44791808,-3.5781363 v -0.3750012 q 0,-1.1197952 0.40104294,-1.9687562 0.40625128,-0.8541694 1.14062858,-1.3072958 0.7395857,-0.4583348 1.6875053,-0.4583348 0.9479197,0 1.682297,0.4583348 0.7395857,0.4531264 1.1406286,1.3072958 0.4062513,0.848961 0.4062513,1.9635479 z M 5.3229335,-3.9635542 q 0,-1.1927121 -0.4270847,-1.8125057 -0.4270847,-0.6197936 -1.2187539,-0.6197936 -0.7864608,0 -1.2135455,0.6145852 -0.4270846,0.609377 -0.432293,1.7916724 v 0.3697928 q 0,1.161462 0.4270847,1.802089 0.4270847,0.640627 1.2291705,0.640627 0.7864609,0 1.2083372,-0.6145852 0.4218763,-0.6197937 0.4270847,-1.8020891 z"/>
      <path id="path967" style="font-weight:bold;font-size:10.6667px;font-family:Roboto, sans-serif;letter-spacing:1px;fill:#eeeeee" d="m 13.614623,-3.0989681 h -3.00001 V 0 H 9.0521084 v -7.5833573 h 4.9375156 v 1.265629 h -3.375011 v 1.9583395 h 3.00001 z"/>
      <path id="path969" style="font-weight:bold;font-size:10.6667px;font-family:Roboto, sans-serif;letter-spacing:1px;fill:#eeeeee" d="m 20.468808,-3.0989681 h -3.00001 V 0 h -1.562505 v -7.5833573 h 4.937516 v 1.265629 h -3.375011 v 1.9583395 h 3.00001 z"/>
      <path id="path971" style="font-weight:bold;font-size:10.6667px;font-family:Roboto, sans-serif;letter-spacing:1px;fill:#eeeeee" d="m 26.692783,-1.9895896 q 0,-0.4427098 -0.312501,-0.6770855 -0.312501,-0.2395841 -1.125004,-0.5000016 -0.812502,-0.2656258 -1.286462,-0.5208349 -1.291671,-0.6979189 -1.291671,-1.8802143 0,-0.6145853 0.343751,-1.0937535 0.348959,-0.4843765 0.994795,-0.7552107 0.651044,-0.2708342 1.458338,-0.2708342 0.812502,0 1.447921,0.296876 0.635419,0.2916675 0.984378,0.8281276 0.354168,0.53646 0.354168,1.2187538 h -1.562505 q 0,-0.520835 -0.328126,-0.8072942 -0.328126,-0.2916676 -0.921878,-0.2916676 -0.572918,0 -0.890628,0.2447925 -0.317709,0.239584 -0.317709,0.6354186 0,0.3697929 0.369793,0.6197937 0.375001,0.2500007 1.098962,0.4687514 1.333337,0.401043 1.942714,0.9947948 0.609377,0.5937519 0.609377,1.4791714 0,0.9843781 -0.744794,1.54687987 -0.744794,0.55729343 -2.005215,0.55729343 -0.875003,0 -1.593755,-0.31770934 Q 23.19798,-0.53646003 22.81777,-1.0937535 22.442769,-1.6510469 22.442769,-2.3854242 h 1.567714 q 0,1.2552123 1.500004,1.2552123 0.557294,0 0.869795,-0.223959 0.312501,-0.2291674 0.312501,-0.6354187 z"/>
      <path id="path973" style="font-weight:bold;font-size:10.6667px;font-family:Roboto, sans-serif;letter-spacing:1px;fill:#eeeeee" d="m 34.885514,-3.2864687 h -3.00001 v 2.0312564 h 3.520845 V 0 H 30.323 v -7.5833573 h 5.072932 v 1.265629 h -3.510428 v 1.8072974 h 3.00001 z"/>
      <path id="path975" style="font-weight:bold;font-size:10.6667px;font-family:Roboto, sans-serif;letter-spacing:1px;fill:#eeeeee" d="M 43.135536,-6.3177283 H 40.812612 V 0 h -1.562505 v -6.3177283 h -2.291674 v -1.265629 h 6.177103 z"/>
    </g>
    <g transform="translate(20)" id="g236"/>
  </g>
  <g transform="translate(30.5,225.4)" id="g286">
    <g transform="translate(22.5,22.5)" id="g284">
      <g transform="rotate(120,-7.5,4.330127)" id="g242">
        <g style="font-weight:bold;font-size:12px;font-family:Roboto, sans-serif;fill:#eeeeee" id="text240" transform="rotate(-120,3.6392305,-2.0309401)" aria-label="-">
          <path id="path948" style="font-weight:bold;font-size:12px;font-family:Roboto, sans-serif;fill:#eeeeee" d="M 3.9433594,-2.9707031 H 0.64453125 V -4.3359375 H 3.9433594 Z"/>
        </g>
      </g>
      <g transform="rotate(150,-7.5,2.0096189)" id="g246">
        <path d="M 0,0 H 2.5" style="stroke:#cccccc;stroke-width:0.7" id="polyline244"/>
      </g>
      <g transform="rotate(180,-7.5,0)" id="g250">
        <path d="M 0,0 H 2.5" style="stroke:#cccccc;stroke-width:0.7" id="polyline248"/>
      </g>
      <g transform="rotate(-150,-7.5,-2.0096189)" id="g254">
        <path d="M 0,0 H 2.5" style="stroke:#cccccc;stroke-width:0.7" id="polyline252"/>
      </g>
      <g transform="rotate(-120,-7.5,-4.330127)" id="g258">
        <path d="M 0,0 H 2.5" style="stroke:#cccccc;stroke-width:0.7" id="polyline256"/>
      </g>
      <g transform="rotate(-90,-7.5,-7.5)" id="g262">
        <g style="font-weight:bold;font-size:6.66667px;font-family:Roboto, sans-serif;fill:#eeeeee" id="text260" transform="rotate(90,1,-1)" aria-label="0">
          <path id="path955" style="font-weight:bold;font-size:6.66667px;font-family:Roboto, sans-serif;fill:#eeeeee" d="m 3.5123715,-1.9596364 q 0,0.98307343 -0.4069013,1.50390702 Q 2.698569,0.0651042 1.9140634,0.0651042 q -0.7747399,0 -1.18489639,-0.51106795 Q 0.31901057,-0.95703171 0.30924494,-1.9108082 v -0.8723963 q 0,-0.992839 0.41015644,-1.5071621 0.41341162,-0.5143232 1.18815162,-0.5143232 0.7747399,0 1.1848964,0.511068 0.4101564,0.5078127 0.4199221,1.4615892 z M 2.5716158,-2.9166681 q 0,-0.5891929 -0.1627605,-0.8561202 Q 2.24935,-4.0429707 1.907553,-4.0429707 q -0.3320314,0 -0.4915367,0.2571616 -0.1562501,0.2539064 -0.1660157,0.7975264 v 1.1523443 q 0,0.5794274 0.1562501,0.86263064 0.1595053,0.27994805 0.5078127,0.27994805 0.3450523,0 0.4980471,-0.27018242 0.1529949,-0.27018237 0.1595053,-0.82682327 z"/>
        </g>
      </g>
      <g transform="rotate(-60,-7.5,-12.990381)" id="g266">
        <path d="M 0,0 H 2.5" style="stroke:#cccccc;stroke-width:0.7" id="polyline264"/>
      </g>
      <g transform="rotate(-30,-7.5,-27.990381)" id="g270">
        <path d="M 0,0 H 2.5" style="stroke:#cccccc;stroke-width:0.7" id="polyline268"/>
      </g>
      <g transform="translate(15)" id="g274">
        <path d="M 0,0 H 2.5" style="stroke:#cccccc;stroke-width:0.7" id="polyline272"/>
      </g>
      <g transform="rotate(30,-7.5,27.990381)" id="g278">
        <path d="M 0,0 H 2.5" style="stroke:#cccccc;stroke-width:0.7" id="polyline276"/>
      </g>
      <g transform="rotate(60,-7.5,12.990381)" id="g282">
        <g style="font-weight:bold;font-size:6.66667px;font-family:Roboto, sans-serif;fill:#eeeeee" id="text280" transform="rotate(-60,4.2320508,-1.8660254)" aria-label="+">
          <path id="path962" style="font-weight:bold;font-size:6.66667px;font-family:Roboto, sans-serif;fill:#eeeeee" d="m 2.2591157,-2.6529961 h 1.1751307 v 0.8496098 H 2.2591157 v 1.32812566 H 1.3639329 V -1.8033863 H 0.18554696 V -2.6529961 H 1.3639329 v -1.272787 h 0.8951828 z"/>
        </g>
      </g>
    </g>
  </g>
  <g transform="translate(80,235)" id="g292">
    <g style="font-weight:bold;font-size:10.6667px;font-family:Roboto, sans-serif;letter-spacing:1px;fill:#eeeeee" id="text288" transform="rotate(-90,20,12)" aria-label="SCALE">
      <path id="path937" style="font-weight:bold;font-size:10.6667px;font-family:Roboto, sans-serif;letter-spacing:1px;fill:#eeeeee" d="m 4.6093896,-1.9895896 q 0,-0.4427098 -0.312501,-0.6770855 Q 3.9843876,-2.9062592 3.171885,-3.1666767 2.3593825,-3.4323025 1.8854226,-3.6875116 0.59375188,-4.3854305 0.59375188,-5.5677259 q 0,-0.6145853 0.34375108,-1.0937535 0.34895944,-0.4843765 0.99479484,-0.7552107 0.6510437,-0.2708342 1.4583379,-0.2708342 0.8125026,0 1.4479213,0.296876 0.6354186,0.2916675 0.9843781,0.8281276 0.3541677,0.53646 0.3541677,1.2187538 H 4.6145979 q 0,-0.520835 -0.328126,-0.8072942 -0.3281261,-0.2916676 -0.9218779,-0.2916676 -0.5729185,0 -0.8906279,0.2447925 -0.3177093,0.239584 -0.3177093,0.6354186 0,0.3697929 0.3697928,0.6197937 0.3750012,0.2500007 1.0989619,0.4687514 1.3333375,0.401043 1.9427144,0.9947948 0.6093769,0.5937519 0.6093769,1.4791714 0,0.9843781 -0.744794,1.54687987 Q 4.6875148,0.104167 3.4270942,0.104167 q -0.8750028,0 -1.5937551,-0.31770934 Q 1.1145869,-0.53646003 0.73437732,-1.0937535 0.35937614,-1.6510469 0.35937614,-2.3854242 H 1.9270894 q 0,1.2552123 1.5000048,1.2552123 0.5572934,0 0.8697944,-0.223959 0.312501,-0.2291674 0.312501,-0.6354187 z"/>
      <path id="path939" style="font-weight:bold;font-size:10.6667px;font-family:Roboto, sans-serif;letter-spacing:1px;fill:#eeeeee" d="m 14.19275,-2.5260496 q -0.08854,1.2239622 -0.906253,1.92708937 -0.812503,0.70312723 -2.14584,0.70312723 -1.4583381,0 -2.2968824,-0.97916976 Q 8.0104386,-1.8593809 8.0104386,-3.572928 v -0.4635431 q 0,-1.0937534 0.3854179,-1.9270894 0.3854179,-0.833336 1.0989618,-1.2760457 0.7187527,-0.4479181 1.6666717,-0.4479181 1.312504,0 2.11459,0.7031272 0.802086,0.7031273 0.927086,1.9739646 h -1.562504 q -0.05729,-0.7343773 -0.41146,-1.0625034 -0.34896,-0.3333343 -1.067712,-0.3333343 -0.781252,0 -1.1718785,0.5625017 -0.3854179,0.5572935 -0.3958346,1.7343805 v 0.5729185 q 0,1.2291705 0.3697929,1.7968807 0.3750012,0.5677101 1.1770872,0.5677101 0.72396,0 1.078128,-0.328126 0.359376,-0.3333344 0.41146,-1.0260449 z"/>
      <path id="path941" style="font-weight:bold;font-size:10.6667px;font-family:Roboto, sans-serif;letter-spacing:1px;fill:#eeeeee" d="M 20.500059,-1.5625049 H 17.760467 L 17.239632,0 h -1.661464 l 2.822926,-7.5833573 h 1.447921 L 22.687566,0 h -1.661464 z m -2.317716,-1.265629 h 1.89584 l -0.953128,-2.8385507 z"/>
      <path id="path943" style="font-weight:bold;font-size:10.6667px;font-family:Roboto, sans-serif;letter-spacing:1px;fill:#eeeeee" d="m 25.968823,-1.2552123 h 3.317719 V 0 h -4.880224 v -7.5833573 h 1.562505 z"/>
      <path id="path945" style="font-weight:bold;font-size:10.6667px;font-family:Roboto, sans-serif;letter-spacing:1px;fill:#eeeeee" d="m 35.739684,-3.2864687 h -3.00001 v 2.0312564 h 3.520845 V 0 h -5.08335 v -7.5833573 h 5.072933 v 1.265629 h -3.510428 v 1.8072974 h 3.00001 z"/>
    </g>
    <g transform="translate(20)" id="g290"/>
  </g>
  <g transform="translate(90.5,225.4)" id="g318">
    <g transform="translate(22.5,22.5)" id="g316">
      <g style="font-weight:bold;font-size:6.66667px;font-family:Roboto, sans-serif;fill:#eeeeee" id="text294" transform="translate(-11,17.588457)" aria-label="0">
        <path id="path924" style="font-weight:bold;font-size:6.66667px;font-family:Roboto, sans-serif;fill:#eeeeee" d="m 3.5123715,-1.9596364 q 0,0.98307343 -0.4069013,1.50390702 Q 2.698569,0.0651042 1.9140634,0.0651042 q -0.7747399,0 -1.18489639,-0.51106795 Q 0.31901057,-0.95703171 0.30924494,-1.9108082 v -0.8723963 q 0,-0.992839 0.41015644,-1.5071621 0.41341162,-0.5143232 1.18815162,-0.5143232 0.7747399,0 1.1848964,0.511068 0.4101564,0.5078127 0.4199221,1.4615892 z M 2.5716158,-2.9166681 q 0,-0.5891929 -0.1627605,-0.8561202 Q 2.24935,-4.0429707 1.907553,-4.0429707 q -0.3320314,0 -0.4915367,0.2571616 -0.1562501,0.2539064 -0.1660157,0.7975264 v 1.1523443 q 0,0.5794274 0.1562501,0.86263064 0.1595053,0.27994805 0.5078127,0.27994805 0.3450523,0 0.4980471,-0.27018242 0.1529949,-0.27018237 0.1595053,-0.82682327 z"/>
      </g>
      <path d="M 0,0 H 2.5" style="stroke:#cccccc;stroke-width:0.7" transform="rotate(150,-7.5,2.0096189)" id="polyline296"/>
      <path d="M 0,0 H 2.5" style="stroke:#cccccc;stroke-width:0.7" transform="rotate(180,-7.5,0)" id="polyline298"/>
      <path d="M 0,0 H 2.5" style="stroke:#cccccc;stroke-width:0.7" transform="rotate(-150,-7.5,-2.0096189)" id="polyline300"/>
      <path d="M 0,0 H 2.5" style="stroke:#cccccc;stroke-width:0.7" transform="rotate(-120,-7.5,-4.330127)" id="polyline302"/>
      <path d="M 0,0 H 2.5" style="stroke:#cccccc;stroke-width:0.7" transform="rotate(-90,-7.5,-7.5)" id="polyline304"/>
      <path d="M 0,0 H 2.5" style="stroke:#cccccc;stroke-width:0.7" transform="rotate(-60,-7.5,-12.990381)" id="polyline306"/>
      <path d="M 0,0 H 2.5" style="stroke:#cccccc;stroke-width:0.7" transform="rotate(-30,-7.5,-27.990381)" id="polyline308"/>
      <path d="M 0,0 H 2.5" style="stroke:#cccccc;stroke-width:0.7" transform="translate(15)" id="polyline310"/>
      <path d="M 0,0 H 2.5" style="stroke:#cccccc;stroke-width:0.7" transform="rotate(30,-7.5,27.990381)" id="polyline312"/>
      <path d="M 0,0 H 3.5" style="stroke:#cccccc;stroke-width:1" transform="rotate(60,-7.5,12.990381)" id="polyline314"/>
    </g>
  </g>
  <g transform="translate(140,36)" id="g354">
    <g id="g324">
      <g transform="translate(4,4)" id="g322"/>
    </g>
    <g transform="translate(0,40)" id="g328">
      <g transform="translate(4,4)" id="g326"/>
    </g>
    <g transform="translate(0,80)" id="g332">
      <g transform="translate(4,4)" id="g330"/>
    </g>
    <g transform="translate(0,120)" id="g336">
      <g transform="translate(4,4)" id="g334"/>
    </g>
    <g transform="translate(0,160)" id="g340">
      <g transform="translate(4,4)" id="g338"/>
    </g>
    <g transform="translate(0,200)" id="g344">
      <g transform="translate(4,4)" id="g342"/>
    </g>
    <g transform="translate(0,240)" id="g348">
      <g transform="translate(4,4)" id="g346"/>
    </g>
    <g transform="translate(0,280)" id="g352">
      <g transform="translate(4,4)" id="g350"/>
    </g>
  </g>
  <g transform="rotate(135,80.20101,61.338095)" id="g372">
    <g transform="translate(20,20)" id="g370">
      <g transform="rotate(-90,-5,-5)" id="g360">
        <path d="M 0,0 H 4" style="stroke:#cccccc;stroke-width:1" id="polyline358"/>
      </g>
      <path d="M 0,-12.5 A 12.5,12.5 0 0 1 12.5,0" stroke-width="0.7" stroke-linecap="round" stroke="#ccc" fill="none" transform="rotate(20)" id="path362"/>
      <path d="M 0,-12.5 A 12.5,12.5 0 0 1 12.5,0" stroke-width="0.7" stroke-linecap="round" stroke="#ccc" fill="none" transform="rotate(43)" id="path364"/>
      <path d="M 0,-12.5 A 12.5,12.5 0 0 0 -12.5,0" stroke-width="0.7" stroke-linecap="round" stroke="#ccc" fill="none" transform="rotate(-20)" id="path366"/>
      <path d="M 0,-12.5 A 12.5,12.5 0 0 0 -12.5,0" stroke-width="0.7" stroke-linecap="round" stroke="#ccc" fill="none" transform="rotate(-43)" id="path368"/>
    </g>
  </g>
  <g transform="rotate(180,86,54)" id="g388">
    <g transform="translate(20,20)" id="g386">
      <g transform="rotate(-90,-5,-5)" id="g376">
        <path d="M 0,0 H 4" style="stroke:#cccccc;stroke-width:1" id="polyline374"/>
      </g>
      <path d="M 0,-12.5 A 12.5,12.5 0 0 1 12.5,0" stroke-width="0.7" stroke-linecap="round" stroke="#ccc" fill="none" transform="rotate(20)" id="path378"/>
      <path d="M 0,-12.5 A 12.5,12.5 0 0 1 12.5,0" stroke-width="0.7" stroke-linecap="round" stroke="#ccc" fill="none" transform="rotate(43)" id="path380"/>
      <path d="M 0,-12.5 A 12.5,12.5 0 0 0 -12.5,0" stroke-width="0.7" stroke-linecap="round" stroke="#ccc" fill="none" transform="rotate(-20)" id="path382"/>
      <path d="M 0,-12.5 A 12.5,12.5 0 0 0 -12.5,0" stroke-width="0.7" stroke-linecap="round" stroke="#ccc" fill="none" transform="rotate(-43)" id="path384"/>
    </g>
  </g>
  <g transform="rotate(-135,108.36753,46.661905)" id="g404">
    <g transform="translate(20,20)" id="g402">
      <g transform="rotate(-90,-5,-5)" id="g392">
        <path d="M 0,0 H 4" style="stroke:#cccccc;stroke-width:1" id="polyline390"/>
      </g>
      <path d="M 0,-12.5 A 12.5,12.5 0 0 1 12.5,0" stroke-width="0.7" stroke-linecap="round" stroke="#ccc" fill="none" transform="rotate(20)" id="path394"/>
      <path d="M 0,-12.5 A 12.5,12.5 0 0 1 12.5,0" stroke-width="0.7" stroke-linecap="round" stroke="#ccc" fill="none" transform="rotate(43)" id="path396"/>
      <path d="M 0,-12.5 A 12.5,12.5 0 0 0 -12.5,0" stroke-width="0.7" stroke-linecap="round" stroke="#ccc" fill="none" transform="rotate(-20)" id="path398"/>
      <path d="M 0,-12.5 A 12.5,12.5 0 0 0 -12.5,0" stroke-width="0.7" stroke-linecap="round" stroke="#ccc" fill="none" transform="rotate(-43)" id="path400"/>
    </g>
  </g>
  <g transform="rotate(-90,160,28)" id="g420">
    <g transform="translate(20,20)" id="g418">
      <g transform="rotate(-90,-5,-5)" id="g408">
        <path d="M 0,0 H 4" style="stroke:#cccccc;stroke-width:1" id="polyline406"/>
      </g>
      <path d="M 0,-12.5 A 12.5,12.5 0 0 1 12.5,0" stroke-width="0.7" stroke-linecap="round" stroke="#ccc" fill="none" transform="rotate(20)" id="path410"/>
      <path d="M 0,-12.5 A 12.5,12.5 0 0 1 12.5,0" stroke-width="0.7" stroke-linecap="round" stroke="#ccc" fill="none" transform="rotate(43)" id="path412"/>
      <path d="M 0,-12.5 A 12.5,12.5 0 0 0 -12.5,0" stroke-width="0.7" stroke-linecap="round" stroke="#ccc" fill="none" transform="rotate(-20)" id="path414"/>
      <path d="M 0,-12.5 A 12.5,12.5 0 0 0 -12.5,0" stroke-width="0.7" stroke-linecap="round" stroke="#ccc" fill="none" transform="rotate(-43)" id="path416"/>
    </g>
  </g>
  <g transform="rotate(-45,312.93607,-45.338099)" id="g436">
    <g transform="translate(20,20)" id="g434">
      <g transform="rotate(-90,-5,-5)" id="g424">
        <path d="M 0,0 H 4" style="stroke:#cccccc;stroke-width:1" id="polyline422"/>
      </g>
      <path d="M 0,-12.5 A 12.5,12.5 0 0 1 12.5,0" stroke-width="0.7" stroke-linecap="round" stroke="#ccc" fill="none" transform="rotate(20)" id="path426"/>
      <path d="M 0,-12.5 A 12.5,12.5 0 0 1 12.5,0" stroke-width="0.7" stroke-linecap="round" stroke="#ccc" fill="none" transform="rotate(43)" id="path428"/>
      <path d="M 0,-12.5 A 12.5,12.5 0 0 0 -12.5,0" stroke-width="0.7" stroke-linecap="round" stroke="#ccc" fill="none" transform="rotate(-20)" id="path430"/>
      <path d="M 0,-12.5 A 12.5,12.5 0 0 0 -12.5,0" stroke-width="0.7" stroke-linecap="round" stroke="#ccc" fill="none" transform="rotate(-43)" id="path432"/>
    </g>
  </g>
  <g transform="translate(132,228)" id="g452">
    <g transform="translate(20,20)" id="g450">
      <g transform="rotate(-90,-5,-5)" id="g440">
        <path d="M 0,0 H 4" style="stroke:#cccccc;stroke-width:1" id="polyline438"/>
      </g>
      <path d="M 0,-12.5 A 12.5,12.5 0 0 1 12.5,0" stroke-width="0.7" stroke-linecap="round" stroke="#ccc" fill="none" transform="rotate(20)" id="path442"/>
      <path d="M 0,-12.5 A 12.5,12.5 0 0 1 12.5,0" stroke-width="0.7" stroke-linecap="round" stroke="#ccc" fill="none" transform="rotate(43)" id="path444"/>
      <path d="M 0,-12.5 A 12.5,12.5 0 0 0 -12.5,0" stroke-width="0.7" stroke-linecap="round" stroke="#ccc" fill="none" transform="rotate(-20)" id="path446"/>
      <path d="M 0,-12.5 A 12.5,12.5 0 0 0 -12.5,0" stroke-width="0.7" stroke-linecap="round" stroke="#ccc" fill="none" transform="rotate(-43)" id="path448"/>
    </g>
  </g>
  <g transform="rotate(45,-237.50461,313.3381)" id="g468">
    <g transform="translate(20,20)" id="g466">
      <g transform="rotate(-90,-5,-5)" id="g456">
        <path d="M 0,0 H 4" style="stroke:#cccccc;stroke-width:1" id="polyline454"/>
      </g>
      <path d="M 0,-12.5 A 12.5,12.5 0 0 1 12.5,0" stroke-width="0.7" stroke-linecap="round" stroke="#ccc" fill="none" transform="rotate(20)" id="path458"/>
      <path d="M 0,-12.5 A 12.5,12.5 0 0 1 12.5,0" stroke-width="0.7" stroke-linecap="round" stroke="#ccc" fill="none" transform="rotate(43)" id="path460"/>
      <path d="M 0,-12.5 A 12.5,12.5 0 0 0 -12.5,0" stroke-width="0.7" stroke-linecap="round" stroke="#ccc" fill="none" transform="rotate(-20)" id="path462"/>
      <path d="M 0,-12.5 A 12.5,12.5 0 0 0 -12.5,0" stroke-width="0.7" stroke-linecap="round" stroke="#ccc" fill="none" transform="rotate(-43)" id="path464"/>
    </g>
  </g>
  <g transform="rotate(90,-68,240)" id="g484">
    <g transform="translate(20,20)" id="g482">
      <g transform="rotate(-90,-5,-5)" id="g472">
        <path d="M 0,0 H 4" style="stroke:#cccccc;stroke-width:1" id="polyline470"/>
      </g>
      <path d="M 0,-12.5 A 12.5,12.5 0 0 1 12.5,0" stroke-width="0.7" stroke-linecap="round" stroke="#ccc" fill="none" transform="rotate(20)" id="path474"/>
      <path d="M 0,-12.5 A 12.5,12.5 0 0 1 12.5,0" stroke-width="0.7" stroke-linecap="round" stroke="#ccc" fill="none" transform="rotate(43)" id="path476"/>
      <path d="M 0,-12.5 A 12.5,12.5 0 0 0 -12.5,0" stroke-width="0.7" stroke-linecap="round" stroke="#ccc" fill="none" transform="rotate(-20)" id="path478"/>
      <path d="M 0,-12.5 A 12.5,12.5 0 0 0 -12.5,0" stroke-width="0.7" stroke-linecap="round" stroke="#ccc" fill="none" transform="rotate(-43)" id="path480"/>
    </g>
  </g>
  <path class="input-background" d="m 181,32 h 20 c 2.77,0 5,2.23 5,5 v 318 c 0,2.77 -2.23,5 -5,5 h -20 c -2.77,0 -5,-2.23 -5,-5 V 37 c 0,-2.77 2.23,-5 5,-5 z" style="fill:#aaaaaa" id="rect488"/>
  <g transform="translate(179,36)" id="g506">
    <g id="g490"/>
    <g transform="translate(0,40)" id="g492"/>
    <g transform="translate(0,80)" id="g494"/>
    <g transform="translate(0,120)" id="g496"/>
    <g transform="translate(0,160)" id="g498"/>
    <g transform="translate(0,200)" id="g500"/>
    <g transform="translate(0,240)" id="g502"/>
    <g transform="translate(0,280)" id="g504"/>
  </g>
  <g class="input-label" style="font-weight:bold;font-size:8px;font-family:Roboto, sans-serif;letter-spacing:2px;fill:#222222" id="text508" aria-label="CV">
    <path id="path910" style="font-weight:bold;font-size:8px;font-family:Roboto, sans-serif;letter-spacing:2px;fill:#222222" d="m 188.97266,350.10547 q -0.0664,0.91797 -0.67969,1.44531 -0.60938,0.52734 -1.60938,0.52734 -1.09375,0 -1.72265,-0.73437 -0.625,-0.73828 -0.625,-2.02344 v -0.34765 q 0,-0.82032 0.28906,-1.44532 0.28906,-0.625 0.82422,-0.95703 0.53906,-0.33594 1.25,-0.33594 0.98437,0 1.58594,0.52735 0.60156,0.52734 0.69531,1.48047 h -1.17188 q -0.043,-0.55078 -0.30859,-0.79688 -0.26172,-0.25 -0.80078,-0.25 -0.58594,0 -0.87891,0.42188 -0.28906,0.41797 -0.29687,1.30078 v 0.42969 q 0,0.92187 0.27734,1.34765 0.28125,0.42578 0.88281,0.42578 0.54297,0 0.8086,-0.24609 0.26953,-0.25 0.30859,-0.76953 z"/>
    <path id="path912" style="font-weight:bold;font-size:8px;font-family:Roboto, sans-serif;letter-spacing:2px;fill:#222222" d="m 193.84375,350.58984 1.28906,-4.27734 h 1.30469 L 194.45703,352 h -1.22266 l -1.97265,-5.6875 h 1.30078 z"/>
  </g>
  <path class="output-background" d="m 220,32 h 20 c 2.77,0 5,2.23 5,5 v 318 c 0,2.77 -2.23,5 -5,5 h -20 c -2.77,0 -5,-2.23 -5,-5 V 37 c 0,-2.77 2.23,-5 5,-5 z" style="fill:#666666" id="rect512"/>
  <g transform="translate(218,36)" id="g530">
    <g id="g514"/>
    <g transform="translate(0,40)" id="g516"/>
    <g transform="translate(0,80)" id="g518"/>
    <g transform="translate(0,120)" id="g520"/>
    <g transform="translate(0,160)" id="g522"/>
    <g transform="translate(0,200)" id="g524"/>
    <g transform="translate(0,240)" id="g526"/>
    <g transform="translate(0,280)" id="g528"/>
  </g>
  <g class="output-label" style="font-weight:bold;font-size:8px;font-family:Roboto, sans-serif;letter-spacing:2px;fill:#dddddd" id="text532" aria-label="OUT">
    <path id="path902" style="font-weight:bold;font-size:8px;font-family:Roboto, sans-serif;letter-spacing:2px;fill:#dddddd" d="m 225.17969,349.28516 q 0,0.83984 -0.29688,1.47265 -0.29687,0.63281 -0.85156,0.97656 -0.55078,0.34375 -1.26563,0.34375 -0.70703,0 -1.26171,-0.33984 -0.55469,-0.33984 -0.85938,-0.96875 -0.30469,-0.63281 -0.30859,-1.45312 v -0.28125 q 0,-0.83985 0.30078,-1.47657 0.30469,-0.64062 0.85547,-0.98047 0.55468,-0.34375 1.26562,-0.34375 0.71094,0 1.26172,0.34375 0.55469,0.33985 0.85547,0.98047 0.30469,0.63672 0.30469,1.47266 z m -1.1875,-0.25782 q 0,-0.89453 -0.32032,-1.35937 -0.32031,-0.46485 -0.91406,-0.46485 -0.58984,0 -0.91015,0.46094 -0.32032,0.45703 -0.32422,1.34375 v 0.27735 q 0,0.87109 0.32031,1.35156 0.32031,0.48047 0.92187,0.48047 0.58985,0 0.90625,-0.46094 0.31641,-0.46484 0.32032,-1.35156 z"/>
    <path id="path904" style="font-weight:bold;font-size:8px;font-family:Roboto, sans-serif;letter-spacing:2px;fill:#dddddd" d="m 232.34375,346.3125 v 3.74609 q 0,0.9336 -0.58594,1.47657 -0.58203,0.54296 -1.59375,0.54296 -0.99609,0 -1.58203,-0.52734 -0.58594,-0.52734 -0.59766,-1.44922 v -3.78906 h 1.17188 v 3.75391 q 0,0.55859 0.26562,0.8164 0.26954,0.25391 0.74219,0.25391 0.98828,0 1.00391,-1.03906 v -3.78516 z"/>
    <path id="path906" style="font-weight:bold;font-size:8px;font-family:Roboto, sans-serif;letter-spacing:2px;fill:#dddddd" d="m 239.58594,347.26172 h -1.74219 V 352 h -1.17188 v -4.73828 h -1.71875 v -0.94922 h 4.63282 z"/>
  </g>
  <path class="input-background" d="m 22,273 h 98 c 2.77,0 5,2.23 5,5 v 77 c 0,2.77 -2.23,5 -5,5 H 22 c -2.77,0 -5,-2.23 -5,-5 v -77 c 0,-2.77 2.23,-5 5,-5 z" style="fill:#aaaaaa" id="rect536"/>
  <g transform="translate(17,273)" id="g542">
    <g transform="translate(4,4)" id="g538"/>
    <g class="input-label" style="font-weight:bold;font-size:8px;font-family:Roboto, sans-serif;letter-spacing:1px;fill:#222222" id="text540" transform="translate(4,38)" aria-label="S/PW">
      <path id="path892" style="font-weight:bold;font-size:8px;font-family:Roboto, sans-serif;letter-spacing:1px;fill:#222222" d="m 3.4570313,-1.4921875 q 0,-0.3320312 -0.234375,-0.5078125 -0.234375,-0.1796875 -0.84375,-0.375 -0.6093751,-0.1992188 -0.9648438,-0.390625 -0.96875,-0.5234375 -0.96875,-1.4101562 0,-0.4609375 0.2578125,-0.8203125 Q 0.96484375,-5.359375 1.4492187,-5.5625 1.9375,-5.765625 2.5429688,-5.765625 q 0.609375,0 1.0859375,0.2226563 0.4765624,0.21875 0.7382812,0.6210937 0.265625,0.4023438 0.265625,0.9140625 h -1.171875 q 0,-0.390625 -0.2460937,-0.6054687 -0.2460938,-0.21875 -0.6914063,-0.21875 -0.4296875,0 -0.6679688,0.1835937 -0.2382812,0.1796875 -0.2382812,0.4765625 0,0.2773437 0.2773437,0.4648437 0.2812501,0.1875 0.8242188,0.3515625 1,0.3007813 1.4570312,0.7460938 0.4570313,0.4453125 0.4570313,1.109375 0,0.73828125 -0.5585938,1.16015625 Q 3.515625,0.078125 2.5703125,0.078125 q -0.65625,0 -1.1953125,-0.23828125 -0.5390625,-0.2421875 -0.82421875,-0.66015625 -0.28125,-0.4179687 -0.28125,-0.96875 H 1.4453125 q 0,0.94140625 1.125,0.94140625 0.4179688,0 0.6523438,-0.16796875 0.234375,-0.171875 0.234375,-0.4765625 z"/>
      <path id="path894" style="font-weight:bold;font-size:8px;font-family:Roboto, sans-serif;letter-spacing:1px;fill:#222222" d="M 6.7109375,0.48828125 H 5.8710937 L 7.9648437,-5.6875 h 0.8398438 z"/>
      <path id="path896" style="font-weight:bold;font-size:8px;font-family:Roboto, sans-serif;letter-spacing:1px;fill:#222222" d="M 11.585938,-2.0039063 V 0 h -1.171875 v -5.6875 h 2.21875 q 0.640625,0 1.125,0.234375 0.488281,0.234375 0.75,0.6679688 0.261718,0.4296875 0.261718,0.9804687 0,0.8359375 -0.574218,1.3203125 -0.570313,0.4804687 -1.582032,0.4804687 z m 0,-0.9492187 h 1.046875 q 0.464843,0 0.707031,-0.21875 0.246094,-0.21875 0.246094,-0.625 0,-0.4179687 -0.246094,-0.6757812 -0.246094,-0.2578125 -0.679688,-0.265625 h -1.074218 z"/>
      <path id="path898" style="font-weight:bold;font-size:8px;font-family:Roboto, sans-serif;letter-spacing:1px;fill:#222222" d="M 21,-1.640625 21.765625,-5.6875 h 1.167969 L 21.671875,0 H 20.492187 L 19.566406,-3.8046875 18.640625,0 h -1.179688 l -1.261718,-5.6875 h 1.167968 l 0.769532,4.0390625 0.9375,-4.0390625 h 0.992187 z"/>
    </g>
  </g>
  <g transform="translate(57,273)" id="g548">
    <g transform="translate(2,4)" id="g544"/>
    <g class="input-label" style="font-weight:bold;font-size:8px;font-family:Roboto, sans-serif;letter-spacing:2px;fill:#222222" id="text546" transform="translate(4.5,38)" aria-label="OFF">
      <path id="path885" style="font-weight:bold;font-size:8px;font-family:Roboto, sans-serif;letter-spacing:2px;fill:#222222" d="m 5.1796875,-2.7148438 q 0,0.8398438 -0.296875,1.4726563 -0.296875,0.6328125 -0.8515625,0.9765625 -0.5507812,0.34375 -1.265625,0.34375 -0.7070312,0 -1.2617188,-0.33984375 Q 0.94921875,-0.6015625 0.64453125,-1.2304687 0.33984375,-1.8632812 0.3359375,-2.6835938 v -0.28125 q 0,-0.8398437 0.30078125,-1.4765624 0.3046875,-0.640625 0.85546875,-0.9804688 0.5546875,-0.34375 1.265625,-0.34375 0.7109375,0 1.2617187,0.34375 0.5546875,0.3398438 0.8554688,0.9804688 0.3046875,0.6367187 0.3046875,1.4726562 z m -1.1875,-0.2578125 q 0,-0.8945312 -0.3203125,-1.3593749 -0.3203125,-0.4648438 -0.9140625,-0.4648438 -0.5898437,0 -0.9101563,0.4609375 -0.3203125,0.4570312 -0.3242187,1.34375 v 0.2773437 q 0,0.8710938 0.3203125,1.3515626 0.3203125,0.4804687 0.921875,0.4804687 0.5898438,0 0.90625,-0.4609375 0.3164063,-0.4648437 0.3203125,-1.3515625 z"/>
      <path id="path887" style="font-weight:bold;font-size:8px;font-family:Roboto, sans-serif;letter-spacing:2px;fill:#222222" d="M 11.460938,-2.3242188 H 9.2109375 V 0 h -1.171875 v -5.6875 h 3.7031255 v 0.9492188 H 9.2109375 v 1.4687499 h 2.2500005 z"/>
      <path id="path889" style="font-weight:bold;font-size:8px;font-family:Roboto, sans-serif;letter-spacing:2px;fill:#222222" d="M 17.851562,-2.3242188 H 15.601563 V 0 h -1.171875 v -5.6875 h 3.703124 v 0.9492188 h -2.531249 v 1.4687499 h 2.249999 z"/>
    </g>
  </g>
  <g transform="translate(97,273)" id="g554">
    <g transform="translate(0,4)" id="g550"/>
    <g class="input-label" style="font-weight:bold;font-size:8px;font-family:Roboto, sans-serif;letter-spacing:2px;fill:#222222" id="text552" transform="translate(2.5,38)" aria-label="SCL">
      <path id="path878" style="font-weight:bold;font-size:8px;font-family:Roboto, sans-serif;letter-spacing:2px;fill:#222222" d="m 3.4570313,-1.4921875 q 0,-0.3320312 -0.234375,-0.5078125 -0.234375,-0.1796875 -0.84375,-0.375 -0.6093751,-0.1992188 -0.9648438,-0.390625 -0.96875,-0.5234375 -0.96875,-1.4101562 0,-0.4609375 0.2578125,-0.8203125 Q 0.96484375,-5.359375 1.4492187,-5.5625 1.9375,-5.765625 2.5429688,-5.765625 q 0.609375,0 1.0859375,0.2226563 0.4765624,0.21875 0.7382812,0.6210937 0.265625,0.4023438 0.265625,0.9140625 h -1.171875 q 0,-0.390625 -0.2460937,-0.6054687 -0.2460938,-0.21875 -0.6914063,-0.21875 -0.4296875,0 -0.6679688,0.1835937 -0.2382812,0.1796875 -0.2382812,0.4765625 0,0.2773437 0.2773437,0.4648437 0.2812501,0.1875 0.8242188,0.3515625 1,0.3007813 1.4570312,0.7460938 0.4570313,0.4453125 0.4570313,1.109375 0,0.73828125 -0.5585938,1.16015625 Q 3.515625,0.078125 2.5703125,0.078125 q -0.65625,0 -1.1953125,-0.23828125 -0.5390625,-0.2421875 -0.82421875,-0.66015625 -0.28125,-0.4179687 -0.28125,-0.96875 H 1.4453125 q 0,0.94140625 1.125,0.94140625 0.4179688,0 0.6523438,-0.16796875 0.234375,-0.171875 0.234375,-0.4765625 z"/>
      <path id="path880" style="font-weight:bold;font-size:8px;font-family:Roboto, sans-serif;letter-spacing:2px;fill:#222222" d="m 11.894531,-1.8945312 q -0.06641,0.9179687 -0.679687,1.44531245 Q 10.605469,0.078125 9.6054688,0.078125 q -1.09375,0 -1.7226563,-0.734375 -0.625,-0.7382812 -0.625,-2.0234375 v -0.3476563 q 0,-0.8203125 0.2890625,-1.4453124 0.2890625,-0.625 0.8242188,-0.9570313 0.5390625,-0.3359375 1.25,-0.3359375 0.9843752,0 1.5859372,0.5273438 0.601563,0.5273437 0.695313,1.4804687 h -1.171875 q -0.04297,-0.5507812 -0.308594,-0.796875 -0.261719,-0.25 -0.8007812,-0.25 -0.5859375,0 -0.8789063,0.421875 -0.2890625,0.4179687 -0.296875,1.3007812 v 0.4296875 q 0,0.9218751 0.2773438,1.3476563 0.28125,0.42578125 0.8828125,0.42578125 0.5429692,0 0.8085942,-0.24609375 0.269531,-0.25 0.308593,-0.7695312 z"/>
      <path id="path882" style="font-weight:bold;font-size:8px;font-family:Roboto, sans-serif;letter-spacing:2px;fill:#222222" d="m 15.835938,-0.94140625 h 2.488281 V 0 h -3.660156 v -5.6875 h 1.171875 z"/>
    </g>
  </g>
  <g transform="translate(17,313)" id="g560">
    <g transform="translate(4,5)" id="g556"/>
    <g class="input-label" style="font-weight:bold;font-size:8px;font-family:Roboto, sans-serif;letter-spacing:1px;fill:#222222" id="text558" transform="translate(2,40)" aria-label="V/OCT">
      <path id="path867" style="font-weight:bold;font-size:8px;font-family:Roboto, sans-serif;letter-spacing:1px;fill:#222222" d="M 2.609375,-1.4101562 3.8984375,-5.6875 H 5.203125 L 3.2226563,0 H 2 L 0.02734375,-5.6875 H 1.328125 Z"/>
      <path id="path869" style="font-weight:bold;font-size:8px;font-family:Roboto, sans-serif;letter-spacing:1px;fill:#222222" d="M 7.0234375,0.48828125 H 6.1835937 L 8.2773438,-5.6875 h 0.8398437 z"/>
      <path id="path871" style="font-weight:bold;font-size:8px;font-family:Roboto, sans-serif;letter-spacing:1px;fill:#222222" d="m 15.398438,-2.7148438 q 0,0.8398438 -0.296875,1.4726563 -0.296875,0.6328125 -0.851563,0.9765625 -0.550781,0.34375 -1.265625,0.34375 -0.707031,0 -1.261719,-0.33984375 -0.554687,-0.33984375 -0.859375,-0.96874995 -0.304687,-0.6328125 -0.308593,-1.4531251 v -0.28125 q 0,-0.8398437 0.300781,-1.4765624 0.304687,-0.640625 0.855469,-0.9804688 0.554687,-0.34375 1.265625,-0.34375 0.710937,0 1.261718,0.34375 0.554688,0.3398438 0.855469,0.9804688 0.304688,0.6367187 0.304688,1.4726562 z m -1.1875,-0.2578125 q 0,-0.8945312 -0.320313,-1.3593749 -0.320312,-0.4648438 -0.914062,-0.4648438 -0.589844,0 -0.910157,0.4609375 -0.320312,0.4570312 -0.324218,1.34375 v 0.2773437 q 0,0.8710938 0.320312,1.3515626 0.320313,0.4804687 0.921875,0.4804687 0.589844,0 0.90625,-0.4609375 0.316406,-0.4648437 0.320313,-1.3515625 z"/>
      <path id="path873" style="font-weight:bold;font-size:8px;font-family:Roboto, sans-serif;letter-spacing:1px;fill:#222222" d="m 21.722656,-1.8945312 q -0.06641,0.9179687 -0.679687,1.44531245 -0.609375,0.52734375 -1.609375,0.52734375 -1.09375,0 -1.722657,-0.734375 -0.625,-0.7382812 -0.625,-2.0234375 v -0.3476563 q 0,-0.8203125 0.289063,-1.4453124 0.289062,-0.625 0.824219,-0.9570313 0.539062,-0.3359375 1.25,-0.3359375 0.984375,0 1.585937,0.5273438 0.601563,0.5273437 0.695313,1.4804687 h -1.171875 q -0.04297,-0.5507812 -0.308594,-0.796875 -0.261719,-0.25 -0.800781,-0.25 -0.585938,0 -0.878907,0.421875 -0.289062,0.4179687 -0.296875,1.3007812 v 0.4296875 q 0,0.9218751 0.277344,1.3476563 0.28125,0.42578125 0.882813,0.42578125 0.542968,0 0.808593,-0.24609375 0.269532,-0.25 0.308594,-0.7695312 z"/>
      <path id="path875" style="font-weight:bold;font-size:8px;font-family:Roboto, sans-serif;letter-spacing:1px;fill:#222222" d="M 27.664062,-4.7382812 H 25.921875 V 0 H 24.75 V -4.7382812 H 23.03125 V -5.6875 h 4.632812 z"/>
    </g>
  </g>
  <g transform="translate(57,313)" id="g566">
    <g transform="translate(2,5)" id="g562"/>
    <g class="input-label" style="font-weight:bold;font-size:8px;font-family:Roboto, sans-serif;letter-spacing:1px;fill:#222222" id="text564" transform="translate(0,40)" aria-label="RESET">
      <path id="path856" style="font-weight:bold;font-size:8px;font-family:Roboto, sans-serif;letter-spacing:1px;fill:#222222" d="M 2.6132813,-2.0820313 H 1.6796875 V 0 h -1.171875 v -5.6875 h 2.1132813 q 1.0078125,0 1.5546874,0.4492188 0.546875,0.4492187 0.546875,1.2695312 0,0.5820312 -0.2539062,0.9726562 -0.25,0.3867188 -0.7617187,0.6171875 L 4.9375,-0.0546875 V 0 H 3.6796875 Z M 1.6796875,-3.03125 H 2.625 q 0.4414063,0 0.6835938,-0.2226563 0.2421875,-0.2265625 0.2421875,-0.6210937 0,-0.4023437 -0.2304688,-0.6328125 Q 3.09375,-4.7382812 2.6210938,-4.7382812 H 1.6796875 Z"/>
      <path id="path858" style="font-weight:bold;font-size:8px;font-family:Roboto, sans-serif;letter-spacing:1px;fill:#222222" d="M 10.039063,-2.4648438 H 7.7890625 v 1.52343755 H 10.429688 V 0 H 6.6171875 v -5.6875 h 3.8046875 v 0.9492188 H 7.7890625 v 1.3554687 h 2.2500005 z"/>
      <path id="path860" style="font-weight:bold;font-size:8px;font-family:Roboto, sans-serif;letter-spacing:1px;fill:#222222" d="m 15.066406,-1.4921875 q 0,-0.3320312 -0.234375,-0.5078125 -0.234375,-0.1796875 -0.84375,-0.375 -0.609375,-0.1992188 -0.964843,-0.390625 -0.96875,-0.5234375 -0.96875,-1.4101562 0,-0.4609375 0.257812,-0.8203125 0.261719,-0.3632813 0.746094,-0.5664063 0.488281,-0.203125 1.09375,-0.203125 0.609375,0 1.085937,0.2226563 0.476563,0.21875 0.738282,0.6210937 0.265624,0.4023438 0.265624,0.9140625 h -1.171874 q 0,-0.390625 -0.246094,-0.6054687 -0.246094,-0.21875 -0.691406,-0.21875 -0.429688,0 -0.667969,0.1835937 -0.238281,0.1796875 -0.238281,0.4765625 0,0.2773437 0.277343,0.4648437 0.28125,0.1875 0.824219,0.3515625 1,0.3007813 1.457031,0.7460938 0.457031,0.4453125 0.457031,1.109375 0,0.73828125 -0.558593,1.16015625 Q 15.125,0.078125 14.179688,0.078125 q -0.65625,0 -1.195313,-0.23828125 -0.539062,-0.2421875 -0.824219,-0.66015625 -0.28125,-0.4179687 -0.28125,-0.96875 h 1.175782 q 0,0.94140625 1.125,0.94140625 0.417968,0 0.652343,-0.16796875 0.234375,-0.171875 0.234375,-0.4765625 z"/>
      <path id="path862" style="font-weight:bold;font-size:8px;font-family:Roboto, sans-serif;letter-spacing:1px;fill:#222222" d="m 21.460937,-2.4648438 h -2.25 v 1.52343755 h 2.640625 V 0 h -3.8125 v -5.6875 h 3.804688 v 0.9492188 h -2.632813 v 1.3554687 h 2.25 z"/>
      <path id="path864" style="font-weight:bold;font-size:8px;font-family:Roboto, sans-serif;letter-spacing:1px;fill:#222222" d="M 27.898437,-4.7382812 H 26.15625 V 0 h -1.171875 v -4.7382812 h -1.71875 V -5.6875 h 4.632812 z"/>
    </g>
  </g>
  <g transform="translate(97,313)" id="g572">
    <g transform="translate(0,5)" id="g568"/>
    <g class="input-label" style="font-weight:bold;font-size:8px;font-family:Roboto, sans-serif;letter-spacing:1px;fill:#222222" id="text570" transform="translate(5,40)" aria-label="SM">
      <path id="path851" style="font-weight:bold;font-size:8px;font-family:Roboto, sans-serif;letter-spacing:1px;fill:#222222" d="m 3.4570313,-1.4921875 q 0,-0.3320312 -0.234375,-0.5078125 -0.234375,-0.1796875 -0.84375,-0.375 -0.6093751,-0.1992188 -0.9648438,-0.390625 -0.96875,-0.5234375 -0.96875,-1.4101562 0,-0.4609375 0.2578125,-0.8203125 Q 0.96484375,-5.359375 1.4492187,-5.5625 1.9375,-5.765625 2.5429688,-5.765625 q 0.609375,0 1.0859375,0.2226563 0.4765624,0.21875 0.7382812,0.6210937 0.265625,0.4023438 0.265625,0.9140625 h -1.171875 q 0,-0.390625 -0.2460937,-0.6054687 -0.2460938,-0.21875 -0.6914063,-0.21875 -0.4296875,0 -0.6679688,0.1835937 -0.2382812,0.1796875 -0.2382812,0.4765625 0,0.2773437 0.2773437,0.4648437 0.2812501,0.1875 0.8242188,0.3515625 1,0.3007813 1.4570312,0.7460938 0.4570313,0.4453125 0.4570313,1.109375 0,0.73828125 -0.5585938,1.16015625 Q 3.515625,0.078125 2.5703125,0.078125 q -0.65625,0 -1.1953125,-0.23828125 -0.5390625,-0.2421875 -0.82421875,-0.66015625 -0.28125,-0.4179687 -0.28125,-0.96875 H 1.4453125 q 0,0.94140625 1.125,0.94140625 0.4179688,0 0.6523438,-0.16796875 0.234375,-0.171875 0.234375,-0.4765625 z"/>
      <path id="path853" style="font-weight:bold;font-size:8px;font-family:Roboto, sans-serif;letter-spacing:1px;fill:#222222" d="m 7.9609375,-5.6875 1.4609375,4.125 1.453125,-4.125 h 1.539063 V 0 H 11.238281 V -1.5546875 L 11.355469,-4.2382812 9.8203125,0 H 9.015625 l -1.53125,-4.234375 0.1171875,2.6796875 V 0 h -1.171875 v -5.6875 z"/>
    </g>
  </g>
</svg>
