<?xml version="1.0" encoding="UTF-8" standalone="no"?>
<svg xmlns:dc="http://purl.org/dc/elements/1.1/" xmlns:cc="http://creativecommons.org/ns#" xmlns:rdf="http://www.w3.org/1999/02/22-rdf-syntax-ns#" xmlns:svg="http://www.w3.org/2000/svg" xmlns="http://www.w3.org/2000/svg" xmlns:sodipodi="http://sodipodi.sourceforge.net/DTD/sodipodi-0.dtd" xmlns:inkscape="http://www.inkscape.org/namespaces/inkscape" inkscape:version="1.0 (4035a4f, 2020-05-01)" sodipodi:docname="svg_render_EightHP-pp.svg" id="svg27810" viewBox="0 0 120 380" height="380" width="120" version="1.1">
  <metadata id="metadata27816">
    <rdf:RDF>
      <cc:Work rdf:about="">
        <dc:format>image/svg+xml</dc:format>
        <dc:type rdf:resource="http://purl.org/dc/dcmitype/StillImage"/>
      </cc:Work>
    </rdf:RDF>
  </metadata>
  <defs id="defs27814"/>
  <sodipodi:namedview inkscape:current-layer="svg27810" inkscape:window-maximized="0" inkscape:window-y="23" inkscape:window-x="0" inkscape:cy="190" inkscape:cx="60" inkscape:zoom="1.7605263" showgrid="false" id="namedview27812" inkscape:window-height="480" inkscape:window-width="689" inkscape:pageshadow="2" inkscape:pageopacity="0" guidetolerance="10" gridtolerance="10" objecttolerance="10" borderopacity="1" bordercolor="#666666" pagecolor="#ffffff"/>
  
  <path class="module-background background-fill" d="M 0,0 H 120 V 380 H 0 Z" style="fill:#dddddd" id="rect27794"/>
  <path class="module-border-inner" d="M 1,1 H 119 V 379 H 1 V 1" style="fill:none;stroke:#e4e4e4;stroke-width:0.5" id="polyline27796"/>
  <path class="module-border-middle" d="m 0.5,0.5 h 119 v 379 H 0.5 V 0.5" style="fill:none;stroke:#ebebeb;stroke-width:0.8" id="polyline27798"/>
  <path class="module-border-outer" d="M 0,0 H 120 V 380 H 0 V 0" style="fill:none;stroke:#f2f2f2;stroke-width:1" id="polyline27800"/>
  <g class="title" style="font-weight:normal;font-size:16px;font-family:Comfortaa, sans-serif;letter-spacing:4px;text-anchor:middle;fill:#333333" id="text27802" transform="translate(60.0 19)" aria-label="8HP8HP">
    <path id="path27838" style="font-weight:normal;font-size:16px;font-family:Comfortaa, sans-serif;letter-spacing:4px;text-anchor:middle;fill:#333333" d="m -36.20525,-7.008 q 0.88,0.464 1.392,1.312 0.512,0.832 0.512,1.888 0,1.088 -0.496,1.968 -0.48,0.88 -1.344,1.392 -0.848,0.512 -1.888,0.512 -1.056,0 -1.92,-0.496 -0.848,-0.512 -1.344,-1.376 -0.48,-0.88 -0.48,-1.952 0,-1.072 0.512,-1.92 0.528,-0.864 1.408,-1.328 -0.592,-0.416 -0.928,-1.056 -0.336,-0.656 -0.336,-1.44 0,-0.848 0.4,-1.536 0.416,-0.704 1.12,-1.088 0.72,-0.4 1.6,-0.4 0.864,0 1.552,0.4 0.704,0.384 1.088,1.072 0.4,0.672 0.4,1.52 0,0.784 -0.336,1.456 -0.336,0.656 -0.912,1.072 z m -3.728,-2.48 q 0,0.832 0.544,1.408 0.544,0.56 1.36,0.56 0.816,0 1.344,-0.576 0.544,-0.592 0.544,-1.456 0,-0.784 -0.544,-1.312 -0.544,-0.528 -1.344,-0.528 -0.816,0 -1.36,0.544 -0.544,0.544 -0.544,1.36 z m 4.384,5.696 q 0,-0.72 -0.336,-1.296 -0.32,-0.576 -0.896,-0.912 -0.56,-0.336 -1.248,-0.336 -0.704,0 -1.28,0.352 -0.576,0.336 -0.896,0.928 -0.32,0.592 -0.32,1.328 0,0.736 0.32,1.36 0.336,0.608 0.896,0.96 0.576,0.352 1.28,0.352 0.704,0 1.264,-0.352 0.576,-0.368 0.896,-0.992 0.32,-0.64 0.32,-1.392 z"/>
    <path id="path27840" style="font-weight:normal;font-size:16px;font-family:Comfortaa, sans-serif;letter-spacing:4px;text-anchor:middle;fill:#333333" d="m -27.05725,0 q -0.256,0 -0.448,-0.176 -0.176,-0.192 -0.176,-0.448 v -11.248 q 0,-0.272 0.176,-0.448 0.192,-0.176 0.448,-0.176 0.272,0 0.448,0.176 0.176,0.176 0.176,0.448 v 4.992 h 7.808 v -4.992 q 0,-0.272 0.176,-0.448 0.192,-0.176 0.448,-0.176 0.272,0 0.448,0.176 0.176,0.176 0.176,0.448 v 11.248 q 0,0.256 -0.176,0.448 -0.176,0.176 -0.448,0.176 -0.256,0 -0.448,-0.176 -0.176,-0.192 -0.176,-0.448 V -5.76 h -7.808 v 5.136 q 0,0.256 -0.176,0.448 -0.176,0.176 -0.448,0.176 z"/>
    <path id="path27842" style="font-weight:normal;font-size:16px;font-family:Comfortaa, sans-serif;letter-spacing:4px;text-anchor:middle;fill:#333333" d="m -9.55725,0 q -0.272,0 -0.448,-0.176 -0.176,-0.176 -0.176,-0.448 v -11.248 q 0,-0.272 0.176,-0.448 0.176,-0.176 0.448,-0.176 h 3.2 q 1.168,0 2.08,0.528 0.928,0.512 1.44,1.44 0.512,0.912 0.512,2.096 0,1.168 -0.512,2.08 -0.512,0.912 -1.44,1.424 -0.912,0.512 -2.08,0.512 h -2.576 v 3.792 q 0,0.272 -0.176,0.448 Q -9.28525,0 -9.55725,0 Z m 3.2,-5.616 q 0.816,0 1.456,-0.352 0.64,-0.368 0.992,-1.008 0.368,-0.64 0.368,-1.456 0,-0.832 -0.368,-1.472 -0.352,-0.656 -0.992,-1.024 -0.64,-0.368 -1.456,-0.368 h -2.576 v 5.68 z"/>
    <path id="path27844" style="font-weight:normal;font-size:16px;font-family:Comfortaa, sans-serif;letter-spacing:4px;text-anchor:middle;fill:#333333" d="m 8.576,-7.008 q 0.88,0.464 1.392,1.312 0.512,0.832 0.512,1.888 0,1.088 -0.496,1.968 -0.48,0.88 -1.344,1.392 -0.848,0.512 -1.888,0.512 -1.056,0 -1.92,-0.496 -0.848,-0.512 -1.344,-1.376 -0.48,-0.88 -0.48,-1.952 0,-1.072 0.512,-1.92 Q 4.048,-6.544 4.928,-7.008 4.336,-7.424 4,-8.064 3.664,-8.72 3.664,-9.504 q 0,-0.848 0.4,-1.536 0.416,-0.704 1.12,-1.088 0.72,-0.4 1.6,-0.4 0.864,0 1.552,0.4 0.704,0.384 1.088,1.072 0.4,0.672 0.4,1.52 0,0.784 -0.336,1.456 -0.336,0.656 -0.912,1.072 z m -3.728,-2.48 q 0,0.832 0.544,1.408 0.544,0.56 1.36,0.56 0.816,0 1.344,-0.576 0.544,-0.592 0.544,-1.456 0,-0.784 -0.544,-1.312 -0.544,-0.528 -1.344,-0.528 -0.816,0 -1.36,0.544 -0.544,0.544 -0.544,1.36 z m 4.384,5.696 q 0,-0.72 -0.336,-1.296 Q 8.576,-5.664 8,-6 7.44,-6.336 6.752,-6.336 q -0.704,0 -1.28,0.352 -0.576,0.336 -0.896,0.928 -0.32,0.592 -0.32,1.328 0,0.736 0.32,1.36 0.336,0.608 0.896,0.96 0.576,0.352 1.28,0.352 0.704,0 1.264,-0.352 0.576,-0.368 0.896,-0.992 0.32,-0.64 0.32,-1.392 z"/>
    <path id="path27846" style="font-weight:normal;font-size:16px;font-family:Comfortaa, sans-serif;letter-spacing:4px;text-anchor:middle;fill:#333333" d="M 17.724,0 Q 17.468,0 17.276,-0.176 17.1,-0.368 17.1,-0.624 v -11.248 q 0,-0.272 0.176,-0.448 0.192,-0.176 0.448,-0.176 0.272,0 0.448,0.176 0.176,0.176 0.176,0.448 v 4.992 h 7.808 v -4.992 q 0,-0.272 0.176,-0.448 0.192,-0.176 0.448,-0.176 0.272,0 0.448,0.176 0.176,0.176 0.176,0.448 v 11.248 q 0,0.256 -0.176,0.448 Q 27.052,0 26.78,0 26.524,0 26.332,-0.176 26.156,-0.368 26.156,-0.624 V -5.76 h -7.808 v 5.136 q 0,0.256 -0.176,0.448 Q 17.996,0 17.724,0 Z"/>
    <path id="path27848" style="font-weight:normal;font-size:16px;font-family:Comfortaa, sans-serif;letter-spacing:4px;text-anchor:middle;fill:#333333" d="M 35.224,0 Q 34.952,0 34.776,-0.176 34.6,-0.352 34.6,-0.624 v -11.248 q 0,-0.272 0.176,-0.448 0.176,-0.176 0.448,-0.176 h 3.2 q 1.168,0 2.08,0.528 0.928,0.512 1.44,1.44 0.512,0.912 0.512,2.096 0,1.168 -0.512,2.08 -0.512,0.912 -1.44,1.424 -0.912,0.512 -2.08,0.512 h -2.576 v 3.792 q 0,0.272 -0.176,0.448 Q 35.496,0 35.224,0 Z m 3.2,-5.616 q 0.816,0 1.456,-0.352 0.64,-0.368 0.992,-1.008 0.368,-0.64 0.368,-1.456 0,-0.832 -0.368,-1.472 -0.352,-0.656 -0.992,-1.024 -0.64,-0.368 -1.456,-0.368 h -2.576 v 5.68 z"/>
  </g>
  <g class="brand" style="font-weight:bold;font-size:10.6667px;font-family:Audiowide, sans-serif;letter-spacing:2px;text-anchor:middle;fill:#333333" id="text27804" aria-label="BOGAUDIO">
    <path id="path27821" style="font-weight:bold;font-size:10.6667px;font-family:Audiowide, sans-serif;letter-spacing:2px;text-anchor:middle;fill:#333333" d="m 28.57284,372.35937 q 0,0.25 -0.08854,0.53646 -0.08333,0.28646 -0.281251,0.53125 -0.192709,0.24479 -0.50521,0.41146 Q 27.385336,374 26.932209,374 h -5.140641 q -0.145834,0 -0.270834,-0.0521 -0.125001,-0.0521 -0.218751,-0.14063 -0.08854,-0.0937 -0.140625,-0.21875 -0.05208,-0.125 -0.05208,-0.27083 v -6.10419 q 0,-0.14063 0.05208,-0.26563 0.05208,-0.125 0.140625,-0.21875 0.09375,-0.0937 0.218751,-0.14583 0.125,-0.0521 0.270834,-0.0521 h 4.531264 q 0.250001,0 0.53646,0.0885 0.28646,0.0885 0.531252,0.28646 0.250001,0.19271 0.41146,0.50521 0.166667,0.3125 0.166667,0.76562 v 0.25521 q 0,0.35938 -0.119792,0.77605 -0.119792,0.41146 -0.385418,0.78125 0.229167,0.14063 0.427085,0.33854 0.203125,0.19792 0.354167,0.45834 0.151043,0.26042 0.239585,0.58854 0.08854,0.32813 0.08854,0.72396 z m -1.354171,-0.26042 q 0,-0.26562 -0.08333,-0.47396 -0.08333,-0.21354 -0.234376,-0.36458 -0.151042,-0.15104 -0.364584,-0.22917 -0.213543,-0.0833 -0.479168,-0.0833 h -3.052093 v -1.36459 h 2.442716 q 0.265625,0 0.479168,-0.0781 0.213542,-0.0833 0.364584,-0.23437 0.151042,-0.15104 0.229168,-0.35938 0.08333,-0.21354 0.08333,-0.47917 v -0.25521 q 0,-0.29166 -0.281251,-0.29166 h -3.859387 v 4.76043 h 4.468764 q 0.03646,0 0.08854,-0.005 0.05208,-0.005 0.09375,-0.0312 0.04167,-0.026 0.07292,-0.0885 0.03125,-0.0625 0.03125,-0.17188 z"/>
    <path id="path27823" style="font-weight:bold;font-size:10.6667px;font-family:Audiowide, sans-serif;letter-spacing:2px;text-anchor:middle;fill:#333333" d="m 39.583285,370.97916 q 0,0.68229 -0.234376,1.25521 -0.234375,0.57292 -0.651043,0.98959 -0.416668,0.41666 -0.989587,0.65104 -0.56771,0.22917 -1.239587,0.22917 h -1.833339 q -0.671877,0 -1.244796,-0.22917 -0.572918,-0.23438 -0.989586,-0.65104 -0.416668,-0.41667 -0.656252,-0.98959 -0.234376,-0.57292 -0.234376,-1.25521 v -1.42709 q 0,-0.67709 0.234376,-1.25 0.239584,-0.57813 0.656252,-0.98959 0.416668,-0.41667 0.989586,-0.65104 0.572919,-0.23438 1.244796,-0.23438 h 1.833339 q 0.671877,0 1.239587,0.23438 0.572919,0.23437 0.989587,0.65104 0.416668,0.41146 0.651043,0.98959 0.234376,0.57291 0.234376,1.25 z m -1.354171,-1.42709 q 0,-0.40104 -0.130209,-0.72396 -0.125,-0.32813 -0.359376,-0.55729 -0.229167,-0.23438 -0.557293,-0.35938 -0.322918,-0.13021 -0.713544,-0.13021 h -1.833339 q -0.395835,0 -0.723961,0.13021 -0.322918,0.125 -0.557293,0.35938 -0.234376,0.22916 -0.364585,0.55729 -0.125,0.32292 -0.125,0.72396 v 1.42709 q 0,0.40104 0.125,0.72917 0.130209,0.32291 0.364585,0.55729 0.234375,0.22917 0.557293,0.35938 0.328126,0.125 0.723961,0.125 h 1.822922 q 0.395835,0 0.718752,-0.125 0.328126,-0.13021 0.562502,-0.35938 0.234376,-0.23438 0.359376,-0.55729 0.130209,-0.32813 0.130209,-0.72917 z"/>
    <path id="path27825" style="font-weight:bold;font-size:10.6667px;font-family:Audiowide, sans-serif;letter-spacing:2px;text-anchor:middle;fill:#333333" d="m 50.302063,373.31771 q 0,0.14583 -0.05208,0.27083 -0.05208,0.125 -0.145834,0.21875 -0.08854,0.0885 -0.213543,0.14063 Q 49.765603,374 49.619769,374 h -4.885432 q -0.1875,0 -0.406251,-0.0417 -0.213542,-0.0469 -0.427085,-0.14062 -0.208334,-0.0937 -0.401043,-0.23959 -0.192709,-0.15104 -0.343751,-0.35937 -0.145834,-0.21354 -0.234376,-0.48959 -0.08854,-0.28125 -0.08854,-0.63021 v -3.66668 q 0,-0.1875 0.04167,-0.40104 0.04687,-0.21875 0.140626,-0.42708 0.09375,-0.21355 0.244792,-0.40625 0.151042,-0.19271 0.359376,-0.33855 0.213543,-0.15104 0.489585,-0.23958 0.276043,-0.0885 0.625002,-0.0885 h 5.505226 v 1.35417 h -5.505226 q -0.265626,0 -0.406251,0.14062 -0.140626,0.14063 -0.140626,0.41667 v 3.65626 q 0,0.26042 0.140626,0.40625 0.145834,0.14063 0.406251,0.14063 h 4.213555 v -1.69792 h -3.604178 v -1.36459 h 4.276055 q 0.145834,0 0.270834,0.0573 0.125001,0.0521 0.213543,0.14584 0.09375,0.0937 0.145834,0.21875 0.05208,0.11979 0.05208,0.26041 z"/>
    <path id="path27827" style="font-weight:bold;font-size:10.6667px;font-family:Audiowide, sans-serif;letter-spacing:2px;text-anchor:middle;fill:#333333" d="M 61.052091,374 H 59.69792 v -1.83334 H 54.937488 V 374 h -1.354171 v -3.73439 q 0,-0.81771 0.281251,-1.50521 0.281251,-0.6875 0.781253,-1.1823 0.500001,-0.49479 1.182295,-0.77083 0.682294,-0.27604 1.489588,-0.27604 h 3.052093 q 0.140626,0 0.265626,0.0521 0.125,0.0521 0.218751,0.14583 0.09375,0.0937 0.145833,0.21875 0.05208,0.125 0.05208,0.26563 z m -6.114603,-3.18751 h 4.760432 v -2.92709 h -2.380216 q -0.0625,0 -0.265626,0.0208 -0.197917,0.0156 -0.463543,0.0885 -0.260417,0.0729 -0.552085,0.22396 -0.291667,0.15104 -0.53646,0.41667 -0.244792,0.26563 -0.406251,0.66667 -0.156251,0.39583 -0.156251,0.96354 z"/>
    <path id="path27829" style="font-weight:bold;font-size:10.6667px;font-family:Audiowide, sans-serif;letter-spacing:2px;text-anchor:middle;fill:#333333" d="m 71.937537,373.31771 q 0,0.14583 -0.05208,0.27083 -0.05208,0.125 -0.145833,0.21875 -0.09375,0.0885 -0.218751,0.14063 Q 71.395868,374 71.255243,374 H 68.20315 q -0.432293,0 -0.875003,-0.0937 -0.442709,-0.0937 -0.859377,-0.28646 -0.41146,-0.19792 -0.776045,-0.5 -0.364584,-0.30209 -0.640627,-0.71355 -0.270834,-0.41666 -0.427084,-0.94791 -0.156251,-0.53646 -0.156251,-1.19272 v -3.73438 h 1.354171 v 3.73438 q 0,0.57292 0.156251,0.96876 0.161459,0.39583 0.406251,0.66146 0.244792,0.26562 0.53646,0.41666 0.291668,0.15105 0.552085,0.22396 0.265626,0.0729 0.463543,0.0937 0.203126,0.0156 0.265626,0.0156 h 2.380216 v -6.1146 h 1.354171 z"/>
    <path id="path27831" style="font-weight:bold;font-size:10.6667px;font-family:Audiowide, sans-serif;letter-spacing:2px;text-anchor:middle;fill:#333333" d="m 82.968813,370.87499 q 0,0.68229 -0.239584,1.25521 -0.234376,0.57292 -0.651044,0.98959 -0.416668,0.41146 -0.989587,0.64583 Q 80.51568,374 79.843803,374 h -3.656262 q -0.145834,0 -0.270834,-0.0521 -0.125,-0.0521 -0.218751,-0.14063 -0.08854,-0.0937 -0.140625,-0.21875 -0.05208,-0.125 -0.05208,-0.27083 v -6.10419 q 0,-0.14063 0.05208,-0.26563 0.05208,-0.125 0.140625,-0.21875 0.09375,-0.0937 0.218751,-0.14583 0.125,-0.0521 0.270834,-0.0521 h 3.656262 q 0.671877,0 1.244795,0.23437 0.572919,0.23438 0.989587,0.65105 0.416668,0.41146 0.651044,0.98958 0.239584,0.57292 0.239584,1.25001 z m -1.354171,-1.21875 q 0,-0.39584 -0.130209,-0.72396 -0.125,-0.32813 -0.359376,-0.5573 -0.234376,-0.23437 -0.562502,-0.35937 -0.322918,-0.13021 -0.718752,-0.13021 h -2.984385 v 4.76043 h 2.984385 q 0.395834,0 0.718752,-0.125 0.328126,-0.13021 0.562502,-0.35938 0.234376,-0.23437 0.359376,-0.55729 0.130209,-0.32813 0.130209,-0.72917 z"/>
    <path id="path27833" style="font-weight:bold;font-size:10.6667px;font-family:Audiowide, sans-serif;letter-spacing:2px;text-anchor:middle;fill:#333333" d="m 87.671946,374 h -1.35417 v -7.46877 h 1.35417 z"/>
    <path id="path27835" style="font-weight:bold;font-size:10.6667px;font-family:Audiowide, sans-serif;letter-spacing:2px;text-anchor:middle;fill:#333333" d="m 99.104269,370.97916 q 0,0.68229 -0.234376,1.25521 -0.234376,0.57292 -0.651044,0.98959 -0.416668,0.41666 -0.989586,0.65104 -0.56771,0.22917 -1.239587,0.22917 h -1.83334 q -0.671877,0 -1.244795,-0.22917 -0.572919,-0.23438 -0.989587,-0.65104 -0.416668,-0.41667 -0.656252,-0.98959 -0.234375,-0.57292 -0.234375,-1.25521 v -1.42709 q 0,-0.67709 0.234375,-1.25 0.239584,-0.57813 0.656252,-0.98959 0.416668,-0.41667 0.989587,-0.65104 0.572918,-0.23438 1.244795,-0.23438 h 1.83334 q 0.671877,0 1.239587,0.23438 0.572918,0.23437 0.989586,0.65104 0.416668,0.41146 0.651044,0.98959 0.234376,0.57291 0.234376,1.25 z m -1.354171,-1.42709 q 0,-0.40104 -0.130209,-0.72396 -0.125,-0.32813 -0.359376,-0.55729 -0.229167,-0.23438 -0.557294,-0.35938 -0.322917,-0.13021 -0.713543,-0.13021 h -1.83334 q -0.395834,0 -0.72396,0.13021 -0.322918,0.125 -0.557294,0.35938 -0.234375,0.22916 -0.364584,0.55729 -0.125,0.32292 -0.125,0.72396 v 1.42709 q 0,0.40104 0.125,0.72917 0.130209,0.32291 0.364584,0.55729 0.234376,0.22917 0.557294,0.35938 0.328126,0.125 0.72396,0.125 h 1.822923 q 0.395834,0 0.718752,-0.125 0.328126,-0.13021 0.562502,-0.35938 0.234376,-0.23438 0.359376,-0.55729 0.130209,-0.32813 0.130209,-0.72917 z"/>
  </g>
  <path class="background-fill" d="m 44.5,369 h 3 v 3 h -3 z" style="fill:#dddddd" id="rect27806"/>
</svg>
