<?xml version="1.0" encoding="UTF-8" standalone="no"?>
<svg xmlns:dc="http://purl.org/dc/elements/1.1/" xmlns:cc="http://creativecommons.org/ns#" xmlns:rdf="http://www.w3.org/1999/02/22-rdf-syntax-ns#" xmlns:svg="http://www.w3.org/2000/svg" xmlns="http://www.w3.org/2000/svg" xmlns:sodipodi="http://sodipodi.sourceforge.net/DTD/sodipodi-0.dtd" xmlns:inkscape="http://www.inkscape.org/namespaces/inkscape" inkscape:version="1.0 (4035a4f, 2020-05-01)" sodipodi:docname="svg_render_EightFO-pp.svg" id="svg27090" viewBox="0 0 255 380" height="380" width="255" version="1.1">
  <metadata id="metadata27094">
    <rdf:RDF>
      <cc:Work rdf:about="">
        <dc:format>image/svg+xml</dc:format>
        <dc:type rdf:resource="http://purl.org/dc/dcmitype/StillImage"/>
      </cc:Work>
    </rdf:RDF>
  </metadata>
  <sodipodi:namedview inkscape:current-layer="svg27090" inkscape:window-maximized="0" inkscape:window-y="23" inkscape:window-x="0" inkscape:cy="190" inkscape:cx="127.5" inkscape:zoom="1.7605263" showgrid="false" id="namedview27092" inkscape:window-height="480" inkscape:window-width="689" inkscape:pageshadow="2" inkscape:pageopacity="0" guidetolerance="10" gridtolerance="10" objecttolerance="10" borderopacity="1" bordercolor="#666666" pagecolor="#ffffff"/>
  
  <defs id="defs26702">
    <symbol viewBox="0 0 70px 70px" id="waves-eightfo">
      <g id="g26662" transform="translate(20 35)">
        <polyline id="polyline26652" transform="rotate(-90) translate(11 0)" stroke-width="1" points="0,0 5,0"/>
        <polyline id="polyline26654" transform="rotate(-45) translate(11 0)" stroke-width="1" points="0,0 5,0"/>
        <polyline id="polyline26656" transform="rotate(0) translate(11 0)" stroke-width="1" points="0,0 5,0"/>
        <polyline id="polyline26658" transform="rotate(45) translate(11 0)" stroke-width="1" points="0,0 5,0"/>
        <polyline id="polyline26660" transform="rotate(90) translate(11 0)" stroke-width="1" points="0,0 5,0"/>
      </g>
      <g id="g26666" transform="translate(14 8)">
        <polyline id="polyline26664" fill="none" stroke-width="1" points="0,8 12,0 12,8"/>
      </g>
      <g id="g26670" transform="translate(33.5 13.5)">
        <polyline id="polyline26668" fill="none" stroke-width="1" points="0,8 0,0 12,8"/>
      </g>
      <g id="g26676" transform="translate(39 31)">
        <path id="path26672" fill="none" stroke="#333" stroke-width="1" d="M 0 4 A 2 3 0 0 1 6 4"/>
        <path id="path26674" fill="none" stroke="#333" stroke-width="1" d="M 6 4 A 2 3 0 0 0 12 4"/>
      </g>
      <g id="g26680" transform="translate(33.5 48.5)">
        <polyline id="polyline26678" fill="none" stroke-width="1" points="0,4 3,0 9,8 12,4"/>
      </g>
      <g id="g26684" transform="translate(14 54)">
        <polyline id="polyline26682" fill="none" stroke-width="1" points="0,4 0,0 6,0 6,8 12,8 12,4"/>
      </g>
    </symbol>
    <symbol viewBox="0 0 40px 40px" id="dial-phase-eightfo">
      <g id="g26699" transform="translate(20 20)">
        <g id="g26689" transform="rotate(-90) translate(10 0)">
          <polyline id="polyline26687" stroke-width="1" points="0,0 4,0"/>
        </g>
        <path id="path26691" transform="rotate(20)" fill="none" stroke="#333" stroke-linecap="round" stroke-width="0.7" d="M 0 -12.5 A 12.5 12.5 0 0 1 12.5 0"/>
        <path id="path26693" transform="rotate(43)" fill="none" stroke="#333" stroke-linecap="round" stroke-width="0.7" d="M 0 -12.5 A 12.5 12.5 0 0 1 12.5 0"/>
        <path id="path26695" transform="rotate(-20)" fill="none" stroke="#333" stroke-linecap="round" stroke-width="0.7" d="M 0 -12.5 A 12.5 12.5 0 0 0 -12.5 0"/>
        <path id="path26697" transform="rotate(-43)" fill="none" stroke="#333" stroke-linecap="round" stroke-width="0.7" d="M 0 -12.5 A 12.5 12.5 0 0 0 -12.5 0"/>
      </g>
    </symbol>
  </defs>
  <path class="module-background background-fill" d="M 0,0 H 255 V 380 H 0 Z" style="fill:#dddddd" id="rect26704"/>
  <path class="module-border-inner" d="M 1,1 H 254 V 379 H 1 V 1" style="fill:none;stroke:#e4e4e4;stroke-width:0.5" id="polyline26706"/>
  <path class="module-border-middle" d="m 0.5,0.5 h 254 v 379 H 0.5 V 0.5" style="fill:none;stroke:#ebebeb;stroke-width:0.8" id="polyline26708"/>
  <path class="module-border-outer" d="M 0,0 H 255 V 380 H 0 V 0" style="fill:none;stroke:#f2f2f2;stroke-width:1" id="polyline26710"/>
  <g class="title" style="font-weight:normal;font-size:16px;font-family:Comfortaa, sans-serif;letter-spacing:4px;text-anchor:middle;fill:#333333" id="text26712" transform="translate(127.5 19)" aria-label="8FO">
    <path id="path27718" style="font-weight:normal;font-size:16px;font-family:Comfortaa, sans-serif;letter-spacing:4px;text-anchor:middle;fill:#333333" d="m -14.549,-7.008 q 0.88,0.464 1.392,1.312 0.512,0.832 0.512,1.888 0,1.088 -0.496,1.968 -0.48,0.88 -1.344,1.392 -0.848,0.512 -1.888,0.512 -1.056,0 -1.92,-0.496 -0.848,-0.512 -1.344,-1.376 -0.48,-0.88 -0.48,-1.952 0,-1.072 0.512,-1.92 0.528,-0.864 1.408,-1.328 -0.592,-0.416 -0.928,-1.056 -0.336,-0.656 -0.336,-1.44 0,-0.848 0.4,-1.536 0.416,-0.704 1.12,-1.088 0.72,-0.4 1.6,-0.4 0.864,0 1.552,0.4 0.704,0.384 1.088,1.072 0.4,0.672 0.4,1.52 0,0.784 -0.336,1.456 -0.336,0.656 -0.912,1.072 z m -3.728,-2.48 q 0,0.832 0.544,1.408 0.544,0.56 1.36,0.56 0.816,0 1.344,-0.576 0.544,-0.592 0.544,-1.456 0,-0.784 -0.544,-1.312 -0.544,-0.528 -1.344,-0.528 -0.816,0 -1.36,0.544 -0.544,0.544 -0.544,1.36 z m 4.384,5.696 q 0,-0.72 -0.336,-1.296 -0.32,-0.576 -0.896,-0.912 -0.56,-0.336 -1.248,-0.336 -0.704,0 -1.28,0.352 -0.576,0.336 -0.896,0.928 -0.32,0.592 -0.32,1.328 0,0.736 0.32,1.36 0.336,0.608 0.896,0.96 0.576,0.352 1.28,0.352 0.704,0 1.264,-0.352 0.576,-0.368 0.896,-0.992 0.32,-0.64 0.32,-1.392 z"/>
    <path id="path27720" style="font-weight:normal;font-size:16px;font-family:Comfortaa, sans-serif;letter-spacing:4px;text-anchor:middle;fill:#333333" d="m -6.393,0 q -0.256,0 -0.448,-0.176 -0.176,-0.192 -0.176,-0.448 v -11.248 q 0,-0.272 0.176,-0.448 0.192,-0.176 0.448,-0.176 h 7.504 q 0.272,0 0.448,0.176 0.176,0.176 0.176,0.432 0,0.256 -0.176,0.432 -0.176,0.16 -0.448,0.16 h -6.88 v 4.416 h 5.008 q 0.272,0 0.448,0.176 0.176,0.16 0.176,0.432 0,0.256 -0.176,0.432 -0.176,0.176 -0.448,0.176 h -5.008 v 5.04 q 0,0.256 -0.176,0.448 Q -6.121,0 -6.393,0 Z"/>
    <path id="path27722" style="font-weight:normal;font-size:16px;font-family:Comfortaa, sans-serif;letter-spacing:4px;text-anchor:middle;fill:#333333" d="m 13.751,0.16 q -1.824,0 -3.28,-0.832 Q 9.015,-1.504 8.183,-2.96 7.367,-4.432 7.367,-6.256 q 0,-1.824 0.816,-3.28 0.832,-1.456 2.288,-2.288 1.456,-0.832 3.28,-0.832 1.808,0 3.264,0.832 1.472,0.832 2.288,2.288 0.832,1.456 0.832,3.28 0,1.824 -0.832,3.296 -0.816,1.456 -2.288,2.288 -1.456,0.832 -3.264,0.832 z m 0,-1.184 q 1.456,0 2.624,-0.688 1.184,-0.688 1.856,-1.872 0.672,-1.2 0.672,-2.672 0,-1.456 -0.672,-2.64 -0.672,-1.2 -1.856,-1.888 -1.168,-0.688 -2.624,-0.688 -1.472,0 -2.656,0.688 -1.168,0.688 -1.84,1.888 -0.672,1.184 -0.672,2.64 0,1.472 0.672,2.672 0.672,1.184 1.84,1.872 1.184,0.688 2.656,0.688 z"/>
  </g>
  <g class="brand" style="font-weight:bold;font-size:10.6667px;font-family:Audiowide, sans-serif;letter-spacing:2px;text-anchor:middle;fill:#333333" id="text26714" aria-label="BOGAUDIO">
    <path id="path27701" style="font-weight:bold;font-size:10.6667px;font-family:Audiowide, sans-serif;letter-spacing:2px;text-anchor:middle;fill:#333333" d="m 96.07284,372.35937 q 0,0.25 -0.08854,0.53646 -0.08333,0.28646 -0.281251,0.53125 -0.192709,0.24479 -0.50521,0.41146 Q 94.885336,374 94.432209,374 h -5.140641 q -0.145834,0 -0.270834,-0.0521 -0.125001,-0.0521 -0.218751,-0.14063 -0.08854,-0.0937 -0.140625,-0.21875 -0.05208,-0.125 -0.05208,-0.27083 v -6.10419 q 0,-0.14063 0.05208,-0.26563 0.05208,-0.125 0.140625,-0.21875 0.09375,-0.0937 0.218751,-0.14583 0.125,-0.0521 0.270834,-0.0521 h 4.531264 q 0.250001,0 0.53646,0.0885 0.28646,0.0885 0.531252,0.28646 0.250001,0.19271 0.41146,0.50521 0.166667,0.3125 0.166667,0.76562 v 0.25521 q 0,0.35938 -0.119792,0.77605 -0.119792,0.41146 -0.385418,0.78125 0.229167,0.14063 0.427085,0.33854 0.203125,0.19792 0.354167,0.45834 0.151043,0.26042 0.239585,0.58854 0.08854,0.32813 0.08854,0.72396 z m -1.354171,-0.26042 q 0,-0.26562 -0.08333,-0.47396 -0.08333,-0.21354 -0.234376,-0.36458 -0.151042,-0.15104 -0.364584,-0.22917 -0.213543,-0.0833 -0.479168,-0.0833 h -3.052093 v -1.36459 h 2.442716 q 0.265625,0 0.479168,-0.0781 0.213542,-0.0833 0.364584,-0.23437 0.151042,-0.15104 0.229168,-0.35938 0.08333,-0.21354 0.08333,-0.47917 v -0.25521 q 0,-0.29166 -0.281251,-0.29166 h -3.859387 v 4.76043 h 4.468764 q 0.03646,0 0.08854,-0.005 0.05208,-0.005 0.09375,-0.0312 0.04167,-0.026 0.07292,-0.0885 0.03125,-0.0625 0.03125,-0.17188 z"/>
    <path id="path27703" style="font-weight:bold;font-size:10.6667px;font-family:Audiowide, sans-serif;letter-spacing:2px;text-anchor:middle;fill:#333333" d="m 107.08329,370.97916 q 0,0.68229 -0.23438,1.25521 -0.23438,0.57292 -0.65104,0.98959 -0.41667,0.41666 -0.98959,0.65104 -0.56771,0.22917 -1.23959,0.22917 h -1.83334 q -0.67187,0 -1.24479,-0.22917 -0.57292,-0.23438 -0.989589,-0.65104 -0.416668,-0.41667 -0.656252,-0.98959 -0.234376,-0.57292 -0.234376,-1.25521 v -1.42709 q 0,-0.67709 0.234376,-1.25 0.239584,-0.57813 0.656252,-0.98959 0.416669,-0.41667 0.989589,-0.65104 0.57292,-0.23438 1.24479,-0.23438 h 1.83334 q 0.67188,0 1.23959,0.23438 0.57292,0.23437 0.98959,0.65104 0.41666,0.41146 0.65104,0.98959 0.23438,0.57291 0.23438,1.25 z m -1.35418,-1.42709 q 0,-0.40104 -0.1302,-0.72396 -0.12501,-0.32813 -0.35938,-0.55729 -0.22917,-0.23438 -0.55729,-0.35938 -0.32292,-0.13021 -0.71355,-0.13021 h -1.83334 q -0.39583,0 -0.72396,0.13021 -0.32292,0.125 -0.55729,0.35938 -0.23438,0.22916 -0.36459,0.55729 -0.125,0.32292 -0.125,0.72396 v 1.42709 q 0,0.40104 0.125,0.72917 0.13021,0.32291 0.36459,0.55729 0.23437,0.22917 0.55729,0.35938 0.32813,0.125 0.72396,0.125 h 1.82293 q 0.39583,0 0.71875,-0.125 0.32812,-0.13021 0.5625,-0.35938 0.23437,-0.23438 0.35938,-0.55729 0.1302,-0.32813 0.1302,-0.72917 z"/>
    <path id="path27705" style="font-weight:bold;font-size:10.6667px;font-family:Audiowide, sans-serif;letter-spacing:2px;text-anchor:middle;fill:#333333" d="m 117.80206,373.31771 q 0,0.14583 -0.0521,0.27083 -0.0521,0.125 -0.14583,0.21875 -0.0885,0.0885 -0.21355,0.14063 Q 117.2656,374 117.11977,374 h -4.88543 q -0.1875,0 -0.40625,-0.0417 -0.21355,-0.0469 -0.42709,-0.14062 -0.20833,-0.0937 -0.40104,-0.23959 -0.19271,-0.15104 -0.34375,-0.35937 -0.14584,-0.21354 -0.23438,-0.48959 -0.0885,-0.28125 -0.0885,-0.63021 v -3.66668 q 0,-0.1875 0.0417,-0.40104 0.0469,-0.21875 0.14062,-0.42708 0.0937,-0.21355 0.24479,-0.40625 0.15105,-0.19271 0.35938,-0.33855 0.21354,-0.15104 0.48959,-0.23958 0.27604,-0.0885 0.625,-0.0885 h 5.50522 v 1.35417 h -5.50522 q -0.26563,0 -0.40625,0.14062 -0.14063,0.14063 -0.14063,0.41667 v 3.65626 q 0,0.26042 0.14063,0.40625 0.14583,0.14063 0.40625,0.14063 h 4.21355 v -1.69792 h -3.60418 v -1.36459 h 4.27606 q 0.14583,0 0.27083,0.0573 0.125,0.0521 0.21355,0.14584 0.0937,0.0937 0.14583,0.21875 0.0521,0.11979 0.0521,0.26041 z"/>
    <path id="path27707" style="font-weight:bold;font-size:10.6667px;font-family:Audiowide, sans-serif;letter-spacing:2px;text-anchor:middle;fill:#333333" d="m 128.55209,374 h -1.35417 v -1.83334 h -4.76043 V 374 h -1.35417 v -3.73439 q 0,-0.81771 0.28125,-1.50521 0.28125,-0.6875 0.78125,-1.1823 0.5,-0.49479 1.1823,-0.77083 0.68229,-0.27604 1.48958,-0.27604 h 3.0521 q 0.14062,0 0.26562,0.0521 0.125,0.0521 0.21875,0.14583 0.0937,0.0937 0.14584,0.21875 0.0521,0.125 0.0521,0.26563 z m -6.1146,-3.18751 h 4.76043 v -2.92709 h -2.38022 q -0.0625,0 -0.26562,0.0208 -0.19792,0.0156 -0.46354,0.0885 -0.26042,0.0729 -0.55209,0.22396 -0.29167,0.15104 -0.53646,0.41667 -0.24479,0.26563 -0.40625,0.66667 -0.15625,0.39583 -0.15625,0.96354 z"/>
    <path id="path27709" style="font-weight:bold;font-size:10.6667px;font-family:Audiowide, sans-serif;letter-spacing:2px;text-anchor:middle;fill:#333333" d="m 139.43754,373.31771 q 0,0.14583 -0.0521,0.27083 -0.0521,0.125 -0.14583,0.21875 -0.0937,0.0885 -0.21875,0.14063 -0.125,0.0521 -0.26563,0.0521 h -3.05209 q -0.43229,0 -0.875,-0.0937 -0.44271,-0.0937 -0.85938,-0.28646 -0.41146,-0.19792 -0.77604,-0.5 -0.36459,-0.30209 -0.64063,-0.71355 -0.27084,-0.41666 -0.42709,-0.94791 -0.15625,-0.53646 -0.15625,-1.19272 v -3.73438 h 1.35417 v 3.73438 q 0,0.57292 0.15625,0.96876 0.16146,0.39583 0.40626,0.66146 0.24479,0.26562 0.53646,0.41666 0.29166,0.15105 0.55208,0.22396 0.26563,0.0729 0.46354,0.0937 0.20313,0.0156 0.26563,0.0156 h 2.38022 v -6.1146 h 1.35417 z"/>
    <path id="path27711" style="font-weight:bold;font-size:10.6667px;font-family:Audiowide, sans-serif;letter-spacing:2px;text-anchor:middle;fill:#333333" d="m 150.46881,370.87499 q 0,0.68229 -0.23958,1.25521 -0.23438,0.57292 -0.65105,0.98959 -0.41666,0.41146 -0.98958,0.64583 Q 148.01568,374 147.3438,374 h -3.65626 q -0.14583,0 -0.27083,-0.0521 -0.125,-0.0521 -0.21875,-0.14063 -0.0885,-0.0937 -0.14063,-0.21875 -0.0521,-0.125 -0.0521,-0.27083 v -6.10419 q 0,-0.14063 0.0521,-0.26563 0.0521,-0.125 0.14063,-0.21875 0.0937,-0.0937 0.21875,-0.14583 0.125,-0.0521 0.27083,-0.0521 h 3.65626 q 0.67188,0 1.2448,0.23437 0.57292,0.23438 0.98958,0.65105 0.41667,0.41146 0.65105,0.98958 0.23958,0.57292 0.23958,1.25001 z m -1.35417,-1.21875 q 0,-0.39584 -0.13021,-0.72396 -0.125,-0.32813 -0.35937,-0.5573 -0.23438,-0.23437 -0.5625,-0.35937 -0.32292,-0.13021 -0.71876,-0.13021 h -2.98438 v 4.76043 h 2.98438 q 0.39584,0 0.71876,-0.125 0.32812,-0.13021 0.5625,-0.35938 0.23437,-0.23437 0.35937,-0.55729 0.13021,-0.32813 0.13021,-0.72917 z"/>
    <path id="path27713" style="font-weight:bold;font-size:10.6667px;font-family:Audiowide, sans-serif;letter-spacing:2px;text-anchor:middle;fill:#333333" d="m 155.17195,374 h -1.35417 v -7.46877 h 1.35417 z"/>
    <path id="path27715" style="font-weight:bold;font-size:10.6667px;font-family:Audiowide, sans-serif;letter-spacing:2px;text-anchor:middle;fill:#333333" d="m 166.60427,370.97916 q 0,0.68229 -0.23438,1.25521 -0.23437,0.57292 -0.65104,0.98959 -0.41667,0.41666 -0.98959,0.65104 -0.56771,0.22917 -1.23958,0.22917 h -1.83334 q -0.67188,0 -1.2448,-0.22917 -0.57292,-0.23438 -0.98959,-0.65104 -0.41666,-0.41667 -0.65625,-0.98959 -0.23437,-0.57292 -0.23437,-1.25521 v -1.42709 q 0,-0.67709 0.23437,-1.25 0.23959,-0.57813 0.65625,-0.98959 0.41667,-0.41667 0.98959,-0.65104 0.57292,-0.23438 1.2448,-0.23438 h 1.83334 q 0.67187,0 1.23958,0.23438 0.57292,0.23437 0.98959,0.65104 0.41667,0.41146 0.65104,0.98959 0.23438,0.57291 0.23438,1.25 z m -1.35417,-1.42709 q 0,-0.40104 -0.13021,-0.72396 -0.125,-0.32813 -0.35938,-0.55729 -0.22916,-0.23438 -0.55729,-0.35938 -0.32292,-0.13021 -0.71354,-0.13021 h -1.83334 q -0.39584,0 -0.72396,0.13021 -0.32292,0.125 -0.5573,0.35938 -0.23437,0.22916 -0.36458,0.55729 -0.125,0.32292 -0.125,0.72396 v 1.42709 q 0,0.40104 0.125,0.72917 0.13021,0.32291 0.36458,0.55729 0.23438,0.22917 0.5573,0.35938 0.32812,0.125 0.72396,0.125 h 1.82292 q 0.39583,0 0.71875,-0.125 0.32813,-0.13021 0.5625,-0.35938 0.23438,-0.23438 0.35938,-0.55729 0.13021,-0.32813 0.13021,-0.72917 z"/>
  </g>
  <path class="background-fill" d="m 112,369 h 3 v 3 h -3 z" style="fill:#dddddd" id="rect26716"/>
  <g transform="translate(40,45)" id="g26720"/>
  <g transform="translate(74,79)" id="g26790">
    <g transform="rotate(134.92,-17,7.0555391)" id="g26728">
      <path d="M 0,0 H 5" style="stroke:#333333;stroke-width:1" transform="translate(3)" id="polyline26724"/>
      <g style="font-weight:bold;font-size:9.33333px;font-family:Roboto, sans-serif;fill:#333333" id="text26726" transform="rotate(-134.92,12.976305,-2.4763055)" aria-label="0.1">
        <path id="path27635" style="font-weight:bold;font-size:9.33333px;font-family:Roboto, sans-serif;fill:#333333" d="m 4.917316,-2.7434886 q 0,1.3763016 -0.5696612,2.10546798 -0.5696613,0.72916642 -1.6679682,0.72916642 -1.0846351,0 -1.6588536,-0.71549455 Q 0.44661443,-1.3398433 0.43294256,-2.6751293 V -3.896483 q 0,-1.3899735 0.57421854,-2.1100254 0.5787759,-0.7200518 1.6634109,-0.7200518 1.0846351,0 1.6588536,0.7154945 0.5742186,0.7109373 0.5878904,2.0462233 z M 3.6002592,-4.0833319 q 0,-0.8248696 -0.2278645,-1.1985673 -0.2233072,-0.3782551 -0.7018227,-0.3782551 -0.4648436,0 -0.6881508,0.3600259 -0.2187499,0.3554686 -0.2324218,1.1165361 v 1.6132807 q 0,0.8111976 0.2187499,1.2076819 0.2233072,0.39192691 0.7109373,0.39192691 0.4830727,0 0.6972654,-0.37825511 0.2141926,-0.3782551 0.2233072,-1.1575517 z"/>
        <path id="path27637" style="font-weight:bold;font-size:9.33333px;font-family:Roboto, sans-serif;fill:#333333" d="m 5.9335916,-0.6471352 q 0,-0.31445301 0.2096354,-0.5104165 0.2141926,-0.1959635 0.5332029,-0.1959635 0.3235676,0 0.533203,0.1959635 0.2141926,0.19596349 0.2141926,0.5104165 0,0.30989573 -0.2096353,0.50585921 -0.2096354,0.19140618 -0.5377603,0.19140618 -0.3235676,0 -0.5332029,-0.19140618 Q 5.9335916,-0.33723947 5.9335916,-0.6471352 Z"/>
        <path id="path27639" style="font-weight:bold;font-size:9.33333px;font-family:Roboto, sans-serif;fill:#333333" d="M 11.725907,0 H 10.40885 V -5.0768212 L 8.8365851,-4.5891911 V -5.6601543 L 11.584631,-6.644529 h 0.141276 z"/>
      </g>
    </g>
    <g transform="rotate(-171.49,-17,-1.26481)" id="g26734">
      <path d="M 0,0 H 5" style="stroke:#333333;stroke-width:1" transform="translate(3)" id="polyline26730"/>
      <g style="font-weight:bold;font-size:9.33333px;font-family:Roboto, sans-serif;fill:#333333" id="text26732" transform="rotate(171.49,12.369799,-1.6383991)" aria-label="0.5">
        <path id="path27643" style="font-weight:bold;font-size:9.33333px;font-family:Roboto, sans-serif;fill:#333333" d="m 4.917316,-2.7434886 q 0,1.3763016 -0.5696612,2.10546798 -0.5696613,0.72916642 -1.6679682,0.72916642 -1.0846351,0 -1.6588536,-0.71549455 Q 0.44661443,-1.3398433 0.43294256,-2.6751293 V -3.896483 q 0,-1.3899735 0.57421854,-2.1100254 0.5787759,-0.7200518 1.6634109,-0.7200518 1.0846351,0 1.6588536,0.7154945 0.5742186,0.7109373 0.5878904,2.0462233 z M 3.6002592,-4.0833319 q 0,-0.8248696 -0.2278645,-1.1985673 -0.2233072,-0.3782551 -0.7018227,-0.3782551 -0.4648436,0 -0.6881508,0.3600259 -0.2187499,0.3554686 -0.2324218,1.1165361 v 1.6132807 q 0,0.8111976 0.2187499,1.2076819 0.2233072,0.39192691 0.7109373,0.39192691 0.4830727,0 0.6972654,-0.37825511 0.2141926,-0.3782551 0.2233072,-1.1575517 z"/>
        <path id="path27645" style="font-weight:bold;font-size:9.33333px;font-family:Roboto, sans-serif;fill:#333333" d="m 5.9335916,-0.6471352 q 0,-0.31445301 0.2096354,-0.5104165 0.2141926,-0.1959635 0.5332029,-0.1959635 0.3235676,0 0.533203,0.1959635 0.2141926,0.19596349 0.2141926,0.5104165 0,0.30989573 -0.2096353,0.50585921 -0.2096354,0.19140618 -0.5377603,0.19140618 -0.3235676,0 -0.5332029,-0.19140618 Q 5.9335916,-0.33723947 5.9335916,-0.6471352 Z"/>
        <path id="path27647" style="font-weight:bold;font-size:9.33333px;font-family:Roboto, sans-serif;fill:#333333" d="m 8.7226529,-3.2630197 0.3828123,-3.3723947 h 3.7187488 v 1.0983069 h -2.638671 l -0.164062,1.4264318 q 0.4694,-0.2506509 0.998046,-0.2506509 0.947916,0 1.485677,0.5878904 0.53776,0.5878904 0.53776,1.6451817 0,0.6425779 -0.273438,1.15299442 -0.26888,0.5058592 -0.774739,0.78841119 -0.505859,0.27799469 -1.19401,0.27799469 -0.601562,0 -1.1165359,-0.24153637 Q 9.1692673,-0.39648424 8.8684861,-0.83854138 8.5722623,-1.2805985 8.5540331,-1.8457025 h 1.303385 q 0.041016,0.4147134 0.2871089,0.6471352 0.250651,0.22786451 0.651693,0.22786451 0.446614,0 0.688151,-0.31901031 0.241536,-0.3235676 0.241536,-0.911458 0,-0.565104 -0.277995,-0.8658851 -0.277994,-0.3007812 -0.788411,-0.3007812 -0.469401,0 -0.7610673,0.2460937 l -0.1276041,0.1184895 z"/>
      </g>
    </g>
    <g transform="rotate(-71.76,-17,-23.501846)" id="g26740">
      <path d="M 0,0 H 5" style="stroke:#333333;stroke-width:1" transform="translate(3)" id="polyline26736"/>
      <g style="font-weight:bold;font-size:9.33333px;font-family:Roboto, sans-serif;fill:#333333" id="text26738" transform="rotate(71.76,5.5806923,6.5447692)" aria-label="10">
        <path id="path27651" style="font-weight:bold;font-size:9.33333px;font-family:Roboto, sans-serif;fill:#333333" d="M 3.6503894,0 H 2.3333325 V -5.0768212 L 0.76106745,-4.5891911 V -5.6601543 L 3.5091134,-6.644529 h 0.141276 z"/>
        <path id="path27653" style="font-weight:bold;font-size:9.33333px;font-family:Roboto, sans-serif;fill:#333333" d="m 10.276689,-2.7434886 q 0,1.3763016 -0.5696611,2.10546798 -0.5696613,0.72916642 -1.6679682,0.72916642 -1.0846351,0 -1.6588536,-0.71549455 Q 5.8059875,-1.3398433 5.7923157,-2.6751293 V -3.896483 q 0,-1.3899735 0.5742185,-2.1100254 0.5787759,-0.7200518 1.6634109,-0.7200518 1.084635,0 1.6588536,0.7154945 0.5742183,0.7109373 0.5878903,2.0462233 z M 8.9596323,-4.0833319 q 0,-0.8248696 -0.2278645,-1.1985673 -0.2233072,-0.3782551 -0.7018227,-0.3782551 -0.4648436,0 -0.6881508,0.3600259 -0.2187499,0.3554686 -0.2324218,1.1165361 v 1.6132807 q 0,0.8111976 0.2187499,1.2076819 0.2233072,0.39192691 0.7109373,0.39192691 0.4830727,0 0.6972654,-0.37825511 0.2141926,-0.3782551 0.2233072,-1.1575517 z"/>
      </g>
    </g>
    <g transform="rotate(-124.62,-17,-8.921415)" id="g26746">
      <path d="M 0,0 H 5" style="stroke:#333333;stroke-width:1" transform="translate(3)" id="polyline26742"/>
      <g style="font-weight:bold;font-size:9.33333px;font-family:Roboto, sans-serif;letter-spacing:1px;fill:#333333" id="text26744" transform="rotate(124.62,11.081619,-0.70042177)" aria-label="0V">
        <path id="path27657" style="font-weight:bold;font-size:9.33333px;font-family:Roboto, sans-serif;letter-spacing:1px;fill:#333333" d="m 4.917316,-2.7434886 q 0,1.3763016 -0.5696612,2.10546798 -0.5696613,0.72916642 -1.6679682,0.72916642 -1.0846351,0 -1.6588536,-0.71549455 Q 0.44661443,-1.3398433 0.43294256,-2.6751293 V -3.896483 q 0,-1.3899735 0.57421854,-2.1100254 0.5787759,-0.7200518 1.6634109,-0.7200518 1.0846351,0 1.6588536,0.7154945 0.5742186,0.7109373 0.5878904,2.0462233 z M 3.6002592,-4.0833319 q 0,-0.8248696 -0.2278645,-1.1985673 -0.2233072,-0.3782551 -0.7018227,-0.3782551 -0.4648436,0 -0.6881508,0.3600259 -0.2187499,0.3554686 -0.2324218,1.1165361 v 1.6132807 q 0,0.8111976 0.2187499,1.2076819 0.2233072,0.39192691 0.7109373,0.39192691 0.4830727,0 0.6972654,-0.37825511 0.2141926,-0.3782551 0.2233072,-1.1575517 z"/>
        <path id="path27659" style="font-weight:bold;font-size:9.33333px;font-family:Roboto, sans-serif;letter-spacing:1px;fill:#333333" d="m 9.4036429,-1.6451817 1.5039061,-4.9902327 h 1.522135 L 10.119137,0 H 8.6927056 L 6.3912741,-6.6354144 h 1.5175776 z"/>
      </g>
    </g>
    <g transform="rotate(-18.17,-17,-106.31276)" id="g26752">
      <path d="M 0,0 H 5" style="stroke:#333333;stroke-width:1" transform="translate(3)" id="polyline26748"/>
      <g style="font-weight:bold;font-size:9.33333px;font-family:Roboto, sans-serif;fill:#333333" id="text26750" transform="rotate(18.17,-2.9439608,35.772151)" aria-label="50">
        <path id="path27663" style="font-weight:bold;font-size:9.33333px;font-family:Roboto, sans-serif;fill:#333333" d="m 0.6471352,-3.2630197 0.3828124,-3.3723947 h 3.7187487 v 1.0983069 h -2.638671 l -0.1640624,1.4264318 q 0.4694009,-0.2506509 0.9980465,-0.2506509 0.9479164,0 1.4856766,0.5878904 0.5377602,0.5878904 0.5377602,1.6451817 0,0.6425779 -0.2734374,1.15299442 -0.2688801,0.5058592 -0.7747393,0.78841119 -0.5058592,0.27799469 -1.19401,0.27799469 -0.6015623,0 -1.1165361,-0.24153637 Q 1.0937496,-0.39648424 0.79296848,-0.83854138 0.49674462,-1.2805985 0.47851546,-1.8457025 H 1.7819004 q 0.041016,0.4147134 0.2871093,0.6471352 0.250651,0.22786451 0.6516925,0.22786451 0.4466144,0 0.6881508,-0.31901031 0.2415364,-0.3235676 0.2415364,-0.911458 0,-0.565104 -0.2779947,-0.8658851 Q 3.0944,-3.3678374 2.5839835,-3.3678374 q -0.4694009,0 -0.7610675,0.2460937 l -0.1276041,0.1184895 z"/>
        <path id="path27665" style="font-weight:bold;font-size:9.33333px;font-family:Roboto, sans-serif;fill:#333333" d="m 10.276689,-2.7434886 q 0,1.3763016 -0.5696611,2.10546798 -0.5696613,0.72916642 -1.6679682,0.72916642 -1.0846351,0 -1.6588536,-0.71549455 Q 5.8059875,-1.3398433 5.7923157,-2.6751293 V -3.896483 q 0,-1.3899735 0.5742185,-2.1100254 0.5787759,-0.7200518 1.6634109,-0.7200518 1.084635,0 1.6588536,0.7154945 0.5742183,0.7109373 0.5878903,2.0462233 z M 8.9596323,-4.0833319 q 0,-0.8248696 -0.2278645,-1.1985673 -0.2233072,-0.3782551 -0.7018227,-0.3782551 -0.4648436,0 -0.6881508,0.3600259 -0.2187499,0.3554686 -0.2324218,1.1165361 v 1.6132807 q 0,0.8111976 0.2187499,1.2076819 0.2233072,0.39192691 0.7109373,0.39192691 0.4830727,0 0.6972654,-0.37825511 0.2141926,-0.3782551 0.2233072,-1.1575517 z"/>
      </g>
    </g>
    <g transform="rotate(27.98,-17,68.234008)" id="g26758">
      <path d="M 0,0 H 5" style="stroke:#333333;stroke-width:1" transform="translate(3)" id="polyline26754"/>
      <g style="font-weight:bold;font-size:9.33333px;font-family:Roboto, sans-serif;fill:#333333" id="text26756" transform="rotate(-27.98,15.024089,-25.832591)" aria-label="200">
        <path id="path27669" style="font-weight:bold;font-size:9.33333px;font-family:Roboto, sans-serif;fill:#333333" d="M 4.9993473,0 H 0.45117172 V -0.90234344 L 2.5976554,-3.1901031 q 0.4420571,-0.4830727 0.6516925,-0.8430987 0.2141926,-0.3600259 0.2141926,-0.6835935 0,-0.4420571 -0.2233072,-0.6927081 -0.2233072,-0.2552082 -0.6380206,-0.2552082 -0.4466145,0 -0.70638,0.3098957 -0.2552083,0.3053385 -0.2552083,0.8066404 H 0.31901031 q 0,-0.6061196 0.28710928,-1.1074215 0.29166656,-0.5013019 0.82031221,-0.7838539 0.5286457,-0.2871093 1.1985673,-0.2871093 1.0253903,0 1.5904943,0.4921873 0.5696612,0.4921874 0.5696612,1.3899735 0,0.4921873 -0.2552082,1.0026038 -0.2552083,0.5104165 -0.8749997,1.1894528 l -1.5084631,1.5904942 h 2.8528637 z"/>
        <path id="path27671" style="font-weight:bold;font-size:9.33333px;font-family:Roboto, sans-serif;fill:#333333" d="m 10.276689,-2.7434886 q 0,1.3763016 -0.5696611,2.10546798 -0.5696613,0.72916642 -1.6679682,0.72916642 -1.0846351,0 -1.6588536,-0.71549455 Q 5.8059875,-1.3398433 5.7923157,-2.6751293 V -3.896483 q 0,-1.3899735 0.5742185,-2.1100254 0.5787759,-0.7200518 1.6634109,-0.7200518 1.084635,0 1.6588536,0.7154945 0.5742183,0.7109373 0.5878903,2.0462233 z M 8.9596323,-4.0833319 q 0,-0.8248696 -0.2278645,-1.1985673 -0.2233072,-0.3782551 -0.7018227,-0.3782551 -0.4648436,0 -0.6881508,0.3600259 -0.2187499,0.3554686 -0.2324218,1.1165361 v 1.6132807 q 0,0.8111976 0.2187499,1.2076819 0.2233072,0.39192691 0.7109373,0.39192691 0.4830727,0 0.6972654,-0.37825511 0.2141926,-0.3782551 0.2233072,-1.1575517 z"/>
        <path id="path27673" style="font-weight:bold;font-size:9.33333px;font-family:Roboto, sans-serif;fill:#333333" d="m 15.636062,-2.7434886 q 0,1.3763016 -0.569661,2.10546798 -0.569661,0.72916642 -1.667968,0.72916642 -1.084635,0 -1.658854,-0.71549455 -0.574218,-0.71549455 -0.58789,-2.05078055 V -3.896483 q 0,-1.3899735 0.574218,-2.1100254 0.578776,-0.7200518 1.663411,-0.7200518 1.084635,0 1.658854,0.7154945 0.574218,0.7109373 0.58789,2.0462233 z m -1.317057,-1.3398433 q 0,-0.8248696 -0.227864,-1.1985673 -0.223307,-0.3782551 -0.701823,-0.3782551 -0.464843,0 -0.688151,0.3600259 -0.21875,0.3554686 -0.232421,1.1165361 v 1.6132807 q 0,0.8111976 0.21875,1.2076819 0.223307,0.39192691 0.710937,0.39192691 0.483073,0 0.697265,-0.37825511 0.214193,-0.3782551 0.223307,-1.1575517 z"/>
      </g>
    </g>
    <g transform="rotate(51.05,-17,35.601256)" id="g26764">
      <path d="M 0,0 H 5" style="stroke:#333333;stroke-width:1" transform="translate(3)" id="polyline26760"/>
      <g style="font-weight:bold;font-size:9.33333px;font-family:Roboto, sans-serif;fill:#333333" id="text26762" transform="rotate(-51.05,11.664835,-14.315149)" aria-label="400HZ">
        <path id="path27677" style="font-weight:bold;font-size:9.33333px;font-family:Roboto, sans-serif;fill:#333333" d="m 4.3476548,-2.497395 h 0.7519528 v 1.0618486 H 4.3476548 V 0 H 3.0305979 V -1.4355464 H 0.30989573 L 0.25065096,-2.2649732 3.0169261,-6.6354144 h 1.3307287 z m -2.7845043,0 h 1.4674474 v -2.3424471 l -0.086588,0.1503906 z"/>
        <path id="path27679" style="font-weight:bold;font-size:9.33333px;font-family:Roboto, sans-serif;fill:#333333" d="m 10.276689,-2.7434886 q 0,1.3763016 -0.5696611,2.10546798 -0.5696613,0.72916642 -1.6679682,0.72916642 -1.0846351,0 -1.6588536,-0.71549455 Q 5.8059875,-1.3398433 5.7923157,-2.6751293 V -3.896483 q 0,-1.3899735 0.5742185,-2.1100254 0.5787759,-0.7200518 1.6634109,-0.7200518 1.084635,0 1.6588536,0.7154945 0.5742183,0.7109373 0.5878903,2.0462233 z M 8.9596323,-4.0833319 q 0,-0.8248696 -0.2278645,-1.1985673 -0.2233072,-0.3782551 -0.7018227,-0.3782551 -0.4648436,0 -0.6881508,0.3600259 -0.2187499,0.3554686 -0.2324218,1.1165361 v 1.6132807 q 0,0.8111976 0.2187499,1.2076819 0.2233072,0.39192691 0.7109373,0.39192691 0.4830727,0 0.6972654,-0.37825511 0.2141926,-0.3782551 0.2233072,-1.1575517 z"/>
        <path id="path27681" style="font-weight:bold;font-size:9.33333px;font-family:Roboto, sans-serif;fill:#333333" d="m 15.636062,-2.7434886 q 0,1.3763016 -0.569661,2.10546798 -0.569661,0.72916642 -1.667968,0.72916642 -1.084635,0 -1.658854,-0.71549455 -0.574218,-0.71549455 -0.58789,-2.05078055 V -3.896483 q 0,-1.3899735 0.574218,-2.1100254 0.578776,-0.7200518 1.663411,-0.7200518 1.084635,0 1.658854,0.7154945 0.574218,0.7109373 0.58789,2.0462233 z m -1.317057,-1.3398433 q 0,-0.8248696 -0.227864,-1.1985673 -0.223307,-0.3782551 -0.701823,-0.3782551 -0.464843,0 -0.688151,0.3600259 -0.21875,0.3554686 -0.232421,1.1165361 v 1.6132807 q 0,0.8111976 0.21875,1.2076819 0.223307,0.39192691 0.710937,0.39192691 0.483073,0 0.697265,-0.37825511 0.214193,-0.3782551 0.223307,-1.1575517 z"/>
        <path id="path27683" style="font-weight:bold;font-size:9.33333px;font-family:Roboto, sans-serif;fill:#333333" d="M 22.070956,0 H 20.703769 V -2.843749 H 18.037754 V 0 h -1.367187 v -6.6354144 h 1.367187 v 2.6888012 h 2.666015 v -2.6888012 h 1.367187 z"/>
        <path id="path27685" style="font-weight:bold;font-size:9.33333px;font-family:Roboto, sans-serif;fill:#333333" d="m 24.71874,-1.0983069 h 3.345051 V 0 h -5.054034 v -0.80208306 l 3.281248,-4.72590984 h -3.276691 v -1.1074215 h 4.976561 v 0.7838539 z"/>
      </g>
    </g>
    <path d="M 0,0 H 3" style="stroke:#333333;stroke-width:0.7" transform="rotate(120,-18.5,10.68098)" id="polyline26766"/>
    <path d="M 0,0 H 3" style="stroke:#333333;stroke-width:0.7" transform="rotate(143.08,-18.5,6.1756554)" id="polyline26768"/>
    <path d="M 0,0 H 3" style="stroke:#333333;stroke-width:0.7" transform="rotate(166.15,-18.5,2.2469368)" id="polyline26770"/>
    <path d="M 0,0 H 3" style="stroke:#333333;stroke-width:0.7" transform="rotate(-147.69,-18.5,-5.3589942)" id="polyline26772"/>
    <path d="M 0,0 H 3" style="stroke:#333333;stroke-width:0.7" transform="rotate(-101.54,-18.5,-15.104369)" id="polyline26774"/>
    <path d="M 0,0 H 3" style="stroke:#333333;stroke-width:0.7" transform="rotate(-78.46,-18.5,-22.659008)" id="polyline26776"/>
    <path d="M 0,0 H 3" style="stroke:#333333;stroke-width:0.7" transform="rotate(-55.38,-18.5,-35.252255)" id="polyline26778"/>
    <path d="M 0,0 H 3" style="stroke:#333333;stroke-width:0.7" transform="rotate(-32.31,-18.5,-63.864596)" id="polyline26780"/>
    <path d="M 0,0 H 3" style="stroke:#333333;stroke-width:0.7" transform="rotate(-9.23,-18.5,-229.1828)" id="polyline26782"/>
    <path d="M 0,0 H 3" style="stroke:#333333;stroke-width:0.7" transform="rotate(13.85,-18.5,152.31848)" id="polyline26784"/>
    <path d="M 0,0 H 3" style="stroke:#333333;stroke-width:0.7" transform="rotate(36.92,-18.5,55.419219)" id="polyline26786"/>
    <path d="M 0,0 H 3" style="stroke:#333333;stroke-width:0.7" transform="rotate(60,-18.5,32.04294)" id="polyline26788"/>
  </g>
  <g style="font-weight:bold;font-size:8px;font-family:Roboto, sans-serif;letter-spacing:1px;fill:#333333" id="text26794" transform="translate(34 133)" aria-label="0V = C-3 = 2.04HZ">
    <path id="path27607" style="font-weight:bold;font-size:8px;font-family:Roboto, sans-serif;letter-spacing:1px;fill:#333333" d="m 4.2148437,-2.3515625 q 0,1.1796875 -0.4882812,1.8046875 -0.4882812,0.625 -1.4296875,0.625 -0.9296875,0 -1.421875,-0.61328125 Q 0.3828125,-1.1484375 0.37109375,-2.2929688 v -1.046875 q 0,-1.1914062 0.4921875,-1.8085937 Q 1.359375,-5.765625 2.2890625,-5.765625 q 0.9296875,0 1.421875,0.6132813 0.4921875,0.609375 0.5039062,1.7539062 z M 3.0859375,-3.5 q 0,-0.7070312 -0.1953125,-1.0273437 -0.1914062,-0.3242188 -0.6015625,-0.3242188 -0.3984375,0 -0.5898438,0.3085938 Q 1.5117187,-4.2382812 1.5,-3.5859375 v 1.3828125 q 0,0.6953125 0.1875,1.0351563 0.1914062,0.33593745 0.609375,0.33593745 0.4140625,0 0.5976563,-0.32421875 0.1835937,-0.3242187 0.1914062,-0.9921875 z"/>
    <path id="path27609" style="font-weight:bold;font-size:8px;font-family:Roboto, sans-serif;letter-spacing:1px;fill:#333333" d="M 8.203125,-1.4101562 9.4921875,-5.6875 H 10.796875 L 8.8164063,0 H 7.59375 L 5.6210937,-5.6875 H 6.921875 Z"/>
    <path id="path27611" style="font-weight:bold;font-size:8px;font-family:Roboto, sans-serif;letter-spacing:1px;fill:#333333" d="m 18.851562,-2.9140625 h -3.492187 v -0.921875 h 3.492187 z m 0,1.6914063 h -3.492187 v -0.9218751 h 3.492187 z"/>
    <path id="path27613" style="font-weight:bold;font-size:8px;font-family:Roboto, sans-serif;letter-spacing:1px;fill:#333333" d="M 28.378906,-1.8945312 Q 28.3125,-0.9765625 27.699219,-0.44921875 27.089844,0.078125 26.089844,0.078125 q -1.09375,0 -1.722657,-0.734375 -0.625,-0.7382812 -0.625,-2.0234375 v -0.3476563 q 0,-0.8203125 0.289063,-1.4453124 0.289062,-0.625 0.824219,-0.9570313 0.539062,-0.3359375 1.25,-0.3359375 0.984375,0 1.585937,0.5273438 0.601563,0.5273437 0.695313,1.4804687 h -1.171875 q -0.04297,-0.5507812 -0.308594,-0.796875 -0.261719,-0.25 -0.800781,-0.25 -0.585938,0 -0.878907,0.421875 -0.289062,0.4179687 -0.296875,1.3007812 v 0.4296875 q 0,0.9218751 0.277344,1.3476563 0.28125,0.42578125 0.882813,0.42578125 0.542968,0 0.808593,-0.24609375 0.269532,-0.25 0.308594,-0.7695312 z"/>
    <path id="path27615" style="font-weight:bold;font-size:8px;font-family:Roboto, sans-serif;letter-spacing:1px;fill:#333333" d="M 32.269531,-1.9804687 H 30.070312 V -2.890625 h 2.199219 z"/>
    <path id="path27617" style="font-weight:bold;font-size:8px;font-family:Roboto, sans-serif;letter-spacing:1px;fill:#333333" d="m 35.285156,-3.34375 h 0.601563 q 0.429687,0 0.636718,-0.2148438 0.207032,-0.2148437 0.207032,-0.5703124 0,-0.34375 -0.207032,-0.5351563 -0.203125,-0.1914062 -0.5625,-0.1914062 -0.324218,0 -0.542968,0.1796875 -0.21875,0.1757812 -0.21875,0.4609375 h -1.128907 q 0,-0.4453125 0.238282,-0.796875 0.242187,-0.3554688 0.671875,-0.5546875 0.433593,-0.1992188 0.953125,-0.1992188 0.902343,0 1.414062,0.4335938 0.511719,0.4296875 0.511719,1.1875 0,0.3906249 -0.238281,0.7187499 -0.238282,0.328125 -0.625,0.5039063 0.480468,0.171875 0.714843,0.515625 0.238282,0.34375 0.238282,0.8125 0,0.7578125 -0.554688,1.21484375 Q 36.84375,0.078125 35.933594,0.078125 q -0.851563,0 -1.394532,-0.44921875 Q 34,-0.8203125 34,-1.5585937 h 1.128906 q 0,0.3203125 0.238281,0.5234375 0.242188,0.20312495 0.59375,0.20312495 0.402344,0 0.628907,-0.21093745 0.230468,-0.2148438 0.230468,-0.5664063 0,-0.8515625 -0.9375,-0.8515625 h -0.597656 z"/>
    <path id="path27619" style="font-weight:bold;font-size:8px;font-family:Roboto, sans-serif;letter-spacing:1px;fill:#333333" d="M 46.367187,-2.9140625 H 42.875 v -0.921875 h 3.492187 z m 0,1.6914063 H 42.875 v -0.9218751 h 3.492187 z"/>
    <path id="path27621" style="font-weight:bold;font-size:8px;font-family:Roboto, sans-serif;letter-spacing:1px;fill:#333333" d="m 55.207031,0 h -3.898437 v -0.7734375 l 1.839843,-1.9609375 q 0.378907,-0.4140625 0.558594,-0.7226563 0.183594,-0.3085937 0.183594,-0.5859374 0,-0.3789063 -0.191406,-0.59375 -0.191407,-0.21875 -0.546875,-0.21875 -0.382813,0 -0.605469,0.265625 -0.21875,0.2617187 -0.21875,0.6914062 h -1.132813 q 0,-0.5195312 0.246094,-0.9492187 0.25,-0.4296875 0.703125,-0.671875 0.453125,-0.2460938 1.027344,-0.2460938 0.878906,0 1.363281,0.421875 0.488281,0.421875 0.488281,1.1914063 0,0.4218749 -0.21875,0.8593749 -0.21875,0.4375 -0.75,1.0195313 l -1.292968,1.36328125 h 2.445312 z"/>
    <path id="path27623" style="font-weight:bold;font-size:8px;font-family:Roboto, sans-serif;letter-spacing:1px;fill:#333333" d="m 57.007812,-0.5546875 q 0,-0.26953125 0.179688,-0.4375 0.183594,-0.1679687 0.457031,-0.1679687 0.277344,0 0.457031,0.1679687 0.183594,0.16796875 0.183594,0.4375 0,0.265625 -0.179687,0.43359375 -0.179688,0.1640625 -0.460938,0.1640625 -0.277344,0 -0.457031,-0.1640625 -0.179688,-0.16796875 -0.179688,-0.43359375 z"/>
    <path id="path27625" style="font-weight:bold;font-size:8px;font-family:Roboto, sans-serif;letter-spacing:1px;fill:#333333" d="m 64.058594,-2.3515625 q 0,1.1796875 -0.488282,1.8046875 -0.488281,0.625 -1.429687,0.625 -0.929688,0 -1.421875,-0.61328125 -0.492188,-0.61328125 -0.503906,-1.75781255 v -1.046875 q 0,-1.1914062 0.492187,-1.8085937 0.496094,-0.6171875 1.425781,-0.6171875 0.929688,0 1.421875,0.6132813 0.492188,0.609375 0.503907,1.7539062 z M 62.929687,-3.5 q 0,-0.7070312 -0.195312,-1.0273437 -0.191406,-0.3242188 -0.601563,-0.3242188 -0.398437,0 -0.589843,0.3085938 -0.1875,0.3046875 -0.199219,0.9570312 v 1.3828125 q 0,0.6953125 0.1875,1.0351563 0.191406,0.33593745 0.609375,0.33593745 0.414062,0 0.597656,-0.32421875 0.183594,-0.3242187 0.191406,-0.9921875 z"/>
    <path id="path27627" style="font-weight:bold;font-size:8px;font-family:Roboto, sans-serif;letter-spacing:1px;fill:#333333" d="m 69.164062,-2.140625 h 0.644532 v 0.9101563 H 69.164062 V 0 H 68.035156 V -1.2304687 H 65.703125 L 65.652344,-1.9414062 68.023437,-5.6875 h 1.140625 z m -2.386718,0 h 1.257812 v -2.0078125 l -0.07422,0.1289063 z"/>
    <path id="path27629" style="font-weight:bold;font-size:8px;font-family:Roboto, sans-serif;letter-spacing:1px;fill:#333333" d="M 76.167969,0 H 74.996094 V -2.4375 H 72.710937 V 0 h -1.171875 v -5.6875 h 1.171875 v 2.3046875 h 2.285157 V -5.6875 h 1.171875 z"/>
    <path id="path27631" style="font-weight:bold;font-size:8px;font-family:Roboto, sans-serif;letter-spacing:1px;fill:#333333" d="m 79.4375,-0.94140625 h 2.867187 V 0 h -4.332031 v -0.6875 l 2.8125,-4.0507812 H 77.976562 V -5.6875 h 4.265625 v 0.671875 z"/>
  </g>
  <g style="font-weight:bold;font-size:8px;font-family:Roboto, sans-serif;letter-spacing:2px;fill:#333333" id="text26796" aria-label="SLOW">
    <path id="path27598" style="font-weight:bold;font-size:8px;font-family:Roboto, sans-serif;letter-spacing:2px;fill:#333333" d="m 90.457031,339.60782 q 0,-0.33203 -0.234375,-0.50781 -0.234375,-0.17969 -0.84375,-0.375 -0.609375,-0.19922 -0.964844,-0.39063 -0.96875,-0.52344 -0.96875,-1.41016 0,-0.46093 0.257813,-0.82031 0.261719,-0.36328 0.746094,-0.5664 0.488281,-0.20313 1.09375,-0.20313 0.609375,0 1.085937,0.22266 0.476563,0.21875 0.738281,0.62109 0.265625,0.40234 0.265625,0.91406 h -1.171875 q 0,-0.39062 -0.246093,-0.60547 -0.246094,-0.21875 -0.691407,-0.21875 -0.429687,0 -0.667968,0.1836 -0.238282,0.17969 -0.238282,0.47656 0,0.27734 0.277344,0.46484 0.28125,0.1875 0.824219,0.35157 1,0.30078 1.457031,0.74609 0.457031,0.44531 0.457031,1.10938 0,0.73828 -0.558593,1.16015 -0.558594,0.41797 -1.503907,0.41797 -0.65625,0 -1.195312,-0.23828 -0.539063,-0.24219 -0.824219,-0.66016 -0.28125,-0.41797 -0.28125,-0.96875 h 1.175781 q 0,0.94141 1.125,0.94141 0.417969,0 0.652344,-0.16797 0.234375,-0.17187 0.234375,-0.47656 z"/>
    <path id="path27600" style="font-weight:bold;font-size:8px;font-family:Roboto, sans-serif;letter-spacing:2px;fill:#333333" d="m 95.601562,340.1586 h 2.488282 v 0.94141 h -3.660157 v -5.6875 h 1.171875 z"/>
    <path id="path27602" style="font-weight:bold;font-size:8px;font-family:Roboto, sans-serif;letter-spacing:2px;fill:#333333" d="m 105.17969,338.38516 q 0,0.83985 -0.29688,1.47266 -0.29687,0.63281 -0.85156,0.97656 -0.55078,0.34375 -1.26562,0.34375 -0.70704,0 -1.26172,-0.33984 -0.55469,-0.33985 -0.85938,-0.96875 -0.30469,-0.63282 -0.30859,-1.45313 v -0.28125 q 0,-0.83984 0.30078,-1.47656 0.30469,-0.64063 0.85547,-0.98047 0.55469,-0.34375 1.26562,-0.34375 0.71094,0 1.26172,0.34375 0.55469,0.33984 0.85547,0.98047 0.30469,0.63672 0.30469,1.47266 z m -1.1875,-0.25781 q 0,-0.89453 -0.32031,-1.35938 -0.32032,-0.46484 -0.91407,-0.46484 -0.58984,0 -0.91015,0.46094 -0.32032,0.45703 -0.32422,1.34375 v 0.27734 q 0,0.8711 0.32031,1.35156 0.32031,0.48047 0.92188,0.48047 0.58984,0 0.90625,-0.46093 0.3164,-0.46485 0.32031,-1.35157 z"/>
    <path id="path27604" style="font-weight:bold;font-size:8px;font-family:Roboto, sans-serif;letter-spacing:2px;fill:#333333" d="m 112.46875,339.45938 0.76563,-4.04687 h 1.16796 l -1.26171,5.6875 h -1.17969 l -0.92578,-3.80469 -0.92578,3.80469 h -1.17969 l -1.26172,-5.6875 h 1.16797 l 0.76953,4.03906 0.9375,-4.03906 h 0.99219 z"/>
  </g>
  <g transform="translate(118,333.7)" id="g26798"/>
  <g transform="translate(20,163)" id="g26804">
    <g transform="translate(0,5)" id="g26802"/>
  </g>
  <g transform="translate(80,163)" id="g26810">
    <g style="font-weight:bold;font-size:10.6667px;font-family:Roboto, sans-serif;letter-spacing:2px;fill:#333333" id="text26806" transform="rotate(-90,23,15)" aria-label="SAM/PW">
      <path id="path27585" style="font-weight:bold;font-size:10.6667px;font-family:Roboto, sans-serif;letter-spacing:2px;fill:#333333" d="m 4.6093896,-1.9895896 q 0,-0.4427098 -0.312501,-0.6770855 Q 3.9843876,-2.9062592 3.171885,-3.1666767 2.3593825,-3.4323025 1.8854226,-3.6875116 0.59375188,-4.3854305 0.59375188,-5.5677259 q 0,-0.6145853 0.34375108,-1.0937535 0.34895944,-0.4843765 0.99479484,-0.7552107 0.6510437,-0.2708342 1.4583379,-0.2708342 0.8125026,0 1.4479213,0.296876 0.6354186,0.2916675 0.9843781,0.8281276 0.3541677,0.53646 0.3541677,1.2187538 H 4.6145979 q 0,-0.520835 -0.328126,-0.8072942 -0.3281261,-0.2916676 -0.9218779,-0.2916676 -0.5729185,0 -0.8906279,0.2447925 -0.3177093,0.239584 -0.3177093,0.6354186 0,0.3697929 0.3697928,0.6197937 0.3750012,0.2500007 1.0989619,0.4687514 1.3333375,0.401043 1.9427144,0.9947948 0.6093769,0.5937519 0.6093769,1.4791714 0,0.9843781 -0.744794,1.54687987 Q 4.6875148,0.104167 3.4270942,0.104167 q -0.8750028,0 -1.5937551,-0.31770934 Q 1.1145869,-0.53646003 0.73437732,-1.0937535 0.35937614,-1.6510469 0.35937614,-2.3854242 H 1.9270894 q 0,1.2552123 1.5000048,1.2552123 0.5572934,0 0.8697944,-0.223959 0.312501,-0.2291674 0.312501,-0.6354187 z"/>
      <path id="path27587" style="font-weight:bold;font-size:10.6667px;font-family:Roboto, sans-serif;letter-spacing:2px;fill:#333333" d="M 13.52087,-1.5625049 H 10.781278 L 10.260443,0 H 8.5989794 l 2.8229256,-7.5833573 h 1.447921 L 15.708377,0 h -1.661464 z m -2.317716,-1.265629 h 1.89584 l -0.953128,-2.8385507 z"/>
      <path id="path27589" style="font-weight:bold;font-size:10.6667px;font-family:Roboto, sans-serif;letter-spacing:2px;fill:#333333" d="m 20.468802,-7.5833573 1.947923,5.5000174 1.937506,-5.5000174 h 2.05209 V 0 H 24.838608 V -2.0729232 L 24.994858,-5.6510595 22.947977,0 h -1.07292 l -2.041673,-5.6458512 0.15625,3.572928 V 0 h -1.562505 v -7.5833573 z"/>
      <path id="path27591" style="font-weight:bold;font-size:10.6667px;font-family:Roboto, sans-serif;letter-spacing:2px;fill:#333333" d="m 30.156327,0.65104372 h -1.119795 l 2.791675,-8.23440102 h 1.119796 z"/>
      <path id="path27593" style="font-weight:bold;font-size:10.6667px;font-family:Roboto, sans-serif;letter-spacing:2px;fill:#333333" d="M 37.32301,-2.6718834 V 0 h -1.562505 v -7.5833573 h 2.958343 q 0.854169,0 1.500005,0.312501 0.651043,0.312501 1.000003,0.8906278 0.348959,0.5729185 0.348959,1.3072958 0,1.1145869 -0.765627,1.7604222 -0.760419,0.6406271 -2.109382,0.6406271 z m 0,-1.265629 h 1.395838 q 0.619794,0 0.942711,-0.2916676 0.328126,-0.2916676 0.328126,-0.833336 0,-0.5572934 -0.328126,-0.9010445 -0.328126,-0.3437511 -0.906253,-0.3541678 H 37.32301 Z"/>
      <path id="path27595" style="font-weight:bold;font-size:10.6667px;font-family:Roboto, sans-serif;letter-spacing:2px;fill:#333333" d="m 50.541797,-2.1875069 1.020836,-5.3958504 H 53.11993 L 51.437633,0 H 49.864711 L 48.630332,-5.0729327 47.395954,0 h -1.572922 l -1.682297,-7.5833573 h 1.557297 l 1.026044,5.3854337 1.250004,-5.3854337 h 1.322921 z"/>
    </g>
    <g transform="translate(20)" id="g26808"/>
  </g>
  <g transform="translate(90.5,153.4)" id="g26858">
    <g transform="translate(22.5,22.5)" id="g26856">
      <g transform="rotate(120,-7.5,4.330127)" id="g26814">
        <g style="font-weight:bold;font-size:12px;font-family:Roboto, sans-serif;fill:#333333" id="text26812" transform="rotate(-120,3.6392305,-2.0309401)" aria-label="-">
          <path id="path27568" style="font-weight:bold;font-size:12px;font-family:Roboto, sans-serif;fill:#333333" d="M 3.9433594,-2.9707031 H 0.64453125 V -4.3359375 H 3.9433594 Z"/>
        </g>
      </g>
      <g transform="rotate(150,-7.5,2.0096189)" id="g26818">
        <path d="M 0,0 H 2.5" style="stroke:#333333;stroke-width:0.7" id="polyline26816"/>
      </g>
      <g transform="rotate(180,-7.5,0)" id="g26822">
        <path d="M 0,0 H 2.5" style="stroke:#333333;stroke-width:0.7" id="polyline26820"/>
      </g>
      <g transform="rotate(-150,-7.5,-2.0096189)" id="g26826">
        <path d="M 0,0 H 2.5" style="stroke:#333333;stroke-width:0.7" id="polyline26824"/>
      </g>
      <g transform="rotate(-120,-7.5,-4.330127)" id="g26830">
        <path d="M 0,0 H 2.5" style="stroke:#333333;stroke-width:0.7" id="polyline26828"/>
      </g>
      <g transform="rotate(-90,-7.5,-7.5)" id="g26834">
        <g style="font-weight:bold;font-size:6.66667px;font-family:Roboto, sans-serif;fill:#333333" id="text26832" transform="rotate(90,1,-1)" aria-label="0">
          <path id="path27575" style="font-weight:bold;font-size:6.66667px;font-family:Roboto, sans-serif;fill:#333333" d="m 3.5123715,-1.9596364 q 0,0.98307343 -0.4069013,1.50390702 Q 2.698569,0.0651042 1.9140634,0.0651042 q -0.7747399,0 -1.18489639,-0.51106795 Q 0.31901057,-0.95703171 0.30924494,-1.9108082 v -0.8723963 q 0,-0.992839 0.41015644,-1.5071621 0.41341162,-0.5143232 1.18815162,-0.5143232 0.7747399,0 1.1848964,0.511068 0.4101564,0.5078127 0.4199221,1.4615892 z M 2.5716158,-2.9166681 q 0,-0.5891929 -0.1627605,-0.8561202 Q 2.24935,-4.0429707 1.907553,-4.0429707 q -0.3320314,0 -0.4915367,0.2571616 -0.1562501,0.2539064 -0.1660157,0.7975264 v 1.1523443 q 0,0.5794274 0.1562501,0.86263064 0.1595053,0.27994805 0.5078127,0.27994805 0.3450523,0 0.4980471,-0.27018242 0.1529949,-0.27018237 0.1595053,-0.82682327 z"/>
        </g>
      </g>
      <g transform="rotate(-60,-7.5,-12.990381)" id="g26838">
        <path d="M 0,0 H 2.5" style="stroke:#333333;stroke-width:0.7" id="polyline26836"/>
      </g>
      <g transform="rotate(-30,-7.5,-27.990381)" id="g26842">
        <path d="M 0,0 H 2.5" style="stroke:#333333;stroke-width:0.7" id="polyline26840"/>
      </g>
      <g transform="translate(15)" id="g26846">
        <path d="M 0,0 H 2.5" style="stroke:#333333;stroke-width:0.7" id="polyline26844"/>
      </g>
      <g transform="rotate(30,-7.5,27.990381)" id="g26850">
        <path d="M 0,0 H 2.5" style="stroke:#333333;stroke-width:0.7" id="polyline26848"/>
      </g>
      <g transform="rotate(60,-7.5,12.990381)" id="g26854">
        <g style="font-weight:bold;font-size:6.66667px;font-family:Roboto, sans-serif;fill:#333333" id="text26852" transform="rotate(-60,4.2320508,-1.8660254)" aria-label="+">
          <path id="path27582" style="font-weight:bold;font-size:6.66667px;font-family:Roboto, sans-serif;fill:#333333" d="m 2.2591157,-2.6529961 h 1.1751307 v 0.8496098 H 2.2591157 v 1.32812566 H 1.3639329 V -1.8033863 H 0.18554696 V -2.6529961 H 1.3639329 v -1.272787 h 0.8951828 z"/>
        </g>
      </g>
    </g>
  </g>
  <g transform="translate(8,141)" id="use26860">
    <g transform="translate(20,35)" id="g27282">
      <path d="M 0,0 H 5" style="stroke:#333333;stroke-width:1" transform="rotate(-90,-5.5,-5.5)" id="polyline27272"/>
      <path d="M 0,0 H 5" style="stroke:#333333;stroke-width:1" transform="rotate(-45,-5.5,-13.278175)" id="polyline27274"/>
      <path d="M 0,0 H 5" style="stroke:#333333;stroke-width:1" transform="translate(11)" id="polyline27276"/>
      <path d="M 0,0 H 5" style="stroke:#333333;stroke-width:1" transform="rotate(45,-5.5,13.278175)" id="polyline27278"/>
      <path d="M 0,0 H 5" style="stroke:#333333;stroke-width:1" transform="rotate(90,-5.5,5.5)" id="polyline27280"/>
    </g>
    <g transform="translate(14,8)" id="g27286">
      <path d="M 0,8 12,0 v 8" style="fill:none;stroke:#333333;stroke-width:1" id="polyline27284"/>
    </g>
    <g transform="translate(33.5,13.5)" id="g27290">
      <path d="M 0,8 V 0 l 12,8" style="fill:none;stroke:#333333;stroke-width:1" id="polyline27288"/>
    </g>
    <g transform="translate(39,31)" id="g27296">
      <path d="M 0,4 A 3,4.5 0 0 1 6,4" stroke-width="1" stroke="#333" fill="none" id="path27292"/>
      <path d="m 6,4 a 3,4.5 0 0 0 6,0" stroke-width="1" stroke="#333" fill="none" id="path27294"/>
    </g>
    <g transform="translate(33.5,48.5)" id="g27300">
      <path d="M 0,4 3,0 9,8 12,4" style="fill:none;stroke:#333333;stroke-width:1" id="polyline27298"/>
    </g>
    <g transform="translate(14,54)" id="g27304">
      <path d="M 0,4 V 0 h 6 v 8 h 6 V 4" style="fill:none;stroke:#333333;stroke-width:1" id="polyline27302"/>
    </g>
  </g>
  <g transform="translate(20,226)" id="g26868">
    <g style="font-weight:bold;font-size:10.6667px;font-family:Roboto, sans-serif;letter-spacing:2px;fill:#333333" id="text26864" transform="rotate(-90,22.25,14.25)" aria-label="OFFSET">
      <path id="path27546" style="font-weight:bold;font-size:10.6667px;font-family:Roboto, sans-serif;letter-spacing:2px;fill:#333333" d="m 6.9062718,-3.6198031 q 0,1.1197952 -0.3958346,1.9635479 Q 6.1146026,-0.81250257 5.375017,-0.35416779 4.6406397,0.104167 3.6875116,0.104167 q -0.9427113,0 -1.6822969,-0.45312644 Q 1.265629,-0.80208587 0.85937771,-1.6406302 0.45312643,-2.4843828 0.44791808,-3.5781363 v -0.3750012 q 0,-1.1197952 0.40104294,-1.9687562 0.40625128,-0.8541694 1.14062858,-1.3072958 0.7395857,-0.4583348 1.6875053,-0.4583348 0.9479197,0 1.682297,0.4583348 0.7395857,0.4531264 1.1406286,1.3072958 0.4062513,0.848961 0.4062513,1.9635479 z M 5.3229335,-3.9635542 q 0,-1.1927121 -0.4270847,-1.8125057 -0.4270847,-0.6197936 -1.2187539,-0.6197936 -0.7864608,0 -1.2135455,0.6145852 -0.4270846,0.609377 -0.432293,1.7916724 v 0.3697928 q 0,1.161462 0.4270847,1.802089 0.4270847,0.640627 1.2291705,0.640627 0.7864609,0 1.2083372,-0.6145852 0.4218763,-0.6197937 0.4270847,-1.8020891 z"/>
      <path id="path27548" style="font-weight:bold;font-size:10.6667px;font-family:Roboto, sans-serif;letter-spacing:2px;fill:#333333" d="m 14.614623,-3.0989681 h -3.00001 V 0 h -1.562505 v -7.5833573 h 4.937516 v 1.265629 h -3.375011 v 1.9583395 h 3.00001 z"/>
      <path id="path27550" style="font-weight:bold;font-size:10.6667px;font-family:Roboto, sans-serif;letter-spacing:2px;fill:#333333" d="m 22.468808,-3.0989681 h -3.00001 V 0 h -1.562505 v -7.5833573 h 4.937516 v 1.265629 h -3.375011 v 1.9583395 h 3.00001 z"/>
      <path id="path27552" style="font-weight:bold;font-size:10.6667px;font-family:Roboto, sans-serif;letter-spacing:2px;fill:#333333" d="m 29.692783,-1.9895896 q 0,-0.4427098 -0.312501,-0.6770855 -0.312501,-0.2395841 -1.125004,-0.5000016 -0.812502,-0.2656258 -1.286462,-0.5208349 -1.291671,-0.6979189 -1.291671,-1.8802143 0,-0.6145853 0.343751,-1.0937535 0.348959,-0.4843765 0.994795,-0.7552107 0.651044,-0.2708342 1.458338,-0.2708342 0.812502,0 1.447921,0.296876 0.635419,0.2916675 0.984378,0.8281276 0.354168,0.53646 0.354168,1.2187538 h -1.562505 q 0,-0.520835 -0.328126,-0.8072942 -0.328126,-0.2916676 -0.921878,-0.2916676 -0.572918,0 -0.890628,0.2447925 -0.317709,0.239584 -0.317709,0.6354186 0,0.3697929 0.369793,0.6197937 0.375001,0.2500007 1.098962,0.4687514 1.333337,0.401043 1.942714,0.9947948 0.609377,0.5937519 0.609377,1.4791714 0,0.9843781 -0.744794,1.54687987 -0.744794,0.55729343 -2.005215,0.55729343 -0.875003,0 -1.593755,-0.31770934 Q 26.19798,-0.53646003 25.81777,-1.0937535 25.442769,-1.6510469 25.442769,-2.3854242 h 1.567714 q 0,1.2552123 1.500004,1.2552123 0.557294,0 0.869795,-0.223959 0.312501,-0.2291674 0.312501,-0.6354187 z"/>
      <path id="path27554" style="font-weight:bold;font-size:10.6667px;font-family:Roboto, sans-serif;letter-spacing:2px;fill:#333333" d="m 38.885512,-3.2864687 h -3.000009 v 2.0312564 h 3.520844 V 0 h -5.083349 v -7.5833573 h 5.072932 v 1.265629 h -3.510427 v 1.8072974 h 3.000009 z"/>
      <path id="path27556" style="font-weight:bold;font-size:10.6667px;font-family:Roboto, sans-serif;letter-spacing:2px;fill:#333333" d="M 48.135536,-6.3177283 H 45.812612 V 0 h -1.562505 v -6.3177283 h -2.291674 v -1.265629 h 6.177103 z"/>
    </g>
    <g transform="translate(20)" id="g26866"/>
  </g>
  <g transform="translate(30.5,216.4)" id="g26916">
    <g transform="translate(22.5,22.5)" id="g26914">
      <g transform="rotate(120,-7.5,4.330127)" id="g26872">
        <g style="font-weight:bold;font-size:12px;font-family:Roboto, sans-serif;fill:#333333" id="text26870" transform="rotate(-120,3.6392305,-2.0309401)" aria-label="-">
          <path id="path27529" style="font-weight:bold;font-size:12px;font-family:Roboto, sans-serif;fill:#333333" d="M 3.9433594,-2.9707031 H 0.64453125 V -4.3359375 H 3.9433594 Z"/>
        </g>
      </g>
      <g transform="rotate(150,-7.5,2.0096189)" id="g26876">
        <path d="M 0,0 H 2.5" style="stroke:#333333;stroke-width:0.7" id="polyline26874"/>
      </g>
      <g transform="rotate(180,-7.5,0)" id="g26880">
        <path d="M 0,0 H 2.5" style="stroke:#333333;stroke-width:0.7" id="polyline26878"/>
      </g>
      <g transform="rotate(-150,-7.5,-2.0096189)" id="g26884">
        <path d="M 0,0 H 2.5" style="stroke:#333333;stroke-width:0.7" id="polyline26882"/>
      </g>
      <g transform="rotate(-120,-7.5,-4.330127)" id="g26888">
        <path d="M 0,0 H 2.5" style="stroke:#333333;stroke-width:0.7" id="polyline26886"/>
      </g>
      <g transform="rotate(-90,-7.5,-7.5)" id="g26892">
        <g style="font-weight:bold;font-size:6.66667px;font-family:Roboto, sans-serif;fill:#333333" id="text26890" transform="rotate(90,1,-1)" aria-label="0">
          <path id="path27536" style="font-weight:bold;font-size:6.66667px;font-family:Roboto, sans-serif;fill:#333333" d="m 3.5123715,-1.9596364 q 0,0.98307343 -0.4069013,1.50390702 Q 2.698569,0.0651042 1.9140634,0.0651042 q -0.7747399,0 -1.18489639,-0.51106795 Q 0.31901057,-0.95703171 0.30924494,-1.9108082 v -0.8723963 q 0,-0.992839 0.41015644,-1.5071621 0.41341162,-0.5143232 1.18815162,-0.5143232 0.7747399,0 1.1848964,0.511068 0.4101564,0.5078127 0.4199221,1.4615892 z M 2.5716158,-2.9166681 q 0,-0.5891929 -0.1627605,-0.8561202 Q 2.24935,-4.0429707 1.907553,-4.0429707 q -0.3320314,0 -0.4915367,0.2571616 -0.1562501,0.2539064 -0.1660157,0.7975264 v 1.1523443 q 0,0.5794274 0.1562501,0.86263064 0.1595053,0.27994805 0.5078127,0.27994805 0.3450523,0 0.4980471,-0.27018242 0.1529949,-0.27018237 0.1595053,-0.82682327 z"/>
        </g>
      </g>
      <g transform="rotate(-60,-7.5,-12.990381)" id="g26896">
        <path d="M 0,0 H 2.5" style="stroke:#333333;stroke-width:0.7" id="polyline26894"/>
      </g>
      <g transform="rotate(-30,-7.5,-27.990381)" id="g26900">
        <path d="M 0,0 H 2.5" style="stroke:#333333;stroke-width:0.7" id="polyline26898"/>
      </g>
      <g transform="translate(15)" id="g26904">
        <path d="M 0,0 H 2.5" style="stroke:#333333;stroke-width:0.7" id="polyline26902"/>
      </g>
      <g transform="rotate(30,-7.5,27.990381)" id="g26908">
        <path d="M 0,0 H 2.5" style="stroke:#333333;stroke-width:0.7" id="polyline26906"/>
      </g>
      <g transform="rotate(60,-7.5,12.990381)" id="g26912">
        <g style="font-weight:bold;font-size:6.66667px;font-family:Roboto, sans-serif;fill:#333333" id="text26910" transform="rotate(-60,4.2320508,-1.8660254)" aria-label="+">
          <path id="path27543" style="font-weight:bold;font-size:6.66667px;font-family:Roboto, sans-serif;fill:#333333" d="m 2.2591157,-2.6529961 h 1.1751307 v 0.8496098 H 2.2591157 v 1.32812566 H 1.3639329 V -1.8033863 H 0.18554696 V -2.6529961 H 1.3639329 v -1.272787 h 0.8951828 z"/>
        </g>
      </g>
    </g>
  </g>
  <g transform="translate(80,226)" id="g26922">
    <g style="font-weight:bold;font-size:10.6667px;font-family:Roboto, sans-serif;letter-spacing:2px;fill:#333333" id="text26918" transform="rotate(-90,20,12)" aria-label="SCALE">
      <path id="path27518" style="font-weight:bold;font-size:10.6667px;font-family:Roboto, sans-serif;letter-spacing:2px;fill:#333333" d="m 4.6093896,-1.9895896 q 0,-0.4427098 -0.312501,-0.6770855 Q 3.9843876,-2.9062592 3.171885,-3.1666767 2.3593825,-3.4323025 1.8854226,-3.6875116 0.59375188,-4.3854305 0.59375188,-5.5677259 q 0,-0.6145853 0.34375108,-1.0937535 0.34895944,-0.4843765 0.99479484,-0.7552107 0.6510437,-0.2708342 1.4583379,-0.2708342 0.8125026,0 1.4479213,0.296876 0.6354186,0.2916675 0.9843781,0.8281276 0.3541677,0.53646 0.3541677,1.2187538 H 4.6145979 q 0,-0.520835 -0.328126,-0.8072942 -0.3281261,-0.2916676 -0.9218779,-0.2916676 -0.5729185,0 -0.8906279,0.2447925 -0.3177093,0.239584 -0.3177093,0.6354186 0,0.3697929 0.3697928,0.6197937 0.3750012,0.2500007 1.0989619,0.4687514 1.3333375,0.401043 1.9427144,0.9947948 0.6093769,0.5937519 0.6093769,1.4791714 0,0.9843781 -0.744794,1.54687987 Q 4.6875148,0.104167 3.4270942,0.104167 q -0.8750028,0 -1.5937551,-0.31770934 Q 1.1145869,-0.53646003 0.73437732,-1.0937535 0.35937614,-1.6510469 0.35937614,-2.3854242 H 1.9270894 q 0,1.2552123 1.5000048,1.2552123 0.5572934,0 0.8697944,-0.223959 0.312501,-0.2291674 0.312501,-0.6354187 z"/>
      <path id="path27520" style="font-weight:bold;font-size:10.6667px;font-family:Roboto, sans-serif;letter-spacing:2px;fill:#333333" d="m 15.19275,-2.5260496 q -0.08854,1.2239622 -0.906253,1.92708937 -0.812502,0.70312723 -2.14584,0.70312723 -1.458338,0 -2.296882,-0.97916976 Q 9.0104391,-1.8593809 9.0104391,-3.572928 v -0.4635431 q 0,-1.0937534 0.3854178,-1.9270894 0.3854179,-0.833336 1.0989621,-1.2760457 0.718752,-0.4479181 1.666672,-0.4479181 1.312504,0 2.11459,0.7031272 0.802086,0.7031273 0.927086,1.9739646 h -1.562505 q -0.05729,-0.7343773 -0.41146,-1.0625034 -0.348959,-0.3333343 -1.067711,-0.3333343 -0.781253,0 -1.171879,0.5625017 -0.385418,0.5572935 -0.395835,1.7343805 v 0.5729185 q 0,1.2291705 0.369793,1.7968807 0.375001,0.5677101 1.177087,0.5677101 0.723961,0 1.078129,-0.328126 0.359376,-0.3333344 0.411459,-1.0260449 z"/>
      <path id="path27522" style="font-weight:bold;font-size:10.6667px;font-family:Roboto, sans-serif;letter-spacing:2px;fill:#333333" d="M 22.500059,-1.5625049 H 19.760467 L 19.239632,0 h -1.661464 l 2.822926,-7.5833573 h 1.447921 L 24.687566,0 h -1.661464 z m -2.317716,-1.265629 h 1.89584 l -0.953128,-2.8385507 z"/>
      <path id="path27524" style="font-weight:bold;font-size:10.6667px;font-family:Roboto, sans-serif;letter-spacing:2px;fill:#333333" d="m 28.968823,-1.2552123 h 3.317719 V 0 h -4.880224 v -7.5833573 h 1.562505 z"/>
      <path id="path27526" style="font-weight:bold;font-size:10.6667px;font-family:Roboto, sans-serif;letter-spacing:2px;fill:#333333" d="m 39.739684,-3.2864687 h -3.00001 v 2.0312564 h 3.520845 V 0 h -5.08335 v -7.5833573 h 5.072933 v 1.265629 h -3.510428 v 1.8072974 h 3.00001 z"/>
    </g>
    <g transform="translate(20)" id="g26920"/>
  </g>
  <g transform="translate(90.5,216.4)" id="g26948">
    <g transform="translate(22.5,22.5)" id="g26946">
      <g style="font-weight:bold;font-size:6.66667px;font-family:Roboto, sans-serif;fill:#333333" id="text26924" transform="translate(-11,17.588457)" aria-label="0">
        <path id="path27505" style="font-weight:bold;font-size:6.66667px;font-family:Roboto, sans-serif;fill:#333333" d="m 3.5123715,-1.9596364 q 0,0.98307343 -0.4069013,1.50390702 Q 2.698569,0.0651042 1.9140634,0.0651042 q -0.7747399,0 -1.18489639,-0.51106795 Q 0.31901057,-0.95703171 0.30924494,-1.9108082 v -0.8723963 q 0,-0.992839 0.41015644,-1.5071621 0.41341162,-0.5143232 1.18815162,-0.5143232 0.7747399,0 1.1848964,0.511068 0.4101564,0.5078127 0.4199221,1.4615892 z M 2.5716158,-2.9166681 q 0,-0.5891929 -0.1627605,-0.8561202 Q 2.24935,-4.0429707 1.907553,-4.0429707 q -0.3320314,0 -0.4915367,0.2571616 -0.1562501,0.2539064 -0.1660157,0.7975264 v 1.1523443 q 0,0.5794274 0.1562501,0.86263064 0.1595053,0.27994805 0.5078127,0.27994805 0.3450523,0 0.4980471,-0.27018242 0.1529949,-0.27018237 0.1595053,-0.82682327 z"/>
      </g>
      <path d="M 0,0 H 2.5" style="stroke:#333333;stroke-width:0.7" transform="rotate(150,-7.5,2.0096189)" id="polyline26926"/>
      <path d="M 0,0 H 2.5" style="stroke:#333333;stroke-width:0.7" transform="rotate(180,-7.5,0)" id="polyline26928"/>
      <path d="M 0,0 H 2.5" style="stroke:#333333;stroke-width:0.7" transform="rotate(-150,-7.5,-2.0096189)" id="polyline26930"/>
      <path d="M 0,0 H 2.5" style="stroke:#333333;stroke-width:0.7" transform="rotate(-120,-7.5,-4.330127)" id="polyline26932"/>
      <path d="M 0,0 H 2.5" style="stroke:#333333;stroke-width:0.7" transform="rotate(-90,-7.5,-7.5)" id="polyline26934"/>
      <path d="M 0,0 H 2.5" style="stroke:#333333;stroke-width:0.7" transform="rotate(-60,-7.5,-12.990381)" id="polyline26936"/>
      <path d="M 0,0 H 2.5" style="stroke:#333333;stroke-width:0.7" transform="rotate(-30,-7.5,-27.990381)" id="polyline26938"/>
      <path d="M 0,0 H 2.5" style="stroke:#333333;stroke-width:0.7" transform="translate(15)" id="polyline26940"/>
      <path d="M 0,0 H 2.5" style="stroke:#333333;stroke-width:0.7" transform="rotate(30,-7.5,27.990381)" id="polyline26942"/>
      <path d="M 0,0 H 3.5" style="stroke:#333333;stroke-width:1" transform="rotate(60,-7.5,12.990381)" id="polyline26944"/>
    </g>
  </g>
  <g transform="translate(140,36)" id="g26984">
    <g id="g26954">
      <g transform="translate(4,4)" id="g26952"/>
    </g>
    <g transform="translate(0,40)" id="g26958">
      <g transform="translate(4,4)" id="g26956"/>
    </g>
    <g transform="translate(0,80)" id="g26962">
      <g transform="translate(4,4)" id="g26960"/>
    </g>
    <g transform="translate(0,120)" id="g26966">
      <g transform="translate(4,4)" id="g26964"/>
    </g>
    <g transform="translate(0,160)" id="g26970">
      <g transform="translate(4,4)" id="g26968"/>
    </g>
    <g transform="translate(0,200)" id="g26974">
      <g transform="translate(4,4)" id="g26972"/>
    </g>
    <g transform="translate(0,240)" id="g26978">
      <g transform="translate(4,4)" id="g26976"/>
    </g>
    <g transform="translate(0,280)" id="g26982">
      <g transform="translate(4,4)" id="g26980"/>
    </g>
  </g>
  <g transform="rotate(135,80.20101,61.338095)" id="use26988">
    <g transform="translate(20,20)" id="g27320">
      <g transform="rotate(-90,-5,-5)" id="g27310">
        <path d="M 0,0 H 4" style="stroke:#333333;stroke-width:1" id="polyline27308"/>
      </g>
      <path d="M 0,-12.5 A 12.5,12.5 0 0 1 12.5,0" stroke-width="0.7" stroke-linecap="round" stroke="#333" fill="none" transform="rotate(20)" id="path27312"/>
      <path d="M 0,-12.5 A 12.5,12.5 0 0 1 12.5,0" stroke-width="0.7" stroke-linecap="round" stroke="#333" fill="none" transform="rotate(43)" id="path27314"/>
      <path d="M 0,-12.5 A 12.5,12.5 0 0 0 -12.5,0" stroke-width="0.7" stroke-linecap="round" stroke="#333" fill="none" transform="rotate(-20)" id="path27316"/>
      <path d="M 0,-12.5 A 12.5,12.5 0 0 0 -12.5,0" stroke-width="0.7" stroke-linecap="round" stroke="#333" fill="none" transform="rotate(-43)" id="path27318"/>
    </g>
  </g>
  <g transform="rotate(180,86,54)" id="use26990">
    <g transform="translate(20,20)" id="g27336">
      <g transform="rotate(-90,-5,-5)" id="g27326">
        <path d="M 0,0 H 4" style="stroke:#333333;stroke-width:1" id="polyline27324"/>
      </g>
      <path d="M 0,-12.5 A 12.5,12.5 0 0 1 12.5,0" stroke-width="0.7" stroke-linecap="round" stroke="#333" fill="none" transform="rotate(20)" id="path27328"/>
      <path d="M 0,-12.5 A 12.5,12.5 0 0 1 12.5,0" stroke-width="0.7" stroke-linecap="round" stroke="#333" fill="none" transform="rotate(43)" id="path27330"/>
      <path d="M 0,-12.5 A 12.5,12.5 0 0 0 -12.5,0" stroke-width="0.7" stroke-linecap="round" stroke="#333" fill="none" transform="rotate(-20)" id="path27332"/>
      <path d="M 0,-12.5 A 12.5,12.5 0 0 0 -12.5,0" stroke-width="0.7" stroke-linecap="round" stroke="#333" fill="none" transform="rotate(-43)" id="path27334"/>
    </g>
  </g>
  <g transform="rotate(-135,108.36753,46.661905)" id="use26992">
    <g transform="translate(20,20)" id="g27352">
      <g transform="rotate(-90,-5,-5)" id="g27342">
        <path d="M 0,0 H 4" style="stroke:#333333;stroke-width:1" id="polyline27340"/>
      </g>
      <path d="M 0,-12.5 A 12.5,12.5 0 0 1 12.5,0" stroke-width="0.7" stroke-linecap="round" stroke="#333" fill="none" transform="rotate(20)" id="path27344"/>
      <path d="M 0,-12.5 A 12.5,12.5 0 0 1 12.5,0" stroke-width="0.7" stroke-linecap="round" stroke="#333" fill="none" transform="rotate(43)" id="path27346"/>
      <path d="M 0,-12.5 A 12.5,12.5 0 0 0 -12.5,0" stroke-width="0.7" stroke-linecap="round" stroke="#333" fill="none" transform="rotate(-20)" id="path27348"/>
      <path d="M 0,-12.5 A 12.5,12.5 0 0 0 -12.5,0" stroke-width="0.7" stroke-linecap="round" stroke="#333" fill="none" transform="rotate(-43)" id="path27350"/>
    </g>
  </g>
  <g transform="rotate(-90,160,28)" id="use26994">
    <g transform="translate(20,20)" id="g27368">
      <g transform="rotate(-90,-5,-5)" id="g27358">
        <path d="M 0,0 H 4" style="stroke:#333333;stroke-width:1" id="polyline27356"/>
      </g>
      <path d="M 0,-12.5 A 12.5,12.5 0 0 1 12.5,0" stroke-width="0.7" stroke-linecap="round" stroke="#333" fill="none" transform="rotate(20)" id="path27360"/>
      <path d="M 0,-12.5 A 12.5,12.5 0 0 1 12.5,0" stroke-width="0.7" stroke-linecap="round" stroke="#333" fill="none" transform="rotate(43)" id="path27362"/>
      <path d="M 0,-12.5 A 12.5,12.5 0 0 0 -12.5,0" stroke-width="0.7" stroke-linecap="round" stroke="#333" fill="none" transform="rotate(-20)" id="path27364"/>
      <path d="M 0,-12.5 A 12.5,12.5 0 0 0 -12.5,0" stroke-width="0.7" stroke-linecap="round" stroke="#333" fill="none" transform="rotate(-43)" id="path27366"/>
    </g>
  </g>
  <g transform="rotate(-45,312.93607,-45.338099)" id="use26996">
    <g transform="translate(20,20)" id="g27384">
      <g transform="rotate(-90,-5,-5)" id="g27374">
        <path d="M 0,0 H 4" style="stroke:#333333;stroke-width:1" id="polyline27372"/>
      </g>
      <path d="M 0,-12.5 A 12.5,12.5 0 0 1 12.5,0" stroke-width="0.7" stroke-linecap="round" stroke="#333" fill="none" transform="rotate(20)" id="path27376"/>
      <path d="M 0,-12.5 A 12.5,12.5 0 0 1 12.5,0" stroke-width="0.7" stroke-linecap="round" stroke="#333" fill="none" transform="rotate(43)" id="path27378"/>
      <path d="M 0,-12.5 A 12.5,12.5 0 0 0 -12.5,0" stroke-width="0.7" stroke-linecap="round" stroke="#333" fill="none" transform="rotate(-20)" id="path27380"/>
      <path d="M 0,-12.5 A 12.5,12.5 0 0 0 -12.5,0" stroke-width="0.7" stroke-linecap="round" stroke="#333" fill="none" transform="rotate(-43)" id="path27382"/>
    </g>
  </g>
  <g transform="translate(132,228)" id="use26998">
    <g transform="translate(20,20)" id="g27400">
      <g transform="rotate(-90,-5,-5)" id="g27390">
        <path d="M 0,0 H 4" style="stroke:#333333;stroke-width:1" id="polyline27388"/>
      </g>
      <path d="M 0,-12.5 A 12.5,12.5 0 0 1 12.5,0" stroke-width="0.7" stroke-linecap="round" stroke="#333" fill="none" transform="rotate(20)" id="path27392"/>
      <path d="M 0,-12.5 A 12.5,12.5 0 0 1 12.5,0" stroke-width="0.7" stroke-linecap="round" stroke="#333" fill="none" transform="rotate(43)" id="path27394"/>
      <path d="M 0,-12.5 A 12.5,12.5 0 0 0 -12.5,0" stroke-width="0.7" stroke-linecap="round" stroke="#333" fill="none" transform="rotate(-20)" id="path27396"/>
      <path d="M 0,-12.5 A 12.5,12.5 0 0 0 -12.5,0" stroke-width="0.7" stroke-linecap="round" stroke="#333" fill="none" transform="rotate(-43)" id="path27398"/>
    </g>
  </g>
  <g transform="rotate(45,-237.50461,313.3381)" id="use27000">
    <g transform="translate(20,20)" id="g27416">
      <g transform="rotate(-90,-5,-5)" id="g27406">
        <path d="M 0,0 H 4" style="stroke:#333333;stroke-width:1" id="polyline27404"/>
      </g>
      <path d="M 0,-12.5 A 12.5,12.5 0 0 1 12.5,0" stroke-width="0.7" stroke-linecap="round" stroke="#333" fill="none" transform="rotate(20)" id="path27408"/>
      <path d="M 0,-12.5 A 12.5,12.5 0 0 1 12.5,0" stroke-width="0.7" stroke-linecap="round" stroke="#333" fill="none" transform="rotate(43)" id="path27410"/>
      <path d="M 0,-12.5 A 12.5,12.5 0 0 0 -12.5,0" stroke-width="0.7" stroke-linecap="round" stroke="#333" fill="none" transform="rotate(-20)" id="path27412"/>
      <path d="M 0,-12.5 A 12.5,12.5 0 0 0 -12.5,0" stroke-width="0.7" stroke-linecap="round" stroke="#333" fill="none" transform="rotate(-43)" id="path27414"/>
    </g>
  </g>
  <g transform="rotate(90,-68,240)" id="use27002">
    <g transform="translate(20,20)" id="g27432">
      <g transform="rotate(-90,-5,-5)" id="g27422">
        <path d="M 0,0 H 4" style="stroke:#333333;stroke-width:1" id="polyline27420"/>
      </g>
      <path d="M 0,-12.5 A 12.5,12.5 0 0 1 12.5,0" stroke-width="0.7" stroke-linecap="round" stroke="#333" fill="none" transform="rotate(20)" id="path27424"/>
      <path d="M 0,-12.5 A 12.5,12.5 0 0 1 12.5,0" stroke-width="0.7" stroke-linecap="round" stroke="#333" fill="none" transform="rotate(43)" id="path27426"/>
      <path d="M 0,-12.5 A 12.5,12.5 0 0 0 -12.5,0" stroke-width="0.7" stroke-linecap="round" stroke="#333" fill="none" transform="rotate(-20)" id="path27428"/>
      <path d="M 0,-12.5 A 12.5,12.5 0 0 0 -12.5,0" stroke-width="0.7" stroke-linecap="round" stroke="#333" fill="none" transform="rotate(-43)" id="path27430"/>
    </g>
  </g>
  <path class="input-background" d="m 181,32 h 20 c 2.77,0 5,2.23 5,5 v 318 c 0,2.77 -2.23,5 -5,5 h -20 c -2.77,0 -5,-2.23 -5,-5 V 37 c 0,-2.77 2.23,-5 5,-5 z" style="fill:#fafafa" id="rect27006"/>
  <g transform="translate(179,36)" id="g27024">
    <g id="g27008"/>
    <g transform="translate(0,40)" id="g27010"/>
    <g transform="translate(0,80)" id="g27012"/>
    <g transform="translate(0,120)" id="g27014"/>
    <g transform="translate(0,160)" id="g27016"/>
    <g transform="translate(0,200)" id="g27018"/>
    <g transform="translate(0,240)" id="g27020"/>
    <g transform="translate(0,280)" id="g27022"/>
  </g>
  <g class="input-label" style="font-weight:bold;font-size:8px;font-family:Roboto, sans-serif;letter-spacing:2px;fill:#333333" id="text27026" aria-label="CV">
    <path id="path27491" style="font-weight:bold;font-size:8px;font-family:Roboto, sans-serif;letter-spacing:2px;fill:#333333" d="m 188.97266,350.10547 q -0.0664,0.91797 -0.67969,1.44531 -0.60938,0.52734 -1.60938,0.52734 -1.09375,0 -1.72265,-0.73437 -0.625,-0.73828 -0.625,-2.02344 v -0.34765 q 0,-0.82032 0.28906,-1.44532 0.28906,-0.625 0.82422,-0.95703 0.53906,-0.33594 1.25,-0.33594 0.98437,0 1.58594,0.52735 0.60156,0.52734 0.69531,1.48047 h -1.17188 q -0.043,-0.55078 -0.30859,-0.79688 -0.26172,-0.25 -0.80078,-0.25 -0.58594,0 -0.87891,0.42188 -0.28906,0.41797 -0.29687,1.30078 v 0.42969 q 0,0.92187 0.27734,1.34765 0.28125,0.42578 0.88281,0.42578 0.54297,0 0.8086,-0.24609 0.26953,-0.25 0.30859,-0.76953 z"/>
    <path id="path27493" style="font-weight:bold;font-size:8px;font-family:Roboto, sans-serif;letter-spacing:2px;fill:#333333" d="m 193.84375,350.58984 1.28906,-4.27734 h 1.30469 L 194.45703,352 h -1.22266 l -1.97265,-5.6875 h 1.30078 z"/>
  </g>
  <path class="output-background" d="m 220,32 h 20 c 2.77,0 5,2.23 5,5 v 318 c 0,2.77 -2.23,5 -5,5 h -20 c -2.77,0 -5,-2.23 -5,-5 V 37 c 0,-2.77 2.23,-5 5,-5 z" style="fill:#bbbbbb" id="rect27030"/>
  <g transform="translate(218,36)" id="g27048">
    <g id="g27032"/>
    <g transform="translate(0,40)" id="g27034"/>
    <g transform="translate(0,80)" id="g27036"/>
    <g transform="translate(0,120)" id="g27038"/>
    <g transform="translate(0,160)" id="g27040"/>
    <g transform="translate(0,200)" id="g27042"/>
    <g transform="translate(0,240)" id="g27044"/>
    <g transform="translate(0,280)" id="g27046"/>
  </g>
  <g class="output-label" style="font-weight:bold;font-size:8px;font-family:Roboto, sans-serif;letter-spacing:2px;fill:#333333" id="text27050" aria-label="OUT">
    <path id="path27483" style="font-weight:bold;font-size:8px;font-family:Roboto, sans-serif;letter-spacing:2px;fill:#333333" d="m 225.17969,349.28516 q 0,0.83984 -0.29688,1.47265 -0.29687,0.63281 -0.85156,0.97656 -0.55078,0.34375 -1.26563,0.34375 -0.70703,0 -1.26171,-0.33984 -0.55469,-0.33984 -0.85938,-0.96875 -0.30469,-0.63281 -0.30859,-1.45312 v -0.28125 q 0,-0.83985 0.30078,-1.47657 0.30469,-0.64062 0.85547,-0.98047 0.55468,-0.34375 1.26562,-0.34375 0.71094,0 1.26172,0.34375 0.55469,0.33985 0.85547,0.98047 0.30469,0.63672 0.30469,1.47266 z m -1.1875,-0.25782 q 0,-0.89453 -0.32032,-1.35937 -0.32031,-0.46485 -0.91406,-0.46485 -0.58984,0 -0.91015,0.46094 -0.32032,0.45703 -0.32422,1.34375 v 0.27735 q 0,0.87109 0.32031,1.35156 0.32031,0.48047 0.92187,0.48047 0.58985,0 0.90625,-0.46094 0.31641,-0.46484 0.32032,-1.35156 z"/>
    <path id="path27485" style="font-weight:bold;font-size:8px;font-family:Roboto, sans-serif;letter-spacing:2px;fill:#333333" d="m 232.34375,346.3125 v 3.74609 q 0,0.9336 -0.58594,1.47657 -0.58203,0.54296 -1.59375,0.54296 -0.99609,0 -1.58203,-0.52734 -0.58594,-0.52734 -0.59766,-1.44922 v -3.78906 h 1.17188 v 3.75391 q 0,0.55859 0.26562,0.8164 0.26954,0.25391 0.74219,0.25391 0.98828,0 1.00391,-1.03906 v -3.78516 z"/>
    <path id="path27487" style="font-weight:bold;font-size:8px;font-family:Roboto, sans-serif;letter-spacing:2px;fill:#333333" d="m 239.58594,347.26172 h -1.74219 V 352 h -1.17188 v -4.73828 h -1.71875 v -0.94922 h 4.63282 z"/>
  </g>
  <path class="input-background" d="m 15,273 h 60 c 2.77,0 5,2.23 5,5 v 77 c 0,2.77 -2.23,5 -5,5 H 15 c -2.77,0 -5,-2.23 -5,-5 v -77 c 0,-2.77 2.23,-5 5,-5 z" style="fill:#fafafa" id="rect27054"/>
  <path class="input-background" d="m 15,273 h 98 c 2.77,0 5,2.23 5,5 v 33 c 0,2.77 -2.23,5 -5,5 H 15 c -2.77,0 -5,-2.23 -5,-5 v -33 c 0,-2.77 2.23,-5 5,-5 z" style="fill:#fafafa" id="rect27056"/>
  <g transform="translate(10,273)" id="g27062">
    <g transform="translate(4,4)" id="g27058"/>
    <g class="input-label" style="font-weight:bold;font-size:8px;font-family:Roboto, sans-serif;letter-spacing:1px;fill:#333333" id="text27060" transform="translate(4,38)" aria-label="S/PW">
      <path id="path27472" style="font-weight:bold;font-size:8px;font-family:Roboto, sans-serif;letter-spacing:1px;fill:#333333" d="m 3.4570313,-1.4921875 q 0,-0.3320312 -0.234375,-0.5078125 -0.234375,-0.1796875 -0.84375,-0.375 -0.6093751,-0.1992188 -0.9648438,-0.390625 -0.96875,-0.5234375 -0.96875,-1.4101562 0,-0.4609375 0.2578125,-0.8203125 Q 0.96484375,-5.359375 1.4492187,-5.5625 1.9375,-5.765625 2.5429688,-5.765625 q 0.609375,0 1.0859375,0.2226563 0.4765624,0.21875 0.7382812,0.6210937 0.265625,0.4023438 0.265625,0.9140625 h -1.171875 q 0,-0.390625 -0.2460937,-0.6054687 -0.2460938,-0.21875 -0.6914063,-0.21875 -0.4296875,0 -0.6679688,0.1835937 -0.2382812,0.1796875 -0.2382812,0.4765625 0,0.2773437 0.2773437,0.4648437 0.2812501,0.1875 0.8242188,0.3515625 1,0.3007813 1.4570312,0.7460938 0.4570313,0.4453125 0.4570313,1.109375 0,0.73828125 -0.5585938,1.16015625 Q 3.515625,0.078125 2.5703125,0.078125 q -0.65625,0 -1.1953125,-0.23828125 -0.5390625,-0.2421875 -0.82421875,-0.66015625 -0.28125,-0.4179687 -0.28125,-0.96875 H 1.4453125 q 0,0.94140625 1.125,0.94140625 0.4179688,0 0.6523438,-0.16796875 0.234375,-0.171875 0.234375,-0.4765625 z"/>
      <path id="path27474" style="font-weight:bold;font-size:8px;font-family:Roboto, sans-serif;letter-spacing:1px;fill:#333333" d="M 6.7109375,0.48828125 H 5.8710937 L 7.9648437,-5.6875 h 0.8398438 z"/>
      <path id="path27476" style="font-weight:bold;font-size:8px;font-family:Roboto, sans-serif;letter-spacing:1px;fill:#333333" d="M 11.585938,-2.0039063 V 0 h -1.171875 v -5.6875 h 2.21875 q 0.640625,0 1.125,0.234375 0.488281,0.234375 0.75,0.6679688 0.261718,0.4296875 0.261718,0.9804687 0,0.8359375 -0.574218,1.3203125 -0.570313,0.4804687 -1.582032,0.4804687 z m 0,-0.9492187 h 1.046875 q 0.464843,0 0.707031,-0.21875 0.246094,-0.21875 0.246094,-0.625 0,-0.4179687 -0.246094,-0.6757812 -0.246094,-0.2578125 -0.679688,-0.265625 h -1.074218 z"/>
      <path id="path27478" style="font-weight:bold;font-size:8px;font-family:Roboto, sans-serif;letter-spacing:1px;fill:#333333" d="M 21,-1.640625 21.765625,-5.6875 h 1.167969 L 21.671875,0 H 20.492187 L 19.566406,-3.8046875 18.640625,0 h -1.179688 l -1.261718,-5.6875 h 1.167968 l 0.769532,4.0390625 0.9375,-4.0390625 h 0.992187 z"/>
    </g>
  </g>
  <g transform="translate(50,273)" id="g27068">
    <g transform="translate(2,4)" id="g27064"/>
    <g class="input-label" style="font-weight:bold;font-size:8px;font-family:Roboto, sans-serif;letter-spacing:2px;fill:#333333" id="text27066" transform="translate(4.5,38)" aria-label="OFF">
      <path id="path27465" style="font-weight:bold;font-size:8px;font-family:Roboto, sans-serif;letter-spacing:2px;fill:#333333" d="m 5.1796875,-2.7148438 q 0,0.8398438 -0.296875,1.4726563 -0.296875,0.6328125 -0.8515625,0.9765625 -0.5507812,0.34375 -1.265625,0.34375 -0.7070312,0 -1.2617188,-0.33984375 Q 0.94921875,-0.6015625 0.64453125,-1.2304687 0.33984375,-1.8632812 0.3359375,-2.6835938 v -0.28125 q 0,-0.8398437 0.30078125,-1.4765624 0.3046875,-0.640625 0.85546875,-0.9804688 0.5546875,-0.34375 1.265625,-0.34375 0.7109375,0 1.2617187,0.34375 0.5546875,0.3398438 0.8554688,0.9804688 0.3046875,0.6367187 0.3046875,1.4726562 z m -1.1875,-0.2578125 q 0,-0.8945312 -0.3203125,-1.3593749 -0.3203125,-0.4648438 -0.9140625,-0.4648438 -0.5898437,0 -0.9101563,0.4609375 -0.3203125,0.4570312 -0.3242187,1.34375 v 0.2773437 q 0,0.8710938 0.3203125,1.3515626 0.3203125,0.4804687 0.921875,0.4804687 0.5898438,0 0.90625,-0.4609375 0.3164063,-0.4648437 0.3203125,-1.3515625 z"/>
      <path id="path27467" style="font-weight:bold;font-size:8px;font-family:Roboto, sans-serif;letter-spacing:2px;fill:#333333" d="M 11.460938,-2.3242188 H 9.2109375 V 0 h -1.171875 v -5.6875 h 3.7031255 v 0.9492188 H 9.2109375 v 1.4687499 h 2.2500005 z"/>
      <path id="path27469" style="font-weight:bold;font-size:8px;font-family:Roboto, sans-serif;letter-spacing:2px;fill:#333333" d="M 17.851562,-2.3242188 H 15.601563 V 0 h -1.171875 v -5.6875 h 3.703124 v 0.9492188 h -2.531249 v 1.4687499 h 2.249999 z"/>
    </g>
  </g>
  <g transform="translate(90,273)" id="g27074">
    <g transform="translate(0,4)" id="g27070"/>
    <g class="input-label" style="font-weight:bold;font-size:8px;font-family:Roboto, sans-serif;letter-spacing:2px;fill:#333333" id="text27072" transform="translate(2.5,38)" aria-label="SCL">
      <path id="path27458" style="font-weight:bold;font-size:8px;font-family:Roboto, sans-serif;letter-spacing:2px;fill:#333333" d="m 3.4570313,-1.4921875 q 0,-0.3320312 -0.234375,-0.5078125 -0.234375,-0.1796875 -0.84375,-0.375 -0.6093751,-0.1992188 -0.9648438,-0.390625 -0.96875,-0.5234375 -0.96875,-1.4101562 0,-0.4609375 0.2578125,-0.8203125 Q 0.96484375,-5.359375 1.4492187,-5.5625 1.9375,-5.765625 2.5429688,-5.765625 q 0.609375,0 1.0859375,0.2226563 0.4765624,0.21875 0.7382812,0.6210937 0.265625,0.4023438 0.265625,0.9140625 h -1.171875 q 0,-0.390625 -0.2460937,-0.6054687 -0.2460938,-0.21875 -0.6914063,-0.21875 -0.4296875,0 -0.6679688,0.1835937 -0.2382812,0.1796875 -0.2382812,0.4765625 0,0.2773437 0.2773437,0.4648437 0.2812501,0.1875 0.8242188,0.3515625 1,0.3007813 1.4570312,0.7460938 0.4570313,0.4453125 0.4570313,1.109375 0,0.73828125 -0.5585938,1.16015625 Q 3.515625,0.078125 2.5703125,0.078125 q -0.65625,0 -1.1953125,-0.23828125 -0.5390625,-0.2421875 -0.82421875,-0.66015625 -0.28125,-0.4179687 -0.28125,-0.96875 H 1.4453125 q 0,0.94140625 1.125,0.94140625 0.4179688,0 0.6523438,-0.16796875 0.234375,-0.171875 0.234375,-0.4765625 z"/>
      <path id="path27460" style="font-weight:bold;font-size:8px;font-family:Roboto, sans-serif;letter-spacing:2px;fill:#333333" d="m 11.894531,-1.8945312 q -0.06641,0.9179687 -0.679687,1.44531245 Q 10.605469,0.078125 9.6054688,0.078125 q -1.09375,0 -1.7226563,-0.734375 -0.625,-0.7382812 -0.625,-2.0234375 v -0.3476563 q 0,-0.8203125 0.2890625,-1.4453124 0.2890625,-0.625 0.8242188,-0.9570313 0.5390625,-0.3359375 1.25,-0.3359375 0.9843752,0 1.5859372,0.5273438 0.601563,0.5273437 0.695313,1.4804687 h -1.171875 q -0.04297,-0.5507812 -0.308594,-0.796875 -0.261719,-0.25 -0.8007812,-0.25 -0.5859375,0 -0.8789063,0.421875 -0.2890625,0.4179687 -0.296875,1.3007812 v 0.4296875 q 0,0.9218751 0.2773438,1.3476563 0.28125,0.42578125 0.8828125,0.42578125 0.5429692,0 0.8085942,-0.24609375 0.269531,-0.25 0.308593,-0.7695312 z"/>
      <path id="path27462" style="font-weight:bold;font-size:8px;font-family:Roboto, sans-serif;letter-spacing:2px;fill:#333333" d="m 15.835938,-0.94140625 h 2.488281 V 0 h -3.660156 v -5.6875 h 1.171875 z"/>
    </g>
  </g>
  <g transform="translate(10,313)" id="g27080">
    <g transform="translate(4,5)" id="g27076"/>
    <g class="input-label" style="font-weight:bold;font-size:8px;font-family:Roboto, sans-serif;letter-spacing:1px;fill:#333333" id="text27078" transform="translate(2,40)" aria-label="V/OCT">
      <path id="path27447" style="font-weight:bold;font-size:8px;font-family:Roboto, sans-serif;letter-spacing:1px;fill:#333333" d="M 2.609375,-1.4101562 3.8984375,-5.6875 H 5.203125 L 3.2226563,0 H 2 L 0.02734375,-5.6875 H 1.328125 Z"/>
      <path id="path27449" style="font-weight:bold;font-size:8px;font-family:Roboto, sans-serif;letter-spacing:1px;fill:#333333" d="M 7.0234375,0.48828125 H 6.1835937 L 8.2773438,-5.6875 h 0.8398437 z"/>
      <path id="path27451" style="font-weight:bold;font-size:8px;font-family:Roboto, sans-serif;letter-spacing:1px;fill:#333333" d="m 15.398438,-2.7148438 q 0,0.8398438 -0.296875,1.4726563 -0.296875,0.6328125 -0.851563,0.9765625 -0.550781,0.34375 -1.265625,0.34375 -0.707031,0 -1.261719,-0.33984375 -0.554687,-0.33984375 -0.859375,-0.96874995 -0.304687,-0.6328125 -0.308593,-1.4531251 v -0.28125 q 0,-0.8398437 0.300781,-1.4765624 0.304687,-0.640625 0.855469,-0.9804688 0.554687,-0.34375 1.265625,-0.34375 0.710937,0 1.261718,0.34375 0.554688,0.3398438 0.855469,0.9804688 0.304688,0.6367187 0.304688,1.4726562 z m -1.1875,-0.2578125 q 0,-0.8945312 -0.320313,-1.3593749 -0.320312,-0.4648438 -0.914062,-0.4648438 -0.589844,0 -0.910157,0.4609375 -0.320312,0.4570312 -0.324218,1.34375 v 0.2773437 q 0,0.8710938 0.320312,1.3515626 0.320313,0.4804687 0.921875,0.4804687 0.589844,0 0.90625,-0.4609375 0.316406,-0.4648437 0.320313,-1.3515625 z"/>
      <path id="path27453" style="font-weight:bold;font-size:8px;font-family:Roboto, sans-serif;letter-spacing:1px;fill:#333333" d="m 21.722656,-1.8945312 q -0.06641,0.9179687 -0.679687,1.44531245 -0.609375,0.52734375 -1.609375,0.52734375 -1.09375,0 -1.722657,-0.734375 -0.625,-0.7382812 -0.625,-2.0234375 v -0.3476563 q 0,-0.8203125 0.289063,-1.4453124 0.289062,-0.625 0.824219,-0.9570313 0.539062,-0.3359375 1.25,-0.3359375 0.984375,0 1.585937,0.5273438 0.601563,0.5273437 0.695313,1.4804687 h -1.171875 q -0.04297,-0.5507812 -0.308594,-0.796875 -0.261719,-0.25 -0.800781,-0.25 -0.585938,0 -0.878907,0.421875 -0.289062,0.4179687 -0.296875,1.3007812 v 0.4296875 q 0,0.9218751 0.277344,1.3476563 0.28125,0.42578125 0.882813,0.42578125 0.542968,0 0.808593,-0.24609375 0.269532,-0.25 0.308594,-0.7695312 z"/>
      <path id="path27455" style="font-weight:bold;font-size:8px;font-family:Roboto, sans-serif;letter-spacing:1px;fill:#333333" d="M 27.664062,-4.7382812 H 25.921875 V 0 H 24.75 V -4.7382812 H 23.03125 V -5.6875 h 4.632812 z"/>
    </g>
  </g>
  <g transform="translate(50,313)" id="g27086">
    <g transform="translate(2,5)" id="g27082"/>
    <g class="input-label" style="font-weight:bold;font-size:8px;font-family:Roboto, sans-serif;letter-spacing:1px;fill:#333333" id="text27084" transform="translate(0,40)" aria-label="RESET">
      <path id="path27436" style="font-weight:bold;font-size:8px;font-family:Roboto, sans-serif;letter-spacing:1px;fill:#333333" d="M 2.6132813,-2.0820313 H 1.6796875 V 0 h -1.171875 v -5.6875 h 2.1132813 q 1.0078125,0 1.5546874,0.4492188 0.546875,0.4492187 0.546875,1.2695312 0,0.5820312 -0.2539062,0.9726562 -0.25,0.3867188 -0.7617187,0.6171875 L 4.9375,-0.0546875 V 0 H 3.6796875 Z M 1.6796875,-3.03125 H 2.625 q 0.4414063,0 0.6835938,-0.2226563 0.2421875,-0.2265625 0.2421875,-0.6210937 0,-0.4023437 -0.2304688,-0.6328125 Q 3.09375,-4.7382812 2.6210938,-4.7382812 H 1.6796875 Z"/>
      <path id="path27438" style="font-weight:bold;font-size:8px;font-family:Roboto, sans-serif;letter-spacing:1px;fill:#333333" d="M 10.039063,-2.4648438 H 7.7890625 v 1.52343755 H 10.429688 V 0 H 6.6171875 v -5.6875 h 3.8046875 v 0.9492188 H 7.7890625 v 1.3554687 h 2.2500005 z"/>
      <path id="path27440" style="font-weight:bold;font-size:8px;font-family:Roboto, sans-serif;letter-spacing:1px;fill:#333333" d="m 15.066406,-1.4921875 q 0,-0.3320312 -0.234375,-0.5078125 -0.234375,-0.1796875 -0.84375,-0.375 -0.609375,-0.1992188 -0.964843,-0.390625 -0.96875,-0.5234375 -0.96875,-1.4101562 0,-0.4609375 0.257812,-0.8203125 0.261719,-0.3632813 0.746094,-0.5664063 0.488281,-0.203125 1.09375,-0.203125 0.609375,0 1.085937,0.2226563 0.476563,0.21875 0.738282,0.6210937 0.265624,0.4023438 0.265624,0.9140625 h -1.171874 q 0,-0.390625 -0.246094,-0.6054687 -0.246094,-0.21875 -0.691406,-0.21875 -0.429688,0 -0.667969,0.1835937 -0.238281,0.1796875 -0.238281,0.4765625 0,0.2773437 0.277343,0.4648437 0.28125,0.1875 0.824219,0.3515625 1,0.3007813 1.457031,0.7460938 0.457031,0.4453125 0.457031,1.109375 0,0.73828125 -0.558593,1.16015625 Q 15.125,0.078125 14.179688,0.078125 q -0.65625,0 -1.195313,-0.23828125 -0.539062,-0.2421875 -0.824219,-0.66015625 -0.28125,-0.4179687 -0.28125,-0.96875 h 1.175782 q 0,0.94140625 1.125,0.94140625 0.417968,0 0.652343,-0.16796875 0.234375,-0.171875 0.234375,-0.4765625 z"/>
      <path id="path27442" style="font-weight:bold;font-size:8px;font-family:Roboto, sans-serif;letter-spacing:1px;fill:#333333" d="m 21.460937,-2.4648438 h -2.25 v 1.52343755 h 2.640625 V 0 h -3.8125 v -5.6875 h 3.804688 v 0.9492188 h -2.632813 v 1.3554687 h 2.25 z"/>
      <path id="path27444" style="font-weight:bold;font-size:8px;font-family:Roboto, sans-serif;letter-spacing:1px;fill:#333333" d="M 27.898437,-4.7382812 H 26.15625 V 0 h -1.171875 v -4.7382812 h -1.71875 V -5.6875 h 4.632812 z"/>
    </g>
  </g>
</svg>
