<?xml version="1.0" encoding="UTF-8" standalone="no"?>
<svg
   xmlns:dc="http://purl.org/dc/elements/1.1/"
   xmlns:cc="http://creativecommons.org/ns#"
   xmlns:rdf="http://www.w3.org/1999/02/22-rdf-syntax-ns#"
   xmlns:svg="http://www.w3.org/2000/svg"
   xmlns="http://www.w3.org/2000/svg"
   xmlns:sodipodi="http://sodipodi.sourceforge.net/DTD/sodipodi-0.dtd"
   xmlns:inkscape="http://www.inkscape.org/namespaces/inkscape"
   version="1.1"
   width="45"
   height="380"
   viewBox="0 0 45 380"
   id="svg110"
   sodipodi:docname="svg_render_tmp.svg"
   inkscape:version="0.92.2 5c3e80d, 2017-08-06">
  <metadata
     id="metadata114">
    <rdf:RDF>
      <cc:Work
         rdf:about="">
        <dc:format>image/svg+xml</dc:format>
        <dc:type
           rdf:resource="http://purl.org/dc/dcmitype/StillImage" />
      </cc:Work>
    </rdf:RDF>
  </metadata>
  <sodipodi:namedview
     pagecolor="#ffffff"
     bordercolor="#666666"
     borderopacity="1"
     objecttolerance="10"
     gridtolerance="10"
     guidetolerance="10"
     inkscape:pageopacity="0"
     inkscape:pageshadow="2"
     inkscape:window-width="468"
     inkscape:window-height="449"
     id="namedview112"
     showgrid="false"
     inkscape:zoom="0.62105263"
     inkscape:cx="22.5"
     inkscape:cy="190"
     inkscape:window-x="0"
     inkscape:window-y="0"
     inkscape:window-maximized="0"
     inkscape:current-layer="svg110" />
  <style
     id="style2">
    text {
      fill: #333;
      font-family: 'Roboto', sans-serif;
      font-weight: bold;
    }
    text.title {
      font-family: 'Comfortaa', sans-serif;
      font-weight: normal;
    }
    text.brand {
      font-family: 'Audiowide', sans-serif;
      font-weight: bold;
    }
  </style>
  <defs
     id="defs54">
    <symbol
       id="knob"
       viewBox="0 0 45px 45px">
      <g
         transform="translate(22.5 22.5)"
         id="g10">
        <polyline
           points="-5,0 5,0"
           stroke-width="1"
           stroke="#00f"
           id="polyline4" />
        <polyline
           points="0,-5 0,5"
           stroke-width="1"
           stroke="#00f"
           id="polyline6" />
        <circle
           cx="0"
           cy="0"
           r="14"
           stroke-width="1"
           stroke="#00f"
           fill="none"
           id="circle8" />
      </g>
    </symbol>
    <symbol
       id="knobguide-eq"
       viewBox="0 0 45px 45px">
      <g
         transform="translate(22.5 22.5)"
         id="g37">
        <text
           font-size="5.0pt"
           transform="rotate(-240) translate(20 0) rotate(240) translate(-6 3)"
           id="text13">-36</text>
        <polyline
           points="0,0 2.5,0"
           stroke-width="0.3"
           stroke="#333"
           transform="rotate(-215) translate(17 0)"
           id="polyline15" />
        <polyline
           points="0,0 3,0"
           stroke-width="0.7"
           stroke="#333"
           transform="rotate(-190) translate(17 0)"
           id="polyline17" />
        <polyline
           points="0,0 2.5,0"
           stroke-width="0.3"
           stroke="#333"
           transform="rotate(-165) translate(17 0)"
           id="polyline19" />
        <polyline
           points="0,0 3,0"
           stroke-width="0.7"
           stroke="#333"
           transform="rotate(-140) translate(17 0)"
           id="polyline21" />
        <polyline
           points="0,0 2.5,0"
           stroke-width="0.3"
           stroke="#333"
           transform="rotate(-115) translate(17 0)"
           id="polyline23" />
        <text
           font-size="5.0pt"
           transform="rotate(-90) translate(20 0) rotate(90) translate(-1.9 3)"
           id="text25">0</text>
        <polyline
           points="0,0 2.5,0"
           stroke-width="0.3"
           stroke="#333"
           transform="rotate(-52.5) translate(17 0)"
           id="polyline27" />
        <polyline
           points="0,0 3,0"
           stroke-width="0.7"
           stroke="#333"
           transform="rotate(-15) translate(17 0)"
           id="polyline29" />
        <polyline
           points="0,0 2.5,0"
           stroke-width="0.3"
           stroke="#333"
           transform="rotate(22.5) translate(17 0)"
           id="polyline31" />
        <text
           font-size="5.0pt"
           transform="rotate(60) translate(20 0) rotate(-60) translate(-3.5 3)"
           id="text33">12</text>
        <text
           font-size="5.0pt"
           transform="rotate(90) translate(20 0) rotate(-90) translate(-4 3)"
           id="text35">dB</text>
      </g>
    </symbol>
    <symbol
       id="input"
       viewBox="0 0 24px 24px">
      <g
         transform="translate(12 12)"
         id="g44">
        <circle
           cx="0"
           cy="0"
           r="5"
           stroke-width="1"
           stroke="#0f0"
           fill="#0f0"
           id="circle40" />
        <circle
           cx="0"
           cy="0"
           r="10.5"
           stroke-width="3"
           stroke="#0f0"
           fill="none"
           id="circle42" />
      </g>
    </symbol>
    <symbol
       id="output"
       viewBox="0 0 24px 24px">
      <g
         transform="translate(12 12)"
         id="g51">
        <circle
           cx="0"
           cy="0"
           r="5"
           stroke-width="1"
           stroke="#f00"
           fill="#f00"
           id="circle47" />
        <circle
           cx="0"
           cy="0"
           r="10.5"
           stroke-width="3"
           stroke="#f00"
           fill="none"
           id="circle49" />
      </g>
    </symbol>
  </defs>
  <path
     style="fill:#dddddd"
     d="M 0,0 H 45 V 380 H 0 Z"
     id="rect56" />
  <path
     style="fill:none;stroke:#e4e4e4;stroke-width:0.5"
     d="M 1,1 H 44 V 379 H 1 V 1"
     id="polyline58" />
  <path
     style="fill:none;stroke:#ebebeb;stroke-width:0.80000001"
     d="m 0.5,0.5 h 44 v 379 H 0.5 V 0.5"
     id="polyline60" />
  <path
     style="fill:none;stroke:#f2f2f2;stroke-width:1"
     d="M 0,0 H 45 V 380 H 0 V 0"
     id="polyline62" />
  <g
     aria-label="EQ"
     transform="rotate(-90)"
     style="font-weight:normal;font-size:9.33333302px;font-family:Comfortaa, sans-serif;letter-spacing:2.5px;fill:#333333"
     id="text64">
    <path
       d="m -374.70267,13 q -0.14933,0 -0.26133,-0.102667 -0.10267,-0.112 -0.10267,-0.261333 V 6.0746669 q 0,-0.1586667 0.10267,-0.2613333 0.112,-0.1026667 0.26133,-0.1026667 h 4.37734 q 0.15866,0 0.26133,0.1026667 0.10267,0.1026666 0.10267,0.252 0,0.1493333 -0.10267,0.252 -0.10267,0.093333 -0.26133,0.093333 h -4.01334 v 2.5759999 h 2.92134 q 0.15866,0 0.26133,0.1026667 0.10267,0.1026666 0.10267,0.252 0,0.1493333 -0.112,0.2519999 -0.10267,0.1026667 -0.252,0.1026667 h -2.92134 V 12.3 h 4.01334 q 0.15866,0 0.26133,0.102667 0.10267,0.09333 0.10267,0.242666 0,0.149334 -0.10267,0.252 Q -370.16667,13 -370.32533,13 Z"
       style="font-weight:normal;font-size:9.33333302px;font-family:Comfortaa, sans-serif;letter-spacing:2.5px;fill:#333333"
       id="path222" />
    <path
       d="m -359.49621,12.393333 q 0.10267,0.102667 0.10267,0.242667 0,0.149333 -0.10267,0.252 -0.112,0.112 -0.252,0.112 -0.14,0 -0.252,-0.112 l -0.49467,-0.494667 q -0.46666,0.336 -1.04533,0.522667 -0.56933,0.177333 -1.204,0.177333 -1.064,0 -1.91333,-0.485333 -0.84934,-0.485333 -1.33467,-1.334667 -0.476,-0.858666 -0.476,-1.9226662 0,-1.064 0.476,-1.9133333 0.48533,-0.8493333 1.33467,-1.3346666 0.84933,-0.4853333 1.91333,-0.4853333 1.05467,0 1.904,0.4853333 0.85867,0.4853333 1.33467,1.3346666 0.48533,0.8493333 0.48533,1.9133333 0,0.7560002 -0.252,1.4186662 -0.24267,0.653334 -0.7,1.148 z m -3.248,0.0093 q 0.98933,0 1.72667,-0.522667 l -0.99867,-0.998667 q -0.112,-0.112 -0.112,-0.252 0,-0.14 0.112,-0.252 0.10267,-0.102666 0.24267,-0.102666 0.14933,0 0.252,0.102666 l 1.036,1.036 q 0.35466,-0.410666 0.55066,-0.942666 0.196,-0.5320002 0.196,-1.1200002 0,-0.8493333 -0.392,-1.54 -0.392,-0.6999999 -1.08266,-1.1013333 -0.68134,-0.4013333 -1.53067,-0.4013333 -0.85867,0 -1.54933,0.4013333 -0.68134,0.4013334 -1.07334,1.1013333 -0.392,0.6906667 -0.392,1.54 0,0.8586662 0.392,1.5586662 0.392,0.690667 1.07334,1.092 0.69066,0.401334 1.54933,0.401334 z"
       style="font-weight:normal;font-size:9.33333302px;font-family:Comfortaa, sans-serif;letter-spacing:2.5px;fill:#333333"
       id="path224" />
  </g>
  <g
     id="g70"
     transform="rotate(-90,200.5,175.5)">
    <g
       aria-label="BGA"
       style="font-weight:bold;font-size:9.33333302px;font-family:Audiowide, sans-serif;letter-spacing:2px;fill:#333333"
       id="text66">
      <path
         d="m 7.2096352,-1.4355468 q 0,0.21875 -0.077474,0.469401 -0.072917,0.25065103 -0.2460937,0.46484373 -0.1686198,0.2141927 -0.4420573,0.36002603 Q 6.1705727,0 5.7740883,0 H 1.2760416 Q 1.1484375,0 1.0390625,-0.04557292 0.92968747,-0.09114583 0.84765622,-0.16861979 q -0.077474,-0.0820312 -0.12304687,-0.19140624 -0.0455729,-0.109375 -0.0455729,-0.23697916 V -5.9381508 q 0,-0.1230469 0.0455729,-0.2324219 0.0455729,-0.109375 0.12304687,-0.1914062 0.0820313,-0.082031 0.19140628,-0.1276042 0.109375,-0.045573 0.2369791,-0.045573 h 3.9648436 q 0.21875,0 0.4694011,0.077474 0.250651,0.077474 0.4648437,0.2506511 0.21875,0.1686197 0.360026,0.4420572 0.1458334,0.2734375 0.1458334,0.6699219 v 0.2233073 q 0,0.3144531 -0.1048177,0.6790364 -0.1048178,0.360026 -0.3372396,0.6835937 0.2005208,0.1230469 0.3736979,0.296224 0.1777344,0.1731771 0.3098958,0.4010416 0.1321615,0.2278646 0.2096354,0.514974 0.077474,0.2871093 0.077474,0.6334635 z M 6.0247394,-1.6634114 q 0,-0.2324219 -0.072917,-0.4147135 Q 5.878906,-2.2649739 5.7467446,-2.3971353 5.6145831,-2.5292968 5.4277342,-2.5976562 5.2408852,-2.6705728 5.0084634,-2.6705728 H 2.3378905 v -1.1940104 h 2.1373698 q 0.2324218,0 0.4192708,-0.068359 0.1868489,-0.072917 0.3190104,-0.2050781 0.1321614,-0.1321614 0.2005208,-0.3144531 0.072917,-0.186849 0.072917,-0.4192708 v -0.2233073 q 0,-0.2552083 -0.2460938,-0.2552083 h -3.376953 v 4.1653644 h 3.9101561 q 0.031901,0 0.077474,-0.00456 0.045573,-0.00456 0.082031,-0.027344 0.036458,-0.022787 0.063802,-0.077474 0.027344,-0.054687 0.027344,-0.1503906 z"
         style="font-weight:bold;font-size:9.33333302px;font-family:Audiowide, sans-serif;letter-spacing:2px;fill:#333333"
         id="path227" />
      <path
         d="m 16.683594,-0.59700519 q 0,0.12760416 -0.04557,0.23697916 -0.04557,0.109375 -0.127605,0.19140624 -0.07747,0.07747396 -0.186849,0.12304687 Q 16.214192,0 16.086588,0 h -4.274739 q -0.164063,0 -0.355469,-0.03645833 -0.186849,-0.04101563 -0.373698,-0.12304687 -0.182291,-0.0820313 -0.350911,-0.20963541 -0.16862,-0.13216146 -0.300781,-0.31445312 -0.127605,-0.18684895 -0.205079,-0.42838537 -0.07747,-0.2460938 -0.07747,-0.5514323 v -3.2083332 q 0,-0.1640625 0.03646,-0.3509115 0.04101,-0.1914062 0.123047,-0.3736979 0.08203,-0.1868489 0.214192,-0.3554687 0.132162,-0.1686198 0.314453,-0.296224 0.186849,-0.1321614 0.428386,-0.2096354 0.241536,-0.077474 0.546875,-0.077474 h 4.817057 v 1.1848958 h -4.817057 q -0.232422,0 -0.355469,0.1230468 -0.123047,0.1230469 -0.123047,0.3645834 v 3.1992186 q 0,0.2278646 0.123047,0.3554687 0.127604,0.1230469 0.355469,0.1230469 h 3.686849 v -1.485677 h -3.153646 v -1.1940104 h 3.741536 q 0.127604,0 0.236979,0.05013 0.109375,0.045573 0.186849,0.1276042 0.08203,0.082031 0.127605,0.1914062 0.04557,0.1048177 0.04557,0.2278646 z"
         style="font-weight:bold;font-size:9.33333302px;font-family:Audiowide, sans-serif;letter-spacing:2px;fill:#333333"
         id="path229" />
      <path
         d="M 26.339842,0 H 25.154946 V -1.6041666 H 20.989582 V 0 h -1.184896 v -3.267578 q 0,-0.7154948 0.246094,-1.3170573 0.246094,-0.6015624 0.683594,-1.0345051 0.4375,-0.4329427 1.034505,-0.6744792 0.597005,-0.2415364 1.303385,-0.2415364 h 2.670573 q 0.123047,0 0.232422,0.045573 0.109375,0.045573 0.191406,0.1276042 0.08203,0.082031 0.127604,0.1914062 0.04557,0.109375 0.04557,0.2324219 z m -5.35026,-2.7890624 h 4.165364 v -2.5611978 h -2.082682 q -0.05469,0 -0.232422,0.018229 -0.173177,0.013672 -0.405599,0.077474 -0.227864,0.063802 -0.483072,0.1959635 -0.255209,0.1321615 -0.469402,0.3645833 -0.214192,0.2324219 -0.355468,0.5833334 -0.136719,0.3463541 -0.136719,0.8430989 z"
         style="font-weight:bold;font-size:9.33333302px;font-family:Audiowide, sans-serif;letter-spacing:2px;fill:#333333"
         id="path231" />
    </g>
    <path
       transform="translate(11.5,-5)"
       style="fill:#dddddd"
       d="M 0,0 H 3 V 3 H 0 Z"
       id="rect68" />
  </g>
  <g
     aria-label="LOW"
     style="font-weight:bold;font-size:8px;font-family:Roboto, sans-serif;letter-spacing:2px;fill:#333333"
     id="text74">
    <path
       d="m 14.179688,35.058594 h 2.488281 V 36 h -3.660156 v -5.6875 h 1.171875 z"
       style="font-weight:bold;font-size:8px;font-family:Roboto, sans-serif;letter-spacing:2px;fill:#333333"
       id="path235" />
    <path
       d="m 23.757812,33.285156 q 0,0.839844 -0.296875,1.472656 -0.296875,0.632813 -0.851562,0.976563 -0.550781,0.34375 -1.265625,0.34375 -0.707031,0 -1.261719,-0.339844 -0.554687,-0.339844 -0.859375,-0.96875 -0.304687,-0.632812 -0.308594,-1.453125 v -0.28125 q 0,-0.839844 0.300782,-1.476562 0.304687,-0.640625 0.855468,-0.980469 0.554688,-0.34375 1.265625,-0.34375 0.710938,0 1.261719,0.34375 0.554688,0.339844 0.855469,0.980469 0.304687,0.636718 0.304687,1.472656 z m -1.1875,-0.257812 q 0,-0.894532 -0.320312,-1.359375 -0.320313,-0.464844 -0.914063,-0.464844 -0.589843,0 -0.910156,0.460937 -0.320312,0.457032 -0.324219,1.34375 v 0.277344 q 0,0.871094 0.320313,1.351563 0.320312,0.480468 0.921875,0.480468 0.589844,0 0.90625,-0.460937 0.316406,-0.464844 0.320312,-1.351563 z"
       style="font-weight:bold;font-size:8px;font-family:Roboto, sans-serif;letter-spacing:2px;fill:#333333"
       id="path237" />
    <path
       d="M 31.046875,34.359375 31.8125,30.3125 h 1.167969 L 31.71875,36 H 30.539062 L 29.613281,32.195312 28.6875,36 h -1.179688 l -1.261718,-5.6875 h 1.167968 l 0.769532,4.039062 0.9375,-4.039062 h 0.992187 z"
       style="font-weight:bold;font-size:8px;font-family:Roboto, sans-serif;letter-spacing:2px;fill:#333333"
       id="path239" />
  </g>
  <g
     id="use76"
     transform="translate(0,39)">
    <g
       id="g214"
       transform="translate(22.5,22.5)">
      <g
         aria-label="-36"
         transform="translate(-16,20.320508)"
         style="font-weight:bold;font-size:6.66666651px;font-family:Roboto, sans-serif;fill:#333333"
         id="text190">
        <path
           d="M 2.1907552,-1.6503906 H 0.35807291 V -2.4088541 H 2.1907552 Z"
           style="font-weight:bold;font-size:6.66666651px;font-family:Roboto, sans-serif;fill:#333333"
           id="path242" />
        <path
           d="m 3.8704426,-2.7864583 h 0.5013021 q 0.3580729,0 0.5305989,-0.1790364 0.1725261,-0.1790365 0.1725261,-0.4752604 0,-0.2864584 -0.1725261,-0.4459636 -0.1692708,-0.1595052 -0.46875,-0.1595052 -0.2701823,0 -0.4524739,0.1497396 Q 3.798828,-3.7499999 3.798828,-3.5123697 H 2.8580728 q 0,-0.3710937 0.1985677,-0.6640625 0.2018229,-0.2962239 0.5598959,-0.4622396 0.3613281,-0.1660156 0.7942708,-0.1660156 0.7519531,0 1.1783854,0.3613281 0.4264322,0.3580729 0.4264322,0.9895833 0,0.3255209 -0.1985677,0.5989584 -0.1985677,0.2734375 -0.5208333,0.4199218 0.4003906,0.1432292 0.5957031,0.4296875 0.1985677,0.2864583 0.1985677,0.6770833 0,0.63151043 -0.4622395,1.0123698 -0.4589844,0.38085937 -1.2174479,0.38085937 -0.7096354,0 -1.1621094,-0.37434895 Q 2.7994791,-0.68359373 2.7994791,-1.2988281 h 0.9407552 q 0,0.2669271 0.1985677,0.43619791 0.2018229,0.16927083 0.4947916,0.16927083 0.3352865,0 0.5240886,-0.17578124 0.1920572,-0.1790365 0.1920572,-0.4720052 0,-0.7096354 -0.7812499,-0.7096354 H 3.8704426 Z"
           style="font-weight:bold;font-size:6.66666651px;font-family:Roboto, sans-serif;fill:#333333"
           id="path244" />
        <path
           d="m 9.2936194,-4.7884113 v 0.7747395 h -0.091146 q -0.6380208,0.00977 -1.0286458,0.3320313 -0.3873698,0.3222656 -0.4654948,0.8951822 0.3776041,-0.3841145 0.953776,-0.3841145 0.6184896,0 0.9830729,0.4427083 0.3645831,0.4427083 0.3645831,1.1653645 0,0.4622396 -0.2018227,0.83658856 -0.1985677,0.37434895 -0.5664062,0.58268228 -0.3645834,0.20833333 -0.8268229,0.20833333 -0.7486979,0 -1.2109375,-0.52083333 Q 6.7447913,-0.97656248 6.7447913,-1.8457031 v -0.3385416 q 0,-0.7714844 0.2897136,-1.3606771 0.2929687,-0.5924479 0.8365885,-0.9147135 0.546875,-0.3255208 1.266276,-0.328776 z m -0.9179687,2.3730468 q -0.2278646,0 -0.4134115,0.1204427 -0.1855468,0.1171875 -0.2734375,0.3125 v 0.2864583 q 0,0.4720052 0.1855469,0.73893227 0.1855469,0.26367187 0.5208333,0.26367187 0.3027344,0 0.4882813,-0.2376302 0.188802,-0.24088544 0.188802,-0.62174474 0,-0.3873698 -0.188802,-0.625 -0.1888021,-0.2376302 -0.5078125,-0.2376302 z"
           style="font-weight:bold;font-size:6.66666651px;font-family:Roboto, sans-serif;fill:#333333"
           id="path246" />
      </g>
      <path
         transform="rotate(145,-8.5,2.6800397)"
         style="stroke:#333333;stroke-width:0.30000001"
         d="M 0,0 H 2.5"
         id="polyline192" />
      <path
         transform="rotate(170,-8.5,0.74365364)"
         style="stroke:#333333;stroke-width:0.69999999"
         d="M 0,0 H 3"
         id="polyline194" />
      <path
         transform="rotate(-165,-8.5,-1.1190462)"
         style="stroke:#333333;stroke-width:0.30000001"
         d="M 0,0 H 2.5"
         id="polyline196" />
      <path
         transform="rotate(-140,-8.5,-3.093747)"
         style="stroke:#333333;stroke-width:0.69999999"
         d="M 0,0 H 3"
         id="polyline198" />
      <path
         transform="rotate(-115,-8.5,-5.4150972)"
         style="stroke:#333333;stroke-width:0.30000001"
         d="M 0,0 H 2.5"
         id="polyline200" />
      <g
         aria-label="0"
         transform="translate(-1.9,-17)"
         style="font-weight:bold;font-size:6.66666651px;font-family:Roboto, sans-serif;fill:#333333"
         id="text202">
        <path
           d="m 3.5123697,-1.9596354 q 0,0.98307292 -0.406901,1.50390624 -0.4069011,0.52083333 -1.1914062,0.52083333 -0.7747396,0 -1.18489585,-0.5110677 -0.41015624,-0.5110677 -0.41992187,-1.46484367 v -0.8723959 q 0,-0.9928385 0.41015624,-1.5071614 0.41341148,-0.5143229 1.18815098,-0.5143229 0.7747396,0 1.1848958,0.5110677 0.4101563,0.5078125 0.4199219,1.4615885 z M 2.5716145,-2.9166666 q 0,-0.5891927 -0.1627604,-0.8561198 -0.1595052,-0.2701823 -0.5013021,-0.2701823 -0.3320312,0 -0.4915364,0.2571615 Q 1.2597656,-3.531901 1.25,-2.9882812 v 1.1523437 q 0,0.5794271 0.15625,0.86263023 0.1595052,0.27994791 0.5078125,0.27994791 0.345052,0 0.4980468,-0.27018228 0.1529948,-0.27018226 0.1595052,-0.82682286 z"
           style="font-weight:bold;font-size:6.66666651px;font-family:Roboto, sans-serif;fill:#333333"
           id="path254" />
      </g>
      <path
         transform="rotate(-52.5,-8.5,-17.236295)"
         style="stroke:#333333;stroke-width:0.30000001"
         d="M 0,0 H 2.5"
         id="polyline204" />
      <path
         transform="rotate(-15,-8.5,-64.56391)"
         style="stroke:#333333;stroke-width:0.69999999"
         d="M 0,0 H 3"
         id="polyline206" />
      <path
         transform="rotate(22.5,-8.5,42.732386)"
         style="stroke:#333333;stroke-width:0.30000001"
         d="M 0,0 H 2.5"
         id="polyline208" />
      <g
         aria-label="12"
         transform="translate(6.5,20.320508)"
         style="font-weight:bold;font-size:6.66666651px;font-family:Roboto, sans-serif;fill:#333333"
         id="text210">
        <path
           d="M 2.6074218,0 H 1.6666666 v -3.626302 l -1.12304682,0.3483073 v -0.764974 L 2.5065104,-4.7460936 h 0.1009114 z"
           style="font-weight:bold;font-size:6.66666651px;font-family:Roboto, sans-serif;fill:#333333"
           id="path260" />
        <path
           d="M 7.3990885,0 H 4.1503906 V -0.64453123 L 5.6835937,-2.2786458 q 0.3157552,-0.3450521 0.4654948,-0.6022135 0.1529948,-0.2571615 0.1529948,-0.4882812 0,-0.3157552 -0.1595052,-0.4947917 -0.1595052,-0.1822917 -0.4557292,-0.1822917 -0.3190104,0 -0.5045573,0.2213542 Q 5,-3.6067707 5,-3.2486978 H 4.0559896 q 0,-0.4329427 0.2050781,-0.7910156 0.2083333,-0.358073 0.5859375,-0.5598959 0.3776041,-0.2050781 0.8561198,-0.2050781 0.7324218,0 1.1360676,0.3515625 0.4069011,0.3515625 0.4069011,0.9928385 0,0.3515625 -0.1822917,0.7161458 -0.1822917,0.3645834 -0.625,0.8496094 l -1.0774739,1.13606768 h 2.0377604 z"
           style="font-weight:bold;font-size:6.66666651px;font-family:Roboto, sans-serif;fill:#333333"
           id="path262" />
      </g>
      <g
         aria-label="dB"
         transform="translate(-4,23)"
         style="font-weight:bold;font-size:6.66666651px;font-family:Roboto, sans-serif;fill:#333333"
         id="text212">
        <path
           d="m 0.21484374,-1.7871093 q 0,-0.8235677 0.36783854,-1.311849 0.37109374,-0.4882812 1.01236972,-0.4882812 0.5143229,0 0.8496094,0.3841146 v -1.796875 H 3.3886718 V 0 H 2.5390624 L 2.4934895,-0.37434895 Q 2.141927,0.06510417 1.5885416,0.06510417 q -0.62174475,0 -0.99934891,-0.48828124 Q 0.21484374,-0.91471352 0.21484374,-1.7871093 Z M 1.1555989,-1.71875 q 0,0.4947917 0.1725261,0.75846356 0.172526,0.26367187 0.501302,0.26367187 0.4361979,0 0.6152344,-0.36783853 V -2.454427 q -0.1757812,-0.3678386 -0.6087239,-0.3678386 -0.6803386,0 -0.6803386,1.1035156 z"
           style="font-weight:bold;font-size:6.66666651px;font-family:Roboto, sans-serif;fill:#333333"
           id="path265" />
        <path
           d="M 4.1861978,0 V -4.7395832 H 5.846354 q 0.8626302,0 1.3085938,0.3320312 0.4459635,0.3287761 0.4459635,0.9667969 0,0.3483073 -0.1790365,0.6152343 -0.1790364,0.2636719 -0.4980468,0.3873698 0.3645833,0.091146 0.5729166,0.3678385 0.2115886,0.2766928 0.2115886,0.6770834 0,0.6835937 -0.4361979,1.03515619 Q 6.8359373,-0.00651042 6.0286457,0 Z m 0.9765625,-2.063802 v 1.27929681 h 0.8365885 q 0.3450521,0 0.5371094,-0.16276041 0.1953125,-0.1660156 0.1953125,-0.4557292 0,-0.6510416 -0.6738281,-0.6608072 z m 0,-0.6901042 h 0.7226562 q 0.7389323,-0.013021 0.7389323,-0.5891927 0,-0.3222656 -0.1888021,-0.4622396 Q 6.2499999,-3.9485676 5.846354,-3.9485676 H 5.1627603 Z"
           style="font-weight:bold;font-size:6.66666651px;font-family:Roboto, sans-serif;fill:#333333"
           id="path267" />
      </g>
    </g>
  </g>
  <g
     aria-label="MID"
     style="font-weight:bold;font-size:8px;font-family:Roboto, sans-serif;letter-spacing:2px;fill:#333333"
     id="text80">
    <path
       d="M 15.539063,108.3125 17,112.4375 l 1.453125,-4.125 h 1.539062 V 114 h -1.175781 v -1.55469 L 18.933594,109.76172 17.398437,114 H 16.59375 l -1.53125,-4.23437 0.117188,2.67968 V 114 h -1.171875 v -5.6875 z"
       style="font-weight:bold;font-size:8px;font-family:Roboto, sans-serif;letter-spacing:2px;fill:#333333"
       id="path270" />
    <path
       d="m 24.269531,114 h -1.171875 v -5.6875 h 1.171875 z"
       style="font-weight:bold;font-size:8px;font-family:Roboto, sans-serif;letter-spacing:2px;fill:#333333"
       id="path272" />
    <path
       d="m 27.351562,114 v -5.6875 h 1.75 q 0.75,0 1.339844,0.33984 0.59375,0.33594 0.925781,0.96094 0.332032,0.6211 0.332032,1.41406 v 0.26172 q 0,0.79297 -0.328125,1.41016 -0.324219,0.61719 -0.917969,0.95703 -0.59375,0.33984 -1.339844,0.34375 z m 1.171875,-4.73828 v 3.79687 h 0.566407 q 0.6875,0 1.050781,-0.44921 0.363281,-0.44922 0.371094,-1.28516 v -0.30078 q 0,-0.86719 -0.359375,-1.3125 -0.359375,-0.44922 -1.050782,-0.44922 z"
       style="font-weight:bold;font-size:8px;font-family:Roboto, sans-serif;letter-spacing:2px;fill:#333333"
       id="path274" />
  </g>
  <g
     id="use82"
     transform="translate(0,117)">
    <g
       id="g186"
       transform="translate(22.5,22.5)">
      <g
         aria-label="-36"
         transform="translate(-16,20.320508)"
         style="font-weight:bold;font-size:6.66666651px;font-family:Roboto, sans-serif;fill:#333333"
         id="text162">
        <path
           d="M 2.1907552,-1.6503906 H 0.35807291 V -2.4088541 H 2.1907552 Z"
           style="font-weight:bold;font-size:6.66666651px;font-family:Roboto, sans-serif;fill:#333333"
           id="path277" />
        <path
           d="m 3.8704426,-2.7864583 h 0.5013021 q 0.3580729,0 0.5305989,-0.1790364 0.1725261,-0.1790365 0.1725261,-0.4752604 0,-0.2864584 -0.1725261,-0.4459636 -0.1692708,-0.1595052 -0.46875,-0.1595052 -0.2701823,0 -0.4524739,0.1497396 Q 3.798828,-3.7499999 3.798828,-3.5123697 H 2.8580728 q 0,-0.3710937 0.1985677,-0.6640625 0.2018229,-0.2962239 0.5598959,-0.4622396 0.3613281,-0.1660156 0.7942708,-0.1660156 0.7519531,0 1.1783854,0.3613281 0.4264322,0.3580729 0.4264322,0.9895833 0,0.3255209 -0.1985677,0.5989584 -0.1985677,0.2734375 -0.5208333,0.4199218 0.4003906,0.1432292 0.5957031,0.4296875 0.1985677,0.2864583 0.1985677,0.6770833 0,0.63151043 -0.4622395,1.0123698 -0.4589844,0.38085937 -1.2174479,0.38085937 -0.7096354,0 -1.1621094,-0.37434895 Q 2.7994791,-0.68359373 2.7994791,-1.2988281 h 0.9407552 q 0,0.2669271 0.1985677,0.43619791 0.2018229,0.16927083 0.4947916,0.16927083 0.3352865,0 0.5240886,-0.17578124 0.1920572,-0.1790365 0.1920572,-0.4720052 0,-0.7096354 -0.7812499,-0.7096354 H 3.8704426 Z"
           style="font-weight:bold;font-size:6.66666651px;font-family:Roboto, sans-serif;fill:#333333"
           id="path279" />
        <path
           d="m 9.2936194,-4.7884113 v 0.7747395 h -0.091146 q -0.6380208,0.00977 -1.0286458,0.3320313 -0.3873698,0.3222656 -0.4654948,0.8951822 0.3776041,-0.3841145 0.953776,-0.3841145 0.6184896,0 0.9830729,0.4427083 0.3645831,0.4427083 0.3645831,1.1653645 0,0.4622396 -0.2018227,0.83658856 -0.1985677,0.37434895 -0.5664062,0.58268228 -0.3645834,0.20833333 -0.8268229,0.20833333 -0.7486979,0 -1.2109375,-0.52083333 Q 6.7447913,-0.97656248 6.7447913,-1.8457031 v -0.3385416 q 0,-0.7714844 0.2897136,-1.3606771 0.2929687,-0.5924479 0.8365885,-0.9147135 0.546875,-0.3255208 1.266276,-0.328776 z m -0.9179687,2.3730468 q -0.2278646,0 -0.4134115,0.1204427 -0.1855468,0.1171875 -0.2734375,0.3125 v 0.2864583 q 0,0.4720052 0.1855469,0.73893227 0.1855469,0.26367187 0.5208333,0.26367187 0.3027344,0 0.4882813,-0.2376302 0.188802,-0.24088544 0.188802,-0.62174474 0,-0.3873698 -0.188802,-0.625 -0.1888021,-0.2376302 -0.5078125,-0.2376302 z"
           style="font-weight:bold;font-size:6.66666651px;font-family:Roboto, sans-serif;fill:#333333"
           id="path281" />
      </g>
      <path
         transform="rotate(145,-8.5,2.6800397)"
         style="stroke:#333333;stroke-width:0.30000001"
         d="M 0,0 H 2.5"
         id="polyline164" />
      <path
         transform="rotate(170,-8.5,0.74365364)"
         style="stroke:#333333;stroke-width:0.69999999"
         d="M 0,0 H 3"
         id="polyline166" />
      <path
         transform="rotate(-165,-8.5,-1.1190462)"
         style="stroke:#333333;stroke-width:0.30000001"
         d="M 0,0 H 2.5"
         id="polyline168" />
      <path
         transform="rotate(-140,-8.5,-3.093747)"
         style="stroke:#333333;stroke-width:0.69999999"
         d="M 0,0 H 3"
         id="polyline170" />
      <path
         transform="rotate(-115,-8.5,-5.4150972)"
         style="stroke:#333333;stroke-width:0.30000001"
         d="M 0,0 H 2.5"
         id="polyline172" />
      <g
         aria-label="0"
         transform="translate(-1.9,-17)"
         style="font-weight:bold;font-size:6.66666651px;font-family:Roboto, sans-serif;fill:#333333"
         id="text174">
        <path
           d="m 3.5123697,-1.9596354 q 0,0.98307292 -0.406901,1.50390624 -0.4069011,0.52083333 -1.1914062,0.52083333 -0.7747396,0 -1.18489585,-0.5110677 -0.41015624,-0.5110677 -0.41992187,-1.46484367 v -0.8723959 q 0,-0.9928385 0.41015624,-1.5071614 0.41341148,-0.5143229 1.18815098,-0.5143229 0.7747396,0 1.1848958,0.5110677 0.4101563,0.5078125 0.4199219,1.4615885 z M 2.5716145,-2.9166666 q 0,-0.5891927 -0.1627604,-0.8561198 -0.1595052,-0.2701823 -0.5013021,-0.2701823 -0.3320312,0 -0.4915364,0.2571615 Q 1.2597656,-3.531901 1.25,-2.9882812 v 1.1523437 q 0,0.5794271 0.15625,0.86263023 0.1595052,0.27994791 0.5078125,0.27994791 0.345052,0 0.4980468,-0.27018228 0.1529948,-0.27018226 0.1595052,-0.82682286 z"
           style="font-weight:bold;font-size:6.66666651px;font-family:Roboto, sans-serif;fill:#333333"
           id="path289" />
      </g>
      <path
         transform="rotate(-52.5,-8.5,-17.236295)"
         style="stroke:#333333;stroke-width:0.30000001"
         d="M 0,0 H 2.5"
         id="polyline176" />
      <path
         transform="rotate(-15,-8.5,-64.56391)"
         style="stroke:#333333;stroke-width:0.69999999"
         d="M 0,0 H 3"
         id="polyline178" />
      <path
         transform="rotate(22.5,-8.5,42.732386)"
         style="stroke:#333333;stroke-width:0.30000001"
         d="M 0,0 H 2.5"
         id="polyline180" />
      <g
         aria-label="12"
         transform="translate(6.5,20.320508)"
         style="font-weight:bold;font-size:6.66666651px;font-family:Roboto, sans-serif;fill:#333333"
         id="text182">
        <path
           d="M 2.6074218,0 H 1.6666666 v -3.626302 l -1.12304682,0.3483073 v -0.764974 L 2.5065104,-4.7460936 h 0.1009114 z"
           style="font-weight:bold;font-size:6.66666651px;font-family:Roboto, sans-serif;fill:#333333"
           id="path295" />
        <path
           d="M 7.3990885,0 H 4.1503906 V -0.64453123 L 5.6835937,-2.2786458 q 0.3157552,-0.3450521 0.4654948,-0.6022135 0.1529948,-0.2571615 0.1529948,-0.4882812 0,-0.3157552 -0.1595052,-0.4947917 -0.1595052,-0.1822917 -0.4557292,-0.1822917 -0.3190104,0 -0.5045573,0.2213542 Q 5,-3.6067707 5,-3.2486978 H 4.0559896 q 0,-0.4329427 0.2050781,-0.7910156 0.2083333,-0.358073 0.5859375,-0.5598959 0.3776041,-0.2050781 0.8561198,-0.2050781 0.7324218,0 1.1360676,0.3515625 0.4069011,0.3515625 0.4069011,0.9928385 0,0.3515625 -0.1822917,0.7161458 -0.1822917,0.3645834 -0.625,0.8496094 l -1.0774739,1.13606768 h 2.0377604 z"
           style="font-weight:bold;font-size:6.66666651px;font-family:Roboto, sans-serif;fill:#333333"
           id="path297" />
      </g>
      <g
         aria-label="dB"
         transform="translate(-4,23)"
         style="font-weight:bold;font-size:6.66666651px;font-family:Roboto, sans-serif;fill:#333333"
         id="text184">
        <path
           d="m 0.21484374,-1.7871093 q 0,-0.8235677 0.36783854,-1.311849 0.37109374,-0.4882812 1.01236972,-0.4882812 0.5143229,0 0.8496094,0.3841146 v -1.796875 H 3.3886718 V 0 H 2.5390624 L 2.4934895,-0.37434895 Q 2.141927,0.06510417 1.5885416,0.06510417 q -0.62174475,0 -0.99934891,-0.48828124 Q 0.21484374,-0.91471352 0.21484374,-1.7871093 Z M 1.1555989,-1.71875 q 0,0.4947917 0.1725261,0.75846356 0.172526,0.26367187 0.501302,0.26367187 0.4361979,0 0.6152344,-0.36783853 V -2.454427 q -0.1757812,-0.3678386 -0.6087239,-0.3678386 -0.6803386,0 -0.6803386,1.1035156 z"
           style="font-weight:bold;font-size:6.66666651px;font-family:Roboto, sans-serif;fill:#333333"
           id="path300" />
        <path
           d="M 4.1861978,0 V -4.7395832 H 5.846354 q 0.8626302,0 1.3085938,0.3320312 0.4459635,0.3287761 0.4459635,0.9667969 0,0.3483073 -0.1790365,0.6152343 -0.1790364,0.2636719 -0.4980468,0.3873698 0.3645833,0.091146 0.5729166,0.3678385 0.2115886,0.2766928 0.2115886,0.6770834 0,0.6835937 -0.4361979,1.03515619 Q 6.8359373,-0.00651042 6.0286457,0 Z m 0.9765625,-2.063802 v 1.27929681 h 0.8365885 q 0.3450521,0 0.5371094,-0.16276041 0.1953125,-0.1660156 0.1953125,-0.4557292 0,-0.6510416 -0.6738281,-0.6608072 z m 0,-0.6901042 h 0.7226562 q 0.7389323,-0.013021 0.7389323,-0.5891927 0,-0.3222656 -0.1888021,-0.4622396 Q 6.2499999,-3.9485676 5.846354,-3.9485676 H 5.1627603 Z"
           style="font-weight:bold;font-size:6.66666651px;font-family:Roboto, sans-serif;fill:#333333"
           id="path302" />
      </g>
    </g>
  </g>
  <g
     aria-label="HIGH"
     style="font-weight:bold;font-size:8px;font-family:Roboto, sans-serif;letter-spacing:2px;fill:#333333"
     id="text86">
    <path
       d="m 15.136719,192 h -1.171875 v -2.4375 H 11.679688 V 192 h -1.171875 v -5.6875 h 1.171875 v 2.30469 h 2.285156 v -2.30469 h 1.171875 z"
       style="font-weight:bold;font-size:8px;font-family:Roboto, sans-serif;letter-spacing:2px;fill:#333333"
       id="path305" />
    <path
       d="m 19.410156,192 h -1.171875 v -5.6875 h 1.171875 z"
       style="font-weight:bold;font-size:8px;font-family:Roboto, sans-serif;letter-spacing:2px;fill:#333333"
       id="path307" />
    <path
       d="m 26.992187,191.28125 q -0.316406,0.37891 -0.894531,0.58984 -0.578125,0.20703 -1.28125,0.20703 -0.738281,0 -1.296875,-0.32031 -0.554687,-0.32422 -0.859375,-0.9375 -0.300781,-0.61328 -0.308594,-1.4414 v -0.38672 q 0,-0.85157 0.285157,-1.47266 0.289062,-0.625 0.828125,-0.95312 0.542968,-0.33204 1.269531,-0.33204 1.011719,0 1.582031,0.48438 0.570313,0.48047 0.675781,1.40234 h -1.140625 q -0.07813,-0.48828 -0.347656,-0.71484 -0.265625,-0.22656 -0.734375,-0.22656 -0.597656,0 -0.910156,0.44922 -0.3125,0.44921 -0.316406,1.33593 v 0.36328 q 0,0.89454 0.339843,1.35157 0.339844,0.45703 0.996094,0.45703 0.660156,0 0.941406,-0.28125 V 189.875 h -1.066406 v -0.86328 h 2.238281 z"
       style="font-weight:bold;font-size:8px;font-family:Roboto, sans-serif;letter-spacing:2px;fill:#333333"
       id="path309" />
    <path
       d="m 34.574219,192 h -1.171875 v -2.4375 H 31.117187 V 192 h -1.171875 v -5.6875 h 1.171875 v 2.30469 h 2.285157 v -2.30469 h 1.171875 z"
       style="font-weight:bold;font-size:8px;font-family:Roboto, sans-serif;letter-spacing:2px;fill:#333333"
       id="path311" />
  </g>
  <g
     id="use88"
     transform="translate(0,195)">
    <g
       id="g158"
       transform="translate(22.5,22.5)">
      <g
         aria-label="-36"
         transform="translate(-16,20.320508)"
         style="font-weight:bold;font-size:6.66666651px;font-family:Roboto, sans-serif;fill:#333333"
         id="text134">
        <path
           d="M 2.1907552,-1.6503906 H 0.35807291 V -2.4088541 H 2.1907552 Z"
           style="font-weight:bold;font-size:6.66666651px;font-family:Roboto, sans-serif;fill:#333333"
           id="path314" />
        <path
           d="m 3.8704426,-2.7864583 h 0.5013021 q 0.3580729,0 0.5305989,-0.1790364 0.1725261,-0.1790365 0.1725261,-0.4752604 0,-0.2864584 -0.1725261,-0.4459636 -0.1692708,-0.1595052 -0.46875,-0.1595052 -0.2701823,0 -0.4524739,0.1497396 Q 3.798828,-3.7499999 3.798828,-3.5123697 H 2.8580728 q 0,-0.3710937 0.1985677,-0.6640625 0.2018229,-0.2962239 0.5598959,-0.4622396 0.3613281,-0.1660156 0.7942708,-0.1660156 0.7519531,0 1.1783854,0.3613281 0.4264322,0.3580729 0.4264322,0.9895833 0,0.3255209 -0.1985677,0.5989584 -0.1985677,0.2734375 -0.5208333,0.4199218 0.4003906,0.1432292 0.5957031,0.4296875 0.1985677,0.2864583 0.1985677,0.6770833 0,0.63151043 -0.4622395,1.0123698 -0.4589844,0.38085937 -1.2174479,0.38085937 -0.7096354,0 -1.1621094,-0.37434895 Q 2.7994791,-0.68359373 2.7994791,-1.2988281 h 0.9407552 q 0,0.2669271 0.1985677,0.43619791 0.2018229,0.16927083 0.4947916,0.16927083 0.3352865,0 0.5240886,-0.17578124 0.1920572,-0.1790365 0.1920572,-0.4720052 0,-0.7096354 -0.7812499,-0.7096354 H 3.8704426 Z"
           style="font-weight:bold;font-size:6.66666651px;font-family:Roboto, sans-serif;fill:#333333"
           id="path316" />
        <path
           d="m 9.2936194,-4.7884113 v 0.7747395 h -0.091146 q -0.6380208,0.00977 -1.0286458,0.3320313 -0.3873698,0.3222656 -0.4654948,0.8951822 0.3776041,-0.3841145 0.953776,-0.3841145 0.6184896,0 0.9830729,0.4427083 0.3645831,0.4427083 0.3645831,1.1653645 0,0.4622396 -0.2018227,0.83658856 -0.1985677,0.37434895 -0.5664062,0.58268228 -0.3645834,0.20833333 -0.8268229,0.20833333 -0.7486979,0 -1.2109375,-0.52083333 Q 6.7447913,-0.97656248 6.7447913,-1.8457031 v -0.3385416 q 0,-0.7714844 0.2897136,-1.3606771 0.2929687,-0.5924479 0.8365885,-0.9147135 0.546875,-0.3255208 1.266276,-0.328776 z m -0.9179687,2.3730468 q -0.2278646,0 -0.4134115,0.1204427 -0.1855468,0.1171875 -0.2734375,0.3125 v 0.2864583 q 0,0.4720052 0.1855469,0.73893227 0.1855469,0.26367187 0.5208333,0.26367187 0.3027344,0 0.4882813,-0.2376302 0.188802,-0.24088544 0.188802,-0.62174474 0,-0.3873698 -0.188802,-0.625 -0.1888021,-0.2376302 -0.5078125,-0.2376302 z"
           style="font-weight:bold;font-size:6.66666651px;font-family:Roboto, sans-serif;fill:#333333"
           id="path318" />
      </g>
      <path
         transform="rotate(145,-8.5,2.6800397)"
         style="stroke:#333333;stroke-width:0.30000001"
         d="M 0,0 H 2.5"
         id="polyline136" />
      <path
         transform="rotate(170,-8.5,0.74365364)"
         style="stroke:#333333;stroke-width:0.69999999"
         d="M 0,0 H 3"
         id="polyline138" />
      <path
         transform="rotate(-165,-8.5,-1.1190462)"
         style="stroke:#333333;stroke-width:0.30000001"
         d="M 0,0 H 2.5"
         id="polyline140" />
      <path
         transform="rotate(-140,-8.5,-3.093747)"
         style="stroke:#333333;stroke-width:0.69999999"
         d="M 0,0 H 3"
         id="polyline142" />
      <path
         transform="rotate(-115,-8.5,-5.4150972)"
         style="stroke:#333333;stroke-width:0.30000001"
         d="M 0,0 H 2.5"
         id="polyline144" />
      <g
         aria-label="0"
         transform="translate(-1.9,-17)"
         style="font-weight:bold;font-size:6.66666651px;font-family:Roboto, sans-serif;fill:#333333"
         id="text146">
        <path
           d="m 3.5123697,-1.9596354 q 0,0.98307292 -0.406901,1.50390624 -0.4069011,0.52083333 -1.1914062,0.52083333 -0.7747396,0 -1.18489585,-0.5110677 -0.41015624,-0.5110677 -0.41992187,-1.46484367 v -0.8723959 q 0,-0.9928385 0.41015624,-1.5071614 0.41341148,-0.5143229 1.18815098,-0.5143229 0.7747396,0 1.1848958,0.5110677 0.4101563,0.5078125 0.4199219,1.4615885 z M 2.5716145,-2.9166666 q 0,-0.5891927 -0.1627604,-0.8561198 -0.1595052,-0.2701823 -0.5013021,-0.2701823 -0.3320312,0 -0.4915364,0.2571615 Q 1.2597656,-3.531901 1.25,-2.9882812 v 1.1523437 q 0,0.5794271 0.15625,0.86263023 0.1595052,0.27994791 0.5078125,0.27994791 0.345052,0 0.4980468,-0.27018228 0.1529948,-0.27018226 0.1595052,-0.82682286 z"
           style="font-weight:bold;font-size:6.66666651px;font-family:Roboto, sans-serif;fill:#333333"
           id="path326" />
      </g>
      <path
         transform="rotate(-52.5,-8.5,-17.236295)"
         style="stroke:#333333;stroke-width:0.30000001"
         d="M 0,0 H 2.5"
         id="polyline148" />
      <path
         transform="rotate(-15,-8.5,-64.56391)"
         style="stroke:#333333;stroke-width:0.69999999"
         d="M 0,0 H 3"
         id="polyline150" />
      <path
         transform="rotate(22.5,-8.5,42.732386)"
         style="stroke:#333333;stroke-width:0.30000001"
         d="M 0,0 H 2.5"
         id="polyline152" />
      <g
         aria-label="12"
         transform="translate(6.5,20.320508)"
         style="font-weight:bold;font-size:6.66666651px;font-family:Roboto, sans-serif;fill:#333333"
         id="text154">
        <path
           d="M 2.6074218,0 H 1.6666666 v -3.626302 l -1.12304682,0.3483073 v -0.764974 L 2.5065104,-4.7460936 h 0.1009114 z"
           style="font-weight:bold;font-size:6.66666651px;font-family:Roboto, sans-serif;fill:#333333"
           id="path332" />
        <path
           d="M 7.3990885,0 H 4.1503906 V -0.64453123 L 5.6835937,-2.2786458 q 0.3157552,-0.3450521 0.4654948,-0.6022135 0.1529948,-0.2571615 0.1529948,-0.4882812 0,-0.3157552 -0.1595052,-0.4947917 -0.1595052,-0.1822917 -0.4557292,-0.1822917 -0.3190104,0 -0.5045573,0.2213542 Q 5,-3.6067707 5,-3.2486978 H 4.0559896 q 0,-0.4329427 0.2050781,-0.7910156 0.2083333,-0.358073 0.5859375,-0.5598959 0.3776041,-0.2050781 0.8561198,-0.2050781 0.7324218,0 1.1360676,0.3515625 0.4069011,0.3515625 0.4069011,0.9928385 0,0.3515625 -0.1822917,0.7161458 -0.1822917,0.3645834 -0.625,0.8496094 l -1.0774739,1.13606768 h 2.0377604 z"
           style="font-weight:bold;font-size:6.66666651px;font-family:Roboto, sans-serif;fill:#333333"
           id="path334" />
      </g>
      <g
         aria-label="dB"
         transform="translate(-4,23)"
         style="font-weight:bold;font-size:6.66666651px;font-family:Roboto, sans-serif;fill:#333333"
         id="text156">
        <path
           d="m 0.21484374,-1.7871093 q 0,-0.8235677 0.36783854,-1.311849 0.37109374,-0.4882812 1.01236972,-0.4882812 0.5143229,0 0.8496094,0.3841146 v -1.796875 H 3.3886718 V 0 H 2.5390624 L 2.4934895,-0.37434895 Q 2.141927,0.06510417 1.5885416,0.06510417 q -0.62174475,0 -0.99934891,-0.48828124 Q 0.21484374,-0.91471352 0.21484374,-1.7871093 Z M 1.1555989,-1.71875 q 0,0.4947917 0.1725261,0.75846356 0.172526,0.26367187 0.501302,0.26367187 0.4361979,0 0.6152344,-0.36783853 V -2.454427 q -0.1757812,-0.3678386 -0.6087239,-0.3678386 -0.6803386,0 -0.6803386,1.1035156 z"
           style="font-weight:bold;font-size:6.66666651px;font-family:Roboto, sans-serif;fill:#333333"
           id="path337" />
        <path
           d="M 4.1861978,0 V -4.7395832 H 5.846354 q 0.8626302,0 1.3085938,0.3320312 0.4459635,0.3287761 0.4459635,0.9667969 0,0.3483073 -0.1790365,0.6152343 -0.1790364,0.2636719 -0.4980468,0.3873698 0.3645833,0.091146 0.5729166,0.3678385 0.2115886,0.2766928 0.2115886,0.6770834 0,0.6835937 -0.4361979,1.03515619 Q 6.8359373,-0.00651042 6.0286457,0 Z m 0.9765625,-2.063802 v 1.27929681 h 0.8365885 q 0.3450521,0 0.5371094,-0.16276041 0.1953125,-0.1660156 0.1953125,-0.4557292 0,-0.6510416 -0.6738281,-0.6608072 z m 0,-0.6901042 h 0.7226562 q 0.7389323,-0.013021 0.7389323,-0.5891927 0,-0.3222656 -0.1888021,-0.4622396 Q 6.2499999,-3.9485676 5.846354,-3.9485676 H 5.1627603 Z"
           style="font-weight:bold;font-size:6.66666651px;font-family:Roboto, sans-serif;fill:#333333"
           id="path339" />
      </g>
    </g>
  </g>
  <g
     id="g98"
     transform="translate(5.5,264)">
    <path
       transform="translate(0,28)"
       style="fill:#fafafa"
       d="M 0,0 H 34 V 10 H 0 Z"
       id="rect92" />
    <path
       style="fill:#fafafa"
       d="m 5,0 h 24 c 2.77,0 5,2.23 5,5 v 25 c 0,2.77 -2.23,5 -5,5 H 5 C 2.23,35 0,32.77 0,30 V 5 C 0,2.23 2.23,0 5,0 Z"
       id="rect94" />
    <g
       aria-label="IN"
       transform="translate(12.5,35)"
       style="font-weight:bold;font-size:6.66666651px;font-family:Roboto, sans-serif;letter-spacing:2px;fill:#333333"
       id="text96">
      <path
         d="M 1.4615885,0 H 0.48502603 V -4.7395832 H 1.4615885 Z"
         style="font-weight:bold;font-size:6.66666651px;font-family:Roboto, sans-serif;letter-spacing:2px;fill:#333333"
         id="path344" />
      <path
         d="M 8.2174477,0 H 7.2408852 L 5.3398436,-3.1184895 V 0 H 4.3632811 v -4.7395832 h 0.9765625 l 1.9042968,3.1249999 v -3.1249999 h 0.9733073 z"
         style="font-weight:bold;font-size:6.66666651px;font-family:Roboto, sans-serif;letter-spacing:2px;fill:#333333"
         id="path346" />
    </g>
  </g>
  <g
     id="g106"
     transform="translate(5.5,305)">
    <path
       transform="translate(0,-3)"
       style="fill:#bbbbbb"
       d="M 0,0 H 34 V 10 H 0 Z"
       id="rect100" />
    <path
       style="fill:#bbbbbb"
       d="m 5,0 h 24 c 2.77,0 5,2.23 5,5 v 25 c 0,2.77 -2.23,5 -5,5 H 5 C 2.23,35 0,32.77 0,30 V 5 C 0,2.23 2.23,0 5,0 Z"
       id="rect102" />
    <g
       aria-label="OUT"
       transform="translate(8.3,32)"
       style="font-weight:bold;font-size:6.66666651px;font-family:Roboto, sans-serif;letter-spacing:2px;fill:#333333"
       id="text104">
      <path
         d="m 4.3164061,-2.2623697 q 0,0.6998697 -0.2473958,1.2272135 -0.2473958,0.52734371 -0.7096354,0.81380204 -0.4589843,0.28645833 -1.0546875,0.28645833 -0.5891926,0 -1.0514322,-0.28320312 Q 0.79101561,-0.50130207 0.53710936,-1.0253906 0.28320312,-1.5527343 0.27994791,-2.2363281 v -0.234375 q 0,-0.6998697 0.25065104,-1.2304687 0.25390624,-0.5338541 0.71289065,-0.8170573 0.4622395,-0.2864583 1.0546874,-0.2864583 0.5924479,0 1.0514323,0.2864583 0.4622396,0.2832032 0.7128906,0.8170573 0.2539062,0.530599 0.2539062,1.2272135 z M 3.3268228,-2.4772135 q 0,-0.7454427 -0.266927,-1.1328125 -0.2669271,-0.3873697 -0.7617188,-0.3873697 -0.4915364,0 -0.7584635,0.3841145 -0.2669271,0.3808594 -0.2701823,1.1197917 v 0.2311198 q 0,0.7259114 0.2669271,1.126302 0.2669271,0.40039063 0.7682291,0.40039063 0.4915365,0 0.7552084,-0.38411453 0.2636718,-0.3873698 0.266927,-1.1263021 z"
         style="font-weight:bold;font-size:6.66666651px;font-family:Roboto, sans-serif;letter-spacing:2px;fill:#333333"
         id="path351" />
      <path
         d="m 10.619792,-4.7395832 v 3.1217447 q 0,0.77799477 -0.488282,1.23046872 -0.4850257,0.45247395 -1.3281246,0.45247395 -0.8300781,0 -1.3183594,-0.43945312 Q 6.9967448,-0.81380206 6.9869792,-1.5820312 v -3.157552 h 0.9765624 v 3.1282551 q 0,0.4654948 0.2213542,0.68033854 0.2246094,0.21158854 0.6184896,0.21158854 0.8235677,0 0.8365885,-0.86588538 v -3.1542968 z"
         style="font-weight:bold;font-size:6.66666651px;font-family:Roboto, sans-serif;letter-spacing:2px;fill:#333333"
         id="path353" />
      <path
         d="M 16.988281,-3.9485676 H 15.536458 V 0 h -0.976563 v -3.9485676 h -1.432291 v -0.7910156 h 3.860677 z"
         style="font-weight:bold;font-size:6.66666651px;font-family:Roboto, sans-serif;letter-spacing:2px;fill:#333333"
         id="path355" />
    </g>
  </g>
</svg>
