<?xml version="1.0" encoding="UTF-8" standalone="no"?>
<svg xmlns:dc="http://purl.org/dc/elements/1.1/" xmlns:cc="http://creativecommons.org/ns#" xmlns:rdf="http://www.w3.org/1999/02/22-rdf-syntax-ns#" xmlns:svg="http://www.w3.org/2000/svg" xmlns="http://www.w3.org/2000/svg" xmlns:sodipodi="http://sodipodi.sourceforge.net/DTD/sodipodi-0.dtd" xmlns:inkscape="http://www.inkscape.org/namespaces/inkscape" inkscape:version="1.0 (4035a4f, 2020-05-01)" sodipodi:docname="svg_render_EQS-pp.svg" id="svg12293" viewBox="0 0 90 380" height="380" width="90" version="1.1">
  <metadata id="metadata12297">
    <rdf:RDF>
      <cc:Work rdf:about="">
        <dc:format>image/svg+xml</dc:format>
        <dc:type rdf:resource="http://purl.org/dc/dcmitype/StillImage"/>
      </cc:Work>
    </rdf:RDF>
  </metadata>
  <sodipodi:namedview inkscape:current-layer="svg12293" inkscape:window-maximized="0" inkscape:window-y="23" inkscape:window-x="0" inkscape:cy="190" inkscape:cx="45" inkscape:zoom="1.7605263" showgrid="false" id="namedview12295" inkscape:window-height="480" inkscape:window-width="689" inkscape:pageshadow="2" inkscape:pageopacity="0" guidetolerance="10" gridtolerance="10" objecttolerance="10" borderopacity="1" bordercolor="#666666" pagecolor="#ffffff"/>
  
  <defs id="defs12215">
    <symbol viewBox="0 0 70px 70px" id="dial-eq-eqs">
      <g id="g12212" transform="translate(35 35)">
        <text id="text12188" transform="rotate(-240) translate(25 0) rotate(240) translate(-10 2.5)" font-size="6.0pt">-36</text>
        <polyline id="polyline12190" transform="rotate(-215) translate(21 0)" stroke="#333" stroke-width="0.3" points="0,0 3,0"/>
        <text id="text12192" transform="rotate(-190) translate(25 0) rotate(190) translate(-10 2.5)" font-size="6.0pt">-24</text>
        <polyline id="polyline12194" transform="rotate(-165) translate(21 0)" stroke="#333" stroke-width="0.3" points="0,0 3,0"/>
        <text id="text12196" transform="rotate(-140) translate(25 0) rotate(140) translate(-10 2.5)" font-size="6.0pt">-12</text>
        <polyline id="polyline12198" transform="rotate(-115) translate(21 0)" stroke="#333" stroke-width="0.3" points="0,0 3,0"/>
        <text id="text12200" transform="rotate(-90) translate(25 0) rotate(90) translate(-2.3 2.5)" font-size="6.0pt">0</text>
        <polyline id="polyline12202" transform="rotate(-52.5) translate(21 0)" stroke="#333" stroke-width="0.3" points="0,0 3,0"/>
        <text id="text12204" transform="rotate(-15) translate(25 0) rotate(15) translate(-3 2.5)" font-size="6.0pt">6</text>
        <polyline id="polyline12206" transform="rotate(22.5) translate(21 0)" stroke="#333" stroke-width="0.3" points="0,0 3,0"/>
        <text id="text12208" transform="rotate(60) translate(25 0) rotate(-60) translate(-2.3 2.5)" font-size="6.0pt">12</text>
        <text id="text12210" transform="rotate(90) translate(29 0) rotate(-90) translate(-4.7 2.2)" font-size="6.0pt">dB</text>
      </g>
    </symbol>
  </defs>
  <svg version="1.1" id="svg12219" width="100%" height="100%">
    <path class="module-background background-fill" d="M 0,0 H 90 V 380 H 0 Z" style="fill:#dddddd" id="rect12217"/>
  </svg>
  <svg version="1.1" id="svg12227" width="100%" height="100%">
    <path class="module-border-inner" d="M 1,1 H 89 V 379 H 1 V 1" style="fill:none;stroke:#e4e4e4;stroke-width:0.5" id="polyline12221"/>
    <path class="module-border-middle" d="m 0.5,0.5 h 89 v 379 H 0.5 V 0.5" style="fill:none;stroke:#ebebeb;stroke-width:0.8" id="polyline12223"/>
    <path class="module-border-outer" d="M 0,0 H 90 V 380 H 0 V 0" style="fill:none;stroke:#f2f2f2;stroke-width:1" id="polyline12225"/>
  </svg>
  <g class="title" style="font-weight:normal;font-size:12px;font-family:Comfortaa, sans-serif;letter-spacing:3px;text-anchor:end;fill:#333333" id="text12229" aria-label="EQS">
    <path id="path12599" style="font-weight:normal;font-size:12px;font-family:Comfortaa, sans-serif;letter-spacing:3px;text-anchor:end;fill:#333333" d="m 51.363312,17 q -0.192,0 -0.336,-0.132 -0.131999,-0.144 -0.131999,-0.336 V 8.096 q 0,-0.204 0.131999,-0.336 0.144,-0.132 0.336,-0.132 h 5.628 q 0.204,0 0.336,0.132 0.132001,0.132 0.132001,0.324 0,0.192 -0.132001,0.324 -0.132,0.12 -0.336,0.12 h -5.159999 v 3.312 h 3.755999 q 0.204001,0 0.336001,0.132 0.131999,0.132 0.131999,0.324 0,0.192 -0.144,0.324 -0.131999,0.132 -0.324,0.132 H 51.831313 V 16.1 h 5.159999 q 0.204,0 0.336,0.132 0.132001,0.12 0.132001,0.312 0,0.192 -0.132001,0.324 -0.132,0.132 -0.336,0.132 z"/>
    <path id="path12601" style="font-weight:normal;font-size:12px;font-family:Comfortaa, sans-serif;letter-spacing:3px;text-anchor:end;fill:#333333" d="m 70.700187,16.22 q 0.132001,0.132 0.132001,0.312 0,0.192 -0.132001,0.324 -0.144,0.144 -0.324,0.144 -0.179999,0 -0.323999,-0.144 l -0.636,-0.636 q -0.600001,0.432 -1.344001,0.672 -0.732,0.228 -1.548,0.228 -1.367999,0 -2.459999,-0.624 -1.092001,-0.624 -1.716,-1.716 -0.612001,-1.104 -0.612001,-2.472 0,-1.368 0.612001,-2.46 0.623999,-1.092 1.716,-1.716 1.092,-0.624 2.459999,-0.624 1.356001,0 2.448001,0.624 1.104,0.624 1.715999,1.716 0.624,1.092 0.624,2.46 0,0.972 -0.324,1.824 -0.312,0.84 -0.899999,1.476 z m -4.176,0.012 q 1.272001,0 2.22,-0.672 l -1.283999,-1.284 q -0.144001,-0.144 -0.144001,-0.324 0,-0.18 0.144001,-0.324 0.131999,-0.132 0.311999,-0.132 0.192,0 0.324,0.132 l 1.332001,1.332 q 0.455999,-0.528 0.708,-1.212 0.251999,-0.684 0.251999,-1.44 0,-1.092 -0.504,-1.98 -0.503999,-0.9 -1.392,-1.416 -0.876,-0.516 -1.968,-0.516 -1.104,0 -1.991999,0.516 -0.876,0.516 -1.380001,1.416 -0.504,0.888 -0.504,1.98 0,1.104 0.504,2.004 0.504001,0.888 1.380001,1.404 0.887999,0.516 1.991999,0.516 z"/>
    <path id="path12603" style="font-weight:normal;font-size:12px;font-family:Comfortaa, sans-serif;letter-spacing:3px;text-anchor:end;fill:#333333" d="m 79.134687,17.12 q -1.14,0 -2.027999,-0.48 -0.876,-0.492 -1.26,-1.32 -0.048,-0.084 -0.048,-0.192 0,-0.168 0.120001,-0.276 0.131999,-0.12 0.348,-0.12 0.143999,0 0.263999,0.084 0.132001,0.072 0.192001,0.216 0.276,0.54 0.911999,0.876 0.648,0.324 1.5,0.324 0.984,0 1.584001,-0.468 0.599999,-0.48 0.599999,-1.332 0,-0.756 -0.563999,-1.272 -0.552001,-0.516 -1.668001,-0.66 -1.392,-0.168 -2.196,-0.864 -0.792,-0.708 -0.792,-1.728 0,-0.72 0.384,-1.26 0.396,-0.552 1.08,-0.84 0.696,-0.3 1.572,-0.3 0.948001,0 1.668001,0.42 0.72,0.42 1.128,1.092 0.084,0.132 0.084,0.288 0,0.228 -0.216,0.36 -0.096,0.048 -0.215999,0.048 -0.132001,0 -0.252001,-0.06 -0.107999,-0.072 -0.179999,-0.192 -0.672,-1.056 -2.028001,-1.068 -0.971999,0 -1.536,0.408 -0.563999,0.408 -0.563999,1.164 0,1.404 2.268,1.704 1.488,0.216 2.22,0.912 0.732,0.696 0.732,1.836 0,0.84 -0.408001,1.452 -0.408,0.612 -1.115999,0.936 -0.708,0.312 -1.584001,0.312 z"/>
  </g>
  <g transform="translate(5.5,374)" id="g12235">
    <g class="brand" style="font-weight:bold;font-size:8.66667px;font-family:Audiowide, sans-serif;letter-spacing:2px;fill:#333333" id="text12231" aria-label="BOGAUDIO">
      <path id="path12581" style="font-weight:bold;font-size:8.66667px;font-family:Audiowide, sans-serif;letter-spacing:2px;fill:#333333" d="m 6.6946639,-1.3330083 q 0,0.2031251 -0.07194,0.43587255 -0.067708,0.23274749 -0.2285157,0.43164079 -0.1565756,0.1988933 -0.4104819,0.33431002 Q 5.7298198,0 5.3616556,0 H 1.1848963 Q 1.0664066,0 0.9648441,-0.04231772 0.86328157,-0.08463545 0.78710966,-0.15657558 0.71516953,-0.23274748 0.67285181,-0.33431002 0.63053409,-0.43587256 0.63053409,-0.55436218 V -5.5139994 q 0,-0.1142579 0.0423177,-0.2158204 0.0423177,-0.1015625 0.11425785,-0.1777345 0.0761719,-0.076172 0.17773444,-0.1184896 0.1015625,-0.042318 0.2200522,-0.042318 h 3.6816419 q 0.2031251,0 0.4358726,0.07194 0.2327475,0.07194 0.4316408,0.2327475 0.2031251,0.1565756 0.33431,0.4104819 0.1354167,0.2539064 0.1354167,0.6220706 v 0.2073568 q 0,0.2919923 -0.097331,0.6305341 -0.097331,0.33431 -0.3131512,0.6347659 0.186198,0.1142578 0.3470053,0.2750652 0.1650392,0.1608073 0.2877606,0.3723959 0.1227214,0.2115887 0.1946615,0.4781903 0.07194,0.2666017 0.07194,0.5882164 z M 5.5944031,-1.5445969 q 0,-0.2158204 -0.067708,-0.3850913 Q 5.4589864,-2.1031909 5.336265,-2.2259123 5.2135436,-2.3486337 5.0400409,-2.4121103 4.8665382,-2.4798186 4.6507179,-2.4798186 H 2.1708992 V -3.588543 h 1.9847013 q 0.2158204,0 0.389323,-0.063477 0.1735027,-0.067708 0.2962241,-0.1904297 0.1227214,-0.1227214 0.186198,-0.2919923 0.067708,-0.1735027 0.067708,-0.3893231 v -0.2073568 q 0,-0.2369793 -0.2285158,-0.2369793 H 1.7307949 v 3.86784 h 3.6308607 q 0.029622,0 0.07194,-0.00423 0.042318,-0.00423 0.076172,-0.025391 0.033854,-0.021159 0.059245,-0.07194 0.025391,-0.050781 0.025391,-0.1396484 z"/>
      <path id="path12583" style="font-weight:bold;font-size:8.66667px;font-family:Audiowide, sans-serif;letter-spacing:2px;fill:#333333" d="m 16.015629,-2.454428 q 0,0.5543622 -0.190429,1.0198572 -0.19043,0.46549492 -0.528972,0.80403671 -0.338542,0.3385418 -0.804037,0.52897155 -0.461263,0.18619799 -1.007161,0.18619799 h -1.489584 q -0.545899,0 -1.011394,-0.18619799 Q 10.518557,-0.29199229 10.180015,-0.63053409 9.8414736,-0.96907588 9.646812,-1.4345708 9.4563823,-1.9000658 9.4563823,-2.454428 v -1.1595056 q 0,-0.5501304 0.1904297,-1.0156254 0.1946616,-0.4697267 0.533203,-0.8040367 0.338542,-0.3385418 0.804037,-0.5289716 0.465495,-0.1904297 1.011394,-0.1904297 h 1.489584 q 0.545898,0 1.007161,0.1904297 0.465495,0.1904298 0.804037,0.5289716 0.338542,0.33431 0.528972,0.8040367 0.190429,0.465495 0.190429,1.0156254 z m -1.10026,-1.1595056 q 0,-0.3258465 -0.105795,-0.5882164 -0.101562,-0.2666016 -0.291992,-0.4527996 -0.186198,-0.1904298 -0.4528,-0.2919923 -0.262369,-0.1057943 -0.579752,-0.1057943 h -1.489584 q -0.321615,0 -0.588217,0.1057943 -0.26237,0.1015625 -0.452799,0.2919923 -0.19043,0.186198 -0.296224,0.4527996 -0.101563,0.2623699 -0.101563,0.5882164 v 1.1595056 q 0,0.3258465 0.101563,0.5924482 0.105794,0.2623698 0.296224,0.4527996 0.190429,0.186198 0.452799,0.2919923 0.266602,0.1015625 0.588217,0.1015625 h 1.48112 q 0.321615,0 0.583985,-0.1015625 0.266601,-0.1057943 0.457031,-0.2919923 0.19043,-0.1904298 0.291992,-0.4527996 0.105795,-0.2666017 0.105795,-0.5924482 z"/>
      <path id="path12585" style="font-weight:bold;font-size:8.66667px;font-family:Audiowide, sans-serif;letter-spacing:2px;fill:#333333" d="m 25.099618,-0.55436218 q 0,0.11848962 -0.04232,0.22005216 -0.04232,0.10156254 -0.11849,0.17773444 -0.07194,0.07194013 -0.173502,0.11425786 Q 24.663745,0 24.545255,0 h -3.969402 q -0.152344,0 -0.330078,-0.03385418 -0.173503,-0.03808595 -0.347006,-0.11425785 -0.169271,-0.0761719 -0.325846,-0.19466153 -0.156576,-0.1227214 -0.279297,-0.2919923 -0.11849,-0.17350267 -0.19043,-0.39778664 -0.07194,-0.2285157 -0.07194,-0.5120444 v -2.9791678 q 0,-0.1523438 0.03385,-0.3258465 0.03809,-0.1777344 0.114258,-0.3470053 0.07617,-0.1735027 0.198893,-0.3300782 0.122722,-0.1565756 0.291993,-0.2750652 0.173502,-0.1227214 0.397786,-0.1946616 0.224284,-0.07194 0.507813,-0.07194 h 4.472983 v 1.1002608 h -4.472983 q -0.215821,0 -0.330078,0.1142579 -0.114258,0.1142578 -0.114258,0.3385418 v 2.9707042 q 0,0.2115886 0.114258,0.3300782 0.118489,0.1142579 0.330078,0.1142579 h 3.423504 V -2.4798186 H 21.07097 V -3.588543 h 3.474285 q 0.11849,0 0.220053,0.04655 0.101562,0.042318 0.173502,0.1184896 0.07617,0.076172 0.11849,0.1777345 0.04232,0.097331 0.04232,0.2115886 z"/>
      <path id="path12587" style="font-weight:bold;font-size:8.66667px;font-family:Audiowide, sans-serif;letter-spacing:2px;fill:#333333" d="m 34.208996,0 h -1.100261 v -1.4895839 h -3.86784 V 0 h -1.100261 v -3.0341808 q 0,-0.6643883 0.228516,-1.2229822 0.228516,-0.558594 0.634766,-0.9606124 0.40625,-0.4020183 0.960612,-0.6263023 0.554362,-0.2242839 1.210287,-0.2242839 h 2.479819 q 0.114257,0 0.21582,0.042318 0.101562,0.042318 0.177734,0.1184896 0.07617,0.076172 0.11849,0.1777345 0.04232,0.1015625 0.04232,0.2158204 z m -4.968101,-2.5898447 h 3.86784 v -2.3782561 h -1.93392 q -0.05078,0 -0.21582,0.016927 -0.160808,0.012695 -0.376628,0.07194 -0.211589,0.059245 -0.448568,0.1819663 -0.236979,0.1227214 -0.435873,0.3385417 -0.198893,0.2158204 -0.330078,0.5416669 -0.126953,0.3216147 -0.126953,0.7828779 z"/>
      <path id="path12589" style="font-weight:bold;font-size:8.66667px;font-family:Audiowide, sans-serif;letter-spacing:2px;fill:#333333" d="m 43.428399,-0.55436218 q 0,0.11848962 -0.04232,0.22005216 -0.04232,0.10156254 -0.11849,0.17773444 -0.07617,0.07194013 -0.177735,0.11425786 Q 42.988295,0 42.874037,0 H 40.394218 Q 40.042981,0 39.683281,-0.0761719 39.32358,-0.15234381 38.985038,-0.30891938 38.650728,-0.46972673 38.354504,-0.71516953 38.05828,-0.96061233 37.833996,-1.2949223 37.613944,-1.6334641 37.486991,-2.0651049 37.360038,-2.5009775 37.360038,-3.0341808 v -3.0341808 h 1.10026 v 3.0341808 q 0,0.465495 0.126954,0.7871097 0.131185,0.3216147 0.330078,0.5374351 0.198893,0.2158203 0.435872,0.3385417 0.23698,0.1227214 0.448568,0.1819663 0.215821,0.059245 0.376628,0.076172 0.165039,0.012695 0.21582,0.012695 h 1.93392 v -4.9681008 h 1.100261 z"/>
      <path id="path12591" style="font-weight:bold;font-size:8.66667px;font-family:Audiowide, sans-serif;letter-spacing:2px;fill:#333333" d="m 52.766292,-2.5390634 q 0,0.5543622 -0.194661,1.0198571 -0.19043,0.465495 -0.528972,0.80403677 -0.338541,0.33431002 -0.804036,0.52473977 Q 50.773128,0 50.227229,0 h -2.970704 q -0.11849,0 -0.220052,-0.04231772 -0.101563,-0.04231773 -0.177735,-0.11425786 -0.07194,-0.0761719 -0.114258,-0.17773444 -0.04232,-0.10156254 -0.04232,-0.22005216 V -5.5139994 q 0,-0.1142579 0.04232,-0.2158204 0.04232,-0.1015625 0.114258,-0.1777345 0.07617,-0.076172 0.177735,-0.1184896 0.101562,-0.042318 0.220052,-0.042318 h 2.970704 q 0.545899,0 1.011394,0.1904298 0.465495,0.1904297 0.804036,0.5289715 0.338542,0.33431 0.528972,0.8040368 0.194661,0.4654949 0.194661,1.0156253 z m -1.10026,-0.9902348 q 0,-0.3216147 -0.105795,-0.5882163 -0.101562,-0.2666017 -0.291992,-0.4527997 -0.19043,-0.1904297 -0.457031,-0.2919923 -0.26237,-0.1057943 -0.583985,-0.1057943 h -2.424806 v 3.86784 h 2.424806 q 0.321615,0 0.583985,-0.1015626 0.266601,-0.1057943 0.457031,-0.2919923 0.19043,-0.1904297 0.291992,-0.4527996 0.105795,-0.2666017 0.105795,-0.5924481 z"/>
      <path id="path12593" style="font-weight:bold;font-size:8.66667px;font-family:Audiowide, sans-serif;letter-spacing:2px;fill:#333333" d="M 56.962581,0 H 55.86232 v -6.0683616 h 1.100261 z"/>
      <path id="path12595" style="font-weight:bold;font-size:8.66667px;font-family:Audiowide, sans-serif;letter-spacing:2px;fill:#333333" d="m 66.626322,-2.454428 q 0,0.5543622 -0.190429,1.0198572 -0.19043,0.46549492 -0.528972,0.80403671 -0.338542,0.3385418 -0.804037,0.52897155 -0.461263,0.18619799 -1.007161,0.18619799 h -1.489584 q -0.545899,0 -1.011394,-0.18619799 -0.465495,-0.19042975 -0.804037,-0.52897155 -0.338541,-0.33854179 -0.533203,-0.80403671 -0.19043,-0.465495 -0.19043,-1.0198572 v -1.1595056 q 0,-0.5501304 0.19043,-1.0156254 0.194662,-0.4697267 0.533203,-0.8040367 0.338542,-0.3385418 0.804037,-0.5289716 0.465495,-0.1904297 1.011394,-0.1904297 h 1.489584 q 0.545898,0 1.007161,0.1904297 0.465495,0.1904298 0.804037,0.5289716 0.338542,0.33431 0.528972,0.8040367 0.190429,0.465495 0.190429,1.0156254 z m -1.10026,-1.1595056 q 0,-0.3258465 -0.105795,-0.5882164 -0.101562,-0.2666016 -0.291992,-0.4527996 -0.186198,-0.1904298 -0.4528,-0.2919923 -0.26237,-0.1057943 -0.579752,-0.1057943 h -1.489584 q -0.321615,0 -0.588217,0.1057943 -0.26237,0.1015625 -0.452799,0.2919923 -0.19043,0.186198 -0.296224,0.4527996 -0.101563,0.2623699 -0.101563,0.5882164 v 1.1595056 q 0,0.3258465 0.101563,0.5924482 0.105794,0.2623698 0.296224,0.4527996 0.190429,0.186198 0.452799,0.2919923 0.266602,0.1015625 0.588217,0.1015625 h 1.48112 q 0.321615,0 0.583985,-0.1015625 0.266601,-0.1057943 0.457031,-0.2919923 0.19043,-0.1904298 0.291992,-0.4527996 0.105795,-0.2666017 0.105795,-0.5924482 z"/>
    </g>
    <path d="M 0,0 H 1.5 V 2 H 0 Z" style="fill:#dddddd" transform="translate(21,-4)" id="rect12233"/>
  </g>
  <g style="font-weight:bold;font-size:10.6667px;font-family:Roboto, sans-serif;letter-spacing:2px;fill:#333333" id="text12239" aria-label="LOW">
    <path id="path12574" style="font-weight:bold;font-size:10.6667px;font-family:Roboto, sans-serif;letter-spacing:2px;fill:#333333" d="m 34.23959,38.744788 h 3.317719 V 40 h -4.880224 v -7.583357 h 1.562505 z"/>
    <path id="path12576" style="font-weight:bold;font-size:10.6667px;font-family:Roboto, sans-serif;letter-spacing:2px;fill:#333333" d="m 46.343789,36.380197 q 0,1.119795 -0.395835,1.963548 -0.395834,0.843752 -1.13542,1.302087 -0.734377,0.458335 -1.687505,0.458335 -0.942711,0 -1.682297,-0.453126 -0.739586,-0.453127 -1.145837,-1.291671 -0.406251,-0.843753 -0.41146,-1.937506 v -0.375001 q 0,-1.119796 0.401043,-1.968757 0.406251,-0.854169 1.140629,-1.307296 0.739585,-0.458334 1.687505,-0.458334 0.94792,0 1.682297,0.458334 0.739586,0.453127 1.140629,1.307296 0.406251,0.848961 0.406251,1.963548 z m -1.583338,-0.343751 q 0,-1.192712 -0.427085,-1.812506 -0.427085,-0.619794 -1.218754,-0.619794 -0.786461,0 -1.213545,0.614586 -0.427085,0.609377 -0.432293,1.791672 v 0.369793 q 0,1.161462 0.427084,1.802089 0.427085,0.640627 1.229171,0.640627 0.786461,0 1.208337,-0.614585 0.421876,-0.619794 0.427085,-1.802089 z"/>
    <path id="path12578" style="font-weight:bold;font-size:10.6667px;font-family:Roboto, sans-serif;letter-spacing:2px;fill:#333333" d="m 55.395894,37.812493 1.020837,-5.39585 h 1.557296 L 56.29173,40 H 54.718809 L 53.48443,34.927067 52.250051,40 h -1.572922 l -1.682297,-7.583357 h 1.557297 l 1.026045,5.385433 1.250004,-5.385433 h 1.322921 z"/>
  </g>
  <g transform="translate(26,53)" id="g12241"/>
  <g transform="translate(10,37)" id="use12243">
    <g transform="translate(35,35)" id="g12356">
      <g style="font-weight:bold;font-size:8px;font-family:Roboto, sans-serif;fill:#333333" id="text12332" transform="translate(-22.5,24.150635)" aria-label="-36">
        <path id="path12532" style="font-weight:bold;font-size:8px;font-family:Roboto, sans-serif;fill:#333333" d="M 2.6289063,-1.9804687 H 0.4296875 V -2.890625 h 2.1992188 z"/>
        <path id="path12534" style="font-weight:bold;font-size:8px;font-family:Roboto, sans-serif;fill:#333333" d="m 4.6445312,-3.34375 h 0.6015625 q 0.4296875,0 0.6367188,-0.2148438 0.2070312,-0.2148437 0.2070312,-0.5703124 0,-0.34375 -0.2070312,-0.5351563 -0.203125,-0.1914062 -0.5625,-0.1914062 -0.3242188,0 -0.5429688,0.1796875 Q 4.5585937,-4.5 4.5585937,-4.2148437 H 3.4296875 q 0,-0.4453125 0.2382813,-0.796875 0.2421875,-0.3554688 0.6718749,-0.5546875 0.4335938,-0.1992188 0.953125,-0.1992188 0.9023438,0 1.4140625,0.4335938 0.5117188,0.4296875 0.5117188,1.1875 0,0.3906249 -0.2382813,0.7187499 -0.2382812,0.328125 -0.625,0.5039063 0.4804688,0.171875 0.7148438,0.515625 0.2382812,0.34375 0.2382812,0.8125 0,0.7578125 -0.5546875,1.21484375 Q 6.203125,0.078125 5.2929687,0.078125 q -0.8515625,0 -1.3945312,-0.44921875 Q 3.359375,-0.8203125 3.359375,-1.5585937 h 1.1289062 q 0,0.3203125 0.2382813,0.5234375 0.2421875,0.20312495 0.59375,0.20312495 0.4023437,0 0.6289062,-0.21093745 0.2304688,-0.2148438 0.2304688,-0.5664063 0,-0.8515625 -0.9375,-0.8515625 H 4.6445312 Z"/>
        <path id="path12536" style="font-weight:bold;font-size:8px;font-family:Roboto, sans-serif;fill:#333333" d="m 11.152344,-5.7460937 v 0.9296875 H 11.042969 Q 10.277344,-4.8046875 9.8085938,-4.4179687 9.34375,-4.03125 9.25,-3.34375 q 0.453125,-0.4609375 1.144531,-0.4609375 0.742188,0 1.179688,0.53125 0.4375,0.53125 0.4375,1.3984375 0,0.5546875 -0.242188,1.00390625 -0.238281,0.44921875 -0.679687,0.69921875 -0.4375,0.25 -0.992188,0.25 -0.8984372,0 -1.4531247,-0.625 Q 8.09375,-1.171875 8.09375,-2.2148438 v -0.40625 q 0,-0.9257812 0.3476563,-1.6328124 0.3515625,-0.7109375 1.0039062,-1.0976563 0.6562505,-0.390625 1.5195315,-0.3945312 z m -1.101563,2.8476562 q -0.2734372,0 -0.4960935,0.1445312 -0.2226562,0.140625 -0.328125,0.375 v 0.34375 q 0,0.5664063 0.2226563,0.8867188 0.2226562,0.31640625 0.6250002,0.31640625 0.363281,0 0.585937,-0.28515625 0.226563,-0.2890625 0.226563,-0.7460937 0,-0.4648438 -0.226563,-0.7500001 -0.226562,-0.2851562 -0.609375,-0.2851562 z"/>
      </g>
      <path d="M 0,0 H 3" style="stroke:#333333;stroke-width:0.3" transform="rotate(145,-10.5,3.3106373)" id="polyline12334"/>
      <g style="font-weight:bold;font-size:8px;font-family:Roboto, sans-serif;fill:#333333" id="text12336" transform="translate(-34.620194,6.8412044)" aria-label="-24">
        <path id="path12540" style="font-weight:bold;font-size:8px;font-family:Roboto, sans-serif;fill:#333333" d="M 2.6289063,-1.9804687 H 0.4296875 V -2.890625 h 2.1992188 z"/>
        <path id="path12542" style="font-weight:bold;font-size:8px;font-family:Roboto, sans-serif;fill:#333333" d="M 7.3945312,0 H 3.4960938 V -0.7734375 L 5.3359375,-2.734375 Q 5.7148437,-3.1484375 5.8945312,-3.4570313 6.078125,-3.765625 6.078125,-4.0429687 q 0,-0.3789063 -0.1914063,-0.59375 -0.1914062,-0.21875 -0.546875,-0.21875 -0.3828125,0 -0.6054687,0.265625 -0.21875,0.2617187 -0.21875,0.6914062 H 3.3828125 q 0,-0.5195312 0.2460938,-0.9492187 0.25,-0.4296875 0.7031249,-0.671875 0.453125,-0.2460938 1.0273438,-0.2460938 0.8789062,0 1.3632812,0.421875 0.4882813,0.421875 0.4882813,1.1914063 0,0.4218749 -0.21875,0.8593749 -0.21875,0.4375 -0.75,1.0195313 l -1.2929688,1.36328125 h 2.4453125 z"/>
        <path id="path12544" style="font-weight:bold;font-size:8px;font-family:Roboto, sans-serif;fill:#333333" d="m 11.429688,-2.140625 h 0.644531 v 0.9101563 H 11.429688 V 0 H 10.300781 V -1.2304687 H 7.96875 L 7.9179687,-1.9414062 10.289063,-5.6875 h 1.140625 z m -2.3867192,0 h 1.2578122 v -2.0078125 l -0.07422,0.1289063 z"/>
      </g>
      <path d="M 0,0 H 3" style="stroke:#333333;stroke-width:0.3" transform="rotate(-165,-10.5,-1.3823512)" id="polyline12338"/>
      <g style="font-weight:bold;font-size:8px;font-family:Roboto, sans-serif;fill:#333333" id="text12340" transform="translate(-29.151111,-13.56969)" aria-label="-12">
        <path id="path12548" style="font-weight:bold;font-size:8px;font-family:Roboto, sans-serif;fill:#333333" d="M 2.6289063,-1.9804687 H 0.4296875 V -2.890625 h 2.1992188 z"/>
        <path id="path12550" style="font-weight:bold;font-size:8px;font-family:Roboto, sans-serif;fill:#333333" d="M 6.2382812,0 H 5.109375 v -4.3515625 l -1.3476562,0.4179687 v -0.9179687 l 2.3554687,-0.84375 h 0.1210937 z"/>
        <path id="path12552" style="font-weight:bold;font-size:8px;font-family:Roboto, sans-serif;fill:#333333" d="M 11.988281,0 H 8.0898438 V -0.7734375 L 9.9296875,-2.734375 q 0.3789065,-0.4140625 0.5585935,-0.7226563 0.183594,-0.3085937 0.183594,-0.5859374 0,-0.3789063 -0.191406,-0.59375 -0.191406,-0.21875 -0.5468752,-0.21875 -0.3828125,0 -0.6054688,0.265625 -0.21875,0.2617187 -0.21875,0.6914062 H 7.9765625 q 0,-0.5195312 0.2460938,-0.9492187 0.25,-0.4296875 0.703125,-0.671875 0.453125,-0.2460938 1.0273437,-0.2460938 0.878906,0 1.363281,0.421875 0.488282,0.421875 0.488282,1.1914063 0,0.4218749 -0.21875,0.8593749 -0.21875,0.4375 -0.75,1.0195313 l -1.2929692,1.36328125 h 2.4453122 z"/>
      </g>
      <path d="M 0,0 H 3" style="stroke:#333333;stroke-width:0.3" transform="rotate(-115,-10.5,-6.6892377)" id="polyline12342"/>
      <g style="font-weight:bold;font-size:8px;font-family:Roboto, sans-serif;fill:#333333" id="text12344" transform="translate(-2.3,-22.5)" aria-label="0">
        <path id="path12556" style="font-weight:bold;font-size:8px;font-family:Roboto, sans-serif;fill:#333333" d="m 4.2148437,-2.3515625 q 0,1.1796875 -0.4882812,1.8046875 -0.4882812,0.625 -1.4296875,0.625 -0.9296875,0 -1.421875,-0.61328125 Q 0.3828125,-1.1484375 0.37109375,-2.2929688 v -1.046875 q 0,-1.1914062 0.4921875,-1.8085937 Q 1.359375,-5.765625 2.2890625,-5.765625 q 0.9296875,0 1.421875,0.6132813 0.4921875,0.609375 0.5039062,1.7539062 z M 3.0859375,-3.5 q 0,-0.7070312 -0.1953125,-1.0273437 -0.1914062,-0.3242188 -0.6015625,-0.3242188 -0.3984375,0 -0.5898438,0.3085938 Q 1.5117187,-4.2382812 1.5,-3.5859375 v 1.3828125 q 0,0.6953125 0.1875,1.0351563 0.1914062,0.33593745 0.609375,0.33593745 0.4140625,0 0.5976563,-0.32421875 0.1835937,-0.3242187 0.1914062,-0.9921875 z"/>
      </g>
      <path d="M 0,0 H 3" style="stroke:#333333;stroke-width:0.3" transform="rotate(-52.5,-10.5,-21.291894)" id="polyline12346"/>
      <g style="font-weight:bold;font-size:8px;font-family:Roboto, sans-serif;fill:#333333" id="text12348" transform="translate(21.148146,-3.9704761)" aria-label="6">
        <path id="path12560" style="font-weight:bold;font-size:8px;font-family:Roboto, sans-serif;fill:#333333" d="m 3.4492188,-5.7460937 v 0.9296875 h -0.109375 q -0.765625,0.011719 -1.234375,0.3984375 Q 1.640625,-4.03125 1.546875,-3.34375 2,-3.8046875 2.6914063,-3.8046875 q 0.7421875,0 1.1796875,0.53125 0.4374999,0.53125 0.4374999,1.3984375 0,0.5546875 -0.2421875,1.00390625 Q 3.828125,-0.421875 3.3867188,-0.171875 q -0.4375,0.25 -0.9921875,0.25 -0.8984376,0 -1.45312505,-0.625 Q 0.390625,-1.171875 0.390625,-2.2148438 v -0.40625 q 0,-0.9257812 0.34765625,-1.6328124 0.35156245,-0.7109375 1.00390625,-1.0976563 0.65625,-0.390625 1.5195313,-0.3945312 z m -1.1015625,2.8476562 q -0.2734375,0 -0.4960938,0.1445312 -0.2226563,0.140625 -0.328125,0.375 v 0.34375 q 0,0.5664063 0.2226562,0.8867188 0.2226563,0.31640625 0.6250001,0.31640625 0.3632812,0 0.5859375,-0.28515625 0.2265625,-0.2890625 0.2265625,-0.7460937 0,-0.4648438 -0.2265625,-0.7500001 -0.2265625,-0.2851562 -0.609375,-0.2851562 z"/>
      </g>
      <path d="M 0,0 H 3" style="stroke:#333333;stroke-width:0.3" transform="rotate(22.5,-10.5,52.787065)" id="polyline12350"/>
      <g style="font-weight:bold;font-size:8px;font-family:Roboto, sans-serif;fill:#333333" id="text12352" transform="translate(10.2,24.150635)" aria-label="12">
        <path id="path12564" style="font-weight:bold;font-size:8px;font-family:Roboto, sans-serif;fill:#333333" d="M 3.1289063,0 H 2 v -4.3515625 l -1.34765625,0.4179687 v -0.9179687 l 2.35546875,-0.84375 h 0.1210938 z"/>
        <path id="path12566" style="font-weight:bold;font-size:8px;font-family:Roboto, sans-serif;fill:#333333" d="M 8.8789063,0 H 4.9804687 V -0.7734375 L 6.8203125,-2.734375 Q 7.1992187,-3.1484375 7.3789062,-3.4570313 7.5625,-3.765625 7.5625,-4.0429687 q 0,-0.3789063 -0.1914063,-0.59375 -0.1914062,-0.21875 -0.546875,-0.21875 -0.3828125,0 -0.6054687,0.265625 Q 6,-4.328125 6,-3.8984375 H 4.8671875 q 0,-0.5195312 0.2460937,-0.9492187 0.25,-0.4296875 0.703125,-0.671875 0.453125,-0.2460938 1.0273438,-0.2460938 0.8789062,0 1.3632813,0.421875 0.4882812,0.421875 0.4882812,1.1914063 0,0.4218749 -0.21875,0.8593749 -0.21875,0.4375 -0.75,1.0195313 l -1.2929688,1.36328125 h 2.4453126 z"/>
      </g>
      <g style="font-weight:bold;font-size:8px;font-family:Roboto, sans-serif;fill:#333333" id="text12354" transform="translate(-4.7,31.2)" aria-label="dB">
        <path id="path12569" style="font-weight:bold;font-size:8px;font-family:Roboto, sans-serif;fill:#333333" d="m 0.2578125,-2.1445313 q 0,-0.9882812 0.44140625,-1.5742187 0.44531245,-0.5859375 1.21484375,-0.5859375 0.6171875,0 1.0195313,0.4609375 V -6 H 4.0664062 V 0 H 3.046875 L 2.9921875,-0.44921875 Q 2.5703125,0.078125 1.90625,0.078125 q -0.7460938,0 -1.19921875,-0.5859375 Q 0.2578125,-1.0976562 0.2578125,-2.1445313 Z M 1.3867187,-2.0625 q 0,0.59375 0.2070313,0.9101563 0.2070312,0.3164062 0.6015625,0.3164062 0.5234375,0 0.7382813,-0.4414062 V -2.9453125 Q 2.7226563,-3.3867188 2.203125,-3.3867188 q -0.8164063,0 -0.8164063,1.3242188 z"/>
        <path id="path12571" style="font-weight:bold;font-size:8px;font-family:Roboto, sans-serif;fill:#333333" d="M 5.0234375,0 V -5.6875 H 7.015625 q 1.0351563,0 1.5703125,0.3984375 0.5351563,0.3945313 0.5351563,1.1601563 0,0.4179687 -0.2148438,0.7382812 -0.2148437,0.3164062 -0.5976562,0.4648437 0.4375,0.109375 0.6875,0.4414063 Q 9.25,-2.1523438 9.25,-1.671875 9.25,-0.8515625 8.7265625,-0.4296875 8.203125,-0.0078125 7.234375,0 Z m 1.171875,-2.4765625 v 1.53515625 h 1.0039062 q 0.4140625,0 0.6445313,-0.19531245 0.234375,-0.1992188 0.234375,-0.546875 0,-0.7812501 -0.8085938,-0.7929688 z m 0,-0.828125 H 7.0625 q 0.8867187,-0.015625 0.8867187,-0.7070312 0,-0.3867188 -0.2265625,-0.5546875 Q 7.5,-4.7382812 7.015625,-4.7382812 H 6.1953125 Z"/>
      </g>
    </g>
  </g>
  <g style="font-weight:bold;font-size:10.6667px;font-family:Roboto, sans-serif;letter-spacing:2px;fill:#333333" id="text12247" aria-label="MID">
    <path id="path12525" style="font-weight:bold;font-size:10.6667px;font-family:Roboto, sans-serif;letter-spacing:2px;fill:#333333" d="m 35.718759,114.41664 1.947922,5.50002 1.937507,-5.50002 h 2.052089 V 122 h -1.567713 v -2.07292 L 40.244815,116.34894 38.197933,122 h -1.07292 l -2.041673,-5.64585 0.15625,3.57293 V 122 h -1.562505 v -7.58336 z"/>
    <path id="path12527" style="font-weight:bold;font-size:10.6667px;font-family:Roboto, sans-serif;letter-spacing:2px;fill:#333333" d="m 46.692746,122 h -1.562505 v -7.58336 h 1.562505 z"/>
    <path id="path12529" style="font-weight:bold;font-size:10.6667px;font-family:Roboto, sans-serif;letter-spacing:2px;fill:#333333" d="m 50.135459,122 v -7.58336 H 52.4688 q 1.000003,0 1.786464,0.45313 0.791669,0.44792 1.234379,1.28125 0.44271,0.82813 0.44271,1.88543 v 0.34896 q 0,1.05729 -0.437502,1.88021 -0.432293,0.82292 -1.223962,1.27605 Q 53.47922,121.99479 52.484425,122 Z m 1.562505,-6.31773 v 5.06252 h 0.755211 q 0.91667,0 1.401046,-0.59896 0.484377,-0.59896 0.494793,-1.71355 v -0.40104 q 0,-1.15626 -0.479168,-1.75001 -0.479168,-0.59896 -1.401046,-0.59896 z"/>
  </g>
  <g transform="translate(26,135)" id="g12249"/>
  <g transform="translate(10,119)" id="use12251">
    <g transform="translate(35,35)" id="g12384">
      <g style="font-weight:bold;font-size:8px;font-family:Roboto, sans-serif;fill:#333333" id="text12360" transform="translate(-22.5,24.150635)" aria-label="-36">
        <path id="path12483" style="font-weight:bold;font-size:8px;font-family:Roboto, sans-serif;fill:#333333" d="M 2.6289063,-1.9804687 H 0.4296875 V -2.890625 h 2.1992188 z"/>
        <path id="path12485" style="font-weight:bold;font-size:8px;font-family:Roboto, sans-serif;fill:#333333" d="m 4.6445312,-3.34375 h 0.6015625 q 0.4296875,0 0.6367188,-0.2148438 0.2070312,-0.2148437 0.2070312,-0.5703124 0,-0.34375 -0.2070312,-0.5351563 -0.203125,-0.1914062 -0.5625,-0.1914062 -0.3242188,0 -0.5429688,0.1796875 Q 4.5585937,-4.5 4.5585937,-4.2148437 H 3.4296875 q 0,-0.4453125 0.2382813,-0.796875 0.2421875,-0.3554688 0.6718749,-0.5546875 0.4335938,-0.1992188 0.953125,-0.1992188 0.9023438,0 1.4140625,0.4335938 0.5117188,0.4296875 0.5117188,1.1875 0,0.3906249 -0.2382813,0.7187499 -0.2382812,0.328125 -0.625,0.5039063 0.4804688,0.171875 0.7148438,0.515625 0.2382812,0.34375 0.2382812,0.8125 0,0.7578125 -0.5546875,1.21484375 Q 6.203125,0.078125 5.2929687,0.078125 q -0.8515625,0 -1.3945312,-0.44921875 Q 3.359375,-0.8203125 3.359375,-1.5585937 h 1.1289062 q 0,0.3203125 0.2382813,0.5234375 0.2421875,0.20312495 0.59375,0.20312495 0.4023437,0 0.6289062,-0.21093745 0.2304688,-0.2148438 0.2304688,-0.5664063 0,-0.8515625 -0.9375,-0.8515625 H 4.6445312 Z"/>
        <path id="path12487" style="font-weight:bold;font-size:8px;font-family:Roboto, sans-serif;fill:#333333" d="m 11.152344,-5.7460937 v 0.9296875 H 11.042969 Q 10.277344,-4.8046875 9.8085938,-4.4179687 9.34375,-4.03125 9.25,-3.34375 q 0.453125,-0.4609375 1.144531,-0.4609375 0.742188,0 1.179688,0.53125 0.4375,0.53125 0.4375,1.3984375 0,0.5546875 -0.242188,1.00390625 -0.238281,0.44921875 -0.679687,0.69921875 -0.4375,0.25 -0.992188,0.25 -0.8984372,0 -1.4531247,-0.625 Q 8.09375,-1.171875 8.09375,-2.2148438 v -0.40625 q 0,-0.9257812 0.3476563,-1.6328124 0.3515625,-0.7109375 1.0039062,-1.0976563 0.6562505,-0.390625 1.5195315,-0.3945312 z m -1.101563,2.8476562 q -0.2734372,0 -0.4960935,0.1445312 -0.2226562,0.140625 -0.328125,0.375 v 0.34375 q 0,0.5664063 0.2226563,0.8867188 0.2226562,0.31640625 0.6250002,0.31640625 0.363281,0 0.585937,-0.28515625 0.226563,-0.2890625 0.226563,-0.7460937 0,-0.4648438 -0.226563,-0.7500001 -0.226562,-0.2851562 -0.609375,-0.2851562 z"/>
      </g>
      <path d="M 0,0 H 3" style="stroke:#333333;stroke-width:0.3" transform="rotate(145,-10.5,3.3106373)" id="polyline12362"/>
      <g style="font-weight:bold;font-size:8px;font-family:Roboto, sans-serif;fill:#333333" id="text12364" transform="translate(-34.620194,6.8412044)" aria-label="-24">
        <path id="path12491" style="font-weight:bold;font-size:8px;font-family:Roboto, sans-serif;fill:#333333" d="M 2.6289063,-1.9804687 H 0.4296875 V -2.890625 h 2.1992188 z"/>
        <path id="path12493" style="font-weight:bold;font-size:8px;font-family:Roboto, sans-serif;fill:#333333" d="M 7.3945312,0 H 3.4960938 V -0.7734375 L 5.3359375,-2.734375 Q 5.7148437,-3.1484375 5.8945312,-3.4570313 6.078125,-3.765625 6.078125,-4.0429687 q 0,-0.3789063 -0.1914063,-0.59375 -0.1914062,-0.21875 -0.546875,-0.21875 -0.3828125,0 -0.6054687,0.265625 -0.21875,0.2617187 -0.21875,0.6914062 H 3.3828125 q 0,-0.5195312 0.2460938,-0.9492187 0.25,-0.4296875 0.7031249,-0.671875 0.453125,-0.2460938 1.0273438,-0.2460938 0.8789062,0 1.3632812,0.421875 0.4882813,0.421875 0.4882813,1.1914063 0,0.4218749 -0.21875,0.8593749 -0.21875,0.4375 -0.75,1.0195313 l -1.2929688,1.36328125 h 2.4453125 z"/>
        <path id="path12495" style="font-weight:bold;font-size:8px;font-family:Roboto, sans-serif;fill:#333333" d="m 11.429688,-2.140625 h 0.644531 v 0.9101563 H 11.429688 V 0 H 10.300781 V -1.2304687 H 7.96875 L 7.9179687,-1.9414062 10.289063,-5.6875 h 1.140625 z m -2.3867192,0 h 1.2578122 v -2.0078125 l -0.07422,0.1289063 z"/>
      </g>
      <path d="M 0,0 H 3" style="stroke:#333333;stroke-width:0.3" transform="rotate(-165,-10.5,-1.3823512)" id="polyline12366"/>
      <g style="font-weight:bold;font-size:8px;font-family:Roboto, sans-serif;fill:#333333" id="text12368" transform="translate(-29.151111,-13.56969)" aria-label="-12">
        <path id="path12499" style="font-weight:bold;font-size:8px;font-family:Roboto, sans-serif;fill:#333333" d="M 2.6289063,-1.9804687 H 0.4296875 V -2.890625 h 2.1992188 z"/>
        <path id="path12501" style="font-weight:bold;font-size:8px;font-family:Roboto, sans-serif;fill:#333333" d="M 6.2382812,0 H 5.109375 v -4.3515625 l -1.3476562,0.4179687 v -0.9179687 l 2.3554687,-0.84375 h 0.1210937 z"/>
        <path id="path12503" style="font-weight:bold;font-size:8px;font-family:Roboto, sans-serif;fill:#333333" d="M 11.988281,0 H 8.0898438 V -0.7734375 L 9.9296875,-2.734375 q 0.3789065,-0.4140625 0.5585935,-0.7226563 0.183594,-0.3085937 0.183594,-0.5859374 0,-0.3789063 -0.191406,-0.59375 -0.191406,-0.21875 -0.5468752,-0.21875 -0.3828125,0 -0.6054688,0.265625 -0.21875,0.2617187 -0.21875,0.6914062 H 7.9765625 q 0,-0.5195312 0.2460938,-0.9492187 0.25,-0.4296875 0.703125,-0.671875 0.453125,-0.2460938 1.0273437,-0.2460938 0.878906,0 1.363281,0.421875 0.488282,0.421875 0.488282,1.1914063 0,0.4218749 -0.21875,0.8593749 -0.21875,0.4375 -0.75,1.0195313 l -1.2929692,1.36328125 h 2.4453122 z"/>
      </g>
      <path d="M 0,0 H 3" style="stroke:#333333;stroke-width:0.3" transform="rotate(-115,-10.5,-6.6892377)" id="polyline12370"/>
      <g style="font-weight:bold;font-size:8px;font-family:Roboto, sans-serif;fill:#333333" id="text12372" transform="translate(-2.3,-22.5)" aria-label="0">
        <path id="path12507" style="font-weight:bold;font-size:8px;font-family:Roboto, sans-serif;fill:#333333" d="m 4.2148437,-2.3515625 q 0,1.1796875 -0.4882812,1.8046875 -0.4882812,0.625 -1.4296875,0.625 -0.9296875,0 -1.421875,-0.61328125 Q 0.3828125,-1.1484375 0.37109375,-2.2929688 v -1.046875 q 0,-1.1914062 0.4921875,-1.8085937 Q 1.359375,-5.765625 2.2890625,-5.765625 q 0.9296875,0 1.421875,0.6132813 0.4921875,0.609375 0.5039062,1.7539062 z M 3.0859375,-3.5 q 0,-0.7070312 -0.1953125,-1.0273437 -0.1914062,-0.3242188 -0.6015625,-0.3242188 -0.3984375,0 -0.5898438,0.3085938 Q 1.5117187,-4.2382812 1.5,-3.5859375 v 1.3828125 q 0,0.6953125 0.1875,1.0351563 0.1914062,0.33593745 0.609375,0.33593745 0.4140625,0 0.5976563,-0.32421875 0.1835937,-0.3242187 0.1914062,-0.9921875 z"/>
      </g>
      <path d="M 0,0 H 3" style="stroke:#333333;stroke-width:0.3" transform="rotate(-52.5,-10.5,-21.291894)" id="polyline12374"/>
      <g style="font-weight:bold;font-size:8px;font-family:Roboto, sans-serif;fill:#333333" id="text12376" transform="translate(21.148146,-3.9704761)" aria-label="6">
        <path id="path12511" style="font-weight:bold;font-size:8px;font-family:Roboto, sans-serif;fill:#333333" d="m 3.4492188,-5.7460937 v 0.9296875 h -0.109375 q -0.765625,0.011719 -1.234375,0.3984375 Q 1.640625,-4.03125 1.546875,-3.34375 2,-3.8046875 2.6914063,-3.8046875 q 0.7421875,0 1.1796875,0.53125 0.4374999,0.53125 0.4374999,1.3984375 0,0.5546875 -0.2421875,1.00390625 Q 3.828125,-0.421875 3.3867188,-0.171875 q -0.4375,0.25 -0.9921875,0.25 -0.8984376,0 -1.45312505,-0.625 Q 0.390625,-1.171875 0.390625,-2.2148438 v -0.40625 q 0,-0.9257812 0.34765625,-1.6328124 0.35156245,-0.7109375 1.00390625,-1.0976563 0.65625,-0.390625 1.5195313,-0.3945312 z m -1.1015625,2.8476562 q -0.2734375,0 -0.4960938,0.1445312 -0.2226563,0.140625 -0.328125,0.375 v 0.34375 q 0,0.5664063 0.2226562,0.8867188 0.2226563,0.31640625 0.6250001,0.31640625 0.3632812,0 0.5859375,-0.28515625 0.2265625,-0.2890625 0.2265625,-0.7460937 0,-0.4648438 -0.2265625,-0.7500001 -0.2265625,-0.2851562 -0.609375,-0.2851562 z"/>
      </g>
      <path d="M 0,0 H 3" style="stroke:#333333;stroke-width:0.3" transform="rotate(22.5,-10.5,52.787065)" id="polyline12378"/>
      <g style="font-weight:bold;font-size:8px;font-family:Roboto, sans-serif;fill:#333333" id="text12380" transform="translate(10.2,24.150635)" aria-label="12">
        <path id="path12515" style="font-weight:bold;font-size:8px;font-family:Roboto, sans-serif;fill:#333333" d="M 3.1289063,0 H 2 v -4.3515625 l -1.34765625,0.4179687 v -0.9179687 l 2.35546875,-0.84375 h 0.1210938 z"/>
        <path id="path12517" style="font-weight:bold;font-size:8px;font-family:Roboto, sans-serif;fill:#333333" d="M 8.8789063,0 H 4.9804687 V -0.7734375 L 6.8203125,-2.734375 Q 7.1992187,-3.1484375 7.3789062,-3.4570313 7.5625,-3.765625 7.5625,-4.0429687 q 0,-0.3789063 -0.1914063,-0.59375 -0.1914062,-0.21875 -0.546875,-0.21875 -0.3828125,0 -0.6054687,0.265625 Q 6,-4.328125 6,-3.8984375 H 4.8671875 q 0,-0.5195312 0.2460937,-0.9492187 0.25,-0.4296875 0.703125,-0.671875 0.453125,-0.2460938 1.0273438,-0.2460938 0.8789062,0 1.3632813,0.421875 0.4882812,0.421875 0.4882812,1.1914063 0,0.4218749 -0.21875,0.8593749 -0.21875,0.4375 -0.75,1.0195313 l -1.2929688,1.36328125 h 2.4453126 z"/>
      </g>
      <g style="font-weight:bold;font-size:8px;font-family:Roboto, sans-serif;fill:#333333" id="text12382" transform="translate(-4.7,31.2)" aria-label="dB">
        <path id="path12520" style="font-weight:bold;font-size:8px;font-family:Roboto, sans-serif;fill:#333333" d="m 0.2578125,-2.1445313 q 0,-0.9882812 0.44140625,-1.5742187 0.44531245,-0.5859375 1.21484375,-0.5859375 0.6171875,0 1.0195313,0.4609375 V -6 H 4.0664062 V 0 H 3.046875 L 2.9921875,-0.44921875 Q 2.5703125,0.078125 1.90625,0.078125 q -0.7460938,0 -1.19921875,-0.5859375 Q 0.2578125,-1.0976562 0.2578125,-2.1445313 Z M 1.3867187,-2.0625 q 0,0.59375 0.2070313,0.9101563 0.2070312,0.3164062 0.6015625,0.3164062 0.5234375,0 0.7382813,-0.4414062 V -2.9453125 Q 2.7226563,-3.3867188 2.203125,-3.3867188 q -0.8164063,0 -0.8164063,1.3242188 z"/>
        <path id="path12522" style="font-weight:bold;font-size:8px;font-family:Roboto, sans-serif;fill:#333333" d="M 5.0234375,0 V -5.6875 H 7.015625 q 1.0351563,0 1.5703125,0.3984375 0.5351563,0.3945313 0.5351563,1.1601563 0,0.4179687 -0.2148438,0.7382812 -0.2148437,0.3164062 -0.5976562,0.4648437 0.4375,0.109375 0.6875,0.4414063 Q 9.25,-2.1523438 9.25,-1.671875 9.25,-0.8515625 8.7265625,-0.4296875 8.203125,-0.0078125 7.234375,0 Z m 1.171875,-2.4765625 v 1.53515625 h 1.0039062 q 0.4140625,0 0.6445313,-0.19531245 0.234375,-0.1992188 0.234375,-0.546875 0,-0.7812501 -0.8085938,-0.7929688 z m 0,-0.828125 H 7.0625 q 0.8867187,-0.015625 0.8867187,-0.7070312 0,-0.3867188 -0.2265625,-0.5546875 Q 7.5,-4.7382812 7.015625,-4.7382812 H 6.1953125 Z"/>
      </g>
    </g>
  </g>
  <g style="font-weight:bold;font-size:10.6667px;font-family:Roboto, sans-serif;letter-spacing:2px;fill:#333333" id="text12255" aria-label="HIGH">
    <path id="path12474" style="font-weight:bold;font-size:10.6667px;font-family:Roboto, sans-serif;letter-spacing:2px;fill:#333333" d="m 35.84898,204 h -1.562505 v -3.25001 H 31.23959 V 204 h -1.562505 v -7.58336 h 1.562505 v 3.07293 h 3.046885 v -3.07293 h 1.562505 z"/>
    <path id="path12476" style="font-weight:bold;font-size:10.6667px;font-family:Roboto, sans-serif;letter-spacing:2px;fill:#333333" d="m 40.88024,204 h -1.562505 v -7.58336 h 1.562505 z"/>
    <path id="path12478" style="font-weight:bold;font-size:10.6667px;font-family:Roboto, sans-serif;letter-spacing:2px;fill:#333333" d="m 50.322971,203.04166 q -0.421877,0.50521 -1.192712,0.78646 -0.770836,0.27605 -1.708339,0.27605 -0.984378,0 -1.729172,-0.42709 -0.739586,-0.43229 -1.145837,-1.25 -0.401043,-0.81771 -0.41146,-1.92188 v -0.51563 q 0,-1.13542 0.38021,-1.96355 0.385418,-0.83333 1.10417,-1.27083 0.723961,-0.44271 1.692714,-0.44271 1.348962,0 2.109381,0.64583 0.760419,0.64063 0.901045,1.8698 h -1.520838 q -0.104167,-0.65105 -0.463543,-0.95313 -0.354168,-0.30208 -0.97917,-0.30208 -0.796878,0 -1.213546,0.59896 -0.416668,0.59896 -0.421876,1.78125 v 0.48438 q 0,1.19271 0.453126,1.80209 0.453127,0.60937 1.32813,0.60937 0.880211,0 1.255212,-0.375 v -1.30729 h -1.42188 v -1.15105 h 2.984385 z"/>
    <path id="path12480" style="font-weight:bold;font-size:10.6667px;font-family:Roboto, sans-serif;letter-spacing:2px;fill:#333333" d="m 59.765703,204 h -1.562505 v -3.25001 H 55.156314 V 204 h -1.562505 v -7.58336 h 1.562505 v 3.07293 h 3.046884 v -3.07293 h 1.562505 z"/>
  </g>
  <g transform="translate(26,217)" id="g12257"/>
  <g transform="translate(10,201)" id="use12259">
    <g transform="translate(35,35)" id="g12412">
      <g style="font-weight:bold;font-size:8px;font-family:Roboto, sans-serif;fill:#333333" id="text12388" transform="translate(-22.5,24.150635)" aria-label="-36">
        <path id="path12432" style="font-weight:bold;font-size:8px;font-family:Roboto, sans-serif;fill:#333333" d="M 2.6289063,-1.9804687 H 0.4296875 V -2.890625 h 2.1992188 z"/>
        <path id="path12434" style="font-weight:bold;font-size:8px;font-family:Roboto, sans-serif;fill:#333333" d="m 4.6445312,-3.34375 h 0.6015625 q 0.4296875,0 0.6367188,-0.2148438 0.2070312,-0.2148437 0.2070312,-0.5703124 0,-0.34375 -0.2070312,-0.5351563 -0.203125,-0.1914062 -0.5625,-0.1914062 -0.3242188,0 -0.5429688,0.1796875 Q 4.5585937,-4.5 4.5585937,-4.2148437 H 3.4296875 q 0,-0.4453125 0.2382813,-0.796875 0.2421875,-0.3554688 0.6718749,-0.5546875 0.4335938,-0.1992188 0.953125,-0.1992188 0.9023438,0 1.4140625,0.4335938 0.5117188,0.4296875 0.5117188,1.1875 0,0.3906249 -0.2382813,0.7187499 -0.2382812,0.328125 -0.625,0.5039063 0.4804688,0.171875 0.7148438,0.515625 0.2382812,0.34375 0.2382812,0.8125 0,0.7578125 -0.5546875,1.21484375 Q 6.203125,0.078125 5.2929687,0.078125 q -0.8515625,0 -1.3945312,-0.44921875 Q 3.359375,-0.8203125 3.359375,-1.5585937 h 1.1289062 q 0,0.3203125 0.2382813,0.5234375 0.2421875,0.20312495 0.59375,0.20312495 0.4023437,0 0.6289062,-0.21093745 0.2304688,-0.2148438 0.2304688,-0.5664063 0,-0.8515625 -0.9375,-0.8515625 H 4.6445312 Z"/>
        <path id="path12436" style="font-weight:bold;font-size:8px;font-family:Roboto, sans-serif;fill:#333333" d="m 11.152344,-5.7460937 v 0.9296875 H 11.042969 Q 10.277344,-4.8046875 9.8085938,-4.4179687 9.34375,-4.03125 9.25,-3.34375 q 0.453125,-0.4609375 1.144531,-0.4609375 0.742188,0 1.179688,0.53125 0.4375,0.53125 0.4375,1.3984375 0,0.5546875 -0.242188,1.00390625 -0.238281,0.44921875 -0.679687,0.69921875 -0.4375,0.25 -0.992188,0.25 -0.8984372,0 -1.4531247,-0.625 Q 8.09375,-1.171875 8.09375,-2.2148438 v -0.40625 q 0,-0.9257812 0.3476563,-1.6328124 0.3515625,-0.7109375 1.0039062,-1.0976563 0.6562505,-0.390625 1.5195315,-0.3945312 z m -1.101563,2.8476562 q -0.2734372,0 -0.4960935,0.1445312 -0.2226562,0.140625 -0.328125,0.375 v 0.34375 q 0,0.5664063 0.2226563,0.8867188 0.2226562,0.31640625 0.6250002,0.31640625 0.363281,0 0.585937,-0.28515625 0.226563,-0.2890625 0.226563,-0.7460937 0,-0.4648438 -0.226563,-0.7500001 -0.226562,-0.2851562 -0.609375,-0.2851562 z"/>
      </g>
      <path d="M 0,0 H 3" style="stroke:#333333;stroke-width:0.3" transform="rotate(145,-10.5,3.3106373)" id="polyline12390"/>
      <g style="font-weight:bold;font-size:8px;font-family:Roboto, sans-serif;fill:#333333" id="text12392" transform="translate(-34.620194,6.8412044)" aria-label="-24">
        <path id="path12440" style="font-weight:bold;font-size:8px;font-family:Roboto, sans-serif;fill:#333333" d="M 2.6289063,-1.9804687 H 0.4296875 V -2.890625 h 2.1992188 z"/>
        <path id="path12442" style="font-weight:bold;font-size:8px;font-family:Roboto, sans-serif;fill:#333333" d="M 7.3945312,0 H 3.4960938 V -0.7734375 L 5.3359375,-2.734375 Q 5.7148437,-3.1484375 5.8945312,-3.4570313 6.078125,-3.765625 6.078125,-4.0429687 q 0,-0.3789063 -0.1914063,-0.59375 -0.1914062,-0.21875 -0.546875,-0.21875 -0.3828125,0 -0.6054687,0.265625 -0.21875,0.2617187 -0.21875,0.6914062 H 3.3828125 q 0,-0.5195312 0.2460938,-0.9492187 0.25,-0.4296875 0.7031249,-0.671875 0.453125,-0.2460938 1.0273438,-0.2460938 0.8789062,0 1.3632812,0.421875 0.4882813,0.421875 0.4882813,1.1914063 0,0.4218749 -0.21875,0.8593749 -0.21875,0.4375 -0.75,1.0195313 l -1.2929688,1.36328125 h 2.4453125 z"/>
        <path id="path12444" style="font-weight:bold;font-size:8px;font-family:Roboto, sans-serif;fill:#333333" d="m 11.429688,-2.140625 h 0.644531 v 0.9101563 H 11.429688 V 0 H 10.300781 V -1.2304687 H 7.96875 L 7.9179687,-1.9414062 10.289063,-5.6875 h 1.140625 z m -2.3867192,0 h 1.2578122 v -2.0078125 l -0.07422,0.1289063 z"/>
      </g>
      <path d="M 0,0 H 3" style="stroke:#333333;stroke-width:0.3" transform="rotate(-165,-10.5,-1.3823512)" id="polyline12394"/>
      <g style="font-weight:bold;font-size:8px;font-family:Roboto, sans-serif;fill:#333333" id="text12396" transform="translate(-29.151111,-13.56969)" aria-label="-12">
        <path id="path12448" style="font-weight:bold;font-size:8px;font-family:Roboto, sans-serif;fill:#333333" d="M 2.6289063,-1.9804687 H 0.4296875 V -2.890625 h 2.1992188 z"/>
        <path id="path12450" style="font-weight:bold;font-size:8px;font-family:Roboto, sans-serif;fill:#333333" d="M 6.2382812,0 H 5.109375 v -4.3515625 l -1.3476562,0.4179687 v -0.9179687 l 2.3554687,-0.84375 h 0.1210937 z"/>
        <path id="path12452" style="font-weight:bold;font-size:8px;font-family:Roboto, sans-serif;fill:#333333" d="M 11.988281,0 H 8.0898438 V -0.7734375 L 9.9296875,-2.734375 q 0.3789065,-0.4140625 0.5585935,-0.7226563 0.183594,-0.3085937 0.183594,-0.5859374 0,-0.3789063 -0.191406,-0.59375 -0.191406,-0.21875 -0.5468752,-0.21875 -0.3828125,0 -0.6054688,0.265625 -0.21875,0.2617187 -0.21875,0.6914062 H 7.9765625 q 0,-0.5195312 0.2460938,-0.9492187 0.25,-0.4296875 0.703125,-0.671875 0.453125,-0.2460938 1.0273437,-0.2460938 0.878906,0 1.363281,0.421875 0.488282,0.421875 0.488282,1.1914063 0,0.4218749 -0.21875,0.8593749 -0.21875,0.4375 -0.75,1.0195313 l -1.2929692,1.36328125 h 2.4453122 z"/>
      </g>
      <path d="M 0,0 H 3" style="stroke:#333333;stroke-width:0.3" transform="rotate(-115,-10.5,-6.6892377)" id="polyline12398"/>
      <g style="font-weight:bold;font-size:8px;font-family:Roboto, sans-serif;fill:#333333" id="text12400" transform="translate(-2.3,-22.5)" aria-label="0">
        <path id="path12456" style="font-weight:bold;font-size:8px;font-family:Roboto, sans-serif;fill:#333333" d="m 4.2148437,-2.3515625 q 0,1.1796875 -0.4882812,1.8046875 -0.4882812,0.625 -1.4296875,0.625 -0.9296875,0 -1.421875,-0.61328125 Q 0.3828125,-1.1484375 0.37109375,-2.2929688 v -1.046875 q 0,-1.1914062 0.4921875,-1.8085937 Q 1.359375,-5.765625 2.2890625,-5.765625 q 0.9296875,0 1.421875,0.6132813 0.4921875,0.609375 0.5039062,1.7539062 z M 3.0859375,-3.5 q 0,-0.7070312 -0.1953125,-1.0273437 -0.1914062,-0.3242188 -0.6015625,-0.3242188 -0.3984375,0 -0.5898438,0.3085938 Q 1.5117187,-4.2382812 1.5,-3.5859375 v 1.3828125 q 0,0.6953125 0.1875,1.0351563 0.1914062,0.33593745 0.609375,0.33593745 0.4140625,0 0.5976563,-0.32421875 0.1835937,-0.3242187 0.1914062,-0.9921875 z"/>
      </g>
      <path d="M 0,0 H 3" style="stroke:#333333;stroke-width:0.3" transform="rotate(-52.5,-10.5,-21.291894)" id="polyline12402"/>
      <g style="font-weight:bold;font-size:8px;font-family:Roboto, sans-serif;fill:#333333" id="text12404" transform="translate(21.148146,-3.9704761)" aria-label="6">
        <path id="path12460" style="font-weight:bold;font-size:8px;font-family:Roboto, sans-serif;fill:#333333" d="m 3.4492188,-5.7460937 v 0.9296875 h -0.109375 q -0.765625,0.011719 -1.234375,0.3984375 Q 1.640625,-4.03125 1.546875,-3.34375 2,-3.8046875 2.6914063,-3.8046875 q 0.7421875,0 1.1796875,0.53125 0.4374999,0.53125 0.4374999,1.3984375 0,0.5546875 -0.2421875,1.00390625 Q 3.828125,-0.421875 3.3867188,-0.171875 q -0.4375,0.25 -0.9921875,0.25 -0.8984376,0 -1.45312505,-0.625 Q 0.390625,-1.171875 0.390625,-2.2148438 v -0.40625 q 0,-0.9257812 0.34765625,-1.6328124 0.35156245,-0.7109375 1.00390625,-1.0976563 0.65625,-0.390625 1.5195313,-0.3945312 z m -1.1015625,2.8476562 q -0.2734375,0 -0.4960938,0.1445312 -0.2226563,0.140625 -0.328125,0.375 v 0.34375 q 0,0.5664063 0.2226562,0.8867188 0.2226563,0.31640625 0.6250001,0.31640625 0.3632812,0 0.5859375,-0.28515625 0.2265625,-0.2890625 0.2265625,-0.7460937 0,-0.4648438 -0.2265625,-0.7500001 -0.2265625,-0.2851562 -0.609375,-0.2851562 z"/>
      </g>
      <path d="M 0,0 H 3" style="stroke:#333333;stroke-width:0.3" transform="rotate(22.5,-10.5,52.787065)" id="polyline12406"/>
      <g style="font-weight:bold;font-size:8px;font-family:Roboto, sans-serif;fill:#333333" id="text12408" transform="translate(10.2,24.150635)" aria-label="12">
        <path id="path12464" style="font-weight:bold;font-size:8px;font-family:Roboto, sans-serif;fill:#333333" d="M 3.1289063,0 H 2 v -4.3515625 l -1.34765625,0.4179687 v -0.9179687 l 2.35546875,-0.84375 h 0.1210938 z"/>
        <path id="path12466" style="font-weight:bold;font-size:8px;font-family:Roboto, sans-serif;fill:#333333" d="M 8.8789063,0 H 4.9804687 V -0.7734375 L 6.8203125,-2.734375 Q 7.1992187,-3.1484375 7.3789062,-3.4570313 7.5625,-3.765625 7.5625,-4.0429687 q 0,-0.3789063 -0.1914063,-0.59375 -0.1914062,-0.21875 -0.546875,-0.21875 -0.3828125,0 -0.6054687,0.265625 Q 6,-4.328125 6,-3.8984375 H 4.8671875 q 0,-0.5195312 0.2460937,-0.9492187 0.25,-0.4296875 0.703125,-0.671875 0.453125,-0.2460938 1.0273438,-0.2460938 0.8789062,0 1.3632813,0.421875 0.4882812,0.421875 0.4882812,1.1914063 0,0.4218749 -0.21875,0.8593749 -0.21875,0.4375 -0.75,1.0195313 l -1.2929688,1.36328125 h 2.4453126 z"/>
      </g>
      <g style="font-weight:bold;font-size:8px;font-family:Roboto, sans-serif;fill:#333333" id="text12410" transform="translate(-4.7,31.2)" aria-label="dB">
        <path id="path12469" style="font-weight:bold;font-size:8px;font-family:Roboto, sans-serif;fill:#333333" d="m 0.2578125,-2.1445313 q 0,-0.9882812 0.44140625,-1.5742187 0.44531245,-0.5859375 1.21484375,-0.5859375 0.6171875,0 1.0195313,0.4609375 V -6 H 4.0664062 V 0 H 3.046875 L 2.9921875,-0.44921875 Q 2.5703125,0.078125 1.90625,0.078125 q -0.7460938,0 -1.19921875,-0.5859375 Q 0.2578125,-1.0976562 0.2578125,-2.1445313 Z M 1.3867187,-2.0625 q 0,0.59375 0.2070313,0.9101563 0.2070312,0.3164062 0.6015625,0.3164062 0.5234375,0 0.7382813,-0.4414062 V -2.9453125 Q 2.7226563,-3.3867188 2.203125,-3.3867188 q -0.8164063,0 -0.8164063,1.3242188 z"/>
        <path id="path12471" style="font-weight:bold;font-size:8px;font-family:Roboto, sans-serif;fill:#333333" d="M 5.0234375,0 V -5.6875 H 7.015625 q 1.0351563,0 1.5703125,0.3984375 0.5351563,0.3945313 0.5351563,1.1601563 0,0.4179687 -0.2148438,0.7382812 -0.2148437,0.3164062 -0.5976562,0.4648437 0.4375,0.109375 0.6875,0.4414063 Q 9.25,-2.1523438 9.25,-1.671875 9.25,-0.8515625 8.7265625,-0.4296875 8.203125,-0.0078125 7.234375,0 Z m 1.171875,-2.4765625 v 1.53515625 h 1.0039062 q 0.4140625,0 0.6445313,-0.19531245 0.234375,-0.1992188 0.234375,-0.546875 0,-0.7812501 -0.8085938,-0.7929688 z m 0,-0.828125 H 7.0625 q 0.8867187,-0.015625 0.8867187,-0.7070312 0,-0.3867188 -0.2265625,-0.5546875 Q 7.5,-4.7382812 7.015625,-4.7382812 H 6.1953125 Z"/>
      </g>
    </g>
  </g>
  <g transform="translate(11,275)" id="g12275">
    <path d="M 0,0 H 68 V 10 H 0 Z" style="fill:#fafafa" transform="translate(0,31)" id="rect12263"/>
    <path d="m 5,0 h 58 c 2.77,0 5,2.23 5,5 v 28 c 0,2.77 -2.23,5 -5,5 H 5 C 2.23,38 0,35.77 0,33 V 5 C 0,2.23 2.23,0 5,0 Z" style="fill:#fafafa" id="rect12265"/>
    <g transform="translate(5,4)" id="g12267"/>
    <g style="font-weight:bold;font-size:6.66667px;font-family:Roboto, sans-serif;letter-spacing:2px;fill:#333333" id="text12269" transform="translate(15.5,36)" aria-label="L">
      <path id="path12426" style="font-weight:bold;font-size:6.66667px;font-family:Roboto, sans-serif;letter-spacing:2px;fill:#333333" d="M 1.3997403,-0.78450558 H 3.4733089 V 0 H 0.42317729 V -4.7395856 H 1.3997403 Z"/>
    </g>
    <g transform="translate(39,4)" id="g12271"/>
    <g style="font-weight:bold;font-size:6.66667px;font-family:Roboto, sans-serif;letter-spacing:2px;fill:#333333" id="text12273" transform="translate(49,36)" aria-label="R">
      <path id="path12429" style="font-weight:bold;font-size:6.66667px;font-family:Roboto, sans-serif;letter-spacing:2px;fill:#333333" d="M 2.1777354,-1.7350269 H 1.3997403 V 0 H 0.42317729 V -4.7395856 H 2.1842458 q 0.8398442,0 1.2955736,0.3743491 0.4557294,0.3743492 0.4557294,1.0579433 0,0.4850262 -0.2115887,0.8105472 -0.2083334,0.3222658 -0.6347659,0.5143232 l 1.0253911,1.93684986 V 0 H 3.0664077 Z M 1.3997403,-2.5260429 H 2.187501 q 0.3678388,0 0.5696618,-0.1855469 0.201823,-0.1888022 0.201823,-0.5175784 0,-0.3352866 -0.1920574,-0.527344 Q 2.5781262,-3.9485696 2.1842458,-3.9485696 H 1.3997403 Z"/>
    </g>
  </g>
  <g transform="translate(11,319)" id="g12289">
    <path d="M 0,0 H 68 V 10 H 0 Z" style="fill:#bbbbbb" transform="translate(0,-3)" id="rect12277"/>
    <path d="m 5,0 h 58 c 2.77,0 5,2.23 5,5 v 27 c 0,2.77 -2.23,5 -5,5 H 5 C 2.23,37 0,34.77 0,32 V 5 C 0,2.23 2.23,0 5,0 Z" style="fill:#bbbbbb" id="rect12279"/>
    <g transform="translate(5,1)" id="g12281"/>
    <g style="font-weight:bold;font-size:6.66667px;font-family:Roboto, sans-serif;letter-spacing:2px;fill:#333333" id="text12283" transform="translate(15.5,33)" aria-label="L">
      <path id="path12418" style="font-weight:bold;font-size:6.66667px;font-family:Roboto, sans-serif;letter-spacing:2px;fill:#333333" d="M 1.3997403,-0.78450558 H 3.4733089 V 0 H 0.42317729 V -4.7395856 H 1.3997403 Z"/>
    </g>
    <g transform="translate(39,1)" id="g12285"/>
    <g style="font-weight:bold;font-size:6.66667px;font-family:Roboto, sans-serif;letter-spacing:2px;fill:#333333" id="text12287" transform="translate(49,33)" aria-label="R">
      <path id="path12421" style="font-weight:bold;font-size:6.66667px;font-family:Roboto, sans-serif;letter-spacing:2px;fill:#333333" d="M 2.1777354,-1.7350269 H 1.3997403 V 0 H 0.42317729 V -4.7395856 H 2.1842458 q 0.8398442,0 1.2955736,0.3743491 0.4557294,0.3743492 0.4557294,1.0579433 0,0.4850262 -0.2115887,0.8105472 -0.2083334,0.3222658 -0.6347659,0.5143232 l 1.0253911,1.93684986 V 0 H 3.0664077 Z M 1.3997403,-2.5260429 H 2.187501 q 0.3678388,0 0.5696618,-0.1855469 0.201823,-0.1888022 0.201823,-0.5175784 0,-0.3352866 -0.1920574,-0.527344 Q 2.5781262,-3.9485696 2.1842458,-3.9485696 H 1.3997403 Z"/>
    </g>
  </g>
</svg>
