<?xml version="1.0" encoding="UTF-8" standalone="no"?>
<svg xmlns:dc="http://purl.org/dc/elements/1.1/" xmlns:cc="http://creativecommons.org/ns#" xmlns:rdf="http://www.w3.org/1999/02/22-rdf-syntax-ns#" xmlns:svg="http://www.w3.org/2000/svg" xmlns="http://www.w3.org/2000/svg" xmlns:sodipodi="http://sodipodi.sourceforge.net/DTD/sodipodi-0.dtd" xmlns:inkscape="http://www.inkscape.org/namespaces/inkscape" inkscape:version="1.0 (4035a4f, 2020-05-01)" sodipodi:docname="svg_render_EQS-pp.svg" id="svg23550" viewBox="0 0 90 380" height="380" width="90" version="1.1">
  <metadata id="metadata23554">
    <rdf:RDF>
      <cc:Work rdf:about="">
        <dc:format>image/svg+xml</dc:format>
        <dc:type rdf:resource="http://purl.org/dc/dcmitype/StillImage"/>
      </cc:Work>
    </rdf:RDF>
  </metadata>
  <sodipodi:namedview inkscape:current-layer="svg23550" inkscape:window-maximized="0" inkscape:window-y="23" inkscape:window-x="0" inkscape:cy="190" inkscape:cx="45" inkscape:zoom="1.7605263" showgrid="false" id="namedview23552" inkscape:window-height="480" inkscape:window-width="689" inkscape:pageshadow="2" inkscape:pageopacity="0" guidetolerance="10" gridtolerance="10" objecttolerance="10" borderopacity="1" bordercolor="#666666" pagecolor="#ffffff"/>
  
  <defs id="defs23478">
    <symbol viewBox="0 0 70px 70px" id="dial-eq-eqs">
      <g id="g23475" transform="translate(35 35)">
        <text id="text23451" transform="rotate(-240) translate(25 0) rotate(240) translate(-10 2.5)" font-size="6.0pt">-36</text>
        <polyline id="polyline23453" transform="rotate(-215) translate(21 0)" stroke-width="0.7" points="0,0 3,0"/>
        <text id="text23455" transform="rotate(-190) translate(25 0) rotate(190) translate(-10 2.5)" font-size="6.0pt">-24</text>
        <polyline id="polyline23457" transform="rotate(-165) translate(21 0)" stroke-width="0.7" points="0,0 3,0"/>
        <text id="text23459" transform="rotate(-140) translate(25 0) rotate(140) translate(-10 2.5)" font-size="6.0pt">-12</text>
        <polyline id="polyline23461" transform="rotate(-115) translate(21 0)" stroke-width="0.7" points="0,0 3,0"/>
        <text id="text23463" transform="rotate(-90) translate(25 0) rotate(90) translate(-2.3 2.5)" font-size="6.0pt">0</text>
        <polyline id="polyline23465" transform="rotate(-52.5) translate(21 0)" stroke-width="0.7" points="0,0 3,0"/>
        <text id="text23467" transform="rotate(-15) translate(25 0) rotate(15) translate(-3 2.5)" font-size="6.0pt">6</text>
        <polyline id="polyline23469" transform="rotate(22.5) translate(21 0)" stroke-width="0.7" points="0,0 3,0"/>
        <text id="text23471" transform="rotate(60) translate(25 0) rotate(-60) translate(-2.3 2.5)" font-size="6.0pt">12</text>
        <text id="text23473" transform="rotate(90) translate(29 0) rotate(-90) translate(-4.7 2.2)" font-size="6.0pt">dB</text>
      </g>
    </symbol>
  </defs>
  <path class="module-background background-fill" d="M 0,0 H 90 V 380 H 0 Z" style="fill:#dddddd" id="rect23480"/>
  <path class="module-border-inner" d="M 1,1 H 89 V 379 H 1 V 1" style="fill:none;stroke:#e4e4e4;stroke-width:0.5" id="polyline23482"/>
  <path class="module-border-middle" d="m 0.5,0.5 h 89 v 379 H 0.5 V 0.5" style="fill:none;stroke:#ebebeb;stroke-width:0.8" id="polyline23484"/>
  <path class="module-border-outer" d="M 0,0 H 90 V 380 H 0 V 0" style="fill:none;stroke:#f2f2f2;stroke-width:1" id="polyline23486"/>
  <g class="title" style="font-weight:normal;font-size:12px;font-family:Comfortaa, sans-serif;letter-spacing:3px;text-anchor:end;fill:#333333" id="text23488" transform="translate(85.0 17)" aria-label="EQS">
    <path id="path23848" style="font-weight:normal;font-size:12px;font-family:Comfortaa, sans-serif;letter-spacing:3px;text-anchor:end;fill:#333333" d="m -31.636687,0 q -0.192,0 -0.336,-0.132 -0.132,-0.144 -0.132,-0.336 v -8.436 q 0,-0.204 0.132,-0.336 0.144,-0.132 0.336,-0.132 h 5.628 q 0.204,0 0.335999,0.132 0.132001,0.132 0.132001,0.324 0,0.192 -0.132001,0.324 -0.131999,0.12 -0.335999,0.12 h -5.16 v 3.312 h 3.756 q 0.204,0 0.336,0.132 0.132,0.132 0.132,0.324 0,0.192 -0.144,0.324 -0.132,0.132 -0.324,0.132 h -3.756 V -0.9 h 5.16 q 0.204,0 0.335999,0.132 0.132001,0.12 0.132001,0.312 0,0.192 -0.132001,0.324 Q -25.804687,0 -26.008687,0 Z"/>
    <path id="path23850" style="font-weight:normal;font-size:12px;font-family:Comfortaa, sans-serif;letter-spacing:3px;text-anchor:end;fill:#333333" d="m -12.299813,-0.78 q 0.132,0.132 0.132,0.312 0,0.192 -0.132,0.324 -0.144,0.144 -0.324,0.144 -0.179999,0 -0.324,-0.144 l -0.635999,-0.636 q -0.600001,0.432 -1.344001,0.672 -0.731999,0.228 -1.547999,0.228 -1.368,0 -2.46,-0.624 -1.092,-0.624 -1.716,-1.716 -0.612,-1.104 -0.612,-2.472 0,-1.368 0.612,-2.46 0.624,-1.092 1.716,-1.716 1.092,-0.624 2.46,-0.624 1.356,0 2.447999,0.624 1.104,0.624 1.716001,1.716 0.623999,1.092 0.623999,2.46 0,0.972 -0.324,1.824 -0.311999,0.84 -0.9,1.476 z m -4.175999,0.012 q 1.271999,0 2.22,-0.672 l -1.284001,-1.284 q -0.144,-0.144 -0.144,-0.324 0,-0.18 0.144,-0.324 0.132001,-0.132 0.312001,-0.132 0.191999,0 0.323999,0.132 l 1.332,1.332 q 0.456,-0.528 0.708,-1.212 0.252001,-0.684 0.252001,-1.44 0,-1.092 -0.504001,-1.98 -0.503999,-0.9 -1.392,-1.416 -0.875999,-0.516 -1.967999,-0.516 -1.104,0 -1.992,0.516 -0.876,0.516 -1.38,1.416 -0.504,0.888 -0.504,1.98 0,1.104 0.504,2.004 0.504,0.888 1.38,1.404 0.888,0.516 1.992,0.516 z"/>
    <path id="path23852" style="font-weight:normal;font-size:12px;font-family:Comfortaa, sans-serif;letter-spacing:3px;text-anchor:end;fill:#333333" d="m -3.8653125,0.12 q -1.14,0 -2.028,-0.48 -0.876,-0.492 -1.26,-1.32 -0.048,-0.084 -0.048,-0.192 0,-0.168 0.12,-0.276 0.132,-0.12 0.348,-0.12 0.144,0 0.264,0.084 0.132,0.072 0.192,0.216 0.276,0.54 0.912,0.876 0.648,0.324 1.5,0.324 0.984,0 1.584,-0.468 0.6,-0.48 0.6,-1.332 0,-0.756 -0.564,-1.272 -0.552,-0.516 -1.668,-0.66 -1.392,-0.168 -2.196,-0.864 -0.792,-0.708 -0.792,-1.728 0,-0.72 0.384,-1.26 0.396,-0.552 1.08,-0.84 0.696,-0.3 1.572,-0.3 0.948,0 1.668,0.42 0.72,0.42 1.128,1.092 0.084,0.132 0.084,0.288 0,0.228 -0.216,0.36 -0.096,0.048 -0.216,0.048 -0.132,0 -0.252,-0.06 -0.108,-0.072 -0.18,-0.192 -0.672,-1.056 -2.028,-1.068 -0.972,0 -1.536,0.408 -0.564,0.408 -0.564,1.164 0,1.404 2.268,1.704 1.488,0.216 2.22,0.912 0.732,0.696 0.732,1.836 0,0.84 -0.408,1.452 -0.408,0.612 -1.116,0.936 -0.708,0.312 -1.584,0.312 z"/>
  </g>
  <g class="brand" style="font-weight:bold;font-size:8.66667px;font-family:Audiowide, sans-serif;letter-spacing:2px;fill:#333333" id="text23490" aria-label="BOGAUDIO">
    <path id="path23831" style="font-weight:bold;font-size:8.66667px;font-family:Audiowide, sans-serif;letter-spacing:2px;fill:#333333" d="m 12.194664,372.66699 q 0,0.20313 -0.07194,0.43587 -0.06771,0.23275 -0.228516,0.43165 -0.156576,0.19889 -0.410482,0.33431 Q 11.22982,374 10.861656,374 H 6.6848963 q -0.1184897,0 -0.2200522,-0.0423 -0.1015625,-0.0423 -0.1777344,-0.11426 -0.07194,-0.0762 -0.1142579,-0.17773 -0.042318,-0.10156 -0.042318,-0.22005 V 368.486 q 0,-0.11426 0.042318,-0.21582 0.042318,-0.10156 0.1142579,-0.17773 0.076172,-0.0762 0.1777344,-0.11849 0.1015625,-0.0423 0.2200522,-0.0423 h 3.6816417 q 0.203125,0 0.435873,0.0719 0.232747,0.0719 0.431641,0.23275 0.203125,0.15657 0.33431,0.41048 0.135416,0.2539 0.135416,0.62207 v 0.20736 q 0,0.29199 -0.09733,0.63053 -0.09733,0.33431 -0.313152,0.63477 0.186198,0.11425 0.347006,0.27506 0.165039,0.16081 0.28776,0.3724 0.122722,0.21159 0.194662,0.47819 0.07194,0.2666 0.07194,0.58821 z m -1.100261,-0.21159 q 0,-0.21582 -0.06771,-0.38509 -0.06771,-0.1735 -0.19043,-0.29622 -0.122721,-0.12272 -0.296224,-0.1862 -0.173503,-0.0677 -0.389323,-0.0677 H 7.6708992 v -1.10872 h 1.9847013 q 0.2158204,0 0.3893235,-0.0635 0.173502,-0.0677 0.296224,-0.19043 0.122721,-0.12272 0.186198,-0.29199 0.06771,-0.1735 0.06771,-0.38932 v -0.20736 q 0,-0.23698 -0.228516,-0.23698 H 7.2307949 v 3.86784 h 3.6308611 q 0.02962,0 0.07194,-0.004 0.04232,-0.004 0.07617,-0.0254 0.03385,-0.0212 0.05924,-0.0719 0.02539,-0.0508 0.02539,-0.13965 z"/>
    <path id="path23833" style="font-weight:bold;font-size:8.66667px;font-family:Audiowide, sans-serif;letter-spacing:2px;fill:#333333" d="m 21.515629,371.54557 q 0,0.55436 -0.190429,1.01986 -0.19043,0.46549 -0.528972,0.80404 -0.338542,0.33854 -0.804037,0.52897 -0.461263,0.1862 -1.007161,0.1862 h -1.489584 q -0.545899,0 -1.011394,-0.1862 -0.465495,-0.19043 -0.804037,-0.52897 -0.338541,-0.33855 -0.533203,-0.80404 -0.19043,-0.4655 -0.19043,-1.01986 v -1.1595 q 0,-0.55013 0.19043,-1.01563 0.194662,-0.46973 0.533203,-0.80404 0.338542,-0.33854 0.804037,-0.52897 0.465495,-0.19043 1.011394,-0.19043 h 1.489584 q 0.545898,0 1.007161,0.19043 0.465495,0.19043 0.804037,0.52897 0.338542,0.33431 0.528972,0.80404 0.190429,0.4655 0.190429,1.01563 z m -1.10026,-1.1595 q 0,-0.32585 -0.105795,-0.58822 -0.101562,-0.2666 -0.291992,-0.4528 -0.186198,-0.19043 -0.4528,-0.29199 -0.262369,-0.1058 -0.579752,-0.1058 h -1.489584 q -0.321615,0 -0.588217,0.1058 -0.26237,0.10156 -0.452799,0.29199 -0.19043,0.1862 -0.296224,0.4528 -0.101563,0.26237 -0.101563,0.58822 v 1.1595 q 0,0.32585 0.101563,0.59245 0.105794,0.26237 0.296224,0.4528 0.190429,0.1862 0.452799,0.29199 0.266602,0.10156 0.588217,0.10156 h 1.48112 q 0.321615,0 0.583985,-0.10156 0.266601,-0.10579 0.457031,-0.29199 0.19043,-0.19043 0.291992,-0.4528 0.105795,-0.2666 0.105795,-0.59245 z"/>
    <path id="path23835" style="font-weight:bold;font-size:8.66667px;font-family:Audiowide, sans-serif;letter-spacing:2px;fill:#333333" d="m 30.599618,373.44564 q 0,0.11849 -0.04232,0.22005 -0.04232,0.10156 -0.11849,0.17773 -0.07194,0.0719 -0.173502,0.11426 Q 30.163745,374 30.045255,374 h -3.969402 q -0.152344,0 -0.330078,-0.0338 -0.173503,-0.0381 -0.347006,-0.11426 -0.169271,-0.0762 -0.325846,-0.19466 -0.156576,-0.12272 -0.279297,-0.292 -0.11849,-0.1735 -0.19043,-0.39778 -0.07194,-0.22852 -0.07194,-0.51205 v -2.97916 q 0,-0.15235 0.03385,-0.32585 0.03809,-0.17774 0.114258,-0.34701 0.07617,-0.1735 0.198893,-0.33007 0.122722,-0.15658 0.291993,-0.27507 0.173502,-0.12272 0.397786,-0.19466 0.224284,-0.0719 0.507813,-0.0719 h 4.472983 v 1.10026 h -4.472983 q -0.215821,0 -0.330078,0.11426 -0.114258,0.11425 -0.114258,0.33854 v 2.9707 q 0,0.21159 0.114258,0.33008 0.118489,0.11426 0.330078,0.11426 h 3.423504 v -1.37956 H 26.57097 v -1.10872 h 3.474285 q 0.11849,0 0.220053,0.0466 0.101562,0.0423 0.173502,0.11849 0.07617,0.0762 0.11849,0.17773 0.04232,0.0973 0.04232,0.21159 z"/>
    <path id="path23837" style="font-weight:bold;font-size:8.66667px;font-family:Audiowide, sans-serif;letter-spacing:2px;fill:#333333" d="m 39.708996,374 h -1.100261 v -1.48958 h -3.86784 V 374 h -1.100261 v -3.03418 q 0,-0.66439 0.228516,-1.22298 0.228516,-0.5586 0.634766,-0.96062 0.40625,-0.40201 0.960612,-0.6263 0.554362,-0.22428 1.210287,-0.22428 h 2.479819 q 0.114257,0 0.21582,0.0423 0.101562,0.0423 0.177734,0.11849 0.07617,0.0762 0.11849,0.17773 0.04232,0.10156 0.04232,0.21582 z m -4.968101,-2.58984 h 3.86784 v -2.37826 h -1.93392 q -0.05078,0 -0.21582,0.0169 -0.160808,0.0127 -0.376628,0.0719 -0.211589,0.0592 -0.448568,0.18196 -0.236979,0.12272 -0.435873,0.33854 -0.198893,0.21582 -0.330078,0.54167 -0.126953,0.32162 -0.126953,0.78288 z"/>
    <path id="path23839" style="font-weight:bold;font-size:8.66667px;font-family:Audiowide, sans-serif;letter-spacing:2px;fill:#333333" d="m 48.928399,373.44564 q 0,0.11849 -0.04232,0.22005 -0.04232,0.10156 -0.11849,0.17773 -0.07617,0.0719 -0.177735,0.11426 Q 48.488295,374 48.374037,374 h -2.479819 q -0.351237,0 -0.710937,-0.0762 -0.359701,-0.0762 -0.698243,-0.23275 -0.33431,-0.16081 -0.630534,-0.40625 -0.296224,-0.24544 -0.520508,-0.57975 -0.220052,-0.33854 -0.347005,-0.77018 -0.126953,-0.43588 -0.126953,-0.96908 v -3.03418 h 1.10026 v 3.03418 q 0,0.46549 0.126954,0.78711 0.131185,0.32161 0.330078,0.53743 0.198893,0.21582 0.435872,0.33855 0.23698,0.12272 0.448568,0.18196 0.215821,0.0592 0.376628,0.0762 0.165039,0.0127 0.21582,0.0127 h 1.93392 v -4.9681 h 1.100261 z"/>
    <path id="path23841" style="font-weight:bold;font-size:8.66667px;font-family:Audiowide, sans-serif;letter-spacing:2px;fill:#333333" d="m 58.266292,371.46094 q 0,0.55436 -0.194661,1.01985 -0.19043,0.4655 -0.528972,0.80404 -0.338541,0.33431 -0.804036,0.52474 Q 56.273128,374 55.727229,374 h -2.970704 q -0.11849,0 -0.220052,-0.0423 -0.101563,-0.0423 -0.177735,-0.11426 -0.07194,-0.0762 -0.114258,-0.17773 -0.04232,-0.10156 -0.04232,-0.22005 V 368.486 q 0,-0.11426 0.04232,-0.21582 0.04232,-0.10156 0.114258,-0.17773 0.07617,-0.0762 0.177735,-0.11849 0.101562,-0.0423 0.220052,-0.0423 h 2.970704 q 0.545899,0 1.011394,0.19043 0.465495,0.19043 0.804036,0.52897 0.338542,0.33431 0.528972,0.80404 0.194661,0.46549 0.194661,1.01562 z m -1.10026,-0.99024 q 0,-0.32161 -0.105795,-0.58821 -0.101562,-0.26661 -0.291992,-0.4528 -0.19043,-0.19043 -0.457031,-0.292 -0.26237,-0.10579 -0.583985,-0.10579 h -2.424806 v 3.86784 h 2.424806 q 0.321615,0 0.583985,-0.10156 0.266601,-0.1058 0.457031,-0.292 0.19043,-0.19043 0.291992,-0.4528 0.105795,-0.2666 0.105795,-0.59244 z"/>
    <path id="path23843" style="font-weight:bold;font-size:8.66667px;font-family:Audiowide, sans-serif;letter-spacing:2px;fill:#333333" d="M 62.462581,374 H 61.36232 v -6.06836 h 1.100261 z"/>
    <path id="path23845" style="font-weight:bold;font-size:8.66667px;font-family:Audiowide, sans-serif;letter-spacing:2px;fill:#333333" d="m 72.126322,371.54557 q 0,0.55436 -0.190429,1.01986 -0.19043,0.46549 -0.528972,0.80404 -0.338542,0.33854 -0.804037,0.52897 -0.461263,0.1862 -1.007161,0.1862 h -1.489584 q -0.545899,0 -1.011394,-0.1862 -0.465495,-0.19043 -0.804037,-0.52897 -0.338541,-0.33855 -0.533203,-0.80404 -0.19043,-0.4655 -0.19043,-1.01986 v -1.1595 q 0,-0.55013 0.19043,-1.01563 0.194662,-0.46973 0.533203,-0.80404 0.338542,-0.33854 0.804037,-0.52897 0.465495,-0.19043 1.011394,-0.19043 h 1.489584 q 0.545898,0 1.007161,0.19043 0.465495,0.19043 0.804037,0.52897 0.338542,0.33431 0.528972,0.80404 0.190429,0.4655 0.190429,1.01563 z m -1.10026,-1.1595 q 0,-0.32585 -0.105795,-0.58822 -0.101562,-0.2666 -0.291992,-0.4528 -0.186198,-0.19043 -0.4528,-0.29199 -0.26237,-0.1058 -0.579752,-0.1058 h -1.489584 q -0.321615,0 -0.588217,0.1058 -0.26237,0.10156 -0.452799,0.29199 -0.19043,0.1862 -0.296224,0.4528 -0.101563,0.26237 -0.101563,0.58822 v 1.1595 q 0,0.32585 0.101563,0.59245 0.105794,0.26237 0.296224,0.4528 0.190429,0.1862 0.452799,0.29199 0.266602,0.10156 0.588217,0.10156 h 1.48112 q 0.321615,0 0.583985,-0.10156 0.266601,-0.10579 0.457031,-0.29199 0.19043,-0.19043 0.291992,-0.4528 0.105795,-0.2666 0.105795,-0.59245 z"/>
  </g>
  <path class="background-fill" d="M 26.5,370 H 28 v 2 h -1.5 z" style="fill:#dddddd" id="rect23492"/>
  <g style="font-weight:bold;font-size:10.6667px;font-family:Roboto, sans-serif;letter-spacing:2px;fill:#333333" id="text23496" aria-label="LOW">
    <path id="path23823" style="font-weight:bold;font-size:10.6667px;font-family:Roboto, sans-serif;letter-spacing:2px;fill:#333333" d="m 34.23959,38.744788 h 3.317719 V 40 h -4.880224 v -7.583357 h 1.562505 z"/>
    <path id="path23825" style="font-weight:bold;font-size:10.6667px;font-family:Roboto, sans-serif;letter-spacing:2px;fill:#333333" d="m 46.343789,36.380197 q 0,1.119795 -0.395835,1.963548 -0.395834,0.843752 -1.13542,1.302087 -0.734377,0.458335 -1.687505,0.458335 -0.942711,0 -1.682297,-0.453126 -0.739586,-0.453127 -1.145837,-1.291671 -0.406251,-0.843753 -0.41146,-1.937506 v -0.375001 q 0,-1.119796 0.401043,-1.968757 0.406251,-0.854169 1.140629,-1.307296 0.739585,-0.458334 1.687505,-0.458334 0.94792,0 1.682297,0.458334 0.739586,0.453127 1.140629,1.307296 0.406251,0.848961 0.406251,1.963548 z m -1.583338,-0.343751 q 0,-1.192712 -0.427085,-1.812506 -0.427085,-0.619794 -1.218754,-0.619794 -0.786461,0 -1.213545,0.614586 -0.427085,0.609377 -0.432293,1.791672 v 0.369793 q 0,1.161462 0.427084,1.802089 0.427085,0.640627 1.229171,0.640627 0.786461,0 1.208337,-0.614585 0.421876,-0.619794 0.427085,-1.802089 z"/>
    <path id="path23827" style="font-weight:bold;font-size:10.6667px;font-family:Roboto, sans-serif;letter-spacing:2px;fill:#333333" d="m 55.395894,37.812493 1.020837,-5.39585 h 1.557296 L 56.29173,40 H 54.718809 L 53.48443,34.927067 52.250051,40 h -1.572922 l -1.682297,-7.583357 h 1.557297 l 1.026045,5.385433 1.250004,-5.385433 h 1.322921 z"/>
  </g>
  <g transform="translate(26,53)" id="g23498"/>
  <g transform="translate(10,37)" id="use23500">
    <g transform="translate(35,35)" id="g23605">
      <g style="font-weight:bold;font-size:8px;font-family:Roboto, sans-serif;fill:#333333" id="text23581" transform="translate(-22.5,24.150635)" aria-label="-36">
        <path id="path23781" style="font-weight:bold;font-size:8px;font-family:Roboto, sans-serif;fill:#333333" d="M 2.6289063,-1.9804687 H 0.4296875 V -2.890625 h 2.1992188 z"/>
        <path id="path23783" style="font-weight:bold;font-size:8px;font-family:Roboto, sans-serif;fill:#333333" d="m 4.6445312,-3.34375 h 0.6015625 q 0.4296875,0 0.6367188,-0.2148438 0.2070312,-0.2148437 0.2070312,-0.5703124 0,-0.34375 -0.2070312,-0.5351563 -0.203125,-0.1914062 -0.5625,-0.1914062 -0.3242188,0 -0.5429688,0.1796875 Q 4.5585937,-4.5 4.5585937,-4.2148437 H 3.4296875 q 0,-0.4453125 0.2382813,-0.796875 0.2421875,-0.3554688 0.6718749,-0.5546875 0.4335938,-0.1992188 0.953125,-0.1992188 0.9023438,0 1.4140625,0.4335938 0.5117188,0.4296875 0.5117188,1.1875 0,0.3906249 -0.2382813,0.7187499 -0.2382812,0.328125 -0.625,0.5039063 0.4804688,0.171875 0.7148438,0.515625 0.2382812,0.34375 0.2382812,0.8125 0,0.7578125 -0.5546875,1.21484375 Q 6.203125,0.078125 5.2929687,0.078125 q -0.8515625,0 -1.3945312,-0.44921875 Q 3.359375,-0.8203125 3.359375,-1.5585937 h 1.1289062 q 0,0.3203125 0.2382813,0.5234375 0.2421875,0.20312495 0.59375,0.20312495 0.4023437,0 0.6289062,-0.21093745 0.2304688,-0.2148438 0.2304688,-0.5664063 0,-0.8515625 -0.9375,-0.8515625 H 4.6445312 Z"/>
        <path id="path23785" style="font-weight:bold;font-size:8px;font-family:Roboto, sans-serif;fill:#333333" d="m 11.152344,-5.7460937 v 0.9296875 H 11.042969 Q 10.277344,-4.8046875 9.8085938,-4.4179687 9.34375,-4.03125 9.25,-3.34375 q 0.453125,-0.4609375 1.144531,-0.4609375 0.742188,0 1.179688,0.53125 0.4375,0.53125 0.4375,1.3984375 0,0.5546875 -0.242188,1.00390625 -0.238281,0.44921875 -0.679687,0.69921875 -0.4375,0.25 -0.992188,0.25 -0.8984372,0 -1.4531247,-0.625 Q 8.09375,-1.171875 8.09375,-2.2148438 v -0.40625 q 0,-0.9257812 0.3476563,-1.6328124 0.3515625,-0.7109375 1.0039062,-1.0976563 0.6562505,-0.390625 1.5195315,-0.3945312 z m -1.101563,2.8476562 q -0.2734372,0 -0.4960935,0.1445312 -0.2226562,0.140625 -0.328125,0.375 v 0.34375 q 0,0.5664063 0.2226563,0.8867188 0.2226562,0.31640625 0.6250002,0.31640625 0.363281,0 0.585937,-0.28515625 0.226563,-0.2890625 0.226563,-0.7460937 0,-0.4648438 -0.226563,-0.7500001 -0.226562,-0.2851562 -0.609375,-0.2851562 z"/>
      </g>
      <path d="M 0,0 H 3" style="stroke:#333333;stroke-width:0.7" transform="rotate(145,-10.5,3.3106373)" id="polyline23583"/>
      <g style="font-weight:bold;font-size:8px;font-family:Roboto, sans-serif;fill:#333333" id="text23585" transform="translate(-34.620194,6.8412044)" aria-label="-24">
        <path id="path23789" style="font-weight:bold;font-size:8px;font-family:Roboto, sans-serif;fill:#333333" d="M 2.6289063,-1.9804687 H 0.4296875 V -2.890625 h 2.1992188 z"/>
        <path id="path23791" style="font-weight:bold;font-size:8px;font-family:Roboto, sans-serif;fill:#333333" d="M 7.3945312,0 H 3.4960938 V -0.7734375 L 5.3359375,-2.734375 Q 5.7148437,-3.1484375 5.8945312,-3.4570313 6.078125,-3.765625 6.078125,-4.0429687 q 0,-0.3789063 -0.1914063,-0.59375 -0.1914062,-0.21875 -0.546875,-0.21875 -0.3828125,0 -0.6054687,0.265625 -0.21875,0.2617187 -0.21875,0.6914062 H 3.3828125 q 0,-0.5195312 0.2460938,-0.9492187 0.25,-0.4296875 0.7031249,-0.671875 0.453125,-0.2460938 1.0273438,-0.2460938 0.8789062,0 1.3632812,0.421875 0.4882813,0.421875 0.4882813,1.1914063 0,0.4218749 -0.21875,0.8593749 -0.21875,0.4375 -0.75,1.0195313 l -1.2929688,1.36328125 h 2.4453125 z"/>
        <path id="path23793" style="font-weight:bold;font-size:8px;font-family:Roboto, sans-serif;fill:#333333" d="m 11.429688,-2.140625 h 0.644531 v 0.9101563 H 11.429688 V 0 H 10.300781 V -1.2304687 H 7.96875 L 7.9179687,-1.9414062 10.289063,-5.6875 h 1.140625 z m -2.3867192,0 h 1.2578122 v -2.0078125 l -0.07422,0.1289063 z"/>
      </g>
      <path d="M 0,0 H 3" style="stroke:#333333;stroke-width:0.7" transform="rotate(-165,-10.5,-1.3823512)" id="polyline23587"/>
      <g style="font-weight:bold;font-size:8px;font-family:Roboto, sans-serif;fill:#333333" id="text23589" transform="translate(-29.151111,-13.56969)" aria-label="-12">
        <path id="path23797" style="font-weight:bold;font-size:8px;font-family:Roboto, sans-serif;fill:#333333" d="M 2.6289063,-1.9804687 H 0.4296875 V -2.890625 h 2.1992188 z"/>
        <path id="path23799" style="font-weight:bold;font-size:8px;font-family:Roboto, sans-serif;fill:#333333" d="M 6.2382812,0 H 5.109375 v -4.3515625 l -1.3476562,0.4179687 v -0.9179687 l 2.3554687,-0.84375 h 0.1210937 z"/>
        <path id="path23801" style="font-weight:bold;font-size:8px;font-family:Roboto, sans-serif;fill:#333333" d="M 11.988281,0 H 8.0898438 V -0.7734375 L 9.9296875,-2.734375 q 0.3789065,-0.4140625 0.5585935,-0.7226563 0.183594,-0.3085937 0.183594,-0.5859374 0,-0.3789063 -0.191406,-0.59375 -0.191406,-0.21875 -0.5468752,-0.21875 -0.3828125,0 -0.6054688,0.265625 -0.21875,0.2617187 -0.21875,0.6914062 H 7.9765625 q 0,-0.5195312 0.2460938,-0.9492187 0.25,-0.4296875 0.703125,-0.671875 0.453125,-0.2460938 1.0273437,-0.2460938 0.878906,0 1.363281,0.421875 0.488282,0.421875 0.488282,1.1914063 0,0.4218749 -0.21875,0.8593749 -0.21875,0.4375 -0.75,1.0195313 l -1.2929692,1.36328125 h 2.4453122 z"/>
      </g>
      <path d="M 0,0 H 3" style="stroke:#333333;stroke-width:0.7" transform="rotate(-115,-10.5,-6.6892377)" id="polyline23591"/>
      <g style="font-weight:bold;font-size:8px;font-family:Roboto, sans-serif;fill:#333333" id="text23593" transform="translate(-2.3,-22.5)" aria-label="0">
        <path id="path23805" style="font-weight:bold;font-size:8px;font-family:Roboto, sans-serif;fill:#333333" d="m 4.2148437,-2.3515625 q 0,1.1796875 -0.4882812,1.8046875 -0.4882812,0.625 -1.4296875,0.625 -0.9296875,0 -1.421875,-0.61328125 Q 0.3828125,-1.1484375 0.37109375,-2.2929688 v -1.046875 q 0,-1.1914062 0.4921875,-1.8085937 Q 1.359375,-5.765625 2.2890625,-5.765625 q 0.9296875,0 1.421875,0.6132813 0.4921875,0.609375 0.5039062,1.7539062 z M 3.0859375,-3.5 q 0,-0.7070312 -0.1953125,-1.0273437 -0.1914062,-0.3242188 -0.6015625,-0.3242188 -0.3984375,0 -0.5898438,0.3085938 Q 1.5117187,-4.2382812 1.5,-3.5859375 v 1.3828125 q 0,0.6953125 0.1875,1.0351563 0.1914062,0.33593745 0.609375,0.33593745 0.4140625,0 0.5976563,-0.32421875 0.1835937,-0.3242187 0.1914062,-0.9921875 z"/>
      </g>
      <path d="M 0,0 H 3" style="stroke:#333333;stroke-width:0.7" transform="rotate(-52.5,-10.5,-21.291894)" id="polyline23595"/>
      <g style="font-weight:bold;font-size:8px;font-family:Roboto, sans-serif;fill:#333333" id="text23597" transform="translate(21.148146,-3.9704761)" aria-label="6">
        <path id="path23809" style="font-weight:bold;font-size:8px;font-family:Roboto, sans-serif;fill:#333333" d="m 3.4492188,-5.7460937 v 0.9296875 h -0.109375 q -0.765625,0.011719 -1.234375,0.3984375 Q 1.640625,-4.03125 1.546875,-3.34375 2,-3.8046875 2.6914063,-3.8046875 q 0.7421875,0 1.1796875,0.53125 0.4374999,0.53125 0.4374999,1.3984375 0,0.5546875 -0.2421875,1.00390625 Q 3.828125,-0.421875 3.3867188,-0.171875 q -0.4375,0.25 -0.9921875,0.25 -0.8984376,0 -1.45312505,-0.625 Q 0.390625,-1.171875 0.390625,-2.2148438 v -0.40625 q 0,-0.9257812 0.34765625,-1.6328124 0.35156245,-0.7109375 1.00390625,-1.0976563 0.65625,-0.390625 1.5195313,-0.3945312 z m -1.1015625,2.8476562 q -0.2734375,0 -0.4960938,0.1445312 -0.2226563,0.140625 -0.328125,0.375 v 0.34375 q 0,0.5664063 0.2226562,0.8867188 0.2226563,0.31640625 0.6250001,0.31640625 0.3632812,0 0.5859375,-0.28515625 0.2265625,-0.2890625 0.2265625,-0.7460937 0,-0.4648438 -0.2265625,-0.7500001 -0.2265625,-0.2851562 -0.609375,-0.2851562 z"/>
      </g>
      <path d="M 0,0 H 3" style="stroke:#333333;stroke-width:0.7" transform="rotate(22.5,-10.5,52.787065)" id="polyline23599"/>
      <g style="font-weight:bold;font-size:8px;font-family:Roboto, sans-serif;fill:#333333" id="text23601" transform="translate(10.2,24.150635)" aria-label="12">
        <path id="path23813" style="font-weight:bold;font-size:8px;font-family:Roboto, sans-serif;fill:#333333" d="M 3.1289063,0 H 2 v -4.3515625 l -1.34765625,0.4179687 v -0.9179687 l 2.35546875,-0.84375 h 0.1210938 z"/>
        <path id="path23815" style="font-weight:bold;font-size:8px;font-family:Roboto, sans-serif;fill:#333333" d="M 8.8789063,0 H 4.9804687 V -0.7734375 L 6.8203125,-2.734375 Q 7.1992187,-3.1484375 7.3789062,-3.4570313 7.5625,-3.765625 7.5625,-4.0429687 q 0,-0.3789063 -0.1914063,-0.59375 -0.1914062,-0.21875 -0.546875,-0.21875 -0.3828125,0 -0.6054687,0.265625 Q 6,-4.328125 6,-3.8984375 H 4.8671875 q 0,-0.5195312 0.2460937,-0.9492187 0.25,-0.4296875 0.703125,-0.671875 0.453125,-0.2460938 1.0273438,-0.2460938 0.8789062,0 1.3632813,0.421875 0.4882812,0.421875 0.4882812,1.1914063 0,0.4218749 -0.21875,0.8593749 -0.21875,0.4375 -0.75,1.0195313 l -1.2929688,1.36328125 h 2.4453126 z"/>
      </g>
      <g style="font-weight:bold;font-size:8px;font-family:Roboto, sans-serif;fill:#333333" id="text23603" transform="translate(-4.7,31.2)" aria-label="dB">
        <path id="path23818" style="font-weight:bold;font-size:8px;font-family:Roboto, sans-serif;fill:#333333" d="m 0.2578125,-2.1445313 q 0,-0.9882812 0.44140625,-1.5742187 0.44531245,-0.5859375 1.21484375,-0.5859375 0.6171875,0 1.0195313,0.4609375 V -6 H 4.0664062 V 0 H 3.046875 L 2.9921875,-0.44921875 Q 2.5703125,0.078125 1.90625,0.078125 q -0.7460938,0 -1.19921875,-0.5859375 Q 0.2578125,-1.0976562 0.2578125,-2.1445313 Z M 1.3867187,-2.0625 q 0,0.59375 0.2070313,0.9101563 0.2070312,0.3164062 0.6015625,0.3164062 0.5234375,0 0.7382813,-0.4414062 V -2.9453125 Q 2.7226563,-3.3867188 2.203125,-3.3867188 q -0.8164063,0 -0.8164063,1.3242188 z"/>
        <path id="path23820" style="font-weight:bold;font-size:8px;font-family:Roboto, sans-serif;fill:#333333" d="M 5.0234375,0 V -5.6875 H 7.015625 q 1.0351563,0 1.5703125,0.3984375 0.5351563,0.3945313 0.5351563,1.1601563 0,0.4179687 -0.2148438,0.7382812 -0.2148437,0.3164062 -0.5976562,0.4648437 0.4375,0.109375 0.6875,0.4414063 Q 9.25,-2.1523438 9.25,-1.671875 9.25,-0.8515625 8.7265625,-0.4296875 8.203125,-0.0078125 7.234375,0 Z m 1.171875,-2.4765625 v 1.53515625 h 1.0039062 q 0.4140625,0 0.6445313,-0.19531245 0.234375,-0.1992188 0.234375,-0.546875 0,-0.7812501 -0.8085938,-0.7929688 z m 0,-0.828125 H 7.0625 q 0.8867187,-0.015625 0.8867187,-0.7070312 0,-0.3867188 -0.2265625,-0.5546875 Q 7.5,-4.7382812 7.015625,-4.7382812 H 6.1953125 Z"/>
      </g>
    </g>
  </g>
  <g style="font-weight:bold;font-size:10.6667px;font-family:Roboto, sans-serif;letter-spacing:2px;fill:#333333" id="text23504" aria-label="MID">
    <path id="path23774" style="font-weight:bold;font-size:10.6667px;font-family:Roboto, sans-serif;letter-spacing:2px;fill:#333333" d="m 35.718759,114.41664 1.947922,5.50002 1.937507,-5.50002 h 2.052089 V 122 h -1.567713 v -2.07292 L 40.244815,116.34894 38.197933,122 h -1.07292 l -2.041673,-5.64585 0.15625,3.57293 V 122 h -1.562505 v -7.58336 z"/>
    <path id="path23776" style="font-weight:bold;font-size:10.6667px;font-family:Roboto, sans-serif;letter-spacing:2px;fill:#333333" d="m 46.692746,122 h -1.562505 v -7.58336 h 1.562505 z"/>
    <path id="path23778" style="font-weight:bold;font-size:10.6667px;font-family:Roboto, sans-serif;letter-spacing:2px;fill:#333333" d="m 50.135459,122 v -7.58336 H 52.4688 q 1.000003,0 1.786464,0.45313 0.791669,0.44792 1.234379,1.28125 0.44271,0.82813 0.44271,1.88543 v 0.34896 q 0,1.05729 -0.437502,1.88021 -0.432293,0.82292 -1.223962,1.27605 Q 53.47922,121.99479 52.484425,122 Z m 1.562505,-6.31773 v 5.06252 h 0.755211 q 0.91667,0 1.401046,-0.59896 0.484377,-0.59896 0.494793,-1.71355 v -0.40104 q 0,-1.15626 -0.479168,-1.75001 -0.479168,-0.59896 -1.401046,-0.59896 z"/>
  </g>
  <g transform="translate(26,135)" id="g23506"/>
  <g transform="translate(10,119)" id="use23508">
    <g transform="translate(35,35)" id="g23633">
      <g style="font-weight:bold;font-size:8px;font-family:Roboto, sans-serif;fill:#333333" id="text23609" transform="translate(-22.5,24.150635)" aria-label="-36">
        <path id="path23732" style="font-weight:bold;font-size:8px;font-family:Roboto, sans-serif;fill:#333333" d="M 2.6289063,-1.9804687 H 0.4296875 V -2.890625 h 2.1992188 z"/>
        <path id="path23734" style="font-weight:bold;font-size:8px;font-family:Roboto, sans-serif;fill:#333333" d="m 4.6445312,-3.34375 h 0.6015625 q 0.4296875,0 0.6367188,-0.2148438 0.2070312,-0.2148437 0.2070312,-0.5703124 0,-0.34375 -0.2070312,-0.5351563 -0.203125,-0.1914062 -0.5625,-0.1914062 -0.3242188,0 -0.5429688,0.1796875 Q 4.5585937,-4.5 4.5585937,-4.2148437 H 3.4296875 q 0,-0.4453125 0.2382813,-0.796875 0.2421875,-0.3554688 0.6718749,-0.5546875 0.4335938,-0.1992188 0.953125,-0.1992188 0.9023438,0 1.4140625,0.4335938 0.5117188,0.4296875 0.5117188,1.1875 0,0.3906249 -0.2382813,0.7187499 -0.2382812,0.328125 -0.625,0.5039063 0.4804688,0.171875 0.7148438,0.515625 0.2382812,0.34375 0.2382812,0.8125 0,0.7578125 -0.5546875,1.21484375 Q 6.203125,0.078125 5.2929687,0.078125 q -0.8515625,0 -1.3945312,-0.44921875 Q 3.359375,-0.8203125 3.359375,-1.5585937 h 1.1289062 q 0,0.3203125 0.2382813,0.5234375 0.2421875,0.20312495 0.59375,0.20312495 0.4023437,0 0.6289062,-0.21093745 0.2304688,-0.2148438 0.2304688,-0.5664063 0,-0.8515625 -0.9375,-0.8515625 H 4.6445312 Z"/>
        <path id="path23736" style="font-weight:bold;font-size:8px;font-family:Roboto, sans-serif;fill:#333333" d="m 11.152344,-5.7460937 v 0.9296875 H 11.042969 Q 10.277344,-4.8046875 9.8085938,-4.4179687 9.34375,-4.03125 9.25,-3.34375 q 0.453125,-0.4609375 1.144531,-0.4609375 0.742188,0 1.179688,0.53125 0.4375,0.53125 0.4375,1.3984375 0,0.5546875 -0.242188,1.00390625 -0.238281,0.44921875 -0.679687,0.69921875 -0.4375,0.25 -0.992188,0.25 -0.8984372,0 -1.4531247,-0.625 Q 8.09375,-1.171875 8.09375,-2.2148438 v -0.40625 q 0,-0.9257812 0.3476563,-1.6328124 0.3515625,-0.7109375 1.0039062,-1.0976563 0.6562505,-0.390625 1.5195315,-0.3945312 z m -1.101563,2.8476562 q -0.2734372,0 -0.4960935,0.1445312 -0.2226562,0.140625 -0.328125,0.375 v 0.34375 q 0,0.5664063 0.2226563,0.8867188 0.2226562,0.31640625 0.6250002,0.31640625 0.363281,0 0.585937,-0.28515625 0.226563,-0.2890625 0.226563,-0.7460937 0,-0.4648438 -0.226563,-0.7500001 -0.226562,-0.2851562 -0.609375,-0.2851562 z"/>
      </g>
      <path d="M 0,0 H 3" style="stroke:#333333;stroke-width:0.7" transform="rotate(145,-10.5,3.3106373)" id="polyline23611"/>
      <g style="font-weight:bold;font-size:8px;font-family:Roboto, sans-serif;fill:#333333" id="text23613" transform="translate(-34.620194,6.8412044)" aria-label="-24">
        <path id="path23740" style="font-weight:bold;font-size:8px;font-family:Roboto, sans-serif;fill:#333333" d="M 2.6289063,-1.9804687 H 0.4296875 V -2.890625 h 2.1992188 z"/>
        <path id="path23742" style="font-weight:bold;font-size:8px;font-family:Roboto, sans-serif;fill:#333333" d="M 7.3945312,0 H 3.4960938 V -0.7734375 L 5.3359375,-2.734375 Q 5.7148437,-3.1484375 5.8945312,-3.4570313 6.078125,-3.765625 6.078125,-4.0429687 q 0,-0.3789063 -0.1914063,-0.59375 -0.1914062,-0.21875 -0.546875,-0.21875 -0.3828125,0 -0.6054687,0.265625 -0.21875,0.2617187 -0.21875,0.6914062 H 3.3828125 q 0,-0.5195312 0.2460938,-0.9492187 0.25,-0.4296875 0.7031249,-0.671875 0.453125,-0.2460938 1.0273438,-0.2460938 0.8789062,0 1.3632812,0.421875 0.4882813,0.421875 0.4882813,1.1914063 0,0.4218749 -0.21875,0.8593749 -0.21875,0.4375 -0.75,1.0195313 l -1.2929688,1.36328125 h 2.4453125 z"/>
        <path id="path23744" style="font-weight:bold;font-size:8px;font-family:Roboto, sans-serif;fill:#333333" d="m 11.429688,-2.140625 h 0.644531 v 0.9101563 H 11.429688 V 0 H 10.300781 V -1.2304687 H 7.96875 L 7.9179687,-1.9414062 10.289063,-5.6875 h 1.140625 z m -2.3867192,0 h 1.2578122 v -2.0078125 l -0.07422,0.1289063 z"/>
      </g>
      <path d="M 0,0 H 3" style="stroke:#333333;stroke-width:0.7" transform="rotate(-165,-10.5,-1.3823512)" id="polyline23615"/>
      <g style="font-weight:bold;font-size:8px;font-family:Roboto, sans-serif;fill:#333333" id="text23617" transform="translate(-29.151111,-13.56969)" aria-label="-12">
        <path id="path23748" style="font-weight:bold;font-size:8px;font-family:Roboto, sans-serif;fill:#333333" d="M 2.6289063,-1.9804687 H 0.4296875 V -2.890625 h 2.1992188 z"/>
        <path id="path23750" style="font-weight:bold;font-size:8px;font-family:Roboto, sans-serif;fill:#333333" d="M 6.2382812,0 H 5.109375 v -4.3515625 l -1.3476562,0.4179687 v -0.9179687 l 2.3554687,-0.84375 h 0.1210937 z"/>
        <path id="path23752" style="font-weight:bold;font-size:8px;font-family:Roboto, sans-serif;fill:#333333" d="M 11.988281,0 H 8.0898438 V -0.7734375 L 9.9296875,-2.734375 q 0.3789065,-0.4140625 0.5585935,-0.7226563 0.183594,-0.3085937 0.183594,-0.5859374 0,-0.3789063 -0.191406,-0.59375 -0.191406,-0.21875 -0.5468752,-0.21875 -0.3828125,0 -0.6054688,0.265625 -0.21875,0.2617187 -0.21875,0.6914062 H 7.9765625 q 0,-0.5195312 0.2460938,-0.9492187 0.25,-0.4296875 0.703125,-0.671875 0.453125,-0.2460938 1.0273437,-0.2460938 0.878906,0 1.363281,0.421875 0.488282,0.421875 0.488282,1.1914063 0,0.4218749 -0.21875,0.8593749 -0.21875,0.4375 -0.75,1.0195313 l -1.2929692,1.36328125 h 2.4453122 z"/>
      </g>
      <path d="M 0,0 H 3" style="stroke:#333333;stroke-width:0.7" transform="rotate(-115,-10.5,-6.6892377)" id="polyline23619"/>
      <g style="font-weight:bold;font-size:8px;font-family:Roboto, sans-serif;fill:#333333" id="text23621" transform="translate(-2.3,-22.5)" aria-label="0">
        <path id="path23756" style="font-weight:bold;font-size:8px;font-family:Roboto, sans-serif;fill:#333333" d="m 4.2148437,-2.3515625 q 0,1.1796875 -0.4882812,1.8046875 -0.4882812,0.625 -1.4296875,0.625 -0.9296875,0 -1.421875,-0.61328125 Q 0.3828125,-1.1484375 0.37109375,-2.2929688 v -1.046875 q 0,-1.1914062 0.4921875,-1.8085937 Q 1.359375,-5.765625 2.2890625,-5.765625 q 0.9296875,0 1.421875,0.6132813 0.4921875,0.609375 0.5039062,1.7539062 z M 3.0859375,-3.5 q 0,-0.7070312 -0.1953125,-1.0273437 -0.1914062,-0.3242188 -0.6015625,-0.3242188 -0.3984375,0 -0.5898438,0.3085938 Q 1.5117187,-4.2382812 1.5,-3.5859375 v 1.3828125 q 0,0.6953125 0.1875,1.0351563 0.1914062,0.33593745 0.609375,0.33593745 0.4140625,0 0.5976563,-0.32421875 0.1835937,-0.3242187 0.1914062,-0.9921875 z"/>
      </g>
      <path d="M 0,0 H 3" style="stroke:#333333;stroke-width:0.7" transform="rotate(-52.5,-10.5,-21.291894)" id="polyline23623"/>
      <g style="font-weight:bold;font-size:8px;font-family:Roboto, sans-serif;fill:#333333" id="text23625" transform="translate(21.148146,-3.9704761)" aria-label="6">
        <path id="path23760" style="font-weight:bold;font-size:8px;font-family:Roboto, sans-serif;fill:#333333" d="m 3.4492188,-5.7460937 v 0.9296875 h -0.109375 q -0.765625,0.011719 -1.234375,0.3984375 Q 1.640625,-4.03125 1.546875,-3.34375 2,-3.8046875 2.6914063,-3.8046875 q 0.7421875,0 1.1796875,0.53125 0.4374999,0.53125 0.4374999,1.3984375 0,0.5546875 -0.2421875,1.00390625 Q 3.828125,-0.421875 3.3867188,-0.171875 q -0.4375,0.25 -0.9921875,0.25 -0.8984376,0 -1.45312505,-0.625 Q 0.390625,-1.171875 0.390625,-2.2148438 v -0.40625 q 0,-0.9257812 0.34765625,-1.6328124 0.35156245,-0.7109375 1.00390625,-1.0976563 0.65625,-0.390625 1.5195313,-0.3945312 z m -1.1015625,2.8476562 q -0.2734375,0 -0.4960938,0.1445312 -0.2226563,0.140625 -0.328125,0.375 v 0.34375 q 0,0.5664063 0.2226562,0.8867188 0.2226563,0.31640625 0.6250001,0.31640625 0.3632812,0 0.5859375,-0.28515625 0.2265625,-0.2890625 0.2265625,-0.7460937 0,-0.4648438 -0.2265625,-0.7500001 -0.2265625,-0.2851562 -0.609375,-0.2851562 z"/>
      </g>
      <path d="M 0,0 H 3" style="stroke:#333333;stroke-width:0.7" transform="rotate(22.5,-10.5,52.787065)" id="polyline23627"/>
      <g style="font-weight:bold;font-size:8px;font-family:Roboto, sans-serif;fill:#333333" id="text23629" transform="translate(10.2,24.150635)" aria-label="12">
        <path id="path23764" style="font-weight:bold;font-size:8px;font-family:Roboto, sans-serif;fill:#333333" d="M 3.1289063,0 H 2 v -4.3515625 l -1.34765625,0.4179687 v -0.9179687 l 2.35546875,-0.84375 h 0.1210938 z"/>
        <path id="path23766" style="font-weight:bold;font-size:8px;font-family:Roboto, sans-serif;fill:#333333" d="M 8.8789063,0 H 4.9804687 V -0.7734375 L 6.8203125,-2.734375 Q 7.1992187,-3.1484375 7.3789062,-3.4570313 7.5625,-3.765625 7.5625,-4.0429687 q 0,-0.3789063 -0.1914063,-0.59375 -0.1914062,-0.21875 -0.546875,-0.21875 -0.3828125,0 -0.6054687,0.265625 Q 6,-4.328125 6,-3.8984375 H 4.8671875 q 0,-0.5195312 0.2460937,-0.9492187 0.25,-0.4296875 0.703125,-0.671875 0.453125,-0.2460938 1.0273438,-0.2460938 0.8789062,0 1.3632813,0.421875 0.4882812,0.421875 0.4882812,1.1914063 0,0.4218749 -0.21875,0.8593749 -0.21875,0.4375 -0.75,1.0195313 l -1.2929688,1.36328125 h 2.4453126 z"/>
      </g>
      <g style="font-weight:bold;font-size:8px;font-family:Roboto, sans-serif;fill:#333333" id="text23631" transform="translate(-4.7,31.2)" aria-label="dB">
        <path id="path23769" style="font-weight:bold;font-size:8px;font-family:Roboto, sans-serif;fill:#333333" d="m 0.2578125,-2.1445313 q 0,-0.9882812 0.44140625,-1.5742187 0.44531245,-0.5859375 1.21484375,-0.5859375 0.6171875,0 1.0195313,0.4609375 V -6 H 4.0664062 V 0 H 3.046875 L 2.9921875,-0.44921875 Q 2.5703125,0.078125 1.90625,0.078125 q -0.7460938,0 -1.19921875,-0.5859375 Q 0.2578125,-1.0976562 0.2578125,-2.1445313 Z M 1.3867187,-2.0625 q 0,0.59375 0.2070313,0.9101563 0.2070312,0.3164062 0.6015625,0.3164062 0.5234375,0 0.7382813,-0.4414062 V -2.9453125 Q 2.7226563,-3.3867188 2.203125,-3.3867188 q -0.8164063,0 -0.8164063,1.3242188 z"/>
        <path id="path23771" style="font-weight:bold;font-size:8px;font-family:Roboto, sans-serif;fill:#333333" d="M 5.0234375,0 V -5.6875 H 7.015625 q 1.0351563,0 1.5703125,0.3984375 0.5351563,0.3945313 0.5351563,1.1601563 0,0.4179687 -0.2148438,0.7382812 -0.2148437,0.3164062 -0.5976562,0.4648437 0.4375,0.109375 0.6875,0.4414063 Q 9.25,-2.1523438 9.25,-1.671875 9.25,-0.8515625 8.7265625,-0.4296875 8.203125,-0.0078125 7.234375,0 Z m 1.171875,-2.4765625 v 1.53515625 h 1.0039062 q 0.4140625,0 0.6445313,-0.19531245 0.234375,-0.1992188 0.234375,-0.546875 0,-0.7812501 -0.8085938,-0.7929688 z m 0,-0.828125 H 7.0625 q 0.8867187,-0.015625 0.8867187,-0.7070312 0,-0.3867188 -0.2265625,-0.5546875 Q 7.5,-4.7382812 7.015625,-4.7382812 H 6.1953125 Z"/>
      </g>
    </g>
  </g>
  <g style="font-weight:bold;font-size:10.6667px;font-family:Roboto, sans-serif;letter-spacing:2px;fill:#333333" id="text23512" aria-label="HIGH">
    <path id="path23723" style="font-weight:bold;font-size:10.6667px;font-family:Roboto, sans-serif;letter-spacing:2px;fill:#333333" d="m 35.84898,204 h -1.562505 v -3.25001 H 31.23959 V 204 h -1.562505 v -7.58336 h 1.562505 v 3.07293 h 3.046885 v -3.07293 h 1.562505 z"/>
    <path id="path23725" style="font-weight:bold;font-size:10.6667px;font-family:Roboto, sans-serif;letter-spacing:2px;fill:#333333" d="m 40.88024,204 h -1.562505 v -7.58336 h 1.562505 z"/>
    <path id="path23727" style="font-weight:bold;font-size:10.6667px;font-family:Roboto, sans-serif;letter-spacing:2px;fill:#333333" d="m 50.322971,203.04166 q -0.421877,0.50521 -1.192712,0.78646 -0.770836,0.27605 -1.708339,0.27605 -0.984378,0 -1.729172,-0.42709 -0.739586,-0.43229 -1.145837,-1.25 -0.401043,-0.81771 -0.41146,-1.92188 v -0.51563 q 0,-1.13542 0.38021,-1.96355 0.385418,-0.83333 1.10417,-1.27083 0.723961,-0.44271 1.692714,-0.44271 1.348962,0 2.109381,0.64583 0.760419,0.64063 0.901045,1.8698 h -1.520838 q -0.104167,-0.65105 -0.463543,-0.95313 -0.354168,-0.30208 -0.97917,-0.30208 -0.796878,0 -1.213546,0.59896 -0.416668,0.59896 -0.421876,1.78125 v 0.48438 q 0,1.19271 0.453126,1.80209 0.453127,0.60937 1.32813,0.60937 0.880211,0 1.255212,-0.375 v -1.30729 h -1.42188 v -1.15105 h 2.984385 z"/>
    <path id="path23729" style="font-weight:bold;font-size:10.6667px;font-family:Roboto, sans-serif;letter-spacing:2px;fill:#333333" d="m 59.765703,204 h -1.562505 v -3.25001 H 55.156314 V 204 h -1.562505 v -7.58336 h 1.562505 v 3.07293 h 3.046884 v -3.07293 h 1.562505 z"/>
  </g>
  <g transform="translate(26,217)" id="g23514"/>
  <g transform="translate(10,201)" id="use23516">
    <g transform="translate(35,35)" id="g23661">
      <g style="font-weight:bold;font-size:8px;font-family:Roboto, sans-serif;fill:#333333" id="text23637" transform="translate(-22.5,24.150635)" aria-label="-36">
        <path id="path23681" style="font-weight:bold;font-size:8px;font-family:Roboto, sans-serif;fill:#333333" d="M 2.6289063,-1.9804687 H 0.4296875 V -2.890625 h 2.1992188 z"/>
        <path id="path23683" style="font-weight:bold;font-size:8px;font-family:Roboto, sans-serif;fill:#333333" d="m 4.6445312,-3.34375 h 0.6015625 q 0.4296875,0 0.6367188,-0.2148438 0.2070312,-0.2148437 0.2070312,-0.5703124 0,-0.34375 -0.2070312,-0.5351563 -0.203125,-0.1914062 -0.5625,-0.1914062 -0.3242188,0 -0.5429688,0.1796875 Q 4.5585937,-4.5 4.5585937,-4.2148437 H 3.4296875 q 0,-0.4453125 0.2382813,-0.796875 0.2421875,-0.3554688 0.6718749,-0.5546875 0.4335938,-0.1992188 0.953125,-0.1992188 0.9023438,0 1.4140625,0.4335938 0.5117188,0.4296875 0.5117188,1.1875 0,0.3906249 -0.2382813,0.7187499 -0.2382812,0.328125 -0.625,0.5039063 0.4804688,0.171875 0.7148438,0.515625 0.2382812,0.34375 0.2382812,0.8125 0,0.7578125 -0.5546875,1.21484375 Q 6.203125,0.078125 5.2929687,0.078125 q -0.8515625,0 -1.3945312,-0.44921875 Q 3.359375,-0.8203125 3.359375,-1.5585937 h 1.1289062 q 0,0.3203125 0.2382813,0.5234375 0.2421875,0.20312495 0.59375,0.20312495 0.4023437,0 0.6289062,-0.21093745 0.2304688,-0.2148438 0.2304688,-0.5664063 0,-0.8515625 -0.9375,-0.8515625 H 4.6445312 Z"/>
        <path id="path23685" style="font-weight:bold;font-size:8px;font-family:Roboto, sans-serif;fill:#333333" d="m 11.152344,-5.7460937 v 0.9296875 H 11.042969 Q 10.277344,-4.8046875 9.8085938,-4.4179687 9.34375,-4.03125 9.25,-3.34375 q 0.453125,-0.4609375 1.144531,-0.4609375 0.742188,0 1.179688,0.53125 0.4375,0.53125 0.4375,1.3984375 0,0.5546875 -0.242188,1.00390625 -0.238281,0.44921875 -0.679687,0.69921875 -0.4375,0.25 -0.992188,0.25 -0.8984372,0 -1.4531247,-0.625 Q 8.09375,-1.171875 8.09375,-2.2148438 v -0.40625 q 0,-0.9257812 0.3476563,-1.6328124 0.3515625,-0.7109375 1.0039062,-1.0976563 0.6562505,-0.390625 1.5195315,-0.3945312 z m -1.101563,2.8476562 q -0.2734372,0 -0.4960935,0.1445312 -0.2226562,0.140625 -0.328125,0.375 v 0.34375 q 0,0.5664063 0.2226563,0.8867188 0.2226562,0.31640625 0.6250002,0.31640625 0.363281,0 0.585937,-0.28515625 0.226563,-0.2890625 0.226563,-0.7460937 0,-0.4648438 -0.226563,-0.7500001 -0.226562,-0.2851562 -0.609375,-0.2851562 z"/>
      </g>
      <path d="M 0,0 H 3" style="stroke:#333333;stroke-width:0.7" transform="rotate(145,-10.5,3.3106373)" id="polyline23639"/>
      <g style="font-weight:bold;font-size:8px;font-family:Roboto, sans-serif;fill:#333333" id="text23641" transform="translate(-34.620194,6.8412044)" aria-label="-24">
        <path id="path23689" style="font-weight:bold;font-size:8px;font-family:Roboto, sans-serif;fill:#333333" d="M 2.6289063,-1.9804687 H 0.4296875 V -2.890625 h 2.1992188 z"/>
        <path id="path23691" style="font-weight:bold;font-size:8px;font-family:Roboto, sans-serif;fill:#333333" d="M 7.3945312,0 H 3.4960938 V -0.7734375 L 5.3359375,-2.734375 Q 5.7148437,-3.1484375 5.8945312,-3.4570313 6.078125,-3.765625 6.078125,-4.0429687 q 0,-0.3789063 -0.1914063,-0.59375 -0.1914062,-0.21875 -0.546875,-0.21875 -0.3828125,0 -0.6054687,0.265625 -0.21875,0.2617187 -0.21875,0.6914062 H 3.3828125 q 0,-0.5195312 0.2460938,-0.9492187 0.25,-0.4296875 0.7031249,-0.671875 0.453125,-0.2460938 1.0273438,-0.2460938 0.8789062,0 1.3632812,0.421875 0.4882813,0.421875 0.4882813,1.1914063 0,0.4218749 -0.21875,0.8593749 -0.21875,0.4375 -0.75,1.0195313 l -1.2929688,1.36328125 h 2.4453125 z"/>
        <path id="path23693" style="font-weight:bold;font-size:8px;font-family:Roboto, sans-serif;fill:#333333" d="m 11.429688,-2.140625 h 0.644531 v 0.9101563 H 11.429688 V 0 H 10.300781 V -1.2304687 H 7.96875 L 7.9179687,-1.9414062 10.289063,-5.6875 h 1.140625 z m -2.3867192,0 h 1.2578122 v -2.0078125 l -0.07422,0.1289063 z"/>
      </g>
      <path d="M 0,0 H 3" style="stroke:#333333;stroke-width:0.7" transform="rotate(-165,-10.5,-1.3823512)" id="polyline23643"/>
      <g style="font-weight:bold;font-size:8px;font-family:Roboto, sans-serif;fill:#333333" id="text23645" transform="translate(-29.151111,-13.56969)" aria-label="-12">
        <path id="path23697" style="font-weight:bold;font-size:8px;font-family:Roboto, sans-serif;fill:#333333" d="M 2.6289063,-1.9804687 H 0.4296875 V -2.890625 h 2.1992188 z"/>
        <path id="path23699" style="font-weight:bold;font-size:8px;font-family:Roboto, sans-serif;fill:#333333" d="M 6.2382812,0 H 5.109375 v -4.3515625 l -1.3476562,0.4179687 v -0.9179687 l 2.3554687,-0.84375 h 0.1210937 z"/>
        <path id="path23701" style="font-weight:bold;font-size:8px;font-family:Roboto, sans-serif;fill:#333333" d="M 11.988281,0 H 8.0898438 V -0.7734375 L 9.9296875,-2.734375 q 0.3789065,-0.4140625 0.5585935,-0.7226563 0.183594,-0.3085937 0.183594,-0.5859374 0,-0.3789063 -0.191406,-0.59375 -0.191406,-0.21875 -0.5468752,-0.21875 -0.3828125,0 -0.6054688,0.265625 -0.21875,0.2617187 -0.21875,0.6914062 H 7.9765625 q 0,-0.5195312 0.2460938,-0.9492187 0.25,-0.4296875 0.703125,-0.671875 0.453125,-0.2460938 1.0273437,-0.2460938 0.878906,0 1.363281,0.421875 0.488282,0.421875 0.488282,1.1914063 0,0.4218749 -0.21875,0.8593749 -0.21875,0.4375 -0.75,1.0195313 l -1.2929692,1.36328125 h 2.4453122 z"/>
      </g>
      <path d="M 0,0 H 3" style="stroke:#333333;stroke-width:0.7" transform="rotate(-115,-10.5,-6.6892377)" id="polyline23647"/>
      <g style="font-weight:bold;font-size:8px;font-family:Roboto, sans-serif;fill:#333333" id="text23649" transform="translate(-2.3,-22.5)" aria-label="0">
        <path id="path23705" style="font-weight:bold;font-size:8px;font-family:Roboto, sans-serif;fill:#333333" d="m 4.2148437,-2.3515625 q 0,1.1796875 -0.4882812,1.8046875 -0.4882812,0.625 -1.4296875,0.625 -0.9296875,0 -1.421875,-0.61328125 Q 0.3828125,-1.1484375 0.37109375,-2.2929688 v -1.046875 q 0,-1.1914062 0.4921875,-1.8085937 Q 1.359375,-5.765625 2.2890625,-5.765625 q 0.9296875,0 1.421875,0.6132813 0.4921875,0.609375 0.5039062,1.7539062 z M 3.0859375,-3.5 q 0,-0.7070312 -0.1953125,-1.0273437 -0.1914062,-0.3242188 -0.6015625,-0.3242188 -0.3984375,0 -0.5898438,0.3085938 Q 1.5117187,-4.2382812 1.5,-3.5859375 v 1.3828125 q 0,0.6953125 0.1875,1.0351563 0.1914062,0.33593745 0.609375,0.33593745 0.4140625,0 0.5976563,-0.32421875 0.1835937,-0.3242187 0.1914062,-0.9921875 z"/>
      </g>
      <path d="M 0,0 H 3" style="stroke:#333333;stroke-width:0.7" transform="rotate(-52.5,-10.5,-21.291894)" id="polyline23651"/>
      <g style="font-weight:bold;font-size:8px;font-family:Roboto, sans-serif;fill:#333333" id="text23653" transform="translate(21.148146,-3.9704761)" aria-label="6">
        <path id="path23709" style="font-weight:bold;font-size:8px;font-family:Roboto, sans-serif;fill:#333333" d="m 3.4492188,-5.7460937 v 0.9296875 h -0.109375 q -0.765625,0.011719 -1.234375,0.3984375 Q 1.640625,-4.03125 1.546875,-3.34375 2,-3.8046875 2.6914063,-3.8046875 q 0.7421875,0 1.1796875,0.53125 0.4374999,0.53125 0.4374999,1.3984375 0,0.5546875 -0.2421875,1.00390625 Q 3.828125,-0.421875 3.3867188,-0.171875 q -0.4375,0.25 -0.9921875,0.25 -0.8984376,0 -1.45312505,-0.625 Q 0.390625,-1.171875 0.390625,-2.2148438 v -0.40625 q 0,-0.9257812 0.34765625,-1.6328124 0.35156245,-0.7109375 1.00390625,-1.0976563 0.65625,-0.390625 1.5195313,-0.3945312 z m -1.1015625,2.8476562 q -0.2734375,0 -0.4960938,0.1445312 -0.2226563,0.140625 -0.328125,0.375 v 0.34375 q 0,0.5664063 0.2226562,0.8867188 0.2226563,0.31640625 0.6250001,0.31640625 0.3632812,0 0.5859375,-0.28515625 0.2265625,-0.2890625 0.2265625,-0.7460937 0,-0.4648438 -0.2265625,-0.7500001 -0.2265625,-0.2851562 -0.609375,-0.2851562 z"/>
      </g>
      <path d="M 0,0 H 3" style="stroke:#333333;stroke-width:0.7" transform="rotate(22.5,-10.5,52.787065)" id="polyline23655"/>
      <g style="font-weight:bold;font-size:8px;font-family:Roboto, sans-serif;fill:#333333" id="text23657" transform="translate(10.2,24.150635)" aria-label="12">
        <path id="path23713" style="font-weight:bold;font-size:8px;font-family:Roboto, sans-serif;fill:#333333" d="M 3.1289063,0 H 2 v -4.3515625 l -1.34765625,0.4179687 v -0.9179687 l 2.35546875,-0.84375 h 0.1210938 z"/>
        <path id="path23715" style="font-weight:bold;font-size:8px;font-family:Roboto, sans-serif;fill:#333333" d="M 8.8789063,0 H 4.9804687 V -0.7734375 L 6.8203125,-2.734375 Q 7.1992187,-3.1484375 7.3789062,-3.4570313 7.5625,-3.765625 7.5625,-4.0429687 q 0,-0.3789063 -0.1914063,-0.59375 -0.1914062,-0.21875 -0.546875,-0.21875 -0.3828125,0 -0.6054687,0.265625 Q 6,-4.328125 6,-3.8984375 H 4.8671875 q 0,-0.5195312 0.2460937,-0.9492187 0.25,-0.4296875 0.703125,-0.671875 0.453125,-0.2460938 1.0273438,-0.2460938 0.8789062,0 1.3632813,0.421875 0.4882812,0.421875 0.4882812,1.1914063 0,0.4218749 -0.21875,0.8593749 -0.21875,0.4375 -0.75,1.0195313 l -1.2929688,1.36328125 h 2.4453126 z"/>
      </g>
      <g style="font-weight:bold;font-size:8px;font-family:Roboto, sans-serif;fill:#333333" id="text23659" transform="translate(-4.7,31.2)" aria-label="dB">
        <path id="path23718" style="font-weight:bold;font-size:8px;font-family:Roboto, sans-serif;fill:#333333" d="m 0.2578125,-2.1445313 q 0,-0.9882812 0.44140625,-1.5742187 0.44531245,-0.5859375 1.21484375,-0.5859375 0.6171875,0 1.0195313,0.4609375 V -6 H 4.0664062 V 0 H 3.046875 L 2.9921875,-0.44921875 Q 2.5703125,0.078125 1.90625,0.078125 q -0.7460938,0 -1.19921875,-0.5859375 Q 0.2578125,-1.0976562 0.2578125,-2.1445313 Z M 1.3867187,-2.0625 q 0,0.59375 0.2070313,0.9101563 0.2070312,0.3164062 0.6015625,0.3164062 0.5234375,0 0.7382813,-0.4414062 V -2.9453125 Q 2.7226563,-3.3867188 2.203125,-3.3867188 q -0.8164063,0 -0.8164063,1.3242188 z"/>
        <path id="path23720" style="font-weight:bold;font-size:8px;font-family:Roboto, sans-serif;fill:#333333" d="M 5.0234375,0 V -5.6875 H 7.015625 q 1.0351563,0 1.5703125,0.3984375 0.5351563,0.3945313 0.5351563,1.1601563 0,0.4179687 -0.2148438,0.7382812 -0.2148437,0.3164062 -0.5976562,0.4648437 0.4375,0.109375 0.6875,0.4414063 Q 9.25,-2.1523438 9.25,-1.671875 9.25,-0.8515625 8.7265625,-0.4296875 8.203125,-0.0078125 7.234375,0 Z m 1.171875,-2.4765625 v 1.53515625 h 1.0039062 q 0.4140625,0 0.6445313,-0.19531245 0.234375,-0.1992188 0.234375,-0.546875 0,-0.7812501 -0.8085938,-0.7929688 z m 0,-0.828125 H 7.0625 q 0.8867187,-0.015625 0.8867187,-0.7070312 0,-0.3867188 -0.2265625,-0.5546875 Q 7.5,-4.7382812 7.015625,-4.7382812 H 6.1953125 Z"/>
      </g>
    </g>
  </g>
  <g transform="translate(11,275)" class="io-group" id="g23532">
    <path class="input-background-filler" d="M 0,0 H 68 V 10 H 0 Z" style="fill:#fafafa" transform="translate(0,31)" id="rect23520"/>
    <path class="input-background" d="m 5,0 h 58 c 2.77,0 5,2.23 5,5 v 28 c 0,2.77 -2.23,5 -5,5 H 5 C 2.23,38 0,35.77 0,33 V 5 C 0,2.23 2.23,0 5,0 Z" style="fill:#fafafa" id="rect23522"/>
    <g transform="translate(5,4)" id="g23524"/>
    <g class="input-label" style="font-weight:bold;font-size:6.66667px;font-family:Roboto, sans-serif;letter-spacing:2px;fill:#333333" id="text23526" transform="translate(15.5,36)" aria-label="L">
      <path id="path23675" style="font-weight:bold;font-size:6.66667px;font-family:Roboto, sans-serif;letter-spacing:2px;fill:#333333" d="M 1.3997403,-0.78450558 H 3.4733089 V 0 H 0.42317729 V -4.7395856 H 1.3997403 Z"/>
    </g>
    <g transform="translate(39,4)" id="g23528"/>
    <g class="input-label" style="font-weight:bold;font-size:6.66667px;font-family:Roboto, sans-serif;letter-spacing:2px;fill:#333333" id="text23530" transform="translate(49,36)" aria-label="R">
      <path id="path23678" style="font-weight:bold;font-size:6.66667px;font-family:Roboto, sans-serif;letter-spacing:2px;fill:#333333" d="M 2.1777354,-1.7350269 H 1.3997403 V 0 H 0.42317729 V -4.7395856 H 2.1842458 q 0.8398442,0 1.2955736,0.3743491 0.4557294,0.3743492 0.4557294,1.0579433 0,0.4850262 -0.2115887,0.8105472 -0.2083334,0.3222658 -0.6347659,0.5143232 l 1.0253911,1.93684986 V 0 H 3.0664077 Z M 1.3997403,-2.5260429 H 2.187501 q 0.3678388,0 0.5696618,-0.1855469 0.201823,-0.1888022 0.201823,-0.5175784 0,-0.3352866 -0.1920574,-0.527344 Q 2.5781262,-3.9485696 2.1842458,-3.9485696 H 1.3997403 Z"/>
    </g>
  </g>
  <g class="io-group" transform="translate(11,319)" id="g23546">
    <path class="output-background-filler" d="M 0,0 H 68 V 10 H 0 Z" style="fill:#bbbbbb" transform="translate(0,-3)" id="rect23534"/>
    <path class="output-background" d="m 5,0 h 58 c 2.77,0 5,2.23 5,5 v 27 c 0,2.77 -2.23,5 -5,5 H 5 C 2.23,37 0,34.77 0,32 V 5 C 0,2.23 2.23,0 5,0 Z" style="fill:#bbbbbb" id="rect23536"/>
    <g transform="translate(5,1)" id="g23538"/>
    <g class="output-label" style="font-weight:bold;font-size:6.66667px;font-family:Roboto, sans-serif;letter-spacing:2px;fill:#333333" id="text23540" transform="translate(15.5,33)" aria-label="L">
      <path id="path23667" style="font-weight:bold;font-size:6.66667px;font-family:Roboto, sans-serif;letter-spacing:2px;fill:#333333" d="M 1.3997403,-0.78450558 H 3.4733089 V 0 H 0.42317729 V -4.7395856 H 1.3997403 Z"/>
    </g>
    <g transform="translate(39,1)" id="g23542"/>
    <g class="output-label" style="font-weight:bold;font-size:6.66667px;font-family:Roboto, sans-serif;letter-spacing:2px;fill:#333333" id="text23544" transform="translate(49,33)" aria-label="R">
      <path id="path23670" style="font-weight:bold;font-size:6.66667px;font-family:Roboto, sans-serif;letter-spacing:2px;fill:#333333" d="M 2.1777354,-1.7350269 H 1.3997403 V 0 H 0.42317729 V -4.7395856 H 2.1842458 q 0.8398442,0 1.2955736,0.3743491 0.4557294,0.3743492 0.4557294,1.0579433 0,0.4850262 -0.2115887,0.8105472 -0.2083334,0.3222658 -0.6347659,0.5143232 l 1.0253911,1.93684986 V 0 H 3.0664077 Z M 1.3997403,-2.5260429 H 2.187501 q 0.3678388,0 0.5696618,-0.1855469 0.201823,-0.1888022 0.201823,-0.5175784 0,-0.3352866 -0.1920574,-0.527344 Q 2.5781262,-3.9485696 2.1842458,-3.9485696 H 1.3997403 Z"/>
    </g>
  </g>
</svg>
