<?xml version="1.0" encoding="UTF-8" standalone="no"?>
<svg xmlns:dc="http://purl.org/dc/elements/1.1/" xmlns:cc="http://creativecommons.org/ns#" xmlns:rdf="http://www.w3.org/1999/02/22-rdf-syntax-ns#" xmlns:svg="http://www.w3.org/2000/svg" xmlns="http://www.w3.org/2000/svg" xmlns:sodipodi="http://sodipodi.sourceforge.net/DTD/sodipodi-0.dtd" xmlns:inkscape="http://www.inkscape.org/namespaces/inkscape" inkscape:version="1.0 (4035a4f, 2020-05-01)" sodipodi:docname="svg_render_FiveHP-pp.svg" id="svg33574" viewBox="0 0 75 380" height="380" width="75" version="1.1">
  <metadata id="metadata33580">
    <rdf:RDF>
      <cc:Work rdf:about="">
        <dc:format>image/svg+xml</dc:format>
        <dc:type rdf:resource="http://purl.org/dc/dcmitype/StillImage"/>
      </cc:Work>
    </rdf:RDF>
  </metadata>
  <defs id="defs33578"/>
  <sodipodi:namedview inkscape:current-layer="svg33574" inkscape:window-maximized="0" inkscape:window-y="23" inkscape:window-x="0" inkscape:cy="190" inkscape:cx="37.5" inkscape:zoom="1.7605263" showgrid="false" id="namedview33576" inkscape:window-height="480" inkscape:window-width="689" inkscape:pageshadow="2" inkscape:pageopacity="0" guidetolerance="10" gridtolerance="10" objecttolerance="10" borderopacity="1" bordercolor="#666666" pagecolor="#ffffff"/>
  
  <path class="module-background background-fill" d="M 0,0 H 75 V 380 H 0 Z" style="fill:#dddddd" id="rect33558"/>
  <path class="module-border-inner" d="M 1,1 H 74 V 379 H 1 V 1" style="fill:none;stroke:#e4e4e4;stroke-width:0.5" id="polyline33560"/>
  <path class="module-border-middle" d="m 0.5,0.5 h 74 v 379 H 0.5 V 0.5" style="fill:none;stroke:#ebebeb;stroke-width:0.8" id="polyline33562"/>
  <path class="module-border-outer" d="M 0,0 H 75 V 380 H 0 V 0" style="fill:none;stroke:#f2f2f2;stroke-width:1" id="polyline33564"/>
  <g class="title" style="font-weight:normal;font-size:12px;font-family:Comfortaa, sans-serif;letter-spacing:3px;text-anchor:end;fill:#333333" id="text33566" transform="translate(72.0 17)" aria-label="5HP">
    <path id="path33592" style="font-weight:normal;font-size:12px;font-family:Comfortaa, sans-serif;letter-spacing:3px;text-anchor:end;fill:#333333" d="m -27.168375,0 q -0.852,0 -1.548,-0.396 -0.696,-0.396 -1.092,-1.092 -0.396,-0.708 -0.396,-1.56 0,-0.204 0.132,-0.336 0.132,-0.132 0.324,-0.132 0.204,0 0.336,0.144 0.144,0.132 0.144,0.324 0,0.588 0.276,1.08 0.276,0.48 0.756,0.756 0.48,0.276 1.068,0.276 0.588,0 1.068,-0.276 0.492,-0.276 0.768,-0.756 0.276,-0.492 0.276,-1.08 0,-0.588 -0.276,-1.068 -0.276,-0.492 -0.768,-0.768 -0.48,-0.276 -1.068,-0.276 h -2.1 q -0.192,0 -0.336,-0.132 -0.132,-0.144 -0.132,-0.336 v -3.288 q 0,-0.204 0.132,-0.336 0.144,-0.132 0.336,-0.132 h 4.212 q 0.192,0 0.324,0.144 0.144,0.132 0.144,0.324 0,0.192 -0.144,0.336 -0.132,0.132 -0.324,0.132 h -3.756 v 2.352 h 1.644 q 0.852,0 1.548,0.408 0.708,0.396 1.104,1.092 0.396,0.696 0.396,1.548 0,0.852 -0.396,1.56 -0.396,0.696 -1.104,1.092 -0.696,0.396 -1.548,0.396 z"/>
    <path id="path33594" style="font-weight:normal;font-size:12px;font-family:Comfortaa, sans-serif;letter-spacing:3px;text-anchor:end;fill:#333333" d="m -18.792937,0 q -0.192,0 -0.336,-0.132 -0.132,-0.144 -0.132,-0.336 v -8.436 q 0,-0.204 0.132,-0.336 0.144,-0.132 0.336,-0.132 0.204,0 0.336,0.132 0.132,0.132 0.132,0.336 v 3.744 h 5.856 v -3.744 q 0,-0.204 0.132,-0.336 0.144,-0.132 0.335999,-0.132 0.204,0 0.336,0.132 0.132001,0.132 0.132001,0.336 v 8.436 q 0,0.192 -0.132001,0.336 -0.132,0.132 -0.336,0.132 -0.191999,0 -0.335999,-0.132 -0.132,-0.144 -0.132,-0.336 V -4.32 h -5.856 v 3.852 q 0,0.192 -0.132,0.336 -0.132,0.132 -0.336,0.132 z"/>
    <path id="path33596" style="font-weight:normal;font-size:12px;font-family:Comfortaa, sans-serif;letter-spacing:3px;text-anchor:end;fill:#333333" d="m -5.6679375,0 q -0.204,0 -0.336,-0.132 -0.132,-0.132 -0.132,-0.336 v -8.436 q 0,-0.204 0.132,-0.336 0.132,-0.132 0.336,-0.132 h 2.4 q 0.876,0 1.56,0.396 0.696,0.384 1.08,1.08 0.384,0.684 0.384,1.572 0,0.876 -0.384,1.56 -0.384,0.684 -1.08,1.068 -0.684,0.384 -1.56,0.384 h -1.932 v 2.844 q 0,0.204 -0.132,0.336 -0.132,0.132 -0.336,0.132 z m 2.4,-4.212 q 0.612,0 1.092,-0.264 0.48,-0.276 0.744,-0.756 0.276,-0.48 0.276,-1.092 0,-0.624 -0.276,-1.104 -0.264,-0.492 -0.744,-0.768 -0.48,-0.276 -1.092,-0.276 h -1.932 v 4.26 z"/>
  </g>
  <g class="brand" style="font-weight:bold;font-size:8.66667px;font-family:Audiowide, sans-serif;letter-spacing:2px;fill:#333333" id="text33568" aria-label="BGA">
    <path id="path33585" style="font-weight:bold;font-size:8.66667px;font-family:Audiowide, sans-serif;letter-spacing:2px;fill:#333333" d="m 31.694664,372.66699 q 0,0.20313 -0.07194,0.43587 -0.06771,0.23275 -0.228516,0.43165 -0.156576,0.19889 -0.410482,0.33431 Q 30.72982,374 30.361656,374 h -4.17676 q -0.118489,0 -0.220052,-0.0423 -0.101562,-0.0423 -0.177734,-0.11426 -0.07194,-0.0762 -0.114258,-0.17773 -0.04232,-0.10156 -0.04232,-0.22005 V 368.486 q 0,-0.11426 0.04232,-0.21582 0.04232,-0.10156 0.114258,-0.17773 0.07617,-0.0762 0.177734,-0.11849 0.101563,-0.0423 0.220052,-0.0423 h 3.681642 q 0.203125,0 0.435873,0.0719 0.232747,0.0719 0.431641,0.23275 0.203125,0.15657 0.33431,0.41048 0.135416,0.2539 0.135416,0.62207 v 0.20736 q 0,0.29199 -0.09733,0.63053 -0.09733,0.33431 -0.313152,0.63477 0.186198,0.11425 0.347006,0.27506 0.165039,0.16081 0.28776,0.3724 0.122722,0.21159 0.194662,0.47819 0.07194,0.2666 0.07194,0.58821 z m -1.100261,-0.21159 q 0,-0.21582 -0.06771,-0.38509 -0.06771,-0.1735 -0.19043,-0.29622 -0.122721,-0.12272 -0.296224,-0.1862 -0.173503,-0.0677 -0.389323,-0.0677 h -2.479819 v -1.10872 H 29.1556 q 0.215821,0 0.389324,-0.0635 0.173502,-0.0677 0.296224,-0.19043 0.122721,-0.12272 0.186198,-0.29199 0.06771,-0.1735 0.06771,-0.38932 v -0.20736 q 0,-0.23698 -0.228516,-0.23698 h -3.135743 v 3.86784 h 3.630861 q 0.02962,0 0.07194,-0.004 0.04232,-0.004 0.07617,-0.0254 0.03385,-0.0212 0.05924,-0.0719 0.02539,-0.0508 0.02539,-0.13965 z"/>
    <path id="path33587" style="font-weight:bold;font-size:8.66667px;font-family:Audiowide, sans-serif;letter-spacing:2px;fill:#333333" d="m 40.63477,373.44564 q 0,0.11849 -0.04232,0.22005 -0.04232,0.10156 -0.118489,0.17773 -0.07194,0.0719 -0.173503,0.11426 Q 40.198897,374 40.080408,374 h -3.969403 q -0.152344,0 -0.330078,-0.0338 -0.173503,-0.0381 -0.347005,-0.11426 -0.169271,-0.0762 -0.325847,-0.19466 -0.156575,-0.12272 -0.279297,-0.292 -0.118489,-0.1735 -0.19043,-0.39778 -0.07194,-0.22852 -0.07194,-0.51205 v -2.97916 q 0,-0.15235 0.03385,-0.32585 0.03809,-0.17774 0.114257,-0.34701 0.07617,-0.1735 0.198894,-0.33007 0.122721,-0.15658 0.291992,-0.27507 0.173503,-0.12272 0.397787,-0.19466 0.224284,-0.0719 0.507812,-0.0719 h 4.472984 v 1.10026 h -4.472984 q -0.21582,0 -0.330078,0.11426 -0.114258,0.11425 -0.114258,0.33854 v 2.9707 q 0,0.21159 0.114258,0.33008 0.11849,0.11426 0.330078,0.11426 h 3.423504 v -1.37956 h -2.928386 v -1.10872 h 3.474285 q 0.118489,0 0.220052,0.0466 0.101562,0.0423 0.173503,0.11849 0.07617,0.0762 0.118489,0.17773 0.04232,0.0973 0.04232,0.21159 z"/>
    <path id="path33589" style="font-weight:bold;font-size:8.66667px;font-family:Audiowide, sans-serif;letter-spacing:2px;fill:#333333" d="m 49.744148,374 h -1.100261 v -1.48958 h -3.86784 V 374 h -1.10026 v -3.03418 q 0,-0.66439 0.228515,-1.22298 0.228516,-0.5586 0.634766,-0.96062 0.40625,-0.40201 0.960612,-0.6263 0.554363,-0.22428 1.210287,-0.22428 h 2.479819 q 0.114258,0 0.21582,0.0423 0.101563,0.0423 0.177735,0.11849 0.07617,0.0762 0.118489,0.17773 0.04232,0.10156 0.04232,0.21582 z m -4.968101,-2.58984 h 3.86784 v -2.37826 h -1.93392 q -0.05078,0 -0.21582,0.0169 -0.160807,0.0127 -0.376628,0.0719 -0.211588,0.0592 -0.448568,0.18196 -0.236979,0.12272 -0.435872,0.33854 -0.198894,0.21582 -0.330078,0.54167 -0.126954,0.32162 -0.126954,0.78288 z"/>
  </g>
  <path class="background-fill" d="m 36.5,370 h 2 v 2 h -2 z" style="fill:#dddddd" id="rect33570"/>
</svg>
