<?xml version="1.0" encoding="UTF-8" standalone="no"?>
<svg xmlns:dc="http://purl.org/dc/elements/1.1/" xmlns:cc="http://creativecommons.org/ns#" xmlns:rdf="http://www.w3.org/1999/02/22-rdf-syntax-ns#" xmlns:svg="http://www.w3.org/2000/svg" xmlns="http://www.w3.org/2000/svg" xmlns:sodipodi="http://sodipodi.sourceforge.net/DTD/sodipodi-0.dtd" xmlns:inkscape="http://www.inkscape.org/namespaces/inkscape" inkscape:version="1.0 (4035a4f, 2020-05-01)" sodipodi:docname="svg_render_tmp.svg" id="svg116" viewBox="0 0 45 380" height="380" width="45" version="1.1">
  <metadata id="metadata120">
    <rdf:RDF>
      <cc:Work rdf:about="">
        <dc:format>image/svg+xml</dc:format>
        <dc:type rdf:resource="http://purl.org/dc/dcmitype/StillImage"/>
      </cc:Work>
    </rdf:RDF>
  </metadata>
  <sodipodi:namedview inkscape:current-layer="svg116" inkscape:window-maximized="0" inkscape:window-y="23" inkscape:window-x="0" inkscape:cy="190" inkscape:cx="22.5" inkscape:zoom="1.7605263" showgrid="false" id="namedview118" inkscape:window-height="480" inkscape:window-width="689" inkscape:pageshadow="2" inkscape:pageopacity="0" guidetolerance="10" gridtolerance="10" objecttolerance="10" borderopacity="1" bordercolor="#666666" pagecolor="#ffffff"/>
  
  <defs id="defs16">
    <symbol viewBox="0 0 18px 18px" id="button">
      <g id="g6" transform="translate(9 9)">
        <circle id="circle4" fill="#f00" stroke="#00f" stroke-width="1" r="8.5" cy="0" cx="0"/>
      </g>
    </symbol>
    <symbol viewBox="0 0 24px 24px" id="output">
      <g id="g13" transform="translate(12 12)">
        <circle id="circle9" fill="#f00" stroke="#f00" stroke-width="1" r="5" cy="0" cx="0"/>
        <circle id="circle11" fill="none" stroke="#f00" stroke-width="3" r="10.5" cy="0" cx="0"/>
      </g>
    </symbol>
  </defs>
  <path d="M 0,0 H 45 V 380 H 0 Z" style="fill:#dddddd" id="rect18"/>
  <path d="M 1,1 H 44 V 379 H 1 V 1" style="fill:none;stroke:#e4e4e4;stroke-width:0.5" id="polyline20"/>
  <path d="m 0.5,0.5 h 44 v 379 H 0.5 V 0.5" style="fill:none;stroke:#ebebeb;stroke-width:0.8" id="polyline22"/>
  <path d="M 0,0 H 45 V 380 H 0 V 0" style="fill:none;stroke:#f2f2f2;stroke-width:1" id="polyline24"/>
  <g class="title" style="font-weight:normal;font-size:9.33333px;font-family:Comfortaa, sans-serif;letter-spacing:2.5px;fill:#333333" id="text26" transform="rotate(-90)" aria-label="4MAN">
    <path id="path250" style="font-weight:normal;font-size:9.33333px;font-family:Comfortaa, sans-serif;letter-spacing:2.5px;fill:#333333" d="m -370.71734,10.601334 q 0.35467,0 0.35467,0.336 0,0.121333 -0.112,0.224 -0.10267,0.09333 -0.24267,0.09333 h -0.73733 V 12.636 q 0,0.149333 -0.10266,0.261333 Q -371.66,13 -371.81867,13 q -0.14933,0 -0.252,-0.102667 -0.0933,-0.102666 -0.0933,-0.261333 v -1.381333 h -3.34133 q -0.15867,0 -0.26134,-0.102666 -0.10266,-0.112 -0.10266,-0.252 0,-0.112 0.0747,-0.214667 l 3.696,-4.8346649 q 0.10267,-0.1493333 0.29867,-0.1493333 0.14933,0 0.24267,0.112 0.10266,0.1026666 0.10266,0.2613332 v 4.526665 z m -1.44666,0 V 7.036002 l -2.73467,3.565332 z"/>
    <path id="path252" style="font-weight:normal;font-size:9.33333px;font-family:Comfortaa, sans-serif;letter-spacing:2.5px;fill:#333333" d="m -359.59815,5.7106691 q 0.14933,0 0.252,0.1026667 0.10267,0.1026666 0.10267,0.2613332 V 12.636 q 0,0.149333 -0.10267,0.261333 Q -359.44882,13 -359.59815,13 q -0.15867,0 -0.27067,-0.102667 -0.10266,-0.112 -0.10266,-0.261333 V 7.3533353 l -2.59467,5.3013317 q -0.112,0.177333 -0.31733,0.177333 -0.23334,0 -0.336,-0.224 l -2.58534,-5.1706648 V 12.636 q 0,0.149333 -0.10266,0.261333 Q -366.01015,13 -366.16882,13 q -0.14933,0 -0.26133,-0.102667 -0.10267,-0.112 -0.10267,-0.261333 V 6.074669 q 0,-0.1586666 0.10267,-0.2613332 0.112,-0.1026667 0.26133,-0.1026667 0.21467,0 0.32667,0.1866667 l 2.98667,5.9359982 2.93066,-5.9359982 q 0.112,-0.1866667 0.32667,-0.1866667 z"/>
    <path id="path254" style="font-weight:normal;font-size:9.33333px;font-family:Comfortaa, sans-serif;letter-spacing:2.5px;fill:#333333" d="m -349.41244,12.486667 q 0.0373,0.06533 0.0373,0.149333 0,0.149333 -0.112,0.261333 Q -349.58978,13 -349.73911,13 q -0.24267,0 -0.34533,-0.224 l -0.62534,-1.511999 h -3.612 l -0.62533,1.511999 q -0.0747,0.224 -0.336,0.224 -0.15867,0 -0.26133,-0.102667 -0.0933,-0.112 -0.0933,-0.261333 0,-0.09333 0.028,-0.158666 l 2.744,-6.5146649 q 0.10267,-0.252 0.35467,-0.252 0.252,0 0.34533,0.252 z m -1.54934,-1.848 -1.54933,-3.7426649 -1.54933,3.7426649 z"/>
    <path id="path256" style="font-weight:normal;font-size:9.33333px;font-family:Comfortaa, sans-serif;letter-spacing:2.5px;fill:#333333" d="m -345.45528,13 q -0.15867,0 -0.26133,-0.102667 -0.10267,-0.102666 -0.10267,-0.261333 V 6.074669 q 0,-0.1586666 0.10267,-0.2613332 0.10266,-0.1026667 0.26133,-0.1026667 0.168,0 0.28,0.1306667 l 4.46133,5.8613312 V 6.074669 q 0,-0.1586666 0.10267,-0.2613332 0.112,-0.1026667 0.26133,-0.1026667 0.15867,0 0.26133,0.1026667 0.10267,0.1026666 0.10267,0.2613332 V 12.636 q 0,0.149333 -0.10267,0.261333 Q -340.19128,13 -340.34995,13 q -0.18667,0 -0.27067,-0.121333 l -4.47066,-5.8613316 V 12.636 q 0,0.149333 -0.10267,0.261333 Q -345.29661,13 -345.45528,13 Z"/>
  </g>
  <g transform="rotate(-90,200.5,175.5)" id="g32">
    <g class="brand" style="font-weight:bold;font-size:9.33333px;font-family:Audiowide, sans-serif;letter-spacing:2px;fill:#333333" id="text28" aria-label="BGA">
      <path id="path242" style="font-weight:bold;font-size:9.33333px;font-family:Audiowide, sans-serif;letter-spacing:2px;fill:#333333" d="m 7.209633,-1.4355464 q 0,0.2187499 -0.077474,0.4694009 -0.072917,0.25065095 -0.2460936,0.46484359 Q 6.7174456,-0.28710928 6.4440082,-0.14127599 6.1705708,0 5.7740866,0 H 1.2760412 Q 1.1484371,0 1.0390621,-0.0455729 0.92968718,-0.0911458 0.84765596,-0.16861973 0.77018203,-0.25065096 0.72460913,-0.36002592 0.67903623,-0.46940088 0.67903623,-0.597005 v -5.341144 q 0,-0.1230469 0.0455729,-0.2324218 0.0455729,-0.109375 0.12304683,-0.1914062 0.0820312,-0.082031 0.19140614,-0.1276041 0.109375,-0.045573 0.2369791,-0.045573 h 3.9648424 q 0.21875,0 0.4694009,0.077474 0.250651,0.077474 0.4648436,0.250651 0.2187499,0.1686197 0.3600259,0.4420571 0.1458333,0.2734374 0.1458333,0.6699217 v 0.2233072 q 0,0.314453 -0.1048177,0.6790362 -0.1048176,0.3600259 -0.3372394,0.6835935 0.2005207,0.1230468 0.3736978,0.2962239 0.1777343,0.173177 0.3098957,0.4010415 0.1321614,0.2278645 0.2096353,0.5149738 0.077474,0.2871093 0.077474,0.6334633 z M 6.0247375,-1.6634109 q 0,-0.2324218 -0.072917,-0.4147134 Q 5.8789042,-2.2649732 5.7467428,-2.3971346 5.6145814,-2.529296 5.4277325,-2.5976554 5.2408836,-2.670572 5.0084618,-2.670572 h -2.670572 v -1.19401 h 2.1373691 q 0.2324218,0 0.4192707,-0.068359 0.1868489,-0.072917 0.3190103,-0.205078 0.1321614,-0.1321614 0.2005208,-0.314453 0.072917,-0.1868489 0.072917,-0.4192707 v -0.2233072 q 0,-0.2552083 -0.2460937,-0.2552083 H 1.8639317 v 4.1653632 h 3.9101549 q 0.031901,0 0.077474,-0.00456 0.045573,-0.00456 0.082031,-0.027344 0.036458,-0.022786 0.063802,-0.077474 0.027344,-0.054687 0.027344,-0.1503906 z"/>
      <path id="path244" style="font-weight:bold;font-size:9.33333px;font-family:Audiowide, sans-serif;letter-spacing:2px;fill:#333333" d="m 16.683589,-0.597005 q 0,0.12760412 -0.04557,0.23697908 -0.04557,0.10937496 -0.127605,0.19140619 -0.07747,0.07747393 -0.186849,0.12304683 Q 16.214189,0 16.086584,0 h -4.274738 q -0.164062,0 -0.355468,-0.03645832 -0.186849,-0.04101561 -0.373698,-0.12304683 -0.182292,-0.0820312 -0.350911,-0.20963535 -0.16862,-0.13216141 -0.300782,-0.31445302 -0.127604,-0.18684889 -0.205078,-0.42838528 -0.07747,-0.2460937 -0.07747,-0.5514321 v -3.2083322 q 0,-0.1640625 0.03646,-0.3509114 0.04101,-0.1914062 0.123047,-0.3736978 0.08203,-0.1868489 0.214192,-0.3554686 0.132162,-0.1686197 0.314453,-0.2962238 0.186849,-0.1321615 0.428385,-0.2096354 0.241537,-0.077474 0.546875,-0.077474 h 4.817056 v 1.1848954 h -4.817056 q -0.232422,0 -0.355468,0.1230468 -0.123047,0.1230469 -0.123047,0.3645832 v 3.1992177 q 0,0.2278645 0.123047,0.3554686 0.127604,0.1230469 0.355468,0.1230469 h 3.686848 V -2.670572 h -3.153645 v -1.19401 h 3.741535 q 0.127605,0 0.236979,0.05013 0.109375,0.045573 0.186849,0.1276041 0.08203,0.082031 0.127605,0.1914062 0.04557,0.1048177 0.04557,0.2278645 z"/>
      <path id="path246" style="font-weight:bold;font-size:9.33333px;font-family:Audiowide, sans-serif;letter-spacing:2px;fill:#333333" d="M 26.339836,0 H 25.154941 V -1.6041661 H 20.989578 V 0 h -1.184896 v -3.267577 q 0,-0.7154946 0.246094,-1.3170569 0.246094,-0.6015623 0.683593,-1.0345048 0.4375,-0.4329426 1.034505,-0.6744789 0.597005,-0.2415364 1.303385,-0.2415364 h 2.670572 q 0.123047,0 0.232422,0.045573 0.109375,0.045573 0.191406,0.1276041 0.08203,0.082031 0.127604,0.1914062 0.04557,0.1093749 0.04557,0.2324218 z m -5.350258,-2.7890616 h 4.165363 v -2.561197 h -2.082682 q -0.05469,0 -0.232422,0.018229 -0.173177,0.013672 -0.405598,0.077474 -0.227865,0.063802 -0.483073,0.1959635 -0.255208,0.1321614 -0.469401,0.3645832 -0.214193,0.2324218 -0.355469,0.5833331 -0.136718,0.3463541 -0.136718,0.8430987 z"/>
    </g>
    <path d="M 0,0 H 3 V 3 H 0 Z" style="fill:#dddddd" transform="translate(11.5,-5)" id="rect30"/>
  </g>
  <g transform="translate(5.5,18)" id="g42">
    <path d="M 0,0 H 34 V 10 H 0 Z" style="fill:#fafafa" transform="translate(0,25)" id="rect36"/>
    <path d="m 5,0 h 24 c 2.77,0 5,2.23 5,5 v 23 c 0,2.77 -2.23,5 -5,5 H 5 C 2.23,33 0,30.77 0,28 V 5 C 0,2.23 2.23,0 5,0 Z" style="fill:#fafafa" id="rect38"/>
    <g style="font-weight:bold;font-size:6.66667px;font-family:Roboto, sans-serif;letter-spacing:2px;fill:#333333" id="text40" transform="translate(6.6,30)" aria-label="TRIG">
      <path id="path233" style="font-weight:bold;font-size:6.66667px;font-family:Roboto, sans-serif;letter-spacing:2px;fill:#333333" d="M 3.9908873,-3.9485696 H 2.5390637 V 0 H 1.5625007 V -3.9485696 H 0.1302084 v -0.791016 h 3.8606789 z"/>
      <path id="path235" style="font-weight:bold;font-size:6.66667px;font-family:Roboto, sans-serif;letter-spacing:2px;fill:#333333" d="M 8.3053413,-1.7350269 H 7.5273462 V 0 h -0.976563 v -4.7395856 h 1.7610685 q 0.8398442,0 1.2955736,0.3743491 0.4557297,0.3743492 0.4557297,1.0579433 0,0.4850262 -0.211589,0.8105472 -0.2083334,0.3222658 -0.6347659,0.5143232 l 1.0253909,1.93684986 V 0 H 9.1940136 Z M 7.5273462,-2.5260429 H 8.315107 q 0.3678387,0 0.5696617,-0.1855469 0.201823,-0.1888022 0.201823,-0.5175784 0,-0.3352866 -0.1920574,-0.527344 Q 8.7057321,-3.9485696 8.3118517,-3.9485696 H 7.5273462 Z"/>
      <path id="path237" style="font-weight:bold;font-size:6.66667px;font-family:Roboto, sans-serif;letter-spacing:2px;fill:#333333" d="m 13.847009,0 h -0.976563 v -4.7395856 h 0.976563 z"/>
      <path id="path239" style="font-weight:bold;font-size:6.66667px;font-family:Roboto, sans-serif;letter-spacing:2px;fill:#333333" d="m 20.498704,-0.59895862 q -0.263672,0.31575536 -0.745443,0.49153669 -0.481771,0.17252613 -1.067709,0.17252613 -0.615234,0 -1.080729,-0.26692721 -0.46224,-0.27018242 -0.716146,-0.78125038 -0.250652,-0.51106791 -0.257162,-1.20117241 v -0.3222658 q 0,-0.7096358 0.23763,-1.2272141 0.240886,-0.5208336 0.690105,-0.7942713 0.452474,-0.2766928 1.057943,-0.2766928 0.843099,0 1.31836,0.403646 0.475261,0.4003909 0.563151,1.1686204 h -0.950521 q -0.0651,-0.4069013 -0.289714,-0.5957034 -0.221354,-0.1888022 -0.611979,-0.1888022 -0.498047,0 -0.758464,0.3743491 -0.260417,0.3743492 -0.263672,1.1132818 v 0.3027345 q 0,0.7454431 0.283203,1.1263027 0.283204,0.38085952 0.830079,0.38085952 0.55013,0 0.784505,-0.23437512 v -0.8170577 h -0.888672 v -0.7194014 h 1.865235 z"/>
    </g>
  </g>
  <g transform="translate(5.5,55)" id="g52">
    <path d="M 0,0 H 34 V 10 H 0 Z" style="fill:#bbbbbb" transform="translate(0,-3)" id="rect44"/>
    <path d="m 5,0 h 24 c 2.77,0 5,2.23 5,5 v 28 c 0,2.77 -2.23,5 -5,5 H 5 C 2.23,38 0,35.77 0,33 V 5 C 0,2.23 2.23,0 5,0 Z" style="fill:#bbbbbb" id="rect46"/>
    <g transform="translate(2,2)" id="g50">
      <g style="font-weight:bold;font-size:6.66667px;font-family:Roboto, sans-serif;letter-spacing:2px;fill:#333333" id="text48" transform="translate(6.5,32)" aria-label="OUT">
        <path id="path224" style="font-weight:bold;font-size:6.66667px;font-family:Roboto, sans-serif;letter-spacing:2px;fill:#333333" d="m 4.3164083,-2.2623709 q 0,0.6998702 -0.2473959,1.2272142 -0.247396,0.52734396 -0.7096358,0.81380243 -0.4589846,0.28645847 -1.054688,0.28645847 -0.589193,0 -1.0514328,-0.28320326 Q 0.791016,-0.50130232 0.53710963,-1.0253911 0.28320326,-1.5527351 0.27994805,-2.2363292 v -0.2343751 q 0,-0.6998701 0.25065116,-1.2304693 0.25390637,-0.5338545 0.71289099,-0.8170577 0.4622398,-0.2864585 1.054688,-0.2864585 0.5924482,0 1.0514328,0.2864585 0.4622398,0.2832032 0.7128909,0.8170577 0.2539064,0.5305992 0.2539064,1.2272141 z M 3.3268245,-2.4772147 q 0,-0.7454431 -0.2669272,-1.1328131 -0.2669272,-0.3873699 -0.7617191,-0.3873699 -0.4915367,0 -0.7584639,0.3841147 -0.2669272,0.3808596 -0.2701824,1.1197922 v 0.2311199 q 0,0.7259118 0.2669272,1.1263026 0.2669272,0.40039087 0.7682295,0.40039087 0.4915367,0 0.7552087,-0.38411477 0.263672,-0.38737 0.2669272,-1.1263026 z"/>
        <path id="path226" style="font-weight:bold;font-size:6.66667px;font-family:Roboto, sans-serif;letter-spacing:2px;fill:#333333" d="m 10.619796,-4.7395856 v 3.1217463 q 0,0.77799515 -0.488282,1.23046932 -0.4850258,0.45247418 -1.3281252,0.45247418 -0.8300785,0 -1.31836,-0.43945334 Q 6.9967474,-0.81380247 6.9869817,-1.582032 v -3.1575536 h 0.976563 v 3.1282567 q 0,0.465495 0.2213543,0.68033887 0.2246095,0.21158865 0.6184898,0.21158865 0.8235681,0 0.836589,-0.86588582 v -3.1542984 z"/>
        <path id="path228" style="font-weight:bold;font-size:6.66667px;font-family:Roboto, sans-serif;letter-spacing:2px;fill:#333333" d="M 16.988288,-3.9485696 H 15.536464 V 0 h -0.976563 v -3.9485696 h -1.432292 v -0.791016 h 3.860679 z"/>
      </g>
    </g>
  </g>
  <g transform="translate(5.5,98)" id="g62">
    <path d="M 0,0 H 34 V 10 H 0 Z" style="fill:#fafafa" transform="translate(0,25)" id="rect56"/>
    <path d="m 5,0 h 24 c 2.77,0 5,2.23 5,5 v 23 c 0,2.77 -2.23,5 -5,5 H 5 C 2.23,33 0,30.77 0,28 V 5 C 0,2.23 2.23,0 5,0 Z" style="fill:#fafafa" id="rect58"/>
    <g style="font-weight:bold;font-size:6.66667px;font-family:Roboto, sans-serif;letter-spacing:2px;fill:#333333" id="text60" transform="translate(6.6,30)" aria-label="TRIG">
      <path id="path213" style="font-weight:bold;font-size:6.66667px;font-family:Roboto, sans-serif;letter-spacing:2px;fill:#333333" d="M 3.9908873,-3.9485696 H 2.5390637 V 0 H 1.5625007 V -3.9485696 H 0.1302084 v -0.791016 h 3.8606789 z"/>
      <path id="path215" style="font-weight:bold;font-size:6.66667px;font-family:Roboto, sans-serif;letter-spacing:2px;fill:#333333" d="M 8.3053413,-1.7350269 H 7.5273462 V 0 h -0.976563 v -4.7395856 h 1.7610685 q 0.8398442,0 1.2955736,0.3743491 0.4557297,0.3743492 0.4557297,1.0579433 0,0.4850262 -0.211589,0.8105472 -0.2083334,0.3222658 -0.6347659,0.5143232 l 1.0253909,1.93684986 V 0 H 9.1940136 Z M 7.5273462,-2.5260429 H 8.315107 q 0.3678387,0 0.5696617,-0.1855469 0.201823,-0.1888022 0.201823,-0.5175784 0,-0.3352866 -0.1920574,-0.527344 Q 8.7057321,-3.9485696 8.3118517,-3.9485696 H 7.5273462 Z"/>
      <path id="path217" style="font-weight:bold;font-size:6.66667px;font-family:Roboto, sans-serif;letter-spacing:2px;fill:#333333" d="m 13.847009,0 h -0.976563 v -4.7395856 h 0.976563 z"/>
      <path id="path219" style="font-weight:bold;font-size:6.66667px;font-family:Roboto, sans-serif;letter-spacing:2px;fill:#333333" d="m 20.498704,-0.59895862 q -0.263672,0.31575536 -0.745443,0.49153669 -0.481771,0.17252613 -1.067709,0.17252613 -0.615234,0 -1.080729,-0.26692721 -0.46224,-0.27018242 -0.716146,-0.78125038 -0.250652,-0.51106791 -0.257162,-1.20117241 v -0.3222658 q 0,-0.7096358 0.23763,-1.2272141 0.240886,-0.5208336 0.690105,-0.7942713 0.452474,-0.2766928 1.057943,-0.2766928 0.843099,0 1.31836,0.403646 0.475261,0.4003909 0.563151,1.1686204 h -0.950521 q -0.0651,-0.4069013 -0.289714,-0.5957034 -0.221354,-0.1888022 -0.611979,-0.1888022 -0.498047,0 -0.758464,0.3743491 -0.260417,0.3743492 -0.263672,1.1132818 v 0.3027345 q 0,0.7454431 0.283203,1.1263027 0.283204,0.38085952 0.830079,0.38085952 0.55013,0 0.784505,-0.23437512 v -0.8170577 h -0.888672 v -0.7194014 h 1.865235 z"/>
    </g>
  </g>
  <g transform="translate(5.5,135)" id="g72">
    <path d="M 0,0 H 34 V 10 H 0 Z" style="fill:#bbbbbb" transform="translate(0,-3)" id="rect64"/>
    <path d="m 5,0 h 24 c 2.77,0 5,2.23 5,5 v 28 c 0,2.77 -2.23,5 -5,5 H 5 C 2.23,38 0,35.77 0,33 V 5 C 0,2.23 2.23,0 5,0 Z" style="fill:#bbbbbb" id="rect66"/>
    <g transform="translate(2,2)" id="g70">
      <g style="font-weight:bold;font-size:6.66667px;font-family:Roboto, sans-serif;letter-spacing:2px;fill:#333333" id="text68" transform="translate(6.5,32)" aria-label="OUT">
        <path id="path204" style="font-weight:bold;font-size:6.66667px;font-family:Roboto, sans-serif;letter-spacing:2px;fill:#333333" d="m 4.3164083,-2.2623709 q 0,0.6998702 -0.2473959,1.2272142 -0.247396,0.52734396 -0.7096358,0.81380243 -0.4589846,0.28645847 -1.054688,0.28645847 -0.589193,0 -1.0514328,-0.28320326 Q 0.791016,-0.50130232 0.53710963,-1.0253911 0.28320326,-1.5527351 0.27994805,-2.2363292 v -0.2343751 q 0,-0.6998701 0.25065116,-1.2304693 0.25390637,-0.5338545 0.71289099,-0.8170577 0.4622398,-0.2864585 1.054688,-0.2864585 0.5924482,0 1.0514328,0.2864585 0.4622398,0.2832032 0.7128909,0.8170577 0.2539064,0.5305992 0.2539064,1.2272141 z M 3.3268245,-2.4772147 q 0,-0.7454431 -0.2669272,-1.1328131 -0.2669272,-0.3873699 -0.7617191,-0.3873699 -0.4915367,0 -0.7584639,0.3841147 -0.2669272,0.3808596 -0.2701824,1.1197922 v 0.2311199 q 0,0.7259118 0.2669272,1.1263026 0.2669272,0.40039087 0.7682295,0.40039087 0.4915367,0 0.7552087,-0.38411477 0.263672,-0.38737 0.2669272,-1.1263026 z"/>
        <path id="path206" style="font-weight:bold;font-size:6.66667px;font-family:Roboto, sans-serif;letter-spacing:2px;fill:#333333" d="m 10.619796,-4.7395856 v 3.1217463 q 0,0.77799515 -0.488282,1.23046932 -0.4850258,0.45247418 -1.3281252,0.45247418 -0.8300785,0 -1.31836,-0.43945334 Q 6.9967474,-0.81380247 6.9869817,-1.582032 v -3.1575536 h 0.976563 v 3.1282567 q 0,0.465495 0.2213543,0.68033887 0.2246095,0.21158865 0.6184898,0.21158865 0.8235681,0 0.836589,-0.86588582 v -3.1542984 z"/>
        <path id="path208" style="font-weight:bold;font-size:6.66667px;font-family:Roboto, sans-serif;letter-spacing:2px;fill:#333333" d="M 16.988288,-3.9485696 H 15.536464 V 0 h -0.976563 v -3.9485696 h -1.432292 v -0.791016 h 3.860679 z"/>
      </g>
    </g>
  </g>
  <g transform="translate(5.5,178)" id="g82">
    <path d="M 0,0 H 34 V 10 H 0 Z" style="fill:#fafafa" transform="translate(0,25)" id="rect76"/>
    <path d="m 5,0 h 24 c 2.77,0 5,2.23 5,5 v 23 c 0,2.77 -2.23,5 -5,5 H 5 C 2.23,33 0,30.77 0,28 V 5 C 0,2.23 2.23,0 5,0 Z" style="fill:#fafafa" id="rect78"/>
    <g style="font-weight:bold;font-size:6.66667px;font-family:Roboto, sans-serif;letter-spacing:2px;fill:#333333" id="text80" transform="translate(6.6,30)" aria-label="TRIG">
      <path id="path193" style="font-weight:bold;font-size:6.66667px;font-family:Roboto, sans-serif;letter-spacing:2px;fill:#333333" d="M 3.9908873,-3.9485696 H 2.5390637 V 0 H 1.5625007 V -3.9485696 H 0.1302084 v -0.791016 h 3.8606789 z"/>
      <path id="path195" style="font-weight:bold;font-size:6.66667px;font-family:Roboto, sans-serif;letter-spacing:2px;fill:#333333" d="M 8.3053413,-1.7350269 H 7.5273462 V 0 h -0.976563 v -4.7395856 h 1.7610685 q 0.8398442,0 1.2955736,0.3743491 0.4557297,0.3743492 0.4557297,1.0579433 0,0.4850262 -0.211589,0.8105472 -0.2083334,0.3222658 -0.6347659,0.5143232 l 1.0253909,1.93684986 V 0 H 9.1940136 Z M 7.5273462,-2.5260429 H 8.315107 q 0.3678387,0 0.5696617,-0.1855469 0.201823,-0.1888022 0.201823,-0.5175784 0,-0.3352866 -0.1920574,-0.527344 Q 8.7057321,-3.9485696 8.3118517,-3.9485696 H 7.5273462 Z"/>
      <path id="path197" style="font-weight:bold;font-size:6.66667px;font-family:Roboto, sans-serif;letter-spacing:2px;fill:#333333" d="m 13.847009,0 h -0.976563 v -4.7395856 h 0.976563 z"/>
      <path id="path199" style="font-weight:bold;font-size:6.66667px;font-family:Roboto, sans-serif;letter-spacing:2px;fill:#333333" d="m 20.498704,-0.59895862 q -0.263672,0.31575536 -0.745443,0.49153669 -0.481771,0.17252613 -1.067709,0.17252613 -0.615234,0 -1.080729,-0.26692721 -0.46224,-0.27018242 -0.716146,-0.78125038 -0.250652,-0.51106791 -0.257162,-1.20117241 v -0.3222658 q 0,-0.7096358 0.23763,-1.2272141 0.240886,-0.5208336 0.690105,-0.7942713 0.452474,-0.2766928 1.057943,-0.2766928 0.843099,0 1.31836,0.403646 0.475261,0.4003909 0.563151,1.1686204 h -0.950521 q -0.0651,-0.4069013 -0.289714,-0.5957034 -0.221354,-0.1888022 -0.611979,-0.1888022 -0.498047,0 -0.758464,0.3743491 -0.260417,0.3743492 -0.263672,1.1132818 v 0.3027345 q 0,0.7454431 0.283203,1.1263027 0.283204,0.38085952 0.830079,0.38085952 0.55013,0 0.784505,-0.23437512 v -0.8170577 h -0.888672 v -0.7194014 h 1.865235 z"/>
    </g>
  </g>
  <g transform="translate(5.5,215)" id="g92">
    <path d="M 0,0 H 34 V 10 H 0 Z" style="fill:#bbbbbb" transform="translate(0,-3)" id="rect84"/>
    <path d="m 5,0 h 24 c 2.77,0 5,2.23 5,5 v 28 c 0,2.77 -2.23,5 -5,5 H 5 C 2.23,38 0,35.77 0,33 V 5 C 0,2.23 2.23,0 5,0 Z" style="fill:#bbbbbb" id="rect86"/>
    <g transform="translate(2,2)" id="g90">
      <g style="font-weight:bold;font-size:6.66667px;font-family:Roboto, sans-serif;letter-spacing:2px;fill:#333333" id="text88" transform="translate(6.5,32)" aria-label="OUT">
        <path id="path184" style="font-weight:bold;font-size:6.66667px;font-family:Roboto, sans-serif;letter-spacing:2px;fill:#333333" d="m 4.3164083,-2.2623709 q 0,0.6998702 -0.2473959,1.2272142 -0.247396,0.52734396 -0.7096358,0.81380243 -0.4589846,0.28645847 -1.054688,0.28645847 -0.589193,0 -1.0514328,-0.28320326 Q 0.791016,-0.50130232 0.53710963,-1.0253911 0.28320326,-1.5527351 0.27994805,-2.2363292 v -0.2343751 q 0,-0.6998701 0.25065116,-1.2304693 0.25390637,-0.5338545 0.71289099,-0.8170577 0.4622398,-0.2864585 1.054688,-0.2864585 0.5924482,0 1.0514328,0.2864585 0.4622398,0.2832032 0.7128909,0.8170577 0.2539064,0.5305992 0.2539064,1.2272141 z M 3.3268245,-2.4772147 q 0,-0.7454431 -0.2669272,-1.1328131 -0.2669272,-0.3873699 -0.7617191,-0.3873699 -0.4915367,0 -0.7584639,0.3841147 -0.2669272,0.3808596 -0.2701824,1.1197922 v 0.2311199 q 0,0.7259118 0.2669272,1.1263026 0.2669272,0.40039087 0.7682295,0.40039087 0.4915367,0 0.7552087,-0.38411477 0.263672,-0.38737 0.2669272,-1.1263026 z"/>
        <path id="path186" style="font-weight:bold;font-size:6.66667px;font-family:Roboto, sans-serif;letter-spacing:2px;fill:#333333" d="m 10.619796,-4.7395856 v 3.1217463 q 0,0.77799515 -0.488282,1.23046932 -0.4850258,0.45247418 -1.3281252,0.45247418 -0.8300785,0 -1.31836,-0.43945334 Q 6.9967474,-0.81380247 6.9869817,-1.582032 v -3.1575536 h 0.976563 v 3.1282567 q 0,0.465495 0.2213543,0.68033887 0.2246095,0.21158865 0.6184898,0.21158865 0.8235681,0 0.836589,-0.86588582 v -3.1542984 z"/>
        <path id="path188" style="font-weight:bold;font-size:6.66667px;font-family:Roboto, sans-serif;letter-spacing:2px;fill:#333333" d="M 16.988288,-3.9485696 H 15.536464 V 0 h -0.976563 v -3.9485696 h -1.432292 v -0.791016 h 3.860679 z"/>
      </g>
    </g>
  </g>
  <g transform="translate(5.5,258)" id="g102">
    <path d="M 0,0 H 34 V 10 H 0 Z" style="fill:#fafafa" transform="translate(0,25)" id="rect96"/>
    <path d="m 5,0 h 24 c 2.77,0 5,2.23 5,5 v 23 c 0,2.77 -2.23,5 -5,5 H 5 C 2.23,33 0,30.77 0,28 V 5 C 0,2.23 2.23,0 5,0 Z" style="fill:#fafafa" id="rect98"/>
    <g style="font-weight:bold;font-size:6.66667px;font-family:Roboto, sans-serif;letter-spacing:2px;fill:#333333" id="text100" transform="translate(6.6,30)" aria-label="TRIG">
      <path id="path173" style="font-weight:bold;font-size:6.66667px;font-family:Roboto, sans-serif;letter-spacing:2px;fill:#333333" d="M 3.9908873,-3.9485696 H 2.5390637 V 0 H 1.5625007 V -3.9485696 H 0.1302084 v -0.791016 h 3.8606789 z"/>
      <path id="path175" style="font-weight:bold;font-size:6.66667px;font-family:Roboto, sans-serif;letter-spacing:2px;fill:#333333" d="M 8.3053413,-1.7350269 H 7.5273462 V 0 h -0.976563 v -4.7395856 h 1.7610685 q 0.8398442,0 1.2955736,0.3743491 0.4557297,0.3743492 0.4557297,1.0579433 0,0.4850262 -0.211589,0.8105472 -0.2083334,0.3222658 -0.6347659,0.5143232 l 1.0253909,1.93684986 V 0 H 9.1940136 Z M 7.5273462,-2.5260429 H 8.315107 q 0.3678387,0 0.5696617,-0.1855469 0.201823,-0.1888022 0.201823,-0.5175784 0,-0.3352866 -0.1920574,-0.527344 Q 8.7057321,-3.9485696 8.3118517,-3.9485696 H 7.5273462 Z"/>
      <path id="path177" style="font-weight:bold;font-size:6.66667px;font-family:Roboto, sans-serif;letter-spacing:2px;fill:#333333" d="m 13.847009,0 h -0.976563 v -4.7395856 h 0.976563 z"/>
      <path id="path179" style="font-weight:bold;font-size:6.66667px;font-family:Roboto, sans-serif;letter-spacing:2px;fill:#333333" d="m 20.498704,-0.59895862 q -0.263672,0.31575536 -0.745443,0.49153669 -0.481771,0.17252613 -1.067709,0.17252613 -0.615234,0 -1.080729,-0.26692721 -0.46224,-0.27018242 -0.716146,-0.78125038 -0.250652,-0.51106791 -0.257162,-1.20117241 v -0.3222658 q 0,-0.7096358 0.23763,-1.2272141 0.240886,-0.5208336 0.690105,-0.7942713 0.452474,-0.2766928 1.057943,-0.2766928 0.843099,0 1.31836,0.403646 0.475261,0.4003909 0.563151,1.1686204 h -0.950521 q -0.0651,-0.4069013 -0.289714,-0.5957034 -0.221354,-0.1888022 -0.611979,-0.1888022 -0.498047,0 -0.758464,0.3743491 -0.260417,0.3743492 -0.263672,1.1132818 v 0.3027345 q 0,0.7454431 0.283203,1.1263027 0.283204,0.38085952 0.830079,0.38085952 0.55013,0 0.784505,-0.23437512 v -0.8170577 h -0.888672 v -0.7194014 h 1.865235 z"/>
    </g>
  </g>
  <g transform="translate(5.5,295)" id="g112">
    <path d="M 0,0 H 34 V 10 H 0 Z" style="fill:#bbbbbb" transform="translate(0,-3)" id="rect104"/>
    <path d="m 5,0 h 24 c 2.77,0 5,2.23 5,5 v 28 c 0,2.77 -2.23,5 -5,5 H 5 C 2.23,38 0,35.77 0,33 V 5 C 0,2.23 2.23,0 5,0 Z" style="fill:#bbbbbb" id="rect106"/>
    <g transform="translate(2,2)" id="g110">
      <g style="font-weight:bold;font-size:6.66667px;font-family:Roboto, sans-serif;letter-spacing:2px;fill:#333333" id="text108" transform="translate(6.5,32)" aria-label="OUT">
        <path id="path164" style="font-weight:bold;font-size:6.66667px;font-family:Roboto, sans-serif;letter-spacing:2px;fill:#333333" d="m 4.3164083,-2.2623709 q 0,0.6998702 -0.2473959,1.2272142 -0.247396,0.52734396 -0.7096358,0.81380243 -0.4589846,0.28645847 -1.054688,0.28645847 -0.589193,0 -1.0514328,-0.28320326 Q 0.791016,-0.50130232 0.53710963,-1.0253911 0.28320326,-1.5527351 0.27994805,-2.2363292 v -0.2343751 q 0,-0.6998701 0.25065116,-1.2304693 0.25390637,-0.5338545 0.71289099,-0.8170577 0.4622398,-0.2864585 1.054688,-0.2864585 0.5924482,0 1.0514328,0.2864585 0.4622398,0.2832032 0.7128909,0.8170577 0.2539064,0.5305992 0.2539064,1.2272141 z M 3.3268245,-2.4772147 q 0,-0.7454431 -0.2669272,-1.1328131 -0.2669272,-0.3873699 -0.7617191,-0.3873699 -0.4915367,0 -0.7584639,0.3841147 -0.2669272,0.3808596 -0.2701824,1.1197922 v 0.2311199 q 0,0.7259118 0.2669272,1.1263026 0.2669272,0.40039087 0.7682295,0.40039087 0.4915367,0 0.7552087,-0.38411477 0.263672,-0.38737 0.2669272,-1.1263026 z"/>
        <path id="path166" style="font-weight:bold;font-size:6.66667px;font-family:Roboto, sans-serif;letter-spacing:2px;fill:#333333" d="m 10.619796,-4.7395856 v 3.1217463 q 0,0.77799515 -0.488282,1.23046932 -0.4850258,0.45247418 -1.3281252,0.45247418 -0.8300785,0 -1.31836,-0.43945334 Q 6.9967474,-0.81380247 6.9869817,-1.582032 v -3.1575536 h 0.976563 v 3.1282567 q 0,0.465495 0.2213543,0.68033887 0.2246095,0.21158865 0.6184898,0.21158865 0.8235681,0 0.836589,-0.86588582 v -3.1542984 z"/>
        <path id="path168" style="font-weight:bold;font-size:6.66667px;font-family:Roboto, sans-serif;letter-spacing:2px;fill:#333333" d="M 16.988288,-3.9485696 H 15.536464 V 0 h -0.976563 v -3.9485696 h -1.432292 v -0.791016 h 3.860679 z"/>
      </g>
    </g>
  </g>
</svg>
