<?xml version="1.0" encoding="UTF-8" standalone="no"?>
<svg xmlns:dc="http://purl.org/dc/elements/1.1/" xmlns:cc="http://creativecommons.org/ns#" xmlns:rdf="http://www.w3.org/1999/02/22-rdf-syntax-ns#" xmlns:svg="http://www.w3.org/2000/svg" xmlns="http://www.w3.org/2000/svg" xmlns:sodipodi="http://sodipodi.sourceforge.net/DTD/sodipodi-0.dtd" xmlns:inkscape="http://www.inkscape.org/namespaces/inkscape" inkscape:version="1.0 (4035a4f, 2020-05-01)" sodipodi:docname="svg_render_Inv-pp.svg" id="svg35510" viewBox="0 0 45 380" height="380" width="45" version="1.1">
  <metadata id="metadata35516">
    <rdf:RDF>
      <cc:Work rdf:about="">
        <dc:format>image/svg+xml</dc:format>
        <dc:type rdf:resource="http://purl.org/dc/dcmitype/StillImage"/>
      </cc:Work>
    </rdf:RDF>
  </metadata>
  <defs id="defs35514"/>
  <sodipodi:namedview inkscape:current-layer="svg35510" inkscape:window-maximized="0" inkscape:window-y="23" inkscape:window-x="0" inkscape:cy="190" inkscape:cx="22.5" inkscape:zoom="1.7605263" showgrid="false" id="namedview35512" inkscape:window-height="480" inkscape:window-width="689" inkscape:pageshadow="2" inkscape:pageopacity="0" guidetolerance="10" gridtolerance="10" objecttolerance="10" borderopacity="1" bordercolor="#666666" pagecolor="#ffffff"/>
  
  <path class="module-background background-fill" d="M 0,0 H 45 V 380 H 0 Z" style="fill:#dddddd" id="rect35420"/>
  <path class="module-border-inner" d="M 1,1 H 44 V 379 H 1 V 1" style="fill:none;stroke:#e4e4e4;stroke-width:0.5" id="polyline35422"/>
  <path class="module-border-middle" d="m 0.5,0.5 h 44 v 379 H 0.5 V 0.5" style="fill:none;stroke:#ebebeb;stroke-width:0.8" id="polyline35424"/>
  <path class="module-border-outer" d="M 0,0 H 45 V 380 H 0 V 0" style="fill:none;stroke:#f2f2f2;stroke-width:1" id="polyline35426"/>
  <g class="title" style="font-weight:normal;font-size:9.33333px;font-family:Comfortaa, sans-serif;letter-spacing:2.5px;fill:#333333" id="text35428" transform="rotate(-90)" aria-label="INV">
    <path id="path35636" style="font-weight:normal;font-size:9.33333px;font-family:Comfortaa, sans-serif;letter-spacing:2.5px;fill:#333333" d="m -374.70267,13 q -0.14933,0 -0.26133,-0.102667 -0.10267,-0.112 -0.10267,-0.261333 V 6.074669 q 0,-0.1586666 0.10267,-0.2613332 0.112,-0.1026667 0.26133,-0.1026667 0.15867,0 0.26134,0.1026667 0.10266,0.1026666 0.10266,0.2613332 V 12.636 q 0,0.149333 -0.10266,0.261333 Q -374.544,13 -374.70267,13 Z"/>
    <path id="path35638" style="font-weight:normal;font-size:9.33333px;font-family:Comfortaa, sans-serif;letter-spacing:2.5px;fill:#333333" d="m -369.61413,13 q -0.15866,0 -0.26133,-0.102667 -0.10267,-0.102666 -0.10267,-0.261333 V 6.074669 q 0,-0.1586666 0.10267,-0.2613332 0.10267,-0.1026667 0.26133,-0.1026667 0.168,0 0.28,0.1306667 l 4.46134,5.8613312 V 6.074669 q 0,-0.1586666 0.10266,-0.2613332 0.112,-0.1026667 0.26134,-0.1026667 0.15866,0 0.26133,0.1026667 0.10267,0.1026666 0.10267,0.2613332 V 12.636 q 0,0.149333 -0.10267,0.261333 Q -364.35013,13 -364.50879,13 q -0.18667,0 -0.27067,-0.121333 l -4.47067,-5.8613316 V 12.636 q 0,0.149333 -0.10266,0.261333 Q -369.45546,13 -369.61413,13 Z"/>
    <path id="path35640" style="font-weight:normal;font-size:9.33333px;font-family:Comfortaa, sans-serif;letter-spacing:2.5px;fill:#333333" d="m -354.54009,5.7106691 q 0.14933,0 0.23333,0.093333 0.0933,0.093333 0.0933,0.2333332 0,0.093333 -0.0467,0.2053333 l -2.78133,6.523998 Q -357.14409,13 -357.36809,13 q -0.12133,0 -0.20533,-0.04667 -0.0747,-0.056 -0.13067,-0.186666 l -2.772,-6.4866647 q -0.056,-0.14 -0.056,-0.2426666 0,-0.1493333 0.0933,-0.2333332 0.10266,-0.093333 0.26133,-0.093333 0.24267,0 0.336,0.2333333 l 2.47333,5.9173316 2.464,-5.8986649 q 0.056,-0.14 0.14,-0.196 0.084,-0.056 0.224,-0.056 z"/>
  </g>
  <g transform="rotate(-90,200.5,175.5)" id="g35434">
    <g class="brand" style="font-weight:bold;font-size:9.33333px;font-family:Audiowide, sans-serif;letter-spacing:2px;fill:#333333" id="text35430" aria-label="BGA">
      <path id="path35628" style="font-weight:bold;font-size:9.33333px;font-family:Audiowide, sans-serif;letter-spacing:2px;fill:#333333" d="m 7.209633,-1.4355464 q 0,0.2187499 -0.077474,0.4694009 -0.072917,0.25065095 -0.2460936,0.46484359 Q 6.7174456,-0.28710928 6.4440082,-0.14127599 6.1705708,0 5.7740866,0 H 1.2760412 Q 1.1484371,0 1.0390621,-0.0455729 0.92968718,-0.0911458 0.84765596,-0.16861973 0.77018203,-0.25065096 0.72460913,-0.36002592 0.67903623,-0.46940088 0.67903623,-0.597005 v -5.341144 q 0,-0.1230469 0.0455729,-0.2324218 0.0455729,-0.109375 0.12304683,-0.1914062 0.0820312,-0.082031 0.19140614,-0.1276041 0.109375,-0.045573 0.2369791,-0.045573 h 3.9648424 q 0.21875,0 0.4694009,0.077474 0.250651,0.077474 0.4648436,0.250651 0.2187499,0.1686197 0.3600259,0.4420571 0.1458333,0.2734374 0.1458333,0.6699217 v 0.2233072 q 0,0.314453 -0.1048177,0.6790362 -0.1048176,0.3600259 -0.3372394,0.6835935 0.2005207,0.1230468 0.3736978,0.2962239 0.1777343,0.173177 0.3098957,0.4010415 0.1321614,0.2278645 0.2096353,0.5149738 0.077474,0.2871093 0.077474,0.6334633 z M 6.0247375,-1.6634109 q 0,-0.2324218 -0.072917,-0.4147134 Q 5.8789042,-2.2649732 5.7467428,-2.3971346 5.6145814,-2.529296 5.4277325,-2.5976554 5.2408836,-2.670572 5.0084618,-2.670572 h -2.670572 v -1.19401 h 2.1373691 q 0.2324218,0 0.4192707,-0.068359 0.1868489,-0.072917 0.3190103,-0.205078 0.1321614,-0.1321614 0.2005208,-0.314453 0.072917,-0.1868489 0.072917,-0.4192707 v -0.2233072 q 0,-0.2552083 -0.2460937,-0.2552083 H 1.8639317 v 4.1653632 h 3.9101549 q 0.031901,0 0.077474,-0.00456 0.045573,-0.00456 0.082031,-0.027344 0.036458,-0.022786 0.063802,-0.077474 0.027344,-0.054687 0.027344,-0.1503906 z"/>
      <path id="path35630" style="font-weight:bold;font-size:9.33333px;font-family:Audiowide, sans-serif;letter-spacing:2px;fill:#333333" d="m 16.683589,-0.597005 q 0,0.12760412 -0.04557,0.23697908 -0.04557,0.10937496 -0.127605,0.19140619 -0.07747,0.07747393 -0.186849,0.12304683 Q 16.214189,0 16.086584,0 h -4.274738 q -0.164062,0 -0.355468,-0.03645832 -0.186849,-0.04101561 -0.373698,-0.12304683 -0.182292,-0.0820312 -0.350911,-0.20963535 -0.16862,-0.13216141 -0.300782,-0.31445302 -0.127604,-0.18684889 -0.205078,-0.42838528 -0.07747,-0.2460937 -0.07747,-0.5514321 v -3.2083322 q 0,-0.1640625 0.03646,-0.3509114 0.04101,-0.1914062 0.123047,-0.3736978 0.08203,-0.1868489 0.214192,-0.3554686 0.132162,-0.1686197 0.314453,-0.2962238 0.186849,-0.1321615 0.428385,-0.2096354 0.241537,-0.077474 0.546875,-0.077474 h 4.817056 v 1.1848954 h -4.817056 q -0.232422,0 -0.355468,0.1230468 -0.123047,0.1230469 -0.123047,0.3645832 v 3.1992177 q 0,0.2278645 0.123047,0.3554686 0.127604,0.1230469 0.355468,0.1230469 h 3.686848 V -2.670572 h -3.153645 v -1.19401 h 3.741535 q 0.127605,0 0.236979,0.05013 0.109375,0.045573 0.186849,0.1276041 0.08203,0.082031 0.127605,0.1914062 0.04557,0.1048177 0.04557,0.2278645 z"/>
      <path id="path35632" style="font-weight:bold;font-size:9.33333px;font-family:Audiowide, sans-serif;letter-spacing:2px;fill:#333333" d="M 26.339836,0 H 25.154941 V -1.6041661 H 20.989578 V 0 h -1.184896 v -3.267577 q 0,-0.7154946 0.246094,-1.3170569 0.246094,-0.6015623 0.683593,-1.0345048 0.4375,-0.4329426 1.034505,-0.6744789 0.597005,-0.2415364 1.303385,-0.2415364 h 2.670572 q 0.123047,0 0.232422,0.045573 0.109375,0.045573 0.191406,0.1276041 0.08203,0.082031 0.127604,0.1914062 0.04557,0.1093749 0.04557,0.2324218 z m -5.350258,-2.7890616 h 4.165363 v -2.561197 h -2.082682 q -0.05469,0 -0.232422,0.018229 -0.173177,0.013672 -0.405598,0.077474 -0.227865,0.063802 -0.483073,0.1959635 -0.255208,0.1321614 -0.469401,0.3645832 -0.214193,0.2324218 -0.355469,0.5833331 -0.136718,0.3463541 -0.136718,0.8430987 z"/>
    </g>
    <path class="background-fill" d="M 0,0 H 3 V 3 H 0 Z" style="fill:#dddddd" transform="translate(11.5,-5)" id="rect35432"/>
  </g>
  <g class="io-group" transform="translate(5.5,18)" id="g35456">
    <path class="input-background" d="m 5,0 h 24 c 2.77,0 5,2.23 5,5 v 103 c 0,2.77 -2.23,5 -5,5 H 5 c -2.77,0 -5,-2.23 -5,-5 V 5 C 0,2.23 2.23,0 5,0 Z" style="fill:#fafafa" id="rect35438"/>
    <path class="input-background-filler" d="M 0,0 H 34 V 10 H 0 Z" style="fill:#fafafa" transform="translate(0,103)" id="rect35440"/>
    <g transform="translate(8,4)" id="g35442"/>
    <g transform="translate(5,26)" id="g35444"/>
    <g class="input-label" style="font-weight:bold;font-size:6.66667px;font-family:Roboto, sans-serif;letter-spacing:2px;fill:#333333" id="text35446" transform="translate(5,58)" aria-label="GATE">
      <path id="path35603" style="font-weight:bold;font-size:6.66667px;font-family:Roboto, sans-serif;letter-spacing:2px;fill:#333333" d="M 4.1731791,-0.59895862 Q 3.9095071,-0.28320326 3.427736,-0.10742193 2.9459649,0.0651042 2.3600272,0.0651042 q -0.6152347,0 -1.0807297,-0.26692721 Q 0.81705768,-0.47200543 0.56315131,-0.98307339 0.31250015,-1.4941413 0.30598973,-2.1842458 v -0.3222658 q 0,-0.7096358 0.23763032,-1.2272141 0.24088553,-0.5208336 0.69010445,-0.7942713 0.4524742,-0.2766928 1.0579433,-0.2766928 0.8430993,0 1.31836,0.403646 0.4752606,0.4003909 0.5631513,1.1686204 H 3.2226578 Q 3.1575536,-3.6393247 2.9329441,-3.8281268 2.7115898,-4.016929 2.3209646,-4.016929 q -0.4980471,0 -0.7584639,0.3743491 -0.2604167,0.3743492 -0.263672,1.1132818 v 0.3027345 q 0,0.7454431 0.2832033,1.1263027 0.2832033,0.38085952 0.8300785,0.38085952 0.5501305,0 0.7845056,-0.23437512 V -1.7708342 H 2.3079438 v -0.7194014 h 1.8652353 z"/>
      <path id="path35605" style="font-weight:bold;font-size:6.66667px;font-family:Roboto, sans-serif;letter-spacing:2px;fill:#333333" d="M 9.6432327,-0.97656297 H 7.9309923 L 7.6054713,0 H 6.5670594 L 8.3313831,-4.7395856 H 9.2363315 L 11.010421,0 H 9.9720089 Z M 8.1946643,-1.767579 H 9.3795607 L 8.7838573,-3.5416684 Z"/>
      <path id="path35607" style="font-weight:bold;font-size:6.66667px;font-family:Roboto, sans-serif;letter-spacing:2px;fill:#333333" d="M 16.636725,-3.9485696 H 15.184901 V 0 h -0.976562 v -3.9485696 h -1.432293 v -0.791016 h 3.860679 z"/>
      <path id="path35609" style="font-weight:bold;font-size:6.66667px;font-family:Roboto, sans-serif;letter-spacing:2px;fill:#333333" d="m 22.048184,-2.0540374 h -1.875001 v 1.26953182 h 2.200522 V 0 h -3.177084 v -4.7395856 h 3.170574 v 0.791016 h -2.194012 v 1.1295578 h 1.875001 z"/>
    </g>
    <g class="input-label" style="font-weight:bold;font-size:6.66667px;font-family:Roboto, sans-serif;letter-spacing:0.3px;fill:#333333" id="text35448" transform="translate(1,71)" aria-label="LATCH">
      <path id="path35612" style="font-weight:bold;font-size:6.66667px;font-family:Roboto, sans-serif;letter-spacing:0.3px;fill:#333333" d="M 1.3997403,-0.78450558 H 3.4733089 V 0 H 0.42317729 V -4.7395856 H 1.3997403 Z"/>
      <path id="path35614" style="font-weight:bold;font-size:6.66667px;font-family:Roboto, sans-serif;letter-spacing:0.3px;fill:#333333" d="M 7.0708364,-0.97656297 H 5.358596 L 5.033075,0 H 3.9946631 L 5.7589868,-4.7395856 H 6.6639352 L 8.4380246,0 H 7.3996126 Z M 5.622268,-1.767579 H 6.8071644 L 6.211461,-3.5416684 Z"/>
      <path id="path35616" style="font-weight:bold;font-size:6.66667px;font-family:Roboto, sans-serif;letter-spacing:0.3px;fill:#333333" d="M 12.364328,-3.9485696 H 10.912504 V 0 H 9.9359415 V -3.9485696 H 8.5036491 v -0.791016 h 3.8606789 z"/>
      <path id="path35618" style="font-weight:bold;font-size:6.66667px;font-family:Roboto, sans-serif;letter-spacing:0.3px;fill:#333333" d="m 16.853784,-1.5787768 q -0.05534,0.76497433 -0.566407,1.20442766 -0.507812,0.43945334 -1.341146,0.43945334 -0.911459,0 -1.435548,-0.61197946 Q 12.98985,-1.1621099 12.98985,-2.233074 v -0.2897137 q 0,-0.683594 0.240885,-1.2044276 0.240886,-0.5208336 0.68685,-0.7975264 0.449219,-0.2799481 1.041667,-0.2799481 0.820313,0 1.321615,0.4394533 0.501302,0.4394534 0.579427,1.2337246 h -0.976563 q -0.03581,-0.4589846 -0.257161,-0.6640628 -0.218099,-0.2083335 -0.667318,-0.2083335 -0.488282,0 -0.732422,0.3515627 -0.240886,0.3483075 -0.247396,1.0839849 v 0.3580731 q 0,0.7682295 0.23112,1.1230474 0.234375,0.35481788 0.735677,0.35481788 0.452474,0 0.673828,-0.20507823 0.22461,-0.20833345 0.257162,-0.64127635 z"/>
      <path id="path35620" style="font-weight:bold;font-size:6.66667px;font-family:Roboto, sans-serif;letter-spacing:0.3px;fill:#333333" d="M 21.652484,0 H 20.675921 V -2.031251 H 18.771624 V 0 h -0.976563 v -4.7395856 h 0.976563 v 1.9205738 h 1.904297 v -1.9205738 h 0.976563 z"/>
    </g>
    <g transform="translate(24,64)" id="g35450"/>
    <g transform="translate(5,78)" id="g35452"/>
    <g class="input-label" style="font-weight:bold;font-size:6.66667px;font-family:Roboto, sans-serif;letter-spacing:1px;fill:#333333" id="text35454" transform="translate(13,110)" aria-label="IN">
      <path id="path35623" style="font-weight:bold;font-size:6.66667px;font-family:Roboto, sans-serif;letter-spacing:1px;fill:#333333" d="M 1.4615892,0 H 0.48502627 V -4.7395856 H 1.4615892 Z"/>
      <path id="path35625" style="font-weight:bold;font-size:6.66667px;font-family:Roboto, sans-serif;letter-spacing:1px;fill:#333333" d="M 7.2174508,0 H 6.2408878 L 4.3398452,-3.1184911 V 0 h -0.976563 v -4.7395856 h 0.976563 l 1.9042978,3.1250015 v -3.1250015 h 0.9733078 z"/>
    </g>
  </g>
  <g class="io-group" transform="translate(5.5,131)" id="g35470">
    <path class="output-background-filler" d="M 0,0 H 34 V 10 H 0 Z" style="fill:#bbbbbb" id="rect35458"/>
    <path class="output-background" d="m 5,0 h 24 c 2.77,0 5,2.23 5,5 v 29 c 0,2.77 -2.23,5 -5,5 H 5 C 2.23,39 0,36.77 0,34 V 5 C 0,2.23 2.23,0 5,0 Z" style="fill:#bbbbbb" id="rect35460"/>
    <g transform="translate(5,3)" id="g35462"/>
    <g class="output-label" style="font-weight:bold;font-size:6.66667px;font-family:Roboto, sans-serif;letter-spacing:1px;fill:#333333" id="text35464" transform="translate(14,35)" aria-label="OUT">
      <path id="path35594" style="font-weight:bold;font-size:6.66667px;font-family:Roboto, sans-serif;letter-spacing:1px;fill:#333333" d="m 4.3164083,-2.2623709 q 0,0.6998702 -0.2473959,1.2272142 -0.247396,0.52734396 -0.7096358,0.81380243 -0.4589846,0.28645847 -1.054688,0.28645847 -0.589193,0 -1.0514328,-0.28320326 Q 0.791016,-0.50130232 0.53710963,-1.0253911 0.28320326,-1.5527351 0.27994805,-2.2363292 v -0.2343751 q 0,-0.6998701 0.25065116,-1.2304693 0.25390637,-0.5338545 0.71289099,-0.8170577 0.4622398,-0.2864585 1.054688,-0.2864585 0.5924482,0 1.0514328,0.2864585 0.4622398,0.2832032 0.7128909,0.8170577 0.2539064,0.5305992 0.2539064,1.2272141 z M 3.3268245,-2.4772147 q 0,-0.7454431 -0.2669272,-1.1328131 -0.2669272,-0.3873699 -0.7617191,-0.3873699 -0.4915367,0 -0.7584639,0.3841147 -0.2669272,0.3808596 -0.2701824,1.1197922 v 0.2311199 q 0,0.7259118 0.2669272,1.1263026 0.2669272,0.40039087 0.7682295,0.40039087 0.4915367,0 0.7552087,-0.38411477 0.263672,-0.38737 0.2669272,-1.1263026 z"/>
      <path id="path35596" style="font-weight:bold;font-size:6.66667px;font-family:Roboto, sans-serif;letter-spacing:1px;fill:#333333" d="m 9.619796,-4.7395856 v 3.1217463 q 0,0.77799515 -0.4882815,1.23046932 -0.4850263,0.45247418 -1.3281257,0.45247418 -0.8300785,0 -1.31836,-0.43945334 Q 5.9967474,-0.81380247 5.9869817,-1.582032 v -3.1575536 h 0.976563 v 3.1282567 q 0,0.465495 0.2213543,0.68033887 0.2246095,0.21158865 0.6184898,0.21158865 0.8235681,0 0.836589,-0.86588582 v -3.1542984 z"/>
      <path id="path35598" style="font-weight:bold;font-size:6.66667px;font-family:Roboto, sans-serif;letter-spacing:1px;fill:#333333" d="M 14.988288,-3.9485696 H 13.536464 V 0 h -0.976563 v -3.9485696 h -1.432292 v -0.791016 h 3.860679 z"/>
    </g>
    <g transform="translate(5,29.3)" id="g35466"/>
    <g transform="translate(5,29.3)" id="g35468"/>
  </g>
  <g class="io-group" transform="translate(5.5,183)" id="g35492">
    <path class="input-background" d="m 5,0 h 24 c 2.77,0 5,2.23 5,5 v 103 c 0,2.77 -2.23,5 -5,5 H 5 c -2.77,0 -5,-2.23 -5,-5 V 5 C 0,2.23 2.23,0 5,0 Z" style="fill:#fafafa" id="rect35474"/>
    <path class="input-background-filler" d="M 0,0 H 34 V 10 H 0 Z" style="fill:#fafafa" transform="translate(0,103)" id="rect35476"/>
    <g transform="translate(8,4)" id="g35478"/>
    <g transform="translate(5,26)" id="g35480"/>
    <g class="input-label" style="font-weight:bold;font-size:6.66667px;font-family:Roboto, sans-serif;letter-spacing:2px;fill:#333333" id="text35482" transform="translate(5,58)" aria-label="GATE">
      <path id="path35567" style="font-weight:bold;font-size:6.66667px;font-family:Roboto, sans-serif;letter-spacing:2px;fill:#333333" d="M 4.1731791,-0.59895862 Q 3.9095071,-0.28320326 3.427736,-0.10742193 2.9459649,0.0651042 2.3600272,0.0651042 q -0.6152347,0 -1.0807297,-0.26692721 Q 0.81705768,-0.47200543 0.56315131,-0.98307339 0.31250015,-1.4941413 0.30598973,-2.1842458 v -0.3222658 q 0,-0.7096358 0.23763032,-1.2272141 0.24088553,-0.5208336 0.69010445,-0.7942713 0.4524742,-0.2766928 1.0579433,-0.2766928 0.8430993,0 1.31836,0.403646 0.4752606,0.4003909 0.5631513,1.1686204 H 3.2226578 Q 3.1575536,-3.6393247 2.9329441,-3.8281268 2.7115898,-4.016929 2.3209646,-4.016929 q -0.4980471,0 -0.7584639,0.3743491 -0.2604167,0.3743492 -0.263672,1.1132818 v 0.3027345 q 0,0.7454431 0.2832033,1.1263027 0.2832033,0.38085952 0.8300785,0.38085952 0.5501305,0 0.7845056,-0.23437512 V -1.7708342 H 2.3079438 v -0.7194014 h 1.8652353 z"/>
      <path id="path35569" style="font-weight:bold;font-size:6.66667px;font-family:Roboto, sans-serif;letter-spacing:2px;fill:#333333" d="M 9.6432327,-0.97656297 H 7.9309923 L 7.6054713,0 H 6.5670594 L 8.3313831,-4.7395856 H 9.2363315 L 11.010421,0 H 9.9720089 Z M 8.1946643,-1.767579 H 9.3795607 L 8.7838573,-3.5416684 Z"/>
      <path id="path35571" style="font-weight:bold;font-size:6.66667px;font-family:Roboto, sans-serif;letter-spacing:2px;fill:#333333" d="M 16.636725,-3.9485696 H 15.184901 V 0 h -0.976562 v -3.9485696 h -1.432293 v -0.791016 h 3.860679 z"/>
      <path id="path35573" style="font-weight:bold;font-size:6.66667px;font-family:Roboto, sans-serif;letter-spacing:2px;fill:#333333" d="m 22.048184,-2.0540374 h -1.875001 v 1.26953182 h 2.200522 V 0 h -3.177084 v -4.7395856 h 3.170574 v 0.791016 h -2.194012 v 1.1295578 h 1.875001 z"/>
    </g>
    <g class="input-label" style="font-weight:bold;font-size:6.66667px;font-family:Roboto, sans-serif;letter-spacing:0.3px;fill:#333333" id="text35484" transform="translate(1,71)" aria-label="LATCH">
      <path id="path35576" style="font-weight:bold;font-size:6.66667px;font-family:Roboto, sans-serif;letter-spacing:0.3px;fill:#333333" d="M 1.3997403,-0.78450558 H 3.4733089 V 0 H 0.42317729 V -4.7395856 H 1.3997403 Z"/>
      <path id="path35578" style="font-weight:bold;font-size:6.66667px;font-family:Roboto, sans-serif;letter-spacing:0.3px;fill:#333333" d="M 7.0708364,-0.97656297 H 5.358596 L 5.033075,0 H 3.9946631 L 5.7589868,-4.7395856 H 6.6639352 L 8.4380246,0 H 7.3996126 Z M 5.622268,-1.767579 H 6.8071644 L 6.211461,-3.5416684 Z"/>
      <path id="path35580" style="font-weight:bold;font-size:6.66667px;font-family:Roboto, sans-serif;letter-spacing:0.3px;fill:#333333" d="M 12.364328,-3.9485696 H 10.912504 V 0 H 9.9359415 V -3.9485696 H 8.5036491 v -0.791016 h 3.8606789 z"/>
      <path id="path35582" style="font-weight:bold;font-size:6.66667px;font-family:Roboto, sans-serif;letter-spacing:0.3px;fill:#333333" d="m 16.853784,-1.5787768 q -0.05534,0.76497433 -0.566407,1.20442766 -0.507812,0.43945334 -1.341146,0.43945334 -0.911459,0 -1.435548,-0.61197946 Q 12.98985,-1.1621099 12.98985,-2.233074 v -0.2897137 q 0,-0.683594 0.240885,-1.2044276 0.240886,-0.5208336 0.68685,-0.7975264 0.449219,-0.2799481 1.041667,-0.2799481 0.820313,0 1.321615,0.4394533 0.501302,0.4394534 0.579427,1.2337246 h -0.976563 q -0.03581,-0.4589846 -0.257161,-0.6640628 -0.218099,-0.2083335 -0.667318,-0.2083335 -0.488282,0 -0.732422,0.3515627 -0.240886,0.3483075 -0.247396,1.0839849 v 0.3580731 q 0,0.7682295 0.23112,1.1230474 0.234375,0.35481788 0.735677,0.35481788 0.452474,0 0.673828,-0.20507823 0.22461,-0.20833345 0.257162,-0.64127635 z"/>
      <path id="path35584" style="font-weight:bold;font-size:6.66667px;font-family:Roboto, sans-serif;letter-spacing:0.3px;fill:#333333" d="M 21.652484,0 H 20.675921 V -2.031251 H 18.771624 V 0 h -0.976563 v -4.7395856 h 0.976563 v 1.9205738 h 1.904297 v -1.9205738 h 0.976563 z"/>
    </g>
    <g transform="translate(24,64)" id="g35486"/>
    <g transform="translate(5,78)" id="g35488"/>
    <g class="input-label" style="font-weight:bold;font-size:6.66667px;font-family:Roboto, sans-serif;letter-spacing:1px;fill:#333333" id="text35490" transform="translate(13,110)" aria-label="IN">
      <path id="path35587" style="font-weight:bold;font-size:6.66667px;font-family:Roboto, sans-serif;letter-spacing:1px;fill:#333333" d="M 1.4615892,0 H 0.48502627 V -4.7395856 H 1.4615892 Z"/>
      <path id="path35589" style="font-weight:bold;font-size:6.66667px;font-family:Roboto, sans-serif;letter-spacing:1px;fill:#333333" d="M 7.2174508,0 H 6.2408878 L 4.3398452,-3.1184911 V 0 h -0.976563 v -4.7395856 h 0.976563 l 1.9042978,3.1250015 v -3.1250015 h 0.9733078 z"/>
    </g>
  </g>
  <g class="io-group" transform="translate(5.5,296)" id="g35506">
    <path class="output-background-filler" d="M 0,0 H 34 V 10 H 0 Z" style="fill:#bbbbbb" id="rect35494"/>
    <path class="output-background" d="m 5,0 h 24 c 2.77,0 5,2.23 5,5 v 29 c 0,2.77 -2.23,5 -5,5 H 5 C 2.23,39 0,36.77 0,34 V 5 C 0,2.23 2.23,0 5,0 Z" style="fill:#bbbbbb" id="rect35496"/>
    <g transform="translate(5,3)" id="g35498"/>
    <g class="output-label" style="font-weight:bold;font-size:6.66667px;font-family:Roboto, sans-serif;letter-spacing:1px;fill:#333333" id="text35500" transform="translate(14,35)" aria-label="OUT">
      <path id="path35558" style="font-weight:bold;font-size:6.66667px;font-family:Roboto, sans-serif;letter-spacing:1px;fill:#333333" d="m 4.3164083,-2.2623709 q 0,0.6998702 -0.2473959,1.2272142 -0.247396,0.52734396 -0.7096358,0.81380243 -0.4589846,0.28645847 -1.054688,0.28645847 -0.589193,0 -1.0514328,-0.28320326 Q 0.791016,-0.50130232 0.53710963,-1.0253911 0.28320326,-1.5527351 0.27994805,-2.2363292 v -0.2343751 q 0,-0.6998701 0.25065116,-1.2304693 0.25390637,-0.5338545 0.71289099,-0.8170577 0.4622398,-0.2864585 1.054688,-0.2864585 0.5924482,0 1.0514328,0.2864585 0.4622398,0.2832032 0.7128909,0.8170577 0.2539064,0.5305992 0.2539064,1.2272141 z M 3.3268245,-2.4772147 q 0,-0.7454431 -0.2669272,-1.1328131 -0.2669272,-0.3873699 -0.7617191,-0.3873699 -0.4915367,0 -0.7584639,0.3841147 -0.2669272,0.3808596 -0.2701824,1.1197922 v 0.2311199 q 0,0.7259118 0.2669272,1.1263026 0.2669272,0.40039087 0.7682295,0.40039087 0.4915367,0 0.7552087,-0.38411477 0.263672,-0.38737 0.2669272,-1.1263026 z"/>
      <path id="path35560" style="font-weight:bold;font-size:6.66667px;font-family:Roboto, sans-serif;letter-spacing:1px;fill:#333333" d="m 9.619796,-4.7395856 v 3.1217463 q 0,0.77799515 -0.4882815,1.23046932 -0.4850263,0.45247418 -1.3281257,0.45247418 -0.8300785,0 -1.31836,-0.43945334 Q 5.9967474,-0.81380247 5.9869817,-1.582032 v -3.1575536 h 0.976563 v 3.1282567 q 0,0.465495 0.2213543,0.68033887 0.2246095,0.21158865 0.6184898,0.21158865 0.8235681,0 0.836589,-0.86588582 v -3.1542984 z"/>
      <path id="path35562" style="font-weight:bold;font-size:6.66667px;font-family:Roboto, sans-serif;letter-spacing:1px;fill:#333333" d="M 14.988288,-3.9485696 H 13.536464 V 0 h -0.976563 v -3.9485696 h -1.432292 v -0.791016 h 3.860679 z"/>
    </g>
    <g transform="translate(5,29.3)" id="g35502"/>
    <g transform="translate(5,29.3)" id="g35504"/>
  </g>
</svg>
