<?xml version="1.0" encoding="UTF-8" standalone="no"?>
<svg xmlns:dc="http://purl.org/dc/elements/1.1/" xmlns:cc="http://creativecommons.org/ns#" xmlns:rdf="http://www.w3.org/1999/02/22-rdf-syntax-ns#" xmlns:svg="http://www.w3.org/2000/svg" xmlns="http://www.w3.org/2000/svg" xmlns:sodipodi="http://sodipodi.sourceforge.net/DTD/sodipodi-0.dtd" xmlns:inkscape="http://www.inkscape.org/namespaces/inkscape" inkscape:version="1.0 (4035a4f, 2020-05-01)" sodipodi:docname="svg_render_knob_26px-pp.svg" id="svg134543" viewBox="0 0 26 26" height="26" width="26" version="1.1">
  <metadata id="metadata134549">
    <rdf:RDF>
      <cc:Work rdf:about="">
        <dc:format>image/svg+xml</dc:format>
        <dc:type rdf:resource="http://purl.org/dc/dcmitype/StillImage"/>
      </cc:Work>
    </rdf:RDF>
  </metadata>
  <defs id="defs134547"/>
  <sodipodi:namedview inkscape:current-layer="svg134543" inkscape:window-maximized="0" inkscape:window-y="23" inkscape:window-x="0" inkscape:cy="13" inkscape:cx="13" inkscape:zoom="25.730769" showgrid="false" id="namedview134545" inkscape:window-height="480" inkscape:window-width="689" inkscape:pageshadow="2" inkscape:pageopacity="0" guidetolerance="10" gridtolerance="10" objecttolerance="10" borderopacity="1" bordercolor="#666666" pagecolor="#ffffff"/>
  <path d="M 25.8,13 A 12.8,12.8 0 0 1 13,25.8 12.8,12.8 0 0 1 0.19999981,13 12.8,12.8 0 0 1 13,0.19999981 12.8,12.8 0 0 1 25.8,13" style="fill:#333333" id="circle134533"/>
  <path d="M 22.7,13 A 9.6999998,9.6999998 0 0 1 13,22.7 9.6999998,9.6999998 0 0 1 3.3000002,13 9.6999998,9.6999998 0 0 1 13,3.3000002 9.6999998,9.6999998 0 0 1 22.7,13" style="fill:#eeeeee" id="circle134535"/>
  <path d="M 14.3,1.6 A 1.3,1.3 0 0 1 13,2.9 1.3,1.3 0 0 1 11.7,1.6 1.3,1.3 0 0 1 13,0.30000007 1.3,1.3 0 0 1 14.3,1.6" style="fill:#ffffff" id="circle134539"/>
  <path d="M 14.3,1.9 A 1.3,1.3 0 0 1 13,3.1999999 1.3,1.3 0 0 1 11.7,1.9 1.3,1.3 0 0 1 13,0.60000002 1.3,1.3 0 0 1 14.3,1.9" style="fill:#ffffff" id="circle134541"/>
</svg>
