<?xml version="1.0" encoding="UTF-8" standalone="no"?>
<svg xmlns:dc="http://purl.org/dc/elements/1.1/" xmlns:cc="http://creativecommons.org/ns#" xmlns:rdf="http://www.w3.org/1999/02/22-rdf-syntax-ns#" xmlns:svg="http://www.w3.org/2000/svg" xmlns="http://www.w3.org/2000/svg" xmlns:sodipodi="http://sodipodi.sourceforge.net/DTD/sodipodi-0.dtd" xmlns:inkscape="http://www.inkscape.org/namespaces/inkscape" inkscape:version="1.0 (4035a4f, 2020-05-01)" sodipodi:docname="svg_render_knob_16px-dark-pp.svg" id="svg10" viewBox="0 0 16.0 16.0" version="1.1" height="16.0" width="16.0">
  <metadata id="metadata16">
    <rdf:RDF>
      <cc:Work rdf:about="">
        <dc:format>image/svg+xml</dc:format>
        <dc:type rdf:resource="http://purl.org/dc/dcmitype/StillImage"/>
      </cc:Work>
    </rdf:RDF>
  </metadata>
  <defs id="defs14"/>
  <sodipodi:namedview inkscape:current-layer="svg10" inkscape:window-maximized="0" inkscape:window-y="23" inkscape:window-x="0" inkscape:cy="8" inkscape:cx="8" inkscape:zoom="41.8125" showgrid="false" id="namedview12" inkscape:window-height="480" inkscape:window-width="689" inkscape:pageshadow="2" inkscape:pageopacity="0" guidetolerance="10" gridtolerance="10" objecttolerance="10" borderopacity="1" bordercolor="#666666" pagecolor="#ffffff"/>
  <path d="M 15.8,8 A 7.8000002,7.8000002 0 0 1 8,15.8 7.8000002,7.8000002 0 0 1 0.19999981,8 7.8000002,7.8000002 0 0 1 8,0.19999981 7.8000002,7.8000002 0 0 1 15.8,8" style="fill:#555555" id="circle2"/>
  <path d="M 14,8 A 6,6 0 0 1 8,14 6,6 0 0 1 2,8 6,6 0 0 1 8,2 6,6 0 0 1 14,8" style="fill:#333333" id="circle4"/>
  <path d="M 0,0 V -6.5" style="stroke:#ffffff;stroke-width:2;stroke-linecap:round" transform="translate(8,8)" id="polyline6"/>
</svg>
