<?xml version="1.0" encoding="UTF-8" standalone="no"?>
<svg xmlns:dc="http://purl.org/dc/elements/1.1/" xmlns:cc="http://creativecommons.org/ns#" xmlns:rdf="http://www.w3.org/1999/02/22-rdf-syntax-ns#" xmlns:svg="http://www.w3.org/2000/svg" xmlns="http://www.w3.org/2000/svg" xmlns:sodipodi="http://sodipodi.sourceforge.net/DTD/sodipodi-0.dtd" xmlns:inkscape="http://www.inkscape.org/namespaces/inkscape" inkscape:version="1.0 (4035a4f, 2020-05-01)" sodipodi:docname="svg_render_knob_38px-pp.svg" id="svg63155" viewBox="0 0 38 38" height="38" width="38" version="1.1">
  <metadata id="metadata63161">
    <rdf:RDF>
      <cc:Work rdf:about="">
        <dc:format>image/svg+xml</dc:format>
        <dc:type rdf:resource="http://purl.org/dc/dcmitype/StillImage"/>
      </cc:Work>
    </rdf:RDF>
  </metadata>
  <defs id="defs63159"/>
  <sodipodi:namedview inkscape:current-layer="svg63155" inkscape:window-maximized="0" inkscape:window-y="23" inkscape:window-x="0" inkscape:cy="19" inkscape:cx="19" inkscape:zoom="17.605263" showgrid="false" id="namedview63157" inkscape:window-height="480" inkscape:window-width="689" inkscape:pageshadow="2" inkscape:pageopacity="0" guidetolerance="10" gridtolerance="10" objecttolerance="10" borderopacity="1" bordercolor="#666666" pagecolor="#ffffff"/>
  <!-- <radialGradient id="inner" cx="0.50" cy="0.50" r="1.0">
    <stop offset="0%" stop-color="#eee"/>
    <stop offset="100%" stop-color="#000"/>
  </radialGradient> -->
  <path d="M 37.700001,19 A 18.700001,18.700001 0 0 1 19,37.700001 18.700001,18.700001 0 0 1 0.29999924,19 18.700001,18.700001 0 0 1 19,0.29999924 18.700001,18.700001 0 0 1 37.700001,19" style="fill:#333333" id="circle63145"/>
  <path d="M 33,19 A 14,14 0 0 1 19,33 14,14 0 0 1 5,19 14,14 0 0 1 19,5 14,14 0 0 1 33,19" style="fill:#eeeeee" id="circle63149"/>
  <path d="M 20.8,2.7 A 1.8,1.8 0 0 1 19,4.5 1.8,1.8 0 0 1 17.2,2.7 1.8,1.8 0 0 1 19,0.9000001 1.8,1.8 0 0 1 20.8,2.7" style="fill:#ffffff" id="circle63153"/>
</svg>
