<?xml version="1.0" encoding="UTF-8" standalone="no"?>
<svg xmlns:dc="http://purl.org/dc/elements/1.1/" xmlns:cc="http://creativecommons.org/ns#" xmlns:rdf="http://www.w3.org/1999/02/22-rdf-syntax-ns#" xmlns:svg="http://www.w3.org/2000/svg" xmlns="http://www.w3.org/2000/svg" xmlns:sodipodi="http://sodipodi.sourceforge.net/DTD/sodipodi-0.dtd" xmlns:inkscape="http://www.inkscape.org/namespaces/inkscape" inkscape:version="1.0 (4035a4f, 2020-05-01)" sodipodi:docname="svg_render_tmp.svg" id="svg14" viewBox="0 0 29 29" height="29" width="29" version="1.1">
  <metadata id="metadata20">
    <rdf:RDF>
      <cc:Work rdf:about="">
        <dc:format>image/svg+xml</dc:format>
        <dc:type rdf:resource="http://purl.org/dc/dcmitype/StillImage"/>
      </cc:Work>
    </rdf:RDF>
  </metadata>
  <defs id="defs18"/>
  <sodipodi:namedview inkscape:current-layer="svg14" inkscape:window-maximized="0" inkscape:window-y="23" inkscape:window-x="0" inkscape:cy="14.5" inkscape:cx="14.5" inkscape:zoom="23.068966" showgrid="false" id="namedview16" inkscape:window-height="480" inkscape:window-width="689" inkscape:pageshadow="2" inkscape:pageopacity="0" guidetolerance="10" gridtolerance="10" objecttolerance="10" borderopacity="1" bordercolor="#666666" pagecolor="#ffffff"/>
  <path d="M 28.8,14.5 A 14.3,14.3 0 0 1 14.5,28.8 14.3,14.3 0 0 1 0.19999981,14.5 14.3,14.3 0 0 1 14.5,0.19999981 14.3,14.3 0 0 1 28.8,14.5" style="fill:#333333" id="circle2"/>
  <path d="M 25.4,14.5 A 10.9,10.9 0 0 1 14.5,25.4 10.9,10.9 0 0 1 3.6000004,14.5 10.9,10.9 0 0 1 14.5,3.6000004 10.9,10.9 0 0 1 25.4,14.5" style="fill:#eeeeee" id="circle4"/>
  <path d="M 15.8,1.6 A 1.3,1.3 0 0 1 14.5,2.9 1.3,1.3 0 0 1 13.2,1.6 1.3,1.3 0 0 1 14.5,0.30000007 1.3,1.3 0 0 1 15.8,1.6" style="fill:#ffffff" id="circle8"/>
  <path d="M 15.8,1.9 A 1.3,1.3 0 0 1 14.5,3.1999999 1.3,1.3 0 0 1 13.2,1.9 1.3,1.3 0 0 1 14.5,0.60000002 1.3,1.3 0 0 1 15.8,1.9" style="fill:#ffffff" id="circle10"/>
  <path d="M 15.8,2.2 A 1.3,1.3 0 0 1 14.5,3.5 1.3,1.3 0 0 1 13.2,2.2 1.3,1.3 0 0 1 14.5,0.9000001 1.3,1.3 0 0 1 15.8,2.2" style="fill:#ffffff" id="circle12"/>
</svg>
