<?xml version="1.0" encoding="UTF-8" standalone="no"?>
<svg xmlns:dc="http://purl.org/dc/elements/1.1/" xmlns:cc="http://creativecommons.org/ns#" xmlns:rdf="http://www.w3.org/1999/02/22-rdf-syntax-ns#" xmlns:svg="http://www.w3.org/2000/svg" xmlns="http://www.w3.org/2000/svg" xmlns:sodipodi="http://sodipodi.sourceforge.net/DTD/sodipodi-0.dtd" xmlns:inkscape="http://www.inkscape.org/namespaces/inkscape" inkscape:version="1.0 (4035a4f, 2020-05-01)" sodipodi:docname="svg_render_knob_45px-lowcontrast-pp.svg" id="svg413" viewBox="0 0 45.0 45.0" version="1.1" height="45.0" width="45.0">
  <metadata id="metadata419">
    <rdf:RDF>
      <cc:Work rdf:about="">
        <dc:format>image/svg+xml</dc:format>
        <dc:type rdf:resource="http://purl.org/dc/dcmitype/StillImage"/>
      </cc:Work>
    </rdf:RDF>
  </metadata>
  <defs id="defs417"/>
  <sodipodi:namedview inkscape:current-layer="svg413" inkscape:window-maximized="0" inkscape:window-y="23" inkscape:window-x="0" inkscape:cy="22.5" inkscape:cx="22.5" inkscape:zoom="14.866667" showgrid="false" id="namedview415" inkscape:window-height="480" inkscape:window-width="689" inkscape:pageshadow="2" inkscape:pageopacity="0" guidetolerance="10" gridtolerance="10" objecttolerance="10" borderopacity="1" bordercolor="#666666" pagecolor="#ffffff"/>
  
  <path class="knob-rim" d="M 44.700001,22.5 A 22.200001,22.200001 0 0 1 22.5,44.700001 22.200001,22.200001 0 0 1 0.29999924,22.5 22.200001,22.200001 0 0 1 22.5,0.29999924 22.200001,22.200001 0 0 1 44.700001,22.5" style="fill:#555555" id="circle405"/>
  <path class="knob-center" d="m 40.5,22.5 a 18,18 0 0 1 -18,18 18,18 0 0 1 -18,-18 18,18 0 0 1 18,-18 18,18 0 0 1 18,18" style="fill:#bbbbbb" id="circle407"/>
  <path class="knob-tick" d="M 22.5,2 V 2.7" style="stroke:#ffffff;stroke-width:3;stroke-linecap:round" id="polyline411"/>
</svg>
