<?xml version="1.0" encoding="UTF-8" standalone="no"?>
<svg xmlns:dc="http://purl.org/dc/elements/1.1/" xmlns:cc="http://creativecommons.org/ns#" xmlns:rdf="http://www.w3.org/1999/02/22-rdf-syntax-ns#" xmlns:svg="http://www.w3.org/2000/svg" xmlns="http://www.w3.org/2000/svg" xmlns:sodipodi="http://sodipodi.sourceforge.net/DTD/sodipodi-0.dtd" xmlns:inkscape="http://www.inkscape.org/namespaces/inkscape" inkscape:version="1.0 (4035a4f, 2020-05-01)" sodipodi:docname="svg_render_LFO-pp.svg" id="svg18222" viewBox="0 0 150 380" height="380" width="150" version="1.1">
  <metadata id="metadata18228">
    <rdf:RDF>
      <cc:Work rdf:about="">
        <dc:format>image/svg+xml</dc:format>
        <dc:type rdf:resource="http://purl.org/dc/dcmitype/StillImage"/>
      </cc:Work>
    </rdf:RDF>
  </metadata>
  <defs id="defs18226"/>
  <sodipodi:namedview inkscape:current-layer="svg18222" inkscape:window-maximized="0" inkscape:window-y="23" inkscape:window-x="0" inkscape:cy="190" inkscape:cx="75" inkscape:zoom="1.7605263" showgrid="false" id="namedview18224" inkscape:window-height="480" inkscape:window-width="689" inkscape:pageshadow="2" inkscape:pageopacity="0" guidetolerance="10" gridtolerance="10" objecttolerance="10" borderopacity="1" bordercolor="#666666" pagecolor="#ffffff"/>
  
  <path class="module-background background-fill" d="M 0,0 H 150 V 380 H 0 Z" style="fill:#dddddd" id="rect17894"/>
  <path class="module-border-inner" d="M 1,1 H 149 V 379 H 1 V 1" style="fill:none;stroke:#e4e4e4;stroke-width:0.5" id="polyline17896"/>
  <path class="module-border-middle" d="m 0.5,0.5 h 149 v 379 H 0.5 V 0.5" style="fill:none;stroke:#ebebeb;stroke-width:0.8" id="polyline17898"/>
  <path class="module-border-outer" d="M 0,0 H 150 V 380 H 0 V 0" style="fill:none;stroke:#f2f2f2;stroke-width:1" id="polyline17900"/>
  <g class="title" style="font-weight:normal;font-size:16px;font-family:Comfortaa, sans-serif;letter-spacing:4px;text-anchor:middle;fill:#333333" id="text17902" transform="translate(75.0 19)" aria-label="LFO">
    <path id="path18617" style="font-weight:normal;font-size:16px;font-family:Comfortaa, sans-serif;letter-spacing:4px;text-anchor:middle;fill:#333333" d="m -19.2135,0 q -0.256,0 -0.448,-0.176 -0.176,-0.192 -0.176,-0.448 v -11.248 q 0,-0.256 0.176,-0.432 0.192,-0.192 0.448,-0.192 0.272,0 0.448,0.176 0.176,0.176 0.176,0.448 v 10.688 h 6.256 q 0.272,0 0.448,0.176 0.176,0.16 0.176,0.416 0,0.256 -0.176,0.432 -0.176,0.16 -0.448,0.16 z"/>
    <path id="path18619" style="font-weight:normal;font-size:16px;font-family:Comfortaa, sans-serif;letter-spacing:4px;text-anchor:middle;fill:#333333" d="m -6.0805,0 q -0.256,0 -0.448,-0.176 -0.176,-0.192 -0.176,-0.448 v -11.248 q 0,-0.272 0.176,-0.448 0.192,-0.176 0.448,-0.176 h 7.504 q 0.272,0 0.448,0.176 0.176,0.176 0.176,0.432 0,0.256 -0.176,0.432 -0.176,0.16 -0.448,0.16 h -6.88 v 4.416 h 5.008 q 0.272,0 0.448,0.176 0.176,0.16 0.176,0.432 0,0.256 -0.176,0.432 -0.176,0.176 -0.448,0.176 h -5.008 v 5.04 q 0,0.256 -0.176,0.448 Q -5.8085,0 -6.0805,0 Z"/>
    <path id="path18621" style="font-weight:normal;font-size:16px;font-family:Comfortaa, sans-serif;letter-spacing:4px;text-anchor:middle;fill:#333333" d="m 14.0635,0.16 q -1.824,0 -3.28,-0.832 -1.456,-0.832 -2.288,-2.288 -0.816,-1.472 -0.816,-3.296 0,-1.824 0.816,-3.28 0.832,-1.456 2.288,-2.288 1.456,-0.832 3.28,-0.832 1.808,0 3.264,0.832 1.472,0.832 2.288,2.288 0.832,1.456 0.832,3.28 0,1.824 -0.832,3.296 -0.816,1.456 -2.288,2.288 -1.456,0.832 -3.264,0.832 z m 0,-1.184 q 1.456,0 2.624,-0.688 1.184,-0.688 1.856,-1.872 0.672,-1.2 0.672,-2.672 0,-1.456 -0.672,-2.64 -0.672,-1.2 -1.856,-1.888 -1.168,-0.688 -2.624,-0.688 -1.472,0 -2.656,0.688 -1.168,0.688 -1.84,1.888 -0.672,1.184 -0.672,2.64 0,1.472 0.672,2.672 0.672,1.184 1.84,1.872 1.184,0.688 2.656,0.688 z"/>
  </g>
  <g class="brand" style="font-weight:bold;font-size:10.6667px;font-family:Audiowide, sans-serif;letter-spacing:2px;text-anchor:middle;fill:#333333" id="text17904" aria-label="BOGAUDIO">
    <path id="path18600" style="font-weight:bold;font-size:10.6667px;font-family:Audiowide, sans-serif;letter-spacing:2px;text-anchor:middle;fill:#333333" d="m 43.57284,372.35937 q 0,0.25 -0.08854,0.53646 -0.08333,0.28646 -0.281251,0.53125 -0.192709,0.24479 -0.50521,0.41146 Q 42.385336,374 41.932209,374 h -5.140641 q -0.145834,0 -0.270834,-0.0521 -0.125001,-0.0521 -0.218751,-0.14063 -0.08854,-0.0937 -0.140625,-0.21875 -0.05208,-0.125 -0.05208,-0.27083 v -6.10419 q 0,-0.14063 0.05208,-0.26563 0.05208,-0.125 0.140625,-0.21875 0.09375,-0.0937 0.218751,-0.14583 0.125,-0.0521 0.270834,-0.0521 h 4.531264 q 0.250001,0 0.53646,0.0885 0.28646,0.0885 0.531252,0.28646 0.250001,0.19271 0.41146,0.50521 0.166667,0.3125 0.166667,0.76562 v 0.25521 q 0,0.35938 -0.119792,0.77605 -0.119792,0.41146 -0.385418,0.78125 0.229167,0.14063 0.427085,0.33854 0.203125,0.19792 0.354167,0.45834 0.151043,0.26042 0.239585,0.58854 0.08854,0.32813 0.08854,0.72396 z m -1.354171,-0.26042 q 0,-0.26562 -0.08333,-0.47396 -0.08333,-0.21354 -0.234376,-0.36458 -0.151042,-0.15104 -0.364584,-0.22917 -0.213543,-0.0833 -0.479168,-0.0833 h -3.052093 v -1.36459 h 2.442716 q 0.265625,0 0.479168,-0.0781 0.213542,-0.0833 0.364584,-0.23437 0.151042,-0.15104 0.229168,-0.35938 0.08333,-0.21354 0.08333,-0.47917 v -0.25521 q 0,-0.29166 -0.281251,-0.29166 h -3.859387 v 4.76043 h 4.468764 q 0.03646,0 0.08854,-0.005 0.05208,-0.005 0.09375,-0.0312 0.04167,-0.026 0.07292,-0.0885 0.03125,-0.0625 0.03125,-0.17188 z"/>
    <path id="path18602" style="font-weight:bold;font-size:10.6667px;font-family:Audiowide, sans-serif;letter-spacing:2px;text-anchor:middle;fill:#333333" d="m 54.583285,370.97916 q 0,0.68229 -0.234376,1.25521 -0.234375,0.57292 -0.651043,0.98959 -0.416668,0.41666 -0.989587,0.65104 -0.56771,0.22917 -1.239587,0.22917 h -1.833339 q -0.671877,0 -1.244796,-0.22917 -0.572918,-0.23438 -0.989586,-0.65104 -0.416668,-0.41667 -0.656252,-0.98959 -0.234376,-0.57292 -0.234376,-1.25521 v -1.42709 q 0,-0.67709 0.234376,-1.25 0.239584,-0.57813 0.656252,-0.98959 0.416668,-0.41667 0.989586,-0.65104 0.572919,-0.23438 1.244796,-0.23438 h 1.833339 q 0.671877,0 1.239587,0.23438 0.572919,0.23437 0.989587,0.65104 0.416668,0.41146 0.651043,0.98959 0.234376,0.57291 0.234376,1.25 z m -1.354171,-1.42709 q 0,-0.40104 -0.130209,-0.72396 -0.125,-0.32813 -0.359376,-0.55729 -0.229167,-0.23438 -0.557293,-0.35938 -0.322918,-0.13021 -0.713544,-0.13021 h -1.833339 q -0.395835,0 -0.723961,0.13021 -0.322918,0.125 -0.557293,0.35938 -0.234376,0.22916 -0.364585,0.55729 -0.125,0.32292 -0.125,0.72396 v 1.42709 q 0,0.40104 0.125,0.72917 0.130209,0.32291 0.364585,0.55729 0.234375,0.22917 0.557293,0.35938 0.328126,0.125 0.723961,0.125 h 1.822922 q 0.395835,0 0.718752,-0.125 0.328126,-0.13021 0.562502,-0.35938 0.234376,-0.23438 0.359376,-0.55729 0.130209,-0.32813 0.130209,-0.72917 z"/>
    <path id="path18604" style="font-weight:bold;font-size:10.6667px;font-family:Audiowide, sans-serif;letter-spacing:2px;text-anchor:middle;fill:#333333" d="m 65.302063,373.31771 q 0,0.14583 -0.05208,0.27083 -0.05208,0.125 -0.145834,0.21875 -0.08854,0.0885 -0.213543,0.14063 Q 64.765603,374 64.619769,374 h -4.885432 q -0.1875,0 -0.406251,-0.0417 -0.213542,-0.0469 -0.427085,-0.14062 -0.208334,-0.0937 -0.401043,-0.23959 -0.192709,-0.15104 -0.343751,-0.35937 -0.145834,-0.21354 -0.234376,-0.48959 -0.08854,-0.28125 -0.08854,-0.63021 v -3.66668 q 0,-0.1875 0.04167,-0.40104 0.04687,-0.21875 0.140626,-0.42708 0.09375,-0.21355 0.244792,-0.40625 0.151042,-0.19271 0.359376,-0.33855 0.213543,-0.15104 0.489585,-0.23958 0.276043,-0.0885 0.625002,-0.0885 h 5.505226 v 1.35417 h -5.505226 q -0.265626,0 -0.406251,0.14062 -0.140626,0.14063 -0.140626,0.41667 v 3.65626 q 0,0.26042 0.140626,0.40625 0.145834,0.14063 0.406251,0.14063 h 4.213555 v -1.69792 h -3.604178 v -1.36459 h 4.276055 q 0.145834,0 0.270834,0.0573 0.125001,0.0521 0.213543,0.14584 0.09375,0.0937 0.145834,0.21875 0.05208,0.11979 0.05208,0.26041 z"/>
    <path id="path18606" style="font-weight:bold;font-size:10.6667px;font-family:Audiowide, sans-serif;letter-spacing:2px;text-anchor:middle;fill:#333333" d="M 76.052091,374 H 74.69792 v -1.83334 H 69.937488 V 374 h -1.354171 v -3.73439 q 0,-0.81771 0.281251,-1.50521 0.281251,-0.6875 0.781253,-1.1823 0.500001,-0.49479 1.182295,-0.77083 0.682294,-0.27604 1.489588,-0.27604 h 3.052093 q 0.140626,0 0.265626,0.0521 0.125,0.0521 0.218751,0.14583 0.09375,0.0937 0.145833,0.21875 0.05208,0.125 0.05208,0.26563 z m -6.114603,-3.18751 h 4.760432 v -2.92709 h -2.380216 q -0.0625,0 -0.265626,0.0208 -0.197917,0.0156 -0.463543,0.0885 -0.260417,0.0729 -0.552085,0.22396 -0.291667,0.15104 -0.53646,0.41667 -0.244792,0.26563 -0.406251,0.66667 -0.156251,0.39583 -0.156251,0.96354 z"/>
    <path id="path18608" style="font-weight:bold;font-size:10.6667px;font-family:Audiowide, sans-serif;letter-spacing:2px;text-anchor:middle;fill:#333333" d="m 86.937537,373.31771 q 0,0.14583 -0.05208,0.27083 -0.05208,0.125 -0.145833,0.21875 -0.09375,0.0885 -0.218751,0.14063 Q 86.395868,374 86.255243,374 H 83.20315 q -0.432293,0 -0.875003,-0.0937 -0.442709,-0.0937 -0.859377,-0.28646 -0.41146,-0.19792 -0.776045,-0.5 -0.364584,-0.30209 -0.640627,-0.71355 -0.270834,-0.41666 -0.427084,-0.94791 -0.156251,-0.53646 -0.156251,-1.19272 v -3.73438 h 1.354171 v 3.73438 q 0,0.57292 0.156251,0.96876 0.161459,0.39583 0.406251,0.66146 0.244792,0.26562 0.53646,0.41666 0.291668,0.15105 0.552085,0.22396 0.265626,0.0729 0.463543,0.0937 0.203126,0.0156 0.265626,0.0156 h 2.380216 v -6.1146 h 1.354171 z"/>
    <path id="path18610" style="font-weight:bold;font-size:10.6667px;font-family:Audiowide, sans-serif;letter-spacing:2px;text-anchor:middle;fill:#333333" d="m 97.968813,370.87499 q 0,0.68229 -0.239584,1.25521 -0.234376,0.57292 -0.651044,0.98959 -0.416668,0.41146 -0.989587,0.64583 Q 95.51568,374 94.843803,374 h -3.656262 q -0.145834,0 -0.270834,-0.0521 -0.125,-0.0521 -0.218751,-0.14063 -0.08854,-0.0937 -0.140625,-0.21875 -0.05208,-0.125 -0.05208,-0.27083 v -6.10419 q 0,-0.14063 0.05208,-0.26563 0.05208,-0.125 0.140625,-0.21875 0.09375,-0.0937 0.218751,-0.14583 0.125,-0.0521 0.270834,-0.0521 h 3.656262 q 0.671877,0 1.244795,0.23437 0.572919,0.23438 0.989587,0.65105 0.416668,0.41146 0.651044,0.98958 0.239584,0.57292 0.239584,1.25001 z m -1.354171,-1.21875 q 0,-0.39584 -0.130209,-0.72396 -0.125,-0.32813 -0.359376,-0.5573 -0.234376,-0.23437 -0.562502,-0.35937 -0.322918,-0.13021 -0.718752,-0.13021 h -2.984385 v 4.76043 h 2.984385 q 0.395834,0 0.718752,-0.125 0.328126,-0.13021 0.562502,-0.35938 0.234376,-0.23437 0.359376,-0.55729 0.130209,-0.32813 0.130209,-0.72917 z"/>
    <path id="path18612" style="font-weight:bold;font-size:10.6667px;font-family:Audiowide, sans-serif;letter-spacing:2px;text-anchor:middle;fill:#333333" d="m 102.67195,374 h -1.35417 v -7.46877 h 1.35417 z"/>
    <path id="path18614" style="font-weight:bold;font-size:10.6667px;font-family:Audiowide, sans-serif;letter-spacing:2px;text-anchor:middle;fill:#333333" d="m 114.10427,370.97916 q 0,0.68229 -0.23438,1.25521 -0.23437,0.57292 -0.65104,0.98959 -0.41667,0.41666 -0.98959,0.65104 -0.56771,0.22917 -1.23958,0.22917 h -1.83334 q -0.67188,0 -1.2448,-0.22917 -0.57292,-0.23438 -0.98959,-0.65104 -0.41666,-0.41667 -0.65625,-0.98959 -0.23437,-0.57292 -0.23437,-1.25521 v -1.42709 q 0,-0.67709 0.23437,-1.25 0.23959,-0.57813 0.65625,-0.98959 0.41667,-0.41667 0.98959,-0.65104 0.57292,-0.23438 1.2448,-0.23438 h 1.83334 q 0.67187,0 1.23958,0.23438 0.57292,0.23437 0.98959,0.65104 0.41667,0.41146 0.65104,0.98959 0.23438,0.57291 0.23438,1.25 z m -1.35417,-1.42709 q 0,-0.40104 -0.13021,-0.72396 -0.125,-0.32813 -0.35938,-0.55729 -0.22916,-0.23438 -0.55729,-0.35938 -0.32292,-0.13021 -0.71354,-0.13021 h -1.83334 q -0.39584,0 -0.72396,0.13021 -0.32292,0.125 -0.5573,0.35938 -0.23437,0.22916 -0.36458,0.55729 -0.125,0.32292 -0.125,0.72396 v 1.42709 q 0,0.40104 0.125,0.72917 0.13021,0.32291 0.36458,0.55729 0.23438,0.22917 0.5573,0.35938 0.32812,0.125 0.72396,0.125 h 1.82292 q 0.39583,0 0.71875,-0.125 0.32813,-0.13021 0.5625,-0.35938 0.23438,-0.23438 0.35938,-0.55729 0.13021,-0.32813 0.13021,-0.72917 z"/>
  </g>
  <path class="background-fill" d="m 59.5,369 h 3 v 3 h -3 z" style="fill:#dddddd" id="rect17906"/>
  <g transform="translate(41,45)" id="g17910"/>
  <g transform="translate(75,79)" id="g17980">
    <g transform="rotate(134.92,-17,7.0555391)" id="g17918">
      <path d="M 0,0 H 5" style="stroke:#333333;stroke-width:1" transform="translate(3)" id="polyline17914"/>
      <g style="font-weight:bold;font-size:9.33333px;font-family:Roboto, sans-serif;fill:#333333" id="text17916" transform="rotate(-134.92,12.976305,-2.4763055)" aria-label="0.1">
        <path id="path18534" style="font-weight:bold;font-size:9.33333px;font-family:Roboto, sans-serif;fill:#333333" d="m 4.917316,-2.7434886 q 0,1.3763016 -0.5696612,2.10546798 -0.5696613,0.72916642 -1.6679682,0.72916642 -1.0846351,0 -1.6588536,-0.71549455 Q 0.44661443,-1.3398433 0.43294256,-2.6751293 V -3.896483 q 0,-1.3899735 0.57421854,-2.1100254 0.5787759,-0.7200518 1.6634109,-0.7200518 1.0846351,0 1.6588536,0.7154945 0.5742186,0.7109373 0.5878904,2.0462233 z M 3.6002592,-4.0833319 q 0,-0.8248696 -0.2278645,-1.1985673 -0.2233072,-0.3782551 -0.7018227,-0.3782551 -0.4648436,0 -0.6881508,0.3600259 -0.2187499,0.3554686 -0.2324218,1.1165361 v 1.6132807 q 0,0.8111976 0.2187499,1.2076819 0.2233072,0.39192691 0.7109373,0.39192691 0.4830727,0 0.6972654,-0.37825511 0.2141926,-0.3782551 0.2233072,-1.1575517 z"/>
        <path id="path18536" style="font-weight:bold;font-size:9.33333px;font-family:Roboto, sans-serif;fill:#333333" d="m 5.9335916,-0.6471352 q 0,-0.31445301 0.2096354,-0.5104165 0.2141926,-0.1959635 0.5332029,-0.1959635 0.3235676,0 0.533203,0.1959635 0.2141926,0.19596349 0.2141926,0.5104165 0,0.30989573 -0.2096353,0.50585921 -0.2096354,0.19140618 -0.5377603,0.19140618 -0.3235676,0 -0.5332029,-0.19140618 Q 5.9335916,-0.33723947 5.9335916,-0.6471352 Z"/>
        <path id="path18538" style="font-weight:bold;font-size:9.33333px;font-family:Roboto, sans-serif;fill:#333333" d="M 11.725907,0 H 10.40885 V -5.0768212 L 8.8365851,-4.5891911 V -5.6601543 L 11.584631,-6.644529 h 0.141276 z"/>
      </g>
    </g>
    <g transform="rotate(-171.49,-17,-1.26481)" id="g17924">
      <path d="M 0,0 H 5" style="stroke:#333333;stroke-width:1" transform="translate(3)" id="polyline17920"/>
      <g style="font-weight:bold;font-size:9.33333px;font-family:Roboto, sans-serif;fill:#333333" id="text17922" transform="rotate(171.49,12.369799,-1.6383991)" aria-label="0.5">
        <path id="path18542" style="font-weight:bold;font-size:9.33333px;font-family:Roboto, sans-serif;fill:#333333" d="m 4.917316,-2.7434886 q 0,1.3763016 -0.5696612,2.10546798 -0.5696613,0.72916642 -1.6679682,0.72916642 -1.0846351,0 -1.6588536,-0.71549455 Q 0.44661443,-1.3398433 0.43294256,-2.6751293 V -3.896483 q 0,-1.3899735 0.57421854,-2.1100254 0.5787759,-0.7200518 1.6634109,-0.7200518 1.0846351,0 1.6588536,0.7154945 0.5742186,0.7109373 0.5878904,2.0462233 z M 3.6002592,-4.0833319 q 0,-0.8248696 -0.2278645,-1.1985673 -0.2233072,-0.3782551 -0.7018227,-0.3782551 -0.4648436,0 -0.6881508,0.3600259 -0.2187499,0.3554686 -0.2324218,1.1165361 v 1.6132807 q 0,0.8111976 0.2187499,1.2076819 0.2233072,0.39192691 0.7109373,0.39192691 0.4830727,0 0.6972654,-0.37825511 0.2141926,-0.3782551 0.2233072,-1.1575517 z"/>
        <path id="path18544" style="font-weight:bold;font-size:9.33333px;font-family:Roboto, sans-serif;fill:#333333" d="m 5.9335916,-0.6471352 q 0,-0.31445301 0.2096354,-0.5104165 0.2141926,-0.1959635 0.5332029,-0.1959635 0.3235676,0 0.533203,0.1959635 0.2141926,0.19596349 0.2141926,0.5104165 0,0.30989573 -0.2096353,0.50585921 -0.2096354,0.19140618 -0.5377603,0.19140618 -0.3235676,0 -0.5332029,-0.19140618 Q 5.9335916,-0.33723947 5.9335916,-0.6471352 Z"/>
        <path id="path18546" style="font-weight:bold;font-size:9.33333px;font-family:Roboto, sans-serif;fill:#333333" d="m 8.7226529,-3.2630197 0.3828123,-3.3723947 h 3.7187488 v 1.0983069 h -2.638671 l -0.164062,1.4264318 q 0.4694,-0.2506509 0.998046,-0.2506509 0.947916,0 1.485677,0.5878904 0.53776,0.5878904 0.53776,1.6451817 0,0.6425779 -0.273438,1.15299442 -0.26888,0.5058592 -0.774739,0.78841119 -0.505859,0.27799469 -1.19401,0.27799469 -0.601562,0 -1.1165359,-0.24153637 Q 9.1692673,-0.39648424 8.8684861,-0.83854138 8.5722623,-1.2805985 8.5540331,-1.8457025 h 1.303385 q 0.041016,0.4147134 0.2871089,0.6471352 0.250651,0.22786451 0.651693,0.22786451 0.446614,0 0.688151,-0.31901031 0.241536,-0.3235676 0.241536,-0.911458 0,-0.565104 -0.277995,-0.8658851 -0.277994,-0.3007812 -0.788411,-0.3007812 -0.469401,0 -0.7610673,0.2460937 l -0.1276041,0.1184895 z"/>
      </g>
    </g>
    <g transform="rotate(-71.76,-17,-23.501846)" id="g17930">
      <path d="M 0,0 H 5" style="stroke:#333333;stroke-width:1" transform="translate(3)" id="polyline17926"/>
      <g style="font-weight:bold;font-size:9.33333px;font-family:Roboto, sans-serif;fill:#333333" id="text17928" transform="rotate(71.76,5.5806923,6.5447692)" aria-label="10">
        <path id="path18550" style="font-weight:bold;font-size:9.33333px;font-family:Roboto, sans-serif;fill:#333333" d="M 3.6503894,0 H 2.3333325 V -5.0768212 L 0.76106745,-4.5891911 V -5.6601543 L 3.5091134,-6.644529 h 0.141276 z"/>
        <path id="path18552" style="font-weight:bold;font-size:9.33333px;font-family:Roboto, sans-serif;fill:#333333" d="m 10.276689,-2.7434886 q 0,1.3763016 -0.5696611,2.10546798 -0.5696613,0.72916642 -1.6679682,0.72916642 -1.0846351,0 -1.6588536,-0.71549455 Q 5.8059875,-1.3398433 5.7923157,-2.6751293 V -3.896483 q 0,-1.3899735 0.5742185,-2.1100254 0.5787759,-0.7200518 1.6634109,-0.7200518 1.084635,0 1.6588536,0.7154945 0.5742183,0.7109373 0.5878903,2.0462233 z M 8.9596323,-4.0833319 q 0,-0.8248696 -0.2278645,-1.1985673 -0.2233072,-0.3782551 -0.7018227,-0.3782551 -0.4648436,0 -0.6881508,0.3600259 -0.2187499,0.3554686 -0.2324218,1.1165361 v 1.6132807 q 0,0.8111976 0.2187499,1.2076819 0.2233072,0.39192691 0.7109373,0.39192691 0.4830727,0 0.6972654,-0.37825511 0.2141926,-0.3782551 0.2233072,-1.1575517 z"/>
      </g>
    </g>
    <g transform="rotate(-124.62,-17,-8.921415)" id="g17936">
      <path d="M 0,0 H 5" style="stroke:#333333;stroke-width:1" transform="translate(3)" id="polyline17932"/>
      <g style="font-weight:bold;font-size:9.33333px;font-family:Roboto, sans-serif;letter-spacing:1px;fill:#333333" id="text17934" transform="rotate(124.62,11.081619,-0.70042177)" aria-label="0V">
        <path id="path18556" style="font-weight:bold;font-size:9.33333px;font-family:Roboto, sans-serif;letter-spacing:1px;fill:#333333" d="m 4.917316,-2.7434886 q 0,1.3763016 -0.5696612,2.10546798 -0.5696613,0.72916642 -1.6679682,0.72916642 -1.0846351,0 -1.6588536,-0.71549455 Q 0.44661443,-1.3398433 0.43294256,-2.6751293 V -3.896483 q 0,-1.3899735 0.57421854,-2.1100254 0.5787759,-0.7200518 1.6634109,-0.7200518 1.0846351,0 1.6588536,0.7154945 0.5742186,0.7109373 0.5878904,2.0462233 z M 3.6002592,-4.0833319 q 0,-0.8248696 -0.2278645,-1.1985673 -0.2233072,-0.3782551 -0.7018227,-0.3782551 -0.4648436,0 -0.6881508,0.3600259 -0.2187499,0.3554686 -0.2324218,1.1165361 v 1.6132807 q 0,0.8111976 0.2187499,1.2076819 0.2233072,0.39192691 0.7109373,0.39192691 0.4830727,0 0.6972654,-0.37825511 0.2141926,-0.3782551 0.2233072,-1.1575517 z"/>
        <path id="path18558" style="font-weight:bold;font-size:9.33333px;font-family:Roboto, sans-serif;letter-spacing:1px;fill:#333333" d="m 9.4036429,-1.6451817 1.5039061,-4.9902327 h 1.522135 L 10.119137,0 H 8.6927056 L 6.3912741,-6.6354144 h 1.5175776 z"/>
      </g>
    </g>
    <g transform="rotate(-18.17,-17,-106.31276)" id="g17942">
      <path d="M 0,0 H 5" style="stroke:#333333;stroke-width:1" transform="translate(3)" id="polyline17938"/>
      <g style="font-weight:bold;font-size:9.33333px;font-family:Roboto, sans-serif;fill:#333333" id="text17940" transform="rotate(18.17,-2.9439608,35.772151)" aria-label="50">
        <path id="path18562" style="font-weight:bold;font-size:9.33333px;font-family:Roboto, sans-serif;fill:#333333" d="m 0.6471352,-3.2630197 0.3828124,-3.3723947 h 3.7187487 v 1.0983069 h -2.638671 l -0.1640624,1.4264318 q 0.4694009,-0.2506509 0.9980465,-0.2506509 0.9479164,0 1.4856766,0.5878904 0.5377602,0.5878904 0.5377602,1.6451817 0,0.6425779 -0.2734374,1.15299442 -0.2688801,0.5058592 -0.7747393,0.78841119 -0.5058592,0.27799469 -1.19401,0.27799469 -0.6015623,0 -1.1165361,-0.24153637 Q 1.0937496,-0.39648424 0.79296848,-0.83854138 0.49674462,-1.2805985 0.47851546,-1.8457025 H 1.7819004 q 0.041016,0.4147134 0.2871093,0.6471352 0.250651,0.22786451 0.6516925,0.22786451 0.4466144,0 0.6881508,-0.31901031 0.2415364,-0.3235676 0.2415364,-0.911458 0,-0.565104 -0.2779947,-0.8658851 Q 3.0944,-3.3678374 2.5839835,-3.3678374 q -0.4694009,0 -0.7610675,0.2460937 l -0.1276041,0.1184895 z"/>
        <path id="path18564" style="font-weight:bold;font-size:9.33333px;font-family:Roboto, sans-serif;fill:#333333" d="m 10.276689,-2.7434886 q 0,1.3763016 -0.5696611,2.10546798 -0.5696613,0.72916642 -1.6679682,0.72916642 -1.0846351,0 -1.6588536,-0.71549455 Q 5.8059875,-1.3398433 5.7923157,-2.6751293 V -3.896483 q 0,-1.3899735 0.5742185,-2.1100254 0.5787759,-0.7200518 1.6634109,-0.7200518 1.084635,0 1.6588536,0.7154945 0.5742183,0.7109373 0.5878903,2.0462233 z M 8.9596323,-4.0833319 q 0,-0.8248696 -0.2278645,-1.1985673 -0.2233072,-0.3782551 -0.7018227,-0.3782551 -0.4648436,0 -0.6881508,0.3600259 -0.2187499,0.3554686 -0.2324218,1.1165361 v 1.6132807 q 0,0.8111976 0.2187499,1.2076819 0.2233072,0.39192691 0.7109373,0.39192691 0.4830727,0 0.6972654,-0.37825511 0.2141926,-0.3782551 0.2233072,-1.1575517 z"/>
      </g>
    </g>
    <g transform="rotate(27.98,-17,68.234008)" id="g17948">
      <path d="M 0,0 H 5" style="stroke:#333333;stroke-width:1" transform="translate(3)" id="polyline17944"/>
      <g style="font-weight:bold;font-size:9.33333px;font-family:Roboto, sans-serif;fill:#333333" id="text17946" transform="rotate(-27.98,15.024089,-25.832591)" aria-label="200">
        <path id="path18568" style="font-weight:bold;font-size:9.33333px;font-family:Roboto, sans-serif;fill:#333333" d="M 4.9993473,0 H 0.45117172 V -0.90234344 L 2.5976554,-3.1901031 q 0.4420571,-0.4830727 0.6516925,-0.8430987 0.2141926,-0.3600259 0.2141926,-0.6835935 0,-0.4420571 -0.2233072,-0.6927081 -0.2233072,-0.2552082 -0.6380206,-0.2552082 -0.4466145,0 -0.70638,0.3098957 -0.2552083,0.3053385 -0.2552083,0.8066404 H 0.31901031 q 0,-0.6061196 0.28710928,-1.1074215 0.29166656,-0.5013019 0.82031221,-0.7838539 0.5286457,-0.2871093 1.1985673,-0.2871093 1.0253903,0 1.5904943,0.4921873 0.5696612,0.4921874 0.5696612,1.3899735 0,0.4921873 -0.2552082,1.0026038 -0.2552083,0.5104165 -0.8749997,1.1894528 l -1.5084631,1.5904942 h 2.8528637 z"/>
        <path id="path18570" style="font-weight:bold;font-size:9.33333px;font-family:Roboto, sans-serif;fill:#333333" d="m 10.276689,-2.7434886 q 0,1.3763016 -0.5696611,2.10546798 -0.5696613,0.72916642 -1.6679682,0.72916642 -1.0846351,0 -1.6588536,-0.71549455 Q 5.8059875,-1.3398433 5.7923157,-2.6751293 V -3.896483 q 0,-1.3899735 0.5742185,-2.1100254 0.5787759,-0.7200518 1.6634109,-0.7200518 1.084635,0 1.6588536,0.7154945 0.5742183,0.7109373 0.5878903,2.0462233 z M 8.9596323,-4.0833319 q 0,-0.8248696 -0.2278645,-1.1985673 -0.2233072,-0.3782551 -0.7018227,-0.3782551 -0.4648436,0 -0.6881508,0.3600259 -0.2187499,0.3554686 -0.2324218,1.1165361 v 1.6132807 q 0,0.8111976 0.2187499,1.2076819 0.2233072,0.39192691 0.7109373,0.39192691 0.4830727,0 0.6972654,-0.37825511 0.2141926,-0.3782551 0.2233072,-1.1575517 z"/>
        <path id="path18572" style="font-weight:bold;font-size:9.33333px;font-family:Roboto, sans-serif;fill:#333333" d="m 15.636062,-2.7434886 q 0,1.3763016 -0.569661,2.10546798 -0.569661,0.72916642 -1.667968,0.72916642 -1.084635,0 -1.658854,-0.71549455 -0.574218,-0.71549455 -0.58789,-2.05078055 V -3.896483 q 0,-1.3899735 0.574218,-2.1100254 0.578776,-0.7200518 1.663411,-0.7200518 1.084635,0 1.658854,0.7154945 0.574218,0.7109373 0.58789,2.0462233 z m -1.317057,-1.3398433 q 0,-0.8248696 -0.227864,-1.1985673 -0.223307,-0.3782551 -0.701823,-0.3782551 -0.464843,0 -0.688151,0.3600259 -0.21875,0.3554686 -0.232421,1.1165361 v 1.6132807 q 0,0.8111976 0.21875,1.2076819 0.223307,0.39192691 0.710937,0.39192691 0.483073,0 0.697265,-0.37825511 0.214193,-0.3782551 0.223307,-1.1575517 z"/>
      </g>
    </g>
    <g transform="rotate(51.05,-17,35.601256)" id="g17954">
      <path d="M 0,0 H 5" style="stroke:#333333;stroke-width:1" transform="translate(3)" id="polyline17950"/>
      <g style="font-weight:bold;font-size:9.33333px;font-family:Roboto, sans-serif;fill:#333333" id="text17952" transform="rotate(-51.05,11.664835,-14.315149)" aria-label="400HZ">
        <path id="path18576" style="font-weight:bold;font-size:9.33333px;font-family:Roboto, sans-serif;fill:#333333" d="m 4.3476548,-2.497395 h 0.7519528 v 1.0618486 H 4.3476548 V 0 H 3.0305979 V -1.4355464 H 0.30989573 L 0.25065096,-2.2649732 3.0169261,-6.6354144 h 1.3307287 z m -2.7845043,0 h 1.4674474 v -2.3424471 l -0.086588,0.1503906 z"/>
        <path id="path18578" style="font-weight:bold;font-size:9.33333px;font-family:Roboto, sans-serif;fill:#333333" d="m 10.276689,-2.7434886 q 0,1.3763016 -0.5696611,2.10546798 -0.5696613,0.72916642 -1.6679682,0.72916642 -1.0846351,0 -1.6588536,-0.71549455 Q 5.8059875,-1.3398433 5.7923157,-2.6751293 V -3.896483 q 0,-1.3899735 0.5742185,-2.1100254 0.5787759,-0.7200518 1.6634109,-0.7200518 1.084635,0 1.6588536,0.7154945 0.5742183,0.7109373 0.5878903,2.0462233 z M 8.9596323,-4.0833319 q 0,-0.8248696 -0.2278645,-1.1985673 -0.2233072,-0.3782551 -0.7018227,-0.3782551 -0.4648436,0 -0.6881508,0.3600259 -0.2187499,0.3554686 -0.2324218,1.1165361 v 1.6132807 q 0,0.8111976 0.2187499,1.2076819 0.2233072,0.39192691 0.7109373,0.39192691 0.4830727,0 0.6972654,-0.37825511 0.2141926,-0.3782551 0.2233072,-1.1575517 z"/>
        <path id="path18580" style="font-weight:bold;font-size:9.33333px;font-family:Roboto, sans-serif;fill:#333333" d="m 15.636062,-2.7434886 q 0,1.3763016 -0.569661,2.10546798 -0.569661,0.72916642 -1.667968,0.72916642 -1.084635,0 -1.658854,-0.71549455 -0.574218,-0.71549455 -0.58789,-2.05078055 V -3.896483 q 0,-1.3899735 0.574218,-2.1100254 0.578776,-0.7200518 1.663411,-0.7200518 1.084635,0 1.658854,0.7154945 0.574218,0.7109373 0.58789,2.0462233 z m -1.317057,-1.3398433 q 0,-0.8248696 -0.227864,-1.1985673 -0.223307,-0.3782551 -0.701823,-0.3782551 -0.464843,0 -0.688151,0.3600259 -0.21875,0.3554686 -0.232421,1.1165361 v 1.6132807 q 0,0.8111976 0.21875,1.2076819 0.223307,0.39192691 0.710937,0.39192691 0.483073,0 0.697265,-0.37825511 0.214193,-0.3782551 0.223307,-1.1575517 z"/>
        <path id="path18582" style="font-weight:bold;font-size:9.33333px;font-family:Roboto, sans-serif;fill:#333333" d="M 22.070956,0 H 20.703769 V -2.843749 H 18.037754 V 0 h -1.367187 v -6.6354144 h 1.367187 v 2.6888012 h 2.666015 v -2.6888012 h 1.367187 z"/>
        <path id="path18584" style="font-weight:bold;font-size:9.33333px;font-family:Roboto, sans-serif;fill:#333333" d="m 24.71874,-1.0983069 h 3.345051 V 0 h -5.054034 v -0.80208306 l 3.281248,-4.72590984 h -3.276691 v -1.1074215 h 4.976561 v 0.7838539 z"/>
      </g>
    </g>
    <path d="M 0,0 H 3" style="stroke:#333333;stroke-width:0.7" transform="rotate(120,-18.5,10.68098)" id="polyline17956"/>
    <path d="M 0,0 H 3" style="stroke:#333333;stroke-width:0.7" transform="rotate(143.08,-18.5,6.1756554)" id="polyline17958"/>
    <path d="M 0,0 H 3" style="stroke:#333333;stroke-width:0.7" transform="rotate(166.15,-18.5,2.2469368)" id="polyline17960"/>
    <path d="M 0,0 H 3" style="stroke:#333333;stroke-width:0.7" transform="rotate(-147.69,-18.5,-5.3589942)" id="polyline17962"/>
    <path d="M 0,0 H 3" style="stroke:#333333;stroke-width:0.7" transform="rotate(-101.54,-18.5,-15.104369)" id="polyline17964"/>
    <path d="M 0,0 H 3" style="stroke:#333333;stroke-width:0.7" transform="rotate(-78.46,-18.5,-22.659008)" id="polyline17966"/>
    <path d="M 0,0 H 3" style="stroke:#333333;stroke-width:0.7" transform="rotate(-55.38,-18.5,-35.252255)" id="polyline17968"/>
    <path d="M 0,0 H 3" style="stroke:#333333;stroke-width:0.7" transform="rotate(-32.31,-18.5,-63.864596)" id="polyline17970"/>
    <path d="M 0,0 H 3" style="stroke:#333333;stroke-width:0.7" transform="rotate(-9.23,-18.5,-229.1828)" id="polyline17972"/>
    <path d="M 0,0 H 3" style="stroke:#333333;stroke-width:0.7" transform="rotate(13.85,-18.5,152.31848)" id="polyline17974"/>
    <path d="M 0,0 H 3" style="stroke:#333333;stroke-width:0.7" transform="rotate(36.92,-18.5,55.419219)" id="polyline17976"/>
    <path d="M 0,0 H 3" style="stroke:#333333;stroke-width:0.7" transform="rotate(60,-18.5,32.04294)" id="polyline17978"/>
  </g>
  <g style="font-weight:bold;font-size:8px;font-family:Roboto, sans-serif;letter-spacing:1px;fill:#333333" id="text17984" transform="translate(34 133)" aria-label="0V = C-3 = 2.04HZ">
    <path id="path18506" style="font-weight:bold;font-size:8px;font-family:Roboto, sans-serif;letter-spacing:1px;fill:#333333" d="m 4.2148437,-2.3515625 q 0,1.1796875 -0.4882812,1.8046875 -0.4882812,0.625 -1.4296875,0.625 -0.9296875,0 -1.421875,-0.61328125 Q 0.3828125,-1.1484375 0.37109375,-2.2929688 v -1.046875 q 0,-1.1914062 0.4921875,-1.8085937 Q 1.359375,-5.765625 2.2890625,-5.765625 q 0.9296875,0 1.421875,0.6132813 0.4921875,0.609375 0.5039062,1.7539062 z M 3.0859375,-3.5 q 0,-0.7070312 -0.1953125,-1.0273437 -0.1914062,-0.3242188 -0.6015625,-0.3242188 -0.3984375,0 -0.5898438,0.3085938 Q 1.5117187,-4.2382812 1.5,-3.5859375 v 1.3828125 q 0,0.6953125 0.1875,1.0351563 0.1914062,0.33593745 0.609375,0.33593745 0.4140625,0 0.5976563,-0.32421875 0.1835937,-0.3242187 0.1914062,-0.9921875 z"/>
    <path id="path18508" style="font-weight:bold;font-size:8px;font-family:Roboto, sans-serif;letter-spacing:1px;fill:#333333" d="M 8.203125,-1.4101562 9.4921875,-5.6875 H 10.796875 L 8.8164063,0 H 7.59375 L 5.6210937,-5.6875 H 6.921875 Z"/>
    <path id="path18510" style="font-weight:bold;font-size:8px;font-family:Roboto, sans-serif;letter-spacing:1px;fill:#333333" d="m 18.851562,-2.9140625 h -3.492187 v -0.921875 h 3.492187 z m 0,1.6914063 h -3.492187 v -0.9218751 h 3.492187 z"/>
    <path id="path18512" style="font-weight:bold;font-size:8px;font-family:Roboto, sans-serif;letter-spacing:1px;fill:#333333" d="M 28.378906,-1.8945312 Q 28.3125,-0.9765625 27.699219,-0.44921875 27.089844,0.078125 26.089844,0.078125 q -1.09375,0 -1.722657,-0.734375 -0.625,-0.7382812 -0.625,-2.0234375 v -0.3476563 q 0,-0.8203125 0.289063,-1.4453124 0.289062,-0.625 0.824219,-0.9570313 0.539062,-0.3359375 1.25,-0.3359375 0.984375,0 1.585937,0.5273438 0.601563,0.5273437 0.695313,1.4804687 h -1.171875 q -0.04297,-0.5507812 -0.308594,-0.796875 -0.261719,-0.25 -0.800781,-0.25 -0.585938,0 -0.878907,0.421875 -0.289062,0.4179687 -0.296875,1.3007812 v 0.4296875 q 0,0.9218751 0.277344,1.3476563 0.28125,0.42578125 0.882813,0.42578125 0.542968,0 0.808593,-0.24609375 0.269532,-0.25 0.308594,-0.7695312 z"/>
    <path id="path18514" style="font-weight:bold;font-size:8px;font-family:Roboto, sans-serif;letter-spacing:1px;fill:#333333" d="M 32.269531,-1.9804687 H 30.070312 V -2.890625 h 2.199219 z"/>
    <path id="path18516" style="font-weight:bold;font-size:8px;font-family:Roboto, sans-serif;letter-spacing:1px;fill:#333333" d="m 35.285156,-3.34375 h 0.601563 q 0.429687,0 0.636718,-0.2148438 0.207032,-0.2148437 0.207032,-0.5703124 0,-0.34375 -0.207032,-0.5351563 -0.203125,-0.1914062 -0.5625,-0.1914062 -0.324218,0 -0.542968,0.1796875 -0.21875,0.1757812 -0.21875,0.4609375 h -1.128907 q 0,-0.4453125 0.238282,-0.796875 0.242187,-0.3554688 0.671875,-0.5546875 0.433593,-0.1992188 0.953125,-0.1992188 0.902343,0 1.414062,0.4335938 0.511719,0.4296875 0.511719,1.1875 0,0.3906249 -0.238281,0.7187499 -0.238282,0.328125 -0.625,0.5039063 0.480468,0.171875 0.714843,0.515625 0.238282,0.34375 0.238282,0.8125 0,0.7578125 -0.554688,1.21484375 Q 36.84375,0.078125 35.933594,0.078125 q -0.851563,0 -1.394532,-0.44921875 Q 34,-0.8203125 34,-1.5585937 h 1.128906 q 0,0.3203125 0.238281,0.5234375 0.242188,0.20312495 0.59375,0.20312495 0.402344,0 0.628907,-0.21093745 0.230468,-0.2148438 0.230468,-0.5664063 0,-0.8515625 -0.9375,-0.8515625 h -0.597656 z"/>
    <path id="path18518" style="font-weight:bold;font-size:8px;font-family:Roboto, sans-serif;letter-spacing:1px;fill:#333333" d="M 46.367187,-2.9140625 H 42.875 v -0.921875 h 3.492187 z m 0,1.6914063 H 42.875 v -0.9218751 h 3.492187 z"/>
    <path id="path18520" style="font-weight:bold;font-size:8px;font-family:Roboto, sans-serif;letter-spacing:1px;fill:#333333" d="m 55.207031,0 h -3.898437 v -0.7734375 l 1.839843,-1.9609375 q 0.378907,-0.4140625 0.558594,-0.7226563 0.183594,-0.3085937 0.183594,-0.5859374 0,-0.3789063 -0.191406,-0.59375 -0.191407,-0.21875 -0.546875,-0.21875 -0.382813,0 -0.605469,0.265625 -0.21875,0.2617187 -0.21875,0.6914062 h -1.132813 q 0,-0.5195312 0.246094,-0.9492187 0.25,-0.4296875 0.703125,-0.671875 0.453125,-0.2460938 1.027344,-0.2460938 0.878906,0 1.363281,0.421875 0.488281,0.421875 0.488281,1.1914063 0,0.4218749 -0.21875,0.8593749 -0.21875,0.4375 -0.75,1.0195313 l -1.292968,1.36328125 h 2.445312 z"/>
    <path id="path18522" style="font-weight:bold;font-size:8px;font-family:Roboto, sans-serif;letter-spacing:1px;fill:#333333" d="m 57.007812,-0.5546875 q 0,-0.26953125 0.179688,-0.4375 0.183594,-0.1679687 0.457031,-0.1679687 0.277344,0 0.457031,0.1679687 0.183594,0.16796875 0.183594,0.4375 0,0.265625 -0.179687,0.43359375 -0.179688,0.1640625 -0.460938,0.1640625 -0.277344,0 -0.457031,-0.1640625 -0.179688,-0.16796875 -0.179688,-0.43359375 z"/>
    <path id="path18524" style="font-weight:bold;font-size:8px;font-family:Roboto, sans-serif;letter-spacing:1px;fill:#333333" d="m 64.058594,-2.3515625 q 0,1.1796875 -0.488282,1.8046875 -0.488281,0.625 -1.429687,0.625 -0.929688,0 -1.421875,-0.61328125 -0.492188,-0.61328125 -0.503906,-1.75781255 v -1.046875 q 0,-1.1914062 0.492187,-1.8085937 0.496094,-0.6171875 1.425781,-0.6171875 0.929688,0 1.421875,0.6132813 0.492188,0.609375 0.503907,1.7539062 z M 62.929687,-3.5 q 0,-0.7070312 -0.195312,-1.0273437 -0.191406,-0.3242188 -0.601563,-0.3242188 -0.398437,0 -0.589843,0.3085938 -0.1875,0.3046875 -0.199219,0.9570312 v 1.3828125 q 0,0.6953125 0.1875,1.0351563 0.191406,0.33593745 0.609375,0.33593745 0.414062,0 0.597656,-0.32421875 0.183594,-0.3242187 0.191406,-0.9921875 z"/>
    <path id="path18526" style="font-weight:bold;font-size:8px;font-family:Roboto, sans-serif;letter-spacing:1px;fill:#333333" d="m 69.164062,-2.140625 h 0.644532 v 0.9101563 H 69.164062 V 0 H 68.035156 V -1.2304687 H 65.703125 L 65.652344,-1.9414062 68.023437,-5.6875 h 1.140625 z m -2.386718,0 h 1.257812 v -2.0078125 l -0.07422,0.1289063 z"/>
    <path id="path18528" style="font-weight:bold;font-size:8px;font-family:Roboto, sans-serif;letter-spacing:1px;fill:#333333" d="M 76.167969,0 H 74.996094 V -2.4375 H 72.710937 V 0 h -1.171875 v -5.6875 h 1.171875 v 2.3046875 h 2.285157 V -5.6875 h 1.171875 z"/>
    <path id="path18530" style="font-weight:bold;font-size:8px;font-family:Roboto, sans-serif;letter-spacing:1px;fill:#333333" d="m 79.4375,-0.94140625 h 2.867187 V 0 h -4.332031 v -0.6875 l 2.8125,-4.0507812 H 77.976562 V -5.6875 h 4.265625 v 0.671875 z"/>
  </g>
  <g style="font-weight:bold;font-size:8px;font-family:Roboto, sans-serif;letter-spacing:1px;fill:#333333" id="text17986" aria-label="SLOW">
    <path id="path18497" style="font-weight:bold;font-size:8px;font-family:Roboto, sans-serif;letter-spacing:1px;fill:#333333" d="m 113.95703,243.10782 q 0,-0.33203 -0.23437,-0.50781 -0.23438,-0.17969 -0.84375,-0.375 -0.60938,-0.19922 -0.96485,-0.39063 -0.96875,-0.52344 -0.96875,-1.41016 0,-0.46093 0.25782,-0.82031 0.26171,-0.36328 0.74609,-0.5664 0.48828,-0.20313 1.09375,-0.20313 0.60937,0 1.08594,0.22266 0.47656,0.21875 0.73828,0.62109 0.26562,0.40234 0.26562,0.91406 h -1.17187 q 0,-0.39062 -0.2461,-0.60547 -0.24609,-0.21875 -0.6914,-0.21875 -0.42969,0 -0.66797,0.1836 -0.23828,0.17969 -0.23828,0.47656 0,0.27734 0.27734,0.46484 0.28125,0.1875 0.82422,0.35157 1,0.30078 1.45703,0.74609 0.45703,0.44531 0.45703,1.10938 0,0.73828 -0.55859,1.16015 -0.55859,0.41797 -1.50391,0.41797 -0.65625,0 -1.19531,-0.23828 -0.53906,-0.24219 -0.82422,-0.66016 -0.28125,-0.41797 -0.28125,-0.96875 h 1.17578 q 0,0.94141 1.125,0.94141 0.41797,0 0.65235,-0.16797 0.23437,-0.17187 0.23437,-0.47656 z"/>
    <path id="path18499" style="font-weight:bold;font-size:8px;font-family:Roboto, sans-serif;letter-spacing:1px;fill:#333333" d="m 118.10156,243.6586 h 2.48828 v 0.94141 h -3.66015 v -5.6875 h 1.17187 z"/>
    <path id="path18501" style="font-weight:bold;font-size:8px;font-family:Roboto, sans-serif;letter-spacing:1px;fill:#333333" d="m 126.67969,241.88516 q 0,0.83985 -0.29688,1.47266 -0.29687,0.63281 -0.85156,0.97656 -0.55078,0.34375 -1.26562,0.34375 -0.70704,0 -1.26172,-0.33984 -0.55469,-0.33985 -0.85938,-0.96875 -0.30469,-0.63282 -0.30859,-1.45313 v -0.28125 q 0,-0.83984 0.30078,-1.47656 0.30469,-0.64063 0.85547,-0.98047 0.55469,-0.34375 1.26562,-0.34375 0.71094,0 1.26172,0.34375 0.55469,0.33984 0.85547,0.98047 0.30469,0.63672 0.30469,1.47266 z m -1.1875,-0.25781 q 0,-0.89453 -0.32031,-1.35938 -0.32032,-0.46484 -0.91407,-0.46484 -0.58984,0 -0.91015,0.46094 -0.32032,0.45703 -0.32422,1.34375 v 0.27734 q 0,0.8711 0.32031,1.35156 0.32031,0.48047 0.92188,0.48047 0.58984,0 0.90625,-0.46093 0.3164,-0.46485 0.32031,-1.35157 z"/>
    <path id="path18503" style="font-weight:bold;font-size:8px;font-family:Roboto, sans-serif;letter-spacing:1px;fill:#333333" d="m 132.96875,242.95938 0.76562,-4.04687 h 1.16797 l -1.26172,5.6875 h -1.17968 l -0.92578,-3.80469 -0.92579,3.80469 h -1.17968 l -1.26172,-5.6875 h 1.16797 l 0.76953,4.03906 0.9375,-4.03906 h 0.99219 z"/>
  </g>
  <g transform="translate(137,237.5)" id="g17988"/>
  <g transform="translate(17,150)" id="g17996">
    <g style="font-weight:bold;font-size:10.6667px;font-family:Roboto, sans-serif;letter-spacing:2px;fill:#333333" id="text17992" transform="rotate(-90,17.5,9.5)" aria-label="SAM">
      <path id="path18490" style="font-weight:bold;font-size:10.6667px;font-family:Roboto, sans-serif;letter-spacing:2px;fill:#333333" d="m 4.6093896,-1.9895896 q 0,-0.4427098 -0.312501,-0.6770855 Q 3.9843876,-2.9062592 3.171885,-3.1666767 2.3593825,-3.4323025 1.8854226,-3.6875116 0.59375188,-4.3854305 0.59375188,-5.5677259 q 0,-0.6145853 0.34375108,-1.0937535 0.34895944,-0.4843765 0.99479484,-0.7552107 0.6510437,-0.2708342 1.4583379,-0.2708342 0.8125026,0 1.4479213,0.296876 0.6354186,0.2916675 0.9843781,0.8281276 0.3541677,0.53646 0.3541677,1.2187538 H 4.6145979 q 0,-0.520835 -0.328126,-0.8072942 -0.3281261,-0.2916676 -0.9218779,-0.2916676 -0.5729185,0 -0.8906279,0.2447925 -0.3177093,0.239584 -0.3177093,0.6354186 0,0.3697929 0.3697928,0.6197937 0.3750012,0.2500007 1.0989619,0.4687514 1.3333375,0.401043 1.9427144,0.9947948 0.6093769,0.5937519 0.6093769,1.4791714 0,0.9843781 -0.744794,1.54687987 Q 4.6875148,0.104167 3.4270942,0.104167 q -0.8750028,0 -1.5937551,-0.31770934 Q 1.1145869,-0.53646003 0.73437732,-1.0937535 0.35937614,-1.6510469 0.35937614,-2.3854242 H 1.9270894 q 0,1.2552123 1.5000048,1.2552123 0.5572934,0 0.8697944,-0.223959 0.312501,-0.2291674 0.312501,-0.6354187 z"/>
      <path id="path18492" style="font-weight:bold;font-size:10.6667px;font-family:Roboto, sans-serif;letter-spacing:2px;fill:#333333" d="M 13.52087,-1.5625049 H 10.781278 L 10.260443,0 H 8.5989794 l 2.8229256,-7.5833573 h 1.447921 L 15.708377,0 h -1.661464 z m -2.317716,-1.265629 h 1.89584 l -0.953128,-2.8385507 z"/>
      <path id="path18494" style="font-weight:bold;font-size:10.6667px;font-family:Roboto, sans-serif;letter-spacing:2px;fill:#333333" d="m 20.468802,-7.5833573 1.947923,5.5000174 1.937506,-5.5000174 h 2.05209 V 0 H 24.838608 V -2.0729232 L 24.994858,-5.6510595 22.947977,0 h -1.07292 l -2.041673,-5.6458512 0.15625,3.572928 V 0 h -1.562505 v -7.5833573 z"/>
    </g>
    <g transform="translate(20)" id="g17994"/>
  </g>
  <g transform="translate(27.5,140.4)" id="g18022">
    <g transform="translate(22.5,22.5)" id="g18020">
      <g style="font-weight:bold;font-size:6.66667px;font-family:Roboto, sans-serif;fill:#333333" id="text17998" transform="translate(-11,17.588457)" aria-label="0">
        <path id="path18477" style="font-weight:bold;font-size:6.66667px;font-family:Roboto, sans-serif;fill:#333333" d="m 3.5123715,-1.9596364 q 0,0.98307343 -0.4069013,1.50390702 Q 2.698569,0.0651042 1.9140634,0.0651042 q -0.7747399,0 -1.18489639,-0.51106795 Q 0.31901057,-0.95703171 0.30924494,-1.9108082 v -0.8723963 q 0,-0.992839 0.41015644,-1.5071621 0.41341162,-0.5143232 1.18815162,-0.5143232 0.7747399,0 1.1848964,0.511068 0.4101564,0.5078127 0.4199221,1.4615892 z M 2.5716158,-2.9166681 q 0,-0.5891929 -0.1627605,-0.8561202 Q 2.24935,-4.0429707 1.907553,-4.0429707 q -0.3320314,0 -0.4915367,0.2571616 -0.1562501,0.2539064 -0.1660157,0.7975264 v 1.1523443 q 0,0.5794274 0.1562501,0.86263064 0.1595053,0.27994805 0.5078127,0.27994805 0.3450523,0 0.4980471,-0.27018242 0.1529949,-0.27018237 0.1595053,-0.82682327 z"/>
      </g>
      <path d="M 0,0 H 2.5" style="stroke:#333333;stroke-width:0.3" transform="rotate(150,-7.5,2.0096189)" id="polyline18000"/>
      <path d="M 0,0 H 2.5" style="stroke:#333333;stroke-width:0.3" transform="rotate(180,-7.5,0)" id="polyline18002"/>
      <path d="M 0,0 H 2.5" style="stroke:#333333;stroke-width:0.3" transform="rotate(-150,-7.5,-2.0096189)" id="polyline18004"/>
      <path d="M 0,0 H 2.5" style="stroke:#333333;stroke-width:0.3" transform="rotate(-120,-7.5,-4.330127)" id="polyline18006"/>
      <path d="M 0,0 H 2.5" style="stroke:#333333;stroke-width:0.3" transform="rotate(-90,-7.5,-7.5)" id="polyline18008"/>
      <path d="M 0,0 H 2.5" style="stroke:#333333;stroke-width:0.3" transform="rotate(-60,-7.5,-12.990381)" id="polyline18010"/>
      <path d="M 0,0 H 2.5" style="stroke:#333333;stroke-width:0.3" transform="rotate(-30,-7.5,-27.990381)" id="polyline18012"/>
      <path d="M 0,0 H 2.5" style="stroke:#333333;stroke-width:0.3" transform="translate(15)" id="polyline18014"/>
      <path d="M 0,0 H 2.5" style="stroke:#333333;stroke-width:0.3" transform="rotate(30,-7.5,27.990381)" id="polyline18016"/>
      <path d="M 0,0 H 3.5" style="stroke:#333333;stroke-width:1" transform="rotate(60,-7.5,12.990381)" id="polyline18018"/>
    </g>
  </g>
  <g transform="translate(82,150)" id="g18028">
    <g style="font-weight:bold;font-size:10.6667px;font-family:Roboto, sans-serif;letter-spacing:2px;fill:#333333" id="text18024" transform="rotate(-90,15.25,7.25)" aria-label="PW">
      <path id="path18472" style="font-weight:bold;font-size:10.6667px;font-family:Roboto, sans-serif;letter-spacing:2px;fill:#333333" d="M 2.2395904,-2.6718834 V 0 H 0.67708547 V -7.5833573 H 3.6354282 q 0.8541693,0 1.5000047,0.312501 0.6510437,0.312501 1.0000031,0.8906278 0.3489595,0.5729185 0.3489595,1.3072958 0,1.1145869 -0.7656274,1.7604222 -0.7604191,0.6406271 -2.1093817,0.6406271 z m 0,-1.265629 h 1.3958378 q 0.6197936,0 0.9427113,-0.2916676 0.328126,-0.2916676 0.328126,-0.833336 0,-0.5572934 -0.328126,-0.9010445 Q 4.2500134,-6.3073116 3.6718866,-6.3177283 H 2.2395904 Z"/>
      <path id="path18474" style="font-weight:bold;font-size:10.6667px;font-family:Roboto, sans-serif;letter-spacing:2px;fill:#333333" d="m 15.458376,-2.1875069 1.020837,-5.3958504 h 1.557296 L 16.354212,0 H 14.781291 L 13.546912,-5.0729327 12.312533,0 H 10.739611 L 9.0573142,-7.5833573 h 1.5572968 l 1.026045,5.3854337 1.250004,-5.3854337 h 1.32292 z"/>
    </g>
    <g transform="translate(20)" id="g18026"/>
  </g>
  <g transform="translate(92.5,140.4)" id="g18076">
    <g transform="translate(22.5,22.5)" id="g18074">
      <g transform="rotate(120,-7.5,4.330127)" id="g18032">
        <g style="font-weight:bold;font-size:12px;font-family:Roboto, sans-serif;fill:#333333" id="text18030" transform="rotate(-120,3.6392305,-2.0309401)" aria-label="-">
          <path id="path18455" style="font-weight:bold;font-size:12px;font-family:Roboto, sans-serif;fill:#333333" d="M 3.9433594,-2.9707031 H 0.64453125 V -4.3359375 H 3.9433594 Z"/>
        </g>
      </g>
      <g transform="rotate(150,-7.5,2.0096189)" id="g18036">
        <path d="M 0,0 H 2.5" style="stroke:#333333;stroke-width:0.3" id="polyline18034"/>
      </g>
      <g transform="rotate(180,-7.5,0)" id="g18040">
        <path d="M 0,0 H 2.5" style="stroke:#333333;stroke-width:0.3" id="polyline18038"/>
      </g>
      <g transform="rotate(-150,-7.5,-2.0096189)" id="g18044">
        <path d="M 0,0 H 2.5" style="stroke:#333333;stroke-width:0.3" id="polyline18042"/>
      </g>
      <g transform="rotate(-120,-7.5,-4.330127)" id="g18048">
        <path d="M 0,0 H 2.5" style="stroke:#333333;stroke-width:0.3" id="polyline18046"/>
      </g>
      <g transform="rotate(-90,-7.5,-7.5)" id="g18052">
        <g style="font-weight:bold;font-size:6.66667px;font-family:Roboto, sans-serif;fill:#333333" id="text18050" transform="rotate(90,1,-1)" aria-label="0">
          <path id="path18462" style="font-weight:bold;font-size:6.66667px;font-family:Roboto, sans-serif;fill:#333333" d="m 3.5123715,-1.9596364 q 0,0.98307343 -0.4069013,1.50390702 Q 2.698569,0.0651042 1.9140634,0.0651042 q -0.7747399,0 -1.18489639,-0.51106795 Q 0.31901057,-0.95703171 0.30924494,-1.9108082 v -0.8723963 q 0,-0.992839 0.41015644,-1.5071621 0.41341162,-0.5143232 1.18815162,-0.5143232 0.7747399,0 1.1848964,0.511068 0.4101564,0.5078127 0.4199221,1.4615892 z M 2.5716158,-2.9166681 q 0,-0.5891929 -0.1627605,-0.8561202 Q 2.24935,-4.0429707 1.907553,-4.0429707 q -0.3320314,0 -0.4915367,0.2571616 -0.1562501,0.2539064 -0.1660157,0.7975264 v 1.1523443 q 0,0.5794274 0.1562501,0.86263064 0.1595053,0.27994805 0.5078127,0.27994805 0.3450523,0 0.4980471,-0.27018242 0.1529949,-0.27018237 0.1595053,-0.82682327 z"/>
        </g>
      </g>
      <g transform="rotate(-60,-7.5,-12.990381)" id="g18056">
        <path d="M 0,0 H 2.5" style="stroke:#333333;stroke-width:0.3" id="polyline18054"/>
      </g>
      <g transform="rotate(-30,-7.5,-27.990381)" id="g18060">
        <path d="M 0,0 H 2.5" style="stroke:#333333;stroke-width:0.3" id="polyline18058"/>
      </g>
      <g transform="translate(15)" id="g18064">
        <path d="M 0,0 H 2.5" style="stroke:#333333;stroke-width:0.3" id="polyline18062"/>
      </g>
      <g transform="rotate(30,-7.5,27.990381)" id="g18068">
        <path d="M 0,0 H 2.5" style="stroke:#333333;stroke-width:0.3" id="polyline18066"/>
      </g>
      <g transform="rotate(60,-7.5,12.990381)" id="g18072">
        <g style="font-weight:bold;font-size:6.66667px;font-family:Roboto, sans-serif;fill:#333333" id="text18070" transform="rotate(-60,4.2320508,-1.8660254)" aria-label="+">
          <path id="path18469" style="font-weight:bold;font-size:6.66667px;font-family:Roboto, sans-serif;fill:#333333" d="m 2.2591157,-2.6529961 h 1.1751307 v 0.8496098 H 2.2591157 v 1.32812566 H 1.3639329 V -1.8033863 H 0.18554696 V -2.6529961 H 1.3639329 v -1.272787 h 0.8951828 z"/>
        </g>
      </g>
    </g>
  </g>
  <g transform="translate(17,196)" id="g18084">
    <g style="font-weight:bold;font-size:10.6667px;font-family:Roboto, sans-serif;letter-spacing:2px;fill:#333333" id="text18080" transform="rotate(-90,13,5)" aria-label="OFF">
      <path id="path18448" style="font-weight:bold;font-size:10.6667px;font-family:Roboto, sans-serif;letter-spacing:2px;fill:#333333" d="m 6.9062718,-3.6198031 q 0,1.1197952 -0.3958346,1.9635479 Q 6.1146026,-0.81250257 5.375017,-0.35416779 4.6406397,0.104167 3.6875116,0.104167 q -0.9427113,0 -1.6822969,-0.45312644 Q 1.265629,-0.80208587 0.85937771,-1.6406302 0.45312643,-2.4843828 0.44791808,-3.5781363 v -0.3750012 q 0,-1.1197952 0.40104294,-1.9687562 0.40625128,-0.8541694 1.14062858,-1.3072958 0.7395857,-0.4583348 1.6875053,-0.4583348 0.9479197,0 1.682297,0.4583348 0.7395857,0.4531264 1.1406286,1.3072958 0.4062513,0.848961 0.4062513,1.9635479 z M 5.3229335,-3.9635542 q 0,-1.1927121 -0.4270847,-1.8125057 -0.4270847,-0.6197936 -1.2187539,-0.6197936 -0.7864608,0 -1.2135455,0.6145852 -0.4270846,0.609377 -0.432293,1.7916724 v 0.3697928 q 0,1.161462 0.4270847,1.802089 0.4270847,0.640627 1.2291705,0.640627 0.7864609,0 1.2083372,-0.6145852 0.4218763,-0.6197937 0.4270847,-1.8020891 z"/>
      <path id="path18450" style="font-weight:bold;font-size:10.6667px;font-family:Roboto, sans-serif;letter-spacing:2px;fill:#333333" d="m 14.614623,-3.0989681 h -3.00001 V 0 h -1.562505 v -7.5833573 h 4.937516 v 1.265629 h -3.375011 v 1.9583395 h 3.00001 z"/>
      <path id="path18452" style="font-weight:bold;font-size:10.6667px;font-family:Roboto, sans-serif;letter-spacing:2px;fill:#333333" d="m 22.468808,-3.0989681 h -3.00001 V 0 h -1.562505 v -7.5833573 h 4.937516 v 1.265629 h -3.375011 v 1.9583395 h 3.00001 z"/>
    </g>
    <g transform="translate(25)" id="g18082"/>
  </g>
  <g transform="translate(30,184)" id="g18100">
    <g transform="translate(20,20)" id="g18098">
      <g transform="rotate(-90,-5,-5)" id="g18088">
        <path d="M 0,0 H 4" style="stroke:#333333;stroke-width:1" id="polyline18086"/>
      </g>
      <path d="M 0,-12.5 A 12.5,12.5 0 0 1 12.5,0" stroke-width="0.5" stroke-linecap="round" fill="none" transform="rotate(20)" id="path18090"/>
      <path d="M 0,-12.5 A 12.5,12.5 0 0 1 12.5,0" stroke-width="0.5" stroke-linecap="round" fill="none" transform="rotate(43)" id="path18092"/>
      <path d="M 0,-12.5 A 12.5,12.5 0 0 0 -12.5,0" stroke-width="0.5" stroke-linecap="round" fill="none" transform="rotate(-20)" id="path18094"/>
      <path d="M 0,-12.5 A 12.5,12.5 0 0 0 -12.5,0" stroke-width="0.5" stroke-linecap="round" fill="none" transform="rotate(-43)" id="path18096"/>
    </g>
  </g>
  <g transform="translate(82,196)" id="g18106">
    <g style="font-weight:bold;font-size:10.6667px;font-family:Roboto, sans-serif;letter-spacing:2px;fill:#333333" id="text18102" transform="rotate(-90,13,5)" aria-label="SCL">
      <path id="path18440" style="font-weight:bold;font-size:10.6667px;font-family:Roboto, sans-serif;letter-spacing:2px;fill:#333333" d="m 4.6093896,-1.9895896 q 0,-0.4427098 -0.312501,-0.6770855 Q 3.9843876,-2.9062592 3.171885,-3.1666767 2.3593825,-3.4323025 1.8854226,-3.6875116 0.59375188,-4.3854305 0.59375188,-5.5677259 q 0,-0.6145853 0.34375108,-1.0937535 0.34895944,-0.4843765 0.99479484,-0.7552107 0.6510437,-0.2708342 1.4583379,-0.2708342 0.8125026,0 1.4479213,0.296876 0.6354186,0.2916675 0.9843781,0.8281276 0.3541677,0.53646 0.3541677,1.2187538 H 4.6145979 q 0,-0.520835 -0.328126,-0.8072942 -0.3281261,-0.2916676 -0.9218779,-0.2916676 -0.5729185,0 -0.8906279,0.2447925 -0.3177093,0.239584 -0.3177093,0.6354186 0,0.3697929 0.3697928,0.6197937 0.3750012,0.2500007 1.0989619,0.4687514 1.3333375,0.401043 1.9427144,0.9947948 0.6093769,0.5937519 0.6093769,1.4791714 0,0.9843781 -0.744794,1.54687987 Q 4.6875148,0.104167 3.4270942,0.104167 q -0.8750028,0 -1.5937551,-0.31770934 Q 1.1145869,-0.53646003 0.73437732,-1.0937535 0.35937614,-1.6510469 0.35937614,-2.3854242 H 1.9270894 q 0,1.2552123 1.5000048,1.2552123 0.5572934,0 0.8697944,-0.223959 0.312501,-0.2291674 0.312501,-0.6354187 z"/>
      <path id="path18442" style="font-weight:bold;font-size:10.6667px;font-family:Roboto, sans-serif;letter-spacing:2px;fill:#333333" d="m 15.19275,-2.5260496 q -0.08854,1.2239622 -0.906253,1.92708937 -0.812502,0.70312723 -2.14584,0.70312723 -1.458338,0 -2.296882,-0.97916976 Q 9.0104391,-1.8593809 9.0104391,-3.572928 v -0.4635431 q 0,-1.0937534 0.3854178,-1.9270894 0.3854179,-0.833336 1.0989621,-1.2760457 0.718752,-0.4479181 1.666672,-0.4479181 1.312504,0 2.11459,0.7031272 0.802086,0.7031273 0.927086,1.9739646 h -1.562505 q -0.05729,-0.7343773 -0.41146,-1.0625034 -0.348959,-0.3333343 -1.067711,-0.3333343 -0.781253,0 -1.171879,0.5625017 -0.385418,0.5572935 -0.395835,1.7343805 v 0.5729185 q 0,1.2291705 0.369793,1.7968807 0.375001,0.5677101 1.177087,0.5677101 0.723961,0 1.078129,-0.328126 0.359376,-0.3333344 0.411459,-1.0260449 z"/>
      <path id="path18444" style="font-weight:bold;font-size:10.6667px;font-family:Roboto, sans-serif;letter-spacing:2px;fill:#333333" d="m 19.7813,-1.2552123 h 3.317719 V 0 H 18.218795 V -7.5833573 H 19.7813 Z"/>
    </g>
    <g transform="translate(25)" id="g18104"/>
  </g>
  <g transform="translate(95,184)" id="g18122">
    <g transform="translate(20,20)" id="g18120">
      <g transform="rotate(120,-5,2.8867513)" id="g18110">
        <path d="M 0,0 H 4" style="stroke:#333333;stroke-width:1" id="polyline18108"/>
      </g>
      <path d="M 0,-12.5 A 12.5,12.5 0 0 1 12.5,0" stroke-width="0.5" stroke-linecap="round" fill="none" id="path18112"/>
      <path d="M 0,-12.5 A 12.5,12.5 0 0 1 12.5,0" stroke-width="0.5" stroke-linecap="round" fill="none" transform="rotate(43)" id="path18114"/>
      <path d="M 0,-12.5 A 12.5,12.5 0 0 0 -12.5,0" stroke-width="0.5" stroke-linecap="round" fill="none" id="path18116"/>
      <path d="M 0,-12.5 A 12.5,12.5 0 0 0 -12.5,0" stroke-width="0.5" stroke-linecap="round" fill="none" transform="rotate(-43)" id="path18118"/>
    </g>
  </g>
  <path d="m 15,269 h 120 c 2.77,0 5,2.23 5,5 v 81 c 0,2.77 -2.23,5 -5,5 H 15 c -2.77,0 -5,-2.23 -5,-5 v -81 c 0,-2.77 2.23,-5 5,-5 z" style="fill:#bbbbbb" id="rect18126"/>
  <path d="m 15,225 h 87.5 c 2.77,0 5,2.23 5,5 v 125 c 0,2.77 -2.23,5 -5,5 H 15 c -2.77,0 -5,-2.23 -5,-5 V 230 c 0,-2.77 2.23,-5 5,-5 z" style="fill:#bbbbbb" id="rect18128"/>
  <path d="m 15,225 h 55 c 2.77,0 5,2.23 5,5 v 125 c 0,2.77 -2.23,5 -5,5 H 15 c -2.77,0 -5,-2.23 -5,-5 V 230 c 0,-2.77 2.23,-5 5,-5 z" style="fill:#fafafa" id="rect18130"/>
  <path d="m 32.5,225 h 10 v 8 h -10 z" style="fill:#fafafa" id="rect18132"/>
  <path d="m 65,225 h 10 v 8 H 65 Z" style="fill:#fafafa" id="rect18134"/>
  <path d="m 65,352 h 10 v 8 H 65 Z" style="fill:#fafafa" id="rect18136"/>
  <g transform="translate(12,225)" id="g18142">
    <g transform="translate(3,5)" id="g18138"/>
    <g style="font-weight:bold;font-size:8px;font-family:Roboto, sans-serif;letter-spacing:1px;fill:#333333" id="text18140" transform="translate(5,40)" aria-label="SAM">
      <path id="path18426" style="font-weight:bold;font-size:8px;font-family:Roboto, sans-serif;letter-spacing:1px;fill:#333333" d="m 3.4570313,-1.4921875 q 0,-0.3320312 -0.234375,-0.5078125 -0.234375,-0.1796875 -0.84375,-0.375 -0.6093751,-0.1992188 -0.9648438,-0.390625 -0.96875,-0.5234375 -0.96875,-1.4101562 0,-0.4609375 0.2578125,-0.8203125 Q 0.96484375,-5.359375 1.4492187,-5.5625 1.9375,-5.765625 2.5429688,-5.765625 q 0.609375,0 1.0859375,0.2226563 0.4765624,0.21875 0.7382812,0.6210937 0.265625,0.4023438 0.265625,0.9140625 h -1.171875 q 0,-0.390625 -0.2460937,-0.6054687 -0.2460938,-0.21875 -0.6914063,-0.21875 -0.4296875,0 -0.6679688,0.1835937 -0.2382812,0.1796875 -0.2382812,0.4765625 0,0.2773437 0.2773437,0.4648437 0.2812501,0.1875 0.8242188,0.3515625 1,0.3007813 1.4570312,0.7460938 0.4570313,0.4453125 0.4570313,1.109375 0,0.73828125 -0.5585938,1.16015625 Q 3.515625,0.078125 2.5703125,0.078125 q -0.65625,0 -1.1953125,-0.23828125 -0.5390625,-0.2421875 -0.82421875,-0.66015625 -0.28125,-0.4179687 -0.28125,-0.96875 H 1.4453125 q 0,0.94140625 1.125,0.94140625 0.4179688,0 0.6523438,-0.16796875 0.234375,-0.171875 0.234375,-0.4765625 z"/>
      <path id="path18428" style="font-weight:bold;font-size:8px;font-family:Roboto, sans-serif;letter-spacing:1px;fill:#333333" d="M 9.640625,-1.171875 H 7.5859375 L 7.1953125,0 H 5.9492187 L 8.0664063,-5.6875 H 9.1523438 L 11.28125,0 H 10.035156 Z M 7.9023437,-2.1210938 H 9.3242188 L 8.609375,-4.25 Z"/>
      <path id="path18430" style="font-weight:bold;font-size:8px;font-family:Roboto, sans-serif;letter-spacing:1px;fill:#333333" d="m 14.351563,-5.6875 1.460937,4.125 1.453125,-4.125 h 1.539062 V 0 H 17.628906 V -1.5546875 L 17.746094,-4.2382812 16.210937,0 H 15.40625 L 13.875,-4.234375 13.992188,-1.5546875 V 0 h -1.171875 v -5.6875 z"/>
    </g>
  </g>
  <g transform="translate(44,225)" id="g18148">
    <g transform="translate(3,5)" id="g18144"/>
    <g style="font-weight:bold;font-size:8px;font-family:Roboto, sans-serif;letter-spacing:1px;fill:#333333" id="text18146" transform="translate(8,40)" aria-label="PW">
      <path id="path18421" style="font-weight:bold;font-size:8px;font-family:Roboto, sans-serif;letter-spacing:1px;fill:#333333" d="M 1.6796875,-2.0039063 V 0 h -1.171875 v -5.6875 h 2.21875 q 0.640625,0 1.125,0.234375 0.4882812,0.234375 0.75,0.6679688 0.2617187,0.4296875 0.2617187,0.9804687 0,0.8359375 -0.5742187,1.3203125 -0.5703125,0.4804687 -1.5820312,0.4804687 z m 0,-0.9492187 h 1.046875 q 0.4648438,0 0.7070313,-0.21875 0.2460937,-0.21875 0.2460937,-0.625 0,-0.4179687 -0.2460937,-0.6757812 Q 3.1875,-4.7304687 2.7539063,-4.7382812 H 1.6796875 Z"/>
      <path id="path18423" style="font-weight:bold;font-size:8px;font-family:Roboto, sans-serif;letter-spacing:1px;fill:#333333" d="M 11.09375,-1.640625 11.859375,-5.6875 h 1.167969 L 11.765625,0 H 10.585938 L 9.6601563,-3.8046875 8.734375,0 H 7.5546875 L 6.2929687,-5.6875 h 1.1679688 l 0.7695313,4.0390625 0.9375,-4.0390625 h 0.9921872 z"/>
    </g>
  </g>
  <g transform="translate(76,225)" id="g18156">
    <g transform="translate(3,5)" id="g18150"/>
    <g transform="translate(9,33.5)" id="g18154">
      <path d="M 0,8 V 0 l 12,8" style="fill:none;stroke:#333333;stroke-width:1" id="polyline18152"/>
    </g>
  </g>
  <g transform="translate(0,269)" id="g18218">
    <g transform="translate(12)" id="g18162">
      <g transform="translate(3,5)" id="g18158"/>
      <g style="font-weight:bold;font-size:8px;font-family:Roboto, sans-serif;letter-spacing:1px;fill:#333333" id="text18160" transform="translate(6.5,40)" aria-label="OFF">
        <path id="path18381" style="font-weight:bold;font-size:8px;font-family:Roboto, sans-serif;letter-spacing:1px;fill:#333333" d="m 5.1796875,-2.7148438 q 0,0.8398438 -0.296875,1.4726563 -0.296875,0.6328125 -0.8515625,0.9765625 -0.5507812,0.34375 -1.265625,0.34375 -0.7070312,0 -1.2617188,-0.33984375 Q 0.94921875,-0.6015625 0.64453125,-1.2304687 0.33984375,-1.8632812 0.3359375,-2.6835938 v -0.28125 q 0,-0.8398437 0.30078125,-1.4765624 0.3046875,-0.640625 0.85546875,-0.9804688 0.5546875,-0.34375 1.265625,-0.34375 0.7109375,0 1.2617187,0.34375 0.5546875,0.3398438 0.8554688,0.9804688 0.3046875,0.6367187 0.3046875,1.4726562 z m -1.1875,-0.2578125 q 0,-0.8945312 -0.3203125,-1.3593749 -0.3203125,-0.4648438 -0.9140625,-0.4648438 -0.5898437,0 -0.9101563,0.4609375 -0.3203125,0.4570312 -0.3242187,1.34375 v 0.2773437 q 0,0.8710938 0.3203125,1.3515626 0.3203125,0.4804687 0.921875,0.4804687 0.5898438,0 0.90625,-0.4609375 0.3164063,-0.4648437 0.3203125,-1.3515625 z"/>
        <path id="path18383" style="font-weight:bold;font-size:8px;font-family:Roboto, sans-serif;letter-spacing:1px;fill:#333333" d="M 10.460938,-2.3242188 H 8.2109375 V 0 h -1.171875 v -5.6875 h 3.7031255 v 0.9492188 H 8.2109375 v 1.4687499 h 2.2500005 z"/>
        <path id="path18385" style="font-weight:bold;font-size:8px;font-family:Roboto, sans-serif;letter-spacing:1px;fill:#333333" d="m 15.851563,-2.3242188 h -2.25 V 0 h -1.171875 v -5.6875 h 3.703124 v 0.9492188 h -2.531249 v 1.4687499 h 2.25 z"/>
      </g>
    </g>
    <g transform="translate(44)" id="g18168">
      <g transform="translate(3,5)" id="g18164"/>
      <g style="font-weight:bold;font-size:8px;font-family:Roboto, sans-serif;letter-spacing:1px;fill:#333333" id="text18166" transform="translate(6.5,40)" aria-label="SCL">
        <path id="path18388" style="font-weight:bold;font-size:8px;font-family:Roboto, sans-serif;letter-spacing:1px;fill:#333333" d="m 3.4570313,-1.4921875 q 0,-0.3320312 -0.234375,-0.5078125 -0.234375,-0.1796875 -0.84375,-0.375 -0.6093751,-0.1992188 -0.9648438,-0.390625 -0.96875,-0.5234375 -0.96875,-1.4101562 0,-0.4609375 0.2578125,-0.8203125 Q 0.96484375,-5.359375 1.4492187,-5.5625 1.9375,-5.765625 2.5429688,-5.765625 q 0.609375,0 1.0859375,0.2226563 0.4765624,0.21875 0.7382812,0.6210937 0.265625,0.4023438 0.265625,0.9140625 h -1.171875 q 0,-0.390625 -0.2460937,-0.6054687 -0.2460938,-0.21875 -0.6914063,-0.21875 -0.4296875,0 -0.6679688,0.1835937 -0.2382812,0.1796875 -0.2382812,0.4765625 0,0.2773437 0.2773437,0.4648437 0.2812501,0.1875 0.8242188,0.3515625 1,0.3007813 1.4570312,0.7460938 0.4570313,0.4453125 0.4570313,1.109375 0,0.73828125 -0.5585938,1.16015625 Q 3.515625,0.078125 2.5703125,0.078125 q -0.65625,0 -1.1953125,-0.23828125 -0.5390625,-0.2421875 -0.82421875,-0.66015625 -0.28125,-0.4179687 -0.28125,-0.96875 H 1.4453125 q 0,0.94140625 1.125,0.94140625 0.4179688,0 0.6523438,-0.16796875 0.234375,-0.171875 0.234375,-0.4765625 z"/>
        <path id="path18390" style="font-weight:bold;font-size:8px;font-family:Roboto, sans-serif;letter-spacing:1px;fill:#333333" d="m 10.894531,-1.8945312 q -0.06641,0.9179687 -0.679687,1.44531245 Q 9.6054688,0.078125 8.6054688,0.078125 q -1.0937501,0 -1.7226563,-0.734375 -0.625,-0.7382812 -0.625,-2.0234375 v -0.3476563 q 0,-0.8203125 0.2890625,-1.4453124 0.2890625,-0.625 0.8242187,-0.9570313 0.5390625,-0.3359375 1.2500001,-0.3359375 0.984375,0 1.5859372,0.5273438 0.601563,0.5273437 0.695313,1.4804687 H 9.7304688 Q 9.6875,-4.3085937 9.421875,-4.5546875 q -0.2617187,-0.25 -0.8007812,-0.25 -0.5859375,0 -0.8789063,0.421875 -0.2890625,0.4179687 -0.296875,1.3007812 v 0.4296875 q 0,0.9218751 0.2773437,1.3476563 0.2812501,0.42578125 0.8828126,0.42578125 0.5429687,0 0.8085937,-0.24609375 0.2695313,-0.25 0.3085938,-0.7695312 z"/>
        <path id="path18392" style="font-weight:bold;font-size:8px;font-family:Roboto, sans-serif;letter-spacing:1px;fill:#333333" d="m 13.835938,-0.94140625 h 2.488281 V 0 h -3.660156 v -5.6875 h 1.171875 z"/>
      </g>
    </g>
    <g transform="translate(76)" id="g18176">
      <g transform="translate(3,5)" id="g18170"/>
      <g transform="translate(9,33.5)" id="g18174">
        <path d="M 0,8 12,0 v 8" style="fill:none;stroke:#333333;stroke-width:1" id="polyline18172"/>
      </g>
    </g>
    <g transform="translate(108)" id="g18184">
      <g transform="translate(3,5)" id="g18178"/>
      <g transform="translate(9,33.5)" id="g18182">
        <path d="M 0,4 V 0 h 6 v 8 h 6 V 4" style="fill:none;stroke:#333333;stroke-width:1" id="polyline18180"/>
      </g>
    </g>
    <g transform="translate(10,44)" id="g18216">
      <g transform="translate(2)" id="g18190">
        <g transform="translate(3,5)" id="g18186"/>
        <g style="font-weight:bold;font-size:8px;font-family:Roboto, sans-serif;letter-spacing:1px;fill:#333333" id="text18188" transform="translate(1,40)" aria-label="V/OCT">
          <path id="path18397" style="font-weight:bold;font-size:8px;font-family:Roboto, sans-serif;letter-spacing:1px;fill:#333333" d="M 2.609375,-1.4101562 3.8984375,-5.6875 H 5.203125 L 3.2226563,0 H 2 L 0.02734375,-5.6875 H 1.328125 Z"/>
          <path id="path18399" style="font-weight:bold;font-size:8px;font-family:Roboto, sans-serif;letter-spacing:1px;fill:#333333" d="M 7.0234375,0.48828125 H 6.1835937 L 8.2773438,-5.6875 h 0.8398437 z"/>
          <path id="path18401" style="font-weight:bold;font-size:8px;font-family:Roboto, sans-serif;letter-spacing:1px;fill:#333333" d="m 15.398438,-2.7148438 q 0,0.8398438 -0.296875,1.4726563 -0.296875,0.6328125 -0.851563,0.9765625 -0.550781,0.34375 -1.265625,0.34375 -0.707031,0 -1.261719,-0.33984375 -0.554687,-0.33984375 -0.859375,-0.96874995 -0.304687,-0.6328125 -0.308593,-1.4531251 v -0.28125 q 0,-0.8398437 0.300781,-1.4765624 0.304687,-0.640625 0.855469,-0.9804688 0.554687,-0.34375 1.265625,-0.34375 0.710937,0 1.261718,0.34375 0.554688,0.3398438 0.855469,0.9804688 0.304688,0.6367187 0.304688,1.4726562 z m -1.1875,-0.2578125 q 0,-0.8945312 -0.320313,-1.3593749 -0.320312,-0.4648438 -0.914062,-0.4648438 -0.589844,0 -0.910157,0.4609375 -0.320312,0.4570312 -0.324218,1.34375 v 0.2773437 q 0,0.8710938 0.320312,1.3515626 0.320313,0.4804687 0.921875,0.4804687 0.589844,0 0.90625,-0.4609375 0.316406,-0.4648437 0.320313,-1.3515625 z"/>
          <path id="path18403" style="font-weight:bold;font-size:8px;font-family:Roboto, sans-serif;letter-spacing:1px;fill:#333333" d="m 21.722656,-1.8945312 q -0.06641,0.9179687 -0.679687,1.44531245 -0.609375,0.52734375 -1.609375,0.52734375 -1.09375,0 -1.722657,-0.734375 -0.625,-0.7382812 -0.625,-2.0234375 v -0.3476563 q 0,-0.8203125 0.289063,-1.4453124 0.289062,-0.625 0.824219,-0.9570313 0.539062,-0.3359375 1.25,-0.3359375 0.984375,0 1.585937,0.5273438 0.601563,0.5273437 0.695313,1.4804687 h -1.171875 q -0.04297,-0.5507812 -0.308594,-0.796875 -0.261719,-0.25 -0.800781,-0.25 -0.585938,0 -0.878907,0.421875 -0.289062,0.4179687 -0.296875,1.3007812 v 0.4296875 q 0,0.9218751 0.277344,1.3476563 0.28125,0.42578125 0.882813,0.42578125 0.542968,0 0.808593,-0.24609375 0.269532,-0.25 0.308594,-0.7695312 z"/>
          <path id="path18405" style="font-weight:bold;font-size:8px;font-family:Roboto, sans-serif;letter-spacing:1px;fill:#333333" d="M 27.664062,-4.7382812 H 25.921875 V 0 H 24.75 V -4.7382812 H 23.03125 V -5.6875 h 4.632812 z"/>
        </g>
      </g>
      <g transform="translate(34)" id="g18196">
        <g transform="translate(3,5)" id="g18192"/>
        <g style="font-weight:bold;font-size:8px;font-family:Roboto, sans-serif;letter-spacing:1px;fill:#333333" id="text18194" transform="translate(0.7,40)" aria-label="RESET">
          <path id="path18408" style="font-weight:bold;font-size:8px;font-family:Roboto, sans-serif;letter-spacing:1px;fill:#333333" d="M 2.6132813,-2.0820313 H 1.6796875 V 0 h -1.171875 v -5.6875 h 2.1132813 q 1.0078125,0 1.5546874,0.4492188 0.546875,0.4492187 0.546875,1.2695312 0,0.5820312 -0.2539062,0.9726562 -0.25,0.3867188 -0.7617187,0.6171875 L 4.9375,-0.0546875 V 0 H 3.6796875 Z M 1.6796875,-3.03125 H 2.625 q 0.4414063,0 0.6835938,-0.2226563 0.2421875,-0.2265625 0.2421875,-0.6210937 0,-0.4023437 -0.2304688,-0.6328125 Q 3.09375,-4.7382812 2.6210938,-4.7382812 H 1.6796875 Z"/>
          <path id="path18410" style="font-weight:bold;font-size:8px;font-family:Roboto, sans-serif;letter-spacing:1px;fill:#333333" d="M 10.039063,-2.4648438 H 7.7890625 v 1.52343755 H 10.429688 V 0 H 6.6171875 v -5.6875 h 3.8046875 v 0.9492188 H 7.7890625 v 1.3554687 h 2.2500005 z"/>
          <path id="path18412" style="font-weight:bold;font-size:8px;font-family:Roboto, sans-serif;letter-spacing:1px;fill:#333333" d="m 15.066406,-1.4921875 q 0,-0.3320312 -0.234375,-0.5078125 -0.234375,-0.1796875 -0.84375,-0.375 -0.609375,-0.1992188 -0.964843,-0.390625 -0.96875,-0.5234375 -0.96875,-1.4101562 0,-0.4609375 0.257812,-0.8203125 0.261719,-0.3632813 0.746094,-0.5664063 0.488281,-0.203125 1.09375,-0.203125 0.609375,0 1.085937,0.2226563 0.476563,0.21875 0.738282,0.6210937 0.265624,0.4023438 0.265624,0.9140625 h -1.171874 q 0,-0.390625 -0.246094,-0.6054687 -0.246094,-0.21875 -0.691406,-0.21875 -0.429688,0 -0.667969,0.1835937 -0.238281,0.1796875 -0.238281,0.4765625 0,0.2773437 0.277343,0.4648437 0.28125,0.1875 0.824219,0.3515625 1,0.3007813 1.457031,0.7460938 0.457031,0.4453125 0.457031,1.109375 0,0.73828125 -0.558593,1.16015625 Q 15.125,0.078125 14.179688,0.078125 q -0.65625,0 -1.195313,-0.23828125 -0.539062,-0.2421875 -0.824219,-0.66015625 -0.28125,-0.4179687 -0.28125,-0.96875 h 1.175782 q 0,0.94140625 1.125,0.94140625 0.417968,0 0.652343,-0.16796875 0.234375,-0.171875 0.234375,-0.4765625 z"/>
          <path id="path18414" style="font-weight:bold;font-size:8px;font-family:Roboto, sans-serif;letter-spacing:1px;fill:#333333" d="m 21.460937,-2.4648438 h -2.25 v 1.52343755 h 2.640625 V 0 h -3.8125 v -5.6875 h 3.804688 v 0.9492188 h -2.632813 v 1.3554687 h 2.25 z"/>
          <path id="path18416" style="font-weight:bold;font-size:8px;font-family:Roboto, sans-serif;letter-spacing:1px;fill:#333333" d="M 27.898437,-4.7382812 H 26.15625 V 0 h -1.171875 v -4.7382812 h -1.71875 V -5.6875 h 4.632812 z"/>
        </g>
      </g>
      <g transform="translate(66)" id="g18204">
        <g transform="translate(3,5)" id="g18198"/>
        <g transform="translate(9,33.5)" id="g18202">
          <path d="M 0,4 3,0 9,8 12,4" style="fill:none;stroke:#333333;stroke-width:1" id="polyline18200"/>
        </g>
      </g>
      <g transform="translate(98)" id="g18214">
        <g transform="translate(3,5)" id="g18206"/>
        <g transform="translate(9,33.5)" id="g18212">
          <path d="M 0,4 A 3,4.5 0 0 1 6,4" stroke-width="1" fill="none" id="path18208"/>
          <path d="m 6,4 a 3,4.5 0 0 0 6,0" stroke-width="1" fill="none" id="path18210"/>
        </g>
      </g>
    </g>
  </g>
</svg>
