<?xml version="1.0" encoding="UTF-8" standalone="no"?>
<svg xmlns:dc="http://purl.org/dc/elements/1.1/" xmlns:cc="http://creativecommons.org/ns#" xmlns:rdf="http://www.w3.org/1999/02/22-rdf-syntax-ns#" xmlns:svg="http://www.w3.org/2000/svg" xmlns="http://www.w3.org/2000/svg" xmlns:sodipodi="http://sodipodi.sourceforge.net/DTD/sodipodi-0.dtd" xmlns:inkscape="http://www.inkscape.org/namespaces/inkscape" inkscape:version="1.0 (4035a4f, 2020-05-01)" sodipodi:docname="svg_render_LLPG-dark-pp.svg" id="svg225" viewBox="0 0 45.0 380.0" height="380.0" width="45.0" version="1.1">
  <metadata id="metadata229">
    <rdf:RDF>
      <cc:Work rdf:about="">
        <dc:format>image/svg+xml</dc:format>
        <dc:type rdf:resource="http://purl.org/dc/dcmitype/StillImage"/>
      </cc:Work>
    </rdf:RDF>
  </metadata>
  <sodipodi:namedview inkscape:current-layer="svg225" inkscape:window-maximized="0" inkscape:window-y="23" inkscape:window-x="0" inkscape:cy="190" inkscape:cx="22.5" inkscape:zoom="1.7605263" showgrid="false" id="namedview227" inkscape:window-height="480" inkscape:window-width="689" inkscape:pageshadow="2" inkscape:pageopacity="0" guidetolerance="10" gridtolerance="10" objecttolerance="10" borderopacity="1" bordercolor="#666666" pagecolor="#ffffff"/>
  
  <defs id="defs35">
    <symbol viewBox="0 0 45px 45px" id="dial-shape-llpg">
      <g id="g32" transform="translate(20 20)">
        <polyline id="polyline4" transform="rotate(-52.5) translate(10 0)" stroke-width="0.7" points="0,0 2.5,0"/>
        <polyline id="polyline6" transform="rotate(-15) translate(10 0)" stroke-width="0.7" points="0,0 2.5,0"/>
        <polyline id="polyline8" transform="rotate(22.5) translate(10 0)" stroke-width="0.7" points="0,0 2.5,0"/>
        <polyline id="polyline10" transform="rotate(-127.5) translate(10 0)" stroke-width="0.7" points="0,0 2.5,0"/>
        <polyline id="polyline12" transform="rotate(-165) translate(10 0)" stroke-width="0.7" points="0,0 2.5,0"/>
        <polyline id="polyline14" transform="rotate(-202.5) translate(10 0)" stroke-width="0.7" points="0,0 2.5,0"/>
        <path id="path16" transform="rotate(-240) translate(12 0) rotate(240) translate(-2 0) rotate(45) translate(2.5 0)" fill="none" stroke="#ccc" stroke-width="1" d="M -2.5 0 Q 0 2.5, 2.5 0"/>
        <path id="path18" transform="rotate(-240) translate(12 0) rotate(240) translate(-2 0) rotate(-45) translate(-2.5 0)" fill="none" stroke="#ccc" stroke-width="1" d="M -2.5 0 Q 0 2.5, 2.5 0"/>
        <polyline id="polyline20" transform="rotate(-90) translate(15 0) rotate(90) rotate(-45) translate(-2 0)" fill="none" stroke-width="1" points="-2.5,0 2.5,0"/>
        <polyline id="polyline22" transform="rotate(-90) translate(15 0) rotate(90) rotate(45) translate(2 0)" fill="none" stroke-width="1" points="-2.5,0 2.5,0"/>
        <path id="path24" transform="rotate(60) translate(12 0) rotate(-60) translate(2 0) rotate(-135) translate(-2.5 0)" fill="none" stroke="#ccc" stroke-width="1" d="M -2.5 0 Q 0 2.5, 2.5 0"/>
        <path id="path26" transform="rotate(60) translate(12 0) rotate(-60) translate(2 0) rotate(135) translate(2.5 0)" fill="none" stroke="#ccc" stroke-width="1" d="M -2.5 0 Q 0 2.5, 2.5 0"/>
        <polyline id="polyline28" stroke-width="1.0" points="-3,0 3,0"/>
        <polyline id="polyline30" stroke-width="1.0" points="0,-3 0,3"/>
      </g>
    </symbol>
  </defs>
  <path class="module-background background-fill" d="M 0,0 H 45 V 380 H 0 Z" style="fill:#111111" id="rect37"/>
  <path class="module-border-inner" d="M 1,1 H 44 V 379 H 1 V 1" style="fill:none;stroke:#191919;stroke-width:0.5" id="polyline39"/>
  <path class="module-border-middle" d="m 0.5,0.5 h 44 v 379 H 0.5 V 0.5" style="fill:none;stroke:#111111;stroke-width:0.8" id="polyline41"/>
  <path class="module-border-outer" d="M 0,0 H 45 V 380 H 0 V 0" style="fill:none;stroke:#000000;stroke-width:1" id="polyline43"/>
  <g class="title" style="font-weight:normal;font-size:9.33333px;font-family:Comfortaa, sans-serif;letter-spacing:2.5px;fill:#eeeeee" id="text45" transform="rotate(-90)" aria-label="LLPG">
    <path id="path420" style="font-weight:normal;font-size:9.33333px;font-family:Comfortaa, sans-serif;letter-spacing:2.5px;fill:#eeeeee" d="m -374.70267,13 q -0.14933,0 -0.26133,-0.102667 -0.10267,-0.112 -0.10267,-0.261333 V 6.074669 q 0,-0.1493333 0.10267,-0.2519999 0.112,-0.112 0.26133,-0.112 0.15867,0 0.26134,0.1026667 0.10266,0.1026666 0.10266,0.2613332 v 6.234665 h 3.64933 q 0.15867,0 0.26134,0.102666 0.10266,0.09333 0.10266,0.242667 0,0.149333 -0.10266,0.252 Q -370.53067,13 -370.68934,13 Z"/>
    <path id="path422" style="font-weight:normal;font-size:9.33333px;font-family:Comfortaa, sans-serif;letter-spacing:2.5px;fill:#eeeeee" d="m -366.29642,13 q -0.14933,0 -0.26133,-0.102667 -0.10267,-0.112 -0.10267,-0.261333 V 6.074669 q 0,-0.1493333 0.10267,-0.2519999 0.112,-0.112 0.26133,-0.112 0.15867,0 0.26133,0.1026667 0.10267,0.1026666 0.10267,0.2613332 v 6.234665 h 3.64933 q 0.15867,0 0.26134,0.102666 0.10266,0.09333 0.10266,0.242667 0,0.149333 -0.10266,0.252 Q -362.12442,13 -362.28309,13 Z"/>
    <path id="path424" style="font-weight:normal;font-size:9.33333px;font-family:Comfortaa, sans-serif;letter-spacing:2.5px;fill:#eeeeee" d="m -357.89017,13 q -0.15867,0 -0.26133,-0.102667 -0.10267,-0.102666 -0.10267,-0.261333 V 6.074669 q 0,-0.1586666 0.10267,-0.2613332 0.10266,-0.1026667 0.26133,-0.1026667 h 1.86667 q 0.68133,0 1.21333,0.3079999 0.54133,0.2986666 0.84,0.8399998 0.29866,0.5319998 0.29866,1.2226662 0,0.6813331 -0.29866,1.2133329 -0.29867,0.5319998 -0.84,0.8306661 -0.532,0.298667 -1.21333,0.298667 h -1.50267 V 12.636 q 0,0.158667 -0.10267,0.261333 Q -357.7315,13 -357.89017,13 Z m 1.86667,-3.2759989 q 0.47599,0 0.84933,-0.2053332 0.37333,-0.2146666 0.57866,-0.5879998 0.21467,-0.3733333 0.21467,-0.8493331 0,-0.4853332 -0.21467,-0.8586664 -0.20533,-0.3826665 -0.57866,-0.5973331 -0.37334,-0.2146666 -0.84933,-0.2146666 h -1.50267 v 3.3133322 z"/>
    <path id="path426" style="font-weight:normal;font-size:9.33333px;font-family:Comfortaa, sans-serif;letter-spacing:2.5px;fill:#eeeeee" d="m -344.74711,9.3600012 q 0.15866,0 0.26133,0.1026667 0.10267,0.093333 0.10267,0.2519999 v 2.3146662 q 0,0.158666 -0.10267,0.261333 -0.868,0.802666 -2.28667,0.802666 -0.98933,0 -1.81999,-0.504 -0.83067,-0.503999 -1.32534,-1.362666 -0.48533,-0.858666 -0.48533,-1.8759991 0,-1.0079996 0.48533,-1.866666 0.48534,-0.8586664 1.316,-1.3626662 0.83067,-0.5039999 1.82933,-0.5039999 0.672,0 1.22267,0.196 0.55067,0.1959999 1.064,0.6253331 0.10267,0.074667 0.10267,0.2146666 0,0.074667 -0.0373,0.1399999 -0.0373,0.056 -0.10266,0.084 -0.0187,0.065333 -0.084,0.112 -0.0653,0.037333 -0.14,0.037333 -0.13067,0 -0.23334,-0.093333 -0.364,-0.3266666 -0.79333,-0.4759998 -0.42933,-0.1493333 -0.99867,-0.1493333 -0.784,0 -1.45599,0.4199998 -0.672,0.4106666 -1.07334,1.1106663 -0.392,0.6999998 -0.392,1.5119995 0,0.8306661 0.392,1.5306661 0.392,0.7 1.064,1.110666 0.672,0.410667 1.46533,0.410667 0.90534,0 1.68,-0.532 v -1.866666 h -1.456 q -0.15866,0 -0.26133,-0.093333 -0.10267,-0.093333 -0.10267,-0.2333332 0,-0.14 0.10267,-0.224 0.10267,-0.093333 0.26133,-0.093333 z"/>
  </g>
  <g transform="rotate(-90,200.5,175.5)" id="g51">
    <g class="brand" style="font-weight:bold;font-size:9.33333px;font-family:Audiowide, sans-serif;letter-spacing:2px;fill:#eeeeee" id="text47" aria-label="BGA">
      <path id="path412" style="font-weight:bold;font-size:9.33333px;font-family:Audiowide, sans-serif;letter-spacing:2px;fill:#eeeeee" d="m 7.209633,-1.4355464 q 0,0.2187499 -0.077474,0.4694009 -0.072917,0.25065095 -0.2460936,0.46484359 Q 6.7174456,-0.28710928 6.4440082,-0.14127599 6.1705708,0 5.7740866,0 H 1.2760412 Q 1.1484371,0 1.0390621,-0.0455729 0.92968718,-0.0911458 0.84765596,-0.16861973 0.77018203,-0.25065096 0.72460913,-0.36002592 0.67903623,-0.46940088 0.67903623,-0.597005 v -5.341144 q 0,-0.1230469 0.0455729,-0.2324218 0.0455729,-0.109375 0.12304683,-0.1914062 0.0820312,-0.082031 0.19140614,-0.1276041 0.109375,-0.045573 0.2369791,-0.045573 h 3.9648424 q 0.21875,0 0.4694009,0.077474 0.250651,0.077474 0.4648436,0.250651 0.2187499,0.1686197 0.3600259,0.4420571 0.1458333,0.2734374 0.1458333,0.6699217 v 0.2233072 q 0,0.314453 -0.1048177,0.6790362 -0.1048176,0.3600259 -0.3372394,0.6835935 0.2005207,0.1230468 0.3736978,0.2962239 0.1777343,0.173177 0.3098957,0.4010415 0.1321614,0.2278645 0.2096353,0.5149738 0.077474,0.2871093 0.077474,0.6334633 z M 6.0247375,-1.6634109 q 0,-0.2324218 -0.072917,-0.4147134 Q 5.8789042,-2.2649732 5.7467428,-2.3971346 5.6145814,-2.529296 5.4277325,-2.5976554 5.2408836,-2.670572 5.0084618,-2.670572 h -2.670572 v -1.19401 h 2.1373691 q 0.2324218,0 0.4192707,-0.068359 0.1868489,-0.072917 0.3190103,-0.205078 0.1321614,-0.1321614 0.2005208,-0.314453 0.072917,-0.1868489 0.072917,-0.4192707 v -0.2233072 q 0,-0.2552083 -0.2460937,-0.2552083 H 1.8639317 v 4.1653632 h 3.9101549 q 0.031901,0 0.077474,-0.00456 0.045573,-0.00456 0.082031,-0.027344 0.036458,-0.022786 0.063802,-0.077474 0.027344,-0.054687 0.027344,-0.1503906 z"/>
      <path id="path414" style="font-weight:bold;font-size:9.33333px;font-family:Audiowide, sans-serif;letter-spacing:2px;fill:#eeeeee" d="m 16.683589,-0.597005 q 0,0.12760412 -0.04557,0.23697908 -0.04557,0.10937496 -0.127605,0.19140619 -0.07747,0.07747393 -0.186849,0.12304683 Q 16.214189,0 16.086584,0 h -4.274738 q -0.164062,0 -0.355468,-0.03645832 -0.186849,-0.04101561 -0.373698,-0.12304683 -0.182292,-0.0820312 -0.350911,-0.20963535 -0.16862,-0.13216141 -0.300782,-0.31445302 -0.127604,-0.18684889 -0.205078,-0.42838528 -0.07747,-0.2460937 -0.07747,-0.5514321 v -3.2083322 q 0,-0.1640625 0.03646,-0.3509114 0.04101,-0.1914062 0.123047,-0.3736978 0.08203,-0.1868489 0.214192,-0.3554686 0.132162,-0.1686197 0.314453,-0.2962238 0.186849,-0.1321615 0.428385,-0.2096354 0.241537,-0.077474 0.546875,-0.077474 h 4.817056 v 1.1848954 h -4.817056 q -0.232422,0 -0.355468,0.1230468 -0.123047,0.1230469 -0.123047,0.3645832 v 3.1992177 q 0,0.2278645 0.123047,0.3554686 0.127604,0.1230469 0.355468,0.1230469 h 3.686848 V -2.670572 h -3.153645 v -1.19401 h 3.741535 q 0.127605,0 0.236979,0.05013 0.109375,0.045573 0.186849,0.1276041 0.08203,0.082031 0.127605,0.1914062 0.04557,0.1048177 0.04557,0.2278645 z"/>
      <path id="path416" style="font-weight:bold;font-size:9.33333px;font-family:Audiowide, sans-serif;letter-spacing:2px;fill:#eeeeee" d="M 26.339836,0 H 25.154941 V -1.6041661 H 20.989578 V 0 h -1.184896 v -3.267577 q 0,-0.7154946 0.246094,-1.3170569 0.246094,-0.6015623 0.683593,-1.0345048 0.4375,-0.4329426 1.034505,-0.6744789 0.597005,-0.2415364 1.303385,-0.2415364 h 2.670572 q 0.123047,0 0.232422,0.045573 0.109375,0.045573 0.191406,0.1276041 0.08203,0.082031 0.127604,0.1914062 0.04557,0.1093749 0.04557,0.2324218 z m -5.350258,-2.7890616 h 4.165363 v -2.561197 h -2.082682 q -0.05469,0 -0.232422,0.018229 -0.173177,0.013672 -0.405598,0.077474 -0.227865,0.063802 -0.483073,0.1959635 -0.255208,0.1321614 -0.469401,0.3645832 -0.214193,0.2324218 -0.355469,0.5833331 -0.136718,0.3463541 -0.136718,0.8430987 z"/>
    </g>
    <path class="background-fill" d="M 0,0 H 3 V 3 H 0 Z" style="fill:#111111" transform="translate(11.5,-5)" id="rect49"/>
  </g>
  <g style="font-weight:bold;font-size:8px;font-family:Roboto, sans-serif;letter-spacing:1.5px;text-anchor:middle;fill:#eeeeee" id="text55" aria-label="RESP">
    <path id="path403" style="font-weight:bold;font-size:8px;font-family:Roboto, sans-serif;letter-spacing:1.5px;text-anchor:middle;fill:#eeeeee" d="M 13.019531,22.917969 H 12.085938 V 25 h -1.171875 v -5.6875 h 2.113281 q 1.007812,0 1.554687,0.449219 0.546875,0.449218 0.546875,1.269531 0,0.582031 -0.253906,0.972656 -0.25,0.386719 -0.761719,0.617188 l 1.230469,2.324218 V 25 H 14.085938 Z M 12.085938,21.96875 h 0.945312 q 0.441406,0 0.683594,-0.222656 0.242187,-0.226563 0.242187,-0.621094 0,-0.402344 -0.230468,-0.632813 Q 13.5,20.261719 13.027344,20.261719 h -0.941406 z"/>
    <path id="path405" style="font-weight:bold;font-size:8px;font-family:Roboto, sans-serif;letter-spacing:1.5px;text-anchor:middle;fill:#eeeeee" d="m 20.945312,22.535156 h -2.25 v 1.523438 h 2.640625 V 25 h -3.8125 v -5.6875 h 3.804688 v 0.949219 h -2.632813 v 1.355468 h 2.25 z"/>
    <path id="path407" style="font-weight:bold;font-size:8px;font-family:Roboto, sans-serif;letter-spacing:1.5px;text-anchor:middle;fill:#eeeeee" d="m 26.472656,23.507812 q 0,-0.332031 -0.234375,-0.507812 -0.234375,-0.179688 -0.84375,-0.375 -0.609375,-0.199219 -0.964844,-0.390625 -0.96875,-0.523438 -0.96875,-1.410156 0,-0.460938 0.257813,-0.820313 0.261719,-0.363281 0.746094,-0.566406 0.488281,-0.203125 1.09375,-0.203125 0.609375,0 1.085937,0.222656 0.476563,0.21875 0.738281,0.621094 0.265625,0.402344 0.265625,0.914062 h -1.171875 q 0,-0.390625 -0.246093,-0.605468 -0.246094,-0.21875 -0.691407,-0.21875 -0.429687,0 -0.667968,0.183593 -0.238282,0.179688 -0.238282,0.476563 0,0.277344 0.277344,0.464844 0.28125,0.1875 0.824219,0.351562 1,0.300781 1.457031,0.746094 0.457031,0.445312 0.457031,1.109375 0,0.738281 -0.558593,1.160156 -0.558594,0.417969 -1.503907,0.417969 -0.65625,0 -1.195312,-0.238281 -0.539063,-0.242188 -0.824219,-0.660157 -0.28125,-0.417968 -0.28125,-0.96875 h 1.175781 q 0,0.941407 1.125,0.941407 0.417969,0 0.652344,-0.167969 0.234375,-0.171875 0.234375,-0.476563 z"/>
    <path id="path409" style="font-weight:bold;font-size:8px;font-family:Roboto, sans-serif;letter-spacing:1.5px;text-anchor:middle;fill:#eeeeee" d="M 31.117187,22.996094 V 25 h -1.171875 v -5.6875 h 2.21875 q 0.640625,0 1.125,0.234375 0.488282,0.234375 0.75,0.667969 0.261719,0.429687 0.261719,0.980468 0,0.835938 -0.574219,1.320313 -0.570312,0.480469 -1.582031,0.480469 z m 0,-0.949219 h 1.046875 q 0.464844,0 0.707032,-0.21875 0.246093,-0.21875 0.246093,-0.625 0,-0.417969 -0.246093,-0.675781 Q 32.625,20.269531 32.191406,20.261719 h -1.074219 z"/>
  </g>
  <g transform="translate(0,28.5)" id="g57"/>
  <g transform="translate(8,36.5)" id="g87">
    <g transform="translate(14.5,14.5)" id="g85">
      <path d="M 0,0 H 4" style="stroke:#cccccc;stroke-width:1.5" transform="rotate(120,-8,4.6188022)" id="polyline59"/>
      <path d="M 0,0 H 2.5" style="stroke:#cccccc;stroke-width:0.7" transform="rotate(150,-8,2.1435935)" id="polyline61"/>
      <path d="M 0,0 H 2.5" style="stroke:#cccccc;stroke-width:0.7" transform="rotate(180,-8,0)" id="polyline63"/>
      <path d="M 0,0 H 2.5" style="stroke:#cccccc;stroke-width:0.7" transform="rotate(-150,-8,-2.1435935)" id="polyline65"/>
      <path d="M 0,0 H 2.5" style="stroke:#cccccc;stroke-width:0.7" transform="rotate(-120,-8,-4.6188022)" id="polyline67"/>
      <path d="M 0,0 H 2.5" style="stroke:#cccccc;stroke-width:0.7" transform="rotate(-90,-8,-8)" id="polyline69"/>
      <path d="M 0,0 H 2.5" style="stroke:#cccccc;stroke-width:0.7" transform="rotate(-60,-8,-13.856406)" id="polyline71"/>
      <path d="M 0,0 H 2.5" style="stroke:#cccccc;stroke-width:0.7" transform="rotate(-30,-8,-29.856406)" id="polyline73"/>
      <path d="M 0,0 H 2.5" style="stroke:#cccccc;stroke-width:0.7" transform="translate(16)" id="polyline75"/>
      <path d="M 0,0 H 2.5" style="stroke:#cccccc;stroke-width:0.7" transform="rotate(30,-8,29.856406)" id="polyline77"/>
      <path d="M 0,0 H 2.5" style="stroke:#cccccc;stroke-width:0.7" transform="rotate(60,-8,13.856406)" id="polyline79"/>
      <path d="M -3,0 H 3" style="stroke:#cccccc;stroke-width:1" id="polyline81"/>
      <path d="M 0,-3 V 3" style="stroke:#cccccc;stroke-width:1" id="polyline83"/>
    </g>
  </g>
  <g transform="translate(14.5,82)" id="g91"/>
  <g transform="translate(2.5,70)" id="g123">
    <g transform="translate(20,20)" id="g121">
      <path d="M 0,0 H 2.5" style="stroke:#cccccc;stroke-width:0.7" transform="rotate(-52.5,-5,-10.138997)" id="polyline93"/>
      <path d="M 0,0 H 2.5" style="stroke:#cccccc;stroke-width:0.7" transform="rotate(-15,-5,-37.978771)" id="polyline95"/>
      <path d="M 0,0 H 2.5" style="stroke:#cccccc;stroke-width:0.7" transform="rotate(22.5,-5,25.136697)" id="polyline97"/>
      <path d="M 0,0 H 2.5" style="stroke:#cccccc;stroke-width:0.7" transform="rotate(-127.5,-5,-2.4657271)" id="polyline99"/>
      <path d="M 0,0 H 2.5" style="stroke:#cccccc;stroke-width:0.7" transform="rotate(-165,-5,-0.65826249)" id="polyline101"/>
      <path d="M 0,0 H 2.5" style="stroke:#cccccc;stroke-width:0.7" transform="rotate(157.5,-5,0.99456184)" id="polyline103"/>
      <path d="M -2.5,0 Q 0,2.5 2.5,0" stroke-width="1" stroke="#ccc" fill="none" transform="rotate(45,-17.794622,-1.4429349)" id="path105"/>
      <path d="M -2.5,0 Q 0,2.5 2.5,0" stroke-width="1" stroke="#ccc" fill="none" transform="rotate(-45,9.7946217,17.870774)" id="path107"/>
      <path d="m -2.5,0 h 5" style="fill:none;stroke:#cccccc;stroke-width:1" transform="rotate(-45,-17.106602,-5.0857864)" id="polyline109"/>
      <path d="m -2.5,0 h 5" style="fill:none;stroke:#cccccc;stroke-width:1" transform="rotate(45,17.106602,-5.0857864)" id="polyline111"/>
      <path d="M -2.5,0 Q 0,2.5 2.5,0" stroke-width="1" stroke="#ccc" fill="none" transform="rotate(-135,7.4023168,4.0570651)" id="path113"/>
      <path d="M -2.5,0 Q 0,2.5 2.5,0" stroke-width="1" stroke="#ccc" fill="none" transform="rotate(135,0.59768319,7.3707736)" id="path115"/>
      <path d="M -3,0 H 3" style="stroke:#cccccc;stroke-width:1" id="polyline117"/>
      <path d="M 0,-3 V 3" style="stroke:#cccccc;stroke-width:1" id="polyline119"/>
    </g>
  </g>
  <g style="font-weight:bold;font-size:8px;font-family:Roboto, sans-serif;letter-spacing:1.5px;text-anchor:middle;fill:#eeeeee" id="text127" aria-label="LPF">
    <path id="path373" style="font-weight:bold;font-size:8px;font-family:Roboto, sans-serif;letter-spacing:1.5px;text-anchor:middle;fill:#eeeeee" d="m 15.742188,121.05859 h 2.488281 V 122 h -3.660156 v -5.6875 h 1.171875 z"/>
    <path id="path375" style="font-weight:bold;font-size:8px;font-family:Roboto, sans-serif;letter-spacing:1.5px;text-anchor:middle;fill:#eeeeee" d="M 21.570312,119.99609 V 122 h -1.171875 v -5.6875 h 2.21875 q 0.640625,0 1.125,0.23438 0.488282,0.23437 0.75,0.66796 0.261719,0.42969 0.261719,0.98047 0,0.83594 -0.574219,1.32032 -0.570312,0.48046 -1.582031,0.48046 z m 0,-0.94921 h 1.046875 q 0.464844,0 0.707032,-0.21875 0.246093,-0.21875 0.246093,-0.625 0,-0.41797 -0.246093,-0.67579 -0.246094,-0.25781 -0.679688,-0.26562 h -1.074219 z"/>
    <path id="path377" style="font-weight:bold;font-size:8px;font-family:Roboto, sans-serif;letter-spacing:1.5px;text-anchor:middle;fill:#eeeeee" d="m 30.476562,119.67578 h -2.25 V 122 h -1.171875 v -5.6875 h 3.703125 v 0.94922 h -2.53125 v 1.46875 h 2.25 z"/>
  </g>
  <g transform="translate(9.5,130)" id="g129"/>
  <g transform="translate(9.5,130)" id="g159">
    <g transform="translate(13,13)" id="g157">
      <path d="M 0,0 H 4" style="stroke:#cccccc;stroke-width:1.5" transform="rotate(120,-7.25,4.1857895)" id="polyline131"/>
      <path d="M 0,0 H 2.5" style="stroke:#cccccc;stroke-width:0.7" transform="rotate(150,-7.25,1.9426316)" id="polyline133"/>
      <path d="M 0,0 H 2.5" style="stroke:#cccccc;stroke-width:0.7" transform="rotate(180,-7.25,0)" id="polyline135"/>
      <path d="M 0,0 H 2.5" style="stroke:#cccccc;stroke-width:0.7" transform="rotate(-150,-7.25,-1.9426316)" id="polyline137"/>
      <path d="M 0,0 H 2.5" style="stroke:#cccccc;stroke-width:0.7" transform="rotate(-120,-7.25,-4.1857895)" id="polyline139"/>
      <path d="M 0,0 H 2.5" style="stroke:#cccccc;stroke-width:0.7" transform="rotate(-90,-7.25,-7.25)" id="polyline141"/>
      <path d="M 0,0 H 2.5" style="stroke:#cccccc;stroke-width:0.7" transform="rotate(-60,-7.25,-12.557368)" id="polyline143"/>
      <path d="M 0,0 H 2.5" style="stroke:#cccccc;stroke-width:0.7" transform="rotate(-30,-7.25,-27.057368)" id="polyline145"/>
      <path d="M 0,0 H 2.5" style="stroke:#cccccc;stroke-width:0.7" transform="translate(14.5)" id="polyline147"/>
      <path d="M 0,0 H 2.5" style="stroke:#cccccc;stroke-width:0.7" transform="rotate(30,-7.25,27.057368)" id="polyline149"/>
      <path d="M 0,0 H 2.5" style="stroke:#cccccc;stroke-width:0.7" transform="rotate(60,-7.25,12.557368)" id="polyline151"/>
      <path d="M -3,0 H 3" style="stroke:#cccccc;stroke-width:1" id="polyline153"/>
      <path d="M 0,-3 V 3" style="stroke:#cccccc;stroke-width:1" id="polyline155"/>
    </g>
  </g>
  <g style="font-weight:bold;font-size:8px;font-family:Roboto, sans-serif;letter-spacing:1.5px;text-anchor:middle;fill:#eeeeee" id="text163" aria-label="VCA">
    <path id="path353" style="font-weight:bold;font-size:8px;font-family:Roboto, sans-serif;letter-spacing:1.5px;text-anchor:middle;fill:#eeeeee" d="m 15.703125,175.58984 1.289062,-4.27734 h 1.304688 L 16.316406,177 H 15.09375 l -1.972656,-5.6875 h 1.300781 z"/>
    <path id="path355" style="font-weight:bold;font-size:8px;font-family:Roboto, sans-serif;letter-spacing:1.5px;text-anchor:middle;fill:#eeeeee" d="m 24.753906,175.10547 q -0.06641,0.91797 -0.679687,1.44531 -0.609375,0.52734 -1.609375,0.52734 -1.09375,0 -1.722657,-0.73437 -0.625,-0.73828 -0.625,-2.02344 v -0.34765 q 0,-0.82032 0.289063,-1.44532 0.289062,-0.625 0.824219,-0.95703 0.539062,-0.33594 1.25,-0.33594 0.984375,0 1.585937,0.52735 0.601563,0.52734 0.695313,1.48047 h -1.171875 q -0.04297,-0.55078 -0.308594,-0.79688 -0.261719,-0.25 -0.800781,-0.25 -0.585938,0 -0.878907,0.42188 -0.289062,0.41797 -0.296875,1.30078 v 0.42969 q 0,0.92187 0.277344,1.34765 0.28125,0.42578 0.882813,0.42578 0.542968,0 0.808593,-0.24609 0.269532,-0.25 0.308594,-0.76953 z"/>
    <path id="path357" style="font-weight:bold;font-size:8px;font-family:Roboto, sans-serif;letter-spacing:1.5px;text-anchor:middle;fill:#eeeeee" d="M 30.234375,175.82812 H 28.179687 L 27.789062,177 h -1.246093 l 2.117187,-5.6875 h 1.085938 L 31.875,177 h -1.246094 z m -1.738281,-0.94921 h 1.421875 L 29.203125,172.75 Z"/>
  </g>
  <g transform="translate(9.5,185)" id="g165"/>
  <g transform="translate(9.5,185)" id="g195">
    <g transform="translate(13,13)" id="g193">
      <path d="M 0,0 H 4" style="stroke:#cccccc;stroke-width:1.5" transform="rotate(120,-7.25,4.1857895)" id="polyline167"/>
      <path d="M 0,0 H 2.5" style="stroke:#cccccc;stroke-width:0.7" transform="rotate(150,-7.25,1.9426316)" id="polyline169"/>
      <path d="M 0,0 H 2.5" style="stroke:#cccccc;stroke-width:0.7" transform="rotate(180,-7.25,0)" id="polyline171"/>
      <path d="M 0,0 H 2.5" style="stroke:#cccccc;stroke-width:0.7" transform="rotate(-150,-7.25,-1.9426316)" id="polyline173"/>
      <path d="M 0,0 H 2.5" style="stroke:#cccccc;stroke-width:0.7" transform="rotate(-120,-7.25,-4.1857895)" id="polyline175"/>
      <path d="M 0,0 H 2.5" style="stroke:#cccccc;stroke-width:0.7" transform="rotate(-90,-7.25,-7.25)" id="polyline177"/>
      <path d="M 0,0 H 2.5" style="stroke:#cccccc;stroke-width:0.7" transform="rotate(-60,-7.25,-12.557368)" id="polyline179"/>
      <path d="M 0,0 H 2.5" style="stroke:#cccccc;stroke-width:0.7" transform="rotate(-30,-7.25,-27.057368)" id="polyline181"/>
      <path d="M 0,0 H 2.5" style="stroke:#cccccc;stroke-width:0.7" transform="translate(14.5)" id="polyline183"/>
      <path d="M 0,0 H 2.5" style="stroke:#cccccc;stroke-width:0.7" transform="rotate(30,-7.25,27.057368)" id="polyline185"/>
      <path d="M 0,0 H 2.5" style="stroke:#cccccc;stroke-width:0.7" transform="rotate(60,-7.25,12.557368)" id="polyline187"/>
      <path d="M -3,0 H 3" style="stroke:#cccccc;stroke-width:1" id="polyline189"/>
      <path d="M 0,-3 V 3" style="stroke:#cccccc;stroke-width:1" id="polyline191"/>
    </g>
  </g>
  <g class="io-group" transform="translate(5.5,225)" id="g211">
    <path class="input-background-filler" d="M 0,0 H 34 V 10 H 0 Z" style="fill:#aaaaaa" transform="translate(0,63)" id="rect199"/>
    <path class="input-background" d="m 5,0 h 24 c 2.77,0 5,2.23 5,5 v 60 c 0,2.77 -2.23,5 -5,5 H 5 C 2.23,70 0,67.77 0,65 V 5 C 0,2.23 2.23,0 5,0 Z" style="fill:#aaaaaa" id="rect201"/>
    <g transform="translate(5,3)" id="g203"/>
    <g class="input-label" style="font-weight:bold;font-size:6.66667px;font-family:Roboto, sans-serif;letter-spacing:2px;text-anchor:middle;fill:#222222" id="text205" transform="translate(17,35)" aria-label="TRIG">
      <path id="path326" style="font-weight:bold;font-size:6.66667px;font-family:Roboto, sans-serif;letter-spacing:2px;text-anchor:middle;fill:#222222" d="M -6.4440121,-3.9485696 H -7.8958357 V 0 h -0.9765629 v -3.9485696 h -1.4322924 v -0.791016 h 3.8606789 z"/>
      <path id="path328" style="font-weight:bold;font-size:6.66667px;font-family:Roboto, sans-serif;letter-spacing:2px;text-anchor:middle;fill:#222222" d="M -2.1295581,-1.7350269 H -2.9075532 V 0 h -0.976563 v -4.7395856 h 1.7610686 q 0.8398441,0 1.2955735,0.3743491 0.45572939,0.3743492 0.45572939,1.0579433 0,0.4850262 -0.21158864,0.8105472 -0.20833344,0.3222658 -0.63476595,0.5143232 l 1.02539113,1.93684986 V 0 H -1.2408858 Z m -0.7779951,-0.791016 h 0.7877608 q 0.3678387,0 0.5696617,-0.1855469 0.201823,-0.1888022 0.201823,-0.5175784 0,-0.3352866 -0.1920574,-0.527344 -0.1888021,-0.1920574 -0.5826825,-0.1920574 h -0.7845056 z"/>
      <path id="path330" style="font-weight:bold;font-size:6.66667px;font-family:Roboto, sans-serif;letter-spacing:2px;text-anchor:middle;fill:#222222" d="m 3.4121097,0 h -0.976563 v -4.7395856 h 0.976563 z"/>
      <path id="path332" style="font-weight:bold;font-size:6.66667px;font-family:Roboto, sans-serif;letter-spacing:2px;text-anchor:middle;fill:#222222" d="M 10.063805,-0.59895862 Q 9.800133,-0.28320326 9.3183619,-0.10742193 8.8365909,0.0651042 8.2506531,0.0651042 q -0.6152347,0 -1.0807297,-0.26692721 Q 6.7076836,-0.47200543 6.4537772,-0.98307339 6.2031261,-1.4941413 6.1966156,-2.1842458 v -0.3222658 q 0,-0.7096358 0.2376304,-1.2272141 0.2408855,-0.5208336 0.6901045,-0.7942713 0.4524741,-0.2766928 1.0579432,-0.2766928 0.8430993,0 1.31836,0.403646 0.4752606,0.4003909 0.5631513,1.1686204 H 9.1132837 Q 9.0481795,-3.6393247 8.82357,-3.8281268 8.6022157,-4.016929 8.2115906,-4.016929 q -0.4980472,0 -0.7584639,0.3743491 -0.2604168,0.3743492 -0.2636721,1.1132818 v 0.3027345 q 0,0.7454431 0.2832033,1.1263027 0.2832033,0.38085952 0.8300785,0.38085952 0.5501305,0 0.7845056,-0.23437512 V -1.7708342 H 8.1985697 v -0.7194014 h 1.8652353 z"/>
    </g>
    <g transform="translate(5,38)" id="g207"/>
    <g class="input-label" style="font-weight:bold;font-size:6.66667px;font-family:Roboto, sans-serif;letter-spacing:1.2px;text-anchor:middle;fill:#222222" id="text209" transform="translate(17,70)" aria-label="IN">
      <path id="path335" style="font-weight:bold;font-size:6.66667px;font-family:Roboto, sans-serif;letter-spacing:1.2px;text-anchor:middle;fill:#222222" d="m -2.4652353,0 h -0.976563 v -4.7395856 h 0.976563 z"/>
      <path id="path337" style="font-weight:bold;font-size:6.66667px;font-family:Roboto, sans-serif;letter-spacing:1.2px;text-anchor:middle;fill:#222222" d="M 3.4906265,0 H 2.5140635 L 0.61302097,-3.1184911 V 0 h -0.97656296 v -4.7395856 h 0.97656296 l 1.90429783,3.1250015 v -3.1250015 h 0.9733077 z"/>
    </g>
  </g>
  <g class="io-group" transform="translate(5.5,301)" id="g221">
    <path class="output-background-filler" d="M 0,0 H 34 V 10 H 0 Z" style="fill:#666666" transform="translate(0,-3)" id="rect213"/>
    <path class="output-background" d="m 5,0 h 24 c 2.77,0 5,2.23 5,5 v 25 c 0,2.77 -2.23,5 -5,5 H 5 C 2.23,35 0,32.77 0,30 V 5 C 0,2.23 2.23,0 5,0 Z" style="fill:#666666" id="rect215"/>
    <g transform="translate(5)" id="g217"/>
    <g class="output-label" style="font-weight:bold;font-size:6.66667px;font-family:Roboto, sans-serif;letter-spacing:2px;text-anchor:middle;fill:#dddddd" id="text219" transform="translate(17,32)" aria-label="OUT">
      <path id="path317" style="font-weight:bold;font-size:6.66667px;font-family:Roboto, sans-serif;letter-spacing:2px;text-anchor:middle;fill:#dddddd" d="m -4.2460948,-2.2623709 q 0,0.6998702 -0.247396,1.2272142 -0.2473959,0.52734396 -0.7096357,0.81380243 -0.4589846,0.28645847 -1.054688,0.28645847 -0.589193,0 -1.0514328,-0.28320326 -0.4622398,-0.28320326 -0.7161462,-0.80729204 -0.2539064,-0.527344 -0.2571616,-1.2109381 v -0.2343751 q 0,-0.6998701 0.2506512,-1.2304693 0.2539064,-0.5338545 0.7128909,-0.8170577 0.4622399,-0.2864585 1.054688,-0.2864585 0.5924482,0 1.0514328,0.2864585 0.4622398,0.2832032 0.712891,0.8170577 0.2539064,0.5305992 0.2539064,1.2272141 z m -0.9895838,-0.2148438 q 0,-0.7454431 -0.2669272,-1.1328131 -0.2669272,-0.3873699 -0.7617192,-0.3873699 -0.4915366,0 -0.7584639,0.3841147 -0.2669272,0.3808596 -0.2701824,1.1197922 v 0.2311199 q 0,0.7259118 0.2669272,1.1263026 0.2669272,0.40039087 0.7682296,0.40039087 0.4915367,0 0.7552087,-0.38411477 0.263672,-0.38737 0.2669272,-1.1263026 z"/>
      <path id="path319" style="font-weight:bold;font-size:6.66667px;font-family:Roboto, sans-serif;letter-spacing:2px;text-anchor:middle;fill:#dddddd" d="m 2.0572928,-4.7395856 v 3.1217463 q 0,0.77799515 -0.4882814,1.23046932 -0.4850263,0.45247418 -1.32812568,0.45247418 -0.83007852,0 -1.31836002,-0.43945334 -0.4882815,-0.43945333 -0.4980471,-1.20768286 v -3.1575536 h 0.97656297 v 3.1282567 q 0,0.465495 0.22135427,0.68033887 0.22460948,0.21158865 0.61848988,0.21158865 0.82356808,0 0.83658898,-0.86588582 v -3.1542984 z"/>
      <path id="path321" style="font-weight:bold;font-size:6.66667px;font-family:Roboto, sans-serif;letter-spacing:2px;text-anchor:middle;fill:#dddddd" d="M 8.4257845,-3.9485696 H 6.9739609 V 0 H 5.9973979 V -3.9485696 H 4.5651055 v -0.791016 h 3.860679 z"/>
    </g>
  </g>
</svg>
