<?xml version="1.0" encoding="UTF-8" standalone="no"?>
<svg xmlns:dc="http://purl.org/dc/elements/1.1/" xmlns:cc="http://creativecommons.org/ns#" xmlns:rdf="http://www.w3.org/1999/02/22-rdf-syntax-ns#" xmlns:svg="http://www.w3.org/2000/svg" xmlns="http://www.w3.org/2000/svg" xmlns:sodipodi="http://sodipodi.sourceforge.net/DTD/sodipodi-0.dtd" xmlns:inkscape="http://www.inkscape.org/namespaces/inkscape" inkscape:version="1.0 (4035a4f, 2020-05-01)" sodipodi:docname="svg_render_LPG-pp.svg" id="svg1844" viewBox="0 0 120.0 380.0" height="380.0" width="120.0" version="1.1">
  <metadata id="metadata1850">
    <rdf:RDF>
      <cc:Work rdf:about="">
        <dc:format>image/svg+xml</dc:format>
        <dc:type rdf:resource="http://purl.org/dc/dcmitype/StillImage"/>
      </cc:Work>
    </rdf:RDF>
  </metadata>
  <defs id="defs1848"/>
  <sodipodi:namedview inkscape:current-layer="svg1844" inkscape:window-maximized="0" inkscape:window-y="23" inkscape:window-x="0" inkscape:cy="190" inkscape:cx="60" inkscape:zoom="1.7605263" showgrid="false" id="namedview1846" inkscape:window-height="480" inkscape:window-width="689" inkscape:pageshadow="2" inkscape:pageopacity="0" guidetolerance="10" gridtolerance="10" objecttolerance="10" borderopacity="1" bordercolor="#666666" pagecolor="#ffffff"/>
  
  <path class="module-background background-fill" d="M 0,0 H 120 V 380 H 0 Z" style="fill:#dddddd" id="rect1528"/>
  <path class="module-border-inner" d="M 1,1 H 119 V 379 H 1 V 1" style="fill:none;stroke:#e4e4e4;stroke-width:0.5" id="polyline1530"/>
  <path class="module-border-middle" d="m 0.5,0.5 h 119 v 379 H 0.5 V 0.5" style="fill:none;stroke:#ebebeb;stroke-width:0.8" id="polyline1532"/>
  <path class="module-border-outer" d="M 0,0 H 120 V 380 H 0 V 0" style="fill:none;stroke:#f2f2f2;stroke-width:1" id="polyline1534"/>
  <g class="title" style="font-weight:normal;font-size:12px;font-family:Comfortaa, sans-serif;letter-spacing:3px;text-anchor:end;fill:#333333" id="text1536" transform="translate(110.0 19)" aria-label="LPG">
    <path id="path2277" style="font-weight:normal;font-size:12px;font-family:Comfortaa, sans-serif;letter-spacing:3px;text-anchor:end;fill:#333333" d="m -28.5195,0 q -0.192,0 -0.336,-0.132 -0.132,-0.144 -0.132,-0.336 v -8.436 q 0,-0.192 0.132,-0.324 0.144,-0.144 0.336,-0.144 0.204,0 0.336,0.132 0.132,0.132 0.132,0.336 v 8.016 h 4.692 q 0.204,0 0.336,0.132 0.132,0.12 0.132,0.312 0,0.192 -0.132,0.324 -0.132,0.12 -0.336,0.12 z"/>
    <path id="path2279" style="font-weight:normal;font-size:12px;font-family:Comfortaa, sans-serif;letter-spacing:3px;text-anchor:end;fill:#333333" d="m -17.92575,0 q -0.204,0 -0.336,-0.132 -0.132,-0.132 -0.132,-0.336 v -8.436 q 0,-0.204 0.132,-0.336 0.132,-0.132 0.336,-0.132 h 2.4 q 0.876,0 1.56,0.396 0.696,0.384 1.08,1.08 0.384,0.684 0.384,1.572 0,0.876 -0.384,1.56 -0.384,0.684 -1.08,1.068 -0.684,0.384 -1.56,0.384 h -1.932 v 2.844 q 0,0.204 -0.132,0.336 -0.132,0.132 -0.336,0.132 z m 2.4,-4.212 q 0.612,0 1.092,-0.264 0.48,-0.276 0.744,-0.756 0.276,-0.48 0.276,-1.092 0,-0.624 -0.276,-1.104 -0.264,-0.492 -0.744,-0.768 -0.48,-0.276 -1.092,-0.276 h -1.932 v 4.26 z"/>
    <path id="path2281" style="font-weight:normal;font-size:12px;font-family:Comfortaa, sans-serif;letter-spacing:3px;text-anchor:end;fill:#333333" d="m -1.2418125,-4.68 q 0.204,0 0.336,0.132 0.132,0.12 0.132,0.324 v 2.976 q 0,0.204 -0.132,0.336 -1.116,1.032 -2.94,1.032 -1.272,0 -2.34,-0.648 -1.068,-0.648 -1.704,-1.752 -0.624,-1.104 -0.624,-2.412 0,-1.296 0.624,-2.4 0.624,-1.104 1.692,-1.752 1.068,-0.648 2.352,-0.648 0.864,0 1.572,0.252 0.708,0.252 1.368,0.804 0.132,0.096 0.132,0.276 0,0.096 -0.048,0.18 -0.048,0.072 -0.132,0.108 -0.024,0.084 -0.108,0.144 -0.084,0.048 -0.18,0.048 -0.168,0 -0.3,-0.12 -0.468,-0.42 -1.02,-0.612 -0.552,-0.192 -1.284,-0.192 -1.008,0 -1.872,0.54 -0.864,0.528 -1.38,1.428 -0.504,0.9 -0.504,1.944 0,1.068 0.504,1.968 0.504,0.9 1.368,1.428 0.864,0.528 1.884,0.528 1.164,0 2.16,-0.684 v -2.4 h -1.872 q -0.204,0 -0.336,-0.12 -0.132,-0.12 -0.132,-0.3 0,-0.18 0.132,-0.288 0.132,-0.12 0.336,-0.12 z"/>
  </g>
  <g class="brand" style="font-weight:bold;font-size:8.66667px;font-family:Audiowide, sans-serif;letter-spacing:2px;fill:#333333" id="text1538" aria-label="BOGAUDIO">
    <path id="path2260" style="font-weight:bold;font-size:8.66667px;font-family:Audiowide, sans-serif;letter-spacing:2px;fill:#333333" d="m 12.194664,372.66699 q 0,0.20313 -0.07194,0.43587 -0.06771,0.23275 -0.228516,0.43165 -0.156576,0.19889 -0.410482,0.33431 Q 11.22982,374 10.861656,374 H 6.6848963 q -0.1184897,0 -0.2200522,-0.0423 -0.1015625,-0.0423 -0.1777344,-0.11426 -0.07194,-0.0762 -0.1142579,-0.17773 -0.042318,-0.10156 -0.042318,-0.22005 V 368.486 q 0,-0.11426 0.042318,-0.21582 0.042318,-0.10156 0.1142579,-0.17773 0.076172,-0.0762 0.1777344,-0.11849 0.1015625,-0.0423 0.2200522,-0.0423 h 3.6816417 q 0.203125,0 0.435873,0.0719 0.232747,0.0719 0.431641,0.23275 0.203125,0.15657 0.33431,0.41048 0.135416,0.2539 0.135416,0.62207 v 0.20736 q 0,0.29199 -0.09733,0.63053 -0.09733,0.33431 -0.313152,0.63477 0.186198,0.11425 0.347006,0.27506 0.165039,0.16081 0.28776,0.3724 0.122722,0.21159 0.194662,0.47819 0.07194,0.2666 0.07194,0.58821 z m -1.100261,-0.21159 q 0,-0.21582 -0.06771,-0.38509 -0.06771,-0.1735 -0.19043,-0.29622 -0.122721,-0.12272 -0.296224,-0.1862 -0.173503,-0.0677 -0.389323,-0.0677 H 7.6708992 v -1.10872 h 1.9847013 q 0.2158204,0 0.3893235,-0.0635 0.173502,-0.0677 0.296224,-0.19043 0.122721,-0.12272 0.186198,-0.29199 0.06771,-0.1735 0.06771,-0.38932 v -0.20736 q 0,-0.23698 -0.228516,-0.23698 H 7.2307949 v 3.86784 h 3.6308611 q 0.02962,0 0.07194,-0.004 0.04232,-0.004 0.07617,-0.0254 0.03385,-0.0212 0.05924,-0.0719 0.02539,-0.0508 0.02539,-0.13965 z"/>
    <path id="path2262" style="font-weight:bold;font-size:8.66667px;font-family:Audiowide, sans-serif;letter-spacing:2px;fill:#333333" d="m 21.515629,371.54557 q 0,0.55436 -0.190429,1.01986 -0.19043,0.46549 -0.528972,0.80404 -0.338542,0.33854 -0.804037,0.52897 -0.461263,0.1862 -1.007161,0.1862 h -1.489584 q -0.545899,0 -1.011394,-0.1862 -0.465495,-0.19043 -0.804037,-0.52897 -0.338541,-0.33855 -0.533203,-0.80404 -0.19043,-0.4655 -0.19043,-1.01986 v -1.1595 q 0,-0.55013 0.19043,-1.01563 0.194662,-0.46973 0.533203,-0.80404 0.338542,-0.33854 0.804037,-0.52897 0.465495,-0.19043 1.011394,-0.19043 h 1.489584 q 0.545898,0 1.007161,0.19043 0.465495,0.19043 0.804037,0.52897 0.338542,0.33431 0.528972,0.80404 0.190429,0.4655 0.190429,1.01563 z m -1.10026,-1.1595 q 0,-0.32585 -0.105795,-0.58822 -0.101562,-0.2666 -0.291992,-0.4528 -0.186198,-0.19043 -0.4528,-0.29199 -0.262369,-0.1058 -0.579752,-0.1058 h -1.489584 q -0.321615,0 -0.588217,0.1058 -0.26237,0.10156 -0.452799,0.29199 -0.19043,0.1862 -0.296224,0.4528 -0.101563,0.26237 -0.101563,0.58822 v 1.1595 q 0,0.32585 0.101563,0.59245 0.105794,0.26237 0.296224,0.4528 0.190429,0.1862 0.452799,0.29199 0.266602,0.10156 0.588217,0.10156 h 1.48112 q 0.321615,0 0.583985,-0.10156 0.266601,-0.10579 0.457031,-0.29199 0.19043,-0.19043 0.291992,-0.4528 0.105795,-0.2666 0.105795,-0.59245 z"/>
    <path id="path2264" style="font-weight:bold;font-size:8.66667px;font-family:Audiowide, sans-serif;letter-spacing:2px;fill:#333333" d="m 30.599618,373.44564 q 0,0.11849 -0.04232,0.22005 -0.04232,0.10156 -0.11849,0.17773 -0.07194,0.0719 -0.173502,0.11426 Q 30.163745,374 30.045255,374 h -3.969402 q -0.152344,0 -0.330078,-0.0338 -0.173503,-0.0381 -0.347006,-0.11426 -0.169271,-0.0762 -0.325846,-0.19466 -0.156576,-0.12272 -0.279297,-0.292 -0.11849,-0.1735 -0.19043,-0.39778 -0.07194,-0.22852 -0.07194,-0.51205 v -2.97916 q 0,-0.15235 0.03385,-0.32585 0.03809,-0.17774 0.114258,-0.34701 0.07617,-0.1735 0.198893,-0.33007 0.122722,-0.15658 0.291993,-0.27507 0.173502,-0.12272 0.397786,-0.19466 0.224284,-0.0719 0.507813,-0.0719 h 4.472983 v 1.10026 h -4.472983 q -0.215821,0 -0.330078,0.11426 -0.114258,0.11425 -0.114258,0.33854 v 2.9707 q 0,0.21159 0.114258,0.33008 0.118489,0.11426 0.330078,0.11426 h 3.423504 v -1.37956 H 26.57097 v -1.10872 h 3.474285 q 0.11849,0 0.220053,0.0466 0.101562,0.0423 0.173502,0.11849 0.07617,0.0762 0.11849,0.17773 0.04232,0.0973 0.04232,0.21159 z"/>
    <path id="path2266" style="font-weight:bold;font-size:8.66667px;font-family:Audiowide, sans-serif;letter-spacing:2px;fill:#333333" d="m 39.708996,374 h -1.100261 v -1.48958 h -3.86784 V 374 h -1.100261 v -3.03418 q 0,-0.66439 0.228516,-1.22298 0.228516,-0.5586 0.634766,-0.96062 0.40625,-0.40201 0.960612,-0.6263 0.554362,-0.22428 1.210287,-0.22428 h 2.479819 q 0.114257,0 0.21582,0.0423 0.101562,0.0423 0.177734,0.11849 0.07617,0.0762 0.11849,0.17773 0.04232,0.10156 0.04232,0.21582 z m -4.968101,-2.58984 h 3.86784 v -2.37826 h -1.93392 q -0.05078,0 -0.21582,0.0169 -0.160808,0.0127 -0.376628,0.0719 -0.211589,0.0592 -0.448568,0.18196 -0.236979,0.12272 -0.435873,0.33854 -0.198893,0.21582 -0.330078,0.54167 -0.126953,0.32162 -0.126953,0.78288 z"/>
    <path id="path2268" style="font-weight:bold;font-size:8.66667px;font-family:Audiowide, sans-serif;letter-spacing:2px;fill:#333333" d="m 48.928399,373.44564 q 0,0.11849 -0.04232,0.22005 -0.04232,0.10156 -0.11849,0.17773 -0.07617,0.0719 -0.177735,0.11426 Q 48.488295,374 48.374037,374 h -2.479819 q -0.351237,0 -0.710937,-0.0762 -0.359701,-0.0762 -0.698243,-0.23275 -0.33431,-0.16081 -0.630534,-0.40625 -0.296224,-0.24544 -0.520508,-0.57975 -0.220052,-0.33854 -0.347005,-0.77018 -0.126953,-0.43588 -0.126953,-0.96908 v -3.03418 h 1.10026 v 3.03418 q 0,0.46549 0.126954,0.78711 0.131185,0.32161 0.330078,0.53743 0.198893,0.21582 0.435872,0.33855 0.23698,0.12272 0.448568,0.18196 0.215821,0.0592 0.376628,0.0762 0.165039,0.0127 0.21582,0.0127 h 1.93392 v -4.9681 h 1.100261 z"/>
    <path id="path2270" style="font-weight:bold;font-size:8.66667px;font-family:Audiowide, sans-serif;letter-spacing:2px;fill:#333333" d="m 58.266292,371.46094 q 0,0.55436 -0.194661,1.01985 -0.19043,0.4655 -0.528972,0.80404 -0.338541,0.33431 -0.804036,0.52474 Q 56.273128,374 55.727229,374 h -2.970704 q -0.11849,0 -0.220052,-0.0423 -0.101563,-0.0423 -0.177735,-0.11426 -0.07194,-0.0762 -0.114258,-0.17773 -0.04232,-0.10156 -0.04232,-0.22005 V 368.486 q 0,-0.11426 0.04232,-0.21582 0.04232,-0.10156 0.114258,-0.17773 0.07617,-0.0762 0.177735,-0.11849 0.101562,-0.0423 0.220052,-0.0423 h 2.970704 q 0.545899,0 1.011394,0.19043 0.465495,0.19043 0.804036,0.52897 0.338542,0.33431 0.528972,0.80404 0.194661,0.46549 0.194661,1.01562 z m -1.10026,-0.99024 q 0,-0.32161 -0.105795,-0.58821 -0.101562,-0.26661 -0.291992,-0.4528 -0.19043,-0.19043 -0.457031,-0.292 -0.26237,-0.10579 -0.583985,-0.10579 h -2.424806 v 3.86784 h 2.424806 q 0.321615,0 0.583985,-0.10156 0.266601,-0.1058 0.457031,-0.292 0.19043,-0.19043 0.291992,-0.4528 0.105795,-0.2666 0.105795,-0.59244 z"/>
    <path id="path2272" style="font-weight:bold;font-size:8.66667px;font-family:Audiowide, sans-serif;letter-spacing:2px;fill:#333333" d="M 62.462581,374 H 61.36232 v -6.06836 h 1.100261 z"/>
    <path id="path2274" style="font-weight:bold;font-size:8.66667px;font-family:Audiowide, sans-serif;letter-spacing:2px;fill:#333333" d="m 72.126322,371.54557 q 0,0.55436 -0.190429,1.01986 -0.19043,0.46549 -0.528972,0.80404 -0.338542,0.33854 -0.804037,0.52897 -0.461263,0.1862 -1.007161,0.1862 h -1.489584 q -0.545899,0 -1.011394,-0.1862 -0.465495,-0.19043 -0.804037,-0.52897 -0.338541,-0.33855 -0.533203,-0.80404 -0.19043,-0.4655 -0.19043,-1.01986 v -1.1595 q 0,-0.55013 0.19043,-1.01563 0.194662,-0.46973 0.533203,-0.80404 0.338542,-0.33854 0.804037,-0.52897 0.465495,-0.19043 1.011394,-0.19043 h 1.489584 q 0.545898,0 1.007161,0.19043 0.465495,0.19043 0.804037,0.52897 0.338542,0.33431 0.528972,0.80404 0.190429,0.4655 0.190429,1.01563 z m -1.10026,-1.1595 q 0,-0.32585 -0.105795,-0.58822 -0.101562,-0.2666 -0.291992,-0.4528 -0.186198,-0.19043 -0.4528,-0.29199 -0.26237,-0.1058 -0.579752,-0.1058 h -1.489584 q -0.321615,0 -0.588217,0.1058 -0.26237,0.10156 -0.452799,0.29199 -0.19043,0.1862 -0.296224,0.4528 -0.101563,0.26237 -0.101563,0.58822 v 1.1595 q 0,0.32585 0.101563,0.59245 0.105794,0.26237 0.296224,0.4528 0.190429,0.1862 0.452799,0.29199 0.266602,0.10156 0.588217,0.10156 h 1.48112 q 0.321615,0 0.583985,-0.10156 0.266601,-0.10579 0.457031,-0.29199 0.19043,-0.19043 0.291992,-0.4528 0.105795,-0.2666 0.105795,-0.59245 z"/>
  </g>
  <path class="background-fill" d="M 26.5,370 H 28 v 2 h -1.5 z" style="fill:#dddddd" id="rect1540"/>
  <g style="font-weight:bold;font-size:10.6667px;font-family:Roboto, sans-serif;letter-spacing:0.5px;text-anchor:middle;fill:#333333" id="text1544" aria-label="RESPONSE">
    <path id="path2242" style="font-weight:bold;font-size:10.6667px;font-family:Roboto, sans-serif;letter-spacing:0.5px;text-anchor:middle;fill:#333333" d="M 17.369718,37.22395 H 16.124922 V 40 h -1.562505 v -7.583357 h 2.817718 q 1.343754,0 2.072923,0.59896 0.729169,0.59896 0.729169,1.692714 0,0.776044 -0.338543,1.296879 -0.333334,0.515626 -1.015628,0.822919 l 1.64063,3.098968 V 40 h -1.677089 z m -1.244796,-1.265629 h 1.260421 q 0.588543,0 0.911461,-0.296876 0.322918,-0.302085 0.322918,-0.828128 0,-0.53646 -0.307293,-0.843753 -0.302084,-0.307292 -0.932294,-0.307292 h -1.255213 z"/>
    <path id="path2244" style="font-weight:bold;font-size:10.6667px;font-family:Roboto, sans-serif;letter-spacing:0.5px;text-anchor:middle;fill:#333333" d="m 26.437453,36.713531 h -3.000009 v 2.031257 h 3.520844 V 40 h -5.083349 v -7.583357 h 5.072932 v 1.265629 h -3.510427 v 1.807297 h 3.000009 z"/>
    <path id="path2246" style="font-weight:bold;font-size:10.6667px;font-family:Roboto, sans-serif;letter-spacing:0.5px;text-anchor:middle;fill:#333333" d="m 32.307261,38.01041 q 0,-0.442709 -0.312501,-0.677085 -0.312501,-0.239584 -1.125003,-0.500002 -0.812503,-0.265626 -1.286463,-0.520835 -1.29167,-0.697919 -1.29167,-1.880214 0,-0.614585 0.343751,-1.093753 0.348959,-0.484377 0.994795,-0.755211 0.651043,-0.270834 1.458338,-0.270834 0.812502,0 1.447921,0.296876 0.635418,0.291667 0.984378,0.828127 0.354168,0.53646 0.354168,1.218754 H 32.31247 q 0,-0.520835 -0.328126,-0.807294 -0.328126,-0.291668 -0.921878,-0.291668 -0.572919,0 -0.890628,0.244793 -0.317709,0.239584 -0.317709,0.635418 0,0.369793 0.369793,0.619794 0.375001,0.250001 1.098961,0.468752 1.333338,0.401042 1.942715,0.994794 0.609377,0.593752 0.609377,1.479172 0,0.984378 -0.744794,1.54688 -0.744794,0.557293 -2.005215,0.557293 -0.875003,0 -1.593755,-0.317709 -0.718752,-0.322918 -1.098962,-0.880211 -0.375001,-0.557294 -0.375001,-1.291671 h 1.567713 q 0,1.255212 1.500005,1.255212 0.557293,0 0.869794,-0.223959 0.312501,-0.229167 0.312501,-0.635419 z"/>
    <path id="path2248" style="font-weight:bold;font-size:10.6667px;font-family:Roboto, sans-serif;letter-spacing:0.5px;text-anchor:middle;fill:#333333" d="M 36.999983,37.328117 V 40 h -1.562505 v -7.583357 h 2.958343 q 0.854169,0 1.500005,0.312501 0.651043,0.312501 1.000003,0.890628 0.348959,0.572918 0.348959,1.307295 0,1.114587 -0.765627,1.760423 -0.760419,0.640627 -2.109382,0.640627 z m 0,-1.265629 h 1.395838 q 0.619794,0 0.942711,-0.291668 0.328126,-0.291668 0.328126,-0.833336 0,-0.557293 -0.328126,-0.901045 -0.328126,-0.343751 -0.906253,-0.354167 h -1.432296 z"/>
    <path id="path2250" style="font-weight:bold;font-size:10.6667px;font-family:Roboto, sans-serif;letter-spacing:0.5px;text-anchor:middle;fill:#333333" d="m 49.041688,36.380197 q 0,1.119795 -0.395835,1.963548 -0.395835,0.843752 -1.13542,1.302087 -0.734378,0.458335 -1.687506,0.458335 -0.942711,0 -1.682297,-0.453126 -0.739585,-0.453127 -1.145837,-1.291671 -0.406251,-0.843753 -0.411459,-1.937506 v -0.375001 q 0,-1.119796 0.401043,-1.968757 0.406251,-0.854169 1.140628,-1.307296 0.739586,-0.458334 1.687506,-0.458334 0.947919,0 1.682297,0.458334 0.739585,0.453127 1.140628,1.307296 0.406252,0.848961 0.406252,1.963548 z m -1.583339,-0.343751 q 0,-1.192712 -0.427084,-1.812506 -0.427085,-0.619794 -1.218754,-0.619794 -0.786461,0 -1.213546,0.614586 -0.427085,0.609377 -0.432293,1.791672 v 0.369793 q 0,1.161462 0.427085,1.802089 0.427085,0.640627 1.22917,0.640627 0.786461,0 1.208338,-0.614585 0.421876,-0.619794 0.427084,-1.802089 z"/>
    <path id="path2252" style="font-weight:bold;font-size:10.6667px;font-family:Roboto, sans-serif;letter-spacing:0.5px;text-anchor:middle;fill:#333333" d="M 56.85421,40 H 55.291705 L 52.250029,35.010401 V 40 h -1.562505 v -7.583357 h 1.562505 l 3.046885,5.000016 v -5.000016 h 1.557296 z"/>
    <path id="path2254" style="font-weight:bold;font-size:10.6667px;font-family:Roboto, sans-serif;letter-spacing:0.5px;text-anchor:middle;fill:#333333" d="m 62.661519,38.01041 q 0,-0.442709 -0.312501,-0.677085 -0.312501,-0.239584 -1.125004,-0.500002 -0.812502,-0.265626 -1.286462,-0.520835 -1.291671,-0.697919 -1.291671,-1.880214 0,-0.614585 0.343751,-1.093753 0.34896,-0.484377 0.994795,-0.755211 0.651044,-0.270834 1.458338,-0.270834 0.812503,0 1.447921,0.296876 0.635419,0.291667 0.984378,0.828127 0.354168,0.53646 0.354168,1.218754 h -1.562505 q 0,-0.520835 -0.328126,-0.807294 -0.328126,-0.291668 -0.921878,-0.291668 -0.572918,0 -0.890627,0.244793 -0.31771,0.239584 -0.31771,0.635418 0,0.369793 0.369793,0.619794 0.375001,0.250001 1.098962,0.468752 1.333337,0.401042 1.942714,0.994794 0.609377,0.593752 0.609377,1.479172 0,0.984378 -0.744794,1.54688 -0.744794,0.557293 -2.005214,0.557293 -0.875003,0 -1.593755,-0.317709 -0.718753,-0.322918 -1.098962,-0.880211 -0.375001,-0.557294 -0.375001,-1.291671 h 1.567713 q 0,1.255212 1.500005,1.255212 0.557293,0 0.869794,-0.223959 0.312501,-0.229167 0.312501,-0.635419 z"/>
    <path id="path2256" style="font-weight:bold;font-size:10.6667px;font-family:Roboto, sans-serif;letter-spacing:0.5px;text-anchor:middle;fill:#333333" d="m 70.354248,36.713531 h -3.000009 v 2.031257 h 3.520844 V 40 h -5.083349 v -7.583357 h 5.072933 v 1.265629 h -3.510428 v 1.807297 h 3.000009 z"/>
  </g>
  <g transform="translate(-3,27.5)" id="g1546"/>
  <g transform="translate(12,42.5)" id="g1576">
    <g transform="translate(30,30)" id="g1574">
      <path d="M 0,0 H 4.5" style="stroke:#333333;stroke-width:1.5" transform="rotate(120,-12.5,7.2168784)" id="polyline1548"/>
      <path d="M 0,0 H 3" style="stroke:#333333;stroke-width:0.7" transform="rotate(150,-12.5,3.3493649)" id="polyline1550"/>
      <path d="M 0,0 H 3" style="stroke:#333333;stroke-width:0.7" transform="rotate(180,-12.5,0)" id="polyline1552"/>
      <path d="M 0,0 H 3" style="stroke:#333333;stroke-width:0.7" transform="rotate(-150,-12.5,-3.3493649)" id="polyline1554"/>
      <path d="M 0,0 H 3" style="stroke:#333333;stroke-width:0.7" transform="rotate(-120,-12.5,-7.2168784)" id="polyline1556"/>
      <path d="M 0,0 H 3" style="stroke:#333333;stroke-width:0.7" transform="rotate(-90,-12.5,-12.5)" id="polyline1558"/>
      <path d="M 0,0 H 3" style="stroke:#333333;stroke-width:0.7" transform="rotate(-60,-12.5,-21.650635)" id="polyline1560"/>
      <path d="M 0,0 H 3" style="stroke:#333333;stroke-width:0.7" transform="rotate(-30,-12.5,-46.650635)" id="polyline1562"/>
      <path d="M 0,0 H 3" style="stroke:#333333;stroke-width:0.7" transform="translate(25)" id="polyline1564"/>
      <path d="M 0,0 H 3" style="stroke:#333333;stroke-width:0.7" transform="rotate(30,-12.5,46.650635)" id="polyline1566"/>
      <path d="M 0,0 H 3" style="stroke:#333333;stroke-width:0.7" transform="rotate(60,-12.5,21.650635)" id="polyline1568"/>
      <path d="M -3,0 H 3" style="stroke:#333333;stroke-width:1" id="polyline1570"/>
      <path d="M 0,-3 V 3" style="stroke:#333333;stroke-width:1" id="polyline1572"/>
    </g>
  </g>
  <g transform="translate(26,107)" id="g1582">
    <g style="font-weight:bold;font-size:6.66667px;font-family:Roboto, sans-serif;letter-spacing:1px;fill:#333333" id="text1578" transform="translate(12,6)" aria-label="LONG">
      <path id="path2220" style="font-weight:bold;font-size:6.66667px;font-family:Roboto, sans-serif;letter-spacing:1px;fill:#333333" d="M 1.3997403,-0.78450558 H 3.4733089 V 0 H 0.42317729 V -4.7395856 H 1.3997403 Z"/>
      <path id="path2222" style="font-weight:bold;font-size:6.66667px;font-family:Roboto, sans-serif;letter-spacing:1px;fill:#333333" d="m 8.7148477,-2.2623709 q 0,0.6998702 -0.2473959,1.2272142 -0.247396,0.52734396 -0.7096358,0.81380243 -0.4589846,0.28645847 -1.054688,0.28645847 -0.589193,0 -1.0514328,-0.28320326 Q 5.1894554,-0.50130232 4.935549,-1.0253911 4.6816427,-1.5527351 4.6783875,-2.2363292 v -0.2343751 q 0,-0.6998701 0.2506511,-1.2304693 0.2539064,-0.5338545 0.712891,-0.8170577 0.4622398,-0.2864585 1.054688,-0.2864585 0.5924482,0 1.0514328,0.2864585 0.4622398,0.2832032 0.7128909,0.8170577 0.2539064,0.5305992 0.2539064,1.2272141 z M 7.7252639,-2.4772147 q 0,-0.7454431 -0.2669272,-1.1328131 -0.2669272,-0.3873699 -0.7617191,-0.3873699 -0.4915367,0 -0.7584639,0.3841147 -0.2669272,0.3808596 -0.2701824,1.1197922 v 0.2311199 q 0,0.7259118 0.2669272,1.1263026 0.2669272,0.40039087 0.7682295,0.40039087 0.4915367,0 0.7552087,-0.38411477 0.263672,-0.38737 0.2669272,-1.1263026 z"/>
      <path id="path2224" style="font-weight:bold;font-size:6.66667px;font-family:Roboto, sans-serif;letter-spacing:1px;fill:#333333" d="M 14.285162,0 H 13.308599 L 11.407557,-3.1184911 V 0 h -0.976563 v -4.7395856 h 0.976563 l 1.904297,3.1250015 v -3.1250015 h 0.973308 z"/>
      <path id="path2226" style="font-weight:bold;font-size:6.66667px;font-family:Roboto, sans-serif;letter-spacing:1px;fill:#333333" d="m 19.894539,-0.59895862 q -0.263672,0.31575536 -0.745443,0.49153669 -0.481771,0.17252613 -1.067709,0.17252613 -0.615234,0 -1.080729,-0.26692721 -0.46224,-0.27018242 -0.716146,-0.78125038 Q 16.03386,-1.4941413 16.02735,-2.1842458 v -0.3222658 q 0,-0.7096358 0.23763,-1.2272141 0.240886,-0.5208336 0.690105,-0.7942713 0.452474,-0.2766928 1.057943,-0.2766928 0.843099,0 1.31836,0.403646 0.475261,0.4003909 0.563151,1.1686204 h -0.950521 q -0.0651,-0.4069013 -0.289714,-0.5957034 -0.221354,-0.1888022 -0.611979,-0.1888022 -0.498047,0 -0.758464,0.3743491 -0.260417,0.3743492 -0.263672,1.1132818 v 0.3027345 q 0,0.7454431 0.283203,1.1263027 0.283203,0.38085952 0.830079,0.38085952 0.55013,0 0.784505,-0.23437512 v -0.8170577 h -0.888672 v -0.7194014 h 1.865235 z"/>
    </g>
    <g transform="translate(0,-1)" id="g1580"/>
  </g>
  <g transform="translate(88,40)" id="g1616">
    <g style="font-weight:bold;font-size:10.6667px;font-family:Roboto, sans-serif;letter-spacing:0.5px;text-anchor:middle;fill:#333333" id="text1586" transform="translate(8)" aria-label="RISE">
      <path id="path2202" style="font-weight:bold;font-size:10.6667px;font-family:Roboto, sans-serif;letter-spacing:0.5px;text-anchor:middle;fill:#333333" d="M -8.5052328,-2.7760504 H -9.7500284 V 0 h -1.5625046 v -7.5833573 h 2.8177169 q 1.3437542,0 2.0729232,0.5989602 0.729169,0.5989603 0.729169,1.6927137 0,0.7760441 -0.3385428,1.2968791 -0.3333344,0.5156266 -1.0156282,0.8229193 l 1.6406302,3.0989681 V 0 h -1.6770886 z m -1.2447956,-1.265629 h 1.2604206 q 0.5885435,0 0.9114612,-0.296876 0.3229177,-0.3020843 0.3229177,-0.8281276 0,-0.53646 -0.3072926,-0.8437527 -0.3020843,-0.3072926 -0.9322946,-0.3072926 h -1.2552123 z"/>
      <path id="path2204" style="font-weight:bold;font-size:10.6667px;font-family:Roboto, sans-serif;letter-spacing:0.5px;text-anchor:middle;fill:#333333" d="m -2.3385483,0 h -1.562505 v -7.5833573 h 1.562505 z"/>
      <path id="path2206" style="font-weight:bold;font-size:10.6667px;font-family:Roboto, sans-serif;letter-spacing:0.5px;text-anchor:middle;fill:#333333" d="m 3.5364692,-1.9895896 q 0,-0.4427098 -0.312501,-0.6770855 -0.312501,-0.2395841 -1.1250036,-0.5000016 -0.8125025,-0.2656258 -1.28646236,-0.5208349 -1.29167075,-0.6979189 -1.29167075,-1.8802143 0,-0.6145853 0.34375109,-1.0937535 0.34895943,-0.4843765 0.99479481,-0.7552107 0.65104371,-0.2708342 1.45833791,-0.2708342 0.8125026,0 1.4479213,0.296876 0.6354186,0.2916675 0.9843781,0.8281276 0.3541678,0.53646 0.3541678,1.2187538 h -1.562505 q 0,-0.520835 -0.328126,-0.8072942 -0.328126,-0.2916676 -0.9218779,-0.2916676 -0.5729185,0 -0.8906278,0.2447925 -0.3177094,0.239584 -0.3177094,0.6354186 0,0.3697929 0.3697929,0.6197937 0.3750011,0.2500007 1.0989618,0.4687514 1.3333375,0.401043 1.9427144,0.9947948 0.609377,0.5937519 0.609377,1.4791714 0,0.9843781 -0.7447941,1.54687987 Q 3.6145944,0.104167 2.3541738,0.104167 q -0.8750028,0 -1.59375506,-0.31770934 -0.71875227,-0.32291769 -1.0989618,-0.88021116 -0.37500119,-0.5572934 -0.37500119,-1.2916707 h 1.56771329 q 0,1.2552123 1.50000476,1.2552123 0.5572934,0 0.8697944,-0.223959 0.312501,-0.2291674 0.312501,-0.6354187 z"/>
      <path id="path2208" style="font-weight:bold;font-size:10.6667px;font-family:Roboto, sans-serif;letter-spacing:0.5px;text-anchor:middle;fill:#333333" d="M 11.229199,-3.2864687 H 8.2291891 v 2.0312564 H 11.750034 V 0 H 6.6666842 v -7.5833573 h 5.0729328 v 1.265629 H 8.2291891 v 1.8072974 h 3.0000099 z"/>
    </g>
    <g transform="translate(0,10)" id="g1588"/>
    <g transform="translate(-12,-2)" id="g1614">
      <g transform="translate(20,20)" id="g1612">
        <path d="M 0,0 H 2.5" style="stroke:#333333;stroke-width:0.7" transform="rotate(-52.5,-5,-10.138997)" id="polyline1590"/>
        <path d="M 0,0 H 2.5" style="stroke:#333333;stroke-width:0.7" transform="rotate(-15,-5,-37.978771)" id="polyline1592"/>
        <path d="M 0,0 H 2.5" style="stroke:#333333;stroke-width:0.7" transform="rotate(22.5,-5,25.136697)" id="polyline1594"/>
        <path d="M 0,0 H 2.5" style="stroke:#333333;stroke-width:0.7" transform="rotate(-127.5,-5,-2.4657271)" id="polyline1596"/>
        <path d="M 0,0 H 2.5" style="stroke:#333333;stroke-width:0.7" transform="rotate(-165,-5,-0.65826249)" id="polyline1598"/>
        <path d="M 0,0 H 2.5" style="stroke:#333333;stroke-width:0.7" transform="rotate(157.5,-5,0.99456184)" id="polyline1600"/>
        <path d="M -3.5,0 Q 0,3.5 3.5,0" stroke-width="1" stroke="#333" fill="none" transform="rotate(-45,17.840007,-4.6312425)" id="path1602"/>
        <path d="m -3.5,0 h 7" style="fill:none;stroke:#333333;stroke-width:1" transform="rotate(-45,-15.692388,-6.5)" id="polyline1604"/>
        <path d="M -3.5,0 Q 0,3.5 3.5,0" stroke-width="1" stroke="#333" fill="none" transform="rotate(135,-6.5816765,3.8687575)" id="path1606"/>
        <path d="M -3,0 H 3" style="stroke:#333333;stroke-width:1" id="polyline1608"/>
        <path d="M 0,-3 V 3" style="stroke:#333333;stroke-width:1" id="polyline1610"/>
      </g>
    </g>
  </g>
  <g transform="translate(88,85)" id="g1648">
    <g style="font-weight:bold;font-size:9.33333px;font-family:Roboto, sans-serif;letter-spacing:0.5px;text-anchor:middle;fill:#333333" id="text1618" transform="translate(8)" aria-label="FALL">
      <path id="path2184" style="font-weight:bold;font-size:9.33333px;font-family:Roboto, sans-serif;letter-spacing:0.5px;text-anchor:middle;fill:#333333" d="M -6.483071,-2.7115876 H -9.1080701 V 0 h -1.3671869 v -6.6354144 h 4.3203109 v 1.1074215 h -2.953124 v 1.7135411 h 2.6249991 z"/>
      <path id="path2186" style="font-weight:bold;font-size:9.33333px;font-family:Roboto, sans-serif;letter-spacing:0.5px;text-anchor:middle;fill:#333333" d="M -1.9817701,-1.367187 H -4.3789047 L -4.8346337,0 h -1.4537755 l 2.4700512,-6.6354144 h 1.2669267 L -0.06770822,0 H -1.5214838 Z m -2.0279941,-1.1074215 h 1.6588536 l -0.8339841,-2.4837231 z"/>
      <path id="path2188" style="font-weight:bold;font-size:9.33333px;font-family:Roboto, sans-serif;letter-spacing:0.5px;text-anchor:middle;fill:#333333" d="M 2.4283851,-1.0983069 H 5.3313789 V 0 H 1.0611981 v -6.6354144 h 1.367187 z"/>
      <path id="path2190" style="font-weight:bold;font-size:9.33333px;font-family:Roboto, sans-serif;letter-spacing:0.5px;text-anchor:middle;fill:#333333" d="M 7.9778636,-1.0983069 H 10.880857 V 0 H 6.6106766 v -6.6354144 h 1.367187 z"/>
    </g>
    <g transform="translate(0,10)" id="g1620"/>
    <g transform="translate(-12,-2)" id="g1646">
      <g transform="translate(20,20)" id="g1644">
        <path d="M 0,0 H 2.5" style="stroke:#333333;stroke-width:0.7" transform="rotate(-52.5,-5,-10.138997)" id="polyline1622"/>
        <path d="M 0,0 H 2.5" style="stroke:#333333;stroke-width:0.7" transform="rotate(-15,-5,-37.978771)" id="polyline1624"/>
        <path d="M 0,0 H 2.5" style="stroke:#333333;stroke-width:0.7" transform="rotate(22.5,-5,25.136697)" id="polyline1626"/>
        <path d="M 0,0 H 2.5" style="stroke:#333333;stroke-width:0.7" transform="rotate(-127.5,-5,-2.4657271)" id="polyline1628"/>
        <path d="M 0,0 H 2.5" style="stroke:#333333;stroke-width:0.7" transform="rotate(-165,-5,-0.65826249)" id="polyline1630"/>
        <path d="M 0,0 H 2.5" style="stroke:#333333;stroke-width:0.7" transform="rotate(157.5,-5,0.99456184)" id="polyline1632"/>
        <path d="M -3.5,0 Q 0,3.5 3.5,0" stroke-width="1" stroke="#333" fill="none" transform="rotate(-135,6.5816765,3.8687575)" id="path1634"/>
        <path d="m -3.5,0 h 7" style="fill:none;stroke:#333333;stroke-width:1" transform="rotate(45,15.692388,-6.5)" id="polyline1636"/>
        <path d="M -3.5,0 Q 0,3.5 3.5,0" stroke-width="1" stroke="#333" fill="none" transform="rotate(45,-17.840007,-4.6312425)" id="path1638"/>
        <path d="M -3,0 H 3" style="stroke:#333333;stroke-width:1" id="polyline1640"/>
        <path d="M 0,-3 V 3" style="stroke:#333333;stroke-width:1" id="polyline1642"/>
      </g>
    </g>
  </g>
  <g style="font-weight:bold;font-size:12px;font-family:Roboto, sans-serif;letter-spacing:2px;text-anchor:middle;fill:#333333" id="text1652" transform="rotate(-90)" aria-label="LPF">
    <path id="path2177" style="font-weight:bold;font-size:12px;font-family:Roboto, sans-serif;letter-spacing:2px;text-anchor:middle;fill:#333333" d="m -169.88672,14.587891 h 3.73242 V 16 h -5.49023 V 7.46875 h 1.75781 z"/>
    <path id="path2179" style="font-weight:bold;font-size:12px;font-family:Roboto, sans-serif;letter-spacing:2px;text-anchor:middle;fill:#333333" d="M -161.39453,12.994141 V 16 h -1.75781 V 7.46875 h 3.32812 q 0.96094,0 1.6875,0.3515625 0.73242,0.3515625 1.125,1.0019531 0.39258,0.6445313 0.39258,1.4707034 0,1.253906 -0.86133,1.980469 -0.85547,0.720703 -2.37305,0.720703 z m 0,-1.423828 h 1.57031 q 0.69727,0 1.06055,-0.328125 0.36914,-0.328125 0.36914,-0.9375 0,-0.6269536 -0.36914,-1.0136724 -0.36914,-0.3867187 -1.01953,-0.3984375 h -1.61133 z"/>
    <path id="path2181" style="font-weight:bold;font-size:12px;font-family:Roboto, sans-serif;letter-spacing:2px;text-anchor:middle;fill:#333333" d="m -148.28516,12.513672 h -3.375 V 16 h -1.75781 V 7.46875 h 5.55469 v 1.4238281 h -3.79688 v 2.2031249 h 3.375 z"/>
  </g>
  <g transform="translate(23,134)" id="g1720">
    <g transform="translate(3.5)" id="g1686">
      <g transform="translate(0.5,8)" id="g1684">
        <g style="font-weight:bold;font-size:9.33333px;font-family:Roboto, sans-serif;letter-spacing:2px;text-anchor:middle;fill:#333333" id="text1654" transform="translate(15)" aria-label="ENV">
          <path id="path2114" style="font-weight:bold;font-size:9.33333px;font-family:Roboto, sans-serif;letter-spacing:2px;text-anchor:middle;fill:#333333" d="m -6.3932277,-2.8756501 h -2.6249991 v 1.7773432 h 3.0807281 V 0 h -4.4479153 v -6.6354144 h 4.4388008 v 1.1074215 h -3.0716136 v 1.5813797 h 2.6249991 z"/>
          <path id="path2116" style="font-weight:bold;font-size:9.33333px;font-family:Roboto, sans-serif;letter-spacing:2px;text-anchor:middle;fill:#333333" d="M 2.2604158,0 H 0.89322874 L -1.7682287,-4.3658839 V 0 h -1.367187 v -6.6354144 h 1.367187 l 2.66601473,4.3749985 V -6.6354144 H 2.2604158 Z"/>
          <path id="path2118" style="font-weight:bold;font-size:9.33333px;font-family:Roboto, sans-serif;letter-spacing:2px;text-anchor:middle;fill:#333333" d="M 7.9153625,-1.6451817 9.4192682,-6.6354144 H 10.941403 L 8.630857,0 H 7.2044252 L 4.9029937,-6.6354144 h 1.5175776 z"/>
        </g>
        <g transform="translate(0,10)" id="g1656"/>
        <g transform="translate(0,10)" id="g1682">
          <g transform="translate(14.5,14.5)" id="g1680">
            <g style="font-weight:bold;font-size:12px;font-family:Roboto, sans-serif;fill:#333333" id="text1658" transform="translate(-11.2,19.188457)" aria-label="-">
              <path id="path2121" style="font-weight:bold;font-size:12px;font-family:Roboto, sans-serif;fill:#333333" d="M 3.9433594,-2.9707031 H 0.64453125 V -4.3359375 H 3.9433594 Z"/>
            </g>
            <path d="M 0,0 H 2.5" style="stroke:#333333;stroke-width:0.7" transform="rotate(150,-8,2.1435935)" id="polyline1660"/>
            <path d="M 0,0 H 2.5" style="stroke:#333333;stroke-width:0.7" transform="rotate(180,-8,0)" id="polyline1662"/>
            <path d="M 0,0 H 2.5" style="stroke:#333333;stroke-width:0.7" transform="rotate(-150,-8,-2.1435935)" id="polyline1664"/>
            <path d="M 0,0 H 2.5" style="stroke:#333333;stroke-width:0.7" transform="rotate(-120,-8,-4.6188022)" id="polyline1666"/>
            <g style="font-weight:bold;font-size:6.66667px;font-family:Roboto, sans-serif;fill:#333333" id="text1668" transform="translate(-2,-17)" aria-label="0">
              <path id="path2128" style="font-weight:bold;font-size:6.66667px;font-family:Roboto, sans-serif;fill:#333333" d="m 3.5123715,-1.9596364 q 0,0.98307343 -0.4069013,1.50390702 Q 2.698569,0.0651042 1.9140634,0.0651042 q -0.7747399,0 -1.18489639,-0.51106795 Q 0.31901057,-0.95703171 0.30924494,-1.9108082 v -0.8723963 q 0,-0.992839 0.41015644,-1.5071621 0.41341162,-0.5143232 1.18815162,-0.5143232 0.7747399,0 1.1848964,0.511068 0.4101564,0.5078127 0.4199221,1.4615892 z M 2.5716158,-2.9166681 q 0,-0.5891929 -0.1627605,-0.8561202 Q 2.24935,-4.0429707 1.907553,-4.0429707 q -0.3320314,0 -0.4915367,0.2571616 -0.1562501,0.2539064 -0.1660157,0.7975264 v 1.1523443 q 0,0.5794274 0.1562501,0.86263064 0.1595053,0.27994805 0.5078127,0.27994805 0.3450523,0 0.4980471,-0.27018242 0.1529949,-0.27018237 0.1595053,-0.82682327 z"/>
            </g>
            <path d="M 0,0 H 2.5" style="stroke:#333333;stroke-width:0.7" transform="rotate(-60,-8,-13.856406)" id="polyline1670"/>
            <path d="M 0,0 H 2.5" style="stroke:#333333;stroke-width:0.7" transform="rotate(-30,-8,-29.856406)" id="polyline1672"/>
            <path d="M 0,0 H 2.5" style="stroke:#333333;stroke-width:0.7" transform="translate(16)" id="polyline1674"/>
            <path d="M 0,0 H 2.5" style="stroke:#333333;stroke-width:0.7" transform="rotate(30,-8,29.856406)" id="polyline1676"/>
            <g style="font-weight:bold;font-size:6.66667px;font-family:Roboto, sans-serif;fill:#333333" id="text1678" transform="translate(7,17.588457)" aria-label="+">
              <path id="path2135" style="font-weight:bold;font-size:6.66667px;font-family:Roboto, sans-serif;fill:#333333" d="m 2.2591157,-2.6529961 h 1.1751307 v 0.8496098 H 2.2591157 v 1.32812566 H 1.3639329 V -1.8033863 H 0.18554696 V -2.6529961 H 1.3639329 v -1.272787 h 0.8951828 z"/>
            </g>
          </g>
        </g>
      </g>
    </g>
    <g transform="translate(52)" id="g1718">
      <g transform="translate(0.5,8)" id="g1716">
        <g style="font-weight:bold;font-size:9.33333px;font-family:Roboto, sans-serif;letter-spacing:2px;text-anchor:middle;fill:#333333" id="text1688" transform="translate(15)" aria-label="BIAS">
          <path id="path2138" style="font-weight:bold;font-size:9.33333px;font-family:Roboto, sans-serif;letter-spacing:2px;text-anchor:middle;fill:#333333" d="m -12.807288,0 v -6.6354144 h 2.324218 q 1.2076815,0 1.8320303,0.4648436 0.6243487,0.4602863 0.6243487,1.3535151 0,0.4876301 -0.250651,0.8613279 -0.2506509,0.3691405 -0.6972653,0.5423175 0.5104165,0.1276041 0.802083,0.5149738 0.2962239,0.3873696 0.2962239,0.9479163 0,0.95703096 -0.6106769,1.44921829 Q -9.0976542,-0.00911458 -10.227862,0 Z m 1.367187,-2.8893219 v 1.791015 h 1.171223 q 0.483073,0 0.7519531,-0.2278645 0.2734374,-0.2324218 0.2734374,-0.6380206 0,-0.9114581 -0.9433595,-0.9251299 z m 0,-0.9661455 h 1.011718 q 1.034505,-0.018229 1.034505,-0.8248695 0,-0.4511718 -0.2643229,-0.6471352 -0.2597655,-0.2005208 -0.8248691,-0.2005208 h -0.957031 z"/>
          <path id="path2140" style="font-weight:bold;font-size:9.33333px;font-family:Roboto, sans-serif;letter-spacing:2px;text-anchor:middle;fill:#333333" d="m -3.3925772,0 h -1.367187 v -6.6354144 h 1.367187 z"/>
          <path id="path2142" style="font-weight:bold;font-size:9.33333px;font-family:Roboto, sans-serif;letter-spacing:2px;text-anchor:middle;fill:#333333" d="M 3.7070308,-1.367187 H 1.3098962 L 0.85416716,0 H -0.59960839 L 1.8704429,-6.6354144 H 3.1373695 L 5.6210926,0 H 4.1673171 Z M 1.6790367,-2.4746085 H 3.3378903 L 2.5039062,-4.9583316 Z"/>
          <path id="path2144" style="font-weight:bold;font-size:9.33333px;font-family:Roboto, sans-serif;letter-spacing:2px;text-anchor:middle;fill:#333333" d="m 11.690753,-1.7408848 q 0,-0.3873697 -0.273437,-0.5924477 -0.273438,-0.2096354 -0.984375,-0.4374999 -0.7109374,-0.2324218 -1.1256508,-0.455729 -1.130208,-0.6106769 -1.130208,-1.6451817 0,-0.5377603 0.3007812,-0.957031 0.3053384,-0.4238279 0.8704424,-0.660807 0.5696613,-0.2369791 1.2760412,-0.2369791 0.710937,0 1.266927,0.2597655 0.555989,0.2552083 0.861328,0.7246092 0.309895,0.4694008 0.309895,1.0664058 H 11.69531 q 0,-0.455729 -0.287109,-0.7063799 -0.287109,-0.2552083 -0.80664,-0.2552083 -0.501302,0 -0.779297,0.2141927 -0.2779947,0.2096353 -0.2779947,0.5559894 0,0.3235676 0.3235676,0.5423175 0.3281251,0.2187499 0.9615881,0.4101561 1.166666,0.3509113 1.699869,0.8704424 0.533203,0.5195311 0.533203,1.2942704 0,0.86132783 -0.651692,1.35351516 -0.651693,0.48763004 -1.754557,0.48763004 -0.7656247,0 -1.3945307,-0.27799469 Q 8.6328113,-0.46940088 8.3001291,-0.95703092 7.9720042,-1.444661 7.9720042,-2.0872389 h 1.3717443 q 0,1.09830695 1.3124995,1.09830695 0.48763,0 0.761068,-0.19596345 0.273437,-0.2005208 0.273437,-0.5559894 z"/>
        </g>
        <g transform="translate(0,10)" id="g1690"/>
        <g transform="translate(-11,2)" id="g1714">
          <g transform="translate(25.5,22.5)" id="g1712">
            <g style="font-weight:bold;font-size:6.66667px;font-family:Roboto, sans-serif;fill:#333333" id="text1692" transform="translate(8.5,18.722432)" aria-label="20K">
              <path id="path2147" style="font-weight:bold;font-size:6.66667px;font-family:Roboto, sans-serif;fill:#333333" d="M 3.5709652,0 H 0.32226578 V -0.64453156 L 1.8554696,-2.2786469 q 0.3157554,-0.3450523 0.465495,-0.6022138 0.1529949,-0.2571616 0.1529949,-0.4882815 0,-0.3157554 -0.1595053,-0.4947919 -0.1595053,-0.1822918 -0.4557294,-0.1822918 -0.3190105,0 -0.5045575,0.2213543 -0.1822917,0.218099 -0.1822917,0.5761721 H 0.22786469 q 0,-0.4329429 0.20507822,-0.791016 0.20833344,-0.3580731 0.58593779,-0.5598961 0.3776043,-0.2050782 0.8561202,-0.2050782 0.7324222,0 1.1360682,0.3515627 0.4069013,0.3515626 0.4069013,0.992839 0,0.3515627 -0.1822918,0.7161462 -0.1822917,0.3645835 -0.6250003,0.8496097 l -1.0774744,1.1360683 h 2.0377613 z"/>
              <path id="path2149" style="font-weight:bold;font-size:6.66667px;font-family:Roboto, sans-serif;fill:#333333" d="m 7.3404984,-1.9596364 q 0,0.98307343 -0.4069013,1.50390702 -0.4069012,0.52083358 -1.1914068,0.52083358 -0.7747399,0 -1.1848964,-0.51106795 Q 4.1471375,-0.95703171 4.1373718,-1.9108082 v -0.8723963 q 0,-0.992839 0.4101565,-1.5071621 0.4134116,-0.5143232 1.1881516,-0.5143232 0.77474,0 1.1848964,0.511068 0.4101564,0.5078127 0.4199221,1.4615892 z M 6.3997427,-2.9166681 q 0,-0.5891929 -0.1627605,-0.8561202 -0.1595053,-0.2701824 -0.5013023,-0.2701824 -0.3320314,0 -0.4915367,0.2571616 -0.1562501,0.2539064 -0.1660157,0.7975264 v 1.1523443 q 0,0.5794274 0.1562501,0.86263064 0.1595053,0.27994805 0.5078127,0.27994805 0.3450523,0 0.4980471,-0.27018242 0.1529949,-0.27018237 0.1595053,-0.82682327 z"/>
              <path id="path2151" style="font-weight:bold;font-size:6.66667px;font-family:Roboto, sans-serif;fill:#333333" d="M 9.5638068,-1.9010426 9.0559941,-1.3541673 V 0 h -0.976563 v -4.7395856 h 0.976563 v 2.1484385 l 0.4296877,-0.589193 1.2076832,-1.5592455 h 1.201172 L 10.211594,-2.6334648 11.943365,0 h -1.16211 z"/>
            </g>
            <g style="font-weight:bold;font-size:6.66667px;font-family:Roboto, sans-serif;fill:#333333" id="text1694" transform="translate(-4,-16.8)" aria-label="5K">
              <path id="path2154" style="font-weight:bold;font-size:6.66667px;font-family:Roboto, sans-serif;fill:#333333" d="M 0.4622398,-2.3307303 0.73567743,-4.7395856 H 3.3919287 V -3.95508 H 1.5071622 l -0.1171876,1.0188807 q 0.3352866,-0.1790366 0.712891,-0.1790366 0.6770836,0 1.0611984,0.4199221 0.3841148,0.4199221 0.3841148,1.1751308 0,0.4589846 -0.1953126,0.82356808 -0.1920574,0.3613283 -0.5533857,0.56315131 -0.3613283,0.19856781 -0.852865,0.19856781 -0.4296877,0 -0.7975264,-0.17252613 Q 0.78125037,-0.28320326 0.56640652,-0.59895862 0.35481788,-0.91471398 0.34179704,-1.31836 H 1.2727871 q 0.029297,0.2962241 0.2050782,0.4622398 0.1790365,0.16276049 0.465495,0.16276049 0.3190106,0 0.4915367,-0.22786469 0.1725261,-0.2311199 0.1725261,-0.651042 0,-0.403646 -0.1985678,-0.6184899 -0.1985678,-0.2148438 -0.5631513,-0.2148438 -0.3352866,0 -0.54362,0.1757813 l -0.091146,0.084636 z"/>
              <path id="path2156" style="font-weight:bold;font-size:6.66667px;font-family:Roboto, sans-serif;fill:#333333" d="M 5.7356799,-1.9010426 5.2278672,-1.3541673 V 0 h -0.976563 v -4.7395856 h 0.976563 v 2.1484385 l 0.4296877,-0.589193 1.2076828,-1.5592455 H 8.0664102 L 6.3834667,-2.6334648 8.1152383,0 H 6.9531284 Z"/>
            </g>
            <g style="font-weight:bold;font-size:6.66667px;font-family:Roboto, sans-serif;fill:#333333" id="text1696" transform="translate(-23.854307,-0.14842806)" aria-label="1K">
              <path id="path2159" style="font-weight:bold;font-size:6.66667px;font-family:Roboto, sans-serif;fill:#333333" d="M 2.6074231,0 H 1.6666675 V -3.6263038 L 0.54362005,-3.2779964 V -4.0429707 L 2.5065116,-4.746096 h 0.1009115 z"/>
              <path id="path2161" style="font-weight:bold;font-size:6.66667px;font-family:Roboto, sans-serif;fill:#333333" d="M 5.7356799,-1.9010426 5.2278672,-1.3541673 V 0 h -0.976563 v -4.7395856 h 0.976563 v 2.1484385 l 0.4296877,-0.589193 1.2076828,-1.5592455 H 8.0664102 L 6.3834667,-2.6334648 8.1152383,0 H 6.9531284 Z"/>
            </g>
            <g style="font-weight:bold;font-size:6.66667px;font-family:Roboto, sans-serif;fill:#333333" id="text1698" transform="translate(-20.5,18.722432)" aria-label="0HZ">
              <path id="path2164" style="font-weight:bold;font-size:6.66667px;font-family:Roboto, sans-serif;fill:#333333" d="m 3.5123715,-1.9596364 q 0,0.98307343 -0.4069013,1.50390702 Q 2.698569,0.0651042 1.9140634,0.0651042 q -0.7747399,0 -1.18489639,-0.51106795 Q 0.31901057,-0.95703171 0.30924494,-1.9108082 v -0.8723963 q 0,-0.992839 0.41015644,-1.5071621 0.41341162,-0.5143232 1.18815162,-0.5143232 0.7747399,0 1.1848964,0.511068 0.4101564,0.5078127 0.4199221,1.4615892 z M 2.5716158,-2.9166681 q 0,-0.5891929 -0.1627605,-0.8561202 Q 2.24935,-4.0429707 1.907553,-4.0429707 q -0.3320314,0 -0.4915367,0.2571616 -0.1562501,0.2539064 -0.1660157,0.7975264 v 1.1523443 q 0,0.5794274 0.1562501,0.86263064 0.1595053,0.27994805 0.5078127,0.27994805 0.3450523,0 0.4980471,-0.27018242 0.1529949,-0.27018237 0.1595053,-0.82682327 z"/>
              <path id="path2166" style="font-weight:bold;font-size:6.66667px;font-family:Roboto, sans-serif;fill:#333333" d="M 8.1087279,0 H 7.1321649 V -2.031251 H 5.2278672 V 0 h -0.976563 v -4.7395856 h 0.976563 v 1.9205738 h 1.9042977 v -1.9205738 h 0.976563 z"/>
              <path id="path2168" style="font-weight:bold;font-size:6.66667px;font-family:Roboto, sans-serif;fill:#333333" d="m 10.000005,-0.78450558 h 2.389324 V 0 H 8.7793011 V -0.57291694 L 11.123052,-3.9485696 H 8.7825563 v -0.791016 h 3.5546897 v 0.5598961 z"/>
            </g>
            <path d="M 0,0 H 2.5" style="stroke:#333333;stroke-width:0.7" transform="rotate(19.8,-8.5,48.702804)" id="polyline1700"/>
            <path d="M 0,0 H 2.5" style="stroke:#333333;stroke-width:0.7" transform="rotate(-27.9,-8.5,-34.218824)" id="polyline1702"/>
            <path d="M 0,0 H 2.5" style="stroke:#333333;stroke-width:0.7" transform="rotate(-133.9,-8.5,-3.6167933)" id="polyline1704"/>
            <path d="M 0,0 H 2.5" style="stroke:#333333;stroke-width:0.7" transform="rotate(167.4,-8.5,0.93840874)" id="polyline1706"/>
            <path d="M -3,0 H 3" style="stroke:#333333;stroke-width:1" id="polyline1708"/>
            <path d="M 0,-3 V 3" style="stroke:#333333;stroke-width:1" id="polyline1710"/>
          </g>
        </g>
      </g>
    </g>
  </g>
  <g style="font-weight:bold;font-size:12px;font-family:Roboto, sans-serif;letter-spacing:2px;text-anchor:middle;fill:#333333" id="text1724" transform="rotate(-90)" aria-label="VCA">
    <path id="path2107" style="font-weight:bold;font-size:12px;font-family:Roboto, sans-serif;letter-spacing:2px;text-anchor:middle;fill:#333333" d="m -244.94531,13.884766 1.93359,-6.416016 h 1.95703 L -244.02539,16 h -1.83398 l -2.95899,-8.53125 h 1.95117 z"/>
    <path id="path2109" style="font-weight:bold;font-size:12px;font-family:Roboto, sans-serif;letter-spacing:2px;text-anchor:middle;fill:#333333" d="m -231.61914,13.158203 q -0.0996,1.376953 -1.01953,2.167969 -0.91406,0.791015 -2.41406,0.791015 -1.64063,0 -2.58399,-1.101562 -0.9375,-1.107422 -0.9375,-3.035156 v -0.521485 q 0,-1.230468 0.4336,-2.1679684 0.43359,-0.9375 1.23632,-1.4355469 0.8086,-0.5039062 1.875,-0.5039062 1.47657,0 2.37891,0.7910156 0.90234,0.7910157 1.04297,2.2207029 h -1.75781 q -0.0645,-0.8261716 -0.46289,-1.1953122 -0.39258,-0.375 -1.20118,-0.375 -0.8789,0 -1.31836,0.6328125 -0.43359,0.6269527 -0.44531,1.9511717 v 0.644531 q 0,1.382813 0.41602,2.021485 0.42187,0.638672 1.32422,0.638672 0.81445,0 1.21289,-0.369141 0.40429,-0.375 0.46289,-1.154297 z"/>
    <path id="path2111" style="font-weight:bold;font-size:12px;font-family:Roboto, sans-serif;letter-spacing:2px;text-anchor:middle;fill:#333333" d="m -223.64844,14.242188 h -3.08203 L -227.31641,16 h -1.86914 l 3.17578,-8.53125 h 1.62891 L -221.1875,16 h -1.86914 z m -2.60742,-1.423829 h 2.13281 L -225.19531,9.625 Z"/>
  </g>
  <g transform="translate(27,201)" id="g1798">
    <g id="g1758">
      <g transform="translate(0.5,8)" id="g1756">
        <g style="font-weight:bold;font-size:9.33333px;font-family:Roboto, sans-serif;letter-spacing:2px;text-anchor:middle;fill:#333333" id="text1726" transform="translate(15)" aria-label="ENV">
          <path id="path2061" style="font-weight:bold;font-size:9.33333px;font-family:Roboto, sans-serif;letter-spacing:2px;text-anchor:middle;fill:#333333" d="m -6.3932277,-2.8756501 h -2.6249991 v 1.7773432 h 3.0807281 V 0 h -4.4479153 v -6.6354144 h 4.4388008 v 1.1074215 h -3.0716136 v 1.5813797 h 2.6249991 z"/>
          <path id="path2063" style="font-weight:bold;font-size:9.33333px;font-family:Roboto, sans-serif;letter-spacing:2px;text-anchor:middle;fill:#333333" d="M 2.2604158,0 H 0.89322874 L -1.7682287,-4.3658839 V 0 h -1.367187 v -6.6354144 h 1.367187 l 2.66601473,4.3749985 V -6.6354144 H 2.2604158 Z"/>
          <path id="path2065" style="font-weight:bold;font-size:9.33333px;font-family:Roboto, sans-serif;letter-spacing:2px;text-anchor:middle;fill:#333333" d="M 7.9153625,-1.6451817 9.4192682,-6.6354144 H 10.941403 L 8.630857,0 H 7.2044252 L 4.9029937,-6.6354144 h 1.5175776 z"/>
        </g>
        <g transform="translate(0,10)" id="g1728"/>
        <g transform="translate(0,10)" id="g1754">
          <g transform="translate(14.5,14.5)" id="g1752">
            <g style="font-weight:bold;font-size:12px;font-family:Roboto, sans-serif;fill:#333333" id="text1730" transform="translate(-11.2,19.188457)" aria-label="-">
              <path id="path2068" style="font-weight:bold;font-size:12px;font-family:Roboto, sans-serif;fill:#333333" d="M 3.9433594,-2.9707031 H 0.64453125 V -4.3359375 H 3.9433594 Z"/>
            </g>
            <path d="M 0,0 H 2.5" style="stroke:#333333;stroke-width:0.7" transform="rotate(150,-8,2.1435935)" id="polyline1732"/>
            <path d="M 0,0 H 2.5" style="stroke:#333333;stroke-width:0.7" transform="rotate(180,-8,0)" id="polyline1734"/>
            <path d="M 0,0 H 2.5" style="stroke:#333333;stroke-width:0.7" transform="rotate(-150,-8,-2.1435935)" id="polyline1736"/>
            <path d="M 0,0 H 2.5" style="stroke:#333333;stroke-width:0.7" transform="rotate(-120,-8,-4.6188022)" id="polyline1738"/>
            <g style="font-weight:bold;font-size:6.66667px;font-family:Roboto, sans-serif;fill:#333333" id="text1740" transform="translate(-2,-17)" aria-label="0">
              <path id="path2075" style="font-weight:bold;font-size:6.66667px;font-family:Roboto, sans-serif;fill:#333333" d="m 3.5123715,-1.9596364 q 0,0.98307343 -0.4069013,1.50390702 Q 2.698569,0.0651042 1.9140634,0.0651042 q -0.7747399,0 -1.18489639,-0.51106795 Q 0.31901057,-0.95703171 0.30924494,-1.9108082 v -0.8723963 q 0,-0.992839 0.41015644,-1.5071621 0.41341162,-0.5143232 1.18815162,-0.5143232 0.7747399,0 1.1848964,0.511068 0.4101564,0.5078127 0.4199221,1.4615892 z M 2.5716158,-2.9166681 q 0,-0.5891929 -0.1627605,-0.8561202 Q 2.24935,-4.0429707 1.907553,-4.0429707 q -0.3320314,0 -0.4915367,0.2571616 -0.1562501,0.2539064 -0.1660157,0.7975264 v 1.1523443 q 0,0.5794274 0.1562501,0.86263064 0.1595053,0.27994805 0.5078127,0.27994805 0.3450523,0 0.4980471,-0.27018242 0.1529949,-0.27018237 0.1595053,-0.82682327 z"/>
            </g>
            <path d="M 0,0 H 2.5" style="stroke:#333333;stroke-width:0.7" transform="rotate(-60,-8,-13.856406)" id="polyline1742"/>
            <path d="M 0,0 H 2.5" style="stroke:#333333;stroke-width:0.7" transform="rotate(-30,-8,-29.856406)" id="polyline1744"/>
            <path d="M 0,0 H 2.5" style="stroke:#333333;stroke-width:0.7" transform="translate(16)" id="polyline1746"/>
            <path d="M 0,0 H 2.5" style="stroke:#333333;stroke-width:0.7" transform="rotate(30,-8,29.856406)" id="polyline1748"/>
            <g style="font-weight:bold;font-size:6.66667px;font-family:Roboto, sans-serif;fill:#333333" id="text1750" transform="translate(7,17.588457)" aria-label="+">
              <path id="path2082" style="font-weight:bold;font-size:6.66667px;font-family:Roboto, sans-serif;fill:#333333" d="m 2.2591157,-2.6529961 h 1.1751307 v 0.8496098 H 2.2591157 v 1.32812566 H 1.3639329 V -1.8033863 H 0.18554696 V -2.6529961 H 1.3639329 v -1.272787 h 0.8951828 z"/>
            </g>
          </g>
        </g>
      </g>
    </g>
    <g transform="translate(47.5)" id="g1796">
      <g transform="translate(0.5,8)" id="g1794">
        <g style="font-weight:bold;font-size:9.33333px;font-family:Roboto, sans-serif;letter-spacing:2px;text-anchor:middle;fill:#333333" id="text1760" transform="translate(15)" aria-label="BIAS">
          <path id="path2085" style="font-weight:bold;font-size:9.33333px;font-family:Roboto, sans-serif;letter-spacing:2px;text-anchor:middle;fill:#333333" d="m -12.807288,0 v -6.6354144 h 2.324218 q 1.2076815,0 1.8320303,0.4648436 0.6243487,0.4602863 0.6243487,1.3535151 0,0.4876301 -0.250651,0.8613279 -0.2506509,0.3691405 -0.6972653,0.5423175 0.5104165,0.1276041 0.802083,0.5149738 0.2962239,0.3873696 0.2962239,0.9479163 0,0.95703096 -0.6106769,1.44921829 Q -9.0976542,-0.00911458 -10.227862,0 Z m 1.367187,-2.8893219 v 1.791015 h 1.171223 q 0.483073,0 0.7519531,-0.2278645 0.2734374,-0.2324218 0.2734374,-0.6380206 0,-0.9114581 -0.9433595,-0.9251299 z m 0,-0.9661455 h 1.011718 q 1.034505,-0.018229 1.034505,-0.8248695 0,-0.4511718 -0.2643229,-0.6471352 -0.2597655,-0.2005208 -0.8248691,-0.2005208 h -0.957031 z"/>
          <path id="path2087" style="font-weight:bold;font-size:9.33333px;font-family:Roboto, sans-serif;letter-spacing:2px;text-anchor:middle;fill:#333333" d="m -3.3925772,0 h -1.367187 v -6.6354144 h 1.367187 z"/>
          <path id="path2089" style="font-weight:bold;font-size:9.33333px;font-family:Roboto, sans-serif;letter-spacing:2px;text-anchor:middle;fill:#333333" d="M 3.7070308,-1.367187 H 1.3098962 L 0.85416716,0 H -0.59960839 L 1.8704429,-6.6354144 H 3.1373695 L 5.6210926,0 H 4.1673171 Z M 1.6790367,-2.4746085 H 3.3378903 L 2.5039062,-4.9583316 Z"/>
          <path id="path2091" style="font-weight:bold;font-size:9.33333px;font-family:Roboto, sans-serif;letter-spacing:2px;text-anchor:middle;fill:#333333" d="m 11.690753,-1.7408848 q 0,-0.3873697 -0.273437,-0.5924477 -0.273438,-0.2096354 -0.984375,-0.4374999 -0.7109374,-0.2324218 -1.1256508,-0.455729 -1.130208,-0.6106769 -1.130208,-1.6451817 0,-0.5377603 0.3007812,-0.957031 0.3053384,-0.4238279 0.8704424,-0.660807 0.5696613,-0.2369791 1.2760412,-0.2369791 0.710937,0 1.266927,0.2597655 0.555989,0.2552083 0.861328,0.7246092 0.309895,0.4694008 0.309895,1.0664058 H 11.69531 q 0,-0.455729 -0.287109,-0.7063799 -0.287109,-0.2552083 -0.80664,-0.2552083 -0.501302,0 -0.779297,0.2141927 -0.2779947,0.2096353 -0.2779947,0.5559894 0,0.3235676 0.3235676,0.5423175 0.3281251,0.2187499 0.9615881,0.4101561 1.166666,0.3509113 1.699869,0.8704424 0.533203,0.5195311 0.533203,1.2942704 0,0.86132783 -0.651692,1.35351516 -0.651693,0.48763004 -1.754557,0.48763004 -0.7656247,0 -1.3945307,-0.27799469 Q 8.6328113,-0.46940088 8.3001291,-0.95703092 7.9720042,-1.444661 7.9720042,-2.0872389 h 1.3717443 q 0,1.09830695 1.3124995,1.09830695 0.48763,0 0.761068,-0.19596345 0.273437,-0.2005208 0.273437,-0.5559894 z"/>
        </g>
        <g transform="translate(0,10)" id="g1762"/>
        <g transform="translate(0,10)" id="g1792">
          <g transform="translate(14.5,14.5)" id="g1790">
            <path d="M 0,0 H 4" style="stroke:#333333;stroke-width:1.5" transform="rotate(120,-8,4.6188022)" id="polyline1764"/>
            <path d="M 0,0 H 2.5" style="stroke:#333333;stroke-width:0.7" transform="rotate(150,-8,2.1435935)" id="polyline1766"/>
            <path d="M 0,0 H 2.5" style="stroke:#333333;stroke-width:0.7" transform="rotate(180,-8,0)" id="polyline1768"/>
            <path d="M 0,0 H 2.5" style="stroke:#333333;stroke-width:0.7" transform="rotate(-150,-8,-2.1435935)" id="polyline1770"/>
            <path d="M 0,0 H 2.5" style="stroke:#333333;stroke-width:0.7" transform="rotate(-120,-8,-4.6188022)" id="polyline1772"/>
            <path d="M 0,0 H 2.5" style="stroke:#333333;stroke-width:0.7" transform="rotate(-90,-8,-8)" id="polyline1774"/>
            <path d="M 0,0 H 2.5" style="stroke:#333333;stroke-width:0.7" transform="rotate(-60,-8,-13.856406)" id="polyline1776"/>
            <path d="M 0,0 H 2.5" style="stroke:#333333;stroke-width:0.7" transform="rotate(-30,-8,-29.856406)" id="polyline1778"/>
            <path d="M 0,0 H 2.5" style="stroke:#333333;stroke-width:0.7" transform="translate(16)" id="polyline1780"/>
            <path d="M 0,0 H 2.5" style="stroke:#333333;stroke-width:0.7" transform="rotate(30,-8,29.856406)" id="polyline1782"/>
            <path d="M 0,0 H 2.5" style="stroke:#333333;stroke-width:0.7" transform="rotate(60,-8,13.856406)" id="polyline1784"/>
            <path d="M -3,0 H 3" style="stroke:#333333;stroke-width:1" id="polyline1786"/>
            <path d="M 0,-3 V 3" style="stroke:#333333;stroke-width:1" id="polyline1788"/>
          </g>
        </g>
      </g>
    </g>
  </g>
  <g transform="translate(45,259)" id="g1804">
    <g style="font-weight:bold;font-size:6.66667px;font-family:Roboto, sans-serif;letter-spacing:1px;fill:#333333" id="text1800" transform="translate(12,6)" aria-label="LINEAR">
      <path id="path2048" style="font-weight:bold;font-size:6.66667px;font-family:Roboto, sans-serif;letter-spacing:1px;fill:#333333" d="M 1.3997403,-0.78450558 H 3.4733089 V 0 H 0.42317729 V -4.7395856 H 1.3997403 Z"/>
      <path id="path2050" style="font-weight:bold;font-size:6.66667px;font-family:Roboto, sans-serif;letter-spacing:1px;fill:#333333" d="m 6.0683617,0 h -0.976563 v -4.7395856 h 0.976563 z"/>
      <path id="path2052" style="font-weight:bold;font-size:6.66667px;font-family:Roboto, sans-serif;letter-spacing:1px;fill:#333333" d="M 11.824224,0 H 10.847661 L 8.9466181,-3.1184911 V 0 h -0.976563 v -4.7395856 h 0.976563 l 1.9042979,3.1250015 v -3.1250015 h 0.973308 z"/>
      <path id="path2054" style="font-weight:bold;font-size:6.66667px;font-family:Roboto, sans-serif;letter-spacing:1px;fill:#333333" d="m 16.535163,-2.0540374 h -1.875001 v 1.26953182 h 2.200522 V 0 h -3.177085 v -4.7395856 h 3.170574 v 0.791016 h -2.194011 v 1.1295578 h 1.875001 z"/>
      <path id="path2056" style="font-weight:bold;font-size:6.66667px;font-family:Roboto, sans-serif;letter-spacing:1px;fill:#333333" d="m 21.109383,-0.97656297 h -1.71224 L 19.071622,0 H 18.03321 l 1.764324,-4.7395856 h 0.904948 L 22.476572,0 H 21.43816 Z M 19.660815,-1.767579 h 1.184896 l -0.595703,-1.7740894 z"/>
      <path id="path2058" style="font-weight:bold;font-size:6.66667px;font-family:Roboto, sans-serif;letter-spacing:1px;fill:#333333" d="M 25.680348,-1.7350269 H 24.902353 V 0 H 23.92579 v -4.7395856 h 1.761069 q 0.839844,0 1.295573,0.3743491 0.45573,0.3743492 0.45573,1.0579433 0,0.4850262 -0.211589,0.8105472 -0.208333,0.3222658 -0.634766,0.5143232 l 1.025391,1.93684986 V 0 h -1.048177 z m -0.777995,-0.791016 h 0.787761 q 0.367839,0 0.569662,-0.1855469 0.201823,-0.1888022 0.201823,-0.5175784 0,-0.3352866 -0.192058,-0.527344 -0.188802,-0.1920574 -0.582682,-0.1920574 h -0.784506 z"/>
    </g>
    <g transform="translate(0,-1)" id="g1802"/>
  </g>
  <path class="input-background" d="m 20,284 h 80 c 2.77,0 5,2.23 5,5 v 65 c 0,2.77 -2.23,5 -5,5 H 20 c -2.77,0 -5,-2.23 -5,-5 v -65 c 0,-2.77 2.23,-5 5,-5 z" style="fill:#fafafa" id="rect1808"/>
  <path class="input-background-filler" d="m 125,311.5 h 10 v 10 h -10 z" style="fill:#fafafa" id="rect1810"/>
  <g transform="translate(18.5,287)" id="g1812"/>
  <g class="input-label" style="font-weight:bold;font-size:6.66667px;font-family:Roboto, sans-serif;letter-spacing:2px;text-anchor:middle;fill:#333333" id="text1814" aria-label="RESP">
    <path id="path2037" style="font-weight:bold;font-size:6.66667px;font-family:Roboto, sans-serif;letter-spacing:2px;text-anchor:middle;fill:#333333" d="M 21.474607,317.26497 H 20.696611 V 319 h -0.976563 v -4.73959 h 1.761069 q 0.839844,0 1.295573,0.37435 0.45573,0.37435 0.45573,1.05795 0,0.48502 -0.211589,0.81054 -0.208333,0.32227 -0.634766,0.51433 l 1.025391,1.93685 V 319 h -1.048177 z m -0.777996,-0.79101 h 0.787761 q 0.367839,0 0.569662,-0.18555 0.201823,-0.1888 0.201823,-0.51758 0,-0.33528 -0.192058,-0.52734 -0.188802,-0.19206 -0.582682,-0.19206 h -0.784506 z"/>
    <path id="path2039" style="font-weight:bold;font-size:6.66667px;font-family:Roboto, sans-serif;letter-spacing:2px;text-anchor:middle;fill:#333333" d="m 28.829427,316.94596 h -1.875001 v 1.26953 h 2.200522 V 319 h -3.177085 v -4.73959 h 3.170574 v 0.79102 h -2.194011 v 1.12956 h 1.875001 z"/>
    <path id="path2041" style="font-weight:bold;font-size:6.66667px;font-family:Roboto, sans-serif;letter-spacing:2px;text-anchor:middle;fill:#333333" d="m 34.185548,317.75651 q 0,-0.27669 -0.195312,-0.42318 -0.195313,-0.14974 -0.703126,-0.3125 -0.507813,-0.16601 -0.804037,-0.32552 -0.807292,-0.4362 -0.807292,-1.17513 0,-0.38411 0.214844,-0.68359 0.218099,-0.30274 0.621745,-0.47201 0.406902,-0.16927 0.911459,-0.16927 0.507813,0 0.904948,0.18555 0.397136,0.18229 0.615235,0.51758 0.221354,0.33528 0.221354,0.76171 h -0.976563 q 0,-0.32552 -0.205078,-0.50455 -0.205078,-0.18229 -0.576172,-0.18229 -0.358073,0 -0.556641,0.15299 -0.198568,0.14974 -0.198568,0.39714 0,0.23112 0.23112,0.38737 0.234375,0.15625 0.686849,0.29296 0.833334,0.25066 1.214194,0.62175 0.380859,0.37109 0.380859,0.92448 0,0.61523 -0.465495,0.9668 -0.465495,0.3483 -1.253255,0.3483 -0.546876,0 -0.996095,-0.19856 -0.449219,-0.20183 -0.686849,-0.55013 -0.234375,-0.34831 -0.234375,-0.8073 h 0.979818 q 0,0.78451 0.937501,0.78451 0.348307,0 0.54362,-0.13997 0.195312,-0.14323 0.195312,-0.39714 z"/>
    <path id="path2043" style="font-weight:bold;font-size:6.66667px;font-family:Roboto, sans-serif;letter-spacing:2px;text-anchor:middle;fill:#333333" d="M 38.805992,317.33008 V 319 h -0.976563 v -4.73959 h 1.848959 q 0.533855,0 0.937501,0.19532 0.406901,0.19531 0.625,0.55664 0.218099,0.35807 0.218099,0.81706 0,0.69661 -0.478516,1.10026 -0.47526,0.40039 -1.31836,0.40039 z m 0,-0.79102 h 0.872396 q 0.38737,0 0.589193,-0.18229 0.205079,-0.18229 0.205079,-0.52083 0,-0.34831 -0.205079,-0.56316 -0.205078,-0.21484 -0.566406,-0.22135 h -0.895183 z"/>
  </g>
  <g transform="translate(48.5,287)" id="g1816"/>
  <g class="input-label" style="font-weight:bold;font-size:6.66667px;font-family:Roboto, sans-serif;letter-spacing:2px;text-anchor:middle;fill:#333333" id="text1818" aria-label="LPF">
    <path id="path2030" style="font-weight:bold;font-size:6.66667px;font-family:Roboto, sans-serif;letter-spacing:2px;text-anchor:middle;fill:#333333" d="m 54.118487,318.21549 h 2.073569 V 319 h -3.050131 v -4.73959 h 0.976562 z"/>
    <path id="path2032" style="font-weight:bold;font-size:6.66667px;font-family:Roboto, sans-serif;letter-spacing:2px;text-anchor:middle;fill:#333333" d="M 59.72526,317.33008 V 319 h -0.976563 v -4.73959 h 1.848959 q 0.533855,0 0.937501,0.19532 0.406901,0.19531 0.625,0.55664 0.218099,0.35807 0.218099,0.81706 0,0.69661 -0.478516,1.10026 -0.475261,0.40039 -1.31836,0.40039 z m 0,-0.79102 h 0.872396 q 0.38737,0 0.589193,-0.18229 0.205078,-0.18229 0.205078,-0.52083 0,-0.34831 -0.205078,-0.56316 -0.205078,-0.21484 -0.566406,-0.22135 H 59.72526 Z"/>
    <path id="path2034" style="font-weight:bold;font-size:6.66667px;font-family:Roboto, sans-serif;letter-spacing:2px;text-anchor:middle;fill:#333333" d="M 67.897138,317.06315 H 66.022137 V 319 h -0.976563 v -4.73959 h 3.085939 v 0.79102 h -2.109376 v 1.22396 h 1.875001 z"/>
  </g>
  <g transform="translate(78.5,287)" id="g1820"/>
  <g class="input-label" style="font-weight:bold;font-size:6.66667px;font-family:Roboto, sans-serif;letter-spacing:2px;text-anchor:middle;fill:#333333" id="text1822" aria-label="VCA">
    <path id="path2023" style="font-weight:bold;font-size:6.66667px;font-family:Roboto, sans-serif;letter-spacing:2px;text-anchor:middle;fill:#333333" d="m 84.085935,317.82487 1.07422,-3.56446 h 1.08724 L 84.597003,319 h -1.01888 l -1.643881,-4.73959 h 1.083985 z"/>
    <path id="path2025" style="font-weight:bold;font-size:6.66667px;font-family:Roboto, sans-serif;letter-spacing:2px;text-anchor:middle;fill:#333333" d="m 92.378256,317.42122 q -0.05534,0.76498 -0.566406,1.20443 -0.507813,0.43945 -1.341147,0.43945 -0.911458,0 -1.435547,-0.61198 -0.520834,-0.61523 -0.520834,-1.68619 v -0.28972 q 0,-0.68359 0.240886,-1.20443 0.240885,-0.52083 0.686849,-0.79752 0.449219,-0.27995 1.041667,-0.27995 0.820313,0 1.321615,0.43945 0.501303,0.43946 0.579428,1.23373 h -0.976563 q -0.03581,-0.45899 -0.257162,-0.66406 -0.218099,-0.20834 -0.667318,-0.20834 -0.488281,0 -0.732422,0.35156 -0.240886,0.34831 -0.247396,1.08399 v 0.35807 q 0,0.76823 0.23112,1.12305 0.234375,0.35482 0.735677,0.35482 0.452474,0 0.673829,-0.20508 0.224609,-0.20833 0.257161,-0.64128 z"/>
    <path id="path2027" style="font-weight:bold;font-size:6.66667px;font-family:Roboto, sans-serif;letter-spacing:2px;text-anchor:middle;fill:#333333" d="m 97.695315,318.02344 h -1.71224 L 95.657554,319 h -1.038412 l 1.764324,-4.73959 h 0.904948 L 99.062503,319 h -1.038412 z m -1.448568,-0.79102 h 1.184896 l -0.595703,-1.77409 z"/>
  </g>
  <path class="output-background" d="m 80,321.5 h 20 c 2.77,0 5,2.23 5,5 V 354 c 0,2.77 -2.23,5 -5,5 H 80 c -2.77,0 -5,-2.23 -5,-5 v -27.5 c 0,-2.77 2.23,-5 5,-5 z" style="fill:#bbbbbb" id="rect1824"/>
  <path class="output-background-filler" d="m 75,321.5 h 30 v 10 H 75 Z" style="fill:#bbbbbb" id="rect1826"/>
  <path class="output-background-filler" d="m 75,349 h 10 v 10 H 75 Z" style="fill:#bbbbbb" id="rect1828"/>
  <g transform="translate(18.5,324)" id="g1830"/>
  <g class="output-label" style="font-weight:bold;font-size:6.66667px;font-family:Roboto, sans-serif;letter-spacing:2px;text-anchor:middle;fill:#333333" id="text1832" aria-label="TRIG">
    <path id="path2011" style="font-weight:bold;font-size:6.66667px;font-family:Roboto, sans-serif;letter-spacing:2px;text-anchor:middle;fill:#333333" d="M 24.055988,352.05143 H 22.604164 V 356 h -0.976563 v -3.94857 h -1.432292 v -0.79102 h 3.860679 z"/>
    <path id="path2013" style="font-weight:bold;font-size:6.66667px;font-family:Roboto, sans-serif;letter-spacing:2px;text-anchor:middle;fill:#333333" d="M 28.370442,354.26497 H 27.592447 V 356 h -0.976563 v -4.73959 h 1.761068 q 0.839845,0 1.295574,0.37435 0.455729,0.37435 0.455729,1.05795 0,0.48502 -0.211588,0.81054 -0.208334,0.32227 -0.634766,0.51433 l 1.025391,1.93685 V 356 h -1.048178 z m -0.777995,-0.79101 h 0.787761 q 0.367838,0 0.569661,-0.18555 0.201823,-0.1888 0.201823,-0.51758 0,-0.33528 -0.192057,-0.52734 -0.188802,-0.19206 -0.582683,-0.19206 h -0.784505 z"/>
    <path id="path2015" style="font-weight:bold;font-size:6.66667px;font-family:Roboto, sans-serif;letter-spacing:2px;text-anchor:middle;fill:#333333" d="m 33.91211,356 h -0.976563 v -4.73959 h 0.976563 z"/>
    <path id="path2017" style="font-weight:bold;font-size:6.66667px;font-family:Roboto, sans-serif;letter-spacing:2px;text-anchor:middle;fill:#333333" d="m 40.563805,355.40104 q -0.263672,0.31576 -0.745443,0.49154 -0.481771,0.17252 -1.067709,0.17252 -0.615235,0 -1.08073,-0.26692 -0.462239,-0.27019 -0.716146,-0.78125 -0.250651,-0.51107 -0.257161,-1.20118 v -0.32226 q 0,-0.70964 0.23763,-1.22722 0.240885,-0.52083 0.690104,-0.79427 0.452475,-0.27669 1.057944,-0.27669 0.843099,0 1.31836,0.40365 0.47526,0.40039 0.563151,1.16862 h -0.950521 q -0.06511,-0.4069 -0.289714,-0.59571 -0.221354,-0.1888 -0.611979,-0.1888 -0.498048,0 -0.758464,0.37435 -0.260417,0.37435 -0.263672,1.11328 v 0.30274 q 0,0.74544 0.283203,1.1263 0.283203,0.38086 0.830078,0.38086 0.550131,0 0.784506,-0.23438 v -0.81705 H 38.69857 v -0.71941 h 1.865235 z"/>
  </g>
  <g transform="translate(48.5,324)" id="g1834"/>
  <g class="output-label" style="font-weight:bold;font-size:6.66667px;font-family:Roboto, sans-serif;letter-spacing:2px;text-anchor:middle;fill:#333333" id="text1836" aria-label="IN">
    <path id="path2006" style="font-weight:bold;font-size:6.66667px;font-family:Roboto, sans-serif;letter-spacing:2px;text-anchor:middle;fill:#333333" d="m 57.634765,356 h -0.976563 v -4.73959 h 0.976563 z"/>
    <path id="path2008" style="font-weight:bold;font-size:6.66667px;font-family:Roboto, sans-serif;letter-spacing:2px;text-anchor:middle;fill:#333333" d="m 64.390626,356 h -0.976563 l -1.901042,-3.11849 V 356 h -0.976563 v -4.73959 h 0.976563 l 1.904297,3.12501 v -3.12501 h 0.973308 z"/>
  </g>
  <g transform="translate(78.5,324)" id="g1838"/>
  <g class="output-label" style="font-weight:bold;font-size:6.66667px;font-family:Roboto, sans-serif;letter-spacing:2px;text-anchor:middle;fill:#333333" id="text1840" aria-label="OUT">
    <path id="path1999" style="font-weight:bold;font-size:6.66667px;font-family:Roboto, sans-serif;letter-spacing:2px;text-anchor:middle;fill:#333333" d="m 86.253905,353.73763 q 0,0.69987 -0.247396,1.22721 -0.247396,0.52735 -0.709636,0.81381 -0.458984,0.28645 -1.054688,0.28645 -0.589193,0 -1.051432,-0.2832 -0.46224,-0.2832 -0.716146,-0.80729 -0.253907,-0.52735 -0.257162,-1.21094 v -0.23437 q 0,-0.69987 0.250651,-1.23047 0.253906,-0.53386 0.712891,-0.81706 0.46224,-0.28646 1.054688,-0.28646 0.592448,0 1.051433,0.28646 0.46224,0.2832 0.712891,0.81706 0.253906,0.5306 0.253906,1.22721 z m -0.989584,-0.21484 q 0,-0.74545 -0.266927,-1.13282 -0.266927,-0.38737 -0.761719,-0.38737 -0.491537,0 -0.758464,0.38412 -0.266927,0.38086 -0.270182,1.11979 v 0.23112 q 0,0.72591 0.266927,1.1263 0.266927,0.40039 0.768229,0.40039 0.491537,0 0.755209,-0.38411 0.263672,-0.38737 0.266927,-1.1263 z"/>
    <path id="path2001" style="font-weight:bold;font-size:6.66667px;font-family:Roboto, sans-serif;letter-spacing:2px;text-anchor:middle;fill:#333333" d="m 92.557293,351.26041 v 3.12175 q 0,0.778 -0.488282,1.23047 -0.485026,0.45247 -1.328125,0.45247 -0.830079,0 -1.31836,-0.43945 -0.488282,-0.43945 -0.498047,-1.20768 v -3.15756 h 0.976563 v 3.12826 q 0,0.4655 0.221354,0.68034 0.224609,0.21159 0.61849,0.21159 0.823568,0 0.836589,-0.86589 v -3.1543 z"/>
    <path id="path2003" style="font-weight:bold;font-size:6.66667px;font-family:Roboto, sans-serif;letter-spacing:2px;text-anchor:middle;fill:#333333" d="M 98.925784,352.05143 H 97.473961 V 356 h -0.976563 v -3.94857 h -1.432292 v -0.79102 h 3.860678 z"/>
  </g>
</svg>
