<?xml version="1.0" encoding="UTF-8" standalone="no"?>
<svg xmlns:dc="http://purl.org/dc/elements/1.1/" xmlns:cc="http://creativecommons.org/ns#" xmlns:rdf="http://www.w3.org/1999/02/22-rdf-syntax-ns#" xmlns:svg="http://www.w3.org/2000/svg" xmlns="http://www.w3.org/2000/svg" xmlns:sodipodi="http://sodipodi.sourceforge.net/DTD/sodipodi-0.dtd" xmlns:inkscape="http://www.inkscape.org/namespaces/inkscape" inkscape:version="1.0 (4035a4f, 2020-05-01)" sodipodi:docname="svg_render_LVCF-dark-pp.svg" id="svg18839" viewBox="0 0 45.0 380.0" height="380.0" width="45.0" version="1.1">
  <metadata id="metadata18843">
    <rdf:RDF>
      <cc:Work rdf:about="">
        <dc:format>image/svg+xml</dc:format>
        <dc:type rdf:resource="http://purl.org/dc/dcmitype/StillImage"/>
      </cc:Work>
    </rdf:RDF>
  </metadata>
  <sodipodi:namedview inkscape:current-layer="svg18839" inkscape:window-maximized="0" inkscape:window-y="23" inkscape:window-x="0" inkscape:cy="190" inkscape:cx="22.5" inkscape:zoom="1.7605263" showgrid="false" id="namedview18841" inkscape:window-height="480" inkscape:window-width="689" inkscape:pageshadow="2" inkscape:pageopacity="0" guidetolerance="10" gridtolerance="10" objecttolerance="10" borderopacity="1" bordercolor="#666666" pagecolor="#ffffff"/>
  
  <defs id="defs18725">
    <symbol viewBox="0 0 45px 45px" id="dial-cutoff-lvcf">
      <g id="g18697" transform="translate(22.5 22.5)">
        <text id="text18679" transform="rotate(-240) translate(18 0) rotate(240) translate(-2 2)" font-size="5.0pt">0</text>
        <polyline id="polyline18681" transform="rotate(-218.8) translate(15 0)" stroke-width="0.7" points="0,0 1.5,0"/>
        <polyline id="polyline18683" transform="rotate(-192.6) translate(15 0)" stroke-width="0.7" points="0,0 2.5,0"/>
        <text id="text18685" transform="rotate(-172.2) translate(18 0) rotate(172.2) translate(-1 2)" font-size="5.0pt">1</text>
        <polyline id="polyline18687" transform="rotate(-90) translate(15 0)" stroke-width="0.7" points="0,0 2.5,0"/>
        <text id="text18689" transform="rotate(-27.9) translate(18 0) rotate(27.9) translate(-4 2)" font-size="5.0pt">10</text>
        <polyline id="polyline18691" transform="rotate(19.8) translate(15 0)" stroke-width="0.7" points="0,0 2.5,0"/>
        <text id="text18693" transform="rotate(60) translate(18 0) rotate(-60) translate(-2 2)" font-size="5.0pt">20</text>
        <text id="text18695" transform="rotate(90) translate(18 0) rotate(-90) translate(-5 2)" font-size="4.0pt">KHZ</text>
      </g>
    </symbol>
    <symbol viewBox="0 0 45px 45px" id="dial-q-lvcf">
      <g id="g18722" transform="translate(22.5 22.5)">
        <text id="text18700" transform="rotate(-240) translate(18 0) rotate(240) translate(-2 2)" font-size="5.0pt">0</text>
        <polyline id="polyline18702" transform="rotate(-210) translate(15 0)" stroke-width="0.7" points="0,0 2.5,0"/>
        <polyline id="polyline18704" transform="rotate(-180) translate(15 0)" stroke-width="0.7" points="0,0 2.5,0"/>
        <polyline id="polyline18706" transform="rotate(-150) translate(15 0)" stroke-width="0.7" points="0,0 2.5,0"/>
        <polyline id="polyline18708" transform="rotate(-120) translate(15 0)" stroke-width="0.7" points="0,0 2.5,0"/>
        <polyline id="polyline18710" transform="rotate(-90) translate(15 0)" stroke-width="0.7" points="0,0 2.5,0"/>
        <polyline id="polyline18712" transform="rotate(-60) translate(15 0)" stroke-width="0.7" points="0,0 2.5,0"/>
        <polyline id="polyline18714" transform="rotate(-30) translate(15 0)" stroke-width="0.7" points="0,0 2.5,0"/>
        <polyline id="polyline18716" transform="rotate(0) translate(15 0)" stroke-width="0.7" points="0,0 2.5,0"/>
        <polyline id="polyline18718" transform="rotate(30) translate(15 0)" stroke-width="0.7" points="0,0 2.5,0"/>
        <polyline id="polyline18720" transform="rotate(60) translate(15 0)" stroke-width="1" points="0,0 3.5,0"/>
      </g>
    </symbol>
  </defs>
  <path class="module-background background-fill" d="M 0,0 H 45 V 380 H 0 Z" style="fill:#111111" id="rect18727"/>
  <path class="module-border-inner" d="M 1,1 H 44 V 379 H 1 V 1" style="fill:none;stroke:#191919;stroke-width:0.5" id="polyline18729"/>
  <path class="module-border-middle" d="m 0.5,0.5 h 44 v 379 H 0.5 V 0.5" style="fill:none;stroke:#111111;stroke-width:0.8" id="polyline18731"/>
  <path class="module-border-outer" d="M 0,0 H 45 V 380 H 0 V 0" style="fill:none;stroke:#000000;stroke-width:1" id="polyline18733"/>
  <g class="title" style="font-weight:normal;font-size:9.33333px;font-family:Comfortaa, sans-serif;letter-spacing:2.5px;fill:#eeeeee" id="text18735" transform="rotate(-90)" aria-label="LVCF">
    <path id="path19060" style="font-weight:normal;font-size:9.33333px;font-family:Comfortaa, sans-serif;letter-spacing:2.5px;fill:#eeeeee" d="m -374.70267,13 q -0.14933,0 -0.26133,-0.102667 -0.10267,-0.112 -0.10267,-0.261333 V 6.074669 q 0,-0.1493333 0.10267,-0.2519999 0.112,-0.112 0.26133,-0.112 0.15867,0 0.26134,0.1026667 0.10266,0.1026666 0.10266,0.2613332 v 6.234665 h 3.64933 q 0.15867,0 0.26134,0.102666 0.10266,0.09333 0.10266,0.242667 0,0.149333 -0.10266,0.252 Q -370.53067,13 -370.68934,13 Z"/>
    <path id="path19062" style="font-weight:normal;font-size:9.33333px;font-family:Comfortaa, sans-serif;letter-spacing:2.5px;fill:#eeeeee" d="m -362.34477,5.7106691 q 0.14933,0 0.23333,0.093333 0.0933,0.093333 0.0933,0.2333332 0,0.093333 -0.0467,0.2053333 l -2.78134,6.523998 Q -364.94877,13 -365.17277,13 q -0.12134,0 -0.20534,-0.04667 -0.0747,-0.056 -0.13066,-0.186666 l -2.772,-6.4866647 q -0.056,-0.14 -0.056,-0.2426666 0,-0.1493333 0.0933,-0.2333332 0.10267,-0.093333 0.26133,-0.093333 0.24267,0 0.336,0.2333333 l 2.47334,5.9173316 2.464,-5.8986649 q 0.056,-0.14 0.14,-0.196 0.084,-0.056 0.224,-0.056 z"/>
    <path id="path19064" style="font-weight:normal;font-size:9.33333px;font-family:Comfortaa, sans-serif;letter-spacing:2.5px;fill:#eeeeee" d="m -355.59796,13.093333 q -0.98934,0 -1.82,-0.504 -0.83067,-0.503999 -1.32534,-1.362666 -0.48533,-0.858666 -0.48533,-1.8759991 0,-1.0079996 0.48533,-1.866666 0.48534,-0.8586664 1.316,-1.3626662 0.83067,-0.5039999 1.82934,-0.5039999 0.67199,0 1.22266,0.196 0.55067,0.1959999 1.064,0.6253331 0.10267,0.074667 0.10267,0.2146666 0,0.074667 -0.0373,0.1399999 -0.0373,0.056 -0.10266,0.084 -0.0187,0.065333 -0.084,0.1026667 -0.0653,0.037333 -0.14,0.037333 -0.14,0 -0.23334,-0.084 -0.364,-0.3266666 -0.79333,-0.4759998 -0.42933,-0.1493333 -0.99866,-0.1493333 -0.784,0 -1.456,0.4199998 -0.672,0.4106666 -1.07334,1.1106663 -0.392,0.6999998 -0.392,1.5119995 0,0.8306661 0.392,1.5306661 0.392,0.7 1.064,1.110666 0.672,0.410667 1.46534,0.410667 1.01733,0 1.83866,-0.653333 0.10267,-0.07467 0.20533,-0.07467 0.14,0 0.24267,0.102667 0.10267,0.09333 0.10267,0.252 0,0.149333 -0.10267,0.261333 -0.87733,0.802666 -2.28666,0.802666 z"/>
    <path id="path19066" style="font-weight:normal;font-size:9.33333px;font-family:Comfortaa, sans-serif;letter-spacing:2.5px;fill:#eeeeee" d="m -349.38811,13 q -0.14933,0 -0.26133,-0.102667 -0.10267,-0.112 -0.10267,-0.261333 V 6.074669 q 0,-0.1586666 0.10267,-0.2613332 0.112,-0.1026667 0.26133,-0.1026667 h 4.37733 q 0.15867,0 0.26133,0.1026667 0.10267,0.1026666 0.10267,0.2519999 0,0.1493333 -0.10267,0.2519999 -0.10266,0.093333 -0.26133,0.093333 h -4.01333 V 8.986668 h 2.92133 q 0.15867,0 0.26133,0.1026667 0.10267,0.093333 0.10267,0.2519999 0,0.1493333 -0.10267,0.2519999 -0.10266,0.1026666 -0.26133,0.1026666 h -2.92133 V 12.636 q 0,0.149333 -0.10267,0.261333 Q -349.22944,13 -349.38811,13 Z"/>
  </g>
  <g transform="rotate(-90,200.5,175.5)" id="g18741">
    <g class="brand" style="font-weight:bold;font-size:9.33333px;font-family:Audiowide, sans-serif;letter-spacing:2px;fill:#eeeeee" id="text18737" aria-label="BGA">
      <path id="path19052" style="font-weight:bold;font-size:9.33333px;font-family:Audiowide, sans-serif;letter-spacing:2px;fill:#eeeeee" d="m 7.209633,-1.4355464 q 0,0.2187499 -0.077474,0.4694009 -0.072917,0.25065095 -0.2460936,0.46484359 Q 6.7174456,-0.28710928 6.4440082,-0.14127599 6.1705708,0 5.7740866,0 H 1.2760412 Q 1.1484371,0 1.0390621,-0.0455729 0.92968718,-0.0911458 0.84765596,-0.16861973 0.77018203,-0.25065096 0.72460913,-0.36002592 0.67903623,-0.46940088 0.67903623,-0.597005 v -5.341144 q 0,-0.1230469 0.0455729,-0.2324218 0.0455729,-0.109375 0.12304683,-0.1914062 0.0820312,-0.082031 0.19140614,-0.1276041 0.109375,-0.045573 0.2369791,-0.045573 h 3.9648424 q 0.21875,0 0.4694009,0.077474 0.250651,0.077474 0.4648436,0.250651 0.2187499,0.1686197 0.3600259,0.4420571 0.1458333,0.2734374 0.1458333,0.6699217 v 0.2233072 q 0,0.314453 -0.1048177,0.6790362 -0.1048176,0.3600259 -0.3372394,0.6835935 0.2005207,0.1230468 0.3736978,0.2962239 0.1777343,0.173177 0.3098957,0.4010415 0.1321614,0.2278645 0.2096353,0.5149738 0.077474,0.2871093 0.077474,0.6334633 z M 6.0247375,-1.6634109 q 0,-0.2324218 -0.072917,-0.4147134 Q 5.8789042,-2.2649732 5.7467428,-2.3971346 5.6145814,-2.529296 5.4277325,-2.5976554 5.2408836,-2.670572 5.0084618,-2.670572 h -2.670572 v -1.19401 h 2.1373691 q 0.2324218,0 0.4192707,-0.068359 0.1868489,-0.072917 0.3190103,-0.205078 0.1321614,-0.1321614 0.2005208,-0.314453 0.072917,-0.1868489 0.072917,-0.4192707 v -0.2233072 q 0,-0.2552083 -0.2460937,-0.2552083 H 1.8639317 v 4.1653632 h 3.9101549 q 0.031901,0 0.077474,-0.00456 0.045573,-0.00456 0.082031,-0.027344 0.036458,-0.022786 0.063802,-0.077474 0.027344,-0.054687 0.027344,-0.1503906 z"/>
      <path id="path19054" style="font-weight:bold;font-size:9.33333px;font-family:Audiowide, sans-serif;letter-spacing:2px;fill:#eeeeee" d="m 16.683589,-0.597005 q 0,0.12760412 -0.04557,0.23697908 -0.04557,0.10937496 -0.127605,0.19140619 -0.07747,0.07747393 -0.186849,0.12304683 Q 16.214189,0 16.086584,0 h -4.274738 q -0.164062,0 -0.355468,-0.03645832 -0.186849,-0.04101561 -0.373698,-0.12304683 -0.182292,-0.0820312 -0.350911,-0.20963535 -0.16862,-0.13216141 -0.300782,-0.31445302 -0.127604,-0.18684889 -0.205078,-0.42838528 -0.07747,-0.2460937 -0.07747,-0.5514321 v -3.2083322 q 0,-0.1640625 0.03646,-0.3509114 0.04101,-0.1914062 0.123047,-0.3736978 0.08203,-0.1868489 0.214192,-0.3554686 0.132162,-0.1686197 0.314453,-0.2962238 0.186849,-0.1321615 0.428385,-0.2096354 0.241537,-0.077474 0.546875,-0.077474 h 4.817056 v 1.1848954 h -4.817056 q -0.232422,0 -0.355468,0.1230468 -0.123047,0.1230469 -0.123047,0.3645832 v 3.1992177 q 0,0.2278645 0.123047,0.3554686 0.127604,0.1230469 0.355468,0.1230469 h 3.686848 V -2.670572 h -3.153645 v -1.19401 h 3.741535 q 0.127605,0 0.236979,0.05013 0.109375,0.045573 0.186849,0.1276041 0.08203,0.082031 0.127605,0.1914062 0.04557,0.1048177 0.04557,0.2278645 z"/>
      <path id="path19056" style="font-weight:bold;font-size:9.33333px;font-family:Audiowide, sans-serif;letter-spacing:2px;fill:#eeeeee" d="M 26.339836,0 H 25.154941 V -1.6041661 H 20.989578 V 0 h -1.184896 v -3.267577 q 0,-0.7154946 0.246094,-1.3170569 0.246094,-0.6015623 0.683593,-1.0345048 0.4375,-0.4329426 1.034505,-0.6744789 0.597005,-0.2415364 1.303385,-0.2415364 h 2.670572 q 0.123047,0 0.232422,0.045573 0.109375,0.045573 0.191406,0.1276041 0.08203,0.082031 0.127604,0.1914062 0.04557,0.1093749 0.04557,0.2324218 z m -5.350258,-2.7890616 h 4.165363 v -2.561197 h -2.082682 q -0.05469,0 -0.232422,0.018229 -0.173177,0.013672 -0.405598,0.077474 -0.227865,0.063802 -0.483073,0.1959635 -0.255208,0.1321614 -0.469401,0.3645832 -0.214193,0.2324218 -0.355469,0.5833331 -0.136718,0.3463541 -0.136718,0.8430987 z"/>
    </g>
    <path class="background-fill" d="M 0,0 H 3 V 3 H 0 Z" style="fill:#111111" transform="translate(11.5,-5)" id="rect18739"/>
  </g>
  <g style="font-weight:bold;font-size:8px;font-family:Roboto, sans-serif;letter-spacing:1px;fill:#eeeeee" id="text18745" aria-label="CUTOFF">
    <path id="path19039" style="font-weight:bold;font-size:8px;font-family:Roboto, sans-serif;letter-spacing:1px;fill:#eeeeee" d="m 9.9726563,29.105469 q -0.066406,0.917968 -0.6796875,1.445312 -0.609375,0.527344 -1.6093751,0.527344 -1.09375,0 -1.7226562,-0.734375 -0.625,-0.738281 -0.625,-2.023438 v -0.347656 q 0,-0.820312 0.2890625,-1.445312 0.2890625,-0.625 0.8242187,-0.957032 0.5390625,-0.335937 1.25,-0.335937 0.9843751,0 1.5859376,0.527344 0.6015625,0.527343 0.6953125,1.480468 H 8.8085938 Q 8.765625,26.691406 8.5,26.445312 q -0.2617187,-0.25 -0.8007813,-0.25 -0.5859375,0 -0.8789062,0.421875 -0.2890625,0.417969 -0.296875,1.300782 v 0.429687 q 0,0.921875 0.2773437,1.347656 0.28125,0.425782 0.8828125,0.425782 0.5429688,0 0.8085938,-0.246094 0.2695313,-0.25 0.3085938,-0.769531 z"/>
    <path id="path19041" style="font-weight:bold;font-size:8px;font-family:Roboto, sans-serif;letter-spacing:1px;fill:#eeeeee" d="m 16.046875,25.3125 v 3.746094 q 0,0.933593 -0.585937,1.476562 -0.582032,0.542969 -1.59375,0.542969 -0.996094,0 -1.582032,-0.527344 Q 11.699219,30.023437 11.6875,29.101562 V 25.3125 h 1.171875 v 3.753906 q 0,0.558594 0.265625,0.816406 0.269531,0.253907 0.742188,0.253907 0.988281,0 1.003906,-1.039063 V 25.3125 Z"/>
    <path id="path19043" style="font-weight:bold;font-size:8px;font-family:Roboto, sans-serif;letter-spacing:1px;fill:#eeeeee" d="M 22.289062,26.261719 H 20.546875 V 31 H 19.375 V 26.261719 H 17.65625 V 25.3125 h 4.632812 z"/>
    <path id="path19045" style="font-weight:bold;font-size:8px;font-family:Roboto, sans-serif;letter-spacing:1px;fill:#eeeeee" d="m 28.523437,28.285156 q 0,0.839844 -0.296875,1.472656 -0.296875,0.632813 -0.851562,0.976563 -0.550781,0.34375 -1.265625,0.34375 -0.707031,0 -1.261719,-0.339844 -0.554687,-0.339844 -0.859375,-0.96875 -0.304687,-0.632812 -0.308594,-1.453125 v -0.28125 q 0,-0.839844 0.300782,-1.476562 0.304687,-0.640625 0.855468,-0.980469 0.554688,-0.34375 1.265625,-0.34375 0.710938,0 1.261719,0.34375 0.554688,0.339844 0.855469,0.980469 0.304687,0.636718 0.304687,1.472656 z m -1.1875,-0.257812 q 0,-0.894532 -0.320312,-1.359375 -0.320313,-0.464844 -0.914063,-0.464844 -0.589843,0 -0.910156,0.460937 -0.320312,0.457032 -0.324219,1.34375 v 0.277344 q 0,0.871094 0.320313,1.351563 0.320312,0.480468 0.921875,0.480468 0.589844,0 0.90625,-0.460937 0.316406,-0.464844 0.320312,-1.351563 z"/>
    <path id="path19047" style="font-weight:bold;font-size:8px;font-family:Roboto, sans-serif;letter-spacing:1px;fill:#eeeeee" d="m 33.804687,28.675781 h -2.25 V 31 h -1.171875 v -5.6875 h 3.703125 v 0.949219 h -2.53125 v 1.46875 h 2.25 z"/>
    <path id="path19049" style="font-weight:bold;font-size:8px;font-family:Roboto, sans-serif;letter-spacing:1px;fill:#eeeeee" d="m 39.195312,28.675781 h -2.25 V 31 h -1.171875 v -5.6875 h 3.703125 v 0.949219 h -2.53125 v 1.46875 h 2.25 z"/>
  </g>
  <g transform="translate(9.5,39)" id="g18747"/>
  <g transform="translate(0,29.5)" id="use18749">
    <g transform="translate(22.5,22.5)" id="g18909">
      <g style="font-weight:bold;font-size:6.66667px;font-family:Roboto, sans-serif;fill:#eeeeee" id="text18891" transform="translate(-11,17.588457)" aria-label="0">
        <path id="path19012" style="font-weight:bold;font-size:6.66667px;font-family:Roboto, sans-serif;fill:#eeeeee" d="m 3.5123715,-1.9596364 q 0,0.98307343 -0.4069013,1.50390702 Q 2.698569,0.0651042 1.9140634,0.0651042 q -0.7747399,0 -1.18489639,-0.51106795 Q 0.31901057,-0.95703171 0.30924494,-1.9108082 v -0.8723963 q 0,-0.992839 0.41015644,-1.5071621 0.41341162,-0.5143232 1.18815162,-0.5143232 0.7747399,0 1.1848964,0.511068 0.4101564,0.5078127 0.4199221,1.4615892 z M 2.5716158,-2.9166681 q 0,-0.5891929 -0.1627605,-0.8561202 Q 2.24935,-4.0429707 1.907553,-4.0429707 q -0.3320314,0 -0.4915367,0.2571616 -0.1562501,0.2539064 -0.1660157,0.7975264 v 1.1523443 q 0,0.5794274 0.1562501,0.86263064 0.1595053,0.27994805 0.5078127,0.27994805 0.3450523,0 0.4980471,-0.27018242 0.1529949,-0.27018237 0.1595053,-0.82682327 z"/>
      </g>
      <path d="M 0,0 H 1.5" style="stroke:#cccccc;stroke-width:0.7" transform="rotate(141.2,-7.5,2.6411669)" id="polyline18893"/>
      <path d="M 0,0 H 2.5" style="stroke:#cccccc;stroke-width:0.7" transform="rotate(167.4,-7.5,0.82800771)" id="polyline18895"/>
      <g style="font-weight:bold;font-size:6.66667px;font-family:Roboto, sans-serif;fill:#eeeeee" id="text18897" transform="translate(-18.833461,-0.4428803)" aria-label="1">
        <path id="path19017" style="font-weight:bold;font-size:6.66667px;font-family:Roboto, sans-serif;fill:#eeeeee" d="M 2.6074231,0 H 1.6666675 V -3.6263038 L 0.54362005,-3.2779964 V -4.0429707 L 2.5065116,-4.746096 h 0.1009115 z"/>
      </g>
      <path d="M 0,0 H 2.5" style="stroke:#cccccc;stroke-width:0.7" transform="rotate(-90,-7.5,-7.5)" id="polyline18899"/>
      <g style="font-weight:bold;font-size:6.66667px;font-family:Roboto, sans-serif;fill:#eeeeee" id="text18901" transform="translate(11.907781,-6.4227367)" aria-label="10">
        <path id="path19021" style="font-weight:bold;font-size:6.66667px;font-family:Roboto, sans-serif;fill:#eeeeee" d="M 2.6074231,0 H 1.6666675 V -3.6263038 L 0.54362005,-3.2779964 V -4.0429707 L 2.5065116,-4.746096 h 0.1009115 z"/>
        <path id="path19023" style="font-weight:bold;font-size:6.66667px;font-family:Roboto, sans-serif;fill:#eeeeee" d="m 7.3404984,-1.9596364 q 0,0.98307343 -0.4069013,1.50390702 -0.4069012,0.52083358 -1.1914068,0.52083358 -0.7747399,0 -1.1848964,-0.51106795 Q 4.1471375,-0.95703171 4.1373718,-1.9108082 v -0.8723963 q 0,-0.992839 0.4101565,-1.5071621 0.4134116,-0.5143232 1.1881516,-0.5143232 0.77474,0 1.1848964,0.511068 0.4101564,0.5078127 0.4199221,1.4615892 z M 6.3997427,-2.9166681 q 0,-0.5891929 -0.1627605,-0.8561202 -0.1595053,-0.2701824 -0.5013023,-0.2701824 -0.3320314,0 -0.4915367,0.2571616 -0.1562501,0.2539064 -0.1660157,0.7975264 v 1.1523443 q 0,0.5794274 0.1562501,0.86263064 0.1595053,0.27994805 0.5078127,0.27994805 0.3450523,0 0.4980471,-0.27018242 0.1529949,-0.27018237 0.1595053,-0.82682327 z"/>
      </g>
      <path d="M 0,0 H 2.5" style="stroke:#cccccc;stroke-width:0.7" transform="rotate(19.8,-7.5,42.973062)" id="polyline18903"/>
      <g style="font-weight:bold;font-size:6.66667px;font-family:Roboto, sans-serif;fill:#eeeeee" id="text18905" transform="translate(7,17.588457)" aria-label="20">
        <path id="path19027" style="font-weight:bold;font-size:6.66667px;font-family:Roboto, sans-serif;fill:#eeeeee" d="M 3.5709652,0 H 0.32226578 V -0.64453156 L 1.8554696,-2.2786469 q 0.3157554,-0.3450523 0.465495,-0.6022138 0.1529949,-0.2571616 0.1529949,-0.4882815 0,-0.3157554 -0.1595053,-0.4947919 -0.1595053,-0.1822918 -0.4557294,-0.1822918 -0.3190105,0 -0.5045575,0.2213543 -0.1822917,0.218099 -0.1822917,0.5761721 H 0.22786469 q 0,-0.4329429 0.20507822,-0.791016 0.20833344,-0.3580731 0.58593779,-0.5598961 0.3776043,-0.2050782 0.8561202,-0.2050782 0.7324222,0 1.1360682,0.3515627 0.4069013,0.3515626 0.4069013,0.992839 0,0.3515627 -0.1822918,0.7161462 -0.1822917,0.3645835 -0.6250003,0.8496097 l -1.0774744,1.1360683 h 2.0377613 z"/>
        <path id="path19029" style="font-weight:bold;font-size:6.66667px;font-family:Roboto, sans-serif;fill:#eeeeee" d="m 7.3404984,-1.9596364 q 0,0.98307343 -0.4069013,1.50390702 -0.4069012,0.52083358 -1.1914068,0.52083358 -0.7747399,0 -1.1848964,-0.51106795 Q 4.1471375,-0.95703171 4.1373718,-1.9108082 v -0.8723963 q 0,-0.992839 0.4101565,-1.5071621 0.4134116,-0.5143232 1.1881516,-0.5143232 0.77474,0 1.1848964,0.511068 0.4101564,0.5078127 0.4199221,1.4615892 z M 6.3997427,-2.9166681 q 0,-0.5891929 -0.1627605,-0.8561202 -0.1595053,-0.2701824 -0.5013023,-0.2701824 -0.3320314,0 -0.4915367,0.2571616 -0.1562501,0.2539064 -0.1660157,0.7975264 v 1.1523443 q 0,0.5794274 0.1562501,0.86263064 0.1595053,0.27994805 0.5078127,0.27994805 0.3450523,0 0.4980471,-0.27018242 0.1529949,-0.27018237 0.1595053,-0.82682327 z"/>
      </g>
      <g style="font-weight:bold;font-size:5.33333px;font-family:Roboto, sans-serif;fill:#eeeeee" id="text18907" transform="translate(-5,20)" aria-label="KHZ">
        <path id="path19032" style="font-weight:bold;font-size:5.33333px;font-family:Roboto, sans-serif;fill:#eeeeee" d="M 1.5260408,-1.5208324 1.119791,-1.0833327 V 0 H 0.33854146 V -3.7916644 H 1.119791 v 1.718749 L 1.4635408,-2.5442693 2.4296861,-3.7916644 H 3.390623 L 2.0442696,-2.1067696 3.4296855,0 h -0.929687 z"/>
        <path id="path19034" style="font-weight:bold;font-size:5.33333px;font-family:Roboto, sans-serif;fill:#eeeeee" d="M 6.8098917,0 H 6.0286422 V -1.624999 H 4.5052056 V 0 H 3.7239561 v -3.7916644 h 0.7812495 v 1.5364574 h 1.5234366 v -1.5364574 h 0.7812495 z"/>
        <path id="path19036" style="font-weight:bold;font-size:5.33333px;font-family:Roboto, sans-serif;fill:#eeeeee" d="M 8.3229117,-0.62760379 H 10.234369 V 0 H 7.3463498 V -0.45833306 L 9.2213486,-3.1588523 H 7.3489539 v -0.6328121 h 2.8437481 v 0.4479164 z"/>
      </g>
    </g>
  </g>
  <g style="font-weight:bold;font-size:8px;font-family:Roboto, sans-serif;letter-spacing:2px;fill:#eeeeee" id="text18753" aria-label="CV">
    <path id="path19007" style="font-weight:bold;font-size:8px;font-family:Roboto, sans-serif;letter-spacing:2px;fill:#eeeeee" d="m 20.972656,82.105469 q -0.06641,0.917968 -0.679687,1.445312 -0.609375,0.527344 -1.609375,0.527344 -1.09375,0 -1.722657,-0.734375 -0.625,-0.738281 -0.625,-2.023438 v -0.347656 q 0,-0.820312 0.289063,-1.445312 0.289062,-0.625 0.824219,-0.957032 0.539062,-0.335937 1.25,-0.335937 0.984375,0 1.585937,0.527344 0.601563,0.527343 0.695313,1.480468 H 19.808594 Q 19.765625,79.691406 19.5,79.445312 q -0.261719,-0.25 -0.800781,-0.25 -0.585938,0 -0.878907,0.421875 -0.289062,0.417969 -0.296875,1.300782 v 0.429687 q 0,0.921875 0.277344,1.347656 0.28125,0.425782 0.882813,0.425782 0.542968,0 0.808593,-0.246094 0.269532,-0.25 0.308594,-0.769531 z"/>
    <path id="path19009" style="font-weight:bold;font-size:8px;font-family:Roboto, sans-serif;letter-spacing:2px;fill:#eeeeee" d="M 25.84375,82.589844 27.132812,78.3125 H 28.4375 L 26.457031,84 H 25.234375 L 23.261719,78.3125 H 24.5625 Z"/>
  </g>
  <g transform="translate(14.5,93.5)" id="g18755"/>
  <g transform="translate(2.2,81.5)" id="g18769">
    <g transform="translate(20,20)" id="g18767">
      <path d="M 0,0 H 4" style="stroke:#cccccc;stroke-width:1" transform="rotate(-90,-5,-5)" id="polyline18757"/>
      <path d="M 0,-12.5 A 12.5,12.5 0 0 1 12.5,0" stroke-width="0.7" stroke-linecap="round" stroke="#ccc" fill="none" transform="rotate(20)" id="path18759"/>
      <path d="M 0,-12.5 A 12.5,12.5 0 0 1 12.5,0" stroke-width="0.7" stroke-linecap="round" stroke="#ccc" fill="none" transform="rotate(43)" id="path18761"/>
      <path d="M 0,-12.5 A 12.5,12.5 0 0 0 -12.5,0" stroke-width="0.7" stroke-linecap="round" stroke="#ccc" fill="none" transform="rotate(-20)" id="path18763"/>
      <path d="M 0,-12.5 A 12.5,12.5 0 0 0 -12.5,0" stroke-width="0.7" stroke-linecap="round" stroke="#ccc" fill="none" transform="rotate(-43)" id="path18765"/>
    </g>
  </g>
  <g style="font-weight:bold;font-size:8px;font-family:Roboto, sans-serif;letter-spacing:1px;fill:#eeeeee" id="text18773" aria-label="RES/BW">
    <path id="path18993" style="font-weight:bold;font-size:8px;font-family:Roboto, sans-serif;letter-spacing:1px;fill:#eeeeee" d="M 7.6132812,127.91797 H 6.6796875 V 130 h -1.171875 v -5.6875 h 2.1132812 q 1.0078126,0 1.5546876,0.44922 0.546875,0.44922 0.546875,1.26953 0,0.58203 -0.2539063,0.97266 -0.25,0.38672 -0.7617187,0.61718 L 9.9375,129.94531 V 130 H 8.6796875 Z M 6.6796875,126.96875 H 7.625 q 0.4414063,0 0.6835938,-0.22266 0.2421875,-0.22656 0.2421875,-0.62109 0,-0.40234 -0.2304688,-0.63281 Q 8.09375,125.26172 7.6210937,125.26172 H 6.6796875 Z"/>
    <path id="path18995" style="font-weight:bold;font-size:8px;font-family:Roboto, sans-serif;letter-spacing:1px;fill:#eeeeee" d="m 15.039063,127.53516 h -2.25 v 1.52343 h 2.640625 V 130 h -3.8125 v -5.6875 h 3.804687 v 0.94922 h -2.632812 v 1.35547 h 2.25 z"/>
    <path id="path18997" style="font-weight:bold;font-size:8px;font-family:Roboto, sans-serif;letter-spacing:1px;fill:#eeeeee" d="m 20.066406,128.50781 q 0,-0.33203 -0.234375,-0.50781 -0.234375,-0.17969 -0.84375,-0.375 -0.609375,-0.19922 -0.964844,-0.39062 -0.96875,-0.52344 -0.96875,-1.41016 0,-0.46094 0.257813,-0.82031 0.261719,-0.36328 0.746094,-0.56641 0.488281,-0.20312 1.09375,-0.20312 0.609375,0 1.085937,0.22265 0.476563,0.21875 0.738281,0.6211 0.265625,0.40234 0.265625,0.91406 h -1.171875 q 0,-0.39063 -0.246093,-0.60547 -0.246094,-0.21875 -0.691407,-0.21875 -0.429687,0 -0.667968,0.18359 -0.238282,0.17969 -0.238282,0.47657 0,0.27734 0.277344,0.46484 0.28125,0.1875 0.824219,0.35156 1,0.30078 1.457031,0.7461 0.457031,0.44531 0.457031,1.10937 0,0.73828 -0.558593,1.16016 -0.558594,0.41796 -1.503907,0.41796 -0.65625,0 -1.195312,-0.23828 -0.539063,-0.24218 -0.824219,-0.66015 -0.28125,-0.41797 -0.28125,-0.96875 h 1.175781 q 0,0.9414 1.125,0.9414 0.417969,0 0.652344,-0.16797 0.234375,-0.17187 0.234375,-0.47656 z"/>
    <path id="path18999" style="font-weight:bold;font-size:8px;font-family:Roboto, sans-serif;letter-spacing:1px;fill:#eeeeee" d="m 23.320312,130.48828 h -0.839843 l 2.09375,-6.17578 h 0.839843 z"/>
    <path id="path19001" style="font-weight:bold;font-size:8px;font-family:Roboto, sans-serif;letter-spacing:1px;fill:#eeeeee" d="m 27.023437,130 v -5.6875 h 1.992188 q 1.035156,0 1.570312,0.39844 0.535157,0.39453 0.535157,1.16015 0,0.41797 -0.214844,0.73829 -0.214844,0.3164 -0.597656,0.46484 0.4375,0.10937 0.6875,0.44141 0.253906,0.33203 0.253906,0.81249 0,0.82032 -0.523438,1.24219 -0.523437,0.42188 -1.492187,0.42969 z m 1.171875,-2.47656 v 1.53515 h 1.003907 q 0.414062,0 0.644531,-0.19531 0.234375,-0.19922 0.234375,-0.54687 0,-0.78125 -0.808594,-0.79297 z m 0,-0.82813 H 29.0625 q 0.886719,-0.0156 0.886719,-0.70703 0,-0.38672 -0.226563,-0.55469 Q 29.5,125.26172 29.015625,125.26172 h -0.820313 z"/>
    <path id="path19003" style="font-weight:bold;font-size:8px;font-family:Roboto, sans-serif;letter-spacing:1px;fill:#eeeeee" d="m 37.5625,128.35937 0.765625,-4.04687 h 1.167969 L 38.234375,130 H 37.054687 L 36.128906,126.19531 35.203125,130 h -1.179688 l -1.261718,-5.6875 h 1.167968 l 0.769532,4.03906 0.9375,-4.03906 h 0.992187 z"/>
  </g>
  <g transform="translate(9.5,138)" id="g18775"/>
  <g transform="translate(0,128.5)" id="use18777">
    <g transform="translate(22.5,22.5)" id="g18935">
      <g style="font-weight:bold;font-size:6.66667px;font-family:Roboto, sans-serif;fill:#eeeeee" id="text18913" transform="translate(-11,17.588457)" aria-label="0">
        <path id="path18980" style="font-weight:bold;font-size:6.66667px;font-family:Roboto, sans-serif;fill:#eeeeee" d="m 3.5123715,-1.9596364 q 0,0.98307343 -0.4069013,1.50390702 Q 2.698569,0.0651042 1.9140634,0.0651042 q -0.7747399,0 -1.18489639,-0.51106795 Q 0.31901057,-0.95703171 0.30924494,-1.9108082 v -0.8723963 q 0,-0.992839 0.41015644,-1.5071621 0.41341162,-0.5143232 1.18815162,-0.5143232 0.7747399,0 1.1848964,0.511068 0.4101564,0.5078127 0.4199221,1.4615892 z M 2.5716158,-2.9166681 q 0,-0.5891929 -0.1627605,-0.8561202 Q 2.24935,-4.0429707 1.907553,-4.0429707 q -0.3320314,0 -0.4915367,0.2571616 -0.1562501,0.2539064 -0.1660157,0.7975264 v 1.1523443 q 0,0.5794274 0.1562501,0.86263064 0.1595053,0.27994805 0.5078127,0.27994805 0.3450523,0 0.4980471,-0.27018242 0.1529949,-0.27018237 0.1595053,-0.82682327 z"/>
      </g>
      <path d="M 0,0 H 2.5" style="stroke:#cccccc;stroke-width:0.7" transform="rotate(150,-7.5,2.0096189)" id="polyline18915"/>
      <path d="M 0,0 H 2.5" style="stroke:#cccccc;stroke-width:0.7" transform="rotate(180,-7.5,0)" id="polyline18917"/>
      <path d="M 0,0 H 2.5" style="stroke:#cccccc;stroke-width:0.7" transform="rotate(-150,-7.5,-2.0096189)" id="polyline18919"/>
      <path d="M 0,0 H 2.5" style="stroke:#cccccc;stroke-width:0.7" transform="rotate(-120,-7.5,-4.330127)" id="polyline18921"/>
      <path d="M 0,0 H 2.5" style="stroke:#cccccc;stroke-width:0.7" transform="rotate(-90,-7.5,-7.5)" id="polyline18923"/>
      <path d="M 0,0 H 2.5" style="stroke:#cccccc;stroke-width:0.7" transform="rotate(-60,-7.5,-12.990381)" id="polyline18925"/>
      <path d="M 0,0 H 2.5" style="stroke:#cccccc;stroke-width:0.7" transform="rotate(-30,-7.5,-27.990381)" id="polyline18927"/>
      <path d="M 0,0 H 2.5" style="stroke:#cccccc;stroke-width:0.7" transform="translate(15)" id="polyline18929"/>
      <path d="M 0,0 H 2.5" style="stroke:#cccccc;stroke-width:0.7" transform="rotate(30,-7.5,27.990381)" id="polyline18931"/>
      <path d="M 0,0 H 3.5" style="stroke:#cccccc;stroke-width:1" transform="rotate(60,-7.5,12.990381)" id="polyline18933"/>
    </g>
  </g>
  <g transform="translate(10.5,180)" id="g18793">
    <g id="g18785">
      <g transform="translate(-7.5,1)" id="g18781"/>
      <g style="font-weight:bold;font-size:6.66667px;font-family:Roboto, sans-serif;letter-spacing:0.5px;fill:#eeeeee" id="text18783" transform="translate(1,6.7)" aria-label="LP">
        <path id="path18970" style="font-weight:bold;font-size:6.66667px;font-family:Roboto, sans-serif;letter-spacing:0.5px;fill:#eeeeee" d="M 1.3997403,-0.78450558 H 3.4733089 V 0 H 0.42317729 V -4.7395856 H 1.3997403 Z"/>
        <path id="path18972" style="font-weight:bold;font-size:6.66667px;font-family:Roboto, sans-serif;letter-spacing:0.5px;fill:#eeeeee" d="M 5.5065127,-1.6699227 V 0 h -0.976563 v -4.7395856 h 1.8489592 q 0.5338544,0 0.9375005,0.1953126 0.4069012,0.1953126 0.6250003,0.5566409 0.218099,0.3580731 0.218099,0.8170577 0,0.6966149 -0.4785158,1.1002609 -0.4752607,0.4003908 -1.31836,0.4003908 z m 0,-0.791016 h 0.8723962 q 0.38737,0 0.589193,-0.1822917 0.2050782,-0.1822918 0.2050782,-0.5208336 0,-0.3483075 -0.2050782,-0.5631513 Q 6.7630237,-3.9420592 6.4016954,-3.9485696 H 5.5065127 Z"/>
      </g>
    </g>
    <g transform="translate(0,13)" id="g18791">
      <g transform="translate(-7.5,1)" id="g18787"/>
      <g style="font-weight:bold;font-size:6.66667px;font-family:Roboto, sans-serif;letter-spacing:0.5px;fill:#eeeeee" id="text18789" transform="translate(1,6.7)" aria-label="BP">
        <path id="path18975" style="font-weight:bold;font-size:6.66667px;font-family:Roboto, sans-serif;letter-spacing:0.5px;fill:#eeeeee" d="M 0.42317729,0 V -4.7395856 H 2.0833343 q 0.8626306,0 1.3085944,0.3320314 0.4459638,0.3287762 0.4459638,0.9667974 0,0.3483074 -0.1790366,0.6152346 -0.1790365,0.263672 -0.4980471,0.38737 0.3645835,0.091146 0.5729169,0.3678387 0.2115887,0.2766929 0.2115887,0.6770837 0,0.68359404 -0.4361981,1.03515671 Q 3.0729181,-0.00651042 2.2656261,0 Z M 1.3997403,-2.0638031 v 1.27929752 h 0.8365889 q 0.3450522,0 0.5371096,-0.1627605 0.1953126,-0.16601572 0.1953126,-0.45572942 0,-0.6510419 -0.6738284,-0.6608076 z m 0,-0.6901045 h 0.7226565 q 0.7389327,-0.013021 0.7389327,-0.589193 0,-0.3222657 -0.1888022,-0.4622398 -0.1855469,-0.1432292 -0.589193,-0.1432292 h -0.683594 z"/>
        <path id="path18977" style="font-weight:bold;font-size:6.66667px;font-family:Roboto, sans-serif;letter-spacing:0.5px;fill:#eeeeee" d="M 6.1575547,-1.6699227 V 0 h -0.976563 v -4.7395856 h 1.8489592 q 0.5338544,0 0.9375005,0.1953126 0.4069012,0.1953126 0.6250003,0.5566409 0.218099,0.3580731 0.218099,0.8170577 0,0.6966149 -0.4785158,1.1002609 -0.4752607,0.4003908 -1.31836,0.4003908 z m 0,-0.791016 h 0.8723962 q 0.38737,0 0.589193,-0.1822917 0.2050782,-0.1822918 0.2050782,-0.5208336 0,-0.3483075 -0.2050782,-0.5631513 Q 7.4140657,-3.9420592 7.0527374,-3.9485696 H 6.1575547 Z"/>
      </g>
    </g>
  </g>
  <g transform="translate(32.5,180)" id="g18807">
    <g id="g18799">
      <g transform="translate(-7.5,1)" id="g18795"/>
      <g style="font-weight:bold;font-size:6.66667px;font-family:Roboto, sans-serif;letter-spacing:0.5px;fill:#eeeeee" id="text18797" transform="translate(1,6.7)" aria-label="HP">
        <path id="path18960" style="font-weight:bold;font-size:6.66667px;font-family:Roboto, sans-serif;letter-spacing:0.5px;fill:#eeeeee" d="M 4.280601,0 H 3.304038 V -2.031251 H 1.3997403 V 0 H 0.42317729 V -4.7395856 H 1.3997403 v 1.9205738 H 3.304038 v -1.9205738 h 0.976563 z"/>
        <path id="path18962" style="font-weight:bold;font-size:6.66667px;font-family:Roboto, sans-serif;letter-spacing:0.5px;fill:#eeeeee" d="M 6.6132841,-1.6699227 V 0 H 5.6367212 v -4.7395856 h 1.8489592 q 0.5338544,0 0.9375004,0.1953126 0.4069013,0.1953126 0.6250003,0.5566409 0.2180991,0.3580731 0.2180991,0.8170577 0,0.6966149 -0.4785159,1.1002609 -0.4752606,0.4003908 -1.31836,0.4003908 z m 0,-0.791016 h 0.8723963 q 0.38737,0 0.589193,-0.1822917 0.2050782,-0.1822918 0.2050782,-0.5208336 0,-0.3483075 -0.2050782,-0.5631513 Q 7.8697952,-3.9420592 7.5084669,-3.9485696 H 6.6132841 Z"/>
      </g>
    </g>
    <g transform="translate(0,13)" id="g18805">
      <g transform="translate(-7.5,1)" id="g18801"/>
      <g style="font-weight:bold;font-size:6.66667px;font-family:Roboto, sans-serif;letter-spacing:0.5px;fill:#eeeeee" id="text18803" transform="translate(1,6.7)" aria-label="BR">
        <path id="path18965" style="font-weight:bold;font-size:6.66667px;font-family:Roboto, sans-serif;letter-spacing:0.5px;fill:#eeeeee" d="M 0.42317729,0 V -4.7395856 H 2.0833343 q 0.8626306,0 1.3085944,0.3320314 0.4459638,0.3287762 0.4459638,0.9667974 0,0.3483074 -0.1790366,0.6152346 -0.1790365,0.263672 -0.4980471,0.38737 0.3645835,0.091146 0.5729169,0.3678387 0.2115887,0.2766929 0.2115887,0.6770837 0,0.68359404 -0.4361981,1.03515671 Q 3.0729181,-0.00651042 2.2656261,0 Z M 1.3997403,-2.0638031 v 1.27929752 h 0.8365889 q 0.3450522,0 0.5371096,-0.1627605 0.1953126,-0.16601572 0.1953126,-0.45572942 0,-0.6510419 -0.6738284,-0.6608076 z m 0,-0.6901045 h 0.7226565 q 0.7389327,-0.013021 0.7389327,-0.589193 0,-0.3222657 -0.1888022,-0.4622398 -0.1855469,-0.1432292 -0.589193,-0.1432292 h -0.683594 z"/>
        <path id="path18967" style="font-weight:bold;font-size:6.66667px;font-family:Roboto, sans-serif;letter-spacing:0.5px;fill:#eeeeee" d="M 6.9355498,-1.7350269 H 6.1575547 V 0 h -0.976563 v -4.7395856 h 1.7610685 q 0.8398442,0 1.2955736,0.3743491 0.4557294,0.3743492 0.4557294,1.0579433 0,0.4850262 -0.2115887,0.8105472 -0.2083334,0.3222658 -0.6347659,0.5143232 l 1.0253911,1.93684986 V 0 H 7.8242221 Z m -0.7779951,-0.791016 h 0.7877608 q 0.3678387,0 0.5696617,-0.1855469 0.201823,-0.1888022 0.201823,-0.5175784 0,-0.3352866 -0.1920574,-0.527344 Q 7.3359406,-3.9485696 6.9420602,-3.9485696 H 6.1575547 Z"/>
      </g>
    </g>
  </g>
  <g transform="translate(18,204)" id="g18809"/>
  <g class="io-group" transform="translate(5.5,225)" id="g18825">
    <path class="input-background" d="m 5,0 h 24 c 2.77,0 5,2.23 5,5 v 63 c 0,2.77 -2.23,5 -5,5 H 5 C 2.23,73 0,70.77 0,68 V 5 C 0,2.23 2.23,0 5,0 Z" style="fill:#aaaaaa" id="rect18813"/>
    <path class="input-background-filler" d="M 0,0 H 34 V 10 H 0 Z" style="fill:#aaaaaa" transform="translate(0,63)" id="rect18815"/>
    <g transform="translate(5,3)" id="g18817"/>
    <g class="input-label" style="font-weight:bold;font-size:6.66667px;font-family:Roboto, sans-serif;letter-spacing:2px;fill:#222222" id="text18819" transform="translate(12.5,35)" aria-label="IN">
      <path id="path18950" style="font-weight:bold;font-size:6.66667px;font-family:Roboto, sans-serif;letter-spacing:2px;fill:#222222" d="M 1.4615892,0 H 0.48502627 V -4.7395856 H 1.4615892 Z"/>
      <path id="path18952" style="font-weight:bold;font-size:6.66667px;font-family:Roboto, sans-serif;letter-spacing:2px;fill:#222222" d="M 8.2174508,0 H 7.2408878 L 5.3398452,-3.1184911 V 0 h -0.976563 v -4.7395856 h 0.976563 l 1.9042978,3.1250015 v -3.1250015 h 0.9733078 z"/>
    </g>
    <g transform="translate(5,38)" id="g18821"/>
    <g class="input-label" style="font-weight:bold;font-size:6.66667px;font-family:Roboto, sans-serif;letter-spacing:2px;fill:#222222" id="text18823" transform="translate(11,70)" aria-label="CV">
      <path id="path18955" style="font-weight:bold;font-size:6.66667px;font-family:Roboto, sans-serif;letter-spacing:2px;fill:#222222" d="M 4.1438822,-1.5787768 Q 4.0885436,-0.81380247 3.5774757,-0.37434914 3.0696629,0.0651042 2.2363292,0.0651042 q -0.9114588,0 -1.43554757,-0.61197946 Q 0.27994805,-1.1621099 0.27994805,-2.233074 v -0.2897137 q 0,-0.683594 0.24088553,-1.2044276 0.24088553,-0.5208336 0.68684932,-0.7975264 0.4492189,-0.2799481 1.0416671,-0.2799481 0.8203129,0 1.3216152,0.4394533 0.5013024,0.4394534 0.5794274,1.2337246 H 3.1738296 Q 3.1380223,-3.5904965 2.9166681,-3.7955747 2.698569,-4.0039082 2.24935,-4.0039082 q -0.4882815,0 -0.7324222,0.3515627 -0.2408855,0.3483075 -0.2473959,1.0839849 v 0.3580731 q 0,0.7682295 0.2311199,1.1230474 0.2343751,0.35481788 0.7356774,0.35481788 0.4524742,0 0.6738284,-0.20507823 0.2246095,-0.20833345 0.2571616,-0.64127635 z"/>
      <path id="path18957" style="font-weight:bold;font-size:6.66667px;font-family:Roboto, sans-serif;letter-spacing:2px;fill:#222222" d="M 8.5364616,-1.1751308 9.6106809,-4.7395856 H 10.697921 L 9.0475295,0 H 8.0286489 l -1.643881,-4.7395856 h 1.0839849 z"/>
    </g>
  </g>
  <g class="io-group" transform="translate(5.5,301)" id="g18835">
    <path class="output-background-filler" d="M 0,0 H 34 V 10 H 0 Z" style="fill:#666666" transform="translate(0,-3)" id="rect18827"/>
    <path class="output-background" d="m 5,0 h 24 c 2.77,0 5,2.23 5,5 v 25 c 0,2.77 -2.23,5 -5,5 H 5 C 2.23,35 0,32.77 0,30 V 5 C 0,2.23 2.23,0 5,0 Z" style="fill:#666666" id="rect18829"/>
    <g transform="translate(5)" id="g18831"/>
    <g class="output-label" style="font-weight:bold;font-size:6.66667px;font-family:Roboto, sans-serif;letter-spacing:2px;fill:#dddddd" id="text18833" transform="translate(8.3,32)" aria-label="OUT">
      <path id="path18941" style="font-weight:bold;font-size:6.66667px;font-family:Roboto, sans-serif;letter-spacing:2px;fill:#dddddd" d="m 4.3164083,-2.2623709 q 0,0.6998702 -0.2473959,1.2272142 -0.247396,0.52734396 -0.7096358,0.81380243 -0.4589846,0.28645847 -1.054688,0.28645847 -0.589193,0 -1.0514328,-0.28320326 Q 0.791016,-0.50130232 0.53710963,-1.0253911 0.28320326,-1.5527351 0.27994805,-2.2363292 v -0.2343751 q 0,-0.6998701 0.25065116,-1.2304693 0.25390637,-0.5338545 0.71289099,-0.8170577 0.4622398,-0.2864585 1.054688,-0.2864585 0.5924482,0 1.0514328,0.2864585 0.4622398,0.2832032 0.7128909,0.8170577 0.2539064,0.5305992 0.2539064,1.2272141 z M 3.3268245,-2.4772147 q 0,-0.7454431 -0.2669272,-1.1328131 -0.2669272,-0.3873699 -0.7617191,-0.3873699 -0.4915367,0 -0.7584639,0.3841147 -0.2669272,0.3808596 -0.2701824,1.1197922 v 0.2311199 q 0,0.7259118 0.2669272,1.1263026 0.2669272,0.40039087 0.7682295,0.40039087 0.4915367,0 0.7552087,-0.38411477 0.263672,-0.38737 0.2669272,-1.1263026 z"/>
      <path id="path18943" style="font-weight:bold;font-size:6.66667px;font-family:Roboto, sans-serif;letter-spacing:2px;fill:#dddddd" d="m 10.619796,-4.7395856 v 3.1217463 q 0,0.77799515 -0.488282,1.23046932 -0.4850258,0.45247418 -1.3281252,0.45247418 -0.8300785,0 -1.31836,-0.43945334 Q 6.9967474,-0.81380247 6.9869817,-1.582032 v -3.1575536 h 0.976563 v 3.1282567 q 0,0.465495 0.2213543,0.68033887 0.2246095,0.21158865 0.6184898,0.21158865 0.8235681,0 0.836589,-0.86588582 v -3.1542984 z"/>
      <path id="path18945" style="font-weight:bold;font-size:6.66667px;font-family:Roboto, sans-serif;letter-spacing:2px;fill:#dddddd" d="M 16.988288,-3.9485696 H 15.536464 V 0 h -0.976563 v -3.9485696 h -1.432292 v -0.791016 h 3.860679 z"/>
    </g>
  </g>
</svg>
