<?xml version="1.0" encoding="UTF-8" standalone="no"?>
<svg xmlns:dc="http://purl.org/dc/elements/1.1/" xmlns:cc="http://creativecommons.org/ns#" xmlns:rdf="http://www.w3.org/1999/02/22-rdf-syntax-ns#" xmlns:svg="http://www.w3.org/2000/svg" xmlns="http://www.w3.org/2000/svg" xmlns:sodipodi="http://sodipodi.sourceforge.net/DTD/sodipodi-0.dtd" xmlns:inkscape="http://www.inkscape.org/namespaces/inkscape" inkscape:version="1.0 (4035a4f, 2020-05-01)" sodipodi:docname="svg_render_LVCO-lowcontrast-pp.svg" id="svg19242" viewBox="0 0 45.0 380.0" height="380.0" width="45.0" version="1.1">
  <metadata id="metadata19246">
    <rdf:RDF>
      <cc:Work rdf:about="">
        <dc:format>image/svg+xml</dc:format>
        <dc:type rdf:resource="http://purl.org/dc/dcmitype/StillImage"/>
      </cc:Work>
    </rdf:RDF>
  </metadata>
  <sodipodi:namedview inkscape:current-layer="svg19242" inkscape:window-maximized="0" inkscape:window-y="23" inkscape:window-x="0" inkscape:cy="190" inkscape:cx="22.5" inkscape:zoom="1.7605263" showgrid="false" id="namedview19244" inkscape:window-height="480" inkscape:window-width="689" inkscape:pageshadow="2" inkscape:pageopacity="0" guidetolerance="10" gridtolerance="10" objecttolerance="10" borderopacity="1" bordercolor="#666666" pagecolor="#ffffff"/>
  
  <defs id="defs19102">
    <symbol viewBox="0 0 45px 45px" id="dial-frequency-lvco">
      <g id="g19099" transform="translate(22.5 22.5)">
        <polyline id="polyline19075" transform="rotate(-240) translate(15 0)" stroke-width="0.7" points="0,0 3.5,0"/>
        <polyline id="polyline19077" transform="rotate(-206.67) translate(15 0)" stroke-width="0.7" points="0,0 2.5,0"/>
        <polyline id="polyline19079" transform="rotate(-173.33) translate(15 0)" stroke-width="0.7" points="0,0 2.5,0"/>
        <g id="g19085" transform="rotate(-140) translate(14 0)">
          <polyline id="polyline19081" transform="translate(0 0)" stroke-width="1.0" points="0,0 2.5,0"/>
          <text id="text19083" transform="translate(5 0) rotate(140) translate(-5.5 0)" font-size="5.0pt">OV</text>
        </g>
        <polyline id="polyline19087" transform="rotate(-106.67) translate(15 0)" stroke-width="0.7" points="0,0 2.5,0"/>
        <polyline id="polyline19089" transform="rotate(-73.33) translate(15 0)" stroke-width="0.7" points="0,0 2.5,0"/>
        <polyline id="polyline19091" transform="rotate(-40) translate(15 0)" stroke-width="0.7" points="0,0 2.5,0"/>
        <polyline id="polyline19093" transform="rotate(-6.67) translate(15 0)" stroke-width="0.7" points="0,0 2.5,0"/>
        <polyline id="polyline19095" transform="rotate(26.67) translate(15 0)" stroke-width="0.7" points="0,0 2.5,0"/>
        <polyline id="polyline19097" transform="rotate(60) translate(15 0)" stroke-width="0.7" points="0,0 3.5,0"/>
      </g>
    </symbol>
  </defs>
  <path class="module-background background-fill" d="M 0,0 H 45 V 380 H 0 Z" style="fill:#333333" id="rect19104"/>
  <path class="module-border-inner" d="M 1,1 H 44 V 379 H 1 V 1" style="fill:none;stroke:#191919;stroke-width:0.5" id="polyline19106"/>
  <path class="module-border-middle" d="m 0.5,0.5 h 44 v 379 H 0.5 V 0.5" style="fill:none;stroke:#111111;stroke-width:0.8" id="polyline19108"/>
  <path class="module-border-outer" d="M 0,0 H 45 V 380 H 0 V 0" style="fill:none;stroke:#000000;stroke-width:1" id="polyline19110"/>
  <g class="title" style="font-weight:normal;font-size:9.33333px;font-family:Comfortaa, sans-serif;letter-spacing:2.5px;fill:#b3b3b3" id="text19112" transform="rotate(-90)" aria-label="LVCO">
    <path id="path19414" style="font-weight:normal;font-size:9.33333px;font-family:Comfortaa, sans-serif;letter-spacing:2.5px;fill:#b3b3b3" d="m -374.70267,13 q -0.14933,0 -0.26133,-0.102667 -0.10267,-0.112 -0.10267,-0.261333 V 6.074669 q 0,-0.1493333 0.10267,-0.2519999 0.112,-0.112 0.26133,-0.112 0.15867,0 0.26134,0.1026667 0.10266,0.1026666 0.10266,0.2613332 v 6.234665 h 3.64933 q 0.15867,0 0.26134,0.102666 0.10266,0.09333 0.10266,0.242667 0,0.149333 -0.10266,0.252 Q -370.53067,13 -370.68934,13 Z"/>
    <path id="path19416" style="font-weight:normal;font-size:9.33333px;font-family:Comfortaa, sans-serif;letter-spacing:2.5px;fill:#b3b3b3" d="m -362.34477,5.7106691 q 0.14933,0 0.23333,0.093333 0.0933,0.093333 0.0933,0.2333332 0,0.093333 -0.0467,0.2053333 l -2.78134,6.523998 Q -364.94877,13 -365.17277,13 q -0.12134,0 -0.20534,-0.04667 -0.0747,-0.056 -0.13066,-0.186666 l -2.772,-6.4866647 q -0.056,-0.14 -0.056,-0.2426666 0,-0.1493333 0.0933,-0.2333332 0.10267,-0.093333 0.26133,-0.093333 0.24267,0 0.336,0.2333333 l 2.47334,5.9173316 2.464,-5.8986649 q 0.056,-0.14 0.14,-0.196 0.084,-0.056 0.224,-0.056 z"/>
    <path id="path19418" style="font-weight:normal;font-size:9.33333px;font-family:Comfortaa, sans-serif;letter-spacing:2.5px;fill:#b3b3b3" d="m -355.59796,13.093333 q -0.98934,0 -1.82,-0.504 -0.83067,-0.503999 -1.32534,-1.362666 -0.48533,-0.858666 -0.48533,-1.8759991 0,-1.0079996 0.48533,-1.866666 0.48534,-0.8586664 1.316,-1.3626662 0.83067,-0.5039999 1.82934,-0.5039999 0.67199,0 1.22266,0.196 0.55067,0.1959999 1.064,0.6253331 0.10267,0.074667 0.10267,0.2146666 0,0.074667 -0.0373,0.1399999 -0.0373,0.056 -0.10266,0.084 -0.0187,0.065333 -0.084,0.1026667 -0.0653,0.037333 -0.14,0.037333 -0.14,0 -0.23334,-0.084 -0.364,-0.3266666 -0.79333,-0.4759998 -0.42933,-0.1493333 -0.99866,-0.1493333 -0.784,0 -1.456,0.4199998 -0.672,0.4106666 -1.07334,1.1106663 -0.392,0.6999998 -0.392,1.5119995 0,0.8306661 0.392,1.5306661 0.392,0.7 1.064,1.110666 0.672,0.410667 1.46534,0.410667 1.01733,0 1.83866,-0.653333 0.10267,-0.07467 0.20533,-0.07467 0.14,0 0.24267,0.102667 0.10267,0.09333 0.10267,0.252 0,0.149333 -0.10267,0.261333 -0.87733,0.802666 -2.28666,0.802666 z"/>
    <path id="path19420" style="font-weight:normal;font-size:9.33333px;font-family:Comfortaa, sans-serif;letter-spacing:2.5px;fill:#b3b3b3" d="m -345.80411,13.093333 q -1.064,0 -1.91333,-0.485333 -0.84934,-0.485333 -1.33467,-1.334666 -0.476,-0.858666 -0.476,-1.9226661 0,-1.0639996 0.476,-1.9133327 0.48533,-0.849333 1.33467,-1.3346662 0.84933,-0.4853332 1.91333,-0.4853332 1.05466,0 1.904,0.4853332 0.85866,0.4853332 1.33466,1.3346662 0.48534,0.8493331 0.48534,1.9133327 0,1.0640001 -0.48534,1.9226661 -0.476,0.849333 -1.33466,1.334666 -0.84934,0.485333 -1.904,0.485333 z m 0,-0.690666 q 0.84933,0 1.53066,-0.401333 0.69067,-0.401334 1.08267,-1.092 0.392,-0.7 0.392,-1.5586661 0,-0.849333 -0.392,-1.5399995 -0.392,-0.6999997 -1.08267,-1.1013329 -0.68133,-0.4013332 -1.53066,-0.4013332 -0.85867,0 -1.54933,0.4013332 -0.68134,0.4013332 -1.07334,1.1013329 -0.392,0.6906665 -0.392,1.5399995 0,0.8586661 0.392,1.5586661 0.392,0.690666 1.07334,1.092 0.69066,0.401333 1.54933,0.401333 z"/>
  </g>
  <g transform="rotate(-90,200.5,175.5)" id="g19118">
    <g class="brand" style="font-weight:bold;font-size:9.33333px;font-family:Audiowide, sans-serif;letter-spacing:2px;fill:#b3b3b3" id="text19114" aria-label="BGA">
      <path id="path19406" style="font-weight:bold;font-size:9.33333px;font-family:Audiowide, sans-serif;letter-spacing:2px;fill:#b3b3b3" d="m 7.209633,-1.4355464 q 0,0.2187499 -0.077474,0.4694009 -0.072917,0.25065095 -0.2460936,0.46484359 Q 6.7174456,-0.28710928 6.4440082,-0.14127599 6.1705708,0 5.7740866,0 H 1.2760412 Q 1.1484371,0 1.0390621,-0.0455729 0.92968718,-0.0911458 0.84765596,-0.16861973 0.77018203,-0.25065096 0.72460913,-0.36002592 0.67903623,-0.46940088 0.67903623,-0.597005 v -5.341144 q 0,-0.1230469 0.0455729,-0.2324218 0.0455729,-0.109375 0.12304683,-0.1914062 0.0820312,-0.082031 0.19140614,-0.1276041 0.109375,-0.045573 0.2369791,-0.045573 h 3.9648424 q 0.21875,0 0.4694009,0.077474 0.250651,0.077474 0.4648436,0.250651 0.2187499,0.1686197 0.3600259,0.4420571 0.1458333,0.2734374 0.1458333,0.6699217 v 0.2233072 q 0,0.314453 -0.1048177,0.6790362 -0.1048176,0.3600259 -0.3372394,0.6835935 0.2005207,0.1230468 0.3736978,0.2962239 0.1777343,0.173177 0.3098957,0.4010415 0.1321614,0.2278645 0.2096353,0.5149738 0.077474,0.2871093 0.077474,0.6334633 z M 6.0247375,-1.6634109 q 0,-0.2324218 -0.072917,-0.4147134 Q 5.8789042,-2.2649732 5.7467428,-2.3971346 5.6145814,-2.529296 5.4277325,-2.5976554 5.2408836,-2.670572 5.0084618,-2.670572 h -2.670572 v -1.19401 h 2.1373691 q 0.2324218,0 0.4192707,-0.068359 0.1868489,-0.072917 0.3190103,-0.205078 0.1321614,-0.1321614 0.2005208,-0.314453 0.072917,-0.1868489 0.072917,-0.4192707 v -0.2233072 q 0,-0.2552083 -0.2460937,-0.2552083 H 1.8639317 v 4.1653632 h 3.9101549 q 0.031901,0 0.077474,-0.00456 0.045573,-0.00456 0.082031,-0.027344 0.036458,-0.022786 0.063802,-0.077474 0.027344,-0.054687 0.027344,-0.1503906 z"/>
      <path id="path19408" style="font-weight:bold;font-size:9.33333px;font-family:Audiowide, sans-serif;letter-spacing:2px;fill:#b3b3b3" d="m 16.683589,-0.597005 q 0,0.12760412 -0.04557,0.23697908 -0.04557,0.10937496 -0.127605,0.19140619 -0.07747,0.07747393 -0.186849,0.12304683 Q 16.214189,0 16.086584,0 h -4.274738 q -0.164062,0 -0.355468,-0.03645832 -0.186849,-0.04101561 -0.373698,-0.12304683 -0.182292,-0.0820312 -0.350911,-0.20963535 -0.16862,-0.13216141 -0.300782,-0.31445302 -0.127604,-0.18684889 -0.205078,-0.42838528 -0.07747,-0.2460937 -0.07747,-0.5514321 v -3.2083322 q 0,-0.1640625 0.03646,-0.3509114 0.04101,-0.1914062 0.123047,-0.3736978 0.08203,-0.1868489 0.214192,-0.3554686 0.132162,-0.1686197 0.314453,-0.2962238 0.186849,-0.1321615 0.428385,-0.2096354 0.241537,-0.077474 0.546875,-0.077474 h 4.817056 v 1.1848954 h -4.817056 q -0.232422,0 -0.355468,0.1230468 -0.123047,0.1230469 -0.123047,0.3645832 v 3.1992177 q 0,0.2278645 0.123047,0.3554686 0.127604,0.1230469 0.355468,0.1230469 h 3.686848 V -2.670572 h -3.153645 v -1.19401 h 3.741535 q 0.127605,0 0.236979,0.05013 0.109375,0.045573 0.186849,0.1276041 0.08203,0.082031 0.127605,0.1914062 0.04557,0.1048177 0.04557,0.2278645 z"/>
      <path id="path19410" style="font-weight:bold;font-size:9.33333px;font-family:Audiowide, sans-serif;letter-spacing:2px;fill:#b3b3b3" d="M 26.339836,0 H 25.154941 V -1.6041661 H 20.989578 V 0 h -1.184896 v -3.267577 q 0,-0.7154946 0.246094,-1.3170569 0.246094,-0.6015623 0.683593,-1.0345048 0.4375,-0.4329426 1.034505,-0.6744789 0.597005,-0.2415364 1.303385,-0.2415364 h 2.670572 q 0.123047,0 0.232422,0.045573 0.109375,0.045573 0.191406,0.1276041 0.08203,0.082031 0.127604,0.1914062 0.04557,0.1093749 0.04557,0.2324218 z m -5.350258,-2.7890616 h 4.165363 v -2.561197 h -2.082682 q -0.05469,0 -0.232422,0.018229 -0.173177,0.013672 -0.405598,0.077474 -0.227865,0.063802 -0.483073,0.1959635 -0.255208,0.1321614 -0.469401,0.3645832 -0.214193,0.2324218 -0.355469,0.5833331 -0.136718,0.3463541 -0.136718,0.8430987 z"/>
    </g>
    <path class="background-fill" d="M 0,0 H 3 V 3 H 0 Z" style="fill:#333333" transform="translate(11.5,-5)" id="rect19116"/>
  </g>
  <g transform="translate(9.5,27)" id="g19122"/>
  <g transform="translate(0,17.5)" id="use19124">
    <g transform="translate(22.5,22.5)" id="g19331">
      <path d="M 0,0 H 3.5" style="stroke:#b3b3b3;stroke-width:0.7" transform="rotate(120,-7.5,4.330127)" id="polyline19307"/>
      <path d="M 0,0 H 2.5" style="stroke:#b3b3b3;stroke-width:0.7" transform="rotate(153.33,-7.5,1.7777631)" id="polyline19309"/>
      <path d="M 0,0 H 2.5" style="stroke:#b3b3b3;stroke-width:0.7" transform="rotate(-173.33,-7.5,-0.43704416)" id="polyline19311"/>
      <g transform="rotate(-140,-7,-2.5477916)" id="g19317">
        <path d="M 0,0 H 2.5" style="stroke:#b3b3b3;stroke-width:1" id="polyline19313"/>
        <g style="font-weight:bold;font-size:6.66667px;font-family:Roboto, sans-serif;fill:#b3b3b3" id="text19315" transform="rotate(140,5.25,-0.09099256)" aria-label="OV">
          <path id="path19395" style="font-weight:bold;font-size:6.66667px;font-family:Roboto, sans-serif;fill:#b3b3b3" d="m 4.3164083,-2.2623709 q 0,0.6998702 -0.2473959,1.2272142 -0.247396,0.52734396 -0.7096358,0.81380243 -0.4589846,0.28645847 -1.054688,0.28645847 -0.589193,0 -1.0514328,-0.28320326 Q 0.791016,-0.50130232 0.53710963,-1.0253911 0.28320326,-1.5527351 0.27994805,-2.2363292 v -0.2343751 q 0,-0.6998701 0.25065116,-1.2304693 0.25390637,-0.5338545 0.71289099,-0.8170577 0.4622398,-0.2864585 1.054688,-0.2864585 0.5924482,0 1.0514328,0.2864585 0.4622398,0.2832032 0.7128909,0.8170577 0.2539064,0.5305992 0.2539064,1.2272141 z M 3.3268245,-2.4772147 q 0,-0.7454431 -0.2669272,-1.1328131 -0.2669272,-0.3873699 -0.7617191,-0.3873699 -0.4915367,0 -0.7584639,0.3841147 -0.2669272,0.3808596 -0.2701824,1.1197922 v 0.2311199 q 0,0.7259118 0.2669272,1.1263026 0.2669272,0.40039087 0.7682295,0.40039087 0.4915367,0 0.7552087,-0.38411477 0.263672,-0.38737 0.2669272,-1.1263026 z"/>
          <path id="path19397" style="font-weight:bold;font-size:6.66667px;font-family:Roboto, sans-serif;fill:#b3b3b3" d="M 6.7187531,-1.1751308 7.7929724,-4.7395856 H 8.8802125 L 7.2298211,0 H 6.2109404 l -1.643881,-4.7395856 h 1.0839849 z"/>
        </g>
      </g>
      <path d="M 0,0 H 2.5" style="stroke:#b3b3b3;stroke-width:0.7" transform="rotate(-106.67,-7.5,-5.583204)" id="polyline19319"/>
      <path d="M 0,0 H 2.5" style="stroke:#b3b3b3;stroke-width:0.7" transform="rotate(-73.33,-7.5,-10.07486)" id="polyline19321"/>
      <path d="M 0,0 H 2.5" style="stroke:#b3b3b3;stroke-width:0.7" transform="rotate(-40,-7.5,-20.606081)" id="polyline19323"/>
      <path d="M 0,0 H 2.5" style="stroke:#b3b3b3;stroke-width:0.7" transform="rotate(-6.67,-7.5,-128.70553)" id="polyline19325"/>
      <path d="M 0,0 H 2.5" style="stroke:#b3b3b3;stroke-width:0.7" transform="rotate(26.67,-7.5,31.640887)" id="polyline19327"/>
      <path d="M 0,0 H 3.5" style="stroke:#b3b3b3;stroke-width:0.7" transform="rotate(60,-7.5,12.990381)" id="polyline19329"/>
    </g>
  </g>
  <g style="font-weight:bold;font-size:8px;font-family:Roboto, sans-serif;letter-spacing:1px;fill:#b3b3b3" id="text19128" aria-label="SLOW">
    <path id="path19382" style="font-weight:bold;font-size:8px;font-family:Roboto, sans-serif;letter-spacing:1px;fill:#b3b3b3" d="m 7.4570312,67.607811 q 0,-0.332031 -0.234375,-0.507813 -0.234375,-0.179687 -0.84375,-0.375 -0.609375,-0.199218 -0.9648437,-0.390625 -0.96875,-0.523437 -0.96875,-1.410156 0,-0.460937 0.2578125,-0.820312 0.2617187,-0.363282 0.7460937,-0.566407 0.4882813,-0.203125 1.09375,-0.203125 0.609375,0 1.0859375,0.222657 0.4765626,0.21875 0.7382813,0.621093 0.265625,0.402344 0.265625,0.914063 h -1.171875 q 0,-0.390625 -0.2460938,-0.605469 -0.2460937,-0.21875 -0.6914062,-0.21875 -0.4296875,0 -0.6679688,0.183594 -0.2382812,0.179687 -0.2382812,0.476562 0,0.277344 0.2773437,0.464844 0.28125,0.1875 0.8242188,0.351563 1,0.300781 1.4570313,0.746093 0.4570312,0.445313 0.4570312,1.109375 0,0.738282 -0.5585937,1.160157 -0.5585938,0.417968 -1.5039063,0.417968 -0.65625,0 -1.1953125,-0.238281 -0.5390625,-0.242187 -0.8242188,-0.660156 -0.28125,-0.417969 -0.28125,-0.96875 h 1.1757813 q 0,0.941406 1.125,0.941406 0.4179687,0 0.6523437,-0.167969 0.234375,-0.171875 0.234375,-0.476562 z"/>
    <path id="path19384" style="font-weight:bold;font-size:8px;font-family:Roboto, sans-serif;letter-spacing:1px;fill:#b3b3b3" d="m 11.601563,68.158592 h 2.488281 v 0.941406 h -3.660156 v -5.6875 h 1.171875 z"/>
    <path id="path19386" style="font-weight:bold;font-size:8px;font-family:Roboto, sans-serif;letter-spacing:1px;fill:#b3b3b3" d="m 20.179687,66.385155 q 0,0.839843 -0.296875,1.472656 -0.296875,0.632812 -0.851562,0.976562 -0.550781,0.34375 -1.265625,0.34375 -0.707031,0 -1.261719,-0.339843 -0.554687,-0.339844 -0.859375,-0.96875 -0.304687,-0.632813 -0.308593,-1.453125 v -0.28125 q 0,-0.839844 0.300781,-1.476563 0.304687,-0.640625 0.855468,-0.980469 0.554688,-0.34375 1.265625,-0.34375 0.710938,0 1.261719,0.34375 0.554688,0.339844 0.855469,0.980469 0.304687,0.636719 0.304687,1.472656 z m -1.1875,-0.257813 q 0,-0.894531 -0.320312,-1.359375 -0.320313,-0.464844 -0.914063,-0.464844 -0.589843,0 -0.910156,0.460938 -0.320312,0.457031 -0.324219,1.34375 v 0.277344 q 0,0.871093 0.320313,1.351562 0.320312,0.480469 0.921875,0.480469 0.589844,0 0.90625,-0.460938 0.316406,-0.464843 0.320312,-1.351562 z"/>
    <path id="path19388" style="font-weight:bold;font-size:8px;font-family:Roboto, sans-serif;letter-spacing:1px;fill:#b3b3b3" d="m 26.46875,67.459373 0.765625,-4.046875 h 1.167969 l -1.261719,5.6875 h -1.179688 l -0.925781,-3.804687 -0.925781,3.804687 h -1.179688 l -1.261718,-5.6875 h 1.167968 l 0.769532,4.039063 0.9375,-4.039063 h 0.992187 z"/>
  </g>
  <g transform="translate(31,62)" id="g19130"/>
  <g transform="translate(9.5,86)" id="g19160">
    <g id="g19142">
      <g transform="translate(-7.5,1)" id="g19134"/>
      <g transform="matrix(0.8,0,0,0.8,1,1)" id="g19140">
        <path d="M 0,4 A 3,4.5 0 0 1 6,4" stroke-width="1" stroke="#b3b3b3" fill="none" id="path19136"/>
        <path d="m 6,4 a 3,4.5 0 0 0 6,0" stroke-width="1" stroke="#b3b3b3" fill="none" id="path19138"/>
      </g>
    </g>
    <g transform="translate(0,13)" id="g19150">
      <g transform="translate(-7.5,1)" id="g19144"/>
      <g transform="matrix(0.8,0,0,0.8,1,1)" id="g19148">
        <path d="M 0,8 12,0 v 8" style="fill:none;stroke:#b3b3b3;stroke-width:1" id="polyline19146"/>
      </g>
    </g>
    <g transform="translate(0,26)" id="g19158">
      <g transform="translate(-7.5,1)" id="g19152"/>
      <g transform="matrix(0.8,0,0,0.8,1,1)" id="g19156">
        <path d="M 0,4 V 0 H 4.5 V 8 H 12 V 4" style="fill:none;stroke:#b3b3b3;stroke-width:1" id="polyline19154"/>
      </g>
    </g>
  </g>
  <g transform="translate(31.5,86)" id="g19186">
    <g id="g19168">
      <g transform="translate(-7.5,1)" id="g19162"/>
      <g transform="matrix(0.8,0,0,0.8,1,1)" id="g19166">
        <path d="M 0,4 3,0 9,8 12,4" style="fill:none;stroke:#b3b3b3;stroke-width:1" id="polyline19164"/>
      </g>
    </g>
    <g transform="translate(0,13)" id="g19176">
      <g transform="translate(-7.5,1)" id="g19170"/>
      <g transform="matrix(0.8,0,0,0.8,1,1)" id="g19174">
        <path d="M 0,4 V 0 h 6 v 8 h 6 V 4" style="fill:none;stroke:#b3b3b3;stroke-width:1" id="polyline19172"/>
      </g>
    </g>
    <g transform="translate(0,26)" id="g19184">
      <g transform="translate(-7.5,1)" id="g19178"/>
      <g transform="matrix(0.8,0,0,0.8,1,1)" id="g19182">
        <path d="M 0,4 V 0 h 3 v 8 h 9 V 4" style="fill:none;stroke:#b3b3b3;stroke-width:1" id="polyline19180"/>
      </g>
    </g>
  </g>
  <g transform="translate(18,124)" id="g19188"/>
  <g style="font-weight:bold;font-size:8px;font-family:Roboto, sans-serif;letter-spacing:2px;fill:#b3b3b3" id="text19192" aria-label="FM">
    <path id="path19372" style="font-weight:bold;font-size:8px;font-family:Roboto, sans-serif;letter-spacing:2px;fill:#b3b3b3" d="m 19.929687,148.17578 h -2.25 V 150.5 h -1.171875 v -5.6875 h 3.703125 v 0.94922 h -2.53125 v 1.46875 h 2.25 z"/>
    <path id="path19374" style="font-weight:bold;font-size:8px;font-family:Roboto, sans-serif;letter-spacing:2px;fill:#b3b3b3" d="m 24.429687,144.8125 1.460938,4.125 1.453125,-4.125 h 1.539062 V 150.5 h -1.175781 v -1.55469 l 0.117188,-2.68359 -1.535157,4.23828 h -0.804687 l -1.53125,-4.23438 0.117187,2.67969 V 150.5 h -1.171875 v -5.6875 z"/>
  </g>
  <g transform="translate(14.5,160)" id="g19194"/>
  <g transform="translate(2.2,148)" id="g19208">
    <g transform="translate(20,20)" id="g19206">
      <path d="M 0,0 H 4" style="stroke:#b3b3b3;stroke-width:1" transform="rotate(120,-5,2.8867513)" id="polyline19196"/>
      <path d="M 0,-12.5 A 12.5,12.5 0 0 1 12.5,0" stroke-width="0.7" stroke-linecap="round" stroke="#b3b3b3" fill="none" id="path19198"/>
      <path d="M 0,-12.5 A 12.5,12.5 0 0 1 12.5,0" stroke-width="0.7" stroke-linecap="round" stroke="#b3b3b3" fill="none" transform="rotate(43)" id="path19200"/>
      <path d="M 0,-12.5 A 12.5,12.5 0 0 0 -12.5,0" stroke-width="0.7" stroke-linecap="round" stroke="#b3b3b3" fill="none" id="path19202"/>
      <path d="M 0,-12.5 A 12.5,12.5 0 0 0 -12.5,0" stroke-width="0.7" stroke-linecap="round" stroke="#b3b3b3" fill="none" transform="rotate(-43)" id="path19204"/>
    </g>
  </g>
  <g class="io-group" transform="translate(5.5,193)" id="g19228">
    <path class="input-background-filler" d="M 0,0 H 34 V 10 H 0 Z" style="fill:#b3b3b3" transform="translate(0,98)" id="rect19212"/>
    <path class="input-background" d="m 5,0 h 24 c 2.77,0 5,2.23 5,5 v 95 c 0,2.77 -2.23,5 -5,5 H 5 c -2.77,0 -5,-2.23 -5,-5 V 5 C 0,2.23 2.23,0 5,0 Z" style="fill:#b3b3b3" id="rect19214"/>
    <g transform="translate(5,3)" id="g19216"/>
    <g class="input-label" style="font-weight:bold;font-size:6.66667px;font-family:Roboto, sans-serif;letter-spacing:2px;fill:#666666" id="text19218" transform="translate(3.5,35)" aria-label="V/OCT">
      <path id="path19346" style="font-weight:bold;font-size:6.66667px;font-family:Roboto, sans-serif;letter-spacing:2px;fill:#666666" d="M 2.1744802,-1.1751308 3.2486995,-4.7395856 H 4.3359396 L 2.6855482,0 H 1.6666675 L 0.02278647,-4.7395856 H 1.1067714 Z"/>
      <path id="path19348" style="font-weight:bold;font-size:6.66667px;font-family:Roboto, sans-serif;letter-spacing:2px;fill:#666666" d="M 7.0195338,0.40690124 H 6.3196637 L 8.0644562,-4.7395856 h 0.6998701 z"/>
      <path id="path19350" style="font-weight:bold;font-size:6.66667px;font-family:Roboto, sans-serif;letter-spacing:2px;fill:#666666" d="m 15.16537,-2.2623709 q 0,0.6998702 -0.247396,1.2272142 -0.247396,0.52734396 -0.709636,0.81380243 -0.458984,0.28645847 -1.054688,0.28645847 -0.589193,0 -1.051432,-0.28320326 -0.46224,-0.28320326 -0.716147,-0.80729204 -0.253906,-0.527344 -0.257161,-1.2109381 v -0.2343751 q 0,-0.6998701 0.250651,-1.2304693 0.253906,-0.5338545 0.712891,-0.8170577 0.46224,-0.2864585 1.054688,-0.2864585 0.592448,0 1.051433,0.2864585 0.46224,0.2832032 0.712891,0.8170577 0.253906,0.5305992 0.253906,1.2272141 z m -0.989584,-0.2148438 q 0,-0.7454431 -0.266927,-1.1328131 -0.266927,-0.3873699 -0.761719,-0.3873699 -0.491537,0 -0.758464,0.3841147 -0.266927,0.3808596 -0.270182,1.1197922 v 0.2311199 q 0,0.7259118 0.266927,1.1263026 0.266927,0.40039087 0.768229,0.40039087 0.491537,0 0.755209,-0.38411477 0.263672,-0.38737 0.266927,-1.1263026 z"/>
      <path id="path19352" style="font-weight:bold;font-size:6.66667px;font-family:Roboto, sans-serif;letter-spacing:2px;fill:#666666" d="m 21.602222,-1.5787768 q -0.05534,0.76497433 -0.566407,1.20442766 -0.507812,0.43945334 -1.341146,0.43945334 -0.911459,0 -1.435548,-0.61197946 Q 17.738288,-1.1621099 17.738288,-2.233074 v -0.2897137 q 0,-0.683594 0.240885,-1.2044276 0.240886,-0.5208336 0.68685,-0.7975264 0.449219,-0.2799481 1.041667,-0.2799481 0.820313,0 1.321615,0.4394533 0.501302,0.4394534 0.579427,1.2337246 h -0.976563 q -0.03581,-0.4589846 -0.257161,-0.6640628 -0.218099,-0.2083335 -0.667318,-0.2083335 -0.488282,0 -0.732423,0.3515627 -0.240885,0.3483075 -0.247395,1.0839849 v 0.3580731 q 0,0.7682295 0.231119,1.1230474 0.234376,0.35481788 0.735678,0.35481788 0.452474,0 0.673828,-0.20507823 0.22461,-0.20833345 0.257162,-0.64127635 z"/>
      <path id="path19354" style="font-weight:bold;font-size:6.66667px;font-family:Roboto, sans-serif;letter-spacing:2px;fill:#666666" d="M 27.720063,-3.9485696 H 26.268239 V 0 h -0.976563 v -3.9485696 h -1.432292 v -0.791016 h 3.860679 z"/>
    </g>
    <g transform="translate(5,38)" id="g19220"/>
    <g class="input-label" style="font-weight:bold;font-size:6.66667px;font-family:Roboto, sans-serif;letter-spacing:2px;fill:#666666" id="text19222" transform="translate(11,70)" aria-label="FM">
      <path id="path19357" style="font-weight:bold;font-size:6.66667px;font-family:Roboto, sans-serif;letter-spacing:2px;fill:#666666" d="M 3.2747411,-1.9368499 H 1.3997403 V 0 H 0.42317729 V -4.7395856 H 3.5091163 v 0.791016 h -2.109376 v 1.2239589 h 1.8750008 z"/>
      <path id="path19359" style="font-weight:bold;font-size:6.66667px;font-family:Roboto, sans-serif;letter-spacing:2px;fill:#666666" d="M 7.3580755,-4.7395856 8.575524,-1.302084 9.786462,-4.7395856 h 1.282553 V 0 H 10.089197 V -1.2955735 L 10.186853,-3.5319027 8.9075554,0 H 8.2369821 l -1.2760422,-3.5286475 0.097656,2.233074 V 0 h -0.976563 v -4.7395856 z"/>
    </g>
    <g transform="translate(5,73)" id="g19224"/>
    <g class="input-label" style="font-weight:bold;font-size:6.66667px;font-family:Roboto, sans-serif;letter-spacing:2px;fill:#666666" id="text19226" transform="translate(5,105)" aria-label="SYNC">
      <path id="path19362" style="font-weight:bold;font-size:6.66667px;font-family:Roboto, sans-serif;letter-spacing:2px;fill:#666666" d="m 2.8808607,-1.2434902 q 0,-0.2766928 -0.1953125,-0.4231773 Q 2.4902356,-1.8164071 1.9824228,-1.9791676 1.4746101,-2.1451833 1.178386,-2.3046886 0.37109393,-2.7408867 0.37109393,-3.4798194 q 0,-0.3841147 0.21484385,-0.683594 0.21809906,-0.3027346 0.62174512,-0.4720055 0.4069012,-0.1692709 0.9114587,-0.1692709 0.5078128,0 0.9049484,0.185547 0.3971356,0.1822917 0.6152347,0.5175783 0.2213542,0.3352867 0.2213542,0.7617192 H 2.884116 q 0,-0.325521 -0.2050783,-0.5045576 -0.2050782,-0.1822917 -0.5761721,-0.1822917 -0.3580731,0 -0.5566409,0.1529948 -0.1985678,0.1497397 -0.1985678,0.3971356 0,0.2311199 0.2311199,0.38737 0.2343751,0.1562501 0.6868493,0.2929689 0.8333337,0.2506512 1.2141933,0.6217451 0.3808595,0.3710939 0.3808595,0.9244796 0,0.61523467 -0.465495,0.96679734 -0.465495,0.34830746 -1.2532558,0.34830746 -0.5468753,0 -0.9960942,-0.19856781 Q 0.69661492,-0.33528662 0.45898459,-0.68359408 0.22460948,-1.0319015 0.22460948,-1.4908861 H 1.2044277 q 0,0.78450555 0.9375004,0.78450555 0.3483075,0 0.5436201,-0.13997402 0.1953125,-0.14322924 0.1953125,-0.39713563 z"/>
      <path id="path19364" style="font-weight:bold;font-size:6.66667px;font-family:Roboto, sans-serif;letter-spacing:2px;fill:#666666" d="M 8.1588571,-2.6041679 9.1451857,-4.7395856 H 10.212894 L 8.6569042,-1.7187508 V 0 H 7.6640652 V -1.7187508 L 6.1080748,-4.7395856 h 1.0709641 z"/>
      <path id="path19366" style="font-weight:bold;font-size:6.66667px;font-family:Roboto, sans-serif;letter-spacing:2px;fill:#666666" d="M 16.506516,0 H 15.529953 L 13.62891,-3.1184911 V 0 h -0.976563 v -4.7395856 h 0.976563 l 1.904298,3.1250015 v -3.1250015 h 0.973308 z"/>
      <path id="path19368" style="font-weight:bold;font-size:6.66667px;font-family:Roboto, sans-serif;letter-spacing:2px;fill:#666666" d="m 23.086597,-1.5787768 q -0.05534,0.76497433 -0.566407,1.20442766 -0.507812,0.43945334 -1.341146,0.43945334 -0.911459,0 -1.435548,-0.61197946 Q 19.222663,-1.1621099 19.222663,-2.233074 v -0.2897137 q 0,-0.683594 0.240885,-1.2044276 0.240886,-0.5208336 0.68685,-0.7975264 0.449219,-0.2799481 1.041667,-0.2799481 0.820313,0 1.321615,0.4394533 0.501302,0.4394534 0.579427,1.2337246 h -0.976563 q -0.03581,-0.4589846 -0.257161,-0.6640628 -0.218099,-0.2083335 -0.667318,-0.2083335 -0.488282,0 -0.732423,0.3515627 -0.240885,0.3483075 -0.247395,1.0839849 v 0.3580731 q 0,0.7682295 0.231119,1.1230474 0.234376,0.35481788 0.735678,0.35481788 0.452474,0 0.673828,-0.20507823 0.22461,-0.20833345 0.257162,-0.64127635 z"/>
    </g>
  </g>
  <g class="io-group" transform="translate(5.5,304)" id="g19238">
    <path class="output-background-filler" d="M 0,0 H 34 V 10 H 0 Z" style="fill:#888888" transform="translate(0,-3)" id="rect19230"/>
    <path class="output-background" d="m 5,0 h 24 c 2.77,0 5,2.23 5,5 v 25 c 0,2.77 -2.23,5 -5,5 H 5 C 2.23,35 0,32.77 0,30 V 5 C 0,2.23 2.23,0 5,0 Z" style="fill:#888888" id="rect19232"/>
    <g transform="translate(5)" id="g19234"/>
    <g class="output-label" style="font-weight:bold;font-size:6.66667px;font-family:Roboto, sans-serif;letter-spacing:2px;fill:#cccccc" id="text19236" transform="translate(8.3,32)" aria-label="OUT">
      <path id="path19337" style="font-weight:bold;font-size:6.66667px;font-family:Roboto, sans-serif;letter-spacing:2px;fill:#cccccc" d="m 4.3164083,-2.2623709 q 0,0.6998702 -0.2473959,1.2272142 -0.247396,0.52734396 -0.7096358,0.81380243 -0.4589846,0.28645847 -1.054688,0.28645847 -0.589193,0 -1.0514328,-0.28320326 Q 0.791016,-0.50130232 0.53710963,-1.0253911 0.28320326,-1.5527351 0.27994805,-2.2363292 v -0.2343751 q 0,-0.6998701 0.25065116,-1.2304693 0.25390637,-0.5338545 0.71289099,-0.8170577 0.4622398,-0.2864585 1.054688,-0.2864585 0.5924482,0 1.0514328,0.2864585 0.4622398,0.2832032 0.7128909,0.8170577 0.2539064,0.5305992 0.2539064,1.2272141 z M 3.3268245,-2.4772147 q 0,-0.7454431 -0.2669272,-1.1328131 -0.2669272,-0.3873699 -0.7617191,-0.3873699 -0.4915367,0 -0.7584639,0.3841147 -0.2669272,0.3808596 -0.2701824,1.1197922 v 0.2311199 q 0,0.7259118 0.2669272,1.1263026 0.2669272,0.40039087 0.7682295,0.40039087 0.4915367,0 0.7552087,-0.38411477 0.263672,-0.38737 0.2669272,-1.1263026 z"/>
      <path id="path19339" style="font-weight:bold;font-size:6.66667px;font-family:Roboto, sans-serif;letter-spacing:2px;fill:#cccccc" d="m 10.619796,-4.7395856 v 3.1217463 q 0,0.77799515 -0.488282,1.23046932 -0.4850258,0.45247418 -1.3281252,0.45247418 -0.8300785,0 -1.31836,-0.43945334 Q 6.9967474,-0.81380247 6.9869817,-1.582032 v -3.1575536 h 0.976563 v 3.1282567 q 0,0.465495 0.2213543,0.68033887 0.2246095,0.21158865 0.6184898,0.21158865 0.8235681,0 0.836589,-0.86588582 v -3.1542984 z"/>
      <path id="path19341" style="font-weight:bold;font-size:6.66667px;font-family:Roboto, sans-serif;letter-spacing:2px;fill:#cccccc" d="M 16.988288,-3.9485696 H 15.536464 V 0 h -0.976563 v -3.9485696 h -1.432292 v -0.791016 h 3.860679 z"/>
    </g>
  </g>
</svg>
