<?xml version="1.0" encoding="UTF-8" standalone="no"?>
<svg xmlns:dc="http://purl.org/dc/elements/1.1/" xmlns:cc="http://creativecommons.org/ns#" xmlns:rdf="http://www.w3.org/1999/02/22-rdf-syntax-ns#" xmlns:svg="http://www.w3.org/2000/svg" xmlns="http://www.w3.org/2000/svg" xmlns:sodipodi="http://sodipodi.sourceforge.net/DTD/sodipodi-0.dtd" xmlns:inkscape="http://www.inkscape.org/namespaces/inkscape" inkscape:version="1.0 (4035a4f, 2020-05-01)" sodipodi:docname="svg_render_Matrix18-dark-pp.svg" id="svg200" viewBox="0 0 90.0 380.0" height="380.0" width="90.0" version="1.1">
  <metadata id="metadata206">
    <rdf:RDF>
      <cc:Work rdf:about="">
        <dc:format>image/svg+xml</dc:format>
        <dc:type rdf:resource="http://purl.org/dc/dcmitype/StillImage"/>
      </cc:Work>
    </rdf:RDF>
  </metadata>
  <defs id="defs204"/>
  <sodipodi:namedview inkscape:current-layer="svg200" inkscape:window-maximized="0" inkscape:window-y="23" inkscape:window-x="0" inkscape:cy="190" inkscape:cx="45" inkscape:zoom="1.7605263" showgrid="false" id="namedview202" inkscape:window-height="480" inkscape:window-width="689" inkscape:pageshadow="2" inkscape:pageopacity="0" guidetolerance="10" gridtolerance="10" objecttolerance="10" borderopacity="1" bordercolor="#666666" pagecolor="#ffffff"/>
  
  <path class="module-background background-fill" d="M 0,0 H 90 V 380 H 0 Z" style="fill:#111111" id="rect4"/>
  <path class="module-border-inner" d="M 1,1 H 89 V 379 H 1 V 1" style="fill:none;stroke:#191919;stroke-width:0.5" id="polyline6"/>
  <path class="module-border-middle" d="m 0.5,0.5 h 89 v 379 H 0.5 V 0.5" style="fill:none;stroke:#111111;stroke-width:0.8" id="polyline8"/>
  <path class="module-border-outer" d="M 0,0 H 90 V 380 H 0 V 0" style="fill:none;stroke:#000000;stroke-width:1" id="polyline10"/>
  <g class="title" style="font-weight:normal;font-size:12px;font-family:Comfortaa, sans-serif;letter-spacing:0.7px;text-anchor:end;fill:#eeeeee" id="text12" transform="translate(85.0 17)" aria-label="MATRIX18">
    <path id="path333" style="font-weight:normal;font-size:12px;font-family:Comfortaa, sans-serif;letter-spacing:0.7px;text-anchor:end;fill:#eeeeee" d="m -52.768375,-9.372 q 0.192,0 0.324,0.132 0.132,0.132 0.132,0.336 v 8.436 q 0,0.192 -0.132,0.336 -0.132,0.132 -0.324,0.132 -0.204,0 -0.348,-0.132 -0.132,-0.144 -0.132,-0.336 V -7.26 l -3.336,6.816 q -0.144,0.228 -0.408,0.228 -0.3,0 -0.432,-0.288 l -3.324,-6.648 v 6.684 q 0,0.192 -0.132,0.336 -0.132,0.132 -0.336,0.132 -0.192,0 -0.336,-0.132 -0.132,-0.144 -0.132,-0.336 v -8.436 q 0,-0.204 0.132,-0.336 0.144,-0.132 0.336,-0.132 0.276,0 0.42,0.24 l 3.84,7.632 3.768,-7.632 q 0.144,-0.24 0.42,-0.24 z"/>
    <path id="path335" style="font-weight:normal;font-size:12px;font-family:Comfortaa, sans-serif;letter-spacing:0.7px;text-anchor:end;fill:#eeeeee" d="m -42.18675,-0.66 q 0.048,0.084 0.048,0.192 0,0.192 -0.144,0.336 -0.132,0.132 -0.324,0.132 -0.312,0 -0.444,-0.288 l -0.804,-1.944 h -4.644 l -0.804,1.944 q -0.096,0.288 -0.432,0.288 -0.204,0 -0.336,-0.132 -0.12,-0.144 -0.12,-0.336 0,-0.12 0.036,-0.204 l 3.528,-8.376 q 0.132,-0.324 0.456,-0.324 0.324,0 0.444,0.324 z m -1.992,-2.376 -1.992,-4.812 -1.992,4.812 z"/>
    <path id="path337" style="font-weight:normal;font-size:12px;font-family:Comfortaa, sans-serif;letter-spacing:0.7px;text-anchor:end;fill:#eeeeee" d="m -34.994188,-9.372 q 0.192,0 0.312,0.12 0.12,0.12 0.12,0.312 0,0.18 -0.12,0.3 -0.12,0.12 -0.312,0.12 h -2.856 v 8.052 q 0,0.192 -0.132,0.336 -0.132,0.132 -0.336,0.132 -0.192,0 -0.336,-0.132 -0.132,-0.144 -0.132,-0.336 V -8.52 h -2.844 q -0.192,0 -0.312,-0.12 -0.12,-0.12 -0.12,-0.3 0,-0.192 0.12,-0.312 0.12,-0.12 0.312,-0.12 z"/>
    <path id="path339" style="font-weight:normal;font-size:12px;font-family:Comfortaa, sans-serif;letter-spacing:0.7px;text-anchor:end;fill:#eeeeee" d="m -26.634625,-0.72 q 0.108,0.18 0.108,0.324 0,0.18 -0.132,0.288 -0.132,0.108 -0.348,0.108 -0.144,0 -0.24,-0.06 -0.096,-0.06 -0.168,-0.18 l -2.16,-3.432 h -0.204 -1.776 v 3.204 q 0,0.204 -0.132,0.336 -0.132,0.132 -0.336,0.132 -0.204,0 -0.336,-0.132 -0.132,-0.132 -0.132,-0.336 v -8.436 q 0,-0.204 0.132,-0.336 0.132,-0.132 0.336,-0.132 h 2.244 q 0.876,0 1.56,0.372 0.684,0.36 1.068,1.02 0.396,0.66 0.396,1.5 0,0.924 -0.504,1.62 -0.492,0.696 -1.344,0.996 z m -3.144,-3.852 q 0.6,0 1.08,-0.24 0.492,-0.252 0.756,-0.684 0.276,-0.432 0.276,-0.984 0,-0.576 -0.276,-1.032 -0.264,-0.456 -0.744,-0.708 -0.48,-0.252 -1.092,-0.252 h -1.776 v 3.9 z"/>
    <path id="path341" style="font-weight:normal;font-size:12px;font-family:Comfortaa, sans-serif;letter-spacing:0.7px;text-anchor:end;fill:#eeeeee" d="m -23.916376,0 q -0.192,0 -0.336,-0.132 -0.132,-0.144 -0.132,-0.336 v -8.436 q 0,-0.204 0.132,-0.336 0.144,-0.132 0.336,-0.132 0.204,0 0.336,0.132 0.132,0.132 0.132,0.336 v 8.436 q 0,0.192 -0.132,0.336 -0.132,0.132 -0.336,0.132 z"/>
    <path id="path343" style="font-weight:normal;font-size:12px;font-family:Comfortaa, sans-serif;letter-spacing:0.7px;text-anchor:end;fill:#eeeeee" d="m -13.72025,-0.756 q 0.108,0.144 0.108,0.3 0,0.192 -0.12,0.324 -0.12,0.132 -0.324,0.132 -0.24,0 -0.36,-0.168 l -2.868,-3.972 -2.928,3.996 q -0.12,0.144 -0.336,0.144 -0.204,0 -0.324,-0.12 -0.12,-0.132 -0.12,-0.312 0,-0.18 0.108,-0.324 l 2.964,-4.032 -2.772,-3.852 q -0.096,-0.156 -0.096,-0.288 0,-0.18 0.12,-0.312 0.12,-0.132 0.312,-0.132 0.24,0 0.36,0.168 l 2.724,3.768 2.76,-3.768 q 0.132,-0.168 0.36,-0.168 0.192,0 0.312,0.144 0.12,0.132 0.12,0.312 0,0.156 -0.084,0.276 l -2.832,3.84 z"/>
    <path id="path345" style="font-weight:normal;font-size:12px;font-family:Comfortaa, sans-serif;letter-spacing:0.7px;text-anchor:end;fill:#eeeeee" d="m -9.5038742,0 q -0.192,0 -0.336,-0.132 -0.132,-0.144 -0.132,-0.336 v -7.8 l -1.1999998,0.42 q -0.12,0.06 -0.24,0.06 -0.204,0 -0.336,-0.12 -0.132,-0.132 -0.132,-0.336 0,-0.348 0.3,-0.444 l 1.8479998,-0.636 q 0.18,-0.06 0.24,-0.06 0.192,0 0.324,0.132 0.132,0.132 0.132,0.336 v 8.448 q 0,0.192 -0.132,0.336 -0.132,0.132 -0.336,0.132 z"/>
    <path id="path347" style="font-weight:normal;font-size:12px;font-family:Comfortaa, sans-serif;letter-spacing:0.7px;text-anchor:end;fill:#eeeeee" d="m -2.1929984,-5.256 q 0.66,0.348 1.044,0.984 0.38400001,0.624 0.38400001,1.416 0,0.816 -0.37200001,1.476 -0.36,0.66 -1.008,1.044 -0.636,0.384 -1.416,0.384 -0.792,0 -1.44,-0.372 -0.636,-0.384 -1.008,-1.032 -0.36,-0.66 -0.36,-1.464 0,-0.804 0.384,-1.44 0.396,-0.648 1.056,-0.996 -0.444,-0.312 -0.696,-0.792 -0.252,-0.492 -0.252,-1.08 0,-0.636 0.3,-1.152 0.312,-0.528 0.84,-0.816 0.54,-0.3 1.2,-0.3 0.648,0 1.164,0.3 0.528,0.288 0.816,0.804 0.3,0.504 0.3,1.14 0,0.588 -0.252,1.092 -0.252,0.492 -0.684,0.804 z m -2.796,-1.86 q 0,0.624 0.408,1.056 0.408,0.42 1.02,0.42 0.612,0 1.008,-0.432 0.408,-0.444 0.408,-1.092 0,-0.588 -0.408,-0.984 -0.408,-0.396 -1.008,-0.396 -0.612,0 -1.02,0.408 -0.408,0.408 -0.408,1.02 z m 3.288,4.272 q 0,-0.54 -0.252,-0.972 -0.24,-0.432 -0.672,-0.684 -0.42,-0.252 -0.936,-0.252 -0.528,0 -0.96,0.264 -0.432,0.252 -0.672,0.696 -0.24,0.444 -0.24,0.996 0,0.552 0.24,1.02 0.252,0.456 0.672,0.72 0.432,0.264 0.96,0.264 0.528,0 0.948,-0.264 0.432,-0.276 0.672,-0.744 0.24,-0.48 0.24,-1.044 z"/>
  </g>
  <g class="brand" style="font-weight:bold;font-size:8.66667px;font-family:Audiowide, sans-serif;letter-spacing:2px;fill:#eeeeee" id="text14" aria-label="BOGAUDIO">
    <path id="path316" style="font-weight:bold;font-size:8.66667px;font-family:Audiowide, sans-serif;letter-spacing:2px;fill:#eeeeee" d="m 12.194664,372.66699 q 0,0.20313 -0.07194,0.43587 -0.06771,0.23275 -0.228516,0.43165 -0.156576,0.19889 -0.410482,0.33431 Q 11.22982,374 10.861656,374 H 6.6848963 q -0.1184897,0 -0.2200522,-0.0423 -0.1015625,-0.0423 -0.1777344,-0.11426 -0.07194,-0.0762 -0.1142579,-0.17773 -0.042318,-0.10156 -0.042318,-0.22005 V 368.486 q 0,-0.11426 0.042318,-0.21582 0.042318,-0.10156 0.1142579,-0.17773 0.076172,-0.0762 0.1777344,-0.11849 0.1015625,-0.0423 0.2200522,-0.0423 h 3.6816417 q 0.203125,0 0.435873,0.0719 0.232747,0.0719 0.431641,0.23275 0.203125,0.15657 0.33431,0.41048 0.135416,0.2539 0.135416,0.62207 v 0.20736 q 0,0.29199 -0.09733,0.63053 -0.09733,0.33431 -0.313152,0.63477 0.186198,0.11425 0.347006,0.27506 0.165039,0.16081 0.28776,0.3724 0.122722,0.21159 0.194662,0.47819 0.07194,0.2666 0.07194,0.58821 z m -1.100261,-0.21159 q 0,-0.21582 -0.06771,-0.38509 -0.06771,-0.1735 -0.19043,-0.29622 -0.122721,-0.12272 -0.296224,-0.1862 -0.173503,-0.0677 -0.389323,-0.0677 H 7.6708992 v -1.10872 h 1.9847013 q 0.2158204,0 0.3893235,-0.0635 0.173502,-0.0677 0.296224,-0.19043 0.122721,-0.12272 0.186198,-0.29199 0.06771,-0.1735 0.06771,-0.38932 v -0.20736 q 0,-0.23698 -0.228516,-0.23698 H 7.2307949 v 3.86784 h 3.6308611 q 0.02962,0 0.07194,-0.004 0.04232,-0.004 0.07617,-0.0254 0.03385,-0.0212 0.05924,-0.0719 0.02539,-0.0508 0.02539,-0.13965 z"/>
    <path id="path318" style="font-weight:bold;font-size:8.66667px;font-family:Audiowide, sans-serif;letter-spacing:2px;fill:#eeeeee" d="m 21.515629,371.54557 q 0,0.55436 -0.190429,1.01986 -0.19043,0.46549 -0.528972,0.80404 -0.338542,0.33854 -0.804037,0.52897 -0.461263,0.1862 -1.007161,0.1862 h -1.489584 q -0.545899,0 -1.011394,-0.1862 -0.465495,-0.19043 -0.804037,-0.52897 -0.338541,-0.33855 -0.533203,-0.80404 -0.19043,-0.4655 -0.19043,-1.01986 v -1.1595 q 0,-0.55013 0.19043,-1.01563 0.194662,-0.46973 0.533203,-0.80404 0.338542,-0.33854 0.804037,-0.52897 0.465495,-0.19043 1.011394,-0.19043 h 1.489584 q 0.545898,0 1.007161,0.19043 0.465495,0.19043 0.804037,0.52897 0.338542,0.33431 0.528972,0.80404 0.190429,0.4655 0.190429,1.01563 z m -1.10026,-1.1595 q 0,-0.32585 -0.105795,-0.58822 -0.101562,-0.2666 -0.291992,-0.4528 -0.186198,-0.19043 -0.4528,-0.29199 -0.262369,-0.1058 -0.579752,-0.1058 h -1.489584 q -0.321615,0 -0.588217,0.1058 -0.26237,0.10156 -0.452799,0.29199 -0.19043,0.1862 -0.296224,0.4528 -0.101563,0.26237 -0.101563,0.58822 v 1.1595 q 0,0.32585 0.101563,0.59245 0.105794,0.26237 0.296224,0.4528 0.190429,0.1862 0.452799,0.29199 0.266602,0.10156 0.588217,0.10156 h 1.48112 q 0.321615,0 0.583985,-0.10156 0.266601,-0.10579 0.457031,-0.29199 0.19043,-0.19043 0.291992,-0.4528 0.105795,-0.2666 0.105795,-0.59245 z"/>
    <path id="path320" style="font-weight:bold;font-size:8.66667px;font-family:Audiowide, sans-serif;letter-spacing:2px;fill:#eeeeee" d="m 30.599618,373.44564 q 0,0.11849 -0.04232,0.22005 -0.04232,0.10156 -0.11849,0.17773 -0.07194,0.0719 -0.173502,0.11426 Q 30.163745,374 30.045255,374 h -3.969402 q -0.152344,0 -0.330078,-0.0338 -0.173503,-0.0381 -0.347006,-0.11426 -0.169271,-0.0762 -0.325846,-0.19466 -0.156576,-0.12272 -0.279297,-0.292 -0.11849,-0.1735 -0.19043,-0.39778 -0.07194,-0.22852 -0.07194,-0.51205 v -2.97916 q 0,-0.15235 0.03385,-0.32585 0.03809,-0.17774 0.114258,-0.34701 0.07617,-0.1735 0.198893,-0.33007 0.122722,-0.15658 0.291993,-0.27507 0.173502,-0.12272 0.397786,-0.19466 0.224284,-0.0719 0.507813,-0.0719 h 4.472983 v 1.10026 h -4.472983 q -0.215821,0 -0.330078,0.11426 -0.114258,0.11425 -0.114258,0.33854 v 2.9707 q 0,0.21159 0.114258,0.33008 0.118489,0.11426 0.330078,0.11426 h 3.423504 v -1.37956 H 26.57097 v -1.10872 h 3.474285 q 0.11849,0 0.220053,0.0466 0.101562,0.0423 0.173502,0.11849 0.07617,0.0762 0.11849,0.17773 0.04232,0.0973 0.04232,0.21159 z"/>
    <path id="path322" style="font-weight:bold;font-size:8.66667px;font-family:Audiowide, sans-serif;letter-spacing:2px;fill:#eeeeee" d="m 39.708996,374 h -1.100261 v -1.48958 h -3.86784 V 374 h -1.100261 v -3.03418 q 0,-0.66439 0.228516,-1.22298 0.228516,-0.5586 0.634766,-0.96062 0.40625,-0.40201 0.960612,-0.6263 0.554362,-0.22428 1.210287,-0.22428 h 2.479819 q 0.114257,0 0.21582,0.0423 0.101562,0.0423 0.177734,0.11849 0.07617,0.0762 0.11849,0.17773 0.04232,0.10156 0.04232,0.21582 z m -4.968101,-2.58984 h 3.86784 v -2.37826 h -1.93392 q -0.05078,0 -0.21582,0.0169 -0.160808,0.0127 -0.376628,0.0719 -0.211589,0.0592 -0.448568,0.18196 -0.236979,0.12272 -0.435873,0.33854 -0.198893,0.21582 -0.330078,0.54167 -0.126953,0.32162 -0.126953,0.78288 z"/>
    <path id="path324" style="font-weight:bold;font-size:8.66667px;font-family:Audiowide, sans-serif;letter-spacing:2px;fill:#eeeeee" d="m 48.928399,373.44564 q 0,0.11849 -0.04232,0.22005 -0.04232,0.10156 -0.11849,0.17773 -0.07617,0.0719 -0.177735,0.11426 Q 48.488295,374 48.374037,374 h -2.479819 q -0.351237,0 -0.710937,-0.0762 -0.359701,-0.0762 -0.698243,-0.23275 -0.33431,-0.16081 -0.630534,-0.40625 -0.296224,-0.24544 -0.520508,-0.57975 -0.220052,-0.33854 -0.347005,-0.77018 -0.126953,-0.43588 -0.126953,-0.96908 v -3.03418 h 1.10026 v 3.03418 q 0,0.46549 0.126954,0.78711 0.131185,0.32161 0.330078,0.53743 0.198893,0.21582 0.435872,0.33855 0.23698,0.12272 0.448568,0.18196 0.215821,0.0592 0.376628,0.0762 0.165039,0.0127 0.21582,0.0127 h 1.93392 v -4.9681 h 1.100261 z"/>
    <path id="path326" style="font-weight:bold;font-size:8.66667px;font-family:Audiowide, sans-serif;letter-spacing:2px;fill:#eeeeee" d="m 58.266292,371.46094 q 0,0.55436 -0.194661,1.01985 -0.19043,0.4655 -0.528972,0.80404 -0.338541,0.33431 -0.804036,0.52474 Q 56.273128,374 55.727229,374 h -2.970704 q -0.11849,0 -0.220052,-0.0423 -0.101563,-0.0423 -0.177735,-0.11426 -0.07194,-0.0762 -0.114258,-0.17773 -0.04232,-0.10156 -0.04232,-0.22005 V 368.486 q 0,-0.11426 0.04232,-0.21582 0.04232,-0.10156 0.114258,-0.17773 0.07617,-0.0762 0.177735,-0.11849 0.101562,-0.0423 0.220052,-0.0423 h 2.970704 q 0.545899,0 1.011394,0.19043 0.465495,0.19043 0.804036,0.52897 0.338542,0.33431 0.528972,0.80404 0.194661,0.46549 0.194661,1.01562 z m -1.10026,-0.99024 q 0,-0.32161 -0.105795,-0.58821 -0.101562,-0.26661 -0.291992,-0.4528 -0.19043,-0.19043 -0.457031,-0.292 -0.26237,-0.10579 -0.583985,-0.10579 h -2.424806 v 3.86784 h 2.424806 q 0.321615,0 0.583985,-0.10156 0.266601,-0.1058 0.457031,-0.292 0.19043,-0.19043 0.291992,-0.4528 0.105795,-0.2666 0.105795,-0.59244 z"/>
    <path id="path328" style="font-weight:bold;font-size:8.66667px;font-family:Audiowide, sans-serif;letter-spacing:2px;fill:#eeeeee" d="M 62.462581,374 H 61.36232 v -6.06836 h 1.100261 z"/>
    <path id="path330" style="font-weight:bold;font-size:8.66667px;font-family:Audiowide, sans-serif;letter-spacing:2px;fill:#eeeeee" d="m 72.126322,371.54557 q 0,0.55436 -0.190429,1.01986 -0.19043,0.46549 -0.528972,0.80404 -0.338542,0.33854 -0.804037,0.52897 -0.461263,0.1862 -1.007161,0.1862 h -1.489584 q -0.545899,0 -1.011394,-0.1862 -0.465495,-0.19043 -0.804037,-0.52897 -0.338541,-0.33855 -0.533203,-0.80404 -0.19043,-0.4655 -0.19043,-1.01986 v -1.1595 q 0,-0.55013 0.19043,-1.01563 0.194662,-0.46973 0.533203,-0.80404 0.338542,-0.33854 0.804037,-0.52897 0.465495,-0.19043 1.011394,-0.19043 h 1.489584 q 0.545898,0 1.007161,0.19043 0.465495,0.19043 0.804037,0.52897 0.338542,0.33431 0.528972,0.80404 0.190429,0.4655 0.190429,1.01563 z m -1.10026,-1.1595 q 0,-0.32585 -0.105795,-0.58822 -0.101562,-0.2666 -0.291992,-0.4528 -0.186198,-0.19043 -0.4528,-0.29199 -0.26237,-0.1058 -0.579752,-0.1058 h -1.489584 q -0.321615,0 -0.588217,0.1058 -0.26237,0.10156 -0.452799,0.29199 -0.19043,0.1862 -0.296224,0.4528 -0.101563,0.26237 -0.101563,0.58822 v 1.1595 q 0,0.32585 0.101563,0.59245 0.105794,0.26237 0.296224,0.4528 0.190429,0.1862 0.452799,0.29199 0.266602,0.10156 0.588217,0.10156 h 1.48112 q 0.321615,0 0.583985,-0.10156 0.266601,-0.10579 0.457031,-0.29199 0.19043,-0.19043 0.291992,-0.4528 0.105795,-0.2666 0.105795,-0.59245 z"/>
  </g>
  <path class="background-fill" d="M 26.5,370 H 28 v 2 h -1.5 z" style="fill:#111111" id="rect16"/>
  <g transform="translate(11,24)" id="g36">
    <g transform="translate(3.5,8)" id="g20"/>
    <g transform="translate(-6.5,-2)" id="g34">
      <g transform="translate(20,20)" id="g32">
        <path d="M 0,0 H 4" style="stroke:#cccccc;stroke-width:1" transform="rotate(-90,-5.75,-5.75)" id="polyline22"/>
        <path d="M 0,-13.5 A 13.5,13.5 0 0 1 13.5,0" stroke-width="0.7" stroke-linecap="round" stroke="#ccc" fill="none" transform="rotate(20)" id="path24"/>
        <path d="M 0,-13.5 A 13.5,13.5 0 0 1 13.5,0" stroke-width="0.7" stroke-linecap="round" stroke="#ccc" fill="none" transform="rotate(43)" id="path26"/>
        <path d="M 0,-13.5 A 13.5,13.5 0 0 0 -13.5,0" stroke-width="0.7" stroke-linecap="round" stroke="#ccc" fill="none" transform="rotate(-20)" id="path28"/>
        <path d="M 0,-13.5 A 13.5,13.5 0 0 0 -13.5,0" stroke-width="0.7" stroke-linecap="round" stroke="#ccc" fill="none" transform="rotate(-43)" id="path30"/>
      </g>
    </g>
  </g>
  <g transform="translate(11,61)" id="g54">
    <g transform="translate(3.5,8)" id="g38"/>
    <g transform="translate(-6.5,-2)" id="g52">
      <g transform="translate(20,20)" id="g50">
        <path d="M 0,0 H 4" style="stroke:#cccccc;stroke-width:1" transform="rotate(-90,-5.75,-5.75)" id="polyline40"/>
        <path d="M 0,-13.5 A 13.5,13.5 0 0 1 13.5,0" stroke-width="0.7" stroke-linecap="round" stroke="#ccc" fill="none" transform="rotate(20)" id="path42"/>
        <path d="M 0,-13.5 A 13.5,13.5 0 0 1 13.5,0" stroke-width="0.7" stroke-linecap="round" stroke="#ccc" fill="none" transform="rotate(43)" id="path44"/>
        <path d="M 0,-13.5 A 13.5,13.5 0 0 0 -13.5,0" stroke-width="0.7" stroke-linecap="round" stroke="#ccc" fill="none" transform="rotate(-20)" id="path46"/>
        <path d="M 0,-13.5 A 13.5,13.5 0 0 0 -13.5,0" stroke-width="0.7" stroke-linecap="round" stroke="#ccc" fill="none" transform="rotate(-43)" id="path48"/>
      </g>
    </g>
  </g>
  <g transform="translate(11,98)" id="g72">
    <g transform="translate(3.5,8)" id="g56"/>
    <g transform="translate(-6.5,-2)" id="g70">
      <g transform="translate(20,20)" id="g68">
        <path d="M 0,0 H 4" style="stroke:#cccccc;stroke-width:1" transform="rotate(-90,-5.75,-5.75)" id="polyline58"/>
        <path d="M 0,-13.5 A 13.5,13.5 0 0 1 13.5,0" stroke-width="0.7" stroke-linecap="round" stroke="#ccc" fill="none" transform="rotate(20)" id="path60"/>
        <path d="M 0,-13.5 A 13.5,13.5 0 0 1 13.5,0" stroke-width="0.7" stroke-linecap="round" stroke="#ccc" fill="none" transform="rotate(43)" id="path62"/>
        <path d="M 0,-13.5 A 13.5,13.5 0 0 0 -13.5,0" stroke-width="0.7" stroke-linecap="round" stroke="#ccc" fill="none" transform="rotate(-20)" id="path64"/>
        <path d="M 0,-13.5 A 13.5,13.5 0 0 0 -13.5,0" stroke-width="0.7" stroke-linecap="round" stroke="#ccc" fill="none" transform="rotate(-43)" id="path66"/>
      </g>
    </g>
  </g>
  <g transform="translate(11,135)" id="g90">
    <g transform="translate(3.5,8)" id="g74"/>
    <g transform="translate(-6.5,-2)" id="g88">
      <g transform="translate(20,20)" id="g86">
        <path d="M 0,0 H 4" style="stroke:#cccccc;stroke-width:1" transform="rotate(-90,-5.75,-5.75)" id="polyline76"/>
        <path d="M 0,-13.5 A 13.5,13.5 0 0 1 13.5,0" stroke-width="0.7" stroke-linecap="round" stroke="#ccc" fill="none" transform="rotate(20)" id="path78"/>
        <path d="M 0,-13.5 A 13.5,13.5 0 0 1 13.5,0" stroke-width="0.7" stroke-linecap="round" stroke="#ccc" fill="none" transform="rotate(43)" id="path80"/>
        <path d="M 0,-13.5 A 13.5,13.5 0 0 0 -13.5,0" stroke-width="0.7" stroke-linecap="round" stroke="#ccc" fill="none" transform="rotate(-20)" id="path82"/>
        <path d="M 0,-13.5 A 13.5,13.5 0 0 0 -13.5,0" stroke-width="0.7" stroke-linecap="round" stroke="#ccc" fill="none" transform="rotate(-43)" id="path84"/>
      </g>
    </g>
  </g>
  <g transform="translate(11,172)" id="g108">
    <g transform="translate(3.5,8)" id="g92"/>
    <g transform="translate(-6.5,-2)" id="g106">
      <g transform="translate(20,20)" id="g104">
        <path d="M 0,0 H 4" style="stroke:#cccccc;stroke-width:1" transform="rotate(-90,-5.75,-5.75)" id="polyline94"/>
        <path d="M 0,-13.5 A 13.5,13.5 0 0 1 13.5,0" stroke-width="0.7" stroke-linecap="round" stroke="#ccc" fill="none" transform="rotate(20)" id="path96"/>
        <path d="M 0,-13.5 A 13.5,13.5 0 0 1 13.5,0" stroke-width="0.7" stroke-linecap="round" stroke="#ccc" fill="none" transform="rotate(43)" id="path98"/>
        <path d="M 0,-13.5 A 13.5,13.5 0 0 0 -13.5,0" stroke-width="0.7" stroke-linecap="round" stroke="#ccc" fill="none" transform="rotate(-20)" id="path100"/>
        <path d="M 0,-13.5 A 13.5,13.5 0 0 0 -13.5,0" stroke-width="0.7" stroke-linecap="round" stroke="#ccc" fill="none" transform="rotate(-43)" id="path102"/>
      </g>
    </g>
  </g>
  <g transform="translate(11,209)" id="g126">
    <g transform="translate(3.5,8)" id="g110"/>
    <g transform="translate(-6.5,-2)" id="g124">
      <g transform="translate(20,20)" id="g122">
        <path d="M 0,0 H 4" style="stroke:#cccccc;stroke-width:1" transform="rotate(-90,-5.75,-5.75)" id="polyline112"/>
        <path d="M 0,-13.5 A 13.5,13.5 0 0 1 13.5,0" stroke-width="0.7" stroke-linecap="round" stroke="#ccc" fill="none" transform="rotate(20)" id="path114"/>
        <path d="M 0,-13.5 A 13.5,13.5 0 0 1 13.5,0" stroke-width="0.7" stroke-linecap="round" stroke="#ccc" fill="none" transform="rotate(43)" id="path116"/>
        <path d="M 0,-13.5 A 13.5,13.5 0 0 0 -13.5,0" stroke-width="0.7" stroke-linecap="round" stroke="#ccc" fill="none" transform="rotate(-20)" id="path118"/>
        <path d="M 0,-13.5 A 13.5,13.5 0 0 0 -13.5,0" stroke-width="0.7" stroke-linecap="round" stroke="#ccc" fill="none" transform="rotate(-43)" id="path120"/>
      </g>
    </g>
  </g>
  <g transform="translate(11,246)" id="g144">
    <g transform="translate(3.5,8)" id="g128"/>
    <g transform="translate(-6.5,-2)" id="g142">
      <g transform="translate(20,20)" id="g140">
        <path d="M 0,0 H 4" style="stroke:#cccccc;stroke-width:1" transform="rotate(-90,-5.75,-5.75)" id="polyline130"/>
        <path d="M 0,-13.5 A 13.5,13.5 0 0 1 13.5,0" stroke-width="0.7" stroke-linecap="round" stroke="#ccc" fill="none" transform="rotate(20)" id="path132"/>
        <path d="M 0,-13.5 A 13.5,13.5 0 0 1 13.5,0" stroke-width="0.7" stroke-linecap="round" stroke="#ccc" fill="none" transform="rotate(43)" id="path134"/>
        <path d="M 0,-13.5 A 13.5,13.5 0 0 0 -13.5,0" stroke-width="0.7" stroke-linecap="round" stroke="#ccc" fill="none" transform="rotate(-20)" id="path136"/>
        <path d="M 0,-13.5 A 13.5,13.5 0 0 0 -13.5,0" stroke-width="0.7" stroke-linecap="round" stroke="#ccc" fill="none" transform="rotate(-43)" id="path138"/>
      </g>
    </g>
  </g>
  <g transform="translate(11,283)" id="g162">
    <g transform="translate(3.5,8)" id="g146"/>
    <g transform="translate(-6.5,-2)" id="g160">
      <g transform="translate(20,20)" id="g158">
        <path d="M 0,0 H 4" style="stroke:#cccccc;stroke-width:1" transform="rotate(-90,-5.75,-5.75)" id="polyline148"/>
        <path d="M 0,-13.5 A 13.5,13.5 0 0 1 13.5,0" stroke-width="0.7" stroke-linecap="round" stroke="#ccc" fill="none" transform="rotate(20)" id="path150"/>
        <path d="M 0,-13.5 A 13.5,13.5 0 0 1 13.5,0" stroke-width="0.7" stroke-linecap="round" stroke="#ccc" fill="none" transform="rotate(43)" id="path152"/>
        <path d="M 0,-13.5 A 13.5,13.5 0 0 0 -13.5,0" stroke-width="0.7" stroke-linecap="round" stroke="#ccc" fill="none" transform="rotate(-20)" id="path154"/>
        <path d="M 0,-13.5 A 13.5,13.5 0 0 0 -13.5,0" stroke-width="0.7" stroke-linecap="round" stroke="#ccc" fill="none" transform="rotate(-43)" id="path156"/>
      </g>
    </g>
  </g>
  <g class="io-group" transform="translate(48.5,25)" id="g186">
    <path class="output-background-filler" d="M 0,0 H 34 V 10 H 0 Z" style="fill:#666666" transform="translate(0,283)" id="rect166"/>
    <path class="output-background" d="m 5,0 h 24 c 2.77,0 5,2.23 5,5 v 283 c 0,2.77 -2.23,5 -5,5 H 5 c -2.77,0 -5,-2.23 -5,-5 V 5 C 0,2.23 2.23,0 5,0 Z" style="fill:#666666" id="rect168"/>
    <g transform="translate(5,5)" id="g170"/>
    <g transform="translate(5,42)" id="g172"/>
    <g transform="translate(5,79)" id="g174"/>
    <g transform="translate(5,116)" id="g176"/>
    <g transform="translate(5,153)" id="g178"/>
    <g transform="translate(5,190)" id="g180"/>
    <g transform="translate(5,227)" id="g182"/>
    <g transform="translate(5,264)" id="g184"/>
  </g>
  <g class="io-group" transform="translate(48.5,320)" id="g196">
    <path class="input-background-filler" d="M 0,0 H 34 V 10 H 0 Z" style="fill:#aaaaaa" transform="translate(0,-3)" id="rect188"/>
    <path class="input-background" d="m 5,0 h 24 c 2.77,0 5,2.23 5,5 v 28 c 0,2.77 -2.23,5 -5,5 H 5 C 2.23,38 0,35.77 0,33 V 5 C 0,2.23 2.23,0 5,0 Z" style="fill:#aaaaaa" id="rect190"/>
    <g transform="translate(5,1)" id="g192"/>
    <g class="input-label" style="font-weight:bold;font-size:6.66667px;font-family:Roboto, sans-serif;letter-spacing:2px;text-anchor:middle;fill:#222222" id="text194" transform="translate(17,33)" aria-label="IN">
      <path id="path300" style="font-weight:bold;font-size:6.66667px;font-family:Roboto, sans-serif;letter-spacing:2px;text-anchor:middle;fill:#222222" d="m -2.8652353,0 h -0.9765629 v -4.7395856 h 0.9765629 z"/>
      <path id="path302" style="font-weight:bold;font-size:6.66667px;font-family:Roboto, sans-serif;letter-spacing:2px;text-anchor:middle;fill:#222222" d="M 3.8906262,0 H 2.9140633 L 1.0130207,-3.1184911 V 0 H 0.03645774 V -4.7395856 H 1.0130207 l 1.9042978,3.1250015 v -3.1250015 h 0.9733077 z"/>
    </g>
  </g>
</svg>
