<?xml version="1.0" encoding="UTF-8" standalone="no"?>
<svg
   xmlns:dc="http://purl.org/dc/elements/1.1/"
   xmlns:cc="http://creativecommons.org/ns#"
   xmlns:rdf="http://www.w3.org/1999/02/22-rdf-syntax-ns#"
   xmlns:svg="http://www.w3.org/2000/svg"
   xmlns="http://www.w3.org/2000/svg"
   xmlns:sodipodi="http://sodipodi.sourceforge.net/DTD/sodipodi-0.dtd"
   xmlns:inkscape="http://www.inkscape.org/namespaces/inkscape"
   version="1.1"
   width="150"
   height="380"
   viewBox="0 0 150 380"
   id="svg196"
   sodipodi:docname="svg_render_tmp.svg"
   inkscape:version="0.92.2 5c3e80d, 2017-08-06">
  <metadata
     id="metadata200">
    <rdf:RDF>
      <cc:Work
         rdf:about="">
        <dc:format>image/svg+xml</dc:format>
        <dc:type
           rdf:resource="http://purl.org/dc/dcmitype/StillImage" />
      </cc:Work>
    </rdf:RDF>
  </metadata>
  <sodipodi:namedview
     pagecolor="#ffffff"
     bordercolor="#666666"
     borderopacity="1"
     objecttolerance="10"
     gridtolerance="10"
     guidetolerance="10"
     inkscape:pageopacity="0"
     inkscape:pageshadow="2"
     inkscape:window-width="468"
     inkscape:window-height="449"
     id="namedview198"
     showgrid="false"
     inkscape:zoom="0.62105263"
     inkscape:cx="75"
     inkscape:cy="190"
     inkscape:window-x="0"
     inkscape:window-y="0"
     inkscape:window-maximized="0"
     inkscape:current-layer="svg196" />
  <style
     id="style2">
    text {
      fill: #333;
      font-family: 'Roboto', sans-serif;
      font-weight: bold;
    }
    text.title {
      font-family: 'Comfortaa', sans-serif;
      font-weight: normal;
    }
    text.brand {
      font-family: 'Audiowide', sans-serif;
      font-weight: bold;
    }
  </style>
  <defs
     id="defs40">
    <symbol
       id="knob19"
       viewBox="0 0 20px 20px">
      <g
         transform="translate(10 10)"
         id="g10">
        <polyline
           points="-3,0 3,0"
           stroke-width="1"
           stroke="#00f"
           id="polyline4" />
        <polyline
           points="0,-3 0,3"
           stroke-width="1"
           stroke="#00f"
           id="polyline6" />
        <circle
           cx="0"
           cy="0"
           r="9.3"
           stroke-width="1"
           stroke="#00f"
           fill="none"
           id="circle8" />
      </g>
    </symbol>
    <symbol
       id="knobguide-centertick19"
       viewBox="0 0 40px 40px">
      <g
         transform="translate(20 20)"
         id="g23">
        <polyline
           points="0,0 4,0"
           stroke-width="1"
           stroke="#333"
           transform="rotate(-90) translate(11.5 0)"
           id="polyline13" />
        <path
           d="M 0 -13.5 A 13.5 13.5 0 0 1 13.5 0"
           stroke="#333"
           stroke-width="0.5"
           stroke-linecap="round"
           fill="none"
           transform="rotate(20)"
           id="path15" />
        <path
           d="M 0 -13.5 A 13.5 13.5 0 0 1 13.5 0"
           stroke="#333"
           stroke-width="0.5"
           stroke-linecap="round"
           fill="none"
           transform="rotate(43)"
           id="path17" />
        <path
           d="M 0 -13.5 A 13.5 13.5 0 0 0 -13.5 0"
           stroke="#333"
           stroke-width="0.5"
           stroke-linecap="round"
           fill="none"
           transform="rotate(-20)"
           id="path19" />
        <path
           d="M 0 -13.5 A 13.5 13.5 0 0 0 -13.5 0"
           stroke="#333"
           stroke-width="0.5"
           stroke-linecap="round"
           fill="none"
           transform="rotate(-43)"
           id="path21" />
      </g>
    </symbol>
    <symbol
       id="input"
       viewBox="0 0 24px 24px">
      <g
         transform="translate(12 12)"
         id="g30">
        <circle
           cx="0"
           cy="0"
           r="5"
           stroke-width="1"
           stroke="#0f0"
           fill="#0f0"
           id="circle26" />
        <circle
           cx="0"
           cy="0"
           r="10.5"
           stroke-width="3"
           stroke="#0f0"
           fill="none"
           id="circle28" />
      </g>
    </symbol>
    <symbol
       id="output"
       viewBox="0 0 24px 24px">
      <g
         transform="translate(12 12)"
         id="g37">
        <circle
           cx="0"
           cy="0"
           r="5"
           stroke-width="1"
           stroke="#f00"
           fill="#f00"
           id="circle33" />
        <circle
           cx="0"
           cy="0"
           r="10.5"
           stroke-width="3"
           stroke="#f00"
           fill="none"
           id="circle35" />
      </g>
    </symbol>
  </defs>
  <path
     style="fill:#dddddd"
     d="M 0,0 H 150 V 380 H 0 Z"
     id="rect42" />
  <path
     style="fill:none;stroke:#e4e4e4;stroke-width:0.5"
     d="M 1,1 H 149 V 379 H 1 V 1"
     id="polyline44" />
  <path
     style="fill:none;stroke:#ebebeb;stroke-width:0.80000001"
     d="m 0.5,0.5 h 149 v 379 H 0.5 V 0.5"
     id="polyline46" />
  <path
     style="fill:none;stroke:#f2f2f2;stroke-width:1"
     d="M 0,0 H 150 V 380 H 0 V 0"
     id="polyline48" />
  <!-- <rect width="150" height="24" fill="#0f0" transform="translate(0 0)" /> -->
  <!-- <rect width="150" height="22" fill="#0f0" transform="translate(0 22)" /> -->
  <!-- <rect width="150" height="22" fill="#0f0" transform="translate(0 78)" /> -->
  <!-- <rect width="150" height="22" fill="#0f0" transform="translate(0 134)" /> -->
  <!-- <rect width="150" height="22" fill="#0f0" transform="translate(0 190)" /> -->
  <!-- <rect width="150" height="22" fill="#0f0" transform="translate(0 245)" /> -->
  <g
     aria-label="MATRIX44"
     style="font-weight:normal;font-size:16px;font-family:Comfortaa, sans-serif;letter-spacing:4px;fill:#333333"
     id="text50">
    <path
       d="m 32.488,6.504 q 0.256,0 0.432,0.176 0.176,0.176 0.176,0.448 v 11.248 q 0,0.256 -0.176,0.448 Q 32.744,19 32.488,19 32.216,19 32.024,18.824 31.848,18.632 31.848,18.376 V 9.32 L 27.4,18.408 q -0.192,0.304 -0.544,0.304 -0.4,0 -0.576,-0.384 L 21.848,9.464 v 8.912 q 0,0.256 -0.176,0.448 Q 21.496,19 21.224,19 20.968,19 20.776,18.824 20.6,18.632 20.6,18.376 V 7.128 q 0,-0.272 0.176,-0.448 0.192,-0.176 0.448,-0.176 0.368,0 0.56,0.32 L 26.904,17 31.928,6.824 q 0.192,-0.32 0.56,-0.32 z"
       style="font-weight:normal;font-size:16px;font-family:Comfortaa, sans-serif;letter-spacing:4px;fill:#333333"
       id="path484" />
    <path
       d="m 49.6635,18.12 q 0.064,0.112 0.064,0.256 0,0.256 -0.192,0.448 -0.176,0.176 -0.432,0.176 -0.416,0 -0.592,-0.384 l -1.072,-2.592 h -6.192 l -1.072,2.592 Q 40.0475,19 39.5995,19 q -0.272,0 -0.448,-0.176 -0.16,-0.192 -0.16,-0.448 0,-0.16 0.048,-0.272 l 4.704,-11.168 q 0.176,-0.432 0.608,-0.432 0.432,0 0.592,0.432 z m -2.656,-3.168 -2.656,-6.416 -2.656,6.416 z"
       style="font-weight:normal;font-size:16px;font-family:Comfortaa, sans-serif;letter-spacing:4px;fill:#333333"
       id="path486" />
    <path
       d="m 62.32025,6.504 q 0.256,0 0.416,0.16 0.16,0.16 0.16,0.416 0,0.24 -0.16,0.4 -0.16,0.16 -0.416,0.16 h -3.808 v 10.736 q 0,0.256 -0.176,0.448 -0.176,0.176 -0.448,0.176 -0.256,0 -0.448,-0.176 -0.176,-0.192 -0.176,-0.448 V 7.64 h -3.792 q -0.256,0 -0.416,-0.16 -0.16,-0.16 -0.16,-0.4 0,-0.256 0.16,-0.416 0.16,-0.16 0.416,-0.16 z"
       style="font-weight:normal;font-size:16px;font-family:Comfortaa, sans-serif;letter-spacing:4px;fill:#333333"
       id="path488" />
    <path
       d="m 76.533,18.04 q 0.144,0.24 0.144,0.432 0,0.24 -0.176,0.384 Q 76.325,19 76.037,19 q -0.192,0 -0.32,-0.08 -0.128,-0.08 -0.224,-0.24 l -2.88,-4.576 h -0.272 -2.368 v 4.272 q 0,0.272 -0.176,0.448 Q 69.621,19 69.349,19 69.077,19 68.901,18.824 68.725,18.648 68.725,18.376 V 7.128 q 0,-0.272 0.176,-0.448 0.176,-0.176 0.448,-0.176 h 2.992 q 1.168,0 2.08,0.496 0.912,0.48 1.424,1.36 0.528,0.88 0.528,2 0,1.232 -0.672,2.16 -0.656,0.928 -1.792,1.328 z m -4.192,-5.136 q 0.8,0 1.44,-0.32 0.656,-0.336 1.008,-0.912 0.368,-0.576 0.368,-1.312 0,-0.768 -0.368,-1.376 Q 74.437,8.376 73.797,8.04 73.157,7.704 72.341,7.704 h -2.368 v 5.2 z"
       style="font-weight:normal;font-size:16px;font-family:Comfortaa, sans-serif;letter-spacing:4px;fill:#333333"
       id="path490" />
    <path
       d="M 83.224,19 Q 82.968,19 82.776,18.824 82.6,18.632 82.6,18.376 V 7.128 q 0,-0.272 0.176,-0.448 0.192,-0.176 0.448,-0.176 0.272,0 0.448,0.176 0.176,0.176 0.176,0.448 v 11.248 q 0,0.256 -0.176,0.448 Q 83.496,19 83.224,19 Z"
       style="font-weight:normal;font-size:16px;font-family:Comfortaa, sans-serif;letter-spacing:4px;fill:#333333"
       id="path492" />
    <path
       d="m 99.8855,17.992 q 0.144,0.192 0.144,0.4 0,0.256 -0.16,0.432 -0.16,0.176 -0.432,0.176 -0.32,0 -0.48,-0.224 l -3.824,-5.296 -3.904,5.328 Q 91.0695,19 90.7815,19 q -0.272,0 -0.432,-0.16 -0.16,-0.176 -0.16,-0.416 0,-0.24 0.144,-0.432 l 3.952,-5.376 -3.696,-5.136 q -0.128,-0.208 -0.128,-0.384 0,-0.24 0.16,-0.416 0.16,-0.176 0.416,-0.176 0.32,0 0.48,0.224 l 3.632,5.024 3.68,-5.024 q 0.176,-0.224 0.48,-0.224 0.256,0 0.416,0.192 0.16,0.176 0.16,0.416 0,0.208 -0.112,0.368 l -3.776,5.12 z"
       style="font-weight:normal;font-size:16px;font-family:Comfortaa, sans-serif;letter-spacing:4px;fill:#333333"
       id="path494" />
    <path
       d="m 113.806,14.888 q 0.608,0 0.608,0.576 0,0.208 -0.192,0.384 -0.176,0.16 -0.416,0.16 h -1.264 v 2.368 q 0,0.256 -0.176,0.448 Q 112.19,19 111.918,19 q -0.256,0 -0.432,-0.176 -0.16,-0.176 -0.16,-0.448 v -2.368 h -5.728 q -0.272,0 -0.448,-0.176 -0.176,-0.192 -0.176,-0.432 0,-0.192 0.128,-0.368 l 6.336,-8.288 q 0.176,-0.256 0.512,-0.256 0.256,0 0.416,0.192 0.176,0.176 0.176,0.448 v 7.76 z m -2.48,0 V 8.776 l -4.688,6.112 z"
       style="font-weight:normal;font-size:16px;font-family:Comfortaa, sans-serif;letter-spacing:4px;fill:#333333"
       id="path496" />
    <path
       d="m 128.14975,14.888 q 0.608,0 0.608,0.576 0,0.208 -0.192,0.384 -0.176,0.16 -0.416,0.16 h -1.264 v 2.368 q 0,0.256 -0.176,0.448 -0.176,0.176 -0.448,0.176 -0.256,0 -0.432,-0.176 -0.16,-0.176 -0.16,-0.448 v -2.368 h -5.728 q -0.272,0 -0.448,-0.176 -0.176,-0.192 -0.176,-0.432 0,-0.192 0.128,-0.368 l 6.336,-8.288 q 0.176,-0.256 0.512,-0.256 0.256,0 0.416,0.192 0.176,0.176 0.176,0.448 v 7.76 z m -2.48,0 V 8.776 l -4.688,6.112 z"
       style="font-weight:normal;font-size:16px;font-family:Comfortaa, sans-serif;letter-spacing:4px;fill:#333333"
       id="path498" />
  </g>
  <g
     aria-label="BOGAUDIO"
     style="font-weight:bold;font-size:10.66666698px;font-family:Audiowide, sans-serif;letter-spacing:2px;fill:#333333"
     id="text52">
    <path
       d="m 43.739584,372.35937 q 0,0.25 -0.08854,0.53646 -0.08333,0.28646 -0.28125,0.53125 -0.192708,0.24479 -0.505208,0.41146 Q 42.552084,374 42.098959,374 h -5.140626 q -0.145833,0 -0.270833,-0.0521 -0.125,-0.0521 -0.21875,-0.14063 -0.08854,-0.0937 -0.140625,-0.21875 -0.05208,-0.125 -0.05208,-0.27083 v -6.10417 q 0,-0.14062 0.05208,-0.26562 0.05208,-0.125 0.140625,-0.21875 0.09375,-0.0937 0.21875,-0.14584 0.125,-0.0521 0.270833,-0.0521 h 4.531251 q 0.25,0 0.536458,0.0885 0.286458,0.0885 0.53125,0.28646 0.25,0.19271 0.411458,0.50521 0.166667,0.3125 0.166667,0.76562 v 0.25521 q 0,0.35938 -0.119792,0.77604 -0.119791,0.41146 -0.385416,0.78125 0.229166,0.14063 0.427083,0.33854 0.203125,0.19792 0.354167,0.45834 0.151041,0.26041 0.239583,0.58854 0.08854,0.32812 0.08854,0.72396 z m -1.354167,-0.26041 q 0,-0.26563 -0.08333,-0.47396 -0.08333,-0.21354 -0.234375,-0.36458 -0.151042,-0.15105 -0.364584,-0.22917 -0.213541,-0.0833 -0.479166,-0.0833 h -3.052084 v -1.36459 h 2.442708 q 0.265625,0 0.479167,-0.0781 0.213542,-0.0833 0.364584,-0.23438 0.151041,-0.15104 0.229166,-0.35937 0.08333,-0.21354 0.08333,-0.47917 v -0.25521 q 0,-0.29166 -0.28125,-0.29166 h -3.859376 v 4.76041 h 4.468751 q 0.03646,0 0.08854,-0.005 0.05208,-0.005 0.09375,-0.0312 0.04167,-0.026 0.07292,-0.0885 0.03125,-0.0625 0.03125,-0.17187 z"
       style="font-weight:bold;font-size:10.66666698px;font-family:Audiowide, sans-serif;letter-spacing:2px;fill:#333333"
       id="path501" />
    <path
       d="m 54.75,370.97917 q 0,0.68229 -0.234375,1.2552 -0.234375,0.57292 -0.651041,0.98959 -0.416667,0.41666 -0.989584,0.65104 -0.567708,0.22917 -1.239583,0.22917 h -1.833334 q -0.671875,0 -1.244791,-0.22917 -0.572917,-0.23438 -0.989584,-0.65104 -0.416666,-0.41667 -0.65625,-0.98959 -0.234375,-0.57291 -0.234375,-1.2552 v -1.42709 q 0,-0.67708 0.234375,-1.25 0.239584,-0.57812 0.65625,-0.98958 0.416667,-0.41667 0.989584,-0.65104 0.572916,-0.23438 1.244791,-0.23438 h 1.833334 q 0.671875,0 1.239583,0.23438 0.572917,0.23437 0.989584,0.65104 0.416666,0.41146 0.651041,0.98958 0.234375,0.57292 0.234375,1.25 z m -1.354166,-1.42709 q 0,-0.40104 -0.130209,-0.72396 -0.125,-0.32812 -0.359375,-0.55729 -0.229166,-0.23437 -0.557291,-0.35937 -0.322917,-0.13021 -0.713542,-0.13021 h -1.833334 q -0.395833,0 -0.723958,0.13021 -0.322917,0.125 -0.557292,0.35937 -0.234375,0.22917 -0.364583,0.55729 -0.125,0.32292 -0.125,0.72396 v 1.42709 q 0,0.40104 0.125,0.72916 0.130208,0.32292 0.364583,0.55729 0.234375,0.22917 0.557292,0.35938 0.328125,0.125 0.723958,0.125 H 51.625 q 0.395834,0 0.71875,-0.125 0.328125,-0.13021 0.5625,-0.35938 0.234375,-0.23437 0.359375,-0.55729 0.130209,-0.32812 0.130209,-0.72916 z"
       style="font-weight:bold;font-size:10.66666698px;font-family:Audiowide, sans-serif;letter-spacing:2px;fill:#333333"
       id="path503" />
    <path
       d="m 65.46875,373.31771 q 0,0.14583 -0.05208,0.27083 -0.05208,0.125 -0.145833,0.21875 -0.08854,0.0885 -0.213542,0.14063 Q 64.932292,374 64.786459,374 h -4.885417 q -0.1875,0 -0.40625,-0.0417 -0.213542,-0.0469 -0.427084,-0.14062 -0.208333,-0.0937 -0.401041,-0.23959 -0.192709,-0.15104 -0.34375,-0.35937 -0.145834,-0.21354 -0.234375,-0.48958 Q 58,372.44792 58,372.09896 v -3.66667 q 0,-0.1875 0.04167,-0.40104 0.04687,-0.21875 0.140625,-0.42708 0.09375,-0.21355 0.244791,-0.40625 0.151042,-0.19271 0.359375,-0.33855 0.213542,-0.15104 0.489584,-0.23958 0.276041,-0.0885 0.625,-0.0885 h 5.505208 v 1.35417 h -5.505208 q -0.265625,0 -0.40625,0.14062 -0.140625,0.14063 -0.140625,0.41667 v 3.65625 q 0,0.26041 0.140625,0.40625 0.145833,0.14062 0.40625,0.14062 h 4.213542 v -1.69791 h -3.604167 v -1.36459 h 4.276042 q 0.145833,0 0.270833,0.0573 0.125,0.0521 0.213542,0.14584 0.09375,0.0937 0.145833,0.21875 0.05208,0.11979 0.05208,0.26041 z"
       style="font-weight:bold;font-size:10.66666698px;font-family:Audiowide, sans-serif;letter-spacing:2px;fill:#333333"
       id="path505" />
    <path
       d="m 76.218752,374 h -1.354167 v -1.83333 H 70.104168 V 374 h -1.354167 v -3.73438 q 0,-0.8177 0.28125,-1.5052 0.28125,-0.6875 0.78125,-1.1823 0.5,-0.49479 1.182292,-0.77083 0.682292,-0.27604 1.489583,-0.27604 h 3.052084 q 0.140625,0 0.265625,0.0521 0.125,0.0521 0.21875,0.14584 0.09375,0.0937 0.145833,0.21875 0.05208,0.125 0.05208,0.26562 z m -6.114584,-3.1875 h 4.760417 v -2.92708 h -2.380209 q -0.0625,0 -0.265625,0.0208 -0.197916,0.0156 -0.463541,0.0885 -0.260417,0.0729 -0.552084,0.22396 -0.291666,0.15104 -0.536458,0.41667 -0.244792,0.26562 -0.40625,0.66666 -0.15625,0.39584 -0.15625,0.96354 z"
       style="font-weight:bold;font-size:10.66666698px;font-family:Audiowide, sans-serif;letter-spacing:2px;fill:#333333"
       id="path507" />
    <path
       d="m 87.104167,373.31771 q 0,0.14583 -0.05208,0.27083 -0.05208,0.125 -0.145834,0.21875 -0.09375,0.0885 -0.21875,0.14063 Q 86.5625,374 86.421875,374 h -3.052083 q -0.432292,0 -0.875,-0.0937 -0.442709,-0.0937 -0.859375,-0.28646 -0.411459,-0.19792 -0.776042,-0.5 -0.364583,-0.30208 -0.640625,-0.71354 -0.270833,-0.41667 -0.427083,-0.94792 -0.15625,-0.53646 -0.15625,-1.19271 v -3.73437 h 1.354166 v 3.73437 q 0,0.57292 0.15625,0.96875 0.161459,0.39584 0.40625,0.66146 0.244792,0.26563 0.536459,0.41667 0.291666,0.15104 0.552083,0.22396 0.265625,0.0729 0.463542,0.0937 0.203125,0.0156 0.265625,0.0156 H 85.75 v -6.11458 h 1.354167 z"
       style="font-weight:bold;font-size:10.66666698px;font-family:Audiowide, sans-serif;letter-spacing:2px;fill:#333333"
       id="path509" />
    <path
       d="m 98.135419,370.875 q 0,0.68229 -0.239583,1.25521 -0.234375,0.57291 -0.651042,0.98958 -0.416666,0.41146 -0.989583,0.64583 Q 95.682294,374 95.010419,374 h -3.65625 q -0.145833,0 -0.270833,-0.0521 -0.125,-0.0521 -0.21875,-0.14063 -0.08854,-0.0937 -0.140625,-0.21875 -0.05208,-0.125 -0.05208,-0.27083 v -6.10417 q 0,-0.14062 0.05208,-0.26562 0.05208,-0.125 0.140625,-0.21875 0.09375,-0.0937 0.21875,-0.14584 0.125,-0.0521 0.270833,-0.0521 h 3.65625 q 0.671875,0 1.244792,0.23437 0.572917,0.23438 0.989583,0.65105 0.416667,0.41145 0.651042,0.98958 0.239583,0.57292 0.239583,1.25 z m -1.354166,-1.21875 q 0,-0.39583 -0.130209,-0.72396 -0.125,-0.32812 -0.359375,-0.55729 -0.234375,-0.23438 -0.5625,-0.35938 -0.322916,-0.1302 -0.71875,-0.1302 h -2.984375 v 4.76041 h 2.984375 q 0.395834,0 0.71875,-0.125 0.328125,-0.13021 0.5625,-0.35937 0.234375,-0.23438 0.359375,-0.55729 0.130209,-0.32813 0.130209,-0.72917 z"
       style="font-weight:bold;font-size:10.66666698px;font-family:Audiowide, sans-serif;letter-spacing:2px;fill:#333333"
       id="path511" />
    <path
       d="m 102.83854,374 h -1.35416 v -7.46875 h 1.35416 z"
       style="font-weight:bold;font-size:10.66666698px;font-family:Audiowide, sans-serif;letter-spacing:2px;fill:#333333"
       id="path513" />
    <path
       d="m 114.27084,370.97917 q 0,0.68229 -0.23438,1.2552 -0.23437,0.57292 -0.65104,0.98959 -0.41667,0.41666 -0.98958,0.65104 -0.56771,0.22917 -1.23959,0.22917 h -1.83333 q -0.67188,0 -1.24479,-0.22917 -0.57292,-0.23438 -0.98959,-0.65104 -0.41666,-0.41667 -0.65625,-0.98959 -0.23437,-0.57291 -0.23437,-1.2552 v -1.42709 q 0,-0.67708 0.23437,-1.25 0.23959,-0.57812 0.65625,-0.98958 0.41667,-0.41667 0.98959,-0.65104 0.57291,-0.23438 1.24479,-0.23438 h 1.83333 q 0.67188,0 1.23959,0.23438 0.57291,0.23437 0.98958,0.65104 0.41667,0.41146 0.65104,0.98958 0.23438,0.57292 0.23438,1.25 z m -1.35417,-1.42709 q 0,-0.40104 -0.13021,-0.72396 -0.125,-0.32812 -0.35937,-0.55729 -0.22917,-0.23437 -0.5573,-0.35937 -0.32291,-0.13021 -0.71354,-0.13021 h -1.83333 q -0.39583,0 -0.72396,0.13021 -0.32292,0.125 -0.55729,0.35937 -0.23438,0.22917 -0.36458,0.55729 -0.125,0.32292 -0.125,0.72396 v 1.42709 q 0,0.40104 0.125,0.72916 0.1302,0.32292 0.36458,0.55729 0.23437,0.22917 0.55729,0.35938 0.32813,0.125 0.72396,0.125 h 1.82292 q 0.39583,0 0.71875,-0.125 0.32812,-0.13021 0.5625,-0.35938 0.23437,-0.23437 0.35937,-0.55729 0.13021,-0.32812 0.13021,-0.72916 z"
       style="font-weight:bold;font-size:10.66666698px;font-family:Audiowide, sans-serif;letter-spacing:2px;fill:#333333"
       id="path515" />
  </g>
  <path
     style="fill:#dddddd"
     d="m 59.5,369 h 3 v 3 h -3 z"
     id="rect54" />
  <g
     aria-label="1A"
     style="font-weight:bold;font-size:8px;font-family:Roboto, sans-serif;letter-spacing:2px;fill:#333333"
     id="text58">
    <path
       d="M 24.128906,48.5 H 23 v -4.351563 l -1.347656,0.417969 v -0.917969 l 2.355468,-0.84375 h 0.121094 z"
       style="font-weight:bold;font-size:8px;font-family:Roboto, sans-serif;letter-spacing:2px;fill:#333333"
       id="path519" />
    <path
       d="M 31.3125,47.328125 H 29.257812 L 28.867187,48.5 h -1.246093 l 2.117187,-5.6875 h 1.085938 L 32.953125,48.5 h -1.246094 z m -1.738281,-0.949219 h 1.421875 L 30.28125,44.25 Z"
       style="font-weight:bold;font-size:8px;font-family:Roboto, sans-serif;letter-spacing:2px;fill:#333333"
       id="path521" />
  </g>
  <g
     id="use60"
     transform="translate(7,48.5)">
    <g
       id="g476"
       transform="translate(20,20)">
      <path
         transform="rotate(-90,-5.75,-5.75)"
         style="stroke:#333333;stroke-width:1"
         d="M 0,0 H 4"
         id="polyline466" />
      <path
         id="path468"
         transform="rotate(20)"
         d="M 0,-13.5 A 13.5,13.5 0 0 1 13.5,0"
         inkscape:connector-curvature="0"
         style="fill:none;stroke:#333333;stroke-width:0.5;stroke-linecap:round" />
      <path
         id="path470"
         transform="rotate(43)"
         d="M 0,-13.5 A 13.5,13.5 0 0 1 13.5,0"
         inkscape:connector-curvature="0"
         style="fill:none;stroke:#333333;stroke-width:0.5;stroke-linecap:round" />
      <path
         id="path472"
         transform="rotate(-20)"
         d="M 0,-13.5 A 13.5,13.5 0 0 0 -13.5,0"
         inkscape:connector-curvature="0"
         style="fill:none;stroke:#333333;stroke-width:0.5;stroke-linecap:round" />
      <path
         id="path474"
         transform="rotate(-43)"
         d="M 0,-13.5 A 13.5,13.5 0 0 0 -13.5,0"
         inkscape:connector-curvature="0"
         style="fill:none;stroke:#333333;stroke-width:0.5;stroke-linecap:round" />
    </g>
  </g>
  <g
     aria-label="2A"
     style="font-weight:bold;font-size:8px;font-family:Roboto, sans-serif;letter-spacing:2px;fill:#333333"
     id="text64">
    <path
       d="m 25.285156,105 h -3.898437 v -0.77344 l 1.839843,-1.96093 q 0.378907,-0.41407 0.558594,-0.72266 0.183594,-0.30859 0.183594,-0.58594 0,-0.3789 -0.191406,-0.59375 -0.191407,-0.21875 -0.546875,-0.21875 -0.382813,0 -0.605469,0.26563 -0.21875,0.26172 -0.21875,0.6914 h -1.132813 q 0,-0.51953 0.246094,-0.94922 0.25,-0.429684 0.703125,-0.671871 0.453125,-0.246094 1.027344,-0.246094 0.878906,0 1.363281,0.421875 0.488281,0.42188 0.488281,1.19141 0,0.42187 -0.21875,0.85937 -0.21875,0.4375 -0.75,1.01953 l -1.292968,1.36328 h 2.445312 z"
       style="font-weight:bold;font-size:8px;font-family:Roboto, sans-serif;letter-spacing:2px;fill:#333333"
       id="path525" />
    <path
       d="M 31.3125,103.82813 H 29.257812 L 28.867187,105 h -1.246093 l 2.117187,-5.6875 h 1.085938 L 32.953125,105 h -1.246094 z m -1.738281,-0.94922 h 1.421875 L 30.28125,100.75 Z"
       style="font-weight:bold;font-size:8px;font-family:Roboto, sans-serif;letter-spacing:2px;fill:#333333"
       id="path527" />
  </g>
  <g
     id="use66"
     transform="translate(7,105)">
    <g
       id="g462"
       transform="translate(20,20)">
      <path
         transform="rotate(-90,-5.75,-5.75)"
         style="stroke:#333333;stroke-width:1"
         d="M 0,0 H 4"
         id="polyline452" />
      <path
         id="path454"
         transform="rotate(20)"
         d="M 0,-13.5 A 13.5,13.5 0 0 1 13.5,0"
         inkscape:connector-curvature="0"
         style="fill:none;stroke:#333333;stroke-width:0.5;stroke-linecap:round" />
      <path
         id="path456"
         transform="rotate(43)"
         d="M 0,-13.5 A 13.5,13.5 0 0 1 13.5,0"
         inkscape:connector-curvature="0"
         style="fill:none;stroke:#333333;stroke-width:0.5;stroke-linecap:round" />
      <path
         id="path458"
         transform="rotate(-20)"
         d="M 0,-13.5 A 13.5,13.5 0 0 0 -13.5,0"
         inkscape:connector-curvature="0"
         style="fill:none;stroke:#333333;stroke-width:0.5;stroke-linecap:round" />
      <path
         id="path460"
         transform="rotate(-43)"
         d="M 0,-13.5 A 13.5,13.5 0 0 0 -13.5,0"
         inkscape:connector-curvature="0"
         style="fill:none;stroke:#333333;stroke-width:0.5;stroke-linecap:round" />
    </g>
  </g>
  <g
     aria-label="3A"
     style="font-weight:bold;font-size:8px;font-family:Roboto, sans-serif;letter-spacing:2px;fill:#333333"
     id="text70">
    <path
       d="m 22.535156,157.65625 h 0.601563 q 0.429687,0 0.636718,-0.21484 0.207032,-0.21485 0.207032,-0.57032 0,-0.34375 -0.207032,-0.53515 -0.203125,-0.19141 -0.5625,-0.19141 -0.324218,0 -0.542968,0.17969 -0.21875,0.17578 -0.21875,0.46094 h -1.128907 q 0,-0.44532 0.238282,-0.79688 0.242187,-0.35547 0.671875,-0.55469 0.433593,-0.19922 0.953125,-0.19922 0.902343,0 1.414062,0.4336 0.511719,0.42969 0.511719,1.1875 0,0.39062 -0.238281,0.71875 -0.238282,0.32812 -0.625,0.5039 0.480468,0.17188 0.714843,0.51563 0.238282,0.34375 0.238282,0.8125 0,0.75781 -0.554688,1.21484 -0.550781,0.45703 -1.460937,0.45703 -0.851563,0 -1.394532,-0.44921 Q 21.25,160.17969 21.25,159.44141 h 1.128906 q 0,0.32031 0.238281,0.52343 0.242188,0.20313 0.59375,0.20313 0.402344,0 0.628907,-0.21094 0.230468,-0.21484 0.230468,-0.56641 0,-0.85156 -0.9375,-0.85156 h -0.597656 z"
       style="font-weight:bold;font-size:8px;font-family:Roboto, sans-serif;letter-spacing:2px;fill:#333333"
       id="path531" />
    <path
       d="M 31.3125,159.82812 H 29.257812 L 28.867187,161 h -1.246093 l 2.117187,-5.6875 h 1.085938 L 32.953125,161 h -1.246094 z m -1.738281,-0.94921 h 1.421875 L 30.28125,156.75 Z"
       style="font-weight:bold;font-size:8px;font-family:Roboto, sans-serif;letter-spacing:2px;fill:#333333"
       id="path533" />
  </g>
  <g
     id="use72"
     transform="translate(7,161)">
    <g
       id="g448"
       transform="translate(20,20)">
      <path
         transform="rotate(-90,-5.75,-5.75)"
         style="stroke:#333333;stroke-width:1"
         d="M 0,0 H 4"
         id="polyline438" />
      <path
         id="path440"
         transform="rotate(20)"
         d="M 0,-13.5 A 13.5,13.5 0 0 1 13.5,0"
         inkscape:connector-curvature="0"
         style="fill:none;stroke:#333333;stroke-width:0.5;stroke-linecap:round" />
      <path
         id="path442"
         transform="rotate(43)"
         d="M 0,-13.5 A 13.5,13.5 0 0 1 13.5,0"
         inkscape:connector-curvature="0"
         style="fill:none;stroke:#333333;stroke-width:0.5;stroke-linecap:round" />
      <path
         id="path444"
         transform="rotate(-20)"
         d="M 0,-13.5 A 13.5,13.5 0 0 0 -13.5,0"
         inkscape:connector-curvature="0"
         style="fill:none;stroke:#333333;stroke-width:0.5;stroke-linecap:round" />
      <path
         id="path446"
         transform="rotate(-43)"
         d="M 0,-13.5 A 13.5,13.5 0 0 0 -13.5,0"
         inkscape:connector-curvature="0"
         style="fill:none;stroke:#333333;stroke-width:0.5;stroke-linecap:round" />
    </g>
  </g>
  <g
     aria-label="4A"
     style="font-weight:bold;font-size:8px;font-family:Roboto, sans-serif;letter-spacing:2px;fill:#333333"
     id="text76">
    <path
       d="m 24.726562,214.85937 h 0.644532 v 0.91016 H 24.726562 V 217 h -1.128906 v -1.23047 h -2.332031 l -0.05078,-0.71094 2.371093,-3.74609 h 1.140625 z m -2.386718,0 h 1.257812 v -2.00781 l -0.07422,0.12891 z"
       style="font-weight:bold;font-size:8px;font-family:Roboto, sans-serif;letter-spacing:2px;fill:#333333"
       id="path537" />
    <path
       d="M 31.3125,215.82812 H 29.257812 L 28.867187,217 h -1.246093 l 2.117187,-5.6875 h 1.085938 L 32.953125,217 h -1.246094 z m -1.738281,-0.94921 h 1.421875 L 30.28125,212.75 Z"
       style="font-weight:bold;font-size:8px;font-family:Roboto, sans-serif;letter-spacing:2px;fill:#333333"
       id="path539" />
  </g>
  <g
     id="use78"
     transform="translate(7,217)">
    <g
       id="g434"
       transform="translate(20,20)">
      <path
         transform="rotate(-90,-5.75,-5.75)"
         style="stroke:#333333;stroke-width:1"
         d="M 0,0 H 4"
         id="polyline424" />
      <path
         id="path426"
         transform="rotate(20)"
         d="M 0,-13.5 A 13.5,13.5 0 0 1 13.5,0"
         inkscape:connector-curvature="0"
         style="fill:none;stroke:#333333;stroke-width:0.5;stroke-linecap:round" />
      <path
         id="path428"
         transform="rotate(43)"
         d="M 0,-13.5 A 13.5,13.5 0 0 1 13.5,0"
         inkscape:connector-curvature="0"
         style="fill:none;stroke:#333333;stroke-width:0.5;stroke-linecap:round" />
      <path
         id="path430"
         transform="rotate(-20)"
         d="M 0,-13.5 A 13.5,13.5 0 0 0 -13.5,0"
         inkscape:connector-curvature="0"
         style="fill:none;stroke:#333333;stroke-width:0.5;stroke-linecap:round" />
      <path
         id="path432"
         transform="rotate(-43)"
         d="M 0,-13.5 A 13.5,13.5 0 0 0 -13.5,0"
         inkscape:connector-curvature="0"
         style="fill:none;stroke:#333333;stroke-width:0.5;stroke-linecap:round" />
    </g>
  </g>
  <g
     aria-label="1B"
     style="font-weight:bold;font-size:8px;font-family:Roboto, sans-serif;letter-spacing:2px;fill:#333333"
     id="text82">
    <path
       d="M 56.128906,48.5 H 55 v -4.351563 l -1.347656,0.417969 v -0.917969 l 2.355468,-0.84375 h 0.121094 z"
       style="font-weight:bold;font-size:8px;font-family:Roboto, sans-serif;letter-spacing:2px;fill:#333333"
       id="path543" />
    <path
       d="m 60.101562,48.5 v -5.6875 h 1.992188 q 1.035156,0 1.570312,0.398437 0.535157,0.394532 0.535157,1.160157 0,0.417968 -0.214844,0.738281 -0.214844,0.316406 -0.597656,0.464844 0.4375,0.109375 0.6875,0.441406 0.253906,0.332031 0.253906,0.8125 0,0.820312 -0.523438,1.242187 Q 63.28125,48.492187 62.3125,48.5 Z m 1.171875,-2.476563 v 1.535157 h 1.003907 q 0.414062,0 0.644531,-0.195313 0.234375,-0.199219 0.234375,-0.546875 0,-0.78125 -0.808594,-0.792969 z m 0,-0.828125 h 0.867188 q 0.886719,-0.01563 0.886719,-0.707031 0,-0.386719 -0.226563,-0.554687 -0.222656,-0.171875 -0.707031,-0.171875 h -0.820313 z"
       style="font-weight:bold;font-size:8px;font-family:Roboto, sans-serif;letter-spacing:2px;fill:#333333"
       id="path545" />
  </g>
  <g
     id="use84"
     transform="translate(39,48.5)">
    <g
       id="g420"
       transform="translate(20,20)">
      <path
         transform="rotate(-90,-5.75,-5.75)"
         style="stroke:#333333;stroke-width:1"
         d="M 0,0 H 4"
         id="polyline410" />
      <path
         id="path412"
         transform="rotate(20)"
         d="M 0,-13.5 A 13.5,13.5 0 0 1 13.5,0"
         inkscape:connector-curvature="0"
         style="fill:none;stroke:#333333;stroke-width:0.5;stroke-linecap:round" />
      <path
         id="path414"
         transform="rotate(43)"
         d="M 0,-13.5 A 13.5,13.5 0 0 1 13.5,0"
         inkscape:connector-curvature="0"
         style="fill:none;stroke:#333333;stroke-width:0.5;stroke-linecap:round" />
      <path
         id="path416"
         transform="rotate(-20)"
         d="M 0,-13.5 A 13.5,13.5 0 0 0 -13.5,0"
         inkscape:connector-curvature="0"
         style="fill:none;stroke:#333333;stroke-width:0.5;stroke-linecap:round" />
      <path
         id="path418"
         transform="rotate(-43)"
         d="M 0,-13.5 A 13.5,13.5 0 0 0 -13.5,0"
         inkscape:connector-curvature="0"
         style="fill:none;stroke:#333333;stroke-width:0.5;stroke-linecap:round" />
    </g>
  </g>
  <g
     aria-label="2B"
     style="font-weight:bold;font-size:8px;font-family:Roboto, sans-serif;letter-spacing:2px;fill:#333333"
     id="text88">
    <path
       d="m 57.285156,105 h -3.898437 v -0.77344 l 1.839843,-1.96093 q 0.378907,-0.41407 0.558594,-0.72266 0.183594,-0.30859 0.183594,-0.58594 0,-0.3789 -0.191406,-0.59375 -0.191407,-0.21875 -0.546875,-0.21875 -0.382813,0 -0.605469,0.26563 -0.21875,0.26172 -0.21875,0.6914 h -1.132813 q 0,-0.51953 0.246094,-0.94922 0.25,-0.429684 0.703125,-0.671871 0.453125,-0.246094 1.027344,-0.246094 0.878906,0 1.363281,0.421875 0.488281,0.42188 0.488281,1.19141 0,0.42187 -0.21875,0.85937 -0.21875,0.4375 -0.75,1.01953 l -1.292968,1.36328 h 2.445312 z"
       style="font-weight:bold;font-size:8px;font-family:Roboto, sans-serif;letter-spacing:2px;fill:#333333"
       id="path549" />
    <path
       d="m 60.101562,105 v -5.6875 h 1.992188 q 1.035156,0 1.570312,0.398437 0.535157,0.394533 0.535157,1.160153 0,0.41797 -0.214844,0.73829 -0.214844,0.3164 -0.597656,0.46484 0.4375,0.10937 0.6875,0.44141 0.253906,0.33203 0.253906,0.8125 0,0.82031 -0.523438,1.24218 Q 63.28125,104.99219 62.3125,105 Z m 1.171875,-2.47656 v 1.53515 h 1.003907 q 0.414062,0 0.644531,-0.19531 0.234375,-0.19922 0.234375,-0.54687 0,-0.78125 -0.808594,-0.79297 z m 0,-0.82813 h 0.867188 q 0.886719,-0.0156 0.886719,-0.70703 0,-0.38672 -0.226563,-0.55469 -0.222656,-0.17187 -0.707031,-0.17187 h -0.820313 z"
       style="font-weight:bold;font-size:8px;font-family:Roboto, sans-serif;letter-spacing:2px;fill:#333333"
       id="path551" />
  </g>
  <g
     id="use90"
     transform="translate(39,105)">
    <g
       id="g406"
       transform="translate(20,20)">
      <path
         transform="rotate(-90,-5.75,-5.75)"
         style="stroke:#333333;stroke-width:1"
         d="M 0,0 H 4"
         id="polyline396" />
      <path
         id="path398"
         transform="rotate(20)"
         d="M 0,-13.5 A 13.5,13.5 0 0 1 13.5,0"
         inkscape:connector-curvature="0"
         style="fill:none;stroke:#333333;stroke-width:0.5;stroke-linecap:round" />
      <path
         id="path400"
         transform="rotate(43)"
         d="M 0,-13.5 A 13.5,13.5 0 0 1 13.5,0"
         inkscape:connector-curvature="0"
         style="fill:none;stroke:#333333;stroke-width:0.5;stroke-linecap:round" />
      <path
         id="path402"
         transform="rotate(-20)"
         d="M 0,-13.5 A 13.5,13.5 0 0 0 -13.5,0"
         inkscape:connector-curvature="0"
         style="fill:none;stroke:#333333;stroke-width:0.5;stroke-linecap:round" />
      <path
         id="path404"
         transform="rotate(-43)"
         d="M 0,-13.5 A 13.5,13.5 0 0 0 -13.5,0"
         inkscape:connector-curvature="0"
         style="fill:none;stroke:#333333;stroke-width:0.5;stroke-linecap:round" />
    </g>
  </g>
  <g
     aria-label="3B"
     style="font-weight:bold;font-size:8px;font-family:Roboto, sans-serif;letter-spacing:2px;fill:#333333"
     id="text94">
    <path
       d="m 54.535156,157.65625 h 0.601563 q 0.429687,0 0.636718,-0.21484 0.207032,-0.21485 0.207032,-0.57032 0,-0.34375 -0.207032,-0.53515 -0.203125,-0.19141 -0.5625,-0.19141 -0.324218,0 -0.542968,0.17969 -0.21875,0.17578 -0.21875,0.46094 h -1.128907 q 0,-0.44532 0.238282,-0.79688 0.242187,-0.35547 0.671875,-0.55469 0.433593,-0.19922 0.953125,-0.19922 0.902343,0 1.414062,0.4336 0.511719,0.42969 0.511719,1.1875 0,0.39062 -0.238281,0.71875 -0.238282,0.32812 -0.625,0.5039 0.480468,0.17188 0.714843,0.51563 0.238282,0.34375 0.238282,0.8125 0,0.75781 -0.554688,1.21484 -0.550781,0.45703 -1.460937,0.45703 -0.851563,0 -1.394532,-0.44921 Q 53.25,160.17969 53.25,159.44141 h 1.128906 q 0,0.32031 0.238281,0.52343 0.242188,0.20313 0.59375,0.20313 0.402344,0 0.628907,-0.21094 0.230468,-0.21484 0.230468,-0.56641 0,-0.85156 -0.9375,-0.85156 h -0.597656 z"
       style="font-weight:bold;font-size:8px;font-family:Roboto, sans-serif;letter-spacing:2px;fill:#333333"
       id="path555" />
    <path
       d="m 60.101562,161 v -5.6875 h 1.992188 q 1.035156,0 1.570312,0.39844 0.535157,0.39453 0.535157,1.16015 0,0.41797 -0.214844,0.73828 -0.214844,0.31641 -0.597656,0.46485 0.4375,0.10937 0.6875,0.4414 0.253906,0.33204 0.253906,0.8125 0,0.82032 -0.523438,1.24219 Q 63.28125,160.99219 62.3125,161 Z m 1.171875,-2.47656 v 1.53515 h 1.003907 q 0.414062,0 0.644531,-0.19531 0.234375,-0.19922 0.234375,-0.54687 0,-0.78125 -0.808594,-0.79297 z m 0,-0.82813 h 0.867188 q 0.886719,-0.0156 0.886719,-0.70703 0,-0.38672 -0.226563,-0.55469 -0.222656,-0.17187 -0.707031,-0.17187 h -0.820313 z"
       style="font-weight:bold;font-size:8px;font-family:Roboto, sans-serif;letter-spacing:2px;fill:#333333"
       id="path557" />
  </g>
  <g
     id="use96"
     transform="translate(39,161)">
    <g
       id="g392"
       transform="translate(20,20)">
      <path
         transform="rotate(-90,-5.75,-5.75)"
         style="stroke:#333333;stroke-width:1"
         d="M 0,0 H 4"
         id="polyline382" />
      <path
         id="path384"
         transform="rotate(20)"
         d="M 0,-13.5 A 13.5,13.5 0 0 1 13.5,0"
         inkscape:connector-curvature="0"
         style="fill:none;stroke:#333333;stroke-width:0.5;stroke-linecap:round" />
      <path
         id="path386"
         transform="rotate(43)"
         d="M 0,-13.5 A 13.5,13.5 0 0 1 13.5,0"
         inkscape:connector-curvature="0"
         style="fill:none;stroke:#333333;stroke-width:0.5;stroke-linecap:round" />
      <path
         id="path388"
         transform="rotate(-20)"
         d="M 0,-13.5 A 13.5,13.5 0 0 0 -13.5,0"
         inkscape:connector-curvature="0"
         style="fill:none;stroke:#333333;stroke-width:0.5;stroke-linecap:round" />
      <path
         id="path390"
         transform="rotate(-43)"
         d="M 0,-13.5 A 13.5,13.5 0 0 0 -13.5,0"
         inkscape:connector-curvature="0"
         style="fill:none;stroke:#333333;stroke-width:0.5;stroke-linecap:round" />
    </g>
  </g>
  <g
     aria-label="4B"
     style="font-weight:bold;font-size:8px;font-family:Roboto, sans-serif;letter-spacing:2px;fill:#333333"
     id="text100">
    <path
       d="m 56.726562,214.85937 h 0.644532 v 0.91016 H 56.726562 V 217 h -1.128906 v -1.23047 h -2.332031 l -0.05078,-0.71094 2.371093,-3.74609 h 1.140625 z m -2.386718,0 h 1.257812 v -2.00781 l -0.07422,0.12891 z"
       style="font-weight:bold;font-size:8px;font-family:Roboto, sans-serif;letter-spacing:2px;fill:#333333"
       id="path561" />
    <path
       d="m 60.101562,217 v -5.6875 h 1.992188 q 1.035156,0 1.570312,0.39844 0.535157,0.39453 0.535157,1.16015 0,0.41797 -0.214844,0.73828 -0.214844,0.31641 -0.597656,0.46485 0.4375,0.10937 0.6875,0.4414 0.253906,0.33204 0.253906,0.8125 0,0.82032 -0.523438,1.24219 Q 63.28125,216.99219 62.3125,217 Z m 1.171875,-2.47656 v 1.53515 h 1.003907 q 0.414062,0 0.644531,-0.19531 0.234375,-0.19922 0.234375,-0.54687 0,-0.78125 -0.808594,-0.79297 z m 0,-0.82813 h 0.867188 q 0.886719,-0.0156 0.886719,-0.70703 0,-0.38672 -0.226563,-0.55469 -0.222656,-0.17187 -0.707031,-0.17187 h -0.820313 z"
       style="font-weight:bold;font-size:8px;font-family:Roboto, sans-serif;letter-spacing:2px;fill:#333333"
       id="path563" />
  </g>
  <g
     id="use102"
     transform="translate(39,217)">
    <g
       id="g378"
       transform="translate(20,20)">
      <path
         transform="rotate(-90,-5.75,-5.75)"
         style="stroke:#333333;stroke-width:1"
         d="M 0,0 H 4"
         id="polyline368" />
      <path
         id="path370"
         transform="rotate(20)"
         d="M 0,-13.5 A 13.5,13.5 0 0 1 13.5,0"
         inkscape:connector-curvature="0"
         style="fill:none;stroke:#333333;stroke-width:0.5;stroke-linecap:round" />
      <path
         id="path372"
         transform="rotate(43)"
         d="M 0,-13.5 A 13.5,13.5 0 0 1 13.5,0"
         inkscape:connector-curvature="0"
         style="fill:none;stroke:#333333;stroke-width:0.5;stroke-linecap:round" />
      <path
         id="path374"
         transform="rotate(-20)"
         d="M 0,-13.5 A 13.5,13.5 0 0 0 -13.5,0"
         inkscape:connector-curvature="0"
         style="fill:none;stroke:#333333;stroke-width:0.5;stroke-linecap:round" />
      <path
         id="path376"
         transform="rotate(-43)"
         d="M 0,-13.5 A 13.5,13.5 0 0 0 -13.5,0"
         inkscape:connector-curvature="0"
         style="fill:none;stroke:#333333;stroke-width:0.5;stroke-linecap:round" />
    </g>
  </g>
  <g
     aria-label="1C"
     style="font-weight:bold;font-size:8px;font-family:Roboto, sans-serif;letter-spacing:2px;fill:#333333"
     id="text106">
    <path
       d="M 88.128906,48.5 H 87 v -4.351563 l -1.347656,0.417969 v -0.917969 l 2.355468,-0.84375 h 0.121094 z"
       style="font-weight:bold;font-size:8px;font-family:Roboto, sans-serif;letter-spacing:2px;fill:#333333"
       id="path567" />
    <path
       d="m 96.566406,46.605469 q -0.06641,0.917968 -0.679687,1.445312 -0.609375,0.527344 -1.609375,0.527344 -1.09375,0 -1.722657,-0.734375 -0.625,-0.738281 -0.625,-2.023438 v -0.347656 q 0,-0.820312 0.289063,-1.445312 0.289062,-0.625 0.824219,-0.957032 0.539062,-0.335937 1.25,-0.335937 0.984375,0 1.585937,0.527344 0.601563,0.527343 0.695313,1.480468 h -1.171875 q -0.04297,-0.550781 -0.308594,-0.796875 -0.261719,-0.25 -0.800781,-0.25 -0.585938,0 -0.878907,0.421875 -0.289062,0.417969 -0.296875,1.300782 v 0.429687 q 0,0.921875 0.277344,1.347656 0.28125,0.425782 0.882813,0.425782 0.542968,0 0.808593,-0.246094 0.269532,-0.25 0.308594,-0.769531 z"
       style="font-weight:bold;font-size:8px;font-family:Roboto, sans-serif;letter-spacing:2px;fill:#333333"
       id="path569" />
  </g>
  <g
     id="use108"
     transform="translate(71,48.5)">
    <g
       id="g364"
       transform="translate(20,20)">
      <path
         transform="rotate(-90,-5.75,-5.75)"
         style="stroke:#333333;stroke-width:1"
         d="M 0,0 H 4"
         id="polyline354" />
      <path
         id="path356"
         transform="rotate(20)"
         d="M 0,-13.5 A 13.5,13.5 0 0 1 13.5,0"
         inkscape:connector-curvature="0"
         style="fill:none;stroke:#333333;stroke-width:0.5;stroke-linecap:round" />
      <path
         id="path358"
         transform="rotate(43)"
         d="M 0,-13.5 A 13.5,13.5 0 0 1 13.5,0"
         inkscape:connector-curvature="0"
         style="fill:none;stroke:#333333;stroke-width:0.5;stroke-linecap:round" />
      <path
         id="path360"
         transform="rotate(-20)"
         d="M 0,-13.5 A 13.5,13.5 0 0 0 -13.5,0"
         inkscape:connector-curvature="0"
         style="fill:none;stroke:#333333;stroke-width:0.5;stroke-linecap:round" />
      <path
         id="path362"
         transform="rotate(-43)"
         d="M 0,-13.5 A 13.5,13.5 0 0 0 -13.5,0"
         inkscape:connector-curvature="0"
         style="fill:none;stroke:#333333;stroke-width:0.5;stroke-linecap:round" />
    </g>
  </g>
  <g
     aria-label="2C"
     style="font-weight:bold;font-size:8px;font-family:Roboto, sans-serif;letter-spacing:2px;fill:#333333"
     id="text112">
    <path
       d="m 89.285156,105 h -3.898437 v -0.77344 l 1.839843,-1.96093 q 0.378907,-0.41407 0.558594,-0.72266 0.183594,-0.30859 0.183594,-0.58594 0,-0.3789 -0.191406,-0.59375 -0.191407,-0.21875 -0.546875,-0.21875 -0.382813,0 -0.605469,0.26563 -0.21875,0.26172 -0.21875,0.6914 h -1.132813 q 0,-0.51953 0.246094,-0.94922 0.25,-0.429684 0.703125,-0.671871 0.453125,-0.246094 1.027344,-0.246094 0.878906,0 1.363281,0.421875 0.488281,0.42188 0.488281,1.19141 0,0.42187 -0.21875,0.85937 -0.21875,0.4375 -0.75,1.01953 l -1.292968,1.36328 h 2.445312 z"
       style="font-weight:bold;font-size:8px;font-family:Roboto, sans-serif;letter-spacing:2px;fill:#333333"
       id="path573" />
    <path
       d="m 96.566406,103.10547 q -0.06641,0.91797 -0.679687,1.44531 -0.609375,0.52735 -1.609375,0.52735 -1.09375,0 -1.722657,-0.73438 -0.625,-0.73828 -0.625,-2.02344 v -0.34765 q 0,-0.82032 0.289063,-1.44532 0.289062,-0.624996 0.824219,-0.957028 0.539062,-0.335937 1.25,-0.335937 0.984375,0 1.585937,0.527344 0.601563,0.527341 0.695313,1.480471 h -1.171875 q -0.04297,-0.55078 -0.308594,-0.79688 -0.261719,-0.25 -0.800781,-0.25 -0.585938,0 -0.878907,0.42188 -0.289062,0.41797 -0.296875,1.30078 v 0.42969 q 0,0.92187 0.277344,1.34765 0.28125,0.42578 0.882813,0.42578 0.542968,0 0.808593,-0.24609 0.269532,-0.25 0.308594,-0.76953 z"
       style="font-weight:bold;font-size:8px;font-family:Roboto, sans-serif;letter-spacing:2px;fill:#333333"
       id="path575" />
  </g>
  <g
     id="use114"
     transform="translate(71,105)">
    <g
       id="g350"
       transform="translate(20,20)">
      <path
         transform="rotate(-90,-5.75,-5.75)"
         style="stroke:#333333;stroke-width:1"
         d="M 0,0 H 4"
         id="polyline340" />
      <path
         id="path342"
         transform="rotate(20)"
         d="M 0,-13.5 A 13.5,13.5 0 0 1 13.5,0"
         inkscape:connector-curvature="0"
         style="fill:none;stroke:#333333;stroke-width:0.5;stroke-linecap:round" />
      <path
         id="path344"
         transform="rotate(43)"
         d="M 0,-13.5 A 13.5,13.5 0 0 1 13.5,0"
         inkscape:connector-curvature="0"
         style="fill:none;stroke:#333333;stroke-width:0.5;stroke-linecap:round" />
      <path
         id="path346"
         transform="rotate(-20)"
         d="M 0,-13.5 A 13.5,13.5 0 0 0 -13.5,0"
         inkscape:connector-curvature="0"
         style="fill:none;stroke:#333333;stroke-width:0.5;stroke-linecap:round" />
      <path
         id="path348"
         transform="rotate(-43)"
         d="M 0,-13.5 A 13.5,13.5 0 0 0 -13.5,0"
         inkscape:connector-curvature="0"
         style="fill:none;stroke:#333333;stroke-width:0.5;stroke-linecap:round" />
    </g>
  </g>
  <g
     aria-label="3C"
     style="font-weight:bold;font-size:8px;font-family:Roboto, sans-serif;letter-spacing:2px;fill:#333333"
     id="text118">
    <path
       d="m 86.535156,157.65625 h 0.601563 q 0.429687,0 0.636718,-0.21484 0.207032,-0.21485 0.207032,-0.57032 0,-0.34375 -0.207032,-0.53515 -0.203125,-0.19141 -0.5625,-0.19141 -0.324218,0 -0.542968,0.17969 -0.21875,0.17578 -0.21875,0.46094 h -1.128907 q 0,-0.44532 0.238282,-0.79688 0.242187,-0.35547 0.671875,-0.55469 0.433593,-0.19922 0.953125,-0.19922 0.902343,0 1.414062,0.4336 0.511719,0.42969 0.511719,1.1875 0,0.39062 -0.238281,0.71875 -0.238282,0.32812 -0.625,0.5039 0.480468,0.17188 0.714843,0.51563 0.238282,0.34375 0.238282,0.8125 0,0.75781 -0.554688,1.21484 -0.550781,0.45703 -1.460937,0.45703 -0.851563,0 -1.394532,-0.44921 Q 85.25,160.17969 85.25,159.44141 h 1.128906 q 0,0.32031 0.238281,0.52343 0.242188,0.20313 0.59375,0.20313 0.402344,0 0.628907,-0.21094 0.230468,-0.21484 0.230468,-0.56641 0,-0.85156 -0.9375,-0.85156 h -0.597656 z"
       style="font-weight:bold;font-size:8px;font-family:Roboto, sans-serif;letter-spacing:2px;fill:#333333"
       id="path579" />
    <path
       d="m 96.566406,159.10547 q -0.06641,0.91797 -0.679687,1.44531 -0.609375,0.52734 -1.609375,0.52734 -1.09375,0 -1.722657,-0.73437 -0.625,-0.73828 -0.625,-2.02344 v -0.34765 q 0,-0.82032 0.289063,-1.44532 0.289062,-0.625 0.824219,-0.95703 0.539062,-0.33594 1.25,-0.33594 0.984375,0 1.585937,0.52735 0.601563,0.52734 0.695313,1.48047 h -1.171875 q -0.04297,-0.55078 -0.308594,-0.79688 -0.261719,-0.25 -0.800781,-0.25 -0.585938,0 -0.878907,0.42188 -0.289062,0.41797 -0.296875,1.30078 v 0.42969 q 0,0.92187 0.277344,1.34765 0.28125,0.42578 0.882813,0.42578 0.542968,0 0.808593,-0.24609 0.269532,-0.25 0.308594,-0.76953 z"
       style="font-weight:bold;font-size:8px;font-family:Roboto, sans-serif;letter-spacing:2px;fill:#333333"
       id="path581" />
  </g>
  <g
     id="use120"
     transform="translate(71,161)">
    <g
       id="g336"
       transform="translate(20,20)">
      <path
         transform="rotate(-90,-5.75,-5.75)"
         style="stroke:#333333;stroke-width:1"
         d="M 0,0 H 4"
         id="polyline326" />
      <path
         id="path328"
         transform="rotate(20)"
         d="M 0,-13.5 A 13.5,13.5 0 0 1 13.5,0"
         inkscape:connector-curvature="0"
         style="fill:none;stroke:#333333;stroke-width:0.5;stroke-linecap:round" />
      <path
         id="path330"
         transform="rotate(43)"
         d="M 0,-13.5 A 13.5,13.5 0 0 1 13.5,0"
         inkscape:connector-curvature="0"
         style="fill:none;stroke:#333333;stroke-width:0.5;stroke-linecap:round" />
      <path
         id="path332"
         transform="rotate(-20)"
         d="M 0,-13.5 A 13.5,13.5 0 0 0 -13.5,0"
         inkscape:connector-curvature="0"
         style="fill:none;stroke:#333333;stroke-width:0.5;stroke-linecap:round" />
      <path
         id="path334"
         transform="rotate(-43)"
         d="M 0,-13.5 A 13.5,13.5 0 0 0 -13.5,0"
         inkscape:connector-curvature="0"
         style="fill:none;stroke:#333333;stroke-width:0.5;stroke-linecap:round" />
    </g>
  </g>
  <g
     aria-label="4C"
     style="font-weight:bold;font-size:8px;font-family:Roboto, sans-serif;letter-spacing:2px;fill:#333333"
     id="text124">
    <path
       d="m 88.726562,214.85937 h 0.644532 v 0.91016 H 88.726562 V 217 h -1.128906 v -1.23047 h -2.332031 l -0.05078,-0.71094 2.371093,-3.74609 h 1.140625 z m -2.386718,0 h 1.257812 v -2.00781 l -0.07422,0.12891 z"
       style="font-weight:bold;font-size:8px;font-family:Roboto, sans-serif;letter-spacing:2px;fill:#333333"
       id="path585" />
    <path
       d="m 96.566406,215.10547 q -0.06641,0.91797 -0.679687,1.44531 -0.609375,0.52734 -1.609375,0.52734 -1.09375,0 -1.722657,-0.73437 -0.625,-0.73828 -0.625,-2.02344 v -0.34765 q 0,-0.82032 0.289063,-1.44532 0.289062,-0.625 0.824219,-0.95703 0.539062,-0.33594 1.25,-0.33594 0.984375,0 1.585937,0.52735 0.601563,0.52734 0.695313,1.48047 h -1.171875 q -0.04297,-0.55078 -0.308594,-0.79688 -0.261719,-0.25 -0.800781,-0.25 -0.585938,0 -0.878907,0.42188 -0.289062,0.41797 -0.296875,1.30078 v 0.42969 q 0,0.92187 0.277344,1.34765 0.28125,0.42578 0.882813,0.42578 0.542968,0 0.808593,-0.24609 0.269532,-0.25 0.308594,-0.76953 z"
       style="font-weight:bold;font-size:8px;font-family:Roboto, sans-serif;letter-spacing:2px;fill:#333333"
       id="path587" />
  </g>
  <g
     id="use126"
     transform="translate(71,217)">
    <g
       id="g322"
       transform="translate(20,20)">
      <path
         transform="rotate(-90,-5.75,-5.75)"
         style="stroke:#333333;stroke-width:1"
         d="M 0,0 H 4"
         id="polyline312" />
      <path
         id="path314"
         transform="rotate(20)"
         d="M 0,-13.5 A 13.5,13.5 0 0 1 13.5,0"
         inkscape:connector-curvature="0"
         style="fill:none;stroke:#333333;stroke-width:0.5;stroke-linecap:round" />
      <path
         id="path316"
         transform="rotate(43)"
         d="M 0,-13.5 A 13.5,13.5 0 0 1 13.5,0"
         inkscape:connector-curvature="0"
         style="fill:none;stroke:#333333;stroke-width:0.5;stroke-linecap:round" />
      <path
         id="path318"
         transform="rotate(-20)"
         d="M 0,-13.5 A 13.5,13.5 0 0 0 -13.5,0"
         inkscape:connector-curvature="0"
         style="fill:none;stroke:#333333;stroke-width:0.5;stroke-linecap:round" />
      <path
         id="path320"
         transform="rotate(-43)"
         d="M 0,-13.5 A 13.5,13.5 0 0 0 -13.5,0"
         inkscape:connector-curvature="0"
         style="fill:none;stroke:#333333;stroke-width:0.5;stroke-linecap:round" />
    </g>
  </g>
  <g
     aria-label="1D"
     style="font-weight:bold;font-size:8px;font-family:Roboto, sans-serif;letter-spacing:2px;fill:#333333"
     id="text130">
    <path
       d="M 120.12891,48.5 H 119 v -4.351563 l -1.34766,0.417969 v -0.917969 l 2.35547,-0.84375 h 0.1211 z"
       style="font-weight:bold;font-size:8px;font-family:Roboto, sans-serif;letter-spacing:2px;fill:#333333"
       id="path591" />
    <path
       d="m 124.10156,48.5 v -5.6875 h 1.75 q 0.75,0 1.33985,0.339844 0.59375,0.335937 0.92578,0.960937 0.33203,0.621094 0.33203,1.414063 v 0.261718 q 0,0.792969 -0.32813,1.410157 -0.32421,0.617187 -0.91796,0.957031 -0.59375,0.339844 -1.33985,0.34375 z m 1.17188,-4.738281 v 3.796875 h 0.5664 q 0.6875,0 1.05079,-0.449219 0.36328,-0.449219 0.37109,-1.285156 v -0.300782 q 0,-0.867187 -0.35938,-1.3125 -0.35937,-0.449218 -1.05078,-0.449218 z"
       style="font-weight:bold;font-size:8px;font-family:Roboto, sans-serif;letter-spacing:2px;fill:#333333"
       id="path593" />
  </g>
  <g
     id="use132"
     transform="translate(103,48.5)">
    <g
       id="g308"
       transform="translate(20,20)">
      <path
         transform="rotate(-90,-5.75,-5.75)"
         style="stroke:#333333;stroke-width:1"
         d="M 0,0 H 4"
         id="polyline298" />
      <path
         id="path300"
         transform="rotate(20)"
         d="M 0,-13.5 A 13.5,13.5 0 0 1 13.5,0"
         inkscape:connector-curvature="0"
         style="fill:none;stroke:#333333;stroke-width:0.5;stroke-linecap:round" />
      <path
         id="path302"
         transform="rotate(43)"
         d="M 0,-13.5 A 13.5,13.5 0 0 1 13.5,0"
         inkscape:connector-curvature="0"
         style="fill:none;stroke:#333333;stroke-width:0.5;stroke-linecap:round" />
      <path
         id="path304"
         transform="rotate(-20)"
         d="M 0,-13.5 A 13.5,13.5 0 0 0 -13.5,0"
         inkscape:connector-curvature="0"
         style="fill:none;stroke:#333333;stroke-width:0.5;stroke-linecap:round" />
      <path
         id="path306"
         transform="rotate(-43)"
         d="M 0,-13.5 A 13.5,13.5 0 0 0 -13.5,0"
         inkscape:connector-curvature="0"
         style="fill:none;stroke:#333333;stroke-width:0.5;stroke-linecap:round" />
    </g>
  </g>
  <g
     aria-label="2D"
     style="font-weight:bold;font-size:8px;font-family:Roboto, sans-serif;letter-spacing:2px;fill:#333333"
     id="text136">
    <path
       d="m 121.28516,105 h -3.89844 v -0.77344 l 1.83984,-1.96093 q 0.37891,-0.41407 0.5586,-0.72266 0.18359,-0.30859 0.18359,-0.58594 0,-0.3789 -0.19141,-0.59375 -0.1914,-0.21875 -0.54687,-0.21875 -0.38281,0 -0.60547,0.26563 -0.21875,0.26172 -0.21875,0.6914 h -1.13281 q 0,-0.51953 0.24609,-0.94922 0.25,-0.429684 0.70313,-0.671871 0.45312,-0.246094 1.02734,-0.246094 0.87891,0 1.36328,0.421875 0.48828,0.42188 0.48828,1.19141 0,0.42187 -0.21875,0.85937 -0.21875,0.4375 -0.75,1.01953 l -1.29297,1.36328 h 2.44532 z"
       style="font-weight:bold;font-size:8px;font-family:Roboto, sans-serif;letter-spacing:2px;fill:#333333"
       id="path597" />
    <path
       d="m 124.10156,105 v -5.6875 h 1.75 q 0.75,0 1.33985,0.339844 0.59375,0.335937 0.92578,0.960936 0.33203,0.6211 0.33203,1.41406 v 0.26172 q 0,0.79297 -0.32813,1.41016 -0.32421,0.61719 -0.91796,0.95703 -0.59375,0.33984 -1.33985,0.34375 z m 1.17188,-4.73828 v 3.79687 h 0.5664 q 0.6875,0 1.05079,-0.44921 0.36328,-0.44922 0.37109,-1.28516 v -0.30078 q 0,-0.86719 -0.35938,-1.3125 -0.35937,-0.44922 -1.05078,-0.44922 z"
       style="font-weight:bold;font-size:8px;font-family:Roboto, sans-serif;letter-spacing:2px;fill:#333333"
       id="path599" />
  </g>
  <g
     id="use138"
     transform="translate(103,105)">
    <g
       id="g294"
       transform="translate(20,20)">
      <path
         transform="rotate(-90,-5.75,-5.75)"
         style="stroke:#333333;stroke-width:1"
         d="M 0,0 H 4"
         id="polyline284" />
      <path
         id="path286"
         transform="rotate(20)"
         d="M 0,-13.5 A 13.5,13.5 0 0 1 13.5,0"
         inkscape:connector-curvature="0"
         style="fill:none;stroke:#333333;stroke-width:0.5;stroke-linecap:round" />
      <path
         id="path288"
         transform="rotate(43)"
         d="M 0,-13.5 A 13.5,13.5 0 0 1 13.5,0"
         inkscape:connector-curvature="0"
         style="fill:none;stroke:#333333;stroke-width:0.5;stroke-linecap:round" />
      <path
         id="path290"
         transform="rotate(-20)"
         d="M 0,-13.5 A 13.5,13.5 0 0 0 -13.5,0"
         inkscape:connector-curvature="0"
         style="fill:none;stroke:#333333;stroke-width:0.5;stroke-linecap:round" />
      <path
         id="path292"
         transform="rotate(-43)"
         d="M 0,-13.5 A 13.5,13.5 0 0 0 -13.5,0"
         inkscape:connector-curvature="0"
         style="fill:none;stroke:#333333;stroke-width:0.5;stroke-linecap:round" />
    </g>
  </g>
  <g
     aria-label="3D"
     style="font-weight:bold;font-size:8px;font-family:Roboto, sans-serif;letter-spacing:2px;fill:#333333"
     id="text142">
    <path
       d="m 118.53516,157.65625 h 0.60156 q 0.42969,0 0.63672,-0.21484 0.20703,-0.21485 0.20703,-0.57032 0,-0.34375 -0.20703,-0.53515 -0.20313,-0.19141 -0.5625,-0.19141 -0.32422,0 -0.54297,0.17969 -0.21875,0.17578 -0.21875,0.46094 h -1.12891 q 0,-0.44532 0.23828,-0.79688 0.24219,-0.35547 0.67188,-0.55469 0.43359,-0.19922 0.95312,-0.19922 0.90235,0 1.41407,0.4336 0.51172,0.42969 0.51172,1.1875 0,0.39062 -0.23829,0.71875 -0.23828,0.32812 -0.625,0.5039 0.48047,0.17188 0.71485,0.51563 0.23828,0.34375 0.23828,0.8125 0,0.75781 -0.55469,1.21484 -0.55078,0.45703 -1.46094,0.45703 -0.85156,0 -1.39453,-0.44921 -0.53906,-0.44922 -0.53906,-1.1875 h 1.12891 q 0,0.32031 0.23828,0.52343 0.24219,0.20313 0.59375,0.20313 0.40234,0 0.6289,-0.21094 0.23047,-0.21484 0.23047,-0.56641 0,-0.85156 -0.9375,-0.85156 h -0.59765 z"
       style="font-weight:bold;font-size:8px;font-family:Roboto, sans-serif;letter-spacing:2px;fill:#333333"
       id="path603" />
    <path
       d="m 124.10156,161 v -5.6875 h 1.75 q 0.75,0 1.33985,0.33984 0.59375,0.33594 0.92578,0.96094 0.33203,0.62109 0.33203,1.41406 v 0.26172 q 0,0.79297 -0.32813,1.41016 -0.32421,0.61719 -0.91796,0.95703 -0.59375,0.33984 -1.33985,0.34375 z m 1.17188,-4.73828 v 3.79687 h 0.5664 q 0.6875,0 1.05079,-0.44922 0.36328,-0.44921 0.37109,-1.28515 v -0.30078 q 0,-0.86719 -0.35938,-1.3125 -0.35937,-0.44922 -1.05078,-0.44922 z"
       style="font-weight:bold;font-size:8px;font-family:Roboto, sans-serif;letter-spacing:2px;fill:#333333"
       id="path605" />
  </g>
  <g
     id="use144"
     transform="translate(103,161)">
    <g
       id="g280"
       transform="translate(20,20)">
      <path
         transform="rotate(-90,-5.75,-5.75)"
         style="stroke:#333333;stroke-width:1"
         d="M 0,0 H 4"
         id="polyline270" />
      <path
         id="path272"
         transform="rotate(20)"
         d="M 0,-13.5 A 13.5,13.5 0 0 1 13.5,0"
         inkscape:connector-curvature="0"
         style="fill:none;stroke:#333333;stroke-width:0.5;stroke-linecap:round" />
      <path
         id="path274"
         transform="rotate(43)"
         d="M 0,-13.5 A 13.5,13.5 0 0 1 13.5,0"
         inkscape:connector-curvature="0"
         style="fill:none;stroke:#333333;stroke-width:0.5;stroke-linecap:round" />
      <path
         id="path276"
         transform="rotate(-20)"
         d="M 0,-13.5 A 13.5,13.5 0 0 0 -13.5,0"
         inkscape:connector-curvature="0"
         style="fill:none;stroke:#333333;stroke-width:0.5;stroke-linecap:round" />
      <path
         id="path278"
         transform="rotate(-43)"
         d="M 0,-13.5 A 13.5,13.5 0 0 0 -13.5,0"
         inkscape:connector-curvature="0"
         style="fill:none;stroke:#333333;stroke-width:0.5;stroke-linecap:round" />
    </g>
  </g>
  <g
     aria-label="4D"
     style="font-weight:bold;font-size:8px;font-family:Roboto, sans-serif;letter-spacing:2px;fill:#333333"
     id="text148">
    <path
       d="m 120.72656,214.85937 h 0.64453 v 0.91016 h -0.64453 V 217 h -1.1289 v -1.23047 h -2.33203 l -0.0508,-0.71094 2.3711,-3.74609 h 1.14062 z m -2.38672,0 h 1.25782 v -2.00781 l -0.0742,0.12891 z"
       style="font-weight:bold;font-size:8px;font-family:Roboto, sans-serif;letter-spacing:2px;fill:#333333"
       id="path609" />
    <path
       d="m 124.10156,217 v -5.6875 h 1.75 q 0.75,0 1.33985,0.33984 0.59375,0.33594 0.92578,0.96094 0.33203,0.62109 0.33203,1.41406 v 0.26172 q 0,0.79297 -0.32813,1.41016 -0.32421,0.61719 -0.91796,0.95703 -0.59375,0.33984 -1.33985,0.34375 z m 1.17188,-4.73828 v 3.79687 h 0.5664 q 0.6875,0 1.05079,-0.44922 0.36328,-0.44921 0.37109,-1.28515 v -0.30078 q 0,-0.86719 -0.35938,-1.3125 -0.35937,-0.44922 -1.05078,-0.44922 z"
       style="font-weight:bold;font-size:8px;font-family:Roboto, sans-serif;letter-spacing:2px;fill:#333333"
       id="path611" />
  </g>
  <g
     id="use150"
     transform="translate(103,217)">
    <g
       id="g266"
       transform="translate(20,20)">
      <path
         transform="rotate(-90,-5.75,-5.75)"
         style="stroke:#333333;stroke-width:1"
         d="M 0,0 H 4"
         id="polyline256" />
      <path
         id="path258"
         transform="rotate(20)"
         d="M 0,-13.5 A 13.5,13.5 0 0 1 13.5,0"
         inkscape:connector-curvature="0"
         style="fill:none;stroke:#333333;stroke-width:0.5;stroke-linecap:round" />
      <path
         id="path260"
         transform="rotate(43)"
         d="M 0,-13.5 A 13.5,13.5 0 0 1 13.5,0"
         inkscape:connector-curvature="0"
         style="fill:none;stroke:#333333;stroke-width:0.5;stroke-linecap:round" />
      <path
         id="path262"
         transform="rotate(-20)"
         d="M 0,-13.5 A 13.5,13.5 0 0 0 -13.5,0"
         inkscape:connector-curvature="0"
         style="fill:none;stroke:#333333;stroke-width:0.5;stroke-linecap:round" />
      <path
         id="path264"
         transform="rotate(-43)"
         d="M 0,-13.5 A 13.5,13.5 0 0 0 -13.5,0"
         inkscape:connector-curvature="0"
         style="fill:none;stroke:#333333;stroke-width:0.5;stroke-linecap:round" />
    </g>
  </g>
  <path
     style="fill:#bbbbbb"
     d="m 15,269 h 120 c 2.77,0 5,2.23 5,5 v 81 c 0,2.77 -2.23,5 -5,5 H 15 c -2.77,0 -5,-2.23 -5,-5 v -81 c 0,-2.77 2.23,-5 5,-5 z"
     id="rect154" />
  <path
     style="fill:#fafafa"
     d="m 15,269 h 120 c 2.77,0 5,2.23 5,5 v 34 c 0,2.77 -2.23,5 -5,5 H 15 c -2.77,0 -5,-2.23 -5,-5 v -34 c 0,-2.77 2.23,-5 5,-5 z"
     id="rect156" />
  <path
     style="fill:#fafafa"
     d="m 10,303 h 130 v 10 H 10 Z"
     id="rect158" />
  <g
     id="g162"
     transform="translate(12,269)">
    <g
       aria-label="1"
       transform="translate(12.5,40)"
       style="font-weight:bold;font-size:8px;font-family:Roboto, sans-serif;letter-spacing:1px;fill:#333333"
       id="text160">
      <path
         d="M 3.1289063,0 H 2 v -4.3515625 l -1.34765625,0.4179687 v -0.9179687 l 2.35546875,-0.84375 h 0.1210938 z"
         style="font-weight:bold;font-size:8px;font-family:Roboto, sans-serif;letter-spacing:1px;fill:#333333"
         id="path618" />
    </g>
  </g>
  <g
     id="g166"
     transform="translate(44,269)">
    <g
       aria-label="2"
       transform="translate(12.5,40)"
       style="font-weight:bold;font-size:8px;font-family:Roboto, sans-serif;letter-spacing:1px;fill:#333333"
       id="text164">
      <path
         d="M 4.2851562,0 H 0.38671875 V -0.7734375 L 2.2265625,-2.734375 Q 2.6054688,-3.1484375 2.7851563,-3.4570313 2.96875,-3.765625 2.96875,-4.0429687 q 0,-0.3789063 -0.1914062,-0.59375 -0.1914063,-0.21875 -0.546875,-0.21875 -0.3828126,0 -0.6054688,0.265625 -0.21875,0.2617187 -0.21875,0.6914062 H 0.2734375 q 0,-0.5195312 0.24609375,-0.9492187 0.25,-0.4296875 0.70312495,-0.671875 Q 1.6757812,-5.765625 2.25,-5.765625 q 0.8789063,0 1.3632813,0.421875 0.4882812,0.421875 0.4882812,1.1914063 0,0.4218749 -0.21875,0.8593749 -0.21875,0.4375 -0.75,1.0195313 l -1.2929688,1.36328125 h 2.4453125 z"
         style="font-weight:bold;font-size:8px;font-family:Roboto, sans-serif;letter-spacing:1px;fill:#333333"
         id="path621" />
    </g>
  </g>
  <g
     id="g170"
     transform="translate(76,269)">
    <g
       aria-label="3"
       transform="translate(12.5,40)"
       style="font-weight:bold;font-size:8px;font-family:Roboto, sans-serif;letter-spacing:1px;fill:#333333"
       id="text168">
      <path
         d="m 1.5351562,-3.34375 h 0.6015626 q 0.4296875,0 0.6367187,-0.2148438 0.2070313,-0.2148437 0.2070313,-0.5703124 0,-0.34375 -0.2070313,-0.5351563 -0.203125,-0.1914062 -0.5625,-0.1914062 -0.3242188,0 -0.5429688,0.1796875 Q 1.4492187,-4.5 1.4492187,-4.2148437 H 0.3203125 q 0,-0.4453125 0.23828125,-0.796875 0.2421875,-0.3554688 0.67187495,-0.5546875 0.4335938,-0.1992188 0.9531251,-0.1992188 0.9023437,0 1.4140625,0.4335938 0.5117187,0.4296875 0.5117187,1.1875 0,0.3906249 -0.2382812,0.7187499 -0.2382813,0.328125 -0.625,0.5039063 0.4804687,0.171875 0.7148437,0.515625 0.2382812,0.34375 0.2382812,0.8125 0,0.7578125 -0.5546874,1.21484375 Q 3.09375,0.078125 2.1835938,0.078125 q -0.8515626,0 -1.3945313,-0.44921875 Q 0.25,-0.8203125 0.25,-1.5585937 h 1.1289062 q 0,0.3203125 0.2382813,0.5234375 0.2421875,0.20312495 0.59375,0.20312495 0.4023438,0 0.6289063,-0.21093745 0.2304687,-0.2148438 0.2304687,-0.5664063 0,-0.8515625 -0.9375,-0.8515625 H 1.5351562 Z"
         style="font-weight:bold;font-size:8px;font-family:Roboto, sans-serif;letter-spacing:1px;fill:#333333"
         id="path624" />
    </g>
  </g>
  <g
     id="g174"
     transform="translate(108,269)">
    <g
       aria-label="4"
       transform="translate(12.4,40)"
       style="font-weight:bold;font-size:8px;font-family:Roboto, sans-serif;letter-spacing:1px;fill:#333333"
       id="text172">
      <path
         d="m 3.7265625,-2.140625 h 0.6445312 v 0.9101563 H 3.7265625 V 0 H 2.5976563 V -1.2304687 H 0.265625 L 0.21484375,-1.9414062 2.5859375,-5.6875 h 1.140625 z m -2.3867188,0 h 1.2578126 v -2.0078125 l -0.074219,0.1289063 z"
         style="font-weight:bold;font-size:8px;font-family:Roboto, sans-serif;letter-spacing:1px;fill:#333333"
         id="path627" />
    </g>
  </g>
  <g
     id="g192"
     transform="translate(10,313)">
    <g
       id="g178"
       transform="translate(2)">
      <g
         aria-label="A"
         transform="translate(12.2,40)"
         style="font-weight:bold;font-size:8px;font-family:Roboto, sans-serif;letter-spacing:1px;fill:#333333"
         id="text176">
        <path
           d="M 3.71875,-1.171875 H 1.6640625 L 1.2734375,0 H 0.02734375 L 2.1445313,-5.6875 H 3.2304688 L 5.359375,0 H 4.1132812 Z M 1.9804687,-2.1210938 H 3.4023438 L 2.6875,-4.25 Z"
           style="font-weight:bold;font-size:8px;font-family:Roboto, sans-serif;letter-spacing:1px;fill:#333333"
           id="path630" />
      </g>
    </g>
    <g
       id="g182"
       transform="translate(34)">
      <g
         aria-label="B"
         transform="translate(12.5,40)"
         style="font-weight:bold;font-size:8px;font-family:Roboto, sans-serif;letter-spacing:1px;fill:#333333"
         id="text180">
        <path
           d="M 0.5078125,0 V -5.6875 H 2.5 q 1.0351563,0 1.5703125,0.3984375 0.5351562,0.3945313 0.5351562,1.1601563 0,0.4179687 -0.2148437,0.7382812 -0.2148438,0.3164062 -0.5976562,0.4648437 0.4374999,0.109375 0.6874999,0.4414063 0.2539063,0.3320312 0.2539063,0.8125 0,0.8203125 -0.5234375,1.2421875 Q 3.6875,-0.0078125 2.71875,0 Z m 1.171875,-2.4765625 v 1.53515625 h 1.0039063 q 0.4140625,0 0.6445312,-0.19531245 0.234375,-0.1992188 0.234375,-0.546875 0,-0.7812501 -0.8085937,-0.7929688 z m 0,-0.828125 H 2.546875 q 0.8867188,-0.015625 0.8867188,-0.7070312 0,-0.3867188 -0.2265625,-0.5546875 Q 2.984375,-4.7382812 2.5,-4.7382812 H 1.6796875 Z"
           style="font-weight:bold;font-size:8px;font-family:Roboto, sans-serif;letter-spacing:1px;fill:#333333"
           id="path633" />
      </g>
    </g>
    <g
       id="g186"
       transform="translate(66)">
      <g
         aria-label="C"
         transform="translate(12.3,40)"
         style="font-weight:bold;font-size:8px;font-family:Roboto, sans-serif;letter-spacing:1px;fill:#333333"
         id="text184">
        <path
           d="M 4.9726562,-1.8945312 Q 4.90625,-0.9765625 4.2929687,-0.44921875 3.6835938,0.078125 2.6835938,0.078125 q -1.0937501,0 -1.7226563,-0.734375 -0.625,-0.7382812 -0.625,-2.0234375 v -0.3476563 q 0,-0.8203125 0.2890625,-1.4453124 0.2890625,-0.625 0.8242187,-0.9570313 0.5390625,-0.3359375 1.2500001,-0.3359375 0.984375,0 1.5859374,0.5273438 0.6015625,0.5273437 0.6953125,1.4804687 H 3.8085938 Q 3.765625,-4.3085937 3.5,-4.5546875 q -0.2617187,-0.25 -0.8007812,-0.25 -0.5859375,0 -0.8789063,0.421875 -0.2890625,0.4179687 -0.296875,1.3007812 v 0.4296875 q 0,0.9218751 0.2773437,1.3476563 0.2812501,0.42578125 0.8828126,0.42578125 0.5429687,0 0.8085937,-0.24609375 0.2695313,-0.25 0.3085938,-0.7695312 z"
           style="font-weight:bold;font-size:8px;font-family:Roboto, sans-serif;letter-spacing:1px;fill:#333333"
           id="path636" />
      </g>
    </g>
    <g
       id="g190"
       transform="translate(98)">
      <g
         aria-label="D"
         transform="translate(12.3,40)"
         style="font-weight:bold;font-size:8px;font-family:Roboto, sans-serif;letter-spacing:1px;fill:#333333"
         id="text188">
        <path
           d="m 0.5078125,0 v -5.6875 h 1.75 q 0.75,0 1.3398438,0.3398438 0.5937499,0.3359375 0.9257812,0.9609375 0.3320312,0.6210937 0.3320312,1.4140624 v 0.2617188 q 0,0.7929688 -0.328125,1.4101563 Q 4.203125,-0.68359375 3.609375,-0.34375 3.015625,-0.00390625 2.2695313,0 Z m 1.171875,-4.7382812 v 3.79687495 h 0.5664063 q 0.6875,0 1.0507812,-0.44921875 0.3632813,-0.4492187 0.3710938,-1.2851563 v -0.3007812 q 0,-0.8671875 -0.359375,-1.3125 -0.359375,-0.4492187 -1.0507813,-0.4492187 z"
           style="font-weight:bold;font-size:8px;font-family:Roboto, sans-serif;letter-spacing:1px;fill:#333333"
           id="path639" />
      </g>
    </g>
  </g>
  <!-- <polyline points="0,0 0,380" stroke-width="1" stroke="#0f0" transform="translate(27 0)" /> -->
  <!-- <polyline points="0,0 0,380" stroke-width="1" stroke="#0f0" transform="translate(59 0)" /> -->
  <!-- <polyline points="0,0 0,380" stroke-width="1" stroke="#0f0" transform="translate(91 0)" /> -->
  <!-- <polyline points="0,0 0,380" stroke-width="1" stroke="#0f0" transform="translate(123 0)" /> -->
</svg>
