<?xml version="1.0" encoding="UTF-8" standalone="no"?>
<svg xmlns:dc="http://purl.org/dc/elements/1.1/" xmlns:cc="http://creativecommons.org/ns#" xmlns:rdf="http://www.w3.org/1999/02/22-rdf-syntax-ns#" xmlns:svg="http://www.w3.org/2000/svg" xmlns="http://www.w3.org/2000/svg" xmlns:sodipodi="http://sodipodi.sourceforge.net/DTD/sodipodi-0.dtd" xmlns:inkscape="http://www.inkscape.org/namespaces/inkscape" inkscape:version="1.0 (4035a4f, 2020-05-01)" sodipodi:docname="svg_render_Mix1-pp.svg" id="svg23393" viewBox="0 0 45 380" height="380" width="45" version="1.1">
  <metadata id="metadata23399">
    <rdf:RDF>
      <cc:Work rdf:about="">
        <dc:format>image/svg+xml</dc:format>
        <dc:type rdf:resource="http://purl.org/dc/dcmitype/StillImage"/>
      </cc:Work>
    </rdf:RDF>
  </metadata>
  <defs id="defs23397"/>
  <sodipodi:namedview inkscape:current-layer="svg23393" inkscape:window-maximized="0" inkscape:window-y="23" inkscape:window-x="0" inkscape:cy="190" inkscape:cx="22.5" inkscape:zoom="1.7605263" showgrid="false" id="namedview23395" inkscape:window-height="480" inkscape:window-width="689" inkscape:pageshadow="2" inkscape:pageopacity="0" guidetolerance="10" gridtolerance="10" objecttolerance="10" borderopacity="1" bordercolor="#666666" pagecolor="#ffffff"/>
  
  <path class="module-background background-fill" d="M 0,0 H 45 V 380 H 0 Z" style="fill:#dddddd" id="rect23287"/>
  <path class="module-border-inner" d="M 1,1 H 44 V 379 H 1 V 1" style="fill:none;stroke:#e4e4e4;stroke-width:0.5" id="polyline23289"/>
  <path class="module-border-middle" d="m 0.5,0.5 h 44 v 379 H 0.5 V 0.5" style="fill:none;stroke:#ebebeb;stroke-width:0.8" id="polyline23291"/>
  <path class="module-border-outer" d="M 0,0 H 45 V 380 H 0 V 0" style="fill:none;stroke:#f2f2f2;stroke-width:1" id="polyline23293"/>
  <g class="title" style="font-weight:normal;font-size:9.33333px;font-family:Comfortaa, sans-serif;letter-spacing:2.5px;fill:#333333" id="text23295" transform="rotate(-90)" aria-label="MIX1">
    <path id="path23537" style="font-weight:normal;font-size:9.33333px;font-family:Comfortaa, sans-serif;letter-spacing:2.5px;fill:#333333" d="m -368.132,5.7106691 q 0.14933,0 0.252,0.1026667 0.10266,0.1026666 0.10266,0.2613332 V 12.636 q 0,0.149333 -0.10266,0.261333 Q -367.98267,13 -368.132,13 q -0.15867,0 -0.27067,-0.102667 -0.10267,-0.112 -0.10267,-0.261333 V 7.3533353 L -371.1,12.654667 q -0.112,0.177333 -0.31733,0.177333 -0.23334,0 -0.336,-0.224 l -2.58534,-5.1706648 V 12.636 q 0,0.149333 -0.10266,0.261333 Q -374.544,13 -374.70267,13 q -0.14933,0 -0.26133,-0.102667 -0.10267,-0.112 -0.10267,-0.261333 V 6.074669 q 0,-0.1586666 0.10267,-0.2613332 0.112,-0.1026667 0.26133,-0.1026667 0.21467,0 0.32667,0.1866667 l 2.98667,5.9359982 2.93066,-5.9359982 q 0.112,-0.1866667 0.32667,-0.1866667 z"/>
    <path id="path23539" style="font-weight:normal;font-size:9.33333px;font-family:Comfortaa, sans-serif;letter-spacing:2.5px;fill:#333333" d="m -363.05163,13 q -0.14933,0 -0.26133,-0.102667 -0.10267,-0.112 -0.10267,-0.261333 V 6.074669 q 0,-0.1586666 0.10267,-0.2613332 0.112,-0.1026667 0.26133,-0.1026667 0.15867,0 0.26133,0.1026667 0.10267,0.1026666 0.10267,0.2613332 V 12.636 q 0,0.149333 -0.10267,0.261333 Q -362.89296,13 -363.05163,13 Z"/>
    <path id="path23541" style="font-weight:normal;font-size:9.33333px;font-family:Comfortaa, sans-serif;letter-spacing:2.5px;fill:#333333" d="m -353.16576,12.412 q 0.084,0.112 0.084,0.233333 0,0.149334 -0.0933,0.252 Q -353.26842,13 -353.42709,13 q -0.18667,0 -0.28,-0.130667 l -2.23067,-3.0893319 -2.27733,3.1079989 q -0.0933,0.112 -0.26133,0.112 -0.15867,0 -0.252,-0.09333 -0.0933,-0.102667 -0.0933,-0.242667 0,-0.14 0.084,-0.252 l 2.30534,-3.1359987 -2.156,-2.995999 q -0.0747,-0.1213333 -0.0747,-0.2239999 0,-0.14 0.0933,-0.2426666 0.0933,-0.1026667 0.24267,-0.1026667 0.18667,0 0.28,0.1306667 l 2.11867,2.9306656 2.14666,-2.9306656 q 0.10267,-0.1306667 0.28,-0.1306667 0.14934,0 0.24267,0.112 0.0933,0.1026666 0.0933,0.2426666 0,0.1213333 -0.0653,0.2146666 l -2.20267,2.9866656 z"/>
    <path id="path23543" style="font-weight:normal;font-size:9.33333px;font-family:Comfortaa, sans-serif;letter-spacing:2.5px;fill:#333333" d="m -347.9308,13 q -0.14933,0 -0.26133,-0.102667 -0.10267,-0.112 -0.10267,-0.261333 V 6.5693355 l -0.93333,0.3266666 q -0.0933,0.046667 -0.18667,0.046667 -0.15866,0 -0.26133,-0.093333 -0.10267,-0.1026666 -0.10267,-0.2613332 0,-0.2706666 0.23334,-0.3453332 l 1.43733,-0.4946665 q 0.14,-0.046667 0.18666,-0.046667 0.14934,0 0.252,0.1026667 0.10267,0.1026666 0.10267,0.2613332 V 12.636 q 0,0.149333 -0.10267,0.261333 Q -347.77213,13 -347.9308,13 Z"/>
  </g>
  <g transform="rotate(-90,200.5,175.5)" id="g23301">
    <g class="brand" style="font-weight:bold;font-size:9.33333px;font-family:Audiowide, sans-serif;letter-spacing:2px;fill:#333333" id="text23297" aria-label="BGA">
      <path id="path23529" style="font-weight:bold;font-size:9.33333px;font-family:Audiowide, sans-serif;letter-spacing:2px;fill:#333333" d="m 7.209633,-1.4355464 q 0,0.2187499 -0.077474,0.4694009 -0.072917,0.25065095 -0.2460936,0.46484359 Q 6.7174456,-0.28710928 6.4440082,-0.14127599 6.1705708,0 5.7740866,0 H 1.2760412 Q 1.1484371,0 1.0390621,-0.0455729 0.92968718,-0.0911458 0.84765596,-0.16861973 0.77018203,-0.25065096 0.72460913,-0.36002592 0.67903623,-0.46940088 0.67903623,-0.597005 v -5.341144 q 0,-0.1230469 0.0455729,-0.2324218 0.0455729,-0.109375 0.12304683,-0.1914062 0.0820312,-0.082031 0.19140614,-0.1276041 0.109375,-0.045573 0.2369791,-0.045573 h 3.9648424 q 0.21875,0 0.4694009,0.077474 0.250651,0.077474 0.4648436,0.250651 0.2187499,0.1686197 0.3600259,0.4420571 0.1458333,0.2734374 0.1458333,0.6699217 v 0.2233072 q 0,0.314453 -0.1048177,0.6790362 -0.1048176,0.3600259 -0.3372394,0.6835935 0.2005207,0.1230468 0.3736978,0.2962239 0.1777343,0.173177 0.3098957,0.4010415 0.1321614,0.2278645 0.2096353,0.5149738 0.077474,0.2871093 0.077474,0.6334633 z M 6.0247375,-1.6634109 q 0,-0.2324218 -0.072917,-0.4147134 Q 5.8789042,-2.2649732 5.7467428,-2.3971346 5.6145814,-2.529296 5.4277325,-2.5976554 5.2408836,-2.670572 5.0084618,-2.670572 h -2.670572 v -1.19401 h 2.1373691 q 0.2324218,0 0.4192707,-0.068359 0.1868489,-0.072917 0.3190103,-0.205078 0.1321614,-0.1321614 0.2005208,-0.314453 0.072917,-0.1868489 0.072917,-0.4192707 v -0.2233072 q 0,-0.2552083 -0.2460937,-0.2552083 H 1.8639317 v 4.1653632 h 3.9101549 q 0.031901,0 0.077474,-0.00456 0.045573,-0.00456 0.082031,-0.027344 0.036458,-0.022786 0.063802,-0.077474 0.027344,-0.054687 0.027344,-0.1503906 z"/>
      <path id="path23531" style="font-weight:bold;font-size:9.33333px;font-family:Audiowide, sans-serif;letter-spacing:2px;fill:#333333" d="m 16.683589,-0.597005 q 0,0.12760412 -0.04557,0.23697908 -0.04557,0.10937496 -0.127605,0.19140619 -0.07747,0.07747393 -0.186849,0.12304683 Q 16.214189,0 16.086584,0 h -4.274738 q -0.164062,0 -0.355468,-0.03645832 -0.186849,-0.04101561 -0.373698,-0.12304683 -0.182292,-0.0820312 -0.350911,-0.20963535 -0.16862,-0.13216141 -0.300782,-0.31445302 -0.127604,-0.18684889 -0.205078,-0.42838528 -0.07747,-0.2460937 -0.07747,-0.5514321 v -3.2083322 q 0,-0.1640625 0.03646,-0.3509114 0.04101,-0.1914062 0.123047,-0.3736978 0.08203,-0.1868489 0.214192,-0.3554686 0.132162,-0.1686197 0.314453,-0.2962238 0.186849,-0.1321615 0.428385,-0.2096354 0.241537,-0.077474 0.546875,-0.077474 h 4.817056 v 1.1848954 h -4.817056 q -0.232422,0 -0.355468,0.1230468 -0.123047,0.1230469 -0.123047,0.3645832 v 3.1992177 q 0,0.2278645 0.123047,0.3554686 0.127604,0.1230469 0.355468,0.1230469 h 3.686848 V -2.670572 h -3.153645 v -1.19401 h 3.741535 q 0.127605,0 0.236979,0.05013 0.109375,0.045573 0.186849,0.1276041 0.08203,0.082031 0.127605,0.1914062 0.04557,0.1048177 0.04557,0.2278645 z"/>
      <path id="path23533" style="font-weight:bold;font-size:9.33333px;font-family:Audiowide, sans-serif;letter-spacing:2px;fill:#333333" d="M 26.339836,0 H 25.154941 V -1.6041661 H 20.989578 V 0 h -1.184896 v -3.267577 q 0,-0.7154946 0.246094,-1.3170569 0.246094,-0.6015623 0.683593,-1.0345048 0.4375,-0.4329426 1.034505,-0.6744789 0.597005,-0.2415364 1.303385,-0.2415364 h 2.670572 q 0.123047,0 0.232422,0.045573 0.109375,0.045573 0.191406,0.1276041 0.08203,0.082031 0.127604,0.1914062 0.04557,0.1093749 0.04557,0.2324218 z m -5.350258,-2.7890616 h 4.165363 v -2.561197 h -2.082682 q -0.05469,0 -0.232422,0.018229 -0.173177,0.013672 -0.405598,0.077474 -0.227865,0.063802 -0.483073,0.1959635 -0.255208,0.1321614 -0.469401,0.3645832 -0.214193,0.2324218 -0.355469,0.5833331 -0.136718,0.3463541 -0.136718,0.8430987 z"/>
    </g>
    <path d="M 0,0 H 3 V 3 H 0 Z" style="fill:#dddddd" transform="translate(11.5,-5)" id="rect23299"/>
  </g>
  <g transform="translate(0,18)" id="g23355">
    <g transform="translate(0,6.5)" id="g23309">
      <path d="M 0,0 H 6.5" style="fill:none;stroke:#333333" transform="translate(10.5)" id="polyline23305"/>
      <path d="M 0,0 H 6.5" style="fill:none;stroke:#333333" transform="translate(28)" id="polyline23307"/>
    </g>
    <g transform="translate(0,19.05)" id="g23317">
      <path d="M 0,0 H 6.5" style="fill:none;stroke:#333333" transform="translate(10.5)" id="polyline23311"/>
      <path d="M 0,0 H 6.5" style="fill:none;stroke:#333333" transform="translate(28)" id="polyline23313"/>
      <g style="font-weight:bold;font-size:8px;font-family:Roboto, sans-serif;fill:#333333" id="text23315" transform="translate(4.5,2.6)" aria-label="0">
        <path id="path23487" style="font-weight:bold;font-size:8px;font-family:Roboto, sans-serif;fill:#333333" d="m 4.2148437,-2.3515625 q 0,1.1796875 -0.4882812,1.8046875 -0.4882812,0.625 -1.4296875,0.625 -0.9296875,0 -1.421875,-0.61328125 Q 0.3828125,-1.1484375 0.37109375,-2.2929688 v -1.046875 q 0,-1.1914062 0.4921875,-1.8085937 Q 1.359375,-5.765625 2.2890625,-5.765625 q 0.9296875,0 1.421875,0.6132813 0.4921875,0.609375 0.5039062,1.7539062 z M 3.0859375,-3.5 q 0,-0.7070312 -0.1953125,-1.0273437 -0.1914062,-0.3242188 -0.6015625,-0.3242188 -0.3984375,0 -0.5898438,0.3085938 Q 1.5117187,-4.2382812 1.5,-3.5859375 v 1.3828125 q 0,0.6953125 0.1875,1.0351563 0.1914062,0.33593745 0.609375,0.33593745 0.4140625,0 0.5976563,-0.32421875 0.1835937,-0.3242187 0.1914062,-0.9921875 z"/>
      </g>
    </g>
    <g transform="translate(0,32.86)" id="g23325">
      <path d="M 0,0 H 6.5" style="fill:none;stroke:#333333" transform="translate(10.5)" id="polyline23319"/>
      <path d="M 0,0 H 6.5" style="fill:none;stroke:#333333" transform="translate(28)" id="polyline23321"/>
      <g style="font-weight:bold;font-size:8px;font-family:Roboto, sans-serif;fill:#333333" id="text23323" transform="rotate(-90,6.6,-2.6)" aria-label="-6">
        <path id="path23492" style="font-weight:bold;font-size:8px;font-family:Roboto, sans-serif;fill:#333333" d="M 2.6289063,-1.9804687 H 0.4296875 V -2.890625 h 2.1992188 z"/>
        <path id="path23494" style="font-weight:bold;font-size:8px;font-family:Roboto, sans-serif;fill:#333333" d="m 6.5585937,-5.7460937 v 0.9296875 h -0.109375 q -0.765625,0.011719 -1.234375,0.3984375 Q 4.75,-4.03125 4.65625,-3.34375 q 0.453125,-0.4609375 1.1445312,-0.4609375 0.7421875,0 1.1796875,0.53125 0.4375,0.53125 0.4375,1.3984375 0,0.5546875 -0.2421875,1.00390625 Q 6.9375,-0.421875 6.4960937,-0.171875 q -0.4375,0.25 -0.9921875,0.25 -0.8984375,0 -1.453125,-0.625 Q 3.5,-1.171875 3.5,-2.2148438 v -0.40625 q 0,-0.9257812 0.3476563,-1.6328124 0.3515624,-0.7109375 1.0039062,-1.0976563 0.65625,-0.390625 1.5195312,-0.3945312 z m -1.1015625,2.8476562 q -0.2734375,0 -0.4960937,0.1445312 -0.2226563,0.140625 -0.328125,0.375 v 0.34375 q 0,0.5664063 0.2226562,0.8867188 0.2226563,0.31640625 0.625,0.31640625 0.3632813,0 0.5859375,-0.28515625 0.2265625,-0.2890625 0.2265625,-0.7460937 0,-0.4648438 -0.2265625,-0.7500001 -0.2265625,-0.2851562 -0.609375,-0.2851562 z"/>
      </g>
    </g>
    <g transform="translate(0,46.05)" id="g23333">
      <path d="M 0,0 H 6.5" style="fill:none;stroke:#333333" transform="translate(10.5)" id="polyline23327"/>
      <path d="M 0,0 H 6.5" style="fill:none;stroke:#333333" transform="translate(28)" id="polyline23329"/>
      <g style="font-weight:bold;font-size:8px;font-family:Roboto, sans-serif;fill:#333333" id="text23331" transform="rotate(-90,8.1,-1.1)" aria-label="-12">
        <path id="path23499" style="font-weight:bold;font-size:8px;font-family:Roboto, sans-serif;fill:#333333" d="M 2.6289063,-1.9804687 H 0.4296875 V -2.890625 h 2.1992188 z"/>
        <path id="path23501" style="font-weight:bold;font-size:8px;font-family:Roboto, sans-serif;fill:#333333" d="M 6.2382812,0 H 5.109375 v -4.3515625 l -1.3476562,0.4179687 v -0.9179687 l 2.3554687,-0.84375 h 0.1210937 z"/>
        <path id="path23503" style="font-weight:bold;font-size:8px;font-family:Roboto, sans-serif;fill:#333333" d="M 11.988281,0 H 8.0898438 V -0.7734375 L 9.9296875,-2.734375 q 0.3789065,-0.4140625 0.5585935,-0.7226563 0.183594,-0.3085937 0.183594,-0.5859374 0,-0.3789063 -0.191406,-0.59375 -0.191406,-0.21875 -0.5468752,-0.21875 -0.3828125,0 -0.6054688,0.265625 -0.21875,0.2617187 -0.21875,0.6914062 H 7.9765625 q 0,-0.5195312 0.2460938,-0.9492187 0.25,-0.4296875 0.703125,-0.671875 0.453125,-0.2460938 1.0273437,-0.2460938 0.878906,0 1.363281,0.421875 0.488282,0.421875 0.488282,1.1914063 0,0.4218749 -0.21875,0.8593749 -0.21875,0.4375 -0.75,1.0195313 l -1.2929692,1.36328125 h 2.4453122 z"/>
      </g>
    </g>
    <g transform="translate(0,72.41)" id="g23341">
      <path d="M 0,0 H 6.5" style="fill:none;stroke:#333333" transform="translate(10.5)" id="polyline23335"/>
      <path d="M 0,0 H 6.5" style="fill:none;stroke:#333333" transform="translate(28)" id="polyline23337"/>
      <g style="font-weight:bold;font-size:8px;font-family:Roboto, sans-serif;fill:#333333" id="text23339" transform="rotate(-90,8.1,-1.1)" aria-label="-24">
        <path id="path23508" style="font-weight:bold;font-size:8px;font-family:Roboto, sans-serif;fill:#333333" d="M 2.6289063,-1.9804687 H 0.4296875 V -2.890625 h 2.1992188 z"/>
        <path id="path23510" style="font-weight:bold;font-size:8px;font-family:Roboto, sans-serif;fill:#333333" d="M 7.3945312,0 H 3.4960938 V -0.7734375 L 5.3359375,-2.734375 Q 5.7148437,-3.1484375 5.8945312,-3.4570313 6.078125,-3.765625 6.078125,-4.0429687 q 0,-0.3789063 -0.1914063,-0.59375 -0.1914062,-0.21875 -0.546875,-0.21875 -0.3828125,0 -0.6054687,0.265625 -0.21875,0.2617187 -0.21875,0.6914062 H 3.3828125 q 0,-0.5195312 0.2460938,-0.9492187 0.25,-0.4296875 0.7031249,-0.671875 0.453125,-0.2460938 1.0273438,-0.2460938 0.8789062,0 1.3632812,0.421875 0.4882813,0.421875 0.4882813,1.1914063 0,0.4218749 -0.21875,0.8593749 -0.21875,0.4375 -0.75,1.0195313 l -1.2929688,1.36328125 h 2.4453125 z"/>
        <path id="path23512" style="font-weight:bold;font-size:8px;font-family:Roboto, sans-serif;fill:#333333" d="m 11.429688,-2.140625 h 0.644531 v 0.9101563 H 11.429688 V 0 H 10.300781 V -1.2304687 H 7.96875 L 7.9179687,-1.9414062 10.289063,-5.6875 h 1.140625 z m -2.3867192,0 h 1.2578122 v -2.0078125 l -0.07422,0.1289063 z"/>
      </g>
    </g>
    <g transform="translate(0,125.14)" id="g23349">
      <path d="M 0,0 H 6.5" style="fill:none;stroke:#333333" transform="translate(10.5)" id="polyline23343"/>
      <path d="M 0,0 H 6.5" style="fill:none;stroke:#333333" transform="translate(28)" id="polyline23345"/>
      <g style="font-weight:bold;font-size:8px;font-family:Roboto, sans-serif;fill:#333333" id="text23347" transform="rotate(-90,8.1,-1.1)" aria-label="-48">
        <path id="path23517" style="font-weight:bold;font-size:8px;font-family:Roboto, sans-serif;fill:#333333" d="M 2.6289063,-1.9804687 H 0.4296875 V -2.890625 h 2.1992188 z"/>
        <path id="path23519" style="font-weight:bold;font-size:8px;font-family:Roboto, sans-serif;fill:#333333" d="m 6.8359375,-2.140625 h 0.6445312 v 0.9101563 H 6.8359375 V 0 H 5.7070312 V -1.2304687 H 3.375 L 3.3242188,-1.9414062 5.6953125,-5.6875 h 1.140625 z m -2.3867188,0 h 1.2578125 v -2.0078125 l -0.074219,0.1289063 z"/>
        <path id="path23521" style="font-weight:bold;font-size:8px;font-family:Roboto, sans-serif;fill:#333333" d="m 11.796875,-4.1757812 q 0,0.4140624 -0.207031,0.7343749 -0.207031,0.3203125 -0.570313,0.5117188 0.414063,0.1992187 0.65625,0.5507812 0.242188,0.3476563 0.242188,0.8203126 0,0.75781245 -0.515625,1.1992187 -0.515625,0.4375 -1.402344,0.4375 -0.8867187,0 -1.40625,-0.44140625 -0.5195312,-0.44140625 -0.5195312,-1.19531245 0,-0.4726563 0.2421875,-0.8242188 0.2421875,-0.3515625 0.6523437,-0.546875 -0.3632812,-0.1914063 -0.5703125,-0.5117188 -0.203125,-0.3203125 -0.203125,-0.7343749 0,-0.7265625 0.484375,-1.15625 0.484375,-0.4335938 1.3164063,-0.4335938 0.8281252,0 1.3125002,0.4296875 0.488281,0.4257813 0.488281,1.1601563 z m -1.011719,2.5351562 q 0,-0.3710938 -0.214843,-0.59375 -0.214844,-0.2226563 -0.5781255,-0.2226563 -0.359375,0 -0.5742187,0.2226563 -0.2148438,0.21875 -0.2148438,0.59375 0,0.3632813 0.2109375,0.5859375 Q 9.625,-0.83203125 10,-0.83203125 q 0.367188,0 0.574219,-0.21484375 0.210937,-0.2148437 0.210937,-0.59375 z m -0.117187,-2.4804687 q 0,-0.3320313 -0.175781,-0.53125 -0.175782,-0.203125 -0.4960942,-0.203125 -0.3164063,0 -0.4921875,0.1953125 -0.1757813,0.1953125 -0.1757813,0.5390625 0,0.3398437 0.1757813,0.5468749 Q 9.6796875,-3.3671875 10,-3.3671875 q 0.320313,0 0.492188,-0.2070313 0.175781,-0.2070312 0.175781,-0.5468749 z"/>
      </g>
    </g>
    <g transform="translate(0,151.5)" id="g23353">
      <g style="font-weight:bold;font-size:8px;font-family:Roboto, sans-serif;fill:#333333" id="text23351" transform="rotate(-90,5,-6)" aria-label="dB">
        <path id="path23524" style="font-weight:bold;font-size:8px;font-family:Roboto, sans-serif;fill:#333333" d="m 0.2578125,-2.1445313 q 0,-0.9882812 0.44140625,-1.5742187 0.44531245,-0.5859375 1.21484375,-0.5859375 0.6171875,0 1.0195313,0.4609375 V -6 H 4.0664062 V 0 H 3.046875 L 2.9921875,-0.44921875 Q 2.5703125,0.078125 1.90625,0.078125 q -0.7460938,0 -1.19921875,-0.5859375 Q 0.2578125,-1.0976562 0.2578125,-2.1445313 Z M 1.3867187,-2.0625 q 0,0.59375 0.2070313,0.9101563 0.2070312,0.3164062 0.6015625,0.3164062 0.5234375,0 0.7382813,-0.4414062 V -2.9453125 Q 2.7226563,-3.3867188 2.203125,-3.3867188 q -0.8164063,0 -0.8164063,1.3242188 z"/>
        <path id="path23526" style="font-weight:bold;font-size:8px;font-family:Roboto, sans-serif;fill:#333333" d="M 5.0234375,0 V -5.6875 H 7.015625 q 1.0351563,0 1.5703125,0.3984375 0.5351563,0.3945313 0.5351563,1.1601563 0,0.4179687 -0.2148438,0.7382812 -0.2148437,0.3164062 -0.5976562,0.4648437 0.4375,0.109375 0.6875,0.4414063 Q 9.25,-2.1523438 9.25,-1.671875 9.25,-0.8515625 8.7265625,-0.4296875 8.203125,-0.0078125 7.234375,0 Z m 1.171875,-2.4765625 v 1.53515625 h 1.0039062 q 0.4140625,0 0.6445313,-0.19531245 0.234375,-0.1992188 0.234375,-0.546875 0,-0.7812501 -0.8085938,-0.7929688 z m 0,-0.828125 H 7.0625 q 0.8867187,-0.015625 0.8867187,-0.7070312 0,-0.3867188 -0.2265625,-0.5546875 Q 7.5,-4.7382812 7.015625,-4.7382812 H 6.1953125 Z"/>
      </g>
    </g>
  </g>
  <g transform="translate(13.5,18)" id="g23357"/>
  <g class="io-group" transform="translate(5.5,173)" id="g23379">
    <path class="input-background-filler" d="M 0,0 H 34 V 10 H 0 Z" style="fill:#fafafa" transform="translate(0,120)" id="rect23361"/>
    <path class="input-background" d="m 5,0 h 24 c 2.77,0 5,2.23 5,5 v 117 c 0,2.77 -2.23,5 -5,5 H 5 c -2.77,0 -5,-2.23 -5,-5 V 5 C 0,2.23 2.23,0 5,0 Z" style="fill:#fafafa" id="rect23363"/>
    <g transform="translate(8,3)" id="g23365"/>
    <g transform="translate(5,25)" id="g23367"/>
    <g class="input-label" style="font-weight:bold;font-size:6.66667px;font-family:Roboto, sans-serif;letter-spacing:2px;fill:#333333" id="text23369" transform="translate(5,57)" aria-label="MUTE">
      <path id="path23458" style="font-weight:bold;font-size:6.66667px;font-family:Roboto, sans-serif;letter-spacing:2px;fill:#333333" d="m 1.6992196,-4.7395856 1.2174485,3.4375016 1.210938,-3.4375016 H 5.4101588 V 0 H 4.4303407 V -1.2955735 L 4.527997,-3.5319027 3.2486995,0 H 2.5781262 l -1.2760422,-3.5286475 0.097656,2.233074 V 0 H 0.42317729 v -4.7395856 z"/>
      <path id="path23460" style="font-weight:bold;font-size:6.66667px;font-family:Roboto, sans-serif;letter-spacing:2px;fill:#333333" d="m 11.856775,-4.7395856 v 3.1217463 q 0,0.77799515 -0.488281,1.23046932 -0.485026,0.45247418 -1.328126,0.45247418 -0.8300782,0 -1.3183597,-0.43945334 Q 8.2337268,-0.81380247 8.2239612,-1.582032 v -3.1575536 h 0.976563 v 3.1282567 q 0,0.465495 0.2213543,0.68033887 0.2246094,0.21158865 0.6184895,0.21158865 0.823568,0 0.836589,-0.86588582 v -3.1542984 z"/>
      <path id="path23462" style="font-weight:bold;font-size:6.66667px;font-family:Roboto, sans-serif;letter-spacing:2px;fill:#333333" d="M 18.225267,-3.9485696 H 16.773443 V 0 h -0.976562 v -3.9485696 h -1.432293 v -0.791016 h 3.860679 z"/>
      <path id="path23464" style="font-weight:bold;font-size:6.66667px;font-family:Roboto, sans-serif;letter-spacing:2px;fill:#333333" d="m 23.636727,-2.0540374 h -1.875001 v 1.26953182 h 2.200522 V 0 h -3.177085 v -4.7395856 h 3.170575 v 0.791016 h -2.194012 v 1.1295578 h 1.875001 z"/>
    </g>
    <g transform="translate(5,60)" id="g23371"/>
    <g class="input-label" style="font-weight:bold;font-size:6.66667px;font-family:Roboto, sans-serif;letter-spacing:2px;fill:#333333" id="text23373" transform="translate(3.5,92)" aria-label="LEVEL">
      <path id="path23467" style="font-weight:bold;font-size:6.66667px;font-family:Roboto, sans-serif;letter-spacing:2px;fill:#333333" d="M 1.3997403,-0.78450558 H 3.4733089 V 0 H 0.42317729 V -4.7395856 H 1.3997403 Z"/>
      <path id="path23469" style="font-weight:bold;font-size:6.66667px;font-family:Roboto, sans-serif;letter-spacing:2px;fill:#333333" d="M 8.8815136,-2.0540374 H 7.0065127 v 1.26953182 H 9.2070346 V 0 H 6.0299497 v -4.7395856 h 3.1705744 v 0.791016 H 7.0065127 v 1.1295578 h 1.8750009 z"/>
      <path id="path23471" style="font-weight:bold;font-size:6.66667px;font-family:Roboto, sans-serif;letter-spacing:2px;fill:#333333" d="m 13.531255,-1.1751308 1.074219,-3.5644548 h 1.08724 L 14.042322,0 h -1.01888 l -1.643881,-4.7395856 h 1.083985 z"/>
      <path id="path23473" style="font-weight:bold;font-size:6.66667px;font-family:Roboto, sans-serif;letter-spacing:2px;fill:#333333" d="m 20.993497,-2.0540374 h -1.875001 v 1.26953182 h 2.200522 V 0 h -3.177085 v -4.7395856 h 3.170574 v 0.791016 h -2.194011 v 1.1295578 h 1.875001 z"/>
      <path id="path23475" style="font-weight:bold;font-size:6.66667px;font-family:Roboto, sans-serif;letter-spacing:2px;fill:#333333" d="m 24.868498,-0.78450558 h 2.073569 V 0 h -3.050132 v -4.7395856 h 0.976563 z"/>
    </g>
    <g transform="translate(5,95)" id="g23375"/>
    <g class="input-label" style="font-weight:bold;font-size:6.66667px;font-family:Roboto, sans-serif;letter-spacing:2px;fill:#333333" id="text23377" transform="translate(12.5,127)" aria-label="IN">
      <path id="path23478" style="font-weight:bold;font-size:6.66667px;font-family:Roboto, sans-serif;letter-spacing:2px;fill:#333333" d="M 1.4615892,0 H 0.48502627 V -4.7395856 H 1.4615892 Z"/>
      <path id="path23480" style="font-weight:bold;font-size:6.66667px;font-family:Roboto, sans-serif;letter-spacing:2px;fill:#333333" d="M 8.2174508,0 H 7.2408878 L 5.3398452,-3.1184911 V 0 h -0.976563 v -4.7395856 h 0.976563 l 1.9042978,3.1250015 v -3.1250015 h 0.9733078 z"/>
    </g>
  </g>
  <g class="io-group" transform="translate(5.5,306)" id="g23389">
    <path class="output-background-filler" d="M 0,0 H 34 V 10 H 0 Z" style="fill:#bbbbbb" transform="translate(0,-3)" id="rect23381"/>
    <path class="output-background" d="m 5,0 h 24 c 2.77,0 5,2.23 5,5 v 25 c 0,2.77 -2.23,5 -5,5 H 5 C 2.23,35 0,32.77 0,30 V 5 C 0,2.23 2.23,0 5,0 Z" style="fill:#bbbbbb" id="rect23383"/>
    <g transform="translate(5)" id="g23385"/>
    <g class="output-label" style="font-weight:bold;font-size:6.66667px;font-family:Roboto, sans-serif;letter-spacing:2px;fill:#333333" id="text23387" transform="translate(8.3,32)" aria-label="OUT">
      <path id="path23449" style="font-weight:bold;font-size:6.66667px;font-family:Roboto, sans-serif;letter-spacing:2px;fill:#333333" d="m 4.3164083,-2.2623709 q 0,0.6998702 -0.2473959,1.2272142 -0.247396,0.52734396 -0.7096358,0.81380243 -0.4589846,0.28645847 -1.054688,0.28645847 -0.589193,0 -1.0514328,-0.28320326 Q 0.791016,-0.50130232 0.53710963,-1.0253911 0.28320326,-1.5527351 0.27994805,-2.2363292 v -0.2343751 q 0,-0.6998701 0.25065116,-1.2304693 0.25390637,-0.5338545 0.71289099,-0.8170577 0.4622398,-0.2864585 1.054688,-0.2864585 0.5924482,0 1.0514328,0.2864585 0.4622398,0.2832032 0.7128909,0.8170577 0.2539064,0.5305992 0.2539064,1.2272141 z M 3.3268245,-2.4772147 q 0,-0.7454431 -0.2669272,-1.1328131 -0.2669272,-0.3873699 -0.7617191,-0.3873699 -0.4915367,0 -0.7584639,0.3841147 -0.2669272,0.3808596 -0.2701824,1.1197922 v 0.2311199 q 0,0.7259118 0.2669272,1.1263026 0.2669272,0.40039087 0.7682295,0.40039087 0.4915367,0 0.7552087,-0.38411477 0.263672,-0.38737 0.2669272,-1.1263026 z"/>
      <path id="path23451" style="font-weight:bold;font-size:6.66667px;font-family:Roboto, sans-serif;letter-spacing:2px;fill:#333333" d="m 10.619796,-4.7395856 v 3.1217463 q 0,0.77799515 -0.488282,1.23046932 -0.4850258,0.45247418 -1.3281252,0.45247418 -0.8300785,0 -1.31836,-0.43945334 Q 6.9967474,-0.81380247 6.9869817,-1.582032 v -3.1575536 h 0.976563 v 3.1282567 q 0,0.465495 0.2213543,0.68033887 0.2246095,0.21158865 0.6184898,0.21158865 0.8235681,0 0.836589,-0.86588582 v -3.1542984 z"/>
      <path id="path23453" style="font-weight:bold;font-size:6.66667px;font-family:Roboto, sans-serif;letter-spacing:2px;fill:#333333" d="M 16.988288,-3.9485696 H 15.536464 V 0 h -0.976563 v -3.9485696 h -1.432292 v -0.791016 h 3.860679 z"/>
    </g>
  </g>
</svg>
