<?xml version="1.0" encoding="UTF-8" standalone="no"?>
<svg xmlns:dc="http://purl.org/dc/elements/1.1/" xmlns:cc="http://creativecommons.org/ns#" xmlns:rdf="http://www.w3.org/1999/02/22-rdf-syntax-ns#" xmlns:svg="http://www.w3.org/2000/svg" xmlns="http://www.w3.org/2000/svg" xmlns:sodipodi="http://sodipodi.sourceforge.net/DTD/sodipodi-0.dtd" xmlns:inkscape="http://www.inkscape.org/namespaces/inkscape" inkscape:version="1.0 (4035a4f, 2020-05-01)" sodipodi:docname="svg_render_Mix2-pp.svg" id="svg23668" viewBox="0 0 75 380" height="380" width="75" version="1.1">
  <metadata id="metadata23674">
    <rdf:RDF>
      <cc:Work rdf:about="">
        <dc:format>image/svg+xml</dc:format>
        <dc:type rdf:resource="http://purl.org/dc/dcmitype/StillImage"/>
      </cc:Work>
    </rdf:RDF>
  </metadata>
  <defs id="defs23672"/>
  <sodipodi:namedview inkscape:current-layer="svg23668" inkscape:window-maximized="0" inkscape:window-y="23" inkscape:window-x="0" inkscape:cy="190" inkscape:cx="37.5" inkscape:zoom="1.7605263" showgrid="false" id="namedview23670" inkscape:window-height="480" inkscape:window-width="689" inkscape:pageshadow="2" inkscape:pageopacity="0" guidetolerance="10" gridtolerance="10" objecttolerance="10" borderopacity="1" bordercolor="#666666" pagecolor="#ffffff"/>
  
  <path class="module-background background-fill" d="M 0,0 H 75 V 380 H 0 Z" style="fill:#dddddd" id="rect23552"/>
  <path class="module-border-inner" d="M 1,1 H 74 V 379 H 1 V 1" style="fill:none;stroke:#e4e4e4;stroke-width:0.5" id="polyline23554"/>
  <path class="module-border-middle" d="m 0.5,0.5 h 74 v 379 H 0.5 V 0.5" style="fill:none;stroke:#ebebeb;stroke-width:0.8" id="polyline23556"/>
  <path class="module-border-outer" d="M 0,0 H 75 V 380 H 0 V 0" style="fill:none;stroke:#f2f2f2;stroke-width:1" id="polyline23558"/>
  <g class="title" style="font-weight:normal;font-size:12px;font-family:Comfortaa, sans-serif;letter-spacing:3px;text-anchor:end;fill:#333333" id="text23560" transform="translate(68.0 17)" aria-label="MIX2">
    <path id="path23830" style="font-weight:normal;font-size:12px;font-family:Comfortaa, sans-serif;letter-spacing:3px;text-anchor:end;fill:#333333" d="m -29.423062,-9.372 q 0.192,0 0.323999,0.132 0.132001,0.132 0.132001,0.336 v 8.436 q 0,0.192 -0.132001,0.336 Q -29.231062,0 -29.423062,0 q -0.204,0 -0.348,-0.132 -0.132,-0.144 -0.132,-0.336 V -7.26 l -3.336001,6.816 q -0.143999,0.228 -0.408,0.228 -0.299999,0 -0.431999,-0.288 l -3.324,-6.648 v 6.684 q 0,0.192 -0.132001,0.336 Q -37.667062,0 -37.871062,0 q -0.192,0 -0.336,-0.132 -0.132,-0.144 -0.132,-0.336 v -8.436 q 0,-0.204 0.132,-0.336 0.144,-0.132 0.336,-0.132 0.276,0 0.42,0.24 l 3.839999,7.632 3.768001,-7.632 q 0.144,-0.24 0.42,-0.24 z"/>
    <path id="path23832" style="font-weight:normal;font-size:12px;font-family:Comfortaa, sans-serif;letter-spacing:3px;text-anchor:end;fill:#333333" d="m -23.105437,0 q -0.192,0 -0.336,-0.132 -0.132,-0.144 -0.132,-0.336 v -8.436 q 0,-0.204 0.132,-0.336 0.144,-0.132 0.336,-0.132 0.204,0 0.336,0.132 0.132,0.132 0.132,0.336 v 8.436 q 0,0.192 -0.132,0.336 -0.132,0.132 -0.336,0.132 z"/>
    <path id="path23834" style="font-weight:normal;font-size:12px;font-family:Comfortaa, sans-serif;letter-spacing:3px;text-anchor:end;fill:#333333" d="m -10.609313,-0.756 q 0.108001,0.144 0.108001,0.3 0,0.192 -0.120001,0.324 -0.119999,0.132 -0.324,0.132 -0.24,0 -0.359999,-0.168 l -2.868001,-3.972 -2.927999,3.996 q -0.12,0.144 -0.336,0.144 -0.204001,0 -0.324,-0.12 -0.12,-0.132 -0.12,-0.312 0,-0.18 0.108,-0.324 l 2.963999,-4.032 -2.771999,-3.852 q -0.096,-0.156 -0.096,-0.288 0,-0.18 0.119999,-0.312 0.120001,-0.132 0.312001,-0.132 0.24,0 0.359999,0.168 l 2.724,3.768 2.76,-3.768 q 0.132,-0.168 0.36,-0.168 0.192,0 0.312001,0.144 0.119999,0.132 0.119999,0.312 0,0.156 -0.084,0.276 l -2.832001,3.84 z"/>
    <path id="path23836" style="font-weight:normal;font-size:12px;font-family:Comfortaa, sans-serif;letter-spacing:3px;text-anchor:end;fill:#333333" d="m -5.6409375,0 q -0.192,0 -0.336,-0.132 -0.132,-0.144 -0.132,-0.336 0,-0.192 0.132,-0.324 l 3.636,-4.296 q 0.3,-0.324 0.48,-0.72 0.18,-0.408 0.18,-0.756 0,-0.84 -0.504,-1.38 -0.492,-0.54 -1.26,-0.54 -0.504,0 -0.912,0.264 -0.408,0.252 -0.648,0.696 -0.24,0.432 -0.24,0.96 0,0.192 -0.144,0.324 -0.132,0.132 -0.324,0.132 -0.192,0 -0.336,-0.132 -0.132,-0.132 -0.132,-0.324 0,-0.792 0.36,-1.44 0.36,-0.648 0.984,-1.008 0.624,-0.372 1.392,-0.372 0.78,0 1.38,0.36 0.612,0.36 0.948,1.008 0.348,0.636 0.348,1.452 0,0.972 -0.936,2.064 l -3.072,3.564 h 3.756 q 0.192,0 0.324,0.144 0.144,0.132 0.144,0.324 0,0.192 -0.132,0.336 -0.132,0.132 -0.336,0.132 z"/>
  </g>
  <g class="brand" style="font-weight:bold;font-size:8.66667px;font-family:Audiowide, sans-serif;letter-spacing:2px;fill:#333333" id="text23562" aria-label="BGA">
    <path id="path23823" style="font-weight:bold;font-size:8.66667px;font-family:Audiowide, sans-serif;letter-spacing:2px;fill:#333333" d="m 31.694664,372.66699 q 0,0.20313 -0.07194,0.43587 -0.06771,0.23275 -0.228516,0.43165 -0.156576,0.19889 -0.410482,0.33431 Q 30.72982,374 30.361656,374 h -4.17676 q -0.118489,0 -0.220052,-0.0423 -0.101562,-0.0423 -0.177734,-0.11426 -0.07194,-0.0762 -0.114258,-0.17773 -0.04232,-0.10156 -0.04232,-0.22005 V 368.486 q 0,-0.11426 0.04232,-0.21582 0.04232,-0.10156 0.114258,-0.17773 0.07617,-0.0762 0.177734,-0.11849 0.101563,-0.0423 0.220052,-0.0423 h 3.681642 q 0.203125,0 0.435873,0.0719 0.232747,0.0719 0.431641,0.23275 0.203125,0.15657 0.33431,0.41048 0.135416,0.2539 0.135416,0.62207 v 0.20736 q 0,0.29199 -0.09733,0.63053 -0.09733,0.33431 -0.313152,0.63477 0.186198,0.11425 0.347006,0.27506 0.165039,0.16081 0.28776,0.3724 0.122722,0.21159 0.194662,0.47819 0.07194,0.2666 0.07194,0.58821 z m -1.100261,-0.21159 q 0,-0.21582 -0.06771,-0.38509 -0.06771,-0.1735 -0.19043,-0.29622 -0.122721,-0.12272 -0.296224,-0.1862 -0.173503,-0.0677 -0.389323,-0.0677 h -2.479819 v -1.10872 H 29.1556 q 0.215821,0 0.389324,-0.0635 0.173502,-0.0677 0.296224,-0.19043 0.122721,-0.12272 0.186198,-0.29199 0.06771,-0.1735 0.06771,-0.38932 v -0.20736 q 0,-0.23698 -0.228516,-0.23698 h -3.135743 v 3.86784 h 3.630861 q 0.02962,0 0.07194,-0.004 0.04232,-0.004 0.07617,-0.0254 0.03385,-0.0212 0.05924,-0.0719 0.02539,-0.0508 0.02539,-0.13965 z"/>
    <path id="path23825" style="font-weight:bold;font-size:8.66667px;font-family:Audiowide, sans-serif;letter-spacing:2px;fill:#333333" d="m 40.63477,373.44564 q 0,0.11849 -0.04232,0.22005 -0.04232,0.10156 -0.118489,0.17773 -0.07194,0.0719 -0.173503,0.11426 Q 40.198897,374 40.080408,374 h -3.969403 q -0.152344,0 -0.330078,-0.0338 -0.173503,-0.0381 -0.347005,-0.11426 -0.169271,-0.0762 -0.325847,-0.19466 -0.156575,-0.12272 -0.279297,-0.292 -0.118489,-0.1735 -0.19043,-0.39778 -0.07194,-0.22852 -0.07194,-0.51205 v -2.97916 q 0,-0.15235 0.03385,-0.32585 0.03809,-0.17774 0.114257,-0.34701 0.07617,-0.1735 0.198894,-0.33007 0.122721,-0.15658 0.291992,-0.27507 0.173503,-0.12272 0.397787,-0.19466 0.224284,-0.0719 0.507812,-0.0719 h 4.472984 v 1.10026 h -4.472984 q -0.21582,0 -0.330078,0.11426 -0.114258,0.11425 -0.114258,0.33854 v 2.9707 q 0,0.21159 0.114258,0.33008 0.11849,0.11426 0.330078,0.11426 h 3.423504 v -1.37956 h -2.928386 v -1.10872 h 3.474285 q 0.118489,0 0.220052,0.0466 0.101562,0.0423 0.173503,0.11849 0.07617,0.0762 0.118489,0.17773 0.04232,0.0973 0.04232,0.21159 z"/>
    <path id="path23827" style="font-weight:bold;font-size:8.66667px;font-family:Audiowide, sans-serif;letter-spacing:2px;fill:#333333" d="m 49.744148,374 h -1.100261 v -1.48958 h -3.86784 V 374 h -1.10026 v -3.03418 q 0,-0.66439 0.228515,-1.22298 0.228516,-0.5586 0.634766,-0.96062 0.40625,-0.40201 0.960612,-0.6263 0.554363,-0.22428 1.210287,-0.22428 h 2.479819 q 0.114258,0 0.21582,0.0423 0.101563,0.0423 0.177735,0.11849 0.07617,0.0762 0.118489,0.17773 0.04232,0.10156 0.04232,0.21582 z m -4.968101,-2.58984 h 3.86784 v -2.37826 h -1.93392 q -0.05078,0 -0.21582,0.0169 -0.160807,0.0127 -0.376628,0.0719 -0.211588,0.0592 -0.448568,0.18196 -0.236979,0.12272 -0.435872,0.33854 -0.198894,0.21582 -0.330078,0.54167 -0.126954,0.32162 -0.126954,0.78288 z"/>
  </g>
  <path d="m 36.5,370 h 2 v 2 h -2 z" style="fill:#dddddd" id="rect23564"/>
  <g transform="translate(15,32)" id="g23618">
    <g transform="translate(0,6.5)" id="g23572">
      <path d="M 0,0 H 6.5" style="fill:none;stroke:#333333" transform="translate(10.5)" id="polyline23568"/>
      <path d="M 0,0 H 6.5" style="fill:none;stroke:#333333" transform="translate(28)" id="polyline23570"/>
    </g>
    <g transform="translate(0,19.05)" id="g23580">
      <path d="M 0,0 H 6.5" style="fill:none;stroke:#333333" transform="translate(10.5)" id="polyline23574"/>
      <path d="M 0,0 H 6.5" style="fill:none;stroke:#333333" transform="translate(28)" id="polyline23576"/>
      <g style="font-weight:bold;font-size:8px;font-family:Roboto, sans-serif;fill:#333333" id="text23578" transform="translate(4.5,2.6)" aria-label="0">
        <path id="path23780" style="font-weight:bold;font-size:8px;font-family:Roboto, sans-serif;fill:#333333" d="m 4.2148437,-2.3515625 q 0,1.1796875 -0.4882812,1.8046875 -0.4882812,0.625 -1.4296875,0.625 -0.9296875,0 -1.421875,-0.61328125 Q 0.3828125,-1.1484375 0.37109375,-2.2929688 v -1.046875 q 0,-1.1914062 0.4921875,-1.8085937 Q 1.359375,-5.765625 2.2890625,-5.765625 q 0.9296875,0 1.421875,0.6132813 0.4921875,0.609375 0.5039062,1.7539062 z M 3.0859375,-3.5 q 0,-0.7070312 -0.1953125,-1.0273437 -0.1914062,-0.3242188 -0.6015625,-0.3242188 -0.3984375,0 -0.5898438,0.3085938 Q 1.5117187,-4.2382812 1.5,-3.5859375 v 1.3828125 q 0,0.6953125 0.1875,1.0351563 0.1914062,0.33593745 0.609375,0.33593745 0.4140625,0 0.5976563,-0.32421875 0.1835937,-0.3242187 0.1914062,-0.9921875 z"/>
      </g>
    </g>
    <g transform="translate(0,32.86)" id="g23588">
      <path d="M 0,0 H 6.5" style="fill:none;stroke:#333333" transform="translate(10.5)" id="polyline23582"/>
      <path d="M 0,0 H 6.5" style="fill:none;stroke:#333333" transform="translate(28)" id="polyline23584"/>
      <g style="font-weight:bold;font-size:8px;font-family:Roboto, sans-serif;fill:#333333" id="text23586" transform="rotate(-90,6.6,-2.6)" aria-label="-6">
        <path id="path23785" style="font-weight:bold;font-size:8px;font-family:Roboto, sans-serif;fill:#333333" d="M 2.6289063,-1.9804687 H 0.4296875 V -2.890625 h 2.1992188 z"/>
        <path id="path23787" style="font-weight:bold;font-size:8px;font-family:Roboto, sans-serif;fill:#333333" d="m 6.5585937,-5.7460937 v 0.9296875 h -0.109375 q -0.765625,0.011719 -1.234375,0.3984375 Q 4.75,-4.03125 4.65625,-3.34375 q 0.453125,-0.4609375 1.1445312,-0.4609375 0.7421875,0 1.1796875,0.53125 0.4375,0.53125 0.4375,1.3984375 0,0.5546875 -0.2421875,1.00390625 Q 6.9375,-0.421875 6.4960937,-0.171875 q -0.4375,0.25 -0.9921875,0.25 -0.8984375,0 -1.453125,-0.625 Q 3.5,-1.171875 3.5,-2.2148438 v -0.40625 q 0,-0.9257812 0.3476563,-1.6328124 0.3515624,-0.7109375 1.0039062,-1.0976563 0.65625,-0.390625 1.5195312,-0.3945312 z m -1.1015625,2.8476562 q -0.2734375,0 -0.4960937,0.1445312 -0.2226563,0.140625 -0.328125,0.375 v 0.34375 q 0,0.5664063 0.2226562,0.8867188 0.2226563,0.31640625 0.625,0.31640625 0.3632813,0 0.5859375,-0.28515625 0.2265625,-0.2890625 0.2265625,-0.7460937 0,-0.4648438 -0.2265625,-0.7500001 -0.2265625,-0.2851562 -0.609375,-0.2851562 z"/>
      </g>
    </g>
    <g transform="translate(0,46.05)" id="g23596">
      <path d="M 0,0 H 6.5" style="fill:none;stroke:#333333" transform="translate(10.5)" id="polyline23590"/>
      <path d="M 0,0 H 6.5" style="fill:none;stroke:#333333" transform="translate(28)" id="polyline23592"/>
      <g style="font-weight:bold;font-size:8px;font-family:Roboto, sans-serif;fill:#333333" id="text23594" transform="rotate(-90,8.1,-1.1)" aria-label="-12">
        <path id="path23792" style="font-weight:bold;font-size:8px;font-family:Roboto, sans-serif;fill:#333333" d="M 2.6289063,-1.9804687 H 0.4296875 V -2.890625 h 2.1992188 z"/>
        <path id="path23794" style="font-weight:bold;font-size:8px;font-family:Roboto, sans-serif;fill:#333333" d="M 6.2382812,0 H 5.109375 v -4.3515625 l -1.3476562,0.4179687 v -0.9179687 l 2.3554687,-0.84375 h 0.1210937 z"/>
        <path id="path23796" style="font-weight:bold;font-size:8px;font-family:Roboto, sans-serif;fill:#333333" d="M 11.988281,0 H 8.0898438 V -0.7734375 L 9.9296875,-2.734375 q 0.3789065,-0.4140625 0.5585935,-0.7226563 0.183594,-0.3085937 0.183594,-0.5859374 0,-0.3789063 -0.191406,-0.59375 -0.191406,-0.21875 -0.5468752,-0.21875 -0.3828125,0 -0.6054688,0.265625 -0.21875,0.2617187 -0.21875,0.6914062 H 7.9765625 q 0,-0.5195312 0.2460938,-0.9492187 0.25,-0.4296875 0.703125,-0.671875 0.453125,-0.2460938 1.0273437,-0.2460938 0.878906,0 1.363281,0.421875 0.488282,0.421875 0.488282,1.1914063 0,0.4218749 -0.21875,0.8593749 -0.21875,0.4375 -0.75,1.0195313 l -1.2929692,1.36328125 h 2.4453122 z"/>
      </g>
    </g>
    <g transform="translate(0,72.41)" id="g23604">
      <path d="M 0,0 H 6.5" style="fill:none;stroke:#333333" transform="translate(10.5)" id="polyline23598"/>
      <path d="M 0,0 H 6.5" style="fill:none;stroke:#333333" transform="translate(28)" id="polyline23600"/>
      <g style="font-weight:bold;font-size:8px;font-family:Roboto, sans-serif;fill:#333333" id="text23602" transform="rotate(-90,8.1,-1.1)" aria-label="-24">
        <path id="path23801" style="font-weight:bold;font-size:8px;font-family:Roboto, sans-serif;fill:#333333" d="M 2.6289063,-1.9804687 H 0.4296875 V -2.890625 h 2.1992188 z"/>
        <path id="path23803" style="font-weight:bold;font-size:8px;font-family:Roboto, sans-serif;fill:#333333" d="M 7.3945312,0 H 3.4960938 V -0.7734375 L 5.3359375,-2.734375 Q 5.7148437,-3.1484375 5.8945312,-3.4570313 6.078125,-3.765625 6.078125,-4.0429687 q 0,-0.3789063 -0.1914063,-0.59375 -0.1914062,-0.21875 -0.546875,-0.21875 -0.3828125,0 -0.6054687,0.265625 -0.21875,0.2617187 -0.21875,0.6914062 H 3.3828125 q 0,-0.5195312 0.2460938,-0.9492187 0.25,-0.4296875 0.7031249,-0.671875 0.453125,-0.2460938 1.0273438,-0.2460938 0.8789062,0 1.3632812,0.421875 0.4882813,0.421875 0.4882813,1.1914063 0,0.4218749 -0.21875,0.8593749 -0.21875,0.4375 -0.75,1.0195313 l -1.2929688,1.36328125 h 2.4453125 z"/>
        <path id="path23805" style="font-weight:bold;font-size:8px;font-family:Roboto, sans-serif;fill:#333333" d="m 11.429688,-2.140625 h 0.644531 v 0.9101563 H 11.429688 V 0 H 10.300781 V -1.2304687 H 7.96875 L 7.9179687,-1.9414062 10.289063,-5.6875 h 1.140625 z m -2.3867192,0 h 1.2578122 v -2.0078125 l -0.07422,0.1289063 z"/>
      </g>
    </g>
    <g transform="translate(0,125.14)" id="g23612">
      <path d="M 0,0 H 6.5" style="fill:none;stroke:#333333" transform="translate(10.5)" id="polyline23606"/>
      <path d="M 0,0 H 6.5" style="fill:none;stroke:#333333" transform="translate(28)" id="polyline23608"/>
      <g style="font-weight:bold;font-size:8px;font-family:Roboto, sans-serif;fill:#333333" id="text23610" transform="rotate(-90,8.1,-1.1)" aria-label="-48">
        <path id="path23810" style="font-weight:bold;font-size:8px;font-family:Roboto, sans-serif;fill:#333333" d="M 2.6289063,-1.9804687 H 0.4296875 V -2.890625 h 2.1992188 z"/>
        <path id="path23812" style="font-weight:bold;font-size:8px;font-family:Roboto, sans-serif;fill:#333333" d="m 6.8359375,-2.140625 h 0.6445312 v 0.9101563 H 6.8359375 V 0 H 5.7070312 V -1.2304687 H 3.375 L 3.3242188,-1.9414062 5.6953125,-5.6875 h 1.140625 z m -2.3867188,0 h 1.2578125 v -2.0078125 l -0.074219,0.1289063 z"/>
        <path id="path23814" style="font-weight:bold;font-size:8px;font-family:Roboto, sans-serif;fill:#333333" d="m 11.796875,-4.1757812 q 0,0.4140624 -0.207031,0.7343749 -0.207031,0.3203125 -0.570313,0.5117188 0.414063,0.1992187 0.65625,0.5507812 0.242188,0.3476563 0.242188,0.8203126 0,0.75781245 -0.515625,1.1992187 -0.515625,0.4375 -1.402344,0.4375 -0.8867187,0 -1.40625,-0.44140625 -0.5195312,-0.44140625 -0.5195312,-1.19531245 0,-0.4726563 0.2421875,-0.8242188 0.2421875,-0.3515625 0.6523437,-0.546875 -0.3632812,-0.1914063 -0.5703125,-0.5117188 -0.203125,-0.3203125 -0.203125,-0.7343749 0,-0.7265625 0.484375,-1.15625 0.484375,-0.4335938 1.3164063,-0.4335938 0.8281252,0 1.3125002,0.4296875 0.488281,0.4257813 0.488281,1.1601563 z m -1.011719,2.5351562 q 0,-0.3710938 -0.214843,-0.59375 -0.214844,-0.2226563 -0.5781255,-0.2226563 -0.359375,0 -0.5742187,0.2226563 -0.2148438,0.21875 -0.2148438,0.59375 0,0.3632813 0.2109375,0.5859375 Q 9.625,-0.83203125 10,-0.83203125 q 0.367188,0 0.574219,-0.21484375 0.210937,-0.2148437 0.210937,-0.59375 z m -0.117187,-2.4804687 q 0,-0.3320313 -0.175781,-0.53125 -0.175782,-0.203125 -0.4960942,-0.203125 -0.3164063,0 -0.4921875,0.1953125 -0.1757813,0.1953125 -0.1757813,0.5390625 0,0.3398437 0.1757813,0.5468749 Q 9.6796875,-3.3671875 10,-3.3671875 q 0.320313,0 0.492188,-0.2070313 0.175781,-0.2070312 0.175781,-0.5468749 z"/>
      </g>
    </g>
    <g transform="translate(0,151.5)" id="g23616">
      <g style="font-weight:bold;font-size:8px;font-family:Roboto, sans-serif;fill:#333333" id="text23614" transform="rotate(-90,5,-6)" aria-label="dB">
        <path id="path23817" style="font-weight:bold;font-size:8px;font-family:Roboto, sans-serif;fill:#333333" d="m 0.2578125,-2.1445313 q 0,-0.9882812 0.44140625,-1.5742187 0.44531245,-0.5859375 1.21484375,-0.5859375 0.6171875,0 1.0195313,0.4609375 V -6 H 4.0664062 V 0 H 3.046875 L 2.9921875,-0.44921875 Q 2.5703125,0.078125 1.90625,0.078125 q -0.7460938,0 -1.19921875,-0.5859375 Q 0.2578125,-1.0976562 0.2578125,-2.1445313 Z M 1.3867187,-2.0625 q 0,0.59375 0.2070313,0.9101563 0.2070312,0.3164062 0.6015625,0.3164062 0.5234375,0 0.7382813,-0.4414062 V -2.9453125 Q 2.7226563,-3.3867188 2.203125,-3.3867188 q -0.8164063,0 -0.8164063,1.3242188 z"/>
        <path id="path23819" style="font-weight:bold;font-size:8px;font-family:Roboto, sans-serif;fill:#333333" d="M 5.0234375,0 V -5.6875 H 7.015625 q 1.0351563,0 1.5703125,0.3984375 0.5351563,0.3945313 0.5351563,1.1601563 0,0.4179687 -0.2148438,0.7382812 -0.2148437,0.3164062 -0.5976562,0.4648437 0.4375,0.109375 0.6875,0.4414063 Q 9.25,-2.1523438 9.25,-1.671875 9.25,-0.8515625 8.7265625,-0.4296875 8.203125,-0.0078125 7.234375,0 Z m 1.171875,-2.4765625 v 1.53515625 h 1.0039062 q 0.4140625,0 0.6445313,-0.19531245 0.234375,-0.1992188 0.234375,-0.546875 0,-0.7812501 -0.8085938,-0.7929688 z m 0,-0.828125 H 7.0625 q 0.8867187,-0.015625 0.8867187,-0.7070312 0,-0.3867188 -0.2265625,-0.5546875 Q 7.5,-4.7382812 7.015625,-4.7382812 H 6.1953125 Z"/>
      </g>
    </g>
  </g>
  <g transform="translate(28.5,32)" id="g23620"/>
  <g transform="translate(28.5,197)" id="g23624"/>
  <g style="font-weight:bold;font-size:6.66667px;font-family:Roboto, sans-serif;letter-spacing:2px;fill:#333333" id="text23626" aria-label="MUTE">
    <path id="path23767" style="font-weight:bold;font-size:6.66667px;font-family:Roboto, sans-serif;letter-spacing:2px;fill:#333333" d="m 26.69922,219.26041 1.217448,3.43751 1.210938,-3.43751 h 1.282553 V 224 h -0.979818 v -1.29557 L 29.527997,220.4681 28.248699,224 h -0.670573 l -1.276042,-3.52865 0.09766,2.23308 V 224 h -0.976563 v -4.73959 z"/>
    <path id="path23769" style="font-weight:bold;font-size:6.66667px;font-family:Roboto, sans-serif;letter-spacing:2px;fill:#333333" d="m 36.856775,219.26041 v 3.12175 q 0,0.778 -0.488281,1.23047 -0.485026,0.45247 -1.328126,0.45247 -0.830078,0 -1.31836,-0.43945 -0.488281,-0.43945 -0.498047,-1.20768 v -3.15756 h 0.976563 v 3.12826 q 0,0.4655 0.221354,0.68034 0.22461,0.21159 0.61849,0.21159 0.823568,0 0.836589,-0.86589 v -3.1543 z"/>
    <path id="path23771" style="font-weight:bold;font-size:6.66667px;font-family:Roboto, sans-serif;letter-spacing:2px;fill:#333333" d="M 43.225267,220.05143 H 41.773443 V 224 h -0.976562 v -3.94857 h -1.432293 v -0.79102 h 3.860679 z"/>
    <path id="path23773" style="font-weight:bold;font-size:6.66667px;font-family:Roboto, sans-serif;letter-spacing:2px;fill:#333333" d="m 48.636727,221.94596 h -1.875001 v 1.26953 h 2.200522 V 224 h -3.177085 v -4.73959 h 3.170575 v 0.79102 h -2.194012 v 1.12956 h 1.875001 z"/>
  </g>
  <g transform="translate(5.5,240)" id="g23650">
    <path d="M 0,0 H 64 V 10 H 0 Z" style="fill:#fafafa" transform="translate(0,66)" id="rect23630"/>
    <path d="m 5,0 h 54 c 2.77,0 5,2.23 5,5 v 63 c 0,2.77 -2.23,5 -5,5 H 5 C 2.23,73 0,70.77 0,68 V 5 C 0,2.23 2.23,0 5,0 Z" style="fill:#fafafa" id="rect23632"/>
    <g transform="translate(5,4)" id="g23634"/>
    <g style="font-weight:bold;font-size:6.66667px;font-family:Roboto, sans-serif;letter-spacing:1.5px;fill:#333333" id="text23636" transform="translate(4.5,36)" aria-label="LEVEL">
      <path id="path23735" style="font-weight:bold;font-size:6.66667px;font-family:Roboto, sans-serif;letter-spacing:1.5px;fill:#333333" d="M 1.3997403,-0.78450558 H 3.4733089 V 0 H 0.42317729 V -4.7395856 H 1.3997403 Z"/>
      <path id="path23737" style="font-weight:bold;font-size:6.66667px;font-family:Roboto, sans-serif;letter-spacing:1.5px;fill:#333333" d="M 8.3815136,-2.0540374 H 6.5065127 v 1.26953182 H 8.7070346 V 0 H 5.5299497 v -4.7395856 h 3.1705744 v 0.791016 H 6.5065127 v 1.1295578 h 1.8750009 z"/>
      <path id="path23739" style="font-weight:bold;font-size:6.66667px;font-family:Roboto, sans-serif;letter-spacing:1.5px;fill:#333333" d="m 12.531255,-1.1751308 1.074219,-3.5644548 h 1.08724 L 13.042322,0 h -1.01888 l -1.643881,-4.7395856 h 1.083985 z"/>
      <path id="path23741" style="font-weight:bold;font-size:6.66667px;font-family:Roboto, sans-serif;letter-spacing:1.5px;fill:#333333" d="m 19.493497,-2.0540374 h -1.875001 v 1.26953182 h 2.200522 V 0 h -3.177085 v -4.7395856 h 3.170574 v 0.791016 h -2.194011 v 1.1295578 h 1.875001 z"/>
      <path id="path23743" style="font-weight:bold;font-size:6.66667px;font-family:Roboto, sans-serif;letter-spacing:1.5px;fill:#333333" d="m 22.868498,-0.78450558 h 2.073569 V 0 h -3.050132 v -4.7395856 h 0.976563 z"/>
    </g>
    <g transform="translate(35,4)" id="g23638"/>
    <g style="font-weight:bold;font-size:6.66667px;font-family:Roboto, sans-serif;letter-spacing:1.5px;fill:#333333" id="text23640" transform="translate(35.5,36)" aria-label="MUTE">
      <path id="path23746" style="font-weight:bold;font-size:6.66667px;font-family:Roboto, sans-serif;letter-spacing:1.5px;fill:#333333" d="m 1.6992196,-4.7395856 1.2174485,3.4375016 1.210938,-3.4375016 H 5.4101588 V 0 H 4.4303407 V -1.2955735 L 4.527997,-3.5319027 3.2486995,0 H 2.5781262 l -1.2760422,-3.5286475 0.097656,2.233074 V 0 H 0.42317729 v -4.7395856 z"/>
      <path id="path23748" style="font-weight:bold;font-size:6.66667px;font-family:Roboto, sans-serif;letter-spacing:1.5px;fill:#333333" d="m 11.356775,-4.7395856 v 3.1217463 q 0,0.77799515 -0.488281,1.23046932 -0.485026,0.45247418 -1.3281257,0.45247418 -0.8300785,0 -1.31836,-0.43945334 Q 7.7337268,-0.81380247 7.7239612,-1.582032 v -3.1575536 h 0.976563 v 3.1282567 q 0,0.465495 0.2213543,0.68033887 0.2246094,0.21158865 0.6184898,0.21158865 0.8235677,0 0.8365887,-0.86588582 v -3.1542984 z"/>
      <path id="path23750" style="font-weight:bold;font-size:6.66667px;font-family:Roboto, sans-serif;letter-spacing:1.5px;fill:#333333" d="M 17.225267,-3.9485696 H 15.773443 V 0 h -0.976562 v -3.9485696 h -1.432293 v -0.791016 h 3.860679 z"/>
      <path id="path23752" style="font-weight:bold;font-size:6.66667px;font-family:Roboto, sans-serif;letter-spacing:1.5px;fill:#333333" d="m 22.136727,-2.0540374 h -1.875001 v 1.26953182 h 2.200522 V 0 h -3.177085 v -4.7395856 h 3.170575 v 0.791016 h -2.194012 v 1.1295578 h 1.875001 z"/>
    </g>
    <g transform="translate(5,40)" id="g23642"/>
    <g style="font-weight:bold;font-size:6.66667px;font-family:Roboto, sans-serif;letter-spacing:2px;fill:#333333" id="text23644" transform="translate(15,72)" aria-label="L">
      <path id="path23755" style="font-weight:bold;font-size:6.66667px;font-family:Roboto, sans-serif;letter-spacing:2px;fill:#333333" d="M 1.3997403,-0.78450558 H 3.4733089 V 0 H 0.42317729 V -4.7395856 H 1.3997403 Z"/>
    </g>
    <g transform="translate(35,40)" id="g23646"/>
    <g style="font-weight:bold;font-size:6.66667px;font-family:Roboto, sans-serif;letter-spacing:0.5px;fill:#333333" id="text23648" transform="translate(39,72)" aria-label="R (L)">
      <path id="path23758" style="font-weight:bold;font-size:6.66667px;font-family:Roboto, sans-serif;letter-spacing:0.5px;fill:#333333" d="M 2.1777354,-1.7350269 H 1.3997403 V 0 H 0.42317729 V -4.7395856 H 2.1842458 q 0.8398442,0 1.2955736,0.3743491 0.4557294,0.3743492 0.4557294,1.0579433 0,0.4850262 -0.2115887,0.8105472 -0.2083334,0.3222658 -0.6347659,0.5143232 l 1.0253911,1.93684986 V 0 H 3.0664077 Z M 1.3997403,-2.5260429 H 2.187501 q 0.3678388,0 0.5696618,-0.1855469 0.201823,-0.1888022 0.201823,-0.5175784 0,-0.3352866 -0.1920574,-0.527344 Q 2.5781262,-3.9485696 2.1842458,-3.9485696 H 1.3997403 Z"/>
      <path id="path23760" style="font-weight:bold;font-size:6.66667px;font-family:Roboto, sans-serif;letter-spacing:0.5px;fill:#333333" d="m 7.3281279,-1.9270843 q 0,-0.745443 0.1985678,-1.4192715 0.1985678,-0.6738284 0.5859378,-1.1914068 0.38737,-0.5208336 0.8398441,-0.7226566 l 0.1822918,0.5078128 q -0.4752607,0.3515626 -0.7421879,1.0872401 -0.2669272,0.7356774 -0.2669272,1.7187508 v 0.1009115 q 0,0.98632859 0.263672,1.72526123 0.263672,0.73893265 0.7454431,1.10351616 L 8.9524776,1.4811205 Q 8.5097691,1.2825527 8.1256543,0.77799516 7.7447948,0.27669284 7.5429717,-0.38085956 7.3411487,-1.038412 7.3281279,-1.7545581 Z"/>
      <path id="path23762" style="font-weight:bold;font-size:6.66667px;font-family:Roboto, sans-serif;letter-spacing:0.5px;fill:#333333" d="m 11.167974,-0.78450558 h 2.073568 V 0 h -3.050131 v -4.7395856 h 0.976563 z"/>
      <path id="path23764" style="font-weight:bold;font-size:6.66667px;font-family:Roboto, sans-serif;letter-spacing:0.5px;fill:#333333" d="m 15.857429,-1.8522144 q 0,0.7356774 -0.211589,1.41601628 Q 15.434251,0.24414074 15.037116,0.76497432 14.63998,1.2858079 14.187506,1.4811205 L 14.005214,0.98307339 q 0.46224,-0.34830746 0.729167,-1.07421927 0.266927,-0.7259118 0.276693,-1.66992262 v -0.1725262 q 0,-0.9733077 -0.266927,-1.7154956 -0.263672,-0.7421878 -0.738933,-1.1132818 l 0.182292,-0.4980471 q 0.442708,0.1920574 0.833334,0.6966149 0.39388,0.5045576 0.608724,1.1751308 0.218099,0.6705732 0.227865,1.3899746 z"/>
    </g>
  </g>
  <g transform="translate(5.5,319)" id="g23664">
    <path d="M 0,0 H 64 V 10 H 0 Z" style="fill:#bbbbbb" transform="translate(0,-3)" id="rect23652"/>
    <path d="m 5,0 h 54 c 2.77,0 5,2.23 5,5 v 27 c 0,2.77 -2.23,5 -5,5 H 5 C 2.23,37 0,34.77 0,32 V 5 C 0,2.23 2.23,0 5,0 Z" style="fill:#bbbbbb" id="rect23654"/>
    <g transform="translate(5,1)" id="g23656"/>
    <g style="font-weight:bold;font-size:6.66667px;font-family:Roboto, sans-serif;letter-spacing:2px;fill:#333333" id="text23658" transform="translate(15,33)" aria-label="L">
      <path id="path23727" style="font-weight:bold;font-size:6.66667px;font-family:Roboto, sans-serif;letter-spacing:2px;fill:#333333" d="M 1.3997403,-0.78450558 H 3.4733089 V 0 H 0.42317729 V -4.7395856 H 1.3997403 Z"/>
    </g>
    <g transform="translate(35,1)" id="g23660"/>
    <g style="font-weight:bold;font-size:6.66667px;font-family:Roboto, sans-serif;letter-spacing:2px;fill:#333333" id="text23662" transform="translate(45,33)" aria-label="R">
      <path id="path23730" style="font-weight:bold;font-size:6.66667px;font-family:Roboto, sans-serif;letter-spacing:2px;fill:#333333" d="M 2.1777354,-1.7350269 H 1.3997403 V 0 H 0.42317729 V -4.7395856 H 2.1842458 q 0.8398442,0 1.2955736,0.3743491 0.4557294,0.3743492 0.4557294,1.0579433 0,0.4850262 -0.2115887,0.8105472 -0.2083334,0.3222658 -0.6347659,0.5143232 l 1.0253911,1.93684986 V 0 H 3.0664077 Z M 1.3997403,-2.5260429 H 2.187501 q 0.3678388,0 0.5696618,-0.1855469 0.201823,-0.1888022 0.201823,-0.5175784 0,-0.3352866 -0.1920574,-0.527344 Q 2.5781262,-3.9485696 2.1842458,-3.9485696 H 1.3997403 Z"/>
    </g>
  </g>
</svg>
