<?xml version="1.0" encoding="UTF-8" standalone="no"?>
<svg xmlns:dc="http://purl.org/dc/elements/1.1/" xmlns:cc="http://creativecommons.org/ns#" xmlns:rdf="http://www.w3.org/1999/02/22-rdf-syntax-ns#" xmlns:svg="http://www.w3.org/2000/svg" xmlns="http://www.w3.org/2000/svg" xmlns:sodipodi="http://sodipodi.sourceforge.net/DTD/sodipodi-0.dtd" xmlns:inkscape="http://www.inkscape.org/namespaces/inkscape" inkscape:version="1.0 (4035a4f, 2020-05-01)" sodipodi:docname="svg_render_Mono-pp.svg" id="svg31071" viewBox="0 0 45 380" height="380" width="45" version="1.1">
  <metadata id="metadata31075">
    <rdf:RDF>
      <cc:Work rdf:about="">
        <dc:format>image/svg+xml</dc:format>
        <dc:type rdf:resource="http://purl.org/dc/dcmitype/StillImage"/>
      </cc:Work>
    </rdf:RDF>
  </metadata>
  <sodipodi:namedview inkscape:current-layer="svg31071" inkscape:window-maximized="0" inkscape:window-y="23" inkscape:window-x="0" inkscape:cy="190" inkscape:cx="22.5" inkscape:zoom="1.7605263" showgrid="false" id="namedview31073" inkscape:window-height="480" inkscape:window-width="689" inkscape:pageshadow="2" inkscape:pageopacity="0" guidetolerance="10" gridtolerance="10" objecttolerance="10" borderopacity="1" bordercolor="#666666" pagecolor="#ffffff"/>
  
  <defs id="defs30923">
    <symbol viewBox="0 0 11px 75px" id="compression-mono">
      <rect id="rect30893" transform="translate(3 0)" fill="#aaa" rx="0" y="1" x="0" height="13" width="5"/>
      <rect id="rect30895" transform="translate(3 15)" fill="#aaa" rx="0" y="1" x="0" height="13" width="5"/>
    </symbol>
    <symbol viewBox="0 0 20px 95px" id="guide-compression-mono">
      <g id="g30920" transform="translate(0 10)">
        <g id="g30902" transform="translate(0 0)">
          <polyline id="polyline30898" transform="translate(11 0)" fill="none" points="0,0 3,0"/>
          <text id="text30900" transform="translate(7 0) rotate(-90) translate(-4.5 2.2)" font-size="6.0pt">12+</text>
        </g>
        <g id="g30908" transform="translate(0 15)">
          <polyline id="polyline30904" transform="translate(11 0)" fill="none" points="0,0 3,0"/>
          <text id="text30906" transform="translate(7 0) rotate(-90) translate(-2.5 2.2)" font-size="6.0pt">6</text>
        </g>
        <g id="g30914" transform="translate(0 30)">
          <polyline id="polyline30910" transform="translate(11 0)" fill="none" points="0,0 3,0"/>
          <text id="text30912" transform="translate(7 0) rotate(-90) translate(-2.5 2.2)" font-size="6.0pt">0</text>
        </g>
        <g id="g30918" transform="translate(0 15)">
          <text id="text30916" transform="translate(31 0) rotate(-90) translate(-4.5 2.2)" font-size="6.0pt">dB</text>
        </g>
      </g>
    </symbol>
  </defs>
  <path class="module-background background-fill" d="M 0,0 H 45 V 380 H 0 Z" style="fill:#dddddd" id="rect30925"/>
  <path class="module-border-inner" d="M 1,1 H 44 V 379 H 1 V 1" style="fill:none;stroke:#e4e4e4;stroke-width:0.5" id="polyline30927"/>
  <path class="module-border-middle" d="m 0.5,0.5 h 44 v 379 H 0.5 V 0.5" style="fill:none;stroke:#ebebeb;stroke-width:0.8" id="polyline30929"/>
  <path class="module-border-outer" d="M 0,0 H 45 V 380 H 0 V 0" style="fill:none;stroke:#f2f2f2;stroke-width:1" id="polyline30931"/>
  <g class="title" style="font-weight:normal;font-size:9.33333px;font-family:Comfortaa, sans-serif;letter-spacing:2.5px;fill:#333333" id="text30933" transform="rotate(-90)" aria-label="MONO">
    <path id="path31271" style="font-weight:normal;font-size:9.33333px;font-family:Comfortaa, sans-serif;letter-spacing:2.5px;fill:#333333" d="m -368.132,5.7106691 q 0.14933,0 0.252,0.1026667 0.10266,0.1026666 0.10266,0.2613332 V 12.636 q 0,0.149333 -0.10266,0.261333 Q -367.98267,13 -368.132,13 q -0.15867,0 -0.27067,-0.102667 -0.10267,-0.112 -0.10267,-0.261333 V 7.3533353 L -371.1,12.654667 q -0.112,0.177333 -0.31733,0.177333 -0.23334,0 -0.336,-0.224 l -2.58534,-5.1706648 V 12.636 q 0,0.149333 -0.10266,0.261333 Q -374.544,13 -374.70267,13 q -0.14933,0 -0.26133,-0.102667 -0.10267,-0.112 -0.10267,-0.261333 V 6.074669 q 0,-0.1586666 0.10267,-0.2613332 0.112,-0.1026667 0.26133,-0.1026667 0.21467,0 0.32667,0.1866667 l 2.98667,5.9359982 2.93066,-5.9359982 q 0.112,-0.1866667 0.32667,-0.1866667 z"/>
    <path id="path31273" style="font-weight:normal;font-size:9.33333px;font-family:Comfortaa, sans-serif;letter-spacing:2.5px;fill:#333333" d="m -360.0463,13.093333 q -1.064,0 -1.91333,-0.485333 -0.84933,-0.485333 -1.33467,-1.334666 -0.476,-0.858666 -0.476,-1.9226661 0,-1.0639996 0.476,-1.9133327 0.48534,-0.849333 1.33467,-1.3346662 0.84933,-0.4853332 1.91333,-0.4853332 1.05467,0 1.904,0.4853332 0.85867,0.4853332 1.33467,1.3346662 0.48533,0.8493331 0.48533,1.9133327 0,1.0640001 -0.48533,1.9226661 -0.476,0.849333 -1.33467,1.334666 -0.84933,0.485333 -1.904,0.485333 z m 0,-0.690666 q 0.84934,0 1.53067,-0.401333 0.69067,-0.401334 1.08267,-1.092 0.392,-0.7 0.392,-1.5586661 0,-0.849333 -0.392,-1.5399995 -0.392,-0.6999997 -1.08267,-1.1013329 -0.68133,-0.4013332 -1.53067,-0.4013332 -0.85866,0 -1.54933,0.4013332 -0.68133,0.4013332 -1.07333,1.1013329 -0.392,0.6906665 -0.392,1.5399995 0,0.8586661 0.392,1.5586661 0.392,0.690666 1.07333,1.092 0.69067,0.401333 1.54933,0.401333 z"/>
    <path id="path31275" style="font-weight:normal;font-size:9.33333px;font-family:Comfortaa, sans-serif;letter-spacing:2.5px;fill:#333333" d="m -351.94746,13 q -0.15867,0 -0.26134,-0.102667 -0.10266,-0.102666 -0.10266,-0.261333 V 6.074669 q 0,-0.1586666 0.10266,-0.2613332 0.10267,-0.1026667 0.26134,-0.1026667 0.168,0 0.28,0.1306667 l 4.46133,5.8613312 V 6.074669 q 0,-0.1586666 0.10266,-0.2613332 0.112,-0.1026667 0.26134,-0.1026667 0.15866,0 0.26133,0.1026667 0.10267,0.1026666 0.10267,0.2613332 V 12.636 q 0,0.149333 -0.10267,0.261333 Q -346.68347,13 -346.84213,13 q -0.18667,0 -0.27067,-0.121333 l -4.47066,-5.8613316 V 12.636 q 0,0.149333 -0.10267,0.261333 Q -351.7888,13 -351.94746,13 Z"/>
    <path id="path31277" style="font-weight:normal;font-size:9.33333px;font-family:Comfortaa, sans-serif;letter-spacing:2.5px;fill:#333333" d="m -338.74943,13.093333 q -1.064,0 -1.91333,-0.485333 -0.84933,-0.485333 -1.33467,-1.334666 -0.476,-0.858666 -0.476,-1.9226661 0,-1.0639996 0.476,-1.9133327 0.48534,-0.849333 1.33467,-1.3346662 0.84933,-0.4853332 1.91333,-0.4853332 1.05467,0 1.904,0.4853332 0.85867,0.4853332 1.33467,1.3346662 0.48533,0.8493331 0.48533,1.9133327 0,1.0640001 -0.48533,1.9226661 -0.476,0.849333 -1.33467,1.334666 -0.84933,0.485333 -1.904,0.485333 z m 0,-0.690666 q 0.84933,0 1.53067,-0.401333 0.69066,-0.401334 1.08266,-1.092 0.392,-0.7 0.392,-1.5586661 0,-0.849333 -0.392,-1.5399995 -0.392,-0.6999997 -1.08266,-1.1013329 -0.68134,-0.4013332 -1.53067,-0.4013332 -0.85866,0 -1.54933,0.4013332 -0.68133,0.4013332 -1.07333,1.1013329 -0.392,0.6906665 -0.392,1.5399995 0,0.8586661 0.392,1.5586661 0.392,0.690666 1.07333,1.092 0.69067,0.401333 1.54933,0.401333 z"/>
  </g>
  <g transform="rotate(-90,200.5,175.5)" id="g30939">
    <g class="brand" style="font-weight:bold;font-size:9.33333px;font-family:Audiowide, sans-serif;letter-spacing:2px;fill:#333333" id="text30935" aria-label="BGA">
      <path id="path31263" style="font-weight:bold;font-size:9.33333px;font-family:Audiowide, sans-serif;letter-spacing:2px;fill:#333333" d="m 7.209633,-1.4355464 q 0,0.2187499 -0.077474,0.4694009 -0.072917,0.25065095 -0.2460936,0.46484359 Q 6.7174456,-0.28710928 6.4440082,-0.14127599 6.1705708,0 5.7740866,0 H 1.2760412 Q 1.1484371,0 1.0390621,-0.0455729 0.92968718,-0.0911458 0.84765596,-0.16861973 0.77018203,-0.25065096 0.72460913,-0.36002592 0.67903623,-0.46940088 0.67903623,-0.597005 v -5.341144 q 0,-0.1230469 0.0455729,-0.2324218 0.0455729,-0.109375 0.12304683,-0.1914062 0.0820312,-0.082031 0.19140614,-0.1276041 0.109375,-0.045573 0.2369791,-0.045573 h 3.9648424 q 0.21875,0 0.4694009,0.077474 0.250651,0.077474 0.4648436,0.250651 0.2187499,0.1686197 0.3600259,0.4420571 0.1458333,0.2734374 0.1458333,0.6699217 v 0.2233072 q 0,0.314453 -0.1048177,0.6790362 -0.1048176,0.3600259 -0.3372394,0.6835935 0.2005207,0.1230468 0.3736978,0.2962239 0.1777343,0.173177 0.3098957,0.4010415 0.1321614,0.2278645 0.2096353,0.5149738 0.077474,0.2871093 0.077474,0.6334633 z M 6.0247375,-1.6634109 q 0,-0.2324218 -0.072917,-0.4147134 Q 5.8789042,-2.2649732 5.7467428,-2.3971346 5.6145814,-2.529296 5.4277325,-2.5976554 5.2408836,-2.670572 5.0084618,-2.670572 h -2.670572 v -1.19401 h 2.1373691 q 0.2324218,0 0.4192707,-0.068359 0.1868489,-0.072917 0.3190103,-0.205078 0.1321614,-0.1321614 0.2005208,-0.314453 0.072917,-0.1868489 0.072917,-0.4192707 v -0.2233072 q 0,-0.2552083 -0.2460937,-0.2552083 H 1.8639317 v 4.1653632 h 3.9101549 q 0.031901,0 0.077474,-0.00456 0.045573,-0.00456 0.082031,-0.027344 0.036458,-0.022786 0.063802,-0.077474 0.027344,-0.054687 0.027344,-0.1503906 z"/>
      <path id="path31265" style="font-weight:bold;font-size:9.33333px;font-family:Audiowide, sans-serif;letter-spacing:2px;fill:#333333" d="m 16.683589,-0.597005 q 0,0.12760412 -0.04557,0.23697908 -0.04557,0.10937496 -0.127605,0.19140619 -0.07747,0.07747393 -0.186849,0.12304683 Q 16.214189,0 16.086584,0 h -4.274738 q -0.164062,0 -0.355468,-0.03645832 -0.186849,-0.04101561 -0.373698,-0.12304683 -0.182292,-0.0820312 -0.350911,-0.20963535 -0.16862,-0.13216141 -0.300782,-0.31445302 -0.127604,-0.18684889 -0.205078,-0.42838528 -0.07747,-0.2460937 -0.07747,-0.5514321 v -3.2083322 q 0,-0.1640625 0.03646,-0.3509114 0.04101,-0.1914062 0.123047,-0.3736978 0.08203,-0.1868489 0.214192,-0.3554686 0.132162,-0.1686197 0.314453,-0.2962238 0.186849,-0.1321615 0.428385,-0.2096354 0.241537,-0.077474 0.546875,-0.077474 h 4.817056 v 1.1848954 h -4.817056 q -0.232422,0 -0.355468,0.1230468 -0.123047,0.1230469 -0.123047,0.3645832 v 3.1992177 q 0,0.2278645 0.123047,0.3554686 0.127604,0.1230469 0.355468,0.1230469 h 3.686848 V -2.670572 h -3.153645 v -1.19401 h 3.741535 q 0.127605,0 0.236979,0.05013 0.109375,0.045573 0.186849,0.1276041 0.08203,0.082031 0.127605,0.1914062 0.04557,0.1048177 0.04557,0.2278645 z"/>
      <path id="path31267" style="font-weight:bold;font-size:9.33333px;font-family:Audiowide, sans-serif;letter-spacing:2px;fill:#333333" d="M 26.339836,0 H 25.154941 V -1.6041661 H 20.989578 V 0 h -1.184896 v -3.267577 q 0,-0.7154946 0.246094,-1.3170569 0.246094,-0.6015623 0.683593,-1.0345048 0.4375,-0.4329426 1.034505,-0.6744789 0.597005,-0.2415364 1.303385,-0.2415364 h 2.670572 q 0.123047,0 0.232422,0.045573 0.109375,0.045573 0.191406,0.1276041 0.08203,0.082031 0.127604,0.1914062 0.04557,0.1093749 0.04557,0.2324218 z m -5.350258,-2.7890616 h 4.165363 v -2.561197 h -2.082682 q -0.05469,0 -0.232422,0.018229 -0.173177,0.013672 -0.405598,0.077474 -0.227865,0.063802 -0.483073,0.1959635 -0.255208,0.1321614 -0.469401,0.3645832 -0.214193,0.2324218 -0.355469,0.5833331 -0.136718,0.3463541 -0.136718,0.8430987 z"/>
    </g>
    <path d="M 0,0 H 3 V 3 H 0 Z" style="fill:#dddddd" transform="translate(11.5,-5)" id="rect30937"/>
  </g>
  <g style="font-weight:bold;font-size:8px;font-family:Roboto, sans-serif;letter-spacing:2px;fill:#333333" id="text30943" aria-label="CHAN">
    <path id="path31254" style="font-weight:bold;font-size:8px;font-family:Roboto, sans-serif;letter-spacing:2px;fill:#333333" d="m 12.972656,23.105469 q -0.06641,0.917968 -0.679687,1.445312 -0.609375,0.527344 -1.609375,0.527344 -1.0937502,0 -1.7226565,-0.734375 -0.625,-0.738281 -0.625,-2.023438 v -0.347656 q 0,-0.820312 0.2890625,-1.445312 0.2890625,-0.625 0.8242188,-0.957032 0.5390625,-0.335937 1.2500002,-0.335937 0.984375,0 1.585937,0.527344 0.601563,0.527343 0.695313,1.480468 H 11.808594 Q 11.765625,20.691406 11.5,20.445312 q -0.261719,-0.25 -0.800781,-0.25 -0.585938,0 -0.8789065,0.421875 -0.2890625,0.417969 -0.296875,1.300782 v 0.429687 q 0,0.921875 0.2773438,1.347656 0.2812497,0.425782 0.8828127,0.425782 0.542969,0 0.808594,-0.246094 0.269531,-0.25 0.308593,-0.769531 z"/>
    <path id="path31256" style="font-weight:bold;font-size:8px;font-family:Roboto, sans-serif;letter-spacing:2px;fill:#333333" d="M 20.371094,25 H 19.199219 V 22.5625 H 16.914062 V 25 h -1.171874 v -5.6875 h 1.171874 v 2.304687 h 2.285157 V 19.3125 h 1.171875 z"/>
    <path id="path31258" style="font-weight:bold;font-size:8px;font-family:Roboto, sans-serif;letter-spacing:2px;fill:#333333" d="M 26.6875,23.828125 H 24.632812 L 24.242187,25 h -1.246093 l 2.117187,-5.6875 h 1.085938 L 28.328125,25 h -1.246094 z m -1.738281,-0.949219 h 1.421875 L 25.65625,20.75 Z"/>
    <path id="path31260" style="font-weight:bold;font-size:8px;font-family:Roboto, sans-serif;letter-spacing:2px;fill:#333333" d="m 35.492187,25 h -1.171875 l -2.28125,-3.742188 V 25 h -1.171875 v -5.6875 h 1.171875 l 2.285157,3.75 v -3.75 h 1.167968 z"/>
  </g>
  <g transform="translate(4.3,31.8)" id="g30947"/>
  <g transform="translate(14.3,31.8)" id="g30949"/>
  <g transform="translate(24.3,31.8)" id="g30951"/>
  <g transform="translate(34.3,31.8)" id="g30953"/>
  <g transform="translate(4.3,41.8)" id="g30955"/>
  <g transform="translate(14.3,41.8)" id="g30957"/>
  <g transform="translate(24.3,41.8)" id="g30959"/>
  <g transform="translate(34.3,41.8)" id="g30961"/>
  <g transform="translate(4.3,51.8)" id="g30963"/>
  <g transform="translate(14.3,51.8)" id="g30965"/>
  <g transform="translate(24.3,51.8)" id="g30967"/>
  <g transform="translate(34.3,51.8)" id="g30969"/>
  <g transform="translate(4.3,61.8)" id="g30971"/>
  <g transform="translate(14.3,61.8)" id="g30973"/>
  <g transform="translate(24.3,61.8)" id="g30975"/>
  <g transform="translate(34.3,61.8)" id="g30977"/>
  <g style="font-weight:bold;font-size:8px;font-family:Roboto, sans-serif;letter-spacing:2px;fill:#333333" id="text30981" aria-label="COMP">
    <path id="path31245" style="font-weight:bold;font-size:8px;font-family:Roboto, sans-serif;letter-spacing:2px;fill:#333333" d="m 12.972656,90.105469 q -0.06641,0.917968 -0.679687,1.445312 -0.609375,0.527344 -1.609375,0.527344 -1.0937502,0 -1.7226565,-0.734375 -0.625,-0.738281 -0.625,-2.023438 v -0.347656 q 0,-0.820312 0.2890625,-1.445312 0.2890625,-0.625 0.8242188,-0.957032 0.5390625,-0.335937 1.2500002,-0.335937 0.984375,0 1.585937,0.527344 0.601563,0.527343 0.695313,1.480468 H 11.808594 Q 11.765625,87.691406 11.5,87.445312 q -0.261719,-0.25 -0.800781,-0.25 -0.585938,0 -0.8789065,0.421875 -0.2890625,0.417969 -0.296875,1.300782 v 0.429687 q 0,0.921875 0.2773438,1.347656 0.2812497,0.425782 0.8828127,0.425782 0.542969,0 0.808594,-0.246094 0.269531,-0.25 0.308593,-0.769531 z"/>
    <path id="path31247" style="font-weight:bold;font-size:8px;font-family:Roboto, sans-serif;letter-spacing:2px;fill:#333333" d="m 20.414062,89.285156 q 0,0.839844 -0.296875,1.472656 -0.296875,0.632813 -0.851562,0.976563 -0.550781,0.34375 -1.265625,0.34375 -0.707031,0 -1.261719,-0.339844 -0.554687,-0.339844 -0.859375,-0.96875 -0.304687,-0.632812 -0.308593,-1.453125 v -0.28125 q 0,-0.839844 0.300781,-1.476562 0.304687,-0.640625 0.855468,-0.980469 0.554688,-0.34375 1.265625,-0.34375 0.710938,0 1.261719,0.34375 0.554688,0.339844 0.855469,0.980469 0.304687,0.636718 0.304687,1.472656 z m -1.1875,-0.257812 q 0,-0.894532 -0.320312,-1.359375 -0.320313,-0.464844 -0.914063,-0.464844 -0.589843,0 -0.910156,0.460937 -0.320312,0.457032 -0.324219,1.34375 v 0.277344 q 0,0.871094 0.320313,1.351563 0.320312,0.480468 0.921875,0.480468 0.589844,0 0.90625,-0.460937 0.316406,-0.464844 0.320312,-1.351563 z"/>
    <path id="path31249" style="font-weight:bold;font-size:8px;font-family:Roboto, sans-serif;letter-spacing:2px;fill:#333333" d="m 24.804687,86.3125 1.460938,4.125 1.453125,-4.125 h 1.539062 V 92 H 28.082031 V 90.445312 L 28.199219,87.761719 26.664062,92 h -0.804687 l -1.53125,-4.234375 0.117187,2.679687 V 92 h -1.171875 v -5.6875 z"/>
    <path id="path31251" style="font-weight:bold;font-size:8px;font-family:Roboto, sans-serif;letter-spacing:2px;fill:#333333" d="M 33.460937,89.996094 V 92 h -1.171875 v -5.6875 h 2.21875 q 0.640625,0 1.125,0.234375 0.488282,0.234375 0.75,0.667969 0.261719,0.429687 0.261719,0.980468 0,0.835938 -0.574219,1.320313 Q 35.5,89.996094 34.488281,89.996094 Z m 0,-0.949219 h 1.046875 q 0.464844,0 0.707032,-0.21875 0.246093,-0.21875 0.246093,-0.625 0,-0.417969 -0.246093,-0.675781 -0.246094,-0.257813 -0.679688,-0.265625 h -1.074219 z"/>
  </g>
  <g transform="translate(9.5,99.5)" id="g30983"/>
  <g transform="translate(0,90)" id="g31009">
    <g transform="translate(22.5,22.5)" id="g31007">
      <g style="font-weight:bold;font-size:6.66667px;font-family:Roboto, sans-serif;fill:#333333" id="text30985" transform="translate(-11,17.588457)" aria-label="0">
        <path id="path31232" style="font-weight:bold;font-size:6.66667px;font-family:Roboto, sans-serif;fill:#333333" d="m 3.5123715,-1.9596364 q 0,0.98307343 -0.4069013,1.50390702 Q 2.698569,0.0651042 1.9140634,0.0651042 q -0.7747399,0 -1.18489639,-0.51106795 Q 0.31901057,-0.95703171 0.30924494,-1.9108082 v -0.8723963 q 0,-0.992839 0.41015644,-1.5071621 0.41341162,-0.5143232 1.18815162,-0.5143232 0.7747399,0 1.1848964,0.511068 0.4101564,0.5078127 0.4199221,1.4615892 z M 2.5716158,-2.9166681 q 0,-0.5891929 -0.1627605,-0.8561202 Q 2.24935,-4.0429707 1.907553,-4.0429707 q -0.3320314,0 -0.4915367,0.2571616 -0.1562501,0.2539064 -0.1660157,0.7975264 v 1.1523443 q 0,0.5794274 0.1562501,0.86263064 0.1595053,0.27994805 0.5078127,0.27994805 0.3450523,0 0.4980471,-0.27018242 0.1529949,-0.27018237 0.1595053,-0.82682327 z"/>
      </g>
      <path d="M 0,0 H 2.5" style="stroke:#333333;stroke-width:0.3" transform="rotate(150,-7.5,2.0096189)" id="polyline30987"/>
      <path d="M 0,0 H 2.5" style="stroke:#333333;stroke-width:0.3" transform="rotate(180,-7.5,0)" id="polyline30989"/>
      <path d="M 0,0 H 2.5" style="stroke:#333333;stroke-width:0.3" transform="rotate(-150,-7.5,-2.0096189)" id="polyline30991"/>
      <path d="M 0,0 H 2.5" style="stroke:#333333;stroke-width:0.3" transform="rotate(-120,-7.5,-4.330127)" id="polyline30993"/>
      <path d="M 0,0 H 2.5" style="stroke:#333333;stroke-width:0.3" transform="rotate(-90,-7.5,-7.5)" id="polyline30995"/>
      <path d="M 0,0 H 2.5" style="stroke:#333333;stroke-width:0.3" transform="rotate(-60,-7.5,-12.990381)" id="polyline30997"/>
      <path d="M 0,0 H 2.5" style="stroke:#333333;stroke-width:0.3" transform="rotate(-30,-7.5,-27.990381)" id="polyline30999"/>
      <path d="M 0,0 H 2.5" style="stroke:#333333;stroke-width:0.3" transform="translate(15)" id="polyline31001"/>
      <path d="M 0,0 H 2.5" style="stroke:#333333;stroke-width:0.3" transform="rotate(30,-7.5,27.990381)" id="polyline31003"/>
      <path d="M 0,0 H 3.5" style="stroke:#333333;stroke-width:1" transform="rotate(60,-7.5,12.990381)" id="polyline31005"/>
    </g>
  </g>
  <g transform="translate(4,136)" id="use31013">
    <g transform="translate(0,10)" id="g31161">
      <g id="g31143">
        <path d="M 0,0 H 3" style="fill:none;stroke:#333333" transform="translate(11)" id="polyline31139"/>
        <g style="font-weight:bold;font-size:8px;font-family:Roboto, sans-serif;fill:#333333" id="text31141" transform="rotate(-90,6.85,-2.35)" aria-label="12+">
          <path id="path31212" style="font-weight:bold;font-size:8px;font-family:Roboto, sans-serif;fill:#333333" d="M 3.1289063,0 H 2 v -4.3515625 l -1.34765625,0.4179687 v -0.9179687 l 2.35546875,-0.84375 h 0.1210938 z"/>
          <path id="path31214" style="font-weight:bold;font-size:8px;font-family:Roboto, sans-serif;fill:#333333" d="M 8.8789063,0 H 4.9804687 V -0.7734375 L 6.8203125,-2.734375 Q 7.1992187,-3.1484375 7.3789062,-3.4570313 7.5625,-3.765625 7.5625,-4.0429687 q 0,-0.3789063 -0.1914063,-0.59375 -0.1914062,-0.21875 -0.546875,-0.21875 -0.3828125,0 -0.6054687,0.265625 Q 6,-4.328125 6,-3.8984375 H 4.8671875 q 0,-0.5195312 0.2460937,-0.9492187 0.25,-0.4296875 0.703125,-0.671875 0.453125,-0.2460938 1.0273438,-0.2460938 0.8789062,0 1.3632813,0.421875 0.4882812,0.421875 0.4882812,1.1914063 0,0.4218749 -0.21875,0.8593749 -0.21875,0.4375 -0.75,1.0195313 l -1.2929688,1.36328125 h 2.4453126 z"/>
          <path id="path31216" style="font-weight:bold;font-size:8px;font-family:Roboto, sans-serif;fill:#333333" d="m 11.898438,-3.1835938 h 1.410156 v 1.0195313 h -1.410156 v 1.59375 h -1.074219 v -1.59375 H 9.4101563 v -1.0195313 h 1.4140627 v -1.5273437 h 1.074219 z"/>
        </g>
      </g>
      <g transform="translate(0,15)" id="g31149">
        <path d="M 0,0 H 3" style="fill:none;stroke:#333333" transform="translate(11)" id="polyline31145"/>
        <g style="font-weight:bold;font-size:8px;font-family:Roboto, sans-serif;fill:#333333" id="text31147" transform="rotate(-90,5.85,-3.35)" aria-label="6">
          <path id="path31220" style="font-weight:bold;font-size:8px;font-family:Roboto, sans-serif;fill:#333333" d="m 3.4492188,-5.7460937 v 0.9296875 h -0.109375 q -0.765625,0.011719 -1.234375,0.3984375 Q 1.640625,-4.03125 1.546875,-3.34375 2,-3.8046875 2.6914063,-3.8046875 q 0.7421875,0 1.1796875,0.53125 0.4374999,0.53125 0.4374999,1.3984375 0,0.5546875 -0.2421875,1.00390625 Q 3.828125,-0.421875 3.3867188,-0.171875 q -0.4375,0.25 -0.9921875,0.25 -0.8984376,0 -1.45312505,-0.625 Q 0.390625,-1.171875 0.390625,-2.2148438 v -0.40625 q 0,-0.9257812 0.34765625,-1.6328124 0.35156245,-0.7109375 1.00390625,-1.0976563 0.65625,-0.390625 1.5195313,-0.3945312 z m -1.1015625,2.8476562 q -0.2734375,0 -0.4960938,0.1445312 -0.2226563,0.140625 -0.328125,0.375 v 0.34375 q 0,0.5664063 0.2226562,0.8867188 0.2226563,0.31640625 0.6250001,0.31640625 0.3632812,0 0.5859375,-0.28515625 0.2265625,-0.2890625 0.2265625,-0.7460937 0,-0.4648438 -0.2265625,-0.7500001 -0.2265625,-0.2851562 -0.609375,-0.2851562 z"/>
        </g>
      </g>
      <g transform="translate(0,30)" id="g31155">
        <path d="M 0,0 H 3" style="fill:none;stroke:#333333" transform="translate(11)" id="polyline31151"/>
        <g style="font-weight:bold;font-size:8px;font-family:Roboto, sans-serif;fill:#333333" id="text31153" transform="rotate(-90,5.85,-3.35)" aria-label="0">
          <path id="path31224" style="font-weight:bold;font-size:8px;font-family:Roboto, sans-serif;fill:#333333" d="m 4.2148437,-2.3515625 q 0,1.1796875 -0.4882812,1.8046875 -0.4882812,0.625 -1.4296875,0.625 -0.9296875,0 -1.421875,-0.61328125 Q 0.3828125,-1.1484375 0.37109375,-2.2929688 v -1.046875 q 0,-1.1914062 0.4921875,-1.8085937 Q 1.359375,-5.765625 2.2890625,-5.765625 q 0.9296875,0 1.421875,0.6132813 0.4921875,0.609375 0.5039062,1.7539062 z M 3.0859375,-3.5 q 0,-0.7070312 -0.1953125,-1.0273437 -0.1914062,-0.3242188 -0.6015625,-0.3242188 -0.3984375,0 -0.5898438,0.3085938 Q 1.5117187,-4.2382812 1.5,-3.5859375 v 1.3828125 q 0,0.6953125 0.1875,1.0351563 0.1914062,0.33593745 0.609375,0.33593745 0.4140625,0 0.5976563,-0.32421875 0.1835937,-0.3242187 0.1914062,-0.9921875 z"/>
        </g>
      </g>
      <g transform="translate(0,15)" id="g31159">
        <g style="font-weight:bold;font-size:8px;font-family:Roboto, sans-serif;fill:#333333" id="text31157" transform="rotate(-90,18.85,-14.35)" aria-label="dB">
          <path id="path31227" style="font-weight:bold;font-size:8px;font-family:Roboto, sans-serif;fill:#333333" d="m 0.2578125,-2.1445313 q 0,-0.9882812 0.44140625,-1.5742187 0.44531245,-0.5859375 1.21484375,-0.5859375 0.6171875,0 1.0195313,0.4609375 V -6 H 4.0664062 V 0 H 3.046875 L 2.9921875,-0.44921875 Q 2.5703125,0.078125 1.90625,0.078125 q -0.7460938,0 -1.19921875,-0.5859375 Q 0.2578125,-1.0976562 0.2578125,-2.1445313 Z M 1.3867187,-2.0625 q 0,0.59375 0.2070313,0.9101563 0.2070312,0.3164062 0.6015625,0.3164062 0.5234375,0 0.7382813,-0.4414062 V -2.9453125 Q 2.7226563,-3.3867188 2.203125,-3.3867188 q -0.8164063,0 -0.8164063,1.3242188 z"/>
          <path id="path31229" style="font-weight:bold;font-size:8px;font-family:Roboto, sans-serif;fill:#333333" d="M 5.0234375,0 V -5.6875 H 7.015625 q 1.0351563,0 1.5703125,0.3984375 0.5351563,0.3945313 0.5351563,1.1601563 0,0.4179687 -0.2148438,0.7382812 -0.2148437,0.3164062 -0.5976562,0.4648437 0.4375,0.109375 0.6875,0.4414063 Q 9.25,-2.1523438 9.25,-1.671875 9.25,-0.8515625 8.7265625,-0.4296875 8.203125,-0.0078125 7.234375,0 Z m 1.171875,-2.4765625 v 1.53515625 h 1.0039062 q 0.4140625,0 0.6445313,-0.19531245 0.234375,-0.1992188 0.234375,-0.546875 0,-0.7812501 -0.8085938,-0.7929688 z m 0,-0.828125 H 7.0625 q 0.8867187,-0.015625 0.8867187,-0.7070312 0,-0.3867188 -0.2265625,-0.5546875 Q 7.5,-4.7382812 7.015625,-4.7382812 H 6.1953125 Z"/>
        </g>
      </g>
    </g>
  </g>
  <g style="font-weight:bold;font-size:8px;font-family:Roboto, sans-serif;letter-spacing:2px;fill:#333333" id="text31017" aria-label="LEVEL">
    <path id="path31200" style="font-weight:bold;font-size:8px;font-family:Roboto, sans-serif;letter-spacing:2px;fill:#333333" d="M 8.6796875,197.05859 H 11.167969 V 198 H 7.5078125 v -5.6875 h 1.171875 z"/>
    <path id="path31202" style="font-weight:bold;font-size:8px;font-family:Roboto, sans-serif;letter-spacing:2px;fill:#333333" d="m 17.257812,195.53516 h -2.249999 v 1.52343 h 2.640624 V 198 h -3.812499 v -5.6875 h 3.804687 v 0.94922 h -2.632812 v 1.35547 h 2.249999 z"/>
    <path id="path31204" style="font-weight:bold;font-size:8px;font-family:Roboto, sans-serif;letter-spacing:2px;fill:#333333" d="m 22.4375,196.58984 1.289062,-4.27734 H 25.03125 L 23.050781,198 h -1.222656 l -1.972656,-5.6875 h 1.300781 z"/>
    <path id="path31206" style="font-weight:bold;font-size:8px;font-family:Roboto, sans-serif;letter-spacing:2px;fill:#333333" d="m 30.992187,195.53516 h -2.25 v 1.52343 h 2.640625 V 198 h -3.8125 v -5.6875 H 31.375 v 0.94922 h -2.632813 v 1.35547 h 2.25 z"/>
    <path id="path31208" style="font-weight:bold;font-size:8px;font-family:Roboto, sans-serif;letter-spacing:2px;fill:#333333" d="m 35.242187,197.05859 h 2.488282 V 198 h -3.660157 v -5.6875 h 1.171875 z"/>
  </g>
  <g transform="translate(9.5,205.5)" id="g31019"/>
  <g transform="translate(0,196)" id="g31045">
    <g transform="translate(22.5,22.5)" id="g31043">
      <g style="font-weight:bold;font-size:6.66667px;font-family:Roboto, sans-serif;fill:#333333" id="text31021" transform="translate(-11,17.588457)" aria-label="0">
        <path id="path31187" style="font-weight:bold;font-size:6.66667px;font-family:Roboto, sans-serif;fill:#333333" d="m 3.5123715,-1.9596364 q 0,0.98307343 -0.4069013,1.50390702 Q 2.698569,0.0651042 1.9140634,0.0651042 q -0.7747399,0 -1.18489639,-0.51106795 Q 0.31901057,-0.95703171 0.30924494,-1.9108082 v -0.8723963 q 0,-0.992839 0.41015644,-1.5071621 0.41341162,-0.5143232 1.18815162,-0.5143232 0.7747399,0 1.1848964,0.511068 0.4101564,0.5078127 0.4199221,1.4615892 z M 2.5716158,-2.9166681 q 0,-0.5891929 -0.1627605,-0.8561202 Q 2.24935,-4.0429707 1.907553,-4.0429707 q -0.3320314,0 -0.4915367,0.2571616 -0.1562501,0.2539064 -0.1660157,0.7975264 v 1.1523443 q 0,0.5794274 0.1562501,0.86263064 0.1595053,0.27994805 0.5078127,0.27994805 0.3450523,0 0.4980471,-0.27018242 0.1529949,-0.27018237 0.1595053,-0.82682327 z"/>
      </g>
      <path d="M 0,0 H 2.5" style="stroke:#333333;stroke-width:0.3" transform="rotate(150,-7.5,2.0096189)" id="polyline31023"/>
      <path d="M 0,0 H 2.5" style="stroke:#333333;stroke-width:0.3" transform="rotate(180,-7.5,0)" id="polyline31025"/>
      <path d="M 0,0 H 2.5" style="stroke:#333333;stroke-width:0.3" transform="rotate(-150,-7.5,-2.0096189)" id="polyline31027"/>
      <path d="M 0,0 H 2.5" style="stroke:#333333;stroke-width:0.3" transform="rotate(-120,-7.5,-4.330127)" id="polyline31029"/>
      <path d="M 0,0 H 2.5" style="stroke:#333333;stroke-width:0.3" transform="rotate(-90,-7.5,-7.5)" id="polyline31031"/>
      <path d="M 0,0 H 2.5" style="stroke:#333333;stroke-width:0.3" transform="rotate(-60,-7.5,-12.990381)" id="polyline31033"/>
      <path d="M 0,0 H 2.5" style="stroke:#333333;stroke-width:0.3" transform="rotate(-30,-7.5,-27.990381)" id="polyline31035"/>
      <path d="M 0,0 H 2.5" style="stroke:#333333;stroke-width:0.3" transform="translate(15)" id="polyline31037"/>
      <path d="M 0,0 H 2.5" style="stroke:#333333;stroke-width:0.3" transform="rotate(30,-7.5,27.990381)" id="polyline31039"/>
      <path d="M 0,0 H 3.5" style="stroke:#333333;stroke-width:1" transform="rotate(60,-7.5,12.990381)" id="polyline31041"/>
    </g>
  </g>
  <g transform="translate(5.5,251)" id="g31057">
    <path d="M 0,0 H 34 V 10 H 0 Z" style="fill:#fafafa" transform="translate(0,28)" id="rect31049"/>
    <path d="m 5,0 h 24 c 2.77,0 5,2.23 5,5 v 25 c 0,2.77 -2.23,5 -5,5 H 5 C 2.23,35 0,32.77 0,30 V 5 C 0,2.23 2.23,0 5,0 Z" style="fill:#fafafa" id="rect31051"/>
    <g transform="translate(5,3)" id="g31053"/>
    <g style="font-weight:bold;font-size:6.66667px;font-family:Roboto, sans-serif;letter-spacing:2px;fill:#333333" id="text31055" transform="translate(6,35)" aria-label="POLY">
      <path id="path31178" style="font-weight:bold;font-size:6.66667px;font-family:Roboto, sans-serif;letter-spacing:2px;fill:#333333" d="M 1.3997403,-1.6699227 V 0 H 0.42317729 V -4.7395856 H 2.2721365 q 0.5338544,0 0.9375004,0.1953126 0.4069013,0.1953126 0.6250003,0.5566409 0.2180991,0.3580731 0.2180991,0.8170577 0,0.6966149 -0.4785158,1.1002609 -0.4752607,0.4003908 -1.31836,0.4003908 z m 0,-0.791016 h 0.8723962 q 0.38737,0 0.589193,-0.1822917 0.2050782,-0.1822918 0.2050782,-0.5208336 0,-0.3483075 -0.2050782,-0.5631513 Q 2.6562513,-3.9420592 2.294923,-3.9485696 H 1.3997403 Z"/>
      <path id="path31180" style="font-weight:bold;font-size:6.66667px;font-family:Roboto, sans-serif;letter-spacing:2px;fill:#333333" d="m 10.613285,-2.2623709 q 0,0.6998702 -0.247396,1.2272142 -0.247396,0.52734396 -0.7096355,0.81380243 -0.4589846,0.28645847 -1.054688,0.28645847 -0.589193,0 -1.0514328,-0.28320326 Q 7.0878929,-0.50130232 6.8339865,-1.0253911 6.5800802,-1.5527351 6.576825,-2.2363292 v -0.2343751 q 0,-0.6998701 0.2506511,-1.2304693 0.2539064,-0.5338545 0.712891,-0.8170577 0.4622398,-0.2864585 1.054688,-0.2864585 0.5924482,0 1.0514328,0.2864585 0.4622401,0.2832032 0.7128911,0.8170577 0.253906,0.5305992 0.253906,1.2272141 z M 9.6237014,-2.4772147 q 0,-0.7454431 -0.2669272,-1.1328131 -0.2669272,-0.3873699 -0.7617191,-0.3873699 -0.4915367,0 -0.7584639,0.3841147 -0.2669272,0.3808596 -0.2701824,1.1197922 v 0.2311199 q 0,0.7259118 0.2669272,1.1263026 0.2669272,0.40039087 0.7682295,0.40039087 0.4915367,0 0.7552087,-0.38411477 0.263672,-0.38737 0.2669272,-1.1263026 z"/>
      <path id="path31182" style="font-weight:bold;font-size:6.66667px;font-family:Roboto, sans-serif;letter-spacing:2px;fill:#333333" d="m 14.305994,-0.78450558 h 2.073569 V 0 h -3.050132 v -4.7395856 h 0.976563 z"/>
      <path id="path31184" style="font-weight:bold;font-size:6.66667px;font-family:Roboto, sans-serif;letter-spacing:2px;fill:#333333" d="m 19.658861,-2.6041679 0.986328,-2.1354177 h 1.067709 l -1.55599,3.0208348 V 0 h -0.992839 v -1.7187508 l -1.55599,-3.0208348 h 1.070964 z"/>
    </g>
  </g>
  <g transform="translate(5.5,292)" id="g31067">
    <path d="M 0,0 H 34 V 10 H 0 Z" style="fill:#bbbbbb" transform="translate(0,-3)" id="rect31059"/>
    <path d="m 5,0 h 24 c 2.77,0 5,2.23 5,5 v 25 c 0,2.77 -2.23,5 -5,5 H 5 C 2.23,35 0,32.77 0,30 V 5 C 0,2.23 2.23,0 5,0 Z" style="fill:#bbbbbb" id="rect31061"/>
    <g transform="translate(5)" id="g31063"/>
    <g style="font-weight:bold;font-size:6.66667px;font-family:Roboto, sans-serif;letter-spacing:2px;fill:#333333" id="text31065" transform="translate(4.5,32)" aria-label="MONO">
      <path id="path31167" style="font-weight:bold;font-size:6.66667px;font-family:Roboto, sans-serif;letter-spacing:2px;fill:#333333" d="m 1.6992196,-4.7395856 1.2174485,3.4375016 1.210938,-3.4375016 H 5.4101588 V 0 H 4.4303407 V -1.2955735 L 4.527997,-3.5319027 3.2486995,0 H 2.5781262 l -1.2760422,-3.5286475 0.097656,2.233074 V 0 H 0.42317729 v -4.7395856 z"/>
      <path id="path31169" style="font-weight:bold;font-size:6.66667px;font-family:Roboto, sans-serif;letter-spacing:2px;fill:#333333" d="m 12.162765,-2.2623709 q 0,0.6998702 -0.247396,1.2272142 -0.247396,0.52734396 -0.709636,0.81380243 -0.458984,0.28645847 -1.054688,0.28645847 -0.5891925,0 -1.0514323,-0.28320326 Q 8.6373729,-0.50130232 8.3834665,-1.0253911 8.1295601,-1.5527351 8.1263049,-2.2363292 v -0.2343751 q 0,-0.6998701 0.2506512,-1.2304693 0.2539064,-0.5338545 0.7128909,-0.8170577 0.4622398,-0.2864585 1.054688,-0.2864585 0.592448,0 1.051433,0.2864585 0.46224,0.2832032 0.712891,0.8170577 0.253906,0.5305992 0.253906,1.2272141 z m -0.989584,-0.2148438 q 0,-0.7454431 -0.266927,-1.1328131 -0.266927,-0.3873699 -0.761719,-0.3873699 -0.4915366,0 -0.7584639,0.3841147 -0.2669272,0.3808596 -0.2701824,1.1197922 v 0.2311199 q 0,0.7259118 0.2669272,1.1263026 0.2669272,0.40039087 0.7682291,0.40039087 0.491537,0 0.755209,-0.38411477 0.263672,-0.38737 0.266927,-1.1263026 z"/>
      <path id="path31171" style="font-weight:bold;font-size:6.66667px;font-family:Roboto, sans-serif;letter-spacing:2px;fill:#333333" d="M 18.73308,0 H 17.756517 L 15.855475,-3.1184911 V 0 h -0.976563 v -4.7395856 h 0.976563 l 1.904297,3.1250015 v -3.1250015 h 0.973308 z"/>
      <path id="path31173" style="font-weight:bold;font-size:6.66667px;font-family:Roboto, sans-serif;letter-spacing:2px;fill:#333333" d="m 25.485685,-2.2623709 q 0,0.6998702 -0.247395,1.2272142 -0.247396,0.52734396 -0.709636,0.81380243 -0.458985,0.28645847 -1.054688,0.28645847 -0.589193,0 -1.051433,-0.28320326 -0.46224,-0.28320326 -0.716146,-0.80729204 -0.253907,-0.527344 -0.257162,-1.2109381 v -0.2343751 q 0,-0.6998701 0.250651,-1.2304693 0.253907,-0.5338545 0.712891,-0.8170577 0.46224,-0.2864585 1.054688,-0.2864585 0.592449,0 1.051433,0.2864585 0.46224,0.2832032 0.712891,0.8170577 0.253906,0.5305992 0.253906,1.2272141 z m -0.989583,-0.2148438 q 0,-0.7454431 -0.266928,-1.1328131 -0.266927,-0.3873699 -0.761719,-0.3873699 -0.491536,0 -0.758464,0.3841147 -0.266927,0.3808596 -0.270182,1.1197922 v 0.2311199 q 0,0.7259118 0.266927,1.1263026 0.266927,0.40039087 0.76823,0.40039087 0.491536,0 0.755208,-0.38411477 0.263672,-0.38737 0.266928,-1.1263026 z"/>
    </g>
  </g>
</svg>
