<?xml version="1.0" encoding="UTF-8" standalone="no"?>
<svg xmlns:dc="http://purl.org/dc/elements/1.1/" xmlns:cc="http://creativecommons.org/ns#" xmlns:rdf="http://www.w3.org/1999/02/22-rdf-syntax-ns#" xmlns:svg="http://www.w3.org/2000/svg" xmlns="http://www.w3.org/2000/svg" xmlns:sodipodi="http://sodipodi.sourceforge.net/DTD/sodipodi-0.dtd" xmlns:inkscape="http://www.inkscape.org/namespaces/inkscape" inkscape:version="1.0 (4035a4f, 2020-05-01)" sodipodi:docname="svg_render_Mult-pp.svg" id="svg32820" viewBox="0 0 45 380" height="380" width="45" version="1.1">
  <metadata id="metadata32826">
    <rdf:RDF>
      <cc:Work rdf:about="">
        <dc:format>image/svg+xml</dc:format>
        <dc:type rdf:resource="http://purl.org/dc/dcmitype/StillImage"/>
      </cc:Work>
    </rdf:RDF>
  </metadata>
  <defs id="defs32824"/>
  <sodipodi:namedview inkscape:current-layer="svg32820" inkscape:window-maximized="0" inkscape:window-y="23" inkscape:window-x="0" inkscape:cy="190" inkscape:cx="22.5" inkscape:zoom="1.7605263" showgrid="false" id="namedview32822" inkscape:window-height="480" inkscape:window-width="689" inkscape:pageshadow="2" inkscape:pageopacity="0" guidetolerance="10" gridtolerance="10" objecttolerance="10" borderopacity="1" bordercolor="#666666" pagecolor="#ffffff"/>
  
  <svg version="1.1" id="svg32734" width="100%" height="100%">
    <path class="module-background background-fill" d="M 0,0 H 45 V 380 H 0 Z" style="fill:#dddddd" id="rect32732"/>
  </svg>
  <svg version="1.1" id="svg32742" width="100%" height="100%">
    <path class="module-border-inner" d="M 1,1 H 44 V 379 H 1 V 1" style="fill:none;stroke:#e4e4e4;stroke-width:0.5" id="polyline32736"/>
    <path class="module-border-middle" d="m 0.5,0.5 h 44 v 379 H 0.5 V 0.5" style="fill:none;stroke:#ebebeb;stroke-width:0.8" id="polyline32738"/>
    <path class="module-border-outer" d="M 0,0 H 45 V 380 H 0 V 0" style="fill:none;stroke:#f2f2f2;stroke-width:1" id="polyline32740"/>
  </svg>
  <g transform="rotate(-90,194.5,181.5)" id="g32752">
    <g class="title" style="font-weight:normal;font-size:9.33333px;font-family:Comfortaa, sans-serif;letter-spacing:2.5px;fill:#333333" id="text32744" aria-label="MULT">
      <path id="path32915" style="font-weight:normal;font-size:9.33333px;font-family:Comfortaa, sans-serif;letter-spacing:2.5px;fill:#333333" d="m 7.8679973,-7.2893309 q 0.1493333,0 0.2519999,0.1026667 0.1026667,0.1026666 0.1026667,0.2613332 v 6.56133112 q 0,0.14933329 -0.1026667,0.26133325 Q 8.0173306,0 7.8679973,0 7.7093307,0 7.5973307,-0.10266663 7.4946641,-0.21466659 7.4946641,-0.36399988 V -5.6466647 l -2.5946658,5.30133148 q -0.1119999,0.17733328 -0.3173332,0.17733328 -0.2333332,0 -0.3359999,-0.22399993 L 1.6613328,-5.5626648 v 5.19866492 q 0,0.14933329 -0.1026667,0.26133325 Q 1.4559995,0 1.2973329,0 1.1479996,0 1.0359996,-0.10266663 0.93333302,-0.21466659 0.93333302,-0.36399988 V -6.925331 q 0,-0.1586666 0.10266658,-0.2613332 0.112,-0.1026667 0.2613333,-0.1026667 0.2146666,0 0.3266665,0.1866667 l 2.9866657,5.9359979 2.9306657,-5.9359979 q 0.1119999,-0.1866667 0.3266665,-0.1866667 z"/>
      <path id="path32917" style="font-weight:normal;font-size:9.33333px;font-family:Comfortaa, sans-serif;letter-spacing:2.5px;fill:#333333" d="m 15.487037,0.14933328 q -0.84,0 -1.502666,-0.32666655 -0.662667,-0.32666656 -1.036,-0.90533303 -0.364,-0.5879998 -0.364,-1.3253329 V -6.925331 q 0,-0.1586666 0.102667,-0.2613332 0.102666,-0.1026667 0.261333,-0.1026667 0.158667,0 0.261333,0.1026667 0.102667,0.1026666 0.102667,0.2613332 v 4.5173318 q 0,0.5413332 0.270667,0.9706664 0.279999,0.4199998 0.774666,0.6626664 0.494666,0.23333325 1.129333,0.23333325 0.625333,0 1.110666,-0.23333325 0.485333,-0.2426666 0.756,-0.6626664 0.28,-0.4293332 0.28,-0.9706664 V -6.925331 q 0,-0.1586666 0.102666,-0.2613332 0.102667,-0.1026667 0.261334,-0.1026667 0.158666,0 0.261333,0.1026667 0.102667,0.1026666 0.102667,0.2613332 v 4.5173318 q 0,0.7373331 -0.373334,1.3253329 -0.364,0.57866647 -1.017333,0.90533303 -0.653333,0.32666655 -1.483999,0.32666655 z"/>
      <path id="path32919" style="font-weight:normal;font-size:9.33333px;font-family:Comfortaa, sans-serif;letter-spacing:2.5px;fill:#333333" d="M 23.08639,0 Q 22.937056,0 22.825056,-0.10266663 22.72239,-0.21466659 22.72239,-0.36399988 V -6.925331 q 0,-0.1493333 0.102666,-0.2519999 0.112,-0.112 0.261334,-0.112 0.158666,0 0.261333,0.1026667 0.102667,0.1026666 0.102667,0.2613332 v 6.23466457 h 3.649332 q 0.158666,0 0.261333,0.10266663 0.102667,0.0933333 0.102667,0.24266658 0,0.14933329 -0.102667,0.25199992 Q 27.258388,0 27.099722,0 Z"/>
      <path id="path32921" style="font-weight:normal;font-size:9.33333px;font-family:Comfortaa, sans-serif;letter-spacing:2.5px;fill:#333333" d="m 34.611281,-7.2893309 q 0.149333,0 0.242666,0.093333 0.09333,0.093333 0.09333,0.2426665 0,0.14 -0.09333,0.2333333 -0.09333,0.093333 -0.242666,0.093333 h -2.221333 v 6.26266452 q 0,0.14933329 -0.102666,0.26133325 Q 32.184615,0 32.025948,0 31.876615,0 31.764615,-0.10266663 31.661949,-0.21466659 31.661949,-0.36399988 V -6.6266644 h -2.212 q -0.149333,0 -0.242666,-0.093333 -0.09333,-0.093333 -0.09333,-0.2333333 0,-0.1493332 0.09333,-0.2426665 0.09333,-0.093333 0.242666,-0.093333 z"/>
    </g>
    <g transform="translate(0,12)" id="g32750">
      <g class="brand" style="font-weight:bold;font-size:9.33333px;font-family:Audiowide, sans-serif;letter-spacing:2px;fill:#333333" id="text32746" aria-label="BGA">
        <path id="path32924" style="font-weight:bold;font-size:9.33333px;font-family:Audiowide, sans-serif;letter-spacing:2px;fill:#333333" d="m 7.209633,-1.4355464 q 0,0.2187499 -0.077474,0.4694009 -0.072917,0.25065095 -0.2460936,0.46484359 Q 6.7174456,-0.28710928 6.4440082,-0.14127599 6.1705708,0 5.7740866,0 H 1.2760412 Q 1.1484371,0 1.0390621,-0.0455729 0.92968718,-0.0911458 0.84765596,-0.16861973 0.77018203,-0.25065096 0.72460913,-0.36002592 0.67903623,-0.46940088 0.67903623,-0.597005 v -5.341144 q 0,-0.1230469 0.0455729,-0.2324218 0.0455729,-0.109375 0.12304683,-0.1914062 0.0820312,-0.082031 0.19140614,-0.1276041 0.109375,-0.045573 0.2369791,-0.045573 h 3.9648424 q 0.21875,0 0.4694009,0.077474 0.250651,0.077474 0.4648436,0.250651 0.2187499,0.1686197 0.3600259,0.4420571 0.1458333,0.2734374 0.1458333,0.6699217 v 0.2233072 q 0,0.314453 -0.1048177,0.6790362 -0.1048176,0.3600259 -0.3372394,0.6835935 0.2005207,0.1230468 0.3736978,0.2962239 0.1777343,0.173177 0.3098957,0.4010415 0.1321614,0.2278645 0.2096353,0.5149738 0.077474,0.2871093 0.077474,0.6334633 z M 6.0247375,-1.6634109 q 0,-0.2324218 -0.072917,-0.4147134 Q 5.8789042,-2.2649732 5.7467428,-2.3971346 5.6145814,-2.529296 5.4277325,-2.5976554 5.2408836,-2.670572 5.0084618,-2.670572 h -2.670572 v -1.19401 h 2.1373691 q 0.2324218,0 0.4192707,-0.068359 0.1868489,-0.072917 0.3190103,-0.205078 0.1321614,-0.1321614 0.2005208,-0.314453 0.072917,-0.1868489 0.072917,-0.4192707 v -0.2233072 q 0,-0.2552083 -0.2460937,-0.2552083 H 1.8639317 v 4.1653632 h 3.9101549 q 0.031901,0 0.077474,-0.00456 0.045573,-0.00456 0.082031,-0.027344 0.036458,-0.022786 0.063802,-0.077474 0.027344,-0.054687 0.027344,-0.1503906 z"/>
        <path id="path32926" style="font-weight:bold;font-size:9.33333px;font-family:Audiowide, sans-serif;letter-spacing:2px;fill:#333333" d="m 16.683589,-0.597005 q 0,0.12760412 -0.04557,0.23697908 -0.04557,0.10937496 -0.127605,0.19140619 -0.07747,0.07747393 -0.186849,0.12304683 Q 16.214189,0 16.086584,0 h -4.274738 q -0.164062,0 -0.355468,-0.03645832 -0.186849,-0.04101561 -0.373698,-0.12304683 -0.182292,-0.0820312 -0.350911,-0.20963535 -0.16862,-0.13216141 -0.300782,-0.31445302 -0.127604,-0.18684889 -0.205078,-0.42838528 -0.07747,-0.2460937 -0.07747,-0.5514321 v -3.2083322 q 0,-0.1640625 0.03646,-0.3509114 0.04101,-0.1914062 0.123047,-0.3736978 0.08203,-0.1868489 0.214192,-0.3554686 0.132162,-0.1686197 0.314453,-0.2962238 0.186849,-0.1321615 0.428385,-0.2096354 0.241537,-0.077474 0.546875,-0.077474 h 4.817056 v 1.1848954 h -4.817056 q -0.232422,0 -0.355468,0.1230468 -0.123047,0.1230469 -0.123047,0.3645832 v 3.1992177 q 0,0.2278645 0.123047,0.3554686 0.127604,0.1230469 0.355468,0.1230469 h 3.686848 V -2.670572 h -3.153645 v -1.19401 h 3.741535 q 0.127605,0 0.236979,0.05013 0.109375,0.045573 0.186849,0.1276041 0.08203,0.082031 0.127605,0.1914062 0.04557,0.1048177 0.04557,0.2278645 z"/>
        <path id="path32928" style="font-weight:bold;font-size:9.33333px;font-family:Audiowide, sans-serif;letter-spacing:2px;fill:#333333" d="M 26.339836,0 H 25.154941 V -1.6041661 H 20.989578 V 0 h -1.184896 v -3.267577 q 0,-0.7154946 0.246094,-1.3170569 0.246094,-0.6015623 0.683593,-1.0345048 0.4375,-0.4329426 1.034505,-0.6744789 0.597005,-0.2415364 1.303385,-0.2415364 h 2.670572 q 0.123047,0 0.232422,0.045573 0.109375,0.045573 0.191406,0.1276041 0.08203,0.082031 0.127604,0.1914062 0.04557,0.1093749 0.04557,0.2324218 z m -5.350258,-2.7890616 h 4.165363 v -2.561197 h -2.082682 q -0.05469,0 -0.232422,0.018229 -0.173177,0.013672 -0.405598,0.077474 -0.227865,0.063802 -0.483073,0.1959635 -0.255208,0.1321614 -0.469401,0.3645832 -0.214193,0.2324218 -0.355469,0.5833331 -0.136718,0.3463541 -0.136718,0.8430987 z"/>
      </g>
      <path d="M 0,0 H 3 V 3 H 0 Z" style="fill:#dddddd" transform="translate(11.5,-5)" id="rect32748"/>
    </g>
  </g>
  <g transform="translate(0,18)" id="g32766">
    <g transform="translate(5.5)" id="g32764">
      <path d="M 0,0 H 34 V 10 H 0 Z" style="fill:#fafafa" transform="translate(0,29)" id="rect32756"/>
      <path d="m 5,0 h 24 c 2.77,0 5,2.23 5,5 v 25 c 0,2.77 -2.23,5 -5,5 H 5 C 2.23,35 0,32.77 0,30 V 5 C 0,2.23 2.23,0 5,0 Z" style="fill:#fafafa" id="rect32758"/>
      <g transform="translate(5,3)" id="g32760"/>
      <g style="font-weight:bold;font-size:6.66667px;font-family:Roboto, sans-serif;letter-spacing:2px;fill:#333333" id="text32762" transform="translate(7,35)" aria-label="IN-A">
        <path id="path32906" style="font-weight:bold;font-size:6.66667px;font-family:Roboto, sans-serif;letter-spacing:2px;fill:#333333" d="M 1.4615892,0 H 0.48502627 V -4.7395856 H 1.4615892 Z"/>
        <path id="path32908" style="font-weight:bold;font-size:6.66667px;font-family:Roboto, sans-serif;letter-spacing:2px;fill:#333333" d="M 8.2174508,0 H 7.2408878 L 5.3398452,-3.1184911 V 0 h -0.976563 v -4.7395856 h 0.976563 l 1.9042978,3.1250015 v -3.1250015 h 0.9733078 z"/>
        <path id="path32910" style="font-weight:bold;font-size:6.66667px;font-family:Roboto, sans-serif;letter-spacing:2px;fill:#333333" d="m 12.844406,-1.6503914 h -1.832684 v -0.7584639 h 1.832684 z"/>
        <path id="path32912" style="font-weight:bold;font-size:6.66667px;font-family:Roboto, sans-serif;letter-spacing:2px;fill:#333333" d="M 18.343756,-0.97656297 H 16.631515 L 16.305994,0 h -1.038412 l 1.764324,-4.7395856 h 0.904948 L 19.710944,0 H 18.672532 Z M 16.895187,-1.767579 h 1.184897 L 17.48438,-3.5416684 Z"/>
      </g>
    </g>
  </g>
  <g transform="translate(0,60)" id="g32784">
    <g transform="translate(5.5)" id="g32782">
      <path d="M 0,0 H 34 V 10 H 0 Z" style="fill:#bbbbbb" transform="translate(0,-3)" id="rect32768"/>
      <path d="m 5,0 h 24 c 2.77,0 5,2.23 5,5 v 92 c 0,2.77 -2.23,5 -5,5 H 5 C 2.23,102 0,99.77 0,97 V 5 C 0,2.23 2.23,0 5,0 Z" style="fill:#bbbbbb" id="rect32770"/>
      <g transform="translate(2,2)" id="g32780">
        <g transform="translate(3)" id="g32772"/>
        <g transform="translate(3,30)" id="g32774"/>
        <g transform="translate(3,60)" id="g32776"/>
        <g style="font-weight:bold;font-size:6.66667px;font-family:Roboto, sans-serif;letter-spacing:2px;fill:#333333" id="text32778" transform="translate(6.5,95)" aria-label="OUT">
          <path id="path32897" style="font-weight:bold;font-size:6.66667px;font-family:Roboto, sans-serif;letter-spacing:2px;fill:#333333" d="m 4.3164083,-2.2623709 q 0,0.6998702 -0.2473959,1.2272142 -0.247396,0.52734396 -0.7096358,0.81380243 -0.4589846,0.28645847 -1.054688,0.28645847 -0.589193,0 -1.0514328,-0.28320326 Q 0.791016,-0.50130232 0.53710963,-1.0253911 0.28320326,-1.5527351 0.27994805,-2.2363292 v -0.2343751 q 0,-0.6998701 0.25065116,-1.2304693 0.25390637,-0.5338545 0.71289099,-0.8170577 0.4622398,-0.2864585 1.054688,-0.2864585 0.5924482,0 1.0514328,0.2864585 0.4622398,0.2832032 0.7128909,0.8170577 0.2539064,0.5305992 0.2539064,1.2272141 z M 3.3268245,-2.4772147 q 0,-0.7454431 -0.2669272,-1.1328131 -0.2669272,-0.3873699 -0.7617191,-0.3873699 -0.4915367,0 -0.7584639,0.3841147 -0.2669272,0.3808596 -0.2701824,1.1197922 v 0.2311199 q 0,0.7259118 0.2669272,1.1263026 0.2669272,0.40039087 0.7682295,0.40039087 0.4915367,0 0.7552087,-0.38411477 0.263672,-0.38737 0.2669272,-1.1263026 z"/>
          <path id="path32899" style="font-weight:bold;font-size:6.66667px;font-family:Roboto, sans-serif;letter-spacing:2px;fill:#333333" d="m 10.619796,-4.7395856 v 3.1217463 q 0,0.77799515 -0.488282,1.23046932 -0.4850258,0.45247418 -1.3281252,0.45247418 -0.8300785,0 -1.31836,-0.43945334 Q 6.9967474,-0.81380247 6.9869817,-1.582032 v -3.1575536 h 0.976563 v 3.1282567 q 0,0.465495 0.2213543,0.68033887 0.2246095,0.21158865 0.6184898,0.21158865 0.8235681,0 0.836589,-0.86588582 v -3.1542984 z"/>
          <path id="path32901" style="font-weight:bold;font-size:6.66667px;font-family:Roboto, sans-serif;letter-spacing:2px;fill:#333333" d="M 16.988288,-3.9485696 H 15.536464 V 0 h -0.976563 v -3.9485696 h -1.432292 v -0.791016 h 3.860679 z"/>
        </g>
      </g>
    </g>
  </g>
  <g transform="translate(0,178)" id="g32798">
    <g transform="translate(5.5)" id="g32796">
      <path d="M 0,0 H 34 V 10 H 0 Z" style="fill:#fafafa" transform="translate(0,29)" id="rect32788"/>
      <path d="m 5,0 h 24 c 2.77,0 5,2.23 5,5 v 25 c 0,2.77 -2.23,5 -5,5 H 5 C 2.23,35 0,32.77 0,30 V 5 C 0,2.23 2.23,0 5,0 Z" style="fill:#fafafa" id="rect32790"/>
      <g transform="translate(5,3)" id="g32792"/>
      <g style="font-weight:bold;font-size:6.66667px;font-family:Roboto, sans-serif;letter-spacing:1px;fill:#333333" id="text32794" transform="translate(3,35)" aria-label="IN-B(A)">
        <path id="path32880" style="font-weight:bold;font-size:6.66667px;font-family:Roboto, sans-serif;letter-spacing:1px;fill:#333333" d="M 1.4615892,0 H 0.48502627 V -4.7395856 H 1.4615892 Z"/>
        <path id="path32882" style="font-weight:bold;font-size:6.66667px;font-family:Roboto, sans-serif;letter-spacing:1px;fill:#333333" d="M 7.2174508,0 H 6.2408878 L 4.3398452,-3.1184911 V 0 h -0.976563 v -4.7395856 h 0.976563 l 1.9042978,3.1250015 v -3.1250015 h 0.9733078 z"/>
        <path id="path32884" style="font-weight:bold;font-size:6.66667px;font-family:Roboto, sans-serif;letter-spacing:1px;fill:#333333" d="M 10.844406,-1.6503914 H 9.0117224 v -0.7584639 h 1.8326836 z"/>
        <path id="path32886" style="font-weight:bold;font-size:6.66667px;font-family:Roboto, sans-serif;letter-spacing:1px;fill:#333333" d="m 12.667973,0 v -4.7395856 h 1.660157 q 0.862631,0 1.308594,0.3320314 0.445964,0.3287762 0.445964,0.9667974 0,0.3483074 -0.179036,0.6152346 -0.179037,0.263672 -0.498047,0.38737 0.364583,0.091146 0.572917,0.3678387 0.211588,0.2766929 0.211588,0.6770837 0,0.68359404 -0.436198,1.03515671 Q 15.317714,-0.00651042 14.510422,0 Z m 0.976563,-2.0638031 v 1.27929752 h 0.836589 q 0.345052,0 0.53711,-0.1627605 0.195312,-0.16601572 0.195312,-0.45572942 0,-0.6510419 -0.673828,-0.6608076 z m 0,-0.6901045 h 0.722657 q 0.738932,-0.013021 0.738932,-0.589193 0,-0.3222657 -0.188802,-0.4622398 -0.185547,-0.1432292 -0.589193,-0.1432292 h -0.683594 z"/>
        <path id="path32888" style="font-weight:bold;font-size:6.66667px;font-family:Roboto, sans-serif;letter-spacing:1px;fill:#333333" d="m 17.906257,-1.9270843 q 0,-0.745443 0.198568,-1.4192715 0.198568,-0.6738284 0.585938,-1.1914068 0.38737,-0.5208336 0.839844,-0.7226566 l 0.182292,0.5078128 q -0.475261,0.3515626 -0.742188,1.0872401 -0.266927,0.7356774 -0.266927,1.7187508 v 0.1009115 q 0,0.98632859 0.263672,1.72526123 0.263672,0.73893265 0.745443,1.10351616 L 19.530607,1.4811205 Q 19.087898,1.2825527 18.703784,0.77799516 18.322924,0.27669284 18.121101,-0.38085956 17.919278,-1.038412 17.906257,-1.7545581 Z"/>
        <path id="path32890" style="font-weight:bold;font-size:6.66667px;font-family:Roboto, sans-serif;letter-spacing:1px;fill:#333333" d="m 23.945321,-0.97656297 h -1.71224 L 21.90756,0 h -1.038412 l 1.764323,-4.7395856 H 23.53842 L 25.312509,0 H 24.274097 Z M 22.496753,-1.767579 h 1.184896 l -0.595703,-1.7740894 z"/>
        <path id="path32892" style="font-weight:bold;font-size:6.66667px;font-family:Roboto, sans-serif;letter-spacing:1px;fill:#333333" d="m 28.320973,-1.8522144 q 0,0.7356774 -0.211588,1.41601628 Q 27.897796,0.24414074 27.50066,0.76497432 27.103525,1.2858079 26.651051,1.4811205 L 26.468759,0.98307339 q 0.46224,-0.34830746 0.729167,-1.07421927 0.266927,-0.7259118 0.276693,-1.66992262 v -0.1725262 q 0,-0.9733077 -0.266927,-1.7154956 -0.263672,-0.7421878 -0.738933,-1.1132818 l 0.182292,-0.4980471 q 0.442708,0.1920574 0.833333,0.6966149 0.393881,0.5045576 0.608725,1.1751308 0.218099,0.6705732 0.227864,1.3899746 z"/>
      </g>
    </g>
  </g>
  <g transform="translate(0,220)" id="g32816">
    <g transform="translate(5.5)" id="g32814">
      <path d="M 0,0 H 34 V 10 H 0 Z" style="fill:#bbbbbb" transform="translate(0,-3)" id="rect32800"/>
      <path d="m 5,0 h 24 c 2.77,0 5,2.23 5,5 v 92 c 0,2.77 -2.23,5 -5,5 H 5 C 2.23,102 0,99.77 0,97 V 5 C 0,2.23 2.23,0 5,0 Z" style="fill:#bbbbbb" id="rect32802"/>
      <g transform="translate(2,2)" id="g32812">
        <g transform="translate(3)" id="g32804"/>
        <g transform="translate(3,30)" id="g32806"/>
        <g transform="translate(3,60)" id="g32808"/>
        <g style="font-weight:bold;font-size:6.66667px;font-family:Roboto, sans-serif;letter-spacing:2px;fill:#333333" id="text32810" transform="translate(6.5,95)" aria-label="OUT">
          <path id="path32871" style="font-weight:bold;font-size:6.66667px;font-family:Roboto, sans-serif;letter-spacing:2px;fill:#333333" d="m 4.3164083,-2.2623709 q 0,0.6998702 -0.2473959,1.2272142 -0.247396,0.52734396 -0.7096358,0.81380243 -0.4589846,0.28645847 -1.054688,0.28645847 -0.589193,0 -1.0514328,-0.28320326 Q 0.791016,-0.50130232 0.53710963,-1.0253911 0.28320326,-1.5527351 0.27994805,-2.2363292 v -0.2343751 q 0,-0.6998701 0.25065116,-1.2304693 0.25390637,-0.5338545 0.71289099,-0.8170577 0.4622398,-0.2864585 1.054688,-0.2864585 0.5924482,0 1.0514328,0.2864585 0.4622398,0.2832032 0.7128909,0.8170577 0.2539064,0.5305992 0.2539064,1.2272141 z M 3.3268245,-2.4772147 q 0,-0.7454431 -0.2669272,-1.1328131 -0.2669272,-0.3873699 -0.7617191,-0.3873699 -0.4915367,0 -0.7584639,0.3841147 -0.2669272,0.3808596 -0.2701824,1.1197922 v 0.2311199 q 0,0.7259118 0.2669272,1.1263026 0.2669272,0.40039087 0.7682295,0.40039087 0.4915367,0 0.7552087,-0.38411477 0.263672,-0.38737 0.2669272,-1.1263026 z"/>
          <path id="path32873" style="font-weight:bold;font-size:6.66667px;font-family:Roboto, sans-serif;letter-spacing:2px;fill:#333333" d="m 10.619796,-4.7395856 v 3.1217463 q 0,0.77799515 -0.488282,1.23046932 -0.4850258,0.45247418 -1.3281252,0.45247418 -0.8300785,0 -1.31836,-0.43945334 Q 6.9967474,-0.81380247 6.9869817,-1.582032 v -3.1575536 h 0.976563 v 3.1282567 q 0,0.465495 0.2213543,0.68033887 0.2246095,0.21158865 0.6184898,0.21158865 0.8235681,0 0.836589,-0.86588582 v -3.1542984 z"/>
          <path id="path32875" style="font-weight:bold;font-size:6.66667px;font-family:Roboto, sans-serif;letter-spacing:2px;fill:#333333" d="M 16.988288,-3.9485696 H 15.536464 V 0 h -0.976563 v -3.9485696 h -1.432292 v -0.791016 h 3.860679 z"/>
        </g>
      </g>
    </g>
  </g>
</svg>
