<?xml version="1.0" encoding="UTF-8" standalone="no"?>
<svg xmlns:dc="http://purl.org/dc/elements/1.1/" xmlns:cc="http://creativecommons.org/ns#" xmlns:rdf="http://www.w3.org/1999/02/22-rdf-syntax-ns#" xmlns:svg="http://www.w3.org/2000/svg" xmlns="http://www.w3.org/2000/svg" xmlns:sodipodi="http://sodipodi.sourceforge.net/DTD/sodipodi-0.dtd" xmlns:inkscape="http://www.inkscape.org/namespaces/inkscape" inkscape:version="1.0 (4035a4f, 2020-05-01)" sodipodi:docname="svg_render_Mumix-pp.svg" id="svg33012" viewBox="0 0 90 380" height="380" width="90" version="1.1">
  <metadata id="metadata33018">
    <rdf:RDF>
      <cc:Work rdf:about="">
        <dc:format>image/svg+xml</dc:format>
        <dc:type rdf:resource="http://purl.org/dc/dcmitype/StillImage"/>
      </cc:Work>
    </rdf:RDF>
  </metadata>
  <defs id="defs33016"/>
  <sodipodi:namedview inkscape:current-layer="svg33012" inkscape:window-maximized="0" inkscape:window-y="23" inkscape:window-x="0" inkscape:cy="190" inkscape:cx="45" inkscape:zoom="1.7605263" showgrid="false" id="namedview33014" inkscape:window-height="480" inkscape:window-width="689" inkscape:pageshadow="2" inkscape:pageopacity="0" guidetolerance="10" gridtolerance="10" objecttolerance="10" borderopacity="1" bordercolor="#666666" pagecolor="#ffffff"/>
  
  <svg version="1.1" id="svg32940" width="100%" height="100%">
    <path class="module-background background-fill" d="M 0,0 H 90 V 380 H 0 Z" style="fill:#dddddd" id="rect32938"/>
  </svg>
  <svg version="1.1" id="svg32948" width="100%" height="100%">
    <path class="module-border-inner" d="M 1,1 H 89 V 379 H 1 V 1" style="fill:none;stroke:#e4e4e4;stroke-width:0.5" id="polyline32942"/>
    <path class="module-border-middle" d="m 0.5,0.5 h 89 v 379 H 0.5 V 0.5" style="fill:none;stroke:#ebebeb;stroke-width:0.8" id="polyline32944"/>
    <path class="module-border-outer" d="M 0,0 H 90 V 380 H 0 V 0" style="fill:none;stroke:#f2f2f2;stroke-width:1" id="polyline32946"/>
  </svg>
  <g class="title" style="font-weight:normal;font-size:12px;font-family:Comfortaa, sans-serif;letter-spacing:3px;text-anchor:end;fill:#333333" id="text32950" aria-label="MUMIX">
    <path id="path33083" style="font-weight:normal;font-size:12px;font-family:Comfortaa, sans-serif;letter-spacing:3px;text-anchor:end;fill:#333333" d="m 35.951937,7.628 q 0.192,0 0.324,0.132 0.132001,0.132 0.132001,0.336 v 8.436 q 0,0.192 -0.132001,0.336 -0.132,0.132 -0.324,0.132 -0.204,0 -0.348,-0.132 -0.131999,-0.144 -0.131999,-0.336 V 9.74 l -3.336001,6.816 q -0.144,0.228 -0.408,0.228 -0.3,0 -0.432,-0.288 l -3.324,-6.648 v 6.684 q 0,0.192 -0.131999,0.336 Q 27.707937,17 27.503937,17 q -0.192,0 -0.336,-0.132 -0.132,-0.144 -0.132,-0.336 V 8.096 q 0,-0.204 0.132,-0.336 0.144,-0.132 0.336,-0.132 0.276,0 0.42,0.24 l 3.84,7.632 3.768,-7.632 q 0.144001,-0.24 0.42,-0.24 z"/>
    <path id="path33085" style="font-weight:normal;font-size:12px;font-family:Comfortaa, sans-serif;letter-spacing:3px;text-anchor:end;fill:#333333" d="m 45.533563,17.192 q -1.08,0 -1.932001,-0.42 -0.852,-0.42 -1.332,-1.164 -0.467999,-0.756 -0.467999,-1.704 V 8.096 q 0,-0.204 0.131999,-0.336 0.132,-0.132 0.336,-0.132 0.204,0 0.336,0.132 0.132001,0.132 0.132001,0.336 v 5.808 q 0,0.696 0.348,1.248 0.359999,0.54 0.995999,0.852 0.636,0.3 1.452001,0.3 0.804,0 1.427999,-0.3 0.624001,-0.312 0.972,-0.852 0.36,-0.552 0.36,-1.248 V 8.096 q 0,-0.204 0.132,-0.336 0.132001,-0.132 0.336,-0.132 0.204001,0 0.336,0.132 0.132,0.132 0.132,0.336 v 5.808 q 0,0.948 -0.48,1.704 -0.468,0.744 -1.307999,1.164 -0.840001,0.42 -1.908,0.42 z"/>
    <path id="path33087" style="font-weight:normal;font-size:12px;font-family:Comfortaa, sans-serif;letter-spacing:3px;text-anchor:end;fill:#333333" d="m 63.537875,7.628 q 0.192,0 0.324,0.132 0.132,0.132 0.132,0.336 v 8.436 q 0,0.192 -0.132,0.336 -0.132,0.132 -0.324,0.132 -0.204,0 -0.348,-0.132 -0.132,-0.144 -0.132,-0.336 V 9.74 l -3.336,6.816 q -0.144,0.228 -0.408,0.228 -0.3,0 -0.432,-0.288 l -3.324,-6.648 v 6.684 q 0,0.192 -0.132,0.336 -0.132,0.132 -0.336,0.132 -0.192,0 -0.336,-0.132 -0.132,-0.144 -0.132,-0.336 V 8.096 q 0,-0.204 0.132,-0.336 0.144,-0.132 0.336,-0.132 0.276,0 0.42,0.24 l 3.84,7.632 3.768,-7.632 q 0.144,-0.24 0.42,-0.24 z"/>
    <path id="path33089" style="font-weight:normal;font-size:12px;font-family:Comfortaa, sans-serif;letter-spacing:3px;text-anchor:end;fill:#333333" d="m 69.8555,17 q -0.192,0 -0.336,-0.132 -0.132,-0.144 -0.132,-0.336 V 8.096 q 0,-0.204 0.132,-0.336 0.144,-0.132 0.336,-0.132 0.204,0 0.336,0.132 0.132,0.132 0.132,0.336 v 8.436 q 0,0.192 -0.132,0.336 Q 70.0595,17 69.8555,17 Z"/>
    <path id="path33091" style="font-weight:normal;font-size:12px;font-family:Comfortaa, sans-serif;letter-spacing:3px;text-anchor:end;fill:#333333" d="m 82.351625,16.244 q 0.108,0.144 0.108,0.3 0,0.192 -0.12,0.324 -0.12,0.132 -0.324,0.132 -0.24,0 -0.36,-0.168 l -2.868,-3.972 -2.928,3.996 q -0.12,0.144 -0.336,0.144 -0.204,0 -0.324,-0.12 -0.12,-0.132 -0.12,-0.312 0,-0.18 0.108,-0.324 l 2.964,-4.032 -2.772,-3.852 q -0.096,-0.156 -0.096,-0.288 0,-0.18 0.12,-0.312 0.12,-0.132 0.312,-0.132 0.24,0 0.36,0.168 l 2.724,3.768 2.76,-3.768 q 0.132,-0.168 0.36,-0.168 0.192,0 0.312,0.144 0.12,0.132 0.12,0.312 0,0.156 -0.084,0.276 l -2.832,3.84 z"/>
  </g>
  <g transform="translate(5.5,374)" id="g32956">
    <g class="brand" style="font-weight:bold;font-size:8.66667px;font-family:Audiowide, sans-serif;letter-spacing:2px;fill:#333333" id="text32952" aria-label="BOGAUDIO">
      <path id="path33065" style="font-weight:bold;font-size:8.66667px;font-family:Audiowide, sans-serif;letter-spacing:2px;fill:#333333" d="m 6.6946639,-1.3330083 q 0,0.2031251 -0.07194,0.43587255 -0.067708,0.23274749 -0.2285157,0.43164079 -0.1565756,0.1988933 -0.4104819,0.33431002 Q 5.7298198,0 5.3616556,0 H 1.1848963 Q 1.0664066,0 0.9648441,-0.04231772 0.86328157,-0.08463545 0.78710966,-0.15657558 0.71516953,-0.23274748 0.67285181,-0.33431002 0.63053409,-0.43587256 0.63053409,-0.55436218 V -5.5139994 q 0,-0.1142579 0.0423177,-0.2158204 0.0423177,-0.1015625 0.11425785,-0.1777345 0.0761719,-0.076172 0.17773444,-0.1184896 0.1015625,-0.042318 0.2200522,-0.042318 h 3.6816419 q 0.2031251,0 0.4358726,0.07194 0.2327475,0.07194 0.4316408,0.2327475 0.2031251,0.1565756 0.33431,0.4104819 0.1354167,0.2539064 0.1354167,0.6220706 v 0.2073568 q 0,0.2919923 -0.097331,0.6305341 -0.097331,0.33431 -0.3131512,0.6347659 0.186198,0.1142578 0.3470053,0.2750652 0.1650392,0.1608073 0.2877606,0.3723959 0.1227214,0.2115887 0.1946615,0.4781903 0.07194,0.2666017 0.07194,0.5882164 z M 5.5944031,-1.5445969 q 0,-0.2158204 -0.067708,-0.3850913 Q 5.4589864,-2.1031909 5.336265,-2.2259123 5.2135436,-2.3486337 5.0400409,-2.4121103 4.8665382,-2.4798186 4.6507179,-2.4798186 H 2.1708992 V -3.588543 h 1.9847013 q 0.2158204,0 0.389323,-0.063477 0.1735027,-0.067708 0.2962241,-0.1904297 0.1227214,-0.1227214 0.186198,-0.2919923 0.067708,-0.1735027 0.067708,-0.3893231 v -0.2073568 q 0,-0.2369793 -0.2285158,-0.2369793 H 1.7307949 v 3.86784 h 3.6308607 q 0.029622,0 0.07194,-0.00423 0.042318,-0.00423 0.076172,-0.025391 0.033854,-0.021159 0.059245,-0.07194 0.025391,-0.050781 0.025391,-0.1396484 z"/>
      <path id="path33067" style="font-weight:bold;font-size:8.66667px;font-family:Audiowide, sans-serif;letter-spacing:2px;fill:#333333" d="m 16.015629,-2.454428 q 0,0.5543622 -0.190429,1.0198572 -0.19043,0.46549492 -0.528972,0.80403671 -0.338542,0.3385418 -0.804037,0.52897155 -0.461263,0.18619799 -1.007161,0.18619799 h -1.489584 q -0.545899,0 -1.011394,-0.18619799 Q 10.518557,-0.29199229 10.180015,-0.63053409 9.8414736,-0.96907588 9.646812,-1.4345708 9.4563823,-1.9000658 9.4563823,-2.454428 v -1.1595056 q 0,-0.5501304 0.1904297,-1.0156254 0.1946616,-0.4697267 0.533203,-0.8040367 0.338542,-0.3385418 0.804037,-0.5289716 0.465495,-0.1904297 1.011394,-0.1904297 h 1.489584 q 0.545898,0 1.007161,0.1904297 0.465495,0.1904298 0.804037,0.5289716 0.338542,0.33431 0.528972,0.8040367 0.190429,0.465495 0.190429,1.0156254 z m -1.10026,-1.1595056 q 0,-0.3258465 -0.105795,-0.5882164 -0.101562,-0.2666016 -0.291992,-0.4527996 -0.186198,-0.1904298 -0.4528,-0.2919923 -0.262369,-0.1057943 -0.579752,-0.1057943 h -1.489584 q -0.321615,0 -0.588217,0.1057943 -0.26237,0.1015625 -0.452799,0.2919923 -0.19043,0.186198 -0.296224,0.4527996 -0.101563,0.2623699 -0.101563,0.5882164 v 1.1595056 q 0,0.3258465 0.101563,0.5924482 0.105794,0.2623698 0.296224,0.4527996 0.190429,0.186198 0.452799,0.2919923 0.266602,0.1015625 0.588217,0.1015625 h 1.48112 q 0.321615,0 0.583985,-0.1015625 0.266601,-0.1057943 0.457031,-0.2919923 0.19043,-0.1904298 0.291992,-0.4527996 0.105795,-0.2666017 0.105795,-0.5924482 z"/>
      <path id="path33069" style="font-weight:bold;font-size:8.66667px;font-family:Audiowide, sans-serif;letter-spacing:2px;fill:#333333" d="m 25.099618,-0.55436218 q 0,0.11848962 -0.04232,0.22005216 -0.04232,0.10156254 -0.11849,0.17773444 -0.07194,0.07194013 -0.173502,0.11425786 Q 24.663745,0 24.545255,0 h -3.969402 q -0.152344,0 -0.330078,-0.03385418 -0.173503,-0.03808595 -0.347006,-0.11425785 -0.169271,-0.0761719 -0.325846,-0.19466153 -0.156576,-0.1227214 -0.279297,-0.2919923 -0.11849,-0.17350267 -0.19043,-0.39778664 -0.07194,-0.2285157 -0.07194,-0.5120444 v -2.9791678 q 0,-0.1523438 0.03385,-0.3258465 0.03809,-0.1777344 0.114258,-0.3470053 0.07617,-0.1735027 0.198893,-0.3300782 0.122722,-0.1565756 0.291993,-0.2750652 0.173502,-0.1227214 0.397786,-0.1946616 0.224284,-0.07194 0.507813,-0.07194 h 4.472983 v 1.1002608 h -4.472983 q -0.215821,0 -0.330078,0.1142579 -0.114258,0.1142578 -0.114258,0.3385418 v 2.9707042 q 0,0.2115886 0.114258,0.3300782 0.118489,0.1142579 0.330078,0.1142579 h 3.423504 V -2.4798186 H 21.07097 V -3.588543 h 3.474285 q 0.11849,0 0.220053,0.04655 0.101562,0.042318 0.173502,0.1184896 0.07617,0.076172 0.11849,0.1777345 0.04232,0.097331 0.04232,0.2115886 z"/>
      <path id="path33071" style="font-weight:bold;font-size:8.66667px;font-family:Audiowide, sans-serif;letter-spacing:2px;fill:#333333" d="m 34.208996,0 h -1.100261 v -1.4895839 h -3.86784 V 0 h -1.100261 v -3.0341808 q 0,-0.6643883 0.228516,-1.2229822 0.228516,-0.558594 0.634766,-0.9606124 0.40625,-0.4020183 0.960612,-0.6263023 0.554362,-0.2242839 1.210287,-0.2242839 h 2.479819 q 0.114257,0 0.21582,0.042318 0.101562,0.042318 0.177734,0.1184896 0.07617,0.076172 0.11849,0.1777345 0.04232,0.1015625 0.04232,0.2158204 z m -4.968101,-2.5898447 h 3.86784 v -2.3782561 h -1.93392 q -0.05078,0 -0.21582,0.016927 -0.160808,0.012695 -0.376628,0.07194 -0.211589,0.059245 -0.448568,0.1819663 -0.236979,0.1227214 -0.435873,0.3385417 -0.198893,0.2158204 -0.330078,0.5416669 -0.126953,0.3216147 -0.126953,0.7828779 z"/>
      <path id="path33073" style="font-weight:bold;font-size:8.66667px;font-family:Audiowide, sans-serif;letter-spacing:2px;fill:#333333" d="m 43.428399,-0.55436218 q 0,0.11848962 -0.04232,0.22005216 -0.04232,0.10156254 -0.11849,0.17773444 -0.07617,0.07194013 -0.177735,0.11425786 Q 42.988295,0 42.874037,0 H 40.394218 Q 40.042981,0 39.683281,-0.0761719 39.32358,-0.15234381 38.985038,-0.30891938 38.650728,-0.46972673 38.354504,-0.71516953 38.05828,-0.96061233 37.833996,-1.2949223 37.613944,-1.6334641 37.486991,-2.0651049 37.360038,-2.5009775 37.360038,-3.0341808 v -3.0341808 h 1.10026 v 3.0341808 q 0,0.465495 0.126954,0.7871097 0.131185,0.3216147 0.330078,0.5374351 0.198893,0.2158203 0.435872,0.3385417 0.23698,0.1227214 0.448568,0.1819663 0.215821,0.059245 0.376628,0.076172 0.165039,0.012695 0.21582,0.012695 h 1.93392 v -4.9681008 h 1.100261 z"/>
      <path id="path33075" style="font-weight:bold;font-size:8.66667px;font-family:Audiowide, sans-serif;letter-spacing:2px;fill:#333333" d="m 52.766292,-2.5390634 q 0,0.5543622 -0.194661,1.0198571 -0.19043,0.465495 -0.528972,0.80403677 -0.338541,0.33431002 -0.804036,0.52473977 Q 50.773128,0 50.227229,0 h -2.970704 q -0.11849,0 -0.220052,-0.04231772 -0.101563,-0.04231773 -0.177735,-0.11425786 -0.07194,-0.0761719 -0.114258,-0.17773444 -0.04232,-0.10156254 -0.04232,-0.22005216 V -5.5139994 q 0,-0.1142579 0.04232,-0.2158204 0.04232,-0.1015625 0.114258,-0.1777345 0.07617,-0.076172 0.177735,-0.1184896 0.101562,-0.042318 0.220052,-0.042318 h 2.970704 q 0.545899,0 1.011394,0.1904298 0.465495,0.1904297 0.804036,0.5289715 0.338542,0.33431 0.528972,0.8040368 0.194661,0.4654949 0.194661,1.0156253 z m -1.10026,-0.9902348 q 0,-0.3216147 -0.105795,-0.5882163 -0.101562,-0.2666017 -0.291992,-0.4527997 -0.19043,-0.1904297 -0.457031,-0.2919923 -0.26237,-0.1057943 -0.583985,-0.1057943 h -2.424806 v 3.86784 h 2.424806 q 0.321615,0 0.583985,-0.1015626 0.266601,-0.1057943 0.457031,-0.2919923 0.19043,-0.1904297 0.291992,-0.4527996 0.105795,-0.2666017 0.105795,-0.5924481 z"/>
      <path id="path33077" style="font-weight:bold;font-size:8.66667px;font-family:Audiowide, sans-serif;letter-spacing:2px;fill:#333333" d="M 56.962581,0 H 55.86232 v -6.0683616 h 1.100261 z"/>
      <path id="path33079" style="font-weight:bold;font-size:8.66667px;font-family:Audiowide, sans-serif;letter-spacing:2px;fill:#333333" d="m 66.626322,-2.454428 q 0,0.5543622 -0.190429,1.0198572 -0.19043,0.46549492 -0.528972,0.80403671 -0.338542,0.3385418 -0.804037,0.52897155 -0.461263,0.18619799 -1.007161,0.18619799 h -1.489584 q -0.545899,0 -1.011394,-0.18619799 -0.465495,-0.19042975 -0.804037,-0.52897155 -0.338541,-0.33854179 -0.533203,-0.80403671 -0.19043,-0.465495 -0.19043,-1.0198572 v -1.1595056 q 0,-0.5501304 0.19043,-1.0156254 0.194662,-0.4697267 0.533203,-0.8040367 0.338542,-0.3385418 0.804037,-0.5289716 0.465495,-0.1904297 1.011394,-0.1904297 h 1.489584 q 0.545898,0 1.007161,0.1904297 0.465495,0.1904298 0.804037,0.5289716 0.338542,0.33431 0.528972,0.8040367 0.190429,0.465495 0.190429,1.0156254 z m -1.10026,-1.1595056 q 0,-0.3258465 -0.105795,-0.5882164 -0.101562,-0.2666016 -0.291992,-0.4527996 -0.186198,-0.1904298 -0.4528,-0.2919923 -0.26237,-0.1057943 -0.579752,-0.1057943 h -1.489584 q -0.321615,0 -0.588217,0.1057943 -0.26237,0.1015625 -0.452799,0.2919923 -0.19043,0.186198 -0.296224,0.4527996 -0.101563,0.2623699 -0.101563,0.5882164 v 1.1595056 q 0,0.3258465 0.101563,0.5924482 0.105794,0.2623698 0.296224,0.4527996 0.190429,0.186198 0.452799,0.2919923 0.266602,0.1015625 0.588217,0.1015625 h 1.48112 q 0.321615,0 0.583985,-0.1015625 0.266601,-0.1057943 0.457031,-0.2919923 0.19043,-0.1904298 0.291992,-0.4527996 0.105795,-0.2666017 0.105795,-0.5924482 z"/>
    </g>
    <path d="M 0,0 H 1.5 V 2 H 0 Z" style="fill:#dddddd" transform="translate(21,-4)" id="rect32954"/>
  </g>
  <g transform="translate(7.5,25)" id="g32980">
    <path d="M 0,0 H 34 V 10 H 0 Z" style="fill:#fafafa" transform="translate(0,283)" id="rect32960"/>
    <path d="m 5,0 h 24 c 2.77,0 5,2.23 5,5 v 283 c 0,2.77 -2.23,5 -5,5 H 5 c -2.77,0 -5,-2.23 -5,-5 V 5 C 0,2.23 2.23,0 5,0 Z" style="fill:#fafafa" id="rect32962"/>
    <g transform="translate(5,5)" id="g32964"/>
    <g transform="translate(5,42)" id="g32966"/>
    <g transform="translate(5,79)" id="g32968"/>
    <g transform="translate(5,116)" id="g32970"/>
    <g transform="translate(5,153)" id="g32972"/>
    <g transform="translate(5,190)" id="g32974"/>
    <g transform="translate(5,227)" id="g32976"/>
    <g transform="translate(5,264)" id="g32978"/>
  </g>
  <g transform="translate(7.5,320)" id="g32990">
    <path d="M 0,0 H 34 V 10 H 0 Z" style="fill:#bbbbbb" transform="translate(0,-3)" id="rect32982"/>
    <path d="m 5,0 h 24 c 2.77,0 5,2.23 5,5 v 28 c 0,2.77 -2.23,5 -5,5 H 5 C 2.23,38 0,35.77 0,33 V 5 C 0,2.23 2.23,0 5,0 Z" style="fill:#bbbbbb" id="rect32984"/>
    <g transform="translate(5,1)" id="g32986"/>
    <g style="font-weight:bold;font-size:6.66667px;font-family:Roboto, sans-serif;letter-spacing:2px;fill:#333333" id="text32988" transform="translate(8.5,33)" aria-label="OUT">
      <path id="path33056" style="font-weight:bold;font-size:6.66667px;font-family:Roboto, sans-serif;letter-spacing:2px;fill:#333333" d="m 4.3164083,-2.2623709 q 0,0.6998702 -0.2473959,1.2272142 -0.247396,0.52734396 -0.7096358,0.81380243 -0.4589846,0.28645847 -1.054688,0.28645847 -0.589193,0 -1.0514328,-0.28320326 Q 0.791016,-0.50130232 0.53710963,-1.0253911 0.28320326,-1.5527351 0.27994805,-2.2363292 v -0.2343751 q 0,-0.6998701 0.25065116,-1.2304693 0.25390637,-0.5338545 0.71289099,-0.8170577 0.4622398,-0.2864585 1.054688,-0.2864585 0.5924482,0 1.0514328,0.2864585 0.4622398,0.2832032 0.7128909,0.8170577 0.2539064,0.5305992 0.2539064,1.2272141 z M 3.3268245,-2.4772147 q 0,-0.7454431 -0.2669272,-1.1328131 -0.2669272,-0.3873699 -0.7617191,-0.3873699 -0.4915367,0 -0.7584639,0.3841147 -0.2669272,0.3808596 -0.2701824,1.1197922 v 0.2311199 q 0,0.7259118 0.2669272,1.1263026 0.2669272,0.40039087 0.7682295,0.40039087 0.4915367,0 0.7552087,-0.38411477 0.263672,-0.38737 0.2669272,-1.1263026 z"/>
      <path id="path33058" style="font-weight:bold;font-size:6.66667px;font-family:Roboto, sans-serif;letter-spacing:2px;fill:#333333" d="m 10.619796,-4.7395856 v 3.1217463 q 0,0.77799515 -0.488282,1.23046932 -0.4850258,0.45247418 -1.3281252,0.45247418 -0.8300785,0 -1.31836,-0.43945334 Q 6.9967474,-0.81380247 6.9869817,-1.582032 v -3.1575536 h 0.976563 v 3.1282567 q 0,0.465495 0.2213543,0.68033887 0.2246095,0.21158865 0.6184898,0.21158865 0.8235681,0 0.836589,-0.86588582 v -3.1542984 z"/>
      <path id="path33060" style="font-weight:bold;font-size:6.66667px;font-family:Roboto, sans-serif;letter-spacing:2px;fill:#333333" d="M 16.988288,-3.9485696 H 15.536464 V 0 h -0.976563 v -3.9485696 h -1.432292 v -0.791016 h 3.860679 z"/>
    </g>
  </g>
  <g transform="translate(56.5,33)" id="g32994"/>
  <g transform="translate(56.5,70)" id="g32996"/>
  <g transform="translate(56.5,107)" id="g32998"/>
  <g transform="translate(56.5,144)" id="g33000"/>
  <g transform="translate(56.5,181)" id="g33002"/>
  <g transform="translate(56.5,218)" id="g33004"/>
  <g transform="translate(56.5,255)" id="g33006"/>
  <g transform="translate(56.5,292)" id="g33008"/>
</svg>
