<?xml version="1.0" encoding="UTF-8" standalone="no"?>
<svg xmlns:dc="http://purl.org/dc/elements/1.1/" xmlns:cc="http://creativecommons.org/ns#" xmlns:rdf="http://www.w3.org/1999/02/22-rdf-syntax-ns#" xmlns:svg="http://www.w3.org/2000/svg" xmlns="http://www.w3.org/2000/svg" xmlns:sodipodi="http://sodipodi.sourceforge.net/DTD/sodipodi-0.dtd" xmlns:inkscape="http://www.inkscape.org/namespaces/inkscape" inkscape:version="1.0 (4035a4f, 2020-05-01)" sodipodi:docname="svg_render_Mute8-pp.svg" id="svg33248" viewBox="0 0 150 380" height="380" width="150" version="1.1">
  <metadata id="metadata33254">
    <rdf:RDF>
      <cc:Work rdf:about="">
        <dc:format>image/svg+xml</dc:format>
        <dc:type rdf:resource="http://purl.org/dc/dcmitype/StillImage"/>
      </cc:Work>
    </rdf:RDF>
  </metadata>
  <defs id="defs33252"/>
  <sodipodi:namedview inkscape:current-layer="svg33248" inkscape:window-maximized="0" inkscape:window-y="23" inkscape:window-x="0" inkscape:cy="190" inkscape:cx="75" inkscape:zoom="1.7605263" showgrid="false" id="namedview33250" inkscape:window-height="480" inkscape:window-width="689" inkscape:pageshadow="2" inkscape:pageopacity="0" guidetolerance="10" gridtolerance="10" objecttolerance="10" borderopacity="1" bordercolor="#666666" pagecolor="#ffffff"/>
  
  <svg version="1.1" id="svg33102" width="100%" height="100%">
    <path class="module-background background-fill" d="M 0,0 H 150 V 380 H 0 Z" style="fill:#dddddd" id="rect33100"/>
  </svg>
  <svg version="1.1" id="svg33110" width="100%" height="100%">
    <path class="module-border-inner" d="M 1,1 H 149 V 379 H 1 V 1" style="fill:none;stroke:#e4e4e4;stroke-width:0.5" id="polyline33104"/>
    <path class="module-border-middle" d="m 0.5,0.5 h 149 v 379 H 0.5 V 0.5" style="fill:none;stroke:#ebebeb;stroke-width:0.8" id="polyline33106"/>
    <path class="module-border-outer" d="M 0,0 H 150 V 380 H 0 V 0" style="fill:none;stroke:#f2f2f2;stroke-width:1" id="polyline33108"/>
  </svg>
  <g class="title" style="font-weight:normal;font-size:16px;font-family:Comfortaa, sans-serif;letter-spacing:4px;text-anchor:middle;fill:#333333" id="text33112" aria-label="MUTE8">
    <path id="path33372" style="font-weight:normal;font-size:16px;font-family:Comfortaa, sans-serif;letter-spacing:4px;text-anchor:middle;fill:#333333" d="m 50.58175,6.504 q 0.256,0 0.432,0.176 0.176,0.176 0.176,0.448 v 11.248 q 0,0.256 -0.176,0.448 -0.176,0.176 -0.432,0.176 -0.272,0 -0.464,-0.176 -0.176,-0.192 -0.176,-0.448 V 9.32 l -4.448,9.088 q -0.192,0.304 -0.544,0.304 -0.4,0 -0.576,-0.384 l -4.432,-8.864 v 8.912 q 0,0.256 -0.176,0.448 -0.176,0.176 -0.448,0.176 -0.256,0 -0.448,-0.176 -0.176,-0.192 -0.176,-0.448 V 7.128 q 0,-0.272 0.176,-0.448 0.192,-0.176 0.448,-0.176 0.368,0 0.56,0.32 l 5.12,10.176 5.024,-10.176 q 0.192,-0.32 0.56,-0.32 z"/>
    <path id="path33374" style="font-weight:normal;font-size:16px;font-family:Comfortaa, sans-serif;letter-spacing:4px;text-anchor:middle;fill:#333333" d="m 63.35725,19.256 q -1.44,0 -2.576,-0.56 -1.136,-0.56 -1.776,-1.552 -0.624,-1.008 -0.624,-2.272 V 7.128 q 0,-0.272 0.176,-0.448 0.176,-0.176 0.448,-0.176 0.272,0 0.448,0.176 0.176,0.176 0.176,0.448 v 7.744 q 0,0.928 0.464,1.664 0.48,0.72 1.328,1.136 0.848,0.4 1.936,0.4 1.072,0 1.904,-0.4 0.832,-0.416 1.296,-1.136 0.48,-0.736 0.48,-1.664 V 7.128 q 0,-0.272 0.176,-0.448 0.176,-0.176 0.448,-0.176 0.272,0 0.448,0.176 0.176,0.176 0.176,0.448 v 7.744 q 0,1.264 -0.64,2.272 -0.624,0.992 -1.744,1.552 -1.12,0.56 -2.544,0.56 z"/>
    <path id="path33376" style="font-weight:normal;font-size:16px;font-family:Comfortaa, sans-serif;letter-spacing:4px;text-anchor:middle;fill:#333333" d="m 83.539,6.504 q 0.256,0 0.416,0.16 0.16,0.16 0.16,0.416 0,0.24 -0.16,0.4 -0.16,0.16 -0.416,0.16 h -3.808 v 10.736 q 0,0.256 -0.176,0.448 Q 79.379,19 79.107,19 78.851,19 78.659,18.824 78.483,18.632 78.483,18.376 V 7.64 h -3.792 q -0.256,0 -0.416,-0.16 -0.16,-0.16 -0.16,-0.4 0,-0.256 0.16,-0.416 0.16,-0.16 0.416,-0.16 z"/>
    <path id="path33378" style="font-weight:normal;font-size:16px;font-family:Comfortaa, sans-serif;letter-spacing:4px;text-anchor:middle;fill:#333333" d="m 90.56775,19 q -0.256,0 -0.448,-0.176 -0.176,-0.192 -0.176,-0.448 V 7.128 q 0,-0.272 0.176,-0.448 0.192,-0.176 0.448,-0.176 h 7.504 q 0.272,0 0.448,0.176 0.176,0.176 0.176,0.432 0,0.256 -0.176,0.432 -0.176,0.16 -0.448,0.16 h -6.88 v 4.416 h 5.008 q 0.272,0 0.448,0.176 0.176,0.176 0.176,0.432 0,0.256 -0.192,0.432 -0.176,0.176 -0.432,0.176 h -5.008 V 17.8 h 6.88 q 0.272,0 0.448,0.176 0.176,0.16 0.176,0.416 0,0.256 -0.176,0.432 -0.176,0.176 -0.448,0.176 z"/>
    <path id="path33380" style="font-weight:normal;font-size:16px;font-family:Comfortaa, sans-serif;letter-spacing:4px;text-anchor:middle;fill:#333333" d="m 109.98225,11.992 q 0.88,0.464 1.392,1.312 0.512,0.832 0.512,1.888 0,1.088 -0.496,1.968 -0.48,0.88 -1.344,1.392 -0.848,0.512 -1.888,0.512 -1.056,0 -1.92,-0.496 -0.848,-0.512 -1.344,-1.376 -0.48,-0.88 -0.48,-1.952 0,-1.072 0.512,-1.92 0.528,-0.864 1.408,-1.328 -0.592,-0.416 -0.928,-1.056 -0.336,-0.656 -0.336,-1.44 0,-0.848 0.4,-1.536 0.416,-0.704 1.12,-1.088 0.72,-0.4 1.6,-0.4 0.864,0 1.552,0.4 0.704,0.384 1.088,1.072 0.4,0.672 0.4,1.52 0,0.784 -0.336,1.456 -0.336,0.656 -0.912,1.072 z m -3.728,-2.48 q 0,0.832 0.544,1.408 0.544,0.56 1.36,0.56 0.816,0 1.344,-0.576 0.544,-0.592 0.544,-1.456 0,-0.784 -0.544,-1.312 -0.544,-0.528 -1.344,-0.528 -0.816,0 -1.36,0.544 -0.544,0.544 -0.544,1.36 z m 4.384,5.696 q 0,-0.72 -0.336,-1.296 -0.32,-0.576 -0.896,-0.912 -0.56,-0.336 -1.248,-0.336 -0.704,0 -1.28,0.352 -0.576,0.336 -0.896,0.928 -0.32,0.592 -0.32,1.328 0,0.736 0.32,1.36 0.336,0.608 0.896,0.96 0.576,0.352 1.28,0.352 0.704,0 1.264,-0.352 0.576,-0.368 0.896,-0.992 0.32,-0.64 0.32,-1.392 z"/>
  </g>
  <g transform="translate(0,374)" id="g33118">
    <g class="brand" style="font-weight:bold;font-size:10.6667px;font-family:Audiowide, sans-serif;letter-spacing:2px;text-anchor:middle;fill:#333333" id="text33114" transform="translate(75)" aria-label="BOGAUDIO">
      <path id="path33354" style="font-weight:bold;font-size:10.6667px;font-family:Audiowide, sans-serif;letter-spacing:2px;text-anchor:middle;fill:#333333" d="m -31.42716,-1.6406302 q 0,0.2500008 -0.08854,0.53646 -0.08333,0.28645928 -0.281251,0.53125172 -0.192709,0.24479244 -0.50521,0.41145964 Q -32.614664,0 -33.067791,0 h -5.140641 q -0.145834,0 -0.270834,-0.0520835 -0.125001,-0.0520835 -0.218751,-0.14062544 -0.08854,-0.0937503 -0.140625,-0.21875069 -0.05208,-0.1250004 -0.05208,-0.27083419 V -6.7864798 q 0,-0.1406254 0.05208,-0.2656258 0.05208,-0.1250004 0.140625,-0.2187507 0.09375,-0.09375 0.218751,-0.1458338 0.125,-0.052083 0.270834,-0.052083 h 4.531264 q 0.250001,0 0.53646,0.088542 0.28646,0.088542 0.531252,0.2864592 0.250001,0.1927089 0.41146,0.5052099 0.166667,0.312501 0.166667,0.7656274 v 0.2552092 q 0,0.3593761 -0.119792,0.7760441 -0.119792,0.4114596 -0.385418,0.7812525 0.229167,0.1406254 0.427085,0.3385427 0.203125,0.1979173 0.354167,0.4583348 0.151043,0.2604175 0.239585,0.5885435 0.08854,0.328126 0.08854,0.7239606 z m -1.354171,-0.2604175 q 0,-0.2656258 -0.08333,-0.4739598 -0.08333,-0.2135423 -0.234376,-0.3645845 -0.151042,-0.1510421 -0.364584,-0.2291674 -0.213543,-0.083334 -0.479168,-0.083334 h -3.052093 v -1.3645876 h 2.442716 q 0.265625,0 0.479168,-0.078125 0.213542,-0.083334 0.364584,-0.2343757 0.151042,-0.1510422 0.229168,-0.3593761 0.08333,-0.2135424 0.08333,-0.4791682 v -0.2552092 q 0,-0.2916675 -0.281251,-0.2916675 h -3.859387 v 4.7604317 h 4.468764 q 0.03646,0 0.08854,-0.00521 0.05208,-0.00521 0.09375,-0.03125 0.04167,-0.026042 0.07292,-0.088542 0.03125,-0.0625 0.03125,-0.1718756 z"/>
      <path id="path33356" style="font-weight:bold;font-size:10.6667px;font-family:Audiowide, sans-serif;letter-spacing:2px;text-anchor:middle;fill:#333333" d="m -20.416715,-3.0208429 q 0,0.6822938 -0.234376,1.2552123 -0.234375,0.5729185 -0.651043,0.98958648 -0.416668,0.41666798 -0.989587,0.65104373 -0.56771,0.22916739 -1.239587,0.22916739 h -1.833339 q -0.671877,0 -1.244796,-0.22916739 -0.572918,-0.23437575 -0.989586,-0.65104373 -0.416668,-0.41666798 -0.656252,-0.98958648 -0.234376,-0.5729185 -0.234376,-1.2552123 v -1.4270878 q 0,-0.6770855 0.234376,-1.250004 0.239584,-0.5781268 0.656252,-0.9895864 0.416668,-0.416668 0.989586,-0.6510437 0.572919,-0.2343758 1.244796,-0.2343758 h 1.833339 q 0.671877,0 1.239587,0.2343758 0.572919,0.2343757 0.989587,0.6510437 0.416668,0.4114596 0.651043,0.9895864 0.234376,0.5729185 0.234376,1.250004 z m -1.354171,-1.4270878 q 0,-0.401043 -0.130209,-0.7239606 -0.125,-0.3281261 -0.359376,-0.5572935 -0.229167,-0.2343757 -0.557293,-0.3593761 -0.322918,-0.1302087 -0.713544,-0.1302087 h -1.833339 q -0.395835,0 -0.723961,0.1302087 -0.322918,0.1250004 -0.557293,0.3593761 -0.234376,0.2291674 -0.364585,0.5572935 -0.125,0.3229176 -0.125,0.7239606 v 1.4270878 q 0,0.401043 0.125,0.729169 0.130209,0.3229177 0.364585,0.5572934 0.234375,0.2291674 0.557293,0.3593762 0.328126,0.1250004 0.723961,0.1250004 h 1.822922 q 0.395835,0 0.718752,-0.1250004 0.328126,-0.1302088 0.562502,-0.3593762 0.234376,-0.2343757 0.359376,-0.5572934 0.130209,-0.328126 0.130209,-0.729169 z"/>
      <path id="path33358" style="font-weight:bold;font-size:10.6667px;font-family:Audiowide, sans-serif;letter-spacing:2px;text-anchor:middle;fill:#333333" d="m -9.6979369,-0.68229382 q 0,0.14583379 -0.052084,0.27083419 -0.052084,0.12500039 -0.1458338,0.21875069 -0.088542,0.0885419 -0.2135428,0.14062544 Q -10.234397,0 -10.380231,0 h -4.885432 q -0.1875,0 -0.406251,-0.0416668 -0.213542,-0.04687515 -0.427085,-0.14062544 -0.208334,-0.0937503 -0.401043,-0.23958409 -0.192709,-0.15104215 -0.343751,-0.35937614 -0.145834,-0.21354234 -0.234376,-0.48958483 -0.08854,-0.2812509 -0.08854,-0.6302104 v -3.6666782 q 0,-0.1875006 0.04167,-0.401043 0.04687,-0.2187506 0.140626,-0.4270846 0.09375,-0.2135424 0.244792,-0.4062513 0.151042,-0.192709 0.359376,-0.3385428 0.213543,-0.1510421 0.489585,-0.239584 0.276043,-0.088542 0.625002,-0.088542 h 5.5052259 v 1.354171 h -5.5052259 q -0.265626,0 -0.406251,0.1406254 -0.140626,0.1406254 -0.140626,0.416668 v 3.6562615 q 0,0.2604175 0.140626,0.4062513 0.145834,0.1406255 0.406251,0.1406255 h 4.213555 V -3.052093 h -3.604178 v -1.3645876 h 4.276055 q 0.145834,0 0.270834,0.057292 0.1250009,0.052083 0.2135428,0.1458338 0.09375,0.09375 0.1458338,0.2187507 0.052084,0.1197921 0.052084,0.2604175 z"/>
      <path id="path33360" style="font-weight:bold;font-size:10.6667px;font-family:Audiowide, sans-serif;letter-spacing:2px;text-anchor:middle;fill:#333333" d="M 1.052091,0 H -0.30207998 V -1.8333391 H -5.0625117 V 0 h -1.3541709 v -3.7343868 q 0,-0.8177109 0.2812509,-1.5052131 0.2812508,-0.6875022 0.7812524,-1.1822954 0.5000016,-0.4947932 1.1822954,-0.7708358 0.6822939,-0.2760425 1.4895881,-0.2760425 h 3.05209295 q 0.14062544,0 0.26562583,0.052083 0.1250004,0.052084 0.2187507,0.1458338 0.0937503,0.09375 0.14583382,0.2187507 0.052084,0.1250004 0.052084,0.2656258 z m -6.1146027,-3.1875101 h 4.76043172 V -6.1146026 H -2.6822958 q -0.0625,0 -0.2656259,0.020833 -0.1979173,0.015625 -0.4635431,0.088542 -0.2604175,0.072917 -0.5520851,0.223959 -0.2916676,0.1510422 -0.53646,0.416668 -0.2447924,0.2656259 -0.4062513,0.6666688 -0.1562505,0.3958346 -0.1562505,0.9635447 z"/>
      <path id="path33362" style="font-weight:bold;font-size:10.6667px;font-family:Audiowide, sans-serif;letter-spacing:2px;text-anchor:middle;fill:#333333" d="m 11.937537,-0.68229382 q 0,0.14583379 -0.05208,0.27083419 -0.05208,0.12500039 -0.145833,0.21875069 -0.09375,0.0885419 -0.218751,0.14062544 Q 11.395868,0 11.255243,0 H 8.20315 Q 7.770857,0 7.3281473,-0.0937503 6.8854376,-0.18750059 6.4687696,-0.38020953 6.0573099,-0.57812683 5.6927255,-0.88021111 5.328141,-1.1822954 5.0520984,-1.593755 4.7812642,-2.010423 4.6250137,-2.5416747 4.4687633,-3.0781347 4.4687633,-3.7343868 v -3.7343868 h 1.3541709 v 3.7343868 q 0,0.5729185 0.1562505,0.9687531 0.1614588,0.3958345 0.4062513,0.6614604 0.2447924,0.2656258 0.53646,0.416668 0.2916676,0.1510421 0.5520851,0.223959 0.2656258,0.072917 0.4635431,0.09375 0.2031257,0.015625 0.2656258,0.015625 h 2.380216 v -6.1146027 h 1.354171 z"/>
      <path id="path33364" style="font-weight:bold;font-size:10.6667px;font-family:Audiowide, sans-serif;letter-spacing:2px;text-anchor:middle;fill:#333333" d="m 22.968813,-3.1250099 q 0,0.6822939 -0.239584,1.2552123 -0.234376,0.5729185 -0.651044,0.98958649 -0.416668,0.41145963 -0.989587,0.64583537 Q 20.51568,0 19.843803,0 h -3.656262 q -0.145834,0 -0.270834,-0.0520835 -0.125,-0.0520835 -0.218751,-0.14062544 -0.08854,-0.0937503 -0.140625,-0.21875069 -0.05208,-0.1250004 -0.05208,-0.27083419 V -6.7864798 q 0,-0.1406254 0.05208,-0.2656258 0.05208,-0.1250004 0.140625,-0.2187507 0.09375,-0.09375 0.218751,-0.1458338 0.125,-0.052083 0.270834,-0.052083 h 3.656262 q 0.671877,0 1.244795,0.2343757 0.572919,0.2343758 0.989587,0.6510438 0.416668,0.4114596 0.651044,0.9895864 0.239584,0.5729185 0.239584,1.250004 z m -1.354171,-1.2187538 q 0,-0.3958346 -0.130209,-0.7239606 -0.125,-0.3281261 -0.359376,-0.5572935 -0.234376,-0.2343757 -0.562502,-0.3593761 -0.322918,-0.1302087 -0.718752,-0.1302087 h -2.984385 v 4.7604317 h 2.984385 q 0.395834,0 0.718752,-0.1250004 0.328126,-0.1302088 0.562502,-0.3593762 0.234376,-0.2343757 0.359376,-0.5572934 0.130209,-0.328126 0.130209,-0.729169 z"/>
      <path id="path33366" style="font-weight:bold;font-size:10.6667px;font-family:Audiowide, sans-serif;letter-spacing:2px;text-anchor:middle;fill:#333333" d="m 27.671946,0 h -1.35417 v -7.4687736 h 1.35417 z"/>
      <path id="path33368" style="font-weight:bold;font-size:10.6667px;font-family:Audiowide, sans-serif;letter-spacing:2px;text-anchor:middle;fill:#333333" d="m 39.104269,-3.0208429 q 0,0.6822938 -0.234376,1.2552123 -0.234376,0.5729185 -0.651044,0.98958648 -0.416668,0.41666798 -0.989586,0.65104373 Q 36.661553,0.104167 35.989676,0.104167 h -1.83334 q -0.671877,0 -1.244795,-0.22916739 -0.572919,-0.23437575 -0.989587,-0.65104373 -0.416668,-0.41666798 -0.656252,-0.98958648 -0.234375,-0.5729185 -0.234375,-1.2552123 v -1.4270878 q 0,-0.6770855 0.234375,-1.250004 0.239584,-0.5781268 0.656252,-0.9895864 0.416668,-0.416668 0.989587,-0.6510437 0.572918,-0.2343758 1.244795,-0.2343758 h 1.83334 q 0.671877,0 1.239587,0.2343758 0.572918,0.2343757 0.989586,0.6510437 0.416668,0.4114596 0.651044,0.9895864 0.234376,0.5729185 0.234376,1.250004 z m -1.354171,-1.4270878 q 0,-0.401043 -0.130209,-0.7239606 -0.125,-0.3281261 -0.359376,-0.5572935 -0.229167,-0.2343757 -0.557294,-0.3593761 -0.322917,-0.1302087 -0.713543,-0.1302087 h -1.83334 q -0.395834,0 -0.72396,0.1302087 -0.322918,0.1250004 -0.557294,0.3593761 -0.234375,0.2291674 -0.364584,0.5572935 -0.125,0.3229176 -0.125,0.7239606 v 1.4270878 q 0,0.401043 0.125,0.729169 0.130209,0.3229177 0.364584,0.5572934 0.234376,0.2291674 0.557294,0.3593762 0.328126,0.1250004 0.72396,0.1250004 h 1.822923 q 0.395834,0 0.718752,-0.1250004 0.328126,-0.1302088 0.562502,-0.3593762 0.234376,-0.2343757 0.359376,-0.5572934 0.130209,-0.328126 0.130209,-0.729169 z"/>
    </g>
    <path class="background-fill" d="M 0,0 H 3 V 3 H 0 Z" style="fill:#dddddd" transform="translate(59.5,-5)" id="rect33116"/>
  </g>
  <path d="m 13,32 h 20 c 2.77,0 5,2.23 5,5 v 318 c 0,2.77 -2.23,5 -5,5 H 13 c -2.77,0 -5,-2.23 -5,-5 V 37 c 0,-2.77 2.23,-5 5,-5 z" style="fill:#fafafa" id="rect33122"/>
  <g transform="translate(11,36)" id="g33140">
    <g id="g33124"/>
    <g transform="translate(0,40)" id="g33126"/>
    <g transform="translate(0,80)" id="g33128"/>
    <g transform="translate(0,120)" id="g33130"/>
    <g transform="translate(0,160)" id="g33132"/>
    <g transform="translate(0,200)" id="g33134"/>
    <g transform="translate(0,240)" id="g33136"/>
    <g transform="translate(0,280)" id="g33138"/>
  </g>
  <g style="font-weight:bold;font-size:8px;font-family:Roboto, sans-serif;letter-spacing:2px;fill:#333333" id="text33142" aria-label="IN">
    <path id="path33348" style="font-weight:bold;font-size:8px;font-family:Roboto, sans-serif;letter-spacing:2px;fill:#333333" d="M 19.553905,352 H 18.38203 v -5.6875 h 1.171875 z"/>
    <path id="path33350" style="font-weight:bold;font-size:8px;font-family:Roboto, sans-serif;letter-spacing:2px;fill:#333333" d="m 27.260937,352 h -1.171875 l -2.28125,-3.74219 V 352 h -1.171875 v -5.6875 h 1.171875 l 2.285156,3.75 v -3.75 h 1.167969 z"/>
  </g>
  <path d="m 48,32 h 20 c 2.77,0 5,2.23 5,5 v 318 c 0,2.77 -2.23,5 -5,5 H 48 c -2.77,0 -5,-2.23 -5,-5 V 37 c 0,-2.77 2.23,-5 5,-5 z" style="fill:#fafafa" id="rect33146"/>
  <g transform="translate(46,36)" id="g33164">
    <g id="g33148"/>
    <g transform="translate(0,40)" id="g33150"/>
    <g transform="translate(0,80)" id="g33152"/>
    <g transform="translate(0,120)" id="g33154"/>
    <g transform="translate(0,160)" id="g33156"/>
    <g transform="translate(0,200)" id="g33158"/>
    <g transform="translate(0,240)" id="g33160"/>
    <g transform="translate(0,280)" id="g33162"/>
  </g>
  <g style="font-weight:bold;font-size:8px;font-family:Roboto, sans-serif;letter-spacing:2px;fill:#333333" id="text33166" aria-label="CV">
    <path id="path33342" style="font-weight:bold;font-size:8px;font-family:Roboto, sans-serif;letter-spacing:2px;fill:#333333" d="m 55.972656,350.10547 q -0.06641,0.91797 -0.679687,1.44531 -0.609375,0.52734 -1.609375,0.52734 -1.09375,0 -1.722657,-0.73437 -0.625,-0.73828 -0.625,-2.02344 v -0.34765 q 0,-0.82032 0.289063,-1.44532 0.289062,-0.625 0.824219,-0.95703 0.539062,-0.33594 1.25,-0.33594 0.984375,0 1.585937,0.52735 0.601563,0.52734 0.695313,1.48047 h -1.171875 q -0.04297,-0.55078 -0.308594,-0.79688 -0.261719,-0.25 -0.800781,-0.25 -0.585938,0 -0.878907,0.42188 -0.289062,0.41797 -0.296875,1.30078 v 0.42969 q 0,0.92187 0.277344,1.34765 0.28125,0.42578 0.882813,0.42578 0.542968,0 0.808593,-0.24609 0.269532,-0.25 0.308594,-0.76953 z"/>
    <path id="path33344" style="font-weight:bold;font-size:8px;font-family:Roboto, sans-serif;letter-spacing:2px;fill:#333333" d="m 60.84375,350.58984 1.289062,-4.27734 H 63.4375 L 61.457031,352 h -1.222656 l -1.972656,-5.6875 H 59.5625 Z"/>
  </g>
  <g transform="translate(77.5,36)" id="g33218">
    <g transform="translate(0,2)" id="g33174">
      <g transform="translate(1,3)" id="g33170"/>
      <g transform="translate(23,8.8)" id="g33172"/>
    </g>
    <g transform="translate(0,42)" id="g33180">
      <g transform="translate(1,3)" id="g33176"/>
      <g transform="translate(23,8.8)" id="g33178"/>
    </g>
    <g transform="translate(0,82)" id="g33186">
      <g transform="translate(1,3)" id="g33182"/>
      <g transform="translate(23,8.8)" id="g33184"/>
    </g>
    <g transform="translate(0,122)" id="g33192">
      <g transform="translate(1,3)" id="g33188"/>
      <g transform="translate(23,8.8)" id="g33190"/>
    </g>
    <g transform="translate(0,162)" id="g33198">
      <g transform="translate(1,3)" id="g33194"/>
      <g transform="translate(23,8.8)" id="g33196"/>
    </g>
    <g transform="translate(0,202)" id="g33204">
      <g transform="translate(1,3)" id="g33200"/>
      <g transform="translate(23,8.8)" id="g33202"/>
    </g>
    <g transform="translate(0,242)" id="g33210">
      <g transform="translate(1,3)" id="g33206"/>
      <g transform="translate(23,8.8)" id="g33208"/>
    </g>
    <g transform="translate(0,280)" id="g33216">
      <g transform="translate(1,3)" id="g33212"/>
      <g transform="translate(23,8.8)" id="g33214"/>
    </g>
  </g>
  <g style="font-weight:bold;font-size:8px;font-family:Roboto, sans-serif;letter-spacing:2px;fill:#333333" id="text33220" aria-label="MUTE">
    <path id="path33333" style="font-weight:bold;font-size:8px;font-family:Roboto, sans-serif;letter-spacing:2px;fill:#333333" d="M 80.539062,346.3125 82,350.4375 l 1.453125,-4.125 h 1.539062 V 352 h -1.175781 v -1.55469 L 83.933594,347.76172 82.398437,352 H 81.59375 l -1.53125,-4.23438 0.117187,2.67969 V 352 h -1.171875 v -5.6875 z"/>
    <path id="path33335" style="font-weight:bold;font-size:8px;font-family:Roboto, sans-serif;letter-spacing:2px;fill:#333333" d="m 92.328125,346.3125 v 3.74609 q 0,0.9336 -0.585938,1.47657 -0.582031,0.54296 -1.59375,0.54296 -0.996093,0 -1.582031,-0.52734 -0.585937,-0.52734 -0.597656,-1.44922 v -3.78906 h 1.171875 v 3.75391 q 0,0.55859 0.265625,0.8164 0.269531,0.25391 0.742187,0.25391 0.988282,0 1.003907,-1.03906 v -3.78516 z"/>
    <path id="path33337" style="font-weight:bold;font-size:8px;font-family:Roboto, sans-serif;letter-spacing:2px;fill:#333333" d="M 99.570312,347.26172 H 97.828125 V 352 H 96.65625 v -4.73828 H 94.9375 v -0.94922 h 4.632812 z"/>
    <path id="path33339" style="font-weight:bold;font-size:8px;font-family:Roboto, sans-serif;letter-spacing:2px;fill:#333333" d="m 105.66406,349.53516 h -2.25 v 1.52343 h 2.64063 V 352 h -3.8125 v -5.6875 h 3.80469 v 0.94922 h -2.63282 v 1.35547 h 2.25 z"/>
  </g>
  <path d="m 117,32 h 20 c 2.77,0 5,2.23 5,5 v 318 c 0,2.77 -2.23,5 -5,5 h -20 c -2.77,0 -5,-2.23 -5,-5 V 37 c 0,-2.77 2.23,-5 5,-5 z" style="fill:#bbbbbb" id="rect33224"/>
  <g transform="translate(115,36)" id="g33242">
    <g id="g33226"/>
    <g transform="translate(0,40)" id="g33228"/>
    <g transform="translate(0,80)" id="g33230"/>
    <g transform="translate(0,120)" id="g33232"/>
    <g transform="translate(0,160)" id="g33234"/>
    <g transform="translate(0,200)" id="g33236"/>
    <g transform="translate(0,240)" id="g33238"/>
    <g transform="translate(0,280)" id="g33240"/>
  </g>
  <g style="font-weight:bold;font-size:8px;font-family:Roboto, sans-serif;letter-spacing:2px;fill:#333333" id="text33244" aria-label="OUT">
    <path id="path33325" style="font-weight:bold;font-size:8px;font-family:Roboto, sans-serif;letter-spacing:2px;fill:#333333" d="m 122.17969,349.28516 q 0,0.83984 -0.29688,1.47265 -0.29687,0.63281 -0.85156,0.97656 -0.55078,0.34375 -1.26562,0.34375 -0.70704,0 -1.26172,-0.33984 -0.55469,-0.33984 -0.85938,-0.96875 -0.30469,-0.63281 -0.30859,-1.45312 v -0.28125 q 0,-0.83985 0.30078,-1.47657 0.30469,-0.64062 0.85547,-0.98047 0.55469,-0.34375 1.26562,-0.34375 0.71094,0 1.26172,0.34375 0.55469,0.33985 0.85547,0.98047 0.30469,0.63672 0.30469,1.47266 z m -1.1875,-0.25782 q 0,-0.89453 -0.32031,-1.35937 -0.32032,-0.46485 -0.91407,-0.46485 -0.58984,0 -0.91015,0.46094 -0.32032,0.45703 -0.32422,1.34375 v 0.27735 q 0,0.87109 0.32031,1.35156 0.32031,0.48047 0.92188,0.48047 0.58984,0 0.90625,-0.46094 0.3164,-0.46484 0.32031,-1.35156 z"/>
    <path id="path33327" style="font-weight:bold;font-size:8px;font-family:Roboto, sans-serif;letter-spacing:2px;fill:#333333" d="m 129.34375,346.3125 v 3.74609 q 0,0.9336 -0.58594,1.47657 -0.58203,0.54296 -1.59375,0.54296 -0.99609,0 -1.58203,-0.52734 -0.58594,-0.52734 -0.59765,-1.44922 v -3.78906 h 1.17187 v 3.75391 q 0,0.55859 0.26563,0.8164 0.26953,0.25391 0.74218,0.25391 0.98828,0 1.00391,-1.03906 v -3.78516 z"/>
    <path id="path33329" style="font-weight:bold;font-size:8px;font-family:Roboto, sans-serif;letter-spacing:2px;fill:#333333" d="m 136.58594,347.26172 h -1.74219 V 352 h -1.17188 v -4.73828 h -1.71875 v -0.94922 h 4.63282 z"/>
  </g>
</svg>
