<?xml version="1.0" encoding="UTF-8" standalone="no"?>
<svg xmlns:dc="http://purl.org/dc/elements/1.1/" xmlns:cc="http://creativecommons.org/ns#" xmlns:rdf="http://www.w3.org/1999/02/22-rdf-syntax-ns#" xmlns:svg="http://www.w3.org/2000/svg" xmlns="http://www.w3.org/2000/svg" xmlns:sodipodi="http://sodipodi.sourceforge.net/DTD/sodipodi-0.dtd" xmlns:inkscape="http://www.inkscape.org/namespaces/inkscape" inkscape:version="1.0 (4035a4f, 2020-05-01)" sodipodi:docname="svg_render_Mute8-pp.svg" id="svg63040" viewBox="0 0 150 380" height="380" width="150" version="1.1">
  <metadata id="metadata63046">
    <rdf:RDF>
      <cc:Work rdf:about="">
        <dc:format>image/svg+xml</dc:format>
        <dc:type rdf:resource="http://purl.org/dc/dcmitype/StillImage"/>
      </cc:Work>
    </rdf:RDF>
  </metadata>
  <defs id="defs63044"/>
  <sodipodi:namedview inkscape:current-layer="svg63040" inkscape:window-maximized="0" inkscape:window-y="23" inkscape:window-x="0" inkscape:cy="190" inkscape:cx="75" inkscape:zoom="1.7605263" showgrid="false" id="namedview63042" inkscape:window-height="480" inkscape:window-width="689" inkscape:pageshadow="2" inkscape:pageopacity="0" guidetolerance="10" gridtolerance="10" objecttolerance="10" borderopacity="1" bordercolor="#666666" pagecolor="#ffffff"/>
  
  <path class="module-background background-fill" d="M 0,0 H 150 V 380 H 0 Z" style="fill:#dddddd" id="rect62898"/>
  <path class="module-border-inner" d="M 1,1 H 149 V 379 H 1 V 1" style="fill:none;stroke:#e4e4e4;stroke-width:0.5" id="polyline62900"/>
  <path class="module-border-middle" d="m 0.5,0.5 h 149 v 379 H 0.5 V 0.5" style="fill:none;stroke:#ebebeb;stroke-width:0.8" id="polyline62902"/>
  <path class="module-border-outer" d="M 0,0 H 150 V 380 H 0 V 0" style="fill:none;stroke:#f2f2f2;stroke-width:1" id="polyline62904"/>
  <g class="title" style="font-weight:normal;font-size:16px;font-family:Comfortaa, sans-serif;letter-spacing:4px;text-anchor:middle;fill:#333333" id="text62906" transform="translate(75.0 19)" aria-label="MUTE8">
    <path id="path63156" style="font-weight:normal;font-size:16px;font-family:Comfortaa, sans-serif;letter-spacing:4px;text-anchor:middle;fill:#333333" d="m -24.41825,-12.496 q 0.256,0 0.432,0.176 0.176,0.176 0.176,0.448 v 11.248 q 0,0.256 -0.176,0.448 -0.176,0.176 -0.432,0.176 -0.272,0 -0.464,-0.176 -0.176,-0.192 -0.176,-0.448 V -9.68 l -4.448,9.088 q -0.192,0.304 -0.544,0.304 -0.4,0 -0.576,-0.384 l -4.432,-8.864 v 8.912 q 0,0.256 -0.176,0.448 -0.176,0.176 -0.448,0.176 -0.256,0 -0.448,-0.176 -0.176,-0.192 -0.176,-0.448 v -11.248 q 0,-0.272 0.176,-0.448 0.192,-0.176 0.448,-0.176 0.368,0 0.56,0.32 l 5.12,10.176 5.024,-10.176 q 0.192,-0.32 0.56,-0.32 z"/>
    <path id="path63158" style="font-weight:normal;font-size:16px;font-family:Comfortaa, sans-serif;letter-spacing:4px;text-anchor:middle;fill:#333333" d="m -11.64275,0.256 q -1.44,0 -2.576,-0.56 -1.136,-0.56 -1.776,-1.552 -0.624,-1.008 -0.624,-2.272 v -7.744 q 0,-0.272 0.176,-0.448 0.176,-0.176 0.448,-0.176 0.272,0 0.448,0.176 0.176,0.176 0.176,0.448 v 7.744 q 0,0.928 0.464,1.664 0.48,0.72 1.328,1.136 0.848,0.4 1.936,0.4 1.072,0 1.904,-0.4 0.832,-0.416 1.296,-1.136 0.48,-0.736 0.48,-1.664 v -7.744 q 0,-0.272 0.176,-0.448 0.176,-0.176 0.448,-0.176 0.272,0 0.448,0.176 0.176,0.176 0.176,0.448 v 7.744 q 0,1.264 -0.64,2.272 -0.624,0.992 -1.744,1.552 -1.12,0.56 -2.544,0.56 z"/>
    <path id="path63160" style="font-weight:normal;font-size:16px;font-family:Comfortaa, sans-serif;letter-spacing:4px;text-anchor:middle;fill:#333333" d="m 8.539,-12.496 q 0.256,0 0.416,0.16 0.16,0.16 0.16,0.416 0,0.24 -0.16,0.4 -0.16,0.16 -0.416,0.16 H 4.731 v 10.736 q 0,0.256 -0.176,0.448 Q 4.379,0 4.107,0 3.851,0 3.659,-0.176 3.483,-0.368 3.483,-0.624 V -11.36 h -3.792 q -0.256,0 -0.416,-0.16 -0.16,-0.16 -0.16,-0.4 0,-0.256 0.16,-0.416 0.16,-0.16 0.416,-0.16 z"/>
    <path id="path63162" style="font-weight:normal;font-size:16px;font-family:Comfortaa, sans-serif;letter-spacing:4px;text-anchor:middle;fill:#333333" d="m 15.56775,0 q -0.256,0 -0.448,-0.176 -0.176,-0.192 -0.176,-0.448 v -11.248 q 0,-0.272 0.176,-0.448 0.192,-0.176 0.448,-0.176 h 7.504 q 0.272,0 0.448,0.176 0.176,0.176 0.176,0.432 0,0.256 -0.176,0.432 -0.176,0.16 -0.448,0.16 h -6.88 v 4.416 h 5.008 q 0.272,0 0.448,0.176 0.176,0.176 0.176,0.432 0,0.256 -0.192,0.432 -0.176,0.176 -0.432,0.176 h -5.008 V -1.2 h 6.88 q 0.272,0 0.448,0.176 0.176,0.16 0.176,0.416 0,0.256 -0.176,0.432 Q 23.34375,0 23.07175,0 Z"/>
    <path id="path63164" style="font-weight:normal;font-size:16px;font-family:Comfortaa, sans-serif;letter-spacing:4px;text-anchor:middle;fill:#333333" d="m 34.98225,-7.008 q 0.88,0.464 1.392,1.312 0.512,0.832 0.512,1.888 0,1.088 -0.496,1.968 -0.48,0.88 -1.344,1.392 -0.848,0.512 -1.888,0.512 -1.056,0 -1.92,-0.496 -0.848,-0.512 -1.344,-1.376 -0.48,-0.88 -0.48,-1.952 0,-1.072 0.512,-1.92 0.528,-0.864 1.408,-1.328 -0.592,-0.416 -0.928,-1.056 -0.336,-0.656 -0.336,-1.44 0,-0.848 0.4,-1.536 0.416,-0.704 1.12,-1.088 0.72,-0.4 1.6,-0.4 0.864,0 1.552,0.4 0.704,0.384 1.088,1.072 0.4,0.672 0.4,1.52 0,0.784 -0.336,1.456 -0.336,0.656 -0.912,1.072 z m -3.728,-2.48 q 0,0.832 0.544,1.408 0.544,0.56 1.36,0.56 0.816,0 1.344,-0.576 0.544,-0.592 0.544,-1.456 0,-0.784 -0.544,-1.312 -0.544,-0.528 -1.344,-0.528 -0.816,0 -1.36,0.544 -0.544,0.544 -0.544,1.36 z m 4.384,5.696 q 0,-0.72 -0.336,-1.296 -0.32,-0.576 -0.896,-0.912 -0.56,-0.336 -1.248,-0.336 -0.704,0 -1.28,0.352 -0.576,0.336 -0.896,0.928 -0.32,0.592 -0.32,1.328 0,0.736 0.32,1.36 0.336,0.608 0.896,0.96 0.576,0.352 1.28,0.352 0.704,0 1.264,-0.352 0.576,-0.368 0.896,-0.992 0.32,-0.64 0.32,-1.392 z"/>
  </g>
  <g class="brand" style="font-weight:bold;font-size:10.6667px;font-family:Audiowide, sans-serif;letter-spacing:2px;text-anchor:middle;fill:#333333" id="text62908" aria-label="BOGAUDIO">
    <path id="path63139" style="font-weight:bold;font-size:10.6667px;font-family:Audiowide, sans-serif;letter-spacing:2px;text-anchor:middle;fill:#333333" d="m 43.57284,372.35937 q 0,0.25 -0.08854,0.53646 -0.08333,0.28646 -0.281251,0.53125 -0.192709,0.24479 -0.50521,0.41146 Q 42.385336,374 41.932209,374 h -5.140641 q -0.145834,0 -0.270834,-0.0521 -0.125001,-0.0521 -0.218751,-0.14063 -0.08854,-0.0937 -0.140625,-0.21875 -0.05208,-0.125 -0.05208,-0.27083 v -6.10419 q 0,-0.14063 0.05208,-0.26563 0.05208,-0.125 0.140625,-0.21875 0.09375,-0.0937 0.218751,-0.14583 0.125,-0.0521 0.270834,-0.0521 h 4.531264 q 0.250001,0 0.53646,0.0885 0.28646,0.0885 0.531252,0.28646 0.250001,0.19271 0.41146,0.50521 0.166667,0.3125 0.166667,0.76562 v 0.25521 q 0,0.35938 -0.119792,0.77605 -0.119792,0.41146 -0.385418,0.78125 0.229167,0.14063 0.427085,0.33854 0.203125,0.19792 0.354167,0.45834 0.151043,0.26042 0.239585,0.58854 0.08854,0.32813 0.08854,0.72396 z m -1.354171,-0.26042 q 0,-0.26562 -0.08333,-0.47396 -0.08333,-0.21354 -0.234376,-0.36458 -0.151042,-0.15104 -0.364584,-0.22917 -0.213543,-0.0833 -0.479168,-0.0833 h -3.052093 v -1.36459 h 2.442716 q 0.265625,0 0.479168,-0.0781 0.213542,-0.0833 0.364584,-0.23437 0.151042,-0.15104 0.229168,-0.35938 0.08333,-0.21354 0.08333,-0.47917 v -0.25521 q 0,-0.29166 -0.281251,-0.29166 h -3.859387 v 4.76043 h 4.468764 q 0.03646,0 0.08854,-0.005 0.05208,-0.005 0.09375,-0.0312 0.04167,-0.026 0.07292,-0.0885 0.03125,-0.0625 0.03125,-0.17188 z"/>
    <path id="path63141" style="font-weight:bold;font-size:10.6667px;font-family:Audiowide, sans-serif;letter-spacing:2px;text-anchor:middle;fill:#333333" d="m 54.583285,370.97916 q 0,0.68229 -0.234376,1.25521 -0.234375,0.57292 -0.651043,0.98959 -0.416668,0.41666 -0.989587,0.65104 -0.56771,0.22917 -1.239587,0.22917 h -1.833339 q -0.671877,0 -1.244796,-0.22917 -0.572918,-0.23438 -0.989586,-0.65104 -0.416668,-0.41667 -0.656252,-0.98959 -0.234376,-0.57292 -0.234376,-1.25521 v -1.42709 q 0,-0.67709 0.234376,-1.25 0.239584,-0.57813 0.656252,-0.98959 0.416668,-0.41667 0.989586,-0.65104 0.572919,-0.23438 1.244796,-0.23438 h 1.833339 q 0.671877,0 1.239587,0.23438 0.572919,0.23437 0.989587,0.65104 0.416668,0.41146 0.651043,0.98959 0.234376,0.57291 0.234376,1.25 z m -1.354171,-1.42709 q 0,-0.40104 -0.130209,-0.72396 -0.125,-0.32813 -0.359376,-0.55729 -0.229167,-0.23438 -0.557293,-0.35938 -0.322918,-0.13021 -0.713544,-0.13021 h -1.833339 q -0.395835,0 -0.723961,0.13021 -0.322918,0.125 -0.557293,0.35938 -0.234376,0.22916 -0.364585,0.55729 -0.125,0.32292 -0.125,0.72396 v 1.42709 q 0,0.40104 0.125,0.72917 0.130209,0.32291 0.364585,0.55729 0.234375,0.22917 0.557293,0.35938 0.328126,0.125 0.723961,0.125 h 1.822922 q 0.395835,0 0.718752,-0.125 0.328126,-0.13021 0.562502,-0.35938 0.234376,-0.23438 0.359376,-0.55729 0.130209,-0.32813 0.130209,-0.72917 z"/>
    <path id="path63143" style="font-weight:bold;font-size:10.6667px;font-family:Audiowide, sans-serif;letter-spacing:2px;text-anchor:middle;fill:#333333" d="m 65.302063,373.31771 q 0,0.14583 -0.05208,0.27083 -0.05208,0.125 -0.145834,0.21875 -0.08854,0.0885 -0.213543,0.14063 Q 64.765603,374 64.619769,374 h -4.885432 q -0.1875,0 -0.406251,-0.0417 -0.213542,-0.0469 -0.427085,-0.14062 -0.208334,-0.0937 -0.401043,-0.23959 -0.192709,-0.15104 -0.343751,-0.35937 -0.145834,-0.21354 -0.234376,-0.48959 -0.08854,-0.28125 -0.08854,-0.63021 v -3.66668 q 0,-0.1875 0.04167,-0.40104 0.04687,-0.21875 0.140626,-0.42708 0.09375,-0.21355 0.244792,-0.40625 0.151042,-0.19271 0.359376,-0.33855 0.213543,-0.15104 0.489585,-0.23958 0.276043,-0.0885 0.625002,-0.0885 h 5.505226 v 1.35417 h -5.505226 q -0.265626,0 -0.406251,0.14062 -0.140626,0.14063 -0.140626,0.41667 v 3.65626 q 0,0.26042 0.140626,0.40625 0.145834,0.14063 0.406251,0.14063 h 4.213555 v -1.69792 h -3.604178 v -1.36459 h 4.276055 q 0.145834,0 0.270834,0.0573 0.125001,0.0521 0.213543,0.14584 0.09375,0.0937 0.145834,0.21875 0.05208,0.11979 0.05208,0.26041 z"/>
    <path id="path63145" style="font-weight:bold;font-size:10.6667px;font-family:Audiowide, sans-serif;letter-spacing:2px;text-anchor:middle;fill:#333333" d="M 76.052091,374 H 74.69792 v -1.83334 H 69.937488 V 374 h -1.354171 v -3.73439 q 0,-0.81771 0.281251,-1.50521 0.281251,-0.6875 0.781253,-1.1823 0.500001,-0.49479 1.182295,-0.77083 0.682294,-0.27604 1.489588,-0.27604 h 3.052093 q 0.140626,0 0.265626,0.0521 0.125,0.0521 0.218751,0.14583 0.09375,0.0937 0.145833,0.21875 0.05208,0.125 0.05208,0.26563 z m -6.114603,-3.18751 h 4.760432 v -2.92709 h -2.380216 q -0.0625,0 -0.265626,0.0208 -0.197917,0.0156 -0.463543,0.0885 -0.260417,0.0729 -0.552085,0.22396 -0.291667,0.15104 -0.53646,0.41667 -0.244792,0.26563 -0.406251,0.66667 -0.156251,0.39583 -0.156251,0.96354 z"/>
    <path id="path63147" style="font-weight:bold;font-size:10.6667px;font-family:Audiowide, sans-serif;letter-spacing:2px;text-anchor:middle;fill:#333333" d="m 86.937537,373.31771 q 0,0.14583 -0.05208,0.27083 -0.05208,0.125 -0.145833,0.21875 -0.09375,0.0885 -0.218751,0.14063 Q 86.395868,374 86.255243,374 H 83.20315 q -0.432293,0 -0.875003,-0.0937 -0.442709,-0.0937 -0.859377,-0.28646 -0.41146,-0.19792 -0.776045,-0.5 -0.364584,-0.30209 -0.640627,-0.71355 -0.270834,-0.41666 -0.427084,-0.94791 -0.156251,-0.53646 -0.156251,-1.19272 v -3.73438 h 1.354171 v 3.73438 q 0,0.57292 0.156251,0.96876 0.161459,0.39583 0.406251,0.66146 0.244792,0.26562 0.53646,0.41666 0.291668,0.15105 0.552085,0.22396 0.265626,0.0729 0.463543,0.0937 0.203126,0.0156 0.265626,0.0156 h 2.380216 v -6.1146 h 1.354171 z"/>
    <path id="path63149" style="font-weight:bold;font-size:10.6667px;font-family:Audiowide, sans-serif;letter-spacing:2px;text-anchor:middle;fill:#333333" d="m 97.968813,370.87499 q 0,0.68229 -0.239584,1.25521 -0.234376,0.57292 -0.651044,0.98959 -0.416668,0.41146 -0.989587,0.64583 Q 95.51568,374 94.843803,374 h -3.656262 q -0.145834,0 -0.270834,-0.0521 -0.125,-0.0521 -0.218751,-0.14063 -0.08854,-0.0937 -0.140625,-0.21875 -0.05208,-0.125 -0.05208,-0.27083 v -6.10419 q 0,-0.14063 0.05208,-0.26563 0.05208,-0.125 0.140625,-0.21875 0.09375,-0.0937 0.218751,-0.14583 0.125,-0.0521 0.270834,-0.0521 h 3.656262 q 0.671877,0 1.244795,0.23437 0.572919,0.23438 0.989587,0.65105 0.416668,0.41146 0.651044,0.98958 0.239584,0.57292 0.239584,1.25001 z m -1.354171,-1.21875 q 0,-0.39584 -0.130209,-0.72396 -0.125,-0.32813 -0.359376,-0.5573 -0.234376,-0.23437 -0.562502,-0.35937 -0.322918,-0.13021 -0.718752,-0.13021 h -2.984385 v 4.76043 h 2.984385 q 0.395834,0 0.718752,-0.125 0.328126,-0.13021 0.562502,-0.35938 0.234376,-0.23437 0.359376,-0.55729 0.130209,-0.32813 0.130209,-0.72917 z"/>
    <path id="path63151" style="font-weight:bold;font-size:10.6667px;font-family:Audiowide, sans-serif;letter-spacing:2px;text-anchor:middle;fill:#333333" d="m 102.67195,374 h -1.35417 v -7.46877 h 1.35417 z"/>
    <path id="path63153" style="font-weight:bold;font-size:10.6667px;font-family:Audiowide, sans-serif;letter-spacing:2px;text-anchor:middle;fill:#333333" d="m 114.10427,370.97916 q 0,0.68229 -0.23438,1.25521 -0.23437,0.57292 -0.65104,0.98959 -0.41667,0.41666 -0.98959,0.65104 -0.56771,0.22917 -1.23958,0.22917 h -1.83334 q -0.67188,0 -1.2448,-0.22917 -0.57292,-0.23438 -0.98959,-0.65104 -0.41666,-0.41667 -0.65625,-0.98959 -0.23437,-0.57292 -0.23437,-1.25521 v -1.42709 q 0,-0.67709 0.23437,-1.25 0.23959,-0.57813 0.65625,-0.98959 0.41667,-0.41667 0.98959,-0.65104 0.57292,-0.23438 1.2448,-0.23438 h 1.83334 q 0.67187,0 1.23958,0.23438 0.57292,0.23437 0.98959,0.65104 0.41667,0.41146 0.65104,0.98959 0.23438,0.57291 0.23438,1.25 z m -1.35417,-1.42709 q 0,-0.40104 -0.13021,-0.72396 -0.125,-0.32813 -0.35938,-0.55729 -0.22916,-0.23438 -0.55729,-0.35938 -0.32292,-0.13021 -0.71354,-0.13021 h -1.83334 q -0.39584,0 -0.72396,0.13021 -0.32292,0.125 -0.5573,0.35938 -0.23437,0.22916 -0.36458,0.55729 -0.125,0.32292 -0.125,0.72396 v 1.42709 q 0,0.40104 0.125,0.72917 0.13021,0.32291 0.36458,0.55729 0.23438,0.22917 0.5573,0.35938 0.32812,0.125 0.72396,0.125 h 1.82292 q 0.39583,0 0.71875,-0.125 0.32813,-0.13021 0.5625,-0.35938 0.23438,-0.23438 0.35938,-0.55729 0.13021,-0.32813 0.13021,-0.72917 z"/>
  </g>
  <path class="background-fill" d="m 59.5,369 h 3 v 3 h -3 z" style="fill:#dddddd" id="rect62910"/>
  <path class="input-background" d="m 13,32 h 20 c 2.77,0 5,2.23 5,5 v 318 c 0,2.77 -2.23,5 -5,5 H 13 c -2.77,0 -5,-2.23 -5,-5 V 37 c 0,-2.77 2.23,-5 5,-5 z" style="fill:#fafafa" id="rect62914"/>
  <g transform="translate(11,36)" id="g62932">
    <g id="g62916"/>
    <g transform="translate(0,40)" id="g62918"/>
    <g transform="translate(0,80)" id="g62920"/>
    <g transform="translate(0,120)" id="g62922"/>
    <g transform="translate(0,160)" id="g62924"/>
    <g transform="translate(0,200)" id="g62926"/>
    <g transform="translate(0,240)" id="g62928"/>
    <g transform="translate(0,280)" id="g62930"/>
  </g>
  <g class="input-label" style="font-weight:bold;font-size:8px;font-family:Roboto, sans-serif;letter-spacing:2px;fill:#333333" id="text62934" aria-label="IN">
    <path id="path63132" style="font-weight:bold;font-size:8px;font-family:Roboto, sans-serif;letter-spacing:2px;fill:#333333" d="M 19.553905,352 H 18.38203 v -5.6875 h 1.171875 z"/>
    <path id="path63134" style="font-weight:bold;font-size:8px;font-family:Roboto, sans-serif;letter-spacing:2px;fill:#333333" d="m 27.260937,352 h -1.171875 l -2.28125,-3.74219 V 352 h -1.171875 v -5.6875 h 1.171875 l 2.285156,3.75 v -3.75 h 1.167969 z"/>
  </g>
  <path class="input-background" d="m 48,32 h 20 c 2.77,0 5,2.23 5,5 v 318 c 0,2.77 -2.23,5 -5,5 H 48 c -2.77,0 -5,-2.23 -5,-5 V 37 c 0,-2.77 2.23,-5 5,-5 z" style="fill:#fafafa" id="rect62938"/>
  <g transform="translate(46,36)" id="g62956">
    <g id="g62940"/>
    <g transform="translate(0,40)" id="g62942"/>
    <g transform="translate(0,80)" id="g62944"/>
    <g transform="translate(0,120)" id="g62946"/>
    <g transform="translate(0,160)" id="g62948"/>
    <g transform="translate(0,200)" id="g62950"/>
    <g transform="translate(0,240)" id="g62952"/>
    <g transform="translate(0,280)" id="g62954"/>
  </g>
  <g class="input-label" style="font-weight:bold;font-size:8px;font-family:Roboto, sans-serif;letter-spacing:2px;fill:#333333" id="text62958" aria-label="CV">
    <path id="path63126" style="font-weight:bold;font-size:8px;font-family:Roboto, sans-serif;letter-spacing:2px;fill:#333333" d="m 55.972656,350.10547 q -0.06641,0.91797 -0.679687,1.44531 -0.609375,0.52734 -1.609375,0.52734 -1.09375,0 -1.722657,-0.73437 -0.625,-0.73828 -0.625,-2.02344 v -0.34765 q 0,-0.82032 0.289063,-1.44532 0.289062,-0.625 0.824219,-0.95703 0.539062,-0.33594 1.25,-0.33594 0.984375,0 1.585937,0.52735 0.601563,0.52734 0.695313,1.48047 h -1.171875 q -0.04297,-0.55078 -0.308594,-0.79688 -0.261719,-0.25 -0.800781,-0.25 -0.585938,0 -0.878907,0.42188 -0.289062,0.41797 -0.296875,1.30078 v 0.42969 q 0,0.92187 0.277344,1.34765 0.28125,0.42578 0.882813,0.42578 0.542968,0 0.808593,-0.24609 0.269532,-0.25 0.308594,-0.76953 z"/>
    <path id="path63128" style="font-weight:bold;font-size:8px;font-family:Roboto, sans-serif;letter-spacing:2px;fill:#333333" d="m 60.84375,350.58984 1.289062,-4.27734 H 63.4375 L 61.457031,352 h -1.222656 l -1.972656,-5.6875 H 59.5625 Z"/>
  </g>
  <g transform="translate(77.5,36)" id="g63010">
    <g transform="translate(0,2)" id="g62966">
      <g transform="translate(1,3)" id="g62962"/>
      <g transform="translate(23,8.8)" id="g62964"/>
    </g>
    <g transform="translate(0,42)" id="g62972">
      <g transform="translate(1,3)" id="g62968"/>
      <g transform="translate(23,8.8)" id="g62970"/>
    </g>
    <g transform="translate(0,82)" id="g62978">
      <g transform="translate(1,3)" id="g62974"/>
      <g transform="translate(23,8.8)" id="g62976"/>
    </g>
    <g transform="translate(0,122)" id="g62984">
      <g transform="translate(1,3)" id="g62980"/>
      <g transform="translate(23,8.8)" id="g62982"/>
    </g>
    <g transform="translate(0,162)" id="g62990">
      <g transform="translate(1,3)" id="g62986"/>
      <g transform="translate(23,8.8)" id="g62988"/>
    </g>
    <g transform="translate(0,202)" id="g62996">
      <g transform="translate(1,3)" id="g62992"/>
      <g transform="translate(23,8.8)" id="g62994"/>
    </g>
    <g transform="translate(0,242)" id="g63002">
      <g transform="translate(1,3)" id="g62998"/>
      <g transform="translate(23,8.8)" id="g63000"/>
    </g>
    <g transform="translate(0,280)" id="g63008">
      <g transform="translate(1,3)" id="g63004"/>
      <g transform="translate(23,8.8)" id="g63006"/>
    </g>
  </g>
  <g style="font-weight:bold;font-size:8px;font-family:Roboto, sans-serif;letter-spacing:2px;fill:#333333" id="text63012" aria-label="MUTE">
    <path id="path63117" style="font-weight:bold;font-size:8px;font-family:Roboto, sans-serif;letter-spacing:2px;fill:#333333" d="M 80.539062,346.3125 82,350.4375 l 1.453125,-4.125 h 1.539062 V 352 h -1.175781 v -1.55469 L 83.933594,347.76172 82.398437,352 H 81.59375 l -1.53125,-4.23438 0.117187,2.67969 V 352 h -1.171875 v -5.6875 z"/>
    <path id="path63119" style="font-weight:bold;font-size:8px;font-family:Roboto, sans-serif;letter-spacing:2px;fill:#333333" d="m 92.328125,346.3125 v 3.74609 q 0,0.9336 -0.585938,1.47657 -0.582031,0.54296 -1.59375,0.54296 -0.996093,0 -1.582031,-0.52734 -0.585937,-0.52734 -0.597656,-1.44922 v -3.78906 h 1.171875 v 3.75391 q 0,0.55859 0.265625,0.8164 0.269531,0.25391 0.742187,0.25391 0.988282,0 1.003907,-1.03906 v -3.78516 z"/>
    <path id="path63121" style="font-weight:bold;font-size:8px;font-family:Roboto, sans-serif;letter-spacing:2px;fill:#333333" d="M 99.570312,347.26172 H 97.828125 V 352 H 96.65625 v -4.73828 H 94.9375 v -0.94922 h 4.632812 z"/>
    <path id="path63123" style="font-weight:bold;font-size:8px;font-family:Roboto, sans-serif;letter-spacing:2px;fill:#333333" d="m 105.66406,349.53516 h -2.25 v 1.52343 h 2.64063 V 352 h -3.8125 v -5.6875 h 3.80469 v 0.94922 h -2.63282 v 1.35547 h 2.25 z"/>
  </g>
  <path class="output-background" d="m 117,32 h 20 c 2.77,0 5,2.23 5,5 v 318 c 0,2.77 -2.23,5 -5,5 h -20 c -2.77,0 -5,-2.23 -5,-5 V 37 c 0,-2.77 2.23,-5 5,-5 z" style="fill:#bbbbbb" id="rect63016"/>
  <g transform="translate(115,36)" id="g63034">
    <g id="g63018"/>
    <g transform="translate(0,40)" id="g63020"/>
    <g transform="translate(0,80)" id="g63022"/>
    <g transform="translate(0,120)" id="g63024"/>
    <g transform="translate(0,160)" id="g63026"/>
    <g transform="translate(0,200)" id="g63028"/>
    <g transform="translate(0,240)" id="g63030"/>
    <g transform="translate(0,280)" id="g63032"/>
  </g>
  <g class="output-label" style="font-weight:bold;font-size:8px;font-family:Roboto, sans-serif;letter-spacing:2px;fill:#333333" id="text63036" aria-label="OUT">
    <path id="path63109" style="font-weight:bold;font-size:8px;font-family:Roboto, sans-serif;letter-spacing:2px;fill:#333333" d="m 122.17969,349.28516 q 0,0.83984 -0.29688,1.47265 -0.29687,0.63281 -0.85156,0.97656 -0.55078,0.34375 -1.26562,0.34375 -0.70704,0 -1.26172,-0.33984 -0.55469,-0.33984 -0.85938,-0.96875 -0.30469,-0.63281 -0.30859,-1.45312 v -0.28125 q 0,-0.83985 0.30078,-1.47657 0.30469,-0.64062 0.85547,-0.98047 0.55469,-0.34375 1.26562,-0.34375 0.71094,0 1.26172,0.34375 0.55469,0.33985 0.85547,0.98047 0.30469,0.63672 0.30469,1.47266 z m -1.1875,-0.25782 q 0,-0.89453 -0.32031,-1.35937 -0.32032,-0.46485 -0.91407,-0.46485 -0.58984,0 -0.91015,0.46094 -0.32032,0.45703 -0.32422,1.34375 v 0.27735 q 0,0.87109 0.32031,1.35156 0.32031,0.48047 0.92188,0.48047 0.58984,0 0.90625,-0.46094 0.3164,-0.46484 0.32031,-1.35156 z"/>
    <path id="path63111" style="font-weight:bold;font-size:8px;font-family:Roboto, sans-serif;letter-spacing:2px;fill:#333333" d="m 129.34375,346.3125 v 3.74609 q 0,0.9336 -0.58594,1.47657 -0.58203,0.54296 -1.59375,0.54296 -0.99609,0 -1.58203,-0.52734 -0.58594,-0.52734 -0.59765,-1.44922 v -3.78906 h 1.17187 v 3.75391 q 0,0.55859 0.26563,0.8164 0.26953,0.25391 0.74218,0.25391 0.98828,0 1.00391,-1.03906 v -3.78516 z"/>
    <path id="path63113" style="font-weight:bold;font-size:8px;font-family:Roboto, sans-serif;letter-spacing:2px;fill:#333333" d="m 136.58594,347.26172 h -1.74219 V 352 h -1.17188 v -4.73828 h -1.71875 v -0.94922 h 4.63282 z"/>
  </g>
</svg>
