<?xml version="1.0" encoding="UTF-8" standalone="no"?>
<svg xmlns:dc="http://purl.org/dc/elements/1.1/" xmlns:cc="http://creativecommons.org/ns#" xmlns:rdf="http://www.w3.org/1999/02/22-rdf-syntax-ns#" xmlns:svg="http://www.w3.org/2000/svg" xmlns="http://www.w3.org/2000/svg" xmlns:sodipodi="http://sodipodi.sourceforge.net/DTD/sodipodi-0.dtd" xmlns:inkscape="http://www.inkscape.org/namespaces/inkscape" inkscape:version="1.0 (4035a4f, 2020-05-01)" sodipodi:docname="svg_render_Noise-pp.svg" id="svg33463" viewBox="0 0 45 380" height="380" width="45" version="1.1">
  <metadata id="metadata33469">
    <rdf:RDF>
      <cc:Work rdf:about="">
        <dc:format>image/svg+xml</dc:format>
        <dc:type rdf:resource="http://purl.org/dc/dcmitype/StillImage"/>
      </cc:Work>
    </rdf:RDF>
  </metadata>
  <defs id="defs33467"/>
  <sodipodi:namedview inkscape:current-layer="svg33463" inkscape:window-maximized="0" inkscape:window-y="23" inkscape:window-x="0" inkscape:cy="190" inkscape:cx="22.5" inkscape:zoom="1.7605263" showgrid="false" id="namedview33465" inkscape:window-height="480" inkscape:window-width="689" inkscape:pageshadow="2" inkscape:pageopacity="0" guidetolerance="10" gridtolerance="10" objecttolerance="10" borderopacity="1" bordercolor="#666666" pagecolor="#ffffff"/>
  
  <svg version="1.1" id="svg33391" width="100%" height="100%">
    <path class="module-background background-fill" d="M 0,0 H 45 V 380 H 0 Z" style="fill:#dddddd" id="rect33389"/>
  </svg>
  <svg version="1.1" id="svg33399" width="100%" height="100%">
    <path class="module-border-inner" d="M 1,1 H 44 V 379 H 1 V 1" style="fill:none;stroke:#e4e4e4;stroke-width:0.5" id="polyline33393"/>
    <path class="module-border-middle" d="m 0.5,0.5 h 44 v 379 H 0.5 V 0.5" style="fill:none;stroke:#ebebeb;stroke-width:0.8" id="polyline33395"/>
    <path class="module-border-outer" d="M 0,0 H 45 V 380 H 0 V 0" style="fill:none;stroke:#f2f2f2;stroke-width:1" id="polyline33397"/>
  </svg>
  <g transform="rotate(-90,194.5,181.5)" id="g33409">
    <g class="title" style="font-weight:normal;font-size:9.33333px;font-family:Comfortaa, sans-serif;letter-spacing:2.5px;fill:#333333" id="text33401" aria-label="NOISE">
      <path id="path33576" style="font-weight:normal;font-size:9.33333px;font-family:Comfortaa, sans-serif;letter-spacing:2.5px;fill:#333333" d="M 1.2973329,0 Q 1.1386663,0 1.0359996,-0.10266663 0.93333302,-0.20533326 0.93333302,-0.36399988 V -6.925331 q 0,-0.1586666 0.10266658,-0.2613332 0.1026667,-0.1026667 0.2613333,-0.1026667 0.1679999,0 0.2799999,0.1306667 l 4.4613318,5.8613313 V -6.925331 q 0,-0.1586666 0.1026666,-0.2613332 0.112,-0.1026667 0.2613333,-0.1026667 0.1586666,0 0.2613332,0.1026667 0.1026667,0.1026666 0.1026667,0.2613332 v 6.56133112 q 0,0.14933329 -0.1026667,0.26133325 Q 6.5613311,0 6.4026645,0 6.2159979,0 6.1319979,-0.12133329 L 1.6613328,-5.9826646 v 5.61866472 q 0,0.14933329 -0.1026667,0.26133325 Q 1.4559995,0 1.2973329,0 Z"/>
      <path id="path33578" style="font-weight:normal;font-size:9.33333px;font-family:Comfortaa, sans-serif;letter-spacing:2.5px;fill:#333333" d="m 14.49537,0.0933333 q -1.063999,0 -1.913332,-0.48533317 -0.849333,-0.48533316 -1.334667,-1.33466623 -0.475999,-0.8586664 -0.475999,-1.922666 0,-1.0639996 0.475999,-1.9133327 0.485334,-0.849333 1.334667,-1.3346662 0.849333,-0.4853332 1.913332,-0.4853332 1.054667,0 1.904,0.4853332 0.858666,0.4853332 1.334666,1.3346662 0.485333,0.8493331 0.485333,1.9133327 0,1.0639996 -0.485333,1.922666 -0.476,0.84933307 -1.334666,1.33466623 -0.849333,0.48533317 -1.904,0.48533317 z m 0,-0.69066643 q 0.849333,0 1.530667,-0.4013332 0.690666,-0.40133317 1.082666,-1.09199967 0.392,-0.6999997 0.392,-1.5586661 0,-0.849333 -0.392,-1.5399995 -0.392,-0.6999997 -1.082666,-1.1013329 -0.681334,-0.4013332 -1.530667,-0.4013332 -0.858666,0 -1.549332,0.4013332 -0.681334,0.4013332 -1.073333,1.1013329 -0.392,0.6906665 -0.392,1.5399995 0,0.8586664 0.392,1.5586661 0.391999,0.6906665 1.073333,1.09199967 0.690666,0.4013332 1.549332,0.4013332 z"/>
      <path id="path33580" style="font-weight:normal;font-size:9.33333px;font-family:Comfortaa, sans-serif;letter-spacing:2.5px;fill:#333333" d="M 22.594202,0 Q 22.444869,0 22.332869,-0.10266663 22.230202,-0.21466659 22.230202,-0.36399988 V -6.925331 q 0,-0.1586666 0.102667,-0.2613332 0.112,-0.1026667 0.261333,-0.1026667 0.158667,0 0.261333,0.1026667 0.102667,0.1026666 0.102667,0.2613332 v 6.56133112 q 0,0.14933329 -0.102667,0.26133325 Q 22.752869,0 22.594202,0 Z"/>
      <path id="path33582" style="font-weight:normal;font-size:9.33333px;font-family:Comfortaa, sans-serif;letter-spacing:2.5px;fill:#333333" d="m 29.558743,0.0933333 q -0.886667,0 -1.577333,-0.3733332 -0.681333,-0.38266654 -0.98,-1.0266663 -0.03733,-0.065333 -0.03733,-0.1493333 0,-0.1306666 0.09333,-0.2146666 0.102667,-0.093333 0.270667,-0.093333 0.112,0 0.205333,0.065333 0.102667,0.056 0.149333,0.168 0.214667,0.4199998 0.709333,0.68133306 0.504,0.25199991 1.166667,0.25199991 0.765333,0 1.231999,-0.36399988 0.466667,-0.37333319 0.466667,-1.03599969 0,-0.5879998 -0.438667,-0.9893329 -0.429333,-0.4013332 -1.297333,-0.5133332 -1.082666,-0.1306666 -1.707999,-0.6719998 -0.616,-0.5506665 -0.616,-1.3439995 0,-0.5599998 0.298667,-0.9799997 0.307999,-0.4293332 0.839999,-0.6533331 0.541333,-0.2333333 1.222667,-0.2333333 0.737333,0 1.297332,0.3266666 0.56,0.3266666 0.877333,0.849333 0.06533,0.1026667 0.06533,0.224 0,0.1773332 -0.168,0.2799999 -0.07467,0.037333 -0.168,0.037333 -0.102667,0 -0.196,-0.046667 -0.084,-0.056 -0.14,-0.1493332 -0.522666,-0.8213331 -1.577333,-0.8306664 -0.756,0 -1.194666,0.3173332 -0.438667,0.3173332 -0.438667,0.905333 0,1.0919997 1.764,1.3253329 1.157333,0.168 1.726666,0.7093331 0.569333,0.5413332 0.569333,1.4279995 0,0.6533331 -0.317333,1.12933297 -0.317333,0.47599983 -0.868,0.72799975 -0.550666,0.24266658 -1.231999,0.24266658 z"/>
      <path id="path33584" style="font-weight:normal;font-size:9.33333px;font-family:Comfortaa, sans-serif;letter-spacing:2.5px;fill:#333333" d="M 36.362431,0 Q 36.213097,0 36.101097,-0.10266663 35.998431,-0.21466659 35.998431,-0.36399988 V -6.925331 q 0,-0.1586666 0.102666,-0.2613332 0.112,-0.1026667 0.261334,-0.1026667 h 4.377332 q 0.158666,0 0.261333,0.1026667 0.102666,0.1026666 0.102666,0.2519999 0,0.1493333 -0.102666,0.2519999 -0.102667,0.093333 -0.261333,0.093333 h -4.013332 v 2.5759991 h 2.921332 q 0.158667,0 0.261333,0.1026667 0.102667,0.1026666 0.102667,0.2519999 0,0.1493333 -0.112,0.2519999 -0.102667,0.1026666 -0.252,0.1026666 h -2.921332 v 2.60399914 h 4.013332 q 0.158666,0 0.261333,0.10266663 0.102666,0.0933333 0.102666,0.24266658 0,0.14933329 -0.102666,0.25199992 Q 40.898429,0 40.739763,0 Z"/>
    </g>
    <g transform="translate(0,12)" id="g33407">
      <g class="brand" style="font-weight:bold;font-size:9.33333px;font-family:Audiowide, sans-serif;letter-spacing:2px;fill:#333333" id="text33403" aria-label="BGA">
        <path id="path33587" style="font-weight:bold;font-size:9.33333px;font-family:Audiowide, sans-serif;letter-spacing:2px;fill:#333333" d="m 7.209633,-1.4355464 q 0,0.2187499 -0.077474,0.4694009 -0.072917,0.25065095 -0.2460936,0.46484359 Q 6.7174456,-0.28710928 6.4440082,-0.14127599 6.1705708,0 5.7740866,0 H 1.2760412 Q 1.1484371,0 1.0390621,-0.0455729 0.92968718,-0.0911458 0.84765596,-0.16861973 0.77018203,-0.25065096 0.72460913,-0.36002592 0.67903623,-0.46940088 0.67903623,-0.597005 v -5.341144 q 0,-0.1230469 0.0455729,-0.2324218 0.0455729,-0.109375 0.12304683,-0.1914062 0.0820312,-0.082031 0.19140614,-0.1276041 0.109375,-0.045573 0.2369791,-0.045573 h 3.9648424 q 0.21875,0 0.4694009,0.077474 0.250651,0.077474 0.4648436,0.250651 0.2187499,0.1686197 0.3600259,0.4420571 0.1458333,0.2734374 0.1458333,0.6699217 v 0.2233072 q 0,0.314453 -0.1048177,0.6790362 -0.1048176,0.3600259 -0.3372394,0.6835935 0.2005207,0.1230468 0.3736978,0.2962239 0.1777343,0.173177 0.3098957,0.4010415 0.1321614,0.2278645 0.2096353,0.5149738 0.077474,0.2871093 0.077474,0.6334633 z M 6.0247375,-1.6634109 q 0,-0.2324218 -0.072917,-0.4147134 Q 5.8789042,-2.2649732 5.7467428,-2.3971346 5.6145814,-2.529296 5.4277325,-2.5976554 5.2408836,-2.670572 5.0084618,-2.670572 h -2.670572 v -1.19401 h 2.1373691 q 0.2324218,0 0.4192707,-0.068359 0.1868489,-0.072917 0.3190103,-0.205078 0.1321614,-0.1321614 0.2005208,-0.314453 0.072917,-0.1868489 0.072917,-0.4192707 v -0.2233072 q 0,-0.2552083 -0.2460937,-0.2552083 H 1.8639317 v 4.1653632 h 3.9101549 q 0.031901,0 0.077474,-0.00456 0.045573,-0.00456 0.082031,-0.027344 0.036458,-0.022786 0.063802,-0.077474 0.027344,-0.054687 0.027344,-0.1503906 z"/>
        <path id="path33589" style="font-weight:bold;font-size:9.33333px;font-family:Audiowide, sans-serif;letter-spacing:2px;fill:#333333" d="m 16.683589,-0.597005 q 0,0.12760412 -0.04557,0.23697908 -0.04557,0.10937496 -0.127605,0.19140619 -0.07747,0.07747393 -0.186849,0.12304683 Q 16.214189,0 16.086584,0 h -4.274738 q -0.164062,0 -0.355468,-0.03645832 -0.186849,-0.04101561 -0.373698,-0.12304683 -0.182292,-0.0820312 -0.350911,-0.20963535 -0.16862,-0.13216141 -0.300782,-0.31445302 -0.127604,-0.18684889 -0.205078,-0.42838528 -0.07747,-0.2460937 -0.07747,-0.5514321 v -3.2083322 q 0,-0.1640625 0.03646,-0.3509114 0.04101,-0.1914062 0.123047,-0.3736978 0.08203,-0.1868489 0.214192,-0.3554686 0.132162,-0.1686197 0.314453,-0.2962238 0.186849,-0.1321615 0.428385,-0.2096354 0.241537,-0.077474 0.546875,-0.077474 h 4.817056 v 1.1848954 h -4.817056 q -0.232422,0 -0.355468,0.1230468 -0.123047,0.1230469 -0.123047,0.3645832 v 3.1992177 q 0,0.2278645 0.123047,0.3554686 0.127604,0.1230469 0.355468,0.1230469 h 3.686848 V -2.670572 h -3.153645 v -1.19401 h 3.741535 q 0.127605,0 0.236979,0.05013 0.109375,0.045573 0.186849,0.1276041 0.08203,0.082031 0.127605,0.1914062 0.04557,0.1048177 0.04557,0.2278645 z"/>
        <path id="path33591" style="font-weight:bold;font-size:9.33333px;font-family:Audiowide, sans-serif;letter-spacing:2px;fill:#333333" d="M 26.339836,0 H 25.154941 V -1.6041661 H 20.989578 V 0 h -1.184896 v -3.267577 q 0,-0.7154946 0.246094,-1.3170569 0.246094,-0.6015623 0.683593,-1.0345048 0.4375,-0.4329426 1.034505,-0.6744789 0.597005,-0.2415364 1.303385,-0.2415364 h 2.670572 q 0.123047,0 0.232422,0.045573 0.109375,0.045573 0.191406,0.1276041 0.08203,0.082031 0.127604,0.1914062 0.04557,0.1093749 0.04557,0.2324218 z m -5.350258,-2.7890616 h 4.165363 v -2.561197 h -2.082682 q -0.05469,0 -0.232422,0.018229 -0.173177,0.013672 -0.405598,0.077474 -0.227865,0.063802 -0.483073,0.1959635 -0.255208,0.1321614 -0.469401,0.3645832 -0.214193,0.2324218 -0.355469,0.5833331 -0.136718,0.3463541 -0.136718,0.8430987 z"/>
      </g>
      <path d="M 0,0 H 3 V 3 H 0 Z" style="fill:#dddddd" transform="translate(11.5,-5)" id="rect33405"/>
    </g>
  </g>
  <g transform="translate(7.5,18)" id="g33435">
    <path d="m 5,0 h 24 c 2.77,0 5,2.23 5,5 v 199 c 0,2.77 -2.23,5 -5,5 H 5 c -2.77,0 -5,-2.23 -5,-5 V 5 C 0,2.23 2.23,0 5,0 Z" style="fill:#bbbbbb" transform="translate(-2)" id="rect33413"/>
    <g transform="translate(3,6)" id="g33415"/>
    <g style="font-weight:bold;font-size:6.66667px;font-family:Roboto, sans-serif;letter-spacing:2px;fill:#333333" id="text33417" transform="translate(4,39)" aria-label="BLUE">
      <path id="path33529" style="font-weight:bold;font-size:6.66667px;font-family:Roboto, sans-serif;letter-spacing:2px;fill:#333333" d="M 0.42317729,0 V -4.7395856 H 2.0833343 q 0.8626306,0 1.3085944,0.3320314 0.4459638,0.3287762 0.4459638,0.9667974 0,0.3483074 -0.1790366,0.6152346 -0.1790365,0.263672 -0.4980471,0.38737 0.3645835,0.091146 0.5729169,0.3678387 0.2115887,0.2766929 0.2115887,0.6770837 0,0.68359404 -0.4361981,1.03515671 Q 3.0729181,-0.00651042 2.2656261,0 Z M 1.3997403,-2.0638031 v 1.27929752 h 0.8365889 q 0.3450522,0 0.5371096,-0.1627605 0.1953126,-0.16601572 0.1953126,-0.45572942 0,-0.6510419 -0.6738284,-0.6608076 z m 0,-0.6901045 h 0.7226565 q 0.7389327,-0.013021 0.7389327,-0.589193 0,-0.3222657 -0.1888022,-0.4622398 -0.1855469,-0.1432292 -0.589193,-0.1432292 h -0.683594 z"/>
      <path id="path33531" style="font-weight:bold;font-size:6.66667px;font-family:Roboto, sans-serif;letter-spacing:2px;fill:#333333" d="M 7.6575547,-0.78450558 H 9.7311234 V 0 H 6.6809917 v -4.7395856 h 0.976563 z"/>
      <path id="path33533" style="font-weight:bold;font-size:6.66667px;font-family:Roboto, sans-serif;letter-spacing:2px;fill:#333333" d="m 15.79688,-4.7395856 v 3.1217463 q 0,0.77799515 -0.488281,1.23046932 -0.485026,0.45247418 -1.328126,0.45247418 -0.830078,0 -1.31836,-0.43945334 -0.488281,-0.43945333 -0.498047,-1.20768286 v -3.1575536 h 0.976563 v 3.1282567 q 0,0.465495 0.221354,0.68033887 0.22461,0.21158865 0.61849,0.21158865 0.823568,0 0.836589,-0.86588582 v -3.1542984 z"/>
      <path id="path33535" style="font-weight:bold;font-size:6.66667px;font-family:Roboto, sans-serif;letter-spacing:2px;fill:#333333" d="m 21.449225,-2.0540374 h -1.875 v 1.26953182 h 2.200521 V 0 h -3.177084 v -4.7395856 h 3.170574 v 0.791016 h -2.194011 v 1.1295578 h 1.875 z"/>
    </g>
    <g transform="translate(3,47)" id="g33419"/>
    <g style="font-weight:bold;font-size:6.66667px;font-family:Roboto, sans-serif;letter-spacing:2px;fill:#333333" id="text33421" transform="translate(0.5,80)" aria-label="WHITE">
      <path id="path33538" style="font-weight:bold;font-size:6.66667px;font-family:Roboto, sans-serif;letter-spacing:2px;fill:#333333" d="M 4.1145853,-1.3671882 4.7526064,-4.7395856 H 5.7259142 L 4.6744814,0 H 3.691408 L 2.9199233,-3.1705744 2.1484385,0 H 1.1653651 L 0.11393235,-4.7395856 H 1.0872401 l 0.6412763,3.365887 0.7812504,-3.365887 h 0.8268233 z"/>
      <path id="path33540" style="font-weight:bold;font-size:6.66667px;font-family:Roboto, sans-serif;letter-spacing:2px;fill:#333333" d="M 12.113937,0 H 11.137374 V -2.031251 H 9.2330761 V 0 H 8.2565132 v -4.7395856 h 0.9765629 v 1.9205738 h 1.9042979 v -1.9205738 h 0.976563 z"/>
      <path id="path33542" style="font-weight:bold;font-size:6.66667px;font-family:Roboto, sans-serif;letter-spacing:2px;fill:#333333" d="m 16.008469,0 h -0.976563 v -4.7395856 h 0.976563 z"/>
      <path id="path33544" style="font-weight:bold;font-size:6.66667px;font-family:Roboto, sans-serif;letter-spacing:2px;fill:#333333" d="M 22.386727,-3.9485696 H 20.934903 V 0 H 19.95834 v -3.9485696 h -1.432292 v -0.791016 h 3.860679 z"/>
      <path id="path33546" style="font-weight:bold;font-size:6.66667px;font-family:Roboto, sans-serif;letter-spacing:2px;fill:#333333" d="m 27.798186,-2.0540374 h -1.875001 v 1.26953182 h 2.200522 V 0 h -3.177085 v -4.7395856 h 3.170575 v 0.791016 h -2.194012 v 1.1295578 h 1.875001 z"/>
    </g>
    <g transform="translate(3,88)" id="g33423"/>
    <g style="font-weight:bold;font-size:6.66667px;font-family:Roboto, sans-serif;letter-spacing:2px;fill:#333333" id="text33425" transform="translate(4.5,121)" aria-label="PINK">
      <path id="path33549" style="font-weight:bold;font-size:6.66667px;font-family:Roboto, sans-serif;letter-spacing:2px;fill:#333333" d="M 1.3997403,-1.6699227 V 0 H 0.42317729 V -4.7395856 H 2.2721365 q 0.5338544,0 0.9375004,0.1953126 0.4069013,0.1953126 0.6250003,0.5566409 0.2180991,0.3580731 0.2180991,0.8170577 0,0.6966149 -0.4785158,1.1002609 -0.4752607,0.4003908 -1.31836,0.4003908 z m 0,-0.791016 h 0.8723962 q 0.38737,0 0.589193,-0.1822917 0.2050782,-0.1822918 0.2050782,-0.5208336 0,-0.3483075 -0.2050782,-0.5631513 Q 2.6562513,-3.9420592 2.294923,-3.9485696 H 1.3997403 Z"/>
      <path id="path33551" style="font-weight:bold;font-size:6.66667px;font-family:Roboto, sans-serif;letter-spacing:2px;fill:#333333" d="M 7.7584661,0 H 6.7819032 v -4.7395856 h 0.9765629 z"/>
      <path id="path33553" style="font-weight:bold;font-size:6.66667px;font-family:Roboto, sans-serif;letter-spacing:2px;fill:#333333" d="M 14.514328,0 H 13.537765 L 11.636723,-3.1184911 V 0 H 10.66016 v -4.7395856 h 0.976563 l 1.904297,3.1250015 v -3.1250015 h 0.973308 z"/>
      <path id="path33555" style="font-weight:bold;font-size:6.66667px;font-family:Roboto, sans-serif;letter-spacing:2px;fill:#333333" d="m 18.858078,-1.9010426 -0.507812,0.5468753 V 0 h -0.976563 v -4.7395856 h 0.976563 v 2.1484385 l 0.429687,-0.589193 1.207683,-1.5592455 h 1.201173 L 19.505865,-2.6334648 21.237637,0 h -1.16211 z"/>
    </g>
    <g transform="translate(3,129)" id="g33427"/>
    <g style="font-weight:bold;font-size:6.66667px;font-family:Roboto, sans-serif;letter-spacing:2px;fill:#333333" id="text33429" transform="translate(7,162)" aria-label="RED">
      <path id="path33558" style="font-weight:bold;font-size:6.66667px;font-family:Roboto, sans-serif;letter-spacing:2px;fill:#333333" d="M 2.1777354,-1.7350269 H 1.3997403 V 0 H 0.42317729 V -4.7395856 H 2.1842458 q 0.8398442,0 1.2955736,0.3743491 0.4557294,0.3743492 0.4557294,1.0579433 0,0.4850262 -0.2115887,0.8105472 -0.2083334,0.3222658 -0.6347659,0.5143232 l 1.0253911,1.93684986 V 0 H 3.0664077 Z M 1.3997403,-2.5260429 H 2.187501 q 0.3678388,0 0.5696618,-0.1855469 0.201823,-0.1888022 0.201823,-0.5175784 0,-0.3352866 -0.1920574,-0.527344 Q 2.5781262,-3.9485696 2.1842458,-3.9485696 H 1.3997403 Z"/>
      <path id="path33560" style="font-weight:bold;font-size:6.66667px;font-family:Roboto, sans-serif;letter-spacing:2px;fill:#333333" d="M 9.5325556,-2.0540374 H 7.6575547 v 1.26953182 H 9.8580765 V 0 H 6.6809917 v -4.7395856 h 3.1705744 v 0.791016 H 7.6575547 v 1.1295578 h 1.8750009 z"/>
      <path id="path33562" style="font-weight:bold;font-size:6.66667px;font-family:Roboto, sans-serif;letter-spacing:2px;fill:#333333" d="m 12.430994,0 v -4.7395856 h 1.458334 q 0.625,0 1.116537,0.2832033 0.494792,0.279948 0.771484,0.8007816 0.276693,0.5175784 0.276693,1.178386 v 0.218099 q 0,0.6608076 -0.273437,1.1751308 -0.270183,0.51432317 -0.764975,0.79752643 Q 14.520838,-0.00325521 13.899093,0 Z m 0.976563,-3.9485696 v 3.16406402 h 0.472005 q 0.572917,0 0.875651,-0.37434912 0.302735,-0.3743492 0.309245,-1.0709641 v -0.2506511 q 0,-0.7226566 -0.299479,-1.0937506 -0.299479,-0.3743491 -0.875651,-0.3743491 z"/>
    </g>
    <g transform="translate(3,170)" id="g33431"/>
    <g style="font-weight:bold;font-size:6.66667px;font-family:Roboto, sans-serif;letter-spacing:2px;fill:#333333" id="text33433" transform="translate(0,203)" aria-label="GAUSS">
      <path id="path33565" style="font-weight:bold;font-size:6.66667px;font-family:Roboto, sans-serif;letter-spacing:2px;fill:#333333" d="M 4.1731791,-0.59895862 Q 3.9095071,-0.28320326 3.427736,-0.10742193 2.9459649,0.0651042 2.3600272,0.0651042 q -0.6152347,0 -1.0807297,-0.26692721 Q 0.81705768,-0.47200543 0.56315131,-0.98307339 0.31250015,-1.4941413 0.30598973,-2.1842458 v -0.3222658 q 0,-0.7096358 0.23763032,-1.2272141 0.24088553,-0.5208336 0.69010445,-0.7942713 0.4524742,-0.2766928 1.0579433,-0.2766928 0.8430993,0 1.31836,0.403646 0.4752606,0.4003909 0.5631513,1.1686204 H 3.2226578 Q 3.1575536,-3.6393247 2.9329441,-3.8281268 2.7115898,-4.016929 2.3209646,-4.016929 q -0.4980471,0 -0.7584639,0.3743491 -0.2604167,0.3743492 -0.263672,1.1132818 v 0.3027345 q 0,0.7454431 0.2832033,1.1263027 0.2832033,0.38085952 0.8300785,0.38085952 0.5501305,0 0.7845056,-0.23437512 V -1.7708342 H 2.3079438 v -0.7194014 h 1.8652353 z"/>
      <path id="path33567" style="font-weight:bold;font-size:6.66667px;font-family:Roboto, sans-serif;letter-spacing:2px;fill:#333333" d="M 9.6432327,-0.97656297 H 7.9309923 L 7.6054713,0 H 6.5670594 L 8.3313831,-4.7395856 H 9.2363315 L 11.010421,0 H 9.9720089 Z M 8.1946643,-1.767579 H 9.3795607 L 8.7838573,-3.5416684 Z"/>
      <path id="path33569" style="font-weight:bold;font-size:6.66667px;font-family:Roboto, sans-serif;letter-spacing:2px;fill:#333333" d="m 16.994797,-4.7395856 v 3.1217463 q 0,0.77799515 -0.488281,1.23046932 -0.485026,0.45247418 -1.328126,0.45247418 -0.830078,0 -1.31836,-0.43945334 -0.488281,-0.43945333 -0.498047,-1.20768286 v -3.1575536 h 0.976563 v 3.1282567 q 0,0.465495 0.221354,0.68033887 0.22461,0.21158865 0.61849,0.21158865 0.823568,0 0.836589,-0.86588582 v -3.1542984 z"/>
      <path id="path33571" style="font-weight:bold;font-size:6.66667px;font-family:Roboto, sans-serif;letter-spacing:2px;fill:#333333" d="m 22.253263,-1.2434902 q 0,-0.2766928 -0.195313,-0.4231773 -0.195312,-0.1497396 -0.703125,-0.3125001 -0.507813,-0.1660157 -0.804037,-0.325521 -0.807292,-0.4361981 -0.807292,-1.1751308 0,-0.3841147 0.214844,-0.683594 0.218099,-0.3027346 0.621745,-0.4720055 0.406901,-0.1692709 0.911459,-0.1692709 0.507813,0 0.904948,0.185547 0.397136,0.1822917 0.615235,0.5175783 0.221354,0.3352867 0.221354,0.7617192 h -0.976563 q 0,-0.325521 -0.205078,-0.5045576 -0.205078,-0.1822917 -0.576172,-0.1822917 -0.358073,0 -0.556641,0.1529948 -0.198568,0.1497397 -0.198568,0.3971356 0,0.2311199 0.23112,0.38737 0.234375,0.1562501 0.686849,0.2929689 0.833334,0.2506512 1.214194,0.6217451 0.380859,0.3710939 0.380859,0.9244796 0,0.61523467 -0.465495,0.96679734 -0.465495,0.34830746 -1.253256,0.34830746 -0.546875,0 -0.996094,-0.19856781 -0.449219,-0.20182301 -0.686849,-0.55013047 -0.234375,-0.34830742 -0.234375,-0.80729202 h 0.979818 q 0,0.78450555 0.9375,0.78450555 0.348308,0 0.54362,-0.13997402 0.195313,-0.14322924 0.195313,-0.39713563 z"/>
      <path id="path33573" style="font-weight:bold;font-size:6.66667px;font-family:Roboto, sans-serif;letter-spacing:2px;fill:#333333" d="m 28.354827,-1.2434902 q 0,-0.2766928 -0.195312,-0.4231773 -0.195313,-0.1497396 -0.703126,-0.3125001 -0.507812,-0.1660157 -0.804036,-0.325521 -0.807292,-0.4361981 -0.807292,-1.1751308 0,-0.3841147 0.214843,-0.683594 0.218099,-0.3027346 0.621745,-0.4720055 0.406902,-0.1692709 0.911459,-0.1692709 0.507813,0 0.904949,0.185547 0.397135,0.1822917 0.615234,0.5175783 0.221355,0.3352867 0.221355,0.7617192 h -0.976563 q 0,-0.325521 -0.205079,-0.5045576 -0.205078,-0.1822917 -0.576172,-0.1822917 -0.358073,0 -0.556641,0.1529948 -0.198568,0.1497397 -0.198568,0.3971356 0,0.2311199 0.23112,0.38737 0.234376,0.1562501 0.68685,0.2929689 0.833333,0.2506512 1.214193,0.6217451 0.38086,0.3710939 0.38086,0.9244796 0,0.61523467 -0.465495,0.96679734 -0.465496,0.34830746 -1.253256,0.34830746 -0.546876,0 -0.996095,-0.19856781 -0.449218,-0.20182301 -0.686849,-0.55013047 -0.234375,-0.34830742 -0.234375,-0.80729202 h 0.979818 q 0,0.78450555 0.937501,0.78450555 0.348307,0 0.54362,-0.13997402 0.195312,-0.14322924 0.195312,-0.39713563 z"/>
    </g>
  </g>
  <g style="font-weight:bold;font-size:8px;font-family:Roboto, sans-serif;letter-spacing:2px;fill:#333333" id="text33439" aria-label="ABS">
    <path id="path33521" style="font-weight:bold;font-size:8px;font-family:Roboto, sans-serif;letter-spacing:2px;fill:#333333" d="M 16.71875,244.82812 H 14.664063 L 14.273438,246 h -1.246094 l 2.117187,-5.6875 h 1.085938 L 18.359375,246 h -1.246094 z m -1.738281,-0.94921 h 1.421875 L 15.6875,241.75 Z"/>
    <path id="path33523" style="font-weight:bold;font-size:8px;font-family:Roboto, sans-serif;letter-spacing:2px;fill:#333333" d="m 20.898437,246 v -5.6875 h 1.992188 q 1.035156,0 1.570312,0.39844 0.535157,0.39453 0.535157,1.16015 0,0.41797 -0.214844,0.73828 -0.214844,0.31641 -0.597656,0.46485 0.4375,0.10937 0.6875,0.4414 0.253906,0.33204 0.253906,0.8125 0,0.82032 -0.523438,1.24219 -0.523437,0.42188 -1.492187,0.42969 z m 1.171875,-2.47656 v 1.53515 h 1.003907 q 0.414062,0 0.644531,-0.19531 0.234375,-0.19922 0.234375,-0.54687 0,-0.78125 -0.808594,-0.79297 z m 0,-0.82813 H 22.9375 q 0.886719,-0.0156 0.886719,-0.70703 0,-0.38672 -0.226563,-0.55469 -0.222656,-0.17187 -0.707031,-0.17187 h -0.820313 z"/>
    <path id="path33525" style="font-weight:bold;font-size:8px;font-family:Roboto, sans-serif;letter-spacing:2px;fill:#333333" d="m 30.957031,244.50781 q 0,-0.33203 -0.234375,-0.50781 -0.234375,-0.17969 -0.84375,-0.375 -0.609375,-0.19922 -0.964844,-0.39063 -0.96875,-0.52343 -0.96875,-1.41015 0,-0.46094 0.257813,-0.82031 0.261719,-0.36329 0.746094,-0.56641 0.488281,-0.20313 1.09375,-0.20313 0.609375,0 1.085937,0.22266 0.476563,0.21875 0.738281,0.62109 0.265625,0.40235 0.265625,0.91407 h -1.171875 q 0,-0.39063 -0.246093,-0.60547 -0.246094,-0.21875 -0.691407,-0.21875 -0.429687,0 -0.667968,0.18359 -0.238282,0.17969 -0.238282,0.47656 0,0.27735 0.277344,0.46485 0.28125,0.1875 0.824219,0.35156 1,0.30078 1.457031,0.74609 0.457031,0.44532 0.457031,1.10938 0,0.73828 -0.558593,1.16016 -0.558594,0.41796 -1.503907,0.41796 -0.65625,0 -1.195312,-0.23828 -0.539063,-0.24218 -0.824219,-0.66015 -0.28125,-0.41797 -0.28125,-0.96875 h 1.175781 q 0,0.9414 1.125,0.9414 0.417969,0 0.652344,-0.16797 0.234375,-0.17187 0.234375,-0.47656 z"/>
  </g>
  <g transform="translate(5.5,250)" id="g33449">
    <path d="M 0,0 H 34 V 10 H 0 Z" style="fill:#fafafa" transform="translate(0,28)" id="rect33441"/>
    <path d="m 5,0 h 24 c 2.77,0 5,2.23 5,5 v 25 c 0,2.77 -2.23,5 -5,5 H 5 C 2.23,35 0,32.77 0,30 V 5 C 0,2.23 2.23,0 5,0 Z" style="fill:#fafafa" id="rect33443"/>
    <g transform="translate(5,3)" id="g33445"/>
    <g style="font-weight:bold;font-size:6.66667px;font-family:Roboto, sans-serif;letter-spacing:2px;fill:#333333" id="text33447" transform="translate(12.5,35)" aria-label="IN">
      <path id="path33516" style="font-weight:bold;font-size:6.66667px;font-family:Roboto, sans-serif;letter-spacing:2px;fill:#333333" d="M 1.4615892,0 H 0.48502627 V -4.7395856 H 1.4615892 Z"/>
      <path id="path33518" style="font-weight:bold;font-size:6.66667px;font-family:Roboto, sans-serif;letter-spacing:2px;fill:#333333" d="M 8.2174508,0 H 7.2408878 L 5.3398452,-3.1184911 V 0 h -0.976563 v -4.7395856 h 0.976563 l 1.9042978,3.1250015 v -3.1250015 h 0.9733078 z"/>
    </g>
  </g>
  <g transform="translate(5.5,291)" id="g33459">
    <path d="M 0,0 H 34 V 10 H 0 Z" style="fill:#bbbbbb" transform="translate(0,-3)" id="rect33451"/>
    <path d="m 5,0 h 24 c 2.77,0 5,2.23 5,5 v 25 c 0,2.77 -2.23,5 -5,5 H 5 C 2.23,35 0,32.77 0,30 V 5 C 0,2.23 2.23,0 5,0 Z" style="fill:#bbbbbb" id="rect33453"/>
    <g transform="translate(5)" id="g33455"/>
    <g style="font-weight:bold;font-size:6.66667px;font-family:Roboto, sans-serif;letter-spacing:2px;fill:#333333" id="text33457" transform="translate(8.3,32)" aria-label="OUT">
      <path id="path33507" style="font-weight:bold;font-size:6.66667px;font-family:Roboto, sans-serif;letter-spacing:2px;fill:#333333" d="m 4.3164083,-2.2623709 q 0,0.6998702 -0.2473959,1.2272142 -0.247396,0.52734396 -0.7096358,0.81380243 -0.4589846,0.28645847 -1.054688,0.28645847 -0.589193,0 -1.0514328,-0.28320326 Q 0.791016,-0.50130232 0.53710963,-1.0253911 0.28320326,-1.5527351 0.27994805,-2.2363292 v -0.2343751 q 0,-0.6998701 0.25065116,-1.2304693 0.25390637,-0.5338545 0.71289099,-0.8170577 0.4622398,-0.2864585 1.054688,-0.2864585 0.5924482,0 1.0514328,0.2864585 0.4622398,0.2832032 0.7128909,0.8170577 0.2539064,0.5305992 0.2539064,1.2272141 z M 3.3268245,-2.4772147 q 0,-0.7454431 -0.2669272,-1.1328131 -0.2669272,-0.3873699 -0.7617191,-0.3873699 -0.4915367,0 -0.7584639,0.3841147 -0.2669272,0.3808596 -0.2701824,1.1197922 v 0.2311199 q 0,0.7259118 0.2669272,1.1263026 0.2669272,0.40039087 0.7682295,0.40039087 0.4915367,0 0.7552087,-0.38411477 0.263672,-0.38737 0.2669272,-1.1263026 z"/>
      <path id="path33509" style="font-weight:bold;font-size:6.66667px;font-family:Roboto, sans-serif;letter-spacing:2px;fill:#333333" d="m 10.619796,-4.7395856 v 3.1217463 q 0,0.77799515 -0.488282,1.23046932 -0.4850258,0.45247418 -1.3281252,0.45247418 -0.8300785,0 -1.31836,-0.43945334 Q 6.9967474,-0.81380247 6.9869817,-1.582032 v -3.1575536 h 0.976563 v 3.1282567 q 0,0.465495 0.2213543,0.68033887 0.2246095,0.21158865 0.6184898,0.21158865 0.8235681,0 0.836589,-0.86588582 v -3.1542984 z"/>
      <path id="path33511" style="font-weight:bold;font-size:6.66667px;font-family:Roboto, sans-serif;letter-spacing:2px;fill:#333333" d="M 16.988288,-3.9485696 H 15.536464 V 0 h -0.976563 v -3.9485696 h -1.432292 v -0.791016 h 3.860679 z"/>
    </g>
  </g>
</svg>
