<?xml version="1.0" encoding="UTF-8" standalone="no"?>
<svg
   xmlns:dc="http://purl.org/dc/elements/1.1/"
   xmlns:cc="http://creativecommons.org/ns#"
   xmlns:rdf="http://www.w3.org/1999/02/22-rdf-syntax-ns#"
   xmlns:svg="http://www.w3.org/2000/svg"
   xmlns="http://www.w3.org/2000/svg"
   xmlns:sodipodi="http://sodipodi.sourceforge.net/DTD/sodipodi-0.dtd"
   xmlns:inkscape="http://www.inkscape.org/namespaces/inkscape"
   version="1.1"
   width="45"
   height="380"
   viewBox="0 0 45 380"
   id="svg57"
   sodipodi:docname="svg_render_tmp.svg"
   inkscape:version="0.92.2 5c3e80d, 2017-08-06">
  <metadata
     id="metadata61">
    <rdf:RDF>
      <cc:Work
         rdf:about="">
        <dc:format>image/svg+xml</dc:format>
        <dc:type
           rdf:resource="http://purl.org/dc/dcmitype/StillImage" />
      </cc:Work>
    </rdf:RDF>
  </metadata>
  <sodipodi:namedview
     pagecolor="#ffffff"
     bordercolor="#666666"
     borderopacity="1"
     objecttolerance="10"
     gridtolerance="10"
     guidetolerance="10"
     inkscape:pageopacity="0"
     inkscape:pageshadow="2"
     inkscape:window-width="468"
     inkscape:window-height="449"
     id="namedview59"
     showgrid="false"
     inkscape:zoom="0.62105263"
     inkscape:cx="22.5"
     inkscape:cy="190"
     inkscape:window-x="0"
     inkscape:window-y="0"
     inkscape:window-maximized="0"
     inkscape:current-layer="svg57" />
  <style
     id="style2">
    text {
      fill: #333;
      font-family: 'Roboto', sans-serif;
      font-weight: bold;
    }
    text.title {
      font-family: 'Comfortaa', sans-serif;
      font-weight: normal;
    }
    text.brand {
      font-family: 'Audiowide', sans-serif;
      font-weight: bold;
    }
  </style>
  <defs
     id="defs11">
    <symbol
       id="output"
       viewBox="0 0 24px 24px">
      <g
         transform="translate(12 12)"
         id="g8">
        <circle
           cx="0"
           cy="0"
           r="5"
           stroke-width="1"
           stroke="#f00"
           fill="#f00"
           id="circle4" />
        <circle
           cx="0"
           cy="0"
           r="10.5"
           stroke-width="3"
           stroke="#f00"
           fill="none"
           id="circle6" />
      </g>
    </symbol>
  </defs>
  <path
     style="fill:#dddddd"
     d="M 0,0 H 45 V 380 H 0 Z"
     id="rect13" />
  <path
     style="fill:none;stroke:#e4e4e4;stroke-width:0.5"
     d="M 1,1 H 44 V 379 H 1 V 1"
     id="polyline15" />
  <path
     style="fill:none;stroke:#ebebeb;stroke-width:0.80000001"
     d="m 0.5,0.5 h 44 v 379 H 0.5 V 0.5"
     id="polyline17" />
  <path
     style="fill:none;stroke:#f2f2f2;stroke-width:1"
     d="M 0,0 H 45 V 380 H 0 V 0"
     id="polyline19" />
  <g
     aria-label="NOISE"
     transform="rotate(-90)"
     style="font-weight:normal;font-size:9.33333302px;font-family:Comfortaa, sans-serif;letter-spacing:2.5px;fill:#333333"
     id="text21">
    <path
       d="m -374.70267,13 q -0.15866,0 -0.26133,-0.102667 -0.10267,-0.102666 -0.10267,-0.261333 V 6.0746669 q 0,-0.1586667 0.10267,-0.2613333 0.10267,-0.1026667 0.26133,-0.1026667 0.168,0 0.28,0.1306667 l 4.46134,5.8613334 V 6.0746669 q 0,-0.1586667 0.10266,-0.2613333 0.112,-0.1026667 0.26134,-0.1026667 0.15866,0 0.26133,0.1026667 0.10267,0.1026666 0.10267,0.2613333 V 12.636 q 0,0.149333 -0.10267,0.261333 Q -369.43867,13 -369.59733,13 -369.784,13 -369.868,12.878667 l -4.47067,-5.8613335 V 12.636 q 0,0.149333 -0.10266,0.261333 Q -374.544,13 -374.70267,13 Z"
       style="font-weight:normal;font-size:9.33333302px;font-family:Comfortaa, sans-serif;letter-spacing:2.5px;fill:#333333"
       id="path82" />
    <path
       d="m -361.50463,13.093333 q -1.064,0 -1.91333,-0.485333 -0.84933,-0.485333 -1.33467,-1.334667 -0.476,-0.858666 -0.476,-1.9226662 0,-1.064 0.476,-1.9133333 0.48534,-0.8493333 1.33467,-1.3346666 0.84933,-0.4853333 1.91333,-0.4853333 1.05467,0 1.904,0.4853333 0.85867,0.4853333 1.33467,1.3346666 0.48533,0.8493333 0.48533,1.9133333 0,1.0640002 -0.48533,1.9226662 -0.476,0.849334 -1.33467,1.334667 -0.84933,0.485333 -1.904,0.485333 z m 0,-0.690666 q 0.84934,0 1.53067,-0.401334 0.69067,-0.401333 1.08267,-1.092 0.392,-0.7 0.392,-1.5586662 0,-0.8493333 -0.392,-1.54 -0.392,-0.6999999 -1.08267,-1.1013333 -0.68133,-0.4013333 -1.53067,-0.4013333 -0.85866,0 -1.54933,0.4013333 -0.68133,0.4013334 -1.07333,1.1013333 -0.392,0.6906667 -0.392,1.54 0,0.8586662 0.392,1.5586662 0.392,0.690667 1.07333,1.092 0.69067,0.401334 1.54933,0.401334 z"
       style="font-weight:normal;font-size:9.33333302px;font-family:Comfortaa, sans-serif;letter-spacing:2.5px;fill:#333333"
       id="path84" />
    <path
       d="m -353.40579,13 q -0.14934,0 -0.26134,-0.102667 -0.10266,-0.112 -0.10266,-0.261333 V 6.0746669 q 0,-0.1586667 0.10266,-0.2613333 0.112,-0.1026667 0.26134,-0.1026667 0.15866,0 0.26133,0.1026667 0.10267,0.1026666 0.10267,0.2613333 V 12.636 q 0,0.149333 -0.10267,0.261333 Q -353.24713,13 -353.40579,13 Z"
       style="font-weight:normal;font-size:9.33333302px;font-family:Comfortaa, sans-serif;letter-spacing:2.5px;fill:#333333"
       id="path86" />
    <path
       d="m -346.44125,13.093333 q -0.88667,0 -1.57733,-0.373333 -0.68134,-0.382667 -0.98,-1.026667 -0.0373,-0.06533 -0.0373,-0.149333 0,-0.130667 0.0933,-0.214667 0.10266,-0.09333 0.27066,-0.09333 0.112,0 0.20534,0.06533 0.10266,0.056 0.14933,0.168 0.21467,0.42 0.70933,0.681334 0.504,0.252 1.16667,0.252 0.76533,0 1.232,-0.364 0.46667,-0.373334 0.46667,-1.036 0,-0.588 -0.43867,-0.989334 -0.42933,-0.4013329 -1.29733,-0.5133329 -1.08267,-0.1306666 -1.708,-0.672 -0.616,-0.5506666 -0.616,-1.3439999 0,-0.56 0.29866,-0.98 0.308,-0.4293333 0.84,-0.6533333 0.54134,-0.2333333 1.22267,-0.2333333 0.73733,0 1.29733,0.3266666 0.56,0.3266667 0.87734,0.8493333 0.0653,0.1026667 0.0653,0.224 0,0.1773334 -0.168,0.28 -0.0747,0.037333 -0.168,0.037333 -0.10267,0 -0.196,-0.046667 -0.084,-0.056 -0.14,-0.1493333 -0.52267,-0.8213333 -1.57733,-0.8306667 -0.756,0 -1.19467,0.3173334 -0.43867,0.3173333 -0.43867,0.9053333 0,1.0919999 1.764,1.3253332 1.15734,0.168 1.72667,0.7093334 0.56933,0.5413335 0.56933,1.4279995 0,0.653334 -0.31733,1.129334 -0.31733,0.476 -0.868,0.728 -0.55067,0.242666 -1.232,0.242666 z"
       style="font-weight:normal;font-size:9.33333302px;font-family:Comfortaa, sans-serif;letter-spacing:2.5px;fill:#333333"
       id="path88" />
    <path
       d="m -339.63757,13 q -0.14933,0 -0.26133,-0.102667 -0.10267,-0.112 -0.10267,-0.261333 V 6.0746669 q 0,-0.1586667 0.10267,-0.2613333 0.112,-0.1026667 0.26133,-0.1026667 h 4.37734 q 0.15866,0 0.26133,0.1026667 0.10267,0.1026666 0.10267,0.252 0,0.1493333 -0.10267,0.252 -0.10267,0.093333 -0.26133,0.093333 h -4.01334 v 2.5759999 h 2.92134 q 0.15866,0 0.26133,0.1026667 0.10267,0.1026666 0.10267,0.252 0,0.1493333 -0.112,0.2519999 -0.10267,0.1026667 -0.252,0.1026667 h -2.92134 V 12.3 h 4.01334 q 0.15866,0 0.26133,0.102667 0.10267,0.09333 0.10267,0.242666 0,0.149334 -0.10267,0.252 Q -335.10157,13 -335.26023,13 Z"
       style="font-weight:normal;font-size:9.33333302px;font-family:Comfortaa, sans-serif;letter-spacing:2.5px;fill:#333333"
       id="path90" />
  </g>
  <g
     id="g27"
     transform="rotate(-90,200.5,175.5)">
    <g
       aria-label="BGA"
       style="font-weight:bold;font-size:9.33333302px;font-family:Audiowide, sans-serif;letter-spacing:2px;fill:#333333"
       id="text23">
      <path
         d="m 7.2096352,-1.4355468 q 0,0.21875 -0.077474,0.469401 -0.072917,0.25065103 -0.2460937,0.46484373 -0.1686198,0.2141927 -0.4420573,0.36002603 Q 6.1705727,0 5.7740883,0 H 1.2760416 Q 1.1484375,0 1.0390625,-0.04557292 0.92968747,-0.09114583 0.84765622,-0.16861979 q -0.077474,-0.0820312 -0.12304687,-0.19140624 -0.0455729,-0.109375 -0.0455729,-0.23697916 V -5.9381508 q 0,-0.1230469 0.0455729,-0.2324219 0.0455729,-0.109375 0.12304687,-0.1914062 0.0820313,-0.082031 0.19140628,-0.1276042 0.109375,-0.045573 0.2369791,-0.045573 h 3.9648436 q 0.21875,0 0.4694011,0.077474 0.250651,0.077474 0.4648437,0.2506511 0.21875,0.1686197 0.360026,0.4420572 0.1458334,0.2734375 0.1458334,0.6699219 v 0.2233073 q 0,0.3144531 -0.1048177,0.6790364 -0.1048178,0.360026 -0.3372396,0.6835937 0.2005208,0.1230469 0.3736979,0.296224 0.1777344,0.1731771 0.3098958,0.4010416 0.1321615,0.2278646 0.2096354,0.514974 0.077474,0.2871093 0.077474,0.6334635 z M 6.0247394,-1.6634114 q 0,-0.2324219 -0.072917,-0.4147135 Q 5.878906,-2.2649739 5.7467446,-2.3971353 5.6145831,-2.5292968 5.4277342,-2.5976562 5.2408852,-2.6705728 5.0084634,-2.6705728 H 2.3378905 v -1.1940104 h 2.1373698 q 0.2324218,0 0.4192708,-0.068359 0.1868489,-0.072917 0.3190104,-0.2050781 0.1321614,-0.1321614 0.2005208,-0.3144531 0.072917,-0.186849 0.072917,-0.4192708 v -0.2233073 q 0,-0.2552083 -0.2460938,-0.2552083 h -3.376953 v 4.1653644 h 3.9101561 q 0.031901,0 0.077474,-0.00456 0.045573,-0.00456 0.082031,-0.027344 0.036458,-0.022787 0.063802,-0.077474 0.027344,-0.054687 0.027344,-0.1503906 z"
         style="font-weight:bold;font-size:9.33333302px;font-family:Audiowide, sans-serif;letter-spacing:2px;fill:#333333"
         id="path93" />
      <path
         d="m 16.683594,-0.59700519 q 0,0.12760416 -0.04557,0.23697916 -0.04557,0.109375 -0.127605,0.19140624 -0.07747,0.07747396 -0.186849,0.12304687 Q 16.214192,0 16.086588,0 h -4.274739 q -0.164063,0 -0.355469,-0.03645833 -0.186849,-0.04101563 -0.373698,-0.12304687 -0.182291,-0.0820313 -0.350911,-0.20963541 -0.16862,-0.13216146 -0.300781,-0.31445312 -0.127605,-0.18684895 -0.205079,-0.42838537 -0.07747,-0.2460938 -0.07747,-0.5514323 v -3.2083332 q 0,-0.1640625 0.03646,-0.3509115 0.04101,-0.1914062 0.123047,-0.3736979 0.08203,-0.1868489 0.214192,-0.3554687 0.132162,-0.1686198 0.314453,-0.296224 0.186849,-0.1321614 0.428386,-0.2096354 0.241536,-0.077474 0.546875,-0.077474 h 4.817057 v 1.1848958 h -4.817057 q -0.232422,0 -0.355469,0.1230468 -0.123047,0.1230469 -0.123047,0.3645834 v 3.1992186 q 0,0.2278646 0.123047,0.3554687 0.127604,0.1230469 0.355469,0.1230469 h 3.686849 v -1.485677 h -3.153646 v -1.1940104 h 3.741536 q 0.127604,0 0.236979,0.05013 0.109375,0.045573 0.186849,0.1276042 0.08203,0.082031 0.127605,0.1914062 0.04557,0.1048177 0.04557,0.2278646 z"
         style="font-weight:bold;font-size:9.33333302px;font-family:Audiowide, sans-serif;letter-spacing:2px;fill:#333333"
         id="path95" />
      <path
         d="M 26.339842,0 H 25.154946 V -1.6041666 H 20.989582 V 0 h -1.184896 v -3.267578 q 0,-0.7154948 0.246094,-1.3170573 0.246094,-0.6015624 0.683594,-1.0345051 0.4375,-0.4329427 1.034505,-0.6744792 0.597005,-0.2415364 1.303385,-0.2415364 h 2.670573 q 0.123047,0 0.232422,0.045573 0.109375,0.045573 0.191406,0.1276042 0.08203,0.082031 0.127604,0.1914062 0.04557,0.109375 0.04557,0.2324219 z m -5.35026,-2.7890624 h 4.165364 v -2.5611978 h -2.082682 q -0.05469,0 -0.232422,0.018229 -0.173177,0.013672 -0.405599,0.077474 -0.227864,0.063802 -0.483072,0.1959635 -0.255209,0.1321615 -0.469402,0.3645833 -0.214192,0.2324219 -0.355468,0.5833334 -0.136719,0.3463541 -0.136719,0.8430989 z"
         style="font-weight:bold;font-size:9.33333302px;font-family:Audiowide, sans-serif;letter-spacing:2px;fill:#333333"
         id="path97" />
    </g>
    <path
       transform="translate(11.5,-5)"
       style="fill:#dddddd"
       d="M 0,0 H 3 V 3 H 0 Z"
       id="rect25" />
  </g>
  <g
     aria-label="0 / +10"
     style="font-weight:bold;font-size:8px;font-family:Roboto, sans-serif;fill:#333333"
     id="text31">
    <path
       d="m 14.214844,22.648437 q 0,1.179688 -0.488281,1.804688 -0.488282,0.625 -1.429688,0.625 -0.929687,0 -1.421875,-0.613281 -0.492187,-0.613282 -0.503906,-1.757813 v -1.046875 q 0,-1.191406 0.492187,-1.808594 0.496094,-0.617187 1.425782,-0.617187 0.929687,0 1.421875,0.613281 0.492187,0.609375 0.503906,1.753906 z M 13.085938,21.5 q 0,-0.707031 -0.195313,-1.027344 -0.191406,-0.324219 -0.601562,-0.324219 -0.398438,0 -0.589844,0.308594 -0.1875,0.304688 -0.199219,0.957031 v 1.382813 q 0,0.695312 0.1875,1.035156 0.191406,0.335938 0.609375,0.335938 0.414063,0 0.597656,-0.324219 0.183594,-0.324219 0.191407,-0.992188 z"
       style="font-weight:bold;font-size:8px;font-family:Roboto, sans-serif;fill:#333333"
       id="path101" />
    <path
       d="m 17.382812,25.488281 h -0.839843 l 2.09375,-6.175781 h 0.839843 z"
       style="font-weight:bold;font-size:8px;font-family:Roboto, sans-serif;fill:#333333"
       id="path103" />
    <path
       d="m 24.289062,21.816406 h 1.410157 v 1.019531 h -1.410157 v 1.59375 h -1.074218 v -1.59375 h -1.414063 v -1.019531 h 1.414063 v -1.527344 h 1.074218 z"
       style="font-weight:bold;font-size:8px;font-family:Roboto, sans-serif;fill:#333333"
       id="path105" />
    <path
       d="m 29.082031,25 h -1.128906 v -4.351563 l -1.347656,0.417969 v -0.917969 l 2.355468,-0.84375 h 0.121094 z"
       style="font-weight:bold;font-size:8px;font-family:Roboto, sans-serif;fill:#333333"
       id="path107" />
    <path
       d="m 34.761719,22.648437 q 0,1.179688 -0.488282,1.804688 -0.488281,0.625 -1.429687,0.625 -0.929688,0 -1.421875,-0.613281 -0.492188,-0.613282 -0.503906,-1.757813 v -1.046875 q 0,-1.191406 0.492187,-1.808594 0.496094,-0.617187 1.425781,-0.617187 0.929688,0 1.421875,0.613281 0.492188,0.609375 0.503907,1.753906 z M 33.632812,21.5 q 0,-0.707031 -0.195312,-1.027344 -0.191406,-0.324219 -0.601563,-0.324219 -0.398437,0 -0.589843,0.308594 -0.1875,0.304688 -0.199219,0.957031 v 1.382813 q 0,0.695312 0.1875,1.035156 0.191406,0.335938 0.609375,0.335938 0.414062,0 0.597656,-0.324219 0.183594,-0.324219 0.191406,-0.992188 z"
       style="font-weight:bold;font-size:8px;font-family:Roboto, sans-serif;fill:#333333"
       id="path109" />
  </g>
  <g
     id="g41"
     transform="translate(0,30)">
    <g
       id="g39"
       transform="translate(7.5)">
      <path
         style="fill:#bbbbbb"
         d="m 5,0 h 20 c 2.77,0 5,2.23 5,5 v 74 c 0,2.77 -2.23,5 -5,5 H 5 C 2.23,84 0,81.77 0,79 V 5 C 0,2.23 2.23,0 5,0 Z"
         id="rect33" />
      <g
         aria-label="WHITE"
         transform="translate(1,37)"
         style="font-weight:bold;font-size:6.66666651px;font-family:Roboto, sans-serif;letter-spacing:2px;fill:#333333"
         id="text35">
        <path
           d="M 4.1145832,-1.3671875 4.7526041,-4.7395832 H 5.7259113 L 4.6744791,0 H 3.6914062 L 2.9199218,-3.1705728 2.1484374,0 H 1.1653646 L 0.11393229,-4.7395832 H 1.0872396 l 0.641276,3.3658853 0.78125,-3.3658853 h 0.8268229 z"
           style="font-weight:bold;font-size:6.66666651px;font-family:Roboto, sans-serif;letter-spacing:2px;fill:#333333"
           id="path113" />
        <path
           d="M 12.113932,0 H 11.137369 V -2.03125 H 9.2330726 V 0 H 8.2565101 v -4.7395832 h 0.9765625 v 1.9205729 h 1.9042964 v -1.9205729 h 0.976563 z"
           style="font-weight:bold;font-size:6.66666651px;font-family:Roboto, sans-serif;letter-spacing:2px;fill:#333333"
           id="path115" />
        <path
           d="m 16.008464,0 h -0.976563 v -4.7395832 h 0.976563 z"
           style="font-weight:bold;font-size:6.66666651px;font-family:Roboto, sans-serif;letter-spacing:2px;fill:#333333"
           id="path117" />
        <path
           d="M 22.386717,-3.9485676 H 20.934895 V 0 H 19.958332 V -3.9485676 H 18.52604 v -0.7910156 h 3.860677 z"
           style="font-weight:bold;font-size:6.66666651px;font-family:Roboto, sans-serif;letter-spacing:2px;fill:#333333"
           id="path119" />
        <path
           d="m 27.798177,-2.0540364 h -1.875 v 1.26953121 h 2.200521 V 0 h -3.177083 v -4.7395832 h 3.170572 v 0.7910156 h -2.19401 v 1.1295573 h 1.875 z"
           style="font-weight:bold;font-size:6.66666651px;font-family:Roboto, sans-serif;letter-spacing:2px;fill:#333333"
           id="path121" />
      </g>
      <g
         aria-label="PINK"
         transform="translate(4.5,78)"
         style="font-weight:bold;font-size:6.66666651px;font-family:Roboto, sans-serif;letter-spacing:2px;fill:#333333"
         id="text37">
        <path
           d="M 1.3997395,-1.6699218 V 0 H 0.42317707 V -4.7395832 H 2.2721354 q 0.5338541,0 0.9374999,0.1953125 0.4069011,0.1953125 0.625,0.5566406 0.218099,0.3580729 0.218099,0.8170573 0,0.6966145 -0.4785156,1.1002603 -0.4752604,0.4003907 -1.3183594,0.4003907 z m 0,-0.7910156 h 0.8723959 q 0.3873697,0 0.5891927,-0.1822917 0.2050781,-0.1822917 0.2050781,-0.5208333 0,-0.3483073 -0.2050781,-0.5631511 Q 2.6562499,-3.9420572 2.2949218,-3.9485676 H 1.3997395 Z"
           style="font-weight:bold;font-size:6.66666651px;font-family:Roboto, sans-serif;letter-spacing:2px;fill:#333333"
           id="path124" />
        <path
           d="M 7.7584635,0 H 6.781901 v -4.7395832 h 0.9765625 z"
           style="font-weight:bold;font-size:6.66666651px;font-family:Roboto, sans-serif;letter-spacing:2px;fill:#333333"
           id="path126" />
        <path
           d="M 14.514323,0 H 13.537761 L 11.636719,-3.1184895 V 0 h -0.976562 v -4.7395832 h 0.976562 l 1.904297,3.1249999 v -3.1249999 h 0.973307 z"
           style="font-weight:bold;font-size:6.66666651px;font-family:Roboto, sans-serif;letter-spacing:2px;fill:#333333"
           id="path128" />
        <path
           d="m 18.858074,-1.9010416 -0.507813,0.546875 V 0 h -0.976562 v -4.7395832 h 0.976562 v 2.1484374 l 0.429688,-0.5891927 1.207682,-1.5592447 h 1.201172 L 19.50586,-2.6334635 21.237631,0 h -1.16211 z"
           style="font-weight:bold;font-size:6.66666651px;font-family:Roboto, sans-serif;letter-spacing:2px;fill:#333333"
           id="path130" />
      </g>
    </g>
  </g>
  <g
     aria-label="- / +"
     style="font-weight:bold;font-size:8px;font-family:Roboto, sans-serif;fill:#333333"
     id="text45">
    <path
       d="m 16.628906,133.01953 h -2.199218 v -0.91016 h 2.199218 z"
       style="font-weight:bold;font-size:8px;font-family:Roboto, sans-serif;fill:#333333"
       id="path133" />
    <path
       d="m 19.898437,135.48828 h -0.839843 l 2.09375,-6.17578 h 0.839843 z"
       style="font-weight:bold;font-size:8px;font-family:Roboto, sans-serif;fill:#333333"
       id="path135" />
    <path
       d="m 26.804687,131.81641 h 1.410157 v 1.01953 h -1.410157 v 1.59375 h -1.074218 v -1.59375 h -1.414063 v -1.01953 h 1.414063 v -1.52735 h 1.074218 z"
       style="font-weight:bold;font-size:8px;font-family:Roboto, sans-serif;fill:#333333"
       id="path137" />
  </g>
  <g
     id="g53"
     transform="translate(0,140)">
    <g
       id="g51"
       transform="translate(7.5)">
      <path
         style="fill:#bbbbbb"
         d="m 5,0 h 20 c 2.77,0 5,2.23 5,5 v 32 c 0,2.77 -2.23,5 -5,5 H 5 C 2.23,42 0,39.77 0,37 V 5 C 0,2.23 2.23,0 5,0 Z"
         id="rect47" />
      <g
         aria-label="GAUSS"
         transform="translate(0,37)"
         style="font-weight:bold;font-size:6.66666651px;font-family:Roboto, sans-serif;letter-spacing:2px;fill:#333333"
         id="text49">
        <path
           d="m 4.173177,-0.59895832 q -0.2636719,0.3157552 -0.7454427,0.49153645 -0.4817708,0.17252604 -1.0677083,0.17252604 -0.6152344,0 -1.0807292,-0.26692708 Q 0.81705727,-0.4720052 0.56315103,-0.98307289 0.31249999,-1.4941406 0.30598958,-2.1842447 v -0.3222657 q 0,-0.7096354 0.2376302,-1.2272135 0.24088541,-0.5208333 0.69010412,-0.7942708 0.452474,-0.2766927 1.0579427,-0.2766927 0.843099,0 1.3183594,0.4036458 0.4752604,0.4003907 0.563151,1.1686198 H 3.2226562 Q 3.157552,-3.6393228 2.9329426,-3.8281249 2.7115885,-4.016927 2.3209635,-4.016927 q -0.4980469,0 -0.7584635,0.374349 -0.2604167,0.3743489 -0.2636719,1.1132812 v 0.3027344 q 0,0.7454426 0.2832031,1.126302 0.2832031,0.38085938 0.8300781,0.38085938 0.5501302,0 0.7845052,-0.234375 V -1.7708333 H 2.3079427 v -0.719401 H 4.173177 Z"
           style="font-weight:bold;font-size:6.66666651px;font-family:Roboto, sans-serif;letter-spacing:2px;fill:#333333"
           id="path141" />
        <path
           d="M 9.6432288,-0.97656248 H 7.9309892 L 7.6054684,0 H 6.567057 L 8.3313798,-4.7395832 H 9.2363277 L 11.010416,0 H 9.9720048 Z M 8.1946611,-1.7675781 H 9.3795569 L 8.7838538,-3.5416666 Z"
           style="font-weight:bold;font-size:6.66666651px;font-family:Roboto, sans-serif;letter-spacing:2px;fill:#333333"
           id="path143" />
        <path
           d="m 16.994792,-4.7395832 v 3.1217447 q 0,0.77799477 -0.488282,1.23046872 -0.485026,0.45247395 -1.328125,0.45247395 -0.830078,0 -1.318359,-0.43945312 -0.488281,-0.43945311 -0.498047,-1.20768225 v -3.157552 h 0.976563 v 3.1282551 q 0,0.4654948 0.221354,0.68033854 0.224609,0.21158854 0.618489,0.21158854 0.823568,0 0.836589,-0.86588538 v -3.1542968 z"
           style="font-weight:bold;font-size:6.66666651px;font-family:Roboto, sans-serif;letter-spacing:2px;fill:#333333"
           id="path145" />
        <path
           d="m 22.253254,-1.2434896 q 0,-0.2766927 -0.195313,-0.423177 -0.195312,-0.1497396 -0.703125,-0.3125 -0.507812,-0.1660156 -0.804036,-0.3255208 -0.807292,-0.436198 -0.807292,-1.1751302 0,-0.3841146 0.214844,-0.6835938 0.218099,-0.3027343 0.621745,-0.4720052 0.406901,-0.1692708 0.911458,-0.1692708 0.507813,0 0.904948,0.1855469 0.397135,0.1822916 0.615234,0.5175781 0.221355,0.3352864 0.221355,0.7617187 h -0.976563 q 0,-0.3255208 -0.205078,-0.5045573 -0.205078,-0.1822916 -0.576172,-0.1822916 -0.358073,0 -0.556641,0.1529948 -0.198567,0.1497396 -0.198567,0.3971354 0,0.2311198 0.23112,0.3873698 0.234375,0.15625 0.686849,0.2929687 0.833333,0.250651 1.214192,0.6217448 0.38086,0.3710937 0.38086,0.9244791 0,0.61523439 -0.465495,0.96679688 -0.465495,0.34830729 -1.253255,0.34830729 -0.546875,0 -0.996094,-0.19856771 Q 20.069009,-0.33528645 19.831379,-0.68359373 19.597004,-1.031901 19.597004,-1.4908854 h 0.979818 q 0,0.78450521 0.9375,0.78450521 0.348307,0 0.543619,-0.13997396 0.195313,-0.14322916 0.195313,-0.39713545 z"
           style="font-weight:bold;font-size:6.66666651px;font-family:Roboto, sans-serif;letter-spacing:2px;fill:#333333"
           id="path147" />
        <path
           d="m 28.354816,-1.2434896 q 0,-0.2766927 -0.195312,-0.423177 -0.195313,-0.1497396 -0.703125,-0.3125 -0.507813,-0.1660156 -0.804037,-0.3255208 -0.807291,-0.436198 -0.807291,-1.1751302 0,-0.3841146 0.214844,-0.6835938 0.218099,-0.3027343 0.621744,-0.4720052 0.406901,-0.1692708 0.911459,-0.1692708 0.507812,0 0.904948,0.1855469 0.397135,0.1822916 0.615234,0.5175781 0.221354,0.3352864 0.221354,0.7617187 h -0.976562 q 0,-0.3255208 -0.205079,-0.5045573 -0.205078,-0.1822916 -0.576171,-0.1822916 -0.358073,0 -0.556641,0.1529948 -0.198568,0.1497396 -0.198568,0.3971354 0,0.2311198 0.23112,0.3873698 0.234375,0.15625 0.686849,0.2929687 0.833333,0.250651 1.214193,0.6217448 0.380859,0.3710937 0.380859,0.9244791 0,0.61523439 -0.465495,0.96679688 -0.465495,0.34830729 -1.253255,0.34830729 -0.546875,0 -0.996094,-0.19856771 Q 26.170572,-0.33528645 25.932941,-0.68359373 25.698566,-1.031901 25.698566,-1.4908854 h 0.979818 q 0,0.78450521 0.9375,0.78450521 0.348307,0 0.54362,-0.13997396 0.195312,-0.14322916 0.195312,-0.39713545 z"
           style="font-weight:bold;font-size:6.66666651px;font-family:Roboto, sans-serif;letter-spacing:2px;fill:#333333"
           id="path149" />
      </g>
    </g>
  </g>
</svg>
