<?xml version="1.0" encoding="UTF-8" standalone="no"?>
<svg xmlns:dc="http://purl.org/dc/elements/1.1/" xmlns:cc="http://creativecommons.org/ns#" xmlns:rdf="http://www.w3.org/1999/02/22-rdf-syntax-ns#" xmlns:svg="http://www.w3.org/2000/svg" xmlns="http://www.w3.org/2000/svg" xmlns:sodipodi="http://sodipodi.sourceforge.net/DTD/sodipodi-0.dtd" xmlns:inkscape="http://www.inkscape.org/namespaces/inkscape" inkscape:version="1.0 (4035a4f, 2020-05-01)" sodipodi:docname="svg_render_Offset-pp.svg" id="svg34319" viewBox="0 0 45 380" height="380" width="45" version="1.1">
  <metadata id="metadata34323">
    <rdf:RDF>
      <cc:Work rdf:about="">
        <dc:format>image/svg+xml</dc:format>
        <dc:type rdf:resource="http://purl.org/dc/dcmitype/StillImage"/>
      </cc:Work>
    </rdf:RDF>
  </metadata>
  <sodipodi:namedview inkscape:current-layer="svg34319" inkscape:window-maximized="0" inkscape:window-y="23" inkscape:window-x="0" inkscape:cy="190" inkscape:cx="22.5" inkscape:zoom="1.7605263" showgrid="false" id="namedview34321" inkscape:window-height="480" inkscape:window-width="689" inkscape:pageshadow="2" inkscape:pageopacity="0" guidetolerance="10" gridtolerance="10" objecttolerance="10" borderopacity="1" bordercolor="#666666" pagecolor="#ffffff"/>
  
  <defs id="defs34239">
    <symbol viewBox="0 0 45px 45px" id="dial-offset-offset">
      <g id="g34127" transform="translate(22.5 22.5)">
        <g id="g34031" transform="rotate(-240) translate(17 0)">
          <polyline id="polyline34029" stroke="#333" stroke-width="1.5" points="0,0 4,0"/>
        </g>
        <g id="g34035" transform="rotate(-225) translate(17 0)">
          <polyline id="polyline34033" stroke="#333" stroke-width="0.3" points="0,0 3,0"/>
        </g>
        <g id="g34039" transform="rotate(-210) translate(17 0)">
          <polyline id="polyline34037" stroke="#333" stroke-width="0.3" points="0,0 3,0"/>
        </g>
        <g id="g34043" transform="rotate(-195) translate(17 0)">
          <polyline id="polyline34041" stroke="#333" stroke-width="0.3" points="0,0 3,0"/>
        </g>
        <g id="g34047" transform="rotate(-180) translate(17 0)">
          <polyline id="polyline34045" stroke="#333" stroke-width="0.3" points="0,0 3,0"/>
        </g>
        <g id="g34051" transform="rotate(-165) translate(17 0)">
          <polyline id="polyline34049" stroke="#333" stroke-width="1.5" points="0,0 4,0"/>
        </g>
        <g id="g34055" transform="rotate(-150) translate(17 0)">
          <polyline id="polyline34053" stroke="#333" stroke-width="0.3" points="0,0 3,0"/>
        </g>
        <g id="g34059" transform="rotate(-135) translate(17 0)">
          <polyline id="polyline34057" stroke="#333" stroke-width="0.3" points="0,0 3,0"/>
        </g>
        <g id="g34063" transform="rotate(-120) translate(17 0)">
          <polyline id="polyline34061" stroke="#333" stroke-width="0.3" points="0,0 3,0"/>
        </g>
        <g id="g34067" transform="rotate(-105) translate(17 0)">
          <polyline id="polyline34065" stroke="#333" stroke-width="0.3" points="0,0 3,0"/>
        </g>
        <g id="g34073" transform="rotate(-90) translate(17 0)">
          <g id="g34071" transform="translate(2.4 0) rotate(90)">
            <text id="text34069" transform="translate(-2.3 3.3)" font-size="6.5pt">0</text>
          </g>
        </g>
        <g id="g34077" transform="rotate(-75) translate(17 0)">
          <polyline id="polyline34075" stroke="#333" stroke-width="0.3" points="0,0 3,0"/>
        </g>
        <g id="g34081" transform="rotate(-60) translate(17 0)">
          <polyline id="polyline34079" stroke="#333" stroke-width="0.3" points="0,0 3,0"/>
        </g>
        <g id="g34085" transform="rotate(-45) translate(17 0)">
          <polyline id="polyline34083" stroke="#333" stroke-width="0.3" points="0,0 3,0"/>
        </g>
        <g id="g34089" transform="rotate(-30) translate(17 0)">
          <polyline id="polyline34087" stroke="#333" stroke-width="0.3" points="0,0 3,0"/>
        </g>
        <g id="g34093" transform="rotate(-15) translate(17 0)">
          <polyline id="polyline34091" stroke="#333" stroke-width="1.5" points="0,0 4,0"/>
        </g>
        <g id="g34097" transform="rotate(0) translate(17 0)">
          <polyline id="polyline34095" stroke="#333" stroke-width="0.3" points="0,0 3,0"/>
        </g>
        <g id="g34101" transform="rotate(15) translate(17 0)">
          <polyline id="polyline34099" stroke="#333" stroke-width="0.3" points="0,0 3,0"/>
        </g>
        <g id="g34105" transform="rotate(30) translate(17 0)">
          <polyline id="polyline34103" stroke="#333" stroke-width="0.3" points="0,0 3,0"/>
        </g>
        <g id="g34109" transform="rotate(45) translate(17 0)">
          <polyline id="polyline34107" stroke="#333" stroke-width="0.3" points="0,0 3,0"/>
        </g>
        <g id="g34113" transform="rotate(60) translate(17 0)">
          <polyline id="polyline34111" stroke="#333" stroke-width="1.5" points="0,0 4,0"/>
        </g>
        <g id="g34119" transform="rotate(-225) translate(22 0)">
          <g id="g34117" transform="translate(2.5 0) rotate(225)">
            <text id="text34115" transform="translate(-2 3.4)" font-size="9pt">-</text>
          </g>
        </g>
        <g id="g34125" transform="rotate(45) translate(22 0)">
          <g id="g34123" transform="translate(2.5 0) rotate(-45)">
            <text id="text34121" transform="translate(-2.9 3)" font-size="7pt">+</text>
          </g>
        </g>
      </g>
    </symbol>
    <symbol viewBox="0 0 45px 45px" id="dial-exp-offset">
      <g id="g34236" transform="translate(22.5 22.5)">
        <g id="g34132" transform="rotate(-240) translate(17 0)">
          <polyline id="polyline34130" stroke="#333" stroke-width="1.5" points="0,0 4,0"/>
        </g>
        <g id="g34136" transform="rotate(-232.3) translate(17 0)">
          <polyline id="polyline34134" stroke="#333" stroke-width="0.3" points="0,0 3,0"/>
        </g>
        <g id="g34140" transform="rotate(-224.2) translate(17 0)">
          <polyline id="polyline34138" stroke="#333" stroke-width="0.3" points="0,0 3,0"/>
        </g>
        <g id="g34144" transform="rotate(-215.5) translate(17 0)">
          <polyline id="polyline34142" stroke="#333" stroke-width="0.3" points="0,0 3,0"/>
        </g>
        <g id="g34148" transform="rotate(-206.2) translate(17 0)">
          <polyline id="polyline34146" stroke="#333" stroke-width="0.3" points="0,0 3,0"/>
        </g>
        <g id="g34152" transform="rotate(-196.1) translate(17 0)">
          <polyline id="polyline34150" stroke="#333" stroke-width="1.5" points="0,0 4,0"/>
        </g>
        <g id="g34156" transform="rotate(-184.9) translate(17 0)">
          <polyline id="polyline34154" stroke="#333" stroke-width="0.3" points="0,0 3,0"/>
        </g>
        <g id="g34160" transform="rotate(-172.2) translate(17 0)">
          <polyline id="polyline34158" stroke="#333" stroke-width="0.3" points="0,0 3,0"/>
        </g>
        <g id="g34164" transform="rotate(-157.1) translate(17 0)">
          <polyline id="polyline34162" stroke="#333" stroke-width="0.3" points="0,0 3,0"/>
        </g>
        <g id="g34168" transform="rotate(-137.4) translate(17 0)">
          <polyline id="polyline34166" stroke="#333" stroke-width="1.5" points="0,0 4,0"/>
        </g>
        <g id="g34172" transform="rotate(-123.5) translate(17 0)">
          <polyline id="polyline34170" stroke="#333" stroke-width="0.3" points="0,0 1,0"/>
        </g>
        <g id="g34178" transform="rotate(-90) translate(17 0)">
          <g id="g34176" transform="translate(2.4 0) rotate(90)">
            <text id="text34174" transform="translate(-2.3 3.3)" font-size="6.5pt">0</text>
          </g>
        </g>
        <g id="g34182" transform="rotate(-56.5) translate(17 0)">
          <polyline id="polyline34180" stroke="#333" stroke-width="0.3" points="0,0 1,0"/>
        </g>
        <g id="g34186" transform="rotate(-42.3) translate(17 0)">
          <polyline id="polyline34184" stroke="#333" stroke-width="1.5" points="0,0 4,0"/>
        </g>
        <g id="g34190" transform="rotate(-22.9) translate(17 0)">
          <polyline id="polyline34188" stroke="#333" stroke-width="0.3" points="0,0 3,0"/>
        </g>
        <g id="g34194" transform="rotate(-7.8) translate(17 0)">
          <polyline id="polyline34192" stroke="#333" stroke-width="0.3" points="0,0 3,0"/>
        </g>
        <g id="g34198" transform="rotate(4.8) translate(17 0)">
          <polyline id="polyline34196" stroke="#333" stroke-width="0.3" points="0,0 3,0"/>
        </g>
        <g id="g34202" transform="rotate(16.1) translate(17 0)">
          <polyline id="polyline34200" stroke="#333" stroke-width="1.5" points="0,0 4,0"/>
        </g>
        <g id="g34206" transform="rotate(26.2) translate(17 0)">
          <polyline id="polyline34204" stroke="#333" stroke-width="0.3" points="0,0 3,0"/>
        </g>
        <g id="g34210" transform="rotate(35.5) translate(17 0)">
          <polyline id="polyline34208" stroke="#333" stroke-width="0.3" points="0,0 3,0"/>
        </g>
        <g id="g34214" transform="rotate(44.2) translate(17 0)">
          <polyline id="polyline34212" stroke="#333" stroke-width="0.3" points="0,0 3,0"/>
        </g>
        <g id="g34218" transform="rotate(52.3) translate(17 0)">
          <polyline id="polyline34216" stroke="#333" stroke-width="0.3" points="0,0 3,0"/>
        </g>
        <g id="g34222" transform="rotate(60) translate(17 0)">
          <polyline id="polyline34220" stroke="#333" stroke-width="1.5" points="0,0 4,0"/>
        </g>
        <g id="g34228" transform="rotate(-225) translate(22 0)">
          <g id="g34226" transform="translate(2.5 0) rotate(225)">
            <text id="text34224" transform="translate(-2 3.4)" font-size="9pt">-</text>
          </g>
        </g>
        <g id="g34234" transform="rotate(45) translate(22 0)">
          <g id="g34232" transform="translate(2.5 0) rotate(-45)">
            <text id="text34230" transform="translate(-2.9 3)" font-size="7pt">+</text>
          </g>
        </g>
      </g>
    </symbol>
  </defs>
  <svg version="1.1" id="svg34243" width="100%" height="100%">
    <path class="module-background background-fill" d="M 0,0 H 45 V 380 H 0 Z" style="fill:#dddddd" id="rect34241"/>
  </svg>
  <svg version="1.1" id="svg34251" width="100%" height="100%">
    <path class="module-border-inner" d="M 1,1 H 44 V 379 H 1 V 1" style="fill:none;stroke:#e4e4e4;stroke-width:0.5" id="polyline34245"/>
    <path class="module-border-middle" d="m 0.5,0.5 h 44 v 379 H 0.5 V 0.5" style="fill:none;stroke:#ebebeb;stroke-width:0.8" id="polyline34247"/>
    <path class="module-border-outer" d="M 0,0 H 45 V 380 H 0 V 0" style="fill:none;stroke:#f2f2f2;stroke-width:1" id="polyline34249"/>
  </svg>
  <g transform="rotate(-90,194.5,181.5)" id="g34261">
    <g class="title" style="font-weight:normal;font-size:9.33333px;font-family:Comfortaa, sans-serif;letter-spacing:2.5px;fill:#333333" id="text34253" aria-label="OFFSET">
      <path id="path34684" style="font-weight:normal;font-size:9.33333px;font-family:Comfortaa, sans-serif;letter-spacing:2.5px;fill:#333333" d="m 4.3026652,0.0933333 q -1.0639996,0 -1.9133327,-0.48533317 -0.849333,-0.48533316 -1.3346662,-1.33466623 -0.47599983,-0.8586664 -0.47599983,-1.922666 0,-1.0639996 0.47599983,-1.9133327 0.4853332,-0.849333 1.3346662,-1.3346662 0.8493331,-0.4853332 1.9133327,-0.4853332 1.0546663,0 1.9039994,0.4853332 0.8586663,0.4853332 1.3346662,1.3346662 0.4853331,0.8493331 0.4853331,1.9133327 0,1.0639996 -0.4853331,1.922666 Q 7.0653309,-0.87733303 6.2066646,-0.39199987 5.3573315,0.0933333 4.3026652,0.0933333 Z m 0,-0.69066643 q 0.849333,0 1.5306661,-0.4013332 0.6906665,-0.40133317 1.0826663,-1.09199967 0.3919999,-0.6999997 0.3919999,-1.5586661 0,-0.849333 -0.3919999,-1.5399995 -0.3919998,-0.6999997 -1.0826663,-1.1013329 -0.6813331,-0.4013332 -1.5306661,-0.4013332 -0.8586664,0 -1.5493328,0.4013332 -0.6813331,0.4013332 -1.073333,1.1013329 -0.3919998,0.6906665 -0.3919998,1.5399995 0,0.8586664 0.3919998,1.5586661 0.3919999,0.6906665 1.073333,1.09199967 0.6906664,0.4013332 1.5493328,0.4013332 z"/>
      <path id="path34686" style="font-weight:normal;font-size:9.33333px;font-family:Comfortaa, sans-serif;letter-spacing:2.5px;fill:#333333" d="M 11.822831,0 Q 11.673497,0 11.561497,-0.10266663 11.458831,-0.21466659 11.458831,-0.36399988 V -6.925331 q 0,-0.1586666 0.102666,-0.2613332 0.112,-0.1026667 0.261334,-0.1026667 h 4.377331 q 0.158667,0 0.261334,0.1026667 0.102666,0.1026666 0.102666,0.2519999 0,0.1493333 -0.102666,0.2519999 -0.102667,0.093333 -0.261334,0.093333 H 12.18683 v 2.5759991 h 2.921333 q 0.158666,0 0.261333,0.1026667 0.102667,0.093333 0.102667,0.2519999 0,0.1493333 -0.102667,0.2519999 -0.102667,0.1026666 -0.261333,0.1026666 H 12.18683 v 2.93999902 q 0,0.14933329 -0.102666,0.26133325 Q 11.981497,0 11.822831,0 Z"/>
      <path id="path34688" style="font-weight:normal;font-size:9.33333px;font-family:Comfortaa, sans-serif;letter-spacing:2.5px;fill:#333333" d="M 20.156163,0 Q 20.006829,0 19.894829,-0.10266663 19.792163,-0.21466659 19.792163,-0.36399988 V -6.925331 q 0,-0.1586666 0.102666,-0.2613332 0.112,-0.1026667 0.261334,-0.1026667 h 4.377331 q 0.158667,0 0.261334,0.1026667 0.102666,0.1026666 0.102666,0.2519999 0,0.1493333 -0.102666,0.2519999 -0.102667,0.093333 -0.261334,0.093333 h -4.013332 v 2.5759991 h 2.921333 q 0.158666,0 0.261333,0.1026667 0.102667,0.093333 0.102667,0.2519999 0,0.1493333 -0.102667,0.2519999 -0.102667,0.1026666 -0.261333,0.1026666 h -2.921333 v 2.93999902 q 0,0.14933329 -0.102666,0.26133325 Q 20.314829,0 20.156163,0 Z"/>
      <path id="path34690" style="font-weight:normal;font-size:9.33333px;font-family:Comfortaa, sans-serif;letter-spacing:2.5px;fill:#333333" d="m 30.944159,0.0933333 q -0.886667,0 -1.577333,-0.3733332 -0.681333,-0.38266654 -0.98,-1.0266663 -0.03733,-0.065333 -0.03733,-0.1493333 0,-0.1306666 0.09333,-0.2146666 0.102667,-0.093333 0.270667,-0.093333 0.112,0 0.205333,0.065333 0.102667,0.056 0.149333,0.168 0.214667,0.4199998 0.709333,0.68133306 0.504,0.25199991 1.166667,0.25199991 0.765333,0 1.231999,-0.36399988 0.466667,-0.37333319 0.466667,-1.03599969 0,-0.5879998 -0.438667,-0.9893329 -0.429333,-0.4013332 -1.297333,-0.5133332 -1.082666,-0.1306666 -1.707999,-0.6719998 -0.616,-0.5506665 -0.616,-1.3439995 0,-0.5599998 0.298667,-0.9799997 0.308,-0.4293332 0.839999,-0.6533331 0.541333,-0.2333333 1.222667,-0.2333333 0.737333,0 1.297332,0.3266666 0.56,0.3266666 0.877334,0.849333 0.06533,0.1026667 0.06533,0.224 0,0.1773332 -0.168,0.2799999 -0.07467,0.037333 -0.168,0.037333 -0.102667,0 -0.196,-0.046667 -0.084,-0.056 -0.14,-0.1493332 -0.522666,-0.8213331 -1.577333,-0.8306664 -0.755999,0 -1.194666,0.3173332 -0.438667,0.3173332 -0.438667,0.905333 0,1.0919997 1.764,1.3253329 1.157333,0.168 1.726666,0.7093331 0.569333,0.5413332 0.569333,1.4279995 0,0.6533331 -0.317333,1.12933297 -0.317333,0.47599983 -0.868,0.72799975 -0.550666,0.24266658 -1.231999,0.24266658 z"/>
      <path id="path34692" style="font-weight:normal;font-size:9.33333px;font-family:Comfortaa, sans-serif;letter-spacing:2.5px;fill:#333333" d="M 37.747845,0 Q 37.598512,0 37.486512,-0.10266663 37.383845,-0.21466659 37.383845,-0.36399988 V -6.925331 q 0,-0.1586666 0.102667,-0.2613332 0.112,-0.1026667 0.261333,-0.1026667 h 4.377332 q 0.158666,0 0.261333,0.1026667 0.102667,0.1026666 0.102667,0.2519999 0,0.1493333 -0.102667,0.2519999 -0.102667,0.093333 -0.261333,0.093333 h -4.013332 v 2.5759991 h 2.921332 q 0.158667,0 0.261333,0.1026667 0.102667,0.1026666 0.102667,0.2519999 0,0.1493333 -0.112,0.2519999 -0.102667,0.1026666 -0.252,0.1026666 h -2.921332 v 2.60399914 h 4.013332 q 0.158666,0 0.261333,0.10266663 0.102667,0.0933333 0.102667,0.24266658 0,0.14933329 -0.102667,0.25199992 Q 42.283843,0 42.125177,0 Z"/>
      <path id="path34694" style="font-weight:normal;font-size:9.33333px;font-family:Comfortaa, sans-serif;letter-spacing:2.5px;fill:#333333" d="m 51.040965,-7.2893309 q 0.149333,0 0.242666,0.093333 0.09333,0.093333 0.09333,0.2426665 0,0.14 -0.09333,0.2333333 -0.09333,0.093333 -0.242666,0.093333 h -2.221333 v 6.26266452 q 0,0.14933329 -0.102667,0.26133325 Q 48.614299,0 48.455632,0 48.306299,0 48.194299,-0.10266663 48.091632,-0.21466659 48.091632,-0.36399988 V -6.6266644 h -2.211999 q -0.149333,0 -0.242667,-0.093333 -0.09333,-0.093333 -0.09333,-0.2333333 0,-0.1493332 0.09333,-0.2426665 0.09333,-0.093333 0.242667,-0.093333 z"/>
    </g>
    <g transform="translate(0,12)" id="g34259">
      <g class="brand" style="font-weight:bold;font-size:9.33333px;font-family:Audiowide, sans-serif;letter-spacing:2px;fill:#333333" id="text34255" aria-label="BGA">
        <path id="path34697" style="font-weight:bold;font-size:9.33333px;font-family:Audiowide, sans-serif;letter-spacing:2px;fill:#333333" d="m 7.209633,-1.4355464 q 0,0.2187499 -0.077474,0.4694009 -0.072917,0.25065095 -0.2460936,0.46484359 Q 6.7174456,-0.28710928 6.4440082,-0.14127599 6.1705708,0 5.7740866,0 H 1.2760412 Q 1.1484371,0 1.0390621,-0.0455729 0.92968718,-0.0911458 0.84765596,-0.16861973 0.77018203,-0.25065096 0.72460913,-0.36002592 0.67903623,-0.46940088 0.67903623,-0.597005 v -5.341144 q 0,-0.1230469 0.0455729,-0.2324218 0.0455729,-0.109375 0.12304683,-0.1914062 0.0820312,-0.082031 0.19140614,-0.1276041 0.109375,-0.045573 0.2369791,-0.045573 h 3.9648424 q 0.21875,0 0.4694009,0.077474 0.250651,0.077474 0.4648436,0.250651 0.2187499,0.1686197 0.3600259,0.4420571 0.1458333,0.2734374 0.1458333,0.6699217 v 0.2233072 q 0,0.314453 -0.1048177,0.6790362 -0.1048176,0.3600259 -0.3372394,0.6835935 0.2005207,0.1230468 0.3736978,0.2962239 0.1777343,0.173177 0.3098957,0.4010415 0.1321614,0.2278645 0.2096353,0.5149738 0.077474,0.2871093 0.077474,0.6334633 z M 6.0247375,-1.6634109 q 0,-0.2324218 -0.072917,-0.4147134 Q 5.8789042,-2.2649732 5.7467428,-2.3971346 5.6145814,-2.529296 5.4277325,-2.5976554 5.2408836,-2.670572 5.0084618,-2.670572 h -2.670572 v -1.19401 h 2.1373691 q 0.2324218,0 0.4192707,-0.068359 0.1868489,-0.072917 0.3190103,-0.205078 0.1321614,-0.1321614 0.2005208,-0.314453 0.072917,-0.1868489 0.072917,-0.4192707 v -0.2233072 q 0,-0.2552083 -0.2460937,-0.2552083 H 1.8639317 v 4.1653632 h 3.9101549 q 0.031901,0 0.077474,-0.00456 0.045573,-0.00456 0.082031,-0.027344 0.036458,-0.022786 0.063802,-0.077474 0.027344,-0.054687 0.027344,-0.1503906 z"/>
        <path id="path34699" style="font-weight:bold;font-size:9.33333px;font-family:Audiowide, sans-serif;letter-spacing:2px;fill:#333333" d="m 16.683589,-0.597005 q 0,0.12760412 -0.04557,0.23697908 -0.04557,0.10937496 -0.127605,0.19140619 -0.07747,0.07747393 -0.186849,0.12304683 Q 16.214189,0 16.086584,0 h -4.274738 q -0.164062,0 -0.355468,-0.03645832 -0.186849,-0.04101561 -0.373698,-0.12304683 -0.182292,-0.0820312 -0.350911,-0.20963535 -0.16862,-0.13216141 -0.300782,-0.31445302 -0.127604,-0.18684889 -0.205078,-0.42838528 -0.07747,-0.2460937 -0.07747,-0.5514321 v -3.2083322 q 0,-0.1640625 0.03646,-0.3509114 0.04101,-0.1914062 0.123047,-0.3736978 0.08203,-0.1868489 0.214192,-0.3554686 0.132162,-0.1686197 0.314453,-0.2962238 0.186849,-0.1321615 0.428385,-0.2096354 0.241537,-0.077474 0.546875,-0.077474 h 4.817056 v 1.1848954 h -4.817056 q -0.232422,0 -0.355468,0.1230468 -0.123047,0.1230469 -0.123047,0.3645832 v 3.1992177 q 0,0.2278645 0.123047,0.3554686 0.127604,0.1230469 0.355468,0.1230469 h 3.686848 V -2.670572 h -3.153645 v -1.19401 h 3.741535 q 0.127605,0 0.236979,0.05013 0.109375,0.045573 0.186849,0.1276041 0.08203,0.082031 0.127605,0.1914062 0.04557,0.1048177 0.04557,0.2278645 z"/>
        <path id="path34701" style="font-weight:bold;font-size:9.33333px;font-family:Audiowide, sans-serif;letter-spacing:2px;fill:#333333" d="M 26.339836,0 H 25.154941 V -1.6041661 H 20.989578 V 0 h -1.184896 v -3.267577 q 0,-0.7154946 0.246094,-1.3170569 0.246094,-0.6015623 0.683593,-1.0345048 0.4375,-0.4329426 1.034505,-0.6744789 0.597005,-0.2415364 1.303385,-0.2415364 h 2.670572 q 0.123047,0 0.232422,0.045573 0.109375,0.045573 0.191406,0.1276041 0.08203,0.082031 0.127604,0.1914062 0.04557,0.1093749 0.04557,0.2324218 z m -5.350258,-2.7890616 h 4.165363 v -2.561197 h -2.082682 q -0.05469,0 -0.232422,0.018229 -0.173177,0.013672 -0.405598,0.077474 -0.227865,0.063802 -0.483073,0.1959635 -0.255208,0.1321614 -0.469401,0.3645832 -0.214193,0.2324218 -0.355469,0.5833331 -0.136718,0.3463541 -0.136718,0.8430987 z"/>
      </g>
      <path d="M 0,0 H 3 V 3 H 0 Z" style="fill:#dddddd" transform="translate(11.5,-5)" id="rect34257"/>
    </g>
  </g>
  <g style="font-weight:bold;font-size:8px;font-family:Roboto, sans-serif;letter-spacing:2px;fill:#333333" id="text34265" aria-label="OFFSET">
    <path id="path34671" style="font-weight:bold;font-size:8px;font-family:Roboto, sans-serif;letter-spacing:2px;fill:#333333" d="m 8.1796875,22.285156 q 0,0.839844 -0.296875,1.472656 -0.296875,0.632813 -0.8515625,0.976563 -0.5507813,0.34375 -1.265625,0.34375 -0.7070313,0 -1.2617188,-0.339844 Q 3.9492188,24.398437 3.6445313,23.769531 3.3398438,23.136719 3.3359375,22.316406 v -0.28125 q 0,-0.839844 0.3007813,-1.476562 0.3046875,-0.640625 0.8554687,-0.980469 0.5546875,-0.34375 1.265625,-0.34375 0.7109375,0 1.2617187,0.34375 0.5546875,0.339844 0.8554688,0.980469 0.3046875,0.636718 0.3046875,1.472656 z m -1.1875,-0.257812 q 0,-0.894532 -0.3203125,-1.359375 -0.3203125,-0.464844 -0.9140625,-0.464844 -0.5898438,0 -0.9101563,0.460937 -0.3203125,0.457032 -0.3242187,1.34375 v 0.277344 q 0,0.871094 0.3203125,1.351563 0.3203125,0.480468 0.921875,0.480468 0.5898437,0 0.90625,-0.460937 0.3164062,-0.464844 0.3203125,-1.351563 z"/>
    <path id="path34673" style="font-weight:bold;font-size:8px;font-family:Roboto, sans-serif;letter-spacing:2px;fill:#333333" d="m 14.460938,22.675781 h -2.25 V 25 h -1.171875 v -5.6875 h 3.703125 v 0.949219 h -2.53125 v 1.46875 h 2.25 z"/>
    <path id="path34675" style="font-weight:bold;font-size:8px;font-family:Roboto, sans-serif;letter-spacing:2px;fill:#333333" d="m 20.851562,22.675781 h -2.25 V 25 h -1.171875 v -5.6875 h 3.703125 v 0.949219 h -2.53125 v 1.46875 h 2.25 z"/>
    <path id="path34677" style="font-weight:bold;font-size:8px;font-family:Roboto, sans-serif;letter-spacing:2px;fill:#333333" d="m 26.769531,23.507812 q 0,-0.332031 -0.234375,-0.507812 -0.234375,-0.179688 -0.84375,-0.375 -0.609375,-0.199219 -0.964844,-0.390625 -0.96875,-0.523438 -0.96875,-1.410156 0,-0.460938 0.257813,-0.820313 0.261719,-0.363281 0.746094,-0.566406 0.488281,-0.203125 1.09375,-0.203125 0.609375,0 1.085937,0.222656 0.476563,0.21875 0.738281,0.621094 0.265625,0.402344 0.265625,0.914062 h -1.171875 q 0,-0.390625 -0.246093,-0.605468 -0.246094,-0.21875 -0.691407,-0.21875 -0.429687,0 -0.667968,0.183593 -0.238282,0.179688 -0.238282,0.476563 0,0.277344 0.277344,0.464844 0.28125,0.1875 0.824219,0.351562 1,0.300781 1.457031,0.746094 0.457031,0.445312 0.457031,1.109375 0,0.738281 -0.558593,1.160156 -0.558594,0.417969 -1.503907,0.417969 -0.65625,0 -1.195312,-0.238281 -0.539063,-0.242188 -0.824219,-0.660157 -0.28125,-0.417968 -0.28125,-0.96875 h 1.175781 q 0,0.941407 1.125,0.941407 0.417969,0 0.652344,-0.167969 0.234375,-0.171875 0.234375,-0.476563 z"/>
    <path id="path34679" style="font-weight:bold;font-size:8px;font-family:Roboto, sans-serif;letter-spacing:2px;fill:#333333" d="m 34.164062,22.535156 h -2.25 v 1.523438 h 2.640625 V 25 h -3.8125 v -5.6875 h 3.804688 v 0.949219 h -2.632813 v 1.355468 h 2.25 z"/>
    <path id="path34681" style="font-weight:bold;font-size:8px;font-family:Roboto, sans-serif;letter-spacing:2px;fill:#333333" d="M 41.601562,20.261719 H 39.859375 V 25 H 38.6875 V 20.261719 H 36.96875 V 19.3125 h 4.632812 z"/>
  </g>
  <g transform="translate(0,32)" id="g34267"/>
  <g transform="translate(0,32)" id="use34269">
    <g transform="translate(22.5,22.5)" id="g34458">
      <g transform="rotate(120,-8.5,4.9074773)" id="g34362">
        <path d="M 0,0 H 4" style="stroke:#333333;stroke-width:1.5" id="polyline34360"/>
      </g>
      <g transform="rotate(135,-8.5,3.5208153)" id="g34366">
        <path d="M 0,0 H 3" style="stroke:#333333;stroke-width:0.3" id="polyline34364"/>
      </g>
      <g transform="rotate(150,-8.5,2.2775681)" id="g34370">
        <path d="M 0,0 H 3" style="stroke:#333333;stroke-width:0.3" id="polyline34368"/>
      </g>
      <g transform="rotate(165,-8.5,1.1190462)" id="g34374">
        <path d="M 0,0 H 3" style="stroke:#333333;stroke-width:0.3" id="polyline34372"/>
      </g>
      <g transform="rotate(180,-8.5,0)" id="g34378">
        <path d="M 0,0 H 3" style="stroke:#333333;stroke-width:0.3" id="polyline34376"/>
      </g>
      <g transform="rotate(-165,-8.5,-1.1190462)" id="g34382">
        <path d="M 0,0 H 4" style="stroke:#333333;stroke-width:1.5" id="polyline34380"/>
      </g>
      <g transform="rotate(-150,-8.5,-2.2775681)" id="g34386">
        <path d="M 0,0 H 3" style="stroke:#333333;stroke-width:0.3" id="polyline34384"/>
      </g>
      <g transform="rotate(-135,-8.5,-3.5208153)" id="g34390">
        <path d="M 0,0 H 3" style="stroke:#333333;stroke-width:0.3" id="polyline34388"/>
      </g>
      <g transform="rotate(-120,-8.5,-4.9074773)" id="g34394">
        <path d="M 0,0 H 3" style="stroke:#333333;stroke-width:0.3" id="polyline34392"/>
      </g>
      <g transform="rotate(-105,-8.5,-6.5222794)" id="g34398">
        <path d="M 0,0 H 3" style="stroke:#333333;stroke-width:0.3" id="polyline34396"/>
      </g>
      <g transform="rotate(-90,-8.5,-8.5)" id="g34404">
        <g transform="rotate(90,1.2,1.2)" id="g34402">
          <g style="font-weight:bold;font-size:8.66667px;font-family:Roboto, sans-serif;fill:#333333" id="text34400" transform="translate(-2.3,3.3)" aria-label="0">
            <path id="path34652" style="font-weight:bold;font-size:8.66667px;font-family:Roboto, sans-serif;fill:#333333" d="m 4.5660824,-2.547527 q 0,1.2779953 -0.5289715,1.95507887 -0.5289716,0.67708358 -1.5488287,0.67708358 -1.0071619,0 -1.54036519,-0.66438827 Q 0.41471369,-1.2441411 0.40201838,-2.4840504 v -1.134115 q 0,-1.2906906 0.53320332,-1.9593106 0.5374351,-0.66862 1.5445969,-0.66862 1.0071618,0 1.5403652,0.6643882 0.5332033,0.6601565 0.5458986,1.9000658 z M 3.3431002,-3.7916681 q 0,-0.7659508 -0.2115886,-1.1129561 -0.2073569,-0.3512371 -0.651693,-0.3512371 -0.4316408,0 -0.6389976,0.33431 -0.2031251,0.3300783 -0.2158204,1.0367843 v 1.4980474 q 0,0.7532555 0.2031251,1.1214197 0.2073568,0.36393238 0.6601565,0.36393238 0.4485678,0 0.6474611,-0.35123708 0.1988933,-0.3512371 0.2073569,-1.0748702 z"/>
          </g>
        </g>
      </g>
      <g transform="rotate(-75,-8.5,-11.077416)" id="g34408">
        <path d="M 0,0 H 3" style="stroke:#333333;stroke-width:0.3" id="polyline34406"/>
      </g>
      <g transform="rotate(-60,-8.5,-14.722432)" id="g34412">
        <path d="M 0,0 H 3" style="stroke:#333333;stroke-width:0.3" id="polyline34410"/>
      </g>
      <g transform="rotate(-45,-8.5,-20.520815)" id="g34416">
        <path d="M 0,0 H 3" style="stroke:#333333;stroke-width:0.3" id="polyline34414"/>
      </g>
      <g transform="rotate(-30,-8.5,-31.722432)" id="g34420">
        <path d="M 0,0 H 3" style="stroke:#333333;stroke-width:0.3" id="polyline34418"/>
      </g>
      <g transform="rotate(-15,-8.5,-64.56391)" id="g34424">
        <path d="M 0,0 H 4" style="stroke:#333333;stroke-width:1.5" id="polyline34422"/>
      </g>
      <g transform="translate(17)" id="g34428">
        <path d="M 0,0 H 3" style="stroke:#333333;stroke-width:0.3" id="polyline34426"/>
      </g>
      <g transform="rotate(15,-8.5,64.56391)" id="g34432">
        <path d="M 0,0 H 3" style="stroke:#333333;stroke-width:0.3" id="polyline34430"/>
      </g>
      <g transform="rotate(30,-8.5,31.722432)" id="g34436">
        <path d="M 0,0 H 3" style="stroke:#333333;stroke-width:0.3" id="polyline34434"/>
      </g>
      <g transform="rotate(45,-8.5,20.520815)" id="g34440">
        <path d="M 0,0 H 3" style="stroke:#333333;stroke-width:0.3" id="polyline34438"/>
      </g>
      <g transform="rotate(60,-8.5,14.722432)" id="g34444">
        <path d="M 0,0 H 4" style="stroke:#333333;stroke-width:1.5" id="polyline34442"/>
      </g>
      <g transform="rotate(135,-11,4.5563492)" id="g34450">
        <g transform="rotate(-135,1.25,-0.51776695)" id="g34448">
          <g style="font-weight:bold;font-size:12px;font-family:Roboto, sans-serif;fill:#333333" id="text34446" transform="translate(-2,3.4)" aria-label="-">
            <path id="path34665" style="font-weight:bold;font-size:12px;font-family:Roboto, sans-serif;fill:#333333" d="M 3.9433594,-2.9707031 H 0.64453125 V -4.3359375 H 3.9433594 Z"/>
          </g>
        </g>
      </g>
      <g transform="rotate(45,-11,26.556349)" id="g34456">
        <g transform="rotate(-45,1.25,-3.017767)" id="g34454">
          <g style="font-weight:bold;font-size:9.33333px;font-family:Roboto, sans-serif;fill:#333333" id="text34452" transform="translate(-2.9,3)" aria-label="+">
            <path id="path34668" style="font-weight:bold;font-size:9.33333px;font-family:Roboto, sans-serif;fill:#333333" d="m 3.1627593,-3.7141914 h 1.6451818 v 1.1894527 H 3.1627593 v 1.85937434 H 1.9095046 V -2.5247387 H 0.25976554 V -3.7141914 H 1.9095046 v -1.7819005 h 1.2532547 z"/>
          </g>
        </g>
      </g>
    </g>
  </g>
  <g transform="translate(5.5,78)" id="g34277">
    <path d="m 5,0 h 24 c 2.77,0 5,2.23 5,5 v 29 c 0,2.77 -2.23,5 -5,5 H 5 C 2.23,39 0,36.77 0,34 V 5 C 0,2.23 2.23,0 5,0 Z" style="fill:#fafafa" id="rect34271"/>
    <g transform="translate(5,3)" id="g34273"/>
    <g style="font-weight:bold;font-size:6.66667px;font-family:Roboto, sans-serif;letter-spacing:2px;fill:#333333" id="text34275" transform="translate(11,35)" aria-label="CV">
      <path id="path34637" style="font-weight:bold;font-size:6.66667px;font-family:Roboto, sans-serif;letter-spacing:2px;fill:#333333" d="M 4.1438822,-1.5787768 Q 4.0885436,-0.81380247 3.5774757,-0.37434914 3.0696629,0.0651042 2.2363292,0.0651042 q -0.9114588,0 -1.43554757,-0.61197946 Q 0.27994805,-1.1621099 0.27994805,-2.233074 v -0.2897137 q 0,-0.683594 0.24088553,-1.2044276 0.24088553,-0.5208336 0.68684932,-0.7975264 0.4492189,-0.2799481 1.0416671,-0.2799481 0.8203129,0 1.3216152,0.4394533 0.5013024,0.4394534 0.5794274,1.2337246 H 3.1738296 Q 3.1380223,-3.5904965 2.9166681,-3.7955747 2.698569,-4.0039082 2.24935,-4.0039082 q -0.4882815,0 -0.7324222,0.3515627 -0.2408855,0.3483075 -0.2473959,1.0839849 v 0.3580731 q 0,0.7682295 0.2311199,1.1230474 0.2343751,0.35481788 0.7356774,0.35481788 0.4524742,0 0.6738284,-0.20507823 0.2246095,-0.20833345 0.2571616,-0.64127635 z"/>
      <path id="path34639" style="font-weight:bold;font-size:6.66667px;font-family:Roboto, sans-serif;letter-spacing:2px;fill:#333333" d="M 8.5364616,-1.1751308 9.6106809,-4.7395856 H 10.697921 L 9.0475295,0 H 8.0286489 l -1.643881,-4.7395856 h 1.0839849 z"/>
    </g>
  </g>
  <g style="font-weight:bold;font-size:8px;font-family:Roboto, sans-serif;letter-spacing:2px;fill:#333333" id="text34281" aria-label="SCALE">
    <path id="path34625" style="font-weight:bold;font-size:8px;font-family:Roboto, sans-serif;letter-spacing:2px;fill:#333333" d="m 9.4570313,135.50781 q 0,-0.33203 -0.234375,-0.50781 -0.234375,-0.17969 -0.84375,-0.375 -0.6093751,-0.19922 -0.9648438,-0.39063 -0.96875,-0.52343 -0.96875,-1.41015 0,-0.46094 0.2578125,-0.82031 0.2617187,-0.36329 0.7460937,-0.56641 0.4882813,-0.20313 1.0937501,-0.20313 0.609375,0 1.0859375,0.22266 0.4765627,0.21875 0.7382817,0.62109 0.265625,0.40235 0.265625,0.91407 H 9.4609375 q 0,-0.39063 -0.2460937,-0.60547 -0.2460938,-0.21875 -0.6914063,-0.21875 -0.4296875,0 -0.6679688,0.18359 -0.2382812,0.17969 -0.2382812,0.47656 0,0.27735 0.2773437,0.46485 0.2812501,0.1875 0.8242188,0.35156 1,0.30078 1.457031,0.74609 0.457032,0.44532 0.457032,1.10938 0,0.73828 -0.558594,1.16016 -0.558594,0.41796 -1.5039065,0.41796 -0.65625,0 -1.1953125,-0.23828 -0.5390625,-0.24218 -0.8242188,-0.66015 -0.28125,-0.41797 -0.28125,-0.96875 h 1.1757813 q 0,0.9414 1.125,0.9414 0.4179688,0 0.6523438,-0.16797 0.234375,-0.17187 0.234375,-0.47656 z"/>
    <path id="path34627" style="font-weight:bold;font-size:8px;font-family:Roboto, sans-serif;letter-spacing:2px;fill:#333333" d="m 17.894531,135.10547 q -0.06641,0.91797 -0.679687,1.44531 -0.609375,0.52734 -1.609375,0.52734 -1.09375,0 -1.722656,-0.73437 -0.625,-0.73828 -0.625,-2.02344 v -0.34765 q 0,-0.82032 0.289062,-1.44532 0.289063,-0.625 0.824219,-0.95703 0.539062,-0.33594 1.25,-0.33594 0.984375,0 1.585937,0.52735 0.601563,0.52734 0.695313,1.48047 h -1.171875 q -0.04297,-0.55078 -0.308594,-0.79688 -0.261719,-0.25 -0.800781,-0.25 -0.585938,0 -0.878906,0.42188 -0.289063,0.41797 -0.296875,1.30078 v 0.42969 q 0,0.92187 0.277343,1.34765 0.28125,0.42578 0.882813,0.42578 0.542968,0 0.808593,-0.24609 0.269532,-0.25 0.308594,-0.76953 z"/>
    <path id="path34629" style="font-weight:bold;font-size:8px;font-family:Roboto, sans-serif;letter-spacing:2px;fill:#333333" d="M 23.875,135.82812 H 21.820312 L 21.429687,137 h -1.246093 l 2.117187,-5.6875 h 1.085938 L 25.515625,137 h -1.246094 z m -1.738281,-0.94921 h 1.421875 L 22.84375,132.75 Z"/>
    <path id="path34631" style="font-weight:bold;font-size:8px;font-family:Roboto, sans-serif;letter-spacing:2px;fill:#333333" d="m 29.226562,136.05859 h 2.488282 V 137 h -3.660157 v -5.6875 h 1.171875 z"/>
    <path id="path34633" style="font-weight:bold;font-size:8px;font-family:Roboto, sans-serif;letter-spacing:2px;fill:#333333" d="m 37.804687,134.53516 h -2.25 v 1.52343 h 2.640625 V 137 h -3.8125 v -5.6875 H 38.1875 v 0.94922 h -2.632813 v 1.35547 h 2.25 z"/>
  </g>
  <g transform="translate(0,144)" id="g34283"/>
  <g transform="translate(0,144)" id="use34285">
    <g transform="translate(22.5,22.5)" id="g34568">
      <g transform="rotate(120,-8.5,4.9074773)" id="g34464">
        <path d="M 0,0 H 4" style="stroke:#333333;stroke-width:1.5" id="polyline34462"/>
      </g>
      <g transform="rotate(127.7,-8.5,4.1733088)" id="g34468">
        <path d="M 0,0 H 3" style="stroke:#333333;stroke-width:0.3" id="polyline34466"/>
      </g>
      <g transform="rotate(135.8,-8.5,3.4514921)" id="g34472">
        <path d="M 0,0 H 3" style="stroke:#333333;stroke-width:0.3" id="polyline34470"/>
      </g>
      <g transform="rotate(144.5,-8.5,2.7208715)" id="g34476">
        <path d="M 0,0 H 3" style="stroke:#333333;stroke-width:0.3" id="polyline34474"/>
      </g>
      <g transform="rotate(153.8,-8.5,1.978012)" id="g34480">
        <path d="M 0,0 H 3" style="stroke:#333333;stroke-width:0.3" id="polyline34478"/>
      </g>
      <g transform="rotate(163.9,-8.5,1.2021622)" id="g34484">
        <path d="M 0,0 H 4" style="stroke:#333333;stroke-width:1.5" id="polyline34482"/>
      </g>
      <g transform="rotate(175.1,-8.5,0.36368651)" id="g34488">
        <path d="M 0,0 H 3" style="stroke:#333333;stroke-width:0.3" id="polyline34486"/>
      </g>
      <g transform="rotate(-172.2,-8.5,-0.57947187)" id="g34492">
        <path d="M 0,0 H 3" style="stroke:#333333;stroke-width:0.3" id="polyline34490"/>
      </g>
      <g transform="rotate(-157.1,-8.5,-1.7216212)" id="g34496">
        <path d="M 0,0 H 3" style="stroke:#333333;stroke-width:0.3" id="polyline34494"/>
      </g>
      <g transform="rotate(-137.4,-8.5,-3.3140115)" id="g34500">
        <path d="M 0,0 H 4" style="stroke:#333333;stroke-width:1.5" id="polyline34498"/>
      </g>
      <g transform="rotate(-123.5,-8.5,-4.5672147)" id="g34504">
        <path d="M 0,0 H 1" style="stroke:#333333;stroke-width:0.3" id="polyline34502"/>
      </g>
      <g transform="rotate(-90,-8.5,-8.5)" id="g34510">
        <g transform="rotate(90,1.2,1.2)" id="g34508">
          <g style="font-weight:bold;font-size:8.66667px;font-family:Roboto, sans-serif;fill:#333333" id="text34506" transform="translate(-2.3,3.3)" aria-label="0">
            <path id="path34605" style="font-weight:bold;font-size:8.66667px;font-family:Roboto, sans-serif;fill:#333333" d="m 4.5660824,-2.547527 q 0,1.2779953 -0.5289715,1.95507887 -0.5289716,0.67708358 -1.5488287,0.67708358 -1.0071619,0 -1.54036519,-0.66438827 Q 0.41471369,-1.2441411 0.40201838,-2.4840504 v -1.134115 q 0,-1.2906906 0.53320332,-1.9593106 0.5374351,-0.66862 1.5445969,-0.66862 1.0071618,0 1.5403652,0.6643882 0.5332033,0.6601565 0.5458986,1.9000658 z M 3.3431002,-3.7916681 q 0,-0.7659508 -0.2115886,-1.1129561 -0.2073569,-0.3512371 -0.651693,-0.3512371 -0.4316408,0 -0.6389976,0.33431 -0.2031251,0.3300783 -0.2158204,1.0367843 v 1.4980474 q 0,0.7532555 0.2031251,1.1214197 0.2073568,0.36393238 0.6601565,0.36393238 0.4485678,0 0.6474611,-0.35123708 0.1988933,-0.3512371 0.2073569,-1.0748702 z"/>
          </g>
        </g>
      </g>
      <g transform="rotate(-56.5,-8.5,-15.819269)" id="g34514">
        <path d="M 0,0 H 1" style="stroke:#333333;stroke-width:0.3" id="polyline34512"/>
      </g>
      <g transform="rotate(-42.3,-8.5,-21.971158)" id="g34518">
        <path d="M 0,0 H 4" style="stroke:#333333;stroke-width:1.5" id="polyline34516"/>
      </g>
      <g transform="rotate(-22.9,-8.5,-41.966258)" id="g34522">
        <path d="M 0,0 H 3" style="stroke:#333333;stroke-width:0.3" id="polyline34520"/>
      </g>
      <g transform="rotate(-7.8,-8.5,-124.6825)" id="g34526">
        <path d="M 0,0 H 3" style="stroke:#333333;stroke-width:0.3" id="polyline34524"/>
      </g>
      <g transform="rotate(4.8,-8.5,202.80386)" id="g34530">
        <path d="M 0,0 H 3" style="stroke:#333333;stroke-width:0.3" id="polyline34528"/>
      </g>
      <g transform="rotate(16.1,-8.5,60.100044)" id="g34534">
        <path d="M 0,0 H 4" style="stroke:#333333;stroke-width:1.5" id="polyline34532"/>
      </g>
      <g transform="rotate(26.2,-8.5,36.526574)" id="g34538">
        <path d="M 0,0 H 3" style="stroke:#333333;stroke-width:0.3" id="polyline34536"/>
      </g>
      <g transform="rotate(35.5,-8.5,26.553992)" id="g34542">
        <path d="M 0,0 H 3" style="stroke:#333333;stroke-width:0.3" id="polyline34540"/>
      </g>
      <g transform="rotate(44.2,-8.5,20.932976)" id="g34546">
        <path d="M 0,0 H 3" style="stroke:#333333;stroke-width:0.3" id="polyline34544"/>
      </g>
      <g transform="rotate(52.3,-8.5,17.312402)" id="g34550">
        <path d="M 0,0 H 3" style="stroke:#333333;stroke-width:0.3" id="polyline34548"/>
      </g>
      <g transform="rotate(60,-8.5,14.722432)" id="g34554">
        <path d="M 0,0 H 4" style="stroke:#333333;stroke-width:1.5" id="polyline34552"/>
      </g>
      <g transform="rotate(135,-11,4.5563492)" id="g34560">
        <g transform="rotate(-135,1.25,-0.51776695)" id="g34558">
          <g style="font-weight:bold;font-size:12px;font-family:Roboto, sans-serif;fill:#333333" id="text34556" transform="translate(-2,3.4)" aria-label="-">
            <path id="path34619" style="font-weight:bold;font-size:12px;font-family:Roboto, sans-serif;fill:#333333" d="M 3.9433594,-2.9707031 H 0.64453125 V -4.3359375 H 3.9433594 Z"/>
          </g>
        </g>
      </g>
      <g transform="rotate(45,-11,26.556349)" id="g34566">
        <g transform="rotate(-45,1.25,-3.017767)" id="g34564">
          <g style="font-weight:bold;font-size:9.33333px;font-family:Roboto, sans-serif;fill:#333333" id="text34562" transform="translate(-2.9,3)" aria-label="+">
            <path id="path34622" style="font-weight:bold;font-size:9.33333px;font-family:Roboto, sans-serif;fill:#333333" d="m 3.1627593,-3.7141914 h 1.6451818 v 1.1894527 H 3.1627593 v 1.85937434 H 1.9095046 V -2.5247387 H 0.25976554 V -3.7141914 H 1.9095046 v -1.7819005 h 1.2532547 z"/>
          </g>
        </g>
      </g>
    </g>
  </g>
  <g transform="translate(5.5,190)" id="g34293">
    <path d="m 5,0 h 24 c 2.77,0 5,2.23 5,5 v 28 c 0,2.77 -2.23,5 -5,5 H 5 C 2.23,38 0,35.77 0,33 V 5 C 0,2.23 2.23,0 5,0 Z" style="fill:#fafafa" id="rect34287"/>
    <g transform="translate(5,3)" id="g34289"/>
    <g style="font-weight:bold;font-size:6.66667px;font-family:Roboto, sans-serif;letter-spacing:2px;fill:#333333" id="text34291" transform="translate(11,35)" aria-label="CV">
      <path id="path34589" style="font-weight:bold;font-size:6.66667px;font-family:Roboto, sans-serif;letter-spacing:2px;fill:#333333" d="M 4.1438822,-1.5787768 Q 4.0885436,-0.81380247 3.5774757,-0.37434914 3.0696629,0.0651042 2.2363292,0.0651042 q -0.9114588,0 -1.43554757,-0.61197946 Q 0.27994805,-1.1621099 0.27994805,-2.233074 v -0.2897137 q 0,-0.683594 0.24088553,-1.2044276 0.24088553,-0.5208336 0.68684932,-0.7975264 0.4492189,-0.2799481 1.0416671,-0.2799481 0.8203129,0 1.3216152,0.4394533 0.5013024,0.4394534 0.5794274,1.2337246 H 3.1738296 Q 3.1380223,-3.5904965 2.9166681,-3.7955747 2.698569,-4.0039082 2.24935,-4.0039082 q -0.4882815,0 -0.7324222,0.3515627 -0.2408855,0.3483075 -0.2473959,1.0839849 v 0.3580731 q 0,0.7682295 0.2311199,1.1230474 0.2343751,0.35481788 0.7356774,0.35481788 0.4524742,0 0.6738284,-0.20507823 0.2246095,-0.20833345 0.2571616,-0.64127635 z"/>
      <path id="path34591" style="font-weight:bold;font-size:6.66667px;font-family:Roboto, sans-serif;letter-spacing:2px;fill:#333333" d="M 8.5364616,-1.1751308 9.6106809,-4.7395856 H 10.697921 L 9.0475295,0 H 8.0286489 l -1.643881,-4.7395856 h 1.0839849 z"/>
    </g>
  </g>
  <g transform="translate(5.5,240)" id="g34305">
    <path d="M 0,0 H 34 V 10 H 0 Z" style="fill:#fafafa" transform="translate(0,28)" id="rect34297"/>
    <path d="m 5,0 h 24 c 2.77,0 5,2.23 5,5 v 25 c 0,2.77 -2.23,5 -5,5 H 5 C 2.23,35 0,32.77 0,30 V 5 C 0,2.23 2.23,0 5,0 Z" style="fill:#fafafa" id="rect34299"/>
    <g transform="translate(5,3)" id="g34301"/>
    <g style="font-weight:bold;font-size:6.66667px;font-family:Roboto, sans-serif;letter-spacing:2px;fill:#333333" id="text34303" transform="translate(12.5,35)" aria-label="IN">
      <path id="path34583" style="font-weight:bold;font-size:6.66667px;font-family:Roboto, sans-serif;letter-spacing:2px;fill:#333333" d="M 1.4615892,0 H 0.48502627 V -4.7395856 H 1.4615892 Z"/>
      <path id="path34585" style="font-weight:bold;font-size:6.66667px;font-family:Roboto, sans-serif;letter-spacing:2px;fill:#333333" d="M 8.2174508,0 H 7.2408878 L 5.3398452,-3.1184911 V 0 h -0.976563 v -4.7395856 h 0.976563 l 1.9042978,3.1250015 v -3.1250015 h 0.9733078 z"/>
    </g>
  </g>
  <g transform="translate(5.5,281)" id="g34315">
    <path d="M 0,0 H 34 V 10 H 0 Z" style="fill:#bbbbbb" transform="translate(0,-3)" id="rect34307"/>
    <path d="m 5,0 h 24 c 2.77,0 5,2.23 5,5 v 25 c 0,2.77 -2.23,5 -5,5 H 5 C 2.23,35 0,32.77 0,30 V 5 C 0,2.23 2.23,0 5,0 Z" style="fill:#bbbbbb" id="rect34309"/>
    <g transform="translate(5)" id="g34311"/>
    <g style="font-weight:bold;font-size:6.66667px;font-family:Roboto, sans-serif;letter-spacing:2px;fill:#333333" id="text34313" transform="translate(8.3,32)" aria-label="OUT">
      <path id="path34574" style="font-weight:bold;font-size:6.66667px;font-family:Roboto, sans-serif;letter-spacing:2px;fill:#333333" d="m 4.3164083,-2.2623709 q 0,0.6998702 -0.2473959,1.2272142 -0.247396,0.52734396 -0.7096358,0.81380243 -0.4589846,0.28645847 -1.054688,0.28645847 -0.589193,0 -1.0514328,-0.28320326 Q 0.791016,-0.50130232 0.53710963,-1.0253911 0.28320326,-1.5527351 0.27994805,-2.2363292 v -0.2343751 q 0,-0.6998701 0.25065116,-1.2304693 0.25390637,-0.5338545 0.71289099,-0.8170577 0.4622398,-0.2864585 1.054688,-0.2864585 0.5924482,0 1.0514328,0.2864585 0.4622398,0.2832032 0.7128909,0.8170577 0.2539064,0.5305992 0.2539064,1.2272141 z M 3.3268245,-2.4772147 q 0,-0.7454431 -0.2669272,-1.1328131 -0.2669272,-0.3873699 -0.7617191,-0.3873699 -0.4915367,0 -0.7584639,0.3841147 -0.2669272,0.3808596 -0.2701824,1.1197922 v 0.2311199 q 0,0.7259118 0.2669272,1.1263026 0.2669272,0.40039087 0.7682295,0.40039087 0.4915367,0 0.7552087,-0.38411477 0.263672,-0.38737 0.2669272,-1.1263026 z"/>
      <path id="path34576" style="font-weight:bold;font-size:6.66667px;font-family:Roboto, sans-serif;letter-spacing:2px;fill:#333333" d="m 10.619796,-4.7395856 v 3.1217463 q 0,0.77799515 -0.488282,1.23046932 -0.4850258,0.45247418 -1.3281252,0.45247418 -0.8300785,0 -1.31836,-0.43945334 Q 6.9967474,-0.81380247 6.9869817,-1.582032 v -3.1575536 h 0.976563 v 3.1282567 q 0,0.465495 0.2213543,0.68033887 0.2246095,0.21158865 0.6184898,0.21158865 0.8235681,0 0.836589,-0.86588582 v -3.1542984 z"/>
      <path id="path34578" style="font-weight:bold;font-size:6.66667px;font-family:Roboto, sans-serif;letter-spacing:2px;fill:#333333" d="M 16.988288,-3.9485696 H 15.536464 V 0 h -0.976563 v -3.9485696 h -1.432292 v -0.791016 h 3.860679 z"/>
    </g>
  </g>
</svg>
