<?xml version="1.0" encoding="UTF-8" standalone="no"?>
<svg
   xmlns:dc="http://purl.org/dc/elements/1.1/"
   xmlns:cc="http://creativecommons.org/ns#"
   xmlns:rdf="http://www.w3.org/1999/02/22-rdf-syntax-ns#"
   xmlns:svg="http://www.w3.org/2000/svg"
   xmlns="http://www.w3.org/2000/svg"
   xmlns:sodipodi="http://sodipodi.sourceforge.net/DTD/sodipodi-0.dtd"
   xmlns:inkscape="http://www.inkscape.org/namespaces/inkscape"
   version="1.1"
   width="75"
   height="380"
   viewBox="0 0 75 380"
   id="svg97"
   sodipodi:docname="svg_render_tmp.svg"
   inkscape:version="0.92.2 5c3e80d, 2017-08-06">
  <metadata
     id="metadata101">
    <rdf:RDF>
      <cc:Work
         rdf:about="">
        <dc:format>image/svg+xml</dc:format>
        <dc:type
           rdf:resource="http://purl.org/dc/dcmitype/StillImage" />
      </cc:Work>
    </rdf:RDF>
  </metadata>
  <sodipodi:namedview
     pagecolor="#ffffff"
     bordercolor="#666666"
     borderopacity="1"
     objecttolerance="10"
     gridtolerance="10"
     guidetolerance="10"
     inkscape:pageopacity="0"
     inkscape:pageshadow="2"
     inkscape:window-width="468"
     inkscape:window-height="449"
     id="namedview99"
     showgrid="false"
     inkscape:zoom="0.62105263"
     inkscape:cx="37.5"
     inkscape:cy="190"
     inkscape:window-x="0"
     inkscape:window-y="0"
     inkscape:window-maximized="0"
     inkscape:current-layer="svg97" />
  <style
     id="style2">
    text {
      fill: #333;
      font-family: 'Roboto', sans-serif;
      font-weight: bold;
    }
    text.title {
      font-family: 'Comfortaa', sans-serif;
      font-weight: normal;
    }
    text.brand {
      font-family: 'Audiowide', sans-serif;
      font-weight: bold;
    }
  </style>
  <defs
     id="defs57">
    <symbol
       id="knob-smallest"
       viewBox="0 0 16px 16px">
      <g
         transform="translate(8 8)"
         id="g10">
        <polyline
           points="-3,0 3,0"
           stroke-width="1"
           stroke="#00f"
           id="polyline4" />
        <polyline
           points="0,-3 0,3"
           stroke-width="1"
           stroke="#00f"
           id="polyline6" />
        <circle
           r="7.5"
           stroke-width="1"
           stroke="#00f"
           fill="none"
           id="circle8" />
      </g>
    </symbol>
    <symbol
       id="knobguide-centertick"
       viewBox="0 0 40px 40px">
      <g
         transform="translate(20 20)"
         id="g25">
        <g
           transform="rotate(-90) translate(10 0)"
           id="g15">
          <polyline
             points="0,0 4,0"
             stroke-width="1"
             stroke="#333"
             id="polyline13" />
        </g>
        <path
           d="M 0 -12.5 A 12.5 12.5 0 0 1 12.5 0"
           stroke="#333"
           stroke-width="0.5"
           stroke-linecap="round"
           fill="none"
           transform="rotate(20)"
           id="path17" />
        <path
           d="M 0 -12.5 A 12.5 12.5 0 0 1 12.5 0"
           stroke="#333"
           stroke-width="0.5"
           stroke-linecap="round"
           fill="none"
           transform="rotate(43)"
           id="path19" />
        <path
           d="M 0 -12.5 A 12.5 12.5 0 0 0 -12.5 0"
           stroke="#333"
           stroke-width="0.5"
           stroke-linecap="round"
           fill="none"
           transform="rotate(-20)"
           id="path21" />
        <path
           d="M 0 -12.5 A 12.5 12.5 0 0 0 -12.5 0"
           stroke="#333"
           stroke-width="0.5"
           stroke-linecap="round"
           fill="none"
           transform="rotate(-43)"
           id="path23" />
      </g>
    </symbol>
    <symbol
       id="knobguide-mintick"
       viewBox="0 0 40px 40px">
      <g
         transform="translate(20 20)"
         id="g40">
        <g
           transform="rotate(-240) translate(10 0)"
           id="g30">
          <polyline
             points="0,0 4,0"
             stroke-width="1"
             stroke="#333"
             id="polyline28" />
        </g>
        <path
           d="M 0 -12.5 A 12.5 12.5 0 0 1 12.5 0"
           stroke="#333"
           stroke-width="0.5"
           stroke-linecap="round"
           fill="none"
           transform="rotate(0)"
           id="path32" />
        <path
           d="M 0 -12.5 A 12.5 12.5 0 0 1 12.5 0"
           stroke="#333"
           stroke-width="0.5"
           stroke-linecap="round"
           fill="none"
           transform="rotate(43)"
           id="path34" />
        <path
           d="M 0 -12.5 A 12.5 12.5 0 0 0 -12.5 0"
           stroke="#333"
           stroke-width="0.5"
           stroke-linecap="round"
           fill="none"
           transform="rotate(0)"
           id="path36" />
        <path
           d="M 0 -12.5 A 12.5 12.5 0 0 0 -12.5 0"
           stroke="#333"
           stroke-width="0.5"
           stroke-linecap="round"
           fill="none"
           transform="rotate(-43)"
           id="path38" />
      </g>
    </symbol>
    <symbol
       id="input"
       viewBox="0 0 24px 24px">
      <g
         transform="translate(12 12)"
         id="g47">
        <circle
           cx="0"
           cy="0"
           r="5"
           stroke-width="1"
           stroke="#0f0"
           fill="#0f0"
           id="circle43" />
        <circle
           cx="0"
           cy="0"
           r="10.5"
           stroke-width="3"
           stroke="#0f0"
           fill="none"
           id="circle45" />
      </g>
    </symbol>
    <symbol
       id="output"
       viewBox="0 0 24px 24px">
      <g
         transform="translate(12 12)"
         id="g54">
        <circle
           cx="0"
           cy="0"
           r="5"
           stroke-width="1"
           stroke="#f00"
           fill="#f00"
           id="circle50" />
        <circle
           cx="0"
           cy="0"
           r="10.5"
           stroke-width="3"
           stroke="#f00"
           fill="none"
           id="circle52" />
      </g>
    </symbol>
  </defs>
  <path
     style="fill:#dddddd"
     d="M 0,0 H 75 V 380 H 0 Z"
     id="rect59" />
  <path
     style="fill:none;stroke:#e4e4e4;stroke-width:0.5"
     d="M 1,1 H 74 V 379 H 1 V 1"
     id="polyline61" />
  <path
     style="fill:none;stroke:#ebebeb;stroke-width:0.80000001"
     d="m 0.5,0.5 h 74 v 379 H 0.5 V 0.5"
     id="polyline63" />
  <path
     style="fill:none;stroke:#f2f2f2;stroke-width:1"
     d="M 0,0 H 75 V 380 H 0 V 0"
     id="polyline65" />
  <g
     aria-label="PEQ14XR"
     style="font-weight:normal;font-size:9.33333302px;font-family:Comfortaa, sans-serif;letter-spacing:1px;fill:#333333"
     id="text67">
    <path
       d="M 21.297333,14 Q 21.138667,14 21.036,13.897333 20.933333,13.794667 20.933333,13.636 V 7.0746669 q 0,-0.1586667 0.102667,-0.2613333 0.102667,-0.1026667 0.261333,-0.1026667 H 23.164 q 0.681333,0 1.213333,0.308 0.541333,0.2986667 0.84,0.84 0.298667,0.532 0.298667,1.2226666 0,0.6813333 -0.298667,1.2133335 -0.298667,0.532 -0.84,0.830666 Q 23.845333,11.424 23.164,11.424 h -1.502667 v 2.212 q 0,0.158667 -0.102666,0.261333 Q 21.456,14 21.297333,14 Z M 23.164,10.724 q 0.476,0 0.849333,-0.205333 Q 24.386667,10.304 24.592,9.9306668 24.806667,9.5573335 24.806667,9.0813335 24.806667,8.5960002 24.592,8.2226669 24.386667,7.8400002 24.013333,7.6253336 23.64,7.4106669 23.164,7.4106669 H 21.661333 V 10.724 Z"
       style="font-weight:normal;font-size:9.33333302px;font-family:Comfortaa, sans-serif;letter-spacing:1px;fill:#333333"
       id="path149" />
    <path
       d="m 28.003062,14 q -0.149333,0 -0.261333,-0.102667 -0.102667,-0.112 -0.102667,-0.261333 V 7.0746669 q 0,-0.1586667 0.102667,-0.2613333 0.112,-0.1026667 0.261333,-0.1026667 h 4.377333 q 0.158667,0 0.261334,0.1026667 0.102666,0.1026666 0.102666,0.252 0,0.1493333 -0.102666,0.252 -0.102667,0.093333 -0.261334,0.093333 h -4.013333 v 2.5759999 h 2.921334 q 0.158666,0 0.261333,0.1026662 0.102667,0.102667 0.102667,0.252 0,0.149334 -0.112,0.252 -0.102667,0.102667 -0.252,0.102667 H 28.367062 V 13.3 h 4.013333 q 0.158667,0 0.261334,0.102667 0.102666,0.09333 0.102666,0.242666 0,0.149334 -0.102666,0.252 Q 32.539062,14 32.380395,14 Z"
       style="font-weight:normal;font-size:9.33333302px;font-family:Comfortaa, sans-serif;letter-spacing:1px;fill:#333333"
       id="path151" />
    <path
       d="m 41.70952,13.393333 q 0.102667,0.102667 0.102667,0.242667 0,0.149333 -0.102667,0.252 -0.112,0.112 -0.252,0.112 -0.14,0 -0.252,-0.112 l -0.494667,-0.494667 q -0.466666,0.336 -1.045333,0.522667 -0.569333,0.177333 -1.204,0.177333 -1.064,0 -1.913333,-0.485333 -0.849334,-0.485333 -1.334667,-1.334667 -0.476,-0.858666 -0.476,-1.922666 0,-1.0640002 0.476,-1.9133335 0.485333,-0.8493333 1.334667,-1.3346666 0.849333,-0.4853333 1.913333,-0.4853333 1.054667,0 1.904,0.4853333 0.858667,0.4853333 1.334667,1.3346666 0.485333,0.8493333 0.485333,1.9133335 0,0.756 -0.252,1.418666 -0.242667,0.653334 -0.7,1.148 z m -3.248,0.0093 q 0.989333,0 1.726667,-0.522667 L 39.18952,11.881333 q -0.112,-0.112 -0.112,-0.252 0,-0.14 0.112,-0.252 0.102667,-0.102666 0.242667,-0.102666 0.149333,0 0.252,0.102666 l 1.036,1.036 q 0.354666,-0.410666 0.550666,-0.942666 0.196,-0.532 0.196,-1.12 0,-0.8493335 -0.392,-1.5400002 -0.392,-0.6999999 -1.082666,-1.1013333 -0.681334,-0.4013333 -1.530667,-0.4013333 -0.858667,0 -1.549333,0.4013333 -0.681334,0.4013334 -1.073334,1.1013333 -0.392,0.6906667 -0.392,1.5400002 0,0.858666 0.392,1.558666 0.392,0.690667 1.073334,1.092 0.690666,0.401334 1.549333,0.401334 z"
       style="font-weight:normal;font-size:9.33333302px;font-family:Comfortaa, sans-serif;letter-spacing:1px;fill:#333333"
       id="path153" />
    <path
       d="m 45.993686,14 q -0.149333,0 -0.261333,-0.102667 -0.102667,-0.112 -0.102667,-0.261333 V 7.5693336 l -0.933333,0.3266666 q -0.09333,0.046667 -0.186667,0.046667 -0.158666,0 -0.261333,-0.093333 -0.102667,-0.1026666 -0.102667,-0.2613333 0,-0.2706666 0.233334,-0.3453333 l 1.437333,-0.4946667 q 0.14,-0.046667 0.186666,-0.046667 0.149334,0 0.252,0.1026666 0.102667,0.1026667 0.102667,0.2613334 V 13.636 q 0,0.149333 -0.102667,0.261333 Q 46.152353,14 45.993686,14 Z"
       style="font-weight:normal;font-size:9.33333302px;font-family:Comfortaa, sans-serif;letter-spacing:1px;fill:#333333"
       id="path155" />
    <path
       d="m 53.582145,11.601333 q 0.354667,0 0.354667,0.336 0,0.121334 -0.112,0.224 -0.102667,0.09333 -0.242667,0.09333 H 52.844812 V 13.636 q 0,0.149333 -0.102667,0.261333 Q 52.639478,14 52.480812,14 q -0.149334,0 -0.252,-0.102667 -0.09333,-0.102666 -0.09333,-0.261333 v -1.381333 h -3.341333 q -0.158666,0 -0.261333,-0.102667 -0.102667,-0.112 -0.102667,-0.252 0,-0.112 0.07467,-0.214667 l 3.696,-4.8346661 q 0.102666,-0.1493333 0.298666,-0.1493333 0.149334,0 0.242667,0.112 0.102667,0.1026666 0.102667,0.2613333 v 4.5266661 z m -1.446667,0 V 8.0360002 l -2.734666,3.5653328 z"
       style="font-weight:normal;font-size:9.33333302px;font-family:Comfortaa, sans-serif;letter-spacing:1px;fill:#333333"
       id="path157" />
    <path
       d="m 61.427999,13.412 q 0.084,0.112 0.084,0.233333 0,0.149334 -0.09333,0.252 Q 61.325332,14 61.166665,14 q -0.186666,0 -0.28,-0.130667 L 58.655999,10.78 56.378665,13.888 Q 56.285332,14 56.117332,14 q -0.158667,0 -0.252,-0.09333 -0.09333,-0.102667 -0.09333,-0.242667 0,-0.14 0.084,-0.252 l 2.305333,-3.136 -2.156,-2.9959998 q -0.07467,-0.1213333 -0.07467,-0.224 0,-0.14 0.09333,-0.2426666 0.09333,-0.1026667 0.242666,-0.1026667 0.186667,0 0.28,0.1306667 l 2.118667,2.9306665 2.146667,-2.9306665 q 0.102666,-0.1306667 0.28,-0.1306667 0.149333,0 0.242666,0.112 0.09333,0.1026667 0.09333,0.2426667 0,0.1213333 -0.06533,0.2146666 l -2.202666,2.9866668 z"
       style="font-weight:normal;font-size:9.33333302px;font-family:Comfortaa, sans-serif;letter-spacing:1px;fill:#333333"
       id="path159" />
    <path
       d="m 68.420289,13.44 q 0.084,0.14 0.084,0.252 0,0.14 -0.102667,0.224 Q 68.298956,14 68.130956,14 q -0.112,0 -0.186667,-0.04667 -0.07467,-0.04667 -0.130667,-0.14 l -1.68,-2.669333 h -0.158666 -1.381334 v 2.492 q 0,0.158667 -0.102666,0.261333 Q 64.388289,14 64.229622,14 64.070956,14 63.968289,13.897333 63.865622,13.794667 63.865622,13.636 V 7.0746669 q 0,-0.1586667 0.102667,-0.2613333 0.102667,-0.1026667 0.261333,-0.1026667 h 1.745334 q 0.681333,0 1.213333,0.2893333 0.532,0.28 0.830667,0.7933333 0.308,0.5133334 0.308,1.1666667 0,0.7186666 -0.392,1.2599998 -0.382667,0.541333 -1.045334,0.774667 z m -2.445333,-2.996 q 0.466666,0 0.84,-0.186667 0.382666,-0.196 0.588,-0.5319995 0.214666,-0.336 0.214666,-0.7653333 0,-0.448 -0.214666,-0.8026667 -0.205334,-0.3546666 -0.578667,-0.5506666 -0.373333,-0.196 -0.849333,-0.196 H 64.593622 V 10.444 Z"
       style="font-weight:normal;font-size:9.33333302px;font-family:Comfortaa, sans-serif;letter-spacing:1px;fill:#333333"
       id="path161" />
  </g>
  <g
     aria-label="BGA"
     style="font-weight:bold;font-size:8.66666698px;font-family:Audiowide, sans-serif;letter-spacing:2px;fill:#333333"
     id="text69">
    <path
       d="m 31.694662,372.66699 q 0,0.20313 -0.07194,0.43587 -0.06771,0.23275 -0.228516,0.43165 -0.156576,0.19889 -0.410482,0.33431 Q 30.729818,374 30.361654,374 h -4.176758 q -0.11849,0 -0.220052,-0.0423 -0.101563,-0.0423 -0.177735,-0.11426 -0.07194,-0.0762 -0.114257,-0.17773 -0.04232,-0.10156 -0.04232,-0.22005 V 368.486 q 0,-0.11426 0.04232,-0.21582 0.04232,-0.10156 0.114257,-0.17773 0.07617,-0.0762 0.177735,-0.11849 0.101562,-0.0423 0.220052,-0.0423 h 3.681641 q 0.203125,0 0.435872,0.0719 0.232747,0.0719 0.431641,0.23275 0.203125,0.15657 0.33431,0.41048 0.135416,0.25391 0.135416,0.62207 v 0.20736 q 0,0.29199 -0.09733,0.63053 -0.09733,0.33431 -0.313152,0.63477 0.186198,0.11425 0.347006,0.27506 0.165039,0.16081 0.28776,0.3724 0.122721,0.21159 0.194662,0.47819 0.07194,0.2666 0.07194,0.58821 z m -1.100261,-0.21159 q 0,-0.21582 -0.06771,-0.38509 -0.06771,-0.1735 -0.19043,-0.29622 -0.122721,-0.12272 -0.296224,-0.1862 -0.173502,-0.0677 -0.389323,-0.0677 h -2.479817 v -1.10872 h 1.9847 q 0.21582,0 0.389323,-0.0635 0.173503,-0.0677 0.296224,-0.19043 0.122721,-0.12272 0.186198,-0.29199 0.06771,-0.1735 0.06771,-0.38932 v -0.20736 q 0,-0.23698 -0.228515,-0.23698 h -3.135743 v 3.86784 h 3.63086 q 0.02962,0 0.07194,-0.004 0.04232,-0.004 0.07617,-0.0254 0.03385,-0.0212 0.05925,-0.0719 0.02539,-0.0508 0.02539,-0.13965 z"
       style="font-weight:bold;font-size:8.66666698px;font-family:Audiowide, sans-serif;letter-spacing:2px;fill:#333333"
       id="path164" />
    <path
       d="m 40.634766,373.44564 q 0,0.11849 -0.04232,0.22005 -0.04232,0.10156 -0.118489,0.17773 -0.07194,0.0719 -0.173503,0.11426 Q 40.198893,374 40.080404,374 h -3.969401 q -0.152344,0 -0.330078,-0.0338 -0.173503,-0.0381 -0.347006,-0.11426 -0.169271,-0.0762 -0.325846,-0.19466 -0.156576,-0.12272 -0.279297,-0.292 -0.11849,-0.1735 -0.19043,-0.39778 -0.07194,-0.22852 -0.07194,-0.51205 v -2.97916 q 0,-0.15235 0.03385,-0.32585 0.03809,-0.17773 0.114258,-0.347 0.07617,-0.17351 0.198893,-0.33008 0.122722,-0.15658 0.291993,-0.27507 0.173502,-0.12272 0.397786,-0.19466 0.224284,-0.0719 0.507813,-0.0719 h 4.472982 v 1.10026 h -4.472982 q -0.215821,0 -0.330078,0.11426 -0.114258,0.11426 -0.114258,0.33854 v 2.9707 q 0,0.21159 0.114258,0.33008 0.118489,0.11426 0.330078,0.11426 h 3.423502 v -1.37956 H 36.60612 v -1.10872 h 3.474284 q 0.118489,0 0.220052,0.0466 0.101562,0.0423 0.173503,0.11849 0.07617,0.0762 0.118489,0.17773 0.04232,0.0973 0.04232,0.21159 z"
       style="font-weight:bold;font-size:8.66666698px;font-family:Audiowide, sans-serif;letter-spacing:2px;fill:#333333"
       id="path166" />
    <path
       d="m 49.744142,374 h -1.10026 v -1.48958 H 44.776043 V 374 h -1.10026 v -3.03418 q 0,-0.66439 0.228515,-1.22298 0.228516,-0.5586 0.634766,-0.96061 0.40625,-0.40202 0.960612,-0.62631 0.554362,-0.22428 1.210286,-0.22428 h 2.479818 q 0.114258,0 0.21582,0.0423 0.101563,0.0423 0.177735,0.11849 0.07617,0.0762 0.118489,0.17773 0.04232,0.10156 0.04232,0.21582 z m -4.968099,-2.58984 h 3.867839 v -2.37826 h -1.93392 q -0.05078,0 -0.21582,0.0169 -0.160807,0.0127 -0.376628,0.0719 -0.211588,0.0592 -0.448567,0.18196 -0.236979,0.12273 -0.435873,0.33855 -0.198893,0.21582 -0.330078,0.54166 -0.126953,0.32162 -0.126953,0.78288 z"
       style="font-weight:bold;font-size:8.66666698px;font-family:Audiowide, sans-serif;letter-spacing:2px;fill:#333333"
       id="path168" />
  </g>
  <path
     style="fill:#dddddd"
     d="m 36.5,370 h 2 v 2 h -2 z"
     id="rect71" />
  <g
     id="use75"
     transform="translate(0,18)">
    <g
       id="g141"
       transform="translate(20,20)">
      <g
         id="g131"
         transform="rotate(120,-5,2.8867513)">
        <path
           style="stroke:#333333;stroke-width:1"
           d="M 0,0 H 4"
           id="polyline129" />
      </g>
      <path
         id="path133"
         d="M 0,-12.5 A 12.5,12.5 0 0 1 12.5,0"
         inkscape:connector-curvature="0"
         style="fill:none;stroke:#333333;stroke-width:0.5;stroke-linecap:round" />
      <path
         id="path135"
         transform="rotate(43)"
         d="M 0,-12.5 A 12.5,12.5 0 0 1 12.5,0"
         inkscape:connector-curvature="0"
         style="fill:none;stroke:#333333;stroke-width:0.5;stroke-linecap:round" />
      <path
         id="path137"
         d="M 0,-12.5 A 12.5,12.5 0 0 0 -12.5,0"
         inkscape:connector-curvature="0"
         style="fill:none;stroke:#333333;stroke-width:0.5;stroke-linecap:round" />
      <path
         id="path139"
         transform="rotate(-43)"
         d="M 0,-12.5 A 12.5,12.5 0 0 0 -12.5,0"
         inkscape:connector-curvature="0"
         style="fill:none;stroke:#333333;stroke-width:0.5;stroke-linecap:round" />
    </g>
  </g>
  <g
     aria-label="DAMP"
     style="font-weight:bold;font-size:6.66666651px;font-family:Roboto, sans-serif;letter-spacing:2px;fill:#333333"
     id="text77">
    <path
       d="m 7.9231771,57 v -4.739583 h 1.4583333 q 0.6249996,0 1.1165366,0.283203 0.494791,0.279948 0.771484,0.800781 0.276693,0.517578 0.276693,1.178386 v 0.218098 q 0,0.660808 -0.273438,1.175131 -0.270182,0.514323 -0.764974,0.797526 Q 10.013021,56.996745 9.391276,57 Z m 0.9765624,-3.948568 v 3.164063 h 0.4720052 q 0.5729167,0 0.8756513,-0.374349 0.302734,-0.374349 0.309245,-1.070964 v -0.250651 q 0,-0.722656 -0.29948,-1.09375 -0.2994788,-0.374349 -0.8756506,-0.374349 z"
       style="font-weight:bold;font-size:6.66666651px;font-family:Roboto, sans-serif;letter-spacing:2px;fill:#333333"
       id="path173" />
    <path
       d="M 16.869791,56.023438 H 15.157552 L 14.832031,57 h -1.038412 l 1.764323,-4.739583 H 16.46289 L 18.236979,57 h -1.038412 z m -1.448567,-0.791016 h 1.184895 l -0.595703,-1.774089 z"
       style="font-weight:bold;font-size:6.66666651px;font-family:Roboto, sans-serif;letter-spacing:2px;fill:#333333"
       id="path175" />
    <path
       d="m 21.962239,52.260417 1.217448,3.4375 1.210938,-3.4375 h 1.282552 V 57 H 24.693359 V 55.704427 L 24.791015,53.468099 23.511718,57 h -0.670573 l -1.276041,-3.528646 0.09766,2.233073 V 57 h -0.976562 v -4.739583 z"
       style="font-weight:bold;font-size:6.66666651px;font-family:Roboto, sans-serif;letter-spacing:2px;fill:#333333"
       id="path177" />
    <path
       d="M 29.509115,55.330078 V 57 h -0.976563 v -4.739583 h 1.848958 q 0.533855,0 0.9375,0.195312 0.406901,0.195313 0.625,0.556641 0.218099,0.358073 0.218099,0.817057 0,0.696615 -0.478515,1.100261 -0.475261,0.40039 -1.31836,0.40039 z m 0,-0.791015 h 0.872395 q 0.38737,0 0.589193,-0.182292 0.205078,-0.182292 0.205078,-0.520833 0,-0.348308 -0.205078,-0.563151 -0.205078,-0.214844 -0.566406,-0.221355 h -0.895182 z"
       style="font-weight:bold;font-size:6.66666651px;font-family:Roboto, sans-serif;letter-spacing:2px;fill:#333333"
       id="path179" />
  </g>
  <path
     style="fill:#fafafa"
     d="m 10,60 h 20 c 2.77,0 5,2.23 5,5 v 20 c 0,2.77 -2.23,5 -5,5 H 10 C 7.23,90 5,87.77 5,85 V 65 c 0,-2.77 2.23,-5 5,-5 z"
     id="rect79" />
  <g
     id="use83"
     transform="translate(35,17.5)">
    <g
       id="g125"
       transform="translate(20,20)">
      <g
         id="g115"
         transform="rotate(-90,-5,-5)">
        <path
           style="stroke:#333333;stroke-width:1"
           d="M 0,0 H 4"
           id="polyline113" />
      </g>
      <path
         id="path117"
         transform="rotate(20)"
         d="M 0,-12.5 A 12.5,12.5 0 0 1 12.5,0"
         inkscape:connector-curvature="0"
         style="fill:none;stroke:#333333;stroke-width:0.5;stroke-linecap:round" />
      <path
         id="path119"
         transform="rotate(43)"
         d="M 0,-12.5 A 12.5,12.5 0 0 1 12.5,0"
         inkscape:connector-curvature="0"
         style="fill:none;stroke:#333333;stroke-width:0.5;stroke-linecap:round" />
      <path
         id="path121"
         transform="rotate(-20)"
         d="M 0,-12.5 A 12.5,12.5 0 0 0 -12.5,0"
         inkscape:connector-curvature="0"
         style="fill:none;stroke:#333333;stroke-width:0.5;stroke-linecap:round" />
      <path
         id="path123"
         transform="rotate(-43)"
         d="M 0,-12.5 A 12.5,12.5 0 0 0 -12.5,0"
         inkscape:connector-curvature="0"
         style="fill:none;stroke:#333333;stroke-width:0.5;stroke-linecap:round" />
    </g>
  </g>
  <g
     aria-label="GAIN"
     style="font-weight:bold;font-size:6.66666651px;font-family:Roboto, sans-serif;letter-spacing:2px;fill:#333333"
     id="text85">
    <path
       d="m 48.173177,55.901042 q -0.263672,0.315755 -0.745443,0.491536 -0.481771,0.172526 -1.067708,0.172526 -0.615234,0 -1.080729,-0.266927 -0.46224,-0.270182 -0.716146,-0.78125 Q 44.3125,55.005859 44.30599,54.315755 V 53.99349 q 0,-0.709636 0.23763,-1.227214 0.240885,-0.520833 0.690104,-0.794271 0.452474,-0.276692 1.057943,-0.276692 0.843099,0 1.318359,0.403645 0.47526,0.400391 0.563151,1.16862 h -0.950521 q -0.0651,-0.406901 -0.289713,-0.595703 -0.221355,-0.188802 -0.61198,-0.188802 -0.498046,0 -0.758463,0.374349 -0.260417,0.374349 -0.263672,1.113281 v 0.302735 q 0,0.745442 0.283203,1.126302 0.283203,0.380859 0.830078,0.380859 0.550131,0 0.784506,-0.234375 v -0.817057 h -0.888672 v -0.719401 h 1.865234 z"
       style="font-weight:bold;font-size:6.66666651px;font-family:Roboto, sans-serif;letter-spacing:2px;fill:#333333"
       id="path184" />
    <path
       d="m 53.643229,55.523438 h -1.71224 L 51.605468,56.5 h -1.038411 l 1.764323,-4.739583 h 0.904948 L 55.010416,56.5 h -1.038411 z m -1.448568,-0.791016 h 1.184896 l -0.595703,-1.774089 z"
       style="font-weight:bold;font-size:6.66666651px;font-family:Roboto, sans-serif;letter-spacing:2px;fill:#333333"
       id="path186" />
    <path
       d="m 58.498047,56.5 h -0.976563 v -4.739583 h 0.976563 z"
       style="font-weight:bold;font-size:6.66666651px;font-family:Roboto, sans-serif;letter-spacing:2px;fill:#333333"
       id="path188" />
    <path
       d="M 65.253906,56.5 H 64.277344 L 62.376302,53.38151 V 56.5 H 61.39974 v -4.739583 h 0.976562 l 1.904297,3.125 v -3.125 h 0.973307 z"
       style="font-weight:bold;font-size:6.66666651px;font-family:Roboto, sans-serif;letter-spacing:2px;fill:#333333"
       id="path190" />
  </g>
  <path
     style="fill:#fafafa"
     d="m 45,59.5 h 20 c 2.77,0 5,2.23 5,5 v 20 c 0,2.77 -2.23,5 -5,5 H 45 c -2.77,0 -5,-2.23 -5,-5 v -20 c 0,-2.77 2.23,-5 5,-5 z"
     id="rect87" />
  <path
     style="fill:#bbbbbb"
     d="m 25.5,318 h 24 c 2.77,0 5,2.23 5,5 v 32 c 0,2.77 -2.23,5 -5,5 h -24 c -2.77,0 -5,-2.23 -5,-5 v -32 c 0,-2.77 2.23,-5 5,-5 z"
     id="rect91" />
  <g
     aria-label="OUT"
     style="font-weight:bold;font-size:6.66666651px;font-family:Roboto, sans-serif;letter-spacing:2px;fill:#333333"
     id="text93">
    <path
       d="m 33.316406,352.73763 q 0,0.69987 -0.247396,1.22721 -0.247396,0.52735 -0.709635,0.81381 -0.458984,0.28645 -1.054688,0.28645 -0.589192,0 -1.051432,-0.2832 -0.462239,-0.2832 -0.716146,-0.80729 -0.253906,-0.52734 -0.257161,-1.21094 v -0.23437 q 0,-0.69987 0.250651,-1.23047 0.253906,-0.53386 0.712891,-0.81706 0.462239,-0.28646 1.054687,-0.28646 0.592448,0 1.051432,0.28646 0.46224,0.2832 0.712891,0.81706 0.253906,0.5306 0.253906,1.22721 z m -0.989583,-0.21484 q 0,-0.74545 -0.266927,-1.13282 -0.266927,-0.38737 -0.761719,-0.38737 -0.491536,0 -0.758463,0.38412 -0.266928,0.38086 -0.270183,1.11979 v 0.23112 q 0,0.72591 0.266927,1.1263 0.266927,0.40039 0.768229,0.40039 0.491537,0 0.755209,-0.38411 0.263672,-0.38737 0.266927,-1.1263 z"
       style="font-weight:bold;font-size:6.66666651px;font-family:Roboto, sans-serif;letter-spacing:2px;fill:#333333"
       id="path195" />
    <path
       d="m 39.619792,350.26042 v 3.12174 q 0,0.778 -0.488282,1.23047 -0.485026,0.45247 -1.328125,0.45247 -0.830078,0 -1.318359,-0.43945 -0.488281,-0.43945 -0.498047,-1.20768 v -3.15755 h 0.976563 v 3.12825 q 0,0.4655 0.221354,0.68034 0.224609,0.21159 0.618489,0.21159 0.823568,0 0.836589,-0.86589 v -3.15429 z"
       style="font-weight:bold;font-size:6.66666651px;font-family:Roboto, sans-serif;letter-spacing:2px;fill:#333333"
       id="path197" />
    <path
       d="M 45.988281,351.05143 H 44.536458 V 355 h -0.976563 v -3.94857 h -1.432291 v -0.79101 h 3.860677 z"
       style="font-weight:bold;font-size:6.66666651px;font-family:Roboto, sans-serif;letter-spacing:2px;fill:#333333"
       id="path199" />
  </g>
</svg>
