<?xml version="1.0" encoding="UTF-8" standalone="no"?>
<svg xmlns:dc="http://purl.org/dc/elements/1.1/" xmlns:cc="http://creativecommons.org/ns#" xmlns:rdf="http://www.w3.org/1999/02/22-rdf-syntax-ns#" xmlns:svg="http://www.w3.org/2000/svg" xmlns="http://www.w3.org/2000/svg" xmlns:sodipodi="http://sodipodi.sourceforge.net/DTD/sodipodi-0.dtd" xmlns:inkscape="http://www.inkscape.org/namespaces/inkscape" inkscape:version="1.0 (4035a4f, 2020-05-01)" sodipodi:docname="svg_render_PEQ14XF-pp.svg" id="svg42796" viewBox="0 0 75 380" height="380" width="75" version="1.1">
  <metadata id="metadata42802">
    <rdf:RDF>
      <cc:Work rdf:about="">
        <dc:format>image/svg+xml</dc:format>
        <dc:type rdf:resource="http://purl.org/dc/dcmitype/StillImage"/>
      </cc:Work>
    </rdf:RDF>
  </metadata>
  <defs id="defs42800"/>
  <sodipodi:namedview inkscape:current-layer="svg42796" inkscape:window-maximized="0" inkscape:window-y="23" inkscape:window-x="0" inkscape:cy="190" inkscape:cx="37.5" inkscape:zoom="1.7605263" showgrid="false" id="namedview42798" inkscape:window-height="480" inkscape:window-width="689" inkscape:pageshadow="2" inkscape:pageopacity="0" guidetolerance="10" gridtolerance="10" objecttolerance="10" borderopacity="1" bordercolor="#666666" pagecolor="#ffffff"/>
  
  <svg version="1.1" id="svg42656" width="100%" height="100%">
    <path class="module-background background-fill" d="M 0,0 H 75 V 380 H 0 Z" style="fill:#dddddd" id="rect42654"/>
  </svg>
  <svg version="1.1" id="svg42664" width="100%" height="100%">
    <path class="module-border-inner" d="M 1,1 H 74 V 379 H 1 V 1" style="fill:none;stroke:#e4e4e4;stroke-width:0.5" id="polyline42658"/>
    <path class="module-border-middle" d="m 0.5,0.5 h 74 v 379 H 0.5 V 0.5" style="fill:none;stroke:#ebebeb;stroke-width:0.8" id="polyline42660"/>
    <path class="module-border-outer" d="M 0,0 H 75 V 380 H 0 V 0" style="fill:none;stroke:#f2f2f2;stroke-width:1" id="polyline42662"/>
  </svg>
  <g class="title" style="font-weight:normal;font-size:12px;font-family:Comfortaa, sans-serif;letter-spacing:3px;text-anchor:end;fill:#333333" id="text42666" aria-label="PEQ14XF">
    <path id="path42959" style="font-weight:normal;font-size:12px;font-family:Comfortaa, sans-serif;letter-spacing:3px;text-anchor:end;fill:#333333" d="m -3.316375,17 q -0.204,0 -0.336,-0.132 -0.132,-0.132 -0.132,-0.336 V 8.096 q 0,-0.204 0.132,-0.336 0.132,-0.132 0.336,-0.132 h 2.4 q 0.876,0 1.56,0.396 0.696,0.384 1.08,1.08 0.384,0.684 0.384,1.572 0,0.876 -0.384,1.56 -0.384,0.684 -1.08,1.068 -0.684,0.384 -1.56,0.384 h -1.932 v 2.844 q 0,0.204 -0.132,0.336 -0.132,0.132 -0.336,0.132 z m 2.4,-4.212 q 0.612,0 1.092,-0.264 0.48,-0.276 0.744,-0.756 0.276,-0.48 0.276,-1.092 0,-0.624 -0.276,-1.104 -0.264,-0.492 -0.744,-0.768 -0.48,-0.276 -1.092,-0.276 h -1.932 v 4.26 z"/>
    <path id="path42961" style="font-weight:normal;font-size:12px;font-family:Comfortaa, sans-serif;letter-spacing:3px;text-anchor:end;fill:#333333" d="m 7.0195625,17 q -0.192,0 -0.336,-0.132 -0.132,-0.144 -0.132,-0.336 V 8.096 q 0,-0.204 0.132,-0.336 0.144,-0.132 0.336,-0.132 h 5.6279995 q 0.204001,0 0.336001,0.132 0.131999,0.132 0.131999,0.324 0,0.192 -0.131999,0.324 -0.132,0.12 -0.336001,0.12 H 7.4875625 v 3.312 h 3.7559995 q 0.204001,0 0.336001,0.132 0.131999,0.132 0.131999,0.324 0,0.192 -0.143999,0.324 -0.132,0.132 -0.324001,0.132 H 7.4875625 V 16.1 h 5.1599995 q 0.204001,0 0.336001,0.132 0.131999,0.12 0.131999,0.312 0,0.192 -0.131999,0.324 Q 12.851563,17 12.647562,17 Z"/>
    <path id="path42963" style="font-weight:normal;font-size:12px;font-family:Comfortaa, sans-serif;letter-spacing:3px;text-anchor:end;fill:#333333" d="m 26.356437,16.22 q 0.132,0.132 0.132,0.312 0,0.192 -0.132,0.324 -0.144,0.144 -0.324,0.144 -0.18,0 -0.323999,-0.144 L 25.072437,16.22 q -0.6,0.432 -1.344,0.672 -0.732,0.228 -1.548,0.228 -1.367999,0 -2.46,-0.624 -1.092,-0.624 -1.715999,-1.716 -0.612001,-1.104 -0.612001,-2.472 0,-1.368 0.612001,-2.46 0.623999,-1.092 1.715999,-1.716 1.092001,-0.624 2.46,-0.624 1.356001,0 2.448,0.624 1.104,0.624 1.716001,1.716 0.623999,1.092 0.623999,2.46 0,0.972 -0.324,1.824 -0.312,0.84 -0.9,1.476 z m -4.176,0.012 q 1.272001,0 2.220001,-0.672 l -1.284001,-1.284 q -0.144,-0.144 -0.144,-0.324 0,-0.18 0.144,-0.324 0.132001,-0.132 0.312,-0.132 0.192001,0 0.324,0.132 l 1.332,1.332 q 0.456,-0.528 0.708,-1.212 0.252,-0.684 0.252,-1.44 0,-1.092 -0.504,-1.98 -0.503999,-0.9 -1.392,-1.416 -0.875999,-0.516 -1.968,-0.516 -1.104,0 -1.992,0.516 -0.875999,0.516 -1.38,1.416 -0.504,0.888 -0.504,1.98 0,1.104 0.504,2.004 0.504001,0.888 1.38,1.404 0.888,0.516 1.992,0.516 z"/>
    <path id="path42965" style="font-weight:normal;font-size:12px;font-family:Comfortaa, sans-serif;letter-spacing:3px;text-anchor:end;fill:#333333" d="m 33.578938,17 q -0.192,0 -0.336001,-0.132 -0.132,-0.144 -0.132,-0.336 v -7.8 l -1.2,0.42 q -0.12,0.06 -0.24,0.06 -0.204,0 -0.336,-0.12 -0.132,-0.132 -0.132,-0.336 0,-0.348 0.300001,-0.444 l 1.847999,-0.636 q 0.18,-0.06 0.240001,-0.06 0.192,0 0.323999,0.132 0.132,0.132 0.132,0.336 v 8.448 q 0,0.192 -0.132,0.336 Q 33.782938,17 33.578938,17 Z"/>
    <path id="path42967" style="font-weight:normal;font-size:12px;font-family:Comfortaa, sans-serif;letter-spacing:3px;text-anchor:end;fill:#333333" d="m 45.049813,13.916 q 0.455999,0 0.455999,0.432 0,0.156 -0.144,0.288 -0.131999,0.12 -0.311999,0.12 h -0.948001 v 1.776 q 0,0.192 -0.131999,0.336 Q 43.837812,17 43.633812,17 q -0.192,0 -0.324,-0.132 -0.119999,-0.132 -0.119999,-0.336 v -1.776 h -4.296 q -0.204,0 -0.336001,-0.132 -0.132,-0.144 -0.132,-0.324 0,-0.144 0.096,-0.276 l 4.751999,-6.216 q 0.132,-0.192 0.384,-0.192 0.192,0 0.312001,0.144 0.131999,0.132 0.131999,0.336 v 5.82 z m -1.86,0 V 9.332 l -3.516001,4.584 z"/>
    <path id="path42969" style="font-weight:normal;font-size:12px;font-family:Comfortaa, sans-serif;letter-spacing:3px;text-anchor:end;fill:#333333" d="m 56.851625,16.244 q 0.108,0.144 0.108,0.3 0,0.192 -0.12,0.324 -0.12,0.132 -0.324,0.132 -0.24,0 -0.36,-0.168 l -2.868,-3.972 -2.928,3.996 q -0.12,0.144 -0.336,0.144 -0.204,0 -0.324,-0.12 -0.12,-0.132 -0.12,-0.312 0,-0.18 0.108,-0.324 l 2.964,-4.032 -2.772,-3.852 q -0.096,-0.156 -0.096,-0.288 0,-0.18 0.12,-0.312 0.12,-0.132 0.312,-0.132 0.24,0 0.36,0.168 l 2.724,3.768 2.76,-3.768 q 0.132,-0.168 0.36,-0.168 0.192,0 0.312,0.144 0.12,0.132 0.12,0.312 0,0.156 -0.084,0.276 l -2.832,3.84 z"/>
    <path id="path42971" style="font-weight:normal;font-size:12px;font-family:Comfortaa, sans-serif;letter-spacing:3px;text-anchor:end;fill:#333333" d="m 61.424,17 q -0.192,0 -0.336,-0.132 -0.132,-0.144 -0.132,-0.336 V 8.096 q 0,-0.204 0.132,-0.336 0.144,-0.132 0.336,-0.132 h 5.628 q 0.204,0 0.336,0.132 0.132,0.132 0.132,0.324 0,0.192 -0.132,0.324 -0.132,0.12 -0.336,0.12 h -5.16 v 3.312 h 3.756 q 0.204,0 0.336,0.132 0.132,0.12 0.132,0.324 0,0.192 -0.132,0.324 -0.132,0.132 -0.336,0.132 h -3.756 v 3.78 q 0,0.192 -0.132,0.336 Q 61.628,17 61.424,17 Z"/>
  </g>
  <g transform="translate(25,374)" id="g42672">
    <g class="brand" style="font-weight:bold;font-size:8.66667px;font-family:Audiowide, sans-serif;letter-spacing:2px;fill:#333333" id="text42668" aria-label="BGA">
      <path id="path42951" style="font-weight:bold;font-size:8.66667px;font-family:Audiowide, sans-serif;letter-spacing:2px;fill:#333333" d="m 6.6946639,-1.3330083 q 0,0.2031251 -0.07194,0.43587255 -0.067708,0.23274749 -0.2285157,0.43164079 -0.1565756,0.1988933 -0.4104819,0.33431002 Q 5.7298198,0 5.3616556,0 H 1.1848963 Q 1.0664066,0 0.9648441,-0.04231772 0.86328157,-0.08463545 0.78710966,-0.15657558 0.71516953,-0.23274748 0.67285181,-0.33431002 0.63053409,-0.43587256 0.63053409,-0.55436218 V -5.5139994 q 0,-0.1142579 0.0423177,-0.2158204 0.0423177,-0.1015625 0.11425785,-0.1777345 0.0761719,-0.076172 0.17773444,-0.1184896 0.1015625,-0.042318 0.2200522,-0.042318 h 3.6816419 q 0.2031251,0 0.4358726,0.07194 0.2327475,0.07194 0.4316408,0.2327475 0.2031251,0.1565756 0.33431,0.4104819 0.1354167,0.2539064 0.1354167,0.6220706 v 0.2073568 q 0,0.2919923 -0.097331,0.6305341 -0.097331,0.33431 -0.3131512,0.6347659 0.186198,0.1142578 0.3470053,0.2750652 0.1650392,0.1608073 0.2877606,0.3723959 0.1227214,0.2115887 0.1946615,0.4781903 0.07194,0.2666017 0.07194,0.5882164 z M 5.5944031,-1.5445969 q 0,-0.2158204 -0.067708,-0.3850913 Q 5.4589864,-2.1031909 5.336265,-2.2259123 5.2135436,-2.3486337 5.0400409,-2.4121103 4.8665382,-2.4798186 4.6507179,-2.4798186 H 2.1708992 V -3.588543 h 1.9847013 q 0.2158204,0 0.389323,-0.063477 0.1735027,-0.067708 0.2962241,-0.1904297 0.1227214,-0.1227214 0.186198,-0.2919923 0.067708,-0.1735027 0.067708,-0.3893231 v -0.2073568 q 0,-0.2369793 -0.2285158,-0.2369793 H 1.7307949 v 3.86784 h 3.6308607 q 0.029622,0 0.07194,-0.00423 0.042318,-0.00423 0.076172,-0.025391 0.033854,-0.021159 0.059245,-0.07194 0.025391,-0.050781 0.025391,-0.1396484 z"/>
      <path id="path42953" style="font-weight:bold;font-size:8.66667px;font-family:Audiowide, sans-serif;letter-spacing:2px;fill:#333333" d="m 15.63477,-0.55436218 q 0,0.11848962 -0.04232,0.22005216 -0.04232,0.10156254 -0.118489,0.17773444 -0.07194,0.07194013 -0.173503,0.11425786 Q 15.198897,0 15.080408,0 h -3.969403 q -0.152344,0 -0.330078,-0.03385418 -0.173503,-0.03808595 -0.347005,-0.11425785 -0.169271,-0.0761719 -0.325847,-0.19466153 -0.1565754,-0.1227214 -0.2792967,-0.2919923 -0.1184897,-0.17350267 -0.1904298,-0.39778664 -0.07194,-0.2285157 -0.07194,-0.5120444 v -2.9791678 q 0,-0.1523438 0.033854,-0.3258465 0.038086,-0.1777344 0.1142579,-0.3470053 0.076172,-0.1735027 0.1988933,-0.3300782 0.1227213,-0.1565756 0.2919923,-0.2750652 0.173503,-0.1227214 0.397787,-0.1946616 0.224284,-0.07194 0.507812,-0.07194 h 4.472984 v 1.1002608 h -4.472984 q -0.21582,0 -0.330078,0.1142579 -0.114258,0.1142578 -0.114258,0.3385418 v 2.9707042 q 0,0.2115886 0.114258,0.3300782 0.11849,0.1142579 0.330078,0.1142579 h 3.423504 V -2.4798186 H 11.606123 V -3.588543 h 3.474285 q 0.118489,0 0.220052,0.04655 0.101562,0.042318 0.173503,0.1184896 0.07617,0.076172 0.118489,0.1777345 0.04232,0.097331 0.04232,0.2115886 z"/>
      <path id="path42955" style="font-weight:bold;font-size:8.66667px;font-family:Audiowide, sans-serif;letter-spacing:2px;fill:#333333" d="m 24.744148,0 h -1.100261 v -1.4895839 h -3.86784 V 0 h -1.10026 v -3.0341808 q 0,-0.6643883 0.228515,-1.2229822 0.228516,-0.558594 0.634766,-0.9606124 0.40625,-0.4020183 0.960612,-0.6263023 0.554363,-0.2242839 1.210287,-0.2242839 h 2.479819 q 0.114258,0 0.21582,0.042318 0.101563,0.042318 0.177735,0.1184896 0.07617,0.076172 0.118489,0.1777345 0.04232,0.1015625 0.04232,0.2158204 z m -4.968101,-2.5898447 h 3.86784 v -2.3782561 h -1.93392 q -0.05078,0 -0.21582,0.016927 -0.160807,0.012695 -0.376628,0.07194 -0.211588,0.059245 -0.448568,0.1819663 -0.236979,0.1227214 -0.435872,0.3385417 -0.198894,0.2158204 -0.330078,0.5416669 -0.126954,0.3216147 -0.126954,0.7828779 z"/>
    </g>
    <path d="M 0,0 H 2 V 2 H 0 Z" style="fill:#dddddd" transform="translate(11.5,-4)" id="rect42670"/>
  </g>
  <g transform="translate(12,30)" id="g42676"/>
  <g transform="translate(0,18)" id="g42694">
    <svg version="1.1" id="svg42692" width="100%" height="100%">
      <g transform="translate(20,20)" id="g42690">
        <g transform="rotate(120,-5,2.8867513)" id="g42680">
          <path d="M 0,0 H 4" style="stroke:#333333;stroke-width:1" id="polyline42678"/>
        </g>
        <path d="M 0,-12.5 A 12.5,12.5 0 0 1 12.5,0" stroke="#333333" stroke-width="0.5" stroke-linecap="round" fill="none" id="path42682"/>
        <path d="M 0,-12.5 A 12.5,12.5 0 0 1 12.5,0" stroke="#333333" stroke-width="0.5" stroke-linecap="round" fill="none" transform="rotate(43)" id="path42684"/>
        <path d="M 0,-12.5 A 12.5,12.5 0 0 0 -12.5,0" stroke="#333333" stroke-width="0.5" stroke-linecap="round" fill="none" id="path42686"/>
        <path d="M 0,-12.5 A 12.5,12.5 0 0 0 -12.5,0" stroke="#333333" stroke-width="0.5" stroke-linecap="round" fill="none" transform="rotate(-43)" id="path42688"/>
      </g>
    </svg>
  </g>
  <g style="font-weight:bold;font-size:6.66667px;font-family:Roboto, sans-serif;letter-spacing:2px;fill:#333333" id="text42696" aria-label="DAMP">
    <path id="path42941" style="font-weight:bold;font-size:6.66667px;font-family:Roboto, sans-serif;letter-spacing:2px;fill:#333333" d="m 7.9231773,57 v -4.739586 h 1.458334 q 0.6250007,0 1.1165367,0.283204 0.494792,0.279948 0.771485,0.800781 0.276693,0.517579 0.276693,1.178386 v 0.218099 q 0,0.660808 -0.273438,1.175131 -0.270182,0.514323 -0.764974,0.797527 Q 10.013022,56.996745 9.3912769,57 Z m 0.976563,-3.94857 v 3.164064 h 0.4720054 q 0.5729169,0 0.8756513,-0.374349 0.302735,-0.374349 0.309245,-1.070964 V 54.51953 q 0,-0.722657 -0.299479,-1.09375 -0.2994795,-0.37435 -0.8756517,-0.37435 z"/>
    <path id="path42943" style="font-weight:bold;font-size:6.66667px;font-family:Roboto, sans-serif;letter-spacing:2px;fill:#333333" d="m 16.869795,56.023437 h -1.71224 L 14.832034,57 h -1.038412 l 1.764324,-4.739586 h 0.904948 L 18.236983,57 h -1.038412 z m -1.448568,-0.791016 h 1.184896 L 16.01042,53.458332 Z"/>
    <path id="path42945" style="font-weight:bold;font-size:6.66667px;font-family:Roboto, sans-serif;letter-spacing:2px;fill:#333333" d="m 21.962245,52.260414 1.217448,3.437502 1.210938,-3.437502 h 1.282553 V 57 H 24.693366 V 55.704426 L 24.791022,53.468097 23.511725,57 h -0.670573 l -1.276043,-3.528648 0.09766,2.233074 V 57 h -0.976563 v -4.739586 z"/>
    <path id="path42947" style="font-weight:bold;font-size:6.66667px;font-family:Roboto, sans-serif;letter-spacing:2px;fill:#333333" d="M 29.509123,55.330077 V 57 H 28.53256 v -4.739586 h 1.848959 q 0.533855,0 0.937501,0.195313 0.406901,0.195313 0.625,0.556641 0.218099,0.358073 0.218099,0.817058 0,0.696614 -0.478516,1.100261 -0.475261,0.40039 -1.31836,0.40039 z m 0,-0.791016 h 0.872396 q 0.38737,0 0.589193,-0.182291 0.205078,-0.182292 0.205078,-0.520834 0,-0.348307 -0.205078,-0.563151 -0.205078,-0.214844 -0.566406,-0.221355 h -0.895183 z"/>
  </g>
  <path d="m 10,60 h 20 c 2.77,0 5,2.23 5,5 v 20 c 0,2.77 -2.23,5 -5,5 H 10 C 7.23,90 5,87.77 5,85 V 65 c 0,-2.77 2.23,-5 5,-5 z" style="fill:#fafafa" id="rect42698"/>
  <g transform="translate(8,63)" id="g42700"/>
  <g transform="translate(47,29.5)" id="g42704"/>
  <g transform="translate(35,17.5)" id="g42722">
    <svg version="1.1" id="svg42720" width="100%" height="100%">
      <g transform="translate(20,20)" id="g42718">
        <g transform="rotate(-90,-5,-5)" id="g42708">
          <path d="M 0,0 H 4" style="stroke:#333333;stroke-width:1" id="polyline42706"/>
        </g>
        <path d="M 0,-12.5 A 12.5,12.5 0 0 1 12.5,0" stroke="#333333" stroke-width="0.5" stroke-linecap="round" fill="none" transform="rotate(20)" id="path42710"/>
        <path d="M 0,-12.5 A 12.5,12.5 0 0 1 12.5,0" stroke="#333333" stroke-width="0.5" stroke-linecap="round" fill="none" transform="rotate(43)" id="path42712"/>
        <path d="M 0,-12.5 A 12.5,12.5 0 0 0 -12.5,0" stroke="#333333" stroke-width="0.5" stroke-linecap="round" fill="none" transform="rotate(-20)" id="path42714"/>
        <path d="M 0,-12.5 A 12.5,12.5 0 0 0 -12.5,0" stroke="#333333" stroke-width="0.5" stroke-linecap="round" fill="none" transform="rotate(-43)" id="path42716"/>
      </g>
    </svg>
  </g>
  <g style="font-weight:bold;font-size:6.66667px;font-family:Roboto, sans-serif;letter-spacing:2px;fill:#333333" id="text42724" aria-label="GAIN">
    <path id="path42930" style="font-weight:bold;font-size:6.66667px;font-family:Roboto, sans-serif;letter-spacing:2px;fill:#333333" d="m 48.173179,55.901041 q -0.263672,0.315756 -0.745443,0.491537 -0.481771,0.172526 -1.067709,0.172526 -0.615235,0 -1.08073,-0.266927 -0.462239,-0.270182 -0.716146,-0.78125 Q 44.3125,55.005859 44.30599,54.315754 v -0.322266 q 0,-0.709635 0.23763,-1.227214 0.240886,-0.520833 0.690105,-0.794271 0.452474,-0.276693 1.057943,-0.276693 0.843099,0 1.31836,0.403646 0.47526,0.400391 0.563151,1.168621 h -0.950521 q -0.0651,-0.406902 -0.289714,-0.595704 -0.221354,-0.188802 -0.611979,-0.188802 -0.498047,0 -0.758464,0.374349 -0.260417,0.374349 -0.263672,1.113282 v 0.302734 q 0,0.745444 0.283203,1.126303 0.283203,0.38086 0.830079,0.38086 0.55013,0 0.784505,-0.234375 v -0.817058 h -0.888672 v -0.719402 h 1.865235 z"/>
    <path id="path42932" style="font-weight:bold;font-size:6.66667px;font-family:Roboto, sans-serif;letter-spacing:2px;fill:#333333" d="M 53.643233,55.523437 H 51.930992 L 51.605471,56.5 h -1.038412 l 1.764324,-4.739586 h 0.904948 L 55.010421,56.5 h -1.038412 z m -1.448569,-0.791016 h 1.184897 l -0.595704,-1.774089 z"/>
    <path id="path42934" style="font-weight:bold;font-size:6.66667px;font-family:Roboto, sans-serif;letter-spacing:2px;fill:#333333" d="m 58.498052,56.5 h -0.976563 v -4.739586 h 0.976563 z"/>
    <path id="path42936" style="font-weight:bold;font-size:6.66667px;font-family:Roboto, sans-serif;letter-spacing:2px;fill:#333333" d="M 65.253914,56.5 H 64.277351 L 62.376308,53.381509 V 56.5 h -0.976562 v -4.739586 h 0.976562 l 1.904298,3.125002 v -3.125002 h 0.973308 z"/>
  </g>
  <path d="m 45,59.5 h 20 c 2.77,0 5,2.23 5,5 v 20 c 0,2.77 -2.23,5 -5,5 H 45 c -2.77,0 -5,-2.23 -5,-5 v -20 c 0,-2.77 2.23,-5 5,-5 z" style="fill:#fafafa" id="rect42726"/>
  <g transform="translate(43,62.5)" id="g42728"/>
  <path d="m 10.5,98 h 54 c 2.77,0 5,2.23 5,5 v 250 c 0,2.77 -2.23,5 -5,5 h -54 c -2.77,0 -5,-2.23 -5,-5 V 103 c 0,-2.77 2.23,-5 5,-5 z" style="fill:#bbbbbb" id="rect42732"/>
  <g style="font-weight:bold;font-size:6.66667px;font-family:Roboto, sans-serif;letter-spacing:2px;fill:#333333" id="text42734" aria-label="EF">
    <path id="path42923" style="font-weight:bold;font-size:6.66667px;font-family:Roboto, sans-serif;letter-spacing:2px;fill:#333333" d="M 35.774741,105.94596 H 33.89974 v 1.26953 h 2.200522 V 108 h -3.177085 v -4.73959 h 3.170575 v 0.79102 H 33.89974 v 1.12956 h 1.875001 z"/>
    <path id="path42925" style="font-weight:bold;font-size:6.66667px;font-family:Roboto, sans-serif;letter-spacing:2px;fill:#333333" d="M 41.524743,106.06315 H 39.649742 V 108 h -0.976563 v -4.73959 h 3.085939 v 0.79102 h -2.109376 v 1.22396 h 1.875001 z"/>
  </g>
  <g transform="translate(10.5,111)" id="g42736"/>
  <g style="font-weight:bold;font-size:6.66667px;font-family:Roboto, sans-serif;letter-spacing:2px;fill:#333333" id="text42738" aria-label="1">
    <path id="path42920" style="font-weight:bold;font-size:6.66667px;font-family:Roboto, sans-serif;letter-spacing:2px;fill:#333333" d="m 23.107423,143 h -0.940756 v -3.6263 l -1.123047,0.3483 v -0.76497 l 1.962892,-0.70313 h 0.100911 z"/>
  </g>
  <g transform="translate(10.5,146)" id="g42740"/>
  <g style="font-weight:bold;font-size:6.66667px;font-family:Roboto, sans-serif;letter-spacing:2px;fill:#333333" id="text42742" aria-label="2">
    <path id="path42917" style="font-weight:bold;font-size:6.66667px;font-family:Roboto, sans-serif;letter-spacing:2px;fill:#333333" d="m 24.070965,178 h -3.248699 v -0.64453 l 1.533204,-1.63412 q 0.315755,-0.34505 0.465495,-0.60221 0.152995,-0.25716 0.152995,-0.48828 0,-0.31576 -0.159506,-0.49479 -0.159505,-0.1823 -0.455729,-0.1823 -0.319011,0 -0.504558,0.22136 -0.182291,0.2181 -0.182291,0.57617 h -0.944011 q 0,-0.43294 0.205078,-0.79102 0.208333,-0.35807 0.585938,-0.55989 0.377604,-0.20508 0.85612,-0.20508 0.732422,0 1.136068,0.35156 0.406901,0.35157 0.406901,0.99284 0,0.35156 -0.182291,0.71615 -0.182292,0.36458 -0.625001,0.84961 l -1.077474,1.13607 h 2.037761 z"/>
  </g>
  <g transform="translate(10.5,181)" id="g42744"/>
  <g style="font-weight:bold;font-size:6.66667px;font-family:Roboto, sans-serif;letter-spacing:2px;fill:#333333" id="text42746" aria-label="3">
    <path id="path42914" style="font-weight:bold;font-size:6.66667px;font-family:Roboto, sans-serif;letter-spacing:2px;fill:#333333" d="M 21.779297,210.21354 H 22.2806 q 0.358073,0 0.530599,-0.17904 0.172526,-0.17903 0.172526,-0.47526 0,-0.28646 -0.172526,-0.44596 -0.169271,-0.15951 -0.46875,-0.15951 -0.270183,0 -0.452474,0.14974 -0.182292,0.14649 -0.182292,0.38412 h -0.940756 q 0,-0.3711 0.198568,-0.66406 0.201823,-0.29623 0.559896,-0.46224 0.361328,-0.16602 0.794271,-0.16602 0.751954,0 1.178386,0.36133 0.426433,0.35807 0.426433,0.98958 0,0.32552 -0.198568,0.59896 -0.198568,0.27344 -0.520834,0.41992 0.400391,0.14323 0.595704,0.42969 0.198568,0.28646 0.198568,0.67708 0,0.63152 -0.46224,1.01237 -0.458985,0.38086 -1.217449,0.38086 -0.709635,0 -1.16211,-0.37434 -0.449219,-0.37435 -0.449219,-0.98959 h 0.940756 q 0,0.26693 0.198568,0.4362 0.201823,0.16927 0.494792,0.16927 0.335286,0 0.524089,-0.17578 0.192057,-0.17904 0.192057,-0.47201 0,-0.70963 -0.78125,-0.70963 h -0.498048 z"/>
  </g>
  <g transform="translate(10.5,216)" id="g42748"/>
  <g style="font-weight:bold;font-size:6.66667px;font-family:Roboto, sans-serif;letter-spacing:2px;fill:#333333" id="text42750" aria-label="4">
    <path id="path42911" style="font-weight:bold;font-size:6.66667px;font-family:Roboto, sans-serif;letter-spacing:2px;fill:#333333" d="m 23.60547,246.21614 h 0.53711 v 0.75847 H 23.60547 V 248 h -0.940755 v -1.02539 h -1.943361 l -0.04232,-0.59245 1.975912,-3.12175 h 0.950521 z m -1.988933,0 h 1.048178 v -1.67317 l -0.06185,0.10742 z"/>
  </g>
  <g transform="translate(10.5,251)" id="g42752"/>
  <g style="font-weight:bold;font-size:6.66667px;font-family:Roboto, sans-serif;letter-spacing:2px;fill:#333333" id="text42754" aria-label="5">
    <path id="path42908" style="font-weight:bold;font-size:6.66667px;font-family:Roboto, sans-serif;letter-spacing:2px;fill:#333333" d="m 20.96224,280.66927 0.273437,-2.40886 h 2.656252 v 0.78451 h -1.884767 l -0.117187,1.01888 q 0.335286,-0.17904 0.712891,-0.17904 0.677083,0 1.061198,0.41993 0.384115,0.41992 0.384115,1.17513 0,0.45898 -0.195313,0.82357 -0.192057,0.36132 -0.553385,0.56315 -0.361329,0.19856 -0.852865,0.19856 -0.429688,0 -0.797527,-0.17252 -0.367839,-0.17578 -0.582682,-0.49154 -0.211589,-0.31575 -0.22461,-0.7194 h 0.93099 q 0.0293,0.29622 0.205078,0.46224 0.179037,0.16276 0.465495,0.16276 0.319011,0 0.491537,-0.22786 0.172526,-0.23112 0.172526,-0.65105 0,-0.40364 -0.198568,-0.61849 -0.198567,-0.21484 -0.563151,-0.21484 -0.335287,0 -0.54362,0.17578 l -0.09115,0.0846 z"/>
  </g>
  <g transform="translate(10.5,286)" id="g42756"/>
  <g style="font-weight:bold;font-size:6.66667px;font-family:Roboto, sans-serif;letter-spacing:2px;fill:#333333" id="text42758" aria-label="6">
    <path id="path42905" style="font-weight:bold;font-size:6.66667px;font-family:Roboto, sans-serif;letter-spacing:2px;fill:#333333" d="m 23.37435,313.21159 v 0.77474 h -0.09115 q -0.638021,0.01 -1.028646,0.33203 -0.38737,0.32226 -0.465495,0.89518 0.377604,-0.38411 0.953777,-0.38411 0.618489,0 0.983073,0.4427 0.364584,0.44271 0.364584,1.16537 0,0.46224 -0.201824,0.83659 -0.198567,0.37435 -0.566406,0.58268 -0.364584,0.20833 -0.826823,0.20833 -0.748699,0 -1.210938,-0.52083 -0.458985,-0.52083 -0.458985,-1.38997 v -0.33855 q 0,-0.77148 0.289714,-1.36067 0.292969,-0.59245 0.836589,-0.91472 0.546875,-0.32552 1.266276,-0.32877 z m -0.917969,2.37304 q -0.227865,0 -0.413412,0.12045 -0.185546,0.11718 -0.273437,0.3125 v 0.28646 q 0,0.472 0.185547,0.73893 0.185547,0.26367 0.520833,0.26367 0.302735,0 0.488282,-0.23763 0.188802,-0.24089 0.188802,-0.62175 0,-0.38737 -0.188802,-0.625 -0.188802,-0.23763 -0.507813,-0.23763 z"/>
  </g>
  <g transform="translate(10.5,321)" id="g42760"/>
  <g style="font-weight:bold;font-size:6.66667px;font-family:Roboto, sans-serif;letter-spacing:2px;fill:#333333" id="text42762" aria-label="7">
    <path id="path42902" style="font-weight:bold;font-size:6.66667px;font-family:Roboto, sans-serif;letter-spacing:2px;fill:#333333" d="M 24.044924,348.78776 22.21224,353 h -0.992839 l 1.835939,-3.97787 h -2.356772 v -0.76172 h 3.346356 z"/>
  </g>
  <g transform="translate(36.5,108)" id="g42792">
    <g transform="translate(5,3)" id="g42764"/>
    <g style="font-weight:bold;font-size:6.66667px;font-family:Roboto, sans-serif;letter-spacing:2px;fill:#333333" id="text42766" transform="translate(15,35)" aria-label="8">
      <path id="path42871" style="font-weight:bold;font-size:6.66667px;font-family:Roboto, sans-serif;letter-spacing:2px;fill:#333333" d="m 3.41146,-3.4798194 q 0,0.3450523 -0.1725262,0.6119795 -0.1725261,0.2669272 -0.4752606,0.4264325 0.3450522,0.1660157 0.5468753,0.4589846 0.201823,0.2897137 0.201823,0.6835941 0,0.63151067 -0.4296877,0.99934939 -0.4296877,0.36458351 -1.1686204,0.36458351 -0.7389326,0 -1.17187555,-0.36783872 -0.43294291,-0.36783872 -0.43294291,-0.99609418 0,-0.3938804 0.20182301,-0.6868493 Q 0.71289096,-2.2786469 1.054688,-2.4414074 0.75195348,-2.6009127 0.57942736,-2.8678399 0.41015645,-3.1347671 0.41015645,-3.4798194 q 0,-0.605469 0.40364602,-0.9635421 0.40364603,-0.3613283 1.09700573,-0.3613283 0.6901045,0 1.0937505,0.3580731 0.4069013,0.3548179 0.4069013,0.9667973 z m -0.8430994,2.1126312 q 0,-0.3092449 -0.1790365,-0.4947919 Q 2.2102875,-2.047527 1.907553,-2.047527 q -0.2994793,0 -0.4785159,0.1855469 -0.1790365,0.1822918 -0.1790365,0.4947919 0,0.3027346 0.1757813,0.48828153 0.1757814,0.18554696 0.4882815,0.18554696 0.3059897,0 0.4785159,-0.17903654 0.1757813,-0.17903655 0.1757813,-0.49479195 z m -0.097656,-2.0670582 q 0,-0.2766929 -0.1464844,-0.4427086 -0.1464845,-0.1692709 -0.4134117,-0.1692709 -0.263672,0 -0.4101564,0.1627605 -0.1464845,0.1627605 -0.1464845,0.449219 0,0.2832032 0.1464845,0.4557294 0.1464844,0.1725261 0.4134116,0.1725261 0.2669272,0 0.4101565,-0.1725261 0.1464844,-0.1725262 0.1464844,-0.4557294 z"/>
    </g>
    <g transform="translate(5,38)" id="g42768"/>
    <g style="font-weight:bold;font-size:6.66667px;font-family:Roboto, sans-serif;letter-spacing:2px;fill:#333333" id="text42770" transform="translate(15,70)" aria-label="9">
      <path id="path42874" style="font-weight:bold;font-size:6.66667px;font-family:Roboto, sans-serif;letter-spacing:2px;fill:#333333" d="m 2.5227877,-1.8945322 q -0.3678388,0.3613283 -0.8593754,0.3613283 -0.6282556,0 -1.0058599,-0.4296877 -0.37760435,-0.4329429 -0.37760435,-1.1653651 0,-0.465495 0.20182301,-0.852865 0.20507823,-0.3906252 0.56966174,-0.605469 0.3645835,-0.2180991 0.8203129,-0.2180991 0.4687502,0 0.8333337,0.2343751 0.3645835,0.2343751 0.5664065,0.6738285 0.201823,0.4394533 0.2050783,1.0058598 v 0.3483075 q 0,1.1848964 -0.589193,1.86198003 -0.589193,0.67708366 -1.6699227,0.7226566 l -0.2311199,0.0032552 v -0.78450558 l 0.2083334,-0.003255 q 1.2272142,-0.0553386 1.3281257,-1.15234435 z m -0.6282555,-0.358073 q 0.2278646,0 0.3906251,-0.1171876 0.1660157,-0.1171876 0.2506512,-0.2832033 V -3.040366 q 0,-0.4785159 -0.1822918,-0.7421879 -0.1822917,-0.263672 -0.4882814,-0.263672 -0.2832033,0 -0.465495,0.2604168 -0.1822918,0.2571616 -0.1822918,0.6477868 0,0.3873699 0.1757813,0.6380211 0.1790366,0.247396 0.5013024,0.247396 z"/>
    </g>
    <g transform="translate(5,73)" id="g42772"/>
    <g style="font-weight:bold;font-size:6.66667px;font-family:Roboto, sans-serif;letter-spacing:2px;fill:#333333" id="text42774" transform="translate(12.5,105)" aria-label="10">
      <path id="path42877" style="font-weight:bold;font-size:6.66667px;font-family:Roboto, sans-serif;letter-spacing:2px;fill:#333333" d="M 2.6074231,0 H 1.6666675 V -3.6263038 L 0.54362005,-3.2779964 V -4.0429707 L 2.5065116,-4.746096 h 0.1009115 z"/>
      <path id="path42879" style="font-weight:bold;font-size:6.66667px;font-family:Roboto, sans-serif;letter-spacing:2px;fill:#333333" d="m 9.3404984,-1.9596364 q 0,0.98307343 -0.4069013,1.50390702 -0.4069012,0.52083358 -1.1914068,0.52083358 -0.7747399,0 -1.1848964,-0.51106795 Q 6.1471375,-0.95703171 6.1373718,-1.9108082 v -0.8723963 q 0,-0.992839 0.4101565,-1.5071621 0.4134116,-0.5143232 1.1881516,-0.5143232 0.77474,0 1.1848964,0.511068 0.4101564,0.5078127 0.4199221,1.4615892 z M 8.3997427,-2.9166681 q 0,-0.5891929 -0.1627605,-0.8561202 -0.1595053,-0.2701824 -0.5013023,-0.2701824 -0.3320314,0 -0.4915367,0.2571616 -0.1562501,0.2539064 -0.1660157,0.7975264 v 1.1523443 q 0,0.5794274 0.1562501,0.86263064 0.1595053,0.27994805 0.5078127,0.27994805 0.3450523,0 0.4980471,-0.27018242 0.1529949,-0.27018237 0.1595053,-0.82682327 z"/>
    </g>
    <g transform="translate(5,108)" id="g42776"/>
    <g style="font-weight:bold;font-size:6.66667px;font-family:Roboto, sans-serif;letter-spacing:2px;fill:#333333" id="text42778" transform="translate(12.5,140)" aria-label="11">
      <path id="path42882" style="font-weight:bold;font-size:6.66667px;font-family:Roboto, sans-serif;letter-spacing:2px;fill:#333333" d="M 2.6074231,0 H 1.6666675 V -3.6263038 L 0.54362005,-3.2779964 V -4.0429707 L 2.5065116,-4.746096 h 0.1009115 z"/>
      <path id="path42884" style="font-weight:bold;font-size:6.66667px;font-family:Roboto, sans-serif;letter-spacing:2px;fill:#333333" d="M 8.43555,0 H 7.4947944 V -3.6263038 L 6.371747,-3.2779964 V -4.0429707 L 8.3346385,-4.746096 H 8.43555 Z"/>
    </g>
    <g transform="translate(5,143)" id="g42780"/>
    <g style="font-weight:bold;font-size:6.66667px;font-family:Roboto, sans-serif;letter-spacing:2px;fill:#333333" id="text42782" transform="translate(12.5,175)" aria-label="12">
      <path id="path42887" style="font-weight:bold;font-size:6.66667px;font-family:Roboto, sans-serif;letter-spacing:2px;fill:#333333" d="M 2.6074231,0 H 1.6666675 V -3.6263038 L 0.54362005,-3.2779964 V -4.0429707 L 2.5065116,-4.746096 h 0.1009115 z"/>
      <path id="path42889" style="font-weight:bold;font-size:6.66667px;font-family:Roboto, sans-serif;letter-spacing:2px;fill:#333333" d="M 9.3990922,0 H 6.1503927 V -0.64453156 L 7.6835965,-2.2786469 q 0.3157554,-0.3450523 0.4654951,-0.6022138 0.1529948,-0.2571616 0.1529948,-0.4882815 0,-0.3157554 -0.1595053,-0.4947919 -0.1595052,-0.1822918 -0.4557293,-0.1822918 -0.3190106,0 -0.5045576,0.2213543 -0.1822917,0.218099 -0.1822917,0.5761721 H 6.0559916 q 0,-0.4329429 0.2050782,-0.791016 0.2083335,-0.3580731 0.5859378,-0.5598961 0.3776043,-0.2050782 0.8561202,-0.2050782 0.7324222,0 1.1360683,0.3515627 0.4069012,0.3515626 0.4069012,0.992839 0,0.3515627 -0.1822918,0.7161462 -0.1822917,0.3645835 -0.6250003,0.8496097 l -1.0774744,1.1360683 h 2.0377614 z"/>
    </g>
    <g transform="translate(5,178)" id="g42784"/>
    <g style="font-weight:bold;font-size:6.66667px;font-family:Roboto, sans-serif;letter-spacing:2px;fill:#333333" id="text42786" transform="translate(12.5,210)" aria-label="13">
      <path id="path42892" style="font-weight:bold;font-size:6.66667px;font-family:Roboto, sans-serif;letter-spacing:2px;fill:#333333" d="M 2.6074231,0 H 1.6666675 V -3.6263038 L 0.54362005,-3.2779964 V -4.0429707 L 2.5065116,-4.746096 h 0.1009115 z"/>
      <path id="path42894" style="font-weight:bold;font-size:6.66667px;font-family:Roboto, sans-serif;letter-spacing:2px;fill:#333333" d="m 7.1074244,-2.7864597 h 0.5013023 q 0.3580731,0 0.5305992,-0.1790365 0.1725262,-0.1790365 0.1725262,-0.4752606 0,-0.2864585 -0.1725262,-0.4459638 -0.1692709,-0.1595053 -0.4687502,-0.1595053 -0.2701824,0 -0.4524742,0.1497397 -0.1822917,0.1464844 -0.1822917,0.3841147 H 6.0950541 q 0,-0.3710939 0.1985678,-0.6640628 0.201823,-0.2962241 0.5598961,-0.4622398 0.3613283,-0.1660157 0.7942712,-0.1660157 0.7519535,0 1.178386,0.3613283 0.4264325,0.3580731 0.4264325,0.9895838 0,0.325521 -0.1985678,0.5989586 -0.1985678,0.2734377 -0.5208336,0.4199221 0.4003908,0.1432292 0.5957034,0.4296877 0.1985678,0.2864585 0.1985678,0.6770837 0,0.63151068 -0.4622398,1.01237024 -0.4589846,0.38085956 -1.2174485,0.38085956 -0.7096357,0 -1.1621099,-0.37434914 -0.449219,-0.37434914 -0.449219,-0.98958376 H 6.977216 q 0,0.2669272 0.1985678,0.43619808 0.201823,0.16927091 0.4947919,0.16927091 0.3352866,0 0.5240888,-0.17578133 0.1920574,-0.17903656 0.1920574,-0.47200546 0,-0.7096357 -0.7812504,-0.7096357 H 7.1074244 Z"/>
    </g>
    <g transform="translate(5,213)" id="g42788"/>
    <g style="font-weight:bold;font-size:6.66667px;font-family:Roboto, sans-serif;letter-spacing:2px;fill:#333333" id="text42790" transform="translate(12.5,245)" aria-label="14">
      <path id="path42897" style="font-weight:bold;font-size:6.66667px;font-family:Roboto, sans-serif;letter-spacing:2px;fill:#333333" d="M 2.6074231,0 H 1.6666675 V -3.6263038 L 0.54362005,-3.2779964 V -4.0429707 L 2.5065116,-4.746096 h 0.1009115 z"/>
      <path id="path42899" style="font-weight:bold;font-size:6.66667px;font-family:Roboto, sans-serif;letter-spacing:2px;fill:#333333" d="m 8.9335971,-1.783855 h 0.5371097 v 0.7584639 H 8.9335971 V 0 H 7.9928415 V -1.0253911 H 6.0494812 l -0.042318,-0.5924482 1.9759124,-3.1217463 h 0.9505212 z m -1.9889332,0 h 1.0481776 v -1.6731779 l -0.061849,0.1074219 z"/>
    </g>
  </g>
</svg>
