<?xml version="1.0" encoding="UTF-8" standalone="no"?>
<svg xmlns:dc="http://purl.org/dc/elements/1.1/" xmlns:cc="http://creativecommons.org/ns#" xmlns:rdf="http://www.w3.org/1999/02/22-rdf-syntax-ns#" xmlns:svg="http://www.w3.org/2000/svg" xmlns="http://www.w3.org/2000/svg" xmlns:sodipodi="http://sodipodi.sourceforge.net/DTD/sodipodi-0.dtd" xmlns:inkscape="http://www.inkscape.org/namespaces/inkscape" inkscape:version="1.0 (4035a4f, 2020-05-01)" sodipodi:docname="svg_render_PEQ14XV-pp.svg" id="svg41517" viewBox="0 0 75 380" height="380" width="75" version="1.1">
  <metadata id="metadata41521">
    <rdf:RDF>
      <cc:Work rdf:about="">
        <dc:format>image/svg+xml</dc:format>
        <dc:type rdf:resource="http://purl.org/dc/dcmitype/StillImage"/>
      </cc:Work>
    </rdf:RDF>
  </metadata>
  <sodipodi:namedview inkscape:current-layer="svg41517" inkscape:window-maximized="0" inkscape:window-y="23" inkscape:window-x="0" inkscape:cy="190" inkscape:cx="37.5" inkscape:zoom="1.7605263" showgrid="false" id="namedview41519" inkscape:window-height="480" inkscape:window-width="689" inkscape:pageshadow="2" inkscape:pageopacity="0" guidetolerance="10" gridtolerance="10" objecttolerance="10" borderopacity="1" bordercolor="#666666" pagecolor="#ffffff"/>
  
  <defs id="defs41351">
    <symbol viewBox="0 0 45px 45px" id="dial-transpose-peq14xv">
      <g id="g41348" transform="translate(22.5 22.5)">
        <text id="text41330" transform="rotate(-240) translate(18 0) rotate(240) translate(-3.5 2)" font-size="5.0pt">-2</text>
        <text id="text41332" transform="rotate(-165) translate(18 0) rotate(165) translate(-3 2)" font-size="5.0pt">-1</text>
        <text id="text41334" transform="rotate(-90) translate(18 0) rotate(90) translate(-2 3)" font-size="5.0pt">0</text>
        <text id="text41336" transform="rotate(-15) translate(18 0) rotate(15) translate(-2 2)" font-size="5.0pt">1</text>
        <text id="text41338" transform="rotate(60) translate(18 0) rotate(-60) translate(-2 2)" font-size="5.0pt">2</text>
        <polyline id="polyline41340" transform="rotate(-208.75) translate(15 0)" stroke-width="0.3" points="0,0 2.5,0"/>
        <polyline id="polyline41342" transform="rotate(-133.75) translate(15 0)" stroke-width="0.3" points="0,0 2.5,0"/>
        <polyline id="polyline41344" transform="rotate(-46.25) translate(15 0)" stroke-width="0.3" points="0,0 2.5,0"/>
        <polyline id="polyline41346" transform="rotate(28.75) translate(15 0)" stroke-width="0.3" points="0,0 2.5,0"/>
      </g>
    </symbol>
  </defs>
  <path class="module-background background-fill" d="M 0,0 H 75 V 380 H 0 Z" style="fill:#dddddd" id="rect41353"/>
  <path class="module-border-inner" d="M 1,1 H 74 V 379 H 1 V 1" style="fill:none;stroke:#e4e4e4;stroke-width:0.5" id="polyline41355"/>
  <path class="module-border-middle" d="m 0.5,0.5 h 74 v 379 H 0.5 V 0.5" style="fill:none;stroke:#ebebeb;stroke-width:0.8" id="polyline41357"/>
  <path class="module-border-outer" d="M 0,0 H 75 V 380 H 0 V 0" style="fill:none;stroke:#f2f2f2;stroke-width:1" id="polyline41359"/>
  <g class="title" style="font-weight:normal;font-size:12px;font-family:Comfortaa, sans-serif;letter-spacing:3px;text-anchor:end;fill:#333333" id="text41361" transform="translate(68.0 17)" aria-label="PEQ14XV">
    <path id="path41784" style="font-weight:normal;font-size:12px;font-family:Comfortaa, sans-serif;letter-spacing:3px;text-anchor:end;fill:#333333" d="m -72.417937,0 q -0.204001,0 -0.336001,-0.132 -0.131999,-0.132 -0.131999,-0.336 v -8.436 q 0,-0.204 0.131999,-0.336 0.132,-0.132 0.336001,-0.132 h 2.399999 q 0.876001,0 1.560001,0.396 0.695999,0.384 1.079999,1.08 0.384001,0.684 0.384001,1.572 0,0.876 -0.384001,1.56 -0.384,0.684 -1.079999,1.068 -0.684,0.384 -1.560001,0.384 h -1.932 v 2.844 q 0,0.204 -0.131999,0.336 -0.132,0.132 -0.336,0.132 z m 2.399999,-4.212 q 0.612001,0 1.092,-0.264 0.480001,-0.276 0.744,-0.756 0.276001,-0.48 0.276001,-1.092 0,-0.624 -0.276001,-1.104 -0.263999,-0.492 -0.744,-0.768 -0.479999,-0.276 -1.092,-0.276 h -1.932 v 4.26 z"/>
    <path id="path41786" style="font-weight:normal;font-size:12px;font-family:Comfortaa, sans-serif;letter-spacing:3px;text-anchor:end;fill:#333333" d="m -62.082,0 q -0.192,0 -0.336,-0.132 -0.132,-0.144 -0.132,-0.336 v -8.436 q 0,-0.204 0.132,-0.336 0.144,-0.132 0.336,-0.132 h 5.628 q 0.204,0 0.336,0.132 0.132,0.132 0.132,0.324 0,0.192 -0.132,0.324 -0.132,0.12 -0.336,0.12 h -5.16 v 3.312 h 3.756 q 0.204,0 0.336,0.132 0.132,0.132 0.132,0.324 0,0.192 -0.144,0.324 -0.132,0.132 -0.324,0.132 h -3.756 V -0.9 h 5.16 q 0.204,0 0.336,0.132 0.132,0.12 0.132,0.312 0,0.192 -0.132,0.324 Q -56.25,0 -56.454,0 Z"/>
    <path id="path41788" style="font-weight:normal;font-size:12px;font-family:Comfortaa, sans-serif;letter-spacing:3px;text-anchor:end;fill:#333333" d="m -42.745125,-0.78 q 0.132,0.132 0.132,0.312 0,0.192 -0.132,0.324 -0.144,0.144 -0.324,0.144 -0.18,0 -0.324,-0.144 l -0.636,-0.636 q -0.6,0.432 -1.344,0.672 -0.732,0.228 -1.548,0.228 -1.368,0 -2.46,-0.624 -1.092,-0.624 -1.716,-1.716 -0.612,-1.104 -0.612,-2.472 0,-1.368 0.612,-2.46 0.624,-1.092 1.716,-1.716 1.092,-0.624 2.46,-0.624 1.356,0 2.448,0.624 1.104,0.624 1.716,1.716 0.624,1.092 0.624,2.46 0,0.972 -0.324,1.824 -0.312,0.84 -0.9,1.476 z m -4.176,0.012 q 1.272,0 2.22,-0.672 l -1.284,-1.284 q -0.144,-0.144 -0.144,-0.324 0,-0.18 0.144,-0.324 0.132,-0.132 0.312,-0.132 0.192,0 0.324,0.132 l 1.332,1.332 q 0.456,-0.528 0.708,-1.212 0.252,-0.684 0.252,-1.44 0,-1.092 -0.504,-1.98 -0.504,-0.9 -1.392,-1.416 -0.876,-0.516 -1.968,-0.516 -1.104,0 -1.992,0.516 -0.876,0.516 -1.38,1.416 -0.504,0.888 -0.504,1.98 0,1.104 0.504,2.004 0.504,0.888 1.38,1.404 0.888,0.516 1.992,0.516 z"/>
    <path id="path41790" style="font-weight:normal;font-size:12px;font-family:Comfortaa, sans-serif;letter-spacing:3px;text-anchor:end;fill:#333333" d="m -35.522625,0 q -0.192,0 -0.336,-0.132 -0.132,-0.144 -0.132,-0.336 v -7.8 l -1.2,0.42 q -0.12,0.06 -0.24,0.06 -0.204,0 -0.336,-0.12 -0.132,-0.132 -0.132,-0.336 0,-0.348 0.3,-0.444 l 1.848,-0.636 q 0.18,-0.06 0.24,-0.06 0.192,0 0.324,0.132 0.132,0.132 0.132,0.336 v 8.448 q 0,0.192 -0.132,0.336 -0.132,0.132 -0.336,0.132 z"/>
    <path id="path41792" style="font-weight:normal;font-size:12px;font-family:Comfortaa, sans-serif;letter-spacing:3px;text-anchor:end;fill:#333333" d="m -24.05175,-3.084 q 0.456,0 0.456,0.432 0,0.156 -0.144,0.288 -0.132,0.12 -0.312,0.12 h -0.948 v 1.776 q 0,0.192 -0.132,0.336 -0.132,0.132 -0.336,0.132 -0.192,0 -0.324,-0.132 -0.12,-0.132 -0.12,-0.336 v -1.776 h -4.296 q -0.204,0 -0.336,-0.132 -0.132,-0.144 -0.132,-0.324 0,-0.144 0.096,-0.276 l 4.752,-6.216 q 0.132,-0.192 0.384,-0.192 0.192,0 0.312,0.144 0.132,0.132 0.132,0.336 v 5.82 z m -1.86,0 v -4.584 l -3.516,4.584 z"/>
    <path id="path41794" style="font-weight:normal;font-size:12px;font-family:Comfortaa, sans-serif;letter-spacing:3px;text-anchor:end;fill:#333333" d="m -12.249938,-0.756 q 0.108001,0.144 0.108001,0.3 0,0.192 -0.120001,0.324 -0.119999,0.132 -0.324,0.132 -0.24,0 -0.359999,-0.168 l -2.868001,-3.972 -2.927999,3.996 q -0.12,0.144 -0.336,0.144 -0.204001,0 -0.324,-0.12 -0.12,-0.132 -0.12,-0.312 0,-0.18 0.108,-0.324 l 2.964,-4.032 -2.772,-3.852 q -0.096,-0.156 -0.096,-0.288 0,-0.18 0.119999,-0.312 0.120001,-0.132 0.312001,-0.132 0.24,0 0.359999,0.168 l 2.724,3.768 2.76,-3.768 q 0.132,-0.168 0.36,-0.168 0.192,0 0.312001,0.144 0.119999,0.132 0.119999,0.312 0,0.156 -0.084,0.276 l -2.832001,3.84 z"/>
    <path id="path41796" style="font-weight:normal;font-size:12px;font-family:Comfortaa, sans-serif;letter-spacing:3px;text-anchor:end;fill:#333333" d="m -0.6575625,-9.372 q 0.192,0 0.3,0.12 0.12,0.12 0.12,0.3 0,0.12 -0.06,0.264 l -3.576,8.388 q -0.132,0.3 -0.42,0.3 -0.156,0 -0.264,-0.06 -0.096,-0.072 -0.168,-0.24 l -3.564,-8.34 q -0.072,-0.18 -0.072,-0.312 0,-0.192 0.12,-0.3 0.132,-0.12 0.336,-0.12 0.312,0 0.432,0.3 l 3.18,7.608 3.168,-7.584 q 0.072,-0.18 0.18,-0.252 0.108,-0.072 0.288,-0.072 z"/>
  </g>
  <g class="brand" style="font-weight:bold;font-size:8.66667px;font-family:Audiowide, sans-serif;letter-spacing:2px;fill:#333333" id="text41363" aria-label="BGA">
    <path id="path41777" style="font-weight:bold;font-size:8.66667px;font-family:Audiowide, sans-serif;letter-spacing:2px;fill:#333333" d="m 31.694664,372.66699 q 0,0.20313 -0.07194,0.43587 -0.06771,0.23275 -0.228516,0.43165 -0.156576,0.19889 -0.410482,0.33431 Q 30.72982,374 30.361656,374 h -4.17676 q -0.118489,0 -0.220052,-0.0423 -0.101562,-0.0423 -0.177734,-0.11426 -0.07194,-0.0762 -0.114258,-0.17773 -0.04232,-0.10156 -0.04232,-0.22005 V 368.486 q 0,-0.11426 0.04232,-0.21582 0.04232,-0.10156 0.114258,-0.17773 0.07617,-0.0762 0.177734,-0.11849 0.101563,-0.0423 0.220052,-0.0423 h 3.681642 q 0.203125,0 0.435873,0.0719 0.232747,0.0719 0.431641,0.23275 0.203125,0.15657 0.33431,0.41048 0.135416,0.2539 0.135416,0.62207 v 0.20736 q 0,0.29199 -0.09733,0.63053 -0.09733,0.33431 -0.313152,0.63477 0.186198,0.11425 0.347006,0.27506 0.165039,0.16081 0.28776,0.3724 0.122722,0.21159 0.194662,0.47819 0.07194,0.2666 0.07194,0.58821 z m -1.100261,-0.21159 q 0,-0.21582 -0.06771,-0.38509 -0.06771,-0.1735 -0.19043,-0.29622 -0.122721,-0.12272 -0.296224,-0.1862 -0.173503,-0.0677 -0.389323,-0.0677 h -2.479819 v -1.10872 H 29.1556 q 0.215821,0 0.389324,-0.0635 0.173502,-0.0677 0.296224,-0.19043 0.122721,-0.12272 0.186198,-0.29199 0.06771,-0.1735 0.06771,-0.38932 v -0.20736 q 0,-0.23698 -0.228516,-0.23698 h -3.135743 v 3.86784 h 3.630861 q 0.02962,0 0.07194,-0.004 0.04232,-0.004 0.07617,-0.0254 0.03385,-0.0212 0.05924,-0.0719 0.02539,-0.0508 0.02539,-0.13965 z"/>
    <path id="path41779" style="font-weight:bold;font-size:8.66667px;font-family:Audiowide, sans-serif;letter-spacing:2px;fill:#333333" d="m 40.63477,373.44564 q 0,0.11849 -0.04232,0.22005 -0.04232,0.10156 -0.118489,0.17773 -0.07194,0.0719 -0.173503,0.11426 Q 40.198897,374 40.080408,374 h -3.969403 q -0.152344,0 -0.330078,-0.0338 -0.173503,-0.0381 -0.347005,-0.11426 -0.169271,-0.0762 -0.325847,-0.19466 -0.156575,-0.12272 -0.279297,-0.292 -0.118489,-0.1735 -0.19043,-0.39778 -0.07194,-0.22852 -0.07194,-0.51205 v -2.97916 q 0,-0.15235 0.03385,-0.32585 0.03809,-0.17774 0.114257,-0.34701 0.07617,-0.1735 0.198894,-0.33007 0.122721,-0.15658 0.291992,-0.27507 0.173503,-0.12272 0.397787,-0.19466 0.224284,-0.0719 0.507812,-0.0719 h 4.472984 v 1.10026 h -4.472984 q -0.21582,0 -0.330078,0.11426 -0.114258,0.11425 -0.114258,0.33854 v 2.9707 q 0,0.21159 0.114258,0.33008 0.11849,0.11426 0.330078,0.11426 h 3.423504 v -1.37956 h -2.928386 v -1.10872 h 3.474285 q 0.118489,0 0.220052,0.0466 0.101562,0.0423 0.173503,0.11849 0.07617,0.0762 0.118489,0.17773 0.04232,0.0973 0.04232,0.21159 z"/>
    <path id="path41781" style="font-weight:bold;font-size:8.66667px;font-family:Audiowide, sans-serif;letter-spacing:2px;fill:#333333" d="m 49.744148,374 h -1.100261 v -1.48958 h -3.86784 V 374 h -1.10026 v -3.03418 q 0,-0.66439 0.228515,-1.22298 0.228516,-0.5586 0.634766,-0.96062 0.40625,-0.40201 0.960612,-0.6263 0.554363,-0.22428 1.210287,-0.22428 h 2.479819 q 0.114258,0 0.21582,0.0423 0.101563,0.0423 0.177735,0.11849 0.07617,0.0762 0.118489,0.17773 0.04232,0.10156 0.04232,0.21582 z m -4.968101,-2.58984 h 3.86784 v -2.37826 h -1.93392 q -0.05078,0 -0.21582,0.0169 -0.160807,0.0127 -0.376628,0.0719 -0.211588,0.0592 -0.448568,0.18196 -0.236979,0.12272 -0.435872,0.33854 -0.198894,0.21582 -0.330078,0.54167 -0.126954,0.32162 -0.126954,0.78288 z"/>
  </g>
  <path d="m 36.5,370 h 2 v 2 h -2 z" style="fill:#dddddd" id="rect41365"/>
  <g style="font-weight:bold;font-size:8px;font-family:Roboto, sans-serif;letter-spacing:1.5px;fill:#333333" id="text41369" transform="translate(9 30)" aria-label="FOLLOWERS">
    <path id="path41757" style="font-weight:bold;font-size:8px;font-family:Roboto, sans-serif;letter-spacing:1.5px;fill:#333333" d="m 3.9296875,-2.3242188 h -2.25 V 0 h -1.171875 v -5.6875 h 3.703125 v 0.9492188 h -2.53125 v 1.4687499 h 2.25 z"/>
    <path id="path41759" style="font-weight:bold;font-size:8px;font-family:Roboto, sans-serif;letter-spacing:1.5px;fill:#333333" d="m 11.070313,-2.7148438 q 0,0.8398438 -0.296875,1.4726563 -0.296875,0.6328125 -0.851563,0.9765625 -0.5507812,0.34375 -1.265625,0.34375 -0.7070313,0 -1.2617188,-0.33984375 Q 6.8398437,-0.6015625 6.5351562,-1.2304687 6.2304687,-1.8632812 6.2265625,-2.6835938 v -0.28125 q 0,-0.8398437 0.3007812,-1.4765624 0.3046875,-0.640625 0.8554688,-0.9804688 0.5546875,-0.34375 1.265625,-0.34375 0.7109375,0 1.2617188,0.34375 0.5546877,0.3398438 0.8554687,0.9804688 0.304688,0.6367187 0.304688,1.4726562 z M 9.8828125,-2.9726563 q 0,-0.8945312 -0.3203125,-1.3593749 -0.3203125,-0.4648438 -0.9140625,-0.4648438 -0.5898437,0 -0.9101563,0.4609375 -0.3203125,0.4570312 -0.3242187,1.34375 v 0.2773437 q 0,0.8710938 0.3203125,1.3515626 0.3203125,0.4804687 0.921875,0.4804687 0.5898438,0 0.90625,-0.4609375 0.3164063,-0.4648437 0.3203125,-1.3515625 z"/>
    <path id="path41761" style="font-weight:bold;font-size:8px;font-family:Roboto, sans-serif;letter-spacing:1.5px;fill:#333333" d="m 14.601563,-0.94140625 h 2.488281 V 0 h -3.660156 v -5.6875 h 1.171875 z"/>
    <path id="path41763" style="font-weight:bold;font-size:8px;font-family:Roboto, sans-serif;letter-spacing:1.5px;fill:#333333" d="m 20.429687,-0.94140625 h 2.488282 V 0 h -3.660157 v -5.6875 h 1.171875 z"/>
    <path id="path41765" style="font-weight:bold;font-size:8px;font-family:Roboto, sans-serif;letter-spacing:1.5px;fill:#333333" d="m 29.507812,-2.7148438 q 0,0.8398438 -0.296875,1.4726563 -0.296875,0.6328125 -0.851562,0.9765625 -0.550781,0.34375 -1.265625,0.34375 -0.707031,0 -1.261719,-0.33984375 -0.554687,-0.33984375 -0.859375,-0.96874995 -0.304687,-0.6328125 -0.308594,-1.4531251 v -0.28125 q 0,-0.8398437 0.300782,-1.4765624 0.304687,-0.640625 0.855468,-0.9804688 0.554688,-0.34375 1.265625,-0.34375 0.710938,0 1.261719,0.34375 0.554688,0.3398438 0.855469,0.9804688 0.304687,0.6367187 0.304687,1.4726562 z m -1.1875,-0.2578125 q 0,-0.8945312 -0.320312,-1.3593749 -0.320313,-0.4648438 -0.914063,-0.4648438 -0.589843,0 -0.910156,0.4609375 -0.320312,0.4570312 -0.324219,1.34375 v 0.2773437 q 0,0.8710938 0.320313,1.3515626 0.320312,0.4804687 0.921875,0.4804687 0.589844,0 0.90625,-0.4609375 0.316406,-0.4648437 0.320312,-1.3515625 z"/>
    <path id="path41767" style="font-weight:bold;font-size:8px;font-family:Roboto, sans-serif;letter-spacing:1.5px;fill:#333333" d="M 36.296875,-1.640625 37.0625,-5.6875 h 1.167969 L 36.96875,0 H 35.789062 L 34.863281,-3.8046875 33.9375,0 h -1.179688 l -1.261718,-5.6875 h 1.167968 l 0.769532,4.0390625 0.9375,-4.0390625 h 0.992187 z"/>
    <path id="path41769" style="font-weight:bold;font-size:8px;font-family:Roboto, sans-serif;letter-spacing:1.5px;fill:#333333" d="m 43.789062,-2.4648438 h -2.25 v 1.52343755 h 2.640625 V 0 h -3.8125 v -5.6875 h 3.804688 v 0.9492188 h -2.632813 v 1.3554687 h 2.25 z"/>
    <path id="path41771" style="font-weight:bold;font-size:8px;font-family:Roboto, sans-serif;letter-spacing:1.5px;fill:#333333" d="M 48.472656,-2.0820313 H 47.539062 V 0 h -1.171875 v -5.6875 h 2.113282 q 1.007812,0 1.554687,0.4492188 0.546875,0.4492187 0.546875,1.2695312 0,0.5820312 -0.253906,0.9726562 -0.25,0.3867188 -0.761719,0.6171875 l 1.230469,2.3242188 V 0 H 49.539062 Z M 47.539062,-3.03125 h 0.945313 q 0.441406,0 0.683594,-0.2226563 0.242187,-0.2265625 0.242187,-0.6210937 0,-0.4023437 -0.230469,-0.6328125 -0.226562,-0.2304687 -0.699218,-0.2304687 h -0.941407 z"/>
    <path id="path41773" style="font-weight:bold;font-size:8px;font-family:Roboto, sans-serif;letter-spacing:1.5px;fill:#333333" d="m 55.925781,-1.4921875 q 0,-0.3320312 -0.234375,-0.5078125 -0.234375,-0.1796875 -0.84375,-0.375 -0.609375,-0.1992188 -0.964844,-0.390625 -0.96875,-0.5234375 -0.96875,-1.4101562 0,-0.4609375 0.257813,-0.8203125 0.261719,-0.3632813 0.746094,-0.5664063 0.488281,-0.203125 1.09375,-0.203125 0.609375,0 1.085937,0.2226563 0.476563,0.21875 0.738281,0.6210937 0.265625,0.4023438 0.265625,0.9140625 h -1.171875 q 0,-0.390625 -0.246093,-0.6054687 -0.246094,-0.21875 -0.691407,-0.21875 -0.429687,0 -0.667968,0.1835937 -0.238282,0.1796875 -0.238282,0.4765625 0,0.2773437 0.277344,0.4648437 0.28125,0.1875 0.824219,0.3515625 1,0.3007813 1.457031,0.7460938 0.457031,0.4453125 0.457031,1.109375 0,0.73828125 -0.558593,1.16015625 -0.558594,0.41796875 -1.503907,0.41796875 -0.65625,0 -1.195312,-0.23828125 -0.539063,-0.2421875 -0.824219,-0.66015625 -0.28125,-0.4179687 -0.28125,-0.96875 h 1.175781 q 0,0.94140625 1.125,0.94140625 0.417969,0 0.652344,-0.16796875 0.234375,-0.171875 0.234375,-0.4765625 z"/>
  </g>
  <g transform="translate(12,40)" id="g41371"/>
  <g transform="translate(0,28)" id="g41387">
    <g transform="translate(20,20)" id="g41385">
      <g transform="rotate(120,-5,2.8867513)" id="g41375">
        <path d="M 0,0 H 4" style="stroke:#333333;stroke-width:1" id="polyline41373"/>
      </g>
      <path d="M 0,-12.5 A 12.5,12.5 0 0 1 12.5,0" stroke-width="0.5" stroke-linecap="round" fill="none" id="path41377"/>
      <path d="M 0,-12.5 A 12.5,12.5 0 0 1 12.5,0" stroke-width="0.5" stroke-linecap="round" fill="none" transform="rotate(43)" id="path41379"/>
      <path d="M 0,-12.5 A 12.5,12.5 0 0 0 -12.5,0" stroke-width="0.5" stroke-linecap="round" fill="none" id="path41381"/>
      <path d="M 0,-12.5 A 12.5,12.5 0 0 0 -12.5,0" stroke-width="0.5" stroke-linecap="round" fill="none" transform="rotate(-43)" id="path41383"/>
    </g>
  </g>
  <g style="font-weight:bold;font-size:6.66667px;font-family:Roboto, sans-serif;letter-spacing:2px;fill:#333333" id="text41389" aria-label="DAMP">
    <path id="path41747" style="font-weight:bold;font-size:6.66667px;font-family:Roboto, sans-serif;letter-spacing:2px;fill:#333333" d="m 7.9231773,67 v -4.739586 h 1.458334 q 0.6250007,0 1.1165367,0.283204 0.494792,0.279948 0.771485,0.800781 0.276693,0.517579 0.276693,1.178386 v 0.218099 q 0,0.660808 -0.273438,1.175131 -0.270182,0.514323 -0.764974,0.797527 Q 10.013022,66.996745 9.3912769,67 Z m 0.976563,-3.94857 v 3.164064 h 0.4720054 q 0.5729169,0 0.8756513,-0.374349 0.302735,-0.374349 0.309245,-1.070964 V 64.51953 q 0,-0.722657 -0.299479,-1.09375 -0.2994795,-0.37435 -0.8756517,-0.37435 z"/>
    <path id="path41749" style="font-weight:bold;font-size:6.66667px;font-family:Roboto, sans-serif;letter-spacing:2px;fill:#333333" d="m 16.869795,66.023437 h -1.71224 L 14.832034,67 h -1.038412 l 1.764324,-4.739586 h 0.904948 L 18.236983,67 h -1.038412 z m -1.448568,-0.791016 h 1.184896 L 16.01042,63.458332 Z"/>
    <path id="path41751" style="font-weight:bold;font-size:6.66667px;font-family:Roboto, sans-serif;letter-spacing:2px;fill:#333333" d="m 21.962245,62.260414 1.217448,3.437502 1.210938,-3.437502 h 1.282553 V 67 H 24.693366 V 65.704426 L 24.791022,63.468097 23.511725,67 h -0.670573 l -1.276043,-3.528648 0.09766,2.233074 V 67 h -0.976563 v -4.739586 z"/>
    <path id="path41753" style="font-weight:bold;font-size:6.66667px;font-family:Roboto, sans-serif;letter-spacing:2px;fill:#333333" d="M 29.509123,65.330077 V 67 H 28.53256 v -4.739586 h 1.848959 q 0.533855,0 0.937501,0.195313 0.406901,0.195313 0.625,0.556641 0.218099,0.358073 0.218099,0.817058 0,0.696614 -0.478516,1.100261 -0.475261,0.40039 -1.31836,0.40039 z m 0,-0.791016 h 0.872396 q 0.38737,0 0.589193,-0.182291 0.205078,-0.182292 0.205078,-0.520834 0,-0.348307 -0.205078,-0.563151 -0.205078,-0.214844 -0.566406,-0.221355 h -0.895183 z"/>
  </g>
  <path d="m 10,70 h 20 c 2.77,0 5,2.23 5,5 v 20 c 0,2.77 -2.23,5 -5,5 H 10 C 7.23,100 5,97.77 5,95 V 75 c 0,-2.77 2.23,-5 5,-5 z" style="fill:#fafafa" id="rect41391"/>
  <g transform="translate(8,73)" id="g41393"/>
  <g transform="translate(47,40)" id="g41397"/>
  <g transform="translate(35,28)" id="g41413">
    <g transform="translate(20,20)" id="g41411">
      <g transform="rotate(-90,-5,-5)" id="g41401">
        <path d="M 0,0 H 4" style="stroke:#333333;stroke-width:1" id="polyline41399"/>
      </g>
      <path d="M 0,-12.5 A 12.5,12.5 0 0 1 12.5,0" stroke-width="0.5" stroke-linecap="round" fill="none" transform="rotate(20)" id="path41403"/>
      <path d="M 0,-12.5 A 12.5,12.5 0 0 1 12.5,0" stroke-width="0.5" stroke-linecap="round" fill="none" transform="rotate(43)" id="path41405"/>
      <path d="M 0,-12.5 A 12.5,12.5 0 0 0 -12.5,0" stroke-width="0.5" stroke-linecap="round" fill="none" transform="rotate(-20)" id="path41407"/>
      <path d="M 0,-12.5 A 12.5,12.5 0 0 0 -12.5,0" stroke-width="0.5" stroke-linecap="round" fill="none" transform="rotate(-43)" id="path41409"/>
    </g>
  </g>
  <g style="font-weight:bold;font-size:6.66667px;font-family:Roboto, sans-serif;letter-spacing:2px;fill:#333333" id="text41415" aria-label="GAIN">
    <path id="path41736" style="font-weight:bold;font-size:6.66667px;font-family:Roboto, sans-serif;letter-spacing:2px;fill:#333333" d="m 48.173179,66.401041 q -0.263672,0.315756 -0.745443,0.491537 -0.481771,0.172526 -1.067709,0.172526 -0.615235,0 -1.08073,-0.266927 -0.462239,-0.270182 -0.716146,-0.78125 Q 44.3125,65.505859 44.30599,64.815754 v -0.322266 q 0,-0.709635 0.23763,-1.227214 0.240886,-0.520833 0.690105,-0.794271 0.452474,-0.276693 1.057943,-0.276693 0.843099,0 1.31836,0.403646 0.47526,0.400391 0.563151,1.168621 h -0.950521 q -0.0651,-0.406902 -0.289714,-0.595704 -0.221354,-0.188802 -0.611979,-0.188802 -0.498047,0 -0.758464,0.374349 -0.260417,0.374349 -0.263672,1.113282 v 0.302734 q 0,0.745444 0.283203,1.126303 0.283203,0.38086 0.830079,0.38086 0.55013,0 0.784505,-0.234375 v -0.817058 h -0.888672 v -0.719402 h 1.865235 z"/>
    <path id="path41738" style="font-weight:bold;font-size:6.66667px;font-family:Roboto, sans-serif;letter-spacing:2px;fill:#333333" d="M 53.643233,66.023437 H 51.930992 L 51.605471,67 h -1.038412 l 1.764324,-4.739586 h 0.904948 L 55.010421,67 h -1.038412 z m -1.448569,-0.791016 h 1.184897 l -0.595704,-1.774089 z"/>
    <path id="path41740" style="font-weight:bold;font-size:6.66667px;font-family:Roboto, sans-serif;letter-spacing:2px;fill:#333333" d="m 58.498052,67 h -0.976563 v -4.739586 h 0.976563 z"/>
    <path id="path41742" style="font-weight:bold;font-size:6.66667px;font-family:Roboto, sans-serif;letter-spacing:2px;fill:#333333" d="M 65.253914,67 H 64.277351 L 62.376308,63.881509 V 67 h -0.976562 v -4.739586 h 0.976562 l 1.904298,3.125002 v -3.125002 h 0.973308 z"/>
  </g>
  <path d="m 45,70 h 20 c 2.77,0 5,2.23 5,5 v 20 c 0,2.77 -2.23,5 -5,5 H 45 c -2.77,0 -5,-2.23 -5,-5 V 75 c 0,-2.77 2.23,-5 5,-5 z" style="fill:#fafafa" id="rect41417"/>
  <g transform="translate(43,73)" id="g41419"/>
  <g style="font-weight:bold;font-size:8px;font-family:Roboto, sans-serif;letter-spacing:1.5px;fill:#333333" id="text41423" aria-label="TRANSPOSE">
    <path id="path41716" style="font-weight:bold;font-size:8px;font-family:Roboto, sans-serif;letter-spacing:1.5px;fill:#333333" d="M 12.789063,116.26172 H 11.046875 V 121 H 9.875 v -4.73828 H 8.15625 v -0.94922 h 4.632813 z"/>
    <path id="path41718" style="font-weight:bold;font-size:8px;font-family:Roboto, sans-serif;letter-spacing:1.5px;fill:#333333" d="M 17.066406,118.91797 H 16.132812 V 121 h -1.171874 v -5.6875 h 2.113281 q 1.007812,0 1.554687,0.44922 0.546875,0.44922 0.546875,1.26953 0,0.58203 -0.253906,0.97266 -0.25,0.38672 -0.761719,0.61718 l 1.230469,2.32422 V 121 h -1.257813 z m -0.933594,-0.94922 h 0.945313 q 0.441406,0 0.683594,-0.22266 0.242187,-0.22656 0.242187,-0.62109 0,-0.40234 -0.230469,-0.63281 -0.226562,-0.23047 -0.699218,-0.23047 h -0.941407 z"/>
    <path id="path41720" style="font-weight:bold;font-size:8px;font-family:Roboto, sans-serif;letter-spacing:1.5px;fill:#333333" d="M 24.78125,119.82813 H 22.726562 L 22.335937,121 h -1.246093 l 2.117187,-5.6875 h 1.085938 L 26.421875,121 h -1.246094 z m -1.738281,-0.94922 h 1.421875 L 23.75,116.75 Z"/>
    <path id="path41722" style="font-weight:bold;font-size:8px;font-family:Roboto, sans-serif;letter-spacing:1.5px;fill:#333333" d="m 33.085937,121 h -1.171875 l -2.28125,-3.74219 V 121 h -1.171875 v -5.6875 h 1.171875 l 2.285157,3.75 v -3.75 h 1.167968 z"/>
    <path id="path41724" style="font-weight:bold;font-size:8px;font-family:Roboto, sans-serif;letter-spacing:1.5px;fill:#333333" d="m 38.566406,119.50781 q 0,-0.33203 -0.234375,-0.50781 -0.234375,-0.17969 -0.84375,-0.375 -0.609375,-0.19922 -0.964844,-0.39062 -0.96875,-0.52344 -0.96875,-1.41016 0,-0.46094 0.257813,-0.82031 0.261719,-0.36328 0.746094,-0.56641 0.488281,-0.20312 1.09375,-0.20312 0.609375,0 1.085937,0.22265 0.476563,0.21875 0.738281,0.6211 0.265625,0.40234 0.265625,0.91406 h -1.171875 q 0,-0.39063 -0.246093,-0.60547 -0.246094,-0.21875 -0.691407,-0.21875 -0.429687,0 -0.667968,0.18359 -0.238282,0.17969 -0.238282,0.47657 0,0.27734 0.277344,0.46484 0.28125,0.1875 0.824219,0.35156 1,0.30078 1.457031,0.7461 0.457031,0.44531 0.457031,1.10937 0,0.73828 -0.558593,1.16016 -0.558594,0.41797 -1.503907,0.41797 -0.65625,0 -1.195312,-0.23829 -0.539063,-0.24218 -0.824219,-0.66015 -0.28125,-0.41797 -0.28125,-0.96875 h 1.175781 q 0,0.9414 1.125,0.9414 0.417969,0 0.652344,-0.16796 0.234375,-0.17188 0.234375,-0.47657 z"/>
    <path id="path41726" style="font-weight:bold;font-size:8px;font-family:Roboto, sans-serif;letter-spacing:1.5px;fill:#333333" d="M 43.210937,118.99609 V 121 h -1.171875 v -5.6875 h 2.21875 q 0.640625,0 1.125,0.23438 0.488282,0.23437 0.75,0.66796 0.261719,0.42969 0.261719,0.98047 0,0.83594 -0.574219,1.32032 -0.570312,0.48046 -1.582031,0.48046 z m 0,-0.94921 h 1.046875 q 0.464844,0 0.707032,-0.21875 0.246093,-0.21875 0.246093,-0.625 0,-0.41797 -0.246093,-0.67579 -0.246094,-0.25781 -0.679688,-0.26562 h -1.074219 z"/>
    <path id="path41728" style="font-weight:bold;font-size:8px;font-family:Roboto, sans-serif;letter-spacing:1.5px;fill:#333333" d="m 53.367187,118.28516 q 0,0.83984 -0.296875,1.47265 -0.296875,0.63282 -0.851562,0.97657 -0.550781,0.34375 -1.265625,0.34375 -0.707031,0 -1.261719,-0.33985 -0.554687,-0.33984 -0.859375,-0.96875 -0.304687,-0.63281 -0.308594,-1.45312 v -0.28125 q 0,-0.83985 0.300782,-1.47657 0.304687,-0.64062 0.855468,-0.98046 0.554688,-0.34375 1.265625,-0.34375 0.710938,0 1.261719,0.34375 0.554688,0.33984 0.855469,0.98046 0.304687,0.63672 0.304687,1.47266 z m -1.1875,-0.25782 q 0,-0.89453 -0.320312,-1.35937 -0.320313,-0.46484 -0.914063,-0.46484 -0.589843,0 -0.910156,0.46093 -0.320312,0.45703 -0.324219,1.34375 v 0.27735 q 0,0.87109 0.320313,1.35156 0.320312,0.48047 0.921875,0.48047 0.589844,0 0.90625,-0.46094 0.316406,-0.46484 0.320312,-1.35156 z"/>
    <path id="path41730" style="font-weight:bold;font-size:8px;font-family:Roboto, sans-serif;letter-spacing:1.5px;fill:#333333" d="m 58.675781,119.50781 q 0,-0.33203 -0.234375,-0.50781 -0.234375,-0.17969 -0.84375,-0.375 -0.609375,-0.19922 -0.964844,-0.39062 -0.96875,-0.52344 -0.96875,-1.41016 0,-0.46094 0.257813,-0.82031 0.261719,-0.36328 0.746094,-0.56641 0.488281,-0.20312 1.09375,-0.20312 0.609375,0 1.085937,0.22265 0.476563,0.21875 0.738281,0.6211 0.265625,0.40234 0.265625,0.91406 h -1.171875 q 0,-0.39063 -0.246093,-0.60547 -0.246094,-0.21875 -0.691407,-0.21875 -0.429687,0 -0.667968,0.18359 -0.238282,0.17969 -0.238282,0.47657 0,0.27734 0.277344,0.46484 0.28125,0.1875 0.824219,0.35156 1,0.30078 1.457031,0.7461 0.457031,0.44531 0.457031,1.10937 0,0.73828 -0.558593,1.16016 -0.558594,0.41797 -1.503907,0.41797 -0.65625,0 -1.195312,-0.23829 -0.539063,-0.24218 -0.824219,-0.66015 -0.28125,-0.41797 -0.28125,-0.96875 h 1.175781 q 0,0.9414 1.125,0.9414 0.417969,0 0.652344,-0.16796 0.234375,-0.17188 0.234375,-0.47657 z"/>
    <path id="path41732" style="font-weight:bold;font-size:8px;font-family:Roboto, sans-serif;letter-spacing:1.5px;fill:#333333" d="m 65.570312,118.53516 h -2.25 v 1.52343 h 2.640625 V 121 h -3.8125 v -5.6875 h 3.804688 v 0.94922 h -2.632813 v 1.35547 h 2.25 z"/>
  </g>
  <g transform="translate(24.5,132)" id="g41425"/>
  <g transform="translate(15,122.5)" id="use41427">
    <g transform="translate(22.5,22.5)" id="g41611">
      <g style="font-weight:bold;font-size:6.66667px;font-family:Roboto, sans-serif;fill:#333333" id="text41593" transform="translate(-12.5,17.588457)" aria-label="-2">
        <path id="path41693" style="font-weight:bold;font-size:6.66667px;font-family:Roboto, sans-serif;fill:#333333" d="M 2.1907563,-1.6503914 H 0.35807309 V -2.4088553 H 2.1907563 Z"/>
        <path id="path41695" style="font-weight:bold;font-size:6.66667px;font-family:Roboto, sans-serif;fill:#333333" d="M 6.1621124,0 H 2.913413 V -0.64453156 L 4.4466168,-2.2786469 q 0.3157554,-0.3450523 0.465495,-0.6022138 0.1529949,-0.2571616 0.1529949,-0.4882815 0,-0.3157554 -0.1595053,-0.4947919 -0.1595053,-0.1822918 -0.4557294,-0.1822918 -0.3190105,0 -0.5045575,0.2213543 -0.1822918,0.218099 -0.1822918,0.5761721 H 2.8190119 q 0,-0.4329429 0.2050782,-0.791016 0.2083334,-0.3580731 0.5859378,-0.5598961 0.3776043,-0.2050782 0.8561202,-0.2050782 0.7324222,0 1.1360682,0.3515627 0.4069013,0.3515626 0.4069013,0.992839 0,0.3515627 -0.1822918,0.7161462 -0.1822917,0.3645835 -0.6250003,0.8496097 L 4.124351,-0.7584639 h 2.0377614 z"/>
      </g>
      <g style="font-weight:bold;font-size:6.66667px;font-family:Roboto, sans-serif;fill:#333333" id="text41595" transform="translate(-20.386665,-2.6587428)" aria-label="-1">
        <path id="path41698" style="font-weight:bold;font-size:6.66667px;font-family:Roboto, sans-serif;fill:#333333" d="M 2.1907563,-1.6503914 H 0.35807309 V -2.4088553 H 2.1907563 Z"/>
        <path id="path41700" style="font-weight:bold;font-size:6.66667px;font-family:Roboto, sans-serif;fill:#333333" d="M 5.1985703,0 H 4.2578146 V -3.6263038 L 3.1347672,-3.2779964 V -4.0429707 L 5.0976588,-4.746096 h 0.1009115 z"/>
      </g>
      <g style="font-weight:bold;font-size:6.66667px;font-family:Roboto, sans-serif;fill:#333333" id="text41597" transform="translate(-2,-15)" aria-label="0">
        <path id="path41703" style="font-weight:bold;font-size:6.66667px;font-family:Roboto, sans-serif;fill:#333333" d="m 3.5123715,-1.9596364 q 0,0.98307343 -0.4069013,1.50390702 Q 2.698569,0.0651042 1.9140634,0.0651042 q -0.7747399,0 -1.18489639,-0.51106795 Q 0.31901057,-0.95703171 0.30924494,-1.9108082 v -0.8723963 q 0,-0.992839 0.41015644,-1.5071621 0.41341162,-0.5143232 1.18815162,-0.5143232 0.7747399,0 1.1848964,0.511068 0.4101564,0.5078127 0.4199221,1.4615892 z M 2.5716158,-2.9166681 q 0,-0.5891929 -0.1627605,-0.8561202 Q 2.24935,-4.0429707 1.907553,-4.0429707 q -0.3320314,0 -0.4915367,0.2571616 -0.1562501,0.2539064 -0.1660157,0.7975264 v 1.1523443 q 0,0.5794274 0.1562501,0.86263064 0.1595053,0.27994805 0.5078127,0.27994805 0.3450523,0 0.4980471,-0.27018242 0.1529949,-0.27018237 0.1595053,-0.82682327 z"/>
      </g>
      <g style="font-weight:bold;font-size:6.66667px;font-family:Roboto, sans-serif;fill:#333333" id="text41599" transform="translate(15.386665,-2.6587428)" aria-label="1">
        <path id="path41706" style="font-weight:bold;font-size:6.66667px;font-family:Roboto, sans-serif;fill:#333333" d="M 2.6074231,0 H 1.6666675 V -3.6263038 L 0.54362005,-3.2779964 V -4.0429707 L 2.5065116,-4.746096 h 0.1009115 z"/>
      </g>
      <g style="font-weight:bold;font-size:6.66667px;font-family:Roboto, sans-serif;fill:#333333" id="text41601" transform="translate(7,17.588457)" aria-label="2">
        <path id="path41709" style="font-weight:bold;font-size:6.66667px;font-family:Roboto, sans-serif;fill:#333333" d="M 3.5709652,0 H 0.32226578 V -0.64453156 L 1.8554696,-2.2786469 q 0.3157554,-0.3450523 0.465495,-0.6022138 0.1529949,-0.2571616 0.1529949,-0.4882815 0,-0.3157554 -0.1595053,-0.4947919 -0.1595053,-0.1822918 -0.4557294,-0.1822918 -0.3190105,0 -0.5045575,0.2213543 -0.1822917,0.218099 -0.1822917,0.5761721 H 0.22786469 q 0,-0.4329429 0.20507822,-0.791016 0.20833344,-0.3580731 0.58593779,-0.5598961 0.3776043,-0.2050782 0.8561202,-0.2050782 0.7324222,0 1.1360682,0.3515627 0.4069013,0.3515626 0.4069013,0.992839 0,0.3515627 -0.1822918,0.7161462 -0.1822917,0.3645835 -0.6250003,0.8496097 l -1.0774744,1.1360683 h 2.0377613 z"/>
      </g>
      <path d="M 0,0 H 2.5" style="stroke:#333333;stroke-width:0.3" transform="rotate(151.25,-7.5,1.9221849)" id="polyline41603"/>
      <path d="M 0,0 H 2.5" style="stroke:#333333;stroke-width:0.3" transform="rotate(-133.75,-7.5,-3.2028897)" id="polyline41605"/>
      <path d="M 0,0 H 2.5" style="stroke:#333333;stroke-width:0.3" transform="rotate(-46.25,-7.5,-17.562266)" id="polyline41607"/>
      <path d="M 0,0 H 2.5" style="stroke:#333333;stroke-width:0.3" transform="rotate(28.75,-7.5,29.263574)" id="polyline41609"/>
    </g>
  </g>
  <path d="m 27.5,166 h 20 c 2.77,0 5,2.23 5,5 v 20 c 0,2.77 -2.23,5 -5,5 h -20 c -2.77,0 -5,-2.23 -5,-5 v -20 c 0,-2.77 2.23,-5 5,-5 z" style="fill:#fafafa" id="rect41429"/>
  <g transform="translate(25.5,169)" id="g41431"/>
  <g style="font-weight:bold;font-size:8px;font-family:Roboto, sans-serif;letter-spacing:1.5px;fill:#333333" id="text41435" aria-label="OUTPUT">
    <path id="path41679" style="font-weight:bold;font-size:8px;font-family:Roboto, sans-serif;letter-spacing:1.5px;fill:#333333" d="m 23.179687,214.28516 q 0,0.83984 -0.296875,1.47265 -0.296875,0.63281 -0.851562,0.97656 -0.550781,0.34375 -1.265625,0.34375 -0.707031,0 -1.261719,-0.33984 -0.554687,-0.33984 -0.859375,-0.96875 -0.304687,-0.63281 -0.308594,-1.45312 v -0.28125 q 0,-0.83985 0.300782,-1.47657 0.304687,-0.64062 0.855468,-0.98047 0.554688,-0.34375 1.265625,-0.34375 0.710938,0 1.261719,0.34375 0.554688,0.33985 0.855469,0.98047 0.304687,0.63672 0.304687,1.47266 z m -1.1875,-0.25782 q 0,-0.89453 -0.320312,-1.35937 -0.320313,-0.46485 -0.914063,-0.46485 -0.589843,0 -0.910156,0.46094 -0.320312,0.45703 -0.324219,1.34375 v 0.27735 q 0,0.87109 0.320313,1.35156 0.320312,0.48047 0.921875,0.48047 0.589844,0 0.90625,-0.46094 0.316406,-0.46484 0.320312,-1.35156 z"/>
    <path id="path41681" style="font-weight:bold;font-size:8px;font-family:Roboto, sans-serif;letter-spacing:1.5px;fill:#333333" d="m 29.84375,211.3125 v 3.74609 q 0,0.9336 -0.585938,1.47657 -0.582031,0.54296 -1.59375,0.54296 -0.996093,0 -1.582031,-0.52734 -0.585937,-0.52734 -0.597656,-1.44922 v -3.78906 h 1.171875 v 3.75391 q 0,0.55859 0.265625,0.8164 0.269531,0.25391 0.742187,0.25391 0.988282,0 1.003907,-1.03906 v -3.78516 z"/>
    <path id="path41683" style="font-weight:bold;font-size:8px;font-family:Roboto, sans-serif;letter-spacing:1.5px;fill:#333333" d="M 36.585937,212.26172 H 34.84375 V 217 h -1.171875 v -4.73828 h -1.71875 v -0.94922 h 4.632812 z"/>
    <path id="path41685" style="font-weight:bold;font-size:8px;font-family:Roboto, sans-serif;letter-spacing:1.5px;fill:#333333" d="M 39.929687,214.99609 V 217 h -1.171875 v -5.6875 h 2.21875 q 0.640625,0 1.125,0.23437 0.488282,0.23438 0.75,0.66797 0.261719,0.42969 0.261719,0.98047 0,0.83594 -0.574219,1.32031 -0.570312,0.48047 -1.582031,0.48047 z m 0,-0.94922 h 1.046875 q 0.464844,0 0.707032,-0.21875 0.246093,-0.21875 0.246093,-0.625 0,-0.41796 -0.246093,-0.67578 -0.246094,-0.25781 -0.679688,-0.26562 h -1.074219 z"/>
    <path id="path41687" style="font-weight:bold;font-size:8px;font-family:Roboto, sans-serif;letter-spacing:1.5px;fill:#333333" d="m 49.71875,211.3125 v 3.74609 q 0,0.9336 -0.585938,1.47657 -0.582031,0.54296 -1.59375,0.54296 -0.996093,0 -1.582031,-0.52734 -0.585937,-0.52734 -0.597656,-1.44922 v -3.78906 h 1.171875 v 3.75391 q 0,0.55859 0.265625,0.8164 0.269531,0.25391 0.742187,0.25391 0.988282,0 1.003907,-1.03906 v -3.78516 z"/>
    <path id="path41689" style="font-weight:bold;font-size:8px;font-family:Roboto, sans-serif;letter-spacing:1.5px;fill:#333333" d="M 56.460937,212.26172 H 54.71875 V 217 h -1.171875 v -4.73828 h -1.71875 v -0.94922 h 4.632812 z"/>
  </g>
  <g transform="translate(12,227)" id="g41437"/>
  <g transform="translate(0,215)" id="g41453">
    <g transform="translate(20,20)" id="g41451">
      <g transform="rotate(120,-5,2.8867513)" id="g41441">
        <path d="M 0,0 H 4" style="stroke:#333333;stroke-width:1" id="polyline41439"/>
      </g>
      <path d="M 0,-12.5 A 12.5,12.5 0 0 1 12.5,0" stroke-width="0.5" stroke-linecap="round" fill="none" id="path41443"/>
      <path d="M 0,-12.5 A 12.5,12.5 0 0 1 12.5,0" stroke-width="0.5" stroke-linecap="round" fill="none" transform="rotate(43)" id="path41445"/>
      <path d="M 0,-12.5 A 12.5,12.5 0 0 0 -12.5,0" stroke-width="0.5" stroke-linecap="round" fill="none" id="path41447"/>
      <path d="M 0,-12.5 A 12.5,12.5 0 0 0 -12.5,0" stroke-width="0.5" stroke-linecap="round" fill="none" transform="rotate(-43)" id="path41449"/>
    </g>
  </g>
  <g style="font-weight:bold;font-size:6.66667px;font-family:Roboto, sans-serif;letter-spacing:2px;fill:#333333" id="text41455" aria-label="GAIN">
    <path id="path41669" style="font-weight:bold;font-size:6.66667px;font-family:Roboto, sans-serif;letter-spacing:2px;fill:#333333" d="m 13.173179,253.40104 q -0.263672,0.31576 -0.745443,0.49154 -0.481771,0.17252 -1.067709,0.17252 -0.615235,0 -1.08073,-0.26692 -0.4622393,-0.27019 -0.7161457,-0.78125 -0.2506512,-0.51107 -0.2571616,-1.20118 v -0.32226 q 0,-0.70964 0.2376304,-1.22722 0.2408855,-0.52083 0.6901049,-0.79427 0.452474,-0.27669 1.057943,-0.27669 0.843099,0 1.31836,0.40365 0.47526,0.40039 0.563151,1.16862 h -0.950521 q -0.0651,-0.4069 -0.289714,-0.59571 -0.221354,-0.1888 -0.611979,-0.1888 -0.498047,0 -0.758464,0.37435 -0.260417,0.37435 -0.263672,1.11328 v 0.30274 q 0,0.74544 0.283203,1.1263 0.283203,0.38086 0.830079,0.38086 0.55013,0 0.784505,-0.23438 v -0.81705 h -0.888672 v -0.71941 h 1.865235 z"/>
    <path id="path41671" style="font-weight:bold;font-size:6.66667px;font-family:Roboto, sans-serif;letter-spacing:2px;fill:#333333" d="M 18.643233,253.02344 H 16.930992 L 16.605471,254 h -1.038412 l 1.764324,-4.73959 h 0.904948 L 20.010421,254 h -1.038412 z m -1.448569,-0.79102 h 1.184897 l -0.595704,-1.77409 z"/>
    <path id="path41673" style="font-weight:bold;font-size:6.66667px;font-family:Roboto, sans-serif;letter-spacing:2px;fill:#333333" d="m 23.498052,254 h -0.976563 v -4.73959 h 0.976563 z"/>
    <path id="path41675" style="font-weight:bold;font-size:6.66667px;font-family:Roboto, sans-serif;letter-spacing:2px;fill:#333333" d="m 30.253914,254 h -0.976563 l -1.901043,-3.11849 V 254 h -0.976562 v -4.73959 h 0.976562 l 1.904298,3.12501 v -3.12501 h 0.973308 z"/>
  </g>
  <g transform="translate(47,227)" id="g41457"/>
  <g transform="translate(35,215)" id="g41473">
    <g transform="translate(20,20)" id="g41471">
      <g transform="rotate(120,-5,2.8867513)" id="g41461">
        <path d="M 0,0 H 4" style="stroke:#333333;stroke-width:1" id="polyline41459"/>
      </g>
      <path d="M 0,-12.5 A 12.5,12.5 0 0 1 12.5,0" stroke-width="0.5" stroke-linecap="round" fill="none" id="path41463"/>
      <path d="M 0,-12.5 A 12.5,12.5 0 0 1 12.5,0" stroke-width="0.5" stroke-linecap="round" fill="none" transform="rotate(43)" id="path41465"/>
      <path d="M 0,-12.5 A 12.5,12.5 0 0 0 -12.5,0" stroke-width="0.5" stroke-linecap="round" fill="none" id="path41467"/>
      <path d="M 0,-12.5 A 12.5,12.5 0 0 0 -12.5,0" stroke-width="0.5" stroke-linecap="round" fill="none" transform="rotate(-43)" id="path41469"/>
    </g>
  </g>
  <g style="font-weight:bold;font-size:6.66667px;font-family:Roboto, sans-serif;letter-spacing:2px;fill:#333333" id="text41475" aria-label="B14D">
    <path id="path41659" style="font-weight:bold;font-size:6.66667px;font-family:Roboto, sans-serif;letter-spacing:2px;fill:#333333" d="m 44.423177,254 v -4.73959 h 1.660157 q 0.862631,0 1.308595,0.33204 0.445963,0.32877 0.445963,0.96679 0,0.34831 -0.179036,0.61524 -0.179037,0.26367 -0.498047,0.38737 0.364583,0.0911 0.572917,0.36784 0.211588,0.27669 0.211588,0.67708 0,0.68359 -0.436198,1.03516 -0.436198,0.35156 -1.24349,0.35807 z m 0.976563,-2.0638 v 1.27929 h 0.836589 q 0.345052,0 0.53711,-0.16276 0.195312,-0.16601 0.195312,-0.45573 0,-0.65104 -0.673828,-0.6608 z m 0,-0.69011 h 0.722657 q 0.738932,-0.013 0.738932,-0.58919 0,-0.32227 -0.188802,-0.46224 -0.185547,-0.14323 -0.589193,-0.14323 H 45.39974 Z"/>
    <path id="path41661" style="font-weight:bold;font-size:6.66667px;font-family:Roboto, sans-serif;letter-spacing:2px;fill:#333333" d="m 52.865238,254 h -0.940756 v -3.6263 l -1.123048,0.3483 v -0.76497 l 1.962892,-0.70313 h 0.100912 z"/>
    <path id="path41663" style="font-weight:bold;font-size:6.66667px;font-family:Roboto, sans-serif;letter-spacing:2px;fill:#333333" d="m 59.191412,252.21614 h 0.537109 v 0.75847 H 59.191412 V 254 h -0.940756 v -1.02539 h -1.94336 l -0.04232,-0.59245 1.975912,-3.12175 h 0.950522 z m -1.988934,0 h 1.048178 v -1.67317 l -0.06185,0.10742 z"/>
    <path id="path41665" style="font-weight:bold;font-size:6.66667px;font-family:Roboto, sans-serif;letter-spacing:2px;fill:#333333" d="m 62.337246,254 v -4.73959 h 1.458334 q 0.625,0 1.116537,0.28321 0.494791,0.27995 0.771484,0.80078 0.276693,0.51758 0.276693,1.17839 v 0.21809 q 0,0.66081 -0.273438,1.17514 -0.270182,0.51432 -0.764974,0.79752 -0.494792,0.2832 -1.116537,0.28646 z m 0.976562,-3.94857 v 3.16406 h 0.472006 q 0.572917,0 0.875651,-0.37434 0.302735,-0.37435 0.309245,-1.07097 v -0.25065 q 0,-0.72266 -0.299479,-1.09375 -0.299479,-0.37435 -0.875651,-0.37435 z"/>
  </g>
  <g transform="translate(10,263)" id="g41481">
    <g style="font-weight:bold;font-size:6.66667px;font-family:Roboto, sans-serif;letter-spacing:0.5px;fill:#333333" id="text41477" transform="translate(0,6)" aria-label="B1">
      <path id="path41654" style="font-weight:bold;font-size:6.66667px;font-family:Roboto, sans-serif;letter-spacing:0.5px;fill:#333333" d="M 0.42317729,0 V -4.7395856 H 2.0833343 q 0.8626306,0 1.3085944,0.3320314 0.4459638,0.3287762 0.4459638,0.9667974 0,0.3483074 -0.1790366,0.6152346 -0.1790365,0.263672 -0.4980471,0.38737 0.3645835,0.091146 0.5729169,0.3678387 0.2115887,0.2766929 0.2115887,0.6770837 0,0.68359404 -0.4361981,1.03515671 Q 3.0729181,-0.00651042 2.2656261,0 Z M 1.3997403,-2.0638031 v 1.27929752 h 0.8365889 q 0.3450522,0 0.5371096,-0.1627605 0.1953126,-0.16601572 0.1953126,-0.45572942 0,-0.6510419 -0.6738284,-0.6608076 z m 0,-0.6901045 h 0.7226565 q 0.7389327,-0.013021 0.7389327,-0.589193 0,-0.3222657 -0.1888022,-0.4622398 -0.1855469,-0.1432292 -0.589193,-0.1432292 h -0.683594 z"/>
      <path id="path41656" style="font-weight:bold;font-size:6.66667px;font-family:Roboto, sans-serif;letter-spacing:0.5px;fill:#333333" d="M 7.3652375,0 H 6.4244819 V -3.6263038 L 5.3014345,-3.2779964 V -4.0429707 L 7.264326,-4.746096 h 0.1009115 z"/>
    </g>
    <g transform="translate(9.5,-1)" id="g41479"/>
  </g>
  <g transform="translate(47.5,263)" id="g41487">
    <g style="font-weight:bold;font-size:6.66667px;font-family:Roboto, sans-serif;letter-spacing:0.5px;fill:#333333" id="text41483" transform="translate(-5,6)" aria-label="B14">
      <path id="path41647" style="font-weight:bold;font-size:6.66667px;font-family:Roboto, sans-serif;letter-spacing:0.5px;fill:#333333" d="M 0.42317729,0 V -4.7395856 H 2.0833343 q 0.8626306,0 1.3085944,0.3320314 0.4459638,0.3287762 0.4459638,0.9667974 0,0.3483074 -0.1790366,0.6152346 -0.1790365,0.263672 -0.4980471,0.38737 0.3645835,0.091146 0.5729169,0.3678387 0.2115887,0.2766929 0.2115887,0.6770837 0,0.68359404 -0.4361981,1.03515671 Q 3.0729181,-0.00651042 2.2656261,0 Z M 1.3997403,-2.0638031 v 1.27929752 h 0.8365889 q 0.3450522,0 0.5371096,-0.1627605 0.1953126,-0.16601572 0.1953126,-0.45572942 0,-0.6510419 -0.6738284,-0.6608076 z m 0,-0.6901045 h 0.7226565 q 0.7389327,-0.013021 0.7389327,-0.589193 0,-0.3222657 -0.1888022,-0.4622398 -0.1855469,-0.1432292 -0.589193,-0.1432292 h -0.683594 z"/>
      <path id="path41649" style="font-weight:bold;font-size:6.66667px;font-family:Roboto, sans-serif;letter-spacing:0.5px;fill:#333333" d="M 7.3652375,0 H 6.4244819 V -3.6263038 L 5.3014345,-3.2779964 V -4.0429707 L 7.264326,-4.746096 h 0.1009115 z"/>
      <path id="path41651" style="font-weight:bold;font-size:6.66667px;font-family:Roboto, sans-serif;letter-spacing:0.5px;fill:#333333" d="m 12.191412,-1.783855 h 0.537109 v 0.7584639 H 12.191412 V 0 H 11.250656 V -1.0253911 H 9.3072956 L 9.2649779,-1.6178393 11.24089,-4.7395856 h 0.950522 z m -1.988934,0 h 1.048178 v -1.6731779 l -0.06185,0.1074219 z"/>
    </g>
    <g transform="translate(9.5,-1)" id="g41485"/>
  </g>
  <path d="m 10.5,287 h 54 c 2.77,0 5,2.23 5,5 v 63 c 0,2.77 -2.23,5 -5,5 h -54 c -2.77,0 -5,-2.23 -5,-5 v -63 c 0,-2.77 2.23,-5 5,-5 z" style="fill:#bbbbbb" id="rect41491"/>
  <path d="m 10.5,287 h 22 c 2.77,0 5,2.23 5,5 v 26.5 c 0,2.77 -2.23,5 -5,5 h -22 c -2.77,0 -5,-2.23 -5,-5 V 292 c 0,-2.77 2.23,-5 5,-5 z" style="fill:#fafafa" id="rect41493"/>
  <path d="m 5.5,313.5 h 32 v 10 h -32 z" style="fill:#fafafa" id="rect41495"/>
  <path d="m 27.5,287 h 10 v 36.5 h -10 z" style="fill:#fafafa" id="rect41497"/>
  <g transform="translate(10.5,290)" id="g41499"/>
  <g style="font-weight:bold;font-size:6.66667px;font-family:Roboto, sans-serif;letter-spacing:2px;fill:#333333" id="text41501" aria-label="IN">
    <path id="path41638" style="font-weight:bold;font-size:6.66667px;font-family:Roboto, sans-serif;letter-spacing:2px;fill:#333333" d="m 19.461589,322 h -0.976563 v -4.73959 h 0.976563 z"/>
    <path id="path41640" style="font-weight:bold;font-size:6.66667px;font-family:Roboto, sans-serif;letter-spacing:2px;fill:#333333" d="m 26.217451,322 h -0.976563 l -1.901043,-3.11849 V 322 h -0.976563 v -4.73959 h 0.976563 l 1.904298,3.12501 v -3.12501 h 0.973308 z"/>
  </g>
  <g transform="translate(40.5,290)" id="g41503"/>
  <g style="font-weight:bold;font-size:6.66667px;font-family:Roboto, sans-serif;letter-spacing:2px;fill:#333333" id="text41505" aria-label="ODD">
    <path id="path41631" style="font-weight:bold;font-size:6.66667px;font-family:Roboto, sans-serif;letter-spacing:2px;fill:#333333" d="m 48.316408,319.73763 q 0,0.69987 -0.247396,1.22721 -0.247396,0.52735 -0.709635,0.81381 -0.458985,0.28645 -1.054688,0.28645 -0.589193,0 -1.051433,-0.2832 -0.46224,-0.2832 -0.716146,-0.80729 -0.253907,-0.52735 -0.257162,-1.21094 v -0.23437 q 0,-0.69987 0.250651,-1.23047 0.253907,-0.53386 0.712891,-0.81706 0.46224,-0.28646 1.054688,-0.28646 0.592448,0 1.051433,0.28646 0.46224,0.2832 0.712891,0.81706 0.253906,0.5306 0.253906,1.22721 z m -0.989583,-0.21484 q 0,-0.74545 -0.266928,-1.13282 -0.266927,-0.38737 -0.761719,-0.38737 -0.491537,0 -0.758464,0.38412 -0.266927,0.38086 -0.270182,1.11979 v 0.23112 q 0,0.72591 0.266927,1.1263 0.266927,0.40039 0.76823,0.40039 0.491536,0 0.755208,-0.38411 0.263672,-0.38737 0.266928,-1.1263 z"/>
    <path id="path41633" style="font-weight:bold;font-size:6.66667px;font-family:Roboto, sans-serif;letter-spacing:2px;fill:#333333" d="m 51.032555,322 v -4.73959 h 1.458334 q 0.625,0 1.116537,0.28321 0.494792,0.27995 0.771484,0.80078 0.276693,0.51758 0.276693,1.17839 v 0.21809 q 0,0.66081 -0.273437,1.17514 -0.270183,0.51432 -0.764975,0.79752 -0.494792,0.2832 -1.116537,0.28646 z m 0.976563,-3.94857 v 3.16406 h 0.472005 q 0.572917,0 0.875652,-0.37434 0.302734,-0.37435 0.309244,-1.07097 v -0.25065 q 0,-0.72266 -0.299479,-1.09375 -0.299479,-0.37435 -0.875651,-0.37435 z"/>
    <path id="path41635" style="font-weight:bold;font-size:6.66667px;font-family:Roboto, sans-serif;letter-spacing:2px;fill:#333333" d="m 57.368494,322 v -4.73959 h 1.458334 q 0.625,0 1.116537,0.28321 0.494792,0.27995 0.771484,0.80078 0.276693,0.51758 0.276693,1.17839 v 0.21809 q 0,0.66081 -0.273437,1.17514 -0.270183,0.51432 -0.764975,0.79752 -0.494792,0.2832 -1.116537,0.28646 z m 0.976563,-3.94857 v 3.16406 h 0.472005 q 0.572917,0 0.875651,-0.37434 0.302735,-0.37435 0.309245,-1.07097 v -0.25065 q 0,-0.72266 -0.299479,-1.09375 -0.299479,-0.37435 -0.875651,-0.37435 z"/>
  </g>
  <g transform="translate(10.5,325)" id="g41507"/>
  <g style="font-weight:bold;font-size:6.66667px;font-family:Roboto, sans-serif;letter-spacing:2px;fill:#333333" id="text41509" aria-label="OUT">
    <path id="path41624" style="font-weight:bold;font-size:6.66667px;font-family:Roboto, sans-serif;letter-spacing:2px;fill:#333333" d="m 17.816408,354.73763 q 0,0.69987 -0.247396,1.22721 -0.247396,0.52735 -0.709635,0.81381 -0.458985,0.28645 -1.054688,0.28645 -0.589193,0 -1.051433,-0.2832 -0.46224,-0.2832 -0.716146,-0.80729 -0.253907,-0.52735 -0.257162,-1.21094 v -0.23437 q 0,-0.69987 0.250651,-1.23047 0.253907,-0.53386 0.712891,-0.81706 0.46224,-0.28646 1.054688,-0.28646 0.592448,0 1.051433,0.28646 0.46224,0.2832 0.712891,0.81706 0.253906,0.5306 0.253906,1.22721 z m -0.989583,-0.21484 q 0,-0.74545 -0.266928,-1.13282 -0.266927,-0.38737 -0.761719,-0.38737 -0.491537,0 -0.758464,0.38412 -0.266927,0.38086 -0.270182,1.11979 v 0.23112 q 0,0.72591 0.266927,1.1263 0.266927,0.40039 0.76823,0.40039 0.491536,0 0.755208,-0.38411 0.263672,-0.38737 0.266928,-1.1263 z"/>
    <path id="path41626" style="font-weight:bold;font-size:6.66667px;font-family:Roboto, sans-serif;letter-spacing:2px;fill:#333333" d="m 24.119796,352.26041 v 3.12175 q 0,0.778 -0.488282,1.23047 -0.485026,0.45247 -1.328125,0.45247 -0.830079,0 -1.31836,-0.43945 -0.488282,-0.43945 -0.498047,-1.20768 v -3.15756 h 0.976563 v 3.12826 q 0,0.4655 0.221354,0.68034 0.224609,0.21159 0.61849,0.21159 0.823568,0 0.836589,-0.86589 v -3.1543 z"/>
    <path id="path41628" style="font-weight:bold;font-size:6.66667px;font-family:Roboto, sans-serif;letter-spacing:2px;fill:#333333" d="M 30.488288,353.05143 H 29.036464 V 357 h -0.976563 v -3.94857 h -1.432292 v -0.79102 h 3.860679 z"/>
  </g>
  <g transform="translate(40.5,325)" id="g41511"/>
  <g style="font-weight:bold;font-size:6.66667px;font-family:Roboto, sans-serif;letter-spacing:2px;fill:#333333" id="text41513" aria-label="EVEN">
    <path id="path41615" style="font-weight:bold;font-size:6.66667px;font-family:Roboto, sans-serif;letter-spacing:2px;fill:#333333" d="M 44.774741,354.94596 H 42.89974 v 1.26953 h 2.200522 V 357 h -3.177085 v -4.73959 h 3.170575 v 0.79102 H 42.89974 v 1.12956 h 1.875001 z"/>
    <path id="path41617" style="font-weight:bold;font-size:6.66667px;font-family:Roboto, sans-serif;letter-spacing:2px;fill:#333333" d="m 49.424482,355.82487 1.074219,-3.56446 h 1.08724 L 49.93555,357 h -1.018881 l -1.643881,-4.73959 h 1.083985 z"/>
    <path id="path41619" style="font-weight:bold;font-size:6.66667px;font-family:Roboto, sans-serif;letter-spacing:2px;fill:#333333" d="m 56.886724,354.94596 h -1.875 v 1.26953 h 2.200521 V 357 h -3.177084 v -4.73959 h 3.170574 v 0.79102 h -2.194011 v 1.12956 h 1.875 z"/>
    <path id="path41621" style="font-weight:bold;font-size:6.66667px;font-family:Roboto, sans-serif;letter-spacing:2px;fill:#333333" d="m 63.63933,357 h -0.976563 l -1.901042,-3.11849 V 357 h -0.976563 v -4.73959 h 0.976563 l 1.904297,3.12501 v -3.12501 h 0.973308 z"/>
  </g>
</svg>
