<?xml version="1.0" encoding="UTF-8" standalone="no"?>
<svg xmlns:dc="http://purl.org/dc/elements/1.1/" xmlns:cc="http://creativecommons.org/ns#" xmlns:rdf="http://www.w3.org/1999/02/22-rdf-syntax-ns#" xmlns:svg="http://www.w3.org/2000/svg" xmlns="http://www.w3.org/2000/svg" xmlns:sodipodi="http://sodipodi.sourceforge.net/DTD/sodipodi-0.dtd" xmlns:inkscape="http://www.inkscape.org/namespaces/inkscape" inkscape:version="1.0 (4035a4f, 2020-05-01)" sodipodi:docname="svg_render_PEQ14XR-pp.svg" id="svg42238" viewBox="0 0 75 380" height="380" width="75" version="1.1">
  <metadata id="metadata42244">
    <rdf:RDF>
      <cc:Work rdf:about="">
        <dc:format>image/svg+xml</dc:format>
        <dc:type rdf:resource="http://purl.org/dc/dcmitype/StillImage"/>
      </cc:Work>
    </rdf:RDF>
  </metadata>
  <defs id="defs42242"/>
  <sodipodi:namedview inkscape:current-layer="svg42238" inkscape:window-maximized="0" inkscape:window-y="23" inkscape:window-x="0" inkscape:cy="190" inkscape:cx="37.5" inkscape:zoom="1.7605263" showgrid="false" id="namedview42240" inkscape:window-height="480" inkscape:window-width="689" inkscape:pageshadow="2" inkscape:pageopacity="0" guidetolerance="10" gridtolerance="10" objecttolerance="10" borderopacity="1" bordercolor="#666666" pagecolor="#ffffff"/>
  
  <path d="M 0,0 H 75 V 380 H 0 Z" style="fill:#dddddd" id="rect42158"/>
  <path d="M 1,1 H 74 V 379 H 1 V 1" style="fill:none;stroke:#e4e4e4;stroke-width:0.5" id="polyline42160"/>
  <path d="m 0.5,0.5 h 74 v 379 H 0.5 V 0.5" style="fill:none;stroke:#ebebeb;stroke-width:0.8" id="polyline42162"/>
  <path d="M 0,0 H 75 V 380 H 0 V 0" style="fill:none;stroke:#f2f2f2;stroke-width:1" id="polyline42164"/>
  <g class="title" style="font-weight:normal;font-size:9.33333px;font-family:Comfortaa, sans-serif;letter-spacing:1px;fill:#333333" id="text42166" aria-label="PEQ14XR">
    <path id="path42315" style="font-weight:normal;font-size:9.33333px;font-family:Comfortaa, sans-serif;letter-spacing:1px;fill:#333333" d="M 21.297333,14 Q 21.138667,14 21.036,13.897333 20.933333,13.794667 20.933333,13.636 V 7.0746669 q 0,-0.1586667 0.102667,-0.2613333 0.102667,-0.1026667 0.261333,-0.1026667 H 23.164 q 0.681333,0 1.213333,0.308 0.541333,0.2986667 0.84,0.84 0.298667,0.532 0.298667,1.2226666 0,0.6813333 -0.298667,1.2133335 -0.298667,0.532 -0.84,0.830666 Q 23.845333,11.424 23.164,11.424 h -1.502667 v 2.212 q 0,0.158667 -0.102666,0.261333 Q 21.456,14 21.297333,14 Z M 23.164,10.724 q 0.476,0 0.849333,-0.205333 Q 24.386667,10.304 24.592,9.9306668 24.806667,9.5573335 24.806667,9.0813335 24.806667,8.5960002 24.592,8.2226669 24.386667,7.8400002 24.013333,7.6253336 23.64,7.4106669 23.164,7.4106669 H 21.661333 V 10.724 Z"/>
    <path id="path42317" style="font-weight:normal;font-size:9.33333px;font-family:Comfortaa, sans-serif;letter-spacing:1px;fill:#333333" d="m 28.003062,14 q -0.149333,0 -0.261333,-0.102667 -0.102667,-0.112 -0.102667,-0.261333 V 7.0746669 q 0,-0.1586667 0.102667,-0.2613333 0.112,-0.1026667 0.261333,-0.1026667 h 4.377333 q 0.158667,0 0.261334,0.1026667 0.102666,0.1026666 0.102666,0.252 0,0.1493333 -0.102666,0.252 -0.102667,0.093333 -0.261334,0.093333 h -4.013333 v 2.5759999 h 2.921334 q 0.158666,0 0.261333,0.1026662 0.102667,0.102667 0.102667,0.252 0,0.149334 -0.112,0.252 -0.102667,0.102667 -0.252,0.102667 H 28.367062 V 13.3 h 4.013333 q 0.158667,0 0.261334,0.102667 0.102666,0.09333 0.102666,0.242666 0,0.149334 -0.102666,0.252 Q 32.539062,14 32.380395,14 Z"/>
    <path id="path42319" style="font-weight:normal;font-size:9.33333px;font-family:Comfortaa, sans-serif;letter-spacing:1px;fill:#333333" d="m 41.70952,13.393333 q 0.102667,0.102667 0.102667,0.242667 0,0.149333 -0.102667,0.252 -0.112,0.112 -0.252,0.112 -0.14,0 -0.252,-0.112 l -0.494667,-0.494667 q -0.466666,0.336 -1.045333,0.522667 -0.569333,0.177333 -1.204,0.177333 -1.064,0 -1.913333,-0.485333 -0.849334,-0.485333 -1.334667,-1.334667 -0.476,-0.858666 -0.476,-1.922666 0,-1.0640002 0.476,-1.9133335 0.485333,-0.8493333 1.334667,-1.3346666 0.849333,-0.4853333 1.913333,-0.4853333 1.054667,0 1.904,0.4853333 0.858667,0.4853333 1.334667,1.3346666 0.485333,0.8493333 0.485333,1.9133335 0,0.756 -0.252,1.418666 -0.242667,0.653334 -0.7,1.148 z m -3.248,0.0093 q 0.989333,0 1.726667,-0.522667 L 39.18952,11.881333 q -0.112,-0.112 -0.112,-0.252 0,-0.14 0.112,-0.252 0.102667,-0.102666 0.242667,-0.102666 0.149333,0 0.252,0.102666 l 1.036,1.036 q 0.354666,-0.410666 0.550666,-0.942666 0.196,-0.532 0.196,-1.12 0,-0.8493335 -0.392,-1.5400002 -0.392,-0.6999999 -1.082666,-1.1013333 -0.681334,-0.4013333 -1.530667,-0.4013333 -0.858667,0 -1.549333,0.4013333 -0.681334,0.4013334 -1.073334,1.1013333 -0.392,0.6906667 -0.392,1.5400002 0,0.858666 0.392,1.558666 0.392,0.690667 1.073334,1.092 0.690666,0.401334 1.549333,0.401334 z"/>
    <path id="path42321" style="font-weight:normal;font-size:9.33333px;font-family:Comfortaa, sans-serif;letter-spacing:1px;fill:#333333" d="m 45.993686,14 q -0.149333,0 -0.261333,-0.102667 -0.102667,-0.112 -0.102667,-0.261333 V 7.5693336 l -0.933333,0.3266666 q -0.09333,0.046667 -0.186667,0.046667 -0.158666,0 -0.261333,-0.093333 -0.102667,-0.1026666 -0.102667,-0.2613333 0,-0.2706666 0.233334,-0.3453333 l 1.437333,-0.4946667 q 0.14,-0.046667 0.186666,-0.046667 0.149334,0 0.252,0.1026666 0.102667,0.1026667 0.102667,0.2613334 V 13.636 q 0,0.149333 -0.102667,0.261333 Q 46.152353,14 45.993686,14 Z"/>
    <path id="path42323" style="font-weight:normal;font-size:9.33333px;font-family:Comfortaa, sans-serif;letter-spacing:1px;fill:#333333" d="m 53.582145,11.601333 q 0.354667,0 0.354667,0.336 0,0.121334 -0.112,0.224 -0.102667,0.09333 -0.242667,0.09333 H 52.844812 V 13.636 q 0,0.149333 -0.102667,0.261333 Q 52.639478,14 52.480812,14 q -0.149334,0 -0.252,-0.102667 -0.09333,-0.102666 -0.09333,-0.261333 v -1.381333 h -3.341333 q -0.158666,0 -0.261333,-0.102667 -0.102667,-0.112 -0.102667,-0.252 0,-0.112 0.07467,-0.214667 l 3.696,-4.8346661 q 0.102666,-0.1493333 0.298666,-0.1493333 0.149334,0 0.242667,0.112 0.102667,0.1026666 0.102667,0.2613333 v 4.5266661 z m -1.446667,0 V 8.0360002 l -2.734666,3.5653328 z"/>
    <path id="path42325" style="font-weight:normal;font-size:9.33333px;font-family:Comfortaa, sans-serif;letter-spacing:1px;fill:#333333" d="m 61.427999,13.412 q 0.084,0.112 0.084,0.233333 0,0.149334 -0.09333,0.252 Q 61.325332,14 61.166665,14 q -0.186666,0 -0.28,-0.130667 L 58.655999,10.78 56.378665,13.888 Q 56.285332,14 56.117332,14 q -0.158667,0 -0.252,-0.09333 -0.09333,-0.102667 -0.09333,-0.242667 0,-0.14 0.084,-0.252 l 2.305333,-3.136 -2.156,-2.9959998 q -0.07467,-0.1213333 -0.07467,-0.224 0,-0.14 0.09333,-0.2426666 0.09333,-0.1026667 0.242666,-0.1026667 0.186667,0 0.28,0.1306667 l 2.118667,2.9306665 2.146667,-2.9306665 q 0.102666,-0.1306667 0.28,-0.1306667 0.149333,0 0.242666,0.112 0.09333,0.1026667 0.09333,0.2426667 0,0.1213333 -0.06533,0.2146666 l -2.202666,2.9866668 z"/>
    <path id="path42327" style="font-weight:normal;font-size:9.33333px;font-family:Comfortaa, sans-serif;letter-spacing:1px;fill:#333333" d="m 68.420289,13.44 q 0.084,0.14 0.084,0.252 0,0.14 -0.102667,0.224 Q 68.298956,14 68.130956,14 q -0.112,0 -0.186667,-0.04667 -0.07467,-0.04667 -0.130667,-0.14 l -1.68,-2.669333 h -0.158666 -1.381334 v 2.492 q 0,0.158667 -0.102666,0.261333 Q 64.388289,14 64.229622,14 64.070956,14 63.968289,13.897333 63.865622,13.794667 63.865622,13.636 V 7.0746669 q 0,-0.1586667 0.102667,-0.2613333 0.102667,-0.1026667 0.261333,-0.1026667 h 1.745334 q 0.681333,0 1.213333,0.2893333 0.532,0.28 0.830667,0.7933333 0.308,0.5133334 0.308,1.1666667 0,0.7186666 -0.392,1.2599998 -0.382667,0.541333 -1.045334,0.774667 z m -2.445333,-2.996 q 0.466666,0 0.84,-0.186667 0.382666,-0.196 0.588,-0.5319995 0.214666,-0.336 0.214666,-0.7653333 0,-0.448 -0.214666,-0.8026667 -0.205334,-0.3546666 -0.578667,-0.5506666 -0.373333,-0.196 -0.849333,-0.196 H 64.593622 V 10.444 Z"/>
  </g>
  <g class="brand" style="font-weight:bold;font-size:8.66667px;font-family:Audiowide, sans-serif;letter-spacing:2px;fill:#333333" id="text42168" aria-label="BGA">
    <path id="path42308" style="font-weight:bold;font-size:8.66667px;font-family:Audiowide, sans-serif;letter-spacing:2px;fill:#333333" d="m 31.694664,372.66699 q 0,0.20313 -0.07194,0.43587 -0.06771,0.23275 -0.228516,0.43165 -0.156576,0.19889 -0.410482,0.33431 Q 30.72982,374 30.361656,374 h -4.17676 q -0.118489,0 -0.220052,-0.0423 -0.101562,-0.0423 -0.177734,-0.11426 -0.07194,-0.0762 -0.114258,-0.17773 -0.04232,-0.10156 -0.04232,-0.22005 V 368.486 q 0,-0.11426 0.04232,-0.21582 0.04232,-0.10156 0.114258,-0.17773 0.07617,-0.0762 0.177734,-0.11849 0.101563,-0.0423 0.220052,-0.0423 h 3.681642 q 0.203125,0 0.435873,0.0719 0.232747,0.0719 0.431641,0.23275 0.203125,0.15657 0.33431,0.41048 0.135416,0.2539 0.135416,0.62207 v 0.20736 q 0,0.29199 -0.09733,0.63053 -0.09733,0.33431 -0.313152,0.63477 0.186198,0.11425 0.347006,0.27506 0.165039,0.16081 0.28776,0.3724 0.122722,0.21159 0.194662,0.47819 0.07194,0.2666 0.07194,0.58821 z m -1.100261,-0.21159 q 0,-0.21582 -0.06771,-0.38509 -0.06771,-0.1735 -0.19043,-0.29622 -0.122721,-0.12272 -0.296224,-0.1862 -0.173503,-0.0677 -0.389323,-0.0677 h -2.479819 v -1.10872 H 29.1556 q 0.215821,0 0.389324,-0.0635 0.173502,-0.0677 0.296224,-0.19043 0.122721,-0.12272 0.186198,-0.29199 0.06771,-0.1735 0.06771,-0.38932 v -0.20736 q 0,-0.23698 -0.228516,-0.23698 h -3.135743 v 3.86784 h 3.630861 q 0.02962,0 0.07194,-0.004 0.04232,-0.004 0.07617,-0.0254 0.03385,-0.0212 0.05924,-0.0719 0.02539,-0.0508 0.02539,-0.13965 z"/>
    <path id="path42310" style="font-weight:bold;font-size:8.66667px;font-family:Audiowide, sans-serif;letter-spacing:2px;fill:#333333" d="m 40.63477,373.44564 q 0,0.11849 -0.04232,0.22005 -0.04232,0.10156 -0.118489,0.17773 -0.07194,0.0719 -0.173503,0.11426 Q 40.198897,374 40.080408,374 h -3.969403 q -0.152344,0 -0.330078,-0.0338 -0.173503,-0.0381 -0.347005,-0.11426 -0.169271,-0.0762 -0.325847,-0.19466 -0.156575,-0.12272 -0.279297,-0.292 -0.118489,-0.1735 -0.19043,-0.39778 -0.07194,-0.22852 -0.07194,-0.51205 v -2.97916 q 0,-0.15235 0.03385,-0.32585 0.03809,-0.17774 0.114257,-0.34701 0.07617,-0.1735 0.198894,-0.33007 0.122721,-0.15658 0.291992,-0.27507 0.173503,-0.12272 0.397787,-0.19466 0.224284,-0.0719 0.507812,-0.0719 h 4.472984 v 1.10026 h -4.472984 q -0.21582,0 -0.330078,0.11426 -0.114258,0.11425 -0.114258,0.33854 v 2.9707 q 0,0.21159 0.114258,0.33008 0.11849,0.11426 0.330078,0.11426 h 3.423504 v -1.37956 h -2.928386 v -1.10872 h 3.474285 q 0.118489,0 0.220052,0.0466 0.101562,0.0423 0.173503,0.11849 0.07617,0.0762 0.118489,0.17773 0.04232,0.0973 0.04232,0.21159 z"/>
    <path id="path42312" style="font-weight:bold;font-size:8.66667px;font-family:Audiowide, sans-serif;letter-spacing:2px;fill:#333333" d="m 49.744148,374 h -1.100261 v -1.48958 h -3.86784 V 374 h -1.10026 v -3.03418 q 0,-0.66439 0.228515,-1.22298 0.228516,-0.5586 0.634766,-0.96062 0.40625,-0.40201 0.960612,-0.6263 0.554363,-0.22428 1.210287,-0.22428 h 2.479819 q 0.114258,0 0.21582,0.0423 0.101563,0.0423 0.177735,0.11849 0.07617,0.0762 0.118489,0.17773 0.04232,0.10156 0.04232,0.21582 z m -4.968101,-2.58984 h 3.86784 v -2.37826 h -1.93392 q -0.05078,0 -0.21582,0.0169 -0.160807,0.0127 -0.376628,0.0719 -0.211588,0.0592 -0.448568,0.18196 -0.236979,0.12272 -0.435872,0.33854 -0.198894,0.21582 -0.330078,0.54167 -0.126954,0.32162 -0.126954,0.78288 z"/>
  </g>
  <path d="m 36.5,370 h 2 v 2 h -2 z" style="fill:#dddddd" id="rect42170"/>
  <g transform="translate(12,30)" id="g42174"/>
  <g transform="translate(0,18)" id="g42192">
    <svg version="1.1" id="svg42190" width="100%" height="100%">
      <g transform="translate(20,20)" id="g42188">
        <g transform="rotate(120,-5,2.8867513)" id="g42178">
          <path d="M 0,0 H 4" style="stroke:#333333;stroke-width:1" id="polyline42176"/>
        </g>
        <path d="M 0,-12.5 A 12.5,12.5 0 0 1 12.5,0" stroke="#333333" stroke-width="0.5" stroke-linecap="round" fill="none" id="path42180"/>
        <path d="M 0,-12.5 A 12.5,12.5 0 0 1 12.5,0" stroke="#333333" stroke-width="0.5" stroke-linecap="round" fill="none" transform="rotate(43)" id="path42182"/>
        <path d="M 0,-12.5 A 12.5,12.5 0 0 0 -12.5,0" stroke="#333333" stroke-width="0.5" stroke-linecap="round" fill="none" id="path42184"/>
        <path d="M 0,-12.5 A 12.5,12.5 0 0 0 -12.5,0" stroke="#333333" stroke-width="0.5" stroke-linecap="round" fill="none" transform="rotate(-43)" id="path42186"/>
      </g>
    </svg>
  </g>
  <g style="font-weight:bold;font-size:6.66667px;font-family:Roboto, sans-serif;letter-spacing:2px;fill:#333333" id="text42194" aria-label="DAMP">
    <path id="path42297" style="font-weight:bold;font-size:6.66667px;font-family:Roboto, sans-serif;letter-spacing:2px;fill:#333333" d="m 7.9231773,57 v -4.739586 h 1.458334 q 0.6250007,0 1.1165367,0.283204 0.494792,0.279948 0.771485,0.800781 0.276693,0.517579 0.276693,1.178386 v 0.218099 q 0,0.660808 -0.273438,1.175131 -0.270182,0.514323 -0.764974,0.797527 Q 10.013022,56.996745 9.3912769,57 Z m 0.976563,-3.94857 v 3.164064 h 0.4720054 q 0.5729169,0 0.8756513,-0.374349 0.302735,-0.374349 0.309245,-1.070964 V 54.51953 q 0,-0.722657 -0.299479,-1.09375 -0.2994795,-0.37435 -0.8756517,-0.37435 z"/>
    <path id="path42299" style="font-weight:bold;font-size:6.66667px;font-family:Roboto, sans-serif;letter-spacing:2px;fill:#333333" d="m 16.869795,56.023437 h -1.71224 L 14.832034,57 h -1.038412 l 1.764324,-4.739586 h 0.904948 L 18.236983,57 h -1.038412 z m -1.448568,-0.791016 h 1.184896 L 16.01042,53.458332 Z"/>
    <path id="path42301" style="font-weight:bold;font-size:6.66667px;font-family:Roboto, sans-serif;letter-spacing:2px;fill:#333333" d="m 21.962245,52.260414 1.217448,3.437502 1.210938,-3.437502 h 1.282553 V 57 H 24.693366 V 55.704426 L 24.791022,53.468097 23.511725,57 h -0.670573 l -1.276043,-3.528648 0.09766,2.233074 V 57 h -0.976563 v -4.739586 z"/>
    <path id="path42303" style="font-weight:bold;font-size:6.66667px;font-family:Roboto, sans-serif;letter-spacing:2px;fill:#333333" d="M 29.509123,55.330077 V 57 H 28.53256 v -4.739586 h 1.848959 q 0.533855,0 0.937501,0.195313 0.406901,0.195313 0.625,0.556641 0.218099,0.358073 0.218099,0.817058 0,0.696614 -0.478516,1.100261 -0.475261,0.40039 -1.31836,0.40039 z m 0,-0.791016 h 0.872396 q 0.38737,0 0.589193,-0.182291 0.205078,-0.182292 0.205078,-0.520834 0,-0.348307 -0.205078,-0.563151 -0.205078,-0.214844 -0.566406,-0.221355 h -0.895183 z"/>
  </g>
  <path d="m 10,60 h 20 c 2.77,0 5,2.23 5,5 v 20 c 0,2.77 -2.23,5 -5,5 H 10 C 7.23,90 5,87.77 5,85 V 65 c 0,-2.77 2.23,-5 5,-5 z" style="fill:#fafafa" id="rect42196"/>
  <g transform="translate(8,63)" id="g42198"/>
  <g transform="translate(47,29.5)" id="g42202"/>
  <g transform="translate(35,17.5)" id="g42220">
    <svg version="1.1" id="svg42218" width="100%" height="100%">
      <g transform="translate(20,20)" id="g42216">
        <g transform="rotate(-90,-5,-5)" id="g42206">
          <path d="M 0,0 H 4" style="stroke:#333333;stroke-width:1" id="polyline42204"/>
        </g>
        <path d="M 0,-12.5 A 12.5,12.5 0 0 1 12.5,0" stroke="#333333" stroke-width="0.5" stroke-linecap="round" fill="none" transform="rotate(20)" id="path42208"/>
        <path d="M 0,-12.5 A 12.5,12.5 0 0 1 12.5,0" stroke="#333333" stroke-width="0.5" stroke-linecap="round" fill="none" transform="rotate(43)" id="path42210"/>
        <path d="M 0,-12.5 A 12.5,12.5 0 0 0 -12.5,0" stroke="#333333" stroke-width="0.5" stroke-linecap="round" fill="none" transform="rotate(-20)" id="path42212"/>
        <path d="M 0,-12.5 A 12.5,12.5 0 0 0 -12.5,0" stroke="#333333" stroke-width="0.5" stroke-linecap="round" fill="none" transform="rotate(-43)" id="path42214"/>
      </g>
    </svg>
  </g>
  <g style="font-weight:bold;font-size:6.66667px;font-family:Roboto, sans-serif;letter-spacing:2px;fill:#333333" id="text42222" aria-label="GAIN">
    <path id="path42286" style="font-weight:bold;font-size:6.66667px;font-family:Roboto, sans-serif;letter-spacing:2px;fill:#333333" d="m 48.173179,55.901041 q -0.263672,0.315756 -0.745443,0.491537 -0.481771,0.172526 -1.067709,0.172526 -0.615235,0 -1.08073,-0.266927 -0.462239,-0.270182 -0.716146,-0.78125 Q 44.3125,55.005859 44.30599,54.315754 v -0.322266 q 0,-0.709635 0.23763,-1.227214 0.240886,-0.520833 0.690105,-0.794271 0.452474,-0.276693 1.057943,-0.276693 0.843099,0 1.31836,0.403646 0.47526,0.400391 0.563151,1.168621 h -0.950521 q -0.0651,-0.406902 -0.289714,-0.595704 -0.221354,-0.188802 -0.611979,-0.188802 -0.498047,0 -0.758464,0.374349 -0.260417,0.374349 -0.263672,1.113282 v 0.302734 q 0,0.745444 0.283203,1.126303 0.283203,0.38086 0.830079,0.38086 0.55013,0 0.784505,-0.234375 v -0.817058 h -0.888672 v -0.719402 h 1.865235 z"/>
    <path id="path42288" style="font-weight:bold;font-size:6.66667px;font-family:Roboto, sans-serif;letter-spacing:2px;fill:#333333" d="M 53.643233,55.523437 H 51.930992 L 51.605471,56.5 h -1.038412 l 1.764324,-4.739586 h 0.904948 L 55.010421,56.5 h -1.038412 z m -1.448569,-0.791016 h 1.184897 l -0.595704,-1.774089 z"/>
    <path id="path42290" style="font-weight:bold;font-size:6.66667px;font-family:Roboto, sans-serif;letter-spacing:2px;fill:#333333" d="m 58.498052,56.5 h -0.976563 v -4.739586 h 0.976563 z"/>
    <path id="path42292" style="font-weight:bold;font-size:6.66667px;font-family:Roboto, sans-serif;letter-spacing:2px;fill:#333333" d="M 65.253914,56.5 H 64.277351 L 62.376308,53.381509 V 56.5 h -0.976562 v -4.739586 h 0.976562 l 1.904298,3.125002 v -3.125002 h 0.973308 z"/>
  </g>
  <path d="m 45,59.5 h 20 c 2.77,0 5,2.23 5,5 v 20 c 0,2.77 -2.23,5 -5,5 H 45 c -2.77,0 -5,-2.23 -5,-5 v -20 c 0,-2.77 2.23,-5 5,-5 z" style="fill:#fafafa" id="rect42224"/>
  <g transform="translate(43,62.5)" id="g42226"/>
  <path d="m 25.5,318 h 24 c 2.77,0 5,2.23 5,5 v 32 c 0,2.77 -2.23,5 -5,5 h -24 c -2.77,0 -5,-2.23 -5,-5 v -32 c 0,-2.77 2.23,-5 5,-5 z" style="fill:#bbbbbb" id="rect42230"/>
  <g transform="translate(25.5,322)" id="g42232"/>
  <g style="font-weight:bold;font-size:6.66667px;font-family:Roboto, sans-serif;letter-spacing:2px;fill:#333333" id="text42234" aria-label="OUT">
    <path id="path42277" style="font-weight:bold;font-size:6.66667px;font-family:Roboto, sans-serif;letter-spacing:2px;fill:#333333" d="m 33.316408,352.73763 q 0,0.69987 -0.247396,1.22721 -0.247396,0.52735 -0.709635,0.81381 -0.458985,0.28645 -1.054688,0.28645 -0.589193,0 -1.051433,-0.2832 -0.46224,-0.2832 -0.716146,-0.80729 -0.253907,-0.52735 -0.257162,-1.21094 v -0.23437 q 0,-0.69987 0.250651,-1.23047 0.253907,-0.53386 0.712891,-0.81706 0.46224,-0.28646 1.054688,-0.28646 0.592448,0 1.051433,0.28646 0.46224,0.2832 0.712891,0.81706 0.253906,0.5306 0.253906,1.22721 z m -0.989583,-0.21484 q 0,-0.74545 -0.266928,-1.13282 -0.266927,-0.38737 -0.761719,-0.38737 -0.491537,0 -0.758464,0.38412 -0.266927,0.38086 -0.270182,1.11979 v 0.23112 q 0,0.72591 0.266927,1.1263 0.266927,0.40039 0.76823,0.40039 0.491536,0 0.755208,-0.38411 0.263672,-0.38737 0.266928,-1.1263 z"/>
    <path id="path42279" style="font-weight:bold;font-size:6.66667px;font-family:Roboto, sans-serif;letter-spacing:2px;fill:#333333" d="m 39.619796,350.26041 v 3.12175 q 0,0.778 -0.488282,1.23047 -0.485026,0.45247 -1.328125,0.45247 -0.830079,0 -1.31836,-0.43945 -0.488282,-0.43945 -0.498047,-1.20768 v -3.15756 h 0.976563 v 3.12826 q 0,0.4655 0.221354,0.68034 0.224609,0.21159 0.61849,0.21159 0.823568,0 0.836589,-0.86589 v -3.1543 z"/>
    <path id="path42281" style="font-weight:bold;font-size:6.66667px;font-family:Roboto, sans-serif;letter-spacing:2px;fill:#333333" d="M 45.988288,351.05143 H 44.536464 V 355 h -0.976563 v -3.94857 h -1.432292 v -0.79102 h 3.860679 z"/>
  </g>
</svg>
