<?xml version="1.0" encoding="UTF-8" standalone="no"?>
<svg xmlns:dc="http://purl.org/dc/elements/1.1/" xmlns:cc="http://creativecommons.org/ns#" xmlns:rdf="http://www.w3.org/1999/02/22-rdf-syntax-ns#" xmlns:svg="http://www.w3.org/2000/svg" xmlns="http://www.w3.org/2000/svg" xmlns:sodipodi="http://sodipodi.sourceforge.net/DTD/sodipodi-0.dtd" xmlns:inkscape="http://www.inkscape.org/namespaces/inkscape" inkscape:version="1.0 (4035a4f, 2020-05-01)" sodipodi:docname="svg_render_PEQ14XV-pp.svg" id="svg38908" viewBox="0 0 75 380" height="380" width="75" version="1.1">
  <metadata id="metadata38912">
    <rdf:RDF>
      <cc:Work rdf:about="">
        <dc:format>image/svg+xml</dc:format>
        <dc:type rdf:resource="http://purl.org/dc/dcmitype/StillImage"/>
      </cc:Work>
    </rdf:RDF>
  </metadata>
  <sodipodi:namedview inkscape:current-layer="svg38908" inkscape:window-maximized="0" inkscape:window-y="23" inkscape:window-x="0" inkscape:cy="190" inkscape:cx="37.5" inkscape:zoom="1.7605263" showgrid="false" id="namedview38910" inkscape:window-height="480" inkscape:window-width="689" inkscape:pageshadow="2" inkscape:pageopacity="0" guidetolerance="10" gridtolerance="10" objecttolerance="10" borderopacity="1" bordercolor="#666666" pagecolor="#ffffff"/>
  
  <defs id="defs38826">
    <symbol viewBox="0 0 26px 26px" id="knob26">
      <g id="g38744" transform="translate(13 13)">
        <polyline id="polyline38738" stroke="#00f" stroke-width="1" points="-3,0 3,0"/>
        <polyline id="polyline38740" stroke="#00f" stroke-width="1" points="0,-3 0,3"/>
        <circle id="circle38742" fill="none" stroke="#00f" stroke-width="1" r="12.5" cy="0" cx="0"/>
      </g>
    </symbol>
    <symbol viewBox="0 0 16px 16px" id="knob16">
      <g id="g38753" transform="translate(8 8)">
        <polyline id="polyline38747" stroke="#00f" stroke-width="1" points="-3,0 3,0"/>
        <polyline id="polyline38749" stroke="#00f" stroke-width="1" points="0,-3 0,3"/>
        <circle id="circle38751" fill="none" stroke="#00f" stroke-width="1" r="7.5"/>
      </g>
    </symbol>
    <symbol viewBox="0 0 40px 40px" id="dial-centertick">
      <g id="g38768" transform="translate(20 20)">
        <g id="g38758" transform="rotate(-90) translate(10 0)">
          <polyline id="polyline38756" stroke="#333" stroke-width="1" points="0,0 4,0"/>
        </g>
        <path id="path38760" transform="rotate(20)" fill="none" stroke-linecap="round" stroke-width="0.5" stroke="#333" d="M 0 -12.5 A 12.5 12.5 0 0 1 12.5 0"/>
        <path id="path38762" transform="rotate(43)" fill="none" stroke-linecap="round" stroke-width="0.5" stroke="#333" d="M 0 -12.5 A 12.5 12.5 0 0 1 12.5 0"/>
        <path id="path38764" transform="rotate(-20)" fill="none" stroke-linecap="round" stroke-width="0.5" stroke="#333" d="M 0 -12.5 A 12.5 12.5 0 0 0 -12.5 0"/>
        <path id="path38766" transform="rotate(-43)" fill="none" stroke-linecap="round" stroke-width="0.5" stroke="#333" d="M 0 -12.5 A 12.5 12.5 0 0 0 -12.5 0"/>
      </g>
    </symbol>
    <symbol viewBox="0 0 40px 40px" id="dial-mintick">
      <g id="g38783" transform="translate(20 20)">
        <g id="g38773" transform="rotate(-240) translate(10 0)">
          <polyline id="polyline38771" stroke="#333" stroke-width="1" points="0,0 4,0"/>
        </g>
        <path id="path38775" transform="rotate(0)" fill="none" stroke-linecap="round" stroke-width="0.5" stroke="#333" d="M 0 -12.5 A 12.5 12.5 0 0 1 12.5 0"/>
        <path id="path38777" transform="rotate(43)" fill="none" stroke-linecap="round" stroke-width="0.5" stroke="#333" d="M 0 -12.5 A 12.5 12.5 0 0 1 12.5 0"/>
        <path id="path38779" transform="rotate(0)" fill="none" stroke-linecap="round" stroke-width="0.5" stroke="#333" d="M 0 -12.5 A 12.5 12.5 0 0 0 -12.5 0"/>
        <path id="path38781" transform="rotate(-43)" fill="none" stroke-linecap="round" stroke-width="0.5" stroke="#333" d="M 0 -12.5 A 12.5 12.5 0 0 0 -12.5 0"/>
      </g>
    </symbol>
    <symbol viewBox="0 0 9px 9px" id="button-small">
      <g id="g38788" transform="translate(4.5 4.5)">
        <circle id="circle38786" fill="#f00" stroke="#00f" stroke-width="1" r="4"/>
      </g>
    </symbol>
    <symbol viewBox="0 0 24px 24px" id="input">
      <g id="g38795" transform="translate(12 12)">
        <circle id="circle38791" fill="#0f0" stroke="#0f0" stroke-width="1" r="5" cy="0" cx="0"/>
        <circle id="circle38793" fill="none" stroke="#0f0" stroke-width="3" r="10.5" cy="0" cx="0"/>
      </g>
    </symbol>
    <symbol viewBox="0 0 24px 24px" id="output">
      <g id="g38802" transform="translate(12 12)">
        <circle id="circle38798" fill="#f00" stroke="#f00" stroke-width="1" r="5" cy="0" cx="0"/>
        <circle id="circle38800" fill="none" stroke="#f00" stroke-width="3" r="10.5" cy="0" cx="0"/>
      </g>
    </symbol>
    <symbol viewBox="0 0 45px 45px" id="dial-transpose-peq14xv">
      <g id="g38823" transform="translate(22.5 22.5)">
        <text id="text38805" transform="rotate(-240) translate(18 0) rotate(240) translate(-3.5 2)" font-size="5.0pt">-2</text>
        <text id="text38807" transform="rotate(-165) translate(18 0) rotate(165) translate(-3 2)" font-size="5.0pt">-1</text>
        <text id="text38809" transform="rotate(-90) translate(18 0) rotate(90) translate(-2 3)" font-size="5.0pt">0</text>
        <text id="text38811" transform="rotate(-15) translate(18 0) rotate(15) translate(-2 2)" font-size="5.0pt">1</text>
        <text id="text38813" transform="rotate(60) translate(18 0) rotate(-60) translate(-2 2)" font-size="5.0pt">2</text>
        <polyline id="polyline38815" transform="rotate(-208.75) translate(15 0)" stroke="#333" stroke-width="0.3" points="0,0 2.5,0"/>
        <polyline id="polyline38817" transform="rotate(-133.75) translate(15 0)" stroke="#333" stroke-width="0.3" points="0,0 2.5,0"/>
        <polyline id="polyline38819" transform="rotate(-46.25) translate(15 0)" stroke="#333" stroke-width="0.3" points="0,0 2.5,0"/>
        <polyline id="polyline38821" transform="rotate(28.75) translate(15 0)" stroke="#333" stroke-width="0.3" points="0,0 2.5,0"/>
      </g>
    </symbol>
  </defs>
  <path d="M 0,0 H 75 V 380 H 0 Z" style="fill:#dddddd" id="rect38828"/>
  <path d="M 1,1 H 74 V 379 H 1 V 1" style="fill:none;stroke:#e4e4e4;stroke-width:0.5" id="polyline38830"/>
  <path d="m 0.5,0.5 h 74 v 379 H 0.5 V 0.5" style="fill:none;stroke:#ebebeb;stroke-width:0.8" id="polyline38832"/>
  <path d="M 0,0 H 75 V 380 H 0 V 0" style="fill:none;stroke:#f2f2f2;stroke-width:1" id="polyline38834"/>
  <g class="title" style="font-weight:normal;font-size:9.33333px;font-family:Comfortaa, sans-serif;letter-spacing:1px;fill:#333333" id="text38836" aria-label="PEQ14XV">
    <path id="path39197" style="font-weight:normal;font-size:9.33333px;font-family:Comfortaa, sans-serif;letter-spacing:1px;fill:#333333" d="M 21.297333,14 Q 21.138667,14 21.036,13.897333 20.933333,13.794667 20.933333,13.636 V 7.0746669 q 0,-0.1586667 0.102667,-0.2613333 0.102667,-0.1026667 0.261333,-0.1026667 H 23.164 q 0.681333,0 1.213333,0.308 0.541333,0.2986667 0.84,0.84 0.298667,0.532 0.298667,1.2226666 0,0.6813333 -0.298667,1.2133335 -0.298667,0.532 -0.84,0.830666 Q 23.845333,11.424 23.164,11.424 h -1.502667 v 2.212 q 0,0.158667 -0.102666,0.261333 Q 21.456,14 21.297333,14 Z M 23.164,10.724 q 0.476,0 0.849333,-0.205333 Q 24.386667,10.304 24.592,9.9306668 24.806667,9.5573335 24.806667,9.0813335 24.806667,8.5960002 24.592,8.2226669 24.386667,7.8400002 24.013333,7.6253336 23.64,7.4106669 23.164,7.4106669 H 21.661333 V 10.724 Z"/>
    <path id="path39199" style="font-weight:normal;font-size:9.33333px;font-family:Comfortaa, sans-serif;letter-spacing:1px;fill:#333333" d="m 28.003062,14 q -0.149333,0 -0.261333,-0.102667 -0.102667,-0.112 -0.102667,-0.261333 V 7.0746669 q 0,-0.1586667 0.102667,-0.2613333 0.112,-0.1026667 0.261333,-0.1026667 h 4.377333 q 0.158667,0 0.261334,0.1026667 0.102666,0.1026666 0.102666,0.252 0,0.1493333 -0.102666,0.252 -0.102667,0.093333 -0.261334,0.093333 h -4.013333 v 2.5759999 h 2.921334 q 0.158666,0 0.261333,0.1026662 0.102667,0.102667 0.102667,0.252 0,0.149334 -0.112,0.252 -0.102667,0.102667 -0.252,0.102667 H 28.367062 V 13.3 h 4.013333 q 0.158667,0 0.261334,0.102667 0.102666,0.09333 0.102666,0.242666 0,0.149334 -0.102666,0.252 Q 32.539062,14 32.380395,14 Z"/>
    <path id="path39201" style="font-weight:normal;font-size:9.33333px;font-family:Comfortaa, sans-serif;letter-spacing:1px;fill:#333333" d="m 41.70952,13.393333 q 0.102667,0.102667 0.102667,0.242667 0,0.149333 -0.102667,0.252 -0.112,0.112 -0.252,0.112 -0.14,0 -0.252,-0.112 l -0.494667,-0.494667 q -0.466666,0.336 -1.045333,0.522667 -0.569333,0.177333 -1.204,0.177333 -1.064,0 -1.913333,-0.485333 -0.849334,-0.485333 -1.334667,-1.334667 -0.476,-0.858666 -0.476,-1.922666 0,-1.0640002 0.476,-1.9133335 0.485333,-0.8493333 1.334667,-1.3346666 0.849333,-0.4853333 1.913333,-0.4853333 1.054667,0 1.904,0.4853333 0.858667,0.4853333 1.334667,1.3346666 0.485333,0.8493333 0.485333,1.9133335 0,0.756 -0.252,1.418666 -0.242667,0.653334 -0.7,1.148 z m -3.248,0.0093 q 0.989333,0 1.726667,-0.522667 L 39.18952,11.881333 q -0.112,-0.112 -0.112,-0.252 0,-0.14 0.112,-0.252 0.102667,-0.102666 0.242667,-0.102666 0.149333,0 0.252,0.102666 l 1.036,1.036 q 0.354666,-0.410666 0.550666,-0.942666 0.196,-0.532 0.196,-1.12 0,-0.8493335 -0.392,-1.5400002 -0.392,-0.6999999 -1.082666,-1.1013333 -0.681334,-0.4013333 -1.530667,-0.4013333 -0.858667,0 -1.549333,0.4013333 -0.681334,0.4013334 -1.073334,1.1013333 -0.392,0.6906667 -0.392,1.5400002 0,0.858666 0.392,1.558666 0.392,0.690667 1.073334,1.092 0.690666,0.401334 1.549333,0.401334 z"/>
    <path id="path39203" style="font-weight:normal;font-size:9.33333px;font-family:Comfortaa, sans-serif;letter-spacing:1px;fill:#333333" d="m 45.993686,14 q -0.149333,0 -0.261333,-0.102667 -0.102667,-0.112 -0.102667,-0.261333 V 7.5693336 l -0.933333,0.3266666 q -0.09333,0.046667 -0.186667,0.046667 -0.158666,0 -0.261333,-0.093333 -0.102667,-0.1026666 -0.102667,-0.2613333 0,-0.2706666 0.233334,-0.3453333 l 1.437333,-0.4946667 q 0.14,-0.046667 0.186666,-0.046667 0.149334,0 0.252,0.1026666 0.102667,0.1026667 0.102667,0.2613334 V 13.636 q 0,0.149333 -0.102667,0.261333 Q 46.152353,14 45.993686,14 Z"/>
    <path id="path39205" style="font-weight:normal;font-size:9.33333px;font-family:Comfortaa, sans-serif;letter-spacing:1px;fill:#333333" d="m 53.582145,11.601333 q 0.354667,0 0.354667,0.336 0,0.121334 -0.112,0.224 -0.102667,0.09333 -0.242667,0.09333 H 52.844812 V 13.636 q 0,0.149333 -0.102667,0.261333 Q 52.639478,14 52.480812,14 q -0.149334,0 -0.252,-0.102667 -0.09333,-0.102666 -0.09333,-0.261333 v -1.381333 h -3.341333 q -0.158666,0 -0.261333,-0.102667 -0.102667,-0.112 -0.102667,-0.252 0,-0.112 0.07467,-0.214667 l 3.696,-4.8346661 q 0.102666,-0.1493333 0.298666,-0.1493333 0.149334,0 0.242667,0.112 0.102667,0.1026666 0.102667,0.2613333 v 4.5266661 z m -1.446667,0 V 8.0360002 l -2.734666,3.5653328 z"/>
    <path id="path39207" style="font-weight:normal;font-size:9.33333px;font-family:Comfortaa, sans-serif;letter-spacing:1px;fill:#333333" d="m 61.427999,13.412 q 0.084,0.112 0.084,0.233333 0,0.149334 -0.09333,0.252 Q 61.325332,14 61.166665,14 q -0.186666,0 -0.28,-0.130667 L 58.655999,10.78 56.378665,13.888 Q 56.285332,14 56.117332,14 q -0.158667,0 -0.252,-0.09333 -0.09333,-0.102667 -0.09333,-0.242667 0,-0.14 0.084,-0.252 l 2.305333,-3.136 -2.156,-2.9959998 q -0.07467,-0.1213333 -0.07467,-0.224 0,-0.14 0.09333,-0.2426666 0.09333,-0.1026667 0.242666,-0.1026667 0.186667,0 0.28,0.1306667 l 2.118667,2.9306665 2.146667,-2.9306665 q 0.102666,-0.1306667 0.28,-0.1306667 0.149333,0 0.242666,0.112 0.09333,0.1026667 0.09333,0.2426667 0,0.1213333 -0.06533,0.2146666 l -2.202666,2.9866668 z"/>
    <path id="path39209" style="font-weight:normal;font-size:9.33333px;font-family:Comfortaa, sans-serif;letter-spacing:1px;fill:#333333" d="m 69.110956,6.7106669 q 0.149333,0 0.233333,0.093333 0.09333,0.093333 0.09333,0.2333334 0,0.093333 -0.04667,0.2053333 L 66.609622,13.766667 Q 66.506956,14 66.282956,14 q -0.121334,0 -0.205334,-0.04667 -0.07467,-0.056 -0.130666,-0.186666 l -2.772,-6.4866668 q -0.056,-0.14 -0.056,-0.2426666 0,-0.1493334 0.09333,-0.2333334 0.102667,-0.093333 0.261333,-0.093333 0.242667,0 0.336,0.2333333 l 2.473334,5.9173328 2.464,-5.8986661 q 0.056,-0.14 0.14,-0.196 0.084,-0.056 0.224,-0.056 z"/>
  </g>
  <g class="brand" style="font-weight:bold;font-size:8.66667px;font-family:Audiowide, sans-serif;letter-spacing:2px;fill:#333333" id="text38838" aria-label="BGA">
    <path id="path39190" style="font-weight:bold;font-size:8.66667px;font-family:Audiowide, sans-serif;letter-spacing:2px;fill:#333333" d="m 31.694664,372.66699 q 0,0.20313 -0.07194,0.43587 -0.06771,0.23275 -0.228516,0.43165 -0.156576,0.19889 -0.410482,0.33431 Q 30.72982,374 30.361656,374 h -4.17676 q -0.118489,0 -0.220052,-0.0423 -0.101562,-0.0423 -0.177734,-0.11426 -0.07194,-0.0762 -0.114258,-0.17773 -0.04232,-0.10156 -0.04232,-0.22005 V 368.486 q 0,-0.11426 0.04232,-0.21582 0.04232,-0.10156 0.114258,-0.17773 0.07617,-0.0762 0.177734,-0.11849 0.101563,-0.0423 0.220052,-0.0423 h 3.681642 q 0.203125,0 0.435873,0.0719 0.232747,0.0719 0.431641,0.23275 0.203125,0.15657 0.33431,0.41048 0.135416,0.2539 0.135416,0.62207 v 0.20736 q 0,0.29199 -0.09733,0.63053 -0.09733,0.33431 -0.313152,0.63477 0.186198,0.11425 0.347006,0.27506 0.165039,0.16081 0.28776,0.3724 0.122722,0.21159 0.194662,0.47819 0.07194,0.2666 0.07194,0.58821 z m -1.100261,-0.21159 q 0,-0.21582 -0.06771,-0.38509 -0.06771,-0.1735 -0.19043,-0.29622 -0.122721,-0.12272 -0.296224,-0.1862 -0.173503,-0.0677 -0.389323,-0.0677 h -2.479819 v -1.10872 H 29.1556 q 0.215821,0 0.389324,-0.0635 0.173502,-0.0677 0.296224,-0.19043 0.122721,-0.12272 0.186198,-0.29199 0.06771,-0.1735 0.06771,-0.38932 v -0.20736 q 0,-0.23698 -0.228516,-0.23698 h -3.135743 v 3.86784 h 3.630861 q 0.02962,0 0.07194,-0.004 0.04232,-0.004 0.07617,-0.0254 0.03385,-0.0212 0.05924,-0.0719 0.02539,-0.0508 0.02539,-0.13965 z"/>
    <path id="path39192" style="font-weight:bold;font-size:8.66667px;font-family:Audiowide, sans-serif;letter-spacing:2px;fill:#333333" d="m 40.63477,373.44564 q 0,0.11849 -0.04232,0.22005 -0.04232,0.10156 -0.118489,0.17773 -0.07194,0.0719 -0.173503,0.11426 Q 40.198897,374 40.080408,374 h -3.969403 q -0.152344,0 -0.330078,-0.0338 -0.173503,-0.0381 -0.347005,-0.11426 -0.169271,-0.0762 -0.325847,-0.19466 -0.156575,-0.12272 -0.279297,-0.292 -0.118489,-0.1735 -0.19043,-0.39778 -0.07194,-0.22852 -0.07194,-0.51205 v -2.97916 q 0,-0.15235 0.03385,-0.32585 0.03809,-0.17774 0.114257,-0.34701 0.07617,-0.1735 0.198894,-0.33007 0.122721,-0.15658 0.291992,-0.27507 0.173503,-0.12272 0.397787,-0.19466 0.224284,-0.0719 0.507812,-0.0719 h 4.472984 v 1.10026 h -4.472984 q -0.21582,0 -0.330078,0.11426 -0.114258,0.11425 -0.114258,0.33854 v 2.9707 q 0,0.21159 0.114258,0.33008 0.11849,0.11426 0.330078,0.11426 h 3.423504 v -1.37956 h -2.928386 v -1.10872 h 3.474285 q 0.118489,0 0.220052,0.0466 0.101562,0.0423 0.173503,0.11849 0.07617,0.0762 0.118489,0.17773 0.04232,0.0973 0.04232,0.21159 z"/>
    <path id="path39194" style="font-weight:bold;font-size:8.66667px;font-family:Audiowide, sans-serif;letter-spacing:2px;fill:#333333" d="m 49.744148,374 h -1.100261 v -1.48958 h -3.86784 V 374 h -1.10026 v -3.03418 q 0,-0.66439 0.228515,-1.22298 0.228516,-0.5586 0.634766,-0.96062 0.40625,-0.40201 0.960612,-0.6263 0.554363,-0.22428 1.210287,-0.22428 h 2.479819 q 0.114258,0 0.21582,0.0423 0.101563,0.0423 0.177735,0.11849 0.07617,0.0762 0.118489,0.17773 0.04232,0.10156 0.04232,0.21582 z m -4.968101,-2.58984 h 3.86784 v -2.37826 h -1.93392 q -0.05078,0 -0.21582,0.0169 -0.160807,0.0127 -0.376628,0.0719 -0.211588,0.0592 -0.448568,0.18196 -0.236979,0.12272 -0.435872,0.33854 -0.198894,0.21582 -0.330078,0.54167 -0.126954,0.32162 -0.126954,0.78288 z"/>
  </g>
  <path d="m 36.5,370 h 2 v 2 h -2 z" style="fill:#dddddd" id="rect38840"/>
  <g style="font-weight:bold;font-size:8px;font-family:Roboto, sans-serif;letter-spacing:1.5px;fill:#333333" id="text38844" transform="translate(9 30)" aria-label="FOLLOWERS">
    <path id="path39170" style="font-weight:bold;font-size:8px;font-family:Roboto, sans-serif;letter-spacing:1.5px;fill:#333333" d="m 3.9296875,-2.3242188 h -2.25 V 0 h -1.171875 v -5.6875 h 3.703125 v 0.9492188 h -2.53125 v 1.4687499 h 2.25 z"/>
    <path id="path39172" style="font-weight:bold;font-size:8px;font-family:Roboto, sans-serif;letter-spacing:1.5px;fill:#333333" d="m 11.070313,-2.7148438 q 0,0.8398438 -0.296875,1.4726563 -0.296875,0.6328125 -0.851563,0.9765625 -0.5507812,0.34375 -1.265625,0.34375 -0.7070313,0 -1.2617188,-0.33984375 Q 6.8398437,-0.6015625 6.5351562,-1.2304687 6.2304687,-1.8632812 6.2265625,-2.6835938 v -0.28125 q 0,-0.8398437 0.3007812,-1.4765624 0.3046875,-0.640625 0.8554688,-0.9804688 0.5546875,-0.34375 1.265625,-0.34375 0.7109375,0 1.2617188,0.34375 0.5546877,0.3398438 0.8554687,0.9804688 0.304688,0.6367187 0.304688,1.4726562 z M 9.8828125,-2.9726563 q 0,-0.8945312 -0.3203125,-1.3593749 -0.3203125,-0.4648438 -0.9140625,-0.4648438 -0.5898437,0 -0.9101563,0.4609375 -0.3203125,0.4570312 -0.3242187,1.34375 v 0.2773437 q 0,0.8710938 0.3203125,1.3515626 0.3203125,0.4804687 0.921875,0.4804687 0.5898438,0 0.90625,-0.4609375 0.3164063,-0.4648437 0.3203125,-1.3515625 z"/>
    <path id="path39174" style="font-weight:bold;font-size:8px;font-family:Roboto, sans-serif;letter-spacing:1.5px;fill:#333333" d="m 14.601563,-0.94140625 h 2.488281 V 0 h -3.660156 v -5.6875 h 1.171875 z"/>
    <path id="path39176" style="font-weight:bold;font-size:8px;font-family:Roboto, sans-serif;letter-spacing:1.5px;fill:#333333" d="m 20.429687,-0.94140625 h 2.488282 V 0 h -3.660157 v -5.6875 h 1.171875 z"/>
    <path id="path39178" style="font-weight:bold;font-size:8px;font-family:Roboto, sans-serif;letter-spacing:1.5px;fill:#333333" d="m 29.507812,-2.7148438 q 0,0.8398438 -0.296875,1.4726563 -0.296875,0.6328125 -0.851562,0.9765625 -0.550781,0.34375 -1.265625,0.34375 -0.707031,0 -1.261719,-0.33984375 -0.554687,-0.33984375 -0.859375,-0.96874995 -0.304687,-0.6328125 -0.308594,-1.4531251 v -0.28125 q 0,-0.8398437 0.300782,-1.4765624 0.304687,-0.640625 0.855468,-0.9804688 0.554688,-0.34375 1.265625,-0.34375 0.710938,0 1.261719,0.34375 0.554688,0.3398438 0.855469,0.9804688 0.304687,0.6367187 0.304687,1.4726562 z m -1.1875,-0.2578125 q 0,-0.8945312 -0.320312,-1.3593749 -0.320313,-0.4648438 -0.914063,-0.4648438 -0.589843,0 -0.910156,0.4609375 -0.320312,0.4570312 -0.324219,1.34375 v 0.2773437 q 0,0.8710938 0.320313,1.3515626 0.320312,0.4804687 0.921875,0.4804687 0.589844,0 0.90625,-0.4609375 0.316406,-0.4648437 0.320312,-1.3515625 z"/>
    <path id="path39180" style="font-weight:bold;font-size:8px;font-family:Roboto, sans-serif;letter-spacing:1.5px;fill:#333333" d="M 36.296875,-1.640625 37.0625,-5.6875 h 1.167969 L 36.96875,0 H 35.789062 L 34.863281,-3.8046875 33.9375,0 h -1.179688 l -1.261718,-5.6875 h 1.167968 l 0.769532,4.0390625 0.9375,-4.0390625 h 0.992187 z"/>
    <path id="path39182" style="font-weight:bold;font-size:8px;font-family:Roboto, sans-serif;letter-spacing:1.5px;fill:#333333" d="m 43.789062,-2.4648438 h -2.25 v 1.52343755 h 2.640625 V 0 h -3.8125 v -5.6875 h 3.804688 v 0.9492188 h -2.632813 v 1.3554687 h 2.25 z"/>
    <path id="path39184" style="font-weight:bold;font-size:8px;font-family:Roboto, sans-serif;letter-spacing:1.5px;fill:#333333" d="M 48.472656,-2.0820313 H 47.539062 V 0 h -1.171875 v -5.6875 h 2.113282 q 1.007812,0 1.554687,0.4492188 0.546875,0.4492187 0.546875,1.2695312 0,0.5820312 -0.253906,0.9726562 -0.25,0.3867188 -0.761719,0.6171875 l 1.230469,2.3242188 V 0 H 49.539062 Z M 47.539062,-3.03125 h 0.945313 q 0.441406,0 0.683594,-0.2226563 0.242187,-0.2265625 0.242187,-0.6210937 0,-0.4023437 -0.230469,-0.6328125 -0.226562,-0.2304687 -0.699218,-0.2304687 h -0.941407 z"/>
    <path id="path39186" style="font-weight:bold;font-size:8px;font-family:Roboto, sans-serif;letter-spacing:1.5px;fill:#333333" d="m 55.925781,-1.4921875 q 0,-0.3320312 -0.234375,-0.5078125 -0.234375,-0.1796875 -0.84375,-0.375 -0.609375,-0.1992188 -0.964844,-0.390625 -0.96875,-0.5234375 -0.96875,-1.4101562 0,-0.4609375 0.257813,-0.8203125 0.261719,-0.3632813 0.746094,-0.5664063 0.488281,-0.203125 1.09375,-0.203125 0.609375,0 1.085937,0.2226563 0.476563,0.21875 0.738281,0.6210937 0.265625,0.4023438 0.265625,0.9140625 h -1.171875 q 0,-0.390625 -0.246093,-0.6054687 -0.246094,-0.21875 -0.691407,-0.21875 -0.429687,0 -0.667968,0.1835937 -0.238282,0.1796875 -0.238282,0.4765625 0,0.2773437 0.277344,0.4648437 0.28125,0.1875 0.824219,0.3515625 1,0.3007813 1.457031,0.7460938 0.457031,0.4453125 0.457031,1.109375 0,0.73828125 -0.558593,1.16015625 -0.558594,0.41796875 -1.503907,0.41796875 -0.65625,0 -1.195312,-0.23828125 -0.539063,-0.2421875 -0.824219,-0.66015625 -0.28125,-0.4179687 -0.28125,-0.96875 h 1.175781 q 0,0.94140625 1.125,0.94140625 0.417969,0 0.652344,-0.16796875 0.234375,-0.171875 0.234375,-0.4765625 z"/>
  </g>
  <g transform="translate(0,28)" id="use38846">
    <g transform="translate(20,20)" id="g38954">
      <g transform="rotate(120,-5,2.8867513)" id="g38944">
        <path d="M 0,0 H 4" style="stroke:#333333;stroke-width:1" id="polyline38942"/>
      </g>
      <path d="M 0,-12.5 A 12.5,12.5 0 0 1 12.5,0" stroke="#333333" stroke-width="0.5" stroke-linecap="round" fill="none" id="path38946"/>
      <path d="M 0,-12.5 A 12.5,12.5 0 0 1 12.5,0" stroke="#333333" stroke-width="0.5" stroke-linecap="round" fill="none" transform="rotate(43)" id="path38948"/>
      <path d="M 0,-12.5 A 12.5,12.5 0 0 0 -12.5,0" stroke="#333333" stroke-width="0.5" stroke-linecap="round" fill="none" id="path38950"/>
      <path d="M 0,-12.5 A 12.5,12.5 0 0 0 -12.5,0" stroke="#333333" stroke-width="0.5" stroke-linecap="round" fill="none" transform="rotate(-43)" id="path38952"/>
    </g>
  </g>
  <g style="font-weight:bold;font-size:6.66667px;font-family:Roboto, sans-serif;letter-spacing:2px;fill:#333333" id="text38848" aria-label="DAMP">
    <path id="path39160" style="font-weight:bold;font-size:6.66667px;font-family:Roboto, sans-serif;letter-spacing:2px;fill:#333333" d="m 7.9231773,67 v -4.739586 h 1.458334 q 0.6250007,0 1.1165367,0.283204 0.494792,0.279948 0.771485,0.800781 0.276693,0.517579 0.276693,1.178386 v 0.218099 q 0,0.660808 -0.273438,1.175131 -0.270182,0.514323 -0.764974,0.797527 Q 10.013022,66.996745 9.3912769,67 Z m 0.976563,-3.94857 v 3.164064 h 0.4720054 q 0.5729169,0 0.8756513,-0.374349 0.302735,-0.374349 0.309245,-1.070964 V 64.51953 q 0,-0.722657 -0.299479,-1.09375 -0.2994795,-0.37435 -0.8756517,-0.37435 z"/>
    <path id="path39162" style="font-weight:bold;font-size:6.66667px;font-family:Roboto, sans-serif;letter-spacing:2px;fill:#333333" d="m 16.869795,66.023437 h -1.71224 L 14.832034,67 h -1.038412 l 1.764324,-4.739586 h 0.904948 L 18.236983,67 h -1.038412 z m -1.448568,-0.791016 h 1.184896 L 16.01042,63.458332 Z"/>
    <path id="path39164" style="font-weight:bold;font-size:6.66667px;font-family:Roboto, sans-serif;letter-spacing:2px;fill:#333333" d="m 21.962245,62.260414 1.217448,3.437502 1.210938,-3.437502 h 1.282553 V 67 H 24.693366 V 65.704426 L 24.791022,63.468097 23.511725,67 h -0.670573 l -1.276043,-3.528648 0.09766,2.233074 V 67 h -0.976563 v -4.739586 z"/>
    <path id="path39166" style="font-weight:bold;font-size:6.66667px;font-family:Roboto, sans-serif;letter-spacing:2px;fill:#333333" d="M 29.509123,65.330077 V 67 H 28.53256 v -4.739586 h 1.848959 q 0.533855,0 0.937501,0.195313 0.406901,0.195313 0.625,0.556641 0.218099,0.358073 0.218099,0.817058 0,0.696614 -0.478516,1.100261 -0.475261,0.40039 -1.31836,0.40039 z m 0,-0.791016 h 0.872396 q 0.38737,0 0.589193,-0.182291 0.205078,-0.182292 0.205078,-0.520834 0,-0.348307 -0.205078,-0.563151 -0.205078,-0.214844 -0.566406,-0.221355 h -0.895183 z"/>
  </g>
  <path d="m 10,70 h 20 c 2.77,0 5,2.23 5,5 v 20 c 0,2.77 -2.23,5 -5,5 H 10 C 7.23,100 5,97.77 5,95 V 75 c 0,-2.77 2.23,-5 5,-5 z" style="fill:#fafafa" id="rect38850"/>
  <g transform="translate(35,28)" id="use38854">
    <g transform="translate(20,20)" id="g38970">
      <g transform="rotate(-90,-5,-5)" id="g38960">
        <path d="M 0,0 H 4" style="stroke:#333333;stroke-width:1" id="polyline38958"/>
      </g>
      <path d="M 0,-12.5 A 12.5,12.5 0 0 1 12.5,0" stroke="#333333" stroke-width="0.5" stroke-linecap="round" fill="none" transform="rotate(20)" id="path38962"/>
      <path d="M 0,-12.5 A 12.5,12.5 0 0 1 12.5,0" stroke="#333333" stroke-width="0.5" stroke-linecap="round" fill="none" transform="rotate(43)" id="path38964"/>
      <path d="M 0,-12.5 A 12.5,12.5 0 0 0 -12.5,0" stroke="#333333" stroke-width="0.5" stroke-linecap="round" fill="none" transform="rotate(-20)" id="path38966"/>
      <path d="M 0,-12.5 A 12.5,12.5 0 0 0 -12.5,0" stroke="#333333" stroke-width="0.5" stroke-linecap="round" fill="none" transform="rotate(-43)" id="path38968"/>
    </g>
  </g>
  <g style="font-weight:bold;font-size:6.66667px;font-family:Roboto, sans-serif;letter-spacing:2px;fill:#333333" id="text38856" aria-label="GAIN">
    <path id="path39149" style="font-weight:bold;font-size:6.66667px;font-family:Roboto, sans-serif;letter-spacing:2px;fill:#333333" d="m 48.173179,66.401041 q -0.263672,0.315756 -0.745443,0.491537 -0.481771,0.172526 -1.067709,0.172526 -0.615235,0 -1.08073,-0.266927 -0.462239,-0.270182 -0.716146,-0.78125 Q 44.3125,65.505859 44.30599,64.815754 v -0.322266 q 0,-0.709635 0.23763,-1.227214 0.240886,-0.520833 0.690105,-0.794271 0.452474,-0.276693 1.057943,-0.276693 0.843099,0 1.31836,0.403646 0.47526,0.400391 0.563151,1.168621 h -0.950521 q -0.0651,-0.406902 -0.289714,-0.595704 -0.221354,-0.188802 -0.611979,-0.188802 -0.498047,0 -0.758464,0.374349 -0.260417,0.374349 -0.263672,1.113282 v 0.302734 q 0,0.745444 0.283203,1.126303 0.283203,0.38086 0.830079,0.38086 0.55013,0 0.784505,-0.234375 v -0.817058 h -0.888672 v -0.719402 h 1.865235 z"/>
    <path id="path39151" style="font-weight:bold;font-size:6.66667px;font-family:Roboto, sans-serif;letter-spacing:2px;fill:#333333" d="M 53.643233,66.023437 H 51.930992 L 51.605471,67 h -1.038412 l 1.764324,-4.739586 h 0.904948 L 55.010421,67 h -1.038412 z m -1.448569,-0.791016 h 1.184897 l -0.595704,-1.774089 z"/>
    <path id="path39153" style="font-weight:bold;font-size:6.66667px;font-family:Roboto, sans-serif;letter-spacing:2px;fill:#333333" d="m 58.498052,67 h -0.976563 v -4.739586 h 0.976563 z"/>
    <path id="path39155" style="font-weight:bold;font-size:6.66667px;font-family:Roboto, sans-serif;letter-spacing:2px;fill:#333333" d="M 65.253914,67 H 64.277351 L 62.376308,63.881509 V 67 h -0.976562 v -4.739586 h 0.976562 l 1.904298,3.125002 v -3.125002 h 0.973308 z"/>
  </g>
  <path d="m 45,70 h 20 c 2.77,0 5,2.23 5,5 v 20 c 0,2.77 -2.23,5 -5,5 H 45 c -2.77,0 -5,-2.23 -5,-5 V 75 c 0,-2.77 2.23,-5 5,-5 z" style="fill:#fafafa" id="rect38858"/>
  <g style="font-weight:bold;font-size:8px;font-family:Roboto, sans-serif;letter-spacing:1.5px;fill:#333333" id="text38862" aria-label="TRANSPOSE">
    <path id="path39129" style="font-weight:bold;font-size:8px;font-family:Roboto, sans-serif;letter-spacing:1.5px;fill:#333333" d="M 12.789063,116.26172 H 11.046875 V 121 H 9.875 v -4.73828 H 8.15625 v -0.94922 h 4.632813 z"/>
    <path id="path39131" style="font-weight:bold;font-size:8px;font-family:Roboto, sans-serif;letter-spacing:1.5px;fill:#333333" d="M 17.066406,118.91797 H 16.132812 V 121 h -1.171874 v -5.6875 h 2.113281 q 1.007812,0 1.554687,0.44922 0.546875,0.44922 0.546875,1.26953 0,0.58203 -0.253906,0.97266 -0.25,0.38672 -0.761719,0.61718 l 1.230469,2.32422 V 121 h -1.257813 z m -0.933594,-0.94922 h 0.945313 q 0.441406,0 0.683594,-0.22266 0.242187,-0.22656 0.242187,-0.62109 0,-0.40234 -0.230469,-0.63281 -0.226562,-0.23047 -0.699218,-0.23047 h -0.941407 z"/>
    <path id="path39133" style="font-weight:bold;font-size:8px;font-family:Roboto, sans-serif;letter-spacing:1.5px;fill:#333333" d="M 24.78125,119.82813 H 22.726562 L 22.335937,121 h -1.246093 l 2.117187,-5.6875 h 1.085938 L 26.421875,121 h -1.246094 z m -1.738281,-0.94922 h 1.421875 L 23.75,116.75 Z"/>
    <path id="path39135" style="font-weight:bold;font-size:8px;font-family:Roboto, sans-serif;letter-spacing:1.5px;fill:#333333" d="m 33.085937,121 h -1.171875 l -2.28125,-3.74219 V 121 h -1.171875 v -5.6875 h 1.171875 l 2.285157,3.75 v -3.75 h 1.167968 z"/>
    <path id="path39137" style="font-weight:bold;font-size:8px;font-family:Roboto, sans-serif;letter-spacing:1.5px;fill:#333333" d="m 38.566406,119.50781 q 0,-0.33203 -0.234375,-0.50781 -0.234375,-0.17969 -0.84375,-0.375 -0.609375,-0.19922 -0.964844,-0.39062 -0.96875,-0.52344 -0.96875,-1.41016 0,-0.46094 0.257813,-0.82031 0.261719,-0.36328 0.746094,-0.56641 0.488281,-0.20312 1.09375,-0.20312 0.609375,0 1.085937,0.22265 0.476563,0.21875 0.738281,0.6211 0.265625,0.40234 0.265625,0.91406 h -1.171875 q 0,-0.39063 -0.246093,-0.60547 -0.246094,-0.21875 -0.691407,-0.21875 -0.429687,0 -0.667968,0.18359 -0.238282,0.17969 -0.238282,0.47657 0,0.27734 0.277344,0.46484 0.28125,0.1875 0.824219,0.35156 1,0.30078 1.457031,0.7461 0.457031,0.44531 0.457031,1.10937 0,0.73828 -0.558593,1.16016 -0.558594,0.41797 -1.503907,0.41797 -0.65625,0 -1.195312,-0.23829 -0.539063,-0.24218 -0.824219,-0.66015 -0.28125,-0.41797 -0.28125,-0.96875 h 1.175781 q 0,0.9414 1.125,0.9414 0.417969,0 0.652344,-0.16796 0.234375,-0.17188 0.234375,-0.47657 z"/>
    <path id="path39139" style="font-weight:bold;font-size:8px;font-family:Roboto, sans-serif;letter-spacing:1.5px;fill:#333333" d="M 43.210937,118.99609 V 121 h -1.171875 v -5.6875 h 2.21875 q 0.640625,0 1.125,0.23438 0.488282,0.23437 0.75,0.66796 0.261719,0.42969 0.261719,0.98047 0,0.83594 -0.574219,1.32032 -0.570312,0.48046 -1.582031,0.48046 z m 0,-0.94921 h 1.046875 q 0.464844,0 0.707032,-0.21875 0.246093,-0.21875 0.246093,-0.625 0,-0.41797 -0.246093,-0.67579 -0.246094,-0.25781 -0.679688,-0.26562 h -1.074219 z"/>
    <path id="path39141" style="font-weight:bold;font-size:8px;font-family:Roboto, sans-serif;letter-spacing:1.5px;fill:#333333" d="m 53.367187,118.28516 q 0,0.83984 -0.296875,1.47265 -0.296875,0.63282 -0.851562,0.97657 -0.550781,0.34375 -1.265625,0.34375 -0.707031,0 -1.261719,-0.33985 -0.554687,-0.33984 -0.859375,-0.96875 -0.304687,-0.63281 -0.308594,-1.45312 v -0.28125 q 0,-0.83985 0.300782,-1.47657 0.304687,-0.64062 0.855468,-0.98046 0.554688,-0.34375 1.265625,-0.34375 0.710938,0 1.261719,0.34375 0.554688,0.33984 0.855469,0.98046 0.304687,0.63672 0.304687,1.47266 z m -1.1875,-0.25782 q 0,-0.89453 -0.320312,-1.35937 -0.320313,-0.46484 -0.914063,-0.46484 -0.589843,0 -0.910156,0.46093 -0.320312,0.45703 -0.324219,1.34375 v 0.27735 q 0,0.87109 0.320313,1.35156 0.320312,0.48047 0.921875,0.48047 0.589844,0 0.90625,-0.46094 0.316406,-0.46484 0.320312,-1.35156 z"/>
    <path id="path39143" style="font-weight:bold;font-size:8px;font-family:Roboto, sans-serif;letter-spacing:1.5px;fill:#333333" d="m 58.675781,119.50781 q 0,-0.33203 -0.234375,-0.50781 -0.234375,-0.17969 -0.84375,-0.375 -0.609375,-0.19922 -0.964844,-0.39062 -0.96875,-0.52344 -0.96875,-1.41016 0,-0.46094 0.257813,-0.82031 0.261719,-0.36328 0.746094,-0.56641 0.488281,-0.20312 1.09375,-0.20312 0.609375,0 1.085937,0.22265 0.476563,0.21875 0.738281,0.6211 0.265625,0.40234 0.265625,0.91406 h -1.171875 q 0,-0.39063 -0.246093,-0.60547 -0.246094,-0.21875 -0.691407,-0.21875 -0.429687,0 -0.667968,0.18359 -0.238282,0.17969 -0.238282,0.47657 0,0.27734 0.277344,0.46484 0.28125,0.1875 0.824219,0.35156 1,0.30078 1.457031,0.7461 0.457031,0.44531 0.457031,1.10937 0,0.73828 -0.558593,1.16016 -0.558594,0.41797 -1.503907,0.41797 -0.65625,0 -1.195312,-0.23829 -0.539063,-0.24218 -0.824219,-0.66015 -0.28125,-0.41797 -0.28125,-0.96875 h 1.175781 q 0,0.9414 1.125,0.9414 0.417969,0 0.652344,-0.16796 0.234375,-0.17188 0.234375,-0.47657 z"/>
    <path id="path39145" style="font-weight:bold;font-size:8px;font-family:Roboto, sans-serif;letter-spacing:1.5px;fill:#333333" d="m 65.570312,118.53516 h -2.25 v 1.52343 h 2.640625 V 121 h -3.8125 v -5.6875 h 3.804688 v 0.94922 h -2.632813 v 1.35547 h 2.25 z"/>
  </g>
  <g transform="translate(15,122.5)" id="use38864">
    <g transform="translate(22.5,22.5)" id="g38992">
      <g style="font-weight:bold;font-size:6.66667px;font-family:Roboto, sans-serif;fill:#333333" id="text38974" transform="translate(-12.5,17.588457)" aria-label="-2">
        <path id="path39106" style="font-weight:bold;font-size:6.66667px;font-family:Roboto, sans-serif;fill:#333333" d="M 2.1907563,-1.6503914 H 0.35807309 V -2.4088553 H 2.1907563 Z"/>
        <path id="path39108" style="font-weight:bold;font-size:6.66667px;font-family:Roboto, sans-serif;fill:#333333" d="M 6.1621124,0 H 2.913413 V -0.64453156 L 4.4466168,-2.2786469 q 0.3157554,-0.3450523 0.465495,-0.6022138 0.1529949,-0.2571616 0.1529949,-0.4882815 0,-0.3157554 -0.1595053,-0.4947919 -0.1595053,-0.1822918 -0.4557294,-0.1822918 -0.3190105,0 -0.5045575,0.2213543 -0.1822918,0.218099 -0.1822918,0.5761721 H 2.8190119 q 0,-0.4329429 0.2050782,-0.791016 0.2083334,-0.3580731 0.5859378,-0.5598961 0.3776043,-0.2050782 0.8561202,-0.2050782 0.7324222,0 1.1360682,0.3515627 0.4069013,0.3515626 0.4069013,0.992839 0,0.3515627 -0.1822918,0.7161462 -0.1822917,0.3645835 -0.6250003,0.8496097 L 4.124351,-0.7584639 h 2.0377614 z"/>
      </g>
      <g style="font-weight:bold;font-size:6.66667px;font-family:Roboto, sans-serif;fill:#333333" id="text38976" transform="translate(-20.386665,-2.6587428)" aria-label="-1">
        <path id="path39111" style="font-weight:bold;font-size:6.66667px;font-family:Roboto, sans-serif;fill:#333333" d="M 2.1907563,-1.6503914 H 0.35807309 V -2.4088553 H 2.1907563 Z"/>
        <path id="path39113" style="font-weight:bold;font-size:6.66667px;font-family:Roboto, sans-serif;fill:#333333" d="M 5.1985703,0 H 4.2578146 V -3.6263038 L 3.1347672,-3.2779964 V -4.0429707 L 5.0976588,-4.746096 h 0.1009115 z"/>
      </g>
      <g style="font-weight:bold;font-size:6.66667px;font-family:Roboto, sans-serif;fill:#333333" id="text38978" transform="translate(-2,-15)" aria-label="0">
        <path id="path39116" style="font-weight:bold;font-size:6.66667px;font-family:Roboto, sans-serif;fill:#333333" d="m 3.5123715,-1.9596364 q 0,0.98307343 -0.4069013,1.50390702 Q 2.698569,0.0651042 1.9140634,0.0651042 q -0.7747399,0 -1.18489639,-0.51106795 Q 0.31901057,-0.95703171 0.30924494,-1.9108082 v -0.8723963 q 0,-0.992839 0.41015644,-1.5071621 0.41341162,-0.5143232 1.18815162,-0.5143232 0.7747399,0 1.1848964,0.511068 0.4101564,0.5078127 0.4199221,1.4615892 z M 2.5716158,-2.9166681 q 0,-0.5891929 -0.1627605,-0.8561202 Q 2.24935,-4.0429707 1.907553,-4.0429707 q -0.3320314,0 -0.4915367,0.2571616 -0.1562501,0.2539064 -0.1660157,0.7975264 v 1.1523443 q 0,0.5794274 0.1562501,0.86263064 0.1595053,0.27994805 0.5078127,0.27994805 0.3450523,0 0.4980471,-0.27018242 0.1529949,-0.27018237 0.1595053,-0.82682327 z"/>
      </g>
      <g style="font-weight:bold;font-size:6.66667px;font-family:Roboto, sans-serif;fill:#333333" id="text38980" transform="translate(15.386665,-2.6587428)" aria-label="1">
        <path id="path39119" style="font-weight:bold;font-size:6.66667px;font-family:Roboto, sans-serif;fill:#333333" d="M 2.6074231,0 H 1.6666675 V -3.6263038 L 0.54362005,-3.2779964 V -4.0429707 L 2.5065116,-4.746096 h 0.1009115 z"/>
      </g>
      <g style="font-weight:bold;font-size:6.66667px;font-family:Roboto, sans-serif;fill:#333333" id="text38982" transform="translate(7,17.588457)" aria-label="2">
        <path id="path39122" style="font-weight:bold;font-size:6.66667px;font-family:Roboto, sans-serif;fill:#333333" d="M 3.5709652,0 H 0.32226578 V -0.64453156 L 1.8554696,-2.2786469 q 0.3157554,-0.3450523 0.465495,-0.6022138 0.1529949,-0.2571616 0.1529949,-0.4882815 0,-0.3157554 -0.1595053,-0.4947919 -0.1595053,-0.1822918 -0.4557294,-0.1822918 -0.3190105,0 -0.5045575,0.2213543 -0.1822917,0.218099 -0.1822917,0.5761721 H 0.22786469 q 0,-0.4329429 0.20507822,-0.791016 0.20833344,-0.3580731 0.58593779,-0.5598961 0.3776043,-0.2050782 0.8561202,-0.2050782 0.7324222,0 1.1360682,0.3515627 0.4069013,0.3515626 0.4069013,0.992839 0,0.3515627 -0.1822918,0.7161462 -0.1822917,0.3645835 -0.6250003,0.8496097 l -1.0774744,1.1360683 h 2.0377613 z"/>
      </g>
      <path d="M 0,0 H 2.5" style="stroke:#333333;stroke-width:0.3" transform="rotate(151.25,-7.5,1.9221849)" id="polyline38984"/>
      <path d="M 0,0 H 2.5" style="stroke:#333333;stroke-width:0.3" transform="rotate(-133.75,-7.5,-3.2028897)" id="polyline38986"/>
      <path d="M 0,0 H 2.5" style="stroke:#333333;stroke-width:0.3" transform="rotate(-46.25,-7.5,-17.562266)" id="polyline38988"/>
      <path d="M 0,0 H 2.5" style="stroke:#333333;stroke-width:0.3" transform="rotate(28.75,-7.5,29.263574)" id="polyline38990"/>
    </g>
  </g>
  <path d="m 27.5,166 h 20 c 2.77,0 5,2.23 5,5 v 20 c 0,2.77 -2.23,5 -5,5 h -20 c -2.77,0 -5,-2.23 -5,-5 v -20 c 0,-2.77 2.23,-5 5,-5 z" style="fill:#fafafa" id="rect38866"/>
  <g style="font-weight:bold;font-size:8px;font-family:Roboto, sans-serif;letter-spacing:1.5px;fill:#333333" id="text38870" aria-label="OUTPUT">
    <path id="path39092" style="font-weight:bold;font-size:8px;font-family:Roboto, sans-serif;letter-spacing:1.5px;fill:#333333" d="m 23.179687,214.28516 q 0,0.83984 -0.296875,1.47265 -0.296875,0.63281 -0.851562,0.97656 -0.550781,0.34375 -1.265625,0.34375 -0.707031,0 -1.261719,-0.33984 -0.554687,-0.33984 -0.859375,-0.96875 -0.304687,-0.63281 -0.308594,-1.45312 v -0.28125 q 0,-0.83985 0.300782,-1.47657 0.304687,-0.64062 0.855468,-0.98047 0.554688,-0.34375 1.265625,-0.34375 0.710938,0 1.261719,0.34375 0.554688,0.33985 0.855469,0.98047 0.304687,0.63672 0.304687,1.47266 z m -1.1875,-0.25782 q 0,-0.89453 -0.320312,-1.35937 -0.320313,-0.46485 -0.914063,-0.46485 -0.589843,0 -0.910156,0.46094 -0.320312,0.45703 -0.324219,1.34375 v 0.27735 q 0,0.87109 0.320313,1.35156 0.320312,0.48047 0.921875,0.48047 0.589844,0 0.90625,-0.46094 0.316406,-0.46484 0.320312,-1.35156 z"/>
    <path id="path39094" style="font-weight:bold;font-size:8px;font-family:Roboto, sans-serif;letter-spacing:1.5px;fill:#333333" d="m 29.84375,211.3125 v 3.74609 q 0,0.9336 -0.585938,1.47657 -0.582031,0.54296 -1.59375,0.54296 -0.996093,0 -1.582031,-0.52734 -0.585937,-0.52734 -0.597656,-1.44922 v -3.78906 h 1.171875 v 3.75391 q 0,0.55859 0.265625,0.8164 0.269531,0.25391 0.742187,0.25391 0.988282,0 1.003907,-1.03906 v -3.78516 z"/>
    <path id="path39096" style="font-weight:bold;font-size:8px;font-family:Roboto, sans-serif;letter-spacing:1.5px;fill:#333333" d="M 36.585937,212.26172 H 34.84375 V 217 h -1.171875 v -4.73828 h -1.71875 v -0.94922 h 4.632812 z"/>
    <path id="path39098" style="font-weight:bold;font-size:8px;font-family:Roboto, sans-serif;letter-spacing:1.5px;fill:#333333" d="M 39.929687,214.99609 V 217 h -1.171875 v -5.6875 h 2.21875 q 0.640625,0 1.125,0.23437 0.488282,0.23438 0.75,0.66797 0.261719,0.42969 0.261719,0.98047 0,0.83594 -0.574219,1.32031 -0.570312,0.48047 -1.582031,0.48047 z m 0,-0.94922 h 1.046875 q 0.464844,0 0.707032,-0.21875 0.246093,-0.21875 0.246093,-0.625 0,-0.41796 -0.246093,-0.67578 -0.246094,-0.25781 -0.679688,-0.26562 h -1.074219 z"/>
    <path id="path39100" style="font-weight:bold;font-size:8px;font-family:Roboto, sans-serif;letter-spacing:1.5px;fill:#333333" d="m 49.71875,211.3125 v 3.74609 q 0,0.9336 -0.585938,1.47657 -0.582031,0.54296 -1.59375,0.54296 -0.996093,0 -1.582031,-0.52734 -0.585937,-0.52734 -0.597656,-1.44922 v -3.78906 h 1.171875 v 3.75391 q 0,0.55859 0.265625,0.8164 0.269531,0.25391 0.742187,0.25391 0.988282,0 1.003907,-1.03906 v -3.78516 z"/>
    <path id="path39102" style="font-weight:bold;font-size:8px;font-family:Roboto, sans-serif;letter-spacing:1.5px;fill:#333333" d="M 56.460937,212.26172 H 54.71875 V 217 h -1.171875 v -4.73828 h -1.71875 v -0.94922 h 4.632812 z"/>
  </g>
  <g transform="translate(0,215)" id="use38872">
    <g transform="translate(20,20)" id="g39008">
      <g transform="rotate(120,-5,2.8867513)" id="g38998">
        <path d="M 0,0 H 4" style="stroke:#333333;stroke-width:1" id="polyline38996"/>
      </g>
      <path d="M 0,-12.5 A 12.5,12.5 0 0 1 12.5,0" stroke="#333333" stroke-width="0.5" stroke-linecap="round" fill="none" id="path39000"/>
      <path d="M 0,-12.5 A 12.5,12.5 0 0 1 12.5,0" stroke="#333333" stroke-width="0.5" stroke-linecap="round" fill="none" transform="rotate(43)" id="path39002"/>
      <path d="M 0,-12.5 A 12.5,12.5 0 0 0 -12.5,0" stroke="#333333" stroke-width="0.5" stroke-linecap="round" fill="none" id="path39004"/>
      <path d="M 0,-12.5 A 12.5,12.5 0 0 0 -12.5,0" stroke="#333333" stroke-width="0.5" stroke-linecap="round" fill="none" transform="rotate(-43)" id="path39006"/>
    </g>
  </g>
  <g style="font-weight:bold;font-size:6.66667px;font-family:Roboto, sans-serif;letter-spacing:2px;fill:#333333" id="text38874" aria-label="GAIN">
    <path id="path39082" style="font-weight:bold;font-size:6.66667px;font-family:Roboto, sans-serif;letter-spacing:2px;fill:#333333" d="m 13.173179,253.40104 q -0.263672,0.31576 -0.745443,0.49154 -0.481771,0.17252 -1.067709,0.17252 -0.615235,0 -1.08073,-0.26692 -0.4622393,-0.27019 -0.7161457,-0.78125 -0.2506512,-0.51107 -0.2571616,-1.20118 v -0.32226 q 0,-0.70964 0.2376304,-1.22722 0.2408855,-0.52083 0.6901049,-0.79427 0.452474,-0.27669 1.057943,-0.27669 0.843099,0 1.31836,0.40365 0.47526,0.40039 0.563151,1.16862 h -0.950521 q -0.0651,-0.4069 -0.289714,-0.59571 -0.221354,-0.1888 -0.611979,-0.1888 -0.498047,0 -0.758464,0.37435 -0.260417,0.37435 -0.263672,1.11328 v 0.30274 q 0,0.74544 0.283203,1.1263 0.283203,0.38086 0.830079,0.38086 0.55013,0 0.784505,-0.23438 v -0.81705 h -0.888672 v -0.71941 h 1.865235 z"/>
    <path id="path39084" style="font-weight:bold;font-size:6.66667px;font-family:Roboto, sans-serif;letter-spacing:2px;fill:#333333" d="M 18.643233,253.02344 H 16.930992 L 16.605471,254 h -1.038412 l 1.764324,-4.73959 h 0.904948 L 20.010421,254 h -1.038412 z m -1.448569,-0.79102 h 1.184897 l -0.595704,-1.77409 z"/>
    <path id="path39086" style="font-weight:bold;font-size:6.66667px;font-family:Roboto, sans-serif;letter-spacing:2px;fill:#333333" d="m 23.498052,254 h -0.976563 v -4.73959 h 0.976563 z"/>
    <path id="path39088" style="font-weight:bold;font-size:6.66667px;font-family:Roboto, sans-serif;letter-spacing:2px;fill:#333333" d="m 30.253914,254 h -0.976563 l -1.901043,-3.11849 V 254 h -0.976562 v -4.73959 h 0.976562 l 1.904298,3.12501 v -3.12501 h 0.973308 z"/>
  </g>
  <g transform="translate(35,215)" id="use38876">
    <g transform="translate(20,20)" id="g39024">
      <g transform="rotate(120,-5,2.8867513)" id="g39014">
        <path d="M 0,0 H 4" style="stroke:#333333;stroke-width:1" id="polyline39012"/>
      </g>
      <path d="M 0,-12.5 A 12.5,12.5 0 0 1 12.5,0" stroke="#333333" stroke-width="0.5" stroke-linecap="round" fill="none" id="path39016"/>
      <path d="M 0,-12.5 A 12.5,12.5 0 0 1 12.5,0" stroke="#333333" stroke-width="0.5" stroke-linecap="round" fill="none" transform="rotate(43)" id="path39018"/>
      <path d="M 0,-12.5 A 12.5,12.5 0 0 0 -12.5,0" stroke="#333333" stroke-width="0.5" stroke-linecap="round" fill="none" id="path39020"/>
      <path d="M 0,-12.5 A 12.5,12.5 0 0 0 -12.5,0" stroke="#333333" stroke-width="0.5" stroke-linecap="round" fill="none" transform="rotate(-43)" id="path39022"/>
    </g>
  </g>
  <g style="font-weight:bold;font-size:6.66667px;font-family:Roboto, sans-serif;letter-spacing:2px;fill:#333333" id="text38878" aria-label="B14D">
    <path id="path39072" style="font-weight:bold;font-size:6.66667px;font-family:Roboto, sans-serif;letter-spacing:2px;fill:#333333" d="m 44.423177,254 v -4.73959 h 1.660157 q 0.862631,0 1.308595,0.33204 0.445963,0.32877 0.445963,0.96679 0,0.34831 -0.179036,0.61524 -0.179037,0.26367 -0.498047,0.38737 0.364583,0.0911 0.572917,0.36784 0.211588,0.27669 0.211588,0.67708 0,0.68359 -0.436198,1.03516 -0.436198,0.35156 -1.24349,0.35807 z m 0.976563,-2.0638 v 1.27929 h 0.836589 q 0.345052,0 0.53711,-0.16276 0.195312,-0.16601 0.195312,-0.45573 0,-0.65104 -0.673828,-0.6608 z m 0,-0.69011 h 0.722657 q 0.738932,-0.013 0.738932,-0.58919 0,-0.32227 -0.188802,-0.46224 -0.185547,-0.14323 -0.589193,-0.14323 H 45.39974 Z"/>
    <path id="path39074" style="font-weight:bold;font-size:6.66667px;font-family:Roboto, sans-serif;letter-spacing:2px;fill:#333333" d="m 52.865238,254 h -0.940756 v -3.6263 l -1.123048,0.3483 v -0.76497 l 1.962892,-0.70313 h 0.100912 z"/>
    <path id="path39076" style="font-weight:bold;font-size:6.66667px;font-family:Roboto, sans-serif;letter-spacing:2px;fill:#333333" d="m 59.191412,252.21614 h 0.537109 v 0.75847 H 59.191412 V 254 h -0.940756 v -1.02539 h -1.94336 l -0.04232,-0.59245 1.975912,-3.12175 h 0.950522 z m -1.988934,0 h 1.048178 v -1.67317 l -0.06185,0.10742 z"/>
    <path id="path39078" style="font-weight:bold;font-size:6.66667px;font-family:Roboto, sans-serif;letter-spacing:2px;fill:#333333" d="m 62.337246,254 v -4.73959 h 1.458334 q 0.625,0 1.116537,0.28321 0.494791,0.27995 0.771484,0.80078 0.276693,0.51758 0.276693,1.17839 v 0.21809 q 0,0.66081 -0.273438,1.17514 -0.270182,0.51432 -0.764974,0.79752 -0.494792,0.2832 -1.116537,0.28646 z m 0.976562,-3.94857 v 3.16406 h 0.472006 q 0.572917,0 0.875651,-0.37434 0.302735,-0.37435 0.309245,-1.07097 v -0.25065 q 0,-0.72266 -0.299479,-1.09375 -0.299479,-0.37435 -0.875651,-0.37435 z"/>
  </g>
  <g transform="translate(10,263)" id="g38882">
    <g style="font-weight:bold;font-size:6.66667px;font-family:Roboto, sans-serif;letter-spacing:0.5px;fill:#333333" id="text38880" transform="translate(0,6)" aria-label="B1">
      <path id="path39067" style="font-weight:bold;font-size:6.66667px;font-family:Roboto, sans-serif;letter-spacing:0.5px;fill:#333333" d="M 0.42317729,0 V -4.7395856 H 2.0833343 q 0.8626306,0 1.3085944,0.3320314 0.4459638,0.3287762 0.4459638,0.9667974 0,0.3483074 -0.1790366,0.6152346 -0.1790365,0.263672 -0.4980471,0.38737 0.3645835,0.091146 0.5729169,0.3678387 0.2115887,0.2766929 0.2115887,0.6770837 0,0.68359404 -0.4361981,1.03515671 Q 3.0729181,-0.00651042 2.2656261,0 Z M 1.3997403,-2.0638031 v 1.27929752 h 0.8365889 q 0.3450522,0 0.5371096,-0.1627605 0.1953126,-0.16601572 0.1953126,-0.45572942 0,-0.6510419 -0.6738284,-0.6608076 z m 0,-0.6901045 h 0.7226565 q 0.7389327,-0.013021 0.7389327,-0.589193 0,-0.3222657 -0.1888022,-0.4622398 -0.1855469,-0.1432292 -0.589193,-0.1432292 h -0.683594 z"/>
      <path id="path39069" style="font-weight:bold;font-size:6.66667px;font-family:Roboto, sans-serif;letter-spacing:0.5px;fill:#333333" d="M 7.3652375,0 H 6.4244819 V -3.6263038 L 5.3014345,-3.2779964 V -4.0429707 L 7.264326,-4.746096 h 0.1009115 z"/>
    </g>
  </g>
  <g transform="translate(47.5,263)" id="g38886">
    <g style="font-weight:bold;font-size:6.66667px;font-family:Roboto, sans-serif;letter-spacing:0.5px;fill:#333333" id="text38884" transform="translate(-5,6)" aria-label="B14">
      <path id="path39060" style="font-weight:bold;font-size:6.66667px;font-family:Roboto, sans-serif;letter-spacing:0.5px;fill:#333333" d="M 0.42317729,0 V -4.7395856 H 2.0833343 q 0.8626306,0 1.3085944,0.3320314 0.4459638,0.3287762 0.4459638,0.9667974 0,0.3483074 -0.1790366,0.6152346 -0.1790365,0.263672 -0.4980471,0.38737 0.3645835,0.091146 0.5729169,0.3678387 0.2115887,0.2766929 0.2115887,0.6770837 0,0.68359404 -0.4361981,1.03515671 Q 3.0729181,-0.00651042 2.2656261,0 Z M 1.3997403,-2.0638031 v 1.27929752 h 0.8365889 q 0.3450522,0 0.5371096,-0.1627605 0.1953126,-0.16601572 0.1953126,-0.45572942 0,-0.6510419 -0.6738284,-0.6608076 z m 0,-0.6901045 h 0.7226565 q 0.7389327,-0.013021 0.7389327,-0.589193 0,-0.3222657 -0.1888022,-0.4622398 -0.1855469,-0.1432292 -0.589193,-0.1432292 h -0.683594 z"/>
      <path id="path39062" style="font-weight:bold;font-size:6.66667px;font-family:Roboto, sans-serif;letter-spacing:0.5px;fill:#333333" d="M 7.3652375,0 H 6.4244819 V -3.6263038 L 5.3014345,-3.2779964 V -4.0429707 L 7.264326,-4.746096 h 0.1009115 z"/>
      <path id="path39064" style="font-weight:bold;font-size:6.66667px;font-family:Roboto, sans-serif;letter-spacing:0.5px;fill:#333333" d="m 12.191412,-1.783855 h 0.537109 v 0.7584639 H 12.191412 V 0 H 11.250656 V -1.0253911 H 9.3072956 L 9.2649779,-1.6178393 11.24089,-4.7395856 h 0.950522 z m -1.988934,0 h 1.048178 v -1.6731779 l -0.06185,0.1074219 z"/>
    </g>
  </g>
  <path d="m 10.5,287 h 54 c 2.77,0 5,2.23 5,5 v 63 c 0,2.77 -2.23,5 -5,5 h -54 c -2.77,0 -5,-2.23 -5,-5 v -63 c 0,-2.77 2.23,-5 5,-5 z" style="fill:#bbbbbb" id="rect38890"/>
  <path d="m 10.5,287 h 22 c 2.77,0 5,2.23 5,5 v 26.5 c 0,2.77 -2.23,5 -5,5 h -22 c -2.77,0 -5,-2.23 -5,-5 V 292 c 0,-2.77 2.23,-5 5,-5 z" style="fill:#fafafa" id="rect38892"/>
  <path d="m 5.5,313.5 h 32 v 10 h -32 z" style="fill:#fafafa" id="rect38894"/>
  <path d="m 27.5,287 h 10 v 36.5 h -10 z" style="fill:#fafafa" id="rect38896"/>
  <g style="font-weight:bold;font-size:6.66667px;font-family:Roboto, sans-serif;letter-spacing:2px;fill:#333333" id="text38898" aria-label="IN">
    <path id="path39051" style="font-weight:bold;font-size:6.66667px;font-family:Roboto, sans-serif;letter-spacing:2px;fill:#333333" d="m 19.461589,322 h -0.976563 v -4.73959 h 0.976563 z"/>
    <path id="path39053" style="font-weight:bold;font-size:6.66667px;font-family:Roboto, sans-serif;letter-spacing:2px;fill:#333333" d="m 26.217451,322 h -0.976563 l -1.901043,-3.11849 V 322 h -0.976563 v -4.73959 h 0.976563 l 1.904298,3.12501 v -3.12501 h 0.973308 z"/>
  </g>
  <g style="font-weight:bold;font-size:6.66667px;font-family:Roboto, sans-serif;letter-spacing:2px;fill:#333333" id="text38900" aria-label="ODD">
    <path id="path39044" style="font-weight:bold;font-size:6.66667px;font-family:Roboto, sans-serif;letter-spacing:2px;fill:#333333" d="m 48.316408,319.73763 q 0,0.69987 -0.247396,1.22721 -0.247396,0.52735 -0.709635,0.81381 -0.458985,0.28645 -1.054688,0.28645 -0.589193,0 -1.051433,-0.2832 -0.46224,-0.2832 -0.716146,-0.80729 -0.253907,-0.52735 -0.257162,-1.21094 v -0.23437 q 0,-0.69987 0.250651,-1.23047 0.253907,-0.53386 0.712891,-0.81706 0.46224,-0.28646 1.054688,-0.28646 0.592448,0 1.051433,0.28646 0.46224,0.2832 0.712891,0.81706 0.253906,0.5306 0.253906,1.22721 z m -0.989583,-0.21484 q 0,-0.74545 -0.266928,-1.13282 -0.266927,-0.38737 -0.761719,-0.38737 -0.491537,0 -0.758464,0.38412 -0.266927,0.38086 -0.270182,1.11979 v 0.23112 q 0,0.72591 0.266927,1.1263 0.266927,0.40039 0.76823,0.40039 0.491536,0 0.755208,-0.38411 0.263672,-0.38737 0.266928,-1.1263 z"/>
    <path id="path39046" style="font-weight:bold;font-size:6.66667px;font-family:Roboto, sans-serif;letter-spacing:2px;fill:#333333" d="m 51.032555,322 v -4.73959 h 1.458334 q 0.625,0 1.116537,0.28321 0.494792,0.27995 0.771484,0.80078 0.276693,0.51758 0.276693,1.17839 v 0.21809 q 0,0.66081 -0.273437,1.17514 -0.270183,0.51432 -0.764975,0.79752 -0.494792,0.2832 -1.116537,0.28646 z m 0.976563,-3.94857 v 3.16406 h 0.472005 q 0.572917,0 0.875652,-0.37434 0.302734,-0.37435 0.309244,-1.07097 v -0.25065 q 0,-0.72266 -0.299479,-1.09375 -0.299479,-0.37435 -0.875651,-0.37435 z"/>
    <path id="path39048" style="font-weight:bold;font-size:6.66667px;font-family:Roboto, sans-serif;letter-spacing:2px;fill:#333333" d="m 57.368494,322 v -4.73959 h 1.458334 q 0.625,0 1.116537,0.28321 0.494792,0.27995 0.771484,0.80078 0.276693,0.51758 0.276693,1.17839 v 0.21809 q 0,0.66081 -0.273437,1.17514 -0.270183,0.51432 -0.764975,0.79752 -0.494792,0.2832 -1.116537,0.28646 z m 0.976563,-3.94857 v 3.16406 h 0.472005 q 0.572917,0 0.875651,-0.37434 0.302735,-0.37435 0.309245,-1.07097 v -0.25065 q 0,-0.72266 -0.299479,-1.09375 -0.299479,-0.37435 -0.875651,-0.37435 z"/>
  </g>
  <g style="font-weight:bold;font-size:6.66667px;font-family:Roboto, sans-serif;letter-spacing:2px;fill:#333333" id="text38902" aria-label="OUT">
    <path id="path39037" style="font-weight:bold;font-size:6.66667px;font-family:Roboto, sans-serif;letter-spacing:2px;fill:#333333" d="m 17.816408,354.73763 q 0,0.69987 -0.247396,1.22721 -0.247396,0.52735 -0.709635,0.81381 -0.458985,0.28645 -1.054688,0.28645 -0.589193,0 -1.051433,-0.2832 -0.46224,-0.2832 -0.716146,-0.80729 -0.253907,-0.52735 -0.257162,-1.21094 v -0.23437 q 0,-0.69987 0.250651,-1.23047 0.253907,-0.53386 0.712891,-0.81706 0.46224,-0.28646 1.054688,-0.28646 0.592448,0 1.051433,0.28646 0.46224,0.2832 0.712891,0.81706 0.253906,0.5306 0.253906,1.22721 z m -0.989583,-0.21484 q 0,-0.74545 -0.266928,-1.13282 -0.266927,-0.38737 -0.761719,-0.38737 -0.491537,0 -0.758464,0.38412 -0.266927,0.38086 -0.270182,1.11979 v 0.23112 q 0,0.72591 0.266927,1.1263 0.266927,0.40039 0.76823,0.40039 0.491536,0 0.755208,-0.38411 0.263672,-0.38737 0.266928,-1.1263 z"/>
    <path id="path39039" style="font-weight:bold;font-size:6.66667px;font-family:Roboto, sans-serif;letter-spacing:2px;fill:#333333" d="m 24.119796,352.26041 v 3.12175 q 0,0.778 -0.488282,1.23047 -0.485026,0.45247 -1.328125,0.45247 -0.830079,0 -1.31836,-0.43945 -0.488282,-0.43945 -0.498047,-1.20768 v -3.15756 h 0.976563 v 3.12826 q 0,0.4655 0.221354,0.68034 0.224609,0.21159 0.61849,0.21159 0.823568,0 0.836589,-0.86589 v -3.1543 z"/>
    <path id="path39041" style="font-weight:bold;font-size:6.66667px;font-family:Roboto, sans-serif;letter-spacing:2px;fill:#333333" d="M 30.488288,353.05143 H 29.036464 V 357 h -0.976563 v -3.94857 h -1.432292 v -0.79102 h 3.860679 z"/>
  </g>
  <g style="font-weight:bold;font-size:6.66667px;font-family:Roboto, sans-serif;letter-spacing:2px;fill:#333333" id="text38904" aria-label="EVEN">
    <path id="path39028" style="font-weight:bold;font-size:6.66667px;font-family:Roboto, sans-serif;letter-spacing:2px;fill:#333333" d="M 44.774741,354.94596 H 42.89974 v 1.26953 h 2.200522 V 357 h -3.177085 v -4.73959 h 3.170575 v 0.79102 H 42.89974 v 1.12956 h 1.875001 z"/>
    <path id="path39030" style="font-weight:bold;font-size:6.66667px;font-family:Roboto, sans-serif;letter-spacing:2px;fill:#333333" d="m 49.424482,355.82487 1.074219,-3.56446 h 1.08724 L 49.93555,357 h -1.018881 l -1.643881,-4.73959 h 1.083985 z"/>
    <path id="path39032" style="font-weight:bold;font-size:6.66667px;font-family:Roboto, sans-serif;letter-spacing:2px;fill:#333333" d="m 56.886724,354.94596 h -1.875 v 1.26953 h 2.200521 V 357 h -3.177084 v -4.73959 h 3.170574 v 0.79102 h -2.194011 v 1.12956 h 1.875 z"/>
    <path id="path39034" style="font-weight:bold;font-size:6.66667px;font-family:Roboto, sans-serif;letter-spacing:2px;fill:#333333" d="m 63.63933,357 h -0.976563 l -1.901042,-3.11849 V 357 h -0.976563 v -4.73959 h 0.976563 l 1.904297,3.12501 v -3.12501 h 0.973308 z"/>
  </g>
  <!-- <polyline points="0,0 0,380" stroke="#0f0" stroke-width="1" fill="none" transform="translate(18.75 0)" /> -->
  <!-- <polyline points="0,0 0,380" stroke="#0f0" stroke-width="1" fill="none" transform="translate(37.5 0)" /> -->
  <!-- <polyline points="0,0 0,380" stroke="#0f0" stroke-width="1" fill="none" transform="translate(56.25 0)" /> -->
</svg>
