<?xml version="1.0" encoding="UTF-8" standalone="no"?>
<svg xmlns:dc="http://purl.org/dc/elements/1.1/" xmlns:cc="http://creativecommons.org/ns#" xmlns:rdf="http://www.w3.org/1999/02/22-rdf-syntax-ns#" xmlns:svg="http://www.w3.org/2000/svg" xmlns="http://www.w3.org/2000/svg" xmlns:sodipodi="http://sodipodi.sourceforge.net/DTD/sodipodi-0.dtd" xmlns:inkscape="http://www.inkscape.org/namespaces/inkscape" inkscape:version="1.0 (4035a4f, 2020-05-01)" sodipodi:docname="svg_render_PEQ6XF-dark-pp.svg" id="svg41162" viewBox="0 0 45.0 380.0" height="380.0" width="45.0" version="1.1">
  <metadata id="metadata41168">
    <rdf:RDF>
      <cc:Work rdf:about="">
        <dc:format>image/svg+xml</dc:format>
        <dc:type rdf:resource="http://purl.org/dc/dcmitype/StillImage"/>
      </cc:Work>
    </rdf:RDF>
  </metadata>
  <defs id="defs41166"/>
  <sodipodi:namedview inkscape:current-layer="svg41162" inkscape:window-maximized="0" inkscape:window-y="23" inkscape:window-x="0" inkscape:cy="190" inkscape:cx="22.5" inkscape:zoom="1.7605263" showgrid="false" id="namedview41164" inkscape:window-height="480" inkscape:window-width="689" inkscape:pageshadow="2" inkscape:pageopacity="0" guidetolerance="10" gridtolerance="10" objecttolerance="10" borderopacity="1" bordercolor="#666666" pagecolor="#ffffff"/>
  
  <path class="module-background background-fill" d="M 0,0 H 45 V 380 H 0 Z" style="fill:#111111" id="rect41074"/>
  <path class="module-border-inner" d="M 1,1 H 44 V 379 H 1 V 1" style="fill:none;stroke:#191919;stroke-width:0.5" id="polyline41076"/>
  <path class="module-border-middle" d="m 0.5,0.5 h 44 v 379 H 0.5 V 0.5" style="fill:none;stroke:#111111;stroke-width:0.8" id="polyline41078"/>
  <path class="module-border-outer" d="M 0,0 H 45 V 380 H 0 V 0" style="fill:none;stroke:#000000;stroke-width:1" id="polyline41080"/>
  <g class="title" style="font-weight:normal;font-size:9.33333px;font-family:Comfortaa, sans-serif;letter-spacing:2.5px;fill:#eeeeee" id="text41082" transform="rotate(-90)" aria-label="PEQ6XF">
    <path id="path41258" style="font-weight:normal;font-size:9.33333px;font-family:Comfortaa, sans-serif;letter-spacing:2.5px;fill:#eeeeee" d="m -374.70267,13 q -0.15866,0 -0.26133,-0.102667 -0.10267,-0.102666 -0.10267,-0.261333 V 6.074669 q 0,-0.1586666 0.10267,-0.2613332 0.10267,-0.1026667 0.26133,-0.1026667 h 1.86667 q 0.68133,0 1.21333,0.3079999 0.54133,0.2986666 0.84,0.8399998 0.29867,0.5319998 0.29867,1.2226662 0,0.6813331 -0.29867,1.2133329 -0.29867,0.5319998 -0.84,0.8306661 -0.532,0.298667 -1.21333,0.298667 h -1.50267 V 12.636 q 0,0.158667 -0.10266,0.261333 Q -374.544,13 -374.70267,13 Z m 1.86667,-3.2759989 q 0.476,0 0.84933,-0.2053332 0.37334,-0.2146666 0.57867,-0.5879998 0.21467,-0.3733333 0.21467,-0.8493331 0,-0.4853332 -0.21467,-0.8586664 -0.20533,-0.3826665 -0.57867,-0.5973331 Q -372.36,6.4106689 -372.836,6.4106689 h -1.50267 v 3.3133322 z"/>
    <path id="path41260" style="font-weight:normal;font-size:9.33333px;font-family:Comfortaa, sans-serif;letter-spacing:2.5px;fill:#eeeeee" d="m -366.49694,13 q -0.14933,0 -0.26133,-0.102667 -0.10267,-0.112 -0.10267,-0.261333 V 6.074669 q 0,-0.1586666 0.10267,-0.2613332 0.112,-0.1026667 0.26133,-0.1026667 h 4.37733 q 0.15867,0 0.26133,0.1026667 0.10267,0.1026666 0.10267,0.2519999 0,0.1493333 -0.10267,0.2519999 -0.10266,0.093333 -0.26133,0.093333 h -4.01333 V 8.986668 h 2.92133 q 0.15867,0 0.26133,0.1026667 0.10267,0.1026666 0.10267,0.2519999 0,0.1493333 -0.112,0.2519999 -0.10266,0.1026666 -0.252,0.1026666 h -2.92133 V 12.3 h 4.01333 q 0.15867,0 0.26133,0.102667 0.10267,0.09333 0.10267,0.242666 0,0.149334 -0.10267,0.252 Q -361.96094,13 -362.11961,13 Z"/>
    <path id="path41262" style="font-weight:normal;font-size:9.33333px;font-family:Comfortaa, sans-serif;letter-spacing:2.5px;fill:#eeeeee" d="m -351.29049,12.393334 q 0.10267,0.102666 0.10267,0.242666 0,0.149333 -0.10267,0.252 -0.112,0.112 -0.252,0.112 -0.14,0 -0.252,-0.112 l -0.49466,-0.494666 q -0.46667,0.335999 -1.04534,0.522666 -0.56933,0.177333 -1.204,0.177333 -1.06399,0 -1.91333,-0.485333 -0.84933,-0.485333 -1.33466,-1.334666 -0.476,-0.858666 -0.476,-1.9226661 0,-1.0639996 0.476,-1.9133327 0.48533,-0.849333 1.33466,-1.3346662 0.84934,-0.4853332 1.91333,-0.4853332 1.05467,0 1.904,0.4853332 0.85867,0.4853332 1.33467,1.3346662 0.48533,0.8493331 0.48533,1.9133327 0,0.7560001 -0.252,1.4186661 -0.24266,0.653333 -0.7,1.148 z m -3.248,0.0093 q 0.98934,0 1.72667,-0.522667 l -0.99867,-0.998666 q -0.112,-0.112 -0.112,-0.252 0,-0.14 0.112,-0.252 0.10267,-0.102666 0.24267,-0.102666 0.14933,0 0.252,0.102666 l 1.036,1.036 q 0.35467,-0.410667 0.55067,-0.942666 0.196,-0.5320003 0.196,-1.1200001 0,-0.849333 -0.392,-1.5399995 -0.392,-0.6999997 -1.08267,-1.1013329 -0.68133,-0.4013332 -1.53067,-0.4013332 -0.85866,0 -1.54933,0.4013332 -0.68133,0.4013332 -1.07333,1.1013329 -0.392,0.6906665 -0.392,1.5399995 0,0.8586661 0.392,1.5586661 0.392,0.690666 1.07333,1.092 0.69067,0.401333 1.54933,0.401333 z"/>
    <path id="path41264" style="font-weight:normal;font-size:9.33333px;font-family:Comfortaa, sans-serif;letter-spacing:2.5px;fill:#eeeeee" d="m -344.93699,8.6133348 q 0.616,0 1.11067,0.2893333 0.504,0.2799999 0.784,0.7839997 0.28933,0.4946662 0.28933,1.1199992 0,0.625334 -0.28933,1.129333 -0.28,0.494667 -0.77467,0.784 -0.49466,0.28 -1.12,0.28 -0.62533,0 -1.12933,-0.28 -0.49467,-0.289333 -0.784,-0.784 -0.28,-0.503999 -0.28,-1.129333 0,-0.606666 0.28,-1.1199992 l -0.009,0.00933 2.30533,-3.789332 q 0.13067,-0.196 0.32667,-0.196 0.15866,0 0.26133,0.112 0.112,0.1026666 0.112,0.2426666 0,0.093333 -0.056,0.1959999 l -1.46533,2.3893325 q 0.18666,-0.037333 0.43866,-0.037333 z m -0.009,3.7146652 q 0.42,0 0.756,-0.196 0.34533,-0.196 0.54133,-0.541333 0.196,-0.354666 0.196,-0.784 0,-0.429333 -0.196,-0.774666 -0.196,-0.3546665 -0.54133,-0.5506665 -0.336,-0.2053332 -0.756,-0.2053332 -0.42,0 -0.76533,0.2053332 -0.336,0.196 -0.532,0.5506665 -0.196,0.345333 -0.196,0.774666 0,0.429334 0.196,0.784 0.196,0.345333 0.532,0.541333 0.34533,0.196 0.76533,0.196 z"/>
    <path id="path41266" style="font-weight:normal;font-size:9.33333px;font-family:Comfortaa, sans-serif;letter-spacing:2.5px;fill:#eeeeee" d="m -333.74649,12.412 q 0.084,0.112 0.084,0.233333 0,0.149334 -0.0933,0.252 Q -333.84916,13 -334.00782,13 q -0.18667,0 -0.28,-0.130667 l -2.23067,-3.0893319 -2.27733,3.1079989 q -0.0933,0.112 -0.26134,0.112 -0.15866,0 -0.252,-0.09333 -0.0933,-0.102667 -0.0933,-0.242667 0,-0.14 0.084,-0.252 l 2.30533,-3.1359987 -2.156,-2.995999 q -0.0747,-0.1213333 -0.0747,-0.2239999 0,-0.14 0.0933,-0.2426666 0.0933,-0.1026667 0.24267,-0.1026667 0.18666,0 0.28,0.1306667 l 2.11866,2.9306656 2.14667,-2.9306656 q 0.10267,-0.1306667 0.28,-0.1306667 0.14933,0 0.24267,0.112 0.0933,0.1026666 0.0933,0.2426666 0,0.1213333 -0.0653,0.2146666 l -2.20267,2.9866656 z"/>
    <path id="path41268" style="font-weight:normal;font-size:9.33333px;font-family:Comfortaa, sans-serif;letter-spacing:2.5px;fill:#eeeeee" d="m -330.02353,13 q -0.14934,0 -0.26134,-0.102667 -0.10266,-0.112 -0.10266,-0.261333 V 6.074669 q 0,-0.1586666 0.10266,-0.2613332 0.112,-0.1026667 0.26134,-0.1026667 h 4.37733 q 0.15867,0 0.26133,0.1026667 0.10267,0.1026666 0.10267,0.2519999 0,0.1493333 -0.10267,0.2519999 -0.10266,0.093333 -0.26133,0.093333 h -4.01333 V 8.986668 h 2.92133 q 0.15867,0 0.26133,0.1026667 0.10267,0.093333 0.10267,0.2519999 0,0.1493333 -0.10267,0.2519999 -0.10266,0.1026666 -0.26133,0.1026666 h -2.92133 V 12.636 q 0,0.149333 -0.10267,0.261333 Q -329.86487,13 -330.02353,13 Z"/>
  </g>
  <g transform="rotate(-90,200.5,175.5)" id="g41088">
    <g class="brand" style="font-weight:bold;font-size:9.33333px;font-family:Audiowide, sans-serif;letter-spacing:2px;fill:#eeeeee" id="text41084" aria-label="BGA">
      <path id="path41250" style="font-weight:bold;font-size:9.33333px;font-family:Audiowide, sans-serif;letter-spacing:2px;fill:#eeeeee" d="m 7.209633,-1.4355464 q 0,0.2187499 -0.077474,0.4694009 -0.072917,0.25065095 -0.2460936,0.46484359 Q 6.7174456,-0.28710928 6.4440082,-0.14127599 6.1705708,0 5.7740866,0 H 1.2760412 Q 1.1484371,0 1.0390621,-0.0455729 0.92968718,-0.0911458 0.84765596,-0.16861973 0.77018203,-0.25065096 0.72460913,-0.36002592 0.67903623,-0.46940088 0.67903623,-0.597005 v -5.341144 q 0,-0.1230469 0.0455729,-0.2324218 0.0455729,-0.109375 0.12304683,-0.1914062 0.0820312,-0.082031 0.19140614,-0.1276041 0.109375,-0.045573 0.2369791,-0.045573 h 3.9648424 q 0.21875,0 0.4694009,0.077474 0.250651,0.077474 0.4648436,0.250651 0.2187499,0.1686197 0.3600259,0.4420571 0.1458333,0.2734374 0.1458333,0.6699217 v 0.2233072 q 0,0.314453 -0.1048177,0.6790362 -0.1048176,0.3600259 -0.3372394,0.6835935 0.2005207,0.1230468 0.3736978,0.2962239 0.1777343,0.173177 0.3098957,0.4010415 0.1321614,0.2278645 0.2096353,0.5149738 0.077474,0.2871093 0.077474,0.6334633 z M 6.0247375,-1.6634109 q 0,-0.2324218 -0.072917,-0.4147134 Q 5.8789042,-2.2649732 5.7467428,-2.3971346 5.6145814,-2.529296 5.4277325,-2.5976554 5.2408836,-2.670572 5.0084618,-2.670572 h -2.670572 v -1.19401 h 2.1373691 q 0.2324218,0 0.4192707,-0.068359 0.1868489,-0.072917 0.3190103,-0.205078 0.1321614,-0.1321614 0.2005208,-0.314453 0.072917,-0.1868489 0.072917,-0.4192707 v -0.2233072 q 0,-0.2552083 -0.2460937,-0.2552083 H 1.8639317 v 4.1653632 h 3.9101549 q 0.031901,0 0.077474,-0.00456 0.045573,-0.00456 0.082031,-0.027344 0.036458,-0.022786 0.063802,-0.077474 0.027344,-0.054687 0.027344,-0.1503906 z"/>
      <path id="path41252" style="font-weight:bold;font-size:9.33333px;font-family:Audiowide, sans-serif;letter-spacing:2px;fill:#eeeeee" d="m 16.683589,-0.597005 q 0,0.12760412 -0.04557,0.23697908 -0.04557,0.10937496 -0.127605,0.19140619 -0.07747,0.07747393 -0.186849,0.12304683 Q 16.214189,0 16.086584,0 h -4.274738 q -0.164062,0 -0.355468,-0.03645832 -0.186849,-0.04101561 -0.373698,-0.12304683 -0.182292,-0.0820312 -0.350911,-0.20963535 -0.16862,-0.13216141 -0.300782,-0.31445302 -0.127604,-0.18684889 -0.205078,-0.42838528 -0.07747,-0.2460937 -0.07747,-0.5514321 v -3.2083322 q 0,-0.1640625 0.03646,-0.3509114 0.04101,-0.1914062 0.123047,-0.3736978 0.08203,-0.1868489 0.214192,-0.3554686 0.132162,-0.1686197 0.314453,-0.2962238 0.186849,-0.1321615 0.428385,-0.2096354 0.241537,-0.077474 0.546875,-0.077474 h 4.817056 v 1.1848954 h -4.817056 q -0.232422,0 -0.355468,0.1230468 -0.123047,0.1230469 -0.123047,0.3645832 v 3.1992177 q 0,0.2278645 0.123047,0.3554686 0.127604,0.1230469 0.355468,0.1230469 h 3.686848 V -2.670572 h -3.153645 v -1.19401 h 3.741535 q 0.127605,0 0.236979,0.05013 0.109375,0.045573 0.186849,0.1276041 0.08203,0.082031 0.127605,0.1914062 0.04557,0.1048177 0.04557,0.2278645 z"/>
      <path id="path41254" style="font-weight:bold;font-size:9.33333px;font-family:Audiowide, sans-serif;letter-spacing:2px;fill:#eeeeee" d="M 26.339836,0 H 25.154941 V -1.6041661 H 20.989578 V 0 h -1.184896 v -3.267577 q 0,-0.7154946 0.246094,-1.3170569 0.246094,-0.6015623 0.683593,-1.0345048 0.4375,-0.4329426 1.034505,-0.6744789 0.597005,-0.2415364 1.303385,-0.2415364 h 2.670572 q 0.123047,0 0.232422,0.045573 0.109375,0.045573 0.191406,0.1276041 0.08203,0.082031 0.127604,0.1914062 0.04557,0.1093749 0.04557,0.2324218 z m -5.350258,-2.7890616 h 4.165363 v -2.561197 h -2.082682 q -0.05469,0 -0.232422,0.018229 -0.173177,0.013672 -0.405598,0.077474 -0.227865,0.063802 -0.483073,0.1959635 -0.255208,0.1321614 -0.469401,0.3645832 -0.214193,0.2324218 -0.355469,0.5833331 -0.136718,0.3463541 -0.136718,0.8430987 z"/>
    </g>
    <path class="background-fill" d="M 0,0 H 3 V 3 H 0 Z" style="fill:#111111" transform="translate(11.5,-5)" id="rect41086"/>
  </g>
  <g transform="translate(14.5,32)" id="g41092"/>
  <g transform="translate(2.5,20)" id="g41106">
    <g transform="translate(20,20)" id="g41104">
      <path d="M 0,0 H 4" style="stroke:#cccccc;stroke-width:1" transform="rotate(120,-5,2.8867513)" id="polyline41094"/>
      <path d="M 0,-12.5 A 12.5,12.5 0 0 1 12.5,0" stroke-width="0.7" stroke-linecap="round" stroke="#ccc" fill="none" id="path41096"/>
      <path d="M 0,-12.5 A 12.5,12.5 0 0 1 12.5,0" stroke-width="0.7" stroke-linecap="round" stroke="#ccc" fill="none" transform="rotate(43)" id="path41098"/>
      <path d="M 0,-12.5 A 12.5,12.5 0 0 0 -12.5,0" stroke-width="0.7" stroke-linecap="round" stroke="#ccc" fill="none" id="path41100"/>
      <path d="M 0,-12.5 A 12.5,12.5 0 0 0 -12.5,0" stroke-width="0.7" stroke-linecap="round" stroke="#ccc" fill="none" transform="rotate(-43)" id="path41102"/>
    </g>
  </g>
  <g style="font-weight:bold;font-size:6.66667px;font-family:Roboto, sans-serif;letter-spacing:1px;fill:#eeeeee" id="text41108" aria-label="DAMP">
    <path id="path41240" style="font-weight:bold;font-size:6.66667px;font-family:Roboto, sans-serif;letter-spacing:1px;fill:#eeeeee" d="m 12.423177,24 v -4.739586 h 1.458334 q 0.625001,0 1.116537,0.283204 0.494792,0.279948 0.771485,0.800781 0.276693,0.517579 0.276693,1.178386 v 0.218099 q 0,0.660808 -0.273438,1.175131 -0.270182,0.514323 -0.764974,0.797527 Q 14.513022,23.996745 13.891277,24 Z m 0.976563,-3.94857 v 3.164064 h 0.472006 q 0.572917,0 0.875651,-0.374349 0.302735,-0.374349 0.309245,-1.070964 V 21.51953 q 0,-0.722657 -0.299479,-1.09375 -0.29948,-0.37435 -0.875652,-0.37435 z"/>
    <path id="path41242" style="font-weight:bold;font-size:6.66667px;font-family:Roboto, sans-serif;letter-spacing:1px;fill:#eeeeee" d="m 20.369795,23.023437 h -1.71224 L 18.332034,24 h -1.038412 l 1.764324,-4.739586 h 0.904948 L 21.736983,24 h -1.038412 z m -1.448568,-0.791016 h 1.184896 L 19.51042,20.458332 Z"/>
    <path id="path41244" style="font-weight:bold;font-size:6.66667px;font-family:Roboto, sans-serif;letter-spacing:1px;fill:#eeeeee" d="m 24.462245,19.260414 1.217448,3.437502 1.210938,-3.437502 h 1.282553 V 24 H 27.193366 V 22.704426 L 27.291022,20.468097 26.011725,24 h -0.670573 l -1.276043,-3.528648 0.09766,2.233074 V 24 h -0.976563 v -4.739586 z"/>
    <path id="path41246" style="font-weight:bold;font-size:6.66667px;font-family:Roboto, sans-serif;letter-spacing:1px;fill:#eeeeee" d="M 31.009123,22.330077 V 24 H 30.03256 v -4.739586 h 1.848959 q 0.533855,0 0.937501,0.195313 0.406901,0.195313 0.625,0.556641 0.218099,0.358073 0.218099,0.817058 0,0.696614 -0.478516,1.100261 -0.475261,0.40039 -1.31836,0.40039 z m 0,-0.791016 h 0.872396 q 0.38737,0 0.589193,-0.182291 0.205078,-0.182292 0.205078,-0.520834 0,-0.348307 -0.205078,-0.563151 -0.205078,-0.214844 -0.566406,-0.221355 h -0.895183 z"/>
  </g>
  <g transform="translate(14.5,71)" id="g41112"/>
  <g transform="translate(2.5,59)" id="g41126">
    <g transform="translate(20,20)" id="g41124">
      <path d="M 0,0 H 4" style="stroke:#cccccc;stroke-width:1" transform="rotate(-90,-5,-5)" id="polyline41114"/>
      <path d="M 0,-12.5 A 12.5,12.5 0 0 1 12.5,0" stroke-width="0.7" stroke-linecap="round" stroke="#ccc" fill="none" transform="rotate(20)" id="path41116"/>
      <path d="M 0,-12.5 A 12.5,12.5 0 0 1 12.5,0" stroke-width="0.7" stroke-linecap="round" stroke="#ccc" fill="none" transform="rotate(43)" id="path41118"/>
      <path d="M 0,-12.5 A 12.5,12.5 0 0 0 -12.5,0" stroke-width="0.7" stroke-linecap="round" stroke="#ccc" fill="none" transform="rotate(-20)" id="path41120"/>
      <path d="M 0,-12.5 A 12.5,12.5 0 0 0 -12.5,0" stroke-width="0.7" stroke-linecap="round" stroke="#ccc" fill="none" transform="rotate(-43)" id="path41122"/>
    </g>
  </g>
  <g style="font-weight:bold;font-size:6.66667px;font-family:Roboto, sans-serif;letter-spacing:1px;fill:#eeeeee" id="text41128" aria-label="GAIN">
    <path id="path41230" style="font-weight:bold;font-size:6.66667px;font-family:Roboto, sans-serif;letter-spacing:1px;fill:#eeeeee" d="m 17.173179,62.401041 q -0.263672,0.315756 -0.745443,0.491537 -0.481771,0.172526 -1.067709,0.172526 -0.615235,0 -1.08073,-0.266927 -0.462239,-0.270182 -0.716146,-0.78125 Q 13.3125,61.505859 13.30599,60.815754 v -0.322266 q 0,-0.709635 0.23763,-1.227214 0.240886,-0.520833 0.690105,-0.794271 0.452474,-0.276693 1.057943,-0.276693 0.843099,0 1.31836,0.403646 0.47526,0.400391 0.563151,1.168621 h -0.950521 q -0.0651,-0.406902 -0.289714,-0.595704 -0.221354,-0.188802 -0.611979,-0.188802 -0.498047,0 -0.758464,0.374349 -0.260417,0.374349 -0.263672,1.113282 v 0.302734 q 0,0.745444 0.283203,1.126303 0.283203,0.38086 0.830079,0.38086 0.55013,0 0.784505,-0.234375 v -0.817058 h -0.888672 v -0.719402 h 1.865235 z"/>
    <path id="path41232" style="font-weight:bold;font-size:6.66667px;font-family:Roboto, sans-serif;letter-spacing:1px;fill:#eeeeee" d="M 21.643233,62.023437 H 19.930992 L 19.605471,63 h -1.038412 l 1.764324,-4.739586 h 0.904948 L 23.010421,63 h -1.038412 z m -1.448569,-0.791016 h 1.184897 l -0.595704,-1.774089 z"/>
    <path id="path41234" style="font-weight:bold;font-size:6.66667px;font-family:Roboto, sans-serif;letter-spacing:1px;fill:#eeeeee" d="m 25.498052,63 h -0.976563 v -4.739586 h 0.976563 z"/>
    <path id="path41236" style="font-weight:bold;font-size:6.66667px;font-family:Roboto, sans-serif;letter-spacing:1px;fill:#eeeeee" d="M 31.253913,63 H 30.27735 L 28.376308,59.881509 V 63 h -0.976563 v -4.739586 h 0.976563 l 1.904297,3.125002 v -3.125002 h 0.973308 z"/>
  </g>
  <path class="output-background" d="m 10.5,94 h 24 c 2.77,0 5,2.23 5,5 v 215 c 0,2.77 -2.23,5 -5,5 h -24 c -2.77,0 -5,-2.23 -5,-5 V 99 c 0,-2.77 2.23,-5 5,-5 z" style="fill:#666666" id="rect41132"/>
  <g class="output-label" style="font-weight:bold;font-size:6.66667px;font-family:Roboto, sans-serif;letter-spacing:2px;fill:#dddddd" id="text41134" aria-label="EF">
    <path id="path41224" style="font-weight:bold;font-size:6.66667px;font-family:Roboto, sans-serif;letter-spacing:2px;fill:#dddddd" d="M 21.274741,101.94596 H 19.39974 v 1.26953 h 2.200522 V 104 h -3.177085 v -4.739586 h 3.170575 v 0.791016 H 19.39974 v 1.12956 h 1.875001 z"/>
    <path id="path41226" style="font-weight:bold;font-size:6.66667px;font-family:Roboto, sans-serif;letter-spacing:2px;fill:#dddddd" d="M 27.024743,102.06315 H 25.149742 V 104 h -0.976563 v -4.739586 h 3.085939 v 0.791016 h -2.109376 v 1.22396 h 1.875001 z"/>
  </g>
  <g transform="translate(10.5,107)" id="g41136"/>
  <g class="output-label" style="font-weight:bold;font-size:6.66667px;font-family:Roboto, sans-serif;letter-spacing:2px;fill:#dddddd" id="text41138" aria-label="1">
    <path id="path41221" style="font-weight:bold;font-size:6.66667px;font-family:Roboto, sans-serif;letter-spacing:2px;fill:#dddddd" d="m 23.107423,139 h -0.940756 v -3.6263 l -1.123047,0.3483 v -0.76497 l 1.962892,-0.70313 h 0.100911 z"/>
  </g>
  <g transform="translate(10.5,142)" id="g41140"/>
  <g class="output-label" style="font-weight:bold;font-size:6.66667px;font-family:Roboto, sans-serif;letter-spacing:2px;fill:#dddddd" id="text41142" aria-label="2">
    <path id="path41218" style="font-weight:bold;font-size:6.66667px;font-family:Roboto, sans-serif;letter-spacing:2px;fill:#dddddd" d="m 24.070965,174 h -3.248699 v -0.64453 l 1.533204,-1.63412 q 0.315755,-0.34505 0.465495,-0.60221 0.152995,-0.25716 0.152995,-0.48828 0,-0.31576 -0.159506,-0.49479 -0.159505,-0.1823 -0.455729,-0.1823 -0.319011,0 -0.504558,0.22136 -0.182291,0.2181 -0.182291,0.57617 h -0.944011 q 0,-0.43294 0.205078,-0.79102 0.208333,-0.35807 0.585938,-0.55989 0.377604,-0.20508 0.85612,-0.20508 0.732422,0 1.136068,0.35156 0.406901,0.35157 0.406901,0.99284 0,0.35156 -0.182291,0.71615 -0.182292,0.36458 -0.625001,0.84961 l -1.077474,1.13607 h 2.037761 z"/>
  </g>
  <g transform="translate(10.5,177)" id="g41144"/>
  <g class="output-label" style="font-weight:bold;font-size:6.66667px;font-family:Roboto, sans-serif;letter-spacing:2px;fill:#dddddd" id="text41146" aria-label="3">
    <path id="path41215" style="font-weight:bold;font-size:6.66667px;font-family:Roboto, sans-serif;letter-spacing:2px;fill:#dddddd" d="M 21.779297,206.21354 H 22.2806 q 0.358073,0 0.530599,-0.17904 0.172526,-0.17903 0.172526,-0.47526 0,-0.28646 -0.172526,-0.44596 -0.169271,-0.15951 -0.46875,-0.15951 -0.270183,0 -0.452474,0.14974 -0.182292,0.14649 -0.182292,0.38412 h -0.940756 q 0,-0.3711 0.198568,-0.66406 0.201823,-0.29623 0.559896,-0.46224 0.361328,-0.16602 0.794271,-0.16602 0.751954,0 1.178386,0.36133 0.426433,0.35807 0.426433,0.98958 0,0.32552 -0.198568,0.59896 -0.198568,0.27344 -0.520834,0.41992 0.400391,0.14323 0.595704,0.42969 0.198568,0.28646 0.198568,0.67708 0,0.63152 -0.46224,1.01237 -0.458985,0.38086 -1.217449,0.38086 -0.709635,0 -1.16211,-0.37434 -0.449219,-0.37435 -0.449219,-0.98959 h 0.940756 q 0,0.26693 0.198568,0.4362 0.201823,0.16927 0.494792,0.16927 0.335286,0 0.524089,-0.17578 0.192057,-0.17904 0.192057,-0.47201 0,-0.70963 -0.78125,-0.70963 h -0.498048 z"/>
  </g>
  <g transform="translate(10.5,212)" id="g41148"/>
  <g class="output-label" style="font-weight:bold;font-size:6.66667px;font-family:Roboto, sans-serif;letter-spacing:2px;fill:#dddddd" id="text41150" aria-label="4">
    <path id="path41212" style="font-weight:bold;font-size:6.66667px;font-family:Roboto, sans-serif;letter-spacing:2px;fill:#dddddd" d="m 23.60547,242.21614 h 0.53711 v 0.75847 H 23.60547 V 244 h -0.940755 v -1.02539 h -1.943361 l -0.04232,-0.59245 1.975912,-3.12175 h 0.950521 z m -1.988933,0 h 1.048178 v -1.67317 l -0.06185,0.10742 z"/>
  </g>
  <g transform="translate(10.5,247)" id="g41152"/>
  <g class="output-label" style="font-weight:bold;font-size:6.66667px;font-family:Roboto, sans-serif;letter-spacing:2px;fill:#dddddd" id="text41154" aria-label="5">
    <path id="path41209" style="font-weight:bold;font-size:6.66667px;font-family:Roboto, sans-serif;letter-spacing:2px;fill:#dddddd" d="m 20.96224,276.66927 0.273437,-2.40886 h 2.656252 v 0.78451 h -1.884767 l -0.117187,1.01888 q 0.335286,-0.17904 0.712891,-0.17904 0.677083,0 1.061198,0.41993 0.384115,0.41992 0.384115,1.17513 0,0.45898 -0.195313,0.82357 -0.192057,0.36132 -0.553385,0.56315 -0.361329,0.19856 -0.852865,0.19856 -0.429688,0 -0.797527,-0.17252 -0.367839,-0.17578 -0.582682,-0.49154 -0.211589,-0.31575 -0.22461,-0.7194 h 0.93099 q 0.0293,0.29622 0.205078,0.46224 0.179037,0.16276 0.465495,0.16276 0.319011,0 0.491537,-0.22786 0.172526,-0.23112 0.172526,-0.65105 0,-0.40364 -0.198568,-0.61849 -0.198567,-0.21484 -0.563151,-0.21484 -0.335287,0 -0.54362,0.17578 l -0.09115,0.0846 z"/>
  </g>
  <g transform="translate(10.5,282)" id="g41156"/>
  <g class="output-label" style="font-weight:bold;font-size:6.66667px;font-family:Roboto, sans-serif;letter-spacing:2px;fill:#dddddd" id="text41158" aria-label="6">
    <path id="path41206" style="font-weight:bold;font-size:6.66667px;font-family:Roboto, sans-serif;letter-spacing:2px;fill:#dddddd" d="m 23.37435,309.21159 v 0.77474 h -0.09115 q -0.638021,0.01 -1.028646,0.33203 -0.38737,0.32226 -0.465495,0.89518 0.377604,-0.38411 0.953777,-0.38411 0.618489,0 0.983073,0.4427 0.364584,0.44271 0.364584,1.16537 0,0.46224 -0.201824,0.83659 -0.198567,0.37435 -0.566406,0.58268 -0.364584,0.20833 -0.826823,0.20833 -0.748699,0 -1.210938,-0.52083 -0.458985,-0.52083 -0.458985,-1.38997 v -0.33855 q 0,-0.77148 0.289714,-1.36067 0.292969,-0.59245 0.836589,-0.91472 0.546875,-0.32552 1.266276,-0.32877 z m -0.917969,2.37304 q -0.227865,0 -0.413412,0.12045 -0.185546,0.11718 -0.273437,0.3125 v 0.28646 q 0,0.472 0.185547,0.73893 0.185547,0.26367 0.520833,0.26367 0.302735,0 0.488282,-0.23763 0.188802,-0.24089 0.188802,-0.62175 0,-0.38737 -0.188802,-0.625 -0.188802,-0.23763 -0.507813,-0.23763 z"/>
  </g>
</svg>
