<?xml version="1.0" encoding="UTF-8" standalone="no"?>
<svg
   xmlns:dc="http://purl.org/dc/elements/1.1/"
   xmlns:cc="http://creativecommons.org/ns#"
   xmlns:rdf="http://www.w3.org/1999/02/22-rdf-syntax-ns#"
   xmlns:svg="http://www.w3.org/2000/svg"
   xmlns="http://www.w3.org/2000/svg"
   xmlns:sodipodi="http://sodipodi.sourceforge.net/DTD/sodipodi-0.dtd"
   xmlns:inkscape="http://www.inkscape.org/namespaces/inkscape"
   version="1.1"
   width="45"
   height="380"
   viewBox="0 0 45 380"
   id="svg114"
   sodipodi:docname="svg_render_tmp.svg"
   inkscape:version="0.92.2 5c3e80d, 2017-08-06">
  <metadata
     id="metadata118">
    <rdf:RDF>
      <cc:Work
         rdf:about="">
        <dc:format>image/svg+xml</dc:format>
        <dc:type
           rdf:resource="http://purl.org/dc/dcmitype/StillImage" />
      </cc:Work>
    </rdf:RDF>
  </metadata>
  <sodipodi:namedview
     pagecolor="#ffffff"
     bordercolor="#666666"
     borderopacity="1"
     objecttolerance="10"
     gridtolerance="10"
     guidetolerance="10"
     inkscape:pageopacity="0"
     inkscape:pageshadow="2"
     inkscape:window-width="468"
     inkscape:window-height="449"
     id="namedview116"
     showgrid="false"
     inkscape:zoom="0.62105263"
     inkscape:cx="22.5"
     inkscape:cy="190"
     inkscape:window-x="0"
     inkscape:window-y="0"
     inkscape:window-maximized="0"
     inkscape:current-layer="svg114" />
  <style
     id="style2">
    text {
      fill: #333;
      font-family: 'Roboto', sans-serif;
      font-weight: bold;
    }
    text.title {
      font-family: 'Comfortaa', sans-serif;
      font-weight: normal;
    }
    text.brand {
      font-family: 'Audiowide', sans-serif;
      font-weight: bold;
    }
  </style>
  <defs
     id="defs62">
    <symbol
       id="knob-smallest"
       viewBox="0 0 16px 16px">
      <g
         transform="translate(8 8)"
         id="g10">
        <polyline
           points="-3,0 3,0"
           stroke-width="1"
           stroke="#00f"
           id="polyline4" />
        <polyline
           points="0,-3 0,3"
           stroke-width="1"
           stroke="#00f"
           id="polyline6" />
        <circle
           r="7.5"
           stroke-width="1"
           stroke="#00f"
           fill="none"
           id="circle8" />
      </g>
    </symbol>
    <symbol
       id="knobguide-channels"
       viewBox="0 0 40px 40px">
      <g
         transform="translate(20 20)"
         id="g45">
        <text
           font-size="5pt"
           transform="rotate(-240) translate(13 0) rotate(240) translate(-2 2)"
           id="text13">1</text>
        <text
           font-size="5pt"
           transform="rotate(-200) translate(13 0) rotate(200) translate(-2 2)"
           id="text15">3</text>
        <text
           font-size="5pt"
           transform="rotate(-160) translate(13 0) rotate(160) translate(-2 2)"
           id="text17">5</text>
        <text
           font-size="5pt"
           transform="rotate(-120) translate(13 0) rotate(120) translate(-2 2)"
           id="text19">7</text>
        <text
           font-size="5pt"
           transform="rotate(-80) translate(13 0) rotate(80) translate(-2 2)"
           id="text21">9</text>
        <text
           font-size="5pt"
           transform="rotate(-40) translate(13 0) rotate(40) translate(-2 2)"
           id="text23">11</text>
        <text
           font-size="5pt"
           transform="rotate(0) translate(13 0) rotate(0) translate(-2.1 2.3)"
           id="text25">13</text>
        <text
           font-size="5pt"
           transform="rotate(40) translate(13 0) rotate(-40) translate(-1.8 3)"
           id="text27">15</text>
        <!-- <polyline points="0,0 2.5,0" stroke-width="0.3" stroke="#333" transform="rotate(-240) translate(12 0)" /> -->
        <polyline
           points="0,0 2.5,0"
           stroke-width="0.3"
           stroke="#333"
           transform="rotate(-220) translate(10 0)"
           id="polyline29" />
        <!-- <polyline points="0,0 2.5,0" stroke-width="0.3" stroke="#333" transform="rotate(-200) translate(12 0)" /> -->
        <polyline
           points="0,0 2.5,0"
           stroke-width="0.3"
           stroke="#333"
           transform="rotate(-180) translate(10 0)"
           id="polyline31" />
        <!-- <polyline points="0,0 2.5,0" stroke-width="0.3" stroke="#333" transform="rotate(-160) translate(12 0)" /> -->
        <polyline
           points="0,0 2.5,0"
           stroke-width="0.3"
           stroke="#333"
           transform="rotate(-140) translate(10 0)"
           id="polyline33" />
        <!-- <polyline points="0,0 2.5,0" stroke-width="0.3" stroke="#333" transform="rotate(-120) translate(12 0)" /> -->
        <polyline
           points="0,0 2.5,0"
           stroke-width="0.3"
           stroke="#333"
           transform="rotate(-100) translate(10 0)"
           id="polyline35" />
        <!-- <polyline points="0,0 2.5,0" stroke-width="0.3" stroke="#333" transform="rotate(-80) translate(12 0)" /> -->
        <polyline
           points="0,0 2.5,0"
           stroke-width="0.3"
           stroke="#333"
           transform="rotate(-60) translate(10 0)"
           id="polyline37" />
        <!-- <polyline points="0,0 2.5,0" stroke-width="0.3" stroke="#333" transform="rotate(-40) translate(12 0)" /> -->
        <polyline
           points="0,0 2.5,0"
           stroke-width="0.3"
           stroke="#333"
           transform="rotate(-20) translate(10 0)"
           id="polyline39" />
        <!-- <polyline points="0,0 2.5,0" stroke-width="0.3" stroke="#333" transform="rotate(0) translate(12 0)" /> -->
        <polyline
           points="0,0 2.5,0"
           stroke-width="0.3"
           stroke="#333"
           transform="rotate(20) translate(10 0)"
           id="polyline41" />
        <!-- <polyline points="0,0 2.5,0" stroke-width="0.3" stroke="#333" transform="rotate(40) translate(12 0)" /> -->
        <polyline
           points="0,0 2.5,0"
           stroke-width="0.3"
           stroke="#333"
           transform="rotate(60) translate(10 0)"
           id="polyline43" />
      </g>
    </symbol>
    <symbol
       id="input"
       viewBox="0 0 24px 24px">
      <g
         transform="translate(12 12)"
         id="g52">
        <circle
           cx="0"
           cy="0"
           r="5"
           stroke-width="1"
           stroke="#0f0"
           fill="#0f0"
           id="circle48" />
        <circle
           cx="0"
           cy="0"
           r="10.5"
           stroke-width="3"
           stroke="#0f0"
           fill="none"
           id="circle50" />
      </g>
    </symbol>
    <symbol
       id="output"
       viewBox="0 0 24px 24px">
      <g
         transform="translate(12 12)"
         id="g59">
        <circle
           cx="0"
           cy="0"
           r="5"
           stroke-width="1"
           stroke="#f00"
           fill="#f00"
           id="circle55" />
        <circle
           cx="0"
           cy="0"
           r="10.5"
           stroke-width="3"
           stroke="#f00"
           fill="none"
           id="circle57" />
      </g>
    </symbol>
  </defs>
  <path
     style="fill:#dddddd"
     d="M 0,0 H 45 V 380 H 0 Z"
     id="rect64" />
  <path
     style="fill:none;stroke:#e4e4e4;stroke-width:0.5"
     d="M 1,1 H 44 V 379 H 1 V 1"
     id="polyline66" />
  <path
     style="fill:none;stroke:#ebebeb;stroke-width:0.80000001"
     d="m 0.5,0.5 h 44 v 379 H 0.5 V 0.5"
     id="polyline68" />
  <path
     style="fill:none;stroke:#f2f2f2;stroke-width:1"
     d="M 0,0 H 45 V 380 H 0 V 0"
     id="polyline70" />
  <!-- <polyline points="0,0 0,380" stroke="#0f0" stroke-width="1" fill="none" transform="translate(22.5 0)" /> -->
  <g
     aria-label="POLYMULT"
     transform="rotate(-90)"
     style="font-weight:normal;font-size:9.33333302px;font-family:Comfortaa, sans-serif;letter-spacing:2px;fill:#333333"
     id="text72">
    <path
       d="m -374.70267,13 q -0.15866,0 -0.26133,-0.102667 -0.10267,-0.102666 -0.10267,-0.261333 V 6.0746669 q 0,-0.1586667 0.10267,-0.2613333 0.10267,-0.1026667 0.26133,-0.1026667 h 1.86667 q 0.68133,0 1.21333,0.308 0.54134,0.2986667 0.84,0.84 0.29867,0.532 0.29867,1.2226666 0,0.6813333 -0.29867,1.2133333 -0.29866,0.532 -0.84,0.8306662 -0.532,0.298667 -1.21333,0.298667 h -1.50267 v 2.212 q 0,0.158667 -0.10266,0.261333 Q -374.544,13 -374.70267,13 Z m 1.86667,-3.2759999 q 0.476,0 0.84933,-0.2053333 0.37334,-0.2146667 0.57867,-0.588 0.21467,-0.3733333 0.21467,-0.8493333 0,-0.4853333 -0.21467,-0.8586666 -0.20533,-0.3826667 -0.57867,-0.5973333 Q -372.36,6.4106669 -372.836,6.4106669 h -1.50267 v 3.3133332 z"
       style="font-weight:normal;font-size:9.33333302px;font-family:Comfortaa, sans-serif;letter-spacing:2px;fill:#333333"
       id="path174" />
    <path
       d="m -363.9916,13.093333 q -1.064,0 -1.91334,-0.485333 -0.84933,-0.485333 -1.33466,-1.334667 -0.476,-0.858666 -0.476,-1.9226662 0,-1.064 0.476,-1.9133333 0.48533,-0.8493333 1.33466,-1.3346666 0.84934,-0.4853333 1.91334,-0.4853333 1.05466,0 1.904,0.4853333 0.85866,0.4853333 1.33466,1.3346666 0.48534,0.8493333 0.48534,1.9133333 0,1.0640002 -0.48534,1.9226662 -0.476,0.849334 -1.33466,1.334667 -0.84934,0.485333 -1.904,0.485333 z m 0,-0.690666 q 0.84933,0 1.53066,-0.401334 0.69067,-0.401333 1.08267,-1.092 0.392,-0.7 0.392,-1.5586662 0,-0.8493333 -0.392,-1.54 -0.392,-0.6999999 -1.08267,-1.1013333 -0.68133,-0.4013333 -1.53066,-0.4013333 -0.85867,0 -1.54934,0.4013333 -0.68133,0.4013334 -1.07333,1.1013333 -0.392,0.6906667 -0.392,1.54 0,0.8586662 0.392,1.5586662 0.392,0.690667 1.07333,1.092 0.69067,0.401334 1.54934,0.401334 z"
       style="font-weight:normal;font-size:9.33333302px;font-family:Comfortaa, sans-serif;letter-spacing:2px;fill:#333333"
       id="path176" />
    <path
       d="m -356.39277,13 q -0.14934,0 -0.26134,-0.102667 -0.10266,-0.112 -0.10266,-0.261333 V 6.0746669 q 0,-0.1493333 0.10266,-0.252 0.112,-0.112 0.26134,-0.112 0.15866,0 0.26133,0.1026667 0.10267,0.1026666 0.10267,0.2613333 v 6.2346661 h 3.64933 q 0.15867,0 0.26133,0.102667 0.10267,0.09333 0.10267,0.242667 0,0.149333 -0.10267,0.252 Q -352.22077,13 -352.37944,13 Z"
       style="font-weight:normal;font-size:9.33333302px;font-family:Comfortaa, sans-serif;letter-spacing:2px;fill:#333333"
       id="path178" />
    <path
       d="m -345.32121,5.7106669 q 0.14,0 0.224,0.1026667 0.0933,0.093333 0.0933,0.2333333 0,0.1306667 -0.0653,0.2333333 l -2.548,4.0226668 V 12.636 q 0,0.149333 -0.10267,0.261333 Q -347.82254,13 -347.98121,13 q -0.14933,0 -0.26133,-0.102667 -0.10267,-0.112 -0.10267,-0.261333 v -2.333333 l -2.53867,-4.0226668 q -0.0747,-0.1213333 -0.0747,-0.2333333 0,-0.14 0.10266,-0.2333333 0.10267,-0.1026667 0.252,-0.1026667 0.10267,0 0.168,0.046667 0.0747,0.037333 0.14,0.1306666 l 2.324,3.7426666 2.31467,-3.7239999 q 0.0747,-0.1026667 0.14933,-0.1493333 0.0747,-0.046667 0.18667,-0.046667 z"
       style="font-weight:normal;font-size:9.33333302px;font-family:Comfortaa, sans-serif;letter-spacing:2px;fill:#333333"
       id="path180" />
    <path
       d="m -335.08513,5.7106669 q 0.14934,0 0.252,0.1026667 0.10267,0.1026666 0.10267,0.2613333 V 12.636 q 0,0.149333 -0.10267,0.261333 Q -334.93579,13 -335.08513,13 q -0.15866,0 -0.27066,-0.102667 -0.10267,-0.112 -0.10267,-0.261333 V 7.3533335 l -2.59467,5.3013335 q -0.112,0.177333 -0.31733,0.177333 -0.23333,0 -0.336,-0.224 l -2.58533,-5.1706665 V 12.636 q 0,0.149333 -0.10267,0.261333 Q -341.49713,13 -341.65579,13 q -0.14934,0 -0.26134,-0.102667 -0.10266,-0.112 -0.10266,-0.261333 V 6.0746669 q 0,-0.1586667 0.10266,-0.2613333 0.112,-0.1026667 0.26134,-0.1026667 0.21466,0 0.32666,0.1866667 l 2.98667,5.9359994 2.93067,-5.9359994 q 0.112,-0.1866667 0.32666,-0.1866667 z"
       style="font-weight:normal;font-size:9.33333302px;font-family:Comfortaa, sans-serif;letter-spacing:2px;fill:#333333"
       id="path182" />
    <path
       d="m -327.96609,13.149333 q -0.84,0 -1.50266,-0.326666 -0.66267,-0.326667 -1.036,-0.905334 -0.364,-0.588 -0.364,-1.325333 V 6.0746669 q 0,-0.1586667 0.10266,-0.2613333 0.10267,-0.1026667 0.26134,-0.1026667 0.15866,0 0.26133,0.1026667 0.10267,0.1026666 0.10267,0.2613333 V 10.592 q 0,0.541333 0.27066,0.970667 0.28,0.42 0.77467,0.662666 0.49467,0.233334 1.12933,0.233334 0.62534,0 1.11067,-0.233334 0.48533,-0.242666 0.756,-0.662666 0.28,-0.429334 0.28,-0.970667 V 6.0746669 q 0,-0.1586667 0.10267,-0.2613333 0.10266,-0.1026667 0.26133,-0.1026667 0.15867,0 0.26133,0.1026667 0.10267,0.1026666 0.10267,0.2613333 V 10.592 q 0,0.737333 -0.37333,1.325333 -0.364,0.578667 -1.01734,0.905334 -0.65333,0.326666 -1.484,0.326666 z"
       style="font-weight:normal;font-size:9.33333302px;font-family:Comfortaa, sans-serif;letter-spacing:2px;fill:#333333"
       id="path184" />
    <path
       d="m -320.86673,13 q -0.14934,0 -0.26134,-0.102667 -0.10266,-0.112 -0.10266,-0.261333 V 6.0746669 q 0,-0.1493333 0.10266,-0.252 0.112,-0.112 0.26134,-0.112 0.15866,0 0.26133,0.1026667 0.10267,0.1026666 0.10267,0.2613333 v 6.2346661 h 3.64933 q 0.15867,0 0.26133,0.102667 0.10267,0.09333 0.10267,0.242667 0,0.149333 -0.10267,0.252 Q -316.69473,13 -316.8534,13 Z"
       style="font-weight:normal;font-size:9.33333302px;font-family:Comfortaa, sans-serif;letter-spacing:2px;fill:#333333"
       id="path186" />
    <path
       d="m -309.84183,5.7106669 q 0.14933,0 0.24266,0.093333 0.0933,0.093333 0.0933,0.2426667 0,0.14 -0.0933,0.2333333 -0.0933,0.093333 -0.24266,0.093333 h -2.22134 V 12.636 q 0,0.149333 -0.10266,0.261333 Q -312.2685,13 -312.42717,13 q -0.14933,0 -0.26133,-0.102667 -0.10267,-0.112 -0.10267,-0.261333 V 6.3733336 h -2.212 q -0.14933,0 -0.24266,-0.093333 -0.0933,-0.093333 -0.0933,-0.2333333 0,-0.1493333 0.0933,-0.2426667 0.0933,-0.093333 0.24266,-0.093333 z"
       style="font-weight:normal;font-size:9.33333302px;font-family:Comfortaa, sans-serif;letter-spacing:2px;fill:#333333"
       id="path188" />
  </g>
  <g
     id="g78"
     transform="rotate(-90,200.5,175.5)">
    <g
       aria-label="BGA"
       style="font-weight:bold;font-size:9.33333302px;font-family:Audiowide, sans-serif;letter-spacing:2px;fill:#333333"
       id="text74">
      <path
         d="m 7.2096352,-1.4355468 q 0,0.21875 -0.077474,0.469401 -0.072917,0.25065103 -0.2460937,0.46484373 -0.1686198,0.2141927 -0.4420573,0.36002603 Q 6.1705727,0 5.7740883,0 H 1.2760416 Q 1.1484375,0 1.0390625,-0.04557292 0.92968747,-0.09114583 0.84765622,-0.16861979 q -0.077474,-0.0820312 -0.12304687,-0.19140624 -0.0455729,-0.109375 -0.0455729,-0.23697916 V -5.9381508 q 0,-0.1230469 0.0455729,-0.2324219 0.0455729,-0.109375 0.12304687,-0.1914062 0.0820313,-0.082031 0.19140628,-0.1276042 0.109375,-0.045573 0.2369791,-0.045573 h 3.9648436 q 0.21875,0 0.4694011,0.077474 0.250651,0.077474 0.4648437,0.2506511 0.21875,0.1686197 0.360026,0.4420572 0.1458334,0.2734375 0.1458334,0.6699219 v 0.2233073 q 0,0.3144531 -0.1048177,0.6790364 -0.1048178,0.360026 -0.3372396,0.6835937 0.2005208,0.1230469 0.3736979,0.296224 0.1777344,0.1731771 0.3098958,0.4010416 0.1321615,0.2278646 0.2096354,0.514974 0.077474,0.2871093 0.077474,0.6334635 z M 6.0247394,-1.6634114 q 0,-0.2324219 -0.072917,-0.4147135 Q 5.878906,-2.2649739 5.7467446,-2.3971353 5.6145831,-2.5292968 5.4277342,-2.5976562 5.2408852,-2.6705728 5.0084634,-2.6705728 H 2.3378905 v -1.1940104 h 2.1373698 q 0.2324218,0 0.4192708,-0.068359 0.1868489,-0.072917 0.3190104,-0.2050781 0.1321614,-0.1321614 0.2005208,-0.3144531 0.072917,-0.186849 0.072917,-0.4192708 v -0.2233073 q 0,-0.2552083 -0.2460938,-0.2552083 h -3.376953 v 4.1653644 h 3.9101561 q 0.031901,0 0.077474,-0.00456 0.045573,-0.00456 0.082031,-0.027344 0.036458,-0.022787 0.063802,-0.077474 0.027344,-0.054687 0.027344,-0.1503906 z"
         style="font-weight:bold;font-size:9.33333302px;font-family:Audiowide, sans-serif;letter-spacing:2px;fill:#333333"
         id="path191" />
      <path
         d="m 16.683594,-0.59700519 q 0,0.12760416 -0.04557,0.23697916 -0.04557,0.109375 -0.127605,0.19140624 -0.07747,0.07747396 -0.186849,0.12304687 Q 16.214192,0 16.086588,0 h -4.274739 q -0.164063,0 -0.355469,-0.03645833 -0.186849,-0.04101563 -0.373698,-0.12304687 -0.182291,-0.0820313 -0.350911,-0.20963541 -0.16862,-0.13216146 -0.300781,-0.31445312 -0.127605,-0.18684895 -0.205079,-0.42838537 -0.07747,-0.2460938 -0.07747,-0.5514323 v -3.2083332 q 0,-0.1640625 0.03646,-0.3509115 0.04101,-0.1914062 0.123047,-0.3736979 0.08203,-0.1868489 0.214192,-0.3554687 0.132162,-0.1686198 0.314453,-0.296224 0.186849,-0.1321614 0.428386,-0.2096354 0.241536,-0.077474 0.546875,-0.077474 h 4.817057 v 1.1848958 h -4.817057 q -0.232422,0 -0.355469,0.1230468 -0.123047,0.1230469 -0.123047,0.3645834 v 3.1992186 q 0,0.2278646 0.123047,0.3554687 0.127604,0.1230469 0.355469,0.1230469 h 3.686849 v -1.485677 h -3.153646 v -1.1940104 h 3.741536 q 0.127604,0 0.236979,0.05013 0.109375,0.045573 0.186849,0.1276042 0.08203,0.082031 0.127605,0.1914062 0.04557,0.1048177 0.04557,0.2278646 z"
         style="font-weight:bold;font-size:9.33333302px;font-family:Audiowide, sans-serif;letter-spacing:2px;fill:#333333"
         id="path193" />
      <path
         d="M 26.339842,0 H 25.154946 V -1.6041666 H 20.989582 V 0 h -1.184896 v -3.267578 q 0,-0.7154948 0.246094,-1.3170573 0.246094,-0.6015624 0.683594,-1.0345051 0.4375,-0.4329427 1.034505,-0.6744792 0.597005,-0.2415364 1.303385,-0.2415364 h 2.670573 q 0.123047,0 0.232422,0.045573 0.109375,0.045573 0.191406,0.1276042 0.08203,0.082031 0.127604,0.1914062 0.04557,0.109375 0.04557,0.2324219 z m -5.35026,-2.7890624 h 4.165364 v -2.5611978 h -2.082682 q -0.05469,0 -0.232422,0.018229 -0.173177,0.013672 -0.405599,0.077474 -0.227864,0.063802 -0.483072,0.1959635 -0.255209,0.1321615 -0.469402,0.3645833 -0.214192,0.2324219 -0.355468,0.5833334 -0.136719,0.3463541 -0.136719,0.8430989 z"
         style="font-weight:bold;font-size:9.33333302px;font-family:Audiowide, sans-serif;letter-spacing:2px;fill:#333333"
         id="path195" />
    </g>
    <path
       transform="translate(11.5,-5)"
       style="fill:#dddddd"
       d="M 0,0 H 3 V 3 H 0 Z"
       id="rect76" />
  </g>
  <g
     aria-label="CHAN"
     style="font-weight:bold;font-size:8px;font-family:Roboto, sans-serif;letter-spacing:1.5px;fill:#333333"
     id="text82">
    <path
       d="m 13.972656,28.105469 q -0.06641,0.917968 -0.679687,1.445312 -0.609375,0.527344 -1.609375,0.527344 -1.09375,0 -1.7226565,-0.734375 -0.625,-0.738281 -0.625,-2.023438 v -0.347656 q 0,-0.820312 0.2890625,-1.445312 0.2890625,-0.625 0.824219,-0.957032 0.539062,-0.335937 1.25,-0.335937 0.984375,0 1.585937,0.527344 0.601563,0.527343 0.695313,1.480468 H 12.808594 Q 12.765625,25.691406 12.5,25.445312 q -0.261719,-0.25 -0.800781,-0.25 -0.585938,0 -0.878906,0.421875 -0.289063,0.417969 -0.296875,1.300782 v 0.429687 q 0,0.921875 0.277343,1.347656 0.28125,0.425782 0.882813,0.425782 0.542969,0 0.808594,-0.246094 0.269531,-0.25 0.308593,-0.769531 z"
       style="font-weight:bold;font-size:8px;font-family:Roboto, sans-serif;letter-spacing:1.5px;fill:#333333"
       id="path199" />
    <path
       d="M 20.871094,30 H 19.699219 V 27.5625 H 17.414062 V 30 h -1.171875 v -5.6875 h 1.171875 v 2.304687 h 2.285157 V 24.3125 h 1.171875 z"
       style="font-weight:bold;font-size:8px;font-family:Roboto, sans-serif;letter-spacing:1.5px;fill:#333333"
       id="path201" />
    <path
       d="M 26.6875,28.828125 H 24.632812 L 24.242187,30 h -1.246093 l 2.117187,-5.6875 h 1.085938 L 28.328125,30 h -1.246094 z m -1.738281,-0.949219 h 1.421875 L 25.65625,25.75 Z"
       style="font-weight:bold;font-size:8px;font-family:Roboto, sans-serif;letter-spacing:1.5px;fill:#333333"
       id="path203" />
    <path
       d="m 34.992187,30 h -1.171875 l -2.28125,-3.742188 V 30 h -1.171875 v -5.6875 h 1.171875 l 2.285157,3.75 v -3.75 h 1.167968 z"
       style="font-weight:bold;font-size:8px;font-family:Roboto, sans-serif;letter-spacing:1.5px;fill:#333333"
       id="path205" />
  </g>
  <g
     id="use84"
     transform="translate(2.5,30)">
    <g
       id="g170"
       transform="translate(20,20)">
      <g
         aria-label="1"
         transform="translate(-8.5,13.25833)"
         style="font-weight:bold;font-size:6.66666651px;font-family:Roboto, sans-serif;fill:#333333"
         id="text138">
        <path
           d="M 2.6074218,0 H 1.6666666 v -3.626302 l -1.12304682,0.3483073 v -0.764974 L 2.5065104,-4.7460936 h 0.1009114 z"
           style="font-weight:bold;font-size:6.66666651px;font-family:Roboto, sans-serif;fill:#333333"
           id="path208" />
      </g>
      <g
         aria-label="3"
         transform="translate(-14.216004,6.4462619)"
         style="font-weight:bold;font-size:6.66666651px;font-family:Roboto, sans-serif;fill:#333333"
         id="text140">
        <path
           d="m 1.2792968,-2.7864583 h 0.5013021 q 0.3580729,0 0.530599,-0.1790364 0.172526,-0.1790365 0.172526,-0.4752604 0,-0.2864584 -0.172526,-0.4459636 -0.1692709,-0.1595052 -0.46875,-0.1595052 -0.2701823,0 -0.452474,0.1497396 -0.1822916,0.1464844 -0.1822916,0.3841146 H 0.26692708 q 0,-0.3710937 0.1985677,-0.6640625 0.20182291,-0.2962239 0.55989582,-0.4622396 0.3613281,-0.1660156 0.7942708,-0.1660156 0.7519531,0 1.1783854,0.3613281 0.4264323,0.3580729 0.4264323,0.9895833 0,0.3255209 -0.1985677,0.5989584 -0.1985677,0.2734375 -0.5208333,0.4199218 0.4003906,0.1432292 0.5957031,0.4296875 0.1985677,0.2864583 0.1985677,0.6770833 0,0.63151043 -0.4622396,1.0123698 -0.4589844,0.38085937 -1.2174479,0.38085937 -0.7096354,0 -1.16210933,-0.37434895 Q 0.20833333,-0.68359373 0.20833333,-1.2988281 H 1.1490885 q 0,0.2669271 0.1985677,0.43619791 0.2018229,0.16927083 0.4947917,0.16927083 0.3352864,0 0.5240885,-0.17578124 0.1920573,-0.1790365 0.1920573,-0.4720052 0,-0.7096354 -0.78125,-0.7096354 H 1.2792968 Z"
           style="font-weight:bold;font-size:6.66666651px;font-family:Roboto, sans-serif;fill:#333333"
           id="path211" />
      </g>
      <g
         aria-label="5"
         transform="translate(-14.216004,-2.4462619)"
         style="font-weight:bold;font-size:6.66666651px;font-family:Roboto, sans-serif;fill:#333333"
         id="text142">
        <path
           d="m 0.46223957,-2.3307291 0.2734375,-2.4088541 H 3.391927 V -3.955078 H 1.5071614 l -0.1171875,1.0188802 q 0.3352865,-0.1790365 0.7128906,-0.1790365 0.6770834,0 1.0611979,0.4199219 0.3841146,0.4199218 0.3841146,1.1751301 0,0.4589844 -0.1953125,0.82356773 -0.1920573,0.36132812 -0.5533854,0.56315103 -0.3613281,0.19856771 -0.8528646,0.19856771 -0.4296875,0 -0.797526,-0.17252604 Q 0.78124998,-0.28320312 0.56640624,-0.59895832 0.3548177,-0.91471352 0.34179687,-1.3183593 H 1.2727864 q 0.029297,0.2962239 0.2050781,0.46223953 0.1790365,0.16276041 0.4654948,0.16276041 0.3190104,0 0.4915365,-0.22786458 0.172526,-0.23111976 0.172526,-0.65104166 0,-0.4036458 -0.1985677,-0.6184896 -0.1985677,-0.2148437 -0.563151,-0.2148437 -0.3352865,0 -0.5436198,0.1757812 l -0.091146,0.084636 z"
           style="font-weight:bold;font-size:6.66666651px;font-family:Roboto, sans-serif;fill:#333333"
           id="path214" />
      </g>
      <g
         aria-label="7"
         transform="translate(-8.5,-9.2583302)"
         style="font-weight:bold;font-size:6.66666651px;font-family:Roboto, sans-serif;fill:#333333"
         id="text144">
        <path
           d="M 3.5449218,-4.2122395 1.7122395,0 H 0.71940102 L 2.5553385,-3.9778645 H 0.1985677 v -0.7617187 h 3.3463541 z"
           style="font-weight:bold;font-size:6.66666651px;font-family:Roboto, sans-serif;fill:#333333"
           id="path217" />
      </g>
      <g
         aria-label="9"
         transform="translate(0.25742631,-10.802501)"
         style="font-weight:bold;font-size:6.66666651px;font-family:Roboto, sans-serif;fill:#333333"
         id="text146">
        <path
           d="m 2.5227864,-1.8945312 q -0.3678385,0.3613281 -0.859375,0.3613281 -0.6282552,0 -1.00585933,-0.4296875 -0.37760416,-0.4329427 -0.37760416,-1.1653645 0,-0.4654948 0.20182291,-0.8528646 0.20507812,-0.390625 0.56966148,-0.6054687 0.3645833,-0.218099 0.8203124,-0.218099 0.46875,0 0.8333334,0.234375 0.3645833,0.234375 0.5664062,0.6738281 0.2018229,0.4394531 0.2050781,1.0058594 v 0.3483073 q 0,1.1848958 -0.5891927,1.86197907 -0.5891927,0.67708332 -1.6699218,0.72265624 l -0.2311198,0.0032552 v -0.78450519 l 0.2083333,-0.003255 q 1.2272135,-0.0553385 1.328125,-1.15234372 z M 1.8945312,-2.2526041 q 0.2278646,0 0.390625,-0.1171875 0.1660156,-0.1171875 0.250651,-0.2832031 v -0.3873698 q 0,-0.4785156 -0.1822916,-0.7421875 -0.1822917,-0.2636719 -0.4882813,-0.2636719 -0.2832031,0 -0.4654948,0.2604167 -0.1822916,0.2571615 -0.1822916,0.6477864 0,0.3873698 0.1757812,0.6380209 0.1790365,0.2473958 0.5013021,0.2473958 z"
           style="font-weight:bold;font-size:6.66666651px;font-family:Roboto, sans-serif;fill:#333333"
           id="path220" />
      </g>
      <g
         aria-label="11"
         transform="translate(7.9585778,-6.3562389)"
         style="font-weight:bold;font-size:6.66666651px;font-family:Roboto, sans-serif;fill:#333333"
         id="text148">
        <path
           d="M 2.6074218,0 H 1.6666666 v -3.626302 l -1.12304682,0.3483073 v -0.764974 L 2.5065104,-4.7460936 h 0.1009114 z"
           style="font-weight:bold;font-size:6.66666651px;font-family:Roboto, sans-serif;fill:#333333"
           id="path223" />
        <path
           d="M 6.4355468,0 H 5.4947916 v -3.626302 l -1.1230468,0.3483073 v -0.764974 l 1.9628906,-0.7031249 h 0.1009114 z"
           style="font-weight:bold;font-size:6.66666651px;font-family:Roboto, sans-serif;fill:#333333"
           id="path225" />
      </g>
      <g
         aria-label="13"
         transform="translate(10.9,2.3)"
         style="font-weight:bold;font-size:6.66666651px;font-family:Roboto, sans-serif;fill:#333333"
         id="text150">
        <path
           d="M 2.6074218,0 H 1.6666666 v -3.626302 l -1.12304682,0.3483073 v -0.764974 L 2.5065104,-4.7460936 h 0.1009114 z"
           style="font-weight:bold;font-size:6.66666651px;font-family:Roboto, sans-serif;fill:#333333"
           id="path228" />
        <path
           d="m 5.1074218,-2.7864583 h 0.5013021 q 0.3580729,0 0.530599,-0.1790364 0.172526,-0.1790365 0.172526,-0.4752604 0,-0.2864584 -0.172526,-0.4459636 -0.1692709,-0.1595052 -0.46875,-0.1595052 -0.2701823,0 -0.452474,0.1497396 -0.1822916,0.1464844 -0.1822916,0.3841146 H 4.0950521 q 0,-0.3710937 0.1985677,-0.6640625 0.2018229,-0.2962239 0.5598958,-0.4622396 0.3613281,-0.1660156 0.7942708,-0.1660156 0.7519531,0 1.1783854,0.3613281 0.4264323,0.3580729 0.4264323,0.9895833 0,0.3255209 -0.1985677,0.5989584 -0.1985677,0.2734375 -0.5208333,0.4199218 0.4003906,0.1432292 0.5957031,0.4296875 0.1985677,0.2864583 0.1985677,0.6770833 0,0.63151043 -0.4622396,1.0123698 -0.4589844,0.38085937 -1.2174479,0.38085937 -0.7096354,0 -1.1621093,-0.37434895 Q 4.0364583,-0.68359373 4.0364583,-1.2988281 h 0.9407552 q 0,0.2669271 0.1985677,0.43619791 0.2018229,0.16927083 0.4947917,0.16927083 0.3352864,0 0.5240885,-0.17578124 0.1920573,-0.1790365 0.1920573,-0.4720052 0,-0.7096354 -0.78125,-0.7096354 H 5.1074218 Z"
           style="font-weight:bold;font-size:6.66666651px;font-family:Roboto, sans-serif;fill:#333333"
           id="path230" />
      </g>
      <g
         aria-label="15"
         transform="translate(8.1585778,11.356239)"
         style="font-weight:bold;font-size:6.66666651px;font-family:Roboto, sans-serif;fill:#333333"
         id="text152">
        <path
           d="M 2.6074218,0 H 1.6666666 v -3.626302 l -1.12304682,0.3483073 v -0.764974 L 2.5065104,-4.7460936 h 0.1009114 z"
           style="font-weight:bold;font-size:6.66666651px;font-family:Roboto, sans-serif;fill:#333333"
           id="path233" />
        <path
           d="M 4.2903646,-2.3307291 4.5638021,-4.7395832 H 7.220052 V -3.955078 H 5.3352864 l -0.1171875,1.0188802 q 0.3352865,-0.1790365 0.7128906,-0.1790365 0.6770834,0 1.0611979,0.4199219 0.3841146,0.4199218 0.3841146,1.1751301 0,0.4589844 -0.1953125,0.82356773 -0.1920573,0.36132812 -0.5533854,0.56315103 -0.3613281,0.19856771 -0.8528646,0.19856771 -0.4296875,0 -0.797526,-0.17252604 Q 4.609375,-0.28320312 4.3945312,-0.59895832 4.1829427,-0.91471352 4.1699219,-1.3183593 h 0.9309895 q 0.029297,0.2962239 0.2050781,0.46223953 0.1790365,0.16276041 0.4654948,0.16276041 0.3190104,0 0.4915365,-0.22786458 0.172526,-0.23111976 0.172526,-0.65104166 0,-0.4036458 -0.1985677,-0.6184896 -0.1985677,-0.2148437 -0.563151,-0.2148437 -0.3352865,0 -0.5436198,0.1757812 l -0.091146,0.084636 z"
           style="font-weight:bold;font-size:6.66666651px;font-family:Roboto, sans-serif;fill:#333333"
           id="path235" />
      </g>
      <!-- <polyline points="0,0 2.5,0" stroke-width="0.3" stroke="#333" transform="rotate(-240) translate(12 0)" /> -->
      <path
         transform="rotate(140,-5,1.8198512)"
         style="stroke:#333333;stroke-width:0.30000001"
         d="M 0,0 H 2.5"
         id="polyline154" />
      <!-- <polyline points="0,0 2.5,0" stroke-width="0.3" stroke="#333" transform="rotate(-200) translate(12 0)" /> -->
      <path
         transform="rotate(-180,-5,0)"
         style="stroke:#333333;stroke-width:0.30000001"
         d="M 0,0 H 2.5"
         id="polyline156" />
      <!-- <polyline points="0,0 2.5,0" stroke-width="0.3" stroke="#333" transform="rotate(-160) translate(12 0)" /> -->
      <path
         transform="rotate(-140,-5,-1.8198512)"
         style="stroke:#333333;stroke-width:0.30000001"
         d="M 0,0 H 2.5"
         id="polyline158" />
      <!-- <polyline points="0,0 2.5,0" stroke-width="0.3" stroke="#333" transform="rotate(-120) translate(12 0)" /> -->
      <path
         transform="rotate(-100,-5,-4.1954982)"
         style="stroke:#333333;stroke-width:0.30000001"
         d="M 0,0 H 2.5"
         id="polyline160" />
      <!-- <polyline points="0,0 2.5,0" stroke-width="0.3" stroke="#333" transform="rotate(-80) translate(12 0)" /> -->
      <path
         transform="rotate(-60,-5,-8.660254)"
         style="stroke:#333333;stroke-width:0.30000001"
         d="M 0,0 H 2.5"
         id="polyline162" />
      <!-- <polyline points="0,0 2.5,0" stroke-width="0.3" stroke="#333" transform="rotate(-40) translate(12 0)" /> -->
      <path
         transform="rotate(-20,-5,-28.356409)"
         style="stroke:#333333;stroke-width:0.30000001"
         d="M 0,0 H 2.5"
         id="polyline164" />
      <!-- <polyline points="0,0 2.5,0" stroke-width="0.3" stroke="#333" transform="rotate(0) translate(12 0)" /> -->
      <path
         transform="rotate(20,-5,28.356409)"
         style="stroke:#333333;stroke-width:0.30000001"
         d="M 0,0 H 2.5"
         id="polyline166" />
      <!-- <polyline points="0,0 2.5,0" stroke-width="0.3" stroke="#333" transform="rotate(40) translate(12 0)" /> -->
      <path
         transform="rotate(60,-5,8.660254)"
         style="stroke:#333333;stroke-width:0.30000001"
         d="M 0,0 H 2.5"
         id="polyline168" />
    </g>
  </g>
  <g
     id="g96"
     transform="translate(5.5,70)">
    <path
       style="fill:#fafafa"
       d="m 5,0 h 24 c 2.77,0 5,2.23 5,5 v 64 c 0,2.77 -2.23,5 -5,5 H 5 C 2.23,74 0,71.77 0,69 V 5 C 0,2.23 2.23,0 5,0 Z"
       id="rect88" />
    <path
       transform="translate(0,64)"
       style="fill:#fafafa"
       d="M 0,0 H 34 V 10 H 0 Z"
       id="rect90" />
    <g
       aria-label="CHAN"
       transform="translate(6,35)"
       style="font-weight:bold;font-size:6.66666651px;font-family:Roboto, sans-serif;letter-spacing:1px;fill:#333333"
       id="text92">
      <path
         d="m 4.1438801,-1.578776 q -0.055338,0.76497394 -0.5664062,1.20442705 -0.5078125,0.43945312 -1.3411458,0.43945312 -0.9114583,0 -1.43554687,-0.61197916 Q 0.27994791,-1.1621093 0.27994791,-2.2330729 v -0.2897135 q 0,-0.6835937 0.24088541,-1.2044271 0.24088541,-0.5208333 0.68684898,-0.797526 0.4492187,-0.2799479 1.0416666,-0.2799479 0.8203125,0 1.3216146,0.4394531 0.501302,0.4394531 0.579427,1.233724 H 3.173828 q -0.035807,-0.4589844 -0.2571614,-0.6640625 -0.218099,-0.2083334 -0.6673177,-0.2083334 -0.4882812,0 -0.7324219,0.3515625 -0.2408854,0.3483073 -0.2473958,1.0839844 v 0.3580729 q 0,0.7682291 0.2311198,1.1230468 0.234375,0.35481774 0.7356771,0.35481774 0.4524739,0 0.6738281,-0.20507812 Q 3.1347656,-1.1458333 3.1673176,-1.578776 Z"
         style="font-weight:bold;font-size:6.66666651px;font-family:Roboto, sans-serif;letter-spacing:1px;fill:#333333"
         id="path248" />
      <path
         d="M 9.6425779,0 H 8.6660154 V -2.03125 H 6.7617186 V 0 H 5.7851561 v -4.7395832 h 0.9765625 v 1.9205729 h 1.9042968 v -1.9205729 h 0.9765625 z"
         style="font-weight:bold;font-size:6.66666651px;font-family:Roboto, sans-serif;letter-spacing:1px;fill:#333333"
         id="path250" />
      <path
         d="M 14.239583,-0.97656248 H 12.527344 L 12.201823,0 h -1.038412 l 1.764323,-4.7395832 h 0.904948 L 15.606771,0 H 14.568359 Z M 12.791016,-1.7675781 h 1.184895 l -0.595703,-1.7740885 z"
         style="font-weight:bold;font-size:6.66666651px;font-family:Roboto, sans-serif;letter-spacing:1px;fill:#333333"
         id="path252" />
      <path
         d="M 20.910156,0 H 19.933594 L 18.032552,-3.1184895 V 0 H 17.05599 v -4.7395832 h 0.976562 l 1.904297,3.1249999 v -3.1249999 h 0.973307 z"
         style="font-weight:bold;font-size:6.66666651px;font-family:Roboto, sans-serif;letter-spacing:1px;fill:#333333"
         id="path254" />
    </g>
    <g
       aria-label="IN"
       transform="translate(12.5,71)"
       style="font-weight:bold;font-size:6.66666651px;font-family:Roboto, sans-serif;letter-spacing:2px;fill:#333333"
       id="text94">
      <path
         d="M 1.4615885,0 H 0.48502603 V -4.7395832 H 1.4615885 Z"
         style="font-weight:bold;font-size:6.66666651px;font-family:Roboto, sans-serif;letter-spacing:2px;fill:#333333"
         id="path257" />
      <path
         d="M 8.2174477,0 H 7.2408852 L 5.3398436,-3.1184895 V 0 H 4.3632811 v -4.7395832 h 0.9765625 l 1.9042968,3.1249999 v -3.1249999 h 0.9733073 z"
         style="font-weight:bold;font-size:6.66666651px;font-family:Roboto, sans-serif;letter-spacing:2px;fill:#333333"
         id="path259" />
    </g>
  </g>
  <g
     id="g110"
     transform="translate(5.5,147)">
    <path
       transform="translate(0,-3)"
       style="fill:#bbbbbb"
       d="M 0,0 H 34 V 10 H 0 Z"
       id="rect98" />
    <path
       style="fill:#bbbbbb"
       d="m 5,0 h 24 c 2.77,0 5,2.23 5,5 v 130 c 0,2.77 -2.23,5 -5,5 H 5 c -2.77,0 -5,-2.23 -5,-5 V 5 C 0,2.23 2.23,0 5,0 Z"
       id="rect100" />
    <g
       aria-label="OUT"
       transform="translate(8.3,32)"
       style="font-weight:bold;font-size:6.66666651px;font-family:Roboto, sans-serif;letter-spacing:2px;fill:#333333"
       id="text102">
      <path
         d="m 4.3164061,-2.2623697 q 0,0.6998697 -0.2473958,1.2272135 -0.2473958,0.52734371 -0.7096354,0.81380204 -0.4589843,0.28645833 -1.0546875,0.28645833 -0.5891926,0 -1.0514322,-0.28320312 Q 0.79101561,-0.50130207 0.53710936,-1.0253906 0.28320312,-1.5527343 0.27994791,-2.2363281 v -0.234375 q 0,-0.6998697 0.25065104,-1.2304687 0.25390624,-0.5338541 0.71289065,-0.8170573 0.4622395,-0.2864583 1.0546874,-0.2864583 0.5924479,0 1.0514323,0.2864583 0.4622396,0.2832032 0.7128906,0.8170573 0.2539062,0.530599 0.2539062,1.2272135 z M 3.3268228,-2.4772135 q 0,-0.7454427 -0.266927,-1.1328125 -0.2669271,-0.3873697 -0.7617188,-0.3873697 -0.4915364,0 -0.7584635,0.3841145 -0.2669271,0.3808594 -0.2701823,1.1197917 v 0.2311198 q 0,0.7259114 0.2669271,1.126302 0.2669271,0.40039063 0.7682291,0.40039063 0.4915365,0 0.7552084,-0.38411453 0.2636718,-0.3873698 0.266927,-1.1263021 z"
         style="font-weight:bold;font-size:6.66666651px;font-family:Roboto, sans-serif;letter-spacing:2px;fill:#333333"
         id="path264" />
      <path
         d="m 10.619792,-4.7395832 v 3.1217447 q 0,0.77799477 -0.488282,1.23046872 -0.4850257,0.45247395 -1.3281246,0.45247395 -0.8300781,0 -1.3183594,-0.43945312 Q 6.9967448,-0.81380206 6.9869792,-1.5820312 v -3.157552 h 0.9765624 v 3.1282551 q 0,0.4654948 0.2213542,0.68033854 0.2246094,0.21158854 0.6184896,0.21158854 0.8235677,0 0.8365885,-0.86588538 v -3.1542968 z"
         style="font-weight:bold;font-size:6.66666651px;font-family:Roboto, sans-serif;letter-spacing:2px;fill:#333333"
         id="path266" />
      <path
         d="M 16.988281,-3.9485676 H 15.536458 V 0 h -0.976563 v -3.9485676 h -1.432291 v -0.7910156 h 3.860677 z"
         style="font-weight:bold;font-size:6.66666651px;font-family:Roboto, sans-serif;letter-spacing:2px;fill:#333333"
         id="path268" />
    </g>
    <g
       aria-label="OUT"
       transform="translate(8.3,67)"
       style="font-weight:bold;font-size:6.66666651px;font-family:Roboto, sans-serif;letter-spacing:2px;fill:#333333"
       id="text104">
      <path
         d="m 4.3164061,-2.2623697 q 0,0.6998697 -0.2473958,1.2272135 -0.2473958,0.52734371 -0.7096354,0.81380204 -0.4589843,0.28645833 -1.0546875,0.28645833 -0.5891926,0 -1.0514322,-0.28320312 Q 0.79101561,-0.50130207 0.53710936,-1.0253906 0.28320312,-1.5527343 0.27994791,-2.2363281 v -0.234375 q 0,-0.6998697 0.25065104,-1.2304687 0.25390624,-0.5338541 0.71289065,-0.8170573 0.4622395,-0.2864583 1.0546874,-0.2864583 0.5924479,0 1.0514323,0.2864583 0.4622396,0.2832032 0.7128906,0.8170573 0.2539062,0.530599 0.2539062,1.2272135 z M 3.3268228,-2.4772135 q 0,-0.7454427 -0.266927,-1.1328125 -0.2669271,-0.3873697 -0.7617188,-0.3873697 -0.4915364,0 -0.7584635,0.3841145 -0.2669271,0.3808594 -0.2701823,1.1197917 v 0.2311198 q 0,0.7259114 0.2669271,1.126302 0.2669271,0.40039063 0.7682291,0.40039063 0.4915365,0 0.7552084,-0.38411453 0.2636718,-0.3873698 0.266927,-1.1263021 z"
         style="font-weight:bold;font-size:6.66666651px;font-family:Roboto, sans-serif;letter-spacing:2px;fill:#333333"
         id="path271" />
      <path
         d="m 10.619792,-4.7395832 v 3.1217447 q 0,0.77799477 -0.488282,1.23046872 -0.4850257,0.45247395 -1.3281246,0.45247395 -0.8300781,0 -1.3183594,-0.43945312 Q 6.9967448,-0.81380206 6.9869792,-1.5820312 v -3.157552 h 0.9765624 v 3.1282551 q 0,0.4654948 0.2213542,0.68033854 0.2246094,0.21158854 0.6184896,0.21158854 0.8235677,0 0.8365885,-0.86588538 v -3.1542968 z"
         style="font-weight:bold;font-size:6.66666651px;font-family:Roboto, sans-serif;letter-spacing:2px;fill:#333333"
         id="path273" />
      <path
         d="M 16.988281,-3.9485676 H 15.536458 V 0 h -0.976563 v -3.9485676 h -1.432291 v -0.7910156 h 3.860677 z"
         style="font-weight:bold;font-size:6.66666651px;font-family:Roboto, sans-serif;letter-spacing:2px;fill:#333333"
         id="path275" />
    </g>
    <g
       aria-label="OUT"
       transform="translate(8.3,102)"
       style="font-weight:bold;font-size:6.66666651px;font-family:Roboto, sans-serif;letter-spacing:2px;fill:#333333"
       id="text106">
      <path
         d="m 4.3164061,-2.2623697 q 0,0.6998697 -0.2473958,1.2272135 -0.2473958,0.52734371 -0.7096354,0.81380204 -0.4589843,0.28645833 -1.0546875,0.28645833 -0.5891926,0 -1.0514322,-0.28320312 Q 0.79101561,-0.50130207 0.53710936,-1.0253906 0.28320312,-1.5527343 0.27994791,-2.2363281 v -0.234375 q 0,-0.6998697 0.25065104,-1.2304687 0.25390624,-0.5338541 0.71289065,-0.8170573 0.4622395,-0.2864583 1.0546874,-0.2864583 0.5924479,0 1.0514323,0.2864583 0.4622396,0.2832032 0.7128906,0.8170573 0.2539062,0.530599 0.2539062,1.2272135 z M 3.3268228,-2.4772135 q 0,-0.7454427 -0.266927,-1.1328125 -0.2669271,-0.3873697 -0.7617188,-0.3873697 -0.4915364,0 -0.7584635,0.3841145 -0.2669271,0.3808594 -0.2701823,1.1197917 v 0.2311198 q 0,0.7259114 0.2669271,1.126302 0.2669271,0.40039063 0.7682291,0.40039063 0.4915365,0 0.7552084,-0.38411453 0.2636718,-0.3873698 0.266927,-1.1263021 z"
         style="font-weight:bold;font-size:6.66666651px;font-family:Roboto, sans-serif;letter-spacing:2px;fill:#333333"
         id="path278" />
      <path
         d="m 10.619792,-4.7395832 v 3.1217447 q 0,0.77799477 -0.488282,1.23046872 -0.4850257,0.45247395 -1.3281246,0.45247395 -0.8300781,0 -1.3183594,-0.43945312 Q 6.9967448,-0.81380206 6.9869792,-1.5820312 v -3.157552 h 0.9765624 v 3.1282551 q 0,0.4654948 0.2213542,0.68033854 0.2246094,0.21158854 0.6184896,0.21158854 0.8235677,0 0.8365885,-0.86588538 v -3.1542968 z"
         style="font-weight:bold;font-size:6.66666651px;font-family:Roboto, sans-serif;letter-spacing:2px;fill:#333333"
         id="path280" />
      <path
         d="M 16.988281,-3.9485676 H 15.536458 V 0 h -0.976563 v -3.9485676 h -1.432291 v -0.7910156 h 3.860677 z"
         style="font-weight:bold;font-size:6.66666651px;font-family:Roboto, sans-serif;letter-spacing:2px;fill:#333333"
         id="path282" />
    </g>
    <g
       aria-label="OUT"
       transform="translate(8.3,137)"
       style="font-weight:bold;font-size:6.66666651px;font-family:Roboto, sans-serif;letter-spacing:2px;fill:#333333"
       id="text108">
      <path
         d="m 4.3164061,-2.2623697 q 0,0.6998697 -0.2473958,1.2272135 -0.2473958,0.52734371 -0.7096354,0.81380204 -0.4589843,0.28645833 -1.0546875,0.28645833 -0.5891926,0 -1.0514322,-0.28320312 Q 0.79101561,-0.50130207 0.53710936,-1.0253906 0.28320312,-1.5527343 0.27994791,-2.2363281 v -0.234375 q 0,-0.6998697 0.25065104,-1.2304687 0.25390624,-0.5338541 0.71289065,-0.8170573 0.4622395,-0.2864583 1.0546874,-0.2864583 0.5924479,0 1.0514323,0.2864583 0.4622396,0.2832032 0.7128906,0.8170573 0.2539062,0.530599 0.2539062,1.2272135 z M 3.3268228,-2.4772135 q 0,-0.7454427 -0.266927,-1.1328125 -0.2669271,-0.3873697 -0.7617188,-0.3873697 -0.4915364,0 -0.7584635,0.3841145 -0.2669271,0.3808594 -0.2701823,1.1197917 v 0.2311198 q 0,0.7259114 0.2669271,1.126302 0.2669271,0.40039063 0.7682291,0.40039063 0.4915365,0 0.7552084,-0.38411453 0.2636718,-0.3873698 0.266927,-1.1263021 z"
         style="font-weight:bold;font-size:6.66666651px;font-family:Roboto, sans-serif;letter-spacing:2px;fill:#333333"
         id="path285" />
      <path
         d="m 10.619792,-4.7395832 v 3.1217447 q 0,0.77799477 -0.488282,1.23046872 -0.4850257,0.45247395 -1.3281246,0.45247395 -0.8300781,0 -1.3183594,-0.43945312 Q 6.9967448,-0.81380206 6.9869792,-1.5820312 v -3.157552 h 0.9765624 v 3.1282551 q 0,0.4654948 0.2213542,0.68033854 0.2246094,0.21158854 0.6184896,0.21158854 0.8235677,0 0.8365885,-0.86588538 v -3.1542968 z"
         style="font-weight:bold;font-size:6.66666651px;font-family:Roboto, sans-serif;letter-spacing:2px;fill:#333333"
         id="path287" />
      <path
         d="M 16.988281,-3.9485676 H 15.536458 V 0 h -0.976563 v -3.9485676 h -1.432291 v -0.7910156 h 3.860677 z"
         style="font-weight:bold;font-size:6.66666651px;font-family:Roboto, sans-serif;letter-spacing:2px;fill:#333333"
         id="path289" />
    </g>
  </g>
</svg>
