<?xml version="1.0" encoding="UTF-8" standalone="no"?>
<svg
   xmlns:dc="http://purl.org/dc/elements/1.1/"
   xmlns:cc="http://creativecommons.org/ns#"
   xmlns:rdf="http://www.w3.org/1999/02/22-rdf-syntax-ns#"
   xmlns:svg="http://www.w3.org/2000/svg"
   xmlns="http://www.w3.org/2000/svg"
   xmlns:sodipodi="http://sodipodi.sourceforge.net/DTD/sodipodi-0.dtd"
   xmlns:inkscape="http://www.inkscape.org/namespaces/inkscape"
   version="1.1"
   width="120"
   height="380"
   viewBox="0 0 120 380"
   id="svg219"
   sodipodi:docname="svg_render_tmp.svg"
   inkscape:version="0.92.2 5c3e80d, 2017-08-06">
  <metadata
     id="metadata223">
    <rdf:RDF>
      <cc:Work
         rdf:about="">
        <dc:format>image/svg+xml</dc:format>
        <dc:type
           rdf:resource="http://purl.org/dc/dcmitype/StillImage" />
      </cc:Work>
    </rdf:RDF>
  </metadata>
  <sodipodi:namedview
     pagecolor="#ffffff"
     bordercolor="#666666"
     borderopacity="1"
     objecttolerance="10"
     gridtolerance="10"
     guidetolerance="10"
     inkscape:pageopacity="0"
     inkscape:pageshadow="2"
     inkscape:window-width="468"
     inkscape:window-height="449"
     id="namedview221"
     showgrid="false"
     inkscape:zoom="0.62105263"
     inkscape:cx="60"
     inkscape:cy="190"
     inkscape:window-x="0"
     inkscape:window-y="0"
     inkscape:window-maximized="0"
     inkscape:current-layer="svg219" />
  <style
     id="style2">
    text {
      fill: #333;
      font-family: 'Roboto', sans-serif;
      font-weight: bold;
    }
    text.title {
      font-family: 'Comfortaa', sans-serif;
      font-weight: normal;
    }
    text.brand {
      font-family: 'Audiowide', sans-serif;
      font-weight: bold;
    }
  </style>
  <defs
     id="defs87">
    <symbol
       id="knob-smallest"
       viewBox="0 0 16px 16px">
      <g
         transform="translate(8 8)"
         id="g10">
        <polyline
           points="-3,0 3,0"
           stroke-width="1"
           stroke="#00f"
           id="polyline4" />
        <polyline
           points="0,-3 0,3"
           stroke-width="1"
           stroke="#00f"
           id="polyline6" />
        <circle
           r="7.5"
           stroke-width="1"
           stroke="#00f"
           fill="none"
           id="circle8" />
      </g>
    </symbol>
    <symbol
       id="knobguide-channels"
       viewBox="0 0 40px 40px">
      <g
         transform="translate(20 20)"
         id="g45">
        <text
           font-size="5pt"
           transform="rotate(-240) translate(14 0) rotate(240) translate(-2 2)"
           id="text13">1</text>
        <text
           font-size="5pt"
           transform="rotate(-180) translate(14 0) rotate(180) translate(-2 2)"
           id="text15">4</text>
        <text
           font-size="5pt"
           transform="rotate(-100) translate(14 0) rotate(100) translate(-2 2)"
           id="text17">8</text>
        <text
           font-size="5pt"
           transform="rotate(-20) translate(13 0) rotate(20) translate(-2 2)"
           id="text19">12</text>
        <text
           font-size="5pt"
           transform="rotate(60) translate(13 0) rotate(-60) translate(-1.8 3)"
           id="text21">16</text>
        <polyline
           points="0,0 2.5,0"
           stroke-width="0.3"
           stroke="#333"
           transform="rotate(-220) translate(10 0)"
           id="polyline23" />
        <polyline
           points="0,0 2.5,0"
           stroke-width="0.3"
           stroke="#333"
           transform="rotate(-200) translate(10 0)"
           id="polyline25" />
        <polyline
           points="0,0 2.5,0"
           stroke-width="0.3"
           stroke="#333"
           transform="rotate(-160) translate(10 0)"
           id="polyline27" />
        <polyline
           points="0,0 2.5,0"
           stroke-width="0.3"
           stroke="#333"
           transform="rotate(-140) translate(10 0)"
           id="polyline29" />
        <polyline
           points="0,0 2.5,0"
           stroke-width="0.3"
           stroke="#333"
           transform="rotate(-120) translate(10 0)"
           id="polyline31" />
        <polyline
           points="0,0 2.5,0"
           stroke-width="0.3"
           stroke="#333"
           transform="rotate(-80) translate(10 0)"
           id="polyline33" />
        <polyline
           points="0,0 2.5,0"
           stroke-width="0.3"
           stroke="#333"
           transform="rotate(-60) translate(10 0)"
           id="polyline35" />
        <polyline
           points="0,0 2.5,0"
           stroke-width="0.3"
           stroke="#333"
           transform="rotate(-40) translate(10 0)"
           id="polyline37" />
        <polyline
           points="0,0 2.5,0"
           stroke-width="0.3"
           stroke="#333"
           transform="rotate(0) translate(10 0)"
           id="polyline39" />
        <polyline
           points="0,0 2.5,0"
           stroke-width="0.3"
           stroke="#333"
           transform="rotate(20) translate(10 0)"
           id="polyline41" />
        <polyline
           points="0,0 2.5,0"
           stroke-width="0.3"
           stroke="#333"
           transform="rotate(40) translate(10 0)"
           id="polyline43" />
      </g>
    </symbol>
    <symbol
       id="knob19"
       viewBox="0 0 20px 20px">
      <g
         transform="translate(10 10)"
         id="g54">
        <polyline
           points="-3,0 3,0"
           stroke-width="1"
           stroke="#00f"
           id="polyline48" />
        <polyline
           points="0,-3 0,3"
           stroke-width="1"
           stroke="#00f"
           id="polyline50" />
        <circle
           cx="0"
           cy="0"
           r="9.3"
           stroke-width="1"
           stroke="#00f"
           fill="none"
           id="circle52" />
      </g>
    </symbol>
    <symbol
       id="knobguide-centertick19"
       viewBox="0 0 40px 40px">
      <g
         transform="translate(20 20)"
         id="g67">
        <polyline
           points="0,0 4,0"
           stroke-width="1"
           stroke="#333"
           transform="rotate(-90) translate(11.5 0)"
           id="polyline57" />
        <path
           d="M 0 -13.5 A 13.5 13.5 0 0 1 13.5 0"
           stroke="#333"
           stroke-width="0.5"
           stroke-linecap="round"
           fill="none"
           transform="rotate(20)"
           id="path59" />
        <path
           d="M 0 -13.5 A 13.5 13.5 0 0 1 13.5 0"
           stroke="#333"
           stroke-width="0.5"
           stroke-linecap="round"
           fill="none"
           transform="rotate(43)"
           id="path61" />
        <path
           d="M 0 -13.5 A 13.5 13.5 0 0 0 -13.5 0"
           stroke="#333"
           stroke-width="0.5"
           stroke-linecap="round"
           fill="none"
           transform="rotate(-20)"
           id="path63" />
        <path
           d="M 0 -13.5 A 13.5 13.5 0 0 0 -13.5 0"
           stroke="#333"
           stroke-width="0.5"
           stroke-linecap="round"
           fill="none"
           transform="rotate(-43)"
           id="path65" />
      </g>
    </symbol>
    <symbol
       id="input"
       viewBox="0 0 24px 24px">
      <g
         transform="translate(12 12)"
         id="g74">
        <circle
           cx="0"
           cy="0"
           r="5"
           stroke-width="1"
           stroke="#0f0"
           fill="#0f0"
           id="circle70" />
        <circle
           cx="0"
           cy="0"
           r="10.5"
           stroke-width="3"
           stroke="#0f0"
           fill="none"
           id="circle72" />
      </g>
    </symbol>
    <symbol
       id="output"
       viewBox="0 0 24px 24px">
      <g
         transform="translate(12 12)"
         id="g81">
        <circle
           cx="0"
           cy="0"
           r="5"
           stroke-width="1"
           stroke="#f00"
           fill="#f00"
           id="circle77" />
        <circle
           cx="0"
           cy="0"
           r="10.5"
           stroke-width="3"
           stroke="#f00"
           fill="none"
           id="circle79" />
      </g>
    </symbol>
    <symbol
       id="light-tiny"
       viewBox="0 0 1.1px 1.1px">
      <rect
         width="3.2"
         height="3.2"
         fill="#0f0"
         id="rect84" />
    </symbol>
  </defs>
  <path
     style="fill:#dddddd"
     d="M 0,0 H 120 V 380 H 0 Z"
     id="rect89" />
  <path
     style="fill:none;stroke:#e4e4e4;stroke-width:0.5"
     d="M 1,1 H 119 V 379 H 1 V 1"
     id="polyline91" />
  <path
     style="fill:none;stroke:#ebebeb;stroke-width:0.80000001"
     d="m 0.5,0.5 h 119 v 379 H 0.5 V 0.5"
     id="polyline93" />
  <path
     style="fill:none;stroke:#f2f2f2;stroke-width:1"
     d="M 0,0 H 120 V 380 H 0 V 0"
     id="polyline95" />
  <g
     aria-label="POLYCON"
     style="font-weight:normal;font-size:12px;font-family:Comfortaa, sans-serif;letter-spacing:2px;fill:#333333"
     id="text97">
    <path
       d="M 41.668,17 Q 41.464,17 41.332,16.868 41.2,16.736 41.2,16.532 V 8.096 q 0,-0.204 0.132,-0.336 0.132,-0.132 0.336,-0.132 h 2.4 q 0.876,0 1.56,0.396 0.696,0.384 1.08,1.08 0.384,0.684 0.384,1.572 0,0.876 -0.384,1.56 -0.384,0.684 -1.08,1.068 -0.684,0.384 -1.56,0.384 h -1.932 v 2.844 q 0,0.204 -0.132,0.336 Q 41.872,17 41.668,17 Z m 2.4,-4.212 q 0.612,0 1.092,-0.264 0.48,-0.276 0.744,-0.756 0.276,-0.48 0.276,-1.092 0,-0.624 -0.276,-1.104 Q 45.64,9.08 45.16,8.804 44.68,8.528 44.068,8.528 h -1.932 v 4.26 z"
       style="font-weight:normal;font-size:12px;font-family:Comfortaa, sans-serif;letter-spacing:2px;fill:#333333"
       id="path608" />
    <path
       d="m 54.867937,17.12 q -1.367999,0 -2.459999,-0.624 -1.092001,-0.624 -1.716,-1.716 -0.612001,-1.104 -0.612001,-2.472 0,-1.368 0.612001,-2.46 0.623999,-1.092 1.716,-1.716 1.092,-0.624 2.459999,-0.624 1.356,0 2.448001,0.624 1.104,0.624 1.715999,1.716 0.624,1.092 0.624,2.46 0,1.368 -0.624,2.472 -0.611999,1.092 -1.715999,1.716 -1.092001,0.624 -2.448001,0.624 z m 0,-0.888 q 1.092001,0 1.968,-0.516 0.888001,-0.516 1.392,-1.404 0.504,-0.9 0.504,-2.004 0,-1.092 -0.504,-1.98 -0.503999,-0.9 -1.392,-1.416 -0.875999,-0.516 -1.968,-0.516 -1.104,0 -1.992,0.516 -0.875999,0.516 -1.38,1.416 -0.504,0.888 -0.504,1.98 0,1.104 0.504,2.004 0.504001,0.888 1.38,1.404 0.888,0.516 1.992,0.516 z"
       style="font-weight:normal;font-size:12px;font-family:Comfortaa, sans-serif;letter-spacing:2px;fill:#333333"
       id="path610" />
    <path
       d="m 64.066438,17 q -0.192001,0 -0.336001,-0.132 -0.131999,-0.144 -0.131999,-0.336 V 8.096 q 0,-0.192 0.131999,-0.324 0.144,-0.144 0.336001,-0.144 0.203999,0 0.336,0.132 0.131999,0.132 0.131999,0.336 v 8.016 h 4.692001 q 0.203999,0 0.336,0.132 0.131999,0.12 0.131999,0.312 0,0.192 -0.131999,0.324 -0.132001,0.12 -0.336,0.12 z"
       style="font-weight:normal;font-size:12px;font-family:Comfortaa, sans-serif;letter-spacing:2px;fill:#333333"
       id="path612" />
    <path
       d="m 77.729875,7.628 q 0.18,0 0.288,0.132 0.12,0.12 0.12,0.3 0,0.168 -0.084,0.3 l -3.276,5.172 v 3 q 0,0.192 -0.132,0.336 -0.132,0.132 -0.336,0.132 -0.192,0 -0.336,-0.132 -0.132,-0.144 -0.132,-0.336 v -3 l -3.264,-5.172 q -0.096,-0.156 -0.096,-0.3 0,-0.18 0.132,-0.3 0.132,-0.132 0.324,-0.132 0.132,0 0.216,0.06 0.096,0.048 0.18,0.168 l 2.988,4.812 2.976,-4.788 q 0.096,-0.132 0.192,-0.192 0.096,-0.06 0.24,-0.06 z"
       style="font-weight:normal;font-size:12px;font-family:Comfortaa, sans-serif;letter-spacing:2px;fill:#333333"
       id="path614" />
    <path
       d="m 85.00575,17.12 q -1.272,0 -2.34,-0.648 -1.068,-0.648 -1.704,-1.752 -0.624,-1.104 -0.624,-2.412 0,-1.296 0.624,-2.4 0.624,-1.104 1.692,-1.752 1.068,-0.648 2.352,-0.648 0.864,0 1.572,0.252 0.708,0.252 1.368,0.804 0.132,0.096 0.132,0.276 0,0.096 -0.048,0.18 -0.048,0.072 -0.132,0.108 -0.024,0.084 -0.108,0.132 -0.084,0.048 -0.18,0.048 -0.18,0 -0.3,-0.108 -0.468,-0.42 -1.02,-0.612 -0.552,-0.192 -1.284,-0.192 -1.008,0 -1.872,0.54 -0.864,0.528 -1.38,1.428 -0.504,0.9 -0.504,1.944 0,1.068 0.504,1.968 0.504,0.9 1.368,1.428 0.864,0.528 1.884,0.528 1.308,0 2.364,-0.84 0.132,-0.096 0.264,-0.096 0.18,0 0.312,0.132 0.132,0.12 0.132,0.324 0,0.192 -0.132,0.336 -1.128,1.032 -2.94,1.032 z"
       style="font-weight:normal;font-size:12px;font-family:Comfortaa, sans-serif;letter-spacing:2px;fill:#333333"
       id="path616" />
    <path
       d="m 96.383562,17.12 q -1.367999,0 -2.459999,-0.624 -1.092,-0.624 -1.716001,-1.716 -0.612,-1.104 -0.612,-2.472 0,-1.368 0.612,-2.46 0.624001,-1.092 1.716001,-1.716 1.092,-0.624 2.459999,-0.624 1.356001,0 2.448001,0.624 1.104,0.624 1.715997,1.716 0.624,1.092 0.624,2.46 0,1.368 -0.624,2.472 -0.611997,1.092 -1.715997,1.716 -1.092,0.624 -2.448001,0.624 z m 0,-0.888 q 1.092,0 1.968,-0.516 0.888001,-0.516 1.392,-1.404 0.503998,-0.9 0.503998,-2.004 0,-1.092 -0.503998,-1.98 -0.503999,-0.9 -1.392,-1.416 -0.876,-0.516 -1.968,-0.516 -1.104,0 -1.991999,0.516 -0.876,0.516 -1.380001,1.416 -0.503999,0.888 -0.503999,1.98 0,1.104 0.503999,2.004 0.504001,0.888 1.380001,1.404 0.887999,0.516 1.991999,0.516 z"
       style="font-weight:normal;font-size:12px;font-family:Comfortaa, sans-serif;letter-spacing:2px;fill:#333333"
       id="path618" />
    <path
       d="m 105.58206,17 q -0.204,0 -0.336,-0.132 -0.132,-0.132 -0.132,-0.336 V 8.096 q 0,-0.204 0.132,-0.336 0.132,-0.132 0.336,-0.132 0.216,0 0.36,0.168 l 5.736,7.536 V 8.096 q 0,-0.204 0.132,-0.336 0.144,-0.132 0.336,-0.132 0.204,0 0.336,0.132 0.132,0.132 0.132,0.336 v 8.436 q 0,0.192 -0.132,0.336 -0.132,0.132 -0.336,0.132 -0.24,0 -0.348,-0.156 l -5.748,-7.536 v 7.224 q 0,0.192 -0.132,0.336 -0.132,0.132 -0.336,0.132 z"
       style="font-weight:normal;font-size:12px;font-family:Comfortaa, sans-serif;letter-spacing:2px;fill:#333333"
       id="path620" />
  </g>
  <g
     aria-label="BOGAUDIO"
     style="font-weight:bold;font-size:8.66666698px;font-family:Audiowide, sans-serif;letter-spacing:2px;fill:#333333"
     id="text99">
    <path
       d="m 12.194662,372.66699 q 0,0.20313 -0.07194,0.43587 -0.06771,0.23275 -0.228516,0.43165 -0.156576,0.19889 -0.410482,0.33431 Q 11.229818,374 10.861654,374 H 6.6848959 q -0.1184896,0 -0.2200521,-0.0423 -0.1015625,-0.0423 -0.1777344,-0.11426 -0.07194,-0.0762 -0.1142578,-0.17773 -0.042318,-0.10156 -0.042318,-0.22005 V 368.486 q 0,-0.11426 0.042318,-0.21582 0.042318,-0.10156 0.1142578,-0.17773 0.076172,-0.0762 0.1777344,-0.11849 0.1015625,-0.0423 0.2200521,-0.0423 h 3.6816411 q 0.203125,0 0.435872,0.0719 0.232747,0.0719 0.431641,0.23275 0.203125,0.15657 0.33431,0.41048 0.135416,0.25391 0.135416,0.62207 v 0.20736 q 0,0.29199 -0.09733,0.63053 -0.09733,0.33431 -0.313152,0.63477 0.186198,0.11425 0.347006,0.27506 0.165039,0.16081 0.28776,0.3724 0.122721,0.21159 0.194662,0.47819 0.07194,0.2666 0.07194,0.58821 z m -1.100261,-0.21159 q 0,-0.21582 -0.06771,-0.38509 -0.06771,-0.1735 -0.19043,-0.29622 -0.122721,-0.12272 -0.296224,-0.1862 -0.173502,-0.0677 -0.389323,-0.0677 H 7.6708985 v -1.10872 h 1.9847006 q 0.2158203,0 0.3893229,-0.0635 0.173503,-0.0677 0.296224,-0.19043 0.122721,-0.12272 0.186198,-0.29199 0.06771,-0.1735 0.06771,-0.38932 v -0.20736 q 0,-0.23698 -0.228515,-0.23698 H 7.2307943 v 3.86784 h 3.6308597 q 0.02962,0 0.07194,-0.004 0.04232,-0.004 0.07617,-0.0254 0.03385,-0.0212 0.05924,-0.0719 0.02539,-0.0508 0.02539,-0.13965 z"
       style="font-weight:bold;font-size:8.66666698px;font-family:Audiowide, sans-serif;letter-spacing:2px;fill:#333333"
       id="path623" />
    <path
       d="m 21.515625,371.54557 q 0,0.55436 -0.190429,1.01986 -0.19043,0.46549 -0.528972,0.80404 -0.338541,0.33854 -0.804036,0.52897 -0.461263,0.1862 -1.007162,0.1862 h -1.489583 q -0.545899,0 -1.011393,-0.1862 -0.465495,-0.19043 -0.804037,-0.52897 -0.338542,-0.33855 -0.533203,-0.80404 -0.19043,-0.4655 -0.19043,-1.01986 v -1.1595 q 0,-0.55013 0.19043,-1.01563 0.194661,-0.46972 0.533203,-0.80403 0.338542,-0.33855 0.804037,-0.52898 0.465494,-0.19043 1.011393,-0.19043 h 1.489583 q 0.545899,0 1.007162,0.19043 0.465495,0.19043 0.804036,0.52898 0.338542,0.33431 0.528972,0.80403 0.190429,0.4655 0.190429,1.01563 z m -1.10026,-1.1595 q 0,-0.32585 -0.105794,-0.58822 -0.101563,-0.2666 -0.291993,-0.4528 -0.186198,-0.19043 -0.452799,-0.29199 -0.26237,-0.10579 -0.579753,-0.10579 h -1.489583 q -0.321615,0 -0.588216,0.10579 -0.26237,0.10156 -0.4528,0.29199 -0.19043,0.1862 -0.296224,0.4528 -0.101562,0.26237 -0.101562,0.58822 v 1.1595 q 0,0.32585 0.101562,0.59245 0.105794,0.26237 0.296224,0.4528 0.19043,0.1862 0.4528,0.29199 0.266601,0.10156 0.588216,0.10156 h 1.48112 q 0.321614,0 0.583984,-0.10156 0.266602,-0.10579 0.457031,-0.29199 0.19043,-0.19043 0.291993,-0.4528 0.105794,-0.2666 0.105794,-0.59245 z"
       style="font-weight:bold;font-size:8.66666698px;font-family:Audiowide, sans-serif;letter-spacing:2px;fill:#333333"
       id="path625" />
    <path
       d="m 30.59961,373.44564 q 0,0.11849 -0.04232,0.22005 -0.04232,0.10156 -0.11849,0.17773 -0.07194,0.0719 -0.173502,0.11426 Q 30.163737,374 30.045248,374 h -3.969402 q -0.152343,0 -0.330078,-0.0338 -0.173502,-0.0381 -0.347005,-0.11426 -0.169271,-0.0762 -0.325846,-0.19466 -0.156576,-0.12272 -0.279297,-0.292 -0.11849,-0.1735 -0.19043,-0.39778 -0.07194,-0.22852 -0.07194,-0.51205 v -2.97916 q 0,-0.15235 0.03385,-0.32585 0.03809,-0.17773 0.114258,-0.347 0.07617,-0.17351 0.198893,-0.33008 0.122722,-0.15658 0.291992,-0.27507 0.173503,-0.12272 0.397787,-0.19466 0.224284,-0.0719 0.507812,-0.0719 h 4.472982 v 1.10026 h -4.472982 q -0.21582,0 -0.330078,0.11426 -0.114258,0.11426 -0.114258,0.33854 v 2.9707 q 0,0.21159 0.114258,0.33008 0.11849,0.11426 0.330078,0.11426 h 3.423503 v -1.37956 h -2.928385 v -1.10872 h 3.474284 q 0.118489,0 0.220052,0.0466 0.101562,0.0423 0.173502,0.11849 0.07617,0.0762 0.11849,0.17773 0.04232,0.0973 0.04232,0.21159 z"
       style="font-weight:bold;font-size:8.66666698px;font-family:Audiowide, sans-serif;letter-spacing:2px;fill:#333333"
       id="path627" />
    <path
       d="m 39.708986,374 h -1.100261 v -1.48958 H 34.740887 V 374 h -1.100261 v -3.03418 q 0,-0.66439 0.228516,-1.22298 0.228516,-0.5586 0.634766,-0.96061 0.40625,-0.40202 0.960612,-0.62631 0.554362,-0.22428 1.210286,-0.22428 h 2.479818 q 0.114258,0 0.21582,0.0423 0.101563,0.0423 0.177735,0.11849 0.07617,0.0762 0.118489,0.17773 0.04232,0.10156 0.04232,0.21582 z m -4.968099,-2.58984 h 3.867838 v -2.37826 h -1.933919 q -0.05078,0 -0.21582,0.0169 -0.160808,0.0127 -0.376628,0.0719 -0.211588,0.0592 -0.448568,0.18196 -0.236979,0.12273 -0.435872,0.33855 -0.198893,0.21582 -0.330078,0.54166 -0.126953,0.32162 -0.126953,0.78288 z"
       style="font-weight:bold;font-size:8.66666698px;font-family:Audiowide, sans-serif;letter-spacing:2px;fill:#333333"
       id="path629" />
    <path
       d="m 48.928386,373.44564 q 0,0.11849 -0.04232,0.22005 -0.04232,0.10156 -0.11849,0.17773 -0.07617,0.0719 -0.177734,0.11426 Q 48.488281,374 48.374024,374 h -2.479818 q -0.351237,0 -0.710938,-0.0762 -0.3597,-0.0762 -0.698242,-0.23275 -0.33431,-0.16081 -0.630534,-0.40625 -0.296224,-0.24544 -0.520508,-0.57975 -0.220052,-0.33854 -0.347005,-0.77018 -0.126953,-0.43588 -0.126953,-0.96908 v -3.03418 h 1.100261 v 3.03418 q 0,0.4655 0.126953,0.78711 0.131185,0.32161 0.330078,0.53743 0.198893,0.21582 0.435872,0.33855 0.236979,0.12272 0.448568,0.18196 0.21582,0.0592 0.376628,0.0762 0.165039,0.0127 0.21582,0.0127 h 1.933919 v -4.9681 h 1.100261 z"
       style="font-weight:bold;font-size:8.66666698px;font-family:Audiowide, sans-serif;letter-spacing:2px;fill:#333333"
       id="path631" />
    <path
       d="m 58.266279,371.46094 q 0,0.55436 -0.194662,1.01985 -0.190429,0.4655 -0.528971,0.80404 -0.338542,0.33431 -0.804036,0.52474 Q 56.273115,374 55.727216,374 h -2.970703 q -0.11849,0 -0.220052,-0.0423 -0.101563,-0.0423 -0.177734,-0.11426 -0.07194,-0.0762 -0.114258,-0.17773 -0.04232,-0.10156 -0.04232,-0.22005 V 368.486 q 0,-0.11426 0.04232,-0.21582 0.04232,-0.10156 0.114258,-0.17773 0.07617,-0.0762 0.177734,-0.11849 0.101562,-0.0423 0.220052,-0.0423 h 2.970703 q 0.545899,0 1.011394,0.19043 0.465494,0.19043 0.804036,0.52897 0.338542,0.33431 0.528971,0.80404 0.194662,0.46549 0.194662,1.01562 z m -1.100261,-0.99024 q 0,-0.32161 -0.105794,-0.58821 -0.101562,-0.2666 -0.291992,-0.4528 -0.19043,-0.19043 -0.457031,-0.29199 -0.26237,-0.1058 -0.583985,-0.1058 h -2.424805 v 3.86784 h 2.424805 q 0.321615,0 0.583985,-0.10156 0.266601,-0.1058 0.457031,-0.292 0.19043,-0.19042 0.291992,-0.45279 0.105794,-0.26661 0.105794,-0.59245 z"
       style="font-weight:bold;font-size:8.66666698px;font-family:Audiowide, sans-serif;letter-spacing:2px;fill:#333333"
       id="path633" />
    <path
       d="m 62.462565,374 h -1.10026 v -6.06836 h 1.10026 z"
       style="font-weight:bold;font-size:8.66666698px;font-family:Audiowide, sans-serif;letter-spacing:2px;fill:#333333"
       id="path635" />
    <path
       d="m 72.126305,371.54557 q 0,0.55436 -0.19043,1.01986 -0.19043,0.46549 -0.528971,0.80404 -0.338542,0.33854 -0.804037,0.52897 -0.461263,0.1862 -1.007161,0.1862 h -1.489584 q -0.545898,0 -1.011393,-0.1862 -0.465495,-0.19043 -0.804036,-0.52897 -0.338542,-0.33855 -0.533203,-0.80404 -0.19043,-0.4655 -0.19043,-1.01986 v -1.1595 q 0,-0.55013 0.19043,-1.01563 0.194661,-0.46972 0.533203,-0.80403 0.338541,-0.33855 0.804036,-0.52898 0.465495,-0.19043 1.011393,-0.19043 h 1.489584 q 0.545898,0 1.007161,0.19043 0.465495,0.19043 0.804037,0.52898 0.338541,0.33431 0.528971,0.80403 0.19043,0.4655 0.19043,1.01563 z m -1.100261,-1.1595 q 0,-0.32585 -0.105794,-0.58822 -0.101562,-0.2666 -0.291992,-0.4528 -0.186198,-0.19043 -0.4528,-0.29199 -0.262369,-0.10579 -0.579752,-0.10579 h -1.489584 q -0.321614,0 -0.588216,0.10579 -0.26237,0.10156 -0.452799,0.29199 -0.19043,0.1862 -0.296224,0.4528 -0.101563,0.26237 -0.101563,0.58822 v 1.1595 q 0,0.32585 0.101563,0.59245 0.105794,0.26237 0.296224,0.4528 0.190429,0.1862 0.452799,0.29199 0.266602,0.10156 0.588216,0.10156 h 1.48112 q 0.321615,0 0.583985,-0.10156 0.266601,-0.10579 0.457031,-0.29199 0.19043,-0.19043 0.291992,-0.4528 0.105794,-0.2666 0.105794,-0.59245 z"
       style="font-weight:bold;font-size:8.66666698px;font-family:Audiowide, sans-serif;letter-spacing:2px;fill:#333333"
       id="path637" />
  </g>
  <path
     style="fill:#dddddd"
     d="M 26.5,370 H 28 v 2 h -1.5 z"
     id="rect101" />
  <g
     aria-label="CHAN"
     style="font-weight:bold;font-size:8px;font-family:Roboto, sans-serif;letter-spacing:1.5px;fill:#333333"
     id="text105">
    <path
       d="m 15.472656,29.105469 q -0.06641,0.917968 -0.679687,1.445312 -0.609375,0.527344 -1.609375,0.527344 -1.09375,0 -1.722656,-0.734375 -0.625,-0.738281 -0.625,-2.023438 v -0.347656 q 0,-0.820312 0.289062,-1.445312 0.289063,-0.625 0.824219,-0.957032 0.539062,-0.335937 1.25,-0.335937 0.984375,0 1.585937,0.527344 0.601563,0.527343 0.695313,1.480468 H 14.308594 Q 14.265625,26.691406 14,26.445312 q -0.261719,-0.25 -0.800781,-0.25 -0.585938,0 -0.878906,0.421875 -0.289063,0.417969 -0.296875,1.300782 v 0.429687 q 0,0.921875 0.277343,1.347656 0.28125,0.425782 0.882813,0.425782 0.542969,0 0.808594,-0.246094 0.269531,-0.25 0.308593,-0.769531 z"
       style="font-weight:bold;font-size:8px;font-family:Roboto, sans-serif;letter-spacing:1.5px;fill:#333333"
       id="path641" />
    <path
       d="M 22.371094,31 H 21.199219 V 28.5625 H 18.914062 V 31 h -1.171875 v -5.6875 h 1.171875 v 2.304687 h 2.285157 V 25.3125 h 1.171875 z"
       style="font-weight:bold;font-size:8px;font-family:Roboto, sans-serif;letter-spacing:1.5px;fill:#333333"
       id="path643" />
    <path
       d="M 28.1875,29.828125 H 26.132812 L 25.742187,31 h -1.246093 l 2.117187,-5.6875 h 1.085938 L 29.828125,31 h -1.246094 z m -1.738281,-0.949219 h 1.421875 L 27.15625,26.75 Z"
       style="font-weight:bold;font-size:8px;font-family:Roboto, sans-serif;letter-spacing:1.5px;fill:#333333"
       id="path645" />
    <path
       d="m 36.492187,31 h -1.171875 l -2.28125,-3.742188 V 31 h -1.171875 v -5.6875 h 1.171875 l 2.285157,3.75 v -3.75 h 1.167968 z"
       style="font-weight:bold;font-size:8px;font-family:Roboto, sans-serif;letter-spacing:1.5px;fill:#333333"
       id="path647" />
  </g>
  <g
     id="use107"
     transform="translate(4,31)">
    <g
       id="g298"
       transform="translate(20,20)">
      <g
         aria-label="1"
         transform="translate(-9,14.124356)"
         style="font-weight:bold;font-size:6.66666651px;font-family:Roboto, sans-serif;fill:#333333"
         id="text266">
        <path
           d="M 2.6074218,0 H 1.6666666 v -3.626302 l -1.12304682,0.3483073 v -0.764974 L 2.5065104,-4.7460936 h 0.1009114 z"
           style="font-weight:bold;font-size:6.66666651px;font-family:Roboto, sans-serif;fill:#333333"
           id="path650" />
      </g>
      <g
         aria-label="4"
         transform="translate(-16,2)"
         style="font-weight:bold;font-size:6.66666651px;font-family:Roboto, sans-serif;fill:#333333"
         id="text268">
        <path
           d="M 3.1054687,-1.7838541 H 3.642578 v 0.7584635 H 3.1054687 V 0 H 2.1647135 V -1.0253906 H 0.22135416 L 0.17903645,-1.6178385 2.1549479,-4.7395832 h 0.9505208 z m -1.9889323,0 h 1.0481771 v -1.6731771 l -0.061849,0.1074219 z"
           style="font-weight:bold;font-size:6.66666651px;font-family:Roboto, sans-serif;fill:#333333"
           id="path653" />
      </g>
      <g
         aria-label="8"
         transform="translate(-4.4310745,-11.787309)"
         style="font-weight:bold;font-size:6.66666651px;font-family:Roboto, sans-serif;fill:#333333"
         id="text270">
        <path
           d="m 3.4114583,-3.4798176 q 0,0.345052 -0.1725261,0.6119791 -0.172526,0.2669271 -0.4752604,0.4264323 0.3450521,0.1660156 0.546875,0.4589844 0.2018229,0.2897135 0.2018229,0.6835937 0,0.63151041 -0.4296875,0.99934894 -0.4296875,0.36458333 -1.1686197,0.36458333 -0.7389323,0 -1.17187502,-0.36783854 -0.4329427,-0.36783853 -0.4329427,-0.99609373 0,-0.3938802 0.20182292,-0.6868489 0.20182291,-0.2929688 0.5436198,-0.4557292 -0.30273439,-0.1595052 -0.47526043,-0.4264323 -0.16927083,-0.2669271 -0.16927083,-0.6119791 0,-0.6054688 0.40364582,-0.9635417 0.40364584,-0.3613281 1.09700514,-0.3613281 0.6901042,0 1.09375,0.3580729 0.4069011,0.3548177 0.4069011,0.9667969 z m -0.843099,2.1126301 q 0,-0.3092448 -0.1790364,-0.4947916 Q 2.2102864,-2.047526 1.907552,-2.047526 q -0.2994791,0 -0.4785156,0.1855469 Q 1.25,-1.6796875 1.25,-1.3671875 q 0,0.3027344 0.1757812,0.48828127 0.1757813,0.18554687 0.4882813,0.18554687 0.3059895,0 0.4785156,-0.17903645 0.1757812,-0.17903649 0.1757812,-0.49479169 z m -0.097656,-2.0670572 q 0,-0.2766927 -0.1464844,-0.4427083 -0.1464844,-0.1692709 -0.4134115,-0.1692709 -0.2636718,0 -0.4101562,0.1627605 -0.1464844,0.1627604 -0.1464844,0.4492187 0,0.2832031 0.1464844,0.4557291 0.1464844,0.1725261 0.4134115,0.1725261 0.266927,0 0.4101562,-0.1725261 0.1464844,-0.172526 0.1464844,-0.4557291 z"
           style="font-weight:bold;font-size:6.66666651px;font-family:Roboto, sans-serif;fill:#333333"
           id="path656" />
      </g>
      <g
         aria-label="12"
         transform="translate(10.216004,-2.4462619)"
         style="font-weight:bold;font-size:6.66666651px;font-family:Roboto, sans-serif;fill:#333333"
         id="text272">
        <path
           d="M 2.6074218,0 H 1.6666666 v -3.626302 l -1.12304682,0.3483073 v -0.764974 L 2.5065104,-4.7460936 h 0.1009114 z"
           style="font-weight:bold;font-size:6.66666651px;font-family:Roboto, sans-serif;fill:#333333"
           id="path659" />
        <path
           d="M 7.3990885,0 H 4.1503906 V -0.64453123 L 5.6835937,-2.2786458 q 0.3157552,-0.3450521 0.4654948,-0.6022135 0.1529948,-0.2571615 0.1529948,-0.4882812 0,-0.3157552 -0.1595052,-0.4947917 -0.1595052,-0.1822917 -0.4557292,-0.1822917 -0.3190104,0 -0.5045573,0.2213542 Q 5,-3.6067707 5,-3.2486978 H 4.0559896 q 0,-0.4329427 0.2050781,-0.7910156 0.2083333,-0.358073 0.5859375,-0.5598959 0.3776041,-0.2050781 0.8561198,-0.2050781 0.7324218,0 1.1360676,0.3515625 0.4069011,0.3515625 0.4069011,0.9928385 0,0.3515625 -0.1822917,0.7161458 -0.1822917,0.3645834 -0.625,0.8496094 l -1.0774739,1.13606768 h 2.0377604 z"
           style="font-weight:bold;font-size:6.66666651px;font-family:Roboto, sans-serif;fill:#333333"
           id="path661" />
      </g>
      <g
         aria-label="16"
         transform="translate(4.7,14.25833)"
         style="font-weight:bold;font-size:6.66666651px;font-family:Roboto, sans-serif;fill:#333333"
         id="text274">
        <path
           d="M 2.6074218,0 H 1.6666666 v -3.626302 l -1.12304682,0.3483073 v -0.764974 L 2.5065104,-4.7460936 h 0.1009114 z"
           style="font-weight:bold;font-size:6.66666651px;font-family:Roboto, sans-serif;fill:#333333"
           id="path664" />
        <path
           d="m 6.7024739,-4.7884113 v 0.7747395 h -0.091146 q -0.6380209,0.00977 -1.0286459,0.3320313 -0.3873697,0.3222656 -0.4654947,0.8951822 0.3776041,-0.3841145 0.953776,-0.3841145 0.6184896,0 0.9830729,0.4427083 0.3645833,0.4427083 0.3645833,1.1653645 0,0.4622396 -0.2018229,0.83658856 -0.1985677,0.37434895 -0.5664062,0.58268228 -0.3645834,0.20833333 -0.8268229,0.20833333 -0.7486979,0 -1.2109375,-0.52083333 Q 4.1536458,-0.97656248 4.1536458,-1.8457031 v -0.3385416 q 0,-0.7714844 0.2897136,-1.3606771 0.2929687,-0.5924479 0.8365885,-0.9147135 0.546875,-0.3255208 1.266276,-0.328776 z m -0.9179687,2.3730468 q -0.2278646,0 -0.4134115,0.1204427 -0.1855469,0.1171875 -0.2734375,0.3125 v 0.2864583 q 0,0.4720052 0.1855469,0.73893227 0.1855469,0.26367187 0.5208333,0.26367187 0.3027344,0 0.4882812,-0.2376302 0.1888021,-0.24088544 0.1888021,-0.62174474 0,-0.3873698 -0.1888021,-0.625 -0.188802,-0.2376302 -0.5078124,-0.2376302 z"
           style="font-weight:bold;font-size:6.66666651px;font-family:Roboto, sans-serif;fill:#333333"
           id="path666" />
      </g>
      <path
         transform="rotate(140,-5,1.8198512)"
         style="stroke:#333333;stroke-width:0.30000001"
         d="M 0,0 H 2.5"
         id="polyline276" />
      <path
         transform="rotate(160,-5,0.8816349)"
         style="stroke:#333333;stroke-width:0.30000001"
         d="M 0,0 H 2.5"
         id="polyline278" />
      <path
         transform="rotate(-160,-5,-0.8816349)"
         style="stroke:#333333;stroke-width:0.30000001"
         d="M 0,0 H 2.5"
         id="polyline280" />
      <path
         transform="rotate(-140,-5,-1.8198512)"
         style="stroke:#333333;stroke-width:0.30000001"
         d="M 0,0 H 2.5"
         id="polyline282" />
      <path
         transform="rotate(-120,-5,-2.8867513)"
         style="stroke:#333333;stroke-width:0.30000001"
         d="M 0,0 H 2.5"
         id="polyline284" />
      <path
         transform="rotate(-80,-5,-5.958768)"
         style="stroke:#333333;stroke-width:0.30000001"
         d="M 0,0 H 2.5"
         id="polyline286" />
      <path
         transform="rotate(-60,-5,-8.660254)"
         style="stroke:#333333;stroke-width:0.30000001"
         d="M 0,0 H 2.5"
         id="polyline288" />
      <path
         transform="rotate(-40,-5,-13.737387)"
         style="stroke:#333333;stroke-width:0.30000001"
         d="M 0,0 H 2.5"
         id="polyline290" />
      <path
         transform="translate(10)"
         style="stroke:#333333;stroke-width:0.30000001"
         d="M 0,0 H 2.5"
         id="polyline292" />
      <path
         transform="rotate(20,-5,28.356409)"
         style="stroke:#333333;stroke-width:0.30000001"
         d="M 0,0 H 2.5"
         id="polyline294" />
      <path
         transform="rotate(40,-5,13.737387)"
         style="stroke:#333333;stroke-width:0.30000001"
         d="M 0,0 H 2.5"
         id="polyline296" />
    </g>
  </g>
  <path
     style="fill:#fafafa"
     d="m 56,24 h 50 c 2.77,0 5,2.23 5,5 v 30 c 0,2.77 -2.23,5 -5,5 H 56 c -2.77,0 -5,-2.23 -5,-5 V 29 c 0,-2.77 2.23,-5 5,-5 z"
     id="rect111" />
  <path
     style="fill:#bbbbbb"
     d="m 94,24 h 14 c 2.77,0 5,2.23 5,5 v 30 c 0,2.77 -2.23,5 -5,5 H 94 c -2.77,0 -5,-2.23 -5,-5 V 29 c 0,-2.77 2.23,-5 5,-5 z"
     id="rect113" />
  <path
     style="fill:#bbbbbb"
     d="m 82,24 h 20 V 64 H 82 Z"
     id="rect115" />
  <g
     aria-label="CHAN"
     style="font-weight:bold;font-size:8px;font-family:Roboto, sans-serif;letter-spacing:1px;fill:#333333"
     id="text117">
    <path
       d="m 58.972656,58.105469 q -0.06641,0.917968 -0.679687,1.445312 -0.609375,0.527344 -1.609375,0.527344 -1.09375,0 -1.722657,-0.734375 -0.625,-0.738281 -0.625,-2.023438 v -0.347656 q 0,-0.820312 0.289063,-1.445312 0.289062,-0.625 0.824219,-0.957032 0.539062,-0.335937 1.25,-0.335937 0.984375,0 1.585937,0.527344 0.601563,0.527343 0.695313,1.480468 H 57.808594 Q 57.765625,55.691406 57.5,55.445312 q -0.261719,-0.25 -0.800781,-0.25 -0.585938,0 -0.878907,0.421875 -0.289062,0.417969 -0.296875,1.300782 v 0.429687 q 0,0.921875 0.277344,1.347656 0.28125,0.425782 0.882813,0.425782 0.542968,0 0.808593,-0.246094 0.269532,-0.25 0.308594,-0.769531 z"
       style="font-weight:bold;font-size:8px;font-family:Roboto, sans-serif;letter-spacing:1px;fill:#333333"
       id="path683" />
    <path
       d="M 65.371094,60 H 64.199219 V 57.5625 H 61.914062 V 60 h -1.171875 v -5.6875 h 1.171875 v 2.304687 h 2.285157 V 54.3125 h 1.171875 z"
       style="font-weight:bold;font-size:8px;font-family:Roboto, sans-serif;letter-spacing:1px;fill:#333333"
       id="path685" />
    <path
       d="M 70.6875,58.828125 H 68.632812 L 68.242187,60 h -1.246093 l 2.117187,-5.6875 h 1.085938 L 72.328125,60 h -1.246094 z m -1.738281,-0.949219 h 1.421875 L 69.65625,55.75 Z"
       style="font-weight:bold;font-size:8px;font-family:Roboto, sans-serif;letter-spacing:1px;fill:#333333"
       id="path687" />
    <path
       d="m 78.492187,60 h -1.171875 l -2.28125,-3.742188 V 60 h -1.171875 v -5.6875 h 1.171875 l 2.285157,3.75 v -3.75 h 1.167968 z"
       style="font-weight:bold;font-size:8px;font-family:Roboto, sans-serif;letter-spacing:1px;fill:#333333"
       id="path689" />
  </g>
  <g
     aria-label="OUT"
     style="font-weight:bold;font-size:8px;font-family:Roboto, sans-serif;letter-spacing:2px;fill:#333333"
     id="text119">
    <path
       d="m 92.179687,57.285156 q 0,0.839844 -0.296875,1.472656 -0.296875,0.632813 -0.851562,0.976563 -0.550781,0.34375 -1.265625,0.34375 -0.707031,0 -1.261719,-0.339844 -0.554687,-0.339844 -0.859375,-0.96875 -0.304687,-0.632812 -0.308594,-1.453125 v -0.28125 q 0,-0.839844 0.300782,-1.476562 0.304687,-0.640625 0.855468,-0.980469 0.554688,-0.34375 1.265625,-0.34375 0.710938,0 1.261719,0.34375 0.554688,0.339844 0.855469,0.980469 0.304687,0.636718 0.304687,1.472656 z m -1.1875,-0.257812 q 0,-0.894532 -0.320312,-1.359375 -0.320313,-0.464844 -0.914063,-0.464844 -0.589843,0 -0.910156,0.460937 -0.320312,0.457032 -0.324219,1.34375 v 0.277344 q 0,0.871094 0.320313,1.351563 0.320312,0.480468 0.921875,0.480468 0.589844,0 0.90625,-0.460937 0.316406,-0.464844 0.320312,-1.351563 z"
       style="font-weight:bold;font-size:8px;font-family:Roboto, sans-serif;letter-spacing:2px;fill:#333333"
       id="path692" />
    <path
       d="m 99.34375,54.3125 v 3.746094 q 0,0.933593 -0.585938,1.476562 -0.582031,0.542969 -1.59375,0.542969 -0.996093,0 -1.582031,-0.527344 -0.585937,-0.527344 -0.597656,-1.449219 V 54.3125 h 1.171875 v 3.753906 q 0,0.558594 0.265625,0.816406 0.269531,0.253907 0.742187,0.253907 0.988282,0 1.003907,-1.039063 V 54.3125 Z"
       style="font-weight:bold;font-size:8px;font-family:Roboto, sans-serif;letter-spacing:2px;fill:#333333"
       id="path694" />
    <path
       d="m 106.58594,55.261719 h -1.74219 V 60 h -1.17187 v -4.738281 h -1.71875 V 54.3125 h 4.63281 z"
       style="font-weight:bold;font-size:8px;font-family:Roboto, sans-serif;letter-spacing:2px;fill:#333333"
       id="path696" />
  </g>
  <!-- <polyline points="0,0 0,380" stroke="#0f0" stroke-width="1" fill="none" transform="translate(33.33 0)" /> -->
  <!-- <polyline points="0,0 0,380" stroke="#0f0" stroke-width="1" fill="none" transform="translate(15.33 0)" /> -->
  <!-- <polyline points="0,0 0,380" stroke="#0f0" stroke-width="1" fill="none" transform="translate(86.67 0)" /> -->
  <!-- <polyline points="0,0 0,380" stroke="#0f0" stroke-width="1" fill="none" transform="translate(104.67 0)" /> -->
  <g
     id="use123"
     transform="translate(15,68)">
    <g
       id="g522"
       transform="translate(20,20)">
      <path
         transform="rotate(-90,-5.75,-5.75)"
         style="stroke:#333333;stroke-width:1"
         d="M 0,0 H 4"
         id="polyline512" />
      <path
         id="path514"
         transform="rotate(20)"
         d="M 0,-13.5 A 13.5,13.5 0 0 1 13.5,0"
         inkscape:connector-curvature="0"
         style="fill:none;stroke:#333333;stroke-width:0.5;stroke-linecap:round" />
      <path
         id="path516"
         transform="rotate(43)"
         d="M 0,-13.5 A 13.5,13.5 0 0 1 13.5,0"
         inkscape:connector-curvature="0"
         style="fill:none;stroke:#333333;stroke-width:0.5;stroke-linecap:round" />
      <path
         id="path518"
         transform="rotate(-20)"
         d="M 0,-13.5 A 13.5,13.5 0 0 0 -13.5,0"
         inkscape:connector-curvature="0"
         style="fill:none;stroke:#333333;stroke-width:0.5;stroke-linecap:round" />
      <path
         id="path520"
         transform="rotate(-43)"
         d="M 0,-13.5 A 13.5,13.5 0 0 0 -13.5,0"
         inkscape:connector-curvature="0"
         style="fill:none;stroke:#333333;stroke-width:0.5;stroke-linecap:round" />
    </g>
  </g>
  <g
     aria-label="1"
     style="font-weight:bold;font-size:6.66666651px;font-family:Roboto, sans-serif;letter-spacing:1px;fill:#333333"
     id="text125">
    <path
       d="m 17.607422,90.5 h -0.940755 v -3.626302 l -1.123047,0.348307 v -0.764974 l 1.96289,-0.703125 h 0.100912 z"
       style="font-weight:bold;font-size:6.66666651px;font-family:Roboto, sans-serif;letter-spacing:1px;fill:#333333"
       id="path527" />
  </g>
  <g
     id="use129"
     transform="translate(15,105)">
    <g
       id="g508"
       transform="translate(20,20)">
      <path
         transform="rotate(-90,-5.75,-5.75)"
         style="stroke:#333333;stroke-width:1"
         d="M 0,0 H 4"
         id="polyline498" />
      <path
         id="path500"
         transform="rotate(20)"
         d="M 0,-13.5 A 13.5,13.5 0 0 1 13.5,0"
         inkscape:connector-curvature="0"
         style="fill:none;stroke:#333333;stroke-width:0.5;stroke-linecap:round" />
      <path
         id="path502"
         transform="rotate(43)"
         d="M 0,-13.5 A 13.5,13.5 0 0 1 13.5,0"
         inkscape:connector-curvature="0"
         style="fill:none;stroke:#333333;stroke-width:0.5;stroke-linecap:round" />
      <path
         id="path504"
         transform="rotate(-20)"
         d="M 0,-13.5 A 13.5,13.5 0 0 0 -13.5,0"
         inkscape:connector-curvature="0"
         style="fill:none;stroke:#333333;stroke-width:0.5;stroke-linecap:round" />
      <path
         id="path506"
         transform="rotate(-43)"
         d="M 0,-13.5 A 13.5,13.5 0 0 0 -13.5,0"
         inkscape:connector-curvature="0"
         style="fill:none;stroke:#333333;stroke-width:0.5;stroke-linecap:round" />
    </g>
  </g>
  <g
     aria-label="2"
     style="font-weight:bold;font-size:6.66666651px;font-family:Roboto, sans-serif;letter-spacing:1px;fill:#333333"
     id="text131">
    <path
       d="m 18.070963,127.5 h -3.248697 v -0.64453 l 1.533203,-1.63412 q 0.315755,-0.34505 0.465494,-0.60221 0.152995,-0.25716 0.152995,-0.48828 0,-0.31576 -0.159505,-0.49479 -0.159505,-0.18229 -0.455729,-0.18229 -0.31901,0 -0.504557,0.22135 -0.182292,0.2181 -0.182292,0.57617 h -0.94401 q 0,-0.43294 0.205078,-0.79101 0.208333,-0.35808 0.585937,-0.5599 0.377604,-0.20508 0.85612,-0.20508 0.732422,0 1.136068,0.35157 0.406901,0.35156 0.406901,0.99283 0,0.35157 -0.182292,0.71615 -0.182292,0.36458 -0.625,0.84961 l -1.077474,1.13607 h 2.03776 z"
       style="font-weight:bold;font-size:6.66666651px;font-family:Roboto, sans-serif;letter-spacing:1px;fill:#333333"
       id="path531" />
  </g>
  <g
     id="use135"
     transform="translate(15,142)">
    <g
       id="g494"
       transform="translate(20,20)">
      <path
         transform="rotate(-90,-5.75,-5.75)"
         style="stroke:#333333;stroke-width:1"
         d="M 0,0 H 4"
         id="polyline484" />
      <path
         id="path486"
         transform="rotate(20)"
         d="M 0,-13.5 A 13.5,13.5 0 0 1 13.5,0"
         inkscape:connector-curvature="0"
         style="fill:none;stroke:#333333;stroke-width:0.5;stroke-linecap:round" />
      <path
         id="path488"
         transform="rotate(43)"
         d="M 0,-13.5 A 13.5,13.5 0 0 1 13.5,0"
         inkscape:connector-curvature="0"
         style="fill:none;stroke:#333333;stroke-width:0.5;stroke-linecap:round" />
      <path
         id="path490"
         transform="rotate(-20)"
         d="M 0,-13.5 A 13.5,13.5 0 0 0 -13.5,0"
         inkscape:connector-curvature="0"
         style="fill:none;stroke:#333333;stroke-width:0.5;stroke-linecap:round" />
      <path
         id="path492"
         transform="rotate(-43)"
         d="M 0,-13.5 A 13.5,13.5 0 0 0 -13.5,0"
         inkscape:connector-curvature="0"
         style="fill:none;stroke:#333333;stroke-width:0.5;stroke-linecap:round" />
    </g>
  </g>
  <g
     aria-label="3"
     style="font-weight:bold;font-size:6.66666651px;font-family:Roboto, sans-serif;letter-spacing:1px;fill:#333333"
     id="text137">
    <path
       d="m 15.779297,161.71354 h 0.501302 q 0.358073,0 0.530599,-0.17903 0.172526,-0.17904 0.172526,-0.47527 0,-0.28645 -0.172526,-0.44596 -0.169271,-0.1595 -0.46875,-0.1595 -0.270182,0 -0.452474,0.14974 -0.182292,0.14648 -0.182292,0.38411 h -0.940755 q 0,-0.37109 0.198568,-0.66406 0.201823,-0.29623 0.559896,-0.46224 0.361328,-0.16602 0.79427,-0.16602 0.751954,0 1.178386,0.36133 0.426432,0.35807 0.426432,0.98958 0,0.32552 -0.198568,0.59896 -0.198567,0.27344 -0.520833,0.41992 0.400391,0.14323 0.595703,0.42969 0.198568,0.28646 0.198568,0.67709 0,0.63151 -0.46224,1.01236 -0.458984,0.38086 -1.217448,0.38086 -0.709635,0 -1.162109,-0.37434 -0.449219,-0.37435 -0.449219,-0.98959 h 0.940756 q 0,0.26693 0.198567,0.4362 0.201823,0.16927 0.494792,0.16927 0.335286,0 0.524088,-0.17578 0.192058,-0.17904 0.192058,-0.47201 0,-0.70963 -0.78125,-0.70963 h -0.498047 z"
       style="font-weight:bold;font-size:6.66666651px;font-family:Roboto, sans-serif;letter-spacing:1px;fill:#333333"
       id="path535" />
  </g>
  <g
     id="use141"
     transform="translate(15,179)">
    <g
       id="g480"
       transform="translate(20,20)">
      <path
         transform="rotate(-90,-5.75,-5.75)"
         style="stroke:#333333;stroke-width:1"
         d="M 0,0 H 4"
         id="polyline470" />
      <path
         id="path472"
         transform="rotate(20)"
         d="M 0,-13.5 A 13.5,13.5 0 0 1 13.5,0"
         inkscape:connector-curvature="0"
         style="fill:none;stroke:#333333;stroke-width:0.5;stroke-linecap:round" />
      <path
         id="path474"
         transform="rotate(43)"
         d="M 0,-13.5 A 13.5,13.5 0 0 1 13.5,0"
         inkscape:connector-curvature="0"
         style="fill:none;stroke:#333333;stroke-width:0.5;stroke-linecap:round" />
      <path
         id="path476"
         transform="rotate(-20)"
         d="M 0,-13.5 A 13.5,13.5 0 0 0 -13.5,0"
         inkscape:connector-curvature="0"
         style="fill:none;stroke:#333333;stroke-width:0.5;stroke-linecap:round" />
      <path
         id="path478"
         transform="rotate(-43)"
         d="M 0,-13.5 A 13.5,13.5 0 0 0 -13.5,0"
         inkscape:connector-curvature="0"
         style="fill:none;stroke:#333333;stroke-width:0.5;stroke-linecap:round" />
    </g>
  </g>
  <g
     aria-label="4"
     style="font-weight:bold;font-size:6.66666651px;font-family:Roboto, sans-serif;letter-spacing:1px;fill:#333333"
     id="text143">
    <path
       d="m 17.405469,199.71615 h 0.537109 v 0.75846 H 17.405469 V 201.5 h -0.940755 v -1.02539 h -1.94336 l -0.04232,-0.59245 1.975911,-3.12174 h 0.950521 z m -1.988932,0 h 1.048177 v -1.67318 l -0.06185,0.10742 z"
       style="font-weight:bold;font-size:6.66666651px;font-family:Roboto, sans-serif;letter-spacing:1px;fill:#333333"
       id="path539" />
  </g>
  <g
     id="use147"
     transform="translate(15,216)">
    <g
       id="g466"
       transform="translate(20,20)">
      <path
         transform="rotate(-90,-5.75,-5.75)"
         style="stroke:#333333;stroke-width:1"
         d="M 0,0 H 4"
         id="polyline456" />
      <path
         id="path458"
         transform="rotate(20)"
         d="M 0,-13.5 A 13.5,13.5 0 0 1 13.5,0"
         inkscape:connector-curvature="0"
         style="fill:none;stroke:#333333;stroke-width:0.5;stroke-linecap:round" />
      <path
         id="path460"
         transform="rotate(43)"
         d="M 0,-13.5 A 13.5,13.5 0 0 1 13.5,0"
         inkscape:connector-curvature="0"
         style="fill:none;stroke:#333333;stroke-width:0.5;stroke-linecap:round" />
      <path
         id="path462"
         transform="rotate(-20)"
         d="M 0,-13.5 A 13.5,13.5 0 0 0 -13.5,0"
         inkscape:connector-curvature="0"
         style="fill:none;stroke:#333333;stroke-width:0.5;stroke-linecap:round" />
      <path
         id="path464"
         transform="rotate(-43)"
         d="M 0,-13.5 A 13.5,13.5 0 0 0 -13.5,0"
         inkscape:connector-curvature="0"
         style="fill:none;stroke:#333333;stroke-width:0.5;stroke-linecap:round" />
    </g>
  </g>
  <g
     aria-label="5"
     style="font-weight:bold;font-size:6.66666651px;font-family:Roboto, sans-serif;letter-spacing:1px;fill:#333333"
     id="text149">
    <path
       d="m 14.76224,236.16927 0.273437,-2.40885 h 2.65625 v 0.7845 h -1.884765 l -0.117188,1.01888 q 0.335287,-0.17903 0.712891,-0.17903 0.677083,0 1.061198,0.41992 0.384114,0.41992 0.384114,1.17513 0,0.45898 -0.195312,0.82357 -0.192058,0.36132 -0.553386,0.56315 -0.361328,0.19856 -0.852864,0.19856 -0.429688,0 -0.797526,-0.17252 -0.367839,-0.17578 -0.582683,-0.49154 -0.211588,-0.31575 -0.224609,-0.7194 h 0.93099 q 0.0293,0.29622 0.205078,0.46224 0.179036,0.16276 0.465495,0.16276 0.31901,0 0.491536,-0.22786 0.172526,-0.23112 0.172526,-0.65105 0,-0.40364 -0.198568,-0.61849 -0.198567,-0.21484 -0.563151,-0.21484 -0.335286,0 -0.54362,0.17578 l -0.09115,0.0846 z"
       style="font-weight:bold;font-size:6.66666651px;font-family:Roboto, sans-serif;letter-spacing:1px;fill:#333333"
       id="path543" />
  </g>
  <g
     id="use153"
     transform="translate(15,253)">
    <g
       id="g452"
       transform="translate(20,20)">
      <path
         transform="rotate(-90,-5.75,-5.75)"
         style="stroke:#333333;stroke-width:1"
         d="M 0,0 H 4"
         id="polyline442" />
      <path
         id="path444"
         transform="rotate(20)"
         d="M 0,-13.5 A 13.5,13.5 0 0 1 13.5,0"
         inkscape:connector-curvature="0"
         style="fill:none;stroke:#333333;stroke-width:0.5;stroke-linecap:round" />
      <path
         id="path446"
         transform="rotate(43)"
         d="M 0,-13.5 A 13.5,13.5 0 0 1 13.5,0"
         inkscape:connector-curvature="0"
         style="fill:none;stroke:#333333;stroke-width:0.5;stroke-linecap:round" />
      <path
         id="path448"
         transform="rotate(-20)"
         d="M 0,-13.5 A 13.5,13.5 0 0 0 -13.5,0"
         inkscape:connector-curvature="0"
         style="fill:none;stroke:#333333;stroke-width:0.5;stroke-linecap:round" />
      <path
         id="path450"
         transform="rotate(-43)"
         d="M 0,-13.5 A 13.5,13.5 0 0 0 -13.5,0"
         inkscape:connector-curvature="0"
         style="fill:none;stroke:#333333;stroke-width:0.5;stroke-linecap:round" />
    </g>
  </g>
  <g
     aria-label="6"
     style="font-weight:bold;font-size:6.66666651px;font-family:Roboto, sans-serif;letter-spacing:1px;fill:#333333"
     id="text155">
    <path
       d="m 17.174349,270.71159 v 0.77474 h -0.09115 q -0.638021,0.01 -1.028646,0.33203 -0.387369,0.32227 -0.465494,0.89518 0.377604,-0.38411 0.953776,-0.38411 0.618489,0 0.983073,0.44271 0.364583,0.4427 0.364583,1.16536 0,0.46224 -0.201823,0.83659 -0.198568,0.37435 -0.566406,0.58268 -0.364584,0.20833 -0.826823,0.20833 -0.748698,0 -1.210938,-0.52083 -0.458984,-0.52083 -0.458984,-1.38997 v -0.33854 q 0,-0.77149 0.289714,-1.36068 0.292968,-0.59245 0.836588,-0.91472 0.546875,-0.32552 1.266276,-0.32877 z m -0.917969,2.37305 q -0.227864,0 -0.413411,0.12044 -0.185547,0.11719 -0.273438,0.3125 v 0.28646 q 0,0.472 0.185547,0.73893 0.185547,0.26367 0.520834,0.26367 0.302734,0 0.488281,-0.23763 0.188802,-0.24088 0.188802,-0.62174 0,-0.38737 -0.188802,-0.625 -0.188802,-0.23763 -0.507813,-0.23763 z"
       style="font-weight:bold;font-size:6.66666651px;font-family:Roboto, sans-serif;letter-spacing:1px;fill:#333333"
       id="path547" />
  </g>
  <g
     id="use159"
     transform="translate(15,290)">
    <g
       id="g438"
       transform="translate(20,20)">
      <path
         transform="rotate(-90,-5.75,-5.75)"
         style="stroke:#333333;stroke-width:1"
         d="M 0,0 H 4"
         id="polyline428" />
      <path
         id="path430"
         transform="rotate(20)"
         d="M 0,-13.5 A 13.5,13.5 0 0 1 13.5,0"
         inkscape:connector-curvature="0"
         style="fill:none;stroke:#333333;stroke-width:0.5;stroke-linecap:round" />
      <path
         id="path432"
         transform="rotate(43)"
         d="M 0,-13.5 A 13.5,13.5 0 0 1 13.5,0"
         inkscape:connector-curvature="0"
         style="fill:none;stroke:#333333;stroke-width:0.5;stroke-linecap:round" />
      <path
         id="path434"
         transform="rotate(-20)"
         d="M 0,-13.5 A 13.5,13.5 0 0 0 -13.5,0"
         inkscape:connector-curvature="0"
         style="fill:none;stroke:#333333;stroke-width:0.5;stroke-linecap:round" />
      <path
         id="path436"
         transform="rotate(-43)"
         d="M 0,-13.5 A 13.5,13.5 0 0 0 -13.5,0"
         inkscape:connector-curvature="0"
         style="fill:none;stroke:#333333;stroke-width:0.5;stroke-linecap:round" />
    </g>
  </g>
  <g
     aria-label="7"
     style="font-weight:bold;font-size:6.66666651px;font-family:Roboto, sans-serif;letter-spacing:1px;fill:#333333"
     id="text161">
    <path
       d="M 17.844922,308.28776 16.01224,312.5 h -0.992839 l 1.835938,-3.97786 h -2.356771 v -0.76172 h 3.346354 z"
       style="font-weight:bold;font-size:6.66666651px;font-family:Roboto, sans-serif;letter-spacing:1px;fill:#333333"
       id="path551" />
  </g>
  <g
     id="use165"
     transform="translate(15,327)">
    <g
       id="g424"
       transform="translate(20,20)">
      <path
         transform="rotate(-90,-5.75,-5.75)"
         style="stroke:#333333;stroke-width:1"
         d="M 0,0 H 4"
         id="polyline414" />
      <path
         id="path416"
         transform="rotate(20)"
         d="M 0,-13.5 A 13.5,13.5 0 0 1 13.5,0"
         inkscape:connector-curvature="0"
         style="fill:none;stroke:#333333;stroke-width:0.5;stroke-linecap:round" />
      <path
         id="path418"
         transform="rotate(43)"
         d="M 0,-13.5 A 13.5,13.5 0 0 1 13.5,0"
         inkscape:connector-curvature="0"
         style="fill:none;stroke:#333333;stroke-width:0.5;stroke-linecap:round" />
      <path
         id="path420"
         transform="rotate(-20)"
         d="M 0,-13.5 A 13.5,13.5 0 0 0 -13.5,0"
         inkscape:connector-curvature="0"
         style="fill:none;stroke:#333333;stroke-width:0.5;stroke-linecap:round" />
      <path
         id="path422"
         transform="rotate(-43)"
         d="M 0,-13.5 A 13.5,13.5 0 0 0 -13.5,0"
         inkscape:connector-curvature="0"
         style="fill:none;stroke:#333333;stroke-width:0.5;stroke-linecap:round" />
    </g>
  </g>
  <g
     aria-label="8"
     style="font-weight:bold;font-size:6.66666651px;font-family:Roboto, sans-serif;letter-spacing:1px;fill:#333333"
     id="text167">
    <path
       d="m 17.711458,346.02018 q 0,0.34505 -0.172526,0.61198 -0.172526,0.26693 -0.47526,0.42643 0.345052,0.16602 0.546875,0.45899 0.201823,0.28971 0.201823,0.68359 0,0.63151 -0.429688,0.99935 -0.429687,0.36458 -1.168619,0.36458 -0.738933,0 -1.171875,-0.36783 -0.432943,-0.36784 -0.432943,-0.9961 0,-0.39388 0.201823,-0.68685 0.201823,-0.29297 0.54362,-0.45573 -0.302735,-0.1595 -0.475261,-0.42643 -0.169271,-0.26693 -0.169271,-0.61198 0,-0.60547 0.403646,-0.96354 0.403646,-0.36133 1.097005,-0.36133 0.690105,0 1.09375,0.35808 0.406901,0.35481 0.406901,0.96679 z m -0.843098,2.11263 q 0,-0.30924 -0.179037,-0.49479 -0.179036,-0.18555 -0.481771,-0.18555 -0.299479,0 -0.478515,0.18555 -0.179037,0.18229 -0.179037,0.49479 0,0.30274 0.175781,0.48828 0.175782,0.18555 0.488282,0.18555 0.305989,0 0.478515,-0.17904 0.175782,-0.17903 0.175782,-0.49479 z m -0.09766,-2.06705 q 0,-0.2767 -0.146484,-0.44271 -0.146484,-0.16927 -0.413412,-0.16927 -0.263671,0 -0.410156,0.16276 -0.146484,0.16276 -0.146484,0.44922 0,0.2832 0.146484,0.45572 0.146485,0.17253 0.413412,0.17253 0.266927,0 0.410156,-0.17253 0.146484,-0.17252 0.146484,-0.45572 z"
       style="font-weight:bold;font-size:6.66666651px;font-family:Roboto, sans-serif;letter-spacing:1px;fill:#333333"
       id="path555" />
  </g>
  <g
     id="use171"
     transform="translate(65,68)">
    <g
       id="g410"
       transform="translate(20,20)">
      <path
         transform="rotate(-90,-5.75,-5.75)"
         style="stroke:#333333;stroke-width:1"
         d="M 0,0 H 4"
         id="polyline400" />
      <path
         id="path402"
         transform="rotate(20)"
         d="M 0,-13.5 A 13.5,13.5 0 0 1 13.5,0"
         inkscape:connector-curvature="0"
         style="fill:none;stroke:#333333;stroke-width:0.5;stroke-linecap:round" />
      <path
         id="path404"
         transform="rotate(43)"
         d="M 0,-13.5 A 13.5,13.5 0 0 1 13.5,0"
         inkscape:connector-curvature="0"
         style="fill:none;stroke:#333333;stroke-width:0.5;stroke-linecap:round" />
      <path
         id="path406"
         transform="rotate(-20)"
         d="M 0,-13.5 A 13.5,13.5 0 0 0 -13.5,0"
         inkscape:connector-curvature="0"
         style="fill:none;stroke:#333333;stroke-width:0.5;stroke-linecap:round" />
      <path
         id="path408"
         transform="rotate(-43)"
         d="M 0,-13.5 A 13.5,13.5 0 0 0 -13.5,0"
         inkscape:connector-curvature="0"
         style="fill:none;stroke:#333333;stroke-width:0.5;stroke-linecap:round" />
    </g>
  </g>
  <g
     aria-label="9"
     style="font-weight:bold;font-size:6.66666651px;font-family:Roboto, sans-serif;letter-spacing:1px;fill:#333333"
     id="text173">
    <path
       d="m 105.02279,88.605469 q -0.36784,0.361328 -0.85938,0.361328 -0.62825,0 -1.00586,-0.429688 -0.3776,-0.432942 -0.3776,-1.165364 0,-0.465495 0.20182,-0.852865 0.20508,-0.390625 0.56966,-0.605468 0.36459,-0.218099 0.82031,-0.218099 0.46875,0 0.83334,0.234375 0.36458,0.234375 0.5664,0.673828 0.20183,0.439453 0.20508,1.005859 v 0.348307 q 0,1.184896 -0.58919,1.861979 -0.58919,0.677084 -1.66992,0.722657 l -0.23112,0.0033 v -0.784505 l 0.20833,-0.0033 q 1.22721,-0.05534 1.32813,-1.152344 z m -0.62826,-0.358073 q 0.22787,0 0.39063,-0.117188 0.16601,-0.117187 0.25065,-0.283203 v -0.38737 q 0,-0.478515 -0.18229,-0.742187 -0.1823,-0.263672 -0.48829,-0.263672 -0.2832,0 -0.46549,0.260417 -0.18229,0.257161 -0.18229,0.647786 0,0.38737 0.17578,0.638021 0.17904,0.247396 0.5013,0.247396 z"
       style="font-weight:bold;font-size:6.66666651px;font-family:Roboto, sans-serif;letter-spacing:1px;fill:#333333"
       id="path559" />
  </g>
  <g
     id="use177"
     transform="translate(65,105)">
    <g
       id="g396"
       transform="translate(20,20)">
      <path
         transform="rotate(-90,-5.75,-5.75)"
         style="stroke:#333333;stroke-width:1"
         d="M 0,0 H 4"
         id="polyline386" />
      <path
         id="path388"
         transform="rotate(20)"
         d="M 0,-13.5 A 13.5,13.5 0 0 1 13.5,0"
         inkscape:connector-curvature="0"
         style="fill:none;stroke:#333333;stroke-width:0.5;stroke-linecap:round" />
      <path
         id="path390"
         transform="rotate(43)"
         d="M 0,-13.5 A 13.5,13.5 0 0 1 13.5,0"
         inkscape:connector-curvature="0"
         style="fill:none;stroke:#333333;stroke-width:0.5;stroke-linecap:round" />
      <path
         id="path392"
         transform="rotate(-20)"
         d="M 0,-13.5 A 13.5,13.5 0 0 0 -13.5,0"
         inkscape:connector-curvature="0"
         style="fill:none;stroke:#333333;stroke-width:0.5;stroke-linecap:round" />
      <path
         id="path394"
         transform="rotate(-43)"
         d="M 0,-13.5 A 13.5,13.5 0 0 0 -13.5,0"
         inkscape:connector-curvature="0"
         style="fill:none;stroke:#333333;stroke-width:0.5;stroke-linecap:round" />
    </g>
  </g>
  <g
     aria-label="10"
     style="font-weight:bold;font-size:6.66666651px;font-family:Roboto, sans-serif;letter-spacing:1px;fill:#333333"
     id="text179">
    <path
       d="m 104.60742,127.5 h -0.94075 v -3.6263 l -1.12305,0.34831 v -0.76498 l 1.96289,-0.70312 h 0.10091 z"
       style="font-weight:bold;font-size:6.66666651px;font-family:Roboto, sans-serif;letter-spacing:1px;fill:#333333"
       id="path563" />
    <path
       d="m 110.34049,125.54036 q 0,0.98308 -0.4069,1.50391 -0.4069,0.52083 -1.1914,0.52083 -0.77474,0 -1.1849,-0.51106 -0.41015,-0.51107 -0.41992,-1.46485 v -0.87239 q 0,-0.99284 0.41016,-1.50716 0.41341,-0.51433 1.18815,-0.51433 0.77474,0 1.18489,0.51107 0.41016,0.50781 0.41992,1.46159 z m -0.94075,-0.95703 q 0,-0.58919 -0.16276,-0.85612 -0.15951,-0.27018 -0.5013,-0.27018 -0.33203,0 -0.49154,0.25716 -0.15625,0.25391 -0.16602,0.79753 v 1.15234 q 0,0.57943 0.15625,0.86263 0.15951,0.27995 0.50782,0.27995 0.34505,0 0.49804,-0.27018 0.153,-0.27018 0.15951,-0.82682 z"
       style="font-weight:bold;font-size:6.66666651px;font-family:Roboto, sans-serif;letter-spacing:1px;fill:#333333"
       id="path565" />
  </g>
  <g
     id="use183"
     transform="translate(65,142)">
    <g
       id="g382"
       transform="translate(20,20)">
      <path
         transform="rotate(-90,-5.75,-5.75)"
         style="stroke:#333333;stroke-width:1"
         d="M 0,0 H 4"
         id="polyline372" />
      <path
         id="path374"
         transform="rotate(20)"
         d="M 0,-13.5 A 13.5,13.5 0 0 1 13.5,0"
         inkscape:connector-curvature="0"
         style="fill:none;stroke:#333333;stroke-width:0.5;stroke-linecap:round" />
      <path
         id="path376"
         transform="rotate(43)"
         d="M 0,-13.5 A 13.5,13.5 0 0 1 13.5,0"
         inkscape:connector-curvature="0"
         style="fill:none;stroke:#333333;stroke-width:0.5;stroke-linecap:round" />
      <path
         id="path378"
         transform="rotate(-20)"
         d="M 0,-13.5 A 13.5,13.5 0 0 0 -13.5,0"
         inkscape:connector-curvature="0"
         style="fill:none;stroke:#333333;stroke-width:0.5;stroke-linecap:round" />
      <path
         id="path380"
         transform="rotate(-43)"
         d="M 0,-13.5 A 13.5,13.5 0 0 0 -13.5,0"
         inkscape:connector-curvature="0"
         style="fill:none;stroke:#333333;stroke-width:0.5;stroke-linecap:round" />
    </g>
  </g>
  <g
     aria-label="11"
     style="font-weight:bold;font-size:6.66666651px;font-family:Roboto, sans-serif;letter-spacing:1px;fill:#333333"
     id="text185">
    <path
       d="m 104.60742,164.5 h -0.94075 v -3.6263 l -1.12305,0.34831 v -0.76498 l 1.96289,-0.70312 h 0.10091 z"
       style="font-weight:bold;font-size:6.66666651px;font-family:Roboto, sans-serif;letter-spacing:1px;fill:#333333"
       id="path569" />
    <path
       d="m 109.43555,164.5 h -0.94076 v -3.6263 l -1.12305,0.34831 v -0.76498 l 1.9629,-0.70312 h 0.10091 z"
       style="font-weight:bold;font-size:6.66666651px;font-family:Roboto, sans-serif;letter-spacing:1px;fill:#333333"
       id="path571" />
  </g>
  <g
     id="use189"
     transform="translate(65,179)">
    <g
       id="g368"
       transform="translate(20,20)">
      <path
         transform="rotate(-90,-5.75,-5.75)"
         style="stroke:#333333;stroke-width:1"
         d="M 0,0 H 4"
         id="polyline358" />
      <path
         id="path360"
         transform="rotate(20)"
         d="M 0,-13.5 A 13.5,13.5 0 0 1 13.5,0"
         inkscape:connector-curvature="0"
         style="fill:none;stroke:#333333;stroke-width:0.5;stroke-linecap:round" />
      <path
         id="path362"
         transform="rotate(43)"
         d="M 0,-13.5 A 13.5,13.5 0 0 1 13.5,0"
         inkscape:connector-curvature="0"
         style="fill:none;stroke:#333333;stroke-width:0.5;stroke-linecap:round" />
      <path
         id="path364"
         transform="rotate(-20)"
         d="M 0,-13.5 A 13.5,13.5 0 0 0 -13.5,0"
         inkscape:connector-curvature="0"
         style="fill:none;stroke:#333333;stroke-width:0.5;stroke-linecap:round" />
      <path
         id="path366"
         transform="rotate(-43)"
         d="M 0,-13.5 A 13.5,13.5 0 0 0 -13.5,0"
         inkscape:connector-curvature="0"
         style="fill:none;stroke:#333333;stroke-width:0.5;stroke-linecap:round" />
    </g>
  </g>
  <g
     aria-label="12"
     style="font-weight:bold;font-size:6.66666651px;font-family:Roboto, sans-serif;letter-spacing:1px;fill:#333333"
     id="text191">
    <path
       d="m 104.60742,201.5 h -0.94075 v -3.6263 l -1.12305,0.34831 v -0.76498 l 1.96289,-0.70312 h 0.10091 z"
       style="font-weight:bold;font-size:6.66666651px;font-family:Roboto, sans-serif;letter-spacing:1px;fill:#333333"
       id="path575" />
    <path
       d="m 110.39909,201.5 h -3.2487 v -0.64453 l 1.5332,-1.63412 q 0.31576,-0.34505 0.4655,-0.60221 0.15299,-0.25716 0.15299,-0.48828 0,-0.31576 -0.1595,-0.49479 -0.15951,-0.18229 -0.45573,-0.18229 -0.31901,0 -0.50456,0.22135 Q 108,197.89323 108,198.2513 h -0.94401 q 0,-0.43294 0.20508,-0.79101 0.20833,-0.35808 0.58594,-0.5599 0.3776,-0.20508 0.85611,-0.20508 0.73243,0 1.13607,0.35157 0.4069,0.35156 0.4069,0.99283 0,0.35157 -0.18229,0.71615 -0.18229,0.36458 -0.625,0.84961 l -1.07747,1.13607 h 2.03776 z"
       style="font-weight:bold;font-size:6.66666651px;font-family:Roboto, sans-serif;letter-spacing:1px;fill:#333333"
       id="path577" />
  </g>
  <g
     id="use195"
     transform="translate(65,216)">
    <g
       id="g354"
       transform="translate(20,20)">
      <path
         transform="rotate(-90,-5.75,-5.75)"
         style="stroke:#333333;stroke-width:1"
         d="M 0,0 H 4"
         id="polyline344" />
      <path
         id="path346"
         transform="rotate(20)"
         d="M 0,-13.5 A 13.5,13.5 0 0 1 13.5,0"
         inkscape:connector-curvature="0"
         style="fill:none;stroke:#333333;stroke-width:0.5;stroke-linecap:round" />
      <path
         id="path348"
         transform="rotate(43)"
         d="M 0,-13.5 A 13.5,13.5 0 0 1 13.5,0"
         inkscape:connector-curvature="0"
         style="fill:none;stroke:#333333;stroke-width:0.5;stroke-linecap:round" />
      <path
         id="path350"
         transform="rotate(-20)"
         d="M 0,-13.5 A 13.5,13.5 0 0 0 -13.5,0"
         inkscape:connector-curvature="0"
         style="fill:none;stroke:#333333;stroke-width:0.5;stroke-linecap:round" />
      <path
         id="path352"
         transform="rotate(-43)"
         d="M 0,-13.5 A 13.5,13.5 0 0 0 -13.5,0"
         inkscape:connector-curvature="0"
         style="fill:none;stroke:#333333;stroke-width:0.5;stroke-linecap:round" />
    </g>
  </g>
  <g
     aria-label="13"
     style="font-weight:bold;font-size:6.66666651px;font-family:Roboto, sans-serif;letter-spacing:1px;fill:#333333"
     id="text197">
    <path
       d="m 104.60742,238.5 h -0.94075 v -3.6263 l -1.12305,0.34831 v -0.76498 l 1.96289,-0.70312 h 0.10091 z"
       style="font-weight:bold;font-size:6.66666651px;font-family:Roboto, sans-serif;letter-spacing:1px;fill:#333333"
       id="path581" />
    <path
       d="m 108.10742,235.71354 h 0.5013 q 0.35808,0 0.5306,-0.17903 0.17253,-0.17904 0.17253,-0.47527 0,-0.28645 -0.17253,-0.44596 -0.16927,-0.1595 -0.46875,-0.1595 -0.27018,0 -0.45247,0.14974 -0.18229,0.14648 -0.18229,0.38411 h -0.94076 q 0,-0.37109 0.19857,-0.66406 0.20182,-0.29623 0.5599,-0.46224 0.36132,-0.16602 0.79427,-0.16602 0.75195,0 1.17838,0.36133 0.42643,0.35807 0.42643,0.98958 0,0.32552 -0.19856,0.59896 -0.19857,0.27344 -0.52084,0.41992 0.40039,0.14323 0.59571,0.42969 0.19856,0.28646 0.19856,0.67709 0,0.63151 -0.46224,1.01236 -0.45898,0.38086 -1.21744,0.38086 -0.70964,0 -1.16211,-0.37434 -0.44922,-0.37435 -0.44922,-0.98959 h 0.94075 q 0,0.26693 0.19857,0.4362 0.20182,0.16927 0.49479,0.16927 0.33529,0 0.52409,-0.17578 0.19206,-0.17904 0.19206,-0.47201 0,-0.70963 -0.78125,-0.70963 h -0.49805 z"
       style="font-weight:bold;font-size:6.66666651px;font-family:Roboto, sans-serif;letter-spacing:1px;fill:#333333"
       id="path583" />
  </g>
  <g
     id="use201"
     transform="translate(65,253)">
    <g
       id="g340"
       transform="translate(20,20)">
      <path
         transform="rotate(-90,-5.75,-5.75)"
         style="stroke:#333333;stroke-width:1"
         d="M 0,0 H 4"
         id="polyline330" />
      <path
         id="path332"
         transform="rotate(20)"
         d="M 0,-13.5 A 13.5,13.5 0 0 1 13.5,0"
         inkscape:connector-curvature="0"
         style="fill:none;stroke:#333333;stroke-width:0.5;stroke-linecap:round" />
      <path
         id="path334"
         transform="rotate(43)"
         d="M 0,-13.5 A 13.5,13.5 0 0 1 13.5,0"
         inkscape:connector-curvature="0"
         style="fill:none;stroke:#333333;stroke-width:0.5;stroke-linecap:round" />
      <path
         id="path336"
         transform="rotate(-20)"
         d="M 0,-13.5 A 13.5,13.5 0 0 0 -13.5,0"
         inkscape:connector-curvature="0"
         style="fill:none;stroke:#333333;stroke-width:0.5;stroke-linecap:round" />
      <path
         id="path338"
         transform="rotate(-43)"
         d="M 0,-13.5 A 13.5,13.5 0 0 0 -13.5,0"
         inkscape:connector-curvature="0"
         style="fill:none;stroke:#333333;stroke-width:0.5;stroke-linecap:round" />
    </g>
  </g>
  <g
     aria-label="14"
     style="font-weight:bold;font-size:6.66666651px;font-family:Roboto, sans-serif;letter-spacing:1px;fill:#333333"
     id="text203">
    <path
       d="m 104.60742,275.5 h -0.94075 v -3.6263 l -1.12305,0.34831 v -0.76498 l 1.96289,-0.70312 h 0.10091 z"
       style="font-weight:bold;font-size:6.66666651px;font-family:Roboto, sans-serif;letter-spacing:1px;fill:#333333"
       id="path587" />
    <path
       d="m 109.93359,273.71615 h 0.53711 v 0.75846 h -0.53711 V 275.5 h -0.94075 v -1.02539 h -1.94336 l -0.0423,-0.59245 1.97591,-3.12174 h 0.95052 z m -1.98893,0 h 1.04818 v -1.67318 l -0.0619,0.10742 z"
       style="font-weight:bold;font-size:6.66666651px;font-family:Roboto, sans-serif;letter-spacing:1px;fill:#333333"
       id="path589" />
  </g>
  <g
     id="use207"
     transform="translate(65,290)">
    <g
       id="g326"
       transform="translate(20,20)">
      <path
         transform="rotate(-90,-5.75,-5.75)"
         style="stroke:#333333;stroke-width:1"
         d="M 0,0 H 4"
         id="polyline316" />
      <path
         id="path318"
         transform="rotate(20)"
         d="M 0,-13.5 A 13.5,13.5 0 0 1 13.5,0"
         inkscape:connector-curvature="0"
         style="fill:none;stroke:#333333;stroke-width:0.5;stroke-linecap:round" />
      <path
         id="path320"
         transform="rotate(43)"
         d="M 0,-13.5 A 13.5,13.5 0 0 1 13.5,0"
         inkscape:connector-curvature="0"
         style="fill:none;stroke:#333333;stroke-width:0.5;stroke-linecap:round" />
      <path
         id="path322"
         transform="rotate(-20)"
         d="M 0,-13.5 A 13.5,13.5 0 0 0 -13.5,0"
         inkscape:connector-curvature="0"
         style="fill:none;stroke:#333333;stroke-width:0.5;stroke-linecap:round" />
      <path
         id="path324"
         transform="rotate(-43)"
         d="M 0,-13.5 A 13.5,13.5 0 0 0 -13.5,0"
         inkscape:connector-curvature="0"
         style="fill:none;stroke:#333333;stroke-width:0.5;stroke-linecap:round" />
    </g>
  </g>
  <g
     aria-label="15"
     style="font-weight:bold;font-size:6.66666651px;font-family:Roboto, sans-serif;letter-spacing:1px;fill:#333333"
     id="text209">
    <path
       d="m 104.60742,312.5 h -0.94075 v -3.6263 l -1.12305,0.34831 v -0.76498 l 1.96289,-0.70312 h 0.10091 z"
       style="font-weight:bold;font-size:6.66666651px;font-family:Roboto, sans-serif;letter-spacing:1px;fill:#333333"
       id="path593" />
    <path
       d="m 107.29036,310.16927 0.27344,-2.40885 h 2.65625 v 0.7845 h -1.88476 l -0.11719,1.01888 q 0.33529,-0.17903 0.71289,-0.17903 0.67708,0 1.0612,0.41992 0.38411,0.41992 0.38411,1.17513 0,0.45898 -0.19531,0.82357 -0.19206,0.36132 -0.55339,0.56315 -0.36132,0.19856 -0.85286,0.19856 -0.42969,0 -0.79753,-0.17252 -0.36784,-0.17578 -0.58268,-0.49154 -0.21159,-0.31575 -0.22461,-0.7194 h 0.93099 q 0.0293,0.29622 0.20508,0.46224 0.17904,0.16276 0.46549,0.16276 0.31901,0 0.49154,-0.22786 0.17253,-0.23112 0.17253,-0.65105 0,-0.40364 -0.19857,-0.61849 -0.19857,-0.21484 -0.56315,-0.21484 -0.33529,0 -0.54362,0.17578 l -0.0911,0.0846 z"
       style="font-weight:bold;font-size:6.66666651px;font-family:Roboto, sans-serif;letter-spacing:1px;fill:#333333"
       id="path595" />
  </g>
  <g
     id="use213"
     transform="translate(65,327)">
    <g
       id="g312"
       transform="translate(20,20)">
      <path
         transform="rotate(-90,-5.75,-5.75)"
         style="stroke:#333333;stroke-width:1"
         d="M 0,0 H 4"
         id="polyline302" />
      <path
         id="path304"
         transform="rotate(20)"
         d="M 0,-13.5 A 13.5,13.5 0 0 1 13.5,0"
         inkscape:connector-curvature="0"
         style="fill:none;stroke:#333333;stroke-width:0.5;stroke-linecap:round" />
      <path
         id="path306"
         transform="rotate(43)"
         d="M 0,-13.5 A 13.5,13.5 0 0 1 13.5,0"
         inkscape:connector-curvature="0"
         style="fill:none;stroke:#333333;stroke-width:0.5;stroke-linecap:round" />
      <path
         id="path308"
         transform="rotate(-20)"
         d="M 0,-13.5 A 13.5,13.5 0 0 0 -13.5,0"
         inkscape:connector-curvature="0"
         style="fill:none;stroke:#333333;stroke-width:0.5;stroke-linecap:round" />
      <path
         id="path310"
         transform="rotate(-43)"
         d="M 0,-13.5 A 13.5,13.5 0 0 0 -13.5,0"
         inkscape:connector-curvature="0"
         style="fill:none;stroke:#333333;stroke-width:0.5;stroke-linecap:round" />
    </g>
  </g>
  <g
     aria-label="16"
     style="font-weight:bold;font-size:6.66666651px;font-family:Roboto, sans-serif;letter-spacing:1px;fill:#333333"
     id="text215">
    <path
       d="m 104.60742,349.5 h -0.94075 v -3.6263 l -1.12305,0.34831 v -0.76498 l 1.96289,-0.70312 h 0.10091 z"
       style="font-weight:bold;font-size:6.66666651px;font-family:Roboto, sans-serif;letter-spacing:1px;fill:#333333"
       id="path599" />
    <path
       d="m 109.70247,344.71159 v 0.77474 h -0.0911 q -0.63802,0.01 -1.02865,0.33203 -0.38737,0.32227 -0.46549,0.89518 0.3776,-0.38411 0.95377,-0.38411 0.61849,0 0.98308,0.44271 0.36458,0.4427 0.36458,1.16536 0,0.46224 -0.20182,0.83659 -0.19857,0.37435 -0.56641,0.58268 -0.36458,0.20833 -0.82682,0.20833 -0.7487,0 -1.21094,-0.52083 -0.45898,-0.52083 -0.45898,-1.38997 v -0.33854 q 0,-0.77149 0.28971,-1.36068 0.29297,-0.59245 0.83659,-0.91472 0.54687,-0.32552 1.26627,-0.32877 z m -0.91796,2.37305 q -0.22787,0 -0.41342,0.12044 -0.18554,0.11719 -0.27343,0.3125 v 0.28646 q 0,0.472 0.18554,0.73893 0.18555,0.26367 0.52084,0.26367 0.30273,0 0.48828,-0.23763 0.1888,-0.24088 0.1888,-0.62174 0,-0.38737 -0.1888,-0.625 -0.1888,-0.23763 -0.50781,-0.23763 z"
       style="font-weight:bold;font-size:6.66666651px;font-family:Roboto, sans-serif;letter-spacing:1px;fill:#333333"
       id="path601" />
  </g>
</svg>
