<?xml version="1.0" encoding="UTF-8" standalone="no"?>
<svg xmlns:dc="http://purl.org/dc/elements/1.1/" xmlns:cc="http://creativecommons.org/ns#" xmlns:rdf="http://www.w3.org/1999/02/22-rdf-syntax-ns#" xmlns:svg="http://www.w3.org/2000/svg" xmlns="http://www.w3.org/2000/svg" xmlns:sodipodi="http://sodipodi.sourceforge.net/DTD/sodipodi-0.dtd" xmlns:inkscape="http://www.inkscape.org/namespaces/inkscape" inkscape:version="1.0 (4035a4f, 2020-05-01)" sodipodi:docname="svg_render_tmp.svg" id="svg279" viewBox="0 0 240 380" height="380" width="240" version="1.1">
  <metadata id="metadata283">
    <rdf:RDF>
      <cc:Work rdf:about="">
        <dc:format>image/svg+xml</dc:format>
        <dc:type rdf:resource="http://purl.org/dc/dcmitype/StillImage"/>
      </cc:Work>
    </rdf:RDF>
  </metadata>
  <sodipodi:namedview inkscape:current-layer="svg279" inkscape:window-maximized="0" inkscape:window-y="23" inkscape:window-x="0" inkscape:cy="190" inkscape:cx="120" inkscape:zoom="1.7605263" showgrid="false" id="namedview281" inkscape:window-height="480" inkscape:window-width="689" inkscape:pageshadow="2" inkscape:pageopacity="0" guidetolerance="10" gridtolerance="10" objecttolerance="10" borderopacity="1" bordercolor="#666666" pagecolor="#ffffff"/>
  
  <defs id="defs95">
    <symbol viewBox="0 0 16px 16px" id="knob16">
      <g id="g10" transform="translate(8 8)">
        <polyline id="polyline4" stroke="#00f" stroke-width="1" points="-3,0 3,0"/>
        <polyline id="polyline6" stroke="#00f" stroke-width="1" points="0,-3 0,3"/>
        <circle id="circle8" fill="none" stroke="#00f" stroke-width="1" r="7.5"/>
      </g>
    </symbol>
    <symbol viewBox="0 0 40px 40px" id="dial-channels-small">
      <g id="g45" transform="translate(20 20)">
        <text id="text13" transform="rotate(-240) translate(14 0) rotate(240) translate(-2 2)" font-size="5pt">1</text>
        <text id="text15" transform="rotate(-180) translate(14 0) rotate(180) translate(-2 2)" font-size="5pt">4</text>
        <text id="text17" transform="rotate(-100) translate(14 0) rotate(100) translate(-2 2)" font-size="5pt">8</text>
        <text id="text19" transform="rotate(-20) translate(13 0) rotate(20) translate(-2 2)" font-size="5pt">12</text>
        <text id="text21" transform="rotate(60) translate(13 0) rotate(-60) translate(-1.8 3)" font-size="5pt">16</text>
        <polyline id="polyline23" transform="rotate(-220) translate(10 0)" stroke="#333" stroke-width="0.3" points="0,0 2.5,0"/>
        <polyline id="polyline25" transform="rotate(-200) translate(10 0)" stroke="#333" stroke-width="0.3" points="0,0 2.5,0"/>
        <polyline id="polyline27" transform="rotate(-160) translate(10 0)" stroke="#333" stroke-width="0.3" points="0,0 2.5,0"/>
        <polyline id="polyline29" transform="rotate(-140) translate(10 0)" stroke="#333" stroke-width="0.3" points="0,0 2.5,0"/>
        <polyline id="polyline31" transform="rotate(-120) translate(10 0)" stroke="#333" stroke-width="0.3" points="0,0 2.5,0"/>
        <polyline id="polyline33" transform="rotate(-80) translate(10 0)" stroke="#333" stroke-width="0.3" points="0,0 2.5,0"/>
        <polyline id="polyline35" transform="rotate(-60) translate(10 0)" stroke="#333" stroke-width="0.3" points="0,0 2.5,0"/>
        <polyline id="polyline37" transform="rotate(-40) translate(10 0)" stroke="#333" stroke-width="0.3" points="0,0 2.5,0"/>
        <polyline id="polyline39" transform="rotate(0) translate(10 0)" stroke="#333" stroke-width="0.3" points="0,0 2.5,0"/>
        <polyline id="polyline41" transform="rotate(20) translate(10 0)" stroke="#333" stroke-width="0.3" points="0,0 2.5,0"/>
        <polyline id="polyline43" transform="rotate(40) translate(10 0)" stroke="#333" stroke-width="0.3" points="0,0 2.5,0"/>
      </g>
    </symbol>
    <symbol viewBox="0 0 40px 40px" id="dial-centertick">
      <g id="g60" transform="translate(20 20)">
        <g id="g50" transform="rotate(-90) translate(10 0)">
          <polyline id="polyline48" stroke="#333" stroke-width="1" points="0,0 4,0"/>
        </g>
        <path id="path52" transform="rotate(20)" fill="none" stroke-linecap="round" stroke-width="0.5" stroke="#333" d="M 0 -12.5 A 12.5 12.5 0 0 1 12.5 0"/>
        <path id="path54" transform="rotate(43)" fill="none" stroke-linecap="round" stroke-width="0.5" stroke="#333" d="M 0 -12.5 A 12.5 12.5 0 0 1 12.5 0"/>
        <path id="path56" transform="rotate(-20)" fill="none" stroke-linecap="round" stroke-width="0.5" stroke="#333" d="M 0 -12.5 A 12.5 12.5 0 0 0 -12.5 0"/>
        <path id="path58" transform="rotate(-43)" fill="none" stroke-linecap="round" stroke-width="0.5" stroke="#333" d="M 0 -12.5 A 12.5 12.5 0 0 0 -12.5 0"/>
      </g>
    </symbol>
    <symbol viewBox="0 0 40px 40px" id="dial-mintick">
      <g id="g75" transform="translate(20 20)">
        <g id="g65" transform="rotate(-240) translate(10 0)">
          <polyline id="polyline63" stroke="#333" stroke-width="1" points="0,0 4,0"/>
        </g>
        <path id="path67" transform="rotate(0)" fill="none" stroke-linecap="round" stroke-width="0.5" stroke="#333" d="M 0 -12.5 A 12.5 12.5 0 0 1 12.5 0"/>
        <path id="path69" transform="rotate(43)" fill="none" stroke-linecap="round" stroke-width="0.5" stroke="#333" d="M 0 -12.5 A 12.5 12.5 0 0 1 12.5 0"/>
        <path id="path71" transform="rotate(0)" fill="none" stroke-linecap="round" stroke-width="0.5" stroke="#333" d="M 0 -12.5 A 12.5 12.5 0 0 0 -12.5 0"/>
        <path id="path73" transform="rotate(-43)" fill="none" stroke-linecap="round" stroke-width="0.5" stroke="#333" d="M 0 -12.5 A 12.5 12.5 0 0 0 -12.5 0"/>
      </g>
    </symbol>
    <symbol viewBox="0 0 24px 24px" id="input">
      <g id="g82" transform="translate(12 12)">
        <circle id="circle78" fill="#0f0" stroke="#0f0" stroke-width="1" r="5" cy="0" cx="0"/>
        <circle id="circle80" fill="none" stroke="#0f0" stroke-width="3" r="10.5" cy="0" cx="0"/>
      </g>
    </symbol>
    <symbol viewBox="0 0 24px 24px" id="output">
      <g id="g89" transform="translate(12 12)">
        <circle id="circle85" fill="#f00" stroke="#f00" stroke-width="1" r="5" cy="0" cx="0"/>
        <circle id="circle87" fill="none" stroke="#f00" stroke-width="3" r="10.5" cy="0" cx="0"/>
      </g>
    </symbol>
    <symbol viewBox="0 0 1.1px 1.1px" id="light-tiny">
      <rect id="rect92" fill="#0f0" height="3.2" width="3.2"/>
    </symbol>
  </defs>
  <path d="M 0,0 H 240 V 380 H 0 Z" style="fill:#dddddd" id="rect97"/>
  <path d="M 1,1 H 239 V 379 H 1 V 1" style="fill:none;stroke:#e4e4e4;stroke-width:0.5" id="polyline99"/>
  <path d="m 0.5,0.5 h 239 v 379 H 0.5 V 0.5" style="fill:none;stroke:#ebebeb;stroke-width:0.8" id="polyline101"/>
  <path d="M 0,0 H 240 V 380 H 0 V 0" style="fill:none;stroke:#f2f2f2;stroke-width:1" id="polyline103"/>
  <!-- <rect width="60" height="20" fill="#0f0" transform="translate(0 0)" /> -->
  <!-- <rect width="60" height="20" fill="#0f0" transform="translate(180 0)" /> -->
  <!-- <rect width="80" height="20" fill="#0f0" transform="translate(0 360)" /> -->
  <!-- <rect width="80" height="20" fill="#0f0" transform="translate(160 360)" /> -->
  <g class="title" style="font-weight:normal;font-size:16px;font-family:Comfortaa, sans-serif;letter-spacing:4px;fill:#333333" id="text105" aria-label="POLYOFF16">
    <path id="path1093" style="font-weight:normal;font-size:16px;font-family:Comfortaa, sans-serif;letter-spacing:4px;fill:#333333" d="M 59.224,19 Q 58.952,19 58.776,18.824 58.6,18.648 58.6,18.376 V 7.128 q 0,-0.272 0.176,-0.448 0.176,-0.176 0.448,-0.176 h 3.2 q 1.168,0 2.08,0.528 0.928,0.512 1.44,1.44 0.512,0.912 0.512,2.096 0,1.168 -0.512,2.08 -0.512,0.912 -1.44,1.424 -0.912,0.512 -2.08,0.512 h -2.576 v 3.792 q 0,0.272 -0.176,0.448 Q 59.496,19 59.224,19 Z m 3.2,-5.616 q 0.816,0 1.456,-0.352 0.64,-0.368 0.992,-1.008 0.368,-0.64 0.368,-1.456 0,-0.832 -0.368,-1.472 Q 64.52,8.44 63.88,8.072 63.24,7.704 62.424,7.704 h -2.576 v 5.68 z"/>
    <path id="path1095" style="font-weight:normal;font-size:16px;font-family:Comfortaa, sans-serif;letter-spacing:4px;fill:#333333" d="m 78.15725,19.16 q -1.824,0 -3.28,-0.832 -1.456,-0.832 -2.288,-2.288 -0.816,-1.472 -0.816,-3.296 0,-1.824 0.816,-3.28 0.832,-1.456 2.288,-2.288 1.456,-0.832 3.28,-0.832 1.808,0 3.264,0.832 1.472,0.832 2.288,2.288 0.832,1.456 0.832,3.28 0,1.824 -0.832,3.296 -0.816,1.456 -2.288,2.288 -1.456,0.832 -3.264,0.832 z m 0,-1.184 q 1.456,0 2.624,-0.688 1.184,-0.688 1.856,-1.872 0.672,-1.2 0.672,-2.672 0,-1.456 -0.672,-2.64 -0.672,-1.2 -1.856,-1.888 -1.168,-0.688 -2.624,-0.688 -1.472,0 -2.656,0.688 -1.168,0.688 -1.84,1.888 -0.672,1.184 -0.672,2.64 0,1.472 0.672,2.672 0.672,1.184 1.84,1.872 1.184,0.688 2.656,0.688 z"/>
    <path id="path1097" style="font-weight:normal;font-size:16px;font-family:Comfortaa, sans-serif;letter-spacing:4px;fill:#333333" d="m 91.75525,19 q -0.256,0 -0.448,-0.176 -0.176,-0.192 -0.176,-0.448 V 7.128 q 0,-0.256 0.176,-0.432 0.192,-0.192 0.448,-0.192 0.272,0 0.448,0.176 0.176,0.176 0.176,0.448 v 10.688 h 6.256 q 0.272,0 0.448,0.176 0.176,0.16 0.176,0.416 0,0.256 -0.176,0.432 -0.176,0.16 -0.448,0.16 z"/>
    <path id="path1099" style="font-weight:normal;font-size:16px;font-family:Comfortaa, sans-serif;letter-spacing:4px;fill:#333333" d="m 111.3065,6.504 q 0.24,0 0.384,0.176 0.16,0.16 0.16,0.4 0,0.224 -0.112,0.4 l -4.368,6.896 v 4 q 0,0.256 -0.176,0.448 -0.176,0.176 -0.448,0.176 -0.256,0 -0.448,-0.176 -0.176,-0.192 -0.176,-0.448 v -4 l -4.352,-6.896 q -0.128,-0.208 -0.128,-0.4 0,-0.24 0.176,-0.4 0.176,-0.176 0.432,-0.176 0.176,0 0.288,0.08 0.128,0.064 0.24,0.224 l 3.984,6.416 3.968,-6.384 q 0.128,-0.176 0.256,-0.256 0.128,-0.08 0.32,-0.08 z"/>
    <path id="path1101" style="font-weight:normal;font-size:16px;font-family:Comfortaa, sans-serif;letter-spacing:4px;fill:#333333" d="m 122.501,19.16 q -1.824,0 -3.28,-0.832 -1.456,-0.832 -2.288,-2.288 -0.816,-1.472 -0.816,-3.296 0,-1.824 0.816,-3.28 0.832,-1.456 2.288,-2.288 1.456,-0.832 3.28,-0.832 1.808,0 3.264,0.832 1.472,0.832 2.288,2.288 0.832,1.456 0.832,3.28 0,1.824 -0.832,3.296 -0.816,1.456 -2.288,2.288 -1.456,0.832 -3.264,0.832 z m 0,-1.184 q 1.456,0 2.624,-0.688 1.184,-0.688 1.856,-1.872 0.672,-1.2 0.672,-2.672 0,-1.456 -0.672,-2.64 -0.672,-1.2 -1.856,-1.888 -1.168,-0.688 -2.624,-0.688 -1.472,0 -2.656,0.688 -1.168,0.688 -1.84,1.888 -0.672,1.184 -0.672,2.64 0,1.472 0.672,2.672 0.672,1.184 1.84,1.872 1.184,0.688 2.656,0.688 z"/>
    <path id="path1103" style="font-weight:normal;font-size:16px;font-family:Comfortaa, sans-serif;letter-spacing:4px;fill:#333333" d="m 135.107,19 q -0.256,0 -0.448,-0.176 -0.176,-0.192 -0.176,-0.448 V 7.128 q 0,-0.272 0.176,-0.448 0.192,-0.176 0.448,-0.176 h 7.504 q 0.272,0 0.448,0.176 0.176,0.176 0.176,0.432 0,0.256 -0.176,0.432 -0.176,0.16 -0.448,0.16 h -6.88 v 4.416 h 5.008 q 0.272,0 0.448,0.176 0.176,0.16 0.176,0.432 0,0.256 -0.176,0.432 -0.176,0.176 -0.448,0.176 h -5.008 v 5.04 q 0,0.256 -0.176,0.448 Q 135.379,19 135.107,19 Z"/>
    <path id="path1105" style="font-weight:normal;font-size:16px;font-family:Comfortaa, sans-serif;letter-spacing:4px;fill:#333333" d="m 149.107,19 q -0.256,0 -0.448,-0.176 -0.176,-0.192 -0.176,-0.448 V 7.128 q 0,-0.272 0.176,-0.448 0.192,-0.176 0.448,-0.176 h 7.504 q 0.272,0 0.448,0.176 0.176,0.176 0.176,0.432 0,0.256 -0.176,0.432 -0.176,0.16 -0.448,0.16 h -6.88 v 4.416 h 5.008 q 0.272,0 0.448,0.176 0.176,0.16 0.176,0.432 0,0.256 -0.176,0.432 -0.176,0.176 -0.448,0.176 h -5.008 v 5.04 q 0,0.256 -0.176,0.448 Q 149.379,19 149.107,19 Z"/>
    <path id="path1107" style="font-weight:normal;font-size:16px;font-family:Comfortaa, sans-serif;letter-spacing:4px;fill:#333333" d="m 165.699,19 q -0.256,0 -0.448,-0.176 -0.176,-0.192 -0.176,-0.448 v -10.4 l -1.6,0.56 q -0.16,0.08 -0.32,0.08 -0.272,0 -0.448,-0.16 -0.176,-0.176 -0.176,-0.448 0,-0.464 0.4,-0.592 l 2.464,-0.848 q 0.24,-0.08 0.32,-0.08 0.256,0 0.432,0.176 0.176,0.176 0.176,0.448 v 11.264 q 0,0.256 -0.176,0.448 Q 165.971,19 165.699,19 Z"/>
    <path id="path1109" style="font-weight:normal;font-size:16px;font-family:Comfortaa, sans-serif;letter-spacing:4px;fill:#333333" d="m 176.7375,11.48 q 1.056,0 1.904,0.496 0.864,0.48 1.344,1.344 0.496,0.848 0.496,1.92 0,1.072 -0.496,1.936 -0.48,0.848 -1.328,1.344 -0.848,0.48 -1.92,0.48 -1.072,0 -1.936,-0.48 -0.848,-0.496 -1.344,-1.344 -0.48,-0.864 -0.48,-1.936 0,-1.04 0.48,-1.92 l -0.016,0.016 3.952,-6.496 q 0.224,-0.336 0.56,-0.336 0.272,0 0.448,0.192 0.192,0.176 0.192,0.416 0,0.16 -0.096,0.336 l -2.512,4.096 q 0.32,-0.064 0.752,-0.064 z m -0.016,6.368 q 0.72,0 1.296,-0.336 0.592,-0.336 0.928,-0.928 0.336,-0.608 0.336,-1.344 0,-0.736 -0.336,-1.328 -0.336,-0.608 -0.928,-0.944 -0.576,-0.352 -1.296,-0.352 -0.72,0 -1.312,0.352 -0.576,0.336 -0.912,0.944 -0.336,0.592 -0.336,1.328 0,0.736 0.336,1.344 0.336,0.592 0.912,0.928 0.592,0.336 1.312,0.336 z"/>
  </g>
  <g class="brand" style="font-weight:bold;font-size:10.6667px;font-family:Audiowide, sans-serif;letter-spacing:2px;fill:#333333" id="text107" aria-label="BOGAUDIO">
    <path id="path1076" style="font-weight:bold;font-size:10.6667px;font-family:Audiowide, sans-serif;letter-spacing:2px;fill:#333333" d="m 88.239609,372.35937 q 0,0.25 -0.08854,0.53646 -0.08333,0.28646 -0.28125,0.53125 -0.192709,0.24479 -0.50521,0.41146 Q 87.052106,374 86.598979,374 h -5.140641 q -0.145834,0 -0.270834,-0.0521 -0.125001,-0.0521 -0.218751,-0.14063 -0.08854,-0.0937 -0.140625,-0.21875 -0.05208,-0.125 -0.05208,-0.27083 v -6.10419 q 0,-0.14063 0.05208,-0.26563 0.05208,-0.125 0.140625,-0.21875 0.09375,-0.0937 0.218751,-0.14583 0.125,-0.0521 0.270834,-0.0521 h 4.531264 q 0.250001,0 0.53646,0.0885 0.28646,0.0885 0.531252,0.28646 0.250001,0.19271 0.41146,0.50521 0.166667,0.3125 0.166667,0.76562 v 0.25521 q 0,0.35938 -0.119792,0.77605 -0.119792,0.41146 -0.385418,0.78125 0.229167,0.14063 0.427085,0.33854 0.203125,0.19792 0.354167,0.45834 0.151042,0.26042 0.239584,0.58854 0.08854,0.32813 0.08854,0.72396 z m -1.354171,-0.26042 q 0,-0.26562 -0.08333,-0.47396 -0.08333,-0.21354 -0.234376,-0.36458 -0.151042,-0.15104 -0.364584,-0.22917 -0.213543,-0.0833 -0.479169,-0.0833 h -3.052093 v -1.36459 h 2.442716 q 0.265626,0 0.479169,-0.0781 0.213542,-0.0833 0.364584,-0.23437 0.151042,-0.15104 0.229168,-0.35938 0.08333,-0.21354 0.08333,-0.47917 v -0.25521 q 0,-0.29166 -0.281251,-0.29166 h -3.859387 v 4.76043 h 4.468764 q 0.03646,0 0.08854,-0.005 0.05208,-0.005 0.09375,-0.0312 0.04167,-0.026 0.07292,-0.0885 0.03125,-0.0625 0.03125,-0.17188 z"/>
    <path id="path1078" style="font-weight:bold;font-size:10.6667px;font-family:Audiowide, sans-serif;letter-spacing:2px;fill:#333333" d="m 99.250055,370.97916 q 0,0.68229 -0.234376,1.25521 -0.234376,0.57292 -0.651044,0.98959 -0.416668,0.41666 -0.989586,0.65104 -0.56771,0.22917 -1.239587,0.22917 h -1.833339 q -0.671878,0 -1.244796,-0.22917 -0.572918,-0.23438 -0.989586,-0.65104 -0.416668,-0.41667 -0.656253,-0.98959 -0.234375,-0.57292 -0.234375,-1.25521 v -1.42709 q 0,-0.67709 0.234375,-1.25 0.239585,-0.57813 0.656253,-0.98959 0.416668,-0.41667 0.989586,-0.65104 0.572918,-0.23438 1.244796,-0.23438 h 1.833339 q 0.671877,0 1.239587,0.23438 0.572918,0.23437 0.989586,0.65104 0.416668,0.41146 0.651044,0.98959 0.234376,0.57291 0.234376,1.25 z m -1.354171,-1.42709 q 0,-0.40104 -0.130209,-0.72396 -0.125,-0.32813 -0.359376,-0.55729 -0.229167,-0.23438 -0.557293,-0.35938 -0.322918,-0.13021 -0.713544,-0.13021 h -1.833339 q -0.395835,0 -0.723961,0.13021 -0.322918,0.125 -0.557293,0.35938 -0.234376,0.22916 -0.364585,0.55729 -0.125,0.32292 -0.125,0.72396 v 1.42709 q 0,0.40104 0.125,0.72917 0.130209,0.32291 0.364585,0.55729 0.234375,0.22917 0.557293,0.35938 0.328126,0.125 0.723961,0.125 h 1.822922 q 0.395835,0 0.718752,-0.125 0.328126,-0.13021 0.562502,-0.35938 0.234376,-0.23438 0.359376,-0.55729 0.130209,-0.32813 0.130209,-0.72917 z"/>
    <path id="path1080" style="font-weight:bold;font-size:10.6667px;font-family:Audiowide, sans-serif;letter-spacing:2px;fill:#333333" d="m 109.96883,373.31771 q 0,0.14583 -0.0521,0.27083 -0.0521,0.125 -0.14583,0.21875 -0.0885,0.0885 -0.21355,0.14063 -0.125,0.0521 -0.27083,0.0521 h -4.88543 q -0.1875,0 -0.40625,-0.0417 -0.21355,-0.0469 -0.42709,-0.14062 -0.20833,-0.0937 -0.40104,-0.23959 -0.19271,-0.15104 -0.34375,-0.35937 -0.14584,-0.21354 -0.23438,-0.48959 -0.0885,-0.28125 -0.0885,-0.63021 v -3.66668 q 0,-0.1875 0.0417,-0.40104 0.0469,-0.21875 0.14062,-0.42708 0.0937,-0.21355 0.24479,-0.40625 0.15105,-0.19271 0.35938,-0.33855 0.21354,-0.15104 0.48959,-0.23958 0.27604,-0.0885 0.625,-0.0885 h 5.50522 v 1.35417 h -5.50522 q -0.26563,0 -0.40625,0.14062 -0.14063,0.14063 -0.14063,0.41667 v 3.65626 q 0,0.26042 0.14063,0.40625 0.14583,0.14063 0.40625,0.14063 h 4.21355 v -1.69792 h -3.60418 v -1.36459 h 4.27606 q 0.14583,0 0.27083,0.0573 0.125,0.0521 0.21355,0.14584 0.0937,0.0937 0.14583,0.21875 0.0521,0.11979 0.0521,0.26041 z"/>
    <path id="path1082" style="font-weight:bold;font-size:10.6667px;font-family:Audiowide, sans-serif;letter-spacing:2px;fill:#333333" d="m 120.71886,374 h -1.35417 v -1.83334 h -4.76043 V 374 h -1.35417 v -3.73439 q 0,-0.81771 0.28125,-1.50521 0.28125,-0.6875 0.78125,-1.1823 0.5,-0.49479 1.1823,-0.77083 0.68229,-0.27604 1.48958,-0.27604 h 3.0521 q 0.14062,0 0.26562,0.0521 0.125,0.0521 0.21875,0.14583 0.0937,0.0937 0.14584,0.21875 0.0521,0.125 0.0521,0.26563 z m -6.1146,-3.18751 h 4.76043 v -2.92709 h -2.38022 q -0.0625,0 -0.26562,0.0208 -0.19792,0.0156 -0.46354,0.0885 -0.26042,0.0729 -0.55209,0.22396 -0.29167,0.15104 -0.53646,0.41667 -0.24479,0.26563 -0.40625,0.66667 -0.15625,0.39583 -0.15625,0.96354 z"/>
    <path id="path1084" style="font-weight:bold;font-size:10.6667px;font-family:Audiowide, sans-serif;letter-spacing:2px;fill:#333333" d="m 131.60431,373.31771 q 0,0.14583 -0.0521,0.27083 -0.0521,0.125 -0.14583,0.21875 -0.0937,0.0885 -0.21875,0.14063 -0.125,0.0521 -0.26563,0.0521 h -3.05209 q -0.43229,0 -0.875,-0.0937 -0.44271,-0.0937 -0.85938,-0.28646 -0.41146,-0.19792 -0.77604,-0.5 -0.36459,-0.30209 -0.64063,-0.71355 -0.27084,-0.41666 -0.42709,-0.94791 -0.15625,-0.53646 -0.15625,-1.19272 v -3.73438 h 1.35417 v 3.73438 q 0,0.57292 0.15625,0.96876 0.16146,0.39583 0.40626,0.66146 0.24479,0.26562 0.53646,0.41666 0.29166,0.15105 0.55208,0.22396 0.26563,0.0729 0.46354,0.0937 0.20313,0.0156 0.26563,0.0156 h 2.38022 v -6.1146 h 1.35417 z"/>
    <path id="path1086" style="font-weight:bold;font-size:10.6667px;font-family:Audiowide, sans-serif;letter-spacing:2px;fill:#333333" d="m 142.63558,370.87499 q 0,0.68229 -0.23958,1.25521 -0.23438,0.57292 -0.65105,0.98959 -0.41666,0.41146 -0.98958,0.64583 Q 140.18245,374 139.51057,374 h -3.65626 q -0.14583,0 -0.27083,-0.0521 -0.125,-0.0521 -0.21875,-0.14063 -0.0885,-0.0937 -0.14063,-0.21875 -0.0521,-0.125 -0.0521,-0.27083 v -6.10419 q 0,-0.14063 0.0521,-0.26563 0.0521,-0.125 0.14063,-0.21875 0.0937,-0.0937 0.21875,-0.14583 0.125,-0.0521 0.27083,-0.0521 h 3.65626 q 0.67188,0 1.2448,0.23437 0.57292,0.23438 0.98958,0.65105 0.41667,0.41146 0.65105,0.98958 0.23958,0.57292 0.23958,1.25001 z m -1.35417,-1.21875 q 0,-0.39584 -0.13021,-0.72396 -0.125,-0.32813 -0.35937,-0.5573 -0.23438,-0.23437 -0.56251,-0.35937 -0.32291,-0.13021 -0.71875,-0.13021 h -2.98438 v 4.76043 h 2.98438 q 0.39584,0 0.71875,-0.125 0.32813,-0.13021 0.56251,-0.35938 0.23437,-0.23437 0.35937,-0.55729 0.13021,-0.32813 0.13021,-0.72917 z"/>
    <path id="path1088" style="font-weight:bold;font-size:10.6667px;font-family:Audiowide, sans-serif;letter-spacing:2px;fill:#333333" d="m 147.33872,374 h -1.35417 v -7.46877 h 1.35417 z"/>
    <path id="path1090" style="font-weight:bold;font-size:10.6667px;font-family:Audiowide, sans-serif;letter-spacing:2px;fill:#333333" d="m 158.77104,370.97916 q 0,0.68229 -0.23438,1.25521 -0.23437,0.57292 -0.65104,0.98959 -0.41667,0.41666 -0.98959,0.65104 -0.56771,0.22917 -1.23958,0.22917 h -1.83334 q -0.67188,0 -1.2448,-0.22917 -0.57292,-0.23438 -0.98959,-0.65104 -0.41666,-0.41667 -0.65625,-0.98959 -0.23437,-0.57292 -0.23437,-1.25521 v -1.42709 q 0,-0.67709 0.23437,-1.25 0.23959,-0.57813 0.65625,-0.98959 0.41667,-0.41667 0.98959,-0.65104 0.57292,-0.23438 1.2448,-0.23438 h 1.83334 q 0.67187,0 1.23958,0.23438 0.57292,0.23437 0.98959,0.65104 0.41667,0.41146 0.65104,0.98959 0.23438,0.57291 0.23438,1.25 z m -1.35417,-1.42709 q 0,-0.40104 -0.13021,-0.72396 -0.125,-0.32813 -0.35938,-0.55729 -0.22916,-0.23438 -0.55729,-0.35938 -0.32292,-0.13021 -0.71354,-0.13021 h -1.83334 q -0.39584,0 -0.72396,0.13021 -0.32292,0.125 -0.5573,0.35938 -0.23437,0.22916 -0.36458,0.55729 -0.125,0.32292 -0.125,0.72396 v 1.42709 q 0,0.40104 0.125,0.72917 0.13021,0.32291 0.36458,0.55729 0.23438,0.22917 0.5573,0.35938 0.32812,0.125 0.72396,0.125 h 1.82292 q 0.39583,0 0.71875,-0.125 0.32813,-0.13021 0.5625,-0.35938 0.23438,-0.23438 0.35938,-0.55729 0.13021,-0.32813 0.13021,-0.72917 z"/>
  </g>
  <path d="m 104,369 h 3 v 3 h -3 z" style="fill:#dddddd" id="rect109"/>
  <path d="m 10.5,24 h 24 c 2.77,0 5,2.23 5,5 v 279 c 0,2.77 -2.23,5 -5,5 h -24 c -2.77,0 -5,-2.23 -5,-5 V 29 c 0,-2.77 2.23,-5 5,-5 z" style="fill:#fafafa" id="rect113"/>
  <g style="font-weight:bold;font-size:8px;font-family:Roboto, sans-serif;letter-spacing:1px;fill:#333333" id="text115" aria-label="IN/CV">
    <path id="path1063" style="font-weight:bold;font-size:8px;font-family:Roboto, sans-serif;letter-spacing:1px;fill:#333333" d="m 11.253906,308 h -1.171875 v -5.6875 h 1.171875 z"/>
    <path id="path1065" style="font-weight:bold;font-size:8px;font-family:Roboto, sans-serif;letter-spacing:1px;fill:#333333" d="m 17.960937,308 h -1.171875 l -2.281249,-3.74219 V 308 h -1.171875 v -5.6875 h 1.171875 l 2.285156,3.75 v -3.75 h 1.167968 z"/>
    <path id="path1067" style="font-weight:bold;font-size:8px;font-family:Roboto, sans-serif;letter-spacing:1px;fill:#333333" d="m 20.273437,308.48828 h -0.839843 l 2.09375,-6.17578 h 0.839843 z"/>
    <path id="path1069" style="font-weight:bold;font-size:8px;font-family:Roboto, sans-serif;letter-spacing:1px;fill:#333333" d="m 28.441406,306.10547 q -0.06641,0.91797 -0.679687,1.44531 -0.609375,0.52734 -1.609375,0.52734 -1.09375,0 -1.722657,-0.73437 -0.625,-0.73828 -0.625,-2.02344 v -0.34765 q 0,-0.82032 0.289063,-1.44532 0.289062,-0.625 0.824219,-0.95703 0.539062,-0.33594 1.25,-0.33594 0.984375,0 1.585937,0.52735 0.601563,0.52734 0.695313,1.48047 h -1.171875 q -0.04297,-0.55078 -0.308594,-0.79688 -0.261719,-0.25 -0.800781,-0.25 -0.585938,0 -0.878907,0.42188 Q 25,304.03516 24.992187,304.91797 v 0.42969 q 0,0.92187 0.277344,1.34765 0.28125,0.42578 0.882813,0.42578 0.542968,0 0.808593,-0.24609 0.269532,-0.25 0.308594,-0.76953 z"/>
    <path id="path1071" style="font-weight:bold;font-size:8px;font-family:Roboto, sans-serif;letter-spacing:1px;fill:#333333" d="m 32.3125,306.58984 1.289062,-4.27734 H 34.90625 L 32.925781,308 h -1.222656 l -1.972656,-5.6875 h 1.300781 z"/>
  </g>
  <path d="m 130.5,24 h 24 c 2.77,0 5,2.23 5,5 v 279 c 0,2.77 -2.23,5 -5,5 h -24 c -2.77,0 -5,-2.23 -5,-5 V 29 c 0,-2.77 2.23,-5 5,-5 z" style="fill:#fafafa" id="rect119"/>
  <g style="font-weight:bold;font-size:8px;font-family:Roboto, sans-serif;letter-spacing:1px;fill:#333333" id="text121" aria-label="IN/CV">
    <path id="path1051" style="font-weight:bold;font-size:8px;font-family:Roboto, sans-serif;letter-spacing:1px;fill:#333333" d="m 131.25391,308 h -1.17188 v -5.6875 h 1.17188 z"/>
    <path id="path1053" style="font-weight:bold;font-size:8px;font-family:Roboto, sans-serif;letter-spacing:1px;fill:#333333" d="m 137.96094,308 h -1.17188 l -2.28125,-3.74219 V 308 h -1.17187 v -5.6875 h 1.17187 l 2.28516,3.75 v -3.75 h 1.16797 z"/>
    <path id="path1055" style="font-weight:bold;font-size:8px;font-family:Roboto, sans-serif;letter-spacing:1px;fill:#333333" d="m 140.27344,308.48828 h -0.83985 l 2.09375,-6.17578 h 0.83985 z"/>
    <path id="path1057" style="font-weight:bold;font-size:8px;font-family:Roboto, sans-serif;letter-spacing:1px;fill:#333333" d="m 148.44141,306.10547 q -0.0664,0.91797 -0.67969,1.44531 -0.60938,0.52734 -1.60938,0.52734 -1.09375,0 -1.72265,-0.73437 -0.625,-0.73828 -0.625,-2.02344 v -0.34765 q 0,-0.82032 0.28906,-1.44532 0.28906,-0.625 0.82422,-0.95703 0.53906,-0.33594 1.25,-0.33594 0.98437,0 1.58594,0.52735 0.60156,0.52734 0.69531,1.48047 h -1.17188 q -0.043,-0.55078 -0.30859,-0.79688 -0.26172,-0.25 -0.80078,-0.25 -0.58594,0 -0.87891,0.42188 -0.28906,0.41797 -0.29687,1.30078 v 0.42969 q 0,0.92187 0.27734,1.34765 0.28125,0.42578 0.88281,0.42578 0.54297,0 0.8086,-0.24609 0.26953,-0.25 0.30859,-0.76953 z"/>
    <path id="path1059" style="font-weight:bold;font-size:8px;font-family:Roboto, sans-serif;letter-spacing:1px;fill:#333333" d="m 152.3125,306.58984 1.28906,-4.27734 h 1.30469 L 152.92578,308 h -1.22266 l -1.97265,-5.6875 h 1.30078 z"/>
  </g>
  <g style="font-weight:bold;font-size:6.66667px;font-family:Roboto, sans-serif;letter-spacing:1px;fill:#333333" id="text125" aria-label="1">
    <path id="path1048" style="font-weight:bold;font-size:6.66667px;font-family:Roboto, sans-serif;letter-spacing:1px;fill:#333333" d="m 49.107423,41 h -0.940756 v -3.626304 l -1.123047,0.348308 v -0.764975 l 1.962892,-0.703125 h 0.100911 z"/>
  </g>
  <g transform="translate(50.5,21)" id="use127">
    <g transform="translate(20,20)" id="g394">
      <g transform="rotate(-90,-5,-5)" id="g384">
        <path d="M 0,0 H 4" style="stroke:#333333;stroke-width:1" id="polyline382"/>
      </g>
      <path d="M 0,-12.5 A 12.5,12.5 0 0 1 12.5,0" stroke="#333333" stroke-width="0.5" stroke-linecap="round" fill="none" transform="rotate(20)" id="path386"/>
      <path d="M 0,-12.5 A 12.5,12.5 0 0 1 12.5,0" stroke="#333333" stroke-width="0.5" stroke-linecap="round" fill="none" transform="rotate(43)" id="path388"/>
      <path d="M 0,-12.5 A 12.5,12.5 0 0 0 -12.5,0" stroke="#333333" stroke-width="0.5" stroke-linecap="round" fill="none" transform="rotate(-20)" id="path390"/>
      <path d="M 0,-12.5 A 12.5,12.5 0 0 0 -12.5,0" stroke="#333333" stroke-width="0.5" stroke-linecap="round" fill="none" transform="rotate(-43)" id="path392"/>
    </g>
  </g>
  <g transform="translate(81.5,21)" id="use129">
    <g transform="translate(20,20)" id="g410">
      <g transform="rotate(120,-5,2.8867513)" id="g400">
        <path d="M 0,0 H 4" style="stroke:#333333;stroke-width:1" id="polyline398"/>
      </g>
      <path d="M 0,-12.5 A 12.5,12.5 0 0 1 12.5,0" stroke="#333333" stroke-width="0.5" stroke-linecap="round" fill="none" id="path402"/>
      <path d="M 0,-12.5 A 12.5,12.5 0 0 1 12.5,0" stroke="#333333" stroke-width="0.5" stroke-linecap="round" fill="none" transform="rotate(43)" id="path404"/>
      <path d="M 0,-12.5 A 12.5,12.5 0 0 0 -12.5,0" stroke="#333333" stroke-width="0.5" stroke-linecap="round" fill="none" id="path406"/>
      <path d="M 0,-12.5 A 12.5,12.5 0 0 0 -12.5,0" stroke="#333333" stroke-width="0.5" stroke-linecap="round" fill="none" transform="rotate(-43)" id="path408"/>
    </g>
  </g>
  <g style="font-weight:bold;font-size:6.66667px;font-family:Roboto, sans-serif;letter-spacing:1px;fill:#333333" id="text133" aria-label="2">
    <path id="path1043" style="font-weight:bold;font-size:6.66667px;font-family:Roboto, sans-serif;letter-spacing:1px;fill:#333333" d="m 50.070965,76 h -3.248699 v -0.644532 l 1.533204,-1.634115 q 0.315755,-0.345052 0.465495,-0.602214 0.152995,-0.257161 0.152995,-0.488281 0,-0.315756 -0.159506,-0.494792 -0.159505,-0.182292 -0.455729,-0.182292 -0.319011,0 -0.504558,0.221354 -0.182291,0.218099 -0.182291,0.576173 h -0.944011 q 0,-0.432943 0.205078,-0.791016 0.208333,-0.358074 0.585938,-0.559897 0.377604,-0.205078 0.85612,-0.205078 0.732422,0 1.136068,0.351563 0.406901,0.351563 0.406901,0.992839 0,0.351563 -0.182291,0.716146 -0.182292,0.364584 -0.625001,0.84961 l -1.077474,1.136068 h 2.037761 z"/>
  </g>
  <g transform="translate(50.5,56)" id="use135">
    <g transform="translate(20,20)" id="g426">
      <g transform="rotate(-90,-5,-5)" id="g416">
        <path d="M 0,0 H 4" style="stroke:#333333;stroke-width:1" id="polyline414"/>
      </g>
      <path d="M 0,-12.5 A 12.5,12.5 0 0 1 12.5,0" stroke="#333333" stroke-width="0.5" stroke-linecap="round" fill="none" transform="rotate(20)" id="path418"/>
      <path d="M 0,-12.5 A 12.5,12.5 0 0 1 12.5,0" stroke="#333333" stroke-width="0.5" stroke-linecap="round" fill="none" transform="rotate(43)" id="path420"/>
      <path d="M 0,-12.5 A 12.5,12.5 0 0 0 -12.5,0" stroke="#333333" stroke-width="0.5" stroke-linecap="round" fill="none" transform="rotate(-20)" id="path422"/>
      <path d="M 0,-12.5 A 12.5,12.5 0 0 0 -12.5,0" stroke="#333333" stroke-width="0.5" stroke-linecap="round" fill="none" transform="rotate(-43)" id="path424"/>
    </g>
  </g>
  <g transform="translate(81.5,56)" id="use137">
    <g transform="translate(20,20)" id="g442">
      <g transform="rotate(120,-5,2.8867513)" id="g432">
        <path d="M 0,0 H 4" style="stroke:#333333;stroke-width:1" id="polyline430"/>
      </g>
      <path d="M 0,-12.5 A 12.5,12.5 0 0 1 12.5,0" stroke="#333333" stroke-width="0.5" stroke-linecap="round" fill="none" id="path434"/>
      <path d="M 0,-12.5 A 12.5,12.5 0 0 1 12.5,0" stroke="#333333" stroke-width="0.5" stroke-linecap="round" fill="none" transform="rotate(43)" id="path436"/>
      <path d="M 0,-12.5 A 12.5,12.5 0 0 0 -12.5,0" stroke="#333333" stroke-width="0.5" stroke-linecap="round" fill="none" id="path438"/>
      <path d="M 0,-12.5 A 12.5,12.5 0 0 0 -12.5,0" stroke="#333333" stroke-width="0.5" stroke-linecap="round" fill="none" transform="rotate(-43)" id="path440"/>
    </g>
  </g>
  <g style="font-weight:bold;font-size:6.66667px;font-family:Roboto, sans-serif;letter-spacing:1px;fill:#333333" id="text141" aria-label="3">
    <path id="path1038" style="font-weight:bold;font-size:6.66667px;font-family:Roboto, sans-serif;letter-spacing:1px;fill:#333333" d="M 47.779297,108.21354 H 48.2806 q 0.358073,0 0.530599,-0.17904 0.172526,-0.17903 0.172526,-0.47526 0,-0.28646 -0.172526,-0.44596 -0.169271,-0.15951 -0.46875,-0.15951 -0.270183,0 -0.452474,0.14974 -0.182292,0.14649 -0.182292,0.38412 h -0.940756 q 0,-0.3711 0.198568,-0.66406 0.201823,-0.29623 0.559896,-0.46224 0.361328,-0.16602 0.794271,-0.16602 0.751954,0 1.178386,0.36133 0.426433,0.35807 0.426433,0.98958 0,0.32552 -0.198568,0.59896 -0.198568,0.27344 -0.520834,0.41992 0.400391,0.14323 0.595704,0.42969 0.198568,0.28646 0.198568,0.67708 0,0.63152 -0.46224,1.01237 -0.458985,0.38086 -1.217449,0.38086 -0.709635,0 -1.16211,-0.37434 -0.449219,-0.37435 -0.449219,-0.98959 h 0.940756 q 0,0.26693 0.198568,0.4362 0.201823,0.16927 0.494792,0.16927 0.335286,0 0.524089,-0.17578 0.192057,-0.17904 0.192057,-0.47201 0,-0.70963 -0.78125,-0.70963 h -0.498048 z"/>
  </g>
  <g transform="translate(50.5,91)" id="use143">
    <g transform="translate(20,20)" id="g458">
      <g transform="rotate(-90,-5,-5)" id="g448">
        <path d="M 0,0 H 4" style="stroke:#333333;stroke-width:1" id="polyline446"/>
      </g>
      <path d="M 0,-12.5 A 12.5,12.5 0 0 1 12.5,0" stroke="#333333" stroke-width="0.5" stroke-linecap="round" fill="none" transform="rotate(20)" id="path450"/>
      <path d="M 0,-12.5 A 12.5,12.5 0 0 1 12.5,0" stroke="#333333" stroke-width="0.5" stroke-linecap="round" fill="none" transform="rotate(43)" id="path452"/>
      <path d="M 0,-12.5 A 12.5,12.5 0 0 0 -12.5,0" stroke="#333333" stroke-width="0.5" stroke-linecap="round" fill="none" transform="rotate(-20)" id="path454"/>
      <path d="M 0,-12.5 A 12.5,12.5 0 0 0 -12.5,0" stroke="#333333" stroke-width="0.5" stroke-linecap="round" fill="none" transform="rotate(-43)" id="path456"/>
    </g>
  </g>
  <g transform="translate(81.5,91)" id="use145">
    <g transform="translate(20,20)" id="g474">
      <g transform="rotate(120,-5,2.8867513)" id="g464">
        <path d="M 0,0 H 4" style="stroke:#333333;stroke-width:1" id="polyline462"/>
      </g>
      <path d="M 0,-12.5 A 12.5,12.5 0 0 1 12.5,0" stroke="#333333" stroke-width="0.5" stroke-linecap="round" fill="none" id="path466"/>
      <path d="M 0,-12.5 A 12.5,12.5 0 0 1 12.5,0" stroke="#333333" stroke-width="0.5" stroke-linecap="round" fill="none" transform="rotate(43)" id="path468"/>
      <path d="M 0,-12.5 A 12.5,12.5 0 0 0 -12.5,0" stroke="#333333" stroke-width="0.5" stroke-linecap="round" fill="none" id="path470"/>
      <path d="M 0,-12.5 A 12.5,12.5 0 0 0 -12.5,0" stroke="#333333" stroke-width="0.5" stroke-linecap="round" fill="none" transform="rotate(-43)" id="path472"/>
    </g>
  </g>
  <g style="font-weight:bold;font-size:6.66667px;font-family:Roboto, sans-serif;letter-spacing:1px;fill:#333333" id="text149" aria-label="4">
    <path id="path1033" style="font-weight:bold;font-size:6.66667px;font-family:Roboto, sans-serif;letter-spacing:1px;fill:#333333" d="m 49.60547,144.21614 h 0.53711 v 0.75847 H 49.60547 V 146 h -0.940755 v -1.02539 h -1.943361 l -0.04232,-0.59245 1.975912,-3.12175 h 0.950521 z m -1.988933,0 h 1.048178 v -1.67317 l -0.06185,0.10742 z"/>
  </g>
  <g transform="translate(50.5,126)" id="use151">
    <g transform="translate(20,20)" id="g490">
      <g transform="rotate(-90,-5,-5)" id="g480">
        <path d="M 0,0 H 4" style="stroke:#333333;stroke-width:1" id="polyline478"/>
      </g>
      <path d="M 0,-12.5 A 12.5,12.5 0 0 1 12.5,0" stroke="#333333" stroke-width="0.5" stroke-linecap="round" fill="none" transform="rotate(20)" id="path482"/>
      <path d="M 0,-12.5 A 12.5,12.5 0 0 1 12.5,0" stroke="#333333" stroke-width="0.5" stroke-linecap="round" fill="none" transform="rotate(43)" id="path484"/>
      <path d="M 0,-12.5 A 12.5,12.5 0 0 0 -12.5,0" stroke="#333333" stroke-width="0.5" stroke-linecap="round" fill="none" transform="rotate(-20)" id="path486"/>
      <path d="M 0,-12.5 A 12.5,12.5 0 0 0 -12.5,0" stroke="#333333" stroke-width="0.5" stroke-linecap="round" fill="none" transform="rotate(-43)" id="path488"/>
    </g>
  </g>
  <g transform="translate(81.5,126)" id="use153">
    <g transform="translate(20,20)" id="g506">
      <g transform="rotate(120,-5,2.8867513)" id="g496">
        <path d="M 0,0 H 4" style="stroke:#333333;stroke-width:1" id="polyline494"/>
      </g>
      <path d="M 0,-12.5 A 12.5,12.5 0 0 1 12.5,0" stroke="#333333" stroke-width="0.5" stroke-linecap="round" fill="none" id="path498"/>
      <path d="M 0,-12.5 A 12.5,12.5 0 0 1 12.5,0" stroke="#333333" stroke-width="0.5" stroke-linecap="round" fill="none" transform="rotate(43)" id="path500"/>
      <path d="M 0,-12.5 A 12.5,12.5 0 0 0 -12.5,0" stroke="#333333" stroke-width="0.5" stroke-linecap="round" fill="none" id="path502"/>
      <path d="M 0,-12.5 A 12.5,12.5 0 0 0 -12.5,0" stroke="#333333" stroke-width="0.5" stroke-linecap="round" fill="none" transform="rotate(-43)" id="path504"/>
    </g>
  </g>
  <g style="font-weight:bold;font-size:6.66667px;font-family:Roboto, sans-serif;letter-spacing:1px;fill:#333333" id="text157" aria-label="5">
    <path id="path1028" style="font-weight:bold;font-size:6.66667px;font-family:Roboto, sans-serif;letter-spacing:1px;fill:#333333" d="m 46.96224,178.66927 0.273437,-2.40886 h 2.656252 v 0.78451 h -1.884767 l -0.117187,1.01888 q 0.335286,-0.17904 0.712891,-0.17904 0.677083,0 1.061198,0.41993 0.384115,0.41992 0.384115,1.17513 0,0.45898 -0.195313,0.82357 -0.192057,0.36132 -0.553385,0.56315 -0.361329,0.19856 -0.852865,0.19856 -0.429688,0 -0.797527,-0.17252 -0.367839,-0.17578 -0.582682,-0.49154 -0.211589,-0.31575 -0.22461,-0.7194 h 0.93099 q 0.0293,0.29622 0.205078,0.46224 0.179037,0.16276 0.465495,0.16276 0.319011,0 0.491537,-0.22786 0.172526,-0.23112 0.172526,-0.65105 0,-0.40364 -0.198568,-0.61849 -0.198567,-0.21484 -0.563151,-0.21484 -0.335287,0 -0.54362,0.17578 l -0.09115,0.0846 z"/>
  </g>
  <g transform="translate(50.5,161)" id="use159">
    <g transform="translate(20,20)" id="g522">
      <g transform="rotate(-90,-5,-5)" id="g512">
        <path d="M 0,0 H 4" style="stroke:#333333;stroke-width:1" id="polyline510"/>
      </g>
      <path d="M 0,-12.5 A 12.5,12.5 0 0 1 12.5,0" stroke="#333333" stroke-width="0.5" stroke-linecap="round" fill="none" transform="rotate(20)" id="path514"/>
      <path d="M 0,-12.5 A 12.5,12.5 0 0 1 12.5,0" stroke="#333333" stroke-width="0.5" stroke-linecap="round" fill="none" transform="rotate(43)" id="path516"/>
      <path d="M 0,-12.5 A 12.5,12.5 0 0 0 -12.5,0" stroke="#333333" stroke-width="0.5" stroke-linecap="round" fill="none" transform="rotate(-20)" id="path518"/>
      <path d="M 0,-12.5 A 12.5,12.5 0 0 0 -12.5,0" stroke="#333333" stroke-width="0.5" stroke-linecap="round" fill="none" transform="rotate(-43)" id="path520"/>
    </g>
  </g>
  <g transform="translate(81.5,161)" id="use161">
    <g transform="translate(20,20)" id="g538">
      <g transform="rotate(120,-5,2.8867513)" id="g528">
        <path d="M 0,0 H 4" style="stroke:#333333;stroke-width:1" id="polyline526"/>
      </g>
      <path d="M 0,-12.5 A 12.5,12.5 0 0 1 12.5,0" stroke="#333333" stroke-width="0.5" stroke-linecap="round" fill="none" id="path530"/>
      <path d="M 0,-12.5 A 12.5,12.5 0 0 1 12.5,0" stroke="#333333" stroke-width="0.5" stroke-linecap="round" fill="none" transform="rotate(43)" id="path532"/>
      <path d="M 0,-12.5 A 12.5,12.5 0 0 0 -12.5,0" stroke="#333333" stroke-width="0.5" stroke-linecap="round" fill="none" id="path534"/>
      <path d="M 0,-12.5 A 12.5,12.5 0 0 0 -12.5,0" stroke="#333333" stroke-width="0.5" stroke-linecap="round" fill="none" transform="rotate(-43)" id="path536"/>
    </g>
  </g>
  <g style="font-weight:bold;font-size:6.66667px;font-family:Roboto, sans-serif;letter-spacing:1px;fill:#333333" id="text165" aria-label="6">
    <path id="path1023" style="font-weight:bold;font-size:6.66667px;font-family:Roboto, sans-serif;letter-spacing:1px;fill:#333333" d="m 49.37435,211.21159 v 0.77474 h -0.09115 q -0.638021,0.01 -1.028646,0.33203 -0.38737,0.32226 -0.465495,0.89518 0.377604,-0.38411 0.953777,-0.38411 0.618489,0 0.983073,0.4427 0.364584,0.44271 0.364584,1.16537 0,0.46224 -0.201824,0.83659 -0.198567,0.37435 -0.566406,0.58268 -0.364584,0.20833 -0.826823,0.20833 -0.748699,0 -1.210938,-0.52083 -0.458985,-0.52083 -0.458985,-1.38997 v -0.33855 q 0,-0.77148 0.289714,-1.36067 0.292969,-0.59245 0.836589,-0.91472 0.546875,-0.32552 1.266276,-0.32877 z m -0.917969,2.37304 q -0.227865,0 -0.413412,0.12045 -0.185546,0.11718 -0.273437,0.3125 v 0.28646 q 0,0.472 0.185547,0.73893 0.185547,0.26367 0.520833,0.26367 0.302735,0 0.488282,-0.23763 0.188802,-0.24089 0.188802,-0.62175 0,-0.38737 -0.188802,-0.625 -0.188802,-0.23763 -0.507813,-0.23763 z"/>
  </g>
  <g transform="translate(50.5,196)" id="use167">
    <g transform="translate(20,20)" id="g554">
      <g transform="rotate(-90,-5,-5)" id="g544">
        <path d="M 0,0 H 4" style="stroke:#333333;stroke-width:1" id="polyline542"/>
      </g>
      <path d="M 0,-12.5 A 12.5,12.5 0 0 1 12.5,0" stroke="#333333" stroke-width="0.5" stroke-linecap="round" fill="none" transform="rotate(20)" id="path546"/>
      <path d="M 0,-12.5 A 12.5,12.5 0 0 1 12.5,0" stroke="#333333" stroke-width="0.5" stroke-linecap="round" fill="none" transform="rotate(43)" id="path548"/>
      <path d="M 0,-12.5 A 12.5,12.5 0 0 0 -12.5,0" stroke="#333333" stroke-width="0.5" stroke-linecap="round" fill="none" transform="rotate(-20)" id="path550"/>
      <path d="M 0,-12.5 A 12.5,12.5 0 0 0 -12.5,0" stroke="#333333" stroke-width="0.5" stroke-linecap="round" fill="none" transform="rotate(-43)" id="path552"/>
    </g>
  </g>
  <g transform="translate(81.5,196)" id="use169">
    <g transform="translate(20,20)" id="g570">
      <g transform="rotate(120,-5,2.8867513)" id="g560">
        <path d="M 0,0 H 4" style="stroke:#333333;stroke-width:1" id="polyline558"/>
      </g>
      <path d="M 0,-12.5 A 12.5,12.5 0 0 1 12.5,0" stroke="#333333" stroke-width="0.5" stroke-linecap="round" fill="none" id="path562"/>
      <path d="M 0,-12.5 A 12.5,12.5 0 0 1 12.5,0" stroke="#333333" stroke-width="0.5" stroke-linecap="round" fill="none" transform="rotate(43)" id="path564"/>
      <path d="M 0,-12.5 A 12.5,12.5 0 0 0 -12.5,0" stroke="#333333" stroke-width="0.5" stroke-linecap="round" fill="none" id="path566"/>
      <path d="M 0,-12.5 A 12.5,12.5 0 0 0 -12.5,0" stroke="#333333" stroke-width="0.5" stroke-linecap="round" fill="none" transform="rotate(-43)" id="path568"/>
    </g>
  </g>
  <g style="font-weight:bold;font-size:6.66667px;font-family:Roboto, sans-serif;letter-spacing:1px;fill:#333333" id="text173" aria-label="7">
    <path id="path1018" style="font-weight:bold;font-size:6.66667px;font-family:Roboto, sans-serif;letter-spacing:1px;fill:#333333" d="M 50.044924,246.78776 48.21224,251 h -0.992839 l 1.835939,-3.97787 h -2.356772 v -0.76172 h 3.346356 z"/>
  </g>
  <g transform="translate(50.5,231)" id="use175">
    <g transform="translate(20,20)" id="g586">
      <g transform="rotate(-90,-5,-5)" id="g576">
        <path d="M 0,0 H 4" style="stroke:#333333;stroke-width:1" id="polyline574"/>
      </g>
      <path d="M 0,-12.5 A 12.5,12.5 0 0 1 12.5,0" stroke="#333333" stroke-width="0.5" stroke-linecap="round" fill="none" transform="rotate(20)" id="path578"/>
      <path d="M 0,-12.5 A 12.5,12.5 0 0 1 12.5,0" stroke="#333333" stroke-width="0.5" stroke-linecap="round" fill="none" transform="rotate(43)" id="path580"/>
      <path d="M 0,-12.5 A 12.5,12.5 0 0 0 -12.5,0" stroke="#333333" stroke-width="0.5" stroke-linecap="round" fill="none" transform="rotate(-20)" id="path582"/>
      <path d="M 0,-12.5 A 12.5,12.5 0 0 0 -12.5,0" stroke="#333333" stroke-width="0.5" stroke-linecap="round" fill="none" transform="rotate(-43)" id="path584"/>
    </g>
  </g>
  <g transform="translate(81.5,231)" id="use177">
    <g transform="translate(20,20)" id="g602">
      <g transform="rotate(120,-5,2.8867513)" id="g592">
        <path d="M 0,0 H 4" style="stroke:#333333;stroke-width:1" id="polyline590"/>
      </g>
      <path d="M 0,-12.5 A 12.5,12.5 0 0 1 12.5,0" stroke="#333333" stroke-width="0.5" stroke-linecap="round" fill="none" id="path594"/>
      <path d="M 0,-12.5 A 12.5,12.5 0 0 1 12.5,0" stroke="#333333" stroke-width="0.5" stroke-linecap="round" fill="none" transform="rotate(43)" id="path596"/>
      <path d="M 0,-12.5 A 12.5,12.5 0 0 0 -12.5,0" stroke="#333333" stroke-width="0.5" stroke-linecap="round" fill="none" id="path598"/>
      <path d="M 0,-12.5 A 12.5,12.5 0 0 0 -12.5,0" stroke="#333333" stroke-width="0.5" stroke-linecap="round" fill="none" transform="rotate(-43)" id="path600"/>
    </g>
  </g>
  <g style="font-weight:bold;font-size:6.66667px;font-family:Roboto, sans-serif;letter-spacing:1px;fill:#333333" id="text181" aria-label="8">
    <path id="path1013" style="font-weight:bold;font-size:6.66667px;font-family:Roboto, sans-serif;letter-spacing:1px;fill:#333333" d="m 49.91146,282.52018 q 0,0.34505 -0.172526,0.61198 -0.172526,0.26693 -0.475261,0.42643 0.345052,0.16602 0.546875,0.45899 0.201823,0.28971 0.201823,0.68359 0,0.63151 -0.429687,0.99935 -0.429688,0.36458 -1.168621,0.36458 -0.738932,0 -1.171875,-0.36783 -0.432943,-0.36784 -0.432943,-0.9961 0,-0.39388 0.201823,-0.68685 0.201823,-0.29297 0.54362,-0.45573 -0.302735,-0.1595 -0.475261,-0.42643 -0.169271,-0.26693 -0.169271,-0.61198 0,-0.60547 0.403646,-0.96354 0.403646,-0.36133 1.097006,-0.36133 0.690105,0 1.093751,0.35807 0.406901,0.35482 0.406901,0.9668 z m -0.843099,2.11263 q 0,-0.30924 -0.179037,-0.49479 -0.179036,-0.18555 -0.481771,-0.18555 -0.299479,0 -0.478516,0.18555 -0.179036,0.18229 -0.179036,0.49479 0,0.30274 0.175781,0.48828 0.175781,0.18555 0.488281,0.18555 0.30599,0 0.478516,-0.17904 0.175782,-0.17903 0.175782,-0.49479 z m -0.09766,-2.06706 q 0,-0.27669 -0.146484,-0.4427 -0.146485,-0.16928 -0.413412,-0.16928 -0.263672,0 -0.410156,0.16276 -0.146485,0.16277 -0.146485,0.44922 0,0.28321 0.146485,0.45573 0.146484,0.17253 0.413411,0.17253 0.266928,0 0.410157,-0.17253 0.146484,-0.17252 0.146484,-0.45573 z"/>
  </g>
  <g transform="translate(50.5,266)" id="use183">
    <g transform="translate(20,20)" id="g618">
      <g transform="rotate(-90,-5,-5)" id="g608">
        <path d="M 0,0 H 4" style="stroke:#333333;stroke-width:1" id="polyline606"/>
      </g>
      <path d="M 0,-12.5 A 12.5,12.5 0 0 1 12.5,0" stroke="#333333" stroke-width="0.5" stroke-linecap="round" fill="none" transform="rotate(20)" id="path610"/>
      <path d="M 0,-12.5 A 12.5,12.5 0 0 1 12.5,0" stroke="#333333" stroke-width="0.5" stroke-linecap="round" fill="none" transform="rotate(43)" id="path612"/>
      <path d="M 0,-12.5 A 12.5,12.5 0 0 0 -12.5,0" stroke="#333333" stroke-width="0.5" stroke-linecap="round" fill="none" transform="rotate(-20)" id="path614"/>
      <path d="M 0,-12.5 A 12.5,12.5 0 0 0 -12.5,0" stroke="#333333" stroke-width="0.5" stroke-linecap="round" fill="none" transform="rotate(-43)" id="path616"/>
    </g>
  </g>
  <g transform="translate(81.5,266)" id="use185">
    <g transform="translate(20,20)" id="g634">
      <g transform="rotate(120,-5,2.8867513)" id="g624">
        <path d="M 0,0 H 4" style="stroke:#333333;stroke-width:1" id="polyline622"/>
      </g>
      <path d="M 0,-12.5 A 12.5,12.5 0 0 1 12.5,0" stroke="#333333" stroke-width="0.5" stroke-linecap="round" fill="none" id="path626"/>
      <path d="M 0,-12.5 A 12.5,12.5 0 0 1 12.5,0" stroke="#333333" stroke-width="0.5" stroke-linecap="round" fill="none" transform="rotate(43)" id="path628"/>
      <path d="M 0,-12.5 A 12.5,12.5 0 0 0 -12.5,0" stroke="#333333" stroke-width="0.5" stroke-linecap="round" fill="none" id="path630"/>
      <path d="M 0,-12.5 A 12.5,12.5 0 0 0 -12.5,0" stroke="#333333" stroke-width="0.5" stroke-linecap="round" fill="none" transform="rotate(-43)" id="path632"/>
    </g>
  </g>
  <g style="font-weight:bold;font-size:6.66667px;font-family:Roboto, sans-serif;letter-spacing:1px;fill:#333333" id="text189" aria-label="9">
    <path id="path1008" style="font-weight:bold;font-size:6.66667px;font-family:Roboto, sans-serif;letter-spacing:1px;fill:#333333" d="m 169.02279,39.105468 q -0.36784,0.361328 -0.85938,0.361328 -0.62825,0 -1.00586,-0.429688 -0.3776,-0.432942 -0.3776,-1.165365 0,-0.465495 0.20182,-0.852865 0.20508,-0.390625 0.56966,-0.605469 0.36459,-0.218099 0.82032,-0.218099 0.46875,0 0.83333,0.234375 0.36458,0.234375 0.56641,0.673829 0.20182,0.439453 0.20507,1.00586 v 0.348307 q 0,1.184896 -0.58919,1.86198 -0.58919,0.677084 -1.66992,0.722657 l -0.23112,0.0033 v -0.784506 l 0.20833,-0.0033 q 1.22722,-0.05534 1.32813,-1.152344 z m -0.62826,-0.358073 q 0.22787,0 0.39063,-0.117188 0.16601,-0.117187 0.25065,-0.283203 v -0.38737 q 0,-0.478516 -0.18229,-0.742188 -0.1823,-0.263672 -0.48828,-0.263672 -0.28321,0 -0.4655,0.260417 -0.18229,0.257161 -0.18229,0.647787 0,0.38737 0.17578,0.638021 0.17904,0.247396 0.5013,0.247396 z"/>
  </g>
  <g transform="translate(170.5,21)" id="use191">
    <g transform="translate(20,20)" id="g650">
      <g transform="rotate(-90,-5,-5)" id="g640">
        <path d="M 0,0 H 4" style="stroke:#333333;stroke-width:1" id="polyline638"/>
      </g>
      <path d="M 0,-12.5 A 12.5,12.5 0 0 1 12.5,0" stroke="#333333" stroke-width="0.5" stroke-linecap="round" fill="none" transform="rotate(20)" id="path642"/>
      <path d="M 0,-12.5 A 12.5,12.5 0 0 1 12.5,0" stroke="#333333" stroke-width="0.5" stroke-linecap="round" fill="none" transform="rotate(43)" id="path644"/>
      <path d="M 0,-12.5 A 12.5,12.5 0 0 0 -12.5,0" stroke="#333333" stroke-width="0.5" stroke-linecap="round" fill="none" transform="rotate(-20)" id="path646"/>
      <path d="M 0,-12.5 A 12.5,12.5 0 0 0 -12.5,0" stroke="#333333" stroke-width="0.5" stroke-linecap="round" fill="none" transform="rotate(-43)" id="path648"/>
    </g>
  </g>
  <g transform="translate(201.5,21)" id="use193">
    <g transform="translate(20,20)" id="g666">
      <g transform="rotate(120,-5,2.8867513)" id="g656">
        <path d="M 0,0 H 4" style="stroke:#333333;stroke-width:1" id="polyline654"/>
      </g>
      <path d="M 0,-12.5 A 12.5,12.5 0 0 1 12.5,0" stroke="#333333" stroke-width="0.5" stroke-linecap="round" fill="none" id="path658"/>
      <path d="M 0,-12.5 A 12.5,12.5 0 0 1 12.5,0" stroke="#333333" stroke-width="0.5" stroke-linecap="round" fill="none" transform="rotate(43)" id="path660"/>
      <path d="M 0,-12.5 A 12.5,12.5 0 0 0 -12.5,0" stroke="#333333" stroke-width="0.5" stroke-linecap="round" fill="none" id="path662"/>
      <path d="M 0,-12.5 A 12.5,12.5 0 0 0 -12.5,0" stroke="#333333" stroke-width="0.5" stroke-linecap="round" fill="none" transform="rotate(-43)" id="path664"/>
    </g>
  </g>
  <g style="font-weight:bold;font-size:6.66667px;font-family:Roboto, sans-serif;letter-spacing:1px;fill:#333333" id="text197" aria-label="10">
    <path id="path1001" style="font-weight:bold;font-size:6.66667px;font-family:Roboto, sans-serif;letter-spacing:1px;fill:#333333" d="m 166.60742,76 h -0.94075 v -3.626304 l -1.12305,0.348308 v -0.764975 l 1.96289,-0.703125 h 0.10091 z"/>
    <path id="path1003" style="font-weight:bold;font-size:6.66667px;font-family:Roboto, sans-serif;letter-spacing:1px;fill:#333333" d="m 172.3405,74.040364 q 0,0.983073 -0.4069,1.503907 -0.4069,0.520833 -1.19141,0.520833 -0.77474,0 -1.1849,-0.511068 -0.41015,-0.511068 -0.41992,-1.464844 v -0.872396 q 0,-0.992839 0.41016,-1.507163 0.41341,-0.514323 1.18815,-0.514323 0.77474,0 1.1849,0.511068 0.41015,0.507813 0.41992,1.461589 z m -0.94076,-0.957032 q 0,-0.589193 -0.16276,-0.85612 -0.1595,-0.270183 -0.5013,-0.270183 -0.33203,0 -0.49154,0.257162 -0.15625,0.253906 -0.16601,0.797526 v 1.152345 q 0,0.579427 0.15625,0.86263 0.1595,0.279948 0.50781,0.279948 0.34505,0 0.49805,-0.270182 0.15299,-0.270183 0.1595,-0.826823 z"/>
  </g>
  <g transform="translate(170.5,56)" id="use199">
    <g transform="translate(20,20)" id="g682">
      <g transform="rotate(-90,-5,-5)" id="g672">
        <path d="M 0,0 H 4" style="stroke:#333333;stroke-width:1" id="polyline670"/>
      </g>
      <path d="M 0,-12.5 A 12.5,12.5 0 0 1 12.5,0" stroke="#333333" stroke-width="0.5" stroke-linecap="round" fill="none" transform="rotate(20)" id="path674"/>
      <path d="M 0,-12.5 A 12.5,12.5 0 0 1 12.5,0" stroke="#333333" stroke-width="0.5" stroke-linecap="round" fill="none" transform="rotate(43)" id="path676"/>
      <path d="M 0,-12.5 A 12.5,12.5 0 0 0 -12.5,0" stroke="#333333" stroke-width="0.5" stroke-linecap="round" fill="none" transform="rotate(-20)" id="path678"/>
      <path d="M 0,-12.5 A 12.5,12.5 0 0 0 -12.5,0" stroke="#333333" stroke-width="0.5" stroke-linecap="round" fill="none" transform="rotate(-43)" id="path680"/>
    </g>
  </g>
  <g transform="translate(201.5,56)" id="use201">
    <g transform="translate(20,20)" id="g698">
      <g transform="rotate(120,-5,2.8867513)" id="g688">
        <path d="M 0,0 H 4" style="stroke:#333333;stroke-width:1" id="polyline686"/>
      </g>
      <path d="M 0,-12.5 A 12.5,12.5 0 0 1 12.5,0" stroke="#333333" stroke-width="0.5" stroke-linecap="round" fill="none" id="path690"/>
      <path d="M 0,-12.5 A 12.5,12.5 0 0 1 12.5,0" stroke="#333333" stroke-width="0.5" stroke-linecap="round" fill="none" transform="rotate(43)" id="path692"/>
      <path d="M 0,-12.5 A 12.5,12.5 0 0 0 -12.5,0" stroke="#333333" stroke-width="0.5" stroke-linecap="round" fill="none" id="path694"/>
      <path d="M 0,-12.5 A 12.5,12.5 0 0 0 -12.5,0" stroke="#333333" stroke-width="0.5" stroke-linecap="round" fill="none" transform="rotate(-43)" id="path696"/>
    </g>
  </g>
  <g style="font-weight:bold;font-size:6.66667px;font-family:Roboto, sans-serif;letter-spacing:1px;fill:#333333" id="text205" aria-label="11">
    <path id="path994" style="font-weight:bold;font-size:6.66667px;font-family:Roboto, sans-serif;letter-spacing:1px;fill:#333333" d="m 166.60742,111 h -0.94075 v -3.6263 l -1.12305,0.3483 v -0.76497 l 1.96289,-0.70313 h 0.10091 z"/>
    <path id="path996" style="font-weight:bold;font-size:6.66667px;font-family:Roboto, sans-serif;letter-spacing:1px;fill:#333333" d="m 171.43555,111 h -0.94076 v -3.6263 l -1.12304,0.3483 v -0.76497 l 1.96289,-0.70313 h 0.10091 z"/>
  </g>
  <g transform="translate(170.5,91)" id="use207">
    <g transform="translate(20,20)" id="g714">
      <g transform="rotate(-90,-5,-5)" id="g704">
        <path d="M 0,0 H 4" style="stroke:#333333;stroke-width:1" id="polyline702"/>
      </g>
      <path d="M 0,-12.5 A 12.5,12.5 0 0 1 12.5,0" stroke="#333333" stroke-width="0.5" stroke-linecap="round" fill="none" transform="rotate(20)" id="path706"/>
      <path d="M 0,-12.5 A 12.5,12.5 0 0 1 12.5,0" stroke="#333333" stroke-width="0.5" stroke-linecap="round" fill="none" transform="rotate(43)" id="path708"/>
      <path d="M 0,-12.5 A 12.5,12.5 0 0 0 -12.5,0" stroke="#333333" stroke-width="0.5" stroke-linecap="round" fill="none" transform="rotate(-20)" id="path710"/>
      <path d="M 0,-12.5 A 12.5,12.5 0 0 0 -12.5,0" stroke="#333333" stroke-width="0.5" stroke-linecap="round" fill="none" transform="rotate(-43)" id="path712"/>
    </g>
  </g>
  <g transform="translate(201.5,91)" id="use209">
    <g transform="translate(20,20)" id="g730">
      <g transform="rotate(120,-5,2.8867513)" id="g720">
        <path d="M 0,0 H 4" style="stroke:#333333;stroke-width:1" id="polyline718"/>
      </g>
      <path d="M 0,-12.5 A 12.5,12.5 0 0 1 12.5,0" stroke="#333333" stroke-width="0.5" stroke-linecap="round" fill="none" id="path722"/>
      <path d="M 0,-12.5 A 12.5,12.5 0 0 1 12.5,0" stroke="#333333" stroke-width="0.5" stroke-linecap="round" fill="none" transform="rotate(43)" id="path724"/>
      <path d="M 0,-12.5 A 12.5,12.5 0 0 0 -12.5,0" stroke="#333333" stroke-width="0.5" stroke-linecap="round" fill="none" id="path726"/>
      <path d="M 0,-12.5 A 12.5,12.5 0 0 0 -12.5,0" stroke="#333333" stroke-width="0.5" stroke-linecap="round" fill="none" transform="rotate(-43)" id="path728"/>
    </g>
  </g>
  <g style="font-weight:bold;font-size:6.66667px;font-family:Roboto, sans-serif;letter-spacing:1px;fill:#333333" id="text213" aria-label="12">
    <path id="path987" style="font-weight:bold;font-size:6.66667px;font-family:Roboto, sans-serif;letter-spacing:1px;fill:#333333" d="m 166.60742,146 h -0.94075 v -3.6263 l -1.12305,0.3483 v -0.76497 l 1.96289,-0.70313 h 0.10091 z"/>
    <path id="path989" style="font-weight:bold;font-size:6.66667px;font-family:Roboto, sans-serif;letter-spacing:1px;fill:#333333" d="m 172.39909,146 h -3.2487 v -0.64453 l 1.53321,-1.63412 q 0.31575,-0.34505 0.46549,-0.60221 0.153,-0.25716 0.153,-0.48828 0,-0.31576 -0.15951,-0.49479 -0.1595,-0.1823 -0.45573,-0.1823 -0.31901,0 -0.50456,0.22136 Q 170,142.39323 170,142.7513 h -0.94401 q 0,-0.43294 0.20508,-0.79102 0.20833,-0.35807 0.58594,-0.55989 0.3776,-0.20508 0.85612,-0.20508 0.73242,0 1.13607,0.35156 0.4069,0.35157 0.4069,0.99284 0,0.35156 -0.18229,0.71615 -0.1823,0.36458 -0.625,0.84961 l -1.07748,1.13607 h 2.03776 z"/>
  </g>
  <g transform="translate(170.5,126)" id="use215">
    <g transform="translate(20,20)" id="g746">
      <g transform="rotate(-90,-5,-5)" id="g736">
        <path d="M 0,0 H 4" style="stroke:#333333;stroke-width:1" id="polyline734"/>
      </g>
      <path d="M 0,-12.5 A 12.5,12.5 0 0 1 12.5,0" stroke="#333333" stroke-width="0.5" stroke-linecap="round" fill="none" transform="rotate(20)" id="path738"/>
      <path d="M 0,-12.5 A 12.5,12.5 0 0 1 12.5,0" stroke="#333333" stroke-width="0.5" stroke-linecap="round" fill="none" transform="rotate(43)" id="path740"/>
      <path d="M 0,-12.5 A 12.5,12.5 0 0 0 -12.5,0" stroke="#333333" stroke-width="0.5" stroke-linecap="round" fill="none" transform="rotate(-20)" id="path742"/>
      <path d="M 0,-12.5 A 12.5,12.5 0 0 0 -12.5,0" stroke="#333333" stroke-width="0.5" stroke-linecap="round" fill="none" transform="rotate(-43)" id="path744"/>
    </g>
  </g>
  <g transform="translate(201.5,126)" id="use217">
    <g transform="translate(20,20)" id="g762">
      <g transform="rotate(120,-5,2.8867513)" id="g752">
        <path d="M 0,0 H 4" style="stroke:#333333;stroke-width:1" id="polyline750"/>
      </g>
      <path d="M 0,-12.5 A 12.5,12.5 0 0 1 12.5,0" stroke="#333333" stroke-width="0.5" stroke-linecap="round" fill="none" id="path754"/>
      <path d="M 0,-12.5 A 12.5,12.5 0 0 1 12.5,0" stroke="#333333" stroke-width="0.5" stroke-linecap="round" fill="none" transform="rotate(43)" id="path756"/>
      <path d="M 0,-12.5 A 12.5,12.5 0 0 0 -12.5,0" stroke="#333333" stroke-width="0.5" stroke-linecap="round" fill="none" id="path758"/>
      <path d="M 0,-12.5 A 12.5,12.5 0 0 0 -12.5,0" stroke="#333333" stroke-width="0.5" stroke-linecap="round" fill="none" transform="rotate(-43)" id="path760"/>
    </g>
  </g>
  <g style="font-weight:bold;font-size:6.66667px;font-family:Roboto, sans-serif;letter-spacing:1px;fill:#333333" id="text221" aria-label="13">
    <path id="path980" style="font-weight:bold;font-size:6.66667px;font-family:Roboto, sans-serif;letter-spacing:1px;fill:#333333" d="m 166.60742,181 h -0.94075 v -3.6263 l -1.12305,0.3483 v -0.76497 l 1.96289,-0.70313 h 0.10091 z"/>
    <path id="path982" style="font-weight:bold;font-size:6.66667px;font-family:Roboto, sans-serif;letter-spacing:1px;fill:#333333" d="m 170.10742,178.21354 h 0.50131 q 0.35807,0 0.5306,-0.17904 0.17252,-0.17903 0.17252,-0.47526 0,-0.28646 -0.17252,-0.44596 -0.16927,-0.15951 -0.46875,-0.15951 -0.27019,0 -0.45248,0.14974 -0.18229,0.14649 -0.18229,0.38412 h -0.94076 q 0,-0.3711 0.19857,-0.66406 0.20182,-0.29623 0.5599,-0.46224 0.36133,-0.16602 0.79427,-0.16602 0.75195,0 1.17839,0.36133 0.42643,0.35807 0.42643,0.98958 0,0.32552 -0.19857,0.59896 -0.19857,0.27344 -0.52083,0.41992 0.40039,0.14323 0.5957,0.42969 0.19857,0.28646 0.19857,0.67708 0,0.63152 -0.46224,1.01237 -0.45899,0.38086 -1.21745,0.38086 -0.70964,0 -1.16211,-0.37434 -0.44922,-0.37435 -0.44922,-0.98959 h 0.94076 q 0,0.26693 0.19856,0.4362 0.20183,0.16927 0.4948,0.16927 0.33528,0 0.52408,-0.17578 0.19206,-0.17904 0.19206,-0.47201 0,-0.70963 -0.78125,-0.70963 h -0.49805 z"/>
  </g>
  <g transform="translate(170.5,161)" id="use223">
    <g transform="translate(20,20)" id="g778">
      <g transform="rotate(-90,-5,-5)" id="g768">
        <path d="M 0,0 H 4" style="stroke:#333333;stroke-width:1" id="polyline766"/>
      </g>
      <path d="M 0,-12.5 A 12.5,12.5 0 0 1 12.5,0" stroke="#333333" stroke-width="0.5" stroke-linecap="round" fill="none" transform="rotate(20)" id="path770"/>
      <path d="M 0,-12.5 A 12.5,12.5 0 0 1 12.5,0" stroke="#333333" stroke-width="0.5" stroke-linecap="round" fill="none" transform="rotate(43)" id="path772"/>
      <path d="M 0,-12.5 A 12.5,12.5 0 0 0 -12.5,0" stroke="#333333" stroke-width="0.5" stroke-linecap="round" fill="none" transform="rotate(-20)" id="path774"/>
      <path d="M 0,-12.5 A 12.5,12.5 0 0 0 -12.5,0" stroke="#333333" stroke-width="0.5" stroke-linecap="round" fill="none" transform="rotate(-43)" id="path776"/>
    </g>
  </g>
  <g transform="translate(201.5,161)" id="use225">
    <g transform="translate(20,20)" id="g794">
      <g transform="rotate(120,-5,2.8867513)" id="g784">
        <path d="M 0,0 H 4" style="stroke:#333333;stroke-width:1" id="polyline782"/>
      </g>
      <path d="M 0,-12.5 A 12.5,12.5 0 0 1 12.5,0" stroke="#333333" stroke-width="0.5" stroke-linecap="round" fill="none" id="path786"/>
      <path d="M 0,-12.5 A 12.5,12.5 0 0 1 12.5,0" stroke="#333333" stroke-width="0.5" stroke-linecap="round" fill="none" transform="rotate(43)" id="path788"/>
      <path d="M 0,-12.5 A 12.5,12.5 0 0 0 -12.5,0" stroke="#333333" stroke-width="0.5" stroke-linecap="round" fill="none" id="path790"/>
      <path d="M 0,-12.5 A 12.5,12.5 0 0 0 -12.5,0" stroke="#333333" stroke-width="0.5" stroke-linecap="round" fill="none" transform="rotate(-43)" id="path792"/>
    </g>
  </g>
  <g style="font-weight:bold;font-size:6.66667px;font-family:Roboto, sans-serif;letter-spacing:1px;fill:#333333" id="text229" aria-label="14">
    <path id="path973" style="font-weight:bold;font-size:6.66667px;font-family:Roboto, sans-serif;letter-spacing:1px;fill:#333333" d="m 166.60742,216 h -0.94075 v -3.6263 l -1.12305,0.3483 v -0.76497 l 1.96289,-0.70313 h 0.10091 z"/>
    <path id="path975" style="font-weight:bold;font-size:6.66667px;font-family:Roboto, sans-serif;letter-spacing:1px;fill:#333333" d="m 171.9336,214.21614 h 0.53711 v 0.75847 H 171.9336 V 216 h -0.94076 v -1.02539 h -1.94336 l -0.0423,-0.59245 1.97592,-3.12175 h 0.95052 z m -1.98894,0 h 1.04818 v -1.67317 l -0.0618,0.10742 z"/>
  </g>
  <g transform="translate(170.5,196)" id="use231">
    <g transform="translate(20,20)" id="g810">
      <g transform="rotate(-90,-5,-5)" id="g800">
        <path d="M 0,0 H 4" style="stroke:#333333;stroke-width:1" id="polyline798"/>
      </g>
      <path d="M 0,-12.5 A 12.5,12.5 0 0 1 12.5,0" stroke="#333333" stroke-width="0.5" stroke-linecap="round" fill="none" transform="rotate(20)" id="path802"/>
      <path d="M 0,-12.5 A 12.5,12.5 0 0 1 12.5,0" stroke="#333333" stroke-width="0.5" stroke-linecap="round" fill="none" transform="rotate(43)" id="path804"/>
      <path d="M 0,-12.5 A 12.5,12.5 0 0 0 -12.5,0" stroke="#333333" stroke-width="0.5" stroke-linecap="round" fill="none" transform="rotate(-20)" id="path806"/>
      <path d="M 0,-12.5 A 12.5,12.5 0 0 0 -12.5,0" stroke="#333333" stroke-width="0.5" stroke-linecap="round" fill="none" transform="rotate(-43)" id="path808"/>
    </g>
  </g>
  <g transform="translate(201.5,196)" id="use233">
    <g transform="translate(20,20)" id="g826">
      <g transform="rotate(120,-5,2.8867513)" id="g816">
        <path d="M 0,0 H 4" style="stroke:#333333;stroke-width:1" id="polyline814"/>
      </g>
      <path d="M 0,-12.5 A 12.5,12.5 0 0 1 12.5,0" stroke="#333333" stroke-width="0.5" stroke-linecap="round" fill="none" id="path818"/>
      <path d="M 0,-12.5 A 12.5,12.5 0 0 1 12.5,0" stroke="#333333" stroke-width="0.5" stroke-linecap="round" fill="none" transform="rotate(43)" id="path820"/>
      <path d="M 0,-12.5 A 12.5,12.5 0 0 0 -12.5,0" stroke="#333333" stroke-width="0.5" stroke-linecap="round" fill="none" id="path822"/>
      <path d="M 0,-12.5 A 12.5,12.5 0 0 0 -12.5,0" stroke="#333333" stroke-width="0.5" stroke-linecap="round" fill="none" transform="rotate(-43)" id="path824"/>
    </g>
  </g>
  <g style="font-weight:bold;font-size:6.66667px;font-family:Roboto, sans-serif;letter-spacing:1px;fill:#333333" id="text237" aria-label="15">
    <path id="path966" style="font-weight:bold;font-size:6.66667px;font-family:Roboto, sans-serif;letter-spacing:1px;fill:#333333" d="m 166.60742,251 h -0.94075 v -3.6263 l -1.12305,0.3483 v -0.76497 l 1.96289,-0.70313 h 0.10091 z"/>
    <path id="path968" style="font-weight:bold;font-size:6.66667px;font-family:Roboto, sans-serif;letter-spacing:1px;fill:#333333" d="m 169.29037,248.66927 0.27343,-2.40886 h 2.65626 v 0.78451 h -1.88477 l -0.11719,1.01888 q 0.33529,-0.17904 0.71289,-0.17904 0.67709,0 1.0612,0.41993 0.38412,0.41992 0.38412,1.17513 0,0.45898 -0.19532,0.82357 -0.19205,0.36132 -0.55338,0.56315 -0.36133,0.19856 -0.85287,0.19856 -0.42969,0 -0.79752,-0.17252 -0.36784,-0.17578 -0.58269,-0.49154 -0.21159,-0.31575 -0.22461,-0.7194 h 0.93099 q 0.0293,0.29622 0.20508,0.46224 0.17904,0.16276 0.4655,0.16276 0.31901,0 0.49153,-0.22786 0.17253,-0.23112 0.17253,-0.65105 0,-0.40364 -0.19857,-0.61849 -0.19857,-0.21484 -0.56315,-0.21484 -0.33529,0 -0.54362,0.17578 l -0.0911,0.0846 z"/>
  </g>
  <g transform="translate(170.5,231)" id="use239">
    <g transform="translate(20,20)" id="g842">
      <g transform="rotate(-90,-5,-5)" id="g832">
        <path d="M 0,0 H 4" style="stroke:#333333;stroke-width:1" id="polyline830"/>
      </g>
      <path d="M 0,-12.5 A 12.5,12.5 0 0 1 12.5,0" stroke="#333333" stroke-width="0.5" stroke-linecap="round" fill="none" transform="rotate(20)" id="path834"/>
      <path d="M 0,-12.5 A 12.5,12.5 0 0 1 12.5,0" stroke="#333333" stroke-width="0.5" stroke-linecap="round" fill="none" transform="rotate(43)" id="path836"/>
      <path d="M 0,-12.5 A 12.5,12.5 0 0 0 -12.5,0" stroke="#333333" stroke-width="0.5" stroke-linecap="round" fill="none" transform="rotate(-20)" id="path838"/>
      <path d="M 0,-12.5 A 12.5,12.5 0 0 0 -12.5,0" stroke="#333333" stroke-width="0.5" stroke-linecap="round" fill="none" transform="rotate(-43)" id="path840"/>
    </g>
  </g>
  <g transform="translate(201.5,231)" id="use241">
    <g transform="translate(20,20)" id="g858">
      <g transform="rotate(120,-5,2.8867513)" id="g848">
        <path d="M 0,0 H 4" style="stroke:#333333;stroke-width:1" id="polyline846"/>
      </g>
      <path d="M 0,-12.5 A 12.5,12.5 0 0 1 12.5,0" stroke="#333333" stroke-width="0.5" stroke-linecap="round" fill="none" id="path850"/>
      <path d="M 0,-12.5 A 12.5,12.5 0 0 1 12.5,0" stroke="#333333" stroke-width="0.5" stroke-linecap="round" fill="none" transform="rotate(43)" id="path852"/>
      <path d="M 0,-12.5 A 12.5,12.5 0 0 0 -12.5,0" stroke="#333333" stroke-width="0.5" stroke-linecap="round" fill="none" id="path854"/>
      <path d="M 0,-12.5 A 12.5,12.5 0 0 0 -12.5,0" stroke="#333333" stroke-width="0.5" stroke-linecap="round" fill="none" transform="rotate(-43)" id="path856"/>
    </g>
  </g>
  <g style="font-weight:bold;font-size:6.66667px;font-family:Roboto, sans-serif;letter-spacing:1px;fill:#333333" id="text245" aria-label="16">
    <path id="path959" style="font-weight:bold;font-size:6.66667px;font-family:Roboto, sans-serif;letter-spacing:1px;fill:#333333" d="m 166.60742,286 h -0.94075 v -3.6263 l -1.12305,0.3483 v -0.76497 l 1.96289,-0.70313 h 0.10091 z"/>
    <path id="path961" style="font-weight:bold;font-size:6.66667px;font-family:Roboto, sans-serif;letter-spacing:1px;fill:#333333" d="m 171.70248,281.21159 v 0.77474 h -0.0911 q -0.63802,0.01 -1.02864,0.33203 -0.38737,0.32226 -0.4655,0.89518 0.3776,-0.38411 0.95378,-0.38411 0.61849,0 0.98307,0.4427 0.36458,0.44271 0.36458,1.16537 0,0.46224 -0.20182,0.83659 -0.19857,0.37435 -0.56641,0.58268 -0.36458,0.20833 -0.82682,0.20833 -0.7487,0 -1.21094,-0.52083 -0.45898,-0.52083 -0.45898,-1.38997 v -0.33855 q 0,-0.77148 0.28971,-1.36067 0.29297,-0.59245 0.83659,-0.91472 0.54688,-0.32552 1.26628,-0.32877 z m -0.91797,2.37304 q -0.22787,0 -0.41341,0.12045 -0.18555,0.11718 -0.27344,0.3125 v 0.28646 q 0,0.472 0.18555,0.73893 0.18554,0.26367 0.52083,0.26367 0.30273,0 0.48828,-0.23763 0.1888,-0.24089 0.1888,-0.62175 0,-0.38737 -0.1888,-0.625 -0.1888,-0.23763 -0.50781,-0.23763 z"/>
  </g>
  <g transform="translate(170.5,266)" id="use247">
    <g transform="translate(20,20)" id="g874">
      <g transform="rotate(-90,-5,-5)" id="g864">
        <path d="M 0,0 H 4" style="stroke:#333333;stroke-width:1" id="polyline862"/>
      </g>
      <path d="M 0,-12.5 A 12.5,12.5 0 0 1 12.5,0" stroke="#333333" stroke-width="0.5" stroke-linecap="round" fill="none" transform="rotate(20)" id="path866"/>
      <path d="M 0,-12.5 A 12.5,12.5 0 0 1 12.5,0" stroke="#333333" stroke-width="0.5" stroke-linecap="round" fill="none" transform="rotate(43)" id="path868"/>
      <path d="M 0,-12.5 A 12.5,12.5 0 0 0 -12.5,0" stroke="#333333" stroke-width="0.5" stroke-linecap="round" fill="none" transform="rotate(-20)" id="path870"/>
      <path d="M 0,-12.5 A 12.5,12.5 0 0 0 -12.5,0" stroke="#333333" stroke-width="0.5" stroke-linecap="round" fill="none" transform="rotate(-43)" id="path872"/>
    </g>
  </g>
  <g transform="translate(201.5,266)" id="use249">
    <g transform="translate(20,20)" id="g890">
      <g transform="rotate(120,-5,2.8867513)" id="g880">
        <path d="M 0,0 H 4" style="stroke:#333333;stroke-width:1" id="polyline878"/>
      </g>
      <path d="M 0,-12.5 A 12.5,12.5 0 0 1 12.5,0" stroke="#333333" stroke-width="0.5" stroke-linecap="round" fill="none" id="path882"/>
      <path d="M 0,-12.5 A 12.5,12.5 0 0 1 12.5,0" stroke="#333333" stroke-width="0.5" stroke-linecap="round" fill="none" transform="rotate(43)" id="path884"/>
      <path d="M 0,-12.5 A 12.5,12.5 0 0 0 -12.5,0" stroke="#333333" stroke-width="0.5" stroke-linecap="round" fill="none" id="path886"/>
      <path d="M 0,-12.5 A 12.5,12.5 0 0 0 -12.5,0" stroke="#333333" stroke-width="0.5" stroke-linecap="round" fill="none" transform="rotate(-43)" id="path888"/>
    </g>
  </g>
  <g style="font-weight:bold;font-size:8px;font-family:Roboto, sans-serif;letter-spacing:0.3px;fill:#333333" id="text253" transform="translate(55 308)" aria-label="OFFSET">
    <path id="path944" style="font-weight:bold;font-size:8px;font-family:Roboto, sans-serif;letter-spacing:0.3px;fill:#333333" d="m 5.1796875,-2.7148438 q 0,0.8398438 -0.296875,1.4726563 -0.296875,0.6328125 -0.8515625,0.9765625 -0.5507812,0.34375 -1.265625,0.34375 -0.7070312,0 -1.2617188,-0.33984375 Q 0.94921875,-0.6015625 0.64453125,-1.2304687 0.33984375,-1.8632812 0.3359375,-2.6835938 v -0.28125 q 0,-0.8398437 0.30078125,-1.4765624 0.3046875,-0.640625 0.85546875,-0.9804688 0.5546875,-0.34375 1.265625,-0.34375 0.7109375,0 1.2617187,0.34375 0.5546875,0.3398438 0.8554688,0.9804688 0.3046875,0.6367187 0.3046875,1.4726562 z m -1.1875,-0.2578125 q 0,-0.8945312 -0.3203125,-1.3593749 -0.3203125,-0.4648438 -0.9140625,-0.4648438 -0.5898437,0 -0.9101563,0.4609375 -0.3203125,0.4570312 -0.3242187,1.34375 v 0.2773437 q 0,0.8710938 0.3203125,1.3515626 0.3203125,0.4804687 0.921875,0.4804687 0.5898438,0 0.90625,-0.4609375 0.3164063,-0.4648437 0.3203125,-1.3515625 z"/>
    <path id="path946" style="font-weight:bold;font-size:8px;font-family:Roboto, sans-serif;letter-spacing:0.3px;fill:#333333" d="m 9.7609377,-2.3242188 h -2.25 V 0 h -1.171875 v -5.6875 h 3.7031253 v 0.9492188 H 7.5109377 v 1.4687499 h 2.25 z"/>
    <path id="path948" style="font-weight:bold;font-size:8px;font-family:Roboto, sans-serif;letter-spacing:0.3px;fill:#333333" d="m 14.451563,-2.3242188 h -2.25 V 0 h -1.171875 v -5.6875 h 3.703125 v 0.9492188 h -2.53125 v 1.4687499 h 2.25 z"/>
    <path id="path950" style="font-weight:bold;font-size:8px;font-family:Roboto, sans-serif;letter-spacing:0.3px;fill:#333333" d="m 18.669531,-1.4921875 q 0,-0.3320312 -0.234375,-0.5078125 -0.234375,-0.1796875 -0.84375,-0.375 -0.609375,-0.1992188 -0.964844,-0.390625 -0.96875,-0.5234375 -0.96875,-1.4101562 0,-0.4609375 0.257813,-0.8203125 0.261718,-0.3632813 0.746093,-0.5664063 0.488282,-0.203125 1.09375,-0.203125 0.609375,0 1.085938,0.2226563 0.476562,0.21875 0.738281,0.6210937 0.265625,0.4023438 0.265625,0.9140625 h -1.171875 q 0,-0.390625 -0.246094,-0.6054687 -0.246093,-0.21875 -0.691406,-0.21875 -0.429687,0 -0.667969,0.1835937 -0.238281,0.1796875 -0.238281,0.4765625 0,0.2773437 0.277344,0.4648437 0.28125,0.1875 0.824219,0.3515625 1,0.3007813 1.457031,0.7460938 0.457031,0.4453125 0.457031,1.109375 0,0.73828125 -0.558594,1.16015625 -0.558593,0.41796875 -1.503906,0.41796875 -0.65625,0 -1.195312,-0.23828125 -0.539063,-0.2421875 -0.824219,-0.66015625 -0.28125,-0.4179687 -0.28125,-0.96875 h 1.175781 q 0,0.94140625 1.125,0.94140625 0.417969,0 0.652344,-0.16796875 0.234375,-0.171875 0.234375,-0.4765625 z"/>
    <path id="path952" style="font-weight:bold;font-size:8px;font-family:Roboto, sans-serif;letter-spacing:0.3px;fill:#333333" d="m 24.364063,-2.4648438 h -2.25 v 1.52343755 h 2.640625 V 0 h -3.8125 v -5.6875 h 3.804688 v 0.9492188 h -2.632813 v 1.3554687 h 2.25 z"/>
    <path id="path954" style="font-weight:bold;font-size:8px;font-family:Roboto, sans-serif;letter-spacing:0.3px;fill:#333333" d="M 30.101562,-4.7382812 H 28.359375 V 0 H 27.1875 V -4.7382812 H 25.46875 V -5.6875 h 4.632812 z"/>
  </g>
  <g style="font-weight:bold;font-size:8px;font-family:Roboto, sans-serif;letter-spacing:0.3px;fill:#333333" id="text255" transform="translate(88.5 308)" aria-label="SCALE">
    <path id="path933" style="font-weight:bold;font-size:8px;font-family:Roboto, sans-serif;letter-spacing:0.3px;fill:#333333" d="m 3.4570313,-1.4921875 q 0,-0.3320312 -0.234375,-0.5078125 -0.234375,-0.1796875 -0.84375,-0.375 -0.6093751,-0.1992188 -0.9648438,-0.390625 -0.96875,-0.5234375 -0.96875,-1.4101562 0,-0.4609375 0.2578125,-0.8203125 Q 0.96484375,-5.359375 1.4492187,-5.5625 1.9375,-5.765625 2.5429688,-5.765625 q 0.609375,0 1.0859375,0.2226563 0.4765624,0.21875 0.7382812,0.6210937 0.265625,0.4023438 0.265625,0.9140625 h -1.171875 q 0,-0.390625 -0.2460937,-0.6054687 -0.2460938,-0.21875 -0.6914063,-0.21875 -0.4296875,0 -0.6679688,0.1835937 -0.2382812,0.1796875 -0.2382812,0.4765625 0,0.2773437 0.2773437,0.4648437 0.2812501,0.1875 0.8242188,0.3515625 1,0.3007813 1.4570312,0.7460938 0.4570313,0.4453125 0.4570313,1.109375 0,0.73828125 -0.5585938,1.16015625 Q 3.515625,0.078125 2.5703125,0.078125 q -0.65625,0 -1.1953125,-0.23828125 -0.5390625,-0.2421875 -0.82421875,-0.66015625 -0.28125,-0.4179687 -0.28125,-0.96875 H 1.4453125 q 0,0.94140625 1.125,0.94140625 0.4179688,0 0.6523438,-0.16796875 0.234375,-0.171875 0.234375,-0.4765625 z"/>
    <path id="path935" style="font-weight:bold;font-size:8px;font-family:Roboto, sans-serif;letter-spacing:0.3px;fill:#333333" d="m 10.194531,-1.8945312 q -0.06641,0.9179687 -0.6796871,1.44531245 -0.609375,0.52734375 -1.609375,0.52734375 -1.09375,0 -1.7226562,-0.734375 -0.625,-0.7382812 -0.625,-2.0234375 v -0.3476563 q 0,-0.8203125 0.2890625,-1.4453124 0.2890625,-0.625 0.8242187,-0.9570313 0.5390625,-0.3359375 1.25,-0.3359375 0.984375,0 1.5859375,0.5273438 0.6015626,0.5273437 0.6953126,1.4804687 H 9.0304689 q -0.042969,-0.5507812 -0.3085937,-0.796875 -0.2617188,-0.25 -0.8007813,-0.25 -0.5859375,0 -0.8789062,0.421875 -0.2890625,0.4179687 -0.296875,1.3007812 v 0.4296875 q 0,0.9218751 0.2773437,1.3476563 0.28125,0.42578125 0.8828125,0.42578125 0.5429688,0 0.8085938,-0.24609375 0.2695312,-0.25 0.3085937,-0.7695312 z"/>
    <path id="path937" style="font-weight:bold;font-size:8px;font-family:Roboto, sans-serif;letter-spacing:0.3px;fill:#333333" d="M 14.475,-1.171875 H 12.420313 L 12.029688,0 h -1.246094 l 2.117188,-5.6875 h 1.085937 L 16.115625,0 h -1.246093 z m -1.738281,-0.9492188 h 1.421875 L 13.44375,-4.25 Z"/>
    <path id="path939" style="font-weight:bold;font-size:8px;font-family:Roboto, sans-serif;letter-spacing:0.3px;fill:#333333" d="m 18.126562,-0.94140625 h 2.488281 V 0 h -3.660156 v -5.6875 h 1.171875 z"/>
    <path id="path941" style="font-weight:bold;font-size:8px;font-family:Roboto, sans-serif;letter-spacing:0.3px;fill:#333333" d="m 25.004688,-2.4648438 h -2.25 v 1.52343755 h 2.640625 V 0 h -3.8125 v -5.6875 h 3.804688 v 0.9492188 h -2.632813 v 1.3554687 h 2.25 z"/>
  </g>
  <g style="font-weight:bold;font-size:8px;font-family:Roboto, sans-serif;letter-spacing:0.3px;fill:#333333" id="text257" transform="translate(175 308)" aria-label="OFFSET">
    <path id="path920" style="font-weight:bold;font-size:8px;font-family:Roboto, sans-serif;letter-spacing:0.3px;fill:#333333" d="m 5.1796875,-2.7148438 q 0,0.8398438 -0.296875,1.4726563 -0.296875,0.6328125 -0.8515625,0.9765625 -0.5507812,0.34375 -1.265625,0.34375 -0.7070312,0 -1.2617188,-0.33984375 Q 0.94921875,-0.6015625 0.64453125,-1.2304687 0.33984375,-1.8632812 0.3359375,-2.6835938 v -0.28125 q 0,-0.8398437 0.30078125,-1.4765624 0.3046875,-0.640625 0.85546875,-0.9804688 0.5546875,-0.34375 1.265625,-0.34375 0.7109375,0 1.2617187,0.34375 0.5546875,0.3398438 0.8554688,0.9804688 0.3046875,0.6367187 0.3046875,1.4726562 z m -1.1875,-0.2578125 q 0,-0.8945312 -0.3203125,-1.3593749 -0.3203125,-0.4648438 -0.9140625,-0.4648438 -0.5898437,0 -0.9101563,0.4609375 -0.3203125,0.4570312 -0.3242187,1.34375 v 0.2773437 q 0,0.8710938 0.3203125,1.3515626 0.3203125,0.4804687 0.921875,0.4804687 0.5898438,0 0.90625,-0.4609375 0.3164063,-0.4648437 0.3203125,-1.3515625 z"/>
    <path id="path922" style="font-weight:bold;font-size:8px;font-family:Roboto, sans-serif;letter-spacing:0.3px;fill:#333333" d="m 9.7609377,-2.3242188 h -2.25 V 0 h -1.171875 v -5.6875 h 3.7031253 v 0.9492188 H 7.5109377 v 1.4687499 h 2.25 z"/>
    <path id="path924" style="font-weight:bold;font-size:8px;font-family:Roboto, sans-serif;letter-spacing:0.3px;fill:#333333" d="m 14.451563,-2.3242188 h -2.25 V 0 h -1.171875 v -5.6875 h 3.703125 v 0.9492188 h -2.53125 v 1.4687499 h 2.25 z"/>
    <path id="path926" style="font-weight:bold;font-size:8px;font-family:Roboto, sans-serif;letter-spacing:0.3px;fill:#333333" d="m 18.669531,-1.4921875 q 0,-0.3320312 -0.234375,-0.5078125 -0.234375,-0.1796875 -0.84375,-0.375 -0.609375,-0.1992188 -0.964844,-0.390625 -0.96875,-0.5234375 -0.96875,-1.4101562 0,-0.4609375 0.257813,-0.8203125 0.261718,-0.3632813 0.746093,-0.5664063 0.488282,-0.203125 1.09375,-0.203125 0.609375,0 1.085938,0.2226563 0.476562,0.21875 0.738281,0.6210937 0.265625,0.4023438 0.265625,0.9140625 h -1.171875 q 0,-0.390625 -0.246094,-0.6054687 -0.246093,-0.21875 -0.691406,-0.21875 -0.429687,0 -0.667969,0.1835937 -0.238281,0.1796875 -0.238281,0.4765625 0,0.2773437 0.277344,0.4648437 0.28125,0.1875 0.824219,0.3515625 1,0.3007813 1.457031,0.7460938 0.457031,0.4453125 0.457031,1.109375 0,0.73828125 -0.558594,1.16015625 -0.558593,0.41796875 -1.503906,0.41796875 -0.65625,0 -1.195312,-0.23828125 -0.539063,-0.2421875 -0.824219,-0.66015625 -0.28125,-0.4179687 -0.28125,-0.96875 h 1.175781 q 0,0.94140625 1.125,0.94140625 0.417969,0 0.652344,-0.16796875 0.234375,-0.171875 0.234375,-0.4765625 z"/>
    <path id="path928" style="font-weight:bold;font-size:8px;font-family:Roboto, sans-serif;letter-spacing:0.3px;fill:#333333" d="m 24.364063,-2.4648438 h -2.25 v 1.52343755 h 2.640625 V 0 h -3.8125 v -5.6875 h 3.804688 v 0.9492188 h -2.632813 v 1.3554687 h 2.25 z"/>
    <path id="path930" style="font-weight:bold;font-size:8px;font-family:Roboto, sans-serif;letter-spacing:0.3px;fill:#333333" d="M 30.101562,-4.7382812 H 28.359375 V 0 H 27.1875 V -4.7382812 H 25.46875 V -5.6875 h 4.632812 z"/>
  </g>
  <g style="font-weight:bold;font-size:8px;font-family:Roboto, sans-serif;letter-spacing:0.3px;fill:#333333" id="text259" transform="translate(208.5 308)" aria-label="SCALE">
    <path id="path909" style="font-weight:bold;font-size:8px;font-family:Roboto, sans-serif;letter-spacing:0.3px;fill:#333333" d="m 3.4570313,-1.4921875 q 0,-0.3320312 -0.234375,-0.5078125 -0.234375,-0.1796875 -0.84375,-0.375 -0.6093751,-0.1992188 -0.9648438,-0.390625 -0.96875,-0.5234375 -0.96875,-1.4101562 0,-0.4609375 0.2578125,-0.8203125 Q 0.96484375,-5.359375 1.4492187,-5.5625 1.9375,-5.765625 2.5429688,-5.765625 q 0.609375,0 1.0859375,0.2226563 0.4765624,0.21875 0.7382812,0.6210937 0.265625,0.4023438 0.265625,0.9140625 h -1.171875 q 0,-0.390625 -0.2460937,-0.6054687 -0.2460938,-0.21875 -0.6914063,-0.21875 -0.4296875,0 -0.6679688,0.1835937 -0.2382812,0.1796875 -0.2382812,0.4765625 0,0.2773437 0.2773437,0.4648437 0.2812501,0.1875 0.8242188,0.3515625 1,0.3007813 1.4570312,0.7460938 0.4570313,0.4453125 0.4570313,1.109375 0,0.73828125 -0.5585938,1.16015625 Q 3.515625,0.078125 2.5703125,0.078125 q -0.65625,0 -1.1953125,-0.23828125 -0.5390625,-0.2421875 -0.82421875,-0.66015625 -0.28125,-0.4179687 -0.28125,-0.96875 H 1.4453125 q 0,0.94140625 1.125,0.94140625 0.4179688,0 0.6523438,-0.16796875 0.234375,-0.171875 0.234375,-0.4765625 z"/>
    <path id="path911" style="font-weight:bold;font-size:8px;font-family:Roboto, sans-serif;letter-spacing:0.3px;fill:#333333" d="m 10.194531,-1.8945312 q -0.06641,0.9179687 -0.6796871,1.44531245 -0.609375,0.52734375 -1.609375,0.52734375 -1.09375,0 -1.7226562,-0.734375 -0.625,-0.7382812 -0.625,-2.0234375 v -0.3476563 q 0,-0.8203125 0.2890625,-1.4453124 0.2890625,-0.625 0.8242187,-0.9570313 0.5390625,-0.3359375 1.25,-0.3359375 0.984375,0 1.5859375,0.5273438 0.6015626,0.5273437 0.6953126,1.4804687 H 9.0304689 q -0.042969,-0.5507812 -0.3085937,-0.796875 -0.2617188,-0.25 -0.8007813,-0.25 -0.5859375,0 -0.8789062,0.421875 -0.2890625,0.4179687 -0.296875,1.3007812 v 0.4296875 q 0,0.9218751 0.2773437,1.3476563 0.28125,0.42578125 0.8828125,0.42578125 0.5429688,0 0.8085938,-0.24609375 0.2695312,-0.25 0.3085937,-0.7695312 z"/>
    <path id="path913" style="font-weight:bold;font-size:8px;font-family:Roboto, sans-serif;letter-spacing:0.3px;fill:#333333" d="M 14.475,-1.171875 H 12.420313 L 12.029688,0 h -1.246094 l 2.117188,-5.6875 h 1.085937 L 16.115625,0 h -1.246093 z m -1.738281,-0.9492188 h 1.421875 L 13.44375,-4.25 Z"/>
    <path id="path915" style="font-weight:bold;font-size:8px;font-family:Roboto, sans-serif;letter-spacing:0.3px;fill:#333333" d="m 18.126562,-0.94140625 h 2.488281 V 0 h -3.660156 v -5.6875 h 1.171875 z"/>
    <path id="path917" style="font-weight:bold;font-size:8px;font-family:Roboto, sans-serif;letter-spacing:0.3px;fill:#333333" d="m 25.004688,-2.4648438 h -2.25 v 1.52343755 h 2.640625 V 0 h -3.8125 v -5.6875 h 3.804688 v 0.9492188 h -2.632813 v 1.3554687 h 2.25 z"/>
  </g>
  <!-- <rect width="60" height="20" fill="#0f0" transform="translate(0 330)" /> -->
  <!-- <rect width="60" height="20" fill="#0f0" transform="translate(180 330)" /> -->
  <g style="font-weight:bold;font-size:8px;font-family:Roboto, sans-serif;letter-spacing:1.5px;fill:#333333" id="text261" transform="rotate(-90)" aria-label="CHAN">
    <path id="path1146" style="font-weight:bold;font-size:8px;font-family:Roboto, sans-serif;letter-spacing:1.5px;fill:#333333" d="m -347.52734,67.105469 q -0.0664,0.917968 -0.67969,1.445312 -0.60938,0.527344 -1.60938,0.527344 -1.09375,0 -1.72265,-0.734375 -0.625,-0.738281 -0.625,-2.023438 v -0.347656 q 0,-0.820312 0.28906,-1.445312 0.28906,-0.625 0.82422,-0.957032 0.53906,-0.335937 1.25,-0.335937 0.98437,0 1.58594,0.527344 0.60156,0.527343 0.69531,1.480468 h -1.17188 q -0.043,-0.550781 -0.30859,-0.796875 -0.26172,-0.25 -0.80078,-0.25 -0.58594,0 -0.87891,0.421875 -0.28906,0.417969 -0.29687,1.300782 v 0.429687 q 0,0.921875 0.27734,1.347656 0.28125,0.425782 0.88281,0.425782 0.54297,0 0.8086,-0.246094 0.26953,-0.25 0.30859,-0.769531 z"/>
    <path id="path1148" style="font-weight:bold;font-size:8px;font-family:Roboto, sans-serif;letter-spacing:1.5px;fill:#333333" d="m -340.62891,69 h -1.17187 v -2.4375 h -2.28516 V 69 h -1.17187 v -5.6875 h 1.17187 v 2.304687 h 2.28516 V 63.3125 h 1.17187 z"/>
    <path id="path1150" style="font-weight:bold;font-size:8px;font-family:Roboto, sans-serif;letter-spacing:1.5px;fill:#333333" d="m -334.8125,67.828125 h -2.05469 L -337.25781,69 h -1.2461 l 2.11719,-5.6875 h 1.08594 L -333.17187,69 h -1.2461 z m -1.73828,-0.949219 h 1.42187 L -335.84375,64.75 Z"/>
    <path id="path1152" style="font-weight:bold;font-size:8px;font-family:Roboto, sans-serif;letter-spacing:1.5px;fill:#333333" d="m -326.50781,69 h -1.17188 l -2.28125,-3.742188 V 69 h -1.17187 v -5.6875 h 1.17187 l 2.28516,3.75 v -3.75 h 1.16797 z"/>
  </g>
  <g transform="translate(71,320)" id="use263">
    <g transform="translate(20,20)" id="g378">
      <g style="font-weight:bold;font-size:6.66667px;font-family:Roboto, sans-serif;fill:#333333" id="text346" transform="translate(-9,14.124356)" aria-label="1">
        <path id="path1116" style="font-weight:bold;font-size:6.66667px;font-family:Roboto, sans-serif;fill:#333333" d="M 2.6074231,0 H 1.6666675 V -3.6263038 L 0.54362005,-3.2779964 V -4.0429707 L 2.5065116,-4.746096 h 0.1009115 z"/>
      </g>
      <g style="font-weight:bold;font-size:6.66667px;font-family:Roboto, sans-serif;fill:#333333" id="text348" transform="translate(-16,2)" aria-label="4">
        <path id="path1119" style="font-weight:bold;font-size:6.66667px;font-family:Roboto, sans-serif;fill:#333333" d="m 3.1054702,-1.783855 h 0.5371097 v 0.7584639 H 3.1054702 V 0 H 2.1647146 V -1.0253911 H 0.22135427 L 0.17903654,-1.6178393 2.1549489,-4.7395856 h 0.9505213 z m -1.9889332,0 h 1.0481776 v -1.6731779 l -0.061849,0.1074219 z"/>
      </g>
      <g style="font-weight:bold;font-size:6.66667px;font-family:Roboto, sans-serif;fill:#333333" id="text350" transform="translate(-4.4310745,-11.787309)" aria-label="8">
        <path id="path1122" style="font-weight:bold;font-size:6.66667px;font-family:Roboto, sans-serif;fill:#333333" d="m 3.41146,-3.4798194 q 0,0.3450523 -0.1725262,0.6119795 -0.1725261,0.2669272 -0.4752606,0.4264325 0.3450522,0.1660157 0.5468753,0.4589846 0.201823,0.2897137 0.201823,0.6835941 0,0.63151067 -0.4296877,0.99934939 -0.4296877,0.36458351 -1.1686204,0.36458351 -0.7389326,0 -1.17187555,-0.36783872 -0.43294291,-0.36783872 -0.43294291,-0.99609418 0,-0.3938804 0.20182301,-0.6868493 Q 0.71289096,-2.2786469 1.054688,-2.4414074 0.75195348,-2.6009127 0.57942736,-2.8678399 0.41015645,-3.1347671 0.41015645,-3.4798194 q 0,-0.605469 0.40364602,-0.9635421 0.40364603,-0.3613283 1.09700573,-0.3613283 0.6901045,0 1.0937505,0.3580731 0.4069013,0.3548179 0.4069013,0.9667973 z m -0.8430994,2.1126312 q 0,-0.3092449 -0.1790365,-0.4947919 Q 2.2102875,-2.047527 1.907553,-2.047527 q -0.2994793,0 -0.4785159,0.1855469 -0.1790365,0.1822918 -0.1790365,0.4947919 0,0.3027346 0.1757813,0.48828153 0.1757814,0.18554696 0.4882815,0.18554696 0.3059897,0 0.4785159,-0.17903654 0.1757813,-0.17903655 0.1757813,-0.49479195 z m -0.097656,-2.0670582 q 0,-0.2766929 -0.1464844,-0.4427086 -0.1464845,-0.1692709 -0.4134117,-0.1692709 -0.263672,0 -0.4101564,0.1627605 -0.1464845,0.1627605 -0.1464845,0.449219 0,0.2832032 0.1464845,0.4557294 0.1464844,0.1725261 0.4134116,0.1725261 0.2669272,0 0.4101565,-0.1725261 0.1464844,-0.1725262 0.1464844,-0.4557294 z"/>
      </g>
      <g style="font-weight:bold;font-size:6.66667px;font-family:Roboto, sans-serif;fill:#333333" id="text352" transform="translate(10.216004,-2.4462619)" aria-label="12">
        <path id="path1125" style="font-weight:bold;font-size:6.66667px;font-family:Roboto, sans-serif;fill:#333333" d="M 2.6074231,0 H 1.6666675 V -3.6263038 L 0.54362005,-3.2779964 V -4.0429707 L 2.5065116,-4.746096 h 0.1009115 z"/>
        <path id="path1127" style="font-weight:bold;font-size:6.66667px;font-family:Roboto, sans-serif;fill:#333333" d="M 7.3990922,0 H 4.1503927 V -0.64453156 L 5.6835965,-2.2786469 q 0.3157554,-0.3450523 0.4654951,-0.6022138 0.1529948,-0.2571616 0.1529948,-0.4882815 0,-0.3157554 -0.1595053,-0.4947919 -0.1595052,-0.1822918 -0.4557293,-0.1822918 -0.3190106,0 -0.5045576,0.2213543 -0.1822917,0.218099 -0.1822917,0.5761721 H 4.0559916 q 0,-0.4329429 0.2050782,-0.791016 0.2083335,-0.3580731 0.5859378,-0.5598961 0.3776043,-0.2050782 0.8561202,-0.2050782 0.7324222,0 1.1360683,0.3515627 0.4069012,0.3515626 0.4069012,0.992839 0,0.3515627 -0.1822918,0.7161462 -0.1822917,0.3645835 -0.6250003,0.8496097 l -1.0774744,1.1360683 h 2.0377614 z"/>
      </g>
      <g style="font-weight:bold;font-size:6.66667px;font-family:Roboto, sans-serif;fill:#333333" id="text354" transform="translate(4.7,14.25833)" aria-label="16">
        <path id="path1130" style="font-weight:bold;font-size:6.66667px;font-family:Roboto, sans-serif;fill:#333333" d="M 2.6074231,0 H 1.6666675 V -3.6263038 L 0.54362005,-3.2779964 V -4.0429707 L 2.5065116,-4.746096 h 0.1009115 z"/>
        <path id="path1132" style="font-weight:bold;font-size:6.66667px;font-family:Roboto, sans-serif;fill:#333333" d="m 6.7024772,-4.7884137 v 0.7747399 h -0.091146 q -0.6380212,0.00977 -1.0286464,0.3320314 -0.3873699,0.3222658 -0.465495,0.8951827 0.3776044,-0.3841147 0.9537765,-0.3841147 0.6184899,0 0.9830734,0.4427085 0.3645835,0.4427086 0.3645835,1.1653652 0,0.4622398 -0.201823,0.8365889 -0.1985678,0.37434913 -0.5664065,0.58268257 -0.3645835,0.20833343 -0.8268233,0.20833343 -0.7486983,0 -1.2109381,-0.52083358 Q 4.1536479,-0.97656297 4.1536479,-1.845704 v -0.3385418 q 0,-0.7714848 0.2897137,-1.3606778 0.2929689,-0.5924482 0.8365889,-0.9147139 0.5468753,-0.325521 1.2662767,-0.3287762 z m -0.9179692,2.373048 q -0.2278646,0 -0.4134116,0.1204427 -0.185547,0.1171876 -0.2734376,0.3125002 v 0.2864584 q 0,0.4720055 0.1855469,0.73893269 0.185547,0.263672 0.5208336,0.263672 0.3027345,0 0.4882815,-0.23763032 0.1888022,-0.24088557 0.1888022,-0.62174507 0,-0.38737 -0.1888022,-0.6250003 Q 6.1035186,-2.4153657 5.784508,-2.4153657 Z"/>
      </g>
      <path d="M 0,0 H 2.5" style="stroke:#333333;stroke-width:0.3" transform="rotate(140,-5,1.8198512)" id="polyline356"/>
      <path d="M 0,0 H 2.5" style="stroke:#333333;stroke-width:0.3" transform="rotate(160,-5,0.8816349)" id="polyline358"/>
      <path d="M 0,0 H 2.5" style="stroke:#333333;stroke-width:0.3" transform="rotate(-160,-5,-0.8816349)" id="polyline360"/>
      <path d="M 0,0 H 2.5" style="stroke:#333333;stroke-width:0.3" transform="rotate(-140,-5,-1.8198512)" id="polyline362"/>
      <path d="M 0,0 H 2.5" style="stroke:#333333;stroke-width:0.3" transform="rotate(-120,-5,-2.8867513)" id="polyline364"/>
      <path d="M 0,0 H 2.5" style="stroke:#333333;stroke-width:0.3" transform="rotate(-80,-5,-5.958768)" id="polyline366"/>
      <path d="M 0,0 H 2.5" style="stroke:#333333;stroke-width:0.3" transform="rotate(-60,-5,-8.660254)" id="polyline368"/>
      <path d="M 0,0 H 2.5" style="stroke:#333333;stroke-width:0.3" transform="rotate(-40,-5,-13.737387)" id="polyline370"/>
      <path d="M 0,0 H 2.5" style="stroke:#333333;stroke-width:0.3" transform="translate(10)" id="polyline372"/>
      <path d="M 0,0 H 2.5" style="stroke:#333333;stroke-width:0.3" transform="rotate(20,-5,28.356409)" id="polyline374"/>
      <path d="M 0,0 H 2.5" style="stroke:#333333;stroke-width:0.3" transform="rotate(40,-5,13.737387)" id="polyline376"/>
    </g>
  </g>
  <path d="m 120,318 h 50 c 2.77,0 5,2.23 5,5 v 30 c 0,2.77 -2.23,5 -5,5 h -50 c -2.77,0 -5,-2.23 -5,-5 v -30 c 0,-2.77 2.23,-5 5,-5 z" style="fill:#fafafa" id="rect267"/>
  <path d="m 158,318 h 14 c 2.77,0 5,2.23 5,5 v 30 c 0,2.77 -2.23,5 -5,5 h -14 c -2.77,0 -5,-2.23 -5,-5 v -30 c 0,-2.77 2.23,-5 5,-5 z" style="fill:#bbbbbb" id="rect269"/>
  <path d="m 146,318 h 20 v 40 h -20 z" style="fill:#bbbbbb" id="rect271"/>
  <g style="font-weight:bold;font-size:8px;font-family:Roboto, sans-serif;letter-spacing:1px;fill:#333333" id="text273" aria-label="IN">
    <path id="path901" style="font-weight:bold;font-size:8px;font-family:Roboto, sans-serif;letter-spacing:1px;fill:#333333" d="m 127.75391,354 h -1.17188 v -5.6875 h 1.17188 z"/>
    <path id="path903" style="font-weight:bold;font-size:8px;font-family:Roboto, sans-serif;letter-spacing:1px;fill:#333333" d="m 134.46094,354 h -1.17188 l -2.28125,-3.74219 V 354 h -1.17187 v -5.6875 h 1.17187 l 2.28516,3.75 v -3.75 h 1.16797 z"/>
  </g>
  <g style="font-weight:bold;font-size:8px;font-family:Roboto, sans-serif;letter-spacing:2px;fill:#333333" id="text275" aria-label="OUT">
    <path id="path894" style="font-weight:bold;font-size:8px;font-family:Roboto, sans-serif;letter-spacing:2px;fill:#333333" d="m 156.17969,351.28516 q 0,0.83984 -0.29688,1.47265 -0.29687,0.63281 -0.85156,0.97656 -0.55078,0.34375 -1.26563,0.34375 -0.70703,0 -1.26171,-0.33984 -0.55469,-0.33984 -0.85938,-0.96875 -0.30469,-0.63281 -0.30859,-1.45312 v -0.28125 q 0,-0.83985 0.30078,-1.47657 0.30469,-0.64062 0.85547,-0.98047 0.55468,-0.34375 1.26562,-0.34375 0.71094,0 1.26172,0.34375 0.55469,0.33985 0.85547,0.98047 0.30469,0.63672 0.30469,1.47266 z m -1.1875,-0.25782 q 0,-0.89453 -0.32032,-1.35937 -0.32031,-0.46485 -0.91406,-0.46485 -0.58984,0 -0.91015,0.46094 -0.32032,0.45703 -0.32422,1.34375 v 0.27735 q 0,0.87109 0.32031,1.35156 0.32031,0.48047 0.92187,0.48047 0.58985,0 0.90625,-0.46094 0.31641,-0.46484 0.32032,-1.35156 z"/>
    <path id="path896" style="font-weight:bold;font-size:8px;font-family:Roboto, sans-serif;letter-spacing:2px;fill:#333333" d="m 163.34375,348.3125 v 3.74609 q 0,0.9336 -0.58594,1.47657 -0.58203,0.54296 -1.59375,0.54296 -0.99609,0 -1.58203,-0.52734 -0.58594,-0.52734 -0.59766,-1.44922 v -3.78906 h 1.17188 v 3.75391 q 0,0.55859 0.26562,0.8164 0.26954,0.25391 0.74219,0.25391 0.98828,0 1.00391,-1.03906 v -3.78516 z"/>
    <path id="path898" style="font-weight:bold;font-size:8px;font-family:Roboto, sans-serif;letter-spacing:2px;fill:#333333" d="m 170.58594,349.26172 h -1.74219 V 354 h -1.17188 v -4.73828 h -1.71875 v -0.94922 h 4.63282 z"/>
  </g>
</svg>
