<?xml version="1.0" encoding="UTF-8" standalone="no"?>
<svg xmlns:dc="http://purl.org/dc/elements/1.1/" xmlns:cc="http://creativecommons.org/ns#" xmlns:rdf="http://www.w3.org/1999/02/22-rdf-syntax-ns#" xmlns:svg="http://www.w3.org/2000/svg" xmlns="http://www.w3.org/2000/svg" xmlns:sodipodi="http://sodipodi.sourceforge.net/DTD/sodipodi-0.dtd" xmlns:inkscape="http://www.inkscape.org/namespaces/inkscape" inkscape:version="1.0 (4035a4f, 2020-05-01)" sodipodi:docname="svg_render_PolyCon8-pp.svg" id="svg47669" viewBox="0 0 45 380" height="380" width="45" version="1.1">
  <metadata id="metadata47675">
    <rdf:RDF>
      <cc:Work rdf:about="">
        <dc:format>image/svg+xml</dc:format>
        <dc:type rdf:resource="http://purl.org/dc/dcmitype/StillImage"/>
      </cc:Work>
    </rdf:RDF>
  </metadata>
  <defs id="defs47673"/>
  <sodipodi:namedview inkscape:current-layer="svg47669" inkscape:window-maximized="0" inkscape:window-y="23" inkscape:window-x="0" inkscape:cy="190" inkscape:cx="22.5" inkscape:zoom="1.7605263" showgrid="false" id="namedview47671" inkscape:window-height="480" inkscape:window-width="689" inkscape:pageshadow="2" inkscape:pageopacity="0" guidetolerance="10" gridtolerance="10" objecttolerance="10" borderopacity="1" bordercolor="#666666" pagecolor="#ffffff"/>
  
  <path class="module-background background-fill" d="M 0,0 H 45 V 380 H 0 Z" style="fill:#dddddd" id="rect47451"/>
  <path class="module-border-inner" d="M 1,1 H 44 V 379 H 1 V 1" style="fill:none;stroke:#e4e4e4;stroke-width:0.5" id="polyline47453"/>
  <path class="module-border-middle" d="m 0.5,0.5 h 44 v 379 H 0.5 V 0.5" style="fill:none;stroke:#ebebeb;stroke-width:0.8" id="polyline47455"/>
  <path class="module-border-outer" d="M 0,0 H 45 V 380 H 0 V 0" style="fill:none;stroke:#f2f2f2;stroke-width:1" id="polyline47457"/>
  <g class="title" style="font-weight:normal;font-size:9.33333px;font-family:Comfortaa, sans-serif;letter-spacing:2.5px;fill:#333333" id="text47459" transform="rotate(-90)" aria-label="POLYCON8">
    <path id="path47820" style="font-weight:normal;font-size:9.33333px;font-family:Comfortaa, sans-serif;letter-spacing:2.5px;fill:#333333" d="m -374.70267,13 q -0.15866,0 -0.26133,-0.102667 -0.10267,-0.102666 -0.10267,-0.261333 V 6.074669 q 0,-0.1586666 0.10267,-0.2613332 0.10267,-0.1026667 0.26133,-0.1026667 h 1.86667 q 0.68133,0 1.21333,0.3079999 0.54133,0.2986666 0.84,0.8399998 0.29867,0.5319998 0.29867,1.2226662 0,0.6813331 -0.29867,1.2133329 -0.29867,0.5319998 -0.84,0.8306661 -0.532,0.298667 -1.21333,0.298667 h -1.50267 V 12.636 q 0,0.158667 -0.10266,0.261333 Q -374.544,13 -374.70267,13 Z m 1.86667,-3.2759989 q 0.476,0 0.84933,-0.2053332 0.37334,-0.2146666 0.57867,-0.5879998 0.21467,-0.3733333 0.21467,-0.8493331 0,-0.4853332 -0.21467,-0.8586664 -0.20533,-0.3826665 -0.57867,-0.5973331 Q -372.36,6.4106689 -372.836,6.4106689 h -1.50267 v 3.3133322 z"/>
    <path id="path47822" style="font-weight:normal;font-size:9.33333px;font-family:Comfortaa, sans-serif;letter-spacing:2.5px;fill:#333333" d="m -363.49161,13.093333 q -1.064,0 -1.91333,-0.485333 -0.84933,-0.485333 -1.33467,-1.334666 -0.476,-0.858666 -0.476,-1.9226661 0,-1.0639996 0.476,-1.9133327 0.48534,-0.849333 1.33467,-1.3346662 0.84933,-0.4853332 1.91333,-0.4853332 1.05467,0 1.904,0.4853332 0.85867,0.4853332 1.33467,1.3346662 0.48533,0.8493331 0.48533,1.9133327 0,1.0640001 -0.48533,1.9226661 -0.476,0.849333 -1.33467,1.334666 -0.84933,0.485333 -1.904,0.485333 z m 0,-0.690666 q 0.84933,0 1.53067,-0.401333 0.69066,-0.401334 1.08266,-1.092 0.392,-0.7 0.392,-1.5586661 0,-0.849333 -0.392,-1.5399995 -0.392,-0.6999997 -1.08266,-1.1013329 -0.68134,-0.4013332 -1.53067,-0.4013332 -0.85866,0 -1.54933,0.4013332 -0.68133,0.4013332 -1.07333,1.1013329 -0.392,0.6906665 -0.392,1.5399995 0,0.8586661 0.392,1.5586661 0.392,0.690666 1.07333,1.092 0.69067,0.401333 1.54933,0.401333 z"/>
    <path id="path47824" style="font-weight:normal;font-size:9.33333px;font-family:Comfortaa, sans-serif;letter-spacing:2.5px;fill:#333333" d="m -355.39278,13 q -0.14933,0 -0.26133,-0.102667 -0.10267,-0.112 -0.10267,-0.261333 V 6.074669 q 0,-0.1493333 0.10267,-0.2519999 0.112,-0.112 0.26133,-0.112 0.15867,0 0.26134,0.1026667 0.10266,0.1026666 0.10266,0.2613332 v 6.234665 h 3.64934 q 0.15866,0 0.26133,0.102666 0.10267,0.09333 0.10267,0.242667 0,0.149333 -0.10267,0.252 Q -351.22078,13 -351.37944,13 Z"/>
    <path id="path47826" style="font-weight:normal;font-size:9.33333px;font-family:Comfortaa, sans-serif;letter-spacing:2.5px;fill:#333333" d="m -343.82122,5.7106691 q 0.14,0 0.224,0.1026667 0.0933,0.093333 0.0933,0.2333332 0,0.1306667 -0.0653,0.2333333 l -2.548,4.0226657 V 12.636 q 0,0.149333 -0.10266,0.261333 Q -346.32255,13 -346.48122,13 q -0.14933,0 -0.26133,-0.102667 -0.10267,-0.112 -0.10267,-0.261333 v -2.333332 l -2.53866,-4.0226657 q -0.0747,-0.1213333 -0.0747,-0.2333333 0,-0.1399999 0.10267,-0.2333332 0.10267,-0.1026667 0.252,-0.1026667 0.10267,0 0.168,0.046667 0.0747,0.037333 0.14,0.1306666 l 2.324,3.7426654 2.31466,-3.7239987 q 0.0747,-0.1026666 0.14934,-0.1493333 0.0747,-0.046667 0.18666,-0.046667 z"/>
    <path id="path47828" style="font-weight:normal;font-size:9.33333px;font-family:Comfortaa, sans-serif;letter-spacing:2.5px;fill:#333333" d="m -337.21776,13.093333 q -0.98933,0 -1.82,-0.504 -0.83067,-0.503999 -1.32533,-1.362666 -0.48534,-0.858666 -0.48534,-1.8759991 0,-1.0079996 0.48534,-1.866666 0.48533,-0.8586664 1.316,-1.3626662 0.83066,-0.5039999 1.82933,-0.5039999 0.672,0 1.22266,0.196 0.55067,0.1959999 1.064,0.6253331 0.10267,0.074667 0.10267,0.2146666 0,0.074667 -0.0373,0.1399999 -0.0373,0.056 -0.10267,0.084 -0.0187,0.065333 -0.084,0.1026667 -0.0653,0.037333 -0.14,0.037333 -0.14,0 -0.23333,-0.084 -0.364,-0.3266666 -0.79334,-0.4759998 -0.42933,-0.1493333 -0.99866,-0.1493333 -0.784,0 -1.456,0.4199998 -0.672,0.4106666 -1.07333,1.1106663 -0.392,0.6999998 -0.392,1.5119995 0,0.8306661 0.392,1.5306661 0.392,0.7 1.064,1.110666 0.672,0.410667 1.46533,0.410667 1.01733,0 1.83866,-0.653333 0.10267,-0.07467 0.20534,-0.07467 0.14,0 0.24266,0.102667 0.10267,0.09333 0.10267,0.252 0,0.149333 -0.10267,0.261333 -0.87733,0.802666 -2.28666,0.802666 z"/>
    <path id="path47830" style="font-weight:normal;font-size:9.33333px;font-family:Comfortaa, sans-serif;letter-spacing:2.5px;fill:#333333" d="m -327.42391,13.093333 q -1.064,0 -1.91333,-0.485333 -0.84933,-0.485333 -1.33467,-1.334666 -0.476,-0.858666 -0.476,-1.9226661 0,-1.0639996 0.476,-1.9133327 0.48534,-0.849333 1.33467,-1.3346662 0.84933,-0.4853332 1.91333,-0.4853332 1.05467,0 1.904,0.4853332 0.85867,0.4853332 1.33467,1.3346662 0.48533,0.8493331 0.48533,1.9133327 0,1.0640001 -0.48533,1.9226661 -0.476,0.849333 -1.33467,1.334666 -0.84933,0.485333 -1.904,0.485333 z m 0,-0.690666 q 0.84933,0 1.53067,-0.401333 0.69066,-0.401334 1.08266,-1.092 0.392,-0.7 0.392,-1.5586661 0,-0.849333 -0.392,-1.5399995 -0.392,-0.6999997 -1.08266,-1.1013329 -0.68134,-0.4013332 -1.53067,-0.4013332 -0.85867,0 -1.54933,0.4013332 -0.68133,0.4013332 -1.07333,1.1013329 -0.392,0.6906665 -0.392,1.5399995 0,0.8586661 0.392,1.5586661 0.392,0.690666 1.07333,1.092 0.69066,0.401333 1.54933,0.401333 z"/>
    <path id="path47832" style="font-weight:normal;font-size:9.33333px;font-family:Comfortaa, sans-serif;letter-spacing:2.5px;fill:#333333" d="m -319.32508,13 q -0.15866,0 -0.26133,-0.102667 -0.10267,-0.102666 -0.10267,-0.261333 V 6.074669 q 0,-0.1586666 0.10267,-0.2613332 0.10267,-0.1026667 0.26133,-0.1026667 0.168,0 0.28,0.1306667 l 4.46133,5.8613312 V 6.074669 q 0,-0.1586666 0.10267,-0.2613332 0.112,-0.1026667 0.26133,-0.1026667 0.15867,0 0.26134,0.1026667 0.10266,0.1026666 0.10266,0.2613332 V 12.636 q 0,0.149333 -0.10266,0.261333 Q -314.06108,13 -314.21975,13 q -0.18666,0 -0.27066,-0.121333 l -4.47067,-5.8613316 V 12.636 q 0,0.149333 -0.10266,0.261333 Q -319.16641,13 -319.32508,13 Z"/>
    <path id="path47834" style="font-weight:normal;font-size:9.33333px;font-family:Comfortaa, sans-serif;letter-spacing:2.5px;fill:#333333" d="m -306.5937,8.9120014 q 0.51333,0.2706666 0.812,0.7653331 0.29866,0.4853335 0.29866,1.1013325 0,0.634667 -0.28933,1.148 -0.28,0.513333 -0.784,0.812 -0.49467,0.298666 -1.10133,0.298666 -0.616,0 -1.12,-0.289333 -0.49467,-0.298666 -0.784,-0.802666 -0.28,-0.513333 -0.28,-1.138667 0,-0.625333 0.29866,-1.1199992 0.308,-0.5039998 0.82134,-0.7746664 -0.34534,-0.2426666 -0.54134,-0.6159998 -0.196,-0.3826665 -0.196,-0.8399997 0,-0.4946665 0.23334,-0.8959997 0.24266,-0.4106665 0.65333,-0.6346665 0.42,-0.2333332 0.93333,-0.2333332 0.504,0 0.90534,0.2333332 0.41066,0.224 0.63466,0.6253332 0.23334,0.3919998 0.23334,0.8866663 0,0.4573332 -0.196,0.8493331 -0.196,0.3826665 -0.532,0.6253331 z m -2.17467,-1.4466662 q 0,0.4853332 0.31733,0.8213331 0.31734,0.3266665 0.79334,0.3266665 0.476,0 0.784,-0.3359999 0.31733,-0.3453332 0.31733,-0.849333 0,-0.4573332 -0.31733,-0.7653331 -0.31734,-0.3079999 -0.784,-0.3079999 -0.476,0 -0.79334,0.3173333 -0.31733,0.3173332 -0.31733,0.793333 z m 2.55733,3.3226658 q 0,-0.42 -0.196,-0.756 -0.18666,-0.3359999 -0.52266,-0.5319998 -0.32667,-0.1959999 -0.728,-0.1959999 -0.41067,0 -0.74667,0.2053332 -0.336,0.196 -0.52267,0.5413335 -0.18666,0.345333 -0.18666,0.774666 0,0.429333 0.18666,0.793333 0.196,0.354667 0.52267,0.56 0.336,0.205333 0.74667,0.205333 0.41066,0 0.73733,-0.205333 0.336,-0.214667 0.52267,-0.578667 0.18666,-0.373333 0.18666,-0.811999 z"/>
  </g>
  <g transform="rotate(-90,200.5,175.5)" id="g47465">
    <g class="brand" style="font-weight:bold;font-size:9.33333px;font-family:Audiowide, sans-serif;letter-spacing:2px;fill:#333333" id="text47461" aria-label="BGA">
      <path id="path47812" style="font-weight:bold;font-size:9.33333px;font-family:Audiowide, sans-serif;letter-spacing:2px;fill:#333333" d="m 7.209633,-1.4355464 q 0,0.2187499 -0.077474,0.4694009 -0.072917,0.25065095 -0.2460936,0.46484359 Q 6.7174456,-0.28710928 6.4440082,-0.14127599 6.1705708,0 5.7740866,0 H 1.2760412 Q 1.1484371,0 1.0390621,-0.0455729 0.92968718,-0.0911458 0.84765596,-0.16861973 0.77018203,-0.25065096 0.72460913,-0.36002592 0.67903623,-0.46940088 0.67903623,-0.597005 v -5.341144 q 0,-0.1230469 0.0455729,-0.2324218 0.0455729,-0.109375 0.12304683,-0.1914062 0.0820312,-0.082031 0.19140614,-0.1276041 0.109375,-0.045573 0.2369791,-0.045573 h 3.9648424 q 0.21875,0 0.4694009,0.077474 0.250651,0.077474 0.4648436,0.250651 0.2187499,0.1686197 0.3600259,0.4420571 0.1458333,0.2734374 0.1458333,0.6699217 v 0.2233072 q 0,0.314453 -0.1048177,0.6790362 -0.1048176,0.3600259 -0.3372394,0.6835935 0.2005207,0.1230468 0.3736978,0.2962239 0.1777343,0.173177 0.3098957,0.4010415 0.1321614,0.2278645 0.2096353,0.5149738 0.077474,0.2871093 0.077474,0.6334633 z M 6.0247375,-1.6634109 q 0,-0.2324218 -0.072917,-0.4147134 Q 5.8789042,-2.2649732 5.7467428,-2.3971346 5.6145814,-2.529296 5.4277325,-2.5976554 5.2408836,-2.670572 5.0084618,-2.670572 h -2.670572 v -1.19401 h 2.1373691 q 0.2324218,0 0.4192707,-0.068359 0.1868489,-0.072917 0.3190103,-0.205078 0.1321614,-0.1321614 0.2005208,-0.314453 0.072917,-0.1868489 0.072917,-0.4192707 v -0.2233072 q 0,-0.2552083 -0.2460937,-0.2552083 H 1.8639317 v 4.1653632 h 3.9101549 q 0.031901,0 0.077474,-0.00456 0.045573,-0.00456 0.082031,-0.027344 0.036458,-0.022786 0.063802,-0.077474 0.027344,-0.054687 0.027344,-0.1503906 z"/>
      <path id="path47814" style="font-weight:bold;font-size:9.33333px;font-family:Audiowide, sans-serif;letter-spacing:2px;fill:#333333" d="m 16.683589,-0.597005 q 0,0.12760412 -0.04557,0.23697908 -0.04557,0.10937496 -0.127605,0.19140619 -0.07747,0.07747393 -0.186849,0.12304683 Q 16.214189,0 16.086584,0 h -4.274738 q -0.164062,0 -0.355468,-0.03645832 -0.186849,-0.04101561 -0.373698,-0.12304683 -0.182292,-0.0820312 -0.350911,-0.20963535 -0.16862,-0.13216141 -0.300782,-0.31445302 -0.127604,-0.18684889 -0.205078,-0.42838528 -0.07747,-0.2460937 -0.07747,-0.5514321 v -3.2083322 q 0,-0.1640625 0.03646,-0.3509114 0.04101,-0.1914062 0.123047,-0.3736978 0.08203,-0.1868489 0.214192,-0.3554686 0.132162,-0.1686197 0.314453,-0.2962238 0.186849,-0.1321615 0.428385,-0.2096354 0.241537,-0.077474 0.546875,-0.077474 h 4.817056 v 1.1848954 h -4.817056 q -0.232422,0 -0.355468,0.1230468 -0.123047,0.1230469 -0.123047,0.3645832 v 3.1992177 q 0,0.2278645 0.123047,0.3554686 0.127604,0.1230469 0.355468,0.1230469 h 3.686848 V -2.670572 h -3.153645 v -1.19401 h 3.741535 q 0.127605,0 0.236979,0.05013 0.109375,0.045573 0.186849,0.1276041 0.08203,0.082031 0.127605,0.1914062 0.04557,0.1048177 0.04557,0.2278645 z"/>
      <path id="path47816" style="font-weight:bold;font-size:9.33333px;font-family:Audiowide, sans-serif;letter-spacing:2px;fill:#333333" d="M 26.339836,0 H 25.154941 V -1.6041661 H 20.989578 V 0 h -1.184896 v -3.267577 q 0,-0.7154946 0.246094,-1.3170569 0.246094,-0.6015623 0.683593,-1.0345048 0.4375,-0.4329426 1.034505,-0.6744789 0.597005,-0.2415364 1.303385,-0.2415364 h 2.670572 q 0.123047,0 0.232422,0.045573 0.109375,0.045573 0.191406,0.1276041 0.08203,0.082031 0.127604,0.1914062 0.04557,0.1093749 0.04557,0.2324218 z m -5.350258,-2.7890616 h 4.165363 v -2.561197 h -2.082682 q -0.05469,0 -0.232422,0.018229 -0.173177,0.013672 -0.405598,0.077474 -0.227865,0.063802 -0.483073,0.1959635 -0.255208,0.1321614 -0.469401,0.3645832 -0.214193,0.2324218 -0.355469,0.5833331 -0.136718,0.3463541 -0.136718,0.8430987 z"/>
    </g>
    <path d="M 0,0 H 3 V 3 H 0 Z" style="fill:#dddddd" transform="translate(11.5,-5)" id="rect47463"/>
  </g>
  <g transform="translate(14.5,24)" id="g47469"/>
  <g transform="translate(2.2,12)" id="g47485">
    <g transform="translate(20,20)" id="g47483">
      <g transform="rotate(-90,-5,-5)" id="g47473">
        <path d="M 0,0 H 4" style="stroke:#333333;stroke-width:1" id="polyline47471"/>
      </g>
      <path d="M 0,-12.5 A 12.5,12.5 0 0 1 12.5,0" stroke-width="0.5" stroke-linecap="round" fill="none" transform="rotate(20)" id="path47475"/>
      <path d="M 0,-12.5 A 12.5,12.5 0 0 1 12.5,0" stroke-width="0.5" stroke-linecap="round" fill="none" transform="rotate(43)" id="path47477"/>
      <path d="M 0,-12.5 A 12.5,12.5 0 0 0 -12.5,0" stroke-width="0.5" stroke-linecap="round" fill="none" transform="rotate(-20)" id="path47479"/>
      <path d="M 0,-12.5 A 12.5,12.5 0 0 0 -12.5,0" stroke-width="0.5" stroke-linecap="round" fill="none" transform="rotate(-43)" id="path47481"/>
    </g>
  </g>
  <g style="font-weight:bold;font-size:6.66667px;font-family:Roboto, sans-serif;letter-spacing:1px;fill:#333333" id="text47487" aria-label="1">
    <path id="path47808" style="font-weight:bold;font-size:6.66667px;font-family:Roboto, sans-serif;letter-spacing:1px;fill:#333333" d="M 5.6074231,34.5 H 4.6666675 v -3.626304 l -1.1230474,0.348308 v -0.764975 l 1.9628915,-0.703125 h 0.1009115 z"/>
  </g>
  <g transform="translate(38.5,30.4)" id="g47489"/>
  <g transform="translate(14.5,55.5)" id="g47493"/>
  <g transform="translate(2.2,43.5)" id="g47509">
    <g transform="translate(20,20)" id="g47507">
      <g transform="rotate(-90,-5,-5)" id="g47497">
        <path d="M 0,0 H 4" style="stroke:#333333;stroke-width:1" id="polyline47495"/>
      </g>
      <path d="M 0,-12.5 A 12.5,12.5 0 0 1 12.5,0" stroke-width="0.5" stroke-linecap="round" fill="none" transform="rotate(20)" id="path47499"/>
      <path d="M 0,-12.5 A 12.5,12.5 0 0 1 12.5,0" stroke-width="0.5" stroke-linecap="round" fill="none" transform="rotate(43)" id="path47501"/>
      <path d="M 0,-12.5 A 12.5,12.5 0 0 0 -12.5,0" stroke-width="0.5" stroke-linecap="round" fill="none" transform="rotate(-20)" id="path47503"/>
      <path d="M 0,-12.5 A 12.5,12.5 0 0 0 -12.5,0" stroke-width="0.5" stroke-linecap="round" fill="none" transform="rotate(-43)" id="path47505"/>
    </g>
  </g>
  <g style="font-weight:bold;font-size:6.66667px;font-family:Roboto, sans-serif;letter-spacing:1px;fill:#333333" id="text47511" aria-label="2">
    <path id="path47804" style="font-weight:bold;font-size:6.66667px;font-family:Roboto, sans-serif;letter-spacing:1px;fill:#333333" d="M 6.5709652,66 H 3.3222658 v -0.644532 l 1.5332038,-1.634115 q 0.3157554,-0.345052 0.465495,-0.602214 0.1529949,-0.257161 0.1529949,-0.488281 0,-0.315756 -0.1595053,-0.494792 -0.1595053,-0.182292 -0.4557294,-0.182292 -0.3190105,0 -0.5045575,0.221354 -0.1822917,0.218099 -0.1822917,0.576173 H 3.2278647 q 0,-0.432943 0.2050782,-0.791016 0.2083334,-0.358074 0.5859378,-0.559897 0.3776043,-0.205078 0.8561202,-0.205078 0.7324222,0 1.1360682,0.351563 0.4069013,0.351563 0.4069013,0.992839 0,0.351563 -0.1822918,0.716146 -0.1822917,0.364584 -0.6250003,0.84961 l -1.0774744,1.136068 h 2.0377613 z"/>
  </g>
  <g transform="translate(38.5,61.9)" id="g47513"/>
  <g transform="translate(14.5,87)" id="g47517"/>
  <g transform="translate(2.2,75)" id="g47533">
    <g transform="translate(20,20)" id="g47531">
      <g transform="rotate(-90,-5,-5)" id="g47521">
        <path d="M 0,0 H 4" style="stroke:#333333;stroke-width:1" id="polyline47519"/>
      </g>
      <path d="M 0,-12.5 A 12.5,12.5 0 0 1 12.5,0" stroke-width="0.5" stroke-linecap="round" fill="none" transform="rotate(20)" id="path47523"/>
      <path d="M 0,-12.5 A 12.5,12.5 0 0 1 12.5,0" stroke-width="0.5" stroke-linecap="round" fill="none" transform="rotate(43)" id="path47525"/>
      <path d="M 0,-12.5 A 12.5,12.5 0 0 0 -12.5,0" stroke-width="0.5" stroke-linecap="round" fill="none" transform="rotate(-20)" id="path47527"/>
      <path d="M 0,-12.5 A 12.5,12.5 0 0 0 -12.5,0" stroke-width="0.5" stroke-linecap="round" fill="none" transform="rotate(-43)" id="path47529"/>
    </g>
  </g>
  <g style="font-weight:bold;font-size:6.66667px;font-family:Roboto, sans-serif;letter-spacing:1px;fill:#333333" id="text47535" aria-label="3">
    <path id="path47800" style="font-weight:bold;font-size:6.66667px;font-family:Roboto, sans-serif;letter-spacing:1px;fill:#333333" d="m 4.2792975,94.71354 h 0.5013023 q 0.3580731,0 0.5305992,-0.179036 0.1725261,-0.179037 0.1725261,-0.475261 0,-0.286458 -0.1725261,-0.445964 -0.1692709,-0.159505 -0.4687502,-0.159505 -0.2701824,0 -0.4524742,0.14974 -0.1822917,0.146484 -0.1822917,0.384115 H 3.2669272 q 0,-0.371094 0.1985678,-0.664063 0.201823,-0.296224 0.5598961,-0.46224 0.3613283,-0.166016 0.7942712,-0.166016 0.7519535,0 1.178386,0.361329 0.4264325,0.358073 0.4264325,0.989583 0,0.325521 -0.1985678,0.598959 -0.1985678,0.273438 -0.5208336,0.419922 0.4003908,0.143229 0.5957034,0.429688 0.1985678,0.286458 0.1985678,0.677083 0,0.631511 -0.4622398,1.012371 -0.4589846,0.380859 -1.2174485,0.380859 -0.7096357,0 -1.1621099,-0.374349 -0.449219,-0.374349 -0.449219,-0.989584 h 0.9407557 q 0,0.266927 0.1985678,0.436198 0.201823,0.169271 0.4947919,0.169271 0.3352866,0 0.5240888,-0.175781 0.1920574,-0.179037 0.1920574,-0.472005 0,-0.709636 -0.7812504,-0.709636 H 4.2792975 Z"/>
  </g>
  <g transform="translate(38.5,93.4)" id="g47537"/>
  <g transform="translate(14.5,118.5)" id="g47541"/>
  <g transform="translate(2.2,106.5)" id="g47557">
    <g transform="translate(20,20)" id="g47555">
      <g transform="rotate(-90,-5,-5)" id="g47545">
        <path d="M 0,0 H 4" style="stroke:#333333;stroke-width:1" id="polyline47543"/>
      </g>
      <path d="M 0,-12.5 A 12.5,12.5 0 0 1 12.5,0" stroke-width="0.5" stroke-linecap="round" fill="none" transform="rotate(20)" id="path47547"/>
      <path d="M 0,-12.5 A 12.5,12.5 0 0 1 12.5,0" stroke-width="0.5" stroke-linecap="round" fill="none" transform="rotate(43)" id="path47549"/>
      <path d="M 0,-12.5 A 12.5,12.5 0 0 0 -12.5,0" stroke-width="0.5" stroke-linecap="round" fill="none" transform="rotate(-20)" id="path47551"/>
      <path d="M 0,-12.5 A 12.5,12.5 0 0 0 -12.5,0" stroke-width="0.5" stroke-linecap="round" fill="none" transform="rotate(-43)" id="path47553"/>
    </g>
  </g>
  <g style="font-weight:bold;font-size:6.66667px;font-family:Roboto, sans-serif;letter-spacing:1px;fill:#333333" id="text47559" aria-label="4">
    <path id="path47796" style="font-weight:bold;font-size:6.66667px;font-family:Roboto, sans-serif;letter-spacing:1px;fill:#333333" d="m 6.1054702,127.21614 h 0.5371097 v 0.75847 H 6.1054702 V 129 H 5.1647146 v -1.02539 H 3.2213543 l -0.042318,-0.59245 1.9759124,-3.12175 h 0.9505213 z m -1.9889332,0 h 1.0481776 v -1.67317 l -0.061849,0.10742 z"/>
  </g>
  <g transform="translate(38.5,124.9)" id="g47561"/>
  <g transform="translate(14.5,150)" id="g47565"/>
  <g transform="translate(2.2,138)" id="g47581">
    <g transform="translate(20,20)" id="g47579">
      <g transform="rotate(-90,-5,-5)" id="g47569">
        <path d="M 0,0 H 4" style="stroke:#333333;stroke-width:1" id="polyline47567"/>
      </g>
      <path d="M 0,-12.5 A 12.5,12.5 0 0 1 12.5,0" stroke-width="0.5" stroke-linecap="round" fill="none" transform="rotate(20)" id="path47571"/>
      <path d="M 0,-12.5 A 12.5,12.5 0 0 1 12.5,0" stroke-width="0.5" stroke-linecap="round" fill="none" transform="rotate(43)" id="path47573"/>
      <path d="M 0,-12.5 A 12.5,12.5 0 0 0 -12.5,0" stroke-width="0.5" stroke-linecap="round" fill="none" transform="rotate(-20)" id="path47575"/>
      <path d="M 0,-12.5 A 12.5,12.5 0 0 0 -12.5,0" stroke-width="0.5" stroke-linecap="round" fill="none" transform="rotate(-43)" id="path47577"/>
    </g>
  </g>
  <g style="font-weight:bold;font-size:6.66667px;font-family:Roboto, sans-serif;letter-spacing:1px;fill:#333333" id="text47583" aria-label="5">
    <path id="path47792" style="font-weight:bold;font-size:6.66667px;font-family:Roboto, sans-serif;letter-spacing:1px;fill:#333333" d="m 3.4622398,158.16927 0.2734376,-2.40886 h 2.6562513 v 0.78451 H 4.5071622 l -0.1171876,1.01888 q 0.3352866,-0.17904 0.712891,-0.17904 0.6770836,0 1.0611984,0.41993 0.3841148,0.41992 0.3841148,1.17513 0,0.45898 -0.1953126,0.82357 -0.1920574,0.36132 -0.5533857,0.56315 -0.3613283,0.19856 -0.852865,0.19856 -0.4296877,0 -0.7975264,-0.17252 -0.3678387,-0.17578 -0.5826826,-0.49154 -0.2115886,-0.31575 -0.2246095,-0.7194 h 0.9309901 q 0.029297,0.29622 0.2050782,0.46224 0.1790365,0.16276 0.465495,0.16276 0.3190106,0 0.4915367,-0.22786 0.1725261,-0.23112 0.1725261,-0.65105 0,-0.40364 -0.1985678,-0.61849 -0.1985678,-0.21484 -0.5631513,-0.21484 -0.3352866,0 -0.54362,0.17578 l -0.091146,0.0846 z"/>
  </g>
  <g transform="translate(38.5,156.4)" id="g47585"/>
  <g transform="translate(14.5,181.5)" id="g47589"/>
  <g transform="translate(2.2,169.5)" id="g47605">
    <g transform="translate(20,20)" id="g47603">
      <g transform="rotate(-90,-5,-5)" id="g47593">
        <path d="M 0,0 H 4" style="stroke:#333333;stroke-width:1" id="polyline47591"/>
      </g>
      <path d="M 0,-12.5 A 12.5,12.5 0 0 1 12.5,0" stroke-width="0.5" stroke-linecap="round" fill="none" transform="rotate(20)" id="path47595"/>
      <path d="M 0,-12.5 A 12.5,12.5 0 0 1 12.5,0" stroke-width="0.5" stroke-linecap="round" fill="none" transform="rotate(43)" id="path47597"/>
      <path d="M 0,-12.5 A 12.5,12.5 0 0 0 -12.5,0" stroke-width="0.5" stroke-linecap="round" fill="none" transform="rotate(-20)" id="path47599"/>
      <path d="M 0,-12.5 A 12.5,12.5 0 0 0 -12.5,0" stroke-width="0.5" stroke-linecap="round" fill="none" transform="rotate(-43)" id="path47601"/>
    </g>
  </g>
  <g style="font-weight:bold;font-size:6.66667px;font-family:Roboto, sans-serif;letter-spacing:1px;fill:#333333" id="text47607" aria-label="6">
    <path id="path47788" style="font-weight:bold;font-size:6.66667px;font-family:Roboto, sans-serif;letter-spacing:1px;fill:#333333" d="m 5.8743503,187.21159 v 0.77474 h -0.091146 q -0.6380212,0.01 -1.0286464,0.33203 -0.3873699,0.32226 -0.465495,0.89518 0.3776044,-0.38411 0.9537765,-0.38411 0.6184899,0 0.9830734,0.4427 0.3645835,0.44271 0.3645835,1.16537 0,0.46224 -0.201823,0.83659 -0.1985678,0.37435 -0.5664065,0.58268 -0.3645835,0.20833 -0.8268233,0.20833 -0.7486983,0 -1.2109381,-0.52083 Q 3.325521,191.02344 3.325521,190.1543 v -0.33855 q 0,-0.77148 0.2897137,-1.36067 0.2929689,-0.59245 0.8365889,-0.91472 0.5468753,-0.32552 1.2662767,-0.32877 z m -0.9179692,2.37304 q -0.2278647,0 -0.4134116,0.12045 -0.185547,0.11718 -0.2734376,0.3125 v 0.28646 q 0,0.472 0.1855469,0.73893 0.185547,0.26367 0.5208336,0.26367 0.3027345,0 0.4882815,-0.23763 0.1888022,-0.24089 0.1888022,-0.62175 0,-0.38737 -0.1888022,-0.625 -0.1888022,-0.23763 -0.5078128,-0.23763 z"/>
  </g>
  <g transform="translate(38.5,187.9)" id="g47609"/>
  <g transform="translate(14.5,213)" id="g47613"/>
  <g transform="translate(2.2,201)" id="g47629">
    <g transform="translate(20,20)" id="g47627">
      <g transform="rotate(-90,-5,-5)" id="g47617">
        <path d="M 0,0 H 4" style="stroke:#333333;stroke-width:1" id="polyline47615"/>
      </g>
      <path d="M 0,-12.5 A 12.5,12.5 0 0 1 12.5,0" stroke-width="0.5" stroke-linecap="round" fill="none" transform="rotate(20)" id="path47619"/>
      <path d="M 0,-12.5 A 12.5,12.5 0 0 1 12.5,0" stroke-width="0.5" stroke-linecap="round" fill="none" transform="rotate(43)" id="path47621"/>
      <path d="M 0,-12.5 A 12.5,12.5 0 0 0 -12.5,0" stroke-width="0.5" stroke-linecap="round" fill="none" transform="rotate(-20)" id="path47623"/>
      <path d="M 0,-12.5 A 12.5,12.5 0 0 0 -12.5,0" stroke-width="0.5" stroke-linecap="round" fill="none" transform="rotate(-43)" id="path47625"/>
    </g>
  </g>
  <g style="font-weight:bold;font-size:6.66667px;font-family:Roboto, sans-serif;letter-spacing:1px;fill:#333333" id="text47631" aria-label="7">
    <path id="path47784" style="font-weight:bold;font-size:6.66667px;font-family:Roboto, sans-serif;letter-spacing:1px;fill:#333333" d="M 6.5449236,219.28776 4.7122404,223.5 h -0.992839 l 1.8359384,-3.97787 h -2.356772 v -0.76172 h 3.3463558 z"/>
  </g>
  <g transform="translate(38.5,219.4)" id="g47633"/>
  <g transform="translate(14.5,244.5)" id="g47637"/>
  <g transform="translate(2.2,232.5)" id="g47653">
    <g transform="translate(20,20)" id="g47651">
      <g transform="rotate(-90,-5,-5)" id="g47641">
        <path d="M 0,0 H 4" style="stroke:#333333;stroke-width:1" id="polyline47639"/>
      </g>
      <path d="M 0,-12.5 A 12.5,12.5 0 0 1 12.5,0" stroke-width="0.5" stroke-linecap="round" fill="none" transform="rotate(20)" id="path47643"/>
      <path d="M 0,-12.5 A 12.5,12.5 0 0 1 12.5,0" stroke-width="0.5" stroke-linecap="round" fill="none" transform="rotate(43)" id="path47645"/>
      <path d="M 0,-12.5 A 12.5,12.5 0 0 0 -12.5,0" stroke-width="0.5" stroke-linecap="round" fill="none" transform="rotate(-20)" id="path47647"/>
      <path d="M 0,-12.5 A 12.5,12.5 0 0 0 -12.5,0" stroke-width="0.5" stroke-linecap="round" fill="none" transform="rotate(-43)" id="path47649"/>
    </g>
  </g>
  <g style="font-weight:bold;font-size:6.66667px;font-family:Roboto, sans-serif;letter-spacing:1px;fill:#333333" id="text47655" aria-label="8">
    <path id="path47780" style="font-weight:bold;font-size:6.66667px;font-family:Roboto, sans-serif;letter-spacing:1px;fill:#333333" d="m 6.41146,251.52018 q 0,0.34505 -0.1725262,0.61198 -0.1725261,0.26693 -0.4752606,0.42643 0.3450522,0.16602 0.5468753,0.45899 0.201823,0.28971 0.201823,0.68359 0,0.63151 -0.4296877,0.99935 -0.4296877,0.36458 -1.1686204,0.36458 -0.7389326,0 -1.1718755,-0.36783 -0.432943,-0.36784 -0.432943,-0.9961 0,-0.39388 0.2018231,-0.68685 0.201823,-0.29297 0.54362,-0.45573 -0.3027345,-0.1595 -0.4752606,-0.42643 -0.169271,-0.26693 -0.169271,-0.61198 0,-0.60547 0.4036461,-0.96354 0.403646,-0.36133 1.0970057,-0.36133 0.6901045,0 1.0937505,0.35807 0.4069013,0.35482 0.4069013,0.9668 z m -0.8430994,2.11263 q 0,-0.30924 -0.1790365,-0.49479 -0.1790366,-0.18555 -0.4817711,-0.18555 -0.2994793,0 -0.4785159,0.18555 -0.1790365,0.18229 -0.1790365,0.49479 0,0.30274 0.1757813,0.48828 0.1757814,0.18555 0.4882815,0.18555 0.3059897,0 0.4785159,-0.17904 0.1757813,-0.17903 0.1757813,-0.49479 z m -0.097656,-2.06706 q 0,-0.27669 -0.1464844,-0.4427 -0.1464845,-0.16928 -0.4134117,-0.16928 -0.263672,0 -0.4101564,0.16276 -0.1464845,0.16277 -0.1464845,0.44922 0,0.28321 0.1464845,0.45573 0.1464844,0.17253 0.4134116,0.17253 0.2669272,0 0.4101565,-0.17253 0.1464844,-0.17252 0.1464844,-0.45573 z"/>
  </g>
  <g transform="translate(38.5,250.9)" id="g47657"/>
  <path class="output-background" d="m 10.5,270 h 24 c 2.77,0 5,2.23 5,5 v 30 c 0,2.77 -2.23,5 -5,5 h -24 c -2.77,0 -5,-2.23 -5,-5 v -30 c 0,-2.77 2.23,-5 5,-5 z" style="fill:#bbbbbb" id="rect47661"/>
  <g transform="translate(10.5,274)" id="g47663"/>
  <g class="output-label" style="font-weight:bold;font-size:8px;font-family:Roboto, sans-serif;letter-spacing:2px;fill:#333333" id="text47665" aria-label="OUT">
    <path id="path47772" style="font-weight:bold;font-size:8px;font-family:Roboto, sans-serif;letter-spacing:2px;fill:#333333" d="m 17.679687,303.28516 q 0,0.83984 -0.296875,1.47265 -0.296875,0.63281 -0.851562,0.97656 -0.550781,0.34375 -1.265625,0.34375 -0.707031,0 -1.261719,-0.33984 -0.554687,-0.33984 -0.859375,-0.96875 -0.304687,-0.63281 -0.308593,-1.45312 v -0.28125 q 0,-0.83985 0.300781,-1.47657 0.304687,-0.64062 0.855469,-0.98047 0.554687,-0.34375 1.265625,-0.34375 0.710937,0 1.261718,0.34375 0.554688,0.33985 0.855469,0.98047 0.304687,0.63672 0.304687,1.47266 z m -1.1875,-0.25782 q 0,-0.89453 -0.320312,-1.35937 -0.320312,-0.46485 -0.914062,-0.46485 -0.589844,0 -0.910157,0.46094 -0.320312,0.45703 -0.324218,1.34375 v 0.27735 q 0,0.87109 0.320312,1.35156 0.320313,0.48047 0.921875,0.48047 0.589844,0 0.90625,-0.46094 0.316406,-0.46484 0.320312,-1.35156 z"/>
    <path id="path47774" style="font-weight:bold;font-size:8px;font-family:Roboto, sans-serif;letter-spacing:2px;fill:#333333" d="m 24.84375,300.3125 v 3.74609 q 0,0.9336 -0.585938,1.47657 -0.582031,0.54296 -1.59375,0.54296 -0.996093,0 -1.582031,-0.52734 -0.585937,-0.52734 -0.597656,-1.44922 v -3.78906 h 1.171875 v 3.75391 q 0,0.55859 0.265625,0.8164 0.269531,0.25391 0.742187,0.25391 0.988282,0 1.003907,-1.03906 v -3.78516 z"/>
    <path id="path47776" style="font-weight:bold;font-size:8px;font-family:Roboto, sans-serif;letter-spacing:2px;fill:#333333" d="M 32.085937,301.26172 H 30.34375 V 306 h -1.171875 v -4.73828 h -1.71875 v -0.94922 h 4.632812 z"/>
  </g>
</svg>
