<?xml version="1.0" encoding="UTF-8" standalone="no"?>
<svg xmlns:dc="http://purl.org/dc/elements/1.1/" xmlns:cc="http://creativecommons.org/ns#" xmlns:rdf="http://www.w3.org/1999/02/22-rdf-syntax-ns#" xmlns:svg="http://www.w3.org/2000/svg" xmlns="http://www.w3.org/2000/svg" xmlns:sodipodi="http://sodipodi.sourceforge.net/DTD/sodipodi-0.dtd" xmlns:inkscape="http://www.inkscape.org/namespaces/inkscape" inkscape:version="1.0 (4035a4f, 2020-05-01)" sodipodi:docname="svg_render_PolyCon16-pp.svg" id="svg470" viewBox="0 0 120 380" height="380" width="120" version="1.1">
  <metadata id="metadata476">
    <rdf:RDF>
      <cc:Work rdf:about="">
        <dc:format>image/svg+xml</dc:format>
        <dc:type rdf:resource="http://purl.org/dc/dcmitype/StillImage"/>
      </cc:Work>
    </rdf:RDF>
  </metadata>
  <defs id="defs474"/>
  <sodipodi:namedview inkscape:current-layer="svg470" inkscape:window-maximized="0" inkscape:window-y="23" inkscape:window-x="0" inkscape:cy="190" inkscape:cx="60" inkscape:zoom="1.7605263" showgrid="false" id="namedview472" inkscape:window-height="480" inkscape:window-width="689" inkscape:pageshadow="2" inkscape:pageopacity="0" guidetolerance="10" gridtolerance="10" objecttolerance="10" borderopacity="1" bordercolor="#666666" pagecolor="#ffffff"/>
  
  <svg version="1.1" id="svg6" width="100%" height="100%">
    <path class="module-background background-fill" d="M 0,0 H 120 V 380 H 0 Z" style="fill:#dddddd" id="rect4"/>
  </svg>
  <svg version="1.1" id="svg14" width="100%" height="100%">
    <path class="module-border-inner" d="M 1,1 H 119 V 379 H 1 V 1" style="fill:none;stroke:#e4e4e4;stroke-width:0.5" id="polyline8"/>
    <path class="module-border-middle" d="m 0.5,0.5 h 119 v 379 H 0.5 V 0.5" style="fill:none;stroke:#ebebeb;stroke-width:0.8" id="polyline10"/>
    <path class="module-border-outer" d="M 0,0 H 120 V 380 H 0 V 0" style="fill:none;stroke:#f2f2f2;stroke-width:1" id="polyline12"/>
  </svg>
  <g class="title" style="font-weight:normal;font-size:12px;font-family:Comfortaa, sans-serif;letter-spacing:2px;text-anchor:middle;fill:#333333" id="text16" aria-label="POLYCON16">
    <path id="path846" style="font-weight:normal;font-size:12px;font-family:Comfortaa, sans-serif;letter-spacing:2px;text-anchor:middle;fill:#333333" d="m 17.023469,19 q -0.204,0 -0.336,-0.132 -0.132,-0.132 -0.132,-0.336 v -8.436 q 0,-0.204 0.132,-0.336 0.132,-0.132 0.336,-0.132 h 2.4 q 0.876,0 1.56,0.396 0.696,0.384 1.08,1.08 0.384,0.684 0.384,1.572 0,0.876 -0.384,1.56 -0.384,0.684 -1.08,1.068 -0.684,0.384 -1.56,0.384 h -1.932 v 2.844 q 0,0.204 -0.132,0.336 -0.132,0.132 -0.336,0.132 z m 2.4,-4.212 q 0.612,0 1.092,-0.264 0.48,-0.276 0.744,-0.756 0.276,-0.48 0.276,-1.092 0,-0.624 -0.276,-1.104 -0.264,-0.492 -0.744,-0.768 -0.48,-0.276 -1.092,-0.276 h -1.932 v 4.26 z"/>
    <path id="path848" style="font-weight:normal;font-size:12px;font-family:Comfortaa, sans-serif;letter-spacing:2px;text-anchor:middle;fill:#333333" d="m 30.223406,19.12 q -1.368,0 -2.46,-0.624 -1.092,-0.624 -1.716,-1.716 -0.612,-1.104 -0.612,-2.472 0,-1.368 0.612,-2.46 0.624,-1.092 1.716,-1.716 1.092,-0.624 2.46,-0.624 1.356,0 2.448,0.624 1.104,0.624 1.716,1.716 0.624,1.092 0.624,2.46 0,1.368 -0.624,2.472 -0.612,1.092 -1.716,1.716 -1.092,0.624 -2.448,0.624 z m 0,-0.888 q 1.092,0 1.968,-0.516 0.888,-0.516 1.392,-1.404 0.504,-0.9 0.504,-2.004 0,-1.092 -0.504,-1.98 -0.504,-0.9 -1.392,-1.416 -0.876,-0.516 -1.968,-0.516 -1.104,0 -1.992,0.516 -0.876,0.516 -1.38,1.416 -0.504,0.888 -0.504,1.98 0,1.104 0.504,2.004 0.504,0.888 1.38,1.404 0.888,0.516 1.992,0.516 z"/>
    <path id="path850" style="font-weight:normal;font-size:12px;font-family:Comfortaa, sans-serif;letter-spacing:2px;text-anchor:middle;fill:#333333" d="m 39.421906,19 q -0.192,0 -0.336,-0.132 -0.132,-0.144 -0.132,-0.336 v -8.436 q 0,-0.192 0.132,-0.324 0.144,-0.144 0.336,-0.144 0.204,0 0.336,0.132 0.132,0.132 0.132,0.336 v 8.016 h 4.692 q 0.204,0 0.336,0.132 0.132,0.12 0.132,0.312 0,0.192 -0.132,0.324 -0.132,0.12 -0.336,0.12 z"/>
    <path id="path852" style="font-weight:normal;font-size:12px;font-family:Comfortaa, sans-serif;letter-spacing:2px;text-anchor:middle;fill:#333333" d="m 53.085344,9.628 q 0.18,0 0.288,0.132 0.12,0.12 0.12,0.3 0,0.168 -0.084,0.3 l -3.276,5.172 v 3 q 0,0.192 -0.132,0.336 -0.132,0.132 -0.336,0.132 -0.192,0 -0.336,-0.132 -0.132,-0.144 -0.132,-0.336 v -3 l -3.264,-5.172 q -0.096,-0.156 -0.096,-0.3 0,-0.18 0.132,-0.3 0.132,-0.132 0.324,-0.132 0.132,0 0.216,0.06 0.096,0.048 0.18,0.168 l 2.988,4.812 2.976,-4.788 q 0.096,-0.132 0.192,-0.192 0.096,-0.06 0.24,-0.06 z"/>
    <path id="path854" style="font-weight:normal;font-size:12px;font-family:Comfortaa, sans-serif;letter-spacing:2px;text-anchor:middle;fill:#333333" d="m 60.361219,19.12 q -1.272,0 -2.34,-0.648 -1.068,-0.648 -1.704,-1.752 -0.624,-1.104 -0.624,-2.412 0,-1.296 0.624,-2.4 0.624,-1.104 1.692,-1.752 1.068,-0.648 2.352,-0.648 0.864,0 1.572,0.252 0.708,0.252 1.368,0.804 0.132,0.096 0.132,0.276 0,0.096 -0.048,0.18 -0.048,0.072 -0.132,0.108 -0.024,0.084 -0.108,0.132 -0.084,0.048 -0.18,0.048 -0.18,0 -0.3,-0.108 -0.468,-0.42 -1.02,-0.612 -0.552,-0.192 -1.284,-0.192 -1.008,0 -1.872,0.54 -0.864,0.528 -1.38,1.428 -0.504,0.9 -0.504,1.944 0,1.068 0.504,1.968 0.504,0.9 1.368,1.428 0.864,0.528 1.884,0.528 1.308,0 2.364,-0.84 0.132,-0.096 0.264,-0.096 0.18,0 0.312,0.132 0.132,0.12 0.132,0.324 0,0.192 -0.132,0.336 -1.128,1.032 -2.94,1.032 z"/>
    <path id="path856" style="font-weight:normal;font-size:12px;font-family:Comfortaa, sans-serif;letter-spacing:2px;text-anchor:middle;fill:#333333" d="m 71.739031,19.12 q -1.368,0 -2.46,-0.624 -1.092,-0.624 -1.716,-1.716 -0.612,-1.104 -0.612,-2.472 0,-1.368 0.612,-2.46 0.624,-1.092 1.716,-1.716 1.092,-0.624 2.46,-0.624 1.356,0 2.448,0.624 1.104,0.624 1.716,1.716 0.624,1.092 0.624,2.46 0,1.368 -0.624,2.472 -0.612,1.092 -1.716,1.716 -1.092,0.624 -2.448,0.624 z m 0,-0.888 q 1.092,0 1.968,-0.516 0.888,-0.516 1.392,-1.404 0.504,-0.9 0.504,-2.004 0,-1.092 -0.504,-1.98 -0.504,-0.9 -1.392,-1.416 -0.876,-0.516 -1.968,-0.516 -1.104,0 -1.992,0.516 -0.876,0.516 -1.38,1.416 -0.504,0.888 -0.504,1.98 0,1.104 0.504,2.004 0.504,0.888 1.38,1.404 0.888,0.516 1.992,0.516 z"/>
    <path id="path858" style="font-weight:normal;font-size:12px;font-family:Comfortaa, sans-serif;letter-spacing:2px;text-anchor:middle;fill:#333333" d="m 80.937531,19 q -0.204,0 -0.336,-0.132 -0.132,-0.132 -0.132,-0.336 v -8.436 q 0,-0.204 0.132,-0.336 0.132,-0.132 0.336,-0.132 0.216,0 0.36,0.168 l 5.736,7.536 v -7.236 q 0,-0.204 0.132,-0.336 0.144,-0.132 0.336,-0.132 0.204,0 0.336,0.132 0.132,0.132 0.132,0.336 v 8.436 q 0,0.192 -0.132,0.336 -0.132,0.132 -0.336,0.132 -0.24,0 -0.348,-0.156 l -5.748,-7.536 v 7.224 q 0,0.192 -0.132,0.336 -0.132,0.132 -0.336,0.132 z"/>
    <path id="path860" style="font-weight:normal;font-size:12px;font-family:Comfortaa, sans-serif;letter-spacing:2px;text-anchor:middle;fill:#333333" d="m 94.028156,19 q -0.192,0 -0.336,-0.132 -0.132,-0.144 -0.132,-0.336 v -7.8 l -1.2,0.42 q -0.12,0.06 -0.24,0.06 -0.204,0 -0.336,-0.12 -0.132,-0.132 -0.132,-0.336 0,-0.348 0.3,-0.444 l 1.848,-0.636 q 0.18,-0.06 0.24,-0.06 0.192,0 0.324,0.132 0.132,0.132 0.132,0.336 v 8.448 q 0,0.192 -0.132,0.336 -0.132,0.132 -0.336,0.132 z"/>
    <path id="path862" style="font-weight:normal;font-size:12px;font-family:Comfortaa, sans-serif;letter-spacing:2px;text-anchor:middle;fill:#333333" d="m 101.30703,13.36 q 0.792,0 1.428,0.372 0.648,0.36 1.008,1.008 0.372,0.636 0.372,1.44 0,0.804 -0.372,1.452 -0.36,0.636 -0.996,1.008 -0.636,0.36 -1.44,0.36 -0.804,0 -1.451999,-0.36 -0.636,-0.372 -1.008,-1.008 -0.36,-0.648 -0.36,-1.452 0,-0.78 0.36,-1.44 l -0.012,0.012 2.963999,-4.872 q 0.168,-0.252 0.42,-0.252 0.204,0 0.336,0.144 0.144,0.132 0.144,0.312 0,0.12 -0.072,0.252 l -1.884,3.072 q 0.24,-0.048 0.564,-0.048 z m -0.012,4.776 q 0.54,0 0.972,-0.252 0.444,-0.252 0.696,-0.696 0.252,-0.456 0.252,-1.008 0,-0.552 -0.252,-0.996 -0.252,-0.456 -0.696,-0.708 -0.432,-0.264 -0.972,-0.264 -0.54,0 -0.984,0.264 -0.431999,0.252 -0.683999,0.708 -0.252,0.444 -0.252,0.996 0,0.552 0.252,1.008 0.252,0.444 0.683999,0.696 0.444,0.252 0.984,0.252 z"/>
  </g>
  <g transform="translate(5.5,374)" id="g22">
    <g class="brand" style="font-weight:bold;font-size:8.66667px;font-family:Audiowide, sans-serif;letter-spacing:2px;fill:#333333" id="text18" aria-label="BOGAUDIO">
      <path id="path828" style="font-weight:bold;font-size:8.66667px;font-family:Audiowide, sans-serif;letter-spacing:2px;fill:#333333" d="m 6.6946639,-1.3330083 q 0,0.2031251 -0.07194,0.43587255 -0.067708,0.23274749 -0.2285157,0.43164079 -0.1565756,0.1988933 -0.4104819,0.33431002 Q 5.7298198,0 5.3616556,0 H 1.1848963 Q 1.0664066,0 0.9648441,-0.04231772 0.86328157,-0.08463545 0.78710966,-0.15657558 0.71516953,-0.23274748 0.67285181,-0.33431002 0.63053409,-0.43587256 0.63053409,-0.55436218 V -5.5139994 q 0,-0.1142579 0.0423177,-0.2158204 0.0423177,-0.1015625 0.11425785,-0.1777345 0.0761719,-0.076172 0.17773444,-0.1184896 0.1015625,-0.042318 0.2200522,-0.042318 h 3.6816419 q 0.2031251,0 0.4358726,0.07194 0.2327475,0.07194 0.4316408,0.2327475 0.2031251,0.1565756 0.33431,0.4104819 0.1354167,0.2539064 0.1354167,0.6220706 v 0.2073568 q 0,0.2919923 -0.097331,0.6305341 -0.097331,0.33431 -0.3131512,0.6347659 0.186198,0.1142578 0.3470053,0.2750652 0.1650392,0.1608073 0.2877606,0.3723959 0.1227214,0.2115887 0.1946615,0.4781903 0.07194,0.2666017 0.07194,0.5882164 z M 5.5944031,-1.5445969 q 0,-0.2158204 -0.067708,-0.3850913 Q 5.4589864,-2.1031909 5.336265,-2.2259123 5.2135436,-2.3486337 5.0400409,-2.4121103 4.8665382,-2.4798186 4.6507179,-2.4798186 H 2.1708992 V -3.588543 h 1.9847013 q 0.2158204,0 0.389323,-0.063477 0.1735027,-0.067708 0.2962241,-0.1904297 0.1227214,-0.1227214 0.186198,-0.2919923 0.067708,-0.1735027 0.067708,-0.3893231 v -0.2073568 q 0,-0.2369793 -0.2285158,-0.2369793 H 1.7307949 v 3.86784 h 3.6308607 q 0.029622,0 0.07194,-0.00423 0.042318,-0.00423 0.076172,-0.025391 0.033854,-0.021159 0.059245,-0.07194 0.025391,-0.050781 0.025391,-0.1396484 z"/>
      <path id="path830" style="font-weight:bold;font-size:8.66667px;font-family:Audiowide, sans-serif;letter-spacing:2px;fill:#333333" d="m 16.015629,-2.454428 q 0,0.5543622 -0.190429,1.0198572 -0.19043,0.46549492 -0.528972,0.80403671 -0.338542,0.3385418 -0.804037,0.52897155 -0.461263,0.18619799 -1.007161,0.18619799 h -1.489584 q -0.545899,0 -1.011394,-0.18619799 Q 10.518557,-0.29199229 10.180015,-0.63053409 9.8414736,-0.96907588 9.646812,-1.4345708 9.4563823,-1.9000658 9.4563823,-2.454428 v -1.1595056 q 0,-0.5501304 0.1904297,-1.0156254 0.1946616,-0.4697267 0.533203,-0.8040367 0.338542,-0.3385418 0.804037,-0.5289716 0.465495,-0.1904297 1.011394,-0.1904297 h 1.489584 q 0.545898,0 1.007161,0.1904297 0.465495,0.1904298 0.804037,0.5289716 0.338542,0.33431 0.528972,0.8040367 0.190429,0.465495 0.190429,1.0156254 z m -1.10026,-1.1595056 q 0,-0.3258465 -0.105795,-0.5882164 -0.101562,-0.2666016 -0.291992,-0.4527996 -0.186198,-0.1904298 -0.4528,-0.2919923 -0.262369,-0.1057943 -0.579752,-0.1057943 h -1.489584 q -0.321615,0 -0.588217,0.1057943 -0.26237,0.1015625 -0.452799,0.2919923 -0.19043,0.186198 -0.296224,0.4527996 -0.101563,0.2623699 -0.101563,0.5882164 v 1.1595056 q 0,0.3258465 0.101563,0.5924482 0.105794,0.2623698 0.296224,0.4527996 0.190429,0.186198 0.452799,0.2919923 0.266602,0.1015625 0.588217,0.1015625 h 1.48112 q 0.321615,0 0.583985,-0.1015625 0.266601,-0.1057943 0.457031,-0.2919923 0.19043,-0.1904298 0.291992,-0.4527996 0.105795,-0.2666017 0.105795,-0.5924482 z"/>
      <path id="path832" style="font-weight:bold;font-size:8.66667px;font-family:Audiowide, sans-serif;letter-spacing:2px;fill:#333333" d="m 25.099618,-0.55436218 q 0,0.11848962 -0.04232,0.22005216 -0.04232,0.10156254 -0.11849,0.17773444 -0.07194,0.07194013 -0.173502,0.11425786 Q 24.663745,0 24.545255,0 h -3.969402 q -0.152344,0 -0.330078,-0.03385418 -0.173503,-0.03808595 -0.347006,-0.11425785 -0.169271,-0.0761719 -0.325846,-0.19466153 -0.156576,-0.1227214 -0.279297,-0.2919923 -0.11849,-0.17350267 -0.19043,-0.39778664 -0.07194,-0.2285157 -0.07194,-0.5120444 v -2.9791678 q 0,-0.1523438 0.03385,-0.3258465 0.03809,-0.1777344 0.114258,-0.3470053 0.07617,-0.1735027 0.198893,-0.3300782 0.122722,-0.1565756 0.291993,-0.2750652 0.173502,-0.1227214 0.397786,-0.1946616 0.224284,-0.07194 0.507813,-0.07194 h 4.472983 v 1.1002608 h -4.472983 q -0.215821,0 -0.330078,0.1142579 -0.114258,0.1142578 -0.114258,0.3385418 v 2.9707042 q 0,0.2115886 0.114258,0.3300782 0.118489,0.1142579 0.330078,0.1142579 h 3.423504 V -2.4798186 H 21.07097 V -3.588543 h 3.474285 q 0.11849,0 0.220053,0.04655 0.101562,0.042318 0.173502,0.1184896 0.07617,0.076172 0.11849,0.1777345 0.04232,0.097331 0.04232,0.2115886 z"/>
      <path id="path834" style="font-weight:bold;font-size:8.66667px;font-family:Audiowide, sans-serif;letter-spacing:2px;fill:#333333" d="m 34.208996,0 h -1.100261 v -1.4895839 h -3.86784 V 0 h -1.100261 v -3.0341808 q 0,-0.6643883 0.228516,-1.2229822 0.228516,-0.558594 0.634766,-0.9606124 0.40625,-0.4020183 0.960612,-0.6263023 0.554362,-0.2242839 1.210287,-0.2242839 h 2.479819 q 0.114257,0 0.21582,0.042318 0.101562,0.042318 0.177734,0.1184896 0.07617,0.076172 0.11849,0.1777345 0.04232,0.1015625 0.04232,0.2158204 z m -4.968101,-2.5898447 h 3.86784 v -2.3782561 h -1.93392 q -0.05078,0 -0.21582,0.016927 -0.160808,0.012695 -0.376628,0.07194 -0.211589,0.059245 -0.448568,0.1819663 -0.236979,0.1227214 -0.435873,0.3385417 -0.198893,0.2158204 -0.330078,0.5416669 -0.126953,0.3216147 -0.126953,0.7828779 z"/>
      <path id="path836" style="font-weight:bold;font-size:8.66667px;font-family:Audiowide, sans-serif;letter-spacing:2px;fill:#333333" d="m 43.428399,-0.55436218 q 0,0.11848962 -0.04232,0.22005216 -0.04232,0.10156254 -0.11849,0.17773444 -0.07617,0.07194013 -0.177735,0.11425786 Q 42.988295,0 42.874037,0 H 40.394218 Q 40.042981,0 39.683281,-0.0761719 39.32358,-0.15234381 38.985038,-0.30891938 38.650728,-0.46972673 38.354504,-0.71516953 38.05828,-0.96061233 37.833996,-1.2949223 37.613944,-1.6334641 37.486991,-2.0651049 37.360038,-2.5009775 37.360038,-3.0341808 v -3.0341808 h 1.10026 v 3.0341808 q 0,0.465495 0.126954,0.7871097 0.131185,0.3216147 0.330078,0.5374351 0.198893,0.2158203 0.435872,0.3385417 0.23698,0.1227214 0.448568,0.1819663 0.215821,0.059245 0.376628,0.076172 0.165039,0.012695 0.21582,0.012695 h 1.93392 v -4.9681008 h 1.100261 z"/>
      <path id="path838" style="font-weight:bold;font-size:8.66667px;font-family:Audiowide, sans-serif;letter-spacing:2px;fill:#333333" d="m 52.766292,-2.5390634 q 0,0.5543622 -0.194661,1.0198571 -0.19043,0.465495 -0.528972,0.80403677 -0.338541,0.33431002 -0.804036,0.52473977 Q 50.773128,0 50.227229,0 h -2.970704 q -0.11849,0 -0.220052,-0.04231772 -0.101563,-0.04231773 -0.177735,-0.11425786 -0.07194,-0.0761719 -0.114258,-0.17773444 -0.04232,-0.10156254 -0.04232,-0.22005216 V -5.5139994 q 0,-0.1142579 0.04232,-0.2158204 0.04232,-0.1015625 0.114258,-0.1777345 0.07617,-0.076172 0.177735,-0.1184896 0.101562,-0.042318 0.220052,-0.042318 h 2.970704 q 0.545899,0 1.011394,0.1904298 0.465495,0.1904297 0.804036,0.5289715 0.338542,0.33431 0.528972,0.8040368 0.194661,0.4654949 0.194661,1.0156253 z m -1.10026,-0.9902348 q 0,-0.3216147 -0.105795,-0.5882163 -0.101562,-0.2666017 -0.291992,-0.4527997 -0.19043,-0.1904297 -0.457031,-0.2919923 -0.26237,-0.1057943 -0.583985,-0.1057943 h -2.424806 v 3.86784 h 2.424806 q 0.321615,0 0.583985,-0.1015626 0.266601,-0.1057943 0.457031,-0.2919923 0.19043,-0.1904297 0.291992,-0.4527996 0.105795,-0.2666017 0.105795,-0.5924481 z"/>
      <path id="path840" style="font-weight:bold;font-size:8.66667px;font-family:Audiowide, sans-serif;letter-spacing:2px;fill:#333333" d="M 56.962581,0 H 55.86232 v -6.0683616 h 1.100261 z"/>
      <path id="path842" style="font-weight:bold;font-size:8.66667px;font-family:Audiowide, sans-serif;letter-spacing:2px;fill:#333333" d="m 66.626322,-2.454428 q 0,0.5543622 -0.190429,1.0198572 -0.19043,0.46549492 -0.528972,0.80403671 -0.338542,0.3385418 -0.804037,0.52897155 -0.461263,0.18619799 -1.007161,0.18619799 h -1.489584 q -0.545899,0 -1.011394,-0.18619799 -0.465495,-0.19042975 -0.804037,-0.52897155 -0.338541,-0.33854179 -0.533203,-0.80403671 -0.19043,-0.465495 -0.19043,-1.0198572 v -1.1595056 q 0,-0.5501304 0.19043,-1.0156254 0.194662,-0.4697267 0.533203,-0.8040367 0.338542,-0.3385418 0.804037,-0.5289716 0.465495,-0.1904297 1.011394,-0.1904297 h 1.489584 q 0.545898,0 1.007161,0.1904297 0.465495,0.1904298 0.804037,0.5289716 0.338542,0.33431 0.528972,0.8040367 0.190429,0.465495 0.190429,1.0156254 z m -1.10026,-1.1595056 q 0,-0.3258465 -0.105795,-0.5882164 -0.101562,-0.2666016 -0.291992,-0.4527996 -0.186198,-0.1904298 -0.4528,-0.2919923 -0.26237,-0.1057943 -0.579752,-0.1057943 h -1.489584 q -0.321615,0 -0.588217,0.1057943 -0.26237,0.1015625 -0.452799,0.2919923 -0.19043,0.186198 -0.296224,0.4527996 -0.101563,0.2623699 -0.101563,0.5882164 v 1.1595056 q 0,0.3258465 0.101563,0.5924482 0.105794,0.2623698 0.296224,0.4527996 0.190429,0.186198 0.452799,0.2919923 0.266602,0.1015625 0.588217,0.1015625 h 1.48112 q 0.321615,0 0.583985,-0.1015625 0.266601,-0.1057943 0.457031,-0.2919923 0.19043,-0.1904298 0.291992,-0.4527996 0.105795,-0.2666017 0.105795,-0.5924482 z"/>
    </g>
    <path d="M 0,0 H 1.5 V 2 H 0 Z" style="fill:#dddddd" transform="translate(21,-4)" id="rect20"/>
  </g>
  <g transform="translate(25.1,30)" id="g26"/>
  <g transform="translate(15,20)" id="g42">
    <svg version="1.1" id="svg40" width="100%" height="100%">
      <g transform="translate(20,20)" id="g38">
        <path d="M 0,0 H 4" style="stroke:#333333;stroke-width:1" transform="rotate(-90,-5.75,-5.75)" id="polyline28"/>
        <path d="M 0,-13.5 A 13.5,13.5 0 0 1 13.5,0" stroke="#333333" stroke-width="0.5" stroke-linecap="round" fill="none" transform="rotate(20)" id="path30"/>
        <path d="M 0,-13.5 A 13.5,13.5 0 0 1 13.5,0" stroke="#333333" stroke-width="0.5" stroke-linecap="round" fill="none" transform="rotate(43)" id="path32"/>
        <path d="M 0,-13.5 A 13.5,13.5 0 0 0 -13.5,0" stroke="#333333" stroke-width="0.5" stroke-linecap="round" fill="none" transform="rotate(-20)" id="path34"/>
        <path d="M 0,-13.5 A 13.5,13.5 0 0 0 -13.5,0" stroke="#333333" stroke-width="0.5" stroke-linecap="round" fill="none" transform="rotate(-43)" id="path36"/>
      </g>
    </svg>
  </g>
  <g style="font-weight:bold;font-size:6.66667px;font-family:Roboto, sans-serif;letter-spacing:1px;fill:#333333" id="text44" aria-label="1">
    <path id="path824" style="font-weight:bold;font-size:6.66667px;font-family:Roboto, sans-serif;letter-spacing:1px;fill:#333333" d="m 17.607423,42.5 h -0.940756 v -3.626304 l -1.123047,0.348308 v -0.764975 l 1.962892,-0.703125 h 0.100911 z"/>
  </g>
  <g transform="translate(33.75,52)" id="g46"/>
  <g transform="translate(25,67)" id="g50"/>
  <g transform="translate(15,57)" id="g66">
    <svg version="1.1" id="svg64" width="100%" height="100%">
      <g transform="translate(20,20)" id="g62">
        <path d="M 0,0 H 4" style="stroke:#333333;stroke-width:1" transform="rotate(-90,-5.75,-5.75)" id="polyline52"/>
        <path d="M 0,-13.5 A 13.5,13.5 0 0 1 13.5,0" stroke="#333333" stroke-width="0.5" stroke-linecap="round" fill="none" transform="rotate(20)" id="path54"/>
        <path d="M 0,-13.5 A 13.5,13.5 0 0 1 13.5,0" stroke="#333333" stroke-width="0.5" stroke-linecap="round" fill="none" transform="rotate(43)" id="path56"/>
        <path d="M 0,-13.5 A 13.5,13.5 0 0 0 -13.5,0" stroke="#333333" stroke-width="0.5" stroke-linecap="round" fill="none" transform="rotate(-20)" id="path58"/>
        <path d="M 0,-13.5 A 13.5,13.5 0 0 0 -13.5,0" stroke="#333333" stroke-width="0.5" stroke-linecap="round" fill="none" transform="rotate(-43)" id="path60"/>
      </g>
    </svg>
  </g>
  <g style="font-weight:bold;font-size:6.66667px;font-family:Roboto, sans-serif;letter-spacing:1px;fill:#333333" id="text68" aria-label="2">
    <path id="path820" style="font-weight:bold;font-size:6.66667px;font-family:Roboto, sans-serif;letter-spacing:1px;fill:#333333" d="m 18.070965,79.5 h -3.248699 v -0.644532 l 1.533204,-1.634115 q 0.315755,-0.345052 0.465495,-0.602214 0.152995,-0.257161 0.152995,-0.488281 0,-0.315756 -0.159506,-0.494792 -0.159505,-0.182292 -0.455729,-0.182292 -0.319011,0 -0.504558,0.221354 -0.182291,0.218099 -0.182291,0.576173 h -0.944011 q 0,-0.432943 0.205078,-0.791016 0.208333,-0.358074 0.585938,-0.559897 0.377604,-0.205078 0.85612,-0.205078 0.732422,0 1.136068,0.351563 0.406901,0.351563 0.406901,0.992839 0,0.351563 -0.182291,0.716146 -0.182292,0.364584 -0.625001,0.84961 l -1.077474,1.136068 h 2.037761 z"/>
  </g>
  <g transform="translate(33.75,89)" id="g70"/>
  <g transform="translate(25,104)" id="g74"/>
  <g transform="translate(15,94)" id="g90">
    <svg version="1.1" id="svg88" width="100%" height="100%">
      <g transform="translate(20,20)" id="g86">
        <path d="M 0,0 H 4" style="stroke:#333333;stroke-width:1" transform="rotate(-90,-5.75,-5.75)" id="polyline76"/>
        <path d="M 0,-13.5 A 13.5,13.5 0 0 1 13.5,0" stroke="#333333" stroke-width="0.5" stroke-linecap="round" fill="none" transform="rotate(20)" id="path78"/>
        <path d="M 0,-13.5 A 13.5,13.5 0 0 1 13.5,0" stroke="#333333" stroke-width="0.5" stroke-linecap="round" fill="none" transform="rotate(43)" id="path80"/>
        <path d="M 0,-13.5 A 13.5,13.5 0 0 0 -13.5,0" stroke="#333333" stroke-width="0.5" stroke-linecap="round" fill="none" transform="rotate(-20)" id="path82"/>
        <path d="M 0,-13.5 A 13.5,13.5 0 0 0 -13.5,0" stroke="#333333" stroke-width="0.5" stroke-linecap="round" fill="none" transform="rotate(-43)" id="path84"/>
      </g>
    </svg>
  </g>
  <g style="font-weight:bold;font-size:6.66667px;font-family:Roboto, sans-serif;letter-spacing:1px;fill:#333333" id="text92" aria-label="3">
    <path id="path816" style="font-weight:bold;font-size:6.66667px;font-family:Roboto, sans-serif;letter-spacing:1px;fill:#333333" d="M 15.779297,113.71354 H 16.2806 q 0.358073,0 0.530599,-0.17904 0.172526,-0.17903 0.172526,-0.47526 0,-0.28646 -0.172526,-0.44596 -0.169271,-0.15951 -0.46875,-0.15951 -0.270183,0 -0.452474,0.14974 -0.182292,0.14649 -0.182292,0.38412 h -0.940756 q 0,-0.3711 0.198568,-0.66406 0.201823,-0.29623 0.559896,-0.46224 0.361328,-0.16602 0.794271,-0.16602 0.751954,0 1.178386,0.36133 0.426433,0.35807 0.426433,0.98958 0,0.32552 -0.198568,0.59896 -0.198568,0.27344 -0.520834,0.41992 0.400391,0.14323 0.595704,0.42969 0.198568,0.28646 0.198568,0.67708 0,0.63152 -0.46224,1.01237 -0.458985,0.38086 -1.217449,0.38086 -0.709635,0 -1.16211,-0.37434 -0.449219,-0.37435 -0.449219,-0.98959 h 0.940756 q 0,0.26693 0.198568,0.4362 0.201823,0.16927 0.494792,0.16927 0.335286,0 0.524089,-0.17578 0.192057,-0.17904 0.192057,-0.47201 0,-0.70963 -0.78125,-0.70963 h -0.498048 z"/>
  </g>
  <g transform="translate(33.75,126)" id="g94"/>
  <g transform="translate(25,141)" id="g98"/>
  <g transform="translate(15,131)" id="g114">
    <svg version="1.1" id="svg112" width="100%" height="100%">
      <g transform="translate(20,20)" id="g110">
        <path d="M 0,0 H 4" style="stroke:#333333;stroke-width:1" transform="rotate(-90,-5.75,-5.75)" id="polyline100"/>
        <path d="M 0,-13.5 A 13.5,13.5 0 0 1 13.5,0" stroke="#333333" stroke-width="0.5" stroke-linecap="round" fill="none" transform="rotate(20)" id="path102"/>
        <path d="M 0,-13.5 A 13.5,13.5 0 0 1 13.5,0" stroke="#333333" stroke-width="0.5" stroke-linecap="round" fill="none" transform="rotate(43)" id="path104"/>
        <path d="M 0,-13.5 A 13.5,13.5 0 0 0 -13.5,0" stroke="#333333" stroke-width="0.5" stroke-linecap="round" fill="none" transform="rotate(-20)" id="path106"/>
        <path d="M 0,-13.5 A 13.5,13.5 0 0 0 -13.5,0" stroke="#333333" stroke-width="0.5" stroke-linecap="round" fill="none" transform="rotate(-43)" id="path108"/>
      </g>
    </svg>
  </g>
  <g style="font-weight:bold;font-size:6.66667px;font-family:Roboto, sans-serif;letter-spacing:1px;fill:#333333" id="text116" aria-label="4">
    <path id="path812" style="font-weight:bold;font-size:6.66667px;font-family:Roboto, sans-serif;letter-spacing:1px;fill:#333333" d="m 17.40547,151.71614 h 0.53711 v 0.75847 H 17.40547 V 153.5 h -0.940755 v -1.02539 h -1.943361 l -0.04232,-0.59245 1.975912,-3.12175 h 0.950521 z m -1.988933,0 h 1.048178 v -1.67317 l -0.06185,0.10742 z"/>
  </g>
  <g transform="translate(33.75,163)" id="g118"/>
  <g transform="translate(25,178)" id="g122"/>
  <g transform="translate(15,168)" id="g138">
    <svg version="1.1" id="svg136" width="100%" height="100%">
      <g transform="translate(20,20)" id="g134">
        <path d="M 0,0 H 4" style="stroke:#333333;stroke-width:1" transform="rotate(-90,-5.75,-5.75)" id="polyline124"/>
        <path d="M 0,-13.5 A 13.5,13.5 0 0 1 13.5,0" stroke="#333333" stroke-width="0.5" stroke-linecap="round" fill="none" transform="rotate(20)" id="path126"/>
        <path d="M 0,-13.5 A 13.5,13.5 0 0 1 13.5,0" stroke="#333333" stroke-width="0.5" stroke-linecap="round" fill="none" transform="rotate(43)" id="path128"/>
        <path d="M 0,-13.5 A 13.5,13.5 0 0 0 -13.5,0" stroke="#333333" stroke-width="0.5" stroke-linecap="round" fill="none" transform="rotate(-20)" id="path130"/>
        <path d="M 0,-13.5 A 13.5,13.5 0 0 0 -13.5,0" stroke="#333333" stroke-width="0.5" stroke-linecap="round" fill="none" transform="rotate(-43)" id="path132"/>
      </g>
    </svg>
  </g>
  <g style="font-weight:bold;font-size:6.66667px;font-family:Roboto, sans-serif;letter-spacing:1px;fill:#333333" id="text140" aria-label="5">
    <path id="path808" style="font-weight:bold;font-size:6.66667px;font-family:Roboto, sans-serif;letter-spacing:1px;fill:#333333" d="m 14.76224,188.16927 0.273438,-2.40886 h 2.656251 v 0.78451 h -1.884767 l -0.117187,1.01888 q 0.335286,-0.17904 0.712891,-0.17904 0.677083,0 1.061198,0.41993 0.384115,0.41992 0.384115,1.17513 0,0.45898 -0.195313,0.82357 -0.192057,0.36132 -0.553385,0.56315 -0.361329,0.19856 -0.852865,0.19856 -0.429688,0 -0.797527,-0.17252 -0.367838,-0.17578 -0.582682,-0.49154 -0.211589,-0.31575 -0.22461,-0.7194 h 0.93099 q 0.0293,0.29622 0.205078,0.46224 0.179037,0.16276 0.465495,0.16276 0.319011,0 0.491537,-0.22786 0.172526,-0.23112 0.172526,-0.65105 0,-0.40364 -0.198567,-0.61849 -0.198568,-0.21484 -0.563152,-0.21484 -0.335286,0 -0.54362,0.17578 l -0.09115,0.0846 z"/>
  </g>
  <g transform="translate(33.75,200)" id="g142"/>
  <g transform="translate(25,215)" id="g146"/>
  <g transform="translate(15,205)" id="g162">
    <svg version="1.1" id="svg160" width="100%" height="100%">
      <g transform="translate(20,20)" id="g158">
        <path d="M 0,0 H 4" style="stroke:#333333;stroke-width:1" transform="rotate(-90,-5.75,-5.75)" id="polyline148"/>
        <path d="M 0,-13.5 A 13.5,13.5 0 0 1 13.5,0" stroke="#333333" stroke-width="0.5" stroke-linecap="round" fill="none" transform="rotate(20)" id="path150"/>
        <path d="M 0,-13.5 A 13.5,13.5 0 0 1 13.5,0" stroke="#333333" stroke-width="0.5" stroke-linecap="round" fill="none" transform="rotate(43)" id="path152"/>
        <path d="M 0,-13.5 A 13.5,13.5 0 0 0 -13.5,0" stroke="#333333" stroke-width="0.5" stroke-linecap="round" fill="none" transform="rotate(-20)" id="path154"/>
        <path d="M 0,-13.5 A 13.5,13.5 0 0 0 -13.5,0" stroke="#333333" stroke-width="0.5" stroke-linecap="round" fill="none" transform="rotate(-43)" id="path156"/>
      </g>
    </svg>
  </g>
  <g style="font-weight:bold;font-size:6.66667px;font-family:Roboto, sans-serif;letter-spacing:1px;fill:#333333" id="text164" aria-label="6">
    <path id="path804" style="font-weight:bold;font-size:6.66667px;font-family:Roboto, sans-serif;letter-spacing:1px;fill:#333333" d="m 17.174351,222.71159 v 0.77474 h -0.09115 q -0.638021,0.01 -1.028647,0.33203 -0.38737,0.32226 -0.465495,0.89518 0.377605,-0.38411 0.953777,-0.38411 0.61849,0 0.983073,0.4427 0.364584,0.44271 0.364584,1.16537 0,0.46224 -0.201823,0.83659 -0.198568,0.37435 -0.566407,0.58268 -0.364583,0.20833 -0.826823,0.20833 -0.748698,0 -1.210938,-0.52083 -0.458985,-0.52083 -0.458985,-1.38997 v -0.33855 q 0,-0.77148 0.289714,-1.36067 0.292969,-0.59245 0.836589,-0.91472 0.546875,-0.32552 1.266276,-0.32877 z m -0.91797,2.37304 q -0.227864,0 -0.413411,0.12045 -0.185547,0.11718 -0.273438,0.3125 v 0.28646 q 0,0.472 0.185547,0.73893 0.185547,0.26367 0.520834,0.26367 0.302734,0 0.488281,-0.23763 0.188802,-0.24089 0.188802,-0.62175 0,-0.38737 -0.188802,-0.625 -0.188802,-0.23763 -0.507813,-0.23763 z"/>
  </g>
  <g transform="translate(33.75,237)" id="g166"/>
  <g transform="translate(25,252)" id="g170"/>
  <g transform="translate(15,242)" id="g186">
    <svg version="1.1" id="svg184" width="100%" height="100%">
      <g transform="translate(20,20)" id="g182">
        <path d="M 0,0 H 4" style="stroke:#333333;stroke-width:1" transform="rotate(-90,-5.75,-5.75)" id="polyline172"/>
        <path d="M 0,-13.5 A 13.5,13.5 0 0 1 13.5,0" stroke="#333333" stroke-width="0.5" stroke-linecap="round" fill="none" transform="rotate(20)" id="path174"/>
        <path d="M 0,-13.5 A 13.5,13.5 0 0 1 13.5,0" stroke="#333333" stroke-width="0.5" stroke-linecap="round" fill="none" transform="rotate(43)" id="path176"/>
        <path d="M 0,-13.5 A 13.5,13.5 0 0 0 -13.5,0" stroke="#333333" stroke-width="0.5" stroke-linecap="round" fill="none" transform="rotate(-20)" id="path178"/>
        <path d="M 0,-13.5 A 13.5,13.5 0 0 0 -13.5,0" stroke="#333333" stroke-width="0.5" stroke-linecap="round" fill="none" transform="rotate(-43)" id="path180"/>
      </g>
    </svg>
  </g>
  <g style="font-weight:bold;font-size:6.66667px;font-family:Roboto, sans-serif;letter-spacing:1px;fill:#333333" id="text188" aria-label="7">
    <path id="path800" style="font-weight:bold;font-size:6.66667px;font-family:Roboto, sans-serif;letter-spacing:1px;fill:#333333" d="M 17.844924,260.28776 16.012241,264.5 h -0.992839 l 1.835938,-3.97787 h -2.356772 v -0.76172 h 3.346356 z"/>
  </g>
  <g transform="translate(33.75,274)" id="g190"/>
  <g transform="translate(25,289)" id="g194"/>
  <g transform="translate(15,279)" id="g210">
    <svg version="1.1" id="svg208" width="100%" height="100%">
      <g transform="translate(20,20)" id="g206">
        <path d="M 0,0 H 4" style="stroke:#333333;stroke-width:1" transform="rotate(-90,-5.75,-5.75)" id="polyline196"/>
        <path d="M 0,-13.5 A 13.5,13.5 0 0 1 13.5,0" stroke="#333333" stroke-width="0.5" stroke-linecap="round" fill="none" transform="rotate(20)" id="path198"/>
        <path d="M 0,-13.5 A 13.5,13.5 0 0 1 13.5,0" stroke="#333333" stroke-width="0.5" stroke-linecap="round" fill="none" transform="rotate(43)" id="path200"/>
        <path d="M 0,-13.5 A 13.5,13.5 0 0 0 -13.5,0" stroke="#333333" stroke-width="0.5" stroke-linecap="round" fill="none" transform="rotate(-20)" id="path202"/>
        <path d="M 0,-13.5 A 13.5,13.5 0 0 0 -13.5,0" stroke="#333333" stroke-width="0.5" stroke-linecap="round" fill="none" transform="rotate(-43)" id="path204"/>
      </g>
    </svg>
  </g>
  <g style="font-weight:bold;font-size:6.66667px;font-family:Roboto, sans-serif;letter-spacing:1px;fill:#333333" id="text212" aria-label="8">
    <path id="path796" style="font-weight:bold;font-size:6.66667px;font-family:Roboto, sans-serif;letter-spacing:1px;fill:#333333" d="m 17.71146,298.02018 q 0,0.34505 -0.172526,0.61198 -0.172526,0.26693 -0.475261,0.42643 0.345053,0.16602 0.546876,0.45899 0.201823,0.28971 0.201823,0.68359 0,0.63151 -0.429688,0.99935 -0.429688,0.36458 -1.16862,0.36458 -0.738933,0 -1.171876,-0.36783 -0.432943,-0.36784 -0.432943,-0.9961 0,-0.39388 0.201823,-0.68685 0.201823,-0.29297 0.54362,-0.45573 -0.302734,-0.1595 -0.47526,-0.42643 -0.169271,-0.26693 -0.169271,-0.61198 0,-0.60547 0.403646,-0.96354 0.403646,-0.36133 1.097005,-0.36133 0.690105,0 1.093751,0.35807 0.406901,0.35482 0.406901,0.9668 z m -0.843099,2.11263 q 0,-0.30924 -0.179037,-0.49479 -0.179036,-0.18555 -0.481771,-0.18555 -0.299479,0 -0.478516,0.18555 -0.179036,0.18229 -0.179036,0.49479 0,0.30274 0.175781,0.48828 0.175781,0.18555 0.488282,0.18555 0.305989,0 0.478515,-0.17904 0.175782,-0.17903 0.175782,-0.49479 z m -0.09766,-2.06706 q 0,-0.27669 -0.146484,-0.4427 -0.146484,-0.16928 -0.413412,-0.16928 -0.263672,0 -0.410156,0.16276 -0.146484,0.16277 -0.146484,0.44922 0,0.28321 0.146484,0.45573 0.146484,0.17253 0.413412,0.17253 0.266927,0 0.410156,-0.17253 0.146484,-0.17252 0.146484,-0.45573 z"/>
  </g>
  <g transform="translate(33.75,311)" id="g214"/>
  <g transform="translate(75,30)" id="g218"/>
  <g transform="translate(65,20)" id="g234">
    <svg version="1.1" id="svg232" width="100%" height="100%">
      <g transform="translate(20,20)" id="g230">
        <path d="M 0,0 H 4" style="stroke:#333333;stroke-width:1" transform="rotate(-90,-5.75,-5.75)" id="polyline220"/>
        <path d="M 0,-13.5 A 13.5,13.5 0 0 1 13.5,0" stroke="#333333" stroke-width="0.5" stroke-linecap="round" fill="none" transform="rotate(20)" id="path222"/>
        <path d="M 0,-13.5 A 13.5,13.5 0 0 1 13.5,0" stroke="#333333" stroke-width="0.5" stroke-linecap="round" fill="none" transform="rotate(43)" id="path224"/>
        <path d="M 0,-13.5 A 13.5,13.5 0 0 0 -13.5,0" stroke="#333333" stroke-width="0.5" stroke-linecap="round" fill="none" transform="rotate(-20)" id="path226"/>
        <path d="M 0,-13.5 A 13.5,13.5 0 0 0 -13.5,0" stroke="#333333" stroke-width="0.5" stroke-linecap="round" fill="none" transform="rotate(-43)" id="path228"/>
      </g>
    </svg>
  </g>
  <g style="font-weight:bold;font-size:6.66667px;font-family:Roboto, sans-serif;letter-spacing:1px;fill:#333333" id="text236" aria-label="9">
    <path id="path792" style="font-weight:bold;font-size:6.66667px;font-family:Roboto, sans-serif;letter-spacing:1px;fill:#333333" d="m 105.02279,40.605468 q -0.36784,0.361328 -0.85938,0.361328 -0.62825,0 -1.00586,-0.429688 -0.3776,-0.432942 -0.3776,-1.165365 0,-0.465495 0.20182,-0.852865 0.20508,-0.390625 0.56966,-0.605469 0.36459,-0.218099 0.82032,-0.218099 0.46875,0 0.83333,0.234375 0.36458,0.234375 0.56641,0.673829 0.20182,0.439453 0.20507,1.00586 v 0.348307 q 0,1.184896 -0.58919,1.86198 -0.58919,0.677084 -1.66992,0.722657 l -0.23112,0.0033 v -0.784506 l 0.20833,-0.0033 q 1.22722,-0.05534 1.32813,-1.152344 z m -0.62826,-0.358073 q 0.22787,0 0.39063,-0.117188 0.16601,-0.117187 0.25065,-0.283203 v -0.38737 q 0,-0.478516 -0.18229,-0.742188 -0.1823,-0.263672 -0.48828,-0.263672 -0.28321,0 -0.4655,0.260417 -0.18229,0.257161 -0.18229,0.647787 0,0.38737 0.17578,0.638021 0.17904,0.247396 0.5013,0.247396 z"/>
  </g>
  <g transform="translate(83.75,52)" id="g238"/>
  <g transform="translate(75,67)" id="g242"/>
  <g transform="translate(65,57)" id="g258">
    <svg version="1.1" id="svg256" width="100%" height="100%">
      <g transform="translate(20,20)" id="g254">
        <path d="M 0,0 H 4" style="stroke:#333333;stroke-width:1" transform="rotate(-90,-5.75,-5.75)" id="polyline244"/>
        <path d="M 0,-13.5 A 13.5,13.5 0 0 1 13.5,0" stroke="#333333" stroke-width="0.5" stroke-linecap="round" fill="none" transform="rotate(20)" id="path246"/>
        <path d="M 0,-13.5 A 13.5,13.5 0 0 1 13.5,0" stroke="#333333" stroke-width="0.5" stroke-linecap="round" fill="none" transform="rotate(43)" id="path248"/>
        <path d="M 0,-13.5 A 13.5,13.5 0 0 0 -13.5,0" stroke="#333333" stroke-width="0.5" stroke-linecap="round" fill="none" transform="rotate(-20)" id="path250"/>
        <path d="M 0,-13.5 A 13.5,13.5 0 0 0 -13.5,0" stroke="#333333" stroke-width="0.5" stroke-linecap="round" fill="none" transform="rotate(-43)" id="path252"/>
      </g>
    </svg>
  </g>
  <g style="font-weight:bold;font-size:6.66667px;font-family:Roboto, sans-serif;letter-spacing:1px;fill:#333333" id="text260" aria-label="10">
    <path id="path786" style="font-weight:bold;font-size:6.66667px;font-family:Roboto, sans-serif;letter-spacing:1px;fill:#333333" d="m 104.60742,79.5 h -0.94075 v -3.626304 l -1.12305,0.348308 v -0.764975 l 1.96289,-0.703125 h 0.10091 z"/>
    <path id="path788" style="font-weight:bold;font-size:6.66667px;font-family:Roboto, sans-serif;letter-spacing:1px;fill:#333333" d="m 110.3405,77.540364 q 0,0.983073 -0.4069,1.503907 -0.4069,0.520833 -1.19141,0.520833 -0.77474,0 -1.1849,-0.511068 -0.41015,-0.511068 -0.41992,-1.464844 v -0.872396 q 0,-0.992839 0.41016,-1.507163 0.41341,-0.514323 1.18815,-0.514323 0.77474,0 1.1849,0.511068 0.41015,0.507813 0.41992,1.461589 z m -0.94076,-0.957032 q 0,-0.589193 -0.16276,-0.85612 -0.1595,-0.270183 -0.5013,-0.270183 -0.33203,0 -0.49154,0.257162 -0.15625,0.253906 -0.16601,0.797526 v 1.152345 q 0,0.579427 0.15625,0.86263 0.1595,0.279948 0.50781,0.279948 0.34505,0 0.49805,-0.270182 0.15299,-0.270183 0.1595,-0.826823 z"/>
  </g>
  <g transform="translate(83.75,89)" id="g262"/>
  <g transform="translate(75,104)" id="g266"/>
  <g transform="translate(65,94)" id="g282">
    <svg version="1.1" id="svg280" width="100%" height="100%">
      <g transform="translate(20,20)" id="g278">
        <path d="M 0,0 H 4" style="stroke:#333333;stroke-width:1" transform="rotate(-90,-5.75,-5.75)" id="polyline268"/>
        <path d="M 0,-13.5 A 13.5,13.5 0 0 1 13.5,0" stroke="#333333" stroke-width="0.5" stroke-linecap="round" fill="none" transform="rotate(20)" id="path270"/>
        <path d="M 0,-13.5 A 13.5,13.5 0 0 1 13.5,0" stroke="#333333" stroke-width="0.5" stroke-linecap="round" fill="none" transform="rotate(43)" id="path272"/>
        <path d="M 0,-13.5 A 13.5,13.5 0 0 0 -13.5,0" stroke="#333333" stroke-width="0.5" stroke-linecap="round" fill="none" transform="rotate(-20)" id="path274"/>
        <path d="M 0,-13.5 A 13.5,13.5 0 0 0 -13.5,0" stroke="#333333" stroke-width="0.5" stroke-linecap="round" fill="none" transform="rotate(-43)" id="path276"/>
      </g>
    </svg>
  </g>
  <g style="font-weight:bold;font-size:6.66667px;font-family:Roboto, sans-serif;letter-spacing:1px;fill:#333333" id="text284" aria-label="11">
    <path id="path780" style="font-weight:bold;font-size:6.66667px;font-family:Roboto, sans-serif;letter-spacing:1px;fill:#333333" d="m 104.60742,116.5 h -0.94075 v -3.6263 l -1.12305,0.3483 v -0.76497 l 1.96289,-0.70313 h 0.10091 z"/>
    <path id="path782" style="font-weight:bold;font-size:6.66667px;font-family:Roboto, sans-serif;letter-spacing:1px;fill:#333333" d="m 109.43555,116.5 h -0.94076 v -3.6263 l -1.12304,0.3483 v -0.76497 l 1.96289,-0.70313 h 0.10091 z"/>
  </g>
  <g transform="translate(83.75,126)" id="g286"/>
  <g transform="translate(75,141)" id="g290"/>
  <g transform="translate(65,131)" id="g306">
    <svg version="1.1" id="svg304" width="100%" height="100%">
      <g transform="translate(20,20)" id="g302">
        <path d="M 0,0 H 4" style="stroke:#333333;stroke-width:1" transform="rotate(-90,-5.75,-5.75)" id="polyline292"/>
        <path d="M 0,-13.5 A 13.5,13.5 0 0 1 13.5,0" stroke="#333333" stroke-width="0.5" stroke-linecap="round" fill="none" transform="rotate(20)" id="path294"/>
        <path d="M 0,-13.5 A 13.5,13.5 0 0 1 13.5,0" stroke="#333333" stroke-width="0.5" stroke-linecap="round" fill="none" transform="rotate(43)" id="path296"/>
        <path d="M 0,-13.5 A 13.5,13.5 0 0 0 -13.5,0" stroke="#333333" stroke-width="0.5" stroke-linecap="round" fill="none" transform="rotate(-20)" id="path298"/>
        <path d="M 0,-13.5 A 13.5,13.5 0 0 0 -13.5,0" stroke="#333333" stroke-width="0.5" stroke-linecap="round" fill="none" transform="rotate(-43)" id="path300"/>
      </g>
    </svg>
  </g>
  <g style="font-weight:bold;font-size:6.66667px;font-family:Roboto, sans-serif;letter-spacing:1px;fill:#333333" id="text308" aria-label="12">
    <path id="path774" style="font-weight:bold;font-size:6.66667px;font-family:Roboto, sans-serif;letter-spacing:1px;fill:#333333" d="m 104.60742,153.5 h -0.94075 v -3.6263 l -1.12305,0.3483 v -0.76497 l 1.96289,-0.70313 h 0.10091 z"/>
    <path id="path776" style="font-weight:bold;font-size:6.66667px;font-family:Roboto, sans-serif;letter-spacing:1px;fill:#333333" d="m 110.39909,153.5 h -3.2487 v -0.64453 l 1.53321,-1.63412 q 0.31575,-0.34505 0.46549,-0.60221 0.153,-0.25716 0.153,-0.48828 0,-0.31576 -0.15951,-0.49479 -0.1595,-0.1823 -0.45573,-0.1823 -0.31901,0 -0.50456,0.22136 Q 108,149.89323 108,150.2513 h -0.94401 q 0,-0.43294 0.20508,-0.79102 0.20833,-0.35807 0.58594,-0.55989 0.3776,-0.20508 0.85612,-0.20508 0.73242,0 1.13607,0.35156 0.4069,0.35157 0.4069,0.99284 0,0.35156 -0.18229,0.71615 -0.1823,0.36458 -0.625,0.84961 l -1.07748,1.13607 h 2.03776 z"/>
  </g>
  <g transform="translate(83.75,163)" id="g310"/>
  <g transform="translate(75,178)" id="g314"/>
  <g transform="translate(65,168)" id="g330">
    <svg version="1.1" id="svg328" width="100%" height="100%">
      <g transform="translate(20,20)" id="g326">
        <path d="M 0,0 H 4" style="stroke:#333333;stroke-width:1" transform="rotate(-90,-5.75,-5.75)" id="polyline316"/>
        <path d="M 0,-13.5 A 13.5,13.5 0 0 1 13.5,0" stroke="#333333" stroke-width="0.5" stroke-linecap="round" fill="none" transform="rotate(20)" id="path318"/>
        <path d="M 0,-13.5 A 13.5,13.5 0 0 1 13.5,0" stroke="#333333" stroke-width="0.5" stroke-linecap="round" fill="none" transform="rotate(43)" id="path320"/>
        <path d="M 0,-13.5 A 13.5,13.5 0 0 0 -13.5,0" stroke="#333333" stroke-width="0.5" stroke-linecap="round" fill="none" transform="rotate(-20)" id="path322"/>
        <path d="M 0,-13.5 A 13.5,13.5 0 0 0 -13.5,0" stroke="#333333" stroke-width="0.5" stroke-linecap="round" fill="none" transform="rotate(-43)" id="path324"/>
      </g>
    </svg>
  </g>
  <g style="font-weight:bold;font-size:6.66667px;font-family:Roboto, sans-serif;letter-spacing:1px;fill:#333333" id="text332" aria-label="13">
    <path id="path768" style="font-weight:bold;font-size:6.66667px;font-family:Roboto, sans-serif;letter-spacing:1px;fill:#333333" d="m 104.60742,190.5 h -0.94075 v -3.6263 l -1.12305,0.3483 v -0.76497 l 1.96289,-0.70313 h 0.10091 z"/>
    <path id="path770" style="font-weight:bold;font-size:6.66667px;font-family:Roboto, sans-serif;letter-spacing:1px;fill:#333333" d="m 108.10742,187.71354 h 0.50131 q 0.35807,0 0.5306,-0.17904 0.17252,-0.17903 0.17252,-0.47526 0,-0.28646 -0.17252,-0.44596 -0.16927,-0.15951 -0.46875,-0.15951 -0.27019,0 -0.45248,0.14974 -0.18229,0.14649 -0.18229,0.38412 h -0.94076 q 0,-0.3711 0.19857,-0.66406 0.20182,-0.29623 0.5599,-0.46224 0.36133,-0.16602 0.79427,-0.16602 0.75195,0 1.17839,0.36133 0.42643,0.35807 0.42643,0.98958 0,0.32552 -0.19857,0.59896 -0.19857,0.27344 -0.52083,0.41992 0.40039,0.14323 0.5957,0.42969 0.19857,0.28646 0.19857,0.67708 0,0.63152 -0.46224,1.01237 -0.45899,0.38086 -1.21745,0.38086 -0.70964,0 -1.16211,-0.37434 -0.44922,-0.37435 -0.44922,-0.98959 h 0.94076 q 0,0.26693 0.19856,0.4362 0.20183,0.16927 0.4948,0.16927 0.33528,0 0.52408,-0.17578 0.19206,-0.17904 0.19206,-0.47201 0,-0.70963 -0.78125,-0.70963 h -0.49805 z"/>
  </g>
  <g transform="translate(83.75,200)" id="g334"/>
  <g transform="translate(75,215)" id="g338"/>
  <g transform="translate(65,205)" id="g354">
    <svg version="1.1" id="svg352" width="100%" height="100%">
      <g transform="translate(20,20)" id="g350">
        <path d="M 0,0 H 4" style="stroke:#333333;stroke-width:1" transform="rotate(-90,-5.75,-5.75)" id="polyline340"/>
        <path d="M 0,-13.5 A 13.5,13.5 0 0 1 13.5,0" stroke="#333333" stroke-width="0.5" stroke-linecap="round" fill="none" transform="rotate(20)" id="path342"/>
        <path d="M 0,-13.5 A 13.5,13.5 0 0 1 13.5,0" stroke="#333333" stroke-width="0.5" stroke-linecap="round" fill="none" transform="rotate(43)" id="path344"/>
        <path d="M 0,-13.5 A 13.5,13.5 0 0 0 -13.5,0" stroke="#333333" stroke-width="0.5" stroke-linecap="round" fill="none" transform="rotate(-20)" id="path346"/>
        <path d="M 0,-13.5 A 13.5,13.5 0 0 0 -13.5,0" stroke="#333333" stroke-width="0.5" stroke-linecap="round" fill="none" transform="rotate(-43)" id="path348"/>
      </g>
    </svg>
  </g>
  <g style="font-weight:bold;font-size:6.66667px;font-family:Roboto, sans-serif;letter-spacing:1px;fill:#333333" id="text356" aria-label="14">
    <path id="path762" style="font-weight:bold;font-size:6.66667px;font-family:Roboto, sans-serif;letter-spacing:1px;fill:#333333" d="m 104.60742,227.5 h -0.94075 v -3.6263 l -1.12305,0.3483 v -0.76497 l 1.96289,-0.70313 h 0.10091 z"/>
    <path id="path764" style="font-weight:bold;font-size:6.66667px;font-family:Roboto, sans-serif;letter-spacing:1px;fill:#333333" d="m 109.9336,225.71614 h 0.53711 v 0.75847 H 109.9336 V 227.5 h -0.94076 v -1.02539 h -1.94336 l -0.0423,-0.59245 1.97592,-3.12175 h 0.95052 z m -1.98894,0 h 1.04818 v -1.67317 l -0.0619,0.10742 z"/>
  </g>
  <g transform="translate(83.75,237)" id="g358"/>
  <g transform="translate(75,252)" id="g362"/>
  <g transform="translate(65,242)" id="g378">
    <svg version="1.1" id="svg376" width="100%" height="100%">
      <g transform="translate(20,20)" id="g374">
        <path d="M 0,0 H 4" style="stroke:#333333;stroke-width:1" transform="rotate(-90,-5.75,-5.75)" id="polyline364"/>
        <path d="M 0,-13.5 A 13.5,13.5 0 0 1 13.5,0" stroke="#333333" stroke-width="0.5" stroke-linecap="round" fill="none" transform="rotate(20)" id="path366"/>
        <path d="M 0,-13.5 A 13.5,13.5 0 0 1 13.5,0" stroke="#333333" stroke-width="0.5" stroke-linecap="round" fill="none" transform="rotate(43)" id="path368"/>
        <path d="M 0,-13.5 A 13.5,13.5 0 0 0 -13.5,0" stroke="#333333" stroke-width="0.5" stroke-linecap="round" fill="none" transform="rotate(-20)" id="path370"/>
        <path d="M 0,-13.5 A 13.5,13.5 0 0 0 -13.5,0" stroke="#333333" stroke-width="0.5" stroke-linecap="round" fill="none" transform="rotate(-43)" id="path372"/>
      </g>
    </svg>
  </g>
  <g style="font-weight:bold;font-size:6.66667px;font-family:Roboto, sans-serif;letter-spacing:1px;fill:#333333" id="text380" aria-label="15">
    <path id="path756" style="font-weight:bold;font-size:6.66667px;font-family:Roboto, sans-serif;letter-spacing:1px;fill:#333333" d="m 104.60742,264.5 h -0.94075 v -3.6263 l -1.12305,0.3483 v -0.76497 l 1.96289,-0.70313 h 0.10091 z"/>
    <path id="path758" style="font-weight:bold;font-size:6.66667px;font-family:Roboto, sans-serif;letter-spacing:1px;fill:#333333" d="m 107.29037,262.16927 0.27343,-2.40886 h 2.65626 v 0.78451 h -1.88477 l -0.11719,1.01888 q 0.33529,-0.17904 0.71289,-0.17904 0.67709,0 1.0612,0.41993 0.38412,0.41992 0.38412,1.17513 0,0.45898 -0.19532,0.82357 -0.19205,0.36132 -0.55338,0.56315 -0.36133,0.19856 -0.85287,0.19856 -0.42969,0 -0.79752,-0.17252 -0.36784,-0.17578 -0.58269,-0.49154 -0.21159,-0.31575 -0.22461,-0.7194 h 0.93099 q 0.0293,0.29622 0.20508,0.46224 0.17904,0.16276 0.4655,0.16276 0.31901,0 0.49153,-0.22786 0.17253,-0.23112 0.17253,-0.65105 0,-0.40364 -0.19857,-0.61849 -0.19857,-0.21484 -0.56315,-0.21484 -0.33529,0 -0.54362,0.17578 l -0.0911,0.0846 z"/>
  </g>
  <g transform="translate(83.75,274)" id="g382"/>
  <g transform="translate(75,289)" id="g386"/>
  <g transform="translate(65,279)" id="g402">
    <svg version="1.1" id="svg400" width="100%" height="100%">
      <g transform="translate(20,20)" id="g398">
        <path d="M 0,0 H 4" style="stroke:#333333;stroke-width:1" transform="rotate(-90,-5.75,-5.75)" id="polyline388"/>
        <path d="M 0,-13.5 A 13.5,13.5 0 0 1 13.5,0" stroke="#333333" stroke-width="0.5" stroke-linecap="round" fill="none" transform="rotate(20)" id="path390"/>
        <path d="M 0,-13.5 A 13.5,13.5 0 0 1 13.5,0" stroke="#333333" stroke-width="0.5" stroke-linecap="round" fill="none" transform="rotate(43)" id="path392"/>
        <path d="M 0,-13.5 A 13.5,13.5 0 0 0 -13.5,0" stroke="#333333" stroke-width="0.5" stroke-linecap="round" fill="none" transform="rotate(-20)" id="path394"/>
        <path d="M 0,-13.5 A 13.5,13.5 0 0 0 -13.5,0" stroke="#333333" stroke-width="0.5" stroke-linecap="round" fill="none" transform="rotate(-43)" id="path396"/>
      </g>
    </svg>
  </g>
  <g style="font-weight:bold;font-size:6.66667px;font-family:Roboto, sans-serif;letter-spacing:1px;fill:#333333" id="text404" aria-label="16">
    <path id="path750" style="font-weight:bold;font-size:6.66667px;font-family:Roboto, sans-serif;letter-spacing:1px;fill:#333333" d="m 104.60742,301.5 h -0.94075 v -3.6263 l -1.12305,0.3483 v -0.76497 l 1.96289,-0.70313 h 0.10091 z"/>
    <path id="path752" style="font-weight:bold;font-size:6.66667px;font-family:Roboto, sans-serif;letter-spacing:1px;fill:#333333" d="m 109.70248,296.71159 v 0.77474 h -0.0911 q -0.63802,0.01 -1.02864,0.33203 -0.38737,0.32226 -0.4655,0.89518 0.3776,-0.38411 0.95378,-0.38411 0.61849,0 0.98307,0.4427 0.36458,0.44271 0.36458,1.16537 0,0.46224 -0.20182,0.83659 -0.19857,0.37435 -0.56641,0.58268 -0.36458,0.20833 -0.82682,0.20833 -0.7487,0 -1.21094,-0.52083 -0.45898,-0.52083 -0.45898,-1.38997 v -0.33855 q 0,-0.77148 0.28971,-1.36067 0.29297,-0.59245 0.83659,-0.91472 0.54688,-0.32552 1.26628,-0.32877 z m -0.91797,2.37304 q -0.22787,0 -0.41341,0.12045 -0.18555,0.11718 -0.27344,0.3125 v 0.28646 q 0,0.472 0.18555,0.73893 0.18554,0.26367 0.52083,0.26367 0.30273,0 0.48828,-0.23763 0.1888,-0.24089 0.1888,-0.62175 0,-0.38737 -0.1888,-0.625 -0.1888,-0.23763 -0.50781,-0.23763 z"/>
  </g>
  <g transform="translate(83.75,311)" id="g406"/>
  <g style="font-weight:bold;font-size:8px;font-family:Roboto, sans-serif;letter-spacing:1.5px;fill:#333333" id="text410" transform="rotate(-90)" aria-label="CHAN">
    <path id="path741" style="font-weight:bold;font-size:8px;font-family:Roboto, sans-serif;letter-spacing:1.5px;fill:#333333" d="m -347.52734,9.1054688 q -0.0664,0.9179692 -0.67969,1.4453122 -0.60938,0.527344 -1.60938,0.527344 -1.09375,0 -1.72265,-0.734375 -0.625,-0.7382812 -0.625,-2.0234375 V 7.9726562 q 0,-0.8203125 0.28906,-1.4453125 0.28906,-0.625 0.82422,-0.9570312 0.53906,-0.3359375 1.25,-0.3359375 0.98437,0 1.58594,0.5273437 0.60156,0.5273438 0.69531,1.4804688 h -1.17188 q -0.043,-0.5507813 -0.30859,-0.796875 -0.26172,-0.25 -0.80078,-0.25 -0.58594,0 -0.87891,0.421875 -0.28906,0.4179687 -0.29687,1.3007812 v 0.4296876 q 0,0.921875 0.27734,1.3476562 0.28125,0.4257815 0.88281,0.4257815 0.54297,0 0.8086,-0.246094 0.26953,-0.25 0.30859,-0.7695312 z"/>
    <path id="path743" style="font-weight:bold;font-size:8px;font-family:Roboto, sans-serif;letter-spacing:1.5px;fill:#333333" d="m -340.62891,11 h -1.17187 V 8.5625 h -2.28516 V 11 h -1.17187 V 5.3125 h 1.17187 v 2.3046875 h 2.28516 V 5.3125 h 1.17187 z"/>
    <path id="path745" style="font-weight:bold;font-size:8px;font-family:Roboto, sans-serif;letter-spacing:1.5px;fill:#333333" d="m -334.8125,9.828125 h -2.05469 L -337.25781,11 h -1.2461 l 2.11719,-5.6875 h 1.08594 L -333.17187,11 h -1.2461 z m -1.73828,-0.9492187 h 1.42187 L -335.84375,6.75 Z"/>
    <path id="path747" style="font-weight:bold;font-size:8px;font-family:Roboto, sans-serif;letter-spacing:1.5px;fill:#333333" d="m -326.50781,11 h -1.17188 l -2.28125,-3.7421875 V 11 h -1.17187 V 5.3125 h 1.17187 l 2.28516,3.75 v -3.75 h 1.16797 z"/>
  </g>
  <g transform="translate(23,332)" id="g412"/>
  <g transform="translate(11,320)" id="g450">
    <svg version="1.1" id="svg448" width="100%" height="100%">
      <g transform="translate(20,20)" id="g446">
        <g style="font-weight:bold;font-size:6.66667px;font-family:Roboto, sans-serif;fill:#333333" id="text414" transform="translate(-9,14.124356)" aria-label="1">
          <path id="path711" style="font-weight:bold;font-size:6.66667px;font-family:Roboto, sans-serif;fill:#333333" d="M 2.6074231,0 H 1.6666675 V -3.6263038 L 0.54362005,-3.2779964 V -4.0429707 L 2.5065116,-4.746096 h 0.1009115 z"/>
        </g>
        <g style="font-weight:bold;font-size:6.66667px;font-family:Roboto, sans-serif;fill:#333333" id="text416" transform="translate(-16,2)" aria-label="4">
          <path id="path714" style="font-weight:bold;font-size:6.66667px;font-family:Roboto, sans-serif;fill:#333333" d="m 3.1054702,-1.783855 h 0.5371097 v 0.7584639 H 3.1054702 V 0 H 2.1647146 V -1.0253911 H 0.22135427 L 0.17903654,-1.6178393 2.1549489,-4.7395856 h 0.9505213 z m -1.9889332,0 h 1.0481776 v -1.6731779 l -0.061849,0.1074219 z"/>
        </g>
        <g style="font-weight:bold;font-size:6.66667px;font-family:Roboto, sans-serif;fill:#333333" id="text418" transform="translate(-4.4310745,-11.787309)" aria-label="8">
          <path id="path717" style="font-weight:bold;font-size:6.66667px;font-family:Roboto, sans-serif;fill:#333333" d="m 3.41146,-3.4798194 q 0,0.3450523 -0.1725262,0.6119795 -0.1725261,0.2669272 -0.4752606,0.4264325 0.3450522,0.1660157 0.5468753,0.4589846 0.201823,0.2897137 0.201823,0.6835941 0,0.63151067 -0.4296877,0.99934939 -0.4296877,0.36458351 -1.1686204,0.36458351 -0.7389326,0 -1.17187555,-0.36783872 -0.43294291,-0.36783872 -0.43294291,-0.99609418 0,-0.3938804 0.20182301,-0.6868493 Q 0.71289096,-2.2786469 1.054688,-2.4414074 0.75195348,-2.6009127 0.57942736,-2.8678399 0.41015645,-3.1347671 0.41015645,-3.4798194 q 0,-0.605469 0.40364602,-0.9635421 0.40364603,-0.3613283 1.09700573,-0.3613283 0.6901045,0 1.0937505,0.3580731 0.4069013,0.3548179 0.4069013,0.9667973 z m -0.8430994,2.1126312 q 0,-0.3092449 -0.1790365,-0.4947919 Q 2.2102875,-2.047527 1.907553,-2.047527 q -0.2994793,0 -0.4785159,0.1855469 -0.1790365,0.1822918 -0.1790365,0.4947919 0,0.3027346 0.1757813,0.48828153 0.1757814,0.18554696 0.4882815,0.18554696 0.3059897,0 0.4785159,-0.17903654 0.1757813,-0.17903655 0.1757813,-0.49479195 z m -0.097656,-2.0670582 q 0,-0.2766929 -0.1464844,-0.4427086 -0.1464845,-0.1692709 -0.4134117,-0.1692709 -0.263672,0 -0.4101564,0.1627605 -0.1464845,0.1627605 -0.1464845,0.449219 0,0.2832032 0.1464845,0.4557294 0.1464844,0.1725261 0.4134116,0.1725261 0.2669272,0 0.4101565,-0.1725261 0.1464844,-0.1725262 0.1464844,-0.4557294 z"/>
        </g>
        <g style="font-weight:bold;font-size:6.66667px;font-family:Roboto, sans-serif;fill:#333333" id="text420" transform="translate(10.216004,-2.4462619)" aria-label="12">
          <path id="path720" style="font-weight:bold;font-size:6.66667px;font-family:Roboto, sans-serif;fill:#333333" d="M 2.6074231,0 H 1.6666675 V -3.6263038 L 0.54362005,-3.2779964 V -4.0429707 L 2.5065116,-4.746096 h 0.1009115 z"/>
          <path id="path722" style="font-weight:bold;font-size:6.66667px;font-family:Roboto, sans-serif;fill:#333333" d="M 7.3990922,0 H 4.1503927 V -0.64453156 L 5.6835965,-2.2786469 q 0.3157554,-0.3450523 0.4654951,-0.6022138 0.1529948,-0.2571616 0.1529948,-0.4882815 0,-0.3157554 -0.1595053,-0.4947919 -0.1595052,-0.1822918 -0.4557293,-0.1822918 -0.3190106,0 -0.5045576,0.2213543 -0.1822917,0.218099 -0.1822917,0.5761721 H 4.0559916 q 0,-0.4329429 0.2050782,-0.791016 0.2083335,-0.3580731 0.5859378,-0.5598961 0.3776043,-0.2050782 0.8561202,-0.2050782 0.7324222,0 1.1360683,0.3515627 0.4069012,0.3515626 0.4069012,0.992839 0,0.3515627 -0.1822918,0.7161462 -0.1822917,0.3645835 -0.6250003,0.8496097 l -1.0774744,1.1360683 h 2.0377614 z"/>
        </g>
        <g style="font-weight:bold;font-size:6.66667px;font-family:Roboto, sans-serif;fill:#333333" id="text422" transform="translate(4.7,14.25833)" aria-label="16">
          <path id="path725" style="font-weight:bold;font-size:6.66667px;font-family:Roboto, sans-serif;fill:#333333" d="M 2.6074231,0 H 1.6666675 V -3.6263038 L 0.54362005,-3.2779964 V -4.0429707 L 2.5065116,-4.746096 h 0.1009115 z"/>
          <path id="path727" style="font-weight:bold;font-size:6.66667px;font-family:Roboto, sans-serif;fill:#333333" d="m 6.7024772,-4.7884137 v 0.7747399 h -0.091146 q -0.6380212,0.00977 -1.0286464,0.3320314 -0.3873699,0.3222658 -0.465495,0.8951827 0.3776044,-0.3841147 0.9537765,-0.3841147 0.6184899,0 0.9830734,0.4427085 0.3645835,0.4427086 0.3645835,1.1653652 0,0.4622398 -0.201823,0.8365889 -0.1985678,0.37434913 -0.5664065,0.58268257 -0.3645835,0.20833343 -0.8268233,0.20833343 -0.7486983,0 -1.2109381,-0.52083358 Q 4.1536479,-0.97656297 4.1536479,-1.845704 v -0.3385418 q 0,-0.7714848 0.2897137,-1.3606778 0.2929689,-0.5924482 0.8365889,-0.9147139 0.5468753,-0.325521 1.2662767,-0.3287762 z m -0.9179692,2.373048 q -0.2278646,0 -0.4134116,0.1204427 -0.185547,0.1171876 -0.2734376,0.3125002 v 0.2864584 q 0,0.4720055 0.1855469,0.73893269 0.185547,0.263672 0.5208336,0.263672 0.3027345,0 0.4882815,-0.23763032 0.1888022,-0.24088557 0.1888022,-0.62174507 0,-0.38737 -0.1888022,-0.6250003 Q 6.1035186,-2.4153657 5.784508,-2.4153657 Z"/>
        </g>
        <path d="M 0,0 H 2.5" style="stroke:#333333;stroke-width:0.3" transform="rotate(140,-5,1.8198512)" id="polyline424"/>
        <path d="M 0,0 H 2.5" style="stroke:#333333;stroke-width:0.3" transform="rotate(160,-5,0.8816349)" id="polyline426"/>
        <path d="M 0,0 H 2.5" style="stroke:#333333;stroke-width:0.3" transform="rotate(-160,-5,-0.8816349)" id="polyline428"/>
        <path d="M 0,0 H 2.5" style="stroke:#333333;stroke-width:0.3" transform="rotate(-140,-5,-1.8198512)" id="polyline430"/>
        <path d="M 0,0 H 2.5" style="stroke:#333333;stroke-width:0.3" transform="rotate(-120,-5,-2.8867513)" id="polyline432"/>
        <path d="M 0,0 H 2.5" style="stroke:#333333;stroke-width:0.3" transform="rotate(-80,-5,-5.958768)" id="polyline434"/>
        <path d="M 0,0 H 2.5" style="stroke:#333333;stroke-width:0.3" transform="rotate(-60,-5,-8.660254)" id="polyline436"/>
        <path d="M 0,0 H 2.5" style="stroke:#333333;stroke-width:0.3" transform="rotate(-40,-5,-13.737387)" id="polyline438"/>
        <path d="M 0,0 H 2.5" style="stroke:#333333;stroke-width:0.3" transform="translate(10)" id="polyline440"/>
        <path d="M 0,0 H 2.5" style="stroke:#333333;stroke-width:0.3" transform="rotate(20,-5,28.356409)" id="polyline442"/>
        <path d="M 0,0 H 2.5" style="stroke:#333333;stroke-width:0.3" transform="rotate(40,-5,13.737387)" id="polyline444"/>
      </g>
    </svg>
  </g>
  <path d="m 57,318 h 50 c 2.77,0 5,2.23 5,5 v 30 c 0,2.77 -2.23,5 -5,5 H 57 c -2.77,0 -5,-2.23 -5,-5 v -30 c 0,-2.77 2.23,-5 5,-5 z" style="fill:#fafafa" id="rect454"/>
  <path d="m 95,318 h 14 c 2.77,0 5,2.23 5,5 v 30 c 0,2.77 -2.23,5 -5,5 H 95 c -2.77,0 -5,-2.23 -5,-5 v -30 c 0,-2.77 2.23,-5 5,-5 z" style="fill:#bbbbbb" id="rect456"/>
  <path d="m 83,318 h 20 v 40 H 83 Z" style="fill:#bbbbbb" id="rect458"/>
  <g transform="translate(55.5,322)" id="g460"/>
  <g transform="translate(86.5,322)" id="g462"/>
  <g style="font-weight:bold;font-size:8px;font-family:Roboto, sans-serif;letter-spacing:1px;fill:#333333" id="text464" aria-label="CHAN">
    <path id="path699" style="font-weight:bold;font-size:8px;font-family:Roboto, sans-serif;letter-spacing:1px;fill:#333333" d="m 59.972656,352.10547 q -0.06641,0.91797 -0.679687,1.44531 -0.609375,0.52734 -1.609375,0.52734 -1.09375,0 -1.722657,-0.73437 -0.625,-0.73828 -0.625,-2.02344 v -0.34765 q 0,-0.82032 0.289063,-1.44532 0.289062,-0.625 0.824219,-0.95703 0.539062,-0.33594 1.25,-0.33594 0.984375,0 1.585937,0.52735 0.601563,0.52734 0.695313,1.48047 h -1.171875 q -0.04297,-0.55078 -0.308594,-0.79688 -0.261719,-0.25 -0.800781,-0.25 -0.585938,0 -0.878907,0.42188 -0.289062,0.41797 -0.296875,1.30078 v 0.42969 q 0,0.92187 0.277344,1.34765 0.28125,0.42578 0.882813,0.42578 0.542968,0 0.808593,-0.24609 0.269532,-0.25 0.308594,-0.76953 z"/>
    <path id="path701" style="font-weight:bold;font-size:8px;font-family:Roboto, sans-serif;letter-spacing:1px;fill:#333333" d="m 66.371094,354 h -1.171875 v -2.4375 H 62.914062 V 354 h -1.171875 v -5.6875 h 1.171875 v 2.30469 h 2.285157 v -2.30469 h 1.171875 z"/>
    <path id="path703" style="font-weight:bold;font-size:8px;font-family:Roboto, sans-serif;letter-spacing:1px;fill:#333333" d="M 71.6875,352.82812 H 69.632812 L 69.242187,354 h -1.246093 l 2.117187,-5.6875 h 1.085938 L 73.328125,354 h -1.246094 z m -1.738281,-0.94921 h 1.421875 L 70.65625,349.75 Z"/>
    <path id="path705" style="font-weight:bold;font-size:8px;font-family:Roboto, sans-serif;letter-spacing:1px;fill:#333333" d="m 79.492187,354 h -1.171875 l -2.28125,-3.74219 V 354 h -1.171875 v -5.6875 h 1.171875 l 2.285157,3.75 v -3.75 h 1.167968 z"/>
  </g>
  <g style="font-weight:bold;font-size:8px;font-family:Roboto, sans-serif;letter-spacing:2px;fill:#333333" id="text466" aria-label="OUT">
    <path id="path692" style="font-weight:bold;font-size:8px;font-family:Roboto, sans-serif;letter-spacing:2px;fill:#333333" d="m 93.179687,351.28516 q 0,0.83984 -0.296875,1.47265 -0.296875,0.63281 -0.851562,0.97656 -0.550781,0.34375 -1.265625,0.34375 -0.707031,0 -1.261719,-0.33984 -0.554687,-0.33984 -0.859375,-0.96875 -0.304687,-0.63281 -0.308594,-1.45312 v -0.28125 q 0,-0.83985 0.300782,-1.47657 0.304687,-0.64062 0.855468,-0.98047 0.554688,-0.34375 1.265625,-0.34375 0.710938,0 1.261719,0.34375 0.554688,0.33985 0.855469,0.98047 0.304687,0.63672 0.304687,1.47266 z m -1.1875,-0.25782 q 0,-0.89453 -0.320312,-1.35937 -0.320313,-0.46485 -0.914063,-0.46485 -0.589843,0 -0.910156,0.46094 -0.320312,0.45703 -0.324219,1.34375 v 0.27735 q 0,0.87109 0.320313,1.35156 0.320312,0.48047 0.921875,0.48047 0.589844,0 0.90625,-0.46094 0.316406,-0.46484 0.320312,-1.35156 z"/>
    <path id="path694" style="font-weight:bold;font-size:8px;font-family:Roboto, sans-serif;letter-spacing:2px;fill:#333333" d="m 100.34375,348.3125 v 3.74609 q 0,0.9336 -0.585938,1.47657 -0.582031,0.54296 -1.59375,0.54296 -0.996093,0 -1.582031,-0.52734 -0.585937,-0.52734 -0.597656,-1.44922 v -3.78906 h 1.171875 v 3.75391 q 0,0.55859 0.265625,0.8164 0.269531,0.25391 0.742187,0.25391 0.988282,0 1.003907,-1.03906 v -3.78516 z"/>
    <path id="path696" style="font-weight:bold;font-size:8px;font-family:Roboto, sans-serif;letter-spacing:2px;fill:#333333" d="m 107.58594,349.26172 h -1.74219 V 354 h -1.17187 v -4.73828 h -1.71875 v -0.94922 h 4.63281 z"/>
  </g>
</svg>
