<?xml version="1.0" encoding="UTF-8" standalone="no"?>
<svg
   xmlns:dc="http://purl.org/dc/elements/1.1/"
   xmlns:cc="http://creativecommons.org/ns#"
   xmlns:rdf="http://www.w3.org/1999/02/22-rdf-syntax-ns#"
   xmlns:svg="http://www.w3.org/2000/svg"
   xmlns="http://www.w3.org/2000/svg"
   xmlns:sodipodi="http://sodipodi.sourceforge.net/DTD/sodipodi-0.dtd"
   xmlns:inkscape="http://www.inkscape.org/namespaces/inkscape"
   version="1.1"
   width="45"
   height="380"
   viewBox="0 0 45 380"
   id="svg112"
   sodipodi:docname="svg_render_tmp.svg"
   inkscape:version="0.92.2 5c3e80d, 2017-08-06">
  <metadata
     id="metadata116">
    <rdf:RDF>
      <cc:Work
         rdf:about="">
        <dc:format>image/svg+xml</dc:format>
        <dc:type
           rdf:resource="http://purl.org/dc/dcmitype/StillImage" />
      </cc:Work>
    </rdf:RDF>
  </metadata>
  <sodipodi:namedview
     pagecolor="#ffffff"
     bordercolor="#666666"
     borderopacity="1"
     objecttolerance="10"
     gridtolerance="10"
     guidetolerance="10"
     inkscape:pageopacity="0"
     inkscape:pageshadow="2"
     inkscape:window-width="468"
     inkscape:window-height="449"
     id="namedview114"
     showgrid="false"
     inkscape:zoom="0.62105263"
     inkscape:cx="22.5"
     inkscape:cy="190"
     inkscape:window-x="0"
     inkscape:window-y="0"
     inkscape:window-maximized="0"
     inkscape:current-layer="svg112" />
  <style
     id="style2">
    text {
      fill: #333;
      font-family: 'Roboto', sans-serif;
      font-weight: bold;
    }
    text.title {
      font-family: 'Comfortaa', sans-serif;
      font-weight: normal;
    }
    text.brand {
      font-family: 'Audiowide', sans-serif;
      font-weight: bold;
    }
  </style>
  <defs
     id="defs38">
    <symbol
       id="knob-smallest"
       viewBox="0 0 16px 16px">
      <g
         transform="translate(8 8)"
         id="g10">
        <polyline
           points="-3,0 3,0"
           stroke-width="1"
           stroke="#00f"
           id="polyline4" />
        <polyline
           points="0,-3 0,3"
           stroke-width="1"
           stroke="#00f"
           id="polyline6" />
        <circle
           r="7.5"
           stroke-width="1"
           stroke="#00f"
           fill="none"
           id="circle8" />
      </g>
    </symbol>
    <symbol
       id="knobguide-centertick"
       viewBox="0 0 40px 40px">
      <g
         transform="translate(20 20)"
         id="g25">
        <g
           transform="rotate(-90) translate(10 0)"
           id="g15">
          <polyline
             points="0,0 4,0"
             stroke-width="1"
             stroke="#333"
             id="polyline13" />
        </g>
        <path
           d="M 0 -12.5 A 12.5 12.5 0 0 1 12.5 0"
           stroke="#333"
           stroke-width="0.5"
           stroke-linecap="round"
           fill="none"
           transform="rotate(20)"
           id="path17" />
        <path
           d="M 0 -12.5 A 12.5 12.5 0 0 1 12.5 0"
           stroke="#333"
           stroke-width="0.5"
           stroke-linecap="round"
           fill="none"
           transform="rotate(43)"
           id="path19" />
        <path
           d="M 0 -12.5 A 12.5 12.5 0 0 0 -12.5 0"
           stroke="#333"
           stroke-width="0.5"
           stroke-linecap="round"
           fill="none"
           transform="rotate(-20)"
           id="path21" />
        <path
           d="M 0 -12.5 A 12.5 12.5 0 0 0 -12.5 0"
           stroke="#333"
           stroke-width="0.5"
           stroke-linecap="round"
           fill="none"
           transform="rotate(-43)"
           id="path23" />
      </g>
    </symbol>
    <symbol
       id="output"
       viewBox="0 0 24px 24px">
      <g
         transform="translate(12 12)"
         id="g32">
        <circle
           cx="0"
           cy="0"
           r="5"
           stroke-width="1"
           stroke="#f00"
           fill="#f00"
           id="circle28" />
        <circle
           cx="0"
           cy="0"
           r="10.5"
           stroke-width="3"
           stroke="#f00"
           fill="none"
           id="circle30" />
      </g>
    </symbol>
    <symbol
       id="light-tiny"
       viewBox="0 0 1.1px 1.1px">
      <rect
         width="3.2"
         height="3.2"
         fill="#0f0"
         id="rect35" />
    </symbol>
  </defs>
  <path
     style="fill:#dddddd"
     d="M 0,0 H 45 V 380 H 0 Z"
     id="rect40" />
  <path
     style="fill:none;stroke:#e4e4e4;stroke-width:0.5"
     d="M 1,1 H 44 V 379 H 1 V 1"
     id="polyline42" />
  <path
     style="fill:none;stroke:#ebebeb;stroke-width:0.80000001"
     d="m 0.5,0.5 h 44 v 379 H 0.5 V 0.5"
     id="polyline44" />
  <path
     style="fill:none;stroke:#f2f2f2;stroke-width:1"
     d="M 0,0 H 45 V 380 H 0 V 0"
     id="polyline46" />
  <g
     aria-label="POLYCON8"
     transform="rotate(-90)"
     style="font-weight:normal;font-size:9.33333302px;font-family:Comfortaa, sans-serif;letter-spacing:0.5px;fill:#333333"
     id="text48">
    <path
       d="m -374.70267,13 q -0.15866,0 -0.26133,-0.102667 -0.10267,-0.102666 -0.10267,-0.261333 V 6.0746669 q 0,-0.1586667 0.10267,-0.2613333 0.10267,-0.1026667 0.26133,-0.1026667 h 1.86667 q 0.68133,0 1.21333,0.308 0.54134,0.2986667 0.84,0.84 0.29867,0.532 0.29867,1.2226666 0,0.6813333 -0.29867,1.2133333 -0.29866,0.532 -0.84,0.8306662 -0.532,0.298667 -1.21333,0.298667 h -1.50267 v 2.212 q 0,0.158667 -0.10266,0.261333 Q -374.544,13 -374.70267,13 Z m 1.86667,-3.2759999 q 0.476,0 0.84933,-0.2053333 0.37334,-0.2146667 0.57867,-0.588 0.21467,-0.3733333 0.21467,-0.8493333 0,-0.4853333 -0.21467,-0.8586666 -0.20533,-0.3826667 -0.57867,-0.5973333 Q -372.36,6.4106669 -372.836,6.4106669 h -1.50267 v 3.3133332 z"
       style="font-weight:normal;font-size:9.33333302px;font-family:Comfortaa, sans-serif;letter-spacing:0.5px;fill:#333333"
       id="path312" />
    <path
       d="m -365.4916,13.093333 q -1.064,0 -1.91334,-0.485333 -0.84933,-0.485333 -1.33466,-1.334667 -0.476,-0.858666 -0.476,-1.9226662 0,-1.064 0.476,-1.9133333 0.48533,-0.8493333 1.33466,-1.3346666 0.84934,-0.4853333 1.91334,-0.4853333 1.05466,0 1.904,0.4853333 0.85866,0.4853333 1.33466,1.3346666 0.48534,0.8493333 0.48534,1.9133333 0,1.0640002 -0.48534,1.9226662 -0.476,0.849334 -1.33466,1.334667 -0.84934,0.485333 -1.904,0.485333 z m 0,-0.690666 q 0.84933,0 1.53066,-0.401334 0.69067,-0.401333 1.08267,-1.092 0.392,-0.7 0.392,-1.5586662 0,-0.8493333 -0.392,-1.54 -0.392,-0.6999999 -1.08267,-1.1013333 -0.68133,-0.4013333 -1.53066,-0.4013333 -0.85867,0 -1.54934,0.4013333 -0.68133,0.4013334 -1.07333,1.1013333 -0.392,0.6906667 -0.392,1.54 0,0.8586662 0.392,1.5586662 0.392,0.690667 1.07333,1.092 0.69067,0.401334 1.54934,0.401334 z"
       style="font-weight:normal;font-size:9.33333302px;font-family:Comfortaa, sans-serif;letter-spacing:0.5px;fill:#333333"
       id="path314" />
    <path
       d="m -359.39277,13 q -0.14934,0 -0.26134,-0.102667 -0.10266,-0.112 -0.10266,-0.261333 V 6.0746669 q 0,-0.1493333 0.10266,-0.252 0.112,-0.112 0.26134,-0.112 0.15866,0 0.26133,0.1026667 0.10267,0.1026666 0.10267,0.2613333 v 6.2346661 h 3.64933 q 0.15867,0 0.26133,0.102667 0.10267,0.09333 0.10267,0.242667 0,0.149333 -0.10267,0.252 Q -355.22077,13 -355.37944,13 Z"
       style="font-weight:normal;font-size:9.33333302px;font-family:Comfortaa, sans-serif;letter-spacing:0.5px;fill:#333333"
       id="path316" />
    <path
       d="m -349.82121,5.7106669 q 0.14,0 0.224,0.1026667 0.0933,0.093333 0.0933,0.2333333 0,0.1306667 -0.0653,0.2333333 l -2.548,4.0226668 V 12.636 q 0,0.149333 -0.10267,0.261333 Q -352.32254,13 -352.48121,13 q -0.14933,0 -0.26133,-0.102667 -0.10267,-0.112 -0.10267,-0.261333 v -2.333333 l -2.53867,-4.0226668 q -0.0747,-0.1213333 -0.0747,-0.2333333 0,-0.14 0.10266,-0.2333333 0.10267,-0.1026667 0.252,-0.1026667 0.10267,0 0.168,0.046667 0.0747,0.037333 0.14,0.1306666 l 2.324,3.7426666 2.31467,-3.7239999 q 0.0747,-0.1026667 0.14933,-0.1493333 0.0747,-0.046667 0.18667,-0.046667 z"
       style="font-weight:normal;font-size:9.33333302px;font-family:Comfortaa, sans-serif;letter-spacing:0.5px;fill:#333333"
       id="path318" />
    <path
       d="m -345.21775,13.093333 q -0.98933,0 -1.82,-0.504 -0.83067,-0.504 -1.32533,-1.362666 -0.48534,-0.858667 -0.48534,-1.8760002 0,-1.008 0.48534,-1.8666666 0.48533,-0.8586666 1.316,-1.3626666 0.83066,-0.504 1.82933,-0.504 0.672,0 1.22267,0.196 0.55066,0.196 1.064,0.6253333 0.10266,0.074667 0.10266,0.2146666 0,0.074667 -0.0373,0.14 -0.0373,0.056 -0.10267,0.084 -0.0187,0.065333 -0.084,0.1026667 -0.0653,0.037333 -0.14,0.037333 -0.14,0 -0.23333,-0.084 -0.364,-0.3266666 -0.79333,-0.4759999 -0.42934,-0.1493334 -0.99867,-0.1493334 -0.784,0 -1.456,0.42 -0.672,0.4106667 -1.07333,1.1106666 -0.392,0.7 -0.392,1.512 0,0.8306662 0.392,1.5306662 0.392,0.7 1.064,1.110667 0.672,0.410667 1.46533,0.410667 1.01733,0 1.83867,-0.653334 0.10266,-0.07467 0.20533,-0.07467 0.14,0 0.24267,0.102666 0.10266,0.09333 0.10266,0.252 0,0.149334 -0.10266,0.261334 -0.87734,0.802666 -2.28667,0.802666 z"
       style="font-weight:normal;font-size:9.33333302px;font-family:Comfortaa, sans-serif;letter-spacing:0.5px;fill:#333333"
       id="path320" />
    <path
       d="m -337.4239,13.093333 q -1.064,0 -1.91333,-0.485333 -0.84933,-0.485333 -1.33467,-1.334667 -0.476,-0.858666 -0.476,-1.9226662 0,-1.064 0.476,-1.9133333 0.48534,-0.8493333 1.33467,-1.3346666 0.84933,-0.4853333 1.91333,-0.4853333 1.05467,0 1.904,0.4853333 0.85867,0.4853333 1.33467,1.3346666 0.48533,0.8493333 0.48533,1.9133333 0,1.0640002 -0.48533,1.9226662 -0.476,0.849334 -1.33467,1.334667 -0.84933,0.485333 -1.904,0.485333 z m 0,-0.690666 q 0.84934,0 1.53067,-0.401334 0.69067,-0.401333 1.08267,-1.092 0.392,-0.7 0.392,-1.5586662 0,-0.8493333 -0.392,-1.54 -0.392,-0.6999999 -1.08267,-1.1013333 -0.68133,-0.4013333 -1.53067,-0.4013333 -0.85866,0 -1.54933,0.4013333 -0.68133,0.4013334 -1.07333,1.1013333 -0.392,0.6906667 -0.392,1.54 0,0.8586662 0.392,1.5586662 0.392,0.690667 1.07333,1.092 0.69067,0.401334 1.54933,0.401334 z"
       style="font-weight:normal;font-size:9.33333302px;font-family:Comfortaa, sans-serif;letter-spacing:0.5px;fill:#333333"
       id="path322" />
    <path
       d="m -331.32507,13 q -0.15866,0 -0.26133,-0.102667 -0.10267,-0.102666 -0.10267,-0.261333 V 6.0746669 q 0,-0.1586667 0.10267,-0.2613333 0.10267,-0.1026667 0.26133,-0.1026667 0.168,0 0.28,0.1306667 l 4.46134,5.8613334 V 6.0746669 q 0,-0.1586667 0.10266,-0.2613333 0.112,-0.1026667 0.26134,-0.1026667 0.15866,0 0.26133,0.1026667 0.10267,0.1026666 0.10267,0.2613333 V 12.636 q 0,0.149333 -0.10267,0.261333 Q -326.06107,13 -326.21973,13 q -0.18667,0 -0.27067,-0.121333 l -4.47067,-5.8613335 V 12.636 q 0,0.149333 -0.10266,0.261333 Q -331.1664,13 -331.32507,13 Z"
       style="font-weight:normal;font-size:9.33333302px;font-family:Comfortaa, sans-serif;letter-spacing:0.5px;fill:#333333"
       id="path324" />
    <path
       d="m -320.59369,8.9120001 q 0.51333,0.2706667 0.812,0.7653333 0.29867,0.4853336 0.29867,1.1013336 0,0.634666 -0.28934,1.148 -0.28,0.513333 -0.784,0.812 -0.49466,0.298666 -1.10133,0.298666 -0.616,0 -1.12,-0.289333 -0.49467,-0.298667 -0.784,-0.802667 -0.28,-0.513333 -0.28,-1.138666 0,-0.625334 0.29867,-1.1200002 0.308,-0.504 0.82133,-0.7746667 -0.34533,-0.2426666 -0.54133,-0.6159999 -0.196,-0.3826667 -0.196,-0.84 0,-0.4946667 0.23333,-0.896 0.24267,-0.4106666 0.65333,-0.6346666 0.42,-0.2333334 0.93334,-0.2333334 0.504,0 0.90533,0.2333334 0.41067,0.224 0.63467,0.6253333 0.23333,0.392 0.23333,0.8866666 0,0.4573333 -0.196,0.8493333 -0.196,0.3826667 -0.532,0.6253333 z m -2.17467,-1.4466666 q 0,0.4853333 0.31734,0.8213333 0.31733,0.3266667 0.79333,0.3266667 0.476,0 0.784,-0.336 0.31733,-0.3453333 0.31733,-0.8493333 0,-0.4573333 -0.31733,-0.7653333 -0.31733,-0.308 -0.784,-0.308 -0.476,0 -0.79333,0.3173333 -0.31734,0.3173333 -0.31734,0.7933333 z m 2.55734,3.3226665 q 0,-0.42 -0.196,-0.756 -0.18667,-0.3359999 -0.52267,-0.5319999 -0.32667,-0.196 -0.728,-0.196 -0.41067,0 -0.74667,0.2053334 -0.336,0.1959999 -0.52266,0.5413335 -0.18667,0.345333 -0.18667,0.774666 0,0.429334 0.18667,0.793334 0.196,0.354666 0.52266,0.56 0.336,0.205333 0.74667,0.205333 0.41067,0 0.73733,-0.205333 0.336,-0.214667 0.52267,-0.578667 0.18667,-0.373333 0.18667,-0.812 z"
       style="font-weight:normal;font-size:9.33333302px;font-family:Comfortaa, sans-serif;letter-spacing:0.5px;fill:#333333"
       id="path326" />
  </g>
  <g
     id="g54"
     transform="rotate(-90,200.5,175.5)">
    <g
       aria-label="BGA"
       style="font-weight:bold;font-size:9.33333302px;font-family:Audiowide, sans-serif;letter-spacing:2px;fill:#333333"
       id="text50">
      <path
         d="m 7.2096352,-1.4355468 q 0,0.21875 -0.077474,0.469401 -0.072917,0.25065103 -0.2460937,0.46484373 -0.1686198,0.2141927 -0.4420573,0.36002603 Q 6.1705727,0 5.7740883,0 H 1.2760416 Q 1.1484375,0 1.0390625,-0.04557292 0.92968747,-0.09114583 0.84765622,-0.16861979 q -0.077474,-0.0820312 -0.12304687,-0.19140624 -0.0455729,-0.109375 -0.0455729,-0.23697916 V -5.9381508 q 0,-0.1230469 0.0455729,-0.2324219 0.0455729,-0.109375 0.12304687,-0.1914062 0.0820313,-0.082031 0.19140628,-0.1276042 0.109375,-0.045573 0.2369791,-0.045573 h 3.9648436 q 0.21875,0 0.4694011,0.077474 0.250651,0.077474 0.4648437,0.2506511 0.21875,0.1686197 0.360026,0.4420572 0.1458334,0.2734375 0.1458334,0.6699219 v 0.2233073 q 0,0.3144531 -0.1048177,0.6790364 -0.1048178,0.360026 -0.3372396,0.6835937 0.2005208,0.1230469 0.3736979,0.296224 0.1777344,0.1731771 0.3098958,0.4010416 0.1321615,0.2278646 0.2096354,0.514974 0.077474,0.2871093 0.077474,0.6334635 z M 6.0247394,-1.6634114 q 0,-0.2324219 -0.072917,-0.4147135 Q 5.878906,-2.2649739 5.7467446,-2.3971353 5.6145831,-2.5292968 5.4277342,-2.5976562 5.2408852,-2.6705728 5.0084634,-2.6705728 H 2.3378905 v -1.1940104 h 2.1373698 q 0.2324218,0 0.4192708,-0.068359 0.1868489,-0.072917 0.3190104,-0.2050781 0.1321614,-0.1321614 0.2005208,-0.3144531 0.072917,-0.186849 0.072917,-0.4192708 v -0.2233073 q 0,-0.2552083 -0.2460938,-0.2552083 h -3.376953 v 4.1653644 h 3.9101561 q 0.031901,0 0.077474,-0.00456 0.045573,-0.00456 0.082031,-0.027344 0.036458,-0.022787 0.063802,-0.077474 0.027344,-0.054687 0.027344,-0.1503906 z"
         style="font-weight:bold;font-size:9.33333302px;font-family:Audiowide, sans-serif;letter-spacing:2px;fill:#333333"
         id="path329" />
      <path
         d="m 16.683594,-0.59700519 q 0,0.12760416 -0.04557,0.23697916 -0.04557,0.109375 -0.127605,0.19140624 -0.07747,0.07747396 -0.186849,0.12304687 Q 16.214192,0 16.086588,0 h -4.274739 q -0.164063,0 -0.355469,-0.03645833 -0.186849,-0.04101563 -0.373698,-0.12304687 -0.182291,-0.0820313 -0.350911,-0.20963541 -0.16862,-0.13216146 -0.300781,-0.31445312 -0.127605,-0.18684895 -0.205079,-0.42838537 -0.07747,-0.2460938 -0.07747,-0.5514323 v -3.2083332 q 0,-0.1640625 0.03646,-0.3509115 0.04101,-0.1914062 0.123047,-0.3736979 0.08203,-0.1868489 0.214192,-0.3554687 0.132162,-0.1686198 0.314453,-0.296224 0.186849,-0.1321614 0.428386,-0.2096354 0.241536,-0.077474 0.546875,-0.077474 h 4.817057 v 1.1848958 h -4.817057 q -0.232422,0 -0.355469,0.1230468 -0.123047,0.1230469 -0.123047,0.3645834 v 3.1992186 q 0,0.2278646 0.123047,0.3554687 0.127604,0.1230469 0.355469,0.1230469 h 3.686849 v -1.485677 h -3.153646 v -1.1940104 h 3.741536 q 0.127604,0 0.236979,0.05013 0.109375,0.045573 0.186849,0.1276042 0.08203,0.082031 0.127605,0.1914062 0.04557,0.1048177 0.04557,0.2278646 z"
         style="font-weight:bold;font-size:9.33333302px;font-family:Audiowide, sans-serif;letter-spacing:2px;fill:#333333"
         id="path331" />
      <path
         d="M 26.339842,0 H 25.154946 V -1.6041666 H 20.989582 V 0 h -1.184896 v -3.267578 q 0,-0.7154948 0.246094,-1.3170573 0.246094,-0.6015624 0.683594,-1.0345051 0.4375,-0.4329427 1.034505,-0.6744792 0.597005,-0.2415364 1.303385,-0.2415364 h 2.670573 q 0.123047,0 0.232422,0.045573 0.109375,0.045573 0.191406,0.1276042 0.08203,0.082031 0.127604,0.1914062 0.04557,0.109375 0.04557,0.2324219 z m -5.35026,-2.7890624 h 4.165364 v -2.5611978 h -2.082682 q -0.05469,0 -0.232422,0.018229 -0.173177,0.013672 -0.405599,0.077474 -0.227864,0.063802 -0.483072,0.1959635 -0.255209,0.1321615 -0.469402,0.3645833 -0.214192,0.2324219 -0.355468,0.5833334 -0.136719,0.3463541 -0.136719,0.8430989 z"
         style="font-weight:bold;font-size:9.33333302px;font-family:Audiowide, sans-serif;letter-spacing:2px;fill:#333333"
         id="path333" />
    </g>
    <path
       transform="translate(11.5,-5)"
       style="fill:#dddddd"
       d="M 0,0 H 3 V 3 H 0 Z"
       id="rect52" />
  </g>
  <!-- <polyline points="0,0 0,380" stroke="#0f0" stroke-width="1" fill="none" transform="translate(5 0)" /> -->
  <!-- <polyline points="0,0 0,380" stroke="#0f0" stroke-width="1" fill="none" transform="translate(40 0)" /> -->
  <g
     id="use58"
     transform="translate(2.2,12)">
    <g
       id="g264"
       transform="translate(20,20)">
      <g
         id="g254"
         transform="rotate(-90,-5,-5)">
        <path
           style="stroke:#333333;stroke-width:1"
           d="M 0,0 H 4"
           id="polyline252" />
      </g>
      <path
         id="path256"
         transform="rotate(20)"
         d="M 0,-12.5 A 12.5,12.5 0 0 1 12.5,0"
         inkscape:connector-curvature="0"
         style="fill:none;stroke:#333333;stroke-width:0.5;stroke-linecap:round" />
      <path
         id="path258"
         transform="rotate(43)"
         d="M 0,-12.5 A 12.5,12.5 0 0 1 12.5,0"
         inkscape:connector-curvature="0"
         style="fill:none;stroke:#333333;stroke-width:0.5;stroke-linecap:round" />
      <path
         id="path260"
         transform="rotate(-20)"
         d="M 0,-12.5 A 12.5,12.5 0 0 0 -12.5,0"
         inkscape:connector-curvature="0"
         style="fill:none;stroke:#333333;stroke-width:0.5;stroke-linecap:round" />
      <path
         id="path262"
         transform="rotate(-43)"
         d="M 0,-12.5 A 12.5,12.5 0 0 0 -12.5,0"
         inkscape:connector-curvature="0"
         style="fill:none;stroke:#333333;stroke-width:0.5;stroke-linecap:round" />
    </g>
  </g>
  <g
     aria-label="1"
     style="font-weight:bold;font-size:6.66666651px;font-family:Roboto, sans-serif;letter-spacing:1px;fill:#333333"
     id="text60">
    <path
       d="M 5.6074218,34.5 H 4.6666666 v -3.626302 l -1.1230468,0.348307 v -0.764974 l 1.9628906,-0.703125 h 0.1009114 z"
       style="font-weight:bold;font-size:6.66666651px;font-family:Roboto, sans-serif;letter-spacing:1px;fill:#333333"
       id="path269" />
  </g>
  <g
     id="use64"
     transform="translate(2.2,43.5)">
    <g
       id="g248"
       transform="translate(20,20)">
      <g
         id="g238"
         transform="rotate(-90,-5,-5)">
        <path
           style="stroke:#333333;stroke-width:1"
           d="M 0,0 H 4"
           id="polyline236" />
      </g>
      <path
         id="path240"
         transform="rotate(20)"
         d="M 0,-12.5 A 12.5,12.5 0 0 1 12.5,0"
         inkscape:connector-curvature="0"
         style="fill:none;stroke:#333333;stroke-width:0.5;stroke-linecap:round" />
      <path
         id="path242"
         transform="rotate(43)"
         d="M 0,-12.5 A 12.5,12.5 0 0 1 12.5,0"
         inkscape:connector-curvature="0"
         style="fill:none;stroke:#333333;stroke-width:0.5;stroke-linecap:round" />
      <path
         id="path244"
         transform="rotate(-20)"
         d="M 0,-12.5 A 12.5,12.5 0 0 0 -12.5,0"
         inkscape:connector-curvature="0"
         style="fill:none;stroke:#333333;stroke-width:0.5;stroke-linecap:round" />
      <path
         id="path246"
         transform="rotate(-43)"
         d="M 0,-12.5 A 12.5,12.5 0 0 0 -12.5,0"
         inkscape:connector-curvature="0"
         style="fill:none;stroke:#333333;stroke-width:0.5;stroke-linecap:round" />
    </g>
  </g>
  <g
     aria-label="2"
     style="font-weight:bold;font-size:6.66666651px;font-family:Roboto, sans-serif;letter-spacing:1px;fill:#333333"
     id="text66">
    <path
       d="M 6.5709635,66 H 3.3222656 v -0.644531 l 1.5332031,-1.634115 q 0.3157552,-0.345052 0.4654948,-0.602213 0.1529948,-0.257162 0.1529948,-0.488282 0,-0.315755 -0.1595052,-0.494791 -0.1595052,-0.182292 -0.4557292,-0.182292 -0.3190104,0 -0.5045573,0.221354 Q 4.171875,62.393229 4.171875,62.751302 H 3.2278646 q 0,-0.432943 0.2050781,-0.791015 Q 3.641276,61.602214 4.0188802,61.400391 4.3964843,61.195313 4.875,61.195313 q 0.7324218,0 1.1360676,0.351562 0.4069011,0.351563 0.4069011,0.992839 0,0.351562 -0.1822917,0.716145 -0.1822917,0.364584 -0.625,0.84961 l -1.0774739,1.136067 h 2.0377604 z"
       style="font-weight:bold;font-size:6.66666651px;font-family:Roboto, sans-serif;letter-spacing:1px;fill:#333333"
       id="path273" />
  </g>
  <g
     id="use70"
     transform="translate(2.2,75)">
    <g
       id="g232"
       transform="translate(20,20)">
      <g
         id="g222"
         transform="rotate(-90,-5,-5)">
        <path
           style="stroke:#333333;stroke-width:1"
           d="M 0,0 H 4"
           id="polyline220" />
      </g>
      <path
         id="path224"
         transform="rotate(20)"
         d="M 0,-12.5 A 12.5,12.5 0 0 1 12.5,0"
         inkscape:connector-curvature="0"
         style="fill:none;stroke:#333333;stroke-width:0.5;stroke-linecap:round" />
      <path
         id="path226"
         transform="rotate(43)"
         d="M 0,-12.5 A 12.5,12.5 0 0 1 12.5,0"
         inkscape:connector-curvature="0"
         style="fill:none;stroke:#333333;stroke-width:0.5;stroke-linecap:round" />
      <path
         id="path228"
         transform="rotate(-20)"
         d="M 0,-12.5 A 12.5,12.5 0 0 0 -12.5,0"
         inkscape:connector-curvature="0"
         style="fill:none;stroke:#333333;stroke-width:0.5;stroke-linecap:round" />
      <path
         id="path230"
         transform="rotate(-43)"
         d="M 0,-12.5 A 12.5,12.5 0 0 0 -12.5,0"
         inkscape:connector-curvature="0"
         style="fill:none;stroke:#333333;stroke-width:0.5;stroke-linecap:round" />
    </g>
  </g>
  <g
     aria-label="3"
     style="font-weight:bold;font-size:6.66666651px;font-family:Roboto, sans-serif;letter-spacing:1px;fill:#333333"
     id="text72">
    <path
       d="m 4.2792968,94.713542 h 0.5013021 q 0.3580729,0 0.530599,-0.179037 0.172526,-0.179036 0.172526,-0.47526 0,-0.286458 -0.172526,-0.445964 -0.1692709,-0.159505 -0.46875,-0.159505 -0.2701823,0 -0.452474,0.14974 Q 4.2076823,93.75 4.2076823,93.98763 H 3.2669271 q 0,-0.371093 0.1985677,-0.664062 0.2018229,-0.296224 0.5598958,-0.46224 0.3613281,-0.166015 0.7942708,-0.166015 0.7519531,0 1.1783854,0.361328 0.4264323,0.358073 0.4264323,0.989583 0,0.325521 -0.1985677,0.598958 -0.1985677,0.273438 -0.5208333,0.419922 0.4003906,0.143229 0.5957031,0.429688 0.1985677,0.286458 0.1985677,0.677083 0,0.63151 -0.4622396,1.01237 -0.4589844,0.380859 -1.2174479,0.380859 -0.7096354,0 -1.1621093,-0.374349 -0.4492188,-0.374349 -0.4492188,-0.989583 h 0.9407552 q 0,0.266927 0.1985677,0.436198 0.2018229,0.169271 0.4947917,0.169271 0.3352864,0 0.5240885,-0.175782 0.1920573,-0.179036 0.1920573,-0.472005 0,-0.709635 -0.78125,-0.709635 H 4.2792968 Z"
       style="font-weight:bold;font-size:6.66666651px;font-family:Roboto, sans-serif;letter-spacing:1px;fill:#333333"
       id="path277" />
  </g>
  <g
     id="use76"
     transform="translate(2.2,106.5)">
    <g
       id="g216"
       transform="translate(20,20)">
      <g
         id="g206"
         transform="rotate(-90,-5,-5)">
        <path
           style="stroke:#333333;stroke-width:1"
           d="M 0,0 H 4"
           id="polyline204" />
      </g>
      <path
         id="path208"
         transform="rotate(20)"
         d="M 0,-12.5 A 12.5,12.5 0 0 1 12.5,0"
         inkscape:connector-curvature="0"
         style="fill:none;stroke:#333333;stroke-width:0.5;stroke-linecap:round" />
      <path
         id="path210"
         transform="rotate(43)"
         d="M 0,-12.5 A 12.5,12.5 0 0 1 12.5,0"
         inkscape:connector-curvature="0"
         style="fill:none;stroke:#333333;stroke-width:0.5;stroke-linecap:round" />
      <path
         id="path212"
         transform="rotate(-20)"
         d="M 0,-12.5 A 12.5,12.5 0 0 0 -12.5,0"
         inkscape:connector-curvature="0"
         style="fill:none;stroke:#333333;stroke-width:0.5;stroke-linecap:round" />
      <path
         id="path214"
         transform="rotate(-43)"
         d="M 0,-12.5 A 12.5,12.5 0 0 0 -12.5,0"
         inkscape:connector-curvature="0"
         style="fill:none;stroke:#333333;stroke-width:0.5;stroke-linecap:round" />
    </g>
  </g>
  <g
     aria-label="4"
     style="font-weight:bold;font-size:6.66666651px;font-family:Roboto, sans-serif;letter-spacing:1px;fill:#333333"
     id="text78">
    <path
       d="M 6.1054687,127.21615 H 6.642578 v 0.75846 H 6.1054687 V 129 H 5.1647135 v -1.02539 H 3.2213542 l -0.042318,-0.59245 1.9759114,-3.12174 h 0.9505208 z m -1.9889323,0 h 1.0481771 v -1.67318 l -0.061849,0.10742 z"
       style="font-weight:bold;font-size:6.66666651px;font-family:Roboto, sans-serif;letter-spacing:1px;fill:#333333"
       id="path281" />
  </g>
  <g
     id="use82"
     transform="translate(2.2,138)">
    <g
       id="g200"
       transform="translate(20,20)">
      <g
         id="g190"
         transform="rotate(-90,-5,-5)">
        <path
           style="stroke:#333333;stroke-width:1"
           d="M 0,0 H 4"
           id="polyline188" />
      </g>
      <path
         id="path192"
         transform="rotate(20)"
         d="M 0,-12.5 A 12.5,12.5 0 0 1 12.5,0"
         inkscape:connector-curvature="0"
         style="fill:none;stroke:#333333;stroke-width:0.5;stroke-linecap:round" />
      <path
         id="path194"
         transform="rotate(43)"
         d="M 0,-12.5 A 12.5,12.5 0 0 1 12.5,0"
         inkscape:connector-curvature="0"
         style="fill:none;stroke:#333333;stroke-width:0.5;stroke-linecap:round" />
      <path
         id="path196"
         transform="rotate(-20)"
         d="M 0,-12.5 A 12.5,12.5 0 0 0 -12.5,0"
         inkscape:connector-curvature="0"
         style="fill:none;stroke:#333333;stroke-width:0.5;stroke-linecap:round" />
      <path
         id="path198"
         transform="rotate(-43)"
         d="M 0,-12.5 A 12.5,12.5 0 0 0 -12.5,0"
         inkscape:connector-curvature="0"
         style="fill:none;stroke:#333333;stroke-width:0.5;stroke-linecap:round" />
    </g>
  </g>
  <g
     aria-label="5"
     style="font-weight:bold;font-size:6.66666651px;font-family:Roboto, sans-serif;letter-spacing:1px;fill:#333333"
     id="text84">
    <path
       d="m 3.4622396,158.16927 0.2734375,-2.40885 H 6.391927 v 0.7845 H 4.5071614 l -0.1171875,1.01888 q 0.3352865,-0.17903 0.7128906,-0.17903 0.6770834,0 1.0611979,0.41992 0.3841146,0.41992 0.3841146,1.17513 0,0.45898 -0.1953125,0.82357 -0.1920573,0.36132 -0.5533854,0.56315 -0.3613281,0.19856 -0.8528646,0.19856 -0.4296875,0 -0.797526,-0.17252 -0.3678385,-0.17578 -0.5826823,-0.49154 -0.2115885,-0.31575 -0.2246093,-0.7194 h 0.9309895 q 0.029297,0.29622 0.2050781,0.46224 0.1790365,0.16276 0.4654948,0.16276 0.3190104,0 0.4915365,-0.22786 0.172526,-0.23112 0.172526,-0.65105 0,-0.40364 -0.1985677,-0.61849 -0.1985677,-0.21484 -0.563151,-0.21484 -0.3352865,0 -0.5436198,0.17578 l -0.091146,0.0846 z"
       style="font-weight:bold;font-size:6.66666651px;font-family:Roboto, sans-serif;letter-spacing:1px;fill:#333333"
       id="path285" />
  </g>
  <g
     id="use88"
     transform="translate(2.2,169.5)">
    <g
       id="g184"
       transform="translate(20,20)">
      <g
         id="g174"
         transform="rotate(-90,-5,-5)">
        <path
           style="stroke:#333333;stroke-width:1"
           d="M 0,0 H 4"
           id="polyline172" />
      </g>
      <path
         id="path176"
         transform="rotate(20)"
         d="M 0,-12.5 A 12.5,12.5 0 0 1 12.5,0"
         inkscape:connector-curvature="0"
         style="fill:none;stroke:#333333;stroke-width:0.5;stroke-linecap:round" />
      <path
         id="path178"
         transform="rotate(43)"
         d="M 0,-12.5 A 12.5,12.5 0 0 1 12.5,0"
         inkscape:connector-curvature="0"
         style="fill:none;stroke:#333333;stroke-width:0.5;stroke-linecap:round" />
      <path
         id="path180"
         transform="rotate(-20)"
         d="M 0,-12.5 A 12.5,12.5 0 0 0 -12.5,0"
         inkscape:connector-curvature="0"
         style="fill:none;stroke:#333333;stroke-width:0.5;stroke-linecap:round" />
      <path
         id="path182"
         transform="rotate(-43)"
         d="M 0,-12.5 A 12.5,12.5 0 0 0 -12.5,0"
         inkscape:connector-curvature="0"
         style="fill:none;stroke:#333333;stroke-width:0.5;stroke-linecap:round" />
    </g>
  </g>
  <g
     aria-label="6"
     style="font-weight:bold;font-size:6.66666651px;font-family:Roboto, sans-serif;letter-spacing:1px;fill:#333333"
     id="text90">
    <path
       d="m 5.8743489,187.21159 v 0.77474 h -0.091146 q -0.6380209,0.01 -1.0286459,0.33203 -0.3873697,0.32227 -0.4654947,0.89518 0.3776041,-0.38411 0.953776,-0.38411 0.6184896,0 0.9830729,0.44271 0.3645833,0.4427 0.3645833,1.16536 0,0.46224 -0.2018229,0.83659 -0.1985677,0.37435 -0.5664062,0.58268 -0.3645834,0.20833 -0.8268229,0.20833 -0.7486979,0 -1.2109375,-0.52083 -0.4589844,-0.52083 -0.4589844,-1.38997 v -0.33854 q 0,-0.77149 0.2897136,-1.36068 0.2929687,-0.59245 0.8365885,-0.91472 0.546875,-0.32552 1.266276,-0.32877 z m -0.9179687,2.37305 q -0.2278646,0 -0.4134115,0.12044 -0.1855469,0.11719 -0.2734375,0.3125 v 0.28646 q 0,0.472 0.1855469,0.73893 0.1855469,0.26367 0.5208333,0.26367 0.3027344,0 0.4882812,-0.23763 0.1888021,-0.24088 0.1888021,-0.62174 0,-0.38737 -0.1888021,-0.625 -0.188802,-0.23763 -0.5078124,-0.23763 z"
       style="font-weight:bold;font-size:6.66666651px;font-family:Roboto, sans-serif;letter-spacing:1px;fill:#333333"
       id="path289" />
  </g>
  <g
     id="use94"
     transform="translate(2.2,201)">
    <g
       id="g168"
       transform="translate(20,20)">
      <g
         id="g158"
         transform="rotate(-90,-5,-5)">
        <path
           style="stroke:#333333;stroke-width:1"
           d="M 0,0 H 4"
           id="polyline156" />
      </g>
      <path
         id="path160"
         transform="rotate(20)"
         d="M 0,-12.5 A 12.5,12.5 0 0 1 12.5,0"
         inkscape:connector-curvature="0"
         style="fill:none;stroke:#333333;stroke-width:0.5;stroke-linecap:round" />
      <path
         id="path162"
         transform="rotate(43)"
         d="M 0,-12.5 A 12.5,12.5 0 0 1 12.5,0"
         inkscape:connector-curvature="0"
         style="fill:none;stroke:#333333;stroke-width:0.5;stroke-linecap:round" />
      <path
         id="path164"
         transform="rotate(-20)"
         d="M 0,-12.5 A 12.5,12.5 0 0 0 -12.5,0"
         inkscape:connector-curvature="0"
         style="fill:none;stroke:#333333;stroke-width:0.5;stroke-linecap:round" />
      <path
         id="path166"
         transform="rotate(-43)"
         d="M 0,-12.5 A 12.5,12.5 0 0 0 -12.5,0"
         inkscape:connector-curvature="0"
         style="fill:none;stroke:#333333;stroke-width:0.5;stroke-linecap:round" />
    </g>
  </g>
  <g
     aria-label="7"
     style="font-weight:bold;font-size:6.66666651px;font-family:Roboto, sans-serif;letter-spacing:1px;fill:#333333"
     id="text96">
    <path
       d="M 6.5449218,219.28776 4.7122395,223.5 H 3.719401 l 1.8359375,-3.97786 H 3.1985677 v -0.76172 h 3.3463541 z"
       style="font-weight:bold;font-size:6.66666651px;font-family:Roboto, sans-serif;letter-spacing:1px;fill:#333333"
       id="path293" />
  </g>
  <g
     id="use100"
     transform="translate(2.2,232.5)">
    <g
       id="g152"
       transform="translate(20,20)">
      <g
         id="g142"
         transform="rotate(-90,-5,-5)">
        <path
           style="stroke:#333333;stroke-width:1"
           d="M 0,0 H 4"
           id="polyline140" />
      </g>
      <path
         id="path144"
         transform="rotate(20)"
         d="M 0,-12.5 A 12.5,12.5 0 0 1 12.5,0"
         inkscape:connector-curvature="0"
         style="fill:none;stroke:#333333;stroke-width:0.5;stroke-linecap:round" />
      <path
         id="path146"
         transform="rotate(43)"
         d="M 0,-12.5 A 12.5,12.5 0 0 1 12.5,0"
         inkscape:connector-curvature="0"
         style="fill:none;stroke:#333333;stroke-width:0.5;stroke-linecap:round" />
      <path
         id="path148"
         transform="rotate(-20)"
         d="M 0,-12.5 A 12.5,12.5 0 0 0 -12.5,0"
         inkscape:connector-curvature="0"
         style="fill:none;stroke:#333333;stroke-width:0.5;stroke-linecap:round" />
      <path
         id="path150"
         transform="rotate(-43)"
         d="M 0,-12.5 A 12.5,12.5 0 0 0 -12.5,0"
         inkscape:connector-curvature="0"
         style="fill:none;stroke:#333333;stroke-width:0.5;stroke-linecap:round" />
    </g>
  </g>
  <g
     aria-label="8"
     style="font-weight:bold;font-size:6.66666651px;font-family:Roboto, sans-serif;letter-spacing:1px;fill:#333333"
     id="text102">
    <path
       d="m 6.4114583,251.52018 q 0,0.34505 -0.1725261,0.61198 -0.172526,0.26693 -0.4752604,0.42643 0.3450521,0.16602 0.546875,0.45899 0.2018229,0.28971 0.2018229,0.68359 0,0.63151 -0.4296875,0.99935 -0.4296875,0.36458 -1.1686197,0.36458 -0.7389323,0 -1.171875,-0.36783 -0.4329427,-0.36784 -0.4329427,-0.9961 0,-0.39388 0.2018229,-0.68685 0.2018229,-0.29297 0.5436198,-0.45573 -0.3027344,-0.1595 -0.4752604,-0.42643 -0.1692709,-0.26693 -0.1692709,-0.61198 0,-0.60547 0.4036459,-0.96354 0.4036458,-0.36133 1.0970051,-0.36133 0.6901042,0 1.09375,0.35808 0.4069011,0.35481 0.4069011,0.96679 z m -0.843099,2.11263 q 0,-0.30924 -0.1790364,-0.49479 -0.1790365,-0.18555 -0.4817709,-0.18555 -0.2994791,0 -0.4785156,0.18555 Q 4.25,253.32031 4.25,253.63281 q 0,0.30274 0.1757812,0.48828 0.1757813,0.18555 0.4882813,0.18555 0.3059895,0 0.4785156,-0.17904 0.1757812,-0.17903 0.1757812,-0.49479 z m -0.097656,-2.06705 q 0,-0.2767 -0.1464844,-0.44271 -0.1464844,-0.16927 -0.4134115,-0.16927 -0.2636718,0 -0.4101562,0.16276 -0.1464844,0.16276 -0.1464844,0.44922 0,0.2832 0.1464844,0.45572 0.1464844,0.17253 0.4134115,0.17253 0.266927,0 0.4101562,-0.17253 0.1464844,-0.17252 0.1464844,-0.45572 z"
       style="font-weight:bold;font-size:6.66666651px;font-family:Roboto, sans-serif;letter-spacing:1px;fill:#333333"
       id="path297" />
  </g>
  <path
     style="fill:#bbbbbb"
     d="m 10.5,270 h 24 c 2.77,0 5,2.23 5,5 v 30 c 0,2.77 -2.23,5 -5,5 h -24 c -2.77,0 -5,-2.23 -5,-5 v -30 c 0,-2.77 2.23,-5 5,-5 z"
     id="rect106" />
  <g
     aria-label="OUT"
     style="font-weight:bold;font-size:8px;font-family:Roboto, sans-serif;letter-spacing:2px;fill:#333333"
     id="text108">
    <path
       d="m 17.679687,303.28516 q 0,0.83984 -0.296875,1.47265 -0.296875,0.63281 -0.851562,0.97656 -0.550781,0.34375 -1.265625,0.34375 -0.707031,0 -1.261719,-0.33984 -0.554687,-0.33984 -0.859375,-0.96875 -0.304687,-0.63281 -0.308593,-1.45312 v -0.28125 q 0,-0.83985 0.300781,-1.47657 0.304687,-0.64062 0.855469,-0.98047 0.554687,-0.34375 1.265625,-0.34375 0.710937,0 1.261718,0.34375 0.554688,0.33985 0.855469,0.98047 0.304687,0.63672 0.304687,1.47266 z m -1.1875,-0.25782 q 0,-0.89453 -0.320312,-1.35937 -0.320312,-0.46485 -0.914062,-0.46485 -0.589844,0 -0.910157,0.46094 -0.320312,0.45703 -0.324218,1.34375 v 0.27735 q 0,0.87109 0.320312,1.35156 0.320313,0.48047 0.921875,0.48047 0.589844,0 0.90625,-0.46094 0.316406,-0.46484 0.320312,-1.35156 z"
       style="font-weight:bold;font-size:8px;font-family:Roboto, sans-serif;letter-spacing:2px;fill:#333333"
       id="path301" />
    <path
       d="m 24.84375,300.3125 v 3.74609 q 0,0.9336 -0.585938,1.47657 -0.582031,0.54296 -1.59375,0.54296 -0.996093,0 -1.582031,-0.52734 -0.585937,-0.52734 -0.597656,-1.44922 v -3.78906 h 1.171875 v 3.75391 q 0,0.55859 0.265625,0.8164 0.269531,0.25391 0.742187,0.25391 0.988282,0 1.003907,-1.03906 v -3.78516 z"
       style="font-weight:bold;font-size:8px;font-family:Roboto, sans-serif;letter-spacing:2px;fill:#333333"
       id="path303" />
    <path
       d="M 32.085937,301.26172 H 30.34375 V 306 h -1.171875 v -4.73828 h -1.71875 v -0.94922 h 4.632812 z"
       style="font-weight:bold;font-size:8px;font-family:Roboto, sans-serif;letter-spacing:2px;fill:#333333"
       id="path305" />
  </g>
</svg>
