<?xml version="1.0" encoding="UTF-8" standalone="no"?>
<svg xmlns:dc="http://purl.org/dc/elements/1.1/" xmlns:cc="http://creativecommons.org/ns#" xmlns:rdf="http://www.w3.org/1999/02/22-rdf-syntax-ns#" xmlns:svg="http://www.w3.org/2000/svg" xmlns="http://www.w3.org/2000/svg" xmlns:sodipodi="http://sodipodi.sourceforge.net/DTD/sodipodi-0.dtd" xmlns:inkscape="http://www.inkscape.org/namespaces/inkscape" inkscape:version="1.0 (4035a4f, 2020-05-01)" sodipodi:docname="svg_render_PolyCon8-pp.svg" id="svg1111" viewBox="0 0 45 380" height="380" width="45" version="1.1">
  <metadata id="metadata1117">
    <rdf:RDF>
      <cc:Work rdf:about="">
        <dc:format>image/svg+xml</dc:format>
        <dc:type rdf:resource="http://purl.org/dc/dcmitype/StillImage"/>
      </cc:Work>
    </rdf:RDF>
  </metadata>
  <defs id="defs1115"/>
  <sodipodi:namedview inkscape:current-layer="svg1111" inkscape:window-maximized="0" inkscape:window-y="23" inkscape:window-x="0" inkscape:cy="190" inkscape:cx="22.5" inkscape:zoom="1.7605263" showgrid="false" id="namedview1113" inkscape:window-height="480" inkscape:window-width="689" inkscape:pageshadow="2" inkscape:pageopacity="0" guidetolerance="10" gridtolerance="10" objecttolerance="10" borderopacity="1" bordercolor="#666666" pagecolor="#ffffff"/>
  
  <svg version="1.1" id="svg873" width="100%" height="100%">
    <path class="module-background background-fill" d="M 0,0 H 45 V 380 H 0 Z" style="fill:#dddddd" id="rect871"/>
  </svg>
  <svg version="1.1" id="svg881" width="100%" height="100%">
    <path class="module-border-inner" d="M 1,1 H 44 V 379 H 1 V 1" style="fill:none;stroke:#e4e4e4;stroke-width:0.5" id="polyline875"/>
    <path class="module-border-middle" d="m 0.5,0.5 h 44 v 379 H 0.5 V 0.5" style="fill:none;stroke:#ebebeb;stroke-width:0.8" id="polyline877"/>
    <path class="module-border-outer" d="M 0,0 H 45 V 380 H 0 V 0" style="fill:none;stroke:#f2f2f2;stroke-width:1" id="polyline879"/>
  </svg>
  <g transform="rotate(-90,194.5,181.5)" id="g891">
    <g class="title" style="font-weight:normal;font-size:9.33333px;font-family:Comfortaa, sans-serif;letter-spacing:2.5px;fill:#333333" id="text883" aria-label="POLYCON8">
      <path id="path1269" style="font-weight:normal;font-size:9.33333px;font-family:Comfortaa, sans-serif;letter-spacing:2.5px;fill:#333333" d="M 1.2973329,0 Q 1.1386663,0 1.0359996,-0.10266663 0.93333302,-0.20533326 0.93333302,-0.36399988 V -6.925331 q 0,-0.1586666 0.10266658,-0.2613332 0.1026667,-0.1026667 0.2613333,-0.1026667 h 1.866666 q 0.6813331,0 1.2133329,0.3079999 0.5413332,0.2986666 0.8399998,0.8399998 0.2986665,0.5319998 0.2986665,1.2226662 0,0.6813331 -0.2986665,1.2133329 Q 4.918665,-3.1733323 4.3773318,-2.8746657 3.845332,-2.5759991 3.1639989,-2.5759991 H 1.6613328 v 2.21199922 q 0,0.15866662 -0.1026667,0.26133325 Q 1.4559995,0 1.2973329,0 Z m 1.866666,-3.2759989 q 0.4759999,0 0.8493331,-0.2053332 0.3733332,-0.2146666 0.5786664,-0.5879998 0.2146666,-0.3733333 0.2146666,-0.8493331 0,-0.4853332 -0.2146666,-0.8586664 Q 4.3866652,-6.1599979 4.013332,-6.3746645 3.6399988,-6.5893311 3.1639989,-6.5893311 H 1.6613328 v 3.3133322 z"/>
      <path id="path1271" style="font-weight:normal;font-size:9.33333px;font-family:Comfortaa, sans-serif;letter-spacing:2.5px;fill:#333333" d="m 12.508392,0.0933333 q -1.064,0 -1.913333,-0.48533317 -0.8493329,-0.48533316 -1.3346661,-1.33466623 -0.4759998,-0.8586664 -0.4759998,-1.922666 0,-1.0639996 0.4759998,-1.9133327 0.4853332,-0.849333 1.3346661,-1.3346662 0.849333,-0.4853332 1.913333,-0.4853332 1.054666,0 1.903999,0.4853332 0.858667,0.4853332 1.334666,1.3346662 0.485334,0.8493331 0.485334,1.9133327 0,1.0639996 -0.485334,1.922666 -0.475999,0.84933307 -1.334666,1.33466623 -0.849333,0.48533317 -1.903999,0.48533317 z m 0,-0.69066643 q 0.849333,0 1.530666,-0.4013332 0.690666,-0.40133317 1.082666,-1.09199967 0.392,-0.6999997 0.392,-1.5586661 0,-0.849333 -0.392,-1.5399995 -0.392,-0.6999997 -1.082666,-1.1013329 -0.681333,-0.4013332 -1.530666,-0.4013332 -0.858667,0 -1.549333,0.4013332 -0.681333,0.4013332 -1.0733329,1.1013329 -0.3919999,0.6906665 -0.3919999,1.5399995 0,0.8586664 0.3919999,1.5586661 0.3919999,0.6906665 1.0733329,1.09199967 0.690666,0.4013332 1.549333,0.4013332 z"/>
      <path id="path1273" style="font-weight:normal;font-size:9.33333px;font-family:Comfortaa, sans-serif;letter-spacing:2.5px;fill:#333333" d="M 20.607224,0 Q 20.45789,0 20.34589,-0.10266663 20.243224,-0.21466659 20.243224,-0.36399988 V -6.925331 q 0,-0.1493333 0.102666,-0.2519999 0.112,-0.112 0.261334,-0.112 0.158666,0 0.261333,0.1026667 0.102667,0.1026666 0.102667,0.2613332 v 6.23466457 h 3.649332 q 0.158666,0 0.261333,0.10266663 0.102666,0.0933333 0.102666,0.24266658 0,0.14933329 -0.102666,0.25199992 Q 24.779222,0 24.620556,0 Z"/>
      <path id="path1275" style="font-weight:normal;font-size:9.33333px;font-family:Comfortaa, sans-serif;letter-spacing:2.5px;fill:#333333" d="m 32.178783,-7.2893309 q 0.14,0 0.224,0.1026667 0.09333,0.093333 0.09333,0.2333332 0,0.1306667 -0.06533,0.2333333 l -2.547999,4.0226653 v 2.33333252 q 0,0.14933329 -0.102666,0.26133325 Q 29.677451,0 29.518784,0 29.369451,0 29.257451,-0.10266663 29.154784,-0.21466659 29.154784,-0.36399988 V -2.6973324 l -2.538665,-4.0226653 q -0.07467,-0.1213333 -0.07467,-0.2333333 0,-0.1399999 0.102667,-0.2333332 0.102666,-0.1026667 0.252,-0.1026667 0.102666,0 0.167999,0.046667 0.07467,0.037333 0.14,0.1306666 l 2.324,3.7426654 2.314665,-3.7239987 q 0.07467,-0.1026666 0.149334,-0.1493333 0.07467,-0.046667 0.186666,-0.046667 z"/>
      <path id="path1277" style="font-weight:normal;font-size:9.33333px;font-family:Comfortaa, sans-serif;letter-spacing:2.5px;fill:#333333" d="m 38.782238,0.0933333 q -0.989333,0 -1.819999,-0.50399983 -0.830666,-0.50399983 -1.325333,-1.36266617 -0.485333,-0.8586664 -0.485333,-1.8759994 0,-1.0079996 0.485333,-1.866666 0.485333,-0.8586664 1.316,-1.3626662 0.830666,-0.5039999 1.829332,-0.5039999 0.672,0 1.222667,0.196 0.550666,0.1959999 1.063999,0.6253331 0.102667,0.074667 0.102667,0.2146666 0,0.074667 -0.03733,0.1399999 -0.03733,0.056 -0.102667,0.084 -0.01867,0.065333 -0.084,0.1026667 -0.06533,0.037333 -0.14,0.037333 -0.14,0 -0.233333,-0.084 -0.364,-0.3266666 -0.793333,-0.4759998 -0.429333,-0.1493333 -0.998667,-0.1493333 -0.783999,0 -1.455999,0.4199998 -0.672,0.4106666 -1.073333,1.1106663 -0.392,0.6999998 -0.392,1.5119995 0,0.8306664 0.392,1.5306662 0.392,0.6999997 1.064,1.1106662 0.671999,0.41066657 1.465332,0.41066657 1.017333,0 1.838666,-0.65333307 0.102667,-0.074667 0.205334,-0.074667 0.14,0 0.242666,0.1026666 0.102667,0.093333 0.102667,0.25199996 0,0.14933329 -0.102667,0.26133325 -0.877333,0.80266639 -2.286666,0.80266639 z"/>
      <path id="path1279" style="font-weight:normal;font-size:9.33333px;font-family:Comfortaa, sans-serif;letter-spacing:2.5px;fill:#333333" d="m 48.576091,0.0933333 q -1.063999,0 -1.913332,-0.48533317 -0.849333,-0.48533316 -1.334667,-1.33466623 -0.475999,-0.8586664 -0.475999,-1.922666 0,-1.0639996 0.475999,-1.9133327 0.485334,-0.849333 1.334667,-1.3346662 0.849333,-0.4853332 1.913332,-0.4853332 1.054667,0 1.904,0.4853332 0.858666,0.4853332 1.334666,1.3346662 0.485333,0.8493331 0.485333,1.9133327 0,1.0639996 -0.485333,1.922666 -0.476,0.84933307 -1.334666,1.33466623 -0.849333,0.48533317 -1.904,0.48533317 z m 0,-0.69066643 q 0.849333,0 1.530666,-0.4013332 0.690667,-0.40133317 1.082667,-1.09199967 0.392,-0.6999997 0.392,-1.5586661 0,-0.849333 -0.392,-1.5399995 -0.392,-0.6999997 -1.082667,-1.1013329 -0.681333,-0.4013332 -1.530666,-0.4013332 -0.858666,0 -1.549333,0.4013332 -0.681333,0.4013332 -1.073333,1.1013329 -0.391999,0.6906665 -0.391999,1.5399995 0,0.8586664 0.391999,1.5586661 0.392,0.6906665 1.073333,1.09199967 0.690667,0.4013332 1.549333,0.4013332 z"/>
      <path id="path1281" style="font-weight:normal;font-size:9.33333px;font-family:Comfortaa, sans-serif;letter-spacing:2.5px;fill:#333333" d="M 56.674923,0 Q 56.516256,0 56.41359,-0.10266663 56.310923,-0.20533326 56.310923,-0.36399988 V -6.925331 q 0,-0.1586666 0.102667,-0.2613332 0.102666,-0.1026667 0.261333,-0.1026667 0.168,0 0.28,0.1306667 l 4.461332,5.8613313 V -6.925331 q 0,-0.1586666 0.102666,-0.2613332 0.112,-0.1026667 0.261334,-0.1026667 0.158666,0 0.261333,0.1026667 0.102667,0.1026666 0.102667,0.2613332 v 6.56133112 q 0,0.14933329 -0.102667,0.26133325 Q 61.938921,0 61.780255,0 61.593588,0 61.509588,-0.12133329 L 57.038923,-5.9826646 v 5.61866472 q 0,0.14933329 -0.102667,0.26133325 Q 56.83359,0 56.674923,0 Z"/>
      <path id="path1283" style="font-weight:normal;font-size:9.33333px;font-family:Comfortaa, sans-serif;letter-spacing:2.5px;fill:#333333" d="m 69.406296,-4.0879986 q 0.513333,0.2706666 0.812,0.7653331 0.298666,0.4853331 0.298666,1.1013329 0,0.6346665 -0.289333,1.1479996 -0.28,0.51333319 -0.784,0.81199976 -0.494666,0.29866656 -1.101333,0.29866656 -0.615999,0 -1.119999,-0.28933323 -0.494667,-0.29866657 -0.784,-0.80266639 -0.28,-0.5133332 -0.28,-1.1386663 0,-0.6253331 0.298667,-1.1199996 0.308,-0.5039998 0.821333,-0.7746664 -0.345334,-0.2426666 -0.541333,-0.6159998 -0.196,-0.3826665 -0.196,-0.8399997 0,-0.4946665 0.233333,-0.8959997 0.242666,-0.4106665 0.653333,-0.6346665 0.42,-0.2333332 0.933333,-0.2333332 0.504,0 0.905333,0.2333332 0.410667,0.224 0.634666,0.6253332 0.233334,0.3919998 0.233334,0.8866663 0,0.4573332 -0.196,0.8493331 -0.196,0.3826665 -0.532,0.6253331 z M 67.23163,-5.5346648 q 0,0.4853332 0.317333,0.8213331 0.317333,0.3266665 0.793333,0.3266665 0.476,0 0.784,-0.3359999 0.317333,-0.3453332 0.317333,-0.849333 0,-0.4573332 -0.317333,-0.7653331 -0.317333,-0.3079999 -0.784,-0.3079999 -0.476,0 -0.793333,0.3173333 -0.317333,0.3173332 -0.317333,0.793333 z m 2.557332,3.3226656 q 0,-0.4199999 -0.195999,-0.7559998 -0.186667,-0.3359999 -0.522667,-0.5319998 -0.326667,-0.1959999 -0.728,-0.1959999 -0.410666,0 -0.746666,0.2053332 -0.336,0.196 -0.522667,0.5413332 -0.186666,0.3453332 -0.186666,0.7746664 0,0.4293332 0.186666,0.793333 0.196,0.3546666 0.522667,0.55999985 0.336,0.20533326 0.746666,0.20533326 0.410667,0 0.737333,-0.20533326 0.336,-0.21466655 0.522667,-0.57866645 0.186666,-0.3733332 0.186666,-0.8119997 z"/>
    </g>
    <g transform="translate(0,12)" id="g889">
      <g class="brand" style="font-weight:bold;font-size:9.33333px;font-family:Audiowide, sans-serif;letter-spacing:2px;fill:#333333" id="text885" aria-label="BGA">
        <path id="path1286" style="font-weight:bold;font-size:9.33333px;font-family:Audiowide, sans-serif;letter-spacing:2px;fill:#333333" d="m 7.209633,-1.4355464 q 0,0.2187499 -0.077474,0.4694009 -0.072917,0.25065095 -0.2460936,0.46484359 Q 6.7174456,-0.28710928 6.4440082,-0.14127599 6.1705708,0 5.7740866,0 H 1.2760412 Q 1.1484371,0 1.0390621,-0.0455729 0.92968718,-0.0911458 0.84765596,-0.16861973 0.77018203,-0.25065096 0.72460913,-0.36002592 0.67903623,-0.46940088 0.67903623,-0.597005 v -5.341144 q 0,-0.1230469 0.0455729,-0.2324218 0.0455729,-0.109375 0.12304683,-0.1914062 0.0820312,-0.082031 0.19140614,-0.1276041 0.109375,-0.045573 0.2369791,-0.045573 h 3.9648424 q 0.21875,0 0.4694009,0.077474 0.250651,0.077474 0.4648436,0.250651 0.2187499,0.1686197 0.3600259,0.4420571 0.1458333,0.2734374 0.1458333,0.6699217 v 0.2233072 q 0,0.314453 -0.1048177,0.6790362 -0.1048176,0.3600259 -0.3372394,0.6835935 0.2005207,0.1230468 0.3736978,0.2962239 0.1777343,0.173177 0.3098957,0.4010415 0.1321614,0.2278645 0.2096353,0.5149738 0.077474,0.2871093 0.077474,0.6334633 z M 6.0247375,-1.6634109 q 0,-0.2324218 -0.072917,-0.4147134 Q 5.8789042,-2.2649732 5.7467428,-2.3971346 5.6145814,-2.529296 5.4277325,-2.5976554 5.2408836,-2.670572 5.0084618,-2.670572 h -2.670572 v -1.19401 h 2.1373691 q 0.2324218,0 0.4192707,-0.068359 0.1868489,-0.072917 0.3190103,-0.205078 0.1321614,-0.1321614 0.2005208,-0.314453 0.072917,-0.1868489 0.072917,-0.4192707 v -0.2233072 q 0,-0.2552083 -0.2460937,-0.2552083 H 1.8639317 v 4.1653632 h 3.9101549 q 0.031901,0 0.077474,-0.00456 0.045573,-0.00456 0.082031,-0.027344 0.036458,-0.022786 0.063802,-0.077474 0.027344,-0.054687 0.027344,-0.1503906 z"/>
        <path id="path1288" style="font-weight:bold;font-size:9.33333px;font-family:Audiowide, sans-serif;letter-spacing:2px;fill:#333333" d="m 16.683589,-0.597005 q 0,0.12760412 -0.04557,0.23697908 -0.04557,0.10937496 -0.127605,0.19140619 -0.07747,0.07747393 -0.186849,0.12304683 Q 16.214189,0 16.086584,0 h -4.274738 q -0.164062,0 -0.355468,-0.03645832 -0.186849,-0.04101561 -0.373698,-0.12304683 -0.182292,-0.0820312 -0.350911,-0.20963535 -0.16862,-0.13216141 -0.300782,-0.31445302 -0.127604,-0.18684889 -0.205078,-0.42838528 -0.07747,-0.2460937 -0.07747,-0.5514321 v -3.2083322 q 0,-0.1640625 0.03646,-0.3509114 0.04101,-0.1914062 0.123047,-0.3736978 0.08203,-0.1868489 0.214192,-0.3554686 0.132162,-0.1686197 0.314453,-0.2962238 0.186849,-0.1321615 0.428385,-0.2096354 0.241537,-0.077474 0.546875,-0.077474 h 4.817056 v 1.1848954 h -4.817056 q -0.232422,0 -0.355468,0.1230468 -0.123047,0.1230469 -0.123047,0.3645832 v 3.1992177 q 0,0.2278645 0.123047,0.3554686 0.127604,0.1230469 0.355468,0.1230469 h 3.686848 V -2.670572 h -3.153645 v -1.19401 h 3.741535 q 0.127605,0 0.236979,0.05013 0.109375,0.045573 0.186849,0.1276041 0.08203,0.082031 0.127605,0.1914062 0.04557,0.1048177 0.04557,0.2278645 z"/>
        <path id="path1290" style="font-weight:bold;font-size:9.33333px;font-family:Audiowide, sans-serif;letter-spacing:2px;fill:#333333" d="M 26.339836,0 H 25.154941 V -1.6041661 H 20.989578 V 0 h -1.184896 v -3.267577 q 0,-0.7154946 0.246094,-1.3170569 0.246094,-0.6015623 0.683593,-1.0345048 0.4375,-0.4329426 1.034505,-0.6744789 0.597005,-0.2415364 1.303385,-0.2415364 h 2.670572 q 0.123047,0 0.232422,0.045573 0.109375,0.045573 0.191406,0.1276041 0.08203,0.082031 0.127604,0.1914062 0.04557,0.1093749 0.04557,0.2324218 z m -5.350258,-2.7890616 h 4.165363 v -2.561197 h -2.082682 q -0.05469,0 -0.232422,0.018229 -0.173177,0.013672 -0.405598,0.077474 -0.227865,0.063802 -0.483073,0.1959635 -0.255208,0.1321614 -0.469401,0.3645832 -0.214193,0.2324218 -0.355469,0.5833331 -0.136718,0.3463541 -0.136718,0.8430987 z"/>
      </g>
      <path d="M 0,0 H 3 V 3 H 0 Z" style="fill:#dddddd" transform="translate(11.5,-5)" id="rect887"/>
    </g>
  </g>
  <g transform="translate(14.5,24)" id="g895"/>
  <g transform="translate(2.2,12)" id="g913">
    <svg version="1.1" id="svg911" width="100%" height="100%">
      <g transform="translate(20,20)" id="g909">
        <g transform="rotate(-90,-5,-5)" id="g899">
          <path d="M 0,0 H 4" style="stroke:#333333;stroke-width:1" id="polyline897"/>
        </g>
        <path d="M 0,-12.5 A 12.5,12.5 0 0 1 12.5,0" stroke="#333333" stroke-width="0.5" stroke-linecap="round" fill="none" transform="rotate(20)" id="path901"/>
        <path d="M 0,-12.5 A 12.5,12.5 0 0 1 12.5,0" stroke="#333333" stroke-width="0.5" stroke-linecap="round" fill="none" transform="rotate(43)" id="path903"/>
        <path d="M 0,-12.5 A 12.5,12.5 0 0 0 -12.5,0" stroke="#333333" stroke-width="0.5" stroke-linecap="round" fill="none" transform="rotate(-20)" id="path905"/>
        <path d="M 0,-12.5 A 12.5,12.5 0 0 0 -12.5,0" stroke="#333333" stroke-width="0.5" stroke-linecap="round" fill="none" transform="rotate(-43)" id="path907"/>
      </g>
    </svg>
  </g>
  <g style="font-weight:bold;font-size:6.66667px;font-family:Roboto, sans-serif;letter-spacing:1px;fill:#333333" id="text915" aria-label="1">
    <path id="path1265" style="font-weight:bold;font-size:6.66667px;font-family:Roboto, sans-serif;letter-spacing:1px;fill:#333333" d="M 5.6074231,34.5 H 4.6666675 v -3.626304 l -1.1230474,0.348308 v -0.764975 l 1.9628915,-0.703125 h 0.1009115 z"/>
  </g>
  <g transform="translate(38.5,30.4)" id="g917"/>
  <g transform="translate(14.5,55.5)" id="g921"/>
  <g transform="translate(2.2,43.5)" id="g939">
    <svg version="1.1" id="svg937" width="100%" height="100%">
      <g transform="translate(20,20)" id="g935">
        <g transform="rotate(-90,-5,-5)" id="g925">
          <path d="M 0,0 H 4" style="stroke:#333333;stroke-width:1" id="polyline923"/>
        </g>
        <path d="M 0,-12.5 A 12.5,12.5 0 0 1 12.5,0" stroke="#333333" stroke-width="0.5" stroke-linecap="round" fill="none" transform="rotate(20)" id="path927"/>
        <path d="M 0,-12.5 A 12.5,12.5 0 0 1 12.5,0" stroke="#333333" stroke-width="0.5" stroke-linecap="round" fill="none" transform="rotate(43)" id="path929"/>
        <path d="M 0,-12.5 A 12.5,12.5 0 0 0 -12.5,0" stroke="#333333" stroke-width="0.5" stroke-linecap="round" fill="none" transform="rotate(-20)" id="path931"/>
        <path d="M 0,-12.5 A 12.5,12.5 0 0 0 -12.5,0" stroke="#333333" stroke-width="0.5" stroke-linecap="round" fill="none" transform="rotate(-43)" id="path933"/>
      </g>
    </svg>
  </g>
  <g style="font-weight:bold;font-size:6.66667px;font-family:Roboto, sans-serif;letter-spacing:1px;fill:#333333" id="text941" aria-label="2">
    <path id="path1261" style="font-weight:bold;font-size:6.66667px;font-family:Roboto, sans-serif;letter-spacing:1px;fill:#333333" d="M 6.5709652,66 H 3.3222658 v -0.644532 l 1.5332038,-1.634115 q 0.3157554,-0.345052 0.465495,-0.602214 0.1529949,-0.257161 0.1529949,-0.488281 0,-0.315756 -0.1595053,-0.494792 -0.1595053,-0.182292 -0.4557294,-0.182292 -0.3190105,0 -0.5045575,0.221354 -0.1822917,0.218099 -0.1822917,0.576173 H 3.2278647 q 0,-0.432943 0.2050782,-0.791016 0.2083334,-0.358074 0.5859378,-0.559897 0.3776043,-0.205078 0.8561202,-0.205078 0.7324222,0 1.1360682,0.351563 0.4069013,0.351563 0.4069013,0.992839 0,0.351563 -0.1822918,0.716146 -0.1822917,0.364584 -0.6250003,0.84961 l -1.0774744,1.136068 h 2.0377613 z"/>
  </g>
  <g transform="translate(38.5,61.9)" id="g943"/>
  <g transform="translate(14.5,87)" id="g947"/>
  <g transform="translate(2.2,75)" id="g965">
    <svg version="1.1" id="svg963" width="100%" height="100%">
      <g transform="translate(20,20)" id="g961">
        <g transform="rotate(-90,-5,-5)" id="g951">
          <path d="M 0,0 H 4" style="stroke:#333333;stroke-width:1" id="polyline949"/>
        </g>
        <path d="M 0,-12.5 A 12.5,12.5 0 0 1 12.5,0" stroke="#333333" stroke-width="0.5" stroke-linecap="round" fill="none" transform="rotate(20)" id="path953"/>
        <path d="M 0,-12.5 A 12.5,12.5 0 0 1 12.5,0" stroke="#333333" stroke-width="0.5" stroke-linecap="round" fill="none" transform="rotate(43)" id="path955"/>
        <path d="M 0,-12.5 A 12.5,12.5 0 0 0 -12.5,0" stroke="#333333" stroke-width="0.5" stroke-linecap="round" fill="none" transform="rotate(-20)" id="path957"/>
        <path d="M 0,-12.5 A 12.5,12.5 0 0 0 -12.5,0" stroke="#333333" stroke-width="0.5" stroke-linecap="round" fill="none" transform="rotate(-43)" id="path959"/>
      </g>
    </svg>
  </g>
  <g style="font-weight:bold;font-size:6.66667px;font-family:Roboto, sans-serif;letter-spacing:1px;fill:#333333" id="text967" aria-label="3">
    <path id="path1257" style="font-weight:bold;font-size:6.66667px;font-family:Roboto, sans-serif;letter-spacing:1px;fill:#333333" d="m 4.2792975,94.71354 h 0.5013023 q 0.3580731,0 0.5305992,-0.179036 0.1725261,-0.179037 0.1725261,-0.475261 0,-0.286458 -0.1725261,-0.445964 -0.1692709,-0.159505 -0.4687502,-0.159505 -0.2701824,0 -0.4524742,0.14974 -0.1822917,0.146484 -0.1822917,0.384115 H 3.2669272 q 0,-0.371094 0.1985678,-0.664063 0.201823,-0.296224 0.5598961,-0.46224 0.3613283,-0.166016 0.7942712,-0.166016 0.7519535,0 1.178386,0.361329 0.4264325,0.358073 0.4264325,0.989583 0,0.325521 -0.1985678,0.598959 -0.1985678,0.273438 -0.5208336,0.419922 0.4003908,0.143229 0.5957034,0.429688 0.1985678,0.286458 0.1985678,0.677083 0,0.631511 -0.4622398,1.012371 -0.4589846,0.380859 -1.2174485,0.380859 -0.7096357,0 -1.1621099,-0.374349 -0.449219,-0.374349 -0.449219,-0.989584 h 0.9407557 q 0,0.266927 0.1985678,0.436198 0.201823,0.169271 0.4947919,0.169271 0.3352866,0 0.5240888,-0.175781 0.1920574,-0.179037 0.1920574,-0.472005 0,-0.709636 -0.7812504,-0.709636 H 4.2792975 Z"/>
  </g>
  <g transform="translate(38.5,93.4)" id="g969"/>
  <g transform="translate(14.5,118.5)" id="g973"/>
  <g transform="translate(2.2,106.5)" id="g991">
    <svg version="1.1" id="svg989" width="100%" height="100%">
      <g transform="translate(20,20)" id="g987">
        <g transform="rotate(-90,-5,-5)" id="g977">
          <path d="M 0,0 H 4" style="stroke:#333333;stroke-width:1" id="polyline975"/>
        </g>
        <path d="M 0,-12.5 A 12.5,12.5 0 0 1 12.5,0" stroke="#333333" stroke-width="0.5" stroke-linecap="round" fill="none" transform="rotate(20)" id="path979"/>
        <path d="M 0,-12.5 A 12.5,12.5 0 0 1 12.5,0" stroke="#333333" stroke-width="0.5" stroke-linecap="round" fill="none" transform="rotate(43)" id="path981"/>
        <path d="M 0,-12.5 A 12.5,12.5 0 0 0 -12.5,0" stroke="#333333" stroke-width="0.5" stroke-linecap="round" fill="none" transform="rotate(-20)" id="path983"/>
        <path d="M 0,-12.5 A 12.5,12.5 0 0 0 -12.5,0" stroke="#333333" stroke-width="0.5" stroke-linecap="round" fill="none" transform="rotate(-43)" id="path985"/>
      </g>
    </svg>
  </g>
  <g style="font-weight:bold;font-size:6.66667px;font-family:Roboto, sans-serif;letter-spacing:1px;fill:#333333" id="text993" aria-label="4">
    <path id="path1253" style="font-weight:bold;font-size:6.66667px;font-family:Roboto, sans-serif;letter-spacing:1px;fill:#333333" d="m 6.1054702,127.21614 h 0.5371097 v 0.75847 H 6.1054702 V 129 H 5.1647146 v -1.02539 H 3.2213543 l -0.042318,-0.59245 1.9759124,-3.12175 h 0.9505213 z m -1.9889332,0 h 1.0481776 v -1.67317 l -0.061849,0.10742 z"/>
  </g>
  <g transform="translate(38.5,124.9)" id="g995"/>
  <g transform="translate(14.5,150)" id="g999"/>
  <g transform="translate(2.2,138)" id="g1017">
    <svg version="1.1" id="svg1015" width="100%" height="100%">
      <g transform="translate(20,20)" id="g1013">
        <g transform="rotate(-90,-5,-5)" id="g1003">
          <path d="M 0,0 H 4" style="stroke:#333333;stroke-width:1" id="polyline1001"/>
        </g>
        <path d="M 0,-12.5 A 12.5,12.5 0 0 1 12.5,0" stroke="#333333" stroke-width="0.5" stroke-linecap="round" fill="none" transform="rotate(20)" id="path1005"/>
        <path d="M 0,-12.5 A 12.5,12.5 0 0 1 12.5,0" stroke="#333333" stroke-width="0.5" stroke-linecap="round" fill="none" transform="rotate(43)" id="path1007"/>
        <path d="M 0,-12.5 A 12.5,12.5 0 0 0 -12.5,0" stroke="#333333" stroke-width="0.5" stroke-linecap="round" fill="none" transform="rotate(-20)" id="path1009"/>
        <path d="M 0,-12.5 A 12.5,12.5 0 0 0 -12.5,0" stroke="#333333" stroke-width="0.5" stroke-linecap="round" fill="none" transform="rotate(-43)" id="path1011"/>
      </g>
    </svg>
  </g>
  <g style="font-weight:bold;font-size:6.66667px;font-family:Roboto, sans-serif;letter-spacing:1px;fill:#333333" id="text1019" aria-label="5">
    <path id="path1249" style="font-weight:bold;font-size:6.66667px;font-family:Roboto, sans-serif;letter-spacing:1px;fill:#333333" d="m 3.4622398,158.16927 0.2734376,-2.40886 h 2.6562513 v 0.78451 H 4.5071622 l -0.1171876,1.01888 q 0.3352866,-0.17904 0.712891,-0.17904 0.6770836,0 1.0611984,0.41993 0.3841148,0.41992 0.3841148,1.17513 0,0.45898 -0.1953126,0.82357 -0.1920574,0.36132 -0.5533857,0.56315 -0.3613283,0.19856 -0.852865,0.19856 -0.4296877,0 -0.7975264,-0.17252 -0.3678387,-0.17578 -0.5826826,-0.49154 -0.2115886,-0.31575 -0.2246095,-0.7194 h 0.9309901 q 0.029297,0.29622 0.2050782,0.46224 0.1790365,0.16276 0.465495,0.16276 0.3190106,0 0.4915367,-0.22786 0.1725261,-0.23112 0.1725261,-0.65105 0,-0.40364 -0.1985678,-0.61849 -0.1985678,-0.21484 -0.5631513,-0.21484 -0.3352866,0 -0.54362,0.17578 l -0.091146,0.0846 z"/>
  </g>
  <g transform="translate(38.5,156.4)" id="g1021"/>
  <g transform="translate(14.5,181.5)" id="g1025"/>
  <g transform="translate(2.2,169.5)" id="g1043">
    <svg version="1.1" id="svg1041" width="100%" height="100%">
      <g transform="translate(20,20)" id="g1039">
        <g transform="rotate(-90,-5,-5)" id="g1029">
          <path d="M 0,0 H 4" style="stroke:#333333;stroke-width:1" id="polyline1027"/>
        </g>
        <path d="M 0,-12.5 A 12.5,12.5 0 0 1 12.5,0" stroke="#333333" stroke-width="0.5" stroke-linecap="round" fill="none" transform="rotate(20)" id="path1031"/>
        <path d="M 0,-12.5 A 12.5,12.5 0 0 1 12.5,0" stroke="#333333" stroke-width="0.5" stroke-linecap="round" fill="none" transform="rotate(43)" id="path1033"/>
        <path d="M 0,-12.5 A 12.5,12.5 0 0 0 -12.5,0" stroke="#333333" stroke-width="0.5" stroke-linecap="round" fill="none" transform="rotate(-20)" id="path1035"/>
        <path d="M 0,-12.5 A 12.5,12.5 0 0 0 -12.5,0" stroke="#333333" stroke-width="0.5" stroke-linecap="round" fill="none" transform="rotate(-43)" id="path1037"/>
      </g>
    </svg>
  </g>
  <g style="font-weight:bold;font-size:6.66667px;font-family:Roboto, sans-serif;letter-spacing:1px;fill:#333333" id="text1045" aria-label="6">
    <path id="path1245" style="font-weight:bold;font-size:6.66667px;font-family:Roboto, sans-serif;letter-spacing:1px;fill:#333333" d="m 5.8743503,187.21159 v 0.77474 h -0.091146 q -0.6380212,0.01 -1.0286464,0.33203 -0.3873699,0.32226 -0.465495,0.89518 0.3776044,-0.38411 0.9537765,-0.38411 0.6184899,0 0.9830734,0.4427 0.3645835,0.44271 0.3645835,1.16537 0,0.46224 -0.201823,0.83659 -0.1985678,0.37435 -0.5664065,0.58268 -0.3645835,0.20833 -0.8268233,0.20833 -0.7486983,0 -1.2109381,-0.52083 Q 3.325521,191.02344 3.325521,190.1543 v -0.33855 q 0,-0.77148 0.2897137,-1.36067 0.2929689,-0.59245 0.8365889,-0.91472 0.5468753,-0.32552 1.2662767,-0.32877 z m -0.9179692,2.37304 q -0.2278647,0 -0.4134116,0.12045 -0.185547,0.11718 -0.2734376,0.3125 v 0.28646 q 0,0.472 0.1855469,0.73893 0.185547,0.26367 0.5208336,0.26367 0.3027345,0 0.4882815,-0.23763 0.1888022,-0.24089 0.1888022,-0.62175 0,-0.38737 -0.1888022,-0.625 -0.1888022,-0.23763 -0.5078128,-0.23763 z"/>
  </g>
  <g transform="translate(38.5,187.9)" id="g1047"/>
  <g transform="translate(14.5,213)" id="g1051"/>
  <g transform="translate(2.2,201)" id="g1069">
    <svg version="1.1" id="svg1067" width="100%" height="100%">
      <g transform="translate(20,20)" id="g1065">
        <g transform="rotate(-90,-5,-5)" id="g1055">
          <path d="M 0,0 H 4" style="stroke:#333333;stroke-width:1" id="polyline1053"/>
        </g>
        <path d="M 0,-12.5 A 12.5,12.5 0 0 1 12.5,0" stroke="#333333" stroke-width="0.5" stroke-linecap="round" fill="none" transform="rotate(20)" id="path1057"/>
        <path d="M 0,-12.5 A 12.5,12.5 0 0 1 12.5,0" stroke="#333333" stroke-width="0.5" stroke-linecap="round" fill="none" transform="rotate(43)" id="path1059"/>
        <path d="M 0,-12.5 A 12.5,12.5 0 0 0 -12.5,0" stroke="#333333" stroke-width="0.5" stroke-linecap="round" fill="none" transform="rotate(-20)" id="path1061"/>
        <path d="M 0,-12.5 A 12.5,12.5 0 0 0 -12.5,0" stroke="#333333" stroke-width="0.5" stroke-linecap="round" fill="none" transform="rotate(-43)" id="path1063"/>
      </g>
    </svg>
  </g>
  <g style="font-weight:bold;font-size:6.66667px;font-family:Roboto, sans-serif;letter-spacing:1px;fill:#333333" id="text1071" aria-label="7">
    <path id="path1241" style="font-weight:bold;font-size:6.66667px;font-family:Roboto, sans-serif;letter-spacing:1px;fill:#333333" d="M 6.5449236,219.28776 4.7122404,223.5 h -0.992839 l 1.8359384,-3.97787 h -2.356772 v -0.76172 h 3.3463558 z"/>
  </g>
  <g transform="translate(38.5,219.4)" id="g1073"/>
  <g transform="translate(14.5,244.5)" id="g1077"/>
  <g transform="translate(2.2,232.5)" id="g1095">
    <svg version="1.1" id="svg1093" width="100%" height="100%">
      <g transform="translate(20,20)" id="g1091">
        <g transform="rotate(-90,-5,-5)" id="g1081">
          <path d="M 0,0 H 4" style="stroke:#333333;stroke-width:1" id="polyline1079"/>
        </g>
        <path d="M 0,-12.5 A 12.5,12.5 0 0 1 12.5,0" stroke="#333333" stroke-width="0.5" stroke-linecap="round" fill="none" transform="rotate(20)" id="path1083"/>
        <path d="M 0,-12.5 A 12.5,12.5 0 0 1 12.5,0" stroke="#333333" stroke-width="0.5" stroke-linecap="round" fill="none" transform="rotate(43)" id="path1085"/>
        <path d="M 0,-12.5 A 12.5,12.5 0 0 0 -12.5,0" stroke="#333333" stroke-width="0.5" stroke-linecap="round" fill="none" transform="rotate(-20)" id="path1087"/>
        <path d="M 0,-12.5 A 12.5,12.5 0 0 0 -12.5,0" stroke="#333333" stroke-width="0.5" stroke-linecap="round" fill="none" transform="rotate(-43)" id="path1089"/>
      </g>
    </svg>
  </g>
  <g style="font-weight:bold;font-size:6.66667px;font-family:Roboto, sans-serif;letter-spacing:1px;fill:#333333" id="text1097" aria-label="8">
    <path id="path1237" style="font-weight:bold;font-size:6.66667px;font-family:Roboto, sans-serif;letter-spacing:1px;fill:#333333" d="m 6.41146,251.52018 q 0,0.34505 -0.1725262,0.61198 -0.1725261,0.26693 -0.4752606,0.42643 0.3450522,0.16602 0.5468753,0.45899 0.201823,0.28971 0.201823,0.68359 0,0.63151 -0.4296877,0.99935 -0.4296877,0.36458 -1.1686204,0.36458 -0.7389326,0 -1.1718755,-0.36783 -0.432943,-0.36784 -0.432943,-0.9961 0,-0.39388 0.2018231,-0.68685 0.201823,-0.29297 0.54362,-0.45573 -0.3027345,-0.1595 -0.4752606,-0.42643 -0.169271,-0.26693 -0.169271,-0.61198 0,-0.60547 0.4036461,-0.96354 0.403646,-0.36133 1.0970057,-0.36133 0.6901045,0 1.0937505,0.35807 0.4069013,0.35482 0.4069013,0.9668 z m -0.8430994,2.11263 q 0,-0.30924 -0.1790365,-0.49479 -0.1790366,-0.18555 -0.4817711,-0.18555 -0.2994793,0 -0.4785159,0.18555 -0.1790365,0.18229 -0.1790365,0.49479 0,0.30274 0.1757813,0.48828 0.1757814,0.18555 0.4882815,0.18555 0.3059897,0 0.4785159,-0.17904 0.1757813,-0.17903 0.1757813,-0.49479 z m -0.097656,-2.06706 q 0,-0.27669 -0.1464844,-0.4427 -0.1464845,-0.16928 -0.4134117,-0.16928 -0.263672,0 -0.4101564,0.16276 -0.1464845,0.16277 -0.1464845,0.44922 0,0.28321 0.1464845,0.45573 0.1464844,0.17253 0.4134116,0.17253 0.2669272,0 0.4101565,-0.17253 0.1464844,-0.17252 0.1464844,-0.45573 z"/>
  </g>
  <g transform="translate(38.5,250.9)" id="g1099"/>
  <path d="m 10.5,270 h 24 c 2.77,0 5,2.23 5,5 v 30 c 0,2.77 -2.23,5 -5,5 h -24 c -2.77,0 -5,-2.23 -5,-5 v -30 c 0,-2.77 2.23,-5 5,-5 z" style="fill:#bbbbbb" id="rect1103"/>
  <g transform="translate(10.5,274)" id="g1105"/>
  <g style="font-weight:bold;font-size:8px;font-family:Roboto, sans-serif;letter-spacing:2px;fill:#333333" id="text1107" aria-label="OUT">
    <path id="path1229" style="font-weight:bold;font-size:8px;font-family:Roboto, sans-serif;letter-spacing:2px;fill:#333333" d="m 17.679687,303.28516 q 0,0.83984 -0.296875,1.47265 -0.296875,0.63281 -0.851562,0.97656 -0.550781,0.34375 -1.265625,0.34375 -0.707031,0 -1.261719,-0.33984 -0.554687,-0.33984 -0.859375,-0.96875 -0.304687,-0.63281 -0.308593,-1.45312 v -0.28125 q 0,-0.83985 0.300781,-1.47657 0.304687,-0.64062 0.855469,-0.98047 0.554687,-0.34375 1.265625,-0.34375 0.710937,0 1.261718,0.34375 0.554688,0.33985 0.855469,0.98047 0.304687,0.63672 0.304687,1.47266 z m -1.1875,-0.25782 q 0,-0.89453 -0.320312,-1.35937 -0.320312,-0.46485 -0.914062,-0.46485 -0.589844,0 -0.910157,0.46094 -0.320312,0.45703 -0.324218,1.34375 v 0.27735 q 0,0.87109 0.320312,1.35156 0.320313,0.48047 0.921875,0.48047 0.589844,0 0.90625,-0.46094 0.316406,-0.46484 0.320312,-1.35156 z"/>
    <path id="path1231" style="font-weight:bold;font-size:8px;font-family:Roboto, sans-serif;letter-spacing:2px;fill:#333333" d="m 24.84375,300.3125 v 3.74609 q 0,0.9336 -0.585938,1.47657 -0.582031,0.54296 -1.59375,0.54296 -0.996093,0 -1.582031,-0.52734 -0.585937,-0.52734 -0.597656,-1.44922 v -3.78906 h 1.171875 v 3.75391 q 0,0.55859 0.265625,0.8164 0.269531,0.25391 0.742187,0.25391 0.988282,0 1.003907,-1.03906 v -3.78516 z"/>
    <path id="path1233" style="font-weight:bold;font-size:8px;font-family:Roboto, sans-serif;letter-spacing:2px;fill:#333333" d="M 32.085937,301.26172 H 30.34375 V 306 h -1.171875 v -4.73828 h -1.71875 v -0.94922 h 4.632812 z"/>
  </g>
</svg>
