<?xml version="1.0" encoding="UTF-8" standalone="no"?>
<svg xmlns:dc="http://purl.org/dc/elements/1.1/" xmlns:cc="http://creativecommons.org/ns#" xmlns:rdf="http://www.w3.org/1999/02/22-rdf-syntax-ns#" xmlns:svg="http://www.w3.org/2000/svg" xmlns="http://www.w3.org/2000/svg" xmlns:sodipodi="http://sodipodi.sourceforge.net/DTD/sodipodi-0.dtd" xmlns:inkscape="http://www.inkscape.org/namespaces/inkscape" inkscape:version="1.0 (4035a4f, 2020-05-01)" sodipodi:docname="svg_render_Ranalyzer-pp.svg" id="svg150" viewBox="0 0 675.0 380.0" height="380.0" width="675.0" version="1.1">
  <metadata id="metadata154">
    <rdf:RDF>
      <cc:Work rdf:about="">
        <dc:format>image/svg+xml</dc:format>
        <dc:type rdf:resource="http://purl.org/dc/dcmitype/StillImage"/>
      </cc:Work>
    </rdf:RDF>
  </metadata>
  <sodipodi:namedview inkscape:current-layer="svg150" inkscape:window-maximized="0" inkscape:window-y="23" inkscape:window-x="0" inkscape:cy="190" inkscape:cx="337.5" inkscape:zoom="1.6237037" showgrid="false" id="namedview152" inkscape:window-height="480" inkscape:window-width="689" inkscape:pageshadow="2" inkscape:pageopacity="0" guidetolerance="10" gridtolerance="10" objecttolerance="10" borderopacity="1" bordercolor="#666666" pagecolor="#ffffff"/>
  
  
  <defs id="defs54">
    <symbol viewbox="75 40" id="dial-frequency-ranalyzer">
      <g id="g28" transform="translate(37.5 20)">
        <text id="text6" transform="rotate(-240) translate(21 0) rotate(240.0) translate(0 3)" text-anchor="middle" font-size="6pt">1</text>
        <polyline id="polyline8" transform="rotate(-210.0) translate(16 0)" fill="none" stroke-width="0.7" points="0,0 2.5,0"/>
        <polyline id="polyline10" transform="rotate(-180.0) translate(16 0)" fill="none" stroke-width="0.7" points="0,0 2.5,0"/>
        <polyline id="polyline12" transform="rotate(-150.0) translate(16 0)" fill="none" stroke-width="0.7" points="0,0 2.5,0"/>
        <polyline id="polyline14" transform="rotate(-120.0) translate(16 0)" fill="none" stroke-width="0.7" points="0,0 2.5,0"/>
        <polyline id="polyline16" transform="rotate(-90.0) translate(16 0)" fill="none" stroke-width="0.7" points="0,0 2.5,0"/>
        <polyline id="polyline18" transform="rotate(-60.0) translate(16 0)" fill="none" stroke-width="0.7" points="0,0 2.5,0"/>
        <polyline id="polyline20" transform="rotate(-30.0) translate(16 0)" fill="none" stroke-width="0.7" points="0,0 2.5,0"/>
        <polyline id="polyline22" transform="rotate(0.0) translate(16 0)" fill="none" stroke-width="0.7" points="0,0 2.5,0"/>
        <polyline id="polyline24" transform="rotate(30.0) translate(16 0)" fill="none" stroke-width="0.7" points="0,0 2.5,0"/>
        <text id="text26" transform="rotate(60) translate(21 0) rotate(-60.0) translate(0 3)" text-anchor="middle" font-size="6pt">NQ</text>
      </g>
    </symbol>
    <symbol viewbox="75 40" id="dial-delay-ranalyzer">
      <g id="g51" transform="translate(37.5 20)">
        <text id="text31" transform="rotate(-240) translate(16 0) rotate(240.0) translate(0 3)" text-anchor="middle" font-size="6pt">2</text>
        <polyline id="polyline33" transform="rotate(-206.66666666666669) translate(11 0)" fill="none" stroke-width="0.7" points="0,0 2.5,0"/>
        <polyline id="polyline35" transform="rotate(-173.33333333333334) translate(11 0)" fill="none" stroke-width="0.7" points="0,0 2.5,0"/>
        <text id="text37" transform="rotate(-140.0) translate(16 0) rotate(140.0) translate(0 3)" text-anchor="middle" font-size="6pt">8</text>
        <polyline id="polyline39" transform="rotate(-106.66666666666669) translate(11 0)" fill="none" stroke-width="0.7" points="0,0 2.5,0"/>
        <polyline id="polyline41" transform="rotate(-73.33333333333331) translate(11 0)" fill="none" stroke-width="0.7" points="0,0 2.5,0"/>
        <text id="text43" transform="rotate(-40.0) translate(16 0) rotate(40.0) translate(0 3)" text-anchor="middle" font-size="6pt">14</text>
        <polyline id="polyline45" transform="rotate(-6.666666666666657) translate(11 0)" fill="none" stroke-width="0.7" points="0,0 2.5,0"/>
        <polyline id="polyline47" transform="rotate(26.66666666666663) translate(11 0)" fill="none" stroke-width="0.7" points="0,0 2.5,0"/>
        <text id="text49" transform="rotate(60) translate(16 0) rotate(-60.0) translate(0 3)" text-anchor="middle" font-size="6pt">20</text>
      </g>
    </symbol>
  </defs>
  <path d="M 0,0 H 675 V 380 H 0 Z" style="fill:#000000" id="rect56"/>
  <g class="name" style="font-weight:bold;font-size:9.33333px;font-family:Comfortaa, sans-serif;letter-spacing:1.3;fill:#ffffff" id="text58" transform="translate(2.5 11)" aria-label="RANALYZER">
    <path id="path459" style="font-weight:bold;font-size:9.33333px;font-family:Comfortaa, sans-serif;letter-spacing:1.3;fill:#ffffff" d="m 5.6653331,-0.74666664 q 0.093333,0.14933333 0.093333,0.30799999 0,0.18666666 -0.1306667,0.31733332 Q 5.5066665,0 5.2919998,0 q -0.2706666,0 -0.42,-0.23333333 L 3.2666666,-2.8093332 h -0.168 -1.1946667 v 2.32399988 q 0,0.20533333 -0.14,0.34533332 Q 1.6333333,0 1.4186666,0 1.2133333,0 1.0733333,-0.14 q -0.14,-0.13999999 -0.14,-0.34533332 V -6.8039998 q 0,-0.2146666 0.14,-0.3453333 0.14,-0.14 0.3453333,-0.14 h 1.68 q 0.6906666,0 1.2319999,0.2893333 0.5506667,0.2893334 0.8493333,0.812 0.308,0.5226667 0.308,1.1946666 0,0.6626667 -0.336,1.176 -0.336,0.5133333 -0.9146666,0.7746666 z M 3.0986666,-3.7053332 q 0.6346666,0 1.0453333,-0.3546667 0.4106666,-0.3639999 0.4106666,-0.9333333 0,-0.6159999 -0.4106666,-1.0079999 -0.4106667,-0.392 -1.0453333,-0.392 H 1.9039999 v 2.6879999 z"/>
    <path id="path461" style="font-weight:bold;font-size:9.33333px;font-family:Comfortaa, sans-serif;letter-spacing:1.3;fill:#ffffff" d="m 13.59025,-0.68133331 q 0.04667,0.12133333 0.04667,0.20533333 0,0.19599999 -0.14,0.33599998 -0.14,0.14 -0.345334,0.14 -0.14,0 -0.270666,-0.07466666 -0.121334,-0.084 -0.177334,-0.224 L 12.180917,-1.6053333 H 8.8302501 l -0.5319999,1.30666664 q -0.065333,0.14 -0.1866667,0.224 Q 7.9902502,0 7.8502502,0 7.6449168,0 7.5049168,-0.14 7.3742502,-0.28933332 7.3742502,-0.48533332 q 0,-0.0933333 0.046667,-0.21466666 L 10.043583,-6.9626664 q 0.14,-0.3266667 0.457334,-0.3266667 0.336,0 0.457333,0.3266667 z m -1.736,-1.72666659 -1.334667,-3.3226666 -1.3626662,3.3226666 z"/>
    <path id="path463" style="font-weight:bold;font-size:9.33333px;font-family:Comfortaa, sans-serif;letter-spacing:1.3;fill:#ffffff" d="m 16.478084,0 q -0.205334,0 -0.345334,-0.13066666 -0.130666,-0.14 -0.130666,-0.35466666 V -6.8039998 q 0,-0.2146666 0.130666,-0.3453333 0.14,-0.14 0.345334,-0.14 0.102666,0 0.205333,0.056 0.102667,0.046667 0.168,0.1213333 l 4.069333,5.4133332 v -5.1053332 q 0,-0.2146666 0.14,-0.3453333 0.14,-0.14 0.345333,-0.14 0.205334,0 0.336,0.14 0.14,0.1306667 0.14,0.3453333 v 6.31866648 q 0,0.21466666 -0.14,0.35466666 Q 21.611417,0 21.406083,0 21.303417,0 21.191417,-0.03733333 21.08875,-0.084 21.03275,-0.16799999 L 16.963417,-5.5813331 v 5.09599978 q 0,0.20533333 -0.14,0.34533332 Q 16.69275,0 16.478084,0 Z"/>
    <path id="path465" style="font-weight:bold;font-size:9.33333px;font-family:Comfortaa, sans-serif;letter-spacing:1.3;fill:#ffffff" d="m 30.500146,-0.68133331 q 0.04667,0.12133333 0.04667,0.20533333 0,0.19599999 -0.14,0.33599998 -0.14,0.14 -0.345334,0.14 -0.14,0 -0.270666,-0.07466666 -0.121334,-0.084 -0.177334,-0.224 L 29.090813,-1.6053333 h -3.350667 l -0.532,1.30666664 q -0.06533,0.14 -0.186667,0.224 Q 24.900146,0 24.760146,0 q -0.205333,0 -0.345333,-0.14 -0.130667,-0.14933332 -0.130667,-0.34533332 0,-0.0933333 0.04667,-0.21466666 l 2.622666,-6.26266642 q 0.14,-0.3266667 0.457334,-0.3266667 0.336,0 0.457333,0.3266667 z m -1.736,-1.72666659 -1.334667,-3.3226666 -1.362666,3.3226666 z"/>
    <path id="path467" style="font-weight:bold;font-size:9.33333px;font-family:Comfortaa, sans-serif;letter-spacing:1.3;fill:#ffffff" d="M 33.387979,0 Q 33.182645,0 33.042645,-0.14 32.911979,-0.27999999 32.911979,-0.48533332 V -6.8039998 q 0,-0.2053333 0.14,-0.3453333 0.14,-0.14 0.336,-0.14 0.205333,0 0.345333,0.14 0.14,0.14 0.14,0.3453333 v 5.83333317 h 3.378666 q 0.205334,0 0.345334,0.13999999 0.14,0.14 0.14,0.34533332 0,0.20533333 -0.14,0.34533332 -0.14,0.14 -0.345334,0.14 z"/>
    <path id="path469" style="font-weight:bold;font-size:9.33333px;font-family:Comfortaa, sans-serif;letter-spacing:1.3;fill:#ffffff" d="m 43.850687,-7.2893331 q 0.177334,0 0.289334,0.1306667 0.121333,0.1306666 0.121333,0.3173333 0,0.1586667 -0.09333,0.308 l -2.510667,3.8733332 v 2.17466658 q 0,0.20533333 -0.14,0.34533332 -0.14,0.14 -0.345333,0.14 -0.196,0 -0.336,-0.14 -0.14,-0.13999999 -0.14,-0.34533332 V -2.6599999 l -2.492,-3.8733332 q -0.102667,-0.1586667 -0.102667,-0.2986667 0,-0.196 0.14,-0.3266666 0.149333,-0.1306667 0.345333,-0.1306667 0.149334,0 0.242667,0.065333 0.09333,0.065333 0.186667,0.2053334 l 2.184,3.4626665 2.221333,-3.4999999 q 0.149333,-0.2333333 0.429333,-0.2333333 z"/>
    <path id="path471" style="font-weight:bold;font-size:9.33333px;font-family:Comfortaa, sans-serif;letter-spacing:1.3;fill:#ffffff" d="m 46.596625,0 q -0.214666,0 -0.345333,-0.14933333 -0.130667,-0.14933333 -0.130667,-0.34533332 0,-0.16799999 0.09333,-0.28933332 l 4.564,-5.64666643 h -4.088 q -0.224,0 -0.345334,-0.112 -0.121333,-0.112 -0.112,-0.2986667 -0.0093,-0.196 0.121334,-0.3173333 0.14,-0.1306667 0.354666,-0.1306667 h 4.816 q 0.224,0 0.354667,0.1493333 0.14,0.14 0.14,0.336 0,0.1493334 -0.102667,0.28 l -4.582666,5.66533316 h 4.190666 q 0.205334,0 0.336,0.13066666 0.14,0.12133333 0.14,0.28933333 0,0.20533332 -0.130666,0.32666665 Q 51.739292,0 51.524625,0 Z"/>
    <path id="path473" style="font-weight:bold;font-size:9.33333px;font-family:Comfortaa, sans-serif;letter-spacing:1.3;fill:#ffffff" d="m 55.25304,0 q -0.205333,0 -0.345333,-0.14 -0.14,-0.13999999 -0.14,-0.34533332 V -6.8039998 q 0,-0.2146666 0.14,-0.3453333 0.14,-0.14 0.345333,-0.14 h 4.218667 q 0.214666,0 0.345333,0.1306667 0.130667,0.1213333 0.130667,0.3266666 0,0.196 -0.130667,0.3173334 -0.130667,0.1213333 -0.345333,0.1213333 h -3.733334 v 2.2679999 h 2.678667 q 0.205333,0 0.336,0.1306667 0.14,0.1213333 0.14,0.3173333 0,0.196 -0.14,0.3266666 -0.130667,0.1213334 -0.336,0.1213334 h -2.678667 v 2.33333323 h 3.733334 q 0.214666,0 0.345333,0.12133333 0.130667,0.12133333 0.130667,0.31733332 0,0.20533333 -0.130667,0.33599999 Q 59.686373,0 59.471707,0 Z"/>
    <path id="path475" style="font-weight:bold;font-size:9.33333px;font-family:Comfortaa, sans-serif;letter-spacing:1.3;fill:#ffffff" d="m 67.325749,-0.74666664 q 0.09333,0.14933333 0.09333,0.30799999 0,0.18666666 -0.130667,0.31733332 Q 67.167082,0 66.952415,0 q -0.270666,0 -0.42,-0.23333333 L 64.927082,-2.8093332 h -0.168 -1.194666 v 2.32399988 q 0,0.20533333 -0.14,0.34533332 Q 63.293749,0 63.079082,0 q -0.205333,0 -0.345333,-0.14 -0.14,-0.13999999 -0.14,-0.34533332 V -6.8039998 q 0,-0.2146666 0.14,-0.3453333 0.14,-0.14 0.345333,-0.14 h 1.68 q 0.690667,0 1.232,0.2893333 0.550667,0.2893334 0.849333,0.812 0.308,0.5226667 0.308,1.1946666 0,0.6626667 -0.336,1.176 -0.336,0.5133333 -0.914666,0.7746666 z M 64.759082,-3.7053332 q 0.634667,0 1.045334,-0.3546667 0.410666,-0.3639999 0.410666,-0.9333333 0,-0.6159999 -0.410666,-1.0079999 -0.410667,-0.392 -1.045334,-0.392 h -1.194666 v 2.6879999 z"/>
  </g>
  <g class="brand" style="font-weight:bold;font-size:9.33333px;font-family:Comfortaa, sans-serif;letter-spacing:2;fill:#ffffff" id="text60" transform="translate(2.5 375)" aria-label="BOGAUDIO">
    <path id="path442" style="font-weight:bold;font-size:9.33333px;font-family:Comfortaa, sans-serif;letter-spacing:2;fill:#ffffff" d="m 1.4186666,0 q -0.2053333,0 -0.3453333,-0.14 -0.14,-0.13999999 -0.14,-0.34533332 V -6.8039998 q 0,-0.2146666 0.14,-0.3453333 0.14,-0.14 0.3453333,-0.14 h 2.2306666 q 0.6253333,0 1.1106666,0.252 0.4853334,0.2426667 0.756,0.6906666 0.28,0.4386667 0.28,0.9986667 0,0.4573333 -0.252,0.8213333 -0.2426666,0.364 -0.672,0.588 0.6346667,0.1493333 0.9986667,0.5973333 0.364,0.448 0.364,1.1386666 0,0.6346667 -0.308,1.1386666 Q 5.6279998,-0.55999998 5.0773332,-0.27999999 4.5359998,0 3.8453332,0 Z m 2.2306666,-4.2933332 q 0.5506667,0 0.8773333,-0.2706666 0.336,-0.2706667 0.336,-0.784 0,-0.5133333 -0.336,-0.7746667 Q 4.1999999,-6.3933331 3.6493332,-6.3933331 H 1.9039999 v 2.0999999 z m 0.196,3.39733323 q 0.6533333,0 1.0546666,-0.33600003 0.4013334,-0.3453333 0.4013334,-0.9706666 0,-0.5786666 -0.4013334,-0.8866666 -0.392,-0.308 -1.0546666,-0.308 H 1.9039999 v 2.50133323 z"/>
    <path id="path444" style="font-weight:bold;font-size:9.33333px;font-family:Comfortaa, sans-serif;letter-spacing:2;fill:#ffffff" d="m 12.865167,0.09333333 q -1.082667,0 -1.932,-0.47599998 -0.84,-0.47599999 -1.306667,-1.32533325 -0.4666667,-0.8586667 -0.4666667,-1.9413333 0,-1.0826666 0.4666667,-1.9319999 0.466667,-0.8493333 1.306667,-1.3253333 0.849333,-0.476 1.932,-0.476 1.073333,0 1.913333,0.476 0.849333,0.476 1.316,1.3253333 0.476,0.8493333 0.476,1.9319999 0,1.0826666 -0.476,1.9413333 -0.466667,0.84933326 -1.306667,1.32533325 -0.84,0.47599998 -1.922666,0.47599998 z m 0,-0.8773333 q 0.793333,0 1.427999,-0.37333333 0.634667,-0.3826666 0.989334,-1.036 0.354666,-0.6533333 0.354666,-1.4559999 0,-0.8026666 -0.354666,-1.456 -0.354667,-0.6533333 -0.989334,-1.0266666 -0.625333,-0.3733333 -1.427999,-0.3733333 -0.802667,0 -1.437334,0.3733333 -0.625333,0.3733333 -0.98,1.0266666 -0.354666,0.6533334 -0.354666,1.456 0,0.8026666 0.354666,1.4559999 0.354667,0.6533334 0.989334,1.036 0.634666,0.37333333 1.428,0.37333333 z"/>
    <path id="path446" style="font-weight:bold;font-size:9.33333px;font-family:Comfortaa, sans-serif;letter-spacing:2;fill:#ffffff" d="m 25.144375,-3.7799999 q 0.205333,0 0.336,0.14 0.14,0.1306667 0.14,0.3453333 V -1.064 q 0,0.22400003 -0.149334,0.34533336 -0.98,0.81199997 -2.286666,0.81199997 -0.998667,0 -1.829333,-0.49466665 -0.821334,-0.49466665 -1.297334,-1.35333328 -0.476,-0.8586666 -0.476,-1.8946666 0,-1.0266666 0.476,-1.8759999 0.476,-0.8586667 1.297334,-1.3533333 0.830666,-0.504 1.829333,-0.504 0.709333,0 1.222666,0.1866666 0.522667,0.1866667 1.054667,0.616 0.112,0.084 0.149333,0.1773334 0.03733,0.084 0.03733,0.2053333 0,0.1866666 -0.14,0.308 -0.130667,0.1213333 -0.317334,0.1213333 -0.168,0 -0.317333,-0.1213333 -0.382667,-0.3266667 -0.746667,-0.4666667 -0.363999,-0.1493333 -0.942666,-0.1493333 -0.728,0 -1.344,0.3826666 -0.606667,0.3826667 -0.970667,1.0453333 -0.354666,0.6533334 -0.354666,1.428 0,0.784 0.354666,1.4373333 0.364,0.6533333 0.970667,1.0359999 0.616,0.38266669 1.344,0.38266669 0.784,0 1.502666,-0.46666669 v -1.6613332 h -1.287999 q -0.214667,0 -0.354667,-0.1213334 -0.130667,-0.1213333 -0.130667,-0.308 0,-0.1866666 0.130667,-0.3079999 0.14,-0.1213334 0.354667,-0.1213334 z"/>
    <path id="path448" style="font-weight:bold;font-size:9.33333px;font-family:Comfortaa, sans-serif;letter-spacing:2;fill:#ffffff" d="m 34.623582,-0.68133331 q 0.04667,0.12133333 0.04667,0.20533333 0,0.19599999 -0.14,0.33599998 -0.14,0.14 -0.345334,0.14 -0.14,0 -0.270666,-0.07466666 -0.121334,-0.084 -0.177334,-0.224 L 33.214249,-1.6053333 h -3.350667 l -0.532,1.30666664 q -0.06533,0.14 -0.186667,0.224 Q 29.023582,0 28.883582,0 q -0.205333,0 -0.345333,-0.14 -0.130667,-0.14933332 -0.130667,-0.34533332 0,-0.0933333 0.04667,-0.21466666 l 2.622666,-6.26266642 q 0.14,-0.3266667 0.457334,-0.3266667 0.336,0 0.457333,0.3266667 z m -1.736,-1.72666659 -1.334667,-3.3226666 -1.362666,3.3226666 z"/>
    <path id="path450" style="font-weight:bold;font-size:9.33333px;font-family:Comfortaa, sans-serif;letter-spacing:2;fill:#ffffff" d="m 40.513978,0.14933333 q -0.886667,0 -1.586667,-0.32666666 -0.690666,-0.33599999 -1.082666,-0.92399997 -0.382667,-0.588 -0.382667,-1.344 v -4.3586665 q 0,-0.2146666 0.14,-0.3453333 0.14,-0.14 0.345333,-0.14 0.214667,0 0.345334,0.14 0.139999,0.1306667 0.139999,0.3453333 v 4.3586665 q 0,0.4946667 0.261334,0.8866667 0.270666,0.392 0.737333,0.61599997 0.476,0.21466665 1.082667,0.21466665 0.578666,0 1.036,-0.21466665 0.457333,-0.22399997 0.709333,-0.61599997 0.261333,-0.392 0.261333,-0.8866667 v -4.3586665 q 0,-0.2146666 0.14,-0.3453333 0.14,-0.14 0.345334,-0.14 0.205333,0 0.336,0.14 0.14,0.1306667 0.14,0.3453333 v 4.3586665 q 0,0.7466667 -0.382667,1.344 -0.373333,0.58799998 -1.054667,0.92399997 -0.672,0.32666666 -1.530666,0.32666666 z"/>
    <path id="path452" style="font-weight:bold;font-size:9.33333px;font-family:Comfortaa, sans-serif;letter-spacing:2;fill:#ffffff" d="m 47.840542,0 q -0.205334,0 -0.345334,-0.14 -0.14,-0.13999999 -0.14,-0.34533332 V -6.8039998 q 0,-0.2146666 0.14,-0.3453333 0.14,-0.14 0.345334,-0.14 h 1.689333 q 1.054667,0 1.876,0.4666667 0.821333,0.4666666 1.278666,1.2973333 0.457334,0.8213333 0.457334,1.8759999 0,1.0546666 -0.457334,1.8853333 -0.457333,0.8306666 -1.278666,1.29733325 Q 50.584542,0 49.529875,0 Z m 1.689333,-0.85866664 q 0.774667,0 1.381333,-0.35466666 0.616,-0.3546666 0.952,-0.9893333 0.345333,-0.644 0.345333,-1.4466666 0,-0.8026666 -0.345333,-1.4373333 -0.336,-0.6346666 -0.952,-0.9893333 -0.606666,-0.3546666 -1.381333,-0.3546666 h -1.204 v 5.57199976 z"/>
    <path id="path454" style="font-weight:bold;font-size:9.33333px;font-family:Comfortaa, sans-serif;letter-spacing:2;fill:#ffffff" d="m 57.150436,0 q -0.205333,0 -0.345333,-0.14 -0.14,-0.13999999 -0.14,-0.34533332 V -6.8039998 q 0,-0.2146666 0.14,-0.3453333 0.14,-0.14 0.345333,-0.14 0.214667,0 0.345334,0.14 0.139999,0.1306667 0.139999,0.3453333 v 6.31866648 q 0,0.20533333 -0.139999,0.34533332 Q 57.365103,0 57.150436,0 Z"/>
    <path id="path456" style="font-weight:bold;font-size:9.33333px;font-family:Comfortaa, sans-serif;letter-spacing:2;fill:#ffffff" d="m 64.878186,0.09333333 q -1.082667,0 -1.932,-0.47599998 -0.84,-0.47599999 -1.306666,-1.32533325 -0.466667,-0.8586667 -0.466667,-1.9413333 0,-1.0826666 0.466667,-1.9319999 0.466666,-0.8493333 1.306666,-1.3253333 0.849333,-0.476 1.932,-0.476 1.073333,0 1.913333,0.476 0.849334,0.476 1.316,1.3253333 0.476,0.8493333 0.476,1.9319999 0,1.0826666 -0.476,1.9413333 -0.466666,0.84933326 -1.306666,1.32533325 -0.84,0.47599998 -1.922667,0.47599998 z m 0,-0.8773333 q 0.793333,0 1.428,-0.37333333 0.634667,-0.3826666 0.989333,-1.036 0.354667,-0.6533333 0.354667,-1.4559999 0,-0.8026666 -0.354667,-1.456 -0.354666,-0.6533333 -0.989333,-1.0266666 -0.625333,-0.3733333 -1.428,-0.3733333 -0.802667,0 -1.437333,0.3733333 -0.625334,0.3733333 -0.98,1.0266666 -0.354667,0.6533334 -0.354667,1.456 0,0.8026666 0.354667,1.4559999 0.354666,0.6533334 0.989333,1.036 0.634667,0.37333333 1.428,0.37333333 z"/>
  </g>
  <g style="font-weight:bold;font-size:9.33333px;font-family:Roboto, sans-serif;letter-spacing:2px;text-anchor:middle;fill:#ffffff" id="text62" aria-label="FREQ1">
    <path id="path431" style="font-weight:bold;font-size:9.33333px;font-family:Roboto, sans-serif;letter-spacing:2px;text-anchor:middle;fill:#ffffff" d="M 24.011722,27.288412 H 21.386723 V 30 h -1.367187 v -6.635414 h 4.320311 v 1.107421 h -2.953124 v 1.713541 h 2.624999 z"/>
    <path id="path433" style="font-weight:bold;font-size:9.33333px;font-family:Roboto, sans-serif;letter-spacing:2px;text-anchor:middle;fill:#ffffff" d="M 29.598309,27.570964 H 28.509117 V 30 H 27.14193 v -6.635414 h 2.465494 q 1.175781,0 1.813801,0.524088 0.638021,0.524088 0.638021,1.481119 0,0.679036 -0.296224,1.134765 -0.291666,0.451172 -0.888671,0.720052 l 1.435546,2.711588 V 30 h -1.467448 z m -1.089192,-1.107421 h 1.102864 q 0.514974,0 0.797526,-0.259766 0.282552,-0.264322 0.282552,-0.724609 0,-0.469401 -0.26888,-0.738281 -0.264323,-0.26888 -0.815755,-0.26888 h -1.098307 z"/>
    <path id="path435" style="font-weight:bold;font-size:9.33333px;font-family:Roboto, sans-serif;letter-spacing:2px;text-anchor:middle;fill:#ffffff" d="m 39.095052,27.12435 h -2.624999 v 1.777343 h 3.080728 V 30 h -4.447915 v -6.635414 h 4.438801 v 1.107421 h -3.071614 v 1.58138 h 2.624999 z"/>
    <path id="path437" style="font-weight:bold;font-size:9.33333px;font-family:Roboto, sans-serif;letter-spacing:2px;text-anchor:middle;fill:#ffffff" d="m 47.794268,26.832683 q 0,0.929688 -0.300781,1.617838 -0.300781,0.683594 -0.833984,1.098307 l 1.102864,0.865885 -0.870442,0.770182 -1.41276,-1.134765 q -0.241536,0.04102 -0.501302,0.04102 -0.824869,0 -1.472005,-0.396484 -0.647135,-0.396485 -1.002603,-1.130208 -0.355469,-0.738281 -0.360026,-1.695312 v -0.328125 q 0,-0.979818 0.350911,-1.722656 0.355469,-0.747395 0.998047,-1.14388 0.647135,-0.401041 1.476562,-0.401041 0.829426,0 1.472004,0.401041 0.647136,0.396485 0.998047,1.14388 0.355468,0.742838 0.355468,1.718099 z m -1.385416,-0.300781 q 0,-1.043619 -0.373697,-1.585937 -0.373698,-0.542317 -1.066406,-0.542317 -0.688151,0 -1.061849,0.53776 -0.373698,0.533203 -0.378255,1.567708 v 0.323567 q 0,1.016276 0.373698,1.576823 0.373698,0.560546 1.07552,0.560546 0.688151,0 1.057292,-0.53776 0.36914,-0.542317 0.373697,-1.576822 z"/>
    <path id="path439" style="font-weight:bold;font-size:9.33333px;font-family:Roboto, sans-serif;letter-spacing:2px;text-anchor:middle;fill:#ffffff" d="M 53.863927,30 H 52.54687 v -5.076821 l -1.572265,0.48763 v -1.070963 l 2.748046,-0.984375 h 0.141276 z"/>
  </g>
  <g transform="translate(24.5,42)" id="g64"/>
  <g transform="translate(0,35)" id="use66">
    <g transform="translate(37.5,20)" id="g216">
      <g style="font-weight:bold;font-size:8px;font-family:Roboto, sans-serif;text-anchor:middle;fill:#ffffff" id="text194" transform="translate(-10.5,21.186533)" aria-label="1">
        <path id="path414" style="font-weight:bold;font-size:8px;font-family:Roboto, sans-serif;text-anchor:middle;fill:#ffffff" d="M 0.83203125,0 H -0.296875 v -4.3515625 l -1.3476562,0.4179687 v -0.9179687 l 2.3554687,-0.84375 h 0.12109375 z"/>
      </g>
      <path d="M 0,0 H 2.5" style="fill:none;stroke:#ffffff;stroke-width:0.7" transform="rotate(150,-8,2.1435935)" id="polyline196"/>
      <path d="M 0,0 H 2.5" style="fill:none;stroke:#ffffff;stroke-width:0.7" transform="rotate(180,-8,0)" id="polyline198"/>
      <path d="M 0,0 H 2.5" style="fill:none;stroke:#ffffff;stroke-width:0.7" transform="rotate(-150,-8,-2.1435935)" id="polyline200"/>
      <path d="M 0,0 H 2.5" style="fill:none;stroke:#ffffff;stroke-width:0.7" transform="rotate(-120,-8,-4.6188022)" id="polyline202"/>
      <path d="M 0,0 H 2.5" style="fill:none;stroke:#ffffff;stroke-width:0.7" transform="rotate(-90,-8,-8)" id="polyline204"/>
      <path d="M 0,0 H 2.5" style="fill:none;stroke:#ffffff;stroke-width:0.7" transform="rotate(-60,-8,-13.856406)" id="polyline206"/>
      <path d="M 0,0 H 2.5" style="fill:none;stroke:#ffffff;stroke-width:0.7" transform="rotate(-30,-8,-29.856406)" id="polyline208"/>
      <path d="M 0,0 H 2.5" style="fill:none;stroke:#ffffff;stroke-width:0.7" transform="translate(16)" id="polyline210"/>
      <path d="M 0,0 H 2.5" style="fill:none;stroke:#ffffff;stroke-width:0.7" transform="rotate(30,-8,29.856406)" id="polyline212"/>
      <g style="font-weight:bold;font-size:8px;font-family:Roboto, sans-serif;text-anchor:middle;fill:#ffffff" id="text214" transform="translate(10.5,21.186533)" aria-label="NQ">
        <path id="path426" style="font-weight:bold;font-size:8px;font-family:Roboto, sans-serif;text-anchor:middle;fill:#ffffff" d="m -0.4609375,0 h -1.171875 l -2.28125,-3.7421875 V 0 h -1.171875 v -5.6875 h 1.171875 l 2.2851563,3.75 v -3.75 h 1.1679687 z"/>
        <path id="path428" style="font-weight:bold;font-size:8px;font-family:Roboto, sans-serif;text-anchor:middle;fill:#ffffff" d="m 5.234375,-2.7148438 q 0,0.7968751 -0.2578125,1.3867188 Q 4.71875,-0.7421875 4.2617187,-0.38671875 L 5.2070312,0.35546875 4.4609375,1.015625 3.25,0.04296875 Q 3.0429688,0.078125 2.8203125,0.078125 q -0.7070312,0 -1.2617188,-0.33984375 Q 1.0039062,-0.6015625 0.69921875,-1.2304687 0.39453125,-1.8632812 0.390625,-2.6835938 v -0.28125 q 0,-0.8398437 0.30078125,-1.4765624 0.3046875,-0.640625 0.85546875,-0.9804688 0.5546875,-0.34375 1.265625,-0.34375 0.7109375,0 1.2617187,0.34375 0.5546875,0.3398438 0.8554688,0.9804688 0.3046875,0.6367187 0.3046875,1.4726562 z m -1.1875,-0.2578125 q 0,-0.8945312 -0.3203125,-1.3593749 Q 3.40625,-4.796875 2.8125,-4.796875 q -0.5898437,0 -0.9101563,0.4609375 -0.3203125,0.4570312 -0.3242187,1.34375 v 0.2773437 q 0,0.8710938 0.3203125,1.3515626 0.3203125,0.4804687 0.921875,0.4804687 0.5898438,0 0.90625,-0.4609375 0.3164062,-0.4648437 0.3203125,-1.3515625 z"/>
      </g>
    </g>
  </g>
  <g style="font-weight:bold;font-size:9.33333px;font-family:Roboto, sans-serif;letter-spacing:2px;text-anchor:middle;fill:#ffffff" id="text70" aria-label="FREQ2">
    <path id="path403" style="font-weight:bold;font-size:9.33333px;font-family:Roboto, sans-serif;letter-spacing:2px;text-anchor:middle;fill:#ffffff" d="M 24.011722,88.788412 H 21.386723 V 91.5 h -1.367187 v -6.635414 h 4.320311 v 1.107421 h -2.953124 v 1.713541 h 2.624999 z"/>
    <path id="path405" style="font-weight:bold;font-size:9.33333px;font-family:Roboto, sans-serif;letter-spacing:2px;text-anchor:middle;fill:#ffffff" d="M 29.598309,89.070964 H 28.509117 V 91.5 H 27.14193 v -6.635414 h 2.465494 q 1.175781,0 1.813801,0.524088 0.638021,0.524088 0.638021,1.481119 0,0.679036 -0.296224,1.134765 -0.291666,0.451172 -0.888671,0.720052 l 1.435546,2.711588 V 91.5 h -1.467448 z m -1.089192,-1.107421 h 1.102864 q 0.514974,0 0.797526,-0.259766 0.282552,-0.264322 0.282552,-0.724609 0,-0.469401 -0.26888,-0.738281 -0.264323,-0.26888 -0.815755,-0.26888 h -1.098307 z"/>
    <path id="path407" style="font-weight:bold;font-size:9.33333px;font-family:Roboto, sans-serif;letter-spacing:2px;text-anchor:middle;fill:#ffffff" d="m 39.095052,88.62435 h -2.624999 v 1.777343 h 3.080728 V 91.5 h -4.447915 v -6.635414 h 4.438801 v 1.107421 h -3.071614 v 1.58138 h 2.624999 z"/>
    <path id="path409" style="font-weight:bold;font-size:9.33333px;font-family:Roboto, sans-serif;letter-spacing:2px;text-anchor:middle;fill:#ffffff" d="m 47.794268,88.332683 q 0,0.929688 -0.300781,1.617838 -0.300781,0.683594 -0.833984,1.098307 l 1.102864,0.865885 -0.870442,0.770182 -1.41276,-1.134765 q -0.241536,0.04102 -0.501302,0.04102 -0.824869,0 -1.472005,-0.396484 -0.647135,-0.396485 -1.002603,-1.130208 -0.355469,-0.738281 -0.360026,-1.695312 v -0.328125 q 0,-0.979818 0.350911,-1.722656 0.355469,-0.747395 0.998047,-1.14388 0.647135,-0.401041 1.476562,-0.401041 0.829426,0 1.472004,0.401041 0.647136,0.396485 0.998047,1.14388 0.355468,0.742838 0.355468,1.718099 z m -1.385416,-0.300781 q 0,-1.043619 -0.373697,-1.585937 -0.373698,-0.542317 -1.066406,-0.542317 -0.688151,0 -1.061849,0.53776 -0.373698,0.533203 -0.378255,1.567708 v 0.323567 q 0,1.016276 0.373698,1.576823 0.373698,0.560546 1.07552,0.560546 0.688151,0 1.057292,-0.53776 0.36914,-0.542317 0.373697,-1.576822 z"/>
    <path id="path411" style="font-weight:bold;font-size:9.33333px;font-family:Roboto, sans-serif;letter-spacing:2px;text-anchor:middle;fill:#ffffff" d="m 55.212885,91.5 h -4.548176 v -0.902343 l 2.146484,-2.28776 q 0.442057,-0.483073 0.651692,-0.843099 0.214193,-0.360026 0.214193,-0.683593 0,-0.442057 -0.223307,-0.692708 -0.223307,-0.255209 -0.638021,-0.255209 -0.446614,0 -0.70638,0.309896 -0.255208,0.305339 -0.255208,0.80664 h -1.321614 q 0,-0.606119 0.287109,-1.107421 0.291667,-0.501302 0.820312,-0.783854 0.528646,-0.287109 1.198568,-0.287109 1.02539,0 1.590494,0.492187 0.569661,0.492187 0.569661,1.389974 0,0.492187 -0.255208,1.002603 -0.255208,0.510417 -0.875,1.189453 l -1.508463,1.590494 h 2.852864 z"/>
  </g>
  <g transform="translate(24.5,103.5)" id="g72"/>
  <g transform="translate(0,96.5)" id="use74">
    <g transform="translate(37.5,20)" id="g242">
      <g style="font-weight:bold;font-size:8px;font-family:Roboto, sans-serif;text-anchor:middle;fill:#ffffff" id="text220" transform="translate(-10.5,21.186533)" aria-label="1">
        <path id="path386" style="font-weight:bold;font-size:8px;font-family:Roboto, sans-serif;text-anchor:middle;fill:#ffffff" d="M 0.83203125,0 H -0.296875 v -4.3515625 l -1.3476562,0.4179687 v -0.9179687 l 2.3554687,-0.84375 h 0.12109375 z"/>
      </g>
      <path d="M 0,0 H 2.5" style="fill:none;stroke:#ffffff;stroke-width:0.7" transform="rotate(150,-8,2.1435935)" id="polyline222"/>
      <path d="M 0,0 H 2.5" style="fill:none;stroke:#ffffff;stroke-width:0.7" transform="rotate(180,-8,0)" id="polyline224"/>
      <path d="M 0,0 H 2.5" style="fill:none;stroke:#ffffff;stroke-width:0.7" transform="rotate(-150,-8,-2.1435935)" id="polyline226"/>
      <path d="M 0,0 H 2.5" style="fill:none;stroke:#ffffff;stroke-width:0.7" transform="rotate(-120,-8,-4.6188022)" id="polyline228"/>
      <path d="M 0,0 H 2.5" style="fill:none;stroke:#ffffff;stroke-width:0.7" transform="rotate(-90,-8,-8)" id="polyline230"/>
      <path d="M 0,0 H 2.5" style="fill:none;stroke:#ffffff;stroke-width:0.7" transform="rotate(-60,-8,-13.856406)" id="polyline232"/>
      <path d="M 0,0 H 2.5" style="fill:none;stroke:#ffffff;stroke-width:0.7" transform="rotate(-30,-8,-29.856406)" id="polyline234"/>
      <path d="M 0,0 H 2.5" style="fill:none;stroke:#ffffff;stroke-width:0.7" transform="translate(16)" id="polyline236"/>
      <path d="M 0,0 H 2.5" style="fill:none;stroke:#ffffff;stroke-width:0.7" transform="rotate(30,-8,29.856406)" id="polyline238"/>
      <g style="font-weight:bold;font-size:8px;font-family:Roboto, sans-serif;text-anchor:middle;fill:#ffffff" id="text240" transform="translate(10.5,21.186533)" aria-label="NQ">
        <path id="path398" style="font-weight:bold;font-size:8px;font-family:Roboto, sans-serif;text-anchor:middle;fill:#ffffff" d="m -0.4609375,0 h -1.171875 l -2.28125,-3.7421875 V 0 h -1.171875 v -5.6875 h 1.171875 l 2.2851563,3.75 v -3.75 h 1.1679687 z"/>
        <path id="path400" style="font-weight:bold;font-size:8px;font-family:Roboto, sans-serif;text-anchor:middle;fill:#ffffff" d="m 5.234375,-2.7148438 q 0,0.7968751 -0.2578125,1.3867188 Q 4.71875,-0.7421875 4.2617187,-0.38671875 L 5.2070312,0.35546875 4.4609375,1.015625 3.25,0.04296875 Q 3.0429688,0.078125 2.8203125,0.078125 q -0.7070312,0 -1.2617188,-0.33984375 Q 1.0039062,-0.6015625 0.69921875,-1.2304687 0.39453125,-1.8632812 0.390625,-2.6835938 v -0.28125 q 0,-0.8398437 0.30078125,-1.4765624 0.3046875,-0.640625 0.85546875,-0.9804688 0.5546875,-0.34375 1.265625,-0.34375 0.7109375,0 1.2617187,0.34375 0.5546875,0.3398438 0.8554688,0.9804688 0.3046875,0.6367187 0.3046875,1.4726562 z m -1.1875,-0.2578125 q 0,-0.8945312 -0.3203125,-1.3593749 Q 3.40625,-4.796875 2.8125,-4.796875 q -0.5898437,0 -0.9101563,0.4609375 -0.3203125,0.4570312 -0.3242187,1.34375 v 0.2773437 q 0,0.8710938 0.3203125,1.3515626 0.3203125,0.4804687 0.921875,0.4804687 0.5898438,0 0.90625,-0.4609375 0.3164062,-0.4648437 0.3203125,-1.3515625 z"/>
      </g>
    </g>
  </g>
  <path class="input-background" d="m 11.5,147 h 52 c 2.77,0 5,2.23 5,5 v 22 c 0,2.77 -2.23,5 -5,5 h -52 c -2.77,0 -5,-2.23 -5,-5 v -22 c 0,-2.77 2.23,-5 5,-5 z" style="fill:#aaaaaa" id="rect78"/>
  <g transform="translate(18,154)" id="g80"/>
  <g transform="translate(40.5,151)" id="g82"/>
  <g class="input-label" style="font-weight:bold;font-size:6.66667px;font-family:Roboto, sans-serif;letter-spacing:2px;text-anchor:middle;fill:#222222" id="text84" transform="rotate(-90)" aria-label="TRIG">
    <path id="path376" style="font-weight:bold;font-size:6.66667px;font-family:Roboto, sans-serif;letter-spacing:2px;text-anchor:middle;fill:#222222" d="m -169.44401,11.05143 h -1.45183 V 15 h -0.97656 v -3.94857 h -1.43229 v -0.791016 h 3.86068 z"/>
    <path id="path378" style="font-weight:bold;font-size:6.66667px;font-family:Roboto, sans-serif;letter-spacing:2px;text-anchor:middle;fill:#222222" d="m -165.12956,13.264973 h -0.77799 V 15 h -0.97657 v -4.739586 h 1.76107 q 0.83985,0 1.29558,0.37435 0.45573,0.374349 0.45573,1.057943 0,0.485026 -0.21159,0.810547 -0.20834,0.322266 -0.63477,0.514323 l 1.02539,1.93685 V 15 h -1.04818 z m -0.77799,-0.791016 h 0.78776 q 0.36784,0 0.56966,-0.185547 0.20182,-0.188802 0.20182,-0.517578 0,-0.335287 -0.19206,-0.527344 -0.1888,-0.192058 -0.58268,-0.192058 h -0.7845 z"/>
    <path id="path380" style="font-weight:bold;font-size:6.66667px;font-family:Roboto, sans-serif;letter-spacing:2px;text-anchor:middle;fill:#222222" d="m -159.58789,15 h -0.97656 v -4.739586 h 0.97656 z"/>
    <path id="path382" style="font-weight:bold;font-size:6.66667px;font-family:Roboto, sans-serif;letter-spacing:2px;text-anchor:middle;fill:#222222" d="m -152.9362,14.401041 q -0.26367,0.315756 -0.74544,0.491537 -0.48177,0.172526 -1.06771,0.172526 -0.61523,0 -1.08073,-0.266927 -0.46224,-0.270182 -0.71614,-0.78125 -0.25065,-0.511068 -0.25716,-1.201173 v -0.322266 q 0,-0.709635 0.23763,-1.227214 0.24088,-0.520833 0.6901,-0.794271 0.45247,-0.276693 1.05794,-0.276693 0.8431,0 1.31836,0.403646 0.47526,0.400391 0.56315,1.168621 h -0.95052 q -0.0651,-0.406902 -0.28971,-0.595704 -0.22135,-0.188802 -0.61198,-0.188802 -0.49805,0 -0.75846,0.374349 -0.26042,0.374349 -0.26368,1.113282 v 0.302734 q 0,0.745444 0.28321,1.126303 0.2832,0.38086 0.83008,0.38086 0.55013,0 0.7845,-0.234375 v -0.817058 h -0.88867 v -0.719402 h 1.86523 z"/>
  </g>
  <g transform="translate(16,177)" id="g94">
    <path class="input-background" d="m 5,0 h 33 c 2.77,0 5,2.23 5,5 v 22 c 0,2.77 -2.23,5 -5,5 H 5 C 2.23,32 0,29.77 0,27 V 5 C 0,2.23 2.23,0 5,0 Z" style="fill:#aaaaaa" id="rect86"/>
    <path class="input-background" d="M 0,0 H 43 V 10 H 0 Z" style="fill:#aaaaaa" id="rect88"/>
    <g transform="translate(14.5,4)" id="g90"/>
    <g class="input-label" style="font-weight:bold;font-size:6.66667px;font-family:Roboto, sans-serif;letter-spacing:2px;text-anchor:middle;fill:#222222" id="text92" transform="rotate(-90,13.25,3.25)" aria-label="TEST">
      <path id="path367" style="font-weight:bold;font-size:6.66667px;font-family:Roboto, sans-serif;letter-spacing:2px;text-anchor:middle;fill:#222222" d="M -7.0625019,-3.9485696 H -8.5143255 V 0 h -0.976563 v -3.9485696 h -1.4322925 v -0.791016 h 3.8606791 z"/>
      <path id="path369" style="font-weight:bold;font-size:6.66667px;font-family:Roboto, sans-serif;letter-spacing:2px;text-anchor:middle;fill:#222222" d="m -1.6510422,-2.0540374 h -1.8750009 v 1.26953182 h 2.2005219 V 0 h -3.1770849 v -4.7395856 h 3.1705745 v 0.791016 h -2.1940115 v 1.1295578 h 1.8750009 z"/>
      <path id="path371" style="font-weight:bold;font-size:6.66667px;font-family:Roboto, sans-serif;letter-spacing:2px;text-anchor:middle;fill:#222222" d="m 3.7050788,-1.2434902 q 0,-0.2766928 -0.1953126,-0.4231773 Q 3.3144537,-1.8164071 2.8066409,-1.9791676 2.2988282,-2.1451833 2.0026041,-2.3046886 1.195312,-2.7408867 1.195312,-3.4798194 q 0,-0.3841147 0.2148439,-0.683594 0.218099,-0.3027346 0.6217451,-0.4720055 0.4069012,-0.1692709 0.9114587,-0.1692709 0.5078128,0 0.9049484,0.185547 0.3971356,0.1822917 0.6152346,0.5175783 0.2213543,0.3352867 0.2213543,0.7617192 H 3.708334 q 0,-0.325521 -0.2050782,-0.5045576 -0.2050782,-0.1822917 -0.5761721,-0.1822917 -0.3580731,0 -0.5566409,0.1529948 -0.1985678,0.1497397 -0.1985678,0.3971356 0,0.2311199 0.2311199,0.38737 0.2343751,0.1562501 0.6868493,0.2929689 0.8333337,0.2506512 1.2141933,0.6217451 0.3808595,0.3710939 0.3808595,0.9244796 0,0.61523467 -0.465495,0.96679734 -0.465495,0.34830746 -1.2532558,0.34830746 -0.5468753,0 -0.9960942,-0.19856781 Q 1.520833,-0.33528662 1.2832027,-0.68359408 1.0488276,-1.0319015 1.0488276,-1.4908861 h 0.9798181 q 0,0.78450555 0.9375005,0.78450555 0.3483075,0 0.54362,-0.13997402 0.1953126,-0.14322924 0.1953126,-0.39713563 z"/>
      <path id="path373" style="font-weight:bold;font-size:6.66667px;font-family:Roboto, sans-serif;letter-spacing:2px;text-anchor:middle;fill:#222222" d="M 10.91667,-3.9485696 H 9.4648462 V 0 H 8.4882832 V -3.9485696 H 7.0559909 v -0.791016 H 10.91667 Z"/>
    </g>
  </g>
  <g transform="translate(0,214)" id="g108">
    <g transform="translate(5)" id="g100">
      <g style="font-weight:bold;font-size:6.66667px;font-family:Roboto, sans-serif;letter-spacing:1.5px;fill:#ffffff" id="text96" transform="translate(0,6)" aria-label="EXP">
        <path id="path349" style="font-weight:bold;font-size:6.66667px;font-family:Roboto, sans-serif;letter-spacing:1.5px;fill:#ffffff" d="M 3.2747411,-2.0540374 H 1.3997403 v 1.26953182 H 3.6002621 V 0 H 0.42317729 V -4.7395856 H 3.5937517 v 0.791016 H 1.3997403 v 1.1295578 h 1.8750008 z"/>
        <path id="path351" style="font-weight:bold;font-size:6.66667px;font-family:Roboto, sans-serif;letter-spacing:1.5px;fill:#ffffff" d="M 7.3691435,-3.1054702 8.2578158,-4.7395856 H 9.3808633 L 8.0006543,-2.3893241 9.4166706,0 H 8.2806023 L 7.3691435,-1.660157 6.4576848,0 H 5.3216165 l 1.4160163,-2.3893241 -1.380209,-2.3502615 h 1.1230474 z"/>
        <path id="path353" style="font-weight:bold;font-size:6.66667px;font-family:Roboto, sans-serif;letter-spacing:1.5px;fill:#ffffff" d="M 12.381516,-1.6699227 V 0 h -0.976563 v -4.7395856 h 1.848959 q 0.533854,0 0.9375,0.1953126 0.406901,0.1953126 0.625001,0.5566409 0.218099,0.3580731 0.218099,0.8170577 0,0.6966149 -0.478516,1.1002609 -0.475261,0.4003908 -1.31836,0.4003908 z m 0,-0.791016 h 0.872396 q 0.38737,0 0.589193,-0.1822917 0.205078,-0.1822918 0.205078,-0.5208336 0,-0.3483075 -0.205078,-0.5631513 -0.205078,-0.2148439 -0.566407,-0.2213543 h -0.895182 z"/>
      </g>
      <g transform="translate(18,-1)" id="g98"/>
    </g>
    <g transform="translate(38)" id="g106">
      <g style="font-weight:bold;font-size:6.66667px;font-family:Roboto, sans-serif;letter-spacing:1.5px;fill:#ffffff" id="text102" transform="translate(0,6)" aria-label="LOOP">
        <path id="path356" style="font-weight:bold;font-size:6.66667px;font-family:Roboto, sans-serif;letter-spacing:1.5px;fill:#ffffff" d="M 1.3997403,-0.78450558 H 3.4733089 V 0 H 0.42317729 V -4.7395856 H 1.3997403 Z"/>
        <path id="path358" style="font-weight:bold;font-size:6.66667px;font-family:Roboto, sans-serif;letter-spacing:1.5px;fill:#ffffff" d="m 9.2148477,-2.2623709 q 0,0.6998702 -0.2473959,1.2272142 -0.247396,0.52734396 -0.7096358,0.81380243 -0.4589846,0.28645847 -1.054688,0.28645847 -0.589193,0 -1.0514328,-0.28320326 Q 5.6894554,-0.50130232 5.435549,-1.0253911 5.1816427,-1.5527351 5.1783875,-2.2363292 v -0.2343751 q 0,-0.6998701 0.2506511,-1.2304693 0.2539064,-0.5338545 0.712891,-0.8170577 0.4622398,-0.2864585 1.054688,-0.2864585 0.5924482,0 1.0514328,0.2864585 0.4622398,0.2832032 0.7128909,0.8170577 0.2539064,0.5305992 0.2539064,1.2272141 z M 8.2252639,-2.4772147 q 0,-0.7454431 -0.2669272,-1.1328131 -0.2669272,-0.3873699 -0.7617191,-0.3873699 -0.4915367,0 -0.7584639,0.3841147 -0.2669272,0.3808596 -0.2701824,1.1197922 v 0.2311199 q 0,0.7259118 0.2669272,1.1263026 0.2669272,0.40039087 0.7682295,0.40039087 0.4915367,0 0.7552087,-0.38411477 0.263672,-0.38737 0.2669272,-1.1263026 z"/>
        <path id="path360" style="font-weight:bold;font-size:6.66667px;font-family:Roboto, sans-serif;letter-spacing:1.5px;fill:#ffffff" d="m 15.324225,-2.2623709 q 0,0.6998702 -0.247396,1.2272142 -0.247396,0.52734396 -0.709636,0.81380243 -0.458985,0.28645847 -1.054688,0.28645847 -0.589193,0 -1.051433,-0.28320326 -0.46224,-0.28320326 -0.716146,-0.80729204 -0.253906,-0.527344 -0.257162,-1.2109381 v -0.2343751 q 0,-0.6998701 0.250652,-1.2304693 0.253906,-0.5338545 0.71289,-0.8170577 0.46224,-0.2864585 1.054688,-0.2864585 0.592449,0 1.051433,0.2864585 0.46224,0.2832032 0.712891,0.8170577 0.253907,0.5305992 0.253907,1.2272141 z m -0.989584,-0.2148438 q 0,-0.7454431 -0.266927,-1.1328131 -0.266928,-0.3873699 -0.76172,-0.3873699 -0.491536,0 -0.758463,0.3841147 -0.266928,0.3808596 -0.270183,1.1197922 v 0.2311199 q 0,0.7259118 0.266927,1.1263026 0.266928,0.40039087 0.76823,0.40039087 0.491537,0 0.755209,-0.38411477 0.263672,-0.38737 0.266927,-1.1263026 z"/>
        <path id="path362" style="font-weight:bold;font-size:6.66667px;font-family:Roboto, sans-serif;letter-spacing:1.5px;fill:#ffffff" d="M 18.516933,-1.6699227 V 0 h -0.976562 v -4.7395856 h 1.848959 q 0.533854,0 0.9375,0.1953126 0.406901,0.1953126 0.625,0.5566409 0.2181,0.3580731 0.2181,0.8170577 0,0.6966149 -0.478516,1.1002609 -0.475261,0.4003908 -1.31836,0.4003908 z m 0,-0.791016 h 0.872397 q 0.38737,0 0.589193,-0.1822917 0.205078,-0.1822918 0.205078,-0.5208336 0,-0.3483075 -0.205078,-0.5631513 -0.205079,-0.2148439 -0.566407,-0.2213543 h -0.895183 z"/>
      </g>
      <g transform="translate(24,-1)" id="g104"/>
    </g>
  </g>
  <g style="font-weight:bold;font-size:9.33333px;font-family:Roboto, sans-serif;letter-spacing:1.5px;text-anchor:middle;fill:#ffffff" id="text112" aria-label="R. DELAY">
    <path id="path334" style="font-weight:bold;font-size:9.33333px;font-family:Roboto, sans-serif;letter-spacing:1.5px;text-anchor:middle;fill:#ffffff" d="M 15.866542,235.07096 H 14.77735 V 237.5 h -1.367187 v -6.63541 h 2.465494 q 1.17578,0 1.813801,0.52408 0.638021,0.52409 0.638021,1.48112 0,0.67904 -0.296224,1.13477 -0.291667,0.45117 -0.888672,0.72005 l 1.435547,2.71159 V 237.5 h -1.467448 z m -1.089192,-1.10742 h 1.102864 q 0.514974,0 0.797526,-0.25976 0.282552,-0.26433 0.282552,-0.72461 0,-0.4694 -0.26888,-0.73828 -0.264323,-0.26888 -0.815755,-0.26888 H 14.77735 Z"/>
    <path id="path336" style="font-weight:bold;font-size:9.33333px;font-family:Roboto, sans-serif;letter-spacing:1.5px;text-anchor:middle;fill:#ffffff" d="m 20.852869,236.85286 q 0,-0.31445 0.209635,-0.51041 0.214193,-0.19597 0.533203,-0.19597 0.323568,0 0.533203,0.19597 0.214193,0.19596 0.214193,0.51041 0,0.3099 -0.209635,0.50586 -0.209636,0.19141 -0.537761,0.19141 -0.323567,0 -0.533203,-0.19141 -0.209635,-0.19596 -0.209635,-0.50586 z"/>
    <path id="path338" style="font-weight:bold;font-size:9.33333px;font-family:Roboto, sans-serif;letter-spacing:1.5px;text-anchor:middle;fill:#ffffff" d="m 28.920576,237.5 v -6.63541 h 2.041666 q 0.875,0 1.56315,0.39648 0.692708,0.39193 1.080078,1.12109 0.38737,0.72461 0.38737,1.64974 v 0.30534 q 0,0.92513 -0.382813,1.64518 -0.378255,0.72005 -1.070963,1.11654 -0.692708,0.39648 -1.56315,0.40104 z m 1.367187,-5.52799 v 4.42968 h 0.660807 q 0.802083,0 1.225911,-0.52409 0.423828,-0.52408 0.432943,-1.49934 v -0.35092 q 0,-1.01171 -0.419271,-1.53124 -0.419271,-0.52409 -1.225911,-0.52409 z"/>
    <path id="path340" style="font-weight:bold;font-size:9.33333px;font-family:Roboto, sans-serif;letter-spacing:1.5px;text-anchor:middle;fill:#ffffff" d="m 40.483072,234.62435 h -2.624999 v 1.77734 h 3.080728 V 237.5 h -4.447916 v -6.63541 h 4.438801 v 1.10742 h -3.071613 v 1.58138 h 2.624999 z"/>
    <path id="path342" style="font-weight:bold;font-size:9.33333px;font-family:Roboto, sans-serif;letter-spacing:1.5px;text-anchor:middle;fill:#ffffff" d="m 44.608071,236.40169 h 2.902993 V 237.5 h -4.27018 v -6.63541 h 1.367187 z"/>
    <path id="path344" style="font-weight:bold;font-size:9.33333px;font-family:Roboto, sans-serif;letter-spacing:1.5px;text-anchor:middle;fill:#ffffff" d="M 53.627599,236.13281 H 51.230465 L 50.774736,237.5 H 49.32096 l 2.470051,-6.63541 h 1.266927 L 55.541661,237.5 h -1.453776 z m -2.027994,-1.10742 h 1.658854 l -0.833984,-2.48372 z"/>
    <path id="path346" style="font-weight:bold;font-size:9.33333px;font-family:Roboto, sans-serif;letter-spacing:1.5px;text-anchor:middle;fill:#ffffff" d="m 59.283848,233.85417 1.380859,-2.98958 h 1.494791 l -2.178384,4.22916 V 237.5 H 58.59114 v -2.40625 l -2.178384,-4.22916 h 1.499348 z"/>
  </g>
  <g transform="translate(29.5,249.5)" id="g114"/>
  <g transform="translate(0,237.5)" id="use116">
    <g transform="translate(37.5,20)" id="g266">
      <g style="font-weight:bold;font-size:8px;font-family:Roboto, sans-serif;text-anchor:middle;fill:#ffffff" id="text246" transform="translate(-8,16.856406)" aria-label="2">
        <path id="path312" style="font-weight:bold;font-size:8px;font-family:Roboto, sans-serif;text-anchor:middle;fill:#ffffff" d="M 1.9882812,0 H -1.9101562 V -0.7734375 L -0.0703125,-2.734375 Q 0.30859375,-3.1484375 0.48828125,-3.4570313 0.671875,-3.765625 0.671875,-4.0429687 q 0,-0.3789063 -0.19140625,-0.59375 -0.19140625,-0.21875 -0.546875,-0.21875 -0.3828125,0 -0.60546875,0.265625 -0.21875,0.2617187 -0.21875,0.6914062 h -1.1328125 q 0,-0.5195312 0.2460938,-0.9492187 0.25,-0.4296875 0.703125,-0.671875 0.45312495,-0.2460938 1.0273437,-0.2460938 0.87890625,0 1.3632812,0.421875 0.4882813,0.421875 0.4882813,1.1914063 0,0.4218749 -0.21875,0.8593749 -0.21875,0.4375 -0.75,1.0195313 l -1.29296875,1.36328125 H 1.9882812 Z"/>
      </g>
      <path d="M 0,0 H 2.5" style="fill:none;stroke:#ffffff;stroke-width:0.7" transform="rotate(153.33333,-5.5,1.3035239)" id="polyline248"/>
      <path d="M 0,0 H 2.5" style="fill:none;stroke:#ffffff;stroke-width:0.7" transform="rotate(-173.33333,-5.5,-0.32033852)" id="polyline250"/>
      <g style="font-weight:bold;font-size:8px;font-family:Roboto, sans-serif;text-anchor:middle;fill:#ffffff" id="text252" transform="translate(-12.256711,-7.2846018)" aria-label="8">
        <path id="path317" style="font-weight:bold;font-size:8px;font-family:Roboto, sans-serif;text-anchor:middle;fill:#ffffff" d="m 1.796875,-4.1757812 q 0,0.4140624 -0.2070313,0.7343749 -0.2070312,0.3203125 -0.5703125,0.5117188 0.4140625,0.1992187 0.65625,0.5507812 0.2421875,0.3476563 0.2421875,0.8203126 0,0.75781245 -0.515625,1.1992187 Q 0.88671875,0.078125 0,0.078125 q -0.88671875,0 -1.40625,-0.44140625 -0.5195312,-0.44140625 -0.5195312,-1.19531245 0,-0.4726563 0.2421875,-0.8242188 0.2421875,-0.3515625 0.6523437,-0.546875 -0.3632812,-0.1914063 -0.5703125,-0.5117188 -0.203125,-0.3203125 -0.203125,-0.7343749 0,-0.7265625 0.484375,-1.15625 0.484375,-0.4335938 1.31640625,-0.4335938 0.828125,0 1.31249995,0.4296875 0.4882813,0.4257813 0.4882813,1.1601563 z M 0.78515625,-1.640625 q 0,-0.3710938 -0.21484375,-0.59375 -0.21484375,-0.2226563 -0.578125,-0.2226563 -0.359375,0 -0.57421875,0.2226563 -0.21484375,0.21875 -0.21484375,0.59375 0,0.3632813 0.2109375,0.5859375 Q -0.375,-0.83203125 0,-0.83203125 q 0.3671875,0 0.57421875,-0.21484375 0.2109375,-0.2148437 0.2109375,-0.59375 z m -0.1171875,-2.4804687 q 0,-0.3320313 -0.17578125,-0.53125 -0.17578125,-0.203125 -0.49609375,-0.203125 -0.31640625,0 -0.4921875,0.1953125 -0.17578125,0.1953125 -0.17578125,0.5390625 0,0.3398437 0.17578125,0.5468749 Q -0.3203125,-3.3671875 0,-3.3671875 q 0.3203125,0 0.4921875,-0.2070313 0.17578125,-0.2070312 0.17578125,-0.5468749 z"/>
      </g>
      <path d="M 0,0 H 2.5" style="fill:none;stroke:#ffffff;stroke-width:0.7" transform="rotate(-106.66667,-5.5,-4.0945983)" id="polyline254"/>
      <path d="M 0,0 H 2.5" style="fill:none;stroke:#ffffff;stroke-width:0.7" transform="rotate(-73.333333,-5.5,-7.3877821)" id="polyline256"/>
      <g style="font-weight:bold;font-size:8px;font-family:Roboto, sans-serif;text-anchor:middle;fill:#ffffff" id="text258" transform="translate(12.256711,-7.2846018)" aria-label="14">
        <path id="path322" style="font-weight:bold;font-size:8px;font-family:Roboto, sans-serif;text-anchor:middle;fill:#ffffff" d="M -1.4648437,0 H -2.59375 v -4.3515625 l -1.3476563,0.4179687 v -0.9179687 l 2.3554688,-0.84375 h 0.1210938 z"/>
        <path id="path324" style="font-weight:bold;font-size:8px;font-family:Roboto, sans-serif;text-anchor:middle;fill:#ffffff" d="m 3.7265625,-2.140625 h 0.6445312 v 0.9101563 H 3.7265625 V 0 H 2.5976563 V -1.2304687 H 0.265625 L 0.21484375,-1.9414062 2.5859375,-5.6875 h 1.140625 z m -2.3867188,0 h 1.2578126 v -2.0078125 l -0.074219,0.1289063 z"/>
      </g>
      <path d="M 0,0 H 2.5" style="fill:none;stroke:#ffffff;stroke-width:0.7" transform="rotate(-6.6666667,-5.5,-94.431353)" id="polyline260"/>
      <path d="M 0,0 H 2.5" style="fill:none;stroke:#ffffff;stroke-width:0.7" transform="rotate(26.666667,-5.5,23.206325)" id="polyline262"/>
      <g style="font-weight:bold;font-size:8px;font-family:Roboto, sans-serif;text-anchor:middle;fill:#ffffff" id="text264" transform="translate(8,16.856406)" aria-label="20">
        <path id="path329" style="font-weight:bold;font-size:8px;font-family:Roboto, sans-serif;text-anchor:middle;fill:#ffffff" d="M -0.30859375,0 H -4.2070312 V -0.7734375 L -2.3671875,-2.734375 Q -1.9882812,-3.1484375 -1.8085937,-3.4570313 -1.625,-3.765625 -1.625,-4.0429687 q 0,-0.3789063 -0.1914062,-0.59375 -0.1914063,-0.21875 -0.5468751,-0.21875 -0.3828125,0 -0.6054687,0.265625 -0.21875,0.2617187 -0.21875,0.6914062 h -1.1328125 q 0,-0.5195312 0.2460938,-0.9492187 0.2499999,-0.4296875 0.7031249,-0.671875 0.453125,-0.2460938 1.0273438,-0.2460938 0.8789063,0 1.36328125,0.421875 0.48828125,0.421875 0.48828125,1.1914063 0,0.4218749 -0.21875,0.8593749 -0.21875,0.4375 -0.75,1.0195313 l -1.2929688,1.36328125 h 2.44531255 z"/>
        <path id="path331" style="font-weight:bold;font-size:8px;font-family:Roboto, sans-serif;text-anchor:middle;fill:#ffffff" d="m 4.2148437,-2.3515625 q 0,1.1796875 -0.4882812,1.8046875 -0.4882812,0.625 -1.4296875,0.625 -0.9296875,0 -1.421875,-0.61328125 Q 0.3828125,-1.1484375 0.37109375,-2.2929688 v -1.046875 q 0,-1.1914062 0.4921875,-1.8085937 Q 1.359375,-5.765625 2.2890625,-5.765625 q 0.9296875,0 1.421875,0.6132813 0.4921875,0.609375 0.5039062,1.7539062 z M 3.0859375,-3.5 q 0,-0.7070312 -0.1953125,-1.0273437 -0.1914062,-0.3242188 -0.6015625,-0.3242188 -0.3984375,0 -0.5898438,0.3085938 Q 1.5117187,-4.2382812 1.5,-3.5859375 v 1.3828125 q 0,0.6953125 0.1875,1.0351563 0.1914062,0.33593745 0.609375,0.33593745 0.4140625,0 0.5976563,-0.32421875 0.1835937,-0.3242187 0.1914062,-0.9921875 z"/>
      </g>
    </g>
  </g>
  <path class="output-background" d="m 10.5,283 h 54 c 2.77,0 5,2.23 5,5 v 67 c 0,2.77 -2.23,5 -5,5 h -54 c -2.77,0 -5,-2.23 -5,-5 v -67 c 0,-2.77 2.23,-5 5,-5 z" style="fill:#666666" id="rect120"/>
  <g transform="translate(10.5,286)" id="g122"/>
  <g class="output-label" style="font-weight:bold;font-size:6.66667px;font-family:Roboto, sans-serif;letter-spacing:2px;text-anchor:middle;fill:#dddddd" id="text124" aria-label="TRIG">
    <path id="path302" style="font-weight:bold;font-size:6.66667px;font-family:Roboto, sans-serif;letter-spacing:2px;text-anchor:middle;fill:#dddddd" d="M 16.055988,314.05143 H 14.604164 V 318 h -0.976563 v -3.94857 h -1.432292 v -0.79102 h 3.860679 z"/>
    <path id="path304" style="font-weight:bold;font-size:6.66667px;font-family:Roboto, sans-serif;letter-spacing:2px;text-anchor:middle;fill:#dddddd" d="M 20.370442,316.26497 H 19.592447 V 318 h -0.976563 v -4.73959 h 1.761068 q 0.839845,0 1.295574,0.37435 0.455729,0.37435 0.455729,1.05795 0,0.48502 -0.211588,0.81054 -0.208334,0.32227 -0.634766,0.51433 l 1.025391,1.93685 V 318 h -1.048178 z m -0.777995,-0.79101 h 0.787761 q 0.367838,0 0.569661,-0.18555 0.201823,-0.1888 0.201823,-0.51758 0,-0.33528 -0.192057,-0.52734 -0.188802,-0.19206 -0.582683,-0.19206 h -0.784505 z"/>
    <path id="path306" style="font-weight:bold;font-size:6.66667px;font-family:Roboto, sans-serif;letter-spacing:2px;text-anchor:middle;fill:#dddddd" d="m 25.91211,318 h -0.976563 v -4.73959 h 0.976563 z"/>
    <path id="path308" style="font-weight:bold;font-size:6.66667px;font-family:Roboto, sans-serif;letter-spacing:2px;text-anchor:middle;fill:#dddddd" d="m 32.563805,317.40104 q -0.263672,0.31576 -0.745443,0.49154 -0.481771,0.17252 -1.067709,0.17252 -0.615235,0 -1.08073,-0.26692 -0.462239,-0.27019 -0.716146,-0.78125 -0.250651,-0.51107 -0.257161,-1.20118 v -0.32226 q 0,-0.70964 0.23763,-1.22722 0.240885,-0.52083 0.690104,-0.79427 0.452475,-0.27669 1.057944,-0.27669 0.843099,0 1.31836,0.40365 0.47526,0.40039 0.563151,1.16862 h -0.950521 q -0.0651,-0.4069 -0.289714,-0.59571 -0.221354,-0.1888 -0.611979,-0.1888 -0.498048,0 -0.758464,0.37435 -0.260417,0.37435 -0.263672,1.11328 v 0.30274 q 0,0.74544 0.283203,1.1263 0.283203,0.38086 0.830078,0.38086 0.550131,0 0.784506,-0.23438 v -0.81705 H 30.69857 v -0.71941 h 1.865235 z"/>
  </g>
  <g transform="translate(40.5,286)" id="g126"/>
  <g class="output-label" style="font-weight:bold;font-size:6.66667px;font-family:Roboto, sans-serif;letter-spacing:2px;text-anchor:middle;fill:#dddddd" id="text128" aria-label="EOC">
    <path id="path295" style="font-weight:bold;font-size:6.66667px;font-family:Roboto, sans-serif;letter-spacing:2px;text-anchor:middle;fill:#dddddd" d="M 47.414061,315.94596 H 45.53906 v 1.26953 h 2.200522 V 318 h -3.177085 v -4.73959 h 3.170575 v 0.79102 H 45.53906 v 1.12956 h 1.875001 z"/>
    <path id="path297" style="font-weight:bold;font-size:6.66667px;font-family:Roboto, sans-serif;letter-spacing:2px;text-anchor:middle;fill:#dddddd" d="m 54.20573,315.73763 q 0,0.69987 -0.247396,1.22721 -0.247396,0.52735 -0.709636,0.81381 -0.458984,0.28645 -1.054688,0.28645 -0.589193,0 -1.051432,-0.2832 -0.46224,-0.2832 -0.716147,-0.80729 -0.253906,-0.52735 -0.257161,-1.21094 v -0.23437 q 0,-0.69987 0.250651,-1.23047 0.253906,-0.53386 0.712891,-0.81706 0.46224,-0.28646 1.054688,-0.28646 0.592448,0 1.051433,0.28646 0.46224,0.2832 0.712891,0.81706 0.253906,0.5306 0.253906,1.22721 z m -0.989584,-0.21484 q 0,-0.74545 -0.266927,-1.13282 -0.266927,-0.38737 -0.761719,-0.38737 -0.491537,0 -0.758464,0.38412 -0.266927,0.38086 -0.270182,1.11979 v 0.23112 q 0,0.72591 0.266927,1.1263 0.266927,0.40039 0.768229,0.40039 0.491537,0 0.755209,-0.38411 0.263672,-0.38737 0.266927,-1.1263 z"/>
    <path id="path299" style="font-weight:bold;font-size:6.66667px;font-family:Roboto, sans-serif;letter-spacing:2px;text-anchor:middle;fill:#dddddd" d="m 60.642581,316.42122 q -0.05534,0.76498 -0.566407,1.20443 -0.507812,0.43945 -1.341146,0.43945 -0.911459,0 -1.435548,-0.61198 -0.520833,-0.61523 -0.520833,-1.68619 v -0.28972 q 0,-0.68359 0.240885,-1.20443 0.240886,-0.52083 0.68685,-0.79752 0.449219,-0.27995 1.041667,-0.27995 0.820313,0 1.321615,0.43945 0.501302,0.43946 0.579427,1.23373 h -0.976563 q -0.03581,-0.45899 -0.257161,-0.66406 -0.218099,-0.20834 -0.667318,-0.20834 -0.488282,0 -0.732422,0.35156 -0.240886,0.34831 -0.247396,1.08399 v 0.35807 q 0,0.76823 0.231119,1.12305 0.234376,0.35482 0.735678,0.35482 0.452474,0 0.673828,-0.20508 0.22461,-0.20833 0.257162,-0.64128 z"/>
  </g>
  <g transform="translate(10.5,323)" id="g130"/>
  <g class="output-label" style="font-weight:bold;font-size:6.66667px;font-family:Roboto, sans-serif;letter-spacing:2px;text-anchor:middle;fill:#dddddd" id="text132" aria-label="SEND">
    <path id="path286" style="font-weight:bold;font-size:6.66667px;font-family:Roboto, sans-serif;letter-spacing:2px;text-anchor:middle;fill:#dddddd" d="m 13.930336,353.75651 q 0,-0.27669 -0.195313,-0.42318 -0.195312,-0.14974 -0.703125,-0.3125 -0.507813,-0.16601 -0.804037,-0.32552 -0.807292,-0.4362 -0.807292,-1.17513 0,-0.38411 0.214844,-0.68359 0.218099,-0.30274 0.621745,-0.47201 0.406901,-0.16927 0.911459,-0.16927 0.507813,0 0.904948,0.18555 0.397136,0.18229 0.615235,0.51758 0.221354,0.33528 0.221354,0.76171 h -0.976563 q 0,-0.32552 -0.205078,-0.50455 -0.205078,-0.18229 -0.576172,-0.18229 -0.358073,0 -0.556641,0.15299 -0.198568,0.14974 -0.198568,0.39714 0,0.23112 0.23112,0.38737 0.234375,0.15625 0.686849,0.29296 0.833334,0.25066 1.214194,0.62175 0.380859,0.37109 0.380859,0.92448 0,0.61523 -0.465495,0.9668 -0.465495,0.3483 -1.253256,0.3483 -0.546875,0 -0.996094,-0.19856 -0.449219,-0.20183 -0.686849,-0.55013 -0.234375,-0.34831 -0.234375,-0.8073 h 0.979818 q 0,0.78451 0.9375,0.78451 0.348308,0 0.54362,-0.13997 0.195313,-0.14323 0.195313,-0.39714 z"/>
    <path id="path288" style="font-weight:bold;font-size:6.66667px;font-family:Roboto, sans-serif;letter-spacing:2px;text-anchor:middle;fill:#dddddd" d="M 20.425781,352.94596 H 18.55078 v 1.26953 h 2.200522 V 355 h -3.177085 v -4.73959 h 3.170574 v 0.79102 H 18.55078 v 1.12956 h 1.875001 z"/>
    <path id="path290" style="font-weight:bold;font-size:6.66667px;font-family:Roboto, sans-serif;letter-spacing:2px;text-anchor:middle;fill:#dddddd" d="m 27.178387,355 h -0.976563 l -1.901042,-3.11849 V 355 h -0.976563 v -4.73959 h 0.976563 l 1.904297,3.12501 v -3.12501 h 0.973308 z"/>
    <path id="path292" style="font-weight:bold;font-size:6.66667px;font-family:Roboto, sans-serif;letter-spacing:2px;text-anchor:middle;fill:#dddddd" d="m 30.037762,355 v -4.73959 h 1.458334 q 0.625,0 1.116537,0.28321 0.494792,0.27995 0.771484,0.80078 0.276693,0.51758 0.276693,1.17839 v 0.21809 q 0,0.66081 -0.273437,1.17514 -0.270183,0.51432 -0.764975,0.79752 -0.494792,0.2832 -1.116537,0.28646 z m 0.976563,-3.94857 v 3.16406 h 0.472005 q 0.572917,0 0.875652,-0.37434 0.302734,-0.37435 0.309244,-1.07097 v -0.25065 q 0,-0.72266 -0.299479,-1.09375 -0.299479,-0.37435 -0.875651,-0.37435 z"/>
  </g>
  <g transform="translate(30,319)" id="g144">
    <path class="input-background" d="m 5,0 h 22 c 2.77,0 5,2.23 5,5 v 29 c 0,2.77 -2.23,5 -5,5 H 5 C 2.23,39 0,36.77 0,34 V 5 C 0,2.23 2.23,0 5,0 Z" style="fill:#aaaaaa" transform="translate(7.5,2)" id="rect134"/>
    <path class="input-background-filler" d="M 0,0 H 32 V 10 H 0 Z" style="fill:#aaaaaa" transform="translate(7.5,2)" id="rect136"/>
    <path class="input-background-filler" d="M 0,0 H 10 V 10 H 0 Z" style="fill:#aaaaaa" transform="translate(7.5,31)" id="rect138"/>
    <g transform="translate(10.5,4)" id="g140"/>
    <g class="input-label" style="font-weight:bold;font-size:6.66667px;font-family:Roboto, sans-serif;letter-spacing:0.5px;text-anchor:middle;fill:#222222" id="text142" transform="translate(22.5,36)" aria-label="RETURN">
      <path id="path273" style="font-weight:bold;font-size:6.66667px;font-family:Roboto, sans-serif;letter-spacing:0.5px;text-anchor:middle;fill:#222222" d="m -11.852219,-1.7350269 h -0.777995 V 0 h -0.976563 v -4.7395856 h 1.761069 q 0.839844,0 1.295573,0.3743491 0.45573,0.3743492 0.45573,1.0579433 0,0.4850262 -0.211589,0.8105472 -0.208333,0.3222658 -0.634766,0.5143232 l 1.0253913,1.93684986 V 0 h -1.0481773 z m -0.777995,-0.791016 h 0.787761 q 0.367839,0 0.569662,-0.1855469 0.201823,-0.1888022 0.201823,-0.5175784 0,-0.3352866 -0.192058,-0.527344 -0.188802,-0.1920574 -0.582682,-0.1920574 h -0.784506 z"/>
      <path id="path275" style="font-weight:bold;font-size:6.66667px;font-family:Roboto, sans-serif;letter-spacing:0.5px;text-anchor:middle;fill:#222222" d="m -5.9973985,-2.0540374 h -1.8750009 v 1.26953182 h 2.2005219 V 0 h -3.1770848 v -4.7395856 h 3.1705744 v 0.791016 h -2.1940115 v 1.1295578 h 1.8750009 z"/>
      <path id="path277" style="font-weight:bold;font-size:6.66667px;font-family:Roboto, sans-serif;letter-spacing:0.5px;text-anchor:middle;fill:#222222" d="M -0.96614685,-3.9485696 H -2.4179705 V 0 h -0.9765629 v -3.9485696 h -1.4322924 v -0.791016 h 3.86067895 z"/>
      <path id="path279" style="font-weight:bold;font-size:6.66667px;font-family:Roboto, sans-serif;letter-spacing:0.5px;text-anchor:middle;fill:#222222" d="m 3.6809908,-4.7395856 v 3.1217463 q 0,0.77799515 -0.4882815,1.23046932 -0.4850262,0.45247418 -1.3281256,0.45247418 -0.8300785,0 -1.31836001,-0.43945334 Q 0.0579422,-0.81380247 0.04817657,-1.582032 V -4.7395856 H 1.0247395 v 3.1282567 q 0,0.465495 0.2213543,0.68033887 0.2246095,0.21158865 0.6184899,0.21158865 0.8235681,0 0.8365889,-0.86588582 v -3.1542984 z"/>
      <path id="path281" style="font-weight:bold;font-size:6.66667px;font-family:Roboto, sans-serif;letter-spacing:0.5px;text-anchor:middle;fill:#222222" d="M 6.7363301,-1.7350269 H 5.9583349 V 0 h -0.976563 v -4.7395856 h 1.7610686 q 0.8398441,0 1.2955735,0.3743491 0.4557294,0.3743492 0.4557294,1.0579433 0,0.4850262 -0.2115886,0.8105472 -0.2083335,0.3222658 -0.634766,0.5143232 l 1.0253911,1.93684986 V 0 H 7.6250024 Z m -0.7779952,-0.791016 h 0.7877608 q 0.3678387,0 0.5696617,-0.1855469 0.201823,-0.1888022 0.201823,-0.5175784 0,-0.3352866 -0.1920573,-0.527344 Q 7.1367209,-3.9485696 6.7428405,-3.9485696 H 5.9583349 Z"/>
      <path id="path283" style="font-weight:bold;font-size:6.66667px;font-family:Roboto, sans-serif;letter-spacing:0.5px;text-anchor:middle;fill:#222222" d="M 13.593755,0 H 12.617192 L 10.716149,-3.1184911 V 0 H 9.7395863 v -4.7395856 h 0.9765627 l 1.904298,3.1250015 v -3.1250015 h 0.973308 z"/>
    </g>
  </g>
</svg>
