<?xml version="1.0" encoding="UTF-8" standalone="no"?>
<svg xmlns:dc="http://purl.org/dc/elements/1.1/" xmlns:cc="http://creativecommons.org/ns#" xmlns:rdf="http://www.w3.org/1999/02/22-rdf-syntax-ns#" xmlns:svg="http://www.w3.org/2000/svg" xmlns="http://www.w3.org/2000/svg" xmlns:sodipodi="http://sodipodi.sourceforge.net/DTD/sodipodi-0.dtd" xmlns:inkscape="http://www.inkscape.org/namespaces/inkscape" inkscape:version="1.0 (4035a4f, 2020-05-01)" sodipodi:docname="svg_render_Reftone-pp.svg" id="svg52189" viewBox="0 0 45 380" height="380" width="45" version="1.1">
  <metadata id="metadata52193">
    <rdf:RDF>
      <cc:Work rdf:about="">
        <dc:format>image/svg+xml</dc:format>
        <dc:type rdf:resource="http://purl.org/dc/dcmitype/StillImage"/>
      </cc:Work>
    </rdf:RDF>
  </metadata>
  <sodipodi:namedview inkscape:current-layer="svg52189" inkscape:window-maximized="0" inkscape:window-y="23" inkscape:window-x="0" inkscape:cy="190" inkscape:cx="22.5" inkscape:zoom="1.7605263" showgrid="false" id="namedview52191" inkscape:window-height="480" inkscape:window-width="689" inkscape:pageshadow="2" inkscape:pageopacity="0" guidetolerance="10" gridtolerance="10" objecttolerance="10" borderopacity="1" bordercolor="#666666" pagecolor="#ffffff"/>
  
  <defs id="defs52123">
    <symbol viewBox="0 0 45px 34px" id="display-reftone">
      <rect id="rect52011" transform="translate(3.5 0)" fill="#222" height="48" width="38"/>
    </symbol>
    <symbol viewBox="0 0 45px 45px" id="dial-pitch-reftone">
      <g id="g52062" transform="translate(22.5 22.5)">
        <g id="g52016" transform="rotate(-240) translate(15 0)">
          <text id="text52014" transform="translate(2 0) rotate(240) translate(-2.2 2.2)" font-size="5.0pt">C</text>
        </g>
        <g id="g52020" transform="rotate(-212.73) translate(15 0)">
          <polyline id="polyline52018" stroke-width="0.3" points="0,0 2.5,0"/>
        </g>
        <g id="g52024" transform="rotate(-185.45) translate(15 0)">
          <text id="text52022" transform="translate(2 0) rotate(185.45) translate(-2.2 2.2)" font-size="5.0pt">D</text>
        </g>
        <g id="g52028" transform="rotate(-158.18) translate(15 0)">
          <polyline id="polyline52026" stroke-width="0.3" points="0,0 2.5,0"/>
        </g>
        <g id="g52032" transform="rotate(-130.91) translate(15 0)">
          <text id="text52030" transform="translate(2 0) rotate(130.91) translate(-2.2 2.2)" font-size="5.0pt">E</text>
        </g>
        <g id="g52036" transform="rotate(-103.64) translate(15 0)">
          <text id="text52034" transform="translate(2 0) rotate(103.64) translate(-2.2 2.2)" font-size="5.0pt">F</text>
        </g>
        <g id="g52040" transform="rotate(-76.36) translate(15 0)">
          <polyline id="polyline52038" stroke-width="0.3" points="0,0 2.5,0"/>
        </g>
        <g id="g52044" transform="rotate(-49.09) translate(15 0)">
          <text id="text52042" transform="translate(2 0) rotate(49.09) translate(-2.2 2.2)" font-size="5.0pt">G</text>
        </g>
        <g id="g52048" transform="rotate(-21.82) translate(15 0)">
          <polyline id="polyline52046" stroke-width="0.3" points="0,0 2.5,0"/>
        </g>
        <g id="g52052" transform="rotate(5.45) translate(15 0)">
          <text id="text52050" transform="translate(2 0) rotate(-5.45) translate(-2.2 2.2)" font-size="5.0pt">A</text>
        </g>
        <g id="g52056" transform="rotate(32.73) translate(15 0)">
          <polyline id="polyline52054" stroke-width="0.3" points="0,0 2.5,0"/>
        </g>
        <g id="g52060" transform="rotate(60) translate(15 0)">
          <text id="text52058" transform="translate(2 0) rotate(-60) translate(-2.2 2.2)" font-size="5.0pt">B</text>
        </g>
      </g>
    </symbol>
    <symbol viewBox="0 0 45px 45px" id="dial-octave-reftone">
      <g id="g52097" transform="translate(22.5 22.5)">
        <g id="g52067" transform="rotate(-240) translate(15 0)">
          <text id="text52065" transform="translate(2 0) rotate(240) translate(-2.2 2.2)" font-size="5.0pt">1</text>
        </g>
        <g id="g52071" transform="rotate(-197.14) translate(15 0)">
          <text id="text52069" transform="translate(2 0) rotate(197.14) translate(-2.2 2.2)" font-size="5.0pt">2</text>
        </g>
        <g id="g52075" transform="rotate(-154.29) translate(15 0)">
          <text id="text52073" transform="translate(2 0) rotate(154.29) translate(-2.2 2.2)" font-size="5.0pt">3</text>
        </g>
        <g id="g52079" transform="rotate(-111.43) translate(15 0)">
          <text id="text52077" transform="translate(2 0) rotate(111.43) translate(-2.2 2.2)" font-size="5.0pt">4</text>
        </g>
        <g id="g52083" transform="rotate(-68.57) translate(15 0)">
          <text id="text52081" transform="translate(2 0) rotate(68.57) translate(-2.2 2.2)" font-size="5.0pt">5</text>
        </g>
        <g id="g52087" transform="rotate(-25.71) translate(15 0)">
          <text id="text52085" transform="translate(2 0) rotate(25.71) translate(-2.2 2.2)" font-size="5.0pt">6</text>
        </g>
        <g id="g52091" transform="rotate(17.14) translate(15 0)">
          <text id="text52089" transform="translate(2 0) rotate(-17.14) translate(-2.2 2.2)" font-size="5.0pt">7</text>
        </g>
        <g id="g52095" transform="rotate(60) translate(15 0)">
          <text id="text52093" transform="translate(2 0) rotate(-60) translate(-2.2 2.2)" font-size="5.0pt">8</text>
        </g>
      </g>
    </symbol>
    <symbol viewBox="0 0 45px 45px" id="dial-fine-reftone">
      <g id="g52120" transform="translate(22.5 22.5)">
        <g id="g52102" transform="rotate(-240) translate(15 0)">
          <text id="text52100" transform="translate(2.5 0) rotate(240) translate(-1.5 2.2)" font-size="5.0pt">-</text>
        </g>
        <g id="g52106" transform="rotate(-90) translate(15 0)">
          <text id="text52104" transform="translate(2 0) rotate(90) translate(-1.9 2.2)" font-size="5.0pt">0</text>
        </g>
        <g id="g52110" transform="rotate(60) translate(15 0)">
          <text id="text52108" transform="translate(2.5 0) rotate(-60) translate(-1.9 2.2)" font-size="5.0pt">+</text>
        </g>
        <path id="path52112" transform="rotate(20)" fill="none" stroke="#333" stroke-linecap="round" stroke-width="0.5" d="M 0 -17.5 A 17.5 17.5 0 0 1 17.5 0"/>
        <path id="path52114" transform="rotate(43)" fill="none" stroke="#333" stroke-linecap="round" stroke-width="0.5" d="M 0 -17.5 A 17.5 17.5 0 0 1 17.5 0"/>
        <path id="path52116" transform="rotate(-20)" fill="none" stroke="#333" stroke-linecap="round" stroke-width="0.5" d="M 0 -17.5 A 17.5 17.5 0 0 0 -17.5 0"/>
        <path id="path52118" transform="rotate(-43)" fill="none" stroke="#333" stroke-linecap="round" stroke-width="0.5" d="M 0 -17.5 A 17.5 17.5 0 0 0 -17.5 0"/>
      </g>
    </symbol>
  </defs>
  <path class="module-background background-fill" d="M 0,0 H 45 V 380 H 0 Z" style="fill:#dddddd" id="rect52125"/>
  <path class="module-border-inner" d="M 1,1 H 44 V 379 H 1 V 1" style="fill:none;stroke:#e4e4e4;stroke-width:0.5" id="polyline52127"/>
  <path class="module-border-middle" d="m 0.5,0.5 h 44 v 379 H 0.5 V 0.5" style="fill:none;stroke:#ebebeb;stroke-width:0.8" id="polyline52129"/>
  <path class="module-border-outer" d="M 0,0 H 45 V 380 H 0 V 0" style="fill:none;stroke:#f2f2f2;stroke-width:1" id="polyline52131"/>
  <g class="title" style="font-weight:normal;font-size:9.33333px;font-family:Comfortaa, sans-serif;letter-spacing:2.5px;fill:#333333" id="text52133" transform="rotate(-90)" aria-label="REFTONE">
    <path id="path52450" style="font-weight:normal;font-size:9.33333px;font-family:Comfortaa, sans-serif;letter-spacing:2.5px;fill:#333333" d="m -370.512,12.44 q 0.084,0.14 0.084,0.252 0,0.14 -0.10267,0.224 -0.10267,0.084 -0.27067,0.084 -0.112,0 -0.18666,-0.04667 -0.0747,-0.04667 -0.13067,-0.14 l -1.68,-2.669332 h -0.15866 -1.38134 V 12.636 q 0,0.158667 -0.10266,0.261333 Q -374.544,13 -374.70267,13 q -0.15866,0 -0.26133,-0.102667 -0.10267,-0.102666 -0.10267,-0.261333 V 6.074669 q 0,-0.1586666 0.10267,-0.2613332 0.10267,-0.1026667 0.26133,-0.1026667 h 1.74534 q 0.68133,0 1.21333,0.2893333 0.532,0.2799999 0.83066,0.793333 0.308,0.5133332 0.308,1.1666663 0,0.7186664 -0.392,1.2599996 -0.38266,0.5413331 -1.04533,0.7746664 z m -2.44533,-2.9959988 q 0.46666,0 0.84,-0.1866666 0.38266,-0.1959999 0.588,-0.5319998 0.21466,-0.3359999 0.21466,-0.7653331 0,-0.4479998 -0.21466,-0.8026664 -0.20534,-0.3546665 -0.57867,-0.5506665 -0.37333,-0.1959999 -0.84933,-0.1959999 h -1.38134 v 3.0333323 z"/>
    <path id="path52452" style="font-weight:normal;font-size:9.33333px;font-family:Comfortaa, sans-serif;letter-spacing:2.5px;fill:#333333" d="m -366.44225,13 q -0.14934,0 -0.26134,-0.102667 -0.10266,-0.112 -0.10266,-0.261333 V 6.074669 q 0,-0.1586666 0.10266,-0.2613332 0.112,-0.1026667 0.26134,-0.1026667 h 4.37733 q 0.15867,0 0.26133,0.1026667 0.10267,0.1026666 0.10267,0.2519999 0,0.1493333 -0.10267,0.2519999 -0.10266,0.093333 -0.26133,0.093333 h -4.01333 V 8.986668 h 2.92133 q 0.15867,0 0.26133,0.1026667 0.10267,0.1026666 0.10267,0.2519999 0,0.1493333 -0.112,0.2519999 -0.10267,0.1026666 -0.252,0.1026666 h -2.92133 V 12.3 h 4.01333 q 0.15867,0 0.26133,0.102667 0.10267,0.09333 0.10267,0.242666 0,0.149334 -0.10267,0.252 Q -361.90625,13 -362.06492,13 Z"/>
    <path id="path52454" style="font-weight:normal;font-size:9.33333px;font-family:Comfortaa, sans-serif;letter-spacing:2.5px;fill:#333333" d="m -358.0678,13 q -0.14933,0 -0.26133,-0.102667 -0.10267,-0.112 -0.10267,-0.261333 V 6.074669 q 0,-0.1586666 0.10267,-0.2613332 0.112,-0.1026667 0.26133,-0.1026667 h 4.37734 q 0.15866,0 0.26133,0.1026667 0.10267,0.1026666 0.10267,0.2519999 0,0.1493333 -0.10267,0.2519999 -0.10267,0.093333 -0.26133,0.093333 h -4.01334 V 8.986668 h 2.92134 q 0.15866,0 0.26133,0.1026667 0.10267,0.093333 0.10267,0.2519999 0,0.1493333 -0.10267,0.2519999 -0.10267,0.1026666 -0.26133,0.1026666 h -2.92134 V 12.636 q 0,0.149333 -0.10266,0.261333 Q -357.90913,13 -358.0678,13 Z"/>
    <path id="path52456" style="font-weight:normal;font-size:9.33333px;font-family:Comfortaa, sans-serif;letter-spacing:2.5px;fill:#333333" d="m -344.8158,5.7106691 q 0.14933,0 0.24267,0.093333 0.0933,0.093333 0.0933,0.2426665 0,0.14 -0.0933,0.2333333 -0.0933,0.093333 -0.24267,0.093333 h -2.22133 V 12.636 q 0,0.149333 -0.10267,0.261333 Q -347.24247,13 -347.40113,13 q -0.14934,0 -0.26134,-0.102667 -0.10266,-0.112 -0.10266,-0.261333 V 6.3733356 h -2.212 q -0.14934,0 -0.24267,-0.093333 -0.0933,-0.093333 -0.0933,-0.2333333 0,-0.1493332 0.0933,-0.2426665 0.0933,-0.093333 0.24267,-0.093333 z"/>
    <path id="path52458" style="font-weight:normal;font-size:9.33333px;font-family:Comfortaa, sans-serif;letter-spacing:2.5px;fill:#333333" d="m -338.01765,13.093333 q -1.064,0 -1.91334,-0.485333 -0.84933,-0.485333 -1.33466,-1.334666 -0.476,-0.858666 -0.476,-1.9226661 0,-1.0639996 0.476,-1.9133327 0.48533,-0.849333 1.33466,-1.3346662 0.84934,-0.4853332 1.91334,-0.4853332 1.05466,0 1.90399,0.4853332 0.85867,0.4853332 1.33467,1.3346662 0.48533,0.8493331 0.48533,1.9133327 0,1.0640001 -0.48533,1.9226661 -0.476,0.849333 -1.33467,1.334666 -0.84933,0.485333 -1.90399,0.485333 z m 0,-0.690666 q 0.84933,0 1.53066,-0.401333 0.69067,-0.401334 1.08267,-1.092 0.392,-0.7 0.392,-1.5586661 0,-0.849333 -0.392,-1.5399995 -0.392,-0.6999997 -1.08267,-1.1013329 -0.68133,-0.4013332 -1.53066,-0.4013332 -0.85867,0 -1.54934,0.4013332 -0.68133,0.4013332 -1.07333,1.1013329 -0.392,0.6906665 -0.392,1.5399995 0,0.8586661 0.392,1.5586661 0.392,0.690666 1.07333,1.092 0.69067,0.401333 1.54934,0.401333 z"/>
    <path id="path52460" style="font-weight:normal;font-size:9.33333px;font-family:Comfortaa, sans-serif;letter-spacing:2.5px;fill:#333333" d="m -329.91882,13 q -0.15867,0 -0.26134,-0.102667 -0.10266,-0.102666 -0.10266,-0.261333 V 6.074669 q 0,-0.1586666 0.10266,-0.2613332 0.10267,-0.1026667 0.26134,-0.1026667 0.168,0 0.28,0.1306667 l 4.46133,5.8613312 V 6.074669 q 0,-0.1586666 0.10267,-0.2613332 0.112,-0.1026667 0.26133,-0.1026667 0.15867,0 0.26133,0.1026667 0.10267,0.1026666 0.10267,0.2613332 V 12.636 q 0,0.149333 -0.10267,0.261333 Q -324.65482,13 -324.81349,13 q -0.18667,0 -0.27067,-0.121333 l -4.47066,-5.8613316 V 12.636 q 0,0.149333 -0.10267,0.261333 Q -329.76016,13 -329.91882,13 Z"/>
    <path id="path52462" style="font-weight:normal;font-size:9.33333px;font-family:Comfortaa, sans-serif;letter-spacing:2.5px;fill:#333333" d="m -319.72612,13 q -0.14933,0 -0.26133,-0.102667 -0.10267,-0.112 -0.10267,-0.261333 V 6.074669 q 0,-0.1586666 0.10267,-0.2613332 0.112,-0.1026667 0.26133,-0.1026667 h 4.37733 q 0.15867,0 0.26134,0.1026667 0.10266,0.1026666 0.10266,0.2519999 0,0.1493333 -0.10266,0.2519999 -0.10267,0.093333 -0.26134,0.093333 h -4.01333 V 8.986668 h 2.92133 q 0.15867,0 0.26134,0.1026667 0.10266,0.1026666 0.10266,0.2519999 0,0.1493333 -0.112,0.2519999 -0.10266,0.1026666 -0.252,0.1026666 h -2.92133 V 12.3 h 4.01333 q 0.15867,0 0.26134,0.102667 0.10266,0.09333 0.10266,0.242666 0,0.149334 -0.10266,0.252 Q -315.19012,13 -315.34879,13 Z"/>
  </g>
  <g transform="rotate(-90,200.5,175.5)" id="g52139">
    <g class="brand" style="font-weight:bold;font-size:9.33333px;font-family:Audiowide, sans-serif;letter-spacing:2px;fill:#333333" id="text52135" aria-label="BGA">
      <path id="path52442" style="font-weight:bold;font-size:9.33333px;font-family:Audiowide, sans-serif;letter-spacing:2px;fill:#333333" d="m 7.209633,-1.4355464 q 0,0.2187499 -0.077474,0.4694009 -0.072917,0.25065095 -0.2460936,0.46484359 Q 6.7174456,-0.28710928 6.4440082,-0.14127599 6.1705708,0 5.7740866,0 H 1.2760412 Q 1.1484371,0 1.0390621,-0.0455729 0.92968718,-0.0911458 0.84765596,-0.16861973 0.77018203,-0.25065096 0.72460913,-0.36002592 0.67903623,-0.46940088 0.67903623,-0.597005 v -5.341144 q 0,-0.1230469 0.0455729,-0.2324218 0.0455729,-0.109375 0.12304683,-0.1914062 0.0820312,-0.082031 0.19140614,-0.1276041 0.109375,-0.045573 0.2369791,-0.045573 h 3.9648424 q 0.21875,0 0.4694009,0.077474 0.250651,0.077474 0.4648436,0.250651 0.2187499,0.1686197 0.3600259,0.4420571 0.1458333,0.2734374 0.1458333,0.6699217 v 0.2233072 q 0,0.314453 -0.1048177,0.6790362 -0.1048176,0.3600259 -0.3372394,0.6835935 0.2005207,0.1230468 0.3736978,0.2962239 0.1777343,0.173177 0.3098957,0.4010415 0.1321614,0.2278645 0.2096353,0.5149738 0.077474,0.2871093 0.077474,0.6334633 z M 6.0247375,-1.6634109 q 0,-0.2324218 -0.072917,-0.4147134 Q 5.8789042,-2.2649732 5.7467428,-2.3971346 5.6145814,-2.529296 5.4277325,-2.5976554 5.2408836,-2.670572 5.0084618,-2.670572 h -2.670572 v -1.19401 h 2.1373691 q 0.2324218,0 0.4192707,-0.068359 0.1868489,-0.072917 0.3190103,-0.205078 0.1321614,-0.1321614 0.2005208,-0.314453 0.072917,-0.1868489 0.072917,-0.4192707 v -0.2233072 q 0,-0.2552083 -0.2460937,-0.2552083 H 1.8639317 v 4.1653632 h 3.9101549 q 0.031901,0 0.077474,-0.00456 0.045573,-0.00456 0.082031,-0.027344 0.036458,-0.022786 0.063802,-0.077474 0.027344,-0.054687 0.027344,-0.1503906 z"/>
      <path id="path52444" style="font-weight:bold;font-size:9.33333px;font-family:Audiowide, sans-serif;letter-spacing:2px;fill:#333333" d="m 16.683589,-0.597005 q 0,0.12760412 -0.04557,0.23697908 -0.04557,0.10937496 -0.127605,0.19140619 -0.07747,0.07747393 -0.186849,0.12304683 Q 16.214189,0 16.086584,0 h -4.274738 q -0.164062,0 -0.355468,-0.03645832 -0.186849,-0.04101561 -0.373698,-0.12304683 -0.182292,-0.0820312 -0.350911,-0.20963535 -0.16862,-0.13216141 -0.300782,-0.31445302 -0.127604,-0.18684889 -0.205078,-0.42838528 -0.07747,-0.2460937 -0.07747,-0.5514321 v -3.2083322 q 0,-0.1640625 0.03646,-0.3509114 0.04101,-0.1914062 0.123047,-0.3736978 0.08203,-0.1868489 0.214192,-0.3554686 0.132162,-0.1686197 0.314453,-0.2962238 0.186849,-0.1321615 0.428385,-0.2096354 0.241537,-0.077474 0.546875,-0.077474 h 4.817056 v 1.1848954 h -4.817056 q -0.232422,0 -0.355468,0.1230468 -0.123047,0.1230469 -0.123047,0.3645832 v 3.1992177 q 0,0.2278645 0.123047,0.3554686 0.127604,0.1230469 0.355468,0.1230469 h 3.686848 V -2.670572 h -3.153645 v -1.19401 h 3.741535 q 0.127605,0 0.236979,0.05013 0.109375,0.045573 0.186849,0.1276041 0.08203,0.082031 0.127605,0.1914062 0.04557,0.1048177 0.04557,0.2278645 z"/>
      <path id="path52446" style="font-weight:bold;font-size:9.33333px;font-family:Audiowide, sans-serif;letter-spacing:2px;fill:#333333" d="M 26.339836,0 H 25.154941 V -1.6041661 H 20.989578 V 0 h -1.184896 v -3.267577 q 0,-0.7154946 0.246094,-1.3170569 0.246094,-0.6015623 0.683593,-1.0345048 0.4375,-0.4329426 1.034505,-0.6744789 0.597005,-0.2415364 1.303385,-0.2415364 h 2.670572 q 0.123047,0 0.232422,0.045573 0.109375,0.045573 0.191406,0.1276041 0.08203,0.082031 0.127604,0.1914062 0.04557,0.1093749 0.04557,0.2324218 z m -5.350258,-2.7890616 h 4.165363 v -2.561197 h -2.082682 q -0.05469,0 -0.232422,0.018229 -0.173177,0.013672 -0.405598,0.077474 -0.227865,0.063802 -0.483073,0.1959635 -0.255208,0.1321614 -0.469401,0.3645832 -0.214193,0.2324218 -0.355469,0.5833331 -0.136718,0.3463541 -0.136718,0.8430987 z"/>
    </g>
    <path d="M 0,0 H 3 V 3 H 0 Z" style="fill:#dddddd" transform="translate(11.5,-5)" id="rect52137"/>
  </g>
  <g transform="translate(0,80)" id="g52161">
    <g id="g52147">
      <g style="font-weight:bold;font-size:8px;font-family:Roboto, sans-serif;letter-spacing:2px;fill:#333333" id="text52143" transform="translate(7)" aria-label="PITCH">
        <path id="path52409" style="font-weight:bold;font-size:8px;font-family:Roboto, sans-serif;letter-spacing:2px;fill:#333333" d="M 1.6796875,-2.0039063 V 0 h -1.171875 v -5.6875 h 2.21875 q 0.640625,0 1.125,0.234375 0.4882812,0.234375 0.75,0.6679688 0.2617187,0.4296875 0.2617187,0.9804687 0,0.8359375 -0.5742187,1.3203125 -0.5703125,0.4804687 -1.5820312,0.4804687 z m 0,-0.9492187 h 1.046875 q 0.4648438,0 0.7070313,-0.21875 0.2460937,-0.21875 0.2460937,-0.625 0,-0.4179687 -0.2460937,-0.6757812 Q 3.1875,-4.7304687 2.7539063,-4.7382812 H 1.6796875 Z"/>
        <path id="path52411" style="font-weight:bold;font-size:8px;font-family:Roboto, sans-serif;letter-spacing:2px;fill:#333333" d="M 8.9101563,0 H 7.7382812 v -5.6875 h 1.1718751 z"/>
        <path id="path52413" style="font-weight:bold;font-size:8px;font-family:Roboto, sans-serif;letter-spacing:2px;fill:#333333" d="M 16.164062,-4.7382812 H 14.421875 V 0 H 13.25 V -4.7382812 H 11.53125 V -5.6875 h 4.632812 z"/>
        <path id="path52415" style="font-weight:bold;font-size:8px;font-family:Roboto, sans-serif;letter-spacing:2px;fill:#333333" d="M 23.191406,-1.8945312 Q 23.125,-0.9765625 22.511719,-0.44921875 21.902344,0.078125 20.902344,0.078125 q -1.09375,0 -1.722657,-0.734375 -0.625,-0.7382812 -0.625,-2.0234375 v -0.3476563 q 0,-0.8203125 0.289063,-1.4453124 0.289062,-0.625 0.824219,-0.9570313 0.539062,-0.3359375 1.25,-0.3359375 0.984375,0 1.585937,0.5273438 0.601563,0.5273437 0.695313,1.4804687 h -1.171875 q -0.04297,-0.5507812 -0.308594,-0.796875 -0.261719,-0.25 -0.800781,-0.25 -0.585938,0 -0.878907,0.421875 -0.289062,0.4179687 -0.296875,1.3007812 v 0.4296875 q 0,0.9218751 0.277344,1.3476563 0.28125,0.42578125 0.882813,0.42578125 0.542968,0 0.808593,-0.24609375 0.269532,-0.25 0.308594,-0.7695312 z"/>
        <path id="path52417" style="font-weight:bold;font-size:8px;font-family:Roboto, sans-serif;letter-spacing:2px;fill:#333333" d="M 30.589844,0 H 29.417969 V -2.4375 H 27.132812 V 0 h -1.171875 v -5.6875 h 1.171875 v 2.3046875 h 2.285157 V -5.6875 h 1.171875 z"/>
      </g>
      <g transform="translate(9.5,9.5)" id="g52145"/>
    </g>
    <g transform="translate(0,54)" id="g52153">
      <g style="font-weight:bold;font-size:8px;font-family:Roboto, sans-serif;letter-spacing:2px;fill:#333333" id="text52149" transform="translate(2.5)" aria-label="OCTAVE">
        <path id="path52420" style="font-weight:bold;font-size:8px;font-family:Roboto, sans-serif;letter-spacing:2px;fill:#333333" d="m 5.1796875,-2.7148438 q 0,0.8398438 -0.296875,1.4726563 -0.296875,0.6328125 -0.8515625,0.9765625 -0.5507812,0.34375 -1.265625,0.34375 -0.7070312,0 -1.2617188,-0.33984375 Q 0.94921875,-0.6015625 0.64453125,-1.2304687 0.33984375,-1.8632812 0.3359375,-2.6835938 v -0.28125 q 0,-0.8398437 0.30078125,-1.4765624 0.3046875,-0.640625 0.85546875,-0.9804688 0.5546875,-0.34375 1.265625,-0.34375 0.7109375,0 1.2617187,0.34375 0.5546875,0.3398438 0.8554688,0.9804688 0.3046875,0.6367187 0.3046875,1.4726562 z m -1.1875,-0.2578125 q 0,-0.8945312 -0.3203125,-1.3593749 -0.3203125,-0.4648438 -0.9140625,-0.4648438 -0.5898437,0 -0.9101563,0.4609375 -0.3203125,0.4570312 -0.3242187,1.34375 v 0.2773437 q 0,0.8710938 0.3203125,1.3515626 0.3203125,0.4804687 0.921875,0.4804687 0.5898438,0 0.90625,-0.4609375 0.3164063,-0.4648437 0.3203125,-1.3515625 z"/>
        <path id="path52422" style="font-weight:bold;font-size:8px;font-family:Roboto, sans-serif;letter-spacing:2px;fill:#333333" d="M 12.503906,-1.8945312 Q 12.4375,-0.9765625 11.824219,-0.44921875 11.214844,0.078125 10.214844,0.078125 q -1.0937502,0 -1.7226565,-0.734375 -0.625,-0.7382812 -0.625,-2.0234375 v -0.3476563 q 0,-0.8203125 0.2890625,-1.4453124 0.2890625,-0.625 0.8242188,-0.9570313 0.5390625,-0.3359375 1.2500002,-0.3359375 0.984375,0 1.585937,0.5273438 0.601563,0.5273437 0.695313,1.4804687 h -1.171875 q -0.04297,-0.5507812 -0.308594,-0.796875 -0.261719,-0.25 -0.800781,-0.25 -0.5859377,0 -0.8789065,0.421875 -0.2890625,0.4179687 -0.296875,1.3007812 v 0.4296875 q 0,0.9218751 0.2773438,1.3476563 0.28125,0.42578125 0.8828127,0.42578125 0.542969,0 0.808594,-0.24609375 0.269531,-0.25 0.308593,-0.7695312 z"/>
        <path id="path52424" style="font-weight:bold;font-size:8px;font-family:Roboto, sans-serif;letter-spacing:2px;fill:#333333" d="M 19.445312,-4.7382812 H 17.703125 V 0 H 16.53125 V -4.7382812 H 14.8125 V -5.6875 h 4.632812 z"/>
        <path id="path52426" style="font-weight:bold;font-size:8px;font-family:Roboto, sans-serif;letter-spacing:2px;fill:#333333" d="M 24.859375,-1.171875 H 22.804687 L 22.414062,0 h -1.246093 l 2.117187,-5.6875 h 1.085938 L 26.5,0 h -1.246094 z m -1.738281,-0.9492188 h 1.421875 L 23.828125,-4.25 Z"/>
        <path id="path52428" style="font-weight:bold;font-size:8px;font-family:Roboto, sans-serif;letter-spacing:2px;fill:#333333" d="M 30.84375,-1.4101562 32.132812,-5.6875 H 33.4375 L 31.457031,0 H 30.234375 L 28.261719,-5.6875 H 29.5625 Z"/>
        <path id="path52430" style="font-weight:bold;font-size:8px;font-family:Roboto, sans-serif;letter-spacing:2px;fill:#333333" d="m 39.398437,-2.4648438 h -2.25 v 1.52343755 h 2.640625 V 0 h -3.8125 v -5.6875 h 3.804688 v 0.9492188 h -2.632813 v 1.3554687 h 2.25 z"/>
      </g>
      <g transform="translate(9.5,9.5)" id="g52151"/>
    </g>
    <g transform="translate(0,108)" id="g52159">
      <g style="font-weight:bold;font-size:8px;font-family:Roboto, sans-serif;letter-spacing:2px;fill:#333333" id="text52155" transform="translate(11)" aria-label="FINE">
        <path id="path52433" style="font-weight:bold;font-size:8px;font-family:Roboto, sans-serif;letter-spacing:2px;fill:#333333" d="m 3.9296875,-2.3242188 h -2.25 V 0 h -1.171875 v -5.6875 h 3.703125 v 0.9492188 h -2.53125 v 1.4687499 h 2.25 z"/>
        <path id="path52435" style="font-weight:bold;font-size:8px;font-family:Roboto, sans-serif;letter-spacing:2px;fill:#333333" d="M 8.1445313,0 H 6.9726562 v -5.6875 h 1.1718751 z"/>
        <path id="path52437" style="font-weight:bold;font-size:8px;font-family:Roboto, sans-serif;letter-spacing:2px;fill:#333333" d="m 15.851563,0 h -1.171875 l -2.28125,-3.7421875 V 0 h -1.171875 v -5.6875 h 1.171875 l 2.285156,3.75 v -3.75 h 1.167969 z"/>
        <path id="path52439" style="font-weight:bold;font-size:8px;font-family:Roboto, sans-serif;letter-spacing:2px;fill:#333333" d="m 22.304687,-2.4648438 h -2.25 v 1.52343755 h 2.640625 V 0 h -3.8125 V -5.6875 H 22.6875 v 0.9492188 h -2.632813 v 1.3554687 h 2.25 z"/>
      </g>
      <g transform="translate(9.5,9.5)" id="g52157"/>
    </g>
  </g>
  <g transform="translate(0,80)" id="use52165">
    <g transform="translate(22.5,22.5)" id="g52265">
      <g transform="rotate(120,-7.5,4.330127)" id="g52219">
        <g style="font-weight:bold;font-size:6.66667px;font-family:Roboto, sans-serif;fill:#333333" id="text52217" transform="rotate(-120,2.7350853,-1.042265)" aria-label="C">
          <path id="path52383" style="font-weight:bold;font-size:6.66667px;font-family:Roboto, sans-serif;fill:#333333" d="M 4.1438822,-1.5787768 Q 4.0885436,-0.81380247 3.5774757,-0.37434914 3.0696629,0.0651042 2.2363292,0.0651042 q -0.9114588,0 -1.43554757,-0.61197946 Q 0.27994805,-1.1621099 0.27994805,-2.233074 v -0.2897137 q 0,-0.683594 0.24088553,-1.2044276 0.24088553,-0.5208336 0.68684932,-0.7975264 0.4492189,-0.2799481 1.0416671,-0.2799481 0.8203129,0 1.3216152,0.4394533 0.5013024,0.4394534 0.5794274,1.2337246 H 3.1738296 Q 3.1380223,-3.5904965 2.9166681,-3.7955747 2.698569,-4.0039082 2.24935,-4.0039082 q -0.4882815,0 -0.7324222,0.3515627 -0.2408855,0.3483075 -0.2473959,1.0839849 v 0.3580731 q 0,0.7682295 0.2311199,1.1230474 0.2343751,0.35481788 0.7356774,0.35481788 0.4524742,0 0.6738284,-0.20507823 0.2246095,-0.20833345 0.2571616,-0.64127635 z"/>
        </g>
      </g>
      <g transform="rotate(147.27,-7.5,2.2023926)" id="g52223">
        <path d="M 0,0 H 2.5" style="stroke:#333333;stroke-width:0.3" id="polyline52221"/>
      </g>
      <g transform="rotate(174.55,-7.5,0.35697086)" id="g52227">
        <g style="font-weight:bold;font-size:6.66667px;font-family:Roboto, sans-serif;fill:#333333" id="text52225" transform="rotate(-174.55,2.1523557,-1.0952404)" aria-label="D">
          <path id="path52387" style="font-weight:bold;font-size:6.66667px;font-family:Roboto, sans-serif;fill:#333333" d="M 0.42317729,0 V -4.7395856 H 1.8815113 q 0.6250003,0 1.116537,0.2832033 0.4947919,0.279948 0.7714847,0.8007816 0.2766929,0.5175784 0.2766929,1.178386 v 0.218099 q 0,0.6608076 -0.2734376,1.1751308 Q 3.5026058,-0.56966173 3.0078139,-0.28645847 2.513022,-0.00325521 1.8912769,0 Z M 1.3997403,-3.9485696 v 3.16406402 h 0.4720054 q 0.5729169,0 0.8756514,-0.37434912 0.3027346,-0.3743492 0.309245,-1.0709641 v -0.2506511 q 0,-0.7226566 -0.2994793,-1.0937506 -0.2994793,-0.3743491 -0.8756515,-0.3743491 z"/>
        </g>
      </g>
      <g transform="rotate(-158.18,-7.5,-1.4456299)" id="g52231">
        <path d="M 0,0 H 2.5" style="stroke:#333333;stroke-width:0.3" id="polyline52229"/>
      </g>
      <g transform="rotate(-130.91,-7.5,-3.4250633)" id="g52235">
        <g style="font-weight:bold;font-size:6.66667px;font-family:Roboto, sans-serif;fill:#333333" id="text52233" transform="rotate(130.91,1.5976574,-1.1456675)" aria-label="E">
          <path id="path52391" style="font-weight:bold;font-size:6.66667px;font-family:Roboto, sans-serif;fill:#333333" d="M 3.2747411,-2.0540374 H 1.3997403 v 1.26953182 H 3.6002621 V 0 H 0.42317729 V -4.7395856 H 3.5937517 v 0.791016 H 1.3997403 v 1.1295578 h 1.8750008 z"/>
        </g>
      </g>
      <g transform="rotate(-103.64,-7.5,-5.89768)" id="g52239">
        <g style="font-weight:bold;font-size:6.66667px;font-family:Roboto, sans-serif;fill:#333333" id="text52237" transform="rotate(103.64,1.2350069,-1.1786357)" aria-label="F">
          <path id="path52394" style="font-weight:bold;font-size:6.66667px;font-family:Roboto, sans-serif;fill:#333333" d="M 3.2747411,-1.9368499 H 1.3997403 V 0 H 0.42317729 V -4.7395856 H 3.5091163 v 0.791016 h -2.109376 v 1.2239589 h 1.8750008 z"/>
        </g>
      </g>
      <g transform="rotate(-76.36,-7.5,-9.5376487)" id="g52243">
        <path d="M 0,0 H 2.5" style="stroke:#333333;stroke-width:0.3" id="polyline52241"/>
      </g>
      <g transform="rotate(-49.09,-7.5,-16.423054)" id="g52247">
        <g style="font-weight:bold;font-size:6.66667px;font-family:Roboto, sans-serif;fill:#333333" id="text52245" transform="rotate(49.09,-0.30871459,-1.3189741)" aria-label="G">
          <path id="path52398" style="font-weight:bold;font-size:6.66667px;font-family:Roboto, sans-serif;fill:#333333" d="M 4.1731791,-0.59895862 Q 3.9095071,-0.28320326 3.427736,-0.10742193 2.9459649,0.0651042 2.3600272,0.0651042 q -0.6152347,0 -1.0807297,-0.26692721 Q 0.81705768,-0.47200543 0.56315131,-0.98307339 0.31250015,-1.4941413 0.30598973,-2.1842458 v -0.3222658 q 0,-0.7096358 0.23763032,-1.2272141 0.24088553,-0.5208336 0.69010445,-0.7942713 0.4524742,-0.2766928 1.0579433,-0.2766928 0.8430993,0 1.31836,0.403646 0.4752606,0.4003909 0.5631513,1.1686204 H 3.2226578 Q 3.1575536,-3.6393247 2.9329441,-3.8281268 2.7115898,-4.016929 2.3209646,-4.016929 q -0.4980471,0 -0.7584639,0.3743491 -0.2604167,0.3743492 -0.263672,1.1132818 v 0.3027345 q 0,0.7454431 0.2832033,1.1263027 0.2832033,0.38085952 0.8300785,0.38085952 0.5501305,0 0.7845056,-0.23437512 V -1.7708342 H 2.3079438 v -0.7194014 h 1.8652353 z"/>
        </g>
      </g>
      <g transform="rotate(-21.82,-7.5,-38.910373)" id="g52251">
        <path d="M 0,0 H 2.5" style="stroke:#333333;stroke-width:0.3" id="polyline52249"/>
      </g>
      <g transform="rotate(5.45,-7.5,157.57589)" id="g52255">
        <g style="font-weight:bold;font-size:6.66667px;font-family:Roboto, sans-serif;fill:#333333" id="text52253" transform="rotate(-5.45,25.21113,1.0010118)" aria-label="A">
          <path id="path52402" style="font-weight:bold;font-size:6.66667px;font-family:Roboto, sans-serif;fill:#333333" d="M 3.0989598,-0.97656297 H 1.3867194 L 1.0611984,0 H 0.02278647 L 1.7871102,-4.7395856 H 2.6920586 L 4.466148,0 H 3.427736 Z M 1.6503914,-1.767579 H 2.8352878 L 2.2395844,-3.5416684 Z"/>
        </g>
      </g>
      <g transform="rotate(32.73,-7.5,25.540406)" id="g52259">
        <path d="M 0,0 H 2.5" style="stroke:#333333;stroke-width:0.3" id="polyline52257"/>
      </g>
      <g transform="rotate(60,-7.5,12.990381)" id="g52263">
        <g style="font-weight:bold;font-size:6.66667px;font-family:Roboto, sans-serif;fill:#333333" id="text52261" transform="rotate(-60,4.0052559,-0.92679492)" aria-label="B">
          <path id="path52406" style="font-weight:bold;font-size:6.66667px;font-family:Roboto, sans-serif;fill:#333333" d="M 0.42317729,0 V -4.7395856 H 2.0833343 q 0.8626306,0 1.3085944,0.3320314 0.4459638,0.3287762 0.4459638,0.9667974 0,0.3483074 -0.1790366,0.6152346 -0.1790365,0.263672 -0.4980471,0.38737 0.3645835,0.091146 0.5729169,0.3678387 0.2115887,0.2766929 0.2115887,0.6770837 0,0.68359404 -0.4361981,1.03515671 Q 3.0729181,-0.00651042 2.2656261,0 Z M 1.3997403,-2.0638031 v 1.27929752 h 0.8365889 q 0.3450522,0 0.5371096,-0.1627605 0.1953126,-0.16601572 0.1953126,-0.45572942 0,-0.6510419 -0.6738284,-0.6608076 z m 0,-0.6901045 h 0.7226565 q 0.7389327,-0.013021 0.7389327,-0.589193 0,-0.3222657 -0.1888022,-0.4622398 -0.1855469,-0.1432292 -0.589193,-0.1432292 h -0.683594 z"/>
        </g>
      </g>
    </g>
  </g>
  <g transform="translate(0,134)" id="use52167">
    <g transform="translate(22.5,22.5)" id="g52301">
      <g transform="rotate(120,-7.5,4.330127)" id="g52271">
        <g style="font-weight:bold;font-size:6.66667px;font-family:Roboto, sans-serif;fill:#333333" id="text52269" transform="rotate(-120,2.7350853,-1.042265)" aria-label="1">
          <path id="path52359" style="font-weight:bold;font-size:6.66667px;font-family:Roboto, sans-serif;fill:#333333" d="M 2.6074231,0 H 1.6666675 V -3.6263038 L 0.54362005,-3.2779964 V -4.0429707 L 2.5065116,-4.746096 h 0.1009115 z"/>
        </g>
      </g>
      <g transform="rotate(162.86,-7.5,1.1302519)" id="g52275">
        <g style="font-weight:bold;font-size:6.66667px;font-family:Roboto, sans-serif;fill:#333333" id="text52273" transform="rotate(-162.86,2.2657703,-1.08493)" aria-label="2">
          <path id="path52362" style="font-weight:bold;font-size:6.66667px;font-family:Roboto, sans-serif;fill:#333333" d="M 3.5709652,0 H 0.32226578 V -0.64453156 L 1.8554696,-2.2786469 q 0.3157554,-0.3450523 0.465495,-0.6022138 0.1529949,-0.2571616 0.1529949,-0.4882815 0,-0.3157554 -0.1595053,-0.4947919 -0.1595053,-0.1822918 -0.4557294,-0.1822918 -0.3190105,0 -0.5045575,0.2213543 -0.1822917,0.218099 -0.1822917,0.5761721 H 0.22786469 q 0,-0.4329429 0.20507822,-0.791016 0.20833344,-0.3580731 0.58593779,-0.5598961 0.3776043,-0.2050782 0.8561202,-0.2050782 0.7324222,0 1.1360682,0.3515627 0.4069013,0.3515626 0.4069013,0.992839 0,0.3515627 -0.1822918,0.7161462 -0.1822917,0.3645835 -0.6250003,0.8496097 l -1.0774744,1.1360683 h 2.0377613 z"/>
        </g>
      </g>
      <g transform="rotate(-154.29,-7.5,-1.7115309)" id="g52279">
        <g style="font-weight:bold;font-size:6.66667px;font-family:Roboto, sans-serif;fill:#333333" id="text52277" transform="rotate(154.29,1.8489755,-1.1228204)" aria-label="3">
          <path id="path52365" style="font-weight:bold;font-size:6.66667px;font-family:Roboto, sans-serif;fill:#333333" d="m 1.2792975,-2.7864597 h 0.5013023 q 0.3580731,0 0.5305992,-0.1790365 0.1725261,-0.1790365 0.1725261,-0.4752606 0,-0.2864585 -0.1725261,-0.4459638 -0.1692709,-0.1595053 -0.4687502,-0.1595053 -0.2701824,0 -0.4524742,0.1497397 -0.1822917,0.1464844 -0.1822917,0.3841147 H 0.26692721 q 0,-0.3710939 0.1985678,-0.6640628 0.20182302,-0.2962241 0.55989609,-0.4622398 0.3613283,-0.1660157 0.7942712,-0.1660157 0.7519535,0 1.178386,0.3613283 0.4264325,0.3580731 0.4264325,0.9895838 0,0.325521 -0.1985678,0.5989586 -0.1985678,0.2734377 -0.5208336,0.4199221 0.4003908,0.1432292 0.5957034,0.4296877 0.1985678,0.2864585 0.1985678,0.6770837 0,0.63151068 -0.4622398,1.01237024 -0.4589846,0.38085956 -1.2174485,0.38085956 -0.7096357,0 -1.1621099,-0.37434914 Q 0.20833343,-0.68359408 0.20833343,-1.2988287 H 1.1490891 q 0,0.2669272 0.1985678,0.43619808 0.201823,0.16927091 0.4947919,0.16927091 0.3352866,0 0.5240888,-0.17578133 0.1920574,-0.17903656 0.1920574,-0.47200546 0,-0.7096357 -0.7812504,-0.7096357 H 1.2792975 Z"/>
        </g>
      </g>
      <g transform="rotate(-111.43,-7.5,-5.1132765)" id="g52283">
        <g style="font-weight:bold;font-size:6.66667px;font-family:Roboto, sans-serif;fill:#333333" id="text52281" transform="rotate(111.43,1.3500528,-1.168177)" aria-label="4">
          <path id="path52368" style="font-weight:bold;font-size:6.66667px;font-family:Roboto, sans-serif;fill:#333333" d="m 3.1054702,-1.783855 h 0.5371097 v 0.7584639 H 3.1054702 V 0 H 2.1647146 V -1.0253911 H 0.22135427 L 0.17903654,-1.6178393 2.1549489,-4.7395856 h 0.9505213 z m -1.9889332,0 h 1.0481776 v -1.6731779 l -0.061849,0.1074219 z"/>
        </g>
      </g>
      <g transform="rotate(-68.57,-7.5,-11.000774)" id="g52287">
        <g style="font-weight:bold;font-size:6.66667px;font-family:Roboto, sans-serif;fill:#333333" id="text52285" transform="rotate(68.57,0.48655311,-1.246677)" aria-label="5">
          <path id="path52371" style="font-weight:bold;font-size:6.66667px;font-family:Roboto, sans-serif;fill:#333333" d="M 0.4622398,-2.3307303 0.73567743,-4.7395856 H 3.3919287 V -3.95508 H 1.5071622 l -0.1171876,1.0188807 q 0.3352866,-0.1790366 0.712891,-0.1790366 0.6770836,0 1.0611984,0.4199221 0.3841148,0.4199221 0.3841148,1.1751308 0,0.4589846 -0.1953126,0.82356808 -0.1920574,0.3613283 -0.5533857,0.56315131 -0.3613283,0.19856781 -0.852865,0.19856781 -0.4296877,0 -0.7975264,-0.17252613 Q 0.78125037,-0.28320326 0.56640652,-0.59895862 0.35481788,-0.91471398 0.34179704,-1.31836 H 1.2727871 q 0.029297,0.2962241 0.2050782,0.4622398 0.1790365,0.16276049 0.465495,0.16276049 0.3190106,0 0.4915367,-0.22786469 0.1725261,-0.2311199 0.1725261,-0.651042 0,-0.403646 -0.1985678,-0.6184899 -0.1985678,-0.2148438 -0.5631513,-0.2148438 -0.3352866,0 -0.54362,0.1757813 l -0.091146,0.084636 z"/>
        </g>
      </g>
      <g transform="rotate(-25.71,-7.5,-32.865313)" id="g52291">
        <g style="font-weight:bold;font-size:6.66667px;font-family:Roboto, sans-serif;fill:#333333" id="text52289" transform="rotate(25.71,-2.7202459,-1.5382042)" aria-label="6">
          <path id="path52374" style="font-weight:bold;font-size:6.66667px;font-family:Roboto, sans-serif;fill:#333333" d="m 2.8743503,-4.7884137 v 0.7747399 h -0.091146 q -0.6380212,0.00977 -1.0286464,0.3320314 -0.3873699,0.3222658 -0.465495,0.8951827 0.3776044,-0.3841147 0.9537765,-0.3841147 0.6184899,0 0.9830734,0.4427085 0.3645835,0.4427086 0.3645835,1.1653652 0,0.4622398 -0.201823,0.8365889 Q 3.1901057,-0.35156267 2.822267,-0.14322923 2.4576835,0.0651042 1.9954437,0.0651042 q -0.7486983,0 -1.21093812,-0.52083358 Q 0.32552099,-0.97656297 0.32552099,-1.845704 v -0.3385418 q 0,-0.7714848 0.28971368,-1.3606778 0.29296889,-0.5924482 0.83658893,-0.9147139 0.5468753,-0.325521 1.2662767,-0.3287762 z m -0.9179692,2.373048 q -0.2278647,0 -0.4134116,0.1204427 -0.185547,0.1171876 -0.2734376,0.3125002 v 0.2864584 q 0,0.4720055 0.1855469,0.73893269 0.185547,0.263672 0.5208336,0.263672 0.3027345,0 0.4882815,-0.23763032 0.1888022,-0.24088557 0.1888022,-0.62174507 0,-0.38737 -0.1888022,-0.6250003 -0.1888022,-0.2376303 -0.5078128,-0.2376303 z"/>
        </g>
      </g>
      <g transform="rotate(17.14,-7.5,49.767668)" id="g52295">
        <g style="font-weight:bold;font-size:6.66667px;font-family:Roboto, sans-serif;fill:#333333" id="text52293" transform="rotate(-17.14,9.399258,-0.43643109)" aria-label="7">
          <path id="path52377" style="font-weight:bold;font-size:6.66667px;font-family:Roboto, sans-serif;fill:#333333" d="M 3.5449236,-4.2122416 1.7122404,0 H 0.71940138 L 2.5553398,-3.9778665 h -2.356772 v -0.7617191 h 3.3463558 z"/>
        </g>
      </g>
      <g transform="rotate(60,-7.5,12.990381)" id="g52299">
        <g style="font-weight:bold;font-size:6.66667px;font-family:Roboto, sans-serif;fill:#333333" id="text52297" transform="rotate(-60,4.0052559,-0.92679492)" aria-label="8">
          <path id="path52380" style="font-weight:bold;font-size:6.66667px;font-family:Roboto, sans-serif;fill:#333333" d="m 3.41146,-3.4798194 q 0,0.3450523 -0.1725262,0.6119795 -0.1725261,0.2669272 -0.4752606,0.4264325 0.3450522,0.1660157 0.5468753,0.4589846 0.201823,0.2897137 0.201823,0.6835941 0,0.63151067 -0.4296877,0.99934939 -0.4296877,0.36458351 -1.1686204,0.36458351 -0.7389326,0 -1.17187555,-0.36783872 -0.43294291,-0.36783872 -0.43294291,-0.99609418 0,-0.3938804 0.20182301,-0.6868493 Q 0.71289096,-2.2786469 1.054688,-2.4414074 0.75195348,-2.6009127 0.57942736,-2.8678399 0.41015645,-3.1347671 0.41015645,-3.4798194 q 0,-0.605469 0.40364602,-0.9635421 0.40364603,-0.3613283 1.09700573,-0.3613283 0.6901045,0 1.0937505,0.3580731 0.4069013,0.3548179 0.4069013,0.9667973 z m -0.8430994,2.1126312 q 0,-0.3092449 -0.1790365,-0.4947919 Q 2.2102875,-2.047527 1.907553,-2.047527 q -0.2994793,0 -0.4785159,0.1855469 -0.1790365,0.1822918 -0.1790365,0.4947919 0,0.3027346 0.1757813,0.48828153 0.1757814,0.18554696 0.4882815,0.18554696 0.3059897,0 0.4785159,-0.17903654 0.1757813,-0.17903655 0.1757813,-0.49479195 z m -0.097656,-2.0670582 q 0,-0.2766929 -0.1464844,-0.4427086 -0.1464845,-0.1692709 -0.4134117,-0.1692709 -0.263672,0 -0.4101564,0.1627605 -0.1464845,0.1627605 -0.1464845,0.449219 0,0.2832032 0.1464845,0.4557294 0.1464844,0.1725261 0.4134116,0.1725261 0.2669272,0 0.4101565,-0.1725261 0.1464844,-0.1725262 0.1464844,-0.4557294 z"/>
        </g>
      </g>
    </g>
  </g>
  <g transform="translate(0,188)" id="use52169">
    <g transform="translate(22.5,22.5)" id="g52325">
      <g transform="rotate(120,-7.5,4.330127)" id="g52307">
        <g style="font-weight:bold;font-size:6.66667px;font-family:Roboto, sans-serif;fill:#333333" id="text52305" transform="rotate(-120,2.6350853,-1.3886751)" aria-label="-">
          <path id="path52350" style="font-weight:bold;font-size:6.66667px;font-family:Roboto, sans-serif;fill:#333333" d="M 2.1907563,-1.6503914 H 0.35807309 V -2.4088553 H 2.1907563 Z"/>
        </g>
      </g>
      <g transform="rotate(-90,-7.5,-7.5)" id="g52311">
        <g style="font-weight:bold;font-size:6.66667px;font-family:Roboto, sans-serif;fill:#333333" id="text52309" transform="rotate(90,0.85,-1.05)" aria-label="0">
          <path id="path52353" style="font-weight:bold;font-size:6.66667px;font-family:Roboto, sans-serif;fill:#333333" d="m 3.5123715,-1.9596364 q 0,0.98307343 -0.4069013,1.50390702 Q 2.698569,0.0651042 1.9140634,0.0651042 q -0.7747399,0 -1.18489639,-0.51106795 Q 0.31901057,-0.95703171 0.30924494,-1.9108082 v -0.8723963 q 0,-0.992839 0.41015644,-1.5071621 0.41341162,-0.5143232 1.18815162,-0.5143232 0.7747399,0 1.1848964,0.511068 0.4101564,0.5078127 0.4199221,1.4615892 z M 2.5716158,-2.9166681 q 0,-0.5891929 -0.1627605,-0.8561202 Q 2.24935,-4.0429707 1.907553,-4.0429707 q -0.3320314,0 -0.4915367,0.2571616 -0.1562501,0.2539064 -0.1660157,0.7975264 v 1.1523443 q 0,0.5794274 0.1562501,0.86263064 0.1595053,0.27994805 0.5078127,0.27994805 0.3450523,0 0.4980471,-0.27018242 0.1529949,-0.27018237 0.1595053,-0.82682327 z"/>
        </g>
      </g>
      <g transform="rotate(60,-7.5,12.990381)" id="g52315">
        <g style="font-weight:bold;font-size:6.66667px;font-family:Roboto, sans-serif;fill:#333333" id="text52313" transform="rotate(-60,4.1052559,-1.6196152)" aria-label="+">
          <path id="path52356" style="font-weight:bold;font-size:6.66667px;font-family:Roboto, sans-serif;fill:#333333" d="m 2.2591157,-2.6529961 h 1.1751307 v 0.8496098 H 2.2591157 v 1.32812566 H 1.3639329 V -1.8033863 H 0.18554696 V -2.6529961 H 1.3639329 v -1.272787 h 0.8951828 z"/>
        </g>
      </g>
      <path d="M 0,-17.5 A 17.5,17.5 0 0 1 17.5,0" stroke-width="0.5" stroke-linecap="round" stroke="#333" fill="none" transform="rotate(20)" id="path52317"/>
      <path d="M 0,-17.5 A 17.5,17.5 0 0 1 17.5,0" stroke-width="0.5" stroke-linecap="round" stroke="#333" fill="none" transform="rotate(43)" id="path52319"/>
      <path d="M 0,-17.5 A 17.5,17.5 0 0 0 -17.5,0" stroke-width="0.5" stroke-linecap="round" stroke="#333" fill="none" transform="rotate(-20)" id="path52321"/>
      <path d="M 0,-17.5 A 17.5,17.5 0 0 0 -17.5,0" stroke-width="0.5" stroke-linecap="round" stroke="#333" fill="none" transform="rotate(-43)" id="path52323"/>
    </g>
  </g>
  <g transform="translate(0,235)" class="io-group" id="g52185">
    <path class="output-background" d="m 5,0 h 24 c 2.77,0 5,2.23 5,5 v 65 c 0,2.77 -2.23,5 -5,5 H 5 C 2.23,75 0,72.77 0,70 V 5 C 0,2.23 2.23,0 5,0 Z" style="fill:#bbbbbb" transform="translate(5.5)" id="rect52171"/>
    <g transform="translate(5.5,1)" id="g52177">
      <g transform="translate(5,3)" id="g52173"/>
      <g class="output-label" style="font-weight:bold;font-size:6.66667px;font-family:Roboto, sans-serif;letter-spacing:2px;fill:#333333" id="text52175" transform="translate(3,35)" aria-label="V/OCT">
        <path id="path52330" style="font-weight:bold;font-size:6.66667px;font-family:Roboto, sans-serif;letter-spacing:2px;fill:#333333" d="M 2.1744802,-1.1751308 3.2486995,-4.7395856 H 4.3359396 L 2.6855482,0 H 1.6666675 L 0.02278647,-4.7395856 H 1.1067714 Z"/>
        <path id="path52332" style="font-weight:bold;font-size:6.66667px;font-family:Roboto, sans-serif;letter-spacing:2px;fill:#333333" d="M 7.0195338,0.40690124 H 6.3196637 L 8.0644562,-4.7395856 h 0.6998701 z"/>
        <path id="path52334" style="font-weight:bold;font-size:6.66667px;font-family:Roboto, sans-serif;letter-spacing:2px;fill:#333333" d="m 15.16537,-2.2623709 q 0,0.6998702 -0.247396,1.2272142 -0.247396,0.52734396 -0.709636,0.81380243 -0.458984,0.28645847 -1.054688,0.28645847 -0.589193,0 -1.051432,-0.28320326 -0.46224,-0.28320326 -0.716147,-0.80729204 -0.253906,-0.527344 -0.257161,-1.2109381 v -0.2343751 q 0,-0.6998701 0.250651,-1.2304693 0.253906,-0.5338545 0.712891,-0.8170577 0.46224,-0.2864585 1.054688,-0.2864585 0.592448,0 1.051433,0.2864585 0.46224,0.2832032 0.712891,0.8170577 0.253906,0.5305992 0.253906,1.2272141 z m -0.989584,-0.2148438 q 0,-0.7454431 -0.266927,-1.1328131 -0.266927,-0.3873699 -0.761719,-0.3873699 -0.491537,0 -0.758464,0.3841147 -0.266927,0.3808596 -0.270182,1.1197922 v 0.2311199 q 0,0.7259118 0.266927,1.1263026 0.266927,0.40039087 0.768229,0.40039087 0.491537,0 0.755209,-0.38411477 0.263672,-0.38737 0.266927,-1.1263026 z"/>
        <path id="path52336" style="font-weight:bold;font-size:6.66667px;font-family:Roboto, sans-serif;letter-spacing:2px;fill:#333333" d="m 21.602222,-1.5787768 q -0.05534,0.76497433 -0.566407,1.20442766 -0.507812,0.43945334 -1.341146,0.43945334 -0.911459,0 -1.435548,-0.61197946 Q 17.738288,-1.1621099 17.738288,-2.233074 v -0.2897137 q 0,-0.683594 0.240885,-1.2044276 0.240886,-0.5208336 0.68685,-0.7975264 0.449219,-0.2799481 1.041667,-0.2799481 0.820313,0 1.321615,0.4394533 0.501302,0.4394534 0.579427,1.2337246 h -0.976563 q -0.03581,-0.4589846 -0.257161,-0.6640628 -0.218099,-0.2083335 -0.667318,-0.2083335 -0.488282,0 -0.732423,0.3515627 -0.240885,0.3483075 -0.247395,1.0839849 v 0.3580731 q 0,0.7682295 0.231119,1.1230474 0.234376,0.35481788 0.735678,0.35481788 0.452474,0 0.673828,-0.20507823 0.22461,-0.20833345 0.257162,-0.64127635 z"/>
        <path id="path52338" style="font-weight:bold;font-size:6.66667px;font-family:Roboto, sans-serif;letter-spacing:2px;fill:#333333" d="M 27.720063,-3.9485696 H 26.268239 V 0 h -0.976563 v -3.9485696 h -1.432292 v -0.791016 h 3.860679 z"/>
      </g>
    </g>
    <g transform="translate(5.5,39)" id="g52183">
      <g transform="translate(5)" id="g52179"/>
      <g class="output-label" style="font-weight:bold;font-size:6.66667px;font-family:Roboto, sans-serif;letter-spacing:2px;fill:#333333" id="text52181" transform="translate(6.5,32)" aria-label="SINE">
        <path id="path52341" style="font-weight:bold;font-size:6.66667px;font-family:Roboto, sans-serif;letter-spacing:2px;fill:#333333" d="m 2.8808607,-1.2434902 q 0,-0.2766928 -0.1953125,-0.4231773 Q 2.4902356,-1.8164071 1.9824228,-1.9791676 1.4746101,-2.1451833 1.178386,-2.3046886 0.37109393,-2.7408867 0.37109393,-3.4798194 q 0,-0.3841147 0.21484385,-0.683594 0.21809906,-0.3027346 0.62174512,-0.4720055 0.4069012,-0.1692709 0.9114587,-0.1692709 0.5078128,0 0.9049484,0.185547 0.3971356,0.1822917 0.6152347,0.5175783 0.2213542,0.3352867 0.2213542,0.7617192 H 2.884116 q 0,-0.325521 -0.2050783,-0.5045576 -0.2050782,-0.1822917 -0.5761721,-0.1822917 -0.3580731,0 -0.5566409,0.1529948 -0.1985678,0.1497397 -0.1985678,0.3971356 0,0.2311199 0.2311199,0.38737 0.2343751,0.1562501 0.6868493,0.2929689 0.8333337,0.2506512 1.2141933,0.6217451 0.3808595,0.3710939 0.3808595,0.9244796 0,0.61523467 -0.465495,0.96679734 -0.465495,0.34830746 -1.2532558,0.34830746 -0.5468753,0 -0.9960942,-0.19856781 Q 0.69661492,-0.33528662 0.45898459,-0.68359408 0.22460948,-1.0319015 0.22460948,-1.4908861 H 1.2044277 q 0,0.78450555 0.9375004,0.78450555 0.3483075,0 0.5436201,-0.13997402 0.1953125,-0.14322924 0.1953125,-0.39713563 z"/>
        <path id="path52343" style="font-weight:bold;font-size:6.66667px;font-family:Roboto, sans-serif;letter-spacing:2px;fill:#333333" d="M 7.5631536,0 H 6.5865907 v -4.7395856 h 0.9765629 z"/>
        <path id="path52345" style="font-weight:bold;font-size:6.66667px;font-family:Roboto, sans-serif;letter-spacing:2px;fill:#333333" d="M 14.319016,0 H 13.342453 L 11.44141,-3.1184911 V 0 h -0.976563 v -4.7395856 h 0.976563 l 1.904298,3.1250015 v -3.1250015 h 0.973308 z"/>
        <path id="path52347" style="font-weight:bold;font-size:6.66667px;font-family:Roboto, sans-serif;letter-spacing:2px;fill:#333333" d="m 20.029954,-2.0540374 h -1.875001 v 1.26953182 h 2.200522 V 0 H 17.17839 v -4.7395856 h 3.170574 v 0.791016 h -2.194011 v 1.1295578 h 1.875001 z"/>
      </g>
    </g>
  </g>
</svg>
