<?xml version="1.0" encoding="UTF-8" standalone="no"?>
<svg xmlns:dc="http://purl.org/dc/elements/1.1/" xmlns:cc="http://creativecommons.org/ns#" xmlns:rdf="http://www.w3.org/1999/02/22-rdf-syntax-ns#" xmlns:svg="http://www.w3.org/2000/svg" xmlns="http://www.w3.org/2000/svg" xmlns:sodipodi="http://sodipodi.sourceforge.net/DTD/sodipodi-0.dtd" xmlns:inkscape="http://www.inkscape.org/namespaces/inkscape" inkscape:version="1.0 (4035a4f, 2020-05-01)" sodipodi:docname="svg_render_SampleHold-pp.svg" id="svg54958" viewBox="0 0 45 380" height="380" width="45" version="1.1">
  <metadata id="metadata54964">
    <rdf:RDF>
      <cc:Work rdf:about="">
        <dc:format>image/svg+xml</dc:format>
        <dc:type rdf:resource="http://purl.org/dc/dcmitype/StillImage"/>
      </cc:Work>
    </rdf:RDF>
  </metadata>
  <defs id="defs54962"/>
  <sodipodi:namedview inkscape:current-layer="svg54958" inkscape:window-maximized="0" inkscape:window-y="23" inkscape:window-x="0" inkscape:cy="190" inkscape:cx="22.5" inkscape:zoom="1.7605263" showgrid="false" id="namedview54960" inkscape:window-height="480" inkscape:window-width="689" inkscape:pageshadow="2" inkscape:pageopacity="0" guidetolerance="10" gridtolerance="10" objecttolerance="10" borderopacity="1" bordercolor="#666666" pagecolor="#ffffff"/>
  
  <svg version="1.1" id="svg54836" width="100%" height="100%">
    <path class="module-background background-fill" d="M 0,0 H 45 V 380 H 0 Z" style="fill:#dddddd" id="rect54834"/>
  </svg>
  <svg version="1.1" id="svg54844" width="100%" height="100%">
    <path class="module-border-inner" d="M 1,1 H 44 V 379 H 1 V 1" style="fill:none;stroke:#e4e4e4;stroke-width:0.5" id="polyline54838"/>
    <path class="module-border-middle" d="m 0.5,0.5 h 44 v 379 H 0.5 V 0.5" style="fill:none;stroke:#ebebeb;stroke-width:0.8" id="polyline54840"/>
    <path class="module-border-outer" d="M 0,0 H 45 V 380 H 0 V 0" style="fill:none;stroke:#f2f2f2;stroke-width:1" id="polyline54842"/>
  </svg>
  <g transform="rotate(-90,194.5,181.5)" id="g54854">
    <g class="title" style="font-weight:normal;font-size:9.33333px;font-family:Comfortaa, sans-serif;letter-spacing:2.5px;fill:#333333" id="text54846" aria-label="S&amp;H">
      <path id="path55107" style="font-weight:normal;font-size:9.33333px;font-family:Comfortaa, sans-serif;letter-spacing:2.5px;fill:#333333" d="m 3.1733323,0.0933333 q -0.8866664,0 -1.5773328,-0.3733332 -0.68133314,-0.38266654 -0.97999971,-1.0266663 -0.0373333,-0.065333 -0.0373333,-0.1493333 0,-0.1306666 0.0933333,-0.2146666 0.10266663,-0.093333 0.27066658,-0.093333 0.11199995,0 0.20533325,0.065333 0.1026666,0.056 0.1493333,0.168 0.2146666,0.4199998 0.7093331,0.68133306 0.5039998,0.25199991 1.1666663,0.25199991 0.765333,0 1.2319995,-0.36399988 0.4666665,-0.37333319 0.4666665,-1.03599969 0,-0.5879998 -0.4386665,-0.9893329 Q 4.0039986,-3.3879988 3.1359989,-3.4999988 2.0533326,-3.6306654 1.4279995,-4.1719986 0.81199972,-4.7226651 0.81199972,-5.5159981 q 0,-0.5599998 0.29866658,-0.9799997 0.3079999,-0.4293332 0.8399997,-0.6533331 0.5413332,-0.2333333 1.2226663,-0.2333333 0.737333,0 1.2973328,0.3266666 0.5599999,0.3266666 0.8773331,0.849333 0.065333,0.1026667 0.065333,0.224 0,0.1773332 -0.168,0.2799999 -0.074667,0.037333 -0.1679999,0.037333 -0.1026666,0 -0.1959999,-0.046667 -0.084,-0.056 -0.14,-0.1493332 -0.5226665,-0.8213331 -1.5773328,-0.8306664 -0.7559997,0 -1.1946662,0.3173332 -0.4386666,0.3173332 -0.4386666,0.905333 0,1.0919997 1.7639994,1.3253329 1.157333,0.168 1.7266661,0.7093331 0.5693332,0.5413332 0.5693332,1.4279995 0,0.6533331 -0.3173333,1.12933297 Q 4.9559983,-0.4013332 4.4053318,-0.14933328 3.8546654,0.0933333 3.1733323,0.0933333 Z"/>
      <path id="path55109" style="font-weight:normal;font-size:9.33333px;font-family:Comfortaa, sans-serif;letter-spacing:2.5px;fill:#333333" d="m 14.88635,-0.6813331 q 0.14,0.13999995 0.14,0.25199991 0,0.0933333 -0.102667,0.19599994 -0.111999,0.11199996 -0.242666,0.11199996 -0.121333,0 -0.233333,-0.11199996 l -1.036,-1.03599965 -0.186667,0.1959999 q -0.522666,0.55999984 -1.035999,0.84933308 -0.513333,0.28933323 -1.12,0.28933323 -0.905333,0 -1.4373327,-0.47599984 -0.5319999,-0.47599983 -0.5319999,-1.25999957 0,-0.5786665 0.3546666,-1.0826663 0.3639999,-0.5133332 1.148,-1.1199996 l 0.112,-0.093333 -0.504,-0.5039998 q -0.644,-0.6439998 -0.644,-1.4093329 0,-0.4199999 0.2146666,-0.7559997 0.2146665,-0.3453333 0.5786664,-0.5413332 0.373333,-0.1959999 0.830666,-0.1959999 0.466667,0 0.84,0.2053332 0.382667,0.2053333 0.597333,0.5599999 0.214667,0.3546665 0.214667,0.793333 -0.0093,0.5133332 -0.289333,0.933333 -0.28,0.4106666 -0.849333,0.8586664 l -0.09333,0.074667 1.792,1.7919994 0.793333,-0.8399997 q 0.130666,-0.1399999 0.242666,-0.1399999 0.09333,0 0.196,0.093333 0.121334,0.1026666 0.121334,0.2333332 0,0.1026667 -0.112,0.2333333 l -0.802667,0.849333 z m -3.677332,-3.6679988 0.177333,-0.1399999 q 0.802667,-0.6346665 0.802667,-1.3346662 0,-0.4013332 -0.270667,-0.6719998 -0.261333,-0.2799999 -0.728,-0.2799999 -0.410666,0 -0.690666,0.2613333 -0.28,0.2613332 -0.28,0.6253331 0,0.2893332 0.112,0.5319998 0.121333,0.2426666 0.364,0.4946665 z m 1.763999,2.6413325 -1.857332,-1.8573327 -0.186667,0.1399999 q -0.597333,0.4759999 -0.868,0.8959997 -0.2706661,0.4199999 -0.2706661,0.8586664 0,0.5039998 0.3360001,0.81199973 0.345333,0.29866656 0.961333,0.29866656 0.457333,0 0.849333,-0.22399992 0.392,-0.23333327 0.84,-0.70933307 z"/>
      <path id="path55111" style="font-weight:normal;font-size:9.33333px;font-family:Comfortaa, sans-serif;letter-spacing:2.5px;fill:#333333" d="M 19.203579,0 Q 19.054246,0 18.942246,-0.10266663 18.839579,-0.21466659 18.839579,-0.36399988 V -6.925331 q 0,-0.1586666 0.102667,-0.2613332 0.112,-0.1026667 0.261333,-0.1026667 0.158667,0 0.261333,0.1026667 0.102667,0.1026666 0.102667,0.2613332 v 2.911999 h 4.554665 v -2.911999 q 0,-0.1586666 0.102667,-0.2613332 0.112,-0.1026667 0.261333,-0.1026667 0.158667,0 0.261333,0.1026667 0.102667,0.1026666 0.102667,0.2613332 v 6.56133112 q 0,0.14933329 -0.102667,0.26133325 Q 24.644911,0 24.486244,0 24.336911,0 24.224911,-0.10266663 24.122244,-0.21466659 24.122244,-0.36399988 V -3.3599989 h -4.554665 v 2.99599902 q 0,0.14933329 -0.102667,0.26133325 Q 19.362246,0 19.203579,0 Z"/>
    </g>
    <g transform="translate(0,12)" id="g54852">
      <g class="brand" style="font-weight:bold;font-size:9.33333px;font-family:Audiowide, sans-serif;letter-spacing:2px;fill:#333333" id="text54848" aria-label="BGA">
        <path id="path55114" style="font-weight:bold;font-size:9.33333px;font-family:Audiowide, sans-serif;letter-spacing:2px;fill:#333333" d="m 7.209633,-1.4355464 q 0,0.2187499 -0.077474,0.4694009 -0.072917,0.25065095 -0.2460936,0.46484359 Q 6.7174456,-0.28710928 6.4440082,-0.14127599 6.1705708,0 5.7740866,0 H 1.2760412 Q 1.1484371,0 1.0390621,-0.0455729 0.92968718,-0.0911458 0.84765596,-0.16861973 0.77018203,-0.25065096 0.72460913,-0.36002592 0.67903623,-0.46940088 0.67903623,-0.597005 v -5.341144 q 0,-0.1230469 0.0455729,-0.2324218 0.0455729,-0.109375 0.12304683,-0.1914062 0.0820312,-0.082031 0.19140614,-0.1276041 0.109375,-0.045573 0.2369791,-0.045573 h 3.9648424 q 0.21875,0 0.4694009,0.077474 0.250651,0.077474 0.4648436,0.250651 0.2187499,0.1686197 0.3600259,0.4420571 0.1458333,0.2734374 0.1458333,0.6699217 v 0.2233072 q 0,0.314453 -0.1048177,0.6790362 -0.1048176,0.3600259 -0.3372394,0.6835935 0.2005207,0.1230468 0.3736978,0.2962239 0.1777343,0.173177 0.3098957,0.4010415 0.1321614,0.2278645 0.2096353,0.5149738 0.077474,0.2871093 0.077474,0.6334633 z M 6.0247375,-1.6634109 q 0,-0.2324218 -0.072917,-0.4147134 Q 5.8789042,-2.2649732 5.7467428,-2.3971346 5.6145814,-2.529296 5.4277325,-2.5976554 5.2408836,-2.670572 5.0084618,-2.670572 h -2.670572 v -1.19401 h 2.1373691 q 0.2324218,0 0.4192707,-0.068359 0.1868489,-0.072917 0.3190103,-0.205078 0.1321614,-0.1321614 0.2005208,-0.314453 0.072917,-0.1868489 0.072917,-0.4192707 v -0.2233072 q 0,-0.2552083 -0.2460937,-0.2552083 H 1.8639317 v 4.1653632 h 3.9101549 q 0.031901,0 0.077474,-0.00456 0.045573,-0.00456 0.082031,-0.027344 0.036458,-0.022786 0.063802,-0.077474 0.027344,-0.054687 0.027344,-0.1503906 z"/>
        <path id="path55116" style="font-weight:bold;font-size:9.33333px;font-family:Audiowide, sans-serif;letter-spacing:2px;fill:#333333" d="m 16.683589,-0.597005 q 0,0.12760412 -0.04557,0.23697908 -0.04557,0.10937496 -0.127605,0.19140619 -0.07747,0.07747393 -0.186849,0.12304683 Q 16.214189,0 16.086584,0 h -4.274738 q -0.164062,0 -0.355468,-0.03645832 -0.186849,-0.04101561 -0.373698,-0.12304683 -0.182292,-0.0820312 -0.350911,-0.20963535 -0.16862,-0.13216141 -0.300782,-0.31445302 -0.127604,-0.18684889 -0.205078,-0.42838528 -0.07747,-0.2460937 -0.07747,-0.5514321 v -3.2083322 q 0,-0.1640625 0.03646,-0.3509114 0.04101,-0.1914062 0.123047,-0.3736978 0.08203,-0.1868489 0.214192,-0.3554686 0.132162,-0.1686197 0.314453,-0.2962238 0.186849,-0.1321615 0.428385,-0.2096354 0.241537,-0.077474 0.546875,-0.077474 h 4.817056 v 1.1848954 h -4.817056 q -0.232422,0 -0.355468,0.1230468 -0.123047,0.1230469 -0.123047,0.3645832 v 3.1992177 q 0,0.2278645 0.123047,0.3554686 0.127604,0.1230469 0.355468,0.1230469 h 3.686848 V -2.670572 h -3.153645 v -1.19401 h 3.741535 q 0.127605,0 0.236979,0.05013 0.109375,0.045573 0.186849,0.1276041 0.08203,0.082031 0.127605,0.1914062 0.04557,0.1048177 0.04557,0.2278645 z"/>
        <path id="path55118" style="font-weight:bold;font-size:9.33333px;font-family:Audiowide, sans-serif;letter-spacing:2px;fill:#333333" d="M 26.339836,0 H 25.154941 V -1.6041661 H 20.989578 V 0 h -1.184896 v -3.267577 q 0,-0.7154946 0.246094,-1.3170569 0.246094,-0.6015623 0.683593,-1.0345048 0.4375,-0.4329426 1.034505,-0.6744789 0.597005,-0.2415364 1.303385,-0.2415364 h 2.670572 q 0.123047,0 0.232422,0.045573 0.109375,0.045573 0.191406,0.1276041 0.08203,0.082031 0.127604,0.1914062 0.04557,0.1093749 0.04557,0.2324218 z m -5.350258,-2.7890616 h 4.165363 v -2.561197 h -2.082682 q -0.05469,0 -0.232422,0.018229 -0.173177,0.013672 -0.405598,0.077474 -0.227865,0.063802 -0.483073,0.1959635 -0.255208,0.1321614 -0.469401,0.3645832 -0.214193,0.2324218 -0.355469,0.5833331 -0.136718,0.3463541 -0.136718,0.8430987 z"/>
      </g>
      <path d="M 0,0 H 3 V 3 H 0 Z" style="fill:#dddddd" transform="translate(11.5,-5)" id="rect54850"/>
    </g>
  </g>
  <g transform="translate(0,23)" id="g54870">
    <g transform="translate(5.5)" id="g54868">
      <path d="M 0,0 H 34 V 10 H 0 Z" style="fill:#fafafa" transform="translate(0,58)" id="rect54858"/>
      <path d="m 5,0 h 24 c 2.77,0 5,2.23 5,5 v 52 c 0,2.77 -2.23,5 -5,5 H 5 C 2.23,62 0,59.77 0,57 V 5 C 0,2.23 2.23,0 5,0 Z" style="fill:#fafafa" id="rect54860"/>
      <g transform="translate(8,4)" id="g54862"/>
      <g transform="translate(5,26)" id="g54864"/>
      <g style="font-weight:bold;font-size:6.66667px;font-family:Roboto, sans-serif;letter-spacing:2px;fill:#333333" id="text54866" transform="translate(5.5,58)" aria-label="GATE">
        <path id="path55098" style="font-weight:bold;font-size:6.66667px;font-family:Roboto, sans-serif;letter-spacing:2px;fill:#333333" d="M 4.1731791,-0.59895862 Q 3.9095071,-0.28320326 3.427736,-0.10742193 2.9459649,0.0651042 2.3600272,0.0651042 q -0.6152347,0 -1.0807297,-0.26692721 Q 0.81705768,-0.47200543 0.56315131,-0.98307339 0.31250015,-1.4941413 0.30598973,-2.1842458 v -0.3222658 q 0,-0.7096358 0.23763032,-1.2272141 0.24088553,-0.5208336 0.69010445,-0.7942713 0.4524742,-0.2766928 1.0579433,-0.2766928 0.8430993,0 1.31836,0.403646 0.4752606,0.4003909 0.5631513,1.1686204 H 3.2226578 Q 3.1575536,-3.6393247 2.9329441,-3.8281268 2.7115898,-4.016929 2.3209646,-4.016929 q -0.4980471,0 -0.7584639,0.3743491 -0.2604167,0.3743492 -0.263672,1.1132818 v 0.3027345 q 0,0.7454431 0.2832033,1.1263027 0.2832033,0.38085952 0.8300785,0.38085952 0.5501305,0 0.7845056,-0.23437512 V -1.7708342 H 2.3079438 v -0.7194014 h 1.8652353 z"/>
        <path id="path55100" style="font-weight:bold;font-size:6.66667px;font-family:Roboto, sans-serif;letter-spacing:2px;fill:#333333" d="M 9.6432327,-0.97656297 H 7.9309923 L 7.6054713,0 H 6.5670594 L 8.3313831,-4.7395856 H 9.2363315 L 11.010421,0 H 9.9720089 Z M 8.1946643,-1.767579 H 9.3795607 L 8.7838573,-3.5416684 Z"/>
        <path id="path55102" style="font-weight:bold;font-size:6.66667px;font-family:Roboto, sans-serif;letter-spacing:2px;fill:#333333" d="M 16.636725,-3.9485696 H 15.184901 V 0 h -0.976562 v -3.9485696 h -1.432293 v -0.791016 h 3.860679 z"/>
        <path id="path55104" style="font-weight:bold;font-size:6.66667px;font-family:Roboto, sans-serif;letter-spacing:2px;fill:#333333" d="m 22.048184,-2.0540374 h -1.875001 v 1.26953182 h 2.200522 V 0 h -3.177084 v -4.7395856 h 3.170574 v 0.791016 h -2.194012 v 1.1295578 h 1.875001 z"/>
      </g>
    </g>
  </g>
  <g transform="translate(0,83)" id="g54904">
    <g transform="translate(5.5)" id="g54880">
      <path d="M 0,0 H 34 V 10 H 0 Z" style="fill:#fafafa" transform="translate(0,51)" id="rect54872"/>
      <path d="m 5,0 h 24 c 2.77,0 5,2.23 5,5 v 48 c 0,2.77 -2.23,5 -5,5 H 5 C 2.23,58 0,55.77 0,53 V 5 C 0,2.23 2.23,0 5,0 Z" style="fill:#fafafa" id="rect54874"/>
      <g transform="translate(5,3)" id="g54876"/>
      <g style="font-weight:bold;font-size:6.66667px;font-family:Roboto, sans-serif;letter-spacing:2px;fill:#333333" id="text54878" transform="translate(12.5,35)" aria-label="IN">
        <path id="path55068" style="font-weight:bold;font-size:6.66667px;font-family:Roboto, sans-serif;letter-spacing:2px;fill:#333333" d="M 1.4615892,0 H 0.48502627 V -4.7395856 H 1.4615892 Z"/>
        <path id="path55070" style="font-weight:bold;font-size:6.66667px;font-family:Roboto, sans-serif;letter-spacing:2px;fill:#333333" d="M 8.2174508,0 H 7.2408878 L 5.3398452,-3.1184911 V 0 h -0.976563 v -4.7395856 h 0.976563 l 1.9042978,3.1250015 v -3.1250015 h 0.9733078 z"/>
      </g>
    </g>
    <g transform="translate(9.5,41)" id="g54886">
      <g style="font-weight:bold;font-size:6.66667px;font-family:Roboto, sans-serif;letter-spacing:1px;fill:#333333" id="text54882" transform="translate(0,5.5)" aria-label="TRK">
        <path id="path55073" style="font-weight:bold;font-size:6.66667px;font-family:Roboto, sans-serif;letter-spacing:1px;fill:#333333" d="M 3.9908873,-3.9485696 H 2.5390637 V 0 H 1.5625007 V -3.9485696 H 0.1302084 v -0.791016 h 3.8606789 z"/>
        <path id="path55075" style="font-weight:bold;font-size:6.66667px;font-family:Roboto, sans-serif;letter-spacing:1px;fill:#333333" d="M 7.3053413,-1.7350269 H 6.5273462 V 0 h -0.976563 v -4.7395856 h 1.7610685 q 0.8398442,0 1.2955736,0.3743491 0.4557294,0.3743492 0.4557294,1.0579433 0,0.4850262 -0.2115887,0.8105472 -0.2083334,0.3222658 -0.6347659,0.5143232 l 1.0253911,1.93684986 V 0 H 8.1940136 Z M 6.5273462,-2.5260429 H 7.315107 q 0.3678387,0 0.5696617,-0.1855469 0.201823,-0.1888022 0.201823,-0.5175784 0,-0.3352866 -0.1920574,-0.527344 Q 7.7057321,-3.9485696 7.3118517,-3.9485696 H 6.5273462 Z"/>
        <path id="path55077" style="font-weight:bold;font-size:6.66667px;font-family:Roboto, sans-serif;letter-spacing:1px;fill:#333333" d="M 12.292973,-1.9010426 11.78516,-1.3541673 V 0 h -0.976563 v -4.7395856 h 0.976563 v 2.1484385 l 0.429688,-0.589193 1.207683,-1.5592455 h 1.201172 L 12.94076,-2.6334648 14.672531,0 h -1.16211 z"/>
      </g>
      <g transform="translate(17,-1.3)" id="g54884"/>
    </g>
    <g transform="translate(9.5,52)" id="g54892">
      <g style="font-weight:bold;font-size:6.66667px;font-family:Roboto, sans-serif;letter-spacing:1.2px;fill:#333333" id="text54888" transform="translate(1,5.5)" aria-label="INV">
        <path id="path55080" style="font-weight:bold;font-size:6.66667px;font-family:Roboto, sans-serif;letter-spacing:1.2px;fill:#333333" d="M 1.4615892,0 H 0.48502627 V -4.7395856 H 1.4615892 Z"/>
        <path id="path55082" style="font-weight:bold;font-size:6.66667px;font-family:Roboto, sans-serif;letter-spacing:1.2px;fill:#333333" d="M 7.417451,0 H 6.4408881 L 4.5398455,-3.1184911 V 0 h -0.976563 v -4.7395856 h 0.976563 l 1.9042978,3.1250015 V -4.7395856 H 7.417451 Z"/>
        <path id="path55084" style="font-weight:bold;font-size:6.66667px;font-family:Roboto, sans-serif;letter-spacing:1.2px;fill:#333333" d="m 11.228129,-1.1751308 1.074219,-3.5644548 h 1.087241 L 11.739197,0 H 10.720316 L 9.0764354,-4.7395856 H 10.16042 Z"/>
      </g>
      <g transform="translate(17,-1.3)" id="g54890"/>
    </g>
    <g transform="translate(5.5,64)" id="g54902">
      <path d="M 0,0 H 34 V 10 H 0 Z" style="fill:#bbbbbb" transform="translate(0,-3)" id="rect54894"/>
      <path d="m 5,0 h 24 c 2.77,0 5,2.23 5,5 v 25 c 0,2.77 -2.23,5 -5,5 H 5 C 2.23,35 0,32.77 0,30 V 5 C 0,2.23 2.23,0 5,0 Z" style="fill:#bbbbbb" id="rect54896"/>
      <g transform="translate(5)" id="g54898"/>
      <g style="font-weight:bold;font-size:6.66667px;font-family:Roboto, sans-serif;letter-spacing:2px;fill:#333333" id="text54900" transform="translate(8.3,32)" aria-label="OUT">
        <path id="path55089" style="font-weight:bold;font-size:6.66667px;font-family:Roboto, sans-serif;letter-spacing:2px;fill:#333333" d="m 4.3164083,-2.2623709 q 0,0.6998702 -0.2473959,1.2272142 -0.247396,0.52734396 -0.7096358,0.81380243 -0.4589846,0.28645847 -1.054688,0.28645847 -0.589193,0 -1.0514328,-0.28320326 Q 0.791016,-0.50130232 0.53710963,-1.0253911 0.28320326,-1.5527351 0.27994805,-2.2363292 v -0.2343751 q 0,-0.6998701 0.25065116,-1.2304693 0.25390637,-0.5338545 0.71289099,-0.8170577 0.4622398,-0.2864585 1.054688,-0.2864585 0.5924482,0 1.0514328,0.2864585 0.4622398,0.2832032 0.7128909,0.8170577 0.2539064,0.5305992 0.2539064,1.2272141 z M 3.3268245,-2.4772147 q 0,-0.7454431 -0.2669272,-1.1328131 -0.2669272,-0.3873699 -0.7617191,-0.3873699 -0.4915367,0 -0.7584639,0.3841147 -0.2669272,0.3808596 -0.2701824,1.1197922 v 0.2311199 q 0,0.7259118 0.2669272,1.1263026 0.2669272,0.40039087 0.7682295,0.40039087 0.4915367,0 0.7552087,-0.38411477 0.263672,-0.38737 0.2669272,-1.1263026 z"/>
        <path id="path55091" style="font-weight:bold;font-size:6.66667px;font-family:Roboto, sans-serif;letter-spacing:2px;fill:#333333" d="m 10.619796,-4.7395856 v 3.1217463 q 0,0.77799515 -0.488282,1.23046932 -0.4850258,0.45247418 -1.3281252,0.45247418 -0.8300785,0 -1.31836,-0.43945334 Q 6.9967474,-0.81380247 6.9869817,-1.582032 v -3.1575536 h 0.976563 v 3.1282567 q 0,0.465495 0.2213543,0.68033887 0.2246095,0.21158865 0.6184898,0.21158865 0.8235681,0 0.836589,-0.86588582 v -3.1542984 z"/>
        <path id="path55093" style="font-weight:bold;font-size:6.66667px;font-family:Roboto, sans-serif;letter-spacing:2px;fill:#333333" d="M 16.988288,-3.9485696 H 15.536464 V 0 h -0.976563 v -3.9485696 h -1.432292 v -0.791016 h 3.860679 z"/>
      </g>
    </g>
  </g>
  <g transform="translate(0,186)" id="g54920">
    <g transform="translate(5.5)" id="g54918">
      <path d="M 0,0 H 34 V 10 H 0 Z" style="fill:#fafafa" transform="translate(0,58)" id="rect54908"/>
      <path d="m 5,0 h 24 c 2.77,0 5,2.23 5,5 v 52 c 0,2.77 -2.23,5 -5,5 H 5 C 2.23,62 0,59.77 0,57 V 5 C 0,2.23 2.23,0 5,0 Z" style="fill:#fafafa" id="rect54910"/>
      <g transform="translate(8,4)" id="g54912"/>
      <g transform="translate(5,26)" id="g54914"/>
      <g style="font-weight:bold;font-size:6.66667px;font-family:Roboto, sans-serif;letter-spacing:2px;fill:#333333" id="text54916" transform="translate(5.5,58)" aria-label="GATE">
        <path id="path55057" style="font-weight:bold;font-size:6.66667px;font-family:Roboto, sans-serif;letter-spacing:2px;fill:#333333" d="M 4.1731791,-0.59895862 Q 3.9095071,-0.28320326 3.427736,-0.10742193 2.9459649,0.0651042 2.3600272,0.0651042 q -0.6152347,0 -1.0807297,-0.26692721 Q 0.81705768,-0.47200543 0.56315131,-0.98307339 0.31250015,-1.4941413 0.30598973,-2.1842458 v -0.3222658 q 0,-0.7096358 0.23763032,-1.2272141 0.24088553,-0.5208336 0.69010445,-0.7942713 0.4524742,-0.2766928 1.0579433,-0.2766928 0.8430993,0 1.31836,0.403646 0.4752606,0.4003909 0.5631513,1.1686204 H 3.2226578 Q 3.1575536,-3.6393247 2.9329441,-3.8281268 2.7115898,-4.016929 2.3209646,-4.016929 q -0.4980471,0 -0.7584639,0.3743491 -0.2604167,0.3743492 -0.263672,1.1132818 v 0.3027345 q 0,0.7454431 0.2832033,1.1263027 0.2832033,0.38085952 0.8300785,0.38085952 0.5501305,0 0.7845056,-0.23437512 V -1.7708342 H 2.3079438 v -0.7194014 h 1.8652353 z"/>
        <path id="path55059" style="font-weight:bold;font-size:6.66667px;font-family:Roboto, sans-serif;letter-spacing:2px;fill:#333333" d="M 9.6432327,-0.97656297 H 7.9309923 L 7.6054713,0 H 6.5670594 L 8.3313831,-4.7395856 H 9.2363315 L 11.010421,0 H 9.9720089 Z M 8.1946643,-1.767579 H 9.3795607 L 8.7838573,-3.5416684 Z"/>
        <path id="path55061" style="font-weight:bold;font-size:6.66667px;font-family:Roboto, sans-serif;letter-spacing:2px;fill:#333333" d="M 16.636725,-3.9485696 H 15.184901 V 0 h -0.976562 v -3.9485696 h -1.432293 v -0.791016 h 3.860679 z"/>
        <path id="path55063" style="font-weight:bold;font-size:6.66667px;font-family:Roboto, sans-serif;letter-spacing:2px;fill:#333333" d="m 22.048184,-2.0540374 h -1.875001 v 1.26953182 h 2.200522 V 0 h -3.177084 v -4.7395856 h 3.170574 v 0.791016 h -2.194012 v 1.1295578 h 1.875001 z"/>
      </g>
    </g>
  </g>
  <g transform="translate(0,246)" id="g54954">
    <g transform="translate(5.5)" id="g54930">
      <path d="M 0,0 H 34 V 10 H 0 Z" style="fill:#fafafa" transform="translate(0,51)" id="rect54922"/>
      <path d="m 5,0 h 24 c 2.77,0 5,2.23 5,5 v 48 c 0,2.77 -2.23,5 -5,5 H 5 C 2.23,58 0,55.77 0,53 V 5 C 0,2.23 2.23,0 5,0 Z" style="fill:#fafafa" id="rect54924"/>
      <g transform="translate(5,3)" id="g54926"/>
      <g style="font-weight:bold;font-size:6.66667px;font-family:Roboto, sans-serif;letter-spacing:2px;fill:#333333" id="text54928" transform="translate(12.5,35)" aria-label="IN">
        <path id="path55027" style="font-weight:bold;font-size:6.66667px;font-family:Roboto, sans-serif;letter-spacing:2px;fill:#333333" d="M 1.4615892,0 H 0.48502627 V -4.7395856 H 1.4615892 Z"/>
        <path id="path55029" style="font-weight:bold;font-size:6.66667px;font-family:Roboto, sans-serif;letter-spacing:2px;fill:#333333" d="M 8.2174508,0 H 7.2408878 L 5.3398452,-3.1184911 V 0 h -0.976563 v -4.7395856 h 0.976563 l 1.9042978,3.1250015 v -3.1250015 h 0.9733078 z"/>
      </g>
    </g>
    <g transform="translate(9.5,41)" id="g54936">
      <g style="font-weight:bold;font-size:6.66667px;font-family:Roboto, sans-serif;letter-spacing:1px;fill:#333333" id="text54932" transform="translate(0,5.5)" aria-label="TRK">
        <path id="path55032" style="font-weight:bold;font-size:6.66667px;font-family:Roboto, sans-serif;letter-spacing:1px;fill:#333333" d="M 3.9908873,-3.9485696 H 2.5390637 V 0 H 1.5625007 V -3.9485696 H 0.1302084 v -0.791016 h 3.8606789 z"/>
        <path id="path55034" style="font-weight:bold;font-size:6.66667px;font-family:Roboto, sans-serif;letter-spacing:1px;fill:#333333" d="M 7.3053413,-1.7350269 H 6.5273462 V 0 h -0.976563 v -4.7395856 h 1.7610685 q 0.8398442,0 1.2955736,0.3743491 0.4557294,0.3743492 0.4557294,1.0579433 0,0.4850262 -0.2115887,0.8105472 -0.2083334,0.3222658 -0.6347659,0.5143232 l 1.0253911,1.93684986 V 0 H 8.1940136 Z M 6.5273462,-2.5260429 H 7.315107 q 0.3678387,0 0.5696617,-0.1855469 0.201823,-0.1888022 0.201823,-0.5175784 0,-0.3352866 -0.1920574,-0.527344 Q 7.7057321,-3.9485696 7.3118517,-3.9485696 H 6.5273462 Z"/>
        <path id="path55036" style="font-weight:bold;font-size:6.66667px;font-family:Roboto, sans-serif;letter-spacing:1px;fill:#333333" d="M 12.292973,-1.9010426 11.78516,-1.3541673 V 0 h -0.976563 v -4.7395856 h 0.976563 v 2.1484385 l 0.429688,-0.589193 1.207683,-1.5592455 h 1.201172 L 12.94076,-2.6334648 14.672531,0 h -1.16211 z"/>
      </g>
      <g transform="translate(17,-1.3)" id="g54934"/>
    </g>
    <g transform="translate(9.5,52)" id="g54942">
      <g style="font-weight:bold;font-size:6.66667px;font-family:Roboto, sans-serif;letter-spacing:1.2px;fill:#333333" id="text54938" transform="translate(1,5.5)" aria-label="INV">
        <path id="path55039" style="font-weight:bold;font-size:6.66667px;font-family:Roboto, sans-serif;letter-spacing:1.2px;fill:#333333" d="M 1.4615892,0 H 0.48502627 V -4.7395856 H 1.4615892 Z"/>
        <path id="path55041" style="font-weight:bold;font-size:6.66667px;font-family:Roboto, sans-serif;letter-spacing:1.2px;fill:#333333" d="M 7.417451,0 H 6.4408881 L 4.5398455,-3.1184911 V 0 h -0.976563 v -4.7395856 h 0.976563 l 1.9042978,3.1250015 V -4.7395856 H 7.417451 Z"/>
        <path id="path55043" style="font-weight:bold;font-size:6.66667px;font-family:Roboto, sans-serif;letter-spacing:1.2px;fill:#333333" d="m 11.228129,-1.1751308 1.074219,-3.5644548 h 1.087241 L 11.739197,0 H 10.720316 L 9.0764354,-4.7395856 H 10.16042 Z"/>
      </g>
      <g transform="translate(17,-1.3)" id="g54940"/>
    </g>
    <g transform="translate(5.5,64)" id="g54952">
      <path d="M 0,0 H 34 V 10 H 0 Z" style="fill:#bbbbbb" transform="translate(0,-3)" id="rect54944"/>
      <path d="m 5,0 h 24 c 2.77,0 5,2.23 5,5 v 25 c 0,2.77 -2.23,5 -5,5 H 5 C 2.23,35 0,32.77 0,30 V 5 C 0,2.23 2.23,0 5,0 Z" style="fill:#bbbbbb" id="rect54946"/>
      <g transform="translate(5)" id="g54948"/>
      <g style="font-weight:bold;font-size:6.66667px;font-family:Roboto, sans-serif;letter-spacing:2px;fill:#333333" id="text54950" transform="translate(8.3,32)" aria-label="OUT">
        <path id="path55048" style="font-weight:bold;font-size:6.66667px;font-family:Roboto, sans-serif;letter-spacing:2px;fill:#333333" d="m 4.3164083,-2.2623709 q 0,0.6998702 -0.2473959,1.2272142 -0.247396,0.52734396 -0.7096358,0.81380243 -0.4589846,0.28645847 -1.054688,0.28645847 -0.589193,0 -1.0514328,-0.28320326 Q 0.791016,-0.50130232 0.53710963,-1.0253911 0.28320326,-1.5527351 0.27994805,-2.2363292 v -0.2343751 q 0,-0.6998701 0.25065116,-1.2304693 0.25390637,-0.5338545 0.71289099,-0.8170577 0.4622398,-0.2864585 1.054688,-0.2864585 0.5924482,0 1.0514328,0.2864585 0.4622398,0.2832032 0.7128909,0.8170577 0.2539064,0.5305992 0.2539064,1.2272141 z M 3.3268245,-2.4772147 q 0,-0.7454431 -0.2669272,-1.1328131 -0.2669272,-0.3873699 -0.7617191,-0.3873699 -0.4915367,0 -0.7584639,0.3841147 -0.2669272,0.3808596 -0.2701824,1.1197922 v 0.2311199 q 0,0.7259118 0.2669272,1.1263026 0.2669272,0.40039087 0.7682295,0.40039087 0.4915367,0 0.7552087,-0.38411477 0.263672,-0.38737 0.2669272,-1.1263026 z"/>
        <path id="path55050" style="font-weight:bold;font-size:6.66667px;font-family:Roboto, sans-serif;letter-spacing:2px;fill:#333333" d="m 10.619796,-4.7395856 v 3.1217463 q 0,0.77799515 -0.488282,1.23046932 -0.4850258,0.45247418 -1.3281252,0.45247418 -0.8300785,0 -1.31836,-0.43945334 Q 6.9967474,-0.81380247 6.9869817,-1.582032 v -3.1575536 h 0.976563 v 3.1282567 q 0,0.465495 0.2213543,0.68033887 0.2246095,0.21158865 0.6184898,0.21158865 0.8235681,0 0.836589,-0.86588582 v -3.1542984 z"/>
        <path id="path55052" style="font-weight:bold;font-size:6.66667px;font-family:Roboto, sans-serif;letter-spacing:2px;fill:#333333" d="M 16.988288,-3.9485696 H 15.536464 V 0 h -0.976563 v -3.9485696 h -1.432292 v -0.791016 h 3.860679 z"/>
      </g>
    </g>
  </g>
</svg>
