<?xml version="1.0" encoding="UTF-8" standalone="no"?>
<svg xmlns:dc="http://purl.org/dc/elements/1.1/" xmlns:cc="http://creativecommons.org/ns#" xmlns:rdf="http://www.w3.org/1999/02/22-rdf-syntax-ns#" xmlns:svg="http://www.w3.org/2000/svg" xmlns="http://www.w3.org/2000/svg" xmlns:sodipodi="http://sodipodi.sourceforge.net/DTD/sodipodi-0.dtd" xmlns:inkscape="http://www.inkscape.org/namespaces/inkscape" inkscape:version="1.0 (4035a4f, 2020-05-01)" sodipodi:docname="svg_render_Shaper-pp.svg" id="svg53244" viewBox="0 0 150 380" height="380" width="150" version="1.1">
  <metadata id="metadata53250">
    <rdf:RDF>
      <cc:Work rdf:about="">
        <dc:format>image/svg+xml</dc:format>
        <dc:type rdf:resource="http://purl.org/dc/dcmitype/StillImage"/>
      </cc:Work>
    </rdf:RDF>
  </metadata>
  <defs id="defs53248"/>
  <sodipodi:namedview inkscape:current-layer="svg53244" inkscape:window-maximized="0" inkscape:window-y="23" inkscape:window-x="0" inkscape:cy="190" inkscape:cx="75" inkscape:zoom="1.7605263" showgrid="false" id="namedview53246" inkscape:window-height="480" inkscape:window-width="689" inkscape:pageshadow="2" inkscape:pageopacity="0" guidetolerance="10" gridtolerance="10" objecttolerance="10" borderopacity="1" bordercolor="#666666" pagecolor="#ffffff"/>
  
  <path class="module-background background-fill" d="M 0,0 H 150 V 380 H 0 Z" style="fill:#dddddd" id="rect52752"/>
  <path class="module-border-inner" d="M 1,1 H 149 V 379 H 1 V 1" style="fill:none;stroke:#e4e4e4;stroke-width:0.5" id="polyline52754"/>
  <path class="module-border-middle" d="m 0.5,0.5 h 149 v 379 H 0.5 V 0.5" style="fill:none;stroke:#ebebeb;stroke-width:0.8" id="polyline52756"/>
  <path class="module-border-outer" d="M 0,0 H 150 V 380 H 0 V 0" style="fill:none;stroke:#f2f2f2;stroke-width:1" id="polyline52758"/>
  <g class="title" style="font-weight:normal;font-size:16px;font-family:Comfortaa, sans-serif;letter-spacing:4px;text-anchor:middle;fill:#333333" id="text52760" transform="translate(75.0 19)" aria-label="SHAPER">
    <path id="path53795" style="font-weight:normal;font-size:16px;font-family:Comfortaa, sans-serif;letter-spacing:4px;text-anchor:middle;fill:#333333" d="m -37.59125,0.16 q -1.52,0 -2.704,-0.64 -1.168,-0.656 -1.68,-1.76 -0.064,-0.112 -0.064,-0.256 0,-0.224 0.16,-0.368 0.176,-0.16 0.464,-0.16 0.192,0 0.352,0.112 0.176,0.096 0.256,0.288 0.368,0.72 1.216,1.168 0.864,0.432 2,0.432 1.312,0 2.112,-0.624 0.8,-0.64 0.8,-1.776 0,-1.008 -0.752,-1.696 -0.736,-0.688 -2.224,-0.88 -1.856,-0.224 -2.928,-1.152 -1.056,-0.944 -1.056,-2.304 0,-0.96 0.512,-1.68 0.528,-0.736 1.44,-1.12 0.928,-0.4 2.096,-0.4 1.264,0 2.224,0.56 0.96,0.56 1.504,1.456 0.112,0.176 0.112,0.384 0,0.304 -0.288,0.48 -0.128,0.064 -0.288,0.064 -0.176,0 -0.336,-0.08 -0.144,-0.096 -0.24,-0.256 -0.896,-1.408 -2.704,-1.424 -1.296,0 -2.048,0.544 -0.752,0.544 -0.752,1.552 0,1.872 3.024,2.272 1.984,0.288 2.96,1.216 0.976,0.928 0.976,2.448 0,1.12 -0.544,1.936 -0.544,0.816 -1.488,1.248 -0.944,0.416 -2.112,0.416 z"/>
    <path id="path53797" style="font-weight:normal;font-size:16px;font-family:Comfortaa, sans-serif;letter-spacing:4px;text-anchor:middle;fill:#333333" d="m -26.2135,0 q -0.256,0 -0.448,-0.176 -0.176,-0.192 -0.176,-0.448 v -11.248 q 0,-0.272 0.176,-0.448 0.192,-0.176 0.448,-0.176 0.272,0 0.448,0.176 0.176,0.176 0.176,0.448 v 4.992 h 7.808 v -4.992 q 0,-0.272 0.176,-0.448 0.192,-0.176 0.448,-0.176 0.272,0 0.448,0.176 0.176,0.176 0.176,0.448 v 11.248 q 0,0.256 -0.176,0.448 -0.176,0.176 -0.448,0.176 -0.256,0 -0.448,-0.176 -0.176,-0.192 -0.176,-0.448 V -5.76 h -7.808 v 5.136 q 0,0.256 -0.176,0.448 Q -25.9415,0 -26.2135,0 Z"/>
    <path id="path53799" style="font-weight:normal;font-size:16px;font-family:Comfortaa, sans-serif;letter-spacing:4px;text-anchor:middle;fill:#333333" d="m 0.0385,-0.88 q 0.064,0.112 0.064,0.256 0,0.256 -0.192,0.448 Q -0.2655,0 -0.5215,0 q -0.416,0 -0.592,-0.384 l -1.072,-2.592 h -6.192 l -1.072,2.592 Q -9.5775,0 -10.0255,0 q -0.272,0 -0.448,-0.176 -0.16,-0.192 -0.16,-0.448 0,-0.16 0.048,-0.272 l 4.704,-11.168 q 0.176,-0.432 0.608,-0.432 0.432,0 0.592,0.432 z m -2.656,-3.168 -2.656,-6.416 -2.656,6.416 z"/>
    <path id="path53801" style="font-weight:normal;font-size:16px;font-family:Comfortaa, sans-serif;letter-spacing:4px;text-anchor:middle;fill:#333333" d="m 6.5365,0 q -0.272,0 -0.448,-0.176 -0.176,-0.176 -0.176,-0.448 v -11.248 q 0,-0.272 0.176,-0.448 0.176,-0.176 0.448,-0.176 h 3.2 q 1.168,0 2.08,0.528 0.928,0.512 1.44,1.44 0.512,0.912 0.512,2.096 0,1.168 -0.512,2.08 -0.512,0.912 -1.44,1.424 -0.912,0.512 -2.08,0.512 h -2.576 v 3.792 q 0,0.272 -0.176,0.448 Q 6.8085,0 6.5365,0 Z m 3.2,-5.616 q 0.816,0 1.456,-0.352 0.64,-0.368 0.992,-1.008 0.368,-0.64 0.368,-1.456 0,-0.832 -0.368,-1.472 -0.352,-0.656 -0.992,-1.024 -0.64,-0.368 -1.456,-0.368 h -2.576 v 5.68 z"/>
    <path id="path53803" style="font-weight:normal;font-size:16px;font-family:Comfortaa, sans-serif;letter-spacing:4px;text-anchor:middle;fill:#333333" d="m 20.31775,0 q -0.256,0 -0.448,-0.176 -0.176,-0.192 -0.176,-0.448 v -11.248 q 0,-0.272 0.176,-0.448 0.192,-0.176 0.448,-0.176 h 7.504 q 0.272,0 0.448,0.176 0.176,0.176 0.176,0.432 0,0.256 -0.176,0.432 -0.176,0.16 -0.448,0.16 h -6.88 v 4.416 h 5.008 q 0.272,0 0.448,0.176 0.176,0.176 0.176,0.432 0,0.256 -0.192,0.432 -0.176,0.176 -0.432,0.176 h -5.008 V -1.2 h 6.88 q 0.272,0 0.448,0.176 0.176,0.16 0.176,0.416 0,0.256 -0.176,0.432 Q 28.09375,0 27.82175,0 Z"/>
    <path id="path53805" style="font-weight:normal;font-size:16px;font-family:Comfortaa, sans-serif;letter-spacing:4px;text-anchor:middle;fill:#333333" d="m 42.56425,-0.96 q 0.144,0.24 0.144,0.432 0,0.24 -0.176,0.384 -0.176,0.144 -0.464,0.144 -0.192,0 -0.32,-0.08 -0.128,-0.08 -0.224,-0.24 l -2.88,-4.576 h -0.272 -2.368 v 4.272 q 0,0.272 -0.176,0.448 -0.176,0.176 -0.448,0.176 -0.272,0 -0.448,-0.176 -0.176,-0.176 -0.176,-0.448 v -11.248 q 0,-0.272 0.176,-0.448 0.176,-0.176 0.448,-0.176 h 2.992 q 1.168,0 2.08,0.496 0.912,0.48 1.424,1.36 0.528,0.88 0.528,2 0,1.232 -0.672,2.16 -0.656,0.928 -1.792,1.328 z m -4.192,-5.136 q 0.8,0 1.44,-0.32 0.656,-0.336 1.008,-0.912 0.368,-0.576 0.368,-1.312 0,-0.768 -0.368,-1.376 -0.352,-0.608 -0.992,-0.944 -0.64,-0.336 -1.456,-0.336 h -2.368 v 5.2 z"/>
  </g>
  <g class="brand" style="font-weight:bold;font-size:10.6667px;font-family:Audiowide, sans-serif;letter-spacing:2px;text-anchor:middle;fill:#333333" id="text52762" aria-label="BOGAUDIO">
    <path id="path53778" style="font-weight:bold;font-size:10.6667px;font-family:Audiowide, sans-serif;letter-spacing:2px;text-anchor:middle;fill:#333333" d="m 43.57284,372.35937 q 0,0.25 -0.08854,0.53646 -0.08333,0.28646 -0.281251,0.53125 -0.192709,0.24479 -0.50521,0.41146 Q 42.385336,374 41.932209,374 h -5.140641 q -0.145834,0 -0.270834,-0.0521 -0.125001,-0.0521 -0.218751,-0.14063 -0.08854,-0.0937 -0.140625,-0.21875 -0.05208,-0.125 -0.05208,-0.27083 v -6.10419 q 0,-0.14063 0.05208,-0.26563 0.05208,-0.125 0.140625,-0.21875 0.09375,-0.0937 0.218751,-0.14583 0.125,-0.0521 0.270834,-0.0521 h 4.531264 q 0.250001,0 0.53646,0.0885 0.28646,0.0885 0.531252,0.28646 0.250001,0.19271 0.41146,0.50521 0.166667,0.3125 0.166667,0.76562 v 0.25521 q 0,0.35938 -0.119792,0.77605 -0.119792,0.41146 -0.385418,0.78125 0.229167,0.14063 0.427085,0.33854 0.203125,0.19792 0.354167,0.45834 0.151043,0.26042 0.239585,0.58854 0.08854,0.32813 0.08854,0.72396 z m -1.354171,-0.26042 q 0,-0.26562 -0.08333,-0.47396 -0.08333,-0.21354 -0.234376,-0.36458 -0.151042,-0.15104 -0.364584,-0.22917 -0.213543,-0.0833 -0.479168,-0.0833 h -3.052093 v -1.36459 h 2.442716 q 0.265625,0 0.479168,-0.0781 0.213542,-0.0833 0.364584,-0.23437 0.151042,-0.15104 0.229168,-0.35938 0.08333,-0.21354 0.08333,-0.47917 v -0.25521 q 0,-0.29166 -0.281251,-0.29166 h -3.859387 v 4.76043 h 4.468764 q 0.03646,0 0.08854,-0.005 0.05208,-0.005 0.09375,-0.0312 0.04167,-0.026 0.07292,-0.0885 0.03125,-0.0625 0.03125,-0.17188 z"/>
    <path id="path53780" style="font-weight:bold;font-size:10.6667px;font-family:Audiowide, sans-serif;letter-spacing:2px;text-anchor:middle;fill:#333333" d="m 54.583285,370.97916 q 0,0.68229 -0.234376,1.25521 -0.234375,0.57292 -0.651043,0.98959 -0.416668,0.41666 -0.989587,0.65104 -0.56771,0.22917 -1.239587,0.22917 h -1.833339 q -0.671877,0 -1.244796,-0.22917 -0.572918,-0.23438 -0.989586,-0.65104 -0.416668,-0.41667 -0.656252,-0.98959 -0.234376,-0.57292 -0.234376,-1.25521 v -1.42709 q 0,-0.67709 0.234376,-1.25 0.239584,-0.57813 0.656252,-0.98959 0.416668,-0.41667 0.989586,-0.65104 0.572919,-0.23438 1.244796,-0.23438 h 1.833339 q 0.671877,0 1.239587,0.23438 0.572919,0.23437 0.989587,0.65104 0.416668,0.41146 0.651043,0.98959 0.234376,0.57291 0.234376,1.25 z m -1.354171,-1.42709 q 0,-0.40104 -0.130209,-0.72396 -0.125,-0.32813 -0.359376,-0.55729 -0.229167,-0.23438 -0.557293,-0.35938 -0.322918,-0.13021 -0.713544,-0.13021 h -1.833339 q -0.395835,0 -0.723961,0.13021 -0.322918,0.125 -0.557293,0.35938 -0.234376,0.22916 -0.364585,0.55729 -0.125,0.32292 -0.125,0.72396 v 1.42709 q 0,0.40104 0.125,0.72917 0.130209,0.32291 0.364585,0.55729 0.234375,0.22917 0.557293,0.35938 0.328126,0.125 0.723961,0.125 h 1.822922 q 0.395835,0 0.718752,-0.125 0.328126,-0.13021 0.562502,-0.35938 0.234376,-0.23438 0.359376,-0.55729 0.130209,-0.32813 0.130209,-0.72917 z"/>
    <path id="path53782" style="font-weight:bold;font-size:10.6667px;font-family:Audiowide, sans-serif;letter-spacing:2px;text-anchor:middle;fill:#333333" d="m 65.302063,373.31771 q 0,0.14583 -0.05208,0.27083 -0.05208,0.125 -0.145834,0.21875 -0.08854,0.0885 -0.213543,0.14063 Q 64.765603,374 64.619769,374 h -4.885432 q -0.1875,0 -0.406251,-0.0417 -0.213542,-0.0469 -0.427085,-0.14062 -0.208334,-0.0937 -0.401043,-0.23959 -0.192709,-0.15104 -0.343751,-0.35937 -0.145834,-0.21354 -0.234376,-0.48959 -0.08854,-0.28125 -0.08854,-0.63021 v -3.66668 q 0,-0.1875 0.04167,-0.40104 0.04687,-0.21875 0.140626,-0.42708 0.09375,-0.21355 0.244792,-0.40625 0.151042,-0.19271 0.359376,-0.33855 0.213543,-0.15104 0.489585,-0.23958 0.276043,-0.0885 0.625002,-0.0885 h 5.505226 v 1.35417 h -5.505226 q -0.265626,0 -0.406251,0.14062 -0.140626,0.14063 -0.140626,0.41667 v 3.65626 q 0,0.26042 0.140626,0.40625 0.145834,0.14063 0.406251,0.14063 h 4.213555 v -1.69792 h -3.604178 v -1.36459 h 4.276055 q 0.145834,0 0.270834,0.0573 0.125001,0.0521 0.213543,0.14584 0.09375,0.0937 0.145834,0.21875 0.05208,0.11979 0.05208,0.26041 z"/>
    <path id="path53784" style="font-weight:bold;font-size:10.6667px;font-family:Audiowide, sans-serif;letter-spacing:2px;text-anchor:middle;fill:#333333" d="M 76.052091,374 H 74.69792 v -1.83334 H 69.937488 V 374 h -1.354171 v -3.73439 q 0,-0.81771 0.281251,-1.50521 0.281251,-0.6875 0.781253,-1.1823 0.500001,-0.49479 1.182295,-0.77083 0.682294,-0.27604 1.489588,-0.27604 h 3.052093 q 0.140626,0 0.265626,0.0521 0.125,0.0521 0.218751,0.14583 0.09375,0.0937 0.145833,0.21875 0.05208,0.125 0.05208,0.26563 z m -6.114603,-3.18751 h 4.760432 v -2.92709 h -2.380216 q -0.0625,0 -0.265626,0.0208 -0.197917,0.0156 -0.463543,0.0885 -0.260417,0.0729 -0.552085,0.22396 -0.291667,0.15104 -0.53646,0.41667 -0.244792,0.26563 -0.406251,0.66667 -0.156251,0.39583 -0.156251,0.96354 z"/>
    <path id="path53786" style="font-weight:bold;font-size:10.6667px;font-family:Audiowide, sans-serif;letter-spacing:2px;text-anchor:middle;fill:#333333" d="m 86.937537,373.31771 q 0,0.14583 -0.05208,0.27083 -0.05208,0.125 -0.145833,0.21875 -0.09375,0.0885 -0.218751,0.14063 Q 86.395868,374 86.255243,374 H 83.20315 q -0.432293,0 -0.875003,-0.0937 -0.442709,-0.0937 -0.859377,-0.28646 -0.41146,-0.19792 -0.776045,-0.5 -0.364584,-0.30209 -0.640627,-0.71355 -0.270834,-0.41666 -0.427084,-0.94791 -0.156251,-0.53646 -0.156251,-1.19272 v -3.73438 h 1.354171 v 3.73438 q 0,0.57292 0.156251,0.96876 0.161459,0.39583 0.406251,0.66146 0.244792,0.26562 0.53646,0.41666 0.291668,0.15105 0.552085,0.22396 0.265626,0.0729 0.463543,0.0937 0.203126,0.0156 0.265626,0.0156 h 2.380216 v -6.1146 h 1.354171 z"/>
    <path id="path53788" style="font-weight:bold;font-size:10.6667px;font-family:Audiowide, sans-serif;letter-spacing:2px;text-anchor:middle;fill:#333333" d="m 97.968813,370.87499 q 0,0.68229 -0.239584,1.25521 -0.234376,0.57292 -0.651044,0.98959 -0.416668,0.41146 -0.989587,0.64583 Q 95.51568,374 94.843803,374 h -3.656262 q -0.145834,0 -0.270834,-0.0521 -0.125,-0.0521 -0.218751,-0.14063 -0.08854,-0.0937 -0.140625,-0.21875 -0.05208,-0.125 -0.05208,-0.27083 v -6.10419 q 0,-0.14063 0.05208,-0.26563 0.05208,-0.125 0.140625,-0.21875 0.09375,-0.0937 0.218751,-0.14583 0.125,-0.0521 0.270834,-0.0521 h 3.656262 q 0.671877,0 1.244795,0.23437 0.572919,0.23438 0.989587,0.65105 0.416668,0.41146 0.651044,0.98958 0.239584,0.57292 0.239584,1.25001 z m -1.354171,-1.21875 q 0,-0.39584 -0.130209,-0.72396 -0.125,-0.32813 -0.359376,-0.5573 -0.234376,-0.23437 -0.562502,-0.35937 -0.322918,-0.13021 -0.718752,-0.13021 h -2.984385 v 4.76043 h 2.984385 q 0.395834,0 0.718752,-0.125 0.328126,-0.13021 0.562502,-0.35938 0.234376,-0.23437 0.359376,-0.55729 0.130209,-0.32813 0.130209,-0.72917 z"/>
    <path id="path53790" style="font-weight:bold;font-size:10.6667px;font-family:Audiowide, sans-serif;letter-spacing:2px;text-anchor:middle;fill:#333333" d="m 102.67195,374 h -1.35417 v -7.46877 h 1.35417 z"/>
    <path id="path53792" style="font-weight:bold;font-size:10.6667px;font-family:Audiowide, sans-serif;letter-spacing:2px;text-anchor:middle;fill:#333333" d="m 114.10427,370.97916 q 0,0.68229 -0.23438,1.25521 -0.23437,0.57292 -0.65104,0.98959 -0.41667,0.41666 -0.98959,0.65104 -0.56771,0.22917 -1.23958,0.22917 h -1.83334 q -0.67188,0 -1.2448,-0.22917 -0.57292,-0.23438 -0.98959,-0.65104 -0.41666,-0.41667 -0.65625,-0.98959 -0.23437,-0.57292 -0.23437,-1.25521 v -1.42709 q 0,-0.67709 0.23437,-1.25 0.23959,-0.57813 0.65625,-0.98959 0.41667,-0.41667 0.98959,-0.65104 0.57292,-0.23438 1.2448,-0.23438 h 1.83334 q 0.67187,0 1.23958,0.23438 0.57292,0.23437 0.98959,0.65104 0.41667,0.41146 0.65104,0.98959 0.23438,0.57291 0.23438,1.25 z m -1.35417,-1.42709 q 0,-0.40104 -0.13021,-0.72396 -0.125,-0.32813 -0.35938,-0.55729 -0.22916,-0.23438 -0.55729,-0.35938 -0.32292,-0.13021 -0.71354,-0.13021 h -1.83334 q -0.39584,0 -0.72396,0.13021 -0.32292,0.125 -0.5573,0.35938 -0.23437,0.22916 -0.36458,0.55729 -0.125,0.32292 -0.125,0.72396 v 1.42709 q 0,0.40104 0.125,0.72917 0.13021,0.32291 0.36458,0.55729 0.23438,0.22917 0.5573,0.35938 0.32812,0.125 0.72396,0.125 h 1.82292 q 0.39583,0 0.71875,-0.125 0.32813,-0.13021 0.5625,-0.35938 0.23438,-0.23438 0.35938,-0.55729 0.13021,-0.32813 0.13021,-0.72917 z"/>
  </g>
  <path class="background-fill" d="m 59.5,369 h 3 v 3 h -3 z" style="fill:#dddddd" id="rect52764"/>
  <g transform="translate(9,33)" id="g52786">
    <g id="g52774">
      <g style="font-weight:bold;font-size:10.6667px;font-family:Roboto, sans-serif;letter-spacing:2px;fill:#333333" id="text52768" transform="rotate(-90,25.75,17.75)" aria-label="ATTACK">
        <path id="path53748" style="font-weight:bold;font-size:10.6667px;font-family:Roboto, sans-serif;letter-spacing:2px;fill:#333333" d="M 4.958349,-1.5625049 H 2.218757 L 1.697922,0 H 0.03645845 L 2.859384,-7.5833573 H 4.3073053 L 7.1458559,0 H 5.4843923 Z m -2.3177157,-1.265629 h 1.8958394 l -0.953128,-2.8385507 z"/>
        <path id="path53750" style="font-weight:bold;font-size:10.6667px;font-family:Roboto, sans-serif;letter-spacing:2px;fill:#333333" d="M 14.947958,-6.3177283 H 12.625034 V 0 H 11.062529 V -6.3177283 H 8.770855 v -1.265629 h 6.177103 z"/>
        <path id="path53752" style="font-weight:bold;font-size:10.6667px;font-family:Roboto, sans-serif;letter-spacing:2px;fill:#333333" d="M 23.635479,-6.3177283 H 21.312555 V 0 H 19.75005 v -6.3177283 h -2.291674 v -1.265629 h 6.177103 z"/>
        <path id="path53754" style="font-weight:bold;font-size:10.6667px;font-family:Roboto, sans-serif;letter-spacing:2px;fill:#333333" d="M 30.187576,-1.5625049 H 27.447984 L 26.927149,0 h -1.661463 l 2.822925,-7.5833573 h 1.447921 L 32.375083,0 h -1.661464 z m -2.317716,-1.265629 h 1.89584 l -0.953128,-2.8385507 z"/>
        <path id="path53756" style="font-weight:bold;font-size:10.6667px;font-family:Roboto, sans-serif;letter-spacing:2px;fill:#333333" d="m 40.942813,-2.5260496 q -0.08854,1.2239622 -0.906253,1.92708937 -0.812502,0.70312723 -2.14584,0.70312723 -1.458338,0 -2.296882,-0.97916976 Q 34.760502,-1.8593809 34.760502,-3.572928 v -0.4635431 q 0,-1.0937534 0.385418,-1.9270894 0.385418,-0.833336 1.098962,-1.2760457 0.718752,-0.4479181 1.666672,-0.4479181 1.312504,0 2.11459,0.7031272 0.802086,0.7031273 0.927086,1.9739646 h -1.562505 q -0.05729,-0.7343773 -0.41146,-1.0625034 -0.348959,-0.3333343 -1.067711,-0.3333343 -0.781253,0 -1.171879,0.5625017 -0.385418,0.5572935 -0.395835,1.7343805 v 0.5729185 q 0,1.2291705 0.369793,1.7968807 0.375001,0.5677101 1.177087,0.5677101 0.723961,0 1.078129,-0.328126 0.359376,-0.3333344 0.411459,-1.0260449 z"/>
        <path id="path53758" style="font-weight:bold;font-size:10.6667px;font-family:Roboto, sans-serif;letter-spacing:2px;fill:#333333" d="m 46.343864,-3.0416763 -0.812503,0.8750028 V 0 h -1.562505 v -7.5833573 h 1.562505 v 3.4375109 l 0.687503,-0.9427113 1.932297,-2.4947996 h 1.921881 L 47.380326,-4.213555 50.151168,0 h -1.859381 z"/>
      </g>
      <g transform="translate(20)" id="g52770"/>
      <g transform="translate(3,47)" id="g52772"/>
    </g>
    <g class="io-group" transform="translate(74,4)" id="g52784">
      <path class="input-background" d="m 5,0 h 48 c 2.77,0 5,2.23 5,5 v 30 c 0,2.77 -2.23,5 -5,5 H 5 C 2.23,40 0,37.77 0,35 V 5 C 0,2.23 2.23,0 5,0 Z" style="fill:#fafafa" id="rect52776"/>
      <g transform="matrix(0.18,0,0,0.18,6,6)" id="g52778"/>
      <g transform="translate(31,3)" id="g52780"/>
      <g class="input-label" style="font-weight:bold;font-size:8px;font-family:Roboto, sans-serif;letter-spacing:2px;fill:#333333" id="text52782" transform="translate(6,36)" aria-label="TRIGGER">
        <path id="path53762" style="font-weight:bold;font-size:8px;font-family:Roboto, sans-serif;letter-spacing:2px;fill:#333333" d="M 4.7890625,-4.7382812 H 3.046875 V 0 H 1.875 V -4.7382812 H 0.15625 V -5.6875 h 4.6328125 z"/>
        <path id="path53764" style="font-weight:bold;font-size:8px;font-family:Roboto, sans-serif;letter-spacing:2px;fill:#333333" d="M 9.5664063,-2.0820313 H 8.6328125 V 0 h -1.171875 v -5.6875 h 2.1132813 q 1.0078122,0 1.5546872,0.4492188 0.546875,0.4492187 0.546875,1.2695312 0,0.5820312 -0.253906,0.9726562 -0.25,0.3867188 -0.761719,0.6171875 l 1.230469,2.3242188 V 0 H 10.632813 Z M 8.6328125,-3.03125 H 9.578125 q 0.441406,0 0.683594,-0.2226563 0.242187,-0.2265625 0.242187,-0.6210937 0,-0.4023437 -0.230468,-0.6328125 -0.226563,-0.2304687 -0.6992192,-0.2304687 H 8.6328125 Z"/>
        <path id="path53766" style="font-weight:bold;font-size:8px;font-family:Roboto, sans-serif;letter-spacing:2px;fill:#333333" d="m 15.816406,0 h -1.171875 v -5.6875 h 1.171875 z"/>
        <path id="path53768" style="font-weight:bold;font-size:8px;font-family:Roboto, sans-serif;letter-spacing:2px;fill:#333333" d="m 23.398437,-0.71875 q -0.316406,0.37890625 -0.894531,0.58984375 -0.578125,0.20703125 -1.28125,0.20703125 -0.738281,0 -1.296875,-0.3203125 -0.554687,-0.32421875 -0.859375,-0.9375 -0.300781,-0.6132812 -0.308594,-1.4414063 v -0.3867187 q 0,-0.8515625 0.285157,-1.4726562 0.289062,-0.625 0.828125,-0.953125 0.542968,-0.3320313 1.269531,-0.3320313 1.011719,0 1.582031,0.484375 0.570313,0.4804688 0.675781,1.4023437 h -1.140625 q -0.07813,-0.4882812 -0.347656,-0.7148437 -0.265625,-0.2265625 -0.734375,-0.2265625 -0.597656,0 -0.910156,0.4492188 -0.3125,0.4492187 -0.316406,1.3359374 v 0.3632813 q 0,0.8945313 0.339843,1.3515625 0.339844,0.45703125 0.996094,0.45703125 0.660156,0 0.941406,-0.28124995 V -2.125 h -1.066406 v -0.8632813 h 2.238281 z"/>
        <path id="path53770" style="font-weight:bold;font-size:8px;font-family:Roboto, sans-serif;letter-spacing:2px;fill:#333333" d="m 30.851562,-0.71875 q -0.316406,0.37890625 -0.894531,0.58984375 -0.578125,0.20703125 -1.28125,0.20703125 -0.738281,0 -1.296875,-0.3203125 -0.554687,-0.32421875 -0.859375,-0.9375 -0.300781,-0.6132812 -0.308594,-1.4414063 v -0.3867187 q 0,-0.8515625 0.285157,-1.4726562 0.289062,-0.625 0.828125,-0.953125 0.542968,-0.3320313 1.269531,-0.3320313 1.011719,0 1.582031,0.484375 0.570313,0.4804688 0.675781,1.4023437 h -1.140625 q -0.07813,-0.4882812 -0.347656,-0.7148437 -0.265625,-0.2265625 -0.734375,-0.2265625 -0.597656,0 -0.910156,0.4492188 -0.3125,0.4492187 -0.316406,1.3359374 v 0.3632813 q 0,0.8945313 0.339843,1.3515625 0.339844,0.45703125 0.996094,0.45703125 0.660156,0 0.941406,-0.28124995 V -2.125 h -1.066406 v -0.8632813 h 2.238281 z"/>
        <path id="path53772" style="font-weight:bold;font-size:8px;font-family:Roboto, sans-serif;letter-spacing:2px;fill:#333333" d="m 37.226562,-2.4648438 h -2.25 v 1.52343755 h 2.640625 V 0 h -3.8125 v -5.6875 h 3.804688 v 0.9492188 h -2.632813 v 1.3554687 h 2.25 z"/>
        <path id="path53774" style="font-weight:bold;font-size:8px;font-family:Roboto, sans-serif;letter-spacing:2px;fill:#333333" d="M 42.410156,-2.0820313 H 41.476562 V 0 h -1.171875 v -5.6875 h 2.113282 q 1.007812,0 1.554687,0.4492188 0.546875,0.4492187 0.546875,1.2695312 0,0.5820312 -0.253906,0.9726562 -0.25,0.3867188 -0.761719,0.6171875 l 1.230469,2.3242188 V 0 H 43.476562 Z M 41.476562,-3.03125 h 0.945313 q 0.441406,0 0.683594,-0.2226563 0.242187,-0.2265625 0.242187,-0.6210937 0,-0.4023437 -0.230469,-0.6328125 -0.226562,-0.2304687 -0.699218,-0.2304687 h -0.941407 z"/>
      </g>
    </g>
  </g>
  <g transform="translate(9,89)" id="g52806">
    <g id="g52794">
      <g style="font-weight:bold;font-size:10.6667px;font-family:Roboto, sans-serif;letter-spacing:2px;fill:#333333" id="text52788" transform="rotate(-90,18,10)" aria-label="ON">
        <path id="path53720" style="font-weight:bold;font-size:10.6667px;font-family:Roboto, sans-serif;letter-spacing:2px;fill:#333333" d="m 6.9062718,-3.6198031 q 0,1.1197952 -0.3958346,1.9635479 Q 6.1146026,-0.81250257 5.375017,-0.35416779 4.6406397,0.104167 3.6875116,0.104167 q -0.9427113,0 -1.6822969,-0.45312644 Q 1.265629,-0.80208587 0.85937771,-1.6406302 0.45312643,-2.4843828 0.44791808,-3.5781363 v -0.3750012 q 0,-1.1197952 0.40104294,-1.9687562 0.40625128,-0.8541694 1.14062858,-1.3072958 0.7395857,-0.4583348 1.6875053,-0.4583348 0.9479197,0 1.682297,0.4583348 0.7395857,0.4531264 1.1406286,1.3072958 0.4062513,0.848961 0.4062513,1.9635479 z M 5.3229335,-3.9635542 q 0,-1.1927121 -0.4270847,-1.8125057 -0.4270847,-0.6197936 -1.2187539,-0.6197936 -0.7864608,0 -1.2135455,0.6145852 -0.4270846,0.609377 -0.432293,1.7916724 v 0.3697928 q 0,1.161462 0.4270847,1.802089 0.4270847,0.640627 1.2291705,0.640627 0.7864609,0 1.2083372,-0.6145852 0.4218763,-0.6197937 0.4270847,-1.8020891 z"/>
        <path id="path53722" style="font-weight:bold;font-size:10.6667px;font-family:Roboto, sans-serif;letter-spacing:2px;fill:#333333" d="M 16.218795,0 H 14.65629 L 11.614613,-4.9895991 V 0 h -1.562505 v -7.5833573 h 1.562505 l 3.046885,5.0000158 v -5.0000158 h 1.557297 z"/>
      </g>
      <g transform="translate(20)" id="g52790"/>
      <g transform="translate(3,32)" id="g52792"/>
    </g>
    <g transform="translate(110,5)" id="g52804">
      <g style="font-weight:bold;font-size:6.66667px;font-family:Roboto, sans-serif;letter-spacing:2px;fill:#333333" id="text52796" transform="rotate(-90,10.25,18.25)" aria-label="SPEED">
        <path id="path53725" style="font-weight:bold;font-size:6.66667px;font-family:Roboto, sans-serif;letter-spacing:2px;fill:#333333" d="m 2.8808607,-1.2434902 q 0,-0.2766928 -0.1953125,-0.4231773 Q 2.4902356,-1.8164071 1.9824228,-1.9791676 1.4746101,-2.1451833 1.178386,-2.3046886 0.37109393,-2.7408867 0.37109393,-3.4798194 q 0,-0.3841147 0.21484385,-0.683594 0.21809906,-0.3027346 0.62174512,-0.4720055 0.4069012,-0.1692709 0.9114587,-0.1692709 0.5078128,0 0.9049484,0.185547 0.3971356,0.1822917 0.6152347,0.5175783 0.2213542,0.3352867 0.2213542,0.7617192 H 2.884116 q 0,-0.325521 -0.2050783,-0.5045576 -0.2050782,-0.1822917 -0.5761721,-0.1822917 -0.3580731,0 -0.5566409,0.1529948 -0.1985678,0.1497397 -0.1985678,0.3971356 0,0.2311199 0.2311199,0.38737 0.2343751,0.1562501 0.6868493,0.2929689 0.8333337,0.2506512 1.2141933,0.6217451 0.3808595,0.3710939 0.3808595,0.9244796 0,0.61523467 -0.465495,0.96679734 -0.465495,0.34830746 -1.2532558,0.34830746 -0.5468753,0 -0.9960942,-0.19856781 Q 0.69661492,-0.33528662 0.45898459,-0.68359408 0.22460948,-1.0319015 0.22460948,-1.4908861 H 1.2044277 q 0,0.78450555 0.9375004,0.78450555 0.3483075,0 0.5436201,-0.13997402 0.1953125,-0.14322924 0.1953125,-0.39713563 z"/>
        <path id="path53727" style="font-weight:bold;font-size:6.66667px;font-family:Roboto, sans-serif;letter-spacing:2px;fill:#333333" d="M 7.5013047,-1.6699227 V 0 h -0.976563 v -4.7395856 h 1.8489592 q 0.5338544,0 0.9375005,0.1953126 0.4069012,0.1953126 0.6250003,0.5566409 0.2180993,0.3580731 0.2180993,0.8170577 0,0.6966149 -0.4785161,1.1002609 -0.4752607,0.4003908 -1.31836,0.4003908 z m 0,-0.791016 h 0.8723962 q 0.38737,0 0.589193,-0.1822917 0.2050782,-0.1822918 0.2050782,-0.5208336 0,-0.3483075 -0.2050782,-0.5631513 Q 8.7578157,-3.9420592 8.3964874,-3.9485696 H 7.5013047 Z"/>
        <path id="path53729" style="font-weight:bold;font-size:6.66667px;font-family:Roboto, sans-serif;letter-spacing:2px;fill:#333333" d="m 15.673182,-2.0540374 h -1.875 v 1.26953182 h 2.200521 V 0 h -3.177084 v -4.7395856 h 3.170574 v 0.791016 h -2.194011 v 1.1295578 h 1.875 z"/>
        <path id="path53731" style="font-weight:bold;font-size:6.66667px;font-family:Roboto, sans-serif;letter-spacing:2px;fill:#333333" d="m 21.423184,-2.0540374 h -1.875001 v 1.26953182 h 2.200522 V 0 h -3.177084 v -4.7395856 h 3.170574 v 0.791016 h -2.194012 v 1.1295578 h 1.875001 z"/>
        <path id="path53733" style="font-weight:bold;font-size:6.66667px;font-family:Roboto, sans-serif;letter-spacing:2px;fill:#333333" d="m 24.321622,0 v -4.7395856 h 1.458334 q 0.625001,0 1.116537,0.2832033 0.494792,0.279948 0.771485,0.8007816 0.276693,0.5175784 0.276693,1.178386 v 0.218099 q 0,0.6608076 -0.273438,1.1751308 -0.270182,0.51432317 -0.764974,0.79752643 Q 26.411467,-0.00325521 25.789722,0 Z m 0.976563,-3.9485696 v 3.16406402 h 0.472006 q 0.572917,0 0.875651,-0.37434912 0.302735,-0.3743492 0.309245,-1.0709641 v -0.2506511 q 0,-0.7226566 -0.299479,-1.0937506 -0.299479,-0.3743491 -0.875652,-0.3743491 z"/>
      </g>
      <g style="font-weight:bold;font-size:6.66667px;font-family:Roboto, sans-serif;letter-spacing:2px;fill:#333333" id="text52798" transform="translate(2,-1)" aria-label="1X">
        <path id="path53736" style="font-weight:bold;font-size:6.66667px;font-family:Roboto, sans-serif;letter-spacing:2px;fill:#333333" d="M 2.6074231,0 H 1.6666675 V -3.6263038 L 0.54362005,-3.2779964 V -4.0429707 L 2.5065116,-4.746096 h 0.1009115 z"/>
        <path id="path53738" style="font-weight:bold;font-size:6.66667px;font-family:Roboto, sans-serif;letter-spacing:2px;fill:#333333" d="M 7.9472685,-3.1054702 8.8359408,-4.7395856 H 9.9589883 L 8.5787793,-2.3893241 9.9947956,0 H 8.8587273 L 7.9472685,-1.660157 7.0358098,0 H 5.8997415 l 1.4160163,-2.3893241 -1.380209,-2.3502615 h 1.1230474 z"/>
      </g>
      <g transform="translate(0,2)" id="g52800"/>
      <g style="font-weight:bold;font-size:6.66667px;font-family:Roboto, sans-serif;letter-spacing:2px;fill:#333333" id="text52802" transform="translate(-1,34)" aria-label="10X">
        <path id="path53741" style="font-weight:bold;font-size:6.66667px;font-family:Roboto, sans-serif;letter-spacing:2px;fill:#333333" d="M 2.6074231,0 H 1.6666675 V -3.6263038 L 0.54362005,-3.2779964 V -4.0429707 L 2.5065116,-4.746096 h 0.1009115 z"/>
        <path id="path53743" style="font-weight:bold;font-size:6.66667px;font-family:Roboto, sans-serif;letter-spacing:2px;fill:#333333" d="m 9.3404984,-1.9596364 q 0,0.98307343 -0.4069013,1.50390702 -0.4069012,0.52083358 -1.1914068,0.52083358 -0.7747399,0 -1.1848964,-0.51106795 Q 6.1471375,-0.95703171 6.1373718,-1.9108082 v -0.8723963 q 0,-0.992839 0.4101565,-1.5071621 0.4134116,-0.5143232 1.1881516,-0.5143232 0.77474,0 1.1848964,0.511068 0.4101564,0.5078127 0.4199221,1.4615892 z M 8.3997427,-2.9166681 q 0,-0.5891929 -0.1627605,-0.8561202 -0.1595053,-0.2701824 -0.5013023,-0.2701824 -0.3320314,0 -0.4915367,0.2571616 -0.1562501,0.2539064 -0.1660157,0.7975264 v 1.1523443 q 0,0.5794274 0.1562501,0.86263064 0.1595053,0.27994805 0.5078127,0.27994805 0.3450523,0 0.4980471,-0.27018242 0.1529949,-0.27018237 0.1595053,-0.82682327 z"/>
        <path id="path53745" style="font-weight:bold;font-size:6.66667px;font-family:Roboto, sans-serif;letter-spacing:2px;fill:#333333" d="m 13.775395,-3.1054702 0.888673,-1.6341154 h 1.123047 L 14.406906,-2.3893241 15.822922,0 H 14.686854 L 13.775395,-1.660157 12.863937,0 h -1.136069 l 1.416017,-2.3893241 -1.380209,-2.3502615 h 1.123047 z"/>
      </g>
    </g>
  </g>
  <g transform="translate(9,145)" id="g52826">
    <g id="g52814">
      <g style="font-weight:bold;font-size:10.6667px;font-family:Roboto, sans-serif;letter-spacing:2px;fill:#333333" id="text52808" transform="rotate(-90,24.25,16.25)" aria-label="DECAY">
        <path id="path53680" style="font-weight:bold;font-size:10.6667px;font-family:Roboto, sans-serif;letter-spacing:2px;fill:#333333" d="M 0.67708547,0 V -7.5833573 H 3.0104262 q 1.0000031,0 1.786464,0.4531264 0.7916691,0.4479181 1.2343789,1.2812541 0.4427097,0.8281276 0.4427097,1.8854226 v 0.3489594 q 0,1.0572951 -0.4375014,1.8802143 -0.432293,0.82291929 -1.2239622,1.27604572 Q 4.020846,-0.00520835 3.0260512,0 Z M 2.2395904,-6.3177283 v 5.062516 h 0.7552107 q 0.9166696,0 1.4010461,-0.5989602 0.4843766,-0.5989602 0.4947932,-1.7135471 v -0.4010429 q 0,-1.1562537 -0.4791681,-1.7500056 -0.4791682,-0.5989602 -1.4010461,-0.5989602 z"/>
        <path id="path53682" style="font-weight:bold;font-size:10.6667px;font-family:Roboto, sans-serif;letter-spacing:2px;fill:#333333" d="m 14.177122,-3.2864687 h -3.00001 v 2.0312564 h 3.520845 V 0 H 9.6146074 V -7.5833573 H 14.68754 v 1.265629 h -3.510428 v 1.8072974 h 3.00001 z"/>
        <path id="path53684" style="font-weight:bold;font-size:10.6667px;font-family:Roboto, sans-serif;letter-spacing:2px;fill:#333333" d="m 23.567771,-2.5260496 q -0.08854,1.2239622 -0.906253,1.92708937 -0.812502,0.70312723 -2.14584,0.70312723 -1.458338,0 -2.296882,-0.97916976 Q 17.38546,-1.8593809 17.38546,-3.572928 v -0.4635431 q 0,-1.0937534 0.385418,-1.9270894 0.385418,-0.833336 1.098962,-1.2760457 0.718752,-0.4479181 1.666672,-0.4479181 1.312504,0 2.11459,0.7031272 0.802086,0.7031273 0.927086,1.9739646 h -1.562505 q -0.05729,-0.7343773 -0.41146,-1.0625034 -0.348959,-0.3333343 -1.067711,-0.3333343 -0.781253,0 -1.171879,0.5625017 -0.385418,0.5572935 -0.395835,1.7343805 v 0.5729185 q 0,1.2291705 0.369793,1.7968807 0.375001,0.5677101 1.177087,0.5677101 0.723961,0 1.078129,-0.328126 0.359376,-0.3333344 0.411459,-1.0260449 z"/>
        <path id="path53686" style="font-weight:bold;font-size:10.6667px;font-family:Roboto, sans-serif;letter-spacing:2px;fill:#333333" d="M 30.875078,-1.5625049 H 28.135486 L 27.614651,0 h -1.661464 l 2.822926,-7.5833573 h 1.447921 L 33.062585,0 h -1.661464 z m -2.317716,-1.265629 h 1.89584 l -0.953128,-2.8385507 z"/>
        <path id="path53688" style="font-weight:bold;font-size:10.6667px;font-family:Roboto, sans-serif;letter-spacing:2px;fill:#333333" d="m 37.625093,-4.1666798 1.57813,-3.4166775 h 1.708339 l -2.489591,4.8333486 V 0 h -1.588547 v -2.7500087 l -2.489591,-4.8333486 h 1.713547 z"/>
      </g>
      <g transform="translate(20)" id="g52810"/>
      <g transform="translate(3,44)" id="g52812"/>
    </g>
    <g transform="translate(110,5)" id="g52824">
      <g style="font-weight:bold;font-size:6.66667px;font-family:Roboto, sans-serif;letter-spacing:2px;fill:#333333" id="text52816" transform="rotate(-90,10.25,18.25)" aria-label="CYCLE">
        <path id="path53691" style="font-weight:bold;font-size:6.66667px;font-family:Roboto, sans-serif;letter-spacing:2px;fill:#333333" d="M 4.1438822,-1.5787768 Q 4.0885436,-0.81380247 3.5774757,-0.37434914 3.0696629,0.0651042 2.2363292,0.0651042 q -0.9114588,0 -1.43554757,-0.61197946 Q 0.27994805,-1.1621099 0.27994805,-2.233074 v -0.2897137 q 0,-0.683594 0.24088553,-1.2044276 0.24088553,-0.5208336 0.68684932,-0.7975264 0.4492189,-0.2799481 1.0416671,-0.2799481 0.8203129,0 1.3216152,0.4394533 0.5013024,0.4394534 0.5794274,1.2337246 H 3.1738296 Q 3.1380223,-3.5904965 2.9166681,-3.7955747 2.698569,-4.0039082 2.24935,-4.0039082 q -0.4882815,0 -0.7324222,0.3515627 -0.2408855,0.3483075 -0.2473959,1.0839849 v 0.3580731 q 0,0.7682295 0.2311199,1.1230474 0.2343751,0.35481788 0.7356774,0.35481788 0.4524742,0 0.6738284,-0.20507823 0.2246095,-0.20833345 0.2571616,-0.64127635 z"/>
        <path id="path53693" style="font-weight:bold;font-size:6.66667px;font-family:Roboto, sans-serif;letter-spacing:2px;fill:#333333" d="M 8.419274,-2.6041679 9.4056026,-4.7395856 H 10.473311 L 8.9173212,-1.7187508 V 0 H 7.9244821 V -1.7187508 L 6.3684918,-4.7395856 h 1.0709641 z"/>
        <path id="path53695" style="font-weight:bold;font-size:6.66667px;font-family:Roboto, sans-serif;letter-spacing:2px;fill:#333333" d="m 16.542323,-1.5787768 q -0.05534,0.76497433 -0.566406,1.20442766 -0.507813,0.43945334 -1.341146,0.43945334 -0.911459,0 -1.435548,-0.61197946 Q 12.678389,-1.1621099 12.678389,-2.233074 v -0.2897137 q 0,-0.683594 0.240886,-1.2044276 0.240885,-0.5208336 0.686849,-0.7975264 0.449219,-0.2799481 1.041667,-0.2799481 0.820313,0 1.321616,0.4394533 0.501302,0.4394534 0.579427,1.2337246 h -0.976563 q -0.03581,-0.4589846 -0.257162,-0.6640628 -0.218099,-0.2083335 -0.667318,-0.2083335 -0.488281,0 -0.732422,0.3515627 -0.240885,0.3483075 -0.247396,1.0839849 v 0.3580731 q 0,0.7682295 0.23112,1.1230474 0.234375,0.35481788 0.735678,0.35481788 0.452474,0 0.673828,-0.20507823 0.224609,-0.20833345 0.257162,-0.64127635 z"/>
        <path id="path53697" style="font-weight:bold;font-size:6.66667px;font-family:Roboto, sans-serif;letter-spacing:2px;fill:#333333" d="m 20.160164,-0.78450558 h 2.073569 V 0 h -3.050132 v -4.7395856 h 0.976563 z"/>
        <path id="path53699" style="font-weight:bold;font-size:6.66667px;font-family:Roboto, sans-serif;letter-spacing:2px;fill:#333333" d="m 27.641936,-2.0540374 h -1.875001 v 1.26953182 h 2.200522 V 0 h -3.177085 v -4.7395856 h 3.170575 v 0.791016 h -2.194012 v 1.1295578 h 1.875001 z"/>
      </g>
      <g style="font-weight:bold;font-size:6.66667px;font-family:Roboto, sans-serif;letter-spacing:2px;fill:#333333" id="text52818" transform="translate(-4.5,-1)" aria-label="STOP">
        <path id="path53702" style="font-weight:bold;font-size:6.66667px;font-family:Roboto, sans-serif;letter-spacing:2px;fill:#333333" d="m 2.8808607,-1.2434902 q 0,-0.2766928 -0.1953125,-0.4231773 Q 2.4902356,-1.8164071 1.9824228,-1.9791676 1.4746101,-2.1451833 1.178386,-2.3046886 0.37109393,-2.7408867 0.37109393,-3.4798194 q 0,-0.3841147 0.21484385,-0.683594 0.21809906,-0.3027346 0.62174512,-0.4720055 0.4069012,-0.1692709 0.9114587,-0.1692709 0.5078128,0 0.9049484,0.185547 0.3971356,0.1822917 0.6152347,0.5175783 0.2213542,0.3352867 0.2213542,0.7617192 H 2.884116 q 0,-0.325521 -0.2050783,-0.5045576 -0.2050782,-0.1822917 -0.5761721,-0.1822917 -0.3580731,0 -0.5566409,0.1529948 -0.1985678,0.1497397 -0.1985678,0.3971356 0,0.2311199 0.2311199,0.38737 0.2343751,0.1562501 0.6868493,0.2929689 0.8333337,0.2506512 1.2141933,0.6217451 0.3808595,0.3710939 0.3808595,0.9244796 0,0.61523467 -0.465495,0.96679734 -0.465495,0.34830746 -1.2532558,0.34830746 -0.5468753,0 -0.9960942,-0.19856781 Q 0.69661492,-0.33528662 0.45898459,-0.68359408 0.22460948,-1.0319015 0.22460948,-1.4908861 H 1.2044277 q 0,0.78450555 0.9375004,0.78450555 0.3483075,0 0.5436201,-0.13997402 0.1953125,-0.14322924 0.1953125,-0.39713563 z"/>
        <path id="path53704" style="font-weight:bold;font-size:6.66667px;font-family:Roboto, sans-serif;letter-spacing:2px;fill:#333333" d="M 10.092452,-3.9485696 H 8.6406281 V 0 H 7.6640652 V -3.9485696 H 6.2317728 v -0.791016 h 3.8606792 z"/>
        <path id="path53706" style="font-weight:bold;font-size:6.66667px;font-family:Roboto, sans-serif;letter-spacing:2px;fill:#333333" d="m 16.454434,-2.2623709 q 0,0.6998702 -0.247396,1.2272142 -0.247396,0.52734396 -0.709636,0.81380243 -0.458985,0.28645847 -1.054688,0.28645847 -0.589193,0 -1.051433,-0.28320326 -0.46224,-0.28320326 -0.716146,-0.80729204 -0.253906,-0.527344 -0.257162,-1.2109381 v -0.2343751 q 0,-0.6998701 0.250651,-1.2304693 0.253907,-0.5338545 0.712891,-0.8170577 0.46224,-0.2864585 1.054688,-0.2864585 0.592449,0 1.051433,0.2864585 0.46224,0.2832032 0.712891,0.8170577 0.253907,0.5305992 0.253907,1.2272141 z M 15.46485,-2.4772147 q 0,-0.7454431 -0.266927,-1.1328131 -0.266928,-0.3873699 -0.76172,-0.3873699 -0.491536,0 -0.758463,0.3841147 -0.266928,0.3808596 -0.270183,1.1197922 v 0.2311199 q 0,0.7259118 0.266927,1.1263026 0.266928,0.40039087 0.76823,0.40039087 0.491537,0 0.755209,-0.38411477 0.263672,-0.38737 0.266927,-1.1263026 z"/>
        <path id="path53708" style="font-weight:bold;font-size:6.66667px;font-family:Roboto, sans-serif;letter-spacing:2px;fill:#333333" d="M 20.147142,-1.6699227 V 0 h -0.976563 v -4.7395856 h 1.84896 q 0.533854,0 0.9375,0.1953126 0.406901,0.1953126 0.625,0.5566409 0.218099,0.3580731 0.218099,0.8170577 0,0.6966149 -0.478515,1.1002609 -0.475261,0.4003908 -1.31836,0.4003908 z m 0,-0.791016 h 0.872397 q 0.38737,0 0.589193,-0.1822917 0.205078,-0.1822918 0.205078,-0.5208336 0,-0.3483075 -0.205078,-0.5631513 -0.205079,-0.2148439 -0.566407,-0.2213543 h -0.895183 z"/>
      </g>
      <g transform="translate(0,2)" id="g52820"/>
      <g style="font-weight:bold;font-size:6.66667px;font-family:Roboto, sans-serif;letter-spacing:2px;fill:#333333" id="text52822" transform="translate(-4,34)" aria-label="LOOP">
        <path id="path53711" style="font-weight:bold;font-size:6.66667px;font-family:Roboto, sans-serif;letter-spacing:2px;fill:#333333" d="M 1.3997403,-0.78450558 H 3.4733089 V 0 H 0.42317729 V -4.7395856 H 1.3997403 Z"/>
        <path id="path53713" style="font-weight:bold;font-size:6.66667px;font-family:Roboto, sans-serif;letter-spacing:2px;fill:#333333" d="m 9.7148477,-2.2623709 q 0,0.6998702 -0.2473959,1.2272142 -0.247396,0.52734396 -0.7096358,0.81380243 -0.4589846,0.28645847 -1.054688,0.28645847 -0.589193,0 -1.0514328,-0.28320326 Q 6.1894554,-0.50130232 5.935549,-1.0253911 5.6816427,-1.5527351 5.6783875,-2.2363292 v -0.2343751 q 0,-0.6998701 0.2506511,-1.2304693 0.2539064,-0.5338545 0.712891,-0.8170577 0.4622398,-0.2864585 1.054688,-0.2864585 0.5924482,0 1.0514328,0.2864585 0.4622398,0.2832032 0.7128909,0.8170577 0.2539064,0.5305992 0.2539064,1.2272141 z M 8.7252639,-2.4772147 q 0,-0.7454431 -0.2669272,-1.1328131 -0.2669272,-0.3873699 -0.7617191,-0.3873699 -0.4915367,0 -0.7584639,0.3841147 -0.2669272,0.3808596 -0.2701824,1.1197922 v 0.2311199 q 0,0.7259118 0.2669272,1.1263026 0.2669272,0.40039087 0.7682295,0.40039087 0.4915367,0 0.7552087,-0.38411477 0.263672,-0.38737 0.2669272,-1.1263026 z"/>
        <path id="path53715" style="font-weight:bold;font-size:6.66667px;font-family:Roboto, sans-serif;letter-spacing:2px;fill:#333333" d="m 16.324225,-2.2623709 q 0,0.6998702 -0.247396,1.2272142 -0.247396,0.52734396 -0.709636,0.81380243 -0.458985,0.28645847 -1.054688,0.28645847 -0.589193,0 -1.051433,-0.28320326 -0.46224,-0.28320326 -0.716146,-0.80729204 -0.253906,-0.527344 -0.257162,-1.2109381 v -0.2343751 q 0,-0.6998701 0.250652,-1.2304693 0.253906,-0.5338545 0.71289,-0.8170577 0.46224,-0.2864585 1.054688,-0.2864585 0.592449,0 1.051433,0.2864585 0.46224,0.2832032 0.712891,0.8170577 0.253907,0.5305992 0.253907,1.2272141 z m -0.989584,-0.2148438 q 0,-0.7454431 -0.266927,-1.1328131 -0.266928,-0.3873699 -0.76172,-0.3873699 -0.491536,0 -0.758463,0.3841147 -0.266928,0.3808596 -0.270183,1.1197922 v 0.2311199 q 0,0.7259118 0.266927,1.1263026 0.266928,0.40039087 0.76823,0.40039087 0.491537,0 0.755209,-0.38411477 0.263672,-0.38737 0.266927,-1.1263026 z"/>
        <path id="path53717" style="font-weight:bold;font-size:6.66667px;font-family:Roboto, sans-serif;letter-spacing:2px;fill:#333333" d="M 20.016933,-1.6699227 V 0 h -0.976562 v -4.7395856 h 1.848959 q 0.533854,0 0.9375,0.1953126 0.406901,0.1953126 0.625,0.5566409 0.2181,0.3580731 0.2181,0.8170577 0,0.6966149 -0.478516,1.1002609 -0.475261,0.4003908 -1.31836,0.4003908 z m 0,-0.791016 h 0.872397 q 0.38737,0 0.589193,-0.1822917 0.205078,-0.1822918 0.205078,-0.5208336 0,-0.3483075 -0.205078,-0.5631513 -0.205079,-0.2148439 -0.566407,-0.2213543 h -0.895183 z"/>
      </g>
    </g>
  </g>
  <g transform="translate(9,201)" id="g52844">
    <g id="g52834">
      <g style="font-weight:bold;font-size:10.6667px;font-family:Roboto, sans-serif;letter-spacing:2px;fill:#333333" id="text52828" transform="rotate(-90,20.25,12.25)" aria-label="OFF">
        <path id="path53665" style="font-weight:bold;font-size:10.6667px;font-family:Roboto, sans-serif;letter-spacing:2px;fill:#333333" d="m 6.9062718,-3.6198031 q 0,1.1197952 -0.3958346,1.9635479 Q 6.1146026,-0.81250257 5.375017,-0.35416779 4.6406397,0.104167 3.6875116,0.104167 q -0.9427113,0 -1.6822969,-0.45312644 Q 1.265629,-0.80208587 0.85937771,-1.6406302 0.45312643,-2.4843828 0.44791808,-3.5781363 v -0.3750012 q 0,-1.1197952 0.40104294,-1.9687562 0.40625128,-0.8541694 1.14062858,-1.3072958 0.7395857,-0.4583348 1.6875053,-0.4583348 0.9479197,0 1.682297,0.4583348 0.7395857,0.4531264 1.1406286,1.3072958 0.4062513,0.848961 0.4062513,1.9635479 z M 5.3229335,-3.9635542 q 0,-1.1927121 -0.4270847,-1.8125057 -0.4270847,-0.6197936 -1.2187539,-0.6197936 -0.7864608,0 -1.2135455,0.6145852 -0.4270846,0.609377 -0.432293,1.7916724 v 0.3697928 q 0,1.161462 0.4270847,1.802089 0.4270847,0.640627 1.2291705,0.640627 0.7864609,0 1.2083372,-0.6145852 0.4218763,-0.6197937 0.4270847,-1.8020891 z"/>
        <path id="path53667" style="font-weight:bold;font-size:10.6667px;font-family:Roboto, sans-serif;letter-spacing:2px;fill:#333333" d="m 14.614623,-3.0989681 h -3.00001 V 0 h -1.562505 v -7.5833573 h 4.937516 v 1.265629 h -3.375011 v 1.9583395 h 3.00001 z"/>
        <path id="path53669" style="font-weight:bold;font-size:10.6667px;font-family:Roboto, sans-serif;letter-spacing:2px;fill:#333333" d="m 22.468808,-3.0989681 h -3.00001 V 0 h -1.562505 v -7.5833573 h 4.937516 v 1.265629 h -3.375011 v 1.9583395 h 3.00001 z"/>
      </g>
      <g transform="translate(20)" id="g52830"/>
      <g transform="translate(3,36)" id="g52832"/>
    </g>
    <g class="io-group" transform="translate(102,4)" id="g52842">
      <path class="output-background" d="m 5,0 h 20 c 2.77,0 5,2.23 5,5 v 30 c 0,2.77 -2.23,5 -5,5 H 5 C 2.23,40 0,37.77 0,35 V 5 C 0,2.23 2.23,0 5,0 Z" style="fill:#bbbbbb" id="rect52836"/>
      <g transform="translate(3,3)" id="g52838"/>
      <g class="output-label" style="font-weight:bold;font-size:8px;font-family:Roboto, sans-serif;letter-spacing:2px;fill:#333333" id="text52840" transform="translate(6,36)" aria-label="END">
        <path id="path53673" style="font-weight:bold;font-size:8px;font-family:Roboto, sans-serif;letter-spacing:2px;fill:#333333" d="m 3.9296875,-2.4648438 h -2.25 v 1.52343755 h 2.640625 V 0 h -3.8125 V -5.6875 H 4.3125 v 0.9492188 H 1.6796875 v 1.3554687 h 2.25 z"/>
        <path id="path53675" style="font-weight:bold;font-size:8px;font-family:Roboto, sans-serif;letter-spacing:2px;fill:#333333" d="M 11.632813,0 H 10.460938 L 8.1796875,-3.7421875 V 0 h -1.171875 v -5.6875 h 1.171875 l 2.2851565,3.75 v -3.75 h 1.167969 z"/>
        <path id="path53677" style="font-weight:bold;font-size:8px;font-family:Roboto, sans-serif;letter-spacing:2px;fill:#333333" d="m 14.664063,0 v -5.6875 h 1.749999 q 0.75,0 1.339844,0.3398438 0.59375,0.3359375 0.925781,0.9609375 0.332032,0.6210937 0.332032,1.4140624 v 0.2617188 q 0,0.7929688 -0.328125,1.4101563 Q 18.359375,-0.68359375 17.765625,-0.34375 17.171875,-0.00390625 16.425781,0 Z m 1.171875,-4.7382812 v 3.79687495 h 0.566406 q 0.6875,0 1.050781,-0.44921875 0.363281,-0.4492187 0.371094,-1.2851563 v -0.3007812 q 0,-0.8671875 -0.359375,-1.3125 -0.359375,-0.4492187 -1.050782,-0.4492187 z"/>
      </g>
    </g>
  </g>
  <g transform="translate(9,257)" id="g52864">
    <g transform="translate(75)" id="g52850">
      <g style="font-weight:bold;font-size:10.6667px;font-family:Roboto, sans-serif;letter-spacing:2px;fill:#333333" id="text52846" transform="rotate(90,20.45,27.55)" aria-label="ENV">
        <path id="path53643" style="font-weight:bold;font-size:10.6667px;font-family:Roboto, sans-serif;letter-spacing:2px;fill:#333333" d="M 5.2395999,-3.2864687 H 2.2395904 v 2.0312564 H 5.7604349 V 0 H 0.67708547 V -7.5833573 H 5.7500182 v 1.265629 H 2.2395904 v 1.8072974 h 3.0000095 z"/>
        <path id="path53645" style="font-weight:bold;font-size:10.6667px;font-family:Roboto, sans-serif;letter-spacing:2px;fill:#333333" d="M 14.843791,0 H 13.281286 L 10.239609,-4.9895991 V 0 H 8.6771045 v -7.5833573 h 1.5625045 l 3.046885,5.0000158 v -5.0000158 h 1.557297 z"/>
        <path id="path53647" style="font-weight:bold;font-size:10.6667px;font-family:Roboto, sans-serif;letter-spacing:2px;fill:#333333" d="m 21.020888,-1.8802143 1.718755,-5.703143 h 1.739589 L 21.838598,0 h -1.630213 l -2.630217,-7.5833573 h 1.734381 z"/>
      </g>
      <g transform="translate(-1.7)" id="g52848"/>
    </g>
    <g class="io-group" transform="translate(0,4)" id="g52862">
      <path class="output-background" d="m 5,0 h 48 c 2.77,0 5,2.23 5,5 v 30 c 0,2.77 -2.23,5 -5,5 H 5 C 2.23,40 0,37.77 0,35 V 5 C 0,2.23 2.23,0 5,0 Z" style="fill:#bbbbbb" id="rect52852"/>
      <g transform="translate(2.5,3)" id="g52854"/>
      <g transform="translate(31.5,3)" id="g52856"/>
      <g class="output-label" style="font-weight:bold;font-size:8px;font-family:Roboto, sans-serif;letter-spacing:2px;fill:#333333" id="text52858" transform="translate(6,36)" aria-label="ENV">
        <path id="path53651" style="font-weight:bold;font-size:8px;font-family:Roboto, sans-serif;letter-spacing:2px;fill:#333333" d="m 3.9296875,-2.4648438 h -2.25 v 1.52343755 h 2.640625 V 0 h -3.8125 V -5.6875 H 4.3125 v 0.9492188 H 1.6796875 v 1.3554687 h 2.25 z"/>
        <path id="path53653" style="font-weight:bold;font-size:8px;font-family:Roboto, sans-serif;letter-spacing:2px;fill:#333333" d="M 11.632813,0 H 10.460938 L 8.1796875,-3.7421875 V 0 h -1.171875 v -5.6875 h 1.171875 l 2.2851565,3.75 v -3.75 h 1.167969 z"/>
        <path id="path53655" style="font-weight:bold;font-size:8px;font-family:Roboto, sans-serif;letter-spacing:2px;fill:#333333" d="M 16.765625,-1.4101562 18.054687,-5.6875 h 1.304688 L 17.378906,0 H 16.15625 l -1.972656,-5.6875 h 1.300781 z"/>
      </g>
      <g style="font-weight:bold;font-size:8px;font-family:Roboto, sans-serif;letter-spacing:2px;fill:#333333" id="text52860" transform="translate(35,36)" aria-label="INV">
        <path id="path53658" style="font-weight:bold;font-size:8px;font-family:Roboto, sans-serif;letter-spacing:2px;fill:#333333" d="M 1.7539062,0 H 0.58203125 V -5.6875 H 1.7539062 Z"/>
        <path id="path53660" style="font-weight:bold;font-size:8px;font-family:Roboto, sans-serif;letter-spacing:2px;fill:#333333" d="m 9.4609375,0 h -1.171875 l -2.28125,-3.7421875 V 0 h -1.171875 v -5.6875 h 1.171875 l 2.2851563,3.75 v -3.75 h 1.1679687 z"/>
        <path id="path53662" style="font-weight:bold;font-size:8px;font-family:Roboto, sans-serif;letter-spacing:2px;fill:#333333" d="M 14.59375,-1.4101562 15.882813,-5.6875 H 17.1875 L 15.207031,0 H 13.984375 L 12.011719,-5.6875 H 13.3125 Z"/>
      </g>
    </g>
  </g>
  <g transform="translate(9,313)" id="g52888">
    <g transform="translate(75)" id="g52870">
      <g style="font-weight:bold;font-size:10.6667px;font-family:Roboto, sans-serif;letter-spacing:2px;fill:#333333" id="text52866" transform="rotate(90,25.25,22.75)" aria-label="SIGNAL">
        <path id="path53615" style="font-weight:bold;font-size:10.6667px;font-family:Roboto, sans-serif;letter-spacing:2px;fill:#333333" d="m 4.6093896,-1.9895896 q 0,-0.4427098 -0.312501,-0.6770855 Q 3.9843876,-2.9062592 3.171885,-3.1666767 2.3593825,-3.4323025 1.8854226,-3.6875116 0.59375188,-4.3854305 0.59375188,-5.5677259 q 0,-0.6145853 0.34375108,-1.0937535 0.34895944,-0.4843765 0.99479484,-0.7552107 0.6510437,-0.2708342 1.4583379,-0.2708342 0.8125026,0 1.4479213,0.296876 0.6354186,0.2916675 0.9843781,0.8281276 0.3541677,0.53646 0.3541677,1.2187538 H 4.6145979 q 0,-0.520835 -0.328126,-0.8072942 -0.3281261,-0.2916676 -0.9218779,-0.2916676 -0.5729185,0 -0.8906279,0.2447925 -0.3177093,0.239584 -0.3177093,0.6354186 0,0.3697929 0.3697928,0.6197937 0.3750012,0.2500007 1.0989619,0.4687514 1.3333375,0.401043 1.9427144,0.9947948 0.6093769,0.5937519 0.6093769,1.4791714 0,0.9843781 -0.744794,1.54687987 Q 4.6875148,0.104167 3.4270942,0.104167 q -0.8750028,0 -1.5937551,-0.31770934 Q 1.1145869,-0.53646003 0.73437732,-1.0937535 0.35937614,-1.6510469 0.35937614,-2.3854242 H 1.9270894 q 0,1.2552123 1.5000048,1.2552123 0.5572934,0 0.8697944,-0.223959 0.312501,-0.2291674 0.312501,-0.6354187 z"/>
        <path id="path53617" style="font-weight:bold;font-size:10.6667px;font-family:Roboto, sans-serif;letter-spacing:2px;fill:#333333" d="M 10.90107,0 H 9.3385651 V -7.5833573 H 10.90107 Z"/>
        <path id="path53619" style="font-weight:bold;font-size:10.6667px;font-family:Roboto, sans-serif;letter-spacing:2px;fill:#333333" d="M 20.343801,-0.95833636 Q 19.921925,-0.45312643 19.151089,-0.17187554 18.380253,0.104167 17.44275,0.104167 q -0.984378,0 -1.729172,-0.42708469 -0.739586,-0.43229303 -1.145837,-1.25000391 -0.401043,-0.817711 -0.41146,-1.9218811 v -0.5156266 q 0,-1.1354203 0.38021,-1.9635479 0.385418,-0.833336 1.10417,-1.2708374 0.723961,-0.4427097 1.692714,-0.4427097 1.348962,0 2.109381,0.6458354 0.76042,0.640627 0.901045,1.8697976 h -1.520838 q -0.104167,-0.6510438 -0.463543,-0.953128 -0.354168,-0.3020843 -0.97917,-0.3020843 -0.796878,0 -1.213546,0.5989602 -0.416668,0.5989602 -0.421876,1.7812556 v 0.4843765 q 0,1.1927121 0.453127,1.8020891 0.453126,0.6093769 1.328129,0.6093769 0.880211,0 1.255212,-0.3750012 v -1.3072958 h -1.421879 v -1.1510453 h 2.984384 z"/>
        <path id="path53621" style="font-weight:bold;font-size:10.6667px;font-family:Roboto, sans-serif;letter-spacing:2px;fill:#333333" d="M 29.781325,0 H 28.21882 L 25.177144,-4.9895991 V 0 h -1.562505 v -7.5833573 h 1.562505 l 3.046884,5.0000158 v -5.0000158 h 1.557297 z"/>
        <path id="path53623" style="font-weight:bold;font-size:10.6667px;font-family:Roboto, sans-serif;letter-spacing:2px;fill:#333333" d="M 37.541761,-1.5625049 H 34.802169 L 34.281334,0 h -1.661463 l 2.822925,-7.5833573 h 1.447921 L 39.729268,0 h -1.661464 z m -2.317715,-1.265629 h 1.895839 l -0.953128,-2.8385507 z"/>
        <path id="path53625" style="font-weight:bold;font-size:10.6667px;font-family:Roboto, sans-serif;letter-spacing:2px;fill:#333333" d="m 44.010525,-1.2552123 h 3.317719 V 0 h -4.880223 v -7.5833573 h 1.562504 z"/>
      </g>
      <g transform="translate(-1.7)" id="g52868"/>
    </g>
    <g class="io-group" transform="translate(0,4)" id="g52886">
      <path class="input-background" d="m 5,0 h 48 c 2.77,0 5,2.23 5,5 v 30 c 0,2.77 -2.23,5 -5,5 H 5 C 2.23,40 0,37.77 0,35 V 5 C 0,2.23 2.23,0 5,0 Z" style="fill:#fafafa" id="rect52872"/>
      <path class="output-background" d="m 5,0 h 10 c 2.77,0 5,2.23 5,5 v 30 c 0,2.77 -2.23,5 -5,5 H 5 C 2.23,40 0,37.77 0,35 V 5 C 0,2.23 2.23,0 5,0 Z" style="fill:#bbbbbb" transform="translate(38)" id="rect52874"/>
      <path class="output-background-filler" d="M 0,0 H 20 V 40 H 0 Z" style="fill:#bbbbbb" transform="translate(29)" id="rect52876"/>
      <g transform="translate(2.5,3)" id="g52878"/>
      <g transform="translate(31.5,3)" id="g52880"/>
      <g class="output-label" style="font-weight:bold;font-size:8px;font-family:Roboto, sans-serif;letter-spacing:2px;fill:#333333" id="text52882" transform="translate(10,36)" aria-label="IN">
        <path id="path53631" style="font-weight:bold;font-size:8px;font-family:Roboto, sans-serif;letter-spacing:2px;fill:#333333" d="M 1.7539062,0 H 0.58203125 V -5.6875 H 1.7539062 Z"/>
        <path id="path53633" style="font-weight:bold;font-size:8px;font-family:Roboto, sans-serif;letter-spacing:2px;fill:#333333" d="m 9.4609375,0 h -1.171875 l -2.28125,-3.7421875 V 0 h -1.171875 v -5.6875 h 1.171875 l 2.2851563,3.75 v -3.75 h 1.1679687 z"/>
      </g>
      <g style="font-weight:bold;font-size:8px;font-family:Roboto, sans-serif;letter-spacing:2px;fill:#333333" id="text52884" transform="translate(33,36)" aria-label="OUT">
        <path id="path53636" style="font-weight:bold;font-size:8px;font-family:Roboto, sans-serif;letter-spacing:2px;fill:#333333" d="m 5.1796875,-2.7148438 q 0,0.8398438 -0.296875,1.4726563 -0.296875,0.6328125 -0.8515625,0.9765625 -0.5507812,0.34375 -1.265625,0.34375 -0.7070312,0 -1.2617188,-0.33984375 Q 0.94921875,-0.6015625 0.64453125,-1.2304687 0.33984375,-1.8632812 0.3359375,-2.6835938 v -0.28125 q 0,-0.8398437 0.30078125,-1.4765624 0.3046875,-0.640625 0.85546875,-0.9804688 0.5546875,-0.34375 1.265625,-0.34375 0.7109375,0 1.2617187,0.34375 0.5546875,0.3398438 0.8554688,0.9804688 0.3046875,0.6367187 0.3046875,1.4726562 z m -1.1875,-0.2578125 q 0,-0.8945312 -0.3203125,-1.3593749 -0.3203125,-0.4648438 -0.9140625,-0.4648438 -0.5898437,0 -0.9101563,0.4609375 -0.3203125,0.4570312 -0.3242187,1.34375 v 0.2773437 q 0,0.8710938 0.3203125,1.3515626 0.3203125,0.4804687 0.921875,0.4804687 0.5898438,0 0.90625,-0.4609375 0.3164063,-0.4648437 0.3203125,-1.3515625 z"/>
        <path id="path53638" style="font-weight:bold;font-size:8px;font-family:Roboto, sans-serif;letter-spacing:2px;fill:#333333" d="m 12.34375,-5.6875 v 3.7460938 q 0,0.9335937 -0.585937,1.47656245 -0.582032,0.54296875 -1.59375,0.54296875 -0.9960942,0 -1.5820317,-0.52734375 Q 7.9960937,-0.9765625 7.984375,-1.8984375 V -5.6875 H 9.15625 v 3.7539063 q 0,0.5585937 0.265625,0.8164062 0.2695313,0.25390625 0.742188,0.25390625 0.988281,0 1.003906,-1.03906245 V -5.6875 Z"/>
        <path id="path53640" style="font-weight:bold;font-size:8px;font-family:Roboto, sans-serif;letter-spacing:2px;fill:#333333" d="M 19.585937,-4.7382812 H 17.84375 V 0 h -1.171875 v -4.7382812 h -1.71875 V -5.6875 h 4.632812 z"/>
      </g>
    </g>
  </g>
  <g transform="matrix(0.75,0,0,0.75,48.375,52.125)" id="g52950">
    <g transform="rotate(120,-15,8.660254)" id="g52896">
      <g transform="rotate(-120,1,-0.57735027)" id="g52894">
        <g style="font-weight:bold;font-size:9.33333px;font-family:Roboto, sans-serif;fill:#333333" id="text52892" transform="translate(-2.8,3.3)" aria-label="0">
          <path id="path53591" style="font-weight:bold;font-size:9.33333px;font-family:Roboto, sans-serif;fill:#333333" d="m 4.917316,-2.7434886 q 0,1.3763016 -0.5696612,2.10546798 -0.5696613,0.72916642 -1.6679682,0.72916642 -1.0846351,0 -1.6588536,-0.71549455 Q 0.44661443,-1.3398433 0.43294256,-2.6751293 V -3.896483 q 0,-1.3899735 0.57421854,-2.1100254 0.5787759,-0.7200518 1.6634109,-0.7200518 1.0846351,0 1.6588536,0.7154945 0.5742186,0.7109373 0.5878904,2.0462233 z M 3.6002592,-4.0833319 q 0,-0.8248696 -0.2278645,-1.1985673 -0.2233072,-0.3782551 -0.7018227,-0.3782551 -0.4648436,0 -0.6881508,0.3600259 -0.2187499,0.3554686 -0.2324218,1.1165361 v 1.6132807 q 0,0.8111976 0.2187499,1.2076819 0.2233072,0.39192691 0.7109373,0.39192691 0.4830727,0 0.6972654,-0.37825511 0.2141926,-0.3782551 0.2233072,-1.1575517 z"/>
        </g>
      </g>
    </g>
    <g transform="rotate(-172.92,-15,-0.9279509)" id="g52900">
      <path d="M 0,0 H 2.5" style="stroke:#333333;stroke-width:0.5" id="polyline52898"/>
    </g>
    <g transform="rotate(-145.13,-15,-4.7107798)" id="g52906">
      <g transform="rotate(145.13,1,0.31405199)" id="g52904">
        <g style="font-weight:bold;font-size:9.33333px;font-family:Roboto, sans-serif;fill:#333333" id="text52902" transform="translate(-2.8,3.3)" aria-label="1">
          <path id="path53595" style="font-weight:bold;font-size:9.33333px;font-family:Roboto, sans-serif;fill:#333333" d="M 3.6503894,0 H 2.3333325 V -5.0768212 L 0.76106745,-4.5891911 V -5.6601543 L 3.5091134,-6.644529 h 0.141276 z"/>
        </g>
      </g>
    </g>
    <g transform="rotate(-105.84,-15,-11.336182)" id="g52912">
      <g transform="rotate(105.84,1,0.75574548)" id="g52910">
        <g style="font-weight:bold;font-size:9.33333px;font-family:Roboto, sans-serif;fill:#333333" id="text52908" transform="translate(-2.8,3.3)" aria-label="2">
          <path id="path53598" style="font-weight:bold;font-size:9.33333px;font-family:Roboto, sans-serif;fill:#333333" d="M 4.9993473,0 H 0.45117172 V -0.90234344 L 2.5976554,-3.1901031 q 0.4420571,-0.4830727 0.6516925,-0.8430987 0.2141926,-0.3600259 0.2141926,-0.6835935 0,-0.4420571 -0.2233072,-0.6927081 -0.2233072,-0.2552082 -0.6380206,-0.2552082 -0.4466145,0 -0.70638,0.3098957 -0.2552083,0.3053385 -0.2552083,0.8066404 H 0.31901031 q 0,-0.6061196 0.28710928,-1.1074215 0.29166656,-0.5013019 0.82031221,-0.7838539 0.5286457,-0.2871093 1.1985673,-0.2871093 1.0253903,0 1.5904943,0.4921873 0.5696612,0.4921874 0.5696612,1.3899735 0,0.4921873 -0.2552082,1.0026038 -0.2552083,0.5104165 -0.8749997,1.1894528 l -1.5084631,1.5904942 h 2.8528637 z"/>
        </g>
      </g>
    </g>
    <g transform="rotate(-75.68,-15,-19.310032)" id="g52916">
      <path d="M 0,0 H 4" style="stroke:#333333;stroke-width:0.5" id="polyline52914"/>
    </g>
    <g transform="rotate(-50.26,-15,-31.977973)" id="g52920">
      <path d="M 0,0 H 4" style="stroke:#333333;stroke-width:0.5" id="polyline52918"/>
    </g>
    <g transform="rotate(-27.87,-15,-60.453801)" id="g52926">
      <g transform="rotate(27.87,1,4.0302534)" id="g52924">
        <g style="font-weight:bold;font-size:9.33333px;font-family:Roboto, sans-serif;fill:#333333" id="text52922" transform="translate(-2.8,3.3)" aria-label="5">
          <path id="path53603" style="font-weight:bold;font-size:9.33333px;font-family:Roboto, sans-serif;fill:#333333" d="m 0.6471352,-3.2630197 0.3828124,-3.3723947 h 3.7187487 v 1.0983069 h -2.638671 l -0.1640624,1.4264318 q 0.4694009,-0.2506509 0.9980465,-0.2506509 0.9479164,0 1.4856766,0.5878904 0.5377602,0.5878904 0.5377602,1.6451817 0,0.6425779 -0.2734374,1.15299442 -0.2688801,0.5058592 -0.7747393,0.78841119 -0.5058592,0.27799469 -1.19401,0.27799469 -0.6015623,0 -1.1165361,-0.24153637 Q 1.0937496,-0.39648424 0.79296848,-0.83854138 0.49674462,-1.2805985 0.47851546,-1.8457025 H 1.7819004 q 0.041016,0.4147134 0.2871093,0.6471352 0.250651,0.22786451 0.6516925,0.22786451 0.4466144,0 0.6881508,-0.31901031 0.2415364,-0.3235676 0.2415364,-0.911458 0,-0.565104 -0.2779947,-0.8658851 Q 3.0944,-3.3678374 2.5839835,-3.3678374 q -0.4694009,0 -0.7610675,0.2460937 l -0.1276041,0.1184895 z"/>
        </g>
      </g>
    </g>
    <g transform="rotate(-7.62,-15,-225.24135)" id="g52930">
      <path d="M 0,0 H 4" style="stroke:#333333;stroke-width:0.5" id="polyline52928"/>
    </g>
    <g transform="rotate(11,-15,155.78096)" id="g52934">
      <path d="M 0,0 H 4" style="stroke:#333333;stroke-width:0.5" id="polyline52932"/>
    </g>
    <g transform="rotate(28.33,-15,59.432062)" id="g52938">
      <path d="M 0,0 H 4" style="stroke:#333333;stroke-width:0.5" id="polyline52936"/>
    </g>
    <g transform="rotate(44.6,-15,36.573779)" id="g52942">
      <path d="M 0,0 H 4" style="stroke:#333333;stroke-width:0.5" id="polyline52940"/>
    </g>
    <g transform="rotate(60,-15,25.980762)" id="g52948">
      <g transform="rotate(-60,1,-1.7320508)" id="g52946">
        <g style="font-weight:bold;font-size:9.33333px;font-family:Roboto, sans-serif;fill:#333333" id="text52944" transform="translate(-5.3,3.3)" aria-label="10">
          <path id="path53610" style="font-weight:bold;font-size:9.33333px;font-family:Roboto, sans-serif;fill:#333333" d="M 3.6503894,0 H 2.3333325 V -5.0768212 L 0.76106745,-4.5891911 V -5.6601543 L 3.5091134,-6.644529 h 0.141276 z"/>
          <path id="path53612" style="font-weight:bold;font-size:9.33333px;font-family:Roboto, sans-serif;fill:#333333" d="m 10.276689,-2.7434886 q 0,1.3763016 -0.5696611,2.10546798 -0.5696613,0.72916642 -1.6679682,0.72916642 -1.0846351,0 -1.6588536,-0.71549455 Q 5.8059875,-1.3398433 5.7923157,-2.6751293 V -3.896483 q 0,-1.3899735 0.5742185,-2.1100254 0.5787759,-0.7200518 1.6634109,-0.7200518 1.084635,0 1.6588536,0.7154945 0.5742183,0.7109373 0.5878903,2.0462233 z M 8.9596323,-4.0833319 q 0,-0.8248696 -0.2278645,-1.1985673 -0.2233072,-0.3782551 -0.7018227,-0.3782551 -0.4648436,0 -0.6881508,0.3600259 -0.2187499,0.3554686 -0.2324218,1.1165361 v 1.6132807 q 0,0.8111976 0.2187499,1.2076819 0.2233072,0.39192691 0.7109373,0.39192691 0.4830727,0 0.6972654,-0.37825511 0.2141926,-0.3782551 0.2233072,-1.1575517 z"/>
        </g>
      </g>
    </g>
  </g>
  <g transform="matrix(0.75,0,0,0.75,48.375,108.375)" id="g53012">
    <g transform="rotate(120,-15,8.660254)" id="g52958">
      <g transform="rotate(-120,1,-0.57735027)" id="g52956">
        <g style="font-weight:bold;font-size:9.33333px;font-family:Roboto, sans-serif;fill:#333333" id="text52954" transform="translate(-2.8,3.3)" aria-label="0">
          <path id="path53567" style="font-weight:bold;font-size:9.33333px;font-family:Roboto, sans-serif;fill:#333333" d="m 4.917316,-2.7434886 q 0,1.3763016 -0.5696612,2.10546798 -0.5696613,0.72916642 -1.6679682,0.72916642 -1.0846351,0 -1.6588536,-0.71549455 Q 0.44661443,-1.3398433 0.43294256,-2.6751293 V -3.896483 q 0,-1.3899735 0.57421854,-2.1100254 0.5787759,-0.7200518 1.6634109,-0.7200518 1.0846351,0 1.6588536,0.7154945 0.5742186,0.7109373 0.5878904,2.0462233 z M 3.6002592,-4.0833319 q 0,-0.8248696 -0.2278645,-1.1985673 -0.2233072,-0.3782551 -0.7018227,-0.3782551 -0.4648436,0 -0.6881508,0.3600259 -0.2187499,0.3554686 -0.2324218,1.1165361 v 1.6132807 q 0,0.8111976 0.2187499,1.2076819 0.2233072,0.39192691 0.7109373,0.39192691 0.4830727,0 0.6972654,-0.37825511 0.2141926,-0.3782551 0.2233072,-1.1575517 z"/>
        </g>
      </g>
    </g>
    <g transform="rotate(-172.92,-15,-0.9279509)" id="g52962">
      <path d="M 0,0 H 2.5" style="stroke:#333333;stroke-width:0.5" id="polyline52960"/>
    </g>
    <g transform="rotate(-145.13,-15,-4.7107798)" id="g52968">
      <g transform="rotate(145.13,1,0.31405199)" id="g52966">
        <g style="font-weight:bold;font-size:9.33333px;font-family:Roboto, sans-serif;fill:#333333" id="text52964" transform="translate(-2.8,3.3)" aria-label="1">
          <path id="path53571" style="font-weight:bold;font-size:9.33333px;font-family:Roboto, sans-serif;fill:#333333" d="M 3.6503894,0 H 2.3333325 V -5.0768212 L 0.76106745,-4.5891911 V -5.6601543 L 3.5091134,-6.644529 h 0.141276 z"/>
        </g>
      </g>
    </g>
    <g transform="rotate(-105.84,-15,-11.336182)" id="g52974">
      <g transform="rotate(105.84,1,0.75574548)" id="g52972">
        <g style="font-weight:bold;font-size:9.33333px;font-family:Roboto, sans-serif;fill:#333333" id="text52970" transform="translate(-2.8,3.3)" aria-label="2">
          <path id="path53574" style="font-weight:bold;font-size:9.33333px;font-family:Roboto, sans-serif;fill:#333333" d="M 4.9993473,0 H 0.45117172 V -0.90234344 L 2.5976554,-3.1901031 q 0.4420571,-0.4830727 0.6516925,-0.8430987 0.2141926,-0.3600259 0.2141926,-0.6835935 0,-0.4420571 -0.2233072,-0.6927081 -0.2233072,-0.2552082 -0.6380206,-0.2552082 -0.4466145,0 -0.70638,0.3098957 -0.2552083,0.3053385 -0.2552083,0.8066404 H 0.31901031 q 0,-0.6061196 0.28710928,-1.1074215 0.29166656,-0.5013019 0.82031221,-0.7838539 0.5286457,-0.2871093 1.1985673,-0.2871093 1.0253903,0 1.5904943,0.4921873 0.5696612,0.4921874 0.5696612,1.3899735 0,0.4921873 -0.2552082,1.0026038 -0.2552083,0.5104165 -0.8749997,1.1894528 l -1.5084631,1.5904942 h 2.8528637 z"/>
        </g>
      </g>
    </g>
    <g transform="rotate(-75.68,-15,-19.310032)" id="g52978">
      <path d="M 0,0 H 4" style="stroke:#333333;stroke-width:0.5" id="polyline52976"/>
    </g>
    <g transform="rotate(-50.26,-15,-31.977973)" id="g52982">
      <path d="M 0,0 H 4" style="stroke:#333333;stroke-width:0.5" id="polyline52980"/>
    </g>
    <g transform="rotate(-27.87,-15,-60.453801)" id="g52988">
      <g transform="rotate(27.87,1,4.0302534)" id="g52986">
        <g style="font-weight:bold;font-size:9.33333px;font-family:Roboto, sans-serif;fill:#333333" id="text52984" transform="translate(-2.8,3.3)" aria-label="5">
          <path id="path53579" style="font-weight:bold;font-size:9.33333px;font-family:Roboto, sans-serif;fill:#333333" d="m 0.6471352,-3.2630197 0.3828124,-3.3723947 h 3.7187487 v 1.0983069 h -2.638671 l -0.1640624,1.4264318 q 0.4694009,-0.2506509 0.9980465,-0.2506509 0.9479164,0 1.4856766,0.5878904 0.5377602,0.5878904 0.5377602,1.6451817 0,0.6425779 -0.2734374,1.15299442 -0.2688801,0.5058592 -0.7747393,0.78841119 -0.5058592,0.27799469 -1.19401,0.27799469 -0.6015623,0 -1.1165361,-0.24153637 Q 1.0937496,-0.39648424 0.79296848,-0.83854138 0.49674462,-1.2805985 0.47851546,-1.8457025 H 1.7819004 q 0.041016,0.4147134 0.2871093,0.6471352 0.250651,0.22786451 0.6516925,0.22786451 0.4466144,0 0.6881508,-0.31901031 0.2415364,-0.3235676 0.2415364,-0.911458 0,-0.565104 -0.2779947,-0.8658851 Q 3.0944,-3.3678374 2.5839835,-3.3678374 q -0.4694009,0 -0.7610675,0.2460937 l -0.1276041,0.1184895 z"/>
        </g>
      </g>
    </g>
    <g transform="rotate(-7.62,-15,-225.24135)" id="g52992">
      <path d="M 0,0 H 4" style="stroke:#333333;stroke-width:0.5" id="polyline52990"/>
    </g>
    <g transform="rotate(11,-15,155.78096)" id="g52996">
      <path d="M 0,0 H 4" style="stroke:#333333;stroke-width:0.5" id="polyline52994"/>
    </g>
    <g transform="rotate(28.33,-15,59.432062)" id="g53000">
      <path d="M 0,0 H 4" style="stroke:#333333;stroke-width:0.5" id="polyline52998"/>
    </g>
    <g transform="rotate(44.6,-15,36.573779)" id="g53004">
      <path d="M 0,0 H 4" style="stroke:#333333;stroke-width:0.5" id="polyline53002"/>
    </g>
    <g transform="rotate(60,-15,25.980762)" id="g53010">
      <g transform="rotate(-60,1,-1.7320508)" id="g53008">
        <g style="font-weight:bold;font-size:9.33333px;font-family:Roboto, sans-serif;fill:#333333" id="text53006" transform="translate(-5.3,3.3)" aria-label="10">
          <path id="path53586" style="font-weight:bold;font-size:9.33333px;font-family:Roboto, sans-serif;fill:#333333" d="M 3.6503894,0 H 2.3333325 V -5.0768212 L 0.76106745,-4.5891911 V -5.6601543 L 3.5091134,-6.644529 h 0.141276 z"/>
          <path id="path53588" style="font-weight:bold;font-size:9.33333px;font-family:Roboto, sans-serif;fill:#333333" d="m 10.276689,-2.7434886 q 0,1.3763016 -0.5696611,2.10546798 -0.5696613,0.72916642 -1.6679682,0.72916642 -1.0846351,0 -1.6588536,-0.71549455 Q 5.8059875,-1.3398433 5.7923157,-2.6751293 V -3.896483 q 0,-1.3899735 0.5742185,-2.1100254 0.5787759,-0.7200518 1.6634109,-0.7200518 1.084635,0 1.6588536,0.7154945 0.5742183,0.7109373 0.5878903,2.0462233 z M 8.9596323,-4.0833319 q 0,-0.8248696 -0.2278645,-1.1985673 -0.2233072,-0.3782551 -0.7018227,-0.3782551 -0.4648436,0 -0.6881508,0.3600259 -0.2187499,0.3554686 -0.2324218,1.1165361 v 1.6132807 q 0,0.8111976 0.2187499,1.2076819 0.2233072,0.39192691 0.7109373,0.39192691 0.4830727,0 0.6972654,-0.37825511 0.2141926,-0.3782551 0.2233072,-1.1575517 z"/>
        </g>
      </g>
    </g>
  </g>
  <g transform="matrix(0.75,0,0,0.75,48.375,164.625)" id="g53074">
    <g transform="rotate(120,-15,8.660254)" id="g53020">
      <g transform="rotate(-120,1,-0.57735027)" id="g53018">
        <g style="font-weight:bold;font-size:9.33333px;font-family:Roboto, sans-serif;fill:#333333" id="text53016" transform="translate(-2.8,3.3)" aria-label="0">
          <path id="path53543" style="font-weight:bold;font-size:9.33333px;font-family:Roboto, sans-serif;fill:#333333" d="m 4.917316,-2.7434886 q 0,1.3763016 -0.5696612,2.10546798 -0.5696613,0.72916642 -1.6679682,0.72916642 -1.0846351,0 -1.6588536,-0.71549455 Q 0.44661443,-1.3398433 0.43294256,-2.6751293 V -3.896483 q 0,-1.3899735 0.57421854,-2.1100254 0.5787759,-0.7200518 1.6634109,-0.7200518 1.0846351,0 1.6588536,0.7154945 0.5742186,0.7109373 0.5878904,2.0462233 z M 3.6002592,-4.0833319 q 0,-0.8248696 -0.2278645,-1.1985673 -0.2233072,-0.3782551 -0.7018227,-0.3782551 -0.4648436,0 -0.6881508,0.3600259 -0.2187499,0.3554686 -0.2324218,1.1165361 v 1.6132807 q 0,0.8111976 0.2187499,1.2076819 0.2233072,0.39192691 0.7109373,0.39192691 0.4830727,0 0.6972654,-0.37825511 0.2141926,-0.3782551 0.2233072,-1.1575517 z"/>
        </g>
      </g>
    </g>
    <g transform="rotate(-172.92,-15,-0.9279509)" id="g53024">
      <path d="M 0,0 H 2.5" style="stroke:#333333;stroke-width:0.5" id="polyline53022"/>
    </g>
    <g transform="rotate(-145.13,-15,-4.7107798)" id="g53030">
      <g transform="rotate(145.13,1,0.31405199)" id="g53028">
        <g style="font-weight:bold;font-size:9.33333px;font-family:Roboto, sans-serif;fill:#333333" id="text53026" transform="translate(-2.8,3.3)" aria-label="1">
          <path id="path53547" style="font-weight:bold;font-size:9.33333px;font-family:Roboto, sans-serif;fill:#333333" d="M 3.6503894,0 H 2.3333325 V -5.0768212 L 0.76106745,-4.5891911 V -5.6601543 L 3.5091134,-6.644529 h 0.141276 z"/>
        </g>
      </g>
    </g>
    <g transform="rotate(-105.84,-15,-11.336182)" id="g53036">
      <g transform="rotate(105.84,1,0.75574548)" id="g53034">
        <g style="font-weight:bold;font-size:9.33333px;font-family:Roboto, sans-serif;fill:#333333" id="text53032" transform="translate(-2.8,3.3)" aria-label="2">
          <path id="path53550" style="font-weight:bold;font-size:9.33333px;font-family:Roboto, sans-serif;fill:#333333" d="M 4.9993473,0 H 0.45117172 V -0.90234344 L 2.5976554,-3.1901031 q 0.4420571,-0.4830727 0.6516925,-0.8430987 0.2141926,-0.3600259 0.2141926,-0.6835935 0,-0.4420571 -0.2233072,-0.6927081 -0.2233072,-0.2552082 -0.6380206,-0.2552082 -0.4466145,0 -0.70638,0.3098957 -0.2552083,0.3053385 -0.2552083,0.8066404 H 0.31901031 q 0,-0.6061196 0.28710928,-1.1074215 0.29166656,-0.5013019 0.82031221,-0.7838539 0.5286457,-0.2871093 1.1985673,-0.2871093 1.0253903,0 1.5904943,0.4921873 0.5696612,0.4921874 0.5696612,1.3899735 0,0.4921873 -0.2552082,1.0026038 -0.2552083,0.5104165 -0.8749997,1.1894528 l -1.5084631,1.5904942 h 2.8528637 z"/>
        </g>
      </g>
    </g>
    <g transform="rotate(-75.68,-15,-19.310032)" id="g53040">
      <path d="M 0,0 H 4" style="stroke:#333333;stroke-width:0.5" id="polyline53038"/>
    </g>
    <g transform="rotate(-50.26,-15,-31.977973)" id="g53044">
      <path d="M 0,0 H 4" style="stroke:#333333;stroke-width:0.5" id="polyline53042"/>
    </g>
    <g transform="rotate(-27.87,-15,-60.453801)" id="g53050">
      <g transform="rotate(27.87,1,4.0302534)" id="g53048">
        <g style="font-weight:bold;font-size:9.33333px;font-family:Roboto, sans-serif;fill:#333333" id="text53046" transform="translate(-2.8,3.3)" aria-label="5">
          <path id="path53555" style="font-weight:bold;font-size:9.33333px;font-family:Roboto, sans-serif;fill:#333333" d="m 0.6471352,-3.2630197 0.3828124,-3.3723947 h 3.7187487 v 1.0983069 h -2.638671 l -0.1640624,1.4264318 q 0.4694009,-0.2506509 0.9980465,-0.2506509 0.9479164,0 1.4856766,0.5878904 0.5377602,0.5878904 0.5377602,1.6451817 0,0.6425779 -0.2734374,1.15299442 -0.2688801,0.5058592 -0.7747393,0.78841119 -0.5058592,0.27799469 -1.19401,0.27799469 -0.6015623,0 -1.1165361,-0.24153637 Q 1.0937496,-0.39648424 0.79296848,-0.83854138 0.49674462,-1.2805985 0.47851546,-1.8457025 H 1.7819004 q 0.041016,0.4147134 0.2871093,0.6471352 0.250651,0.22786451 0.6516925,0.22786451 0.4466144,0 0.6881508,-0.31901031 0.2415364,-0.3235676 0.2415364,-0.911458 0,-0.565104 -0.2779947,-0.8658851 Q 3.0944,-3.3678374 2.5839835,-3.3678374 q -0.4694009,0 -0.7610675,0.2460937 l -0.1276041,0.1184895 z"/>
        </g>
      </g>
    </g>
    <g transform="rotate(-7.62,-15,-225.24135)" id="g53054">
      <path d="M 0,0 H 4" style="stroke:#333333;stroke-width:0.5" id="polyline53052"/>
    </g>
    <g transform="rotate(11,-15,155.78096)" id="g53058">
      <path d="M 0,0 H 4" style="stroke:#333333;stroke-width:0.5" id="polyline53056"/>
    </g>
    <g transform="rotate(28.33,-15,59.432062)" id="g53062">
      <path d="M 0,0 H 4" style="stroke:#333333;stroke-width:0.5" id="polyline53060"/>
    </g>
    <g transform="rotate(44.6,-15,36.573779)" id="g53066">
      <path d="M 0,0 H 4" style="stroke:#333333;stroke-width:0.5" id="polyline53064"/>
    </g>
    <g transform="rotate(60,-15,25.980762)" id="g53072">
      <g transform="rotate(-60,1,-1.7320508)" id="g53070">
        <g style="font-weight:bold;font-size:9.33333px;font-family:Roboto, sans-serif;fill:#333333" id="text53068" transform="translate(-5.3,3.3)" aria-label="10">
          <path id="path53562" style="font-weight:bold;font-size:9.33333px;font-family:Roboto, sans-serif;fill:#333333" d="M 3.6503894,0 H 2.3333325 V -5.0768212 L 0.76106745,-4.5891911 V -5.6601543 L 3.5091134,-6.644529 h 0.141276 z"/>
          <path id="path53564" style="font-weight:bold;font-size:9.33333px;font-family:Roboto, sans-serif;fill:#333333" d="m 10.276689,-2.7434886 q 0,1.3763016 -0.5696611,2.10546798 -0.5696613,0.72916642 -1.6679682,0.72916642 -1.0846351,0 -1.6588536,-0.71549455 Q 5.8059875,-1.3398433 5.7923157,-2.6751293 V -3.896483 q 0,-1.3899735 0.5742185,-2.1100254 0.5787759,-0.7200518 1.6634109,-0.7200518 1.084635,0 1.6588536,0.7154945 0.5742183,0.7109373 0.5878903,2.0462233 z M 8.9596323,-4.0833319 q 0,-0.8248696 -0.2278645,-1.1985673 -0.2233072,-0.3782551 -0.7018227,-0.3782551 -0.4648436,0 -0.6881508,0.3600259 -0.2187499,0.3554686 -0.2324218,1.1165361 v 1.6132807 q 0,0.8111976 0.2187499,1.2076819 0.2233072,0.39192691 0.7109373,0.39192691 0.4830727,0 0.6972654,-0.37825511 0.2141926,-0.3782551 0.2233072,-1.1575517 z"/>
        </g>
      </g>
    </g>
  </g>
  <g transform="matrix(0.75,0,0,0.75,48.375,220.125)" id="g53136">
    <g transform="rotate(120,-15,8.660254)" id="g53082">
      <g transform="rotate(-120,1,-0.57735027)" id="g53080">
        <g style="font-weight:bold;font-size:9.33333px;font-family:Roboto, sans-serif;fill:#333333" id="text53078" transform="translate(-2.8,3.3)" aria-label="0">
          <path id="path53519" style="font-weight:bold;font-size:9.33333px;font-family:Roboto, sans-serif;fill:#333333" d="m 4.917316,-2.7434886 q 0,1.3763016 -0.5696612,2.10546798 -0.5696613,0.72916642 -1.6679682,0.72916642 -1.0846351,0 -1.6588536,-0.71549455 Q 0.44661443,-1.3398433 0.43294256,-2.6751293 V -3.896483 q 0,-1.3899735 0.57421854,-2.1100254 0.5787759,-0.7200518 1.6634109,-0.7200518 1.0846351,0 1.6588536,0.7154945 0.5742186,0.7109373 0.5878904,2.0462233 z M 3.6002592,-4.0833319 q 0,-0.8248696 -0.2278645,-1.1985673 -0.2233072,-0.3782551 -0.7018227,-0.3782551 -0.4648436,0 -0.6881508,0.3600259 -0.2187499,0.3554686 -0.2324218,1.1165361 v 1.6132807 q 0,0.8111976 0.2187499,1.2076819 0.2233072,0.39192691 0.7109373,0.39192691 0.4830727,0 0.6972654,-0.37825511 0.2141926,-0.3782551 0.2233072,-1.1575517 z"/>
        </g>
      </g>
    </g>
    <g transform="rotate(-172.92,-15,-0.9279509)" id="g53086">
      <path d="M 0,0 H 2.5" style="stroke:#333333;stroke-width:0.5" id="polyline53084"/>
    </g>
    <g transform="rotate(-145.13,-15,-4.7107798)" id="g53092">
      <g transform="rotate(145.13,1,0.31405199)" id="g53090">
        <g style="font-weight:bold;font-size:9.33333px;font-family:Roboto, sans-serif;fill:#333333" id="text53088" transform="translate(-2.8,3.3)" aria-label="1">
          <path id="path53523" style="font-weight:bold;font-size:9.33333px;font-family:Roboto, sans-serif;fill:#333333" d="M 3.6503894,0 H 2.3333325 V -5.0768212 L 0.76106745,-4.5891911 V -5.6601543 L 3.5091134,-6.644529 h 0.141276 z"/>
        </g>
      </g>
    </g>
    <g transform="rotate(-105.84,-15,-11.336182)" id="g53098">
      <g transform="rotate(105.84,1,0.75574548)" id="g53096">
        <g style="font-weight:bold;font-size:9.33333px;font-family:Roboto, sans-serif;fill:#333333" id="text53094" transform="translate(-2.8,3.3)" aria-label="2">
          <path id="path53526" style="font-weight:bold;font-size:9.33333px;font-family:Roboto, sans-serif;fill:#333333" d="M 4.9993473,0 H 0.45117172 V -0.90234344 L 2.5976554,-3.1901031 q 0.4420571,-0.4830727 0.6516925,-0.8430987 0.2141926,-0.3600259 0.2141926,-0.6835935 0,-0.4420571 -0.2233072,-0.6927081 -0.2233072,-0.2552082 -0.6380206,-0.2552082 -0.4466145,0 -0.70638,0.3098957 -0.2552083,0.3053385 -0.2552083,0.8066404 H 0.31901031 q 0,-0.6061196 0.28710928,-1.1074215 0.29166656,-0.5013019 0.82031221,-0.7838539 0.5286457,-0.2871093 1.1985673,-0.2871093 1.0253903,0 1.5904943,0.4921873 0.5696612,0.4921874 0.5696612,1.3899735 0,0.4921873 -0.2552082,1.0026038 -0.2552083,0.5104165 -0.8749997,1.1894528 l -1.5084631,1.5904942 h 2.8528637 z"/>
        </g>
      </g>
    </g>
    <g transform="rotate(-75.68,-15,-19.310032)" id="g53102">
      <path d="M 0,0 H 4" style="stroke:#333333;stroke-width:0.5" id="polyline53100"/>
    </g>
    <g transform="rotate(-50.26,-15,-31.977973)" id="g53106">
      <path d="M 0,0 H 4" style="stroke:#333333;stroke-width:0.5" id="polyline53104"/>
    </g>
    <g transform="rotate(-27.87,-15,-60.453801)" id="g53112">
      <g transform="rotate(27.87,1,4.0302534)" id="g53110">
        <g style="font-weight:bold;font-size:9.33333px;font-family:Roboto, sans-serif;fill:#333333" id="text53108" transform="translate(-2.8,3.3)" aria-label="5">
          <path id="path53531" style="font-weight:bold;font-size:9.33333px;font-family:Roboto, sans-serif;fill:#333333" d="m 0.6471352,-3.2630197 0.3828124,-3.3723947 h 3.7187487 v 1.0983069 h -2.638671 l -0.1640624,1.4264318 q 0.4694009,-0.2506509 0.9980465,-0.2506509 0.9479164,0 1.4856766,0.5878904 0.5377602,0.5878904 0.5377602,1.6451817 0,0.6425779 -0.2734374,1.15299442 -0.2688801,0.5058592 -0.7747393,0.78841119 -0.5058592,0.27799469 -1.19401,0.27799469 -0.6015623,0 -1.1165361,-0.24153637 Q 1.0937496,-0.39648424 0.79296848,-0.83854138 0.49674462,-1.2805985 0.47851546,-1.8457025 H 1.7819004 q 0.041016,0.4147134 0.2871093,0.6471352 0.250651,0.22786451 0.6516925,0.22786451 0.4466144,0 0.6881508,-0.31901031 0.2415364,-0.3235676 0.2415364,-0.911458 0,-0.565104 -0.2779947,-0.8658851 Q 3.0944,-3.3678374 2.5839835,-3.3678374 q -0.4694009,0 -0.7610675,0.2460937 l -0.1276041,0.1184895 z"/>
        </g>
      </g>
    </g>
    <g transform="rotate(-7.62,-15,-225.24135)" id="g53116">
      <path d="M 0,0 H 4" style="stroke:#333333;stroke-width:0.5" id="polyline53114"/>
    </g>
    <g transform="rotate(11,-15,155.78096)" id="g53120">
      <path d="M 0,0 H 4" style="stroke:#333333;stroke-width:0.5" id="polyline53118"/>
    </g>
    <g transform="rotate(28.33,-15,59.432062)" id="g53124">
      <path d="M 0,0 H 4" style="stroke:#333333;stroke-width:0.5" id="polyline53122"/>
    </g>
    <g transform="rotate(44.6,-15,36.573779)" id="g53128">
      <path d="M 0,0 H 4" style="stroke:#333333;stroke-width:0.5" id="polyline53126"/>
    </g>
    <g transform="rotate(60,-15,25.980762)" id="g53134">
      <g transform="rotate(-60,1,-1.7320508)" id="g53132">
        <g style="font-weight:bold;font-size:9.33333px;font-family:Roboto, sans-serif;fill:#333333" id="text53130" transform="translate(-5.3,3.3)" aria-label="10">
          <path id="path53538" style="font-weight:bold;font-size:9.33333px;font-family:Roboto, sans-serif;fill:#333333" d="M 3.6503894,0 H 2.3333325 V -5.0768212 L 0.76106745,-4.5891911 V -5.6601543 L 3.5091134,-6.644529 h 0.141276 z"/>
          <path id="path53540" style="font-weight:bold;font-size:9.33333px;font-family:Roboto, sans-serif;fill:#333333" d="m 10.276689,-2.7434886 q 0,1.3763016 -0.5696611,2.10546798 -0.5696613,0.72916642 -1.6679682,0.72916642 -1.0846351,0 -1.6588536,-0.71549455 Q 5.8059875,-1.3398433 5.7923157,-2.6751293 V -3.896483 q 0,-1.3899735 0.5742185,-2.1100254 0.5787759,-0.7200518 1.6634109,-0.7200518 1.084635,0 1.6588536,0.7154945 0.5742183,0.7109373 0.5878903,2.0462233 z M 8.9596323,-4.0833319 q 0,-0.8248696 -0.2278645,-1.1985673 -0.2233072,-0.3782551 -0.7018227,-0.3782551 -0.4648436,0 -0.6881508,0.3600259 -0.2187499,0.3554686 -0.2324218,1.1165361 v 1.6132807 q 0,0.8111976 0.2187499,1.2076819 0.2233072,0.39192691 0.7109373,0.39192691 0.4830727,0 0.6972654,-0.37825511 0.2141926,-0.3782551 0.2233072,-1.1575517 z"/>
        </g>
      </g>
    </g>
  </g>
  <g transform="matrix(0.75,0,0,0.75,101.625,276.375)" id="g53188">
    <g transform="rotate(120,-15,8.660254)" id="g53144">
      <g transform="rotate(-120,1,-0.57735027)" id="g53142">
        <g style="font-weight:bold;font-size:9.33333px;font-family:Roboto, sans-serif;fill:#333333" id="text53140" transform="translate(-2.8,3.3)" aria-label="0">
          <path id="path53502" style="font-weight:bold;font-size:9.33333px;font-family:Roboto, sans-serif;fill:#333333" d="m 4.917316,-2.7434886 q 0,1.3763016 -0.5696612,2.10546798 -0.5696613,0.72916642 -1.6679682,0.72916642 -1.0846351,0 -1.6588536,-0.71549455 Q 0.44661443,-1.3398433 0.43294256,-2.6751293 V -3.896483 q 0,-1.3899735 0.57421854,-2.1100254 0.5787759,-0.7200518 1.6634109,-0.7200518 1.0846351,0 1.6588536,0.7154945 0.5742186,0.7109373 0.5878904,2.0462233 z M 3.6002592,-4.0833319 q 0,-0.8248696 -0.2278645,-1.1985673 -0.2233072,-0.3782551 -0.7018227,-0.3782551 -0.4648436,0 -0.6881508,0.3600259 -0.2187499,0.3554686 -0.2324218,1.1165361 v 1.6132807 q 0,0.8111976 0.2187499,1.2076819 0.2233072,0.39192691 0.7109373,0.39192691 0.4830727,0 0.6972654,-0.37825511 0.2141926,-0.3782551 0.2233072,-1.1575517 z"/>
        </g>
      </g>
    </g>
    <g transform="rotate(150,-15,4.0192379)" id="g53148">
      <path d="M 0,0 H 4" style="stroke:#333333;stroke-width:0.5" id="polyline53146"/>
    </g>
    <g transform="rotate(180,-15,0)" id="g53152">
      <path d="M 0,0 H 4" style="stroke:#333333;stroke-width:0.5" id="polyline53150"/>
    </g>
    <g transform="rotate(-150,-15,-4.0192379)" id="g53156">
      <path d="M 0,0 H 5" style="stroke:#333333;stroke-width:0.5" id="polyline53154"/>
    </g>
    <g transform="rotate(-120,-15,-8.660254)" id="g53160">
      <path d="M 0,0 H 4" style="stroke:#333333;stroke-width:0.5" id="polyline53158"/>
    </g>
    <g transform="rotate(-90,-15,-15)" id="g53164">
      <path d="M 0,0 H 4" style="stroke:#333333;stroke-width:0.5" id="polyline53162"/>
    </g>
    <g transform="rotate(-60,-15,-25.980762)" id="g53168">
      <path d="M 0,0 H 4" style="stroke:#333333;stroke-width:0.5" id="polyline53166"/>
    </g>
    <g transform="rotate(-30,-15,-55.980762)" id="g53172">
      <path d="M 0,0 H 4" style="stroke:#333333;stroke-width:0.5" id="polyline53170"/>
    </g>
    <g transform="translate(30)" id="g53176">
      <path d="M 0,0 H 4" style="stroke:#333333;stroke-width:0.5" id="polyline53174"/>
    </g>
    <g transform="rotate(30,-15,55.980762)" id="g53180">
      <path d="M 0,0 H 4" style="stroke:#333333;stroke-width:0.5" id="polyline53178"/>
    </g>
    <g transform="rotate(60,-15,25.980762)" id="g53186">
      <g transform="rotate(-60,1,-1.7320508)" id="g53184">
        <g style="font-weight:bold;font-size:9.33333px;font-family:Roboto, sans-serif;fill:#333333" id="text53182" transform="translate(-5.3,3.3)" aria-label="10">
          <path id="path53514" style="font-weight:bold;font-size:9.33333px;font-family:Roboto, sans-serif;fill:#333333" d="M 3.6503894,0 H 2.3333325 V -5.0768212 L 0.76106745,-4.5891911 V -5.6601543 L 3.5091134,-6.644529 h 0.141276 z"/>
          <path id="path53516" style="font-weight:bold;font-size:9.33333px;font-family:Roboto, sans-serif;fill:#333333" d="m 10.276689,-2.7434886 q 0,1.3763016 -0.5696611,2.10546798 -0.5696613,0.72916642 -1.6679682,0.72916642 -1.0846351,0 -1.6588536,-0.71549455 Q 5.8059875,-1.3398433 5.7923157,-2.6751293 V -3.896483 q 0,-1.3899735 0.5742185,-2.1100254 0.5787759,-0.7200518 1.6634109,-0.7200518 1.084635,0 1.6588536,0.7154945 0.5742183,0.7109373 0.5878903,2.0462233 z M 8.9596323,-4.0833319 q 0,-0.8248696 -0.2278645,-1.1985673 -0.2233072,-0.3782551 -0.7018227,-0.3782551 -0.4648436,0 -0.6881508,0.3600259 -0.2187499,0.3554686 -0.2324218,1.1165361 v 1.6132807 q 0,0.8111976 0.2187499,1.2076819 0.2233072,0.39192691 0.7109373,0.39192691 0.4830727,0 0.6972654,-0.37825511 0.2141926,-0.3782551 0.2233072,-1.1575517 z"/>
        </g>
      </g>
    </g>
  </g>
  <g transform="matrix(0.75,0,0,0.75,101.625,332.25)" id="g53240">
    <g transform="rotate(120,-15,8.660254)" id="g53196">
      <g transform="rotate(-120,1,-0.57735027)" id="g53194">
        <g style="font-weight:bold;font-size:9.33333px;font-family:Roboto, sans-serif;fill:#333333" id="text53192" transform="translate(-2.8,3.3)" aria-label="0">
          <path id="path53485" style="font-weight:bold;font-size:9.33333px;font-family:Roboto, sans-serif;fill:#333333" d="m 4.917316,-2.7434886 q 0,1.3763016 -0.5696612,2.10546798 -0.5696613,0.72916642 -1.6679682,0.72916642 -1.0846351,0 -1.6588536,-0.71549455 Q 0.44661443,-1.3398433 0.43294256,-2.6751293 V -3.896483 q 0,-1.3899735 0.57421854,-2.1100254 0.5787759,-0.7200518 1.6634109,-0.7200518 1.0846351,0 1.6588536,0.7154945 0.5742186,0.7109373 0.5878904,2.0462233 z M 3.6002592,-4.0833319 q 0,-0.8248696 -0.2278645,-1.1985673 -0.2233072,-0.3782551 -0.7018227,-0.3782551 -0.4648436,0 -0.6881508,0.3600259 -0.2187499,0.3554686 -0.2324218,1.1165361 v 1.6132807 q 0,0.8111976 0.2187499,1.2076819 0.2233072,0.39192691 0.7109373,0.39192691 0.4830727,0 0.6972654,-0.37825511 0.2141926,-0.3782551 0.2233072,-1.1575517 z"/>
        </g>
      </g>
    </g>
    <g transform="rotate(150,-15,4.0192379)" id="g53200">
      <path d="M 0,0 H 4" style="stroke:#333333;stroke-width:0.5" id="polyline53198"/>
    </g>
    <g transform="rotate(180,-15,0)" id="g53204">
      <path d="M 0,0 H 4" style="stroke:#333333;stroke-width:0.5" id="polyline53202"/>
    </g>
    <g transform="rotate(-150,-15,-4.0192379)" id="g53208">
      <path d="M 0,0 H 5" style="stroke:#333333;stroke-width:0.5" id="polyline53206"/>
    </g>
    <g transform="rotate(-120,-15,-8.660254)" id="g53212">
      <path d="M 0,0 H 4" style="stroke:#333333;stroke-width:0.5" id="polyline53210"/>
    </g>
    <g transform="rotate(-90,-15,-15)" id="g53216">
      <path d="M 0,0 H 4" style="stroke:#333333;stroke-width:0.5" id="polyline53214"/>
    </g>
    <g transform="rotate(-60,-15,-25.980762)" id="g53220">
      <path d="M 0,0 H 4" style="stroke:#333333;stroke-width:0.5" id="polyline53218"/>
    </g>
    <g transform="rotate(-30,-15,-55.980762)" id="g53224">
      <path d="M 0,0 H 4" style="stroke:#333333;stroke-width:0.5" id="polyline53222"/>
    </g>
    <g transform="translate(30)" id="g53228">
      <path d="M 0,0 H 4" style="stroke:#333333;stroke-width:0.5" id="polyline53226"/>
    </g>
    <g transform="rotate(30,-15,55.980762)" id="g53232">
      <path d="M 0,0 H 4" style="stroke:#333333;stroke-width:0.5" id="polyline53230"/>
    </g>
    <g transform="rotate(60,-15,25.980762)" id="g53238">
      <g transform="rotate(-60,1,-1.7320508)" id="g53236">
        <g style="font-weight:bold;font-size:9.33333px;font-family:Roboto, sans-serif;fill:#333333" id="text53234" transform="translate(-5.3,3.3)" aria-label="10">
          <path id="path53497" style="font-weight:bold;font-size:9.33333px;font-family:Roboto, sans-serif;fill:#333333" d="M 3.6503894,0 H 2.3333325 V -5.0768212 L 0.76106745,-4.5891911 V -5.6601543 L 3.5091134,-6.644529 h 0.141276 z"/>
          <path id="path53499" style="font-weight:bold;font-size:9.33333px;font-family:Roboto, sans-serif;fill:#333333" d="m 10.276689,-2.7434886 q 0,1.3763016 -0.5696611,2.10546798 -0.5696613,0.72916642 -1.6679682,0.72916642 -1.0846351,0 -1.6588536,-0.71549455 Q 5.8059875,-1.3398433 5.7923157,-2.6751293 V -3.896483 q 0,-1.3899735 0.5742185,-2.1100254 0.5787759,-0.7200518 1.6634109,-0.7200518 1.084635,0 1.6588536,0.7154945 0.5742183,0.7109373 0.5878903,2.0462233 z M 8.9596323,-4.0833319 q 0,-0.8248696 -0.2278645,-1.1985673 -0.2233072,-0.3782551 -0.7018227,-0.3782551 -0.4648436,0 -0.6881508,0.3600259 -0.2187499,0.3554686 -0.2324218,1.1165361 v 1.6132807 q 0,0.8111976 0.2187499,1.2076819 0.2233072,0.39192691 0.7109373,0.39192691 0.4830727,0 0.6972654,-0.37825511 0.2141926,-0.3782551 0.2233072,-1.1575517 z"/>
        </g>
      </g>
    </g>
  </g>
</svg>
