<?xml version="1.0" encoding="UTF-8" standalone="no"?>
<svg
   xmlns:dc="http://purl.org/dc/elements/1.1/"
   xmlns:cc="http://creativecommons.org/ns#"
   xmlns:rdf="http://www.w3.org/1999/02/22-rdf-syntax-ns#"
   xmlns:svg="http://www.w3.org/2000/svg"
   xmlns="http://www.w3.org/2000/svg"
   xmlns:sodipodi="http://sodipodi.sourceforge.net/DTD/sodipodi-0.dtd"
   xmlns:inkscape="http://www.inkscape.org/namespaces/inkscape"
   version="1.1"
   width="45"
   height="380"
   viewBox="0 0 45 380"
   id="svg162"
   sodipodi:docname="svg_render_tmp.svg"
   inkscape:version="0.92.2 5c3e80d, 2017-08-06">
  <metadata
     id="metadata166">
    <rdf:RDF>
      <cc:Work
         rdf:about="">
        <dc:format>image/svg+xml</dc:format>
        <dc:type
           rdf:resource="http://purl.org/dc/dcmitype/StillImage" />
      </cc:Work>
    </rdf:RDF>
  </metadata>
  <sodipodi:namedview
     pagecolor="#ffffff"
     bordercolor="#666666"
     borderopacity="1"
     objecttolerance="10"
     gridtolerance="10"
     guidetolerance="10"
     inkscape:pageopacity="0"
     inkscape:pageshadow="2"
     inkscape:window-width="468"
     inkscape:window-height="449"
     id="namedview164"
     showgrid="false"
     inkscape:zoom="0.62105263"
     inkscape:cx="22.5"
     inkscape:cy="190"
     inkscape:window-x="0"
     inkscape:window-y="0"
     inkscape:window-maximized="0"
     inkscape:current-layer="svg162" />
  <style
     id="style2">
    text {
      fill: #333;
      font-family: 'Roboto', sans-serif;
      font-weight: bold;
    }
    text.title {
      font-family: 'Comfortaa', sans-serif;
      font-weight: normal;
    }
    text.brand {
      font-family: 'Audiowide', sans-serif;
      font-weight: bold;
    }
  </style>
  <defs
     id="defs98">
    <symbol
       id="knob-medium"
       viewBox="0 0 26px 26px">
      <g
         transform="translate(13 13)"
         id="g10">
        <polyline
           points="-3,0 3,0"
           stroke-width="1"
           stroke="#00f"
           id="polyline4" />
        <polyline
           points="0,-3 0,3"
           stroke-width="1"
           stroke="#00f"
           id="polyline6" />
        <circle
           cx="0"
           cy="0"
           r="12.5"
           stroke-width="1"
           stroke="#00f"
           fill="none"
           id="circle8" />
      </g>
    </symbol>
    <symbol
       id="knob-smallest"
       viewBox="0 0 16px 16px">
      <g
         transform="translate(8 8)"
         id="g19">
        <polyline
           points="-3,0 3,0"
           stroke-width="1"
           stroke="#00f"
           id="polyline13" />
        <polyline
           points="0,-3 0,3"
           stroke-width="1"
           stroke="#00f"
           id="polyline15" />
        <circle
           r="7.5"
           stroke-width="1"
           stroke="#00f"
           fill="none"
           id="circle17" />
      </g>
    </symbol>
    <symbol
       id="knobguide-frequency-sine"
       viewBox="0 0 45px 45px">
      <g
         transform="translate(22.5 22.5)"
         id="g46">
        <polyline
           points="0,0 3.5,0"
           stroke-width="0.7"
           stroke="#333"
           transform="rotate(-240) translate(15 0)"
           id="polyline22" />
        <polyline
           points="0,0 2.5,0"
           stroke-width="0.3"
           stroke="#333"
           transform="rotate(-206.67) translate(15 0)"
           id="polyline24" />
        <polyline
           points="0,0 2.5,0"
           stroke-width="0.3"
           stroke="#333"
           transform="rotate(-173.33) translate(15 0)"
           id="polyline26" />
        <g
           transform="rotate(-140) translate(14 0)"
           id="g32">
          <polyline
             points="0,0 2.5,0"
             stroke-width="1.0"
             stroke="#333"
             transform="translate(0 0)"
             id="polyline28" />
          <text
             font-size="5.0pt"
             transform="translate(5 0) rotate(140) translate(-5.5 0)"
             id="text30">OV</text>
        </g>
        <polyline
           points="0,0 2.5,0"
           stroke-width="0.3"
           stroke="#333"
           transform="rotate(-106.67) translate(15 0)"
           id="polyline34" />
        <polyline
           points="0,0 2.5,0"
           stroke-width="0.3"
           stroke="#333"
           transform="rotate(-73.33) translate(15 0)"
           id="polyline36" />
        <polyline
           points="0,0 2.5,0"
           stroke-width="0.3"
           stroke="#333"
           transform="rotate(-40) translate(15 0)"
           id="polyline38" />
        <polyline
           points="0,0 2.5,0"
           stroke-width="0.3"
           stroke="#333"
           transform="rotate(-6.67) translate(15 0)"
           id="polyline40" />
        <polyline
           points="0,0 2.5,0"
           stroke-width="0.3"
           stroke="#333"
           transform="rotate(26.67) translate(15 0)"
           id="polyline42" />
        <polyline
           points="0,0 3.5,0"
           stroke-width="0.7"
           stroke="#333"
           transform="rotate(60) translate(15 0)"
           id="polyline44" />
      </g>
    </symbol>
    <symbol
       id="knobguide-mintick"
       viewBox="0 0 40px 40px">
      <g
         transform="translate(20 20)"
         id="g61">
        <g
           transform="rotate(-240) translate(10 0)"
           id="g51">
          <polyline
             points="0,0 4,0"
             stroke-width="1"
             stroke="#333"
             id="polyline49" />
        </g>
        <path
           d="M 0 -12.5 A 12.5 12.5 0 0 1 12.5 0"
           stroke="#333"
           stroke-width="0.5"
           stroke-linecap="round"
           fill="none"
           transform="rotate(0)"
           id="path53" />
        <path
           d="M 0 -12.5 A 12.5 12.5 0 0 1 12.5 0"
           stroke="#333"
           stroke-width="0.5"
           stroke-linecap="round"
           fill="none"
           transform="rotate(43)"
           id="path55" />
        <path
           d="M 0 -12.5 A 12.5 12.5 0 0 0 -12.5 0"
           stroke="#333"
           stroke-width="0.5"
           stroke-linecap="round"
           fill="none"
           transform="rotate(0)"
           id="path57" />
        <path
           d="M 0 -12.5 A 12.5 12.5 0 0 0 -12.5 0"
           stroke="#333"
           stroke-width="0.5"
           stroke-linecap="round"
           fill="none"
           transform="rotate(-43)"
           id="path59" />
      </g>
    </symbol>
    <symbol
       id="knobguide-centertick"
       viewBox="0 0 40px 40px">
      <g
         transform="translate(20 20)"
         id="g76">
        <g
           transform="rotate(-90) translate(10 0)"
           id="g66">
          <polyline
             points="0,0 4,0"
             stroke-width="1"
             stroke="#333"
             id="polyline64" />
        </g>
        <path
           d="M 0 -12.5 A 12.5 12.5 0 0 1 12.5 0"
           stroke="#333"
           stroke-width="0.5"
           stroke-linecap="round"
           fill="none"
           transform="rotate(20)"
           id="path68" />
        <path
           d="M 0 -12.5 A 12.5 12.5 0 0 1 12.5 0"
           stroke="#333"
           stroke-width="0.5"
           stroke-linecap="round"
           fill="none"
           transform="rotate(43)"
           id="path70" />
        <path
           d="M 0 -12.5 A 12.5 12.5 0 0 0 -12.5 0"
           stroke="#333"
           stroke-width="0.5"
           stroke-linecap="round"
           fill="none"
           transform="rotate(-20)"
           id="path72" />
        <path
           d="M 0 -12.5 A 12.5 12.5 0 0 0 -12.5 0"
           stroke="#333"
           stroke-width="0.5"
           stroke-linecap="round"
           fill="none"
           transform="rotate(-43)"
           id="path74" />
      </g>
    </symbol>
    <symbol
       id="input"
       viewBox="0 0 24px 24px">
      <g
         transform="translate(12 12)"
         id="g83">
        <circle
           cx="0"
           cy="0"
           r="5"
           stroke-width="1"
           stroke="#0f0"
           fill="#0f0"
           id="circle79" />
        <circle
           cx="0"
           cy="0"
           r="10.5"
           stroke-width="3"
           stroke="#0f0"
           fill="none"
           id="circle81" />
      </g>
    </symbol>
    <symbol
       id="output"
       viewBox="0 0 24px 24px">
      <g
         transform="translate(12 12)"
         id="g90">
        <circle
           cx="0"
           cy="0"
           r="5"
           stroke-width="1"
           stroke="#f00"
           fill="#f00"
           id="circle86" />
        <circle
           cx="0"
           cy="0"
           r="10.5"
           stroke-width="3"
           stroke="#f00"
           fill="none"
           id="circle88" />
      </g>
    </symbol>
    <symbol
       id="button-small"
       viewBox="0 0 9px 9px">
      <g
         transform="translate(4.5 4.5)"
         id="g95">
        <circle
           r="4"
           stroke-width="1"
           stroke="#00f"
           fill="#f00"
           id="circle93" />
      </g>
    </symbol>
  </defs>
  <path
     style="fill:#dddddd"
     d="M 0,0 H 45 V 380 H 0 Z"
     id="rect100" />
  <path
     style="fill:none;stroke:#e4e4e4;stroke-width:0.5"
     d="M 1,1 H 44 V 379 H 1 V 1"
     id="polyline102" />
  <path
     style="fill:none;stroke:#ebebeb;stroke-width:0.80000001"
     d="m 0.5,0.5 h 44 v 379 H 0.5 V 0.5"
     id="polyline104" />
  <path
     style="fill:none;stroke:#f2f2f2;stroke-width:1"
     d="M 0,0 H 45 V 380 H 0 V 0"
     id="polyline106" />
  <g
     aria-label="SINE"
     transform="rotate(-90)"
     style="font-weight:normal;font-size:9.33333302px;font-family:Comfortaa, sans-serif;letter-spacing:2.5px;fill:#333333"
     id="text108">
    <path
       d="m -372.82667,13.093333 q -0.88666,0 -1.57733,-0.373333 -0.68133,-0.382667 -0.98,-1.026667 -0.0373,-0.06533 -0.0373,-0.149333 0,-0.130667 0.0933,-0.214667 0.10267,-0.09333 0.27067,-0.09333 0.112,0 0.20533,0.06533 0.10267,0.056 0.14933,0.168 0.21467,0.42 0.70934,0.681334 0.504,0.252 1.16666,0.252 0.76534,0 1.232,-0.364 0.46667,-0.373334 0.46667,-1.036 0,-0.588 -0.43867,-0.989334 -0.42933,-0.4013329 -1.29733,-0.5133329 -1.08267,-0.1306666 -1.708,-0.672 -0.616,-0.5506666 -0.616,-1.3439999 0,-0.56 0.29867,-0.98 0.308,-0.4293333 0.84,-0.6533333 0.54133,-0.2333333 1.22266,-0.2333333 0.73734,0 1.29734,0.3266666 0.56,0.3266667 0.87733,0.8493333 0.0653,0.1026667 0.0653,0.224 0,0.1773334 -0.168,0.28 -0.0747,0.037333 -0.168,0.037333 -0.10266,0 -0.196,-0.046667 -0.084,-0.056 -0.14,-0.1493333 -0.52266,-0.8213333 -1.57733,-0.8306667 -0.756,0 -1.19467,0.3173334 -0.43866,0.3173333 -0.43866,0.9053333 0,1.0919999 1.764,1.3253332 1.15733,0.168 1.72666,0.7093334 0.56934,0.5413335 0.56934,1.4279995 0,0.653334 -0.31734,1.129334 -0.31733,0.476 -0.868,0.728 -0.55066,0.242666 -1.232,0.242666 z"
       style="font-weight:normal;font-size:9.33333302px;font-family:Comfortaa, sans-serif;letter-spacing:2.5px;fill:#333333"
       id="path342" />
    <path
       d="m -366.02298,13 q -0.14933,0 -0.26133,-0.102667 -0.10267,-0.112 -0.10267,-0.261333 V 6.0746669 q 0,-0.1586667 0.10267,-0.2613333 0.112,-0.1026667 0.26133,-0.1026667 0.15867,0 0.26133,0.1026667 0.10267,0.1026666 0.10267,0.2613333 V 12.636 q 0,0.149333 -0.10267,0.261333 Q -365.86431,13 -366.02298,13 Z"
       style="font-weight:normal;font-size:9.33333302px;font-family:Comfortaa, sans-serif;letter-spacing:2.5px;fill:#333333"
       id="path344" />
    <path
       d="m -360.93444,13 q -0.15866,0 -0.26133,-0.102667 -0.10267,-0.102666 -0.10267,-0.261333 V 6.0746669 q 0,-0.1586667 0.10267,-0.2613333 0.10267,-0.1026667 0.26133,-0.1026667 0.168,0 0.28,0.1306667 l 4.46133,5.8613334 V 6.0746669 q 0,-0.1586667 0.10267,-0.2613333 0.112,-0.1026667 0.26133,-0.1026667 0.15867,0 0.26134,0.1026667 0.10266,0.1026666 0.10266,0.2613333 V 12.636 q 0,0.149333 -0.10266,0.261333 Q -355.67044,13 -355.82911,13 q -0.18666,0 -0.27066,-0.121333 l -4.47067,-5.8613335 V 12.636 q 0,0.149333 -0.10266,0.261333 Q -360.77577,13 -360.93444,13 Z"
       style="font-weight:normal;font-size:9.33333302px;font-family:Comfortaa, sans-serif;letter-spacing:2.5px;fill:#333333"
       id="path346" />
    <path
       d="m -350.74173,13 q -0.14933,0 -0.26133,-0.102667 -0.10267,-0.112 -0.10267,-0.261333 V 6.0746669 q 0,-0.1586667 0.10267,-0.2613333 0.112,-0.1026667 0.26133,-0.1026667 h 4.37733 q 0.15867,0 0.26134,0.1026667 0.10266,0.1026666 0.10266,0.252 0,0.1493333 -0.10266,0.252 -0.10267,0.093333 -0.26134,0.093333 h -4.01333 v 2.5759999 h 2.92133 q 0.15867,0 0.26134,0.1026667 0.10266,0.1026666 0.10266,0.252 0,0.1493333 -0.112,0.2519999 -0.10266,0.1026667 -0.252,0.1026667 h -2.92133 V 12.3 h 4.01333 q 0.15867,0 0.26134,0.102667 0.10266,0.09333 0.10266,0.242666 0,0.149334 -0.10266,0.252 Q -346.20573,13 -346.3644,13 Z"
       style="font-weight:normal;font-size:9.33333302px;font-family:Comfortaa, sans-serif;letter-spacing:2.5px;fill:#333333"
       id="path348" />
  </g>
  <g
     id="g114"
     transform="rotate(-90,200.5,175.5)">
    <g
       aria-label="BGA"
       style="font-weight:bold;font-size:9.33333302px;font-family:Audiowide, sans-serif;letter-spacing:2px;fill:#333333"
       id="text110">
      <path
         d="m 7.2096352,-1.4355468 q 0,0.21875 -0.077474,0.469401 -0.072917,0.25065103 -0.2460937,0.46484373 -0.1686198,0.2141927 -0.4420573,0.36002603 Q 6.1705727,0 5.7740883,0 H 1.2760416 Q 1.1484375,0 1.0390625,-0.04557292 0.92968747,-0.09114583 0.84765622,-0.16861979 q -0.077474,-0.0820312 -0.12304687,-0.19140624 -0.0455729,-0.109375 -0.0455729,-0.23697916 V -5.9381508 q 0,-0.1230469 0.0455729,-0.2324219 0.0455729,-0.109375 0.12304687,-0.1914062 0.0820313,-0.082031 0.19140628,-0.1276042 0.109375,-0.045573 0.2369791,-0.045573 h 3.9648436 q 0.21875,0 0.4694011,0.077474 0.250651,0.077474 0.4648437,0.2506511 0.21875,0.1686197 0.360026,0.4420572 0.1458334,0.2734375 0.1458334,0.6699219 v 0.2233073 q 0,0.3144531 -0.1048177,0.6790364 -0.1048178,0.360026 -0.3372396,0.6835937 0.2005208,0.1230469 0.3736979,0.296224 0.1777344,0.1731771 0.3098958,0.4010416 0.1321615,0.2278646 0.2096354,0.514974 0.077474,0.2871093 0.077474,0.6334635 z M 6.0247394,-1.6634114 q 0,-0.2324219 -0.072917,-0.4147135 Q 5.878906,-2.2649739 5.7467446,-2.3971353 5.6145831,-2.5292968 5.4277342,-2.5976562 5.2408852,-2.6705728 5.0084634,-2.6705728 H 2.3378905 v -1.1940104 h 2.1373698 q 0.2324218,0 0.4192708,-0.068359 0.1868489,-0.072917 0.3190104,-0.2050781 0.1321614,-0.1321614 0.2005208,-0.3144531 0.072917,-0.186849 0.072917,-0.4192708 v -0.2233073 q 0,-0.2552083 -0.2460938,-0.2552083 h -3.376953 v 4.1653644 h 3.9101561 q 0.031901,0 0.077474,-0.00456 0.045573,-0.00456 0.082031,-0.027344 0.036458,-0.022787 0.063802,-0.077474 0.027344,-0.054687 0.027344,-0.1503906 z"
         style="font-weight:bold;font-size:9.33333302px;font-family:Audiowide, sans-serif;letter-spacing:2px;fill:#333333"
         id="path351" />
      <path
         d="m 16.683594,-0.59700519 q 0,0.12760416 -0.04557,0.23697916 -0.04557,0.109375 -0.127605,0.19140624 -0.07747,0.07747396 -0.186849,0.12304687 Q 16.214192,0 16.086588,0 h -4.274739 q -0.164063,0 -0.355469,-0.03645833 -0.186849,-0.04101563 -0.373698,-0.12304687 -0.182291,-0.0820313 -0.350911,-0.20963541 -0.16862,-0.13216146 -0.300781,-0.31445312 -0.127605,-0.18684895 -0.205079,-0.42838537 -0.07747,-0.2460938 -0.07747,-0.5514323 v -3.2083332 q 0,-0.1640625 0.03646,-0.3509115 0.04101,-0.1914062 0.123047,-0.3736979 0.08203,-0.1868489 0.214192,-0.3554687 0.132162,-0.1686198 0.314453,-0.296224 0.186849,-0.1321614 0.428386,-0.2096354 0.241536,-0.077474 0.546875,-0.077474 h 4.817057 v 1.1848958 h -4.817057 q -0.232422,0 -0.355469,0.1230468 -0.123047,0.1230469 -0.123047,0.3645834 v 3.1992186 q 0,0.2278646 0.123047,0.3554687 0.127604,0.1230469 0.355469,0.1230469 h 3.686849 v -1.485677 h -3.153646 v -1.1940104 h 3.741536 q 0.127604,0 0.236979,0.05013 0.109375,0.045573 0.186849,0.1276042 0.08203,0.082031 0.127605,0.1914062 0.04557,0.1048177 0.04557,0.2278646 z"
         style="font-weight:bold;font-size:9.33333302px;font-family:Audiowide, sans-serif;letter-spacing:2px;fill:#333333"
         id="path353" />
      <path
         d="M 26.339842,0 H 25.154946 V -1.6041666 H 20.989582 V 0 h -1.184896 v -3.267578 q 0,-0.7154948 0.246094,-1.3170573 0.246094,-0.6015624 0.683594,-1.0345051 0.4375,-0.4329427 1.034505,-0.6744792 0.597005,-0.2415364 1.303385,-0.2415364 h 2.670573 q 0.123047,0 0.232422,0.045573 0.109375,0.045573 0.191406,0.1276042 0.08203,0.082031 0.127604,0.1914062 0.04557,0.109375 0.04557,0.2324219 z m -5.35026,-2.7890624 h 4.165364 v -2.5611978 h -2.082682 q -0.05469,0 -0.232422,0.018229 -0.173177,0.013672 -0.405599,0.077474 -0.227864,0.063802 -0.483072,0.1959635 -0.255209,0.1321615 -0.469402,0.3645833 -0.214192,0.2324219 -0.355468,0.5833334 -0.136719,0.3463541 -0.136719,0.8430989 z"
         style="font-weight:bold;font-size:9.33333302px;font-family:Audiowide, sans-serif;letter-spacing:2px;fill:#333333"
         id="path355" />
    </g>
    <path
       transform="translate(11.5,-5)"
       style="fill:#dddddd"
       d="M 0,0 H 3 V 3 H 0 Z"
       id="rect112" />
  </g>
  <!-- <polyline points="0,0 0,380" stroke="#0f0" stroke-width="1" fill="none" transform="translate(22.5 0)" /> -->
  <g
     id="use118"
     transform="translate(0,17.5)">
    <g
       id="g245"
       transform="translate(22.5,22.5)">
      <path
         transform="rotate(120,-7.5,4.330127)"
         style="stroke:#333333;stroke-width:0.69999999"
         d="M 0,0 H 3.5"
         id="polyline221" />
      <path
         transform="rotate(153.33,-7.5,1.7777631)"
         style="stroke:#333333;stroke-width:0.30000001"
         d="M 0,0 H 2.5"
         id="polyline223" />
      <path
         transform="rotate(-173.33,-7.5,-0.43704416)"
         style="stroke:#333333;stroke-width:0.30000001"
         d="M 0,0 H 2.5"
         id="polyline225" />
      <g
         id="g231"
         transform="rotate(-140,-7,-2.5477916)">
        <path
           style="stroke:#333333;stroke-width:1"
           d="M 0,0 H 2.5"
           id="polyline227" />
        <g
           aria-label="OV"
           transform="rotate(140,5.25,-0.09099256)"
           style="font-weight:bold;font-size:6.66666651px;font-family:Roboto, sans-serif;fill:#333333"
           id="text229">
          <path
             d="m 4.3164061,-2.2623697 q 0,0.6998697 -0.2473958,1.2272135 -0.2473958,0.52734371 -0.7096354,0.81380204 -0.4589843,0.28645833 -1.0546875,0.28645833 -0.5891926,0 -1.0514322,-0.28320312 Q 0.79101561,-0.50130207 0.53710936,-1.0253906 0.28320312,-1.5527343 0.27994791,-2.2363281 v -0.234375 q 0,-0.6998697 0.25065104,-1.2304687 0.25390624,-0.5338541 0.71289065,-0.8170573 0.4622395,-0.2864583 1.0546874,-0.2864583 0.5924479,0 1.0514323,0.2864583 0.4622396,0.2832032 0.7128906,0.8170573 0.2539062,0.530599 0.2539062,1.2272135 z M 3.3268228,-2.4772135 q 0,-0.7454427 -0.266927,-1.1328125 -0.2669271,-0.3873697 -0.7617188,-0.3873697 -0.4915364,0 -0.7584635,0.3841145 -0.2669271,0.3808594 -0.2701823,1.1197917 v 0.2311198 q 0,0.7259114 0.2669271,1.126302 0.2669271,0.40039063 0.7682291,0.40039063 0.4915365,0 0.7552084,-0.38411453 0.2636718,-0.3873698 0.266927,-1.1263021 z"
             style="font-weight:bold;font-size:6.66666651px;font-family:Roboto, sans-serif;fill:#333333"
             id="path253" />
          <path
             d="m 6.7187496,-1.1751302 1.0742188,-3.564453 H 8.8802079 L 7.2298173,0 H 6.2109371 L 4.567057,-4.7395832 h 1.0839843 z"
             style="font-weight:bold;font-size:6.66666651px;font-family:Roboto, sans-serif;fill:#333333"
             id="path255" />
        </g>
      </g>
      <path
         transform="rotate(-106.67,-7.5,-5.583204)"
         style="stroke:#333333;stroke-width:0.30000001"
         d="M 0,0 H 2.5"
         id="polyline233" />
      <path
         transform="rotate(-73.33,-7.5,-10.07486)"
         style="stroke:#333333;stroke-width:0.30000001"
         d="M 0,0 H 2.5"
         id="polyline235" />
      <path
         transform="rotate(-40,-7.5,-20.606081)"
         style="stroke:#333333;stroke-width:0.30000001"
         d="M 0,0 H 2.5"
         id="polyline237" />
      <path
         transform="rotate(-6.67,-7.5,-128.70553)"
         style="stroke:#333333;stroke-width:0.30000001"
         d="M 0,0 H 2.5"
         id="polyline239" />
      <path
         transform="rotate(26.67,-7.5,31.640887)"
         style="stroke:#333333;stroke-width:0.30000001"
         d="M 0,0 H 2.5"
         id="polyline241" />
      <path
         transform="rotate(60,-7.5,12.990381)"
         style="stroke:#333333;stroke-width:0.69999999"
         d="M 0,0 H 3.5"
         id="polyline243" />
    </g>
  </g>
  <g
     aria-label="SLOW"
     style="font-weight:bold;font-size:8px;font-family:Roboto, sans-serif;letter-spacing:1px;fill:#333333"
     id="text122">
    <path
       d="m 7.4570312,67.607811 q 0,-0.332031 -0.234375,-0.507813 -0.234375,-0.179687 -0.84375,-0.375 -0.609375,-0.199218 -0.9648437,-0.390625 -0.96875,-0.523437 -0.96875,-1.410156 0,-0.460937 0.2578125,-0.820312 0.2617187,-0.363282 0.7460937,-0.566407 0.4882813,-0.203125 1.09375,-0.203125 0.609375,0 1.0859375,0.222657 0.4765626,0.21875 0.7382813,0.621093 0.265625,0.402344 0.265625,0.914063 h -1.171875 q 0,-0.390625 -0.2460938,-0.605469 -0.2460937,-0.21875 -0.6914062,-0.21875 -0.4296875,0 -0.6679688,0.183594 -0.2382812,0.179687 -0.2382812,0.476562 0,0.277344 0.2773437,0.464844 0.28125,0.1875 0.8242188,0.351563 1,0.300781 1.4570313,0.746093 0.4570312,0.445313 0.4570312,1.109375 0,0.738282 -0.5585937,1.160157 -0.5585938,0.417968 -1.5039063,0.417968 -0.65625,0 -1.1953125,-0.238281 -0.5390625,-0.242187 -0.8242188,-0.660156 -0.28125,-0.417969 -0.28125,-0.96875 h 1.1757813 q 0,0.941406 1.125,0.941406 0.4179687,0 0.6523437,-0.167969 0.234375,-0.171875 0.234375,-0.476562 z"
       style="font-weight:bold;font-size:8px;font-family:Roboto, sans-serif;letter-spacing:1px;fill:#333333"
       id="path264" />
    <path
       d="m 11.601563,68.158592 h 2.488281 v 0.941406 h -3.660156 v -5.6875 h 1.171875 z"
       style="font-weight:bold;font-size:8px;font-family:Roboto, sans-serif;letter-spacing:1px;fill:#333333"
       id="path266" />
    <path
       d="m 20.179687,66.385155 q 0,0.839843 -0.296875,1.472656 -0.296875,0.632812 -0.851562,0.976562 -0.550781,0.34375 -1.265625,0.34375 -0.707031,0 -1.261719,-0.339843 -0.554687,-0.339844 -0.859375,-0.96875 -0.304687,-0.632813 -0.308593,-1.453125 v -0.28125 q 0,-0.839844 0.300781,-1.476563 0.304687,-0.640625 0.855468,-0.980469 0.554688,-0.34375 1.265625,-0.34375 0.710938,0 1.261719,0.34375 0.554688,0.339844 0.855469,0.980469 0.304687,0.636719 0.304687,1.472656 z m -1.1875,-0.257813 q 0,-0.894531 -0.320312,-1.359375 -0.320313,-0.464844 -0.914063,-0.464844 -0.589843,0 -0.910156,0.460938 -0.320312,0.457031 -0.324219,1.34375 v 0.277344 q 0,0.871093 0.320313,1.351562 0.320312,0.480469 0.921875,0.480469 0.589844,0 0.90625,-0.460938 0.316406,-0.464843 0.320312,-1.351562 z"
       style="font-weight:bold;font-size:8px;font-family:Roboto, sans-serif;letter-spacing:1px;fill:#333333"
       id="path268" />
    <path
       d="m 26.46875,67.459373 0.765625,-4.046875 h 1.167969 l -1.261719,5.6875 h -1.179688 l -0.925781,-3.804687 -0.925781,3.804687 h -1.179688 l -1.261718,-5.6875 h 1.167968 l 0.769532,4.039063 0.9375,-4.039063 h 0.992187 z"
       style="font-weight:bold;font-size:8px;font-family:Roboto, sans-serif;letter-spacing:1px;fill:#333333"
       id="path270" />
  </g>
  <g
     aria-label="FM"
     style="font-weight:bold;font-size:8px;font-family:Roboto, sans-serif;letter-spacing:2px;fill:#333333"
     id="text126">
    <path
       d="m 19.929687,80.675781 h -2.25 V 83 h -1.171875 v -5.6875 h 3.703125 v 0.949219 h -2.53125 v 1.46875 h 2.25 z"
       style="font-weight:bold;font-size:8px;font-family:Roboto, sans-serif;letter-spacing:2px;fill:#333333"
       id="path273" />
    <path
       d="m 24.429687,77.3125 1.460938,4.125 1.453125,-4.125 h 1.539062 V 83 H 27.707031 V 81.445312 L 27.824219,78.761719 26.289062,83 h -0.804687 l -1.53125,-4.234375 0.117187,2.679687 V 83 h -1.171875 v -5.6875 z"
       style="font-weight:bold;font-size:8px;font-family:Roboto, sans-serif;letter-spacing:2px;fill:#333333"
       id="path275" />
  </g>
  <g
     id="use128"
     transform="translate(2.2,80.5)">
    <g
       id="g217"
       transform="translate(20,20)">
      <g
         id="g207"
         transform="rotate(120,-5,2.8867513)">
        <path
           style="stroke:#333333;stroke-width:1"
           d="M 0,0 H 4"
           id="polyline205" />
      </g>
      <path
         id="path209"
         d="M 0,-12.5 A 12.5,12.5 0 0 1 12.5,0"
         inkscape:connector-curvature="0"
         style="fill:none;stroke:#333333;stroke-width:0.5;stroke-linecap:round" />
      <path
         id="path211"
         transform="rotate(43)"
         d="M 0,-12.5 A 12.5,12.5 0 0 1 12.5,0"
         inkscape:connector-curvature="0"
         style="fill:none;stroke:#333333;stroke-width:0.5;stroke-linecap:round" />
      <path
         id="path213"
         d="M 0,-12.5 A 12.5,12.5 0 0 0 -12.5,0"
         inkscape:connector-curvature="0"
         style="fill:none;stroke:#333333;stroke-width:0.5;stroke-linecap:round" />
      <path
         id="path215"
         transform="rotate(-43)"
         d="M 0,-12.5 A 12.5,12.5 0 0 0 -12.5,0"
         inkscape:connector-curvature="0"
         style="fill:none;stroke:#333333;stroke-width:0.5;stroke-linecap:round" />
    </g>
  </g>
  <g
     aria-label="PHASE"
     style="font-weight:bold;font-size:8px;font-family:Roboto, sans-serif;letter-spacing:2px;fill:#333333"
     id="text132">
    <path
       d="M 7.6796875,122.99609 V 125 h -1.171875 v -5.6875 h 2.21875 q 0.640625,0 1.125,0.23438 0.4882815,0.23437 0.7500005,0.66796 0.261718,0.42969 0.261718,0.98047 0,0.83594 -0.574218,1.32032 -0.570313,0.48046 -1.5820317,0.48046 z m 0,-0.94921 h 1.046875 q 0.4648438,0 0.7070313,-0.21875 0.2460937,-0.21875 0.2460937,-0.625 0,-0.41797 -0.2460937,-0.67579 Q 9.1875,120.26953 8.7539063,120.26172 H 7.6796875 Z"
       style="font-weight:bold;font-size:8px;font-family:Roboto, sans-serif;letter-spacing:2px;fill:#333333"
       id="path279" />
    <path
       d="m 18.292969,125 h -1.171875 v -2.4375 H 14.835938 V 125 h -1.171875 v -5.6875 h 1.171875 v 2.30469 h 2.285156 v -2.30469 h 1.171875 z"
       style="font-weight:bold;font-size:8px;font-family:Roboto, sans-serif;letter-spacing:2px;fill:#333333"
       id="path281" />
    <path
       d="M 24.609375,123.82813 H 22.554687 L 22.164062,125 h -1.246093 l 2.117187,-5.6875 h 1.085938 L 26.25,125 h -1.246094 z m -1.738281,-0.94922 h 1.421875 L 23.578125,120.75 Z"
       style="font-weight:bold;font-size:8px;font-family:Roboto, sans-serif;letter-spacing:2px;fill:#333333"
       id="path283" />
    <path
       d="m 31.738281,123.50781 q 0,-0.33203 -0.234375,-0.50781 -0.234375,-0.17969 -0.84375,-0.375 -0.609375,-0.19922 -0.964844,-0.39062 -0.96875,-0.52344 -0.96875,-1.41016 0,-0.46094 0.257813,-0.82031 0.261719,-0.36328 0.746094,-0.56641 0.488281,-0.20312 1.09375,-0.20312 0.609375,0 1.085937,0.22265 0.476563,0.21875 0.738281,0.6211 0.265625,0.40234 0.265625,0.91406 h -1.171875 q 0,-0.39063 -0.246093,-0.60547 -0.246094,-0.21875 -0.691407,-0.21875 -0.429687,0 -0.667968,0.18359 -0.238282,0.17969 -0.238282,0.47657 0,0.27734 0.277344,0.46484 0.28125,0.1875 0.824219,0.35156 1,0.30078 1.457031,0.7461 0.457031,0.44531 0.457031,1.10937 0,0.73828 -0.558593,1.16016 -0.558594,0.41797 -1.503907,0.41797 -0.65625,0 -1.195312,-0.23829 -0.539063,-0.24218 -0.824219,-0.66015 -0.28125,-0.41797 -0.28125,-0.96875 h 1.175781 q 0,0.9414 1.125,0.9414 0.417969,0 0.652344,-0.16796 0.234375,-0.17188 0.234375,-0.47657 z"
       style="font-weight:bold;font-size:8px;font-family:Roboto, sans-serif;letter-spacing:2px;fill:#333333"
       id="path285" />
    <path
       d="m 39.132812,122.53516 h -2.25 v 1.52343 h 2.640625 V 125 h -3.8125 v -5.6875 h 3.804688 v 0.94922 h -2.632813 v 1.35547 h 2.25 z"
       style="font-weight:bold;font-size:8px;font-family:Roboto, sans-serif;letter-spacing:2px;fill:#333333"
       id="path287" />
  </g>
  <g
     id="use134"
     transform="translate(2.2,122.5)">
    <g
       id="g201"
       transform="translate(20,20)">
      <g
         id="g191"
         transform="rotate(-90,-5,-5)">
        <path
           style="stroke:#333333;stroke-width:1"
           d="M 0,0 H 4"
           id="polyline189" />
      </g>
      <path
         id="path193"
         transform="rotate(20)"
         d="M 0,-12.5 A 12.5,12.5 0 0 1 12.5,0"
         inkscape:connector-curvature="0"
         style="fill:none;stroke:#333333;stroke-width:0.5;stroke-linecap:round" />
      <path
         id="path195"
         transform="rotate(43)"
         d="M 0,-12.5 A 12.5,12.5 0 0 1 12.5,0"
         inkscape:connector-curvature="0"
         style="fill:none;stroke:#333333;stroke-width:0.5;stroke-linecap:round" />
      <path
         id="path197"
         transform="rotate(-20)"
         d="M 0,-12.5 A 12.5,12.5 0 0 0 -12.5,0"
         inkscape:connector-curvature="0"
         style="fill:none;stroke:#333333;stroke-width:0.5;stroke-linecap:round" />
      <path
         id="path199"
         transform="rotate(-43)"
         d="M 0,-12.5 A 12.5,12.5 0 0 0 -12.5,0"
         inkscape:connector-curvature="0"
         style="fill:none;stroke:#333333;stroke-width:0.5;stroke-linecap:round" />
    </g>
  </g>
  <g
     id="g150"
     transform="translate(5.5,158)">
    <path
       transform="translate(0,133)"
       style="fill:#fafafa"
       d="M 0,0 H 34 V 10 H 0 Z"
       id="rect138" />
    <path
       style="fill:#fafafa"
       d="m 5,0 h 24 c 2.77,0 5,2.23 5,5 v 130 c 0,2.77 -2.23,5 -5,5 H 5 c -2.77,0 -5,-2.23 -5,-5 V 5 C 0,2.23 2.23,0 5,0 Z"
       id="rect140" />
    <g
       aria-label="V/OCT"
       transform="translate(3.5,35)"
       style="font-weight:bold;font-size:6.66666651px;font-family:Roboto, sans-serif;letter-spacing:2px;fill:#333333"
       id="text142">
      <path
         d="m 2.1744791,-1.1751302 1.0742187,-3.564453 H 4.3359374 L 2.6855468,0 H 1.6666666 L 0.02278646,-4.7395832 H 1.1067708 Z"
         style="font-weight:bold;font-size:6.66666651px;font-family:Roboto, sans-serif;letter-spacing:2px;fill:#333333"
         id="path293" />
      <path
         d="M 7.0195311,0.40690103 H 6.3196613 L 8.0644529,-4.7395832 h 0.6998698 z"
         style="font-weight:bold;font-size:6.66666651px;font-family:Roboto, sans-serif;letter-spacing:2px;fill:#333333"
         id="path295" />
      <path
         d="m 15.165364,-2.2623697 q 0,0.6998697 -0.247396,1.2272135 -0.247395,0.52734371 -0.709635,0.81380204 -0.458984,0.28645833 -1.054688,0.28645833 -0.589192,0 -1.051432,-0.28320312 -0.462239,-0.28320312 -0.716146,-0.80729165 -0.253906,-0.5273437 -0.257161,-1.2109375 v -0.234375 q 0,-0.6998697 0.250651,-1.2304687 0.253906,-0.5338541 0.712891,-0.8170573 0.462239,-0.2864583 1.054687,-0.2864583 0.592448,0 1.051432,0.2864583 0.46224,0.2832032 0.712891,0.8170573 0.253906,0.530599 0.253906,1.2272135 z m -0.989583,-0.2148438 q 0,-0.7454427 -0.266927,-1.1328125 -0.266927,-0.3873697 -0.761719,-0.3873697 -0.491536,0 -0.758463,0.3841145 -0.266928,0.3808594 -0.270183,1.1197917 v 0.2311198 q 0,0.7259114 0.266927,1.126302 0.266927,0.40039063 0.768229,0.40039063 0.491537,0 0.755209,-0.38411453 0.263672,-0.3873698 0.266927,-1.1263021 z"
         style="font-weight:bold;font-size:6.66666651px;font-family:Roboto, sans-serif;letter-spacing:2px;fill:#333333"
         id="path297" />
      <path
         d="m 21.602212,-1.578776 q -0.05534,0.76497394 -0.566406,1.20442705 -0.507813,0.43945312 -1.341146,0.43945312 -0.911458,0 -1.435547,-0.61197916 Q 17.73828,-1.1621093 17.73828,-2.2330729 v -0.2897135 q 0,-0.6835937 0.240885,-1.2044271 0.240886,-0.5208333 0.686849,-0.797526 0.449219,-0.2799479 1.041667,-0.2799479 0.820312,0 1.321615,0.4394531 0.501302,0.4394531 0.579427,1.233724 H 20.63216 q -0.03581,-0.4589844 -0.257161,-0.6640625 -0.218099,-0.2083334 -0.667318,-0.2083334 -0.488281,0 -0.732422,0.3515625 -0.240885,0.3483073 -0.247396,1.0839844 v 0.3580729 q 0,0.7682291 0.23112,1.1230468 0.234375,0.35481774 0.735677,0.35481774 0.452474,0 0.673828,-0.20507812 0.22461,-0.20833332 0.257162,-0.64127602 z"
         style="font-weight:bold;font-size:6.66666651px;font-family:Roboto, sans-serif;letter-spacing:2px;fill:#333333"
         id="path299" />
      <path
         d="M 27.720051,-3.9485676 H 26.268228 V 0 h -0.976562 v -3.9485676 h -1.432292 v -0.7910156 h 3.860677 z"
         style="font-weight:bold;font-size:6.66666651px;font-family:Roboto, sans-serif;letter-spacing:2px;fill:#333333"
         id="path301" />
    </g>
    <g
       aria-label="FM"
       transform="translate(11,70)"
       style="font-weight:bold;font-size:6.66666651px;font-family:Roboto, sans-serif;letter-spacing:2px;fill:#333333"
       id="text144">
      <path
         d="m 3.2747395,-1.9368489 h -1.875 V 0 H 0.42317707 V -4.7395832 H 3.5091145 v 0.7910156 h -2.109375 v 1.2239583 h 1.875 z"
         style="font-weight:bold;font-size:6.66666651px;font-family:Roboto, sans-serif;letter-spacing:2px;fill:#333333"
         id="path304" />
      <path
         d="m 7.3580727,-4.7395832 1.2174479,3.4374999 1.2109375,-3.4374999 H 11.06901 V 0 H 10.089192 V -1.2955729 L 10.186849,-3.531901 8.9075518,0 H 8.2369789 l -1.2760416,-3.5286457 0.097656,2.2330728 V 0 H 6.0820311 v -4.7395832 z"
         style="font-weight:bold;font-size:6.66666651px;font-family:Roboto, sans-serif;letter-spacing:2px;fill:#333333"
         id="path306" />
    </g>
    <g
       aria-label="PHASE"
       transform="translate(2.5,105)"
       style="font-weight:bold;font-size:6.66666651px;font-family:Roboto, sans-serif;letter-spacing:2px;fill:#333333"
       id="text146">
      <path
         d="M 1.3997395,-1.6699218 V 0 H 0.42317707 V -4.7395832 H 2.2721354 q 0.5338541,0 0.9374999,0.1953125 0.4069011,0.1953125 0.625,0.5566406 0.218099,0.3580729 0.218099,0.8170573 0,0.6966145 -0.4785156,1.1002603 -0.4752604,0.4003907 -1.3183594,0.4003907 z m 0,-0.7910156 h 0.8723959 q 0.3873697,0 0.5891927,-0.1822917 0.2050781,-0.1822917 0.2050781,-0.5208333 0,-0.3483073 -0.2050781,-0.5631511 Q 2.6562499,-3.9420572 2.2949218,-3.9485676 H 1.3997395 Z"
         style="font-weight:bold;font-size:6.66666651px;font-family:Roboto, sans-serif;letter-spacing:2px;fill:#333333"
         id="path309" />
      <path
         d="M 10.577474,0 H 9.6009114 V -2.03125 H 7.6966145 V 0 H 6.7200521 v -4.7395832 h 0.9765624 v 1.9205729 h 1.9042969 v -1.9205729 h 0.9765626 z"
         style="font-weight:bold;font-size:6.66666651px;font-family:Roboto, sans-serif;letter-spacing:2px;fill:#333333"
         id="path311" />
      <path
         d="m 16.174479,-0.97656248 h -1.71224 L 14.136718,0 h -1.038411 l 1.764323,-4.7395832 h 0.904948 L 17.541666,0 H 16.503255 Z M 14.725911,-1.7675781 h 1.184896 l -0.595703,-1.7740885 z"
         style="font-weight:bold;font-size:6.66666651px;font-family:Roboto, sans-serif;letter-spacing:2px;fill:#333333"
         id="path313" />
      <path
         d="m 22.448566,-1.2434896 q 0,-0.2766927 -0.195312,-0.423177 -0.195313,-0.1497396 -0.703125,-0.3125 -0.507813,-0.1660156 -0.804037,-0.3255208 -0.807291,-0.436198 -0.807291,-1.1751302 0,-0.3841146 0.214844,-0.6835938 0.218099,-0.3027343 0.621744,-0.4720052 0.406901,-0.1692708 0.911459,-0.1692708 0.507812,0 0.904948,0.1855469 0.397135,0.1822916 0.615234,0.5175781 0.221354,0.3352864 0.221354,0.7617187 h -0.976562 q 0,-0.3255208 -0.205079,-0.5045573 -0.205078,-0.1822916 -0.576171,-0.1822916 -0.358073,0 -0.556641,0.1529948 -0.198568,0.1497396 -0.198568,0.3971354 0,0.2311198 0.23112,0.3873698 0.234375,0.15625 0.686849,0.2929687 0.833333,0.250651 1.214193,0.6217448 0.380859,0.3710937 0.380859,0.9244791 0,0.61523439 -0.465495,0.96679688 -0.465495,0.34830729 -1.253255,0.34830729 -0.546875,0 -0.996094,-0.19856771 Q 20.264322,-0.33528645 20.026691,-0.68359373 19.792316,-1.031901 19.792316,-1.4908854 h 0.979818 q 0,0.78450521 0.9375,0.78450521 0.348307,0 0.54362,-0.13997396 0.195312,-0.14322916 0.195312,-0.39713545 z"
         style="font-weight:bold;font-size:6.66666651px;font-family:Roboto, sans-serif;letter-spacing:2px;fill:#333333"
         id="path315" />
      <path
         d="m 28.944009,-2.0540364 h -1.875 v 1.26953121 H 29.26953 V 0 h -3.177083 v -4.7395832 h 3.170572 v 0.7910156 h -2.19401 v 1.1295573 h 1.875 z"
         style="font-weight:bold;font-size:6.66666651px;font-family:Roboto, sans-serif;letter-spacing:2px;fill:#333333"
         id="path317" />
    </g>
    <g
       aria-label="SYNC"
       transform="translate(5,140)"
       style="font-weight:bold;font-size:6.66666651px;font-family:Roboto, sans-serif;letter-spacing:2px;fill:#333333"
       id="text148">
      <path
         d="m 2.8808593,-1.2434896 q 0,-0.2766927 -0.1953125,-0.423177 -0.1953125,-0.1497396 -0.703125,-0.3125 -0.5078125,-0.1660156 -0.8040364,-0.3255208 -0.80729166,-0.436198 -0.80729166,-1.1751302 0,-0.3841146 0.21484375,-0.6835938 0.21809895,-0.3027343 0.62174481,-0.4720052 0.406901,-0.1692708 0.9114583,-0.1692708 0.5078125,0 0.9049479,0.1855469 0.3971354,0.1822916 0.6152343,0.5175781 0.2213542,0.3352864 0.2213542,0.7617187 H 2.8841145 q 0,-0.3255208 -0.2050781,-0.5045573 -0.2050781,-0.1822916 -0.5761719,-0.1822916 -0.3580729,0 -0.5566406,0.1529948 -0.1985677,0.1497396 -0.1985677,0.3971354 0,0.2311198 0.2311198,0.3873698 0.234375,0.15625 0.6868489,0.2929687 0.8333334,0.250651 1.2141927,0.6217448 Q 3.860677,-1.8033854 3.860677,-1.25 q 0,0.61523439 -0.4654948,0.96679688 -0.4654948,0.34830729 -1.2532552,0.34830729 -0.546875,0 -0.9960937,-0.19856771 Q 0.69661457,-0.33528645 0.45898436,-0.68359373 0.22460937,-1.031901 0.22460937,-1.4908854 H 1.2044271 q 0,0.78450521 0.9374999,0.78450521 0.3483073,0 0.5436198,-0.13997396 0.1953125,-0.14322916 0.1953125,-0.39713545 z"
         style="font-weight:bold;font-size:6.66666651px;font-family:Roboto, sans-serif;letter-spacing:2px;fill:#333333"
         id="path320" />
      <path
         d="M 8.1588541,-2.6041666 9.1451822,-4.7395832 H 10.212891 L 8.656901,-1.71875 V 0 H 7.6640625 V -1.71875 L 6.1080729,-4.7395832 h 1.0709635 z"
         style="font-weight:bold;font-size:6.66666651px;font-family:Roboto, sans-serif;letter-spacing:2px;fill:#333333"
         id="path322" />
      <path
         d="M 16.50651,0 H 15.529947 L 13.628906,-3.1184895 V 0 h -0.976563 v -4.7395832 h 0.976563 l 1.904296,3.1249999 v -3.1249999 h 0.973308 z"
         style="font-weight:bold;font-size:6.66666651px;font-family:Roboto, sans-serif;letter-spacing:2px;fill:#333333"
         id="path324" />
      <path
         d="m 23.086587,-1.578776 q -0.05534,0.76497394 -0.566406,1.20442705 -0.507813,0.43945312 -1.341146,0.43945312 -0.911458,0 -1.435547,-0.61197916 -0.520833,-0.61523431 -0.520833,-1.68619791 v -0.2897135 q 0,-0.6835937 0.240885,-1.2044271 0.240886,-0.5208333 0.686849,-0.797526 0.449219,-0.2799479 1.041667,-0.2799479 0.820312,0 1.321615,0.4394531 0.501302,0.4394531 0.579427,1.233724 h -0.976563 q -0.03581,-0.4589844 -0.257161,-0.6640625 -0.218099,-0.2083334 -0.667318,-0.2083334 -0.488281,0 -0.732422,0.3515625 -0.240885,0.3483073 -0.247396,1.0839844 v 0.3580729 q 0,0.7682291 0.23112,1.1230468 0.234375,0.35481774 0.735677,0.35481774 0.452474,0 0.673828,-0.20507812 0.22461,-0.20833332 0.257162,-0.64127602 z"
         style="font-weight:bold;font-size:6.66666651px;font-family:Roboto, sans-serif;letter-spacing:2px;fill:#333333"
         id="path326" />
    </g>
  </g>
  <g
     id="g158"
     transform="translate(5.5,304)">
    <path
       transform="translate(0,-3)"
       style="fill:#bbbbbb"
       d="M 0,0 H 34 V 10 H 0 Z"
       id="rect152" />
    <path
       style="fill:#bbbbbb"
       d="m 5,0 h 24 c 2.77,0 5,2.23 5,5 v 25 c 0,2.77 -2.23,5 -5,5 H 5 C 2.23,35 0,32.77 0,30 V 5 C 0,2.23 2.23,0 5,0 Z"
       id="rect154" />
    <g
       aria-label="OUT"
       transform="translate(8.3,32)"
       style="font-weight:bold;font-size:6.66666651px;font-family:Roboto, sans-serif;letter-spacing:2px;fill:#333333"
       id="text156">
      <path
         d="m 4.3164061,-2.2623697 q 0,0.6998697 -0.2473958,1.2272135 -0.2473958,0.52734371 -0.7096354,0.81380204 -0.4589843,0.28645833 -1.0546875,0.28645833 -0.5891926,0 -1.0514322,-0.28320312 Q 0.79101561,-0.50130207 0.53710936,-1.0253906 0.28320312,-1.5527343 0.27994791,-2.2363281 v -0.234375 q 0,-0.6998697 0.25065104,-1.2304687 0.25390624,-0.5338541 0.71289065,-0.8170573 0.4622395,-0.2864583 1.0546874,-0.2864583 0.5924479,0 1.0514323,0.2864583 0.4622396,0.2832032 0.7128906,0.8170573 0.2539062,0.530599 0.2539062,1.2272135 z M 3.3268228,-2.4772135 q 0,-0.7454427 -0.266927,-1.1328125 -0.2669271,-0.3873697 -0.7617188,-0.3873697 -0.4915364,0 -0.7584635,0.3841145 -0.2669271,0.3808594 -0.2701823,1.1197917 v 0.2311198 q 0,0.7259114 0.2669271,1.126302 0.2669271,0.40039063 0.7682291,0.40039063 0.4915365,0 0.7552084,-0.38411453 0.2636718,-0.3873698 0.266927,-1.1263021 z"
         style="font-weight:bold;font-size:6.66666651px;font-family:Roboto, sans-serif;letter-spacing:2px;fill:#333333"
         id="path331" />
      <path
         d="m 10.619792,-4.7395832 v 3.1217447 q 0,0.77799477 -0.488282,1.23046872 -0.4850257,0.45247395 -1.3281246,0.45247395 -0.8300781,0 -1.3183594,-0.43945312 Q 6.9967448,-0.81380206 6.9869792,-1.5820312 v -3.157552 h 0.9765624 v 3.1282551 q 0,0.4654948 0.2213542,0.68033854 0.2246094,0.21158854 0.6184896,0.21158854 0.8235677,0 0.8365885,-0.86588538 v -3.1542968 z"
         style="font-weight:bold;font-size:6.66666651px;font-family:Roboto, sans-serif;letter-spacing:2px;fill:#333333"
         id="path333" />
      <path
         d="M 16.988281,-3.9485676 H 15.536458 V 0 h -0.976563 v -3.9485676 h -1.432291 v -0.7910156 h 3.860677 z"
         style="font-weight:bold;font-size:6.66666651px;font-family:Roboto, sans-serif;letter-spacing:2px;fill:#333333"
         id="path335" />
    </g>
  </g>
</svg>
