<?xml version="1.0" encoding="UTF-8" standalone="no"?>
<svg xmlns:dc="http://purl.org/dc/elements/1.1/" xmlns:cc="http://creativecommons.org/ns#" xmlns:rdf="http://www.w3.org/1999/02/22-rdf-syntax-ns#" xmlns:svg="http://www.w3.org/2000/svg" xmlns="http://www.w3.org/2000/svg" xmlns:sodipodi="http://sodipodi.sourceforge.net/DTD/sodipodi-0.dtd" xmlns:inkscape="http://www.inkscape.org/namespaces/inkscape" inkscape:version="1.0 (4035a4f, 2020-05-01)" sodipodi:docname="svg_render_Sums-pp.svg" id="svg58832" viewBox="0 0 45 380" height="380" width="45" version="1.1">
  <metadata id="metadata58838">
    <rdf:RDF>
      <cc:Work rdf:about="">
        <dc:format>image/svg+xml</dc:format>
        <dc:type rdf:resource="http://purl.org/dc/dcmitype/StillImage"/>
      </cc:Work>
    </rdf:RDF>
  </metadata>
  <defs id="defs58836"/>
  <sodipodi:namedview inkscape:current-layer="svg58832" inkscape:window-maximized="0" inkscape:window-y="23" inkscape:window-x="0" inkscape:cy="190" inkscape:cx="22.5" inkscape:zoom="1.7605263" showgrid="false" id="namedview58834" inkscape:window-height="480" inkscape:window-width="689" inkscape:pageshadow="2" inkscape:pageopacity="0" guidetolerance="10" gridtolerance="10" objecttolerance="10" borderopacity="1" bordercolor="#666666" pagecolor="#ffffff"/>
  
  <svg version="1.1" id="svg58758" width="100%" height="100%">
    <path class="module-background background-fill" d="M 0,0 H 45 V 380 H 0 Z" style="fill:#dddddd" id="rect58756"/>
  </svg>
  <svg version="1.1" id="svg58766" width="100%" height="100%">
    <path class="module-border-inner" d="M 1,1 H 44 V 379 H 1 V 1" style="fill:none;stroke:#e4e4e4;stroke-width:0.5" id="polyline58760"/>
    <path class="module-border-middle" d="m 0.5,0.5 h 44 v 379 H 0.5 V 0.5" style="fill:none;stroke:#ebebeb;stroke-width:0.8" id="polyline58762"/>
    <path class="module-border-outer" d="M 0,0 H 45 V 380 H 0 V 0" style="fill:none;stroke:#f2f2f2;stroke-width:1" id="polyline58764"/>
  </svg>
  <g transform="rotate(-90,194.5,181.5)" id="g58776">
    <g class="title" style="font-weight:normal;font-size:9.33333px;font-family:Comfortaa, sans-serif;letter-spacing:2.5px;fill:#333333" id="text58768" aria-label="SUMS">
      <path id="path58919" style="font-weight:normal;font-size:9.33333px;font-family:Comfortaa, sans-serif;letter-spacing:2.5px;fill:#333333" d="m 3.1733323,0.0933333 q -0.8866664,0 -1.5773328,-0.3733332 -0.68133314,-0.38266654 -0.97999971,-1.0266663 -0.0373333,-0.065333 -0.0373333,-0.1493333 0,-0.1306666 0.0933333,-0.2146666 0.10266663,-0.093333 0.27066658,-0.093333 0.11199995,0 0.20533325,0.065333 0.1026666,0.056 0.1493333,0.168 0.2146666,0.4199998 0.7093331,0.68133306 0.5039998,0.25199991 1.1666663,0.25199991 0.765333,0 1.2319995,-0.36399988 0.4666665,-0.37333319 0.4666665,-1.03599969 0,-0.5879998 -0.4386665,-0.9893329 Q 4.0039986,-3.3879988 3.1359989,-3.4999988 2.0533326,-3.6306654 1.4279995,-4.1719986 0.81199972,-4.7226651 0.81199972,-5.5159981 q 0,-0.5599998 0.29866658,-0.9799997 0.3079999,-0.4293332 0.8399997,-0.6533331 0.5413332,-0.2333333 1.2226663,-0.2333333 0.737333,0 1.2973328,0.3266666 0.5599999,0.3266666 0.8773331,0.849333 0.065333,0.1026667 0.065333,0.224 0,0.1773332 -0.168,0.2799999 -0.074667,0.037333 -0.1679999,0.037333 -0.1026666,0 -0.1959999,-0.046667 -0.084,-0.056 -0.14,-0.1493332 -0.5226665,-0.8213331 -1.5773328,-0.8306664 -0.7559997,0 -1.1946662,0.3173332 -0.4386666,0.3173332 -0.4386666,0.905333 0,1.0919997 1.7639994,1.3253329 1.157333,0.168 1.7266661,0.7093331 0.5693332,0.5413332 0.5693332,1.4279995 0,0.6533331 -0.3173333,1.12933297 Q 4.9559983,-0.4013332 4.4053318,-0.14933328 3.8546654,0.0933333 3.1733323,0.0933333 Z"/>
      <path id="path58921" style="font-weight:normal;font-size:9.33333px;font-family:Comfortaa, sans-serif;letter-spacing:2.5px;fill:#333333" d="m 12.515684,0.14933328 q -0.839999,0 -1.502666,-0.32666655 Q 10.350352,-0.50399983 9.9770185,-1.0826663 9.6130186,-1.6706661 9.6130186,-2.4079992 V -6.925331 q 0,-0.1586666 0.1026666,-0.2613332 0.1026667,-0.1026667 0.2613333,-0.1026667 0.1586665,0 0.2613335,0.1026667 0.102666,0.1026666 0.102666,0.2613332 v 4.5173318 q 0,0.5413332 0.270667,0.9706664 0.28,0.4199998 0.774666,0.6626664 0.494667,0.23333325 1.129333,0.23333325 0.625333,0 1.110667,-0.23333325 0.485333,-0.2426666 0.755999,-0.6626664 0.28,-0.4293332 0.28,-0.9706664 V -6.925331 q 0,-0.1586666 0.102667,-0.2613332 0.102666,-0.1026667 0.261333,-0.1026667 0.158667,0 0.261333,0.1026667 0.102667,0.1026666 0.102667,0.2613332 v 4.5173318 q 0,0.7373331 -0.373333,1.3253329 -0.364,0.57866647 -1.017333,0.90533303 -0.653333,0.32666655 -1.484,0.32666655 z"/>
      <path id="path58923" style="font-weight:normal;font-size:9.33333px;font-family:Comfortaa, sans-serif;letter-spacing:2.5px;fill:#333333" d="m 26.685701,-7.2893309 q 0.149333,0 0.251999,0.1026667 0.102667,0.1026666 0.102667,0.2613332 v 6.56133112 q 0,0.14933329 -0.102667,0.26133325 Q 26.835034,0 26.685701,0 26.527034,0 26.415034,-0.10266663 26.312367,-0.21466659 26.312367,-0.36399988 V -5.6466647 l -2.594665,5.30133148 q -0.112,0.17733328 -0.317334,0.17733328 -0.233333,0 -0.336,-0.22399993 L 20.479036,-5.5626648 v 5.19866492 q 0,0.14933329 -0.102667,0.26133325 Q 20.273703,0 20.115036,0 19.965703,0 19.853703,-0.10266663 19.751036,-0.21466659 19.751036,-0.36399988 V -6.925331 q 0,-0.1586666 0.102667,-0.2613332 0.112,-0.1026667 0.261333,-0.1026667 0.214667,0 0.326667,0.1866667 l 2.986665,5.9359979 2.930666,-5.9359979 q 0.112,-0.1866667 0.326667,-0.1866667 z"/>
      <path id="path58925" style="font-weight:normal;font-size:9.33333px;font-family:Comfortaa, sans-serif;letter-spacing:2.5px;fill:#333333" d="m 33.642075,0.0933333 q -0.886667,0 -1.577333,-0.3733332 -0.681333,-0.38266654 -0.98,-1.0266663 -0.03733,-0.065333 -0.03733,-0.1493333 0,-0.1306666 0.09333,-0.2146666 0.102667,-0.093333 0.270667,-0.093333 0.112,0 0.205333,0.065333 0.102667,0.056 0.149333,0.168 0.214667,0.4199998 0.709333,0.68133306 0.504,0.25199991 1.166667,0.25199991 0.765333,0 1.231999,-0.36399988 0.466667,-0.37333319 0.466667,-1.03599969 0,-0.5879998 -0.438667,-0.9893329 -0.429333,-0.4013332 -1.297333,-0.5133332 -1.082666,-0.1306666 -1.707999,-0.6719998 -0.616,-0.5506665 -0.616,-1.3439995 0,-0.5599998 0.298667,-0.9799997 0.308,-0.4293332 0.839999,-0.6533331 0.541334,-0.2333333 1.222667,-0.2333333 0.737333,0 1.297333,0.3266666 0.559999,0.3266666 0.877333,0.849333 0.06533,0.1026667 0.06533,0.224 0,0.1773332 -0.168,0.2799999 -0.07467,0.037333 -0.168,0.037333 -0.102667,0 -0.196,-0.046667 -0.084,-0.056 -0.14,-0.1493332 -0.522666,-0.8213331 -1.577333,-0.8306664 -0.755999,0 -1.194666,0.3173332 -0.438666,0.3173332 -0.438666,0.905333 0,1.0919997 1.763999,1.3253329 1.157333,0.168 1.726666,0.7093331 0.569333,0.5413332 0.569333,1.4279995 0,0.6533331 -0.317333,1.12933297 -0.317333,0.47599983 -0.868,0.72799975 -0.550666,0.24266658 -1.231999,0.24266658 z"/>
    </g>
    <g transform="translate(0,12)" id="g58774">
      <g class="brand" style="font-weight:bold;font-size:9.33333px;font-family:Audiowide, sans-serif;letter-spacing:2px;fill:#333333" id="text58770" aria-label="BGA">
        <path id="path58928" style="font-weight:bold;font-size:9.33333px;font-family:Audiowide, sans-serif;letter-spacing:2px;fill:#333333" d="m 7.209633,-1.4355464 q 0,0.2187499 -0.077474,0.4694009 -0.072917,0.25065095 -0.2460936,0.46484359 Q 6.7174456,-0.28710928 6.4440082,-0.14127599 6.1705708,0 5.7740866,0 H 1.2760412 Q 1.1484371,0 1.0390621,-0.0455729 0.92968718,-0.0911458 0.84765596,-0.16861973 0.77018203,-0.25065096 0.72460913,-0.36002592 0.67903623,-0.46940088 0.67903623,-0.597005 v -5.341144 q 0,-0.1230469 0.0455729,-0.2324218 0.0455729,-0.109375 0.12304683,-0.1914062 0.0820312,-0.082031 0.19140614,-0.1276041 0.109375,-0.045573 0.2369791,-0.045573 h 3.9648424 q 0.21875,0 0.4694009,0.077474 0.250651,0.077474 0.4648436,0.250651 0.2187499,0.1686197 0.3600259,0.4420571 0.1458333,0.2734374 0.1458333,0.6699217 v 0.2233072 q 0,0.314453 -0.1048177,0.6790362 -0.1048176,0.3600259 -0.3372394,0.6835935 0.2005207,0.1230468 0.3736978,0.2962239 0.1777343,0.173177 0.3098957,0.4010415 0.1321614,0.2278645 0.2096353,0.5149738 0.077474,0.2871093 0.077474,0.6334633 z M 6.0247375,-1.6634109 q 0,-0.2324218 -0.072917,-0.4147134 Q 5.8789042,-2.2649732 5.7467428,-2.3971346 5.6145814,-2.529296 5.4277325,-2.5976554 5.2408836,-2.670572 5.0084618,-2.670572 h -2.670572 v -1.19401 h 2.1373691 q 0.2324218,0 0.4192707,-0.068359 0.1868489,-0.072917 0.3190103,-0.205078 0.1321614,-0.1321614 0.2005208,-0.314453 0.072917,-0.1868489 0.072917,-0.4192707 v -0.2233072 q 0,-0.2552083 -0.2460937,-0.2552083 H 1.8639317 v 4.1653632 h 3.9101549 q 0.031901,0 0.077474,-0.00456 0.045573,-0.00456 0.082031,-0.027344 0.036458,-0.022786 0.063802,-0.077474 0.027344,-0.054687 0.027344,-0.1503906 z"/>
        <path id="path58930" style="font-weight:bold;font-size:9.33333px;font-family:Audiowide, sans-serif;letter-spacing:2px;fill:#333333" d="m 16.683589,-0.597005 q 0,0.12760412 -0.04557,0.23697908 -0.04557,0.10937496 -0.127605,0.19140619 -0.07747,0.07747393 -0.186849,0.12304683 Q 16.214189,0 16.086584,0 h -4.274738 q -0.164062,0 -0.355468,-0.03645832 -0.186849,-0.04101561 -0.373698,-0.12304683 -0.182292,-0.0820312 -0.350911,-0.20963535 -0.16862,-0.13216141 -0.300782,-0.31445302 -0.127604,-0.18684889 -0.205078,-0.42838528 -0.07747,-0.2460937 -0.07747,-0.5514321 v -3.2083322 q 0,-0.1640625 0.03646,-0.3509114 0.04101,-0.1914062 0.123047,-0.3736978 0.08203,-0.1868489 0.214192,-0.3554686 0.132162,-0.1686197 0.314453,-0.2962238 0.186849,-0.1321615 0.428385,-0.2096354 0.241537,-0.077474 0.546875,-0.077474 h 4.817056 v 1.1848954 h -4.817056 q -0.232422,0 -0.355468,0.1230468 -0.123047,0.1230469 -0.123047,0.3645832 v 3.1992177 q 0,0.2278645 0.123047,0.3554686 0.127604,0.1230469 0.355468,0.1230469 h 3.686848 V -2.670572 h -3.153645 v -1.19401 h 3.741535 q 0.127605,0 0.236979,0.05013 0.109375,0.045573 0.186849,0.1276041 0.08203,0.082031 0.127605,0.1914062 0.04557,0.1048177 0.04557,0.2278645 z"/>
        <path id="path58932" style="font-weight:bold;font-size:9.33333px;font-family:Audiowide, sans-serif;letter-spacing:2px;fill:#333333" d="M 26.339836,0 H 25.154941 V -1.6041661 H 20.989578 V 0 h -1.184896 v -3.267577 q 0,-0.7154946 0.246094,-1.3170569 0.246094,-0.6015623 0.683593,-1.0345048 0.4375,-0.4329426 1.034505,-0.6744789 0.597005,-0.2415364 1.303385,-0.2415364 h 2.670572 q 0.123047,0 0.232422,0.045573 0.109375,0.045573 0.191406,0.1276041 0.08203,0.082031 0.127604,0.1914062 0.04557,0.1093749 0.04557,0.2324218 z m -5.350258,-2.7890616 h 4.165363 v -2.561197 h -2.082682 q -0.05469,0 -0.232422,0.018229 -0.173177,0.013672 -0.405598,0.077474 -0.227865,0.063802 -0.483073,0.1959635 -0.255208,0.1321614 -0.469401,0.3645832 -0.214193,0.2324218 -0.355469,0.5833331 -0.136718,0.3463541 -0.136718,0.8430987 z"/>
      </g>
      <path d="M 0,0 H 3 V 3 H 0 Z" style="fill:#dddddd" transform="translate(11.5,-5)" id="rect58772"/>
    </g>
  </g>
  <path d="m 10.5,18 h 24 c 2.77,0 5,2.23 5,5 v 53.5 c 0,2.77 -2.23,5 -5,5 h -24 c -2.77,0 -5,-2.23 -5,-5 V 23 c 0,-2.77 2.23,-5 5,-5 z" style="fill:#fafafa" id="rect58780"/>
  <path d="m 5.5,71.5 h 34 v 10 h -34 z" style="fill:#fafafa" id="rect58782"/>
  <g transform="translate(10.5,23)" id="g58784"/>
  <g transform="translate(10.5,53)" id="g58786"/>
  <path d="m 10.5,82 h 24 c 2.77,0 5,2.23 5,5 v 153 c 0,2.77 -2.23,5 -5,5 h -24 c -2.77,0 -5,-2.23 -5,-5 V 87 c 0,-2.77 2.23,-5 5,-5 z" style="fill:#bbbbbb" id="rect58790"/>
  <path d="m 5.5,82 h 34 v 10 h -34 z" style="fill:#bbbbbb" id="rect58792"/>
  <g transform="translate(10.5,86)" id="g58794"/>
  <g style="font-weight:bold;font-size:6.66667px;font-family:Roboto, sans-serif;letter-spacing:2px;fill:#333333" id="text58796" aria-label="SUM">
    <path id="path58908" style="font-weight:bold;font-size:6.66667px;font-family:Roboto, sans-serif;letter-spacing:2px;fill:#333333" d="m 16.680861,117.75651 q 0,-0.27669 -0.195313,-0.42318 -0.195312,-0.14974 -0.703125,-0.3125 -0.507813,-0.16601 -0.804037,-0.32552 -0.807292,-0.4362 -0.807292,-1.17513 0,-0.38411 0.214844,-0.68359 0.218099,-0.30274 0.621745,-0.47201 0.406901,-0.16927 0.911459,-0.16927 0.507813,0 0.904948,0.18555 0.397136,0.18229 0.615235,0.51758 0.221354,0.33528 0.221354,0.76171 h -0.976563 q 0,-0.32552 -0.205078,-0.50455 -0.205078,-0.18229 -0.576172,-0.18229 -0.358073,0 -0.556641,0.15299 -0.198568,0.14974 -0.198568,0.39714 0,0.23112 0.23112,0.38737 0.234375,0.15625 0.686849,0.29296 0.833334,0.25066 1.214194,0.62175 0.380859,0.37109 0.380859,0.92448 0,0.61523 -0.465495,0.9668 -0.465495,0.3483 -1.253256,0.3483 -0.546875,0 -0.996094,-0.19856 -0.449219,-0.20183 -0.686849,-0.55013 -0.234375,-0.34831 -0.234375,-0.8073 h 0.979818 q 0,0.78451 0.9375,0.78451 0.348308,0 0.54362,-0.13997 0.195313,-0.14323 0.195313,-0.39714 z"/>
    <path id="path58910" style="font-weight:bold;font-size:6.66667px;font-family:Roboto, sans-serif;letter-spacing:2px;fill:#333333" d="m 23.911983,114.26041 v 3.12175 q 0,0.778 -0.488281,1.23047 -0.485027,0.45247 -1.328126,0.45247 -0.830078,0 -1.31836,-0.43945 -0.488281,-0.43945 -0.498047,-1.20768 v -3.15756 h 0.976563 v 3.12826 q 0,0.4655 0.221354,0.68034 0.22461,0.21159 0.61849,0.21159 0.823568,0 0.836589,-0.86589 v -3.1543 z"/>
    <path id="path58912" style="font-weight:bold;font-size:6.66667px;font-family:Roboto, sans-serif;letter-spacing:2px;fill:#333333" d="m 27.988808,114.26041 1.217448,3.43751 1.210938,-3.43751 h 1.282553 V 119 h -0.979818 v -1.29557 L 30.817585,115.4681 29.538287,119 h -0.670573 l -1.276042,-3.52865 0.09766,2.23308 V 119 h -0.976563 v -4.73959 z"/>
  </g>
  <g transform="translate(10.5,126)" id="g58798"/>
  <g style="font-weight:bold;font-size:6.66667px;font-family:Roboto, sans-serif;letter-spacing:2px;fill:#333333" id="text58800" aria-label="DIFF">
    <path id="path58899" style="font-weight:bold;font-size:6.66667px;font-family:Roboto, sans-serif;letter-spacing:2px;fill:#333333" d="m 12.923177,159 v -4.73959 h 1.458334 q 0.625001,0 1.116537,0.28321 0.494792,0.27995 0.771485,0.80078 0.276693,0.51758 0.276693,1.17839 v 0.21809 q 0,0.66081 -0.273438,1.17514 -0.270182,0.51432 -0.764974,0.79752 -0.494792,0.2832 -1.116537,0.28646 z m 0.976563,-3.94857 v 3.16406 h 0.472006 q 0.572917,0 0.875651,-0.37434 0.302735,-0.37435 0.309245,-1.07097 v -0.25065 q 0,-0.72266 -0.299479,-1.09375 -0.29948,-0.37435 -0.875652,-0.37435 z"/>
    <path id="path58901" style="font-weight:bold;font-size:6.66667px;font-family:Roboto, sans-serif;letter-spacing:2px;fill:#333333" d="m 20.297529,159 h -0.976563 v -4.73959 h 0.976563 z"/>
    <path id="path58903" style="font-weight:bold;font-size:6.66667px;font-family:Roboto, sans-serif;letter-spacing:2px;fill:#333333" d="M 26.050786,157.06315 H 24.175785 V 159 h -0.976563 v -4.73959 h 3.085939 v 0.79102 h -2.109376 v 1.22396 h 1.875001 z"/>
    <path id="path58905" style="font-weight:bold;font-size:6.66667px;font-family:Roboto, sans-serif;letter-spacing:2px;fill:#333333" d="m 31.709641,157.06315 h -1.875 V 159 h -0.976563 v -4.73959 h 3.085939 v 0.79102 h -2.109376 v 1.22396 h 1.875 z"/>
  </g>
  <g transform="translate(10.5,166)" id="g58802"/>
  <g style="font-weight:bold;font-size:6.66667px;font-family:Roboto, sans-serif;letter-spacing:2px;fill:#333333" id="text58804" aria-label="MAX">
    <path id="path58892" style="font-weight:bold;font-size:6.66667px;font-family:Roboto, sans-serif;letter-spacing:2px;fill:#333333" d="m 15.69922,194.26041 1.217448,3.43751 1.210938,-3.43751 h 1.282553 V 199 h -0.979818 v -1.29557 L 18.527997,195.4681 17.248699,199 h -0.670573 l -1.276042,-3.52865 0.09766,2.23308 V 199 h -0.976563 v -4.73959 z"/>
    <path id="path58894" style="font-weight:bold;font-size:6.66667px;font-family:Roboto, sans-serif;letter-spacing:2px;fill:#333333" d="m 25.010421,198.02344 h -1.71224 L 22.97266,199 h -1.038412 l 1.764324,-4.73959 H 24.60352 L 26.377609,199 h -1.038412 z m -1.448568,-0.79102 h 1.184896 l -0.595703,-1.77409 z"/>
    <path id="path58896" style="font-weight:bold;font-size:6.66667px;font-family:Roboto, sans-serif;letter-spacing:2px;fill:#333333" d="m 30.522792,195.89453 0.888672,-1.63412 h 1.123048 L 31.154303,196.61068 32.570319,199 H 31.434251 L 30.522792,197.33984 29.611333,199 h -1.136068 l 1.416016,-2.38932 -1.380209,-2.35027 h 1.123048 z"/>
  </g>
  <g transform="translate(10.5,206)" id="g58806"/>
  <g style="font-weight:bold;font-size:6.66667px;font-family:Roboto, sans-serif;letter-spacing:2px;fill:#333333" id="text58808" aria-label="MIN">
    <path id="path58885" style="font-weight:bold;font-size:6.66667px;font-family:Roboto, sans-serif;letter-spacing:2px;fill:#333333" d="m 15.69922,234.26041 1.217448,3.43751 1.210938,-3.43751 h 1.282553 V 239 h -0.979818 v -1.29557 L 18.527997,235.4681 17.248699,239 h -0.670573 l -1.276042,-3.52865 0.09766,2.23308 V 239 h -0.976563 v -4.73959 z"/>
    <path id="path58887" style="font-weight:bold;font-size:6.66667px;font-family:Roboto, sans-serif;letter-spacing:2px;fill:#333333" d="m 23.307946,239 h -0.976563 v -4.73959 h 0.976563 z"/>
    <path id="path58889" style="font-weight:bold;font-size:6.66667px;font-family:Roboto, sans-serif;letter-spacing:2px;fill:#333333" d="m 30.063808,239 h -0.976563 l -1.901043,-3.11849 V 239 h -0.976563 v -4.73959 h 0.976563 l 1.904298,3.12501 v -3.12501 h 0.973308 z"/>
  </g>
  <g transform="translate(5.5,258)" id="g58818">
    <path d="M 0,0 H 34 V 10 H 0 Z" style="fill:#fafafa" transform="translate(0,22)" id="rect58812"/>
    <path d="m 5,0 h 24 c 2.77,0 5,2.23 5,5 v 22 c 0,2.77 -2.23,5 -5,5 H 5 C 2.23,32 0,29.77 0,27 V 5 C 0,2.23 2.23,0 5,0 Z" style="fill:#fafafa" id="rect58814"/>
    <g transform="translate(5,4)" id="g58816"/>
  </g>
  <g transform="translate(5.5,293)" id="g58828">
    <path d="M 0,0 H 34 V 10 H 0 Z" style="fill:#bbbbbb" transform="translate(0,-3)" id="rect58820"/>
    <path d="m 5,0 h 24 c 2.77,0 5,2.23 5,5 v 29 c 0,2.77 -2.23,5 -5,5 H 5 C 2.23,39 0,36.77 0,34 V 5 C 0,2.23 2.23,0 5,0 Z" style="fill:#bbbbbb" id="rect58822"/>
    <g transform="translate(5,2)" id="g58824"/>
    <g style="font-weight:bold;font-size:6.66667px;font-family:Roboto, sans-serif;letter-spacing:2px;fill:#333333" id="text58826" transform="translate(8.3,34)" aria-label="NEG">
      <path id="path58876" style="font-weight:bold;font-size:6.66667px;font-family:Roboto, sans-serif;letter-spacing:2px;fill:#333333" d="M 4.2773458,0 H 3.3007828 L 1.3997403,-3.1184911 V 0 H 0.42317729 V -4.7395856 H 1.3997403 l 1.9042977,3.1250015 v -3.1250015 h 0.9733078 z"/>
      <path id="path58878" style="font-weight:bold;font-size:6.66667px;font-family:Roboto, sans-serif;letter-spacing:2px;fill:#333333" d="M 9.988285,-2.0540374 H 8.1132841 v 1.26953182 H 10.313806 V 0 H 7.1367212 v -4.7395856 h 3.1705748 v 0.791016 H 8.1132841 v 1.1295578 H 9.988285 Z"/>
      <path id="path58880" style="font-weight:bold;font-size:6.66667px;font-family:Roboto, sans-serif;letter-spacing:2px;fill:#333333" d="m 16.636725,-0.59895862 q -0.263672,0.31575536 -0.745443,0.49153669 -0.481771,0.17252613 -1.067709,0.17252613 -0.615235,0 -1.08073,-0.26692721 -0.46224,-0.27018242 -0.716146,-0.78125038 -0.250651,-0.51106791 -0.257161,-1.20117241 v -0.3222658 q 0,-0.7096358 0.23763,-1.2272141 0.240885,-0.5208336 0.690104,-0.7942713 0.452475,-0.2766928 1.057944,-0.2766928 0.843099,0 1.31836,0.403646 0.47526,0.4003909 0.563151,1.1686204 h -0.950521 q -0.06511,-0.4069013 -0.289714,-0.5957034 -0.221354,-0.1888022 -0.61198,-0.1888022 -0.498047,0 -0.758463,0.3743491 -0.260417,0.3743492 -0.263672,1.1132818 v 0.3027345 q 0,0.7454431 0.283203,1.1263027 0.283203,0.38085952 0.830078,0.38085952 0.550131,0 0.784506,-0.23437512 V -1.7708342 H 14.77149 v -0.7194014 h 1.865235 z"/>
    </g>
  </g>
</svg>
