<?xml version="1.0" encoding="UTF-8" standalone="no"?>
<svg xmlns:dc="http://purl.org/dc/elements/1.1/" xmlns:cc="http://creativecommons.org/ns#" xmlns:rdf="http://www.w3.org/1999/02/22-rdf-syntax-ns#" xmlns:svg="http://www.w3.org/2000/svg" xmlns="http://www.w3.org/2000/svg" xmlns:sodipodi="http://sodipodi.sourceforge.net/DTD/sodipodi-0.dtd" xmlns:inkscape="http://www.inkscape.org/namespaces/inkscape" inkscape:version="1.0 (4035a4f, 2020-05-01)" sodipodi:docname="svg_render_tmp.svg" id="svg313" viewBox="0 0 330 380" height="380" width="330" version="1.1">
  <metadata id="metadata317">
    <rdf:RDF>
      <cc:Work rdf:about="">
        <dc:format>image/svg+xml</dc:format>
        <dc:type rdf:resource="http://purl.org/dc/dcmitype/StillImage"/>
      </cc:Work>
    </rdf:RDF>
  </metadata>
  <sodipodi:namedview inkscape:current-layer="svg313" inkscape:window-maximized="0" inkscape:window-y="23" inkscape:window-x="0" inkscape:cy="190" inkscape:cx="165" inkscape:zoom="1.7605263" showgrid="false" id="namedview315" inkscape:window-height="480" inkscape:window-width="689" inkscape:pageshadow="2" inkscape:pageopacity="0" guidetolerance="10" gridtolerance="10" objecttolerance="10" borderopacity="1" bordercolor="#666666" pagecolor="#ffffff"/>
  
  <defs id="defs23">
    <symbol viewBox="0 0 9px 9px" id="button-small">
      <g id="g6" transform="translate(4.5 4.5)">
        <circle id="circle4" fill="#f00" stroke="#00f" stroke-width="1" r="4"/>
      </g>
    </symbol>
    <symbol viewBox="0 0 24px 24px" id="input">
      <g id="g13" transform="translate(12 12)">
        <circle id="circle9" fill="#0f0" stroke="#0f0" stroke-width="1" r="5" cy="0" cx="0"/>
        <circle id="circle11" fill="none" stroke="#0f0" stroke-width="3" r="10.5" cy="0" cx="0"/>
      </g>
    </symbol>
    <symbol viewBox="0 0 24px 24px" id="output">
      <g id="g20" transform="translate(12 12)">
        <circle id="circle16" fill="#f00" stroke="#f00" stroke-width="1" r="5" cy="0" cx="0"/>
        <circle id="circle18" fill="none" stroke="#f00" stroke-width="3" r="10.5" cy="0" cx="0"/>
      </g>
    </symbol>
  </defs>
  <path d="M 0,0 H 330 V 380 H 0 Z" style="fill:#dddddd" id="rect25"/>
  <path d="M 1,1 H 329 V 379 H 1 V 1" style="fill:none;stroke:#e4e4e4;stroke-width:0.5" id="polyline27"/>
  <path d="m 0.5,0.5 h 329 v 379 H 0.5 V 0.5" style="fill:none;stroke:#ebebeb;stroke-width:0.8" id="polyline29"/>
  <path d="M 0,0 H 330 V 380 H 0 V 0" style="fill:none;stroke:#f2f2f2;stroke-width:1" id="polyline31"/>
  <!-- <rect width="95" height="20" fill="#0f0" transform="translate(0 0)" /> -->
  <!-- <rect width="95" height="20" fill="#0f0" transform="translate(235 0)" /> -->
  <!-- <polyline points="0,0 0,380" stroke="#0f0" stroke-width="1" fill="none" transform="translate(10 0)" /> -->
  <!-- <rect width="330" height="330" fill="#0f0" transform="translate(0 25)" /> -->
  <!-- <rect width="195" height="195" fill="#00f" transform="translate(135 25)" /> -->
  <g class="title" style="font-weight:normal;font-size:16px;font-family:Comfortaa, sans-serif;letter-spacing:4px;fill:#333333" id="text33" aria-label="SWITCH1616">
    <path id="path756" style="font-weight:normal;font-size:16px;font-family:Comfortaa, sans-serif;letter-spacing:4px;fill:#333333" d="m 103.94,19.16 q -1.52,0 -2.704,-0.64 -1.168,-0.656 -1.68,-1.76 -0.064,-0.112 -0.064,-0.256 0,-0.224 0.16,-0.368 0.176,-0.16 0.464,-0.16 0.192,0 0.352,0.112 0.176,0.096 0.256,0.288 0.368,0.72 1.216,1.168 0.864,0.432 2,0.432 1.312,0 2.112,-0.624 0.8,-0.64 0.8,-1.776 0,-1.008 -0.752,-1.696 -0.736,-0.688 -2.224,-0.88 -1.856,-0.224 -2.928,-1.152 -1.056,-0.944 -1.056,-2.304 0,-0.96 0.512,-1.68 0.528,-0.736 1.44,-1.12 0.928,-0.4 2.096,-0.4 1.264,0 2.224,0.56 0.96,0.56 1.504,1.456 0.112,0.176 0.112,0.384 0,0.304 -0.288,0.48 -0.128,0.064 -0.288,0.064 -0.176,0 -0.336,-0.08 -0.144,-0.096 -0.24,-0.256 -0.896,-1.408 -2.704,-1.424 -1.296,0 -2.048,0.544 -0.752,0.544 -0.752,1.552 0,1.872 3.024,2.272 1.984,0.288 2.96,1.216 0.976,0.928 0.976,2.448 0,1.12 -0.544,1.936 -0.544,0.816 -1.488,1.248 -0.944,0.416 -2.112,0.416 z"/>
    <path id="path758" style="font-weight:normal;font-size:16px;font-family:Comfortaa, sans-serif;letter-spacing:4px;fill:#333333" d="m 126.58075,6.504 q 0.256,0 0.4,0.176 0.144,0.16 0.144,0.416 0,0.128 -0.048,0.304 l -3.264,11.072 q -0.08,0.256 -0.256,0.4 -0.16,0.128 -0.384,0.128 -0.224,0 -0.4,-0.144 -0.16,-0.144 -0.224,-0.368 l -2.592,-9.456 -2.576,9.44 q -0.08,0.24 -0.256,0.384 -0.16,0.144 -0.384,0.144 -0.224,0 -0.4,-0.144 -0.16,-0.144 -0.224,-0.368 l -3.28,-11.088 q -0.048,-0.176 -0.048,-0.288 0,-0.272 0.16,-0.432 0.16,-0.176 0.416,-0.176 0.448,0 0.608,0.48 l 2.768,9.648 2.624,-9.376 q 0.048,-0.176 0.208,-0.288 0.176,-0.112 0.384,-0.112 0.208,0 0.368,0.112 0.16,0.112 0.224,0.304 l 2.64,9.376 2.784,-9.728 q 0.128,-0.416 0.608,-0.416 z"/>
    <path id="path760" style="font-weight:normal;font-size:16px;font-family:Comfortaa, sans-serif;letter-spacing:4px;fill:#333333" d="m 133.69275,19 q -0.256,0 -0.448,-0.176 -0.176,-0.192 -0.176,-0.448 V 7.128 q 0,-0.272 0.176,-0.448 0.192,-0.176 0.448,-0.176 0.272,0 0.448,0.176 0.176,0.176 0.176,0.448 v 11.248 q 0,0.256 -0.176,0.448 -0.176,0.176 -0.448,0.176 z"/>
    <path id="path762" style="font-weight:normal;font-size:16px;font-family:Comfortaa, sans-serif;letter-spacing:4px;fill:#333333" d="m 149.57025,6.504 q 0.256,0 0.416,0.16 0.16,0.16 0.16,0.416 0,0.24 -0.16,0.4 -0.16,0.16 -0.416,0.16 h -3.808 v 10.736 q 0,0.256 -0.176,0.448 -0.176,0.176 -0.448,0.176 -0.256,0 -0.448,-0.176 -0.176,-0.192 -0.176,-0.448 V 7.64 h -3.792 q -0.256,0 -0.416,-0.16 -0.16,-0.16 -0.16,-0.4 0,-0.256 0.16,-0.416 0.16,-0.16 0.416,-0.16 z"/>
    <path id="path764" style="font-weight:normal;font-size:16px;font-family:Comfortaa, sans-serif;letter-spacing:4px;fill:#333333" d="m 160.7785,19.16 q -1.696,0 -3.12,-0.864 -1.424,-0.864 -2.272,-2.336 -0.832,-1.472 -0.832,-3.216 0,-1.728 0.832,-3.2 0.832,-1.472 2.256,-2.336 1.424,-0.864 3.136,-0.864 1.152,0 2.096,0.336 0.944,0.336 1.824,1.072 0.176,0.128 0.176,0.368 0,0.128 -0.064,0.24 -0.064,0.096 -0.176,0.144 -0.032,0.112 -0.144,0.176 -0.112,0.064 -0.24,0.064 -0.24,0 -0.4,-0.144 -0.624,-0.56 -1.36,-0.816 -0.736,-0.256 -1.712,-0.256 -1.344,0 -2.496,0.72 -1.152,0.704 -1.84,1.904 -0.672,1.2 -0.672,2.592 0,1.424 0.672,2.624 0.672,1.2 1.824,1.904 1.152,0.704 2.512,0.704 1.744,0 3.152,-1.12 0.176,-0.128 0.352,-0.128 0.24,0 0.416,0.176 0.176,0.16 0.176,0.432 0,0.256 -0.176,0.448 -1.504,1.376 -3.92,1.376 z"/>
    <path id="path766" style="font-weight:normal;font-size:16px;font-family:Comfortaa, sans-serif;letter-spacing:4px;fill:#333333" d="m 172.13025,19 q -0.256,0 -0.448,-0.176 -0.176,-0.192 -0.176,-0.448 V 7.128 q 0,-0.272 0.176,-0.448 0.192,-0.176 0.448,-0.176 0.272,0 0.448,0.176 0.176,0.176 0.176,0.448 v 4.992 h 7.808 V 7.128 q 0,-0.272 0.176,-0.448 0.192,-0.176 0.448,-0.176 0.272,0 0.448,0.176 0.176,0.176 0.176,0.448 v 11.248 q 0,0.256 -0.176,0.448 -0.176,0.176 -0.448,0.176 -0.256,0 -0.448,-0.176 -0.176,-0.192 -0.176,-0.448 V 13.24 h -7.808 v 5.136 q 0,0.256 -0.176,0.448 -0.176,0.176 -0.448,0.176 z"/>
    <path id="path768" style="font-weight:normal;font-size:16px;font-family:Comfortaa, sans-serif;letter-spacing:4px;fill:#333333" d="m 191.23025,19 q -0.256,0 -0.448,-0.176 -0.176,-0.192 -0.176,-0.448 v -10.4 l -1.6,0.56 q -0.16,0.08 -0.32,0.08 -0.272,0 -0.448,-0.16 -0.176,-0.176 -0.176,-0.448 0,-0.464 0.4,-0.592 l 2.464,-0.848 q 0.24,-0.08 0.32,-0.08 0.256,0 0.432,0.176 0.176,0.176 0.176,0.448 v 11.264 q 0,0.256 -0.176,0.448 -0.176,0.176 -0.448,0.176 z"/>
    <path id="path770" style="font-weight:normal;font-size:16px;font-family:Comfortaa, sans-serif;letter-spacing:4px;fill:#333333" d="m 202.26875,11.48 q 1.056,0 1.904,0.496 0.864,0.48 1.344,1.344 0.496,0.848 0.496,1.92 0,1.072 -0.496,1.936 -0.48,0.848 -1.328,1.344 -0.848,0.48 -1.92,0.48 -1.072,0 -1.936,-0.48 -0.848,-0.496 -1.344,-1.344 -0.48,-0.864 -0.48,-1.936 0,-1.04 0.48,-1.92 l -0.016,0.016 3.952,-6.496 q 0.224,-0.336 0.56,-0.336 0.272,0 0.448,0.192 0.192,0.176 0.192,0.416 0,0.16 -0.096,0.336 l -2.512,4.096 q 0.32,-0.064 0.752,-0.064 z m -0.016,6.368 q 0.72,0 1.296,-0.336 0.592,-0.336 0.928,-0.928 0.336,-0.608 0.336,-1.344 0,-0.736 -0.336,-1.328 -0.336,-0.608 -0.928,-0.944 -0.576,-0.352 -1.296,-0.352 -0.72,0 -1.312,0.352 -0.576,0.336 -0.912,0.944 -0.336,0.592 -0.336,1.328 0,0.736 0.336,1.344 0.336,0.592 0.912,0.928 0.592,0.336 1.312,0.336 z"/>
    <path id="path772" style="font-weight:normal;font-size:16px;font-family:Comfortaa, sans-serif;letter-spacing:4px;fill:#333333" d="m 214.54275,19 q -0.256,0 -0.448,-0.176 -0.176,-0.192 -0.176,-0.448 v -10.4 l -1.6,0.56 q -0.16,0.08 -0.32,0.08 -0.272,0 -0.448,-0.16 -0.176,-0.176 -0.176,-0.448 0,-0.464 0.4,-0.592 l 2.464,-0.848 q 0.24,-0.08 0.32,-0.08 0.256,0 0.432,0.176 0.176,0.176 0.176,0.448 v 11.264 q 0,0.256 -0.176,0.448 -0.176,0.176 -0.448,0.176 z"/>
    <path id="path774" style="font-weight:normal;font-size:16px;font-family:Comfortaa, sans-serif;letter-spacing:4px;fill:#333333" d="m 225.58125,11.48 q 1.056,0 1.904,0.496 0.864,0.48 1.344,1.344 0.496,0.848 0.496,1.92 0,1.072 -0.496,1.936 -0.48,0.848 -1.328,1.344 -0.848,0.48 -1.92,0.48 -1.072,0 -1.936,-0.48 -0.848,-0.496 -1.344,-1.344 -0.48,-0.864 -0.48,-1.936 0,-1.04 0.48,-1.92 l -0.016,0.016 3.952,-6.496 q 0.224,-0.336 0.56,-0.336 0.272,0 0.448,0.192 0.192,0.176 0.192,0.416 0,0.16 -0.096,0.336 l -2.512,4.096 q 0.32,-0.064 0.752,-0.064 z m -0.016,6.368 q 0.72,0 1.296,-0.336 0.592,-0.336 0.928,-0.928 0.336,-0.608 0.336,-1.344 0,-0.736 -0.336,-1.328 -0.336,-0.608 -0.928,-0.944 -0.576,-0.352 -1.296,-0.352 -0.72,0 -1.312,0.352 -0.576,0.336 -0.912,0.944 -0.336,0.592 -0.336,1.328 0,0.736 0.336,1.344 0.336,0.592 0.912,0.928 0.592,0.336 1.312,0.336 z"/>
  </g>
  <g class="brand" style="font-weight:bold;font-size:10.6667px;font-family:Audiowide, sans-serif;letter-spacing:2px;fill:#333333" id="text35" aria-label="BOGAUDIO">
    <path id="path739" style="font-weight:bold;font-size:10.6667px;font-family:Audiowide, sans-serif;letter-spacing:2px;fill:#333333" d="m 133.23961,372.35937 q 0,0.25 -0.0885,0.53646 -0.0833,0.28646 -0.28125,0.53125 -0.19271,0.24479 -0.50521,0.41146 Q 132.05211,374 131.59898,374 h -5.14064 q -0.14584,0 -0.27084,-0.0521 -0.125,-0.0521 -0.21875,-0.14063 -0.0885,-0.0937 -0.14062,-0.21875 -0.0521,-0.125 -0.0521,-0.27083 v -6.10419 q 0,-0.14063 0.0521,-0.26563 0.0521,-0.125 0.14062,-0.21875 0.0937,-0.0937 0.21875,-0.14583 0.125,-0.0521 0.27084,-0.0521 h 4.53126 q 0.25,0 0.53646,0.0885 0.28646,0.0885 0.53125,0.28646 0.25,0.19271 0.41146,0.50521 0.16667,0.3125 0.16667,0.76562 v 0.25521 q 0,0.35938 -0.11979,0.77605 -0.11979,0.41146 -0.38542,0.78125 0.22917,0.14063 0.42709,0.33854 0.20312,0.19792 0.35416,0.45834 0.15105,0.26042 0.23959,0.58854 0.0885,0.32813 0.0885,0.72396 z m -1.35417,-0.26042 q 0,-0.26562 -0.0833,-0.47396 -0.0833,-0.21354 -0.23437,-0.36458 -0.15104,-0.15104 -0.36459,-0.22917 -0.21354,-0.0833 -0.47916,-0.0833 h -3.0521 v -1.36459 h 2.44272 q 0.26563,0 0.47917,-0.0781 0.21354,-0.0833 0.36458,-0.23437 0.15104,-0.15104 0.22917,-0.35938 0.0833,-0.21354 0.0833,-0.47917 v -0.25521 q 0,-0.29166 -0.28125,-0.29166 h -3.85938 v 4.76043 h 4.46876 q 0.0365,0 0.0885,-0.005 0.0521,-0.005 0.0937,-0.0312 0.0417,-0.026 0.0729,-0.0885 0.0312,-0.0625 0.0312,-0.17188 z"/>
    <path id="path741" style="font-weight:bold;font-size:10.6667px;font-family:Audiowide, sans-serif;letter-spacing:2px;fill:#333333" d="m 144.25005,370.97916 q 0,0.68229 -0.23437,1.25521 -0.23438,0.57292 -0.65104,0.98959 -0.41667,0.41666 -0.98959,0.65104 -0.56771,0.22917 -1.23959,0.22917 h -1.83334 q -0.67187,0 -1.24479,-0.22917 -0.57292,-0.23438 -0.98959,-0.65104 -0.41667,-0.41667 -0.65625,-0.98959 -0.23438,-0.57292 -0.23438,-1.25521 v -1.42709 q 0,-0.67709 0.23438,-1.25 0.23958,-0.57813 0.65625,-0.98959 0.41667,-0.41667 0.98959,-0.65104 0.57292,-0.23438 1.24479,-0.23438 h 1.83334 q 0.67188,0 1.23959,0.23438 0.57292,0.23437 0.98959,0.65104 0.41666,0.41146 0.65104,0.98959 0.23437,0.57291 0.23437,1.25 z m -1.35417,-1.42709 q 0,-0.40104 -0.1302,-0.72396 -0.12501,-0.32813 -0.35938,-0.55729 -0.22917,-0.23438 -0.55729,-0.35938 -0.32292,-0.13021 -0.71355,-0.13021 h -1.83334 q -0.39583,0 -0.72396,0.13021 -0.32292,0.125 -0.55729,0.35938 -0.23438,0.22916 -0.36459,0.55729 -0.125,0.32292 -0.125,0.72396 v 1.42709 q 0,0.40104 0.125,0.72917 0.13021,0.32291 0.36459,0.55729 0.23437,0.22917 0.55729,0.35938 0.32813,0.125 0.72396,0.125 h 1.82293 q 0.39583,0 0.71875,-0.125 0.32812,-0.13021 0.5625,-0.35938 0.23437,-0.23438 0.35938,-0.55729 0.1302,-0.32813 0.1302,-0.72917 z"/>
    <path id="path743" style="font-weight:bold;font-size:10.6667px;font-family:Audiowide, sans-serif;letter-spacing:2px;fill:#333333" d="m 154.96883,373.31771 q 0,0.14583 -0.0521,0.27083 -0.0521,0.125 -0.14583,0.21875 -0.0885,0.0885 -0.21355,0.14063 -0.125,0.0521 -0.27083,0.0521 h -4.88543 q -0.1875,0 -0.40625,-0.0417 -0.21355,-0.0469 -0.42709,-0.14062 -0.20833,-0.0937 -0.40104,-0.23959 -0.19271,-0.15104 -0.34375,-0.35937 -0.14584,-0.21354 -0.23438,-0.48959 -0.0885,-0.28125 -0.0885,-0.63021 v -3.66668 q 0,-0.1875 0.0417,-0.40104 0.0469,-0.21875 0.14062,-0.42708 0.0937,-0.21355 0.24479,-0.40625 0.15105,-0.19271 0.35938,-0.33855 0.21354,-0.15104 0.48959,-0.23958 0.27604,-0.0885 0.625,-0.0885 h 5.50522 v 1.35417 h -5.50522 q -0.26563,0 -0.40625,0.14062 -0.14063,0.14063 -0.14063,0.41667 v 3.65626 q 0,0.26042 0.14063,0.40625 0.14583,0.14063 0.40625,0.14063 h 4.21355 v -1.69792 h -3.60418 v -1.36459 h 4.27606 q 0.14583,0 0.27083,0.0573 0.125,0.0521 0.21355,0.14584 0.0937,0.0937 0.14583,0.21875 0.0521,0.11979 0.0521,0.26041 z"/>
    <path id="path745" style="font-weight:bold;font-size:10.6667px;font-family:Audiowide, sans-serif;letter-spacing:2px;fill:#333333" d="m 165.71886,374 h -1.35417 v -1.83334 h -4.76043 V 374 h -1.35417 v -3.73439 q 0,-0.81771 0.28125,-1.50521 0.28125,-0.6875 0.78125,-1.1823 0.5,-0.49479 1.1823,-0.77083 0.68229,-0.27604 1.48958,-0.27604 h 3.0521 q 0.14062,0 0.26562,0.0521 0.125,0.0521 0.21875,0.14583 0.0937,0.0937 0.14584,0.21875 0.0521,0.125 0.0521,0.26563 z m -6.1146,-3.18751 h 4.76043 v -2.92709 h -2.38022 q -0.0625,0 -0.26562,0.0208 -0.19792,0.0156 -0.46354,0.0885 -0.26042,0.0729 -0.55209,0.22396 -0.29167,0.15104 -0.53646,0.41667 -0.24479,0.26563 -0.40625,0.66667 -0.15625,0.39583 -0.15625,0.96354 z"/>
    <path id="path747" style="font-weight:bold;font-size:10.6667px;font-family:Audiowide, sans-serif;letter-spacing:2px;fill:#333333" d="m 176.60431,373.31771 q 0,0.14583 -0.0521,0.27083 -0.0521,0.125 -0.14583,0.21875 -0.0937,0.0885 -0.21875,0.14063 -0.125,0.0521 -0.26563,0.0521 h -3.05209 q -0.43229,0 -0.875,-0.0937 -0.44271,-0.0937 -0.85938,-0.28646 -0.41146,-0.19792 -0.77604,-0.5 -0.36459,-0.30209 -0.64063,-0.71355 -0.27084,-0.41666 -0.42709,-0.94791 -0.15625,-0.53646 -0.15625,-1.19272 v -3.73438 h 1.35417 v 3.73438 q 0,0.57292 0.15625,0.96876 0.16146,0.39583 0.40626,0.66146 0.24479,0.26562 0.53646,0.41666 0.29166,0.15105 0.55208,0.22396 0.26563,0.0729 0.46354,0.0937 0.20313,0.0156 0.26563,0.0156 h 2.38022 v -6.1146 h 1.35417 z"/>
    <path id="path749" style="font-weight:bold;font-size:10.6667px;font-family:Audiowide, sans-serif;letter-spacing:2px;fill:#333333" d="m 187.63558,370.87499 q 0,0.68229 -0.23958,1.25521 -0.23438,0.57292 -0.65105,0.98959 -0.41666,0.41146 -0.98958,0.64583 Q 185.18245,374 184.51057,374 h -3.65626 q -0.14583,0 -0.27083,-0.0521 -0.125,-0.0521 -0.21875,-0.14063 -0.0885,-0.0937 -0.14063,-0.21875 -0.0521,-0.125 -0.0521,-0.27083 v -6.10419 q 0,-0.14063 0.0521,-0.26563 0.0521,-0.125 0.14063,-0.21875 0.0937,-0.0937 0.21875,-0.14583 0.125,-0.0521 0.27083,-0.0521 h 3.65626 q 0.67188,0 1.2448,0.23437 0.57292,0.23438 0.98958,0.65105 0.41667,0.41146 0.65105,0.98958 0.23958,0.57292 0.23958,1.25001 z m -1.35417,-1.21875 q 0,-0.39584 -0.13021,-0.72396 -0.125,-0.32813 -0.35937,-0.5573 -0.23438,-0.23437 -0.56251,-0.35937 -0.32291,-0.13021 -0.71875,-0.13021 h -2.98438 v 4.76043 h 2.98438 q 0.39584,0 0.71875,-0.125 0.32813,-0.13021 0.56251,-0.35938 0.23437,-0.23437 0.35937,-0.55729 0.13021,-0.32813 0.13021,-0.72917 z"/>
    <path id="path751" style="font-weight:bold;font-size:10.6667px;font-family:Audiowide, sans-serif;letter-spacing:2px;fill:#333333" d="m 192.33872,374 h -1.35417 v -7.46877 h 1.35417 z"/>
    <path id="path753" style="font-weight:bold;font-size:10.6667px;font-family:Audiowide, sans-serif;letter-spacing:2px;fill:#333333" d="m 203.77104,370.97916 q 0,0.68229 -0.23438,1.25521 -0.23437,0.57292 -0.65104,0.98959 -0.41667,0.41666 -0.98959,0.65104 -0.56771,0.22917 -1.23958,0.22917 h -1.83334 q -0.67188,0 -1.2448,-0.22917 -0.57292,-0.23438 -0.98959,-0.65104 -0.41666,-0.41667 -0.65625,-0.98959 -0.23437,-0.57292 -0.23437,-1.25521 v -1.42709 q 0,-0.67709 0.23437,-1.25 0.23959,-0.57813 0.65625,-0.98959 0.41667,-0.41667 0.98959,-0.65104 0.57292,-0.23438 1.2448,-0.23438 h 1.83334 q 0.67187,0 1.23958,0.23438 0.57292,0.23437 0.98959,0.65104 0.41667,0.41146 0.65104,0.98959 0.23438,0.57291 0.23438,1.25 z m -1.35417,-1.42709 q 0,-0.40104 -0.13021,-0.72396 -0.125,-0.32813 -0.35938,-0.55729 -0.22916,-0.23438 -0.55729,-0.35938 -0.32292,-0.13021 -0.71354,-0.13021 h -1.83334 q -0.39584,0 -0.72396,0.13021 -0.32292,0.125 -0.5573,0.35938 -0.23437,0.22916 -0.36458,0.55729 -0.125,0.32292 -0.125,0.72396 v 1.42709 q 0,0.40104 0.125,0.72917 0.13021,0.32291 0.36458,0.55729 0.23438,0.22917 0.5573,0.35938 0.32812,0.125 0.72396,0.125 h 1.82292 q 0.39583,0 0.71875,-0.125 0.32813,-0.13021 0.5625,-0.35938 0.23438,-0.23438 0.35938,-0.55729 0.13021,-0.32813 0.13021,-0.72917 z"/>
  </g>
  <path d="m 149,369 h 3 v 3 h -3 z" style="fill:#dddddd" id="rect37"/>
  <path d="m 5,0 h 46 c 2.77,0 5,2.23 5,5 v 292 c 0,2.77 -2.23,5 -5,5 H 5 c -2.77,0 -5,-2.23 -5,-5 V 5 C 0,2.23 2.23,0 5,0 Z" style="fill:#fafafa" transform="translate(5.5 9)" id="rect41"/>
  <path d="m 5,0 h 292 c 2.77,0 5,2.23 5,5 v 46 c 0,2.77 -2.23,5 -5,5 H 5 C 2.23,56 0,53.77 0,51 V 5 C 0,2.23 2.23,0 5,0 Z" style="fill:#bbbbbb" transform="translate(22.5 302)" id="rect43"/>
  <path d="m 5,0 h 18 c 2.77,0 5,2.23 5,5 0,2.77 -2.23,5 -5,5 H 5 C 2.23,10 0,7.77 0,5 0,2.23 2.23,0 5,0 Z" style="fill:#fafafa" transform="translate(10.5 301)" id="rect45"/>
  <path d="M 0,0 H 10 V 5 H 0 Z" style="fill:#fafafa" transform="translate(36.5 302)" id="rect47"/>
  <path d="m 5,0 h 18 c 2.77,0 5,2.23 5,5 0,2.77 -2.23,5 -5,5 H 5 C 2.23,10 0,7.77 0,5 0,2.23 2.23,0 5,0 Z" style="fill:#bbbbbb" transform="translate(38.5 302)" id="rect49"/>
  <path d="M 0,0 H 3" style="fill:none;stroke:#333333;stroke-width:1" transform="translate(36.5,43)" id="polyline51"/>
  <g style="font-weight:bold;font-size:6.66667px;font-family:Roboto, sans-serif;letter-spacing:1px;fill:#333333" id="text53" aria-label="2">
    <path id="path729" style="font-weight:bold;font-size:6.66667px;font-family:Roboto, sans-serif;letter-spacing:1px;fill:#333333" d="m 46.070965,45.5 h -3.248699 v -0.644532 l 1.533204,-1.634115 q 0.315755,-0.345052 0.465495,-0.602214 0.152995,-0.257161 0.152995,-0.488281 0,-0.315756 -0.159506,-0.494792 -0.159505,-0.182292 -0.455729,-0.182292 -0.319011,0 -0.504558,0.221354 -0.182291,0.218099 -0.182291,0.576173 h -0.944011 q 0,-0.432943 0.205078,-0.791016 0.208333,-0.358074 0.585938,-0.559897 0.377604,-0.205078 0.85612,-0.205078 0.732422,0 1.136068,0.351563 0.406901,0.351563 0.406901,0.992839 0,0.351563 -0.182291,0.716146 -0.182292,0.364584 -0.625001,0.84961 l -1.077474,1.136068 h 2.037761 z"/>
  </g>
  <path d="M 0,0 H 3" style="fill:none;stroke:#333333;stroke-width:1" transform="translate(36.5,79)" id="polyline55"/>
  <g style="font-weight:bold;font-size:6.66667px;font-family:Roboto, sans-serif;letter-spacing:1px;fill:#333333" id="text57" aria-label="4">
    <path id="path725" style="font-weight:bold;font-size:6.66667px;font-family:Roboto, sans-serif;letter-spacing:1px;fill:#333333" d="m 45.60547,79.716145 h 0.53711 v 0.758464 H 45.60547 V 81.5 h -0.940755 v -1.025391 h -1.943361 l -0.04232,-0.592448 1.975912,-3.121747 h 0.950521 z m -1.988933,0 h 1.048178 v -1.673178 l -0.06185,0.107422 z"/>
  </g>
  <path d="M 0,0 H 3" style="fill:none;stroke:#333333;stroke-width:1" transform="translate(36.5,115)" id="polyline59"/>
  <g style="font-weight:bold;font-size:6.66667px;font-family:Roboto, sans-serif;letter-spacing:1px;fill:#333333" id="text61" aria-label="6">
    <path id="path721" style="font-weight:bold;font-size:6.66667px;font-family:Roboto, sans-serif;letter-spacing:1px;fill:#333333" d="m 45.37435,112.71159 v 0.77474 h -0.09115 q -0.638021,0.01 -1.028646,0.33203 -0.38737,0.32226 -0.465495,0.89518 0.377604,-0.38411 0.953777,-0.38411 0.618489,0 0.983073,0.4427 0.364584,0.44271 0.364584,1.16537 0,0.46224 -0.201824,0.83659 -0.198567,0.37435 -0.566406,0.58268 -0.364584,0.20833 -0.826823,0.20833 -0.748699,0 -1.210938,-0.52083 -0.458985,-0.52083 -0.458985,-1.38997 v -0.33855 q 0,-0.77148 0.289714,-1.36067 0.292969,-0.59245 0.836589,-0.91472 0.546875,-0.32552 1.266276,-0.32877 z m -0.917969,2.37304 q -0.227865,0 -0.413412,0.12045 -0.185546,0.11718 -0.273437,0.3125 v 0.28646 q 0,0.472 0.185547,0.73893 0.185547,0.26367 0.520833,0.26367 0.302735,0 0.488282,-0.23763 0.188802,-0.24089 0.188802,-0.62175 0,-0.38737 -0.188802,-0.625 -0.188802,-0.23763 -0.507813,-0.23763 z"/>
  </g>
  <path d="M 0,0 H 3" style="fill:none;stroke:#333333;stroke-width:1" transform="translate(36.5,151)" id="polyline63"/>
  <g style="font-weight:bold;font-size:6.66667px;font-family:Roboto, sans-serif;letter-spacing:1px;fill:#333333" id="text65" aria-label="8">
    <path id="path717" style="font-weight:bold;font-size:6.66667px;font-family:Roboto, sans-serif;letter-spacing:1px;fill:#333333" d="m 45.91146,150.02018 q 0,0.34505 -0.172526,0.61198 -0.172526,0.26693 -0.475261,0.42643 0.345052,0.16602 0.546875,0.45899 0.201823,0.28971 0.201823,0.68359 0,0.63151 -0.429687,0.99935 -0.429688,0.36458 -1.168621,0.36458 -0.738932,0 -1.171875,-0.36783 -0.432943,-0.36784 -0.432943,-0.9961 0,-0.39388 0.201823,-0.68685 0.201823,-0.29297 0.54362,-0.45573 -0.302735,-0.1595 -0.475261,-0.42643 -0.169271,-0.26693 -0.169271,-0.61198 0,-0.60547 0.403646,-0.96354 0.403646,-0.36133 1.097006,-0.36133 0.690105,0 1.093751,0.35807 0.406901,0.35482 0.406901,0.9668 z m -0.843099,2.11263 q 0,-0.30924 -0.179037,-0.49479 -0.179036,-0.18555 -0.481771,-0.18555 -0.299479,0 -0.478516,0.18555 -0.179036,0.18229 -0.179036,0.49479 0,0.30274 0.175781,0.48828 0.175781,0.18555 0.488281,0.18555 0.30599,0 0.478516,-0.17904 0.175782,-0.17903 0.175782,-0.49479 z m -0.09766,-2.06706 q 0,-0.27669 -0.146484,-0.4427 -0.146485,-0.16928 -0.413412,-0.16928 -0.263672,0 -0.410156,0.16276 -0.146485,0.16277 -0.146485,0.44922 0,0.28321 0.146485,0.45573 0.146484,0.17253 0.413411,0.17253 0.266928,0 0.410157,-0.17253 0.146484,-0.17252 0.146484,-0.45573 z"/>
  </g>
  <path d="M 0,0 H 3" style="fill:none;stroke:#333333;stroke-width:1" transform="translate(36.5,187)" id="polyline67"/>
  <g style="font-weight:bold;font-size:6.66667px;font-family:Roboto, sans-serif;letter-spacing:1px;fill:#333333" id="text69" aria-label="10">
    <path id="path711" style="font-weight:bold;font-size:6.66667px;font-family:Roboto, sans-serif;letter-spacing:1px;fill:#333333" d="m 45.107423,189.5 h -0.940756 v -3.6263 l -1.123047,0.3483 v -0.76497 l 1.962892,-0.70313 h 0.100911 z"/>
    <path id="path713" style="font-weight:bold;font-size:6.66667px;font-family:Roboto, sans-serif;letter-spacing:1px;fill:#333333" d="m 50.840498,187.54036 q 0,0.98308 -0.406901,1.50391 -0.406901,0.52083 -1.191407,0.52083 -0.77474,0 -1.184896,-0.51106 -0.410157,-0.51107 -0.419922,-1.46485 v -0.87239 q 0,-0.99284 0.410156,-1.50717 0.413412,-0.51432 1.188152,-0.51432 0.77474,0 1.184896,0.51107 0.410157,0.50781 0.419922,1.46159 z m -0.940755,-0.95703 q 0,-0.58919 -0.162761,-0.85612 -0.159505,-0.27018 -0.501302,-0.27018 -0.332032,0 -0.491537,0.25716 -0.15625,0.25391 -0.166015,0.79753 v 1.15234 q 0,0.57943 0.15625,0.86263 0.159505,0.27995 0.507812,0.27995 0.345053,0 0.498047,-0.27018 0.152995,-0.27018 0.159506,-0.82683 z"/>
  </g>
  <path d="M 0,0 H 3" style="fill:none;stroke:#333333;stroke-width:1" transform="translate(36.5,223)" id="polyline71"/>
  <g style="font-weight:bold;font-size:6.66667px;font-family:Roboto, sans-serif;letter-spacing:1px;fill:#333333" id="text73" aria-label="12">
    <path id="path705" style="font-weight:bold;font-size:6.66667px;font-family:Roboto, sans-serif;letter-spacing:1px;fill:#333333" d="m 45.107423,225.5 h -0.940756 v -3.6263 l -1.123047,0.3483 v -0.76497 l 1.962892,-0.70313 h 0.100911 z"/>
    <path id="path707" style="font-weight:bold;font-size:6.66667px;font-family:Roboto, sans-serif;letter-spacing:1px;fill:#333333" d="m 50.899092,225.5 h -3.248699 v -0.64453 l 1.533204,-1.63412 q 0.315755,-0.34505 0.465495,-0.60221 0.152994,-0.25716 0.152994,-0.48828 0,-0.31576 -0.159505,-0.49479 -0.159505,-0.1823 -0.455729,-0.1823 -0.319011,0 -0.504558,0.22136 -0.182292,0.2181 -0.182292,0.57617 h -0.94401 q 0,-0.43294 0.205078,-0.79102 0.208333,-0.35807 0.585938,-0.55989 0.377604,-0.20508 0.85612,-0.20508 0.732422,0 1.136068,0.35156 0.406901,0.35157 0.406901,0.99284 0,0.35156 -0.182291,0.71615 -0.182292,0.36458 -0.625001,0.84961 l -1.077474,1.13607 h 2.037761 z"/>
  </g>
  <path d="M 0,0 H 3" style="fill:none;stroke:#333333;stroke-width:1" transform="translate(36.5,259)" id="polyline75"/>
  <g style="font-weight:bold;font-size:6.66667px;font-family:Roboto, sans-serif;letter-spacing:1px;fill:#333333" id="text77" aria-label="14">
    <path id="path699" style="font-weight:bold;font-size:6.66667px;font-family:Roboto, sans-serif;letter-spacing:1px;fill:#333333" d="m 45.107423,261.5 h -0.940756 v -3.6263 l -1.123047,0.3483 v -0.76497 l 1.962892,-0.70313 h 0.100911 z"/>
    <path id="path701" style="font-weight:bold;font-size:6.66667px;font-family:Roboto, sans-serif;letter-spacing:1px;fill:#333333" d="m 50.433597,259.71614 h 0.53711 v 0.75847 h -0.53711 V 261.5 h -0.940756 v -1.02539 h -1.94336 l -0.04232,-0.59245 1.975913,-3.12175 h 0.950521 z m -1.988933,0 h 1.048177 v -1.67317 l -0.06185,0.10742 z"/>
  </g>
  <path d="M 0,0 H 3" style="fill:none;stroke:#333333;stroke-width:1" transform="translate(36.5,295)" id="polyline79"/>
  <g style="font-weight:bold;font-size:6.66667px;font-family:Roboto, sans-serif;letter-spacing:1px;fill:#333333" id="text81" aria-label="16">
    <path id="path693" style="font-weight:bold;font-size:6.66667px;font-family:Roboto, sans-serif;letter-spacing:1px;fill:#333333" d="m 45.107423,297.5 h -0.940756 v -3.6263 l -1.123047,0.3483 v -0.76497 l 1.962892,-0.70313 h 0.100911 z"/>
    <path id="path695" style="font-weight:bold;font-size:6.66667px;font-family:Roboto, sans-serif;letter-spacing:1px;fill:#333333" d="m 50.202477,292.71159 v 0.77474 h -0.09115 q -0.638021,0.01 -1.028646,0.33203 -0.38737,0.32226 -0.465495,0.89518 0.377604,-0.38411 0.953777,-0.38411 0.618489,0 0.983073,0.4427 0.364583,0.44271 0.364583,1.16537 0,0.46224 -0.201823,0.83659 -0.198567,0.37435 -0.566406,0.58268 -0.364584,0.20833 -0.826823,0.20833 -0.748699,0 -1.210939,-0.52083 -0.458984,-0.52083 -0.458984,-1.38997 v -0.33855 q 0,-0.77148 0.289714,-1.36067 0.292968,-0.59245 0.836589,-0.91472 0.546875,-0.32552 1.266276,-0.32877 z m -0.917969,2.37304 q -0.227865,0 -0.413412,0.12045 -0.185547,0.11718 -0.273437,0.3125 v 0.28646 q 0,0.472 0.185547,0.73893 0.185547,0.26367 0.520833,0.26367 0.302735,0 0.488282,-0.23763 0.188802,-0.24089 0.188802,-0.62175 0,-0.38737 -0.188802,-0.625 -0.188802,-0.23763 -0.507813,-0.23763 z"/>
  </g>
  <path d="M 0,0 H 3" style="fill:none;stroke:#333333;stroke-width:1" transform="translate(27.5,25)" id="polyline83"/>
  <g style="font-weight:bold;font-size:6.66667px;font-family:Roboto, sans-serif;letter-spacing:1px;fill:#333333" id="text85" aria-label="1">
    <path id="path689" style="font-weight:bold;font-size:6.66667px;font-family:Roboto, sans-serif;letter-spacing:1px;fill:#333333" d="m 24.107423,27.5 h -0.940756 v -3.626304 l -1.123047,0.348308 v -0.764975 l 1.962892,-0.703125 h 0.100911 z"/>
  </g>
  <path d="M 0,0 H 3" style="fill:none;stroke:#333333;stroke-width:1" transform="translate(27.5,61)" id="polyline87"/>
  <g style="font-weight:bold;font-size:6.66667px;font-family:Roboto, sans-serif;letter-spacing:1px;fill:#333333" id="text89" aria-label="3">
    <path id="path685" style="font-weight:bold;font-size:6.66667px;font-family:Roboto, sans-serif;letter-spacing:1px;fill:#333333" d="M 22.779297,60.71354 H 23.2806 q 0.358073,0 0.530599,-0.179036 0.172526,-0.179037 0.172526,-0.475261 0,-0.286458 -0.172526,-0.445964 -0.169271,-0.159505 -0.46875,-0.159505 -0.270183,0 -0.452474,0.14974 -0.182292,0.146484 -0.182292,0.384115 h -0.940756 q 0,-0.371094 0.198568,-0.664063 0.201823,-0.296224 0.559896,-0.46224 0.361328,-0.166016 0.794271,-0.166016 0.751954,0 1.178386,0.361329 0.426433,0.358073 0.426433,0.989583 0,0.325521 -0.198568,0.598959 -0.198568,0.273438 -0.520834,0.419922 0.400391,0.143229 0.595704,0.429688 0.198568,0.286458 0.198568,0.677083 0,0.631511 -0.46224,1.012371 -0.458985,0.380859 -1.217449,0.380859 -0.709635,0 -1.16211,-0.374349 -0.449219,-0.374349 -0.449219,-0.989584 h 0.940756 q 0,0.266927 0.198568,0.436198 0.201823,0.169271 0.494792,0.169271 0.335286,0 0.524089,-0.175781 0.192057,-0.179037 0.192057,-0.472005 0,-0.709636 -0.78125,-0.709636 h -0.498048 z"/>
  </g>
  <path d="M 0,0 H 3" style="fill:none;stroke:#333333;stroke-width:1" transform="translate(27.5,97)" id="polyline91"/>
  <g style="font-weight:bold;font-size:6.66667px;font-family:Roboto, sans-serif;letter-spacing:1px;fill:#333333" id="text93" aria-label="5">
    <path id="path681" style="font-weight:bold;font-size:6.66667px;font-family:Roboto, sans-serif;letter-spacing:1px;fill:#333333" d="m 21.96224,97.16927 0.273437,-2.408856 h 2.656252 v 0.784506 h -1.884767 l -0.117187,1.018881 q 0.335286,-0.179037 0.712891,-0.179037 0.677083,0 1.061198,0.419922 0.384115,0.419922 0.384115,1.175131 0,0.458985 -0.195313,0.823568 -0.192057,0.361328 -0.553385,0.563151 -0.361329,0.198568 -0.852865,0.198568 -0.429688,0 -0.797527,-0.172526 -0.367839,-0.175781 -0.582682,-0.491537 -0.211589,-0.315755 -0.22461,-0.719401 h 0.93099 q 0.0293,0.296224 0.205078,0.46224 0.179037,0.16276 0.465495,0.16276 0.319011,0 0.491537,-0.227864 0.172526,-0.23112 0.172526,-0.651042 0,-0.403646 -0.198568,-0.61849 -0.198567,-0.214844 -0.563151,-0.214844 -0.335287,0 -0.54362,0.175781 l -0.09115,0.08464 z"/>
  </g>
  <path d="M 0,0 H 3" style="fill:none;stroke:#333333;stroke-width:1" transform="translate(27.5,133)" id="polyline95"/>
  <g style="font-weight:bold;font-size:6.66667px;font-family:Roboto, sans-serif;letter-spacing:1px;fill:#333333" id="text97" aria-label="7">
    <path id="path677" style="font-weight:bold;font-size:6.66667px;font-family:Roboto, sans-serif;letter-spacing:1px;fill:#333333" d="M 25.044924,131.28776 23.21224,135.5 h -0.992839 l 1.835939,-3.97787 h -2.356772 v -0.76172 h 3.346356 z"/>
  </g>
  <path d="M 0,0 H 3" style="fill:none;stroke:#333333;stroke-width:1" transform="translate(27.5,169)" id="polyline99"/>
  <g style="font-weight:bold;font-size:6.66667px;font-family:Roboto, sans-serif;letter-spacing:1px;fill:#333333" id="text101" aria-label="9">
    <path id="path673" style="font-weight:bold;font-size:6.66667px;font-family:Roboto, sans-serif;letter-spacing:1px;fill:#333333" d="m 24.022788,169.60547 q -0.367839,0.36133 -0.859376,0.36133 -0.628255,0 -1.00586,-0.42969 -0.377604,-0.43294 -0.377604,-1.16537 0,-0.46549 0.201823,-0.85286 0.205078,-0.39063 0.569662,-0.60547 0.364583,-0.2181 0.820313,-0.2181 0.46875,0 0.833333,0.23438 0.364584,0.23437 0.566407,0.67382 0.201823,0.43946 0.205078,1.00586 v 0.34831 q 0,1.1849 -0.589193,1.86198 -0.589193,0.67708 -1.669923,0.72266 l -0.231119,0.003 v -0.7845 l 0.208333,-0.003 q 1.227214,-0.0553 1.328126,-1.15234 z m -0.628256,-0.35808 q 0.227865,0 0.390625,-0.11718 0.166016,-0.11719 0.250652,-0.28321 v -0.38737 q 0,-0.47851 -0.182292,-0.74218 -0.182292,-0.26368 -0.488282,-0.26368 -0.283203,0 -0.465495,0.26042 -0.182292,0.25716 -0.182292,0.64779 0,0.38737 0.175782,0.63802 0.179036,0.24739 0.501302,0.24739 z"/>
  </g>
  <path d="M 0,0 H 3" style="fill:none;stroke:#333333;stroke-width:1" transform="translate(27.5,205)" id="polyline103"/>
  <g style="font-weight:bold;font-size:6.66667px;font-family:Roboto, sans-serif;letter-spacing:1px;fill:#333333" id="text105" aria-label="11">
    <path id="path667" style="font-weight:bold;font-size:6.66667px;font-family:Roboto, sans-serif;letter-spacing:1px;fill:#333333" d="m 19.107423,207.5 h -0.940756 v -3.6263 l -1.123047,0.3483 v -0.76497 l 1.962892,-0.70313 h 0.100911 z"/>
    <path id="path669" style="font-weight:bold;font-size:6.66667px;font-family:Roboto, sans-serif;letter-spacing:1px;fill:#333333" d="m 23.93555,207.5 h -0.940756 v -3.6263 l -1.123047,0.3483 v -0.76497 l 1.962892,-0.70313 h 0.100911 z"/>
  </g>
  <path d="M 0,0 H 3" style="fill:none;stroke:#333333;stroke-width:1" transform="translate(27.5,241)" id="polyline107"/>
  <g style="font-weight:bold;font-size:6.66667px;font-family:Roboto, sans-serif;letter-spacing:1px;fill:#333333" id="text109" aria-label="13">
    <path id="path661" style="font-weight:bold;font-size:6.66667px;font-family:Roboto, sans-serif;letter-spacing:1px;fill:#333333" d="m 19.107423,243.5 h -0.940756 v -3.6263 l -1.123047,0.3483 v -0.76497 l 1.962892,-0.70313 h 0.100911 z"/>
    <path id="path663" style="font-weight:bold;font-size:6.66667px;font-family:Roboto, sans-serif;letter-spacing:1px;fill:#333333" d="m 22.607424,240.71354 h 0.501303 q 0.358073,0 0.530599,-0.17904 0.172526,-0.17903 0.172526,-0.47526 0,-0.28646 -0.172526,-0.44596 -0.169271,-0.15951 -0.46875,-0.15951 -0.270183,0 -0.452474,0.14974 -0.182292,0.14649 -0.182292,0.38412 h -0.940756 q 0,-0.3711 0.198568,-0.66406 0.201823,-0.29623 0.559896,-0.46224 0.361328,-0.16602 0.794271,-0.16602 0.751954,0 1.178386,0.36133 0.426433,0.35807 0.426433,0.98958 0,0.32552 -0.198568,0.59896 -0.198568,0.27344 -0.520834,0.41992 0.400391,0.14323 0.595704,0.42969 0.198568,0.28646 0.198568,0.67708 0,0.63152 -0.46224,1.01237 -0.458985,0.38086 -1.217449,0.38086 -0.709636,0 -1.16211,-0.37434 -0.449219,-0.37435 -0.449219,-0.98959 h 0.940756 q 0,0.26693 0.198568,0.4362 0.201823,0.16927 0.494792,0.16927 0.335286,0 0.524088,-0.17578 0.192058,-0.17904 0.192058,-0.47201 0,-0.70963 -0.78125,-0.70963 h -0.498048 z"/>
  </g>
  <path d="M 0,0 H 3" style="fill:none;stroke:#333333;stroke-width:1" transform="translate(27.5,277)" id="polyline111"/>
  <g style="font-weight:bold;font-size:6.66667px;font-family:Roboto, sans-serif;letter-spacing:1px;fill:#333333" id="text113" aria-label="15">
    <path id="path655" style="font-weight:bold;font-size:6.66667px;font-family:Roboto, sans-serif;letter-spacing:1px;fill:#333333" d="m 19.107423,279.5 h -0.940756 v -3.6263 l -1.123047,0.3483 v -0.76497 l 1.962892,-0.70313 h 0.100911 z"/>
    <path id="path657" style="font-weight:bold;font-size:6.66667px;font-family:Roboto, sans-serif;letter-spacing:1px;fill:#333333" d="m 21.790367,277.16927 0.273437,-2.40886 h 2.656252 v 0.78451 h -1.884767 l -0.117187,1.01888 q 0.335286,-0.17904 0.71289,-0.17904 0.677084,0 1.061199,0.41993 0.384115,0.41992 0.384115,1.17513 0,0.45898 -0.195313,0.82357 -0.192057,0.36132 -0.553386,0.56315 -0.361328,0.19856 -0.852865,0.19856 -0.429687,0 -0.797526,-0.17252 -0.367839,-0.17578 -0.582683,-0.49154 -0.211588,-0.31575 -0.224609,-0.7194 h 0.93099 q 0.0293,0.29622 0.205078,0.46224 0.179037,0.16276 0.465495,0.16276 0.319011,0 0.491537,-0.22786 0.172526,-0.23112 0.172526,-0.65105 0,-0.40364 -0.198568,-0.61849 -0.198568,-0.21484 -0.563151,-0.21484 -0.335287,0 -0.54362,0.17578 l -0.09115,0.0846 z"/>
  </g>
  <path d="M 0,0 V 3" style="fill:none;stroke:#333333;stroke-width:1" transform="translate(38.5,324)" id="polyline117"/>
  <g style="font-weight:bold;font-size:6.66667px;font-family:Roboto, sans-serif;letter-spacing:1px;fill:#333333" id="text119" aria-label="A">
    <path id="path651" style="font-weight:bold;font-size:6.66667px;font-family:Roboto, sans-serif;letter-spacing:1px;fill:#333333" d="M 39.298961,320.02344 H 37.58672 L 37.261199,321 h -1.038412 l 1.764324,-4.73959 h 0.904948 L 40.666149,321 h -1.038412 z m -1.448569,-0.79102 h 1.184897 l -0.595704,-1.77409 z"/>
  </g>
  <path d="M 0,0 V 3" style="fill:none;stroke:#333333;stroke-width:1" transform="translate(74.5,324)" id="polyline121"/>
  <g style="font-weight:bold;font-size:6.66667px;font-family:Roboto, sans-serif;letter-spacing:1px;fill:#333333" id="text123" aria-label="C">
    <path id="path647" style="font-weight:bold;font-size:6.66667px;font-family:Roboto, sans-serif;letter-spacing:1px;fill:#333333" d="m 76.343879,319.42122 q -0.05534,0.76498 -0.566406,1.20443 -0.507813,0.43945 -1.341147,0.43945 -0.911459,0 -1.435547,-0.61198 -0.520834,-0.61523 -0.520834,-1.68619 v -0.28972 q 0,-0.68359 0.240886,-1.20443 0.240885,-0.52083 0.686849,-0.79752 0.449219,-0.27995 1.041667,-0.27995 0.820313,0 1.321615,0.43945 0.501303,0.43946 0.579428,1.23373 h -0.976563 q -0.03581,-0.45899 -0.257162,-0.66406 -0.218099,-0.20834 -0.667318,-0.20834 -0.488282,0 -0.732422,0.35156 -0.240886,0.34831 -0.247396,1.08399 v 0.35807 q 0,0.76823 0.23112,1.12305 0.234375,0.35482 0.735677,0.35482 0.452474,0 0.673829,-0.20508 0.224609,-0.20833 0.257161,-0.64128 z"/>
  </g>
  <path d="M 0,0 V 3" style="fill:none;stroke:#333333;stroke-width:1" transform="translate(110.5,324)" id="polyline125"/>
  <g style="font-weight:bold;font-size:6.66667px;font-family:Roboto, sans-serif;letter-spacing:1px;fill:#333333" id="text127" aria-label="E">
    <path id="path643" style="font-weight:bold;font-size:6.66667px;font-family:Roboto, sans-serif;letter-spacing:1px;fill:#333333" d="m 111.67474,318.94596 h -1.875 v 1.26953 h 2.20052 V 321 h -3.17708 v -4.73959 h 3.17057 v 0.79102 h -2.19401 v 1.12956 h 1.875 z"/>
  </g>
  <path d="M 0,0 V 3" style="fill:none;stroke:#333333;stroke-width:1" transform="translate(146.5,324)" id="polyline129"/>
  <g style="font-weight:bold;font-size:6.66667px;font-family:Roboto, sans-serif;letter-spacing:1px;fill:#333333" id="text131" aria-label="G">
    <path id="path639" style="font-weight:bold;font-size:6.66667px;font-family:Roboto, sans-serif;letter-spacing:1px;fill:#333333" d="m 148.37318,320.40104 q -0.26368,0.31576 -0.74545,0.49154 -0.48177,0.17252 -1.06771,0.17252 -0.61523,0 -1.08073,-0.26692 -0.46224,-0.27019 -0.71614,-0.78125 -0.25065,-0.51107 -0.25716,-1.20118 v -0.32226 q 0,-0.70964 0.23763,-1.22722 0.24088,-0.52083 0.6901,-0.79427 0.45248,-0.27669 1.05794,-0.27669 0.8431,0 1.31836,0.40365 0.47527,0.40039 0.56316,1.16862 h -0.95053 q -0.0651,-0.4069 -0.28971,-0.59571 -0.22135,-0.1888 -0.61198,-0.1888 -0.49805,0 -0.75846,0.37435 -0.26042,0.37435 -0.26367,1.11328 v 0.30274 q 0,0.74544 0.2832,1.1263 0.2832,0.38086 0.83008,0.38086 0.55013,0 0.7845,-0.23438 v -0.81705 h -0.88867 v -0.71941 h 1.86524 z"/>
  </g>
  <path d="M 0,0 V 3" style="fill:none;stroke:#333333;stroke-width:1" transform="translate(182.5,324)" id="polyline133"/>
  <g style="font-weight:bold;font-size:6.66667px;font-family:Roboto, sans-serif;letter-spacing:1px;fill:#333333" id="text135" aria-label="I">
    <path id="path635" style="font-weight:bold;font-size:6.66667px;font-family:Roboto, sans-serif;letter-spacing:1px;fill:#333333" d="m 182.96159,321 h -0.97656 v -4.73959 h 0.97656 z"/>
  </g>
  <path d="M 0,0 V 3" style="fill:none;stroke:#333333;stroke-width:1" transform="translate(218.5,324)" id="polyline137"/>
  <g style="font-weight:bold;font-size:6.66667px;font-family:Roboto, sans-serif;letter-spacing:1px;fill:#333333" id="text139" aria-label="K">
    <path id="path631" style="font-weight:bold;font-size:6.66667px;font-family:Roboto, sans-serif;letter-spacing:1px;fill:#333333" d="m 218.20756,319.09896 -0.50782,0.54687 V 321 h -0.97656 v -4.73959 h 0.97656 v 2.14844 l 0.42969,-0.58919 1.20768,-1.55925 h 1.20118 l -1.68295,2.10613 L 220.58711,321 H 219.425 Z"/>
  </g>
  <path d="M 0,0 V 3" style="fill:none;stroke:#333333;stroke-width:1" transform="translate(254.5,324)" id="polyline141"/>
  <g style="font-weight:bold;font-size:6.66667px;font-family:Roboto, sans-serif;letter-spacing:1px;fill:#333333" id="text143" aria-label="M">
    <path id="path627" style="font-weight:bold;font-size:6.66667px;font-family:Roboto, sans-serif;letter-spacing:1px;fill:#333333" d="m 253.24922,316.26041 1.21745,3.43751 1.21094,-3.43751 h 1.28255 V 321 h -0.97982 v -1.29557 L 256.078,317.4681 254.7987,321 h -0.67057 l -1.27604,-3.52865 0.0976,2.23308 V 321 h -0.97656 v -4.73959 z"/>
  </g>
  <path d="M 0,0 V 3" style="fill:none;stroke:#333333;stroke-width:1" transform="translate(290.5,324)" id="polyline145"/>
  <g style="font-weight:bold;font-size:6.66667px;font-family:Roboto, sans-serif;letter-spacing:1px;fill:#333333" id="text147" aria-label="O">
    <path id="path623" style="font-weight:bold;font-size:6.66667px;font-family:Roboto, sans-serif;letter-spacing:1px;fill:#333333" d="m 292.51642,318.73763 q 0,0.69987 -0.2474,1.22721 -0.24739,0.52735 -0.70963,0.81381 -0.45899,0.28645 -1.05469,0.28645 -0.58919,0 -1.05143,-0.2832 -0.46224,-0.2832 -0.71615,-0.80729 -0.2539,-0.52735 -0.25716,-1.21094 v -0.23437 q 0,-0.69987 0.25065,-1.23047 0.25391,-0.53386 0.71289,-0.81706 0.46224,-0.28646 1.05469,-0.28646 0.59245,0 1.05143,0.28646 0.46224,0.2832 0.71289,0.81706 0.25391,0.5306 0.25391,1.22721 z m -0.98958,-0.21484 q 0,-0.74545 -0.26693,-1.13282 -0.26693,-0.38737 -0.76172,-0.38737 -0.49154,0 -0.75846,0.38412 -0.26693,0.38086 -0.27019,1.11979 v 0.23112 q 0,0.72591 0.26693,1.1263 0.26693,0.40039 0.76823,0.40039 0.49154,0 0.75521,-0.38411 0.26367,-0.38737 0.26693,-1.1263 z"/>
  </g>
  <path d="M 0,0 V 3" style="fill:none;stroke:#333333;stroke-width:1" transform="translate(56.5,333)" id="polyline149"/>
  <g style="font-weight:bold;font-size:6.66667px;font-family:Roboto, sans-serif;letter-spacing:1px;fill:#333333" id="text151" aria-label="B">
    <path id="path619" style="font-weight:bold;font-size:6.66667px;font-family:Roboto, sans-serif;letter-spacing:1px;fill:#333333" d="m 54.923177,344 v -4.73959 h 1.660157 q 0.862631,0 1.308595,0.33204 0.445963,0.32877 0.445963,0.96679 0,0.34831 -0.179036,0.61524 -0.179037,0.26367 -0.498047,0.38737 0.364583,0.0911 0.572917,0.36784 0.211588,0.27669 0.211588,0.67708 0,0.68359 -0.436198,1.03516 -0.436198,0.35156 -1.24349,0.35807 z m 0.976563,-2.0638 v 1.27929 h 0.836589 q 0.345052,0 0.53711,-0.16276 0.195312,-0.16601 0.195312,-0.45573 0,-0.65104 -0.673828,-0.6608 z m 0,-0.69011 h 0.722657 q 0.738932,-0.013 0.738932,-0.58919 0,-0.32227 -0.188802,-0.46224 -0.185547,-0.14323 -0.589193,-0.14323 H 55.89974 Z"/>
  </g>
  <path d="M 0,0 V 3" style="fill:none;stroke:#333333;stroke-width:1" transform="translate(92.5,333)" id="polyline153"/>
  <g style="font-weight:bold;font-size:6.66667px;font-family:Roboto, sans-serif;letter-spacing:1px;fill:#333333" id="text155" aria-label="D">
    <path id="path615" style="font-weight:bold;font-size:6.66667px;font-family:Roboto, sans-serif;letter-spacing:1px;fill:#333333" d="m 90.923177,344 v -4.73959 h 1.458334 q 0.625001,0 1.116537,0.28321 0.494792,0.27995 0.771485,0.80078 0.276693,0.51758 0.276693,1.17839 v 0.21809 q 0,0.66081 -0.273438,1.17514 -0.270182,0.51432 -0.764974,0.79752 -0.494792,0.2832 -1.116537,0.28646 z m 0.976563,-3.94857 v 3.16406 h 0.472006 q 0.572917,0 0.875651,-0.37434 0.302735,-0.37435 0.309245,-1.07097 v -0.25065 q 0,-0.72266 -0.299479,-1.09375 -0.29948,-0.37435 -0.875652,-0.37435 z"/>
  </g>
  <path d="M 0,0 V 3" style="fill:none;stroke:#333333;stroke-width:1" transform="translate(128.5,333)" id="polyline157"/>
  <g style="font-weight:bold;font-size:6.66667px;font-family:Roboto, sans-serif;letter-spacing:1px;fill:#333333" id="text159" aria-label="F">
    <path id="path611" style="font-weight:bold;font-size:6.66667px;font-family:Roboto, sans-serif;letter-spacing:1px;fill:#333333" d="m 129.77474,342.06315 h -1.875 V 344 h -0.97656 v -4.73959 h 3.08594 v 0.79102 h -2.10938 v 1.22396 h 1.875 z"/>
  </g>
  <path d="M 0,0 V 3" style="fill:none;stroke:#333333;stroke-width:1" transform="translate(164.5,333)" id="polyline161"/>
  <g style="font-weight:bold;font-size:6.66667px;font-family:Roboto, sans-serif;letter-spacing:1px;fill:#333333" id="text163" aria-label="H">
    <path id="path607" style="font-weight:bold;font-size:6.66667px;font-family:Roboto, sans-serif;letter-spacing:1px;fill:#333333" d="m 166.43059,344 h -0.97656 v -2.03125 h -1.9043 V 344 h -0.97656 v -4.73959 h 0.97656 v 1.92058 h 1.9043 v -1.92058 h 0.97656 z"/>
  </g>
  <path d="M 0,0 V 3" style="fill:none;stroke:#333333;stroke-width:1" transform="translate(200.5,333)" id="polyline165"/>
  <g style="font-weight:bold;font-size:6.66667px;font-family:Roboto, sans-serif;letter-spacing:1px;fill:#333333" id="text167" aria-label="J">
    <path id="path603" style="font-weight:bold;font-size:6.66667px;font-family:Roboto, sans-serif;letter-spacing:1px;fill:#333333" d="m 200.83399,339.26041 h 0.97656 v 3.28126 q 0,0.45247 -0.20182,0.80078 -0.19857,0.34505 -0.56316,0.53385 -0.36458,0.1888 -0.82356,0.1888 -0.75196,0 -1.17188,-0.38086 -0.41992,-0.38411 -0.41992,-1.08398 h 0.98307 q 0,0.34831 0.14649,0.51432 0.14648,0.16602 0.46224,0.16602 0.27994,0 0.44596,-0.19206 0.16602,-0.19206 0.16602,-0.54687 z"/>
  </g>
  <path d="M 0,0 V 3" style="fill:none;stroke:#333333;stroke-width:1" transform="translate(236.5,333)" id="polyline169"/>
  <g style="font-weight:bold;font-size:6.66667px;font-family:Roboto, sans-serif;letter-spacing:1px;fill:#333333" id="text171" aria-label="L">
    <path id="path599" style="font-weight:bold;font-size:6.66667px;font-family:Roboto, sans-serif;letter-spacing:1px;fill:#333333" d="m 235.89974,343.21549 h 2.07357 V 344 h -3.05013 v -4.73959 h 0.97656 z"/>
  </g>
  <path d="M 0,0 V 3" style="fill:none;stroke:#333333;stroke-width:1" transform="translate(272.5,333)" id="polyline173"/>
  <g style="font-weight:bold;font-size:6.66667px;font-family:Roboto, sans-serif;letter-spacing:1px;fill:#333333" id="text175" aria-label="N">
    <path id="path595" style="font-weight:bold;font-size:6.66667px;font-family:Roboto, sans-serif;letter-spacing:1px;fill:#333333" d="m 274.37735,344 h -0.97656 l -1.90104,-3.11849 V 344 h -0.97657 v -4.73959 h 0.97657 l 1.90429,3.12501 v -3.12501 h 0.97331 z"/>
  </g>
  <path d="M 0,0 V 3" style="fill:none;stroke:#333333;stroke-width:1" transform="translate(308.5,333)" id="polyline177"/>
  <g style="font-weight:bold;font-size:6.66667px;font-family:Roboto, sans-serif;letter-spacing:1px;fill:#333333" id="text179" aria-label="P">
    <path id="path591" style="font-weight:bold;font-size:6.66667px;font-family:Roboto, sans-serif;letter-spacing:1px;fill:#333333" d="M 307.69973,342.33008 V 344 h -0.97656 v -4.73959 h 1.84895 q 0.53386,0 0.9375,0.19532 0.40691,0.19531 0.62501,0.55664 0.21809,0.35807 0.21809,0.81706 0,0.69661 -0.47851,1.10026 -0.47526,0.40039 -1.31836,0.40039 z m 0,-0.79102 h 0.87239 q 0.38737,0 0.5892,-0.18229 0.20508,-0.18229 0.20508,-0.52083 0,-0.34831 -0.20508,-0.56316 -0.20508,-0.21484 -0.56641,-0.22135 h -0.89518 z"/>
  </g>
  <g style="font-weight:bold;font-size:8px;font-family:Roboto, sans-serif;letter-spacing:1px;fill:#333333" id="text183" aria-label="1">
    <path id="path588" style="font-weight:bold;font-size:8px;font-family:Roboto, sans-serif;letter-spacing:1px;fill:#333333" d="M 75.628906,42.5 H 74.5 v -4.351563 l -1.347656,0.417969 v -0.917969 l 2.355468,-0.84375 h 0.121094 z"/>
  </g>
  <path d="M 0,0 H 3" style="fill:none;stroke:#333333;stroke-width:1" transform="translate(78.5,39.5)" id="polyline185"/>
  <g style="font-weight:bold;font-size:8px;font-family:Roboto, sans-serif;letter-spacing:1px;fill:#333333" id="text187" aria-label="2">
    <path id="path584" style="font-weight:bold;font-size:8px;font-family:Roboto, sans-serif;letter-spacing:1px;fill:#333333" d="m 76.785156,57.5 h -3.898437 v -0.773438 l 1.839843,-1.960937 q 0.378907,-0.414063 0.558594,-0.722656 0.183594,-0.308594 0.183594,-0.585938 0,-0.378906 -0.191406,-0.59375 -0.191407,-0.21875 -0.546875,-0.21875 -0.382813,0 -0.605469,0.265625 -0.21875,0.261719 -0.21875,0.691406 h -1.132813 q 0,-0.519531 0.246094,-0.949218 0.25,-0.429688 0.703125,-0.671875 0.453125,-0.246094 1.027344,-0.246094 0.878906,0 1.363281,0.421875 0.488281,0.421875 0.488281,1.191406 0,0.421875 -0.21875,0.859375 -0.21875,0.4375 -0.75,1.019531 l -1.292968,1.363282 h 2.445312 z"/>
  </g>
  <path d="M 0,0 H 3" style="fill:none;stroke:#333333;stroke-width:1" transform="translate(78.5,54.5)" id="polyline189"/>
  <g style="font-weight:bold;font-size:8px;font-family:Roboto, sans-serif;letter-spacing:1px;fill:#333333" id="text191" aria-label="3">
    <path id="path580" style="font-weight:bold;font-size:8px;font-family:Roboto, sans-serif;letter-spacing:1px;fill:#333333" d="m 74.035156,69.15625 h 0.601563 q 0.429687,0 0.636718,-0.214844 0.207032,-0.214844 0.207032,-0.570312 0,-0.34375 -0.207032,-0.535157 -0.203125,-0.191406 -0.5625,-0.191406 -0.324218,0 -0.542968,0.179688 Q 73.949219,68 73.949219,68.285156 h -1.128907 q 0,-0.445312 0.238282,-0.796875 0.242187,-0.355469 0.671875,-0.554687 0.433593,-0.199219 0.953125,-0.199219 0.902343,0 1.414062,0.433594 0.511719,0.429687 0.511719,1.1875 0,0.390625 -0.238281,0.71875 -0.238282,0.328125 -0.625,0.503906 0.480468,0.171875 0.714843,0.515625 0.238282,0.34375 0.238282,0.8125 0,0.757812 -0.554688,1.214844 -0.550781,0.457031 -1.460937,0.457031 -0.851563,0 -1.394532,-0.449219 Q 72.75,71.679687 72.75,70.941406 h 1.128906 q 0,0.320313 0.238281,0.523438 0.242188,0.203125 0.59375,0.203125 0.402344,0 0.628907,-0.210938 0.230468,-0.214844 0.230468,-0.566406 0,-0.851563 -0.9375,-0.851563 h -0.597656 z"/>
  </g>
  <path d="M 0,0 H 3" style="fill:none;stroke:#333333;stroke-width:1" transform="translate(78.5,69.5)" id="polyline193"/>
  <g style="font-weight:bold;font-size:8px;font-family:Roboto, sans-serif;letter-spacing:1px;fill:#333333" id="text195" aria-label="4">
    <path id="path576" style="font-weight:bold;font-size:8px;font-family:Roboto, sans-serif;letter-spacing:1px;fill:#333333" d="m 76.226562,85.359375 h 0.644532 v 0.910156 H 76.226562 V 87.5 h -1.128906 v -1.230469 h -2.332031 l -0.05078,-0.710937 2.371093,-3.746094 h 1.140625 z m -2.386718,0 h 1.257812 v -2.007813 l -0.07422,0.128907 z"/>
  </g>
  <path d="M 0,0 H 3" style="fill:none;stroke:#333333;stroke-width:1" transform="translate(78.5,84.5)" id="polyline197"/>
  <g style="font-weight:bold;font-size:8px;font-family:Roboto, sans-serif;letter-spacing:1px;fill:#333333" id="text199" aria-label="5">
    <path id="path572" style="font-weight:bold;font-size:8px;font-family:Roboto, sans-serif;letter-spacing:1px;fill:#333333" d="M 73.054687,99.703125 73.382812,96.8125 h 3.1875 v 0.941406 h -2.261718 l -0.140625,1.222656 q 0.402343,-0.214843 0.855468,-0.214843 0.8125,0 1.273438,0.503906 0.460937,0.503906 0.460937,1.410155 0,0.55078 -0.234375,0.98828 -0.230468,0.4336 -0.664062,0.67578 -0.433594,0.23829 -1.023438,0.23829 -0.515625,0 -0.957031,-0.20704 -0.441406,-0.21093 -0.699219,-0.58984 -0.253906,-0.37891 -0.269531,-0.86328 h 1.117188 q 0.03516,0.35547 0.246093,0.55469 0.214844,0.19531 0.558594,0.19531 0.382813,0 0.589844,-0.27344 0.207031,-0.27734 0.207031,-0.78125 0,-0.48437 -0.238281,-0.742186 -0.238281,-0.257813 -0.675781,-0.257813 -0.402344,0 -0.652344,0.210938 l -0.109375,0.101562 z"/>
  </g>
  <path d="M 0,0 H 3" style="fill:none;stroke:#333333;stroke-width:1" transform="translate(78.5,99.5)" id="polyline201"/>
  <g style="font-weight:bold;font-size:8px;font-family:Roboto, sans-serif;letter-spacing:1px;fill:#333333" id="text203" aria-label="6">
    <path id="path568" style="font-weight:bold;font-size:8px;font-family:Roboto, sans-serif;letter-spacing:1px;fill:#333333" d="m 75.949219,111.75391 v 0.92968 h -0.109375 q -0.765625,0.0117 -1.234375,0.39844 -0.464844,0.38672 -0.558594,1.07422 0.453125,-0.46094 1.144531,-0.46094 0.742188,0 1.179688,0.53125 0.4375,0.53125 0.4375,1.39844 0,0.55469 -0.242188,1.00391 -0.238281,0.44922 -0.679687,0.69922 -0.4375,0.25 -0.992188,0.25 -0.898437,0 -1.453125,-0.625 -0.550781,-0.625 -0.550781,-1.66797 v -0.40625 q 0,-0.92578 0.347656,-1.63282 0.351563,-0.71093 1.003906,-1.09765 0.65625,-0.39063 1.519532,-0.39453 z m -1.101563,2.84765 q -0.273437,0 -0.496094,0.14453 -0.222656,0.14063 -0.328125,0.375 v 0.34375 q 0,0.56641 0.222657,0.88672 0.222656,0.31641 0.625,0.31641 0.363281,0 0.585937,-0.28516 0.226563,-0.28906 0.226563,-0.74609 0,-0.46484 -0.226563,-0.75 -0.226562,-0.28516 -0.609375,-0.28516 z"/>
  </g>
  <path d="M 0,0 H 3" style="fill:none;stroke:#333333;stroke-width:1" transform="translate(78.5,114.5)" id="polyline205"/>
  <g style="font-weight:bold;font-size:8px;font-family:Roboto, sans-serif;letter-spacing:1px;fill:#333333" id="text207" aria-label="7">
    <path id="path564" style="font-weight:bold;font-size:8px;font-family:Roboto, sans-serif;letter-spacing:1px;fill:#333333" d="M 76.753906,127.44531 74.554687,132.5 h -1.191406 l 2.203125,-4.77344 h -2.828125 v -0.91406 h 4.015625 z"/>
  </g>
  <path d="M 0,0 H 3" style="fill:none;stroke:#333333;stroke-width:1" transform="translate(78.5,129.5)" id="polyline209"/>
  <g style="font-weight:bold;font-size:8px;font-family:Roboto, sans-serif;letter-spacing:1px;fill:#333333" id="text211" aria-label="8">
    <path id="path560" style="font-weight:bold;font-size:8px;font-family:Roboto, sans-serif;letter-spacing:1px;fill:#333333" d="m 76.59375,143.32422 q 0,0.41406 -0.207031,0.73437 -0.207032,0.32032 -0.570313,0.51172 0.414063,0.19922 0.65625,0.55078 0.242188,0.34766 0.242188,0.82032 0,0.75781 -0.515625,1.19921 -0.515625,0.4375 -1.402344,0.4375 -0.886719,0 -1.40625,-0.4414 -0.519531,-0.44141 -0.519531,-1.19531 0,-0.47266 0.242187,-0.82422 0.242188,-0.35157 0.652344,-0.54688 -0.363281,-0.1914 -0.570313,-0.51172 -0.203125,-0.32031 -0.203125,-0.73437 0,-0.72656 0.484375,-1.15625 0.484375,-0.4336 1.316407,-0.4336 0.828125,0 1.3125,0.42969 0.488281,0.42578 0.488281,1.16016 z m -1.011719,2.53515 q 0,-0.37109 -0.214844,-0.59375 -0.214843,-0.22265 -0.578125,-0.22265 -0.359375,0 -0.574218,0.22265 Q 74,145.48437 74,145.85937 q 0,0.36329 0.210937,0.58594 0.210938,0.22266 0.585938,0.22266 0.367187,0 0.574219,-0.21485 0.210937,-0.21484 0.210937,-0.59375 z m -0.117187,-2.48046 q 0,-0.33204 -0.175782,-0.53125 -0.175781,-0.20313 -0.496093,-0.20313 -0.316407,0 -0.492188,0.19531 -0.175781,0.19532 -0.175781,0.53907 0,0.33984 0.175781,0.54687 0.175781,0.20703 0.496094,0.20703 0.320312,0 0.492187,-0.20703 0.175782,-0.20703 0.175782,-0.54687 z"/>
  </g>
  <path d="M 0,0 H 3" style="fill:none;stroke:#333333;stroke-width:1" transform="translate(78.5,144.5)" id="polyline213"/>
  <g style="font-weight:bold;font-size:8px;font-family:Roboto, sans-serif;letter-spacing:1px;fill:#333333" id="text215" aria-label="9">
    <path id="path556" style="font-weight:bold;font-size:8px;font-family:Roboto, sans-serif;letter-spacing:1px;fill:#333333" d="m 75.527344,160.22656 q -0.441407,0.4336 -1.03125,0.4336 -0.753907,0 -1.207032,-0.51563 -0.453125,-0.51953 -0.453125,-1.39844 0,-0.55859 0.242188,-1.02343 0.246094,-0.46875 0.683594,-0.72657 0.4375,-0.26172 0.984375,-0.26172 0.5625,0 1,0.28125 0.4375,0.28125 0.679687,0.8086 0.242188,0.52734 0.246094,1.20703 v 0.41797 q 0,1.42187 -0.707031,2.23437 -0.707032,0.8125 -2.003907,0.86719 l -0.277343,0.004 v -0.94141 l 0.25,-0.004 q 1.472656,-0.0664 1.59375,-1.38281 z m -0.753907,-0.42969 q 0.273438,0 0.46875,-0.14062 0.199219,-0.14063 0.300782,-0.33984 v -0.46485 q 0,-0.57422 -0.21875,-0.89062 -0.21875,-0.31641 -0.585938,-0.31641 -0.339844,0 -0.558594,0.3125 -0.21875,0.30859 -0.21875,0.77734 0,0.46485 0.210938,0.76563 0.214844,0.29687 0.601562,0.29687 z"/>
  </g>
  <path d="M 0,0 H 3" style="fill:none;stroke:#333333;stroke-width:1" transform="translate(78.5,159.5)" id="polyline217"/>
  <g style="font-weight:bold;font-size:8px;font-family:Roboto, sans-serif;letter-spacing:1px;fill:#333333" id="text219" aria-label="10">
    <path id="path550" style="font-weight:bold;font-size:8px;font-family:Roboto, sans-serif;letter-spacing:1px;fill:#333333" d="M 69.128906,177.5 H 68 v -4.35156 l -1.347656,0.41797 v -0.91797 l 2.355468,-0.84375 h 0.121094 z"/>
    <path id="path552" style="font-weight:bold;font-size:8px;font-family:Roboto, sans-serif;letter-spacing:1px;fill:#333333" d="m 75.808594,175.14844 q 0,1.17968 -0.488282,1.80468 -0.488281,0.625 -1.429687,0.625 -0.929688,0 -1.421875,-0.61328 -0.492188,-0.61328 -0.503906,-1.75781 v -1.04687 q 0,-1.19141 0.492187,-1.8086 0.496094,-0.61719 1.425781,-0.61719 0.929688,0 1.421875,0.61329 0.492188,0.60937 0.503907,1.7539 z M 74.679687,174 q 0,-0.70703 -0.195312,-1.02734 -0.191406,-0.32422 -0.601563,-0.32422 -0.398437,0 -0.589843,0.30859 -0.1875,0.30469 -0.199219,0.95703 v 1.38281 q 0,0.69532 0.1875,1.03516 0.191406,0.33594 0.609375,0.33594 0.414062,0 0.597656,-0.32422 0.183594,-0.32422 0.191406,-0.99219 z"/>
  </g>
  <path d="M 0,0 H 3" style="fill:none;stroke:#333333;stroke-width:1" transform="translate(78.5,174.5)" id="polyline221"/>
  <g style="font-weight:bold;font-size:8px;font-family:Roboto, sans-serif;letter-spacing:1px;fill:#333333" id="text223" aria-label="11">
    <path id="path544" style="font-weight:bold;font-size:8px;font-family:Roboto, sans-serif;letter-spacing:1px;fill:#333333" d="M 69.128906,192.5 H 68 v -4.35156 l -1.347656,0.41797 v -0.91797 l 2.355468,-0.84375 h 0.121094 z"/>
    <path id="path546" style="font-weight:bold;font-size:8px;font-family:Roboto, sans-serif;letter-spacing:1px;fill:#333333" d="M 74.722656,192.5 H 73.59375 v -4.35156 l -1.347656,0.41797 v -0.91797 l 2.355468,-0.84375 h 0.121094 z"/>
  </g>
  <path d="M 0,0 H 3" style="fill:none;stroke:#333333;stroke-width:1" transform="translate(78.5,189.5)" id="polyline225"/>
  <g style="font-weight:bold;font-size:8px;font-family:Roboto, sans-serif;letter-spacing:1px;fill:#333333" id="text227" aria-label="12">
    <path id="path538" style="font-weight:bold;font-size:8px;font-family:Roboto, sans-serif;letter-spacing:1px;fill:#333333" d="M 69.128906,207.5 H 68 v -4.35156 l -1.347656,0.41797 v -0.91797 l 2.355468,-0.84375 h 0.121094 z"/>
    <path id="path540" style="font-weight:bold;font-size:8px;font-family:Roboto, sans-serif;letter-spacing:1px;fill:#333333" d="m 75.878906,207.5 h -3.898437 v -0.77344 l 1.839843,-1.96094 q 0.378907,-0.41406 0.558594,-0.72265 0.183594,-0.3086 0.183594,-0.58594 0,-0.37891 -0.191406,-0.59375 -0.191407,-0.21875 -0.546875,-0.21875 -0.382813,0 -0.605469,0.26563 Q 73,203.17187 73,203.60156 h -1.132813 q 0,-0.51953 0.246094,-0.94922 0.25,-0.42968 0.703125,-0.67187 0.453125,-0.2461 1.027344,-0.2461 0.878906,0 1.363281,0.42188 0.488281,0.42187 0.488281,1.19141 0,0.42187 -0.21875,0.85937 -0.21875,0.4375 -0.75,1.01953 l -1.292968,1.36328 h 2.445312 z"/>
  </g>
  <path d="M 0,0 H 3" style="fill:none;stroke:#333333;stroke-width:1" transform="translate(78.5,204.5)" id="polyline229"/>
  <g style="font-weight:bold;font-size:8px;font-family:Roboto, sans-serif;letter-spacing:1px;fill:#333333" id="text231" aria-label="13">
    <path id="path532" style="font-weight:bold;font-size:8px;font-family:Roboto, sans-serif;letter-spacing:1px;fill:#333333" d="M 69.128906,222.5 H 68 v -4.35156 l -1.347656,0.41797 v -0.91797 l 2.355468,-0.84375 h 0.121094 z"/>
    <path id="path534" style="font-weight:bold;font-size:8px;font-family:Roboto, sans-serif;letter-spacing:1px;fill:#333333" d="m 73.128906,219.15625 h 0.601563 q 0.429687,0 0.636718,-0.21484 0.207032,-0.21485 0.207032,-0.57032 0,-0.34375 -0.207032,-0.53515 -0.203125,-0.19141 -0.5625,-0.19141 -0.324218,0 -0.542968,0.17969 -0.21875,0.17578 -0.21875,0.46094 h -1.128907 q 0,-0.44532 0.238282,-0.79688 0.242187,-0.35547 0.671875,-0.55469 0.433593,-0.19922 0.953125,-0.19922 0.902343,0 1.414062,0.4336 0.511719,0.42969 0.511719,1.1875 0,0.39062 -0.238281,0.71875 -0.238282,0.32812 -0.625,0.5039 0.480468,0.17188 0.714843,0.51563 0.238282,0.34375 0.238282,0.8125 0,0.75781 -0.554688,1.21484 -0.550781,0.45703 -1.460937,0.45703 -0.851563,0 -1.394532,-0.44921 -0.539062,-0.44922 -0.539062,-1.1875 h 1.128906 q 0,0.32031 0.238281,0.52343 0.242188,0.20313 0.59375,0.20313 0.402344,0 0.628907,-0.21094 0.230468,-0.21484 0.230468,-0.56641 0,-0.85156 -0.9375,-0.85156 h -0.597656 z"/>
  </g>
  <path d="M 0,0 H 3" style="fill:none;stroke:#333333;stroke-width:1" transform="translate(78.5,219.5)" id="polyline233"/>
  <g style="font-weight:bold;font-size:8px;font-family:Roboto, sans-serif;letter-spacing:1px;fill:#333333" id="text235" aria-label="14">
    <path id="path526" style="font-weight:bold;font-size:8px;font-family:Roboto, sans-serif;letter-spacing:1px;fill:#333333" d="M 69.128906,237.5 H 68 v -4.35156 l -1.347656,0.41797 v -0.91797 l 2.355468,-0.84375 h 0.121094 z"/>
    <path id="path528" style="font-weight:bold;font-size:8px;font-family:Roboto, sans-serif;letter-spacing:1px;fill:#333333" d="m 75.320312,235.35937 h 0.644532 v 0.91016 H 75.320312 V 237.5 h -1.128906 v -1.23047 h -2.332031 l -0.05078,-0.71094 2.371093,-3.74609 h 1.140625 z m -2.386718,0 h 1.257812 v -2.00781 l -0.07422,0.12891 z"/>
  </g>
  <path d="M 0,0 H 3" style="fill:none;stroke:#333333;stroke-width:1" transform="translate(78.5,234.5)" id="polyline237"/>
  <g style="font-weight:bold;font-size:8px;font-family:Roboto, sans-serif;letter-spacing:1px;fill:#333333" id="text239" aria-label="15">
    <path id="path520" style="font-weight:bold;font-size:8px;font-family:Roboto, sans-serif;letter-spacing:1px;fill:#333333" d="M 69.128906,252.5 H 68 v -4.35156 l -1.347656,0.41797 v -0.91797 l 2.355468,-0.84375 h 0.121094 z"/>
    <path id="path522" style="font-weight:bold;font-size:8px;font-family:Roboto, sans-serif;letter-spacing:1px;fill:#333333" d="m 72.148437,249.70312 0.328125,-2.89062 h 3.1875 v 0.94141 h -2.261718 l -0.140625,1.22265 q 0.402343,-0.21484 0.855468,-0.21484 0.8125,0 1.273438,0.5039 0.460937,0.50391 0.460937,1.41016 0,0.55078 -0.234375,0.98828 -0.230468,0.4336 -0.664062,0.67578 -0.433594,0.23828 -1.023438,0.23828 -0.515625,0 -0.957031,-0.20703 -0.441406,-0.21093 -0.699219,-0.58984 -0.253906,-0.37891 -0.269531,-0.86328 h 1.117188 q 0.03516,0.35547 0.246093,0.55469 0.214844,0.19531 0.558594,0.19531 0.382813,0 0.589844,-0.27344 0.207031,-0.27734 0.207031,-0.78125 0,-0.48437 -0.238281,-0.74219 -0.238281,-0.25781 -0.675781,-0.25781 -0.402344,0 -0.652344,0.21094 l -0.109375,0.10156 z"/>
  </g>
  <path d="M 0,0 H 3" style="fill:none;stroke:#333333;stroke-width:1" transform="translate(78.5,249.5)" id="polyline241"/>
  <g style="font-weight:bold;font-size:8px;font-family:Roboto, sans-serif;letter-spacing:1px;fill:#333333" id="text243" aria-label="16">
    <path id="path514" style="font-weight:bold;font-size:8px;font-family:Roboto, sans-serif;letter-spacing:1px;fill:#333333" d="M 69.128906,267.5 H 68 v -4.35156 l -1.347656,0.41797 v -0.91797 l 2.355468,-0.84375 h 0.121094 z"/>
    <path id="path516" style="font-weight:bold;font-size:8px;font-family:Roboto, sans-serif;letter-spacing:1px;fill:#333333" d="m 75.042969,261.75391 v 0.92968 h -0.109375 q -0.765625,0.0117 -1.234375,0.39844 -0.464844,0.38672 -0.558594,1.07422 0.453125,-0.46094 1.144531,-0.46094 0.742188,0 1.179688,0.53125 0.4375,0.53125 0.4375,1.39844 0,0.55469 -0.242188,1.00391 -0.238281,0.44921 -0.679687,0.69921 -0.4375,0.25 -0.992188,0.25 -0.898437,0 -1.453125,-0.625 -0.550781,-0.625 -0.550781,-1.66796 v -0.40625 q 0,-0.92579 0.347656,-1.63282 0.351563,-0.71093 1.003906,-1.09765 0.65625,-0.39063 1.519532,-0.39453 z m -1.101563,2.84765 q -0.273437,0 -0.496094,0.14453 -0.222656,0.14063 -0.328125,0.375 v 0.34375 q 0,0.56641 0.222657,0.88672 0.222656,0.31641 0.625,0.31641 0.363281,0 0.585937,-0.28516 0.226563,-0.28906 0.226563,-0.74609 0,-0.46485 -0.226563,-0.75 -0.226562,-0.28516 -0.609375,-0.28516 z"/>
  </g>
  <path d="M 0,0 H 3" style="fill:none;stroke:#333333;stroke-width:1" transform="translate(78.5,264.5)" id="polyline245"/>
  <g style="font-weight:bold;font-size:8px;font-family:Roboto, sans-serif;letter-spacing:1px;fill:#333333" id="text247" aria-label="A">
    <path id="path510" style="font-weight:bold;font-size:8px;font-family:Roboto, sans-serif;letter-spacing:1px;fill:#333333" d="M 90.21875,282.82812 H 88.164062 L 87.773437,284 h -1.246093 l 2.117187,-5.6875 h 1.085938 L 91.859375,284 h -1.246094 z m -1.738281,-0.94921 h 1.421875 L 89.1875,279.75 Z"/>
  </g>
  <path d="M 0,0 V 3" style="fill:none;stroke:#333333;stroke-width:1" transform="translate(89.5,272)" id="polyline249"/>
  <g style="font-weight:bold;font-size:8px;font-family:Roboto, sans-serif;letter-spacing:1px;fill:#333333" id="text251" aria-label="B">
    <path id="path506" style="font-weight:bold;font-size:8px;font-family:Roboto, sans-serif;letter-spacing:1px;fill:#333333" d="m 102.40781,284 v -5.6875 H 104.4 q 1.03516,0 1.57031,0.39844 0.53516,0.39453 0.53516,1.16015 0,0.41797 -0.21484,0.73828 -0.21485,0.31641 -0.59766,0.46485 0.4375,0.10937 0.6875,0.4414 0.25391,0.33204 0.25391,0.8125 0,0.82032 -0.52344,1.24219 -0.52344,0.42188 -1.49219,0.42969 z m 1.17188,-2.47656 v 1.53515 h 1.00391 q 0.41406,0 0.64453,-0.19531 0.23437,-0.19922 0.23437,-0.54687 0,-0.78125 -0.80859,-0.79297 z m 0,-0.82813 h 0.86719 q 0.88672,-0.0156 0.88672,-0.70703 0,-0.38672 -0.22657,-0.55469 -0.22265,-0.17187 -0.70703,-0.17187 h -0.82031 z"/>
  </g>
  <path d="M 0,0 V 3" style="fill:none;stroke:#333333;stroke-width:1" transform="translate(104.5,272)" id="polyline253"/>
  <g style="font-weight:bold;font-size:8px;font-family:Roboto, sans-serif;letter-spacing:1px;fill:#333333" id="text255" aria-label="C">
    <path id="path502" style="font-weight:bold;font-size:8px;font-family:Roboto, sans-serif;letter-spacing:1px;fill:#333333" d="m 121.67265,282.10547 q -0.0664,0.91797 -0.67968,1.44531 -0.60938,0.52734 -1.60938,0.52734 -1.09375,0 -1.72266,-0.73437 -0.625,-0.73828 -0.625,-2.02344 v -0.34765 q 0,-0.82032 0.28907,-1.44532 0.28906,-0.625 0.82422,-0.95703 0.53906,-0.33594 1.25,-0.33594 0.98437,0 1.58593,0.52735 0.60157,0.52734 0.69532,1.48047 h -1.17188 q -0.043,-0.55078 -0.30859,-0.79688 -0.26172,-0.25 -0.80078,-0.25 -0.58594,0 -0.87891,0.42188 -0.28906,0.41797 -0.29688,1.30078 v 0.42969 q 0,0.92187 0.27735,1.34765 0.28125,0.42578 0.88281,0.42578 0.54297,0 0.80859,-0.24609 0.26954,-0.25 0.3086,-0.76953 z"/>
  </g>
  <path d="M 0,0 V 3" style="fill:none;stroke:#333333;stroke-width:1" transform="translate(119.7,272)" id="polyline257"/>
  <g style="font-weight:bold;font-size:8px;font-family:Roboto, sans-serif;letter-spacing:1px;fill:#333333" id="text259" aria-label="D">
    <path id="path498" style="font-weight:bold;font-size:8px;font-family:Roboto, sans-serif;letter-spacing:1px;fill:#333333" d="m 132.30782,284 v -5.6875 h 1.75 q 0.75,0 1.33984,0.33984 0.59375,0.33594 0.92578,0.96094 0.33203,0.62109 0.33203,1.41406 v 0.26172 q 0,0.79297 -0.32812,1.41016 -0.32422,0.61719 -0.91797,0.95703 -0.59375,0.33984 -1.33985,0.34375 z m 1.17187,-4.73828 v 3.79687 h 0.56641 q 0.6875,0 1.05078,-0.44922 0.36328,-0.44921 0.37109,-1.28515 v -0.30078 q 0,-0.86719 -0.35937,-1.3125 -0.35938,-0.44922 -1.05078,-0.44922 z"/>
  </g>
  <path d="M 0,0 V 3" style="fill:none;stroke:#333333;stroke-width:1" transform="translate(134.5,272)" id="polyline261"/>
  <g style="font-weight:bold;font-size:8px;font-family:Roboto, sans-serif;letter-spacing:1px;fill:#333333" id="text263" aria-label="E">
    <path id="path494" style="font-weight:bold;font-size:8px;font-family:Roboto, sans-serif;letter-spacing:1px;fill:#333333" d="m 150.62968,281.53516 h -2.25 v 1.52343 h 2.64063 V 284 h -3.8125 v -5.6875 h 3.80469 v 0.94922 h -2.63282 v 1.35547 h 2.25 z"/>
  </g>
  <path d="M 0,0 V 3" style="fill:none;stroke:#333333;stroke-width:1" transform="translate(149.5,272)" id="polyline265"/>
  <g style="font-weight:bold;font-size:8px;font-family:Roboto, sans-serif;letter-spacing:1px;fill:#333333" id="text267" aria-label="F">
    <path id="path490" style="font-weight:bold;font-size:8px;font-family:Roboto, sans-serif;letter-spacing:1px;fill:#333333" d="m 165.72969,281.67578 h -2.25 V 284 h -1.17187 v -5.6875 h 3.70312 v 0.94922 h -2.53125 v 1.46875 h 2.25 z"/>
  </g>
  <path d="M 0,0 V 3" style="fill:none;stroke:#333333;stroke-width:1" transform="translate(164.5,272)" id="polyline269"/>
  <g style="font-weight:bold;font-size:8px;font-family:Roboto, sans-serif;letter-spacing:1px;fill:#333333" id="text271" aria-label="G">
    <path id="path486" style="font-weight:bold;font-size:8px;font-family:Roboto, sans-serif;letter-spacing:1px;fill:#333333" d="m 181.70781,283.28125 q -0.31641,0.37891 -0.89453,0.58984 -0.57813,0.20703 -1.28125,0.20703 -0.73828,0 -1.29688,-0.32031 -0.55468,-0.32422 -0.85937,-0.9375 -0.30078,-0.61328 -0.3086,-1.4414 v -0.38672 q 0,-0.85157 0.28516,-1.47266 0.28906,-0.625 0.82813,-0.95312 0.54296,-0.33204 1.26953,-0.33204 1.01172,0 1.58203,0.48438 0.57031,0.48047 0.67578,1.40234 h -1.14063 q -0.0781,-0.48828 -0.34765,-0.71484 -0.26563,-0.22656 -0.73438,-0.22656 -0.59765,0 -0.91015,0.44922 -0.3125,0.44921 -0.31641,1.33593 v 0.36328 q 0,0.89454 0.33984,1.35157 0.33985,0.45703 0.9961,0.45703 0.66015,0 0.9414,-0.28125 V 281.875 h -1.0664 v -0.86328 h 2.23828 z"/>
  </g>
  <path d="M 0,0 V 3" style="fill:none;stroke:#333333;stroke-width:1" transform="translate(179.5,272)" id="polyline273"/>
  <g style="font-weight:bold;font-size:8px;font-family:Roboto, sans-serif;letter-spacing:1px;fill:#333333" id="text275" aria-label="H">
    <path id="path482" style="font-weight:bold;font-size:8px;font-family:Roboto, sans-serif;letter-spacing:1px;fill:#333333" d="m 196.73672,284 h -1.17187 v -2.4375 h -2.28516 V 284 h -1.17187 v -5.6875 h 1.17187 v 2.30469 h 2.28516 v -2.30469 h 1.17187 z"/>
  </g>
  <path d="M 0,0 V 3" style="fill:none;stroke:#333333;stroke-width:1" transform="translate(194.5,272)" id="polyline277"/>
  <g style="font-weight:bold;font-size:8px;font-family:Roboto, sans-serif;letter-spacing:1px;fill:#333333" id="text279" aria-label="I">
    <path id="path478" style="font-weight:bold;font-size:8px;font-family:Roboto, sans-serif;letter-spacing:1px;fill:#333333" d="m 209.85391,284 h -1.17187 v -5.6875 h 1.17187 z"/>
  </g>
  <path d="M 0,0 V 3" style="fill:none;stroke:#333333;stroke-width:1" transform="translate(209.5,272)" id="polyline281"/>
  <g style="font-weight:bold;font-size:8px;font-family:Roboto, sans-serif;letter-spacing:1px;fill:#333333" id="text283" aria-label="J">
    <path id="path474" style="font-weight:bold;font-size:8px;font-family:Roboto, sans-serif;letter-spacing:1px;fill:#333333" d="m 224.60078,278.3125 h 1.17188 v 3.9375 q 0,0.54297 -0.24219,0.96094 -0.23828,0.41406 -0.67578,0.64062 -0.4375,0.22656 -0.98828,0.22656 -0.90234,0 -1.40625,-0.45703 -0.50391,-0.46093 -0.50391,-1.30078 h 1.17969 q 0,0.41797 0.17578,0.61719 0.17578,0.19922 0.55469,0.19922 0.33594,0 0.53516,-0.23047 0.19921,-0.23047 0.19921,-0.65625 z"/>
  </g>
  <path d="M 0,0 V 3" style="fill:none;stroke:#333333;stroke-width:1" transform="translate(224.5,272)" id="polyline285"/>
  <g style="font-weight:bold;font-size:8px;font-family:Roboto, sans-serif;letter-spacing:1px;fill:#333333" id="text287" aria-label="K">
    <path id="path470" style="font-weight:bold;font-size:8px;font-family:Roboto, sans-serif;letter-spacing:1px;fill:#333333" d="m 239.18906,281.71875 -0.60938,0.65625 V 284 h -1.17187 v -5.6875 h 1.17187 v 2.57812 l 0.51563,-0.70703 1.44922,-1.87109 h 1.4414 l -2.01953,2.52734 2.07813,3.16016 h -1.39454 z"/>
  </g>
  <path d="M 0,0 V 3" style="fill:none;stroke:#333333;stroke-width:1" transform="translate(239.5,272)" id="polyline289"/>
  <g style="font-weight:bold;font-size:8px;font-family:Roboto, sans-serif;letter-spacing:1px;fill:#333333" id="text291" aria-label="L">
    <path id="path466" style="font-weight:bold;font-size:8px;font-family:Roboto, sans-serif;letter-spacing:1px;fill:#333333" d="m 253.67969,283.05859 h 2.48828 V 284 h -3.66016 v -5.6875 h 1.17188 z"/>
  </g>
  <path d="M 0,0 V 3" style="fill:none;stroke:#333333;stroke-width:1" transform="translate(254.5,272)" id="polyline293"/>
  <g style="font-weight:bold;font-size:8px;font-family:Roboto, sans-serif;letter-spacing:1px;fill:#333333" id="text295" aria-label="M">
    <path id="path462" style="font-weight:bold;font-size:8px;font-family:Roboto, sans-serif;letter-spacing:1px;fill:#333333" d="m 268.13907,278.3125 1.46094,4.125 1.45312,-4.125 h 1.53906 V 284 h -1.17578 v -1.55469 L 271.5336,279.76172 269.99844,284 h -0.80468 l -1.53125,-4.23438 0.11718,2.67969 V 284 h -1.17187 v -5.6875 z"/>
  </g>
  <path d="M 0,0 V 3" style="fill:none;stroke:#333333;stroke-width:1" transform="translate(269.5,272)" id="polyline297"/>
  <g style="font-weight:bold;font-size:8px;font-family:Roboto, sans-serif;letter-spacing:1px;fill:#333333" id="text299" aria-label="N">
    <path id="path458" style="font-weight:bold;font-size:8px;font-family:Roboto, sans-serif;letter-spacing:1px;fill:#333333" d="m 286.63281,284 h -1.17187 l -2.28125,-3.74219 V 284 h -1.17188 v -5.6875 h 1.17188 l 2.28515,3.75 v -3.75 h 1.16797 z"/>
  </g>
  <path d="M 0,0 V 3" style="fill:none;stroke:#333333;stroke-width:1" transform="translate(284.5,272)" id="polyline301"/>
  <g style="font-weight:bold;font-size:8px;font-family:Roboto, sans-serif;letter-spacing:1px;fill:#333333" id="text303" aria-label="O">
    <path id="path454" style="font-weight:bold;font-size:8px;font-family:Roboto, sans-serif;letter-spacing:1px;fill:#333333" d="m 301.8797,281.28516 q 0,0.83984 -0.29688,1.47265 -0.29687,0.63281 -0.85156,0.97656 -0.55078,0.34375 -1.26562,0.34375 -0.70703,0 -1.26172,-0.33984 -0.55469,-0.33984 -0.85938,-0.96875 -0.30468,-0.63281 -0.30859,-1.45312 v -0.28125 q 0,-0.83985 0.30078,-1.47657 0.30469,-0.64062 0.85547,-0.98047 0.55469,-0.34375 1.26562,-0.34375 0.71094,0 1.26172,0.34375 0.55469,0.33985 0.85547,0.98047 0.30469,0.63672 0.30469,1.47266 z m -1.1875,-0.25782 q 0,-0.89453 -0.32031,-1.35937 -0.32032,-0.46485 -0.91407,-0.46485 -0.58984,0 -0.91015,0.46094 -0.32031,0.45703 -0.32422,1.34375 v 0.27735 q 0,0.87109 0.32031,1.35156 0.32031,0.48047 0.92188,0.48047 0.58984,0 0.90625,-0.46094 0.3164,-0.46484 0.32031,-1.35156 z"/>
  </g>
  <path d="M 0,0 V 3" style="fill:none;stroke:#333333;stroke-width:1" transform="translate(299.5,272)" id="polyline305"/>
  <g style="font-weight:bold;font-size:8px;font-family:Roboto, sans-serif;letter-spacing:1px;fill:#333333" id="text307" aria-label="P">
    <path id="path450" style="font-weight:bold;font-size:8px;font-family:Roboto, sans-serif;letter-spacing:1px;fill:#333333" d="M 313.47968,281.99609 V 284 h -1.17188 v -5.6875 h 2.21875 q 0.64063,0 1.125,0.23437 0.48828,0.23438 0.75,0.66797 0.26172,0.42969 0.26172,0.98047 0,0.83594 -0.57422,1.32031 -0.57031,0.48047 -1.58203,0.48047 z m 0,-0.94922 h 1.04687 q 0.46484,0 0.70703,-0.21875 0.2461,-0.21875 0.2461,-0.625 0,-0.41796 -0.2461,-0.67578 -0.24609,-0.25781 -0.67969,-0.26562 h -1.07421 z"/>
  </g>
  <path d="M 0,0 V 3" style="fill:none;stroke:#333333;stroke-width:1" transform="translate(314.5,272)" id="polyline309"/>
</svg>
