<?xml version="1.0" encoding="UTF-8" standalone="no"?>
<svg xmlns:dc="http://purl.org/dc/elements/1.1/" xmlns:cc="http://creativecommons.org/ns#" xmlns:rdf="http://www.w3.org/1999/02/22-rdf-syntax-ns#" xmlns:svg="http://www.w3.org/2000/svg" xmlns="http://www.w3.org/2000/svg" xmlns:sodipodi="http://sodipodi.sourceforge.net/DTD/sodipodi-0.dtd" xmlns:inkscape="http://www.inkscape.org/namespaces/inkscape" inkscape:version="1.0 (4035a4f, 2020-05-01)" sodipodi:docname="svg_render_Switch44-pp.svg" id="svg53839" viewBox="0 0 150 380" height="380" width="150" version="1.1">
  <metadata id="metadata53843">
    <rdf:RDF>
      <cc:Work rdf:about="">
        <dc:format>image/svg+xml</dc:format>
        <dc:type rdf:resource="http://purl.org/dc/dcmitype/StillImage"/>
      </cc:Work>
    </rdf:RDF>
  </metadata>
  <sodipodi:namedview inkscape:current-layer="svg53839" inkscape:window-maximized="0" inkscape:window-y="23" inkscape:window-x="0" inkscape:cy="190" inkscape:cx="75" inkscape:zoom="1.7605263" showgrid="false" id="namedview53841" inkscape:window-height="480" inkscape:window-width="689" inkscape:pageshadow="2" inkscape:pageopacity="0" guidetolerance="10" gridtolerance="10" objecttolerance="10" borderopacity="1" bordercolor="#666666" pagecolor="#ffffff"/>
  
  <defs id="defs53715">
    <symbol viewBox="0 0 18px 18px" id="button">
      <g id="g53698" transform="translate(9 9)">
        <circle id="circle53696" fill="#f00" stroke="#00f" stroke-width="1" r="8.5" cy="0" cx="0"/>
      </g>
    </symbol>
    <symbol viewBox="0 0 24px 24px" id="input">
      <g id="g53705" transform="translate(12 12)">
        <circle id="circle53701" fill="#0f0" stroke="#0f0" stroke-width="1" r="5" cy="0" cx="0"/>
        <circle id="circle53703" fill="none" stroke="#0f0" stroke-width="3" r="10.5" cy="0" cx="0"/>
      </g>
    </symbol>
    <symbol viewBox="0 0 24px 24px" id="output">
      <g id="g53712" transform="translate(12 12)">
        <circle id="circle53708" fill="#f00" stroke="#f00" stroke-width="1" r="5" cy="0" cx="0"/>
        <circle id="circle53710" fill="none" stroke="#f00" stroke-width="3" r="10.5" cy="0" cx="0"/>
      </g>
    </symbol>
  </defs>
  <path d="M 0,0 H 150 V 380 H 0 Z" style="fill:#dddddd" id="rect53717"/>
  <path d="M 1,1 H 149 V 379 H 1 V 1" style="fill:none;stroke:#e4e4e4;stroke-width:0.5" id="polyline53719"/>
  <path d="m 0.5,0.5 h 149 v 379 H 0.5 V 0.5" style="fill:none;stroke:#ebebeb;stroke-width:0.8" id="polyline53721"/>
  <path d="M 0,0 H 150 V 380 H 0 V 0" style="fill:none;stroke:#f2f2f2;stroke-width:1" id="polyline53723"/>
  <!-- <rect width="150" height="24" fill="#0f0" transform="translate(0 0)" /> -->
  <!-- <rect width="150" height="22" fill="#0f0" transform="translate(0 22)" /> -->
  <!-- <rect width="150" height="22" fill="#0f0" transform="translate(0 78)" /> -->
  <!-- <rect width="150" height="22" fill="#0f0" transform="translate(0 134)" /> -->
  <!-- <rect width="150" height="22" fill="#0f0" transform="translate(0 190)" /> -->
  <!-- <rect width="150" height="22" fill="#0f0" transform="translate(0 245)" /> -->
  <g class="title" style="font-weight:normal;font-size:16px;font-family:Comfortaa, sans-serif;letter-spacing:4px;fill:#333333" id="text53725" aria-label="SWITCH44">
    <path id="path54008" style="font-weight:normal;font-size:16px;font-family:Comfortaa, sans-serif;letter-spacing:4px;fill:#333333" d="m 24.44,19.16 q -1.52,0 -2.704,-0.64 -1.168,-0.656 -1.68,-1.76 -0.064,-0.112 -0.064,-0.256 0,-0.224 0.16,-0.368 0.176,-0.16 0.464,-0.16 0.192,0 0.352,0.112 0.176,0.096 0.256,0.288 0.368,0.72 1.216,1.168 0.864,0.432 2,0.432 1.312,0 2.112,-0.624 0.8,-0.64 0.8,-1.776 0,-1.008 -0.752,-1.696 Q 25.864,13.192 24.376,13 22.52,12.776 21.448,11.848 20.392,10.904 20.392,9.544 q 0,-0.96 0.512,-1.68 0.528,-0.736 1.44,-1.12 0.928,-0.4 2.096,-0.4 1.264,0 2.224,0.56 0.96,0.56 1.504,1.456 0.112,0.176 0.112,0.384 0,0.304 -0.288,0.48 -0.128,0.064 -0.288,0.064 -0.176,0 -0.336,-0.08 -0.144,-0.096 -0.24,-0.256 -0.896,-1.408 -2.704,-1.424 -1.296,0 -2.048,0.544 -0.752,0.544 -0.752,1.552 0,1.872 3.024,2.272 1.984,0.288 2.96,1.216 0.976,0.928 0.976,2.448 0,1.12 -0.544,1.936 -0.544,0.816 -1.488,1.248 -0.944,0.416 -2.112,0.416 z"/>
    <path id="path54010" style="font-weight:normal;font-size:16px;font-family:Comfortaa, sans-serif;letter-spacing:4px;fill:#333333" d="m 47.08075,6.504 q 0.256,0 0.4,0.176 0.144,0.16 0.144,0.416 0,0.128 -0.048,0.304 l -3.264,11.072 q -0.08,0.256 -0.256,0.4 -0.16,0.128 -0.384,0.128 -0.224,0 -0.4,-0.144 -0.16,-0.144 -0.224,-0.368 l -2.592,-9.456 -2.576,9.44 q -0.08,0.24 -0.256,0.384 -0.16,0.144 -0.384,0.144 -0.224,0 -0.4,-0.144 -0.16,-0.144 -0.224,-0.368 L 33.33675,7.4 q -0.048,-0.176 -0.048,-0.288 0,-0.272 0.16,-0.432 0.16,-0.176 0.416,-0.176 0.448,0 0.608,0.48 l 2.768,9.648 2.624,-9.376 q 0.048,-0.176 0.208,-0.288 0.176,-0.112 0.384,-0.112 0.208,0 0.368,0.112 0.16,0.112 0.224,0.304 l 2.64,9.376 2.784,-9.728 q 0.128,-0.416 0.608,-0.416 z"/>
    <path id="path54012" style="font-weight:normal;font-size:16px;font-family:Comfortaa, sans-serif;letter-spacing:4px;fill:#333333" d="m 54.19275,19 q -0.256,0 -0.448,-0.176 -0.176,-0.192 -0.176,-0.448 V 7.128 q 0,-0.272 0.176,-0.448 0.192,-0.176 0.448,-0.176 0.272,0 0.448,0.176 0.176,0.176 0.176,0.448 v 11.248 q 0,0.256 -0.176,0.448 -0.176,0.176 -0.448,0.176 z"/>
    <path id="path54014" style="font-weight:normal;font-size:16px;font-family:Comfortaa, sans-serif;letter-spacing:4px;fill:#333333" d="m 70.07025,6.504 q 0.256,0 0.416,0.16 0.16,0.16 0.16,0.416 0,0.24 -0.16,0.4 -0.16,0.16 -0.416,0.16 h -3.808 v 10.736 q 0,0.256 -0.176,0.448 -0.176,0.176 -0.448,0.176 -0.256,0 -0.448,-0.176 -0.176,-0.192 -0.176,-0.448 V 7.64 h -3.792 q -0.256,0 -0.416,-0.16 -0.16,-0.16 -0.16,-0.4 0,-0.256 0.16,-0.416 0.16,-0.16 0.416,-0.16 z"/>
    <path id="path54016" style="font-weight:normal;font-size:16px;font-family:Comfortaa, sans-serif;letter-spacing:4px;fill:#333333" d="m 81.2785,19.16 q -1.696,0 -3.12,-0.864 -1.424,-0.864 -2.272,-2.336 -0.832,-1.472 -0.832,-3.216 0,-1.728 0.832,-3.2 0.832,-1.472 2.256,-2.336 1.424,-0.864 3.136,-0.864 1.152,0 2.096,0.336 0.944,0.336 1.824,1.072 0.176,0.128 0.176,0.368 0,0.128 -0.064,0.24 -0.064,0.096 -0.176,0.144 -0.032,0.112 -0.144,0.176 -0.112,0.064 -0.24,0.064 -0.24,0 -0.4,-0.144 -0.624,-0.56 -1.36,-0.816 -0.736,-0.256 -1.712,-0.256 -1.344,0 -2.496,0.72 -1.152,0.704 -1.84,1.904 -0.672,1.2 -0.672,2.592 0,1.424 0.672,2.624 0.672,1.2 1.824,1.904 1.152,0.704 2.512,0.704 1.744,0 3.152,-1.12 0.176,-0.128 0.352,-0.128 0.24,0 0.416,0.176 0.176,0.16 0.176,0.432 0,0.256 -0.176,0.448 -1.504,1.376 -3.92,1.376 z"/>
    <path id="path54018" style="font-weight:normal;font-size:16px;font-family:Comfortaa, sans-serif;letter-spacing:4px;fill:#333333" d="m 92.63025,19 q -0.256,0 -0.448,-0.176 -0.176,-0.192 -0.176,-0.448 V 7.128 q 0,-0.272 0.176,-0.448 0.192,-0.176 0.448,-0.176 0.272,0 0.448,0.176 0.176,0.176 0.176,0.448 v 4.992 h 7.808 V 7.128 q 0,-0.272 0.176,-0.448 0.192,-0.176 0.448,-0.176 0.272,0 0.448,0.176 0.176,0.176 0.176,0.448 v 11.248 q 0,0.256 -0.176,0.448 -0.176,0.176 -0.448,0.176 -0.256,0 -0.448,-0.176 -0.176,-0.192 -0.176,-0.448 V 13.24 h -7.808 v 5.136 q 0,0.256 -0.176,0.448 -0.176,0.176 -0.448,0.176 z"/>
    <path id="path54020" style="font-weight:normal;font-size:16px;font-family:Comfortaa, sans-serif;letter-spacing:4px;fill:#333333" d="m 116.96225,14.888 q 0.608,0 0.608,0.576 0,0.208 -0.192,0.384 -0.176,0.16 -0.416,0.16 h -1.264 v 2.368 q 0,0.256 -0.176,0.448 -0.176,0.176 -0.448,0.176 -0.256,0 -0.432,-0.176 -0.16,-0.176 -0.16,-0.448 v -2.368 h -5.728 q -0.272,0 -0.448,-0.176 -0.176,-0.192 -0.176,-0.432 0,-0.192 0.128,-0.368 l 6.336,-8.288 q 0.176,-0.256 0.512,-0.256 0.256,0 0.416,0.192 0.176,0.176 0.176,0.448 v 7.76 z m -2.48,0 V 8.776 l -4.688,6.112 z"/>
    <path id="path54022" style="font-weight:normal;font-size:16px;font-family:Comfortaa, sans-serif;letter-spacing:4px;fill:#333333" d="m 131.306,14.888 q 0.608,0 0.608,0.576 0,0.208 -0.192,0.384 -0.176,0.16 -0.416,0.16 h -1.264 v 2.368 q 0,0.256 -0.176,0.448 Q 129.69,19 129.418,19 q -0.256,0 -0.432,-0.176 -0.16,-0.176 -0.16,-0.448 v -2.368 h -5.728 q -0.272,0 -0.448,-0.176 -0.176,-0.192 -0.176,-0.432 0,-0.192 0.128,-0.368 l 6.336,-8.288 q 0.176,-0.256 0.512,-0.256 0.256,0 0.416,0.192 0.176,0.176 0.176,0.448 v 7.76 z m -2.48,0 V 8.776 l -4.688,6.112 z"/>
  </g>
  <g class="brand" style="font-weight:bold;font-size:10.6667px;font-family:Audiowide, sans-serif;letter-spacing:2px;fill:#333333" id="text53727" aria-label="BOGAUDIO">
    <path id="path53991" style="font-weight:bold;font-size:10.6667px;font-family:Audiowide, sans-serif;letter-spacing:2px;fill:#333333" d="m 43.739609,372.35937 q 0,0.25 -0.08854,0.53646 -0.08333,0.28646 -0.28125,0.53125 -0.192709,0.24479 -0.50521,0.41146 Q 42.552106,374 42.098979,374 h -5.140641 q -0.145834,0 -0.270834,-0.0521 -0.125001,-0.0521 -0.218751,-0.14063 -0.08854,-0.0937 -0.140625,-0.21875 -0.05208,-0.125 -0.05208,-0.27083 v -6.10419 q 0,-0.14063 0.05208,-0.26563 0.05208,-0.125 0.140625,-0.21875 0.09375,-0.0937 0.218751,-0.14583 0.125,-0.0521 0.270834,-0.0521 h 4.531264 q 0.250001,0 0.53646,0.0885 0.28646,0.0885 0.531252,0.28646 0.250001,0.19271 0.41146,0.50521 0.166667,0.3125 0.166667,0.76562 v 0.25521 q 0,0.35938 -0.119792,0.77605 -0.119792,0.41146 -0.385418,0.78125 0.229167,0.14063 0.427085,0.33854 0.203125,0.19792 0.354167,0.45834 0.151042,0.26042 0.239584,0.58854 0.08854,0.32813 0.08854,0.72396 z m -1.354171,-0.26042 q 0,-0.26562 -0.08333,-0.47396 -0.08333,-0.21354 -0.234376,-0.36458 -0.151042,-0.15104 -0.364584,-0.22917 -0.213543,-0.0833 -0.479169,-0.0833 h -3.052093 v -1.36459 h 2.442716 q 0.265626,0 0.479169,-0.0781 0.213542,-0.0833 0.364584,-0.23437 0.151042,-0.15104 0.229168,-0.35938 0.08333,-0.21354 0.08333,-0.47917 v -0.25521 q 0,-0.29166 -0.281251,-0.29166 h -3.859387 v 4.76043 h 4.468764 q 0.03646,0 0.08854,-0.005 0.05208,-0.005 0.09375,-0.0312 0.04167,-0.026 0.07292,-0.0885 0.03125,-0.0625 0.03125,-0.17188 z"/>
    <path id="path53993" style="font-weight:bold;font-size:10.6667px;font-family:Audiowide, sans-serif;letter-spacing:2px;fill:#333333" d="m 54.750055,370.97916 q 0,0.68229 -0.234376,1.25521 -0.234376,0.57292 -0.651044,0.98959 -0.416668,0.41666 -0.989586,0.65104 -0.56771,0.22917 -1.239587,0.22917 h -1.833339 q -0.671878,0 -1.244796,-0.22917 -0.572918,-0.23438 -0.989586,-0.65104 -0.416668,-0.41667 -0.656253,-0.98959 -0.234375,-0.57292 -0.234375,-1.25521 v -1.42709 q 0,-0.67709 0.234375,-1.25 0.239585,-0.57813 0.656253,-0.98959 0.416668,-0.41667 0.989586,-0.65104 0.572918,-0.23438 1.244796,-0.23438 h 1.833339 q 0.671877,0 1.239587,0.23438 0.572918,0.23437 0.989586,0.65104 0.416668,0.41146 0.651044,0.98959 0.234376,0.57291 0.234376,1.25 z m -1.354171,-1.42709 q 0,-0.40104 -0.130209,-0.72396 -0.125,-0.32813 -0.359376,-0.55729 -0.229167,-0.23438 -0.557293,-0.35938 -0.322918,-0.13021 -0.713544,-0.13021 h -1.833339 q -0.395835,0 -0.723961,0.13021 -0.322918,0.125 -0.557293,0.35938 -0.234376,0.22916 -0.364585,0.55729 -0.125,0.32292 -0.125,0.72396 v 1.42709 q 0,0.40104 0.125,0.72917 0.130209,0.32291 0.364585,0.55729 0.234375,0.22917 0.557293,0.35938 0.328126,0.125 0.723961,0.125 h 1.822922 q 0.395835,0 0.718752,-0.125 0.328126,-0.13021 0.562502,-0.35938 0.234376,-0.23438 0.359376,-0.55729 0.130209,-0.32813 0.130209,-0.72917 z"/>
    <path id="path53995" style="font-weight:bold;font-size:10.6667px;font-family:Audiowide, sans-serif;letter-spacing:2px;fill:#333333" d="m 65.468833,373.31771 q 0,0.14583 -0.05208,0.27083 -0.05208,0.125 -0.145833,0.21875 -0.08854,0.0885 -0.213543,0.14063 Q 64.932373,374 64.786539,374 h -4.885432 q -0.187501,0 -0.406251,-0.0417 -0.213543,-0.0469 -0.427085,-0.14062 -0.208334,-0.0937 -0.401043,-0.23959 -0.192709,-0.15104 -0.343751,-0.35937 -0.145834,-0.21354 -0.234376,-0.48959 -0.08854,-0.28125 -0.08854,-0.63021 v -3.66668 q 0,-0.1875 0.04167,-0.40104 0.04687,-0.21875 0.140626,-0.42708 0.09375,-0.21355 0.244792,-0.40625 0.151042,-0.19271 0.359376,-0.33855 0.213543,-0.15104 0.489585,-0.23958 0.276043,-0.0885 0.625002,-0.0885 h 5.505226 v 1.35417 h -5.505226 q -0.265626,0 -0.406251,0.14062 -0.140626,0.14063 -0.140626,0.41667 v 3.65626 q 0,0.26042 0.140626,0.40625 0.145834,0.14063 0.406251,0.14063 h 4.213555 v -1.69792 h -3.604178 v -1.36459 h 4.276055 q 0.145834,0 0.270834,0.0573 0.125001,0.0521 0.213543,0.14584 0.09375,0.0937 0.145833,0.21875 0.05208,0.11979 0.05208,0.26041 z"/>
    <path id="path53997" style="font-weight:bold;font-size:10.6667px;font-family:Audiowide, sans-serif;letter-spacing:2px;fill:#333333" d="M 76.218861,374 H 74.86469 v -1.83334 H 70.104258 V 374 h -1.354171 v -3.73439 q 0,-0.81771 0.281251,-1.50521 0.281251,-0.6875 0.781253,-1.1823 0.500001,-0.49479 1.182295,-0.77083 0.682294,-0.27604 1.489588,-0.27604 h 3.052093 q 0.140625,0 0.265626,0.0521 0.125,0.0521 0.218751,0.14583 0.09375,0.0937 0.145833,0.21875 0.05208,0.125 0.05208,0.26563 z m -6.114603,-3.18751 h 4.760432 v -2.92709 h -2.380216 q -0.0625,0 -0.265626,0.0208 -0.197917,0.0156 -0.463543,0.0885 -0.260417,0.0729 -0.552085,0.22396 -0.291668,0.15104 -0.53646,0.41667 -0.244792,0.26563 -0.406251,0.66667 -0.156251,0.39583 -0.156251,0.96354 z"/>
    <path id="path53999" style="font-weight:bold;font-size:10.6667px;font-family:Audiowide, sans-serif;letter-spacing:2px;fill:#333333" d="m 87.104307,373.31771 q 0,0.14583 -0.05208,0.27083 -0.05208,0.125 -0.145834,0.21875 -0.09375,0.0885 -0.21875,0.14063 Q 86.562638,374 86.422013,374 H 83.36992 q -0.432293,0 -0.875003,-0.0937 -0.44271,-0.0937 -0.859378,-0.28646 -0.411459,-0.19792 -0.776044,-0.5 -0.364584,-0.30209 -0.640627,-0.71355 -0.270834,-0.41666 -0.427084,-0.94791 -0.156251,-0.53646 -0.156251,-1.19272 v -3.73438 h 1.354171 v 3.73438 q 0,0.57292 0.156251,0.96876 0.161458,0.39583 0.406251,0.66146 0.244792,0.26562 0.53646,0.41666 0.291667,0.15105 0.552085,0.22396 0.265626,0.0729 0.463543,0.0937 0.203126,0.0156 0.265626,0.0156 h 2.380216 v -6.1146 h 1.354171 z"/>
    <path id="path54001" style="font-weight:bold;font-size:10.6667px;font-family:Audiowide, sans-serif;letter-spacing:2px;fill:#333333" d="m 98.135583,370.87499 q 0,0.68229 -0.239585,1.25521 -0.234375,0.57292 -0.651043,0.98959 -0.416668,0.41146 -0.989587,0.64583 Q 95.68245,374 95.010573,374 h -3.656262 q -0.145834,0 -0.270834,-0.0521 -0.125,-0.0521 -0.218751,-0.14063 -0.08854,-0.0937 -0.140625,-0.21875 -0.05208,-0.125 -0.05208,-0.27083 v -6.10419 q 0,-0.14063 0.05208,-0.26563 0.05208,-0.125 0.140625,-0.21875 0.09375,-0.0937 0.218751,-0.14583 0.125,-0.0521 0.270834,-0.0521 h 3.656262 q 0.671877,0 1.244795,0.23437 0.572919,0.23438 0.989587,0.65105 0.416668,0.41146 0.651043,0.98958 0.239585,0.57292 0.239585,1.25001 z m -1.354171,-1.21875 q 0,-0.39584 -0.130209,-0.72396 -0.125001,-0.32813 -0.359376,-0.5573 -0.234376,-0.23437 -0.562502,-0.35937 -0.322918,-0.13021 -0.718752,-0.13021 h -2.984385 v 4.76043 h 2.984385 q 0.395834,0 0.718752,-0.125 0.328126,-0.13021 0.562502,-0.35938 0.234375,-0.23437 0.359376,-0.55729 0.130209,-0.32813 0.130209,-0.72917 z"/>
    <path id="path54003" style="font-weight:bold;font-size:10.6667px;font-family:Audiowide, sans-serif;letter-spacing:2px;fill:#333333" d="m 102.83872,374 h -1.35417 v -7.46877 h 1.35417 z"/>
    <path id="path54005" style="font-weight:bold;font-size:10.6667px;font-family:Audiowide, sans-serif;letter-spacing:2px;fill:#333333" d="m 114.27104,370.97916 q 0,0.68229 -0.23438,1.25521 -0.23437,0.57292 -0.65104,0.98959 -0.41667,0.41666 -0.98959,0.65104 -0.56771,0.22917 -1.23958,0.22917 h -1.83334 q -0.67188,0 -1.2448,-0.22917 -0.57292,-0.23438 -0.98959,-0.65104 -0.41666,-0.41667 -0.65625,-0.98959 -0.23437,-0.57292 -0.23437,-1.25521 v -1.42709 q 0,-0.67709 0.23437,-1.25 0.23959,-0.57813 0.65625,-0.98959 0.41667,-0.41667 0.98959,-0.65104 0.57292,-0.23438 1.2448,-0.23438 h 1.83334 q 0.67187,0 1.23958,0.23438 0.57292,0.23437 0.98959,0.65104 0.41667,0.41146 0.65104,0.98959 0.23438,0.57291 0.23438,1.25 z m -1.35417,-1.42709 q 0,-0.40104 -0.13021,-0.72396 -0.125,-0.32813 -0.35938,-0.55729 -0.22916,-0.23438 -0.55729,-0.35938 -0.32292,-0.13021 -0.71354,-0.13021 h -1.83334 q -0.39584,0 -0.72396,0.13021 -0.32292,0.125 -0.5573,0.35938 -0.23437,0.22916 -0.36458,0.55729 -0.125,0.32292 -0.125,0.72396 v 1.42709 q 0,0.40104 0.125,0.72917 0.13021,0.32291 0.36458,0.55729 0.23438,0.22917 0.5573,0.35938 0.32812,0.125 0.72396,0.125 h 1.82292 q 0.39583,0 0.71875,-0.125 0.32813,-0.13021 0.5625,-0.35938 0.23438,-0.23438 0.35938,-0.55729 0.13021,-0.32813 0.13021,-0.72917 z"/>
  </g>
  <path d="m 59.5,369 h 3 v 3 h -3 z" style="fill:#dddddd" id="rect53729"/>
  <g style="font-weight:bold;font-size:8px;font-family:Roboto, sans-serif;letter-spacing:2px;fill:#333333" id="text53733" aria-label="1A">
    <path id="path53985" style="font-weight:bold;font-size:8px;font-family:Roboto, sans-serif;letter-spacing:2px;fill:#333333" d="M 24.128906,48.5 H 23 v -4.351563 l -1.347656,0.417969 v -0.917969 l 2.355468,-0.84375 h 0.121094 z"/>
    <path id="path53987" style="font-weight:bold;font-size:8px;font-family:Roboto, sans-serif;letter-spacing:2px;fill:#333333" d="M 31.3125,47.328125 H 29.257812 L 28.867187,48.5 h -1.246093 l 2.117187,-5.6875 h 1.085938 L 32.953125,48.5 h -1.246094 z m -1.738281,-0.949219 h 1.421875 L 30.28125,44.25 Z"/>
  </g>
  <g style="font-weight:bold;font-size:8px;font-family:Roboto, sans-serif;letter-spacing:2px;fill:#333333" id="text53737" aria-label="2A">
    <path id="path53980" style="font-weight:bold;font-size:8px;font-family:Roboto, sans-serif;letter-spacing:2px;fill:#333333" d="m 25.285156,105 h -3.898437 v -0.77344 l 1.839843,-1.96093 q 0.378907,-0.41407 0.558594,-0.72266 0.183594,-0.30859 0.183594,-0.58594 0,-0.3789 -0.191406,-0.59375 -0.191407,-0.21875 -0.546875,-0.21875 -0.382813,0 -0.605469,0.26563 -0.21875,0.26172 -0.21875,0.6914 h -1.132813 q 0,-0.51953 0.246094,-0.94922 0.25,-0.429684 0.703125,-0.671871 0.453125,-0.246094 1.027344,-0.246094 0.878906,0 1.363281,0.421875 0.488281,0.42188 0.488281,1.19141 0,0.42187 -0.21875,0.85937 -0.21875,0.4375 -0.75,1.01953 l -1.292968,1.36328 h 2.445312 z"/>
    <path id="path53982" style="font-weight:bold;font-size:8px;font-family:Roboto, sans-serif;letter-spacing:2px;fill:#333333" d="M 31.3125,103.82813 H 29.257812 L 28.867187,105 h -1.246093 l 2.117187,-5.6875 h 1.085938 L 32.953125,105 h -1.246094 z m -1.738281,-0.94922 h 1.421875 L 30.28125,100.75 Z"/>
  </g>
  <g style="font-weight:bold;font-size:8px;font-family:Roboto, sans-serif;letter-spacing:2px;fill:#333333" id="text53741" aria-label="3A">
    <path id="path53975" style="font-weight:bold;font-size:8px;font-family:Roboto, sans-serif;letter-spacing:2px;fill:#333333" d="m 22.535156,157.65625 h 0.601563 q 0.429687,0 0.636718,-0.21484 0.207032,-0.21485 0.207032,-0.57032 0,-0.34375 -0.207032,-0.53515 -0.203125,-0.19141 -0.5625,-0.19141 -0.324218,0 -0.542968,0.17969 -0.21875,0.17578 -0.21875,0.46094 h -1.128907 q 0,-0.44532 0.238282,-0.79688 0.242187,-0.35547 0.671875,-0.55469 0.433593,-0.19922 0.953125,-0.19922 0.902343,0 1.414062,0.4336 0.511719,0.42969 0.511719,1.1875 0,0.39062 -0.238281,0.71875 -0.238282,0.32812 -0.625,0.5039 0.480468,0.17188 0.714843,0.51563 0.238282,0.34375 0.238282,0.8125 0,0.75781 -0.554688,1.21484 -0.550781,0.45703 -1.460937,0.45703 -0.851563,0 -1.394532,-0.44921 Q 21.25,160.17969 21.25,159.44141 h 1.128906 q 0,0.32031 0.238281,0.52343 0.242188,0.20313 0.59375,0.20313 0.402344,0 0.628907,-0.21094 0.230468,-0.21484 0.230468,-0.56641 0,-0.85156 -0.9375,-0.85156 h -0.597656 z"/>
    <path id="path53977" style="font-weight:bold;font-size:8px;font-family:Roboto, sans-serif;letter-spacing:2px;fill:#333333" d="M 31.3125,159.82812 H 29.257812 L 28.867187,161 h -1.246093 l 2.117187,-5.6875 h 1.085938 L 32.953125,161 h -1.246094 z m -1.738281,-0.94921 h 1.421875 L 30.28125,156.75 Z"/>
  </g>
  <g style="font-weight:bold;font-size:8px;font-family:Roboto, sans-serif;letter-spacing:2px;fill:#333333" id="text53745" aria-label="4A">
    <path id="path53970" style="font-weight:bold;font-size:8px;font-family:Roboto, sans-serif;letter-spacing:2px;fill:#333333" d="m 24.726562,214.85937 h 0.644532 v 0.91016 H 24.726562 V 217 h -1.128906 v -1.23047 h -2.332031 l -0.05078,-0.71094 2.371093,-3.74609 h 1.140625 z m -2.386718,0 h 1.257812 v -2.00781 l -0.07422,0.12891 z"/>
    <path id="path53972" style="font-weight:bold;font-size:8px;font-family:Roboto, sans-serif;letter-spacing:2px;fill:#333333" d="M 31.3125,215.82812 H 29.257812 L 28.867187,217 h -1.246093 l 2.117187,-5.6875 h 1.085938 L 32.953125,217 h -1.246094 z m -1.738281,-0.94921 h 1.421875 L 30.28125,212.75 Z"/>
  </g>
  <g style="font-weight:bold;font-size:8px;font-family:Roboto, sans-serif;letter-spacing:2px;fill:#333333" id="text53749" aria-label="1B">
    <path id="path53965" style="font-weight:bold;font-size:8px;font-family:Roboto, sans-serif;letter-spacing:2px;fill:#333333" d="M 56.128906,48.5 H 55 v -4.351563 l -1.347656,0.417969 v -0.917969 l 2.355468,-0.84375 h 0.121094 z"/>
    <path id="path53967" style="font-weight:bold;font-size:8px;font-family:Roboto, sans-serif;letter-spacing:2px;fill:#333333" d="m 60.101562,48.5 v -5.6875 h 1.992188 q 1.035156,0 1.570312,0.398437 0.535157,0.394532 0.535157,1.160157 0,0.417968 -0.214844,0.738281 -0.214844,0.316406 -0.597656,0.464844 0.4375,0.109375 0.6875,0.441406 0.253906,0.332031 0.253906,0.8125 0,0.820312 -0.523438,1.242187 Q 63.28125,48.492187 62.3125,48.5 Z m 1.171875,-2.476563 v 1.535157 h 1.003907 q 0.414062,0 0.644531,-0.195313 0.234375,-0.199219 0.234375,-0.546875 0,-0.78125 -0.808594,-0.792969 z m 0,-0.828125 h 0.867188 q 0.886719,-0.01563 0.886719,-0.707031 0,-0.386719 -0.226563,-0.554687 -0.222656,-0.171875 -0.707031,-0.171875 h -0.820313 z"/>
  </g>
  <g style="font-weight:bold;font-size:8px;font-family:Roboto, sans-serif;letter-spacing:2px;fill:#333333" id="text53753" aria-label="2B">
    <path id="path53960" style="font-weight:bold;font-size:8px;font-family:Roboto, sans-serif;letter-spacing:2px;fill:#333333" d="m 57.285156,105 h -3.898437 v -0.77344 l 1.839843,-1.96093 q 0.378907,-0.41407 0.558594,-0.72266 0.183594,-0.30859 0.183594,-0.58594 0,-0.3789 -0.191406,-0.59375 -0.191407,-0.21875 -0.546875,-0.21875 -0.382813,0 -0.605469,0.26563 -0.21875,0.26172 -0.21875,0.6914 h -1.132813 q 0,-0.51953 0.246094,-0.94922 0.25,-0.429684 0.703125,-0.671871 0.453125,-0.246094 1.027344,-0.246094 0.878906,0 1.363281,0.421875 0.488281,0.42188 0.488281,1.19141 0,0.42187 -0.21875,0.85937 -0.21875,0.4375 -0.75,1.01953 l -1.292968,1.36328 h 2.445312 z"/>
    <path id="path53962" style="font-weight:bold;font-size:8px;font-family:Roboto, sans-serif;letter-spacing:2px;fill:#333333" d="m 60.101562,105 v -5.6875 h 1.992188 q 1.035156,0 1.570312,0.398437 0.535157,0.394533 0.535157,1.160153 0,0.41797 -0.214844,0.73829 -0.214844,0.3164 -0.597656,0.46484 0.4375,0.10937 0.6875,0.44141 0.253906,0.33203 0.253906,0.8125 0,0.82031 -0.523438,1.24218 Q 63.28125,104.99219 62.3125,105 Z m 1.171875,-2.47656 v 1.53515 h 1.003907 q 0.414062,0 0.644531,-0.19531 0.234375,-0.19922 0.234375,-0.54687 0,-0.78125 -0.808594,-0.79297 z m 0,-0.82813 h 0.867188 q 0.886719,-0.0156 0.886719,-0.70703 0,-0.38672 -0.226563,-0.55469 -0.222656,-0.17187 -0.707031,-0.17187 h -0.820313 z"/>
  </g>
  <g style="font-weight:bold;font-size:8px;font-family:Roboto, sans-serif;letter-spacing:2px;fill:#333333" id="text53757" aria-label="3B">
    <path id="path53955" style="font-weight:bold;font-size:8px;font-family:Roboto, sans-serif;letter-spacing:2px;fill:#333333" d="m 54.535156,157.65625 h 0.601563 q 0.429687,0 0.636718,-0.21484 0.207032,-0.21485 0.207032,-0.57032 0,-0.34375 -0.207032,-0.53515 -0.203125,-0.19141 -0.5625,-0.19141 -0.324218,0 -0.542968,0.17969 -0.21875,0.17578 -0.21875,0.46094 h -1.128907 q 0,-0.44532 0.238282,-0.79688 0.242187,-0.35547 0.671875,-0.55469 0.433593,-0.19922 0.953125,-0.19922 0.902343,0 1.414062,0.4336 0.511719,0.42969 0.511719,1.1875 0,0.39062 -0.238281,0.71875 -0.238282,0.32812 -0.625,0.5039 0.480468,0.17188 0.714843,0.51563 0.238282,0.34375 0.238282,0.8125 0,0.75781 -0.554688,1.21484 -0.550781,0.45703 -1.460937,0.45703 -0.851563,0 -1.394532,-0.44921 Q 53.25,160.17969 53.25,159.44141 h 1.128906 q 0,0.32031 0.238281,0.52343 0.242188,0.20313 0.59375,0.20313 0.402344,0 0.628907,-0.21094 0.230468,-0.21484 0.230468,-0.56641 0,-0.85156 -0.9375,-0.85156 h -0.597656 z"/>
    <path id="path53957" style="font-weight:bold;font-size:8px;font-family:Roboto, sans-serif;letter-spacing:2px;fill:#333333" d="m 60.101562,161 v -5.6875 h 1.992188 q 1.035156,0 1.570312,0.39844 0.535157,0.39453 0.535157,1.16015 0,0.41797 -0.214844,0.73828 -0.214844,0.31641 -0.597656,0.46485 0.4375,0.10937 0.6875,0.4414 0.253906,0.33204 0.253906,0.8125 0,0.82032 -0.523438,1.24219 Q 63.28125,160.99219 62.3125,161 Z m 1.171875,-2.47656 v 1.53515 h 1.003907 q 0.414062,0 0.644531,-0.19531 0.234375,-0.19922 0.234375,-0.54687 0,-0.78125 -0.808594,-0.79297 z m 0,-0.82813 h 0.867188 q 0.886719,-0.0156 0.886719,-0.70703 0,-0.38672 -0.226563,-0.55469 -0.222656,-0.17187 -0.707031,-0.17187 h -0.820313 z"/>
  </g>
  <g style="font-weight:bold;font-size:8px;font-family:Roboto, sans-serif;letter-spacing:2px;fill:#333333" id="text53761" aria-label="4B">
    <path id="path53950" style="font-weight:bold;font-size:8px;font-family:Roboto, sans-serif;letter-spacing:2px;fill:#333333" d="m 56.726562,214.85937 h 0.644532 v 0.91016 H 56.726562 V 217 h -1.128906 v -1.23047 h -2.332031 l -0.05078,-0.71094 2.371093,-3.74609 h 1.140625 z m -2.386718,0 h 1.257812 v -2.00781 l -0.07422,0.12891 z"/>
    <path id="path53952" style="font-weight:bold;font-size:8px;font-family:Roboto, sans-serif;letter-spacing:2px;fill:#333333" d="m 60.101562,217 v -5.6875 h 1.992188 q 1.035156,0 1.570312,0.39844 0.535157,0.39453 0.535157,1.16015 0,0.41797 -0.214844,0.73828 -0.214844,0.31641 -0.597656,0.46485 0.4375,0.10937 0.6875,0.4414 0.253906,0.33204 0.253906,0.8125 0,0.82032 -0.523438,1.24219 Q 63.28125,216.99219 62.3125,217 Z m 1.171875,-2.47656 v 1.53515 h 1.003907 q 0.414062,0 0.644531,-0.19531 0.234375,-0.19922 0.234375,-0.54687 0,-0.78125 -0.808594,-0.79297 z m 0,-0.82813 h 0.867188 q 0.886719,-0.0156 0.886719,-0.70703 0,-0.38672 -0.226563,-0.55469 -0.222656,-0.17187 -0.707031,-0.17187 h -0.820313 z"/>
  </g>
  <g style="font-weight:bold;font-size:8px;font-family:Roboto, sans-serif;letter-spacing:2px;fill:#333333" id="text53765" aria-label="1C">
    <path id="path53945" style="font-weight:bold;font-size:8px;font-family:Roboto, sans-serif;letter-spacing:2px;fill:#333333" d="M 88.128906,48.5 H 87 v -4.351563 l -1.347656,0.417969 v -0.917969 l 2.355468,-0.84375 h 0.121094 z"/>
    <path id="path53947" style="font-weight:bold;font-size:8px;font-family:Roboto, sans-serif;letter-spacing:2px;fill:#333333" d="m 96.566406,46.605469 q -0.06641,0.917968 -0.679687,1.445312 -0.609375,0.527344 -1.609375,0.527344 -1.09375,0 -1.722657,-0.734375 -0.625,-0.738281 -0.625,-2.023438 v -0.347656 q 0,-0.820312 0.289063,-1.445312 0.289062,-0.625 0.824219,-0.957032 0.539062,-0.335937 1.25,-0.335937 0.984375,0 1.585937,0.527344 0.601563,0.527343 0.695313,1.480468 h -1.171875 q -0.04297,-0.550781 -0.308594,-0.796875 -0.261719,-0.25 -0.800781,-0.25 -0.585938,0 -0.878907,0.421875 -0.289062,0.417969 -0.296875,1.300782 v 0.429687 q 0,0.921875 0.277344,1.347656 0.28125,0.425782 0.882813,0.425782 0.542968,0 0.808593,-0.246094 0.269532,-0.25 0.308594,-0.769531 z"/>
  </g>
  <g style="font-weight:bold;font-size:8px;font-family:Roboto, sans-serif;letter-spacing:2px;fill:#333333" id="text53769" aria-label="2C">
    <path id="path53940" style="font-weight:bold;font-size:8px;font-family:Roboto, sans-serif;letter-spacing:2px;fill:#333333" d="m 89.285156,105 h -3.898437 v -0.77344 l 1.839843,-1.96093 q 0.378907,-0.41407 0.558594,-0.72266 0.183594,-0.30859 0.183594,-0.58594 0,-0.3789 -0.191406,-0.59375 -0.191407,-0.21875 -0.546875,-0.21875 -0.382813,0 -0.605469,0.26563 -0.21875,0.26172 -0.21875,0.6914 h -1.132813 q 0,-0.51953 0.246094,-0.94922 0.25,-0.429684 0.703125,-0.671871 0.453125,-0.246094 1.027344,-0.246094 0.878906,0 1.363281,0.421875 0.488281,0.42188 0.488281,1.19141 0,0.42187 -0.21875,0.85937 -0.21875,0.4375 -0.75,1.01953 l -1.292968,1.36328 h 2.445312 z"/>
    <path id="path53942" style="font-weight:bold;font-size:8px;font-family:Roboto, sans-serif;letter-spacing:2px;fill:#333333" d="m 96.566406,103.10547 q -0.06641,0.91797 -0.679687,1.44531 -0.609375,0.52735 -1.609375,0.52735 -1.09375,0 -1.722657,-0.73438 -0.625,-0.73828 -0.625,-2.02344 v -0.34765 q 0,-0.82032 0.289063,-1.44532 0.289062,-0.624996 0.824219,-0.957028 0.539062,-0.335937 1.25,-0.335937 0.984375,0 1.585937,0.527344 0.601563,0.527341 0.695313,1.480471 h -1.171875 q -0.04297,-0.55078 -0.308594,-0.79688 -0.261719,-0.25 -0.800781,-0.25 -0.585938,0 -0.878907,0.42188 -0.289062,0.41797 -0.296875,1.30078 v 0.42969 q 0,0.92187 0.277344,1.34765 0.28125,0.42578 0.882813,0.42578 0.542968,0 0.808593,-0.24609 0.269532,-0.25 0.308594,-0.76953 z"/>
  </g>
  <g style="font-weight:bold;font-size:8px;font-family:Roboto, sans-serif;letter-spacing:2px;fill:#333333" id="text53773" aria-label="3C">
    <path id="path53935" style="font-weight:bold;font-size:8px;font-family:Roboto, sans-serif;letter-spacing:2px;fill:#333333" d="m 86.535156,157.65625 h 0.601563 q 0.429687,0 0.636718,-0.21484 0.207032,-0.21485 0.207032,-0.57032 0,-0.34375 -0.207032,-0.53515 -0.203125,-0.19141 -0.5625,-0.19141 -0.324218,0 -0.542968,0.17969 -0.21875,0.17578 -0.21875,0.46094 h -1.128907 q 0,-0.44532 0.238282,-0.79688 0.242187,-0.35547 0.671875,-0.55469 0.433593,-0.19922 0.953125,-0.19922 0.902343,0 1.414062,0.4336 0.511719,0.42969 0.511719,1.1875 0,0.39062 -0.238281,0.71875 -0.238282,0.32812 -0.625,0.5039 0.480468,0.17188 0.714843,0.51563 0.238282,0.34375 0.238282,0.8125 0,0.75781 -0.554688,1.21484 -0.550781,0.45703 -1.460937,0.45703 -0.851563,0 -1.394532,-0.44921 Q 85.25,160.17969 85.25,159.44141 h 1.128906 q 0,0.32031 0.238281,0.52343 0.242188,0.20313 0.59375,0.20313 0.402344,0 0.628907,-0.21094 0.230468,-0.21484 0.230468,-0.56641 0,-0.85156 -0.9375,-0.85156 h -0.597656 z"/>
    <path id="path53937" style="font-weight:bold;font-size:8px;font-family:Roboto, sans-serif;letter-spacing:2px;fill:#333333" d="m 96.566406,159.10547 q -0.06641,0.91797 -0.679687,1.44531 -0.609375,0.52734 -1.609375,0.52734 -1.09375,0 -1.722657,-0.73437 -0.625,-0.73828 -0.625,-2.02344 v -0.34765 q 0,-0.82032 0.289063,-1.44532 0.289062,-0.625 0.824219,-0.95703 0.539062,-0.33594 1.25,-0.33594 0.984375,0 1.585937,0.52735 0.601563,0.52734 0.695313,1.48047 h -1.171875 q -0.04297,-0.55078 -0.308594,-0.79688 -0.261719,-0.25 -0.800781,-0.25 -0.585938,0 -0.878907,0.42188 -0.289062,0.41797 -0.296875,1.30078 v 0.42969 q 0,0.92187 0.277344,1.34765 0.28125,0.42578 0.882813,0.42578 0.542968,0 0.808593,-0.24609 0.269532,-0.25 0.308594,-0.76953 z"/>
  </g>
  <g style="font-weight:bold;font-size:8px;font-family:Roboto, sans-serif;letter-spacing:2px;fill:#333333" id="text53777" aria-label="4C">
    <path id="path53930" style="font-weight:bold;font-size:8px;font-family:Roboto, sans-serif;letter-spacing:2px;fill:#333333" d="m 88.726562,214.85937 h 0.644532 v 0.91016 H 88.726562 V 217 h -1.128906 v -1.23047 h -2.332031 l -0.05078,-0.71094 2.371093,-3.74609 h 1.140625 z m -2.386718,0 h 1.257812 v -2.00781 l -0.07422,0.12891 z"/>
    <path id="path53932" style="font-weight:bold;font-size:8px;font-family:Roboto, sans-serif;letter-spacing:2px;fill:#333333" d="m 96.566406,215.10547 q -0.06641,0.91797 -0.679687,1.44531 -0.609375,0.52734 -1.609375,0.52734 -1.09375,0 -1.722657,-0.73437 -0.625,-0.73828 -0.625,-2.02344 v -0.34765 q 0,-0.82032 0.289063,-1.44532 0.289062,-0.625 0.824219,-0.95703 0.539062,-0.33594 1.25,-0.33594 0.984375,0 1.585937,0.52735 0.601563,0.52734 0.695313,1.48047 h -1.171875 q -0.04297,-0.55078 -0.308594,-0.79688 -0.261719,-0.25 -0.800781,-0.25 -0.585938,0 -0.878907,0.42188 -0.289062,0.41797 -0.296875,1.30078 v 0.42969 q 0,0.92187 0.277344,1.34765 0.28125,0.42578 0.882813,0.42578 0.542968,0 0.808593,-0.24609 0.269532,-0.25 0.308594,-0.76953 z"/>
  </g>
  <g style="font-weight:bold;font-size:8px;font-family:Roboto, sans-serif;letter-spacing:2px;fill:#333333" id="text53781" aria-label="1D">
    <path id="path53925" style="font-weight:bold;font-size:8px;font-family:Roboto, sans-serif;letter-spacing:2px;fill:#333333" d="M 120.12891,48.5 H 119 v -4.351563 l -1.34766,0.417969 v -0.917969 l 2.35547,-0.84375 h 0.1211 z"/>
    <path id="path53927" style="font-weight:bold;font-size:8px;font-family:Roboto, sans-serif;letter-spacing:2px;fill:#333333" d="m 124.10156,48.5 v -5.6875 h 1.75 q 0.75,0 1.33985,0.339844 0.59375,0.335937 0.92578,0.960937 0.33203,0.621094 0.33203,1.414063 v 0.261718 q 0,0.792969 -0.32813,1.410157 -0.32421,0.617187 -0.91796,0.957031 -0.59375,0.339844 -1.33985,0.34375 z m 1.17188,-4.738281 v 3.796875 h 0.5664 q 0.6875,0 1.05079,-0.449219 0.36328,-0.449219 0.37109,-1.285156 v -0.300782 q 0,-0.867187 -0.35938,-1.3125 -0.35937,-0.449218 -1.05078,-0.449218 z"/>
  </g>
  <g style="font-weight:bold;font-size:8px;font-family:Roboto, sans-serif;letter-spacing:2px;fill:#333333" id="text53785" aria-label="2D">
    <path id="path53920" style="font-weight:bold;font-size:8px;font-family:Roboto, sans-serif;letter-spacing:2px;fill:#333333" d="m 121.28516,105 h -3.89844 v -0.77344 l 1.83984,-1.96093 q 0.37891,-0.41407 0.5586,-0.72266 0.18359,-0.30859 0.18359,-0.58594 0,-0.3789 -0.19141,-0.59375 -0.1914,-0.21875 -0.54687,-0.21875 -0.38281,0 -0.60547,0.26563 -0.21875,0.26172 -0.21875,0.6914 h -1.13281 q 0,-0.51953 0.24609,-0.94922 0.25,-0.429684 0.70313,-0.671871 0.45312,-0.246094 1.02734,-0.246094 0.87891,0 1.36328,0.421875 0.48828,0.42188 0.48828,1.19141 0,0.42187 -0.21875,0.85937 -0.21875,0.4375 -0.75,1.01953 l -1.29297,1.36328 h 2.44532 z"/>
    <path id="path53922" style="font-weight:bold;font-size:8px;font-family:Roboto, sans-serif;letter-spacing:2px;fill:#333333" d="m 124.10156,105 v -5.6875 h 1.75 q 0.75,0 1.33985,0.339844 0.59375,0.335937 0.92578,0.960936 0.33203,0.6211 0.33203,1.41406 v 0.26172 q 0,0.79297 -0.32813,1.41016 -0.32421,0.61719 -0.91796,0.95703 -0.59375,0.33984 -1.33985,0.34375 z m 1.17188,-4.73828 v 3.79687 h 0.5664 q 0.6875,0 1.05079,-0.44921 0.36328,-0.44922 0.37109,-1.28516 v -0.30078 q 0,-0.86719 -0.35938,-1.3125 -0.35937,-0.44922 -1.05078,-0.44922 z"/>
  </g>
  <g style="font-weight:bold;font-size:8px;font-family:Roboto, sans-serif;letter-spacing:2px;fill:#333333" id="text53789" aria-label="3D">
    <path id="path53915" style="font-weight:bold;font-size:8px;font-family:Roboto, sans-serif;letter-spacing:2px;fill:#333333" d="m 118.53516,157.65625 h 0.60156 q 0.42969,0 0.63672,-0.21484 0.20703,-0.21485 0.20703,-0.57032 0,-0.34375 -0.20703,-0.53515 -0.20313,-0.19141 -0.5625,-0.19141 -0.32422,0 -0.54297,0.17969 -0.21875,0.17578 -0.21875,0.46094 h -1.12891 q 0,-0.44532 0.23828,-0.79688 0.24219,-0.35547 0.67188,-0.55469 0.43359,-0.19922 0.95312,-0.19922 0.90235,0 1.41407,0.4336 0.51172,0.42969 0.51172,1.1875 0,0.39062 -0.23829,0.71875 -0.23828,0.32812 -0.625,0.5039 0.48047,0.17188 0.71485,0.51563 0.23828,0.34375 0.23828,0.8125 0,0.75781 -0.55469,1.21484 -0.55078,0.45703 -1.46094,0.45703 -0.85156,0 -1.39453,-0.44921 -0.53906,-0.44922 -0.53906,-1.1875 h 1.12891 q 0,0.32031 0.23828,0.52343 0.24219,0.20313 0.59375,0.20313 0.40234,0 0.6289,-0.21094 0.23047,-0.21484 0.23047,-0.56641 0,-0.85156 -0.9375,-0.85156 h -0.59765 z"/>
    <path id="path53917" style="font-weight:bold;font-size:8px;font-family:Roboto, sans-serif;letter-spacing:2px;fill:#333333" d="m 124.10156,161 v -5.6875 h 1.75 q 0.75,0 1.33985,0.33984 0.59375,0.33594 0.92578,0.96094 0.33203,0.62109 0.33203,1.41406 v 0.26172 q 0,0.79297 -0.32813,1.41016 -0.32421,0.61719 -0.91796,0.95703 -0.59375,0.33984 -1.33985,0.34375 z m 1.17188,-4.73828 v 3.79687 h 0.5664 q 0.6875,0 1.05079,-0.44922 0.36328,-0.44921 0.37109,-1.28515 v -0.30078 q 0,-0.86719 -0.35938,-1.3125 -0.35937,-0.44922 -1.05078,-0.44922 z"/>
  </g>
  <g style="font-weight:bold;font-size:8px;font-family:Roboto, sans-serif;letter-spacing:2px;fill:#333333" id="text53793" aria-label="4D">
    <path id="path53910" style="font-weight:bold;font-size:8px;font-family:Roboto, sans-serif;letter-spacing:2px;fill:#333333" d="m 120.72656,214.85937 h 0.64453 v 0.91016 h -0.64453 V 217 h -1.1289 v -1.23047 h -2.33203 l -0.0508,-0.71094 2.3711,-3.74609 h 1.14062 z m -2.38672,0 h 1.25782 v -2.00781 l -0.0742,0.12891 z"/>
    <path id="path53912" style="font-weight:bold;font-size:8px;font-family:Roboto, sans-serif;letter-spacing:2px;fill:#333333" d="m 124.10156,217 v -5.6875 h 1.75 q 0.75,0 1.33985,0.33984 0.59375,0.33594 0.92578,0.96094 0.33203,0.62109 0.33203,1.41406 v 0.26172 q 0,0.79297 -0.32813,1.41016 -0.32421,0.61719 -0.91796,0.95703 -0.59375,0.33984 -1.33985,0.34375 z m 1.17188,-4.73828 v 3.79687 h 0.5664 q 0.6875,0 1.05079,-0.44922 0.36328,-0.44921 0.37109,-1.28515 v -0.30078 q 0,-0.86719 -0.35938,-1.3125 -0.35937,-0.44922 -1.05078,-0.44922 z"/>
  </g>
  <path d="m 15,269 h 120 c 2.77,0 5,2.23 5,5 v 81 c 0,2.77 -2.23,5 -5,5 H 15 c -2.77,0 -5,-2.23 -5,-5 v -81 c 0,-2.77 2.23,-5 5,-5 z" style="fill:#bbbbbb" id="rect53797"/>
  <path d="m 15,269 h 120 c 2.77,0 5,2.23 5,5 v 34 c 0,2.77 -2.23,5 -5,5 H 15 c -2.77,0 -5,-2.23 -5,-5 v -34 c 0,-2.77 2.23,-5 5,-5 z" style="fill:#fafafa" id="rect53799"/>
  <path d="m 10,303 h 130 v 10 H 10 Z" style="fill:#fafafa" id="rect53801"/>
  <g transform="translate(12,269)" id="g53805">
    <g style="font-weight:bold;font-size:8px;font-family:Roboto, sans-serif;letter-spacing:1px;fill:#333333" id="text53803" transform="translate(12.5,40)" aria-label="1">
      <path id="path53904" style="font-weight:bold;font-size:8px;font-family:Roboto, sans-serif;letter-spacing:1px;fill:#333333" d="M 3.1289063,0 H 2 v -4.3515625 l -1.34765625,0.4179687 v -0.9179687 l 2.35546875,-0.84375 h 0.1210938 z"/>
    </g>
  </g>
  <g transform="translate(44,269)" id="g53809">
    <g style="font-weight:bold;font-size:8px;font-family:Roboto, sans-serif;letter-spacing:1px;fill:#333333" id="text53807" transform="translate(12.5,40)" aria-label="2">
      <path id="path53901" style="font-weight:bold;font-size:8px;font-family:Roboto, sans-serif;letter-spacing:1px;fill:#333333" d="M 4.2851562,0 H 0.38671875 V -0.7734375 L 2.2265625,-2.734375 Q 2.6054688,-3.1484375 2.7851563,-3.4570313 2.96875,-3.765625 2.96875,-4.0429687 q 0,-0.3789063 -0.1914062,-0.59375 -0.1914063,-0.21875 -0.546875,-0.21875 -0.3828126,0 -0.6054688,0.265625 -0.21875,0.2617187 -0.21875,0.6914062 H 0.2734375 q 0,-0.5195312 0.24609375,-0.9492187 0.25,-0.4296875 0.70312495,-0.671875 Q 1.6757812,-5.765625 2.25,-5.765625 q 0.8789063,0 1.3632813,0.421875 0.4882812,0.421875 0.4882812,1.1914063 0,0.4218749 -0.21875,0.8593749 -0.21875,0.4375 -0.75,1.0195313 l -1.2929688,1.36328125 h 2.4453125 z"/>
    </g>
  </g>
  <g transform="translate(76,269)" id="g53813">
    <g style="font-weight:bold;font-size:8px;font-family:Roboto, sans-serif;letter-spacing:1px;fill:#333333" id="text53811" transform="translate(12.5,40)" aria-label="3">
      <path id="path53898" style="font-weight:bold;font-size:8px;font-family:Roboto, sans-serif;letter-spacing:1px;fill:#333333" d="m 1.5351562,-3.34375 h 0.6015626 q 0.4296875,0 0.6367187,-0.2148438 0.2070313,-0.2148437 0.2070313,-0.5703124 0,-0.34375 -0.2070313,-0.5351563 -0.203125,-0.1914062 -0.5625,-0.1914062 -0.3242188,0 -0.5429688,0.1796875 Q 1.4492187,-4.5 1.4492187,-4.2148437 H 0.3203125 q 0,-0.4453125 0.23828125,-0.796875 0.2421875,-0.3554688 0.67187495,-0.5546875 0.4335938,-0.1992188 0.9531251,-0.1992188 0.9023437,0 1.4140625,0.4335938 0.5117187,0.4296875 0.5117187,1.1875 0,0.3906249 -0.2382812,0.7187499 -0.2382813,0.328125 -0.625,0.5039063 0.4804687,0.171875 0.7148437,0.515625 0.2382812,0.34375 0.2382812,0.8125 0,0.7578125 -0.5546874,1.21484375 Q 3.09375,0.078125 2.1835938,0.078125 q -0.8515626,0 -1.3945313,-0.44921875 Q 0.25,-0.8203125 0.25,-1.5585937 h 1.1289062 q 0,0.3203125 0.2382813,0.5234375 0.2421875,0.20312495 0.59375,0.20312495 0.4023438,0 0.6289063,-0.21093745 0.2304687,-0.2148438 0.2304687,-0.5664063 0,-0.8515625 -0.9375,-0.8515625 H 1.5351562 Z"/>
    </g>
  </g>
  <g transform="translate(108,269)" id="g53817">
    <g style="font-weight:bold;font-size:8px;font-family:Roboto, sans-serif;letter-spacing:1px;fill:#333333" id="text53815" transform="translate(12.4,40)" aria-label="4">
      <path id="path53895" style="font-weight:bold;font-size:8px;font-family:Roboto, sans-serif;letter-spacing:1px;fill:#333333" d="m 3.7265625,-2.140625 h 0.6445312 v 0.9101563 H 3.7265625 V 0 H 2.5976563 V -1.2304687 H 0.265625 L 0.21484375,-1.9414062 2.5859375,-5.6875 h 1.140625 z m -2.3867188,0 h 1.2578126 v -2.0078125 l -0.074219,0.1289063 z"/>
    </g>
  </g>
  <g transform="translate(10,313)" id="g53835">
    <g transform="translate(2)" id="g53821">
      <g style="font-weight:bold;font-size:8px;font-family:Roboto, sans-serif;letter-spacing:1px;fill:#333333" id="text53819" transform="translate(12.2,40)" aria-label="A">
        <path id="path53883" style="font-weight:bold;font-size:8px;font-family:Roboto, sans-serif;letter-spacing:1px;fill:#333333" d="M 3.71875,-1.171875 H 1.6640625 L 1.2734375,0 H 0.02734375 L 2.1445313,-5.6875 H 3.2304688 L 5.359375,0 H 4.1132812 Z M 1.9804687,-2.1210938 H 3.4023438 L 2.6875,-4.25 Z"/>
      </g>
    </g>
    <g transform="translate(34)" id="g53825">
      <g style="font-weight:bold;font-size:8px;font-family:Roboto, sans-serif;letter-spacing:1px;fill:#333333" id="text53823" transform="translate(12.5,40)" aria-label="B">
        <path id="path53886" style="font-weight:bold;font-size:8px;font-family:Roboto, sans-serif;letter-spacing:1px;fill:#333333" d="M 0.5078125,0 V -5.6875 H 2.5 q 1.0351563,0 1.5703125,0.3984375 0.5351562,0.3945313 0.5351562,1.1601563 0,0.4179687 -0.2148437,0.7382812 -0.2148438,0.3164062 -0.5976562,0.4648437 0.4374999,0.109375 0.6874999,0.4414063 0.2539063,0.3320312 0.2539063,0.8125 0,0.8203125 -0.5234375,1.2421875 Q 3.6875,-0.0078125 2.71875,0 Z m 1.171875,-2.4765625 v 1.53515625 h 1.0039063 q 0.4140625,0 0.6445312,-0.19531245 0.234375,-0.1992188 0.234375,-0.546875 0,-0.7812501 -0.8085937,-0.7929688 z m 0,-0.828125 H 2.546875 q 0.8867188,-0.015625 0.8867188,-0.7070312 0,-0.3867188 -0.2265625,-0.5546875 Q 2.984375,-4.7382812 2.5,-4.7382812 H 1.6796875 Z"/>
      </g>
    </g>
    <g transform="translate(66)" id="g53829">
      <g style="font-weight:bold;font-size:8px;font-family:Roboto, sans-serif;letter-spacing:1px;fill:#333333" id="text53827" transform="translate(12.3,40)" aria-label="C">
        <path id="path53889" style="font-weight:bold;font-size:8px;font-family:Roboto, sans-serif;letter-spacing:1px;fill:#333333" d="M 4.9726562,-1.8945312 Q 4.90625,-0.9765625 4.2929687,-0.44921875 3.6835938,0.078125 2.6835938,0.078125 q -1.0937501,0 -1.7226563,-0.734375 -0.625,-0.7382812 -0.625,-2.0234375 v -0.3476563 q 0,-0.8203125 0.2890625,-1.4453124 0.2890625,-0.625 0.8242187,-0.9570313 0.5390625,-0.3359375 1.2500001,-0.3359375 0.984375,0 1.5859374,0.5273438 0.6015625,0.5273437 0.6953125,1.4804687 H 3.8085938 Q 3.765625,-4.3085937 3.5,-4.5546875 q -0.2617187,-0.25 -0.8007812,-0.25 -0.5859375,0 -0.8789063,0.421875 -0.2890625,0.4179687 -0.296875,1.3007812 v 0.4296875 q 0,0.9218751 0.2773437,1.3476563 0.2812501,0.42578125 0.8828126,0.42578125 0.5429687,0 0.8085937,-0.24609375 0.2695313,-0.25 0.3085938,-0.7695312 z"/>
      </g>
    </g>
    <g transform="translate(98)" id="g53833">
      <g style="font-weight:bold;font-size:8px;font-family:Roboto, sans-serif;letter-spacing:1px;fill:#333333" id="text53831" transform="translate(12.3,40)" aria-label="D">
        <path id="path53892" style="font-weight:bold;font-size:8px;font-family:Roboto, sans-serif;letter-spacing:1px;fill:#333333" d="m 0.5078125,0 v -5.6875 h 1.75 q 0.75,0 1.3398438,0.3398438 0.5937499,0.3359375 0.9257812,0.9609375 0.3320312,0.6210937 0.3320312,1.4140624 v 0.2617188 q 0,0.7929688 -0.328125,1.4101563 Q 4.203125,-0.68359375 3.609375,-0.34375 3.015625,-0.00390625 2.2695313,0 Z m 1.171875,-4.7382812 v 3.79687495 h 0.5664063 q 0.6875,0 1.0507812,-0.44921875 0.3632813,-0.4492187 0.3710938,-1.2851563 v -0.3007812 q 0,-0.8671875 -0.359375,-1.3125 -0.359375,-0.4492187 -1.0507813,-0.4492187 z"/>
      </g>
    </g>
  </g>
  <!-- <polyline points="0,0 0,380" stroke-width="1" stroke="#0f0" transform="translate(27 0)" /> -->
  <!-- <polyline points="0,0 0,380" stroke-width="1" stroke="#0f0" transform="translate(59 0)" /> -->
  <!-- <polyline points="0,0 0,380" stroke-width="1" stroke="#0f0" transform="translate(91 0)" /> -->
  <!-- <polyline points="0,0 0,380" stroke-width="1" stroke="#0f0" transform="translate(123 0)" /> -->
</svg>
