<?xml version="1.0" encoding="UTF-8" standalone="no"?>
<svg
   xmlns:dc="http://purl.org/dc/elements/1.1/"
   xmlns:cc="http://creativecommons.org/ns#"
   xmlns:rdf="http://www.w3.org/1999/02/22-rdf-syntax-ns#"
   xmlns:svg="http://www.w3.org/2000/svg"
   xmlns="http://www.w3.org/2000/svg"
   xmlns:sodipodi="http://sodipodi.sourceforge.net/DTD/sodipodi-0.dtd"
   xmlns:inkscape="http://www.inkscape.org/namespaces/inkscape"
   version="1.1"
   width="330"
   height="380"
   viewBox="0 0 330 380"
   id="svg185"
   sodipodi:docname="svg_render_tmp.svg"
   inkscape:version="0.92.2 5c3e80d, 2017-08-06">
  <metadata
     id="metadata189">
    <rdf:RDF>
      <cc:Work
         rdf:about="">
        <dc:format>image/svg+xml</dc:format>
        <dc:type
           rdf:resource="http://purl.org/dc/dcmitype/StillImage" />
      </cc:Work>
    </rdf:RDF>
  </metadata>
  <sodipodi:namedview
     pagecolor="#ffffff"
     bordercolor="#666666"
     borderopacity="1"
     objecttolerance="10"
     gridtolerance="10"
     guidetolerance="10"
     inkscape:pageopacity="0"
     inkscape:pageshadow="2"
     inkscape:window-width="468"
     inkscape:window-height="449"
     id="namedview187"
     showgrid="false"
     inkscape:zoom="0.62105263"
     inkscape:cx="165"
     inkscape:cy="190"
     inkscape:window-x="0"
     inkscape:window-y="0"
     inkscape:window-maximized="0"
     inkscape:current-layer="svg185" />
  <style
     id="style2">
    text {
      fill: #333;
      font-family: 'Roboto', sans-serif;
      font-weight: bold;
    }
    text.title {
      font-family: 'Comfortaa', sans-serif;
      font-weight: normal;
    }
    text.brand {
      font-family: 'Audiowide', sans-serif;
      font-weight: bold;
    }
  </style>
  <defs
     id="defs31">
    <symbol
       id="button"
       viewBox="0 0 20px 20px">
      <g
         transform="translate(10 10)"
         id="g6">
        <circle
           cx="0"
           cy="0"
           r="8.8"
           stroke-width="1"
           stroke="#00f"
           fill="#f00"
           id="circle4" />
      </g>
    </symbol>
    <symbol
       id="input"
       viewBox="0 0 24px 24px">
      <g
         transform="translate(12 12)"
         id="g17">
        <circle
           cx="0"
           cy="0"
           r="5"
           stroke-width="1"
           stroke="#0f0"
           fill="#0f0"
           id="circle9" />
        <circle
           cx="0"
           cy="0"
           r="10.5"
           stroke-width="3"
           stroke="#0f0"
           fill="none"
           id="circle11" />
        <polyline
           points="-3,0 3,0"
           stroke-width="1"
           stroke="#00f"
           id="polyline13" />
        <polyline
           points="0,-3 0,3"
           stroke-width="1"
           stroke="#00f"
           id="polyline15" />
      </g>
    </symbol>
    <symbol
       id="output"
       viewBox="0 0 24px 24px">
      <g
         transform="translate(12 12)"
         id="g28">
        <circle
           cx="0"
           cy="0"
           r="5"
           stroke-width="1"
           stroke="#f00"
           fill="#f00"
           id="circle20" />
        <circle
           cx="0"
           cy="0"
           r="10.5"
           stroke-width="3"
           stroke="#f00"
           fill="none"
           id="circle22" />
        <polyline
           points="-3,0 3,0"
           stroke-width="1"
           stroke="#00f"
           id="polyline24" />
        <polyline
           points="0,-3 0,3"
           stroke-width="1"
           stroke="#00f"
           id="polyline26" />
      </g>
    </symbol>
  </defs>
  <path
     style="fill:#dddddd"
     d="M 0,0 H 330 V 380 H 0 Z"
     id="rect33" />
  <path
     style="fill:none;stroke:#e4e4e4;stroke-width:0.5"
     d="M 1,1 H 329 V 379 H 1 V 1"
     id="polyline35" />
  <path
     style="fill:none;stroke:#ebebeb;stroke-width:0.80000001"
     d="m 0.5,0.5 h 329 v 379 H 0.5 V 0.5"
     id="polyline37" />
  <path
     style="fill:none;stroke:#f2f2f2;stroke-width:1"
     d="M 0,0 H 330 V 380 H 0 V 0"
     id="polyline39" />
  <!-- <rect width="110" height="20" fill="#0f0" transform="translate(0 0)" /> -->
  <!-- <rect width="110" height="20" fill="#0f0" transform="translate(220 0)" /> -->
  <!-- <polyline points="0,0 0,380" stroke="#0f0" stroke-width="1" fill="none" transform="translate(10 0)" /> -->
  <g
     aria-label="SWITCH88"
     style="font-weight:normal;font-size:16px;font-family:Comfortaa, sans-serif;letter-spacing:4px;fill:#333333"
     id="text41">
    <path
       d="m 114.44,19.16 q -1.52,0 -2.704,-0.64 -1.168,-0.656 -1.68,-1.76 -0.064,-0.112 -0.064,-0.256 0,-0.224 0.16,-0.368 0.176,-0.16 0.464,-0.16 0.192,0 0.352,0.112 0.176,0.096 0.256,0.288 0.368,0.72 1.216,1.168 0.864,0.432 2,0.432 1.312,0 2.112,-0.624 0.8,-0.64 0.8,-1.776 0,-1.008 -0.752,-1.696 -0.736,-0.688 -2.224,-0.88 -1.856,-0.224 -2.928,-1.152 -1.056,-0.944 -1.056,-2.304 0,-0.96 0.512,-1.68 0.528,-0.736 1.44,-1.12 0.928,-0.4 2.096,-0.4 1.264,0 2.224,0.56 0.96,0.56 1.504,1.456 0.112,0.176 0.112,0.384 0,0.304 -0.288,0.48 -0.128,0.064 -0.288,0.064 -0.176,0 -0.336,-0.08 -0.144,-0.096 -0.24,-0.256 -0.896,-1.408 -2.704,-1.424 -1.296,0 -2.048,0.544 -0.752,0.544 -0.752,1.552 0,1.872 3.024,2.272 1.984,0.288 2.96,1.216 0.976,0.928 0.976,2.448 0,1.12 -0.544,1.936 -0.544,0.816 -1.488,1.248 -0.944,0.416 -2.112,0.416 z"
       style="font-weight:normal;font-size:16px;font-family:Comfortaa, sans-serif;letter-spacing:4px;fill:#333333"
       id="path199" />
    <path
       d="m 137.08075,6.504 q 0.256,0 0.4,0.176 0.144,0.16 0.144,0.416 0,0.128 -0.048,0.304 l -3.264,11.072 q -0.08,0.256 -0.256,0.4 -0.16,0.128 -0.384,0.128 -0.224,0 -0.4,-0.144 -0.16,-0.144 -0.224,-0.368 l -2.592,-9.456 -2.576,9.44 q -0.08,0.24 -0.256,0.384 -0.16,0.144 -0.384,0.144 -0.224,0 -0.4,-0.144 -0.16,-0.144 -0.224,-0.368 l -3.28,-11.088 q -0.048,-0.176 -0.048,-0.288 0,-0.272 0.16,-0.432 0.16,-0.176 0.416,-0.176 0.448,0 0.608,0.48 l 2.768,9.648 2.624,-9.376 q 0.048,-0.176 0.208,-0.288 0.176,-0.112 0.384,-0.112 0.208,0 0.368,0.112 0.16,0.112 0.224,0.304 l 2.64,9.376 2.784,-9.728 q 0.128,-0.416 0.608,-0.416 z"
       style="font-weight:normal;font-size:16px;font-family:Comfortaa, sans-serif;letter-spacing:4px;fill:#333333"
       id="path201" />
    <path
       d="m 144.19275,19 q -0.256,0 -0.448,-0.176 -0.176,-0.192 -0.176,-0.448 V 7.128 q 0,-0.272 0.176,-0.448 0.192,-0.176 0.448,-0.176 0.272,0 0.448,0.176 0.176,0.176 0.176,0.448 v 11.248 q 0,0.256 -0.176,0.448 -0.176,0.176 -0.448,0.176 z"
       style="font-weight:normal;font-size:16px;font-family:Comfortaa, sans-serif;letter-spacing:4px;fill:#333333"
       id="path203" />
    <path
       d="m 160.07025,6.504 q 0.256,0 0.416,0.16 0.16,0.16 0.16,0.416 0,0.24 -0.16,0.4 -0.16,0.16 -0.416,0.16 h -3.808 v 10.736 q 0,0.256 -0.176,0.448 -0.176,0.176 -0.448,0.176 -0.256,0 -0.448,-0.176 -0.176,-0.192 -0.176,-0.448 V 7.64 h -3.792 q -0.256,0 -0.416,-0.16 -0.16,-0.16 -0.16,-0.4 0,-0.256 0.16,-0.416 0.16,-0.16 0.416,-0.16 z"
       style="font-weight:normal;font-size:16px;font-family:Comfortaa, sans-serif;letter-spacing:4px;fill:#333333"
       id="path205" />
    <path
       d="m 171.2785,19.16 q -1.696,0 -3.12,-0.864 -1.424,-0.864 -2.272,-2.336 -0.832,-1.472 -0.832,-3.216 0,-1.728 0.832,-3.2 0.832,-1.472 2.256,-2.336 1.424,-0.864 3.136,-0.864 1.152,0 2.096,0.336 0.944,0.336 1.824,1.072 0.176,0.128 0.176,0.368 0,0.128 -0.064,0.24 -0.064,0.096 -0.176,0.144 -0.032,0.112 -0.144,0.176 -0.112,0.064 -0.24,0.064 -0.24,0 -0.4,-0.144 -0.624,-0.56 -1.36,-0.816 -0.736,-0.256 -1.712,-0.256 -1.344,0 -2.496,0.72 -1.152,0.704 -1.84,1.904 -0.672,1.2 -0.672,2.592 0,1.424 0.672,2.624 0.672,1.2 1.824,1.904 1.152,0.704 2.512,0.704 1.744,0 3.152,-1.12 0.176,-0.128 0.352,-0.128 0.24,0 0.416,0.176 0.176,0.16 0.176,0.432 0,0.256 -0.176,0.448 -1.504,1.376 -3.92,1.376 z"
       style="font-weight:normal;font-size:16px;font-family:Comfortaa, sans-serif;letter-spacing:4px;fill:#333333"
       id="path207" />
    <path
       d="m 182.63025,19 q -0.256,0 -0.448,-0.176 -0.176,-0.192 -0.176,-0.448 V 7.128 q 0,-0.272 0.176,-0.448 0.192,-0.176 0.448,-0.176 0.272,0 0.448,0.176 0.176,0.176 0.176,0.448 v 4.992 h 7.808 V 7.128 q 0,-0.272 0.176,-0.448 0.192,-0.176 0.448,-0.176 0.272,0 0.448,0.176 0.176,0.176 0.176,0.448 v 11.248 q 0,0.256 -0.176,0.448 -0.176,0.176 -0.448,0.176 -0.256,0 -0.448,-0.176 -0.176,-0.192 -0.176,-0.448 V 13.24 h -7.808 v 5.136 q 0,0.256 -0.176,0.448 -0.176,0.176 -0.448,0.176 z"
       style="font-weight:normal;font-size:16px;font-family:Comfortaa, sans-serif;letter-spacing:4px;fill:#333333"
       id="path209" />
    <path
       d="m 204.48225,11.992 q 0.88,0.464 1.392,1.312 0.512,0.832 0.512,1.888 0,1.088 -0.496,1.968 -0.48,0.88 -1.344,1.392 -0.848,0.512 -1.888,0.512 -1.056,0 -1.92,-0.496 -0.848,-0.512 -1.344,-1.376 -0.48,-0.88 -0.48,-1.952 0,-1.072 0.512,-1.92 0.528,-0.864 1.408,-1.328 -0.592,-0.416 -0.928,-1.056 -0.336,-0.656 -0.336,-1.44 0,-0.848 0.4,-1.536 0.416,-0.704 1.12,-1.088 0.72,-0.4 1.6,-0.4 0.864,0 1.552,0.4 0.704,0.384 1.088,1.072 0.4,0.672 0.4,1.52 0,0.784 -0.336,1.456 -0.336,0.656 -0.912,1.072 z m -3.728,-2.48 q 0,0.832 0.544,1.408 0.544,0.56 1.36,0.56 0.816,0 1.344,-0.576 0.544,-0.592 0.544,-1.456 0,-0.784 -0.544,-1.312 -0.544,-0.528 -1.344,-0.528 -0.816,0 -1.36,0.544 -0.544,0.544 -0.544,1.36 z m 4.384,5.696 q 0,-0.72 -0.336,-1.296 -0.32,-0.576 -0.896,-0.912 -0.56,-0.336 -1.248,-0.336 -0.704,0 -1.28,0.352 -0.576,0.336 -0.896,0.928 -0.32,0.592 -0.32,1.328 0,0.736 0.32,1.36 0.336,0.608 0.896,0.96 0.576,0.352 1.28,0.352 0.704,0 1.264,-0.352 0.576,-0.368 0.896,-0.992 0.32,-0.64 0.32,-1.392 z"
       style="font-weight:normal;font-size:16px;font-family:Comfortaa, sans-serif;letter-spacing:4px;fill:#333333"
       id="path211" />
    <path
       d="m 217.98225,11.992 q 0.88,0.464 1.392,1.312 0.512,0.832 0.512,1.888 0,1.088 -0.496,1.968 -0.48,0.88 -1.344,1.392 -0.848,0.512 -1.888,0.512 -1.056,0 -1.92,-0.496 -0.848,-0.512 -1.344,-1.376 -0.48,-0.88 -0.48,-1.952 0,-1.072 0.512,-1.92 0.528,-0.864 1.408,-1.328 -0.592,-0.416 -0.928,-1.056 -0.336,-0.656 -0.336,-1.44 0,-0.848 0.4,-1.536 0.416,-0.704 1.12,-1.088 0.72,-0.4 1.6,-0.4 0.864,0 1.552,0.4 0.704,0.384 1.088,1.072 0.4,0.672 0.4,1.52 0,0.784 -0.336,1.456 -0.336,0.656 -0.912,1.072 z m -3.728,-2.48 q 0,0.832 0.544,1.408 0.544,0.56 1.36,0.56 0.816,0 1.344,-0.576 0.544,-0.592 0.544,-1.456 0,-0.784 -0.544,-1.312 -0.544,-0.528 -1.344,-0.528 -0.816,0 -1.36,0.544 -0.544,0.544 -0.544,1.36 z m 4.384,5.696 q 0,-0.72 -0.336,-1.296 -0.32,-0.576 -0.896,-0.912 -0.56,-0.336 -1.248,-0.336 -0.704,0 -1.28,0.352 -0.576,0.336 -0.896,0.928 -0.32,0.592 -0.32,1.328 0,0.736 0.32,1.36 0.336,0.608 0.896,0.96 0.576,0.352 1.28,0.352 0.704,0 1.264,-0.352 0.576,-0.368 0.896,-0.992 0.32,-0.64 0.32,-1.392 z"
       style="font-weight:normal;font-size:16px;font-family:Comfortaa, sans-serif;letter-spacing:4px;fill:#333333"
       id="path213" />
  </g>
  <g
     aria-label="BOGAUDIO"
     style="font-weight:bold;font-size:10.66666698px;font-family:Audiowide, sans-serif;letter-spacing:2px;fill:#333333"
     id="text43">
    <path
       d="m 133.23958,372.35937 q 0,0.25 -0.0885,0.53646 -0.0833,0.28646 -0.28125,0.53125 -0.19271,0.24479 -0.50521,0.41146 Q 132.05208,374 131.59896,374 h -5.14063 q -0.14583,0 -0.27083,-0.0521 -0.125,-0.0521 -0.21875,-0.14063 -0.0885,-0.0937 -0.14062,-0.21875 -0.0521,-0.125 -0.0521,-0.27083 v -6.10417 q 0,-0.14062 0.0521,-0.26562 0.0521,-0.125 0.14062,-0.21875 0.0937,-0.0937 0.21875,-0.14584 0.125,-0.0521 0.27083,-0.0521 h 4.53125 q 0.25,0 0.53646,0.0885 0.28646,0.0885 0.53125,0.28646 0.25,0.19271 0.41146,0.50521 0.16667,0.3125 0.16667,0.76562 v 0.25521 q 0,0.35938 -0.11979,0.77604 -0.1198,0.41146 -0.38542,0.78125 0.22917,0.14063 0.42708,0.33854 0.20313,0.19792 0.35417,0.45834 0.15104,0.26041 0.23958,0.58854 0.0885,0.32812 0.0885,0.72396 z m -1.35416,-0.26041 q 0,-0.26563 -0.0833,-0.47396 -0.0833,-0.21354 -0.23437,-0.36458 -0.15104,-0.15105 -0.36458,-0.22917 -0.21355,-0.0833 -0.47917,-0.0833 h -3.05208 v -1.36459 h 2.4427 q 0.26563,0 0.47917,-0.0781 0.21354,-0.0833 0.36458,-0.23438 0.15105,-0.15104 0.22917,-0.35937 0.0833,-0.21354 0.0833,-0.47917 v -0.25521 q 0,-0.29166 -0.28125,-0.29166 h -3.85937 v 4.76041 h 4.46875 q 0.0365,0 0.0885,-0.005 0.0521,-0.005 0.0937,-0.0312 0.0417,-0.026 0.0729,-0.0885 0.0312,-0.0625 0.0312,-0.17187 z"
       style="font-weight:bold;font-size:10.66666698px;font-family:Audiowide, sans-serif;letter-spacing:2px;fill:#333333"
       id="path216" />
    <path
       d="m 144.25,370.97917 q 0,0.68229 -0.23437,1.2552 -0.23438,0.57292 -0.65105,0.98959 -0.41666,0.41666 -0.98958,0.65104 -0.56771,0.22917 -1.23958,0.22917 h -1.83334 q -0.67187,0 -1.24479,-0.22917 -0.57291,-0.23438 -0.98958,-0.65104 -0.41667,-0.41667 -0.65625,-0.98959 -0.23438,-0.57291 -0.23438,-1.2552 v -1.42709 q 0,-0.67708 0.23438,-1.25 0.23958,-0.57812 0.65625,-0.98958 0.41667,-0.41667 0.98958,-0.65104 0.57292,-0.23438 1.24479,-0.23438 h 1.83334 q 0.67187,0 1.23958,0.23438 0.57292,0.23437 0.98958,0.65104 0.41667,0.41146 0.65105,0.98958 0.23437,0.57292 0.23437,1.25 z m -1.35417,-1.42709 q 0,-0.40104 -0.1302,-0.72396 -0.125,-0.32812 -0.35938,-0.55729 -0.22917,-0.23437 -0.55729,-0.35937 -0.32292,-0.13021 -0.71354,-0.13021 h -1.83334 q -0.39583,0 -0.72395,0.13021 -0.32292,0.125 -0.5573,0.35937 -0.23437,0.22917 -0.36458,0.55729 -0.125,0.32292 -0.125,0.72396 v 1.42709 q 0,0.40104 0.125,0.72916 0.13021,0.32292 0.36458,0.55729 0.23438,0.22917 0.5573,0.35938 0.32812,0.125 0.72395,0.125 h 1.82292 q 0.39583,0 0.71875,-0.125 0.32813,-0.13021 0.5625,-0.35938 0.23438,-0.23437 0.35938,-0.55729 0.1302,-0.32812 0.1302,-0.72916 z"
       style="font-weight:bold;font-size:10.66666698px;font-family:Audiowide, sans-serif;letter-spacing:2px;fill:#333333"
       id="path218" />
    <path
       d="m 154.96875,373.31771 q 0,0.14583 -0.0521,0.27083 -0.0521,0.125 -0.14584,0.21875 -0.0885,0.0885 -0.21354,0.14063 -0.125,0.0521 -0.27083,0.0521 h -4.88542 q -0.1875,0 -0.40625,-0.0417 -0.21354,-0.0469 -0.42708,-0.14062 -0.20833,-0.0937 -0.40104,-0.23959 -0.19271,-0.15104 -0.34375,-0.35937 -0.14584,-0.21354 -0.23438,-0.48958 -0.0885,-0.28125 -0.0885,-0.63021 v -3.66667 q 0,-0.1875 0.0417,-0.40104 0.0469,-0.21875 0.14062,-0.42708 0.0937,-0.21355 0.24479,-0.40625 0.15105,-0.19271 0.35938,-0.33855 0.21354,-0.15104 0.48958,-0.23958 0.27604,-0.0885 0.625,-0.0885 h 5.50521 v 1.35417 h -5.50521 q -0.26562,0 -0.40625,0.14062 -0.14062,0.14063 -0.14062,0.41667 v 3.65625 q 0,0.26041 0.14062,0.40625 0.14584,0.14062 0.40625,0.14062 h 4.21354 v -1.69791 h -3.60416 v -1.36459 h 4.27604 q 0.14583,0 0.27083,0.0573 0.125,0.0521 0.21354,0.14584 0.0937,0.0937 0.14584,0.21875 0.0521,0.11979 0.0521,0.26041 z"
       style="font-weight:bold;font-size:10.66666698px;font-family:Audiowide, sans-serif;letter-spacing:2px;fill:#333333"
       id="path220" />
    <path
       d="m 165.71875,374 h -1.35417 v -1.83333 h -4.76041 V 374 H 158.25 v -3.73438 q 0,-0.8177 0.28125,-1.5052 0.28125,-0.6875 0.78125,-1.1823 0.5,-0.49479 1.18229,-0.77083 0.68229,-0.27604 1.48959,-0.27604 h 3.05208 q 0.14062,0 0.26562,0.0521 0.125,0.0521 0.21875,0.14584 0.0937,0.0937 0.14584,0.21875 0.0521,0.125 0.0521,0.26562 z m -6.11458,-3.1875 h 4.76041 v -2.92708 h -2.3802 q -0.0625,0 -0.26563,0.0208 -0.19792,0.0156 -0.46354,0.0885 -0.26042,0.0729 -0.55208,0.22396 -0.29167,0.15104 -0.53646,0.41667 -0.24479,0.26562 -0.40625,0.66666 -0.15625,0.39584 -0.15625,0.96354 z"
       style="font-weight:bold;font-size:10.66666698px;font-family:Audiowide, sans-serif;letter-spacing:2px;fill:#333333"
       id="path222" />
    <path
       d="m 176.60417,373.31771 q 0,0.14583 -0.0521,0.27083 -0.0521,0.125 -0.14583,0.21875 -0.0937,0.0885 -0.21875,0.14063 Q 176.0625,374 175.92188,374 h -3.05209 q -0.43229,0 -0.875,-0.0937 -0.44271,-0.0937 -0.85937,-0.28646 -0.41146,-0.19792 -0.77604,-0.5 -0.36459,-0.30208 -0.64063,-0.71354 -0.27083,-0.41667 -0.42708,-0.94792 -0.15625,-0.53646 -0.15625,-1.19271 v -3.73437 h 1.35416 v 3.73437 q 0,0.57292 0.15625,0.96875 0.16146,0.39584 0.40625,0.66146 0.2448,0.26563 0.53646,0.41667 0.29167,0.15104 0.55209,0.22396 0.26562,0.0729 0.46354,0.0937 0.20312,0.0156 0.26562,0.0156 H 175.25 v -6.11458 h 1.35417 z"
       style="font-weight:bold;font-size:10.66666698px;font-family:Audiowide, sans-serif;letter-spacing:2px;fill:#333333"
       id="path224" />
    <path
       d="m 187.63542,370.875 q 0,0.68229 -0.23958,1.25521 -0.23438,0.57291 -0.65105,0.98958 -0.41666,0.41146 -0.98958,0.64583 Q 185.18229,374 184.51042,374 h -3.65625 q -0.14583,0 -0.27083,-0.0521 -0.125,-0.0521 -0.21875,-0.14063 -0.0885,-0.0937 -0.14063,-0.21875 -0.0521,-0.125 -0.0521,-0.27083 v -6.10417 q 0,-0.14062 0.0521,-0.26562 0.0521,-0.125 0.14063,-0.21875 0.0937,-0.0937 0.21875,-0.14584 0.125,-0.0521 0.27083,-0.0521 h 3.65625 q 0.67187,0 1.24479,0.23437 0.57292,0.23438 0.98958,0.65105 0.41667,0.41145 0.65105,0.98958 0.23958,0.57292 0.23958,1.25 z m -1.35417,-1.21875 q 0,-0.39583 -0.13021,-0.72396 -0.125,-0.32812 -0.35937,-0.55729 -0.23438,-0.23438 -0.5625,-0.35938 -0.32292,-0.1302 -0.71875,-0.1302 h -2.98438 v 4.76041 h 2.98438 q 0.39583,0 0.71875,-0.125 0.32812,-0.13021 0.5625,-0.35937 0.23437,-0.23438 0.35937,-0.55729 0.13021,-0.32813 0.13021,-0.72917 z"
       style="font-weight:bold;font-size:10.66666698px;font-family:Audiowide, sans-serif;letter-spacing:2px;fill:#333333"
       id="path226" />
    <path
       d="m 192.33854,374 h -1.35416 v -7.46875 h 1.35416 z"
       style="font-weight:bold;font-size:10.66666698px;font-family:Audiowide, sans-serif;letter-spacing:2px;fill:#333333"
       id="path228" />
    <path
       d="m 203.77084,370.97917 q 0,0.68229 -0.23438,1.2552 -0.23437,0.57292 -0.65104,0.98959 -0.41667,0.41666 -0.98958,0.65104 -0.56771,0.22917 -1.23959,0.22917 h -1.83333 q -0.67188,0 -1.24479,-0.22917 -0.57292,-0.23438 -0.98959,-0.65104 -0.41666,-0.41667 -0.65625,-0.98959 -0.23437,-0.57291 -0.23437,-1.2552 v -1.42709 q 0,-0.67708 0.23437,-1.25 0.23959,-0.57812 0.65625,-0.98958 0.41667,-0.41667 0.98959,-0.65104 0.57291,-0.23438 1.24479,-0.23438 h 1.83333 q 0.67188,0 1.23959,0.23438 0.57291,0.23437 0.98958,0.65104 0.41667,0.41146 0.65104,0.98958 0.23438,0.57292 0.23438,1.25 z m -1.35417,-1.42709 q 0,-0.40104 -0.13021,-0.72396 -0.125,-0.32812 -0.35937,-0.55729 -0.22917,-0.23437 -0.5573,-0.35937 -0.32291,-0.13021 -0.71354,-0.13021 h -1.83333 q -0.39583,0 -0.72396,0.13021 -0.32292,0.125 -0.55729,0.35937 -0.23438,0.22917 -0.36458,0.55729 -0.125,0.32292 -0.125,0.72396 v 1.42709 q 0,0.40104 0.125,0.72916 0.1302,0.32292 0.36458,0.55729 0.23437,0.22917 0.55729,0.35938 0.32813,0.125 0.72396,0.125 h 1.82292 q 0.39583,0 0.71875,-0.125 0.32812,-0.13021 0.5625,-0.35938 0.23437,-0.23437 0.35937,-0.55729 0.13021,-0.32812 0.13021,-0.72916 z"
       style="font-weight:bold;font-size:10.66666698px;font-family:Audiowide, sans-serif;letter-spacing:2px;fill:#333333"
       id="path230" />
  </g>
  <path
     style="fill:#dddddd"
     d="m 149,369 h 3 v 3 h -3 z"
     id="rect45" />
  <path
     style="fill:#fafafa"
     d="m 10.5,25 h 24 c 2.77,0 5,2.23 5,5 v 283 c 0,2.77 -2.23,5 -5,5 h -24 c -2.77,0 -5,-2.23 -5,-5 V 30 c 0,-2.77 2.23,-5 5,-5 z"
     id="rect49" />
  <path
     style="fill:#bbbbbb"
     d="M 51.5,323 H 320 c 2.77,0 5,2.23 5,5 v 24 c 0,2.77 -2.23,5 -5,5 H 51.5 c -2.77,0 -5,-2.23 -5,-5 v -24 c 0,-2.77 2.23,-5 5,-5 z"
     id="rect53" />
  <!-- <polyline points="0,0 0,380" stroke="#0f0" stroke-width="1" fill="none" transform="translate(22.5 0)" /> -->
  <!-- <polyline points="0,0 0,380" stroke="#0f0" stroke-width="1" fill="none" transform="translate(63.5 0)" /> -->
  <!-- <polyline points="0,0 0,380" stroke="#0f0" stroke-width="1" fill="none" transform="translate(98.5 0)" /> -->
  <!-- <polyline points="0,0 0,380" stroke="#0f0" stroke-width="1" fill="none" transform="translate(133.5 0)" /> -->
  <!-- <polyline points="0,0 0,380" stroke="#0f0" stroke-width="1" fill="none" transform="translate(168.5 0)" /> -->
  <!-- <polyline points="0,0 0,380" stroke="#0f0" stroke-width="1" fill="none" transform="translate(203.5 0)" /> -->
  <!-- <polyline points="0,0 0,380" stroke="#0f0" stroke-width="1" fill="none" transform="translate(238.5 0)" /> -->
  <!-- <polyline points="0,0 0,380" stroke="#0f0" stroke-width="1" fill="none" transform="translate(273.5 0)" /> -->
  <!-- <polyline points="0,0 0,380" stroke="#0f0" stroke-width="1" fill="none" transform="translate(308.5 0)" /> -->
  <!-- <polyline points="0,0 330,0" stroke="#0f0" stroke-width="1" fill="none" transform="translate(0 42)" /> -->
  <!-- <polyline points="0,0 330,0" stroke="#0f0" stroke-width="1" fill="none" transform="translate(0 79)" /> -->
  <!-- <polyline points="0,0 330,0" stroke="#0f0" stroke-width="1" fill="none" transform="translate(0 116)" /> -->
  <!-- <polyline points="0,0 330,0" stroke="#0f0" stroke-width="1" fill="none" transform="translate(0 153)" /> -->
  <!-- <polyline points="0,0 330,0" stroke="#0f0" stroke-width="1" fill="none" transform="translate(0 190)" /> -->
  <!-- <polyline points="0,0 330,0" stroke="#0f0" stroke-width="1" fill="none" transform="translate(0 227)" /> -->
  <!-- <polyline points="0,0 330,0" stroke="#0f0" stroke-width="1" fill="none" transform="translate(0 264)" /> -->
  <!-- <polyline points="0,0 330,0" stroke="#0f0" stroke-width="1" fill="none" transform="translate(0 301)" /> -->
  <!-- <polyline points="0,0 330,0" stroke="#0f0" stroke-width="1" fill="none" transform="translate(0 340)" /> -->
  <!-- <rect width="330" height="11" fill="#0f0" transform="translate(0 274)" /> -->
  <!-- <rect width="8" height="380" fill="#0f0" transform="translate(77 0)" /> -->
</svg>
