<?xml version="1.0" encoding="UTF-8" standalone="no"?>
<svg xmlns:dc="http://purl.org/dc/elements/1.1/" xmlns:cc="http://creativecommons.org/ns#" xmlns:rdf="http://www.w3.org/1999/02/22-rdf-syntax-ns#" xmlns:svg="http://www.w3.org/2000/svg" xmlns="http://www.w3.org/2000/svg" xmlns:sodipodi="http://sodipodi.sourceforge.net/DTD/sodipodi-0.dtd" xmlns:inkscape="http://www.inkscape.org/namespaces/inkscape" inkscape:version="1.0 (4035a4f, 2020-05-01)" sodipodi:docname="svg_render_Switch88-dark-pp.svg" id="svg114494" viewBox="0 0 330 380" height="380" width="330" version="1.1">
  <metadata id="metadata114500">
    <rdf:RDF>
      <cc:Work rdf:about="">
        <dc:format>image/svg+xml</dc:format>
        <dc:type rdf:resource="http://purl.org/dc/dcmitype/StillImage"/>
      </cc:Work>
    </rdf:RDF>
  </metadata>
  <defs id="defs114498"/>
  <sodipodi:namedview inkscape:current-layer="svg114494" inkscape:window-maximized="0" inkscape:window-y="23" inkscape:window-x="0" inkscape:cy="190" inkscape:cx="165" inkscape:zoom="1.7605263" showgrid="false" id="namedview114496" inkscape:window-height="480" inkscape:window-width="689" inkscape:pageshadow="2" inkscape:pageopacity="0" guidetolerance="10" gridtolerance="10" objecttolerance="10" borderopacity="1" bordercolor="#666666" pagecolor="#ffffff"/>
  
  <path class="module-background background-fill" d="M 0,0 H 330 V 380 H 0 Z" style="fill:#222222" id="rect114182"/>
  <path class="module-border-inner" d="M 1,1 H 329 V 379 H 1 V 1" style="fill:none;stroke:#191919;stroke-width:0.5" id="polyline114184"/>
  <path class="module-border-middle" d="m 0.5,0.5 h 329 v 379 H 0.5 V 0.5" style="fill:none;stroke:#111111;stroke-width:0.8" id="polyline114186"/>
  <path class="module-border-outer" d="M 0,0 H 330 V 380 H 0 V 0" style="fill:none;stroke:#000000;stroke-width:1" id="polyline114188"/>
  <g class="title" style="font-weight:normal;font-size:16px;font-family:Comfortaa, sans-serif;letter-spacing:4px;text-anchor:middle;fill:#dddddd" id="text114190" transform="translate(165.0 19)" aria-label="SWITCH88">
    <path id="path114606" style="font-weight:normal;font-size:16px;font-family:Comfortaa, sans-serif;letter-spacing:4px;text-anchor:middle;fill:#dddddd" d="m -50.513125,0.16 q -1.52,0 -2.704,-0.64 -1.168,-0.656 -1.68,-1.76 -0.064,-0.112 -0.064,-0.256 0,-0.224 0.16,-0.368 0.176,-0.16 0.464,-0.16 0.192,0 0.352,0.112 0.176,0.096 0.256,0.288 0.368,0.72 1.216,1.168 0.864,0.432 2,0.432 1.312,0 2.112,-0.624 0.8,-0.64 0.8,-1.776 0,-1.008 -0.752,-1.696 -0.736,-0.688 -2.224,-0.88 -1.856,-0.224 -2.928,-1.152 -1.056,-0.944 -1.056,-2.304 0,-0.96 0.512,-1.68 0.528,-0.736 1.44,-1.12 0.928,-0.4 2.096,-0.4 1.264,0 2.224,0.56 0.96,0.56 1.504,1.456 0.112,0.176 0.112,0.384 0,0.304 -0.288,0.48 -0.128,0.064 -0.288,0.064 -0.176,0 -0.336,-0.08 -0.144,-0.096 -0.24,-0.256 -0.896,-1.408 -2.704,-1.424 -1.296,0 -2.048,0.544 -0.752,0.544 -0.752,1.552 0,1.872 3.024,2.272 1.984,0.288 2.96,1.216 0.976,0.928 0.976,2.448 0,1.12 -0.544,1.936 -0.544,0.816 -1.488,1.248 -0.944,0.416 -2.112,0.416 z"/>
    <path id="path114608" style="font-weight:normal;font-size:16px;font-family:Comfortaa, sans-serif;letter-spacing:4px;text-anchor:middle;fill:#dddddd" d="m -27.872375,-12.496 q 0.256,0 0.4,0.176 0.144,0.16 0.144,0.416 0,0.128 -0.048,0.304 l -3.264,11.072 q -0.08,0.256 -0.256,0.4 -0.16,0.128 -0.384,0.128 -0.224,0 -0.4,-0.144 -0.16,-0.144 -0.224,-0.368 l -2.592,-9.456 -2.576,9.44 q -0.08,0.24 -0.256,0.384 -0.16,0.144 -0.384,0.144 -0.224,0 -0.4,-0.144 -0.16,-0.144 -0.224,-0.368 l -3.28,-11.088 q -0.048,-0.176 -0.048,-0.288 0,-0.272 0.16,-0.432 0.16,-0.176 0.416,-0.176 0.448,0 0.608,0.48 l 2.768,9.648 2.624,-9.376 q 0.048,-0.176 0.208,-0.288 0.176,-0.112 0.384,-0.112 0.208,0 0.368,0.112 0.16,0.112 0.224,0.304 l 2.64,9.376 2.784,-9.728 q 0.128,-0.416 0.608,-0.416 z"/>
    <path id="path114610" style="font-weight:normal;font-size:16px;font-family:Comfortaa, sans-serif;letter-spacing:4px;text-anchor:middle;fill:#dddddd" d="m -20.760375,0 q -0.256,0 -0.448,-0.176 -0.176,-0.192 -0.176,-0.448 v -11.248 q 0,-0.272 0.176,-0.448 0.192,-0.176 0.448,-0.176 0.272,0 0.448,0.176 0.176,0.176 0.176,0.448 v 11.248 q 0,0.256 -0.176,0.448 -0.176,0.176 -0.448,0.176 z"/>
    <path id="path114612" style="font-weight:normal;font-size:16px;font-family:Comfortaa, sans-serif;letter-spacing:4px;text-anchor:middle;fill:#dddddd" d="m -4.882875,-12.496 q 0.256,0 0.416,0.16 0.16,0.16 0.16,0.416 0,0.24 -0.16,0.4 -0.16,0.16 -0.416,0.16 h -3.808 v 10.736 q 0,0.256 -0.176,0.448 -0.176,0.176 -0.448,0.176 -0.256,0 -0.448,-0.176 -0.176,-0.192 -0.176,-0.448 V -11.36 h -3.792 q -0.256,0 -0.416,-0.16 -0.16,-0.16 -0.16,-0.4 0,-0.256 0.16,-0.416 0.16,-0.16 0.416,-0.16 z"/>
    <path id="path114614" style="font-weight:normal;font-size:16px;font-family:Comfortaa, sans-serif;letter-spacing:4px;text-anchor:middle;fill:#dddddd" d="m 6.325375,0.16 q -1.696,0 -3.12,-0.864 -1.424,-0.864 -2.272,-2.336 -0.832,-1.472 -0.832,-3.216 0,-1.728 0.832,-3.2 0.832,-1.472 2.256,-2.336 1.424,-0.864 3.136,-0.864 1.152,0 2.096,0.336 0.944,0.336 1.824,1.072 0.176,0.128 0.176,0.368 0,0.128 -0.064,0.24 -0.064,0.096 -0.176,0.144 -0.032,0.112 -0.144,0.176 -0.112,0.064 -0.24,0.064 -0.24,0 -0.4,-0.144 -0.624,-0.56 -1.36,-0.816 -0.736,-0.256 -1.712,-0.256 -1.344,0 -2.496,0.72 -1.152,0.704 -1.84,1.904 -0.672,1.2 -0.672,2.592 0,1.424 0.672,2.624 0.672,1.2 1.824,1.904 1.152,0.704 2.512,0.704 1.744,0 3.152,-1.12 0.176,-0.128 0.352,-0.128 0.24,0 0.416,0.176 0.176,0.16 0.176,0.432 0,0.256 -0.176,0.448 -1.504,1.376 -3.92,1.376 z"/>
    <path id="path114616" style="font-weight:normal;font-size:16px;font-family:Comfortaa, sans-serif;letter-spacing:4px;text-anchor:middle;fill:#dddddd" d="m 17.677125,0 q -0.256,0 -0.448,-0.176 -0.176,-0.192 -0.176,-0.448 v -11.248 q 0,-0.272 0.176,-0.448 0.192,-0.176 0.448,-0.176 0.272,0 0.448,0.176 0.176,0.176 0.176,0.448 v 4.992 h 7.808 v -4.992 q 0,-0.272 0.176,-0.448 0.192,-0.176 0.448,-0.176 0.272,0 0.448,0.176 0.176,0.176 0.176,0.448 v 11.248 q 0,0.256 -0.176,0.448 -0.176,0.176 -0.448,0.176 -0.256,0 -0.448,-0.176 -0.176,-0.192 -0.176,-0.448 V -5.76 h -7.808 v 5.136 q 0,0.256 -0.176,0.448 -0.176,0.176 -0.448,0.176 z"/>
    <path id="path114618" style="font-weight:normal;font-size:16px;font-family:Comfortaa, sans-serif;letter-spacing:4px;text-anchor:middle;fill:#dddddd" d="m 39.529125,-7.008 q 0.88,0.464 1.392,1.312 0.512,0.832 0.512,1.888 0,1.088 -0.496,1.968 -0.48,0.88 -1.344,1.392 -0.848,0.512 -1.888,0.512 -1.056,0 -1.92,-0.496 -0.848,-0.512 -1.344,-1.376 -0.48,-0.88 -0.48,-1.952 0,-1.072 0.512,-1.92 0.528,-0.864 1.408,-1.328 -0.592,-0.416 -0.928,-1.056 -0.336,-0.656 -0.336,-1.44 0,-0.848 0.4,-1.536 0.416,-0.704 1.12,-1.088 0.72,-0.4 1.6,-0.4 0.864,0 1.552,0.4 0.704,0.384 1.088,1.072 0.4,0.672 0.4,1.52 0,0.784 -0.336,1.456 -0.336,0.656 -0.912,1.072 z m -3.728,-2.48 q 0,0.832 0.544,1.408 0.544,0.56 1.36,0.56 0.816,0 1.344,-0.576 0.544,-0.592 0.544,-1.456 0,-0.784 -0.544,-1.312 -0.544,-0.528 -1.344,-0.528 -0.816,0 -1.36,0.544 -0.544,0.544 -0.544,1.36 z m 4.384,5.696 q 0,-0.72 -0.336,-1.296 -0.32,-0.576 -0.896,-0.912 -0.56,-0.336 -1.248,-0.336 -0.704,0 -1.28,0.352 -0.576,0.336 -0.896,0.928 -0.32,0.592 -0.32,1.328 0,0.736 0.32,1.36 0.336,0.608 0.896,0.96 0.576,0.352 1.28,0.352 0.704,0 1.264,-0.352 0.576,-0.368 0.896,-0.992 0.32,-0.64 0.32,-1.392 z"/>
    <path id="path114620" style="font-weight:normal;font-size:16px;font-family:Comfortaa, sans-serif;letter-spacing:4px;text-anchor:middle;fill:#dddddd" d="m 53.029125,-7.008 q 0.88,0.464 1.392,1.312 0.512,0.832 0.512,1.888 0,1.088 -0.496,1.968 -0.48,0.88 -1.344,1.392 -0.848,0.512 -1.888,0.512 -1.056,0 -1.92,-0.496 -0.848,-0.512 -1.344,-1.376 -0.48,-0.88 -0.48,-1.952 0,-1.072 0.512,-1.92 0.528,-0.864 1.408,-1.328 -0.592,-0.416 -0.928,-1.056 -0.336,-0.656 -0.336,-1.44 0,-0.848 0.4,-1.536 0.416,-0.704 1.12,-1.088 0.72,-0.4 1.6,-0.4 0.864,0 1.552,0.4 0.704,0.384 1.088,1.072 0.4,0.672 0.4,1.52 0,0.784 -0.336,1.456 -0.336,0.656 -0.912,1.072 z m -3.728,-2.48 q 0,0.832 0.544,1.408 0.544,0.56 1.36,0.56 0.816,0 1.344,-0.576 0.544,-0.592 0.544,-1.456 0,-0.784 -0.544,-1.312 -0.544,-0.528 -1.344,-0.528 -0.816,0 -1.36,0.544 -0.544,0.544 -0.544,1.36 z m 4.384,5.696 q 0,-0.72 -0.336,-1.296 -0.32,-0.576 -0.896,-0.912 -0.56,-0.336 -1.248,-0.336 -0.704,0 -1.28,0.352 -0.576,0.336 -0.896,0.928 -0.32,0.592 -0.32,1.328 0,0.736 0.32,1.36 0.336,0.608 0.896,0.96 0.576,0.352 1.28,0.352 0.704,0 1.264,-0.352 0.576,-0.368 0.896,-0.992 0.32,-0.64 0.32,-1.392 z"/>
  </g>
  <g class="brand" style="font-weight:bold;font-size:10.6667px;font-family:Audiowide, sans-serif;letter-spacing:2px;text-anchor:middle;fill:#dddddd" id="text114192" aria-label="BOGAUDIO">
    <path id="path114589" style="font-weight:bold;font-size:10.6667px;font-family:Audiowide, sans-serif;letter-spacing:2px;text-anchor:middle;fill:#dddddd" d="m 133.57284,372.35937 q 0,0.25 -0.0885,0.53646 -0.0833,0.28646 -0.28125,0.53125 -0.19271,0.24479 -0.50521,0.41146 Q 132.38534,374 131.93221,374 h -5.14064 q -0.14584,0 -0.27084,-0.0521 -0.125,-0.0521 -0.21875,-0.14063 -0.0885,-0.0937 -0.14062,-0.21875 -0.0521,-0.125 -0.0521,-0.27083 v -6.10419 q 0,-0.14063 0.0521,-0.26563 0.0521,-0.125 0.14062,-0.21875 0.0937,-0.0937 0.21875,-0.14583 0.125,-0.0521 0.27084,-0.0521 h 4.53126 q 0.25,0 0.53646,0.0885 0.28646,0.0885 0.53125,0.28646 0.25,0.19271 0.41146,0.50521 0.16667,0.3125 0.16667,0.76562 v 0.25521 q 0,0.35938 -0.11979,0.77605 -0.11979,0.41146 -0.38542,0.78125 0.22917,0.14063 0.42709,0.33854 0.20312,0.19792 0.35416,0.45834 0.15105,0.26042 0.23959,0.58854 0.0885,0.32813 0.0885,0.72396 z m -1.35417,-0.26042 q 0,-0.26562 -0.0833,-0.47396 -0.0833,-0.21354 -0.23437,-0.36458 -0.15104,-0.15104 -0.36459,-0.22917 -0.21354,-0.0833 -0.47916,-0.0833 h -3.0521 v -1.36459 h 2.44272 q 0.26563,0 0.47917,-0.0781 0.21354,-0.0833 0.36458,-0.23437 0.15104,-0.15104 0.22917,-0.35938 0.0833,-0.21354 0.0833,-0.47917 v -0.25521 q 0,-0.29166 -0.28125,-0.29166 h -3.85938 v 4.76043 h 4.46876 q 0.0365,0 0.0885,-0.005 0.0521,-0.005 0.0937,-0.0312 0.0417,-0.026 0.0729,-0.0885 0.0312,-0.0625 0.0312,-0.17188 z"/>
    <path id="path114591" style="font-weight:bold;font-size:10.6667px;font-family:Audiowide, sans-serif;letter-spacing:2px;text-anchor:middle;fill:#dddddd" d="m 144.58329,370.97916 q 0,0.68229 -0.23438,1.25521 -0.23438,0.57292 -0.65104,0.98959 -0.41667,0.41666 -0.98959,0.65104 -0.56771,0.22917 -1.23959,0.22917 h -1.83334 q -0.67187,0 -1.24479,-0.22917 -0.57292,-0.23438 -0.98959,-0.65104 -0.41667,-0.41667 -0.65625,-0.98959 -0.23438,-0.57292 -0.23438,-1.25521 v -1.42709 q 0,-0.67709 0.23438,-1.25 0.23958,-0.57813 0.65625,-0.98959 0.41667,-0.41667 0.98959,-0.65104 0.57292,-0.23438 1.24479,-0.23438 h 1.83334 q 0.67188,0 1.23959,0.23438 0.57292,0.23437 0.98959,0.65104 0.41666,0.41146 0.65104,0.98959 0.23438,0.57291 0.23438,1.25 z m -1.35418,-1.42709 q 0,-0.40104 -0.1302,-0.72396 -0.12501,-0.32813 -0.35938,-0.55729 -0.22917,-0.23438 -0.55729,-0.35938 -0.32292,-0.13021 -0.71355,-0.13021 h -1.83334 q -0.39583,0 -0.72396,0.13021 -0.32292,0.125 -0.55729,0.35938 -0.23438,0.22916 -0.36459,0.55729 -0.125,0.32292 -0.125,0.72396 v 1.42709 q 0,0.40104 0.125,0.72917 0.13021,0.32291 0.36459,0.55729 0.23437,0.22917 0.55729,0.35938 0.32813,0.125 0.72396,0.125 h 1.82293 q 0.39583,0 0.71875,-0.125 0.32812,-0.13021 0.5625,-0.35938 0.23437,-0.23438 0.35938,-0.55729 0.1302,-0.32813 0.1302,-0.72917 z"/>
    <path id="path114593" style="font-weight:bold;font-size:10.6667px;font-family:Audiowide, sans-serif;letter-spacing:2px;text-anchor:middle;fill:#dddddd" d="m 155.30206,373.31771 q 0,0.14583 -0.0521,0.27083 -0.0521,0.125 -0.14583,0.21875 -0.0885,0.0885 -0.21355,0.14063 Q 154.7656,374 154.61977,374 h -4.88543 q -0.1875,0 -0.40625,-0.0417 -0.21355,-0.0469 -0.42709,-0.14062 -0.20833,-0.0937 -0.40104,-0.23959 -0.19271,-0.15104 -0.34375,-0.35937 -0.14584,-0.21354 -0.23438,-0.48959 -0.0885,-0.28125 -0.0885,-0.63021 v -3.66668 q 0,-0.1875 0.0417,-0.40104 0.0469,-0.21875 0.14062,-0.42708 0.0937,-0.21355 0.24479,-0.40625 0.15105,-0.19271 0.35938,-0.33855 0.21354,-0.15104 0.48959,-0.23958 0.27604,-0.0885 0.625,-0.0885 h 5.50522 v 1.35417 h -5.50522 q -0.26563,0 -0.40625,0.14062 -0.14063,0.14063 -0.14063,0.41667 v 3.65626 q 0,0.26042 0.14063,0.40625 0.14583,0.14063 0.40625,0.14063 h 4.21355 v -1.69792 h -3.60418 v -1.36459 h 4.27606 q 0.14583,0 0.27083,0.0573 0.125,0.0521 0.21355,0.14584 0.0937,0.0937 0.14583,0.21875 0.0521,0.11979 0.0521,0.26041 z"/>
    <path id="path114595" style="font-weight:bold;font-size:10.6667px;font-family:Audiowide, sans-serif;letter-spacing:2px;text-anchor:middle;fill:#dddddd" d="m 166.05209,374 h -1.35417 v -1.83334 h -4.76043 V 374 h -1.35417 v -3.73439 q 0,-0.81771 0.28125,-1.50521 0.28125,-0.6875 0.78125,-1.1823 0.5,-0.49479 1.1823,-0.77083 0.68229,-0.27604 1.48958,-0.27604 h 3.0521 q 0.14062,0 0.26562,0.0521 0.125,0.0521 0.21875,0.14583 0.0937,0.0937 0.14584,0.21875 0.0521,0.125 0.0521,0.26563 z m -6.1146,-3.18751 h 4.76043 v -2.92709 h -2.38022 q -0.0625,0 -0.26562,0.0208 -0.19792,0.0156 -0.46354,0.0885 -0.26042,0.0729 -0.55209,0.22396 -0.29167,0.15104 -0.53646,0.41667 -0.24479,0.26563 -0.40625,0.66667 -0.15625,0.39583 -0.15625,0.96354 z"/>
    <path id="path114597" style="font-weight:bold;font-size:10.6667px;font-family:Audiowide, sans-serif;letter-spacing:2px;text-anchor:middle;fill:#dddddd" d="m 176.93754,373.31771 q 0,0.14583 -0.0521,0.27083 -0.0521,0.125 -0.14583,0.21875 -0.0937,0.0885 -0.21875,0.14063 -0.125,0.0521 -0.26563,0.0521 h -3.05209 q -0.43229,0 -0.875,-0.0937 -0.44271,-0.0937 -0.85938,-0.28646 -0.41146,-0.19792 -0.77604,-0.5 -0.36459,-0.30209 -0.64063,-0.71355 -0.27084,-0.41666 -0.42709,-0.94791 -0.15625,-0.53646 -0.15625,-1.19272 v -3.73438 h 1.35417 v 3.73438 q 0,0.57292 0.15625,0.96876 0.16146,0.39583 0.40626,0.66146 0.24479,0.26562 0.53646,0.41666 0.29166,0.15105 0.55208,0.22396 0.26563,0.0729 0.46354,0.0937 0.20313,0.0156 0.26563,0.0156 h 2.38022 v -6.1146 h 1.35417 z"/>
    <path id="path114599" style="font-weight:bold;font-size:10.6667px;font-family:Audiowide, sans-serif;letter-spacing:2px;text-anchor:middle;fill:#dddddd" d="m 187.96881,370.87499 q 0,0.68229 -0.23958,1.25521 -0.23438,0.57292 -0.65105,0.98959 -0.41666,0.41146 -0.98958,0.64583 Q 185.51568,374 184.8438,374 h -3.65626 q -0.14583,0 -0.27083,-0.0521 -0.125,-0.0521 -0.21875,-0.14063 -0.0885,-0.0937 -0.14063,-0.21875 -0.0521,-0.125 -0.0521,-0.27083 v -6.10419 q 0,-0.14063 0.0521,-0.26563 0.0521,-0.125 0.14063,-0.21875 0.0937,-0.0937 0.21875,-0.14583 0.125,-0.0521 0.27083,-0.0521 h 3.65626 q 0.67188,0 1.2448,0.23437 0.57292,0.23438 0.98958,0.65105 0.41667,0.41146 0.65105,0.98958 0.23958,0.57292 0.23958,1.25001 z m -1.35417,-1.21875 q 0,-0.39584 -0.13021,-0.72396 -0.125,-0.32813 -0.35937,-0.5573 -0.23438,-0.23437 -0.5625,-0.35937 -0.32292,-0.13021 -0.71876,-0.13021 h -2.98438 v 4.76043 h 2.98438 q 0.39584,0 0.71876,-0.125 0.32812,-0.13021 0.5625,-0.35938 0.23437,-0.23437 0.35937,-0.55729 0.13021,-0.32813 0.13021,-0.72917 z"/>
    <path id="path114601" style="font-weight:bold;font-size:10.6667px;font-family:Audiowide, sans-serif;letter-spacing:2px;text-anchor:middle;fill:#dddddd" d="m 192.67195,374 h -1.35417 v -7.46877 h 1.35417 z"/>
    <path id="path114603" style="font-weight:bold;font-size:10.6667px;font-family:Audiowide, sans-serif;letter-spacing:2px;text-anchor:middle;fill:#dddddd" d="m 204.10427,370.97916 q 0,0.68229 -0.23438,1.25521 -0.23437,0.57292 -0.65104,0.98959 -0.41667,0.41666 -0.98959,0.65104 -0.56771,0.22917 -1.23958,0.22917 h -1.83334 q -0.67188,0 -1.2448,-0.22917 -0.57292,-0.23438 -0.98959,-0.65104 -0.41666,-0.41667 -0.65625,-0.98959 -0.23437,-0.57292 -0.23437,-1.25521 v -1.42709 q 0,-0.67709 0.23437,-1.25 0.23959,-0.57813 0.65625,-0.98959 0.41667,-0.41667 0.98959,-0.65104 0.57292,-0.23438 1.2448,-0.23438 h 1.83334 q 0.67187,0 1.23958,0.23438 0.57292,0.23437 0.98959,0.65104 0.41667,0.41146 0.65104,0.98959 0.23438,0.57291 0.23438,1.25 z m -1.35417,-1.42709 q 0,-0.40104 -0.13021,-0.72396 -0.125,-0.32813 -0.35938,-0.55729 -0.22916,-0.23438 -0.55729,-0.35938 -0.32292,-0.13021 -0.71354,-0.13021 h -1.83334 q -0.39584,0 -0.72396,0.13021 -0.32292,0.125 -0.5573,0.35938 -0.23437,0.22916 -0.36458,0.55729 -0.125,0.32292 -0.125,0.72396 v 1.42709 q 0,0.40104 0.125,0.72917 0.13021,0.32291 0.36458,0.55729 0.23438,0.22917 0.5573,0.35938 0.32812,0.125 0.72396,0.125 h 1.82292 q 0.39583,0 0.71875,-0.125 0.32813,-0.13021 0.5625,-0.35938 0.23438,-0.23438 0.35938,-0.55729 0.13021,-0.32813 0.13021,-0.72917 z"/>
  </g>
  <path class="background-fill" d="m 149.5,369 h 3 v 3 h -3 z" style="fill:#222222" id="rect114194"/>
  <path class="input-background" d="m 10.5,25 h 24 c 2.77,0 5,2.23 5,5 v 283 c 0,2.77 -2.23,5 -5,5 h -24 c -2.77,0 -5,-2.23 -5,-5 V 30 c 0,-2.77 2.23,-5 5,-5 z" style="fill:#aaaaaa" id="rect114198"/>
  <g transform="translate(10.5,30)" id="g114200"/>
  <g transform="translate(10.5,67)" id="g114202"/>
  <g transform="translate(10.5,104)" id="g114204"/>
  <g transform="translate(10.5,141)" id="g114206"/>
  <g transform="translate(10.5,178)" id="g114208"/>
  <g transform="translate(10.5,215)" id="g114210"/>
  <g transform="translate(10.5,252)" id="g114212"/>
  <g transform="translate(10.5,289)" id="g114214"/>
  <path class="output-background" d="M 51.5,323 H 320 c 2.77,0 5,2.23 5,5 v 24 c 0,2.77 -2.23,5 -5,5 H 51.5 c -2.77,0 -5,-2.23 -5,-5 v -24 c 0,-2.77 2.23,-5 5,-5 z" style="fill:#666666" id="rect114218"/>
  <g transform="translate(51.5,328)" id="g114220"/>
  <g transform="translate(86.5,328)" id="g114222"/>
  <g transform="translate(121.5,328)" id="g114224"/>
  <g transform="translate(156.5,328)" id="g114226"/>
  <g transform="translate(191.5,328)" id="g114228"/>
  <g transform="translate(226.5,328)" id="g114230"/>
  <g transform="translate(261.5,328)" id="g114232"/>
  <g transform="translate(296.5,328)" id="g114234"/>
  <g transform="translate(54.5,33)" id="g114238"/>
  <g transform="translate(54.5,70)" id="g114242"/>
  <g transform="translate(54.5,107)" id="g114246"/>
  <g transform="translate(54.5,144)" id="g114250"/>
  <g transform="translate(54.5,181)" id="g114254"/>
  <g transform="translate(54.5,218)" id="g114258"/>
  <g transform="translate(54.5,255)" id="g114262"/>
  <g transform="translate(54.5,292)" id="g114266"/>
  <g transform="translate(89.5,33)" id="g114270"/>
  <g transform="translate(89.5,70)" id="g114274"/>
  <g transform="translate(89.5,107)" id="g114278"/>
  <g transform="translate(89.5,144)" id="g114282"/>
  <g transform="translate(89.5,181)" id="g114286"/>
  <g transform="translate(89.5,218)" id="g114290"/>
  <g transform="translate(89.5,255)" id="g114294"/>
  <g transform="translate(89.5,292)" id="g114298"/>
  <g transform="translate(124.5,33)" id="g114302"/>
  <g transform="translate(124.5,70)" id="g114306"/>
  <g transform="translate(124.5,107)" id="g114310"/>
  <g transform="translate(124.5,144)" id="g114314"/>
  <g transform="translate(124.5,181)" id="g114318"/>
  <g transform="translate(124.5,218)" id="g114322"/>
  <g transform="translate(124.5,255)" id="g114326"/>
  <g transform="translate(124.5,292)" id="g114330"/>
  <g transform="translate(159.5,33)" id="g114334"/>
  <g transform="translate(159.5,70)" id="g114338"/>
  <g transform="translate(159.5,107)" id="g114342"/>
  <g transform="translate(159.5,144)" id="g114346"/>
  <g transform="translate(159.5,181)" id="g114350"/>
  <g transform="translate(159.5,218)" id="g114354"/>
  <g transform="translate(159.5,255)" id="g114358"/>
  <g transform="translate(159.5,292)" id="g114362"/>
  <g transform="translate(194.5,33)" id="g114366"/>
  <g transform="translate(194.5,70)" id="g114370"/>
  <g transform="translate(194.5,107)" id="g114374"/>
  <g transform="translate(194.5,144)" id="g114378"/>
  <g transform="translate(194.5,181)" id="g114382"/>
  <g transform="translate(194.5,218)" id="g114386"/>
  <g transform="translate(194.5,255)" id="g114390"/>
  <g transform="translate(194.5,292)" id="g114394"/>
  <g transform="translate(229.5,33)" id="g114398"/>
  <g transform="translate(229.5,70)" id="g114402"/>
  <g transform="translate(229.5,107)" id="g114406"/>
  <g transform="translate(229.5,144)" id="g114410"/>
  <g transform="translate(229.5,181)" id="g114414"/>
  <g transform="translate(229.5,218)" id="g114418"/>
  <g transform="translate(229.5,255)" id="g114422"/>
  <g transform="translate(229.5,292)" id="g114426"/>
  <g transform="translate(264.5,33)" id="g114430"/>
  <g transform="translate(264.5,70)" id="g114434"/>
  <g transform="translate(264.5,107)" id="g114438"/>
  <g transform="translate(264.5,144)" id="g114442"/>
  <g transform="translate(264.5,181)" id="g114446"/>
  <g transform="translate(264.5,218)" id="g114450"/>
  <g transform="translate(264.5,255)" id="g114454"/>
  <g transform="translate(264.5,292)" id="g114458"/>
  <g transform="translate(299.5,33)" id="g114462"/>
  <g transform="translate(299.5,70)" id="g114466"/>
  <g transform="translate(299.5,107)" id="g114470"/>
  <g transform="translate(299.5,144)" id="g114474"/>
  <g transform="translate(299.5,181)" id="g114478"/>
  <g transform="translate(299.5,218)" id="g114482"/>
  <g transform="translate(299.5,255)" id="g114486"/>
  <g transform="translate(299.5,292)" id="g114490"/>
</svg>
