<?xml version="1.0" encoding="UTF-8" standalone="no"?>
<svg
   xmlns:dc="http://purl.org/dc/elements/1.1/"
   xmlns:cc="http://creativecommons.org/ns#"
   xmlns:rdf="http://www.w3.org/1999/02/22-rdf-syntax-ns#"
   xmlns:svg="http://www.w3.org/2000/svg"
   xmlns="http://www.w3.org/2000/svg"
   xmlns:sodipodi="http://sodipodi.sourceforge.net/DTD/sodipodi-0.dtd"
   xmlns:inkscape="http://www.inkscape.org/namespaces/inkscape"
   version="1.1"
   width="45"
   height="380"
   viewBox="0 0 45 380"
   id="svg63"
   sodipodi:docname="svg_render_tmp.svg"
   inkscape:version="0.92.2 5c3e80d, 2017-08-06">
  <metadata
     id="metadata67">
    <rdf:RDF>
      <cc:Work
         rdf:about="">
        <dc:format>image/svg+xml</dc:format>
        <dc:type
           rdf:resource="http://purl.org/dc/dcmitype/StillImage" />
      </cc:Work>
    </rdf:RDF>
  </metadata>
  <sodipodi:namedview
     pagecolor="#ffffff"
     bordercolor="#666666"
     borderopacity="1"
     objecttolerance="10"
     gridtolerance="10"
     guidetolerance="10"
     inkscape:pageopacity="0"
     inkscape:pageshadow="2"
     inkscape:window-width="468"
     inkscape:window-height="449"
     id="namedview65"
     showgrid="false"
     inkscape:zoom="0.62105263"
     inkscape:cx="22.5"
     inkscape:cy="190"
     inkscape:window-x="0"
     inkscape:window-y="0"
     inkscape:window-maximized="0"
     inkscape:current-layer="svg63" />
  <style
     id="style2">
    text {
      fill: #333;
      font-family: 'Roboto', sans-serif;
      font-weight: bold;
    }
    text.title {
      font-family: 'Comfortaa', sans-serif;
      font-weight: normal;
    }
    text.brand {
      font-family: 'Audiowide', sans-serif;
      font-weight: bold;
    }
  </style>
  <defs
     id="defs21">
    <symbol
       id="input"
       viewBox="0 0 24px 24px">
      <g
         transform="translate(12 12)"
         id="g8">
        <circle
           cx="0"
           cy="0"
           r="5"
           stroke-width="1"
           stroke="#0f0"
           fill="#0f0"
           id="circle4" />
        <circle
           cx="0"
           cy="0"
           r="10.5"
           stroke-width="3"
           stroke="#0f0"
           fill="none"
           id="circle6" />
      </g>
    </symbol>
    <symbol
       id="output"
       viewBox="0 0 24px 24px">
      <g
         transform="translate(12 12)"
         id="g15">
        <circle
           cx="0"
           cy="0"
           r="5"
           stroke-width="1"
           stroke="#f00"
           fill="#f00"
           id="circle11" />
        <circle
           cx="0"
           cy="0"
           r="10.5"
           stroke-width="3"
           stroke="#f00"
           fill="none"
           id="circle13" />
      </g>
    </symbol>
    <symbol
       id="light-small"
       viewBox="0 0 6.4px 6.4px">
      <rect
         width="6.4"
         height="6.4"
         fill="#0f0"
         id="rect18" />
    </symbol>
  </defs>
  <path
     style="fill:#dddddd"
     d="M 0,0 H 45 V 380 H 0 Z"
     id="rect23" />
  <path
     style="fill:none;stroke:#e4e4e4;stroke-width:0.5"
     d="M 1,1 H 44 V 379 H 1 V 1"
     id="polyline25" />
  <path
     style="fill:none;stroke:#ebebeb;stroke-width:0.80000001"
     d="m 0.5,0.5 h 44 v 379 H 0.5 V 0.5"
     id="polyline27" />
  <path
     style="fill:none;stroke:#f2f2f2;stroke-width:1"
     d="M 0,0 H 45 V 380 H 0 V 0"
     id="polyline29" />
  <g
     aria-label="TEB"
     transform="rotate(-90)"
     style="font-weight:normal;font-size:9.33333302px;font-family:Comfortaa, sans-serif;letter-spacing:2.5px;fill:#333333"
     id="text31">
    <path
       d="m -370.36267,5.7106669 q 0.14934,0 0.24267,0.093333 0.0933,0.093333 0.0933,0.2426667 0,0.14 -0.0933,0.2333333 -0.0933,0.093333 -0.24267,0.093333 H -372.584 V 12.636 q 0,0.149333 -0.10267,0.261333 Q -372.78933,13 -372.948,13 q -0.14933,0 -0.26133,-0.102667 -0.10267,-0.112 -0.10267,-0.261333 V 6.3733336 h -2.212 q -0.14933,0 -0.24267,-0.093333 -0.0933,-0.093333 -0.0933,-0.2333333 0,-0.1493333 0.0933,-0.2426667 0.0933,-0.093333 0.24267,-0.093333 z"
       style="font-weight:normal;font-size:9.33333302px;font-family:Comfortaa, sans-serif;letter-spacing:2.5px;fill:#333333"
       id="path86" />
    <path
       d="m -366.0959,13 q -0.14933,0 -0.26133,-0.102667 -0.10267,-0.112 -0.10267,-0.261333 V 6.0746669 q 0,-0.1586667 0.10267,-0.2613333 0.112,-0.1026667 0.26133,-0.1026667 h 4.37734 q 0.15866,0 0.26133,0.1026667 0.10267,0.1026666 0.10267,0.252 0,0.1493333 -0.10267,0.252 -0.10267,0.093333 -0.26133,0.093333 h -4.01334 v 2.5759999 h 2.92134 q 0.15866,0 0.26133,0.1026667 0.10267,0.1026666 0.10267,0.252 0,0.1493333 -0.112,0.2519999 -0.10267,0.1026667 -0.252,0.1026667 h -2.92134 V 12.3 h 4.01334 q 0.15866,0 0.26133,0.102667 0.10267,0.09333 0.10267,0.242666 0,0.149334 -0.10267,0.252 Q -361.5599,13 -361.71856,13 Z"
       style="font-weight:normal;font-size:9.33333302px;font-family:Comfortaa, sans-serif;letter-spacing:2.5px;fill:#333333"
       id="path88" />
    <path
       d="m -357.09611,13 q -0.18666,0 -0.29866,-0.09333 -0.112,-0.102667 -0.112,-0.270667 V 6.0746669 q 0,-0.1586667 0.10266,-0.2613333 0.10267,-0.1026667 0.26134,-0.1026667 h 2.268 q 0.56,0 1.008,0.2426667 0.45733,0.2333333 0.71866,0.6533333 0.27067,0.42 0.27067,0.9426666 0,0.4946667 -0.27067,0.8866667 -0.26133,0.3919999 -0.70933,0.6066666 0.644,0.1773333 1.01733,0.644 0.37334,0.4573332 0.37334,1.1573332 0,0.625333 -0.28934,1.12 -0.28933,0.485333 -0.80266,0.765333 Q -354.06277,13 -354.71611,13 Z m 2.22134,-4.2466665 q 0.56933,0 0.924,-0.3173333 0.364,-0.3266667 0.364,-0.8866667 0,-0.5413333 -0.35467,-0.84 -0.35467,-0.2986666 -0.93333,-0.2986666 h -1.904 V 8.7533335 Z M -354.71611,12.3 q 0.68134,0 1.10134,-0.392 0.42933,-0.401333 0.42933,-1.064 0,-0.634667 -0.42933,-1.0079999 -0.42,-0.3826666 -1.10134,-0.3826666 h -2.06266 V 12.3 Z"
       style="font-weight:normal;font-size:9.33333302px;font-family:Comfortaa, sans-serif;letter-spacing:2.5px;fill:#333333"
       id="path90" />
  </g>
  <g
     id="g37"
     transform="rotate(-90,200.5,175.5)">
    <g
       aria-label="BGA"
       style="font-weight:bold;font-size:9.33333302px;font-family:Audiowide, sans-serif;letter-spacing:2px;fill:#333333"
       id="text33">
      <path
         d="m 7.2096352,-1.4355468 q 0,0.21875 -0.077474,0.469401 -0.072917,0.25065103 -0.2460937,0.46484373 -0.1686198,0.2141927 -0.4420573,0.36002603 Q 6.1705727,0 5.7740883,0 H 1.2760416 Q 1.1484375,0 1.0390625,-0.04557292 0.92968747,-0.09114583 0.84765622,-0.16861979 q -0.077474,-0.0820312 -0.12304687,-0.19140624 -0.0455729,-0.109375 -0.0455729,-0.23697916 V -5.9381508 q 0,-0.1230469 0.0455729,-0.2324219 0.0455729,-0.109375 0.12304687,-0.1914062 0.0820313,-0.082031 0.19140628,-0.1276042 0.109375,-0.045573 0.2369791,-0.045573 h 3.9648436 q 0.21875,0 0.4694011,0.077474 0.250651,0.077474 0.4648437,0.2506511 0.21875,0.1686197 0.360026,0.4420572 0.1458334,0.2734375 0.1458334,0.6699219 v 0.2233073 q 0,0.3144531 -0.1048177,0.6790364 -0.1048178,0.360026 -0.3372396,0.6835937 0.2005208,0.1230469 0.3736979,0.296224 0.1777344,0.1731771 0.3098958,0.4010416 0.1321615,0.2278646 0.2096354,0.514974 0.077474,0.2871093 0.077474,0.6334635 z M 6.0247394,-1.6634114 q 0,-0.2324219 -0.072917,-0.4147135 Q 5.878906,-2.2649739 5.7467446,-2.3971353 5.6145831,-2.5292968 5.4277342,-2.5976562 5.2408852,-2.6705728 5.0084634,-2.6705728 H 2.3378905 v -1.1940104 h 2.1373698 q 0.2324218,0 0.4192708,-0.068359 0.1868489,-0.072917 0.3190104,-0.2050781 0.1321614,-0.1321614 0.2005208,-0.3144531 0.072917,-0.186849 0.072917,-0.4192708 v -0.2233073 q 0,-0.2552083 -0.2460938,-0.2552083 h -3.376953 v 4.1653644 h 3.9101561 q 0.031901,0 0.077474,-0.00456 0.045573,-0.00456 0.082031,-0.027344 0.036458,-0.022787 0.063802,-0.077474 0.027344,-0.054687 0.027344,-0.1503906 z"
         style="font-weight:bold;font-size:9.33333302px;font-family:Audiowide, sans-serif;letter-spacing:2px;fill:#333333"
         id="path93" />
      <path
         d="m 16.683594,-0.59700519 q 0,0.12760416 -0.04557,0.23697916 -0.04557,0.109375 -0.127605,0.19140624 -0.07747,0.07747396 -0.186849,0.12304687 Q 16.214192,0 16.086588,0 h -4.274739 q -0.164063,0 -0.355469,-0.03645833 -0.186849,-0.04101563 -0.373698,-0.12304687 -0.182291,-0.0820313 -0.350911,-0.20963541 -0.16862,-0.13216146 -0.300781,-0.31445312 -0.127605,-0.18684895 -0.205079,-0.42838537 -0.07747,-0.2460938 -0.07747,-0.5514323 v -3.2083332 q 0,-0.1640625 0.03646,-0.3509115 0.04101,-0.1914062 0.123047,-0.3736979 0.08203,-0.1868489 0.214192,-0.3554687 0.132162,-0.1686198 0.314453,-0.296224 0.186849,-0.1321614 0.428386,-0.2096354 0.241536,-0.077474 0.546875,-0.077474 h 4.817057 v 1.1848958 h -4.817057 q -0.232422,0 -0.355469,0.1230468 -0.123047,0.1230469 -0.123047,0.3645834 v 3.1992186 q 0,0.2278646 0.123047,0.3554687 0.127604,0.1230469 0.355469,0.1230469 h 3.686849 v -1.485677 h -3.153646 v -1.1940104 h 3.741536 q 0.127604,0 0.236979,0.05013 0.109375,0.045573 0.186849,0.1276042 0.08203,0.082031 0.127605,0.1914062 0.04557,0.1048177 0.04557,0.2278646 z"
         style="font-weight:bold;font-size:9.33333302px;font-family:Audiowide, sans-serif;letter-spacing:2px;fill:#333333"
         id="path95" />
      <path
         d="M 26.339842,0 H 25.154946 V -1.6041666 H 20.989582 V 0 h -1.184896 v -3.267578 q 0,-0.7154948 0.246094,-1.3170573 0.246094,-0.6015624 0.683594,-1.0345051 0.4375,-0.4329427 1.034505,-0.6744792 0.597005,-0.2415364 1.303385,-0.2415364 h 2.670573 q 0.123047,0 0.232422,0.045573 0.109375,0.045573 0.191406,0.1276042 0.08203,0.082031 0.127604,0.1914062 0.04557,0.109375 0.04557,0.2324219 z m -5.35026,-2.7890624 h 4.165364 v -2.5611978 h -2.082682 q -0.05469,0 -0.232422,0.018229 -0.173177,0.013672 -0.405599,0.077474 -0.227864,0.063802 -0.483072,0.1959635 -0.255209,0.1321615 -0.469402,0.3645833 -0.214192,0.2324219 -0.355468,0.5833334 -0.136719,0.3463541 -0.136719,0.8430989 z"
         style="font-weight:bold;font-size:9.33333302px;font-family:Audiowide, sans-serif;letter-spacing:2px;fill:#333333"
         id="path97" />
    </g>
    <path
       transform="translate(11.5,-5)"
       style="fill:#dddddd"
       d="M 0,0 H 3 V 3 H 0 Z"
       id="rect35" />
  </g>
  <g
     aria-label="COM"
     style="font-weight:bold;font-size:6.66666651px;font-family:Roboto, sans-serif;letter-spacing:1px;fill:#333333"
     id="text41">
    <path
       d="m 23.14388,249.42122 q -0.05534,0.76498 -0.566406,1.20443 -0.507813,0.43945 -1.341146,0.43945 -0.911458,0 -1.435547,-0.61197 -0.520833,-0.61524 -0.520833,-1.6862 v -0.28972 q 0,-0.68359 0.240885,-1.20442 0.240886,-0.52084 0.686849,-0.79753 0.449219,-0.27995 1.041667,-0.27995 0.820312,0 1.321614,0.43946 0.501303,0.43945 0.579428,1.23372 h -0.976563 q -0.03581,-0.45898 -0.257161,-0.66406 -0.218099,-0.20834 -0.667318,-0.20834 -0.488281,0 -0.732422,0.35157 -0.240885,0.3483 -0.247396,1.08398 v 0.35807 q 0,0.76823 0.23112,1.12305 0.234375,0.35482 0.735677,0.35482 0.452474,0 0.673828,-0.20508 0.22461,-0.20833 0.257162,-0.64128 z"
       style="font-weight:bold;font-size:6.66666651px;font-family:Roboto, sans-serif;letter-spacing:1px;fill:#333333"
       id="path101" />
    <path
       d="m 28.678385,248.73763 q 0,0.69987 -0.247396,1.22721 -0.247396,0.52735 -0.709635,0.81381 -0.458984,0.28645 -1.054688,0.28645 -0.589192,0 -1.051432,-0.2832 -0.462239,-0.2832 -0.716146,-0.80729 -0.253906,-0.52734 -0.257161,-1.21094 v -0.23437 q 0,-0.69987 0.250651,-1.23047 0.253906,-0.53386 0.712891,-0.81706 0.462239,-0.28646 1.054687,-0.28646 0.592448,0 1.051432,0.28646 0.46224,0.2832 0.712891,0.81706 0.253906,0.5306 0.253906,1.22721 z m -0.989583,-0.21484 q 0,-0.74545 -0.266927,-1.13282 -0.266927,-0.38737 -0.761719,-0.38737 -0.491536,0 -0.758463,0.38412 -0.266928,0.38086 -0.270183,1.11979 v 0.23112 q 0,0.72591 0.266927,1.1263 0.266927,0.40039 0.768229,0.40039 0.491537,0 0.755209,-0.38411 0.263672,-0.38737 0.266927,-1.1263 z"
       style="font-weight:bold;font-size:6.66666651px;font-family:Roboto, sans-serif;letter-spacing:1px;fill:#333333"
       id="path103" />
    <path
       d="m 31.670572,246.26042 1.217448,3.4375 1.210938,-3.4375 H 35.38151 V 251 h -0.979818 v -1.29557 L 34.499348,247.4681 33.220051,251 h -0.670573 l -1.276041,-3.52865 0.09766,2.23308 V 251 h -0.976562 v -4.73958 z"
       style="font-weight:bold;font-size:6.66666651px;font-family:Roboto, sans-serif;letter-spacing:1px;fill:#333333"
       id="path105" />
  </g>
  <g
     id="g51"
     transform="translate(5.5,260)">
    <path
       transform="translate(0,28)"
       style="fill:#fafafa"
       d="M 0,0 H 34 V 10 H 0 Z"
       id="rect45" />
    <path
       style="fill:#fafafa"
       d="m 5,0 h 24 c 2.77,0 5,2.23 5,5 v 25 c 0,2.77 -2.23,5 -5,5 H 5 C 2.23,35 0,32.77 0,30 V 5 C 0,2.23 2.23,0 5,0 Z"
       id="rect47" />
    <g
       aria-label="IN"
       transform="translate(12.5,35)"
       style="font-weight:bold;font-size:6.66666651px;font-family:Roboto, sans-serif;letter-spacing:2px;fill:#333333"
       id="text49">
      <path
         d="M 1.4615885,0 H 0.48502603 V -4.7395832 H 1.4615885 Z"
         style="font-weight:bold;font-size:6.66666651px;font-family:Roboto, sans-serif;letter-spacing:2px;fill:#333333"
         id="path110" />
      <path
         d="M 8.2174477,0 H 7.2408852 L 5.3398436,-3.1184895 V 0 H 4.3632811 v -4.7395832 h 0.9765625 l 1.9042968,3.1249999 v -3.1249999 h 0.9733073 z"
         style="font-weight:bold;font-size:6.66666651px;font-family:Roboto, sans-serif;letter-spacing:2px;fill:#333333"
         id="path112" />
    </g>
  </g>
  <g
     id="g59"
     transform="translate(5.5,301)">
    <path
       transform="translate(0,-3)"
       style="fill:#bbbbbb"
       d="M 0,0 H 34 V 10 H 0 Z"
       id="rect53" />
    <path
       style="fill:#bbbbbb"
       d="m 5,0 h 24 c 2.77,0 5,2.23 5,5 v 25 c 0,2.77 -2.23,5 -5,5 H 5 C 2.23,35 0,32.77 0,30 V 5 C 0,2.23 2.23,0 5,0 Z"
       id="rect55" />
    <g
       aria-label="OUT"
       transform="translate(8.3,32)"
       style="font-weight:bold;font-size:6.66666651px;font-family:Roboto, sans-serif;letter-spacing:2px;fill:#333333"
       id="text57">
      <path
         d="m 4.3164061,-2.2623697 q 0,0.6998697 -0.2473958,1.2272135 -0.2473958,0.52734371 -0.7096354,0.81380204 -0.4589843,0.28645833 -1.0546875,0.28645833 -0.5891926,0 -1.0514322,-0.28320312 Q 0.79101561,-0.50130207 0.53710936,-1.0253906 0.28320312,-1.5527343 0.27994791,-2.2363281 v -0.234375 q 0,-0.6998697 0.25065104,-1.2304687 0.25390624,-0.5338541 0.71289065,-0.8170573 0.4622395,-0.2864583 1.0546874,-0.2864583 0.5924479,0 1.0514323,0.2864583 0.4622396,0.2832032 0.7128906,0.8170573 0.2539062,0.530599 0.2539062,1.2272135 z M 3.3268228,-2.4772135 q 0,-0.7454427 -0.266927,-1.1328125 -0.2669271,-0.3873697 -0.7617188,-0.3873697 -0.4915364,0 -0.7584635,0.3841145 -0.2669271,0.3808594 -0.2701823,1.1197917 v 0.2311198 q 0,0.7259114 0.2669271,1.126302 0.2669271,0.40039063 0.7682291,0.40039063 0.4915365,0 0.7552084,-0.38411453 0.2636718,-0.3873698 0.266927,-1.1263021 z"
         style="font-weight:bold;font-size:6.66666651px;font-family:Roboto, sans-serif;letter-spacing:2px;fill:#333333"
         id="path117" />
      <path
         d="m 10.619792,-4.7395832 v 3.1217447 q 0,0.77799477 -0.488282,1.23046872 -0.4850257,0.45247395 -1.3281246,0.45247395 -0.8300781,0 -1.3183594,-0.43945312 Q 6.9967448,-0.81380206 6.9869792,-1.5820312 v -3.157552 h 0.9765624 v 3.1282551 q 0,0.4654948 0.2213542,0.68033854 0.2246094,0.21158854 0.6184896,0.21158854 0.8235677,0 0.8365885,-0.86588538 v -3.1542968 z"
         style="font-weight:bold;font-size:6.66666651px;font-family:Roboto, sans-serif;letter-spacing:2px;fill:#333333"
         id="path119" />
      <path
         d="M 16.988281,-3.9485676 H 15.536458 V 0 h -0.976563 v -3.9485676 h -1.432291 v -0.7910156 h 3.860677 z"
         style="font-weight:bold;font-size:6.66666651px;font-family:Roboto, sans-serif;letter-spacing:2px;fill:#333333"
         id="path121" />
    </g>
  </g>
</svg>
