<?xml version="1.0" encoding="UTF-8" standalone="no"?>
<svg xmlns:dc="http://purl.org/dc/elements/1.1/" xmlns:cc="http://creativecommons.org/ns#" xmlns:rdf="http://www.w3.org/1999/02/22-rdf-syntax-ns#" xmlns:svg="http://www.w3.org/2000/svg" xmlns="http://www.w3.org/2000/svg" xmlns:sodipodi="http://sodipodi.sourceforge.net/DTD/sodipodi-0.dtd" xmlns:inkscape="http://www.inkscape.org/namespaces/inkscape" inkscape:version="1.0 (4035a4f, 2020-05-01)" sodipodi:docname="svg_render_TestVCF-pp.svg" id="svg62300" viewBox="0 0 180 380" height="380" width="180" version="1.1">
  <metadata id="metadata62304">
    <rdf:RDF>
      <cc:Work rdf:about="">
        <dc:format>image/svg+xml</dc:format>
        <dc:type rdf:resource="http://purl.org/dc/dcmitype/StillImage"/>
      </cc:Work>
    </rdf:RDF>
  </metadata>
  <sodipodi:namedview inkscape:current-layer="svg62300" inkscape:window-maximized="0" inkscape:window-y="23" inkscape:window-x="0" inkscape:cy="190" inkscape:cx="90" inkscape:zoom="1.7605263" showgrid="false" id="namedview62302" inkscape:window-height="480" inkscape:window-width="689" inkscape:pageshadow="2" inkscape:pageopacity="0" guidetolerance="10" gridtolerance="10" objecttolerance="10" borderopacity="1" bordercolor="#666666" pagecolor="#ffffff"/>
  
  <defs id="defs62154">
    <symbol viewBox="0 0 50px 50px" id="dial-cutoff-testvcf">
      <g id="g62126" transform="translate(25 25)">
        <text id="text62104" transform="rotate(-240) translate(24 0) rotate(240) translate(-4 3)" font-size="6.0pt">0</text>
        <polyline id="polyline62106" transform="rotate(-210) translate(22 0)" stroke="#333" stroke-width="0.5" points="0,0 3,0"/>
        <polyline id="polyline62108" transform="rotate(-180) translate(22 0)" stroke="#333" stroke-width="0.5" points="0,0 3,0"/>
        <polyline id="polyline62110" transform="rotate(-150) translate(22 0)" stroke="#333" stroke-width="0.5" points="0,0 3,0"/>
        <polyline id="polyline62112" transform="rotate(-120) translate(22 0)" stroke="#333" stroke-width="0.5" points="0,0 3,0"/>
        <polyline id="polyline62114" transform="rotate(-90) translate(22 0)" stroke="#333" stroke-width="0.5" points="0,0 3,0"/>
        <polyline id="polyline62116" transform="rotate(-60) translate(22 0)" stroke="#333" stroke-width="0.5" points="0,0 3,0"/>
        <polyline id="polyline62118" transform="rotate(-30) translate(22 0)" stroke="#333" stroke-width="0.5" points="0,0 3,0"/>
        <polyline id="polyline62120" transform="rotate(0) translate(22 0)" stroke="#333" stroke-width="0.5" points="0,0 3,0"/>
        <polyline id="polyline62122" transform="rotate(30) translate(22 0)" stroke="#333" stroke-width="0.5" points="0,0 3,0"/>
        <polyline id="polyline62124" transform="rotate(60) translate(22 0)" stroke="#333" stroke-width="1" points="0,0 4,0"/>
      </g>
    </symbol>
    <symbol viewBox="0 0 50px 50px" id="dial-resonance-testvcf">
      <g id="g62151" transform="translate(25 25)">
        <text id="text62129" transform="rotate(-240) translate(24 0) rotate(240) translate(-4 3)" font-size="6.0pt">0</text>
        <polyline id="polyline62131" transform="rotate(-210) translate(22 0)" stroke="#333" stroke-width="0.5" points="0,0 3,0"/>
        <polyline id="polyline62133" transform="rotate(-180) translate(22 0)" stroke="#333" stroke-width="0.5" points="0,0 3,0"/>
        <polyline id="polyline62135" transform="rotate(-150) translate(22 0)" stroke="#333" stroke-width="0.5" points="0,0 3,0"/>
        <polyline id="polyline62137" transform="rotate(-120) translate(22 0)" stroke="#333" stroke-width="0.5" points="0,0 3,0"/>
        <polyline id="polyline62139" transform="rotate(-90) translate(22 0)" stroke="#333" stroke-width="0.5" points="0,0 3,0"/>
        <polyline id="polyline62141" transform="rotate(-60) translate(22 0)" stroke="#333" stroke-width="0.5" points="0,0 3,0"/>
        <polyline id="polyline62143" transform="rotate(-30) translate(22 0)" stroke="#333" stroke-width="0.5" points="0,0 3,0"/>
        <polyline id="polyline62145" transform="rotate(0) translate(22 0)" stroke="#333" stroke-width="0.5" points="0,0 3,0"/>
        <polyline id="polyline62147" transform="rotate(30) translate(22 0)" stroke="#333" stroke-width="0.5" points="0,0 3,0"/>
        <polyline id="polyline62149" transform="rotate(60) translate(22 0)" stroke="#333" stroke-width="1" points="0,0 4,0"/>
      </g>
    </symbol>
  </defs>
  <path d="M 0,0 H 180 V 380 H 0 Z" style="fill:#dddddd" id="rect62156"/>
  <path d="M 1,1 H 179 V 379 H 1 V 1" style="fill:none;stroke:#e4e4e4;stroke-width:0.5" id="polyline62158"/>
  <path d="m 0.5,0.5 h 179 v 379 H 0.5 V 0.5" style="fill:none;stroke:#ebebeb;stroke-width:0.8" id="polyline62160"/>
  <path d="M 0,0 H 180 V 380 H 0 V 0" style="fill:none;stroke:#f2f2f2;stroke-width:1" id="polyline62162"/>
  <g class="title" style="font-weight:normal;font-size:16px;font-family:Comfortaa, sans-serif;letter-spacing:4px;fill:#333333" id="text62164" aria-label="VCF">
    <path id="path62665" style="font-weight:normal;font-size:16px;font-family:Comfortaa, sans-serif;letter-spacing:4px;fill:#333333" d="m 80.592,6.504 q 0.256,0 0.4,0.16 0.16,0.16 0.16,0.4 0,0.16 -0.08,0.352 L 76.304,18.6 Q 76.128,19 75.744,19 75.536,19 75.392,18.92 75.264,18.824 75.168,18.6 L 70.416,7.48 Q 70.32,7.24 70.32,7.064 q 0,-0.256 0.16,-0.4 0.176,-0.16 0.448,-0.16 0.416,0 0.576,0.4 l 4.24,10.144 4.224,-10.112 q 0.096,-0.24 0.24,-0.336 0.144,-0.096 0.384,-0.096 z"/>
    <path id="path62667" style="font-weight:normal;font-size:16px;font-family:Comfortaa, sans-serif;letter-spacing:4px;fill:#333333" d="m 91.87225,19.16 q -1.696,0 -3.12,-0.864 -1.424,-0.864 -2.272,-2.336 -0.832,-1.472 -0.832,-3.216 0,-1.728 0.832,-3.2 0.832,-1.472 2.256,-2.336 1.424,-0.864 3.136,-0.864 1.152,0 2.096,0.336 0.944,0.336 1.824,1.072 0.176,0.128 0.176,0.368 0,0.128 -0.064,0.24 -0.064,0.096 -0.176,0.144 -0.032,0.112 -0.144,0.176 -0.112,0.064 -0.24,0.064 -0.24,0 -0.4,-0.144 -0.624,-0.56 -1.36,-0.816 -0.736,-0.256 -1.712,-0.256 -1.344,0 -2.496,0.72 -1.152,0.704 -1.84,1.904 -0.672,1.2 -0.672,2.592 0,1.424 0.672,2.624 0.672,1.2 1.824,1.904 1.152,0.704 2.512,0.704 1.744,0 3.152,-1.12 0.176,-0.128 0.352,-0.128 0.24,0 0.416,0.176 0.176,0.16 0.176,0.432 0,0.256 -0.176,0.448 -1.504,1.376 -3.92,1.376 z"/>
    <path id="path62669" style="font-weight:normal;font-size:16px;font-family:Comfortaa, sans-serif;letter-spacing:4px;fill:#333333" d="m 102.232,19 q -0.256,0 -0.448,-0.176 -0.176,-0.192 -0.176,-0.448 V 7.128 q 0,-0.272 0.176,-0.448 0.192,-0.176 0.448,-0.176 h 7.504 q 0.272,0 0.448,0.176 0.176,0.176 0.176,0.432 0,0.256 -0.176,0.432 -0.176,0.16 -0.448,0.16 h -6.88 v 4.416 h 5.008 q 0.272,0 0.448,0.176 0.176,0.16 0.176,0.432 0,0.256 -0.176,0.432 -0.176,0.176 -0.448,0.176 h -5.008 v 5.04 q 0,0.256 -0.176,0.448 Q 102.504,19 102.232,19 Z"/>
  </g>
  <g class="brand" style="font-weight:bold;font-size:10.6667px;font-family:Audiowide, sans-serif;letter-spacing:2px;fill:#333333" id="text62166" aria-label="BOGAUDIO">
    <path id="path62648" style="font-weight:bold;font-size:10.6667px;font-family:Audiowide, sans-serif;letter-spacing:2px;fill:#333333" d="m 58.239609,372.35937 q 0,0.25 -0.08854,0.53646 -0.08333,0.28646 -0.28125,0.53125 -0.192709,0.24479 -0.50521,0.41146 Q 57.052106,374 56.598979,374 h -5.140641 q -0.145834,0 -0.270834,-0.0521 -0.125001,-0.0521 -0.218751,-0.14063 -0.08854,-0.0937 -0.140625,-0.21875 -0.05208,-0.125 -0.05208,-0.27083 v -6.10419 q 0,-0.14063 0.05208,-0.26563 0.05208,-0.125 0.140625,-0.21875 0.09375,-0.0937 0.218751,-0.14583 0.125,-0.0521 0.270834,-0.0521 h 4.531264 q 0.250001,0 0.53646,0.0885 0.28646,0.0885 0.531252,0.28646 0.250001,0.19271 0.41146,0.50521 0.166667,0.3125 0.166667,0.76562 v 0.25521 q 0,0.35938 -0.119792,0.77605 -0.119792,0.41146 -0.385418,0.78125 0.229167,0.14063 0.427085,0.33854 0.203125,0.19792 0.354167,0.45834 0.151042,0.26042 0.239584,0.58854 0.08854,0.32813 0.08854,0.72396 z m -1.354171,-0.26042 q 0,-0.26562 -0.08333,-0.47396 -0.08333,-0.21354 -0.234376,-0.36458 -0.151042,-0.15104 -0.364584,-0.22917 -0.213543,-0.0833 -0.479169,-0.0833 h -3.052093 v -1.36459 h 2.442716 q 0.265626,0 0.479169,-0.0781 0.213542,-0.0833 0.364584,-0.23437 0.151042,-0.15104 0.229168,-0.35938 0.08333,-0.21354 0.08333,-0.47917 v -0.25521 q 0,-0.29166 -0.281251,-0.29166 h -3.859387 v 4.76043 h 4.468764 q 0.03646,0 0.08854,-0.005 0.05208,-0.005 0.09375,-0.0312 0.04167,-0.026 0.07292,-0.0885 0.03125,-0.0625 0.03125,-0.17188 z"/>
    <path id="path62650" style="font-weight:bold;font-size:10.6667px;font-family:Audiowide, sans-serif;letter-spacing:2px;fill:#333333" d="m 69.250055,370.97916 q 0,0.68229 -0.234376,1.25521 -0.234376,0.57292 -0.651044,0.98959 -0.416668,0.41666 -0.989586,0.65104 -0.56771,0.22917 -1.239587,0.22917 h -1.833339 q -0.671878,0 -1.244796,-0.22917 -0.572918,-0.23438 -0.989586,-0.65104 -0.416668,-0.41667 -0.656253,-0.98959 -0.234375,-0.57292 -0.234375,-1.25521 v -1.42709 q 0,-0.67709 0.234375,-1.25 0.239585,-0.57813 0.656253,-0.98959 0.416668,-0.41667 0.989586,-0.65104 0.572918,-0.23438 1.244796,-0.23438 h 1.833339 q 0.671877,0 1.239587,0.23438 0.572918,0.23437 0.989586,0.65104 0.416668,0.41146 0.651044,0.98959 0.234376,0.57291 0.234376,1.25 z m -1.354171,-1.42709 q 0,-0.40104 -0.130209,-0.72396 -0.125,-0.32813 -0.359376,-0.55729 -0.229167,-0.23438 -0.557293,-0.35938 -0.322918,-0.13021 -0.713544,-0.13021 h -1.833339 q -0.395835,0 -0.723961,0.13021 -0.322918,0.125 -0.557293,0.35938 -0.234376,0.22916 -0.364585,0.55729 -0.125,0.32292 -0.125,0.72396 v 1.42709 q 0,0.40104 0.125,0.72917 0.130209,0.32291 0.364585,0.55729 0.234375,0.22917 0.557293,0.35938 0.328126,0.125 0.723961,0.125 h 1.822922 q 0.395835,0 0.718752,-0.125 0.328126,-0.13021 0.562502,-0.35938 0.234376,-0.23438 0.359376,-0.55729 0.130209,-0.32813 0.130209,-0.72917 z"/>
    <path id="path62652" style="font-weight:bold;font-size:10.6667px;font-family:Audiowide, sans-serif;letter-spacing:2px;fill:#333333" d="m 79.968833,373.31771 q 0,0.14583 -0.05208,0.27083 -0.05208,0.125 -0.145833,0.21875 -0.08854,0.0885 -0.213543,0.14063 Q 79.432373,374 79.286539,374 h -4.885432 q -0.187501,0 -0.406251,-0.0417 -0.213543,-0.0469 -0.427085,-0.14062 -0.208334,-0.0937 -0.401043,-0.23959 -0.192709,-0.15104 -0.343751,-0.35937 -0.145834,-0.21354 -0.234376,-0.48959 -0.08854,-0.28125 -0.08854,-0.63021 v -3.66668 q 0,-0.1875 0.04167,-0.40104 0.04687,-0.21875 0.140626,-0.42708 0.09375,-0.21355 0.244792,-0.40625 0.151042,-0.19271 0.359376,-0.33855 0.213543,-0.15104 0.489585,-0.23958 0.276043,-0.0885 0.625002,-0.0885 h 5.505226 v 1.35417 h -5.505226 q -0.265626,0 -0.406251,0.14062 -0.140626,0.14063 -0.140626,0.41667 v 3.65626 q 0,0.26042 0.140626,0.40625 0.145834,0.14063 0.406251,0.14063 h 4.213555 v -1.69792 h -3.604178 v -1.36459 h 4.276055 q 0.145834,0 0.270834,0.0573 0.125001,0.0521 0.213543,0.14584 0.09375,0.0937 0.145833,0.21875 0.05208,0.11979 0.05208,0.26041 z"/>
    <path id="path62654" style="font-weight:bold;font-size:10.6667px;font-family:Audiowide, sans-serif;letter-spacing:2px;fill:#333333" d="M 90.718861,374 H 89.36469 v -1.83334 H 84.604258 V 374 h -1.354171 v -3.73439 q 0,-0.81771 0.281251,-1.50521 0.281251,-0.6875 0.781253,-1.1823 0.500001,-0.49479 1.182295,-0.77083 0.682294,-0.27604 1.489588,-0.27604 h 3.052093 q 0.140625,0 0.265626,0.0521 0.125,0.0521 0.218751,0.14583 0.09375,0.0937 0.145833,0.21875 0.05208,0.125 0.05208,0.26563 z m -6.114603,-3.18751 h 4.760432 v -2.92709 h -2.380216 q -0.0625,0 -0.265626,0.0208 -0.197917,0.0156 -0.463543,0.0885 -0.260417,0.0729 -0.552085,0.22396 -0.291668,0.15104 -0.53646,0.41667 -0.244792,0.26563 -0.406251,0.66667 -0.156251,0.39583 -0.156251,0.96354 z"/>
    <path id="path62656" style="font-weight:bold;font-size:10.6667px;font-family:Audiowide, sans-serif;letter-spacing:2px;fill:#333333" d="m 101.60431,373.31771 q 0,0.14583 -0.0521,0.27083 -0.0521,0.125 -0.14583,0.21875 -0.0937,0.0885 -0.21875,0.14063 -0.125,0.0521 -0.26563,0.0521 h -3.05209 q -0.432293,0 -0.875003,-0.0937 -0.44271,-0.0937 -0.859378,-0.28646 -0.411459,-0.19792 -0.776044,-0.5 -0.364584,-0.30209 -0.640627,-0.71355 -0.270834,-0.41666 -0.427084,-0.94791 -0.156251,-0.53646 -0.156251,-1.19272 v -3.73438 h 1.354171 v 3.73438 q 0,0.57292 0.156251,0.96876 0.161458,0.39583 0.406251,0.66146 0.244792,0.26562 0.53646,0.41666 0.291667,0.15105 0.552085,0.22396 0.265626,0.0729 0.463543,0.0937 0.203126,0.0156 0.265626,0.0156 h 2.38022 v -6.1146 h 1.35417 z"/>
    <path id="path62658" style="font-weight:bold;font-size:10.6667px;font-family:Audiowide, sans-serif;letter-spacing:2px;fill:#333333" d="m 112.63558,370.87499 q 0,0.68229 -0.23958,1.25521 -0.23438,0.57292 -0.65105,0.98959 -0.41666,0.41146 -0.98958,0.64583 Q 110.18245,374 109.51057,374 h -3.65626 q -0.14583,0 -0.27083,-0.0521 -0.125,-0.0521 -0.21875,-0.14063 -0.0885,-0.0937 -0.14063,-0.21875 -0.0521,-0.125 -0.0521,-0.27083 v -6.10419 q 0,-0.14063 0.0521,-0.26563 0.0521,-0.125 0.14063,-0.21875 0.0937,-0.0937 0.21875,-0.14583 0.125,-0.0521 0.27083,-0.0521 h 3.65626 q 0.67188,0 1.2448,0.23437 0.57292,0.23438 0.98958,0.65105 0.41667,0.41146 0.65105,0.98958 0.23958,0.57292 0.23958,1.25001 z m -1.35417,-1.21875 q 0,-0.39584 -0.13021,-0.72396 -0.125,-0.32813 -0.35937,-0.5573 -0.23438,-0.23437 -0.56251,-0.35937 -0.32291,-0.13021 -0.71875,-0.13021 h -2.98438 v 4.76043 h 2.98438 q 0.39584,0 0.71875,-0.125 0.32813,-0.13021 0.56251,-0.35938 0.23437,-0.23437 0.35937,-0.55729 0.13021,-0.32813 0.13021,-0.72917 z"/>
    <path id="path62660" style="font-weight:bold;font-size:10.6667px;font-family:Audiowide, sans-serif;letter-spacing:2px;fill:#333333" d="m 117.33872,374 h -1.35417 v -7.46877 h 1.35417 z"/>
    <path id="path62662" style="font-weight:bold;font-size:10.6667px;font-family:Audiowide, sans-serif;letter-spacing:2px;fill:#333333" d="m 128.77104,370.97916 q 0,0.68229 -0.23438,1.25521 -0.23437,0.57292 -0.65104,0.98959 -0.41667,0.41666 -0.98959,0.65104 -0.56771,0.22917 -1.23958,0.22917 h -1.83334 q -0.67188,0 -1.2448,-0.22917 -0.57292,-0.23438 -0.98959,-0.65104 -0.41666,-0.41667 -0.65625,-0.98959 -0.23437,-0.57292 -0.23437,-1.25521 v -1.42709 q 0,-0.67709 0.23437,-1.25 0.23959,-0.57813 0.65625,-0.98959 0.41667,-0.41667 0.98959,-0.65104 0.57292,-0.23438 1.2448,-0.23438 h 1.83334 q 0.67187,0 1.23958,0.23438 0.57292,0.23437 0.98959,0.65104 0.41667,0.41146 0.65104,0.98959 0.23438,0.57291 0.23438,1.25 z m -1.35417,-1.42709 q 0,-0.40104 -0.13021,-0.72396 -0.125,-0.32813 -0.35938,-0.55729 -0.22916,-0.23438 -0.55729,-0.35938 -0.32292,-0.13021 -0.71354,-0.13021 h -1.83334 q -0.39584,0 -0.72396,0.13021 -0.32292,0.125 -0.5573,0.35938 -0.23437,0.22916 -0.36458,0.55729 -0.125,0.32292 -0.125,0.72396 v 1.42709 q 0,0.40104 0.125,0.72917 0.13021,0.32291 0.36458,0.55729 0.23438,0.22917 0.5573,0.35938 0.32812,0.125 0.72396,0.125 h 1.82292 q 0.39583,0 0.71875,-0.125 0.32813,-0.13021 0.5625,-0.35938 0.23438,-0.23438 0.35938,-0.55729 0.13021,-0.32813 0.13021,-0.72917 z"/>
  </g>
  <path d="m 74,369 h 3 v 3 h -3 z" style="fill:#dddddd" id="rect62168"/>
  <g style="font-weight:bold;font-size:10.6667px;font-family:Roboto, sans-serif;letter-spacing:2px;fill:#333333" id="text62172" transform="rotate(-90)" aria-label="CUTOFF">
    <path id="path62634" style="font-weight:bold;font-size:10.6667px;font-family:Roboto, sans-serif;letter-spacing:2px;fill:#333333" d="m -88.369771,26.47395 q -0.08854,1.223963 -0.906253,1.92709 -0.812502,0.703127 -2.14584,0.703127 -1.458338,0 -2.296882,-0.97917 -0.833336,-0.984378 -0.833336,-2.697925 v -0.463543 q 0,-1.093754 0.385418,-1.92709 0.385418,-0.833335 1.098962,-1.276045 0.718752,-0.447918 1.666672,-0.447918 1.312504,0 2.11459,0.703127 0.802086,0.703127 0.927086,1.973965 h -1.562505 q -0.05729,-0.734378 -0.41146,-1.062504 -0.348959,-0.333334 -1.067711,-0.333334 -0.781253,0 -1.171879,0.562502 -0.385418,0.557293 -0.395835,1.73438 v 0.572918 q 0,1.229171 0.369793,1.796881 0.375001,0.56771 1.177087,0.56771 0.723961,0 1.078129,-0.328126 0.359376,-0.333334 0.411459,-1.026045 z"/>
    <path id="path62636" style="font-weight:bold;font-size:10.6667px;font-family:Roboto, sans-serif;letter-spacing:2px;fill:#333333" d="m -79.604124,21.416643 v 4.994807 q 0,1.244796 -0.781253,1.968756 -0.776044,0.723961 -2.125006,0.723961 -1.32813,0 -2.109382,-0.703127 -0.781252,-0.703127 -0.796878,-1.932298 v -5.052099 h 1.562505 v 5.005224 q 0,0.744794 0.354168,1.088545 0.359376,0.338543 0.989587,0.338543 1.317712,0 1.338546,-1.385421 v -5.046891 z"/>
    <path id="path62638" style="font-weight:bold;font-size:10.6667px;font-family:Roboto, sans-serif;letter-spacing:2px;fill:#333333" d="m -70.614519,22.682272 h -2.322924 V 29 h -1.562505 v -6.317728 h -2.291674 v -1.265629 h 6.177103 z"/>
    <path id="path62640" style="font-weight:bold;font-size:10.6667px;font-family:Roboto, sans-serif;letter-spacing:2px;fill:#333333" d="m -61.635331,25.380197 q 0,1.119795 -0.395835,1.963548 -0.395834,0.843752 -1.13542,1.302087 -0.734377,0.458335 -1.687505,0.458335 -0.942712,0 -1.682297,-0.453126 -0.739586,-0.453127 -1.145837,-1.291671 -0.406252,-0.843753 -0.41146,-1.937506 v -0.375001 q 0,-1.119796 0.401043,-1.968757 0.406251,-0.854169 1.140629,-1.307296 0.739585,-0.458334 1.687505,-0.458334 0.94792,0 1.682297,0.458334 0.739586,0.453127 1.140628,1.307296 0.406252,0.848961 0.406252,1.963548 z m -1.583339,-0.343751 q 0,-1.192712 -0.427084,-1.812506 -0.427085,-0.619794 -1.218754,-0.619794 -0.786461,0 -1.213546,0.614586 -0.427084,0.609377 -0.432293,1.791672 v 0.369793 q 0,1.161462 0.427085,1.802089 0.427085,0.640627 1.229171,0.640627 0.78646,0 1.208337,-0.614585 0.421876,-0.619794 0.427084,-1.802089 z"/>
    <path id="path62642" style="font-weight:bold;font-size:10.6667px;font-family:Roboto, sans-serif;letter-spacing:2px;fill:#333333" d="m -53.92698,25.901032 h -3.00001 V 29 h -1.562505 v -7.583357 h 4.937516 v 1.265629 h -3.375011 v 1.958339 h 3.00001 z"/>
    <path id="path62644" style="font-weight:bold;font-size:10.6667px;font-family:Roboto, sans-serif;letter-spacing:2px;fill:#333333" d="m -46.072793,25.901032 h -3.00001 V 29 h -1.562505 v -7.583357 h 4.937516 v 1.265629 h -3.375011 v 1.958339 h 3.00001 z"/>
  </g>
  <g transform="translate(40,50)" id="g62174"/>
  <g transform="translate(34,44)" id="use62176">
    <g transform="translate(25,25)" id="g62387">
      <g style="font-weight:bold;font-size:8px;font-family:Roboto, sans-serif;fill:#333333" id="text62365" transform="translate(-16,23.78461)" aria-label="0">
        <path id="path62621" style="font-weight:bold;font-size:8px;font-family:Roboto, sans-serif;fill:#333333" d="m 4.2148437,-2.3515625 q 0,1.1796875 -0.4882812,1.8046875 -0.4882812,0.625 -1.4296875,0.625 -0.9296875,0 -1.421875,-0.61328125 Q 0.3828125,-1.1484375 0.37109375,-2.2929688 v -1.046875 q 0,-1.1914062 0.4921875,-1.8085937 Q 1.359375,-5.765625 2.2890625,-5.765625 q 0.9296875,0 1.421875,0.6132813 0.4921875,0.609375 0.5039062,1.7539062 z M 3.0859375,-3.5 q 0,-0.7070312 -0.1953125,-1.0273437 -0.1914062,-0.3242188 -0.6015625,-0.3242188 -0.3984375,0 -0.5898438,0.3085938 Q 1.5117187,-4.2382812 1.5,-3.5859375 v 1.3828125 q 0,0.6953125 0.1875,1.0351563 0.1914062,0.33593745 0.609375,0.33593745 0.4140625,0 0.5976563,-0.32421875 0.1835937,-0.3242187 0.1914062,-0.9921875 z"/>
      </g>
      <path d="M 0,0 H 3" style="stroke:#333333;stroke-width:0.5" transform="rotate(150,-11,2.9474411)" id="polyline62367"/>
      <path d="M 0,0 H 3" style="stroke:#333333;stroke-width:0.5" transform="rotate(180,-11,0)" id="polyline62369"/>
      <path d="M 0,0 H 3" style="stroke:#333333;stroke-width:0.5" transform="rotate(-150,-11,-2.9474411)" id="polyline62371"/>
      <path d="M 0,0 H 3" style="stroke:#333333;stroke-width:0.5" transform="rotate(-120,-11,-6.350853)" id="polyline62373"/>
      <path d="M 0,0 H 3" style="stroke:#333333;stroke-width:0.5" transform="rotate(-90,-11,-11)" id="polyline62375"/>
      <path d="M 0,0 H 3" style="stroke:#333333;stroke-width:0.5" transform="rotate(-60,-11,-19.052559)" id="polyline62377"/>
      <path d="M 0,0 H 3" style="stroke:#333333;stroke-width:0.5" transform="rotate(-30,-11,-41.052559)" id="polyline62379"/>
      <path d="M 0,0 H 3" style="stroke:#333333;stroke-width:0.5" transform="translate(22)" id="polyline62381"/>
      <path d="M 0,0 H 3" style="stroke:#333333;stroke-width:0.5" transform="rotate(30,-11,41.052559)" id="polyline62383"/>
      <path d="M 0,0 H 4" style="stroke:#333333;stroke-width:1" transform="rotate(60,-11,19.052559)" id="polyline62385"/>
    </g>
  </g>
  <g style="font-weight:bold;font-size:10.6667px;font-family:Roboto, sans-serif;letter-spacing:1px;fill:#333333" id="text62180" transform="rotate(-90)" aria-label="RES/BW">
    <path id="path62608" style="font-weight:bold;font-size:10.6667px;font-family:Roboto, sans-serif;letter-spacing:1px;fill:#333333" d="m -161.51561,26.22395 h -1.2448 V 29 h -1.5625 v -7.583357 h 2.81771 q 1.34376,0 2.07293,0.59896 0.72916,0.59896 0.72916,1.692714 0,0.776044 -0.33854,1.296879 -0.33333,0.515626 -1.01563,0.822919 l 1.64063,3.098968 V 29 h -1.67708 z m -1.2448,-1.265629 h 1.26042 q 0.58854,0 0.91146,-0.296876 0.32292,-0.302085 0.32292,-0.828128 0,-0.53646 -0.30729,-0.843753 -0.30209,-0.307292 -0.9323,-0.307292 h -1.25521 z"/>
    <path id="path62610" style="font-weight:bold;font-size:10.6667px;font-family:Roboto, sans-serif;letter-spacing:1px;fill:#333333" d="m -151.94788,25.713531 h -3.00001 v 2.031257 h 3.52085 V 29 h -5.08335 v -7.583357 h 5.07293 v 1.265629 h -3.51043 v 1.807297 h 3.00001 z"/>
    <path id="path62612" style="font-weight:bold;font-size:10.6667px;font-family:Roboto, sans-serif;letter-spacing:1px;fill:#333333" d="m -145.57807,27.01041 q 0,-0.442709 -0.3125,-0.677085 -0.3125,-0.239584 -1.125,-0.500002 -0.81251,-0.265626 -1.28647,-0.520835 -1.29167,-0.697919 -1.29167,-1.880214 0,-0.614585 0.34375,-1.093753 0.34896,-0.484377 0.9948,-0.755211 0.65104,-0.270834 1.45834,-0.270834 0.8125,0 1.44792,0.296876 0.63542,0.291667 0.98438,0.828127 0.35416,0.53646 0.35416,1.218754 h -1.5625 q 0,-0.520835 -0.32813,-0.807294 -0.32812,-0.291668 -0.92188,-0.291668 -0.57291,0 -0.89062,0.244793 -0.31771,0.239584 -0.31771,0.635418 0,0.369793 0.36979,0.619794 0.375,0.250001 1.09896,0.468752 1.33334,0.401042 1.94272,0.994794 0.60937,0.593752 0.60937,1.479172 0,0.984378 -0.74479,1.54688 -0.7448,0.557293 -2.00522,0.557293 -0.875,0 -1.59375,-0.317709 -0.71875,-0.322918 -1.09896,-0.880211 -0.375,-0.557294 -0.375,-1.291671 h 1.56771 q 0,1.255212 1.5,1.255212 0.5573,0 0.8698,-0.223959 0.3125,-0.229167 0.3125,-0.635419 z"/>
    <path id="path62614" style="font-weight:bold;font-size:10.6667px;font-family:Roboto, sans-serif;letter-spacing:1px;fill:#333333" d="m -141.57285,29.651044 h -1.1198 l 2.79168,-8.234401 h 1.11979 z"/>
    <path id="path62616" style="font-weight:bold;font-size:10.6667px;font-family:Roboto, sans-serif;letter-spacing:1px;fill:#333333" d="m -136.96867,29 v -7.583357 h 2.65625 q 1.38022,0 2.09376,0.531251 0.71354,0.526044 0.71354,1.54688 0,0.557294 -0.28645,0.984378 -0.28646,0.421877 -0.79688,0.619794 0.58333,0.145834 0.91667,0.588544 0.33854,0.442709 0.33854,1.083336 0,1.093754 -0.69792,1.656256 -0.69792,0.562501 -1.98959,0.572918 z m 1.5625,-3.302094 v 2.046882 h 1.33855 q 0.55208,0 0.85937,-0.260418 0.31251,-0.265626 0.31251,-0.729169 0,-1.04167 -1.07813,-1.057295 z m 0,-1.10417 h 1.15625 q 1.1823,-0.02083 1.1823,-0.942711 0,-0.515627 -0.30208,-0.739586 -0.29688,-0.229167 -0.94272,-0.229167 h -1.09375 z"/>
    <path id="path62618" style="font-weight:bold;font-size:10.6667px;font-family:Roboto, sans-serif;letter-spacing:1px;fill:#333333" d="m -123.24988,26.812493 1.02083,-5.39585 h 1.5573 L -122.35405,29 h -1.57292 L -125.16135,23.927067 -126.39573,29 h -1.57292 l -1.68229,-7.583357 h 1.55729 l 1.02605,5.385433 1.25,-5.385433 h 1.32292 z"/>
  </g>
  <g transform="translate(40,120)" id="g62182"/>
  <g transform="translate(34,114)" id="use62184">
    <g transform="translate(25,25)" id="g62413">
      <g style="font-weight:bold;font-size:8px;font-family:Roboto, sans-serif;fill:#333333" id="text62391" transform="translate(-16,23.78461)" aria-label="0">
        <path id="path62595" style="font-weight:bold;font-size:8px;font-family:Roboto, sans-serif;fill:#333333" d="m 4.2148437,-2.3515625 q 0,1.1796875 -0.4882812,1.8046875 -0.4882812,0.625 -1.4296875,0.625 -0.9296875,0 -1.421875,-0.61328125 Q 0.3828125,-1.1484375 0.37109375,-2.2929688 v -1.046875 q 0,-1.1914062 0.4921875,-1.8085937 Q 1.359375,-5.765625 2.2890625,-5.765625 q 0.9296875,0 1.421875,0.6132813 0.4921875,0.609375 0.5039062,1.7539062 z M 3.0859375,-3.5 q 0,-0.7070312 -0.1953125,-1.0273437 -0.1914062,-0.3242188 -0.6015625,-0.3242188 -0.3984375,0 -0.5898438,0.3085938 Q 1.5117187,-4.2382812 1.5,-3.5859375 v 1.3828125 q 0,0.6953125 0.1875,1.0351563 0.1914062,0.33593745 0.609375,0.33593745 0.4140625,0 0.5976563,-0.32421875 0.1835937,-0.3242187 0.1914062,-0.9921875 z"/>
      </g>
      <path d="M 0,0 H 3" style="stroke:#333333;stroke-width:0.5" transform="rotate(150,-11,2.9474411)" id="polyline62393"/>
      <path d="M 0,0 H 3" style="stroke:#333333;stroke-width:0.5" transform="rotate(180,-11,0)" id="polyline62395"/>
      <path d="M 0,0 H 3" style="stroke:#333333;stroke-width:0.5" transform="rotate(-150,-11,-2.9474411)" id="polyline62397"/>
      <path d="M 0,0 H 3" style="stroke:#333333;stroke-width:0.5" transform="rotate(-120,-11,-6.350853)" id="polyline62399"/>
      <path d="M 0,0 H 3" style="stroke:#333333;stroke-width:0.5" transform="rotate(-90,-11,-11)" id="polyline62401"/>
      <path d="M 0,0 H 3" style="stroke:#333333;stroke-width:0.5" transform="rotate(-60,-11,-19.052559)" id="polyline62403"/>
      <path d="M 0,0 H 3" style="stroke:#333333;stroke-width:0.5" transform="rotate(-30,-11,-41.052559)" id="polyline62405"/>
      <path d="M 0,0 H 3" style="stroke:#333333;stroke-width:0.5" transform="translate(22)" id="polyline62407"/>
      <path d="M 0,0 H 3" style="stroke:#333333;stroke-width:0.5" transform="rotate(30,-11,41.052559)" id="polyline62409"/>
      <path d="M 0,0 H 4" style="stroke:#333333;stroke-width:1" transform="rotate(60,-11,19.052559)" id="polyline62411"/>
    </g>
  </g>
  <g style="font-weight:bold;font-size:10.6667px;font-family:Roboto, sans-serif;letter-spacing:1px;fill:#333333" id="text62188" transform="rotate(-90)" aria-label="DRIVE">
    <path id="path62584" style="font-weight:bold;font-size:10.6667px;font-family:Roboto, sans-serif;letter-spacing:1px;fill:#333333" d="m -228.32291,29 v -7.583357 h 2.33334 q 1,0 1.78646,0.453126 0.79167,0.447918 1.23438,1.281254 0.44271,0.828128 0.44271,1.885423 v 0.348959 q 0,1.057295 -0.4375,1.880215 -0.4323,0.822919 -1.22396,1.276045 -0.79167,0.453127 -1.78647,0.458335 z m 1.5625,-6.317728 v 5.062516 h 0.75521 q 0.91667,0 1.40105,-0.598961 0.48437,-0.59896 0.49479,-1.713547 v -0.401043 q 0,-1.156253 -0.47917,-1.750005 -0.47917,-0.59896 -1.40104,-0.59896 z"/>
    <path id="path62586" style="font-weight:bold;font-size:10.6667px;font-family:Roboto, sans-serif;letter-spacing:1px;fill:#333333" d="m -217.57809,26.22395 h -1.2448 V 29 h -1.5625 v -7.583357 h 2.81771 q 1.34376,0 2.07293,0.59896 0.72917,0.59896 0.72917,1.692714 0,0.776044 -0.33855,1.296879 -0.33333,0.515626 -1.01562,0.822919 l 1.64063,3.098968 V 29 h -1.67709 z m -1.2448,-1.265629 h 1.26042 q 0.58855,0 0.91146,-0.296876 0.32292,-0.302085 0.32292,-0.828128 0,-0.53646 -0.30729,-0.843753 -0.30209,-0.307292 -0.9323,-0.307292 h -1.25521 z"/>
    <path id="path62588" style="font-weight:bold;font-size:10.6667px;font-family:Roboto, sans-serif;letter-spacing:1px;fill:#333333" d="m -210.91141,29 h -1.5625 v -7.583357 h 1.5625 z"/>
    <path id="path62590" style="font-weight:bold;font-size:10.6667px;font-family:Roboto, sans-serif;letter-spacing:1px;fill:#333333" d="m -205.6666,27.119786 1.71875,-5.703143 h 1.73959 L -204.84889,29 h -1.63022 l -2.63021,-7.583357 h 1.73438 z"/>
    <path id="path62592" style="font-weight:bold;font-size:10.6667px;font-family:Roboto, sans-serif;letter-spacing:1px;fill:#333333" d="m -195.92699,25.713531 h -3.00001 v 2.031257 h 3.52084 V 29 h -5.08335 v -7.583357 h 5.07294 v 1.265629 h -3.51043 v 1.807297 h 3.00001 z"/>
  </g>
  <g transform="translate(40,190)" id="g62190"/>
  <g transform="translate(34,184)" id="use62192">
    <g transform="translate(25,25)" id="g62439">
      <g style="font-weight:bold;font-size:8px;font-family:Roboto, sans-serif;fill:#333333" id="text62417" transform="translate(-16,23.78461)" aria-label="0">
        <path id="path62571" style="font-weight:bold;font-size:8px;font-family:Roboto, sans-serif;fill:#333333" d="m 4.2148437,-2.3515625 q 0,1.1796875 -0.4882812,1.8046875 -0.4882812,0.625 -1.4296875,0.625 -0.9296875,0 -1.421875,-0.61328125 Q 0.3828125,-1.1484375 0.37109375,-2.2929688 v -1.046875 q 0,-1.1914062 0.4921875,-1.8085937 Q 1.359375,-5.765625 2.2890625,-5.765625 q 0.9296875,0 1.421875,0.6132813 0.4921875,0.609375 0.5039062,1.7539062 z M 3.0859375,-3.5 q 0,-0.7070312 -0.1953125,-1.0273437 -0.1914062,-0.3242188 -0.6015625,-0.3242188 -0.3984375,0 -0.5898438,0.3085938 Q 1.5117187,-4.2382812 1.5,-3.5859375 v 1.3828125 q 0,0.6953125 0.1875,1.0351563 0.1914062,0.33593745 0.609375,0.33593745 0.4140625,0 0.5976563,-0.32421875 0.1835937,-0.3242187 0.1914062,-0.9921875 z"/>
      </g>
      <path d="M 0,0 H 3" style="stroke:#333333;stroke-width:0.5" transform="rotate(150,-11,2.9474411)" id="polyline62419"/>
      <path d="M 0,0 H 3" style="stroke:#333333;stroke-width:0.5" transform="rotate(180,-11,0)" id="polyline62421"/>
      <path d="M 0,0 H 3" style="stroke:#333333;stroke-width:0.5" transform="rotate(-150,-11,-2.9474411)" id="polyline62423"/>
      <path d="M 0,0 H 3" style="stroke:#333333;stroke-width:0.5" transform="rotate(-120,-11,-6.350853)" id="polyline62425"/>
      <path d="M 0,0 H 3" style="stroke:#333333;stroke-width:0.5" transform="rotate(-90,-11,-11)" id="polyline62427"/>
      <path d="M 0,0 H 3" style="stroke:#333333;stroke-width:0.5" transform="rotate(-60,-11,-19.052559)" id="polyline62429"/>
      <path d="M 0,0 H 3" style="stroke:#333333;stroke-width:0.5" transform="rotate(-30,-11,-41.052559)" id="polyline62431"/>
      <path d="M 0,0 H 3" style="stroke:#333333;stroke-width:0.5" transform="translate(22)" id="polyline62433"/>
      <path d="M 0,0 H 3" style="stroke:#333333;stroke-width:0.5" transform="rotate(30,-11,41.052559)" id="polyline62435"/>
      <path d="M 0,0 H 4" style="stroke:#333333;stroke-width:1" transform="rotate(60,-11,19.052559)" id="polyline62437"/>
    </g>
  </g>
  <g style="font-weight:bold;font-size:10.6667px;font-family:Roboto, sans-serif;letter-spacing:1px;fill:#333333" id="text62196" transform="rotate(-90)" aria-label="TOPO">
    <path id="path62562" style="font-weight:bold;font-size:10.6667px;font-family:Roboto, sans-serif;letter-spacing:1px;fill:#333333" d="m -289.61456,22.682272 h -2.32293 V 29 h -1.5625 v -6.317728 h -2.29168 v -1.265629 h 6.17711 z"/>
    <path id="path62564" style="font-weight:bold;font-size:10.6667px;font-family:Roboto, sans-serif;letter-spacing:1px;fill:#333333" d="m -281.63537,25.380197 q 0,1.119795 -0.39584,1.963548 -0.39583,0.843752 -1.13542,1.302087 -0.73438,0.458335 -1.6875,0.458335 -0.94272,0 -1.6823,-0.453126 -0.73959,-0.453127 -1.14584,-1.291671 -0.40625,-0.843753 -0.41146,-1.937506 v -0.375001 q 0,-1.119796 0.40104,-1.968757 0.40626,-0.854169 1.14063,-1.307296 0.73959,-0.458334 1.68751,-0.458334 0.94792,0 1.6823,0.458334 0.73958,0.453127 1.14062,1.307296 0.40626,0.848961 0.40626,1.963548 z m -1.58334,-0.343751 q 0,-1.192712 -0.42709,-1.812506 -0.42708,-0.619794 -1.21875,-0.619794 -0.78646,0 -1.21355,0.614586 -0.42708,0.609377 -0.43229,1.791672 v 0.369793 q 0,1.161462 0.42708,1.802089 0.42709,0.640627 1.22918,0.640627 0.78646,0 1.20833,-0.614585 0.42188,-0.619794 0.42709,-1.802089 z"/>
    <path id="path62566" style="font-weight:bold;font-size:10.6667px;font-family:Roboto, sans-serif;letter-spacing:1px;fill:#333333" d="M -277.92703,26.328117 V 29 h -1.56251 v -7.583357 h 2.95835 q 0.85416,0 1.5,0.312501 0.65104,0.312501 1,0.890628 0.34896,0.572918 0.34896,1.307295 0,1.114587 -0.76563,1.760423 -0.76041,0.640627 -2.10938,0.640627 z m 0,-1.265629 h 1.39584 q 0.61979,0 0.94271,-0.291668 0.32812,-0.291668 0.32812,-0.833336 0,-0.557293 -0.32812,-0.901045 -0.32813,-0.343751 -0.90626,-0.354167 h -1.43229 z"/>
    <path id="path62568" style="font-weight:bold;font-size:10.6667px;font-family:Roboto, sans-serif;letter-spacing:1px;fill:#333333" d="m -265.38533,25.380197 q 0,1.119795 -0.39583,1.963548 -0.39584,0.843752 -1.13542,1.302087 -0.73438,0.458335 -1.68751,0.458335 -0.94271,0 -1.6823,-0.453126 -0.73958,-0.453127 -1.14583,-1.291671 -0.40625,-0.843753 -0.41146,-1.937506 v -0.375001 q 0,-1.119796 0.40104,-1.968757 0.40625,-0.854169 1.14063,-1.307296 0.73958,-0.458334 1.6875,-0.458334 0.94792,0 1.6823,0.458334 0.73959,0.453127 1.14063,1.307296 0.40625,0.848961 0.40625,1.963548 z m -1.58334,-0.343751 q 0,-1.192712 -0.42708,-1.812506 -0.42709,-0.619794 -1.21876,-0.619794 -0.78646,0 -1.21354,0.614586 -0.42709,0.609377 -0.43229,1.791672 v 0.369793 q 0,1.161462 0.42708,1.802089 0.42708,0.640627 1.22917,0.640627 0.78646,0 1.20834,-0.614585 0.42187,-0.619794 0.42708,-1.802089 z"/>
  </g>
  <g transform="translate(40,260)" id="g62198"/>
  <g transform="translate(34,254)" id="use62200">
    <g transform="translate(25,25)" id="g62465">
      <g style="font-weight:bold;font-size:8px;font-family:Roboto, sans-serif;fill:#333333" id="text62443" transform="translate(-16,23.78461)" aria-label="0">
        <path id="path62549" style="font-weight:bold;font-size:8px;font-family:Roboto, sans-serif;fill:#333333" d="m 4.2148437,-2.3515625 q 0,1.1796875 -0.4882812,1.8046875 -0.4882812,0.625 -1.4296875,0.625 -0.9296875,0 -1.421875,-0.61328125 Q 0.3828125,-1.1484375 0.37109375,-2.2929688 v -1.046875 q 0,-1.1914062 0.4921875,-1.8085937 Q 1.359375,-5.765625 2.2890625,-5.765625 q 0.9296875,0 1.421875,0.6132813 0.4921875,0.609375 0.5039062,1.7539062 z M 3.0859375,-3.5 q 0,-0.7070312 -0.1953125,-1.0273437 -0.1914062,-0.3242188 -0.6015625,-0.3242188 -0.3984375,0 -0.5898438,0.3085938 Q 1.5117187,-4.2382812 1.5,-3.5859375 v 1.3828125 q 0,0.6953125 0.1875,1.0351563 0.1914062,0.33593745 0.609375,0.33593745 0.4140625,0 0.5976563,-0.32421875 0.1835937,-0.3242187 0.1914062,-0.9921875 z"/>
      </g>
      <path d="M 0,0 H 3" style="stroke:#333333;stroke-width:0.5" transform="rotate(150,-11,2.9474411)" id="polyline62445"/>
      <path d="M 0,0 H 3" style="stroke:#333333;stroke-width:0.5" transform="rotate(180,-11,0)" id="polyline62447"/>
      <path d="M 0,0 H 3" style="stroke:#333333;stroke-width:0.5" transform="rotate(-150,-11,-2.9474411)" id="polyline62449"/>
      <path d="M 0,0 H 3" style="stroke:#333333;stroke-width:0.5" transform="rotate(-120,-11,-6.350853)" id="polyline62451"/>
      <path d="M 0,0 H 3" style="stroke:#333333;stroke-width:0.5" transform="rotate(-90,-11,-11)" id="polyline62453"/>
      <path d="M 0,0 H 3" style="stroke:#333333;stroke-width:0.5" transform="rotate(-60,-11,-19.052559)" id="polyline62455"/>
      <path d="M 0,0 H 3" style="stroke:#333333;stroke-width:0.5" transform="rotate(-30,-11,-41.052559)" id="polyline62457"/>
      <path d="M 0,0 H 3" style="stroke:#333333;stroke-width:0.5" transform="translate(22)" id="polyline62459"/>
      <path d="M 0,0 H 3" style="stroke:#333333;stroke-width:0.5" transform="rotate(30,-11,41.052559)" id="polyline62461"/>
      <path d="M 0,0 H 4" style="stroke:#333333;stroke-width:1" transform="rotate(60,-11,19.052559)" id="polyline62463"/>
    </g>
  </g>
  <g style="font-weight:bold;font-size:10.6667px;font-family:Roboto, sans-serif;letter-spacing:1px;fill:#333333" id="text62204" transform="rotate(-90)" aria-label="MODE">
    <path id="path62540" style="font-weight:bold;font-size:10.6667px;font-family:Roboto, sans-serif;letter-spacing:1px;fill:#333333" d="m -85.281241,111.41664 1.947922,5.50002 1.937507,-5.50002 h 2.052089 V 119 h -1.567713 v -2.07292 l 0.156251,-3.57814 L -82.802067,119 h -1.07292 l -2.041673,-5.64585 0.15625,3.57293 V 119 h -1.562505 v -7.58336 z"/>
    <path id="path62542" style="font-weight:bold;font-size:10.6667px;font-family:Roboto, sans-serif;letter-spacing:1px;fill:#333333" d="m -70.739532,115.3802 q 0,1.11979 -0.395834,1.96354 -0.395835,0.84376 -1.13542,1.30209 -0.734378,0.45834 -1.687506,0.45834 -0.942711,0 -1.682297,-0.45313 -0.739585,-0.45313 -1.145837,-1.29167 -0.406251,-0.84375 -0.411459,-1.93751 v -0.375 q 0,-1.11979 0.401043,-1.96875 0.406251,-0.85417 1.140628,-1.3073 0.739586,-0.45833 1.687505,-0.45833 0.94792,0 1.682297,0.45833 0.739586,0.45313 1.140629,1.3073 0.406251,0.84896 0.406251,1.96354 z m -1.583338,-0.34375 q 0,-1.19272 -0.427085,-1.81251 -0.427084,-0.61979 -1.218754,-0.61979 -0.78646,0 -1.213545,0.61458 -0.427085,0.60938 -0.432293,1.79167 v 0.3698 q 0,1.16146 0.427085,1.80209 0.427084,0.64062 1.22917,0.64062 0.786461,0 1.208337,-0.61458 0.421877,-0.6198 0.427085,-1.80209 z"/>
    <path id="path62544" style="font-weight:bold;font-size:10.6667px;font-family:Roboto, sans-serif;letter-spacing:1px;fill:#333333" d="m -68.593695,119 v -7.58336 h 2.333341 q 1.000003,0 1.786464,0.45313 0.791669,0.44792 1.234378,1.28125 0.44271,0.82813 0.44271,1.88543 v 0.34896 q 0,1.05729 -0.437501,1.88021 -0.432293,0.82292 -1.223962,1.27605 -0.79167,0.45312 -1.786464,0.45833 z m 1.562505,-6.31773 v 5.06252 h 0.755211 q 0.916669,0 1.401046,-0.59896 0.484376,-0.59896 0.494793,-1.71355 v -0.40104 q 0,-1.15626 -0.479168,-1.75001 -0.479168,-0.59896 -1.401046,-0.59896 z"/>
    <path id="path62546" style="font-weight:bold;font-size:10.6667px;font-family:Roboto, sans-serif;letter-spacing:1px;fill:#333333" d="m -56.093658,115.71353 h -3.000009 v 2.03126 h 3.520844 V 119 h -5.083349 v -7.58336 h 5.072932 v 1.26563 h -3.510427 v 1.8073 h 3.000009 z"/>
  </g>
  <g transform="translate(130,48)" id="g62232">
    <g transform="translate(0,10)" id="g62210">
      <g id="g62206"/>
      <g style="font-weight:bold;font-size:6.66667px;font-family:Roboto, sans-serif;letter-spacing:1px;fill:#333333" id="text62208" transform="translate(8,5.7)" aria-label="LP">
        <path id="path62520" style="font-weight:bold;font-size:6.66667px;font-family:Roboto, sans-serif;letter-spacing:1px;fill:#333333" d="M 1.3997403,-0.78450558 H 3.4733089 V 0 H 0.42317729 V -4.7395856 H 1.3997403 Z"/>
        <path id="path62522" style="font-weight:bold;font-size:6.66667px;font-family:Roboto, sans-serif;letter-spacing:1px;fill:#333333" d="M 6.0065127,-1.6699227 V 0 h -0.976563 v -4.7395856 h 1.8489592 q 0.5338544,0 0.9375005,0.1953126 0.4069012,0.1953126 0.6250003,0.5566409 0.218099,0.3580731 0.218099,0.8170577 0,0.6966149 -0.4785158,1.1002609 -0.4752607,0.4003908 -1.31836,0.4003908 z m 0,-0.791016 h 0.8723962 q 0.38737,0 0.589193,-0.1822917 0.2050782,-0.1822918 0.2050782,-0.5208336 0,-0.3483075 -0.2050782,-0.5631513 Q 7.2630237,-3.9420592 6.9016954,-3.9485696 H 6.0065127 Z"/>
      </g>
    </g>
    <g transform="translate(21,10)" id="g62216">
      <g id="g62212"/>
      <g style="font-weight:bold;font-size:6.66667px;font-family:Roboto, sans-serif;letter-spacing:1px;fill:#333333" id="text62214" transform="translate(8,5.7)" aria-label="HP">
        <path id="path62525" style="font-weight:bold;font-size:6.66667px;font-family:Roboto, sans-serif;letter-spacing:1px;fill:#333333" d="M 4.280601,0 H 3.304038 V -2.031251 H 1.3997403 V 0 H 0.42317729 V -4.7395856 H 1.3997403 v 1.9205738 H 3.304038 v -1.9205738 h 0.976563 z"/>
        <path id="path62527" style="font-weight:bold;font-size:6.66667px;font-family:Roboto, sans-serif;letter-spacing:1px;fill:#333333" d="M 7.1132841,-1.6699227 V 0 H 6.1367212 v -4.7395856 h 1.8489592 q 0.5338544,0 0.9375004,0.1953126 0.4069013,0.1953126 0.6250003,0.5566409 0.2180991,0.3580731 0.2180991,0.8170577 0,0.6966149 -0.4785159,1.1002609 -0.4752606,0.4003908 -1.31836,0.4003908 z m 0,-0.791016 h 0.8723963 q 0.38737,0 0.589193,-0.1822917 0.2050782,-0.1822918 0.2050782,-0.5208336 0,-0.3483075 -0.2050782,-0.5631513 Q 8.3697952,-3.9420592 8.0084669,-3.9485696 H 7.1132841 Z"/>
      </g>
    </g>
    <g transform="translate(0,20)" id="g62222">
      <g id="g62218"/>
      <g style="font-weight:bold;font-size:6.66667px;font-family:Roboto, sans-serif;letter-spacing:1px;fill:#333333" id="text62220" transform="translate(8,5.7)" aria-label="BP">
        <path id="path62530" style="font-weight:bold;font-size:6.66667px;font-family:Roboto, sans-serif;letter-spacing:1px;fill:#333333" d="M 0.42317729,0 V -4.7395856 H 2.0833343 q 0.8626306,0 1.3085944,0.3320314 0.4459638,0.3287762 0.4459638,0.9667974 0,0.3483074 -0.1790366,0.6152346 -0.1790365,0.263672 -0.4980471,0.38737 0.3645835,0.091146 0.5729169,0.3678387 0.2115887,0.2766929 0.2115887,0.6770837 0,0.68359404 -0.4361981,1.03515671 Q 3.0729181,-0.00651042 2.2656261,0 Z M 1.3997403,-2.0638031 v 1.27929752 h 0.8365889 q 0.3450522,0 0.5371096,-0.1627605 0.1953126,-0.16601572 0.1953126,-0.45572942 0,-0.6510419 -0.6738284,-0.6608076 z m 0,-0.6901045 h 0.7226565 q 0.7389327,-0.013021 0.7389327,-0.589193 0,-0.3222657 -0.1888022,-0.4622398 -0.1855469,-0.1432292 -0.589193,-0.1432292 h -0.683594 z"/>
        <path id="path62532" style="font-weight:bold;font-size:6.66667px;font-family:Roboto, sans-serif;letter-spacing:1px;fill:#333333" d="M 6.6575547,-1.6699227 V 0 h -0.976563 v -4.7395856 h 1.8489592 q 0.5338544,0 0.9375005,0.1953126 0.4069012,0.1953126 0.6250003,0.5566409 0.218099,0.3580731 0.218099,0.8170577 0,0.6966149 -0.4785158,1.1002609 -0.4752607,0.4003908 -1.31836,0.4003908 z m 0,-0.791016 h 0.8723962 q 0.38737,0 0.589193,-0.1822917 0.2050782,-0.1822918 0.2050782,-0.5208336 0,-0.3483075 -0.2050782,-0.5631513 Q 7.9140657,-3.9420592 7.5527374,-3.9485696 H 6.6575547 Z"/>
      </g>
    </g>
    <g transform="translate(21,20)" id="g62228">
      <g id="g62224"/>
      <g style="font-weight:bold;font-size:6.66667px;font-family:Roboto, sans-serif;letter-spacing:1px;fill:#333333" id="text62226" transform="translate(8,5.7)" aria-label="BR">
        <path id="path62535" style="font-weight:bold;font-size:6.66667px;font-family:Roboto, sans-serif;letter-spacing:1px;fill:#333333" d="M 0.42317729,0 V -4.7395856 H 2.0833343 q 0.8626306,0 1.3085944,0.3320314 0.4459638,0.3287762 0.4459638,0.9667974 0,0.3483074 -0.1790366,0.6152346 -0.1790365,0.263672 -0.4980471,0.38737 0.3645835,0.091146 0.5729169,0.3678387 0.2115887,0.2766929 0.2115887,0.6770837 0,0.68359404 -0.4361981,1.03515671 Q 3.0729181,-0.00651042 2.2656261,0 Z M 1.3997403,-2.0638031 v 1.27929752 h 0.8365889 q 0.3450522,0 0.5371096,-0.1627605 0.1953126,-0.16601572 0.1953126,-0.45572942 0,-0.6510419 -0.6738284,-0.6608076 z m 0,-0.6901045 h 0.7226565 q 0.7389327,-0.013021 0.7389327,-0.589193 0,-0.3222657 -0.1888022,-0.4622398 -0.1855469,-0.1432292 -0.589193,-0.1432292 h -0.683594 z"/>
        <path id="path62537" style="font-weight:bold;font-size:6.66667px;font-family:Roboto, sans-serif;letter-spacing:1px;fill:#333333" d="M 7.4355498,-1.7350269 H 6.6575547 V 0 h -0.976563 v -4.7395856 h 1.7610685 q 0.8398442,0 1.2955736,0.3743491 0.4557294,0.3743492 0.4557294,1.0579433 0,0.4850262 -0.2115887,0.8105472 -0.2083334,0.3222658 -0.6347659,0.5143232 l 1.0253911,1.93684986 V 0 H 8.3242221 Z m -0.7779951,-0.791016 h 0.7877608 q 0.3678387,0 0.5696617,-0.1855469 0.201823,-0.1888022 0.201823,-0.5175784 0,-0.3352866 -0.1920574,-0.527344 Q 7.8359406,-3.9485696 7.4420602,-3.9485696 H 6.6575547 Z"/>
      </g>
    </g>
    <g transform="translate(15,29)" id="g62230"/>
  </g>
  <g style="font-weight:bold;font-size:10.6667px;font-family:Roboto, sans-serif;letter-spacing:1px;fill:#333333" id="text62236" transform="rotate(-90)" aria-label="POLES">
    <path id="path62509" style="font-weight:bold;font-size:10.6667px;font-family:Roboto, sans-serif;letter-spacing:1px;fill:#333333" d="M -154.76041,116.32812 V 119 h -1.5625 v -7.58336 h 2.95834 q 0.85417,0 1.5,0.3125 0.65105,0.3125 1.00001,0.89063 0.34896,0.57292 0.34896,1.3073 0,1.11458 -0.76563,1.76042 -0.76042,0.64063 -2.10938,0.64063 z m 0,-1.26563 h 1.39584 q 0.61979,0 0.94271,-0.29167 0.32813,-0.29167 0.32813,-0.83334 0,-0.55729 -0.32813,-0.90104 -0.32813,-0.34375 -0.90625,-0.35417 h -1.4323 z"/>
    <path id="path62511" style="font-weight:bold;font-size:10.6667px;font-family:Roboto, sans-serif;letter-spacing:1px;fill:#333333" d="m -142.21871,115.3802 q 0,1.11979 -0.39583,1.96354 -0.39584,0.84376 -1.13542,1.30209 -0.73438,0.45834 -1.68751,0.45834 -0.94271,0 -1.68229,-0.45313 -0.73959,-0.45313 -1.14584,-1.29167 -0.40625,-0.84375 -0.41146,-1.93751 v -0.375 q 0,-1.11979 0.40104,-1.96875 0.40625,-0.85417 1.14063,-1.3073 0.73959,-0.45833 1.68751,-0.45833 0.94792,0 1.68229,0.45833 0.73959,0.45313 1.14063,1.3073 0.40625,0.84896 0.40625,1.96354 z m -1.58333,-0.34375 q 0,-1.19272 -0.42709,-1.81251 -0.42708,-0.61979 -1.21875,-0.61979 -0.78646,0 -1.21355,0.61458 -0.42708,0.60938 -0.43229,1.79167 v 0.3698 q 0,1.16146 0.42708,1.80209 0.42709,0.64062 1.22917,0.64062 0.78646,0 1.20834,-0.61458 0.42188,-0.6198 0.42709,-1.80209 z"/>
    <path id="path62513" style="font-weight:bold;font-size:10.6667px;font-family:Roboto, sans-serif;letter-spacing:1px;fill:#333333" d="m -138.51036,117.74479 h 3.31771 V 119 h -4.88022 v -7.58336 h 1.56251 z"/>
    <path id="path62515" style="font-weight:bold;font-size:10.6667px;font-family:Roboto, sans-serif;letter-spacing:1px;fill:#333333" d="m -128.7395,115.71353 h -3.00001 v 2.03126 h 3.52084 V 119 h -5.08335 v -7.58336 h 5.07294 v 1.26563 h -3.51043 v 1.8073 h 3.00001 z"/>
    <path id="path62517" style="font-weight:bold;font-size:10.6667px;font-family:Roboto, sans-serif;letter-spacing:1px;fill:#333333" d="m -122.36969,117.01041 q 0,-0.44271 -0.31251,-0.67709 -0.3125,-0.23958 -1.125,-0.5 -0.8125,-0.26562 -1.28646,-0.52083 -1.29167,-0.69792 -1.29167,-1.88022 0,-0.61458 0.34375,-1.09375 0.34896,-0.48438 0.99479,-0.75521 0.65105,-0.27083 1.45834,-0.27083 0.8125,0 1.44792,0.29687 0.63542,0.29167 0.98438,0.82813 0.35417,0.53646 0.35417,1.21875 h -1.56251 q 0,-0.52083 -0.32812,-0.80729 -0.32813,-0.29167 -0.92188,-0.29167 -0.57292,0 -0.89063,0.24479 -0.31771,0.23959 -0.31771,0.63542 0,0.3698 0.3698,0.6198 0.375,0.25 1.09896,0.46875 1.33333,0.40104 1.94271,0.99479 0.60938,0.59375 0.60938,1.47917 0,0.98438 -0.7448,1.54688 -0.74479,0.5573 -2.00521,0.5573 -0.875,0 -1.59375,-0.31771 -0.71876,-0.32292 -1.09897,-0.88021 -0.375,-0.5573 -0.375,-1.29167 h 1.56772 q 0,1.25521 1.5,1.25521 0.55729,0 0.86979,-0.22396 0.31251,-0.22917 0.31251,-0.63542 z"/>
  </g>
  <g transform="translate(130,117)" id="g62276">
    <g transform="translate(0,10)" id="g62242">
      <g id="g62238"/>
      <g style="font-weight:bold;font-size:6.66667px;font-family:Roboto, sans-serif;letter-spacing:1px;fill:#333333" id="text62240" transform="translate(8,5.7)" aria-label="2">
        <path id="path62487" style="font-weight:bold;font-size:6.66667px;font-family:Roboto, sans-serif;letter-spacing:1px;fill:#333333" d="M 3.5709652,0 H 0.32226578 V -0.64453156 L 1.8554696,-2.2786469 q 0.3157554,-0.3450523 0.465495,-0.6022138 0.1529949,-0.2571616 0.1529949,-0.4882815 0,-0.3157554 -0.1595053,-0.4947919 -0.1595053,-0.1822918 -0.4557294,-0.1822918 -0.3190105,0 -0.5045575,0.2213543 -0.1822917,0.218099 -0.1822917,0.5761721 H 0.22786469 q 0,-0.4329429 0.20507822,-0.791016 0.20833344,-0.3580731 0.58593779,-0.5598961 0.3776043,-0.2050782 0.8561202,-0.2050782 0.7324222,0 1.1360682,0.3515627 0.4069013,0.3515626 0.4069013,0.992839 0,0.3515627 -0.1822918,0.7161462 -0.1822917,0.3645835 -0.6250003,0.8496097 l -1.0774744,1.1360683 h 2.0377613 z"/>
      </g>
    </g>
    <g transform="translate(21,10)" id="g62248">
      <g id="g62244"/>
      <g style="font-weight:bold;font-size:6.66667px;font-family:Roboto, sans-serif;letter-spacing:1px;fill:#333333" id="text62246" transform="translate(8,5.7)" aria-label="4">
        <path id="path62490" style="font-weight:bold;font-size:6.66667px;font-family:Roboto, sans-serif;letter-spacing:1px;fill:#333333" d="m 3.1054702,-1.783855 h 0.5371097 v 0.7584639 H 3.1054702 V 0 H 2.1647146 V -1.0253911 H 0.22135427 L 0.17903654,-1.6178393 2.1549489,-4.7395856 h 0.9505213 z m -1.9889332,0 h 1.0481776 v -1.6731779 l -0.061849,0.1074219 z"/>
      </g>
    </g>
    <g transform="translate(0,20)" id="g62254">
      <g id="g62250"/>
      <g style="font-weight:bold;font-size:6.66667px;font-family:Roboto, sans-serif;letter-spacing:1px;fill:#333333" id="text62252" transform="translate(8,5.7)" aria-label="6">
        <path id="path62493" style="font-weight:bold;font-size:6.66667px;font-family:Roboto, sans-serif;letter-spacing:1px;fill:#333333" d="m 2.8743503,-4.7884137 v 0.7747399 h -0.091146 q -0.6380212,0.00977 -1.0286464,0.3320314 -0.3873699,0.3222658 -0.465495,0.8951827 0.3776044,-0.3841147 0.9537765,-0.3841147 0.6184899,0 0.9830734,0.4427085 0.3645835,0.4427086 0.3645835,1.1653652 0,0.4622398 -0.201823,0.8365889 Q 3.1901057,-0.35156267 2.822267,-0.14322923 2.4576835,0.0651042 1.9954437,0.0651042 q -0.7486983,0 -1.21093812,-0.52083358 Q 0.32552099,-0.97656297 0.32552099,-1.845704 v -0.3385418 q 0,-0.7714848 0.28971368,-1.3606778 0.29296889,-0.5924482 0.83658893,-0.9147139 0.5468753,-0.325521 1.2662767,-0.3287762 z m -0.9179692,2.373048 q -0.2278647,0 -0.4134116,0.1204427 -0.185547,0.1171876 -0.2734376,0.3125002 v 0.2864584 q 0,0.4720055 0.1855469,0.73893269 0.185547,0.263672 0.5208336,0.263672 0.3027345,0 0.4882815,-0.23763032 0.1888022,-0.24088557 0.1888022,-0.62174507 0,-0.38737 -0.1888022,-0.6250003 -0.1888022,-0.2376303 -0.5078128,-0.2376303 z"/>
      </g>
    </g>
    <g transform="translate(21,20)" id="g62260">
      <g id="g62256"/>
      <g style="font-weight:bold;font-size:6.66667px;font-family:Roboto, sans-serif;letter-spacing:1px;fill:#333333" id="text62258" transform="translate(8,5.7)" aria-label="8">
        <path id="path62496" style="font-weight:bold;font-size:6.66667px;font-family:Roboto, sans-serif;letter-spacing:1px;fill:#333333" d="m 3.41146,-3.4798194 q 0,0.3450523 -0.1725262,0.6119795 -0.1725261,0.2669272 -0.4752606,0.4264325 0.3450522,0.1660157 0.5468753,0.4589846 0.201823,0.2897137 0.201823,0.6835941 0,0.63151067 -0.4296877,0.99934939 -0.4296877,0.36458351 -1.1686204,0.36458351 -0.7389326,0 -1.17187555,-0.36783872 -0.43294291,-0.36783872 -0.43294291,-0.99609418 0,-0.3938804 0.20182301,-0.6868493 Q 0.71289096,-2.2786469 1.054688,-2.4414074 0.75195348,-2.6009127 0.57942736,-2.8678399 0.41015645,-3.1347671 0.41015645,-3.4798194 q 0,-0.605469 0.40364602,-0.9635421 0.40364603,-0.3613283 1.09700573,-0.3613283 0.6901045,0 1.0937505,0.3580731 0.4069013,0.3548179 0.4069013,0.9667973 z m -0.8430994,2.1126312 q 0,-0.3092449 -0.1790365,-0.4947919 Q 2.2102875,-2.047527 1.907553,-2.047527 q -0.2994793,0 -0.4785159,0.1855469 -0.1790365,0.1822918 -0.1790365,0.4947919 0,0.3027346 0.1757813,0.48828153 0.1757814,0.18554696 0.4882815,0.18554696 0.3059897,0 0.4785159,-0.17903654 0.1757813,-0.17903655 0.1757813,-0.49479195 z m -0.097656,-2.0670582 q 0,-0.2766929 -0.1464844,-0.4427086 -0.1464845,-0.1692709 -0.4134117,-0.1692709 -0.263672,0 -0.4101564,0.1627605 -0.1464845,0.1627605 -0.1464845,0.449219 0,0.2832032 0.1464845,0.4557294 0.1464844,0.1725261 0.4134116,0.1725261 0.2669272,0 0.4101565,-0.1725261 0.1464844,-0.1725262 0.1464844,-0.4557294 z"/>
      </g>
    </g>
    <g transform="translate(0,30)" id="g62266">
      <g id="g62262"/>
      <g style="font-weight:bold;font-size:6.66667px;font-family:Roboto, sans-serif;letter-spacing:1px;fill:#333333" id="text62264" transform="translate(8,5.7)" aria-label="10">
        <path id="path62499" style="font-weight:bold;font-size:6.66667px;font-family:Roboto, sans-serif;letter-spacing:1px;fill:#333333" d="M 2.6074231,0 H 1.6666675 V -3.6263038 L 0.54362005,-3.2779964 V -4.0429707 L 2.5065116,-4.746096 h 0.1009115 z"/>
        <path id="path62501" style="font-weight:bold;font-size:6.66667px;font-family:Roboto, sans-serif;letter-spacing:1px;fill:#333333" d="m 8.3404984,-1.9596364 q 0,0.98307343 -0.4069013,1.50390702 -0.4069012,0.52083358 -1.1914068,0.52083358 -0.7747399,0 -1.1848964,-0.51106795 Q 5.1471375,-0.95703171 5.1373718,-1.9108082 v -0.8723963 q 0,-0.992839 0.4101565,-1.5071621 0.4134116,-0.5143232 1.1881516,-0.5143232 0.77474,0 1.1848964,0.511068 0.4101564,0.5078127 0.4199221,1.4615892 z M 7.3997427,-2.9166681 q 0,-0.5891929 -0.1627605,-0.8561202 -0.1595053,-0.2701824 -0.5013023,-0.2701824 -0.3320314,0 -0.4915367,0.2571616 -0.1562501,0.2539064 -0.1660157,0.7975264 v 1.1523443 q 0,0.5794274 0.1562501,0.86263064 0.1595053,0.27994805 0.5078127,0.27994805 0.3450523,0 0.4980471,-0.27018242 0.1529949,-0.27018237 0.1595053,-0.82682327 z"/>
      </g>
    </g>
    <g transform="translate(21,30)" id="g62272">
      <g id="g62268"/>
      <g style="font-weight:bold;font-size:6.66667px;font-family:Roboto, sans-serif;letter-spacing:1px;fill:#333333" id="text62270" transform="translate(8,5.7)" aria-label="12">
        <path id="path62504" style="font-weight:bold;font-size:6.66667px;font-family:Roboto, sans-serif;letter-spacing:1px;fill:#333333" d="M 2.6074231,0 H 1.6666675 V -3.6263038 L 0.54362005,-3.2779964 V -4.0429707 L 2.5065116,-4.746096 h 0.1009115 z"/>
        <path id="path62506" style="font-weight:bold;font-size:6.66667px;font-family:Roboto, sans-serif;letter-spacing:1px;fill:#333333" d="M 8.3990922,0 H 5.1503927 V -0.64453156 L 6.6835965,-2.2786469 q 0.3157554,-0.3450523 0.4654951,-0.6022138 0.1529948,-0.2571616 0.1529948,-0.4882815 0,-0.3157554 -0.1595053,-0.4947919 -0.1595052,-0.1822918 -0.4557293,-0.1822918 -0.3190106,0 -0.5045576,0.2213543 -0.1822917,0.218099 -0.1822917,0.5761721 H 5.0559916 q 0,-0.4329429 0.2050782,-0.791016 0.2083335,-0.3580731 0.5859378,-0.5598961 0.3776043,-0.2050782 0.8561202,-0.2050782 0.7324222,0 1.1360683,0.3515627 0.4069012,0.3515626 0.4069012,0.992839 0,0.3515627 -0.1822918,0.7161462 -0.1822917,0.3645835 -0.6250003,0.8496097 l -1.0774744,1.1360683 h 2.0377614 z"/>
      </g>
    </g>
    <g transform="translate(15,39)" id="g62274"/>
  </g>
  <path d="m 50,315 h 48 c 2.77,0 5,2.23 5,5 v 30 c 0,2.77 -2.23,5 -5,5 H 50 c -2.77,0 -5,-2.23 -5,-5 v -30 c 0,-2.77 2.23,-5 5,-5 z" style="fill:#fafafa" id="rect62280"/>
  <path d="m 88,315 h 40 c 2.77,0 5,2.23 5,5 v 30 c 0,2.77 -2.23,5 -5,5 H 88 c -2.77,0 -5,-2.23 -5,-5 v -30 c 0,-2.77 2.23,-5 5,-5 z" style="fill:#bbbbbb" id="rect62282"/>
  <path d="m 74,315 h 20 v 40 H 74 Z" style="fill:#bbbbbb" id="rect62284"/>
  <g transform="translate(47.5,318)" id="g62286"/>
  <g transform="translate(76.5,318)" id="g62288"/>
  <g transform="translate(105.5,318)" id="g62290"/>
  <g style="font-weight:bold;font-size:8px;font-family:Roboto, sans-serif;letter-spacing:2px;fill:#333333" id="text62292" aria-label="IN">
    <path id="path62479" style="font-weight:bold;font-size:8px;font-family:Roboto, sans-serif;letter-spacing:2px;fill:#333333" d="m 56.753906,351 h -1.171875 v -5.6875 h 1.171875 z"/>
    <path id="path62481" style="font-weight:bold;font-size:8px;font-family:Roboto, sans-serif;letter-spacing:2px;fill:#333333" d="m 64.460937,351 h -1.171875 l -2.28125,-3.74219 V 351 h -1.171875 v -5.6875 h 1.171875 l 2.285157,3.75 v -3.75 h 1.167968 z"/>
  </g>
  <g style="font-weight:bold;font-size:8px;font-family:Roboto, sans-serif;letter-spacing:2px;fill:#333333" id="text62294" aria-label="OUT">
    <path id="path62472" style="font-weight:bold;font-size:8px;font-family:Roboto, sans-serif;letter-spacing:2px;fill:#333333" d="m 83.179687,348.28516 q 0,0.83984 -0.296875,1.47265 -0.296875,0.63281 -0.851562,0.97656 -0.550781,0.34375 -1.265625,0.34375 -0.707031,0 -1.261719,-0.33984 -0.554687,-0.33984 -0.859375,-0.96875 -0.304687,-0.63281 -0.308594,-1.45312 v -0.28125 q 0,-0.83985 0.300782,-1.47657 0.304687,-0.64062 0.855468,-0.98047 0.554688,-0.34375 1.265625,-0.34375 0.710938,0 1.261719,0.34375 0.554688,0.33985 0.855469,0.98047 0.304687,0.63672 0.304687,1.47266 z m -1.1875,-0.25782 q 0,-0.89453 -0.320312,-1.35937 -0.320313,-0.46485 -0.914063,-0.46485 -0.589843,0 -0.910156,0.46094 -0.320312,0.45703 -0.324219,1.34375 v 0.27735 q 0,0.87109 0.320313,1.35156 0.320312,0.48047 0.921875,0.48047 0.589844,0 0.90625,-0.46094 0.316406,-0.46484 0.320312,-1.35156 z"/>
    <path id="path62474" style="font-weight:bold;font-size:8px;font-family:Roboto, sans-serif;letter-spacing:2px;fill:#333333" d="m 90.34375,345.3125 v 3.74609 q 0,0.9336 -0.585938,1.47657 -0.582031,0.54296 -1.59375,0.54296 -0.996093,0 -1.582031,-0.52734 -0.585937,-0.52734 -0.597656,-1.44922 v -3.78906 h 1.171875 v 3.75391 q 0,0.55859 0.265625,0.8164 0.269531,0.25391 0.742187,0.25391 0.988282,0 1.003907,-1.03906 v -3.78516 z"/>
    <path id="path62476" style="font-weight:bold;font-size:8px;font-family:Roboto, sans-serif;letter-spacing:2px;fill:#333333" d="M 97.585937,346.26172 H 95.84375 V 351 h -1.171875 v -4.73828 h -1.71875 v -0.94922 h 4.632812 z"/>
  </g>
  <g style="font-weight:bold;font-size:8px;font-family:Roboto, sans-serif;letter-spacing:2px;fill:#333333" id="text62296" aria-label="B">
    <path id="path62469" style="font-weight:bold;font-size:8px;font-family:Roboto, sans-serif;letter-spacing:2px;fill:#333333" d="m 116.00781,351 v -5.6875 H 118 q 1.03516,0 1.57031,0.39844 0.53516,0.39453 0.53516,1.16015 0,0.41797 -0.21484,0.73828 -0.21485,0.31641 -0.59766,0.46485 0.4375,0.10937 0.6875,0.4414 0.25391,0.33204 0.25391,0.8125 0,0.82032 -0.52344,1.24219 -0.52344,0.42188 -1.49219,0.42969 z m 1.17188,-2.47656 v 1.53515 h 1.0039 q 0.41407,0 0.64454,-0.19531 0.23437,-0.19922 0.23437,-0.54687 0,-0.78125 -0.80859,-0.79297 z m 0,-0.82813 h 0.86719 q 0.88671,-0.0156 0.88671,-0.70703 0,-0.38672 -0.22656,-0.55469 -0.22265,-0.17187 -0.70703,-0.17187 h -0.82031 z"/>
  </g>
</svg>
