<?xml version="1.0" encoding="UTF-8" standalone="no"?>
<svg xmlns:dc="http://purl.org/dc/elements/1.1/" xmlns:cc="http://creativecommons.org/ns#" xmlns:rdf="http://www.w3.org/1999/02/22-rdf-syntax-ns#" xmlns:svg="http://www.w3.org/2000/svg" xmlns="http://www.w3.org/2000/svg" xmlns:sodipodi="http://sodipodi.sourceforge.net/DTD/sodipodi-0.dtd" xmlns:inkscape="http://www.inkscape.org/namespaces/inkscape" inkscape:version="1.0 (4035a4f, 2020-05-01)" sodipodi:docname="svg_render_ThirtyHP-pp.svg" id="svg62763" viewBox="0 0 450 380" height="380" width="450" version="1.1">
  <metadata id="metadata62769">
    <rdf:RDF>
      <cc:Work rdf:about="">
        <dc:format>image/svg+xml</dc:format>
        <dc:type rdf:resource="http://purl.org/dc/dcmitype/StillImage"/>
      </cc:Work>
    </rdf:RDF>
  </metadata>
  <defs id="defs62767"/>
  <sodipodi:namedview inkscape:current-layer="svg62763" inkscape:window-maximized="0" inkscape:window-y="23" inkscape:window-x="0" inkscape:cy="190" inkscape:cx="225" inkscape:zoom="1.7605263" showgrid="false" id="namedview62765" inkscape:window-height="480" inkscape:window-width="689" inkscape:pageshadow="2" inkscape:pageopacity="0" guidetolerance="10" gridtolerance="10" objecttolerance="10" borderopacity="1" bordercolor="#666666" pagecolor="#ffffff"/>
  
  <path d="M 0,0 H 450 V 380 H 0 Z" style="fill:#dddddd" id="rect62747"/>
  <path d="M 1,1 H 449 V 379 H 1 V 1" style="fill:none;stroke:#e4e4e4;stroke-width:0.5" id="polyline62749"/>
  <path d="m 0.5,0.5 h 449 v 379 H 0.5 V 0.5" style="fill:none;stroke:#ebebeb;stroke-width:0.8" id="polyline62751"/>
  <path d="M 0,0 H 450 V 380 H 0 V 0" style="fill:none;stroke:#f2f2f2;stroke-width:1" id="polyline62753"/>
  <g class="title" style="font-weight:normal;font-size:16px;font-family:Comfortaa, sans-serif;letter-spacing:4px;fill:#333333" id="text62755" aria-label="THIRTY(30) HP - THIRTY(30) HP">
    <path id="path62791" style="font-weight:normal;font-size:16px;font-family:Comfortaa, sans-serif;letter-spacing:4px;fill:#333333" d="m 56.664,6.504 q 0.256,0 0.416,0.16 0.16,0.16 0.16,0.416 0,0.24 -0.16,0.4 -0.16,0.16 -0.416,0.16 h -3.808 v 10.736 q 0,0.256 -0.176,0.448 Q 52.504,19 52.232,19 51.976,19 51.784,18.824 51.608,18.632 51.608,18.376 V 7.64 h -3.792 q -0.256,0 -0.416,-0.16 -0.16,-0.16 -0.16,-0.4 0,-0.256 0.16,-0.416 0.16,-0.16 0.416,-0.16 z"/>
    <path id="path62793" style="font-weight:normal;font-size:16px;font-family:Comfortaa, sans-serif;letter-spacing:4px;fill:#333333" d="m 63.69275,19 q -0.256,0 -0.448,-0.176 -0.176,-0.192 -0.176,-0.448 V 7.128 q 0,-0.272 0.176,-0.448 0.192,-0.176 0.448,-0.176 0.272,0 0.448,0.176 0.176,0.176 0.176,0.448 v 4.992 h 7.808 V 7.128 q 0,-0.272 0.176,-0.448 0.192,-0.176 0.448,-0.176 0.272,0 0.448,0.176 0.176,0.176 0.176,0.448 v 11.248 q 0,0.256 -0.176,0.448 -0.176,0.176 -0.448,0.176 -0.256,0 -0.448,-0.176 -0.176,-0.192 -0.176,-0.448 V 13.24 h -7.808 v 5.136 q 0,0.256 -0.176,0.448 -0.176,0.176 -0.448,0.176 z"/>
    <path id="path62795" style="font-weight:normal;font-size:16px;font-family:Comfortaa, sans-serif;letter-spacing:4px;fill:#333333" d="m 81.19275,19 q -0.256,0 -0.448,-0.176 -0.176,-0.192 -0.176,-0.448 V 7.128 q 0,-0.272 0.176,-0.448 0.192,-0.176 0.448,-0.176 0.272,0 0.448,0.176 0.176,0.176 0.176,0.448 v 11.248 q 0,0.256 -0.176,0.448 -0.176,0.176 -0.448,0.176 z"/>
    <path id="path62797" style="font-weight:normal;font-size:16px;font-family:Comfortaa, sans-serif;letter-spacing:4px;fill:#333333" d="m 96.81425,18.04 q 0.144,0.24 0.144,0.432 0,0.24 -0.176,0.384 -0.176,0.144 -0.464,0.144 -0.192,0 -0.32,-0.08 -0.128,-0.08 -0.224,-0.24 l -2.88,-4.576 h -0.272 -2.368 v 4.272 q 0,0.272 -0.176,0.448 -0.176,0.176 -0.448,0.176 -0.272,0 -0.448,-0.176 -0.176,-0.176 -0.176,-0.448 V 7.128 q 0,-0.272 0.176,-0.448 0.176,-0.176 0.448,-0.176 h 2.992 q 1.168,0 2.08,0.496 0.912,0.48 1.424,1.36 0.528,0.88 0.528,2 0,1.232 -0.672,2.16 -0.656,0.928 -1.792,1.328 z m -4.192,-5.136 q 0.8,0 1.44,-0.32 0.656,-0.336 1.008,-0.912 0.368,-0.576 0.368,-1.312 0,-0.768 -0.368,-1.376 -0.352,-0.608 -0.992,-0.944 -0.64,-0.336 -1.456,-0.336 h -2.368 v 5.2 z"/>
    <path id="path62799" style="font-weight:normal;font-size:16px;font-family:Comfortaa, sans-serif;letter-spacing:4px;fill:#333333" d="m 110.94525,6.504 q 0.256,0 0.416,0.16 0.16,0.16 0.16,0.416 0,0.24 -0.16,0.4 -0.16,0.16 -0.416,0.16 h -3.808 v 10.736 q 0,0.256 -0.176,0.448 -0.176,0.176 -0.448,0.176 -0.256,0 -0.448,-0.176 -0.176,-0.192 -0.176,-0.448 V 7.64 h -3.792 q -0.256,0 -0.416,-0.16 -0.16,-0.16 -0.16,-0.4 0,-0.256 0.16,-0.416 0.16,-0.16 0.416,-0.16 z"/>
    <path id="path62801" style="font-weight:normal;font-size:16px;font-family:Comfortaa, sans-serif;letter-spacing:4px;fill:#333333" d="m 125.494,6.504 q 0.24,0 0.384,0.176 0.16,0.16 0.16,0.4 0,0.224 -0.112,0.4 l -4.368,6.896 v 4 q 0,0.256 -0.176,0.448 -0.176,0.176 -0.448,0.176 -0.256,0 -0.448,-0.176 -0.176,-0.192 -0.176,-0.448 v -4 L 115.958,7.48 q -0.128,-0.208 -0.128,-0.4 0,-0.24 0.176,-0.4 0.176,-0.176 0.432,-0.176 0.176,0 0.288,0.08 0.128,0.064 0.24,0.224 l 3.984,6.416 3.968,-6.384 q 0.128,-0.176 0.256,-0.256 0.128,-0.08 0.32,-0.08 z"/>
    <path id="path62803" style="font-weight:normal;font-size:16px;font-family:Comfortaa, sans-serif;letter-spacing:4px;fill:#333333" d="m 133.437,22.744 q -0.208,0 -0.352,-0.096 -0.128,-0.096 -0.24,-0.32 -1.872,-3.84 -1.872,-7.728 0,-3.904 1.872,-7.696 0.192,-0.416 0.592,-0.416 0.256,0 0.432,0.176 0.176,0.176 0.176,0.432 0,0.176 -0.096,0.352 -1.76,3.536 -1.76,7.168 0,3.584 1.776,7.184 0.096,0.192 0.096,0.336 0,0.256 -0.176,0.432 -0.176,0.176 -0.448,0.176 z"/>
    <path id="path62805" style="font-weight:normal;font-size:16px;font-family:Comfortaa, sans-serif;letter-spacing:4px;fill:#333333" d="m 143.01875,19.08 q -1.104,0 -2,-0.48 -0.896,-0.496 -1.408,-1.344 -0.512,-0.864 -0.512,-1.92 0,-0.272 0.16,-0.464 0.176,-0.192 0.432,-0.192 0.256,0 0.416,0.192 0.176,0.192 0.176,0.464 0,0.72 0.352,1.312 0.352,0.592 0.96,0.944 0.624,0.336 1.376,0.336 1.232,0 1.936,-0.688 0.72,-0.688 0.72,-1.808 0,-0.768 -0.336,-1.36 -0.336,-0.592 -0.912,-0.912 -0.576,-0.336 -1.296,-0.336 -0.256,0 -0.432,-0.176 -0.176,-0.176 -0.176,-0.448 0,-0.272 0.176,-0.432 0.176,-0.176 0.432,-0.176 0.544,0 1.024,-0.272 0.48,-0.288 0.768,-0.752 0.288,-0.48 0.288,-1.024 0,-0.848 -0.592,-1.408 -0.576,-0.576 -1.52,-0.576 -1.008,0 -1.664,0.56 -0.656,0.56 -0.656,1.408 0,0.272 -0.176,0.464 -0.16,0.176 -0.416,0.176 -0.256,0 -0.432,-0.176 -0.16,-0.192 -0.16,-0.448 0,-0.88 0.448,-1.584 0.464,-0.72 1.264,-1.12 0.8,-0.416 1.792,-0.416 0.912,0 1.664,0.416 0.768,0.4 1.2,1.12 0.432,0.704 0.432,1.584 0,0.8 -0.56,1.536 -0.544,0.72 -1.344,1.072 1.184,0.352 1.792,1.248 0.624,0.88 0.624,2.032 0,1.024 -0.512,1.872 -0.496,0.832 -1.376,1.312 -0.88,0.464 -1.952,0.464 z"/>
    <path id="path62807" style="font-weight:normal;font-size:16px;font-family:Comfortaa, sans-serif;letter-spacing:4px;fill:#333333" d="m 156.15375,19 q -1.184,0 -2.032,-0.752 -0.848,-0.752 -1.296,-2.16 -0.432,-1.408 -0.432,-3.36 0,-1.936 0.432,-3.344 0.448,-1.408 1.296,-2.16 0.848,-0.752 2.032,-0.752 1.2,0 2.048,0.768 0.848,0.752 1.28,2.16 0.448,1.408 0.448,3.328 0,2.944 -0.992,4.608 -0.992,1.664 -2.784,1.664 z m 0,-1.248 q 1.248,0 1.888,-1.376 0.64,-1.376 0.64,-3.648 0,-2.256 -0.656,-3.632 -0.64,-1.376 -1.872,-1.376 -1.232,0 -1.872,1.376 -0.64,1.376 -0.64,3.632 0,2.288 0.64,3.664 0.64,1.36 1.872,1.36 z"/>
    <path id="path62809" style="font-weight:normal;font-size:16px;font-family:Comfortaa, sans-serif;letter-spacing:4px;fill:#333333" d="m 165.50275,22.744 q -0.272,0 -0.448,-0.176 -0.176,-0.176 -0.176,-0.432 0,-0.144 0.096,-0.336 1.776,-3.6 1.776,-7.184 0,-3.632 -1.76,-7.168 -0.096,-0.176 -0.096,-0.352 0,-0.256 0.176,-0.432 0.176,-0.176 0.432,-0.176 0.4,0 0.592,0.416 1.872,3.792 1.872,7.696 0,3.888 -1.872,7.728 -0.112,0.224 -0.256,0.32 -0.128,0.096 -0.336,0.096 z"/>
    <path id="path62811" style="font-weight:normal;font-size:16px;font-family:Comfortaa, sans-serif;letter-spacing:4px;fill:#333333" d="m 183.724,19 q -0.256,0 -0.448,-0.176 Q 183.1,18.632 183.1,18.376 V 7.128 q 0,-0.272 0.176,-0.448 0.192,-0.176 0.448,-0.176 0.272,0 0.448,0.176 0.176,0.176 0.176,0.448 v 4.992 h 7.808 V 7.128 q 0,-0.272 0.176,-0.448 0.192,-0.176 0.448,-0.176 0.272,0 0.448,0.176 0.176,0.176 0.176,0.448 v 11.248 q 0,0.256 -0.176,0.448 Q 193.052,19 192.78,19 q -0.256,0 -0.448,-0.176 -0.176,-0.192 -0.176,-0.448 V 13.24 h -7.808 v 5.136 q 0,0.256 -0.176,0.448 Q 183.996,19 183.724,19 Z"/>
    <path id="path62813" style="font-weight:normal;font-size:16px;font-family:Comfortaa, sans-serif;letter-spacing:4px;fill:#333333" d="m 201.224,19 q -0.272,0 -0.448,-0.176 Q 200.6,18.648 200.6,18.376 V 7.128 q 0,-0.272 0.176,-0.448 0.176,-0.176 0.448,-0.176 h 3.2 q 1.168,0 2.08,0.528 0.928,0.512 1.44,1.44 0.512,0.912 0.512,2.096 0,1.168 -0.512,2.08 -0.512,0.912 -1.44,1.424 -0.912,0.512 -2.08,0.512 h -2.576 v 3.792 q 0,0.272 -0.176,0.448 Q 201.496,19 201.224,19 Z m 3.2,-5.616 q 0.816,0 1.456,-0.352 0.64,-0.368 0.992,-1.008 0.368,-0.64 0.368,-1.456 0,-0.832 -0.368,-1.472 Q 206.52,8.44 205.88,8.072 205.24,7.704 204.424,7.704 h -2.576 v 5.68 z"/>
    <path id="path62815" style="font-weight:normal;font-size:16px;font-family:Comfortaa, sans-serif;letter-spacing:4px;fill:#333333" d="m 222.68475,15.24 q -0.256,0 -0.432,-0.176 -0.176,-0.176 -0.176,-0.432 0,-0.272 0.16,-0.448 0.176,-0.176 0.448,-0.176 h 3.76 q 0.272,0 0.448,0.176 0.176,0.176 0.176,0.448 0,0.256 -0.176,0.432 -0.176,0.176 -0.448,0.176 z"/>
    <path id="path62817" style="font-weight:normal;font-size:16px;font-family:Comfortaa, sans-serif;letter-spacing:4px;fill:#333333" d="m 250.07025,6.504 q 0.256,0 0.416,0.16 0.16,0.16 0.16,0.416 0,0.24 -0.16,0.4 -0.16,0.16 -0.416,0.16 h -3.808 v 10.736 q 0,0.256 -0.176,0.448 -0.176,0.176 -0.448,0.176 -0.256,0 -0.448,-0.176 -0.176,-0.192 -0.176,-0.448 V 7.64 h -3.792 q -0.256,0 -0.416,-0.16 -0.16,-0.16 -0.16,-0.4 0,-0.256 0.16,-0.416 0.16,-0.16 0.416,-0.16 z"/>
    <path id="path62819" style="font-weight:normal;font-size:16px;font-family:Comfortaa, sans-serif;letter-spacing:4px;fill:#333333" d="m 257.099,19 q -0.256,0 -0.448,-0.176 -0.176,-0.192 -0.176,-0.448 V 7.128 q 0,-0.272 0.176,-0.448 0.192,-0.176 0.448,-0.176 0.272,0 0.448,0.176 0.176,0.176 0.176,0.448 v 4.992 h 7.808 V 7.128 q 0,-0.272 0.176,-0.448 0.192,-0.176 0.448,-0.176 0.272,0 0.448,0.176 0.176,0.176 0.176,0.448 v 11.248 q 0,0.256 -0.176,0.448 -0.176,0.176 -0.448,0.176 -0.256,0 -0.448,-0.176 -0.176,-0.192 -0.176,-0.448 V 13.24 h -7.808 v 5.136 q 0,0.256 -0.176,0.448 Q 257.371,19 257.099,19 Z"/>
    <path id="path62821" style="font-weight:normal;font-size:16px;font-family:Comfortaa, sans-serif;letter-spacing:4px;fill:#333333" d="m 274.599,19 q -0.256,0 -0.448,-0.176 -0.176,-0.192 -0.176,-0.448 V 7.128 q 0,-0.272 0.176,-0.448 0.192,-0.176 0.448,-0.176 0.272,0 0.448,0.176 0.176,0.176 0.176,0.448 v 11.248 q 0,0.256 -0.176,0.448 Q 274.871,19 274.599,19 Z"/>
    <path id="path62823" style="font-weight:normal;font-size:16px;font-family:Comfortaa, sans-serif;letter-spacing:4px;fill:#333333" d="m 290.2205,18.04 q 0.144,0.24 0.144,0.432 0,0.24 -0.176,0.384 -0.176,0.144 -0.464,0.144 -0.192,0 -0.32,-0.08 -0.128,-0.08 -0.224,-0.24 l -2.88,-4.576 h -0.272 -2.368 v 4.272 q 0,0.272 -0.176,0.448 -0.176,0.176 -0.448,0.176 -0.272,0 -0.448,-0.176 -0.176,-0.176 -0.176,-0.448 V 7.128 q 0,-0.272 0.176,-0.448 0.176,-0.176 0.448,-0.176 h 2.992 q 1.168,0 2.08,0.496 0.912,0.48 1.424,1.36 0.528,0.88 0.528,2 0,1.232 -0.672,2.16 -0.656,0.928 -1.792,1.328 z m -4.192,-5.136 q 0.8,0 1.44,-0.32 0.656,-0.336 1.008,-0.912 0.368,-0.576 0.368,-1.312 0,-0.768 -0.368,-1.376 -0.352,-0.608 -0.992,-0.944 -0.64,-0.336 -1.456,-0.336 h -2.368 v 5.2 z"/>
    <path id="path62825" style="font-weight:normal;font-size:16px;font-family:Comfortaa, sans-serif;letter-spacing:4px;fill:#333333" d="m 304.3515,6.504 q 0.256,0 0.416,0.16 0.16,0.16 0.16,0.416 0,0.24 -0.16,0.4 -0.16,0.16 -0.416,0.16 h -3.808 v 10.736 q 0,0.256 -0.176,0.448 -0.176,0.176 -0.448,0.176 -0.256,0 -0.448,-0.176 -0.176,-0.192 -0.176,-0.448 V 7.64 h -3.792 q -0.256,0 -0.416,-0.16 -0.16,-0.16 -0.16,-0.4 0,-0.256 0.16,-0.416 0.16,-0.16 0.416,-0.16 z"/>
    <path id="path62827" style="font-weight:normal;font-size:16px;font-family:Comfortaa, sans-serif;letter-spacing:4px;fill:#333333" d="m 318.90025,6.504 q 0.24,0 0.384,0.176 0.16,0.16 0.16,0.4 0,0.224 -0.112,0.4 l -4.368,6.896 v 4 q 0,0.256 -0.176,0.448 -0.176,0.176 -0.448,0.176 -0.256,0 -0.448,-0.176 -0.176,-0.192 -0.176,-0.448 v -4 l -4.352,-6.896 q -0.128,-0.208 -0.128,-0.4 0,-0.24 0.176,-0.4 0.176,-0.176 0.432,-0.176 0.176,0 0.288,0.08 0.128,0.064 0.24,0.224 l 3.984,6.416 3.968,-6.384 q 0.128,-0.176 0.256,-0.256 0.128,-0.08 0.32,-0.08 z"/>
    <path id="path62829" style="font-weight:normal;font-size:16px;font-family:Comfortaa, sans-serif;letter-spacing:4px;fill:#333333" d="m 326.84325,22.744 q -0.208,0 -0.352,-0.096 -0.128,-0.096 -0.24,-0.32 -1.872,-3.84 -1.872,-7.728 0,-3.904 1.872,-7.696 0.192,-0.416 0.592,-0.416 0.256,0 0.432,0.176 0.176,0.176 0.176,0.432 0,0.176 -0.096,0.352 -1.76,3.536 -1.76,7.168 0,3.584 1.776,7.184 0.096,0.192 0.096,0.336 0,0.256 -0.176,0.432 -0.176,0.176 -0.448,0.176 z"/>
    <path id="path62831" style="font-weight:normal;font-size:16px;font-family:Comfortaa, sans-serif;letter-spacing:4px;fill:#333333" d="m 336.425,19.08 q -1.104,0 -2,-0.48 -0.896,-0.496 -1.408,-1.344 -0.512,-0.864 -0.512,-1.92 0,-0.272 0.16,-0.464 0.176,-0.192 0.432,-0.192 0.256,0 0.416,0.192 0.176,0.192 0.176,0.464 0,0.72 0.352,1.312 0.352,0.592 0.96,0.944 0.624,0.336 1.376,0.336 1.232,0 1.936,-0.688 0.72,-0.688 0.72,-1.808 0,-0.768 -0.336,-1.36 -0.336,-0.592 -0.912,-0.912 -0.576,-0.336 -1.296,-0.336 -0.256,0 -0.432,-0.176 -0.176,-0.176 -0.176,-0.448 0,-0.272 0.176,-0.432 0.176,-0.176 0.432,-0.176 0.544,0 1.024,-0.272 0.48,-0.288 0.768,-0.752 0.288,-0.48 0.288,-1.024 0,-0.848 -0.592,-1.408 -0.576,-0.576 -1.52,-0.576 -1.008,0 -1.664,0.56 -0.656,0.56 -0.656,1.408 0,0.272 -0.176,0.464 -0.16,0.176 -0.416,0.176 -0.256,0 -0.432,-0.176 -0.16,-0.192 -0.16,-0.448 0,-0.88 0.448,-1.584 0.464,-0.72 1.264,-1.12 0.8,-0.416 1.792,-0.416 0.912,0 1.664,0.416 0.768,0.4 1.2,1.12 0.432,0.704 0.432,1.584 0,0.8 -0.56,1.536 -0.544,0.72 -1.344,1.072 1.184,0.352 1.792,1.248 0.624,0.88 0.624,2.032 0,1.024 -0.512,1.872 -0.496,0.832 -1.376,1.312 -0.88,0.464 -1.952,0.464 z"/>
    <path id="path62833" style="font-weight:normal;font-size:16px;font-family:Comfortaa, sans-serif;letter-spacing:4px;fill:#333333" d="m 349.56,19 q -1.184,0 -2.032,-0.752 -0.848,-0.752 -1.296,-2.16 -0.432,-1.408 -0.432,-3.36 0,-1.936 0.432,-3.344 0.448,-1.408 1.296,-2.16 0.848,-0.752 2.032,-0.752 1.2,0 2.048,0.768 0.848,0.752 1.28,2.16 0.448,1.408 0.448,3.328 0,2.944 -0.992,4.608 Q 351.352,19 349.56,19 Z m 0,-1.248 q 1.248,0 1.888,-1.376 0.64,-1.376 0.64,-3.648 0,-2.256 -0.656,-3.632 -0.64,-1.376 -1.872,-1.376 -1.232,0 -1.872,1.376 -0.64,1.376 -0.64,3.632 0,2.288 0.64,3.664 0.64,1.36 1.872,1.36 z"/>
    <path id="path62835" style="font-weight:normal;font-size:16px;font-family:Comfortaa, sans-serif;letter-spacing:4px;fill:#333333" d="m 358.909,22.744 q -0.272,0 -0.448,-0.176 -0.176,-0.176 -0.176,-0.432 0,-0.144 0.096,-0.336 1.776,-3.6 1.776,-7.184 0,-3.632 -1.76,-7.168 -0.096,-0.176 -0.096,-0.352 0,-0.256 0.176,-0.432 0.176,-0.176 0.432,-0.176 0.4,0 0.592,0.416 1.872,3.792 1.872,7.696 0,3.888 -1.872,7.728 -0.112,0.224 -0.256,0.32 -0.128,0.096 -0.336,0.096 z"/>
    <path id="path62837" style="font-weight:normal;font-size:16px;font-family:Comfortaa, sans-serif;letter-spacing:4px;fill:#333333" d="m 377.13025,19 q -0.256,0 -0.448,-0.176 -0.176,-0.192 -0.176,-0.448 V 7.128 q 0,-0.272 0.176,-0.448 0.192,-0.176 0.448,-0.176 0.272,0 0.448,0.176 0.176,0.176 0.176,0.448 v 4.992 h 7.808 V 7.128 q 0,-0.272 0.176,-0.448 0.192,-0.176 0.448,-0.176 0.272,0 0.448,0.176 0.176,0.176 0.176,0.448 v 11.248 q 0,0.256 -0.176,0.448 -0.176,0.176 -0.448,0.176 -0.256,0 -0.448,-0.176 -0.176,-0.192 -0.176,-0.448 V 13.24 h -7.808 v 5.136 q 0,0.256 -0.176,0.448 -0.176,0.176 -0.448,0.176 z"/>
    <path id="path62839" style="font-weight:normal;font-size:16px;font-family:Comfortaa, sans-serif;letter-spacing:4px;fill:#333333" d="m 394.63025,19 q -0.272,0 -0.448,-0.176 -0.176,-0.176 -0.176,-0.448 V 7.128 q 0,-0.272 0.176,-0.448 0.176,-0.176 0.448,-0.176 h 3.2 q 1.168,0 2.08,0.528 0.928,0.512 1.44,1.44 0.512,0.912 0.512,2.096 0,1.168 -0.512,2.08 -0.512,0.912 -1.44,1.424 -0.912,0.512 -2.08,0.512 h -2.576 v 3.792 q 0,0.272 -0.176,0.448 -0.176,0.176 -0.448,0.176 z m 3.2,-5.616 q 0.816,0 1.456,-0.352 0.64,-0.368 0.992,-1.008 0.368,-0.64 0.368,-1.456 0,-0.832 -0.368,-1.472 -0.352,-0.656 -0.992,-1.024 -0.64,-0.368 -1.456,-0.368 h -2.576 v 5.68 z"/>
  </g>
  <g class="brand" style="font-weight:bold;font-size:10.6667px;font-family:Audiowide, sans-serif;letter-spacing:2px;fill:#333333" id="text62757" aria-label="BOGAUDIO">
    <path id="path62774" style="font-weight:bold;font-size:10.6667px;font-family:Audiowide, sans-serif;letter-spacing:2px;fill:#333333" d="m 193.23961,372.35937 q 0,0.25 -0.0885,0.53646 -0.0833,0.28646 -0.28125,0.53125 -0.19271,0.24479 -0.50521,0.41146 Q 192.05211,374 191.59898,374 h -5.14064 q -0.14584,0 -0.27084,-0.0521 -0.125,-0.0521 -0.21875,-0.14063 -0.0885,-0.0937 -0.14062,-0.21875 -0.0521,-0.125 -0.0521,-0.27083 v -6.10419 q 0,-0.14063 0.0521,-0.26563 0.0521,-0.125 0.14062,-0.21875 0.0937,-0.0937 0.21875,-0.14583 0.125,-0.0521 0.27084,-0.0521 h 4.53126 q 0.25,0 0.53646,0.0885 0.28646,0.0885 0.53125,0.28646 0.25,0.19271 0.41146,0.50521 0.16667,0.3125 0.16667,0.76562 v 0.25521 q 0,0.35938 -0.11979,0.77605 -0.11979,0.41146 -0.38542,0.78125 0.22917,0.14063 0.42709,0.33854 0.20312,0.19792 0.35416,0.45834 0.15105,0.26042 0.23959,0.58854 0.0885,0.32813 0.0885,0.72396 z m -1.35417,-0.26042 q 0,-0.26562 -0.0833,-0.47396 -0.0833,-0.21354 -0.23437,-0.36458 -0.15104,-0.15104 -0.36459,-0.22917 -0.21354,-0.0833 -0.47916,-0.0833 h -3.0521 v -1.36459 h 2.44272 q 0.26563,0 0.47917,-0.0781 0.21354,-0.0833 0.36458,-0.23437 0.15104,-0.15104 0.22917,-0.35938 0.0833,-0.21354 0.0833,-0.47917 v -0.25521 q 0,-0.29166 -0.28125,-0.29166 h -3.85938 v 4.76043 h 4.46876 q 0.0365,0 0.0885,-0.005 0.0521,-0.005 0.0937,-0.0312 0.0417,-0.026 0.0729,-0.0885 0.0312,-0.0625 0.0312,-0.17188 z"/>
    <path id="path62776" style="font-weight:bold;font-size:10.6667px;font-family:Audiowide, sans-serif;letter-spacing:2px;fill:#333333" d="m 204.25005,370.97916 q 0,0.68229 -0.23437,1.25521 -0.23438,0.57292 -0.65104,0.98959 -0.41667,0.41666 -0.98959,0.65104 -0.56771,0.22917 -1.23959,0.22917 h -1.83334 q -0.67187,0 -1.24479,-0.22917 -0.57292,-0.23438 -0.98959,-0.65104 -0.41667,-0.41667 -0.65625,-0.98959 -0.23438,-0.57292 -0.23438,-1.25521 v -1.42709 q 0,-0.67709 0.23438,-1.25 0.23958,-0.57813 0.65625,-0.98959 0.41667,-0.41667 0.98959,-0.65104 0.57292,-0.23438 1.24479,-0.23438 h 1.83334 q 0.67188,0 1.23959,0.23438 0.57292,0.23437 0.98959,0.65104 0.41666,0.41146 0.65104,0.98959 0.23437,0.57291 0.23437,1.25 z m -1.35417,-1.42709 q 0,-0.40104 -0.1302,-0.72396 -0.12501,-0.32813 -0.35938,-0.55729 -0.22917,-0.23438 -0.55729,-0.35938 -0.32292,-0.13021 -0.71355,-0.13021 h -1.83334 q -0.39583,0 -0.72396,0.13021 -0.32292,0.125 -0.55729,0.35938 -0.23438,0.22916 -0.36459,0.55729 -0.125,0.32292 -0.125,0.72396 v 1.42709 q 0,0.40104 0.125,0.72917 0.13021,0.32291 0.36459,0.55729 0.23437,0.22917 0.55729,0.35938 0.32813,0.125 0.72396,0.125 h 1.82293 q 0.39583,0 0.71875,-0.125 0.32812,-0.13021 0.5625,-0.35938 0.23437,-0.23438 0.35938,-0.55729 0.1302,-0.32813 0.1302,-0.72917 z"/>
    <path id="path62778" style="font-weight:bold;font-size:10.6667px;font-family:Audiowide, sans-serif;letter-spacing:2px;fill:#333333" d="m 214.96883,373.31771 q 0,0.14583 -0.0521,0.27083 -0.0521,0.125 -0.14583,0.21875 -0.0885,0.0885 -0.21355,0.14063 -0.125,0.0521 -0.27083,0.0521 h -4.88543 q -0.1875,0 -0.40625,-0.0417 -0.21355,-0.0469 -0.42709,-0.14062 -0.20833,-0.0937 -0.40104,-0.23959 -0.19271,-0.15104 -0.34375,-0.35937 -0.14584,-0.21354 -0.23438,-0.48959 -0.0885,-0.28125 -0.0885,-0.63021 v -3.66668 q 0,-0.1875 0.0417,-0.40104 0.0469,-0.21875 0.14062,-0.42708 0.0937,-0.21355 0.24479,-0.40625 0.15105,-0.19271 0.35938,-0.33855 0.21354,-0.15104 0.48959,-0.23958 0.27604,-0.0885 0.625,-0.0885 h 5.50522 v 1.35417 h -5.50522 q -0.26563,0 -0.40625,0.14062 -0.14063,0.14063 -0.14063,0.41667 v 3.65626 q 0,0.26042 0.14063,0.40625 0.14583,0.14063 0.40625,0.14063 h 4.21355 v -1.69792 h -3.60418 v -1.36459 h 4.27606 q 0.14583,0 0.27083,0.0573 0.125,0.0521 0.21355,0.14584 0.0937,0.0937 0.14583,0.21875 0.0521,0.11979 0.0521,0.26041 z"/>
    <path id="path62780" style="font-weight:bold;font-size:10.6667px;font-family:Audiowide, sans-serif;letter-spacing:2px;fill:#333333" d="m 225.71886,374 h -1.35417 v -1.83334 h -4.76043 V 374 h -1.35417 v -3.73439 q 0,-0.81771 0.28125,-1.50521 0.28125,-0.6875 0.78125,-1.1823 0.5,-0.49479 1.1823,-0.77083 0.68229,-0.27604 1.48958,-0.27604 h 3.0521 q 0.14062,0 0.26562,0.0521 0.125,0.0521 0.21875,0.14583 0.0937,0.0937 0.14584,0.21875 0.0521,0.125 0.0521,0.26563 z m -6.1146,-3.18751 h 4.76043 v -2.92709 h -2.38022 q -0.0625,0 -0.26562,0.0208 -0.19792,0.0156 -0.46354,0.0885 -0.26042,0.0729 -0.55209,0.22396 -0.29167,0.15104 -0.53646,0.41667 -0.24479,0.26563 -0.40625,0.66667 -0.15625,0.39583 -0.15625,0.96354 z"/>
    <path id="path62782" style="font-weight:bold;font-size:10.6667px;font-family:Audiowide, sans-serif;letter-spacing:2px;fill:#333333" d="m 236.60431,373.31771 q 0,0.14583 -0.0521,0.27083 -0.0521,0.125 -0.14583,0.21875 -0.0937,0.0885 -0.21875,0.14063 -0.125,0.0521 -0.26563,0.0521 h -3.05209 q -0.43229,0 -0.875,-0.0937 -0.44271,-0.0937 -0.85938,-0.28646 -0.41146,-0.19792 -0.77604,-0.5 -0.36459,-0.30209 -0.64063,-0.71355 -0.27084,-0.41666 -0.42709,-0.94791 -0.15625,-0.53646 -0.15625,-1.19272 v -3.73438 h 1.35417 v 3.73438 q 0,0.57292 0.15625,0.96876 0.16146,0.39583 0.40626,0.66146 0.24479,0.26562 0.53646,0.41666 0.29166,0.15105 0.55208,0.22396 0.26563,0.0729 0.46354,0.0937 0.20313,0.0156 0.26563,0.0156 h 2.38022 v -6.1146 h 1.35417 z"/>
    <path id="path62784" style="font-weight:bold;font-size:10.6667px;font-family:Audiowide, sans-serif;letter-spacing:2px;fill:#333333" d="m 247.63558,370.87499 q 0,0.68229 -0.23958,1.25521 -0.23438,0.57292 -0.65105,0.98959 -0.41666,0.41146 -0.98958,0.64583 Q 245.18245,374 244.51057,374 h -3.65626 q -0.14583,0 -0.27083,-0.0521 -0.125,-0.0521 -0.21875,-0.14063 -0.0885,-0.0937 -0.14063,-0.21875 -0.0521,-0.125 -0.0521,-0.27083 v -6.10419 q 0,-0.14063 0.0521,-0.26563 0.0521,-0.125 0.14063,-0.21875 0.0937,-0.0937 0.21875,-0.14583 0.125,-0.0521 0.27083,-0.0521 h 3.65626 q 0.67188,0 1.2448,0.23437 0.57292,0.23438 0.98958,0.65105 0.41667,0.41146 0.65105,0.98958 0.23958,0.57292 0.23958,1.25001 z m -1.35417,-1.21875 q 0,-0.39584 -0.13021,-0.72396 -0.125,-0.32813 -0.35937,-0.5573 -0.23438,-0.23437 -0.56251,-0.35937 -0.32291,-0.13021 -0.71875,-0.13021 h -2.98438 v 4.76043 h 2.98438 q 0.39584,0 0.71875,-0.125 0.32813,-0.13021 0.56251,-0.35938 0.23437,-0.23437 0.35937,-0.55729 0.13021,-0.32813 0.13021,-0.72917 z"/>
    <path id="path62786" style="font-weight:bold;font-size:10.6667px;font-family:Audiowide, sans-serif;letter-spacing:2px;fill:#333333" d="m 252.33872,374 h -1.35417 v -7.46877 h 1.35417 z"/>
    <path id="path62788" style="font-weight:bold;font-size:10.6667px;font-family:Audiowide, sans-serif;letter-spacing:2px;fill:#333333" d="m 263.77104,370.97916 q 0,0.68229 -0.23438,1.25521 -0.23437,0.57292 -0.65104,0.98959 -0.41667,0.41666 -0.98959,0.65104 -0.56771,0.22917 -1.23958,0.22917 h -1.83334 q -0.67188,0 -1.2448,-0.22917 -0.57292,-0.23438 -0.98959,-0.65104 -0.41666,-0.41667 -0.65625,-0.98959 -0.23437,-0.57292 -0.23437,-1.25521 v -1.42709 q 0,-0.67709 0.23437,-1.25 0.23959,-0.57813 0.65625,-0.98959 0.41667,-0.41667 0.98959,-0.65104 0.57292,-0.23438 1.2448,-0.23438 h 1.83334 q 0.67187,0 1.23958,0.23438 0.57292,0.23437 0.98959,0.65104 0.41667,0.41146 0.65104,0.98959 0.23438,0.57291 0.23438,1.25 z m -1.35417,-1.42709 q 0,-0.40104 -0.13021,-0.72396 -0.125,-0.32813 -0.35938,-0.55729 -0.22916,-0.23438 -0.55729,-0.35938 -0.32292,-0.13021 -0.71354,-0.13021 h -1.83334 q -0.39584,0 -0.72396,0.13021 -0.32292,0.125 -0.5573,0.35938 -0.23437,0.22916 -0.36458,0.55729 -0.125,0.32292 -0.125,0.72396 v 1.42709 q 0,0.40104 0.125,0.72917 0.13021,0.32291 0.36458,0.55729 0.23438,0.22917 0.5573,0.35938 0.32812,0.125 0.72396,0.125 h 1.82292 q 0.39583,0 0.71875,-0.125 0.32813,-0.13021 0.5625,-0.35938 0.23438,-0.23438 0.35938,-0.55729 0.13021,-0.32813 0.13021,-0.72917 z"/>
  </g>
  <path d="m 209,369 h 3 v 3 h -3 z" style="fill:#dddddd" id="rect62759"/>
</svg>
