<?xml version="1.0" encoding="UTF-8" standalone="no"?>
<svg xmlns:dc="http://purl.org/dc/elements/1.1/" xmlns:cc="http://creativecommons.org/ns#" xmlns:rdf="http://www.w3.org/1999/02/22-rdf-syntax-ns#" xmlns:svg="http://www.w3.org/2000/svg" xmlns="http://www.w3.org/2000/svg" xmlns:sodipodi="http://sodipodi.sourceforge.net/DTD/sodipodi-0.dtd" xmlns:inkscape="http://www.inkscape.org/namespaces/inkscape" inkscape:version="1.0 (4035a4f, 2020-05-01)" sodipodi:docname="svg_render_ThreeHP-pp.svg" id="svg61446" viewBox="0 0 45 380" height="380" width="45" version="1.1">
  <metadata id="metadata61452">
    <rdf:RDF>
      <cc:Work rdf:about="">
        <dc:format>image/svg+xml</dc:format>
        <dc:type rdf:resource="http://purl.org/dc/dcmitype/StillImage"/>
      </cc:Work>
    </rdf:RDF>
  </metadata>
  <defs id="defs61450"/>
  <sodipodi:namedview inkscape:current-layer="svg61446" inkscape:window-maximized="0" inkscape:window-y="23" inkscape:window-x="0" inkscape:cy="190" inkscape:cx="22.5" inkscape:zoom="1.7605263" showgrid="false" id="namedview61448" inkscape:window-height="480" inkscape:window-width="689" inkscape:pageshadow="2" inkscape:pageopacity="0" guidetolerance="10" gridtolerance="10" objecttolerance="10" borderopacity="1" bordercolor="#666666" pagecolor="#ffffff"/>
  
  <path class="module-background background-fill" d="M 0,0 H 45 V 380 H 0 Z" style="fill:#dddddd" id="rect61428"/>
  <path class="module-border-inner" d="M 1,1 H 44 V 379 H 1 V 1" style="fill:none;stroke:#e4e4e4;stroke-width:0.5" id="polyline61430"/>
  <path class="module-border-middle" d="m 0.5,0.5 h 44 v 379 H 0.5 V 0.5" style="fill:none;stroke:#ebebeb;stroke-width:0.8" id="polyline61432"/>
  <path class="module-border-outer" d="M 0,0 H 45 V 380 H 0 V 0" style="fill:none;stroke:#f2f2f2;stroke-width:1" id="polyline61434"/>
  <g class="title" style="font-weight:normal;font-size:9.33333px;font-family:Comfortaa, sans-serif;letter-spacing:2.5px;fill:#333333" id="text61436" transform="rotate(-90)" aria-label="3HP">
    <path id="path61466" style="font-weight:normal;font-size:9.33333px;font-family:Comfortaa, sans-serif;letter-spacing:2.5px;fill:#333333" d="m -373.2,13.046667 q -0.644,0 -1.16667,-0.28 -0.52266,-0.289333 -0.82133,-0.784 -0.29867,-0.504 -0.29867,-1.12 0,-0.158666 0.0933,-0.270666 0.10266,-0.112 0.252,-0.112 0.14933,0 0.24266,0.112 0.10267,0.112 0.10267,0.270666 0,0.42 0.20533,0.765333 0.20534,0.345334 0.56,0.550667 0.364,0.196 0.80267,0.196 0.71867,0 1.12933,-0.401333 0.42,-0.401334 0.42,-1.054667 0,-0.447999 -0.196,-0.793333 -0.196,-0.3453329 -0.532,-0.5319995 -0.336,-0.1959999 -0.756,-0.1959999 -0.14933,0 -0.252,-0.1026667 -0.10266,-0.1026666 -0.10266,-0.2613332 0,-0.1586666 0.10266,-0.2519999 0.10267,-0.1026667 0.252,-0.1026667 0.31734,0 0.59734,-0.1586666 0.28,-0.1679999 0.448,-0.4386665 0.168,-0.2799999 0.168,-0.5973331 0,-0.4946665 -0.34534,-0.8213331 -0.336,-0.3359999 -0.88666,-0.3359999 -0.588,0 -0.97067,0.3266666 -0.38267,0.3266666 -0.38267,0.821333 0,0.1586667 -0.10266,0.2706666 -0.0933,0.1026667 -0.24267,0.1026667 -0.14933,0 -0.252,-0.1026667 -0.0933,-0.1119999 -0.0933,-0.2613332 0,-0.5133332 0.26133,-0.9239997 0.27067,-0.4199999 0.73733,-0.6533331 0.46667,-0.2426666 1.04534,-0.2426666 0.532,0 0.97066,0.2426666 0.448,0.2333332 0.7,0.6533331 0.252,0.4106665 0.252,0.9239997 0,0.4666665 -0.32666,0.8959997 -0.31734,0.4199998 -0.784,0.6253331 0.69066,0.2053333 1.04533,0.7279997 0.364,0.5133336 0.364,1.1853326 0,0.597334 -0.29867,1.092 -0.28933,0.485333 -0.80266,0.765333 -0.51334,0.270667 -1.13867,0.270667 z"/>
    <path id="path61468" style="font-weight:normal;font-size:9.33333px;font-family:Comfortaa, sans-serif;letter-spacing:2.5px;fill:#333333" d="m -366.73392,13 q -0.14933,0 -0.26133,-0.102667 -0.10267,-0.112 -0.10267,-0.261333 V 6.074669 q 0,-0.1586666 0.10267,-0.2613332 0.112,-0.1026667 0.26133,-0.1026667 0.15867,0 0.26133,0.1026667 0.10267,0.1026666 0.10267,0.2613332 v 2.911999 h 4.55467 V 6.074669 q 0,-0.1586666 0.10266,-0.2613332 0.112,-0.1026667 0.26134,-0.1026667 0.15866,0 0.26133,0.1026667 0.10267,0.1026666 0.10267,0.2613332 V 12.636 q 0,0.149333 -0.10267,0.261333 Q -361.29259,13 -361.45125,13 q -0.14934,0 -0.26134,-0.102667 -0.10266,-0.112 -0.10266,-0.261333 V 9.6400011 h -4.55467 V 12.636 q 0,0.149333 -0.10267,0.261333 Q -366.57525,13 -366.73392,13 Z"/>
    <path id="path61470" style="font-weight:normal;font-size:9.33333px;font-family:Comfortaa, sans-serif;letter-spacing:2.5px;fill:#333333" d="m -356.35892,13 q -0.15867,0 -0.26133,-0.102667 -0.10267,-0.102666 -0.10267,-0.261333 V 6.074669 q 0,-0.1586666 0.10267,-0.2613332 0.10266,-0.1026667 0.26133,-0.1026667 h 1.86667 q 0.68133,0 1.21333,0.3079999 0.54133,0.2986666 0.84,0.8399998 0.29866,0.5319998 0.29866,1.2226662 0,0.6813331 -0.29866,1.2133329 -0.29867,0.5319998 -0.84,0.8306661 -0.532,0.298667 -1.21333,0.298667 h -1.50267 V 12.636 q 0,0.158667 -0.10267,0.261333 Q -356.20025,13 -356.35892,13 Z m 1.86667,-3.2759989 q 0.47599,0 0.84933,-0.2053332 0.37333,-0.2146666 0.57866,-0.5879998 0.21467,-0.3733333 0.21467,-0.8493331 0,-0.4853332 -0.21467,-0.8586664 -0.20533,-0.3826665 -0.57866,-0.5973331 -0.37334,-0.2146666 -0.84933,-0.2146666 h -1.50267 v 3.3133322 z"/>
  </g>
  <g transform="rotate(-90,200.5,175.5)" id="g61442">
    <g class="brand" style="font-weight:bold;font-size:9.33333px;font-family:Audiowide, sans-serif;letter-spacing:2px;fill:#333333" id="text61438" aria-label="BGA">
      <path id="path61458" style="font-weight:bold;font-size:9.33333px;font-family:Audiowide, sans-serif;letter-spacing:2px;fill:#333333" d="m 7.209633,-1.4355464 q 0,0.2187499 -0.077474,0.4694009 -0.072917,0.25065095 -0.2460936,0.46484359 Q 6.7174456,-0.28710928 6.4440082,-0.14127599 6.1705708,0 5.7740866,0 H 1.2760412 Q 1.1484371,0 1.0390621,-0.0455729 0.92968718,-0.0911458 0.84765596,-0.16861973 0.77018203,-0.25065096 0.72460913,-0.36002592 0.67903623,-0.46940088 0.67903623,-0.597005 v -5.341144 q 0,-0.1230469 0.0455729,-0.2324218 0.0455729,-0.109375 0.12304683,-0.1914062 0.0820312,-0.082031 0.19140614,-0.1276041 0.109375,-0.045573 0.2369791,-0.045573 h 3.9648424 q 0.21875,0 0.4694009,0.077474 0.250651,0.077474 0.4648436,0.250651 0.2187499,0.1686197 0.3600259,0.4420571 0.1458333,0.2734374 0.1458333,0.6699217 v 0.2233072 q 0,0.314453 -0.1048177,0.6790362 -0.1048176,0.3600259 -0.3372394,0.6835935 0.2005207,0.1230468 0.3736978,0.2962239 0.1777343,0.173177 0.3098957,0.4010415 0.1321614,0.2278645 0.2096353,0.5149738 0.077474,0.2871093 0.077474,0.6334633 z M 6.0247375,-1.6634109 q 0,-0.2324218 -0.072917,-0.4147134 Q 5.8789042,-2.2649732 5.7467428,-2.3971346 5.6145814,-2.529296 5.4277325,-2.5976554 5.2408836,-2.670572 5.0084618,-2.670572 h -2.670572 v -1.19401 h 2.1373691 q 0.2324218,0 0.4192707,-0.068359 0.1868489,-0.072917 0.3190103,-0.205078 0.1321614,-0.1321614 0.2005208,-0.314453 0.072917,-0.1868489 0.072917,-0.4192707 v -0.2233072 q 0,-0.2552083 -0.2460937,-0.2552083 H 1.8639317 v 4.1653632 h 3.9101549 q 0.031901,0 0.077474,-0.00456 0.045573,-0.00456 0.082031,-0.027344 0.036458,-0.022786 0.063802,-0.077474 0.027344,-0.054687 0.027344,-0.1503906 z"/>
      <path id="path61460" style="font-weight:bold;font-size:9.33333px;font-family:Audiowide, sans-serif;letter-spacing:2px;fill:#333333" d="m 16.683589,-0.597005 q 0,0.12760412 -0.04557,0.23697908 -0.04557,0.10937496 -0.127605,0.19140619 -0.07747,0.07747393 -0.186849,0.12304683 Q 16.214189,0 16.086584,0 h -4.274738 q -0.164062,0 -0.355468,-0.03645832 -0.186849,-0.04101561 -0.373698,-0.12304683 -0.182292,-0.0820312 -0.350911,-0.20963535 -0.16862,-0.13216141 -0.300782,-0.31445302 -0.127604,-0.18684889 -0.205078,-0.42838528 -0.07747,-0.2460937 -0.07747,-0.5514321 v -3.2083322 q 0,-0.1640625 0.03646,-0.3509114 0.04101,-0.1914062 0.123047,-0.3736978 0.08203,-0.1868489 0.214192,-0.3554686 0.132162,-0.1686197 0.314453,-0.2962238 0.186849,-0.1321615 0.428385,-0.2096354 0.241537,-0.077474 0.546875,-0.077474 h 4.817056 v 1.1848954 h -4.817056 q -0.232422,0 -0.355468,0.1230468 -0.123047,0.1230469 -0.123047,0.3645832 v 3.1992177 q 0,0.2278645 0.123047,0.3554686 0.127604,0.1230469 0.355468,0.1230469 h 3.686848 V -2.670572 h -3.153645 v -1.19401 h 3.741535 q 0.127605,0 0.236979,0.05013 0.109375,0.045573 0.186849,0.1276041 0.08203,0.082031 0.127605,0.1914062 0.04557,0.1048177 0.04557,0.2278645 z"/>
      <path id="path61462" style="font-weight:bold;font-size:9.33333px;font-family:Audiowide, sans-serif;letter-spacing:2px;fill:#333333" d="M 26.339836,0 H 25.154941 V -1.6041661 H 20.989578 V 0 h -1.184896 v -3.267577 q 0,-0.7154946 0.246094,-1.3170569 0.246094,-0.6015623 0.683593,-1.0345048 0.4375,-0.4329426 1.034505,-0.6744789 0.597005,-0.2415364 1.303385,-0.2415364 h 2.670572 q 0.123047,0 0.232422,0.045573 0.109375,0.045573 0.191406,0.1276041 0.08203,0.082031 0.127604,0.1914062 0.04557,0.1093749 0.04557,0.2324218 z m -5.350258,-2.7890616 h 4.165363 v -2.561197 h -2.082682 q -0.05469,0 -0.232422,0.018229 -0.173177,0.013672 -0.405598,0.077474 -0.227865,0.063802 -0.483073,0.1959635 -0.255208,0.1321614 -0.469401,0.3645832 -0.214193,0.2324218 -0.355469,0.5833331 -0.136718,0.3463541 -0.136718,0.8430987 z"/>
    </g>
    <path d="M 0,0 H 3 V 3 H 0 Z" style="fill:#dddddd" transform="translate(11.5,-5)" id="rect61440"/>
  </g>
</svg>
