<?xml version="1.0" encoding="UTF-8" standalone="no"?>
<svg xmlns:dc="http://purl.org/dc/elements/1.1/" xmlns:cc="http://creativecommons.org/ns#" xmlns:rdf="http://www.w3.org/1999/02/22-rdf-syntax-ns#" xmlns:svg="http://www.w3.org/2000/svg" xmlns="http://www.w3.org/2000/svg" xmlns:sodipodi="http://sodipodi.sourceforge.net/DTD/sodipodi-0.dtd" xmlns:inkscape="http://www.inkscape.org/namespaces/inkscape" inkscape:version="1.0 (4035a4f, 2020-05-01)" sodipodi:docname="svg_render_Unison-pp.svg" id="svg56814" viewBox="0 0 45 380" height="380" width="45" version="1.1">
  <metadata id="metadata56818">
    <rdf:RDF>
      <cc:Work rdf:about="">
        <dc:format>image/svg+xml</dc:format>
        <dc:type rdf:resource="http://purl.org/dc/dcmitype/StillImage"/>
      </cc:Work>
    </rdf:RDF>
  </metadata>
  <sodipodi:namedview inkscape:current-layer="svg56814" inkscape:window-maximized="0" inkscape:window-y="23" inkscape:window-x="0" inkscape:cy="190" inkscape:cx="22.5" inkscape:zoom="1.7605263" showgrid="false" id="namedview56816" inkscape:window-height="480" inkscape:window-width="689" inkscape:pageshadow="2" inkscape:pageopacity="0" guidetolerance="10" gridtolerance="10" objecttolerance="10" borderopacity="1" bordercolor="#666666" pagecolor="#ffffff"/>
  
  <defs id="defs56754">
    <symbol viewBox="0 0 26px 26px" id="knob26">
      <g id="g56677" transform="translate(13 13)">
        <polyline id="polyline56671" stroke="#00f" stroke-width="1" points="-3,0 3,0"/>
        <polyline id="polyline56673" stroke="#00f" stroke-width="1" points="0,-3 0,3"/>
        <circle id="circle56675" fill="none" stroke="#00f" stroke-width="1" r="12.5" cy="0" cx="0"/>
      </g>
    </symbol>
    <symbol viewBox="0 0 45px 45px" id="dial-channels">
      <g id="g56712" transform="translate(22.5 22.5)">
        <text id="text56680" transform="rotate(-240) translate(18 0) rotate(240) translate(-1.9 2.2)" font-size="5.0pt">1</text>
        <polyline id="polyline56682" transform="rotate(-220) translate(15 0)" stroke="#333" stroke-width="0.3" points="0,0 1.5,0"/>
        <polyline id="polyline56684" transform="rotate(-200) translate(15 0)" stroke="#333" stroke-width="0.3" points="0,0 1.5,0"/>
        <text id="text56686" transform="rotate(-180) translate(17 0) rotate(180) translate(-2 2.2)" font-size="5.0pt">4</text>
        <polyline id="polyline56688" transform="rotate(-160) translate(15 0)" stroke="#333" stroke-width="0.3" points="0,0 1.5,0"/>
        <polyline id="polyline56690" transform="rotate(-140) translate(15 0)" stroke="#333" stroke-width="0.3" points="0,0 1.5,0"/>
        <polyline id="polyline56692" transform="rotate(-120) translate(15 0)" stroke="#333" stroke-width="0.3" points="0,0 1.5,0"/>
        <text id="text56694" transform="rotate(-100) translate(17 0) rotate(100) translate(-1.9 2.5)" font-size="5.0pt">8</text>
        <polyline id="polyline56696" transform="rotate(-80) translate(15 0)" stroke="#333" stroke-width="0.3" points="0,0 1.5,0"/>
        <polyline id="polyline56698" transform="rotate(-60) translate(15 0)" stroke="#333" stroke-width="0.3" points="0,0 1.5,0"/>
        <polyline id="polyline56700" transform="rotate(-40) translate(15 0)" stroke="#333" stroke-width="0.3" points="0,0 1.5,0"/>
        <text id="text56702" transform="rotate(-20) translate(17 0) rotate(20) translate(-3 2.4)" font-size="5.0pt">12</text>
        <polyline id="polyline56704" transform="rotate(0) translate(15 0)" stroke="#333" stroke-width="0.3" points="0,0 1.5,0"/>
        <polyline id="polyline56706" transform="rotate(20) translate(15 0)" stroke="#333" stroke-width="0.3" points="0,0 1.5,0"/>
        <polyline id="polyline56708" transform="rotate(40) translate(15 0)" stroke="#333" stroke-width="0.3" points="0,0 1.5,0"/>
        <text id="text56710" transform="rotate(60) translate(18 0) rotate(-60) translate(-1.9 2.2)" font-size="5.0pt">16</text>
      </g>
    </symbol>
    <symbol viewBox="0 0 24px 24px" id="input">
      <g id="g56719" transform="translate(12 12)">
        <circle id="circle56715" fill="#0f0" stroke="#0f0" stroke-width="1" r="5" cy="0" cx="0"/>
        <circle id="circle56717" fill="none" stroke="#0f0" stroke-width="3" r="10.5" cy="0" cx="0"/>
      </g>
    </symbol>
    <symbol viewBox="0 0 24px 24px" id="output">
      <g id="g56726" transform="translate(12 12)">
        <circle id="circle56722" fill="#f00" stroke="#f00" stroke-width="1" r="5" cy="0" cx="0"/>
        <circle id="circle56724" fill="none" stroke="#f00" stroke-width="3" r="10.5" cy="0" cx="0"/>
      </g>
    </symbol>
    <symbol viewBox="0 0 45px 45px" id="dial-detune-unison">
      <g id="g56751" transform="translate(22.5 22.5)">
        <text id="text56729" transform="rotate(-240) translate(18 0) rotate(240) translate(-1.9 2.2)" font-size="5.0pt">0</text>
        <polyline id="polyline56731" transform="rotate(-210) translate(15 0)" stroke="#333" stroke-width="0.3" points="0,0 1.5,0"/>
        <polyline id="polyline56733" transform="rotate(-180) translate(15 0)" stroke="#333" stroke-width="0.3" points="0,0 1.5,0"/>
        <polyline id="polyline56735" transform="rotate(-150) translate(15 0)" stroke="#333" stroke-width="0.3" points="0,0 1.5,0"/>
        <polyline id="polyline56737" transform="rotate(-120) translate(15 0)" stroke="#333" stroke-width="0.3" points="0,0 1.5,0"/>
        <polyline id="polyline56739" transform="rotate(-90) translate(15 0)" stroke="#333" stroke-width="0.3" points="0,0 1.5,0"/>
        <polyline id="polyline56741" transform="rotate(-60) translate(15 0)" stroke="#333" stroke-width="0.3" points="0,0 1.5,0"/>
        <polyline id="polyline56743" transform="rotate(-30) translate(15 0)" stroke="#333" stroke-width="0.3" points="0,0 1.5,0"/>
        <polyline id="polyline56745" transform="rotate(0) translate(15 0)" stroke="#333" stroke-width="0.3" points="0,0 1.5,0"/>
        <polyline id="polyline56747" transform="rotate(30) translate(15 0)" stroke="#333" stroke-width="0.3" points="0,0 1.5,0"/>
        <text id="text56749" transform="rotate(60) translate(18 0) rotate(-60) translate(-1.9 2.2)" font-size="5.0pt">50</text>
      </g>
    </symbol>
  </defs>
  <path d="M 0,0 H 45 V 380 H 0 Z" style="fill:#dddddd" id="rect56756"/>
  <path d="M 1,1 H 44 V 379 H 1 V 1" style="fill:none;stroke:#e4e4e4;stroke-width:0.5" id="polyline56758"/>
  <path d="m 0.5,0.5 h 44 v 379 H 0.5 V 0.5" style="fill:none;stroke:#ebebeb;stroke-width:0.8" id="polyline56760"/>
  <path d="M 0,0 H 45 V 380 H 0 V 0" style="fill:none;stroke:#f2f2f2;stroke-width:1" id="polyline56762"/>
  <g class="title" style="font-weight:normal;font-size:9.33333px;font-family:Comfortaa, sans-serif;letter-spacing:2.5px;fill:#333333" id="text56764" transform="rotate(-90)" aria-label="UNISON">
    <path id="path57030" style="font-weight:normal;font-size:9.33333px;font-family:Comfortaa, sans-serif;letter-spacing:2.5px;fill:#333333" d="m -372.164,13.149333 q -0.84,0 -1.50267,-0.326666 -0.66266,-0.326667 -1.036,-0.905333 -0.364,-0.588 -0.364,-1.325333 V 6.074669 q 0,-0.1586666 0.10267,-0.2613332 0.10267,-0.1026667 0.26133,-0.1026667 0.15867,0 0.26134,0.1026667 0.10266,0.1026666 0.10266,0.2613332 v 4.517332 q 0,0.541333 0.27067,0.970666 0.28,0.42 0.77467,0.662667 0.49466,0.233333 1.12933,0.233333 0.62533,0 1.11066,-0.233333 0.48534,-0.242667 0.756,-0.662667 0.28,-0.429333 0.28,-0.970666 V 6.074669 q 0,-0.1586666 0.10267,-0.2613332 0.10267,-0.1026667 0.26133,-0.1026667 0.15867,0 0.26134,0.1026667 0.10266,0.1026666 0.10266,0.2613332 v 4.517332 q 0,0.737333 -0.37333,1.325333 -0.364,0.578666 -1.01733,0.905333 -0.65333,0.326666 -1.484,0.326666 z"/>
    <path id="path57032" style="font-weight:normal;font-size:9.33333px;font-family:Comfortaa, sans-serif;letter-spacing:2.5px;fill:#333333" d="m -364.56465,13 q -0.15867,0 -0.26133,-0.102667 -0.10267,-0.102666 -0.10267,-0.261333 V 6.074669 q 0,-0.1586666 0.10267,-0.2613332 0.10266,-0.1026667 0.26133,-0.1026667 0.168,0 0.28,0.1306667 l 4.46133,5.8613312 V 6.074669 q 0,-0.1586666 0.10267,-0.2613332 0.112,-0.1026667 0.26133,-0.1026667 0.15867,0 0.26134,0.1026667 0.10266,0.1026666 0.10266,0.2613332 V 12.636 q 0,0.149333 -0.10266,0.261333 Q -359.30065,13 -359.45932,13 q -0.18666,0 -0.27066,-0.121333 l -4.47067,-5.8613316 V 12.636 q 0,0.149333 -0.10267,0.261333 Q -364.40598,13 -364.56465,13 Z"/>
    <path id="path57034" style="font-weight:normal;font-size:9.33333px;font-family:Comfortaa, sans-serif;letter-spacing:2.5px;fill:#333333" d="m -354.37194,13 q -0.14934,0 -0.26134,-0.102667 -0.10266,-0.112 -0.10266,-0.261333 V 6.074669 q 0,-0.1586666 0.10266,-0.2613332 0.112,-0.1026667 0.26134,-0.1026667 0.15866,0 0.26133,0.1026667 0.10267,0.1026666 0.10267,0.2613332 V 12.636 q 0,0.149333 -0.10267,0.261333 Q -354.21328,13 -354.37194,13 Z"/>
    <path id="path57036" style="font-weight:normal;font-size:9.33333px;font-family:Comfortaa, sans-serif;letter-spacing:2.5px;fill:#333333" d="m -347.4074,13.093333 q -0.88667,0 -1.57734,-0.373333 -0.68133,-0.382666 -0.98,-1.026666 -0.0373,-0.06533 -0.0373,-0.149334 0,-0.130666 0.0933,-0.214666 0.10267,-0.09333 0.27067,-0.09333 0.112,0 0.20533,0.06533 0.10267,0.056 0.14934,0.168 0.21466,0.42 0.70933,0.681333 0.504,0.252 1.16667,0.252 0.76533,0 1.232,-0.364 0.46666,-0.373333 0.46666,-1.036 0,-0.587999 -0.43866,-0.989333 -0.42934,-0.4013328 -1.29734,-0.5133328 -1.08266,-0.1306666 -1.708,-0.6719998 -0.616,-0.5506665 -0.616,-1.3439995 0,-0.5599998 0.29867,-0.9799997 0.308,-0.4293332 0.84,-0.6533331 0.54133,-0.2333333 1.22267,-0.2333333 0.73733,0 1.29733,0.3266666 0.56,0.3266666 0.87733,0.849333 0.0653,0.1026667 0.0653,0.224 0,0.1773332 -0.168,0.2799999 -0.0747,0.037333 -0.168,0.037333 -0.10267,0 -0.196,-0.046667 -0.084,-0.056 -0.14,-0.1493332 -0.52267,-0.8213331 -1.57734,-0.8306664 -0.756,0 -1.19466,0.3173332 -0.43867,0.3173332 -0.43867,0.905333 0,1.0919997 1.764,1.3253329 1.15733,0.168 1.72667,0.7093331 0.56933,0.5413335 0.56933,1.4279995 0,0.653333 -0.31733,1.129333 -0.31734,0.476 -0.868,0.728 -0.55067,0.242666 -1.232,0.242666 z"/>
    <path id="path57038" style="font-weight:normal;font-size:9.33333px;font-family:Comfortaa, sans-serif;letter-spacing:2.5px;fill:#333333" d="m -337.59839,13.093333 q -1.064,0 -1.91333,-0.485333 -0.84933,-0.485333 -1.33466,-1.334666 -0.476,-0.858666 -0.476,-1.9226661 0,-1.0639996 0.476,-1.9133327 0.48533,-0.849333 1.33466,-1.3346662 0.84933,-0.4853332 1.91333,-0.4853332 1.05467,0 1.904,0.4853332 0.85867,0.4853332 1.33467,1.3346662 0.48533,0.8493331 0.48533,1.9133327 0,1.0640001 -0.48533,1.9226661 -0.476,0.849333 -1.33467,1.334666 -0.84933,0.485333 -1.904,0.485333 z m 0,-0.690666 q 0.84934,0 1.53067,-0.401333 0.69067,-0.401334 1.08267,-1.092 0.392,-0.7 0.392,-1.5586661 0,-0.849333 -0.392,-1.5399995 -0.392,-0.6999997 -1.08267,-1.1013329 -0.68133,-0.4013332 -1.53067,-0.4013332 -0.85866,0 -1.54933,0.4013332 -0.68133,0.4013332 -1.07333,1.1013329 -0.392,0.6906665 -0.392,1.5399995 0,0.8586661 0.392,1.5586661 0.392,0.690666 1.07333,1.092 0.69067,0.401333 1.54933,0.401333 z"/>
    <path id="path57040" style="font-weight:normal;font-size:9.33333px;font-family:Comfortaa, sans-serif;letter-spacing:2.5px;fill:#333333" d="m -329.49955,13 q -0.15867,0 -0.26134,-0.102667 -0.10266,-0.102666 -0.10266,-0.261333 V 6.074669 q 0,-0.1586666 0.10266,-0.2613332 0.10267,-0.1026667 0.26134,-0.1026667 0.168,0 0.28,0.1306667 l 4.46133,5.8613312 V 6.074669 q 0,-0.1586666 0.10266,-0.2613332 0.112,-0.1026667 0.26134,-0.1026667 0.15866,0 0.26133,0.1026667 0.10267,0.1026666 0.10267,0.2613332 V 12.636 q 0,0.149333 -0.10267,0.261333 Q -324.23556,13 -324.39422,13 q -0.18667,0 -0.27067,-0.121333 l -4.47066,-5.8613316 V 12.636 q 0,0.149333 -0.10267,0.261333 Q -329.34089,13 -329.49955,13 Z"/>
  </g>
  <g transform="rotate(-90,200.5,175.5)" id="g56770">
    <g class="brand" style="font-weight:bold;font-size:9.33333px;font-family:Audiowide, sans-serif;letter-spacing:2px;fill:#333333" id="text56766" aria-label="BGA">
      <path id="path57022" style="font-weight:bold;font-size:9.33333px;font-family:Audiowide, sans-serif;letter-spacing:2px;fill:#333333" d="m 7.209633,-1.4355464 q 0,0.2187499 -0.077474,0.4694009 -0.072917,0.25065095 -0.2460936,0.46484359 Q 6.7174456,-0.28710928 6.4440082,-0.14127599 6.1705708,0 5.7740866,0 H 1.2760412 Q 1.1484371,0 1.0390621,-0.0455729 0.92968718,-0.0911458 0.84765596,-0.16861973 0.77018203,-0.25065096 0.72460913,-0.36002592 0.67903623,-0.46940088 0.67903623,-0.597005 v -5.341144 q 0,-0.1230469 0.0455729,-0.2324218 0.0455729,-0.109375 0.12304683,-0.1914062 0.0820312,-0.082031 0.19140614,-0.1276041 0.109375,-0.045573 0.2369791,-0.045573 h 3.9648424 q 0.21875,0 0.4694009,0.077474 0.250651,0.077474 0.4648436,0.250651 0.2187499,0.1686197 0.3600259,0.4420571 0.1458333,0.2734374 0.1458333,0.6699217 v 0.2233072 q 0,0.314453 -0.1048177,0.6790362 -0.1048176,0.3600259 -0.3372394,0.6835935 0.2005207,0.1230468 0.3736978,0.2962239 0.1777343,0.173177 0.3098957,0.4010415 0.1321614,0.2278645 0.2096353,0.5149738 0.077474,0.2871093 0.077474,0.6334633 z M 6.0247375,-1.6634109 q 0,-0.2324218 -0.072917,-0.4147134 Q 5.8789042,-2.2649732 5.7467428,-2.3971346 5.6145814,-2.529296 5.4277325,-2.5976554 5.2408836,-2.670572 5.0084618,-2.670572 h -2.670572 v -1.19401 h 2.1373691 q 0.2324218,0 0.4192707,-0.068359 0.1868489,-0.072917 0.3190103,-0.205078 0.1321614,-0.1321614 0.2005208,-0.314453 0.072917,-0.1868489 0.072917,-0.4192707 v -0.2233072 q 0,-0.2552083 -0.2460937,-0.2552083 H 1.8639317 v 4.1653632 h 3.9101549 q 0.031901,0 0.077474,-0.00456 0.045573,-0.00456 0.082031,-0.027344 0.036458,-0.022786 0.063802,-0.077474 0.027344,-0.054687 0.027344,-0.1503906 z"/>
      <path id="path57024" style="font-weight:bold;font-size:9.33333px;font-family:Audiowide, sans-serif;letter-spacing:2px;fill:#333333" d="m 16.683589,-0.597005 q 0,0.12760412 -0.04557,0.23697908 -0.04557,0.10937496 -0.127605,0.19140619 -0.07747,0.07747393 -0.186849,0.12304683 Q 16.214189,0 16.086584,0 h -4.274738 q -0.164062,0 -0.355468,-0.03645832 -0.186849,-0.04101561 -0.373698,-0.12304683 -0.182292,-0.0820312 -0.350911,-0.20963535 -0.16862,-0.13216141 -0.300782,-0.31445302 -0.127604,-0.18684889 -0.205078,-0.42838528 -0.07747,-0.2460937 -0.07747,-0.5514321 v -3.2083322 q 0,-0.1640625 0.03646,-0.3509114 0.04101,-0.1914062 0.123047,-0.3736978 0.08203,-0.1868489 0.214192,-0.3554686 0.132162,-0.1686197 0.314453,-0.2962238 0.186849,-0.1321615 0.428385,-0.2096354 0.241537,-0.077474 0.546875,-0.077474 h 4.817056 v 1.1848954 h -4.817056 q -0.232422,0 -0.355468,0.1230468 -0.123047,0.1230469 -0.123047,0.3645832 v 3.1992177 q 0,0.2278645 0.123047,0.3554686 0.127604,0.1230469 0.355468,0.1230469 h 3.686848 V -2.670572 h -3.153645 v -1.19401 h 3.741535 q 0.127605,0 0.236979,0.05013 0.109375,0.045573 0.186849,0.1276041 0.08203,0.082031 0.127605,0.1914062 0.04557,0.1048177 0.04557,0.2278645 z"/>
      <path id="path57026" style="font-weight:bold;font-size:9.33333px;font-family:Audiowide, sans-serif;letter-spacing:2px;fill:#333333" d="M 26.339836,0 H 25.154941 V -1.6041661 H 20.989578 V 0 h -1.184896 v -3.267577 q 0,-0.7154946 0.246094,-1.3170569 0.246094,-0.6015623 0.683593,-1.0345048 0.4375,-0.4329426 1.034505,-0.6744789 0.597005,-0.2415364 1.303385,-0.2415364 h 2.670572 q 0.123047,0 0.232422,0.045573 0.109375,0.045573 0.191406,0.1276041 0.08203,0.082031 0.127604,0.1914062 0.04557,0.1093749 0.04557,0.2324218 z m -5.350258,-2.7890616 h 4.165363 v -2.561197 h -2.082682 q -0.05469,0 -0.232422,0.018229 -0.173177,0.013672 -0.405598,0.077474 -0.227865,0.063802 -0.483073,0.1959635 -0.255208,0.1321614 -0.469401,0.3645832 -0.214193,0.2324218 -0.355469,0.5833331 -0.136718,0.3463541 -0.136718,0.8430987 z"/>
    </g>
    <path d="M 0,0 H 3 V 3 H 0 Z" style="fill:#dddddd" transform="translate(11.5,-5)" id="rect56768"/>
  </g>
  <g style="font-weight:bold;font-size:8px;font-family:Roboto, sans-serif;letter-spacing:2px;fill:#333333" id="text56774" aria-label="CHAN">
    <path id="path57013" style="font-weight:bold;font-size:8px;font-family:Roboto, sans-serif;letter-spacing:2px;fill:#333333" d="m 12.972656,23.105469 q -0.06641,0.917968 -0.679687,1.445312 -0.609375,0.527344 -1.609375,0.527344 -1.0937502,0 -1.7226565,-0.734375 -0.625,-0.738281 -0.625,-2.023438 v -0.347656 q 0,-0.820312 0.2890625,-1.445312 0.2890625,-0.625 0.8242188,-0.957032 0.5390625,-0.335937 1.2500002,-0.335937 0.984375,0 1.585937,0.527344 0.601563,0.527343 0.695313,1.480468 H 11.808594 Q 11.765625,20.691406 11.5,20.445312 q -0.261719,-0.25 -0.800781,-0.25 -0.585938,0 -0.8789065,0.421875 -0.2890625,0.417969 -0.296875,1.300782 v 0.429687 q 0,0.921875 0.2773438,1.347656 0.2812497,0.425782 0.8828127,0.425782 0.542969,0 0.808594,-0.246094 0.269531,-0.25 0.308593,-0.769531 z"/>
    <path id="path57015" style="font-weight:bold;font-size:8px;font-family:Roboto, sans-serif;letter-spacing:2px;fill:#333333" d="M 20.371094,25 H 19.199219 V 22.5625 H 16.914062 V 25 h -1.171874 v -5.6875 h 1.171874 v 2.304687 h 2.285157 V 19.3125 h 1.171875 z"/>
    <path id="path57017" style="font-weight:bold;font-size:8px;font-family:Roboto, sans-serif;letter-spacing:2px;fill:#333333" d="M 26.6875,23.828125 H 24.632812 L 24.242187,25 h -1.246093 l 2.117187,-5.6875 h 1.085938 L 28.328125,25 h -1.246094 z m -1.738281,-0.949219 h 1.421875 L 25.65625,20.75 Z"/>
    <path id="path57019" style="font-weight:bold;font-size:8px;font-family:Roboto, sans-serif;letter-spacing:2px;fill:#333333" d="m 35.492187,25 h -1.171875 l -2.28125,-3.742188 V 25 h -1.171875 v -5.6875 h 1.171875 l 2.285157,3.75 v -3.75 h 1.167968 z"/>
  </g>
  <g transform="translate(0,24)" id="use56776">
    <g transform="translate(22.5,22.5)" id="g56873">
      <g style="font-weight:bold;font-size:6.66667px;font-family:Roboto, sans-serif;fill:#333333" id="text56841" transform="translate(-10.9,17.788457)" aria-label="1">
        <path id="path56983" style="font-weight:bold;font-size:6.66667px;font-family:Roboto, sans-serif;fill:#333333" d="M 2.6074231,0 H 1.6666675 V -3.6263038 L 0.54362005,-3.2779964 V -4.0429707 L 2.5065116,-4.746096 h 0.1009115 z"/>
      </g>
      <path d="M 0,0 H 1.5" style="stroke:#333333;stroke-width:0.3" transform="rotate(140,-7.5,2.7297768)" id="polyline56843"/>
      <path d="M 0,0 H 1.5" style="stroke:#333333;stroke-width:0.3" transform="rotate(160,-7.5,1.3224524)" id="polyline56845"/>
      <g style="font-weight:bold;font-size:6.66667px;font-family:Roboto, sans-serif;fill:#333333" id="text56847" transform="translate(-19,2.2)" aria-label="4">
        <path id="path56988" style="font-weight:bold;font-size:6.66667px;font-family:Roboto, sans-serif;fill:#333333" d="m 3.1054702,-1.783855 h 0.5371097 v 0.7584639 H 3.1054702 V 0 H 2.1647146 V -1.0253911 H 0.22135427 L 0.17903654,-1.6178393 2.1549489,-4.7395856 h 0.9505213 z m -1.9889332,0 h 1.0481776 v -1.6731779 l -0.061849,0.1074219 z"/>
      </g>
      <path d="M 0,0 H 1.5" style="stroke:#333333;stroke-width:0.3" transform="rotate(-160,-7.5,-1.3224524)" id="polyline56849"/>
      <path d="M 0,0 H 1.5" style="stroke:#333333;stroke-width:0.3" transform="rotate(-140,-7.5,-2.7297768)" id="polyline56851"/>
      <path d="M 0,0 H 1.5" style="stroke:#333333;stroke-width:0.3" transform="rotate(-120,-7.5,-4.330127)" id="polyline56853"/>
      <g style="font-weight:bold;font-size:6.66667px;font-family:Roboto, sans-serif;fill:#333333" id="text56855" transform="translate(-4.852019,-14.241732)" aria-label="8">
        <path id="path56994" style="font-weight:bold;font-size:6.66667px;font-family:Roboto, sans-serif;fill:#333333" d="m 3.41146,-3.4798194 q 0,0.3450523 -0.1725262,0.6119795 -0.1725261,0.2669272 -0.4752606,0.4264325 0.3450522,0.1660157 0.5468753,0.4589846 0.201823,0.2897137 0.201823,0.6835941 0,0.63151067 -0.4296877,0.99934939 -0.4296877,0.36458351 -1.1686204,0.36458351 -0.7389326,0 -1.17187555,-0.36783872 -0.43294291,-0.36783872 -0.43294291,-0.99609418 0,-0.3938804 0.20182301,-0.6868493 Q 0.71289096,-2.2786469 1.054688,-2.4414074 0.75195348,-2.6009127 0.57942736,-2.8678399 0.41015645,-3.1347671 0.41015645,-3.4798194 q 0,-0.605469 0.40364602,-0.9635421 0.40364603,-0.3613283 1.09700573,-0.3613283 0.6901045,0 1.0937505,0.3580731 0.4069013,0.3548179 0.4069013,0.9667973 z m -0.8430994,2.1126312 q 0,-0.3092449 -0.1790365,-0.4947919 Q 2.2102875,-2.047527 1.907553,-2.047527 q -0.2994793,0 -0.4785159,0.1855469 -0.1790365,0.1822918 -0.1790365,0.4947919 0,0.3027346 0.1757813,0.48828153 0.1757814,0.18554696 0.4882815,0.18554696 0.3059897,0 0.4785159,-0.17903654 0.1757813,-0.17903655 0.1757813,-0.49479195 z m -0.097656,-2.0670582 q 0,-0.2766929 -0.1464844,-0.4427086 -0.1464845,-0.1692709 -0.4134117,-0.1692709 -0.263672,0 -0.4101564,0.1627605 -0.1464845,0.1627605 -0.1464845,0.449219 0,0.2832032 0.1464845,0.4557294 0.1464844,0.1725261 0.4134116,0.1725261 0.2669272,0 0.4101565,-0.1725261 0.1464844,-0.1725262 0.1464844,-0.4557294 z"/>
      </g>
      <path d="M 0,0 H 1.5" style="stroke:#333333;stroke-width:0.3" transform="rotate(-80,-7.5,-8.9381519)" id="polyline56857"/>
      <path d="M 0,0 H 1.5" style="stroke:#333333;stroke-width:0.3" transform="rotate(-60,-7.5,-12.990381)" id="polyline56859"/>
      <path d="M 0,0 H 1.5" style="stroke:#333333;stroke-width:0.3" transform="rotate(-40,-7.5,-20.606081)" id="polyline56861"/>
      <g style="font-weight:bold;font-size:6.66667px;font-family:Roboto, sans-serif;fill:#333333" id="text56863" transform="translate(12.974775,-3.4143424)" aria-label="12">
        <path id="path57000" style="font-weight:bold;font-size:6.66667px;font-family:Roboto, sans-serif;fill:#333333" d="M 2.6074231,0 H 1.6666675 V -3.6263038 L 0.54362005,-3.2779964 V -4.0429707 L 2.5065116,-4.746096 h 0.1009115 z"/>
        <path id="path57002" style="font-weight:bold;font-size:6.66667px;font-family:Roboto, sans-serif;fill:#333333" d="M 7.3990922,0 H 4.1503927 V -0.64453156 L 5.6835965,-2.2786469 q 0.3157554,-0.3450523 0.4654951,-0.6022138 0.1529948,-0.2571616 0.1529948,-0.4882815 0,-0.3157554 -0.1595053,-0.4947919 -0.1595052,-0.1822918 -0.4557293,-0.1822918 -0.3190106,0 -0.5045576,0.2213543 -0.1822917,0.218099 -0.1822917,0.5761721 H 4.0559916 q 0,-0.4329429 0.2050782,-0.791016 0.2083335,-0.3580731 0.5859378,-0.5598961 0.3776043,-0.2050782 0.8561202,-0.2050782 0.7324222,0 1.1360683,0.3515627 0.4069012,0.3515626 0.4069012,0.992839 0,0.3515627 -0.1822918,0.7161462 -0.1822917,0.3645835 -0.6250003,0.8496097 l -1.0774744,1.1360683 h 2.0377614 z"/>
      </g>
      <path d="M 0,0 H 1.5" style="stroke:#333333;stroke-width:0.3" transform="translate(15)" id="polyline56865"/>
      <path d="M 0,0 H 1.5" style="stroke:#333333;stroke-width:0.3" transform="rotate(20,-7.5,42.534614)" id="polyline56867"/>
      <path d="M 0,0 H 1.5" style="stroke:#333333;stroke-width:0.3" transform="rotate(40,-7.5,20.606081)" id="polyline56869"/>
      <g style="font-weight:bold;font-size:6.66667px;font-family:Roboto, sans-serif;fill:#333333" id="text56871" transform="translate(7.1,17.788457)" aria-label="16">
        <path id="path57008" style="font-weight:bold;font-size:6.66667px;font-family:Roboto, sans-serif;fill:#333333" d="M 2.6074231,0 H 1.6666675 V -3.6263038 L 0.54362005,-3.2779964 V -4.0429707 L 2.5065116,-4.746096 h 0.1009115 z"/>
        <path id="path57010" style="font-weight:bold;font-size:6.66667px;font-family:Roboto, sans-serif;fill:#333333" d="m 6.7024772,-4.7884137 v 0.7747399 h -0.091146 q -0.6380212,0.00977 -1.0286464,0.3320314 -0.3873699,0.3222658 -0.465495,0.8951827 0.3776044,-0.3841147 0.9537765,-0.3841147 0.6184899,0 0.9830734,0.4427085 0.3645835,0.4427086 0.3645835,1.1653652 0,0.4622398 -0.201823,0.8365889 -0.1985678,0.37434913 -0.5664065,0.58268257 -0.3645835,0.20833343 -0.8268233,0.20833343 -0.7486983,0 -1.2109381,-0.52083358 Q 4.1536479,-0.97656297 4.1536479,-1.845704 v -0.3385418 q 0,-0.7714848 0.2897137,-1.3606778 0.2929689,-0.5924482 0.8365889,-0.9147139 0.5468753,-0.325521 1.2662767,-0.3287762 z m -0.9179692,2.373048 q -0.2278646,0 -0.4134116,0.1204427 -0.185547,0.1171876 -0.2734376,0.3125002 v 0.2864584 q 0,0.4720055 0.1855469,0.73893269 0.185547,0.263672 0.5208336,0.263672 0.3027345,0 0.4882815,-0.23763032 0.1888022,-0.24088557 0.1888022,-0.62174507 0,-0.38737 -0.1888022,-0.6250003 Q 6.1035186,-2.4153657 5.784508,-2.4153657 Z"/>
      </g>
    </g>
  </g>
  <g style="font-weight:bold;font-size:8px;font-family:Roboto, sans-serif;letter-spacing:1.5px;fill:#333333" id="text56780" aria-label="DETUNE">
    <path id="path56970" style="font-weight:bold;font-size:8px;font-family:Roboto, sans-serif;letter-spacing:1.5px;fill:#333333" d="m 4.0078125,80 v -5.6875 h 1.75 q 0.75,0 1.3398437,0.339844 0.59375,0.335937 0.9257813,0.960937 0.3320313,0.621094 0.3320313,1.414063 v 0.261718 q 0,0.792969 -0.328125,1.410157 Q 7.703125,79.316406 7.109375,79.65625 6.515625,79.996094 5.7695312,80 Z m 1.171875,-4.738281 v 3.796875 h 0.5664062 q 0.6875,0 1.0507813,-0.449219 0.3632812,-0.449219 0.3710937,-1.285156 v -0.300782 q 0,-0.867187 -0.359375,-1.3125 -0.359375,-0.449218 -1.0507812,-0.449218 z"/>
    <path id="path56972" style="font-weight:bold;font-size:8px;font-family:Roboto, sans-serif;letter-spacing:1.5px;fill:#333333" d="m 14.132813,77.535156 h -2.25 v 1.523438 h 2.640625 V 80 h -3.8125 v -5.6875 h 3.804687 v 0.949219 h -2.632812 v 1.355468 h 2.25 z"/>
    <path id="path56974" style="font-weight:bold;font-size:8px;font-family:Roboto, sans-serif;letter-spacing:1.5px;fill:#333333" d="M 21.070312,75.261719 H 19.328125 V 80 H 18.15625 V 75.261719 H 16.4375 V 74.3125 h 4.632812 z"/>
    <path id="path56976" style="font-weight:bold;font-size:8px;font-family:Roboto, sans-serif;letter-spacing:1.5px;fill:#333333" d="m 27.546875,74.3125 v 3.746094 q 0,0.933593 -0.585938,1.476562 -0.582031,0.542969 -1.59375,0.542969 -0.996093,0 -1.582031,-0.527344 Q 23.199219,79.023437 23.1875,78.101562 V 74.3125 h 1.171875 v 3.753906 q 0,0.558594 0.265625,0.816406 0.269531,0.253907 0.742187,0.253907 0.988282,0 1.003907,-1.039063 V 74.3125 Z"/>
    <path id="path56978" style="font-weight:bold;font-size:8px;font-family:Roboto, sans-serif;letter-spacing:1.5px;fill:#333333" d="m 34.632812,80 h -1.171875 l -2.28125,-3.742188 V 80 h -1.171875 v -5.6875 h 1.171875 l 2.285157,3.75 v -3.75 h 1.167968 z"/>
    <path id="path56980" style="font-weight:bold;font-size:8px;font-family:Roboto, sans-serif;letter-spacing:1.5px;fill:#333333" d="m 40.585937,77.535156 h -2.25 v 1.523438 h 2.640625 V 80 h -3.8125 v -5.6875 h 3.804688 v 0.949219 h -2.632813 v 1.355468 h 2.25 z"/>
  </g>
  <g transform="translate(0,79)" id="use56782">
    <g transform="translate(22.5,22.5)" id="g56899">
      <g style="font-weight:bold;font-size:6.66667px;font-family:Roboto, sans-serif;fill:#333333" id="text56877" transform="translate(-10.9,17.788457)" aria-label="0">
        <path id="path56953" style="font-weight:bold;font-size:6.66667px;font-family:Roboto, sans-serif;fill:#333333" d="m 3.5123715,-1.9596364 q 0,0.98307343 -0.4069013,1.50390702 Q 2.698569,0.0651042 1.9140634,0.0651042 q -0.7747399,0 -1.18489639,-0.51106795 Q 0.31901057,-0.95703171 0.30924494,-1.9108082 v -0.8723963 q 0,-0.992839 0.41015644,-1.5071621 0.41341162,-0.5143232 1.18815162,-0.5143232 0.7747399,0 1.1848964,0.511068 0.4101564,0.5078127 0.4199221,1.4615892 z M 2.5716158,-2.9166681 q 0,-0.5891929 -0.1627605,-0.8561202 Q 2.24935,-4.0429707 1.907553,-4.0429707 q -0.3320314,0 -0.4915367,0.2571616 -0.1562501,0.2539064 -0.1660157,0.7975264 v 1.1523443 q 0,0.5794274 0.1562501,0.86263064 0.1595053,0.27994805 0.5078127,0.27994805 0.3450523,0 0.4980471,-0.27018242 0.1529949,-0.27018237 0.1595053,-0.82682327 z"/>
      </g>
      <path d="M 0,0 H 1.5" style="stroke:#333333;stroke-width:0.3" transform="rotate(150,-7.5,2.0096189)" id="polyline56879"/>
      <path d="M 0,0 H 1.5" style="stroke:#333333;stroke-width:0.3" transform="rotate(180,-7.5,0)" id="polyline56881"/>
      <path d="M 0,0 H 1.5" style="stroke:#333333;stroke-width:0.3" transform="rotate(-150,-7.5,-2.0096189)" id="polyline56883"/>
      <path d="M 0,0 H 1.5" style="stroke:#333333;stroke-width:0.3" transform="rotate(-120,-7.5,-4.330127)" id="polyline56885"/>
      <path d="M 0,0 H 1.5" style="stroke:#333333;stroke-width:0.3" transform="rotate(-90,-7.5,-7.5)" id="polyline56887"/>
      <path d="M 0,0 H 1.5" style="stroke:#333333;stroke-width:0.3" transform="rotate(-60,-7.5,-12.990381)" id="polyline56889"/>
      <path d="M 0,0 H 1.5" style="stroke:#333333;stroke-width:0.3" transform="rotate(-30,-7.5,-27.990381)" id="polyline56891"/>
      <path d="M 0,0 H 1.5" style="stroke:#333333;stroke-width:0.3" transform="translate(15)" id="polyline56893"/>
      <path d="M 0,0 H 1.5" style="stroke:#333333;stroke-width:0.3" transform="rotate(30,-7.5,27.990381)" id="polyline56895"/>
      <g style="font-weight:bold;font-size:6.66667px;font-family:Roboto, sans-serif;fill:#333333" id="text56897" transform="translate(7.1,17.788457)" aria-label="50">
        <path id="path56965" style="font-weight:bold;font-size:6.66667px;font-family:Roboto, sans-serif;fill:#333333" d="M 0.4622398,-2.3307303 0.73567743,-4.7395856 H 3.3919287 V -3.95508 H 1.5071622 l -0.1171876,1.0188807 q 0.3352866,-0.1790366 0.712891,-0.1790366 0.6770836,0 1.0611984,0.4199221 0.3841148,0.4199221 0.3841148,1.1751308 0,0.4589846 -0.1953126,0.82356808 -0.1920574,0.3613283 -0.5533857,0.56315131 -0.3613283,0.19856781 -0.852865,0.19856781 -0.4296877,0 -0.7975264,-0.17252613 Q 0.78125037,-0.28320326 0.56640652,-0.59895862 0.35481788,-0.91471398 0.34179704,-1.31836 H 1.2727871 q 0.029297,0.2962241 0.2050782,0.4622398 0.1790365,0.16276049 0.465495,0.16276049 0.3190106,0 0.4915367,-0.22786469 0.1725261,-0.2311199 0.1725261,-0.651042 0,-0.403646 -0.1985678,-0.6184899 -0.1985678,-0.2148438 -0.5631513,-0.2148438 -0.3352866,0 -0.54362,0.1757813 l -0.091146,0.084636 z"/>
        <path id="path56967" style="font-weight:bold;font-size:6.66667px;font-family:Roboto, sans-serif;fill:#333333" d="m 7.3404984,-1.9596364 q 0,0.98307343 -0.4069013,1.50390702 -0.4069012,0.52083358 -1.1914068,0.52083358 -0.7747399,0 -1.1848964,-0.51106795 Q 4.1471375,-0.95703171 4.1373718,-1.9108082 v -0.8723963 q 0,-0.992839 0.4101565,-1.5071621 0.4134116,-0.5143232 1.1881516,-0.5143232 0.77474,0 1.1848964,0.511068 0.4101564,0.5078127 0.4199221,1.4615892 z M 6.3997427,-2.9166681 q 0,-0.5891929 -0.1627605,-0.8561202 -0.1595053,-0.2701824 -0.5013023,-0.2701824 -0.3320314,0 -0.4915367,0.2571616 -0.1562501,0.2539064 -0.1660157,0.7975264 v 1.1523443 q 0,0.5794274 0.1562501,0.86263064 0.1595053,0.27994805 0.5078127,0.27994805 0.3450523,0 0.4980471,-0.27018242 0.1529949,-0.27018237 0.1595053,-0.82682327 z"/>
      </g>
    </g>
  </g>
  <g transform="translate(5.5,124)" id="g56788">
    <path d="m 5,0 h 24 c 2.77,0 5,2.23 5,5 v 29 c 0,2.77 -2.23,5 -5,5 H 5 C 2.23,39 0,36.77 0,34 V 5 C 0,2.23 2.23,0 5,0 Z" style="fill:#fafafa" id="rect56784"/>
    <g style="font-weight:bold;font-size:6.66667px;font-family:Roboto, sans-serif;letter-spacing:2px;fill:#333333" id="text56786" transform="translate(11,35)" aria-label="CV">
      <path id="path56948" style="font-weight:bold;font-size:6.66667px;font-family:Roboto, sans-serif;letter-spacing:2px;fill:#333333" d="M 4.1438822,-1.5787768 Q 4.0885436,-0.81380247 3.5774757,-0.37434914 3.0696629,0.0651042 2.2363292,0.0651042 q -0.9114588,0 -1.43554757,-0.61197946 Q 0.27994805,-1.1621099 0.27994805,-2.233074 v -0.2897137 q 0,-0.683594 0.24088553,-1.2044276 0.24088553,-0.5208336 0.68684932,-0.7975264 0.4492189,-0.2799481 1.0416671,-0.2799481 0.8203129,0 1.3216152,0.4394533 0.5013024,0.4394534 0.5794274,1.2337246 H 3.1738296 Q 3.1380223,-3.5904965 2.9166681,-3.7955747 2.698569,-4.0039082 2.24935,-4.0039082 q -0.4882815,0 -0.7324222,0.3515627 -0.2408855,0.3483075 -0.2473959,1.0839849 v 0.3580731 q 0,0.7682295 0.2311199,1.1230474 0.2343751,0.35481788 0.7356774,0.35481788 0.4524742,0 0.6738284,-0.20507823 0.2246095,-0.20833345 0.2571616,-0.64127635 z"/>
      <path id="path56950" style="font-weight:bold;font-size:6.66667px;font-family:Roboto, sans-serif;letter-spacing:2px;fill:#333333" d="M 8.5364616,-1.1751308 9.6106809,-4.7395856 H 10.697921 L 9.0475295,0 H 8.0286489 l -1.643881,-4.7395856 h 1.0839849 z"/>
    </g>
  </g>
  <g transform="translate(5.5,171)" id="g56800">
    <path d="M 0,0 H 34 V 10 H 0 Z" style="fill:#fafafa" transform="translate(0,63)" id="rect56792"/>
    <path d="m 5,0 h 24 c 2.77,0 5,2.23 5,5 v 60 c 0,2.77 -2.23,5 -5,5 H 5 C 2.23,70 0,67.77 0,65 V 5 C 0,2.23 2.23,0 5,0 Z" style="fill:#fafafa" id="rect56794"/>
    <g style="font-weight:bold;font-size:6.66667px;font-family:Roboto, sans-serif;letter-spacing:2px;fill:#333333" id="text56796" transform="translate(3,35)" aria-label="V/OCT">
      <path id="path56927" style="font-weight:bold;font-size:6.66667px;font-family:Roboto, sans-serif;letter-spacing:2px;fill:#333333" d="M 2.1744802,-1.1751308 3.2486995,-4.7395856 H 4.3359396 L 2.6855482,0 H 1.6666675 L 0.02278647,-4.7395856 H 1.1067714 Z"/>
      <path id="path56929" style="font-weight:bold;font-size:6.66667px;font-family:Roboto, sans-serif;letter-spacing:2px;fill:#333333" d="M 7.0195338,0.40690124 H 6.3196637 L 8.0644562,-4.7395856 h 0.6998701 z"/>
      <path id="path56931" style="font-weight:bold;font-size:6.66667px;font-family:Roboto, sans-serif;letter-spacing:2px;fill:#333333" d="m 15.16537,-2.2623709 q 0,0.6998702 -0.247396,1.2272142 -0.247396,0.52734396 -0.709636,0.81380243 -0.458984,0.28645847 -1.054688,0.28645847 -0.589193,0 -1.051432,-0.28320326 -0.46224,-0.28320326 -0.716147,-0.80729204 -0.253906,-0.527344 -0.257161,-1.2109381 v -0.2343751 q 0,-0.6998701 0.250651,-1.2304693 0.253906,-0.5338545 0.712891,-0.8170577 0.46224,-0.2864585 1.054688,-0.2864585 0.592448,0 1.051433,0.2864585 0.46224,0.2832032 0.712891,0.8170577 0.253906,0.5305992 0.253906,1.2272141 z m -0.989584,-0.2148438 q 0,-0.7454431 -0.266927,-1.1328131 -0.266927,-0.3873699 -0.761719,-0.3873699 -0.491537,0 -0.758464,0.3841147 -0.266927,0.3808596 -0.270182,1.1197922 v 0.2311199 q 0,0.7259118 0.266927,1.1263026 0.266927,0.40039087 0.768229,0.40039087 0.491537,0 0.755209,-0.38411477 0.263672,-0.38737 0.266927,-1.1263026 z"/>
      <path id="path56933" style="font-weight:bold;font-size:6.66667px;font-family:Roboto, sans-serif;letter-spacing:2px;fill:#333333" d="m 21.602222,-1.5787768 q -0.05534,0.76497433 -0.566407,1.20442766 -0.507812,0.43945334 -1.341146,0.43945334 -0.911459,0 -1.435548,-0.61197946 Q 17.738288,-1.1621099 17.738288,-2.233074 v -0.2897137 q 0,-0.683594 0.240885,-1.2044276 0.240886,-0.5208336 0.68685,-0.7975264 0.449219,-0.2799481 1.041667,-0.2799481 0.820313,0 1.321615,0.4394533 0.501302,0.4394534 0.579427,1.2337246 h -0.976563 q -0.03581,-0.4589846 -0.257161,-0.6640628 -0.218099,-0.2083335 -0.667318,-0.2083335 -0.488282,0 -0.732423,0.3515627 -0.240885,0.3483075 -0.247395,1.0839849 v 0.3580731 q 0,0.7682295 0.231119,1.1230474 0.234376,0.35481788 0.735678,0.35481788 0.452474,0 0.673828,-0.20507823 0.22461,-0.20833345 0.257162,-0.64127635 z"/>
      <path id="path56935" style="font-weight:bold;font-size:6.66667px;font-family:Roboto, sans-serif;letter-spacing:2px;fill:#333333" d="M 27.720063,-3.9485696 H 26.268239 V 0 h -0.976563 v -3.9485696 h -1.432292 v -0.791016 h 3.860679 z"/>
    </g>
    <g style="font-weight:bold;font-size:6.66667px;font-family:Roboto, sans-serif;letter-spacing:2px;fill:#333333" id="text56798" transform="translate(5.5,70)" aria-label="GATE">
      <path id="path56938" style="font-weight:bold;font-size:6.66667px;font-family:Roboto, sans-serif;letter-spacing:2px;fill:#333333" d="M 4.1731791,-0.59895862 Q 3.9095071,-0.28320326 3.427736,-0.10742193 2.9459649,0.0651042 2.3600272,0.0651042 q -0.6152347,0 -1.0807297,-0.26692721 Q 0.81705768,-0.47200543 0.56315131,-0.98307339 0.31250015,-1.4941413 0.30598973,-2.1842458 v -0.3222658 q 0,-0.7096358 0.23763032,-1.2272141 0.24088553,-0.5208336 0.69010445,-0.7942713 0.4524742,-0.2766928 1.0579433,-0.2766928 0.8430993,0 1.31836,0.403646 0.4752606,0.4003909 0.5631513,1.1686204 H 3.2226578 Q 3.1575536,-3.6393247 2.9329441,-3.8281268 2.7115898,-4.016929 2.3209646,-4.016929 q -0.4980471,0 -0.7584639,0.3743491 -0.2604167,0.3743492 -0.263672,1.1132818 v 0.3027345 q 0,0.7454431 0.2832033,1.1263027 0.2832033,0.38085952 0.8300785,0.38085952 0.5501305,0 0.7845056,-0.23437512 V -1.7708342 H 2.3079438 v -0.7194014 h 1.8652353 z"/>
      <path id="path56940" style="font-weight:bold;font-size:6.66667px;font-family:Roboto, sans-serif;letter-spacing:2px;fill:#333333" d="M 9.6432327,-0.97656297 H 7.9309923 L 7.6054713,0 H 6.5670594 L 8.3313831,-4.7395856 H 9.2363315 L 11.010421,0 H 9.9720089 Z M 8.1946643,-1.767579 H 9.3795607 L 8.7838573,-3.5416684 Z"/>
      <path id="path56942" style="font-weight:bold;font-size:6.66667px;font-family:Roboto, sans-serif;letter-spacing:2px;fill:#333333" d="M 16.636725,-3.9485696 H 15.184901 V 0 h -0.976562 v -3.9485696 h -1.432293 v -0.791016 h 3.860679 z"/>
      <path id="path56944" style="font-weight:bold;font-size:6.66667px;font-family:Roboto, sans-serif;letter-spacing:2px;fill:#333333" d="m 22.048184,-2.0540374 h -1.875001 v 1.26953182 h 2.200522 V 0 h -3.177084 v -4.7395856 h 3.170574 v 0.791016 h -2.194012 v 1.1295578 h 1.875001 z"/>
    </g>
  </g>
  <g transform="translate(5.5,247)" id="g56810">
    <path d="M 0,0 H 34 V 10 H 0 Z" style="fill:#bbbbbb" transform="translate(0,-3)" id="rect56802"/>
    <path d="m 5,0 h 24 c 2.77,0 5,2.23 5,5 v 60 c 0,2.77 -2.23,5 -5,5 H 5 C 2.23,70 0,67.77 0,65 V 5 C 0,2.23 2.23,0 5,0 Z" style="fill:#bbbbbb" id="rect56804"/>
    <g style="font-weight:bold;font-size:6.66667px;font-family:Roboto, sans-serif;letter-spacing:2px;fill:#333333" id="text56806" transform="translate(3,32)" aria-label="V/OCT">
      <path id="path56905" style="font-weight:bold;font-size:6.66667px;font-family:Roboto, sans-serif;letter-spacing:2px;fill:#333333" d="M 2.1744802,-1.1751308 3.2486995,-4.7395856 H 4.3359396 L 2.6855482,0 H 1.6666675 L 0.02278647,-4.7395856 H 1.1067714 Z"/>
      <path id="path56907" style="font-weight:bold;font-size:6.66667px;font-family:Roboto, sans-serif;letter-spacing:2px;fill:#333333" d="M 7.0195338,0.40690124 H 6.3196637 L 8.0644562,-4.7395856 h 0.6998701 z"/>
      <path id="path56909" style="font-weight:bold;font-size:6.66667px;font-family:Roboto, sans-serif;letter-spacing:2px;fill:#333333" d="m 15.16537,-2.2623709 q 0,0.6998702 -0.247396,1.2272142 -0.247396,0.52734396 -0.709636,0.81380243 -0.458984,0.28645847 -1.054688,0.28645847 -0.589193,0 -1.051432,-0.28320326 -0.46224,-0.28320326 -0.716147,-0.80729204 -0.253906,-0.527344 -0.257161,-1.2109381 v -0.2343751 q 0,-0.6998701 0.250651,-1.2304693 0.253906,-0.5338545 0.712891,-0.8170577 0.46224,-0.2864585 1.054688,-0.2864585 0.592448,0 1.051433,0.2864585 0.46224,0.2832032 0.712891,0.8170577 0.253906,0.5305992 0.253906,1.2272141 z m -0.989584,-0.2148438 q 0,-0.7454431 -0.266927,-1.1328131 -0.266927,-0.3873699 -0.761719,-0.3873699 -0.491537,0 -0.758464,0.3841147 -0.266927,0.3808596 -0.270182,1.1197922 v 0.2311199 q 0,0.7259118 0.266927,1.1263026 0.266927,0.40039087 0.768229,0.40039087 0.491537,0 0.755209,-0.38411477 0.263672,-0.38737 0.266927,-1.1263026 z"/>
      <path id="path56911" style="font-weight:bold;font-size:6.66667px;font-family:Roboto, sans-serif;letter-spacing:2px;fill:#333333" d="m 21.602222,-1.5787768 q -0.05534,0.76497433 -0.566407,1.20442766 -0.507812,0.43945334 -1.341146,0.43945334 -0.911459,0 -1.435548,-0.61197946 Q 17.738288,-1.1621099 17.738288,-2.233074 v -0.2897137 q 0,-0.683594 0.240885,-1.2044276 0.240886,-0.5208336 0.68685,-0.7975264 0.449219,-0.2799481 1.041667,-0.2799481 0.820313,0 1.321615,0.4394533 0.501302,0.4394534 0.579427,1.2337246 h -0.976563 q -0.03581,-0.4589846 -0.257161,-0.6640628 -0.218099,-0.2083335 -0.667318,-0.2083335 -0.488282,0 -0.732423,0.3515627 -0.240885,0.3483075 -0.247395,1.0839849 v 0.3580731 q 0,0.7682295 0.231119,1.1230474 0.234376,0.35481788 0.735678,0.35481788 0.452474,0 0.673828,-0.20507823 0.22461,-0.20833345 0.257162,-0.64127635 z"/>
      <path id="path56913" style="font-weight:bold;font-size:6.66667px;font-family:Roboto, sans-serif;letter-spacing:2px;fill:#333333" d="M 27.720063,-3.9485696 H 26.268239 V 0 h -0.976563 v -3.9485696 h -1.432292 v -0.791016 h 3.860679 z"/>
    </g>
    <g style="font-weight:bold;font-size:6.66667px;font-family:Roboto, sans-serif;letter-spacing:2px;fill:#333333" id="text56808" transform="translate(5.5,67)" aria-label="GATE">
      <path id="path56916" style="font-weight:bold;font-size:6.66667px;font-family:Roboto, sans-serif;letter-spacing:2px;fill:#333333" d="M 4.1731791,-0.59895862 Q 3.9095071,-0.28320326 3.427736,-0.10742193 2.9459649,0.0651042 2.3600272,0.0651042 q -0.6152347,0 -1.0807297,-0.26692721 Q 0.81705768,-0.47200543 0.56315131,-0.98307339 0.31250015,-1.4941413 0.30598973,-2.1842458 v -0.3222658 q 0,-0.7096358 0.23763032,-1.2272141 0.24088553,-0.5208336 0.69010445,-0.7942713 0.4524742,-0.2766928 1.0579433,-0.2766928 0.8430993,0 1.31836,0.403646 0.4752606,0.4003909 0.5631513,1.1686204 H 3.2226578 Q 3.1575536,-3.6393247 2.9329441,-3.8281268 2.7115898,-4.016929 2.3209646,-4.016929 q -0.4980471,0 -0.7584639,0.3743491 -0.2604167,0.3743492 -0.263672,1.1132818 v 0.3027345 q 0,0.7454431 0.2832033,1.1263027 0.2832033,0.38085952 0.8300785,0.38085952 0.5501305,0 0.7845056,-0.23437512 V -1.7708342 H 2.3079438 v -0.7194014 h 1.8652353 z"/>
      <path id="path56918" style="font-weight:bold;font-size:6.66667px;font-family:Roboto, sans-serif;letter-spacing:2px;fill:#333333" d="M 9.6432327,-0.97656297 H 7.9309923 L 7.6054713,0 H 6.5670594 L 8.3313831,-4.7395856 H 9.2363315 L 11.010421,0 H 9.9720089 Z M 8.1946643,-1.767579 H 9.3795607 L 8.7838573,-3.5416684 Z"/>
      <path id="path56920" style="font-weight:bold;font-size:6.66667px;font-family:Roboto, sans-serif;letter-spacing:2px;fill:#333333" d="M 16.636725,-3.9485696 H 15.184901 V 0 h -0.976562 v -3.9485696 h -1.432293 v -0.791016 h 3.860679 z"/>
      <path id="path56922" style="font-weight:bold;font-size:6.66667px;font-family:Roboto, sans-serif;letter-spacing:2px;fill:#333333" d="m 22.048184,-2.0540374 h -1.875001 v 1.26953182 h 2.200522 V 0 h -3.177084 v -4.7395856 h 3.170574 v 0.791016 h -2.194012 v 1.1295578 h 1.875001 z"/>
    </g>
  </g>
</svg>
