<?xml version="1.0" encoding="UTF-8" standalone="no"?>
<svg xmlns:dc="http://purl.org/dc/elements/1.1/" xmlns:cc="http://creativecommons.org/ns#" xmlns:rdf="http://www.w3.org/1999/02/22-rdf-syntax-ns#" xmlns:svg="http://www.w3.org/2000/svg" xmlns="http://www.w3.org/2000/svg" xmlns:sodipodi="http://sodipodi.sourceforge.net/DTD/sodipodi-0.dtd" xmlns:inkscape="http://www.inkscape.org/namespaces/inkscape" inkscape:version="1.0 (4035a4f, 2020-05-01)" sodipodi:docname="svg_render_VCA-pp.svg" id="svg65502" viewBox="0 0 45 380" height="380" width="45" version="1.1">
  <metadata id="metadata65508">
    <rdf:RDF>
      <cc:Work rdf:about="">
        <dc:format>image/svg+xml</dc:format>
        <dc:type rdf:resource="http://purl.org/dc/dcmitype/StillImage"/>
      </cc:Work>
    </rdf:RDF>
  </metadata>
  <defs id="defs65506"/>
  <sodipodi:namedview inkscape:current-layer="svg65502" inkscape:window-maximized="0" inkscape:window-y="23" inkscape:window-x="0" inkscape:cy="190" inkscape:cx="22.5" inkscape:zoom="1.7605263" showgrid="false" id="namedview65504" inkscape:window-height="480" inkscape:window-width="689" inkscape:pageshadow="2" inkscape:pageopacity="0" guidetolerance="10" gridtolerance="10" objecttolerance="10" borderopacity="1" bordercolor="#666666" pagecolor="#ffffff"/>
  
  <svg version="1.1" id="svg65358" width="100%" height="100%">
    <path class="module-background background-fill" d="M 0,0 H 45 V 380 H 0 Z" style="fill:#dddddd" id="rect65356"/>
  </svg>
  <svg version="1.1" id="svg65366" width="100%" height="100%">
    <path class="module-border-inner" d="M 1,1 H 44 V 379 H 1 V 1" style="fill:none;stroke:#e4e4e4;stroke-width:0.5" id="polyline65360"/>
    <path class="module-border-middle" d="m 0.5,0.5 h 44 v 379 H 0.5 V 0.5" style="fill:none;stroke:#ebebeb;stroke-width:0.8" id="polyline65362"/>
    <path class="module-border-outer" d="M 0,0 H 45 V 380 H 0 V 0" style="fill:none;stroke:#f2f2f2;stroke-width:1" id="polyline65364"/>
  </svg>
  <g transform="rotate(-90,194.5,181.5)" id="g65376">
    <g class="title" style="font-weight:normal;font-size:9.33333px;font-family:Comfortaa, sans-serif;letter-spacing:2.5px;fill:#333333" id="text65368" aria-label="VCA">
      <path id="path65652" style="font-weight:normal;font-size:9.33333px;font-family:Comfortaa, sans-serif;letter-spacing:2.5px;fill:#333333" d="m 6.1786646,-7.2893309 q 0.1493332,0 0.2333332,0.093333 0.093333,0.093333 0.093333,0.2333332 0,0.093333 -0.046667,0.2053333 L 3.6773321,-0.23333325 Q 3.5746654,0 3.3506655,0 3.2293322,0 3.1453323,-0.04666665 3.0706656,-0.10266663 3.0146656,-0.23333325 L 0.24266658,-6.7199977 q -0.056,-0.14 -0.056,-0.2426666 0,-0.1493333 0.0933333,-0.2333332 0.10266664,-0.093333 0.26133325,-0.093333 0.24266658,0 0.33599988,0.2333333 l 2.47333247,5.9173313 2.4639992,-5.8986646 q 0.056,-0.14 0.1399999,-0.196 0.084,-0.056 0.224,-0.056 z"/>
      <path id="path65654" style="font-weight:normal;font-size:9.33333px;font-family:Comfortaa, sans-serif;letter-spacing:2.5px;fill:#333333" d="m 12.925476,0.0933333 q -0.989333,0 -1.82,-0.50399983 Q 10.27481,-0.91466636 9.7801432,-1.7733327 9.2948101,-2.6319991 9.2948101,-3.6493321 q 0,-1.0079996 0.4853331,-1.866666 0.4853328,-0.8586664 1.3159998,-1.3626662 0.830666,-0.5039999 1.829333,-0.5039999 0.671999,0 1.222666,0.196 0.550666,0.1959999 1.063999,0.6253331 0.102667,0.074667 0.102667,0.2146666 0,0.074667 -0.03733,0.1399999 -0.03733,0.056 -0.102667,0.084 -0.01867,0.065333 -0.084,0.1026667 -0.06533,0.037333 -0.14,0.037333 -0.14,0 -0.233333,-0.084 -0.364,-0.3266666 -0.793333,-0.4759998 -0.429333,-0.1493333 -0.998666,-0.1493333 -0.784,0 -1.456,0.4199998 -0.672,0.4106666 -1.073333,1.1106663 -0.392,0.6999998 -0.392,1.5119995 0,0.8306664 0.392,1.5306662 0.392,0.6999997 1.064,1.1106662 0.671999,0.41066657 1.465333,0.41066657 1.017332,0 1.838666,-0.65333307 0.102666,-0.074667 0.205333,-0.074667 0.14,0 0.242666,0.1026666 0.102667,0.093333 0.102667,0.25199996 0,0.14933329 -0.102667,0.26133325 -0.877333,0.80266639 -2.286665,0.80266639 z"/>
      <path id="path65656" style="font-weight:normal;font-size:9.33333px;font-family:Comfortaa, sans-serif;letter-spacing:2.5px;fill:#333333" d="m 24.819327,-0.51333316 q 0.03733,0.0653333 0.03733,0.14933328 0,0.14933329 -0.112,0.26133325 Q 24.641993,0 24.49266,0 24.249994,0 24.147327,-0.22399992 L 23.521994,-1.7359994 h -3.611999 l -0.625333,1.51199948 Q 19.209995,0 18.948662,0 q -0.158667,0 -0.261333,-0.10266663 -0.09333,-0.11199996 -0.09333,-0.26133325 0,-0.0933333 0.028,-0.15866661 l 2.744,-6.51466441 q 0.102666,-0.252 0.354666,-0.252 0.252,0 0.345333,0.252 z m -1.549333,-1.84799934 -1.549333,-3.7426654 -1.549333,3.7426654 z"/>
    </g>
    <g transform="translate(0,12)" id="g65374">
      <g class="brand" style="font-weight:bold;font-size:9.33333px;font-family:Audiowide, sans-serif;letter-spacing:2px;fill:#333333" id="text65370" aria-label="BGA">
        <path id="path65659" style="font-weight:bold;font-size:9.33333px;font-family:Audiowide, sans-serif;letter-spacing:2px;fill:#333333" d="m 7.209633,-1.4355464 q 0,0.2187499 -0.077474,0.4694009 -0.072917,0.25065095 -0.2460936,0.46484359 Q 6.7174456,-0.28710928 6.4440082,-0.14127599 6.1705708,0 5.7740866,0 H 1.2760412 Q 1.1484371,0 1.0390621,-0.0455729 0.92968718,-0.0911458 0.84765596,-0.16861973 0.77018203,-0.25065096 0.72460913,-0.36002592 0.67903623,-0.46940088 0.67903623,-0.597005 v -5.341144 q 0,-0.1230469 0.0455729,-0.2324218 0.0455729,-0.109375 0.12304683,-0.1914062 0.0820312,-0.082031 0.19140614,-0.1276041 0.109375,-0.045573 0.2369791,-0.045573 h 3.9648424 q 0.21875,0 0.4694009,0.077474 0.250651,0.077474 0.4648436,0.250651 0.2187499,0.1686197 0.3600259,0.4420571 0.1458333,0.2734374 0.1458333,0.6699217 v 0.2233072 q 0,0.314453 -0.1048177,0.6790362 -0.1048176,0.3600259 -0.3372394,0.6835935 0.2005207,0.1230468 0.3736978,0.2962239 0.1777343,0.173177 0.3098957,0.4010415 0.1321614,0.2278645 0.2096353,0.5149738 0.077474,0.2871093 0.077474,0.6334633 z M 6.0247375,-1.6634109 q 0,-0.2324218 -0.072917,-0.4147134 Q 5.8789042,-2.2649732 5.7467428,-2.3971346 5.6145814,-2.529296 5.4277325,-2.5976554 5.2408836,-2.670572 5.0084618,-2.670572 h -2.670572 v -1.19401 h 2.1373691 q 0.2324218,0 0.4192707,-0.068359 0.1868489,-0.072917 0.3190103,-0.205078 0.1321614,-0.1321614 0.2005208,-0.314453 0.072917,-0.1868489 0.072917,-0.4192707 v -0.2233072 q 0,-0.2552083 -0.2460937,-0.2552083 H 1.8639317 v 4.1653632 h 3.9101549 q 0.031901,0 0.077474,-0.00456 0.045573,-0.00456 0.082031,-0.027344 0.036458,-0.022786 0.063802,-0.077474 0.027344,-0.054687 0.027344,-0.1503906 z"/>
        <path id="path65661" style="font-weight:bold;font-size:9.33333px;font-family:Audiowide, sans-serif;letter-spacing:2px;fill:#333333" d="m 16.683589,-0.597005 q 0,0.12760412 -0.04557,0.23697908 -0.04557,0.10937496 -0.127605,0.19140619 -0.07747,0.07747393 -0.186849,0.12304683 Q 16.214189,0 16.086584,0 h -4.274738 q -0.164062,0 -0.355468,-0.03645832 -0.186849,-0.04101561 -0.373698,-0.12304683 -0.182292,-0.0820312 -0.350911,-0.20963535 -0.16862,-0.13216141 -0.300782,-0.31445302 -0.127604,-0.18684889 -0.205078,-0.42838528 -0.07747,-0.2460937 -0.07747,-0.5514321 v -3.2083322 q 0,-0.1640625 0.03646,-0.3509114 0.04101,-0.1914062 0.123047,-0.3736978 0.08203,-0.1868489 0.214192,-0.3554686 0.132162,-0.1686197 0.314453,-0.2962238 0.186849,-0.1321615 0.428385,-0.2096354 0.241537,-0.077474 0.546875,-0.077474 h 4.817056 v 1.1848954 h -4.817056 q -0.232422,0 -0.355468,0.1230468 -0.123047,0.1230469 -0.123047,0.3645832 v 3.1992177 q 0,0.2278645 0.123047,0.3554686 0.127604,0.1230469 0.355468,0.1230469 h 3.686848 V -2.670572 h -3.153645 v -1.19401 h 3.741535 q 0.127605,0 0.236979,0.05013 0.109375,0.045573 0.186849,0.1276041 0.08203,0.082031 0.127605,0.1914062 0.04557,0.1048177 0.04557,0.2278645 z"/>
        <path id="path65663" style="font-weight:bold;font-size:9.33333px;font-family:Audiowide, sans-serif;letter-spacing:2px;fill:#333333" d="M 26.339836,0 H 25.154941 V -1.6041661 H 20.989578 V 0 h -1.184896 v -3.267577 q 0,-0.7154946 0.246094,-1.3170569 0.246094,-0.6015623 0.683593,-1.0345048 0.4375,-0.4329426 1.034505,-0.6744789 0.597005,-0.2415364 1.303385,-0.2415364 h 2.670572 q 0.123047,0 0.232422,0.045573 0.109375,0.045573 0.191406,0.1276041 0.08203,0.082031 0.127604,0.1914062 0.04557,0.1093749 0.04557,0.2324218 z m -5.350258,-2.7890616 h 4.165363 v -2.561197 h -2.082682 q -0.05469,0 -0.232422,0.018229 -0.173177,0.013672 -0.405598,0.077474 -0.227865,0.063802 -0.483073,0.1959635 -0.255208,0.1321614 -0.469401,0.3645832 -0.214193,0.2324218 -0.355469,0.5833331 -0.136718,0.3463541 -0.136718,0.8430987 z"/>
      </g>
      <path d="M 0,0 H 3 V 3 H 0 Z" style="fill:#dddddd" transform="translate(11.5,-5)" id="rect65372"/>
    </g>
  </g>
  <g transform="translate(9.5,22.5)" id="g65380"/>
  <g transform="translate(0,13)" id="g65408">
    <svg version="1.1" id="svg65406" width="100%" height="100%">
      <g transform="translate(22.5,22.5)" id="g65404">
        <g style="font-weight:bold;font-size:6.66667px;font-family:Roboto, sans-serif;fill:#333333" id="text65382" transform="translate(-11,17.588457)" aria-label="0">
          <path id="path65639" style="font-weight:bold;font-size:6.66667px;font-family:Roboto, sans-serif;fill:#333333" d="m 3.5123715,-1.9596364 q 0,0.98307343 -0.4069013,1.50390702 Q 2.698569,0.0651042 1.9140634,0.0651042 q -0.7747399,0 -1.18489639,-0.51106795 Q 0.31901057,-0.95703171 0.30924494,-1.9108082 v -0.8723963 q 0,-0.992839 0.41015644,-1.5071621 0.41341162,-0.5143232 1.18815162,-0.5143232 0.7747399,0 1.1848964,0.511068 0.4101564,0.5078127 0.4199221,1.4615892 z M 2.5716158,-2.9166681 q 0,-0.5891929 -0.1627605,-0.8561202 Q 2.24935,-4.0429707 1.907553,-4.0429707 q -0.3320314,0 -0.4915367,0.2571616 -0.1562501,0.2539064 -0.1660157,0.7975264 v 1.1523443 q 0,0.5794274 0.1562501,0.86263064 0.1595053,0.27994805 0.5078127,0.27994805 0.3450523,0 0.4980471,-0.27018242 0.1529949,-0.27018237 0.1595053,-0.82682327 z"/>
        </g>
        <path d="M 0,0 H 2.5" style="stroke:#333333;stroke-width:0.3" transform="rotate(150,-7.5,2.0096189)" id="polyline65384"/>
        <path d="M 0,0 H 2.5" style="stroke:#333333;stroke-width:0.3" transform="rotate(180,-7.5,0)" id="polyline65386"/>
        <path d="M 0,0 H 2.5" style="stroke:#333333;stroke-width:0.3" transform="rotate(-150,-7.5,-2.0096189)" id="polyline65388"/>
        <path d="M 0,0 H 2.5" style="stroke:#333333;stroke-width:0.3" transform="rotate(-120,-7.5,-4.330127)" id="polyline65390"/>
        <path d="M 0,0 H 2.5" style="stroke:#333333;stroke-width:0.3" transform="rotate(-90,-7.5,-7.5)" id="polyline65392"/>
        <path d="M 0,0 H 2.5" style="stroke:#333333;stroke-width:0.3" transform="rotate(-60,-7.5,-12.990381)" id="polyline65394"/>
        <path d="M 0,0 H 2.5" style="stroke:#333333;stroke-width:0.3" transform="rotate(-30,-7.5,-27.990381)" id="polyline65396"/>
        <path d="M 0,0 H 2.5" style="stroke:#333333;stroke-width:0.3" transform="translate(15)" id="polyline65398"/>
        <path d="M 0,0 H 2.5" style="stroke:#333333;stroke-width:0.3" transform="rotate(30,-7.5,27.990381)" id="polyline65400"/>
        <path d="M 0,0 H 3.5" style="stroke:#333333;stroke-width:1" transform="rotate(60,-7.5,12.990381)" id="polyline65402"/>
      </g>
    </svg>
  </g>
  <g transform="translate(5.5,57)" id="g65424">
    <path d="M 0,0 H 34 V 10 H 0 Z" style="fill:#fafafa" transform="translate(0,63)" id="rect65412"/>
    <path d="m 5,0 h 24 c 2.77,0 5,2.23 5,5 v 60 c 0,2.77 -2.23,5 -5,5 H 5 C 2.23,70 0,67.77 0,65 V 5 C 0,2.23 2.23,0 5,0 Z" style="fill:#fafafa" id="rect65414"/>
    <g transform="translate(5,3)" id="g65416"/>
    <g style="font-weight:bold;font-size:6.66667px;font-family:Roboto, sans-serif;letter-spacing:2px;fill:#333333" id="text65418" transform="translate(12.5,35)" aria-label="CV">
      <path id="path65629" style="font-weight:bold;font-size:6.66667px;font-family:Roboto, sans-serif;letter-spacing:2px;fill:#333333" d="M 4.1438822,-1.5787768 Q 4.0885436,-0.81380247 3.5774757,-0.37434914 3.0696629,0.0651042 2.2363292,0.0651042 q -0.9114588,0 -1.43554757,-0.61197946 Q 0.27994805,-1.1621099 0.27994805,-2.233074 v -0.2897137 q 0,-0.683594 0.24088553,-1.2044276 0.24088553,-0.5208336 0.68684932,-0.7975264 0.4492189,-0.2799481 1.0416671,-0.2799481 0.8203129,0 1.3216152,0.4394533 0.5013024,0.4394534 0.5794274,1.2337246 H 3.1738296 Q 3.1380223,-3.5904965 2.9166681,-3.7955747 2.698569,-4.0039082 2.24935,-4.0039082 q -0.4882815,0 -0.7324222,0.3515627 -0.2408855,0.3483075 -0.2473959,1.0839849 v 0.3580731 q 0,0.7682295 0.2311199,1.1230474 0.2343751,0.35481788 0.7356774,0.35481788 0.4524742,0 0.6738284,-0.20507823 0.2246095,-0.20833345 0.2571616,-0.64127635 z"/>
      <path id="path65631" style="font-weight:bold;font-size:6.66667px;font-family:Roboto, sans-serif;letter-spacing:2px;fill:#333333" d="M 8.5364616,-1.1751308 9.6106809,-4.7395856 H 10.697921 L 9.0475295,0 H 8.0286489 l -1.643881,-4.7395856 h 1.0839849 z"/>
    </g>
    <g transform="translate(5,38)" id="g65420"/>
    <g style="font-weight:bold;font-size:6.66667px;font-family:Roboto, sans-serif;letter-spacing:2px;fill:#333333" id="text65422" transform="translate(12.5,70)" aria-label="IN">
      <path id="path65634" style="font-weight:bold;font-size:6.66667px;font-family:Roboto, sans-serif;letter-spacing:2px;fill:#333333" d="M 1.4615892,0 H 0.48502627 V -4.7395856 H 1.4615892 Z"/>
      <path id="path65636" style="font-weight:bold;font-size:6.66667px;font-family:Roboto, sans-serif;letter-spacing:2px;fill:#333333" d="M 8.2174508,0 H 7.2408878 L 5.3398452,-3.1184911 V 0 h -0.976563 v -4.7395856 h 0.976563 l 1.9042978,3.1250015 v -3.1250015 h 0.9733078 z"/>
    </g>
  </g>
  <g transform="translate(5.5,133)" id="g65434">
    <path d="M 0,0 H 34 V 10 H 0 Z" style="fill:#bbbbbb" transform="translate(0,-3)" id="rect65426"/>
    <path d="m 5,0 h 24 c 2.77,0 5,2.23 5,5 v 25 c 0,2.77 -2.23,5 -5,5 H 5 C 2.23,35 0,32.77 0,30 V 5 C 0,2.23 2.23,0 5,0 Z" style="fill:#bbbbbb" id="rect65428"/>
    <g transform="translate(5)" id="g65430"/>
    <g style="font-weight:bold;font-size:6.66667px;font-family:Roboto, sans-serif;letter-spacing:2px;fill:#333333" id="text65432" transform="translate(8.3,32)" aria-label="OUT">
      <path id="path65620" style="font-weight:bold;font-size:6.66667px;font-family:Roboto, sans-serif;letter-spacing:2px;fill:#333333" d="m 4.3164083,-2.2623709 q 0,0.6998702 -0.2473959,1.2272142 -0.247396,0.52734396 -0.7096358,0.81380243 -0.4589846,0.28645847 -1.054688,0.28645847 -0.589193,0 -1.0514328,-0.28320326 Q 0.791016,-0.50130232 0.53710963,-1.0253911 0.28320326,-1.5527351 0.27994805,-2.2363292 v -0.2343751 q 0,-0.6998701 0.25065116,-1.2304693 0.25390637,-0.5338545 0.71289099,-0.8170577 0.4622398,-0.2864585 1.054688,-0.2864585 0.5924482,0 1.0514328,0.2864585 0.4622398,0.2832032 0.7128909,0.8170577 0.2539064,0.5305992 0.2539064,1.2272141 z M 3.3268245,-2.4772147 q 0,-0.7454431 -0.2669272,-1.1328131 -0.2669272,-0.3873699 -0.7617191,-0.3873699 -0.4915367,0 -0.7584639,0.3841147 -0.2669272,0.3808596 -0.2701824,1.1197922 v 0.2311199 q 0,0.7259118 0.2669272,1.1263026 0.2669272,0.40039087 0.7682295,0.40039087 0.4915367,0 0.7552087,-0.38411477 0.263672,-0.38737 0.2669272,-1.1263026 z"/>
      <path id="path65622" style="font-weight:bold;font-size:6.66667px;font-family:Roboto, sans-serif;letter-spacing:2px;fill:#333333" d="m 10.619796,-4.7395856 v 3.1217463 q 0,0.77799515 -0.488282,1.23046932 -0.4850258,0.45247418 -1.3281252,0.45247418 -0.8300785,0 -1.31836,-0.43945334 Q 6.9967474,-0.81380247 6.9869817,-1.582032 v -3.1575536 h 0.976563 v 3.1282567 q 0,0.465495 0.2213543,0.68033887 0.2246095,0.21158865 0.6184898,0.21158865 0.8235681,0 0.836589,-0.86588582 v -3.1542984 z"/>
      <path id="path65624" style="font-weight:bold;font-size:6.66667px;font-family:Roboto, sans-serif;letter-spacing:2px;fill:#333333" d="M 16.988288,-3.9485696 H 15.536464 V 0 h -0.976563 v -3.9485696 h -1.432292 v -0.791016 h 3.860679 z"/>
    </g>
  </g>
  <g transform="translate(9.5,181.5)" id="g65438"/>
  <g transform="translate(0,172)" id="g65466">
    <svg version="1.1" id="svg65464" width="100%" height="100%">
      <g transform="translate(22.5,22.5)" id="g65462">
        <g style="font-weight:bold;font-size:6.66667px;font-family:Roboto, sans-serif;fill:#333333" id="text65440" transform="translate(-11,17.588457)" aria-label="0">
          <path id="path65605" style="font-weight:bold;font-size:6.66667px;font-family:Roboto, sans-serif;fill:#333333" d="m 3.5123715,-1.9596364 q 0,0.98307343 -0.4069013,1.50390702 Q 2.698569,0.0651042 1.9140634,0.0651042 q -0.7747399,0 -1.18489639,-0.51106795 Q 0.31901057,-0.95703171 0.30924494,-1.9108082 v -0.8723963 q 0,-0.992839 0.41015644,-1.5071621 0.41341162,-0.5143232 1.18815162,-0.5143232 0.7747399,0 1.1848964,0.511068 0.4101564,0.5078127 0.4199221,1.4615892 z M 2.5716158,-2.9166681 q 0,-0.5891929 -0.1627605,-0.8561202 Q 2.24935,-4.0429707 1.907553,-4.0429707 q -0.3320314,0 -0.4915367,0.2571616 -0.1562501,0.2539064 -0.1660157,0.7975264 v 1.1523443 q 0,0.5794274 0.1562501,0.86263064 0.1595053,0.27994805 0.5078127,0.27994805 0.3450523,0 0.4980471,-0.27018242 0.1529949,-0.27018237 0.1595053,-0.82682327 z"/>
        </g>
        <path d="M 0,0 H 2.5" style="stroke:#333333;stroke-width:0.3" transform="rotate(150,-7.5,2.0096189)" id="polyline65442"/>
        <path d="M 0,0 H 2.5" style="stroke:#333333;stroke-width:0.3" transform="rotate(180,-7.5,0)" id="polyline65444"/>
        <path d="M 0,0 H 2.5" style="stroke:#333333;stroke-width:0.3" transform="rotate(-150,-7.5,-2.0096189)" id="polyline65446"/>
        <path d="M 0,0 H 2.5" style="stroke:#333333;stroke-width:0.3" transform="rotate(-120,-7.5,-4.330127)" id="polyline65448"/>
        <path d="M 0,0 H 2.5" style="stroke:#333333;stroke-width:0.3" transform="rotate(-90,-7.5,-7.5)" id="polyline65450"/>
        <path d="M 0,0 H 2.5" style="stroke:#333333;stroke-width:0.3" transform="rotate(-60,-7.5,-12.990381)" id="polyline65452"/>
        <path d="M 0,0 H 2.5" style="stroke:#333333;stroke-width:0.3" transform="rotate(-30,-7.5,-27.990381)" id="polyline65454"/>
        <path d="M 0,0 H 2.5" style="stroke:#333333;stroke-width:0.3" transform="translate(15)" id="polyline65456"/>
        <path d="M 0,0 H 2.5" style="stroke:#333333;stroke-width:0.3" transform="rotate(30,-7.5,27.990381)" id="polyline65458"/>
        <path d="M 0,0 H 3.5" style="stroke:#333333;stroke-width:1" transform="rotate(60,-7.5,12.990381)" id="polyline65460"/>
      </g>
    </svg>
  </g>
  <g transform="translate(5.5,216)" id="g65482">
    <path d="M 0,0 H 34 V 10 H 0 Z" style="fill:#fafafa" transform="translate(0,63)" id="rect65470"/>
    <path d="m 5,0 h 24 c 2.77,0 5,2.23 5,5 v 60 c 0,2.77 -2.23,5 -5,5 H 5 C 2.23,70 0,67.77 0,65 V 5 C 0,2.23 2.23,0 5,0 Z" style="fill:#fafafa" id="rect65472"/>
    <g transform="translate(5,3)" id="g65474"/>
    <g style="font-weight:bold;font-size:6.66667px;font-family:Roboto, sans-serif;letter-spacing:2px;fill:#333333" id="text65476" transform="translate(12.5,35)" aria-label="CV">
      <path id="path65595" style="font-weight:bold;font-size:6.66667px;font-family:Roboto, sans-serif;letter-spacing:2px;fill:#333333" d="M 4.1438822,-1.5787768 Q 4.0885436,-0.81380247 3.5774757,-0.37434914 3.0696629,0.0651042 2.2363292,0.0651042 q -0.9114588,0 -1.43554757,-0.61197946 Q 0.27994805,-1.1621099 0.27994805,-2.233074 v -0.2897137 q 0,-0.683594 0.24088553,-1.2044276 0.24088553,-0.5208336 0.68684932,-0.7975264 0.4492189,-0.2799481 1.0416671,-0.2799481 0.8203129,0 1.3216152,0.4394533 0.5013024,0.4394534 0.5794274,1.2337246 H 3.1738296 Q 3.1380223,-3.5904965 2.9166681,-3.7955747 2.698569,-4.0039082 2.24935,-4.0039082 q -0.4882815,0 -0.7324222,0.3515627 -0.2408855,0.3483075 -0.2473959,1.0839849 v 0.3580731 q 0,0.7682295 0.2311199,1.1230474 0.2343751,0.35481788 0.7356774,0.35481788 0.4524742,0 0.6738284,-0.20507823 0.2246095,-0.20833345 0.2571616,-0.64127635 z"/>
      <path id="path65597" style="font-weight:bold;font-size:6.66667px;font-family:Roboto, sans-serif;letter-spacing:2px;fill:#333333" d="M 8.5364616,-1.1751308 9.6106809,-4.7395856 H 10.697921 L 9.0475295,0 H 8.0286489 l -1.643881,-4.7395856 h 1.0839849 z"/>
    </g>
    <g transform="translate(5,38)" id="g65478"/>
    <g style="font-weight:bold;font-size:6.66667px;font-family:Roboto, sans-serif;letter-spacing:2px;fill:#333333" id="text65480" transform="translate(12.5,70)" aria-label="IN">
      <path id="path65600" style="font-weight:bold;font-size:6.66667px;font-family:Roboto, sans-serif;letter-spacing:2px;fill:#333333" d="M 1.4615892,0 H 0.48502627 V -4.7395856 H 1.4615892 Z"/>
      <path id="path65602" style="font-weight:bold;font-size:6.66667px;font-family:Roboto, sans-serif;letter-spacing:2px;fill:#333333" d="M 8.2174508,0 H 7.2408878 L 5.3398452,-3.1184911 V 0 h -0.976563 v -4.7395856 h 0.976563 l 1.9042978,3.1250015 v -3.1250015 h 0.9733078 z"/>
    </g>
  </g>
  <g transform="translate(5.5,292)" id="g65492">
    <path d="M 0,0 H 34 V 10 H 0 Z" style="fill:#bbbbbb" transform="translate(0,-3)" id="rect65484"/>
    <path d="m 5,0 h 24 c 2.77,0 5,2.23 5,5 v 25 c 0,2.77 -2.23,5 -5,5 H 5 C 2.23,35 0,32.77 0,30 V 5 C 0,2.23 2.23,0 5,0 Z" style="fill:#bbbbbb" id="rect65486"/>
    <g transform="translate(5)" id="g65488"/>
    <g style="font-weight:bold;font-size:6.66667px;font-family:Roboto, sans-serif;letter-spacing:2px;fill:#333333" id="text65490" transform="translate(8.3,32)" aria-label="OUT">
      <path id="path65586" style="font-weight:bold;font-size:6.66667px;font-family:Roboto, sans-serif;letter-spacing:2px;fill:#333333" d="m 4.3164083,-2.2623709 q 0,0.6998702 -0.2473959,1.2272142 -0.247396,0.52734396 -0.7096358,0.81380243 -0.4589846,0.28645847 -1.054688,0.28645847 -0.589193,0 -1.0514328,-0.28320326 Q 0.791016,-0.50130232 0.53710963,-1.0253911 0.28320326,-1.5527351 0.27994805,-2.2363292 v -0.2343751 q 0,-0.6998701 0.25065116,-1.2304693 0.25390637,-0.5338545 0.71289099,-0.8170577 0.4622398,-0.2864585 1.054688,-0.2864585 0.5924482,0 1.0514328,0.2864585 0.4622398,0.2832032 0.7128909,0.8170577 0.2539064,0.5305992 0.2539064,1.2272141 z M 3.3268245,-2.4772147 q 0,-0.7454431 -0.2669272,-1.1328131 -0.2669272,-0.3873699 -0.7617191,-0.3873699 -0.4915367,0 -0.7584639,0.3841147 -0.2669272,0.3808596 -0.2701824,1.1197922 v 0.2311199 q 0,0.7259118 0.2669272,1.1263026 0.2669272,0.40039087 0.7682295,0.40039087 0.4915367,0 0.7552087,-0.38411477 0.263672,-0.38737 0.2669272,-1.1263026 z"/>
      <path id="path65588" style="font-weight:bold;font-size:6.66667px;font-family:Roboto, sans-serif;letter-spacing:2px;fill:#333333" d="m 10.619796,-4.7395856 v 3.1217463 q 0,0.77799515 -0.488282,1.23046932 -0.4850258,0.45247418 -1.3281252,0.45247418 -0.8300785,0 -1.31836,-0.43945334 Q 6.9967474,-0.81380247 6.9869817,-1.582032 v -3.1575536 h 0.976563 v 3.1282567 q 0,0.465495 0.2213543,0.68033887 0.2246095,0.21158865 0.6184898,0.21158865 0.8235681,0 0.836589,-0.86588582 v -3.1542984 z"/>
      <path id="path65590" style="font-weight:bold;font-size:6.66667px;font-family:Roboto, sans-serif;letter-spacing:2px;fill:#333333" d="M 16.988288,-3.9485696 H 15.536464 V 0 h -0.976563 v -3.9485696 h -1.432292 v -0.791016 h 3.860679 z"/>
    </g>
  </g>
  <g style="font-weight:bold;font-size:6.66667px;font-family:Roboto, sans-serif;letter-spacing:1px;fill:#333333" id="text65496" aria-label="LIN">
    <path id="path65577" style="font-weight:bold;font-size:6.66667px;font-family:Roboto, sans-serif;letter-spacing:1px;fill:#333333" d="m 11.89974,339.21549 h 2.073569 V 340 h -3.050132 v -4.73959 h 0.976563 z"/>
    <path id="path65579" style="font-weight:bold;font-size:6.66667px;font-family:Roboto, sans-serif;letter-spacing:1px;fill:#333333" d="m 16.568362,340 h -0.976563 v -4.73959 h 0.976563 z"/>
    <path id="path65581" style="font-weight:bold;font-size:6.66667px;font-family:Roboto, sans-serif;letter-spacing:1px;fill:#333333" d="m 22.324224,340 h -0.976563 l -1.901043,-3.11849 V 340 h -0.976563 v -4.73959 h 0.976563 l 1.904298,3.12501 v -3.12501 h 0.973308 z"/>
  </g>
  <g transform="translate(25.5,333)" id="g65498"/>
</svg>
