<?xml version="1.0" encoding="UTF-8" standalone="no"?>
<svg xmlns:dc="http://purl.org/dc/elements/1.1/" xmlns:cc="http://creativecommons.org/ns#" xmlns:rdf="http://www.w3.org/1999/02/22-rdf-syntax-ns#" xmlns:svg="http://www.w3.org/2000/svg" xmlns="http://www.w3.org/2000/svg" xmlns:sodipodi="http://sodipodi.sourceforge.net/DTD/sodipodi-0.dtd" xmlns:inkscape="http://www.inkscape.org/namespaces/inkscape" inkscape:version="1.0 (4035a4f, 2020-05-01)" sodipodi:docname="svg_render_tmp.svg" id="svg338" viewBox="0 0 150 380" height="380" width="150" version="1.1">
  <metadata id="metadata342">
    <rdf:RDF>
      <cc:Work rdf:about="">
        <dc:format>image/svg+xml</dc:format>
        <dc:type rdf:resource="http://purl.org/dc/dcmitype/StillImage"/>
      </cc:Work>
    </rdf:RDF>
  </metadata>
  <sodipodi:namedview inkscape:current-layer="svg338" inkscape:window-maximized="0" inkscape:window-y="23" inkscape:window-x="0" inkscape:cy="190" inkscape:cx="75" inkscape:zoom="1.7605263" showgrid="false" id="namedview340" inkscape:window-height="480" inkscape:window-width="689" inkscape:pageshadow="2" inkscape:pageopacity="0" guidetolerance="10" gridtolerance="10" objecttolerance="10" borderopacity="1" bordercolor="#666666" pagecolor="#ffffff"/>
  
  <defs id="defs242">
    <symbol viewBox="0 0 68px 68px" id="knob68">
      <g id="g10" transform="translate(34 34)">
        <polyline id="polyline4" stroke="#00f" stroke-width="1" points="-10,0 10,0"/>
        <polyline id="polyline6" stroke="#00f" stroke-width="1" points="0,-10 0,10"/>
        <circle id="circle8" fill="none" stroke="#00f" stroke-width="1" r="33.5" cy="0" cx="0"/>
      </g>
    </symbol>
    <symbol viewBox="0 0 38px 38px" id="knob38">
      <g id="g19" transform="translate(19 19)">
        <polyline id="polyline13" stroke="#00f" stroke-width="1" points="-5,0 5,0"/>
        <polyline id="polyline15" stroke="#00f" stroke-width="1" points="0,-5 0,5"/>
        <circle id="circle17" fill="none" stroke="#00f" stroke-width="1" r="18.5" cy="0" cx="0"/>
      </g>
    </symbol>
    <symbol viewBox="0 0 16px 16px" id="knob16">
      <g id="g28" transform="translate(8 8)">
        <polyline id="polyline22" stroke="#00f" stroke-width="1" points="-3,0 3,0"/>
        <polyline id="polyline24" stroke="#00f" stroke-width="1" points="0,-3 0,3"/>
        <circle id="circle26" fill="none" stroke="#00f" stroke-width="1" r="7.5"/>
      </g>
    </symbol>
    <symbol viewBox="0 0 40px 40px" id="dial-centertick">
      <g id="g43" transform="translate(20 20)">
        <g id="g33" transform="rotate(-90) translate(10 0)">
          <polyline id="polyline31" stroke="#333" stroke-width="1" points="0,0 4,0"/>
        </g>
        <path id="path35" transform="rotate(20)" fill="none" stroke-linecap="round" stroke-width="0.5" stroke="#333" d="M 0 -12.5 A 12.5 12.5 0 0 1 12.5 0"/>
        <path id="path37" transform="rotate(43)" fill="none" stroke-linecap="round" stroke-width="0.5" stroke="#333" d="M 0 -12.5 A 12.5 12.5 0 0 1 12.5 0"/>
        <path id="path39" transform="rotate(-20)" fill="none" stroke-linecap="round" stroke-width="0.5" stroke="#333" d="M 0 -12.5 A 12.5 12.5 0 0 0 -12.5 0"/>
        <path id="path41" transform="rotate(-43)" fill="none" stroke-linecap="round" stroke-width="0.5" stroke="#333" d="M 0 -12.5 A 12.5 12.5 0 0 0 -12.5 0"/>
      </g>
    </symbol>
    <symbol viewBox="0 0 40px 40px" id="dial-mintick">
      <g id="g58" transform="translate(20 20)">
        <g id="g48" transform="rotate(-240) translate(10 0)">
          <polyline id="polyline46" stroke="#333" stroke-width="1" points="0,0 4,0"/>
        </g>
        <path id="path50" transform="rotate(0)" fill="none" stroke-linecap="round" stroke-width="0.5" stroke="#333" d="M 0 -12.5 A 12.5 12.5 0 0 1 12.5 0"/>
        <path id="path52" transform="rotate(43)" fill="none" stroke-linecap="round" stroke-width="0.5" stroke="#333" d="M 0 -12.5 A 12.5 12.5 0 0 1 12.5 0"/>
        <path id="path54" transform="rotate(0)" fill="none" stroke-linecap="round" stroke-width="0.5" stroke="#333" d="M 0 -12.5 A 12.5 12.5 0 0 0 -12.5 0"/>
        <path id="path56" transform="rotate(-43)" fill="none" stroke-linecap="round" stroke-width="0.5" stroke="#333" d="M 0 -12.5 A 12.5 12.5 0 0 0 -12.5 0"/>
      </g>
    </symbol>
    <symbol viewBox="0 0 24px 24px" id="input">
      <g id="g65" transform="translate(12 12)">
        <circle id="circle61" fill="#0f0" stroke="#0f0" stroke-width="1" r="5" cy="0" cx="0"/>
        <circle id="circle63" fill="none" stroke="#0f0" stroke-width="3" r="10.5" cy="0" cx="0"/>
      </g>
    </symbol>
    <symbol viewBox="0 0 24px 24px" id="output">
      <g id="g72" transform="translate(12 12)">
        <circle id="circle68" fill="#f00" stroke="#f00" stroke-width="1" r="5" cy="0" cx="0"/>
        <circle id="circle70" fill="none" stroke="#f00" stroke-width="3" r="10.5" cy="0" cx="0"/>
      </g>
    </symbol>
    <symbol viewBox="0 0 9px 9px" id="button-small">
      <g id="g77" transform="translate(4.5 4.5)">
        <circle id="circle75" fill="#f00" stroke="#00f" stroke-width="1" r="4"/>
      </g>
    </symbol>
    <symbol viewBox="0 0 6.4px 6.4px" id="light-small">
      <rect id="rect80" fill="#0f0" height="6.4" width="6.4"/>
    </symbol>
    <symbol viewBox="0 0 1.1px 1.1px" id="light-tiny">
      <rect id="rect83" fill="#0f0" height="3.2" width="3.2"/>
    </symbol>
    <symbol viewBox="0 0 150px 108px" id="dial-frequency-vcf">
      <g id="g166" transform="translate(75 54)">
        <g id="g90" transform="rotate(-240) translate(34 0)">
          <polyline id="polyline86" transform="translate(3 0)" stroke="#333" stroke-width="1" points="0,0 5,0"/>
          <text id="text88" transform="translate(14 0) rotate(240) translate(-2 3)" font-size="7.0pt">0</text>
        </g>
        <polyline id="polyline92" transform="rotate(-225) translate(37 0)" stroke="#333" stroke-width="0.7" points="0,0 3,0"/>
        <g id="g98" transform="rotate(-218.8) translate(34 0)">
          <polyline id="polyline94" transform="translate(3 0)" stroke="#333" stroke-width="1" points="0,0 5,0"/>
          <text id="text96" transform="translate(14 0) rotate(218.8) translate(-12.5 3.5)" font-size="7.0pt">100</text>
        </g>
        <polyline id="polyline100" transform="rotate(-206.5) translate(37 0)" stroke="#333" stroke-width="0.7" points="0,0 3,0"/>
        <g id="g106" transform="rotate(-192.6) translate(34 0)">
          <polyline id="polyline102" transform="translate(3 0)" stroke="#333" stroke-width="1" points="0,0 5,0"/>
          <text id="text104" transform="translate(14 0) rotate(192.6) translate(-11.5 3)" font-size="7.0pt">500</text>
        </g>
        <polyline id="polyline108" transform="rotate(-181.9) translate(37 0)" stroke="#333" stroke-width="0.7" points="0,0 3,0"/>
        <g id="g114" transform="rotate(-172.2) translate(34 0)">
          <polyline id="polyline110" transform="translate(3 0)" stroke="#333" stroke-width="1" points="0,0 5,0"/>
          <text id="text112" transform="translate(14 0) rotate(172.2) translate(-7.5 3)" font-size="7.0pt">1K</text>
        </g>
        <polyline id="polyline116" transform="rotate(-151.3) translate(37 0)" stroke="#333" stroke-width="0.7" points="0,0 3,0"/>
        <g id="g122" transform="rotate(-133.9) translate(34 0)">
          <polyline id="polyline118" transform="translate(3 0)" stroke="#333" stroke-width="1" points="0,0 5,0"/>
          <text id="text120" transform="translate(14 0) rotate(133.9) translate(-16 3)" font-size="7.0pt">2.5K</text>
        </g>
        <polyline id="polyline124" transform="rotate(-110.1) translate(37 0)" stroke="#333" stroke-width="0.7" points="0,0 3,0"/>
        <g id="g130" transform="rotate(-90) translate(34 0)">
          <polyline id="polyline126" transform="translate(3 0)" stroke="#333" stroke-width="1" points="0,0 5,0"/>
          <text id="text128" transform="translate(14 0) rotate(90) translate(-6 4)" font-size="7.0pt">5K</text>
        </g>
        <polyline id="polyline132" transform="rotate(-41.6) translate(37 0)" stroke="#333" stroke-width="0.7" points="0,0 3,0"/>
        <g id="g138" transform="rotate(-56.3) translate(34 0)">
          <polyline id="polyline134" transform="translate(3 0)" stroke="#333" stroke-width="1" points="0,0 5,0"/>
          <text id="text136" transform="translate(14 0) rotate(56.3) translate(-3.5 3)" font-size="7.0pt">7.5K</text>
        </g>
        <polyline id="polyline140" transform="rotate(-72.3) translate(37 0)" stroke="#333" stroke-width="0.7" points="0,0 3,0"/>
        <g id="g146" transform="rotate(-27.9) translate(34 0)">
          <polyline id="polyline142" transform="translate(3 0)" stroke="#333" stroke-width="1" points="0,0 5,0"/>
          <text id="text144" transform="translate(14 0) rotate(27.9) translate(-5 5)" font-size="7.0pt">10K</text>
        </g>
        <polyline id="polyline148" transform="rotate(-2.9) translate(37 0)" stroke="#333" stroke-width="0.7" points="0,0 3,0"/>
        <g id="g154" transform="rotate(19.8) translate(34 0)">
          <polyline id="polyline150" transform="translate(3 0)" stroke="#333" stroke-width="1" points="0,0 5,0"/>
          <text id="text152" transform="translate(14 0) rotate(-19.8) translate(-5 2)" font-size="7.0pt">15K</text>
        </g>
        <polyline id="polyline156" transform="rotate(40.6) translate(37 0)" stroke="#333" stroke-width="0.7" points="0,0 3,0"/>
        <g id="g162" transform="rotate(60) translate(34 0)">
          <polyline id="polyline158" transform="translate(3 0)" stroke="#333" stroke-width="1" points="0,0 5,0"/>
          <text id="text160" transform="translate(14 0) rotate(-60) translate(-2.5 3)" font-size="7.0pt">20K</text>
        </g>
        <text id="text164" transform="rotate(90) translate(44.5 0) rotate(-90) translate(-6.5 0)" font-size="7.0pt">HZ</text>
      </g>
    </symbol>
    <symbol viewBox="0 0 50px 60px" id="dial-slope-vcf">
      <g id="g195" transform="translate(25 30)">
        <text id="text169" transform="rotate(-240) translate(24 0) rotate(240) translate(-2 3)" font-size="6.0pt">1</text>
        <polyline id="polyline171" transform="rotate(-176) translate(22 0)" stroke="#333" stroke-width="0.5" points="0,0 2,0"/>
        <text id="text173" transform="rotate(-149.6) translate(24 0) rotate(149.6) translate(-1.5 1)" font-size="6.0pt">2</text>
        <polyline id="polyline175" transform="rotate(-112.1) translate(22 0)" stroke="#333" stroke-width="0.5" points="0,0 3,0"/>
        <text id="text177" transform="rotate(-83.3) translate(24 0) rotate(83.3) translate(-2 2)" font-size="6.0pt">4</text>
        <polyline id="polyline179" transform="rotate(-59.1) translate(22 0)" stroke="#333" stroke-width="0.5" points="0,0 3,0"/>
        <polyline id="polyline181" transform="rotate(-37.7) translate(22 0)" stroke="#333" stroke-width="0.5" points="0,0 3,0"/>
        <polyline id="polyline183" transform="rotate(-18.4) translate(22 0)" stroke="#333" stroke-width="0.5" points="0,0 3,0"/>
        <text id="text185" transform="rotate(-0.7) translate(24 0) rotate(0.7) translate(-2 2)" font-size="6.0pt">8</text>
        <polyline id="polyline187" transform="rotate(15.8) translate(22 0)" stroke="#333" stroke-width="0.5" points="0,0 3,0"/>
        <polyline id="polyline189" transform="rotate(31.4) translate(22 0)" stroke="#333" stroke-width="0.5" points="0,0 3,0"/>
        <polyline id="polyline191" transform="rotate(46) translate(22 0)" stroke="#333" stroke-width="0.5" points="0,0 3,0"/>
        <text id="text193" transform="rotate(60) translate(24 0) rotate(-60) translate(-5 3)" font-size="6.0pt">12</text>
      </g>
    </symbol>
    <symbol viewBox="0 0 60px 60px" id="dial-mode-vcf">
      <g id="g214" transform="translate(30 30)">
        <polyline id="polyline198" transform="rotate(-67.5) translate(11 0)" stroke="#333" stroke-width="0.5" points="0,0 3,0"/>
        <text id="text200" transform="rotate(-67.5) translate(24 0) rotate(67.5) translate(-3 7)" font-size="6.0pt">LP</text>
        <polyline id="polyline202" transform="rotate(-22.5) translate(11 0)" stroke="#333" stroke-width="0.5" points="0,0 3,0"/>
        <text id="text204" transform="rotate(-22.5) translate(24 0) rotate(22.5) translate(-7 5)" font-size="6.0pt">HP</text>
        <polyline id="polyline206" transform="rotate(22.5) translate(11 0)" stroke="#333" stroke-width="0.5" points="0,0 3,0"/>
        <text id="text208" transform="rotate(22.5) translate(24 0) rotate(-22.5) translate(-7 0)" font-size="6.0pt">BP</text>
        <polyline id="polyline210" transform="rotate(67.5) translate(11 0)" stroke="#333" stroke-width="0.5" points="0,0 3,0"/>
        <text id="text212" transform="rotate(67.5) translate(24 0) rotate(-67.5) translate(-3 -1.5)" font-size="6.0pt">BR</text>
      </g>
    </symbol>
    <symbol viewBox="0 0 50px 50px" id="dial-linear-vcf">
      <g id="g239" transform="translate(25 25)">
        <text id="text217" transform="rotate(-240) translate(24 0) rotate(240) translate(-4 3)" font-size="6.0pt">0</text>
        <polyline id="polyline219" transform="rotate(-210) translate(22 0)" stroke="#333" stroke-width="0.5" points="0,0 3,0"/>
        <polyline id="polyline221" transform="rotate(-180) translate(22 0)" stroke="#333" stroke-width="0.5" points="0,0 3,0"/>
        <polyline id="polyline223" transform="rotate(-150) translate(22 0)" stroke="#333" stroke-width="0.5" points="0,0 3,0"/>
        <polyline id="polyline225" transform="rotate(-120) translate(22 0)" stroke="#333" stroke-width="0.5" points="0,0 3,0"/>
        <polyline id="polyline227" transform="rotate(-90) translate(22 0)" stroke="#333" stroke-width="0.5" points="0,0 3,0"/>
        <polyline id="polyline229" transform="rotate(-60) translate(22 0)" stroke="#333" stroke-width="0.5" points="0,0 3,0"/>
        <polyline id="polyline231" transform="rotate(-30) translate(22 0)" stroke="#333" stroke-width="0.5" points="0,0 3,0"/>
        <polyline id="polyline233" transform="rotate(0) translate(22 0)" stroke="#333" stroke-width="0.5" points="0,0 3,0"/>
        <polyline id="polyline235" transform="rotate(30) translate(22 0)" stroke="#333" stroke-width="0.5" points="0,0 3,0"/>
        <polyline id="polyline237" transform="rotate(60) translate(22 0)" stroke="#333" stroke-width="1" points="0,0 4,0"/>
      </g>
    </symbol>
  </defs>
  <path d="M 0,0 H 150 V 380 H 0 Z" style="fill:#dddddd" id="rect244"/>
  <path d="M 1,1 H 179 V 379 H 1 V 1" style="fill:none;stroke:#e4e4e4;stroke-width:0.5" id="polyline246"/>
  <path d="m 0.5,0.5 h 179 v 379 H 0.5 V 0.5" style="fill:none;stroke:#ebebeb;stroke-width:0.8" id="polyline248"/>
  <path d="M 0,0 H 180 V 380 H 0 V 0" style="fill:none;stroke:#f2f2f2;stroke-width:1" id="polyline250"/>
  <g class="title" style="font-weight:normal;font-size:16px;font-family:Comfortaa, sans-serif;letter-spacing:4px;fill:#333333" id="text252" aria-label="VCF">
    <path id="path749" style="font-weight:normal;font-size:16px;font-family:Comfortaa, sans-serif;letter-spacing:4px;fill:#333333" d="m 65.092,6.504 q 0.256,0 0.4,0.16 0.16,0.16 0.16,0.4 0,0.16 -0.08,0.352 L 60.804,18.6 Q 60.628,19 60.244,19 60.036,19 59.892,18.92 59.764,18.824 59.668,18.6 L 54.916,7.48 Q 54.82,7.24 54.82,7.064 q 0,-0.256 0.16,-0.4 0.176,-0.16 0.448,-0.16 0.416,0 0.576,0.4 l 4.24,10.144 4.224,-10.112 q 0.096,-0.24 0.24,-0.336 0.144,-0.096 0.384,-0.096 z"/>
    <path id="path751" style="font-weight:normal;font-size:16px;font-family:Comfortaa, sans-serif;letter-spacing:4px;fill:#333333" d="m 76.37225,19.16 q -1.696,0 -3.12,-0.864 -1.424,-0.864 -2.272,-2.336 -0.832,-1.472 -0.832,-3.216 0,-1.728 0.832,-3.2 0.832,-1.472 2.256,-2.336 1.424,-0.864 3.136,-0.864 1.152,0 2.096,0.336 0.944,0.336 1.824,1.072 0.176,0.128 0.176,0.368 0,0.128 -0.064,0.24 -0.064,0.096 -0.176,0.144 -0.032,0.112 -0.144,0.176 -0.112,0.064 -0.24,0.064 -0.24,0 -0.4,-0.144 -0.624,-0.56 -1.36,-0.816 -0.736,-0.256 -1.712,-0.256 -1.344,0 -2.496,0.72 -1.152,0.704 -1.84,1.904 -0.672,1.2 -0.672,2.592 0,1.424 0.672,2.624 0.672,1.2 1.824,1.904 1.152,0.704 2.512,0.704 1.744,0 3.152,-1.12 0.176,-0.128 0.352,-0.128 0.24,0 0.416,0.176 0.176,0.16 0.176,0.432 0,0.256 -0.176,0.448 -1.504,1.376 -3.92,1.376 z"/>
    <path id="path753" style="font-weight:normal;font-size:16px;font-family:Comfortaa, sans-serif;letter-spacing:4px;fill:#333333" d="m 86.732,19 q -0.256,0 -0.448,-0.176 -0.176,-0.192 -0.176,-0.448 V 7.128 q 0,-0.272 0.176,-0.448 0.192,-0.176 0.448,-0.176 h 7.504 q 0.272,0 0.448,0.176 0.176,0.176 0.176,0.432 0,0.256 -0.176,0.432 -0.176,0.16 -0.448,0.16 h -6.88 v 4.416 h 5.008 q 0.272,0 0.448,0.176 0.176,0.16 0.176,0.432 0,0.256 -0.176,0.432 -0.176,0.176 -0.448,0.176 h -5.008 v 5.04 q 0,0.256 -0.176,0.448 Q 87.004,19 86.732,19 Z"/>
  </g>
  <g class="brand" style="font-weight:bold;font-size:10.6667px;font-family:Audiowide, sans-serif;letter-spacing:2px;fill:#333333" id="text254" aria-label="BOGAUDIO">
    <path id="path732" style="font-weight:bold;font-size:10.6667px;font-family:Audiowide, sans-serif;letter-spacing:2px;fill:#333333" d="m 43.739609,372.35937 q 0,0.25 -0.08854,0.53646 -0.08333,0.28646 -0.28125,0.53125 -0.192709,0.24479 -0.50521,0.41146 Q 42.552106,374 42.098979,374 h -5.140641 q -0.145834,0 -0.270834,-0.0521 -0.125001,-0.0521 -0.218751,-0.14063 -0.08854,-0.0937 -0.140625,-0.21875 -0.05208,-0.125 -0.05208,-0.27083 v -6.10419 q 0,-0.14063 0.05208,-0.26563 0.05208,-0.125 0.140625,-0.21875 0.09375,-0.0937 0.218751,-0.14583 0.125,-0.0521 0.270834,-0.0521 h 4.531264 q 0.250001,0 0.53646,0.0885 0.28646,0.0885 0.531252,0.28646 0.250001,0.19271 0.41146,0.50521 0.166667,0.3125 0.166667,0.76562 v 0.25521 q 0,0.35938 -0.119792,0.77605 -0.119792,0.41146 -0.385418,0.78125 0.229167,0.14063 0.427085,0.33854 0.203125,0.19792 0.354167,0.45834 0.151042,0.26042 0.239584,0.58854 0.08854,0.32813 0.08854,0.72396 z m -1.354171,-0.26042 q 0,-0.26562 -0.08333,-0.47396 -0.08333,-0.21354 -0.234376,-0.36458 -0.151042,-0.15104 -0.364584,-0.22917 -0.213543,-0.0833 -0.479169,-0.0833 h -3.052093 v -1.36459 h 2.442716 q 0.265626,0 0.479169,-0.0781 0.213542,-0.0833 0.364584,-0.23437 0.151042,-0.15104 0.229168,-0.35938 0.08333,-0.21354 0.08333,-0.47917 v -0.25521 q 0,-0.29166 -0.281251,-0.29166 h -3.859387 v 4.76043 h 4.468764 q 0.03646,0 0.08854,-0.005 0.05208,-0.005 0.09375,-0.0312 0.04167,-0.026 0.07292,-0.0885 0.03125,-0.0625 0.03125,-0.17188 z"/>
    <path id="path734" style="font-weight:bold;font-size:10.6667px;font-family:Audiowide, sans-serif;letter-spacing:2px;fill:#333333" d="m 54.750055,370.97916 q 0,0.68229 -0.234376,1.25521 -0.234376,0.57292 -0.651044,0.98959 -0.416668,0.41666 -0.989586,0.65104 -0.56771,0.22917 -1.239587,0.22917 h -1.833339 q -0.671878,0 -1.244796,-0.22917 -0.572918,-0.23438 -0.989586,-0.65104 -0.416668,-0.41667 -0.656253,-0.98959 -0.234375,-0.57292 -0.234375,-1.25521 v -1.42709 q 0,-0.67709 0.234375,-1.25 0.239585,-0.57813 0.656253,-0.98959 0.416668,-0.41667 0.989586,-0.65104 0.572918,-0.23438 1.244796,-0.23438 h 1.833339 q 0.671877,0 1.239587,0.23438 0.572918,0.23437 0.989586,0.65104 0.416668,0.41146 0.651044,0.98959 0.234376,0.57291 0.234376,1.25 z m -1.354171,-1.42709 q 0,-0.40104 -0.130209,-0.72396 -0.125,-0.32813 -0.359376,-0.55729 -0.229167,-0.23438 -0.557293,-0.35938 -0.322918,-0.13021 -0.713544,-0.13021 h -1.833339 q -0.395835,0 -0.723961,0.13021 -0.322918,0.125 -0.557293,0.35938 -0.234376,0.22916 -0.364585,0.55729 -0.125,0.32292 -0.125,0.72396 v 1.42709 q 0,0.40104 0.125,0.72917 0.130209,0.32291 0.364585,0.55729 0.234375,0.22917 0.557293,0.35938 0.328126,0.125 0.723961,0.125 h 1.822922 q 0.395835,0 0.718752,-0.125 0.328126,-0.13021 0.562502,-0.35938 0.234376,-0.23438 0.359376,-0.55729 0.130209,-0.32813 0.130209,-0.72917 z"/>
    <path id="path736" style="font-weight:bold;font-size:10.6667px;font-family:Audiowide, sans-serif;letter-spacing:2px;fill:#333333" d="m 65.468833,373.31771 q 0,0.14583 -0.05208,0.27083 -0.05208,0.125 -0.145833,0.21875 -0.08854,0.0885 -0.213543,0.14063 Q 64.932373,374 64.786539,374 h -4.885432 q -0.187501,0 -0.406251,-0.0417 -0.213543,-0.0469 -0.427085,-0.14062 -0.208334,-0.0937 -0.401043,-0.23959 -0.192709,-0.15104 -0.343751,-0.35937 -0.145834,-0.21354 -0.234376,-0.48959 -0.08854,-0.28125 -0.08854,-0.63021 v -3.66668 q 0,-0.1875 0.04167,-0.40104 0.04687,-0.21875 0.140626,-0.42708 0.09375,-0.21355 0.244792,-0.40625 0.151042,-0.19271 0.359376,-0.33855 0.213543,-0.15104 0.489585,-0.23958 0.276043,-0.0885 0.625002,-0.0885 h 5.505226 v 1.35417 h -5.505226 q -0.265626,0 -0.406251,0.14062 -0.140626,0.14063 -0.140626,0.41667 v 3.65626 q 0,0.26042 0.140626,0.40625 0.145834,0.14063 0.406251,0.14063 h 4.213555 v -1.69792 h -3.604178 v -1.36459 h 4.276055 q 0.145834,0 0.270834,0.0573 0.125001,0.0521 0.213543,0.14584 0.09375,0.0937 0.145833,0.21875 0.05208,0.11979 0.05208,0.26041 z"/>
    <path id="path738" style="font-weight:bold;font-size:10.6667px;font-family:Audiowide, sans-serif;letter-spacing:2px;fill:#333333" d="M 76.218861,374 H 74.86469 v -1.83334 H 70.104258 V 374 h -1.354171 v -3.73439 q 0,-0.81771 0.281251,-1.50521 0.281251,-0.6875 0.781253,-1.1823 0.500001,-0.49479 1.182295,-0.77083 0.682294,-0.27604 1.489588,-0.27604 h 3.052093 q 0.140625,0 0.265626,0.0521 0.125,0.0521 0.218751,0.14583 0.09375,0.0937 0.145833,0.21875 0.05208,0.125 0.05208,0.26563 z m -6.114603,-3.18751 h 4.760432 v -2.92709 h -2.380216 q -0.0625,0 -0.265626,0.0208 -0.197917,0.0156 -0.463543,0.0885 -0.260417,0.0729 -0.552085,0.22396 -0.291668,0.15104 -0.53646,0.41667 -0.244792,0.26563 -0.406251,0.66667 -0.156251,0.39583 -0.156251,0.96354 z"/>
    <path id="path740" style="font-weight:bold;font-size:10.6667px;font-family:Audiowide, sans-serif;letter-spacing:2px;fill:#333333" d="m 87.104307,373.31771 q 0,0.14583 -0.05208,0.27083 -0.05208,0.125 -0.145834,0.21875 -0.09375,0.0885 -0.21875,0.14063 Q 86.562638,374 86.422013,374 H 83.36992 q -0.432293,0 -0.875003,-0.0937 -0.44271,-0.0937 -0.859378,-0.28646 -0.411459,-0.19792 -0.776044,-0.5 -0.364584,-0.30209 -0.640627,-0.71355 -0.270834,-0.41666 -0.427084,-0.94791 -0.156251,-0.53646 -0.156251,-1.19272 v -3.73438 h 1.354171 v 3.73438 q 0,0.57292 0.156251,0.96876 0.161458,0.39583 0.406251,0.66146 0.244792,0.26562 0.53646,0.41666 0.291667,0.15105 0.552085,0.22396 0.265626,0.0729 0.463543,0.0937 0.203126,0.0156 0.265626,0.0156 h 2.380216 v -6.1146 h 1.354171 z"/>
    <path id="path742" style="font-weight:bold;font-size:10.6667px;font-family:Audiowide, sans-serif;letter-spacing:2px;fill:#333333" d="m 98.135583,370.87499 q 0,0.68229 -0.239585,1.25521 -0.234375,0.57292 -0.651043,0.98959 -0.416668,0.41146 -0.989587,0.64583 Q 95.68245,374 95.010573,374 h -3.656262 q -0.145834,0 -0.270834,-0.0521 -0.125,-0.0521 -0.218751,-0.14063 -0.08854,-0.0937 -0.140625,-0.21875 -0.05208,-0.125 -0.05208,-0.27083 v -6.10419 q 0,-0.14063 0.05208,-0.26563 0.05208,-0.125 0.140625,-0.21875 0.09375,-0.0937 0.218751,-0.14583 0.125,-0.0521 0.270834,-0.0521 h 3.656262 q 0.671877,0 1.244795,0.23437 0.572919,0.23438 0.989587,0.65105 0.416668,0.41146 0.651043,0.98958 0.239585,0.57292 0.239585,1.25001 z m -1.354171,-1.21875 q 0,-0.39584 -0.130209,-0.72396 -0.125001,-0.32813 -0.359376,-0.5573 -0.234376,-0.23437 -0.562502,-0.35937 -0.322918,-0.13021 -0.718752,-0.13021 h -2.984385 v 4.76043 h 2.984385 q 0.395834,0 0.718752,-0.125 0.328126,-0.13021 0.562502,-0.35938 0.234375,-0.23437 0.359376,-0.55729 0.130209,-0.32813 0.130209,-0.72917 z"/>
    <path id="path744" style="font-weight:bold;font-size:10.6667px;font-family:Audiowide, sans-serif;letter-spacing:2px;fill:#333333" d="m 102.83872,374 h -1.35417 v -7.46877 h 1.35417 z"/>
    <path id="path746" style="font-weight:bold;font-size:10.6667px;font-family:Audiowide, sans-serif;letter-spacing:2px;fill:#333333" d="m 114.27104,370.97916 q 0,0.68229 -0.23438,1.25521 -0.23437,0.57292 -0.65104,0.98959 -0.41667,0.41666 -0.98959,0.65104 -0.56771,0.22917 -1.23958,0.22917 h -1.83334 q -0.67188,0 -1.2448,-0.22917 -0.57292,-0.23438 -0.98959,-0.65104 -0.41666,-0.41667 -0.65625,-0.98959 -0.23437,-0.57292 -0.23437,-1.25521 v -1.42709 q 0,-0.67709 0.23437,-1.25 0.23959,-0.57813 0.65625,-0.98959 0.41667,-0.41667 0.98959,-0.65104 0.57292,-0.23438 1.2448,-0.23438 h 1.83334 q 0.67187,0 1.23958,0.23438 0.57292,0.23437 0.98959,0.65104 0.41667,0.41146 0.65104,0.98959 0.23438,0.57291 0.23438,1.25 z m -1.35417,-1.42709 q 0,-0.40104 -0.13021,-0.72396 -0.125,-0.32813 -0.35938,-0.55729 -0.22916,-0.23438 -0.55729,-0.35938 -0.32292,-0.13021 -0.71354,-0.13021 h -1.83334 q -0.39584,0 -0.72396,0.13021 -0.32292,0.125 -0.5573,0.35938 -0.23437,0.22916 -0.36458,0.55729 -0.125,0.32292 -0.125,0.72396 v 1.42709 q 0,0.40104 0.125,0.72917 0.13021,0.32291 0.36458,0.55729 0.23438,0.22917 0.5573,0.35938 0.32812,0.125 0.72396,0.125 h 1.82292 q 0.39583,0 0.71875,-0.125 0.32813,-0.13021 0.5625,-0.35938 0.23438,-0.23438 0.35938,-0.55729 0.13021,-0.32813 0.13021,-0.72917 z"/>
  </g>
  <path d="m 59.5,369 h 3 v 3 h -3 z" style="fill:#dddddd" id="rect256"/>
  <!-- <polyline points="0,0 0,380" stroke="#0f0" stroke-width="1" fill="none" transform="translate(75 0)" /> -->
  <!-- <polyline points="0,0 0,380" stroke="#0f0" stroke-width="1" fill="none" transform="translate(7 0)" /> -->
  <!-- <polyline points="0,0 0,380" stroke="#0f0" stroke-width="1" fill="none" transform="translate(143 0)" /> -->
  <g transform="translate(0,25)" id="use260">
    <g transform="translate(75,54)" id="g458">
      <g transform="rotate(120,-17,9.8149546)" id="g382">
        <path d="M 0,0 H 5" style="stroke:#333333;stroke-width:1" transform="translate(3)" id="polyline378"/>
        <g style="font-weight:bold;font-size:9.33333px;font-family:Roboto, sans-serif;fill:#333333" id="text380" transform="rotate(-120,8.8660254,-4.9641016)" aria-label="0">
          <path id="path761" style="font-weight:bold;font-size:9.33333px;font-family:Roboto, sans-serif;fill:#333333" d="m 4.917316,-2.7434886 q 0,1.3763016 -0.5696612,2.10546798 -0.5696613,0.72916642 -1.6679682,0.72916642 -1.0846351,0 -1.6588536,-0.71549455 Q 0.44661443,-1.3398433 0.43294256,-2.6751293 V -3.896483 q 0,-1.3899735 0.57421854,-2.1100254 0.5787759,-0.7200518 1.6634109,-0.7200518 1.0846351,0 1.6588536,0.7154945 0.5742186,0.7109373 0.5878904,2.0462233 z M 3.6002592,-4.0833319 q 0,-0.8248696 -0.2278645,-1.1985673 -0.2233072,-0.3782551 -0.7018227,-0.3782551 -0.4648436,0 -0.6881508,0.3600259 -0.2187499,0.3554686 -0.2324218,1.1165361 v 1.6132807 q 0,0.8111976 0.2187499,1.2076819 0.2233072,0.39192691 0.7109373,0.39192691 0.4830727,0 0.6972654,-0.37825511 0.2141926,-0.3782551 0.2233072,-1.1575517 z"/>
        </g>
      </g>
      <path d="M 0,0 H 3" style="stroke:#333333;stroke-width:0.7" transform="rotate(135,-18.5,7.6629509)" id="polyline384"/>
      <g transform="rotate(141.2,-17,5.986645)" id="g390">
        <path d="M 0,0 H 5" style="stroke:#333333;stroke-width:1" transform="translate(3)" id="polyline386"/>
        <g style="font-weight:bold;font-size:9.33333px;font-family:Roboto, sans-serif;fill:#333333" id="text388" transform="rotate(-141.2,13.866272,-2.0141167)" aria-label="100">
          <path id="path766" style="font-weight:bold;font-size:9.33333px;font-family:Roboto, sans-serif;fill:#333333" d="M 3.6503894,0 H 2.3333325 V -5.0768212 L 0.76106745,-4.5891911 V -5.6601543 L 3.5091134,-6.644529 h 0.141276 z"/>
          <path id="path768" style="font-weight:bold;font-size:9.33333px;font-family:Roboto, sans-serif;fill:#333333" d="m 10.276689,-2.7434886 q 0,1.3763016 -0.5696611,2.10546798 -0.5696613,0.72916642 -1.6679682,0.72916642 -1.0846351,0 -1.6588536,-0.71549455 Q 5.8059875,-1.3398433 5.7923157,-2.6751293 V -3.896483 q 0,-1.3899735 0.5742185,-2.1100254 0.5787759,-0.7200518 1.6634109,-0.7200518 1.084635,0 1.6588536,0.7154945 0.5742183,0.7109373 0.5878903,2.0462233 z M 8.9596323,-4.0833319 q 0,-0.8248696 -0.2278645,-1.1985673 -0.2233072,-0.3782551 -0.7018227,-0.3782551 -0.4648436,0 -0.6881508,0.3600259 -0.2187499,0.3554686 -0.2324218,1.1165361 v 1.6132807 q 0,0.8111976 0.2187499,1.2076819 0.2233072,0.39192691 0.7109373,0.39192691 0.4830727,0 0.6972654,-0.37825511 0.2141926,-0.3782551 0.2233072,-1.1575517 z"/>
          <path id="path770" style="font-weight:bold;font-size:9.33333px;font-family:Roboto, sans-serif;fill:#333333" d="m 15.636062,-2.7434886 q 0,1.3763016 -0.569661,2.10546798 -0.569661,0.72916642 -1.667968,0.72916642 -1.084635,0 -1.658854,-0.71549455 -0.574218,-0.71549455 -0.58789,-2.05078055 V -3.896483 q 0,-1.3899735 0.574218,-2.1100254 0.578776,-0.7200518 1.663411,-0.7200518 1.084635,0 1.658854,0.7154945 0.574218,0.7109373 0.58789,2.0462233 z m -1.317057,-1.3398433 q 0,-0.8248696 -0.227864,-1.1985673 -0.223307,-0.3782551 -0.701823,-0.3782551 -0.464843,0 -0.688151,0.3600259 -0.21875,0.3554686 -0.232421,1.1165361 v 1.6132807 q 0,0.8111976 0.21875,1.2076819 0.223307,0.39192691 0.710937,0.39192691 0.483073,0 0.697265,-0.37825511 0.214193,-0.3782551 0.223307,-1.1575517 z"/>
        </g>
      </g>
      <path d="M 0,0 H 3" style="stroke:#333333;stroke-width:0.7" transform="rotate(153.5,-18.5,4.3561718)" id="polyline392"/>
      <g transform="rotate(167.4,-17,1.8768175)" id="g398">
        <path d="M 0,0 H 5" style="stroke:#333333;stroke-width:1" transform="translate(3)" id="polyline394"/>
        <g style="font-weight:bold;font-size:9.33333px;font-family:Roboto, sans-serif;fill:#333333" id="text396" transform="rotate(-167.4,12.915602,-1.6380013)" aria-label="500">
          <path id="path775" style="font-weight:bold;font-size:9.33333px;font-family:Roboto, sans-serif;fill:#333333" d="m 0.6471352,-3.2630197 0.3828124,-3.3723947 h 3.7187487 v 1.0983069 h -2.638671 l -0.1640624,1.4264318 q 0.4694009,-0.2506509 0.9980465,-0.2506509 0.9479164,0 1.4856766,0.5878904 0.5377602,0.5878904 0.5377602,1.6451817 0,0.6425779 -0.2734374,1.15299442 -0.2688801,0.5058592 -0.7747393,0.78841119 -0.5058592,0.27799469 -1.19401,0.27799469 -0.6015623,0 -1.1165361,-0.24153637 Q 1.0937496,-0.39648424 0.79296848,-0.83854138 0.49674462,-1.2805985 0.47851546,-1.8457025 H 1.7819004 q 0.041016,0.4147134 0.2871093,0.6471352 0.250651,0.22786451 0.6516925,0.22786451 0.4466144,0 0.6881508,-0.31901031 0.2415364,-0.3235676 0.2415364,-0.911458 0,-0.565104 -0.2779947,-0.8658851 Q 3.0944,-3.3678374 2.5839835,-3.3678374 q -0.4694009,0 -0.7610675,0.2460937 l -0.1276041,0.1184895 z"/>
          <path id="path777" style="font-weight:bold;font-size:9.33333px;font-family:Roboto, sans-serif;fill:#333333" d="m 10.276689,-2.7434886 q 0,1.3763016 -0.5696611,2.10546798 -0.5696613,0.72916642 -1.6679682,0.72916642 -1.0846351,0 -1.6588536,-0.71549455 Q 5.8059875,-1.3398433 5.7923157,-2.6751293 V -3.896483 q 0,-1.3899735 0.5742185,-2.1100254 0.5787759,-0.7200518 1.6634109,-0.7200518 1.084635,0 1.6588536,0.7154945 0.5742183,0.7109373 0.5878903,2.0462233 z M 8.9596323,-4.0833319 q 0,-0.8248696 -0.2278645,-1.1985673 -0.2233072,-0.3782551 -0.7018227,-0.3782551 -0.4648436,0 -0.6881508,0.3600259 -0.2187499,0.3554686 -0.2324218,1.1165361 v 1.6132807 q 0,0.8111976 0.2187499,1.2076819 0.2233072,0.39192691 0.7109373,0.39192691 0.4830727,0 0.6972654,-0.37825511 0.2141926,-0.3782551 0.2233072,-1.1575517 z"/>
          <path id="path779" style="font-weight:bold;font-size:9.33333px;font-family:Roboto, sans-serif;fill:#333333" d="m 15.636062,-2.7434886 q 0,1.3763016 -0.569661,2.10546798 -0.569661,0.72916642 -1.667968,0.72916642 -1.084635,0 -1.658854,-0.71549455 -0.574218,-0.71549455 -0.58789,-2.05078055 V -3.896483 q 0,-1.3899735 0.574218,-2.1100254 0.578776,-0.7200518 1.663411,-0.7200518 1.084635,0 1.658854,0.7154945 0.574218,0.7109373 0.58789,2.0462233 z m -1.317057,-1.3398433 q 0,-0.8248696 -0.227864,-1.1985673 -0.223307,-0.3782551 -0.701823,-0.3782551 -0.464843,0 -0.688151,0.3600259 -0.21875,0.3554686 -0.232421,1.1165361 v 1.6132807 q 0,0.8111976 0.21875,1.2076819 0.223307,0.39192691 0.710937,0.39192691 0.483073,0 0.697265,-0.37825511 0.214193,-0.3782551 0.223307,-1.1575517 z"/>
        </g>
      </g>
      <path d="M 0,0 H 3" style="stroke:#333333;stroke-width:0.7" transform="rotate(178.1,-18.5,0.30676973)" id="polyline400"/>
      <g transform="rotate(-172.2,-17,-1.1589437)" id="g406">
        <path d="M 0,0 H 5" style="stroke:#333333;stroke-width:1" transform="translate(3)" id="polyline402"/>
        <g style="font-weight:bold;font-size:9.33333px;font-family:Roboto, sans-serif;fill:#333333" id="text404" transform="rotate(172.2,10.64774,-1.2784372)" aria-label="1K">
          <path id="path784" style="font-weight:bold;font-size:9.33333px;font-family:Roboto, sans-serif;fill:#333333" d="M 3.6503894,0 H 2.3333325 V -5.0768212 L 0.76106745,-4.5891911 V -5.6601543 L 3.5091134,-6.644529 h 0.141276 z"/>
          <path id="path786" style="font-weight:bold;font-size:9.33333px;font-family:Roboto, sans-serif;fill:#333333" d="M 8.0299451,-2.6614574 7.3190078,-1.8958327 V 0 h -1.367187 v -6.6354144 h 1.367187 v 3.0078115 l 0.6015623,-0.8248695 1.6907547,-2.182942 H 11.292965 L 8.9368458,-3.6868477 11.361324,0 H 9.7343716 Z"/>
        </g>
      </g>
      <path d="M 0,0 H 3" style="stroke:#333333;stroke-width:0.7" transform="rotate(-151.3,-18.5,-4.7327879)" id="polyline408"/>
      <g transform="rotate(-133.9,-17,-7.2335867)" id="g414">
        <path d="M 0,0 H 5" style="stroke:#333333;stroke-width:1" transform="translate(3)" id="polyline410"/>
        <g style="font-weight:bold;font-size:9.33333px;font-family:Roboto, sans-serif;fill:#333333" id="text412" transform="rotate(133.9,14.361742,-1.9255051)" aria-label="2.5K">
          <path id="path791" style="font-weight:bold;font-size:9.33333px;font-family:Roboto, sans-serif;fill:#333333" d="M 4.9993473,0 H 0.45117172 V -0.90234344 L 2.5976554,-3.1901031 q 0.4420571,-0.4830727 0.6516925,-0.8430987 0.2141926,-0.3600259 0.2141926,-0.6835935 0,-0.4420571 -0.2233072,-0.6927081 -0.2233072,-0.2552082 -0.6380206,-0.2552082 -0.4466145,0 -0.70638,0.3098957 -0.2552083,0.3053385 -0.2552083,0.8066404 H 0.31901031 q 0,-0.6061196 0.28710928,-1.1074215 0.29166656,-0.5013019 0.82031221,-0.7838539 0.5286457,-0.2871093 1.1985673,-0.2871093 1.0253903,0 1.5904943,0.4921873 0.5696612,0.4921874 0.5696612,1.3899735 0,0.4921873 -0.2552082,1.0026038 -0.2552083,0.5104165 -0.8749997,1.1894528 l -1.5084631,1.5904942 h 2.8528637 z"/>
          <path id="path793" style="font-weight:bold;font-size:9.33333px;font-family:Roboto, sans-serif;fill:#333333" d="m 5.9335916,-0.6471352 q 0,-0.31445301 0.2096354,-0.5104165 0.2141926,-0.1959635 0.5332029,-0.1959635 0.3235676,0 0.533203,0.1959635 0.2141926,0.19596349 0.2141926,0.5104165 0,0.30989573 -0.2096353,0.50585921 -0.2096354,0.19140618 -0.5377603,0.19140618 -0.3235676,0 -0.5332029,-0.19140618 Q 5.9335916,-0.33723947 5.9335916,-0.6471352 Z"/>
          <path id="path795" style="font-weight:bold;font-size:9.33333px;font-family:Roboto, sans-serif;fill:#333333" d="m 8.7226529,-3.2630197 0.3828123,-3.3723947 h 3.7187488 v 1.0983069 h -2.638671 l -0.164062,1.4264318 q 0.4694,-0.2506509 0.998046,-0.2506509 0.947916,0 1.485677,0.5878904 0.53776,0.5878904 0.53776,1.6451817 0,0.6425779 -0.273438,1.15299442 -0.26888,0.5058592 -0.774739,0.78841119 -0.505859,0.27799469 -1.19401,0.27799469 -0.601562,0 -1.1165359,-0.24153637 Q 9.1692673,-0.39648424 8.8684861,-0.83854138 8.5722623,-1.2805985 8.5540331,-1.8457025 h 1.303385 q 0.041016,0.4147134 0.2871089,0.6471352 0.250651,0.22786451 0.651693,0.22786451 0.446614,0 0.688151,-0.31901031 0.241536,-0.3235676 0.241536,-0.911458 0,-0.565104 -0.277995,-0.8658851 -0.277994,-0.3007812 -0.788411,-0.3007812 -0.469401,0 -0.7610673,0.2460937 l -0.1276041,0.1184895 z"/>
          <path id="path797" style="font-weight:bold;font-size:9.33333px;font-family:Roboto, sans-serif;fill:#333333" d="m 16.105463,-2.6614574 -0.710938,0.7656247 V 0 h -1.367187 v -6.6354144 h 1.367187 v 3.0078115 l 0.601563,-0.8248695 1.690754,-2.182942 h 1.68164 L 17.012363,-3.6868477 19.436842,0 h -1.626953 z"/>
        </g>
      </g>
      <path d="M 0,0 H 3" style="stroke:#333333;stroke-width:0.7" transform="rotate(-110.1,-18.5,-12.929794)" id="polyline416"/>
      <g transform="rotate(-90,-17,-17)" id="g422">
        <path d="M 0,0 H 5" style="stroke:#333333;stroke-width:1" transform="translate(3)" id="polyline418"/>
        <g style="font-weight:bold;font-size:9.33333px;font-family:Roboto, sans-serif;fill:#333333" id="text420" transform="rotate(90,8,2)" aria-label="5K">
          <path id="path802" style="font-weight:bold;font-size:9.33333px;font-family:Roboto, sans-serif;fill:#333333" d="m 0.6471352,-3.2630197 0.3828124,-3.3723947 h 3.7187487 v 1.0983069 h -2.638671 l -0.1640624,1.4264318 q 0.4694009,-0.2506509 0.9980465,-0.2506509 0.9479164,0 1.4856766,0.5878904 0.5377602,0.5878904 0.5377602,1.6451817 0,0.6425779 -0.2734374,1.15299442 -0.2688801,0.5058592 -0.7747393,0.78841119 -0.5058592,0.27799469 -1.19401,0.27799469 -0.6015623,0 -1.1165361,-0.24153637 Q 1.0937496,-0.39648424 0.79296848,-0.83854138 0.49674462,-1.2805985 0.47851546,-1.8457025 H 1.7819004 q 0.041016,0.4147134 0.2871093,0.6471352 0.250651,0.22786451 0.6516925,0.22786451 0.4466144,0 0.6881508,-0.31901031 0.2415364,-0.3235676 0.2415364,-0.911458 0,-0.565104 -0.2779947,-0.8658851 Q 3.0944,-3.3678374 2.5839835,-3.3678374 q -0.4694009,0 -0.7610675,0.2460937 l -0.1276041,0.1184895 z"/>
          <path id="path804" style="font-weight:bold;font-size:9.33333px;font-family:Roboto, sans-serif;fill:#333333" d="M 8.0299451,-2.6614574 7.3190078,-1.8958327 V 0 h -1.367187 v -6.6354144 h 1.367187 v 3.0078115 l 0.6015623,-0.8248695 1.6907547,-2.182942 H 11.292965 L 8.9368458,-3.6868477 11.361324,0 H 9.7343716 Z"/>
        </g>
      </g>
      <path d="M 0,0 H 3" style="stroke:#333333;stroke-width:0.7" transform="rotate(-41.6,-18.5,-48.701594)" id="polyline424"/>
      <g transform="rotate(-56.3,-17,-31.77141)" id="g430">
        <path d="M 0,0 H 5" style="stroke:#333333;stroke-width:1" transform="translate(3)" id="polyline426"/>
        <g style="font-weight:bold;font-size:9.33333px;font-family:Roboto, sans-serif;fill:#333333" id="text428" transform="rotate(56.3,5.9466403,8.3117589)" aria-label="7.5K">
          <path id="path809" style="font-weight:bold;font-size:9.33333px;font-family:Roboto, sans-serif;fill:#333333" d="M 4.9628889,-5.8971334 2.3971346,0 H 1.0071611 l 2.5703116,-5.5690085 h -3.299478 v -1.0664059 h 4.6848942 z"/>
          <path id="path811" style="font-weight:bold;font-size:9.33333px;font-family:Roboto, sans-serif;fill:#333333" d="m 5.9335916,-0.6471352 q 0,-0.31445301 0.2096354,-0.5104165 0.2141926,-0.1959635 0.5332029,-0.1959635 0.3235676,0 0.533203,0.1959635 0.2141926,0.19596349 0.2141926,0.5104165 0,0.30989573 -0.2096353,0.50585921 -0.2096354,0.19140618 -0.5377603,0.19140618 -0.3235676,0 -0.5332029,-0.19140618 Q 5.9335916,-0.33723947 5.9335916,-0.6471352 Z"/>
          <path id="path813" style="font-weight:bold;font-size:9.33333px;font-family:Roboto, sans-serif;fill:#333333" d="m 8.7226529,-3.2630197 0.3828123,-3.3723947 h 3.7187488 v 1.0983069 h -2.638671 l -0.164062,1.4264318 q 0.4694,-0.2506509 0.998046,-0.2506509 0.947916,0 1.485677,0.5878904 0.53776,0.5878904 0.53776,1.6451817 0,0.6425779 -0.273438,1.15299442 -0.26888,0.5058592 -0.774739,0.78841119 -0.505859,0.27799469 -1.19401,0.27799469 -0.601562,0 -1.1165359,-0.24153637 Q 9.1692673,-0.39648424 8.8684861,-0.83854138 8.5722623,-1.2805985 8.5540331,-1.8457025 h 1.303385 q 0.041016,0.4147134 0.2871089,0.6471352 0.250651,0.22786451 0.651693,0.22786451 0.446614,0 0.688151,-0.31901031 0.241536,-0.3235676 0.241536,-0.911458 0,-0.565104 -0.277995,-0.8658851 -0.277994,-0.3007812 -0.788411,-0.3007812 -0.469401,0 -0.7610673,0.2460937 l -0.1276041,0.1184895 z"/>
          <path id="path815" style="font-weight:bold;font-size:9.33333px;font-family:Roboto, sans-serif;fill:#333333" d="m 16.105463,-2.6614574 -0.710938,0.7656247 V 0 h -1.367187 v -6.6354144 h 1.367187 v 3.0078115 l 0.601563,-0.8248695 1.690754,-2.182942 h 1.68164 L 17.012363,-3.6868477 19.436842,0 h -1.626953 z"/>
        </g>
      </g>
      <path d="M 0,0 H 3" style="stroke:#333333;stroke-width:0.7" transform="rotate(-72.3,-18.5,-25.323383)" id="polyline432"/>
      <g transform="rotate(-27.9,-17,-68.437648)" id="g438">
        <path d="M 0,0 H 5" style="stroke:#333333;stroke-width:1" transform="translate(3)" id="polyline434"/>
        <g style="font-weight:bold;font-size:9.33333px;font-family:Roboto, sans-serif;fill:#333333" id="text436" transform="rotate(27.9,-0.56435994,15.615848)" aria-label="10K">
          <path id="path820" style="font-weight:bold;font-size:9.33333px;font-family:Roboto, sans-serif;fill:#333333" d="M 3.6503894,0 H 2.3333325 V -5.0768212 L 0.76106745,-4.5891911 V -5.6601543 L 3.5091134,-6.644529 h 0.141276 z"/>
          <path id="path822" style="font-weight:bold;font-size:9.33333px;font-family:Roboto, sans-serif;fill:#333333" d="m 10.276689,-2.7434886 q 0,1.3763016 -0.5696611,2.10546798 -0.5696613,0.72916642 -1.6679682,0.72916642 -1.0846351,0 -1.6588536,-0.71549455 Q 5.8059875,-1.3398433 5.7923157,-2.6751293 V -3.896483 q 0,-1.3899735 0.5742185,-2.1100254 0.5787759,-0.7200518 1.6634109,-0.7200518 1.084635,0 1.6588536,0.7154945 0.5742183,0.7109373 0.5878903,2.0462233 z M 8.9596323,-4.0833319 q 0,-0.8248696 -0.2278645,-1.1985673 -0.2233072,-0.3782551 -0.7018227,-0.3782551 -0.4648436,0 -0.6881508,0.3600259 -0.2187499,0.3554686 -0.2324218,1.1165361 v 1.6132807 q 0,0.8111976 0.2187499,1.2076819 0.2233072,0.39192691 0.7109373,0.39192691 0.4830727,0 0.6972654,-0.37825511 0.2141926,-0.3782551 0.2233072,-1.1575517 z"/>
          <path id="path824" style="font-weight:bold;font-size:9.33333px;font-family:Roboto, sans-serif;fill:#333333" d="m 13.389318,-2.6614574 -0.710937,0.7656247 V 0 h -1.367187 v -6.6354144 h 1.367187 v 3.0078115 l 0.601562,-0.8248695 1.690755,-2.182942 h 1.68164 L 14.296219,-3.6868477 16.720697,0 h -1.626952 z"/>
        </g>
      </g>
      <path d="M 0,0 H 3" style="stroke:#333333;stroke-width:0.7" transform="rotate(-2.9,-18.5,-730.85905)" id="polyline440"/>
      <g transform="rotate(19.8,-17,97.405608)" id="g446">
        <path d="M 0,0 H 5" style="stroke:#333333;stroke-width:1" transform="translate(3)" id="polyline442"/>
        <g style="font-weight:bold;font-size:9.33333px;font-family:Roboto, sans-serif;fill:#333333" id="text444" transform="rotate(-19.8,15.229742,-26.783837)" aria-label="15K">
          <path id="path829" style="font-weight:bold;font-size:9.33333px;font-family:Roboto, sans-serif;fill:#333333" d="M 3.6503894,0 H 2.3333325 V -5.0768212 L 0.76106745,-4.5891911 V -5.6601543 L 3.5091134,-6.644529 h 0.141276 z"/>
          <path id="path831" style="font-weight:bold;font-size:9.33333px;font-family:Roboto, sans-serif;fill:#333333" d="m 6.0065083,-3.2630197 0.3828124,-3.3723947 h 3.7187483 v 1.0983069 H 7.4693984 L 7.305336,-4.1106757 q 0.4694009,-0.2506509 0.9980465,-0.2506509 0.9479164,0 1.4856766,0.5878904 0.5377599,0.5878904 0.5377599,1.6451817 0,0.6425779 -0.273437,1.15299442 -0.2688802,0.5058592 -0.7747394,0.78841119 -0.5058592,0.27799469 -1.19401,0.27799469 -0.6015623,0 -1.1165361,-0.24153637 Q 6.4531227,-0.39648424 6.1523416,-0.83854138 5.8561177,-1.2805985 5.8378886,-1.8457025 h 1.3033849 q 0.041016,0.4147134 0.2871093,0.6471352 0.250651,0.22786451 0.6516925,0.22786451 0.4466144,0 0.6881508,-0.31901031 0.2415364,-0.3235676 0.2415364,-0.911458 0,-0.565104 -0.2779947,-0.8658851 -0.2779947,-0.3007812 -0.7884112,-0.3007812 -0.4694009,0 -0.7610675,0.2460937 L 7.054685,-3.0032542 Z"/>
          <path id="path833" style="font-weight:bold;font-size:9.33333px;font-family:Roboto, sans-serif;fill:#333333" d="m 13.389318,-2.6614574 -0.710937,0.7656247 V 0 h -1.367187 v -6.6354144 h 1.367187 v 3.0078115 l 0.601562,-0.8248695 1.690755,-2.182942 h 1.68164 L 14.296219,-3.6868477 16.720697,0 h -1.626952 z"/>
        </g>
      </g>
      <path d="M 0,0 H 3" style="stroke:#333333;stroke-width:0.7" transform="rotate(40.6,-18.5,50.011999)" id="polyline448"/>
      <g transform="rotate(60,-17,29.444864)" id="g454">
        <path d="M 0,0 H 5" style="stroke:#333333;stroke-width:1" transform="translate(3)" id="polyline450"/>
        <g style="font-weight:bold;font-size:9.33333px;font-family:Roboto, sans-serif;fill:#333333" id="text452" transform="rotate(-60,10.848076,-11.459292)" aria-label="20K">
          <path id="path838" style="font-weight:bold;font-size:9.33333px;font-family:Roboto, sans-serif;fill:#333333" d="M 4.9993473,0 H 0.45117172 V -0.90234344 L 2.5976554,-3.1901031 q 0.4420571,-0.4830727 0.6516925,-0.8430987 0.2141926,-0.3600259 0.2141926,-0.6835935 0,-0.4420571 -0.2233072,-0.6927081 -0.2233072,-0.2552082 -0.6380206,-0.2552082 -0.4466145,0 -0.70638,0.3098957 -0.2552083,0.3053385 -0.2552083,0.8066404 H 0.31901031 q 0,-0.6061196 0.28710928,-1.1074215 0.29166656,-0.5013019 0.82031221,-0.7838539 0.5286457,-0.2871093 1.1985673,-0.2871093 1.0253903,0 1.5904943,0.4921873 0.5696612,0.4921874 0.5696612,1.3899735 0,0.4921873 -0.2552082,1.0026038 -0.2552083,0.5104165 -0.8749997,1.1894528 l -1.5084631,1.5904942 h 2.8528637 z"/>
          <path id="path840" style="font-weight:bold;font-size:9.33333px;font-family:Roboto, sans-serif;fill:#333333" d="m 10.276689,-2.7434886 q 0,1.3763016 -0.5696611,2.10546798 -0.5696613,0.72916642 -1.6679682,0.72916642 -1.0846351,0 -1.6588536,-0.71549455 Q 5.8059875,-1.3398433 5.7923157,-2.6751293 V -3.896483 q 0,-1.3899735 0.5742185,-2.1100254 0.5787759,-0.7200518 1.6634109,-0.7200518 1.084635,0 1.6588536,0.7154945 0.5742183,0.7109373 0.5878903,2.0462233 z M 8.9596323,-4.0833319 q 0,-0.8248696 -0.2278645,-1.1985673 -0.2233072,-0.3782551 -0.7018227,-0.3782551 -0.4648436,0 -0.6881508,0.3600259 -0.2187499,0.3554686 -0.2324218,1.1165361 v 1.6132807 q 0,0.8111976 0.2187499,1.2076819 0.2233072,0.39192691 0.7109373,0.39192691 0.4830727,0 0.6972654,-0.37825511 0.2141926,-0.3782551 0.2233072,-1.1575517 z"/>
          <path id="path842" style="font-weight:bold;font-size:9.33333px;font-family:Roboto, sans-serif;fill:#333333" d="m 13.389318,-2.6614574 -0.710937,0.7656247 V 0 h -1.367187 v -6.6354144 h 1.367187 v 3.0078115 l 0.601562,-0.8248695 1.690755,-2.182942 h 1.68164 L 14.296219,-3.6868477 16.720697,0 h -1.626952 z"/>
        </g>
      </g>
      <g style="font-weight:bold;font-size:9.33333px;font-family:Roboto, sans-serif;fill:#333333" id="text456" transform="translate(-6.5,44.5)" aria-label="HZ">
        <path id="path845" style="font-weight:bold;font-size:9.33333px;font-family:Roboto, sans-serif;fill:#333333" d="M 5.9928365,0 H 4.6256495 V -2.843749 H 1.9596347 V 0 H 0.59244771 V -6.6354144 H 1.9596347 v 2.6888012 h 2.6660148 v -2.6888012 h 1.367187 z"/>
        <path id="path847" style="font-weight:bold;font-size:9.33333px;font-family:Roboto, sans-serif;fill:#333333" d="M 8.6406221,-1.0983069 H 11.985673 V 0 H 6.9316383 V -0.80208306 L 10.212887,-5.5279929 H 6.9361956 v -1.1074215 h 4.9765604 v 0.7838539 z"/>
      </g>
    </g>
  </g>
  <g style="font-weight:bold;font-size:10.6667px;font-family:Roboto, sans-serif;letter-spacing:2px;fill:#333333" id="text264" transform="rotate(-90)" aria-label="CV">
    <path id="path726" style="font-weight:bold;font-size:10.6667px;font-family:Roboto, sans-serif;letter-spacing:2px;fill:#333333" d="m -146.36977,32.47395 q -0.0885,1.223963 -0.90625,1.92709 -0.81251,0.703127 -2.14584,0.703127 -1.45834,0 -2.29689,-0.97917 -0.83333,-0.984378 -0.83333,-2.697925 v -0.463543 q 0,-1.093754 0.38542,-1.92709 0.38541,-0.833335 1.09896,-1.276045 0.71875,-0.447918 1.66667,-0.447918 1.3125,0 2.11459,0.703127 0.80209,0.703127 0.92709,1.973965 h -1.56251 q -0.0573,-0.734378 -0.41146,-1.062504 -0.34896,-0.333334 -1.06771,-0.333334 -0.78125,0 -1.17188,0.562502 -0.38542,0.557293 -0.39583,1.73438 v 0.572918 q 0,1.229171 0.36979,1.796881 0.375,0.56771 1.17709,0.56771 0.72396,0 1.07812,-0.328126 0.35938,-0.333334 0.41146,-1.026045 z"/>
    <path id="path728" style="font-weight:bold;font-size:10.6667px;font-family:Roboto, sans-serif;letter-spacing:2px;fill:#333333" d="m -140.54163,33.119786 1.71875,-5.703143 h 1.73959 L -139.72392,35 h -1.63022 l -2.63021,-7.583357 h 1.73438 z"/>
  </g>
  <g transform="translate(33,126)" id="use266">
    <g transform="translate(20,20)" id="g474">
      <g transform="rotate(-90,-5,-5)" id="g464">
        <path d="M 0,0 H 4" style="stroke:#333333;stroke-width:1" id="polyline462"/>
      </g>
      <path d="M 0,-12.5 A 12.5,12.5 0 0 1 12.5,0" stroke="#333333" stroke-width="0.5" stroke-linecap="round" fill="none" transform="rotate(20)" id="path466"/>
      <path d="M 0,-12.5 A 12.5,12.5 0 0 1 12.5,0" stroke="#333333" stroke-width="0.5" stroke-linecap="round" fill="none" transform="rotate(43)" id="path468"/>
      <path d="M 0,-12.5 A 12.5,12.5 0 0 0 -12.5,0" stroke="#333333" stroke-width="0.5" stroke-linecap="round" fill="none" transform="rotate(-20)" id="path470"/>
      <path d="M 0,-12.5 A 12.5,12.5 0 0 0 -12.5,0" stroke="#333333" stroke-width="0.5" stroke-linecap="round" fill="none" transform="rotate(-43)" id="path472"/>
    </g>
  </g>
  <g style="font-weight:bold;font-size:10.6667px;font-family:Roboto, sans-serif;letter-spacing:2px;fill:#333333" id="text270" transform="rotate(-90)" aria-label="FM">
    <path id="path720" style="font-weight:bold;font-size:10.6667px;font-family:Roboto, sans-serif;letter-spacing:2px;fill:#333333" d="m -147.7604,88.901032 h -3.00001 V 92 h -1.5625 v -7.583357 h 4.93751 v 1.265629 h -3.37501 v 1.958339 h 3.00001 z"/>
    <path id="path722" style="font-weight:bold;font-size:10.6667px;font-family:Roboto, sans-serif;letter-spacing:2px;fill:#333333" d="m -142.42706,84.416643 1.94793,5.500017 1.9375,-5.500017 h 2.05209 V 92 h -1.56771 V 89.927077 L -137.901,86.34894 -139.94788,92 h -1.07292 l -2.04167,-5.645851 0.15625,3.572928 V 92 h -1.56251 v -7.583357 z"/>
  </g>
  <g transform="translate(90,126)" id="use272">
    <g transform="translate(20,20)" id="g490">
      <g transform="rotate(120,-5,2.8867513)" id="g480">
        <path d="M 0,0 H 4" style="stroke:#333333;stroke-width:1" id="polyline478"/>
      </g>
      <path d="M 0,-12.5 A 12.5,12.5 0 0 1 12.5,0" stroke="#333333" stroke-width="0.5" stroke-linecap="round" fill="none" id="path482"/>
      <path d="M 0,-12.5 A 12.5,12.5 0 0 1 12.5,0" stroke="#333333" stroke-width="0.5" stroke-linecap="round" fill="none" transform="rotate(43)" id="path484"/>
      <path d="M 0,-12.5 A 12.5,12.5 0 0 0 -12.5,0" stroke="#333333" stroke-width="0.5" stroke-linecap="round" fill="none" id="path486"/>
      <path d="M 0,-12.5 A 12.5,12.5 0 0 0 -12.5,0" stroke="#333333" stroke-width="0.5" stroke-linecap="round" fill="none" transform="rotate(-43)" id="path488"/>
    </g>
  </g>
  <g style="font-weight:bold;font-size:10.6667px;font-family:Roboto, sans-serif;letter-spacing:2px;fill:#333333" id="text276" transform="rotate(-90)" aria-label="MODE">
    <path id="path710" style="font-weight:bold;font-size:10.6667px;font-family:Roboto, sans-serif;letter-spacing:2px;fill:#333333" d="m -200.28124,53.416643 1.94792,5.500017 1.93751,-5.500017 h 2.05209 V 61 h -1.56772 V 58.927077 L -195.75519,55.34894 -197.80207,61 h -1.07292 l -2.04167,-5.645851 0.15625,3.572928 V 61 h -1.5625 v -7.583357 z"/>
    <path id="path712" style="font-weight:bold;font-size:10.6667px;font-family:Roboto, sans-serif;letter-spacing:2px;fill:#333333" d="m -184.73953,57.380197 q 0,1.119795 -0.39584,1.963548 -0.39583,0.843752 -1.13542,1.302087 -0.73437,0.458335 -1.6875,0.458335 -0.94271,0 -1.6823,-0.453126 -0.73958,-0.453127 -1.14584,-1.291671 -0.40625,-0.843753 -0.41146,-1.937506 v -0.375001 q 0,-1.119796 0.40105,-1.968757 0.40625,-0.854169 1.14063,-1.307296 0.73958,-0.458334 1.6875,-0.458334 0.94792,0 1.6823,0.458334 0.73958,0.453127 1.14063,1.307296 0.40625,0.848961 0.40625,1.963548 z m -1.58334,-0.343751 q 0,-1.192712 -0.42708,-1.812506 -0.42709,-0.619794 -1.21876,-0.619794 -0.78646,0 -1.21354,0.614586 -0.42709,0.609377 -0.4323,1.791672 v 0.369793 q 0,1.161462 0.42709,1.802089 0.42708,0.640627 1.22917,0.640627 0.78646,0 1.20834,-0.614585 0.42187,-0.619794 0.42708,-1.802089 z"/>
    <path id="path714" style="font-weight:bold;font-size:10.6667px;font-family:Roboto, sans-serif;letter-spacing:2px;fill:#333333" d="m -181.5937,61 v -7.583357 h 2.33335 q 1,0 1.78646,0.453126 0.79167,0.447918 1.23438,1.281254 0.44271,0.828128 0.44271,1.885423 v 0.348959 q 0,1.057295 -0.4375,1.880215 -0.4323,0.822919 -1.22397,1.276045 -0.79166,0.453127 -1.78646,0.458335 z m 1.56251,-6.317728 v 5.062516 h 0.75521 q 0.91667,0 1.40105,-0.598961 0.48437,-0.59896 0.49479,-1.713547 v -0.401043 q 0,-1.156253 -0.47917,-1.750005 -0.47917,-0.59896 -1.40104,-0.59896 z"/>
    <path id="path716" style="font-weight:bold;font-size:10.6667px;font-family:Roboto, sans-serif;letter-spacing:2px;fill:#333333" d="m -168.09366,57.713531 h -3.00001 v 2.031257 h 3.52085 V 61 h -5.08335 v -7.583357 h 5.07293 v 1.265629 h -3.51043 v 1.807297 h 3.00001 z"/>
  </g>
  <g transform="translate(45,154)" id="use278">
    <g transform="translate(30,30)" id="g510">
      <path d="M 0,0 H 3" style="stroke:#333333;stroke-width:0.5" transform="rotate(-67.5,-5.5,-8.2313317)" id="polyline494"/>
      <g style="font-weight:bold;font-size:8px;font-family:Roboto, sans-serif;fill:#333333" id="text496" transform="translate(6.1844024,-15.173109)" aria-label="LP">
        <path id="path687" style="font-weight:bold;font-size:8px;font-family:Roboto, sans-serif;fill:#333333" d="M 1.6796875,-0.94140625 H 4.1679687 V 0 H 0.5078125 v -5.6875 h 1.171875 z"/>
        <path id="path689" style="font-weight:bold;font-size:8px;font-family:Roboto, sans-serif;fill:#333333" d="M 6.0078125,-2.0039063 V 0 h -1.171875 v -5.6875 h 2.21875 q 0.640625,0 1.125,0.234375 0.4882813,0.234375 0.75,0.6679688 0.2617188,0.4296875 0.2617188,0.9804687 0,0.8359375 -0.5742188,1.3203125 -0.5703125,0.4804687 -1.5820313,0.4804687 z m 0,-0.9492187 h 1.046875 q 0.4648437,0 0.7070312,-0.21875 0.2460938,-0.21875 0.2460938,-0.625 0,-0.4179687 -0.2460938,-0.6757812 Q 7.515625,-4.7304687 7.0820312,-4.7382812 H 6.0078125 Z"/>
      </g>
      <path d="M 0,0 H 3" style="stroke:#333333;stroke-width:0.5" transform="rotate(-22.5,-5.5,-27.650367)" id="polyline498"/>
      <g style="font-weight:bold;font-size:8px;font-family:Roboto, sans-serif;fill:#333333" id="text500" transform="translate(15.173109,-4.1844024)" aria-label="HP">
        <path id="path693" style="font-weight:bold;font-size:8px;font-family:Roboto, sans-serif;fill:#333333" d="M 5.1367187,0 H 3.9648438 V -2.4375 H 1.6796875 V 0 h -1.171875 v -5.6875 h 1.171875 v 2.3046875 H 3.9648438 V -5.6875 h 1.1718749 z"/>
        <path id="path695" style="font-weight:bold;font-size:8px;font-family:Roboto, sans-serif;fill:#333333" d="M 7.3359375,-2.0039063 V 0 h -1.171875 v -5.6875 h 2.21875 q 0.640625,0 1.125,0.234375 0.4882813,0.234375 0.7500005,0.6679688 0.261718,0.4296875 0.261718,0.9804687 0,0.8359375 -0.5742185,1.3203125 Q 9.375,-2.0039063 8.3632813,-2.0039063 Z m 0,-0.9492187 h 1.046875 q 0.4648438,0 0.7070313,-0.21875 0.2460937,-0.21875 0.2460937,-0.625 0,-0.4179687 -0.2460937,-0.6757812 Q 8.84375,-4.7304687 8.4101563,-4.7382812 H 7.3359375 Z"/>
      </g>
      <path d="M 0,0 H 3" style="stroke:#333333;stroke-width:0.5" transform="rotate(22.5,-5.5,27.650367)" id="polyline502"/>
      <g style="font-weight:bold;font-size:8px;font-family:Roboto, sans-serif;fill:#333333" id="text504" transform="translate(15.173109,9.1844024)" aria-label="BP">
        <path id="path699" style="font-weight:bold;font-size:8px;font-family:Roboto, sans-serif;fill:#333333" d="M 0.5078125,0 V -5.6875 H 2.5 q 1.0351563,0 1.5703125,0.3984375 0.5351562,0.3945313 0.5351562,1.1601563 0,0.4179687 -0.2148437,0.7382812 -0.2148438,0.3164062 -0.5976562,0.4648437 0.4374999,0.109375 0.6874999,0.4414063 0.2539063,0.3320312 0.2539063,0.8125 0,0.8203125 -0.5234375,1.2421875 Q 3.6875,-0.0078125 2.71875,0 Z m 1.171875,-2.4765625 v 1.53515625 h 1.0039063 q 0.4140625,0 0.6445312,-0.19531245 0.234375,-0.1992188 0.234375,-0.546875 0,-0.7812501 -0.8085937,-0.7929688 z m 0,-0.828125 H 2.546875 q 0.8867188,-0.015625 0.8867188,-0.7070312 0,-0.3867188 -0.2265625,-0.5546875 Q 2.984375,-4.7382812 2.5,-4.7382812 H 1.6796875 Z"/>
        <path id="path701" style="font-weight:bold;font-size:8px;font-family:Roboto, sans-serif;fill:#333333" d="M 6.7890625,-2.0039063 V 0 h -1.171875 v -5.6875 h 2.21875 q 0.640625,0 1.125,0.234375 0.4882813,0.234375 0.75,0.6679688 0.2617188,0.4296875 0.2617188,0.9804687 0,0.8359375 -0.5742188,1.3203125 -0.5703125,0.4804687 -1.5820313,0.4804687 z m 0,-0.9492187 h 1.046875 q 0.4648438,0 0.7070313,-0.21875 0.2460937,-0.21875 0.2460937,-0.625 0,-0.4179687 -0.2460937,-0.6757812 Q 8.296875,-4.7304687 7.8632812,-4.7382812 H 6.7890625 Z"/>
      </g>
      <path d="M 0,0 H 3" style="stroke:#333333;stroke-width:0.5" transform="rotate(67.5,-5.5,8.2313317)" id="polyline506"/>
      <g style="font-weight:bold;font-size:8px;font-family:Roboto, sans-serif;fill:#333333" id="text508" transform="translate(6.1844024,20.673109)" aria-label="BR">
        <path id="path705" style="font-weight:bold;font-size:8px;font-family:Roboto, sans-serif;fill:#333333" d="M 0.5078125,0 V -5.6875 H 2.5 q 1.0351563,0 1.5703125,0.3984375 0.5351562,0.3945313 0.5351562,1.1601563 0,0.4179687 -0.2148437,0.7382812 -0.2148438,0.3164062 -0.5976562,0.4648437 0.4374999,0.109375 0.6874999,0.4414063 0.2539063,0.3320312 0.2539063,0.8125 0,0.8203125 -0.5234375,1.2421875 Q 3.6875,-0.0078125 2.71875,0 Z m 1.171875,-2.4765625 v 1.53515625 h 1.0039063 q 0.4140625,0 0.6445312,-0.19531245 0.234375,-0.1992188 0.234375,-0.546875 0,-0.7812501 -0.8085937,-0.7929688 z m 0,-0.828125 H 2.546875 q 0.8867188,-0.015625 0.8867188,-0.7070312 0,-0.3867188 -0.2265625,-0.5546875 Q 2.984375,-4.7382812 2.5,-4.7382812 H 1.6796875 Z"/>
        <path id="path707" style="font-weight:bold;font-size:8px;font-family:Roboto, sans-serif;fill:#333333" d="M 7.7226562,-2.0820313 H 6.7890625 V 0 h -1.171875 v -5.6875 h 2.1132812 q 1.0078126,0 1.5546876,0.4492188 0.546875,0.4492187 0.546875,1.2695312 0,0.5820312 -0.2539063,0.9726562 -0.25,0.3867188 -0.7617187,0.6171875 l 1.2304687,2.3242188 V 0 H 8.7890625 Z M 6.7890625,-3.03125 H 7.734375 q 0.4414063,0 0.6835938,-0.2226563 0.2421875,-0.2265625 0.2421875,-0.6210937 0,-0.4023437 -0.2304688,-0.6328125 Q 8.203125,-4.7382812 7.7304687,-4.7382812 H 6.7890625 Z"/>
      </g>
    </g>
  </g>
  <g style="font-weight:bold;font-size:10.6667px;font-family:Roboto, sans-serif;letter-spacing:2px;fill:#333333" id="text282" transform="rotate(-90)" aria-label="RES/BW">
    <path id="path673" style="font-weight:bold;font-size:10.6667px;font-family:Roboto, sans-serif;letter-spacing:2px;fill:#333333" d="m -260.01561,12.72395 h -1.2448 V 15.5 h -1.5625 V 7.9166427 h 2.81771 q 1.34376,0 2.07293,0.5989602 0.72916,0.5989603 0.72916,1.6927141 0,0.776044 -0.33854,1.296879 -0.33333,0.515626 -1.01563,0.822919 l 1.64063,3.098968 V 15.5 h -1.67708 z m -1.2448,-1.265629 h 1.26042 q 0.58854,0 0.91146,-0.296876 0.32292,-0.302085 0.32292,-0.828128 0,-0.53646 -0.30729,-0.8437527 -0.30209,-0.3072926 -0.9323,-0.3072926 h -1.25521 z"/>
    <path id="path675" style="font-weight:bold;font-size:10.6667px;font-family:Roboto, sans-serif;letter-spacing:2px;fill:#333333" d="m -249.44788,12.213531 h -3.00001 v 2.031257 h 3.52085 V 15.5 h -5.08335 V 7.9166427 h 5.07293 v 1.265629 h -3.51043 v 1.8072973 h 3.00001 z"/>
    <path id="path677" style="font-weight:bold;font-size:10.6667px;font-family:Roboto, sans-serif;letter-spacing:2px;fill:#333333" d="m -242.07807,13.51041 q 0,-0.442709 -0.3125,-0.677085 -0.3125,-0.239584 -1.125,-0.500002 -0.81251,-0.265626 -1.28647,-0.520835 -1.29167,-0.697919 -1.29167,-1.8802139 0,-0.6145853 0.34375,-1.0937535 0.34896,-0.4843765 0.9948,-0.7552107 0.65104,-0.2708342 1.45834,-0.2708342 0.8125,0 1.44792,0.296876 0.63542,0.2916675 0.98438,0.8281276 0.35416,0.53646 0.35416,1.2187537 h -1.5625 q 0,-0.5208349 -0.32813,-0.8072941 -0.32812,-0.2916676 -0.92188,-0.2916676 -0.57291,0 -0.89062,0.2447925 -0.31771,0.239584 -0.31771,0.6354186 0,0.3697926 0.36979,0.6197936 0.375,0.250001 1.09896,0.468752 1.33334,0.401042 1.94272,0.994794 0.60937,0.593752 0.60937,1.479172 0,0.984378 -0.74479,1.54688 -0.7448,0.557293 -2.00522,0.557293 -0.875,0 -1.59375,-0.317709 -0.71875,-0.322918 -1.09896,-0.880211 -0.375,-0.557294 -0.375,-1.291671 h 1.56771 q 0,1.255212 1.5,1.255212 0.5573,0 0.8698,-0.223959 0.3125,-0.229167 0.3125,-0.635419 z"/>
    <path id="path679" style="font-weight:bold;font-size:10.6667px;font-family:Roboto, sans-serif;letter-spacing:2px;fill:#333333" d="m -237.07285,16.151044 h -1.1198 l 2.79168,-8.2344013 h 1.11979 z"/>
    <path id="path681" style="font-weight:bold;font-size:10.6667px;font-family:Roboto, sans-serif;letter-spacing:2px;fill:#333333" d="M -231.46867,15.5 V 7.9166427 h 2.65625 q 1.38022,0 2.09376,0.5312517 0.71354,0.5260433 0.71354,1.5468799 0,0.5572937 -0.28645,0.9843777 -0.28646,0.421877 -0.79688,0.619794 0.58333,0.145834 0.91667,0.588544 0.33854,0.442709 0.33854,1.083336 0,1.093754 -0.69792,1.656256 -0.69792,0.562501 -1.98959,0.572918 z m 1.5625,-3.302094 v 2.046882 h 1.33855 q 0.55208,0 0.85937,-0.260418 0.31251,-0.265626 0.31251,-0.729169 0,-1.04167 -1.07813,-1.057295 z m 0,-1.10417 h 1.15625 q 1.1823,-0.02083 1.1823,-0.942711 0,-0.5156269 -0.30208,-0.7395859 -0.29688,-0.2291674 -0.94272,-0.2291674 h -1.09375 z"/>
    <path id="path683" style="font-weight:bold;font-size:10.6667px;font-family:Roboto, sans-serif;letter-spacing:2px;fill:#333333" d="m -216.74988,13.312493 1.02083,-5.3958503 h 1.5573 L -215.85405,15.5 h -1.57292 l -1.23438,-5.072933 -1.23438,5.072933 h -1.57292 l -1.68229,-7.5833573 h 1.55729 l 1.02605,5.3854333 1.25,-5.3854333 h 1.32292 z"/>
  </g>
  <g transform="translate(20.5,214)" id="use284">
    <g transform="translate(25,25)" id="g536">
      <g style="font-weight:bold;font-size:8px;font-family:Roboto, sans-serif;fill:#333333" id="text514" transform="translate(-16,23.78461)" aria-label="0">
        <path id="path660" style="font-weight:bold;font-size:8px;font-family:Roboto, sans-serif;fill:#333333" d="m 4.2148437,-2.3515625 q 0,1.1796875 -0.4882812,1.8046875 -0.4882812,0.625 -1.4296875,0.625 -0.9296875,0 -1.421875,-0.61328125 Q 0.3828125,-1.1484375 0.37109375,-2.2929688 v -1.046875 q 0,-1.1914062 0.4921875,-1.8085937 Q 1.359375,-5.765625 2.2890625,-5.765625 q 0.9296875,0 1.421875,0.6132813 0.4921875,0.609375 0.5039062,1.7539062 z M 3.0859375,-3.5 q 0,-0.7070312 -0.1953125,-1.0273437 -0.1914062,-0.3242188 -0.6015625,-0.3242188 -0.3984375,0 -0.5898438,0.3085938 Q 1.5117187,-4.2382812 1.5,-3.5859375 v 1.3828125 q 0,0.6953125 0.1875,1.0351563 0.1914062,0.33593745 0.609375,0.33593745 0.4140625,0 0.5976563,-0.32421875 0.1835937,-0.3242187 0.1914062,-0.9921875 z"/>
      </g>
      <path d="M 0,0 H 3" style="stroke:#333333;stroke-width:0.5" transform="rotate(150,-11,2.9474411)" id="polyline516"/>
      <path d="M 0,0 H 3" style="stroke:#333333;stroke-width:0.5" transform="rotate(180,-11,0)" id="polyline518"/>
      <path d="M 0,0 H 3" style="stroke:#333333;stroke-width:0.5" transform="rotate(-150,-11,-2.9474411)" id="polyline520"/>
      <path d="M 0,0 H 3" style="stroke:#333333;stroke-width:0.5" transform="rotate(-120,-11,-6.350853)" id="polyline522"/>
      <path d="M 0,0 H 3" style="stroke:#333333;stroke-width:0.5" transform="rotate(-90,-11,-11)" id="polyline524"/>
      <path d="M 0,0 H 3" style="stroke:#333333;stroke-width:0.5" transform="rotate(-60,-11,-19.052559)" id="polyline526"/>
      <path d="M 0,0 H 3" style="stroke:#333333;stroke-width:0.5" transform="rotate(-30,-11,-41.052559)" id="polyline528"/>
      <path d="M 0,0 H 3" style="stroke:#333333;stroke-width:0.5" transform="translate(22)" id="polyline530"/>
      <path d="M 0,0 H 3" style="stroke:#333333;stroke-width:0.5" transform="rotate(30,-11,41.052559)" id="polyline532"/>
      <path d="M 0,0 H 4" style="stroke:#333333;stroke-width:1" transform="rotate(60,-11,19.052559)" id="polyline534"/>
    </g>
  </g>
  <g style="font-weight:bold;font-size:10.6667px;font-family:Roboto, sans-serif;letter-spacing:2px;fill:#333333" id="text288" transform="rotate(-90)" aria-label="SLOPE">
    <path id="path649" style="font-weight:bold;font-size:10.6667px;font-family:Roboto, sans-serif;letter-spacing:2px;fill:#333333" d="m -253.89061,84.410412 q 0,-0.44271 -0.3125,-0.677086 -0.3125,-0.239584 -1.125,-0.500001 -0.81251,-0.265626 -1.28647,-0.520835 -1.29167,-0.697919 -1.29167,-1.880214 0,-0.614586 0.34375,-1.093754 0.34896,-0.484376 0.9948,-0.755211 0.65104,-0.270834 1.45834,-0.270834 0.8125,0 1.44792,0.296876 0.63542,0.291668 0.98438,0.828128 0.35416,0.53646 0.35416,1.218754 h -1.5625 q 0,-0.520835 -0.32813,-0.807295 -0.32812,-0.291667 -0.92188,-0.291667 -0.57291,0 -0.89062,0.244792 -0.31771,0.239584 -0.31771,0.635419 0,0.369793 0.36979,0.619794 0.375,0.25 1.09896,0.468751 1.33334,0.401043 1.94272,0.994795 0.60937,0.593752 0.60937,1.479171 0,0.984378 -0.74479,1.54688 -0.7448,0.557294 -2.00522,0.557294 -0.875,0 -1.59375,-0.31771 -0.71875,-0.322918 -1.09896,-0.880211 -0.375,-0.557293 -0.375,-1.291671 h 1.56771 q 0,1.255213 1.5,1.255213 0.5573,0 0.8698,-0.223959 0.3125,-0.229168 0.3125,-0.635419 z"/>
    <path id="path651" style="font-weight:bold;font-size:10.6667px;font-family:Roboto, sans-serif;letter-spacing:2px;fill:#333333" d="m -247.69789,85.144789 h 3.31772 v 1.255213 h -4.88022 v -7.583358 h 1.5625 z"/>
    <path id="path653" style="font-weight:bold;font-size:10.6667px;font-family:Roboto, sans-serif;letter-spacing:2px;fill:#333333" d="m -235.59369,82.780198 q 0,1.119796 -0.39583,1.963548 -0.39584,0.843753 -1.13542,1.302088 -0.73438,0.458335 -1.68751,0.458335 -0.94271,0 -1.6823,-0.453127 -0.73958,-0.453126 -1.14583,-1.291671 -0.40626,-0.843752 -0.41146,-1.937506 v -0.375001 q 0,-1.119795 0.40104,-1.968756 0.40625,-0.85417 1.14063,-1.307296 0.73958,-0.458335 1.6875,-0.458335 0.94792,0 1.6823,0.458335 0.73959,0.453126 1.14063,1.307296 0.40625,0.848961 0.40625,1.963548 z m -1.58334,-0.343751 q 0,-1.192712 -0.42708,-1.812505 -0.42709,-0.619794 -1.21876,-0.619794 -0.78646,0 -1.21354,0.614585 -0.42709,0.609377 -0.4323,1.791673 v 0.369792 q 0,1.161462 0.42709,1.802089 0.42708,0.640627 1.22917,0.640627 0.78646,0 1.20834,-0.614585 0.42187,-0.619793 0.42708,-1.802089 z"/>
    <path id="path655" style="font-weight:bold;font-size:10.6667px;font-family:Roboto, sans-serif;letter-spacing:2px;fill:#333333" d="m -230.88535,83.728118 v 2.671884 h -1.5625 v -7.583358 h 2.95834 q 0.85417,0 1.5,0.312501 0.65105,0.312501 1.00001,0.890628 0.34896,0.572919 0.34896,1.307296 0,1.114587 -0.76563,1.760422 -0.76042,0.640627 -2.10938,0.640627 z m 0,-1.265629 h 1.39584 q 0.61979,0 0.94271,-0.291668 0.32813,-0.291667 0.32813,-0.833335 0,-0.557294 -0.32813,-0.901045 -0.32813,-0.343751 -0.90625,-0.354168 h -1.4323 z"/>
    <path id="path657" style="font-weight:bold;font-size:10.6667px;font-family:Roboto, sans-serif;letter-spacing:2px;fill:#333333" d="m -219.01032,83.113533 h -3.00001 v 2.031256 h 3.52085 v 1.255213 h -5.08335 v -7.583358 h 5.07293 v 1.265629 h -3.51043 v 1.807298 h 3.00001 z"/>
  </g>
  <g transform="translate(91.5,209)" id="use290">
    <g transform="translate(25,30)" id="g566">
      <g style="font-weight:bold;font-size:8px;font-family:Roboto, sans-serif;fill:#333333" id="text540" transform="translate(-14,23.78461)" aria-label="1">
        <path id="path624" style="font-weight:bold;font-size:8px;font-family:Roboto, sans-serif;fill:#333333" d="M 3.1289063,0 H 2 v -4.3515625 l -1.34765625,0.4179687 v -0.9179687 l 2.35546875,-0.84375 h 0.1210938 z"/>
      </g>
      <path d="M 0,0 H 2" style="stroke:#333333;stroke-width:0.5" transform="rotate(-176,-11,-0.38412846)" id="polyline542"/>
      <g style="font-weight:bold;font-size:8px;font-family:Roboto, sans-serif;fill:#333333" id="text544" transform="translate(-22.200328,-11.14481)" aria-label="2">
        <path id="path628" style="font-weight:bold;font-size:8px;font-family:Roboto, sans-serif;fill:#333333" d="M 4.2851562,0 H 0.38671875 V -0.7734375 L 2.2265625,-2.734375 Q 2.6054688,-3.1484375 2.7851563,-3.4570313 2.96875,-3.765625 2.96875,-4.0429687 q 0,-0.3789063 -0.1914062,-0.59375 -0.1914063,-0.21875 -0.546875,-0.21875 -0.3828126,0 -0.6054688,0.265625 -0.21875,0.2617187 -0.21875,0.6914062 H 0.2734375 q 0,-0.5195312 0.24609375,-0.9492187 0.25,-0.4296875 0.70312495,-0.671875 Q 1.6757812,-5.765625 2.25,-5.765625 q 0.8789063,0 1.3632813,0.421875 0.4882812,0.421875 0.4882812,1.1914063 0,0.4218749 -0.21875,0.8593749 -0.21875,0.4375 -0.75,1.0195313 l -1.2929688,1.36328125 h 2.4453125 z"/>
      </g>
      <path d="M 0,0 H 3" style="stroke:#333333;stroke-width:0.5" transform="rotate(-112.1,-11,-7.4056353)" id="polyline546"/>
      <g style="font-weight:bold;font-size:8px;font-family:Roboto, sans-serif;fill:#333333" id="text548" transform="translate(0.80009769,-21.836096)" aria-label="4">
        <path id="path632" style="font-weight:bold;font-size:8px;font-family:Roboto, sans-serif;fill:#333333" d="m 3.7265625,-2.140625 h 0.6445312 v 0.9101563 H 3.7265625 V 0 H 2.5976563 V -1.2304687 H 0.265625 L 0.21484375,-1.9414062 2.5859375,-5.6875 h 1.140625 z m -2.3867188,0 h 1.2578126 v -2.0078125 l -0.074219,0.1289063 z"/>
      </g>
      <path d="M 0,0 H 3" style="stroke:#333333;stroke-width:0.5" transform="rotate(-59.1,-11,-19.402907)" id="polyline550"/>
      <path d="M 0,0 H 3" style="stroke:#333333;stroke-width:0.5" transform="rotate(-37.7,-11,-32.220094)" id="polyline552"/>
      <path d="M 0,0 H 3" style="stroke:#333333;stroke-width:0.5" transform="rotate(-18.4,-11,-67.916051)" id="polyline554"/>
      <g style="font-weight:bold;font-size:8px;font-family:Roboto, sans-serif;fill:#333333" id="text556" transform="translate(21.998209,1.706792)" aria-label="8">
        <path id="path638" style="font-weight:bold;font-size:8px;font-family:Roboto, sans-serif;fill:#333333" d="m 4.09375,-4.1757812 q 0,0.4140624 -0.2070312,0.7343749 -0.2070313,0.3203125 -0.5703125,0.5117188 0.4140625,0.1992187 0.65625,0.5507812 0.2421874,0.3476563 0.2421874,0.8203126 0,0.75781245 -0.5156249,1.1992187 -0.515625,0.4375 -1.4023438,0.4375 -0.8867188,0 -1.40625,-0.44140625 -0.51953125,-0.44140625 -0.51953125,-1.19531245 0,-0.4726563 0.2421875,-0.8242188 0.2421875,-0.3515625 0.65234375,-0.546875 -0.36328125,-0.1914063 -0.5703125,-0.5117188 -0.203125,-0.3203125 -0.203125,-0.7343749 0,-0.7265625 0.484375,-1.15625 0.484375,-0.4335938 1.3164063,-0.4335938 0.828125,0 1.3125,0.4296875 Q 4.09375,-4.9101562 4.09375,-4.1757812 Z M 3.0820313,-1.640625 q 0,-0.3710938 -0.2148438,-0.59375 -0.2148437,-0.2226563 -0.578125,-0.2226563 -0.359375,0 -0.5742188,0.2226563 Q 1.5,-2.015625 1.5,-1.640625 q 0,0.3632813 0.2109375,0.5859375 0.2109375,0.22265625 0.5859375,0.22265625 0.3671875,0 0.5742188,-0.21484375 0.2109375,-0.2148437 0.2109375,-0.59375 z M 2.9648438,-4.1210937 q 0,-0.3320313 -0.1757813,-0.53125 -0.1757812,-0.203125 -0.4960937,-0.203125 -0.3164063,0 -0.4921876,0.1953125 Q 1.625,-4.4648437 1.625,-4.1210937 q 0,0.3398437 0.1757812,0.5468749 0.1757813,0.2070313 0.4960938,0.2070313 0.3203125,0 0.4921875,-0.2070313 0.1757813,-0.2070312 0.1757813,-0.5468749 z"/>
      </g>
      <path d="M 0,0 H 3" style="stroke:#333333;stroke-width:0.5" transform="rotate(15.8,-11,79.272728)" id="polyline558"/>
      <path d="M 0,0 H 3" style="stroke:#333333;stroke-width:0.5" transform="rotate(31.4,-11,39.133746)" id="polyline560"/>
      <path d="M 0,0 H 3" style="stroke:#333333;stroke-width:0.5" transform="rotate(46,-11,25.914376)" id="polyline562"/>
      <g style="font-weight:bold;font-size:8px;font-family:Roboto, sans-serif;fill:#333333" id="text564" transform="translate(7,23.78461)" aria-label="12">
        <path id="path644" style="font-weight:bold;font-size:8px;font-family:Roboto, sans-serif;fill:#333333" d="M 3.1289063,0 H 2 v -4.3515625 l -1.34765625,0.4179687 v -0.9179687 l 2.35546875,-0.84375 h 0.1210938 z"/>
        <path id="path646" style="font-weight:bold;font-size:8px;font-family:Roboto, sans-serif;fill:#333333" d="M 8.8789063,0 H 4.9804687 V -0.7734375 L 6.8203125,-2.734375 Q 7.1992187,-3.1484375 7.3789062,-3.4570313 7.5625,-3.765625 7.5625,-4.0429687 q 0,-0.3789063 -0.1914063,-0.59375 -0.1914062,-0.21875 -0.546875,-0.21875 -0.3828125,0 -0.6054687,0.265625 Q 6,-4.328125 6,-3.8984375 H 4.8671875 q 0,-0.5195312 0.2460937,-0.9492187 0.25,-0.4296875 0.703125,-0.671875 0.453125,-0.2460938 1.0273438,-0.2460938 0.8789062,0 1.3632813,0.421875 0.4882812,0.421875 0.4882812,1.1914063 0,0.4218749 -0.21875,0.8593749 -0.21875,0.4375 -0.75,1.0195313 l -1.2929688,1.36328125 h 2.4453126 z"/>
      </g>
    </g>
  </g>
  <path d="m 15,313 h 120 c 2.77,0 5,2.23 5,5 v 37 c 0,2.77 -2.23,5 -5,5 H 15 c -2.77,0 -5,-2.23 -5,-5 v -37 c 0,-2.77 2.23,-5 5,-5 z" style="fill:#bbbbbb" id="rect294"/>
  <path d="m 31,269 h 88 c 2.77,0 5,2.23 5,5 v 34 c 0,2.77 -2.23,5 -5,5 H 31 c -2.77,0 -5,-2.23 -5,-5 v -34 c 0,-2.77 2.23,-5 5,-5 z" style="fill:#fafafa" id="rect296"/>
  <path d="m 26,303 h 98 v 10 H 26 Z" style="fill:#fafafa" id="rect298"/>
  <path d="m 15,313 h 87 c 2.77,0 5,2.23 5,5 v 37 c 0,2.77 -2.23,5 -5,5 H 15 c -2.77,0 -5,-2.23 -5,-5 v -37 c 0,-2.77 2.23,-5 5,-5 z" style="fill:#fafafa" id="rect300"/>
  <path d="m 97,313 h 10 v 47 H 97 Z" style="fill:#fafafa" id="rect302"/>
  <g transform="translate(16,269)" id="g316">
    <g transform="translate(12)" id="g306">
      <g style="font-weight:bold;font-size:8px;font-family:Roboto, sans-serif;letter-spacing:1px;fill:#333333" id="text304" transform="translate(9,40)" aria-label="CV">
        <path id="path598" style="font-weight:bold;font-size:8px;font-family:Roboto, sans-serif;letter-spacing:1px;fill:#333333" d="M 4.9726562,-1.8945312 Q 4.90625,-0.9765625 4.2929687,-0.44921875 3.6835938,0.078125 2.6835938,0.078125 q -1.0937501,0 -1.7226563,-0.734375 -0.625,-0.7382812 -0.625,-2.0234375 v -0.3476563 q 0,-0.8203125 0.2890625,-1.4453124 0.2890625,-0.625 0.8242187,-0.9570313 0.5390625,-0.3359375 1.2500001,-0.3359375 0.984375,0 1.5859374,0.5273438 0.6015625,0.5273437 0.6953125,1.4804687 H 3.8085938 Q 3.765625,-4.3085937 3.5,-4.5546875 q -0.2617187,-0.25 -0.8007812,-0.25 -0.5859375,0 -0.8789063,0.421875 -0.2890625,0.4179687 -0.296875,1.3007812 v 0.4296875 q 0,0.9218751 0.2773437,1.3476563 0.2812501,0.42578125 0.8828126,0.42578125 0.5429687,0 0.8085937,-0.24609375 0.2695313,-0.25 0.3085938,-0.7695312 z"/>
        <path id="path600" style="font-weight:bold;font-size:8px;font-family:Roboto, sans-serif;letter-spacing:1px;fill:#333333" d="M 8.84375,-1.4101562 10.132813,-5.6875 H 11.4375 L 9.4570313,0 H 8.234375 L 6.2617187,-5.6875 H 7.5625 Z"/>
      </g>
    </g>
    <g transform="translate(44)" id="g310">
      <g style="font-weight:bold;font-size:8px;font-family:Roboto, sans-serif;letter-spacing:1px;fill:#333333" id="text308" transform="translate(1,40)" aria-label="V/OCT">
        <path id="path603" style="font-weight:bold;font-size:8px;font-family:Roboto, sans-serif;letter-spacing:1px;fill:#333333" d="M 2.609375,-1.4101562 3.8984375,-5.6875 H 5.203125 L 3.2226563,0 H 2 L 0.02734375,-5.6875 H 1.328125 Z"/>
        <path id="path605" style="font-weight:bold;font-size:8px;font-family:Roboto, sans-serif;letter-spacing:1px;fill:#333333" d="M 7.0234375,0.48828125 H 6.1835937 L 8.2773438,-5.6875 h 0.8398437 z"/>
        <path id="path607" style="font-weight:bold;font-size:8px;font-family:Roboto, sans-serif;letter-spacing:1px;fill:#333333" d="m 15.398438,-2.7148438 q 0,0.8398438 -0.296875,1.4726563 -0.296875,0.6328125 -0.851563,0.9765625 -0.550781,0.34375 -1.265625,0.34375 -0.707031,0 -1.261719,-0.33984375 -0.554687,-0.33984375 -0.859375,-0.96874995 -0.304687,-0.6328125 -0.308593,-1.4531251 v -0.28125 q 0,-0.8398437 0.300781,-1.4765624 0.304687,-0.640625 0.855469,-0.9804688 0.554687,-0.34375 1.265625,-0.34375 0.710937,0 1.261718,0.34375 0.554688,0.3398438 0.855469,0.9804688 0.304688,0.6367187 0.304688,1.4726562 z m -1.1875,-0.2578125 q 0,-0.8945312 -0.320313,-1.3593749 -0.320312,-0.4648438 -0.914062,-0.4648438 -0.589844,0 -0.910157,0.4609375 -0.320312,0.4570312 -0.324218,1.34375 v 0.2773437 q 0,0.8710938 0.320312,1.3515626 0.320313,0.4804687 0.921875,0.4804687 0.589844,0 0.90625,-0.4609375 0.316406,-0.4648437 0.320313,-1.3515625 z"/>
        <path id="path609" style="font-weight:bold;font-size:8px;font-family:Roboto, sans-serif;letter-spacing:1px;fill:#333333" d="m 21.722656,-1.8945312 q -0.06641,0.9179687 -0.679687,1.44531245 -0.609375,0.52734375 -1.609375,0.52734375 -1.09375,0 -1.722657,-0.734375 -0.625,-0.7382812 -0.625,-2.0234375 v -0.3476563 q 0,-0.8203125 0.289063,-1.4453124 0.289062,-0.625 0.824219,-0.9570313 0.539062,-0.3359375 1.25,-0.3359375 0.984375,0 1.585937,0.5273438 0.601563,0.5273437 0.695313,1.4804687 h -1.171875 q -0.04297,-0.5507812 -0.308594,-0.796875 -0.261719,-0.25 -0.800781,-0.25 -0.585938,0 -0.878907,0.421875 -0.289062,0.4179687 -0.296875,1.3007812 v 0.4296875 q 0,0.9218751 0.277344,1.3476563 0.28125,0.42578125 0.882813,0.42578125 0.542968,0 0.808593,-0.24609375 0.269532,-0.25 0.308594,-0.7695312 z"/>
        <path id="path611" style="font-weight:bold;font-size:8px;font-family:Roboto, sans-serif;letter-spacing:1px;fill:#333333" d="M 27.664062,-4.7382812 H 25.921875 V 0 H 24.75 V -4.7382812 H 23.03125 V -5.6875 h 4.632812 z"/>
      </g>
    </g>
    <g transform="translate(76)" id="g314">
      <g style="font-weight:bold;font-size:8px;font-family:Roboto, sans-serif;letter-spacing:1px;fill:#333333" id="text312" transform="translate(9,40)" aria-label="FM">
        <path id="path614" style="font-weight:bold;font-size:8px;font-family:Roboto, sans-serif;letter-spacing:1px;fill:#333333" d="m 3.9296875,-2.3242188 h -2.25 V 0 h -1.171875 v -5.6875 h 3.703125 v 0.9492188 h -2.53125 v 1.4687499 h 2.25 z"/>
        <path id="path616" style="font-weight:bold;font-size:8px;font-family:Roboto, sans-serif;letter-spacing:1px;fill:#333333" d="m 7.4296875,-5.6875 1.4609375,4.125 1.453125,-4.125 h 1.539063 V 0 H 10.707031 V -1.5546875 L 10.824219,-4.2382812 9.2890625,0 H 8.484375 l -1.53125,-4.234375 0.1171875,2.6796875 V 0 h -1.171875 v -5.6875 z"/>
      </g>
    </g>
  </g>
  <g transform="translate(10,313)" id="g334">
    <g transform="translate(2)" id="g320">
      <g style="font-weight:bold;font-size:8px;font-family:Roboto, sans-serif;letter-spacing:1px;fill:#333333" id="text318" transform="translate(10.5,40)" aria-label="IN">
        <path id="path570" style="font-weight:bold;font-size:8px;font-family:Roboto, sans-serif;letter-spacing:1px;fill:#333333" d="M 1.7539062,0 H 0.58203125 V -5.6875 H 1.7539062 Z"/>
        <path id="path572" style="font-weight:bold;font-size:8px;font-family:Roboto, sans-serif;letter-spacing:1px;fill:#333333" d="m 8.4609375,0 h -1.171875 l -2.28125,-3.7421875 V 0 h -1.171875 v -5.6875 h 1.171875 l 2.2851562,3.75 v -3.75 h 1.1679688 z"/>
      </g>
    </g>
    <g transform="translate(34)" id="g324">
      <g style="font-weight:bold;font-size:8px;font-family:Roboto, sans-serif;letter-spacing:1px;fill:#333333" id="text322" transform="translate(3,40)" aria-label="R/BW">
        <path id="path575" style="font-weight:bold;font-size:8px;font-family:Roboto, sans-serif;letter-spacing:1px;fill:#333333" d="M 2.6132813,-2.0820313 H 1.6796875 V 0 h -1.171875 v -5.6875 h 2.1132813 q 1.0078125,0 1.5546874,0.4492188 0.546875,0.4492187 0.546875,1.2695312 0,0.5820312 -0.2539062,0.9726562 -0.25,0.3867188 -0.7617187,0.6171875 L 4.9375,-0.0546875 V 0 H 3.6796875 Z M 1.6796875,-3.03125 H 2.625 q 0.4414063,0 0.6835938,-0.2226563 0.2421875,-0.2265625 0.2421875,-0.6210937 0,-0.4023437 -0.2304688,-0.6328125 Q 3.09375,-4.7382812 2.6210938,-4.7382812 H 1.6796875 Z"/>
        <path id="path577" style="font-weight:bold;font-size:8px;font-family:Roboto, sans-serif;letter-spacing:1px;fill:#333333" d="M 6.8984375,0.48828125 H 6.0585937 L 8.1523438,-5.6875 h 0.8398437 z"/>
        <path id="path579" style="font-weight:bold;font-size:8px;font-family:Roboto, sans-serif;letter-spacing:1px;fill:#333333" d="m 10.601563,0 v -5.6875 h 1.992187 q 1.035156,0 1.570313,0.3984375 0.535156,0.3945313 0.535156,1.1601563 0,0.4179687 -0.214844,0.7382812 -0.214844,0.3164062 -0.597656,0.4648437 0.4375,0.109375 0.6875,0.4414063 0.253906,0.3320312 0.253906,0.8125 0,0.8203125 -0.523437,1.2421875 Q 13.78125,-0.0078125 12.8125,0 Z m 1.171875,-2.4765625 v 1.53515625 h 1.003906 q 0.414062,0 0.644531,-0.19531245 0.234375,-0.1992188 0.234375,-0.546875 0,-0.7812501 -0.808594,-0.7929688 z m 0,-0.828125 h 0.867187 q 0.886719,-0.015625 0.886719,-0.7070312 0,-0.3867188 -0.226563,-0.5546875 -0.222656,-0.171875 -0.707031,-0.171875 h -0.820312 z"/>
        <path id="path581" style="font-weight:bold;font-size:8px;font-family:Roboto, sans-serif;letter-spacing:1px;fill:#333333" d="M 21.140625,-1.640625 21.90625,-5.6875 h 1.167969 L 21.8125,0 H 20.632812 L 19.707031,-3.8046875 18.78125,0 h -1.179688 l -1.261718,-5.6875 h 1.167968 l 0.769532,4.0390625 0.9375,-4.0390625 h 0.992187 z"/>
      </g>
    </g>
    <g transform="translate(66)" id="g328">
      <g style="font-weight:bold;font-size:8px;font-family:Roboto, sans-serif;letter-spacing:1px;fill:#333333" id="text326" transform="translate(7,40)" aria-label="SLP">
        <path id="path584" style="font-weight:bold;font-size:8px;font-family:Roboto, sans-serif;letter-spacing:1px;fill:#333333" d="m 3.4570313,-1.4921875 q 0,-0.3320312 -0.234375,-0.5078125 -0.234375,-0.1796875 -0.84375,-0.375 -0.6093751,-0.1992188 -0.9648438,-0.390625 -0.96875,-0.5234375 -0.96875,-1.4101562 0,-0.4609375 0.2578125,-0.8203125 Q 0.96484375,-5.359375 1.4492187,-5.5625 1.9375,-5.765625 2.5429688,-5.765625 q 0.609375,0 1.0859375,0.2226563 0.4765624,0.21875 0.7382812,0.6210937 0.265625,0.4023438 0.265625,0.9140625 h -1.171875 q 0,-0.390625 -0.2460937,-0.6054687 -0.2460938,-0.21875 -0.6914063,-0.21875 -0.4296875,0 -0.6679688,0.1835937 -0.2382812,0.1796875 -0.2382812,0.4765625 0,0.2773437 0.2773437,0.4648437 0.2812501,0.1875 0.8242188,0.3515625 1,0.3007813 1.4570312,0.7460938 0.4570313,0.4453125 0.4570313,1.109375 0,0.73828125 -0.5585938,1.16015625 Q 3.515625,0.078125 2.5703125,0.078125 q -0.65625,0 -1.1953125,-0.23828125 -0.5390625,-0.2421875 -0.82421875,-0.66015625 -0.28125,-0.4179687 -0.28125,-0.96875 H 1.4453125 q 0,0.94140625 1.125,0.94140625 0.4179688,0 0.6523438,-0.16796875 0.234375,-0.171875 0.234375,-0.4765625 z"/>
        <path id="path586" style="font-weight:bold;font-size:8px;font-family:Roboto, sans-serif;letter-spacing:1px;fill:#333333" d="M 7.6015625,-0.94140625 H 10.089844 V 0 H 6.4296875 v -5.6875 h 1.171875 z"/>
        <path id="path588" style="font-weight:bold;font-size:8px;font-family:Roboto, sans-serif;letter-spacing:1px;fill:#333333" d="M 12.929688,-2.0039063 V 0 h -1.171875 v -5.6875 h 2.21875 q 0.640625,0 1.125,0.234375 0.488281,0.234375 0.75,0.6679688 0.261718,0.4296875 0.261718,0.9804687 0,0.8359375 -0.574218,1.3203125 -0.570313,0.4804687 -1.582032,0.4804687 z m 0,-0.9492187 h 1.046875 q 0.464843,0 0.707031,-0.21875 0.246094,-0.21875 0.246094,-0.625 0,-0.4179687 -0.246094,-0.6757812 -0.246094,-0.2578125 -0.679688,-0.265625 h -1.074218 z"/>
      </g>
    </g>
    <g transform="translate(98)" id="g332">
      <g style="font-weight:bold;font-size:8px;font-family:Roboto, sans-serif;letter-spacing:1px;fill:#333333" id="text330" transform="translate(6,40)" aria-label="OUT">
        <path id="path591" style="font-weight:bold;font-size:8px;font-family:Roboto, sans-serif;letter-spacing:1px;fill:#333333" d="m 5.1796875,-2.7148438 q 0,0.8398438 -0.296875,1.4726563 -0.296875,0.6328125 -0.8515625,0.9765625 -0.5507812,0.34375 -1.265625,0.34375 -0.7070312,0 -1.2617188,-0.33984375 Q 0.94921875,-0.6015625 0.64453125,-1.2304687 0.33984375,-1.8632812 0.3359375,-2.6835938 v -0.28125 q 0,-0.8398437 0.30078125,-1.4765624 0.3046875,-0.640625 0.85546875,-0.9804688 0.5546875,-0.34375 1.265625,-0.34375 0.7109375,0 1.2617187,0.34375 0.5546875,0.3398438 0.8554688,0.9804688 0.3046875,0.6367187 0.3046875,1.4726562 z m -1.1875,-0.2578125 q 0,-0.8945312 -0.3203125,-1.3593749 -0.3203125,-0.4648438 -0.9140625,-0.4648438 -0.5898437,0 -0.9101563,0.4609375 -0.3203125,0.4570312 -0.3242187,1.34375 v 0.2773437 q 0,0.8710938 0.3203125,1.3515626 0.3203125,0.4804687 0.921875,0.4804687 0.5898438,0 0.90625,-0.4609375 0.3164063,-0.4648437 0.3203125,-1.3515625 z"/>
        <path id="path593" style="font-weight:bold;font-size:8px;font-family:Roboto, sans-serif;letter-spacing:1px;fill:#333333" d="m 11.34375,-5.6875 v 3.7460938 q 0,0.9335937 -0.585937,1.47656245 Q 10.175781,0.078125 9.1640625,0.078125 q -0.9960937,0 -1.5820313,-0.52734375 Q 6.9960937,-0.9765625 6.984375,-1.8984375 V -5.6875 H 8.15625 v 3.7539063 q 0,0.5585937 0.265625,0.8164062 0.2695313,0.25390625 0.7421875,0.25390625 0.9882815,0 1.0039065,-1.03906245 V -5.6875 Z"/>
        <path id="path595" style="font-weight:bold;font-size:8px;font-family:Roboto, sans-serif;letter-spacing:1px;fill:#333333" d="M 17.585937,-4.7382812 H 15.84375 V 0 h -1.171875 v -4.7382812 h -1.71875 V -5.6875 h 4.632812 z"/>
      </g>
    </g>
  </g>
</svg>
