<?xml version="1.0" encoding="UTF-8" standalone="no"?>
<svg xmlns:dc="http://purl.org/dc/elements/1.1/" xmlns:cc="http://creativecommons.org/ns#" xmlns:rdf="http://www.w3.org/1999/02/22-rdf-syntax-ns#" xmlns:svg="http://www.w3.org/2000/svg" xmlns="http://www.w3.org/2000/svg" xmlns:sodipodi="http://sodipodi.sourceforge.net/DTD/sodipodi-0.dtd" xmlns:inkscape="http://www.inkscape.org/namespaces/inkscape" inkscape:version="1.0 (4035a4f, 2020-05-01)" sodipodi:docname="svg_render_VCM-pp.svg" id="svg66687" viewBox="0 0 150 380" height="380" width="150" version="1.1">
  <metadata id="metadata66691">
    <rdf:RDF>
      <cc:Work rdf:about="">
        <dc:format>image/svg+xml</dc:format>
        <dc:type rdf:resource="http://purl.org/dc/dcmitype/StillImage"/>
      </cc:Work>
    </rdf:RDF>
  </metadata>
  <sodipodi:namedview inkscape:current-layer="svg66687" inkscape:window-maximized="0" inkscape:window-y="23" inkscape:window-x="0" inkscape:cy="190" inkscape:cx="75" inkscape:zoom="1.7605263" showgrid="false" id="namedview66689" inkscape:window-height="480" inkscape:window-width="689" inkscape:pageshadow="2" inkscape:pageopacity="0" guidetolerance="10" gridtolerance="10" objecttolerance="10" borderopacity="1" bordercolor="#666666" pagecolor="#ffffff"/>
  
  <defs id="defs66533">
    <symbol viewBox="0 0 60px 60px" id="dial-level-vcm">
      <g id="g66530" transform="translate(30 30)">
        <text id="text66508" transform="rotate(-240) translate(25 0) rotate(240) translate(-2.3 2.5)" font-size="6.0pt">0</text>
        <polyline id="polyline66510" transform="rotate(-210) translate(22 0)" stroke="#333" stroke-width="0.3" points="0,0 3.5,0"/>
        <polyline id="polyline66512" transform="rotate(-180) translate(22 0)" stroke="#333" stroke-width="0.3" points="0,0 3.5,0"/>
        <polyline id="polyline66514" transform="rotate(-150) translate(22 0)" stroke="#333" stroke-width="0.3" points="0,0 3.5,0"/>
        <polyline id="polyline66516" transform="rotate(-120) translate(22 0)" stroke="#333" stroke-width="0.3" points="0,0 3.5,0"/>
        <polyline id="polyline66518" transform="rotate(-90) translate(22 0)" stroke="#333" stroke-width="0.3" points="0,0 3.5,0"/>
        <polyline id="polyline66520" transform="rotate(-60) translate(22 0)" stroke="#333" stroke-width="0.3" points="0,0 3.5,0"/>
        <polyline id="polyline66522" transform="rotate(-30) translate(22 0)" stroke="#333" stroke-width="0.3" points="0,0 3.5,0"/>
        <polyline id="polyline66524" transform="rotate(0) translate(22 0)" stroke="#333" stroke-width="0.3" points="0,0 3.5,0"/>
        <polyline id="polyline66526" transform="rotate(30) translate(22 0)" stroke="#333" stroke-width="0.3" points="0,0 3.5,0"/>
        <polyline id="polyline66528" transform="rotate(60) translate(22 0)" stroke="#333" stroke-width="1" points="0,0 5,0"/>
      </g>
    </symbol>
  </defs>
  <svg version="1.1" id="svg66537" width="100%" height="100%">
    <path class="module-background background-fill" d="M 0,0 H 150 V 380 H 0 Z" style="fill:#dddddd" id="rect66535"/>
  </svg>
  <svg version="1.1" id="svg66545" width="100%" height="100%">
    <path class="module-border-inner" d="M 1,1 H 149 V 379 H 1 V 1" style="fill:none;stroke:#e4e4e4;stroke-width:0.5" id="polyline66539"/>
    <path class="module-border-middle" d="m 0.5,0.5 h 149 v 379 H 0.5 V 0.5" style="fill:none;stroke:#ebebeb;stroke-width:0.8" id="polyline66541"/>
    <path class="module-border-outer" d="M 0,0 H 150 V 380 H 0 V 0" style="fill:none;stroke:#f2f2f2;stroke-width:1" id="polyline66543"/>
  </svg>
  <g class="title" style="font-weight:normal;font-size:16px;font-family:Comfortaa, sans-serif;letter-spacing:4px;text-anchor:middle;fill:#333333" id="text66547" aria-label="VCM">
    <path id="path67083" style="font-weight:normal;font-size:16px;font-family:Comfortaa, sans-serif;letter-spacing:4px;text-anchor:middle;fill:#333333" d="m 62.24825,6.504 q 0.256,0 0.4,0.16 0.16,0.16 0.16,0.4 0,0.16 -0.08,0.352 l -4.768,11.184 q -0.176,0.4 -0.56,0.4 -0.208,0 -0.352,-0.08 -0.128,-0.096 -0.224,-0.32 l -4.752,-11.12 q -0.096,-0.24 -0.096,-0.416 0,-0.256 0.16,-0.4 0.176,-0.16 0.448,-0.16 0.416,0 0.576,0.4 l 4.24,10.144 4.224,-10.112 q 0.096,-0.24 0.24,-0.336 0.144,-0.096 0.384,-0.096 z"/>
    <path id="path67085" style="font-weight:normal;font-size:16px;font-family:Comfortaa, sans-serif;letter-spacing:4px;text-anchor:middle;fill:#333333" d="m 73.5285,19.16 q -1.696,0 -3.12,-0.864 -1.424,-0.864 -2.272,-2.336 -0.832,-1.472 -0.832,-3.216 0,-1.728 0.832,-3.2 0.832,-1.472 2.256,-2.336 1.424,-0.864 3.136,-0.864 1.152,0 2.096,0.336 0.944,0.336 1.824,1.072 0.176,0.128 0.176,0.368 0,0.128 -0.064,0.24 -0.064,0.096 -0.176,0.144 -0.032,0.112 -0.144,0.176 -0.112,0.064 -0.24,0.064 -0.24,0 -0.4,-0.144 -0.624,-0.56 -1.36,-0.816 -0.736,-0.256 -1.712,-0.256 -1.344,0 -2.496,0.72 -1.152,0.704 -1.84,1.904 -0.672,1.2 -0.672,2.592 0,1.424 0.672,2.624 0.672,1.2 1.824,1.904 1.152,0.704 2.512,0.704 1.744,0 3.152,-1.12 0.176,-0.128 0.352,-0.128 0.24,0 0.416,0.176 0.176,0.16 0.176,0.432 0,0.256 -0.176,0.448 -1.504,1.376 -3.92,1.376 z"/>
    <path id="path67087" style="font-weight:normal;font-size:16px;font-family:Comfortaa, sans-serif;letter-spacing:4px;text-anchor:middle;fill:#333333" d="m 96.14425,6.504 q 0.256,0 0.432,0.176 0.176,0.176 0.176,0.448 v 11.248 q 0,0.256 -0.176,0.448 -0.176,0.176 -0.432,0.176 -0.272,0 -0.464,-0.176 -0.176,-0.192 -0.176,-0.448 V 9.32 l -4.448,9.088 q -0.192,0.304 -0.544,0.304 -0.4,0 -0.576,-0.384 l -4.432,-8.864 v 8.912 q 0,0.256 -0.176,0.448 -0.176,0.176 -0.448,0.176 -0.256,0 -0.448,-0.176 -0.176,-0.192 -0.176,-0.448 V 7.128 q 0,-0.272 0.176,-0.448 0.192,-0.176 0.448,-0.176 0.368,0 0.56,0.32 l 5.12,10.176 5.024,-10.176 q 0.192,-0.32 0.56,-0.32 z"/>
  </g>
  <g transform="translate(0,374)" id="g66553">
    <g class="brand" style="font-weight:bold;font-size:10.6667px;font-family:Audiowide, sans-serif;letter-spacing:2px;text-anchor:middle;fill:#333333" id="text66549" transform="translate(75)" aria-label="BOGAUDIO">
      <path id="path67065" style="font-weight:bold;font-size:10.6667px;font-family:Audiowide, sans-serif;letter-spacing:2px;text-anchor:middle;fill:#333333" d="m -31.42716,-1.6406302 q 0,0.2500008 -0.08854,0.53646 -0.08333,0.28645928 -0.281251,0.53125172 -0.192709,0.24479244 -0.50521,0.41145964 Q -32.614664,0 -33.067791,0 h -5.140641 q -0.145834,0 -0.270834,-0.0520835 -0.125001,-0.0520835 -0.218751,-0.14062544 -0.08854,-0.0937503 -0.140625,-0.21875069 -0.05208,-0.1250004 -0.05208,-0.27083419 V -6.7864798 q 0,-0.1406254 0.05208,-0.2656258 0.05208,-0.1250004 0.140625,-0.2187507 0.09375,-0.09375 0.218751,-0.1458338 0.125,-0.052083 0.270834,-0.052083 h 4.531264 q 0.250001,0 0.53646,0.088542 0.28646,0.088542 0.531252,0.2864592 0.250001,0.1927089 0.41146,0.5052099 0.166667,0.312501 0.166667,0.7656274 v 0.2552092 q 0,0.3593761 -0.119792,0.7760441 -0.119792,0.4114596 -0.385418,0.7812525 0.229167,0.1406254 0.427085,0.3385427 0.203125,0.1979173 0.354167,0.4583348 0.151043,0.2604175 0.239585,0.5885435 0.08854,0.328126 0.08854,0.7239606 z m -1.354171,-0.2604175 q 0,-0.2656258 -0.08333,-0.4739598 -0.08333,-0.2135423 -0.234376,-0.3645845 -0.151042,-0.1510421 -0.364584,-0.2291674 -0.213543,-0.083334 -0.479168,-0.083334 h -3.052093 v -1.3645876 h 2.442716 q 0.265625,0 0.479168,-0.078125 0.213542,-0.083334 0.364584,-0.2343757 0.151042,-0.1510422 0.229168,-0.3593761 0.08333,-0.2135424 0.08333,-0.4791682 v -0.2552092 q 0,-0.2916675 -0.281251,-0.2916675 h -3.859387 v 4.7604317 h 4.468764 q 0.03646,0 0.08854,-0.00521 0.05208,-0.00521 0.09375,-0.03125 0.04167,-0.026042 0.07292,-0.088542 0.03125,-0.0625 0.03125,-0.1718756 z"/>
      <path id="path67067" style="font-weight:bold;font-size:10.6667px;font-family:Audiowide, sans-serif;letter-spacing:2px;text-anchor:middle;fill:#333333" d="m -20.416715,-3.0208429 q 0,0.6822938 -0.234376,1.2552123 -0.234375,0.5729185 -0.651043,0.98958648 -0.416668,0.41666798 -0.989587,0.65104373 -0.56771,0.22916739 -1.239587,0.22916739 h -1.833339 q -0.671877,0 -1.244796,-0.22916739 -0.572918,-0.23437575 -0.989586,-0.65104373 -0.416668,-0.41666798 -0.656252,-0.98958648 -0.234376,-0.5729185 -0.234376,-1.2552123 v -1.4270878 q 0,-0.6770855 0.234376,-1.250004 0.239584,-0.5781268 0.656252,-0.9895864 0.416668,-0.416668 0.989586,-0.6510437 0.572919,-0.2343758 1.244796,-0.2343758 h 1.833339 q 0.671877,0 1.239587,0.2343758 0.572919,0.2343757 0.989587,0.6510437 0.416668,0.4114596 0.651043,0.9895864 0.234376,0.5729185 0.234376,1.250004 z m -1.354171,-1.4270878 q 0,-0.401043 -0.130209,-0.7239606 -0.125,-0.3281261 -0.359376,-0.5572935 -0.229167,-0.2343757 -0.557293,-0.3593761 -0.322918,-0.1302087 -0.713544,-0.1302087 h -1.833339 q -0.395835,0 -0.723961,0.1302087 -0.322918,0.1250004 -0.557293,0.3593761 -0.234376,0.2291674 -0.364585,0.5572935 -0.125,0.3229176 -0.125,0.7239606 v 1.4270878 q 0,0.401043 0.125,0.729169 0.130209,0.3229177 0.364585,0.5572934 0.234375,0.2291674 0.557293,0.3593762 0.328126,0.1250004 0.723961,0.1250004 h 1.822922 q 0.395835,0 0.718752,-0.1250004 0.328126,-0.1302088 0.562502,-0.3593762 0.234376,-0.2343757 0.359376,-0.5572934 0.130209,-0.328126 0.130209,-0.729169 z"/>
      <path id="path67069" style="font-weight:bold;font-size:10.6667px;font-family:Audiowide, sans-serif;letter-spacing:2px;text-anchor:middle;fill:#333333" d="m -9.6979369,-0.68229382 q 0,0.14583379 -0.052084,0.27083419 -0.052084,0.12500039 -0.1458338,0.21875069 -0.088542,0.0885419 -0.2135428,0.14062544 Q -10.234397,0 -10.380231,0 h -4.885432 q -0.1875,0 -0.406251,-0.0416668 -0.213542,-0.04687515 -0.427085,-0.14062544 -0.208334,-0.0937503 -0.401043,-0.23958409 -0.192709,-0.15104215 -0.343751,-0.35937614 -0.145834,-0.21354234 -0.234376,-0.48958483 -0.08854,-0.2812509 -0.08854,-0.6302104 v -3.6666782 q 0,-0.1875006 0.04167,-0.401043 0.04687,-0.2187506 0.140626,-0.4270846 0.09375,-0.2135424 0.244792,-0.4062513 0.151042,-0.192709 0.359376,-0.3385428 0.213543,-0.1510421 0.489585,-0.239584 0.276043,-0.088542 0.625002,-0.088542 h 5.5052259 v 1.354171 h -5.5052259 q -0.265626,0 -0.406251,0.1406254 -0.140626,0.1406254 -0.140626,0.416668 v 3.6562615 q 0,0.2604175 0.140626,0.4062513 0.145834,0.1406255 0.406251,0.1406255 h 4.213555 V -3.052093 h -3.604178 v -1.3645876 h 4.276055 q 0.145834,0 0.270834,0.057292 0.1250009,0.052083 0.2135428,0.1458338 0.09375,0.09375 0.1458338,0.2187507 0.052084,0.1197921 0.052084,0.2604175 z"/>
      <path id="path67071" style="font-weight:bold;font-size:10.6667px;font-family:Audiowide, sans-serif;letter-spacing:2px;text-anchor:middle;fill:#333333" d="M 1.052091,0 H -0.30207998 V -1.8333391 H -5.0625117 V 0 h -1.3541709 v -3.7343868 q 0,-0.8177109 0.2812509,-1.5052131 0.2812508,-0.6875022 0.7812524,-1.1822954 0.5000016,-0.4947932 1.1822954,-0.7708358 0.6822939,-0.2760425 1.4895881,-0.2760425 h 3.05209295 q 0.14062544,0 0.26562583,0.052083 0.1250004,0.052084 0.2187507,0.1458338 0.0937503,0.09375 0.14583382,0.2187507 0.052084,0.1250004 0.052084,0.2656258 z m -6.1146027,-3.1875101 h 4.76043172 V -6.1146026 H -2.6822958 q -0.0625,0 -0.2656259,0.020833 -0.1979173,0.015625 -0.4635431,0.088542 -0.2604175,0.072917 -0.5520851,0.223959 -0.2916676,0.1510422 -0.53646,0.416668 -0.2447924,0.2656259 -0.4062513,0.6666688 -0.1562505,0.3958346 -0.1562505,0.9635447 z"/>
      <path id="path67073" style="font-weight:bold;font-size:10.6667px;font-family:Audiowide, sans-serif;letter-spacing:2px;text-anchor:middle;fill:#333333" d="m 11.937537,-0.68229382 q 0,0.14583379 -0.05208,0.27083419 -0.05208,0.12500039 -0.145833,0.21875069 -0.09375,0.0885419 -0.218751,0.14062544 Q 11.395868,0 11.255243,0 H 8.20315 Q 7.770857,0 7.3281473,-0.0937503 6.8854376,-0.18750059 6.4687696,-0.38020953 6.0573099,-0.57812683 5.6927255,-0.88021111 5.328141,-1.1822954 5.0520984,-1.593755 4.7812642,-2.010423 4.6250137,-2.5416747 4.4687633,-3.0781347 4.4687633,-3.7343868 v -3.7343868 h 1.3541709 v 3.7343868 q 0,0.5729185 0.1562505,0.9687531 0.1614588,0.3958345 0.4062513,0.6614604 0.2447924,0.2656258 0.53646,0.416668 0.2916676,0.1510421 0.5520851,0.223959 0.2656258,0.072917 0.4635431,0.09375 0.2031257,0.015625 0.2656258,0.015625 h 2.380216 v -6.1146027 h 1.354171 z"/>
      <path id="path67075" style="font-weight:bold;font-size:10.6667px;font-family:Audiowide, sans-serif;letter-spacing:2px;text-anchor:middle;fill:#333333" d="m 22.968813,-3.1250099 q 0,0.6822939 -0.239584,1.2552123 -0.234376,0.5729185 -0.651044,0.98958649 -0.416668,0.41145963 -0.989587,0.64583537 Q 20.51568,0 19.843803,0 h -3.656262 q -0.145834,0 -0.270834,-0.0520835 -0.125,-0.0520835 -0.218751,-0.14062544 -0.08854,-0.0937503 -0.140625,-0.21875069 -0.05208,-0.1250004 -0.05208,-0.27083419 V -6.7864798 q 0,-0.1406254 0.05208,-0.2656258 0.05208,-0.1250004 0.140625,-0.2187507 0.09375,-0.09375 0.218751,-0.1458338 0.125,-0.052083 0.270834,-0.052083 h 3.656262 q 0.671877,0 1.244795,0.2343757 0.572919,0.2343758 0.989587,0.6510438 0.416668,0.4114596 0.651044,0.9895864 0.239584,0.5729185 0.239584,1.250004 z m -1.354171,-1.2187538 q 0,-0.3958346 -0.130209,-0.7239606 -0.125,-0.3281261 -0.359376,-0.5572935 -0.234376,-0.2343757 -0.562502,-0.3593761 -0.322918,-0.1302087 -0.718752,-0.1302087 h -2.984385 v 4.7604317 h 2.984385 q 0.395834,0 0.718752,-0.1250004 0.328126,-0.1302088 0.562502,-0.3593762 0.234376,-0.2343757 0.359376,-0.5572934 0.130209,-0.328126 0.130209,-0.729169 z"/>
      <path id="path67077" style="font-weight:bold;font-size:10.6667px;font-family:Audiowide, sans-serif;letter-spacing:2px;text-anchor:middle;fill:#333333" d="m 27.671946,0 h -1.35417 v -7.4687736 h 1.35417 z"/>
      <path id="path67079" style="font-weight:bold;font-size:10.6667px;font-family:Audiowide, sans-serif;letter-spacing:2px;text-anchor:middle;fill:#333333" d="m 39.104269,-3.0208429 q 0,0.6822938 -0.234376,1.2552123 -0.234376,0.5729185 -0.651044,0.98958648 -0.416668,0.41666798 -0.989586,0.65104373 Q 36.661553,0.104167 35.989676,0.104167 h -1.83334 q -0.671877,0 -1.244795,-0.22916739 -0.572919,-0.23437575 -0.989587,-0.65104373 -0.416668,-0.41666798 -0.656252,-0.98958648 -0.234375,-0.5729185 -0.234375,-1.2552123 v -1.4270878 q 0,-0.6770855 0.234375,-1.250004 0.239584,-0.5781268 0.656252,-0.9895864 0.416668,-0.416668 0.989587,-0.6510437 0.572918,-0.2343758 1.244795,-0.2343758 h 1.83334 q 0.671877,0 1.239587,0.2343758 0.572918,0.2343757 0.989586,0.6510437 0.416668,0.4114596 0.651044,0.9895864 0.234376,0.5729185 0.234376,1.250004 z m -1.354171,-1.4270878 q 0,-0.401043 -0.130209,-0.7239606 -0.125,-0.3281261 -0.359376,-0.5572935 -0.229167,-0.2343757 -0.557294,-0.3593761 -0.322917,-0.1302087 -0.713543,-0.1302087 h -1.83334 q -0.395834,0 -0.72396,0.1302087 -0.322918,0.1250004 -0.557294,0.3593761 -0.234375,0.2291674 -0.364584,0.5572935 -0.125,0.3229176 -0.125,0.7239606 v 1.4270878 q 0,0.401043 0.125,0.729169 0.130209,0.3229177 0.364584,0.5572934 0.234376,0.2291674 0.557294,0.3593762 0.328126,0.1250004 0.72396,0.1250004 h 1.822923 q 0.395834,0 0.718752,-0.1250004 0.328126,-0.1302088 0.562502,-0.3593762 0.234376,-0.2343757 0.359376,-0.5572934 0.130209,-0.328126 0.130209,-0.729169 z"/>
    </g>
    <path class="background-fill" d="M 0,0 H 3 V 3 H 0 Z" style="fill:#dddddd" transform="translate(59.5,-5)" id="rect66551"/>
  </g>
  <g transform="translate(10,33)" id="g66571">
    <path d="m 5,0 h 53 c 2.77,0 5,2.23 5,5 v 33 c 0,2.77 -2.23,5 -5,5 H 5 C 2.23,43 0,40.77 0,38 V 5 C 0,2.23 2.23,0 5,0 Z" style="fill:#fafafa" id="rect66557"/>
    <g transform="translate(1)" id="g66563">
      <g transform="translate(3,4)" id="g66559"/>
      <g style="font-weight:bold;font-size:8px;font-family:Roboto, sans-serif;letter-spacing:2px;fill:#333333" id="text66561" transform="translate(10,39)" aria-label="IN">
        <path id="path67055" style="font-weight:bold;font-size:8px;font-family:Roboto, sans-serif;letter-spacing:2px;fill:#333333" d="M 1.7539062,0 H 0.58203125 V -5.6875 H 1.7539062 Z"/>
        <path id="path67057" style="font-weight:bold;font-size:8px;font-family:Roboto, sans-serif;letter-spacing:2px;fill:#333333" d="m 9.4609375,0 h -1.171875 l -2.28125,-3.7421875 V 0 h -1.171875 v -5.6875 h 1.171875 l 2.2851563,3.75 v -3.75 h 1.1679687 z"/>
      </g>
    </g>
    <g transform="translate(32)" id="g66569">
      <g transform="translate(3,4)" id="g66565"/>
      <g style="font-weight:bold;font-size:8px;font-family:Roboto, sans-serif;letter-spacing:2px;fill:#333333" id="text66567" transform="translate(8.5,39)" aria-label="CV">
        <path id="path67060" style="font-weight:bold;font-size:8px;font-family:Roboto, sans-serif;letter-spacing:2px;fill:#333333" d="M 4.9726562,-1.8945312 Q 4.90625,-0.9765625 4.2929687,-0.44921875 3.6835938,0.078125 2.6835938,0.078125 q -1.0937501,0 -1.7226563,-0.734375 -0.625,-0.7382812 -0.625,-2.0234375 v -0.3476563 q 0,-0.8203125 0.2890625,-1.4453124 0.2890625,-0.625 0.8242187,-0.9570313 0.5390625,-0.3359375 1.2500001,-0.3359375 0.984375,0 1.5859374,0.5273438 0.6015625,0.5273437 0.6953125,1.4804687 H 3.8085938 Q 3.765625,-4.3085937 3.5,-4.5546875 q -0.2617187,-0.25 -0.8007812,-0.25 -0.5859375,0 -0.8789063,0.421875 -0.2890625,0.4179687 -0.296875,1.3007812 v 0.4296875 q 0,0.9218751 0.2773437,1.3476563 0.2812501,0.42578125 0.8828126,0.42578125 0.5429687,0 0.8085937,-0.24609375 0.2695313,-0.25 0.3085938,-0.7695312 z"/>
        <path id="path67062" style="font-weight:bold;font-size:8px;font-family:Roboto, sans-serif;letter-spacing:2px;fill:#333333" d="M 9.84375,-1.4101562 11.132813,-5.6875 H 12.4375 L 10.457031,0 H 9.234375 L 7.2617187,-5.6875 H 8.5625 Z"/>
      </g>
    </g>
  </g>
  <g transform="translate(89.5,35.5)" id="g66573"/>
  <g transform="translate(78.5,24.5)" id="use66575">
    <g transform="translate(30,30)" id="g66785">
      <g style="font-weight:bold;font-size:8px;font-family:Roboto, sans-serif;fill:#333333" id="text66763" transform="translate(-14.8,24.150635)" aria-label="0">
        <path id="path67041" style="font-weight:bold;font-size:8px;font-family:Roboto, sans-serif;fill:#333333" d="m 4.2148437,-2.3515625 q 0,1.1796875 -0.4882812,1.8046875 -0.4882812,0.625 -1.4296875,0.625 -0.9296875,0 -1.421875,-0.61328125 Q 0.3828125,-1.1484375 0.37109375,-2.2929688 v -1.046875 q 0,-1.1914062 0.4921875,-1.8085937 Q 1.359375,-5.765625 2.2890625,-5.765625 q 0.9296875,0 1.421875,0.6132813 0.4921875,0.609375 0.5039062,1.7539062 z M 3.0859375,-3.5 q 0,-0.7070312 -0.1953125,-1.0273437 -0.1914062,-0.3242188 -0.6015625,-0.3242188 -0.3984375,0 -0.5898438,0.3085938 Q 1.5117187,-4.2382812 1.5,-3.5859375 v 1.3828125 q 0,0.6953125 0.1875,1.0351563 0.1914062,0.33593745 0.609375,0.33593745 0.4140625,0 0.5976563,-0.32421875 0.1835937,-0.3242187 0.1914062,-0.9921875 z"/>
      </g>
      <path d="M 0,0 H 3.5" style="stroke:#333333;stroke-width:0.3" transform="rotate(150,-11,2.9474411)" id="polyline66765"/>
      <path d="M 0,0 H 3.5" style="stroke:#333333;stroke-width:0.3" transform="rotate(180,-11,0)" id="polyline66767"/>
      <path d="M 0,0 H 3.5" style="stroke:#333333;stroke-width:0.3" transform="rotate(-150,-11,-2.9474411)" id="polyline66769"/>
      <path d="M 0,0 H 3.5" style="stroke:#333333;stroke-width:0.3" transform="rotate(-120,-11,-6.350853)" id="polyline66771"/>
      <path d="M 0,0 H 3.5" style="stroke:#333333;stroke-width:0.3" transform="rotate(-90,-11,-11)" id="polyline66773"/>
      <path d="M 0,0 H 3.5" style="stroke:#333333;stroke-width:0.3" transform="rotate(-60,-11,-19.052559)" id="polyline66775"/>
      <path d="M 0,0 H 3.5" style="stroke:#333333;stroke-width:0.3" transform="rotate(-30,-11,-41.052559)" id="polyline66777"/>
      <path d="M 0,0 H 3.5" style="stroke:#333333;stroke-width:0.3" transform="translate(22)" id="polyline66779"/>
      <path d="M 0,0 H 3.5" style="stroke:#333333;stroke-width:0.3" transform="rotate(30,-11,41.052559)" id="polyline66781"/>
      <path d="M 0,0 H 5" style="stroke:#333333;stroke-width:1" transform="rotate(60,-11,19.052559)" id="polyline66783"/>
    </g>
  </g>
  <g style="font-weight:bold;font-size:6.66667px;font-family:Roboto, sans-serif;letter-spacing:2px;fill:#333333" id="text66577" transform="rotate(90)" aria-label="CH1">
    <path id="path67034" style="font-weight:bold;font-size:6.66667px;font-family:Roboto, sans-serif;letter-spacing:2px;fill:#333333" d="m 49.943881,-140.57878 q -0.05534,0.76498 -0.566406,1.20443 -0.507813,0.43945 -1.341147,0.43945 -0.911458,0 -1.435547,-0.61198 -0.520834,-0.61523 -0.520834,-1.68619 v -0.28972 q 0,-0.68359 0.240886,-1.20443 0.240885,-0.52083 0.686849,-0.79752 0.449219,-0.27995 1.041667,-0.27995 0.820313,0 1.321615,0.43945 0.501303,0.43946 0.579428,1.23373 h -0.976563 q -0.03581,-0.45899 -0.257162,-0.66406 -0.218099,-0.20834 -0.667318,-0.20834 -0.488281,0 -0.732422,0.35156 -0.240885,0.34831 -0.247396,1.08399 v 0.35807 q 0,0.76823 0.23112,1.12305 0.234375,0.35482 0.735677,0.35482 0.452475,0 0.673829,-0.20508 0.224609,-0.20833 0.257161,-0.64128 z"/>
    <path id="path67036" style="font-weight:bold;font-size:6.66667px;font-family:Roboto, sans-serif;letter-spacing:2px;fill:#333333" d="m 56.442582,-139 h -0.976563 v -2.03125 H 53.561721 V -139 h -0.976563 v -4.73959 h 0.976563 v 1.92058 h 1.904298 v -1.92058 h 0.976563 z"/>
    <path id="path67038" style="font-weight:bold;font-size:6.66667px;font-family:Roboto, sans-serif;letter-spacing:2px;fill:#333333" d="m 61.482948,-139 h -0.940756 v -3.6263 l -1.123047,0.3483 v -0.76497 l 1.962891,-0.70313 h 0.100912 z"/>
  </g>
  <g transform="translate(10,97)" id="g66595">
    <path d="m 5,0 h 53 c 2.77,0 5,2.23 5,5 v 33 c 0,2.77 -2.23,5 -5,5 H 5 C 2.23,43 0,40.77 0,38 V 5 C 0,2.23 2.23,0 5,0 Z" style="fill:#fafafa" id="rect66581"/>
    <g transform="translate(1)" id="g66587">
      <g transform="translate(3,4)" id="g66583"/>
      <g style="font-weight:bold;font-size:8px;font-family:Roboto, sans-serif;letter-spacing:2px;fill:#333333" id="text66585" transform="translate(10,39)" aria-label="IN">
        <path id="path67024" style="font-weight:bold;font-size:8px;font-family:Roboto, sans-serif;letter-spacing:2px;fill:#333333" d="M 1.7539062,0 H 0.58203125 V -5.6875 H 1.7539062 Z"/>
        <path id="path67026" style="font-weight:bold;font-size:8px;font-family:Roboto, sans-serif;letter-spacing:2px;fill:#333333" d="m 9.4609375,0 h -1.171875 l -2.28125,-3.7421875 V 0 h -1.171875 v -5.6875 h 1.171875 l 2.2851563,3.75 v -3.75 h 1.1679687 z"/>
      </g>
    </g>
    <g transform="translate(32)" id="g66593">
      <g transform="translate(3,4)" id="g66589"/>
      <g style="font-weight:bold;font-size:8px;font-family:Roboto, sans-serif;letter-spacing:2px;fill:#333333" id="text66591" transform="translate(8.5,39)" aria-label="CV">
        <path id="path67029" style="font-weight:bold;font-size:8px;font-family:Roboto, sans-serif;letter-spacing:2px;fill:#333333" d="M 4.9726562,-1.8945312 Q 4.90625,-0.9765625 4.2929687,-0.44921875 3.6835938,0.078125 2.6835938,0.078125 q -1.0937501,0 -1.7226563,-0.734375 -0.625,-0.7382812 -0.625,-2.0234375 v -0.3476563 q 0,-0.8203125 0.2890625,-1.4453124 0.2890625,-0.625 0.8242187,-0.9570313 0.5390625,-0.3359375 1.2500001,-0.3359375 0.984375,0 1.5859374,0.5273438 0.6015625,0.5273437 0.6953125,1.4804687 H 3.8085938 Q 3.765625,-4.3085937 3.5,-4.5546875 q -0.2617187,-0.25 -0.8007812,-0.25 -0.5859375,0 -0.8789063,0.421875 -0.2890625,0.4179687 -0.296875,1.3007812 v 0.4296875 q 0,0.9218751 0.2773437,1.3476563 0.2812501,0.42578125 0.8828126,0.42578125 0.5429687,0 0.8085937,-0.24609375 0.2695313,-0.25 0.3085938,-0.7695312 z"/>
        <path id="path67031" style="font-weight:bold;font-size:8px;font-family:Roboto, sans-serif;letter-spacing:2px;fill:#333333" d="M 9.84375,-1.4101562 11.132813,-5.6875 H 12.4375 L 10.457031,0 H 9.234375 L 7.2617187,-5.6875 H 8.5625 Z"/>
      </g>
    </g>
  </g>
  <g transform="translate(89.5,99.5)" id="g66597"/>
  <g transform="translate(78.5,88.5)" id="use66599">
    <g transform="translate(30,30)" id="g66811">
      <g style="font-weight:bold;font-size:8px;font-family:Roboto, sans-serif;fill:#333333" id="text66789" transform="translate(-14.8,24.150635)" aria-label="0">
        <path id="path67010" style="font-weight:bold;font-size:8px;font-family:Roboto, sans-serif;fill:#333333" d="m 4.2148437,-2.3515625 q 0,1.1796875 -0.4882812,1.8046875 -0.4882812,0.625 -1.4296875,0.625 -0.9296875,0 -1.421875,-0.61328125 Q 0.3828125,-1.1484375 0.37109375,-2.2929688 v -1.046875 q 0,-1.1914062 0.4921875,-1.8085937 Q 1.359375,-5.765625 2.2890625,-5.765625 q 0.9296875,0 1.421875,0.6132813 0.4921875,0.609375 0.5039062,1.7539062 z M 3.0859375,-3.5 q 0,-0.7070312 -0.1953125,-1.0273437 -0.1914062,-0.3242188 -0.6015625,-0.3242188 -0.3984375,0 -0.5898438,0.3085938 Q 1.5117187,-4.2382812 1.5,-3.5859375 v 1.3828125 q 0,0.6953125 0.1875,1.0351563 0.1914062,0.33593745 0.609375,0.33593745 0.4140625,0 0.5976563,-0.32421875 0.1835937,-0.3242187 0.1914062,-0.9921875 z"/>
      </g>
      <path d="M 0,0 H 3.5" style="stroke:#333333;stroke-width:0.3" transform="rotate(150,-11,2.9474411)" id="polyline66791"/>
      <path d="M 0,0 H 3.5" style="stroke:#333333;stroke-width:0.3" transform="rotate(180,-11,0)" id="polyline66793"/>
      <path d="M 0,0 H 3.5" style="stroke:#333333;stroke-width:0.3" transform="rotate(-150,-11,-2.9474411)" id="polyline66795"/>
      <path d="M 0,0 H 3.5" style="stroke:#333333;stroke-width:0.3" transform="rotate(-120,-11,-6.350853)" id="polyline66797"/>
      <path d="M 0,0 H 3.5" style="stroke:#333333;stroke-width:0.3" transform="rotate(-90,-11,-11)" id="polyline66799"/>
      <path d="M 0,0 H 3.5" style="stroke:#333333;stroke-width:0.3" transform="rotate(-60,-11,-19.052559)" id="polyline66801"/>
      <path d="M 0,0 H 3.5" style="stroke:#333333;stroke-width:0.3" transform="rotate(-30,-11,-41.052559)" id="polyline66803"/>
      <path d="M 0,0 H 3.5" style="stroke:#333333;stroke-width:0.3" transform="translate(22)" id="polyline66805"/>
      <path d="M 0,0 H 3.5" style="stroke:#333333;stroke-width:0.3" transform="rotate(30,-11,41.052559)" id="polyline66807"/>
      <path d="M 0,0 H 5" style="stroke:#333333;stroke-width:1" transform="rotate(60,-11,19.052559)" id="polyline66809"/>
    </g>
  </g>
  <g style="font-weight:bold;font-size:6.66667px;font-family:Roboto, sans-serif;letter-spacing:2px;fill:#333333" id="text66601" transform="rotate(90)" aria-label="CH2">
    <path id="path67003" style="font-weight:bold;font-size:6.66667px;font-family:Roboto, sans-serif;letter-spacing:2px;fill:#333333" d="m 113.94389,-140.57878 q -0.0553,0.76498 -0.56641,1.20443 -0.50781,0.43945 -1.34115,0.43945 -0.91146,0 -1.43555,-0.61198 -0.52083,-0.61523 -0.52083,-1.68619 v -0.28972 q 0,-0.68359 0.24089,-1.20443 0.24088,-0.52083 0.68685,-0.79752 0.44921,-0.27995 1.04166,-0.27995 0.82032,0 1.32162,0.43945 0.5013,0.43946 0.57943,1.23373 h -0.97657 q -0.0358,-0.45899 -0.25716,-0.66406 -0.2181,-0.20834 -0.66732,-0.20834 -0.48828,0 -0.73242,0.35156 -0.24088,0.34831 -0.2474,1.08399 v 0.35807 q 0,0.76823 0.23112,1.12305 0.23438,0.35482 0.73568,0.35482 0.45248,0 0.67383,-0.20508 0.22461,-0.20833 0.25716,-0.64128 z"/>
    <path id="path67005" style="font-weight:bold;font-size:6.66667px;font-family:Roboto, sans-serif;letter-spacing:2px;fill:#333333" d="m 120.44259,-139 h -0.97657 v -2.03125 h -1.9043 V -139 h -0.97656 v -4.73959 h 0.97656 v 1.92058 h 1.9043 v -1.92058 h 0.97657 z"/>
    <path id="path67007" style="font-weight:bold;font-size:6.66667px;font-family:Roboto, sans-serif;letter-spacing:2px;fill:#333333" d="m 126.44649,-139 h -3.2487 v -0.64453 l 1.53321,-1.63412 q 0.31575,-0.34505 0.46549,-0.60221 0.153,-0.25716 0.153,-0.48828 0,-0.31576 -0.15951,-0.49479 -0.1595,-0.1823 -0.45573,-0.1823 -0.31901,0 -0.50455,0.22136 -0.1823,0.2181 -0.1823,0.57617 h -0.94401 q 0,-0.43294 0.20508,-0.79102 0.20833,-0.35807 0.58594,-0.55989 0.3776,-0.20508 0.85612,-0.20508 0.73242,0 1.13607,0.35156 0.4069,0.35157 0.4069,0.99284 0,0.35156 -0.18229,0.71615 -0.18229,0.36458 -0.625,0.84961 l -1.07748,1.13607 h 2.03776 z"/>
  </g>
  <g transform="translate(10,161)" id="g66619">
    <path d="m 5,0 h 53 c 2.77,0 5,2.23 5,5 v 33 c 0,2.77 -2.23,5 -5,5 H 5 C 2.23,43 0,40.77 0,38 V 5 C 0,2.23 2.23,0 5,0 Z" style="fill:#fafafa" id="rect66605"/>
    <g transform="translate(1)" id="g66611">
      <g transform="translate(3,4)" id="g66607"/>
      <g style="font-weight:bold;font-size:8px;font-family:Roboto, sans-serif;letter-spacing:2px;fill:#333333" id="text66609" transform="translate(10,39)" aria-label="IN">
        <path id="path66993" style="font-weight:bold;font-size:8px;font-family:Roboto, sans-serif;letter-spacing:2px;fill:#333333" d="M 1.7539062,0 H 0.58203125 V -5.6875 H 1.7539062 Z"/>
        <path id="path66995" style="font-weight:bold;font-size:8px;font-family:Roboto, sans-serif;letter-spacing:2px;fill:#333333" d="m 9.4609375,0 h -1.171875 l -2.28125,-3.7421875 V 0 h -1.171875 v -5.6875 h 1.171875 l 2.2851563,3.75 v -3.75 h 1.1679687 z"/>
      </g>
    </g>
    <g transform="translate(32)" id="g66617">
      <g transform="translate(3,4)" id="g66613"/>
      <g style="font-weight:bold;font-size:8px;font-family:Roboto, sans-serif;letter-spacing:2px;fill:#333333" id="text66615" transform="translate(8.5,39)" aria-label="CV">
        <path id="path66998" style="font-weight:bold;font-size:8px;font-family:Roboto, sans-serif;letter-spacing:2px;fill:#333333" d="M 4.9726562,-1.8945312 Q 4.90625,-0.9765625 4.2929687,-0.44921875 3.6835938,0.078125 2.6835938,0.078125 q -1.0937501,0 -1.7226563,-0.734375 -0.625,-0.7382812 -0.625,-2.0234375 v -0.3476563 q 0,-0.8203125 0.2890625,-1.4453124 0.2890625,-0.625 0.8242187,-0.9570313 0.5390625,-0.3359375 1.2500001,-0.3359375 0.984375,0 1.5859374,0.5273438 0.6015625,0.5273437 0.6953125,1.4804687 H 3.8085938 Q 3.765625,-4.3085937 3.5,-4.5546875 q -0.2617187,-0.25 -0.8007812,-0.25 -0.5859375,0 -0.8789063,0.421875 -0.2890625,0.4179687 -0.296875,1.3007812 v 0.4296875 q 0,0.9218751 0.2773437,1.3476563 0.2812501,0.42578125 0.8828126,0.42578125 0.5429687,0 0.8085937,-0.24609375 0.2695313,-0.25 0.3085938,-0.7695312 z"/>
        <path id="path67000" style="font-weight:bold;font-size:8px;font-family:Roboto, sans-serif;letter-spacing:2px;fill:#333333" d="M 9.84375,-1.4101562 11.132813,-5.6875 H 12.4375 L 10.457031,0 H 9.234375 L 7.2617187,-5.6875 H 8.5625 Z"/>
      </g>
    </g>
  </g>
  <g transform="translate(89.5,163.5)" id="g66621"/>
  <g transform="translate(78.5,152.5)" id="use66623">
    <g transform="translate(30,30)" id="g66837">
      <g style="font-weight:bold;font-size:8px;font-family:Roboto, sans-serif;fill:#333333" id="text66815" transform="translate(-14.8,24.150635)" aria-label="0">
        <path id="path66979" style="font-weight:bold;font-size:8px;font-family:Roboto, sans-serif;fill:#333333" d="m 4.2148437,-2.3515625 q 0,1.1796875 -0.4882812,1.8046875 -0.4882812,0.625 -1.4296875,0.625 -0.9296875,0 -1.421875,-0.61328125 Q 0.3828125,-1.1484375 0.37109375,-2.2929688 v -1.046875 q 0,-1.1914062 0.4921875,-1.8085937 Q 1.359375,-5.765625 2.2890625,-5.765625 q 0.9296875,0 1.421875,0.6132813 0.4921875,0.609375 0.5039062,1.7539062 z M 3.0859375,-3.5 q 0,-0.7070312 -0.1953125,-1.0273437 -0.1914062,-0.3242188 -0.6015625,-0.3242188 -0.3984375,0 -0.5898438,0.3085938 Q 1.5117187,-4.2382812 1.5,-3.5859375 v 1.3828125 q 0,0.6953125 0.1875,1.0351563 0.1914062,0.33593745 0.609375,0.33593745 0.4140625,0 0.5976563,-0.32421875 0.1835937,-0.3242187 0.1914062,-0.9921875 z"/>
      </g>
      <path d="M 0,0 H 3.5" style="stroke:#333333;stroke-width:0.3" transform="rotate(150,-11,2.9474411)" id="polyline66817"/>
      <path d="M 0,0 H 3.5" style="stroke:#333333;stroke-width:0.3" transform="rotate(180,-11,0)" id="polyline66819"/>
      <path d="M 0,0 H 3.5" style="stroke:#333333;stroke-width:0.3" transform="rotate(-150,-11,-2.9474411)" id="polyline66821"/>
      <path d="M 0,0 H 3.5" style="stroke:#333333;stroke-width:0.3" transform="rotate(-120,-11,-6.350853)" id="polyline66823"/>
      <path d="M 0,0 H 3.5" style="stroke:#333333;stroke-width:0.3" transform="rotate(-90,-11,-11)" id="polyline66825"/>
      <path d="M 0,0 H 3.5" style="stroke:#333333;stroke-width:0.3" transform="rotate(-60,-11,-19.052559)" id="polyline66827"/>
      <path d="M 0,0 H 3.5" style="stroke:#333333;stroke-width:0.3" transform="rotate(-30,-11,-41.052559)" id="polyline66829"/>
      <path d="M 0,0 H 3.5" style="stroke:#333333;stroke-width:0.3" transform="translate(22)" id="polyline66831"/>
      <path d="M 0,0 H 3.5" style="stroke:#333333;stroke-width:0.3" transform="rotate(30,-11,41.052559)" id="polyline66833"/>
      <path d="M 0,0 H 5" style="stroke:#333333;stroke-width:1" transform="rotate(60,-11,19.052559)" id="polyline66835"/>
    </g>
  </g>
  <g style="font-weight:bold;font-size:6.66667px;font-family:Roboto, sans-serif;letter-spacing:2px;fill:#333333" id="text66625" transform="rotate(90)" aria-label="CH3">
    <path id="path66972" style="font-weight:bold;font-size:6.66667px;font-family:Roboto, sans-serif;letter-spacing:2px;fill:#333333" d="m 177.94389,-140.57878 q -0.0553,0.76498 -0.56641,1.20443 -0.50781,0.43945 -1.34115,0.43945 -0.91146,0 -1.43555,-0.61198 -0.52083,-0.61523 -0.52083,-1.68619 v -0.28972 q 0,-0.68359 0.24089,-1.20443 0.24088,-0.52083 0.68685,-0.79752 0.44921,-0.27995 1.04166,-0.27995 0.82032,0 1.32162,0.43945 0.5013,0.43946 0.57943,1.23373 h -0.97657 q -0.0358,-0.45899 -0.25716,-0.66406 -0.2181,-0.20834 -0.66732,-0.20834 -0.48828,0 -0.73242,0.35156 -0.24088,0.34831 -0.2474,1.08399 v 0.35807 q 0,0.76823 0.23112,1.12305 0.23438,0.35482 0.73568,0.35482 0.45248,0 0.67383,-0.20508 0.22461,-0.20833 0.25716,-0.64128 z"/>
    <path id="path66974" style="font-weight:bold;font-size:6.66667px;font-family:Roboto, sans-serif;letter-spacing:2px;fill:#333333" d="m 184.44259,-139 h -0.97657 v -2.03125 h -1.9043 V -139 h -0.97656 v -4.73959 h 0.97656 v 1.92058 h 1.9043 v -1.92058 h 0.97657 z"/>
    <path id="path66976" style="font-weight:bold;font-size:6.66667px;font-family:Roboto, sans-serif;letter-spacing:2px;fill:#333333" d="m 188.15483,-141.78646 h 0.5013 q 0.35807,0 0.5306,-0.17904 0.17252,-0.17903 0.17252,-0.47526 0,-0.28646 -0.17252,-0.44596 -0.16927,-0.15951 -0.46875,-0.15951 -0.27019,0 -0.45248,0.14974 -0.18229,0.14649 -0.18229,0.38412 h -0.94075 q 0,-0.3711 0.19856,-0.66406 0.20183,-0.29623 0.5599,-0.46224 0.36133,-0.16602 0.79427,-0.16602 0.75195,0 1.17839,0.36133 0.42643,0.35807 0.42643,0.98958 0,0.32552 -0.19857,0.59896 -0.19857,0.27344 -0.52083,0.41992 0.40039,0.14323 0.5957,0.42969 0.19857,0.28646 0.19857,0.67708 0,0.63152 -0.46224,1.01237 -0.45899,0.38086 -1.21745,0.38086 -0.70964,0 -1.16211,-0.37434 -0.44922,-0.37435 -0.44922,-0.98959 h 0.94076 q 0,0.26693 0.19857,0.4362 0.20182,0.16927 0.49479,0.16927 0.33528,0 0.52409,-0.17578 0.19205,-0.17904 0.19205,-0.47201 0,-0.70963 -0.78125,-0.70963 h -0.49804 z"/>
  </g>
  <g transform="translate(10,226)" id="g66643">
    <path d="m 5,0 h 53 c 2.77,0 5,2.23 5,5 v 33 c 0,2.77 -2.23,5 -5,5 H 5 C 2.23,43 0,40.77 0,38 V 5 C 0,2.23 2.23,0 5,0 Z" style="fill:#fafafa" id="rect66629"/>
    <g transform="translate(1)" id="g66635">
      <g transform="translate(3,4)" id="g66631"/>
      <g style="font-weight:bold;font-size:8px;font-family:Roboto, sans-serif;letter-spacing:2px;fill:#333333" id="text66633" transform="translate(10,39)" aria-label="IN">
        <path id="path66962" style="font-weight:bold;font-size:8px;font-family:Roboto, sans-serif;letter-spacing:2px;fill:#333333" d="M 1.7539062,0 H 0.58203125 V -5.6875 H 1.7539062 Z"/>
        <path id="path66964" style="font-weight:bold;font-size:8px;font-family:Roboto, sans-serif;letter-spacing:2px;fill:#333333" d="m 9.4609375,0 h -1.171875 l -2.28125,-3.7421875 V 0 h -1.171875 v -5.6875 h 1.171875 l 2.2851563,3.75 v -3.75 h 1.1679687 z"/>
      </g>
    </g>
    <g transform="translate(32)" id="g66641">
      <g transform="translate(3,4)" id="g66637"/>
      <g style="font-weight:bold;font-size:8px;font-family:Roboto, sans-serif;letter-spacing:2px;fill:#333333" id="text66639" transform="translate(8.5,39)" aria-label="CV">
        <path id="path66967" style="font-weight:bold;font-size:8px;font-family:Roboto, sans-serif;letter-spacing:2px;fill:#333333" d="M 4.9726562,-1.8945312 Q 4.90625,-0.9765625 4.2929687,-0.44921875 3.6835938,0.078125 2.6835938,0.078125 q -1.0937501,0 -1.7226563,-0.734375 -0.625,-0.7382812 -0.625,-2.0234375 v -0.3476563 q 0,-0.8203125 0.2890625,-1.4453124 0.2890625,-0.625 0.8242187,-0.9570313 0.5390625,-0.3359375 1.2500001,-0.3359375 0.984375,0 1.5859374,0.5273438 0.6015625,0.5273437 0.6953125,1.4804687 H 3.8085938 Q 3.765625,-4.3085937 3.5,-4.5546875 q -0.2617187,-0.25 -0.8007812,-0.25 -0.5859375,0 -0.8789063,0.421875 -0.2890625,0.4179687 -0.296875,1.3007812 v 0.4296875 q 0,0.9218751 0.2773437,1.3476563 0.2812501,0.42578125 0.8828126,0.42578125 0.5429687,0 0.8085937,-0.24609375 0.2695313,-0.25 0.3085938,-0.7695312 z"/>
        <path id="path66969" style="font-weight:bold;font-size:8px;font-family:Roboto, sans-serif;letter-spacing:2px;fill:#333333" d="M 9.84375,-1.4101562 11.132813,-5.6875 H 12.4375 L 10.457031,0 H 9.234375 L 7.2617187,-5.6875 H 8.5625 Z"/>
      </g>
    </g>
  </g>
  <g transform="translate(89.5,228.5)" id="g66645"/>
  <g transform="translate(78.5,217.5)" id="use66647">
    <g transform="translate(30,30)" id="g66863">
      <g style="font-weight:bold;font-size:8px;font-family:Roboto, sans-serif;fill:#333333" id="text66841" transform="translate(-14.8,24.150635)" aria-label="0">
        <path id="path66948" style="font-weight:bold;font-size:8px;font-family:Roboto, sans-serif;fill:#333333" d="m 4.2148437,-2.3515625 q 0,1.1796875 -0.4882812,1.8046875 -0.4882812,0.625 -1.4296875,0.625 -0.9296875,0 -1.421875,-0.61328125 Q 0.3828125,-1.1484375 0.37109375,-2.2929688 v -1.046875 q 0,-1.1914062 0.4921875,-1.8085937 Q 1.359375,-5.765625 2.2890625,-5.765625 q 0.9296875,0 1.421875,0.6132813 0.4921875,0.609375 0.5039062,1.7539062 z M 3.0859375,-3.5 q 0,-0.7070312 -0.1953125,-1.0273437 -0.1914062,-0.3242188 -0.6015625,-0.3242188 -0.3984375,0 -0.5898438,0.3085938 Q 1.5117187,-4.2382812 1.5,-3.5859375 v 1.3828125 q 0,0.6953125 0.1875,1.0351563 0.1914062,0.33593745 0.609375,0.33593745 0.4140625,0 0.5976563,-0.32421875 0.1835937,-0.3242187 0.1914062,-0.9921875 z"/>
      </g>
      <path d="M 0,0 H 3.5" style="stroke:#333333;stroke-width:0.3" transform="rotate(150,-11,2.9474411)" id="polyline66843"/>
      <path d="M 0,0 H 3.5" style="stroke:#333333;stroke-width:0.3" transform="rotate(180,-11,0)" id="polyline66845"/>
      <path d="M 0,0 H 3.5" style="stroke:#333333;stroke-width:0.3" transform="rotate(-150,-11,-2.9474411)" id="polyline66847"/>
      <path d="M 0,0 H 3.5" style="stroke:#333333;stroke-width:0.3" transform="rotate(-120,-11,-6.350853)" id="polyline66849"/>
      <path d="M 0,0 H 3.5" style="stroke:#333333;stroke-width:0.3" transform="rotate(-90,-11,-11)" id="polyline66851"/>
      <path d="M 0,0 H 3.5" style="stroke:#333333;stroke-width:0.3" transform="rotate(-60,-11,-19.052559)" id="polyline66853"/>
      <path d="M 0,0 H 3.5" style="stroke:#333333;stroke-width:0.3" transform="rotate(-30,-11,-41.052559)" id="polyline66855"/>
      <path d="M 0,0 H 3.5" style="stroke:#333333;stroke-width:0.3" transform="translate(22)" id="polyline66857"/>
      <path d="M 0,0 H 3.5" style="stroke:#333333;stroke-width:0.3" transform="rotate(30,-11,41.052559)" id="polyline66859"/>
      <path d="M 0,0 H 5" style="stroke:#333333;stroke-width:1" transform="rotate(60,-11,19.052559)" id="polyline66861"/>
    </g>
  </g>
  <g style="font-weight:bold;font-size:6.66667px;font-family:Roboto, sans-serif;letter-spacing:2px;fill:#333333" id="text66649" transform="rotate(90)" aria-label="CH4">
    <path id="path66941" style="font-weight:bold;font-size:6.66667px;font-family:Roboto, sans-serif;letter-spacing:2px;fill:#333333" d="m 242.94389,-140.57878 q -0.0553,0.76498 -0.56641,1.20443 -0.50781,0.43945 -1.34115,0.43945 -0.91146,0 -1.43555,-0.61198 -0.52083,-0.61523 -0.52083,-1.68619 v -0.28972 q 0,-0.68359 0.24089,-1.20443 0.24088,-0.52083 0.68685,-0.79752 0.44921,-0.27995 1.04166,-0.27995 0.82032,0 1.32162,0.43945 0.5013,0.43946 0.57943,1.23373 h -0.97657 q -0.0358,-0.45899 -0.25716,-0.66406 -0.2181,-0.20834 -0.66732,-0.20834 -0.48828,0 -0.73242,0.35156 -0.24088,0.34831 -0.2474,1.08399 v 0.35807 q 0,0.76823 0.23112,1.12305 0.23438,0.35482 0.73568,0.35482 0.45248,0 0.67383,-0.20508 0.22461,-0.20833 0.25716,-0.64128 z"/>
    <path id="path66943" style="font-weight:bold;font-size:6.66667px;font-family:Roboto, sans-serif;letter-spacing:2px;fill:#333333" d="m 249.44259,-139 h -0.97657 v -2.03125 h -1.9043 V -139 h -0.97656 v -4.73959 h 0.97656 v 1.92058 h 1.9043 v -1.92058 h 0.97657 z"/>
    <path id="path66945" style="font-weight:bold;font-size:6.66667px;font-family:Roboto, sans-serif;letter-spacing:2px;fill:#333333" d="m 254.981,-140.78386 h 0.53711 v 0.75847 H 254.981 V -139 h -0.94076 v -1.02539 h -1.94336 l -0.0423,-0.59245 1.97592,-3.12175 h 0.95052 z m -1.98893,0 h 1.04817 v -1.67317 l -0.0619,0.10742 z"/>
  </g>
  <g style="font-weight:bold;font-size:6.66667px;font-family:Roboto, sans-serif;letter-spacing:2px;fill:#333333" id="text66653" transform="rotate(-90)" aria-label="MIX">
    <path id="path66934" style="font-weight:bold;font-size:6.66667px;font-family:Roboto, sans-serif;letter-spacing:2px;fill:#333333" d="m -318.80078,6.2604144 1.21745,3.4375016 1.21094,-3.4375016 h 1.28255 V 11 h -0.97982 V 9.7044265 L -315.972,7.4680973 -317.2513,11 h -0.67057 l -1.27605,-3.5286475 0.0977,2.233074 V 11 h -0.97656 V 6.2604144 Z"/>
    <path id="path66936" style="font-weight:bold;font-size:6.66667px;font-family:Roboto, sans-serif;letter-spacing:2px;fill:#333333" d="m -311.19205,11 h -0.97657 V 6.2604144 h 0.97657 z"/>
    <path id="path66938" style="font-weight:bold;font-size:6.66667px;font-family:Roboto, sans-serif;letter-spacing:2px;fill:#333333" d="m -306.54231,7.8945298 0.88867,-1.6341154 h 1.12305 L -305.9108,8.6106759 -304.49479,11 h -1.13606 L -306.54231,9.339843 -307.45377,11 h -1.13607 l 1.41602,-2.3893241 -1.38021,-2.3502615 h 1.12304 z"/>
  </g>
  <g transform="translate(22.5,293.5)" id="g66655"/>
  <g transform="translate(11.5,282.5)" id="use66657">
    <g transform="translate(30,30)" id="g66889">
      <g style="font-weight:bold;font-size:8px;font-family:Roboto, sans-serif;fill:#333333" id="text66867" transform="translate(-14.8,24.150635)" aria-label="0">
        <path id="path66921" style="font-weight:bold;font-size:8px;font-family:Roboto, sans-serif;fill:#333333" d="m 4.2148437,-2.3515625 q 0,1.1796875 -0.4882812,1.8046875 -0.4882812,0.625 -1.4296875,0.625 -0.9296875,0 -1.421875,-0.61328125 Q 0.3828125,-1.1484375 0.37109375,-2.2929688 v -1.046875 q 0,-1.1914062 0.4921875,-1.8085937 Q 1.359375,-5.765625 2.2890625,-5.765625 q 0.9296875,0 1.421875,0.6132813 0.4921875,0.609375 0.5039062,1.7539062 z M 3.0859375,-3.5 q 0,-0.7070312 -0.1953125,-1.0273437 -0.1914062,-0.3242188 -0.6015625,-0.3242188 -0.3984375,0 -0.5898438,0.3085938 Q 1.5117187,-4.2382812 1.5,-3.5859375 v 1.3828125 q 0,0.6953125 0.1875,1.0351563 0.1914062,0.33593745 0.609375,0.33593745 0.4140625,0 0.5976563,-0.32421875 0.1835937,-0.3242187 0.1914062,-0.9921875 z"/>
      </g>
      <path d="M 0,0 H 3.5" style="stroke:#333333;stroke-width:0.3" transform="rotate(150,-11,2.9474411)" id="polyline66869"/>
      <path d="M 0,0 H 3.5" style="stroke:#333333;stroke-width:0.3" transform="rotate(180,-11,0)" id="polyline66871"/>
      <path d="M 0,0 H 3.5" style="stroke:#333333;stroke-width:0.3" transform="rotate(-150,-11,-2.9474411)" id="polyline66873"/>
      <path d="M 0,0 H 3.5" style="stroke:#333333;stroke-width:0.3" transform="rotate(-120,-11,-6.350853)" id="polyline66875"/>
      <path d="M 0,0 H 3.5" style="stroke:#333333;stroke-width:0.3" transform="rotate(-90,-11,-11)" id="polyline66877"/>
      <path d="M 0,0 H 3.5" style="stroke:#333333;stroke-width:0.3" transform="rotate(-60,-11,-19.052559)" id="polyline66879"/>
      <path d="M 0,0 H 3.5" style="stroke:#333333;stroke-width:0.3" transform="rotate(-30,-11,-41.052559)" id="polyline66881"/>
      <path d="M 0,0 H 3.5" style="stroke:#333333;stroke-width:0.3" transform="translate(22)" id="polyline66883"/>
      <path d="M 0,0 H 3.5" style="stroke:#333333;stroke-width:0.3" transform="rotate(30,-11,41.052559)" id="polyline66885"/>
      <path d="M 0,0 H 5" style="stroke:#333333;stroke-width:1" transform="rotate(60,-11,19.052559)" id="polyline66887"/>
    </g>
  </g>
  <g transform="translate(77,290)" id="g66677">
    <path d="m 5,0 h 53 c 2.77,0 5,2.23 5,5 v 33 c 0,2.77 -2.23,5 -5,5 H 5 C 2.23,43 0,40.77 0,38 V 5 C 0,2.23 2.23,0 5,0 Z" style="fill:#bbbbbb" id="rect66659"/>
    <path d="m 5,0 h 21.5 c 2.77,0 5,2.23 5,5 v 33 c 0,2.77 -2.23,5 -5,5 H 5 C 2.23,43 0,40.77 0,38 V 5 C 0,2.23 2.23,0 5,0 Z" style="fill:#fafafa" id="rect66661"/>
    <path d="M 0,0 H 5 V 43 H 0 Z" style="fill:#fafafa" transform="translate(26.5)" id="rect66663"/>
    <g transform="translate(1)" id="g66669">
      <g transform="translate(3,4)" id="g66665"/>
      <g style="font-weight:bold;font-size:8px;font-family:Roboto, sans-serif;letter-spacing:2px;fill:#333333" id="text66667" transform="translate(8.5,39)" aria-label="CV">
        <path id="path66909" style="font-weight:bold;font-size:8px;font-family:Roboto, sans-serif;letter-spacing:2px;fill:#333333" d="M 4.9726562,-1.8945312 Q 4.90625,-0.9765625 4.2929687,-0.44921875 3.6835938,0.078125 2.6835938,0.078125 q -1.0937501,0 -1.7226563,-0.734375 -0.625,-0.7382812 -0.625,-2.0234375 v -0.3476563 q 0,-0.8203125 0.2890625,-1.4453124 0.2890625,-0.625 0.8242187,-0.9570313 0.5390625,-0.3359375 1.2500001,-0.3359375 0.984375,0 1.5859374,0.5273438 0.6015625,0.5273437 0.6953125,1.4804687 H 3.8085938 Q 3.765625,-4.3085937 3.5,-4.5546875 q -0.2617187,-0.25 -0.8007812,-0.25 -0.5859375,0 -0.8789063,0.421875 -0.2890625,0.4179687 -0.296875,1.3007812 v 0.4296875 q 0,0.9218751 0.2773437,1.3476563 0.2812501,0.42578125 0.8828126,0.42578125 0.5429687,0 0.8085937,-0.24609375 0.2695313,-0.25 0.3085938,-0.7695312 z"/>
        <path id="path66911" style="font-weight:bold;font-size:8px;font-family:Roboto, sans-serif;letter-spacing:2px;fill:#333333" d="M 9.84375,-1.4101562 11.132813,-5.6875 H 12.4375 L 10.457031,0 H 9.234375 L 7.2617187,-5.6875 H 8.5625 Z"/>
      </g>
    </g>
    <g transform="translate(32)" id="g66675">
      <g transform="translate(3,4)" id="g66671"/>
      <g style="font-weight:bold;font-size:8px;font-family:Roboto, sans-serif;letter-spacing:2px;fill:#333333" id="text66673" transform="translate(5,39)" aria-label="OUT">
        <path id="path66914" style="font-weight:bold;font-size:8px;font-family:Roboto, sans-serif;letter-spacing:2px;fill:#333333" d="m 5.1796875,-2.7148438 q 0,0.8398438 -0.296875,1.4726563 -0.296875,0.6328125 -0.8515625,0.9765625 -0.5507812,0.34375 -1.265625,0.34375 -0.7070312,0 -1.2617188,-0.33984375 Q 0.94921875,-0.6015625 0.64453125,-1.2304687 0.33984375,-1.8632812 0.3359375,-2.6835938 v -0.28125 q 0,-0.8398437 0.30078125,-1.4765624 0.3046875,-0.640625 0.85546875,-0.9804688 0.5546875,-0.34375 1.265625,-0.34375 0.7109375,0 1.2617187,0.34375 0.5546875,0.3398438 0.8554688,0.9804688 0.3046875,0.6367187 0.3046875,1.4726562 z m -1.1875,-0.2578125 q 0,-0.8945312 -0.3203125,-1.3593749 -0.3203125,-0.4648438 -0.9140625,-0.4648438 -0.5898437,0 -0.9101563,0.4609375 -0.3203125,0.4570312 -0.3242187,1.34375 v 0.2773437 q 0,0.8710938 0.3203125,1.3515626 0.3203125,0.4804687 0.921875,0.4804687 0.5898438,0 0.90625,-0.4609375 0.3164063,-0.4648437 0.3203125,-1.3515625 z"/>
        <path id="path66916" style="font-weight:bold;font-size:8px;font-family:Roboto, sans-serif;letter-spacing:2px;fill:#333333" d="m 12.34375,-5.6875 v 3.7460938 q 0,0.9335937 -0.585937,1.47656245 -0.582032,0.54296875 -1.59375,0.54296875 -0.9960942,0 -1.5820317,-0.52734375 Q 7.9960937,-0.9765625 7.984375,-1.8984375 V -5.6875 H 9.15625 v 3.7539063 q 0,0.5585937 0.265625,0.8164062 0.2695313,0.25390625 0.742188,0.25390625 0.988281,0 1.003906,-1.03906245 V -5.6875 Z"/>
        <path id="path66918" style="font-weight:bold;font-size:8px;font-family:Roboto, sans-serif;letter-spacing:2px;fill:#333333" d="M 19.585937,-4.7382812 H 17.84375 V 0 h -1.171875 v -4.7382812 h -1.71875 V -5.6875 h 4.632812 z"/>
      </g>
    </g>
  </g>
  <g transform="translate(42,344)" id="g66683">
    <g style="font-weight:bold;font-size:8px;font-family:Roboto, sans-serif;letter-spacing:2px;fill:#333333" id="text66679" transform="translate(9,6.1)" aria-label="LINEAR">
      <path id="path66893" style="font-weight:bold;font-size:8px;font-family:Roboto, sans-serif;letter-spacing:2px;fill:#333333" d="M 1.6796875,-0.94140625 H 4.1679687 V 0 H 0.5078125 v -5.6875 h 1.171875 z"/>
      <path id="path66895" style="font-weight:bold;font-size:8px;font-family:Roboto, sans-serif;letter-spacing:2px;fill:#333333" d="M 8.0820313,0 H 6.9101562 v -5.6875 h 1.1718751 z"/>
      <path id="path66897" style="font-weight:bold;font-size:8px;font-family:Roboto, sans-serif;letter-spacing:2px;fill:#333333" d="m 15.789063,0 h -1.171875 l -2.28125,-3.7421875 V 0 h -1.171875 v -5.6875 h 1.171875 l 2.285156,3.75 v -3.75 h 1.167969 z"/>
      <path id="path66899" style="font-weight:bold;font-size:8px;font-family:Roboto, sans-serif;letter-spacing:2px;fill:#333333" d="m 22.242187,-2.4648438 h -2.25 v 1.52343755 h 2.640625 V 0 h -3.8125 V -5.6875 H 22.625 v 0.9492188 h -2.632813 v 1.3554687 h 2.25 z"/>
      <path id="path66901" style="font-weight:bold;font-size:8px;font-family:Roboto, sans-serif;letter-spacing:2px;fill:#333333" d="M 28.53125,-1.171875 H 26.476562 L 26.085937,0 h -1.246093 l 2.117187,-5.6875 h 1.085938 L 30.171875,0 h -1.246094 z m -1.738281,-0.9492188 h 1.421875 L 27.5,-4.25 Z"/>
      <path id="path66903" style="font-weight:bold;font-size:8px;font-family:Roboto, sans-serif;letter-spacing:2px;fill:#333333" d="M 34.816406,-2.0820313 H 33.882812 V 0 h -1.171875 v -5.6875 h 2.113282 q 1.007812,0 1.554687,0.4492188 0.546875,0.4492187 0.546875,1.2695312 0,0.5820312 -0.253906,0.9726562 -0.25,0.3867188 -0.761719,0.6171875 l 1.230469,2.3242188 V 0 H 35.882812 Z M 33.882812,-3.03125 h 0.945313 q 0.441406,0 0.683594,-0.2226563 0.242187,-0.2265625 0.242187,-0.6210937 0,-0.4023437 -0.230469,-0.6328125 -0.226562,-0.2304687 -0.699218,-0.2304687 h -0.941407 z"/>
    </g>
    <g transform="translate(49,-1.3)" id="g66681"/>
  </g>
</svg>
