<?xml version="1.0" encoding="UTF-8" standalone="no"?>
<svg xmlns:dc="http://purl.org/dc/elements/1.1/" xmlns:cc="http://creativecommons.org/ns#" xmlns:rdf="http://www.w3.org/1999/02/22-rdf-syntax-ns#" xmlns:svg="http://www.w3.org/2000/svg" xmlns="http://www.w3.org/2000/svg" xmlns:sodipodi="http://sodipodi.sourceforge.net/DTD/sodipodi-0.dtd" xmlns:inkscape="http://www.inkscape.org/namespaces/inkscape" inkscape:version="1.0 (4035a4f, 2020-05-01)" sodipodi:docname="svg_render_VU-pp.svg" id="svg68003" viewBox="0 0 45 380" height="380" width="45" version="1.1">
  <metadata id="metadata68007">
    <rdf:RDF>
      <cc:Work rdf:about="">
        <dc:format>image/svg+xml</dc:format>
        <dc:type rdf:resource="http://purl.org/dc/dcmitype/StillImage"/>
      </cc:Work>
    </rdf:RDF>
  </metadata>
  <sodipodi:namedview inkscape:current-layer="svg68003" inkscape:window-maximized="0" inkscape:window-y="23" inkscape:window-x="0" inkscape:cy="190" inkscape:cx="22.5" inkscape:zoom="1.7605263" showgrid="false" id="namedview68005" inkscape:window-height="480" inkscape:window-width="689" inkscape:pageshadow="2" inkscape:pageopacity="0" guidetolerance="10" gridtolerance="10" objecttolerance="10" borderopacity="1" bordercolor="#666666" pagecolor="#ffffff"/>
  
  <defs id="defs67943">
    <symbol viewBox="0 0 18px 180px" id="vu-vu">
      <rect id="rect67851" transform="translate(3 0)" fill="#aaa" rx="0" y="1" x="0" height="13" width="5"/>
      <rect id="rect67853" transform="translate(10 0)" fill="#aaa" rx="0" y="1" x="0" height="13" width="5"/>
      <rect id="rect67855" transform="translate(3 15)" fill="#aaa" rx="0" y="1" x="0" height="13" width="5"/>
      <rect id="rect67857" transform="translate(10 15)" fill="#aaa" rx="0" y="1" x="0" height="13" width="5"/>
      <rect id="rect67859" transform="translate(3 30)" fill="#aaa" rx="0" y="1" x="0" height="13" width="5"/>
      <rect id="rect67861" transform="translate(10 30)" fill="#aaa" rx="0" y="1" x="0" height="13" width="5"/>
      <rect id="rect67863" transform="translate(3 45)" fill="#aaa" rx="0" y="1" x="0" height="13" width="5"/>
      <rect id="rect67865" transform="translate(10 45)" fill="#aaa" rx="0" y="1" x="0" height="13" width="5"/>
      <rect id="rect67867" transform="translate(3 60)" fill="#aaa" rx="0" y="1" x="0" height="13" width="5"/>
      <rect id="rect67869" transform="translate(10 60)" fill="#aaa" rx="0" y="1" x="0" height="13" width="5"/>
      <rect id="rect67871" transform="translate(3 75)" fill="#aaa" rx="0" y="1" x="0" height="13" width="5"/>
      <rect id="rect67873" transform="translate(10 75)" fill="#aaa" rx="0" y="1" x="0" height="13" width="5"/>
      <rect id="rect67875" transform="translate(3 90)" fill="#aaa" rx="0" y="1" x="0" height="13" width="5"/>
      <rect id="rect67877" transform="translate(10 90)" fill="#aaa" rx="0" y="1" x="0" height="13" width="5"/>
      <rect id="rect67879" transform="translate(3 105)" fill="#aaa" rx="0" y="1" x="0" height="13" width="5"/>
      <rect id="rect67881" transform="translate(10 105)" fill="#aaa" rx="0" y="1" x="0" height="13" width="5"/>
      <rect id="rect67883" transform="translate(3 120)" fill="#aaa" rx="0" y="1" x="0" height="13" width="5"/>
      <rect id="rect67885" transform="translate(10 120)" fill="#aaa" rx="0" y="1" x="0" height="13" width="5"/>
      <rect id="rect67887" transform="translate(3 135)" fill="#aaa" rx="0" y="1" x="0" height="13" width="5"/>
      <rect id="rect67889" transform="translate(10 135)" fill="#aaa" rx="0" y="1" x="0" height="13" width="5"/>
      <rect id="rect67891" transform="translate(3 150)" fill="#aaa" rx="0" y="1" x="0" height="13" width="5"/>
      <rect id="rect67893" transform="translate(10 150)" fill="#aaa" rx="0" y="1" x="0" height="13" width="5"/>
      <rect id="rect67895" transform="translate(3 165)" fill="#aaa" rx="0" y="1" x="0" height="13" width="5"/>
      <rect id="rect67897" transform="translate(10 165)" fill="#aaa" rx="0" y="1" x="0" height="13" width="5"/>
    </symbol>
    <symbol viewBox="0 0 20px 183px" id="guide-db-vu">
      <g id="g67904" transform="translate(0 15)">
        <polyline id="polyline67900" transform="translate(11 0)" fill="none" stroke="#333" points="0,0 3,0"/>
        <text id="text67902" transform="translate(7 0) rotate(0) translate(-2.5 2.6)" font-size="6.0pt">6</text>
      </g>
      <g id="g67910" transform="translate(0 30)">
        <polyline id="polyline67906" transform="translate(11 0)" fill="none" stroke="#333" points="0,0 3,0"/>
        <text id="text67908" transform="translate(7 0) rotate(0) translate(-2.5 2.6)" font-size="6.0pt">0</text>
      </g>
      <g id="g67916" transform="translate(0 45)">
        <polyline id="polyline67912" transform="translate(11 0)" fill="none" stroke="#333" points="0,0 3,0"/>
        <text id="text67914" transform="translate(7 0) rotate(-90) translate(-4 2.2)" font-size="6.0pt">-6</text>
      </g>
      <g id="g67922" transform="translate(0 60)">
        <polyline id="polyline67918" transform="translate(11 0)" fill="none" stroke="#333" points="0,0 3,0"/>
        <text id="text67920" transform="translate(7 0) rotate(-90) translate(-7 2.2)" font-size="6.0pt">-12</text>
      </g>
      <g id="g67928" transform="translate(0 90)">
        <polyline id="polyline67924" transform="translate(11 0)" fill="none" stroke="#333" points="0,0 3,0"/>
        <text id="text67926" transform="translate(7 0) rotate(-90) translate(-7 2.2)" font-size="6.0pt">-24</text>
      </g>
      <g id="g67930" transform="translate(0 120)"/>
      <g id="g67936" transform="translate(0 150)">
        <polyline id="polyline67932" transform="translate(11 0)" fill="none" stroke="#333" points="0,0 3,0"/>
        <text id="text67934" transform="translate(7 0) rotate(-90) translate(-7 2.2)" font-size="6.0pt">-48</text>
      </g>
      <g id="g67940" transform="translate(0 170)">
        <text id="text67938" transform="translate(7 0) rotate(-90) translate(-9 4.5)" font-size="6.0pt">dB</text>
      </g>
    </symbol>
  </defs>
  <svg version="1.1" id="svg67947" width="100%" height="100%">
    <path class="module-background background-fill" d="M 0,0 H 45 V 380 H 0 Z" style="fill:#dddddd" id="rect67945"/>
  </svg>
  <svg version="1.1" id="svg67955" width="100%" height="100%">
    <path class="module-border-inner" d="M 1,1 H 44 V 379 H 1 V 1" style="fill:none;stroke:#e4e4e4;stroke-width:0.5" id="polyline67949"/>
    <path class="module-border-middle" d="m 0.5,0.5 h 44 v 379 H 0.5 V 0.5" style="fill:none;stroke:#ebebeb;stroke-width:0.8" id="polyline67951"/>
    <path class="module-border-outer" d="M 0,0 H 45 V 380 H 0 V 0" style="fill:none;stroke:#f2f2f2;stroke-width:1" id="polyline67953"/>
  </svg>
  <g transform="rotate(-90,194.5,181.5)" id="g67965">
    <g class="title" style="font-weight:normal;font-size:9.33333px;font-family:Comfortaa, sans-serif;letter-spacing:2.5px;fill:#333333" id="text67957" aria-label="VU">
      <path id="path68144" style="font-weight:normal;font-size:9.33333px;font-family:Comfortaa, sans-serif;letter-spacing:2.5px;fill:#333333" d="m 6.1786646,-7.2893309 q 0.1493332,0 0.2333332,0.093333 0.093333,0.093333 0.093333,0.2333332 0,0.093333 -0.046667,0.2053333 L 3.6773321,-0.23333325 Q 3.5746654,0 3.3506655,0 3.2293322,0 3.1453323,-0.04666665 3.0706656,-0.10266663 3.0146656,-0.23333325 L 0.24266658,-6.7199977 q -0.056,-0.14 -0.056,-0.2426666 0,-0.1493333 0.0933333,-0.2333332 0.10266664,-0.093333 0.26133325,-0.093333 0.24266658,0 0.33599988,0.2333333 l 2.47333247,5.9173313 2.4639992,-5.8986646 q 0.056,-0.14 0.1399999,-0.196 0.084,-0.056 0.224,-0.056 z"/>
      <path id="path68146" style="font-weight:normal;font-size:9.33333px;font-family:Comfortaa, sans-serif;letter-spacing:2.5px;fill:#333333" d="m 13.0261,0.14933328 q -0.839999,0 -1.502666,-0.32666655 -0.662666,-0.32666656 -1.035999,-0.90533303 -0.364,-0.5879998 -0.364,-1.3253329 V -6.925331 q 0,-0.1586666 0.102666,-0.2613332 0.102667,-0.1026667 0.261334,-0.1026667 0.158666,0 0.261333,0.1026667 0.102666,0.1026666 0.102666,0.2613332 v 4.5173318 q 0,0.5413332 0.270667,0.9706664 0.28,0.4199998 0.774666,0.6626664 0.494667,0.23333325 1.129333,0.23333325 0.625333,0 1.110667,-0.23333325 0.485333,-0.2426666 0.755999,-0.6626664 0.28,-0.4293332 0.28,-0.9706664 V -6.925331 q 0,-0.1586666 0.102667,-0.2613332 0.102667,-0.1026667 0.261333,-0.1026667 0.158667,0 0.261333,0.1026667 0.102667,0.1026666 0.102667,0.2613332 v 4.5173318 q 0,0.7373331 -0.373333,1.3253329 -0.364,0.57866647 -1.017333,0.90533303 -0.653333,0.32666655 -1.484,0.32666655 z"/>
    </g>
    <g transform="translate(0,12)" id="g67963">
      <g class="brand" style="font-weight:bold;font-size:9.33333px;font-family:Audiowide, sans-serif;letter-spacing:2px;fill:#333333" id="text67959" aria-label="BGA">
        <path id="path68149" style="font-weight:bold;font-size:9.33333px;font-family:Audiowide, sans-serif;letter-spacing:2px;fill:#333333" d="m 7.209633,-1.4355464 q 0,0.2187499 -0.077474,0.4694009 -0.072917,0.25065095 -0.2460936,0.46484359 Q 6.7174456,-0.28710928 6.4440082,-0.14127599 6.1705708,0 5.7740866,0 H 1.2760412 Q 1.1484371,0 1.0390621,-0.0455729 0.92968718,-0.0911458 0.84765596,-0.16861973 0.77018203,-0.25065096 0.72460913,-0.36002592 0.67903623,-0.46940088 0.67903623,-0.597005 v -5.341144 q 0,-0.1230469 0.0455729,-0.2324218 0.0455729,-0.109375 0.12304683,-0.1914062 0.0820312,-0.082031 0.19140614,-0.1276041 0.109375,-0.045573 0.2369791,-0.045573 h 3.9648424 q 0.21875,0 0.4694009,0.077474 0.250651,0.077474 0.4648436,0.250651 0.2187499,0.1686197 0.3600259,0.4420571 0.1458333,0.2734374 0.1458333,0.6699217 v 0.2233072 q 0,0.314453 -0.1048177,0.6790362 -0.1048176,0.3600259 -0.3372394,0.6835935 0.2005207,0.1230468 0.3736978,0.2962239 0.1777343,0.173177 0.3098957,0.4010415 0.1321614,0.2278645 0.2096353,0.5149738 0.077474,0.2871093 0.077474,0.6334633 z M 6.0247375,-1.6634109 q 0,-0.2324218 -0.072917,-0.4147134 Q 5.8789042,-2.2649732 5.7467428,-2.3971346 5.6145814,-2.529296 5.4277325,-2.5976554 5.2408836,-2.670572 5.0084618,-2.670572 h -2.670572 v -1.19401 h 2.1373691 q 0.2324218,0 0.4192707,-0.068359 0.1868489,-0.072917 0.3190103,-0.205078 0.1321614,-0.1321614 0.2005208,-0.314453 0.072917,-0.1868489 0.072917,-0.4192707 v -0.2233072 q 0,-0.2552083 -0.2460937,-0.2552083 H 1.8639317 v 4.1653632 h 3.9101549 q 0.031901,0 0.077474,-0.00456 0.045573,-0.00456 0.082031,-0.027344 0.036458,-0.022786 0.063802,-0.077474 0.027344,-0.054687 0.027344,-0.1503906 z"/>
        <path id="path68151" style="font-weight:bold;font-size:9.33333px;font-family:Audiowide, sans-serif;letter-spacing:2px;fill:#333333" d="m 16.683589,-0.597005 q 0,0.12760412 -0.04557,0.23697908 -0.04557,0.10937496 -0.127605,0.19140619 -0.07747,0.07747393 -0.186849,0.12304683 Q 16.214189,0 16.086584,0 h -4.274738 q -0.164062,0 -0.355468,-0.03645832 -0.186849,-0.04101561 -0.373698,-0.12304683 -0.182292,-0.0820312 -0.350911,-0.20963535 -0.16862,-0.13216141 -0.300782,-0.31445302 -0.127604,-0.18684889 -0.205078,-0.42838528 -0.07747,-0.2460937 -0.07747,-0.5514321 v -3.2083322 q 0,-0.1640625 0.03646,-0.3509114 0.04101,-0.1914062 0.123047,-0.3736978 0.08203,-0.1868489 0.214192,-0.3554686 0.132162,-0.1686197 0.314453,-0.2962238 0.186849,-0.1321615 0.428385,-0.2096354 0.241537,-0.077474 0.546875,-0.077474 h 4.817056 v 1.1848954 h -4.817056 q -0.232422,0 -0.355468,0.1230468 -0.123047,0.1230469 -0.123047,0.3645832 v 3.1992177 q 0,0.2278645 0.123047,0.3554686 0.127604,0.1230469 0.355468,0.1230469 h 3.686848 V -2.670572 h -3.153645 v -1.19401 h 3.741535 q 0.127605,0 0.236979,0.05013 0.109375,0.045573 0.186849,0.1276041 0.08203,0.082031 0.127605,0.1914062 0.04557,0.1048177 0.04557,0.2278645 z"/>
        <path id="path68153" style="font-weight:bold;font-size:9.33333px;font-family:Audiowide, sans-serif;letter-spacing:2px;fill:#333333" d="M 26.339836,0 H 25.154941 V -1.6041661 H 20.989578 V 0 h -1.184896 v -3.267577 q 0,-0.7154946 0.246094,-1.3170569 0.246094,-0.6015623 0.683593,-1.0345048 0.4375,-0.4329426 1.034505,-0.6744789 0.597005,-0.2415364 1.303385,-0.2415364 h 2.670572 q 0.123047,0 0.232422,0.045573 0.109375,0.045573 0.191406,0.1276041 0.08203,0.082031 0.127604,0.1914062 0.04557,0.1093749 0.04557,0.2324218 z m -5.350258,-2.7890616 h 4.165363 v -2.561197 h -2.082682 q -0.05469,0 -0.232422,0.018229 -0.173177,0.013672 -0.405598,0.077474 -0.227865,0.063802 -0.483073,0.1959635 -0.255208,0.1321614 -0.469401,0.3645832 -0.214193,0.2324218 -0.355469,0.5833331 -0.136718,0.3463541 -0.136718,0.8430987 z"/>
      </g>
      <path d="M 0,0 H 3 V 3 H 0 Z" style="fill:#dddddd" transform="translate(11.5,-5)" id="rect67961"/>
    </g>
  </g>
  <g transform="translate(0,17)" id="use67969">
    <g transform="translate(0,15)" id="g68039">
      <path d="M 0,0 H 3" style="fill:none;stroke:#333333" transform="translate(11)" id="polyline68035"/>
      <g style="font-weight:bold;font-size:8px;font-family:Roboto, sans-serif;fill:#333333" id="text68037" transform="translate(4.5,2.6)" aria-label="6">
        <path id="path68102" style="font-weight:bold;font-size:8px;font-family:Roboto, sans-serif;fill:#333333" d="m 3.4492188,-5.7460937 v 0.9296875 h -0.109375 q -0.765625,0.011719 -1.234375,0.3984375 Q 1.640625,-4.03125 1.546875,-3.34375 2,-3.8046875 2.6914063,-3.8046875 q 0.7421875,0 1.1796875,0.53125 0.4374999,0.53125 0.4374999,1.3984375 0,0.5546875 -0.2421875,1.00390625 Q 3.828125,-0.421875 3.3867188,-0.171875 q -0.4375,0.25 -0.9921875,0.25 -0.8984376,0 -1.45312505,-0.625 Q 0.390625,-1.171875 0.390625,-2.2148438 v -0.40625 q 0,-0.9257812 0.34765625,-1.6328124 0.35156245,-0.7109375 1.00390625,-1.0976563 0.65625,-0.390625 1.5195313,-0.3945312 z m -1.1015625,2.8476562 q -0.2734375,0 -0.4960938,0.1445312 -0.2226563,0.140625 -0.328125,0.375 v 0.34375 q 0,0.5664063 0.2226562,0.8867188 0.2226563,0.31640625 0.6250001,0.31640625 0.3632812,0 0.5859375,-0.28515625 0.2265625,-0.2890625 0.2265625,-0.7460937 0,-0.4648438 -0.2265625,-0.7500001 -0.2265625,-0.2851562 -0.609375,-0.2851562 z"/>
      </g>
    </g>
    <g transform="translate(0,30)" id="g68045">
      <path d="M 0,0 H 3" style="fill:none;stroke:#333333" transform="translate(11)" id="polyline68041"/>
      <g style="font-weight:bold;font-size:8px;font-family:Roboto, sans-serif;fill:#333333" id="text68043" transform="translate(4.5,2.6)" aria-label="0">
        <path id="path68106" style="font-weight:bold;font-size:8px;font-family:Roboto, sans-serif;fill:#333333" d="m 4.2148437,-2.3515625 q 0,1.1796875 -0.4882812,1.8046875 -0.4882812,0.625 -1.4296875,0.625 -0.9296875,0 -1.421875,-0.61328125 Q 0.3828125,-1.1484375 0.37109375,-2.2929688 v -1.046875 q 0,-1.1914062 0.4921875,-1.8085937 Q 1.359375,-5.765625 2.2890625,-5.765625 q 0.9296875,0 1.421875,0.6132813 0.4921875,0.609375 0.5039062,1.7539062 z M 3.0859375,-3.5 q 0,-0.7070312 -0.1953125,-1.0273437 -0.1914062,-0.3242188 -0.6015625,-0.3242188 -0.3984375,0 -0.5898438,0.3085938 Q 1.5117187,-4.2382812 1.5,-3.5859375 v 1.3828125 q 0,0.6953125 0.1875,1.0351563 0.1914062,0.33593745 0.609375,0.33593745 0.4140625,0 0.5976563,-0.32421875 0.1835937,-0.3242187 0.1914062,-0.9921875 z"/>
      </g>
    </g>
    <g transform="translate(0,45)" id="g68051">
      <path d="M 0,0 H 3" style="fill:none;stroke:#333333" transform="translate(11)" id="polyline68047"/>
      <g style="font-weight:bold;font-size:8px;font-family:Roboto, sans-serif;fill:#333333" id="text68049" transform="rotate(-90,6.6,-2.6)" aria-label="-6">
        <path id="path68110" style="font-weight:bold;font-size:8px;font-family:Roboto, sans-serif;fill:#333333" d="M 2.6289063,-1.9804687 H 0.4296875 V -2.890625 h 2.1992188 z"/>
        <path id="path68112" style="font-weight:bold;font-size:8px;font-family:Roboto, sans-serif;fill:#333333" d="m 6.5585937,-5.7460937 v 0.9296875 h -0.109375 q -0.765625,0.011719 -1.234375,0.3984375 Q 4.75,-4.03125 4.65625,-3.34375 q 0.453125,-0.4609375 1.1445312,-0.4609375 0.7421875,0 1.1796875,0.53125 0.4375,0.53125 0.4375,1.3984375 0,0.5546875 -0.2421875,1.00390625 Q 6.9375,-0.421875 6.4960937,-0.171875 q -0.4375,0.25 -0.9921875,0.25 -0.8984375,0 -1.453125,-0.625 Q 3.5,-1.171875 3.5,-2.2148438 v -0.40625 q 0,-0.9257812 0.3476563,-1.6328124 0.3515624,-0.7109375 1.0039062,-1.0976563 0.65625,-0.390625 1.5195312,-0.3945312 z m -1.1015625,2.8476562 q -0.2734375,0 -0.4960937,0.1445312 -0.2226563,0.140625 -0.328125,0.375 v 0.34375 q 0,0.5664063 0.2226562,0.8867188 0.2226563,0.31640625 0.625,0.31640625 0.3632813,0 0.5859375,-0.28515625 0.2265625,-0.2890625 0.2265625,-0.7460937 0,-0.4648438 -0.2265625,-0.7500001 -0.2265625,-0.2851562 -0.609375,-0.2851562 z"/>
      </g>
    </g>
    <g transform="translate(0,60)" id="g68057">
      <path d="M 0,0 H 3" style="fill:none;stroke:#333333" transform="translate(11)" id="polyline68053"/>
      <g style="font-weight:bold;font-size:8px;font-family:Roboto, sans-serif;fill:#333333" id="text68055" transform="rotate(-90,8.1,-1.1)" aria-label="-12">
        <path id="path68116" style="font-weight:bold;font-size:8px;font-family:Roboto, sans-serif;fill:#333333" d="M 2.6289063,-1.9804687 H 0.4296875 V -2.890625 h 2.1992188 z"/>
        <path id="path68118" style="font-weight:bold;font-size:8px;font-family:Roboto, sans-serif;fill:#333333" d="M 6.2382812,0 H 5.109375 v -4.3515625 l -1.3476562,0.4179687 v -0.9179687 l 2.3554687,-0.84375 h 0.1210937 z"/>
        <path id="path68120" style="font-weight:bold;font-size:8px;font-family:Roboto, sans-serif;fill:#333333" d="M 11.988281,0 H 8.0898438 V -0.7734375 L 9.9296875,-2.734375 q 0.3789065,-0.4140625 0.5585935,-0.7226563 0.183594,-0.3085937 0.183594,-0.5859374 0,-0.3789063 -0.191406,-0.59375 -0.191406,-0.21875 -0.5468752,-0.21875 -0.3828125,0 -0.6054688,0.265625 -0.21875,0.2617187 -0.21875,0.6914062 H 7.9765625 q 0,-0.5195312 0.2460938,-0.9492187 0.25,-0.4296875 0.703125,-0.671875 0.453125,-0.2460938 1.0273437,-0.2460938 0.878906,0 1.363281,0.421875 0.488282,0.421875 0.488282,1.1914063 0,0.4218749 -0.21875,0.8593749 -0.21875,0.4375 -0.75,1.0195313 l -1.2929692,1.36328125 h 2.4453122 z"/>
      </g>
    </g>
    <g transform="translate(0,90)" id="g68063">
      <path d="M 0,0 H 3" style="fill:none;stroke:#333333" transform="translate(11)" id="polyline68059"/>
      <g style="font-weight:bold;font-size:8px;font-family:Roboto, sans-serif;fill:#333333" id="text68061" transform="rotate(-90,8.1,-1.1)" aria-label="-24">
        <path id="path68124" style="font-weight:bold;font-size:8px;font-family:Roboto, sans-serif;fill:#333333" d="M 2.6289063,-1.9804687 H 0.4296875 V -2.890625 h 2.1992188 z"/>
        <path id="path68126" style="font-weight:bold;font-size:8px;font-family:Roboto, sans-serif;fill:#333333" d="M 7.3945312,0 H 3.4960938 V -0.7734375 L 5.3359375,-2.734375 Q 5.7148437,-3.1484375 5.8945312,-3.4570313 6.078125,-3.765625 6.078125,-4.0429687 q 0,-0.3789063 -0.1914063,-0.59375 -0.1914062,-0.21875 -0.546875,-0.21875 -0.3828125,0 -0.6054687,0.265625 -0.21875,0.2617187 -0.21875,0.6914062 H 3.3828125 q 0,-0.5195312 0.2460938,-0.9492187 0.25,-0.4296875 0.7031249,-0.671875 0.453125,-0.2460938 1.0273438,-0.2460938 0.8789062,0 1.3632812,0.421875 0.4882813,0.421875 0.4882813,1.1914063 0,0.4218749 -0.21875,0.8593749 -0.21875,0.4375 -0.75,1.0195313 l -1.2929688,1.36328125 h 2.4453125 z"/>
        <path id="path68128" style="font-weight:bold;font-size:8px;font-family:Roboto, sans-serif;fill:#333333" d="m 11.429688,-2.140625 h 0.644531 v 0.9101563 H 11.429688 V 0 H 10.300781 V -1.2304687 H 7.96875 L 7.9179687,-1.9414062 10.289063,-5.6875 h 1.140625 z m -2.3867192,0 h 1.2578122 v -2.0078125 l -0.07422,0.1289063 z"/>
      </g>
    </g>
    <g transform="translate(0,120)" id="g68065"/>
    <g transform="translate(0,150)" id="g68071">
      <path d="M 0,0 H 3" style="fill:none;stroke:#333333" transform="translate(11)" id="polyline68067"/>
      <g style="font-weight:bold;font-size:8px;font-family:Roboto, sans-serif;fill:#333333" id="text68069" transform="rotate(-90,8.1,-1.1)" aria-label="-48">
        <path id="path68132" style="font-weight:bold;font-size:8px;font-family:Roboto, sans-serif;fill:#333333" d="M 2.6289063,-1.9804687 H 0.4296875 V -2.890625 h 2.1992188 z"/>
        <path id="path68134" style="font-weight:bold;font-size:8px;font-family:Roboto, sans-serif;fill:#333333" d="m 6.8359375,-2.140625 h 0.6445312 v 0.9101563 H 6.8359375 V 0 H 5.7070312 V -1.2304687 H 3.375 L 3.3242188,-1.9414062 5.6953125,-5.6875 h 1.140625 z m -2.3867188,0 h 1.2578125 v -2.0078125 l -0.074219,0.1289063 z"/>
        <path id="path68136" style="font-weight:bold;font-size:8px;font-family:Roboto, sans-serif;fill:#333333" d="m 11.796875,-4.1757812 q 0,0.4140624 -0.207031,0.7343749 -0.207031,0.3203125 -0.570313,0.5117188 0.414063,0.1992187 0.65625,0.5507812 0.242188,0.3476563 0.242188,0.8203126 0,0.75781245 -0.515625,1.1992187 -0.515625,0.4375 -1.402344,0.4375 -0.8867187,0 -1.40625,-0.44140625 -0.5195312,-0.44140625 -0.5195312,-1.19531245 0,-0.4726563 0.2421875,-0.8242188 0.2421875,-0.3515625 0.6523437,-0.546875 -0.3632812,-0.1914063 -0.5703125,-0.5117188 -0.203125,-0.3203125 -0.203125,-0.7343749 0,-0.7265625 0.484375,-1.15625 0.484375,-0.4335938 1.3164063,-0.4335938 0.8281252,0 1.3125002,0.4296875 0.488281,0.4257813 0.488281,1.1601563 z m -1.011719,2.5351562 q 0,-0.3710938 -0.214843,-0.59375 -0.214844,-0.2226563 -0.5781255,-0.2226563 -0.359375,0 -0.5742187,0.2226563 -0.2148438,0.21875 -0.2148438,0.59375 0,0.3632813 0.2109375,0.5859375 Q 9.625,-0.83203125 10,-0.83203125 q 0.367188,0 0.574219,-0.21484375 0.210937,-0.2148437 0.210937,-0.59375 z m -0.117187,-2.4804687 q 0,-0.3320313 -0.175781,-0.53125 -0.175782,-0.203125 -0.4960942,-0.203125 -0.3164063,0 -0.4921875,0.1953125 -0.1757813,0.1953125 -0.1757813,0.5390625 0,0.3398437 0.1757813,0.5468749 Q 9.6796875,-3.3671875 10,-3.3671875 q 0.320313,0 0.492188,-0.2070313 0.175781,-0.2070312 0.175781,-0.5468749 z"/>
      </g>
    </g>
    <g transform="translate(0,170)" id="g68075">
      <g style="font-weight:bold;font-size:8px;font-family:Roboto, sans-serif;fill:#333333" id="text68073" transform="rotate(-90,10.25,-1.25)" aria-label="dB">
        <path id="path68139" style="font-weight:bold;font-size:8px;font-family:Roboto, sans-serif;fill:#333333" d="m 0.2578125,-2.1445313 q 0,-0.9882812 0.44140625,-1.5742187 0.44531245,-0.5859375 1.21484375,-0.5859375 0.6171875,0 1.0195313,0.4609375 V -6 H 4.0664062 V 0 H 3.046875 L 2.9921875,-0.44921875 Q 2.5703125,0.078125 1.90625,0.078125 q -0.7460938,0 -1.19921875,-0.5859375 Q 0.2578125,-1.0976562 0.2578125,-2.1445313 Z M 1.3867187,-2.0625 q 0,0.59375 0.2070313,0.9101563 0.2070312,0.3164062 0.6015625,0.3164062 0.5234375,0 0.7382813,-0.4414062 V -2.9453125 Q 2.7226563,-3.3867188 2.203125,-3.3867188 q -0.8164063,0 -0.8164063,1.3242188 z"/>
        <path id="path68141" style="font-weight:bold;font-size:8px;font-family:Roboto, sans-serif;fill:#333333" d="M 5.0234375,0 V -5.6875 H 7.015625 q 1.0351563,0 1.5703125,0.3984375 0.5351563,0.3945313 0.5351563,1.1601563 0,0.4179687 -0.2148438,0.7382812 -0.2148437,0.3164062 -0.5976562,0.4648437 0.4375,0.109375 0.6875,0.4414063 Q 9.25,-2.1523438 9.25,-1.671875 9.25,-0.8515625 8.7265625,-0.4296875 8.203125,-0.0078125 7.234375,0 Z m 1.171875,-2.4765625 v 1.53515625 h 1.0039062 q 0.4140625,0 0.6445313,-0.19531245 0.234375,-0.1992188 0.234375,-0.546875 0,-0.7812501 -0.8085938,-0.7929688 z m 0,-0.828125 H 7.0625 q 0.8867187,-0.015625 0.8867187,-0.7070312 0,-0.3867188 -0.2265625,-0.5546875 Q 7.5,-4.7382812 7.015625,-4.7382812 H 6.1953125 Z"/>
      </g>
    </g>
  </g>
  <g transform="translate(5.5,200)" id="g67985">
    <path d="M 0,0 H 34 V 10 H 0 Z" style="fill:#fafafa" transform="translate(0,63)" id="rect67973"/>
    <path d="m 5,0 h 24 c 2.77,0 5,2.23 5,5 v 60 c 0,2.77 -2.23,5 -5,5 H 5 C 2.23,70 0,67.77 0,65 V 5 C 0,2.23 2.23,0 5,0 Z" style="fill:#fafafa" id="rect67975"/>
    <g transform="translate(5,3)" id="g67977"/>
    <g style="font-weight:bold;font-size:6.66667px;font-family:Roboto, sans-serif;letter-spacing:2px;fill:#333333" id="text67979" transform="translate(15,35)" aria-label="L">
      <path id="path68089" style="font-weight:bold;font-size:6.66667px;font-family:Roboto, sans-serif;letter-spacing:2px;fill:#333333" d="M 1.3997403,-0.78450558 H 3.4733089 V 0 H 0.42317729 V -4.7395856 H 1.3997403 Z"/>
    </g>
    <g transform="translate(5,38)" id="g67981"/>
    <g style="font-weight:bold;font-size:6.66667px;font-family:Roboto, sans-serif;letter-spacing:0.5px;fill:#333333" id="text67983" transform="translate(9,70)" aria-label="R (L)">
      <path id="path68092" style="font-weight:bold;font-size:6.66667px;font-family:Roboto, sans-serif;letter-spacing:0.5px;fill:#333333" d="M 2.1777354,-1.7350269 H 1.3997403 V 0 H 0.42317729 V -4.7395856 H 2.1842458 q 0.8398442,0 1.2955736,0.3743491 0.4557294,0.3743492 0.4557294,1.0579433 0,0.4850262 -0.2115887,0.8105472 -0.2083334,0.3222658 -0.6347659,0.5143232 l 1.0253911,1.93684986 V 0 H 3.0664077 Z M 1.3997403,-2.5260429 H 2.187501 q 0.3678388,0 0.5696618,-0.1855469 0.201823,-0.1888022 0.201823,-0.5175784 0,-0.3352866 -0.1920574,-0.527344 Q 2.5781262,-3.9485696 2.1842458,-3.9485696 H 1.3997403 Z"/>
      <path id="path68094" style="font-weight:bold;font-size:6.66667px;font-family:Roboto, sans-serif;letter-spacing:0.5px;fill:#333333" d="m 7.3281279,-1.9270843 q 0,-0.745443 0.1985678,-1.4192715 0.1985678,-0.6738284 0.5859378,-1.1914068 0.38737,-0.5208336 0.8398441,-0.7226566 l 0.1822918,0.5078128 q -0.4752607,0.3515626 -0.7421879,1.0872401 -0.2669272,0.7356774 -0.2669272,1.7187508 v 0.1009115 q 0,0.98632859 0.263672,1.72526123 0.263672,0.73893265 0.7454431,1.10351616 L 8.9524776,1.4811205 Q 8.5097691,1.2825527 8.1256543,0.77799516 7.7447948,0.27669284 7.5429717,-0.38085956 7.3411487,-1.038412 7.3281279,-1.7545581 Z"/>
      <path id="path68096" style="font-weight:bold;font-size:6.66667px;font-family:Roboto, sans-serif;letter-spacing:0.5px;fill:#333333" d="m 11.167974,-0.78450558 h 2.073568 V 0 h -3.050131 v -4.7395856 h 0.976563 z"/>
      <path id="path68098" style="font-weight:bold;font-size:6.66667px;font-family:Roboto, sans-serif;letter-spacing:0.5px;fill:#333333" d="m 15.857429,-1.8522144 q 0,0.7356774 -0.211589,1.41601628 Q 15.434251,0.24414074 15.037116,0.76497432 14.63998,1.2858079 14.187506,1.4811205 L 14.005214,0.98307339 q 0.46224,-0.34830746 0.729167,-1.07421927 0.266927,-0.7259118 0.276693,-1.66992262 v -0.1725262 q 0,-0.9733077 -0.266927,-1.7154956 -0.263672,-0.7421878 -0.738933,-1.1132818 l 0.182292,-0.4980471 q 0.442708,0.1920574 0.833334,0.6966149 0.39388,0.5045576 0.608724,1.1751308 0.218099,0.6705732 0.227865,1.3899746 z"/>
    </g>
  </g>
  <g transform="translate(5.5,276)" id="g67999">
    <path d="M 0,0 H 34 V 10 H 0 Z" style="fill:#bbbbbb" transform="translate(0,-3)" id="rect67987"/>
    <path d="m 5,0 h 24 c 2.77,0 5,2.23 5,5 v 60 c 0,2.77 -2.23,5 -5,5 H 5 C 2.23,70 0,67.77 0,65 V 5 C 0,2.23 2.23,0 5,0 Z" style="fill:#bbbbbb" id="rect67989"/>
    <g transform="translate(5)" id="g67991"/>
    <g style="font-weight:bold;font-size:6.66667px;font-family:Roboto, sans-serif;letter-spacing:2px;fill:#333333" id="text67993" transform="translate(15,32)" aria-label="L">
      <path id="path68081" style="font-weight:bold;font-size:6.66667px;font-family:Roboto, sans-serif;letter-spacing:2px;fill:#333333" d="M 1.3997403,-0.78450558 H 3.4733089 V 0 H 0.42317729 V -4.7395856 H 1.3997403 Z"/>
    </g>
    <g transform="translate(5,35)" id="g67995"/>
    <g style="font-weight:bold;font-size:6.66667px;font-family:Roboto, sans-serif;letter-spacing:2px;fill:#333333" id="text67997" transform="translate(15,67)" aria-label="R">
      <path id="path68084" style="font-weight:bold;font-size:6.66667px;font-family:Roboto, sans-serif;letter-spacing:2px;fill:#333333" d="M 2.1777354,-1.7350269 H 1.3997403 V 0 H 0.42317729 V -4.7395856 H 2.1842458 q 0.8398442,0 1.2955736,0.3743491 0.4557294,0.3743492 0.4557294,1.0579433 0,0.4850262 -0.2115887,0.8105472 -0.2083334,0.3222658 -0.6347659,0.5143232 l 1.0253911,1.93684986 V 0 H 3.0664077 Z M 1.3997403,-2.5260429 H 2.187501 q 0.3678388,0 0.5696618,-0.1855469 0.201823,-0.1888022 0.201823,-0.5175784 0,-0.3352866 -0.1920574,-0.527344 Q 2.5781262,-3.9485696 2.1842458,-3.9485696 H 1.3997403 Z"/>
    </g>
  </g>
</svg>
