<?xml version="1.0" encoding="UTF-8" standalone="no"?>
<svg xmlns:dc="http://purl.org/dc/elements/1.1/" xmlns:cc="http://creativecommons.org/ns#" xmlns:rdf="http://www.w3.org/1999/02/22-rdf-syntax-ns#" xmlns:svg="http://www.w3.org/2000/svg" xmlns="http://www.w3.org/2000/svg" xmlns:sodipodi="http://sodipodi.sourceforge.net/DTD/sodipodi-0.dtd" xmlns:inkscape="http://www.inkscape.org/namespaces/inkscape" inkscape:version="1.0 (4035a4f, 2020-05-01)" sodipodi:docname="svg_render_Walk-pp.svg" id="svg67475" viewBox="0 0 45 380" height="380" width="45" version="1.1">
  <metadata id="metadata67481">
    <rdf:RDF>
      <cc:Work rdf:about="">
        <dc:format>image/svg+xml</dc:format>
        <dc:type rdf:resource="http://purl.org/dc/dcmitype/StillImage"/>
      </cc:Work>
    </rdf:RDF>
  </metadata>
  <defs id="defs67479"/>
  <sodipodi:namedview inkscape:current-layer="svg67475" inkscape:window-maximized="0" inkscape:window-y="23" inkscape:window-x="0" inkscape:cy="190" inkscape:cx="22.5" inkscape:zoom="1.7605263" showgrid="false" id="namedview67477" inkscape:window-height="480" inkscape:window-width="689" inkscape:pageshadow="2" inkscape:pageopacity="0" guidetolerance="10" gridtolerance="10" objecttolerance="10" borderopacity="1" bordercolor="#666666" pagecolor="#ffffff"/>
  
  <path d="M 0,0 H 45 V 380 H 0 Z" style="fill:#dddddd" id="rect67341"/>
  <path d="M 1,1 H 44 V 379 H 1 V 1" style="fill:none;stroke:#e4e4e4;stroke-width:0.5" id="polyline67343"/>
  <path d="m 0.5,0.5 h 44 v 379 H 0.5 V 0.5" style="fill:none;stroke:#ebebeb;stroke-width:0.8" id="polyline67345"/>
  <path d="M 0,0 H 45 V 380 H 0 V 0" style="fill:none;stroke:#f2f2f2;stroke-width:1" id="polyline67347"/>
  <g class="title" style="font-weight:normal;font-size:9.33333px;font-family:Comfortaa, sans-serif;letter-spacing:2.5px;fill:#333333" id="text67349" transform="rotate(-90)" aria-label="WALK">
    <path id="path67628" style="font-weight:normal;font-size:9.33333px;font-family:Comfortaa, sans-serif;letter-spacing:2.5px;fill:#333333" d="m -367.768,5.7106691 q 0.14933,0 0.23333,0.1026667 0.084,0.093333 0.084,0.2426666 0,0.074667 -0.028,0.1773332 l -1.904,6.4586644 q -0.0467,0.149333 -0.14933,0.233333 Q -369.62534,13 -369.756,13 q -0.13067,0 -0.23334,-0.084 -0.0933,-0.084 -0.13066,-0.214667 l -1.512,-5.5159977 -1.50267,5.5066647 q -0.0467,0.14 -0.14933,0.224 -0.0933,0.084 -0.224,0.084 -0.13067,0 -0.23333,-0.084 -0.0933,-0.084 -0.13067,-0.214667 l -1.91333,-6.4679974 q -0.028,-0.1026666 -0.028,-0.1679999 0,-0.1586666 0.0933,-0.2519999 0.0933,-0.1026667 0.24267,-0.1026667 0.26133,0 0.35466,0.28 l 1.61467,5.6279979 1.53067,-5.4693313 q 0.028,-0.1026667 0.12133,-0.168 0.10267,-0.065333 0.224,-0.065333 0.12133,0 0.21467,0.065333 0.0933,0.065333 0.13066,0.1773333 l 1.54,5.469331 1.624,-5.6746643 q 0.0747,-0.2426666 0.35467,-0.2426666 z"/>
    <path id="path67630" style="font-weight:normal;font-size:9.33333px;font-family:Comfortaa, sans-serif;letter-spacing:2.5px;fill:#333333" d="m -359.00359,12.486667 q 0.0373,0.06533 0.0373,0.149333 0,0.149333 -0.112,0.261333 Q -359.18092,13 -359.33025,13 q -0.24267,0 -0.34534,-0.224 l -0.62533,-1.511999 h -3.612 l -0.62533,1.511999 q -0.0747,0.224 -0.336,0.224 -0.15867,0 -0.26134,-0.102667 -0.0933,-0.112 -0.0933,-0.261333 0,-0.09333 0.028,-0.158666 l 2.744,-6.5146649 q 0.10267,-0.252 0.35467,-0.252 0.252,0 0.34533,0.252 z m -1.54933,-1.848 -1.54933,-3.7426649 -1.54934,3.7426649 z"/>
    <path id="path67632" style="font-weight:normal;font-size:9.33333px;font-family:Comfortaa, sans-serif;letter-spacing:2.5px;fill:#333333" d="m -355.04642,13 q -0.14934,0 -0.26134,-0.102667 -0.10266,-0.112 -0.10266,-0.261333 V 6.074669 q 0,-0.1493333 0.10266,-0.2519999 0.112,-0.112 0.26134,-0.112 0.15866,0 0.26133,0.1026667 0.10267,0.1026666 0.10267,0.2613332 v 6.234665 h 3.64933 q 0.15867,0 0.26133,0.102666 0.10267,0.09333 0.10267,0.242667 0,0.149333 -0.10267,0.252 Q -350.87442,13 -351.03309,13 Z"/>
    <path id="path67634" style="font-weight:normal;font-size:9.33333px;font-family:Comfortaa, sans-serif;letter-spacing:2.5px;fill:#333333" d="m -346.64017,13 q -0.14934,0 -0.26134,-0.102667 -0.10266,-0.112 -0.10266,-0.261333 V 6.074669 q 0,-0.1493333 0.10266,-0.2519999 0.112,-0.112 0.26134,-0.112 0.15866,0 0.26133,0.1026667 0.10267,0.1026666 0.10267,0.2613332 v 3.1733323 l 3.40666,-3.4066655 q 0.13067,-0.1306667 0.28933,-0.1306667 0.15867,0 0.24267,0.093333 0.0933,0.093333 0.0933,0.2333332 0,0.1679999 -0.12133,0.2986666 l -2.55733,2.5573324 2.58533,3.5279993 q 0.0747,0.121333 0.0747,0.223999 0,0.14 -0.10267,0.252 Q -342.45884,13 -342.59884,13 q -0.20534,0 -0.308,-0.158667 l -2.53867,-3.4346651 -0.83066,0.8400001 V 12.636 q 0,0.149333 -0.10267,0.261333 Q -346.48151,13 -346.64017,13 Z"/>
  </g>
  <g transform="rotate(-90,200.5,175.5)" id="g67355">
    <g class="brand" style="font-weight:bold;font-size:9.33333px;font-family:Audiowide, sans-serif;letter-spacing:2px;fill:#333333" id="text67351" aria-label="BGA">
      <path id="path67620" style="font-weight:bold;font-size:9.33333px;font-family:Audiowide, sans-serif;letter-spacing:2px;fill:#333333" d="m 7.209633,-1.4355464 q 0,0.2187499 -0.077474,0.4694009 -0.072917,0.25065095 -0.2460936,0.46484359 Q 6.7174456,-0.28710928 6.4440082,-0.14127599 6.1705708,0 5.7740866,0 H 1.2760412 Q 1.1484371,0 1.0390621,-0.0455729 0.92968718,-0.0911458 0.84765596,-0.16861973 0.77018203,-0.25065096 0.72460913,-0.36002592 0.67903623,-0.46940088 0.67903623,-0.597005 v -5.341144 q 0,-0.1230469 0.0455729,-0.2324218 0.0455729,-0.109375 0.12304683,-0.1914062 0.0820312,-0.082031 0.19140614,-0.1276041 0.109375,-0.045573 0.2369791,-0.045573 h 3.9648424 q 0.21875,0 0.4694009,0.077474 0.250651,0.077474 0.4648436,0.250651 0.2187499,0.1686197 0.3600259,0.4420571 0.1458333,0.2734374 0.1458333,0.6699217 v 0.2233072 q 0,0.314453 -0.1048177,0.6790362 -0.1048176,0.3600259 -0.3372394,0.6835935 0.2005207,0.1230468 0.3736978,0.2962239 0.1777343,0.173177 0.3098957,0.4010415 0.1321614,0.2278645 0.2096353,0.5149738 0.077474,0.2871093 0.077474,0.6334633 z M 6.0247375,-1.6634109 q 0,-0.2324218 -0.072917,-0.4147134 Q 5.8789042,-2.2649732 5.7467428,-2.3971346 5.6145814,-2.529296 5.4277325,-2.5976554 5.2408836,-2.670572 5.0084618,-2.670572 h -2.670572 v -1.19401 h 2.1373691 q 0.2324218,0 0.4192707,-0.068359 0.1868489,-0.072917 0.3190103,-0.205078 0.1321614,-0.1321614 0.2005208,-0.314453 0.072917,-0.1868489 0.072917,-0.4192707 v -0.2233072 q 0,-0.2552083 -0.2460937,-0.2552083 H 1.8639317 v 4.1653632 h 3.9101549 q 0.031901,0 0.077474,-0.00456 0.045573,-0.00456 0.082031,-0.027344 0.036458,-0.022786 0.063802,-0.077474 0.027344,-0.054687 0.027344,-0.1503906 z"/>
      <path id="path67622" style="font-weight:bold;font-size:9.33333px;font-family:Audiowide, sans-serif;letter-spacing:2px;fill:#333333" d="m 16.683589,-0.597005 q 0,0.12760412 -0.04557,0.23697908 -0.04557,0.10937496 -0.127605,0.19140619 -0.07747,0.07747393 -0.186849,0.12304683 Q 16.214189,0 16.086584,0 h -4.274738 q -0.164062,0 -0.355468,-0.03645832 -0.186849,-0.04101561 -0.373698,-0.12304683 -0.182292,-0.0820312 -0.350911,-0.20963535 -0.16862,-0.13216141 -0.300782,-0.31445302 -0.127604,-0.18684889 -0.205078,-0.42838528 -0.07747,-0.2460937 -0.07747,-0.5514321 v -3.2083322 q 0,-0.1640625 0.03646,-0.3509114 0.04101,-0.1914062 0.123047,-0.3736978 0.08203,-0.1868489 0.214192,-0.3554686 0.132162,-0.1686197 0.314453,-0.2962238 0.186849,-0.1321615 0.428385,-0.2096354 0.241537,-0.077474 0.546875,-0.077474 h 4.817056 v 1.1848954 h -4.817056 q -0.232422,0 -0.355468,0.1230468 -0.123047,0.1230469 -0.123047,0.3645832 v 3.1992177 q 0,0.2278645 0.123047,0.3554686 0.127604,0.1230469 0.355468,0.1230469 h 3.686848 V -2.670572 h -3.153645 v -1.19401 h 3.741535 q 0.127605,0 0.236979,0.05013 0.109375,0.045573 0.186849,0.1276041 0.08203,0.082031 0.127605,0.1914062 0.04557,0.1048177 0.04557,0.2278645 z"/>
      <path id="path67624" style="font-weight:bold;font-size:9.33333px;font-family:Audiowide, sans-serif;letter-spacing:2px;fill:#333333" d="M 26.339836,0 H 25.154941 V -1.6041661 H 20.989578 V 0 h -1.184896 v -3.267577 q 0,-0.7154946 0.246094,-1.3170569 0.246094,-0.6015623 0.683593,-1.0345048 0.4375,-0.4329426 1.034505,-0.6744789 0.597005,-0.2415364 1.303385,-0.2415364 h 2.670572 q 0.123047,0 0.232422,0.045573 0.109375,0.045573 0.191406,0.1276041 0.08203,0.082031 0.127604,0.1914062 0.04557,0.1093749 0.04557,0.2324218 z m -5.350258,-2.7890616 h 4.165363 v -2.561197 h -2.082682 q -0.05469,0 -0.232422,0.018229 -0.173177,0.013672 -0.405598,0.077474 -0.227865,0.063802 -0.483073,0.1959635 -0.255208,0.1321614 -0.469401,0.3645832 -0.214193,0.2324218 -0.355469,0.5833331 -0.136718,0.3463541 -0.136718,0.8430987 z"/>
    </g>
    <path d="M 0,0 H 3 V 3 H 0 Z" style="fill:#dddddd" transform="translate(11.5,-5)" id="rect67353"/>
  </g>
  <!-- <polyline points="0,0 0,300" stroke="#0f0" stroke-width="1" fill="none" transform="translate(22.5 0)" /> -->
  <g style="font-weight:bold;font-size:8px;font-family:Roboto, sans-serif;letter-spacing:1.5px;fill:#333333" id="text67359" aria-label="RATE">
    <path id="path67652" style="font-weight:bold;font-size:8px;font-family:Roboto, sans-serif;letter-spacing:1.5px;fill:#333333" d="M 12.613281,22.917969 H 11.679688 V 25 h -1.171875 v -5.6875 h 2.113281 q 1.007812,0 1.554687,0.449219 0.546875,0.449218 0.546875,1.269531 0,0.582031 -0.253906,0.972656 -0.25,0.386719 -0.761719,0.617188 L 14.9375,24.945312 V 25 H 13.679688 Z M 11.679688,21.96875 H 12.625 q 0.441406,0 0.683594,-0.222656 0.242187,-0.226563 0.242187,-0.621094 0,-0.402344 -0.230468,-0.632813 -0.226563,-0.230468 -0.699219,-0.230468 h -0.941406 z"/>
    <path id="path67654" style="font-weight:bold;font-size:8px;font-family:Roboto, sans-serif;letter-spacing:1.5px;fill:#333333" d="M 20.328125,23.828125 H 18.273437 L 17.882812,25 h -1.246093 l 2.117187,-5.6875 h 1.085938 L 21.96875,25 h -1.246094 z m -1.738281,-0.949219 h 1.421875 L 19.296875,20.75 Z"/>
    <path id="path67656" style="font-weight:bold;font-size:8px;font-family:Roboto, sans-serif;letter-spacing:1.5px;fill:#333333" d="M 27.820312,20.261719 H 26.078125 V 25 H 24.90625 V 20.261719 H 23.1875 V 19.3125 h 4.632812 z"/>
    <path id="path67658" style="font-weight:bold;font-size:8px;font-family:Roboto, sans-serif;letter-spacing:1.5px;fill:#333333" d="m 33.414062,22.535156 h -2.25 v 1.523438 h 2.640625 V 25 h -3.8125 v -5.6875 h 3.804688 v 0.949219 h -2.632813 v 1.355468 h 2.25 z"/>
  </g>
  <g transform="translate(0,28.5)" id="g67361"/>
  <g transform="translate(0,28)" id="g67389">
    <svg version="1.1" id="svg67387" width="100%" height="100%">
      <g transform="translate(22.5,22.5)" id="g67385">
        <path d="M 0,0 H 4" style="stroke:#333333;stroke-width:1" transform="rotate(120,-8.5,4.9074773)" id="polyline67363"/>
        <path d="M 0,0 H 2.5" style="stroke:#333333;stroke-width:0.3" transform="rotate(150,-8.5,2.2775681)" id="polyline67365"/>
        <path d="M 0,0 H 2.5" style="stroke:#333333;stroke-width:0.3" transform="rotate(180,-8.5,0)" id="polyline67367"/>
        <path d="M 0,0 H 2.5" style="stroke:#333333;stroke-width:0.3" transform="rotate(-150,-8.5,-2.2775681)" id="polyline67369"/>
        <path d="M 0,0 H 2.5" style="stroke:#333333;stroke-width:0.3" transform="rotate(-120,-8.5,-4.9074773)" id="polyline67371"/>
        <path d="M 0,0 H 2.5" style="stroke:#333333;stroke-width:0.3" transform="rotate(-90,-8.5,-8.5)" id="polyline67373"/>
        <path d="M 0,0 H 2.5" style="stroke:#333333;stroke-width:0.3" transform="rotate(-60,-8.5,-14.722432)" id="polyline67375"/>
        <path d="M 0,0 H 2.5" style="stroke:#333333;stroke-width:0.3" transform="rotate(-30,-8.5,-31.722432)" id="polyline67377"/>
        <path d="M 0,0 H 2.5" style="stroke:#333333;stroke-width:0.3" transform="translate(17)" id="polyline67379"/>
        <path d="M 0,0 H 2.5" style="stroke:#333333;stroke-width:0.3" transform="rotate(30,-8.5,31.722432)" id="polyline67381"/>
        <path d="M 0,0 H 2.5" style="stroke:#333333;stroke-width:0.3" transform="rotate(60,-8.5,14.722432)" id="polyline67383"/>
      </g>
    </svg>
  </g>
  <g style="font-weight:bold;font-size:8px;font-family:Roboto, sans-serif;letter-spacing:1.5px;fill:#333333" id="text67393" aria-label="OFFSET">
    <path id="path67607" style="font-weight:bold;font-size:8px;font-family:Roboto, sans-serif;letter-spacing:1.5px;fill:#333333" d="m 9.6796875,79.285156 q 0,0.839844 -0.296875,1.472656 -0.296875,0.632813 -0.8515625,0.976563 -0.5507813,0.34375 -1.265625,0.34375 -0.7070313,0 -1.2617188,-0.339844 -0.5546875,-0.339844 -0.859375,-0.96875 -0.3046875,-0.632812 -0.3085937,-1.453125 v -0.28125 q 0,-0.839844 0.3007812,-1.476562 0.3046875,-0.640625 0.8554688,-0.980469 0.5546875,-0.34375 1.265625,-0.34375 0.7109375,0 1.2617188,0.34375 0.5546875,0.339844 0.8554687,0.980469 0.3046875,0.636718 0.3046875,1.472656 z m -1.1875,-0.257812 q 0,-0.894532 -0.3203125,-1.359375 -0.3203125,-0.464844 -0.9140625,-0.464844 -0.5898438,0 -0.9101563,0.460937 -0.3203125,0.457032 -0.3242187,1.34375 v 0.277344 q 0,0.871094 0.3203125,1.351563 0.3203125,0.480468 0.921875,0.480468 0.5898437,0 0.90625,-0.460937 0.3164063,-0.464844 0.3203125,-1.351563 z"/>
    <path id="path67609" style="font-weight:bold;font-size:8px;font-family:Roboto, sans-serif;letter-spacing:1.5px;fill:#333333" d="m 15.460938,79.675781 h -2.25 V 82 h -1.171875 v -5.6875 h 3.703125 v 0.949219 h -2.53125 v 1.46875 h 2.25 z"/>
    <path id="path67611" style="font-weight:bold;font-size:8px;font-family:Roboto, sans-serif;letter-spacing:1.5px;fill:#333333" d="m 21.351562,79.675781 h -2.25 V 82 h -1.171875 v -5.6875 h 3.703125 v 0.949219 h -2.53125 v 1.46875 h 2.25 z"/>
    <path id="path67613" style="font-weight:bold;font-size:8px;font-family:Roboto, sans-serif;letter-spacing:1.5px;fill:#333333" d="m 26.769531,80.507812 q 0,-0.332031 -0.234375,-0.507812 -0.234375,-0.179688 -0.84375,-0.375 -0.609375,-0.199219 -0.964844,-0.390625 -0.96875,-0.523438 -0.96875,-1.410156 0,-0.460938 0.257813,-0.820313 0.261719,-0.363281 0.746094,-0.566406 0.488281,-0.203125 1.09375,-0.203125 0.609375,0 1.085937,0.222656 0.476563,0.21875 0.738281,0.621094 0.265625,0.402344 0.265625,0.914062 h -1.171875 q 0,-0.390625 -0.246093,-0.605468 -0.246094,-0.21875 -0.691407,-0.21875 -0.429687,0 -0.667968,0.183593 -0.238282,0.179688 -0.238282,0.476563 0,0.277344 0.277344,0.464844 0.28125,0.1875 0.824219,0.351562 1,0.300781 1.457031,0.746094 0.457031,0.445312 0.457031,1.109375 0,0.738281 -0.558593,1.160156 -0.558594,0.417969 -1.503907,0.417969 -0.65625,0 -1.195312,-0.238281 -0.539063,-0.242188 -0.824219,-0.660157 -0.28125,-0.417968 -0.28125,-0.96875 h 1.175781 q 0,0.941407 1.125,0.941407 0.417969,0 0.652344,-0.167969 0.234375,-0.171875 0.234375,-0.476563 z"/>
    <path id="path67615" style="font-weight:bold;font-size:8px;font-family:Roboto, sans-serif;letter-spacing:1.5px;fill:#333333" d="m 33.664062,79.535156 h -2.25 v 1.523438 h 2.640625 V 82 h -3.8125 v -5.6875 h 3.804688 v 0.949219 h -2.632813 v 1.355468 h 2.25 z"/>
    <path id="path67617" style="font-weight:bold;font-size:8px;font-family:Roboto, sans-serif;letter-spacing:1.5px;fill:#333333" d="M 40.601562,77.261719 H 38.859375 V 82 H 37.6875 V 77.261719 H 35.96875 V 76.3125 h 4.632812 z"/>
  </g>
  <g transform="translate(14.5,91)" id="g67395"/>
  <g transform="translate(2.5,79)" id="g67413">
    <svg version="1.1" id="svg67411" width="100%" height="100%">
      <g transform="translate(20,20)" id="g67409">
        <g transform="rotate(-90,-5,-5)" id="g67399">
          <path d="M 0,0 H 4" style="stroke:#333333;stroke-width:1" id="polyline67397"/>
        </g>
        <path d="M 0,-12.5 A 12.5,12.5 0 0 1 12.5,0" stroke="#333333" stroke-width="0.5" stroke-linecap="round" fill="none" transform="rotate(20)" id="path67401"/>
        <path d="M 0,-12.5 A 12.5,12.5 0 0 1 12.5,0" stroke="#333333" stroke-width="0.5" stroke-linecap="round" fill="none" transform="rotate(43)" id="path67403"/>
        <path d="M 0,-12.5 A 12.5,12.5 0 0 0 -12.5,0" stroke="#333333" stroke-width="0.5" stroke-linecap="round" fill="none" transform="rotate(-20)" id="path67405"/>
        <path d="M 0,-12.5 A 12.5,12.5 0 0 0 -12.5,0" stroke="#333333" stroke-width="0.5" stroke-linecap="round" fill="none" transform="rotate(-43)" id="path67407"/>
      </g>
    </svg>
  </g>
  <g style="font-weight:bold;font-size:8px;font-family:Roboto, sans-serif;letter-spacing:2px;fill:#333333" id="text67417" aria-label="SCALE">
    <path id="path67595" style="font-weight:bold;font-size:8px;font-family:Roboto, sans-serif;letter-spacing:2px;fill:#333333" d="m 8.9570313,119.50781 q 0,-0.33203 -0.234375,-0.50781 -0.234375,-0.17969 -0.8437501,-0.375 -0.609375,-0.19922 -0.9648437,-0.39062 -0.96875,-0.52344 -0.96875,-1.41016 0,-0.46094 0.2578125,-0.82031 0.2617187,-0.36328 0.7460937,-0.56641 0.4882813,-0.20312 1.0937501,-0.20312 0.609375,0 1.0859375,0.22265 0.4765625,0.21875 0.7382812,0.6211 0.2656255,0.40234 0.2656255,0.91406 H 8.9609375 q 0,-0.39063 -0.2460937,-0.60547 -0.2460938,-0.21875 -0.6914063,-0.21875 -0.4296875,0 -0.6679688,0.18359 -0.2382812,0.17969 -0.2382812,0.47657 0,0.27734 0.2773437,0.46484 0.28125,0.1875 0.8242188,0.35156 1,0.30078 1.4570313,0.7461 0.4570317,0.44531 0.4570317,1.10937 0,0.73828 -0.5585942,1.16016 -0.5585938,0.41797 -1.5039063,0.41797 -0.65625,0 -1.1953125,-0.23829 -0.5390625,-0.24218 -0.8242188,-0.66015 -0.28125,-0.41797 -0.28125,-0.96875 h 1.1757813 q 0,0.9414 1.125,0.9414 0.4179688,0 0.6523438,-0.16796 0.234375,-0.17188 0.234375,-0.47657 z"/>
    <path id="path67597" style="font-weight:bold;font-size:8px;font-family:Roboto, sans-serif;letter-spacing:2px;fill:#333333" d="m 17.394531,119.10547 q -0.06641,0.91797 -0.679687,1.44531 -0.609375,0.52735 -1.609375,0.52735 -1.09375,0 -1.722656,-0.73438 -0.625,-0.73828 -0.625,-2.02344 v -0.34765 q 0,-0.82032 0.289062,-1.44532 0.289063,-0.625 0.824219,-0.95703 0.539062,-0.33593 1.25,-0.33593 0.984375,0 1.585937,0.52734 0.601563,0.52734 0.695313,1.48047 h -1.171875 q -0.04297,-0.55078 -0.308594,-0.79688 -0.261719,-0.25 -0.800781,-0.25 -0.585938,0 -0.878906,0.42188 -0.289063,0.41797 -0.296875,1.30078 v 0.42969 q 0,0.92187 0.277343,1.34765 0.28125,0.42578 0.882813,0.42578 0.542969,0 0.808594,-0.24609 0.269531,-0.25 0.308593,-0.76953 z"/>
    <path id="path67599" style="font-weight:bold;font-size:8px;font-family:Roboto, sans-serif;letter-spacing:2px;fill:#333333" d="M 23.375,119.82813 H 21.320312 L 20.929687,121 h -1.246093 l 2.117187,-5.6875 h 1.085938 L 25.015625,121 h -1.246094 z m -1.738281,-0.94922 h 1.421875 L 22.34375,116.75 Z"/>
    <path id="path67601" style="font-weight:bold;font-size:8px;font-family:Roboto, sans-serif;letter-spacing:2px;fill:#333333" d="m 28.726562,120.05859 h 2.488282 V 121 h -3.660157 v -5.6875 h 1.171875 z"/>
    <path id="path67603" style="font-weight:bold;font-size:8px;font-family:Roboto, sans-serif;letter-spacing:2px;fill:#333333" d="m 37.304687,118.53516 h -2.25 v 1.52343 h 2.640625 V 121 h -3.8125 v -5.6875 H 37.6875 v 0.94922 h -2.632813 v 1.35547 h 2.25 z"/>
  </g>
  <g transform="translate(14.5,130)" id="g67419"/>
  <g transform="translate(2.5,118)" id="g67437">
    <svg version="1.1" id="svg67435" width="100%" height="100%">
      <g transform="translate(20,20)" id="g67433">
        <g transform="rotate(120,-5,2.8867513)" id="g67423">
          <path d="M 0,0 H 4" style="stroke:#333333;stroke-width:1" id="polyline67421"/>
        </g>
        <path d="M 0,-12.5 A 12.5,12.5 0 0 1 12.5,0" stroke="#333333" stroke-width="0.5" stroke-linecap="round" fill="none" id="path67425"/>
        <path d="M 0,-12.5 A 12.5,12.5 0 0 1 12.5,0" stroke="#333333" stroke-width="0.5" stroke-linecap="round" fill="none" transform="rotate(43)" id="path67427"/>
        <path d="M 0,-12.5 A 12.5,12.5 0 0 0 -12.5,0" stroke="#333333" stroke-width="0.5" stroke-linecap="round" fill="none" id="path67429"/>
        <path d="M 0,-12.5 A 12.5,12.5 0 0 0 -12.5,0" stroke="#333333" stroke-width="0.5" stroke-linecap="round" fill="none" transform="rotate(-43)" id="path67431"/>
      </g>
    </svg>
  </g>
  <g transform="translate(5.5,157)" id="g67461">
    <path d="M 0,0 H 34 V 10 H 0 Z" style="fill:#fafafa" transform="translate(0,133)" id="rect67441"/>
    <path d="m 5,0 h 24 c 2.77,0 5,2.23 5,5 v 130 c 0,2.77 -2.23,5 -5,5 H 5 c -2.77,0 -5,-2.23 -5,-5 V 5 C 0,2.23 2.23,0 5,0 Z" style="fill:#fafafa" id="rect67443"/>
    <g transform="translate(5,3)" id="g67445"/>
    <g style="font-weight:bold;font-size:6.66667px;font-family:Roboto, sans-serif;letter-spacing:2px;fill:#333333" id="text67447" transform="translate(6,35)" aria-label="RATE">
      <path id="path67552" style="font-weight:bold;font-size:6.66667px;font-family:Roboto, sans-serif;letter-spacing:2px;fill:#333333" d="M 2.1777354,-1.7350269 H 1.3997403 V 0 H 0.42317729 V -4.7395856 H 2.1842458 q 0.8398442,0 1.2955736,0.3743491 0.4557294,0.3743492 0.4557294,1.0579433 0,0.4850262 -0.2115887,0.8105472 -0.2083334,0.3222658 -0.6347659,0.5143232 l 1.0253911,1.93684986 V 0 H 3.0664077 Z M 1.3997403,-2.5260429 H 2.187501 q 0.3678388,0 0.5696618,-0.1855469 0.201823,-0.1888022 0.201823,-0.5175784 0,-0.3352866 -0.1920574,-0.527344 Q 2.5781262,-3.9485696 2.1842458,-3.9485696 H 1.3997403 Z"/>
      <path id="path67554" style="font-weight:bold;font-size:6.66667px;font-family:Roboto, sans-serif;letter-spacing:2px;fill:#333333" d="M 9.3567742,-0.97656297 H 7.6445338 L 7.3190128,0 H 6.2806009 L 8.0449246,-4.7395856 H 8.949873 L 10.723962,0 H 9.6855504 Z M 7.9082058,-1.767579 H 9.0931022 L 8.4973988,-3.5416684 Z"/>
      <path id="path67556" style="font-weight:bold;font-size:6.66667px;font-family:Roboto, sans-serif;letter-spacing:2px;fill:#333333" d="M 16.350266,-3.9485696 H 14.898443 V 0 H 13.92188 v -3.9485696 h -1.432293 v -0.791016 h 3.860679 z"/>
      <path id="path67558" style="font-weight:bold;font-size:6.66667px;font-family:Roboto, sans-serif;letter-spacing:2px;fill:#333333" d="m 21.761725,-2.0540374 h -1.875 v 1.26953182 h 2.200521 V 0 h -3.177084 v -4.7395856 h 3.170574 v 0.791016 h -2.194011 v 1.1295578 h 1.875 z"/>
    </g>
    <g transform="translate(5,38)" id="g67449"/>
    <g style="font-weight:bold;font-size:6.66667px;font-family:Roboto, sans-serif;letter-spacing:1.2px;fill:#333333" id="text67451" transform="translate(2,70)" aria-label="OFFSET">
      <path id="path67561" style="font-weight:bold;font-size:6.66667px;font-family:Roboto, sans-serif;letter-spacing:1.2px;fill:#333333" d="m 4.3164083,-2.2623709 q 0,0.6998702 -0.2473959,1.2272142 -0.247396,0.52734396 -0.7096358,0.81380243 -0.4589846,0.28645847 -1.054688,0.28645847 -0.589193,0 -1.0514328,-0.28320326 Q 0.791016,-0.50130232 0.53710963,-1.0253911 0.28320326,-1.5527351 0.27994805,-2.2363292 v -0.2343751 q 0,-0.6998701 0.25065116,-1.2304693 0.25390637,-0.5338545 0.71289099,-0.8170577 0.4622398,-0.2864585 1.054688,-0.2864585 0.5924482,0 1.0514328,0.2864585 0.4622398,0.2832032 0.7128909,0.8170577 0.2539064,0.5305992 0.2539064,1.2272141 z M 3.3268245,-2.4772147 q 0,-0.7454431 -0.2669272,-1.1328131 -0.2669272,-0.3873699 -0.7617191,-0.3873699 -0.4915367,0 -0.7584639,0.3841147 -0.2669272,0.3808596 -0.2701824,1.1197922 v 0.2311199 q 0,0.7259118 0.2669272,1.1263026 0.2669272,0.40039087 0.7682295,0.40039087 0.4915367,0 0.7552087,-0.38411477 0.263672,-0.38737 0.2669272,-1.1263026 z"/>
      <path id="path67563" style="font-weight:bold;font-size:6.66667px;font-family:Roboto, sans-serif;letter-spacing:1.2px;fill:#333333" d="M 9.0841188,-1.9368499 H 7.2091179 V 0 H 6.232555 v -4.7395856 h 3.0859389 v 0.791016 h -2.109376 v 1.2239589 h 1.8750009 z"/>
      <path id="path67565" style="font-weight:bold;font-size:6.66667px;font-family:Roboto, sans-serif;letter-spacing:1.2px;fill:#333333" d="M 13.942975,-1.9368499 H 12.067974 V 0 h -0.976563 v -4.7395856 h 3.085939 v 0.791016 h -2.109376 v 1.2239589 h 1.875001 z"/>
      <path id="path67567" style="font-weight:bold;font-size:6.66667px;font-family:Roboto, sans-serif;letter-spacing:1.2px;fill:#333333" d="m 18.40795,-1.2434902 q 0,-0.2766928 -0.195313,-0.4231773 -0.195312,-0.1497396 -0.703125,-0.3125001 -0.507813,-0.1660157 -0.804037,-0.325521 -0.807292,-0.4361981 -0.807292,-1.1751308 0,-0.3841147 0.214844,-0.683594 0.218099,-0.3027346 0.621745,-0.4720055 0.406901,-0.1692709 0.911459,-0.1692709 0.507812,0 0.904948,0.185547 0.397136,0.1822917 0.615235,0.5175783 0.221354,0.3352867 0.221354,0.7617192 h -0.976563 q 0,-0.325521 -0.205078,-0.5045576 -0.205078,-0.1822917 -0.576172,-0.1822917 -0.358073,0 -0.556641,0.1529948 -0.198568,0.1497397 -0.198568,0.3971356 0,0.2311199 0.23112,0.38737 0.234375,0.1562501 0.686849,0.2929689 0.833334,0.2506512 1.214193,0.6217451 0.38086,0.3710939 0.38086,0.9244796 0,0.61523467 -0.465495,0.96679734 -0.465495,0.34830746 -1.253256,0.34830746 -0.546875,0 -0.996094,-0.19856781 -0.449219,-0.20182301 -0.686849,-0.55013047 -0.234375,-0.34830742 -0.234375,-0.80729202 h 0.979818 q 0,0.78450555 0.9375,0.78450555 0.348308,0 0.54362,-0.13997402 0.195313,-0.14322924 0.195313,-0.39713563 z"/>
      <path id="path67569" style="font-weight:bold;font-size:6.66667px;font-family:Roboto, sans-serif;letter-spacing:1.2px;fill:#333333" d="m 24.103394,-2.0540374 h -1.875 v 1.26953182 h 2.200521 V 0 h -3.177084 v -4.7395856 h 3.170574 v 0.791016 h -2.194011 v 1.1295578 h 1.875 z"/>
      <path id="path67571" style="font-weight:bold;font-size:6.66667px;font-family:Roboto, sans-serif;letter-spacing:1.2px;fill:#333333" d="M 29.834647,-3.9485696 H 28.382823 V 0 H 27.40626 v -3.9485696 h -1.432292 v -0.791016 h 3.860679 z"/>
    </g>
    <g transform="translate(5,73)" id="g67453"/>
    <g style="font-weight:bold;font-size:6.66667px;font-family:Roboto, sans-serif;letter-spacing:2px;fill:#333333" id="text67455" transform="translate(2.5,105)" aria-label="SCALE">
      <path id="path67574" style="font-weight:bold;font-size:6.66667px;font-family:Roboto, sans-serif;letter-spacing:2px;fill:#333333" d="m 2.8808607,-1.2434902 q 0,-0.2766928 -0.1953125,-0.4231773 Q 2.4902356,-1.8164071 1.9824228,-1.9791676 1.4746101,-2.1451833 1.178386,-2.3046886 0.37109393,-2.7408867 0.37109393,-3.4798194 q 0,-0.3841147 0.21484385,-0.683594 0.21809906,-0.3027346 0.62174512,-0.4720055 0.4069012,-0.1692709 0.9114587,-0.1692709 0.5078128,0 0.9049484,0.185547 0.3971356,0.1822917 0.6152347,0.5175783 0.2213542,0.3352867 0.2213542,0.7617192 H 2.884116 q 0,-0.325521 -0.2050783,-0.5045576 -0.2050782,-0.1822917 -0.5761721,-0.1822917 -0.3580731,0 -0.5566409,0.1529948 -0.1985678,0.1497397 -0.1985678,0.3971356 0,0.2311199 0.2311199,0.38737 0.2343751,0.1562501 0.6868493,0.2929689 0.8333337,0.2506512 1.2141933,0.6217451 0.3808595,0.3710939 0.3808595,0.9244796 0,0.61523467 -0.465495,0.96679734 -0.465495,0.34830746 -1.2532558,0.34830746 -0.5468753,0 -0.9960942,-0.19856781 Q 0.69661492,-0.33528662 0.45898459,-0.68359408 0.22460948,-1.0319015 0.22460948,-1.4908861 H 1.2044277 q 0,0.78450555 0.9375004,0.78450555 0.3483075,0 0.5436201,-0.13997402 0.1953125,-0.14322924 0.1953125,-0.39713563 z"/>
      <path id="path67576" style="font-weight:bold;font-size:6.66667px;font-family:Roboto, sans-serif;letter-spacing:2px;fill:#333333" d="m 10.245447,-1.5787768 q -0.05534,0.76497433 -0.5664069,1.20442766 -0.5078128,0.43945334 -1.3411465,0.43945334 -0.9114588,0 -1.4355476,-0.61197946 Q 6.3815125,-1.1621099 6.3815125,-2.233074 v -0.2897137 q 0,-0.683594 0.2408855,-1.2044276 0.2408855,-0.5208336 0.6868493,-0.7975264 0.4492189,-0.2799481 1.0416671,-0.2799481 0.8203129,0 1.3216153,0.4394533 0.5013023,0.4394534 0.5794273,1.2337246 H 9.275394 Q 9.2395867,-3.5904965 9.0182325,-3.7955747 8.8001334,-4.0039082 8.3509144,-4.0039082 q -0.4882814,0 -0.7324222,0.3515627 -0.2408855,0.3483075 -0.2473959,1.0839849 v 0.3580731 q 0,0.7682295 0.2311199,1.1230474 0.2343751,0.35481788 0.7356774,0.35481788 0.4524742,0 0.6738284,-0.20507823 0.2246095,-0.20833345 0.2571616,-0.64127635 z"/>
      <path id="path67578" style="font-weight:bold;font-size:6.66667px;font-family:Roboto, sans-serif;letter-spacing:2px;fill:#333333" d="M 15.562506,-0.97656297 H 13.850265 L 13.524744,0 h -1.038412 l 1.764324,-4.7395856 h 0.904948 L 16.929694,0 H 15.891282 Z M 14.113937,-1.767579 h 1.184897 L 14.70313,-3.5416684 Z"/>
      <path id="path67580" style="font-weight:bold;font-size:6.66667px;font-family:Roboto, sans-serif;letter-spacing:2px;fill:#333333" d="m 20.355475,-0.78450558 h 2.073568 V 0 h -3.050131 v -4.7395856 h 0.976563 z"/>
      <path id="path67582" style="font-weight:bold;font-size:6.66667px;font-family:Roboto, sans-serif;letter-spacing:2px;fill:#333333" d="m 27.837249,-2.0540374 h -1.875001 v 1.26953182 H 28.16277 V 0 h -3.177085 v -4.7395856 h 3.170574 v 0.791016 h -2.194011 v 1.1295578 h 1.875001 z"/>
    </g>
    <g transform="translate(5,108)" id="g67457"/>
    <g style="font-weight:bold;font-size:6.66667px;font-family:Roboto, sans-serif;letter-spacing:2px;fill:#333333" id="text67459" transform="translate(5,140)" aria-label="JUMP">
      <path id="path67585" style="font-weight:bold;font-size:6.66667px;font-family:Roboto, sans-serif;letter-spacing:2px;fill:#333333" d="m 2.3339855,-4.7395856 h 0.976563 v 3.2812516 q 0,0.4524741 -0.2018231,0.8007816 Q 2.9101576,-0.31250015 2.5455741,-0.12369798 2.1809906,0.0651042 1.722006,0.0651042 q -0.75195345,0 -1.17187553,-0.38085956 Q 0.1302084,-0.69987013 0.1302084,-1.3997403 h 0.9830734 q 0,0.3483075 0.1464844,0.51432321 0.1464845,0.16601571 0.4622398,0.16601571 0.2799481,0 0.4459638,-0.19205739 Q 2.3339855,-1.1035162 2.3339855,-1.458334 Z"/>
      <path id="path67587" style="font-weight:bold;font-size:6.66667px;font-family:Roboto, sans-serif;letter-spacing:2px;fill:#333333" d="m 9.7343785,-4.7395856 v 3.1217463 q 0,0.77799515 -0.4882815,1.23046932 -0.4850263,0.45247418 -1.3281256,0.45247418 -0.8300785,0 -1.31836,-0.43945334 Q 6.1113299,-0.81380247 6.1015643,-1.582032 v -3.1575536 h 0.9765629 v 3.1282567 q 0,0.465495 0.2213543,0.68033887 0.2246095,0.21158865 0.6184899,0.21158865 0.8235681,0 0.8365889,-0.86588582 v -3.1542984 z"/>
      <path id="path67589" style="font-weight:bold;font-size:6.66667px;font-family:Roboto, sans-serif;letter-spacing:2px;fill:#333333" d="m 13.811203,-4.7395856 1.217448,3.4375016 1.210938,-3.4375016 h 1.282553 V 0 H 16.542324 V -1.2955735 L 16.63998,-3.5319027 15.360683,0 H 14.69011 l -1.276043,-3.5286475 0.09766,2.233074 V 0 h -0.976563 v -4.7395856 z"/>
      <path id="path67591" style="font-weight:bold;font-size:6.66667px;font-family:Roboto, sans-serif;letter-spacing:2px;fill:#333333" d="M 21.35808,-1.6699227 V 0 h -0.976563 v -4.7395856 h 1.848959 q 0.533855,0 0.937501,0.1953126 0.406901,0.1953126 0.625,0.5566409 0.218099,0.3580731 0.218099,0.8170577 0,0.6966149 -0.478516,1.1002609 -0.47526,0.4003908 -1.31836,0.4003908 z m 0,-0.791016 h 0.872396 q 0.38737,0 0.589193,-0.1822917 0.205078,-0.1822918 0.205078,-0.5208336 0,-0.3483075 -0.205078,-0.5631513 -0.205078,-0.2148439 -0.566406,-0.2213543 H 21.35808 Z"/>
    </g>
  </g>
  <g transform="translate(5.5,303)" id="g67471">
    <path d="M 0,0 H 34 V 10 H 0 Z" style="fill:#bbbbbb" transform="translate(0,-3)" id="rect67463"/>
    <path d="m 5,0 h 24 c 2.77,0 5,2.23 5,5 v 25 c 0,2.77 -2.23,5 -5,5 H 5 C 2.23,35 0,32.77 0,30 V 5 C 0,2.23 2.23,0 5,0 Z" style="fill:#bbbbbb" id="rect67465"/>
    <g transform="translate(5)" id="g67467"/>
    <g style="font-weight:bold;font-size:6.66667px;font-family:Roboto, sans-serif;letter-spacing:2px;fill:#333333" id="text67469" transform="translate(8.3,32)" aria-label="OUT">
      <path id="path67543" style="font-weight:bold;font-size:6.66667px;font-family:Roboto, sans-serif;letter-spacing:2px;fill:#333333" d="m 4.3164083,-2.2623709 q 0,0.6998702 -0.2473959,1.2272142 -0.247396,0.52734396 -0.7096358,0.81380243 -0.4589846,0.28645847 -1.054688,0.28645847 -0.589193,0 -1.0514328,-0.28320326 Q 0.791016,-0.50130232 0.53710963,-1.0253911 0.28320326,-1.5527351 0.27994805,-2.2363292 v -0.2343751 q 0,-0.6998701 0.25065116,-1.2304693 0.25390637,-0.5338545 0.71289099,-0.8170577 0.4622398,-0.2864585 1.054688,-0.2864585 0.5924482,0 1.0514328,0.2864585 0.4622398,0.2832032 0.7128909,0.8170577 0.2539064,0.5305992 0.2539064,1.2272141 z M 3.3268245,-2.4772147 q 0,-0.7454431 -0.2669272,-1.1328131 -0.2669272,-0.3873699 -0.7617191,-0.3873699 -0.4915367,0 -0.7584639,0.3841147 -0.2669272,0.3808596 -0.2701824,1.1197922 v 0.2311199 q 0,0.7259118 0.2669272,1.1263026 0.2669272,0.40039087 0.7682295,0.40039087 0.4915367,0 0.7552087,-0.38411477 0.263672,-0.38737 0.2669272,-1.1263026 z"/>
      <path id="path67545" style="font-weight:bold;font-size:6.66667px;font-family:Roboto, sans-serif;letter-spacing:2px;fill:#333333" d="m 10.619796,-4.7395856 v 3.1217463 q 0,0.77799515 -0.488282,1.23046932 -0.4850258,0.45247418 -1.3281252,0.45247418 -0.8300785,0 -1.31836,-0.43945334 Q 6.9967474,-0.81380247 6.9869817,-1.582032 v -3.1575536 h 0.976563 v 3.1282567 q 0,0.465495 0.2213543,0.68033887 0.2246095,0.21158865 0.6184898,0.21158865 0.8235681,0 0.836589,-0.86588582 v -3.1542984 z"/>
      <path id="path67547" style="font-weight:bold;font-size:6.66667px;font-family:Roboto, sans-serif;letter-spacing:2px;fill:#333333" d="M 16.988288,-3.9485696 H 15.536464 V 0 h -0.976563 v -3.9485696 h -1.432292 v -0.791016 h 3.860679 z"/>
    </g>
  </g>
</svg>
