<?xml version="1.0" encoding="UTF-8" standalone="no"?>
<svg xmlns:dc="http://purl.org/dc/elements/1.1/" xmlns:cc="http://creativecommons.org/ns#" xmlns:rdf="http://www.w3.org/1999/02/22-rdf-syntax-ns#" xmlns:svg="http://www.w3.org/2000/svg" xmlns="http://www.w3.org/2000/svg" xmlns:sodipodi="http://sodipodi.sourceforge.net/DTD/sodipodi-0.dtd" xmlns:inkscape="http://www.inkscape.org/namespaces/inkscape" inkscape:version="1.0 (4035a4f, 2020-05-01)" sodipodi:docname="svg_render_Walk2-pp.svg" id="svg65525" viewBox="0 0 210 380" height="380" width="210" version="1.1">
  <metadata id="metadata65529">
    <rdf:RDF>
      <cc:Work rdf:about="">
        <dc:format>image/svg+xml</dc:format>
        <dc:type rdf:resource="http://purl.org/dc/dcmitype/StillImage"/>
      </cc:Work>
    </rdf:RDF>
  </metadata>
  <sodipodi:namedview inkscape:current-layer="svg65525" inkscape:window-maximized="0" inkscape:window-y="23" inkscape:window-x="0" inkscape:cy="190" inkscape:cx="105" inkscape:zoom="1.7605263" showgrid="false" id="namedview65527" inkscape:window-height="480" inkscape:window-width="689" inkscape:pageshadow="2" inkscape:pageopacity="0" guidetolerance="10" gridtolerance="10" objecttolerance="10" borderopacity="1" bordercolor="#666666" pagecolor="#ffffff"/>
  
  <defs id="defs65247">
    <symbol viewBox="0 0 190px 190px" id="display-walk2">
      <rect id="rect65244" fill="#222" height="190" width="190" cy="0" cx="0"/>
    </symbol>
  </defs>
  <path class="module-background background-fill" d="M 0,0 H 210 V 380 H 0 Z" style="fill:#dddddd" id="rect65249"/>
  <path class="module-border-inner" d="M 1,1 H 209 V 379 H 1 V 1" style="fill:none;stroke:#e4e4e4;stroke-width:0.5" id="polyline65251"/>
  <path class="module-border-middle" d="m 0.5,0.5 h 209 v 379 H 0.5 V 0.5" style="fill:none;stroke:#ebebeb;stroke-width:0.8" id="polyline65253"/>
  <path class="module-border-outer" d="M 0,0 H 210 V 380 H 0 V 0" style="fill:none;stroke:#f2f2f2;stroke-width:1" id="polyline65255"/>
  <g class="title" style="font-weight:normal;font-size:16px;font-family:Comfortaa, sans-serif;letter-spacing:4px;text-anchor:middle;fill:#333333" id="text65257" transform="translate(105.0 19)" aria-label="WALK2">
    <path id="path65860" style="font-weight:normal;font-size:16px;font-family:Comfortaa, sans-serif;letter-spacing:4px;text-anchor:middle;fill:#333333" d="m -21.388,-12.496 q 0.256,0 0.4,0.176 0.144,0.16 0.144,0.416 0,0.128 -0.048,0.304 l -3.264,11.072 q -0.08,0.256 -0.256,0.4 Q -24.572,0 -24.796,0 q -0.224,0 -0.4,-0.144 -0.16,-0.144 -0.224,-0.368 l -2.592,-9.456 -2.576,9.44 q -0.08,0.24 -0.256,0.384 Q -31.004,0 -31.228,0 q -0.224,0 -0.4,-0.144 -0.16,-0.144 -0.224,-0.368 l -3.28,-11.088 q -0.048,-0.176 -0.048,-0.288 0,-0.272 0.16,-0.432 0.16,-0.176 0.416,-0.176 0.448,0 0.608,0.48 l 2.768,9.648 2.624,-9.376 q 0.048,-0.176 0.208,-0.288 0.176,-0.112 0.384,-0.112 0.208,0 0.368,0.112 0.16,0.112 0.224,0.304 l 2.64,9.376 2.784,-9.728 q 0.128,-0.416 0.608,-0.416 z"/>
    <path id="path65862" style="font-weight:normal;font-size:16px;font-family:Comfortaa, sans-serif;letter-spacing:4px;text-anchor:middle;fill:#333333" d="m -6.649,-0.88 q 0.064,0.112 0.064,0.256 0,0.256 -0.192,0.448 Q -6.953,0 -7.209,0 -7.625,0 -7.801,-0.384 l -1.072,-2.592 h -6.192 l -1.072,2.592 Q -16.265,0 -16.713,0 q -0.272,0 -0.448,-0.176 -0.16,-0.192 -0.16,-0.448 0,-0.16 0.048,-0.272 l 4.704,-11.168 q 0.176,-0.432 0.608,-0.432 0.432,0 0.592,0.432 z m -2.656,-3.168 -2.656,-6.416 -2.656,6.416 z"/>
    <path id="path65864" style="font-weight:normal;font-size:16px;font-family:Comfortaa, sans-serif;letter-spacing:4px;text-anchor:middle;fill:#333333" d="m -0.151,0 q -0.256,0 -0.448,-0.176 -0.176,-0.192 -0.176,-0.448 v -11.248 q 0,-0.256 0.176,-0.432 0.192,-0.192 0.448,-0.192 0.272,0 0.448,0.176 0.176,0.176 0.176,0.448 v 10.688 h 6.256 q 0.272,0 0.448,0.176 0.176,0.16 0.176,0.416 0,0.256 -0.176,0.432 Q 7.001,0 6.729,0 Z"/>
    <path id="path65866" style="font-weight:normal;font-size:16px;font-family:Comfortaa, sans-serif;letter-spacing:4px;text-anchor:middle;fill:#333333" d="M 13.974,0 Q 13.718,0 13.526,-0.176 13.35,-0.368 13.35,-0.624 v -11.248 q 0,-0.256 0.176,-0.432 0.192,-0.192 0.448,-0.192 0.272,0 0.448,0.176 0.176,0.176 0.176,0.448 v 5.44 l 5.84,-5.84 q 0.224,-0.224 0.496,-0.224 0.272,0 0.416,0.16 0.16,0.16 0.16,0.4 0,0.288 -0.208,0.512 l -4.384,4.384 4.432,6.048 q 0.128,0.208 0.128,0.384 0,0.24 -0.176,0.432 Q 21.142,0 20.902,0 20.55,0 20.374,-0.272 l -4.352,-5.888 -1.424,1.44 v 4.096 q 0,0.256 -0.176,0.448 Q 14.246,0 13.974,0 Z"/>
    <path id="path65868" style="font-weight:normal;font-size:16px;font-family:Comfortaa, sans-serif;letter-spacing:4px;text-anchor:middle;fill:#333333" d="m 27.97875,0 q -0.256,0 -0.448,-0.176 -0.176,-0.192 -0.176,-0.448 0,-0.256 0.176,-0.432 l 4.848,-5.728 q 0.4,-0.432 0.64,-0.96 0.24,-0.544 0.24,-1.008 0,-1.12 -0.672,-1.84 -0.656,-0.72 -1.68,-0.72 -0.672,0 -1.216,0.352 -0.544,0.336 -0.864,0.928 -0.32,0.576 -0.32,1.28 0,0.256 -0.192,0.432 -0.176,0.176 -0.432,0.176 -0.256,0 -0.448,-0.176 -0.176,-0.176 -0.176,-0.432 0,-1.056 0.48,-1.92 0.48,-0.864 1.312,-1.344 0.832,-0.496 1.856,-0.496 1.04,0 1.84,0.48 0.816,0.48 1.264,1.344 0.464,0.848 0.464,1.936 0,1.296 -1.248,2.752 l -4.096,4.752 h 5.008 q 0.256,0 0.432,0.192 0.192,0.176 0.192,0.432 0,0.256 -0.176,0.448 Q 34.41075,0 34.13875,0 Z"/>
  </g>
  <g class="brand" style="font-weight:bold;font-size:10.6667px;font-family:Audiowide, sans-serif;letter-spacing:2px;text-anchor:middle;fill:#333333" id="text65259" aria-label="BOGAUDIO">
    <path id="path65843" style="font-weight:bold;font-size:10.6667px;font-family:Audiowide, sans-serif;letter-spacing:2px;text-anchor:middle;fill:#333333" d="m 73.57284,372.35937 q 0,0.25 -0.08854,0.53646 -0.08333,0.28646 -0.281251,0.53125 -0.192709,0.24479 -0.50521,0.41146 Q 72.385336,374 71.932209,374 h -5.140641 q -0.145834,0 -0.270834,-0.0521 -0.125001,-0.0521 -0.218751,-0.14063 -0.08854,-0.0937 -0.140625,-0.21875 -0.05208,-0.125 -0.05208,-0.27083 v -6.10419 q 0,-0.14063 0.05208,-0.26563 0.05208,-0.125 0.140625,-0.21875 0.09375,-0.0937 0.218751,-0.14583 0.125,-0.0521 0.270834,-0.0521 h 4.531264 q 0.250001,0 0.53646,0.0885 0.28646,0.0885 0.531252,0.28646 0.250001,0.19271 0.41146,0.50521 0.166667,0.3125 0.166667,0.76562 v 0.25521 q 0,0.35938 -0.119792,0.77605 -0.119792,0.41146 -0.385418,0.78125 0.229167,0.14063 0.427085,0.33854 0.203125,0.19792 0.354167,0.45834 0.151043,0.26042 0.239585,0.58854 0.08854,0.32813 0.08854,0.72396 z m -1.354171,-0.26042 q 0,-0.26562 -0.08333,-0.47396 -0.08333,-0.21354 -0.234376,-0.36458 -0.151042,-0.15104 -0.364584,-0.22917 -0.213543,-0.0833 -0.479168,-0.0833 h -3.052093 v -1.36459 h 2.442716 q 0.265625,0 0.479168,-0.0781 0.213542,-0.0833 0.364584,-0.23437 0.151042,-0.15104 0.229168,-0.35938 0.08333,-0.21354 0.08333,-0.47917 v -0.25521 q 0,-0.29166 -0.281251,-0.29166 h -3.859387 v 4.76043 h 4.468764 q 0.03646,0 0.08854,-0.005 0.05208,-0.005 0.09375,-0.0312 0.04167,-0.026 0.07292,-0.0885 0.03125,-0.0625 0.03125,-0.17188 z"/>
    <path id="path65845" style="font-weight:bold;font-size:10.6667px;font-family:Audiowide, sans-serif;letter-spacing:2px;text-anchor:middle;fill:#333333" d="m 84.583285,370.97916 q 0,0.68229 -0.234376,1.25521 -0.234375,0.57292 -0.651043,0.98959 -0.416668,0.41666 -0.989587,0.65104 -0.56771,0.22917 -1.239587,0.22917 h -1.833339 q -0.671877,0 -1.244796,-0.22917 -0.572918,-0.23438 -0.989586,-0.65104 -0.416668,-0.41667 -0.656252,-0.98959 -0.234376,-0.57292 -0.234376,-1.25521 v -1.42709 q 0,-0.67709 0.234376,-1.25 0.239584,-0.57813 0.656252,-0.98959 0.416668,-0.41667 0.989586,-0.65104 0.572919,-0.23438 1.244796,-0.23438 h 1.833339 q 0.671877,0 1.239587,0.23438 0.572919,0.23437 0.989587,0.65104 0.416668,0.41146 0.651043,0.98959 0.234376,0.57291 0.234376,1.25 z m -1.354171,-1.42709 q 0,-0.40104 -0.130209,-0.72396 -0.125,-0.32813 -0.359376,-0.55729 -0.229167,-0.23438 -0.557293,-0.35938 -0.322918,-0.13021 -0.713544,-0.13021 h -1.833339 q -0.395835,0 -0.723961,0.13021 -0.322918,0.125 -0.557293,0.35938 -0.234376,0.22916 -0.364585,0.55729 -0.125,0.32292 -0.125,0.72396 v 1.42709 q 0,0.40104 0.125,0.72917 0.130209,0.32291 0.364585,0.55729 0.234375,0.22917 0.557293,0.35938 0.328126,0.125 0.723961,0.125 h 1.822922 q 0.395835,0 0.718752,-0.125 0.328126,-0.13021 0.562502,-0.35938 0.234376,-0.23438 0.359376,-0.55729 0.130209,-0.32813 0.130209,-0.72917 z"/>
    <path id="path65847" style="font-weight:bold;font-size:10.6667px;font-family:Audiowide, sans-serif;letter-spacing:2px;text-anchor:middle;fill:#333333" d="m 95.302063,373.31771 q 0,0.14583 -0.05208,0.27083 -0.05208,0.125 -0.145834,0.21875 -0.08854,0.0885 -0.213543,0.14063 Q 94.765603,374 94.619769,374 h -4.885432 q -0.1875,0 -0.406251,-0.0417 -0.213542,-0.0469 -0.427085,-0.14062 -0.208334,-0.0937 -0.401043,-0.23959 -0.192709,-0.15104 -0.343751,-0.35937 -0.145834,-0.21354 -0.234376,-0.48959 -0.08854,-0.28125 -0.08854,-0.63021 v -3.66668 q 0,-0.1875 0.04167,-0.40104 0.04687,-0.21875 0.140626,-0.42708 0.09375,-0.21355 0.244792,-0.40625 0.151042,-0.19271 0.359376,-0.33855 0.213543,-0.15104 0.489585,-0.23958 0.276043,-0.0885 0.625002,-0.0885 h 5.505226 v 1.35417 h -5.505226 q -0.265626,0 -0.406251,0.14062 -0.140626,0.14063 -0.140626,0.41667 v 3.65626 q 0,0.26042 0.140626,0.40625 0.145834,0.14063 0.406251,0.14063 h 4.213555 v -1.69792 h -3.604178 v -1.36459 h 4.276055 q 0.145834,0 0.270834,0.0573 0.125001,0.0521 0.213543,0.14584 0.09375,0.0937 0.145834,0.21875 0.05208,0.11979 0.05208,0.26041 z"/>
    <path id="path65849" style="font-weight:bold;font-size:10.6667px;font-family:Audiowide, sans-serif;letter-spacing:2px;text-anchor:middle;fill:#333333" d="m 106.05209,374 h -1.35417 v -1.83334 H 99.937488 V 374 h -1.354171 v -3.73439 q 0,-0.81771 0.281251,-1.50521 0.281251,-0.6875 0.781253,-1.1823 0.499999,-0.49479 1.182299,-0.77083 0.68229,-0.27604 1.48958,-0.27604 h 3.0521 q 0.14062,0 0.26562,0.0521 0.125,0.0521 0.21875,0.14583 0.0937,0.0937 0.14584,0.21875 0.0521,0.125 0.0521,0.26563 z m -6.114602,-3.18751 h 4.760432 v -2.92709 h -2.38022 q -0.0625,0 -0.26562,0.0208 -0.19792,0.0156 -0.46354,0.0885 -0.26042,0.0729 -0.55209,0.22396 -0.29167,0.15104 -0.53646,0.41667 -0.24479,0.26563 -0.40625,0.66667 -0.156252,0.39583 -0.156252,0.96354 z"/>
    <path id="path65851" style="font-weight:bold;font-size:10.6667px;font-family:Audiowide, sans-serif;letter-spacing:2px;text-anchor:middle;fill:#333333" d="m 116.93754,373.31771 q 0,0.14583 -0.0521,0.27083 -0.0521,0.125 -0.14583,0.21875 -0.0937,0.0885 -0.21875,0.14063 -0.125,0.0521 -0.26563,0.0521 h -3.05209 q -0.43229,0 -0.875,-0.0937 -0.44271,-0.0937 -0.85938,-0.28646 -0.41146,-0.19792 -0.77604,-0.5 -0.36459,-0.30209 -0.64063,-0.71355 -0.27084,-0.41666 -0.42709,-0.94791 -0.15625,-0.53646 -0.15625,-1.19272 v -3.73438 h 1.35417 v 3.73438 q 0,0.57292 0.15625,0.96876 0.16146,0.39583 0.40626,0.66146 0.24479,0.26562 0.53646,0.41666 0.29166,0.15105 0.55208,0.22396 0.26563,0.0729 0.46354,0.0937 0.20313,0.0156 0.26563,0.0156 h 2.38022 v -6.1146 h 1.35417 z"/>
    <path id="path65853" style="font-weight:bold;font-size:10.6667px;font-family:Audiowide, sans-serif;letter-spacing:2px;text-anchor:middle;fill:#333333" d="m 127.96881,370.87499 q 0,0.68229 -0.23958,1.25521 -0.23438,0.57292 -0.65105,0.98959 -0.41666,0.41146 -0.98958,0.64583 Q 125.51568,374 124.8438,374 h -3.65626 q -0.14583,0 -0.27083,-0.0521 -0.125,-0.0521 -0.21875,-0.14063 -0.0885,-0.0937 -0.14063,-0.21875 -0.0521,-0.125 -0.0521,-0.27083 v -6.10419 q 0,-0.14063 0.0521,-0.26563 0.0521,-0.125 0.14063,-0.21875 0.0937,-0.0937 0.21875,-0.14583 0.125,-0.0521 0.27083,-0.0521 h 3.65626 q 0.67188,0 1.2448,0.23437 0.57292,0.23438 0.98958,0.65105 0.41667,0.41146 0.65105,0.98958 0.23958,0.57292 0.23958,1.25001 z m -1.35417,-1.21875 q 0,-0.39584 -0.13021,-0.72396 -0.125,-0.32813 -0.35937,-0.5573 -0.23438,-0.23437 -0.5625,-0.35937 -0.32292,-0.13021 -0.71876,-0.13021 h -2.98438 v 4.76043 h 2.98438 q 0.39584,0 0.71876,-0.125 0.32812,-0.13021 0.5625,-0.35938 0.23437,-0.23437 0.35937,-0.55729 0.13021,-0.32813 0.13021,-0.72917 z"/>
    <path id="path65855" style="font-weight:bold;font-size:10.6667px;font-family:Audiowide, sans-serif;letter-spacing:2px;text-anchor:middle;fill:#333333" d="m 132.67195,374 h -1.35417 v -7.46877 h 1.35417 z"/>
    <path id="path65857" style="font-weight:bold;font-size:10.6667px;font-family:Audiowide, sans-serif;letter-spacing:2px;text-anchor:middle;fill:#333333" d="m 144.10427,370.97916 q 0,0.68229 -0.23438,1.25521 -0.23437,0.57292 -0.65104,0.98959 -0.41667,0.41666 -0.98959,0.65104 -0.56771,0.22917 -1.23958,0.22917 h -1.83334 q -0.67188,0 -1.2448,-0.22917 -0.57292,-0.23438 -0.98959,-0.65104 -0.41666,-0.41667 -0.65625,-0.98959 -0.23437,-0.57292 -0.23437,-1.25521 v -1.42709 q 0,-0.67709 0.23437,-1.25 0.23959,-0.57813 0.65625,-0.98959 0.41667,-0.41667 0.98959,-0.65104 0.57292,-0.23438 1.2448,-0.23438 h 1.83334 q 0.67187,0 1.23958,0.23438 0.57292,0.23437 0.98959,0.65104 0.41667,0.41146 0.65104,0.98959 0.23438,0.57291 0.23438,1.25 z m -1.35417,-1.42709 q 0,-0.40104 -0.13021,-0.72396 -0.125,-0.32813 -0.35938,-0.55729 -0.22916,-0.23438 -0.55729,-0.35938 -0.32292,-0.13021 -0.71354,-0.13021 h -1.83334 q -0.39584,0 -0.72396,0.13021 -0.32292,0.125 -0.5573,0.35938 -0.23437,0.22916 -0.36458,0.55729 -0.125,0.32292 -0.125,0.72396 v 1.42709 q 0,0.40104 0.125,0.72917 0.13021,0.32291 0.36458,0.55729 0.23438,0.22917 0.5573,0.35938 0.32812,0.125 0.72396,0.125 h 1.82292 q 0.39583,0 0.71875,-0.125 0.32813,-0.13021 0.5625,-0.35938 0.23438,-0.23438 0.35938,-0.55729 0.13021,-0.32813 0.13021,-0.72917 z"/>
  </g>
  <path class="background-fill" d="m 89.5,369 h 3 v 3 h -3 z" style="fill:#dddddd" id="rect65261"/>
  <g transform="translate(6,227)" id="g65273">
    <g style="font-weight:bold;font-size:10.6667px;font-family:Roboto, sans-serif;fill:#333333" id="text65267" transform="translate(45)" aria-label="X">
      <path id="path65837" style="font-weight:bold;font-size:10.6667px;font-family:Roboto, sans-serif;fill:#333333" d="M 3.3906357,-4.9687657 4.8125152,-7.5833573 H 6.6093959 L 4.4010556,-3.8229287 6.6666877,0 H 4.8489737 L 3.3906357,-2.6562584 1.9322978,0 H 0.1145837 L 2.3802159,-3.8229287 0.17187554,-7.5833573 H 1.9687562 Z"/>
    </g>
    <path d="M 0,0 H 30" style="fill:none;stroke:#333333;stroke-width:1" transform="translate(13,-4)" id="polyline65269"/>
    <path d="M 0,0 H 30" style="fill:none;stroke:#333333;stroke-width:1" transform="translate(53,-4)" id="polyline65271"/>
  </g>
  <g transform="translate(111,227)" id="g65281">
    <g style="font-weight:bold;font-size:10.6667px;font-family:Roboto, sans-serif;fill:#333333" id="text65275" transform="translate(40)" aria-label="Y">
      <path id="path65832" style="font-weight:bold;font-size:10.6667px;font-family:Roboto, sans-serif;fill:#333333" d="m 3.2916771,-4.1666798 1.57813,-3.4166775 H 6.5781458 L 4.0885546,-2.7500087 V 0 H 2.5000079 V -2.7500087 L 0.0104167,-7.5833573 h 1.7135471 z"/>
    </g>
    <path d="M 0,0 H 30" style="fill:none;stroke:#333333;stroke-width:1" transform="translate(8,-4)" id="polyline65277"/>
    <path d="M 0,0 H 30" style="fill:none;stroke:#333333;stroke-width:1" transform="translate(48,-4)" id="polyline65279"/>
  </g>
  <g transform="translate(10,235)" id="g65289">
    <g style="font-weight:bold;font-size:9.33333px;font-family:Roboto, sans-serif;letter-spacing:1.5px;fill:#333333" id="text65285" transform="rotate(-90,21.25,12.25)" aria-label="RATE">
      <path id="path65823" style="font-weight:bold;font-size:9.33333px;font-family:Roboto, sans-serif;letter-spacing:1.5px;fill:#333333" d="M 3.0488271,-2.4290356 H 1.9596347 V 0 H 0.59244771 V -6.6354144 H 3.0579417 q 1.1757808,0 1.8138014,0.5240884 0.6380206,0.5240883 0.6380206,1.4811192 0,0.6790363 -0.2962238,1.1347653 -0.2916666,0.4511717 -0.8886716,0.7200518 l 1.4355464,2.71158764 V 0 H 4.2929673 Z M 1.9596347,-3.5364571 H 3.062499 q 0.5149737,0 0.7975257,-0.2597656 0.282552,-0.2643228 0.282552,-0.7246091 0,-0.4694009 -0.2688801,-0.738281 -0.2643228,-0.2688801 -0.8157549,-0.2688801 h -1.098307 z"/>
      <path id="path65825" style="font-weight:bold;font-size:9.33333px;font-family:Roboto, sans-serif;letter-spacing:1.5px;fill:#333333" d="M 11.799476,-1.367187 H 9.4023412 L 8.9466122,0 H 7.4928366 L 9.9628879,-6.6354144 H 11.229815 L 13.713538,0 H 12.259762 Z M 9.7714817,-2.4746085 h 1.6588533 l -0.833984,-2.4837231 z"/>
      <path id="path65827" style="font-weight:bold;font-size:9.33333px;font-family:Roboto, sans-serif;letter-spacing:1.5px;fill:#333333" d="M 20.290359,-5.5279929 H 18.257807 V 0 H 16.89062 v -5.5279929 h -2.005207 v -1.1074215 h 5.404946 z"/>
      <path id="path65829" style="font-weight:bold;font-size:9.33333px;font-family:Roboto, sans-serif;letter-spacing:1.5px;fill:#333333" d="m 26.5664,-2.8756501 h -2.625 v 1.7773432 h 3.080729 V 0 h -4.447916 v -6.6354144 h 4.438801 v 1.1074215 H 23.9414 v 1.5813797 h 2.625 z"/>
    </g>
    <g transform="translate(10,-3)" id="g65287"/>
  </g>
  <g transform="translate(20,232)" id="g65315">
    <g transform="translate(22.5,22.5)" id="g65313">
      <path d="M 0,0 H 4" style="stroke:#333333;stroke-width:1" transform="rotate(120,-8.5,4.9074773)" id="polyline65291"/>
      <path d="M 0,0 H 2.5" style="stroke:#333333;stroke-width:0.3" transform="rotate(150,-8.5,2.2775681)" id="polyline65293"/>
      <path d="M 0,0 H 2.5" style="stroke:#333333;stroke-width:0.3" transform="rotate(180,-8.5,0)" id="polyline65295"/>
      <path d="M 0,0 H 2.5" style="stroke:#333333;stroke-width:0.3" transform="rotate(-150,-8.5,-2.2775681)" id="polyline65297"/>
      <path d="M 0,0 H 2.5" style="stroke:#333333;stroke-width:0.3" transform="rotate(-120,-8.5,-4.9074773)" id="polyline65299"/>
      <path d="M 0,0 H 2.5" style="stroke:#333333;stroke-width:0.3" transform="rotate(-90,-8.5,-8.5)" id="polyline65301"/>
      <path d="M 0,0 H 2.5" style="stroke:#333333;stroke-width:0.3" transform="rotate(-60,-8.5,-14.722432)" id="polyline65303"/>
      <path d="M 0,0 H 2.5" style="stroke:#333333;stroke-width:0.3" transform="rotate(-30,-8.5,-31.722432)" id="polyline65305"/>
      <path d="M 0,0 H 2.5" style="stroke:#333333;stroke-width:0.3" transform="translate(17)" id="polyline65307"/>
      <path d="M 0,0 H 2.5" style="stroke:#333333;stroke-width:0.3" transform="rotate(30,-8.5,31.722432)" id="polyline65309"/>
      <path d="M 0,0 H 2.5" style="stroke:#333333;stroke-width:0.3" transform="rotate(60,-8.5,14.722432)" id="polyline65311"/>
    </g>
  </g>
  <g transform="translate(143.5,235)" id="g65323">
    <g style="font-weight:bold;font-size:9.33333px;font-family:Roboto, sans-serif;letter-spacing:1.5px;fill:#333333" id="text65319" transform="rotate(90,21,26)" aria-label="RATE">
      <path id="path65803" style="font-weight:bold;font-size:9.33333px;font-family:Roboto, sans-serif;letter-spacing:1.5px;fill:#333333" d="M 3.0488271,-2.4290356 H 1.9596347 V 0 H 0.59244771 V -6.6354144 H 3.0579417 q 1.1757808,0 1.8138014,0.5240884 0.6380206,0.5240883 0.6380206,1.4811192 0,0.6790363 -0.2962238,1.1347653 -0.2916666,0.4511717 -0.8886716,0.7200518 l 1.4355464,2.71158764 V 0 H 4.2929673 Z M 1.9596347,-3.5364571 H 3.062499 q 0.5149737,0 0.7975257,-0.2597656 0.282552,-0.2643228 0.282552,-0.7246091 0,-0.4694009 -0.2688801,-0.738281 -0.2643228,-0.2688801 -0.8157549,-0.2688801 h -1.098307 z"/>
      <path id="path65805" style="font-weight:bold;font-size:9.33333px;font-family:Roboto, sans-serif;letter-spacing:1.5px;fill:#333333" d="M 11.799476,-1.367187 H 9.4023412 L 8.9466122,0 H 7.4928366 L 9.9628879,-6.6354144 H 11.229815 L 13.713538,0 H 12.259762 Z M 9.7714817,-2.4746085 h 1.6588533 l -0.833984,-2.4837231 z"/>
      <path id="path65807" style="font-weight:bold;font-size:9.33333px;font-family:Roboto, sans-serif;letter-spacing:1.5px;fill:#333333" d="M 20.290359,-5.5279929 H 18.257807 V 0 H 16.89062 v -5.5279929 h -2.005207 v -1.1074215 h 5.404946 z"/>
      <path id="path65809" style="font-weight:bold;font-size:9.33333px;font-family:Roboto, sans-serif;letter-spacing:1.5px;fill:#333333" d="m 26.5664,-2.8756501 h -2.625 v 1.7773432 h 3.080729 V 0 h -4.447916 v -6.6354144 h 4.438801 v 1.1074215 H 23.9414 v 1.5813797 h 2.625 z"/>
    </g>
    <g transform="translate(0,-3)" id="g65321"/>
  </g>
  <g transform="translate(143.5,232)" id="g65349">
    <g transform="translate(22.5,22.5)" id="g65347">
      <path d="M 0,0 H 4" style="stroke:#333333;stroke-width:1" transform="rotate(120,-8.5,4.9074773)" id="polyline65325"/>
      <path d="M 0,0 H 2.5" style="stroke:#333333;stroke-width:0.3" transform="rotate(150,-8.5,2.2775681)" id="polyline65327"/>
      <path d="M 0,0 H 2.5" style="stroke:#333333;stroke-width:0.3" transform="rotate(180,-8.5,0)" id="polyline65329"/>
      <path d="M 0,0 H 2.5" style="stroke:#333333;stroke-width:0.3" transform="rotate(-150,-8.5,-2.2775681)" id="polyline65331"/>
      <path d="M 0,0 H 2.5" style="stroke:#333333;stroke-width:0.3" transform="rotate(-120,-8.5,-4.9074773)" id="polyline65333"/>
      <path d="M 0,0 H 2.5" style="stroke:#333333;stroke-width:0.3" transform="rotate(-90,-8.5,-8.5)" id="polyline65335"/>
      <path d="M 0,0 H 2.5" style="stroke:#333333;stroke-width:0.3" transform="rotate(-60,-8.5,-14.722432)" id="polyline65337"/>
      <path d="M 0,0 H 2.5" style="stroke:#333333;stroke-width:0.3" transform="rotate(-30,-8.5,-31.722432)" id="polyline65339"/>
      <path d="M 0,0 H 2.5" style="stroke:#333333;stroke-width:0.3" transform="translate(17)" id="polyline65341"/>
      <path d="M 0,0 H 2.5" style="stroke:#333333;stroke-width:0.3" transform="rotate(30,-8.5,31.722432)" id="polyline65343"/>
      <path d="M 0,0 H 2.5" style="stroke:#333333;stroke-width:0.3" transform="rotate(60,-8.5,14.722432)" id="polyline65345"/>
    </g>
  </g>
  <g style="font-weight:bold;font-size:9.33333px;font-family:Roboto, sans-serif;letter-spacing:2px;fill:#333333" id="text65353" transform="rotate(-90)" aria-label="OFF">
    <path id="path65785" style="font-weight:bold;font-size:9.33333px;font-family:Roboto, sans-serif;letter-spacing:2px;fill:#333333" d="m -244.95703,105.13269 q 0,0.97981 -0.34636,1.71809 -0.34635,0.73829 -0.99349,1.13933 -0.64257,0.40104 -1.47656,0.40104 -0.82487,0 -1.472,-0.39649 -0.64714,-0.39648 -1.00261,-1.1302 -0.35547,-0.73828 -0.36002,-1.69532 v -0.32812 q 0,-0.97982 0.35091,-1.72266 0.35547,-0.74739 0.99804,-1.14388 0.64714,-0.40104 1.47657,-0.40104 0.82942,0 1.472,0.40104 0.64714,0.39649 0.99805,1.14388 0.35547,0.74284 0.35547,1.7181 z m -1.38542,-0.30078 q 0,-1.04362 -0.3737,-1.58594 -0.3737,-0.54232 -1.0664,-0.54232 -0.68815,0 -1.06185,0.53776 -0.3737,0.5332 -0.37826,1.56771 v 0.32357 q 0,1.01627 0.3737,1.57682 0.3737,0.56055 1.07552,0.56055 0.68815,0 1.05729,-0.53776 0.36914,-0.54232 0.3737,-1.57683 z"/>
    <path id="path65787" style="font-weight:bold;font-size:9.33333px;font-family:Roboto, sans-serif;letter-spacing:2px;fill:#333333" d="m -237.96224,105.58842 h -2.625 V 108.3 h -1.36719 v -6.63541 h 4.32031 v 1.10742 h -2.95312 v 1.71354 h 2.625 z"/>
    <path id="path65789" style="font-weight:bold;font-size:9.33333px;font-family:Roboto, sans-serif;letter-spacing:2px;fill:#333333" d="m -230.83985,105.58842 h -2.625 V 108.3 h -1.36719 v -6.63541 h 4.32032 v 1.10742 h -2.95313 v 1.71354 h 2.625 z"/>
  </g>
  <g transform="translate(75,234)" id="g65355"/>
  <g transform="translate(63,222)" id="g65371">
    <g transform="translate(20,20)" id="g65369">
      <g transform="rotate(-90,-5,-5)" id="g65359">
        <path d="M 0,0 H 4" style="stroke:#333333;stroke-width:1" id="polyline65357"/>
      </g>
      <path d="M 0,-12.5 A 12.5,12.5 0 0 1 12.5,0" stroke-width="0.5" stroke-linecap="round" fill="none" transform="rotate(20)" id="path65361"/>
      <path d="M 0,-12.5 A 12.5,12.5 0 0 1 12.5,0" stroke-width="0.5" stroke-linecap="round" fill="none" transform="rotate(43)" id="path65363"/>
      <path d="M 0,-12.5 A 12.5,12.5 0 0 0 -12.5,0" stroke-width="0.5" stroke-linecap="round" fill="none" transform="rotate(-20)" id="path65365"/>
      <path d="M 0,-12.5 A 12.5,12.5 0 0 0 -12.5,0" stroke-width="0.5" stroke-linecap="round" fill="none" transform="rotate(-43)" id="path65367"/>
    </g>
  </g>
  <g transform="translate(119,234)" id="g65373"/>
  <g transform="translate(107,222)" id="g65389">
    <g transform="translate(20,20)" id="g65387">
      <g transform="rotate(-90,-5,-5)" id="g65377">
        <path d="M 0,0 H 4" style="stroke:#333333;stroke-width:1" id="polyline65375"/>
      </g>
      <path d="M 0,-12.5 A 12.5,12.5 0 0 1 12.5,0" stroke-width="0.5" stroke-linecap="round" fill="none" transform="rotate(20)" id="path65379"/>
      <path d="M 0,-12.5 A 12.5,12.5 0 0 1 12.5,0" stroke-width="0.5" stroke-linecap="round" fill="none" transform="rotate(43)" id="path65381"/>
      <path d="M 0,-12.5 A 12.5,12.5 0 0 0 -12.5,0" stroke-width="0.5" stroke-linecap="round" fill="none" transform="rotate(-20)" id="path65383"/>
      <path d="M 0,-12.5 A 12.5,12.5 0 0 0 -12.5,0" stroke-width="0.5" stroke-linecap="round" fill="none" transform="rotate(-43)" id="path65385"/>
    </g>
  </g>
  <g style="font-weight:bold;font-size:9.33333px;font-family:Roboto, sans-serif;letter-spacing:2px;fill:#333333" id="text65393" transform="rotate(-90)" aria-label="SCL">
    <path id="path65776" style="font-weight:bold;font-size:9.33333px;font-family:Roboto, sans-serif;letter-spacing:2px;fill:#333333" d="m -275.4668,106.55912 q 0,-0.38737 -0.27344,-0.59245 -0.27343,-0.20963 -0.98437,-0.4375 -0.71094,-0.23242 -1.12565,-0.45573 -1.13021,-0.61068 -1.13021,-1.64518 0,-0.53776 0.30078,-0.95703 0.30534,-0.42383 0.87044,-0.66081 0.56967,-0.23698 1.27605,-0.23698 0.71093,0 1.26692,0.25977 0.55599,0.25521 0.86133,0.72461 0.3099,0.4694 0.3099,1.0664 h -1.36719 q 0,-0.45573 -0.28711,-0.70638 -0.28711,-0.2552 -0.80664,-0.2552 -0.5013,0 -0.7793,0.21419 -0.27799,0.20963 -0.27799,0.55599 0,0.32356 0.32357,0.54231 0.32812,0.21875 0.96158,0.41016 1.16667,0.35091 1.69987,0.87044 0.53321,0.51953 0.53321,1.29427 0,0.86133 -0.6517,1.35352 -0.65169,0.48763 -1.75455,0.48763 -0.76563,0 -1.39453,-0.278 -0.62891,-0.28255 -0.96159,-0.77018 -0.32813,-0.48763 -0.32813,-1.13021 h 1.37175 q 0,1.09831 1.3125,1.09831 0.48763,0 0.76106,-0.19596 0.27344,-0.20052 0.27344,-0.55599 z"/>
    <path id="path65778" style="font-weight:bold;font-size:9.33333px;font-family:Roboto, sans-serif;letter-spacing:2px;fill:#333333" d="m -265.95638,106.08972 q -0.0775,1.07096 -0.79297,1.68619 -0.71094,0.61524 -1.87761,0.61524 -1.27604,0 -2.00976,-0.85677 -0.72917,-0.86133 -0.72917,-2.36068 v -0.4056 q 0,-0.95703 0.33724,-1.68619 0.33724,-0.72917 0.96159,-1.11654 0.62891,-0.39193 1.45833,-0.39193 1.14844,0 1.85026,0.61524 0.70183,0.61523 0.8112,1.72721 h -1.36719 q -0.0501,-0.64258 -0.36002,-0.92969 -0.30534,-0.29166 -0.93425,-0.29166 -0.68359,0 -1.02539,0.49218 -0.33724,0.48763 -0.34635,1.51758 v 0.5013 q 0,1.07552 0.32357,1.57227 0.32812,0.49674 1.02994,0.49674 0.63347,0 0.94336,-0.28711 0.31446,-0.29166 0.36003,-0.89778 z"/>
    <path id="path65780" style="font-weight:bold;font-size:9.33333px;font-family:Roboto, sans-serif;letter-spacing:2px;fill:#333333" d="m -261.69141,107.2017 h 2.90299 V 108.3 h -4.27018 v -6.63541 h 1.36719 z"/>
  </g>
  <g transform="translate(75,262.5)" id="g65395"/>
  <g transform="translate(63,250.5)" id="g65411">
    <g transform="translate(20,20)" id="g65409">
      <g transform="rotate(120,-5,2.8867513)" id="g65399">
        <path d="M 0,0 H 4" style="stroke:#333333;stroke-width:1" id="polyline65397"/>
      </g>
      <path d="M 0,-12.5 A 12.5,12.5 0 0 1 12.5,0" stroke-width="0.5" stroke-linecap="round" fill="none" id="path65401"/>
      <path d="M 0,-12.5 A 12.5,12.5 0 0 1 12.5,0" stroke-width="0.5" stroke-linecap="round" fill="none" transform="rotate(43)" id="path65403"/>
      <path d="M 0,-12.5 A 12.5,12.5 0 0 0 -12.5,0" stroke-width="0.5" stroke-linecap="round" fill="none" id="path65405"/>
      <path d="M 0,-12.5 A 12.5,12.5 0 0 0 -12.5,0" stroke-width="0.5" stroke-linecap="round" fill="none" transform="rotate(-43)" id="path65407"/>
    </g>
  </g>
  <g transform="translate(119,262.5)" id="g65413"/>
  <g transform="translate(107,250.5)" id="g65429">
    <g transform="translate(20,20)" id="g65427">
      <g transform="rotate(120,-5,2.8867513)" id="g65417">
        <path d="M 0,0 H 4" style="stroke:#333333;stroke-width:1" id="polyline65415"/>
      </g>
      <path d="M 0,-12.5 A 12.5,12.5 0 0 1 12.5,0" stroke-width="0.5" stroke-linecap="round" fill="none" id="path65419"/>
      <path d="M 0,-12.5 A 12.5,12.5 0 0 1 12.5,0" stroke-width="0.5" stroke-linecap="round" fill="none" transform="rotate(43)" id="path65421"/>
      <path d="M 0,-12.5 A 12.5,12.5 0 0 0 -12.5,0" stroke-width="0.5" stroke-linecap="round" fill="none" id="path65423"/>
      <path d="M 0,-12.5 A 12.5,12.5 0 0 0 -12.5,0" stroke-width="0.5" stroke-linecap="round" fill="none" transform="rotate(-43)" id="path65425"/>
    </g>
  </g>
  <path class="input-background" d="m 12,281 h 52 c 2.77,0 5,2.23 5,5 v 69 c 0,2.77 -2.23,5 -5,5 H 12 c -2.77,0 -5,-2.23 -5,-5 v -69 c 0,-2.77 2.23,-5 5,-5 z" style="fill:#fafafa" id="rect65433"/>
  <path class="output-background" d="m 52,320 h 12 c 2.77,0 5,2.23 5,5 v 30 c 0,2.77 -2.23,5 -5,5 H 52 c -2.77,0 -5,-2.23 -5,-5 v -30 c 0,-2.77 2.23,-5 5,-5 z" style="fill:#bbbbbb" id="rect65435"/>
  <path class="output-background-filler" d="m 38,320 h 20 v 40 H 38 Z" style="fill:#bbbbbb" id="rect65437"/>
  <path class="output-background-filler" d="m 38,320 h 31 v 20 H 38 Z" style="fill:#bbbbbb" id="rect65439"/>
  <g transform="translate(10.5,284)" id="g65441"/>
  <g transform="translate(41.5,284)" id="g65443"/>
  <g class="input-label" style="font-weight:bold;font-size:8px;font-family:Roboto, sans-serif;letter-spacing:1.5px;fill:#333333" id="text65445" aria-label="OFF">
    <path id="path65763" style="font-weight:bold;font-size:8px;font-family:Roboto, sans-serif;letter-spacing:1.5px;fill:#333333" d="m 18.179687,314.28516 q 0,0.83984 -0.296875,1.47265 -0.296875,0.63281 -0.851562,0.97656 -0.550781,0.34375 -1.265625,0.34375 -0.707031,0 -1.261719,-0.33984 -0.554687,-0.33984 -0.859375,-0.96875 -0.304687,-0.63281 -0.308593,-1.45312 v -0.28125 q 0,-0.83985 0.300781,-1.47657 0.304687,-0.64062 0.855469,-0.98047 0.554687,-0.34375 1.265625,-0.34375 0.710937,0 1.261718,0.34375 0.554688,0.33985 0.855469,0.98047 0.304687,0.63672 0.304687,1.47266 z m -1.1875,-0.25782 q 0,-0.89453 -0.320312,-1.35937 -0.320313,-0.46485 -0.914062,-0.46485 -0.589844,0 -0.910157,0.46094 -0.320312,0.45703 -0.324218,1.34375 v 0.27735 q 0,0.87109 0.320312,1.35156 0.320313,0.48047 0.921875,0.48047 0.589844,0 0.90625,-0.46094 0.316406,-0.46484 0.320312,-1.35156 z"/>
    <path id="path65765" style="font-weight:bold;font-size:8px;font-family:Roboto, sans-serif;letter-spacing:1.5px;fill:#333333" d="m 23.960937,314.67578 h -2.25 V 317 h -1.171875 v -5.6875 h 3.703125 v 0.94922 h -2.53125 v 1.46875 h 2.25 z"/>
    <path id="path65767" style="font-weight:bold;font-size:8px;font-family:Roboto, sans-serif;letter-spacing:1.5px;fill:#333333" d="m 29.851562,314.67578 h -2.25 V 317 h -1.171875 v -5.6875 h 3.703125 v 0.94922 h -2.53125 v 1.46875 h 2.25 z"/>
  </g>
  <g style="font-weight:bold;font-size:8px;font-family:Roboto, sans-serif;letter-spacing:1.5px;fill:#333333" id="text65447" aria-label="SCL">
    <path id="path65756" style="font-weight:bold;font-size:8px;font-family:Roboto, sans-serif;letter-spacing:1.5px;fill:#333333" d="m 47.957031,315.50781 q 0,-0.33203 -0.234375,-0.50781 -0.234375,-0.17969 -0.84375,-0.375 -0.609375,-0.19922 -0.964844,-0.39063 -0.96875,-0.52343 -0.96875,-1.41015 0,-0.46094 0.257813,-0.82031 0.261719,-0.36329 0.746094,-0.56641 0.488281,-0.20313 1.09375,-0.20313 0.609375,0 1.085937,0.22266 0.476563,0.21875 0.738281,0.62109 0.265625,0.40235 0.265625,0.91407 h -1.171875 q 0,-0.39063 -0.246093,-0.60547 -0.246094,-0.21875 -0.691407,-0.21875 -0.429687,0 -0.667968,0.18359 -0.238282,0.17969 -0.238282,0.47656 0,0.27735 0.277344,0.46485 0.28125,0.1875 0.824219,0.35156 1,0.30078 1.457031,0.74609 0.457031,0.44532 0.457031,1.10938 0,0.73828 -0.558593,1.16016 -0.558594,0.41796 -1.503907,0.41796 -0.65625,0 -1.195312,-0.23828 -0.539063,-0.24218 -0.824219,-0.66015 -0.28125,-0.41797 -0.28125,-0.96875 h 1.175781 q 0,0.9414 1.125,0.9414 0.417969,0 0.652344,-0.16797 0.234375,-0.17187 0.234375,-0.47656 z"/>
    <path id="path65758" style="font-weight:bold;font-size:8px;font-family:Roboto, sans-serif;letter-spacing:1.5px;fill:#333333" d="m 55.894531,315.10547 q -0.06641,0.91797 -0.679687,1.44531 -0.609375,0.52734 -1.609375,0.52734 -1.09375,0 -1.722657,-0.73437 -0.625,-0.73828 -0.625,-2.02344 v -0.34765 q 0,-0.82032 0.289063,-1.44532 0.289062,-0.625 0.824219,-0.95703 0.539062,-0.33594 1.25,-0.33594 0.984375,0 1.585937,0.52735 0.601563,0.52734 0.695313,1.48047 h -1.171875 q -0.04297,-0.55078 -0.308594,-0.79688 -0.261719,-0.25 -0.800781,-0.25 -0.585938,0 -0.878907,0.42188 -0.289062,0.41797 -0.296875,1.30078 v 0.42969 q 0,0.92187 0.277344,1.34765 0.28125,0.42578 0.882813,0.42578 0.542968,0 0.808593,-0.24609 0.269532,-0.25 0.308594,-0.76953 z"/>
    <path id="path65760" style="font-weight:bold;font-size:8px;font-family:Roboto, sans-serif;letter-spacing:1.5px;fill:#333333" d="m 59.335937,316.05859 h 2.488282 V 317 h -3.660157 v -5.6875 h 1.171875 z"/>
  </g>
  <g transform="translate(10.5,323)" id="g65449"/>
  <g transform="translate(41.5,323)" id="g65451"/>
  <g class="output-label" style="font-weight:bold;font-size:8px;font-family:Roboto, sans-serif;letter-spacing:1.5px;fill:#333333" id="text65453" aria-label="RATE">
    <path id="path65747" style="font-weight:bold;font-size:8px;font-family:Roboto, sans-serif;letter-spacing:1.5px;fill:#333333" d="M 13.113281,353.91797 H 12.179688 V 356 h -1.171875 v -5.6875 h 2.113281 q 1.007812,0 1.554687,0.44922 0.546875,0.44922 0.546875,1.26953 0,0.58203 -0.253906,0.97266 -0.25,0.38671 -0.761719,0.61718 l 1.230469,2.32422 V 356 h -1.257812 z m -0.933593,-0.94922 H 13.125 q 0.441406,0 0.683594,-0.22266 0.242187,-0.22656 0.242187,-0.62109 0,-0.40234 -0.230468,-0.63281 -0.226563,-0.23047 -0.699219,-0.23047 h -0.941406 z"/>
    <path id="path65749" style="font-weight:bold;font-size:8px;font-family:Roboto, sans-serif;letter-spacing:1.5px;fill:#333333" d="M 20.828125,354.82812 H 18.773437 L 18.382812,356 h -1.246093 l 2.117187,-5.6875 h 1.085938 L 22.46875,356 h -1.246094 z m -1.738281,-0.94921 h 1.421875 L 19.796875,351.75 Z"/>
    <path id="path65751" style="font-weight:bold;font-size:8px;font-family:Roboto, sans-serif;letter-spacing:1.5px;fill:#333333" d="M 28.320312,351.26172 H 26.578125 V 356 H 25.40625 v -4.73828 H 23.6875 v -0.94922 h 4.632812 z"/>
    <path id="path65753" style="font-weight:bold;font-size:8px;font-family:Roboto, sans-serif;letter-spacing:1.5px;fill:#333333" d="m 33.914062,353.53516 h -2.25 v 1.52343 h 2.640625 V 356 h -3.8125 v -5.6875 h 3.804688 v 0.94922 h -2.632813 v 1.35547 h 2.25 z"/>
  </g>
  <g style="font-weight:bold;font-size:8px;font-family:Roboto, sans-serif;letter-spacing:1.5px;fill:#333333" id="text65455" aria-label="OUT">
    <path id="path65740" style="font-weight:bold;font-size:8px;font-family:Roboto, sans-serif;letter-spacing:1.5px;fill:#333333" d="m 49.179687,353.28516 q 0,0.83984 -0.296875,1.47265 -0.296875,0.63281 -0.851562,0.97656 -0.550781,0.34375 -1.265625,0.34375 -0.707031,0 -1.261719,-0.33984 -0.554687,-0.33984 -0.859375,-0.96875 -0.304687,-0.63281 -0.308594,-1.45312 v -0.28125 q 0,-0.83985 0.300782,-1.47657 0.304687,-0.64062 0.855468,-0.98047 0.554688,-0.34375 1.265625,-0.34375 0.710938,0 1.261719,0.34375 0.554688,0.33985 0.855469,0.98047 0.304687,0.63672 0.304687,1.47266 z m -1.1875,-0.25782 q 0,-0.89453 -0.320312,-1.35937 -0.320313,-0.46485 -0.914063,-0.46485 -0.589843,0 -0.910156,0.46094 -0.320312,0.45703 -0.324219,1.34375 v 0.27735 q 0,0.87109 0.320313,1.35156 0.320312,0.48047 0.921875,0.48047 0.589844,0 0.90625,-0.46094 0.316406,-0.46484 0.320312,-1.35156 z"/>
    <path id="path65742" style="font-weight:bold;font-size:8px;font-family:Roboto, sans-serif;letter-spacing:1.5px;fill:#333333" d="m 55.84375,350.3125 v 3.74609 q 0,0.9336 -0.585938,1.47657 -0.582031,0.54296 -1.59375,0.54296 -0.996093,0 -1.582031,-0.52734 -0.585937,-0.52734 -0.597656,-1.44922 v -3.78906 h 1.171875 v 3.75391 q 0,0.55859 0.265625,0.8164 0.269531,0.25391 0.742187,0.25391 0.988282,0 1.003907,-1.03906 v -3.78516 z"/>
    <path id="path65744" style="font-weight:bold;font-size:8px;font-family:Roboto, sans-serif;letter-spacing:1.5px;fill:#333333" d="M 62.585937,351.26172 H 60.84375 V 356 h -1.171875 v -4.73828 h -1.71875 v -0.94922 h 4.632812 z"/>
  </g>
  <path class="input-background" d="m 147,281 h 52 c 2.77,0 5,2.23 5,5 v 69 c 0,2.77 -2.23,5 -5,5 h -52 c -2.77,0 -5,-2.23 -5,-5 v -69 c 0,-2.77 2.23,-5 5,-5 z" style="fill:#fafafa" id="rect65459"/>
  <path class="output-background" d="m 187,320 h 12 c 2.77,0 5,2.23 5,5 v 30 c 0,2.77 -2.23,5 -5,5 h -12 c -2.77,0 -5,-2.23 -5,-5 v -30 c 0,-2.77 2.23,-5 5,-5 z" style="fill:#bbbbbb" id="rect65461"/>
  <path class="output-background-filler" d="m 173,320 h 20 v 40 h -20 z" style="fill:#bbbbbb" id="rect65463"/>
  <path class="output-background-filler" d="m 173,320 h 31 v 20 h -31 z" style="fill:#bbbbbb" id="rect65465"/>
  <g transform="translate(145.5,284)" id="g65467"/>
  <g transform="translate(176.5,284)" id="g65469"/>
  <g class="input-label" style="font-weight:bold;font-size:8px;font-family:Roboto, sans-serif;letter-spacing:1.5px;fill:#333333" id="text65471" aria-label="OFF">
    <path id="path65729" style="font-weight:bold;font-size:8px;font-family:Roboto, sans-serif;letter-spacing:1.5px;fill:#333333" d="m 153.17969,314.28516 q 0,0.83984 -0.29688,1.47265 -0.29687,0.63281 -0.85156,0.97656 -0.55078,0.34375 -1.26563,0.34375 -0.70703,0 -1.26171,-0.33984 -0.55469,-0.33984 -0.85938,-0.96875 -0.30469,-0.63281 -0.30859,-1.45312 v -0.28125 q 0,-0.83985 0.30078,-1.47657 0.30469,-0.64062 0.85547,-0.98047 0.55468,-0.34375 1.26562,-0.34375 0.71094,0 1.26172,0.34375 0.55469,0.33985 0.85547,0.98047 0.30469,0.63672 0.30469,1.47266 z m -1.1875,-0.25782 q 0,-0.89453 -0.32032,-1.35937 -0.32031,-0.46485 -0.91406,-0.46485 -0.58984,0 -0.91015,0.46094 -0.32032,0.45703 -0.32422,1.34375 v 0.27735 q 0,0.87109 0.32031,1.35156 0.32031,0.48047 0.92187,0.48047 0.58985,0 0.90625,-0.46094 0.31641,-0.46484 0.32032,-1.35156 z"/>
    <path id="path65731" style="font-weight:bold;font-size:8px;font-family:Roboto, sans-serif;letter-spacing:1.5px;fill:#333333" d="m 158.96094,314.67578 h -2.25 V 317 h -1.17188 v -5.6875 h 3.70313 v 0.94922 h -2.53125 v 1.46875 h 2.25 z"/>
    <path id="path65733" style="font-weight:bold;font-size:8px;font-family:Roboto, sans-serif;letter-spacing:1.5px;fill:#333333" d="m 164.85156,314.67578 h -2.25 V 317 h -1.17187 v -5.6875 h 3.70312 v 0.94922 h -2.53125 v 1.46875 h 2.25 z"/>
  </g>
  <g style="font-weight:bold;font-size:8px;font-family:Roboto, sans-serif;letter-spacing:1.5px;fill:#333333" id="text65473" aria-label="SCL">
    <path id="path65722" style="font-weight:bold;font-size:8px;font-family:Roboto, sans-serif;letter-spacing:1.5px;fill:#333333" d="m 182.95703,315.50781 q 0,-0.33203 -0.23437,-0.50781 -0.23438,-0.17969 -0.84375,-0.375 -0.60938,-0.19922 -0.96485,-0.39063 -0.96875,-0.52343 -0.96875,-1.41015 0,-0.46094 0.25781,-0.82031 0.26172,-0.36329 0.7461,-0.56641 0.48828,-0.20313 1.09375,-0.20313 0.60937,0 1.08594,0.22266 0.47656,0.21875 0.73828,0.62109 0.26562,0.40235 0.26562,0.91407 h -1.17187 q 0,-0.39063 -0.2461,-0.60547 -0.24609,-0.21875 -0.6914,-0.21875 -0.42969,0 -0.66797,0.18359 -0.23828,0.17969 -0.23828,0.47656 0,0.27735 0.27734,0.46485 0.28125,0.1875 0.82422,0.35156 1,0.30078 1.45703,0.74609 0.45703,0.44532 0.45703,1.10938 0,0.73828 -0.55859,1.16016 -0.5586,0.41796 -1.50391,0.41796 -0.65625,0 -1.19531,-0.23828 -0.53906,-0.24218 -0.82422,-0.66015 -0.28125,-0.41797 -0.28125,-0.96875 h 1.17578 q 0,0.9414 1.125,0.9414 0.41797,0 0.65235,-0.16797 0.23437,-0.17187 0.23437,-0.47656 z"/>
    <path id="path65724" style="font-weight:bold;font-size:8px;font-family:Roboto, sans-serif;letter-spacing:1.5px;fill:#333333" d="m 190.89453,315.10547 q -0.0664,0.91797 -0.67969,1.44531 -0.60937,0.52734 -1.60937,0.52734 -1.09375,0 -1.72266,-0.73437 -0.625,-0.73828 -0.625,-2.02344 v -0.34765 q 0,-0.82032 0.28906,-1.44532 0.28907,-0.625 0.82422,-0.95703 0.53907,-0.33594 1.25,-0.33594 0.98438,0 1.58594,0.52735 0.60156,0.52734 0.69531,1.48047 h -1.17187 q -0.043,-0.55078 -0.3086,-0.79688 -0.26171,-0.25 -0.80078,-0.25 -0.58593,0 -0.8789,0.42188 -0.28907,0.41797 -0.29688,1.30078 v 0.42969 q 0,0.92187 0.27735,1.34765 0.28125,0.42578 0.88281,0.42578 0.54297,0 0.80859,-0.24609 0.26953,-0.25 0.3086,-0.76953 z"/>
    <path id="path65726" style="font-weight:bold;font-size:8px;font-family:Roboto, sans-serif;letter-spacing:1.5px;fill:#333333" d="m 194.33594,316.05859 h 2.48828 V 317 h -3.66016 v -5.6875 h 1.17188 z"/>
  </g>
  <g transform="translate(145.5,323)" id="g65475"/>
  <g transform="translate(176.5,323)" id="g65477"/>
  <g class="output-label" style="font-weight:bold;font-size:8px;font-family:Roboto, sans-serif;letter-spacing:1.5px;fill:#333333" id="text65479" aria-label="RATE">
    <path id="path65713" style="font-weight:bold;font-size:8px;font-family:Roboto, sans-serif;letter-spacing:1.5px;fill:#333333" d="m 148.11328,353.91797 h -0.93359 V 356 h -1.17188 v -5.6875 h 2.11328 q 1.00782,0 1.55469,0.44922 0.54688,0.44922 0.54688,1.26953 0,0.58203 -0.25391,0.97266 -0.25,0.38671 -0.76172,0.61718 l 1.23047,2.32422 V 356 h -1.25781 z m -0.93359,-0.94922 h 0.94531 q 0.44141,0 0.68359,-0.22266 0.24219,-0.22656 0.24219,-0.62109 0,-0.40234 -0.23047,-0.63281 -0.22656,-0.23047 -0.69922,-0.23047 h -0.9414 z"/>
    <path id="path65715" style="font-weight:bold;font-size:8px;font-family:Roboto, sans-serif;letter-spacing:1.5px;fill:#333333" d="m 155.82812,354.82812 h -2.05468 L 153.38281,356 h -1.24609 l 2.11719,-5.6875 h 1.08593 L 157.46875,356 h -1.24609 z m -1.73828,-0.94921 h 1.42188 L 154.79687,351.75 Z"/>
    <path id="path65717" style="font-weight:bold;font-size:8px;font-family:Roboto, sans-serif;letter-spacing:1.5px;fill:#333333" d="m 163.32031,351.26172 h -1.74219 V 356 h -1.17187 v -4.73828 h -1.71875 v -0.94922 h 4.63281 z"/>
    <path id="path65719" style="font-weight:bold;font-size:8px;font-family:Roboto, sans-serif;letter-spacing:1.5px;fill:#333333" d="m 168.91406,353.53516 h -2.25 v 1.52343 h 2.64063 V 356 h -3.8125 v -5.6875 h 3.80468 v 0.94922 h -2.63281 v 1.35547 h 2.25 z"/>
  </g>
  <g style="font-weight:bold;font-size:8px;font-family:Roboto, sans-serif;letter-spacing:1.5px;fill:#333333" id="text65481" aria-label="OUT">
    <path id="path65706" style="font-weight:bold;font-size:8px;font-family:Roboto, sans-serif;letter-spacing:1.5px;fill:#333333" d="m 184.17969,353.28516 q 0,0.83984 -0.29688,1.47265 -0.29687,0.63281 -0.85156,0.97656 -0.55078,0.34375 -1.26563,0.34375 -0.70703,0 -1.26171,-0.33984 -0.55469,-0.33984 -0.85938,-0.96875 -0.30469,-0.63281 -0.30859,-1.45312 v -0.28125 q 0,-0.83985 0.30078,-1.47657 0.30469,-0.64062 0.85547,-0.98047 0.55468,-0.34375 1.26562,-0.34375 0.71094,0 1.26172,0.34375 0.55469,0.33985 0.85547,0.98047 0.30469,0.63672 0.30469,1.47266 z m -1.1875,-0.25782 q 0,-0.89453 -0.32032,-1.35937 -0.32031,-0.46485 -0.91406,-0.46485 -0.58984,0 -0.91015,0.46094 -0.32032,0.45703 -0.32422,1.34375 v 0.27735 q 0,0.87109 0.32031,1.35156 0.32031,0.48047 0.92187,0.48047 0.58985,0 0.90625,-0.46094 0.31641,-0.46484 0.32032,-1.35156 z"/>
    <path id="path65708" style="font-weight:bold;font-size:8px;font-family:Roboto, sans-serif;letter-spacing:1.5px;fill:#333333" d="m 190.84375,350.3125 v 3.74609 q 0,0.9336 -0.58594,1.47657 -0.58203,0.54296 -1.59375,0.54296 -0.99609,0 -1.58203,-0.52734 -0.58594,-0.52734 -0.59766,-1.44922 v -3.78906 h 1.17188 v 3.75391 q 0,0.55859 0.26562,0.8164 0.26954,0.25391 0.74219,0.25391 0.98828,0 1.00391,-1.03906 v -3.78516 z"/>
    <path id="path65710" style="font-weight:bold;font-size:8px;font-family:Roboto, sans-serif;letter-spacing:1.5px;fill:#333333" d="m 197.58594,351.26172 h -1.74219 V 356 h -1.17188 v -4.73828 h -1.71875 v -0.94922 h 4.63282 z"/>
  </g>
  <path class="input-background" d="m 79.5,288 h 51 c 2.77,0 5,2.23 5,5 v 30 c 0,2.77 -2.23,5 -5,5 h -51 c -2.77,0 -5,-2.23 -5,-5 v -30 c 0,-2.77 2.23,-5 5,-5 z" style="fill:#fafafa" id="rect65485"/>
  <path class="output-background" d="m 119.5,288 h 12 c 2.77,0 5,2.23 5,5 v 30 c 0,2.77 -2.23,5 -5,5 h -12 c -2.77,0 -5,-2.23 -5,-5 v -30 c 0,-2.77 2.23,-5 5,-5 z" style="fill:#bbbbbb" id="rect65487"/>
  <path class="output-background-filler" d="m 105.5,288 h 20 v 40 h -20 z" style="fill:#bbbbbb" id="rect65489"/>
  <g transform="translate(78,291)" id="g65491"/>
  <g transform="translate(109,291)" id="g65493"/>
  <g class="output-label" style="font-weight:bold;font-size:8px;font-family:Roboto, sans-serif;letter-spacing:1.5px;fill:#333333" id="text65495" aria-label="TRIG">
    <path id="path65694" style="font-weight:bold;font-size:8px;font-family:Roboto, sans-serif;letter-spacing:1.5px;fill:#333333" d="M 83.289062,319.26172 H 81.546875 V 324 H 80.375 v -4.73828 h -1.71875 v -0.94922 h 4.632812 z"/>
    <path id="path65696" style="font-weight:bold;font-size:8px;font-family:Roboto, sans-serif;letter-spacing:1.5px;fill:#333333" d="M 87.566406,321.91797 H 86.632812 V 324 h -1.171875 v -5.6875 h 2.113282 q 1.007812,0 1.554687,0.44922 0.546875,0.44922 0.546875,1.26953 0,0.58203 -0.253906,0.97266 -0.25,0.38671 -0.761719,0.61718 l 1.230469,2.32422 V 324 h -1.257813 z m -0.933594,-0.94922 h 0.945313 q 0.441406,0 0.683594,-0.22266 0.242187,-0.22656 0.242187,-0.62109 0,-0.40234 -0.230469,-0.63281 -0.226562,-0.23047 -0.699218,-0.23047 h -0.941407 z"/>
    <path id="path65698" style="font-weight:bold;font-size:8px;font-family:Roboto, sans-serif;letter-spacing:1.5px;fill:#333333" d="m 93.316406,324 h -1.171875 v -5.6875 h 1.171875 z"/>
    <path id="path65700" style="font-weight:bold;font-size:8px;font-family:Roboto, sans-serif;letter-spacing:1.5px;fill:#333333" d="m 100.39844,323.28125 q -0.31641,0.37891 -0.894534,0.58984 -0.578125,0.20703 -1.28125,0.20703 -0.738281,0 -1.296875,-0.32031 -0.554687,-0.32422 -0.859375,-0.9375 -0.300781,-0.61328 -0.308594,-1.4414 v -0.38672 q 0,-0.85157 0.285157,-1.47266 0.289062,-0.625 0.828125,-0.95312 0.542968,-0.33204 1.269531,-0.33204 1.011719,0 1.582031,0.48438 0.570314,0.48047 0.675784,1.40234 h -1.140628 q -0.07813,-0.48828 -0.347656,-0.71484 -0.265625,-0.22656 -0.734375,-0.22656 -0.597656,0 -0.910156,0.44922 -0.3125,0.44921 -0.316406,1.33593 v 0.36328 q 0,0.89454 0.339843,1.35157 0.339844,0.45703 0.996094,0.45703 0.660156,0 0.941406,-0.28125 V 321.875 h -1.066406 v -0.86328 h 2.238284 z"/>
  </g>
  <g style="font-weight:bold;font-size:8px;font-family:Roboto, sans-serif;letter-spacing:1.5px;fill:#333333" id="text65497" aria-label="DIST">
    <path id="path65685" style="font-weight:bold;font-size:8px;font-family:Roboto, sans-serif;letter-spacing:1.5px;fill:#333333" d="m 110.50781,324 v -5.6875 h 1.75 q 0.75,0 1.33985,0.33984 0.59375,0.33594 0.92578,0.96094 0.33203,0.62109 0.33203,1.41406 v 0.26172 q 0,0.79297 -0.32813,1.41016 -0.32421,0.61719 -0.91796,0.95703 -0.59375,0.33984 -1.33985,0.34375 z m 1.17188,-4.73828 v 3.79687 h 0.5664 q 0.6875,0 1.05079,-0.44922 0.36328,-0.44921 0.37109,-1.28515 v -0.30078 q 0,-0.86719 -0.35938,-1.3125 -0.35937,-0.44922 -1.05078,-0.44922 z"/>
    <path id="path65687" style="font-weight:bold;font-size:8px;font-family:Roboto, sans-serif;letter-spacing:1.5px;fill:#333333" d="m 118.45703,324 h -1.17187 v -5.6875 h 1.17187 z"/>
    <path id="path65689" style="font-weight:bold;font-size:8px;font-family:Roboto, sans-serif;letter-spacing:1.5px;fill:#333333" d="m 123.98828,322.50781 q 0,-0.33203 -0.23437,-0.50781 -0.23438,-0.17969 -0.84375,-0.375 -0.60938,-0.19922 -0.96485,-0.39063 -0.96875,-0.52343 -0.96875,-1.41015 0,-0.46094 0.25782,-0.82031 0.26171,-0.36329 0.74609,-0.56641 0.48828,-0.20313 1.09375,-0.20313 0.60937,0 1.08594,0.22266 0.47656,0.21875 0.73828,0.62109 0.26562,0.40235 0.26562,0.91407 h -1.17187 q 0,-0.39063 -0.2461,-0.60547 -0.24609,-0.21875 -0.6914,-0.21875 -0.42969,0 -0.66797,0.18359 -0.23828,0.17969 -0.23828,0.47656 0,0.27735 0.27734,0.46485 0.28125,0.1875 0.82422,0.35156 1,0.30078 1.45703,0.74609 0.45703,0.44532 0.45703,1.10938 0,0.73828 -0.55859,1.16016 -0.55859,0.41796 -1.50391,0.41796 -0.65625,0 -1.19531,-0.23828 -0.53906,-0.24218 -0.82422,-0.66015 -0.28125,-0.41797 -0.28125,-0.96875 h 1.17578 q 0,0.9414 1.125,0.9414 0.41797,0 0.65235,-0.16797 0.23437,-0.17187 0.23437,-0.47656 z"/>
    <path id="path65691" style="font-weight:bold;font-size:8px;font-family:Roboto, sans-serif;letter-spacing:1.5px;fill:#333333" d="M 131.74219,319.26172 H 130 V 324 h -1.17188 v -4.73828 h -1.71874 v -0.94922 h 4.63281 z"/>
  </g>
  <g style="font-weight:bold;font-size:8px;font-family:Roboto, sans-serif;letter-spacing:1px;fill:#333333" id="text65501" transform="rotate(-90)" aria-label="TRIG">
    <path id="path65676" style="font-weight:bold;font-size:8px;font-family:Roboto, sans-serif;letter-spacing:1px;fill:#333333" d="m -351.71094,81.261719 h -1.74218 V 86 h -1.17188 v -4.738281 h -1.71875 V 80.3125 h 4.63281 z"/>
    <path id="path65678" style="font-weight:bold;font-size:8px;font-family:Roboto, sans-serif;letter-spacing:1px;fill:#333333" d="m -347.93359,83.917969 h -0.9336 V 86 h -1.17187 v -5.6875 h 2.11328 q 1.00781,0 1.55469,0.449219 0.54687,0.449218 0.54687,1.269531 0,0.582031 -0.2539,0.972656 -0.25,0.386719 -0.76172,0.617188 l 1.23047,2.324218 V 86 h -1.25782 z m -0.9336,-0.949219 h 0.94532 q 0.4414,0 0.68359,-0.222656 0.24219,-0.226563 0.24219,-0.621094 0,-0.402344 -0.23047,-0.632813 -0.22656,-0.230468 -0.69922,-0.230468 h -0.94141 z"/>
    <path id="path65680" style="font-weight:bold;font-size:8px;font-family:Roboto, sans-serif;letter-spacing:1px;fill:#333333" d="m -342.68359,86 h -1.17188 v -5.6875 h 1.17188 z"/>
    <path id="path65682" style="font-weight:bold;font-size:8px;font-family:Roboto, sans-serif;letter-spacing:1px;fill:#333333" d="m -336.10156,85.28125 q -0.31641,0.378906 -0.89453,0.589844 -0.57813,0.207031 -1.28125,0.207031 -0.73828,0 -1.29688,-0.320313 -0.55469,-0.324218 -0.85937,-0.9375 -0.30078,-0.613281 -0.3086,-1.441406 v -0.386719 q 0,-0.851562 0.28516,-1.472656 0.28906,-0.625 0.82812,-0.953125 0.54297,-0.332031 1.26954,-0.332031 1.01171,0 1.58203,0.484375 0.57031,0.480469 0.67578,1.402344 h -1.14063 q -0.0781,-0.488282 -0.34765,-0.714844 -0.26563,-0.226563 -0.73438,-0.226563 -0.59765,0 -0.91015,0.449219 -0.3125,0.449219 -0.31641,1.335938 v 0.363281 q 0,0.894531 0.33984,1.351562 0.33985,0.457032 0.9961,0.457032 0.66015,0 0.9414,-0.28125 V 83.875 h -1.0664 v -0.863281 h 2.23828 z"/>
  </g>
  <g transform="translate(98,332)" id="g65507">
    <g transform="translate(-7.5,1)" id="g65503"/>
    <g style="font-weight:bold;font-size:6.66667px;font-family:Roboto, sans-serif;letter-spacing:1px;fill:#333333" id="text65505" transform="translate(1,6.7)" aria-label="JUMP">
      <path id="path65667" style="font-weight:bold;font-size:6.66667px;font-family:Roboto, sans-serif;letter-spacing:1px;fill:#333333" d="m 2.3339855,-4.7395856 h 0.976563 v 3.2812516 q 0,0.4524741 -0.2018231,0.8007816 Q 2.9101576,-0.31250015 2.5455741,-0.12369798 2.1809906,0.0651042 1.722006,0.0651042 q -0.75195345,0 -1.17187553,-0.38085956 Q 0.1302084,-0.69987013 0.1302084,-1.3997403 h 0.9830734 q 0,0.3483075 0.1464844,0.51432321 0.1464845,0.16601571 0.4622398,0.16601571 0.2799481,0 0.4459638,-0.19205739 Q 2.3339855,-1.1035162 2.3339855,-1.458334 Z"/>
      <path id="path65669" style="font-weight:bold;font-size:6.66667px;font-family:Roboto, sans-serif;letter-spacing:1px;fill:#333333" d="m 8.7343785,-4.7395856 v 3.1217463 q 0,0.77799515 -0.4882815,1.23046932 -0.4850263,0.45247418 -1.3281256,0.45247418 -0.8300785,0 -1.31836,-0.43945334 Q 5.1113299,-0.81380247 5.1015643,-1.582032 v -3.1575536 h 0.9765629 v 3.1282567 q 0,0.465495 0.2213543,0.68033887 0.2246095,0.21158865 0.6184899,0.21158865 0.8235681,0 0.8365889,-0.86588582 v -3.1542984 z"/>
      <path id="path65671" style="font-weight:bold;font-size:6.66667px;font-family:Roboto, sans-serif;letter-spacing:1px;fill:#333333" d="m 11.811203,-4.7395856 1.217448,3.4375016 1.210938,-3.4375016 h 1.282553 V 0 H 14.542324 V -1.2955735 L 14.63998,-3.5319027 13.360683,0 H 12.69011 l -1.276043,-3.5286475 0.09766,2.233074 V 0 h -0.976563 v -4.7395856 z"/>
      <path id="path65673" style="font-weight:bold;font-size:6.66667px;font-family:Roboto, sans-serif;letter-spacing:1px;fill:#333333" d="M 18.35808,-1.6699227 V 0 h -0.976563 v -4.7395856 h 1.848959 q 0.533855,0 0.937501,0.1953126 0.406901,0.1953126 0.625,0.5566409 0.218099,0.3580731 0.218099,0.8170577 0,0.6966149 -0.478516,1.1002609 -0.47526,0.4003908 -1.31836,0.4003908 z m 0,-0.791016 h 0.872396 q 0.38737,0 0.589193,-0.1822917 0.205078,-0.1822918 0.205078,-0.5208336 0,-0.3483075 -0.205078,-0.5631513 -0.205078,-0.2148439 -0.566406,-0.2213543 H 18.35808 Z"/>
    </g>
  </g>
  <g transform="translate(98,342)" id="g65513">
    <g transform="translate(-7.5,1)" id="g65509"/>
    <g style="font-weight:bold;font-size:6.66667px;font-family:Roboto, sans-serif;letter-spacing:0.5px;fill:#333333" id="text65511" transform="translate(1,6.7)" aria-label="S&amp;H">
      <path id="path65660" style="font-weight:bold;font-size:6.66667px;font-family:Roboto, sans-serif;letter-spacing:0.5px;fill:#333333" d="m 2.8808607,-1.2434902 q 0,-0.2766928 -0.1953125,-0.4231773 Q 2.4902356,-1.8164071 1.9824228,-1.9791676 1.4746101,-2.1451833 1.178386,-2.3046886 0.37109393,-2.7408867 0.37109393,-3.4798194 q 0,-0.3841147 0.21484385,-0.683594 0.21809906,-0.3027346 0.62174512,-0.4720055 0.4069012,-0.1692709 0.9114587,-0.1692709 0.5078128,0 0.9049484,0.185547 0.3971356,0.1822917 0.6152347,0.5175783 0.2213542,0.3352867 0.2213542,0.7617192 H 2.884116 q 0,-0.325521 -0.2050783,-0.5045576 -0.2050782,-0.1822917 -0.5761721,-0.1822917 -0.3580731,0 -0.5566409,0.1529948 -0.1985678,0.1497397 -0.1985678,0.3971356 0,0.2311199 0.2311199,0.38737 0.2343751,0.1562501 0.6868493,0.2929689 0.8333337,0.2506512 1.2141933,0.6217451 0.3808595,0.3710939 0.3808595,0.9244796 0,0.61523467 -0.465495,0.96679734 -0.465495,0.34830746 -1.2532558,0.34830746 -0.5468753,0 -0.9960942,-0.19856781 Q 0.69661492,-0.33528662 0.45898459,-0.68359408 0.22460948,-1.0319015 0.22460948,-1.4908861 H 1.2044277 q 0,0.78450555 0.9375004,0.78450555 0.3483075,0 0.5436201,-0.13997402 0.1953125,-0.14322924 0.1953125,-0.39713563 z"/>
      <path id="path65662" style="font-weight:bold;font-size:6.66667px;font-family:Roboto, sans-serif;letter-spacing:0.5px;fill:#333333" d="m 4.8326843,-1.2760423 q 0,-0.3287762 0.1822918,-0.6087242 Q 5.200523,-2.1647146 5.6920597,-2.5065116 5.4804711,-2.7897149 5.3600283,-3.0371108 5.2395855,-3.287762 5.2395855,-3.5579444 q 0,-0.5533857 0.3483075,-0.8984379 0.3515627,-0.3483075 0.9440109,-0.3483075 0.5305992,0 0.869141,0.3157554 0.341797,0.3157553 0.341797,0.7877608 0,0.5664065 -0.5729169,0.9993494 l -0.3645835,0.263672 0.8170577,0.9505213 q 0.1920574,-0.3776044 0.1920574,-0.8333337 h 0.8007816 q 0,0.9244796 -0.4264325,1.4973965 L 8.8984415,0 H 7.8307326 L 7.5865919,-0.27994805 Q 7.0625031,0.0651042 6.3821642,0.0651042 q -0.7031253,0 -1.1263026,-0.36783872 Q 4.8326843,-0.67382845 4.8326843,-1.2760423 Z m 1.5950529,0.5859378 q 0.3385418,0 0.6412763,-0.18880217 l -0.9342452,-1.08072973 -0.068359,0.048828 q -0.2897137,0.2473959 -0.2897137,0.5826826 0,0.2832032 0.1790365,0.46223977 0.1822918,0.17578133 0.4720055,0.17578133 z M 6.0826849,-3.5709652 q 0,0.2441407 0.2864585,0.6152346 l 0.2506511,-0.1660157 q 0.1920574,-0.123698 0.263672,-0.2408855 0.07487,-0.1171876 0.07487,-0.2799481 0,-0.1627605 -0.1204428,-0.2832032 -0.1204428,-0.1204428 -0.3092449,-0.1204428 -0.2018231,0 -0.325521,0.1302084 -0.1204428,0.1302084 -0.1204428,0.3450523 z"/>
      <path id="path65664" style="font-weight:bold;font-size:6.66667px;font-family:Roboto, sans-serif;letter-spacing:0.5px;fill:#333333" d="M 13.757167,0 H 12.780604 V -2.031251 H 10.876307 V 0 H 9.8997436 v -4.7395856 h 0.9765634 v 1.9205738 h 1.904297 v -1.9205738 h 0.976563 z"/>
    </g>
  </g>
  <g transform="translate(98,352)" id="g65519">
    <g transform="translate(-7.5,1)" id="g65515"/>
    <g style="font-weight:bold;font-size:6.66667px;font-family:Roboto, sans-serif;letter-spacing:1px;fill:#333333" id="text65517" transform="translate(1,6.7)" aria-label="T&amp;H">
      <path id="path65653" style="font-weight:bold;font-size:6.66667px;font-family:Roboto, sans-serif;letter-spacing:1px;fill:#333333" d="M 3.9908873,-3.9485696 H 2.5390637 V 0 H 1.5625007 V -3.9485696 H 0.1302084 v -0.791016 h 3.8606789 z"/>
      <path id="path65655" style="font-weight:bold;font-size:6.66667px;font-family:Roboto, sans-serif;letter-spacing:1px;fill:#333333" d="m 5.3587258,-1.2760423 q 0,-0.3287762 0.1822918,-0.6087242 Q 5.7265645,-2.1647146 6.2181012,-2.5065116 6.0065126,-2.7897149 5.8860698,-3.0371108 5.7656271,-3.287762 5.7656271,-3.5579444 q 0,-0.5533857 0.3483074,-0.8984379 0.3515627,-0.3483075 0.9440109,-0.3483075 0.5305992,0 0.869141,0.3157554 0.3417971,0.3157553 0.3417971,0.7877608 0,0.5664065 -0.572917,0.9993494 l -0.3645835,0.263672 0.8170577,0.9505213 q 0.1920574,-0.3776044 0.1920574,-0.8333337 h 0.8007816 q 0,0.9244796 -0.4264325,1.4973965 L 9.424483,0 H 8.3567741 L 8.1126334,-0.27994805 Q 7.5885446,0.0651042 6.9082057,0.0651042 q -0.7031253,0 -1.1263026,-0.36783872 Q 5.3587258,-0.67382845 5.3587258,-1.2760423 Z m 1.5950529,0.5859378 q 0.3385418,0 0.6412763,-0.18880217 l -0.9342452,-1.08072973 -0.068359,0.048828 q -0.2897137,0.2473959 -0.2897137,0.5826826 0,0.2832032 0.1790365,0.46223977 0.1822918,0.17578133 0.4720055,0.17578133 z M 6.6087264,-3.5709652 q 0,0.2441407 0.2864585,0.6152346 L 7.145836,-3.1217463 q 0.1920574,-0.123698 0.263672,-0.2408855 0.07487,-0.1171876 0.07487,-0.2799481 0,-0.1627605 -0.1204428,-0.2832032 -0.1204428,-0.1204428 -0.3092449,-0.1204428 -0.201823,0 -0.325521,0.1302084 -0.1204428,0.1302084 -0.1204428,0.3450523 z"/>
      <path id="path65657" style="font-weight:bold;font-size:6.66667px;font-family:Roboto, sans-serif;letter-spacing:1px;fill:#333333" d="M 14.783208,0 H 13.806645 V -2.031251 H 11.902348 V 0 h -0.976563 v -4.7395856 h 0.976563 v 1.9205738 h 1.904297 v -1.9205738 h 0.976563 z"/>
    </g>
  </g>
  <g transform="translate(122,341.7)" id="g65521"/>
</svg>
