<?xml version="1.0" encoding="UTF-8" standalone="no"?>
<svg xmlns:dc="http://purl.org/dc/elements/1.1/" xmlns:cc="http://creativecommons.org/ns#" xmlns:rdf="http://www.w3.org/1999/02/22-rdf-syntax-ns#" xmlns:svg="http://www.w3.org/2000/svg" xmlns="http://www.w3.org/2000/svg" xmlns:sodipodi="http://sodipodi.sourceforge.net/DTD/sodipodi-0.dtd" xmlns:inkscape="http://www.inkscape.org/namespaces/inkscape" inkscape:version="1.0 (4035a4f, 2020-05-01)" sodipodi:docname="svg_render_XCO-pp.svg" id="svg66797" viewBox="0 0 300 380" height="380" width="300" version="1.1">
  <metadata id="metadata66801">
    <rdf:RDF>
      <cc:Work rdf:about="">
        <dc:format>image/svg+xml</dc:format>
        <dc:type rdf:resource="http://purl.org/dc/dcmitype/StillImage"/>
      </cc:Work>
    </rdf:RDF>
  </metadata>
  <sodipodi:namedview inkscape:current-layer="svg66797" inkscape:window-maximized="0" inkscape:window-y="23" inkscape:window-x="0" inkscape:cy="190" inkscape:cx="150" inkscape:zoom="1.7605263" showgrid="false" id="namedview66799" inkscape:window-height="480" inkscape:window-width="689" inkscape:pageshadow="2" inkscape:pageopacity="0" guidetolerance="10" gridtolerance="10" objecttolerance="10" borderopacity="1" bordercolor="#666666" pagecolor="#ffffff"/>
  
  <defs id="defs66215">
    <symbol viewBox="0 0 50px 50px" id="dial-fm-xco">
      <g id="g66212" transform="translate(25 25)">
        <text id="text66190" transform="rotate(-240) translate(24 0) rotate(240) translate(-4 3)" font-size="6.0pt">0</text>
        <polyline id="polyline66192" transform="rotate(-210) translate(22 0)" stroke-width="0.5" points="0,0 3,0"/>
        <polyline id="polyline66194" transform="rotate(-180) translate(22 0)" stroke-width="0.5" points="0,0 3,0"/>
        <polyline id="polyline66196" transform="rotate(-150) translate(22 0)" stroke-width="0.5" points="0,0 3,0"/>
        <polyline id="polyline66198" transform="rotate(-120) translate(22 0)" stroke-width="0.5" points="0,0 3,0"/>
        <polyline id="polyline66200" transform="rotate(-90) translate(22 0)" stroke-width="0.5" points="0,0 3,0"/>
        <polyline id="polyline66202" transform="rotate(-60) translate(22 0)" stroke-width="0.5" points="0,0 3,0"/>
        <polyline id="polyline66204" transform="rotate(-30) translate(22 0)" stroke-width="0.5" points="0,0 3,0"/>
        <polyline id="polyline66206" transform="rotate(0) translate(22 0)" stroke-width="0.5" points="0,0 3,0"/>
        <polyline id="polyline66208" transform="rotate(30) translate(22 0)" stroke-width="0.5" points="0,0 3,0"/>
        <polyline id="polyline66210" transform="rotate(60) translate(22 0)" stroke-width="1" points="0,0 4,0"/>
      </g>
    </symbol>
  </defs>
  <path class="module-background background-fill" d="M 0,0 H 300 V 380 H 0 Z" style="fill:#dddddd" id="rect66217"/>
  <path class="module-border-inner" d="M 1,1 H 299 V 379 H 1 V 1" style="fill:none;stroke:#e4e4e4;stroke-width:0.5" id="polyline66219"/>
  <path class="module-border-middle" d="m 0.5,0.5 h 299 v 379 H 0.5 V 0.5" style="fill:none;stroke:#ebebeb;stroke-width:0.8" id="polyline66221"/>
  <path class="module-border-outer" d="M 0,0 H 300 V 380 H 0 V 0" style="fill:none;stroke:#f2f2f2;stroke-width:1" id="polyline66223"/>
  <g class="title" style="font-weight:normal;font-size:16px;font-family:Comfortaa, sans-serif;letter-spacing:4px;text-anchor:middle;fill:#333333" id="text66225" transform="translate(150.0 19)" aria-label="XCO">
    <path id="path67427" style="font-weight:normal;font-size:16px;font-family:Comfortaa, sans-serif;letter-spacing:4px;text-anchor:middle;fill:#333333" d="m -12.442625,-1.008 q 0.144,0.192 0.144,0.4 0,0.256 -0.16,0.432 -0.16,0.176 -0.432,0.176 -0.32,0 -0.48,-0.224 l -3.824,-5.296 -3.904,5.328 q -0.16,0.192 -0.448,0.192 -0.272,0 -0.432,-0.16 -0.16,-0.176 -0.16,-0.416 0,-0.24 0.144,-0.432 l 3.952,-5.376 -3.696,-5.136 q -0.128,-0.208 -0.128,-0.384 0,-0.24 0.16,-0.416 0.16,-0.176 0.416,-0.176 0.32,0 0.48,0.224 l 3.632,5.024 3.68,-5.024 q 0.176,-0.224 0.48,-0.224 0.256,0 0.416,0.192 0.16,0.176 0.16,0.416 0,0.208 -0.112,0.368 l -3.776,5.12 z"/>
    <path id="path67429" style="font-weight:normal;font-size:16px;font-family:Comfortaa, sans-serif;letter-spacing:4px;text-anchor:middle;fill:#333333" d="m -0.987125,0.16 q -1.696,0 -3.12,-0.864 -1.424,-0.864 -2.272,-2.336 -0.832,-1.472 -0.832,-3.216 0,-1.728 0.832,-3.2 0.832,-1.472 2.256,-2.336 1.424,-0.864 3.136,-0.864 1.152,0 2.096,0.336 0.944,0.336 1.824,1.072 0.176,0.128 0.176,0.368 0,0.128 -0.064,0.24 -0.064,0.096 -0.176,0.144 -0.032,0.112 -0.144,0.176 -0.112,0.064 -0.24,0.064 -0.24,0 -0.4,-0.144 -0.624,-0.56 -1.36,-0.816 -0.736,-0.256 -1.712,-0.256 -1.344,0 -2.496,0.72 -1.152,0.704 -1.84,1.904 -0.672,1.2 -0.672,2.592 0,1.424 0.672,2.624 0.672,1.2 1.824,1.904 1.152,0.704 2.512,0.704 1.744,0 3.152,-1.12 0.176,-0.128 0.352,-0.128 0.24,0 0.416,0.176 0.176,0.16 0.176,0.432 0,0.256 -0.176,0.448 -1.504,1.376 -3.92,1.376 z"/>
    <path id="path67431" style="font-weight:normal;font-size:16px;font-family:Comfortaa, sans-serif;letter-spacing:4px;text-anchor:middle;fill:#333333" d="m 15.516625,0.16 q -1.824,0 -3.28,-0.832 -1.456,-0.832 -2.288,-2.288 -0.816,-1.472 -0.816,-3.296 0,-1.824 0.816,-3.28 0.832,-1.456 2.288,-2.288 1.456,-0.832 3.28,-0.832 1.808,0 3.264,0.832 1.472,0.832 2.288,2.288 0.832,1.456 0.832,3.28 0,1.824 -0.832,3.296 -0.816,1.456 -2.288,2.288 -1.456,0.832 -3.264,0.832 z m 0,-1.184 q 1.456,0 2.624,-0.688 1.184,-0.688 1.856,-1.872 0.672,-1.2 0.672,-2.672 0,-1.456 -0.672,-2.64 -0.672,-1.2 -1.856,-1.888 -1.168,-0.688 -2.624,-0.688 -1.472,0 -2.656,0.688 -1.168,0.688 -1.84,1.888 -0.672,1.184 -0.672,2.64 0,1.472 0.672,2.672 0.672,1.184 1.84,1.872 1.184,0.688 2.656,0.688 z"/>
  </g>
  <g class="brand" style="font-weight:bold;font-size:10.6667px;font-family:Audiowide, sans-serif;letter-spacing:2px;text-anchor:middle;fill:#333333" id="text66227" aria-label="BOGAUDIO">
    <path id="path67410" style="font-weight:bold;font-size:10.6667px;font-family:Audiowide, sans-serif;letter-spacing:2px;text-anchor:middle;fill:#333333" d="m 118.57284,372.35937 q 0,0.25 -0.0885,0.53646 -0.0833,0.28646 -0.28125,0.53125 -0.19271,0.24479 -0.50521,0.41146 Q 117.38534,374 116.93221,374 h -5.14064 q -0.14584,0 -0.27084,-0.0521 -0.125,-0.0521 -0.21875,-0.14063 -0.0885,-0.0937 -0.14062,-0.21875 -0.0521,-0.125 -0.0521,-0.27083 v -6.10419 q 0,-0.14063 0.0521,-0.26563 0.0521,-0.125 0.14062,-0.21875 0.0937,-0.0937 0.21875,-0.14583 0.125,-0.0521 0.27084,-0.0521 h 4.53126 q 0.25,0 0.53646,0.0885 0.28646,0.0885 0.53125,0.28646 0.25,0.19271 0.41146,0.50521 0.16667,0.3125 0.16667,0.76562 v 0.25521 q 0,0.35938 -0.11979,0.77605 -0.11979,0.41146 -0.38542,0.78125 0.22917,0.14063 0.42709,0.33854 0.20312,0.19792 0.35416,0.45834 0.15105,0.26042 0.23959,0.58854 0.0885,0.32813 0.0885,0.72396 z m -1.35417,-0.26042 q 0,-0.26562 -0.0833,-0.47396 -0.0833,-0.21354 -0.23437,-0.36458 -0.15104,-0.15104 -0.36459,-0.22917 -0.21354,-0.0833 -0.47916,-0.0833 h -3.0521 v -1.36459 h 2.44272 q 0.26563,0 0.47917,-0.0781 0.21354,-0.0833 0.36458,-0.23437 0.15104,-0.15104 0.22917,-0.35938 0.0833,-0.21354 0.0833,-0.47917 v -0.25521 q 0,-0.29166 -0.28125,-0.29166 h -3.85938 v 4.76043 h 4.46876 q 0.0365,0 0.0885,-0.005 0.0521,-0.005 0.0937,-0.0312 0.0417,-0.026 0.0729,-0.0885 0.0312,-0.0625 0.0312,-0.17188 z"/>
    <path id="path67412" style="font-weight:bold;font-size:10.6667px;font-family:Audiowide, sans-serif;letter-spacing:2px;text-anchor:middle;fill:#333333" d="m 129.58329,370.97916 q 0,0.68229 -0.23438,1.25521 -0.23438,0.57292 -0.65104,0.98959 -0.41667,0.41666 -0.98959,0.65104 -0.56771,0.22917 -1.23959,0.22917 h -1.83334 q -0.67187,0 -1.24479,-0.22917 -0.57292,-0.23438 -0.98959,-0.65104 -0.41667,-0.41667 -0.65625,-0.98959 -0.23438,-0.57292 -0.23438,-1.25521 v -1.42709 q 0,-0.67709 0.23438,-1.25 0.23958,-0.57813 0.65625,-0.98959 0.41667,-0.41667 0.98959,-0.65104 0.57292,-0.23438 1.24479,-0.23438 h 1.83334 q 0.67188,0 1.23959,0.23438 0.57292,0.23437 0.98959,0.65104 0.41666,0.41146 0.65104,0.98959 0.23438,0.57291 0.23438,1.25 z m -1.35418,-1.42709 q 0,-0.40104 -0.1302,-0.72396 -0.12501,-0.32813 -0.35938,-0.55729 -0.22917,-0.23438 -0.55729,-0.35938 -0.32292,-0.13021 -0.71355,-0.13021 h -1.83334 q -0.39583,0 -0.72396,0.13021 -0.32292,0.125 -0.55729,0.35938 -0.23438,0.22916 -0.36459,0.55729 -0.125,0.32292 -0.125,0.72396 v 1.42709 q 0,0.40104 0.125,0.72917 0.13021,0.32291 0.36459,0.55729 0.23437,0.22917 0.55729,0.35938 0.32813,0.125 0.72396,0.125 h 1.82293 q 0.39583,0 0.71875,-0.125 0.32812,-0.13021 0.5625,-0.35938 0.23437,-0.23438 0.35938,-0.55729 0.1302,-0.32813 0.1302,-0.72917 z"/>
    <path id="path67414" style="font-weight:bold;font-size:10.6667px;font-family:Audiowide, sans-serif;letter-spacing:2px;text-anchor:middle;fill:#333333" d="m 140.30206,373.31771 q 0,0.14583 -0.0521,0.27083 -0.0521,0.125 -0.14583,0.21875 -0.0885,0.0885 -0.21355,0.14063 Q 139.7656,374 139.61977,374 h -4.88543 q -0.1875,0 -0.40625,-0.0417 -0.21355,-0.0469 -0.42709,-0.14062 -0.20833,-0.0937 -0.40104,-0.23959 -0.19271,-0.15104 -0.34375,-0.35937 -0.14584,-0.21354 -0.23438,-0.48959 -0.0885,-0.28125 -0.0885,-0.63021 v -3.66668 q 0,-0.1875 0.0417,-0.40104 0.0469,-0.21875 0.14062,-0.42708 0.0937,-0.21355 0.24479,-0.40625 0.15105,-0.19271 0.35938,-0.33855 0.21354,-0.15104 0.48959,-0.23958 0.27604,-0.0885 0.625,-0.0885 h 5.50522 v 1.35417 h -5.50522 q -0.26563,0 -0.40625,0.14062 -0.14063,0.14063 -0.14063,0.41667 v 3.65626 q 0,0.26042 0.14063,0.40625 0.14583,0.14063 0.40625,0.14063 h 4.21355 v -1.69792 h -3.60418 v -1.36459 h 4.27606 q 0.14583,0 0.27083,0.0573 0.125,0.0521 0.21355,0.14584 0.0937,0.0937 0.14583,0.21875 0.0521,0.11979 0.0521,0.26041 z"/>
    <path id="path67416" style="font-weight:bold;font-size:10.6667px;font-family:Audiowide, sans-serif;letter-spacing:2px;text-anchor:middle;fill:#333333" d="m 151.05209,374 h -1.35417 v -1.83334 h -4.76043 V 374 h -1.35417 v -3.73439 q 0,-0.81771 0.28125,-1.50521 0.28125,-0.6875 0.78125,-1.1823 0.5,-0.49479 1.1823,-0.77083 0.68229,-0.27604 1.48958,-0.27604 h 3.0521 q 0.14062,0 0.26562,0.0521 0.125,0.0521 0.21875,0.14583 0.0937,0.0937 0.14584,0.21875 0.0521,0.125 0.0521,0.26563 z m -6.1146,-3.18751 h 4.76043 v -2.92709 h -2.38022 q -0.0625,0 -0.26562,0.0208 -0.19792,0.0156 -0.46354,0.0885 -0.26042,0.0729 -0.55209,0.22396 -0.29167,0.15104 -0.53646,0.41667 -0.24479,0.26563 -0.40625,0.66667 -0.15625,0.39583 -0.15625,0.96354 z"/>
    <path id="path67418" style="font-weight:bold;font-size:10.6667px;font-family:Audiowide, sans-serif;letter-spacing:2px;text-anchor:middle;fill:#333333" d="m 161.93754,373.31771 q 0,0.14583 -0.0521,0.27083 -0.0521,0.125 -0.14583,0.21875 -0.0937,0.0885 -0.21875,0.14063 -0.125,0.0521 -0.26563,0.0521 h -3.05209 q -0.43229,0 -0.875,-0.0937 -0.44271,-0.0937 -0.85938,-0.28646 -0.41146,-0.19792 -0.77604,-0.5 -0.36459,-0.30209 -0.64063,-0.71355 -0.27084,-0.41666 -0.42709,-0.94791 -0.15625,-0.53646 -0.15625,-1.19272 v -3.73438 h 1.35417 v 3.73438 q 0,0.57292 0.15625,0.96876 0.16146,0.39583 0.40626,0.66146 0.24479,0.26562 0.53646,0.41666 0.29166,0.15105 0.55208,0.22396 0.26563,0.0729 0.46354,0.0937 0.20313,0.0156 0.26563,0.0156 h 2.38022 v -6.1146 h 1.35417 z"/>
    <path id="path67420" style="font-weight:bold;font-size:10.6667px;font-family:Audiowide, sans-serif;letter-spacing:2px;text-anchor:middle;fill:#333333" d="m 172.96881,370.87499 q 0,0.68229 -0.23958,1.25521 -0.23438,0.57292 -0.65105,0.98959 -0.41666,0.41146 -0.98958,0.64583 Q 170.51568,374 169.8438,374 h -3.65626 q -0.14583,0 -0.27083,-0.0521 -0.125,-0.0521 -0.21875,-0.14063 -0.0885,-0.0937 -0.14063,-0.21875 -0.0521,-0.125 -0.0521,-0.27083 v -6.10419 q 0,-0.14063 0.0521,-0.26563 0.0521,-0.125 0.14063,-0.21875 0.0937,-0.0937 0.21875,-0.14583 0.125,-0.0521 0.27083,-0.0521 h 3.65626 q 0.67188,0 1.2448,0.23437 0.57292,0.23438 0.98958,0.65105 0.41667,0.41146 0.65105,0.98958 0.23958,0.57292 0.23958,1.25001 z m -1.35417,-1.21875 q 0,-0.39584 -0.13021,-0.72396 -0.125,-0.32813 -0.35937,-0.5573 -0.23438,-0.23437 -0.5625,-0.35937 -0.32292,-0.13021 -0.71876,-0.13021 h -2.98438 v 4.76043 h 2.98438 q 0.39584,0 0.71876,-0.125 0.32812,-0.13021 0.5625,-0.35938 0.23437,-0.23437 0.35937,-0.55729 0.13021,-0.32813 0.13021,-0.72917 z"/>
    <path id="path67422" style="font-weight:bold;font-size:10.6667px;font-family:Audiowide, sans-serif;letter-spacing:2px;text-anchor:middle;fill:#333333" d="m 177.67195,374 h -1.35417 v -7.46877 h 1.35417 z"/>
    <path id="path67424" style="font-weight:bold;font-size:10.6667px;font-family:Audiowide, sans-serif;letter-spacing:2px;text-anchor:middle;fill:#333333" d="m 189.10427,370.97916 q 0,0.68229 -0.23438,1.25521 -0.23437,0.57292 -0.65104,0.98959 -0.41667,0.41666 -0.98959,0.65104 -0.56771,0.22917 -1.23958,0.22917 h -1.83334 q -0.67188,0 -1.2448,-0.22917 -0.57292,-0.23438 -0.98959,-0.65104 -0.41666,-0.41667 -0.65625,-0.98959 -0.23437,-0.57292 -0.23437,-1.25521 v -1.42709 q 0,-0.67709 0.23437,-1.25 0.23959,-0.57813 0.65625,-0.98959 0.41667,-0.41667 0.98959,-0.65104 0.57292,-0.23438 1.2448,-0.23438 h 1.83334 q 0.67187,0 1.23958,0.23438 0.57292,0.23437 0.98959,0.65104 0.41667,0.41146 0.65104,0.98959 0.23438,0.57291 0.23438,1.25 z m -1.35417,-1.42709 q 0,-0.40104 -0.13021,-0.72396 -0.125,-0.32813 -0.35938,-0.55729 -0.22916,-0.23438 -0.55729,-0.35938 -0.32292,-0.13021 -0.71354,-0.13021 h -1.83334 q -0.39584,0 -0.72396,0.13021 -0.32292,0.125 -0.5573,0.35938 -0.23437,0.22916 -0.36458,0.55729 -0.125,0.32292 -0.125,0.72396 v 1.42709 q 0,0.40104 0.125,0.72917 0.13021,0.32291 0.36458,0.55729 0.23438,0.22917 0.5573,0.35938 0.32812,0.125 0.72396,0.125 h 1.82292 q 0.39583,0 0.71875,-0.125 0.32813,-0.13021 0.5625,-0.35938 0.23438,-0.23438 0.35938,-0.55729 0.13021,-0.32813 0.13021,-0.72917 z"/>
  </g>
  <path class="background-fill" d="m 134.5,369 h 3 v 3 h -3 z" style="fill:#dddddd" id="rect66229"/>
  <g transform="translate(40,45)" id="g66233"/>
  <g transform="translate(74,79)" id="g66333">
    <g transform="rotate(120,-17,9.8149546)" id="g66241">
      <path d="M 0,0 H 5" style="stroke:#333333;stroke-width:1" transform="translate(3)" id="polyline66237"/>
      <g style="font-weight:bold;font-size:9.33333px;font-family:Roboto, sans-serif;fill:#333333" id="text66239" transform="rotate(-120,10.866025,-3.8094011)" aria-label="-3">
        <path id="path67353" style="font-weight:bold;font-size:9.33333px;font-family:Roboto, sans-serif;fill:#333333" d="M 3.0670562,-2.3105461 H 0.50130191 V -3.3723947 H 3.0670562 Z"/>
        <path id="path67355" style="font-weight:bold;font-size:9.33333px;font-family:Roboto, sans-serif;fill:#333333" d="m 5.4186178,-3.9010403 h 0.7018227 q 0.5013019,0 0.7428383,-0.250651 0.2415364,-0.250651 0.2415364,-0.6653644 0,-0.4010415 -0.2415364,-0.6243487 -0.2369791,-0.2233072 -0.6562498,-0.2233072 -0.3782551,0 -0.6334633,0.2096353 -0.2552083,0.2050781 -0.2552083,0.5377603 H 4.0013006 q 0,-0.5195311 0.2779947,-0.9296872 0.282552,-0.4147134 0.7838539,-0.6471352 0.5058592,-0.2324218 1.1119788,-0.2324218 1.052734,0 1.649739,0.5058592 0.597005,0.5013019 0.597005,1.3854162 0,0.455729 -0.2779947,0.8385414 -0.2779947,0.3828123 -0.7291664,0.5878904 0.5605467,0.2005208 0.8339841,0.6015623 0.2779947,0.4010415 0.2779947,0.9479163 0,0.88411432 -0.6471352,1.41731726 Q 7.2369766,0.0911458 6.175128,0.0911458 q -0.9934893,0 -1.6269526,-0.52408836 -0.628906,-0.52408836 -0.628906,-1.38541624 h 1.3170568 q 0,0.3736978 0.2779947,0.6106769 0.282552,0.23697911 0.6927081,0.23697911 0.4694009,0 0.7337237,-0.24609371 0.2688801,-0.2506509 0.2688801,-0.660807 0,-0.9934893 -1.0937496,-0.9934893 H 5.4186178 Z"/>
      </g>
    </g>
    <g transform="rotate(139.44,-17,6.2817457)" id="g66245">
      <path d="M 0,0 H 3" style="stroke:#333333;stroke-width:0.7" transform="translate(3)" id="polyline66243"/>
    </g>
    <g transform="rotate(153.333,-17,4.0291262)" id="g66251">
      <path d="M 0,0 H 5" style="stroke:#333333;stroke-width:1" transform="translate(3)" id="polyline66247"/>
      <g style="font-weight:bold;font-size:9.33333px;font-family:Roboto, sans-serif;fill:#333333" id="text66249" transform="rotate(-153.333,10.105511,-2.5072816)" aria-label="-2">
        <path id="path67360" style="font-weight:bold;font-size:9.33333px;font-family:Roboto, sans-serif;fill:#333333" d="M 3.0670562,-2.3105461 H 0.50130191 V -3.3723947 H 3.0670562 Z"/>
        <path id="path67362" style="font-weight:bold;font-size:9.33333px;font-family:Roboto, sans-serif;fill:#333333" d="M 8.6269501,0 H 4.0787745 V -0.90234344 L 6.2252582,-3.1901031 q 0.4420571,-0.4830727 0.6516925,-0.8430987 0.2141926,-0.3600259 0.2141926,-0.6835935 0,-0.4420571 -0.2233072,-0.6927081 -0.2233072,-0.2552082 -0.6380206,-0.2552082 -0.4466145,0 -0.70638,0.3098957 -0.2552082,0.3053385 -0.2552082,0.8066404 H 3.9466131 q 0,-0.6061196 0.2871093,-1.1074215 0.2916666,-0.5013019 0.8203122,-0.7838539 0.5286457,-0.2871093 1.1985673,-0.2871093 1.0253903,0 1.5904943,0.4921873 0.5696612,0.4921874 0.5696612,1.3899735 0,0.4921873 -0.2552082,1.0026038 -0.2552083,0.5104165 -0.8749997,1.1894528 l -1.508463,1.5904942 h 2.8528636 z"/>
      </g>
    </g>
    <g transform="rotate(172.77,-17,1.0740176)" id="g66255">
      <path d="M 0,0 H 3" style="stroke:#333333;stroke-width:0.7" transform="translate(3)" id="polyline66253"/>
    </g>
    <g transform="rotate(-173.333,-17,-0.99018687)" id="g66261">
      <path d="M 0,0 H 5" style="stroke:#333333;stroke-width:1" transform="translate(3)" id="polyline66257"/>
      <g style="font-weight:bold;font-size:9.33333px;font-family:Roboto, sans-serif;fill:#333333" id="text66259" transform="rotate(173.333,8.9126306,-1.2087686)" aria-label="-1">
        <path id="path67367" style="font-weight:bold;font-size:9.33333px;font-family:Roboto, sans-serif;fill:#333333" d="M 3.0670562,-2.3105461 H 0.50130191 V -3.3723947 H 3.0670562 Z"/>
        <path id="path67369" style="font-weight:bold;font-size:9.33333px;font-family:Roboto, sans-serif;fill:#333333" d="M 7.2779922,0 H 5.9609354 V -5.0768212 L 4.3886703,-4.5891911 V -5.6601543 L 7.1367162,-6.644529 h 0.141276 z"/>
      </g>
    </g>
    <g transform="rotate(-153.89,-17,-3.9419517)" id="g66265">
      <path d="M 0,0 H 3" style="stroke:#333333;stroke-width:0.7" transform="translate(3)" id="polyline66263"/>
    </g>
    <g transform="rotate(-140,-17,-6.187494)" id="g66271">
      <path d="M 0,0 H 5" style="stroke:#333333;stroke-width:1" transform="translate(3)" id="polyline66267"/>
      <g style="font-weight:bold;font-size:9.33333px;font-family:Roboto, sans-serif;letter-spacing:1px;fill:#333333" id="text66269" transform="rotate(140,10.363052,0.06985117)" aria-label="0V">
        <path id="path67374" style="font-weight:bold;font-size:9.33333px;font-family:Roboto, sans-serif;letter-spacing:1px;fill:#333333" d="m 4.917316,-2.7434886 q 0,1.3763016 -0.5696612,2.10546798 -0.5696613,0.72916642 -1.6679682,0.72916642 -1.0846351,0 -1.6588536,-0.71549455 Q 0.44661443,-1.3398433 0.43294256,-2.6751293 V -3.896483 q 0,-1.3899735 0.57421854,-2.1100254 0.5787759,-0.7200518 1.6634109,-0.7200518 1.0846351,0 1.6588536,0.7154945 0.5742186,0.7109373 0.5878904,2.0462233 z M 3.6002592,-4.0833319 q 0,-0.8248696 -0.2278645,-1.1985673 -0.2233072,-0.3782551 -0.7018227,-0.3782551 -0.4648436,0 -0.6881508,0.3600259 -0.2187499,0.3554686 -0.2324218,1.1165361 v 1.6132807 q 0,0.8111976 0.2187499,1.2076819 0.2233072,0.39192691 0.7109373,0.39192691 0.4830727,0 0.6972654,-0.37825511 0.2141926,-0.3782551 0.2233072,-1.1575517 z"/>
        <path id="path67376" style="font-weight:bold;font-size:9.33333px;font-family:Roboto, sans-serif;letter-spacing:1px;fill:#333333" d="m 9.4036429,-1.6451817 1.5039061,-4.9902327 h 1.522135 L 10.119137,0 H 8.6927056 L 6.3912741,-6.6354144 h 1.5175776 z"/>
      </g>
    </g>
    <g transform="rotate(-120.56,-17,-9.7044951)" id="g66275">
      <path d="M 0,0 H 3" style="stroke:#333333;stroke-width:0.7" transform="translate(3)" id="polyline66273"/>
    </g>
    <g transform="rotate(-106.667,-17,-12.655954)" id="g66281">
      <path d="M 0,0 H 5" style="stroke:#333333;stroke-width:1" transform="translate(3)" id="polyline66277"/>
      <g style="font-weight:bold;font-size:9.33333px;font-family:Roboto, sans-serif;fill:#333333" id="text66279" transform="rotate(106.667,7.2332982,2.7062436)" aria-label="1">
        <path id="path67381" style="font-weight:bold;font-size:9.33333px;font-family:Roboto, sans-serif;fill:#333333" d="M 3.6503894,0 H 2.3333325 V -5.0768212 L 0.76106745,-4.5891911 V -5.6601543 L 3.5091134,-6.644529 h 0.141276 z"/>
      </g>
    </g>
    <g transform="rotate(-87.23,-17,-17.842403)" id="g66285">
      <path d="M 0,0 H 3" style="stroke:#333333;stroke-width:0.7" transform="translate(3)" id="polyline66283"/>
    </g>
    <g transform="rotate(-73.33,-17,-22.83635)" id="g66291">
      <path d="M 0,0 H 5" style="stroke:#333333;stroke-width:1" transform="translate(3)" id="polyline66287"/>
      <g style="font-weight:bold;font-size:9.33333px;font-family:Roboto, sans-serif;fill:#333333" id="text66289" transform="rotate(73.333,6.3351381,6.0893132)" aria-label="2">
        <path id="path67386" style="font-weight:bold;font-size:9.33333px;font-family:Roboto, sans-serif;fill:#333333" d="M 4.9993473,0 H 0.45117172 V -0.90234344 L 2.5976554,-3.1901031 q 0.4420571,-0.4830727 0.6516925,-0.8430987 0.2141926,-0.3600259 0.2141926,-0.6835935 0,-0.4420571 -0.2233072,-0.6927081 -0.2233072,-0.2552082 -0.6380206,-0.2552082 -0.4466145,0 -0.70638,0.3098957 -0.2552083,0.3053385 -0.2552083,0.8066404 H 0.31901031 q 0,-0.6061196 0.28710928,-1.1074215 0.29166656,-0.5013019 0.82031221,-0.7838539 0.5286457,-0.2871093 1.1985673,-0.2871093 1.0253903,0 1.5904943,0.4921873 0.5696612,0.4921874 0.5696612,1.3899735 0,0.4921873 -0.2552082,1.0026038 -0.2552083,0.5104165 -0.8749997,1.1894528 l -1.5084631,1.5904942 h 2.8528637 z"/>
      </g>
    </g>
    <g transform="rotate(-53.89,-17,-33.443704)" id="g66295">
      <path d="M 0,0 H 3" style="stroke:#333333;stroke-width:0.7" transform="translate(3)" id="polyline66293"/>
    </g>
    <g transform="rotate(-40,-17,-46.707116)" id="g66301">
      <path d="M 0,0 H 5" style="stroke:#333333;stroke-width:1" transform="translate(3)" id="polyline66297"/>
      <g style="font-weight:bold;font-size:9.33333px;font-family:Roboto, sans-serif;fill:#333333" id="text66299" transform="rotate(40,4.2287839,14.023247)" aria-label="3">
        <path id="path67391" style="font-weight:bold;font-size:9.33333px;font-family:Roboto, sans-serif;fill:#333333" d="m 1.791015,-3.9010403 h 0.7018227 q 0.5013019,0 0.7428383,-0.250651 0.2415364,-0.250651 0.2415364,-0.6653644 0,-0.4010415 -0.2415364,-0.6243487 -0.2369791,-0.2233072 -0.6562498,-0.2233072 -0.3782551,0 -0.6334633,0.2096353 -0.2552083,0.2050781 -0.2552083,0.5377603 H 0.37369779 q 0,-0.5195311 0.2779947,-0.9296872 0.28255198,-0.4147134 0.78385391,-0.6471352 0.5058592,-0.2324218 1.1119788,-0.2324218 1.052734,0 1.649739,0.5058592 0.597005,0.5013019 0.597005,1.3854162 0,0.455729 -0.2779947,0.8385414 -0.2779947,0.3828123 -0.7291664,0.5878904 0.5605467,0.2005208 0.8339841,0.6015623 0.2779947,0.4010415 0.2779947,0.9479163 0,0.88411432 -0.6471352,1.41731726 -0.6425779,0.53320294 -1.7044265,0.53320294 -0.9934893,0 -1.6269526,-0.52408836 Q 0.29166657,-0.95703092 0.29166657,-1.8183588 H 1.6087234 q 0,0.3736978 0.2779947,0.6106769 0.282552,0.23697911 0.6927081,0.23697911 0.4694009,0 0.7337237,-0.24609371 0.2688801,-0.2506509 0.2688801,-0.660807 0,-0.9934893 -1.0937496,-0.9934893 H 1.791015 Z"/>
      </g>
    </g>
    <g transform="rotate(-20.56,-17,-93.730929)" id="g66305">
      <path d="M 0,0 H 3" style="stroke:#333333;stroke-width:0.7" transform="translate(3)" id="polyline66303"/>
    </g>
    <g transform="rotate(-6.667,-17,-291.8641)" id="g66311">
      <path d="M 0,0 H 5" style="stroke:#333333;stroke-width:1" transform="translate(3)" id="polyline66307"/>
      <g style="font-weight:bold;font-size:9.33333px;font-family:Roboto, sans-serif;fill:#333333" id="text66309" transform="rotate(6.667,-17.402715,95.501893)" aria-label="4">
        <path id="path67396" style="font-weight:bold;font-size:9.33333px;font-family:Roboto, sans-serif;fill:#333333" d="m 4.3476548,-2.497395 h 0.7519528 v 1.0618486 H 4.3476548 V 0 H 3.0305979 V -1.4355464 H 0.30989573 L 0.25065096,-2.2649732 3.0169261,-6.6354144 h 1.3307287 z m -2.7845043,0 h 1.4674474 v -2.3424471 l -0.086588,0.1503906 z"/>
      </g>
    </g>
    <g transform="rotate(12.77,-17,151.91744)" id="g66315">
      <path d="M 0,0 H 3" style="stroke:#333333;stroke-width:0.7" transform="translate(3)" id="polyline66313"/>
    </g>
    <g transform="rotate(26.667,-17,71.72771)" id="g66321">
      <path d="M 0,0 H 5" style="stroke:#333333;stroke-width:1" transform="translate(3)" id="polyline66317"/>
      <g style="font-weight:bold;font-size:9.33333px;font-family:Roboto, sans-serif;fill:#333333" id="text66319" transform="rotate(-26.667,14.678916,-25.338915)" aria-label="5">
        <path id="path67401" style="font-weight:bold;font-size:9.33333px;font-family:Roboto, sans-serif;fill:#333333" d="m 0.6471352,-3.2630197 0.3828124,-3.3723947 h 3.7187487 v 1.0983069 h -2.638671 l -0.1640624,1.4264318 q 0.4694009,-0.2506509 0.9980465,-0.2506509 0.9479164,0 1.4856766,0.5878904 0.5377602,0.5878904 0.5377602,1.6451817 0,0.6425779 -0.2734374,1.15299442 -0.2688801,0.5058592 -0.7747393,0.78841119 -0.5058592,0.27799469 -1.19401,0.27799469 -0.6015623,0 -1.1165361,-0.24153637 Q 1.0937496,-0.39648424 0.79296848,-0.83854138 0.49674462,-1.2805985 0.47851546,-1.8457025 H 1.7819004 q 0.041016,0.4147134 0.2871093,0.6471352 0.250651,0.22786451 0.6516925,0.22786451 0.4466144,0 0.6881508,-0.31901031 0.2415364,-0.3235676 0.2415364,-0.911458 0,-0.565104 -0.2779947,-0.8658851 Q 3.0944,-3.3678374 2.5839835,-3.3678374 q -0.4694009,0 -0.7610675,0.2460937 l -0.1276041,0.1184895 z"/>
      </g>
    </g>
    <g transform="rotate(46.11,-17,39.942842)" id="g66325">
      <path d="M 0,0 H 3" style="stroke:#333333;stroke-width:0.7" transform="translate(3)" id="polyline66323"/>
    </g>
    <g transform="rotate(60,-17,29.444864)" id="g66331">
      <path d="M 0,0 H 5" style="stroke:#333333;stroke-width:1" transform="translate(3)" id="polyline66327"/>
      <g style="font-weight:bold;font-size:9.33333px;font-family:Roboto, sans-serif;fill:#333333" id="text66329" transform="rotate(-60,10.948076,-11.286087)" aria-label="6">
        <path id="path67406" style="font-weight:bold;font-size:9.33333px;font-family:Roboto, sans-serif;fill:#333333" d="m 4.0240872,-6.7037738 v 1.0846351 H 3.896483 q -0.8932288,0.013672 -1.4401036,0.4648436 -0.5423176,0.4511717 -0.6516925,1.2532548 0.5286456,-0.5377603 1.335286,-0.5377603 0.8658851,0 1.3763016,0.6197915 0.5104165,0.6197914 0.5104165,1.6315098 0,0.6471352 -0.282552,1.1712236 Q 4.4661443,-0.49218733 3.9511705,-0.20052077 3.440754,0.0911458 2.7936188,0.0911458 q -1.0481767,0 -1.6953119,-0.72916642 Q 0.45572901,-1.367187 0.45572901,-2.5839835 v -0.4739582 q 0,-1.0800777 0.40559882,-1.9049472 0.41015607,-0.8294268 1.17122357,-1.2805986 0.7656247,-0.455729 1.7727858,-0.4602863 z m -1.2851558,3.3222645 q -0.3190103,0 -0.5787759,0.1686198 -0.2597655,0.1640624 -0.3828124,0.4374998 v 0.4010416 q 0,0.660807 0.2597656,1.0345048 0.2597655,0.36914051 0.7291664,0.36914051 0.423828,0 0.6835935,-0.33268221 0.2643228,-0.3372394 0.2643228,-0.8704424 0,-0.5423175 -0.2643228,-0.8749997 -0.2643228,-0.3326822 -0.7109372,-0.3326822 z"/>
      </g>
    </g>
  </g>
  <g style="font-weight:bold;font-size:8px;font-family:Roboto, sans-serif;letter-spacing:1px;fill:#333333" id="text66337" transform="translate(30 135)" aria-label="0V = C4 = 261.63HZ">
    <path id="path67323" style="font-weight:bold;font-size:8px;font-family:Roboto, sans-serif;letter-spacing:1px;fill:#333333" d="m 4.2148437,-2.3515625 q 0,1.1796875 -0.4882812,1.8046875 -0.4882812,0.625 -1.4296875,0.625 -0.9296875,0 -1.421875,-0.61328125 Q 0.3828125,-1.1484375 0.37109375,-2.2929688 v -1.046875 q 0,-1.1914062 0.4921875,-1.8085937 Q 1.359375,-5.765625 2.2890625,-5.765625 q 0.9296875,0 1.421875,0.6132813 0.4921875,0.609375 0.5039062,1.7539062 z M 3.0859375,-3.5 q 0,-0.7070312 -0.1953125,-1.0273437 -0.1914062,-0.3242188 -0.6015625,-0.3242188 -0.3984375,0 -0.5898438,0.3085938 Q 1.5117187,-4.2382812 1.5,-3.5859375 v 1.3828125 q 0,0.6953125 0.1875,1.0351563 0.1914062,0.33593745 0.609375,0.33593745 0.4140625,0 0.5976563,-0.32421875 0.1835937,-0.3242187 0.1914062,-0.9921875 z"/>
    <path id="path67325" style="font-weight:bold;font-size:8px;font-family:Roboto, sans-serif;letter-spacing:1px;fill:#333333" d="M 8.203125,-1.4101562 9.4921875,-5.6875 H 10.796875 L 8.8164063,0 H 7.59375 L 5.6210937,-5.6875 H 6.921875 Z"/>
    <path id="path67327" style="font-weight:bold;font-size:8px;font-family:Roboto, sans-serif;letter-spacing:1px;fill:#333333" d="m 18.851562,-2.9140625 h -3.492187 v -0.921875 h 3.492187 z m 0,1.6914063 h -3.492187 v -0.9218751 h 3.492187 z"/>
    <path id="path67329" style="font-weight:bold;font-size:8px;font-family:Roboto, sans-serif;letter-spacing:1px;fill:#333333" d="M 28.378906,-1.8945312 Q 28.3125,-0.9765625 27.699219,-0.44921875 27.089844,0.078125 26.089844,0.078125 q -1.09375,0 -1.722657,-0.734375 -0.625,-0.7382812 -0.625,-2.0234375 v -0.3476563 q 0,-0.8203125 0.289063,-1.4453124 0.289062,-0.625 0.824219,-0.9570313 0.539062,-0.3359375 1.25,-0.3359375 0.984375,0 1.585937,0.5273438 0.601563,0.5273437 0.695313,1.4804687 h -1.171875 q -0.04297,-0.5507812 -0.308594,-0.796875 -0.261719,-0.25 -0.800781,-0.25 -0.585938,0 -0.878907,0.421875 -0.289062,0.4179687 -0.296875,1.3007812 v 0.4296875 q 0,0.9218751 0.277344,1.3476563 0.28125,0.42578125 0.882813,0.42578125 0.542968,0 0.808593,-0.24609375 0.269532,-0.25 0.308594,-0.7695312 z"/>
    <path id="path67331" style="font-weight:bold;font-size:8px;font-family:Roboto, sans-serif;letter-spacing:1px;fill:#333333" d="m 33.367187,-2.140625 h 0.644532 v 0.9101563 H 33.367187 V 0 H 32.238281 V -1.2304687 H 29.90625 L 29.855469,-1.9414062 32.226562,-5.6875 h 1.140625 z m -2.386718,0 h 1.257812 v -2.0078125 l -0.07422,0.1289063 z"/>
    <path id="path67333" style="font-weight:bold;font-size:8px;font-family:Roboto, sans-serif;letter-spacing:1px;fill:#333333" d="m 42.257812,-2.9140625 h -3.492187 v -0.921875 h 3.492187 z m 0,1.6914063 h -3.492187 v -0.9218751 h 3.492187 z"/>
    <path id="path67335" style="font-weight:bold;font-size:8px;font-family:Roboto, sans-serif;letter-spacing:1px;fill:#333333" d="m 51.097656,0 h -3.898437 v -0.7734375 l 1.839843,-1.9609375 q 0.378907,-0.4140625 0.558594,-0.7226563 0.183594,-0.3085937 0.183594,-0.5859374 0,-0.3789063 -0.191406,-0.59375 -0.191407,-0.21875 -0.546875,-0.21875 -0.382813,0 -0.605469,0.265625 -0.21875,0.2617187 -0.21875,0.6914062 h -1.132813 q 0,-0.5195312 0.246094,-0.9492187 0.25,-0.4296875 0.703125,-0.671875 0.453125,-0.2460938 1.027344,-0.2460938 0.878906,0 1.363281,0.421875 0.488281,0.421875 0.488281,1.1914063 0,0.4218749 -0.21875,0.8593749 -0.21875,0.4375 -0.75,1.0195313 l -1.292968,1.36328125 h 2.445312 z"/>
    <path id="path67337" style="font-weight:bold;font-size:8px;font-family:Roboto, sans-serif;letter-spacing:1px;fill:#333333" d="m 55.855469,-5.7460937 v 0.9296875 h -0.109375 q -0.765625,0.011719 -1.234375,0.3984375 -0.464844,0.3867187 -0.558594,1.0742187 0.453125,-0.4609375 1.144531,-0.4609375 0.742188,0 1.179688,0.53125 0.4375,0.53125 0.4375,1.3984375 0,0.5546875 -0.242188,1.00390625 -0.238281,0.44921875 -0.679687,0.69921875 -0.4375,0.25 -0.992188,0.25 -0.898437,0 -1.453125,-0.625 -0.550781,-0.625 -0.550781,-1.6679688 v -0.40625 q 0,-0.9257812 0.347656,-1.6328124 0.351563,-0.7109375 1.003906,-1.0976563 0.65625,-0.390625 1.519532,-0.3945312 z m -1.101563,2.8476562 q -0.273437,0 -0.496094,0.1445312 -0.222656,0.140625 -0.328125,0.375 v 0.34375 q 0,0.5664063 0.222657,0.8867188 0.222656,0.31640625 0.625,0.31640625 0.363281,0 0.585937,-0.28515625 0.226563,-0.2890625 0.226563,-0.7460937 0,-0.4648438 -0.226563,-0.7500001 -0.226562,-0.2851562 -0.609375,-0.2851562 z"/>
    <path id="path67339" style="font-weight:bold;font-size:8px;font-family:Roboto, sans-serif;letter-spacing:1px;fill:#333333" d="M 61.128906,0 H 60 v -4.3515625 l -1.347656,0.4179687 v -0.9179687 l 2.355468,-0.84375 h 0.121094 z"/>
    <path id="path67341" style="font-weight:bold;font-size:8px;font-family:Roboto, sans-serif;letter-spacing:1px;fill:#333333" d="m 64.085937,-0.5546875 q 0,-0.26953125 0.179688,-0.4375 0.183594,-0.1679687 0.457031,-0.1679687 0.277344,0 0.457031,0.1679687 0.183594,0.16796875 0.183594,0.4375 0,0.265625 -0.179687,0.43359375 -0.179688,0.1640625 -0.460938,0.1640625 -0.277344,0 -0.457031,-0.1640625 -0.179688,-0.16796875 -0.179688,-0.43359375 z"/>
    <path id="path67343" style="font-weight:bold;font-size:8px;font-family:Roboto, sans-serif;letter-spacing:1px;fill:#333333" d="m 70.371094,-5.7460937 v 0.9296875 h -0.109375 q -0.765625,0.011719 -1.234375,0.3984375 Q 68.5625,-4.03125 68.46875,-3.34375 q 0.453125,-0.4609375 1.144531,-0.4609375 0.742188,0 1.179688,0.53125 0.4375,0.53125 0.4375,1.3984375 0,0.5546875 -0.242188,1.00390625 Q 70.75,-0.421875 70.308594,-0.171875 q -0.4375,0.25 -0.992188,0.25 -0.898437,0 -1.453125,-0.625 -0.550781,-0.625 -0.550781,-1.6679688 v -0.40625 q 0,-0.9257812 0.347656,-1.6328124 0.351563,-0.7109375 1.003906,-1.0976563 0.65625,-0.390625 1.519532,-0.3945312 z m -1.101563,2.8476562 q -0.273437,0 -0.496094,0.1445312 -0.222656,0.140625 -0.328125,0.375 v 0.34375 q 0,0.5664063 0.222657,0.8867188 0.222656,0.31640625 0.625,0.31640625 0.363281,0 0.585937,-0.28515625 0.226563,-0.2890625 0.226563,-0.7460937 0,-0.4648438 -0.226563,-0.7500001 -0.226562,-0.2851562 -0.609375,-0.2851562 z"/>
    <path id="path67345" style="font-weight:bold;font-size:8px;font-family:Roboto, sans-serif;letter-spacing:1px;fill:#333333" d="m 74.050781,-3.34375 h 0.601563 q 0.429687,0 0.636718,-0.2148438 0.207032,-0.2148437 0.207032,-0.5703124 0,-0.34375 -0.207032,-0.5351563 -0.203125,-0.1914062 -0.5625,-0.1914062 -0.324218,0 -0.542968,0.1796875 -0.21875,0.1757812 -0.21875,0.4609375 h -1.128907 q 0,-0.4453125 0.238282,-0.796875 0.242187,-0.3554688 0.671875,-0.5546875 0.433593,-0.1992188 0.953125,-0.1992188 0.902343,0 1.414062,0.4335938 0.511719,0.4296875 0.511719,1.1875 0,0.3906249 -0.238281,0.7187499 -0.238282,0.328125 -0.625,0.5039063 0.480468,0.171875 0.714843,0.515625 0.238282,0.34375 0.238282,0.8125 0,0.7578125 -0.554688,1.21484375 -0.550781,0.45703125 -1.460937,0.45703125 -0.851563,0 -1.394532,-0.44921875 -0.539062,-0.44921875 -0.539062,-1.18749995 h 1.128906 q 0,0.3203125 0.238281,0.5234375 0.242188,0.20312495 0.59375,0.20312495 0.402344,0 0.628907,-0.21093745 0.230468,-0.2148438 0.230468,-0.5664063 0,-0.8515625 -0.9375,-0.8515625 h -0.597656 z"/>
    <path id="path67347" style="font-weight:bold;font-size:8px;font-family:Roboto, sans-serif;letter-spacing:1px;fill:#333333" d="M 83.246094,0 H 82.074219 V -2.4375 H 79.789062 V 0 h -1.171875 v -5.6875 h 1.171875 v 2.3046875 h 2.285157 V -5.6875 h 1.171875 z"/>
    <path id="path67349" style="font-weight:bold;font-size:8px;font-family:Roboto, sans-serif;letter-spacing:1px;fill:#333333" d="m 86.515625,-0.94140625 h 2.867187 V 0 h -4.332031 v -0.6875 l 2.8125,-4.0507812 H 85.054687 V -5.6875 h 4.265625 v 0.671875 z"/>
  </g>
  <g style="font-weight:bold;font-size:10.6667px;font-family:Roboto, sans-serif;letter-spacing:2px;fill:#333333" id="text66339" transform="rotate(-90)" aria-label="FINE">
    <path id="path67314" style="font-weight:bold;font-size:10.6667px;font-family:Roboto, sans-serif;letter-spacing:2px;fill:#333333" d="m -169.7604,30.901032 h -3.00001 V 34 h -1.5625 v -7.583357 h 4.93751 v 1.265629 h -3.37501 v 1.958339 h 3.00001 z"/>
    <path id="path67316" style="font-weight:bold;font-size:10.6667px;font-family:Roboto, sans-serif;letter-spacing:2px;fill:#333333" d="m -164.80727,34 h -1.5625 v -7.583357 h 1.5625 z"/>
    <path id="path67318" style="font-weight:bold;font-size:10.6667px;font-family:Roboto, sans-serif;letter-spacing:2px;fill:#333333" d="m -155.19787,34 h -1.5625 l -3.04168,-4.989599 V 34 h -1.5625 v -7.583357 h 1.5625 l 3.04689,5.000016 v -5.000016 h 1.55729 z"/>
    <path id="path67320" style="font-weight:bold;font-size:10.6667px;font-family:Roboto, sans-serif;letter-spacing:2px;fill:#333333" d="m -147.26035,30.713531 h -3.00001 v 2.031257 h 3.52085 V 34 h -5.08335 v -7.583357 h 5.07293 v 1.265629 h -3.51043 v 1.807297 h 3.00001 z"/>
  </g>
  <g transform="translate(47,153)" id="g66341"/>
  <g transform="translate(55,161)" id="g66357">
    <g transform="rotate(-90,-5,-5)" id="g66347">
      <path d="M 0,0 H 4" style="stroke:#333333;stroke-width:1" id="polyline66345"/>
    </g>
    <path d="M 0,-12.5 A 12.5,12.5 0 0 1 12.5,0" stroke-width="0.5" stroke-linecap="round" fill="none" transform="rotate(20)" id="path66349"/>
    <path d="M 0,-12.5 A 12.5,12.5 0 0 1 12.5,0" stroke-width="0.5" stroke-linecap="round" fill="none" transform="rotate(43)" id="path66351"/>
    <path d="M 0,-12.5 A 12.5,12.5 0 0 0 -12.5,0" stroke-width="0.5" stroke-linecap="round" fill="none" transform="rotate(-20)" id="path66353"/>
    <path d="M 0,-12.5 A 12.5,12.5 0 0 0 -12.5,0" stroke-width="0.5" stroke-linecap="round" fill="none" transform="rotate(-43)" id="path66355"/>
  </g>
  <g style="font-weight:bold;font-size:8px;font-family:Roboto, sans-serif;letter-spacing:2px;fill:#333333" id="text66361" aria-label="SLOW">
    <path id="path67304" style="font-weight:bold;font-size:8px;font-family:Roboto, sans-serif;letter-spacing:2px;fill:#333333" d="m 84.457031,163.10782 q 0,-0.33203 -0.234375,-0.50781 -0.234375,-0.17969 -0.84375,-0.375 -0.609375,-0.19922 -0.964844,-0.39063 -0.96875,-0.52344 -0.96875,-1.41016 0,-0.46093 0.257813,-0.82031 0.261719,-0.36328 0.746094,-0.5664 0.488281,-0.20313 1.09375,-0.20313 0.609375,0 1.085937,0.22266 0.476563,0.21875 0.738281,0.62109 0.265625,0.40234 0.265625,0.91406 h -1.171875 q 0,-0.39062 -0.246093,-0.60547 -0.246094,-0.21875 -0.691407,-0.21875 -0.429687,0 -0.667968,0.1836 -0.238282,0.17969 -0.238282,0.47656 0,0.27734 0.277344,0.46484 0.28125,0.1875 0.824219,0.35157 1,0.30078 1.457031,0.74609 0.457031,0.44531 0.457031,1.10938 0,0.73828 -0.558593,1.16015 -0.558594,0.41797 -1.503907,0.41797 -0.65625,0 -1.195312,-0.23828 -0.539063,-0.24219 -0.824219,-0.66016 -0.28125,-0.41797 -0.28125,-0.96875 h 1.175781 q 0,0.94141 1.125,0.94141 0.417969,0 0.652344,-0.16797 0.234375,-0.17187 0.234375,-0.47656 z"/>
    <path id="path67306" style="font-weight:bold;font-size:8px;font-family:Roboto, sans-serif;letter-spacing:2px;fill:#333333" d="m 89.601562,163.6586 h 2.488282 v 0.94141 h -3.660157 v -5.6875 h 1.171875 z"/>
    <path id="path67308" style="font-weight:bold;font-size:8px;font-family:Roboto, sans-serif;letter-spacing:2px;fill:#333333" d="m 99.179687,161.88516 q 0,0.83985 -0.296875,1.47266 -0.296875,0.63281 -0.851562,0.97656 -0.550781,0.34375 -1.265625,0.34375 -0.707031,0 -1.261719,-0.33984 -0.554687,-0.33985 -0.859375,-0.96875 -0.304687,-0.63282 -0.308594,-1.45313 v -0.28125 q 0,-0.83984 0.300782,-1.47656 0.304687,-0.64063 0.855468,-0.98047 0.554688,-0.34375 1.265625,-0.34375 0.710938,0 1.261719,0.34375 0.554688,0.33984 0.855469,0.98047 0.304687,0.63672 0.304687,1.47266 z m -1.1875,-0.25781 q 0,-0.89453 -0.320312,-1.35938 -0.320313,-0.46484 -0.914063,-0.46484 -0.589843,0 -0.910156,0.46094 -0.320312,0.45703 -0.324219,1.34375 v 0.27734 q 0,0.8711 0.320313,1.35156 0.320312,0.48047 0.921875,0.48047 0.589844,0 0.90625,-0.46093 0.316406,-0.46485 0.320312,-1.35157 z"/>
    <path id="path67310" style="font-weight:bold;font-size:8px;font-family:Roboto, sans-serif;letter-spacing:2px;fill:#333333" d="m 106.46875,162.95938 0.76563,-4.04687 h 1.16796 l -1.26171,5.6875 h -1.17969 l -0.92578,-3.80469 -0.92578,3.80469 h -1.17969 l -1.26172,-5.6875 h 1.16797 l 0.76953,4.03906 0.9375,-4.03906 h 0.99219 z"/>
  </g>
  <g transform="translate(112,157.2)" id="g66363"/>
  <g transform="translate(35,194)" id="g66371">
    <g style="font-weight:bold;font-size:10.6667px;font-family:Roboto, sans-serif;letter-spacing:2px;fill:#333333" id="text66367" transform="rotate(-90,18,9)" aria-label="FM">
      <path id="path67299" style="font-weight:bold;font-size:10.6667px;font-family:Roboto, sans-serif;letter-spacing:2px;fill:#333333" d="M 5.2395999,-3.0989681 H 2.2395904 V 0 H 0.67708547 V -7.5833573 H 5.6146011 v 1.265629 H 2.2395904 v 1.9583395 h 3.0000095 z"/>
      <path id="path67301" style="font-weight:bold;font-size:10.6667px;font-family:Roboto, sans-serif;letter-spacing:2px;fill:#333333" d="m 10.572944,-7.5833573 1.947923,5.5000174 1.937506,-5.5000174 h 2.052089 V 0 H 14.942749 V -2.0729232 L 15.099,-5.6510595 13.052118,0 h -1.07292 l -2.041673,-5.6458512 0.156251,3.572928 V 0 H 8.5312706 v -7.5833573 z"/>
    </g>
    <g transform="translate(20)" id="g66369"/>
  </g>
  <g class="io-group" transform="translate(12,246)" id="g66397">
    <path class="input-background" d="m 5,0 h 61 c 2.77,0 5,2.23 5,5 v 37 c 0,2.77 -2.23,5 -5,5 H 5 C 2.23,47 0,44.77 0,42 V 5 C 0,2.23 2.23,0 5,0 Z" style="fill:#fafafa" transform="translate(10)" id="rect66373"/>
    <g transform="translate(10)" id="g66379">
      <g transform="translate(7,5)" id="g66375"/>
      <g class="input-label" style="font-weight:bold;font-size:8px;font-family:Roboto, sans-serif;letter-spacing:1px;fill:#333333" id="text66377" transform="translate(11,40)" aria-label="FM">
        <path id="path67269" style="font-weight:bold;font-size:8px;font-family:Roboto, sans-serif;letter-spacing:1px;fill:#333333" d="m 3.9296875,-2.3242188 h -2.25 V 0 h -1.171875 v -5.6875 h 3.703125 v 0.9492188 h -2.53125 v 1.4687499 h 2.25 z"/>
        <path id="path67271" style="font-weight:bold;font-size:8px;font-family:Roboto, sans-serif;letter-spacing:1px;fill:#333333" d="m 7.4296875,-5.6875 1.4609375,4.125 1.453125,-4.125 h 1.539063 V 0 H 10.707031 V -1.5546875 L 10.824219,-4.2382812 9.2890625,0 H 8.484375 l -1.53125,-4.234375 0.1171875,2.6796875 V 0 h -1.171875 v -5.6875 z"/>
      </g>
    </g>
    <g transform="translate(47)" id="g66385">
      <g transform="translate(3,5)" id="g66381"/>
      <g class="input-label" style="font-weight:bold;font-size:8px;font-family:Roboto, sans-serif;letter-spacing:1px;fill:#333333" id="text66383" transform="translate(0,40)" aria-label="DEPTH">
        <path id="path67274" style="font-weight:bold;font-size:8px;font-family:Roboto, sans-serif;letter-spacing:1px;fill:#333333" d="m 0.5078125,0 v -5.6875 h 1.75 q 0.75,0 1.3398438,0.3398438 0.5937499,0.3359375 0.9257812,0.9609375 0.3320312,0.6210937 0.3320312,1.4140624 v 0.2617188 q 0,0.7929688 -0.328125,1.4101563 Q 4.203125,-0.68359375 3.609375,-0.34375 3.015625,-0.00390625 2.2695313,0 Z m 1.171875,-4.7382812 v 3.79687495 h 0.5664063 q 0.6875,0 1.0507812,-0.44921875 0.3632813,-0.4492187 0.3710938,-1.2851563 v -0.3007812 q 0,-0.8671875 -0.359375,-1.3125 -0.359375,-0.4492187 -1.0507813,-0.4492187 z"/>
        <path id="path67276" style="font-weight:bold;font-size:8px;font-family:Roboto, sans-serif;letter-spacing:1px;fill:#333333" d="M 10.132813,-2.4648438 H 7.8828125 v 1.52343755 H 10.523438 V 0 H 6.7109375 v -5.6875 h 3.8046875 v 0.9492188 H 7.8828125 v 1.3554687 h 2.2500005 z"/>
        <path id="path67278" style="font-weight:bold;font-size:8px;font-family:Roboto, sans-serif;letter-spacing:1px;fill:#333333" d="M 13.382813,-2.0039063 V 0 h -1.171875 v -5.6875 h 2.21875 q 0.640625,0 1.125,0.234375 0.488281,0.234375 0.749999,0.6679688 0.261719,0.4296875 0.261719,0.9804687 0,0.8359375 -0.574218,1.3203125 -0.570313,0.4804687 -1.582032,0.4804687 z m 0,-0.9492187 h 1.046875 q 0.464843,0 0.707031,-0.21875 0.246094,-0.21875 0.246094,-0.625 0,-0.4179687 -0.246094,-0.6757812 -0.246094,-0.2578125 -0.679688,-0.265625 h -1.074218 z"/>
        <path id="path67280" style="font-weight:bold;font-size:8px;font-family:Roboto, sans-serif;letter-spacing:1px;fill:#333333" d="M 22.648437,-4.7382812 H 20.90625 V 0 h -1.171875 v -4.7382812 h -1.71875 V -5.6875 h 4.632812 z"/>
        <path id="path67282" style="font-weight:bold;font-size:8px;font-family:Roboto, sans-serif;letter-spacing:1px;fill:#333333" d="M 28.949219,0 H 27.777344 V -2.4375 H 25.492187 V 0 h -1.171875 v -5.6875 h 1.171875 v 2.3046875 h 2.285157 V -5.6875 h 1.171875 z"/>
      </g>
    </g>
    <g transform="translate(82)" id="g66395">
      <g transform="translate(8,9)" id="g66393">
        <g style="font-weight:bold;font-size:6.66667px;font-family:Roboto, sans-serif;letter-spacing:2px;fill:#333333" id="text66387" transform="translate(-1,-1)" aria-label="EXP">
          <path id="path67285" style="font-weight:bold;font-size:6.66667px;font-family:Roboto, sans-serif;letter-spacing:2px;fill:#333333" d="M 3.2747411,-2.0540374 H 1.3997403 v 1.26953182 H 3.6002621 V 0 H 0.42317729 V -4.7395856 H 3.5937517 v 0.791016 H 1.3997403 v 1.1295578 h 1.8750008 z"/>
          <path id="path67287" style="font-weight:bold;font-size:6.66667px;font-family:Roboto, sans-serif;letter-spacing:2px;fill:#333333" d="M 7.8691435,-3.1054702 8.7578158,-4.7395856 H 9.8808633 L 8.5006543,-2.3893241 9.9166706,0 H 8.7806023 L 7.8691435,-1.660157 6.9576848,0 H 5.8216165 l 1.4160163,-2.3893241 -1.380209,-2.3502615 h 1.1230474 z"/>
          <path id="path67289" style="font-weight:bold;font-size:6.66667px;font-family:Roboto, sans-serif;letter-spacing:2px;fill:#333333" d="M 13.381516,-1.6699227 V 0 h -0.976563 v -4.7395856 h 1.848959 q 0.533854,0 0.9375,0.1953126 0.406901,0.1953126 0.625001,0.5566409 0.218099,0.3580731 0.218099,0.8170577 0,0.6966149 -0.478516,1.1002609 -0.475261,0.4003908 -1.31836,0.4003908 z m 0,-0.791016 h 0.872396 q 0.38737,0 0.589193,-0.1822917 0.205078,-0.1822918 0.205078,-0.5208336 0,-0.3483075 -0.205078,-0.5631513 -0.205078,-0.2148439 -0.566407,-0.2213543 h -0.895182 z"/>
        </g>
        <g transform="translate(0,2)" id="g66389"/>
        <g style="font-weight:bold;font-size:6.66667px;font-family:Roboto, sans-serif;letter-spacing:2px;fill:#333333" id="text66391" transform="translate(0,34)" aria-label="LIN">
          <path id="path67292" style="font-weight:bold;font-size:6.66667px;font-family:Roboto, sans-serif;letter-spacing:2px;fill:#333333" d="M 1.3997403,-0.78450558 H 3.4733089 V 0 H 0.42317729 V -4.7395856 H 1.3997403 Z"/>
          <path id="path67294" style="font-weight:bold;font-size:6.66667px;font-family:Roboto, sans-serif;letter-spacing:2px;fill:#333333" d="m 7.0683617,0 h -0.976563 v -4.7395856 h 0.976563 z"/>
          <path id="path67296" style="font-weight:bold;font-size:6.66667px;font-family:Roboto, sans-serif;letter-spacing:2px;fill:#333333" d="M 13.824224,0 H 12.847661 L 10.946618,-3.1184911 V 0 H 9.9700551 v -4.7395856 h 0.9765629 l 1.904298,3.1250015 v -3.1250015 h 0.973308 z"/>
        </g>
      </g>
    </g>
  </g>
  <g transform="translate(49,188)" id="use66401">
    <g transform="translate(25,25)" id="g67083">
      <g style="font-weight:bold;font-size:8px;font-family:Roboto, sans-serif;fill:#333333" id="text67061" transform="translate(-16,23.78461)" aria-label="0">
        <path id="path67255" style="font-weight:bold;font-size:8px;font-family:Roboto, sans-serif;fill:#333333" d="m 4.2148437,-2.3515625 q 0,1.1796875 -0.4882812,1.8046875 -0.4882812,0.625 -1.4296875,0.625 -0.9296875,0 -1.421875,-0.61328125 Q 0.3828125,-1.1484375 0.37109375,-2.2929688 v -1.046875 q 0,-1.1914062 0.4921875,-1.8085937 Q 1.359375,-5.765625 2.2890625,-5.765625 q 0.9296875,0 1.421875,0.6132813 0.4921875,0.609375 0.5039062,1.7539062 z M 3.0859375,-3.5 q 0,-0.7070312 -0.1953125,-1.0273437 -0.1914062,-0.3242188 -0.6015625,-0.3242188 -0.3984375,0 -0.5898438,0.3085938 Q 1.5117187,-4.2382812 1.5,-3.5859375 v 1.3828125 q 0,0.6953125 0.1875,1.0351563 0.1914062,0.33593745 0.609375,0.33593745 0.4140625,0 0.5976563,-0.32421875 0.1835937,-0.3242187 0.1914062,-0.9921875 z"/>
      </g>
      <path d="M 0,0 H 3" style="stroke:#333333;stroke-width:0.5" transform="rotate(150,-11,2.9474411)" id="polyline67063"/>
      <path d="M 0,0 H 3" style="stroke:#333333;stroke-width:0.5" transform="rotate(180,-11,0)" id="polyline67065"/>
      <path d="M 0,0 H 3" style="stroke:#333333;stroke-width:0.5" transform="rotate(-150,-11,-2.9474411)" id="polyline67067"/>
      <path d="M 0,0 H 3" style="stroke:#333333;stroke-width:0.5" transform="rotate(-120,-11,-6.350853)" id="polyline67069"/>
      <path d="M 0,0 H 3" style="stroke:#333333;stroke-width:0.5" transform="rotate(-90,-11,-11)" id="polyline67071"/>
      <path d="M 0,0 H 3" style="stroke:#333333;stroke-width:0.5" transform="rotate(-60,-11,-19.052559)" id="polyline67073"/>
      <path d="M 0,0 H 3" style="stroke:#333333;stroke-width:0.5" transform="rotate(-30,-11,-41.052559)" id="polyline67075"/>
      <path d="M 0,0 H 3" style="stroke:#333333;stroke-width:0.5" transform="translate(22)" id="polyline67077"/>
      <path d="M 0,0 H 3" style="stroke:#333333;stroke-width:0.5" transform="rotate(30,-11,41.052559)" id="polyline67079"/>
      <path d="M 0,0 H 4" style="stroke:#333333;stroke-width:1" transform="rotate(60,-11,19.052559)" id="polyline67081"/>
    </g>
  </g>
  <path class="output-background" d="m 5,0 h 183 c 2.77,0 5,2.23 5,5 v 37 c 0,2.77 -2.23,5 -5,5 H 5 C 2.23,47 0,44.77 0,42 V 5 C 0,2.23 2.23,0 5,0 Z" style="fill:#bbbbbb" transform="translate(97 313)" id="rect66403"/>
  <path class="input-background" d="m 145,30 h 20 c 2.77,0 5,2.23 5,5 v 320 c 0,2.77 -2.23,5 -5,5 h -20 c -2.77,0 -5,-2.23 -5,-5 V 35 c 0,-2.77 2.23,-5 5,-5 z" style="fill:#fafafa" id="rect66405"/>
  <g transform="translate(149,36)" id="g66409">
    <path d="M 0,4 V 0 h 6 v 8 h 6 V 4" style="fill:none;stroke:#333333;stroke-width:1" id="polyline66407"/>
  </g>
  <g transform="translate(143,60)" id="g66417">
    <g transform="translate(4)" id="g66411"/>
    <g style="font-weight:bold;font-size:8px;font-family:Roboto, sans-serif;letter-spacing:2px;fill:#333333" id="text66413" transform="translate(5,30)" aria-label="PW">
      <path id="path67247" style="font-weight:bold;font-size:8px;font-family:Roboto, sans-serif;letter-spacing:2px;fill:#333333" d="M 1.6796875,-2.0039063 V 0 h -1.171875 v -5.6875 h 2.21875 q 0.640625,0 1.125,0.234375 0.4882812,0.234375 0.75,0.6679688 0.2617187,0.4296875 0.2617187,0.9804687 0,0.8359375 -0.5742187,1.3203125 -0.5703125,0.4804687 -1.5820312,0.4804687 z m 0,-0.9492187 h 1.046875 q 0.4648438,0 0.7070313,-0.21875 0.2460937,-0.21875 0.2460937,-0.625 0,-0.4179687 -0.2460937,-0.6757812 Q 3.1875,-4.7304687 2.7539063,-4.7382812 H 1.6796875 Z"/>
      <path id="path67249" style="font-weight:bold;font-size:8px;font-family:Roboto, sans-serif;letter-spacing:2px;fill:#333333" d="M 12.09375,-1.640625 12.859375,-5.6875 h 1.167969 L 12.765625,0 H 11.585938 L 10.660156,-3.8046875 9.734375,0 H 8.5546875 L 7.2929687,-5.6875 H 8.4609375 L 9.2304688,-1.6484375 10.167969,-5.6875 h 0.992187 z"/>
    </g>
    <g transform="translate(0,35)" id="g66415"/>
  </g>
  <g transform="translate(143,148)" id="g66425">
    <g transform="translate(4)" id="g66419"/>
    <g style="font-weight:bold;font-size:8px;font-family:Roboto, sans-serif;letter-spacing:2px;fill:#333333" id="text66421" transform="translate(2,30)" aria-label="PHS">
      <path id="path67240" style="font-weight:bold;font-size:8px;font-family:Roboto, sans-serif;letter-spacing:2px;fill:#333333" d="M 1.6796875,-2.0039063 V 0 h -1.171875 v -5.6875 h 2.21875 q 0.640625,0 1.125,0.234375 0.4882812,0.234375 0.75,0.6679688 0.2617187,0.4296875 0.2617187,0.9804687 0,0.8359375 -0.5742187,1.3203125 -0.5703125,0.4804687 -1.5820312,0.4804687 z m 0,-0.9492187 h 1.046875 q 0.4648438,0 0.7070313,-0.21875 0.2460937,-0.21875 0.2460937,-0.625 0,-0.4179687 -0.2460937,-0.6757812 Q 3.1875,-4.7304687 2.7539063,-4.7382812 H 1.6796875 Z"/>
      <path id="path67242" style="font-weight:bold;font-size:8px;font-family:Roboto, sans-serif;letter-spacing:2px;fill:#333333" d="M 12.292969,0 H 11.121094 V -2.4375 H 8.8359375 V 0 h -1.171875 v -5.6875 h 1.171875 v 2.3046875 H 11.121094 V -5.6875 h 1.171875 z"/>
      <path id="path67244" style="font-weight:bold;font-size:8px;font-family:Roboto, sans-serif;letter-spacing:2px;fill:#333333" d="m 18.269531,-1.4921875 q 0,-0.3320312 -0.234375,-0.5078125 -0.234375,-0.1796875 -0.84375,-0.375 -0.609375,-0.1992188 -0.964844,-0.390625 -0.968749,-0.5234375 -0.968749,-1.4101562 0,-0.4609375 0.257812,-0.8203125 0.261719,-0.3632813 0.746094,-0.5664063 0.488281,-0.203125 1.09375,-0.203125 0.609375,0 1.085937,0.2226563 0.476563,0.21875 0.738281,0.6210937 0.265625,0.4023438 0.265625,0.9140625 h -1.171875 q 0,-0.390625 -0.246093,-0.6054687 -0.246094,-0.21875 -0.691407,-0.21875 -0.429687,0 -0.667968,0.1835937 -0.238282,0.1796875 -0.238282,0.4765625 0,0.2773437 0.277344,0.4648437 0.28125,0.1875 0.824219,0.3515625 1,0.3007813 1.457031,0.7460938 0.457031,0.4453125 0.457031,1.109375 0,0.73828125 -0.558593,1.16015625 -0.558594,0.41796875 -1.503907,0.41796875 -0.65625,0 -1.195312,-0.23828125 -0.539062,-0.2421875 -0.824219,-0.66015625 -0.28125,-0.4179687 -0.28125,-0.96875 h 1.175781 q 0,0.94140625 1.125,0.94140625 0.417969,0 0.652344,-0.16796875 0.234375,-0.171875 0.234375,-0.4765625 z"/>
    </g>
    <g transform="translate(0,35)" id="g66423"/>
  </g>
  <g transform="translate(143,237)" id="g66433">
    <g transform="translate(4)" id="g66427"/>
    <g style="font-weight:bold;font-size:8px;font-family:Roboto, sans-serif;letter-spacing:2px;fill:#333333" id="text66429" transform="translate(2.5,30)" aria-label="MIX">
      <path id="path67233" style="font-weight:bold;font-size:8px;font-family:Roboto, sans-serif;letter-spacing:2px;fill:#333333" d="M 2.0390625,-5.6875 3.5,-1.5625 4.953125,-5.6875 H 6.4921875 V 0 H 5.3164062 V -1.5546875 L 5.4335937,-4.2382812 3.8984375,0 H 3.09375 L 1.5625,-4.234375 1.6796875,-1.5546875 V 0 h -1.171875 v -5.6875 z"/>
      <path id="path67235" style="font-weight:bold;font-size:8px;font-family:Roboto, sans-serif;letter-spacing:2px;fill:#333333" d="M 10.769531,0 H 9.5976563 v -5.6875 h 1.1718747 z"/>
      <path id="path67237" style="font-weight:bold;font-size:8px;font-family:Roboto, sans-serif;letter-spacing:2px;fill:#333333" d="M 15.949219,-3.7265625 17.015625,-5.6875 h 1.347656 L 16.707031,-2.8671875 18.40625,0 H 17.042969 L 15.949219,-1.9921875 14.855469,0 H 13.492188 L 15.191406,-2.8671875 13.535156,-5.6875 h 1.347657 z"/>
    </g>
    <g transform="translate(0,35)" id="g66431"/>
  </g>
  <g class="io-group" transform="translate(140,318)" id="g66445">
    <path class="output-background-filler" d="M 0,0 H 32 V 5 H 0 Z" style="fill:#bbbbbb" transform="translate(-1,-5)" id="rect66435"/>
    <path class="output-background" d="m 5,0 h 22 c 2.77,0 5,2.23 5,5 v 37 c 0,2.77 -2.23,5 -5,5 H 5 C 2.23,47 0,44.77 0,42 V 5 C 0,2.23 2.23,0 5,0 Z" style="fill:#bbbbbb" transform="translate(-1,-5)" id="rect66437"/>
    <g transform="translate(3)" id="g66443">
      <g id="g66439"/>
      <g class="output-label" style="font-weight:bold;font-size:8px;font-family:Roboto, sans-serif;letter-spacing:2px;fill:#333333" id="text66441" transform="translate(2,36)" aria-label="OUT">
        <path id="path67226" style="font-weight:bold;font-size:8px;font-family:Roboto, sans-serif;letter-spacing:2px;fill:#333333" d="m 5.1796875,-2.7148438 q 0,0.8398438 -0.296875,1.4726563 -0.296875,0.6328125 -0.8515625,0.9765625 -0.5507812,0.34375 -1.265625,0.34375 -0.7070312,0 -1.2617188,-0.33984375 Q 0.94921875,-0.6015625 0.64453125,-1.2304687 0.33984375,-1.8632812 0.3359375,-2.6835938 v -0.28125 q 0,-0.8398437 0.30078125,-1.4765624 0.3046875,-0.640625 0.85546875,-0.9804688 0.5546875,-0.34375 1.265625,-0.34375 0.7109375,0 1.2617187,0.34375 0.5546875,0.3398438 0.8554688,0.9804688 0.3046875,0.6367187 0.3046875,1.4726562 z m -1.1875,-0.2578125 q 0,-0.8945312 -0.3203125,-1.3593749 -0.3203125,-0.4648438 -0.9140625,-0.4648438 -0.5898437,0 -0.9101563,0.4609375 -0.3203125,0.4570312 -0.3242187,1.34375 v 0.2773437 q 0,0.8710938 0.3203125,1.3515626 0.3203125,0.4804687 0.921875,0.4804687 0.5898438,0 0.90625,-0.4609375 0.3164063,-0.4648437 0.3203125,-1.3515625 z"/>
        <path id="path67228" style="font-weight:bold;font-size:8px;font-family:Roboto, sans-serif;letter-spacing:2px;fill:#333333" d="m 12.34375,-5.6875 v 3.7460938 q 0,0.9335937 -0.585937,1.47656245 -0.582032,0.54296875 -1.59375,0.54296875 -0.9960942,0 -1.5820317,-0.52734375 Q 7.9960937,-0.9765625 7.984375,-1.8984375 V -5.6875 H 9.15625 v 3.7539063 q 0,0.5585937 0.265625,0.8164062 0.2695313,0.25390625 0.742188,0.25390625 0.988281,0 1.003906,-1.03906245 V -5.6875 Z"/>
        <path id="path67230" style="font-weight:bold;font-size:8px;font-family:Roboto, sans-serif;letter-spacing:2px;fill:#333333" d="M 19.585937,-4.7382812 H 17.84375 V 0 h -1.171875 v -4.7382812 h -1.71875 V -5.6875 h 4.632812 z"/>
      </g>
    </g>
  </g>
  <g transform="translate(155,68)" id="g66461">
    <g transform="rotate(-90,-5,-5)" id="g66451">
      <path d="M 0,0 H 4" style="stroke:#333333;stroke-width:1" id="polyline66449"/>
    </g>
    <path d="M 0,-12.5 A 12.5,12.5 0 0 1 12.5,0" stroke-width="0.5" stroke-linecap="round" fill="none" transform="rotate(20)" id="path66453"/>
    <path d="M 0,-12.5 A 12.5,12.5 0 0 1 12.5,0" stroke-width="0.5" stroke-linecap="round" fill="none" transform="rotate(43)" id="path66455"/>
    <path d="M 0,-12.5 A 12.5,12.5 0 0 0 -12.5,0" stroke-width="0.5" stroke-linecap="round" fill="none" transform="rotate(-20)" id="path66457"/>
    <path d="M 0,-12.5 A 12.5,12.5 0 0 0 -12.5,0" stroke-width="0.5" stroke-linecap="round" fill="none" transform="rotate(-43)" id="path66459"/>
  </g>
  <g transform="translate(155,156)" id="g66477">
    <g transform="rotate(-90,-5,-5)" id="g66467">
      <path d="M 0,0 H 4" style="stroke:#333333;stroke-width:1" id="polyline66465"/>
    </g>
    <path d="M 0,-12.5 A 12.5,12.5 0 0 1 12.5,0" stroke-width="0.5" stroke-linecap="round" fill="none" transform="rotate(20)" id="path66469"/>
    <path d="M 0,-12.5 A 12.5,12.5 0 0 1 12.5,0" stroke-width="0.5" stroke-linecap="round" fill="none" transform="rotate(43)" id="path66471"/>
    <path d="M 0,-12.5 A 12.5,12.5 0 0 0 -12.5,0" stroke-width="0.5" stroke-linecap="round" fill="none" transform="rotate(-20)" id="path66473"/>
    <path d="M 0,-12.5 A 12.5,12.5 0 0 0 -12.5,0" stroke-width="0.5" stroke-linecap="round" fill="none" transform="rotate(-43)" id="path66475"/>
  </g>
  <g transform="translate(155,245)" id="g66493">
    <g transform="rotate(120,-5,2.8867513)" id="g66483">
      <path d="M 0,0 H 4" style="stroke:#333333;stroke-width:1" id="polyline66481"/>
    </g>
    <path d="M 0,-12.5 A 12.5,12.5 0 0 1 12.5,0" stroke-width="0.5" stroke-linecap="round" fill="none" id="path66485"/>
    <path d="M 0,-12.5 A 12.5,12.5 0 0 1 12.5,0" stroke-width="0.5" stroke-linecap="round" fill="none" transform="rotate(43)" id="path66487"/>
    <path d="M 0,-12.5 A 12.5,12.5 0 0 0 -12.5,0" stroke-width="0.5" stroke-linecap="round" fill="none" id="path66489"/>
    <path d="M 0,-12.5 A 12.5,12.5 0 0 0 -12.5,0" stroke-width="0.5" stroke-linecap="round" fill="none" transform="rotate(-43)" id="path66491"/>
  </g>
  <path class="input-background" d="m 185,30 h 20 c 2.77,0 5,2.23 5,5 v 320 c 0,2.77 -2.23,5 -5,5 h -20 c -2.77,0 -5,-2.23 -5,-5 V 35 c 0,-2.77 2.23,-5 5,-5 z" style="fill:#fafafa" id="rect66497"/>
  <g transform="translate(189,36)" id="g66501">
    <path d="M 0,8 12,0 v 8" style="fill:none;stroke:#333333;stroke-width:1" id="polyline66499"/>
  </g>
  <g transform="translate(183,60)" id="g66509">
    <g transform="translate(4)" id="g66503"/>
    <g style="font-weight:bold;font-size:8px;font-family:Roboto, sans-serif;letter-spacing:2px;fill:#333333" id="text66505" transform="translate(2.5,30)" aria-label="SAT">
      <path id="path67212" style="font-weight:bold;font-size:8px;font-family:Roboto, sans-serif;letter-spacing:2px;fill:#333333" d="m 3.4570313,-1.4921875 q 0,-0.3320312 -0.234375,-0.5078125 -0.234375,-0.1796875 -0.84375,-0.375 -0.6093751,-0.1992188 -0.9648438,-0.390625 -0.96875,-0.5234375 -0.96875,-1.4101562 0,-0.4609375 0.2578125,-0.8203125 Q 0.96484375,-5.359375 1.4492187,-5.5625 1.9375,-5.765625 2.5429688,-5.765625 q 0.609375,0 1.0859375,0.2226563 0.4765624,0.21875 0.7382812,0.6210937 0.265625,0.4023438 0.265625,0.9140625 h -1.171875 q 0,-0.390625 -0.2460937,-0.6054687 -0.2460938,-0.21875 -0.6914063,-0.21875 -0.4296875,0 -0.6679688,0.1835937 -0.2382812,0.1796875 -0.2382812,0.4765625 0,0.2773437 0.2773437,0.4648437 0.2812501,0.1875 0.8242188,0.3515625 1,0.3007813 1.4570312,0.7460938 0.4570313,0.4453125 0.4570313,1.109375 0,0.73828125 -0.5585938,1.16015625 Q 3.515625,0.078125 2.5703125,0.078125 q -0.65625,0 -1.1953125,-0.23828125 -0.5390625,-0.2421875 -0.82421875,-0.66015625 -0.28125,-0.4179687 -0.28125,-0.96875 H 1.4453125 q 0,0.94140625 1.125,0.94140625 0.4179688,0 0.6523438,-0.16796875 0.234375,-0.171875 0.234375,-0.4765625 z"/>
      <path id="path67214" style="font-weight:bold;font-size:8px;font-family:Roboto, sans-serif;letter-spacing:2px;fill:#333333" d="M 10.640625,-1.171875 H 8.5859375 L 8.1953125,0 H 6.9492187 L 9.0664063,-5.6875 H 10.152344 L 12.28125,0 H 11.035156 Z M 8.9023438,-2.1210938 H 10.324219 L 9.609375,-4.25 Z"/>
      <path id="path67216" style="font-weight:bold;font-size:8px;font-family:Roboto, sans-serif;letter-spacing:2px;fill:#333333" d="M 18.632812,-4.7382812 H 16.890625 V 0 H 15.71875 V -4.7382812 H 14 V -5.6875 h 4.632812 z"/>
    </g>
    <g transform="translate(0,35)" id="g66507"/>
  </g>
  <g transform="translate(183,148)" id="g66517">
    <g transform="translate(4)" id="g66511"/>
    <g style="font-weight:bold;font-size:8px;font-family:Roboto, sans-serif;letter-spacing:2px;fill:#333333" id="text66513" transform="translate(2,30)" aria-label="PHS">
      <path id="path67205" style="font-weight:bold;font-size:8px;font-family:Roboto, sans-serif;letter-spacing:2px;fill:#333333" d="M 1.6796875,-2.0039063 V 0 h -1.171875 v -5.6875 h 2.21875 q 0.640625,0 1.125,0.234375 0.4882812,0.234375 0.75,0.6679688 0.2617187,0.4296875 0.2617187,0.9804687 0,0.8359375 -0.5742187,1.3203125 -0.5703125,0.4804687 -1.5820312,0.4804687 z m 0,-0.9492187 h 1.046875 q 0.4648438,0 0.7070313,-0.21875 0.2460937,-0.21875 0.2460937,-0.625 0,-0.4179687 -0.2460937,-0.6757812 Q 3.1875,-4.7304687 2.7539063,-4.7382812 H 1.6796875 Z"/>
      <path id="path67207" style="font-weight:bold;font-size:8px;font-family:Roboto, sans-serif;letter-spacing:2px;fill:#333333" d="M 12.292969,0 H 11.121094 V -2.4375 H 8.8359375 V 0 h -1.171875 v -5.6875 h 1.171875 v 2.3046875 H 11.121094 V -5.6875 h 1.171875 z"/>
      <path id="path67209" style="font-weight:bold;font-size:8px;font-family:Roboto, sans-serif;letter-spacing:2px;fill:#333333" d="m 18.269531,-1.4921875 q 0,-0.3320312 -0.234375,-0.5078125 -0.234375,-0.1796875 -0.84375,-0.375 -0.609375,-0.1992188 -0.964844,-0.390625 -0.968749,-0.5234375 -0.968749,-1.4101562 0,-0.4609375 0.257812,-0.8203125 0.261719,-0.3632813 0.746094,-0.5664063 0.488281,-0.203125 1.09375,-0.203125 0.609375,0 1.085937,0.2226563 0.476563,0.21875 0.738281,0.6210937 0.265625,0.4023438 0.265625,0.9140625 h -1.171875 q 0,-0.390625 -0.246093,-0.6054687 -0.246094,-0.21875 -0.691407,-0.21875 -0.429687,0 -0.667968,0.1835937 -0.238282,0.1796875 -0.238282,0.4765625 0,0.2773437 0.277344,0.4648437 0.28125,0.1875 0.824219,0.3515625 1,0.3007813 1.457031,0.7460938 0.457031,0.4453125 0.457031,1.109375 0,0.73828125 -0.558593,1.16015625 -0.558594,0.41796875 -1.503907,0.41796875 -0.65625,0 -1.195312,-0.23828125 -0.539062,-0.2421875 -0.824219,-0.66015625 -0.28125,-0.4179687 -0.28125,-0.96875 h 1.175781 q 0,0.94140625 1.125,0.94140625 0.417969,0 0.652344,-0.16796875 0.234375,-0.171875 0.234375,-0.4765625 z"/>
    </g>
    <g transform="translate(0,35)" id="g66515"/>
  </g>
  <g transform="translate(183,237)" id="g66525">
    <g transform="translate(4)" id="g66519"/>
    <g style="font-weight:bold;font-size:8px;font-family:Roboto, sans-serif;letter-spacing:2px;fill:#333333" id="text66521" transform="translate(2.5,30)" aria-label="MIX">
      <path id="path67198" style="font-weight:bold;font-size:8px;font-family:Roboto, sans-serif;letter-spacing:2px;fill:#333333" d="M 2.0390625,-5.6875 3.5,-1.5625 4.953125,-5.6875 H 6.4921875 V 0 H 5.3164062 V -1.5546875 L 5.4335937,-4.2382812 3.8984375,0 H 3.09375 L 1.5625,-4.234375 1.6796875,-1.5546875 V 0 h -1.171875 v -5.6875 z"/>
      <path id="path67200" style="font-weight:bold;font-size:8px;font-family:Roboto, sans-serif;letter-spacing:2px;fill:#333333" d="M 10.769531,0 H 9.5976563 v -5.6875 h 1.1718747 z"/>
      <path id="path67202" style="font-weight:bold;font-size:8px;font-family:Roboto, sans-serif;letter-spacing:2px;fill:#333333" d="M 15.949219,-3.7265625 17.015625,-5.6875 h 1.347656 L 16.707031,-2.8671875 18.40625,0 H 17.042969 L 15.949219,-1.9921875 14.855469,0 H 13.492188 L 15.191406,-2.8671875 13.535156,-5.6875 h 1.347657 z"/>
    </g>
    <g transform="translate(0,35)" id="g66523"/>
  </g>
  <g class="io-group" transform="translate(180,318)" id="g66537">
    <path class="output-background-filler" d="M 0,0 H 32 V 5 H 0 Z" style="fill:#bbbbbb" transform="translate(-1,-5)" id="rect66527"/>
    <path class="output-background" d="m 5,0 h 22 c 2.77,0 5,2.23 5,5 v 37 c 0,2.77 -2.23,5 -5,5 H 5 C 2.23,47 0,44.77 0,42 V 5 C 0,2.23 2.23,0 5,0 Z" style="fill:#bbbbbb" transform="translate(-1,-5)" id="rect66529"/>
    <g transform="translate(3)" id="g66535">
      <g id="g66531"/>
      <g class="output-label" style="font-weight:bold;font-size:8px;font-family:Roboto, sans-serif;letter-spacing:2px;fill:#333333" id="text66533" transform="translate(2,36)" aria-label="OUT">
        <path id="path67191" style="font-weight:bold;font-size:8px;font-family:Roboto, sans-serif;letter-spacing:2px;fill:#333333" d="m 5.1796875,-2.7148438 q 0,0.8398438 -0.296875,1.4726563 -0.296875,0.6328125 -0.8515625,0.9765625 -0.5507812,0.34375 -1.265625,0.34375 -0.7070312,0 -1.2617188,-0.33984375 Q 0.94921875,-0.6015625 0.64453125,-1.2304687 0.33984375,-1.8632812 0.3359375,-2.6835938 v -0.28125 q 0,-0.8398437 0.30078125,-1.4765624 0.3046875,-0.640625 0.85546875,-0.9804688 0.5546875,-0.34375 1.265625,-0.34375 0.7109375,0 1.2617187,0.34375 0.5546875,0.3398438 0.8554688,0.9804688 0.3046875,0.6367187 0.3046875,1.4726562 z m -1.1875,-0.2578125 q 0,-0.8945312 -0.3203125,-1.3593749 -0.3203125,-0.4648438 -0.9140625,-0.4648438 -0.5898437,0 -0.9101563,0.4609375 -0.3203125,0.4570312 -0.3242187,1.34375 v 0.2773437 q 0,0.8710938 0.3203125,1.3515626 0.3203125,0.4804687 0.921875,0.4804687 0.5898438,0 0.90625,-0.4609375 0.3164063,-0.4648437 0.3203125,-1.3515625 z"/>
        <path id="path67193" style="font-weight:bold;font-size:8px;font-family:Roboto, sans-serif;letter-spacing:2px;fill:#333333" d="m 12.34375,-5.6875 v 3.7460938 q 0,0.9335937 -0.585937,1.47656245 -0.582032,0.54296875 -1.59375,0.54296875 -0.9960942,0 -1.5820317,-0.52734375 Q 7.9960937,-0.9765625 7.984375,-1.8984375 V -5.6875 H 9.15625 v 3.7539063 q 0,0.5585937 0.265625,0.8164062 0.2695313,0.25390625 0.742188,0.25390625 0.988281,0 1.003906,-1.03906245 V -5.6875 Z"/>
        <path id="path67195" style="font-weight:bold;font-size:8px;font-family:Roboto, sans-serif;letter-spacing:2px;fill:#333333" d="M 19.585937,-4.7382812 H 17.84375 V 0 h -1.171875 v -4.7382812 h -1.71875 V -5.6875 h 4.632812 z"/>
      </g>
    </g>
  </g>
  <g transform="translate(195,68)" id="g66553">
    <g transform="rotate(120,-5,2.8867513)" id="g66543">
      <path d="M 0,0 H 4" style="stroke:#333333;stroke-width:1" id="polyline66541"/>
    </g>
    <path d="M 0,-12.5 A 12.5,12.5 0 0 1 12.5,0" stroke-width="0.5" stroke-linecap="round" fill="none" id="path66545"/>
    <path d="M 0,-12.5 A 12.5,12.5 0 0 1 12.5,0" stroke-width="0.5" stroke-linecap="round" fill="none" transform="rotate(43)" id="path66547"/>
    <path d="M 0,-12.5 A 12.5,12.5 0 0 0 -12.5,0" stroke-width="0.5" stroke-linecap="round" fill="none" id="path66549"/>
    <path d="M 0,-12.5 A 12.5,12.5 0 0 0 -12.5,0" stroke-width="0.5" stroke-linecap="round" fill="none" transform="rotate(-43)" id="path66551"/>
  </g>
  <g transform="translate(195,156)" id="g66569">
    <g transform="rotate(-90,-5,-5)" id="g66559">
      <path d="M 0,0 H 4" style="stroke:#333333;stroke-width:1" id="polyline66557"/>
    </g>
    <path d="M 0,-12.5 A 12.5,12.5 0 0 1 12.5,0" stroke-width="0.5" stroke-linecap="round" fill="none" transform="rotate(20)" id="path66561"/>
    <path d="M 0,-12.5 A 12.5,12.5 0 0 1 12.5,0" stroke-width="0.5" stroke-linecap="round" fill="none" transform="rotate(43)" id="path66563"/>
    <path d="M 0,-12.5 A 12.5,12.5 0 0 0 -12.5,0" stroke-width="0.5" stroke-linecap="round" fill="none" transform="rotate(-20)" id="path66565"/>
    <path d="M 0,-12.5 A 12.5,12.5 0 0 0 -12.5,0" stroke-width="0.5" stroke-linecap="round" fill="none" transform="rotate(-43)" id="path66567"/>
  </g>
  <g transform="translate(195,245)" id="g66585">
    <g transform="rotate(120,-5,2.8867513)" id="g66575">
      <path d="M 0,0 H 4" style="stroke:#333333;stroke-width:1" id="polyline66573"/>
    </g>
    <path d="M 0,-12.5 A 12.5,12.5 0 0 1 12.5,0" stroke-width="0.5" stroke-linecap="round" fill="none" id="path66577"/>
    <path d="M 0,-12.5 A 12.5,12.5 0 0 1 12.5,0" stroke-width="0.5" stroke-linecap="round" fill="none" transform="rotate(43)" id="path66579"/>
    <path d="M 0,-12.5 A 12.5,12.5 0 0 0 -12.5,0" stroke-width="0.5" stroke-linecap="round" fill="none" id="path66581"/>
    <path d="M 0,-12.5 A 12.5,12.5 0 0 0 -12.5,0" stroke-width="0.5" stroke-linecap="round" fill="none" transform="rotate(-43)" id="path66583"/>
  </g>
  <path class="input-background" d="m 225,30 h 20 c 2.77,0 5,2.23 5,5 v 320 c 0,2.77 -2.23,5 -5,5 h -20 c -2.77,0 -5,-2.23 -5,-5 V 35 c 0,-2.77 2.23,-5 5,-5 z" style="fill:#fafafa" id="rect66589"/>
  <g transform="translate(229,36)" id="g66593">
    <path d="M 0,4 3,0 9,8 12,4" style="fill:none;stroke:#333333;stroke-width:1" id="polyline66591"/>
  </g>
  <g transform="translate(223,60)" id="g66601">
    <g transform="translate(4)" id="g66595"/>
    <g style="font-weight:bold;font-size:8px;font-family:Roboto, sans-serif;letter-spacing:2px;fill:#333333" id="text66597" transform="translate(1.5,30)" aria-label="SAM">
      <path id="path67177" style="font-weight:bold;font-size:8px;font-family:Roboto, sans-serif;letter-spacing:2px;fill:#333333" d="m 3.4570313,-1.4921875 q 0,-0.3320312 -0.234375,-0.5078125 -0.234375,-0.1796875 -0.84375,-0.375 -0.6093751,-0.1992188 -0.9648438,-0.390625 -0.96875,-0.5234375 -0.96875,-1.4101562 0,-0.4609375 0.2578125,-0.8203125 Q 0.96484375,-5.359375 1.4492187,-5.5625 1.9375,-5.765625 2.5429688,-5.765625 q 0.609375,0 1.0859375,0.2226563 0.4765624,0.21875 0.7382812,0.6210937 0.265625,0.4023438 0.265625,0.9140625 h -1.171875 q 0,-0.390625 -0.2460937,-0.6054687 -0.2460938,-0.21875 -0.6914063,-0.21875 -0.4296875,0 -0.6679688,0.1835937 -0.2382812,0.1796875 -0.2382812,0.4765625 0,0.2773437 0.2773437,0.4648437 0.2812501,0.1875 0.8242188,0.3515625 1,0.3007813 1.4570312,0.7460938 0.4570313,0.4453125 0.4570313,1.109375 0,0.73828125 -0.5585938,1.16015625 Q 3.515625,0.078125 2.5703125,0.078125 q -0.65625,0 -1.1953125,-0.23828125 -0.5390625,-0.2421875 -0.82421875,-0.66015625 -0.28125,-0.4179687 -0.28125,-0.96875 H 1.4453125 q 0,0.94140625 1.125,0.94140625 0.4179688,0 0.6523438,-0.16796875 0.234375,-0.171875 0.234375,-0.4765625 z"/>
      <path id="path67179" style="font-weight:bold;font-size:8px;font-family:Roboto, sans-serif;letter-spacing:2px;fill:#333333" d="M 10.640625,-1.171875 H 8.5859375 L 8.1953125,0 H 6.9492187 L 9.0664063,-5.6875 H 10.152344 L 12.28125,0 H 11.035156 Z M 8.9023438,-2.1210938 H 10.324219 L 9.609375,-4.25 Z"/>
      <path id="path67181" style="font-weight:bold;font-size:8px;font-family:Roboto, sans-serif;letter-spacing:2px;fill:#333333" d="m 16.351562,-5.6875 1.460938,4.125 1.453125,-4.125 h 1.539062 V 0 H 19.628906 V -1.5546875 L 19.746094,-4.2382812 18.210937,0 H 17.40625 L 15.875,-4.234375 15.992188,-1.5546875 V 0 h -1.171875 v -5.6875 z"/>
    </g>
    <g transform="translate(0,35)" id="g66599"/>
  </g>
  <g transform="translate(223,148)" id="g66609">
    <g transform="translate(4)" id="g66603"/>
    <g style="font-weight:bold;font-size:8px;font-family:Roboto, sans-serif;letter-spacing:2px;fill:#333333" id="text66605" transform="translate(2,30)" aria-label="PHS">
      <path id="path67170" style="font-weight:bold;font-size:8px;font-family:Roboto, sans-serif;letter-spacing:2px;fill:#333333" d="M 1.6796875,-2.0039063 V 0 h -1.171875 v -5.6875 h 2.21875 q 0.640625,0 1.125,0.234375 0.4882812,0.234375 0.75,0.6679688 0.2617187,0.4296875 0.2617187,0.9804687 0,0.8359375 -0.5742187,1.3203125 -0.5703125,0.4804687 -1.5820312,0.4804687 z m 0,-0.9492187 h 1.046875 q 0.4648438,0 0.7070313,-0.21875 0.2460937,-0.21875 0.2460937,-0.625 0,-0.4179687 -0.2460937,-0.6757812 Q 3.1875,-4.7304687 2.7539063,-4.7382812 H 1.6796875 Z"/>
      <path id="path67172" style="font-weight:bold;font-size:8px;font-family:Roboto, sans-serif;letter-spacing:2px;fill:#333333" d="M 12.292969,0 H 11.121094 V -2.4375 H 8.8359375 V 0 h -1.171875 v -5.6875 h 1.171875 v 2.3046875 H 11.121094 V -5.6875 h 1.171875 z"/>
      <path id="path67174" style="font-weight:bold;font-size:8px;font-family:Roboto, sans-serif;letter-spacing:2px;fill:#333333" d="m 18.269531,-1.4921875 q 0,-0.3320312 -0.234375,-0.5078125 -0.234375,-0.1796875 -0.84375,-0.375 -0.609375,-0.1992188 -0.964844,-0.390625 -0.968749,-0.5234375 -0.968749,-1.4101562 0,-0.4609375 0.257812,-0.8203125 0.261719,-0.3632813 0.746094,-0.5664063 0.488281,-0.203125 1.09375,-0.203125 0.609375,0 1.085937,0.2226563 0.476563,0.21875 0.738281,0.6210937 0.265625,0.4023438 0.265625,0.9140625 h -1.171875 q 0,-0.390625 -0.246093,-0.6054687 -0.246094,-0.21875 -0.691407,-0.21875 -0.429687,0 -0.667968,0.1835937 -0.238282,0.1796875 -0.238282,0.4765625 0,0.2773437 0.277344,0.4648437 0.28125,0.1875 0.824219,0.3515625 1,0.3007813 1.457031,0.7460938 0.457031,0.4453125 0.457031,1.109375 0,0.73828125 -0.558593,1.16015625 -0.558594,0.41796875 -1.503907,0.41796875 -0.65625,0 -1.195312,-0.23828125 -0.539062,-0.2421875 -0.824219,-0.66015625 -0.28125,-0.4179687 -0.28125,-0.96875 h 1.175781 q 0,0.94140625 1.125,0.94140625 0.417969,0 0.652344,-0.16796875 0.234375,-0.171875 0.234375,-0.4765625 z"/>
    </g>
    <g transform="translate(0,35)" id="g66607"/>
  </g>
  <g transform="translate(223,237)" id="g66617">
    <g transform="translate(4)" id="g66611"/>
    <g style="font-weight:bold;font-size:8px;font-family:Roboto, sans-serif;letter-spacing:2px;fill:#333333" id="text66613" transform="translate(2.5,30)" aria-label="MIX">
      <path id="path67163" style="font-weight:bold;font-size:8px;font-family:Roboto, sans-serif;letter-spacing:2px;fill:#333333" d="M 2.0390625,-5.6875 3.5,-1.5625 4.953125,-5.6875 H 6.4921875 V 0 H 5.3164062 V -1.5546875 L 5.4335937,-4.2382812 3.8984375,0 H 3.09375 L 1.5625,-4.234375 1.6796875,-1.5546875 V 0 h -1.171875 v -5.6875 z"/>
      <path id="path67165" style="font-weight:bold;font-size:8px;font-family:Roboto, sans-serif;letter-spacing:2px;fill:#333333" d="M 10.769531,0 H 9.5976563 v -5.6875 h 1.1718747 z"/>
      <path id="path67167" style="font-weight:bold;font-size:8px;font-family:Roboto, sans-serif;letter-spacing:2px;fill:#333333" d="M 15.949219,-3.7265625 17.015625,-5.6875 h 1.347656 L 16.707031,-2.8671875 18.40625,0 H 17.042969 L 15.949219,-1.9921875 14.855469,0 H 13.492188 L 15.191406,-2.8671875 13.535156,-5.6875 h 1.347657 z"/>
    </g>
    <g transform="translate(0,35)" id="g66615"/>
  </g>
  <g class="io-group" transform="translate(220,318)" id="g66629">
    <path class="output-background-filler" d="M 0,0 H 32 V 5 H 0 Z" style="fill:#bbbbbb" transform="translate(-1,-5)" id="rect66619"/>
    <path class="output-background" d="m 5,0 h 22 c 2.77,0 5,2.23 5,5 v 37 c 0,2.77 -2.23,5 -5,5 H 5 C 2.23,47 0,44.77 0,42 V 5 C 0,2.23 2.23,0 5,0 Z" style="fill:#bbbbbb" transform="translate(-1,-5)" id="rect66621"/>
    <g transform="translate(3)" id="g66627">
      <g id="g66623"/>
      <g class="output-label" style="font-weight:bold;font-size:8px;font-family:Roboto, sans-serif;letter-spacing:2px;fill:#333333" id="text66625" transform="translate(2,36)" aria-label="OUT">
        <path id="path67156" style="font-weight:bold;font-size:8px;font-family:Roboto, sans-serif;letter-spacing:2px;fill:#333333" d="m 5.1796875,-2.7148438 q 0,0.8398438 -0.296875,1.4726563 -0.296875,0.6328125 -0.8515625,0.9765625 -0.5507812,0.34375 -1.265625,0.34375 -0.7070312,0 -1.2617188,-0.33984375 Q 0.94921875,-0.6015625 0.64453125,-1.2304687 0.33984375,-1.8632812 0.3359375,-2.6835938 v -0.28125 q 0,-0.8398437 0.30078125,-1.4765624 0.3046875,-0.640625 0.85546875,-0.9804688 0.5546875,-0.34375 1.265625,-0.34375 0.7109375,0 1.2617187,0.34375 0.5546875,0.3398438 0.8554688,0.9804688 0.3046875,0.6367187 0.3046875,1.4726562 z m -1.1875,-0.2578125 q 0,-0.8945312 -0.3203125,-1.3593749 -0.3203125,-0.4648438 -0.9140625,-0.4648438 -0.5898437,0 -0.9101563,0.4609375 -0.3203125,0.4570312 -0.3242187,1.34375 v 0.2773437 q 0,0.8710938 0.3203125,1.3515626 0.3203125,0.4804687 0.921875,0.4804687 0.5898438,0 0.90625,-0.4609375 0.3164063,-0.4648437 0.3203125,-1.3515625 z"/>
        <path id="path67158" style="font-weight:bold;font-size:8px;font-family:Roboto, sans-serif;letter-spacing:2px;fill:#333333" d="m 12.34375,-5.6875 v 3.7460938 q 0,0.9335937 -0.585937,1.47656245 -0.582032,0.54296875 -1.59375,0.54296875 -0.9960942,0 -1.5820317,-0.52734375 Q 7.9960937,-0.9765625 7.984375,-1.8984375 V -5.6875 H 9.15625 v 3.7539063 q 0,0.5585937 0.265625,0.8164062 0.2695313,0.25390625 0.742188,0.25390625 0.988281,0 1.003906,-1.03906245 V -5.6875 Z"/>
        <path id="path67160" style="font-weight:bold;font-size:8px;font-family:Roboto, sans-serif;letter-spacing:2px;fill:#333333" d="M 19.585937,-4.7382812 H 17.84375 V 0 h -1.171875 v -4.7382812 h -1.71875 V -5.6875 h 4.632812 z"/>
      </g>
    </g>
  </g>
  <g transform="translate(235,68)" id="g66645">
    <g transform="rotate(120,-5,2.8867513)" id="g66635">
      <path d="M 0,0 H 4" style="stroke:#333333;stroke-width:1" id="polyline66633"/>
    </g>
    <path d="M 0,-12.5 A 12.5,12.5 0 0 1 12.5,0" stroke-width="0.5" stroke-linecap="round" fill="none" id="path66637"/>
    <path d="M 0,-12.5 A 12.5,12.5 0 0 1 12.5,0" stroke-width="0.5" stroke-linecap="round" fill="none" transform="rotate(43)" id="path66639"/>
    <path d="M 0,-12.5 A 12.5,12.5 0 0 0 -12.5,0" stroke-width="0.5" stroke-linecap="round" fill="none" id="path66641"/>
    <path d="M 0,-12.5 A 12.5,12.5 0 0 0 -12.5,0" stroke-width="0.5" stroke-linecap="round" fill="none" transform="rotate(-43)" id="path66643"/>
  </g>
  <g transform="translate(235,156)" id="g66661">
    <g transform="rotate(-90,-5,-5)" id="g66651">
      <path d="M 0,0 H 4" style="stroke:#333333;stroke-width:1" id="polyline66649"/>
    </g>
    <path d="M 0,-12.5 A 12.5,12.5 0 0 1 12.5,0" stroke-width="0.5" stroke-linecap="round" fill="none" transform="rotate(20)" id="path66653"/>
    <path d="M 0,-12.5 A 12.5,12.5 0 0 1 12.5,0" stroke-width="0.5" stroke-linecap="round" fill="none" transform="rotate(43)" id="path66655"/>
    <path d="M 0,-12.5 A 12.5,12.5 0 0 0 -12.5,0" stroke-width="0.5" stroke-linecap="round" fill="none" transform="rotate(-20)" id="path66657"/>
    <path d="M 0,-12.5 A 12.5,12.5 0 0 0 -12.5,0" stroke-width="0.5" stroke-linecap="round" fill="none" transform="rotate(-43)" id="path66659"/>
  </g>
  <g transform="translate(235,245)" id="g66677">
    <g transform="rotate(120,-5,2.8867513)" id="g66667">
      <path d="M 0,0 H 4" style="stroke:#333333;stroke-width:1" id="polyline66665"/>
    </g>
    <path d="M 0,-12.5 A 12.5,12.5 0 0 1 12.5,0" stroke-width="0.5" stroke-linecap="round" fill="none" id="path66669"/>
    <path d="M 0,-12.5 A 12.5,12.5 0 0 1 12.5,0" stroke-width="0.5" stroke-linecap="round" fill="none" transform="rotate(43)" id="path66671"/>
    <path d="M 0,-12.5 A 12.5,12.5 0 0 0 -12.5,0" stroke-width="0.5" stroke-linecap="round" fill="none" id="path66673"/>
    <path d="M 0,-12.5 A 12.5,12.5 0 0 0 -12.5,0" stroke-width="0.5" stroke-linecap="round" fill="none" transform="rotate(-43)" id="path66675"/>
  </g>
  <path class="input-background" d="m 265,30 h 20 c 2.77,0 5,2.23 5,5 v 320 c 0,2.77 -2.23,5 -5,5 h -20 c -2.77,0 -5,-2.23 -5,-5 V 35 c 0,-2.77 2.23,-5 5,-5 z" style="fill:#fafafa" id="rect66681"/>
  <g transform="translate(269,36)" id="g66687">
    <path d="M 0,4 A 3,4.5 0 0 1 6,4" stroke-width="1" fill="none" id="path66683"/>
    <path d="m 6,4 a 3,4.5 0 0 0 6,0" stroke-width="1" fill="none" id="path66685"/>
  </g>
  <g transform="translate(263,60)" id="g66695">
    <g transform="translate(4)" id="g66689"/>
    <g style="font-weight:bold;font-size:8px;font-family:Roboto, sans-serif;letter-spacing:1px;fill:#333333" id="text66691" transform="translate(0.5,30)" aria-label="FDBK">
      <path id="path67141" style="font-weight:bold;font-size:8px;font-family:Roboto, sans-serif;letter-spacing:1px;fill:#333333" d="m 3.9296875,-2.3242188 h -2.25 V 0 h -1.171875 v -5.6875 h 3.703125 v 0.9492188 h -2.53125 v 1.4687499 h 2.25 z"/>
      <path id="path67143" style="font-weight:bold;font-size:8px;font-family:Roboto, sans-serif;letter-spacing:1px;fill:#333333" d="m 5.8984375,0 v -5.6875 h 1.75 q 0.75,0 1.3398438,0.3398438 0.59375,0.3359375 0.9257812,0.9609375 0.3320315,0.6210937 0.3320315,1.4140624 v 0.2617188 q 0,0.7929688 -0.3281252,1.4101563 Q 9.59375,-0.68359375 9,-0.34375 8.40625,-0.00390625 7.6601562,0 Z m 1.171875,-4.7382812 v 3.79687495 h 0.5664062 q 0.6875001,0 1.0507813,-0.44921875 0.3632813,-0.4492187 0.3710938,-1.2851563 v -0.3007812 q 0,-0.8671875 -0.359375,-1.3125 -0.359375,-0.4492187 -1.0507813,-0.4492187 z"/>
      <path id="path67145" style="font-weight:bold;font-size:8px;font-family:Roboto, sans-serif;letter-spacing:1px;fill:#333333" d="m 12.101563,0 v -5.6875 h 1.992187 q 1.035156,0 1.570313,0.3984375 0.535156,0.3945313 0.535156,1.1601563 0,0.4179687 -0.214844,0.7382812 -0.214844,0.3164062 -0.597656,0.4648437 0.4375,0.109375 0.6875,0.4414063 0.253906,0.3320312 0.253906,0.8125 0,0.8203125 -0.523437,1.2421875 Q 15.28125,-0.0078125 14.3125,0 Z m 1.171875,-2.4765625 v 1.53515625 h 1.003906 q 0.414062,0 0.644531,-0.19531245 0.234375,-0.1992188 0.234375,-0.546875 0,-0.7812501 -0.808594,-0.7929688 z m 0,-0.828125 h 0.867187 q 0.886719,-0.015625 0.886719,-0.7070312 0,-0.3867188 -0.226563,-0.5546875 -0.222656,-0.171875 -0.707031,-0.171875 h -0.820312 z"/>
      <path id="path67147" style="font-weight:bold;font-size:8px;font-family:Roboto, sans-serif;letter-spacing:1px;fill:#333333" d="M 19.992187,-2.28125 19.382812,-1.625 V 0 h -1.171875 v -5.6875 h 1.171875 v 2.578125 L 19.898437,-3.8164063 21.347656,-5.6875 h 1.441406 L 20.769531,-3.1601563 22.847656,0 h -1.394531 z"/>
    </g>
    <g transform="translate(0,35)" id="g66693"/>
  </g>
  <g transform="translate(263,148)" id="g66703">
    <g transform="translate(4)" id="g66697"/>
    <g style="font-weight:bold;font-size:8px;font-family:Roboto, sans-serif;letter-spacing:2px;fill:#333333" id="text66699" transform="translate(2,30)" aria-label="PHS">
      <path id="path67134" style="font-weight:bold;font-size:8px;font-family:Roboto, sans-serif;letter-spacing:2px;fill:#333333" d="M 1.6796875,-2.0039063 V 0 h -1.171875 v -5.6875 h 2.21875 q 0.640625,0 1.125,0.234375 0.4882812,0.234375 0.75,0.6679688 0.2617187,0.4296875 0.2617187,0.9804687 0,0.8359375 -0.5742187,1.3203125 -0.5703125,0.4804687 -1.5820312,0.4804687 z m 0,-0.9492187 h 1.046875 q 0.4648438,0 0.7070313,-0.21875 0.2460937,-0.21875 0.2460937,-0.625 0,-0.4179687 -0.2460937,-0.6757812 Q 3.1875,-4.7304687 2.7539063,-4.7382812 H 1.6796875 Z"/>
      <path id="path67136" style="font-weight:bold;font-size:8px;font-family:Roboto, sans-serif;letter-spacing:2px;fill:#333333" d="M 12.292969,0 H 11.121094 V -2.4375 H 8.8359375 V 0 h -1.171875 v -5.6875 h 1.171875 v 2.3046875 H 11.121094 V -5.6875 h 1.171875 z"/>
      <path id="path67138" style="font-weight:bold;font-size:8px;font-family:Roboto, sans-serif;letter-spacing:2px;fill:#333333" d="m 18.269531,-1.4921875 q 0,-0.3320312 -0.234375,-0.5078125 -0.234375,-0.1796875 -0.84375,-0.375 -0.609375,-0.1992188 -0.964844,-0.390625 -0.968749,-0.5234375 -0.968749,-1.4101562 0,-0.4609375 0.257812,-0.8203125 0.261719,-0.3632813 0.746094,-0.5664063 0.488281,-0.203125 1.09375,-0.203125 0.609375,0 1.085937,0.2226563 0.476563,0.21875 0.738281,0.6210937 0.265625,0.4023438 0.265625,0.9140625 h -1.171875 q 0,-0.390625 -0.246093,-0.6054687 -0.246094,-0.21875 -0.691407,-0.21875 -0.429687,0 -0.667968,0.1835937 -0.238282,0.1796875 -0.238282,0.4765625 0,0.2773437 0.277344,0.4648437 0.28125,0.1875 0.824219,0.3515625 1,0.3007813 1.457031,0.7460938 0.457031,0.4453125 0.457031,1.109375 0,0.73828125 -0.558593,1.16015625 -0.558594,0.41796875 -1.503907,0.41796875 -0.65625,0 -1.195312,-0.23828125 -0.539062,-0.2421875 -0.824219,-0.66015625 -0.28125,-0.4179687 -0.28125,-0.96875 h 1.175781 q 0,0.94140625 1.125,0.94140625 0.417969,0 0.652344,-0.16796875 0.234375,-0.171875 0.234375,-0.4765625 z"/>
    </g>
    <g transform="translate(0,35)" id="g66701"/>
  </g>
  <g transform="translate(263,237)" id="g66711">
    <g transform="translate(4)" id="g66705"/>
    <g style="font-weight:bold;font-size:8px;font-family:Roboto, sans-serif;letter-spacing:2px;fill:#333333" id="text66707" transform="translate(2.5,30)" aria-label="MIX">
      <path id="path67127" style="font-weight:bold;font-size:8px;font-family:Roboto, sans-serif;letter-spacing:2px;fill:#333333" d="M 2.0390625,-5.6875 3.5,-1.5625 4.953125,-5.6875 H 6.4921875 V 0 H 5.3164062 V -1.5546875 L 5.4335937,-4.2382812 3.8984375,0 H 3.09375 L 1.5625,-4.234375 1.6796875,-1.5546875 V 0 h -1.171875 v -5.6875 z"/>
      <path id="path67129" style="font-weight:bold;font-size:8px;font-family:Roboto, sans-serif;letter-spacing:2px;fill:#333333" d="M 10.769531,0 H 9.5976563 v -5.6875 h 1.1718747 z"/>
      <path id="path67131" style="font-weight:bold;font-size:8px;font-family:Roboto, sans-serif;letter-spacing:2px;fill:#333333" d="M 15.949219,-3.7265625 17.015625,-5.6875 h 1.347656 L 16.707031,-2.8671875 18.40625,0 H 17.042969 L 15.949219,-1.9921875 14.855469,0 H 13.492188 L 15.191406,-2.8671875 13.535156,-5.6875 h 1.347657 z"/>
    </g>
    <g transform="translate(0,35)" id="g66709"/>
  </g>
  <g class="io-group" transform="translate(260,318)" id="g66723">
    <path class="output-background-filler" d="M 0,0 H 31 V 5 H 0 Z" style="fill:#bbbbbb" transform="translate(-1,-5)" id="rect66713"/>
    <path class="output-background" d="m 5,0 h 21 c 2.77,0 5,2.23 5,5 v 37 c 0,2.77 -2.23,5 -5,5 H 5 C 2.23,47 0,44.77 0,42 V 5 C 0,2.23 2.23,0 5,0 Z" style="fill:#bbbbbb" transform="translate(-1,-5)" id="rect66715"/>
    <g transform="translate(3)" id="g66721">
      <g id="g66717"/>
      <g class="output-label" style="font-weight:bold;font-size:8px;font-family:Roboto, sans-serif;letter-spacing:2px;fill:#333333" id="text66719" transform="translate(2,36)" aria-label="OUT">
        <path id="path67120" style="font-weight:bold;font-size:8px;font-family:Roboto, sans-serif;letter-spacing:2px;fill:#333333" d="m 5.1796875,-2.7148438 q 0,0.8398438 -0.296875,1.4726563 -0.296875,0.6328125 -0.8515625,0.9765625 -0.5507812,0.34375 -1.265625,0.34375 -0.7070312,0 -1.2617188,-0.33984375 Q 0.94921875,-0.6015625 0.64453125,-1.2304687 0.33984375,-1.8632812 0.3359375,-2.6835938 v -0.28125 q 0,-0.8398437 0.30078125,-1.4765624 0.3046875,-0.640625 0.85546875,-0.9804688 0.5546875,-0.34375 1.265625,-0.34375 0.7109375,0 1.2617187,0.34375 0.5546875,0.3398438 0.8554688,0.9804688 0.3046875,0.6367187 0.3046875,1.4726562 z m -1.1875,-0.2578125 q 0,-0.8945312 -0.3203125,-1.3593749 -0.3203125,-0.4648438 -0.9140625,-0.4648438 -0.5898437,0 -0.9101563,0.4609375 -0.3203125,0.4570312 -0.3242187,1.34375 v 0.2773437 q 0,0.8710938 0.3203125,1.3515626 0.3203125,0.4804687 0.921875,0.4804687 0.5898438,0 0.90625,-0.4609375 0.3164063,-0.4648437 0.3203125,-1.3515625 z"/>
        <path id="path67122" style="font-weight:bold;font-size:8px;font-family:Roboto, sans-serif;letter-spacing:2px;fill:#333333" d="m 12.34375,-5.6875 v 3.7460938 q 0,0.9335937 -0.585937,1.47656245 -0.582032,0.54296875 -1.59375,0.54296875 -0.9960942,0 -1.5820317,-0.52734375 Q 7.9960937,-0.9765625 7.984375,-1.8984375 V -5.6875 H 9.15625 v 3.7539063 q 0,0.5585937 0.265625,0.8164062 0.2695313,0.25390625 0.742188,0.25390625 0.988281,0 1.003906,-1.03906245 V -5.6875 Z"/>
        <path id="path67124" style="font-weight:bold;font-size:8px;font-family:Roboto, sans-serif;letter-spacing:2px;fill:#333333" d="M 19.585937,-4.7382812 H 17.84375 V 0 h -1.171875 v -4.7382812 h -1.71875 V -5.6875 h 4.632812 z"/>
      </g>
    </g>
  </g>
  <g transform="translate(275,68)" id="g66739">
    <g transform="rotate(120,-5,2.8867513)" id="g66729">
      <path d="M 0,0 H 4" style="stroke:#333333;stroke-width:1" id="polyline66727"/>
    </g>
    <path d="M 0,-12.5 A 12.5,12.5 0 0 1 12.5,0" stroke-width="0.5" stroke-linecap="round" fill="none" id="path66731"/>
    <path d="M 0,-12.5 A 12.5,12.5 0 0 1 12.5,0" stroke-width="0.5" stroke-linecap="round" fill="none" transform="rotate(43)" id="path66733"/>
    <path d="M 0,-12.5 A 12.5,12.5 0 0 0 -12.5,0" stroke-width="0.5" stroke-linecap="round" fill="none" id="path66735"/>
    <path d="M 0,-12.5 A 12.5,12.5 0 0 0 -12.5,0" stroke-width="0.5" stroke-linecap="round" fill="none" transform="rotate(-43)" id="path66737"/>
  </g>
  <g transform="translate(275,156)" id="g66755">
    <g transform="rotate(-90,-5,-5)" id="g66745">
      <path d="M 0,0 H 4" style="stroke:#333333;stroke-width:1" id="polyline66743"/>
    </g>
    <path d="M 0,-12.5 A 12.5,12.5 0 0 1 12.5,0" stroke-width="0.5" stroke-linecap="round" fill="none" transform="rotate(20)" id="path66747"/>
    <path d="M 0,-12.5 A 12.5,12.5 0 0 1 12.5,0" stroke-width="0.5" stroke-linecap="round" fill="none" transform="rotate(43)" id="path66749"/>
    <path d="M 0,-12.5 A 12.5,12.5 0 0 0 -12.5,0" stroke-width="0.5" stroke-linecap="round" fill="none" transform="rotate(-20)" id="path66751"/>
    <path d="M 0,-12.5 A 12.5,12.5 0 0 0 -12.5,0" stroke-width="0.5" stroke-linecap="round" fill="none" transform="rotate(-43)" id="path66753"/>
  </g>
  <g transform="translate(275,245)" id="g66771">
    <g transform="rotate(120,-5,2.8867513)" id="g66761">
      <path d="M 0,0 H 4" style="stroke:#333333;stroke-width:1" id="polyline66759"/>
    </g>
    <path d="M 0,-12.5 A 12.5,12.5 0 0 1 12.5,0" stroke-width="0.5" stroke-linecap="round" fill="none" id="path66763"/>
    <path d="M 0,-12.5 A 12.5,12.5 0 0 1 12.5,0" stroke-width="0.5" stroke-linecap="round" fill="none" transform="rotate(43)" id="path66765"/>
    <path d="M 0,-12.5 A 12.5,12.5 0 0 0 -12.5,0" stroke-width="0.5" stroke-linecap="round" fill="none" id="path66767"/>
    <path d="M 0,-12.5 A 12.5,12.5 0 0 0 -12.5,0" stroke-width="0.5" stroke-linecap="round" fill="none" transform="rotate(-43)" id="path66769"/>
  </g>
  <path class="input-background" d="m 15,313 h 61 c 2.77,0 5,2.23 5,5 v 37 c 0,2.77 -2.23,5 -5,5 H 15 c -2.77,0 -5,-2.23 -5,-5 v -37 c 0,-2.77 2.23,-5 5,-5 z" style="fill:#fafafa" id="rect66775"/>
  <g transform="translate(10,313)" id="g66781">
    <g transform="translate(7,5)" id="g66777"/>
    <g class="input-label" style="font-weight:bold;font-size:8px;font-family:Roboto, sans-serif;letter-spacing:1px;fill:#333333" id="text66779" transform="translate(5,40)" aria-label="V/OCT">
      <path id="path67103" style="font-weight:bold;font-size:8px;font-family:Roboto, sans-serif;letter-spacing:1px;fill:#333333" d="M 2.609375,-1.4101562 3.8984375,-5.6875 H 5.203125 L 3.2226563,0 H 2 L 0.02734375,-5.6875 H 1.328125 Z"/>
      <path id="path67105" style="font-weight:bold;font-size:8px;font-family:Roboto, sans-serif;letter-spacing:1px;fill:#333333" d="M 7.0234375,0.48828125 H 6.1835937 L 8.2773438,-5.6875 h 0.8398437 z"/>
      <path id="path67107" style="font-weight:bold;font-size:8px;font-family:Roboto, sans-serif;letter-spacing:1px;fill:#333333" d="m 15.398438,-2.7148438 q 0,0.8398438 -0.296875,1.4726563 -0.296875,0.6328125 -0.851563,0.9765625 -0.550781,0.34375 -1.265625,0.34375 -0.707031,0 -1.261719,-0.33984375 -0.554687,-0.33984375 -0.859375,-0.96874995 -0.304687,-0.6328125 -0.308593,-1.4531251 v -0.28125 q 0,-0.8398437 0.300781,-1.4765624 0.304687,-0.640625 0.855469,-0.9804688 0.554687,-0.34375 1.265625,-0.34375 0.710937,0 1.261718,0.34375 0.554688,0.3398438 0.855469,0.9804688 0.304688,0.6367187 0.304688,1.4726562 z m -1.1875,-0.2578125 q 0,-0.8945312 -0.320313,-1.3593749 -0.320312,-0.4648438 -0.914062,-0.4648438 -0.589844,0 -0.910157,0.4609375 -0.320312,0.4570312 -0.324218,1.34375 v 0.2773437 q 0,0.8710938 0.320312,1.3515626 0.320313,0.4804687 0.921875,0.4804687 0.589844,0 0.90625,-0.4609375 0.316406,-0.4648437 0.320313,-1.3515625 z"/>
      <path id="path67109" style="font-weight:bold;font-size:8px;font-family:Roboto, sans-serif;letter-spacing:1px;fill:#333333" d="m 21.722656,-1.8945312 q -0.06641,0.9179687 -0.679687,1.44531245 -0.609375,0.52734375 -1.609375,0.52734375 -1.09375,0 -1.722657,-0.734375 -0.625,-0.7382812 -0.625,-2.0234375 v -0.3476563 q 0,-0.8203125 0.289063,-1.4453124 0.289062,-0.625 0.824219,-0.9570313 0.539062,-0.3359375 1.25,-0.3359375 0.984375,0 1.585937,0.5273438 0.601563,0.5273437 0.695313,1.4804687 h -1.171875 q -0.04297,-0.5507812 -0.308594,-0.796875 -0.261719,-0.25 -0.800781,-0.25 -0.585938,0 -0.878907,0.421875 -0.289062,0.4179687 -0.296875,1.3007812 v 0.4296875 q 0,0.9218751 0.277344,1.3476563 0.28125,0.42578125 0.882813,0.42578125 0.542968,0 0.808593,-0.24609375 0.269532,-0.25 0.308594,-0.7695312 z"/>
      <path id="path67111" style="font-weight:bold;font-size:8px;font-family:Roboto, sans-serif;letter-spacing:1px;fill:#333333" d="M 27.664062,-4.7382812 H 25.921875 V 0 H 24.75 V -4.7382812 H 23.03125 V -5.6875 h 4.632812 z"/>
    </g>
  </g>
  <g transform="translate(47,313)" id="g66787">
    <g transform="translate(3,5)" id="g66783"/>
    <g class="input-label" style="font-weight:bold;font-size:8px;font-family:Roboto, sans-serif;letter-spacing:1px;fill:#333333" id="text66785" transform="translate(3,40)" aria-label="SYNC">
      <path id="path67094" style="font-weight:bold;font-size:8px;font-family:Roboto, sans-serif;letter-spacing:1px;fill:#333333" d="m 3.4570313,-1.4921875 q 0,-0.3320312 -0.234375,-0.5078125 -0.234375,-0.1796875 -0.84375,-0.375 -0.6093751,-0.1992188 -0.9648438,-0.390625 -0.96875,-0.5234375 -0.96875,-1.4101562 0,-0.4609375 0.2578125,-0.8203125 Q 0.96484375,-5.359375 1.4492187,-5.5625 1.9375,-5.765625 2.5429688,-5.765625 q 0.609375,0 1.0859375,0.2226563 0.4765624,0.21875 0.7382812,0.6210937 0.265625,0.4023438 0.265625,0.9140625 h -1.171875 q 0,-0.390625 -0.2460937,-0.6054687 -0.2460938,-0.21875 -0.6914063,-0.21875 -0.4296875,0 -0.6679688,0.1835937 -0.2382812,0.1796875 -0.2382812,0.4765625 0,0.2773437 0.2773437,0.4648437 0.2812501,0.1875 0.8242188,0.3515625 1,0.3007813 1.4570312,0.7460938 0.4570313,0.4453125 0.4570313,1.109375 0,0.73828125 -0.5585938,1.16015625 Q 3.515625,0.078125 2.5703125,0.078125 q -0.65625,0 -1.1953125,-0.23828125 -0.5390625,-0.2421875 -0.82421875,-0.66015625 -0.28125,-0.4179687 -0.28125,-0.96875 H 1.4453125 q 0,0.94140625 1.125,0.94140625 0.4179688,0 0.6523438,-0.16796875 0.234375,-0.171875 0.234375,-0.4765625 z"/>
      <path id="path67096" style="font-weight:bold;font-size:8px;font-family:Roboto, sans-serif;letter-spacing:1px;fill:#333333" d="m 8.390625,-3.125 1.1835938,-2.5625 h 1.2812502 l -1.8671877,3.625 V 0 H 7.796875 v -2.0625 l -1.8671875,-3.625 h 1.2851562 z"/>
      <path id="path67098" style="font-weight:bold;font-size:8px;font-family:Roboto, sans-serif;letter-spacing:1px;fill:#333333" d="m 17.007812,0 h -1.171874 l -2.28125,-3.7421875 V 0 h -1.171875 v -5.6875 h 1.171875 l 2.285156,3.75 v -3.75 h 1.167968 z"/>
      <path id="path67100" style="font-weight:bold;font-size:8px;font-family:Roboto, sans-serif;letter-spacing:1px;fill:#333333" d="M 23.503906,-1.8945312 Q 23.4375,-0.9765625 22.824219,-0.44921875 22.214844,0.078125 21.214844,0.078125 q -1.09375,0 -1.722657,-0.734375 -0.625,-0.7382812 -0.625,-2.0234375 v -0.3476563 q 0,-0.8203125 0.289063,-1.4453124 0.289062,-0.625 0.824219,-0.9570313 0.539062,-0.3359375 1.25,-0.3359375 0.984375,0 1.585937,0.5273438 0.601563,0.5273437 0.695313,1.4804687 h -1.171875 q -0.04297,-0.5507812 -0.308594,-0.796875 -0.261719,-0.25 -0.800781,-0.25 -0.585938,0 -0.878907,0.421875 -0.289062,0.4179687 -0.296875,1.3007812 v 0.4296875 q 0,0.9218751 0.277344,1.3476563 0.28125,0.42578125 0.882813,0.42578125 0.542968,0 0.808593,-0.24609375 0.269532,-0.25 0.308594,-0.7695312 z"/>
    </g>
  </g>
  <g transform="translate(100,313)" id="g66793">
    <g transform="translate(3,5)" id="g66789"/>
    <g class="output-label" style="font-weight:bold;font-size:8px;font-family:Roboto, sans-serif;letter-spacing:2px;fill:#333333" id="text66791" transform="translate(5,40)" aria-label="MIX">
      <path id="path67087" style="font-weight:bold;font-size:8px;font-family:Roboto, sans-serif;letter-spacing:2px;fill:#333333" d="M 2.0390625,-5.6875 3.5,-1.5625 4.953125,-5.6875 H 6.4921875 V 0 H 5.3164062 V -1.5546875 L 5.4335937,-4.2382812 3.8984375,0 H 3.09375 L 1.5625,-4.234375 1.6796875,-1.5546875 V 0 h -1.171875 v -5.6875 z"/>
      <path id="path67089" style="font-weight:bold;font-size:8px;font-family:Roboto, sans-serif;letter-spacing:2px;fill:#333333" d="M 10.769531,0 H 9.5976563 v -5.6875 h 1.1718747 z"/>
      <path id="path67091" style="font-weight:bold;font-size:8px;font-family:Roboto, sans-serif;letter-spacing:2px;fill:#333333" d="M 15.949219,-3.7265625 17.015625,-5.6875 h 1.347656 L 16.707031,-2.8671875 18.40625,0 H 17.042969 L 15.949219,-1.9921875 14.855469,0 H 13.492188 L 15.191406,-2.8671875 13.535156,-5.6875 h 1.347657 z"/>
    </g>
  </g>
</svg>
