<?xml version="1.0" encoding="UTF-8" standalone="no"?>
<svg
   xmlns:dc="http://purl.org/dc/elements/1.1/"
   xmlns:cc="http://creativecommons.org/ns#"
   xmlns:rdf="http://www.w3.org/1999/02/22-rdf-syntax-ns#"
   xmlns:svg="http://www.w3.org/2000/svg"
   xmlns="http://www.w3.org/2000/svg"
   xmlns:sodipodi="http://sodipodi.sourceforge.net/DTD/sodipodi-0.dtd"
   xmlns:inkscape="http://www.inkscape.org/namespaces/inkscape"
   version="1.1"
   width="45"
   height="380"
   viewBox="0 0 45 380"
   id="svg104"
   sodipodi:docname="svg_render_tmp.svg"
   inkscape:version="0.92.2 5c3e80d, 2017-08-06">
  <metadata
     id="metadata108">
    <rdf:RDF>
      <cc:Work
         rdf:about="">
        <dc:format>image/svg+xml</dc:format>
        <dc:type
           rdf:resource="http://purl.org/dc/dcmitype/StillImage" />
      </cc:Work>
    </rdf:RDF>
  </metadata>
  <sodipodi:namedview
     pagecolor="#ffffff"
     bordercolor="#666666"
     borderopacity="1"
     objecttolerance="10"
     gridtolerance="10"
     guidetolerance="10"
     inkscape:pageopacity="0"
     inkscape:pageshadow="2"
     inkscape:window-width="468"
     inkscape:window-height="449"
     id="namedview106"
     showgrid="false"
     inkscape:zoom="0.62105263"
     inkscape:cx="22.5"
     inkscape:cy="190"
     inkscape:window-x="0"
     inkscape:window-y="0"
     inkscape:window-maximized="0"
     inkscape:current-layer="svg104" />
  <style
     id="style2">
    text {
      fill: #333;
      font-family: 'Roboto', sans-serif;
      font-weight: bold;
    }
    text.title {
      font-family: 'Comfortaa', sans-serif;
      font-weight: normal;
    }
    text.brand {
      font-family: 'Audiowide', sans-serif;
      font-weight: bold;
    }
  </style>
  <defs
     id="defs52">
    <symbol
       id="knob"
       viewBox="0 0 45px 45px">
      <g
         transform="translate(22.5 22.5)"
         id="g10">
        <polyline
           points="-5,0 5,0"
           stroke-width="1"
           stroke="#00f"
           id="polyline4" />
        <polyline
           points="0,-5 0,5"
           stroke-width="1"
           stroke="#00f"
           id="polyline6" />
        <circle
           cx="0"
           cy="0"
           r="14.5"
           stroke-width="1"
           stroke="#00f"
           fill="none"
           id="circle8" />
      </g>
    </symbol>
    <symbol
       id="knobguide-mixab"
       viewBox="0 0 45px 45px">
      <g
         transform="translate(22.5 22.5)"
         id="g35">
        <text
           font-size="5.0pt"
           transform="rotate(-240) translate(20 0) rotate(240) translate(-2 2)"
           id="text13">A</text>
        <polyline
           points="0,0 2.5,0"
           stroke-width="0.3"
           stroke="#333"
           transform="rotate(-210) translate(17 0)"
           id="polyline15" />
        <polyline
           points="0,0 2.5,0"
           stroke-width="0.3"
           stroke="#333"
           transform="rotate(-180) translate(17 0)"
           id="polyline17" />
        <polyline
           points="0,0 2.5,0"
           stroke-width="0.3"
           stroke="#333"
           transform="rotate(-150) translate(17 0)"
           id="polyline19" />
        <polyline
           points="0,0 2.5,0"
           stroke-width="0.3"
           stroke="#333"
           transform="rotate(-120) translate(17 0)"
           id="polyline21" />
        <polyline
           points="0,0 3.5,0"
           stroke-width="1"
           stroke="#333"
           transform="rotate(-90) translate(17 0)"
           id="polyline23" />
        <polyline
           points="0,0 2.5,0"
           stroke-width="0.3"
           stroke="#333"
           transform="rotate(-60) translate(17 0)"
           id="polyline25" />
        <polyline
           points="0,0 2.5,0"
           stroke-width="0.3"
           stroke="#333"
           transform="rotate(-30) translate(17 0)"
           id="polyline27" />
        <polyline
           points="0,0 2.5,0"
           stroke-width="0.3"
           stroke="#333"
           transform="rotate(0) translate(17 0)"
           id="polyline29" />
        <polyline
           points="0,0 2.5,0"
           stroke-width="0.3"
           stroke="#333"
           transform="rotate(30) translate(17 0)"
           id="polyline31" />
        <text
           font-size="5.0pt"
           transform="rotate(60) translate(20 0) rotate(-60) translate(-2 2)"
           id="text33">B</text>
      </g>
    </symbol>
    <symbol
       id="input"
       viewBox="0 0 24px 24px">
      <g
         transform="translate(12 12)"
         id="g42">
        <circle
           cx="0"
           cy="0"
           r="5"
           stroke-width="1"
           stroke="#0f0"
           fill="#0f0"
           id="circle38" />
        <circle
           cx="0"
           cy="0"
           r="10.5"
           stroke-width="3"
           stroke="#0f0"
           fill="none"
           id="circle40" />
      </g>
    </symbol>
    <symbol
       id="output"
       viewBox="0 0 24px 24px">
      <g
         transform="translate(12 12)"
         id="g49">
        <circle
           cx="0"
           cy="0"
           r="5"
           stroke-width="1"
           stroke="#f00"
           fill="#f00"
           id="circle45" />
        <circle
           cx="0"
           cy="0"
           r="10.5"
           stroke-width="3"
           stroke="#f00"
           fill="none"
           id="circle47" />
      </g>
    </symbol>
  </defs>
  <path
     style="fill:#dddddd"
     d="M 0,0 H 45 V 380 H 0 Z"
     id="rect54" />
  <path
     style="fill:none;stroke:#e4e4e4;stroke-width:0.5"
     d="M 1,1 H 44 V 379 H 1 V 1"
     id="polyline56" />
  <path
     style="fill:none;stroke:#ebebeb;stroke-width:0.80000001"
     d="m 0.5,0.5 h 44 v 379 H 0.5 V 0.5"
     id="polyline58" />
  <path
     style="fill:none;stroke:#f2f2f2;stroke-width:1"
     d="M 0,0 H 45 V 380 H 0 V 0"
     id="polyline60" />
  <g
     aria-label="XFADE"
     transform="rotate(-90)"
     style="font-weight:normal;font-size:9.33333302px;font-family:Comfortaa, sans-serif;letter-spacing:2.5px;fill:#333333"
     id="text62">
    <path
       d="m -369.90533,12.412 q 0.084,0.112 0.084,0.233333 0,0.149334 -0.0933,0.252 Q -370.008,13 -370.16667,13 q -0.18666,0 -0.28,-0.130667 L -372.67733,9.7800001 -374.95467,12.888 Q -375.048,13 -375.216,13 q -0.15867,0 -0.252,-0.09333 -0.0933,-0.102667 -0.0933,-0.242667 0,-0.14 0.084,-0.252 l 2.30533,-3.1359999 -2.156,-2.9959999 q -0.0747,-0.1213333 -0.0747,-0.224 0,-0.14 0.0933,-0.2426666 0.0933,-0.1026667 0.24266,-0.1026667 0.18667,0 0.28,0.1306667 l 2.11867,2.9306665 2.14667,-2.9306665 q 0.10266,-0.1306667 0.28,-0.1306667 0.14933,0 0.24266,0.112 0.0933,0.1026667 0.0933,0.2426667 0,0.1213333 -0.0653,0.2146666 l -2.20266,2.9866666 z"
       style="font-weight:normal;font-size:9.33333302px;font-family:Comfortaa, sans-serif;letter-spacing:2.5px;fill:#333333"
       id="path158" />
    <path
       d="m -366.18238,13 q -0.14933,0 -0.26133,-0.102667 -0.10267,-0.112 -0.10267,-0.261333 V 6.0746669 q 0,-0.1586667 0.10267,-0.2613333 0.112,-0.1026667 0.26133,-0.1026667 h 4.37734 q 0.15866,0 0.26133,0.1026667 0.10267,0.1026666 0.10267,0.252 0,0.1493333 -0.10267,0.252 -0.10267,0.093333 -0.26133,0.093333 h -4.01334 v 2.5759999 h 2.92134 q 0.15866,0 0.26133,0.1026667 0.10267,0.093333 0.10267,0.252 0,0.1493333 -0.10267,0.2519999 -0.10267,0.1026667 -0.26133,0.1026667 h -2.92134 V 12.636 q 0,0.149333 -0.10266,0.261333 Q -366.02371,13 -366.18238,13 Z"
       style="font-weight:normal;font-size:9.33333302px;font-family:Comfortaa, sans-serif;letter-spacing:2.5px;fill:#333333"
       id="path160" />
    <path
       d="m -353.27702,12.486667 q 0.0373,0.06533 0.0373,0.149333 0,0.149333 -0.112,0.261333 Q -353.45435,13 -353.60369,13 q -0.24266,0 -0.34533,-0.224 l -0.62533,-1.512 h -3.612 l -0.62534,1.512 q -0.0747,0.224 -0.336,0.224 -0.15866,0 -0.26133,-0.102667 -0.0933,-0.112 -0.0933,-0.261333 0,-0.09333 0.028,-0.158667 l 2.744,-6.5146661 q 0.10266,-0.252 0.35466,-0.252 0.252,0 0.34534,0.252 z m -1.54933,-1.848 -1.54934,-3.7426668 -1.54933,3.7426668 z"
       style="font-weight:normal;font-size:9.33333302px;font-family:Comfortaa, sans-serif;letter-spacing:2.5px;fill:#333333"
       id="path162" />
    <path
       d="m -349.31985,13 q -0.15867,0 -0.26134,-0.102667 -0.10266,-0.102666 -0.10266,-0.261333 V 6.0746669 q 0,-0.1586667 0.10266,-0.2613333 0.10267,-0.1026667 0.26134,-0.1026667 h 1.68 q 1.05466,0 1.88533,0.4666667 0.83067,0.4666666 1.288,1.2973333 0.46667,0.8213333 0.46667,1.8759999 0,1.0546662 -0.46667,1.8853332 -0.45733,0.830667 -1.288,1.297333 Q -346.58519,13 -347.63985,13 Z m 1.68,-0.653333 q 0.84933,0 1.512,-0.382667 0.66266,-0.392 1.036,-1.073333 0.37333,-0.681334 0.37333,-1.5400002 0,-0.8586666 -0.37333,-1.54 -0.37334,-0.6813333 -1.036,-1.0639999 -0.66267,-0.3826667 -1.512,-0.3826667 h -1.316 v 5.9826668 z"
       style="font-weight:normal;font-size:9.33333302px;font-family:Comfortaa, sans-serif;letter-spacing:2.5px;fill:#333333"
       id="path164" />
    <path
       d="m -339.63757,13 q -0.14933,0 -0.26133,-0.102667 -0.10267,-0.112 -0.10267,-0.261333 V 6.0746669 q 0,-0.1586667 0.10267,-0.2613333 0.112,-0.1026667 0.26133,-0.1026667 h 4.37734 q 0.15866,0 0.26133,0.1026667 0.10267,0.1026666 0.10267,0.252 0,0.1493333 -0.10267,0.252 -0.10267,0.093333 -0.26133,0.093333 h -4.01334 v 2.5759999 h 2.92134 q 0.15866,0 0.26133,0.1026667 0.10267,0.1026666 0.10267,0.252 0,0.1493333 -0.112,0.2519999 -0.10267,0.1026667 -0.252,0.1026667 h -2.92134 V 12.3 h 4.01334 q 0.15866,0 0.26133,0.102667 0.10267,0.09333 0.10267,0.242666 0,0.149334 -0.10267,0.252 Q -335.10157,13 -335.26023,13 Z"
       style="font-weight:normal;font-size:9.33333302px;font-family:Comfortaa, sans-serif;letter-spacing:2.5px;fill:#333333"
       id="path166" />
  </g>
  <g
     id="g68"
     transform="rotate(-90,200.5,175.5)">
    <g
       aria-label="BGA"
       style="font-weight:bold;font-size:9.33333302px;font-family:Audiowide, sans-serif;letter-spacing:2px;fill:#333333"
       id="text64">
      <path
         d="m 7.2096352,-1.4355468 q 0,0.21875 -0.077474,0.469401 -0.072917,0.25065103 -0.2460937,0.46484373 -0.1686198,0.2141927 -0.4420573,0.36002603 Q 6.1705727,0 5.7740883,0 H 1.2760416 Q 1.1484375,0 1.0390625,-0.04557292 0.92968747,-0.09114583 0.84765622,-0.16861979 q -0.077474,-0.0820312 -0.12304687,-0.19140624 -0.0455729,-0.109375 -0.0455729,-0.23697916 V -5.9381508 q 0,-0.1230469 0.0455729,-0.2324219 0.0455729,-0.109375 0.12304687,-0.1914062 0.0820313,-0.082031 0.19140628,-0.1276042 0.109375,-0.045573 0.2369791,-0.045573 h 3.9648436 q 0.21875,0 0.4694011,0.077474 0.250651,0.077474 0.4648437,0.2506511 0.21875,0.1686197 0.360026,0.4420572 0.1458334,0.2734375 0.1458334,0.6699219 v 0.2233073 q 0,0.3144531 -0.1048177,0.6790364 -0.1048178,0.360026 -0.3372396,0.6835937 0.2005208,0.1230469 0.3736979,0.296224 0.1777344,0.1731771 0.3098958,0.4010416 0.1321615,0.2278646 0.2096354,0.514974 0.077474,0.2871093 0.077474,0.6334635 z M 6.0247394,-1.6634114 q 0,-0.2324219 -0.072917,-0.4147135 Q 5.878906,-2.2649739 5.7467446,-2.3971353 5.6145831,-2.5292968 5.4277342,-2.5976562 5.2408852,-2.6705728 5.0084634,-2.6705728 H 2.3378905 v -1.1940104 h 2.1373698 q 0.2324218,0 0.4192708,-0.068359 0.1868489,-0.072917 0.3190104,-0.2050781 0.1321614,-0.1321614 0.2005208,-0.3144531 0.072917,-0.186849 0.072917,-0.4192708 v -0.2233073 q 0,-0.2552083 -0.2460938,-0.2552083 h -3.376953 v 4.1653644 h 3.9101561 q 0.031901,0 0.077474,-0.00456 0.045573,-0.00456 0.082031,-0.027344 0.036458,-0.022787 0.063802,-0.077474 0.027344,-0.054687 0.027344,-0.1503906 z"
         style="font-weight:bold;font-size:9.33333302px;font-family:Audiowide, sans-serif;letter-spacing:2px;fill:#333333"
         id="path169" />
      <path
         d="m 16.683594,-0.59700519 q 0,0.12760416 -0.04557,0.23697916 -0.04557,0.109375 -0.127605,0.19140624 -0.07747,0.07747396 -0.186849,0.12304687 Q 16.214192,0 16.086588,0 h -4.274739 q -0.164063,0 -0.355469,-0.03645833 -0.186849,-0.04101563 -0.373698,-0.12304687 -0.182291,-0.0820313 -0.350911,-0.20963541 -0.16862,-0.13216146 -0.300781,-0.31445312 -0.127605,-0.18684895 -0.205079,-0.42838537 -0.07747,-0.2460938 -0.07747,-0.5514323 v -3.2083332 q 0,-0.1640625 0.03646,-0.3509115 0.04101,-0.1914062 0.123047,-0.3736979 0.08203,-0.1868489 0.214192,-0.3554687 0.132162,-0.1686198 0.314453,-0.296224 0.186849,-0.1321614 0.428386,-0.2096354 0.241536,-0.077474 0.546875,-0.077474 h 4.817057 v 1.1848958 h -4.817057 q -0.232422,0 -0.355469,0.1230468 -0.123047,0.1230469 -0.123047,0.3645834 v 3.1992186 q 0,0.2278646 0.123047,0.3554687 0.127604,0.1230469 0.355469,0.1230469 h 3.686849 v -1.485677 h -3.153646 v -1.1940104 h 3.741536 q 0.127604,0 0.236979,0.05013 0.109375,0.045573 0.186849,0.1276042 0.08203,0.082031 0.127605,0.1914062 0.04557,0.1048177 0.04557,0.2278646 z"
         style="font-weight:bold;font-size:9.33333302px;font-family:Audiowide, sans-serif;letter-spacing:2px;fill:#333333"
         id="path171" />
      <path
         d="M 26.339842,0 H 25.154946 V -1.6041666 H 20.989582 V 0 h -1.184896 v -3.267578 q 0,-0.7154948 0.246094,-1.3170573 0.246094,-0.6015624 0.683594,-1.0345051 0.4375,-0.4329427 1.034505,-0.6744792 0.597005,-0.2415364 1.303385,-0.2415364 h 2.670573 q 0.123047,0 0.232422,0.045573 0.109375,0.045573 0.191406,0.1276042 0.08203,0.082031 0.127604,0.1914062 0.04557,0.109375 0.04557,0.2324219 z m -5.35026,-2.7890624 h 4.165364 v -2.5611978 h -2.082682 q -0.05469,0 -0.232422,0.018229 -0.173177,0.013672 -0.405599,0.077474 -0.227864,0.063802 -0.483072,0.1959635 -0.255209,0.1321615 -0.469402,0.3645833 -0.214192,0.2324219 -0.355468,0.5833334 -0.136719,0.3463541 -0.136719,0.8430989 z"
         style="font-weight:bold;font-size:9.33333302px;font-family:Audiowide, sans-serif;letter-spacing:2px;fill:#333333"
         id="path173" />
    </g>
    <path
       transform="translate(11.5,-5)"
       style="fill:#dddddd"
       d="M 0,0 H 3 V 3 H 0 Z"
       id="rect66" />
  </g>
  <g
     aria-label="MIX"
     style="font-weight:bold;font-size:8px;font-family:Roboto, sans-serif;letter-spacing:1px;fill:#333333"
     id="text72">
    <path
       d="m 16.039062,19.3125 1.460938,4.125 1.453125,-4.125 h 1.539062 V 25 H 19.316406 V 23.445312 L 19.433594,20.761719 17.898437,25 H 17.09375 l -1.53125,-4.234375 0.117188,2.679687 V 25 h -1.171875 v -5.6875 z"
       style="font-weight:bold;font-size:8px;font-family:Roboto, sans-serif;letter-spacing:1px;fill:#333333"
       id="path177" />
    <path
       d="m 23.769531,25 h -1.171875 v -5.6875 h 1.171875 z"
       style="font-weight:bold;font-size:8px;font-family:Roboto, sans-serif;letter-spacing:1px;fill:#333333"
       id="path179" />
    <path
       d="M 27.949219,21.273437 29.015625,19.3125 h 1.347656 L 28.707031,22.132812 30.40625,25 H 29.042969 L 27.949219,23.007812 26.855469,25 h -1.363282 l 1.699219,-2.867188 -1.65625,-2.820312 h 1.347656 z"
       style="font-weight:bold;font-size:8px;font-family:Roboto, sans-serif;letter-spacing:1px;fill:#333333"
       id="path181" />
  </g>
  <g
     id="use74"
     transform="translate(0,28)">
    <g
       id="g150"
       transform="translate(22.5,22.5)">
      <g
         aria-label="A"
         transform="translate(-12,19.320508)"
         style="font-weight:bold;font-size:6.66666651px;font-family:Roboto, sans-serif;fill:#333333"
         id="text128">
        <path
           d="M 3.0989583,-0.97656248 H 1.3867187 L 1.0611979,0 H 0.02278646 L 1.7871093,-4.7395832 H 2.6920572 L 4.4661457,0 H 3.4277343 Z M 1.6503906,-1.7675781 H 2.8352864 L 2.2395833,-3.5416666 Z"
           style="font-weight:bold;font-size:6.66666651px;font-family:Roboto, sans-serif;fill:#333333"
           id="path184" />
      </g>
      <path
         transform="rotate(150,-8.5,2.2775681)"
         style="stroke:#333333;stroke-width:0.30000001"
         d="M 0,0 H 2.5"
         id="polyline130" />
      <path
         transform="rotate(-180,-8.5,0)"
         style="stroke:#333333;stroke-width:0.30000001"
         d="M 0,0 H 2.5"
         id="polyline132" />
      <path
         transform="rotate(-150,-8.5,-2.2775681)"
         style="stroke:#333333;stroke-width:0.30000001"
         d="M 0,0 H 2.5"
         id="polyline134" />
      <path
         transform="rotate(-120,-8.5,-4.9074773)"
         style="stroke:#333333;stroke-width:0.30000001"
         d="M 0,0 H 2.5"
         id="polyline136" />
      <path
         transform="rotate(-90,-8.5,-8.5)"
         style="stroke:#333333;stroke-width:1"
         d="M 0,0 H 3.5"
         id="polyline138" />
      <path
         transform="rotate(-60,-8.5,-14.722432)"
         style="stroke:#333333;stroke-width:0.30000001"
         d="M 0,0 H 2.5"
         id="polyline140" />
      <path
         transform="rotate(-30,-8.5,-31.722432)"
         style="stroke:#333333;stroke-width:0.30000001"
         d="M 0,0 H 2.5"
         id="polyline142" />
      <path
         transform="translate(17)"
         style="stroke:#333333;stroke-width:0.30000001"
         d="M 0,0 H 2.5"
         id="polyline144" />
      <path
         transform="rotate(30,-8.5,31.722432)"
         style="stroke:#333333;stroke-width:0.30000001"
         d="M 0,0 H 2.5"
         id="polyline146" />
      <g
         aria-label="B"
         transform="translate(8,19.320508)"
         style="font-weight:bold;font-size:6.66666651px;font-family:Roboto, sans-serif;fill:#333333"
         id="text148">
        <path
           d="M 0.42317707,0 V -4.7395832 H 2.0833333 q 0.8626302,0 1.3085937,0.3320312 0.4459635,0.3287761 0.4459635,0.9667969 0,0.3483073 -0.1790364,0.6152343 -0.1790365,0.2636719 -0.4980469,0.3873698 0.3645833,0.091146 0.5729167,0.3678385 0.2115885,0.2766928 0.2115885,0.6770834 0,0.6835937 -0.4361979,1.03515619 Q 3.0729166,-0.00651042 2.2656249,0 Z M 1.3997395,-2.063802 v 1.27929681 h 0.8365886 q 0.345052,0 0.5371093,-0.16276041 0.1953125,-0.1660156 0.1953125,-0.4557292 0,-0.6510416 -0.6738281,-0.6608072 z m 0,-0.6901042 h 0.7226563 q 0.7389323,-0.013021 0.7389323,-0.5891927 0,-0.3222656 -0.1888021,-0.4622396 Q 2.4869791,-3.9485676 2.0833333,-3.9485676 H 1.3997395 Z"
           style="font-weight:bold;font-size:6.66666651px;font-family:Roboto, sans-serif;fill:#333333"
           id="path196" />
      </g>
    </g>
  </g>
  <g
     id="g80"
     transform="translate(5.5,74)">
    <path
       style="fill:#fafafa"
       d="m 5,0 h 24 c 2.77,0 5,2.23 5,5 v 28 c 0,2.77 -2.23,5 -5,5 H 5 C 2.23,38 0,35.77 0,33 V 5 C 0,2.23 2.23,0 5,0 Z"
       id="rect76" />
    <g
       aria-label="CV"
       transform="translate(11,35)"
       style="font-weight:bold;font-size:6.66666651px;font-family:Roboto, sans-serif;letter-spacing:2px;fill:#333333"
       id="text78">
      <path
         d="m 4.1438801,-1.578776 q -0.055338,0.76497394 -0.5664062,1.20442705 -0.5078125,0.43945312 -1.3411458,0.43945312 -0.9114583,0 -1.43554687,-0.61197916 Q 0.27994791,-1.1621093 0.27994791,-2.2330729 v -0.2897135 q 0,-0.6835937 0.24088541,-1.2044271 0.24088541,-0.5208333 0.68684898,-0.797526 0.4492187,-0.2799479 1.0416666,-0.2799479 0.8203125,0 1.3216146,0.4394531 0.501302,0.4394531 0.579427,1.233724 H 3.173828 q -0.035807,-0.4589844 -0.2571614,-0.6640625 -0.218099,-0.2083334 -0.6673177,-0.2083334 -0.4882812,0 -0.7324219,0.3515625 -0.2408854,0.3483073 -0.2473958,1.0839844 v 0.3580729 q 0,0.7682291 0.2311198,1.1230468 0.234375,0.35481774 0.7356771,0.35481774 0.4524739,0 0.6738281,-0.20507812 Q 3.1347656,-1.1458333 3.1673176,-1.578776 Z"
         style="font-weight:bold;font-size:6.66666651px;font-family:Roboto, sans-serif;letter-spacing:2px;fill:#333333"
         id="path200" />
      <path
         d="m 8.5364581,-1.1751302 1.0742187,-3.564453 H 10.697916 L 9.0475258,0 H 8.0286456 L 6.3847655,-4.7395832 h 1.0839843 z"
         style="font-weight:bold;font-size:6.66666651px;font-family:Roboto, sans-serif;letter-spacing:2px;fill:#333333"
         id="path202" />
    </g>
  </g>
  <g
     id="g92"
     transform="translate(5.5,210)">
    <path
       transform="translate(0,63)"
       style="fill:#fafafa"
       d="M 0,0 H 34 V 10 H 0 Z"
       id="rect84" />
    <path
       style="fill:#fafafa"
       d="m 5,0 h 24 c 2.77,0 5,2.23 5,5 v 60 c 0,2.77 -2.23,5 -5,5 H 5 C 2.23,70 0,67.77 0,65 V 5 C 0,2.23 2.23,0 5,0 Z"
       id="rect86" />
    <g
       aria-label="A"
       transform="translate(15,35)"
       style="font-weight:bold;font-size:6.66666651px;font-family:Roboto, sans-serif;letter-spacing:2px;fill:#333333"
       id="text88">
      <path
         d="M 3.0989583,-0.97656248 H 1.3867187 L 1.0611979,0 H 0.02278646 L 1.7871093,-4.7395832 H 2.6920572 L 4.4661457,0 H 3.4277343 Z M 1.6503906,-1.7675781 H 2.8352864 L 2.2395833,-3.5416666 Z"
         style="font-weight:bold;font-size:6.66666651px;font-family:Roboto, sans-serif;letter-spacing:2px;fill:#333333"
         id="path207" />
    </g>
    <g
       aria-label="B"
       transform="translate(15,70)"
       style="font-weight:bold;font-size:6.66666651px;font-family:Roboto, sans-serif;letter-spacing:2px;fill:#333333"
       id="text90">
      <path
         d="M 0.42317707,0 V -4.7395832 H 2.0833333 q 0.8626302,0 1.3085937,0.3320312 0.4459635,0.3287761 0.4459635,0.9667969 0,0.3483073 -0.1790364,0.6152343 -0.1790365,0.2636719 -0.4980469,0.3873698 0.3645833,0.091146 0.5729167,0.3678385 0.2115885,0.2766928 0.2115885,0.6770834 0,0.6835937 -0.4361979,1.03515619 Q 3.0729166,-0.00651042 2.2656249,0 Z M 1.3997395,-2.063802 v 1.27929681 h 0.8365886 q 0.345052,0 0.5371093,-0.16276041 0.1953125,-0.1660156 0.1953125,-0.4557292 0,-0.6510416 -0.6738281,-0.6608072 z m 0,-0.6901042 h 0.7226563 q 0.7389323,-0.013021 0.7389323,-0.5891927 0,-0.3222656 -0.1888021,-0.4622396 Q 2.4869791,-3.9485676 2.0833333,-3.9485676 H 1.3997395 Z"
         style="font-weight:bold;font-size:6.66666651px;font-family:Roboto, sans-serif;letter-spacing:2px;fill:#333333"
         id="path210" />
    </g>
  </g>
  <g
     id="g100"
     transform="translate(5.5,286)">
    <path
       transform="translate(0,-3)"
       style="fill:#bbbbbb"
       d="M 0,0 H 34 V 10 H 0 Z"
       id="rect94" />
    <path
       style="fill:#bbbbbb"
       d="m 5,0 h 24 c 2.77,0 5,2.23 5,5 v 25 c 0,2.77 -2.23,5 -5,5 H 5 C 2.23,35 0,32.77 0,30 V 5 C 0,2.23 2.23,0 5,0 Z"
       id="rect96" />
    <g
       aria-label="MIX"
       transform="translate(8.3,32)"
       style="font-weight:bold;font-size:6.66666651px;font-family:Roboto, sans-serif;letter-spacing:2px;fill:#333333"
       id="text98">
      <path
         d="m 1.6992187,-4.7395832 1.2174479,3.4374999 1.2109375,-3.4374999 h 1.282552 V 0 H 4.4303384 V -1.2955729 L 4.5279947,-3.531901 3.2486978,0 H 2.5781249 l -1.2760416,-3.5286457 0.097656,2.2330728 V 0 H 0.42317707 v -4.7395832 z"
         style="font-weight:bold;font-size:6.66666651px;font-family:Roboto, sans-serif;letter-spacing:2px;fill:#333333"
         id="path215" />
      <path
         d="M 9.3079425,0 H 8.33138 v -4.7395832 h 0.9765625 z"
         style="font-weight:bold;font-size:6.66666651px;font-family:Roboto, sans-serif;letter-spacing:2px;fill:#333333"
         id="path217" />
      <path
         d="m 13.957682,-3.1054687 0.888671,-1.6341145 H 15.9694 L 14.589192,-2.3893229 16.005208,0 H 14.86914 L 13.957682,-1.6601562 13.046223,0 h -1.136067 l 1.416015,-2.3893229 -1.380208,-2.3502603 h 1.123047 z"
         style="font-weight:bold;font-size:6.66666651px;font-family:Roboto, sans-serif;letter-spacing:2px;fill:#333333"
         id="path219" />
    </g>
  </g>
  <!-- <polyline points="0,0 45,0" stroke-width="0.5" stroke="#0f0" transform="translate(0 73)" /> -->
</svg>
