<?xml version="1.0"?>
<svg xmlns="http://www.w3.org/2000/svg" xmlns:xlink="http://www.w3.org/1999/xlink" version="1.1" width="45" height="380" viewBox="0 0 45 380">
  <style/>

  <defs>
    <symbol id="dial-time-edge" viewBox="0 0 45px 45px">
      <g transform="translate(22.5 22.5)">
        <g transform="rotate(-240) translate(17 0)">
          <polyline points="0,0 4,0" stroke-width="1.5" stroke="#333"/>
        </g>
        <g transform="rotate(-225) translate(17 0)">
          <polyline points="0,0 3,0" stroke-width="0.3" stroke="#333"/>
        </g>
        <g transform="rotate(-210) translate(17 0)">
          <polyline points="0,0 3,0" stroke-width="0.3" stroke="#333"/>
        </g>
        <g transform="rotate(-195) translate(17 0)">
          <polyline points="0,0 3,0" stroke-width="0.3" stroke="#333"/>
        </g>
        <g transform="rotate(-180) translate(17 0)">
          <polyline points="0,0 3,0" stroke-width="0.3" stroke="#333"/>
        </g>
        <g transform="rotate(-165) translate(17 0)">
          <polyline points="0,0 4,0" stroke-width="1.5" stroke="#333"/>
        </g>
        <g transform="rotate(-150) translate(17 0)">
          <polyline points="0,0 3,0" stroke-width="0.3" stroke="#333"/>
        </g>
        <g transform="rotate(-135) translate(17 0)">
          <polyline points="0,0 3,0" stroke-width="0.3" stroke="#333"/>
        </g>
        <g transform="rotate(-120) translate(17 0)">
          <polyline points="0,0 3,0" stroke-width="0.3" stroke="#333"/>
        </g>
        <g transform="rotate(-105) translate(17 0)">
          <polyline points="0,0 3,0" stroke-width="0.3" stroke="#333"/>
        </g>

        <g transform="rotate(-90) translate(17 0)">
          <!-- <polyline points="0,0 4,0" stroke-width="0.5" stroke="#333" /> -->
          <g transform="translate(2.4 0) rotate(90)">
            <text font-size="5pt" transform="translate(-1.9 2)">0</text>
          </g>
        </g>

        <g transform="rotate(-75) translate(17 0)">
          <polyline points="0,0 3,0" stroke-width="0.3" stroke="#333"/>
        </g>
        <g transform="rotate(-60) translate(17 0)">
          <polyline points="0,0 3,0" stroke-width="0.3" stroke="#333"/>
        </g>
        <g transform="rotate(-45) translate(17 0)">
          <polyline points="0,0 3,0" stroke-width="0.3" stroke="#333"/>
        </g>
        <g transform="rotate(-30) translate(17 0)">
          <polyline points="0,0 3,0" stroke-width="0.3" stroke="#333"/>
        </g>
        <g transform="rotate(-15) translate(17 0)">
          <polyline points="0,0 4,0" stroke-width="1.5" stroke="#333"/>
        </g>
        <g transform="rotate(0) translate(17 0)">
          <polyline points="0,0 3,0" stroke-width="0.3" stroke="#333"/>
        </g>
        <g transform="rotate(15) translate(17 0)">
          <polyline points="0,0 3,0" stroke-width="0.3" stroke="#333"/>
        </g>
        <g transform="rotate(30) translate(17 0)">
          <polyline points="0,0 3,0" stroke-width="0.3" stroke="#333"/>
        </g>
        <g transform="rotate(45) translate(17 0)">
          <polyline points="0,0 3,0" stroke-width="0.3" stroke="#333"/>
        </g>
        <g transform="rotate(60) translate(17 0)">
          <polyline points="0,0 4,0" stroke-width="1.5" stroke="#333"/>
        </g>

        <g transform="rotate(-225) translate(22 0)">
          <!-- <polyline points="-10,0 10,0" stroke-width="0.5" stroke="#0f0" /> -->
          <g transform="translate(2.5 0) rotate(225)">
            <text font-size="5pt" transform="translate(-3 7)">-10</text>
          </g>
        </g>
        <g transform="rotate(45) translate(22 0)">
          <!-- <polyline points="-10,0 10,0" stroke-width="0.5" stroke="#0f0" /> -->
          <g transform="translate(2.5 0) rotate(-45)">
            <text font-size="5pt" transform="translate(-7 7)">10</text>
          </g>
        </g>
      </g>
    </symbol>

    <symbol id="dial-hold-edge" viewBox="0 0 40px 40px">
      <g transform="translate(20 20)">
        <polyline points="0,0 2.5,0" stroke-width="0.3" stroke="#333" transform="rotate(-240) translate(10 0)"/>
        <text font-size="5pt" transform="rotate(-240) translate(15 0) rotate(240) translate(-3.5 2)">0</text>
        <polyline points="0,0 1.5,0" stroke-width="0.3" stroke="#333" transform="rotate(-172.92) translate(10 0)"/>
        <polyline points="0,0 2.5,0" stroke-width="0.3" stroke="#333" transform="rotate(-145.13) translate(10 0)"/>
        <text font-size="5.0pt" transform="rotate(-145.13) translate(18 0) rotate(145.13) translate(-2 2.2)">0.1</text>
        <polyline points="0,0 2.5,0" stroke-width="0.3" stroke="#333" transform="rotate(-90) translate(10 0)"/>
        <polyline points="0,0 2.5,0" stroke-width="0.3" stroke="#333" transform="rotate(-27.87) translate(10 0)"/>
        <text font-size="5.0pt" transform="rotate(-27.87) translate(15 0) rotate(27.87) translate(-5 0)">0.5</text>
        <polyline points="0,0 2.5,0" stroke-width="0.3" stroke="#333" transform="rotate(19.8) translate(10 0)"/>
        <polyline points="0,0 2.5,0" stroke-width="0.3" stroke="#333" transform="rotate(60) translate(10 0)"/>
        <text font-size="5pt" letter-spacing="1" transform="rotate(60) translate(15 0) rotate(-60) translate(-0.5 2)">1s</text>
      </g>
    </symbol>
  </defs>

  <rect width="100%" height="100%" fill="#ddd"/>
  <polyline points="1,1 44,1 44,379 1,379 1,1" stroke="#e4e4e4" stroke-width="0.5" fill="none"/>
  <polyline points="0.5,0.5 44.5,0.5 44.5,379.5 0.5,379.5 0.5,0.5" stroke="#ebebeb" stroke-width="0.8" fill="none"/>
  <polyline points="0,0 45,0 45,380 0,380 0,0" stroke="#f2f2f2" stroke-width="1" fill="none"/>

  <g transform="rotate(-90) translate(-376 13)">
    <text class="title" font-size="7pt" letter-spacing="2.5px">EDGE</text>
    <g transform="translate(0 12)">
      <text class="brand" font-size="7pt" letter-spacing="2px">BGA</text>
      <rect width="3.0" height="3" fill="#ddd" transform="translate(11.5 -5)"/>
    </g>
  </g>

  <g transform="translate(0 25)">
    <text font-size="6pt" letter-spacing="2px" transform="translate(11 0)">RISE</text>
    <def id="RISE_PARAM" xlink:href="#knob29" transform="translate(0 5)"/>
    <use xlink:href="#dial-time-edge" transform="scale(1) translate(0 5)"/>
    <!-- <rect width="45" height="6" fill="#0f0" transform="translate(0 52)" /> -->
  </g>

  <g transform="translate(0 89)">
    <text font-size="6pt" letter-spacing="2px" transform="translate(10.5 0)">FALL</text>
    <def id="FALL_PARAM" xlink:href="#knob29" transform="translate(0 5)"/>
    <use xlink:href="#dial-time-edge" transform="scale(1) translate(0 5)"/>
    <!-- <rect width="45" height="6" fill="#0f0" transform="translate(0 52)" /> -->
  </g>

  <g transform="translate(0 153)">
    <text font-size="6pt" letter-spacing="2px" transform="translate(10.5 0)">HOLD</text>
    <def id="HOLD_PARAM" xlink:href="#knob16" transform="translate(14.5 9)"/>
    <use xlink:href="#dial-hold-edge" transform="scale(1) translate(2.5 -3)"/>
    <!-- <rect width="45" height="6" fill="#0f0" transform="translate(0 32)" /> -->
  </g>

  <g transform="translate(0 191)">
    <g transform="translate(5.5 0)">
      <rect width="34" height="38" rx="5" fill="#fafafa"/>
      <rect width="34" height="10" fill="#fafafa" transform="translate(0 28)"/>
      <def id="IN_INPUT" xlink:href="#input" transform="translate(5 3)"/>
      <text font-size="5pt" letter-spacing="2px" transform="translate(12.5 35)">IN</text>
    </g>
    <g transform="translate(5.5 38)">
      <rect width="34" height="10" fill="#bbb" transform="translate(0 0)"/>
      <rect width="34" height="109" rx="5" fill="#bbb"/>
      <def id="HIGH_OUTPUT" xlink:href="#output" transform="translate(5 3)"/>
      <text font-size="5pt" letter-spacing="1.2px" transform="translate(11 35)">HIGH</text>
      <def id="HIGH_LIGHT" xlink:href="#light-small" transform="translate(2 29.3)"/>
      <def id="RISE_OUTPUT" xlink:href="#output" transform="translate(5 38)"/>
      <text font-size="5pt" letter-spacing="2px" transform="translate(6.9 70)">RISE</text>
      <def id="FALL_OUTPUT" xlink:href="#output" transform="translate(5 73)"/>
      <text font-size="5pt" letter-spacing="2px" transform="translate(6.6 105)">FALL</text>
    </g>
  </g>
</svg>
