<?xml version="1.0"?>
<svg xmlns="http://www.w3.org/2000/svg" xmlns:xlink="http://www.w3.org/1999/xlink" version="1.1" width="45" height="380" viewBox="0 0 45 380">
  <style/>

  <defs>
    <import id="button"/>
    <import id="button-small"/>
    <import id="input"/>
    <import id="output"/>
    <import id="light-small"/>
  </defs>

  <rect width="100%" height="100%" fill="#ddd"/>
  <polyline points="1,1 44,1 44,379 1,379 1,1" stroke="#e4e4e4" stroke-width="0.5" fill="none"/>
  <polyline points="0.5,0.5 44.5,0.5 44.5,379.5 0.5,379.5 0.5,0.5" stroke="#ebebeb" stroke-width="0.8" fill="none"/>
  <polyline points="0,0 45,0 45,380 0,380 0,0" stroke="#f2f2f2" stroke-width="1" fill="none"/>

  <g transform="rotate(-90) translate(-376 13)">
    <text class="title" font-size="7pt" letter-spacing="2.5px">INV</text>
    <g transform="translate(0 12)">
      <text class="brand" font-size="7pt" letter-spacing="2px">BGA</text>
      <rect width="3.0" height="3" fill="#ddd" transform="translate(11.5 -5)"/>
    </g>
  </g>

  <g transform="translate(0 18)">
    <g transform="translate(5.5 0)">
      <rect width="34" height="113" rx="5" fill="#fafafa"/>
      <rect width="34" height="10" fill="#fafafa" transform="translate(0 103)"/>
      <use id="GATE1_PARAM" xlink:href="#button" transform="translate(8 4)"/>
      <use id="GATE1_INPUT" xlink:href="#input" transform="translate(5 26)"/>
      <text font-size="5pt" letter-spacing="2px" transform="translate(5 58)">GATE</text>
      <text font-size="5pt" letter-spacing="0.3px" transform="translate(1 71)">LATCH</text>
      <use id="LATCH1_PARAM" xlink:href="#button-small" transform="translate(24 64)"/>
      <use id="IN1_INPUT" xlink:href="#input" transform="translate(5 78)"/>
      <text font-size="5pt" letter-spacing="1px" transform="translate(13 110)">IN</text>
    </g>
    <g transform="translate(5.5 113)">
      <rect width="34" height="10" fill="#bbb" transform="translate(0 0)"/>
      <rect width="34" height="39" rx="5" fill="#bbb"/>
      <use id="OUT1_OUTPUT" xlink:href="#output" transform="translate(5 3)"/>
      <text font-size="5pt" letter-spacing="1px" transform="translate(14 35)">OUT</text>
      <use id="LOW1_LIGHT" xlink:href="#light-small" transform="translate(5 29.3)"/>
      <use id="HIGH1_LIGHT" xlink:href="#light-small" transform="translate(5 29.3)"/>
    </g>
  </g>

  <g transform="translate(0 183)">
    <g transform="translate(5.5 0)">
      <rect width="34" height="113" rx="5" fill="#fafafa"/>
      <rect width="34" height="10" fill="#fafafa" transform="translate(0 103)"/>
      <use id="GATE2_PARAM" xlink:href="#button" transform="translate(8 4)"/>
      <use id="GATE2_INPUT" xlink:href="#input" transform="translate(5 26)"/>
      <text font-size="5pt" letter-spacing="2px" transform="translate(5 58)">GATE</text>
      <text font-size="5pt" letter-spacing="0.3px" transform="translate(1 71)">LATCH</text>
      <use id="LATCH2_PARAM" xlink:href="#button-small" transform="translate(24 64)"/>
      <use id="IN2_INPUT" xlink:href="#input" transform="translate(5 78)"/>
      <text font-size="5pt" letter-spacing="1px" transform="translate(13 110)">IN</text>
    </g>
    <g transform="translate(5.5 113)">
      <rect width="34" height="10" fill="#bbb" transform="translate(0 0)"/>
      <rect width="34" height="39" rx="5" fill="#bbb"/>
      <use id="OUT2_OUTPUT" xlink:href="#output" transform="translate(5 3)"/>
      <text font-size="5pt" letter-spacing="1px" transform="translate(14 35)">OUT</text>
      <use id="LOW2_LIGHT" xlink:href="#light-small" transform="translate(5 29.3)"/>
      <use id="HIGH2_LIGHT" xlink:href="#light-small" transform="translate(5 29.3)"/>
    </g>
  </g>
</svg>
