<?xml version="1.0"?>
<svg xmlns="http://www.w3.org/2000/svg" xmlns:xlink="http://www.w3.org/1999/xlink" version="1.1" width="150" height="380" viewBox="0 0 150 380">
  <style>
    text {
      fill: #333;
      font-family: 'Roboto', sans-serif;
      font-weight: bold;
    }
    text.title {
      font-family: 'Comfortaa', sans-serif;
      font-weight: normal;
    }
    text.brand {
      font-family: 'Audiowide', sans-serif;
      font-weight: bold;
    }
  </style>

  <defs>
    <symbol id="knob19" viewBox="0 0 20px 20px">
      <g transform="translate(10 10)">
        <polyline points="-3,0 3,0" stroke-width="1" stroke="#00f"/>
        <polyline points="0,-3 0,3" stroke-width="1" stroke="#00f"/>
        <circle cx="0" cy="0" r="9.3" stroke-width="1" stroke="#00f" fill="none"/>
      </g>
    </symbol>

    <symbol id="knobguide-centertick19" viewBox="0 0 40px 40px">
      <g transform="translate(20 20)">
        <polyline points="0,0 4,0" stroke-width="1" stroke="#333" transform="rotate(-90) translate(11.5 0)"/>
        <path d="M 0 -13.5 A 13.5 13.5 0 0 1 13.5 0" stroke="#333" stroke-width="0.5" stroke-linecap="round" fill="none" transform="rotate(20)"/>
        <path d="M 0 -13.5 A 13.5 13.5 0 0 1 13.5 0" stroke="#333" stroke-width="0.5" stroke-linecap="round" fill="none" transform="rotate(43)"/>
        <path d="M 0 -13.5 A 13.5 13.5 0 0 0 -13.5 0" stroke="#333" stroke-width="0.5" stroke-linecap="round" fill="none" transform="rotate(-20)"/>
        <path d="M 0 -13.5 A 13.5 13.5 0 0 0 -13.5 0" stroke="#333" stroke-width="0.5" stroke-linecap="round" fill="none" transform="rotate(-43)"/>
      </g>
    </symbol>

    <symbol id="input" viewBox="0 0 24px 24px">
      <g transform="translate(12 12)">
        <circle cx="0" cy="0" r="5" stroke-width="1" stroke="#0f0" fill="#0f0"/>
        <circle cx="0" cy="0" r="10.5" stroke-width="3" stroke="#0f0" fill="none"/>
      </g>
    </symbol>

    <symbol id="output" viewBox="0 0 24px 24px">
      <g transform="translate(12 12)">
        <circle cx="0" cy="0" r="5" stroke-width="1" stroke="#f00" fill="#f00"/>
        <circle cx="0" cy="0" r="10.5" stroke-width="3" stroke="#f00" fill="none"/>
      </g>
    </symbol>
  </defs>

  <rect width="100%" height="100%" fill="#ddd"/>
  <polyline points="1,1 149,1 149,379 1,379 1,1" stroke="#e4e4e4" stroke-width="0.5" fill="none"/>
  <polyline points="0.5,0.5 149.5,0.5 149.5,379.5 0.5,379.5 0.5,0.5" stroke="#ebebeb" stroke-width="0.8" fill="none"/>
  <polyline points="0,0 150,0 150,380 0,380 0,0" stroke="#f2f2f2" stroke-width="1" fill="none"/>

  <!-- <rect width="150" height="24" fill="#0f0" transform="translate(0 0)" /> -->
  <!-- <rect width="150" height="22" fill="#0f0" transform="translate(0 22)" /> -->
  <!-- <rect width="150" height="22" fill="#0f0" transform="translate(0 78)" /> -->
  <!-- <rect width="150" height="22" fill="#0f0" transform="translate(0 134)" /> -->
  <!-- <rect width="150" height="22" fill="#0f0" transform="translate(0 190)" /> -->
  <!-- <rect width="150" height="22" fill="#0f0" transform="translate(0 245)" /> -->

  <text class="title" x="19" y="19" font-size="12pt" letter-spacing="4px">MATRIX44</text>
  <g transform="translate(35.5 374)">
    <text class="brand" font-size="8pt" letter-spacing="2px">BOGAUDIO</text>
    <rect width="3.0" height="3" fill="#ddd" transform="translate(24 -5)"/>
  </g>

  <g transform="translate(13.5 42.5)">
    <text font-size="6pt" letter-spacing="2px" transform="translate(7.5 6)">1A</text>
    <use id="MIX11_PARAM" xlink:href="#knob19" transform="translate(3.5 16)"/>
    <use xlink:href="#knobguide-centertick19" transform="translate(-6.5 6)"/>
  </g>
  <g transform="translate(13.5 99)">
    <text font-size="6pt" letter-spacing="2px" transform="translate(7.5 6)">2A</text>
    <use id="MIX21_PARAM" xlink:href="#knob19" transform="translate(3.5 16)"/>
    <use xlink:href="#knobguide-centertick19" transform="translate(-6.5 6)"/>
  </g>
  <g transform="translate(13.5 155)">
    <text font-size="6pt" letter-spacing="2px" transform="translate(7.5 6)">3A</text>
    <use id="MIX31_PARAM" xlink:href="#knob19" transform="translate(3.5 16)"/>
    <use xlink:href="#knobguide-centertick19" transform="translate(-6.5 6)"/>
  </g>
  <g transform="translate(13.5 211)">
    <text font-size="6pt" letter-spacing="2px" transform="translate(7.5 6)">4A</text>
    <use id="MIX41_PARAM" xlink:href="#knob19" transform="translate(3.5 16)"/>
    <use xlink:href="#knobguide-centertick19" transform="translate(-6.5 6)"/>
  </g>

  <g transform="translate(45.5 42.5)">
    <text font-size="6pt" letter-spacing="2px" transform="translate(7.5 6)">1B</text>
    <use id="MIX12_PARAM" xlink:href="#knob19" transform="translate(3.5 16)"/>
    <use xlink:href="#knobguide-centertick19" transform="translate(-6.5 6)"/>
  </g>
  <g transform="translate(45.5 99)">
    <text font-size="6pt" letter-spacing="2px" transform="translate(7.5 6)">2B</text>
    <use id="MIX22_PARAM" xlink:href="#knob19" transform="translate(3.5 16)"/>
    <use xlink:href="#knobguide-centertick19" transform="translate(-6.5 6)"/>
  </g>
  <g transform="translate(45.5 155)">
    <text font-size="6pt" letter-spacing="2px" transform="translate(7.5 6)">3B</text>
    <use id="MIX32_PARAM" xlink:href="#knob19" transform="translate(3.5 16)"/>
    <use xlink:href="#knobguide-centertick19" transform="translate(-6.5 6)"/>
  </g>
  <g transform="translate(45.5 211)">
    <text font-size="6pt" letter-spacing="2px" transform="translate(7.5 6)">4B</text>
    <use id="MIX42_PARAM" xlink:href="#knob19" transform="translate(3.5 16)"/>
    <use xlink:href="#knobguide-centertick19" transform="translate(-6.5 6)"/>
  </g>

  <g transform="translate(77.5 42.5)">
    <text font-size="6pt" letter-spacing="2px" transform="translate(7.5 6)">1C</text>
    <use id="MIX13_PARAM" xlink:href="#knob19" transform="translate(3.5 16)"/>
    <use xlink:href="#knobguide-centertick19" transform="translate(-6.5 6)"/>
  </g>
  <g transform="translate(77.5 99)">
    <text font-size="6pt" letter-spacing="2px" transform="translate(7.5 6)">2C</text>
    <use id="MIX23_PARAM" xlink:href="#knob19" transform="translate(3.5 16)"/>
    <use xlink:href="#knobguide-centertick19" transform="translate(-6.5 6)"/>
  </g>
  <g transform="translate(77.5 155)">
    <text font-size="6pt" letter-spacing="2px" transform="translate(7.5 6)">3C</text>
    <use id="MIX33_PARAM" xlink:href="#knob19" transform="translate(3.5 16)"/>
    <use xlink:href="#knobguide-centertick19" transform="translate(-6.5 6)"/>
  </g>
  <g transform="translate(77.5 211)">
    <text font-size="6pt" letter-spacing="2px" transform="translate(7.5 6)">4C</text>
    <use id="MIX43_PARAM" xlink:href="#knob19" transform="translate(3.5 16)"/>
    <use xlink:href="#knobguide-centertick19" transform="translate(-6.5 6)"/>
  </g>

  <g transform="translate(109.5 42.5)">
    <text font-size="6pt" letter-spacing="2px" transform="translate(7.5 6)">1D</text>
    <use id="MIX14_PARAM" xlink:href="#knob19" transform="translate(3.5 16)"/>
    <use xlink:href="#knobguide-centertick19" transform="translate(-6.5 6)"/>
  </g>
  <g transform="translate(109.5 99)">
    <text font-size="6pt" letter-spacing="2px" transform="translate(7.5 6)">2D</text>
    <use id="MIX24_PARAM" xlink:href="#knob19" transform="translate(3.5 16)"/>
    <use xlink:href="#knobguide-centertick19" transform="translate(-6.5 6)"/>
  </g>
  <g transform="translate(109.5 155)">
    <text font-size="6pt" letter-spacing="2px" transform="translate(7.5 6)">3D</text>
    <use id="MIX34_PARAM" xlink:href="#knob19" transform="translate(3.5 16)"/>
    <use xlink:href="#knobguide-centertick19" transform="translate(-6.5 6)"/>
  </g>
  <g transform="translate(109.5 211)">
    <text font-size="6pt" letter-spacing="2px" transform="translate(7.5 6)">4D</text>
    <use id="MIX44_PARAM" xlink:href="#knob19" transform="translate(3.5 16)"/>
    <use xlink:href="#knobguide-centertick19" transform="translate(-6.5 6)"/>
  </g>

  <g transform="translate(0 269)">
    <rect width="130" height="91" rx="5" fill="#bbb" transform="translate(10 0)"/>
    <rect width="130" height="44" rx="5" fill="#fafafa" transform="translate(10 0)"/>
    <rect width="130" height="10" fill="#fafafa" transform="translate(10 34)"/>

    <g transform="translate(12 0)">
      <use id="IN1_INPUT" xlink:href="#input" transform="translate(3 5)"/>
      <text font-size="6pt" letter-spacing="1px" transform="translate(12.5 40)">1</text>
    </g>
    <g transform="translate(44 0)">
      <use id="IN2_INPUT" xlink:href="#input" transform="translate(3 5)"/>
      <text font-size="6pt" letter-spacing="1px" transform="translate(12.5 40)">2</text>
    </g>
    <g transform="translate(76 0)">
      <use id="IN3_INPUT" xlink:href="#input" transform="translate(3 5)"/>
      <text font-size="6pt" letter-spacing="1px" transform="translate(12.5 40)">3</text>
    </g>
    <g transform="translate(108 0)">
      <use id="IN4_INPUT" xlink:href="#input" transform="translate(3 5)"/>
      <text font-size="6pt" letter-spacing="1px" transform="translate(12.4 40)">4</text>
    </g>

    <g transform="translate(10 44)">
      <g transform="translate(2 0)">
        <use id="OUT1_OUTPUT" xlink:href="#output" transform="translate(3 5)"/>
        <text font-size="6pt" letter-spacing="1px" transform="translate(12.2 40)">A</text>
      </g>
      <g transform="translate(34 0)">
        <use id="OUT2_OUTPUT" xlink:href="#output" transform="translate(3 5)"/>
        <text font-size="6pt" letter-spacing="1px" transform="translate(12.5 40)">B</text>
      </g>
      <g transform="translate(66 0)">
        <use id="OUT3_OUTPUT" xlink:href="#output" transform="translate(3 5)"/>
        <text font-size="6pt" letter-spacing="1px" transform="translate(12.3 40)">C</text>
      </g>
      <g transform="translate(98 0)">
        <use id="OUT4_OUTPUT" xlink:href="#output" transform="translate(3 5)"/>
        <text font-size="6pt" letter-spacing="1px" transform="translate(12.3 40)">D</text>
      </g>
    </g>
  </g>

  <!-- <polyline points="0,0 0,380" stroke-width="1" stroke="#0f0" transform="translate(27 0)" /> -->
  <!-- <polyline points="0,0 0,380" stroke-width="1" stroke="#0f0" transform="translate(59 0)" /> -->
  <!-- <polyline points="0,0 0,380" stroke-width="1" stroke="#0f0" transform="translate(91 0)" /> -->
  <!-- <polyline points="0,0 0,380" stroke-width="1" stroke="#0f0" transform="translate(123 0)" /> -->
</svg>
