<?xml version="1.0"?>
<svg xmlns="http://www.w3.org/2000/svg" xmlns:xlink="http://www.w3.org/1999/xlink" version="1.1" width="75" height="380" viewBox="0 0 75 380">
  <style/>

  <defs>
    <def id="slider-151"/>
    <def id="sliderdial-db-151"/>
    <def id="button"/>
    <def id="input"/>
    <def id="output"/>
  </defs>

  <rect width="100%" height="100%" fill="#ddd"/>
  <polyline points="1,1 74,1 74,379 1,379 1,1" stroke="#e4e4e4" stroke-width="0.5" fill="none"/>
  <polyline points="0.5,0.5 74.5,0.5 74.5,379.5 0.5,379.5 0.5,0.5" stroke="#ebebeb" stroke-width="0.8" fill="none"/>
  <polyline points="0,0 75,0 75,380 0,380 0,0" stroke="#f2f2f2" stroke-width="1" fill="none"/>

  <text class="title" x="30" y="17" font-size="9pt" letter-spacing="3px">MIX2</text>
  <g transform="translate(25 374)">
    <text class="brand" font-size="6.5pt" letter-spacing="2px">BGA</text>
    <rect width="2" height="2" fill="#ddd" transform="translate(11.5 -4)"/>
  </g>

  <g transform="translate(0 32)">
    <use xlink:href="#sliderdial-db-151" transform="translate(15 0)"/>
    <use id="LEVEL_PARAM" xlink:href="#slider-151" transform="translate(28.5 0)"/>
  </g>

  <g transform="translate(15 197)">
    <use id="MUTE_PARAM" xlink:href="#button" transform="translate(13.5 0)"/>
    <text font-size="5pt" letter-spacing="2px" transform="translate(10 27)">MUTE</text>
  </g>

  <g transform="translate(0 240)">
    <g transform="translate(5.5 0)">
      <rect width="64" height="10" fill="#fafafa" transform="translate(0 66)"/>
      <rect width="64" height="73" rx="5" fill="#fafafa"/>
      <use id="LEVEL_INPUT" xlink:href="#input" transform="translate(5 4)"/>
      <text font-size="5pt" letter-spacing="1.5px" transform="translate(4.5 36)">LEVEL</text>
      <use id="MUTE_INPUT" xlink:href="#input" transform="translate(35 4)"/>
      <text font-size="5pt" letter-spacing="1.5px" transform="translate(35.5 36)">MUTE</text>
      <use id="L_INPUT" xlink:href="#input" transform="translate(5 40)"/>
      <text font-size="5pt" letter-spacing="2px" transform="translate(15 72)">L</text>
      <use id="R_INPUT" xlink:href="#input" transform="translate(35 40)"/>
      <text font-size="5pt" letter-spacing="0.5px" transform="translate(39 72)">R (L)</text>
    </g>
    <g transform="translate(5.5 79)">
      <rect width="64" height="10" fill="#bbb" transform="translate(0 -3)"/>
      <rect width="64" height="37" rx="5" fill="#bbb"/>
      <use id="L_OUTPUT" xlink:href="#output" transform="translate(5 1)"/>
      <text font-size="5pt" letter-spacing="2px" transform="translate(15 33)">L</text>
      <use id="R_OUTPUT" xlink:href="#output" transform="translate(35 1)"/>
      <text font-size="5pt" letter-spacing="2px" transform="translate(45 33)">R</text>
    </g>
  </g>
</svg>
