<svg
  version="1.1"
  xmlns="http://www.w3.org/2000/svg"
  xmlns:xlink="http://www.w3.org/1999/xlink"
  width="225"
  height="380"
  viewBox="0 0 225 380"
>
  <style>
    text {
      fill: #333;
      font-family: 'Roboto', sans-serif;
      font-weight: bold;
    }
    text.title {
      font-family: 'Comfortaa', sans-serif;
      font-weight: normal;
    }
    text.brand {
      font-family: 'Audiowide', sans-serif;
      font-weight: bold;
    }
  </style>

  <defs>
    <symbol id="slider" viewBox="0 0 18px 183px">
      <rect width="6" height="177" x="6" y="3" rx="2" stroke-width="1" stroke="#888" fill="#222" />
      <g transform="translate(0 85)">
        <rect width="18" height="13" rx="1.5" fill="#777" />
        <rect width="18" height="9" x="0" y="2" fill="#444" />
        <polyline points="0,6.5 18,6.5" stroke="#fafafa" stroke-width="1" fill="none" />
        <rect width="14" height="5" x="2" y="4" rx="1.0" fill="#ddd" transform="translate(0 0)" />
      </g>
    </symbol>

    <symbol id="sliderguide-db" viewBox="0 0 20px 183px">
      <g transform="translate(0 6.5)">
        <polyline points="0,0 6.5,0" stroke="#333" fill="none" transform="translate(10.5 0)" />
        <polyline points="0,0 6.5,0" stroke="#333" fill="none" transform="translate(28 0)" />
      </g>
      <g transform="translate(0 20.67)">
        <polyline points="0,0 6.5,0" stroke="#333" fill="none" transform="translate(10.5 0)" />
        <polyline points="0,0 6.5,0" stroke="#333" fill="none" transform="translate(28 0)" />
        <text font-size="6.0pt" transform="translate(7 0) rotate(0) translate(-2.5 2.6)">6</text>
      </g>
      <g transform="translate(0 34.83)">
        <polyline points="0,0 6.5,0" stroke="#333" fill="none" transform="translate(10.5 0)" />
        <polyline points="0,0 6.5,0" stroke="#333" fill="none" transform="translate(28 0)" />
        <text font-size="6.0pt" transform="translate(7 0) rotate(0) translate(-2.5 2.6)">0</text>
      </g>
      <g transform="translate(0 49)">
        <polyline points="0,0 6.5,0" stroke="#333" fill="none" transform="translate(10.5 0)" />
        <polyline points="0,0 6.5,0" stroke="#333" fill="none" transform="translate(28 0)" />
        <text font-size="6.0pt" transform="translate(7 0) rotate(-90) translate(-4 2.2)">-6</text>
      </g>
      <g transform="translate(0 63.17)">
        <polyline points="0,0 6.5,0" stroke="#333" fill="none" transform="translate(10.5 0)" />
        <polyline points="0,0 6.5,0" stroke="#333" fill="none" transform="translate(28 0)" />
        <text font-size="6.0pt" transform="translate(7 0) rotate(-90) translate(-7 2.2)">-12</text>
      </g>
      <g transform="translate(0 91.5)">
        <polyline points="0,0 6.5,0" stroke="#333" fill="none" transform="translate(10.5 0)" />
        <polyline points="0,0 6.5,0" stroke="#333" fill="none" transform="translate(28 0)" />
        <text font-size="6.0pt" transform="translate(7 0) rotate(-90) translate(-7 2.2)">-24</text>
      </g>
      <g transform="translate(0 148.17)">
        <polyline points="0,0 6.5,0" stroke="#333" fill="none" transform="translate(10.5 0)" />
        <polyline points="0,0 6.5,0" stroke="#333" fill="none" transform="translate(28 0)" />
        <text font-size="6.0pt" transform="translate(7 0) rotate(-90) translate(-7 2.2)">-48</text>
      </g>
      <g transform="translate(0 170)">
        <text font-size="6.0pt" transform="translate(7 0) rotate(-90) translate(-9 4)">dB</text>
      </g>
    </symbol>

    <symbol id="knob-smallest" viewBox="0 0 16px 16px">
      <g transform="translate(8 8)">
        <polyline points="-3,0 3,0" stroke-width="1" stroke="#00f" />
        <polyline points="0,-3 0,3" stroke-width="1" stroke="#00f" />
        <circle r="7.5" stroke-width="1" stroke="#00f" fill="none" />
      </g>
    </symbol>

    <symbol id="knobguide-centertick" viewBox="0 0 40px 40px">
      <g transform="translate(20 20)">
        <g transform="rotate(-90) translate(10 0)">
          <polyline points="0,0 4,0" stroke-width="1" stroke="#333" />
        </g>
        <path d="M 0 -12.5 A 12.5 12.5 0 0 1 12.5 0" stroke="#333" stroke-width="0.5" stroke-linecap="round" fill="none" transform="rotate(20)" />
        <path d="M 0 -12.5 A 12.5 12.5 0 0 1 12.5 0" stroke="#333" stroke-width="0.5" stroke-linecap="round" fill="none" transform="rotate(43)" />
        <path d="M 0 -12.5 A 12.5 12.5 0 0 0 -12.5 0" stroke="#333" stroke-width="0.5" stroke-linecap="round" fill="none" transform="rotate(-20)" />
        <path d="M 0 -12.5 A 12.5 12.5 0 0 0 -12.5 0" stroke="#333" stroke-width="0.5" stroke-linecap="round" fill="none" transform="rotate(-43)" />
      </g>
    </symbol>

    <symbol id="button" viewBox="0 0 20px 20px">
      <g transform="translate(10 10)">
        <circle cx="0" cy="0" r="8.8" stroke-width="1" stroke="#00f" fill="#f00" />
      </g>
    </symbol>

    <symbol id="input" viewBox="0 0 24px 24px">
      <g transform="translate(12 12)">
        <circle cx="0" cy="0" r="5" stroke-width="1" stroke="#0f0" fill="#0f0" />
        <circle cx="0" cy="0" r="10.5" stroke-width="3" stroke="#0f0" fill="none" />
      </g>
    </symbol>

    <symbol id="output" viewBox="0 0 24px 24px">
      <g transform="translate(12 12)">
        <circle cx="0" cy="0" r="5" stroke-width="1" stroke="#f00" fill="#f00" />
        <circle cx="0" cy="0" r="10.5" stroke-width="3" stroke="#f00" fill="none" />
      </g>
    </symbol>
  </defs>

  <rect width="100%" height="100%" fill="#ddd" />
  <polyline points="1,1 269,1 269,379 1,379 1,1" stroke="#e4e4e4" stroke-width="0.5" fill="none" />
  <polyline points="0.5,0.5 269.5,0.5 269.5,379.5 0.5,379.5 0.5,0.5" stroke="#ebebeb" stroke-width="0.8" fill="none" />
  <polyline points="0,0 270,0 270,380 0,380 0,0" stroke="#f2f2f2" stroke-width="1" fill="none" />

  <!-- <rect width="85" height="20" fill="#0f0" transform="translate(0 0)" /> -->
  <!-- <rect width="85" height="20" fill="#0f0" transform="translate(140 0)" /> -->
  <!-- <polyline points="0,0 0,380" stroke="#0f0" stroke-width="1" fill="none" transform="translate(10 0)" /> -->
  <!-- <polyline points="0,0 0,380" stroke="#0f0" stroke-width="1" fill="none" transform="translate(215 0)" /> -->

  <text class="title" x="85" y="19" font-size="12pt" letter-spacing="4px">MIX4</text>
  <g transform="translate(72.5 374)">
    <text class="brand" font-size="8pt" letter-spacing="2px">BOGAUDIO</text>
    <rect width="3.0" height="3" fill="#ddd" transform="translate(24 -5)" />
  </g>

  <g transform="translate(4 20)">
    <!-- <rect width="39" height="344" fill="#ccc" transform="translate(3 0)" /> -->
    <text font-size="5pt" letter-spacing="2px" transform="translate(13.7 9)">CH1</text>
    <use xlink:href="#sliderguide-db" transform="translate(0 10)" />
    <use id="LEVEL1_PARAM" xlink:href="#slider" transform="translate(13.5 10)" />
    <use id="PAN1_PARAM" xlink:href="#knob-smallest" transform="translate(14.5 201)" />
    <use xlink:href="#knobguide-centertick" transform="translate(2.5 189)" />
    <text font-size="5pt" letter-spacing="2px" transform="translate(14 226)">PAN</text>
    <use id="MUTE1_PARAM" xlink:href="#button" transform="translate(12.5 232)" />
    <text font-size="5pt" letter-spacing="2px" transform="translate(10 260)">MUTE</text>
    <g transform="translate(5.5 267)">
      <rect width="34" height="73" rx="5" fill="#fafafa" />
      <use id="CV1_INPUT" xlink:href="#input" transform="translate(5 3)" />
      <text font-size="5pt" letter-spacing="2px" transform="translate(11 35)">CV</text>
      <use id="IN1_INPUT" xlink:href="#input" transform="translate(5 38)" />
      <text font-size="5pt" letter-spacing="2px" transform="translate(12.5 70)">IN</text>
    </g>
    <!-- <rect width="8" height="40" fill="#f00" transform="translate(39.5 300)" /> -->
  </g>

  <g transform="translate(47 20)">
    <!-- <rect width="39" height="344" fill="#ccc" transform="translate(3 0)" /> -->
    <text font-size="5pt" letter-spacing="2px" transform="translate(13.7 9)">CH2</text>
    <use xlink:href="#sliderguide-db" transform="translate(0 10)" />
    <use id="LEVEL2_PARAM" xlink:href="#slider" transform="translate(13.5 10)" />
    <use id="PAN2_PARAM" xlink:href="#knob-smallest" transform="translate(14.5 201)" />
    <use xlink:href="#knobguide-centertick" transform="translate(2.5 189)" />
    <text font-size="5pt" letter-spacing="2px" transform="translate(14 226)">PAN</text>
    <use id="MUTE2_PARAM" xlink:href="#button" transform="translate(12.5 232)" />
    <text font-size="5pt" letter-spacing="2px" transform="translate(10 260)">MUTE</text>
    <g transform="translate(5.5 267)">
      <rect width="34" height="73" rx="5" fill="#fafafa" />
      <use id="CV2_INPUT" xlink:href="#input" transform="translate(5 3)" />
      <text font-size="5pt" letter-spacing="2px" transform="translate(11 35)">CV</text>
      <use id="IN2_INPUT" xlink:href="#input" transform="translate(5 38)" />
      <text font-size="5pt" letter-spacing="2px" transform="translate(12.5 70)">IN</text>
    </g>
    <!-- <rect width="8" height="40" fill="#f00" transform="translate(39.5 300)" /> -->
  </g>

  <g transform="translate(90 20)">
    <!-- <rect width="39" height="344" fill="#ccc" transform="translate(3 0)" /> -->
    <text font-size="5pt" letter-spacing="2px" transform="translate(13.7 9)">CH3</text>
    <use xlink:href="#sliderguide-db" transform="translate(0 10)" />
    <use id="LEVEL3_PARAM" xlink:href="#slider" transform="translate(13.5 10)" />
    <use id="PAN3_PARAM" xlink:href="#knob-smallest" transform="translate(14.5 201)" />
    <use xlink:href="#knobguide-centertick" transform="translate(2.5 189)" />
    <text font-size="5pt" letter-spacing="2px" transform="translate(14 226)">PAN</text>
    <use id="MUTE3_PARAM" xlink:href="#button" transform="translate(12.5 232)" />
    <text font-size="5pt" letter-spacing="2px" transform="translate(10 260)">MUTE</text>
    <g transform="translate(5.5 267)">
      <rect width="34" height="73" rx="5" fill="#fafafa" />
      <use id="CV3_INPUT" xlink:href="#input" transform="translate(5 3)" />
      <text font-size="5pt" letter-spacing="2px" transform="translate(11 35)">CV</text>
      <use id="IN3_INPUT" xlink:href="#input" transform="translate(5 38)" />
      <text font-size="5pt" letter-spacing="2px" transform="translate(12.5 70)">IN</text>
    </g>
    <!-- <rect width="8" height="40" fill="#f00" transform="translate(39.5 300)" /> -->
  </g>

  <g transform="translate(133 20)">
    <!-- <rect width="39" height="344" fill="#ccc" transform="translate(3 0)" /> -->
    <text font-size="5pt" letter-spacing="2px" transform="translate(13.7 9)">CH4</text>
    <use xlink:href="#sliderguide-db" transform="translate(0 10)" />
    <use id="LEVEL4_PARAM" xlink:href="#slider" transform="translate(13.5 10)" />
    <use id="PAN4_PARAM" xlink:href="#knob-smallest" transform="translate(14.5 201)" />
    <use xlink:href="#knobguide-centertick" transform="translate(2.5 189)" />
    <text font-size="5pt" letter-spacing="2px" transform="translate(14 226)">PAN</text>
    <use id="MUTE4_PARAM" xlink:href="#button" transform="translate(12.5 232)" />
    <text font-size="5pt" letter-spacing="2px" transform="translate(10 260)">MUTE</text>
    <g transform="translate(5.5 267)">
      <rect width="34" height="73" rx="5" fill="#fafafa" />
      <use id="CV4_INPUT" xlink:href="#input" transform="translate(5 3)" />
      <text font-size="5pt" letter-spacing="2px" transform="translate(11 35)">CV</text>
      <use id="IN4_INPUT" xlink:href="#input" transform="translate(5 38)" />
      <text font-size="5pt" letter-spacing="2px" transform="translate(12.5 70)">IN</text>
    </g>
    <!-- <rect width="8" height="40" fill="#f00" transform="translate(39.5 300)" /> -->
  </g>

  <g transform="translate(176 20)">
    <!-- <rect width="39" height="344" fill="#ccc" transform="translate(3 0)" /> -->
    <text font-size="5pt" letter-spacing="2px" transform="translate(13.7 9)">MIX</text>
    <use xlink:href="#sliderguide-db" transform="translate(0 10)" />
    <use id="MIX_PARAM" xlink:href="#slider" transform="translate(13.5 10)" />
    <g transform="translate(5.5 230)">
      <rect width="34" height="50" rx="5" fill="#fafafa" />
      <use id="MIX_CV_INPUT" xlink:href="#input" transform="translate(5 3)" />
      <text font-size="5pt" letter-spacing="2px" transform="translate(11 35)">CV</text>
      <rect width="34" height="73" rx="5" fill="#bbb" transform="translate(0 38)" />
      <rect width="34" height="5" fill="#bbb" transform="translate(0 38)" />
      <use id="L_OUTPUT" xlink:href="#output" transform="translate(5 41)" />
      <text font-size="5pt" letter-spacing="2px" transform="translate(15.5 73)">L</text>
      <use id="R_OUTPUT" xlink:href="#output" transform="translate(5 76)" />
      <text font-size="5pt" letter-spacing="2px" transform="translate(15 108)">R</text>
    </g>
  </g>
</svg>
