<?xml version="1.0"?>
<svg xmlns="http://www.w3.org/2000/svg" xmlns:xlink="http://www.w3.org/1999/xlink" version="1.1" width="690" height="380" viewBox="0 0 690 380">
  <style/>

  <defs>
    <import id="slider-151"/>
    <import id="sliderdial-db-151"/>
    <import id="knob16"/>
    <import id="dial-centertick"/>
    <import id="dial-mintick"/>
    <import id="dial-frequency-16"/>
    <import id="input"/>
    <import id="output"/>
    <import id="button-small"/>
    <import id="light-small"/>
  </defs>

  <rect width="100%" height="100%" fill="#ddd"/>
  <polyline points="1,1 689,1 689,379 1,379 1,1" stroke="#e4e4e4" stroke-width="0.5" fill="none"/>
  <polyline points="0.5,0.5 689.5,0.5 689.5,379.5 0.5,379.5 0.5,0.5" stroke="#ebebeb" stroke-width="0.8" fill="none"/>
  <polyline points="0,0 690,0 690,380 0,380 0,0" stroke="#f2f2f2" stroke-width="1" fill="none"/>

  <!-- <polyline points="0,0 0,380" stroke="#0f0" stroke-width="1" fill="none" transform="translate(75 0)" /> -->

  <!-- <rect width="80" height="23" fill="#f0f" transform="translate(20 360)" /> -->
  <text class="title" x="311.5" y="19" font-size="12pt" letter-spacing="4px">PEQ14</text>
  <g transform="translate(305 374)">
    <text class="brand" font-size="8pt" letter-spacing="2px">BOGAUDIO</text>
    <rect width="3.0" height="3" fill="#ddd" transform="translate(24 -5)"/>
  </g>

  <g transform="translate(6.5 48)">
    <!-- <rect width="62" height="40" fill="#f0f" transform="translate(0 0)" /> -->
    <use id="FREQUENCY_CV_PARAM" xlink:href="#knob16" transform="translate(40.5 11)"/>
    <use xlink:href="#dial-centertick" transform="translate(28.5 -1)"/>
    <text font-size="5pt" letter-spacing="2px" transform="translate(40 37)">FCV</text>
    <rect width="30" height="30" rx="5" fill="#fafafa" transform="translate(0 5)"/>
    <use id="FREQUENCY_CV_INPUT" xlink:href="#input" transform="translate(3 8)"/>
    <!-- <rect width="62" height="25" fill="#0f0" transform="translate(0 40)" /> -->
  </g>

  <g transform="translate(6.5 113)">
    <!-- <rect width="62" height="40" fill="#f0f" transform="translate(0 0)" /> -->
    <use id="BANDWIDTH_PARAM" xlink:href="#knob16" transform="translate(40.5 8)"/>
    <use xlink:href="#dial-mintick" transform="translate(28.5 -4)"/>
    <text font-size="5pt" letter-spacing="2px" transform="translate(42.5 37)">BW</text>
    <rect width="30" height="30" rx="5" fill="#fafafa" transform="translate(0 5)"/>
    <use id="BANDWIDTH_INPUT" xlink:href="#input" transform="translate(3 8)"/>
    <!-- <rect width="62" height="25" fill="#0f0" transform="translate(0 40)" /> -->
  </g>

  <g transform="translate(17.5 179)">
    <!-- <rect width="40" height="23" fill="#f0f" transform="translate(0 0)" /> -->
    <text font-size="5pt" letter-spacing="1px" transform="translate(0 8.5)">CH1-LP</text>
    <use id="LP_PARAM" xlink:href="#button-small" transform="translate(31 1)"/>
    <text font-size="5pt" letter-spacing="0.5px" transform="translate(-3 20.5)">CH14-HP</text>
    <use id="HP_PARAM" xlink:href="#button-small" transform="translate(31 13)"/>
    <!-- <rect width="62" height="25" fill="#0f0" transform="translate(0 23)" /> -->
  </g>

  <g transform="translate(18.5 227)">
    <!-- <rect width="38" height="35" fill="#f0f" transform="translate(0 0)" /> -->
    <text font-size="5pt" letter-spacing="1px" transform="translate(5 34.5) rotate(-90)">FCV RNG</text>
    <use id="FMOD_RELATIVE_LIGHT" xlink:href="#light-small" transform="translate(10 1)"/>
    <text font-size="5pt" letter-spacing="0.5px" transform="translate(18.5 6.7)">OCTV</text>
    <use id="FMOD_FULL_LIGHT" xlink:href="#light-small" transform="translate(10 14)"/>
    <text font-size="5pt" letter-spacing="0.5px" transform="translate(18.5 19.7)">FULL</text>
    <use id="FMOD_PARAM" xlink:href="#button-small" transform="translate(14 25)"/>
    <!-- <rect width="62" height="25" fill="#0f0" transform="translate(0 35)" /> -->
  </g>

  <g transform="translate(5.5 287)">
    <rect width="64" height="73" rx="5" fill="#bbb"/>
    <rect width="32" height="36.5" rx="5" fill="#fafafa"/>
    <rect width="32" height="10" fill="#fafafa" transform="translate(0 26.5)"/>
    <rect width="10" height="36.5" fill="#fafafa" transform="translate(22 0)"/>
    <use id="IN_INPUT" xlink:href="#input" transform="translate(5 3)"/>
    <text font-size="5pt" letter-spacing="2px" transform="translate(12.5 35)">IN</text>
    <use id="ODDS_OUTPUT" xlink:href="#output" transform="translate(35 3)"/>
    <text font-size="5pt" letter-spacing="2px" transform="translate(38.5 35)">ODD</text>
    <use id="OUT_OUTPUT" xlink:href="#output" transform="translate(5 38)"/>
    <text font-size="5pt" letter-spacing="2px" transform="translate(8 70)">OUT</text>
    <use id="EVENS_OUTPUT" xlink:href="#output" transform="translate(35 38)"/>
    <text font-size="5pt" letter-spacing="2px" transform="translate(36 70)">EVEN</text>
  </g>

  <g transform="translate(74 20)">
    <text font-size="5pt" letter-spacing="2px" transform="translate(20.5 8)">1</text>
    <use xlink:href="#sliderdial-db-151" transform="translate(0 8)"/>
    <use id="LEVEL1_PARAM" xlink:href="#slider-151" transform="translate(13.5 8)"/>
    <use id="FREQUENCY1_PARAM" xlink:href="#knob16" transform="translate(14.5 164)"/>
    <use xlink:href="#dial-frequency-16" transform="translate(2.5 152)"/>
    <text font-size="5pt" letter-spacing="2px" transform="translate(11 193)">FREQ</text>
    <use id="FREQUENCY_CV1_PARAM" xlink:href="#knob16" transform="translate(14.5 204)"/>
    <use xlink:href="#dial-centertick" transform="translate(2.5 192)"/>
    <text font-size="5pt" letter-spacing="2px" transform="translate(14 229)">FCV</text>
    <g transform="translate(5.5 232)">
      <rect width="34" height="108" rx="5" fill="#bbb"/>
      <rect width="34" height="71.5" rx="5" fill="#fafafa"/>
      <rect width="34" height="10" fill="#fafafa" transform="translate(0 61.5)"/>
      <use id="LEVEL1_INPUT" xlink:href="#input" transform="translate(5 3)"/>
      <text font-size="5pt" letter-spacing="2px" transform="translate(3.5 35)">LEVEL</text>
      <use id="FREQUENCY_CV1_INPUT" xlink:href="#input" transform="translate(5 38)"/>
      <text font-size="5pt" letter-spacing="2px" transform="translate(8.5 70)">FCV</text>
      <use id="OUT1_OUTPUT" xlink:href="#output" transform="translate(5 73)"/>
      <text font-size="5pt" letter-spacing="2px" transform="translate(8 105)">OUT</text>
    </g>
  </g>

  <g transform="translate(118 20)">
    <text font-size="5pt" letter-spacing="2px" transform="translate(20.5 8)">2</text>
    <use xlink:href="#sliderdial-db-151" transform="translate(0 8)"/>
    <use id="LEVEL2_PARAM" xlink:href="#slider-151" transform="translate(13.5 8)"/>
    <use id="FREQUENCY2_PARAM" xlink:href="#knob16" transform="translate(14.5 164)"/>
    <use xlink:href="#dial-frequency-16" transform="translate(2.5 152)"/>
    <text font-size="5pt" letter-spacing="2px" transform="translate(11 193)">FREQ</text>
    <use id="FREQUENCY_CV2_PARAM" xlink:href="#knob16" transform="translate(14.5 204)"/>
    <use xlink:href="#dial-centertick" transform="translate(2.5 192)"/>
    <text font-size="5pt" letter-spacing="2px" transform="translate(14 229)">FCV</text>
    <g transform="translate(5.5 232)">
      <rect width="34" height="108" rx="5" fill="#bbb"/>
      <rect width="34" height="71.5" rx="5" fill="#fafafa"/>
      <rect width="34" height="10" fill="#fafafa" transform="translate(0 61.5)"/>
      <use id="LEVEL2_INPUT" xlink:href="#input" transform="translate(5 3)"/>
      <text font-size="5pt" letter-spacing="2px" transform="translate(3.5 35)">LEVEL</text>
      <use id="FREQUENCY_CV2_INPUT" xlink:href="#input" transform="translate(5 38)"/>
      <text font-size="5pt" letter-spacing="2px" transform="translate(8.5 70)">FCV</text>
      <use id="OUT2_OUTPUT" xlink:href="#output" transform="translate(5 73)"/>
      <text font-size="5pt" letter-spacing="2px" transform="translate(8 105)">OUT</text>
    </g>
  </g>

  <g transform="translate(162 20)">
    <text font-size="5pt" letter-spacing="2px" transform="translate(20.5 8)">3</text>
    <use xlink:href="#sliderdial-db-151" transform="translate(0 8)"/>
    <use id="LEVEL3_PARAM" xlink:href="#slider-151" transform="translate(13.5 8)"/>
    <use id="FREQUENCY3_PARAM" xlink:href="#knob16" transform="translate(14.5 164)"/>
    <use xlink:href="#dial-frequency-16" transform="translate(2.5 152)"/>
    <text font-size="5pt" letter-spacing="2px" transform="translate(11 193)">FREQ</text>
    <use id="FREQUENCY_CV3_PARAM" xlink:href="#knob16" transform="translate(14.5 204)"/>
    <use xlink:href="#dial-centertick" transform="translate(2.5 192)"/>
    <text font-size="5pt" letter-spacing="2px" transform="translate(14 229)">FCV</text>
    <g transform="translate(5.5 232)">
      <rect width="34" height="108" rx="5" fill="#bbb"/>
      <rect width="34" height="71.5" rx="5" fill="#fafafa"/>
      <rect width="34" height="10" fill="#fafafa" transform="translate(0 61.5)"/>
      <use id="LEVEL3_INPUT" xlink:href="#input" transform="translate(5 3)"/>
      <text font-size="5pt" letter-spacing="2px" transform="translate(3.5 35)">LEVEL</text>
      <use id="FREQUENCY_CV3_INPUT" xlink:href="#input" transform="translate(5 38)"/>
      <text font-size="5pt" letter-spacing="2px" transform="translate(8.5 70)">FCV</text>
      <use id="OUT3_OUTPUT" xlink:href="#output" transform="translate(5 73)"/>
      <text font-size="5pt" letter-spacing="2px" transform="translate(8 105)">OUT</text>
    </g>
  </g>

  <g transform="translate(206 20)">
    <text font-size="5pt" letter-spacing="2px" transform="translate(20.5 8)">4</text>
    <use xlink:href="#sliderdial-db-151" transform="translate(0 8)"/>
    <use id="LEVEL4_PARAM" xlink:href="#slider-151" transform="translate(13.5 8)"/>
    <use id="FREQUENCY4_PARAM" xlink:href="#knob16" transform="translate(14.5 164)"/>
    <use xlink:href="#dial-frequency-16" transform="translate(2.5 152)"/>
    <text font-size="5pt" letter-spacing="2px" transform="translate(11 193)">FREQ</text>
    <use id="FREQUENCY_CV4_PARAM" xlink:href="#knob16" transform="translate(14.5 204)"/>
    <use xlink:href="#dial-centertick" transform="translate(2.5 192)"/>
    <text font-size="5pt" letter-spacing="2px" transform="translate(14 229)">FCV</text>
    <g transform="translate(5.5 232)">
      <rect width="34" height="108" rx="5" fill="#bbb"/>
      <rect width="34" height="71.5" rx="5" fill="#fafafa"/>
      <rect width="34" height="10" fill="#fafafa" transform="translate(0 61.5)"/>
      <use id="LEVEL4_INPUT" xlink:href="#input" transform="translate(5 3)"/>
      <text font-size="5pt" letter-spacing="2px" transform="translate(3.5 35)">LEVEL</text>
      <use id="FREQUENCY_CV4_INPUT" xlink:href="#input" transform="translate(5 38)"/>
      <text font-size="5pt" letter-spacing="2px" transform="translate(8.5 70)">FCV</text>
      <use id="OUT4_OUTPUT" xlink:href="#output" transform="translate(5 73)"/>
      <text font-size="5pt" letter-spacing="2px" transform="translate(8 105)">OUT</text>
    </g>
  </g>

  <g transform="translate(250 20)">
    <text font-size="5pt" letter-spacing="2px" transform="translate(20.5 8)">5</text>
    <use xlink:href="#sliderdial-db-151" transform="translate(0 8)"/>
    <use id="LEVEL5_PARAM" xlink:href="#slider-151" transform="translate(13.5 8)"/>
    <use id="FREQUENCY5_PARAM" xlink:href="#knob16" transform="translate(14.5 164)"/>
    <use xlink:href="#dial-frequency-16" transform="translate(2.5 152)"/>
    <text font-size="5pt" letter-spacing="2px" transform="translate(11 193)">FREQ</text>
    <use id="FREQUENCY_CV5_PARAM" xlink:href="#knob16" transform="translate(14.5 204)"/>
    <use xlink:href="#dial-centertick" transform="translate(2.5 192)"/>
    <text font-size="5pt" letter-spacing="2px" transform="translate(14 229)">FCV</text>
    <g transform="translate(5.5 232)">
      <rect width="34" height="108" rx="5" fill="#bbb"/>
      <rect width="34" height="71.5" rx="5" fill="#fafafa"/>
      <rect width="34" height="10" fill="#fafafa" transform="translate(0 61.5)"/>
      <use id="LEVEL5_INPUT" xlink:href="#input" transform="translate(5 3)"/>
      <text font-size="5pt" letter-spacing="2px" transform="translate(3.5 35)">LEVEL</text>
      <use id="FREQUENCY_CV5_INPUT" xlink:href="#input" transform="translate(5 38)"/>
      <text font-size="5pt" letter-spacing="2px" transform="translate(8.5 70)">FCV</text>
      <use id="OUT5_OUTPUT" xlink:href="#output" transform="translate(5 73)"/>
      <text font-size="5pt" letter-spacing="2px" transform="translate(8 105)">OUT</text>
    </g>
  </g>

  <g transform="translate(294 20)">
    <text font-size="5pt" letter-spacing="2px" transform="translate(20.5 8)">6</text>
    <use xlink:href="#sliderdial-db-151" transform="translate(0 8)"/>
    <use id="LEVEL6_PARAM" xlink:href="#slider-151" transform="translate(13.5 8)"/>
    <use id="FREQUENCY6_PARAM" xlink:href="#knob16" transform="translate(14.5 164)"/>
    <use xlink:href="#dial-frequency-16" transform="translate(2.5 152)"/>
    <text font-size="5pt" letter-spacing="2px" transform="translate(11 193)">FREQ</text>
    <use id="FREQUENCY_CV6_PARAM" xlink:href="#knob16" transform="translate(14.5 204)"/>
    <use xlink:href="#dial-centertick" transform="translate(2.5 192)"/>
    <text font-size="5pt" letter-spacing="2px" transform="translate(14 229)">FCV</text>
    <g transform="translate(5.5 232)">
      <rect width="34" height="108" rx="5" fill="#bbb"/>
      <rect width="34" height="71.5" rx="5" fill="#fafafa"/>
      <rect width="34" height="10" fill="#fafafa" transform="translate(0 61.5)"/>
      <use id="LEVEL6_INPUT" xlink:href="#input" transform="translate(5 3)"/>
      <text font-size="5pt" letter-spacing="2px" transform="translate(3.5 35)">LEVEL</text>
      <use id="FREQUENCY_CV6_INPUT" xlink:href="#input" transform="translate(5 38)"/>
      <text font-size="5pt" letter-spacing="2px" transform="translate(8.5 70)">FCV</text>
      <use id="OUT6_OUTPUT" xlink:href="#output" transform="translate(5 73)"/>
      <text font-size="5pt" letter-spacing="2px" transform="translate(8 105)">OUT</text>
    </g>
  </g>

  <g transform="translate(338 20)">
    <text font-size="5pt" letter-spacing="2px" transform="translate(20.5 8)">7</text>
    <use xlink:href="#sliderdial-db-151" transform="translate(0 8)"/>
    <use id="LEVEL7_PARAM" xlink:href="#slider-151" transform="translate(13.5 8)"/>
    <use id="FREQUENCY7_PARAM" xlink:href="#knob16" transform="translate(14.5 164)"/>
    <use xlink:href="#dial-frequency-16" transform="translate(2.5 152)"/>
    <text font-size="5pt" letter-spacing="2px" transform="translate(11 193)">FREQ</text>
    <use id="FREQUENCY_CV7_PARAM" xlink:href="#knob16" transform="translate(14.5 204)"/>
    <use xlink:href="#dial-centertick" transform="translate(2.5 192)"/>
    <text font-size="5pt" letter-spacing="2px" transform="translate(14 229)">FCV</text>
    <g transform="translate(5.5 232)">
      <rect width="34" height="108" rx="5" fill="#bbb"/>
      <rect width="34" height="71.5" rx="5" fill="#fafafa"/>
      <rect width="34" height="10" fill="#fafafa" transform="translate(0 61.5)"/>
      <use id="LEVEL7_INPUT" xlink:href="#input" transform="translate(5 3)"/>
      <text font-size="5pt" letter-spacing="2px" transform="translate(3.5 35)">LEVEL</text>
      <use id="FREQUENCY_CV7_INPUT" xlink:href="#input" transform="translate(5 38)"/>
      <text font-size="5pt" letter-spacing="2px" transform="translate(8.5 70)">FCV</text>
      <use id="OUT7_OUTPUT" xlink:href="#output" transform="translate(5 73)"/>
      <text font-size="5pt" letter-spacing="2px" transform="translate(8 105)">OUT</text>
    </g>
  </g>

  <g transform="translate(382 20)">
    <text font-size="5pt" letter-spacing="2px" transform="translate(20.5 8)">8</text>
    <use xlink:href="#sliderdial-db-151" transform="translate(0 8)"/>
    <use id="LEVEL8_PARAM" xlink:href="#slider-151" transform="translate(13.5 8)"/>
    <use id="FREQUENCY8_PARAM" xlink:href="#knob16" transform="translate(14.5 164)"/>
    <use xlink:href="#dial-frequency-16" transform="translate(2.5 152)"/>
    <text font-size="5pt" letter-spacing="2px" transform="translate(11 193)">FREQ</text>
    <use id="FREQUENCY_CV8_PARAM" xlink:href="#knob16" transform="translate(14.5 204)"/>
    <use xlink:href="#dial-centertick" transform="translate(2.5 192)"/>
    <text font-size="5pt" letter-spacing="2px" transform="translate(14 229)">FCV</text>
    <g transform="translate(5.5 232)">
      <rect width="34" height="108" rx="5" fill="#bbb"/>
      <rect width="34" height="71.5" rx="5" fill="#fafafa"/>
      <rect width="34" height="10" fill="#fafafa" transform="translate(0 61.5)"/>
      <use id="LEVEL8_INPUT" xlink:href="#input" transform="translate(5 3)"/>
      <text font-size="5pt" letter-spacing="2px" transform="translate(3.5 35)">LEVEL</text>
      <use id="FREQUENCY_CV8_INPUT" xlink:href="#input" transform="translate(5 38)"/>
      <text font-size="5pt" letter-spacing="2px" transform="translate(8.5 70)">FCV</text>
      <use id="OUT8_OUTPUT" xlink:href="#output" transform="translate(5 73)"/>
      <text font-size="5pt" letter-spacing="2px" transform="translate(8 105)">OUT</text>
    </g>
  </g>

  <g transform="translate(426 20)">
    <text font-size="5pt" letter-spacing="2px" transform="translate(20.5 8)">9</text>
    <use xlink:href="#sliderdial-db-151" transform="translate(0 8)"/>
    <use id="LEVEL9_PARAM" xlink:href="#slider-151" transform="translate(13.5 8)"/>
    <use id="FREQUENCY9_PARAM" xlink:href="#knob16" transform="translate(14.5 164)"/>
    <use xlink:href="#dial-frequency-16" transform="translate(2.5 152)"/>
    <text font-size="5pt" letter-spacing="2px" transform="translate(11 193)">FREQ</text>
    <use id="FREQUENCY_CV9_PARAM" xlink:href="#knob16" transform="translate(14.5 204)"/>
    <use xlink:href="#dial-centertick" transform="translate(2.5 192)"/>
    <text font-size="5pt" letter-spacing="2px" transform="translate(14 229)">FCV</text>
    <g transform="translate(5.5 232)">
      <rect width="34" height="108" rx="5" fill="#bbb"/>
      <rect width="34" height="71.5" rx="5" fill="#fafafa"/>
      <rect width="34" height="10" fill="#fafafa" transform="translate(0 61.5)"/>
      <use id="LEVEL9_INPUT" xlink:href="#input" transform="translate(5 3)"/>
      <text font-size="5pt" letter-spacing="2px" transform="translate(3.5 35)">LEVEL</text>
      <use id="FREQUENCY_CV9_INPUT" xlink:href="#input" transform="translate(5 38)"/>
      <text font-size="5pt" letter-spacing="2px" transform="translate(8.5 70)">FCV</text>
      <use id="OUT9_OUTPUT" xlink:href="#output" transform="translate(5 73)"/>
      <text font-size="5pt" letter-spacing="2px" transform="translate(8 105)">OUT</text>
    </g>
  </g>

  <g transform="translate(470 20)">
    <text font-size="5pt" letter-spacing="2px" transform="translate(17 8)">10</text>
    <use xlink:href="#sliderdial-db-151" transform="translate(0 8)"/>
    <use id="LEVEL10_PARAM" xlink:href="#slider-151" transform="translate(13.5 8)"/>
    <use id="FREQUENCY10_PARAM" xlink:href="#knob16" transform="translate(14.5 164)"/>
    <use xlink:href="#dial-frequency-16" transform="translate(2.5 152)"/>
    <text font-size="5pt" letter-spacing="2px" transform="translate(11 193)">FREQ</text>
    <use id="FREQUENCY_CV10_PARAM" xlink:href="#knob16" transform="translate(14.5 204)"/>
    <use xlink:href="#dial-centertick" transform="translate(2.5 192)"/>
    <text font-size="5pt" letter-spacing="2px" transform="translate(14 229)">FCV</text>
    <g transform="translate(5.5 232)">
      <rect width="34" height="108" rx="5" fill="#bbb"/>
      <rect width="34" height="71.5" rx="5" fill="#fafafa"/>
      <rect width="34" height="10" fill="#fafafa" transform="translate(0 61.5)"/>
      <use id="LEVEL10_INPUT" xlink:href="#input" transform="translate(5 3)"/>
      <text font-size="5pt" letter-spacing="2px" transform="translate(3.5 35)">LEVEL</text>
      <use id="FREQUENCY_CV10_INPUT" xlink:href="#input" transform="translate(5 38)"/>
      <text font-size="5pt" letter-spacing="2px" transform="translate(8.5 70)">FCV</text>
      <use id="OUT10_OUTPUT" xlink:href="#output" transform="translate(5 73)"/>
      <text font-size="5pt" letter-spacing="2px" transform="translate(8 105)">OUT</text>
    </g>
  </g>

  <g transform="translate(514 20)">
    <text font-size="5pt" letter-spacing="2px" transform="translate(17.5 8)">11</text>
    <use xlink:href="#sliderdial-db-151" transform="translate(0 8)"/>
    <use id="LEVEL11_PARAM" xlink:href="#slider-151" transform="translate(13.5 8)"/>
    <use id="FREQUENCY11_PARAM" xlink:href="#knob16" transform="translate(14.5 164)"/>
    <use xlink:href="#dial-frequency-16" transform="translate(2.5 152)"/>
    <text font-size="5pt" letter-spacing="2px" transform="translate(11 193)">FREQ</text>
    <use id="FREQUENCY_CV11_PARAM" xlink:href="#knob16" transform="translate(14.5 204)"/>
    <use xlink:href="#dial-centertick" transform="translate(2.5 192)"/>
    <text font-size="5pt" letter-spacing="2px" transform="translate(14 229)">FCV</text>
    <g transform="translate(5.5 232)">
      <rect width="34" height="108" rx="5" fill="#bbb"/>
      <rect width="34" height="71.5" rx="5" fill="#fafafa"/>
      <rect width="34" height="10" fill="#fafafa" transform="translate(0 61.5)"/>
      <use id="LEVEL11_INPUT" xlink:href="#input" transform="translate(5 3)"/>
      <text font-size="5pt" letter-spacing="2px" transform="translate(3.5 35)">LEVEL</text>
      <use id="FREQUENCY_CV11_INPUT" xlink:href="#input" transform="translate(5 38)"/>
      <text font-size="5pt" letter-spacing="2px" transform="translate(8.5 70)">FCV</text>
      <use id="OUT11_OUTPUT" xlink:href="#output" transform="translate(5 73)"/>
      <text font-size="5pt" letter-spacing="2px" transform="translate(8 105)">OUT</text>
    </g>
  </g>

  <g transform="translate(558 20)">
    <text font-size="5pt" letter-spacing="2px" transform="translate(17 8)">12</text>
    <use xlink:href="#sliderdial-db-151" transform="translate(0 8)"/>
    <use id="LEVEL12_PARAM" xlink:href="#slider-151" transform="translate(13.5 8)"/>
    <use id="FREQUENCY12_PARAM" xlink:href="#knob16" transform="translate(14.5 164)"/>
    <use xlink:href="#dial-frequency-16" transform="translate(2.5 152)"/>
    <text font-size="5pt" letter-spacing="2px" transform="translate(11 193)">FREQ</text>
    <use id="FREQUENCY_CV12_PARAM" xlink:href="#knob16" transform="translate(14.5 204)"/>
    <use xlink:href="#dial-centertick" transform="translate(2.5 192)"/>
    <text font-size="5pt" letter-spacing="2px" transform="translate(14 229)">FCV</text>
    <g transform="translate(5.5 232)">
      <rect width="34" height="108" rx="5" fill="#bbb"/>
      <rect width="34" height="71.5" rx="5" fill="#fafafa"/>
      <rect width="34" height="10" fill="#fafafa" transform="translate(0 61.5)"/>
      <use id="LEVEL12_INPUT" xlink:href="#input" transform="translate(5 3)"/>
      <text font-size="5pt" letter-spacing="2px" transform="translate(3.5 35)">LEVEL</text>
      <use id="FREQUENCY_CV12_INPUT" xlink:href="#input" transform="translate(5 38)"/>
      <text font-size="5pt" letter-spacing="2px" transform="translate(8.5 70)">FCV</text>
      <use id="OUT12_OUTPUT" xlink:href="#output" transform="translate(5 73)"/>
      <text font-size="5pt" letter-spacing="2px" transform="translate(8 105)">OUT</text>
    </g>
  </g>

  <g transform="translate(602 20)">
    <text font-size="5pt" letter-spacing="2px" transform="translate(17 8)">13</text>
    <use xlink:href="#sliderdial-db-151" transform="translate(0 8)"/>
    <use id="LEVEL13_PARAM" xlink:href="#slider-151" transform="translate(13.5 8)"/>
    <use id="FREQUENCY13_PARAM" xlink:href="#knob16" transform="translate(14.5 164)"/>
    <use xlink:href="#dial-frequency-16" transform="translate(2.5 152)"/>
    <text font-size="5pt" letter-spacing="2px" transform="translate(11 193)">FREQ</text>
    <use id="FREQUENCY_CV13_PARAM" xlink:href="#knob16" transform="translate(14.5 204)"/>
    <use xlink:href="#dial-centertick" transform="translate(2.5 192)"/>
    <text font-size="5pt" letter-spacing="2px" transform="translate(14 229)">FCV</text>
    <g transform="translate(5.5 232)">
      <rect width="34" height="108" rx="5" fill="#bbb"/>
      <rect width="34" height="71.5" rx="5" fill="#fafafa"/>
      <rect width="34" height="10" fill="#fafafa" transform="translate(0 61.5)"/>
      <use id="LEVEL13_INPUT" xlink:href="#input" transform="translate(5 3)"/>
      <text font-size="5pt" letter-spacing="2px" transform="translate(3.5 35)">LEVEL</text>
      <use id="FREQUENCY_CV13_INPUT" xlink:href="#input" transform="translate(5 38)"/>
      <text font-size="5pt" letter-spacing="2px" transform="translate(8.5 70)">FCV</text>
      <use id="OUT13_OUTPUT" xlink:href="#output" transform="translate(5 73)"/>
      <text font-size="5pt" letter-spacing="2px" transform="translate(8 105)">OUT</text>
    </g>
  </g>

  <g transform="translate(646 20)">
    <text font-size="5pt" letter-spacing="2px" transform="translate(17 8)">14</text>
    <use xlink:href="#sliderdial-db-151" transform="translate(0 8)"/>
    <use id="LEVEL14_PARAM" xlink:href="#slider-151" transform="translate(13.5 8)"/>
    <use id="FREQUENCY14_PARAM" xlink:href="#knob16" transform="translate(14.5 164)"/>
    <use xlink:href="#dial-frequency-16" transform="translate(2.5 152)"/>
    <text font-size="5pt" letter-spacing="2px" transform="translate(11 193)">FREQ</text>
    <use id="FREQUENCY_CV14_PARAM" xlink:href="#knob16" transform="translate(14.5 204)"/>
    <use xlink:href="#dial-centertick" transform="translate(2.5 192)"/>
    <text font-size="5pt" letter-spacing="2px" transform="translate(14 229)">FCV</text>
    <g transform="translate(5.5 232)">
      <rect width="34" height="108" rx="5" fill="#bbb"/>
      <rect width="34" height="71.5" rx="5" fill="#fafafa"/>
      <rect width="34" height="10" fill="#fafafa" transform="translate(0 61.5)"/>
      <use id="LEVEL14_INPUT" xlink:href="#input" transform="translate(5 3)"/>
      <text font-size="5pt" letter-spacing="2px" transform="translate(3.5 35)">LEVEL</text>
      <use id="FREQUENCY_CV14_INPUT" xlink:href="#input" transform="translate(5 38)"/>
      <text font-size="5pt" letter-spacing="2px" transform="translate(8.5 70)">FCV</text>
      <use id="OUT14_OUTPUT" xlink:href="#output" transform="translate(5 73)"/>
      <text font-size="5pt" letter-spacing="2px" transform="translate(8 105)">OUT</text>
    </g>
  </g>
</svg>
