<svg
  version="1.1"
  xmlns="http://www.w3.org/2000/svg"
  xmlns:xlink="http://www.w3.org/1999/xlink"
  width="75"
  height="380"
  viewBox="0 0 75 380"
>
  <style>
    text {
      fill: #333;
      font-family: 'Roboto', sans-serif;
      font-weight: bold;
    }
    text.title {
      font-family: 'Comfortaa', sans-serif;
      font-weight: normal;
    }
    text.brand {
      font-family: 'Audiowide', sans-serif;
      font-weight: bold;
    }
  </style>

  <defs>
    <symbol id="input" viewBox="0 0 24px 24px">
      <g transform="translate(12 12)">
        <circle cx="0" cy="0" r="5" stroke-width="1" stroke="#0f0" fill="#0f0" />
        <circle cx="0" cy="0" r="10.5" stroke-width="3" stroke="#0f0" fill="none" />
      </g>
    </symbol>

    <symbol id="output" viewBox="0 0 24px 24px">
      <g transform="translate(12 12)">
        <circle cx="0" cy="0" r="5" stroke-width="1" stroke="#f00" fill="#f00" />
        <circle cx="0" cy="0" r="10.5" stroke-width="3" stroke="#f00" fill="none" />
      </g>
    </symbol>
  </defs>

  <rect width="100%" height="100%" fill="#ddd" />
  <polyline points="1,1 74,1 74,379 1,379 1,1" stroke="#e4e4e4" stroke-width="0.5" fill="none" />
  <polyline points="0.5,0.5 74.5,0.5 74.5,379.5 0.5,379.5 0.5,0.5" stroke="#ebebeb" stroke-width="0.8" fill="none" />
  <polyline points="0,0 75,0 75,380 0,380 0,0" stroke="#f2f2f2" stroke-width="1" fill="none" />

  <text class="title" x="20" y="14" font-size="7pt" letter-spacing="1px">PEQ14XV</text>
  <!-- <text class="title" x="15" y="17" font-size="9pt" letter-spacing="3px" transform="translate(75 -8) rotate(90)">PEQ14-XO</text> -->
  <g transform="translate(25 374)">
    <text class="brand" font-size="6.5pt" letter-spacing="2px">BGA</text>
    <rect width="2" height="2" fill="#ddd" transform="translate(11.5 -4)" />
  </g>

  <g transform="translate(5.5 318)">
    <rect width="64" height="40" rx="5" fill="#fafafa" />
    <rect width="32" height="40" rx="5" fill="#bbb" transform="translate(32)" />
    <rect width="10" height="40" fill="#bbb" transform="translate(32)" />
    <use id="IN_INPUT" xlink:href="#input" transform="translate(3.5 4)" />
    <use id="OUT_OUTPUT" xlink:href="#output" transform="translate(35.5 4)" />
    <text font-size="6pt" letter-spacing="1px" transform="translate(11 36)">IN</text>
    <text font-size="6pt" letter-spacing="2px" transform="translate(37 36)">OUT</text>
  </g>
</svg>
