<svg
  version="1.1"
  xmlns="http://www.w3.org/2000/svg"
  xmlns:xlink="http://www.w3.org/1999/xlink"
  width="120"
  height="380"
  viewBox="0 0 120 380"
>
  <style>
    text {
      fill: #333;
      font-family: 'Roboto', sans-serif;
      font-weight: bold;
    }
    text.title {
      font-family: 'Comfortaa', sans-serif;
      font-weight: normal;
    }
    text.brand {
      font-family: 'Audiowide', sans-serif;
      font-weight: bold;
    }
  </style>

  <defs>
    <symbol id="knob-smallest" viewBox="0 0 16px 16px">
      <g transform="translate(8 8)">
        <polyline points="-3,0 3,0" stroke-width="1" stroke="#00f" />
        <polyline points="0,-3 0,3" stroke-width="1" stroke="#00f" />
        <circle r="7.5" stroke-width="1" stroke="#00f" fill="none" />
      </g>
    </symbol>

    <symbol id="knobguide-centertick" viewBox="0 0 40px 40px">
      <g transform="translate(20 20)">
        <g transform="rotate(-90) translate(10 0)">
          <polyline points="0,0 4,0" stroke-width="1" stroke="#333" />
        </g>
        <path d="M 0 -12.5 A 12.5 12.5 0 0 1 12.5 0" stroke="#333" stroke-width="0.5" stroke-linecap="round" fill="none" transform="rotate(20)" />
        <path d="M 0 -12.5 A 12.5 12.5 0 0 1 12.5 0" stroke="#333" stroke-width="0.5" stroke-linecap="round" fill="none" transform="rotate(43)" />
        <path d="M 0 -12.5 A 12.5 12.5 0 0 0 -12.5 0" stroke="#333" stroke-width="0.5" stroke-linecap="round" fill="none" transform="rotate(-20)" />
        <path d="M 0 -12.5 A 12.5 12.5 0 0 0 -12.5 0" stroke="#333" stroke-width="0.5" stroke-linecap="round" fill="none" transform="rotate(-43)" />
      </g>
    </symbol>

    <symbol id="knobguide-maxtick" viewBox="0 0 40px 40px">
      <g transform="translate(20 20)">
        <g transform="rotate(60) translate(10 0)">
          <polyline points="0,0 4,0" stroke-width="1" stroke="#333" />
        </g>
        <path d="M 0 -12.5 A 12.5 12.5 0 0 1 12.5 0" stroke="#333" stroke-width="0.5" stroke-linecap="round" fill="none" transform="rotate(0)" />
        <path d="M 0 -12.5 A 12.5 12.5 0 0 1 12.5 0" stroke="#333" stroke-width="0.5" stroke-linecap="round" fill="none" transform="rotate(43)" />
        <path d="M 0 -12.5 A 12.5 12.5 0 0 0 -12.5 0" stroke="#333" stroke-width="0.5" stroke-linecap="round" fill="none" transform="rotate(0)" />
        <path d="M 0 -12.5 A 12.5 12.5 0 0 0 -12.5 0" stroke="#333" stroke-width="0.5" stroke-linecap="round" fill="none" transform="rotate(-43)" />
      </g>
    </symbol>

    <symbol id="input" viewBox="0 0 24px 24px">
      <g transform="translate(12 12)">
        <circle cx="0" cy="0" r="5" stroke-width="1" stroke="#0f0" fill="#0f0" />
        <circle cx="0" cy="0" r="10.5" stroke-width="3" stroke="#0f0" fill="none" />
      </g>
    </symbol>

    <symbol id="output" viewBox="0 0 24px 24px">
      <g transform="translate(12 12)">
        <circle cx="0" cy="0" r="5" stroke-width="1" stroke="#f00" fill="#f00" />
        <circle cx="0" cy="0" r="10.5" stroke-width="3" stroke="#f00" fill="none" />
      </g>
    </symbol>

    <symbol id="light-tiny" viewBox="0 0 1.1px 1.1px">
      <rect width="3.2" height="3.2" fill="#0f0" />
    </symbol>
  </defs>

  <rect width="100%" height="100%" fill="#ddd" />
  <polyline points="1,1 119,1 119,379 1,379 1,1" stroke="#e4e4e4" stroke-width="0.5" fill="none" />
  <polyline points="0.5,0.5 119.5,0.5 119.5,379.5 0.5,379.5 0.5,0.5" stroke="#ebebeb" stroke-width="0.8" fill="none" />
  <polyline points="0,0 120,0 120,380 0,380 0,0" stroke="#f2f2f2" stroke-width="1" fill="none" />

  <text class="title" x="27" y="17" font-size="9pt" letter-spacing="3px">POLYOFFX</text>
  <g transform="translate(5.5 374)">
    <text class="brand" font-size="6.5pt" letter-spacing="2px">BOGAUDIO</text>
    <rect width="1.5" height="2" fill="#ddd" transform="translate(21 -4)" />
  </g>

  <!-- <rect width="30" height="20" fill="#0f0" transform="translate(0 0)" /> -->
  <!-- <rect width="30" height="20" fill="#0f0" transform="translate(120 0)" /> -->
  <!-- <polyline points="0,0 0,380" stroke="#0f0" stroke-width="1" fill="none" transform="translate(5 0)" /> -->
  <!-- <polyline points="0,0 0,380" stroke="#0f0" stroke-width="1" fill="none" transform="translate(15 0)" /> -->
  <!-- <polyline points="0,0 0,380" stroke="#0f0" stroke-width="1" fill="none" transform="translate(48.5 0)" /> -->
  <!-- <polyline points="0,0 0,380" stroke="#0f0" stroke-width="1" fill="none" transform="translate(135 0)" /> -->
  <!-- <polyline points="0,0 0,380" stroke="#0f0" stroke-width="1" fill="none" transform="translate(115 0)" /> -->

  <g transform="translate(5.5 24)">
    <rect width="34" height="289" rx="5" fill="#fafafa" transform="translate(0 0)" />
    <use id="IN9_INPUT" xlink:href="#input" transform="translate(5 5)" />
    <use id="IN10_INPUT" xlink:href="#input" transform="translate(5 40)" />
    <use id="IN11_INPUT" xlink:href="#input" transform="translate(5 75)" />
    <use id="IN12_INPUT" xlink:href="#input" transform="translate(5 110)" />
    <use id="IN13_INPUT" xlink:href="#input" transform="translate(5 145)" />
    <use id="IN14_INPUT" xlink:href="#input" transform="translate(5 180)" />
    <use id="IN15_INPUT" xlink:href="#input" transform="translate(5 215)" />
    <use id="IN16_INPUT" xlink:href="#input" transform="translate(5 250)" />
    <text font-size="6pt" letter-spacing="1px" transform="translate(4 284)">IN/CV</text>
  </g>

  <g transform="translate(0 33)">
    <text font-size="5pt" letter-spacing="1px" transform="translate(46.5 8)">9</text>
    <use id="CHANNEL9_LIGHT" xlink:href="#light-tiny" transform="translate(46.8 10)" />
    <use id="OFFSET9_PARAM" xlink:href="#knob-smallest" transform="translate(62.5 0)" />
    <use xlink:href="#knobguide-centertick" transform="translate(50.5 -12)" />
    <use id="SCALE9_PARAM" xlink:href="#knob-smallest" transform="translate(93.5 0)" />
    <use xlink:href="#knobguide-maxtick" transform="translate(81.5 -12)" />
    <!-- <polyline points="0,0 150,0" stroke="#f00" stroke-width="1" fill="none" transform="translate(0 8)" /> -->
  </g>

  <g transform="translate(0 68)">
    <text font-size="5pt" letter-spacing="1px" transform="translate(44 8)">10</text>
    <use id="CHANNEL10_LIGHT" xlink:href="#light-tiny" transform="translate(46.8 10)" />
    <use id="OFFSET10_PARAM" xlink:href="#knob-smallest" transform="translate(62.5 0)" />
    <use xlink:href="#knobguide-centertick" transform="translate(50.5 -12)" />
    <use id="SCALE10_PARAM" xlink:href="#knob-smallest" transform="translate(93.5 0)" />
    <use xlink:href="#knobguide-maxtick" transform="translate(81.5 -12)" />
    <!-- <polyline points="0,0 150,0" stroke="#f00" stroke-width="1" fill="none" transform="translate(0 8)" /> -->
  </g>

  <g transform="translate(0 103)">
    <text font-size="5pt" letter-spacing="1px" transform="translate(44 8)">11</text>
    <use id="CHANNEL11_LIGHT" xlink:href="#light-tiny" transform="translate(46.8 10)" />
    <use id="OFFSET11_PARAM" xlink:href="#knob-smallest" transform="translate(62.5 0)" />
    <use xlink:href="#knobguide-centertick" transform="translate(50.5 -12)" />
    <use id="SCALE11_PARAM" xlink:href="#knob-smallest" transform="translate(93.5 0)" />
    <use xlink:href="#knobguide-maxtick" transform="translate(81.5 -12)" />
    <!-- <polyline points="0,0 150,0" stroke="#f00" stroke-width="1" fill="none" transform="translate(0 8)" /> -->
  </g>

  <g transform="translate(0 138)">
    <text font-size="5pt" letter-spacing="1px" transform="translate(44 8)">12</text>
    <use id="CHANNEL12_LIGHT" xlink:href="#light-tiny" transform="translate(46.8 10)" />
    <use id="OFFSET12_PARAM" xlink:href="#knob-smallest" transform="translate(62.5 0)" />
    <use xlink:href="#knobguide-centertick" transform="translate(50.5 -12)" />
    <use id="SCALE12_PARAM" xlink:href="#knob-smallest" transform="translate(93.5 0)" />
    <use xlink:href="#knobguide-maxtick" transform="translate(81.5 -12)" />
    <!-- <polyline points="0,0 150,0" stroke="#f00" stroke-width="1" fill="none" transform="translate(0 8)" /> -->
  </g>

  <g transform="translate(0 173)">
    <text font-size="5pt" letter-spacing="1px" transform="translate(44 8)">13</text>
    <use id="CHANNEL13_LIGHT" xlink:href="#light-tiny" transform="translate(46.8 10)" />
    <use id="OFFSET13_PARAM" xlink:href="#knob-smallest" transform="translate(62.5 0)" />
    <use xlink:href="#knobguide-centertick" transform="translate(50.5 -12)" />
    <use id="SCALE13_PARAM" xlink:href="#knob-smallest" transform="translate(93.5 0)" />
    <use xlink:href="#knobguide-maxtick" transform="translate(81.5 -12)" />
    <!-- <polyline points="0,0 150,0" stroke="#f00" stroke-width="1" fill="none" transform="translate(0 8)" /> -->
  </g>

  <g transform="translate(0 208)">
    <text font-size="5pt" letter-spacing="1px" transform="translate(44 8)">14</text>
    <use id="CHANNEL14_LIGHT" xlink:href="#light-tiny" transform="translate(46.8 10)" />
    <use id="OFFSET14_PARAM" xlink:href="#knob-smallest" transform="translate(62.5 0)" />
    <use xlink:href="#knobguide-centertick" transform="translate(50.5 -12)" />
    <use id="SCALE14_PARAM" xlink:href="#knob-smallest" transform="translate(93.5 0)" />
    <use xlink:href="#knobguide-maxtick" transform="translate(81.5 -12)" />
    <!-- <polyline points="0,0 150,0" stroke="#f00" stroke-width="1" fill="none" transform="translate(0 8)" /> -->
  </g>

  <g transform="translate(0 243)">
    <text font-size="5pt" letter-spacing="1px" transform="translate(44 8)">15</text>
    <use id="CHANNEL15_LIGHT" xlink:href="#light-tiny" transform="translate(46.8 10)" />
    <use id="OFFSET15_PARAM" xlink:href="#knob-smallest" transform="translate(62.5 0)" />
    <use xlink:href="#knobguide-centertick" transform="translate(50.5 -12)" />
    <use id="SCALE15_PARAM" xlink:href="#knob-smallest" transform="translate(93.5 0)" />
    <use xlink:href="#knobguide-maxtick" transform="translate(81.5 -12)" />
    <!-- <polyline points="0,0 150,0" stroke="#f00" stroke-width="1" fill="none" transform="translate(0 8)" /> -->
  </g>

  <g transform="translate(0 278)">
    <text font-size="5pt" letter-spacing="1px" transform="translate(44 8)">16</text>
    <use id="CHANNEL16_LIGHT" xlink:href="#light-tiny" transform="translate(46.8 10)" />
    <use id="OFFSET16_PARAM" xlink:href="#knob-smallest" transform="translate(62.5 0)" />
    <use xlink:href="#knobguide-centertick" transform="translate(50.5 -12)" />
    <use id="SCALE16_PARAM" xlink:href="#knob-smallest" transform="translate(93.5 0)" />
    <use xlink:href="#knobguide-maxtick" transform="translate(81.5 -12)" />
    <!-- <polyline points="0,0 150,0" stroke="#f00" stroke-width="1" fill="none" transform="translate(0 8)" /> -->
  </g>

  <text font-size="6pt" letter-spacing="0.3px" transform="translate(55 308)">OFFSET</text>
  <text font-size="6pt" letter-spacing="0.3px" transform="translate(88.5 308)">SCALE</text>
</svg>
