<?xml version="1.0"?>
<svg xmlns="http://www.w3.org/2000/svg" xmlns:xlink="http://www.w3.org/1999/xlink" version="1.1" width="240" height="380" viewBox="0 0 240 380">
  <style/>

  <defs>
    <def id="knob16"/>
    <def id="dial-channels-small"/>
    <def id="dial-centertick"/>
    <def id="dial-mintick"/>
    <def id="input"/>
    <def id="output"/>
    <def id="light-tiny"/>
  </defs>

  <rect width="100%" height="100%" fill="#ddd"/>
  <polyline points="1,1 239,1 239,379 1,379 1,1" stroke="#e4e4e4" stroke-width="0.5" fill="none"/>
  <polyline points="0.5,0.5 239.5,0.5 239.5,379.5 0.5,379.5 0.5,0.5" stroke="#ebebeb" stroke-width="0.8" fill="none"/>
  <polyline points="0,0 240,0 240,380 0,380 0,0" stroke="#f2f2f2" stroke-width="1" fill="none"/>

  <!-- <rect width="60" height="20" fill="#0f0" transform="translate(0 0)" /> -->
  <!-- <rect width="60" height="20" fill="#0f0" transform="translate(180 0)" /> -->
  <!-- <rect width="80" height="20" fill="#0f0" transform="translate(0 360)" /> -->
  <!-- <rect width="80" height="20" fill="#0f0" transform="translate(160 360)" /> -->

  <text class="title" x="57" y="19" font-size="12pt" letter-spacing="4px">POLYOFF16</text>
  <g transform="translate(80 374)">
    <text class="brand" font-size="8pt" letter-spacing="2px">BOGAUDIO</text>
    <rect width="3.0" height="3" fill="#ddd" transform="translate(24 -5)"/>
  </g>

  <g transform="translate(5.5 24)">
    <rect width="34" height="289" rx="5" fill="#fafafa" transform="translate(0 0)"/>
    <use id="CV1_INPUT" xlink:href="#input" transform="translate(5 5)"/>
    <use id="CV2_INPUT" xlink:href="#input" transform="translate(5 40)"/>
    <use id="CV3_INPUT" xlink:href="#input" transform="translate(5 75)"/>
    <use id="CV4_INPUT" xlink:href="#input" transform="translate(5 110)"/>
    <use id="CV5_INPUT" xlink:href="#input" transform="translate(5 145)"/>
    <use id="CV6_INPUT" xlink:href="#input" transform="translate(5 180)"/>
    <use id="CV7_INPUT" xlink:href="#input" transform="translate(5 215)"/>
    <use id="CV8_INPUT" xlink:href="#input" transform="translate(5 250)"/>
    <text font-size="6pt" letter-spacing="1px" transform="translate(4 284)">IN/CV</text>
  </g>

  <g transform="translate(125.5 24)">
    <rect width="34" height="289" rx="5" fill="#fafafa" transform="translate(0 0)"/>
    <use id="CV9_INPUT" xlink:href="#input" transform="translate(5 5)"/>
    <use id="CV10_INPUT" xlink:href="#input" transform="translate(5 40)"/>
    <use id="CV11_INPUT" xlink:href="#input" transform="translate(5 75)"/>
    <use id="CV12_INPUT" xlink:href="#input" transform="translate(5 110)"/>
    <use id="CV13_INPUT" xlink:href="#input" transform="translate(5 145)"/>
    <use id="CV14_INPUT" xlink:href="#input" transform="translate(5 180)"/>
    <use id="CV15_INPUT" xlink:href="#input" transform="translate(5 215)"/>
    <use id="CV16_INPUT" xlink:href="#input" transform="translate(5 250)"/>
    <text font-size="6pt" letter-spacing="1px" transform="translate(4 284)">IN/CV</text>
  </g>

  <g transform="translate(0 33)">
    <text font-size="5pt" letter-spacing="1px" transform="translate(46.5 8)">1</text>
    <use id="CHANNEL1_LIGHT" xlink:href="#light-tiny" transform="translate(46.8 10)"/>
    <use id="OFFSET1_PARAM" xlink:href="#knob16" transform="translate(62.5 0)"/>
    <use xlink:href="#dial-centertick" transform="translate(50.5 -12)"/>
    <use id="SCALE1_PARAM" xlink:href="#knob16" transform="translate(93.5 0)"/>
    <use xlink:href="#dial-mintick" transform="translate(81.5 -12)"/>
  </g>
  <g transform="translate(0 68)">
    <text font-size="5pt" letter-spacing="1px" transform="translate(46.5 8)">2</text>
    <use id="CHANNEL2_LIGHT" xlink:href="#light-tiny" transform="translate(46.8 10)"/>
    <use id="OFFSET2_PARAM" xlink:href="#knob16" transform="translate(62.5 0)"/>
    <use xlink:href="#dial-centertick" transform="translate(50.5 -12)"/>
    <use id="SCALE2_PARAM" xlink:href="#knob16" transform="translate(93.5 0)"/>
    <use xlink:href="#dial-mintick" transform="translate(81.5 -12)"/>
  </g>
  <g transform="translate(0 103)">
    <text font-size="5pt" letter-spacing="1px" transform="translate(46.5 8)">3</text>
    <use id="CHANNEL3_LIGHT" xlink:href="#light-tiny" transform="translate(46.8 10)"/>
    <use id="OFFSET3_PARAM" xlink:href="#knob16" transform="translate(62.5 0)"/>
    <use xlink:href="#dial-centertick" transform="translate(50.5 -12)"/>
    <use id="SCALE3_PARAM" xlink:href="#knob16" transform="translate(93.5 0)"/>
    <use xlink:href="#dial-mintick" transform="translate(81.5 -12)"/>
  </g>
  <g transform="translate(0 138)">
    <text font-size="5pt" letter-spacing="1px" transform="translate(46.5 8)">4</text>
    <use id="CHANNEL4_LIGHT" xlink:href="#light-tiny" transform="translate(46.8 10)"/>
    <use id="OFFSET4_PARAM" xlink:href="#knob16" transform="translate(62.5 0)"/>
    <use xlink:href="#dial-centertick" transform="translate(50.5 -12)"/>
    <use id="SCALE4_PARAM" xlink:href="#knob16" transform="translate(93.5 0)"/>
    <use xlink:href="#dial-mintick" transform="translate(81.5 -12)"/>
  </g>
  <g transform="translate(0 173)">
    <text font-size="5pt" letter-spacing="1px" transform="translate(46.5 8)">5</text>
    <use id="CHANNEL5_LIGHT" xlink:href="#light-tiny" transform="translate(46.8 10)"/>
    <use id="OFFSET5_PARAM" xlink:href="#knob16" transform="translate(62.5 0)"/>
    <use xlink:href="#dial-centertick" transform="translate(50.5 -12)"/>
    <use id="SCALE5_PARAM" xlink:href="#knob16" transform="translate(93.5 0)"/>
    <use xlink:href="#dial-mintick" transform="translate(81.5 -12)"/>
  </g>
  <g transform="translate(0 208)">
    <text font-size="5pt" letter-spacing="1px" transform="translate(46.5 8)">6</text>
    <use id="CHANNEL6_LIGHT" xlink:href="#light-tiny" transform="translate(46.8 10)"/>
    <use id="OFFSET6_PARAM" xlink:href="#knob16" transform="translate(62.5 0)"/>
    <use xlink:href="#dial-centertick" transform="translate(50.5 -12)"/>
    <use id="SCALE6_PARAM" xlink:href="#knob16" transform="translate(93.5 0)"/>
    <use xlink:href="#dial-mintick" transform="translate(81.5 -12)"/>
  </g>
  <g transform="translate(0 243)">
    <text font-size="5pt" letter-spacing="1px" transform="translate(46.5 8)">7</text>
    <use id="CHANNEL7_LIGHT" xlink:href="#light-tiny" transform="translate(46.8 10)"/>
    <use id="OFFSET7_PARAM" xlink:href="#knob16" transform="translate(62.5 0)"/>
    <use xlink:href="#dial-centertick" transform="translate(50.5 -12)"/>
    <use id="SCALE7_PARAM" xlink:href="#knob16" transform="translate(93.5 0)"/>
    <use xlink:href="#dial-mintick" transform="translate(81.5 -12)"/>
  </g>
  <g transform="translate(0 278)">
    <text font-size="5pt" letter-spacing="1px" transform="translate(46.5 8)">8</text>
    <use id="CHANNEL8_LIGHT" xlink:href="#light-tiny" transform="translate(46.8 10)"/>
    <use id="OFFSET8_PARAM" xlink:href="#knob16" transform="translate(62.5 0)"/>
    <use xlink:href="#dial-centertick" transform="translate(50.5 -12)"/>
    <use id="SCALE8_PARAM" xlink:href="#knob16" transform="translate(93.5 0)"/>
    <use xlink:href="#dial-mintick" transform="translate(81.5 -12)"/>
  </g>

  <g transform="translate(120 33)">
    <text font-size="5pt" letter-spacing="1px" transform="translate(46.5 8)">9</text>
    <use id="CHANNEL9_LIGHT" xlink:href="#light-tiny" transform="translate(46.8 10)"/>
    <use id="OFFSET9_PARAM" xlink:href="#knob16" transform="translate(62.5 0)"/>
    <use xlink:href="#dial-centertick" transform="translate(50.5 -12)"/>
    <use id="SCALE9_PARAM" xlink:href="#knob16" transform="translate(93.5 0)"/>
    <use xlink:href="#dial-mintick" transform="translate(81.5 -12)"/>
  </g>
  <g transform="translate(120 68)">
    <text font-size="5pt" letter-spacing="1px" transform="translate(44 8)">10</text>
    <use id="CHANNEL10_LIGHT" xlink:href="#light-tiny" transform="translate(46.8 10)"/>
    <use id="OFFSET10_PARAM" xlink:href="#knob16" transform="translate(62.5 0)"/>
    <use xlink:href="#dial-centertick" transform="translate(50.5 -12)"/>
    <use id="SCALE10_PARAM" xlink:href="#knob16" transform="translate(93.5 0)"/>
    <use xlink:href="#dial-mintick" transform="translate(81.5 -12)"/>
  </g>
  <g transform="translate(120 103)">
    <text font-size="5pt" letter-spacing="1px" transform="translate(44 8)">11</text>
    <use id="CHANNEL11_LIGHT" xlink:href="#light-tiny" transform="translate(46.8 10)"/>
    <use id="OFFSET11_PARAM" xlink:href="#knob16" transform="translate(62.5 0)"/>
    <use xlink:href="#dial-centertick" transform="translate(50.5 -12)"/>
    <use id="SCALE11_PARAM" xlink:href="#knob16" transform="translate(93.5 0)"/>
    <use xlink:href="#dial-mintick" transform="translate(81.5 -12)"/>
  </g>
  <g transform="translate(120 138)">
    <text font-size="5pt" letter-spacing="1px" transform="translate(44 8)">12</text>
    <use id="CHANNEL12_LIGHT" xlink:href="#light-tiny" transform="translate(46.8 10)"/>
    <use id="OFFSET12_PARAM" xlink:href="#knob16" transform="translate(62.5 0)"/>
    <use xlink:href="#dial-centertick" transform="translate(50.5 -12)"/>
    <use id="SCALE12_PARAM" xlink:href="#knob16" transform="translate(93.5 0)"/>
    <use xlink:href="#dial-mintick" transform="translate(81.5 -12)"/>
  </g>
  <g transform="translate(120 173)">
    <text font-size="5pt" letter-spacing="1px" transform="translate(44 8)">13</text>
    <use id="CHANNEL13_LIGHT" xlink:href="#light-tiny" transform="translate(46.8 10)"/>
    <use id="OFFSET13_PARAM" xlink:href="#knob16" transform="translate(62.5 0)"/>
    <use xlink:href="#dial-centertick" transform="translate(50.5 -12)"/>
    <use id="SCALE13_PARAM" xlink:href="#knob16" transform="translate(93.5 0)"/>
    <use xlink:href="#dial-mintick" transform="translate(81.5 -12)"/>
  </g>
  <g transform="translate(120 208)">
    <text font-size="5pt" letter-spacing="1px" transform="translate(44 8)">14</text>
    <use id="CHANNEL14_LIGHT" xlink:href="#light-tiny" transform="translate(46.8 10)"/>
    <use id="OFFSET14_PARAM" xlink:href="#knob16" transform="translate(62.5 0)"/>
    <use xlink:href="#dial-centertick" transform="translate(50.5 -12)"/>
    <use id="SCALE14_PARAM" xlink:href="#knob16" transform="translate(93.5 0)"/>
    <use xlink:href="#dial-mintick" transform="translate(81.5 -12)"/>
  </g>
  <g transform="translate(120 243)">
    <text font-size="5pt" letter-spacing="1px" transform="translate(44 8)">15</text>
    <use id="CHANNEL15_LIGHT" xlink:href="#light-tiny" transform="translate(46.8 10)"/>
    <use id="OFFSET15_PARAM" xlink:href="#knob16" transform="translate(62.5 0)"/>
    <use xlink:href="#dial-centertick" transform="translate(50.5 -12)"/>
    <use id="SCALE15_PARAM" xlink:href="#knob16" transform="translate(93.5 0)"/>
    <use xlink:href="#dial-mintick" transform="translate(81.5 -12)"/>
  </g>
  <g transform="translate(120 278)">
    <text font-size="5pt" letter-spacing="1px" transform="translate(44 8)">16</text>
    <use id="CHANNEL16_LIGHT" xlink:href="#light-tiny" transform="translate(46.8 10)"/>
    <use id="OFFSET16_PARAM" xlink:href="#knob16" transform="translate(62.5 0)"/>
    <use xlink:href="#dial-centertick" transform="translate(50.5 -12)"/>
    <use id="SCALE16_PARAM" xlink:href="#knob16" transform="translate(93.5 0)"/>
    <use xlink:href="#dial-mintick" transform="translate(81.5 -12)"/>
  </g>

  <text font-size="6pt" letter-spacing="0.3px" transform="translate(55 308)">OFFSET</text>
  <text font-size="6pt" letter-spacing="0.3px" transform="translate(88.5 308)">SCALE</text>
  <text font-size="6pt" letter-spacing="0.3px" transform="translate(175 308)">OFFSET</text>
  <text font-size="6pt" letter-spacing="0.3px" transform="translate(208.5 308)">SCALE</text>

  <!-- <rect width="60" height="20" fill="#0f0" transform="translate(0 330)" /> -->
  <!-- <rect width="60" height="20" fill="#0f0" transform="translate(180 330)" /> -->

  <g transform="translate(73 320)">
    <text font-size="6pt" letter-spacing="1.5px" transform="translate(-4 39) rotate(-90) translate(6.5 0)">CHAN</text>
    <use id="CHANNELS_PARAM" xlink:href="#knob16" transform="translate(10 12)"/>
    <use xlink:href="#dial-channels-small" transform="translate(-2 0)"/>
  </g>

  <g transform="translate(115 318)">
    <rect width="60" height="40" rx="5" fill="#fafafa"/>
    <rect width="24" height="40" rx="5" fill="#bbb" transform="translate(38)"/>
    <rect width="20" height="40" fill="#bbb" transform="translate(31)"/>
    <use id="IN_INPUT" xlink:href="#input" transform="translate(3.5 4)"/>
    <use id="OUT_OUTPUT" xlink:href="#output" transform="translate(34.5 4)"/>
    <text font-size="6pt" letter-spacing="1px" transform="translate(11 36)">IN</text>
    <text font-size="6pt" letter-spacing="2px" transform="translate(36 36)">OUT</text>
  </g>
</svg>
