<svg
  version="1.1"
  xmlns="http://www.w3.org/2000/svg"
  xmlns:xlink="http://www.w3.org/1999/xlink"
  width="45"
  height="380"
  viewBox="0 0 45 380"
>
  <style>
    text {
      fill: #333;
      font-family: 'Roboto', sans-serif;
      font-weight: bold;
    }
    text.title {
      font-family: 'Comfortaa', sans-serif;
      font-weight: normal;
    }
    text.brand {
      font-family: 'Audiowide', sans-serif;
      font-weight: bold;
    }
  </style>

  <defs>
    <symbol id="knob-medium" viewBox="0 0 26px 26px">
      <g transform="translate(13 13)">
        <polyline points="-3,0 3,0" stroke-width="1" stroke="#00f" />
        <polyline points="0,-3 0,3" stroke-width="1" stroke="#00f" />
        <circle cx="0" cy="0" r="12.5" stroke-width="1" stroke="#00f" fill="none" />
      </g>
    </symbol>

    <symbol id="knob-smallest" viewBox="0 0 16px 16px">
      <g transform="translate(8 8)">
        <polyline points="-3,0 3,0" stroke-width="1" stroke="#00f" />
        <polyline points="0,-3 0,3" stroke-width="1" stroke="#00f" />
        <circle r="7.5" stroke-width="1" stroke="#00f" fill="none" />
      </g>
    </symbol>

    <symbol id="knobguide-frequency-sine" viewBox="0 0 45px 45px">
      <g transform="translate(22.5 22.5)">
        <polyline points="0,0 3.5,0" stroke-width="0.7" stroke="#333" transform="rotate(-240) translate(15 0)" />
        <polyline points="0,0 2.5,0" stroke-width="0.3" stroke="#333" transform="rotate(-206.67) translate(15 0)" />
        <polyline points="0,0 2.5,0" stroke-width="0.3" stroke="#333" transform="rotate(-173.33) translate(15 0)" />

        <g transform="rotate(-140) translate(14 0)">
          <polyline points="0,0 2.5,0" stroke-width="1.0" stroke="#333" transform="translate(0 0)" />
          <text font-size="5.0pt" transform="translate(5 0) rotate(140) translate(-5.5 0)">OV</text>
        </g>

        <polyline points="0,0 2.5,0" stroke-width="0.3" stroke="#333" transform="rotate(-106.67) translate(15 0)" />
        <polyline points="0,0 2.5,0" stroke-width="0.3" stroke="#333" transform="rotate(-73.33) translate(15 0)" />
        <polyline points="0,0 2.5,0" stroke-width="0.3" stroke="#333" transform="rotate(-40) translate(15 0)" />
        <polyline points="0,0 2.5,0" stroke-width="0.3" stroke="#333" transform="rotate(-6.67) translate(15 0)" />
        <polyline points="0,0 2.5,0" stroke-width="0.3" stroke="#333" transform="rotate(26.67) translate(15 0)" />
        <polyline points="0,0 3.5,0" stroke-width="0.7" stroke="#333" transform="rotate(60) translate(15 0)" />
      </g>
    </symbol>

    <symbol id="knobguide-pw" viewBox="0 0 45px 45px">
      <g transform="translate(22.5 22.5)">
        <g transform="rotate(-240) translate(15 0)">
          <text font-size="9.0pt" transform="translate(3 0) rotate(240) translate(-2.2 3.6)">-</text>
        </g>
        <g transform="rotate(-210) translate(15 0)">
          <polyline points="0,0 2.5,0" stroke-width="0.3" stroke="#333" />
        </g>
        <g transform="rotate(-180) translate(15 0)">
          <polyline points="0,0 2.5,0" stroke-width="0.3" stroke="#333" />
        </g>
        <g transform="rotate(-150) translate(15 0)">
          <polyline points="0,0 2.5,0" stroke-width="0.3" stroke="#333" />
        </g>
        <g transform="rotate(-120) translate(15 0)">
          <polyline points="0,0 2.5,0" stroke-width="0.3" stroke="#333" />
        </g>
        <g transform="rotate(-90) translate(15 0)">
          <text font-size="5.0pt" transform="translate(2 0) rotate(90) translate(-2 2)">0</text>
        </g>
        <g transform="rotate(-60) translate(15 0)">
          <polyline points="0,0 2.5,0" stroke-width="0.3" stroke="#333" />
        </g>
        <g transform="rotate(-30) translate(15 0)">
          <polyline points="0,0 2.5,0" stroke-width="0.3" stroke="#333" />
        </g>
        <g transform="rotate(0) translate(15 0)">
          <polyline points="0,0 2.5,0" stroke-width="0.3" stroke="#333" />
        </g>
        <g transform="rotate(30) translate(15 0)">
          <polyline points="0,0 2.5,0" stroke-width="0.3" stroke="#333" />
        </g>
        <g transform="rotate(60) translate(15 0)">
          <text font-size="5.0pt" transform="translate(3 0) rotate(-60) translate(-2 2)">+</text>
        </g>
      </g>
    </symbol>

    <symbol id="knobguide-centertick" viewBox="0 0 40px 40px">
      <g transform="translate(20 20)">
        <g transform="rotate(-90) translate(10 0)">
          <polyline points="0,0 4,0" stroke-width="1" stroke="#333" />
        </g>
        <path d="M 0 -12.5 A 12.5 12.5 0 0 1 12.5 0" stroke="#333" stroke-width="0.5" stroke-linecap="round" fill="none" transform="rotate(20)" />
        <path d="M 0 -12.5 A 12.5 12.5 0 0 1 12.5 0" stroke="#333" stroke-width="0.5" stroke-linecap="round" fill="none" transform="rotate(43)" />
        <path d="M 0 -12.5 A 12.5 12.5 0 0 0 -12.5 0" stroke="#333" stroke-width="0.5" stroke-linecap="round" fill="none" transform="rotate(-20)" />
        <path d="M 0 -12.5 A 12.5 12.5 0 0 0 -12.5 0" stroke="#333" stroke-width="0.5" stroke-linecap="round" fill="none" transform="rotate(-43)" />
      </g>
    </symbol>

    <symbol id="input" viewBox="0 0 24px 24px">
      <g transform="translate(12 12)">
        <circle cx="0" cy="0" r="5" stroke-width="1" stroke="#0f0" fill="#0f0" />
        <circle cx="0" cy="0" r="10.5" stroke-width="3" stroke="#0f0" fill="none" />
      </g>
    </symbol>

    <symbol id="output" viewBox="0 0 24px 24px">
      <g transform="translate(12 12)">
        <circle cx="0" cy="0" r="5" stroke-width="1" stroke="#f00" fill="#f00" />
        <circle cx="0" cy="0" r="10.5" stroke-width="3" stroke="#f00" fill="none" />
      </g>
    </symbol>

    <symbol id="button-small" viewBox="0 0 9px 9px">
      <g transform="translate(4.5 4.5)">
        <circle r="4" stroke-width="1" stroke="#00f" fill="#f00" />
      </g>
    </symbol>
  </defs>

  <rect width="100%" height="100%" fill="#ddd" />
  <polyline points="1,1 44,1 44,379 1,379 1,1" stroke="#e4e4e4" stroke-width="0.5" fill="none" />
  <polyline points="0.5,0.5 44.5,0.5 44.5,379.5 0.5,379.5 0.5,0.5" stroke="#ebebeb" stroke-width="0.8" fill="none" />
  <polyline points="0,0 45,0 45,380 0,380 0,0" stroke="#f2f2f2" stroke-width="1" fill="none" />

  <g transform="rotate(-90) translate(-376 13)">
    <text class="title" font-size="7pt" letter-spacing="2.5px">PULSE</text>
    <g transform="translate(0 12)">
      <text class="brand" font-size="7pt" letter-spacing="2px">BGA</text>
      <rect width="3.0" height="3" fill="#ddd" transform="translate(11.5 -5)" />
    </g>
  </g>

  <!-- <polyline points="0,0 0,380" stroke="#0f0" stroke-width="1" fill="none" transform="translate(22.5 0)" /> -->

  <g transform="translate(0 25)">
    <!-- <polyline points="0,0 45,0" stroke="#0f0" stroke-width="1" fill="none" transform="translate(0 0)" /> -->
    <use id="FREQUENCY_PARAM" xlink:href="#knob-medium" transform="translate(9.5 2)" />
    <use xlink:href="#knobguide-frequency-sine" transform="translate(0 -7.5)" />
  </g>

  <g transform="translate(0 63)">
    <text font-size="6pt" letter-spacing="1px" transform="translate(4 6.1)">SLOW</text>
    <use id="SLOW_PARAM" xlink:href="#button-small" transform="translate(31 -1)" />
  </g>

  <g transform="translate(0 89)">
    <!-- <rect width="45" height="10" fill="#f0f" transform="translate(0 -17)" /> -->
    <text font-size="6pt" letter-spacing="2px" transform="translate(15.5 -1)">PW</text>
    <use id="PW_PARAM" xlink:href="#knob-medium" transform="translate(9.5 9.5)" />
    <use xlink:href="#knobguide-pw" transform="translate(0 0)" />
  </g>

  <g transform="translate(0 145)">
    <!-- <rect width="45" height="10" fill="#f0f" transform="translate(0 -16)" /> -->
    <text font-size="6pt" letter-spacing="2px" transform="translate(10.5 0)">PWM</text>
    <use id="PWM_PARAM" xlink:href="#knob-smallest" transform="translate(14.5 9.5)" />
    <use xlink:href="#knobguide-centertick" transform="translate(2.2 -2.5)" />
  </g>

  <g transform="translate(0 182)">
    <!-- <rect width="45" height="10" fill="#f0f" transform="translate(0 -10)" /> -->
    <g transform="translate(5.5 0)">
      <rect width="34" height="105" rx="5" fill="#fafafa" />
      <rect width="34" height="10" fill="#fafafa" transform="translate(0 98)" />
      <use id="PITCH_INPUT" xlink:href="#input" transform="translate(5 3)" />
      <text font-size="5pt" letter-spacing="2px" transform="translate(3.5 35)">V/OCT</text>
      <use id="PWM_INPUT" xlink:href="#input" transform="translate(5 38)" />
      <text font-size="5pt" letter-spacing="2px" transform="translate(7 70)">PWM</text>
      <use id="SYNC_INPUT" xlink:href="#input" transform="translate(5 73)" />
      <text font-size="5pt" letter-spacing="2px" transform="translate(5 105)">SYNC</text>
    </g>
    <g transform="translate(5.5 111)">
      <rect width="34" height="10" fill="#bbb" transform="translate(0 -3)" />
      <rect width="34" height="35" rx="5" fill="#bbb" />
      <use id="OUT_OUTPUT" xlink:href="#output" transform="translate(5 0)" />
      <text font-size="5pt" letter-spacing="2px" transform="translate(8.3 32)">OUT</text>
    </g>
  </g>
</svg>
