<?xml version="1.0"?>
<svg xmlns="http://www.w3.org/2000/svg" xmlns:xlink="http://www.w3.org/1999/xlink" version="1.1" width="45" height="380" viewBox="0 0 45 380">
  <style/>

  <rect width="100%" height="100%" fill="#ddd"/>
  <polyline points="1,1 44,1 44,379 1,379 1,1" stroke="#e4e4e4" stroke-width="0.5" fill="none"/>
  <polyline points="0.5,0.5 44.5,0.5 44.5,379.5 0.5,379.5 0.5,0.5" stroke="#ebebeb" stroke-width="0.8" fill="none"/>
  <polyline points="0,0 45,0 45,380 0,380 0,0" stroke="#f2f2f2" stroke-width="1" fill="none"/>

  <g transform="rotate(-90) translate(-376 13)">
    <text class="title" font-size="7pt" letter-spacing="2.5px">S&amp;H</text>
    <g transform="translate(0 12)">
      <text class="brand" font-size="7pt" letter-spacing="2px">BGA</text>
      <rect width="3.0" height="3" fill="#ddd" transform="translate(11.5 -5)"/>
    </g>
  </g>

  <g transform="translate(0 18)">
    <!-- <text font-size="6pt" letterspacing="2px" transform="translate(5.5 0)">1</text> -->
    <!-- <polyline points="0,0 21,0" stroke-width="1" stroke="#333" transform="translate(14 -3)" /> -->
    <g transform="translate(0 5)">
      <g transform="translate(5.5 0)">
        <rect width="34" height="10" fill="#fafafa" transform="translate(0 58)"/>
        <rect width="34" height="62" rx="5" fill="#fafafa"/>
        <def id="TRIGGER1_PARAM" xlink:href="#button" transform="translate(8 4)"/>
        <def id="TRIGGER1_INPUT" xlink:href="#input" transform="translate(5 26)"/>
        <text font-size="5pt" letter-spacing="2px" transform="translate(5.5 58)">GATE</text>
      </g>
    </g>

    <g transform="translate(0 65)">
      <g transform="translate(5.5 0)">
        <rect width="34" height="10" fill="#fafafa" transform="translate(0 51)"/>
        <rect width="34" height="58" rx="5" fill="#fafafa"/>
        <def id="IN1_INPUT" xlink:href="#input" transform="translate(5 3)"/>
        <text font-size="5pt" letter-spacing="2px" transform="translate(12.5 35)">IN</text>
      </g>

      <g transform="translate(9.5 41)">
        <text font-size="5pt" letter-spacing="1px" transform="translate(0 5.5)">TRK</text>
        <def id="TRACK1_PARAM" xlink:href="#button-small" transform="translate(17 -1.3)"/>
      </g>

      <g transform="translate(9.5 52)">
        <text font-size="5pt" letter-spacing="1.2px" transform="translate(1 5.5)">INV</text>
        <def id="INVERT1_PARAM" xlink:href="#button-small" transform="translate(17 -1.3)"/>
      </g>

      <g transform="translate(5.5 64)">
        <rect width="34" height="10" fill="#bbb" transform="translate(0 -3)"/>
        <rect width="34" height="35" rx="5" fill="#bbb"/>
        <def id="OUT1_OUTPUT" xlink:href="#output" transform="translate(5 0)"/>
        <text font-size="5pt" letter-spacing="2px" transform="translate(8.3 32)">OUT</text>
      </g>
    </g>
  </g>
  <!-- <rect width="90" height="13" fill="#0f0" transform="translate(0 172)" /> -->

  <g transform="translate(0 181)">
    <!-- <text font-size="6pt" letterspacing="2px" transform="translate(4.4 0)">2</text> -->
    <g transform="translate(0 5)">
      <g transform="translate(5.5 0)">
        <rect width="34" height="10" fill="#fafafa" transform="translate(0 58)"/>
        <rect width="34" height="62" rx="5" fill="#fafafa"/>
        <def id="TRIGGER2_PARAM" xlink:href="#button" transform="translate(8 4)"/>
        <def id="TRIGGER2_INPUT" xlink:href="#input" transform="translate(5 26)"/>
        <text font-size="5pt" letter-spacing="2px" transform="translate(5.5 58)">GATE</text>
      </g>
    </g>

    <g transform="translate(0 65)">
      <g transform="translate(5.5 0)">
        <rect width="34" height="10" fill="#fafafa" transform="translate(0 51)"/>
        <rect width="34" height="58" rx="5" fill="#fafafa"/>
        <def id="IN2_INPUT" xlink:href="#input" transform="translate(5 3)"/>
        <text font-size="5pt" letter-spacing="2px" transform="translate(12.5 35)">IN</text>
      </g>

      <g transform="translate(9.5 41)">
        <text font-size="5pt" letter-spacing="1px" transform="translate(0 5.5)">TRK</text>
        <def id="TRACK2_PARAM" xlink:href="#button-small" transform="translate(17 -1.3)"/>
      </g>

      <g transform="translate(9.5 52)">
        <text font-size="5pt" letter-spacing="1.2px" transform="translate(1 5.5)">INV</text>
        <def id="INVERT2_PARAM" xlink:href="#button-small" transform="translate(17 -1.3)"/>
      </g>

      <g transform="translate(5.5 64)">
        <rect width="34" height="10" fill="#bbb" transform="translate(0 -3)"/>
        <rect width="34" height="35" rx="5" fill="#bbb"/>
        <def id="OUT2_OUTPUT" xlink:href="#output" transform="translate(5 0)"/>
        <text font-size="5pt" letter-spacing="2px" transform="translate(8.3 32)">OUT</text>
      </g>
    </g>
  </g>
  <!-- <rect width="90" height="13" fill="#0f0" transform="translate(0 335)" /> -->
</svg>
