<?xml version="1.0"?>
<svg xmlns="http://www.w3.org/2000/svg" xmlns:xlink="http://www.w3.org/1999/xlink" version="1.1" width="45" height="380" viewBox="0 0 45 380">
  <style/>

  <defs>
    <symbol id="dial-frequency-sine" viewBox="0 0 45px 45px">
      <g transform="translate(22.5 22.5)">
        <polyline points="0,0 3.5,0" stroke-width="0.7" stroke="#333" transform="rotate(-240) translate(15 0)"/>
        <polyline points="0,0 2.5,0" stroke-width="0.3" stroke="#333" transform="rotate(-206.67) translate(15 0)"/>
        <polyline points="0,0 2.5,0" stroke-width="0.3" stroke="#333" transform="rotate(-173.33) translate(15 0)"/>

        <g transform="rotate(-140) translate(14 0)">
          <polyline points="0,0 2.5,0" stroke-width="1.0" stroke="#333" transform="translate(0 0)"/>
          <text font-size="5.0pt" transform="translate(5 0) rotate(140) translate(-5.5 0)">OV</text>
        </g>

        <polyline points="0,0 2.5,0" stroke-width="0.3" stroke="#333" transform="rotate(-106.67) translate(15 0)"/>
        <polyline points="0,0 2.5,0" stroke-width="0.3" stroke="#333" transform="rotate(-73.33) translate(15 0)"/>
        <polyline points="0,0 2.5,0" stroke-width="0.3" stroke="#333" transform="rotate(-40) translate(15 0)"/>
        <polyline points="0,0 2.5,0" stroke-width="0.3" stroke="#333" transform="rotate(-6.67) translate(15 0)"/>
        <polyline points="0,0 2.5,0" stroke-width="0.3" stroke="#333" transform="rotate(26.67) translate(15 0)"/>
        <polyline points="0,0 3.5,0" stroke-width="0.7" stroke="#333" transform="rotate(60) translate(15 0)"/>
      </g>
    </symbol>
  </defs>

  <rect width="100%" height="100%" fill="#ddd"/>
  <polyline points="1,1 44,1 44,379 1,379 1,1" stroke="#e4e4e4" stroke-width="0.5" fill="none"/>
  <polyline points="0.5,0.5 44.5,0.5 44.5,379.5 0.5,379.5 0.5,0.5" stroke="#ebebeb" stroke-width="0.8" fill="none"/>
  <polyline points="0,0 45,0 45,380 0,380 0,0" stroke="#f2f2f2" stroke-width="1" fill="none"/>

  <g transform="rotate(-90) translate(-376 13)">
    <text class="title" font-size="7pt" letter-spacing="2.5px">SINE</text>
    <g transform="translate(0 12)">
      <text class="brand" font-size="7pt" letter-spacing="2px">BGA</text>
      <rect width="3.0" height="3" fill="#ddd" transform="translate(11.5 -5)"/>
    </g>
  </g>

  <!-- <polyline points="0,0 0,380" stroke="#0f0" stroke-width="1" fill="none" transform="translate(22.5 0)" /> -->

  <g transform="translate(0 25)">
    <!-- <polyline points="0,0 45,0" stroke="#0f0" stroke-width="1" fill="none" transform="translate(0 0)" /> -->
    <def id="FREQUENCY_PARAM" xlink:href="#knob26" transform="translate(9.5 2)"/>
    <use xlink:href="#dial-frequency-sine" transform="translate(0 -7.5)"/>
  </g>

  <g transform="translate(0 63)">
    <text font-size="6pt" letter-spacing="1px" transform="translate(4 6.1)">SLOW</text>
    <def id="SLOW_PARAM" xlink:href="#button-small" transform="translate(31 -1)"/>
  </g>

  <g transform="translate(0 83)">
    <!-- <rect width="45" height="8" fill="#f0f" transform="translate(0 -14)" /> -->
    <text font-size="6pt" letter-spacing="2px" transform="translate(16 0)">FM</text>
    <def id="FM_DEPTH_PARAM" xlink:href="#knob16" transform="translate(14.5 9.5)"/>
    <def xlink:href="#dial-mintick" transform="translate(2.2 -2.5)"/>
  </g>

  <g transform="translate(0 125)">
    <!-- <rect width="45" height="8" fill="#f0f" transform="translate(0 -14)" /> -->
    <text font-size="6pt" letter-spacing="2px" transform="translate(6 0)">PHASE</text>
    <def id="PHASE_PARAM" xlink:href="#knob16" transform="translate(14.5 9.5)"/>
    <def xlink:href="#dial-centertick" transform="translate(2.2 -2.5)"/>
  </g>

  <g transform="translate(0 158)">
    <!-- <rect width="45" height="8" fill="#f0f" transform="translate(0 -8)" /> -->
    <g transform="translate(5.5 0)">
      <rect width="34" height="10" fill="#fafafa" transform="translate(0 133)"/>
      <rect width="34" height="140" rx="5" fill="#fafafa"/>
      <def id="PITCH_INPUT" xlink:href="#input" transform="translate(5 3)"/>
      <text font-size="5pt" letter-spacing="2px" transform="translate(3.5 35)">V/OCT</text>
      <def id="FM_INPUT" xlink:href="#input" transform="translate(5 38)"/>
      <text font-size="5pt" letter-spacing="2px" transform="translate(11 70)">FM</text>
      <def id="PHASE_INPUT" xlink:href="#input" transform="translate(5 73)"/>
      <text font-size="5pt" letter-spacing="2px" transform="translate(2.5 105)">PHASE</text>
      <def id="SYNC_INPUT" xlink:href="#input" transform="translate(5 108)"/>
      <text font-size="5pt" letter-spacing="2px" transform="translate(5 140)">SYNC</text>
    </g>
    <g transform="translate(5.5 146)">
      <rect width="34" height="10" fill="#bbb" transform="translate(0 -3)"/>
      <rect width="34" height="35" rx="5" fill="#bbb"/>
      <def id="OUT_OUTPUT" xlink:href="#output" transform="translate(5 0)"/>
      <text font-size="5pt" letter-spacing="2px" transform="translate(8.3 32)">OUT</text>
    </g>
  </g>
</svg>
