<?xml version="1.0"?>
<svg xmlns="http://www.w3.org/2000/svg" xmlns:xlink="http://www.w3.org/1999/xlink" version="1.1" width="150" height="380" viewBox="0 0 150 380">
  <style/>

  <defs>
    <symbol id="dial-fm-vco" viewBox="0 0 45px 45px">
      <g transform="translate(22.5 22.5)">
        <text font-size="5.0pt" transform="rotate(-240) translate(18 0) rotate(240) translate(-2 2)">0</text>
        <polyline points="0,0 2.5,0" stroke-width="0.3" stroke="#333" transform="rotate(-210) translate(15 0)"/>
        <polyline points="0,0 2.5,0" stroke-width="0.3" stroke="#333" transform="rotate(-180) translate(15 0)"/>
        <polyline points="0,0 2.5,0" stroke-width="0.3" stroke="#333" transform="rotate(-150) translate(15 0)"/>
        <polyline points="0,0 2.5,0" stroke-width="0.3" stroke="#333" transform="rotate(-120) translate(15 0)"/>
        <polyline points="0,0 2.5,0" stroke-width="0.3" stroke="#333" transform="rotate(-90) translate(15 0)"/>
        <polyline points="0,0 2.5,0" stroke-width="0.3" stroke="#333" transform="rotate(-60) translate(15 0)"/>
        <polyline points="0,0 2.5,0" stroke-width="0.3" stroke="#333" transform="rotate(-30) translate(15 0)"/>
        <polyline points="0,0 2.5,0" stroke-width="0.3" stroke="#333" transform="rotate(0) translate(15 0)"/>
        <polyline points="0,0 2.5,0" stroke-width="0.3" stroke="#333" transform="rotate(30) translate(15 0)"/>
        <polyline points="0,0 3.5,0" stroke-width="1" stroke="#333" transform="rotate(60) translate(15 0)"/>
      </g>
    </symbol>
  </defs>

  <rect width="100%" height="100%" fill="#ddd"/>
  <polyline points="1,1 149,1 149,379 1,379 1,1" stroke="#e4e4e4" stroke-width="0.5" fill="none"/>
  <polyline points="0.5,0.5 149.5,0.5 149.5,379.5 0.5,379.5 0.5,0.5" stroke="#ebebeb" stroke-width="0.8" fill="none"/>
  <polyline points="0,0 150,0 150,380 0,380 0,0" stroke="#f2f2f2" stroke-width="1" fill="none"/>

  <!-- <rect width="50" height="20" fill="#0f0" transform="translate(0 0)" /> -->
  <!-- <rect width="50" height="20" fill="#0f0" transform="translate(100 0)" /> -->

  <text class="title" x="52" y="19" font-size="12pt" letter-spacing="4px">VCO</text>
  <g transform="translate(35.5 374)">
    <text class="brand" font-size="8pt" letter-spacing="2px">BOGAUDIO</text>
    <rect width="3.0" height="3" fill="#ddd" transform="translate(24 -5)"/>
  </g>

  <g transform="translate(21 25)">
    <!-- <rect width="108" height="98" fill="none" stroke="#0f0" /> -->
    <!-- <polyline points="0,54 54,54" stroke="#0f0" stroke-width="1" fill="none" /> -->
    <!-- <polyline points="54,54 54,354" stroke="#0f0" stroke-width="1" fill="none" /> -->
    <def id="FREQUENCY_PARAM" xlink:href="#knob68" transform="translate(20 20)"/>
  </g>
  <def xlink:href="#dial-frequency" transform="translate(20 25)"/>

  <text font-size="6pt" letter-spacing="1px" transform="translate(30 135)">0V = C4 = 261.63HZ</text>

  <!-- <rect width="100" height="7" fill="#0f0" transform="translate(10 136)" /> -->

  <g transform="translate(35 153)">
    <!-- <polyline points="0,-5 70,-5" stroke="#0f0" stroke-width="1" fill="none" /> -->
    <!-- <polyline points="0,8 70,8" stroke="#0f0" stroke-width="1" fill="none" /> -->
    <!-- <polyline points="0,21 70,21" stroke="#0f0" stroke-width="1" fill="none" /> -->
    <!-- <polyline points="21,-10 21,240" stroke="#0f0" stroke-width="1" fill="none" /> -->
    <text font-size="8pt" letter-spacing="2px" transform="translate(0 22) rotate(270)">FINE</text>
    <def id="FINE_PARAM" xlink:href="#knob16" transform="translate(13 0)"/>
    <!-- <rect width="90" height="10" fill="#0f0" transform="translate(0 17)" /> -->
  </g>
  <def xlink:href="#dial-centertick" transform="translate(36 141)"/>

  <g transform="translate(73 150)">
    <g transform="translate(0 1)">
      <text font-size="6pt" letter-spacing="2px" transform="translate(10 6.1)">SLOW</text>
      <def id="SLOW_PARAM" xlink:href="#button-small" transform="translate(41 -1.3)"/>
    </g>

    <g transform="translate(0 14)">
      <text font-size="6pt" letter-spacing="0.5px" transform="translate(8 6.1)">LINEAR</text>
      <def id="LINEAR_PARAM" xlink:href="#button-small" transform="translate(41 -1.3)"/>
    </g>
  </g>

  <!-- <rect width="100" height="7" fill="#0f0" transform="translate(10 172)" /> -->

  <g transform="translate(44 188)">
    <!-- <polyline points="0,13 70,13" stroke="#0f0" stroke-width="1" fill="none" /> -->
    <text font-size="8pt" letter-spacing="2px" transform="translate(10 22.5) rotate(270)">PW</text>
    <def id="PW_PARAM" xlink:href="#knob26" transform="translate(18 0)"/>
  </g>
  <def xlink:href="#dial-attenuverter" transform="translate(52.5 178.5)"/>

  <!-- <rect width="100" height="7" fill="#0f0" transform="translate(10 218)" /> -->

  <g transform="translate(44 230)">
    <!-- <rect width="83" height="7" fill="#0f0" transform="translate(0 0)" /> -->
    <g transform="translate(0 0)">
      <!-- <polyline points="0,13 100,13" stroke="#0f0" stroke-width="1" fill="none" /> -->
      <text font-size="8pt" letter-spacing="2px" transform="translate(10 22) rotate(270)">FM</text>
      <def id="FM_PARAM" xlink:href="#knob26" transform="translate(18 0)"/>
    </g>
    <!-- <rect width="90" height="10" fill="#0f0" transform="translate(0 26)" /> -->
    <g transform="translate(57 -0)">
      <text font-size="5pt" letter-spacing="2px" transform="translate(-1 -1)">EXP</text>
      <def id="FM_TYPE_PARAM" xlink:href="#switch" transform="translate(0 2)"/>
      <text font-size="5pt" letter-spacing="2px" transform="translate(0 34)">LIN</text>
    </g>
  </g>
  <use xlink:href="#dial-fm-vco" transform="translate(52.5 220.5)"/>

  <!-- <rect width="150" height="7" fill="#0f0" transform="translate(10 262)" /> -->

  <g transform="translate(0 269)">
    <rect width="130" height="91" rx="5" fill="#bbb" transform="translate(10 0)"/>
    <!-- <rect width="97" height="91" rx="5" fill="#fafafa" transform="translate(10 0)" /> -->
    <rect width="65" height="91" rx="5" fill="#fafafa" transform="translate(10 0)"/>
    <rect width="10" height="8" fill="#fafafa" transform="translate(65 0)"/>
    <rect width="10" height="8" fill="#fafafa" transform="translate(65 83)"/>

    <g transform="translate(12 0)">
      <def id="PW_INPUT" xlink:href="#input" transform="translate(3 5)"/>
      <text font-size="6pt" letter-spacing="2px" transform="translate(8 40)">PW</text>
    </g>
    <g transform="translate(44 0)">
      <def id="FM_INPUT" xlink:href="#input" transform="translate(3 5)"/>
      <text font-size="6pt" letter-spacing="2px" transform="translate(8 40)">FM</text>
    </g>
    <g transform="translate(76 0)">
      <def id="SQUARE_OUTPUT" xlink:href="#output" transform="translate(3 5)"/>
      <!-- <text font-size="6pt" letter-spacing="2px" transform="translate(5.5 40)">SQR</text> -->
      <g transform="translate(9 33.5)">
        <!-- <rect width="12" height="8" fill="none" stroke-width="1" stroke="#0f0" /> -->
        <polyline points="0,4 0,0 6,0 6,8 12,8 12,4" stroke-width="1" stroke="#333" fill="none"/>
      </g>
    </g>
    <g transform="translate(108 0)">
      <def id="SAW_OUTPUT" xlink:href="#output" transform="translate(3 5)"/>
      <!-- <text font-size="6pt" letter-spacing="2px" transform="translate(4.5 40)">SAW</text> -->
      <g transform="translate(9 33.5)">
        <!-- <rect width="12" height="8" fill="none" stroke-width="1" stroke="#0f0" /> -->
        <polyline points="0,8 12,0 12,8" stroke-width="1" stroke="#333" fill="none"/>
      </g>
    </g>

    <g transform="translate(10 44)">
      <g transform="translate(2 0)">
        <def id="PITCH_INPUT" xlink:href="#input" transform="translate(3 5)"/>
        <text font-size="6pt" letter-spacing="1px" transform="translate(1 40)">V/OCT</text>
      </g>
      <g transform="translate(34 0)">
        <def id="SYNC_INPUT" xlink:href="#input" transform="translate(3 5)"/>
        <text font-size="6pt" letter-spacing="1px" transform="translate(3 40)">SYNC</text>
      </g>
      <g transform="translate(66 0)">
        <def id="TRIANGLE_OUTPUT" xlink:href="#output" transform="translate(3 5)"/>
        <!-- <text font-size="6pt" letter-spacing="2px" transform="translate(7 40)">TRI</text> -->
        <g transform="translate(9 33.5)">
          <!-- <rect width="12" height="8" fill="none" stroke-width="1" stroke="#0f0" /> -->
          <polyline points="0,4 3,0 9,8 12,4" stroke-width="1" stroke="#333" fill="none"/>
        </g>
      </g>
      <g transform="translate(98 0)">
        <def id="SINE_OUTPUT" xlink:href="#output" transform="translate(3 5)"/>
        <!-- <text font-size="6pt" letter-spacing="2px" transform="translate(6.5 40)">SIN</text> -->
        <g transform="translate(9 33.5)">
          <!-- <rect width="12" height="8" fill="none" stroke-width="1" stroke="#0f0" /> -->
          <path d="M 0 4 A 2 3 0 0 1 6 4" stroke="#333" stroke-width="1" fill="none"/>
          <path d="M 6 4 A 2 3 0 0 0 12 4" stroke="#333" stroke-width="1" fill="none"/>
        </g>
      </g>
    </g>
  </g>
</svg>
