<svg
  version="1.1"
  xmlns="http://www.w3.org/2000/svg"
  xmlns:xlink="http://www.w3.org/1999/xlink"
  width="150"
  height="380"
  viewBox="0 0 150 380"
>
  <style>
    text {
      fill: #333;
      font-family: 'Roboto', sans-serif;
      font-weight: bold;
    }
    text.title {
      font-family: 'Comfortaa', sans-serif;
      font-weight: normal;
    }
    text.brand {
      font-family: 'Audiowide', sans-serif;
      font-weight: bold;
    }
  </style>

  <defs>
    <symbol id="knob-large" viewBox="0 0 68px 68px">
      <g transform="translate(34 34)">
        <polyline points="-10,0 10,0" stroke-width="1" stroke="#00f" />
        <polyline points="0,-10 0,10" stroke-width="1" stroke="#00f" />
        <circle cx="0" cy="0" r="33.5" stroke-width="1" stroke="#00f" fill="none" />
      </g>
    </symbol>

    <symbol id="knob-medium" viewBox="0 0 26px 26px">
      <g transform="translate(13 13)">
        <polyline points="-3,0 3,0" stroke-width="1" stroke="#00f" />
        <polyline points="0,-3 0,3" stroke-width="1" stroke="#00f" />
        <circle cx="0" cy="0" r="12" stroke-width="1" stroke="#00f" fill="none" />
      </g>
    </symbol>

    <symbol id="knob-smallest" viewBox="0 0 16px 16px">
      <g transform="translate(8 8)">
        <polyline points="-3,0 3,0" stroke-width="1" stroke="#00f" />
        <polyline points="0,-3 0,3" stroke-width="1" stroke="#00f" />
        <circle r="7.5" stroke-width="1" stroke="#00f" fill="none" />
      </g>
    </symbol>

    <symbol id="knobguide-frequency" viewBox="0 0 108px 108px">
      <g transform="translate(54 54)">
        <g transform="rotate(-240) translate(34 0)">
          <polyline points="0,0 5,0" stroke-width="1" stroke="#333" transform="translate(3 0)" />
          <text font-size="7.0pt" transform="translate(14 0) rotate(240) translate(-6 3)">-3</text>
        </g>
        <g transform="rotate(-220.56) translate(34 0)">
          <polyline points="0,0 3,0" stroke-width="0.7" stroke="#333" transform="translate(3 0)" />
        </g>

        <g transform="rotate(-206.667) translate(34 0)">
          <polyline points="0,0 5,0" stroke-width="1" stroke="#333" transform="translate(3 0)" />
          <text font-size="7.0pt" transform="translate(14 0) rotate(206.667) translate(-5.5 3)">-2</text>
        </g>
        <g transform="rotate(-187.23) translate(34 0)">
          <polyline points="0,0 3,0" stroke-width="0.7" stroke="#333" transform="translate(3 0)" />
        </g>

        <g transform="rotate(-173.333) translate(34 0)">
          <polyline points="0,0 5,0" stroke-width="1" stroke="#333" transform="translate(3 0)" />
          <text font-size="7.0pt" transform="translate(14 0) rotate(173.333) translate(-4 3)">-1</text>
        </g>
        <g transform="rotate(-153.89) translate(34 0)">
          <polyline points="0,0 3,0" stroke-width="0.7" stroke="#333" transform="translate(3 0)" />
        </g>

        <g transform="rotate(-140) translate(34 0)">
          <polyline points="0,0 5,0" stroke-width="1" stroke="#333" transform="translate(3 0)" />
          <text font-size="7.0pt" letter-spacing="1px" transform="translate(16 0) rotate(140) translate(-6 3.5)">0V</text>
        </g>
        <g transform="rotate(-120.56) translate(34 0)">
          <polyline points="0,0 3,0" stroke-width="0.7" stroke="#333" transform="translate(3 0)" />
        </g>

        <g transform="rotate(-106.667) translate(34 0)">
          <polyline points="0,0 5,0" stroke-width="1" stroke="#333" transform="translate(3 0)" />
          <text font-size="7.0pt" transform="translate(14 0) rotate(106.667) translate(-2.7 3)">1</text>
        </g>
        <g transform="rotate(-87.23) translate(34 0)">
          <polyline points="0,0 3,0" stroke-width="0.7" stroke="#333" transform="translate(3 0)" />
        </g>

        <g transform="rotate(-73.33) translate(34 0)">
          <polyline points="0,0 5,0" stroke-width="1" stroke="#333" transform="translate(3 0)" />
          <text font-size="7.0pt" transform="translate(14 0) rotate(73.333) translate(-2.7 3)">2</text>
        </g>
        <g transform="rotate(-53.89) translate(34 0)">
          <polyline points="0,0 3,0" stroke-width="0.7" stroke="#333" transform="translate(3 0)" />
        </g>

        <g transform="rotate(-40) translate(34 0)">
          <polyline points="0,0 5,0" stroke-width="1" stroke="#333" transform="translate(3 0)" />
          <text font-size="7.0pt" transform="translate(14 0) rotate(40) translate(-2.7 3)">3</text>
        </g>
        <g transform="rotate(-20.56) translate(34 0)">
          <polyline points="0,0 3,0" stroke-width="0.7" stroke="#333" transform="translate(3 0)" />
        </g>

        <g transform="rotate(-6.667) translate(34 0)">
          <polyline points="0,0 5,0" stroke-width="1" stroke="#333" transform="translate(3 0)" />
          <text font-size="7.0pt" transform="translate(14 0) rotate(6.667) translate(-2.7 3)">4</text>
        </g>
        <g transform="rotate(12.77) translate(34 0)">
          <polyline points="0,0 3,0" stroke-width="0.7" stroke="#333" transform="translate(3 0)" />
        </g>

        <g transform="rotate(26.667) translate(34 0)">
          <polyline points="0,0 5,0" stroke-width="1" stroke="#333" transform="translate(3 0)" />
          <text font-size="7.0pt" transform="translate(14 0) rotate(-26.667) translate(-2.7 3)">5</text>
        </g>
        <g transform="rotate(46.11) translate(34 0)">
          <polyline points="0,0 3,0" stroke-width="0.7" stroke="#333" transform="translate(3 0)" />
        </g>

        <g transform="rotate(60) translate(34 0)">
          <polyline points="0,0 5,0" stroke-width="1" stroke="#333" transform="translate(3 0)" />
          <text font-size="7.0pt" transform="translate(14 0) rotate(-60) translate(-2.7 3)">6</text>
        </g>
      </g>
    </symbol>

    <symbol id="knobguide-attenuverter" viewBox="0 0 45px 45px">
      <g transform="translate(22.5 22.5)">
        <g transform="rotate(-240) translate(15 0)">
          <text font-size="9.0pt" transform="translate(3 0) rotate(240) translate(-2.2 3.6)">-</text>
        </g>
        <g transform="rotate(-210) translate(15 0)">
          <polyline points="0,0 2.5,0" stroke-width="0.3" stroke="#333" />
        </g>
        <g transform="rotate(-180) translate(15 0)">
          <polyline points="0,0 2.5,0" stroke-width="0.3" stroke="#333" />
        </g>
        <g transform="rotate(-150) translate(15 0)">
          <polyline points="0,0 2.5,0" stroke-width="0.3" stroke="#333" />
        </g>
        <g transform="rotate(-120) translate(15 0)">
          <polyline points="0,0 2.5,0" stroke-width="0.3" stroke="#333" />
        </g>
        <g transform="rotate(-90) translate(15 0)">
          <text font-size="5.0pt" transform="translate(2 0) rotate(90) translate(-2 2)">0</text>
        </g>
        <g transform="rotate(-60) translate(15 0)">
          <polyline points="0,0 2.5,0" stroke-width="0.3" stroke="#333" />
        </g>
        <g transform="rotate(-30) translate(15 0)">
          <polyline points="0,0 2.5,0" stroke-width="0.3" stroke="#333" />
        </g>
        <g transform="rotate(0) translate(15 0)">
          <polyline points="0,0 2.5,0" stroke-width="0.3" stroke="#333" />
        </g>
        <g transform="rotate(30) translate(15 0)">
          <polyline points="0,0 2.5,0" stroke-width="0.3" stroke="#333" />
        </g>
        <g transform="rotate(60) translate(15 0)">
          <text font-size="5.0pt" transform="translate(3 0) rotate(-60) translate(-2 2)">+</text>
        </g>
      </g>
    </symbol>

    <symbol id="knobguide-fm" viewBox="0 0 45px 45px">
      <g transform="translate(22.5 22.5)">
        <g transform="rotate(-240) translate(15 0)">
          <text font-size="5.0pt" transform="translate(3 0) rotate(240) translate(-2.2 2.2)">0</text>
        </g>
        <g transform="rotate(-210) translate(15 0)">
          <polyline points="0,0 2.5,0" stroke-width="0.3" stroke="#333" />
        </g>
        <g transform="rotate(-180) translate(15 0)">
          <polyline points="0,0 2.5,0" stroke-width="0.3" stroke="#333" />
        </g>
        <g transform="rotate(-150) translate(15 0)">
          <polyline points="0,0 2.5,0" stroke-width="0.3" stroke="#333" />
        </g>
        <g transform="rotate(-120) translate(15 0)">
          <polyline points="0,0 2.5,0" stroke-width="0.3" stroke="#333" />
        </g>
        <g transform="rotate(-90) translate(15 0)">
          <polyline points="0,0 2.5,0" stroke-width="0.3" stroke="#333" />
        </g>
        <g transform="rotate(-60) translate(15 0)">
          <polyline points="0,0 2.5,0" stroke-width="0.3" stroke="#333" />
        </g>
        <g transform="rotate(-30) translate(15 0)">
          <polyline points="0,0 2.5,0" stroke-width="0.3" stroke="#333" />
        </g>
        <g transform="rotate(0) translate(15 0)">
          <polyline points="0,0 2.5,0" stroke-width="0.3" stroke="#333" />
        </g>
        <g transform="rotate(30) translate(15 0)">
          <polyline points="0,0 2.5,0" stroke-width="0.3" stroke="#333" />
        </g>
        <g transform="rotate(60) translate(15 0)">
          <text font-size="5.0pt" transform="translate(3 0) rotate(-60) translate(-2.2 2.2)">1</text>
        </g>
      </g>
    </symbol>

    <symbol id="knobguide-centertick" viewBox="0 0 40px 40px">
      <g transform="translate(20 20)">
        <g transform="rotate(-90) translate(10 0)">
          <polyline points="0,0 4,0" stroke-width="1" stroke="#333" />
        </g>
        <path d="M 0 -12.5 A 12.5 12.5 0 0 1 12.5 0" stroke="#333" stroke-width="0.5" stroke-linecap="round" fill="none" transform="rotate(20)" />
        <path d="M 0 -12.5 A 12.5 12.5 0 0 1 12.5 0" stroke="#333" stroke-width="0.5" stroke-linecap="round" fill="none" transform="rotate(43)" />
        <path d="M 0 -12.5 A 12.5 12.5 0 0 0 -12.5 0" stroke="#333" stroke-width="0.5" stroke-linecap="round" fill="none" transform="rotate(-20)" />
        <path d="M 0 -12.5 A 12.5 12.5 0 0 0 -12.5 0" stroke="#333" stroke-width="0.5" stroke-linecap="round" fill="none" transform="rotate(-43)" />
      </g>
    </symbol>

    <symbol id="input" viewBox="0 0 24px 24px">
      <g transform="translate(12 12)">
        <circle cx="0" cy="0" r="5" stroke-width="1" stroke="#0f0" fill="#0f0" />
        <circle cx="0" cy="0" r="10.5" stroke-width="3" stroke="#0f0" fill="none" />
      </g>
    </symbol>

    <symbol id="output" viewBox="0 0 24px 24px">
      <g transform="translate(12 12)">
        <circle cx="0" cy="0" r="5" stroke-width="1" stroke="#f00" fill="#f00" />
        <circle cx="0" cy="0" r="10.5" stroke-width="3" stroke="#f00" fill="none" />
      </g>
    </symbol>

    <symbol id="button-small" viewBox="0 0 9px 9px">
      <g transform="translate(4.5 4.5)">
        <circle r="4" stroke-width="1" stroke="#00f" fill="#f00" />
      </g>
    </symbol>

    <symbol id="light-small" viewBox="0 0 6.4px 6.4px">
      <rect width="6.4" height="6.4" fill="#0f0" />
    </symbol>
  </defs>

  <rect width="100%" height="100%" fill="#ddd" />
  <polyline points="1,1 149,1 149,379 1,379 1,1" stroke="#e4e4e4" stroke-width="0.5" fill="none" />
  <polyline points="0.5,0.5 149.5,0.5 149.5,379.5 0.5,379.5 0.5,0.5" stroke="#ebebeb" stroke-width="0.8" fill="none" />
  <polyline points="0,0 150,0 150,380 0,380 0,0" stroke="#f2f2f2" stroke-width="1" fill="none" />

  <!-- <rect width="50" height="20" fill="#0f0" transform="translate(0 0)" /> -->
  <!-- <rect width="50" height="20" fill="#0f0" transform="translate(100 0)" /> -->

  <text class="title" x="52" y="19" font-size="12pt" letter-spacing="4px">VCO</text>
  <g transform="translate(35.5 374)">
    <text class="brand" font-size="8pt" letter-spacing="2px">BOGAUDIO</text>
    <rect width="3.0" height="3" fill="#ddd" transform="translate(24 -5)" />
  </g>

  <g transform="translate(20 25)">
    <!-- <rect width="108" height="98" fill="none" stroke="#0f0" /> -->
    <!-- <polyline points="0,54 54,54" stroke="#0f0" stroke-width="1" fill="none" /> -->
    <!-- <polyline points="54,54 54,354" stroke="#0f0" stroke-width="1" fill="none" /> -->
    <use id="FREQUENCY_PARAM" xlink:href="#knob-large" transform="translate(20 20)" />
  </g>
  <use xlink:href="#knobguide-frequency" transform="translate(20 25)" />

  <text font-size="6pt" letter-spacing="1px" transform="translate(29 135)">0V = C4 = 261.63HZ</text>

  <g transform="translate(20 151)">
    <!-- <polyline points="0,-5 70,-5" stroke="#0f0" stroke-width="1" fill="none" /> -->
    <!-- <polyline points="0,8 70,8" stroke="#0f0" stroke-width="1" fill="none" /> -->
    <!-- <polyline points="0,21 70,21" stroke="#0f0" stroke-width="1" fill="none" /> -->
    <!-- <polyline points="21,-10 21,240" stroke="#0f0" stroke-width="1" fill="none" /> -->
    <text font-size="8pt" letter-spacing="2px" transform="translate(0 22) rotate(270)">FINE</text>
    <use id="FINE_PARAM" xlink:href="#knob-smallest" transform="translate(13 0)" />
    <!-- <rect width="90" height="10" fill="#0f0" transform="translate(0 17)" /> -->
  </g>
  <use xlink:href="#knobguide-centertick" transform="translate(21 139)" />

  <g transform="translate(90 156.5)">
    <!-- <polyline points="0,3.2 70,3.2" stroke="#0f0" stroke-width="1" fill="none" /> -->
    <use id="SLOW_PARAM" xlink:href="#button-small" transform="translate(40 -1.3)" />
    <use id="SLOW_LIGHT" xlink:href="#light-small" transform="translate(0 0)" />
    <text font-size="6pt" letter-spacing="2px" transform="translate(9 6.1)">SLOW</text>
    <!-- <rect width="90" height="10" fill="#0f0" transform="translate(0 7)" /> -->
  </g>

  <!-- <rect width="100" height="6" fill="#0f0" transform="translate(10 178)" /> -->

  <g transform="translate(10 186)">
    <g transform="translate(0 0)">
      <!-- <polyline points="0,13 70,13" stroke="#0f0" stroke-width="1" fill="none" /> -->
      <text font-size="8pt" letter-spacing="2px" transform="translate(10 22.5) rotate(270)">PW</text>
      <use id="PW_PARAM" xlink:href="#knob-medium" transform="translate(18 0)" />
    </g>
  </g>
  <use xlink:href="#knobguide-attenuverter" transform="translate(18.5 176.5)" />

  <!-- <rect width="100" height="6" fill="#0f0" transform="translate(10 220)" /> -->

  <g transform="translate(10 231)">
    <g transform="translate(0 0)">
      <!-- <polyline points="0,13 100,13" stroke="#0f0" stroke-width="1" fill="none" /> -->
      <text font-size="8pt" letter-spacing="2px" transform="translate(10 22) rotate(270)">FM</text>
      <use id="FM_PARAM" xlink:href="#knob-medium" transform="translate(18 0)" />
    </g>
    <!-- <rect width="90" height="10" fill="#0f0" transform="translate(0 26)" /> -->
    <g transform="translate(52 1)">
      <use id="FM_TYPE_PARAM" xlink:href="#button-small" transform="translate(30 7.5)" />
      <g transform="translate(0 2)">
        <use id="FM_EXP_LIGHT" xlink:href="#light-small" transform="translate(0 0)" />
        <text font-size="6pt" letter-spacing="2px" transform="translate(9 6.2)">EXP</text>
      </g>
      <g transform="translate(0 15.3)">
        <use id="FM_LIN_LIGHT" xlink:href="#light-small" transform="translate(0 0)" />
        <text font-size="6pt" letter-spacing="2px" transform="translate(9 6.2)">LIN</text>
      </g>
    </g>
  </g>
  <use xlink:href="#knobguide-fm" transform="translate(18.5 221.5)" />

  <!-- <rect width="100" height="6" fill="#0f0" transform="translate(10 263)" /> -->

  <g transform="translate(0 313)">
    <rect width="70" height="91" rx="5" fill="#fafafa" transform="translate(10 -44)" />
    <g transform="translate(10 0)">
      <!-- <rect width="30" height="47" rx="5" fill="#fafafa" /> -->
      <use id="PITCH_INPUT" xlink:href="#input" transform="translate(4 5)" />
      <text font-size="6pt" letter-spacing="1px" transform="translate(2 40)">V/OCT</text>
    </g>
    <g transform="translate(50 0)">
      <!-- <rect width="30" height="47" rx="5" fill="#fafafa" /> -->
      <use id="SYNC_INPUT" xlink:href="#input" transform="translate(2 5)" />
      <text font-size="6pt" letter-spacing="2px" transform="translate(0 40)">SYNC</text>
    </g>
    <g transform="translate(10 -44)">
      <!-- <rect width="30" height="47" rx="5" fill="#fafafa" /> -->
      <use id="PW_INPUT" xlink:href="#input" transform="translate(4 5)" />
      <text font-size="6pt" letter-spacing="2px" transform="translate(9 40)">PW</text>
    </g>
    <g transform="translate(50 -44)">
      <!-- <rect width="30" height="47" rx="5" fill="#fafafa" /> -->
      <use id="FM_INPUT" xlink:href="#input" transform="translate(2 5)" />
      <text font-size="6pt" letter-spacing="2px" transform="translate(7 40)">FM</text>
    </g>
    <g transform="translate(110 0)">
      <g transform="translate(0 -132)">
        <rect width="30" height="179" rx="5" fill="#bbb" transform="translate(0 0)" />
        <use id="SQUARE_OUTPUT" xlink:href="#output" transform="translate(3 5)" />
        <text font-size="6pt" letter-spacing="2px" transform="translate(5.5 40)">SQR</text>
      </g>
      <g transform="translate(0 -88)">
        <!-- <rect width="30" height="47" rx="5" fill="#bbb" transform="translate(0 0)" /> -->
        <use id="SAW_OUTPUT" xlink:href="#output" transform="translate(3 5)" />
        <text font-size="6pt" letter-spacing="2px" transform="translate(4.5 40)">SAW</text>
      </g>
      <g transform="translate(0 -44)">
        <!-- <rect width="30" height="47" rx="5" fill="#bbb" transform="translate(0 0)" /> -->
        <use id="TRIANGLE_OUTPUT" xlink:href="#output" transform="translate(3 5)" />
        <text font-size="6pt" letter-spacing="2px" transform="translate(7 40)">TRI</text>
      </g>
      <g transform="translate(0 0)">
        <!-- <rect width="30" height="47" rx="5" fill="#bbb" transform="translate(0 0)" /> -->
        <use id="SINE_OUTPUT" xlink:href="#output" transform="translate(3 5)" />
        <text font-size="6pt" letter-spacing="2px" transform="translate(6.5 40)">SIN</text>
      </g>
    </g>
  </g>
</svg>
