<?xml version="1.0"?>
<svg xmlns="http://www.w3.org/2000/svg" xmlns:xlink="http://www.w3.org/1999/xlink" version="1.1" width="45" height="380" viewBox="0 0 45 380">
  <style/>

  <defs>
    <def id="knob29"/>
    <def id="knob16"/>
    <def id="dial-change"/>
    <def id="dial-centertick"/>
    <def id="dial-mintick"/>
    <def id="input"/>
    <def id="output"/>
    <def id="button-small"/>
    <def id="light-small"/>
  </defs>

  <rect width="100%" height="100%" fill="#ddd"/>
  <polyline points="1,1 44,1 44,379 1,379 1,1" stroke="#e4e4e4" stroke-width="0.5" fill="none"/>
  <polyline points="0.5,0.5 44.5,0.5 44.5,379.5 0.5,379.5 0.5,0.5" stroke="#ebebeb" stroke-width="0.8" fill="none"/>
  <polyline points="0,0 45,0 45,380 0,380 0,0" stroke="#f2f2f2" stroke-width="1" fill="none"/>

  <g transform="rotate(-90) translate(-376 13)">
    <text class="title" font-size="7pt" letter-spacing="2.5px">WALK</text>
    <g transform="translate(0 12)">
      <text class="brand" font-size="7pt" letter-spacing="2px">BGA</text>
      <rect width="3.0" height="3" fill="#ddd" transform="translate(11.5 -5)"/>
    </g>
  </g>

  <!-- <polyline points="0,0 0,300" stroke="#0f0" stroke-width="1" fill="none" transform="translate(22.5 0)" /> -->

  <g transform="translate(0 25)">
    <text font-size="6pt" letter-spacing="1.5px" transform="translate(10 0)">RATE</text>
    <use id="RATE_PARAM" xlink:href="#knob29" transform="translate(0 3.5)"/>
    <use xlink:href="#dial-change" transform="translate(0 3)"/>
  </g>

  <g transform="translate(0 82)">
    <text font-size="6pt" letter-spacing="1.5px" transform="translate(4.5 0)">OFFSET</text>
    <use id="OFFSET_PARAM" xlink:href="#knob16" transform="translate(14.5 9)"/>
    <use xlink:href="#dial-centertick" transform="translate(2.5 -3)"/>
  </g>

  <g transform="translate(0 121)">
    <text font-size="6pt" letter-spacing="2.0px" transform="translate(5.5 0)">SCALE</text>
    <use id="SCALE_PARAM" xlink:href="#knob16" transform="translate(14.5 9)"/>
    <use xlink:href="#dial-mintick" transform="translate(2.5 -3)"/>
  </g>

  <g transform="translate(0 157)">
    <g transform="translate(5.5 0)">
      <rect width="34" height="10" fill="#fafafa" transform="translate(0 133)"/>
      <rect width="34" height="140" rx="5" fill="#fafafa"/>
      <use id="RATE_INPUT" xlink:href="#input" transform="translate(5 3)"/>
      <text font-size="5pt" letter-spacing="2px" transform="translate(6 35)">RATE</text>
      <use id="OFFSET_INPUT" xlink:href="#input" transform="translate(5 38)"/>
      <text font-size="5pt" letter-spacing="1.2px" transform="translate(2 70)">OFFSET</text>
      <use id="SCALE_INPUT" xlink:href="#input" transform="translate(5 73)"/>
      <text font-size="5pt" letter-spacing="2px" transform="translate(2.5 105)">SCALE</text>
      <use id="JUMP_INPUT" xlink:href="#input" transform="translate(5 108)"/>
      <text font-size="5pt" letter-spacing="2px" transform="translate(5 140)">JUMP</text>
    </g>
    <g transform="translate(5.5 146)">
      <rect width="34" height="10" fill="#bbb" transform="translate(0 -3)"/>
      <rect width="34" height="35" rx="5" fill="#bbb"/>
      <use id="OUT_OUTPUT" xlink:href="#output" transform="translate(5 0)"/>
      <text font-size="5pt" letter-spacing="2px" transform="translate(8.3 32)">OUT</text>
    </g>
  </g>
</svg>
