<?xml version="1.0"?>
<svg xmlns="http://www.w3.org/2000/svg" xmlns:xlink="http://www.w3.org/1999/xlink" version="1.1" width="225.0" height="380.0" viewBox="0 0 225.0 380.0">
  <style>text {
  fill: #333;
  font-family: 'Roboto', sans-serif;
  font-weight: bold;
}
text.title {
  font-family: 'Comfortaa', sans-serif;
  font-weight: normal;
}
text.brand {
  font-family: 'Audiowide', sans-serif;
  font-weight: bold;
}

polyline {
  stroke: #333;
}
path {
  stroke: #333;
}

rect.module-background, .background-fill {
  fill: #ddd;
}
polyline.module-border-inner {
  stroke: #e4e4e4;
}
polyline.module-border-middle {
  stroke: #ebebeb;
}
polyline.module-border-outer {
  stroke: #f2f2f2;
}

g.io-group {
}
rect.input-background, rect.input-background-filler {
  fill: #fafafa;
}
rect.output-background, rect.output-background-filler {
  fill: #bbb;
}
text.input-label, text.output-label {
  /* font-size: 6pt; */
}
polyline.input-label, polyline.output-label {
}
path.input-label, path.output-label {
}

circle.port-rim {
  stroke: #f0f0f0;
}
circle.port-barrel {
  stroke: #222;
  fill: #222;
}
circle.knob-center {
   fill: #eee;
}
circle.knob-rim {
   fill: #333;
}
circle.knob-tick {
  fill: #fff;
}
polyline.knob-tick {
  stroke: #fff;
}


text {
  fill: #b3b3b3;
}

polyline {
  stroke: #b3b3b3;
}
path {
  stroke: #b3b3b3;
}

rect.module-background, .background-fill {
  fill: #333;
}
polyline.module-border-inner {
  stroke: #191919;
}
polyline.module-border-middle {
  stroke: #111;
}
polyline.module-border-outer {
  stroke: #000;
}

rect.input-background, rect.input-background-filler {
  fill: #b3b3b3;
}
rect.output-background, rect.output-background-filler {
  fill: #888;
}
text.input-label {
  fill: #666;
}
polyline.input-label, path.input-label {
  stroke: #666;
}
text.output-label {
  fill: #ccc;
}
polyline.output-label, path.output-label {
  stroke: #ccc;
}

circle.port-rim {
  stroke: #ccc;
}
circle.port-barrel {
  stroke: #222;
  fill: #222;
}
circle.knob-center {
   fill: #bbb;
}
circle.knob-rim {
   fill: #555;
}
circle.knob-tick {
  fill: #fff;
}
polyline.knob-tick {
  stroke: #fff;
}
</style>

  <defs>
    <symbol id="dial-partials-additator" viewBox="0 0 70px 70px">
      <g transform="translate(35 35)">
        <text font-size="6.0pt" transform="rotate(-240) translate(25.5 0) rotate(240) translate(-2.5 2.5)">1</text>
        <polyline points="0,0 3,0" stroke-width="0.7" transform="rotate(-212.73) translate(21 0)"/>
        <text font-size="6.0pt" transform="rotate(-182.42) translate(25 0) rotate(182.42) translate(-7 2.8)">20</text>
        <polyline points="0,0 3,0" stroke-width="0.7" transform="rotate(-152.12) translate(21 0)"/>
        <text font-size="6.0pt" transform="rotate(-121.82) translate(25 0) rotate(121.82) translate(-7 2.5)">40</text>
        <polyline points="0,0 3,0" stroke-width="0.7" transform="rotate(-91.52) translate(21 0)"/>
        <text font-size="6.0pt" transform="rotate(-61.21) translate(25 0) rotate(61.21) translate(-3 2.5)">60</text>
        <polyline points="0,0 3,0" stroke-width="0.7" transform="rotate(-30.91) translate(21 0)"/>
        <text font-size="6.0pt" transform="rotate(-0.61) translate(25 0) rotate(0.61) translate(-2.5 2.8)">80</text>
        <polyline points="0,0 3,0" stroke-width="0.7" transform="rotate(29.7) translate(21 0)"/>
        <text font-size="6.0pt" transform="rotate(60) translate(25.5 0) rotate(-60) translate(-2 2.5)">100</text>
      </g>
    </symbol>
  </defs>

  
      
      <rect class="module-background background-fill" width="225.0" height="380.0"/>
    
      
      <polyline class="module-border-inner" points="1,1 224.0,1 224.0,379.0 1,379.0 1,1" stroke-width="0.5" fill="none"/>
      <polyline class="module-border-middle" points="0.5,0.5 224.5,0.5 224.5,379.5 0.5,379.5 0.5,0.5" stroke-width="0.8" fill="none"/>
      <polyline class="module-border-outer" points="0,0 225.0,0 225.0,380.0 0,380.0 0,0" stroke-width="1" fill="none"/>
    
      <text class="title" font-size="12pt" letter-spacing="4px" text-anchor="middle" transform="translate(112.5 19)">ADDITATOR</text>
      <g transform="translate(0 374)">
        <text class="brand" font-size="8pt" letter-spacing="2px" text-anchor="middle" transform="translate(112.5 0)">BOGAUDIO</text>
        <rect class="background-fill" width="3" height="3" transform="translate(97.0 -5)"/>
      </g>
    

  
  
  
  

  <g transform="translate(20 25)">
    
    
    
    <g transform="translate(20 20)"><svg id="FREQUENCY_PARAM">
      <g transform="translate(34 34)">
        <polyline points="-10,0 10,0" stroke-width="1" stroke="#00f"/>
        <polyline points="0,-10 0,10" stroke-width="1" stroke="#00f"/>
        <circle cx="0" cy="0" r="33.5" stroke-width="1" stroke="#00f" fill="none"/>
      </g>
    </svg></g>
  </g>
  <g transform="translate(20 25)">
      <g transform="translate(54 54)">
        <g transform="rotate(-240) translate(34 0)">
          <polyline points="0,0 5,0" stroke-width="1" transform="translate(3 0)"/>
          <text font-size="7.0pt" transform="translate(14 0) rotate(240) translate(-6 3)">-3</text>
        </g>
        <g transform="rotate(-220.56) translate(34 0)">
          <polyline points="0,0 3,0" stroke-width="0.7" transform="translate(3 0)"/>
        </g>

        <g transform="rotate(-206.667) translate(34 0)">
          <polyline points="0,0 5,0" stroke-width="1" transform="translate(3 0)"/>
          <text font-size="7.0pt" transform="translate(14 0) rotate(206.667) translate(-5.5 3)">-2</text>
        </g>
        <g transform="rotate(-187.23) translate(34 0)">
          <polyline points="0,0 3,0" stroke-width="0.7" transform="translate(3 0)"/>
        </g>

        <g transform="rotate(-173.333) translate(34 0)">
          <polyline points="0,0 5,0" stroke-width="1" transform="translate(3 0)"/>
          <text font-size="7.0pt" transform="translate(14 0) rotate(173.333) translate(-4 3)">-1</text>
        </g>
        <g transform="rotate(-153.89) translate(34 0)">
          <polyline points="0,0 3,0" stroke-width="0.7" transform="translate(3 0)"/>
        </g>

        <g transform="rotate(-140) translate(34 0)">
          <polyline points="0,0 5,0" stroke-width="1" transform="translate(3 0)"/>
          <text font-size="7.0pt" letter-spacing="1px" transform="translate(16 0) rotate(140) translate(-6 3.5)">0V</text>
        </g>
        <g transform="rotate(-120.56) translate(34 0)">
          <polyline points="0,0 3,0" stroke-width="0.7" transform="translate(3 0)"/>
        </g>

        <g transform="rotate(-106.667) translate(34 0)">
          <polyline points="0,0 5,0" stroke-width="1" transform="translate(3 0)"/>
          <text font-size="7.0pt" transform="translate(14 0) rotate(106.667) translate(-2.7 3)">1</text>
        </g>
        <g transform="rotate(-87.23) translate(34 0)">
          <polyline points="0,0 3,0" stroke-width="0.7" transform="translate(3 0)"/>
        </g>

        <g transform="rotate(-73.33) translate(34 0)">
          <polyline points="0,0 5,0" stroke-width="1" transform="translate(3 0)"/>
          <text font-size="7.0pt" transform="translate(14 0) rotate(73.333) translate(-2.7 3)">2</text>
        </g>
        <g transform="rotate(-53.89) translate(34 0)">
          <polyline points="0,0 3,0" stroke-width="0.7" transform="translate(3 0)"/>
        </g>

        <g transform="rotate(-40) translate(34 0)">
          <polyline points="0,0 5,0" stroke-width="1" transform="translate(3 0)"/>
          <text font-size="7.0pt" transform="translate(14 0) rotate(40) translate(-2.7 3)">3</text>
        </g>
        <g transform="rotate(-20.56) translate(34 0)">
          <polyline points="0,0 3,0" stroke-width="0.7" transform="translate(3 0)"/>
        </g>

        <g transform="rotate(-6.667) translate(34 0)">
          <polyline points="0,0 5,0" stroke-width="1" transform="translate(3 0)"/>
          <text font-size="7.0pt" transform="translate(14 0) rotate(6.667) translate(-2.7 3)">4</text>
        </g>
        <g transform="rotate(12.77) translate(34 0)">
          <polyline points="0,0 3,0" stroke-width="0.7" transform="translate(3 0)"/>
        </g>

        <g transform="rotate(26.667) translate(34 0)">
          <polyline points="0,0 5,0" stroke-width="1" transform="translate(3 0)"/>
          <text font-size="7.0pt" transform="translate(14 0) rotate(-26.667) translate(-2.7 3)">5</text>
        </g>
        <g transform="rotate(46.11) translate(34 0)">
          <polyline points="0,0 3,0" stroke-width="0.7" transform="translate(3 0)"/>
        </g>

        <g transform="rotate(60) translate(34 0)">
          <polyline points="0,0 5,0" stroke-width="1" transform="translate(3 0)"/>
          <text font-size="7.0pt" transform="translate(14 0) rotate(-60) translate(-2.7 3)">6</text>
        </g>
      </g>
    </g>

  <text font-size="6pt" letter-spacing="1px" transform="translate(30 135)">0V = C4 = 261.63HZ</text>

  <g transform="translate(144 60)">
    
    
    <text font-size="8pt" letter-spacing="2px" transform="translate(4 50) rotate(270)">PARTIALS</text>
    <g transform="translate(21 0)"><svg id="PARTIALS_PARAM">
      <g transform="translate(19 19)">
        <polyline points="-5,0 5,0" stroke-width="1" stroke="#00f"/>
        <polyline points="0,-5 0,5" stroke-width="1" stroke="#00f"/>
        <circle cx="0" cy="0" r="18.5" stroke-width="1" stroke="#00f" fill="none"/>
      </g>
    </svg></g>
    <use xlink:href="#dial-partials-additator" transform="translate(5 -16)" href="#dial-partials-additator"/>
  </g>

  <g transform="translate(10 155)">
    <g transform="translate(10 5)">
      
      
      
      
      <text font-size="8pt" letter-spacing="2px" transform="translate(-3 22.5) rotate(270)">FINE</text>
      <g transform="translate(10 0)"><svg id="FINE_PARAM">
      <g transform="translate(8 8)">
        <polyline points="-3,0 3,0" stroke-width="1" stroke="#00f"/>
        <polyline points="0,-3 0,3" stroke-width="1" stroke="#00f"/>
        <circle r="7.5" stroke-width="1" stroke="#00f" fill="none"/>
      </g>
    </svg></g>
      
    </g>
    <g transform="translate(8 -7)">
      <g transform="translate(20 20)">
        <polyline points="0,0 4,0" stroke-width="1" transform="rotate(-90) translate(10 0)"/>
        <path d="M 0 -12.5 A 12.5 12.5 0 0 1 12.5 0" stroke-width="0.7" stroke-linecap="round" stroke="#b3b3b3" fill="none" transform="rotate(20)"/>
        <path d="M 0 -12.5 A 12.5 12.5 0 0 1 12.5 0" stroke-width="0.7" stroke-linecap="round" stroke="#b3b3b3" fill="none" transform="rotate(43)"/>
        <path d="M 0 -12.5 A 12.5 12.5 0 0 0 -12.5 0" stroke-width="0.7" stroke-linecap="round" stroke="#b3b3b3" fill="none" transform="rotate(-20)"/>
        <path d="M 0 -12.5 A 12.5 12.5 0 0 0 -12.5 0" stroke-width="0.7" stroke-linecap="round" stroke="#b3b3b3" fill="none" transform="rotate(-43)"/>
      </g>
    </g>
    <g transform="translate(53 0)">
      
      <text font-size="8pt" letter-spacing="2px" transform="translate(8 33) rotate(270)">WIDTH</text>
      <g transform="translate(16 0)"><svg id="WIDTH_PARAM">
      <g transform="translate(13 13)">
        <polyline points="-3,0 3,0" stroke-width="1" stroke="#00f"/>
        <polyline points="0,-3 0,3" stroke-width="1" stroke="#00f"/>
        <circle cx="0" cy="0" r="12.5" stroke-width="1" stroke="#00f" fill="none"/>
      </g>
    </svg></g>
    </g>
    <g transform="translate(59.5 -9.5)">
      <g transform="translate(22.5 22.5)">
        <text font-size="5.0pt" transform="rotate(-240) translate(18 0) rotate(240) translate(-2 2)">0</text>
        <polyline points="0,0 2.5,0" stroke-width="0.7" transform="rotate(-210) translate(15 0)"/>
        <polyline points="0,0 2.5,0" stroke-width="0.7" transform="rotate(-180) translate(15 0)"/>
        <polyline points="0,0 2.5,0" stroke-width="0.7" transform="rotate(-150) translate(15 0)"/>
        <polyline points="0,0 2.5,0" stroke-width="0.7" transform="rotate(-120) translate(15 0)"/>
        <polyline points="0,0 2.5,0" stroke-width="0.7" transform="rotate(-90) translate(15 0)"/>
        <polyline points="0,0 2.5,0" stroke-width="0.7" transform="rotate(-60) translate(15 0)"/>
        <polyline points="0,0 2.5,0" stroke-width="0.7" transform="rotate(-30) translate(15 0)"/>
        <polyline points="0,0 2.5,0" stroke-width="0.7" transform="rotate(0) translate(15 0)"/>
        <polyline points="0,0 2.5,0" stroke-width="0.7" transform="rotate(30) translate(15 0)"/>
        <polyline points="0,0 3.5,0" stroke-width="1" transform="rotate(60) translate(15 0)"/>
      </g>
    </g>
    <g transform="translate(106 0)">
      
      <text font-size="8pt" letter-spacing="2px" transform="translate(8 38) rotate(270)">O-SKEW</text>
      <g transform="translate(16 0)"><svg id="ODD_SKEW_PARAM">
      <g transform="translate(13 13)">
        <polyline points="-3,0 3,0" stroke-width="1" stroke="#00f"/>
        <polyline points="0,-3 0,3" stroke-width="1" stroke="#00f"/>
        <circle cx="0" cy="0" r="12.5" stroke-width="1" stroke="#00f" fill="none"/>
      </g>
    </svg></g>
    </g>
    <g transform="translate(112.5 -9.5)">
      <g transform="translate(22.5 22.5)">
        <g transform="rotate(-240) translate(15 0)">
          <text font-size="9.0pt" transform="translate(3 0) rotate(240) translate(-2.2 3.6)">-</text>
        </g>
        <g transform="rotate(-210) translate(15 0)">
          <polyline points="0,0 2.5,0" stroke-width="0.7"/>
        </g>
        <g transform="rotate(-180) translate(15 0)">
          <polyline points="0,0 2.5,0" stroke-width="0.7"/>
        </g>
        <g transform="rotate(-150) translate(15 0)">
          <polyline points="0,0 2.5,0" stroke-width="0.7"/>
        </g>
        <g transform="rotate(-120) translate(15 0)">
          <polyline points="0,0 2.5,0" stroke-width="0.7"/>
        </g>
        <g transform="rotate(-90) translate(15 0)">
          <text font-size="5.0pt" transform="translate(2 0) rotate(90) translate(-2 2)">0</text>
        </g>
        <g transform="rotate(-60) translate(15 0)">
          <polyline points="0,0 2.5,0" stroke-width="0.7"/>
        </g>
        <g transform="rotate(-30) translate(15 0)">
          <polyline points="0,0 2.5,0" stroke-width="0.7"/>
        </g>
        <g transform="rotate(0) translate(15 0)">
          <polyline points="0,0 2.5,0" stroke-width="0.7"/>
        </g>
        <g transform="rotate(30) translate(15 0)">
          <polyline points="0,0 2.5,0" stroke-width="0.7"/>
        </g>
        <g transform="rotate(60) translate(15 0)">
          <text font-size="5.0pt" transform="translate(3 0) rotate(-60) translate(-2 2)">+</text>
        </g>
      </g>
    </g>
    <g transform="translate(158 0)">
      
      <text font-size="8pt" letter-spacing="2px" transform="translate(8 37.5) rotate(270)">E-SKEW</text>
      <g transform="translate(16 0)"><svg id="EVEN_SKEW_PARAM">
      <g transform="translate(13 13)">
        <polyline points="-3,0 3,0" stroke-width="1" stroke="#00f"/>
        <polyline points="0,-3 0,3" stroke-width="1" stroke="#00f"/>
        <circle cx="0" cy="0" r="12.5" stroke-width="1" stroke="#00f" fill="none"/>
      </g>
    </svg></g>
    </g>
    <g transform="translate(164.5 -9.5)">
      <g transform="translate(22.5 22.5)">
        <g transform="rotate(-240) translate(15 0)">
          <text font-size="9.0pt" transform="translate(3 0) rotate(240) translate(-2.2 3.6)">-</text>
        </g>
        <g transform="rotate(-210) translate(15 0)">
          <polyline points="0,0 2.5,0" stroke-width="0.7"/>
        </g>
        <g transform="rotate(-180) translate(15 0)">
          <polyline points="0,0 2.5,0" stroke-width="0.7"/>
        </g>
        <g transform="rotate(-150) translate(15 0)">
          <polyline points="0,0 2.5,0" stroke-width="0.7"/>
        </g>
        <g transform="rotate(-120) translate(15 0)">
          <polyline points="0,0 2.5,0" stroke-width="0.7"/>
        </g>
        <g transform="rotate(-90) translate(15 0)">
          <text font-size="5.0pt" transform="translate(2 0) rotate(90) translate(-2 2)">0</text>
        </g>
        <g transform="rotate(-60) translate(15 0)">
          <polyline points="0,0 2.5,0" stroke-width="0.7"/>
        </g>
        <g transform="rotate(-30) translate(15 0)">
          <polyline points="0,0 2.5,0" stroke-width="0.7"/>
        </g>
        <g transform="rotate(0) translate(15 0)">
          <polyline points="0,0 2.5,0" stroke-width="0.7"/>
        </g>
        <g transform="rotate(30) translate(15 0)">
          <polyline points="0,0 2.5,0" stroke-width="0.7"/>
        </g>
        <g transform="rotate(60) translate(15 0)">
          <text font-size="5.0pt" transform="translate(3 0) rotate(-60) translate(-2 2)">+</text>
        </g>
      </g>
    </g>
  </g>

  <g transform="translate(10 218)">
    <g transform="translate(-1 0)">
      
      
      <text font-size="8pt" letter-spacing="2px" transform="translate(8 28.5) rotate(270)">GAIN</text>
      <g transform="translate(16 0)"><svg id="GAIN_PARAM">
      <g transform="translate(13 13)">
        <polyline points="-3,0 3,0" stroke-width="1" stroke="#00f"/>
        <polyline points="0,-3 0,3" stroke-width="1" stroke="#00f"/>
        <circle cx="0" cy="0" r="12.5" stroke-width="1" stroke="#00f" fill="none"/>
      </g>
    </svg></g>
    </g>
    <g transform="translate(5.5 -9.5)">
      <g transform="translate(22.5 22.5)">
        <text font-size="5.0pt" transform="rotate(-240) translate(18 0) rotate(240) translate(-2 2)">0</text>
        <polyline points="0,0 2.5,0" stroke-width="0.7" transform="rotate(-210) translate(15 0)"/>
        <polyline points="0,0 2.5,0" stroke-width="0.7" transform="rotate(-180) translate(15 0)"/>
        <polyline points="0,0 2.5,0" stroke-width="0.7" transform="rotate(-150) translate(15 0)"/>
        <polyline points="0,0 2.5,0" stroke-width="0.7" transform="rotate(-120) translate(15 0)"/>
        <polyline points="0,0 2.5,0" stroke-width="0.7" transform="rotate(-90) translate(15 0)"/>
        <polyline points="0,0 2.5,0" stroke-width="0.7" transform="rotate(-60) translate(15 0)"/>
        <polyline points="0,0 2.5,0" stroke-width="0.7" transform="rotate(-30) translate(15 0)"/>
        <polyline points="0,0 2.5,0" stroke-width="0.7" transform="rotate(0) translate(15 0)"/>
        <polyline points="0,0 2.5,0" stroke-width="0.7" transform="rotate(30) translate(15 0)"/>
        <polyline points="0,0 3.5,0" stroke-width="1" transform="rotate(60) translate(15 0)"/>
      </g>
    </g>
    <g transform="translate(53 0)">
      
      <text font-size="8pt" letter-spacing="2px" transform="translate(8 33.5) rotate(270)">DECAY</text>
      <g transform="translate(16 0)"><svg id="DECAY_PARAM">
      <g transform="translate(13 13)">
        <polyline points="-3,0 3,0" stroke-width="1" stroke="#00f"/>
        <polyline points="0,-3 0,3" stroke-width="1" stroke="#00f"/>
        <circle cx="0" cy="0" r="12.5" stroke-width="1" stroke="#00f" fill="none"/>
      </g>
    </svg></g>
    </g>
    <g transform="translate(59.5 -9.5)">
      <g transform="translate(22.5 22.5)">
        <g transform="rotate(-240) translate(15 0)">
          <text font-size="9.0pt" transform="translate(3 0) rotate(240) translate(-2.2 3.6)">-</text>
        </g>
        <g transform="rotate(-210) translate(15 0)">
          <polyline points="0,0 2.5,0" stroke-width="0.7"/>
        </g>
        <g transform="rotate(-180) translate(15 0)">
          <polyline points="0,0 2.5,0" stroke-width="0.7"/>
        </g>
        <g transform="rotate(-150) translate(15 0)">
          <polyline points="0,0 2.5,0" stroke-width="0.7"/>
        </g>
        <g transform="rotate(-120) translate(15 0)">
          <polyline points="0,0 2.5,0" stroke-width="0.7"/>
        </g>
        <g transform="rotate(-90) translate(15 0)">
          <text font-size="5.0pt" transform="translate(2 0) rotate(90) translate(-2 2)">0</text>
        </g>
        <g transform="rotate(-60) translate(15 0)">
          <polyline points="0,0 2.5,0" stroke-width="0.7"/>
        </g>
        <g transform="rotate(-30) translate(15 0)">
          <polyline points="0,0 2.5,0" stroke-width="0.7"/>
        </g>
        <g transform="rotate(0) translate(15 0)">
          <polyline points="0,0 2.5,0" stroke-width="0.7"/>
        </g>
        <g transform="rotate(30) translate(15 0)">
          <polyline points="0,0 2.5,0" stroke-width="0.7"/>
        </g>
        <g transform="rotate(60) translate(15 0)">
          <text font-size="5.0pt" transform="translate(3 0) rotate(-60) translate(-2 2)">+</text>
        </g>
      </g>
    </g>
    <g transform="translate(106 0)">
      
      <text font-size="8pt" letter-spacing="2px" transform="translate(8 43) rotate(270)">BALANCE</text>
      <g transform="translate(16 0)"><svg id="BALANCE_PARAM">
      <g transform="translate(13 13)">
        <polyline points="-3,0 3,0" stroke-width="1" stroke="#00f"/>
        <polyline points="0,-3 0,3" stroke-width="1" stroke="#00f"/>
        <circle cx="0" cy="0" r="12.5" stroke-width="1" stroke="#00f" fill="none"/>
      </g>
    </svg></g>
    </g>
    <g transform="translate(112.5 -9.5)">
      <g transform="translate(22.5 22.5)">
        <g transform="rotate(-240) translate(15 0)">
          <text font-size="9.0pt" transform="translate(3 0) rotate(240) translate(-2.2 3.6)">-</text>
        </g>
        <g transform="rotate(-210) translate(15 0)">
          <polyline points="0,0 2.5,0" stroke-width="0.7"/>
        </g>
        <g transform="rotate(-180) translate(15 0)">
          <polyline points="0,0 2.5,0" stroke-width="0.7"/>
        </g>
        <g transform="rotate(-150) translate(15 0)">
          <polyline points="0,0 2.5,0" stroke-width="0.7"/>
        </g>
        <g transform="rotate(-120) translate(15 0)">
          <polyline points="0,0 2.5,0" stroke-width="0.7"/>
        </g>
        <g transform="rotate(-90) translate(15 0)">
          <text font-size="5.0pt" transform="translate(2 0) rotate(90) translate(-2 2)">0</text>
        </g>
        <g transform="rotate(-60) translate(15 0)">
          <polyline points="0,0 2.5,0" stroke-width="0.7"/>
        </g>
        <g transform="rotate(-30) translate(15 0)">
          <polyline points="0,0 2.5,0" stroke-width="0.7"/>
        </g>
        <g transform="rotate(0) translate(15 0)">
          <polyline points="0,0 2.5,0" stroke-width="0.7"/>
        </g>
        <g transform="rotate(30) translate(15 0)">
          <polyline points="0,0 2.5,0" stroke-width="0.7"/>
        </g>
        <g transform="rotate(60) translate(15 0)">
          <text font-size="5.0pt" transform="translate(3 0) rotate(-60) translate(-2 2)">+</text>
        </g>
      </g>
    </g>
    <g transform="translate(158 0)">
      
      <text font-size="8pt" letter-spacing="2px" transform="translate(8 34.5) rotate(270)">FILTER</text>
      <g transform="translate(16 0)"><svg id="FILTER_PARAM">
      <g transform="translate(13 13)">
        <polyline points="-3,0 3,0" stroke-width="1" stroke="#00f"/>
        <polyline points="0,-3 0,3" stroke-width="1" stroke="#00f"/>
        <circle cx="0" cy="0" r="12.5" stroke-width="1" stroke="#00f" fill="none"/>
      </g>
    </svg></g>
    </g>
    <g transform="translate(164.5 -9.5)">
      <g transform="translate(22.5 22.5)">
        <g transform="rotate(-240) translate(15 0)">
          <text font-size="9.0pt" transform="translate(3 0) rotate(240) translate(-2.2 3.6)">-</text>
        </g>
        <g transform="rotate(-210) translate(15 0)">
          <polyline points="0,0 2.5,0" stroke-width="0.7"/>
        </g>
        <g transform="rotate(-180) translate(15 0)">
          <polyline points="0,0 2.5,0" stroke-width="0.7"/>
        </g>
        <g transform="rotate(-150) translate(15 0)">
          <polyline points="0,0 2.5,0" stroke-width="0.7"/>
        </g>
        <g transform="rotate(-120) translate(15 0)">
          <polyline points="0,0 2.5,0" stroke-width="0.7"/>
        </g>
        <g transform="rotate(-90) translate(15 0)">
          <text font-size="5.0pt" transform="translate(2 0) rotate(90) translate(-2 2)">0</text>
        </g>
        <g transform="rotate(-60) translate(15 0)">
          <polyline points="0,0 2.5,0" stroke-width="0.7"/>
        </g>
        <g transform="rotate(-30) translate(15 0)">
          <polyline points="0,0 2.5,0" stroke-width="0.7"/>
        </g>
        <g transform="rotate(0) translate(15 0)">
          <polyline points="0,0 2.5,0" stroke-width="0.7"/>
        </g>
        <g transform="rotate(30) translate(15 0)">
          <polyline points="0,0 2.5,0" stroke-width="0.7"/>
        </g>
        <g transform="rotate(60) translate(15 0)">
          <text font-size="5.0pt" transform="translate(3 0) rotate(-60) translate(-2 2)">+</text>
        </g>
      </g>
    </g>
  </g>

  <g transform="translate(185 272)">
    <g transform="translate(0 0)"><svg id="SINE_LIGHT">
      <rect width="6.4" height="6.4" fill="#0f0"/>
    </svg></g>
    <text font-size="6pt" letter-spacing="2px" transform="translate(9 6.1)">SIN</text>
    <g transform="translate(0 15)"><svg id="COSINE_LIGHT">
      <rect width="6.4" height="6.4" fill="#0f0"/>
    </svg></g>
    <text font-size="6pt" letter-spacing="2px" transform="translate(9 21.1)">COS</text>
    <g transform="translate(9 27)"><svg id="PHASE_PARAM">
      <g transform="translate(4.5 4.5)">
        <circle r="4" stroke-width="1" stroke="#00f" fill="#f00"/>
      </g>
    </svg></g>
  </g>

  <g class="io-group" transform="translate(0 269)">
    <rect class="output-background" width="205" height="47" rx="5" transform="translate(10 44)"/>
    <rect class="input-background" width="171" height="91" rx="5" transform="translate(10 0)"/>
    <rect class="input-background-filler" width="10" height="10" transform="translate(171 81)"/>

    <g transform="translate(10 0)">
      <g transform="translate(3 0)">
        <g transform="translate(3 5)"><svg id="SYNC_INPUT">
      <g transform="translate(12 12)">
        <circle cx="0" cy="0" r="5" stroke-width="1" stroke="#0f0" fill="#0f0"/>
        <circle cx="0" cy="0" r="10.5" stroke-width="3" stroke="#0f0" fill="none"/>
      </g>
    </svg></g>
        <text class="input-label" font-size="6pt" letter-spacing="1px" transform="translate(3 40)">SYNC</text>
      </g>
      <g transform="translate(37 0)">
        <g transform="translate(3 5)"><svg id="PARTIALS_INPUT">
      <g transform="translate(12 12)">
        <circle cx="0" cy="0" r="5" stroke-width="1" stroke="#0f0" fill="#0f0"/>
        <circle cx="0" cy="0" r="10.5" stroke-width="3" stroke="#0f0" fill="none"/>
      </g>
    </svg></g>
        <text class="input-label" font-size="6pt" letter-spacing="1px" transform="translate(0.5 40)">PRTLS</text>
      </g>
      <g transform="translate(71 0)">
        <g transform="translate(3 5)"><svg id="WIDTH_INPUT">
      <g transform="translate(12 12)">
        <circle cx="0" cy="0" r="5" stroke-width="1" stroke="#0f0" fill="#0f0"/>
        <circle cx="0" cy="0" r="10.5" stroke-width="3" stroke="#0f0" fill="none"/>
      </g>
    </svg></g>
        <text class="input-label" font-size="6pt" letter-spacing="1px" transform="translate(0.5 40)">WIDTH</text>
      </g>
      <g transform="translate(105 0)">
        <g transform="translate(3 5)"><svg id="ODD_SKEW_INPUT">
      <g transform="translate(12 12)">
        <circle cx="0" cy="0" r="5" stroke-width="1" stroke="#0f0" fill="#0f0"/>
        <circle cx="0" cy="0" r="10.5" stroke-width="3" stroke="#0f0" fill="none"/>
      </g>
    </svg></g>
        <text class="input-label" font-size="6pt" letter-spacing="2px" transform="translate(5 40)">OSK</text>
      </g>
      <g transform="translate(139 0)">
        <g transform="translate(3 5)"><svg id="EVEN_SKEW_INPUT">
      <g transform="translate(12 12)">
        <circle cx="0" cy="0" r="5" stroke-width="1" stroke="#0f0" fill="#0f0"/>
        <circle cx="0" cy="0" r="10.5" stroke-width="3" stroke="#0f0" fill="none"/>
      </g>
    </svg></g>
        <text class="input-label" font-size="6pt" letter-spacing="2px" transform="translate(5.5 40)">ESK</text>
      </g>
    </g>

    <g transform="translate(10 44)">
      <g transform="translate(3 0)">
        <g transform="translate(3 5)"><svg id="PITCH_INPUT">
      <g transform="translate(12 12)">
        <circle cx="0" cy="0" r="5" stroke-width="1" stroke="#0f0" fill="#0f0"/>
        <circle cx="0" cy="0" r="10.5" stroke-width="3" stroke="#0f0" fill="none"/>
      </g>
    </svg></g>
        <text class="input-label" font-size="6pt" letter-spacing="1px" transform="translate(1 40)">V/OCT</text>
      </g>
      <g transform="translate(37 0)">
        <g transform="translate(3 5)"><svg id="GAIN_INPUT">
      <g transform="translate(12 12)">
        <circle cx="0" cy="0" r="5" stroke-width="1" stroke="#0f0" fill="#0f0"/>
        <circle cx="0" cy="0" r="10.5" stroke-width="3" stroke="#0f0" fill="none"/>
      </g>
    </svg></g>
        <text class="input-label" font-size="6pt" letter-spacing="2px" transform="translate(2 40)">GAIN</text>
      </g>
      <g transform="translate(71 0)">
        <g transform="translate(3 5)"><svg id="DECAY_INPUT">
      <g transform="translate(12 12)">
        <circle cx="0" cy="0" r="5" stroke-width="1" stroke="#0f0" fill="#0f0"/>
        <circle cx="0" cy="0" r="10.5" stroke-width="3" stroke="#0f0" fill="none"/>
      </g>
    </svg></g>
        <text class="input-label" font-size="6pt" letter-spacing="1px" transform="translate(1 40)">DECAY</text>
      </g>
      <g transform="translate(105 0)">
        <g transform="translate(3 5)"><svg id="BALANCE_INPUT">
      <g transform="translate(12 12)">
        <circle cx="0" cy="0" r="5" stroke-width="1" stroke="#0f0" fill="#0f0"/>
        <circle cx="0" cy="0" r="10.5" stroke-width="3" stroke="#0f0" fill="none"/>
      </g>
    </svg></g>
        <text class="input-label" font-size="6pt" letter-spacing="2px" transform="translate(5.5 40)">BAL</text>
      </g>
      <g transform="translate(139 0)">
        <g transform="translate(3 5)"><svg id="FILTER_INPUT">
      <g transform="translate(12 12)">
        <circle cx="0" cy="0" r="5" stroke-width="1" stroke="#0f0" fill="#0f0"/>
        <circle cx="0" cy="0" r="10.5" stroke-width="3" stroke="#0f0" fill="none"/>
      </g>
    </svg></g>
        <text class="input-label" font-size="6pt" letter-spacing="2px" transform="translate(3 40)">FLTR</text>
      </g>
      <g transform="translate(173 0)">
        <g transform="translate(3 5)"><svg id="AUDIO_OUTPUT">
      <g transform="translate(12 12)">
        <circle cx="0" cy="0" r="5" stroke-width="1" stroke="#f00" fill="#f00"/>
        <circle cx="0" cy="0" r="10.5" stroke-width="3" stroke="#f00" fill="none"/>
      </g>
    </svg></g>
        <text class="output-label" font-size="6pt" letter-spacing="2px" transform="translate(5 40)">OUT</text>
      </g>
    </g>
  </g>
</svg>
