<?xml version="1.0"?>
<svg xmlns="http://www.w3.org/2000/svg" xmlns:xlink="http://www.w3.org/1999/xlink" version="1.1" width="45" height="380" viewBox="0 0 45 380">
  <style>text {
  fill: #333;
  font-family: 'Roboto', sans-serif;
  font-weight: bold;
}
text.title {
  font-family: 'Comfortaa', sans-serif;
  font-weight: normal;
}
text.brand {
  font-family: 'Audiowide', sans-serif;
  font-weight: bold;
}

polyline {
  stroke: #333;
}
path {
  stroke: #333;
}

rect.module-background, .background-fill {
  fill: #ddd;
}
polyline.module-border-inner {
  stroke: #e4e4e4;
}
polyline.module-border-middle {
  stroke: #ebebeb;
}
polyline.module-border-outer {
  stroke: #f2f2f2;
}

g.io-group {
}
rect.input-background, rect.input-background-filler {
  fill: #fafafa;
}
rect.output-background, rect.output-background-filler {
  fill: #bbb;
}
text.input-label, text.output-label {
  /* font-size: 6pt; */
}
polyline.input-label, polyline.output-label {
}
path.input-label, path.output-label {
}


text {
  fill: #ddd;
}

polyline {
  stroke: #ddd;
}
path {
  stroke: #ddd;
}

rect.module-background, .background-fill {
  fill: #222;
}
polyline.module-border-inner {
  stroke: #191919;
}
polyline.module-border-middle {
  stroke: #111;
}
polyline.module-border-outer {
  stroke: #000;
}

rect.input-background, rect.input-background-filler {
  fill: #aaa;
}
rect.output-background, rect.output-background-filler {
  fill: #666;
}
text.input-label {
  fill: #333;
}
polyline.input-label, path.input-label {
  stroke: #333;
}
text.output-label {
  fill: #ddd;
}
polyline.output-label, path.output-label {
  stroke: #ddd;
}
</style>

  
      
      <rect class="module-background background-fill" width="45.0" height="380.0"/>
    
      
      <polyline class="module-border-inner" points="1,1 44.0,1 44.0,379.0 1,379.0 1,1" stroke-width="0.5" fill="none"/>
      <polyline class="module-border-middle" points="0.5,0.5 44.5,0.5 44.5,379.5 0.5,379.5 0.5,0.5" stroke-width="0.8" fill="none"/>
      <polyline class="module-border-outer" points="0,0 45.0,0 45.0,380.0 0,380.0 0,0" stroke-width="1" fill="none"/>
    
      <g transform="rotate(-90) translate(-376.0 13)">
        <text class="title" font-size="7pt" letter-spacing="2.5px">ARP</text>
        <g transform="translate(0 12)">
          <text class="brand" font-size="7pt" letter-spacing="2px">BGA</text>
          <rect class="background-fill" width="3.0" height="3" fill="#ddd" transform="translate(11.5 -5)"/>
        </g>
      </g>
    

  
  
  

  
  <g transform="translate(3 18)">
    <text font-size="6pt" letter-spacing="2.0px" transform="translate(5 6)">MODE</text>
    <g transform="translate(0 10)">
      <g transform="translate(0 0)"><svg id="UP_LIGHT">
      <rect width="6.4" height="6.4" fill="#0f0"/>
    </svg></g>
      <text font-size="5pt" letter-spacing="1px" transform="translate(8 5.7)">UP</text>
    </g>
    <g transform="translate(21 10)">
      <g transform="translate(0 0)"><svg id="DOWN_LIGHT">
      <rect width="6.4" height="6.4" fill="#0f0"/>
    </svg></g>
      <text font-size="5pt" letter-spacing="1px" transform="translate(8 5.7)">DN</text>
    </g>
    <g transform="translate(0 20)">
      <g transform="translate(0 0)"><svg id="UP_DOWN_LIGHT">
      <rect width="6.4" height="6.4" fill="#0f0"/>
    </svg></g>
      <text font-size="5pt" letter-spacing="1px" transform="translate(8 5.7)">PD</text>
    </g>
    <g transform="translate(21 20)">
      <g transform="translate(0 0)"><svg id="UP_DOWN_REPEAT_LIGHT">
      <rect width="6.4" height="6.4" fill="#0f0"/>
    </svg></g>
      <text font-size="5pt" letter-spacing="1px" transform="translate(8 5.7)">PR</text>
    </g>
    <g transform="translate(0 30)">
      <g transform="translate(0 0)"><svg id="IN_ORDER_LIGHT">
      <rect width="6.4" height="6.4" fill="#0f0"/>
    </svg></g>
      <text font-size="5pt" letter-spacing="1px" transform="translate(8 5.7)">IO</text>
    </g>
    <g transform="translate(21 30)">
      <g transform="translate(0 0)"><svg id="RANDOM_LIGHT">
      <rect width="6.4" height="6.4" fill="#0f0"/>
    </svg></g>
      <text font-size="5pt" letter-spacing="1px" transform="translate(8 5.7)">RD</text>
    </g>
    <g transform="translate(0 40)">
      <g transform="translate(0 0)"><svg id="SHUFFLE_LIGHT">
      <rect width="6.4" height="6.4" fill="#0f0"/>
    </svg></g>
      <text font-size="5pt" letter-spacing="1px" transform="translate(8 5.7)">SH</text>
    </g>
    <g transform="translate(21 39)"><svg id="MODE_PARAM">
      <g transform="translate(4.5 4.5)">
        <circle r="4" stroke-width="1" stroke="#00f" fill="#f00"/>
      </g>
    </svg></g>
  </g>

  <g transform="translate(2.5 78.5)">
    <text font-size="6pt" letter-spacing="1.5px" transform="translate(7.5 0)">GATE</text>
    <g transform="translate(12 9)"><svg id="GATE_LENGTH_PARAM">
      <g transform="translate(8 8)">
        <polyline points="-3,0 3,0" stroke-width="1" stroke="#00f"/>
        <polyline points="0,-3 0,3" stroke-width="1" stroke="#00f"/>
        <circle r="7.5" stroke-width="1" stroke="#00f" fill="none"/>
      </g>
    </svg></g>
    <g transform="translate(0 -3)">
      <g transform="translate(20 20)">
        <polyline points="0,0 4,0" stroke-width="1" transform="rotate(-240) translate(10 0)"/>
        <path d="M 0 -12.5 A 12.5 12.5 0 0 1 12.5 0" stroke-width="0.7" stroke-linecap="round" stroke="#ddd" fill="none" transform="rotate(0)"/>
        <path d="M 0 -12.5 A 12.5 12.5 0 0 1 12.5 0" stroke-width="0.7" stroke-linecap="round" stroke="#ddd" fill="none" transform="rotate(43)"/>
        <path d="M 0 -12.5 A 12.5 12.5 0 0 0 -12.5 0" stroke-width="0.7" stroke-linecap="round" stroke="#ddd" fill="none" transform="rotate(0)"/>
        <path d="M 0 -12.5 A 12.5 12.5 0 0 0 -12.5 0" stroke-width="0.7" stroke-linecap="round" stroke="#ddd" fill="none" transform="rotate(-43)"/>
      </g>
    </g>
    
  </g>

  <g transform="translate(6 115)">
    <text font-size="5pt" letter-spacing="1px" transform="translate(0 6)">HOLD</text>
    <g transform="translate(23 -1)"><svg id="HOLD_PARAM">
      <g transform="translate(4.5 4.5)">
        <circle r="4" stroke-width="1" stroke="#00f" fill="#f00"/>
      </g>
    </svg></g>
    
    
  </g>

  <g transform="translate(0 129)">
    <g class="io-group" transform="translate(5.5 0)">
      <rect class="input-background" width="34" height="143" rx="5"/>
      <rect class="input-background-filler" width="34" height="10" transform="translate(0 133)"/>
      <g transform="translate(5 3)"><svg id="CLOCK_INPUT">
      <g transform="translate(12 12)">
        <circle cx="0" cy="0" r="5" stroke-width="1" stroke="#0f0" fill="#0f0"/>
        <circle cx="0" cy="0" r="10.5" stroke-width="3" stroke="#0f0" fill="none"/>
      </g>
    </svg></g>
      <text class="input-label" font-size="5pt" letter-spacing="2px" transform="translate(2.3 35)">CLOCK</text>
      <g transform="translate(5 38)"><svg id="RESET_INPUT">
      <g transform="translate(12 12)">
        <circle cx="0" cy="0" r="5" stroke-width="1" stroke="#0f0" fill="#0f0"/>
        <circle cx="0" cy="0" r="10.5" stroke-width="3" stroke="#0f0" fill="none"/>
      </g>
    </svg></g>
      <text class="input-label" font-size="5pt" letter-spacing="2px" transform="translate(2.3 70)">RESET</text>
      <g transform="translate(5 73)"><svg id="PITCH_INPUT">
      <g transform="translate(12 12)">
        <circle cx="0" cy="0" r="5" stroke-width="1" stroke="#0f0" fill="#0f0"/>
        <circle cx="0" cy="0" r="10.5" stroke-width="3" stroke="#0f0" fill="none"/>
      </g>
    </svg></g>
      <text class="input-label" font-size="5pt" letter-spacing="2px" transform="translate(3 105)">V/OCT</text>
      <g transform="translate(5 108)"><svg id="GATE_INPUT">
      <g transform="translate(12 12)">
        <circle cx="0" cy="0" r="5" stroke-width="1" stroke="#0f0" fill="#0f0"/>
        <circle cx="0" cy="0" r="10.5" stroke-width="3" stroke="#0f0" fill="none"/>
      </g>
    </svg></g>
      <text class="input-label" font-size="5pt" letter-spacing="2px" transform="translate(5.5 140)">GATE</text>
    </g>
    <g class="io-group" transform="translate(5.5 146)">
      <rect class="output-background-filler" width="34" height="10" transform="translate(0 -3)"/>
      <rect class="output-background" width="34" height="70" rx="5"/>
      <g transform="translate(5 0)"><svg id="PITCH_OUTPUT">
      <g transform="translate(12 12)">
        <circle cx="0" cy="0" r="5" stroke-width="1" stroke="#f00" fill="#f00"/>
        <circle cx="0" cy="0" r="10.5" stroke-width="3" stroke="#f00" fill="none"/>
      </g>
    </svg></g>
      <text class="output-label" font-size="5pt" letter-spacing="2px" transform="translate(3 32)">V/OCT</text>
      <g transform="translate(5 35)"><svg id="GATE_OUTPUT">
      <g transform="translate(12 12)">
        <circle cx="0" cy="0" r="5" stroke-width="1" stroke="#f00" fill="#f00"/>
        <circle cx="0" cy="0" r="10.5" stroke-width="3" stroke="#f00" fill="none"/>
      </g>
    </svg></g>
      <text class="output-label" font-size="5pt" letter-spacing="2px" transform="translate(5.5 67)">GATE</text>
    </g>
  </g>
</svg>
