<?xml version="1.0"?>
<svg xmlns="http://www.w3.org/2000/svg" xmlns:xlink="http://www.w3.org/1999/xlink" version="1.1" width="90" height="380" viewBox="0 0 90 380">
  <style>text {
  fill: #333;
  font-family: 'Roboto', sans-serif;
  font-weight: bold;
}
text.title {
  font-family: 'Comfortaa', sans-serif;
  font-weight: normal;
}
text.brand {
  font-family: 'Audiowide', sans-serif;
  font-weight: bold;
}

polyline {
  stroke: #333;
}
path {
  stroke: #333;
}

rect.module-background, .background-fill {
  fill: #ddd;
}
polyline.module-border-inner {
  stroke: #e4e4e4;
}
polyline.module-border-middle {
  stroke: #ebebeb;
}
polyline.module-border-outer {
  stroke: #f2f2f2;
}

g.io-group {
}
rect.input-background, rect.input-background-filler {
  fill: #fafafa;
}
rect.output-background, rect.output-background-filler {
  fill: #bbb;
}
text.input-label, text.output-label {
  /* font-size: 6pt; */
}
polyline.input-label, polyline.output-label {
}
path.input-label, path.output-label {
}
</style>

  <defs>
    <symbol id="dial-voltage-cmp" viewBox="0 0 90px 45px">
      
      <g transform="translate(8 22.5)">
        <text font-size="5.0pt" transform="rotate(-22.5) translate(14 0) rotate(22.5) translate(-1 2.6)">-10V</text>
        <polyline points="0,0 2,0" stroke-width="1" transform="rotate(-22.5) translate(9.5 0)"/>
        <text font-size="5.0pt" transform="rotate(22.5) translate(14 0) rotate(-22.5) translate(-1 2.0)">+/-5V</text>
        <polyline points="0,0 2,0" stroke-width="1" transform="rotate(22.5) translate(9.5 0)"/>
      </g>
    </symbol>

    <symbol id="dial-offset-cmp" viewBox="0 0 45px 45px">
      <g transform="translate(22.5 22.5)">
        <text font-size="5.0pt" transform="rotate(-240) translate(21 0) rotate(240) translate(-5 2.2)">-10</text>

        <polyline points="0,0 2.5,0" stroke-width="0.7" transform="rotate(-225) translate(17 0)"/>
        <polyline points="0,0 2.5,0" stroke-width="0.7" transform="rotate(-210) translate(17 0)"/>
        <polyline points="0,0 2.5,0" stroke-width="0.7" transform="rotate(-195) translate(17 0)"/>
        <polyline points="0,0 2.5,0" stroke-width="0.7" transform="rotate(-180) translate(17 0)"/>

        <polyline points="0,0 3.5,0" stroke-width="1" transform="rotate(-165) translate(17 0)"/>

        <polyline points="0,0 2.5,0" stroke-width="0.7" transform="rotate(-150) translate(17 0)"/>
        <polyline points="0,0 2.5,0" stroke-width="0.7" transform="rotate(-135) translate(17 0)"/>
        <polyline points="0,0 2.5,0" stroke-width="0.7" transform="rotate(-120) translate(17 0)"/>
        <polyline points="0,0 2.5,0" stroke-width="0.7" transform="rotate(-105) translate(17 0)"/>

        <text font-size="5.0pt" transform="rotate(-90) translate(19 0) rotate(90) translate(-1.9 2.2)">0</text>

        <polyline points="0,0 2.5,0" stroke-width="0.7" transform="rotate(-75) translate(17 0)"/>
        <polyline points="0,0 2.5,0" stroke-width="0.7" transform="rotate(-60) translate(17 0)"/>
        <polyline points="0,0 2.5,0" stroke-width="0.7" transform="rotate(-45) translate(17 0)"/>
        <polyline points="0,0 2.5,0" stroke-width="0.7" transform="rotate(-30) translate(17 0)"/>

        <polyline points="0,0 3.5,0" stroke-width="1" transform="rotate(-15) translate(17 0)"/>

        <polyline points="0,0 2.5,0" stroke-width="0.7" transform="rotate(0) translate(17 0)"/>
        <polyline points="0,0 2.5,0" stroke-width="0.7" transform="rotate(15) translate(17 0)"/>
        <polyline points="0,0 2.5,0" stroke-width="0.7" transform="rotate(30) translate(17 0)"/>
        <polyline points="0,0 2.5,0" stroke-width="0.7" transform="rotate(45) translate(17 0)"/>

        <text font-size="5.0pt" transform="rotate(60) translate(21 0) rotate(-60) translate(-4 2.2)">10</text>
      </g>
    </symbol>

    <symbol id="dial-lag-cmp" viewBox="0 0 45px 45px">
      <g transform="translate(22.5 22.5)">
        <text font-size="5.0pt" transform="rotate(-240) translate(20 0) rotate(240) translate(-1.9 2.2)">0</text>
        <polyline points="0,0 2.5,0" stroke-width="0.7" transform="rotate(-210) translate(17 0)"/>
        <text font-size="5.0pt" transform="rotate(-145.13) translate(20.5 0) rotate(145.13) translate(-4.7 2.2)">0.1</text>
        <polyline points="0,0 2.5,0" stroke-width="0.7" transform="rotate(-105.84) translate(17 0)"/>
        <polyline points="0,0 2.5,0" stroke-width="0.7" transform="rotate(-75.86) translate(17 0)"/>
        <polyline points="0,0 2.5,0" stroke-width="0.7" transform="rotate(-50.26) translate(17 0)"/>
        <polyline points="0,0 3.5,0" stroke-width="1" transform="rotate(-27.87) translate(17 0)"/>
        <polyline points="0,0 2.5,0" stroke-width="0.7" transform="rotate(-7.62) translate(17 0)"/>
        <polyline points="0,0 2.5,0" stroke-width="0.7" transform="rotate(11) translate(17 0)"/>
        <polyline points="0,0 2.5,0" stroke-width="0.7" transform="rotate(28.33) translate(17 0)"/>
        <polyline points="0,0 2.5,0" stroke-width="0.7" transform="rotate(44.6) translate(17 0)"/>
        <text font-size="5.0pt" transform="rotate(60) translate(20 0) rotate(-60) translate(-1.8 2.2)">1</text>
      </g>
    </symbol>
  </defs>

  
      
      <rect class="module-background background-fill" width="90.0" height="380.0"/>
    
      
      <polyline class="module-border-inner" points="1,1 89.0,1 89.0,379.0 1,379.0 1,1" stroke-width="0.5" fill="none"/>
      <polyline class="module-border-middle" points="0.5,0.5 89.5,0.5 89.5,379.5 0.5,379.5 0.5,0.5" stroke-width="0.8" fill="none"/>
      <polyline class="module-border-outer" points="0,0 90.0,0 90.0,380.0 0,380.0 0,0" stroke-width="1" fill="none"/>
    
      <text class="title" font-size="9pt" letter-spacing="3px" text-anchor="end" transform="translate(85.0 17)">CMP</text>
      <g transform="translate(5.5 374)">
        <text class="brand" font-size="6.5pt" letter-spacing="2px">BOGAUDIO</text>
        <rect class="background-fill" width="1.5" height="2" fill="#ddd" transform="translate(21 -4)"/>
      </g>
    

  
  
  

  <g transform="translate(0 35)">
    <text font-size="6pt" letter-spacing="1px" transform="translate(20 0)">A</text>
    <g transform="translate(0 3)"><svg id="A_PARAM">
      <g transform="translate(22.5 22.5)">
        <polyline points="-5,0 5,0" stroke-width="1" stroke="#00f"/>
        <polyline points="0,-5 0,5" stroke-width="1" stroke="#00f"/>
        <circle cx="0" cy="0" r="14" stroke-width="1" stroke="#00f" fill="none"/>
      </g>
    </svg></g>
    <use xlink:href="#dial-offset-cmp" transform="translate(0 3)" href="#dial-offset-cmp"/>
    <g class="io-group" transform="translate(5.5 49)">
      <rect class="input-background" width="34" height="38" rx="5"/>
      <g transform="translate(5 3)"><svg id="A_INPUT">
      <g transform="translate(12 12)">
        <circle cx="0" cy="0" r="5" stroke-width="1" stroke="#0f0" fill="#0f0"/>
        <circle cx="0" cy="0" r="10.5" stroke-width="3" stroke="#0f0" fill="none"/>
      </g>
    </svg></g>
      <text class="input-label" font-size="5pt" letter-spacing="2px" transform="translate(13 35)">IN</text>
    </g>
  </g>

  <g transform="translate(45 35)">
    <text font-size="6pt" letter-spacing="1px" transform="translate(20 0)">B</text>
    <g transform="translate(0 3)"><svg id="B_PARAM">
      <g transform="translate(22.5 22.5)">
        <polyline points="-5,0 5,0" stroke-width="1" stroke="#00f"/>
        <polyline points="0,-5 0,5" stroke-width="1" stroke="#00f"/>
        <circle cx="0" cy="0" r="14" stroke-width="1" stroke="#00f" fill="none"/>
      </g>
    </svg></g>
    <use xlink:href="#dial-offset-cmp" transform="translate(0 3)" href="#dial-offset-cmp"/>
    <g class="io-group" transform="translate(5.5 49)">
      <rect class="input-background" width="34" height="38" rx="5"/>
      <g transform="translate(5 3)"><svg id="B_INPUT">
      <g transform="translate(12 12)">
        <circle cx="0" cy="0" r="5" stroke-width="1" stroke="#0f0" fill="#0f0"/>
        <circle cx="0" cy="0" r="10.5" stroke-width="3" stroke="#0f0" fill="none"/>
      </g>
    </svg></g>
      <text class="input-label" font-size="5pt" letter-spacing="2px" transform="translate(13 35)">IN</text>
    </g>
  </g>

  <g transform="translate(0 140)">
    <text font-size="6pt" letter-spacing="1px" transform="translate(3.5 0)">WINDOW</text>
    <g transform="translate(0 3)"><svg id="WINDOW_PARAM">
      <g transform="translate(22.5 22.5)">
        <polyline points="-5,0 5,0" stroke-width="1" stroke="#00f"/>
        <polyline points="0,-5 0,5" stroke-width="1" stroke="#00f"/>
        <circle cx="0" cy="0" r="14" stroke-width="1" stroke="#00f" fill="none"/>
      </g>
    </svg></g>
    <g transform="translate(0 3)">
      <g transform="translate(22.5 22.5)">
        <text font-size="5.0pt" transform="rotate(-240) translate(20 0) rotate(240) translate(-1.9 2.2)">0</text>

        <polyline points="0,0 2.5,0" stroke-width="0.7" transform="rotate(-210) translate(17 0)"/>
        <polyline points="0,0 2.5,0" stroke-width="0.7" transform="rotate(-180) translate(17 0)"/>
        <polyline points="0,0 2.5,0" stroke-width="0.7" transform="rotate(-150) translate(17 0)"/>
        <polyline points="0,0 2.5,0" stroke-width="0.7" transform="rotate(-120) translate(17 0)"/>

        <polyline points="0,0 3.5,0" stroke-width="1" transform="rotate(-90) translate(17 0)"/>

        <polyline points="0,0 2.5,0" stroke-width="0.7" transform="rotate(-60) translate(17 0)"/>
        <polyline points="0,0 2.5,0" stroke-width="0.7" transform="rotate(-30) translate(17 0)"/>
        <polyline points="0,0 2.5,0" stroke-width="0.7" transform="rotate(0) translate(17 0)"/>
        <polyline points="0,0 2.5,0" stroke-width="0.7" transform="rotate(30) translate(17 0)"/>

        <text font-size="5.0pt" transform="rotate(60) translate(20 0) rotate(-60) translate(-4 2.2)">10</text>
      </g>
    </g>
    <g class="io-group" transform="translate(5.5 49)">
      <rect class="input-background" width="34" height="38" rx="5"/>
      <g transform="translate(5 3)"><svg id="WINDOW_INPUT">
      <g transform="translate(12 12)">
        <circle cx="0" cy="0" r="5" stroke-width="1" stroke="#0f0" fill="#0f0"/>
        <circle cx="0" cy="0" r="10.5" stroke-width="3" stroke="#0f0" fill="none"/>
      </g>
    </svg></g>
      <text class="input-label" font-size="5pt" letter-spacing="2px" transform="translate(11 35)">CV</text>
    </g>
  </g>

  <g transform="translate(45 140)">
    <text font-size="6pt" letter-spacing="1px" transform="translate(14 0)">LAG</text>
    <g transform="translate(0 3)"><svg id="LAG_PARAM">
      <g transform="translate(22.5 22.5)">
        <polyline points="-5,0 5,0" stroke-width="1" stroke="#00f"/>
        <polyline points="0,-5 0,5" stroke-width="1" stroke="#00f"/>
        <circle cx="0" cy="0" r="14" stroke-width="1" stroke="#00f" fill="none"/>
      </g>
    </svg></g>
    <use xlink:href="#dial-lag-cmp" transform="translate(0 3)" href="#dial-lag-cmp"/>
    <g class="io-group" transform="translate(5.5 49)">
      <rect class="input-background" width="34" height="38" rx="5"/>
      <g transform="translate(5 3)"><svg id="LAG_INPUT">
      <g transform="translate(12 12)">
        <circle cx="0" cy="0" r="5" stroke-width="1" stroke="#0f0" fill="#0f0"/>
        <circle cx="0" cy="0" r="10.5" stroke-width="3" stroke="#0f0" fill="none"/>
      </g>
    </svg></g>
      <text class="input-label" font-size="5pt" letter-spacing="2px" transform="translate(11 35)">CV</text>
    </g>
  </g>

  <g transform="translate(25 239)">
    
    <text font-size="6pt" letter-spacing="1px" transform="translate(1.5 7)">OUTPUT</text>
    <g transform="translate(0.5 12)"><svg id="OUTPUT_PARAM">
      <g transform="translate(8 8)">
        <polyline points="-3,0 3,0" stroke-width="1" stroke="#00f"/>
        <polyline points="0,-3 0,3" stroke-width="1" stroke="#00f"/>
        <circle r="7.5" stroke-width="1" stroke="#00f" fill="none"/>
      </g>
    </svg></g>
    <use xlink:href="#dial-voltage-cmp" transform="translate(0.5 -2.5)" href="#dial-voltage-cmp"/>
  </g>

  <g class="io-group" transform="translate(11 279)">
    <rect class="output-background" width="68" height="77" rx="5"/>
    <g transform="translate(5 4)"><svg id="GREATER_OUTPUT">
      <g transform="translate(12 12)">
        <circle cx="0" cy="0" r="5" stroke-width="1" stroke="#f00" fill="#f00"/>
        <circle cx="0" cy="0" r="10.5" stroke-width="3" stroke="#f00" fill="none"/>
      </g>
    </svg></g>
    <g transform="translate(9 36.5)">
      <text class="output-label" font-size="5pt" transform="translate(0 0)">A</text>
      <text class="output-label" font-size="8pt" style="font-weight: normal" transform="translate(6 0.5)">&#x2265;</text>
      <text class="output-label" font-size="5pt" transform="translate(13 0)">B</text>
    </g>
    <g transform="translate(39 4)"><svg id="LESS_OUTPUT">
      <g transform="translate(12 12)">
        <circle cx="0" cy="0" r="5" stroke-width="1" stroke="#f00" fill="#f00"/>
        <circle cx="0" cy="0" r="10.5" stroke-width="3" stroke="#f00" fill="none"/>
      </g>
    </svg></g>
    <g transform="translate(43 36.5)">
      <text class="output-label" font-size="5pt" transform="translate(0 0)">A</text>
      <text class="output-label" font-size="8pt" style="font-weight: normal" transform="translate(6 1)">&lt;</text>
      <text class="output-label" font-size="5pt" transform="translate(13 0)">B</text>
    </g>
    <g transform="translate(5 40)"><svg id="EQUAL_OUTPUT">
      <g transform="translate(12 12)">
        <circle cx="0" cy="0" r="5" stroke-width="1" stroke="#f00" fill="#f00"/>
        <circle cx="0" cy="0" r="10.5" stroke-width="3" stroke="#f00" fill="none"/>
      </g>
    </svg></g>
    <text class="output-label" font-size="5pt" letter-spacing="2px" transform="translate(12 72)">EQ</text>
    <g transform="translate(39 40)"><svg id="NOT_EQUAL_OUTPUT">
      <g transform="translate(12 12)">
        <circle cx="0" cy="0" r="5" stroke-width="1" stroke="#f00" fill="#f00"/>
        <circle cx="0" cy="0" r="10.5" stroke-width="3" stroke="#f00" fill="none"/>
      </g>
    </svg></g>
    <text class="output-label" font-size="5pt" letter-spacing="2px" transform="translate(42 72)">NOT</text>
  </g>
</svg>
