<?xml version="1.0"?>
<svg xmlns="http://www.w3.org/2000/svg" xmlns:xlink="http://www.w3.org/1999/xlink" version="1.1" width="150" height="380" viewBox="0 0 150 380">
  <style>text {
  fill: #333;
  font-family: 'Roboto', sans-serif;
  font-weight: bold;
}
text.title {
  font-family: 'Comfortaa', sans-serif;
  font-weight: normal;
}
text.brand {
  font-family: 'Audiowide', sans-serif;
  font-weight: bold;
}

polyline {
  stroke: #333;
}
path {
  stroke: #333;
}

rect.module-background, .background-fill {
  fill: #ddd;
}
polyline.module-border-inner {
  stroke: #e4e4e4;
}
polyline.module-border-middle {
  stroke: #ebebeb;
}
polyline.module-border-outer {
  stroke: #f2f2f2;
}

g.io-group {
}
rect.input-background {
  fill: #fafafa;
}
rect.input-background-filler {
  fill: #fafafa;
}
rect.output-background {
  fill: #bbb;
}
rect.output-background-filler {
  fill: #bbb;
}
text.input-label, text.output-label {
  /* font-size: 6pt; */
}
</style>

  <defs>
    <symbol id="dial-attenuverter-cmpdist" viewBox="0 0 45px 45px">
      <g transform="translate(22.5 22.5)">
        <text font-size="7pt" transform="rotate(-240) translate(20 0) rotate(240) translate(-1.2 2.2)">-</text>

        <polyline points="0,0 2.5,0" stroke-width="0.3" transform="rotate(-225) translate(17 0)"/>
        <polyline points="0,0 2.5,0" stroke-width="0.3" transform="rotate(-210) translate(17 0)"/>
        <polyline points="0,0 2.5,0" stroke-width="0.3" transform="rotate(-195) translate(17 0)"/>
        <polyline points="0,0 2.5,0" stroke-width="0.3" transform="rotate(-180) translate(17 0)"/>
        <polyline points="0,0 3.5,0" stroke-width="1" transform="rotate(-165) translate(17 0)"/>
        <polyline points="0,0 2.5,0" stroke-width="0.3" transform="rotate(-150) translate(17 0)"/>
        <polyline points="0,0 2.5,0" stroke-width="0.3" transform="rotate(-135) translate(17 0)"/>
        <polyline points="0,0 2.5,0" stroke-width="0.3" transform="rotate(-120) translate(17 0)"/>
        <polyline points="0,0 2.5,0" stroke-width="0.3" transform="rotate(-105) translate(17 0)"/>

        <text font-size="5pt" transform="rotate(-90) translate(20 0) rotate(90) translate(-1.9 3)">0</text>

        <polyline points="0,0 2.5,0" stroke-width="0.3" transform="rotate(-75) translate(17 0)"/>
        <polyline points="0,0 2.5,0" stroke-width="0.3" transform="rotate(-60) translate(17 0)"/>
        <polyline points="0,0 2.5,0" stroke-width="0.3" transform="rotate(-45) translate(17 0)"/>
        <polyline points="0,0 2.5,0" stroke-width="0.3" transform="rotate(-30) translate(17 0)"/>
        <polyline points="0,0 3.5,0" stroke-width="1" transform="rotate(-15) translate(17 0)"/>
        <polyline points="0,0 2.5,0" stroke-width="0.3" transform="rotate(0) translate(17 0)"/>
        <polyline points="0,0 2.5,0" stroke-width="0.3" transform="rotate(15) translate(17 0)"/>
        <polyline points="0,0 2.5,0" stroke-width="0.3" transform="rotate(30) translate(17 0)"/>
        <polyline points="0,0 2.5,0" stroke-width="0.3" transform="rotate(45) translate(17 0)"/>

        <text font-size="5pt" transform="rotate(60) translate(20 0) rotate(-60) translate(-2 2)">+</text>
      </g>
    </symbol>

    <symbol id="dial-drywet-cmpdist" viewBox="0 0 45px 45px">
      <g transform="translate(22.5 22.5)">
        <text font-size="5pt" transform="rotate(-240) translate(20 0) rotate(240) translate(-2.5 3)">D</text>
        <polyline points="0,0 2.5,0" stroke-width="0.3" transform="rotate(-210) translate(17 0)"/>
        <polyline points="0,0 2.5,0" stroke-width="0.3" transform="rotate(-180) translate(17 0)"/>
        <polyline points="0,0 2.5,0" stroke-width="0.3" transform="rotate(-150) translate(17 0)"/>
        <polyline points="0,0 2.5,0" stroke-width="0.3" transform="rotate(-120) translate(17 0)"/>
        <polyline points="0,0 4.5,0" stroke-width="1" transform="rotate(-90) translate(17 0)"/>
        <polyline points="0,0 2.5,0" stroke-width="0.3" transform="rotate(-60) translate(17 0)"/>
        <polyline points="0,0 2.5,0" stroke-width="0.3" transform="rotate(-30) translate(17 0)"/>
        <polyline points="0,0 2.5,0" stroke-width="0.3" transform="rotate(0) translate(17 0)"/>
        <polyline points="0,0 2.5,0" stroke-width="0.3" transform="rotate(30) translate(17 0)"/>
        <text font-size="5pt" transform="rotate(60) translate(20 0) rotate(-60) translate(-2 3)">W</text>
      </g>
    </symbol>
  </defs>

  
      
      <rect class="module-background background-fill" width="150.0" height="380.0"/>
    
      
      <polyline class="module-border-inner" points="1,1 149.0,1 149.0,379.0 1,379.0 1,1" stroke-width="0.5" fill="none"/>
      <polyline class="module-border-middle" points="0.5,0.5 149.5,0.5 149.5,379.5 0.5,379.5 0.5,0.5" stroke-width="0.8" fill="none"/>
      <polyline class="module-border-outer" points="0,0 150.0,0 150.0,380.0 0,380.0 0,0" stroke-width="1" fill="none"/>
    
      <text class="title" font-size="12pt" letter-spacing="4px" text-anchor="middle" transform="translate(75.0 19)">CMPDIST</text>
      <g transform="translate(0 374)">
        <text class="brand" font-size="8pt" letter-spacing="2px" text-anchor="middle" transform="translate(75.0 0)">BOGAUDIO</text>
        <rect class="background-fill" width="3" height="3" transform="translate(59.5 -5)"/>
      </g>
    

  
  
  

  <g transform="translate(6 35)">
    <text font-size="6pt" letter-spacing="1px" transform="translate(3.5 0)">A SCALE</text>
    <g transform="translate(0 3)"><svg id="A_PARAM">
      <g transform="translate(22.5 22.5)">
        <polyline points="-5,0 5,0" stroke-width="1" stroke="#00f"/>
        <polyline points="0,-5 0,5" stroke-width="1" stroke="#00f"/>
        <circle cx="0" cy="0" r="14" stroke-width="1" stroke="#00f" fill="none"/>
      </g>
    </svg></g>
    <use xlink:href="#dial-attenuverter-cmpdist" transform="translate(0 3)" href="#dial-attenuverter-cmpdist"/>
  </g>

  <g transform="translate(52.5 35)">
    <text font-size="6pt" letter-spacing="1px" transform="translate(4 0)">WINDOW</text>
    <g transform="translate(0 3)"><svg id="WINDOW_PARAM">
      <g transform="translate(22.5 22.5)">
        <polyline points="-5,0 5,0" stroke-width="1" stroke="#00f"/>
        <polyline points="0,-5 0,5" stroke-width="1" stroke="#00f"/>
        <circle cx="0" cy="0" r="14" stroke-width="1" stroke="#00f" fill="none"/>
      </g>
    </svg></g>
    <g transform="translate(0 3)">
      <g transform="translate(22.5 22.5)">
        <text font-size="5.0pt" transform="rotate(-240) translate(20 0) rotate(240) translate(-1.9 2.2)">0</text>

        <polyline points="0,0 2.5,0" stroke-width="0.3" transform="rotate(-210) translate(17 0)"/>
        <polyline points="0,0 2.5,0" stroke-width="0.3" transform="rotate(-180) translate(17 0)"/>
        <polyline points="0,0 2.5,0" stroke-width="0.3" transform="rotate(-150) translate(17 0)"/>
        <polyline points="0,0 2.5,0" stroke-width="0.3" transform="rotate(-120) translate(17 0)"/>

        <polyline points="0,0 3.5,0" stroke-width="1" transform="rotate(-90) translate(17 0)"/>

        <polyline points="0,0 2.5,0" stroke-width="0.3" transform="rotate(-60) translate(17 0)"/>
        <polyline points="0,0 2.5,0" stroke-width="0.3" transform="rotate(-30) translate(17 0)"/>
        <polyline points="0,0 2.5,0" stroke-width="0.3" transform="rotate(0) translate(17 0)"/>
        <polyline points="0,0 2.5,0" stroke-width="0.3" transform="rotate(30) translate(17 0)"/>

        <text font-size="5.0pt" transform="rotate(60) translate(20 0) rotate(-60) translate(-4 2.2)">10</text>
      </g>
    </g>
  </g>

  <g transform="translate(99 35)">
    <text font-size="6pt" letter-spacing="1px" transform="translate(3.5 0)">B SCALE</text>
    <g transform="translate(0 3)"><svg id="B_PARAM">
      <g transform="translate(22.5 22.5)">
        <polyline points="-5,0 5,0" stroke-width="1" stroke="#00f"/>
        <polyline points="0,-5 0,5" stroke-width="1" stroke="#00f"/>
        <circle cx="0" cy="0" r="14" stroke-width="1" stroke="#00f" fill="none"/>
      </g>
    </svg></g>
    <use xlink:href="#dial-attenuverter-cmpdist" transform="translate(0 3)" href="#dial-attenuverter-cmpdist"/>
  </g>

  <g transform="translate(6 100)">
    <text font-size="6pt" letter-spacing="1px" transform="translate(6.5 0)">GT MIX</text>
    <g transform="translate(0 3)"><svg id="GT_MIX_PARAM">
      <g transform="translate(22.5 22.5)">
        <polyline points="-5,0 5,0" stroke-width="1" stroke="#00f"/>
        <polyline points="0,-5 0,5" stroke-width="1" stroke="#00f"/>
        <circle cx="0" cy="0" r="14" stroke-width="1" stroke="#00f" fill="none"/>
      </g>
    </svg></g>
    <use xlink:href="#dial-attenuverter-cmpdist" transform="translate(0 3)" href="#dial-attenuverter-cmpdist"/>
  </g>

  <g transform="translate(52.5 100)">
    <text font-size="6pt" letter-spacing="1px" transform="translate(6.5 0)">EQ MIX</text>
    <g transform="translate(0 3)"><svg id="EQ_MIX_PARAM">
      <g transform="translate(22.5 22.5)">
        <polyline points="-5,0 5,0" stroke-width="1" stroke="#00f"/>
        <polyline points="0,-5 0,5" stroke-width="1" stroke="#00f"/>
        <circle cx="0" cy="0" r="14" stroke-width="1" stroke="#00f" fill="none"/>
      </g>
    </svg></g>
    <use xlink:href="#dial-attenuverter-cmpdist" transform="translate(0 3)" href="#dial-attenuverter-cmpdist"/>
  </g>

  <g transform="translate(99 100)">
    <text font-size="6pt" letter-spacing="1px" transform="translate(7 0)">LT MIX</text>
    <g transform="translate(0 3)"><svg id="LT_MIX_PARAM">
      <g transform="translate(22.5 22.5)">
        <polyline points="-5,0 5,0" stroke-width="1" stroke="#00f"/>
        <polyline points="0,-5 0,5" stroke-width="1" stroke="#00f"/>
        <circle cx="0" cy="0" r="14" stroke-width="1" stroke="#00f" fill="none"/>
      </g>
    </svg></g>
    <use xlink:href="#dial-attenuverter-cmpdist" transform="translate(0 3)" href="#dial-attenuverter-cmpdist"/>
  </g>

  
  
  

  <g transform="translate(52.5 165)">
    <text font-size="6pt" letter-spacing="1px" transform="translate(2.5 0)">DRY/WET</text>
    <g transform="translate(0 3)"><svg id="DRY_WET_PARAM">
      <g transform="translate(22.5 22.5)">
        <polyline points="-5,0 5,0" stroke-width="1" stroke="#00f"/>
        <polyline points="0,-5 0,5" stroke-width="1" stroke="#00f"/>
        <circle cx="0" cy="0" r="14" stroke-width="1" stroke="#00f" fill="none"/>
      </g>
    </svg></g>
    <use xlink:href="#dial-drywet-cmpdist" transform="translate(0 3)" href="#dial-drywet-cmpdist"/>
  </g>

  <g transform="translate(20.5 182.5)">
    <text font-size="6pt" letter-spacing="1px" transform="translate(-6 -9)">A DRY</text>
    <g transform="translate(0 0)"><svg id="A_DRY_PARAM">
      <g transform="translate(8 8)">
        <polyline points="-3,0 3,0" stroke-width="1" stroke="#00f"/>
        <polyline points="0,-3 0,3" stroke-width="1" stroke="#00f"/>
        <circle r="7.5" stroke-width="1" stroke="#00f" fill="none"/>
      </g>
    </svg></g>
    <g transform="translate(-12.5 -12)">
      <g transform="translate(20 20)">
        <g transform="rotate(-240) translate(10 0)">
          <polyline points="0,0 4,0" stroke-width="1"/>
        </g>
        <path d="M 0 -12.5 A 12.5 12.5 0 0 1 12.5 0" stroke-width="0.5" stroke-linecap="round" fill="none" transform="rotate(0)"/>
        <path d="M 0 -12.5 A 12.5 12.5 0 0 1 12.5 0" stroke-width="0.5" stroke-linecap="round" fill="none" transform="rotate(43)"/>
        <path d="M 0 -12.5 A 12.5 12.5 0 0 0 -12.5 0" stroke-width="0.5" stroke-linecap="round" fill="none" transform="rotate(0)"/>
        <path d="M 0 -12.5 A 12.5 12.5 0 0 0 -12.5 0" stroke-width="0.5" stroke-linecap="round" fill="none" transform="rotate(-43)"/>
      </g>
    </g>
  </g>

  <g transform="translate(113.5 182.5)">
    <text font-size="6pt" letter-spacing="1px" transform="translate(-6 -9)">B DRY</text>
    <g transform="translate(0 0)"><svg id="B_DRY_PARAM">
      <g transform="translate(8 8)">
        <polyline points="-3,0 3,0" stroke-width="1" stroke="#00f"/>
        <polyline points="0,-3 0,3" stroke-width="1" stroke="#00f"/>
        <circle r="7.5" stroke-width="1" stroke="#00f" fill="none"/>
      </g>
    </svg></g>
    <g transform="translate(-12.5 -12)">
      <g transform="translate(20 20)">
        <g transform="rotate(-240) translate(10 0)">
          <polyline points="0,0 4,0" stroke-width="1"/>
        </g>
        <path d="M 0 -12.5 A 12.5 12.5 0 0 1 12.5 0" stroke-width="0.5" stroke-linecap="round" fill="none" transform="rotate(0)"/>
        <path d="M 0 -12.5 A 12.5 12.5 0 0 1 12.5 0" stroke-width="0.5" stroke-linecap="round" fill="none" transform="rotate(43)"/>
        <path d="M 0 -12.5 A 12.5 12.5 0 0 0 -12.5 0" stroke-width="0.5" stroke-linecap="round" fill="none" transform="rotate(0)"/>
        <path d="M 0 -12.5 A 12.5 12.5 0 0 0 -12.5 0" stroke-width="0.5" stroke-linecap="round" fill="none" transform="rotate(-43)"/>
      </g>
    </g>
  </g>

  <g class="io-group" transform="translate(0 225)">
    <rect class="input-background" width="130" height="135" rx="5" transform="translate(10 0)"/>
    <rect class="output-background" width="65" height="91" rx="5" transform="translate(75 44)"/>
    <rect class="output-background-filler" width="10" height="8" transform="translate(75 44)"/>
    <rect class="output-background-filler" width="10" height="8" transform="translate(130 44)"/>
    <rect class="output-background-filler" width="10" height="8" transform="translate(75 127)"/>

    <g transform="translate(12 0)">
      <g transform="translate(3 5)"><svg id="GT_MIX_INPUT">
      <g transform="translate(12 12)">
        <circle cx="0" cy="0" r="5" stroke-width="1" stroke="#0f0" fill="#0f0"/>
        <circle cx="0" cy="0" r="10.5" stroke-width="3" stroke="#0f0" fill="none"/>
      </g>
    </svg></g>
      <text class="input-label" font-size="6pt" letter-spacing="1px" transform="translate(5 40)">GTM</text>
    </g>
    <g transform="translate(44 0)">
      <g transform="translate(3 5)"><svg id="LT_MIX_INPUT">
      <g transform="translate(12 12)">
        <circle cx="0" cy="0" r="5" stroke-width="1" stroke="#0f0" fill="#0f0"/>
        <circle cx="0" cy="0" r="10.5" stroke-width="3" stroke="#0f0" fill="none"/>
      </g>
    </svg></g>
      <text class="input-label" font-size="6pt" letter-spacing="1px" transform="translate(6 40)">LTM</text>
    </g>
    <g transform="translate(76 0)">
      <g transform="translate(3 5)"><svg id="WINDOW_INPUT">
      <g transform="translate(12 12)">
        <circle cx="0" cy="0" r="5" stroke-width="1" stroke="#0f0" fill="#0f0"/>
        <circle cx="0" cy="0" r="10.5" stroke-width="3" stroke="#0f0" fill="none"/>
      </g>
    </svg></g>
      <text class="input-label" font-size="6pt" letter-spacing="0.5px" transform="translate(1.5 40)">WNDW</text>
    </g>
    <g transform="translate(108 0)">
      <g transform="translate(3 5)"><svg id="DRY_WET_INPUT">
      <g transform="translate(12 12)">
        <circle cx="0" cy="0" r="5" stroke-width="1" stroke="#0f0" fill="#0f0"/>
        <circle cx="0" cy="0" r="10.5" stroke-width="3" stroke="#0f0" fill="none"/>
      </g>
    </svg></g>
      <text class="input-label" font-size="6pt" letter-spacing="1px" transform="translate(6 40)">D/W</text>
    </g>

    <g transform="translate(0 44)">
      <g transform="translate(12 0)">
        <g transform="translate(3 5)"><svg id="A_INPUT">
      <g transform="translate(12 12)">
        <circle cx="0" cy="0" r="5" stroke-width="1" stroke="#0f0" fill="#0f0"/>
        <circle cx="0" cy="0" r="10.5" stroke-width="3" stroke="#0f0" fill="none"/>
      </g>
    </svg></g>
        <text class="input-label" font-size="6pt" letter-spacing="1px" transform="translate(5 40)">A IN</text>
      </g>
      <g transform="translate(44 0)">
        <g transform="translate(3 5)"><svg id="A_SCALE_INPUT">
      <g transform="translate(12 12)">
        <circle cx="0" cy="0" r="5" stroke-width="1" stroke="#0f0" fill="#0f0"/>
        <circle cx="0" cy="0" r="10.5" stroke-width="3" stroke="#0f0" fill="none"/>
      </g>
    </svg></g>
        <text class="input-label" font-size="6pt" letter-spacing="1px" transform="translate(1.5 40)">A SCL</text>
      </g>
      <g transform="translate(76 0)">
        <g transform="translate(3 5)"><svg id="GT_OUTPUT">
      <g transform="translate(12 12)">
        <circle cx="0" cy="0" r="5" stroke-width="1" stroke="#f00" fill="#f00"/>
        <circle cx="0" cy="0" r="10.5" stroke-width="3" stroke="#f00" fill="none"/>
      </g>
    </svg></g>
        <text class="output-label" font-size="6pt" letter-spacing="2px" transform="translate(8 40)">GT</text>
      </g>
      <g transform="translate(108 0)">
        <g transform="translate(3 5)"><svg id="LT_OUTPUT">
      <g transform="translate(12 12)">
        <circle cx="0" cy="0" r="5" stroke-width="1" stroke="#f00" fill="#f00"/>
        <circle cx="0" cy="0" r="10.5" stroke-width="3" stroke="#f00" fill="none"/>
      </g>
    </svg></g>
        <text class="output-label" font-size="6pt" letter-spacing="2px" transform="translate(9.5 40)">LT</text>
      </g>

      <g transform="translate(10 44)">
        <g transform="translate(2 0)">
          <g transform="translate(3 5)"><svg id="B_INPUT">
      <g transform="translate(12 12)">
        <circle cx="0" cy="0" r="5" stroke-width="1" stroke="#0f0" fill="#0f0"/>
        <circle cx="0" cy="0" r="10.5" stroke-width="3" stroke="#0f0" fill="none"/>
      </g>
    </svg></g>
          <text class="input-label" font-size="6pt" letter-spacing="1px" transform="translate(5 40)">B IN</text>
        </g>
        <g transform="translate(34 0)">
          <g transform="translate(3 5)"><svg id="B_SCALE_INPUT">
      <g transform="translate(12 12)">
        <circle cx="0" cy="0" r="5" stroke-width="1" stroke="#0f0" fill="#0f0"/>
        <circle cx="0" cy="0" r="10.5" stroke-width="3" stroke="#0f0" fill="none"/>
      </g>
    </svg></g>
          <text class="input-label" font-size="6pt" letter-spacing="1px" transform="translate(1.5 40)">B SCL</text>
        </g>
        <g transform="translate(66 0)">
          <g transform="translate(3 5)"><svg id="EQ_OUTPUT">
      <g transform="translate(12 12)">
        <circle cx="0" cy="0" r="5" stroke-width="1" stroke="#f00" fill="#f00"/>
        <circle cx="0" cy="0" r="10.5" stroke-width="3" stroke="#f00" fill="none"/>
      </g>
    </svg></g>
          <text class="output-label" font-size="6pt" letter-spacing="2px" transform="translate(9 40)">EQ</text>
        </g>
        <g transform="translate(98 0)">
          <g transform="translate(3 5)"><svg id="MIX_OUTPUT">
      <g transform="translate(12 12)">
        <circle cx="0" cy="0" r="5" stroke-width="1" stroke="#f00" fill="#f00"/>
        <circle cx="0" cy="0" r="10.5" stroke-width="3" stroke="#f00" fill="none"/>
      </g>
    </svg></g>
          <text class="output-label" font-size="6pt" letter-spacing="2px" transform="translate(6 40)">MIX</text>
        </g>
      </g>
    </g>
  </g>
</svg>
