<?xml version="1.0"?>
<svg xmlns="http://www.w3.org/2000/svg" xmlns:xlink="http://www.w3.org/1999/xlink" version="1.1" width="255" height="380" viewBox="0 0 255 380">
  <style>text {
  fill: #333;
  font-family: 'Roboto', sans-serif;
  font-weight: bold;
}
text.title {
  font-family: 'Comfortaa', sans-serif;
  font-weight: normal;
}
text.brand {
  font-family: 'Audiowide', sans-serif;
  font-weight: bold;
}
</style>

  <defs>
    <symbol id="waves-eightfo" viewBox="0 0 70px 70px">
      <!-- <polyline points="0,0 0,70" stroke-width="1" stroke="#0f0" transform="translate(20 0)" /> -->
      <g transform="translate(20 35)">
        <!-- <circle r="18" fill="none" stroke="#00f" /> -->
        <polyline points="0,0 5,0" stroke-width="1" stroke="#333" transform="rotate(-90) translate(11 0)"/>
        <polyline points="0,0 5,0" stroke-width="1" stroke="#333" transform="rotate(-45) translate(11 0)"/>
        <polyline points="0,0 5,0" stroke-width="1" stroke="#333" transform="rotate(0) translate(11 0)"/>
        <polyline points="0,0 5,0" stroke-width="1" stroke="#333" transform="rotate(45) translate(11 0)"/>
        <polyline points="0,0 5,0" stroke-width="1" stroke="#333" transform="rotate(90) translate(11 0)"/>
      </g>
      <g transform="translate(14 8)">
        <!-- <rect width="12" height="8" fill="none" stroke-width="1" stroke="#0f0" /> -->
        <polyline points="0,8 12,0 12,8" stroke-width="1" stroke="#333" fill="none"/>
      </g>
      <g transform="translate(33.5 13.5)">
        <!-- <rect width="12" height="8" fill="none" stroke-width="1" stroke="#0f0" /> -->
        <polyline points="0,8 0,0 12,8" stroke-width="1" stroke="#333" fill="none"/>
      </g>
      <g transform="translate(39 31)">
        <!-- <rect width="12" height="8" fill="none" stroke-width="1" stroke="#0f0" /> -->
        <path d="M 0 4 A 2 3 0 0 1 6 4" stroke="#333" stroke-width="1" fill="none"/>
        <path d="M 6 4 A 2 3 0 0 0 12 4" stroke="#333" stroke-width="1" fill="none"/>
      </g>
      <g transform="translate(33.5 48.5)">
        <!-- <rect width="12" height="8" fill="none" stroke-width="1" stroke="#0f0" /> -->
        <polyline points="0,4 3,0 9,8 12,4" stroke-width="1" stroke="#333" fill="none"/>
      </g>
      <g transform="translate(14 54)">
        <!-- <rect width="12" height="8" fill="none" stroke-width="1" stroke="#0f0" /> -->
        <polyline points="0,4 0,0 6,0 6,8 12,8 12,4" stroke-width="1" stroke="#333" fill="none"/>
      </g>
    </symbol>

    <symbol id="dial-phase-eightfo" viewBox="0 0 40px 40px">
      <g transform="translate(20 20)">
        <g transform="rotate(-90) translate(10 0)">
          <polyline points="0,0 4,0" stroke-width="1" stroke="#333"/>
        </g>
        <path d="M 0 -12.5 A 12.5 12.5 0 0 1 12.5 0" stroke="#333" stroke-width="0.5" stroke-linecap="round" fill="none" transform="rotate(20)"/>
        <path d="M 0 -12.5 A 12.5 12.5 0 0 1 12.5 0" stroke="#333" stroke-width="0.5" stroke-linecap="round" fill="none" transform="rotate(43)"/>
        <path d="M 0 -12.5 A 12.5 12.5 0 0 0 -12.5 0" stroke="#333" stroke-width="0.5" stroke-linecap="round" fill="none" transform="rotate(-20)"/>
        <path d="M 0 -12.5 A 12.5 12.5 0 0 0 -12.5 0" stroke="#333" stroke-width="0.5" stroke-linecap="round" fill="none" transform="rotate(-43)"/>
      </g>
    </symbol>
  </defs>

  <rect width="100%" height="100%" fill="#ddd"/>
  <polyline points="1,1 254,1 254,379 1,379 1,1" stroke="#e4e4e4" stroke-width="0.5" fill="none"/>
  <polyline points="0.5,0.5 254.5,0.5 254.5,379.5 0.5,379.5 0.5,0.5" stroke="#ebebeb" stroke-width="0.8" fill="none"/>
  <polyline points="0,0 255,0 255,380 0,380 0,0" stroke="#f2f2f2" stroke-width="1" fill="none"/>

  <!-- <rect width="110" height="20" fill="#0f0" transform="translate(0 0)" /> -->
  <!-- <rect width="110" height="20" fill="#0f0" transform="translate(160 0)" /> -->
  <!-- <rect width="95" height="20" fill="#0f0" transform="translate(0 360)" /> -->
  <!-- <rect width="95" height="20" fill="#0f0" transform="translate(175 360)" /> -->

  <text class="title" x="114" y="19" font-size="12pt" letter-spacing="4px">8FO</text>
  <g transform="translate(95 374)">
    <text class="brand" font-size="8pt" letter-spacing="2px">BOGAUDIO</text>
    <rect width="3.0" height="3" fill="#ddd" transform="translate(24 -5)"/>
  </g>

  <g transform="translate(20 25)">
    <!-- <rect width="108" height="108" fill="none" stroke="#0f0" /> -->
    <!-- <polyline points="0,54 54,54" stroke="#0f0" stroke-width="1" fill="none" /> -->
    <!-- <polyline points="54,54 54,354" stroke="#0f0" stroke-width="1" fill="none" /> -->
    <g transform="translate(20 20)"><svg id="FREQUENCY_PARAM">
      <g transform="translate(34 34)">
        <polyline points="-10,0 10,0" stroke-width="1" stroke="#00f"/>
        <polyline points="0,-10 0,10" stroke-width="1" stroke="#00f"/>
        <circle cx="0" cy="0" r="33.5" stroke-width="1" stroke="#00f" fill="none"/>
      </g>
    </svg></g>
  </g>
  <g transform="translate(10 15)"><svg>
      <g transform="translate(64 64)">
        <g transform="rotate(-225.08) translate(34 0)">
          <polyline points="0,0 5,0" stroke-width="1" stroke="#333" transform="translate(3 0)"/>
          <text font-size="7.0pt" transform="translate(14 0) rotate(225.08) translate(-10.5 3.5)">0.1</text>
        </g>
        <g transform="rotate(-171.49) translate(34 0)">
          <polyline points="0,0 5,0" stroke-width="1" stroke="#333" transform="translate(3 0)"/>
          <text font-size="7.0pt" transform="translate(14 0) rotate(171.49) translate(-11 3.5)">0.5</text>
        </g>
        <g transform="rotate(-71.76) translate(34 0)">
          <polyline points="0,0 5,0" stroke-width="1" stroke="#333" transform="translate(3 0)"/>
          <text font-size="7.0pt" transform="translate(14 0) rotate(71.76) translate(-2 3.5)">10</text>
        </g>
        <g transform="rotate(-124.62) translate(34 0)">
          <polyline points="0,0 5,0" stroke-width="1" stroke="#333" transform="translate(3 0)"/>
          <text font-size="7.0pt" letter-spacing="1px" transform="translate(14 0) rotate(124.62) translate(-10 3.5)">0V</text>
        </g>
        <g transform="rotate(-18.17) translate(34 0)">
          <polyline points="0,0 5,0" stroke-width="1" stroke="#333" transform="translate(3 0)"/>
          <text font-size="7.0pt" transform="translate(14 0) rotate(18.17) translate(-2 3.5)">50</text>
        </g>
        <g transform="rotate(27.98) translate(34 0)">
          <polyline points="0,0 5,0" stroke-width="1" stroke="#333" transform="translate(3 0)"/>
          <text font-size="7.0pt" transform="translate(14 0) rotate(-27.98) translate(-2 3.5)">200</text>
        </g>
        <g transform="rotate(51.05) translate(34 0)">
          <polyline points="0,0 5,0" stroke-width="1" stroke="#333" transform="translate(3 0)"/>
          <text font-size="7.0pt" transform="translate(14 0) rotate(-51.05) translate(-2 3.5)">400HZ</text>
        </g>

        <polyline points="0,0 3,0" stroke-width="0.7" stroke="#333" transform="rotate(-240) translate(37 0)"/>
        <polyline points="0,0 3,0" stroke-width="0.7" stroke="#333" transform="rotate(-216.92) translate(37 0)"/>

        <polyline points="0,0 3,0" stroke-width="0.7" stroke="#333" transform="rotate(-193.85) translate(37 0)"/>
        <!-- <polyline points="0,0 3,0" stroke-width="0.7" stroke="#333" transform="rotate(-170.77) translate(37 0)" /> -->

        <polyline points="0,0 3,0" stroke-width="0.7" stroke="#333" transform="rotate(-147.69) translate(37 0)"/>
        <!-- <polyline points="0,0 3,0" stroke-width="0.7" stroke="#333" transform="rotate(-124.62) translate(37 0)" /> -->

        <polyline points="0,0 3,0" stroke-width="0.7" stroke="#333" transform="rotate(-101.54) translate(37 0)"/>
        <polyline points="0,0 3,0" stroke-width="0.7" stroke="#333" transform="rotate(-78.46) translate(37 0)"/>

        <polyline points="0,0 3,0" stroke-width="0.7" stroke="#333" transform="rotate(-55.38) translate(37 0)"/>
        <polyline points="0,0 3,0" stroke-width="0.7" stroke="#333" transform="rotate(-32.31) translate(37 0)"/>

        <polyline points="0,0 3,0" stroke-width="0.7" stroke="#333" transform="rotate(-9.23) translate(37 0)"/>
        <polyline points="0,0 3,0" stroke-width="0.7" stroke="#333" transform="rotate(13.85) translate(37 0)"/>

        <polyline points="0,0 3,0" stroke-width="0.7" stroke="#333" transform="rotate(36.92) translate(37 0)"/>
        <polyline points="0,0 3,0" stroke-width="0.7" stroke="#333" transform="rotate(60) translate(37 0)"/>
      </g>
    </svg></g>

  <!-- <rect width="20" height="10" fill="#0f0" transform="translate(20 130)" /> -->
  <!-- <rect width="20" height="10" fill="#0f0" transform="translate(108 130)" /> -->
  <text font-size="6pt" letter-spacing="1px" transform="translate(34 133)">0V = C-3 = 2.04HZ</text>

  <g transform="translate(78 335)">
    <text font-size="6pt" letter-spacing="2px" transform="translate(9 6.1)">SLOW</text>
    <g transform="translate(40 -1.3)"><svg id="SLOW_PARAM">
      <g transform="translate(4.5 4.5)">
        <circle r="4" stroke-width="1" stroke="#00f" fill="#f00"/>
      </g>
    </svg></g>
  </g>

  <!-- <rect width="230" height="10" fill="#0f0" transform="translate(0 137)" /> -->
  <g transform="translate(10 163)">
    <!-- <polyline points="0,0 170,0" stroke="#0f0" stroke-width="1" fill="none" transform="translate(10 13)" /> -->
    <g transform="translate(10 0)">
      <g transform="translate(0 5)"><svg id="WAVE_PARAM">
      <g transform="translate(8 8)">
        <polyline points="-3,0 3,0" stroke-width="1" stroke="#00f"/>
        <polyline points="0,-3 0,3" stroke-width="1" stroke="#00f"/>
        <circle r="7.5" stroke-width="1" stroke="#00f" fill="none"/>
      </g>
    </svg></g>
      <!-- <rect width="60" height="60" fill="none" stroke="#0f0" transform="translate(-10 -30) translate(8 13)" /> -->
    </g>
    <g transform="translate(70 0)">
      <!-- <polyline points="0,0 170,0" stroke="#f00" stroke-width="1" fill="none" transform="translate(-10 -10)" /> -->
      <!-- <polyline points="0,0 170,0" stroke="#0f0" stroke-width="1" fill="none" transform="translate(-10 13)" /> -->
      <!-- <polyline points="0,0 0,170" stroke="#0f0" stroke-width="1" fill="none" transform="translate(33 -13)" /> -->
      <!-- <polyline points="0,0 170,0" stroke="#f00" stroke-width="1" fill="none" transform="translate(-10 33)" /> -->
      <text font-size="8pt" letter-spacing="2px" transform="translate(8 38) rotate(270)">SAM/PW</text>
      <g transform="translate(20 0)"><svg id="SAMPLE_PWM_PARAM">
      <g transform="translate(13 13)">
        <polyline points="-3,0 3,0" stroke-width="1" stroke="#00f"/>
        <polyline points="0,-3 0,3" stroke-width="1" stroke="#00f"/>
        <circle cx="0" cy="0" r="12.5" stroke-width="1" stroke="#00f" fill="none"/>
      </g>
    </svg></g>
    </g>
    <g transform="translate(80.5 -9.6)"><svg>
      <g transform="translate(22.5 22.5)">
        <g transform="rotate(-240) translate(15 0)">
          <text font-size="9.0pt" transform="translate(3 0) rotate(240) translate(-2.2 3.6)">-</text>
        </g>
        <g transform="rotate(-210) translate(15 0)">
          <polyline points="0,0 2.5,0" stroke-width="0.3" stroke="#333"/>
        </g>
        <g transform="rotate(-180) translate(15 0)">
          <polyline points="0,0 2.5,0" stroke-width="0.3" stroke="#333"/>
        </g>
        <g transform="rotate(-150) translate(15 0)">
          <polyline points="0,0 2.5,0" stroke-width="0.3" stroke="#333"/>
        </g>
        <g transform="rotate(-120) translate(15 0)">
          <polyline points="0,0 2.5,0" stroke-width="0.3" stroke="#333"/>
        </g>
        <g transform="rotate(-90) translate(15 0)">
          <text font-size="5.0pt" transform="translate(2 0) rotate(90) translate(-2 2)">0</text>
        </g>
        <g transform="rotate(-60) translate(15 0)">
          <polyline points="0,0 2.5,0" stroke-width="0.3" stroke="#333"/>
        </g>
        <g transform="rotate(-30) translate(15 0)">
          <polyline points="0,0 2.5,0" stroke-width="0.3" stroke="#333"/>
        </g>
        <g transform="rotate(0) translate(15 0)">
          <polyline points="0,0 2.5,0" stroke-width="0.3" stroke="#333"/>
        </g>
        <g transform="rotate(30) translate(15 0)">
          <polyline points="0,0 2.5,0" stroke-width="0.3" stroke="#333"/>
        </g>
        <g transform="rotate(60) translate(15 0)">
          <text font-size="5.0pt" transform="translate(3 0) rotate(-60) translate(-2 2)">+</text>
        </g>
      </g>
    </svg></g>
    <use xlink:href="#waves-eightfo" transform="translate(-2 -22)"/>
  </g>

  <!-- <rect width="230" height="10" fill="#0f0" transform="translate(0 203)" /> -->
  <g transform="translate(10 226)">
    <!-- <polyline points="0,0 170,0" stroke="#f00" stroke-width="1" fill="none" transform="translate(10 -10)" /> -->
    <!-- <polyline points="0,0 170,0" stroke="#0f0" stroke-width="1" fill="none" transform="translate(10 13)" /> -->
    <!-- <polyline points="0,0 0,170" stroke="#0f0" stroke-width="1" fill="none" transform="translate(43 -13)" /> -->
    <!-- <polyline points="0,0 170,0" stroke="#f00" stroke-width="1" fill="none" transform="translate(10 33)" /> -->
    <g transform="translate(10 0)">
      <text font-size="8pt" letter-spacing="2px" transform="translate(8 36.5) rotate(270)">OFFSET</text>
      <g transform="translate(20 0)"><svg id="OFFSET_PARAM">
      <g transform="translate(13 13)">
        <polyline points="-3,0 3,0" stroke-width="1" stroke="#00f"/>
        <polyline points="0,-3 0,3" stroke-width="1" stroke="#00f"/>
        <circle cx="0" cy="0" r="12.5" stroke-width="1" stroke="#00f" fill="none"/>
      </g>
    </svg></g>
    </g>
    <g transform="translate(20.5 -9.6)"><svg>
      <g transform="translate(22.5 22.5)">
        <g transform="rotate(-240) translate(15 0)">
          <text font-size="9.0pt" transform="translate(3 0) rotate(240) translate(-2.2 3.6)">-</text>
        </g>
        <g transform="rotate(-210) translate(15 0)">
          <polyline points="0,0 2.5,0" stroke-width="0.3" stroke="#333"/>
        </g>
        <g transform="rotate(-180) translate(15 0)">
          <polyline points="0,0 2.5,0" stroke-width="0.3" stroke="#333"/>
        </g>
        <g transform="rotate(-150) translate(15 0)">
          <polyline points="0,0 2.5,0" stroke-width="0.3" stroke="#333"/>
        </g>
        <g transform="rotate(-120) translate(15 0)">
          <polyline points="0,0 2.5,0" stroke-width="0.3" stroke="#333"/>
        </g>
        <g transform="rotate(-90) translate(15 0)">
          <text font-size="5.0pt" transform="translate(2 0) rotate(90) translate(-2 2)">0</text>
        </g>
        <g transform="rotate(-60) translate(15 0)">
          <polyline points="0,0 2.5,0" stroke-width="0.3" stroke="#333"/>
        </g>
        <g transform="rotate(-30) translate(15 0)">
          <polyline points="0,0 2.5,0" stroke-width="0.3" stroke="#333"/>
        </g>
        <g transform="rotate(0) translate(15 0)">
          <polyline points="0,0 2.5,0" stroke-width="0.3" stroke="#333"/>
        </g>
        <g transform="rotate(30) translate(15 0)">
          <polyline points="0,0 2.5,0" stroke-width="0.3" stroke="#333"/>
        </g>
        <g transform="rotate(60) translate(15 0)">
          <text font-size="5.0pt" transform="translate(3 0) rotate(-60) translate(-2 2)">+</text>
        </g>
      </g>
    </svg></g>
    <g transform="translate(70 0)">
      <text font-size="8pt" letter-spacing="2px" transform="translate(8 32) rotate(270)">SCALE</text>
      <g transform="translate(20 0)"><svg id="SCALE_PARAM">
      <g transform="translate(13 13)">
        <polyline points="-3,0 3,0" stroke-width="1" stroke="#00f"/>
        <polyline points="0,-3 0,3" stroke-width="1" stroke="#00f"/>
        <circle cx="0" cy="0" r="12.5" stroke-width="1" stroke="#00f" fill="none"/>
      </g>
    </svg></g>
    </g>
    <g transform="translate(80.5 -9.6)"><svg>
      <g transform="translate(22.5 22.5)">
        <text font-size="5.0pt" transform="rotate(-240) translate(18 0) rotate(240) translate(-2 2)">0</text>
        <polyline points="0,0 2.5,0" stroke-width="0.3" stroke="#333" transform="rotate(-210) translate(15 0)"/>
        <polyline points="0,0 2.5,0" stroke-width="0.3" stroke="#333" transform="rotate(-180) translate(15 0)"/>
        <polyline points="0,0 2.5,0" stroke-width="0.3" stroke="#333" transform="rotate(-150) translate(15 0)"/>
        <polyline points="0,0 2.5,0" stroke-width="0.3" stroke="#333" transform="rotate(-120) translate(15 0)"/>
        <polyline points="0,0 2.5,0" stroke-width="0.3" stroke="#333" transform="rotate(-90) translate(15 0)"/>
        <polyline points="0,0 2.5,0" stroke-width="0.3" stroke="#333" transform="rotate(-60) translate(15 0)"/>
        <polyline points="0,0 2.5,0" stroke-width="0.3" stroke="#333" transform="rotate(-30) translate(15 0)"/>
        <polyline points="0,0 2.5,0" stroke-width="0.3" stroke="#333" transform="rotate(0) translate(15 0)"/>
        <polyline points="0,0 2.5,0" stroke-width="0.3" stroke="#333" transform="rotate(30) translate(15 0)"/>
        <polyline points="0,0 3.5,0" stroke-width="1" stroke="#333" transform="rotate(60) translate(15 0)"/>
      </g>
    </svg></g>
  </g>

  <g transform="translate(137 32)">
    <g transform="translate(3 4)">
      <g transform="translate(0 0)">
        <g transform="translate(4 4)"><svg id="PHASE7_PARAM">
      <g transform="translate(8 8)">
        <polyline points="-3,0 3,0" stroke-width="1" stroke="#00f"/>
        <polyline points="0,-3 0,3" stroke-width="1" stroke="#00f"/>
        <circle r="7.5" stroke-width="1" stroke="#00f" fill="none"/>
      </g>
    </svg></g>
      </g>
      <g transform="translate(0 40)">
        <g transform="translate(4 4)"><svg id="PHASE6_PARAM">
      <g transform="translate(8 8)">
        <polyline points="-3,0 3,0" stroke-width="1" stroke="#00f"/>
        <polyline points="0,-3 0,3" stroke-width="1" stroke="#00f"/>
        <circle r="7.5" stroke-width="1" stroke="#00f" fill="none"/>
      </g>
    </svg></g>
      </g>
      <g transform="translate(0 80)">
        <g transform="translate(4 4)"><svg id="PHASE5_PARAM">
      <g transform="translate(8 8)">
        <polyline points="-3,0 3,0" stroke-width="1" stroke="#00f"/>
        <polyline points="0,-3 0,3" stroke-width="1" stroke="#00f"/>
        <circle r="7.5" stroke-width="1" stroke="#00f" fill="none"/>
      </g>
    </svg></g>
      </g>
      <g transform="translate(0 120)">
        <g transform="translate(4 4)"><svg id="PHASE4_PARAM">
      <g transform="translate(8 8)">
        <polyline points="-3,0 3,0" stroke-width="1" stroke="#00f"/>
        <polyline points="0,-3 0,3" stroke-width="1" stroke="#00f"/>
        <circle r="7.5" stroke-width="1" stroke="#00f" fill="none"/>
      </g>
    </svg></g>
      </g>

      <g transform="translate(0 160)">
        <g transform="translate(4 4)"><svg id="PHASE3_PARAM">
      <g transform="translate(8 8)">
        <polyline points="-3,0 3,0" stroke-width="1" stroke="#00f"/>
        <polyline points="0,-3 0,3" stroke-width="1" stroke="#00f"/>
        <circle r="7.5" stroke-width="1" stroke="#00f" fill="none"/>
      </g>
    </svg></g>
      </g>
      <g transform="translate(0 200)">
        <g transform="translate(4 4)"><svg id="PHASE2_PARAM">
      <g transform="translate(8 8)">
        <polyline points="-3,0 3,0" stroke-width="1" stroke="#00f"/>
        <polyline points="0,-3 0,3" stroke-width="1" stroke="#00f"/>
        <circle r="7.5" stroke-width="1" stroke="#00f" fill="none"/>
      </g>
    </svg></g>
      </g>
      <g transform="translate(0 240)">
        <g transform="translate(4 4)"><svg id="PHASE1_PARAM">
      <g transform="translate(8 8)">
        <polyline points="-3,0 3,0" stroke-width="1" stroke="#00f"/>
        <polyline points="0,-3 0,3" stroke-width="1" stroke="#00f"/>
        <circle r="7.5" stroke-width="1" stroke="#00f" fill="none"/>
      </g>
    </svg></g>
      </g>
      <g transform="translate(0 280)">
        <!-- <polyline points="0,0 200,0" stroke="#0f0" stroke-width="1" fill="none" transform="translate(0 12)" /> -->
        <g transform="translate(4 4)"><svg id="PHASE0_PARAM">
      <g transform="translate(8 8)">
        <polyline points="-3,0 3,0" stroke-width="1" stroke="#00f"/>
        <polyline points="0,-3 0,3" stroke-width="1" stroke="#00f"/>
        <circle r="7.5" stroke-width="1" stroke="#00f" fill="none"/>
      </g>
    </svg></g>
      </g>
    </g>
  </g>

  <g transform="translate(137 36)">
    <use xlink:href="#dial-phase-eightfo" transform="translate(3 0) translate(12 12) rotate(-225) translate(-20 -20)"/>
    <use xlink:href="#dial-phase-eightfo" transform="translate(3 40) translate(12 12) rotate(-180) translate(-20 -20)"/>
    <use xlink:href="#dial-phase-eightfo" transform="translate(3 80) translate(12 12) rotate(-135) translate(-20 -20)"/>
    <use xlink:href="#dial-phase-eightfo" transform="translate(3 120) translate(12 12) rotate(-90) translate(-20 -20)"/>

    <use xlink:href="#dial-phase-eightfo" transform="translate(3 160) translate(12 12) rotate(-45) translate(-20 -20)"/>
    <use xlink:href="#dial-phase-eightfo" transform="translate(3 200) translate(12 12) rotate(0) translate(-20 -20)"/>
    <use xlink:href="#dial-phase-eightfo" transform="translate(3 240) translate(12 12) rotate(45) translate(-20 -20)"/>
    <use xlink:href="#dial-phase-eightfo" transform="translate(3 280) translate(12 12) rotate(90) translate(-20 -20)"/>
  </g>

  <g transform="translate(176 32)">
    <rect width="30" height="328" rx="5" fill="#fafafa"/>
    <g transform="translate(3 4)">
      <g transform="translate(0 0)"><svg id="PHASE7_INPUT">
      <g transform="translate(12 12)">
        <circle cx="0" cy="0" r="5" stroke-width="1" stroke="#0f0" fill="#0f0"/>
        <circle cx="0" cy="0" r="10.5" stroke-width="3" stroke="#0f0" fill="none"/>
      </g>
    </svg></g>
      <g transform="translate(0 40)"><svg id="PHASE6_INPUT">
      <g transform="translate(12 12)">
        <circle cx="0" cy="0" r="5" stroke-width="1" stroke="#0f0" fill="#0f0"/>
        <circle cx="0" cy="0" r="10.5" stroke-width="3" stroke="#0f0" fill="none"/>
      </g>
    </svg></g>
      <g transform="translate(0 80)"><svg id="PHASE5_INPUT">
      <g transform="translate(12 12)">
        <circle cx="0" cy="0" r="5" stroke-width="1" stroke="#0f0" fill="#0f0"/>
        <circle cx="0" cy="0" r="10.5" stroke-width="3" stroke="#0f0" fill="none"/>
      </g>
    </svg></g>
      <g transform="translate(0 120)"><svg id="PHASE4_INPUT">
      <g transform="translate(12 12)">
        <circle cx="0" cy="0" r="5" stroke-width="1" stroke="#0f0" fill="#0f0"/>
        <circle cx="0" cy="0" r="10.5" stroke-width="3" stroke="#0f0" fill="none"/>
      </g>
    </svg></g>

      <g transform="translate(0 160)"><svg id="PHASE3_INPUT">
      <g transform="translate(12 12)">
        <circle cx="0" cy="0" r="5" stroke-width="1" stroke="#0f0" fill="#0f0"/>
        <circle cx="0" cy="0" r="10.5" stroke-width="3" stroke="#0f0" fill="none"/>
      </g>
    </svg></g>
      <g transform="translate(0 200)"><svg id="PHASE2_INPUT">
      <g transform="translate(12 12)">
        <circle cx="0" cy="0" r="5" stroke-width="1" stroke="#0f0" fill="#0f0"/>
        <circle cx="0" cy="0" r="10.5" stroke-width="3" stroke="#0f0" fill="none"/>
      </g>
    </svg></g>
      <g transform="translate(0 240)"><svg id="PHASE1_INPUT">
      <g transform="translate(12 12)">
        <circle cx="0" cy="0" r="5" stroke-width="1" stroke="#0f0" fill="#0f0"/>
        <circle cx="0" cy="0" r="10.5" stroke-width="3" stroke="#0f0" fill="none"/>
      </g>
    </svg></g>
      <g transform="translate(0 280)"><svg id="PHASE0_INPUT">
      <g transform="translate(12 12)">
        <circle cx="0" cy="0" r="5" stroke-width="1" stroke="#0f0" fill="#0f0"/>
        <circle cx="0" cy="0" r="10.5" stroke-width="3" stroke="#0f0" fill="none"/>
      </g>
    </svg></g>
    </g>
    <text font-size="6pt" letter-spacing="2px" transform="translate(8 320)">CV</text>
  </g>

  <g transform="translate(215 32)">
    <rect width="30" height="328" rx="5" fill="#bbb"/>
    <g transform="translate(3 4)">
      <g transform="translate(0 0)"><svg id="PHASE7_OUTPUT">
      <g transform="translate(12 12)">
        <circle cx="0" cy="0" r="5" stroke-width="1" stroke="#f00" fill="#f00"/>
        <circle cx="0" cy="0" r="10.5" stroke-width="3" stroke="#f00" fill="none"/>
      </g>
    </svg></g>
      <g transform="translate(0 40)"><svg id="PHASE6_OUTPUT">
      <g transform="translate(12 12)">
        <circle cx="0" cy="0" r="5" stroke-width="1" stroke="#f00" fill="#f00"/>
        <circle cx="0" cy="0" r="10.5" stroke-width="3" stroke="#f00" fill="none"/>
      </g>
    </svg></g>
      <g transform="translate(0 80)"><svg id="PHASE5_OUTPUT">
      <g transform="translate(12 12)">
        <circle cx="0" cy="0" r="5" stroke-width="1" stroke="#f00" fill="#f00"/>
        <circle cx="0" cy="0" r="10.5" stroke-width="3" stroke="#f00" fill="none"/>
      </g>
    </svg></g>
      <g transform="translate(0 120)"><svg id="PHASE4_OUTPUT">
      <g transform="translate(12 12)">
        <circle cx="0" cy="0" r="5" stroke-width="1" stroke="#f00" fill="#f00"/>
        <circle cx="0" cy="0" r="10.5" stroke-width="3" stroke="#f00" fill="none"/>
      </g>
    </svg></g>

      <g transform="translate(0 160)"><svg id="PHASE3_OUTPUT">
      <g transform="translate(12 12)">
        <circle cx="0" cy="0" r="5" stroke-width="1" stroke="#f00" fill="#f00"/>
        <circle cx="0" cy="0" r="10.5" stroke-width="3" stroke="#f00" fill="none"/>
      </g>
    </svg></g>
      <g transform="translate(0 200)"><svg id="PHASE2_OUTPUT">
      <g transform="translate(12 12)">
        <circle cx="0" cy="0" r="5" stroke-width="1" stroke="#f00" fill="#f00"/>
        <circle cx="0" cy="0" r="10.5" stroke-width="3" stroke="#f00" fill="none"/>
      </g>
    </svg></g>
      <g transform="translate(0 240)"><svg id="PHASE1_OUTPUT">
      <g transform="translate(12 12)">
        <circle cx="0" cy="0" r="5" stroke-width="1" stroke="#f00" fill="#f00"/>
        <circle cx="0" cy="0" r="10.5" stroke-width="3" stroke="#f00" fill="none"/>
      </g>
    </svg></g>
      <g transform="translate(0 280)"><svg id="PHASE0_OUTPUT">
      <g transform="translate(12 12)">
        <circle cx="0" cy="0" r="5" stroke-width="1" stroke="#f00" fill="#f00"/>
        <circle cx="0" cy="0" r="10.5" stroke-width="3" stroke="#f00" fill="none"/>
      </g>
    </svg></g>
    </g>
    <text font-size="6pt" letter-spacing="2px" transform="translate(5 320)">OUT</text>
  </g>

  <!-- <polyline points="0,0 0,360" stroke="#0f0" stroke-width="1" fill="none" transform="translate(135 0)" /> -->
  <!-- <polyline points="0,0 270,0" stroke="#0f0" stroke-width="1" fill="none" transform="translate(0 360)" /> -->
  <!-- <rect width="230" height="10" fill="#0f0" transform="translate(0 263)" /> -->
  <g transform="translate(0 313)">
    <rect width="70" height="87" rx="5" fill="#fafafa" transform="translate(10 -40)"/>
    <rect width="108" height="43" rx="5" fill="#fafafa" transform="translate(10 -40)"/>
    <!-- <rect width="300" height="7" fill="#f00" transform="translate(10 40)" /> -->
    <g transform="translate(10 -40)">
      <!-- <rect width="30" height="40" rx="5" fill="#fafafa" /> -->
      <g transform="translate(4 4)"><svg id="SAMPLE_PWM_INPUT">
      <g transform="translate(12 12)">
        <circle cx="0" cy="0" r="5" stroke-width="1" stroke="#0f0" fill="#0f0"/>
        <circle cx="0" cy="0" r="10.5" stroke-width="3" stroke="#0f0" fill="none"/>
      </g>
    </svg></g>
      <text font-size="6pt" letter-spacing="1px" transform="translate(4 38)">S/PW</text>
    </g>
    <g transform="translate(50 -40)">
      <!-- <rect width="30" height="40" rx="5" fill="#fafafa" /> -->
      <g transform="translate(2 4)"><svg id="OFFSET_INPUT">
      <g transform="translate(12 12)">
        <circle cx="0" cy="0" r="5" stroke-width="1" stroke="#0f0" fill="#0f0"/>
        <circle cx="0" cy="0" r="10.5" stroke-width="3" stroke="#0f0" fill="none"/>
      </g>
    </svg></g>
      <text font-size="6pt" letter-spacing="2px" transform="translate(4.5 38)">OFF</text>
    </g>
    <g transform="translate(90 -40)">
      <!-- <rect width="30" height="40" rx="5" fill="#fafafa" /> -->
      <g transform="translate(0 4)"><svg id="SCALE_INPUT">
      <g transform="translate(12 12)">
        <circle cx="0" cy="0" r="5" stroke-width="1" stroke="#0f0" fill="#0f0"/>
        <circle cx="0" cy="0" r="10.5" stroke-width="3" stroke="#0f0" fill="none"/>
      </g>
    </svg></g>
      <text font-size="6pt" letter-spacing="2px" transform="translate(2.5 38)">SCL</text>
    </g>
    <g transform="translate(10 0)">
      <!-- <rect width="30" height="47" rx="5" fill="#fafafa" /> -->
      <g transform="translate(4 5)"><svg id="PITCH_INPUT">
      <g transform="translate(12 12)">
        <circle cx="0" cy="0" r="5" stroke-width="1" stroke="#0f0" fill="#0f0"/>
        <circle cx="0" cy="0" r="10.5" stroke-width="3" stroke="#0f0" fill="none"/>
      </g>
    </svg></g>
      <text font-size="6pt" letter-spacing="1px" transform="translate(2 40)">V/OCT</text>
    </g>
    <g transform="translate(50 0)">
      <!-- <rect width="30" height="47" rx="5" fill="#fafafa" /> -->
      <g transform="translate(2 5)"><svg id="RESET_INPUT">
      <g transform="translate(12 12)">
        <circle cx="0" cy="0" r="5" stroke-width="1" stroke="#0f0" fill="#0f0"/>
        <circle cx="0" cy="0" r="10.5" stroke-width="3" stroke="#0f0" fill="none"/>
      </g>
    </svg></g>
      <text font-size="6pt" letter-spacing="1px" transform="translate(0 40)">RESET</text>
    </g>
  </g>
</svg>
