<?xml version="1.0"?>
<svg xmlns="http://www.w3.org/2000/svg" xmlns:xlink="http://www.w3.org/1999/xlink" version="1.1" width="45" height="380" viewBox="0 0 45 380">
  <style>text {
  fill: #333;
  font-family: 'Roboto', sans-serif;
  font-weight: bold;
}
text.title {
  font-family: 'Comfortaa', sans-serif;
  font-weight: normal;
}
text.brand {
  font-family: 'Audiowide', sans-serif;
  font-weight: bold;
}
</style>

  <defs>
    <symbol id="knob29" viewBox="0 0 45px 45px">
      <g transform="translate(22.5 22.5)">
        <polyline points="-5,0 5,0" stroke-width="1" stroke="#00f"/>
        <polyline points="0,-5 0,5" stroke-width="1" stroke="#00f"/>
        <circle cx="0" cy="0" r="14" stroke-width="1" stroke="#00f" fill="none"/>
      </g>
    </symbol>
    <symbol id="input" viewBox="0 0 24px 24px">
      <g transform="translate(12 12)">
        <circle cx="0" cy="0" r="5" stroke-width="1" stroke="#0f0" fill="#0f0"/>
        <circle cx="0" cy="0" r="10.5" stroke-width="3" stroke="#0f0" fill="none"/>
      </g>
    </symbol>
    <symbol id="output" viewBox="0 0 24px 24px">
      <g transform="translate(12 12)">
        <circle cx="0" cy="0" r="5" stroke-width="1" stroke="#f00" fill="#f00"/>
        <circle cx="0" cy="0" r="10.5" stroke-width="3" stroke="#f00" fill="none"/>
      </g>
    </symbol>

    <symbol id="dial-eq-eq" viewBox="0 0 45px 45px">
      <g transform="translate(22.5 22.5)">
        <text font-size="5.0pt" transform="rotate(-240) translate(20 0) rotate(240) translate(-6 3)">-36</text>
        <polyline points="0,0 2.5,0" stroke-width="0.3" stroke="#333" transform="rotate(-215) translate(17 0)"/>
        <polyline points="0,0 3,0" stroke-width="0.7" stroke="#333" transform="rotate(-190) translate(17 0)"/>
        <polyline points="0,0 2.5,0" stroke-width="0.3" stroke="#333" transform="rotate(-165) translate(17 0)"/>
        <polyline points="0,0 3,0" stroke-width="0.7" stroke="#333" transform="rotate(-140) translate(17 0)"/>
        <polyline points="0,0 2.5,0" stroke-width="0.3" stroke="#333" transform="rotate(-115) translate(17 0)"/>
        <text font-size="5.0pt" transform="rotate(-90) translate(20 0) rotate(90) translate(-1.9 3)">0</text>
        <polyline points="0,0 2.5,0" stroke-width="0.3" stroke="#333" transform="rotate(-52.5) translate(17 0)"/>
        <polyline points="0,0 3,0" stroke-width="0.7" stroke="#333" transform="rotate(-15) translate(17 0)"/>
        <polyline points="0,0 2.5,0" stroke-width="0.3" stroke="#333" transform="rotate(22.5) translate(17 0)"/>
        <text font-size="5.0pt" transform="rotate(60) translate(20 0) rotate(-60) translate(-3.5 3)">12</text>
        <text font-size="5.0pt" transform="rotate(90) translate(20 0) rotate(-90) translate(-4 3)">dB</text>
      </g>
    </symbol>
  </defs>

  <rect width="100%" height="100%" fill="#ddd"/>
  <polyline points="1,1 44,1 44,379 1,379 1,1" stroke="#e4e4e4" stroke-width="0.5" fill="none"/>
  <polyline points="0.5,0.5 44.5,0.5 44.5,379.5 0.5,379.5 0.5,0.5" stroke="#ebebeb" stroke-width="0.8" fill="none"/>
  <polyline points="0,0 45,0 45,380 0,380 0,0" stroke="#f2f2f2" stroke-width="1" fill="none"/>

  <g transform="rotate(-90) translate(-376 13)">
    <text class="title" font-size="7pt" letter-spacing="2.5px">EQ</text>
    <g transform="translate(0 12)">
      <text class="brand" font-size="7pt" letter-spacing="2px">BGA</text>
      <rect width="3.0" height="3" fill="#ddd" transform="translate(11.5 -5)"/>
    </g>
  </g>

  <g transform="translate(0 36)">
    <text font-size="6pt" letter-spacing="2.0px" transform="translate(12.5 0)">LOW</text>
    <use id="LOW_PARAM" xlink:href="#knob29" transform="translate(0 3)"/>
    <use xlink:href="#dial-eq-eq" transform="translate(0 3)"/>
    <!-- <rect width="45" height="24" fill="#f0f" transform="translate(0 48)" /> -->
  </g>

  <g transform="translate(0 114)">
    <text font-size="6pt" letter-spacing="2.0px" transform="translate(13.5 0)">MID</text>
    <use id="MID_PARAM" xlink:href="#knob29" transform="translate(0 3)"/>
    <use xlink:href="#dial-eq-eq" transform="translate(0 3)"/>
    <!-- <rect width="45" height="24" fill="#f0f" transform="translate(0 48)" /> -->
  </g>

  <g transform="translate(0 192)">
    <text font-size="6pt" letter-spacing="2.0px" transform="translate(10 0)">HIGH</text>
    <use id="HIGH_PARAM" xlink:href="#knob29" transform="translate(0 3)"/>
    <use xlink:href="#dial-eq-eq" transform="translate(0 3)"/>
    <!-- <rect width="45" height="24" fill="#f0f" transform="translate(0 48)" /> -->
  </g>

  <g transform="translate(0 264)">
    <g transform="translate(5.5 0)">
      <rect width="34" height="10" fill="#fafafa" transform="translate(0 28)"/>
      <rect width="34" height="35" rx="5" fill="#fafafa"/>
      <use id="IN_INPUT" xlink:href="#input" transform="translate(5 3)"/>
      <text font-size="5pt" letter-spacing="2px" transform="translate(12.5 35)">IN</text>
    </g>
    <g transform="translate(5.5 41)">
      <rect width="34" height="10" fill="#bbb" transform="translate(0 -3)"/>
      <rect width="34" height="35" rx="5" fill="#bbb"/>
      <use id="OUT_OUTPUT" xlink:href="#output" transform="translate(5 0)"/>
      <text font-size="5pt" letter-spacing="2px" transform="translate(8.3 32)">OUT</text>
    </g>
  </g>
</svg>
