<?xml version="1.0"?>
<svg xmlns="http://www.w3.org/2000/svg" xmlns:xlink="http://www.w3.org/1999/xlink" version="1.1" width="120" height="380" viewBox="0 0 120 380">
  <style>text {
  fill: #333;
  font-family: 'Roboto', sans-serif;
  font-weight: bold;
}
text.title {
  font-family: 'Comfortaa', sans-serif;
  font-weight: normal;
}
text.brand {
  font-family: 'Audiowide', sans-serif;
  font-weight: bold;
}
</style>

  <defs>
    <symbol id="knob26" viewBox="0 0 26px 26px">
      <g transform="translate(13 13)">
        <polyline points="-3,0 3,0" stroke-width="1" stroke="#00f"/>
        <polyline points="0,-3 0,3" stroke-width="1" stroke="#00f"/>
        <circle cx="0" cy="0" r="12.5" stroke-width="1" stroke="#00f" fill="none"/>
      </g>
    </symbol>
    <symbol id="knob16" viewBox="0 0 16px 16px">
      <g transform="translate(8 8)">
        <polyline points="-3,0 3,0" stroke-width="1" stroke="#00f"/>
        <polyline points="0,-3 0,3" stroke-width="1" stroke="#00f"/>
        <circle r="7.5" stroke-width="1" stroke="#00f" fill="none"/>
      </g>
    </symbol>
    <symbol id="dial-linear" viewBox="0 0 45px 45px">
      <g transform="translate(22.5 22.5)">
        <text font-size="5.0pt" transform="rotate(-240) translate(18 0) rotate(240) translate(-2 2)">0</text>
        <polyline points="0,0 2.5,0" stroke-width="0.3" stroke="#333" transform="rotate(-210) translate(15 0)"/>
        <polyline points="0,0 2.5,0" stroke-width="0.3" stroke="#333" transform="rotate(-180) translate(15 0)"/>
        <polyline points="0,0 2.5,0" stroke-width="0.3" stroke="#333" transform="rotate(-150) translate(15 0)"/>
        <polyline points="0,0 2.5,0" stroke-width="0.3" stroke="#333" transform="rotate(-120) translate(15 0)"/>
        <polyline points="0,0 2.5,0" stroke-width="0.3" stroke="#333" transform="rotate(-90) translate(15 0)"/>
        <polyline points="0,0 2.5,0" stroke-width="0.3" stroke="#333" transform="rotate(-60) translate(15 0)"/>
        <polyline points="0,0 2.5,0" stroke-width="0.3" stroke="#333" transform="rotate(-30) translate(15 0)"/>
        <polyline points="0,0 2.5,0" stroke-width="0.3" stroke="#333" transform="rotate(0) translate(15 0)"/>
        <polyline points="0,0 2.5,0" stroke-width="0.3" stroke="#333" transform="rotate(30) translate(15 0)"/>
        <polyline points="0,0 3.5,0" stroke-width="1" stroke="#333" transform="rotate(60) translate(15 0)"/>
      </g>
    </symbol>
    <symbol id="dial-centertick" viewBox="0 0 40px 40px">
      <g transform="translate(20 20)">
        <g transform="rotate(-90) translate(10 0)">
          <polyline points="0,0 4,0" stroke-width="1" stroke="#333"/>
        </g>
        <path d="M 0 -12.5 A 12.5 12.5 0 0 1 12.5 0" stroke="#333" stroke-width="0.5" stroke-linecap="round" fill="none" transform="rotate(20)"/>
        <path d="M 0 -12.5 A 12.5 12.5 0 0 1 12.5 0" stroke="#333" stroke-width="0.5" stroke-linecap="round" fill="none" transform="rotate(43)"/>
        <path d="M 0 -12.5 A 12.5 12.5 0 0 0 -12.5 0" stroke="#333" stroke-width="0.5" stroke-linecap="round" fill="none" transform="rotate(-20)"/>
        <path d="M 0 -12.5 A 12.5 12.5 0 0 0 -12.5 0" stroke="#333" stroke-width="0.5" stroke-linecap="round" fill="none" transform="rotate(-43)"/>
      </g>
    </symbol>
    <symbol id="input" viewBox="0 0 24px 24px">
      <g transform="translate(12 12)">
        <circle cx="0" cy="0" r="5" stroke-width="1" stroke="#0f0" fill="#0f0"/>
        <circle cx="0" cy="0" r="10.5" stroke-width="3" stroke="#0f0" fill="none"/>
      </g>
    </symbol>
    <symbol id="output" viewBox="0 0 24px 24px">
      <g transform="translate(12 12)">
        <circle cx="0" cy="0" r="5" stroke-width="1" stroke="#f00" fill="#f00"/>
        <circle cx="0" cy="0" r="10.5" stroke-width="3" stroke="#f00" fill="none"/>
      </g>
    </symbol>
    <symbol id="light-small" viewBox="0 0 6.4px 6.4px">
      <rect width="6.4" height="6.4" fill="#0f0"/>
    </symbol>
  </defs>

  <rect width="100%" height="100%" fill="#ddd"/>
  <polyline points="1,1 119,1 119,379 1,379 1,1" stroke="#e4e4e4" stroke-width="0.5" fill="none"/>
  <polyline points="0.5,0.5 119.5,0.5 119.5,379.5 0.5,379.5 0.5,0.5" stroke="#ebebeb" stroke-width="0.8" fill="none"/>
  <polyline points="0,0 120,0 120,380 0,380 0,0" stroke="#f2f2f2" stroke-width="1" fill="none"/>

  <text class="title" x="82" y="17" font-size="9pt" letter-spacing="3px">FFB</text>
  <g transform="translate(5.5 374)">
    <text class="brand" font-size="6.5pt" letter-spacing="2px">BOGAUDIO</text>
    <rect width="1.5" height="2" fill="#ddd" transform="translate(21 -4)"/>
  </g>
  <!-- <rect width="120" height="254" fill="#0ff" transform="translate(0 24)" /> -->

  <g transform="translate(1.5 24)">
    <!-- <rect width="38" height="44" fill="#f0f" transform="translate(0 0)" /> -->
    <text font-size="6pt" letter-spacing="2px" transform="translate(10 6)">125</text>
    <use id="BAND_1_PARAM" xlink:href="#knob26" transform="translate(6 13.5)"/>
    <use xlink:href="#dial-linear" transform="translate(-3.5 4)"/>
    <!-- <use id="BAND_1_LIGHT" xlink:href="#light-small" transform="translate(1 8.5)" /> -->
  </g>
  <g transform="translate(41 24)">
    <text font-size="6pt" letter-spacing="2px" transform="translate(10 6)">500</text>
    <use id="BAND_5_PARAM" xlink:href="#knob26" transform="translate(6 13.5)"/>
    <use xlink:href="#dial-linear" transform="translate(-3.5 4)"/>
    <!-- <use id="BAND_5_LIGHT" xlink:href="#light-small" transform="translate(1 8.5)" /> -->
  </g>
  <g transform="translate(80.5 24)">
    <text font-size="6pt" letter-spacing="2px" transform="translate(7 6)">2000</text>
    <use id="BAND_9_PARAM" xlink:href="#knob26" transform="translate(6 13.5)"/>
    <use xlink:href="#dial-linear" transform="translate(-3.5 4)"/>
    <!-- <use id="BAND_9_LIGHT" xlink:href="#light-small" transform="translate(1 8.5)" /> -->
  </g>

  <g transform="translate(1.5 75)">
    <text font-size="6pt" letter-spacing="2px" transform="translate(10 6)">175</text>
    <use id="BAND_2_PARAM" xlink:href="#knob26" transform="translate(6 13.5)"/>
    <use xlink:href="#dial-linear" transform="translate(-3.5 4)"/>
    <!-- <use id="BAND_2_LIGHT" xlink:href="#light-small" transform="translate(1 8.5)" /> -->
  </g>
  <g transform="translate(41 75)">
    <text font-size="6pt" letter-spacing="2px" transform="translate(10 6)">700</text>
    <use id="BAND_6_PARAM" xlink:href="#knob26" transform="translate(6 13.5)"/>
    <use xlink:href="#dial-linear" transform="translate(-3.5 4)"/>
    <!-- <use id="BAND_6_LIGHT" xlink:href="#light-small" transform="translate(1 8.5)" /> -->
  </g>
  <g transform="translate(80.5 75)">
    <text font-size="6pt" letter-spacing="2px" transform="translate(7 6)">2800</text>
    <use id="BAND_10_PARAM" xlink:href="#knob26" transform="translate(6 13.5)"/>
    <use xlink:href="#dial-linear" transform="translate(-3.5 4)"/>
    <!-- <use id="BAND_10_LIGHT" xlink:href="#light-small" transform="translate(1 8.5)" /> -->
  </g>

  <g transform="translate(1.5 126)">
    <text font-size="6pt" letter-spacing="2px" transform="translate(10 6)">250</text>
    <use id="BAND_3_PARAM" xlink:href="#knob26" transform="translate(6 13.5)"/>
    <use xlink:href="#dial-linear" transform="translate(-3.5 4)"/>
    <!-- <use id="BAND_3_LIGHT" xlink:href="#light-small" transform="translate(1 8.5)" /> -->
  </g>
  <g transform="translate(41 126)">
    <text font-size="6pt" letter-spacing="2px" transform="translate(6.5 6)">1000</text>
    <use id="BAND_7_PARAM" xlink:href="#knob26" transform="translate(6 13.5)"/>
    <use xlink:href="#dial-linear" transform="translate(-3.5 4)"/>
    <!-- <use id="BAND_7_LIGHT" xlink:href="#light-small" transform="translate(1 8.5)" /> -->
  </g>
  <g transform="translate(80.5 126)">
    <text font-size="6pt" letter-spacing="2px" transform="translate(6.5 6)">4000</text>
    <use id="BAND_11_PARAM" xlink:href="#knob26" transform="translate(6 13.5)"/>
    <use xlink:href="#dial-linear" transform="translate(-3.5 4)"/>
    <!-- <use id="BAND_11_LIGHT" xlink:href="#light-small" transform="translate(1 8.5)" /> -->
  </g>

  <g transform="translate(1.5 177)">
    <text font-size="6pt" letter-spacing="2px" transform="translate(10 6)">350</text>
    <use id="BAND_4_PARAM" xlink:href="#knob26" transform="translate(6 13.5)"/>
    <use xlink:href="#dial-linear" transform="translate(-3.5 4)"/>
    <!-- <use id="BAND_4_LIGHT" xlink:href="#light-small" transform="translate(1 8.5)" /> -->
  </g>
  <g transform="translate(41 177)">
    <text font-size="6pt" letter-spacing="2px" transform="translate(6.5 6)">1400</text>
    <use id="BAND_8_PARAM" xlink:href="#knob26" transform="translate(6 13.5)"/>
    <use xlink:href="#dial-linear" transform="translate(-3.5 4)"/>
    <!-- <use id="BAND_8_LIGHT" xlink:href="#light-small" transform="translate(1 8.5)" /> -->
  </g>
  <g transform="translate(80.5 177)">
    <text font-size="6pt" letter-spacing="2px" transform="translate(7 6)">5600</text>
    <use id="BAND_12_PARAM" xlink:href="#knob26" transform="translate(6 13.5)"/>
    <use xlink:href="#dial-linear" transform="translate(-3.5 4)"/>
    <!-- <use id="BAND_12_LIGHT" xlink:href="#light-small" transform="translate(1 8.5)" /> -->
  </g>

  <g transform="translate(1.5 228)">
    <text font-size="6pt" letter-spacing="2px" transform="translate(13.5 6)">LP</text>
    <use id="LOWPASS_PARAM" xlink:href="#knob26" transform="translate(6 13.5)"/>
    <use xlink:href="#dial-linear" transform="translate(-3.5 4)"/>
    <!-- <use id="LOWWPASS_LIGHT" xlink:href="#light-small" transform="translate(1 8.5)" /> -->
  </g>
  <g transform="translate(41 228)">
    <text font-size="6pt" letter-spacing="2px" transform="translate(6 6)">FREQ</text>
    <use id="CV_PARAM" xlink:href="#knob16" transform="translate(11 18.5)"/>
    <use xlink:href="#dial-centertick" transform="translate(-1 6.5)"/>
  </g>
  <g transform="translate(80.5 228)">
    <text font-size="6pt" letter-spacing="2px" transform="translate(12.5 6)">HP</text>
    <use id="HIGHPASS_PARAM" xlink:href="#knob26" transform="translate(6 13.5)"/>
    <use xlink:href="#dial-linear" transform="translate(-3.5 4)"/>
    <!-- <use id="HIGHPASS_LIGHT" xlink:href="#light-small" transform="translate(1 8.5)" /> -->
  </g>

  <g transform="translate(28.5 278)">
    <rect width="63" height="43" rx="5" fill="#fafafa"/>
    <rect width="63" height="10" fill="#fafafa" transform="translate(0 33)"/>
    <g transform="translate(1 0)">
      <use id="IN_INPUT" xlink:href="#input" transform="translate(3 4)"/>
      <text font-size="6pt" letter-spacing="2px" transform="translate(10 39)">IN</text>
    </g>
    <g transform="translate(32 0)">
      <use id="CV_INPUT" xlink:href="#input" transform="translate(3 4)"/>
      <text font-size="6pt" letter-spacing="2px" transform="translate(5.5 39)">FCV</text>
    </g>
  </g>
  <g transform="translate(13 320)">
    <rect width="94" height="43" rx="5" fill="#bbb"/>
    <g transform="translate(1 0)">
      <use id="ALL_OUTPUT" xlink:href="#output" transform="translate(3 4)"/>
      <text font-size="6pt" letter-spacing="2px" transform="translate(6 39)">ALL</text>
    </g>
    <g transform="translate(32 0)">
      <use id="ODD_OUTPUT" xlink:href="#output" transform="translate(3 4)"/>
      <text font-size="6pt" letter-spacing="2px" transform="translate(5 39)">ODD</text>
    </g>
    <g transform="translate(63 0)">
      <use id="EVEN_OUTPUT" xlink:href="#output" transform="translate(3 4)"/>
      <text font-size="6pt" letter-spacing="1.5px" transform="translate(3 39)">EVEN</text>
    </g>
  </g>
</svg>
