<?xml version="1.0"?>
<svg xmlns="http://www.w3.org/2000/svg" xmlns:xlink="http://www.w3.org/1999/xlink" version="1.1" width="150" height="380" viewBox="0 0 150 380">
  <style>text {
  fill: #333;
  font-family: 'Roboto', sans-serif;
  font-weight: bold;
}
text.title {
  font-family: 'Comfortaa', sans-serif;
  font-weight: normal;
}
text.brand {
  font-family: 'Audiowide', sans-serif;
  font-weight: bold;
}
</style>

  <defs>
    <symbol id="dial-ratio-fmop" viewBox="0 0 88px 78px">
      <g transform="translate(49 39)">
        <g transform="rotate(-240) translate(19 0)">
          <polyline points="0,0 5,0" stroke-width="1" stroke="#333" transform="translate(3 0)"/>
          <text font-size="7.0pt" transform="translate(14 0) rotate(240) translate(-11 3.5)">.01</text>
        </g>

        <polyline points="0,0 3,0" stroke-width="0.7" stroke="#333" transform="rotate(-225) translate(22 0)"/>
        <polyline points="0,0 3,0" stroke-width="0.7" stroke="#333" transform="rotate(-210) translate(22 0)"/>
        <polyline points="0,0 3,0" stroke-width="0.7" stroke="#333" transform="rotate(-195) translate(22 0)"/>
        <polyline points="0,0 3,0" stroke-width="0.7" stroke="#333" transform="rotate(-180) translate(22 0)"/>

        <g transform="rotate(-165) translate(19 0)">
          <polyline points="0,0 5,0" stroke-width="1" stroke="#333" transform="translate(3 0)"/>
          <text font-size="7.0pt" transform="translate(14 0) rotate(165) translate(-5.5 3.5)">.5</text>
        </g>

        <polyline points="0,0 3,0" stroke-width="0.7" stroke="#333" transform="rotate(-150) translate(22 0)"/>
        <polyline points="0,0 3,0" stroke-width="0.7" stroke="#333" transform="rotate(-135) translate(22 0)"/>
        <polyline points="0,0 3,0" stroke-width="0.7" stroke="#333" transform="rotate(-120) translate(22 0)"/>
        <polyline points="0,0 3,0" stroke-width="0.7" stroke="#333" transform="rotate(-105) translate(22 0)"/>

        <g transform="rotate(-90) translate(19 0)">
          <polyline points="0,0 5,0" stroke-width="1" stroke="#333" transform="translate(3 0)"/>
          <text font-size="7.0pt" transform="translate(14 0) rotate(90) translate(-2.7 3.5)">1</text>
        </g>

        <polyline points="0,0 3,0" stroke-width="0.7" stroke="#333" transform="rotate(-73.33) translate(22 0)"/>
        <polyline points="0,0 3,0" stroke-width="0.7" stroke="#333" transform="rotate(-56.67) translate(22 0)"/>
        <polyline points="0,0 3,0" stroke-width="0.7" stroke="#333" transform="rotate(-40) translate(22 0)"/>

        <g transform="rotate(-23.33) translate(19 0)">
          <polyline points="0,0 5,0" stroke-width="1" stroke="#333" transform="translate(3 0)"/>
          <text font-size="7.0pt" transform="translate(14 0) rotate(23.33) translate(-2.7 3.5)">5</text>
        </g>

        <polyline points="0,0 3,0" stroke-width="0.7" stroke="#333" transform="rotate(-6.67) translate(22 0)"/>
        <polyline points="0,0 3,0" stroke-width="0.7" stroke="#333" transform="rotate(10) translate(22 0)"/>
        <polyline points="0,0 3,0" stroke-width="0.7" stroke="#333" transform="rotate(26.67) translate(22 0)"/>
        <polyline points="0,0 3,0" stroke-width="0.7" stroke="#333" transform="rotate(43.33) translate(22 0)"/>

        <g transform="rotate(60) translate(19 0)">
          <polyline points="0,0 5,0" stroke-width="1" stroke="#333" transform="translate(3 0)"/>
          <text font-size="7.0pt" transform="translate(14 0) rotate(-60) translate(-3 3.5)">10</text>
        </g>
      </g>
    </symbol>

    <symbol id="dial-time-fmop" viewBox="0 0 45px 45px">
      <g transform="translate(22.5 22.5)">
        <g transform="rotate(-240) translate(15 0)">
          <text font-size="5.0pt" transform="translate(3 0) rotate(240) translate(-2.2 2.2)">0</text>
        </g>
        <g transform="rotate(-172.92) translate(15 0)">
          <polyline points="0,0 1.5,0" stroke-width="0.3" stroke="#333"/>
        </g>
        <g transform="rotate(-145.13) translate(15 0)">
          <text font-size="5.0pt" transform="translate(3 0) rotate(145.13) translate(-2.2 2.2)">1</text>
        </g>
        <g transform="rotate(-105.84) translate(15 0)">
          <polyline points="0,0 2.5,0" stroke-width="0.3" stroke="#333"/>
        </g>
        <g transform="rotate(-75.68) translate(15 0)">
          <polyline points="0,0 2.5,0" stroke-width="0.3" stroke="#333"/>
        </g>
        <g transform="rotate(-50.26) translate(15 0)">
          <polyline points="0,0 2.5,0" stroke-width="0.3" stroke="#333"/>
        </g>
        <g transform="rotate(-27.87) translate(15 0)">
          <text font-size="5.0pt" transform="translate(3 0) rotate(27.87) translate(-2.2 2.2)">5</text>
        </g>
        <g transform="rotate(-7.62) translate(15 0)">
          <polyline points="0,0 2.5,0" stroke-width="0.3" stroke="#333"/>
        </g>
        <g transform="rotate(11) translate(15 0)">
          <polyline points="0,0 2.5,0" stroke-width="0.3" stroke="#333"/>
        </g>
        <g transform="rotate(28.33) translate(15 0)">
          <polyline points="0,0 2.5,0" stroke-width="0.3" stroke="#333"/>
        </g>
        <g transform="rotate(44.6) translate(15 0)">
          <polyline points="0,0 2.5,0" stroke-width="0.3" stroke="#333"/>
        </g>
        <g transform="rotate(60) translate(16 0)">
          <text font-size="5.0pt" transform="translate(3 0) rotate(-60) translate(-5 2.2)">10</text>
        </g>
      </g>
    </symbol>
  </defs>

  <rect width="100%" height="100%" fill="#ddd"/>
  <polyline points="1,1 149,1 149,379 1,379 1,1" stroke="#e4e4e4" stroke-width="0.5" fill="none"/>
  <polyline points="0.5,0.5 149.5,0.5 149.5,379.5 0.5,379.5 0.5,0.5" stroke="#ebebeb" stroke-width="0.8" fill="none"/>
  <polyline points="0,0 150,0 150,380 0,380 0,0" stroke="#f2f2f2" stroke-width="1" fill="none"/>

  <!-- <rect width="35" height="20" fill="#0f0" transform="translate(0 0)" /> -->
  <!-- <rect width="35" height="20" fill="#0f0" transform="translate(115 0)" /> -->

  <!-- <polyline points="0,50 0,380" stroke="#0f0" stroke-width="1" fill="none" transform="translate(120 0)" /> -->

  <text class="title" x="39" y="19" font-size="12pt" letter-spacing="4px">FM-OP</text>
  <g transform="translate(35.5 374)">
    <text class="brand" font-size="8pt" letter-spacing="2px">BOGAUDIO</text>
    <rect width="3.0" height="3" fill="#ddd" transform="translate(24 -5)"/>
  </g>

  <g transform="translate(10 25)">
    <!-- <rect width="78" height="68" fill="none" stroke="#0f0" /> -->
    <g transform="translate(0 20)">
      <!-- <polyline points="0,0 0,354" stroke="#0f0" stroke-width="1" fill="none" transform="translate(39 0)" /> -->
      <g transform="translate(20 0)"><svg id="RATIO_PARAM">
      <g transform="translate(19 19)">
        <polyline points="-5,0 5,0" stroke-width="1" stroke="#00f"/>
        <polyline points="0,-5 0,5" stroke-width="1" stroke="#00f"/>
        <circle cx="0" cy="0" r="18.5" stroke-width="1" stroke="#00f" fill="none"/>
      </g>
    </svg></g>
    </g>
    <use xlink:href="#dial-ratio-fmop" transform="translate(-10 0)"/>
    <g transform="translate(82 20)">
      <text font-size="8pt" letter-spacing="2px" transform="translate(8 35) rotate(270)">FINE</text>
      <g transform="translate(20 12)"><svg id="FINE_PARAM">
      <g transform="translate(8 8)">
        <polyline points="-3,0 3,0" stroke-width="1" stroke="#00f"/>
        <polyline points="0,-3 0,3" stroke-width="1" stroke="#00f"/>
        <circle r="7.5" stroke-width="1" stroke="#00f" fill="none"/>
      </g>
    </svg></g>
      <!-- <polyline points="0,50 0,380" stroke="#0f0" stroke-width="1" fill="none" transform="translate(28 -100)" /> -->
    </g>
    <g transform="translate(90 20)"><svg>
      <g transform="translate(20 20)">
        <g transform="rotate(-90) translate(10 0)">
          <polyline points="0,0 4,0" stroke-width="1" stroke="#333"/>
        </g>
        <path d="M 0 -12.5 A 12.5 12.5 0 0 1 12.5 0" stroke="#333" stroke-width="0.5" stroke-linecap="round" fill="none" transform="rotate(20)"/>
        <path d="M 0 -12.5 A 12.5 12.5 0 0 1 12.5 0" stroke="#333" stroke-width="0.5" stroke-linecap="round" fill="none" transform="rotate(43)"/>
        <path d="M 0 -12.5 A 12.5 12.5 0 0 0 -12.5 0" stroke="#333" stroke-width="0.5" stroke-linecap="round" fill="none" transform="rotate(-20)"/>
        <path d="M 0 -12.5 A 12.5 12.5 0 0 0 -12.5 0" stroke="#333" stroke-width="0.5" stroke-linecap="round" fill="none" transform="rotate(-43)"/>
      </g>
    </svg></g>
  </g>

  <!-- <g transform="translate(87 90)"> -->
  <g transform="translate(87 94)">
    <text font-size="8pt" letter-spacing="2px" transform="translate(8 25) rotate(270)">ATT</text>
    <g transform="translate(20 0)"><svg id="ATTACK_PARAM">
      <g transform="translate(13 13)">
        <polyline points="-3,0 3,0" stroke-width="1" stroke="#00f"/>
        <polyline points="0,-3 0,3" stroke-width="1" stroke="#00f"/>
        <circle cx="0" cy="0" r="12.5" stroke-width="1" stroke="#00f" fill="none"/>
      </g>
    </svg></g>
    <!-- <rect width="30" height="18" fill="#0f0" transform="translate(20 26)" /> -->
    <use xlink:href="#dial-time-fmop" transform="translate(10.5 -9.5)"/>
    <g transform="translate(31.5 29)"><svg id="ATTACK_LIGHT">
      <rect width="3.2" height="3.2" fill="#0f0"/>
    </svg></g>
  </g>
  <g transform="translate(87 139)">
    <!-- <polyline points="0,0 200,0" stroke="#0f0" stroke-width="1" fill="none" transform="translate(-140 -10)" /> -->
    <text font-size="8pt" letter-spacing="2px" transform="translate(8 25) rotate(270)">DEC</text>
    <g transform="translate(20 0)"><svg id="DECAY_PARAM">
      <g transform="translate(13 13)">
        <polyline points="-3,0 3,0" stroke-width="1" stroke="#00f"/>
        <polyline points="0,-3 0,3" stroke-width="1" stroke="#00f"/>
        <circle cx="0" cy="0" r="12.5" stroke-width="1" stroke="#00f" fill="none"/>
      </g>
    </svg></g>
    <!-- <rect width="30" height="18" fill="#0f0" transform="translate(20 26)" /> -->
    <use xlink:href="#dial-time-fmop" transform="translate(10.5 -9.5)"/>
    <g transform="translate(31.5 29)"><svg id="DECAY_LIGHT">
      <rect width="3.2" height="3.2" fill="#0f0"/>
    </svg></g>
  </g>
  <g transform="translate(87 184)">
    <!-- <polyline points="0,0 200,0" stroke="#0f0" stroke-width="1" fill="none" transform="translate(-140 -10)" /> -->
    <text font-size="8pt" letter-spacing="2px" transform="translate(8 25) rotate(270)">SUS</text>
    <g transform="translate(20 0)"><svg id="SUSTAIN_PARAM">
      <g transform="translate(13 13)">
        <polyline points="-3,0 3,0" stroke-width="1" stroke="#00f"/>
        <polyline points="0,-3 0,3" stroke-width="1" stroke="#00f"/>
        <circle cx="0" cy="0" r="12.5" stroke-width="1" stroke="#00f" fill="none"/>
      </g>
    </svg></g>
    <!-- <rect width="30" height="18" fill="#0f0" transform="translate(20 26)" /> -->
    <g transform="translate(10.5 -9.5)"><svg>
      <g transform="translate(22.5 22.5)">
        <text font-size="5.0pt" transform="rotate(-240) translate(18 0) rotate(240) translate(-2 2)">0</text>
        <polyline points="0,0 2.5,0" stroke-width="0.3" stroke="#333" transform="rotate(-210) translate(15 0)"/>
        <polyline points="0,0 2.5,0" stroke-width="0.3" stroke="#333" transform="rotate(-180) translate(15 0)"/>
        <polyline points="0,0 2.5,0" stroke-width="0.3" stroke="#333" transform="rotate(-150) translate(15 0)"/>
        <polyline points="0,0 2.5,0" stroke-width="0.3" stroke="#333" transform="rotate(-120) translate(15 0)"/>
        <polyline points="0,0 2.5,0" stroke-width="0.3" stroke="#333" transform="rotate(-90) translate(15 0)"/>
        <polyline points="0,0 2.5,0" stroke-width="0.3" stroke="#333" transform="rotate(-60) translate(15 0)"/>
        <polyline points="0,0 2.5,0" stroke-width="0.3" stroke="#333" transform="rotate(-30) translate(15 0)"/>
        <polyline points="0,0 2.5,0" stroke-width="0.3" stroke="#333" transform="rotate(0) translate(15 0)"/>
        <polyline points="0,0 2.5,0" stroke-width="0.3" stroke="#333" transform="rotate(30) translate(15 0)"/>
        <polyline points="0,0 3.5,0" stroke-width="1" stroke="#333" transform="rotate(60) translate(15 0)"/>
      </g>
    </svg></g>
    <g transform="translate(31.5 29)"><svg id="SUSTAIN_LIGHT">
      <rect width="3.2" height="3.2" fill="#0f0"/>
    </svg></g>
  </g>
  <g transform="translate(87 229)">
    <!-- <polyline points="0,0 200,0" stroke="#0f0" stroke-width="1" fill="none" transform="translate(-140 -10)" /> -->
    <text font-size="8pt" letter-spacing="2px" transform="translate(8 25) rotate(270)">REL</text>
    <g transform="translate(20 0)"><svg id="RELEASE_PARAM">
      <g transform="translate(13 13)">
        <polyline points="-3,0 3,0" stroke-width="1" stroke="#00f"/>
        <polyline points="0,-3 0,3" stroke-width="1" stroke="#00f"/>
        <circle cx="0" cy="0" r="12.5" stroke-width="1" stroke="#00f" fill="none"/>
      </g>
    </svg></g>
    <!-- <rect width="30" height="18" fill="#0f0" transform="translate(20 26)" /> -->
    <use xlink:href="#dial-time-fmop" transform="translate(10.5 -9.5)"/>
    <g transform="translate(31.5 29)"><svg id="RELEASE_LIGHT">
      <rect width="3.2" height="3.2" fill="#0f0"/>
    </svg></g>
  </g>

  <!-- <rect width="70" height="8" fill="#ff0" transform="translate(80 126)" /> -->
  <!-- <rect width="70" height="8" fill="#ff0" transform="translate(80 171)" /> -->
  <!-- <rect width="70" height="8" fill="#ff0" transform="translate(80 216)" /> -->
  <!-- <rect width="70" height="8" fill="#ff0" transform="translate(80 261)" /> -->

  <g transform="translate(16 106)">
    <text font-size="8pt" letter-spacing="1px" transform="translate(8 38) rotate(270)">DEPTH</text>
    <g transform="translate(20 0)"><svg id="DEPTH_PARAM">
      <g transform="translate(13 13)">
        <polyline points="-3,0 3,0" stroke-width="1" stroke="#00f"/>
        <polyline points="0,-3 0,3" stroke-width="1" stroke="#00f"/>
        <circle cx="0" cy="0" r="12.5" stroke-width="1" stroke="#00f" fill="none"/>
      </g>
    </svg></g>
    <g transform="translate(18.5 35)">
      <text font-size="6pt" letter-spacing="1px" transform="translate(0 6.2)">ENV</text>
      <g transform="translate(20 -1.3)"><svg id="ENV_TO_DEPTH_PARAM">
      <g transform="translate(4.5 4.5)">
        <circle r="4" stroke-width="1" stroke="#00f" fill="#f00"/>
      </g>
    </svg></g>
    </g>
    <g transform="translate(10.5 -9.5)"><svg>
      <g transform="translate(22.5 22.5)">
        <text font-size="5.0pt" transform="rotate(-240) translate(18 0) rotate(240) translate(-2 2)">0</text>
        <polyline points="0,0 2.5,0" stroke-width="0.3" stroke="#333" transform="rotate(-210) translate(15 0)"/>
        <polyline points="0,0 2.5,0" stroke-width="0.3" stroke="#333" transform="rotate(-180) translate(15 0)"/>
        <polyline points="0,0 2.5,0" stroke-width="0.3" stroke="#333" transform="rotate(-150) translate(15 0)"/>
        <polyline points="0,0 2.5,0" stroke-width="0.3" stroke="#333" transform="rotate(-120) translate(15 0)"/>
        <polyline points="0,0 2.5,0" stroke-width="0.3" stroke="#333" transform="rotate(-90) translate(15 0)"/>
        <polyline points="0,0 2.5,0" stroke-width="0.3" stroke="#333" transform="rotate(-60) translate(15 0)"/>
        <polyline points="0,0 2.5,0" stroke-width="0.3" stroke="#333" transform="rotate(-30) translate(15 0)"/>
        <polyline points="0,0 2.5,0" stroke-width="0.3" stroke="#333" transform="rotate(0) translate(15 0)"/>
        <polyline points="0,0 2.5,0" stroke-width="0.3" stroke="#333" transform="rotate(30) translate(15 0)"/>
        <polyline points="0,0 3.5,0" stroke-width="1" stroke="#333" transform="rotate(60) translate(15 0)"/>
      </g>
    </svg></g>
  </g>
  <g transform="translate(16 162)">
    <text font-size="8pt" letter-spacing="2px" transform="translate(8 35) rotate(270)">FDBK</text>
    <g transform="translate(20 0)"><svg id="FEEDBACK_PARAM">
      <g transform="translate(13 13)">
        <polyline points="-3,0 3,0" stroke-width="1" stroke="#00f"/>
        <polyline points="0,-3 0,3" stroke-width="1" stroke="#00f"/>
        <circle cx="0" cy="0" r="12.5" stroke-width="1" stroke="#00f" fill="none"/>
      </g>
    </svg></g>
    <g transform="translate(18.5 35)">
      <text font-size="6pt" letter-spacing="1px" transform="translate(0 6.2)">ENV</text>
      <g transform="translate(20 -1.3)"><svg id="ENV_TO_FEEDBACK_PARAM">
      <g transform="translate(4.5 4.5)">
        <circle r="4" stroke-width="1" stroke="#00f" fill="#f00"/>
      </g>
    </svg></g>
    </g>
    <g transform="translate(10.5 -9.5)"><svg>
      <g transform="translate(22.5 22.5)">
        <text font-size="5.0pt" transform="rotate(-240) translate(18 0) rotate(240) translate(-2 2)">0</text>
        <polyline points="0,0 2.5,0" stroke-width="0.3" stroke="#333" transform="rotate(-210) translate(15 0)"/>
        <polyline points="0,0 2.5,0" stroke-width="0.3" stroke="#333" transform="rotate(-180) translate(15 0)"/>
        <polyline points="0,0 2.5,0" stroke-width="0.3" stroke="#333" transform="rotate(-150) translate(15 0)"/>
        <polyline points="0,0 2.5,0" stroke-width="0.3" stroke="#333" transform="rotate(-120) translate(15 0)"/>
        <polyline points="0,0 2.5,0" stroke-width="0.3" stroke="#333" transform="rotate(-90) translate(15 0)"/>
        <polyline points="0,0 2.5,0" stroke-width="0.3" stroke="#333" transform="rotate(-60) translate(15 0)"/>
        <polyline points="0,0 2.5,0" stroke-width="0.3" stroke="#333" transform="rotate(-30) translate(15 0)"/>
        <polyline points="0,0 2.5,0" stroke-width="0.3" stroke="#333" transform="rotate(0) translate(15 0)"/>
        <polyline points="0,0 2.5,0" stroke-width="0.3" stroke="#333" transform="rotate(30) translate(15 0)"/>
        <polyline points="0,0 3.5,0" stroke-width="1" stroke="#333" transform="rotate(60) translate(15 0)"/>
      </g>
    </svg></g>
  </g>
  <g transform="translate(16 218)">
    <!-- <polyline points="0,0 150,0" fill="none" stroke="#0f0" transform="translate(0 13)" /> -->
    <text font-size="8pt" letter-spacing="2px" transform="translate(8 37.5) rotate(270)">LEVEL</text>
    <g transform="translate(20 0)"><svg id="LEVEL_PARAM">
      <g transform="translate(13 13)">
        <polyline points="-3,0 3,0" stroke-width="1" stroke="#00f"/>
        <polyline points="0,-3 0,3" stroke-width="1" stroke="#00f"/>
        <circle cx="0" cy="0" r="12.5" stroke-width="1" stroke="#00f" fill="none"/>
      </g>
    </svg></g>
    <g transform="translate(18.5 35)">
      <text font-size="6pt" letter-spacing="1px" transform="translate(0 6.2)">ENV</text>
      <g transform="translate(20 -1.3)"><svg id="ENV_TO_LEVEL_PARAM">
      <g transform="translate(4.5 4.5)">
        <circle r="4" stroke-width="1" stroke="#00f" fill="#f00"/>
      </g>
    </svg></g>
    </g>
    <g transform="translate(10.5 -9.5)"><svg>
      <g transform="translate(22.5 22.5)">
        <text font-size="5.0pt" transform="rotate(-240) translate(18 0) rotate(240) translate(-2 2)">0</text>
        <polyline points="0,0 2.5,0" stroke-width="0.3" stroke="#333" transform="rotate(-210) translate(15 0)"/>
        <polyline points="0,0 2.5,0" stroke-width="0.3" stroke="#333" transform="rotate(-180) translate(15 0)"/>
        <polyline points="0,0 2.5,0" stroke-width="0.3" stroke="#333" transform="rotate(-150) translate(15 0)"/>
        <polyline points="0,0 2.5,0" stroke-width="0.3" stroke="#333" transform="rotate(-120) translate(15 0)"/>
        <polyline points="0,0 2.5,0" stroke-width="0.3" stroke="#333" transform="rotate(-90) translate(15 0)"/>
        <polyline points="0,0 2.5,0" stroke-width="0.3" stroke="#333" transform="rotate(-60) translate(15 0)"/>
        <polyline points="0,0 2.5,0" stroke-width="0.3" stroke="#333" transform="rotate(-30) translate(15 0)"/>
        <polyline points="0,0 2.5,0" stroke-width="0.3" stroke="#333" transform="rotate(0) translate(15 0)"/>
        <polyline points="0,0 2.5,0" stroke-width="0.3" stroke="#333" transform="rotate(30) translate(15 0)"/>
        <polyline points="0,0 3.5,0" stroke-width="1" stroke="#333" transform="rotate(60) translate(15 0)"/>
      </g>
    </svg></g>
  </g>

  <!-- <rect width="70" height="9" fill="#f0f" transform="translate(0 148)" /> -->
  <!-- <rect width="70" height="9" fill="#f0f" transform="translate(0 204)" /> -->
  <!-- <rect width="70" height="9" fill="#f0f" transform="translate(0 260)" /> -->

  <g transform="translate(0 269)">
    <rect width="130" height="91" rx="5" fill="#bbb" transform="translate(10 0)"/>
    <rect width="97" height="91" rx="5" fill="#fafafa" transform="translate(10 0)"/>
    <rect width="130" height="44" rx="5" fill="#fafafa" transform="translate(10 0)"/>
    <rect width="10" height="10" fill="#fafafa" transform="translate(130 34)"/>
    <rect width="10" height="10" fill="#fafafa" transform="translate(97 81)"/>

    <g transform="translate(12 0)">
      <g transform="translate(3 5)"><svg id="DEPTH_INPUT">
      <g transform="translate(12 12)">
        <circle cx="0" cy="0" r="5" stroke-width="1" stroke="#0f0" fill="#0f0"/>
        <circle cx="0" cy="0" r="10.5" stroke-width="3" stroke="#0f0" fill="none"/>
      </g>
    </svg></g>
      <text font-size="6pt" letter-spacing="1px" transform="translate(0.5 40)">DEPTH</text>
    </g>
    <g transform="translate(44 0)">
      <g transform="translate(3 5)"><svg id="FEEDBACK_INPUT">
      <g transform="translate(12 12)">
        <circle cx="0" cy="0" r="5" stroke-width="1" stroke="#0f0" fill="#0f0"/>
        <circle cx="0" cy="0" r="10.5" stroke-width="3" stroke="#0f0" fill="none"/>
      </g>
    </svg></g>
      <text font-size="6pt" letter-spacing="1px" transform="translate(3.5 40)">FDBK</text>
    </g>
    <g transform="translate(76 0)">
      <g transform="translate(3 5)"><svg id="LEVEL_INPUT">
      <g transform="translate(12 12)">
        <circle cx="0" cy="0" r="5" stroke-width="1" stroke="#0f0" fill="#0f0"/>
        <circle cx="0" cy="0" r="10.5" stroke-width="3" stroke="#0f0" fill="none"/>
      </g>
    </svg></g>
      <text font-size="6pt" letter-spacing="1px" transform="translate(1.5 40)">LEVEL</text>
    </g>
    <g transform="translate(108 0)">
      <g transform="translate(3 5)"><svg id="SUSTAIN_INPUT">
      <g transform="translate(12 12)">
        <circle cx="0" cy="0" r="5" stroke-width="1" stroke="#0f0" fill="#0f0"/>
        <circle cx="0" cy="0" r="10.5" stroke-width="3" stroke="#0f0" fill="none"/>
      </g>
    </svg></g>
      <text font-size="6pt" letter-spacing="1px" transform="translate(6 40)">SUS</text>
    </g>

    <g transform="translate(10 44)">
      <g transform="translate(2 0)">
        <g transform="translate(3 5)"><svg id="PITCH_INPUT">
      <g transform="translate(12 12)">
        <circle cx="0" cy="0" r="5" stroke-width="1" stroke="#0f0" fill="#0f0"/>
        <circle cx="0" cy="0" r="10.5" stroke-width="3" stroke="#0f0" fill="none"/>
      </g>
    </svg></g>
        <text font-size="6pt" letter-spacing="1px" transform="translate(1 40)">V/OCT</text>
      </g>
      <g transform="translate(34 0)">
        <g transform="translate(3 5)"><svg id="FM_INPUT">
      <g transform="translate(12 12)">
        <circle cx="0" cy="0" r="5" stroke-width="1" stroke="#0f0" fill="#0f0"/>
        <circle cx="0" cy="0" r="10.5" stroke-width="3" stroke="#0f0" fill="none"/>
      </g>
    </svg></g>
        <text font-size="6pt" letter-spacing="1px" transform="translate(8.5 40)">FM</text>
      </g>
      <g transform="translate(66 0)">
        <g transform="translate(3 5)"><svg id="GATE_INPUT">
      <g transform="translate(12 12)">
        <circle cx="0" cy="0" r="5" stroke-width="1" stroke="#0f0" fill="#0f0"/>
        <circle cx="0" cy="0" r="10.5" stroke-width="3" stroke="#0f0" fill="none"/>
      </g>
    </svg></g>
        <text font-size="6pt" letter-spacing="1px" transform="translate(3 40)">GATE</text>
      </g>
      <g transform="translate(98 0)">
        <g transform="translate(3 5)"><svg id="AUDIO_OUTPUT">
      <g transform="translate(12 12)">
        <circle cx="0" cy="0" r="5" stroke-width="1" stroke="#f00" fill="#f00"/>
        <circle cx="0" cy="0" r="10.5" stroke-width="3" stroke="#f00" fill="none"/>
      </g>
    </svg></g>
        <text font-size="6pt" letter-spacing="1px" transform="translate(6 40)">OUT</text>
      </g>
    </g>
  </g>
</svg>
