<?xml version="1.0"?>
<svg xmlns="http://www.w3.org/2000/svg" xmlns:xlink="http://www.w3.org/1999/xlink" version="1.1" width="45" height="380" viewBox="0 0 45 380">
  <style>text {
  fill: #333;
  font-family: 'Roboto', sans-serif;
  font-weight: bold;
}
text.title {
  font-family: 'Comfortaa', sans-serif;
  font-weight: normal;
}
text.brand {
  font-family: 'Audiowide', sans-serif;
  font-weight: bold;
}

path, polyline {
  stroke: #333;
}

rect.module-background, .background-fill {
  fill: #ddd;
}
polyline.module-border-inner {
  stroke: #e4e4e4;
}
polyline.module-border-middle {
  stroke: #ebebeb;
}
polyline.module-border-outer {
  stroke: #f2f2f2;
}
</style>

  <defs>
    <symbol id="dial-response-follow" viewBox="0 0 45px 45px">
      <g transform="translate(22.5 22.5)">
        <text font-size="5.0pt" transform="rotate(-240) translate(20 0) rotate(240) translate(-2 2)">0</text>
        <polyline points="0,0 2.5,0" stroke-width="0.3" transform="rotate(-210) translate(17 0)"/>
        <polyline points="0,0 2.5,0" stroke-width="0.3" transform="rotate(-180) translate(17 0)"/>
        <polyline points="0,0 2.5,0" stroke-width="0.3" transform="rotate(-150) translate(17 0)"/>
        <polyline points="0,0 2.5,0" stroke-width="0.3" transform="rotate(-120) translate(17 0)"/>
        <polyline points="0,0 2.5,0" stroke-width="0.3" transform="rotate(-90) translate(17 0)"/>
        <polyline points="0,0 2.5,0" stroke-width="0.3" transform="rotate(-60) translate(17 0)"/>
        <polyline points="0,0 2.5,0" stroke-width="0.3" transform="rotate(-30) translate(17 0)"/>
        <polyline points="0,0 2.5,0" stroke-width="0.3" transform="rotate(0) translate(17 0)"/>
        <polyline points="0,0 2.5,0" stroke-width="0.3" transform="rotate(30) translate(17 0)"/>
        <polyline points="0,0 3.5,0" stroke-width="1" transform="rotate(60) translate(17 0)"/>
      </g>
    </symbol>

    <symbol id="dial-scale-follow" viewBox="0 0 45px 45px">
      <g transform="translate(22.5 22.5)">
        <text font-size="8pt" transform="rotate(-240) translate(20 0) rotate(240) translate(-2 3)">-</text>
        <polyline points="0,0 2.5,0" stroke-width="0.3" transform="rotate(-210) translate(17 0)"/>
        <polyline points="0,0 2.5,0" stroke-width="0.3" transform="rotate(-180) translate(17 0)"/>
        <polyline points="0,0 2.5,0" stroke-width="0.3" transform="rotate(-150) translate(17 0)"/>
        <polyline points="0,0 2.5,0" stroke-width="0.3" transform="rotate(-120) translate(17 0)"/>
        <polyline points="0,0 3.5,0" stroke-width="1.0" transform="rotate(-90) translate(17 0)"/>
        <polyline points="0,0 2.5,0" stroke-width="0.3" transform="rotate(-60) translate(17 0)"/>
        <polyline points="0,0 2.5,0" stroke-width="0.3" transform="rotate(-30) translate(17 0)"/>
        <polyline points="0,0 2.5,0" stroke-width="0.3" transform="rotate(0) translate(17 0)"/>
        <polyline points="0,0 2.5,0" stroke-width="0.3" transform="rotate(30) translate(17 0)"/>
        <text font-size="6pt" transform="rotate(60) translate(20 0) rotate(-60) translate(-2 2)">+</text>
      </g>
    </symbol>
  </defs>

  
      
      <rect class="module-background background-fill" width="45.0" height="380.0"/>
    
      
      <polyline class="module-border-inner" points="1,1 44.0,1 44.0,379.0 1,379.0 1,1" stroke-width="0.5" fill="none"/>
      <polyline class="module-border-middle" points="0.5,0.5 44.5,0.5 44.5,379.5 0.5,379.5 0.5,0.5" stroke-width="0.8" fill="none"/>
      <polyline class="module-border-outer" points="0,0 45.0,0 45.0,380.0 0,380.0 0,0" stroke-width="1" fill="none"/>
    
      <g transform="rotate(-90) translate(-376.0 13)">
        <text class="title" font-size="7pt" letter-spacing="2.5px">FOLLOW</text>
        <g transform="translate(0 12)">
          <text class="brand" font-size="7pt" letter-spacing="2px">BGA</text>
          <rect width="3.0" height="3" fill="#ddd" transform="translate(11.5 -5)"/>
        </g>
      </g>
    

  <g transform="translate(0 25)">
    <text font-size="6pt" letter-spacing="2.0px" transform="translate(8.5 0)">DAMP</text>
    <g transform="translate(0 3)"><svg id="RESPONSE_PARAM">
      <g transform="translate(22.5 22.5)">
        <polyline points="-5,0 5,0" stroke-width="1" stroke="#00f"/>
        <polyline points="0,-5 0,5" stroke-width="1" stroke="#00f"/>
        <circle cx="0" cy="0" r="14" stroke-width="1" stroke="#00f" fill="none"/>
      </g>
    </svg></g>
    <use xlink:href="#dial-response-follow" transform="translate(0 3)" href="#dial-response-follow"/>
    <g transform="translate(5.5 49)">
      <rect width="34" height="39" rx="5" fill="#fafafa"/>
      <g transform="translate(5 3)"><svg id="RESPONSE_INPUT">
      <g transform="translate(12 12)">
        <circle cx="0" cy="0" r="5" stroke-width="1" stroke="#0f0" fill="#0f0"/>
        <circle cx="0" cy="0" r="10.5" stroke-width="3" stroke="#0f0" fill="none"/>
      </g>
    </svg></g>
      <text font-size="5pt" letter-spacing="2px" transform="translate(11 35)">CV</text>
    </g>
  </g>

  <g transform="translate(0 131)">
    <text font-size="6pt" letter-spacing="1px" transform="translate(11.5 0)">GAIN</text>
    <g transform="translate(0 3)"><svg id="GAIN_PARAM">
      <g transform="translate(22.5 22.5)">
        <polyline points="-5,0 5,0" stroke-width="1" stroke="#00f"/>
        <polyline points="0,-5 0,5" stroke-width="1" stroke="#00f"/>
        <circle cx="0" cy="0" r="14" stroke-width="1" stroke="#00f" fill="none"/>
      </g>
    </svg></g>
    <use xlink:href="#dial-scale-follow" transform="translate(0 3)" href="#dial-scale-follow"/>
    <g transform="translate(5.5 49)">
      <rect width="34" height="38" rx="5" fill="#fafafa"/>
      <g transform="translate(5 3)"><svg id="GAIN_INPUT">
      <g transform="translate(12 12)">
        <circle cx="0" cy="0" r="5" stroke-width="1" stroke="#0f0" fill="#0f0"/>
        <circle cx="0" cy="0" r="10.5" stroke-width="3" stroke="#0f0" fill="none"/>
      </g>
    </svg></g>
      <text font-size="5pt" letter-spacing="2px" transform="translate(11 35)">CV</text>
    </g>
  </g>

  <g transform="translate(0 230)">
    <g transform="translate(5.5 0)">
      <rect width="34" height="10" fill="#fafafa" transform="translate(0 28)"/>
      <rect width="34" height="35" rx="5" fill="#fafafa"/>
      <g transform="translate(5 3)"><svg id="IN_INPUT">
      <g transform="translate(12 12)">
        <circle cx="0" cy="0" r="5" stroke-width="1" stroke="#0f0" fill="#0f0"/>
        <circle cx="0" cy="0" r="10.5" stroke-width="3" stroke="#0f0" fill="none"/>
      </g>
    </svg></g>
      <text font-size="5pt" letter-spacing="2px" transform="translate(12.5 35)">IN</text>
    </g>
    <g transform="translate(5.5 41)">
      <rect width="34" height="10" fill="#bbb" transform="translate(0 -3)"/>
      <rect width="34" height="35" rx="5" fill="#bbb"/>
      <g transform="translate(5 0)"><svg id="OUT_OUTPUT">
      <g transform="translate(12 12)">
        <circle cx="0" cy="0" r="5" stroke-width="1" stroke="#f00" fill="#f00"/>
        <circle cx="0" cy="0" r="10.5" stroke-width="3" stroke="#f00" fill="none"/>
      </g>
    </svg></g>
      <text font-size="5pt" letter-spacing="2px" transform="translate(8.3 32)">OUT</text>
    </g>
  </g>

  
</svg>
