<?xml version="1.0"?>
<svg xmlns="http://www.w3.org/2000/svg" xmlns:xlink="http://www.w3.org/1999/xlink" version="1.1" width="45" height="380" viewBox="0 0 45 380">
  <style>text {
  fill: #333;
  font-family: 'Roboto', sans-serif;
  font-weight: bold;
}
text.title {
  font-family: 'Comfortaa', sans-serif;
  font-weight: normal;
}
text.brand {
  font-family: 'Audiowide', sans-serif;
  font-weight: bold;
}

polyline {
  stroke: #333;
}
path {
  stroke: #333;
}

rect.module-background, .background-fill {
  fill: #ddd;
}
polyline.module-border-inner {
  stroke: #e4e4e4;
}
polyline.module-border-middle {
  stroke: #ebebeb;
}
polyline.module-border-outer {
  stroke: #f2f2f2;
}

g.io-group {
}
rect.input-background, rect.input-background-filler {
  fill: #fafafa;
}
rect.output-background, rect.output-background-filler {
  fill: #bbb;
}
text.input-label, text.output-label {
  /* font-size: 6pt; */
}
polyline.input-label, polyline.output-label {
}
path.input-label, path.output-label {
}


text {
  fill: #ddd;
}

polyline {
  stroke: #ddd;
}
path {
  stroke: #ddd;
}

rect.module-background, .background-fill {
  fill: #222;
}
polyline.module-border-inner {
  stroke: #191919;
}
polyline.module-border-middle {
  stroke: #111;
}
polyline.module-border-outer {
  stroke: #000;
}

rect.input-background, rect.input-background-filler {
  fill: #aaa;
}
rect.output-background, rect.output-background-filler {
  fill: #666;
}
text.input-label {
  fill: #333;
}
polyline.input-label, path.input-label {
  stroke: #333;
}
text.output-label {
  fill: #ddd;
}
polyline.output-label, path.output-label {
  stroke: #ddd;
}
</style>

  
      
      <rect class="module-background background-fill" width="45.0" height="380.0"/>
    
      
      <polyline class="module-border-inner" points="1,1 44.0,1 44.0,379.0 1,379.0 1,1" stroke-width="0.5" fill="none"/>
      <polyline class="module-border-middle" points="0.5,0.5 44.5,0.5 44.5,379.5 0.5,379.5 0.5,0.5" stroke-width="0.8" fill="none"/>
      <polyline class="module-border-outer" points="0,0 45.0,0 45.0,380.0 0,380.0 0,0" stroke-width="1" fill="none"/>
    
      <g transform="rotate(-90) translate(-376.0 13)">
        <text class="title" font-size="7pt" letter-spacing="2.5px">4MAN</text>
        <g transform="translate(0 12)">
          <text class="brand" font-size="7pt" letter-spacing="2px">BGA</text>
          <rect class="background-fill" width="3.0" height="3" fill="#ddd" transform="translate(11.5 -5)"/>
        </g>
      </g>
    

  <g transform="translate(0 18)">
    <g class="io-group" transform="translate(5.5 0)">
      <rect class="input-background-filler" width="34" height="10" transform="translate(0 25)"/>
      <rect class="input-background" width="34" height="33" rx="5"/>
      <g transform="translate(8 4)"><svg id="TRIGGER1_PARAM">
      <g transform="translate(9 9)">
        <circle cx="0" cy="0" r="8.5" stroke-width="1" stroke="#00f" fill="#f00"/>
      </g>
    </svg></g>
      <text class="input-label" font-size="5pt" letter-spacing="2px" transform="translate(6.6 30)">TRIG</text>
    </g>

    <g class="io-group" transform="translate(5.5 37)">
      <rect class="output-background-filler" width="34" height="10" transform="translate(0 -3)"/>
      <rect class="output-background" width="34" height="38" rx="5"/>
      <g transform="translate(2 2)">
        <g transform="translate(3 0)"><svg id="OUT1_OUTPUT">
      <g transform="translate(12 12)">
        <circle cx="0" cy="0" r="5" stroke-width="1" stroke="#f00" fill="#f00"/>
        <circle cx="0" cy="0" r="10.5" stroke-width="3" stroke="#f00" fill="none"/>
      </g>
    </svg></g>
        <text class="output-label" font-size="5pt" letter-spacing="2px" transform="translate(6.5 32)">OUT</text>
      </g>
    </g>
  </g>

  <g transform="translate(0 98)">
    <g class="io-group" transform="translate(5.5 0)">
      <rect class="input-background-filler" width="34" height="10" transform="translate(0 25)"/>
      <rect class="input-background" width="34" height="33" rx="5"/>
      <g transform="translate(8 4)"><svg id="TRIGGER2_PARAM">
      <g transform="translate(9 9)">
        <circle cx="0" cy="0" r="8.5" stroke-width="1" stroke="#00f" fill="#f00"/>
      </g>
    </svg></g>
      <text class="input-label" font-size="5pt" letter-spacing="2px" transform="translate(6.6 30)">TRIG</text>
    </g>

    <g class="io-group" transform="translate(5.5 37)">
      <rect class="output-background-filler" width="34" height="10" transform="translate(0 -3)"/>
      <rect class="output-background" width="34" height="38" rx="5"/>
      <g transform="translate(2 2)">
        <g transform="translate(3 0)"><svg id="OUT2_OUTPUT">
      <g transform="translate(12 12)">
        <circle cx="0" cy="0" r="5" stroke-width="1" stroke="#f00" fill="#f00"/>
        <circle cx="0" cy="0" r="10.5" stroke-width="3" stroke="#f00" fill="none"/>
      </g>
    </svg></g>
        <text class="output-label" font-size="5pt" letter-spacing="2px" transform="translate(6.5 32)">OUT</text>
      </g>
    </g>
  </g>

  <g transform="translate(0 178)">
    <g class="io-group" transform="translate(5.5 0)">
      <rect class="input-background-filler" width="34" height="10" transform="translate(0 25)"/>
      <rect class="input-background" width="34" height="33" rx="5"/>
      <g transform="translate(8 4)"><svg id="TRIGGER3_PARAM">
      <g transform="translate(9 9)">
        <circle cx="0" cy="0" r="8.5" stroke-width="1" stroke="#00f" fill="#f00"/>
      </g>
    </svg></g>
      <text class="input-label" font-size="5pt" letter-spacing="2px" transform="translate(6.6 30)">TRIG</text>
    </g>

    <g class="io-group" transform="translate(5.5 37)">
      <rect class="output-background-filler" width="34" height="10" transform="translate(0 -3)"/>
      <rect class="output-background" width="34" height="38" rx="5"/>
      <g transform="translate(2 2)">
        <g transform="translate(3 0)"><svg id="OUT3_OUTPUT">
      <g transform="translate(12 12)">
        <circle cx="0" cy="0" r="5" stroke-width="1" stroke="#f00" fill="#f00"/>
        <circle cx="0" cy="0" r="10.5" stroke-width="3" stroke="#f00" fill="none"/>
      </g>
    </svg></g>
        <text class="output-label" font-size="5pt" letter-spacing="2px" transform="translate(6.5 32)">OUT</text>
      </g>
    </g>
  </g>

  <g transform="translate(0 258)">
    <g class="io-group" transform="translate(5.5 0)">
      <rect class="input-background-filler" width="34" height="10" transform="translate(0 25)"/>
      <rect class="input-background" width="34" height="33" rx="5"/>
      <g transform="translate(8 4)"><svg id="TRIGGER4_PARAM">
      <g transform="translate(9 9)">
        <circle cx="0" cy="0" r="8.5" stroke-width="1" stroke="#00f" fill="#f00"/>
      </g>
    </svg></g>
      <text class="input-label" font-size="5pt" letter-spacing="2px" transform="translate(6.6 30)">TRIG</text>
    </g>

    <g class="io-group" transform="translate(5.5 37)">
      <rect class="output-background-filler" width="34" height="10" transform="translate(0 -3)"/>
      <rect class="output-background" width="34" height="38" rx="5"/>
      <g transform="translate(2 2)">
        <g transform="translate(3 0)"><svg id="OUT4_OUTPUT">
      <g transform="translate(12 12)">
        <circle cx="0" cy="0" r="5" stroke-width="1" stroke="#f00" fill="#f00"/>
        <circle cx="0" cy="0" r="10.5" stroke-width="3" stroke="#f00" fill="none"/>
      </g>
    </svg></g>
        <text class="output-label" font-size="5pt" letter-spacing="2px" transform="translate(6.5 32)">OUT</text>
      </g>
    </g>
  </g>
</svg>
