<?xml version="1.0"?>
<svg xmlns="http://www.w3.org/2000/svg" xmlns:xlink="http://www.w3.org/1999/xlink" version="1.1" width="45.0" height="380.0" viewBox="0 0 45.0 380.0">
  <style>text {
  fill: #333;
  font-family: 'Roboto', sans-serif;
  font-weight: bold;
}
text.title {
  font-family: 'Comfortaa', sans-serif;
  font-weight: normal;
}
text.brand {
  font-family: 'Audiowide', sans-serif;
  font-weight: bold;
}

polyline {
  stroke: #333;
}
path {
  stroke: #333;
}

rect.module-background, .background-fill {
  fill: #ddd;
}
polyline.module-border-inner {
  stroke: #e4e4e4;
}
polyline.module-border-middle {
  stroke: #ebebeb;
}
polyline.module-border-outer {
  stroke: #f2f2f2;
}

g.io-group {
}
rect.input-background, rect.input-background-filler {
  fill: #fafafa;
}
rect.output-background, rect.output-background-filler {
  fill: #bbb;
}
text.input-label, text.output-label {
  /* font-size: 6pt; */
}
polyline.input-label, polyline.output-label {
}
path.input-label, path.output-label {
}

circle.port-rim {
  stroke: #f0f0f0;
}
circle.port-barrel {
  stroke: #222;
  fill: #222;
}
circle.knob-center {
   fill: #eee;
}
circle.knob-rim {
   fill: #333;
}
circle.knob-tick {
  fill: #fff;
}
polyline.knob-tick {
  stroke: #fff;
}


text {
  fill: #eee;
}

polyline {
  stroke: #ccc;
}
path {
  stroke: #ccc;
}

rect.module-background, .background-fill {
  fill: #111;
}
polyline.module-border-inner {
  stroke: #191919;
}
polyline.module-border-middle {
  stroke: #111;
}
polyline.module-border-outer {
  stroke: #000;
}

rect.input-background, rect.input-background-filler {
  fill: #aaa;
}
rect.output-background, rect.output-background-filler {
  fill: #666;
}
text.input-label {
  fill: #222;
}
polyline.input-label, path.input-label {
  stroke: #222;
}
text.output-label {
  fill: #ddd;
}
polyline.output-label, path.output-label {
  stroke: #ddd;
}

circle.port-rim {
  stroke: #ccc;
}
circle.port-barrel {
  stroke: #222;
  fill: #222;
}
circle.knob-center {
   fill: #bbb;
}
circle.knob-rim {
   fill: #555;
}
circle.knob-tick {
  fill: #fff;
}
polyline.knob-tick {
  stroke: #fff;
}
</style>

  <defs>
    <symbol id="dial-cutoff-lvcf" viewBox="0 0 45px 45px">
      <g transform="translate(22.5 22.5)">
        <text font-size="5.0pt" transform="rotate(-240) translate(18 0) rotate(240) translate(-2 2)">0</text>
        <polyline points="0,0 1.5,0" stroke-width="0.7" transform="rotate(-218.8) translate(15 0)"/>
        <polyline points="0,0 2.5,0" stroke-width="0.7" transform="rotate(-192.6) translate(15 0)"/>

        <text font-size="5.0pt" transform="rotate(-172.2) translate(18 0) rotate(172.2) translate(-1 2)">1</text>
        <polyline points="0,0 2.5,0" stroke-width="0.7" transform="rotate(-90) translate(15 0)"/>

        <text font-size="5.0pt" transform="rotate(-27.9) translate(18 0) rotate(27.9) translate(-4 2)">10</text>
        <polyline points="0,0 2.5,0" stroke-width="0.7" transform="rotate(19.8) translate(15 0)"/>

        <text font-size="5.0pt" transform="rotate(60) translate(18 0) rotate(-60) translate(-2 2)">20</text>

        <text font-size="4.0pt" transform="rotate(90) translate(18 0) rotate(-90) translate(-5 2)">KHZ</text>
      </g>
    </symbol>

    <symbol id="dial-q-lvcf" viewBox="0 0 45px 45px">
      <g transform="translate(22.5 22.5)">
        <text font-size="5.0pt" transform="rotate(-240) translate(18 0) rotate(240) translate(-2 2)">0</text>
        <polyline points="0,0 2.5,0" stroke-width="0.7" transform="rotate(-210) translate(15 0)"/>
        <polyline points="0,0 2.5,0" stroke-width="0.7" transform="rotate(-180) translate(15 0)"/>
        <polyline points="0,0 2.5,0" stroke-width="0.7" transform="rotate(-150) translate(15 0)"/>
        <polyline points="0,0 2.5,0" stroke-width="0.7" transform="rotate(-120) translate(15 0)"/>
        <polyline points="0,0 2.5,0" stroke-width="0.7" transform="rotate(-90) translate(15 0)"/>
        <polyline points="0,0 2.5,0" stroke-width="0.7" transform="rotate(-60) translate(15 0)"/>
        <polyline points="0,0 2.5,0" stroke-width="0.7" transform="rotate(-30) translate(15 0)"/>
        <polyline points="0,0 2.5,0" stroke-width="0.7" transform="rotate(0) translate(15 0)"/>
        <polyline points="0,0 2.5,0" stroke-width="0.7" transform="rotate(30) translate(15 0)"/>
        <polyline points="0,0 3.5,0" stroke-width="1" transform="rotate(60) translate(15 0)"/>
      </g>
    </symbol>

  </defs>

  
      
      <rect class="module-background background-fill" width="45.0" height="380.0"/>
    
      
      <polyline class="module-border-inner" points="1,1 44.0,1 44.0,379.0 1,379.0 1,1" stroke-width="0.5" fill="none"/>
      <polyline class="module-border-middle" points="0.5,0.5 44.5,0.5 44.5,379.5 0.5,379.5 0.5,0.5" stroke-width="0.8" fill="none"/>
      <polyline class="module-border-outer" points="0,0 45.0,0 45.0,380.0 0,380.0 0,0" stroke-width="1" fill="none"/>
    
      <g transform="rotate(-90) translate(-376.0 13)">
        <text class="title" font-size="7pt" letter-spacing="2.5px">LVCF</text>
        <g transform="translate(0 12)">
          <text class="brand" font-size="7pt" letter-spacing="2px">BGA</text>
          <rect class="background-fill" width="3.0" height="3" fill="#ddd" transform="translate(11.5 -5)"/>
        </g>
      </g>
    

  <g transform="translate(0 31)">
    <text font-size="6pt" letter-spacing="1px" transform="translate(5 0)">CUTOFF</text>
    <g transform="translate(9.5 8)"><svg id="FREQUENCY_PARAM">
      <g transform="translate(13 13)">
        <polyline points="-3,0 3,0" stroke-width="1" stroke="#00f"/>
        <polyline points="0,-3 0,3" stroke-width="1" stroke="#00f"/>
        <circle cx="0" cy="0" r="12.5" stroke-width="1" stroke="#00f" fill="none"/>
      </g>
    </svg></g>
    <use xlink:href="#dial-cutoff-lvcf" transform="translate(0 -1.5)" href="#dial-cutoff-lvcf"/>
  </g>

  <g transform="translate(0 84)">
    <text font-size="6pt" letter-spacing="2px" transform="translate(16 0)">CV</text>
    <g transform="translate(14.5 9.5)"><svg id="FREQUENCY_CV_PARAM">
      <g transform="translate(8 8)">
        <polyline points="-3,0 3,0" stroke-width="1" stroke="#00f"/>
        <polyline points="0,-3 0,3" stroke-width="1" stroke="#00f"/>
        <circle r="7.5" stroke-width="1" stroke="#00f" fill="none"/>
      </g>
    </svg></g>
    <g transform="translate(2.2 -2.5)">
      <g transform="translate(20 20)">
        <polyline points="0,0 4,0" stroke-width="1" transform="rotate(-90) translate(10 0)"/>
        <path d="M 0 -12.5 A 12.5 12.5 0 0 1 12.5 0" stroke-width="0.7" stroke-linecap="round" stroke="#ccc" fill="none" transform="rotate(20)"/>
        <path d="M 0 -12.5 A 12.5 12.5 0 0 1 12.5 0" stroke-width="0.7" stroke-linecap="round" stroke="#ccc" fill="none" transform="rotate(43)"/>
        <path d="M 0 -12.5 A 12.5 12.5 0 0 0 -12.5 0" stroke-width="0.7" stroke-linecap="round" stroke="#ccc" fill="none" transform="rotate(-20)"/>
        <path d="M 0 -12.5 A 12.5 12.5 0 0 0 -12.5 0" stroke-width="0.7" stroke-linecap="round" stroke="#ccc" fill="none" transform="rotate(-43)"/>
      </g>
    </g>
  </g>

  <g transform="translate(0 130)">
    <text font-size="6pt" letter-spacing="1px" transform="translate(5 0)">RES/BW</text>
    <g transform="translate(9.5 8)"><svg id="Q_PARAM">
      <g transform="translate(13 13)">
        <polyline points="-3,0 3,0" stroke-width="1" stroke="#00f"/>
        <polyline points="0,-3 0,3" stroke-width="1" stroke="#00f"/>
        <circle cx="0" cy="0" r="12.5" stroke-width="1" stroke="#00f" fill="none"/>
      </g>
    </svg></g>
    <use xlink:href="#dial-q-lvcf" transform="translate(0 -1.5)" href="#dial-q-lvcf"/>
  </g>

  <g transform="translate(0.5 180)">
    <g transform="translate(10 0)">
      <g transform="translate(0 0)">
        <g transform="translate(-7.5 1)"><svg id="LOWPASS_LIGHT">
      <rect width="6.4" height="6.4" fill="#0f0"/>
    </svg></g>
        <text font-size="5pt" letter-spacing="0.5px" transform="translate(1 6.7)">LP</text>
      </g>

      <g transform="translate(0 13)">
        <g transform="translate(-7.5 1)"><svg id="BANDPASS_LIGHT">
      <rect width="6.4" height="6.4" fill="#0f0"/>
    </svg></g>
        <text font-size="5pt" letter-spacing="0.5px" transform="translate(1 6.7)">BP</text>
      </g>
    </g>

    <g transform="translate(32 0)">
      <g transform="translate(0 0)">
        <g transform="translate(-7.5 1)"><svg id="HIGHPASS_LIGHT">
      <rect width="6.4" height="6.4" fill="#0f0"/>
    </svg></g>
        <text font-size="5pt" letter-spacing="0.5px" transform="translate(1 6.7)">HP</text>
      </g>

      <g transform="translate(0 13)">
        <g transform="translate(-7.5 1)"><svg id="BANDREJECT_LIGHT">
      <rect width="6.4" height="6.4" fill="#0f0"/>
    </svg></g>
        <text font-size="5pt" letter-spacing="0.5px" transform="translate(1 6.7)">BR</text>
      </g>
    </g>

    <g transform="translate(17.5 24)"><svg id="MODE_PARAM">
      <g transform="translate(4.5 4.5)">
        <circle r="4" stroke-width="1" stroke="#00f" fill="#f00"/>
      </g>
    </svg></g>
  </g>

  <g transform="translate(0 225)">
    <g class="io-group" transform="translate(5.5 0)">
      <rect class="input-background" width="34" height="73" rx="5"/>
      <rect class="input-background-filler" width="34" height="10" transform="translate(0 63)"/>
      <g transform="translate(5 3)"><svg id="IN_INPUT">
      <g transform="translate(12 12)">
        <circle cx="0" cy="0" r="5" stroke-width="1" stroke="#0f0" fill="#0f0"/>
        <circle cx="0" cy="0" r="10.5" stroke-width="3" stroke="#0f0" fill="none"/>
      </g>
    </svg></g>
      <text class="input-label" font-size="5pt" letter-spacing="2px" transform="translate(12.5 35)">IN</text>
      <g transform="translate(5 38)"><svg id="FREQUENCY_CV_INPUT">
      <g transform="translate(12 12)">
        <circle cx="0" cy="0" r="5" stroke-width="1" stroke="#0f0" fill="#0f0"/>
        <circle cx="0" cy="0" r="10.5" stroke-width="3" stroke="#0f0" fill="none"/>
      </g>
    </svg></g>
      <text class="input-label" font-size="5pt" letter-spacing="2px" transform="translate(11 70)">CV</text>
    </g>
    <g class="io-group" transform="translate(5.5 76)">
      <rect class="output-background-filler" width="34" height="10" transform="translate(0 -3)"/>
      <rect class="output-background" width="34" height="35" rx="5"/>
      <g transform="translate(5 0)"><svg id="OUT_OUTPUT">
      <g transform="translate(12 12)">
        <circle cx="0" cy="0" r="5" stroke-width="1" stroke="#f00" fill="#f00"/>
        <circle cx="0" cy="0" r="10.5" stroke-width="3" stroke="#f00" fill="none"/>
      </g>
    </svg></g>
      <text class="output-label" font-size="5pt" letter-spacing="2px" transform="translate(8.3 32)">OUT</text>
    </g>
  </g>
</svg>
