<?xml version="1.0"?>
<svg xmlns="http://www.w3.org/2000/svg" xmlns:xlink="http://www.w3.org/1999/xlink" version="1.1" width="45" height="380" viewBox="0 0 45 380">
  <style>text {
  fill: #333;
  font-family: 'Roboto', sans-serif;
  font-weight: bold;
}
text.title {
  font-family: 'Comfortaa', sans-serif;
  font-weight: normal;
}
text.brand {
  font-family: 'Audiowide', sans-serif;
  font-weight: bold;
}

rect.module-background, .background-fill {
  fill: #ddd;
}
polyline.module-border-inner {
  stroke: #e4e4e4;
}
polyline.module-border-middle {
  stroke: #ebebeb;
}
polyline.module-border-outer {
  stroke: #f2f2f2;
}
</style>

  <svg>
      <svg>
      <rect class="module-background background-fill" width="45.0" height="380.0"/>
    </svg>
      <svg>
      <polyline class="module-border-inner" points="1,1 44.0,1 44.0,379.0 1,379.0 1,1" stroke-width="0.5" fill="none"/>
      <polyline class="module-border-middle" points="0.5,0.5 44.5,0.5 44.5,379.5 0.5,379.5 0.5,0.5" stroke-width="0.8" fill="none"/>
      <polyline class="module-border-outer" points="0,0 45.0,0 45.0,380.0 0,380.0 0,0" stroke-width="1" fill="none"/>
    </svg>
      <g transform="rotate(-90) translate(-376.0 13)">
        <text class="title" font-size="7pt" letter-spacing="2.5px">MANUAL</text>
        <g transform="translate(0 12)">
          <text class="brand" font-size="7pt" letter-spacing="2px">BGA</text>
          <rect width="3.0" height="3" fill="#ddd" transform="translate(11.5 -5)"/>
        </g>
      </g>
    </svg>

  <g transform="translate(0 18)">
    <g transform="translate(0 0)">
      <g transform="translate(5.5 0)">
        <rect width="34" height="10" fill="#fafafa" transform="translate(0 25)"/>
        <rect width="34" height="33" rx="5" fill="#fafafa"/>
        <g transform="translate(8 4)"><svg id="TRIGGER_PARAM">
      <g transform="translate(9 9)">
        <circle cx="0" cy="0" r="8.5" stroke-width="1" stroke="#00f" fill="#f00"/>
      </g>
    </svg></g>
        <text font-size="5pt" letter-spacing="2px" transform="translate(6.6 30)">TRIG</text>
      </g>
    </g>

    <g transform="translate(0 37)">
      <g transform="translate(5.5 0)">
        <rect width="34" height="10" fill="#bbb" transform="translate(0 -3)"/>
        <rect width="34" height="250" rx="5" fill="#bbb"/>

        <g transform="translate(2 2)">
          <g transform="translate(3 0)"><svg id="OUT1_OUTPUT">
      <g transform="translate(12 12)">
        <circle cx="0" cy="0" r="5" stroke-width="1" stroke="#f00" fill="#f00"/>
        <circle cx="0" cy="0" r="10.5" stroke-width="3" stroke="#f00" fill="none"/>
      </g>
    </svg></g>
          <g transform="translate(3 30)"><svg id="OUT2_OUTPUT">
      <g transform="translate(12 12)">
        <circle cx="0" cy="0" r="5" stroke-width="1" stroke="#f00" fill="#f00"/>
        <circle cx="0" cy="0" r="10.5" stroke-width="3" stroke="#f00" fill="none"/>
      </g>
    </svg></g>
          <g transform="translate(3 60)"><svg id="OUT3_OUTPUT">
      <g transform="translate(12 12)">
        <circle cx="0" cy="0" r="5" stroke-width="1" stroke="#f00" fill="#f00"/>
        <circle cx="0" cy="0" r="10.5" stroke-width="3" stroke="#f00" fill="none"/>
      </g>
    </svg></g>
          <g transform="translate(3 90)"><svg id="OUT4_OUTPUT">
      <g transform="translate(12 12)">
        <circle cx="0" cy="0" r="5" stroke-width="1" stroke="#f00" fill="#f00"/>
        <circle cx="0" cy="0" r="10.5" stroke-width="3" stroke="#f00" fill="none"/>
      </g>
    </svg></g>

          <g transform="translate(3 120)"><svg id="OUT5_OUTPUT">
      <g transform="translate(12 12)">
        <circle cx="0" cy="0" r="5" stroke-width="1" stroke="#f00" fill="#f00"/>
        <circle cx="0" cy="0" r="10.5" stroke-width="3" stroke="#f00" fill="none"/>
      </g>
    </svg></g>
          <g transform="translate(3 150)"><svg id="OUT6_OUTPUT">
      <g transform="translate(12 12)">
        <circle cx="0" cy="0" r="5" stroke-width="1" stroke="#f00" fill="#f00"/>
        <circle cx="0" cy="0" r="10.5" stroke-width="3" stroke="#f00" fill="none"/>
      </g>
    </svg></g>
          <g transform="translate(3 180)"><svg id="OUT7_OUTPUT">
      <g transform="translate(12 12)">
        <circle cx="0" cy="0" r="5" stroke-width="1" stroke="#f00" fill="#f00"/>
        <circle cx="0" cy="0" r="10.5" stroke-width="3" stroke="#f00" fill="none"/>
      </g>
    </svg></g>
          <g transform="translate(3 210)"><svg id="OUT8_OUTPUT">
      <g transform="translate(12 12)">
        <circle cx="0" cy="0" r="5" stroke-width="1" stroke="#f00" fill="#f00"/>
        <circle cx="0" cy="0" r="10.5" stroke-width="3" stroke="#f00" fill="none"/>
      </g>
    </svg></g>

          <text font-size="5pt" letter-spacing="2px" transform="translate(6.5 244)">OUT</text>
        </g>
      </g>
    </g>
  </g>
</svg>
