<?xml version="1.0"?>
<svg xmlns="http://www.w3.org/2000/svg" xmlns:xlink="http://www.w3.org/1999/xlink" version="1.1" width="90.0" height="380.0" viewBox="0 0 90.0 380.0">
  <style>text {
  fill: #333;
  font-family: 'Roboto', sans-serif;
  font-weight: bold;
}
text.title {
  font-family: 'Comfortaa', sans-serif;
  font-weight: normal;
}
text.brand {
  font-family: 'Audiowide', sans-serif;
  font-weight: bold;
}

polyline {
  stroke: #333;
}
path {
  stroke: #333;
}

rect.module-background, .background-fill {
  fill: #ddd;
}
polyline.module-border-inner {
  stroke: #e4e4e4;
}
polyline.module-border-middle {
  stroke: #ebebeb;
}
polyline.module-border-outer {
  stroke: #f2f2f2;
}

g.io-group {
}
rect.input-background, rect.input-background-filler {
  fill: #fafafa;
}
rect.output-background, rect.output-background-filler {
  fill: #bbb;
}
text.input-label, text.output-label {
  /* font-size: 6pt; */
}
polyline.input-label, polyline.output-label {
}
path.input-label, path.output-label {
}

circle.port-rim {
  stroke: #f0f0f0;
}
circle.port-barrel {
  stroke: #222;
  fill: #222;
}
circle.knob-center {
   fill: #eee;
}
circle.knob-rim {
   fill: #333;
}
circle.knob-tick {
  fill: #fff;
}
polyline.knob-tick {
  stroke: #fff;
}


text {
  fill: #eee;
}

polyline {
  stroke: #ccc;
}
path {
  stroke: #ccc;
}

rect.module-background, .background-fill {
  fill: #111;
}
polyline.module-border-inner {
  stroke: #191919;
}
polyline.module-border-middle {
  stroke: #111;
}
polyline.module-border-outer {
  stroke: #000;
}

rect.input-background, rect.input-background-filler {
  fill: #aaa;
}
rect.output-background, rect.output-background-filler {
  fill: #666;
}
text.input-label {
  fill: #222;
}
polyline.input-label, path.input-label {
  stroke: #222;
}
text.output-label {
  fill: #ddd;
}
polyline.output-label, path.output-label {
  stroke: #ddd;
}

circle.port-rim {
  stroke: #c0c0c0;
}
circle.port-barrel {
  stroke: #222;
  fill: #222;
}
circle.knob-center {
   fill: #888;
}
circle.knob-rim {
   fill: #444;
}
circle.knob-tick {
  fill: #fff;
}
polyline.knob-tick {
  stroke: #fff;
}
</style>

  
      
      <rect class="module-background background-fill" width="90.0" height="380.0"/>
    
      
      <polyline class="module-border-inner" points="1,1 89.0,1 89.0,379.0 1,379.0 1,1" stroke-width="0.5" fill="none"/>
      <polyline class="module-border-middle" points="0.5,0.5 89.5,0.5 89.5,379.5 0.5,379.5 0.5,0.5" stroke-width="0.8" fill="none"/>
      <polyline class="module-border-outer" points="0,0 90.0,0 90.0,380.0 0,380.0 0,0" stroke-width="1" fill="none"/>
    
      <text class="title" font-size="9pt" letter-spacing="0.7px" text-anchor="end" transform="translate(85.0 17)">MATRIX81</text>
      <g transform="translate(5.5 374)">
        <text class="brand" font-size="6.5pt" letter-spacing="2px">BOGAUDIO</text>
        <rect class="background-fill" width="1.5" height="2" fill="#ddd" transform="translate(21 -4)"/>
      </g>
    

  <g transform="translate(2 25)">
    <g class="io-group" transform="translate(5.5 0)">
      <rect class="input-background-filler" width="34" height="10" transform="translate(0 283)"/>
      <rect class="input-background" width="34" height="293" rx="5"/>
      <g transform="translate(5 5)"><svg id="IN1_INPUT">
      <g transform="translate(12 12)">
        <circle cx="0" cy="0" r="5" stroke-width="1" stroke="#0f0" fill="#0f0"/>
        <circle cx="0" cy="0" r="10.5" stroke-width="3" stroke="#0f0" fill="none"/>
      </g>
    </svg></g>
      <g transform="translate(5 42)"><svg id="IN2_INPUT">
      <g transform="translate(12 12)">
        <circle cx="0" cy="0" r="5" stroke-width="1" stroke="#0f0" fill="#0f0"/>
        <circle cx="0" cy="0" r="10.5" stroke-width="3" stroke="#0f0" fill="none"/>
      </g>
    </svg></g>
      <g transform="translate(5 79)"><svg id="IN3_INPUT">
      <g transform="translate(12 12)">
        <circle cx="0" cy="0" r="5" stroke-width="1" stroke="#0f0" fill="#0f0"/>
        <circle cx="0" cy="0" r="10.5" stroke-width="3" stroke="#0f0" fill="none"/>
      </g>
    </svg></g>
      <g transform="translate(5 116)"><svg id="IN4_INPUT">
      <g transform="translate(12 12)">
        <circle cx="0" cy="0" r="5" stroke-width="1" stroke="#0f0" fill="#0f0"/>
        <circle cx="0" cy="0" r="10.5" stroke-width="3" stroke="#0f0" fill="none"/>
      </g>
    </svg></g>
      <g transform="translate(5 153)"><svg id="IN5_INPUT">
      <g transform="translate(12 12)">
        <circle cx="0" cy="0" r="5" stroke-width="1" stroke="#0f0" fill="#0f0"/>
        <circle cx="0" cy="0" r="10.5" stroke-width="3" stroke="#0f0" fill="none"/>
      </g>
    </svg></g>
      <g transform="translate(5 190)"><svg id="IN6_INPUT">
      <g transform="translate(12 12)">
        <circle cx="0" cy="0" r="5" stroke-width="1" stroke="#0f0" fill="#0f0"/>
        <circle cx="0" cy="0" r="10.5" stroke-width="3" stroke="#0f0" fill="none"/>
      </g>
    </svg></g>
      <g transform="translate(5 227)"><svg id="IN7_INPUT">
      <g transform="translate(12 12)">
        <circle cx="0" cy="0" r="5" stroke-width="1" stroke="#0f0" fill="#0f0"/>
        <circle cx="0" cy="0" r="10.5" stroke-width="3" stroke="#0f0" fill="none"/>
      </g>
    </svg></g>
      <g transform="translate(5 264)"><svg id="IN8_INPUT">
      <g transform="translate(12 12)">
        <circle cx="0" cy="0" r="5" stroke-width="1" stroke="#0f0" fill="#0f0"/>
        <circle cx="0" cy="0" r="10.5" stroke-width="3" stroke="#0f0" fill="none"/>
      </g>
    </svg></g>
    </g>
    <g class="io-group" transform="translate(5.5 295)">
      <rect class="output-background-filler" width="34" height="10" transform="translate(0 -3)"/>
      <rect class="output-background" width="34" height="38" rx="5"/>
      <g transform="translate(5 1)"><svg id="OUT_OUTPUT">
      <g transform="translate(12 12)">
        <circle cx="0" cy="0" r="5" stroke-width="1" stroke="#f00" fill="#f00"/>
        <circle cx="0" cy="0" r="10.5" stroke-width="3" stroke="#f00" fill="none"/>
      </g>
    </svg></g>
      <text class="output-label" font-size="5pt" letter-spacing="2px" transform="translate(8.5 33)">OUT</text>
    </g>
  </g>

  <g transform="translate(52 0)">
    <g transform="translate(0 24)">
      <g transform="translate(3.5 8)"><svg id="MIX1_PARAM">
      <g transform="translate(10 10)">
        <polyline points="-3,0 3,0" stroke-width="1" stroke="#00f"/>
        <polyline points="0,-3 0,3" stroke-width="1" stroke="#00f"/>
        <circle cx="0" cy="0" r="9.3" stroke-width="1" stroke="#00f" fill="none"/>
      </g>
    </svg></g>
      <g transform="translate(-6.5 -2)">
      <g transform="translate(20 20)">
        <polyline points="0,0 4,0" stroke-width="1" transform="rotate(-90) translate(11.5 0)"/>
        <path d="M 0 -13.5 A 13.5 13.5 0 0 1 13.5 0" stroke-width="0.7" stroke-linecap="round" stroke="#ccc" fill="none" transform="rotate(20)"/>
        <path d="M 0 -13.5 A 13.5 13.5 0 0 1 13.5 0" stroke-width="0.7" stroke-linecap="round" stroke="#ccc" fill="none" transform="rotate(43)"/>
        <path d="M 0 -13.5 A 13.5 13.5 0 0 0 -13.5 0" stroke-width="0.7" stroke-linecap="round" stroke="#ccc" fill="none" transform="rotate(-20)"/>
        <path d="M 0 -13.5 A 13.5 13.5 0 0 0 -13.5 0" stroke-width="0.7" stroke-linecap="round" stroke="#ccc" fill="none" transform="rotate(-43)"/>
      </g>
    </g>
    </g>
    <g transform="translate(0 61)">
      <g transform="translate(3.5 8)"><svg id="MIX2_PARAM">
      <g transform="translate(10 10)">
        <polyline points="-3,0 3,0" stroke-width="1" stroke="#00f"/>
        <polyline points="0,-3 0,3" stroke-width="1" stroke="#00f"/>
        <circle cx="0" cy="0" r="9.3" stroke-width="1" stroke="#00f" fill="none"/>
      </g>
    </svg></g>
      <g transform="translate(-6.5 -2)">
      <g transform="translate(20 20)">
        <polyline points="0,0 4,0" stroke-width="1" transform="rotate(-90) translate(11.5 0)"/>
        <path d="M 0 -13.5 A 13.5 13.5 0 0 1 13.5 0" stroke-width="0.7" stroke-linecap="round" stroke="#ccc" fill="none" transform="rotate(20)"/>
        <path d="M 0 -13.5 A 13.5 13.5 0 0 1 13.5 0" stroke-width="0.7" stroke-linecap="round" stroke="#ccc" fill="none" transform="rotate(43)"/>
        <path d="M 0 -13.5 A 13.5 13.5 0 0 0 -13.5 0" stroke-width="0.7" stroke-linecap="round" stroke="#ccc" fill="none" transform="rotate(-20)"/>
        <path d="M 0 -13.5 A 13.5 13.5 0 0 0 -13.5 0" stroke-width="0.7" stroke-linecap="round" stroke="#ccc" fill="none" transform="rotate(-43)"/>
      </g>
    </g>
    </g>
    <g transform="translate(0 98)">
      <g transform="translate(3.5 8)"><svg id="MIX3_PARAM">
      <g transform="translate(10 10)">
        <polyline points="-3,0 3,0" stroke-width="1" stroke="#00f"/>
        <polyline points="0,-3 0,3" stroke-width="1" stroke="#00f"/>
        <circle cx="0" cy="0" r="9.3" stroke-width="1" stroke="#00f" fill="none"/>
      </g>
    </svg></g>
      <g transform="translate(-6.5 -2)">
      <g transform="translate(20 20)">
        <polyline points="0,0 4,0" stroke-width="1" transform="rotate(-90) translate(11.5 0)"/>
        <path d="M 0 -13.5 A 13.5 13.5 0 0 1 13.5 0" stroke-width="0.7" stroke-linecap="round" stroke="#ccc" fill="none" transform="rotate(20)"/>
        <path d="M 0 -13.5 A 13.5 13.5 0 0 1 13.5 0" stroke-width="0.7" stroke-linecap="round" stroke="#ccc" fill="none" transform="rotate(43)"/>
        <path d="M 0 -13.5 A 13.5 13.5 0 0 0 -13.5 0" stroke-width="0.7" stroke-linecap="round" stroke="#ccc" fill="none" transform="rotate(-20)"/>
        <path d="M 0 -13.5 A 13.5 13.5 0 0 0 -13.5 0" stroke-width="0.7" stroke-linecap="round" stroke="#ccc" fill="none" transform="rotate(-43)"/>
      </g>
    </g>
    </g>
    <g transform="translate(0 135)">
      <g transform="translate(3.5 8)"><svg id="MIX4_PARAM">
      <g transform="translate(10 10)">
        <polyline points="-3,0 3,0" stroke-width="1" stroke="#00f"/>
        <polyline points="0,-3 0,3" stroke-width="1" stroke="#00f"/>
        <circle cx="0" cy="0" r="9.3" stroke-width="1" stroke="#00f" fill="none"/>
      </g>
    </svg></g>
      <g transform="translate(-6.5 -2)">
      <g transform="translate(20 20)">
        <polyline points="0,0 4,0" stroke-width="1" transform="rotate(-90) translate(11.5 0)"/>
        <path d="M 0 -13.5 A 13.5 13.5 0 0 1 13.5 0" stroke-width="0.7" stroke-linecap="round" stroke="#ccc" fill="none" transform="rotate(20)"/>
        <path d="M 0 -13.5 A 13.5 13.5 0 0 1 13.5 0" stroke-width="0.7" stroke-linecap="round" stroke="#ccc" fill="none" transform="rotate(43)"/>
        <path d="M 0 -13.5 A 13.5 13.5 0 0 0 -13.5 0" stroke-width="0.7" stroke-linecap="round" stroke="#ccc" fill="none" transform="rotate(-20)"/>
        <path d="M 0 -13.5 A 13.5 13.5 0 0 0 -13.5 0" stroke-width="0.7" stroke-linecap="round" stroke="#ccc" fill="none" transform="rotate(-43)"/>
      </g>
    </g>
    </g>
    <g transform="translate(0 172)">
      <g transform="translate(3.5 8)"><svg id="MIX5_PARAM">
      <g transform="translate(10 10)">
        <polyline points="-3,0 3,0" stroke-width="1" stroke="#00f"/>
        <polyline points="0,-3 0,3" stroke-width="1" stroke="#00f"/>
        <circle cx="0" cy="0" r="9.3" stroke-width="1" stroke="#00f" fill="none"/>
      </g>
    </svg></g>
      <g transform="translate(-6.5 -2)">
      <g transform="translate(20 20)">
        <polyline points="0,0 4,0" stroke-width="1" transform="rotate(-90) translate(11.5 0)"/>
        <path d="M 0 -13.5 A 13.5 13.5 0 0 1 13.5 0" stroke-width="0.7" stroke-linecap="round" stroke="#ccc" fill="none" transform="rotate(20)"/>
        <path d="M 0 -13.5 A 13.5 13.5 0 0 1 13.5 0" stroke-width="0.7" stroke-linecap="round" stroke="#ccc" fill="none" transform="rotate(43)"/>
        <path d="M 0 -13.5 A 13.5 13.5 0 0 0 -13.5 0" stroke-width="0.7" stroke-linecap="round" stroke="#ccc" fill="none" transform="rotate(-20)"/>
        <path d="M 0 -13.5 A 13.5 13.5 0 0 0 -13.5 0" stroke-width="0.7" stroke-linecap="round" stroke="#ccc" fill="none" transform="rotate(-43)"/>
      </g>
    </g>
    </g>
    <g transform="translate(0 209)">
      <g transform="translate(3.5 8)"><svg id="MIX6_PARAM">
      <g transform="translate(10 10)">
        <polyline points="-3,0 3,0" stroke-width="1" stroke="#00f"/>
        <polyline points="0,-3 0,3" stroke-width="1" stroke="#00f"/>
        <circle cx="0" cy="0" r="9.3" stroke-width="1" stroke="#00f" fill="none"/>
      </g>
    </svg></g>
      <g transform="translate(-6.5 -2)">
      <g transform="translate(20 20)">
        <polyline points="0,0 4,0" stroke-width="1" transform="rotate(-90) translate(11.5 0)"/>
        <path d="M 0 -13.5 A 13.5 13.5 0 0 1 13.5 0" stroke-width="0.7" stroke-linecap="round" stroke="#ccc" fill="none" transform="rotate(20)"/>
        <path d="M 0 -13.5 A 13.5 13.5 0 0 1 13.5 0" stroke-width="0.7" stroke-linecap="round" stroke="#ccc" fill="none" transform="rotate(43)"/>
        <path d="M 0 -13.5 A 13.5 13.5 0 0 0 -13.5 0" stroke-width="0.7" stroke-linecap="round" stroke="#ccc" fill="none" transform="rotate(-20)"/>
        <path d="M 0 -13.5 A 13.5 13.5 0 0 0 -13.5 0" stroke-width="0.7" stroke-linecap="round" stroke="#ccc" fill="none" transform="rotate(-43)"/>
      </g>
    </g>
    </g>
    <g transform="translate(0 246)">
      <g transform="translate(3.5 8)"><svg id="MIX7_PARAM">
      <g transform="translate(10 10)">
        <polyline points="-3,0 3,0" stroke-width="1" stroke="#00f"/>
        <polyline points="0,-3 0,3" stroke-width="1" stroke="#00f"/>
        <circle cx="0" cy="0" r="9.3" stroke-width="1" stroke="#00f" fill="none"/>
      </g>
    </svg></g>
      <g transform="translate(-6.5 -2)">
      <g transform="translate(20 20)">
        <polyline points="0,0 4,0" stroke-width="1" transform="rotate(-90) translate(11.5 0)"/>
        <path d="M 0 -13.5 A 13.5 13.5 0 0 1 13.5 0" stroke-width="0.7" stroke-linecap="round" stroke="#ccc" fill="none" transform="rotate(20)"/>
        <path d="M 0 -13.5 A 13.5 13.5 0 0 1 13.5 0" stroke-width="0.7" stroke-linecap="round" stroke="#ccc" fill="none" transform="rotate(43)"/>
        <path d="M 0 -13.5 A 13.5 13.5 0 0 0 -13.5 0" stroke-width="0.7" stroke-linecap="round" stroke="#ccc" fill="none" transform="rotate(-20)"/>
        <path d="M 0 -13.5 A 13.5 13.5 0 0 0 -13.5 0" stroke-width="0.7" stroke-linecap="round" stroke="#ccc" fill="none" transform="rotate(-43)"/>
      </g>
    </g>
    </g>
    <g transform="translate(0 283)">
      <g transform="translate(3.5 8)"><svg id="MIX8_PARAM">
      <g transform="translate(10 10)">
        <polyline points="-3,0 3,0" stroke-width="1" stroke="#00f"/>
        <polyline points="0,-3 0,3" stroke-width="1" stroke="#00f"/>
        <circle cx="0" cy="0" r="9.3" stroke-width="1" stroke="#00f" fill="none"/>
      </g>
    </svg></g>
      <g transform="translate(-6.5 -2)">
      <g transform="translate(20 20)">
        <polyline points="0,0 4,0" stroke-width="1" transform="rotate(-90) translate(11.5 0)"/>
        <path d="M 0 -13.5 A 13.5 13.5 0 0 1 13.5 0" stroke-width="0.7" stroke-linecap="round" stroke="#ccc" fill="none" transform="rotate(20)"/>
        <path d="M 0 -13.5 A 13.5 13.5 0 0 1 13.5 0" stroke-width="0.7" stroke-linecap="round" stroke="#ccc" fill="none" transform="rotate(43)"/>
        <path d="M 0 -13.5 A 13.5 13.5 0 0 0 -13.5 0" stroke-width="0.7" stroke-linecap="round" stroke="#ccc" fill="none" transform="rotate(-20)"/>
        <path d="M 0 -13.5 A 13.5 13.5 0 0 0 -13.5 0" stroke-width="0.7" stroke-linecap="round" stroke="#ccc" fill="none" transform="rotate(-43)"/>
      </g>
    </g>
    </g>
  </g>

  
  
  
  
  
  
  
  
  
  
</svg>
