<?xml version="1.0"?>
<svg xmlns="http://www.w3.org/2000/svg" xmlns:xlink="http://www.w3.org/1999/xlink" version="1.1" width="45" height="380" viewBox="0 0 45 380">
  <style>text {
  fill: #333;
  font-family: 'Roboto', sans-serif;
  font-weight: bold;
}
text.title {
  font-family: 'Comfortaa', sans-serif;
  font-weight: normal;
}
text.brand {
  font-family: 'Audiowide', sans-serif;
  font-weight: bold;
}

polyline {
  stroke: #333;
}
path {
  stroke: #333;
}

rect.module-background, .background-fill {
  fill: #ddd;
}
polyline.module-border-inner {
  stroke: #e4e4e4;
}
polyline.module-border-middle {
  stroke: #ebebeb;
}
polyline.module-border-outer {
  stroke: #f2f2f2;
}

g.io-group {
}
rect.input-background {
  fill: #fafafa;
}
rect.input-background-filler {
  fill: #fafafa;
}
rect.output-background {
  fill: #bbb;
}
rect.output-background-filler {
  fill: #bbb;
}
text.input-label, text.output-label {
  /* font-size: 6pt; */
}
</style>

  <defs>
    <symbol id="compression-mono" viewBox="0 0 11px 75px">
      
      <rect width="5" height="13" x="0" y="1" rx="0" fill="#aaa" transform="translate(3 0)"/>
      <rect width="5" height="13" x="0" y="1" rx="0" fill="#aaa" transform="translate(3 15)"/>
    </symbol>

    <symbol id="guide-compression-mono" viewBox="0 0 20px 95px">
      <g transform="translate(0 10)">
        <g transform="translate(0 0)">
          <polyline points="0,0 3,0" fill="none" transform="translate(11 0)"/>
          <text font-size="6.0pt" transform="translate(7 0) rotate(-90) translate(-4.5 2.2)">12+</text>
        </g>
        <g transform="translate(0 15)">
          <polyline points="0,0 3,0" fill="none" transform="translate(11 0)"/>
          <text font-size="6.0pt" transform="translate(7 0) rotate(-90) translate(-2.5 2.2)">6</text>
        </g>
        <g transform="translate(0 30)">
          <polyline points="0,0 3,0" fill="none" transform="translate(11 0)"/>
          <text font-size="6.0pt" transform="translate(7 0) rotate(-90) translate(-2.5 2.2)">0</text>
        </g>

        <g transform="translate(0 15)">
          
          <text font-size="6.0pt" transform="translate(31 0) rotate(-90) translate(-4.5 2.2)">dB</text>
        </g>
      </g>
    </symbol>
  </defs>

  
      
      <rect class="module-background background-fill" width="45.0" height="380.0"/>
    
      
      <polyline class="module-border-inner" points="1,1 44.0,1 44.0,379.0 1,379.0 1,1" stroke-width="0.5" fill="none"/>
      <polyline class="module-border-middle" points="0.5,0.5 44.5,0.5 44.5,379.5 0.5,379.5 0.5,0.5" stroke-width="0.8" fill="none"/>
      <polyline class="module-border-outer" points="0,0 45.0,0 45.0,380.0 0,380.0 0,0" stroke-width="1" fill="none"/>
    
      <g transform="rotate(-90) translate(-376.0 13)">
        <text class="title" font-size="7pt" letter-spacing="2.5px">MONO</text>
        <g transform="translate(0 12)">
          <text class="brand" font-size="7pt" letter-spacing="2px">BGA</text>
          <rect width="3.0" height="3" fill="#ddd" transform="translate(11.5 -5)"/>
        </g>
      </g>
    

  <g transform="translate(0 25)">
    <text font-size="6pt" letter-spacing="2.0px" transform="translate(8 0)">CHAN</text>
  </g>

  <g transform="translate(2.5 30)">
    
    <g transform="translate(0, 0) translate(1.8 1.8)"><svg id="CHANNEL_1_WIDGET">
      <rect width="6.4" height="6.4" fill="#0f0"/>
    </svg></g>
    <g transform="translate(10, 0) translate(1.8 1.8)"><svg id="CHANNEL_2_WIDGET">
      <rect width="6.4" height="6.4" fill="#0f0"/>
    </svg></g>
    <g transform="translate(20, 0) translate(1.8 1.8)"><svg id="CHANNEL_3_WIDGET">
      <rect width="6.4" height="6.4" fill="#0f0"/>
    </svg></g>
    <g transform="translate(30, 0) translate(1.8 1.8)"><svg id="CHANNEL_4_WIDGET">
      <rect width="6.4" height="6.4" fill="#0f0"/>
    </svg></g>

    <g transform="translate(0, 10) translate(1.8 1.8)"><svg id="CHANNEL_5_WIDGET">
      <rect width="6.4" height="6.4" fill="#0f0"/>
    </svg></g>
    <g transform="translate(10, 10) translate(1.8 1.8)"><svg id="CHANNEL_6_WIDGET">
      <rect width="6.4" height="6.4" fill="#0f0"/>
    </svg></g>
    <g transform="translate(20, 10) translate(1.8 1.8)"><svg id="CHANNEL_7_WIDGET">
      <rect width="6.4" height="6.4" fill="#0f0"/>
    </svg></g>
    <g transform="translate(30, 10) translate(1.8 1.8)"><svg id="CHANNEL_8_WIDGET">
      <rect width="6.4" height="6.4" fill="#0f0"/>
    </svg></g>

    <g transform="translate(0, 20) translate(1.8 1.8)"><svg id="CHANNEL_9_WIDGET">
      <rect width="6.4" height="6.4" fill="#0f0"/>
    </svg></g>
    <g transform="translate(10, 20) translate(1.8 1.8)"><svg id="CHANNEL_10_WIDGET">
      <rect width="6.4" height="6.4" fill="#0f0"/>
    </svg></g>
    <g transform="translate(20, 20) translate(1.8 1.8)"><svg id="CHANNEL_11_WIDGET">
      <rect width="6.4" height="6.4" fill="#0f0"/>
    </svg></g>
    <g transform="translate(30, 20) translate(1.8 1.8)"><svg id="CHANNEL_12_WIDGET">
      <rect width="6.4" height="6.4" fill="#0f0"/>
    </svg></g>

    <g transform="translate(0, 30) translate(1.8 1.8)"><svg id="CHANNEL_13_WIDGET">
      <rect width="6.4" height="6.4" fill="#0f0"/>
    </svg></g>
    <g transform="translate(10, 30) translate(1.8 1.8)"><svg id="CHANNEL_14_WIDGET">
      <rect width="6.4" height="6.4" fill="#0f0"/>
    </svg></g>
    <g transform="translate(20, 30) translate(1.8 1.8)"><svg id="CHANNEL_15_WIDGET">
      <rect width="6.4" height="6.4" fill="#0f0"/>
    </svg></g>
    <g transform="translate(30, 30) translate(1.8 1.8)"><svg id="CHANNEL_16_WIDGET">
      <rect width="6.4" height="6.4" fill="#0f0"/>
    </svg></g>
  </g>

  
  
  

  <g transform="translate(0 92)">
    <text font-size="6pt" letter-spacing="2.0px" transform="translate(8 0)">COMP</text>
    <g transform="translate(9.5 7.5)"><svg id="COMPRESSION_PARAM">
      <g transform="translate(13 13)">
        <polyline points="-3,0 3,0" stroke-width="1" stroke="#00f"/>
        <polyline points="0,-3 0,3" stroke-width="1" stroke="#00f"/>
        <circle cx="0" cy="0" r="12.5" stroke-width="1" stroke="#00f" fill="none"/>
      </g>
    </svg></g>
    <g transform="translate(0 -2)">
      <g transform="translate(22.5 22.5)">
        <text font-size="5.0pt" transform="rotate(-240) translate(18 0) rotate(240) translate(-2 2)">0</text>
        <polyline points="0,0 2.5,0" stroke-width="0.3" transform="rotate(-210) translate(15 0)"/>
        <polyline points="0,0 2.5,0" stroke-width="0.3" transform="rotate(-180) translate(15 0)"/>
        <polyline points="0,0 2.5,0" stroke-width="0.3" transform="rotate(-150) translate(15 0)"/>
        <polyline points="0,0 2.5,0" stroke-width="0.3" transform="rotate(-120) translate(15 0)"/>
        <polyline points="0,0 2.5,0" stroke-width="0.3" transform="rotate(-90) translate(15 0)"/>
        <polyline points="0,0 2.5,0" stroke-width="0.3" transform="rotate(-60) translate(15 0)"/>
        <polyline points="0,0 2.5,0" stroke-width="0.3" transform="rotate(-30) translate(15 0)"/>
        <polyline points="0,0 2.5,0" stroke-width="0.3" transform="rotate(0) translate(15 0)"/>
        <polyline points="0,0 2.5,0" stroke-width="0.3" transform="rotate(30) translate(15 0)"/>
        <polyline points="0,0 3.5,0" stroke-width="1" transform="rotate(60) translate(15 0)"/>
      </g>
    </g>
  </g>

  <g transform="translate(17 147)">
    <use id="COMPRESSION_WIDGET" xlink:href="#compression-mono" transform="translate(0 -1)" href="#compression-mono"/>
    <use xlink:href="#guide-compression-mono" transform="translate(-13 -11)" href="#guide-compression-mono"/>
  </g>

  <g transform="translate(0 198)">
    <text font-size="6pt" letter-spacing="2.0px" transform="translate(7 0)">LEVEL</text>
    <g transform="translate(9.5 7.5)"><svg id="LEVEL_PARAM">
      <g transform="translate(13 13)">
        <polyline points="-3,0 3,0" stroke-width="1" stroke="#00f"/>
        <polyline points="0,-3 0,3" stroke-width="1" stroke="#00f"/>
        <circle cx="0" cy="0" r="12.5" stroke-width="1" stroke="#00f" fill="none"/>
      </g>
    </svg></g>
    <g transform="translate(0 -2)">
      <g transform="translate(22.5 22.5)">
        <text font-size="5.0pt" transform="rotate(-240) translate(18 0) rotate(240) translate(-2 2)">0</text>
        <polyline points="0,0 2.5,0" stroke-width="0.3" transform="rotate(-210) translate(15 0)"/>
        <polyline points="0,0 2.5,0" stroke-width="0.3" transform="rotate(-180) translate(15 0)"/>
        <polyline points="0,0 2.5,0" stroke-width="0.3" transform="rotate(-150) translate(15 0)"/>
        <polyline points="0,0 2.5,0" stroke-width="0.3" transform="rotate(-120) translate(15 0)"/>
        <polyline points="0,0 2.5,0" stroke-width="0.3" transform="rotate(-90) translate(15 0)"/>
        <polyline points="0,0 2.5,0" stroke-width="0.3" transform="rotate(-60) translate(15 0)"/>
        <polyline points="0,0 2.5,0" stroke-width="0.3" transform="rotate(-30) translate(15 0)"/>
        <polyline points="0,0 2.5,0" stroke-width="0.3" transform="rotate(0) translate(15 0)"/>
        <polyline points="0,0 2.5,0" stroke-width="0.3" transform="rotate(30) translate(15 0)"/>
        <polyline points="0,0 3.5,0" stroke-width="1" transform="rotate(60) translate(15 0)"/>
      </g>
    </g>
  </g>

  <g transform="translate(0 251)">
    <g class="io-group" transform="translate(5.5 0)">
      <rect class="input-background-filler" width="34" height="10" transform="translate(0 28)"/>
      <rect class="input-background" width="34" height="35" rx="5"/>
      <g transform="translate(5 3)"><svg id="POLY_INPUT">
      <g transform="translate(12 12)">
        <circle cx="0" cy="0" r="5" stroke-width="1" stroke="#0f0" fill="#0f0"/>
        <circle cx="0" cy="0" r="10.5" stroke-width="3" stroke="#0f0" fill="none"/>
      </g>
    </svg></g>
      <text class="input-label" font-size="5pt" letter-spacing="2px" transform="translate(6 35)">POLY</text>
    </g>
    <g class="io-group" transform="translate(5.5 41)">
      <rect class="output-background-filler" width="34" height="10" transform="translate(0 -3)"/>
      <rect class="output-background" width="34" height="35" rx="5"/>
      <g transform="translate(5 0)"><svg id="MONO_OUTPUT">
      <g transform="translate(12 12)">
        <circle cx="0" cy="0" r="5" stroke-width="1" stroke="#f00" fill="#f00"/>
        <circle cx="0" cy="0" r="10.5" stroke-width="3" stroke="#f00" fill="none"/>
      </g>
    </svg></g>
      <text class="output-label" font-size="5pt" letter-spacing="2px" transform="translate(4.5 32)">MONO</text>
    </g>
  </g>
</svg>
