<?xml version="1.0"?>
<svg xmlns="http://www.w3.org/2000/svg" xmlns:xlink="http://www.w3.org/1999/xlink" version="1.1" width="90" height="380" viewBox="0 0 90 380">
  <style>text {
  fill: #333;
  font-family: 'Roboto', sans-serif;
  font-weight: bold;
}
text.title {
  font-family: 'Comfortaa', sans-serif;
  font-weight: normal;
}
text.brand {
  font-family: 'Audiowide', sans-serif;
  font-weight: bold;
}
</style>

  <rect width="100%" height="100%" fill="#ddd"/>
  <polyline points="1,1 89,1 89,379 1,379 1,1" stroke="#e4e4e4" stroke-width="0.5" fill="none"/>
  <polyline points="0.5,0.5 89.5,0.5 89.5,379.5 0.5,379.5 0.5,0.5" stroke="#ebebeb" stroke-width="0.8" fill="none"/>
  <polyline points="0,0 90,0 90,380 0,380 0,0" stroke="#f2f2f2" stroke-width="1" fill="none"/>

  <text class="title" x="26" y="17" font-size="9pt" letter-spacing="3px">MUMIX</text>
  <g transform="translate(5.5 374)">
    <text class="brand" font-size="6.5pt" letter-spacing="2px">BOGAUDIO</text>
    <rect width="1.5" height="2" fill="#ddd" transform="translate(21 -4)"/>
  </g>

  <g transform="translate(2 25)">
    <g transform="translate(5.5 0)">
      <rect width="34" height="10" fill="#fafafa" transform="translate(0 283)"/>
      <rect width="34" height="293" rx="5" fill="#fafafa"/>
      <g transform="translate(5 5)"><svg id="IN1_INPUT">
      <g transform="translate(12 12)">
        <circle cx="0" cy="0" r="5" stroke-width="1" stroke="#0f0" fill="#0f0"/>
        <circle cx="0" cy="0" r="10.5" stroke-width="3" stroke="#0f0" fill="none"/>
      </g>
    </svg></g>
      <g transform="translate(5 42)"><svg id="IN2_INPUT">
      <g transform="translate(12 12)">
        <circle cx="0" cy="0" r="5" stroke-width="1" stroke="#0f0" fill="#0f0"/>
        <circle cx="0" cy="0" r="10.5" stroke-width="3" stroke="#0f0" fill="none"/>
      </g>
    </svg></g>
      <g transform="translate(5 79)"><svg id="IN3_INPUT">
      <g transform="translate(12 12)">
        <circle cx="0" cy="0" r="5" stroke-width="1" stroke="#0f0" fill="#0f0"/>
        <circle cx="0" cy="0" r="10.5" stroke-width="3" stroke="#0f0" fill="none"/>
      </g>
    </svg></g>
      <g transform="translate(5 116)"><svg id="IN4_INPUT">
      <g transform="translate(12 12)">
        <circle cx="0" cy="0" r="5" stroke-width="1" stroke="#0f0" fill="#0f0"/>
        <circle cx="0" cy="0" r="10.5" stroke-width="3" stroke="#0f0" fill="none"/>
      </g>
    </svg></g>
      <g transform="translate(5 153)"><svg id="IN5_INPUT">
      <g transform="translate(12 12)">
        <circle cx="0" cy="0" r="5" stroke-width="1" stroke="#0f0" fill="#0f0"/>
        <circle cx="0" cy="0" r="10.5" stroke-width="3" stroke="#0f0" fill="none"/>
      </g>
    </svg></g>
      <g transform="translate(5 190)"><svg id="IN6_INPUT">
      <g transform="translate(12 12)">
        <circle cx="0" cy="0" r="5" stroke-width="1" stroke="#0f0" fill="#0f0"/>
        <circle cx="0" cy="0" r="10.5" stroke-width="3" stroke="#0f0" fill="none"/>
      </g>
    </svg></g>
      <g transform="translate(5 227)"><svg id="IN7_INPUT">
      <g transform="translate(12 12)">
        <circle cx="0" cy="0" r="5" stroke-width="1" stroke="#0f0" fill="#0f0"/>
        <circle cx="0" cy="0" r="10.5" stroke-width="3" stroke="#0f0" fill="none"/>
      </g>
    </svg></g>
      <g transform="translate(5 264)"><svg id="IN8_INPUT">
      <g transform="translate(12 12)">
        <circle cx="0" cy="0" r="5" stroke-width="1" stroke="#0f0" fill="#0f0"/>
        <circle cx="0" cy="0" r="10.5" stroke-width="3" stroke="#0f0" fill="none"/>
      </g>
    </svg></g>
    </g>
    <g transform="translate(5.5 295)">
      <rect width="34" height="10" fill="#bbb" transform="translate(0 -3)"/>
      <rect width="34" height="38" rx="5" fill="#bbb"/>
      <g transform="translate(5 1)"><svg id="OUT_OUTPUT">
      <g transform="translate(12 12)">
        <circle cx="0" cy="0" r="5" stroke-width="1" stroke="#f00" fill="#f00"/>
        <circle cx="0" cy="0" r="10.5" stroke-width="3" stroke="#f00" fill="none"/>
      </g>
    </svg></g>
      <text font-size="5pt" letter-spacing="2px" transform="translate(8.5 33)">OUT</text>
    </g>
  </g>

  <g transform="translate(55.5 24)">
    <g transform="translate(1 9)"><svg id="MUTE1_PARAM">
      <g transform="translate(9 9)">
        <circle cx="0" cy="0" r="8.5" stroke-width="1" stroke="#00f" fill="#f00"/>
      </g>
    </svg></g>
    <g transform="translate(1 46)"><svg id="MUTE2_PARAM">
      <g transform="translate(9 9)">
        <circle cx="0" cy="0" r="8.5" stroke-width="1" stroke="#00f" fill="#f00"/>
      </g>
    </svg></g>
    <g transform="translate(1 83)"><svg id="MUTE3_PARAM">
      <g transform="translate(9 9)">
        <circle cx="0" cy="0" r="8.5" stroke-width="1" stroke="#00f" fill="#f00"/>
      </g>
    </svg></g>
    <g transform="translate(1 120)"><svg id="MUTE4_PARAM">
      <g transform="translate(9 9)">
        <circle cx="0" cy="0" r="8.5" stroke-width="1" stroke="#00f" fill="#f00"/>
      </g>
    </svg></g>
    <g transform="translate(1 157)"><svg id="MUTE5_PARAM">
      <g transform="translate(9 9)">
        <circle cx="0" cy="0" r="8.5" stroke-width="1" stroke="#00f" fill="#f00"/>
      </g>
    </svg></g>
    <g transform="translate(1 194)"><svg id="MUTE6_PARAM">
      <g transform="translate(9 9)">
        <circle cx="0" cy="0" r="8.5" stroke-width="1" stroke="#00f" fill="#f00"/>
      </g>
    </svg></g>
    <g transform="translate(1 231)"><svg id="MUTE7_PARAM">
      <g transform="translate(9 9)">
        <circle cx="0" cy="0" r="8.5" stroke-width="1" stroke="#00f" fill="#f00"/>
      </g>
    </svg></g>
    <g transform="translate(1 268)"><svg id="MUTE8_PARAM">
      <g transform="translate(9 9)">
        <circle cx="0" cy="0" r="8.5" stroke-width="1" stroke="#00f" fill="#f00"/>
      </g>
    </svg></g>
  </g>

  <!-- <polyline points="0,0 0,380" stroke-width="0.5" stroke="#0f0" transform="translate(24.5 0)" /> -->
  <!-- <polyline points="0,0 0,380" stroke-width="0.5" stroke="#0f0" transform="translate(65.5 0)" /> -->
  <!-- <polyline points="0,0 90,0" stroke-width="0.5" stroke="#0f0" transform="translate(0 42)" /> -->
  <!-- <polyline points="0,0 90,0" stroke-width="0.5" stroke="#0f0" transform="translate(0 79)" /> -->
  <!-- <polyline points="0,0 90,0" stroke-width="0.5" stroke="#0f0" transform="translate(0 116)" /> -->
  <!-- <polyline points="0,0 90,0" stroke-width="0.5" stroke="#0f0" transform="translate(0 153)" /> -->
  <!-- <polyline points="0,0 90,0" stroke-width="0.5" stroke="#0f0" transform="translate(0 190)" /> -->
  <!-- <polyline points="0,0 90,0" stroke-width="0.5" stroke="#0f0" transform="translate(0 227)" /> -->
  <!-- <polyline points="0,0 90,0" stroke-width="0.5" stroke="#0f0" transform="translate(0 264)" /> -->
  <!-- <polyline points="0,0 90,0" stroke-width="0.5" stroke="#0f0" transform="translate(0 301)" /> -->
</svg>
