<?xml version="1.0"?>
<svg xmlns="http://www.w3.org/2000/svg" xmlns:xlink="http://www.w3.org/1999/xlink" version="1.1" width="45" height="380" viewBox="0 0 45 380">
  <style>text {
  fill: #333;
  font-family: 'Roboto', sans-serif;
  font-weight: bold;
}
text.title {
  font-family: 'Comfortaa', sans-serif;
  font-weight: normal;
}
text.brand {
  font-family: 'Audiowide', sans-serif;
  font-weight: bold;
}

path, polyline {
  stroke: #333;
}

rect.module-background, .background-fill {
  fill: #ddd;
}
polyline.module-border-inner {
  stroke: #e4e4e4;
}
polyline.module-border-middle {
  stroke: #ebebeb;
}
polyline.module-border-outer {
  stroke: #f2f2f2;
}
</style>

  <defs>
    <symbol id="dial-offset-offset" viewBox="0 0 45px 45px">
      <g transform="translate(22.5 22.5)">
        <g transform="rotate(-240) translate(17 0)">
          <polyline points="0,0 4,0" stroke-width="1.5"/>
        </g>
        <g transform="rotate(-225) translate(17 0)">
          <polyline points="0,0 3,0" stroke-width="0.3"/>
        </g>
        <g transform="rotate(-210) translate(17 0)">
          <polyline points="0,0 3,0" stroke-width="0.3"/>
        </g>
        <g transform="rotate(-195) translate(17 0)">
          <polyline points="0,0 3,0" stroke-width="0.3"/>
        </g>
        <g transform="rotate(-180) translate(17 0)">
          <polyline points="0,0 3,0" stroke-width="0.3"/>
        </g>
        <g transform="rotate(-165) translate(17 0)">
          <polyline points="0,0 4,0" stroke-width="1.5"/>
        </g>
        <g transform="rotate(-150) translate(17 0)">
          <polyline points="0,0 3,0" stroke-width="0.3"/>
        </g>
        <g transform="rotate(-135) translate(17 0)">
          <polyline points="0,0 3,0" stroke-width="0.3"/>
        </g>
        <g transform="rotate(-120) translate(17 0)">
          <polyline points="0,0 3,0" stroke-width="0.3"/>
        </g>
        <g transform="rotate(-105) translate(17 0)">
          <polyline points="0,0 3,0" stroke-width="0.3"/>
        </g>

        <g transform="rotate(-90) translate(17 0)">
          
          <g transform="translate(2.4 0) rotate(90)">
            <text font-size="6.5pt" transform="translate(-2.3 3.3)">0</text>
          </g>
        </g>

        <g transform="rotate(-75) translate(17 0)">
          <polyline points="0,0 3,0" stroke-width="0.3"/>
        </g>
        <g transform="rotate(-60) translate(17 0)">
          <polyline points="0,0 3,0" stroke-width="0.3"/>
        </g>
        <g transform="rotate(-45) translate(17 0)">
          <polyline points="0,0 3,0" stroke-width="0.3"/>
        </g>
        <g transform="rotate(-30) translate(17 0)">
          <polyline points="0,0 3,0" stroke-width="0.3"/>
        </g>
        <g transform="rotate(-15) translate(17 0)">
          <polyline points="0,0 4,0" stroke-width="1.5"/>
        </g>
        <g transform="rotate(0) translate(17 0)">
          <polyline points="0,0 3,0" stroke-width="0.3"/>
        </g>
        <g transform="rotate(15) translate(17 0)">
          <polyline points="0,0 3,0" stroke-width="0.3"/>
        </g>
        <g transform="rotate(30) translate(17 0)">
          <polyline points="0,0 3,0" stroke-width="0.3"/>
        </g>
        <g transform="rotate(45) translate(17 0)">
          <polyline points="0,0 3,0" stroke-width="0.3"/>
        </g>
        <g transform="rotate(60) translate(17 0)">
          <polyline points="0,0 4,0" stroke-width="1.5"/>
        </g>

        <g transform="rotate(-225) translate(22 0)">
          
          <g transform="translate(2.5 0) rotate(225)">
            <text font-size="9pt" transform="translate(-2 3.4)">-</text>
          </g>
        </g>
        <g transform="rotate(45) translate(22 0)">
          
          <g transform="translate(2.5 0) rotate(-45)">
            <text font-size="7pt" transform="translate(-2.9 3)">+</text>
          </g>
        </g>
      </g>
    </symbol>

    <symbol id="dial-exp-offset" viewBox="0 0 45px 45px">
      <g transform="translate(22.5 22.5)">
        <g transform="rotate(-240) translate(17 0)">
          <polyline points="0,0 4,0" stroke-width="1.5"/>
        </g>
        <g transform="rotate(-232.3) translate(17 0)">
          <polyline points="0,0 3,0" stroke-width="0.3"/>
        </g>
        <g transform="rotate(-224.2) translate(17 0)">
          <polyline points="0,0 3,0" stroke-width="0.3"/>
        </g>
        <g transform="rotate(-215.5) translate(17 0)">
          <polyline points="0,0 3,0" stroke-width="0.3"/>
        </g>
        <g transform="rotate(-206.2) translate(17 0)">
          <polyline points="0,0 3,0" stroke-width="0.3"/>
        </g>
        <g transform="rotate(-196.1) translate(17 0)">
          <polyline points="0,0 4,0" stroke-width="1.5"/>
        </g>
        <g transform="rotate(-184.9) translate(17 0)">
          <polyline points="0,0 3,0" stroke-width="0.3"/>
        </g>
        <g transform="rotate(-172.2) translate(17 0)">
          <polyline points="0,0 3,0" stroke-width="0.3"/>
        </g>
        <g transform="rotate(-157.1) translate(17 0)">
          <polyline points="0,0 3,0" stroke-width="0.3"/>
        </g>
        <g transform="rotate(-137.4) translate(17 0)">
          <polyline points="0,0 4,0" stroke-width="1.5"/>
        </g>
        <g transform="rotate(-123.5) translate(17 0)">
          <polyline points="0,0 1,0" stroke-width="0.3"/>
        </g>

        <g transform="rotate(-90) translate(17 0)">
          
          <g transform="translate(2.4 0) rotate(90)">
            <text font-size="6.5pt" transform="translate(-2.3 3.3)">0</text>
          </g>
        </g>

        <g transform="rotate(-56.5) translate(17 0)">
          <polyline points="0,0 1,0" stroke-width="0.3"/>
        </g>
        <g transform="rotate(-42.3) translate(17 0)">
          <polyline points="0,0 4,0" stroke-width="1.5"/>
        </g>
        <g transform="rotate(-22.9) translate(17 0)">
          <polyline points="0,0 3,0" stroke-width="0.3"/>
        </g>
        <g transform="rotate(-7.8) translate(17 0)">
          <polyline points="0,0 3,0" stroke-width="0.3"/>
        </g>
        <g transform="rotate(4.8) translate(17 0)">
          <polyline points="0,0 3,0" stroke-width="0.3"/>
        </g>
        <g transform="rotate(16.1) translate(17 0)">
          <polyline points="0,0 4,0" stroke-width="1.5"/>
        </g>
        <g transform="rotate(26.2) translate(17 0)">
          <polyline points="0,0 3,0" stroke-width="0.3"/>
        </g>
        <g transform="rotate(35.5) translate(17 0)">
          <polyline points="0,0 3,0" stroke-width="0.3"/>
        </g>
        <g transform="rotate(44.2) translate(17 0)">
          <polyline points="0,0 3,0" stroke-width="0.3"/>
        </g>
        <g transform="rotate(52.3) translate(17 0)">
          <polyline points="0,0 3,0" stroke-width="0.3"/>
        </g>
        <g transform="rotate(60) translate(17 0)">
          <polyline points="0,0 4,0" stroke-width="1.5"/>
        </g>

        <g transform="rotate(-225) translate(22 0)">
          
          <g transform="translate(2.5 0) rotate(225)">
            <text font-size="9pt" transform="translate(-2 3.4)">-</text>
          </g>
        </g>
        <g transform="rotate(45) translate(22 0)">
          
          <g transform="translate(2.5 0) rotate(-45)">
            <text font-size="7pt" transform="translate(-2.9 3)">+</text>
          </g>
        </g>
      </g>
    </symbol>
  </defs>

  
      
      <rect class="module-background background-fill" width="45.0" height="380.0"/>
    
      
      <polyline class="module-border-inner" points="1,1 44.0,1 44.0,379.0 1,379.0 1,1" stroke-width="0.5" fill="none"/>
      <polyline class="module-border-middle" points="0.5,0.5 44.5,0.5 44.5,379.5 0.5,379.5 0.5,0.5" stroke-width="0.8" fill="none"/>
      <polyline class="module-border-outer" points="0,0 45.0,0 45.0,380.0 0,380.0 0,0" stroke-width="1" fill="none"/>
    
      <g transform="rotate(-90) translate(-376.0 13)">
        <text class="title" font-size="7pt" letter-spacing="2.5px">OFFSET</text>
        <g transform="translate(0 12)">
          <text class="brand" font-size="7pt" letter-spacing="2px">BGA</text>
          <rect width="3.0" height="3" fill="#ddd" transform="translate(11.5 -5)"/>
        </g>
      </g>
    

  <g transform="translate(0 25)">
    <text font-size="6pt" letter-spacing="2px" transform="translate(3 0)">OFFSET</text>
    <g transform="translate(0 7)"><svg id="OFFSET_PARAM">
      <g transform="translate(22.5 22.5)">
        <polyline points="-5,0 5,0" stroke-width="1" stroke="#00f"/>
        <polyline points="0,-5 0,5" stroke-width="1" stroke="#00f"/>
        <circle cx="0" cy="0" r="14" stroke-width="1" stroke="#00f" fill="none"/>
      </g>
    </svg></g>
    <use xlink:href="#dial-offset-offset" transform="scale(1) translate(0 7)" href="#dial-offset-offset"/>
    <g transform="translate(5.5 53)">
      <rect width="34" height="39" rx="5" fill="#fafafa"/>
      <g transform="translate(5 3)"><svg id="OFFSET_INPUT">
      <g transform="translate(12 12)">
        <circle cx="0" cy="0" r="5" stroke-width="1" stroke="#0f0" fill="#0f0"/>
        <circle cx="0" cy="0" r="10.5" stroke-width="3" stroke="#0f0" fill="none"/>
      </g>
    </svg></g>
      <text font-size="5pt" letter-spacing="2px" transform="translate(11 35)">CV</text>
    </g>
  </g>

  <g transform="translate(0 137)">
    <text font-size="6pt" letter-spacing="2px" transform="translate(6 0)">SCALE</text>
    <g transform="translate(0 7)"><svg id="SCALE_PARAM">
      <g transform="translate(22.5 22.5)">
        <polyline points="-5,0 5,0" stroke-width="1" stroke="#00f"/>
        <polyline points="0,-5 0,5" stroke-width="1" stroke="#00f"/>
        <circle cx="0" cy="0" r="14" stroke-width="1" stroke="#00f" fill="none"/>
      </g>
    </svg></g>
    <use xlink:href="#dial-exp-offset" transform="scale(1) translate(0 7)" href="#dial-exp-offset"/>
    <g transform="translate(5.5 53)">
      <rect width="34" height="38" rx="5" fill="#fafafa"/>
      <g transform="translate(5 3)"><svg id="SCALE_INPUT">
      <g transform="translate(12 12)">
        <circle cx="0" cy="0" r="5" stroke-width="1" stroke="#0f0" fill="#0f0"/>
        <circle cx="0" cy="0" r="10.5" stroke-width="3" stroke="#0f0" fill="none"/>
      </g>
    </svg></g>
      <text font-size="5pt" letter-spacing="2px" transform="translate(11 35)">CV</text>
    </g>
  </g>

  <g transform="translate(0 240)">
    <g transform="translate(5.5 0)">
      <rect width="34" height="10" fill="#fafafa" transform="translate(0 28)"/>
      <rect width="34" height="35" rx="5" fill="#fafafa"/>
      <g transform="translate(5 3)"><svg id="IN_INPUT">
      <g transform="translate(12 12)">
        <circle cx="0" cy="0" r="5" stroke-width="1" stroke="#0f0" fill="#0f0"/>
        <circle cx="0" cy="0" r="10.5" stroke-width="3" stroke="#0f0" fill="none"/>
      </g>
    </svg></g>
      <text font-size="5pt" letter-spacing="2px" transform="translate(12.5 35)">IN</text>
    </g>
    <g transform="translate(5.5 41)">
      <rect width="34" height="10" fill="#bbb" transform="translate(0 -3)"/>
      <rect width="34" height="35" rx="5" fill="#bbb"/>
      <g transform="translate(5 0)"><svg id="OUT_OUTPUT">
      <g transform="translate(12 12)">
        <circle cx="0" cy="0" r="5" stroke-width="1" stroke="#f00" fill="#f00"/>
        <circle cx="0" cy="0" r="10.5" stroke-width="3" stroke="#f00" fill="none"/>
      </g>
    </svg></g>
      <text font-size="5pt" letter-spacing="2px" transform="translate(8.3 32)">OUT</text>
    </g>
  </g>

  
</svg>
