<?xml version="1.0"?>
<svg xmlns="http://www.w3.org/2000/svg" xmlns:xlink="http://www.w3.org/1999/xlink" version="1.1" width="150" height="380" viewBox="0 0 150 380">
  <style>text {
  fill: #333;
  font-family: 'Roboto', sans-serif;
  font-weight: bold;
}
text.title {
  font-family: 'Comfortaa', sans-serif;
  font-weight: normal;
}
text.brand {
  font-family: 'Audiowide', sans-serif;
  font-weight: bold;
}
</style>

  <defs>
    <symbol id="knob29" viewBox="0 0 45px 45px">
      <g transform="translate(22.5 22.5)">
        <polyline points="-5,0 5,0" stroke-width="1" stroke="#00f"/>
        <polyline points="0,-5 0,5" stroke-width="1" stroke="#00f"/>
        <circle cx="0" cy="0" r="14" stroke-width="1" stroke="#00f" fill="none"/>
      </g>
    </symbol>
    <symbol id="knob16" viewBox="0 0 16px 16px">
      <g transform="translate(8 8)">
        <polyline points="-3,0 3,0" stroke-width="1" stroke="#00f"/>
        <polyline points="0,-3 0,3" stroke-width="1" stroke="#00f"/>
        <circle r="7.5" stroke-width="1" stroke="#00f" fill="none"/>
      </g>
    </symbol>
    <symbol id="dial-centertick" viewBox="0 0 40px 40px">
      <g transform="translate(20 20)">
        <g transform="rotate(-90) translate(10 0)">
          <polyline points="0,0 4,0" stroke-width="1" stroke="#333"/>
        </g>
        <path d="M 0 -12.5 A 12.5 12.5 0 0 1 12.5 0" stroke="#333" stroke-width="0.5" stroke-linecap="round" fill="none" transform="rotate(20)"/>
        <path d="M 0 -12.5 A 12.5 12.5 0 0 1 12.5 0" stroke="#333" stroke-width="0.5" stroke-linecap="round" fill="none" transform="rotate(43)"/>
        <path d="M 0 -12.5 A 12.5 12.5 0 0 0 -12.5 0" stroke="#333" stroke-width="0.5" stroke-linecap="round" fill="none" transform="rotate(-20)"/>
        <path d="M 0 -12.5 A 12.5 12.5 0 0 0 -12.5 0" stroke="#333" stroke-width="0.5" stroke-linecap="round" fill="none" transform="rotate(-43)"/>
      </g>
    </symbol>
    <symbol id="dial-mintick" viewBox="0 0 40px 40px">
      <g transform="translate(20 20)">
        <g transform="rotate(-240) translate(10 0)">
          <polyline points="0,0 4,0" stroke-width="1" stroke="#333"/>
        </g>
        <path d="M 0 -12.5 A 12.5 12.5 0 0 1 12.5 0" stroke="#333" stroke-width="0.5" stroke-linecap="round" fill="none" transform="rotate(0)"/>
        <path d="M 0 -12.5 A 12.5 12.5 0 0 1 12.5 0" stroke="#333" stroke-width="0.5" stroke-linecap="round" fill="none" transform="rotate(43)"/>
        <path d="M 0 -12.5 A 12.5 12.5 0 0 0 -12.5 0" stroke="#333" stroke-width="0.5" stroke-linecap="round" fill="none" transform="rotate(0)"/>
        <path d="M 0 -12.5 A 12.5 12.5 0 0 0 -12.5 0" stroke="#333" stroke-width="0.5" stroke-linecap="round" fill="none" transform="rotate(-43)"/>
      </g>
    </symbol>
    <symbol id="button-small" viewBox="0 0 9px 9px">
      <g transform="translate(4.5 4.5)">
        <circle r="4" stroke-width="1" stroke="#00f" fill="#f00"/>
      </g>
    </symbol>
    <symbol id="input" viewBox="0 0 24px 24px">
      <g transform="translate(12 12)">
        <circle cx="0" cy="0" r="5" stroke-width="1" stroke="#0f0" fill="#0f0"/>
        <circle cx="0" cy="0" r="10.5" stroke-width="3" stroke="#0f0" fill="none"/>
      </g>
    </symbol>
    <symbol id="output" viewBox="0 0 24px 24px">
      <g transform="translate(12 12)">
        <circle cx="0" cy="0" r="5" stroke-width="1" stroke="#f00" fill="#f00"/>
        <circle cx="0" cy="0" r="10.5" stroke-width="3" stroke="#f00" fill="none"/>
      </g>
    </symbol>
    <symbol id="light-small" viewBox="0 0 6.4px 6.4px">
      <rect width="6.4" height="6.4" fill="#0f0"/>
    </symbol>

    <symbol id="dial-frequency-peq" viewBox="0 0 61px 45px">
      <g transform="translate(25.5 22.5)">
        <text font-size="5pt" transform="rotate(60) translate(20 0) rotate(-60) translate(-5 4)">20K</text>
        <text font-size="5pt" transform="rotate(-90) translate(20 0) rotate(90) translate(-4 2.2)">5K</text>
        <text font-size="5pt" transform="rotate(-172.9) translate(20 0) rotate(172.9) translate(-5 2.2)">1K</text>
        <text font-size="5pt" transform="rotate(-240) translate(20 0) rotate(240) translate(-7 4)">0HZ</text>

        <polyline points="0,0 2.5,0" stroke-width="0.3" stroke="#333" transform="rotate(19.8) translate(17 0)"/>
        <polyline points="0,0 2.5,0" stroke-width="0.3" stroke="#333" transform="rotate(-27.9) translate(17 0)"/>
        <polyline points="0,0 2.5,0" stroke-width="0.3" stroke="#333" transform="rotate(-90) translate(17 0)"/>
        <polyline points="0,0 2.5,0" stroke-width="0.3" stroke="#333" transform="rotate(-133.9) translate(17 0)"/>
        <polyline points="0,0 2.5,0" stroke-width="0.3" stroke="#333" transform="rotate(-192.6) translate(17 0)"/>
      </g>
    </symbol>

    <symbol id="dial-level-peq" viewBox="0 0 45px 45px">
      <g transform="translate(22.5 22.5)">
        <text font-size="5pt" transform="rotate(32.73) translate(20 0) rotate(-32.73) translate(-1.9 2.2)">0</text>
        <text font-size="5pt" transform="rotate(-76.36) translate(20 0) rotate(76.36) translate(-4 2.2)">-24</text>
        <text font-size="5pt" transform="rotate(-240) translate(20 0) rotate(240) translate(-8 4)">-60dB</text>

        <polyline points="0,0 2.5,0" stroke-width="0.3" stroke="#333" transform="rotate(60) translate(17 0)"/>
        <polyline points="0,0 2.5,0" stroke-width="0.3" stroke="#333" transform="rotate(5.5) translate(17 0)"/>
        <polyline points="0,0 2.5,0" stroke-width="0.3" stroke="#333" transform="rotate(-21.8) translate(17 0)"/>
        <polyline points="0,0 2.5,0" stroke-width="0.3" stroke="#333" transform="rotate(-49.1) translate(17 0)"/>
        <polyline points="0,0 2.5,0" stroke-width="0.3" stroke="#333" transform="rotate(-103.6) translate(17 0)"/>
        <polyline points="0,0 2.5,0" stroke-width="0.3" stroke="#333" transform="rotate(-131) translate(17 0)"/>
        <polyline points="0,0 2.5,0" stroke-width="0.3" stroke="#333" transform="rotate(-130.9) translate(17 0)"/>
        <polyline points="0,0 2.5,0" stroke-width="0.3" stroke="#333" transform="rotate(-158.2) translate(17 0)"/>
        <polyline points="0,0 2.5,0" stroke-width="0.3" stroke="#333" transform="rotate(-185.5) translate(17 0)"/>
        <polyline points="0,0 2.5,0" stroke-width="0.3" stroke="#333" transform="rotate(-212.7) translate(17 0)"/>
      </g>
    </symbol>
  </defs>

  <rect width="100%" height="100%" fill="#ddd"/>
  <polyline points="1,1 149,1 149,379 1,379 1,1" stroke="#e4e4e4" stroke-width="0.5" fill="none"/>
  <polyline points="0.5,0.5 149.5,0.5 149.5,379.5 0.5,379.5 0.5,0.5" stroke="#ebebeb" stroke-width="0.8" fill="none"/>
  <polyline points="0,0 150,0 150,380 0,380 0,0" stroke="#f2f2f2" stroke-width="1" fill="none"/>

  <!-- <rect width="50" height="20" fill="#0f0" transform="translate(0 0)" /> -->
  <!-- <rect width="50" height="20" fill="#0f0" transform="translate(100 0)" /> -->

  <text class="title" x="53" y="19" font-size="12pt" letter-spacing="4px">PEQ</text>
  <g transform="translate(35.5 374)">
    <text class="brand" font-size="8pt" letter-spacing="2px">BOGAUDIO</text>
    <rect width="3.0" height="3" fill="#ddd" transform="translate(24 -5)"/>
  </g>

  <g transform="translate(0 25)">
    <!-- <rect width="150" height="60" fill="#0f0" transform="translate(0 0)" /> -->
    <!-- <polyline points="0,30 150,30" stroke="#f00" stroke-width="1" fill="none" /> -->
    <!-- <polyline points="0,0 150,0" stroke="#0ff" stroke-width="1" fill="none" transform="translate(0 26)" /> -->
    <use id="A_LIGHT" xlink:href="#light-small" transform="translate(5.5 18)"/>
    <text font-size="6pt" letter-spacing="2px" transform="translate(11.5 33) rotate(270)">A</text>

    <text font-size="6pt" letter-spacing="2px" transform="translate(20 58)">LEVEL</text>
    <use id="A_LEVEL_PARAM" xlink:href="#knob29" transform="translate(13 3.5)"/>
    <use xlink:href="#dial-level-peq" transform="translate(13 3.5)"/>

    <text font-size="6pt" letter-spacing="2px" transform="translate(69 58)">FREQ</text>
    <use id="A_FREQUENCY_PARAM" xlink:href="#knob29" transform="translate(59 3.5)"/>
    <use xlink:href="#dial-frequency-peq" transform="translate(56 3.5)"/>

    <text font-size="6pt" letter-spacing="2px" transform="translate(113 19) rotate(270)">BW</text>
    <use id="A_BANDWIDTH_PARAM" xlink:href="#knob16" transform="translate(122 4)"/>
    <use xlink:href="#dial-mintick" transform="translate(110 -8)"/>

    <text font-size="6pt" letter-spacing="2px" transform="translate(113 58.5) rotate(270)">FCV</text>
    <use id="A_CV_PARAM" xlink:href="#knob16" transform="translate(122 42)"/>
    <use xlink:href="#dial-centertick" transform="translate(110 30)"/>

    <g transform="translate(118 26.5)">
      <text font-size="6pt" letter-spacing="1px" transform="translate(0 6.1)">LP</text>
      <use id="A_MODE_PARAM" xlink:href="#button-small" transform="translate(13.5 -1)"/>
    </g>
  </g>

  <g transform="translate(0 93)">
    <!-- <rect width="150" height="60" fill="#0f0" transform="translate(0 0)" /> -->
    <!-- <polyline points="0,30 150,30" stroke="#f00" stroke-width="1" fill="none" /> -->
    <!-- <polyline points="0,0 150,0" stroke="#0ff" stroke-width="1" fill="none" transform="translate(0 26)" /> -->
    <use id="B_LIGHT" xlink:href="#light-small" transform="translate(5.5 18)"/>
    <text font-size="6pt" letter-spacing="2px" transform="translate(11.5 33) rotate(270)">B</text>

    <text font-size="6pt" letter-spacing="2px" transform="translate(20 58)">LEVEL</text>
    <use id="B_LEVEL_PARAM" xlink:href="#knob29" transform="translate(13 3.5)"/>
    <use xlink:href="#dial-level-peq" transform="translate(13 3.5)"/>

    <text font-size="6pt" letter-spacing="2px" transform="translate(69 58)">FREQ</text>
    <use id="B_FREQUENCY_PARAM" xlink:href="#knob29" transform="translate(59 3.5)"/>
    <use xlink:href="#dial-frequency-peq" transform="translate(56 3.5)"/>

    <text font-size="6pt" letter-spacing="2px" transform="translate(113 22) rotate(270)">BW</text>
    <use id="B_BANDWIDTH_PARAM" xlink:href="#knob16" transform="translate(122 7)"/>
    <use xlink:href="#dial-mintick" transform="translate(110 -5)"/>

    <text font-size="6pt" letter-spacing="2px" transform="translate(113 56.5) rotate(270)">FCV</text>
    <use id="B_CV_PARAM" xlink:href="#knob16" transform="translate(122 40)"/>
    <use xlink:href="#dial-centertick" transform="translate(110 28)"/>
  </g>

  <g transform="translate(0 159)">
    <!-- <rect width="150" height="60" fill="#0f0" transform="translate(0 0)" /> -->
    <!-- <polyline points="0,30 150,30" stroke="#f00" stroke-width="1" fill="none" /> -->
    <!-- <polyline points="0,0 150,0" stroke="#0ff" stroke-width="1" fill="none" transform="translate(0 26)" /> -->
    <use id="C_LIGHT" xlink:href="#light-small" transform="translate(5.5 18)"/>
    <text font-size="6pt" letter-spacing="2px" transform="translate(11.5 33) rotate(270)">C</text>

    <text font-size="6pt" letter-spacing="2px" transform="translate(20 58)">LEVEL</text>
    <use id="C_LEVEL_PARAM" xlink:href="#knob29" transform="translate(13 3.5)"/>
    <use xlink:href="#dial-level-peq" transform="translate(13 3.5)"/>

    <text font-size="6pt" letter-spacing="2px" transform="translate(69 58)">FREQ</text>
    <use id="C_FREQUENCY_PARAM" xlink:href="#knob29" transform="translate(59 3.5)"/>
    <use xlink:href="#dial-frequency-peq" transform="translate(56 3.5)"/>

    <text font-size="6pt" letter-spacing="2px" transform="translate(113 19) rotate(270)">BW</text>
    <use id="C_BANDWIDTH_PARAM" xlink:href="#knob16" transform="translate(122 4)"/>
    <use xlink:href="#dial-mintick" transform="translate(110 -8)"/>

    <text font-size="6pt" letter-spacing="2px" transform="translate(113 58.5) rotate(270)">FCV</text>
    <use id="C_CV_PARAM" xlink:href="#knob16" transform="translate(122 42)"/>
    <use xlink:href="#dial-centertick" transform="translate(110 30)"/>

    <g transform="translate(118 26.5)">
      <text font-size="6pt" letter-spacing="1px" transform="translate(-0.5 6.1)">HP</text>
      <use id="C_MODE_PARAM" xlink:href="#button-small" transform="translate(13.5 -1)"/>
    </g>
  </g>

  <g transform="translate(0 226)">
    <rect width="130" height="134" rx="5" fill="#fafafa" transform="translate(10 0)"/>
    <rect width="32.5" height="46" rx="5" fill="#bbb" transform="translate(107.5 88)"/>
    <rect width="32.5" height="8" fill="#bbb" transform="translate(107.5 88)"/>
    <rect width="8" height="46" fill="#bbb" transform="translate(107.5 88)"/>

    <g transform="translate(12 0)">
      <use id="A_LEVEL_INPUT" xlink:href="#input" transform="translate(3 5)"/>
      <text font-size="6pt" letter-spacing="1px" transform="translate(3 40)">A-LVL</text>
    </g>
    <g transform="translate(44 0)">
      <use id="B_LEVEL_INPUT" xlink:href="#input" transform="translate(3 5)"/>
      <text font-size="6pt" letter-spacing="1px" transform="translate(1 40)">B-LVL</text>
    </g>
    <g transform="translate(76 0)">
      <use id="C_LEVEL_INPUT" xlink:href="#input" transform="translate(3 5)"/>
      <text font-size="6pt" letter-spacing="1px" transform="translate(2 40)">C-LVL</text>
    </g>
    <g transform="translate(108 0)">
      <use id="ALL_CV_INPUT" xlink:href="#input" transform="translate(3 5)"/>
      <text font-size="6pt" letter-spacing="1px" transform="translate(6 40)">FCV</text>
    </g>

    <g transform="translate(12 44)">
      <use id="A_FREQUENCY_INPUT" xlink:href="#input" transform="translate(3 5)"/>
      <text font-size="6pt" letter-spacing="1px" transform="translate(1 40)">A-FCV</text>
    </g>
    <g transform="translate(44 44)">
      <use id="B_FREQUENCY_INPUT" xlink:href="#input" transform="translate(3 5)"/>
      <text font-size="6pt" letter-spacing="1px" transform="translate(1 40)">B-FCV</text>
    </g>
    <g transform="translate(76 44)">
      <use id="C_FREQUENCY_INPUT" xlink:href="#input" transform="translate(3 5)"/>
      <text font-size="6pt" letter-spacing="1px" transform="translate(1 40)">C-FCV</text>
    </g>
    <g transform="translate(108 44)">
      <use id="IN_INPUT" xlink:href="#input" transform="translate(3 5)"/>
      <text font-size="6pt" letter-spacing="2px" transform="translate(10 40)">IN</text>
    </g>

    <g transform="translate(12 88)">
      <use id="A_BANDWIDTH_INPUT" xlink:href="#input" transform="translate(3 5)"/>
      <text font-size="6pt" letter-spacing="1px" transform="translate(3 40)">A-BW</text>
    </g>
    <g transform="translate(44 88)">
      <use id="B_BANDWIDTH_INPUT" xlink:href="#input" transform="translate(3 5)"/>
      <text font-size="6pt" letter-spacing="1px" transform="translate(2 40)">B-BW</text>
    </g>
    <g transform="translate(76 88)">
      <use id="C_BANDWIDTH_INPUT" xlink:href="#input" transform="translate(3 5)"/>
      <text font-size="6pt" letter-spacing="1px" transform="translate(3 40)">C-BW</text>
    </g>
    <g transform="translate(108 88)">
      <use id="OUT_OUTPUT" xlink:href="#output" transform="translate(3 5)"/>
      <text font-size="6pt" letter-spacing="2px" transform="translate(5 40)">OUT</text>
    </g>
  </g>
</svg>
