<?xml version="1.0"?>
<svg xmlns="http://www.w3.org/2000/svg" xmlns:xlink="http://www.w3.org/1999/xlink" version="1.1" width="150" height="380" viewBox="0 0 150 380">
  <style>text {
  fill: #333;
  font-family: 'Roboto', sans-serif;
  font-weight: bold;
}
text.title {
  font-family: 'Comfortaa', sans-serif;
  font-weight: normal;
}
text.brand {
  font-family: 'Audiowide', sans-serif;
  font-weight: bold;
}

polyline {
  stroke: #333;
}
path {
  stroke: #333;
}

rect.module-background, .background-fill {
  fill: #ddd;
}
polyline.module-border-inner {
  stroke: #e4e4e4;
}
polyline.module-border-middle {
  stroke: #ebebeb;
}
polyline.module-border-outer {
  stroke: #f2f2f2;
}

g.io-group {
}
rect.input-background {
  fill: #fafafa;
}
rect.input-background-filler {
  fill: #fafafa;
}
rect.output-background {
  fill: #bbb;
}
rect.output-background-filler {
  fill: #bbb;
}
text.input-label, text.output-label {
  /* font-size: 6pt; */
}
</style>

  <defs>
    <symbol id="dial-frequency-peq" viewBox="0 0 61px 45px">
      <g transform="translate(25.5 22.5)">
        <text font-size="5pt" transform="rotate(60) translate(20 0) rotate(-60) translate(-5 4)">20K</text>
        <text font-size="5pt" transform="rotate(-90) translate(20 0) rotate(90) translate(-4 2.2)">5K</text>
        <text font-size="5pt" transform="rotate(-172.9) translate(20 0) rotate(172.9) translate(-5 2.2)">1K</text>
        <text font-size="5pt" transform="rotate(-240) translate(20 0) rotate(240) translate(-7 4)">0HZ</text>

        <polyline points="0,0 2.5,0" stroke-width="0.3" transform="rotate(19.8) translate(17 0)"/>
        <polyline points="0,0 2.5,0" stroke-width="0.3" transform="rotate(-27.9) translate(17 0)"/>
        <polyline points="0,0 2.5,0" stroke-width="0.3" transform="rotate(-90) translate(17 0)"/>
        <polyline points="0,0 2.5,0" stroke-width="0.3" transform="rotate(-133.9) translate(17 0)"/>
        <polyline points="0,0 2.5,0" stroke-width="0.3" transform="rotate(-192.6) translate(17 0)"/>
      </g>
    </symbol>

    <symbol id="dial-level-peq" viewBox="0 0 45px 45px">
      <g transform="translate(22.5 22.5)">
        <text font-size="5pt" transform="rotate(32.73) translate(20 0) rotate(-32.73) translate(-1.9 2.2)">0</text>
        <text font-size="5pt" transform="rotate(-76.36) translate(20 0) rotate(76.36) translate(-4 2.2)">-24</text>
        <text font-size="5pt" transform="rotate(-240) translate(20 0) rotate(240) translate(-8 4)">-60dB</text>

        <polyline points="0,0 2.5,0" stroke-width="0.3" transform="rotate(60) translate(17 0)"/>
        <polyline points="0,0 2.5,0" stroke-width="0.3" transform="rotate(5.5) translate(17 0)"/>
        <polyline points="0,0 2.5,0" stroke-width="0.3" transform="rotate(-21.8) translate(17 0)"/>
        <polyline points="0,0 2.5,0" stroke-width="0.3" transform="rotate(-49.1) translate(17 0)"/>
        <polyline points="0,0 2.5,0" stroke-width="0.3" transform="rotate(-103.6) translate(17 0)"/>
        <polyline points="0,0 2.5,0" stroke-width="0.3" transform="rotate(-131) translate(17 0)"/>
        <polyline points="0,0 2.5,0" stroke-width="0.3" transform="rotate(-130.9) translate(17 0)"/>
        <polyline points="0,0 2.5,0" stroke-width="0.3" transform="rotate(-158.2) translate(17 0)"/>
        <polyline points="0,0 2.5,0" stroke-width="0.3" transform="rotate(-185.5) translate(17 0)"/>
        <polyline points="0,0 2.5,0" stroke-width="0.3" transform="rotate(-212.7) translate(17 0)"/>
      </g>
    </symbol>
  </defs>

  
      
      <rect class="module-background background-fill" width="150.0" height="380.0"/>
    
      
      <polyline class="module-border-inner" points="1,1 149.0,1 149.0,379.0 1,379.0 1,1" stroke-width="0.5" fill="none"/>
      <polyline class="module-border-middle" points="0.5,0.5 149.5,0.5 149.5,379.5 0.5,379.5 0.5,0.5" stroke-width="0.8" fill="none"/>
      <polyline class="module-border-outer" points="0,0 150.0,0 150.0,380.0 0,380.0 0,0" stroke-width="1" fill="none"/>
    
      <text class="title" font-size="12pt" letter-spacing="4px" text-anchor="middle" transform="translate(75.0 19)">PEQ</text>
      <g transform="translate(0 374)">
        <text class="brand" font-size="8pt" letter-spacing="2px" text-anchor="middle" transform="translate(75.0 0)">BOGAUDIO</text>
        <rect class="background-fill" width="3" height="3" transform="translate(59.5 -5)"/>
      </g>
    

  <g transform="translate(0 25)">
    
    
    
    <g transform="translate(5.5 18)"><svg id="A_LIGHT">
      <rect width="6.4" height="6.4" fill="#0f0"/>
    </svg></g>
    <text font-size="6pt" letter-spacing="2px" transform="translate(11.5 33) rotate(270)">A</text>

    <text font-size="6pt" letter-spacing="2px" transform="translate(20 58)">LEVEL</text>
    <g transform="translate(13 3.5)"><svg id="A_LEVEL_PARAM">
      <g transform="translate(22.5 22.5)">
        <polyline points="-5,0 5,0" stroke-width="1" stroke="#00f"/>
        <polyline points="0,-5 0,5" stroke-width="1" stroke="#00f"/>
        <circle cx="0" cy="0" r="14" stroke-width="1" stroke="#00f" fill="none"/>
      </g>
    </svg></g>
    <use xlink:href="#dial-level-peq" transform="translate(13 3.5)" href="#dial-level-peq"/>

    <text font-size="6pt" letter-spacing="2px" transform="translate(69 58)">FREQ</text>
    <g transform="translate(59 3.5)"><svg id="A_FREQUENCY_PARAM">
      <g transform="translate(22.5 22.5)">
        <polyline points="-5,0 5,0" stroke-width="1" stroke="#00f"/>
        <polyline points="0,-5 0,5" stroke-width="1" stroke="#00f"/>
        <circle cx="0" cy="0" r="14" stroke-width="1" stroke="#00f" fill="none"/>
      </g>
    </svg></g>
    <use xlink:href="#dial-frequency-peq" transform="translate(56 3.5)" href="#dial-frequency-peq"/>

    <text font-size="6pt" letter-spacing="2px" transform="translate(113 19) rotate(270)">BW</text>
    <g transform="translate(122 4)"><svg id="A_BANDWIDTH_PARAM">
      <g transform="translate(8 8)">
        <polyline points="-3,0 3,0" stroke-width="1" stroke="#00f"/>
        <polyline points="0,-3 0,3" stroke-width="1" stroke="#00f"/>
        <circle r="7.5" stroke-width="1" stroke="#00f" fill="none"/>
      </g>
    </svg></g>
    <g transform="translate(110 -8)">
      <g transform="translate(20 20)">
        <g transform="rotate(-240) translate(10 0)">
          <polyline points="0,0 4,0" stroke-width="1"/>
        </g>
        <path d="M 0 -12.5 A 12.5 12.5 0 0 1 12.5 0" stroke-width="0.5" stroke-linecap="round" fill="none" transform="rotate(0)"/>
        <path d="M 0 -12.5 A 12.5 12.5 0 0 1 12.5 0" stroke-width="0.5" stroke-linecap="round" fill="none" transform="rotate(43)"/>
        <path d="M 0 -12.5 A 12.5 12.5 0 0 0 -12.5 0" stroke-width="0.5" stroke-linecap="round" fill="none" transform="rotate(0)"/>
        <path d="M 0 -12.5 A 12.5 12.5 0 0 0 -12.5 0" stroke-width="0.5" stroke-linecap="round" fill="none" transform="rotate(-43)"/>
      </g>
    </g>

    <text font-size="6pt" letter-spacing="2px" transform="translate(113 58.5) rotate(270)">FCV</text>
    <g transform="translate(122 42)"><svg id="A_CV_PARAM">
      <g transform="translate(8 8)">
        <polyline points="-3,0 3,0" stroke-width="1" stroke="#00f"/>
        <polyline points="0,-3 0,3" stroke-width="1" stroke="#00f"/>
        <circle r="7.5" stroke-width="1" stroke="#00f" fill="none"/>
      </g>
    </svg></g>
    <g transform="translate(110 30)">
      <g transform="translate(20 20)">
        <g transform="rotate(-90) translate(10 0)">
          <polyline points="0,0 4,0" stroke-width="1"/>
        </g>
        <path d="M 0 -12.5 A 12.5 12.5 0 0 1 12.5 0" stroke-width="0.5" stroke-linecap="round" fill="none" transform="rotate(20)"/>
        <path d="M 0 -12.5 A 12.5 12.5 0 0 1 12.5 0" stroke-width="0.5" stroke-linecap="round" fill="none" transform="rotate(43)"/>
        <path d="M 0 -12.5 A 12.5 12.5 0 0 0 -12.5 0" stroke-width="0.5" stroke-linecap="round" fill="none" transform="rotate(-20)"/>
        <path d="M 0 -12.5 A 12.5 12.5 0 0 0 -12.5 0" stroke-width="0.5" stroke-linecap="round" fill="none" transform="rotate(-43)"/>
      </g>
    </g>

    <g transform="translate(118 26.5)">
      <text font-size="6pt" letter-spacing="1px" transform="translate(0 6.1)">LP</text>
      <g transform="translate(13.5 -1)"><svg id="A_MODE_PARAM">
      <g transform="translate(4.5 4.5)">
        <circle r="4" stroke-width="1" stroke="#00f" fill="#f00"/>
      </g>
    </svg></g>
    </g>
  </g>

  <g transform="translate(0 93)">
    
    
    
    <g transform="translate(5.5 18)"><svg id="B_LIGHT">
      <rect width="6.4" height="6.4" fill="#0f0"/>
    </svg></g>
    <text font-size="6pt" letter-spacing="2px" transform="translate(11.5 33) rotate(270)">B</text>

    <text font-size="6pt" letter-spacing="2px" transform="translate(20 58)">LEVEL</text>
    <g transform="translate(13 3.5)"><svg id="B_LEVEL_PARAM">
      <g transform="translate(22.5 22.5)">
        <polyline points="-5,0 5,0" stroke-width="1" stroke="#00f"/>
        <polyline points="0,-5 0,5" stroke-width="1" stroke="#00f"/>
        <circle cx="0" cy="0" r="14" stroke-width="1" stroke="#00f" fill="none"/>
      </g>
    </svg></g>
    <use xlink:href="#dial-level-peq" transform="translate(13 3.5)" href="#dial-level-peq"/>

    <text font-size="6pt" letter-spacing="2px" transform="translate(69 58)">FREQ</text>
    <g transform="translate(59 3.5)"><svg id="B_FREQUENCY_PARAM">
      <g transform="translate(22.5 22.5)">
        <polyline points="-5,0 5,0" stroke-width="1" stroke="#00f"/>
        <polyline points="0,-5 0,5" stroke-width="1" stroke="#00f"/>
        <circle cx="0" cy="0" r="14" stroke-width="1" stroke="#00f" fill="none"/>
      </g>
    </svg></g>
    <use xlink:href="#dial-frequency-peq" transform="translate(56 3.5)" href="#dial-frequency-peq"/>

    <text font-size="6pt" letter-spacing="2px" transform="translate(113 22) rotate(270)">BW</text>
    <g transform="translate(122 7)"><svg id="B_BANDWIDTH_PARAM">
      <g transform="translate(8 8)">
        <polyline points="-3,0 3,0" stroke-width="1" stroke="#00f"/>
        <polyline points="0,-3 0,3" stroke-width="1" stroke="#00f"/>
        <circle r="7.5" stroke-width="1" stroke="#00f" fill="none"/>
      </g>
    </svg></g>
    <g transform="translate(110 -5)">
      <g transform="translate(20 20)">
        <g transform="rotate(-240) translate(10 0)">
          <polyline points="0,0 4,0" stroke-width="1"/>
        </g>
        <path d="M 0 -12.5 A 12.5 12.5 0 0 1 12.5 0" stroke-width="0.5" stroke-linecap="round" fill="none" transform="rotate(0)"/>
        <path d="M 0 -12.5 A 12.5 12.5 0 0 1 12.5 0" stroke-width="0.5" stroke-linecap="round" fill="none" transform="rotate(43)"/>
        <path d="M 0 -12.5 A 12.5 12.5 0 0 0 -12.5 0" stroke-width="0.5" stroke-linecap="round" fill="none" transform="rotate(0)"/>
        <path d="M 0 -12.5 A 12.5 12.5 0 0 0 -12.5 0" stroke-width="0.5" stroke-linecap="round" fill="none" transform="rotate(-43)"/>
      </g>
    </g>

    <text font-size="6pt" letter-spacing="2px" transform="translate(113 56.5) rotate(270)">FCV</text>
    <g transform="translate(122 40)"><svg id="B_CV_PARAM">
      <g transform="translate(8 8)">
        <polyline points="-3,0 3,0" stroke-width="1" stroke="#00f"/>
        <polyline points="0,-3 0,3" stroke-width="1" stroke="#00f"/>
        <circle r="7.5" stroke-width="1" stroke="#00f" fill="none"/>
      </g>
    </svg></g>
    <g transform="translate(110 28)">
      <g transform="translate(20 20)">
        <g transform="rotate(-90) translate(10 0)">
          <polyline points="0,0 4,0" stroke-width="1"/>
        </g>
        <path d="M 0 -12.5 A 12.5 12.5 0 0 1 12.5 0" stroke-width="0.5" stroke-linecap="round" fill="none" transform="rotate(20)"/>
        <path d="M 0 -12.5 A 12.5 12.5 0 0 1 12.5 0" stroke-width="0.5" stroke-linecap="round" fill="none" transform="rotate(43)"/>
        <path d="M 0 -12.5 A 12.5 12.5 0 0 0 -12.5 0" stroke-width="0.5" stroke-linecap="round" fill="none" transform="rotate(-20)"/>
        <path d="M 0 -12.5 A 12.5 12.5 0 0 0 -12.5 0" stroke-width="0.5" stroke-linecap="round" fill="none" transform="rotate(-43)"/>
      </g>
    </g>
  </g>

  <g transform="translate(0 159)">
    
    
    
    <g transform="translate(5.5 18)"><svg id="C_LIGHT">
      <rect width="6.4" height="6.4" fill="#0f0"/>
    </svg></g>
    <text font-size="6pt" letter-spacing="2px" transform="translate(11.5 33) rotate(270)">C</text>

    <text font-size="6pt" letter-spacing="2px" transform="translate(20 58)">LEVEL</text>
    <g transform="translate(13 3.5)"><svg id="C_LEVEL_PARAM">
      <g transform="translate(22.5 22.5)">
        <polyline points="-5,0 5,0" stroke-width="1" stroke="#00f"/>
        <polyline points="0,-5 0,5" stroke-width="1" stroke="#00f"/>
        <circle cx="0" cy="0" r="14" stroke-width="1" stroke="#00f" fill="none"/>
      </g>
    </svg></g>
    <use xlink:href="#dial-level-peq" transform="translate(13 3.5)" href="#dial-level-peq"/>

    <text font-size="6pt" letter-spacing="2px" transform="translate(69 58)">FREQ</text>
    <g transform="translate(59 3.5)"><svg id="C_FREQUENCY_PARAM">
      <g transform="translate(22.5 22.5)">
        <polyline points="-5,0 5,0" stroke-width="1" stroke="#00f"/>
        <polyline points="0,-5 0,5" stroke-width="1" stroke="#00f"/>
        <circle cx="0" cy="0" r="14" stroke-width="1" stroke="#00f" fill="none"/>
      </g>
    </svg></g>
    <use xlink:href="#dial-frequency-peq" transform="translate(56 3.5)" href="#dial-frequency-peq"/>

    <text font-size="6pt" letter-spacing="2px" transform="translate(113 19) rotate(270)">BW</text>
    <g transform="translate(122 4)"><svg id="C_BANDWIDTH_PARAM">
      <g transform="translate(8 8)">
        <polyline points="-3,0 3,0" stroke-width="1" stroke="#00f"/>
        <polyline points="0,-3 0,3" stroke-width="1" stroke="#00f"/>
        <circle r="7.5" stroke-width="1" stroke="#00f" fill="none"/>
      </g>
    </svg></g>
    <g transform="translate(110 -8)">
      <g transform="translate(20 20)">
        <g transform="rotate(-240) translate(10 0)">
          <polyline points="0,0 4,0" stroke-width="1"/>
        </g>
        <path d="M 0 -12.5 A 12.5 12.5 0 0 1 12.5 0" stroke-width="0.5" stroke-linecap="round" fill="none" transform="rotate(0)"/>
        <path d="M 0 -12.5 A 12.5 12.5 0 0 1 12.5 0" stroke-width="0.5" stroke-linecap="round" fill="none" transform="rotate(43)"/>
        <path d="M 0 -12.5 A 12.5 12.5 0 0 0 -12.5 0" stroke-width="0.5" stroke-linecap="round" fill="none" transform="rotate(0)"/>
        <path d="M 0 -12.5 A 12.5 12.5 0 0 0 -12.5 0" stroke-width="0.5" stroke-linecap="round" fill="none" transform="rotate(-43)"/>
      </g>
    </g>

    <text font-size="6pt" letter-spacing="2px" transform="translate(113 58.5) rotate(270)">FCV</text>
    <g transform="translate(122 42)"><svg id="C_CV_PARAM">
      <g transform="translate(8 8)">
        <polyline points="-3,0 3,0" stroke-width="1" stroke="#00f"/>
        <polyline points="0,-3 0,3" stroke-width="1" stroke="#00f"/>
        <circle r="7.5" stroke-width="1" stroke="#00f" fill="none"/>
      </g>
    </svg></g>
    <g transform="translate(110 30)">
      <g transform="translate(20 20)">
        <g transform="rotate(-90) translate(10 0)">
          <polyline points="0,0 4,0" stroke-width="1"/>
        </g>
        <path d="M 0 -12.5 A 12.5 12.5 0 0 1 12.5 0" stroke-width="0.5" stroke-linecap="round" fill="none" transform="rotate(20)"/>
        <path d="M 0 -12.5 A 12.5 12.5 0 0 1 12.5 0" stroke-width="0.5" stroke-linecap="round" fill="none" transform="rotate(43)"/>
        <path d="M 0 -12.5 A 12.5 12.5 0 0 0 -12.5 0" stroke-width="0.5" stroke-linecap="round" fill="none" transform="rotate(-20)"/>
        <path d="M 0 -12.5 A 12.5 12.5 0 0 0 -12.5 0" stroke-width="0.5" stroke-linecap="round" fill="none" transform="rotate(-43)"/>
      </g>
    </g>

    <g transform="translate(118 26.5)">
      <text font-size="6pt" letter-spacing="1px" transform="translate(-0.5 6.1)">HP</text>
      <g transform="translate(13.5 -1)"><svg id="C_MODE_PARAM">
      <g transform="translate(4.5 4.5)">
        <circle r="4" stroke-width="1" stroke="#00f" fill="#f00"/>
      </g>
    </svg></g>
    </g>
  </g>

  <g class="io-group" transform="translate(0 226)">
    <rect class="input-background" width="130" height="134" rx="5" transform="translate(10 0)"/>
    <rect class="output-background" width="32.5" height="46" rx="5" transform="translate(107.5 88)"/>
    <rect class="output-background-filler" width="32.5" height="8" transform="translate(107.5 88)"/>
    <rect class="output-background-filler" width="8" height="46" transform="translate(107.5 88)"/>

    <g transform="translate(12 0)">
      <g transform="translate(3 5)"><svg id="A_LEVEL_INPUT">
      <g transform="translate(12 12)">
        <circle cx="0" cy="0" r="5" stroke-width="1" stroke="#0f0" fill="#0f0"/>
        <circle cx="0" cy="0" r="10.5" stroke-width="3" stroke="#0f0" fill="none"/>
      </g>
    </svg></g>
      <text class="input-label" font-size="6pt" letter-spacing="1px" transform="translate(3 40)">A-LVL</text>
    </g>
    <g transform="translate(44 0)">
      <g transform="translate(3 5)"><svg id="B_LEVEL_INPUT">
      <g transform="translate(12 12)">
        <circle cx="0" cy="0" r="5" stroke-width="1" stroke="#0f0" fill="#0f0"/>
        <circle cx="0" cy="0" r="10.5" stroke-width="3" stroke="#0f0" fill="none"/>
      </g>
    </svg></g>
      <text class="input-label" font-size="6pt" letter-spacing="1px" transform="translate(1 40)">B-LVL</text>
    </g>
    <g transform="translate(76 0)">
      <g transform="translate(3 5)"><svg id="C_LEVEL_INPUT">
      <g transform="translate(12 12)">
        <circle cx="0" cy="0" r="5" stroke-width="1" stroke="#0f0" fill="#0f0"/>
        <circle cx="0" cy="0" r="10.5" stroke-width="3" stroke="#0f0" fill="none"/>
      </g>
    </svg></g>
      <text class="input-label" font-size="6pt" letter-spacing="1px" transform="translate(2 40)">C-LVL</text>
    </g>
    <g transform="translate(108 0)">
      <g transform="translate(3 5)"><svg id="ALL_CV_INPUT">
      <g transform="translate(12 12)">
        <circle cx="0" cy="0" r="5" stroke-width="1" stroke="#0f0" fill="#0f0"/>
        <circle cx="0" cy="0" r="10.5" stroke-width="3" stroke="#0f0" fill="none"/>
      </g>
    </svg></g>
      <text class="input-label" font-size="6pt" letter-spacing="1px" transform="translate(6 40)">FCV</text>
    </g>

    <g transform="translate(12 44)">
      <g transform="translate(3 5)"><svg id="A_FREQUENCY_INPUT">
      <g transform="translate(12 12)">
        <circle cx="0" cy="0" r="5" stroke-width="1" stroke="#0f0" fill="#0f0"/>
        <circle cx="0" cy="0" r="10.5" stroke-width="3" stroke="#0f0" fill="none"/>
      </g>
    </svg></g>
      <text class="input-label" font-size="6pt" letter-spacing="1px" transform="translate(1 40)">A-FCV</text>
    </g>
    <g transform="translate(44 44)">
      <g transform="translate(3 5)"><svg id="B_FREQUENCY_INPUT">
      <g transform="translate(12 12)">
        <circle cx="0" cy="0" r="5" stroke-width="1" stroke="#0f0" fill="#0f0"/>
        <circle cx="0" cy="0" r="10.5" stroke-width="3" stroke="#0f0" fill="none"/>
      </g>
    </svg></g>
      <text class="input-label" font-size="6pt" letter-spacing="1px" transform="translate(1 40)">B-FCV</text>
    </g>
    <g transform="translate(76 44)">
      <g transform="translate(3 5)"><svg id="C_FREQUENCY_INPUT">
      <g transform="translate(12 12)">
        <circle cx="0" cy="0" r="5" stroke-width="1" stroke="#0f0" fill="#0f0"/>
        <circle cx="0" cy="0" r="10.5" stroke-width="3" stroke="#0f0" fill="none"/>
      </g>
    </svg></g>
      <text class="input-label" font-size="6pt" letter-spacing="1px" transform="translate(1 40)">C-FCV</text>
    </g>
    <g transform="translate(108 44)">
      <g transform="translate(3 5)"><svg id="IN_INPUT">
      <g transform="translate(12 12)">
        <circle cx="0" cy="0" r="5" stroke-width="1" stroke="#0f0" fill="#0f0"/>
        <circle cx="0" cy="0" r="10.5" stroke-width="3" stroke="#0f0" fill="none"/>
      </g>
    </svg></g>
      <text class="input-label" font-size="6pt" letter-spacing="2px" transform="translate(10 40)">IN</text>
    </g>

    <g transform="translate(12 88)">
      <g transform="translate(3 5)"><svg id="A_BANDWIDTH_INPUT">
      <g transform="translate(12 12)">
        <circle cx="0" cy="0" r="5" stroke-width="1" stroke="#0f0" fill="#0f0"/>
        <circle cx="0" cy="0" r="10.5" stroke-width="3" stroke="#0f0" fill="none"/>
      </g>
    </svg></g>
      <text class="input-label" font-size="6pt" letter-spacing="1px" transform="translate(3 40)">A-BW</text>
    </g>
    <g transform="translate(44 88)">
      <g transform="translate(3 5)"><svg id="B_BANDWIDTH_INPUT">
      <g transform="translate(12 12)">
        <circle cx="0" cy="0" r="5" stroke-width="1" stroke="#0f0" fill="#0f0"/>
        <circle cx="0" cy="0" r="10.5" stroke-width="3" stroke="#0f0" fill="none"/>
      </g>
    </svg></g>
      <text class="input-label" font-size="6pt" letter-spacing="1px" transform="translate(2 40)">B-BW</text>
    </g>
    <g transform="translate(76 88)">
      <g transform="translate(3 5)"><svg id="C_BANDWIDTH_INPUT">
      <g transform="translate(12 12)">
        <circle cx="0" cy="0" r="5" stroke-width="1" stroke="#0f0" fill="#0f0"/>
        <circle cx="0" cy="0" r="10.5" stroke-width="3" stroke="#0f0" fill="none"/>
      </g>
    </svg></g>
      <text class="input-label" font-size="6pt" letter-spacing="1px" transform="translate(3 40)">C-BW</text>
    </g>
    <g transform="translate(108 88)">
      <g transform="translate(3 5)"><svg id="OUT_OUTPUT">
      <g transform="translate(12 12)">
        <circle cx="0" cy="0" r="5" stroke-width="1" stroke="#f00" fill="#f00"/>
        <circle cx="0" cy="0" r="10.5" stroke-width="3" stroke="#f00" fill="none"/>
      </g>
    </svg></g>
      <text class="output-label" font-size="6pt" letter-spacing="2px" transform="translate(5 40)">OUT</text>
    </g>
  </g>
</svg>
