<?xml version="1.0"?>
<svg xmlns="http://www.w3.org/2000/svg" xmlns:xlink="http://www.w3.org/1999/xlink" version="1.1" width="120" height="380" viewBox="0 0 120 380">
  <style>text {
  fill: #333;
  font-family: 'Roboto', sans-serif;
  font-weight: bold;
}
text.title {
  font-family: 'Comfortaa', sans-serif;
  font-weight: normal;
}
text.brand {
  font-family: 'Audiowide', sans-serif;
  font-weight: bold;
}

polyline {
  stroke: #333;
}
path {
  stroke: #333;
}

rect.module-background, .background-fill {
  fill: #ddd;
}
polyline.module-border-inner {
  stroke: #e4e4e4;
}
polyline.module-border-middle {
  stroke: #ebebeb;
}
polyline.module-border-outer {
  stroke: #f2f2f2;
}

g.io-group {
}
rect.input-background {
  fill: #fafafa;
}
rect.input-background-filler {
  fill: #fafafa;
}
rect.output-background {
  fill: #bbb;
}
rect.output-background-filler {
  fill: #bbb;
}
text.input-label, text.output-label {
  /* font-size: 6pt; */
}
</style>

  
      
      <rect class="module-background background-fill" width="120.0" height="380.0"/>
    
      
      <polyline class="module-border-inner" points="1,1 119.0,1 119.0,379.0 1,379.0 1,1" stroke-width="0.5" fill="none"/>
      <polyline class="module-border-middle" points="0.5,0.5 119.5,0.5 119.5,379.5 0.5,379.5 0.5,0.5" stroke-width="0.8" fill="none"/>
      <polyline class="module-border-outer" points="0,0 120.0,0 120.0,380.0 0,380.0 0,0" stroke-width="1" fill="none"/>
    
      <text class="title" font-size="9pt" letter-spacing="2px" text-anchor="middle" transform="translate(60.0 19)">POLYCON16</text>
      <g transform="translate(5.5 374)">
        <text class="brand" font-size="6.5pt" letter-spacing="2px">BOGAUDIO</text>
        <rect width="1.5" height="2" fill="#ddd" transform="translate(21 -4)"/>
      </g>
    

  
  
  
  
  

  <g transform="translate(21.5 22)">
    <g transform="translate(3.6 8)"><svg id="CHANNEL1_PARAM">
      <g transform="translate(10 10)">
        <polyline points="-3,0 3,0" stroke-width="1" stroke="#00f"/>
        <polyline points="0,-3 0,3" stroke-width="1" stroke="#00f"/>
        <circle cx="0" cy="0" r="9.3" stroke-width="1" stroke="#00f" fill="none"/>
      </g>
    </svg></g>
    <g transform="translate(-6.5 -2)">
      <g transform="translate(20 20)">
        <polyline points="0,0 4,0" stroke-width="1" transform="rotate(-90) translate(11.5 0)"/>
        <path d="M 0 -13.5 A 13.5 13.5 0 0 1 13.5 0" stroke-width="0.5" stroke-linecap="round" stroke="#333" fill="none" transform="rotate(20)"/>
        <path d="M 0 -13.5 A 13.5 13.5 0 0 1 13.5 0" stroke-width="0.5" stroke-linecap="round" stroke="#333" fill="none" transform="rotate(43)"/>
        <path d="M 0 -13.5 A 13.5 13.5 0 0 0 -13.5 0" stroke-width="0.5" stroke-linecap="round" stroke="#333" fill="none" transform="rotate(-20)"/>
        <path d="M 0 -13.5 A 13.5 13.5 0 0 0 -13.5 0" stroke-width="0.5" stroke-linecap="round" stroke="#333" fill="none" transform="rotate(-43)"/>
      </g>
    </g>
    <text font-size="5pt" letter-spacing="1px" transform="translate(-6.5 20.5)">1</text>
    <g transform="translate(12.25 30)"><svg id="CHANNEL1_LIGHT">
      <rect width="3.2" height="3.2" fill="#0f0"/>
    </svg></g>
  </g>
  <g transform="translate(21.5 59)">
    <g transform="translate(3.5 8)"><svg id="CHANNEL2_PARAM">
      <g transform="translate(10 10)">
        <polyline points="-3,0 3,0" stroke-width="1" stroke="#00f"/>
        <polyline points="0,-3 0,3" stroke-width="1" stroke="#00f"/>
        <circle cx="0" cy="0" r="9.3" stroke-width="1" stroke="#00f" fill="none"/>
      </g>
    </svg></g>
    <g transform="translate(-6.5 -2)">
      <g transform="translate(20 20)">
        <polyline points="0,0 4,0" stroke-width="1" transform="rotate(-90) translate(11.5 0)"/>
        <path d="M 0 -13.5 A 13.5 13.5 0 0 1 13.5 0" stroke-width="0.5" stroke-linecap="round" stroke="#333" fill="none" transform="rotate(20)"/>
        <path d="M 0 -13.5 A 13.5 13.5 0 0 1 13.5 0" stroke-width="0.5" stroke-linecap="round" stroke="#333" fill="none" transform="rotate(43)"/>
        <path d="M 0 -13.5 A 13.5 13.5 0 0 0 -13.5 0" stroke-width="0.5" stroke-linecap="round" stroke="#333" fill="none" transform="rotate(-20)"/>
        <path d="M 0 -13.5 A 13.5 13.5 0 0 0 -13.5 0" stroke-width="0.5" stroke-linecap="round" stroke="#333" fill="none" transform="rotate(-43)"/>
      </g>
    </g>
    <text font-size="5pt" letter-spacing="1px" transform="translate(-7 20.5)">2</text>
    <g transform="translate(12.25 30)"><svg id="CHANNEL2_LIGHT">
      <rect width="3.2" height="3.2" fill="#0f0"/>
    </svg></g>
  </g>
  <g transform="translate(21.5 96)">
    <g transform="translate(3.5 8)"><svg id="CHANNEL3_PARAM">
      <g transform="translate(10 10)">
        <polyline points="-3,0 3,0" stroke-width="1" stroke="#00f"/>
        <polyline points="0,-3 0,3" stroke-width="1" stroke="#00f"/>
        <circle cx="0" cy="0" r="9.3" stroke-width="1" stroke="#00f" fill="none"/>
      </g>
    </svg></g>
    <g transform="translate(-6.5 -2)">
      <g transform="translate(20 20)">
        <polyline points="0,0 4,0" stroke-width="1" transform="rotate(-90) translate(11.5 0)"/>
        <path d="M 0 -13.5 A 13.5 13.5 0 0 1 13.5 0" stroke-width="0.5" stroke-linecap="round" stroke="#333" fill="none" transform="rotate(20)"/>
        <path d="M 0 -13.5 A 13.5 13.5 0 0 1 13.5 0" stroke-width="0.5" stroke-linecap="round" stroke="#333" fill="none" transform="rotate(43)"/>
        <path d="M 0 -13.5 A 13.5 13.5 0 0 0 -13.5 0" stroke-width="0.5" stroke-linecap="round" stroke="#333" fill="none" transform="rotate(-20)"/>
        <path d="M 0 -13.5 A 13.5 13.5 0 0 0 -13.5 0" stroke-width="0.5" stroke-linecap="round" stroke="#333" fill="none" transform="rotate(-43)"/>
      </g>
    </g>
    <text font-size="5pt" letter-spacing="1px" transform="translate(-7 20.5)">3</text>
    <g transform="translate(12.25 30)"><svg id="CHANNEL3_LIGHT">
      <rect width="3.2" height="3.2" fill="#0f0"/>
    </svg></g>
  </g>
  <g transform="translate(21.5 133)">
    <g transform="translate(3.5 8)"><svg id="CHANNEL4_PARAM">
      <g transform="translate(10 10)">
        <polyline points="-3,0 3,0" stroke-width="1" stroke="#00f"/>
        <polyline points="0,-3 0,3" stroke-width="1" stroke="#00f"/>
        <circle cx="0" cy="0" r="9.3" stroke-width="1" stroke="#00f" fill="none"/>
      </g>
    </svg></g>
    <g transform="translate(-6.5 -2)">
      <g transform="translate(20 20)">
        <polyline points="0,0 4,0" stroke-width="1" transform="rotate(-90) translate(11.5 0)"/>
        <path d="M 0 -13.5 A 13.5 13.5 0 0 1 13.5 0" stroke-width="0.5" stroke-linecap="round" stroke="#333" fill="none" transform="rotate(20)"/>
        <path d="M 0 -13.5 A 13.5 13.5 0 0 1 13.5 0" stroke-width="0.5" stroke-linecap="round" stroke="#333" fill="none" transform="rotate(43)"/>
        <path d="M 0 -13.5 A 13.5 13.5 0 0 0 -13.5 0" stroke-width="0.5" stroke-linecap="round" stroke="#333" fill="none" transform="rotate(-20)"/>
        <path d="M 0 -13.5 A 13.5 13.5 0 0 0 -13.5 0" stroke-width="0.5" stroke-linecap="round" stroke="#333" fill="none" transform="rotate(-43)"/>
      </g>
    </g>
    <text font-size="5pt" letter-spacing="1px" transform="translate(-7.2 20.5)">4</text>
    <g transform="translate(12.25 30)"><svg id="CHANNEL4_LIGHT">
      <rect width="3.2" height="3.2" fill="#0f0"/>
    </svg></g>
  </g>
  <g transform="translate(21.5 170)">
    <g transform="translate(3.5 8)"><svg id="CHANNEL5_PARAM">
      <g transform="translate(10 10)">
        <polyline points="-3,0 3,0" stroke-width="1" stroke="#00f"/>
        <polyline points="0,-3 0,3" stroke-width="1" stroke="#00f"/>
        <circle cx="0" cy="0" r="9.3" stroke-width="1" stroke="#00f" fill="none"/>
      </g>
    </svg></g>
    <g transform="translate(-6.5 -2)">
      <g transform="translate(20 20)">
        <polyline points="0,0 4,0" stroke-width="1" transform="rotate(-90) translate(11.5 0)"/>
        <path d="M 0 -13.5 A 13.5 13.5 0 0 1 13.5 0" stroke-width="0.5" stroke-linecap="round" stroke="#333" fill="none" transform="rotate(20)"/>
        <path d="M 0 -13.5 A 13.5 13.5 0 0 1 13.5 0" stroke-width="0.5" stroke-linecap="round" stroke="#333" fill="none" transform="rotate(43)"/>
        <path d="M 0 -13.5 A 13.5 13.5 0 0 0 -13.5 0" stroke-width="0.5" stroke-linecap="round" stroke="#333" fill="none" transform="rotate(-20)"/>
        <path d="M 0 -13.5 A 13.5 13.5 0 0 0 -13.5 0" stroke-width="0.5" stroke-linecap="round" stroke="#333" fill="none" transform="rotate(-43)"/>
      </g>
    </g>
    <text font-size="5pt" letter-spacing="1px" transform="translate(-7.2 20.5)">5</text>
    <g transform="translate(12.25 30)"><svg id="CHANNEL5_LIGHT">
      <rect width="3.2" height="3.2" fill="#0f0"/>
    </svg></g>
  </g>
  <g transform="translate(21.5 207)">
    <g transform="translate(3.5 8)"><svg id="CHANNEL6_PARAM">
      <g transform="translate(10 10)">
        <polyline points="-3,0 3,0" stroke-width="1" stroke="#00f"/>
        <polyline points="0,-3 0,3" stroke-width="1" stroke="#00f"/>
        <circle cx="0" cy="0" r="9.3" stroke-width="1" stroke="#00f" fill="none"/>
      </g>
    </svg></g>
    <g transform="translate(-6.5 -2)">
      <g transform="translate(20 20)">
        <polyline points="0,0 4,0" stroke-width="1" transform="rotate(-90) translate(11.5 0)"/>
        <path d="M 0 -13.5 A 13.5 13.5 0 0 1 13.5 0" stroke-width="0.5" stroke-linecap="round" stroke="#333" fill="none" transform="rotate(20)"/>
        <path d="M 0 -13.5 A 13.5 13.5 0 0 1 13.5 0" stroke-width="0.5" stroke-linecap="round" stroke="#333" fill="none" transform="rotate(43)"/>
        <path d="M 0 -13.5 A 13.5 13.5 0 0 0 -13.5 0" stroke-width="0.5" stroke-linecap="round" stroke="#333" fill="none" transform="rotate(-20)"/>
        <path d="M 0 -13.5 A 13.5 13.5 0 0 0 -13.5 0" stroke-width="0.5" stroke-linecap="round" stroke="#333" fill="none" transform="rotate(-43)"/>
      </g>
    </g>
    <text font-size="5pt" letter-spacing="1px" transform="translate(-7.2 20.5)">6</text>
    <g transform="translate(12.25 30)"><svg id="CHANNEL6_LIGHT">
      <rect width="3.2" height="3.2" fill="#0f0"/>
    </svg></g>
  </g>
  <g transform="translate(21.5 244)">
    <g transform="translate(3.5 8)"><svg id="CHANNEL7_PARAM">
      <g transform="translate(10 10)">
        <polyline points="-3,0 3,0" stroke-width="1" stroke="#00f"/>
        <polyline points="0,-3 0,3" stroke-width="1" stroke="#00f"/>
        <circle cx="0" cy="0" r="9.3" stroke-width="1" stroke="#00f" fill="none"/>
      </g>
    </svg></g>
    <g transform="translate(-6.5 -2)">
      <g transform="translate(20 20)">
        <polyline points="0,0 4,0" stroke-width="1" transform="rotate(-90) translate(11.5 0)"/>
        <path d="M 0 -13.5 A 13.5 13.5 0 0 1 13.5 0" stroke-width="0.5" stroke-linecap="round" stroke="#333" fill="none" transform="rotate(20)"/>
        <path d="M 0 -13.5 A 13.5 13.5 0 0 1 13.5 0" stroke-width="0.5" stroke-linecap="round" stroke="#333" fill="none" transform="rotate(43)"/>
        <path d="M 0 -13.5 A 13.5 13.5 0 0 0 -13.5 0" stroke-width="0.5" stroke-linecap="round" stroke="#333" fill="none" transform="rotate(-20)"/>
        <path d="M 0 -13.5 A 13.5 13.5 0 0 0 -13.5 0" stroke-width="0.5" stroke-linecap="round" stroke="#333" fill="none" transform="rotate(-43)"/>
      </g>
    </g>
    <text font-size="5pt" letter-spacing="1px" transform="translate(-7.2 20.5)">7</text>
    <g transform="translate(12.25 30)"><svg id="CHANNEL7_LIGHT">
      <rect width="3.2" height="3.2" fill="#0f0"/>
    </svg></g>
  </g>
  <g transform="translate(21.5 281)">
    <g transform="translate(3.5 8)"><svg id="CHANNEL8_PARAM">
      <g transform="translate(10 10)">
        <polyline points="-3,0 3,0" stroke-width="1" stroke="#00f"/>
        <polyline points="0,-3 0,3" stroke-width="1" stroke="#00f"/>
        <circle cx="0" cy="0" r="9.3" stroke-width="1" stroke="#00f" fill="none"/>
      </g>
    </svg></g>
    <g transform="translate(-6.5 -2)">
      <g transform="translate(20 20)">
        <polyline points="0,0 4,0" stroke-width="1" transform="rotate(-90) translate(11.5 0)"/>
        <path d="M 0 -13.5 A 13.5 13.5 0 0 1 13.5 0" stroke-width="0.5" stroke-linecap="round" stroke="#333" fill="none" transform="rotate(20)"/>
        <path d="M 0 -13.5 A 13.5 13.5 0 0 1 13.5 0" stroke-width="0.5" stroke-linecap="round" stroke="#333" fill="none" transform="rotate(43)"/>
        <path d="M 0 -13.5 A 13.5 13.5 0 0 0 -13.5 0" stroke-width="0.5" stroke-linecap="round" stroke="#333" fill="none" transform="rotate(-20)"/>
        <path d="M 0 -13.5 A 13.5 13.5 0 0 0 -13.5 0" stroke-width="0.5" stroke-linecap="round" stroke="#333" fill="none" transform="rotate(-43)"/>
      </g>
    </g>
    <text font-size="5pt" letter-spacing="1px" transform="translate(-7.2 20.5)">8</text>
    <g transform="translate(12.25 30)"><svg id="CHANNEL8_LIGHT">
      <rect width="3.2" height="3.2" fill="#0f0"/>
    </svg></g>
  </g>

  <g transform="translate(71.5 22)">
    <g transform="translate(3.5 8)"><svg id="CHANNEL9_PARAM">
      <g transform="translate(10 10)">
        <polyline points="-3,0 3,0" stroke-width="1" stroke="#00f"/>
        <polyline points="0,-3 0,3" stroke-width="1" stroke="#00f"/>
        <circle cx="0" cy="0" r="9.3" stroke-width="1" stroke="#00f" fill="none"/>
      </g>
    </svg></g>
    <g transform="translate(-6.5 -2)">
      <g transform="translate(20 20)">
        <polyline points="0,0 4,0" stroke-width="1" transform="rotate(-90) translate(11.5 0)"/>
        <path d="M 0 -13.5 A 13.5 13.5 0 0 1 13.5 0" stroke-width="0.5" stroke-linecap="round" stroke="#333" fill="none" transform="rotate(20)"/>
        <path d="M 0 -13.5 A 13.5 13.5 0 0 1 13.5 0" stroke-width="0.5" stroke-linecap="round" stroke="#333" fill="none" transform="rotate(43)"/>
        <path d="M 0 -13.5 A 13.5 13.5 0 0 0 -13.5 0" stroke-width="0.5" stroke-linecap="round" stroke="#333" fill="none" transform="rotate(-20)"/>
        <path d="M 0 -13.5 A 13.5 13.5 0 0 0 -13.5 0" stroke-width="0.5" stroke-linecap="round" stroke="#333" fill="none" transform="rotate(-43)"/>
      </g>
    </g>
    <text font-size="5pt" letter-spacing="1px" transform="translate(31 20.5)">9</text>
    <g transform="translate(12.25 30)"><svg id="CHANNEL9_LIGHT">
      <rect width="3.2" height="3.2" fill="#0f0"/>
    </svg></g>
  </g>
  <g transform="translate(71.5 59)">
    <g transform="translate(3.5 8)"><svg id="CHANNEL10_PARAM">
      <g transform="translate(10 10)">
        <polyline points="-3,0 3,0" stroke-width="1" stroke="#00f"/>
        <polyline points="0,-3 0,3" stroke-width="1" stroke="#00f"/>
        <circle cx="0" cy="0" r="9.3" stroke-width="1" stroke="#00f" fill="none"/>
      </g>
    </svg></g>
    <g transform="translate(-6.5 -2)">
      <g transform="translate(20 20)">
        <polyline points="0,0 4,0" stroke-width="1" transform="rotate(-90) translate(11.5 0)"/>
        <path d="M 0 -13.5 A 13.5 13.5 0 0 1 13.5 0" stroke-width="0.5" stroke-linecap="round" stroke="#333" fill="none" transform="rotate(20)"/>
        <path d="M 0 -13.5 A 13.5 13.5 0 0 1 13.5 0" stroke-width="0.5" stroke-linecap="round" stroke="#333" fill="none" transform="rotate(43)"/>
        <path d="M 0 -13.5 A 13.5 13.5 0 0 0 -13.5 0" stroke-width="0.5" stroke-linecap="round" stroke="#333" fill="none" transform="rotate(-20)"/>
        <path d="M 0 -13.5 A 13.5 13.5 0 0 0 -13.5 0" stroke-width="0.5" stroke-linecap="round" stroke="#333" fill="none" transform="rotate(-43)"/>
      </g>
    </g>
    <text font-size="5pt" letter-spacing="1px" transform="translate(30.5 20.5)">10</text>
    <g transform="translate(12.25 30)"><svg id="CHANNEL10_LIGHT">
      <rect width="3.2" height="3.2" fill="#0f0"/>
    </svg></g>
  </g>
  <g transform="translate(71.5 96)">
    <g transform="translate(3.5 8)"><svg id="CHANNEL11_PARAM">
      <g transform="translate(10 10)">
        <polyline points="-3,0 3,0" stroke-width="1" stroke="#00f"/>
        <polyline points="0,-3 0,3" stroke-width="1" stroke="#00f"/>
        <circle cx="0" cy="0" r="9.3" stroke-width="1" stroke="#00f" fill="none"/>
      </g>
    </svg></g>
    <g transform="translate(-6.5 -2)">
      <g transform="translate(20 20)">
        <polyline points="0,0 4,0" stroke-width="1" transform="rotate(-90) translate(11.5 0)"/>
        <path d="M 0 -13.5 A 13.5 13.5 0 0 1 13.5 0" stroke-width="0.5" stroke-linecap="round" stroke="#333" fill="none" transform="rotate(20)"/>
        <path d="M 0 -13.5 A 13.5 13.5 0 0 1 13.5 0" stroke-width="0.5" stroke-linecap="round" stroke="#333" fill="none" transform="rotate(43)"/>
        <path d="M 0 -13.5 A 13.5 13.5 0 0 0 -13.5 0" stroke-width="0.5" stroke-linecap="round" stroke="#333" fill="none" transform="rotate(-20)"/>
        <path d="M 0 -13.5 A 13.5 13.5 0 0 0 -13.5 0" stroke-width="0.5" stroke-linecap="round" stroke="#333" fill="none" transform="rotate(-43)"/>
      </g>
    </g>
    <text font-size="5pt" letter-spacing="1px" transform="translate(30.5 20.5)">11</text>
    <g transform="translate(12.25 30)"><svg id="CHANNEL11_LIGHT">
      <rect width="3.2" height="3.2" fill="#0f0"/>
    </svg></g>
  </g>
  <g transform="translate(71.5 133)">
    <g transform="translate(3.5 8)"><svg id="CHANNEL12_PARAM">
      <g transform="translate(10 10)">
        <polyline points="-3,0 3,0" stroke-width="1" stroke="#00f"/>
        <polyline points="0,-3 0,3" stroke-width="1" stroke="#00f"/>
        <circle cx="0" cy="0" r="9.3" stroke-width="1" stroke="#00f" fill="none"/>
      </g>
    </svg></g>
    <g transform="translate(-6.5 -2)">
      <g transform="translate(20 20)">
        <polyline points="0,0 4,0" stroke-width="1" transform="rotate(-90) translate(11.5 0)"/>
        <path d="M 0 -13.5 A 13.5 13.5 0 0 1 13.5 0" stroke-width="0.5" stroke-linecap="round" stroke="#333" fill="none" transform="rotate(20)"/>
        <path d="M 0 -13.5 A 13.5 13.5 0 0 1 13.5 0" stroke-width="0.5" stroke-linecap="round" stroke="#333" fill="none" transform="rotate(43)"/>
        <path d="M 0 -13.5 A 13.5 13.5 0 0 0 -13.5 0" stroke-width="0.5" stroke-linecap="round" stroke="#333" fill="none" transform="rotate(-20)"/>
        <path d="M 0 -13.5 A 13.5 13.5 0 0 0 -13.5 0" stroke-width="0.5" stroke-linecap="round" stroke="#333" fill="none" transform="rotate(-43)"/>
      </g>
    </g>
    <text font-size="5pt" letter-spacing="1px" transform="translate(30.5 20.5)">12</text>
    <g transform="translate(12.25 30)"><svg id="CHANNEL12_LIGHT">
      <rect width="3.2" height="3.2" fill="#0f0"/>
    </svg></g>
  </g>
  <g transform="translate(71.5 170)">
    <g transform="translate(3.5 8)"><svg id="CHANNEL13_PARAM">
      <g transform="translate(10 10)">
        <polyline points="-3,0 3,0" stroke-width="1" stroke="#00f"/>
        <polyline points="0,-3 0,3" stroke-width="1" stroke="#00f"/>
        <circle cx="0" cy="0" r="9.3" stroke-width="1" stroke="#00f" fill="none"/>
      </g>
    </svg></g>
    <g transform="translate(-6.5 -2)">
      <g transform="translate(20 20)">
        <polyline points="0,0 4,0" stroke-width="1" transform="rotate(-90) translate(11.5 0)"/>
        <path d="M 0 -13.5 A 13.5 13.5 0 0 1 13.5 0" stroke-width="0.5" stroke-linecap="round" stroke="#333" fill="none" transform="rotate(20)"/>
        <path d="M 0 -13.5 A 13.5 13.5 0 0 1 13.5 0" stroke-width="0.5" stroke-linecap="round" stroke="#333" fill="none" transform="rotate(43)"/>
        <path d="M 0 -13.5 A 13.5 13.5 0 0 0 -13.5 0" stroke-width="0.5" stroke-linecap="round" stroke="#333" fill="none" transform="rotate(-20)"/>
        <path d="M 0 -13.5 A 13.5 13.5 0 0 0 -13.5 0" stroke-width="0.5" stroke-linecap="round" stroke="#333" fill="none" transform="rotate(-43)"/>
      </g>
    </g>
    <text font-size="5pt" letter-spacing="1px" transform="translate(30.5 20.5)">13</text>
    <g transform="translate(12.25 30)"><svg id="CHANNEL13_LIGHT">
      <rect width="3.2" height="3.2" fill="#0f0"/>
    </svg></g>
  </g>
  <g transform="translate(71.5 207)">
    <g transform="translate(3.5 8)"><svg id="CHANNEL14_PARAM">
      <g transform="translate(10 10)">
        <polyline points="-3,0 3,0" stroke-width="1" stroke="#00f"/>
        <polyline points="0,-3 0,3" stroke-width="1" stroke="#00f"/>
        <circle cx="0" cy="0" r="9.3" stroke-width="1" stroke="#00f" fill="none"/>
      </g>
    </svg></g>
    <g transform="translate(-6.5 -2)">
      <g transform="translate(20 20)">
        <polyline points="0,0 4,0" stroke-width="1" transform="rotate(-90) translate(11.5 0)"/>
        <path d="M 0 -13.5 A 13.5 13.5 0 0 1 13.5 0" stroke-width="0.5" stroke-linecap="round" stroke="#333" fill="none" transform="rotate(20)"/>
        <path d="M 0 -13.5 A 13.5 13.5 0 0 1 13.5 0" stroke-width="0.5" stroke-linecap="round" stroke="#333" fill="none" transform="rotate(43)"/>
        <path d="M 0 -13.5 A 13.5 13.5 0 0 0 -13.5 0" stroke-width="0.5" stroke-linecap="round" stroke="#333" fill="none" transform="rotate(-20)"/>
        <path d="M 0 -13.5 A 13.5 13.5 0 0 0 -13.5 0" stroke-width="0.5" stroke-linecap="round" stroke="#333" fill="none" transform="rotate(-43)"/>
      </g>
    </g>
    <text font-size="5pt" letter-spacing="1px" transform="translate(30.5 20.5)">14</text>
    <g transform="translate(12.25 30)"><svg id="CHANNEL14_LIGHT">
      <rect width="3.2" height="3.2" fill="#0f0"/>
    </svg></g>
  </g>
  <g transform="translate(71.5 244)">
    <g transform="translate(3.5 8)"><svg id="CHANNEL15_PARAM">
      <g transform="translate(10 10)">
        <polyline points="-3,0 3,0" stroke-width="1" stroke="#00f"/>
        <polyline points="0,-3 0,3" stroke-width="1" stroke="#00f"/>
        <circle cx="0" cy="0" r="9.3" stroke-width="1" stroke="#00f" fill="none"/>
      </g>
    </svg></g>
    <g transform="translate(-6.5 -2)">
      <g transform="translate(20 20)">
        <polyline points="0,0 4,0" stroke-width="1" transform="rotate(-90) translate(11.5 0)"/>
        <path d="M 0 -13.5 A 13.5 13.5 0 0 1 13.5 0" stroke-width="0.5" stroke-linecap="round" stroke="#333" fill="none" transform="rotate(20)"/>
        <path d="M 0 -13.5 A 13.5 13.5 0 0 1 13.5 0" stroke-width="0.5" stroke-linecap="round" stroke="#333" fill="none" transform="rotate(43)"/>
        <path d="M 0 -13.5 A 13.5 13.5 0 0 0 -13.5 0" stroke-width="0.5" stroke-linecap="round" stroke="#333" fill="none" transform="rotate(-20)"/>
        <path d="M 0 -13.5 A 13.5 13.5 0 0 0 -13.5 0" stroke-width="0.5" stroke-linecap="round" stroke="#333" fill="none" transform="rotate(-43)"/>
      </g>
    </g>
    <text font-size="5pt" letter-spacing="1px" transform="translate(30.5 20.5)">15</text>
    <g transform="translate(12.25 30)"><svg id="CHANNEL15_LIGHT">
      <rect width="3.2" height="3.2" fill="#0f0"/>
    </svg></g>
  </g>
  <g transform="translate(71.5 281)">
    <g transform="translate(3.5 8)"><svg id="CHANNEL16_PARAM">
      <g transform="translate(10 10)">
        <polyline points="-3,0 3,0" stroke-width="1" stroke="#00f"/>
        <polyline points="0,-3 0,3" stroke-width="1" stroke="#00f"/>
        <circle cx="0" cy="0" r="9.3" stroke-width="1" stroke="#00f" fill="none"/>
      </g>
    </svg></g>
    <g transform="translate(-6.5 -2)">
      <g transform="translate(20 20)">
        <polyline points="0,0 4,0" stroke-width="1" transform="rotate(-90) translate(11.5 0)"/>
        <path d="M 0 -13.5 A 13.5 13.5 0 0 1 13.5 0" stroke-width="0.5" stroke-linecap="round" stroke="#333" fill="none" transform="rotate(20)"/>
        <path d="M 0 -13.5 A 13.5 13.5 0 0 1 13.5 0" stroke-width="0.5" stroke-linecap="round" stroke="#333" fill="none" transform="rotate(43)"/>
        <path d="M 0 -13.5 A 13.5 13.5 0 0 0 -13.5 0" stroke-width="0.5" stroke-linecap="round" stroke="#333" fill="none" transform="rotate(-20)"/>
        <path d="M 0 -13.5 A 13.5 13.5 0 0 0 -13.5 0" stroke-width="0.5" stroke-linecap="round" stroke="#333" fill="none" transform="rotate(-43)"/>
      </g>
    </g>
    <text font-size="5pt" letter-spacing="1px" transform="translate(30.5 20.5)">16</text>
    <g transform="translate(12.25 30)"><svg id="CHANNEL16_LIGHT">
      <rect width="3.2" height="3.2" fill="#0f0"/>
    </svg></g>
  </g>

  <g transform="translate(11 320)">
    <text font-size="6pt" letter-spacing="1.5px" transform="translate(0 39) rotate(-90) translate(6.5 0)">CHAN</text>
    <g transform="translate(12 12)"><svg id="CHANNELS_PARAM">
      <g transform="translate(8 8)">
        <polyline points="-3,0 3,0" stroke-width="1" stroke="#00f"/>
        <polyline points="0,-3 0,3" stroke-width="1" stroke="#00f"/>
        <circle r="7.5" stroke-width="1" stroke="#00f" fill="none"/>
      </g>
    </svg></g>
    <g transform="translate(0 0)">
      <g transform="translate(20 20)">
        <text font-size="5pt" transform="rotate(-240) translate(14 0) rotate(240) translate(-2 2)">1</text>
        <text font-size="5pt" transform="rotate(-180) translate(14 0) rotate(180) translate(-2 2)">4</text>
        <text font-size="5pt" transform="rotate(-100) translate(14 0) rotate(100) translate(-2 2)">8</text>
        <text font-size="5pt" transform="rotate(-20) translate(13 0) rotate(20) translate(-2 2)">12</text>
        <text font-size="5pt" transform="rotate(60) translate(13 0) rotate(-60) translate(-1.8 3)">16</text>

        <polyline points="0,0 2.5,0" stroke-width="0.3" transform="rotate(-220) translate(10 0)"/>
        <polyline points="0,0 2.5,0" stroke-width="0.3" transform="rotate(-200) translate(10 0)"/>
        <polyline points="0,0 2.5,0" stroke-width="0.3" transform="rotate(-160) translate(10 0)"/>
        <polyline points="0,0 2.5,0" stroke-width="0.3" transform="rotate(-140) translate(10 0)"/>
        <polyline points="0,0 2.5,0" stroke-width="0.3" transform="rotate(-120) translate(10 0)"/>
        <polyline points="0,0 2.5,0" stroke-width="0.3" transform="rotate(-80) translate(10 0)"/>
        <polyline points="0,0 2.5,0" stroke-width="0.3" transform="rotate(-60) translate(10 0)"/>
        <polyline points="0,0 2.5,0" stroke-width="0.3" transform="rotate(-40) translate(10 0)"/>
        <polyline points="0,0 2.5,0" stroke-width="0.3" transform="rotate(0) translate(10 0)"/>
        <polyline points="0,0 2.5,0" stroke-width="0.3" transform="rotate(20) translate(10 0)"/>
        <polyline points="0,0 2.5,0" stroke-width="0.3" transform="rotate(40) translate(10 0)"/>
      </g>
    </g>
  </g>

  <g class="io-group" transform="translate(52 318)">
    <rect class="input-background" width="60" height="40" rx="5"/>
    <rect class="output-background" width="24" height="40" rx="5" transform="translate(38)"/>
    <rect class="output-background-filler" width="20" height="40" transform="translate(31)"/>
    <g transform="translate(3.5 4)"><svg id="CHANNELS_INPUT">
      <g transform="translate(12 12)">
        <circle cx="0" cy="0" r="5" stroke-width="1" stroke="#0f0" fill="#0f0"/>
        <circle cx="0" cy="0" r="10.5" stroke-width="3" stroke="#0f0" fill="none"/>
      </g>
    </svg></g>
    <g transform="translate(34.5 4)"><svg id="OUT_OUTPUT">
      <g transform="translate(12 12)">
        <circle cx="0" cy="0" r="5" stroke-width="1" stroke="#f00" fill="#f00"/>
        <circle cx="0" cy="0" r="10.5" stroke-width="3" stroke="#f00" fill="none"/>
      </g>
    </svg></g>
    <text class="output-label" font-size="6pt" letter-spacing="1px" transform="translate(3 36)">CHAN</text>
    <text font-size="6pt" letter-spacing="2px" transform="translate(36 36)">OUT</text>
  </g>
</svg>
