<?xml version="1.0"?>
<svg xmlns="http://www.w3.org/2000/svg" xmlns:xlink="http://www.w3.org/1999/xlink" version="1.1" width="45" height="380" viewBox="0 0 45 380">
  <style>text {
  fill: #333;
  font-family: 'Roboto', sans-serif;
  font-weight: bold;
}
text.title {
  font-family: 'Comfortaa', sans-serif;
  font-weight: normal;
}
text.brand {
  font-family: 'Audiowide', sans-serif;
  font-weight: bold;
}
</style>

  <defs>
    <symbol id="knob16" viewBox="0 0 16px 16px">
      <g transform="translate(8 8)">
        <polyline points="-3,0 3,0" stroke-width="1" stroke="#00f"/>
        <polyline points="0,-3 0,3" stroke-width="1" stroke="#00f"/>
        <circle r="7.5" stroke-width="1" stroke="#00f" fill="none"/>
      </g>
    </symbol>
    <symbol id="dial-centertick" viewBox="0 0 40px 40px">
      <g transform="translate(20 20)">
        <g transform="rotate(-90) translate(10 0)">
          <polyline points="0,0 4,0" stroke-width="1" stroke="#333"/>
        </g>
        <path d="M 0 -12.5 A 12.5 12.5 0 0 1 12.5 0" stroke="#333" stroke-width="0.5" stroke-linecap="round" fill="none" transform="rotate(20)"/>
        <path d="M 0 -12.5 A 12.5 12.5 0 0 1 12.5 0" stroke="#333" stroke-width="0.5" stroke-linecap="round" fill="none" transform="rotate(43)"/>
        <path d="M 0 -12.5 A 12.5 12.5 0 0 0 -12.5 0" stroke="#333" stroke-width="0.5" stroke-linecap="round" fill="none" transform="rotate(-20)"/>
        <path d="M 0 -12.5 A 12.5 12.5 0 0 0 -12.5 0" stroke="#333" stroke-width="0.5" stroke-linecap="round" fill="none" transform="rotate(-43)"/>
      </g>
    </symbol>
    <symbol id="output" viewBox="0 0 24px 24px">
      <g transform="translate(12 12)">
        <circle cx="0" cy="0" r="5" stroke-width="1" stroke="#f00" fill="#f00"/>
        <circle cx="0" cy="0" r="10.5" stroke-width="3" stroke="#f00" fill="none"/>
      </g>
    </symbol>
    <symbol id="light-tiny" viewBox="0 0 1.1px 1.1px">
      <rect width="3.2" height="3.2" fill="#0f0"/>
    </symbol>
  </defs>

  <rect width="100%" height="100%" fill="#ddd"/>
  <polyline points="1,1 44,1 44,379 1,379 1,1" stroke="#e4e4e4" stroke-width="0.5" fill="none"/>
  <polyline points="0.5,0.5 44.5,0.5 44.5,379.5 0.5,379.5 0.5,0.5" stroke="#ebebeb" stroke-width="0.8" fill="none"/>
  <polyline points="0,0 45,0 45,380 0,380 0,0" stroke="#f2f2f2" stroke-width="1" fill="none"/>

  <g transform="rotate(-90) translate(-376 13)">
    <text class="title" font-size="7pt" letter-spacing="0.5px">POLYCON8</text>
    <g transform="translate(0 12)">
      <text class="brand" font-size="7pt" letter-spacing="2px">BGA</text>
      <rect width="3.0" height="3" fill="#ddd" transform="translate(11.5 -5)"/>
    </g>
  </g>

  <!-- <polyline points="0,0 0,380" stroke="#0f0" stroke-width="1" fill="none" transform="translate(5 0)" /> -->
  <!-- <polyline points="0,0 0,380" stroke="#0f0" stroke-width="1" fill="none" transform="translate(40 0)" /> -->

  <g transform="translate(0 18)">
    <!-- <rect width="45" height="23" fill="#ff0" transform="translate(0 0)" /> -->
    <use id="CHANNEL1_PARAM" xlink:href="#knob16" transform="translate(14.5 6)"/>
    <use xlink:href="#dial-centertick" transform="translate(2.2 -6)"/>
    <text font-size="5pt" letter-spacing="1px" transform="translate(3 16.5)">1</text>
    <use id="CHANNEL1_LIGHT" xlink:href="#light-tiny" transform="translate(38.5 12.4)"/>
  </g>
  <g transform="translate(0 49.5)">
    <!-- <rect width="45" height="23" fill="#ff0" transform="translate(0 0)" /> -->
    <use id="CHANNEL2_PARAM" xlink:href="#knob16" transform="translate(14.5 6)"/>
    <use xlink:href="#dial-centertick" transform="translate(2.2 -6)"/>
    <text font-size="5pt" letter-spacing="1px" transform="translate(3 16.5)">2</text>
    <use id="CHANNEL2_LIGHT" xlink:href="#light-tiny" transform="translate(38.5 12.4)"/>
  </g>
  <g transform="translate(0 81)">
    <!-- <rect width="45" height="23" fill="#ff0" transform="translate(0 0)" /> -->
    <use id="CHANNEL3_PARAM" xlink:href="#knob16" transform="translate(14.5 6)"/>
    <use xlink:href="#dial-centertick" transform="translate(2.2 -6)"/>
    <text font-size="5pt" letter-spacing="1px" transform="translate(3 16.5)">3</text>
    <use id="CHANNEL3_LIGHT" xlink:href="#light-tiny" transform="translate(38.5 12.4)"/>
  </g>
  <g transform="translate(0 112.5)">
    <!-- <rect width="45" height="23" fill="#ff0" transform="translate(0 0)" /> -->
    <use id="CHANNEL4_PARAM" xlink:href="#knob16" transform="translate(14.5 6)"/>
    <use xlink:href="#dial-centertick" transform="translate(2.2 -6)"/>
    <text font-size="5pt" letter-spacing="1px" transform="translate(3 16.5)">4</text>
    <use id="CHANNEL4_LIGHT" xlink:href="#light-tiny" transform="translate(38.5 12.4)"/>
  </g>
  <g transform="translate(0 144)">
    <!-- <rect width="45" height="23" fill="#ff0" transform="translate(0 0)" /> -->
    <use id="CHANNEL5_PARAM" xlink:href="#knob16" transform="translate(14.5 6)"/>
    <use xlink:href="#dial-centertick" transform="translate(2.2 -6)"/>
    <text font-size="5pt" letter-spacing="1px" transform="translate(3 16.5)">5</text>
    <use id="CHANNEL5_LIGHT" xlink:href="#light-tiny" transform="translate(38.5 12.4)"/>
  </g>
  <g transform="translate(0 175.5)">
    <!-- <rect width="45" height="23" fill="#ff0" transform="translate(0 0)" /> -->
    <use id="CHANNEL6_PARAM" xlink:href="#knob16" transform="translate(14.5 6)"/>
    <use xlink:href="#dial-centertick" transform="translate(2.2 -6)"/>
    <text font-size="5pt" letter-spacing="1px" transform="translate(3 16.5)">6</text>
    <use id="CHANNEL6_LIGHT" xlink:href="#light-tiny" transform="translate(38.5 12.4)"/>
  </g>
  <g transform="translate(0 207)">
    <!-- <rect width="45" height="23" fill="#ff0" transform="translate(0 0)" /> -->
    <use id="CHANNEL7_PARAM" xlink:href="#knob16" transform="translate(14.5 6)"/>
    <use xlink:href="#dial-centertick" transform="translate(2.2 -6)"/>
    <text font-size="5pt" letter-spacing="1px" transform="translate(3 16.5)">7</text>
    <use id="CHANNEL7_LIGHT" xlink:href="#light-tiny" transform="translate(38.5 12.4)"/>
  </g>
  <g transform="translate(0 238.5)">
    <!-- <rect width="45" height="23" fill="#ff0" transform="translate(0 0)" /> -->
    <use id="CHANNEL8_PARAM" xlink:href="#knob16" transform="translate(14.5 6)"/>
    <use xlink:href="#dial-centertick" transform="translate(2.2 -6)"/>
    <text font-size="5pt" letter-spacing="1px" transform="translate(3 16.5)">8</text>
    <use id="CHANNEL8_LIGHT" xlink:href="#light-tiny" transform="translate(38.5 12.4)"/>
  </g>

  <g transform="translate(7.5 270)">
    <rect width="34" height="40" rx="5" fill="#bbb" transform="translate(-2 0)"/>
    <use id="OUT_OUTPUT" xlink:href="#output" transform="translate(3 4)"/>
    <text font-size="6pt" letter-spacing="2px" transform="translate(5 36)">OUT</text>
  </g>
</svg>
