<?xml version="1.0"?>
<svg xmlns="http://www.w3.org/2000/svg" xmlns:xlink="http://www.w3.org/1999/xlink" version="1.1" width="120" height="380" viewBox="0 0 120 380">
  <style>text {
  fill: #333;
  font-family: 'Roboto', sans-serif;
  font-weight: bold;
}
text.title {
  font-family: 'Comfortaa', sans-serif;
  font-weight: normal;
}
text.brand {
  font-family: 'Audiowide', sans-serif;
  font-weight: bold;
}

polyline {
  stroke: #333;
}
path {
  stroke: #333;
}

rect.module-background, .background-fill {
  fill: #ddd;
}
polyline.module-border-inner {
  stroke: #e4e4e4;
}
polyline.module-border-middle {
  stroke: #ebebeb;
}
polyline.module-border-outer {
  stroke: #f2f2f2;
}

g.io-group {
}
rect.input-background {
  fill: #fafafa;
}
rect.input-background-filler {
  fill: #fafafa;
}
rect.output-background {
  fill: #bbb;
}
rect.output-background-filler {
  fill: #bbb;
}
text.input-label, text.output-label {
  /* font-size: 6pt; */
}
</style>

  
      
      <rect class="module-background background-fill" width="120.0" height="380.0"/>
    
      
      <polyline class="module-border-inner" points="1,1 119.0,1 119.0,379.0 1,379.0 1,1" stroke-width="0.5" fill="none"/>
      <polyline class="module-border-middle" points="0.5,0.5 119.5,0.5 119.5,379.5 0.5,379.5 0.5,0.5" stroke-width="0.8" fill="none"/>
      <polyline class="module-border-outer" points="0,0 120.0,0 120.0,380.0 0,380.0 0,0" stroke-width="1" fill="none"/>
    
      <text class="title" font-size="9pt" letter-spacing="3px" text-anchor="middle" transform="translate(60.0 19)">POLYOFF8</text>
      <g transform="translate(5.5 374)">
        <text class="brand" font-size="6.5pt" letter-spacing="2px">BOGAUDIO</text>
        <rect width="1.5" height="2" fill="#ddd" transform="translate(21 -4)"/>
      </g>
    

  
  
  
  
  
  
  

  <g class="io-group" transform="translate(5.5 24)">
    <rect class="input-background" width="34" height="289" rx="5" transform="translate(0 0)"/>
    <g transform="translate(5 5)"><svg id="CV1_INPUT">
      <g transform="translate(12 12)">
        <circle cx="0" cy="0" r="5" stroke-width="1" stroke="#0f0" fill="#0f0"/>
        <circle cx="0" cy="0" r="10.5" stroke-width="3" stroke="#0f0" fill="none"/>
      </g>
    </svg></g>
    <g transform="translate(5 40)"><svg id="CV2_INPUT">
      <g transform="translate(12 12)">
        <circle cx="0" cy="0" r="5" stroke-width="1" stroke="#0f0" fill="#0f0"/>
        <circle cx="0" cy="0" r="10.5" stroke-width="3" stroke="#0f0" fill="none"/>
      </g>
    </svg></g>
    <g transform="translate(5 75)"><svg id="CV3_INPUT">
      <g transform="translate(12 12)">
        <circle cx="0" cy="0" r="5" stroke-width="1" stroke="#0f0" fill="#0f0"/>
        <circle cx="0" cy="0" r="10.5" stroke-width="3" stroke="#0f0" fill="none"/>
      </g>
    </svg></g>
    <g transform="translate(5 110)"><svg id="CV4_INPUT">
      <g transform="translate(12 12)">
        <circle cx="0" cy="0" r="5" stroke-width="1" stroke="#0f0" fill="#0f0"/>
        <circle cx="0" cy="0" r="10.5" stroke-width="3" stroke="#0f0" fill="none"/>
      </g>
    </svg></g>
    <g transform="translate(5 145)"><svg id="CV5_INPUT">
      <g transform="translate(12 12)">
        <circle cx="0" cy="0" r="5" stroke-width="1" stroke="#0f0" fill="#0f0"/>
        <circle cx="0" cy="0" r="10.5" stroke-width="3" stroke="#0f0" fill="none"/>
      </g>
    </svg></g>
    <g transform="translate(5 180)"><svg id="CV6_INPUT">
      <g transform="translate(12 12)">
        <circle cx="0" cy="0" r="5" stroke-width="1" stroke="#0f0" fill="#0f0"/>
        <circle cx="0" cy="0" r="10.5" stroke-width="3" stroke="#0f0" fill="none"/>
      </g>
    </svg></g>
    <g transform="translate(5 215)"><svg id="CV7_INPUT">
      <g transform="translate(12 12)">
        <circle cx="0" cy="0" r="5" stroke-width="1" stroke="#0f0" fill="#0f0"/>
        <circle cx="0" cy="0" r="10.5" stroke-width="3" stroke="#0f0" fill="none"/>
      </g>
    </svg></g>
    <g transform="translate(5 250)"><svg id="CV8_INPUT">
      <g transform="translate(12 12)">
        <circle cx="0" cy="0" r="5" stroke-width="1" stroke="#0f0" fill="#0f0"/>
        <circle cx="0" cy="0" r="10.5" stroke-width="3" stroke="#0f0" fill="none"/>
      </g>
    </svg></g>
    <text class="input-label" font-size="6pt" letter-spacing="1px" transform="translate(4 284)">IN/CV</text>
  </g>

  <g transform="translate(0 33)">
    <text font-size="5pt" letter-spacing="1px" transform="translate(46.5 8)">1</text>
    <g transform="translate(46.8 10)"><svg id="CHANNEL1_LIGHT">
      <rect width="3.2" height="3.2" fill="#0f0"/>
    </svg></g>
    <g transform="translate(62.5 0)"><svg id="OFFSET1_PARAM">
      <g transform="translate(8 8)">
        <polyline points="-3,0 3,0" stroke-width="1" stroke="#00f"/>
        <polyline points="0,-3 0,3" stroke-width="1" stroke="#00f"/>
        <circle r="7.5" stroke-width="1" stroke="#00f" fill="none"/>
      </g>
    </svg></g>
    <g transform="translate(50.5 -12)">
      <g transform="translate(20 20)">
        <g transform="rotate(-90) translate(10 0)">
          <polyline points="0,0 4,0" stroke-width="1"/>
        </g>
        <path d="M 0 -12.5 A 12.5 12.5 0 0 1 12.5 0" stroke-width="0.5" stroke-linecap="round" fill="none" transform="rotate(20)"/>
        <path d="M 0 -12.5 A 12.5 12.5 0 0 1 12.5 0" stroke-width="0.5" stroke-linecap="round" fill="none" transform="rotate(43)"/>
        <path d="M 0 -12.5 A 12.5 12.5 0 0 0 -12.5 0" stroke-width="0.5" stroke-linecap="round" fill="none" transform="rotate(-20)"/>
        <path d="M 0 -12.5 A 12.5 12.5 0 0 0 -12.5 0" stroke-width="0.5" stroke-linecap="round" fill="none" transform="rotate(-43)"/>
      </g>
    </g>
    <g transform="translate(93.5 0)"><svg id="SCALE1_PARAM">
      <g transform="translate(8 8)">
        <polyline points="-3,0 3,0" stroke-width="1" stroke="#00f"/>
        <polyline points="0,-3 0,3" stroke-width="1" stroke="#00f"/>
        <circle r="7.5" stroke-width="1" stroke="#00f" fill="none"/>
      </g>
    </svg></g>
    <g transform="translate(81.5 -12)">
      <g transform="translate(20 20)">
        <g transform="rotate(-240) translate(10 0)">
          <polyline points="0,0 4,0" stroke-width="1"/>
        </g>
        <path d="M 0 -12.5 A 12.5 12.5 0 0 1 12.5 0" stroke-width="0.5" stroke-linecap="round" fill="none" transform="rotate(0)"/>
        <path d="M 0 -12.5 A 12.5 12.5 0 0 1 12.5 0" stroke-width="0.5" stroke-linecap="round" fill="none" transform="rotate(43)"/>
        <path d="M 0 -12.5 A 12.5 12.5 0 0 0 -12.5 0" stroke-width="0.5" stroke-linecap="round" fill="none" transform="rotate(0)"/>
        <path d="M 0 -12.5 A 12.5 12.5 0 0 0 -12.5 0" stroke-width="0.5" stroke-linecap="round" fill="none" transform="rotate(-43)"/>
      </g>
    </g>
    
  </g>

  <g transform="translate(0 68)">
    <text font-size="5pt" letter-spacing="1px" transform="translate(46.5 8)">2</text>
    <g transform="translate(46.8 10)"><svg id="CHANNEL2_LIGHT">
      <rect width="3.2" height="3.2" fill="#0f0"/>
    </svg></g>
    <g transform="translate(62.5 0)"><svg id="OFFSET2_PARAM">
      <g transform="translate(8 8)">
        <polyline points="-3,0 3,0" stroke-width="1" stroke="#00f"/>
        <polyline points="0,-3 0,3" stroke-width="1" stroke="#00f"/>
        <circle r="7.5" stroke-width="1" stroke="#00f" fill="none"/>
      </g>
    </svg></g>
    <g transform="translate(50.5 -12)">
      <g transform="translate(20 20)">
        <g transform="rotate(-90) translate(10 0)">
          <polyline points="0,0 4,0" stroke-width="1"/>
        </g>
        <path d="M 0 -12.5 A 12.5 12.5 0 0 1 12.5 0" stroke-width="0.5" stroke-linecap="round" fill="none" transform="rotate(20)"/>
        <path d="M 0 -12.5 A 12.5 12.5 0 0 1 12.5 0" stroke-width="0.5" stroke-linecap="round" fill="none" transform="rotate(43)"/>
        <path d="M 0 -12.5 A 12.5 12.5 0 0 0 -12.5 0" stroke-width="0.5" stroke-linecap="round" fill="none" transform="rotate(-20)"/>
        <path d="M 0 -12.5 A 12.5 12.5 0 0 0 -12.5 0" stroke-width="0.5" stroke-linecap="round" fill="none" transform="rotate(-43)"/>
      </g>
    </g>
    <g transform="translate(93.5 0)"><svg id="SCALE2_PARAM">
      <g transform="translate(8 8)">
        <polyline points="-3,0 3,0" stroke-width="1" stroke="#00f"/>
        <polyline points="0,-3 0,3" stroke-width="1" stroke="#00f"/>
        <circle r="7.5" stroke-width="1" stroke="#00f" fill="none"/>
      </g>
    </svg></g>
    <g transform="translate(81.5 -12)">
      <g transform="translate(20 20)">
        <g transform="rotate(-240) translate(10 0)">
          <polyline points="0,0 4,0" stroke-width="1"/>
        </g>
        <path d="M 0 -12.5 A 12.5 12.5 0 0 1 12.5 0" stroke-width="0.5" stroke-linecap="round" fill="none" transform="rotate(0)"/>
        <path d="M 0 -12.5 A 12.5 12.5 0 0 1 12.5 0" stroke-width="0.5" stroke-linecap="round" fill="none" transform="rotate(43)"/>
        <path d="M 0 -12.5 A 12.5 12.5 0 0 0 -12.5 0" stroke-width="0.5" stroke-linecap="round" fill="none" transform="rotate(0)"/>
        <path d="M 0 -12.5 A 12.5 12.5 0 0 0 -12.5 0" stroke-width="0.5" stroke-linecap="round" fill="none" transform="rotate(-43)"/>
      </g>
    </g>
    
  </g>

  <g transform="translate(0 103)">
    <text font-size="5pt" letter-spacing="1px" transform="translate(46.5 8)">3</text>
    <g transform="translate(46.8 10)"><svg id="CHANNEL3_LIGHT">
      <rect width="3.2" height="3.2" fill="#0f0"/>
    </svg></g>
    <g transform="translate(62.5 0)"><svg id="OFFSET3_PARAM">
      <g transform="translate(8 8)">
        <polyline points="-3,0 3,0" stroke-width="1" stroke="#00f"/>
        <polyline points="0,-3 0,3" stroke-width="1" stroke="#00f"/>
        <circle r="7.5" stroke-width="1" stroke="#00f" fill="none"/>
      </g>
    </svg></g>
    <g transform="translate(50.5 -12)">
      <g transform="translate(20 20)">
        <g transform="rotate(-90) translate(10 0)">
          <polyline points="0,0 4,0" stroke-width="1"/>
        </g>
        <path d="M 0 -12.5 A 12.5 12.5 0 0 1 12.5 0" stroke-width="0.5" stroke-linecap="round" fill="none" transform="rotate(20)"/>
        <path d="M 0 -12.5 A 12.5 12.5 0 0 1 12.5 0" stroke-width="0.5" stroke-linecap="round" fill="none" transform="rotate(43)"/>
        <path d="M 0 -12.5 A 12.5 12.5 0 0 0 -12.5 0" stroke-width="0.5" stroke-linecap="round" fill="none" transform="rotate(-20)"/>
        <path d="M 0 -12.5 A 12.5 12.5 0 0 0 -12.5 0" stroke-width="0.5" stroke-linecap="round" fill="none" transform="rotate(-43)"/>
      </g>
    </g>
    <g transform="translate(93.5 0)"><svg id="SCALE3_PARAM">
      <g transform="translate(8 8)">
        <polyline points="-3,0 3,0" stroke-width="1" stroke="#00f"/>
        <polyline points="0,-3 0,3" stroke-width="1" stroke="#00f"/>
        <circle r="7.5" stroke-width="1" stroke="#00f" fill="none"/>
      </g>
    </svg></g>
    <g transform="translate(81.5 -12)">
      <g transform="translate(20 20)">
        <g transform="rotate(-240) translate(10 0)">
          <polyline points="0,0 4,0" stroke-width="1"/>
        </g>
        <path d="M 0 -12.5 A 12.5 12.5 0 0 1 12.5 0" stroke-width="0.5" stroke-linecap="round" fill="none" transform="rotate(0)"/>
        <path d="M 0 -12.5 A 12.5 12.5 0 0 1 12.5 0" stroke-width="0.5" stroke-linecap="round" fill="none" transform="rotate(43)"/>
        <path d="M 0 -12.5 A 12.5 12.5 0 0 0 -12.5 0" stroke-width="0.5" stroke-linecap="round" fill="none" transform="rotate(0)"/>
        <path d="M 0 -12.5 A 12.5 12.5 0 0 0 -12.5 0" stroke-width="0.5" stroke-linecap="round" fill="none" transform="rotate(-43)"/>
      </g>
    </g>
    
  </g>

  <g transform="translate(0 138)">
    <text font-size="5pt" letter-spacing="1px" transform="translate(46.5 8)">4</text>
    <g transform="translate(46.8 10)"><svg id="CHANNEL4_LIGHT">
      <rect width="3.2" height="3.2" fill="#0f0"/>
    </svg></g>
    <g transform="translate(62.5 0)"><svg id="OFFSET4_PARAM">
      <g transform="translate(8 8)">
        <polyline points="-3,0 3,0" stroke-width="1" stroke="#00f"/>
        <polyline points="0,-3 0,3" stroke-width="1" stroke="#00f"/>
        <circle r="7.5" stroke-width="1" stroke="#00f" fill="none"/>
      </g>
    </svg></g>
    <g transform="translate(50.5 -12)">
      <g transform="translate(20 20)">
        <g transform="rotate(-90) translate(10 0)">
          <polyline points="0,0 4,0" stroke-width="1"/>
        </g>
        <path d="M 0 -12.5 A 12.5 12.5 0 0 1 12.5 0" stroke-width="0.5" stroke-linecap="round" fill="none" transform="rotate(20)"/>
        <path d="M 0 -12.5 A 12.5 12.5 0 0 1 12.5 0" stroke-width="0.5" stroke-linecap="round" fill="none" transform="rotate(43)"/>
        <path d="M 0 -12.5 A 12.5 12.5 0 0 0 -12.5 0" stroke-width="0.5" stroke-linecap="round" fill="none" transform="rotate(-20)"/>
        <path d="M 0 -12.5 A 12.5 12.5 0 0 0 -12.5 0" stroke-width="0.5" stroke-linecap="round" fill="none" transform="rotate(-43)"/>
      </g>
    </g>
    <g transform="translate(93.5 0)"><svg id="SCALE4_PARAM">
      <g transform="translate(8 8)">
        <polyline points="-3,0 3,0" stroke-width="1" stroke="#00f"/>
        <polyline points="0,-3 0,3" stroke-width="1" stroke="#00f"/>
        <circle r="7.5" stroke-width="1" stroke="#00f" fill="none"/>
      </g>
    </svg></g>
    <g transform="translate(81.5 -12)">
      <g transform="translate(20 20)">
        <g transform="rotate(-240) translate(10 0)">
          <polyline points="0,0 4,0" stroke-width="1"/>
        </g>
        <path d="M 0 -12.5 A 12.5 12.5 0 0 1 12.5 0" stroke-width="0.5" stroke-linecap="round" fill="none" transform="rotate(0)"/>
        <path d="M 0 -12.5 A 12.5 12.5 0 0 1 12.5 0" stroke-width="0.5" stroke-linecap="round" fill="none" transform="rotate(43)"/>
        <path d="M 0 -12.5 A 12.5 12.5 0 0 0 -12.5 0" stroke-width="0.5" stroke-linecap="round" fill="none" transform="rotate(0)"/>
        <path d="M 0 -12.5 A 12.5 12.5 0 0 0 -12.5 0" stroke-width="0.5" stroke-linecap="round" fill="none" transform="rotate(-43)"/>
      </g>
    </g>
    
  </g>

  <g transform="translate(0 173)">
    <text font-size="5pt" letter-spacing="1px" transform="translate(46.5 8)">5</text>
    <g transform="translate(46.8 10)"><svg id="CHANNEL5_LIGHT">
      <rect width="3.2" height="3.2" fill="#0f0"/>
    </svg></g>
    <g transform="translate(62.5 0)"><svg id="OFFSET5_PARAM">
      <g transform="translate(8 8)">
        <polyline points="-3,0 3,0" stroke-width="1" stroke="#00f"/>
        <polyline points="0,-3 0,3" stroke-width="1" stroke="#00f"/>
        <circle r="7.5" stroke-width="1" stroke="#00f" fill="none"/>
      </g>
    </svg></g>
    <g transform="translate(50.5 -12)">
      <g transform="translate(20 20)">
        <g transform="rotate(-90) translate(10 0)">
          <polyline points="0,0 4,0" stroke-width="1"/>
        </g>
        <path d="M 0 -12.5 A 12.5 12.5 0 0 1 12.5 0" stroke-width="0.5" stroke-linecap="round" fill="none" transform="rotate(20)"/>
        <path d="M 0 -12.5 A 12.5 12.5 0 0 1 12.5 0" stroke-width="0.5" stroke-linecap="round" fill="none" transform="rotate(43)"/>
        <path d="M 0 -12.5 A 12.5 12.5 0 0 0 -12.5 0" stroke-width="0.5" stroke-linecap="round" fill="none" transform="rotate(-20)"/>
        <path d="M 0 -12.5 A 12.5 12.5 0 0 0 -12.5 0" stroke-width="0.5" stroke-linecap="round" fill="none" transform="rotate(-43)"/>
      </g>
    </g>
    <g transform="translate(93.5 0)"><svg id="SCALE5_PARAM">
      <g transform="translate(8 8)">
        <polyline points="-3,0 3,0" stroke-width="1" stroke="#00f"/>
        <polyline points="0,-3 0,3" stroke-width="1" stroke="#00f"/>
        <circle r="7.5" stroke-width="1" stroke="#00f" fill="none"/>
      </g>
    </svg></g>
    <g transform="translate(81.5 -12)">
      <g transform="translate(20 20)">
        <g transform="rotate(-240) translate(10 0)">
          <polyline points="0,0 4,0" stroke-width="1"/>
        </g>
        <path d="M 0 -12.5 A 12.5 12.5 0 0 1 12.5 0" stroke-width="0.5" stroke-linecap="round" fill="none" transform="rotate(0)"/>
        <path d="M 0 -12.5 A 12.5 12.5 0 0 1 12.5 0" stroke-width="0.5" stroke-linecap="round" fill="none" transform="rotate(43)"/>
        <path d="M 0 -12.5 A 12.5 12.5 0 0 0 -12.5 0" stroke-width="0.5" stroke-linecap="round" fill="none" transform="rotate(0)"/>
        <path d="M 0 -12.5 A 12.5 12.5 0 0 0 -12.5 0" stroke-width="0.5" stroke-linecap="round" fill="none" transform="rotate(-43)"/>
      </g>
    </g>
    
  </g>

  <g transform="translate(0 208)">
    <text font-size="5pt" letter-spacing="1px" transform="translate(46.5 8)">6</text>
    <g transform="translate(46.8 10)"><svg id="CHANNEL6_LIGHT">
      <rect width="3.2" height="3.2" fill="#0f0"/>
    </svg></g>
    <g transform="translate(62.5 0)"><svg id="OFFSET6_PARAM">
      <g transform="translate(8 8)">
        <polyline points="-3,0 3,0" stroke-width="1" stroke="#00f"/>
        <polyline points="0,-3 0,3" stroke-width="1" stroke="#00f"/>
        <circle r="7.5" stroke-width="1" stroke="#00f" fill="none"/>
      </g>
    </svg></g>
    <g transform="translate(50.5 -12)">
      <g transform="translate(20 20)">
        <g transform="rotate(-90) translate(10 0)">
          <polyline points="0,0 4,0" stroke-width="1"/>
        </g>
        <path d="M 0 -12.5 A 12.5 12.5 0 0 1 12.5 0" stroke-width="0.5" stroke-linecap="round" fill="none" transform="rotate(20)"/>
        <path d="M 0 -12.5 A 12.5 12.5 0 0 1 12.5 0" stroke-width="0.5" stroke-linecap="round" fill="none" transform="rotate(43)"/>
        <path d="M 0 -12.5 A 12.5 12.5 0 0 0 -12.5 0" stroke-width="0.5" stroke-linecap="round" fill="none" transform="rotate(-20)"/>
        <path d="M 0 -12.5 A 12.5 12.5 0 0 0 -12.5 0" stroke-width="0.5" stroke-linecap="round" fill="none" transform="rotate(-43)"/>
      </g>
    </g>
    <g transform="translate(93.5 0)"><svg id="SCALE6_PARAM">
      <g transform="translate(8 8)">
        <polyline points="-3,0 3,0" stroke-width="1" stroke="#00f"/>
        <polyline points="0,-3 0,3" stroke-width="1" stroke="#00f"/>
        <circle r="7.5" stroke-width="1" stroke="#00f" fill="none"/>
      </g>
    </svg></g>
    <g transform="translate(81.5 -12)">
      <g transform="translate(20 20)">
        <g transform="rotate(-240) translate(10 0)">
          <polyline points="0,0 4,0" stroke-width="1"/>
        </g>
        <path d="M 0 -12.5 A 12.5 12.5 0 0 1 12.5 0" stroke-width="0.5" stroke-linecap="round" fill="none" transform="rotate(0)"/>
        <path d="M 0 -12.5 A 12.5 12.5 0 0 1 12.5 0" stroke-width="0.5" stroke-linecap="round" fill="none" transform="rotate(43)"/>
        <path d="M 0 -12.5 A 12.5 12.5 0 0 0 -12.5 0" stroke-width="0.5" stroke-linecap="round" fill="none" transform="rotate(0)"/>
        <path d="M 0 -12.5 A 12.5 12.5 0 0 0 -12.5 0" stroke-width="0.5" stroke-linecap="round" fill="none" transform="rotate(-43)"/>
      </g>
    </g>
    
  </g>

  <g transform="translate(0 243)">
    <text font-size="5pt" letter-spacing="1px" transform="translate(46.5 8)">7</text>
    <g transform="translate(46.8 10)"><svg id="CHANNEL7_LIGHT">
      <rect width="3.2" height="3.2" fill="#0f0"/>
    </svg></g>
    <g transform="translate(62.5 0)"><svg id="OFFSET7_PARAM">
      <g transform="translate(8 8)">
        <polyline points="-3,0 3,0" stroke-width="1" stroke="#00f"/>
        <polyline points="0,-3 0,3" stroke-width="1" stroke="#00f"/>
        <circle r="7.5" stroke-width="1" stroke="#00f" fill="none"/>
      </g>
    </svg></g>
    <g transform="translate(50.5 -12)">
      <g transform="translate(20 20)">
        <g transform="rotate(-90) translate(10 0)">
          <polyline points="0,0 4,0" stroke-width="1"/>
        </g>
        <path d="M 0 -12.5 A 12.5 12.5 0 0 1 12.5 0" stroke-width="0.5" stroke-linecap="round" fill="none" transform="rotate(20)"/>
        <path d="M 0 -12.5 A 12.5 12.5 0 0 1 12.5 0" stroke-width="0.5" stroke-linecap="round" fill="none" transform="rotate(43)"/>
        <path d="M 0 -12.5 A 12.5 12.5 0 0 0 -12.5 0" stroke-width="0.5" stroke-linecap="round" fill="none" transform="rotate(-20)"/>
        <path d="M 0 -12.5 A 12.5 12.5 0 0 0 -12.5 0" stroke-width="0.5" stroke-linecap="round" fill="none" transform="rotate(-43)"/>
      </g>
    </g>
    <g transform="translate(93.5 0)"><svg id="SCALE7_PARAM">
      <g transform="translate(8 8)">
        <polyline points="-3,0 3,0" stroke-width="1" stroke="#00f"/>
        <polyline points="0,-3 0,3" stroke-width="1" stroke="#00f"/>
        <circle r="7.5" stroke-width="1" stroke="#00f" fill="none"/>
      </g>
    </svg></g>
    <g transform="translate(81.5 -12)">
      <g transform="translate(20 20)">
        <g transform="rotate(-240) translate(10 0)">
          <polyline points="0,0 4,0" stroke-width="1"/>
        </g>
        <path d="M 0 -12.5 A 12.5 12.5 0 0 1 12.5 0" stroke-width="0.5" stroke-linecap="round" fill="none" transform="rotate(0)"/>
        <path d="M 0 -12.5 A 12.5 12.5 0 0 1 12.5 0" stroke-width="0.5" stroke-linecap="round" fill="none" transform="rotate(43)"/>
        <path d="M 0 -12.5 A 12.5 12.5 0 0 0 -12.5 0" stroke-width="0.5" stroke-linecap="round" fill="none" transform="rotate(0)"/>
        <path d="M 0 -12.5 A 12.5 12.5 0 0 0 -12.5 0" stroke-width="0.5" stroke-linecap="round" fill="none" transform="rotate(-43)"/>
      </g>
    </g>
    
  </g>

  <g transform="translate(0 278)">
    <text font-size="5pt" letter-spacing="1px" transform="translate(46.5 8)">8</text>
    <g transform="translate(46.8 10)"><svg id="CHANNEL8_LIGHT">
      <rect width="3.2" height="3.2" fill="#0f0"/>
    </svg></g>
    <g transform="translate(62.5 0)"><svg id="OFFSET8_PARAM">
      <g transform="translate(8 8)">
        <polyline points="-3,0 3,0" stroke-width="1" stroke="#00f"/>
        <polyline points="0,-3 0,3" stroke-width="1" stroke="#00f"/>
        <circle r="7.5" stroke-width="1" stroke="#00f" fill="none"/>
      </g>
    </svg></g>
    <g transform="translate(50.5 -12)">
      <g transform="translate(20 20)">
        <g transform="rotate(-90) translate(10 0)">
          <polyline points="0,0 4,0" stroke-width="1"/>
        </g>
        <path d="M 0 -12.5 A 12.5 12.5 0 0 1 12.5 0" stroke-width="0.5" stroke-linecap="round" fill="none" transform="rotate(20)"/>
        <path d="M 0 -12.5 A 12.5 12.5 0 0 1 12.5 0" stroke-width="0.5" stroke-linecap="round" fill="none" transform="rotate(43)"/>
        <path d="M 0 -12.5 A 12.5 12.5 0 0 0 -12.5 0" stroke-width="0.5" stroke-linecap="round" fill="none" transform="rotate(-20)"/>
        <path d="M 0 -12.5 A 12.5 12.5 0 0 0 -12.5 0" stroke-width="0.5" stroke-linecap="round" fill="none" transform="rotate(-43)"/>
      </g>
    </g>
    <g transform="translate(93.5 0)"><svg id="SCALE8_PARAM">
      <g transform="translate(8 8)">
        <polyline points="-3,0 3,0" stroke-width="1" stroke="#00f"/>
        <polyline points="0,-3 0,3" stroke-width="1" stroke="#00f"/>
        <circle r="7.5" stroke-width="1" stroke="#00f" fill="none"/>
      </g>
    </svg></g>
    <g transform="translate(81.5 -12)">
      <g transform="translate(20 20)">
        <g transform="rotate(-240) translate(10 0)">
          <polyline points="0,0 4,0" stroke-width="1"/>
        </g>
        <path d="M 0 -12.5 A 12.5 12.5 0 0 1 12.5 0" stroke-width="0.5" stroke-linecap="round" fill="none" transform="rotate(0)"/>
        <path d="M 0 -12.5 A 12.5 12.5 0 0 1 12.5 0" stroke-width="0.5" stroke-linecap="round" fill="none" transform="rotate(43)"/>
        <path d="M 0 -12.5 A 12.5 12.5 0 0 0 -12.5 0" stroke-width="0.5" stroke-linecap="round" fill="none" transform="rotate(0)"/>
        <path d="M 0 -12.5 A 12.5 12.5 0 0 0 -12.5 0" stroke-width="0.5" stroke-linecap="round" fill="none" transform="rotate(-43)"/>
      </g>
    </g>
    
  </g>

  <text font-size="6pt" letter-spacing="0.3px" transform="translate(55 308)">OFFSET</text>
  <text font-size="6pt" letter-spacing="0.3px" transform="translate(88.5 308)">SCALE</text>

  <g transform="translate(11 320)">
    <text font-size="6pt" letter-spacing="1.5px" transform="translate(0 39) rotate(-90) translate(6.5 0)">CHAN</text>
    <g transform="translate(12 12)"><svg id="CHANNELS_PARAM">
      <g transform="translate(8 8)">
        <polyline points="-3,0 3,0" stroke-width="1" stroke="#00f"/>
        <polyline points="0,-3 0,3" stroke-width="1" stroke="#00f"/>
        <circle r="7.5" stroke-width="1" stroke="#00f" fill="none"/>
      </g>
    </svg></g>
    <g transform="translate(0 0)">
      <g transform="translate(20 20)">
        <text font-size="5pt" transform="rotate(-240) translate(14 0) rotate(240) translate(-2 2)">1</text>
        <text font-size="5pt" transform="rotate(-197.1) translate(14 0) rotate(197.1) translate(-2 2)">2</text>
        <polyline points="0,0 2.5,0" stroke-width="0.3" transform="rotate(-154.3) translate(10 0)"/>
        <text font-size="5pt" transform="rotate(-111.4) translate(14 0) rotate(111.4) translate(-2 2)">4</text>
        <polyline points="0,0 2.5,0" stroke-width="0.3" transform="rotate(-68.6) translate(10 0)"/>
        <text font-size="5pt" transform="rotate(-25.7) translate(13 0) rotate(25.7) translate(-2 2)">6</text>
        <polyline points="0,0 2.5,0" stroke-width="0.3" transform="rotate(17.1) translate(10 0)"/>
        <text font-size="5pt" transform="rotate(60) translate(13 0) rotate(-60) translate(-1.8 3)">8</text>
      </g>
    </g>
  </g>

  <g class="io-group" transform="translate(52 318)">
    <rect class="input-background" width="60" height="40" rx="5"/>
    <rect class="output-background" width="24" height="40" rx="5" transform="translate(38)"/>
    <rect class="output-background-filler" width="20" height="40" transform="translate(31)"/>
    <g transform="translate(3.5 4)"><svg id="IN_INPUT">
      <g transform="translate(12 12)">
        <circle cx="0" cy="0" r="5" stroke-width="1" stroke="#0f0" fill="#0f0"/>
        <circle cx="0" cy="0" r="10.5" stroke-width="3" stroke="#0f0" fill="none"/>
      </g>
    </svg></g>
    <g transform="translate(34.5 4)"><svg id="OUT_OUTPUT">
      <g transform="translate(12 12)">
        <circle cx="0" cy="0" r="5" stroke-width="1" stroke="#f00" fill="#f00"/>
        <circle cx="0" cy="0" r="10.5" stroke-width="3" stroke="#f00" fill="none"/>
      </g>
    </svg></g>
    <text class="output-label" font-size="6pt" letter-spacing="1px" transform="translate(11 36)">IN</text>
    <text font-size="6pt" letter-spacing="2px" transform="translate(36 36)">OUT</text>
  </g>
</svg>
