<?xml version="1.0"?>
<svg xmlns="http://www.w3.org/2000/svg" xmlns:xlink="http://www.w3.org/1999/xlink" version="1.1" width="45.0" height="380.0" viewBox="0 0 45.0 380.0">
  <style>text {
  fill: #333;
  font-family: 'Roboto', sans-serif;
  font-weight: bold;
}
text.title {
  font-family: 'Comfortaa', sans-serif;
  font-weight: normal;
}
text.brand {
  font-family: 'Audiowide', sans-serif;
  font-weight: bold;
}

polyline {
  stroke: #333;
}
path {
  stroke: #333;
}

rect.module-background, .background-fill {
  fill: #ddd;
}
polyline.module-border-inner {
  stroke: #e4e4e4;
}
polyline.module-border-middle {
  stroke: #ebebeb;
}
polyline.module-border-outer {
  stroke: #f2f2f2;
}

g.io-group {
}
rect.input-background, rect.input-background-filler {
  fill: #fafafa;
}
rect.output-background, rect.output-background-filler {
  fill: #bbb;
}
text.input-label, text.output-label {
  /* font-size: 6pt; */
}
polyline.input-label, polyline.output-label {
}
path.input-label, path.output-label {
}

circle.port-rim {
  stroke: #f0f0f0;
}
circle.port-barrel {
  stroke: #222;
  fill: #222;
}
circle.knob-center {
   fill: #eee;
}
circle.knob-rim {
   fill: #333;
}
circle.knob-tick {
  fill: #fff;
}
polyline.knob-tick {
  stroke: #fff;
}


text {
  fill: #b3b3b3;
}

polyline {
  stroke: #b3b3b3;
}
path {
  stroke: #b3b3b3;
}

rect.module-background, .background-fill {
  fill: #333;
}
polyline.module-border-inner {
  stroke: #191919;
}
polyline.module-border-middle {
  stroke: #111;
}
polyline.module-border-outer {
  stroke: #000;
}

rect.input-background, rect.input-background-filler {
  fill: #b3b3b3;
}
rect.output-background, rect.output-background-filler {
  fill: #888;
}
text.input-label {
  fill: #666;
}
polyline.input-label, path.input-label {
  stroke: #666;
}
text.output-label {
  fill: #ccc;
}
polyline.output-label, path.output-label {
  stroke: #ccc;
}

circle.port-rim {
  stroke: #ccc;
}
circle.port-barrel {
  stroke: #222;
  fill: #222;
}
circle.knob-center {
   fill: #bbb;
}
circle.knob-rim {
   fill: #555;
}
circle.knob-tick {
  fill: #fff;
}
polyline.knob-tick {
  stroke: #fff;
}
</style>

  
      
      <rect class="module-background background-fill" width="45.0" height="380.0"/>
    
      
      <polyline class="module-border-inner" points="1,1 44.0,1 44.0,379.0 1,379.0 1,1" stroke-width="0.5" fill="none"/>
      <polyline class="module-border-middle" points="0.5,0.5 44.5,0.5 44.5,379.5 0.5,379.5 0.5,0.5" stroke-width="0.8" fill="none"/>
      <polyline class="module-border-outer" points="0,0 45.0,0 45.0,380.0 0,380.0 0,0" stroke-width="1" fill="none"/>
    
      <g transform="rotate(-90) translate(-376.0 13)">
        <text class="title" font-size="7pt" letter-spacing="1.3px">POLYCON8</text>
        <g transform="translate(0 12)">
          <text class="brand" font-size="7pt" letter-spacing="2px">BGA</text>
          <rect class="background-fill" width="3.0" height="3" fill="#ddd" transform="translate(11.5 -5)"/>
        </g>
      </g>
    

  
  

  <g transform="translate(0 18)">
    
    <g transform="translate(14.5 6)"><svg id="CHANNEL1_PARAM">
      <g transform="translate(8 8)">
        <polyline points="-3,0 3,0" stroke-width="1" stroke="#00f"/>
        <polyline points="0,-3 0,3" stroke-width="1" stroke="#00f"/>
        <circle r="7.5" stroke-width="1" stroke="#00f" fill="none"/>
      </g>
    </svg></g>
    <g transform="translate(2.2 -6)">
      <g transform="translate(20 20)">
        <polyline points="0,0 4,0" stroke-width="1" transform="rotate(-90) translate(10 0)"/>
        <path d="M 0 -12.5 A 12.5 12.5 0 0 1 12.5 0" stroke-width="0.7" stroke-linecap="round" stroke="#b3b3b3" fill="none" transform="rotate(20)"/>
        <path d="M 0 -12.5 A 12.5 12.5 0 0 1 12.5 0" stroke-width="0.7" stroke-linecap="round" stroke="#b3b3b3" fill="none" transform="rotate(43)"/>
        <path d="M 0 -12.5 A 12.5 12.5 0 0 0 -12.5 0" stroke-width="0.7" stroke-linecap="round" stroke="#b3b3b3" fill="none" transform="rotate(-20)"/>
        <path d="M 0 -12.5 A 12.5 12.5 0 0 0 -12.5 0" stroke-width="0.7" stroke-linecap="round" stroke="#b3b3b3" fill="none" transform="rotate(-43)"/>
      </g>
    </g>
    <text font-size="5pt" letter-spacing="1px" transform="translate(3 16.5)">1</text>
    <g transform="translate(38.5 12.4)"><svg id="CHANNEL1_LIGHT">
      <rect width="3.2" height="3.2" fill="#0f0"/>
    </svg></g>
  </g>
  <g transform="translate(0 49.5)">
    
    <g transform="translate(14.5 6)"><svg id="CHANNEL2_PARAM">
      <g transform="translate(8 8)">
        <polyline points="-3,0 3,0" stroke-width="1" stroke="#00f"/>
        <polyline points="0,-3 0,3" stroke-width="1" stroke="#00f"/>
        <circle r="7.5" stroke-width="1" stroke="#00f" fill="none"/>
      </g>
    </svg></g>
    <g transform="translate(2.2 -6)">
      <g transform="translate(20 20)">
        <polyline points="0,0 4,0" stroke-width="1" transform="rotate(-90) translate(10 0)"/>
        <path d="M 0 -12.5 A 12.5 12.5 0 0 1 12.5 0" stroke-width="0.7" stroke-linecap="round" stroke="#b3b3b3" fill="none" transform="rotate(20)"/>
        <path d="M 0 -12.5 A 12.5 12.5 0 0 1 12.5 0" stroke-width="0.7" stroke-linecap="round" stroke="#b3b3b3" fill="none" transform="rotate(43)"/>
        <path d="M 0 -12.5 A 12.5 12.5 0 0 0 -12.5 0" stroke-width="0.7" stroke-linecap="round" stroke="#b3b3b3" fill="none" transform="rotate(-20)"/>
        <path d="M 0 -12.5 A 12.5 12.5 0 0 0 -12.5 0" stroke-width="0.7" stroke-linecap="round" stroke="#b3b3b3" fill="none" transform="rotate(-43)"/>
      </g>
    </g>
    <text font-size="5pt" letter-spacing="1px" transform="translate(3 16.5)">2</text>
    <g transform="translate(38.5 12.4)"><svg id="CHANNEL2_LIGHT">
      <rect width="3.2" height="3.2" fill="#0f0"/>
    </svg></g>
  </g>
  <g transform="translate(0 81)">
    
    <g transform="translate(14.5 6)"><svg id="CHANNEL3_PARAM">
      <g transform="translate(8 8)">
        <polyline points="-3,0 3,0" stroke-width="1" stroke="#00f"/>
        <polyline points="0,-3 0,3" stroke-width="1" stroke="#00f"/>
        <circle r="7.5" stroke-width="1" stroke="#00f" fill="none"/>
      </g>
    </svg></g>
    <g transform="translate(2.2 -6)">
      <g transform="translate(20 20)">
        <polyline points="0,0 4,0" stroke-width="1" transform="rotate(-90) translate(10 0)"/>
        <path d="M 0 -12.5 A 12.5 12.5 0 0 1 12.5 0" stroke-width="0.7" stroke-linecap="round" stroke="#b3b3b3" fill="none" transform="rotate(20)"/>
        <path d="M 0 -12.5 A 12.5 12.5 0 0 1 12.5 0" stroke-width="0.7" stroke-linecap="round" stroke="#b3b3b3" fill="none" transform="rotate(43)"/>
        <path d="M 0 -12.5 A 12.5 12.5 0 0 0 -12.5 0" stroke-width="0.7" stroke-linecap="round" stroke="#b3b3b3" fill="none" transform="rotate(-20)"/>
        <path d="M 0 -12.5 A 12.5 12.5 0 0 0 -12.5 0" stroke-width="0.7" stroke-linecap="round" stroke="#b3b3b3" fill="none" transform="rotate(-43)"/>
      </g>
    </g>
    <text font-size="5pt" letter-spacing="1px" transform="translate(3 16.5)">3</text>
    <g transform="translate(38.5 12.4)"><svg id="CHANNEL3_LIGHT">
      <rect width="3.2" height="3.2" fill="#0f0"/>
    </svg></g>
  </g>
  <g transform="translate(0 112.5)">
    
    <g transform="translate(14.5 6)"><svg id="CHANNEL4_PARAM">
      <g transform="translate(8 8)">
        <polyline points="-3,0 3,0" stroke-width="1" stroke="#00f"/>
        <polyline points="0,-3 0,3" stroke-width="1" stroke="#00f"/>
        <circle r="7.5" stroke-width="1" stroke="#00f" fill="none"/>
      </g>
    </svg></g>
    <g transform="translate(2.2 -6)">
      <g transform="translate(20 20)">
        <polyline points="0,0 4,0" stroke-width="1" transform="rotate(-90) translate(10 0)"/>
        <path d="M 0 -12.5 A 12.5 12.5 0 0 1 12.5 0" stroke-width="0.7" stroke-linecap="round" stroke="#b3b3b3" fill="none" transform="rotate(20)"/>
        <path d="M 0 -12.5 A 12.5 12.5 0 0 1 12.5 0" stroke-width="0.7" stroke-linecap="round" stroke="#b3b3b3" fill="none" transform="rotate(43)"/>
        <path d="M 0 -12.5 A 12.5 12.5 0 0 0 -12.5 0" stroke-width="0.7" stroke-linecap="round" stroke="#b3b3b3" fill="none" transform="rotate(-20)"/>
        <path d="M 0 -12.5 A 12.5 12.5 0 0 0 -12.5 0" stroke-width="0.7" stroke-linecap="round" stroke="#b3b3b3" fill="none" transform="rotate(-43)"/>
      </g>
    </g>
    <text font-size="5pt" letter-spacing="1px" transform="translate(3 16.5)">4</text>
    <g transform="translate(38.5 12.4)"><svg id="CHANNEL4_LIGHT">
      <rect width="3.2" height="3.2" fill="#0f0"/>
    </svg></g>
  </g>
  <g transform="translate(0 144)">
    
    <g transform="translate(14.5 6)"><svg id="CHANNEL5_PARAM">
      <g transform="translate(8 8)">
        <polyline points="-3,0 3,0" stroke-width="1" stroke="#00f"/>
        <polyline points="0,-3 0,3" stroke-width="1" stroke="#00f"/>
        <circle r="7.5" stroke-width="1" stroke="#00f" fill="none"/>
      </g>
    </svg></g>
    <g transform="translate(2.2 -6)">
      <g transform="translate(20 20)">
        <polyline points="0,0 4,0" stroke-width="1" transform="rotate(-90) translate(10 0)"/>
        <path d="M 0 -12.5 A 12.5 12.5 0 0 1 12.5 0" stroke-width="0.7" stroke-linecap="round" stroke="#b3b3b3" fill="none" transform="rotate(20)"/>
        <path d="M 0 -12.5 A 12.5 12.5 0 0 1 12.5 0" stroke-width="0.7" stroke-linecap="round" stroke="#b3b3b3" fill="none" transform="rotate(43)"/>
        <path d="M 0 -12.5 A 12.5 12.5 0 0 0 -12.5 0" stroke-width="0.7" stroke-linecap="round" stroke="#b3b3b3" fill="none" transform="rotate(-20)"/>
        <path d="M 0 -12.5 A 12.5 12.5 0 0 0 -12.5 0" stroke-width="0.7" stroke-linecap="round" stroke="#b3b3b3" fill="none" transform="rotate(-43)"/>
      </g>
    </g>
    <text font-size="5pt" letter-spacing="1px" transform="translate(3 16.5)">5</text>
    <g transform="translate(38.5 12.4)"><svg id="CHANNEL5_LIGHT">
      <rect width="3.2" height="3.2" fill="#0f0"/>
    </svg></g>
  </g>
  <g transform="translate(0 175.5)">
    
    <g transform="translate(14.5 6)"><svg id="CHANNEL6_PARAM">
      <g transform="translate(8 8)">
        <polyline points="-3,0 3,0" stroke-width="1" stroke="#00f"/>
        <polyline points="0,-3 0,3" stroke-width="1" stroke="#00f"/>
        <circle r="7.5" stroke-width="1" stroke="#00f" fill="none"/>
      </g>
    </svg></g>
    <g transform="translate(2.2 -6)">
      <g transform="translate(20 20)">
        <polyline points="0,0 4,0" stroke-width="1" transform="rotate(-90) translate(10 0)"/>
        <path d="M 0 -12.5 A 12.5 12.5 0 0 1 12.5 0" stroke-width="0.7" stroke-linecap="round" stroke="#b3b3b3" fill="none" transform="rotate(20)"/>
        <path d="M 0 -12.5 A 12.5 12.5 0 0 1 12.5 0" stroke-width="0.7" stroke-linecap="round" stroke="#b3b3b3" fill="none" transform="rotate(43)"/>
        <path d="M 0 -12.5 A 12.5 12.5 0 0 0 -12.5 0" stroke-width="0.7" stroke-linecap="round" stroke="#b3b3b3" fill="none" transform="rotate(-20)"/>
        <path d="M 0 -12.5 A 12.5 12.5 0 0 0 -12.5 0" stroke-width="0.7" stroke-linecap="round" stroke="#b3b3b3" fill="none" transform="rotate(-43)"/>
      </g>
    </g>
    <text font-size="5pt" letter-spacing="1px" transform="translate(3 16.5)">6</text>
    <g transform="translate(38.5 12.4)"><svg id="CHANNEL6_LIGHT">
      <rect width="3.2" height="3.2" fill="#0f0"/>
    </svg></g>
  </g>
  <g transform="translate(0 207)">
    
    <g transform="translate(14.5 6)"><svg id="CHANNEL7_PARAM">
      <g transform="translate(8 8)">
        <polyline points="-3,0 3,0" stroke-width="1" stroke="#00f"/>
        <polyline points="0,-3 0,3" stroke-width="1" stroke="#00f"/>
        <circle r="7.5" stroke-width="1" stroke="#00f" fill="none"/>
      </g>
    </svg></g>
    <g transform="translate(2.2 -6)">
      <g transform="translate(20 20)">
        <polyline points="0,0 4,0" stroke-width="1" transform="rotate(-90) translate(10 0)"/>
        <path d="M 0 -12.5 A 12.5 12.5 0 0 1 12.5 0" stroke-width="0.7" stroke-linecap="round" stroke="#b3b3b3" fill="none" transform="rotate(20)"/>
        <path d="M 0 -12.5 A 12.5 12.5 0 0 1 12.5 0" stroke-width="0.7" stroke-linecap="round" stroke="#b3b3b3" fill="none" transform="rotate(43)"/>
        <path d="M 0 -12.5 A 12.5 12.5 0 0 0 -12.5 0" stroke-width="0.7" stroke-linecap="round" stroke="#b3b3b3" fill="none" transform="rotate(-20)"/>
        <path d="M 0 -12.5 A 12.5 12.5 0 0 0 -12.5 0" stroke-width="0.7" stroke-linecap="round" stroke="#b3b3b3" fill="none" transform="rotate(-43)"/>
      </g>
    </g>
    <text font-size="5pt" letter-spacing="1px" transform="translate(3 16.5)">7</text>
    <g transform="translate(38.5 12.4)"><svg id="CHANNEL7_LIGHT">
      <rect width="3.2" height="3.2" fill="#0f0"/>
    </svg></g>
  </g>
  <g transform="translate(0 238.5)">
    
    <g transform="translate(14.5 6)"><svg id="CHANNEL8_PARAM">
      <g transform="translate(8 8)">
        <polyline points="-3,0 3,0" stroke-width="1" stroke="#00f"/>
        <polyline points="0,-3 0,3" stroke-width="1" stroke="#00f"/>
        <circle r="7.5" stroke-width="1" stroke="#00f" fill="none"/>
      </g>
    </svg></g>
    <g transform="translate(2.2 -6)">
      <g transform="translate(20 20)">
        <polyline points="0,0 4,0" stroke-width="1" transform="rotate(-90) translate(10 0)"/>
        <path d="M 0 -12.5 A 12.5 12.5 0 0 1 12.5 0" stroke-width="0.7" stroke-linecap="round" stroke="#b3b3b3" fill="none" transform="rotate(20)"/>
        <path d="M 0 -12.5 A 12.5 12.5 0 0 1 12.5 0" stroke-width="0.7" stroke-linecap="round" stroke="#b3b3b3" fill="none" transform="rotate(43)"/>
        <path d="M 0 -12.5 A 12.5 12.5 0 0 0 -12.5 0" stroke-width="0.7" stroke-linecap="round" stroke="#b3b3b3" fill="none" transform="rotate(-20)"/>
        <path d="M 0 -12.5 A 12.5 12.5 0 0 0 -12.5 0" stroke-width="0.7" stroke-linecap="round" stroke="#b3b3b3" fill="none" transform="rotate(-43)"/>
      </g>
    </g>
    <text font-size="5pt" letter-spacing="1px" transform="translate(3 16.5)">8</text>
    <g transform="translate(38.5 12.4)"><svg id="CHANNEL8_LIGHT">
      <rect width="3.2" height="3.2" fill="#0f0"/>
    </svg></g>
  </g>

  <g class="io-group" transform="translate(7.5 270)">
    <rect class="output-background" width="34" height="40" rx="5" transform="translate(-2 0)"/>
    <g transform="translate(3 4)"><svg id="OUT_OUTPUT">
      <g transform="translate(12 12)">
        <circle cx="0" cy="0" r="5" stroke-width="1" stroke="#f00" fill="#f00"/>
        <circle cx="0" cy="0" r="10.5" stroke-width="3" stroke="#f00" fill="none"/>
      </g>
    </svg></g>
    <text class="output-label" font-size="6pt" letter-spacing="2px" transform="translate(5 36)">OUT</text>
  </g>
</svg>
