<?xml version="1.0"?>
<svg xmlns="http://www.w3.org/2000/svg" xmlns:xlink="http://www.w3.org/1999/xlink" version="1.1" width="75.0" height="380.0" viewBox="0 0 75.0 380.0">
  <style>text {
  fill: #333;
  font-family: 'Roboto', sans-serif;
  font-weight: bold;
}
text.title {
  font-family: 'Comfortaa', sans-serif;
  font-weight: normal;
}
text.brand {
  font-family: 'Audiowide', sans-serif;
  font-weight: bold;
}

polyline {
  stroke: #333;
}
polyline.guide {
  stroke: #0f0;
}
path {
  stroke: #333;
}

rect.module-background, .background-fill {
  fill: #ddd;
}
polyline.module-border-inner {
  stroke: #e4e4e4;
}
polyline.module-border-middle {
  stroke: #ebebeb;
}
polyline.module-border-outer {
  stroke: #f2f2f2;
}

g.io-group {
}
rect.input-background, rect.input-background-filler {
  fill: #fafafa;
}
rect.output-background, rect.output-background-filler {
  fill: #bbb;
}
text.input-label, text.output-label {
  /* font-size: 6pt; */
}
polyline.input-label, polyline.output-label {
}
path.input-label, path.output-label {
}

circle.port-rim {
  stroke: #f0f0f0;
}
circle.port-barrel {
  stroke: #222;
  fill: #222;
}
circle.knob-center {
   fill: #eee;
}
circle.knob-rim {
   fill: #333;
}
circle.knob-tick {
  fill: #fff;
}
polyline.knob-tick {
  stroke: #fff;
}


text {
  fill: #b3b3b3;
}

polyline {
  stroke: #b3b3b3;
}
path {
  stroke: #b3b3b3;
}

rect.module-background, .background-fill {
  fill: #333;
}
polyline.module-border-inner {
  stroke: #191919;
}
polyline.module-border-middle {
  stroke: #111;
}
polyline.module-border-outer {
  stroke: #000;
}

rect.input-background, rect.input-background-filler {
  fill: #b3b3b3;
}
rect.output-background, rect.output-background-filler {
  fill: #888;
}
text.input-label {
  fill: #666;
}
polyline.input-label, path.input-label {
  stroke: #666;
}
text.output-label {
  fill: #ccc;
}
polyline.output-label, path.output-label {
  stroke: #ccc;
}

circle.port-rim {
  stroke: #bbb;
}
circle.port-barrel {
  stroke: #222;
  fill: #222;
}
circle.knob-center {
   fill: #bbb;
}
circle.knob-rim {
   fill: #555;
}
circle.knob-tick {
  fill: #fff;
}
polyline.knob-tick {
  stroke: #fff;
}
</style>

  <defs>
    <symbol id="dial-length-rgate" viewBox="0 0 75.0px 75.0px">
      <g transform="translate(37.5 37.5)">
        <text font-size="7pt" transform="rotate(-240) translate(26 0) rotate(240) translate(-2 3)">0</text>
        <polyline points="0,0 3.5,0" stroke-width="0.7" transform="rotate(-210) translate(22 0)"/>
        <polyline points="0,0 3.5,0" stroke-width="0.7" transform="rotate(-180) translate(22 0)"/>
        <polyline points="0,0 3.5,0" stroke-width="0.7" transform="rotate(-150) translate(22 0)"/>
        <polyline points="0,0 3.5,0" stroke-width="0.7" transform="rotate(-120) translate(22 0)"/>
        <polyline points="0,0 5,0" stroke-width="1.5" transform="rotate(-90) translate(22 0)"/>
        <polyline points="0,0 3.5,0" stroke-width="0.7" transform="rotate(-60) translate(22 0)"/>
        <polyline points="0,0 3.5,0" stroke-width="0.7" transform="rotate(-30) translate(22 0)"/>
        <polyline points="0,0 3.5,0" stroke-width="0.7" transform="rotate(0) translate(22 0)"/>
        <polyline points="0,0 3.5,0" stroke-width="0.7" transform="rotate(30) translate(22 0)"/>
        <polyline points="0,0 5,0" stroke-width="1.5" transform="rotate(60) translate(22 0)"/>
      </g>
    </symbol>

    <symbol id="dial-clock-rgate" viewBox="0 0 75.0px 75.0px">
      <g transform="translate(37.5 37.5)">
        <text font-size="7pt" text-anchor="middle" transform="rotate(-240) translate(20 0) rotate(240.0) translate(0 3)">1</text>
        <text font-size="7pt" text-anchor="middle" transform="rotate(-202.20355269907728) translate(19 0) rotate(202.20355269907728) translate(0 3)">2</text>
        <polyline points="0,0 3.5,0" stroke-width="0.7" transform="rotate(-174.5346329292023) translate(16 0)"/>
        <text font-size="7pt" text-anchor="middle" transform="rotate(-140.0) translate(20 0) rotate(140.0) translate(0 3)">8</text>
        <polyline points="0,0 3.5,0" stroke-width="0.7" transform="rotate(-114.64336589439827) translate(16 0)"/>
        <text font-size="7pt" text-anchor="middle" transform="rotate(-93.61498905772001) translate(20 0) rotate(93.61498905772001) translate(0 3)">16</text>
        <polyline points="0,0 3.5,0" stroke-width="0.7" transform="rotate(-58.73460656500686) translate(16 0)"/>
        <text font-size="7pt" text-anchor="middle" transform="rotate(-29.558287676339546) translate(21 0) rotate(29.558287676339546) translate(0 3)">32</text>
        <polyline points="0,0 3.5,0" stroke-width="0.7" transform="rotate(19.119387817386496) translate(16 0)"/>
        <text font-size="7pt" text-anchor="middle" transform="rotate(60) translate(20 0) rotate(-60) translate(0 3)">64</text>
      </g>
    </symbol>
  </defs>

  
      
      <rect class="module-background background-fill" width="75.0" height="380.0"/>
    
      
      <polyline class="module-border-inner" points="1,1 74.0,1 74.0,379.0 1,379.0 1,1" stroke-width="0.5" fill="none"/>
      <polyline class="module-border-middle" points="0.5,0.5 74.5,0.5 74.5,379.5 0.5,379.5 0.5,0.5" stroke-width="0.8" fill="none"/>
      <polyline class="module-border-outer" points="0,0 75.0,0 75.0,380.0 0,380.0 0,0" stroke-width="1" fill="none"/>
    
      <text class="title" font-size="9pt" letter-spacing="3px" text-anchor="end" transform="translate(72.0 17)">RGATE</text>
      <g transform="translate(25 374)">
        <text class="brand" font-size="6.5pt" letter-spacing="2px">BGA</text>
        <rect class="background-fill" width="2" height="2" fill="#ddd" transform="translate(11.5 -4)"/>
      </g>
    

  <g transform="translate(0 35)">
    <text font-size="8pt" letter-spacing="1.5px" text-anchor="middle" transform="translate(37.5 0)">LENGTH</text>
    <g transform="translate(18.5 13)"><svg id="LENGTH_PARAM">
      <g transform="translate(19 19)">
        <polyline points="-5,0 5,0" stroke-width="1" stroke="#00f"/>
        <polyline points="0,-5 0,5" stroke-width="1" stroke="#00f"/>
        <circle cx="0" cy="0" r="18.5" stroke-width="1" stroke="#00f" fill="none"/>
      </g>
    </svg></g>
    <use xlink:href="#dial-length-rgate" transform="translate(0 -5.5)" href="#dial-length-rgate"/>
  </g>

  <g transform="translate(0 114)">
    <text font-size="8pt" letter-spacing="1.2px" text-anchor="middle" transform="translate(37.5 0)">CLK DIV</text>
    <g transform="translate(24.5 15)"><svg id="CLOCK_DIVIDE_PARAM">
      <g transform="translate(13 13)">
        <polyline points="-3,0 3,0" stroke-width="1" stroke="#00f"/>
        <polyline points="0,-3 0,3" stroke-width="1" stroke="#00f"/>
        <circle cx="0" cy="0" r="12.5" stroke-width="1" stroke="#00f" fill="none"/>
      </g>
    </svg></g>
    <use xlink:href="#dial-clock-rgate" transform="translate(0 -9.5)" href="#dial-clock-rgate"/>
  </g>

  <g transform="translate(0 185)">
    <text font-size="8pt" letter-spacing="1.2px" text-anchor="middle" transform="translate(37.5 0)">CLK MUL</text>
    <g transform="translate(24.5 15)"><svg id="CLOCK_MULTIPLY_PARAM">
      <g transform="translate(13 13)">
        <polyline points="-3,0 3,0" stroke-width="1" stroke="#00f"/>
        <polyline points="0,-3 0,3" stroke-width="1" stroke="#00f"/>
        <circle cx="0" cy="0" r="12.5" stroke-width="1" stroke="#00f" fill="none"/>
      </g>
    </svg></g>
    <use xlink:href="#dial-clock-rgate" transform="translate(0 -9.5)" href="#dial-clock-rgate"/>
  </g>

  <g class="io-group" transform="translate(0 248)">
    <rect class="input-background" width="64" height="112" rx="5" transform="translate(5.5 0)"/>
    <g transform="translate(10.5 3)"><svg id="LENGTH_INPUT">
      <g transform="translate(12 12)">
        <circle cx="0" cy="0" r="5" stroke-width="1" stroke="#0f0" fill="#0f0"/>
        <circle cx="0" cy="0" r="10.5" stroke-width="3" stroke="#0f0" fill="none"/>
      </g>
    </svg></g>
    <text class="input-label" font-size="5pt" letter-spacing="2px" text-anchor="middle" transform="translate(22.5 35)">LEN</text>
    <g transform="translate(40.5 3)"><svg id="CLOCK_DIVIDE_INPUT">
      <g transform="translate(12 12)">
        <circle cx="0" cy="0" r="5" stroke-width="1" stroke="#0f0" fill="#0f0"/>
        <circle cx="0" cy="0" r="10.5" stroke-width="3" stroke="#0f0" fill="none"/>
      </g>
    </svg></g>
    <text class="input-label" font-size="5pt" letter-spacing="2px" text-anchor="middle" transform="translate(52.5 35)">DIV</text>
    <g transform="translate(10.5 40)"><svg id="RESET_INPUT">
      <g transform="translate(12 12)">
        <circle cx="0" cy="0" r="5" stroke-width="1" stroke="#0f0" fill="#0f0"/>
        <circle cx="0" cy="0" r="10.5" stroke-width="3" stroke="#0f0" fill="none"/>
      </g>
    </svg></g>
    <text class="input-label" font-size="5pt" letter-spacing="2px" text-anchor="middle" transform="translate(22.5 72)">RESET</text>
    <g transform="translate(40.5 40)"><svg id="CLOCK_MULTIPLE_INPUT">
      <g transform="translate(12 12)">
        <circle cx="0" cy="0" r="5" stroke-width="1" stroke="#0f0" fill="#0f0"/>
        <circle cx="0" cy="0" r="10.5" stroke-width="3" stroke="#0f0" fill="none"/>
      </g>
    </svg></g>
    <text class="input-label" font-size="5pt" letter-spacing="2px" text-anchor="middle" transform="translate(52.5 72)">MUL</text>
    <g transform="translate(10.5 77)"><svg id="CLOCK_INPUT">
      <g transform="translate(12 12)">
        <circle cx="0" cy="0" r="5" stroke-width="1" stroke="#0f0" fill="#0f0"/>
        <circle cx="0" cy="0" r="10.5" stroke-width="3" stroke="#0f0" fill="none"/>
      </g>
    </svg></g>
    <text class="input-label" font-size="5pt" letter-spacing="1px" text-anchor="middle" transform="translate(22.5 109)">CLOCK</text>
    <g transform="translate(30 72)">
      <rect class="output-background" width="32" height="38" rx="5" transform="translate(7.5 2)"/>
      <rect class="output-background-filler" width="32" height="10" transform="translate(7.5 2)"/>
      <rect class="output-background-filler" width="10" height="10" transform="translate(7.5 30)"/>
      <g transform="translate(10.5 5)"><svg id="GATE_OUTPUT">
      <g transform="translate(12 12)">
        <circle cx="0" cy="0" r="5" stroke-width="1" stroke="#f00" fill="#f00"/>
        <circle cx="0" cy="0" r="10.5" stroke-width="3" stroke="#f00" fill="none"/>
      </g>
    </svg></g>
      <text class="output-label" font-size="5pt" letter-spacing="2px" text-anchor="middle" transform="translate(22.5 37)">GATE</text>
    </g>
  </g>
</svg>
