<?xml version="1.0"?>
<svg xmlns="http://www.w3.org/2000/svg" xmlns:xlink="http://www.w3.org/1999/xlink" version="1.1" width="45" height="380" viewBox="0 0 45 380">
  <style>text {
  fill: #333;
  font-family: 'Roboto', sans-serif;
  font-weight: bold;
}
text.title {
  font-family: 'Comfortaa', sans-serif;
  font-weight: normal;
}
text.brand {
  font-family: 'Audiowide', sans-serif;
  font-weight: bold;
}
</style>

  <rect width="100%" height="100%" fill="#ddd"/>
  <polyline points="1,1 44,1 44,379 1,379 1,1" stroke="#e4e4e4" stroke-width="0.5" fill="none"/>
  <polyline points="0.5,0.5 44.5,0.5 44.5,379.5 0.5,379.5 0.5,0.5" stroke="#ebebeb" stroke-width="0.8" fill="none"/>
  <polyline points="0,0 45,0 45,380 0,380 0,0" stroke="#f2f2f2" stroke-width="1" fill="none"/>

  <!-- <polyline points="22.5,0 22.5,380" stroke-width="0.5" stroke="#0f0" /> -->
  <!-- <rect width="45" height="7" fill="#0f0" transform="translate(0 80)" /> -->
  <!-- <rect width="45" height="7" fill="#0f0" transform="translate(0 199)" /> -->
  <!-- <rect width="45" height="7" fill="#0f0" transform="translate(0 318)" /> -->

  <g transform="rotate(-90) translate(-376 13)">
    <text class="title" font-size="7pt" letter-spacing="2.5px">SWTCH</text>
    <g transform="translate(0 12)">
      <text class="brand" font-size="7pt" letter-spacing="2px">BGA</text>
      <rect width="3.0" height="3" fill="#ddd" transform="translate(11.5 -5)"/>
    </g>
  </g>

  <g transform="translate(0 18)">
    <g transform="translate(5.5 0)">
      <rect width="34" height="62" rx="5" fill="#fafafa"/>
      <g transform="translate(8 4)"><svg id="GATE_PARAM">
      <g transform="translate(9 9)">
        <circle cx="0" cy="0" r="8.5" stroke-width="1" stroke="#00f" fill="#f00"/>
      </g>
    </svg></g>
      <g transform="translate(5 26)"><svg id="GATE_INPUT">
      <g transform="translate(12 12)">
        <circle cx="0" cy="0" r="5" stroke-width="1" stroke="#0f0" fill="#0f0"/>
        <circle cx="0" cy="0" r="10.5" stroke-width="3" stroke="#0f0" fill="none"/>
      </g>
    </svg></g>
      <text font-size="5pt" letter-spacing="2px" transform="translate(5.5 58)">GATE</text>
    </g>

    <g transform="translate(4.5 67)">
      <text font-size="5pt" letter-spacing="1px" transform="translate(0 6)">LATCH</text>
      <g transform="translate(27 -1)"><svg id="LATCH_PARAM">
      <g transform="translate(4.5 4.5)">
        <circle r="4" stroke-width="1" stroke="#00f" fill="#f00"/>
      </g>
    </svg></g>
    </g>

    <g transform="translate(0 79)">
      <g transform="translate(5.5 0)">
        <rect width="34" height="74" rx="5" fill="#fafafa"/>
        <rect width="34" height="10" fill="#fafafa" transform="translate(0 64)"/>
        <g transform="translate(5 3)"><svg id="HIGH1_INPUT">
      <g transform="translate(12 12)">
        <circle cx="0" cy="0" r="5" stroke-width="1" stroke="#0f0" fill="#0f0"/>
        <circle cx="0" cy="0" r="10.5" stroke-width="3" stroke="#0f0" fill="none"/>
      </g>
    </svg></g>
        <text font-size="5pt" letter-spacing="1px" transform="translate(11.0 35)">HIGH</text>
        <g transform="translate(2 29.3)"><svg id="HIGH1_LIGHT">
      <rect width="6.4" height="6.4" fill="#0f0"/>
    </svg></g>
      </g>
      <g transform="translate(5.5 36)">
        <g transform="translate(5 3)"><svg id="LOW1_INPUT">
      <g transform="translate(12 12)">
        <circle cx="0" cy="0" r="5" stroke-width="1" stroke="#0f0" fill="#0f0"/>
        <circle cx="0" cy="0" r="10.5" stroke-width="3" stroke="#0f0" fill="none"/>
      </g>
    </svg></g>
        <text font-size="5pt" letter-spacing="2px" transform="translate(11.0 35)">LOW</text>
        <g transform="translate(2 29.3)"><svg id="LOW1_LIGHT">
      <rect width="6.4" height="6.4" fill="#0f0"/>
    </svg></g>
      </g>
      <g transform="translate(5.5 77)">
        <rect width="34" height="10" fill="#bbb" transform="translate(0 -3)"/>
        <rect width="34" height="35" rx="5" fill="#bbb"/>
        <g transform="translate(5 0)"><svg id="OUT1_OUTPUT">
      <g transform="translate(12 12)">
        <circle cx="0" cy="0" r="5" stroke-width="1" stroke="#f00" fill="#f00"/>
        <circle cx="0" cy="0" r="10.5" stroke-width="3" stroke="#f00" fill="none"/>
      </g>
    </svg></g>
        <text font-size="5pt" letter-spacing="2px" transform="translate(8.3 32)">OUT</text>
      </g>
    </g>

    <g transform="translate(0 196)">
      <g transform="translate(5.5 0)">
        <rect width="34" height="74" rx="5" fill="#fafafa"/>
        <rect width="34" height="10" fill="#fafafa" transform="translate(0 64)"/>
        <g transform="translate(5 3)"><svg id="HIGH2_INPUT">
      <g transform="translate(12 12)">
        <circle cx="0" cy="0" r="5" stroke-width="1" stroke="#0f0" fill="#0f0"/>
        <circle cx="0" cy="0" r="10.5" stroke-width="3" stroke="#0f0" fill="none"/>
      </g>
    </svg></g>
        <text font-size="5pt" letter-spacing="1px" transform="translate(11.0 35)">HIGH</text>
        <g transform="translate(2 29.3)"><svg id="HIGH2_LIGHT">
      <rect width="6.4" height="6.4" fill="#0f0"/>
    </svg></g>
      </g>
      <g transform="translate(5.5 36)">
        <g transform="translate(5 3)"><svg id="LOW2_INPUT">
      <g transform="translate(12 12)">
        <circle cx="0" cy="0" r="5" stroke-width="1" stroke="#0f0" fill="#0f0"/>
        <circle cx="0" cy="0" r="10.5" stroke-width="3" stroke="#0f0" fill="none"/>
      </g>
    </svg></g>
        <text font-size="5pt" letter-spacing="2px" transform="translate(11.0 35)">LOW</text>
        <g transform="translate(2 29.3)"><svg id="LOW2_LIGHT">
      <rect width="6.4" height="6.4" fill="#0f0"/>
    </svg></g>
      </g>
      <g transform="translate(5.5 77)">
        <rect width="34" height="10" fill="#bbb" transform="translate(0 -3)"/>
        <rect width="34" height="35" rx="5" fill="#bbb"/>
        <g transform="translate(5 0)"><svg id="OUT2_OUTPUT">
      <g transform="translate(12 12)">
        <circle cx="0" cy="0" r="5" stroke-width="1" stroke="#f00" fill="#f00"/>
        <circle cx="0" cy="0" r="10.5" stroke-width="3" stroke="#f00" fill="none"/>
      </g>
    </svg></g>
        <text font-size="5pt" letter-spacing="2px" transform="translate(8.3 32)">OUT</text>
      </g>
    </g>
  </g>
</svg>
